<?xml version="1.0" encoding="UTF-8" standalone="no"?>
<svg xmlns:ffdec="https://www.free-decompiler.com/flash" xmlns:xlink="http://www.w3.org/1999/xlink" ffdec:objectType="shape" height="66.2px" width="60.9px" xmlns="http://www.w3.org/2000/svg">
  <g transform="matrix(1.0, 0.0, 0.0, 1.0, 43.35, 56.0)">
    <path d="M0.45 -55.05 L0.7 -54.75 -0.35 -54.65 0.45 -55.05 M1.65 -54.65 L0.9 -55.25 1.75 -55.45 1.95 -54.6 1.65 -54.65" fill="url(#gradient0)" fill-rule="evenodd" stroke="none"/>
    <path d="M0.7 -54.75 L2.15 -52.7 3.95 -48.95 4.2 -48.7 Q2.65 -48.6 1.9 -47.1 L1.8 -47.0 1.35 -47.1 0.45 -47.1 -1.75 -45.6 -2.0 -46.5 -2.6 -47.1 Q-4.5 -50.8 -3.15 -52.8 L-3.1 -52.9 -1.65 -54.3 -0.35 -54.65 0.7 -54.75 M6.35 -49.05 Q6.05 -50.3 4.35 -52.05 L1.65 -54.65 1.95 -54.6 4.25 -53.8 6.05 -52.35 6.5 -49.7 6.35 -49.05" fill="url(#gradient1)" fill-rule="evenodd" stroke="none"/>
    <path d="M0.7 -54.75 L0.45 -55.05 -0.2 -56.0 0.9 -55.25 1.65 -54.65 4.35 -52.05 Q6.05 -50.3 6.35 -49.05 L6.35 -49.0 5.95 -49.05 Q5.55 -48.6 4.75 -48.45 L4.2 -48.7 3.95 -48.95 2.15 -52.7 0.7 -54.75" fill="url(#gradient2)" fill-rule="evenodd" stroke="none"/>
    <path d="M6.35 -49.0 L6.35 -49.05 6.5 -49.7 6.05 -52.35 Q5.85 -53.75 5.15 -54.6 L3.85 -55.55 5.45 -54.9 6.95 -53.55 7.75 -51.95 7.9 -50.15 7.9 -49.9 7.15 -49.25 6.95 -48.6 6.35 -49.0" fill="url(#gradient3)" fill-rule="evenodd" stroke="none"/>
    <path d="M6.95 -48.6 L7.15 -49.25 7.9 -49.9 7.9 -50.15 Q12.05 -48.9 11.95 -42.95 L11.35 -41.1 Q11.75 -45.4 7.5 -47.05 L7.5 -47.1 6.95 -48.6" fill="url(#gradient4)" fill-rule="evenodd" stroke="none"/>
    <path d="M4.75 -48.45 Q5.55 -48.6 5.95 -49.05 L6.35 -49.0 6.95 -48.6 7.5 -47.1 7.5 -47.05 Q10.55 -38.2 6.45 -45.35 L6.35 -45.35 6.15 -45.6 5.65 -46.15 4.75 -48.45" fill="url(#gradient5)" fill-rule="evenodd" stroke="none"/>
    <path d="M6.45 -45.35 L6.45 -44.7 6.2 -44.2 5.8 -44.05 5.65 -44.25 6.35 -45.35 6.45 -45.35" fill="url(#gradient6)" fill-rule="evenodd" stroke="none"/>
    <path d="M5.65 -46.15 L6.15 -45.6 5.5 -44.55 5.35 -44.5 5.45 -44.7 5.35 -45.35 5.65 -46.15" fill="url(#gradient7)" fill-rule="evenodd" stroke="none"/>
    <path d="M4.2 -48.7 L4.75 -48.45 5.65 -46.15 5.35 -45.35 3.9 -40.8 3.6 -39.85 3.6 -39.75 3.55 -39.7 3.05 -37.3 2.3 -34.4 1.8 -38.8 1.75 -41.2 1.75 -41.4 1.65 -41.85 1.6 -43.1 1.6 -44.35 1.6 -46.6 1.8 -47.0 1.9 -47.1 Q2.65 -48.6 4.2 -48.7" fill="url(#gradient8)" fill-rule="evenodd" stroke="none"/>
    <path d="M6.2 -44.2 L6.15 -43.9 6.0 -43.25 5.7 -42.7 4.9 -41.9 4.7 -41.8 4.35 -41.05 3.9 -40.8 5.35 -45.35 5.45 -44.7 5.35 -44.5 5.5 -44.55 6.15 -45.6 6.35 -45.35 5.65 -44.25 5.8 -44.05 6.2 -44.2 M-0.55 -43.65 L1.6 -44.35 1.6 -43.1 Q0.0 -43.4 0.2 -43.6 L-0.3 -43.4 -0.3 -43.55 -0.35 -43.4 Q-0.4 -43.1 0.45 -42.35 L1.65 -41.85 1.75 -41.4 0.2 -42.1 -0.45 -42.75 -0.5 -42.9 -0.55 -43.65" fill="url(#gradient9)" fill-rule="evenodd" stroke="none"/>
    <path d="M-1.75 -45.6 L0.45 -47.1 1.35 -47.1 1.8 -47.0 1.6 -46.6 1.6 -44.35 -0.55 -43.65 -1.0 -43.55 -1.65 -43.4 -2.9 -43.4 -3.4 -43.4 -3.7 -43.4 -5.1 -43.9 Q-3.65 -44.1 -3.45 -44.45 L-2.45 -45.0 -1.75 -45.6" fill="url(#gradient10)" fill-rule="evenodd" stroke="none"/>
    <path d="M6.15 -43.9 L6.95 -42.55 6.0 -43.25 6.15 -43.9 M3.9 -40.8 L4.35 -41.05 4.7 -41.8 4.9 -41.9 6.15 -40.75 Q6.55 -37.4 5.15 -36.35 L5.0 -36.35 4.2 -39.2 3.6 -39.85 3.9 -40.8 M3.55 -39.7 L3.6 -39.75 4.0 -39.35 3.55 -39.7" fill="url(#gradient11)" fill-rule="evenodd" stroke="none"/>
    <path d="M-1.65 -43.4 L-1.0 -43.55 -0.55 -42.9 -0.45 -42.75 0.2 -42.1 1.75 -41.4 1.75 -41.2 1.55 -41.1 -0.2 -41.25 -1.65 -43.4" fill="url(#gradient12)" fill-rule="evenodd" stroke="none"/>
    <path d="M3.6 -39.85 L4.2 -39.2 5.0 -36.35 4.65 -36.25 4.35 -36.6 3.05 -37.3 3.55 -39.7 4.0 -39.35 3.6 -39.75 3.6 -39.85 M1.75 -41.2 L1.8 -38.8 -0.2 -41.25 1.55 -41.1 1.75 -41.2 M-2.3 -40.9 Q-1.05 -40.45 0.85 -35.25 L1.0 -34.15 2.25 -30.85 2.55 -30.7 2.4 -30.2 1.75 -30.8 1.75 -29.9 0.65 -31.25 0.75 -30.5 1.3 -30.0 1.35 -29.95 2.55 -29.35 2.4 -29.05 0.15 -29.1 -0.2 -29.05 -0.95 -29.55 -1.05 -30.1 -1.25 -30.2 -1.3 -30.4 -1.05 -31.2 -1.3 -31.95 -1.5 -34.05 -1.9 -35.25 Q-2.55 -36.1 -2.8 -37.5 L-3.9 -38.8 -3.8 -39.25 Q-2.95 -40.45 -2.3 -40.6 L-2.3 -40.9" fill="url(#gradient13)" fill-rule="evenodd" stroke="none"/>
    <path d="M1.6 -43.1 L1.65 -41.85 0.45 -42.35 Q-0.4 -43.1 -0.35 -43.4 L-0.3 -43.4 0.2 -43.6 Q0.0 -43.4 1.6 -43.1" fill="url(#gradient14)" fill-rule="evenodd" stroke="none"/>
    <path d="M6.95 -42.55 Q10.15 -39.7 11.05 -37.5 11.7 -35.25 7.6 -31.05 L7.65 -31.0 Q8.25 -30.05 6.05 -23.4 5.7 -22.6 5.0 -22.15 L3.5 -21.55 3.55 -21.7 3.7 -21.8 3.7 -22.25 3.4 -22.85 3.05 -23.4 2.9 -23.45 2.4 -23.75 1.8 -24.05 1.6 -24.1 0.8 -24.4 0.1 -25.2 -0.45 -27.75 -0.45 -27.8 -0.95 -29.35 -0.2 -29.05 0.15 -29.1 2.4 -29.05 2.55 -29.35 2.6 -29.85 2.4 -30.2 2.55 -30.7 2.25 -30.85 1.0 -34.15 0.85 -35.25 Q-1.05 -40.45 -2.3 -40.9 L-2.9 -41.9 -2.9 -43.0 -2.9 -43.4 -1.65 -43.4 -0.2 -41.25 1.8 -38.8 2.3 -34.4 3.05 -37.3 6.3 -33.9 7.0 -32.6 7.25 -31.95 7.2 -31.55 9.1 -33.9 9.55 -34.8 9.6 -35.25 Q10.7 -37.0 6.15 -40.75 L4.9 -41.9 5.7 -42.7 6.0 -43.25 6.95 -42.55" fill="url(#gradient15)" fill-rule="evenodd" stroke="none"/>
    <path d="M5.15 -36.35 Q6.55 -37.4 6.15 -40.75 10.7 -37.0 9.6 -35.25 L9.55 -34.8 9.1 -33.9 7.2 -31.55 7.25 -31.95 7.0 -32.6 6.85 -34.1 6.2 -35.25 5.45 -36.2 5.15 -36.35 M-1.05 -30.1 L-0.95 -29.55 -0.2 -29.05 -0.95 -29.35 -1.2 -30.1 -1.05 -30.1 M2.9 -23.45 L3.05 -23.4 3.4 -22.85 3.7 -22.25 3.7 -21.8 3.2 -21.8 2.9 -23.4 2.9 -23.45" fill="url(#gradient16)" fill-rule="evenodd" stroke="none"/>
    <path d="M5.0 -36.35 L5.15 -36.35 5.45 -36.2 6.2 -35.25 6.85 -34.1 7.0 -32.6 6.3 -33.9 3.05 -37.3 4.35 -36.6 4.65 -36.25 5.0 -36.35" fill="url(#gradient17)" fill-rule="evenodd" stroke="none"/>
    <path d="M3.7 -21.8 L3.55 -21.7 3.5 -21.55 3.2 -21.6 3.2 -21.8 3.7 -21.8" fill="url(#gradient18)" fill-rule="evenodd" stroke="none"/>
    <path d="M2.55 -29.35 L1.35 -29.95 1.3 -30.0 0.75 -30.5 0.65 -31.25 1.75 -29.9 1.75 -30.8 2.4 -30.2 2.6 -29.85 2.55 -29.35" fill="url(#gradient19)" fill-rule="evenodd" stroke="none"/>
    <path d="M9.7 -27.55 L10.0 -27.15 10.2 -26.5 10.2 -25.85 9.7 -27.55" fill="url(#gradient20)" fill-rule="evenodd" stroke="none"/>
    <path d="M7.65 -31.0 L8.7 -29.9 9.7 -27.55 10.2 -25.85 Q11.6 -20.4 9.7 -15.15 L8.25 -14.25 6.5 -13.85 6.5 -13.3 6.15 -13.1 6.5 -12.55 6.1 -12.65 5.3 -13.95 5.2 -14.0 5.25 -13.65 4.35 -15.45 3.9 -16.85 4.0 -17.0 3.7 -17.4 3.35 -18.25 3.3 -18.35 3.2 -21.6 3.5 -21.55 5.0 -22.15 Q5.7 -22.6 6.05 -23.4 8.25 -30.05 7.65 -31.0 M5.4 -13.1 L5.45 -13.05 5.4 -13.05 5.4 -13.1" fill="url(#gradient21)" fill-rule="evenodd" stroke="none"/>
    <path d="M-3.8 -12.6 Q-4.1 -12.5 -4.95 -15.2 L-5.35 -19.05 Q-4.0 -15.5 -0.65 -16.7 L-0.15 -15.95 0.45 -14.75 Q-1.3 -13.75 -0.85 -11.55 L-0.45 -10.65 -1.25 -10.2 -2.25 -10.45 -2.35 -10.45 -2.75 -10.1 -3.45 -10.85 -3.6 -11.4 -3.6 -11.55 -3.45 -11.95 -3.6 -12.15 -3.65 -12.2 -3.8 -12.6 M-5.25 -20.45 L-5.1 -22.1 -5.05 -22.1 Q-5.25 -20.0 -2.35 -19.6 L-1.45 -17.9 Q-5.0 -20.15 -5.0 -20.5 L-5.25 -20.45 M-5.1 -22.15 L-5.05 -22.35 -5.05 -22.15 -5.1 -22.15 M-5.05 -22.45 L-5.0 -22.6 -4.95 -22.55 -5.05 -22.45 M2.9 -23.45 L2.9 -23.4 3.2 -21.8 3.2 -21.6 3.3 -18.35 3.3 -18.25 3.05 -17.4 Q2.85 -19.65 2.15 -21.95 L1.1 -24.0 1.6 -24.1 1.8 -24.05 2.2 -23.45 2.4 -23.75 2.9 -23.45 M-3.15 -22.6 L-3.05 -22.1 -3.3 -22.55 -3.15 -22.7 -3.15 -22.6" fill="url(#gradient22)" fill-rule="evenodd" stroke="none"/>
    <path d="M1.1 -24.0 L2.15 -21.95 Q2.85 -19.65 3.05 -17.4 L4.1 -14.35 4.15 -14.15 3.85 -13.65 Q2.8 -13.45 0.9 -14.1 L0.45 -14.75 -0.15 -15.95 -0.65 -16.7 -1.45 -17.9 -2.35 -19.6 -3.05 -22.1 -3.15 -22.6 -3.1 -22.6 Q-2.35 -22.7 -1.6 -23.4 L-1.15 -24.05 Q-0.7 -23.55 0.1 -25.2 L0.8 -24.4 1.1 -24.0" fill="url(#gradient23)" fill-rule="evenodd" stroke="none"/>
    <path d="M-5.0 -22.6 L-5.4 -23.55 -5.4 -24.9 -5.4 -24.95 -5.35 -24.95 -5.35 -25.15 -4.85 -26.8 -3.15 -22.7 -3.3 -22.55 -4.95 -22.55 -5.0 -22.6 M2.4 -23.75 L2.2 -23.45 1.8 -24.05 2.4 -23.75 M1.6 -24.1 L1.1 -24.0 0.8 -24.4 1.6 -24.1" fill="url(#gradient24)" fill-rule="evenodd" stroke="none"/>
    <path d="M3.3 -18.25 L3.3 -18.35 3.35 -18.25 3.3 -18.25 M3.7 -17.4 L4.0 -17.0 3.9 -16.85 3.7 -17.4" fill="url(#gradient25)" fill-rule="evenodd" stroke="none"/>
    <path d="M3.45 -9.7 L3.35 -9.7 Q1.85 -8.95 0.25 -9.9 L-0.45 -10.65 -0.85 -11.55 Q-1.3 -13.75 0.45 -14.75 L0.9 -14.1 Q2.8 -13.45 3.85 -13.65 L4.35 -11.55 4.35 -10.75 3.45 -9.7" fill="url(#gradient26)" fill-rule="evenodd" stroke="none"/>
    <path d="M4.8 -10.55 L4.25 -9.95 3.45 -9.7 4.35 -10.75 4.35 -11.55 3.85 -13.65 4.15 -14.15 4.1 -14.35 4.9 -13.9 5.35 -12.95 5.4 -12.2 5.25 -11.55 4.85 -10.6 4.8 -10.55" fill="url(#gradient27)" fill-rule="evenodd" stroke="none"/>
    <path d="M5.25 -13.65 L5.2 -14.0 5.3 -13.95 6.1 -12.65 5.85 -12.2 5.7 -12.2 5.45 -13.05 5.4 -13.1 5.4 -13.2 5.35 -13.25 5.35 -13.3 5.3 -13.45 5.3 -13.5 5.25 -13.6 5.25 -13.65" fill="url(#gradient28)" fill-rule="evenodd" stroke="none"/>
    <path d="M9.55 -12.65 Q10.75 -10.85 10.9 -9.35 L11.05 -6.5 Q10.55 -3.8 6.6 -5.2 L6.55 -5.25 6.55 -5.3 6.45 -5.4 6.35 -5.45 5.5 -7.25 Q4.95 -8.75 4.85 -10.55 L4.85 -10.6 5.25 -11.55 5.4 -12.2 5.35 -12.95 5.4 -13.05 5.45 -13.05 5.7 -12.2 5.85 -12.2 6.1 -12.65 6.5 -12.55 7.9 -11.8 8.0 -11.55 Q9.0 -10.45 9.45 -11.55 L9.55 -12.65" fill="url(#gradient29)" fill-rule="evenodd" stroke="none"/>
    <path d="M9.7 -15.15 L9.8 -13.75 9.55 -12.65 9.45 -11.55 Q9.0 -10.45 8.0 -11.55 L7.9 -11.8 6.5 -12.55 6.15 -13.1 6.5 -13.3 6.5 -13.85 8.25 -14.25 9.7 -15.15" fill="url(#gradient30)" fill-rule="evenodd" stroke="none"/>
    <path d="M4.85 -10.55 L4.8 -10.55 4.85 -10.6 4.85 -10.55 M6.55 -5.3 L6.5 -5.3 6.45 -5.4 6.55 -5.3" fill="url(#gradient31)" fill-rule="evenodd" stroke="none"/>
    <path d="M0.25 -9.9 L0.05 -9.6 Q-0.9 -8.1 -2.6 -10.1 L-2.25 -10.45 -1.25 -10.2 -0.45 -10.65 0.25 -9.9" fill="url(#gradient32)" fill-rule="evenodd" stroke="none"/>
    <path d="M11.15 -6.05 L11.55 -4.55 11.25 -3.75 Q10.25 -2.05 7.15 -3.2 L7.1 -3.25 6.55 -4.9 6.85 -4.65 7.0 -4.5 7.15 -4.5 7.9 -4.2 9.05 -4.25 9.25 -4.35 9.3 -4.35 10.2 -4.7 10.2 -4.75 10.35 -4.8 10.85 -5.3 10.9 -5.45 11.05 -5.9 11.15 -6.05" fill="url(#gradient33)" fill-rule="evenodd" stroke="none"/>
    <path d="M11.05 -6.5 L11.1 -6.2 11.05 -5.9 10.9 -5.45 10.85 -5.3 10.35 -4.8 10.2 -4.75 10.2 -4.7 9.3 -4.35 9.25 -4.35 9.05 -4.25 7.9 -4.2 7.15 -4.5 7.0 -4.5 6.85 -4.65 6.55 -5.15 6.5 -5.3 6.55 -5.3 6.55 -5.25 6.6 -5.2 Q10.55 -3.8 11.05 -6.5 M11.25 -3.75 L11.4 -2.9 11.4 -2.85 11.4 -2.6 10.85 -1.9 Q7.6 -0.6 7.2 -2.7 L7.1 -3.2 7.15 -3.2 Q10.25 -2.05 11.25 -3.75 M11.65 -0.75 L11.65 -0.35 11.7 0.35 Q10.1 2.7 7.65 0.4 L7.65 0.3 7.6 -0.35 7.65 -0.35 Q10.65 0.9 11.65 -0.75 M12.15 1.5 L12.65 2.4 12.8 3.25 12.15 3.9 9.85 4.3 9.6 4.55 8.65 4.35 Q7.8 3.6 7.95 2.75 L7.95 2.45 8.0 2.45 Q11.55 4.2 12.15 1.5 M8.05 1.85 L8.1 2.15 8.0 2.0 8.05 1.85" fill="url(#gradient34)" fill-rule="evenodd" stroke="none"/>
    <path d="M7.9 2.75 L7.95 2.75 7.9 2.75 M7.6 0.4 L7.65 0.3 7.65 0.4 7.6 0.4 M6.5 -5.15 L6.35 -5.45 6.45 -5.4 6.5 -5.3 6.55 -5.15 6.5 -5.15" fill="url(#gradient35)" fill-rule="evenodd" stroke="none"/>
    <path d="M11.1 -6.2 L11.15 -6.05 11.05 -5.9 11.1 -6.2 M6.55 -4.9 L6.5 -5.15 6.55 -5.15 6.85 -4.65 6.55 -4.9" fill="url(#gradient36)" fill-rule="evenodd" stroke="none"/>
    <path d="M7.1 -3.2 L7.1 -3.25 7.15 -3.2 7.1 -3.2" fill="url(#gradient37)" fill-rule="evenodd" stroke="none"/>
    <path d="M7.25 -2.05 L7.2 -2.7 Q7.6 -0.6 10.85 -1.9 8.35 -0.6 7.25 -2.05" fill="url(#gradient38)" fill-rule="evenodd" stroke="none"/>
    <path d="M7.6 -0.35 L7.6 -0.45 7.65 -0.35 7.6 -0.35" fill="url(#gradient39)" fill-rule="evenodd" stroke="none"/>
    <path d="M11.5 -2.85 L11.8 -1.45 11.65 -0.75 Q10.65 0.9 7.65 -0.35 L7.6 -0.45 7.25 -2.05 Q8.35 -0.6 10.85 -1.9 L11.4 -2.6 11.4 -2.85 11.5 -2.85" fill="url(#gradient40)" fill-rule="evenodd" stroke="none"/>
    <path d="M11.4 -2.9 L11.5 -2.85 11.4 -2.85 11.4 -2.9" fill="url(#gradient41)" fill-rule="evenodd" stroke="none"/>
    <path d="M-3.2 -52.8 L-3.1 -52.9 -3.15 -52.8 -3.2 -52.8" fill="url(#gradient42)" fill-rule="evenodd" stroke="none"/>
    <path d="M-5.15 -49.55 L-5.05 -50.7 -3.8 -52.45 -3.2 -52.8 -3.15 -52.8 Q-4.5 -50.8 -2.6 -47.1 L-2.0 -46.5 -1.75 -45.6 -2.45 -45.0 -3.1 -45.65 -4.1 -47.1 -4.5 -47.55 -5.05 -48.8 -5.15 -49.55" fill="url(#gradient43)" fill-rule="evenodd" stroke="none"/>
    <path d="M-30.7 -29.85 L-39.35 -23.9 Q-43.1 -21.55 -43.35 -21.8 L-42.9 -22.4 -29.0 -33.6 -29.1 -33.2 Q-28.0 -34.0 -27.5 -33.75 L-30.75 -30.35 -30.7 -29.85" fill="url(#gradient44)" fill-rule="evenodd" stroke="none"/>
    <path d="M-2.45 -45.0 L-3.45 -44.45 Q-5.45 -44.75 -5.4 -46.65 L-5.4 -47.55 -5.05 -48.8 -4.5 -47.55 -4.1 -47.1 -3.1 -45.65 -2.45 -45.0" fill="url(#gradient45)" fill-rule="evenodd" stroke="none"/>
    <path d="M-3.7 -43.4 L-3.4 -43.4 -2.9 -43.0 -2.9 -41.9 -2.3 -40.9 -2.3 -40.6 Q-2.95 -40.45 -3.8 -39.25 L-3.9 -38.8 -5.0 -39.15 -6.7 -38.85 -6.7 -39.95 -6.55 -40.35 -5.0 -41.45 Q-4.3 -42.2 -4.7 -42.6 L-3.7 -43.4 M-1.3 -31.95 L-1.05 -31.2 -1.3 -30.4 -1.5 -30.9 -1.3 -31.95 M-1.25 -30.2 L-1.05 -30.1 -1.2 -30.1 -1.25 -30.2" fill="url(#gradient46)" fill-rule="evenodd" stroke="none"/>
    <path d="M-3.45 -44.45 Q-3.65 -44.1 -5.1 -43.9 L-3.7 -43.4 -4.7 -42.6 -5.6 -43.7 -6.45 -43.65 -6.5 -44.05 -6.0 -46.0 -5.4 -46.65 Q-5.45 -44.75 -3.45 -44.45 M-3.4 -43.4 L-2.9 -43.4 -2.9 -43.0 -3.4 -43.4" fill="url(#gradient47)" fill-rule="evenodd" stroke="none"/>
    <path d="M-1.0 -43.55 L-0.55 -43.65 -0.5 -42.9 -0.55 -42.9 -1.0 -43.55" fill="url(#gradient48)" fill-rule="evenodd" stroke="none"/>
    <path d="M-0.3 -43.4 L-0.35 -43.4 -0.3 -43.55 -0.3 -43.4" fill="url(#gradient49)" fill-rule="evenodd" stroke="none"/>
    <path d="M-9.8 -47.6 Q-9.35 -48.05 -7.5 -48.45 L-6.85 -48.2 -6.55 -48.05 -8.2 -48.05 -9.8 -47.6" fill="url(#gradient50)" fill-rule="evenodd" stroke="none"/>
    <path d="M-6.85 -48.2 L-5.15 -49.55 -5.05 -48.8 -5.4 -47.55 -5.85 -47.3 -6.55 -48.05 -6.85 -48.2" fill="url(#gradient51)" fill-rule="evenodd" stroke="none"/>
    <path d="M-17.25 -29.2 Q-21.2 -25.25 -20.2 -31.45 L-19.5 -33.9 -17.85 -36.85 -17.2 -38.35 -15.5 -40.45 Q-14.6 -41.05 -12.55 -43.2 L-12.25 -44.65 -13.0 -45.15 -11.35 -46.8 -9.8 -47.6 -8.2 -48.05 -6.55 -48.05 -5.85 -47.3 -6.0 -46.0 -6.5 -44.05 -6.7 -43.6 Q-8.6 -41.4 -9.95 -38.65 L-11.5 -36.55 -17.25 -29.2" fill="url(#gradient52)" fill-rule="evenodd" stroke="none"/>
    <path d="M-7.85 -34.45 L-10.25 -30.7 Q-11.7 -28.0 -13.0 -28.6 -13.5 -29.8 -13.2 -31.3 L-14.05 -29.85 -14.2 -30.25 Q-14.8 -32.25 -12.35 -35.25 L-11.85 -35.85 -11.5 -36.55 -9.95 -38.65 Q-8.6 -41.4 -6.7 -43.6 L-6.45 -43.65 -5.6 -43.7 -4.7 -42.6 Q-4.3 -42.2 -5.0 -41.45 L-6.55 -40.35 -6.7 -39.95 -6.7 -38.85 -7.95 -38.05 Q-8.5 -37.0 -8.0 -35.25 L-7.85 -34.45" fill="url(#gradient53)" fill-rule="evenodd" stroke="none"/>
    <path d="M-5.65 -29.3 L-6.2 -31.4 -7.7 -33.75 -7.85 -34.45 -8.0 -35.25 Q-8.5 -37.0 -7.95 -38.05 L-6.7 -38.85 -5.0 -39.15 -3.9 -38.8 -2.8 -37.5 Q-2.55 -36.1 -1.9 -35.25 L-1.5 -34.05 -1.3 -31.95 -1.5 -30.9 -1.3 -30.4 -1.25 -30.2 -1.2 -30.1 -0.95 -29.35 -0.45 -27.8 -0.45 -27.75 0.1 -25.2 Q-0.7 -23.55 -1.15 -24.05 L-1.6 -23.4 Q-2.35 -22.7 -3.1 -22.6 L-3.15 -22.7 -4.85 -26.8 -5.65 -29.3" fill="url(#gradient54)" fill-rule="evenodd" stroke="none"/>
    <path d="M-0.45 -42.75 L-0.55 -42.9 -0.5 -42.9 -0.45 -42.75" fill="url(#gradient55)" fill-rule="evenodd" stroke="none"/>
    <path d="M-21.8 -33.9 L-27.95 -30.4 Q-30.0 -29.25 -30.7 -29.85 L-30.75 -30.35 -27.5 -33.75 Q-28.0 -34.0 -29.1 -33.2 L-29.0 -33.6 Q-25.3 -39.0 -16.25 -44.4 L-15.65 -44.7 -15.3 -44.9 -15.25 -44.95 -13.65 -45.5 -13.0 -45.15 -12.25 -44.65 -12.55 -43.2 Q-14.6 -41.05 -15.5 -40.45 L-17.2 -38.35 -20.2 -34.75 -21.8 -33.9" fill="url(#gradient56)" fill-rule="evenodd" stroke="none"/>
    <path d="M-15.65 -44.7 L-15.25 -44.95 -15.3 -44.9 -15.65 -44.7" fill="url(#gradient57)" fill-rule="evenodd" stroke="none"/>
    <path d="M-14.2 -30.25 Q-17.15 -25.4 -17.25 -29.2 L-11.5 -36.55 -11.85 -35.85 -12.35 -35.25 Q-14.8 -32.25 -14.2 -30.25" fill="url(#gradient58)" fill-rule="evenodd" stroke="none"/>
    <path d="M-20.2 -31.45 Q-32.45 -15.85 -21.8 -33.9 L-20.2 -34.75 -17.2 -38.35 -17.85 -36.85 -19.5 -33.9 -20.2 -31.45" fill="url(#gradient59)" fill-rule="evenodd" stroke="none"/>
    <path d="M-10.25 -30.7 Q-16.15 -17.7 -14.05 -29.85 L-13.2 -31.3 Q-13.5 -29.8 -13.0 -28.6 -11.7 -28.0 -10.25 -30.7" fill="url(#gradient60)" fill-rule="evenodd" stroke="none"/>
    <path d="M-5.4 -24.9 L-5.9 -26.35 -6.0 -26.45 -6.0 -26.6 -6.05 -26.7 -6.05 -28.15 -5.65 -29.3 -4.85 -26.8 -5.35 -25.15 -5.4 -24.95 -5.4 -24.9" fill="url(#gradient61)" fill-rule="evenodd" stroke="none"/>
    <path d="M-5.35 -25.15 L-5.35 -24.95 -5.4 -24.95 -5.35 -25.15" fill="url(#gradient62)" fill-rule="evenodd" stroke="none"/>
    <path d="M-0.45 -27.8 L-0.45 -27.75 -0.45 -27.8" fill="url(#gradient63)" fill-rule="evenodd" stroke="none"/>
    <path d="M-3.1 -22.6 L-3.15 -22.6 -3.15 -22.7 -3.1 -22.6" fill="url(#gradient64)" fill-rule="evenodd" stroke="none"/>
    <path d="M-5.05 -22.35 L-5.05 -22.45 -4.95 -22.55 -3.3 -22.55 -3.05 -22.1 -2.35 -19.6 Q-5.25 -20.0 -5.05 -22.1 L-5.05 -22.15 -5.05 -22.35" fill="url(#gradient65)" fill-rule="evenodd" stroke="none"/>
    <path d="M-5.1 -22.1 L-5.1 -22.15 -5.05 -22.15 -5.05 -22.1 -5.1 -22.1" fill="url(#gradient66)" fill-rule="evenodd" stroke="none"/>
    <path d="M-5.35 -19.05 L-5.25 -20.45 -5.0 -20.5 Q-5.0 -20.15 -1.45 -17.9 L-0.65 -16.7 Q-4.0 -15.5 -5.35 -19.05" fill="url(#gradient67)" fill-rule="evenodd" stroke="none"/>
    <path d="M-7.1 -4.85 L-7.1 -4.8 -7.65 -4.5 Q-10.0 -3.75 -10.85 -6.35 L-10.9 -6.65 -10.55 -7.85 -9.95 -8.3 Q-11.05 -4.45 -7.1 -4.85" fill="url(#gradient68)" fill-rule="evenodd" stroke="none"/>
    <path d="M-7.1 -4.8 L-7.0 -3.75 -7.05 -2.55 -7.6 -2.05 -7.6 -1.75 -7.55 -0.9 -8.25 -2.0 -8.9 -2.05 -9.0 -1.15 -9.65 -1.0 -9.7 -1.0 -10.1 -1.95 -9.9 -0.35 -9.9 -0.3 Q-11.95 -2.25 -12.25 -6.85 -11.65 -9.05 -9.6 -8.6 L-9.95 -8.3 -10.55 -7.85 -10.9 -6.65 -10.85 -6.35 -11.4 -5.7 Q-9.9 -4.5 -9.9 -3.85 L-8.75 -3.55 Q-7.65 -4.1 -7.65 -4.5 L-7.1 -4.8" fill="url(#gradient69)" fill-rule="evenodd" stroke="none"/>
    <path d="M-7.65 -4.5 Q-7.65 -4.1 -8.75 -3.55 L-9.9 -3.85 Q-9.9 -4.5 -11.4 -5.7 L-10.85 -6.35 Q-10.0 -3.75 -7.65 -4.5 M-7.75 -8.25 Q-7.6 -7.05 -6.05 -6.35 L-6.0 -6.3 -5.05 -6.2 Q-7.8 -6.15 -7.75 -8.25 M-8.8 -8.6 Q-8.7 -5.8 -6.7 -5.5 -9.65 -5.75 -8.8 -8.6 M-7.5 -5.0 Q-8.6 -4.85 -8.95 -5.45 L-8.0 -5.0 -7.5 -5.0" fill="url(#gradient70)" fill-rule="evenodd" stroke="none"/>
    <path d="M-2.75 -10.1 L-2.35 -10.45 -2.25 -10.45 -2.6 -10.1 -2.75 -10.1" fill="url(#gradient71)" fill-rule="evenodd" stroke="none"/>
    <path d="M-3.85 -11.65 L-3.65 -12.2 -3.6 -12.15 -3.85 -11.65" fill="url(#gradient72)" fill-rule="evenodd" stroke="none"/>
    <path d="M-3.6 -11.4 L-4.1 -11.1 -3.85 -11.65 -3.6 -12.15 -3.45 -11.95 -3.6 -11.55 -3.6 -11.4" fill="url(#gradient73)" fill-rule="evenodd" stroke="none"/>
    <path d="M0.05 -9.6 Q-0.7 -7.0 -4.5 -6.2 L-4.6 -6.2 -5.05 -6.2 -6.0 -6.3 -6.05 -6.35 Q-7.6 -7.05 -7.75 -8.25 -7.75 -9.05 -7.35 -10.05 L-7.3 -10.1 -7.0 -10.5 -6.05 -11.4 -3.8 -12.6 -3.65 -12.2 -3.85 -11.65 -4.1 -11.1 -3.6 -11.4 -3.45 -10.85 -2.75 -10.1 -2.6 -10.1 Q-0.9 -8.1 0.05 -9.6" fill="url(#gradient74)" fill-rule="evenodd" stroke="none"/>
    <path d="M-4.5 -6.2 L-5.1 -5.7 -5.8 -5.45 -6.15 -5.5 -6.35 -5.5 -6.7 -5.5 Q-8.7 -5.8 -8.8 -8.6 L-8.45 -9.4 -7.7 -10.0 Q-8.85 -5.75 -4.6 -6.2 L-4.5 -6.2" fill="url(#gradient75)" fill-rule="evenodd" stroke="none"/>
    <path d="M-7.7 -10.0 L-7.3 -10.45 -7.0 -10.5 -7.3 -10.1 -7.35 -10.05 Q-7.75 -9.05 -7.75 -8.25 -7.8 -6.15 -5.05 -6.2 L-4.6 -6.2 Q-8.85 -5.75 -7.7 -10.0" fill="url(#gradient76)" fill-rule="evenodd" stroke="none"/>
    <path d="M-6.85 -5.05 L-7.1 -4.85 Q-11.05 -4.45 -9.95 -8.3 L-9.6 -8.6 -9.45 -8.65 Q-10.6 -7.25 -9.1 -5.65 L-8.95 -5.45 Q-8.6 -4.85 -7.5 -5.0 L-6.85 -5.05" fill="url(#gradient77)" fill-rule="evenodd" stroke="none"/>
    <path d="M-6.15 -5.5 L-6.85 -5.05 -7.5 -5.0 -8.0 -5.0 -8.95 -5.45 -9.1 -5.65 Q-10.6 -7.25 -9.45 -8.65 L-9.0 -9.05 Q-9.8 -5.15 -6.35 -5.5 L-6.15 -5.5" fill="url(#gradient78)" fill-rule="evenodd" stroke="none"/>
    <path d="M-9.0 -9.05 L-8.45 -9.4 -8.8 -8.6 Q-9.65 -5.75 -6.7 -5.5 L-6.35 -5.5 Q-9.8 -5.15 -9.0 -9.05" fill="url(#gradient79)" fill-rule="evenodd" stroke="none"/>
    <path d="M-7.0 -3.75 Q-4.45 -0.4 -5.6 0.3 L-6.65 0.45 -7.5 1.0 Q-7.3 1.35 -8.95 0.65 L-9.9 -0.3 -9.9 -0.35 -9.7 -1.0 -9.65 -1.0 -7.05 -0.05 -7.0 -0.05 -6.95 -0.1 -7.6 -1.75 -7.6 -2.05 -7.05 -2.55 -7.0 -3.75" fill="url(#gradient80)" fill-rule="evenodd" stroke="none"/>
    <path d="M-9.7 -1.0 L-9.9 -0.35 -10.1 -1.95 -9.7 -1.0" fill="url(#gradient81)" fill-rule="evenodd" stroke="none"/>
    <path d="M-7.05 -0.05 L-9.65 -1.0 -9.0 -1.15 -7.05 -0.1 -7.05 -0.05" fill="url(#gradient82)" fill-rule="evenodd" stroke="none"/>
    <path d="M-9.0 -1.15 L-8.9 -2.05 -7.55 -0.85 -7.05 -0.1 -9.0 -1.15" fill="url(#gradient83)" fill-rule="evenodd" stroke="none"/>
    <path d="M-8.9 -2.05 L-8.25 -2.0 -7.55 -0.9 -7.55 -0.85 -8.9 -2.05" fill="url(#gradient84)" fill-rule="evenodd" stroke="none"/>
    <path d="M-7.6 -1.75 L-6.95 -0.1 -7.0 -0.05 -7.05 -0.05 -7.05 -0.1 -7.55 -0.85 -7.55 -0.9 -7.6 -1.75" fill="url(#gradient85)" fill-rule="evenodd" stroke="none"/>
    <path d="M-5.6 0.3 L-7.5 1.0 -6.65 0.45 -5.6 0.3" fill="url(#gradient86)" fill-rule="evenodd" stroke="none"/>
    <path d="M12.65 2.4 Q18.4 6.35 17.4 8.6 L17.1 8.85 16.7 9.75 Q16.9 11.55 9.8 6.35 L8.0 4.55 Q7.5 3.15 7.9 2.75 L7.95 2.75 Q7.8 3.6 8.65 4.35 L9.6 4.55 9.85 4.3 12.15 3.9 12.8 3.25 12.65 2.4" fill="url(#gradient87)" fill-rule="evenodd" stroke="none"/>
    <path d="M11.9 0.2 L12.15 1.5 Q11.55 4.2 8.0 2.45 L7.95 2.4 7.65 0.85 Q10.75 2.65 11.85 0.35 L11.9 0.2 M8.05 1.85 L8.0 2.0 8.1 2.15 8.05 1.85" fill="url(#gradient88)" fill-rule="evenodd" stroke="none"/>
    <path d="M11.65 -0.35 L11.9 0.2 11.85 0.35 Q10.75 2.65 7.65 0.85 L7.6 0.4 7.65 0.4 Q10.1 2.7 11.7 0.35 L11.65 -0.35" fill="url(#gradient89)" fill-rule="evenodd" stroke="none"/>
    <path d="M17.4 8.6 L16.7 9.75 17.1 8.85 17.4 8.6" fill="url(#gradient90)" fill-rule="evenodd" stroke="none"/>
    <path d="M7.95 2.45 L7.95 2.4 8.0 2.45 7.95 2.45" fill="url(#gradient91)" fill-rule="evenodd" stroke="none"/>
  </g>
  <defs>
    <radialGradient cx="0" cy="0" gradientTransform="matrix(0.0025, 0.0, 0.0, 0.0025, 1.0, -54.65)" gradientUnits="userSpaceOnUse" id="gradient0" r="819.2" spreadMethod="pad">
      <stop offset="0.0" stop-color="#bcbcbc"/>
      <stop offset="1.0" stop-color="#7b7b7b"/>
    </radialGradient>
    <radialGradient cx="0" cy="0" gradientTransform="matrix(0.0072, 0.0, 0.0, 0.0072, 1.3, -50.4)" gradientUnits="userSpaceOnUse" id="gradient1" r="819.2" spreadMethod="pad">
      <stop offset="0.0" stop-color="#70c0ef"/>
      <stop offset="1.0" stop-color="#518bad"/>
    </radialGradient>
    <radialGradient cx="0" cy="0" gradientTransform="matrix(0.0077, 0.0, 0.0, 0.0077, 2.55, -53.05)" gradientUnits="userSpaceOnUse" id="gradient2" r="819.2" spreadMethod="pad">
      <stop offset="0.0" stop-color="#71c1f1"/>
      <stop offset="1.0" stop-color="#4d84a5"/>
    </radialGradient>
    <radialGradient cx="0" cy="0" gradientTransform="matrix(0.0087, 0.0, 0.0, 0.0087, 5.75, -48.8)" gradientUnits="userSpaceOnUse" id="gradient3" r="819.2" spreadMethod="pad">
      <stop offset="0.0" stop-color="#72c4f4"/>
      <stop offset="1.0" stop-color="#467998"/>
    </radialGradient>
    <radialGradient cx="0" cy="0" gradientTransform="matrix(0.0118, 0.0, 0.0, 0.0118, 5.9, -49.2)" gradientUnits="userSpaceOnUse" id="gradient4" r="819.2" spreadMethod="pad">
      <stop offset="0.0" stop-color="#71c3f2"/>
      <stop offset="1.0" stop-color="#3c6881"/>
    </radialGradient>
    <radialGradient cx="0" cy="0" gradientTransform="matrix(0.0049, 0.0, 0.0, 0.0049, 6.95, -45.95)" gradientUnits="userSpaceOnUse" id="gradient5" r="819.2" spreadMethod="pad">
      <stop offset="0.0" stop-color="#71c3f2"/>
      <stop offset="1.0" stop-color="#518bae"/>
    </radialGradient>
    <radialGradient cx="0" cy="0" gradientTransform="matrix(0.0013, 0.0, 0.0, 0.0013, 5.75, -44.8)" gradientUnits="userSpaceOnUse" id="gradient6" r="819.2" spreadMethod="pad">
      <stop offset="0.0" stop-color="#2d3656"/>
      <stop offset="1.0" stop-color="#252c46"/>
    </radialGradient>
    <radialGradient cx="0" cy="0" gradientTransform="matrix(0.0024, 0.0, 0.0, 0.0024, 5.5, -46.4)" gradientUnits="userSpaceOnUse" id="gradient7" r="819.2" spreadMethod="pad">
      <stop offset="0.0" stop-color="#2c3453"/>
      <stop offset="1.0" stop-color="#161a2a"/>
    </radialGradient>
    <radialGradient cx="0" cy="0" gradientTransform="matrix(0.0116, 0.0, 0.0, 0.0116, 2.9, -43.95)" gradientUnits="userSpaceOnUse" id="gradient8" r="819.2" spreadMethod="pad">
      <stop offset="0.0" stop-color="#6fbfee"/>
      <stop offset="1.0" stop-color="#487c9b"/>
    </radialGradient>
    <radialGradient cx="0" cy="0" gradientTransform="matrix(0.0093, 0.0, 0.0, 0.0093, 4.9, -48.15)" gradientUnits="userSpaceOnUse" id="gradient9" r="819.2" spreadMethod="pad">
      <stop offset="0.0" stop-color="#7d7d9c"/>
      <stop offset="1.0" stop-color="#55556a"/>
    </radialGradient>
    <radialGradient cx="0" cy="0" gradientTransform="matrix(0.0083, 0.0, 0.0, 0.0083, 1.25, -46.4)" gradientUnits="userSpaceOnUse" id="gradient10" r="819.2" spreadMethod="pad">
      <stop offset="0.0" stop-color="#71c2f1"/>
      <stop offset="1.0" stop-color="#43738f"/>
    </radialGradient>
    <radialGradient cx="0" cy="0" gradientTransform="matrix(0.0085, 0.0, 0.0, 0.0085, 1.4, -41.55)" gradientUnits="userSpaceOnUse" id="gradient11" r="819.2" spreadMethod="pad">
      <stop offset="0.0" stop-color="#9191b5"/>
      <stop offset="1.0" stop-color="#7b7b99"/>
    </radialGradient>
    <radialGradient cx="0" cy="0" gradientTransform="matrix(0.0046, 0.0, 0.0, 0.0046, -0.3, -40.7)" gradientUnits="userSpaceOnUse" id="gradient12" r="819.2" spreadMethod="pad">
      <stop offset="0.0" stop-color="#787896"/>
      <stop offset="1.0" stop-color="#70708c"/>
    </radialGradient>
    <radialGradient cx="0" cy="0" gradientTransform="matrix(0.0108, 0.0, 0.0, 0.0108, -1.0, -37.15)" gradientUnits="userSpaceOnUse" id="gradient13" r="819.2" spreadMethod="pad">
      <stop offset="0.0" stop-color="#a3a3cc"/>
      <stop offset="1.0" stop-color="#696983"/>
    </radialGradient>
    <radialGradient cx="0" cy="0" gradientTransform="matrix(0.0022, 0.0, 0.0, 0.0022, 1.35, -43.55)" gradientUnits="userSpaceOnUse" id="gradient14" r="819.2" spreadMethod="pad">
      <stop offset="0.0" stop-color="#3d4873"/>
      <stop offset="1.0" stop-color="#272e4a"/>
    </radialGradient>
    <radialGradient cx="0" cy="0" gradientTransform="matrix(0.0261, 0.0, 0.0, 0.0261, -1.95, -42.3)" gradientUnits="userSpaceOnUse" id="gradient15" r="819.2" spreadMethod="pad">
      <stop offset="0.0" stop-color="#3f4b77"/>
      <stop offset="1.0" stop-color="#1a1f32"/>
    </radialGradient>
    <radialGradient cx="0" cy="0" gradientTransform="matrix(0.0193, 0.0, 0.0, 0.0193, 6.2, -37.4)" gradientUnits="userSpaceOnUse" id="gradient16" r="819.2" spreadMethod="pad">
      <stop offset="0.0" stop-color="#b0b0dc"/>
      <stop offset="1.0" stop-color="#595970"/>
    </radialGradient>
    <radialGradient cx="0" cy="0" gradientTransform="matrix(0.008, 0.0, 0.0, 0.008, 2.7, -36.85)" gradientUnits="userSpaceOnUse" id="gradient17" r="819.2" spreadMethod="pad">
      <stop offset="0.0" stop-color="#9b9bc1"/>
      <stop offset="1.0" stop-color="#686882"/>
    </radialGradient>
    <radialGradient cx="0" cy="0" gradientTransform="matrix(0.0148, 0.0, 0.0, 0.0148, 7.45, -32.95)" gradientUnits="userSpaceOnUse" id="gradient18" r="819.2" spreadMethod="pad">
      <stop offset="0.0" stop-color="#08090f"/>
      <stop offset="1.0" stop-color="#08090e"/>
    </radialGradient>
    <radialGradient cx="0" cy="0" gradientTransform="matrix(0.0027, 0.0, 0.0, 0.0027, 1.65, -30.95)" gradientUnits="userSpaceOnUse" id="gradient19" r="819.2" spreadMethod="pad">
      <stop offset="0.0" stop-color="#71718d"/>
      <stop offset="1.0" stop-color="#363643"/>
    </radialGradient>
    <radialGradient cx="0" cy="0" gradientTransform="matrix(0.0022, 0.0, 0.0, 0.0022, 9.75, -26.25)" gradientUnits="userSpaceOnUse" id="gradient20" r="819.2" spreadMethod="pad">
      <stop offset="0.0" stop-color="#2a3250"/>
      <stop offset="1.0" stop-color="#20263c"/>
    </radialGradient>
    <radialGradient cx="0" cy="0" gradientTransform="matrix(0.0231, 0.0, 0.0, 0.0231, 5.85, -30.65)" gradientUnits="userSpaceOnUse" id="gradient21" r="819.2" spreadMethod="pad">
      <stop offset="0.0" stop-color="#ababd6"/>
      <stop offset="1.0" stop-color="#4c4c5f"/>
    </radialGradient>
    <radialGradient cx="0" cy="0" gradientTransform="matrix(0.0199, 0.0, 0.0, 0.0199, 0.7, -25.3)" gradientUnits="userSpaceOnUse" id="gradient22" r="819.2" spreadMethod="pad">
      <stop offset="0.0" stop-color="#a8a8d2"/>
      <stop offset="1.0" stop-color="#5b5b71"/>
    </radialGradient>
    <radialGradient cx="0" cy="0" gradientTransform="matrix(0.0154, 0.0, 0.0, 0.0154, -1.2, -24.15)" gradientUnits="userSpaceOnUse" id="gradient23" r="819.2" spreadMethod="pad">
      <stop offset="0.0" stop-color="#404c79"/>
      <stop offset="1.0" stop-color="#29304d"/>
    </radialGradient>
    <radialGradient cx="0" cy="0" gradientTransform="matrix(0.0083, 0.0, 0.0, 0.0083, 1.05, -25.7)" gradientUnits="userSpaceOnUse" id="gradient24" r="819.2" spreadMethod="pad">
      <stop offset="0.0" stop-color="#a9a9d3"/>
      <stop offset="1.0" stop-color="#606078"/>
    </radialGradient>
    <radialGradient cx="0" cy="0" gradientTransform="matrix(0.0064, 0.0, 0.0, 0.0064, 4.8, -14.65)" gradientUnits="userSpaceOnUse" id="gradient25" r="819.2" spreadMethod="pad">
      <stop offset="0.0" stop-color="#15151a"/>
      <stop offset="1.0" stop-color="#15151a"/>
    </radialGradient>
    <radialGradient cx="0" cy="0" gradientTransform="matrix(0.0046, 0.0, 0.0, 0.0046, 1.6, -13.2)" gradientUnits="userSpaceOnUse" id="gradient26" r="819.2" spreadMethod="pad">
      <stop offset="0.0" stop-color="#414d7c"/>
      <stop offset="1.0" stop-color="#1e2338"/>
    </radialGradient>
    <radialGradient cx="0" cy="0" gradientTransform="matrix(0.0045, 0.0, 0.0, 0.0045, 3.8, -13.45)" gradientUnits="userSpaceOnUse" id="gradient27" r="819.2" spreadMethod="pad">
      <stop offset="0.0" stop-color="#b5b5e2"/>
      <stop offset="1.0" stop-color="#515164"/>
    </radialGradient>
    <radialGradient cx="0" cy="0" gradientTransform="matrix(0.0033, 0.0, 0.0, 0.0033, 6.65, -11.85)" gradientUnits="userSpaceOnUse" id="gradient28" r="819.2" spreadMethod="pad">
      <stop offset="0.0" stop-color="#62627a"/>
      <stop offset="1.0" stop-color="#5d5d74"/>
    </radialGradient>
    <radialGradient cx="0" cy="0" gradientTransform="matrix(0.0105, 0.0, 0.0, 0.0105, 7.0, -12.7)" gradientUnits="userSpaceOnUse" id="gradient29" r="819.2" spreadMethod="pad">
      <stop offset="0.0" stop-color="#bcbcea"/>
      <stop offset="1.0" stop-color="#58586e"/>
    </radialGradient>
    <radialGradient cx="0" cy="0" gradientTransform="matrix(0.0053, 0.0, 0.0, 0.0053, 7.65, -14.4)" gradientUnits="userSpaceOnUse" id="gradient30" r="819.2" spreadMethod="pad">
      <stop offset="0.0" stop-color="#8e8eb1"/>
      <stop offset="1.0" stop-color="#5a5a71"/>
    </radialGradient>
    <radialGradient cx="0" cy="0" gradientTransform="matrix(0.0082, 0.0, 0.0, 0.0082, 6.75, -5.05)" gradientUnits="userSpaceOnUse" id="gradient31" r="819.2" spreadMethod="pad">
      <stop offset="0.0" stop-color="#15151a"/>
      <stop offset="1.0" stop-color="#15151a"/>
    </radialGradient>
    <radialGradient cx="0" cy="0" gradientTransform="matrix(0.0062, 0.0, 0.0, 0.0062, -0.25, -12.35)" gradientUnits="userSpaceOnUse" id="gradient32" r="819.2" spreadMethod="pad">
      <stop offset="0.0" stop-color="#7e7e9e"/>
      <stop offset="1.0" stop-color="#48485b"/>
    </radialGradient>
    <radialGradient cx="0" cy="0" gradientTransform="matrix(0.0038, 0.0, 0.0, 0.0038, 9.15, -4.35)" gradientUnits="userSpaceOnUse" id="gradient33" r="819.2" spreadMethod="pad">
      <stop offset="0.0" stop-color="#30385a"/>
      <stop offset="1.0" stop-color="#212840"/>
    </radialGradient>
    <radialGradient cx="0" cy="0" gradientTransform="matrix(0.0113, 0.0, 0.0, 0.0113, 10.6, 2.25)" gradientUnits="userSpaceOnUse" id="gradient34" r="819.2" spreadMethod="pad">
      <stop offset="0.0" stop-color="#8888a9"/>
      <stop offset="1.0" stop-color="#5f5f76"/>
    </radialGradient>
    <radialGradient cx="0" cy="0" gradientTransform="matrix(0.0116, 0.0, 0.0, 0.0116, 6.3, -5.9)" gradientUnits="userSpaceOnUse" id="gradient35" r="819.2" spreadMethod="pad">
      <stop offset="0.0" stop-color="#15151a"/>
      <stop offset="1.0" stop-color="#15151a"/>
    </radialGradient>
    <radialGradient cx="0" cy="0" gradientTransform="matrix(0.005, 0.0, 0.0, 0.005, 7.55, -4.35)" gradientUnits="userSpaceOnUse" id="gradient36" r="819.2" spreadMethod="pad">
      <stop offset="0.0" stop-color="#38426a"/>
      <stop offset="1.0" stop-color="#384269"/>
    </radialGradient>
    <radialGradient cx="0" cy="0" gradientTransform="matrix(0.0023, 0.0, 0.0, 0.0023, 7.95, -2.85)" gradientUnits="userSpaceOnUse" id="gradient37" r="819.2" spreadMethod="pad">
      <stop offset="0.0" stop-color="#08090e"/>
      <stop offset="1.0" stop-color="#08090e"/>
    </radialGradient>
    <radialGradient cx="0" cy="0" gradientTransform="matrix(0.0045, 0.0, 0.0, 0.0045, 8.2, -1.5)" gradientUnits="userSpaceOnUse" id="gradient38" r="819.2" spreadMethod="pad">
      <stop offset="0.0" stop-color="#38426a"/>
      <stop offset="1.0" stop-color="#374269"/>
    </radialGradient>
    <radialGradient cx="0" cy="0" gradientTransform="matrix(0.002, 0.0, 0.0, 0.002, 8.5, 0.05)" gradientUnits="userSpaceOnUse" id="gradient39" r="819.2" spreadMethod="pad">
      <stop offset="0.0" stop-color="#08090e"/>
      <stop offset="1.0" stop-color="#08090e"/>
    </radialGradient>
    <radialGradient cx="0" cy="0" gradientTransform="matrix(0.0035, 0.0, 0.0, 0.0035, 9.65, -1.45)" gradientUnits="userSpaceOnUse" id="gradient40" r="819.2" spreadMethod="pad">
      <stop offset="0.0" stop-color="#30395c"/>
      <stop offset="1.0" stop-color="#222941"/>
    </radialGradient>
    <radialGradient cx="0" cy="0" gradientTransform="matrix(0.0054, 0.0, 0.0, 0.0054, 11.3, -3.15)" gradientUnits="userSpaceOnUse" id="gradient41" r="819.2" spreadMethod="pad">
      <stop offset="0.0" stop-color="#08090e"/>
      <stop offset="1.0" stop-color="#08090e"/>
    </radialGradient>
    <radialGradient cx="0" cy="0" gradientTransform="matrix(0.0064, 0.0, 0.0, 0.0064, -3.45, -52.65)" gradientUnits="userSpaceOnUse" id="gradient42" r="819.2" spreadMethod="pad">
      <stop offset="0.0" stop-color="#3c6781"/>
      <stop offset="1.0" stop-color="#213847"/>
    </radialGradient>
    <radialGradient cx="0" cy="0" gradientTransform="matrix(0.0093, 0.0, 0.0, 0.0093, -1.15, -52.45)" gradientUnits="userSpaceOnUse" id="gradient43" r="819.2" spreadMethod="pad">
      <stop offset="0.0" stop-color="#5ea2ca"/>
      <stop offset="1.0" stop-color="#38627a"/>
    </radialGradient>
    <radialGradient cx="0" cy="0" gradientTransform="matrix(0.022, 0.0, 0.0, 0.022, -29.2, -32.95)" gradientUnits="userSpaceOnUse" id="gradient44" r="819.2" spreadMethod="pad">
      <stop offset="0.0" stop-color="#c5c5c5"/>
      <stop offset="1.0" stop-color="#5c5c5c"/>
    </radialGradient>
    <radialGradient cx="0" cy="0" gradientTransform="matrix(0.0038, 0.0, 0.0, 0.0038, -3.75, -47.25)" gradientUnits="userSpaceOnUse" id="gradient45" r="819.2" spreadMethod="pad">
      <stop offset="0.0" stop-color="#5491b4"/>
      <stop offset="1.0" stop-color="#33586d"/>
    </radialGradient>
    <radialGradient cx="0" cy="0" gradientTransform="matrix(0.0172, 0.0, 0.0, 0.0172, -3.0, -43.1)" gradientUnits="userSpaceOnUse" id="gradient46" r="819.2" spreadMethod="pad">
      <stop offset="0.0" stop-color="#9f9fc7"/>
      <stop offset="1.0" stop-color="#63637c"/>
    </radialGradient>
    <radialGradient cx="0" cy="0" gradientTransform="matrix(0.0046, 0.0, 0.0, 0.0046, -4.1, -46.15)" gradientUnits="userSpaceOnUse" id="gradient47" r="819.2" spreadMethod="pad">
      <stop offset="0.0" stop-color="#6ebeec"/>
      <stop offset="1.0" stop-color="#39637c"/>
    </radialGradient>
    <radialGradient cx="0" cy="0" gradientTransform="matrix(0.0023, 0.0, 0.0, 0.0023, -1.05, -43.55)" gradientUnits="userSpaceOnUse" id="gradient48" r="819.2" spreadMethod="pad">
      <stop offset="0.0" stop-color="#7b7b99"/>
      <stop offset="1.0" stop-color="#7b7b99"/>
    </radialGradient>
    <radialGradient cx="0" cy="0" gradientTransform="matrix(0.0043, 0.0, 0.0, 0.0043, 0.0, -43.15)" gradientUnits="userSpaceOnUse" id="gradient49" r="819.2" spreadMethod="pad">
      <stop offset="0.0" stop-color="#15151a"/>
      <stop offset="1.0" stop-color="#15151a"/>
    </radialGradient>
    <radialGradient cx="0" cy="0" gradientTransform="matrix(0.0021, 0.0, 0.0, 0.0021, -8.35, -48.1)" gradientUnits="userSpaceOnUse" id="gradient50" r="819.2" spreadMethod="pad">
      <stop offset="0.0" stop-color="#797979"/>
      <stop offset="1.0" stop-color="#626262"/>
    </radialGradient>
    <radialGradient cx="0" cy="0" gradientTransform="matrix(0.0051, 0.0, 0.0, 0.0051, -4.05, -49.35)" gradientUnits="userSpaceOnUse" id="gradient51" r="819.2" spreadMethod="pad">
      <stop offset="0.0" stop-color="#acacac"/>
      <stop offset="1.0" stop-color="#858585"/>
    </radialGradient>
    <radialGradient cx="0" cy="0" gradientTransform="matrix(0.0282, 0.0, 0.0, 0.0282, -6.45, -46.55)" gradientUnits="userSpaceOnUse" id="gradient52" r="819.2" spreadMethod="pad">
      <stop offset="0.0" stop-color="#ffffff"/>
      <stop offset="1.0" stop-color="#787878"/>
    </radialGradient>
    <radialGradient cx="0" cy="0" gradientTransform="matrix(0.0187, 0.0, 0.0, 0.0187, -6.25, -42.3)" gradientUnits="userSpaceOnUse" id="gradient53" r="819.2" spreadMethod="pad">
      <stop offset="0.0" stop-color="#ffffff"/>
      <stop offset="1.0" stop-color="#868686"/>
    </radialGradient>
    <radialGradient cx="0" cy="0" gradientTransform="matrix(0.0197, 0.0, 0.0, 0.0197, -5.75, -37.3)" gradientUnits="userSpaceOnUse" id="gradient54" r="819.2" spreadMethod="pad">
      <stop offset="0.0" stop-color="#3e4a76"/>
      <stop offset="1.0" stop-color="#2b3352"/>
    </radialGradient>
    <radialGradient cx="0" cy="0" gradientTransform="matrix(0.0017, 0.0, 0.0, 0.0017, -0.7, -44.25)" gradientUnits="userSpaceOnUse" id="gradient55" r="819.2" spreadMethod="pad">
      <stop offset="0.0" stop-color="#15151a"/>
      <stop offset="1.0" stop-color="#15151a"/>
    </radialGradient>
    <radialGradient cx="0" cy="0" gradientTransform="matrix(0.0255, 0.0, 0.0, 0.0255, -15.8, -44.45)" gradientUnits="userSpaceOnUse" id="gradient56" r="819.2" spreadMethod="pad">
      <stop offset="0.0" stop-color="#fafafa"/>
      <stop offset="1.0" stop-color="#646464"/>
    </radialGradient>
    <radialGradient cx="0" cy="0" gradientTransform="matrix(0.0143, 0.0, 0.0, 0.0143, -23.6, -39.4)" gradientUnits="userSpaceOnUse" id="gradient57" r="819.2" spreadMethod="pad">
      <stop offset="0.0" stop-color="#929292"/>
      <stop offset="1.0" stop-color="#575757"/>
    </radialGradient>
    <radialGradient cx="0" cy="0" gradientTransform="matrix(0.0139, 0.0, 0.0, 0.0139, -10.55, -36.95)" gradientUnits="userSpaceOnUse" id="gradient58" r="819.2" spreadMethod="pad">
      <stop offset="0.0" stop-color="#c4c4c4"/>
      <stop offset="1.0" stop-color="#9a9a9a"/>
    </radialGradient>
    <radialGradient cx="0" cy="0" gradientTransform="matrix(0.0126, 0.0, 0.0, 0.0126, -22.05, -33.5)" gradientUnits="userSpaceOnUse" id="gradient59" r="819.2" spreadMethod="pad">
      <stop offset="0.0" stop-color="#bcbcbc"/>
      <stop offset="1.0" stop-color="#6e6e6e"/>
    </radialGradient>
    <radialGradient cx="0" cy="0" gradientTransform="matrix(0.0151, 0.0, 0.0, 0.0151, -11.1, -35.85)" gradientUnits="userSpaceOnUse" id="gradient60" r="819.2" spreadMethod="pad">
      <stop offset="0.0" stop-color="#bfbfbf"/>
      <stop offset="1.0" stop-color="#848484"/>
    </radialGradient>
    <radialGradient cx="0" cy="0" gradientTransform="matrix(0.0052, 0.0, 0.0, 0.0052, -4.85, -28.7)" gradientUnits="userSpaceOnUse" id="gradient61" r="819.2" spreadMethod="pad">
      <stop offset="0.0" stop-color="#64acd6"/>
      <stop offset="1.0" stop-color="#447693"/>
    </radialGradient>
    <radialGradient cx="0" cy="0" gradientTransform="matrix(0.0024, 0.0, 0.0, 0.0024, -5.5, -24.85)" gradientUnits="userSpaceOnUse" id="gradient62" r="819.2" spreadMethod="pad">
      <stop offset="0.0" stop-color="#15151a"/>
      <stop offset="1.0" stop-color="#15151a"/>
    </radialGradient>
    <radialGradient cx="0" cy="0" gradientTransform="matrix(0.0018, 0.0, 0.0, 0.0018, 0.1, -27.75)" gradientUnits="userSpaceOnUse" id="gradient63" r="819.2" spreadMethod="pad">
      <stop offset="0.0" stop-color="#2c3454"/>
      <stop offset="1.0" stop-color="#29304e"/>
    </radialGradient>
    <radialGradient cx="0" cy="0" gradientTransform="matrix(0.0195, 0.0, 0.0, 0.0195, -8.25, -37.3)" gradientUnits="userSpaceOnUse" id="gradient64" r="819.2" spreadMethod="pad">
      <stop offset="0.0" stop-color="#2a3250"/>
      <stop offset="1.0" stop-color="#08090e"/>
    </radialGradient>
    <radialGradient cx="0" cy="0" gradientTransform="matrix(0.0035, 0.0, 0.0, 0.0035, -2.3, -21.75)" gradientUnits="userSpaceOnUse" id="gradient65" r="819.2" spreadMethod="pad">
      <stop offset="0.0" stop-color="#414d7a"/>
      <stop offset="1.0" stop-color="#282f4c"/>
    </radialGradient>
    <radialGradient cx="0" cy="0" gradientTransform="matrix(9.0E-4, 0.0, 0.0, 9.0E-4, -5.0, -21.55)" gradientUnits="userSpaceOnUse" id="gradient66" r="819.2" spreadMethod="pad">
      <stop offset="0.0" stop-color="#232942"/>
      <stop offset="1.0" stop-color="#08090e"/>
    </radialGradient>
    <radialGradient cx="0" cy="0" gradientTransform="matrix(0.0046, 0.0, 0.0, 0.0046, -2.1, -18.7)" gradientUnits="userSpaceOnUse" id="gradient67" r="819.2" spreadMethod="pad">
      <stop offset="0.0" stop-color="#414c7a"/>
      <stop offset="1.0" stop-color="#262d48"/>
    </radialGradient>
    <radialGradient cx="0" cy="0" gradientTransform="matrix(0.0046, 0.0, 0.0, 0.0046, -10.4, -6.95)" gradientUnits="userSpaceOnUse" id="gradient68" r="819.2" spreadMethod="pad">
      <stop offset="0.0" stop-color="#262c47"/>
      <stop offset="1.0" stop-color="#171c2d"/>
    </radialGradient>
    <radialGradient cx="0" cy="0" gradientTransform="matrix(0.0079, 0.0, 0.0, 0.0079, -7.85, -2.95)" gradientUnits="userSpaceOnUse" id="gradient69" r="819.2" spreadMethod="pad">
      <stop offset="0.0" stop-color="#c1c1f1"/>
      <stop offset="1.0" stop-color="#63637b"/>
    </radialGradient>
    <radialGradient cx="0" cy="0" gradientTransform="matrix(0.0079, 0.0, 0.0, 0.0079, -11.45, -5.9)" gradientUnits="userSpaceOnUse" id="gradient70" r="819.2" spreadMethod="pad">
      <stop offset="0.0" stop-color="#7b7b9a"/>
      <stop offset="1.0" stop-color="#3b3b4a"/>
    </radialGradient>
    <radialGradient cx="0" cy="0" gradientTransform="matrix(0.0032, 0.0, 0.0, 0.0032, -3.65, -9.55)" gradientUnits="userSpaceOnUse" id="gradient71" r="819.2" spreadMethod="pad">
      <stop offset="0.0" stop-color="#212129"/>
      <stop offset="1.0" stop-color="#15151a"/>
    </radialGradient>
    <radialGradient cx="0" cy="0" gradientTransform="matrix(0.0035, 0.0, 0.0, 0.0035, -3.55, -12.4)" gradientUnits="userSpaceOnUse" id="gradient72" r="819.2" spreadMethod="pad">
      <stop offset="0.0" stop-color="#59596e"/>
      <stop offset="1.0" stop-color="#4f4f62"/>
    </radialGradient>
    <radialGradient cx="0" cy="0" gradientTransform="matrix(0.003, 0.0, 0.0, 0.003, -3.9, -9.95)" gradientUnits="userSpaceOnUse" id="gradient73" r="819.2" spreadMethod="pad">
      <stop offset="0.0" stop-color="#5b5b72"/>
      <stop offset="1.0" stop-color="#5a5a70"/>
    </radialGradient>
    <radialGradient cx="0" cy="0" gradientTransform="matrix(0.0081, 0.0, 0.0, 0.0081, -1.8, -10.6)" gradientUnits="userSpaceOnUse" id="gradient74" r="819.2" spreadMethod="pad">
      <stop offset="0.0" stop-color="#b6b6e3"/>
      <stop offset="1.0" stop-color="#56566b"/>
    </radialGradient>
    <radialGradient cx="0" cy="0" gradientTransform="matrix(0.0052, 0.0, 0.0, 0.0052, -8.2, -8.55)" gradientUnits="userSpaceOnUse" id="gradient75" r="819.2" spreadMethod="pad">
      <stop offset="0.0" stop-color="#282f4c"/>
      <stop offset="1.0" stop-color="#1a1f31"/>
    </radialGradient>
    <radialGradient cx="0" cy="0" gradientTransform="matrix(0.0054, 0.0, 0.0, 0.0054, -6.8, -6.45)" gradientUnits="userSpaceOnUse" id="gradient76" r="819.2" spreadMethod="pad">
      <stop offset="0.0" stop-color="#414c7a"/>
      <stop offset="1.0" stop-color="#404c7a"/>
    </radialGradient>
    <radialGradient cx="0" cy="0" gradientTransform="matrix(0.0027, 0.0, 0.0, 0.0027, -8.35, -6.9)" gradientUnits="userSpaceOnUse" id="gradient77" r="819.2" spreadMethod="pad">
      <stop offset="0.0" stop-color="#445080"/>
      <stop offset="1.0" stop-color="#435080"/>
    </radialGradient>
    <radialGradient cx="0" cy="0" gradientTransform="matrix(0.0047, 0.0, 0.0, 0.0047, -9.4, -7.7)" gradientUnits="userSpaceOnUse" id="gradient78" r="819.2" spreadMethod="pad">
      <stop offset="0.0" stop-color="#272e49"/>
      <stop offset="1.0" stop-color="#191d2f"/>
    </radialGradient>
    <radialGradient cx="0" cy="0" gradientTransform="matrix(0.0047, 0.0, 0.0, 0.0047, -9.4, -7.7)" gradientUnits="userSpaceOnUse" id="gradient79" r="819.2" spreadMethod="pad">
      <stop offset="0.0" stop-color="#424f7e"/>
      <stop offset="1.0" stop-color="#424e7d"/>
    </radialGradient>
    <radialGradient cx="0" cy="0" gradientTransform="matrix(0.0054, 0.0, 0.0, 0.0054, -9.8, -1.15)" gradientUnits="userSpaceOnUse" id="gradient80" r="819.2" spreadMethod="pad">
      <stop offset="0.0" stop-color="#c5c5f6"/>
      <stop offset="1.0" stop-color="#b4b4e1"/>
    </radialGradient>
    <radialGradient cx="0" cy="0" gradientTransform="matrix(0.0021, 0.0, 0.0, 0.0021, -10.15, -2.15)" gradientUnits="userSpaceOnUse" id="gradient81" r="819.2" spreadMethod="pad">
      <stop offset="0.0" stop-color="#606078"/>
      <stop offset="1.0" stop-color="#606077"/>
    </radialGradient>
    <radialGradient cx="0" cy="0" gradientTransform="matrix(0.0036, 0.0, 0.0, 0.0036, -9.8, -1.15)" gradientUnits="userSpaceOnUse" id="gradient82" r="819.2" spreadMethod="pad">
      <stop offset="0.0" stop-color="#a4a4cd"/>
      <stop offset="1.0" stop-color="#9797bc"/>
    </radialGradient>
    <radialGradient cx="0" cy="0" gradientTransform="matrix(0.0035, 0.0, 0.0, 0.0035, -7.05, -0.1)" gradientUnits="userSpaceOnUse" id="gradient83" r="819.2" spreadMethod="pad">
      <stop offset="0.0" stop-color="#bebeed"/>
      <stop offset="1.0" stop-color="#9c9cc2"/>
    </radialGradient>
    <radialGradient cx="0" cy="0" gradientTransform="matrix(0.0023, 0.0, 0.0, 0.0023, -9.0, -2.2)" gradientUnits="userSpaceOnUse" id="gradient84" r="819.2" spreadMethod="pad">
      <stop offset="0.0" stop-color="#767693"/>
      <stop offset="1.0" stop-color="#71718c"/>
    </radialGradient>
    <radialGradient cx="0" cy="0" gradientTransform="matrix(0.0026, 0.0, 0.0, 0.0026, -7.05, -0.1)" gradientUnits="userSpaceOnUse" id="gradient85" r="819.2" spreadMethod="pad">
      <stop offset="0.0" stop-color="#a3a3cb"/>
      <stop offset="1.0" stop-color="#5f5f76"/>
    </radialGradient>
    <radialGradient cx="0" cy="0" gradientTransform="matrix(0.0029, 0.0, 0.0, 0.0029, -5.55, 0.15)" gradientUnits="userSpaceOnUse" id="gradient86" r="819.2" spreadMethod="pad">
      <stop offset="0.0" stop-color="#5a5a70"/>
      <stop offset="1.0" stop-color="#56566b"/>
    </radialGradient>
    <radialGradient cx="0" cy="0" gradientTransform="matrix(0.0094, 0.0, 0.0, 0.0094, 11.2, 4.45)" gradientUnits="userSpaceOnUse" id="gradient87" r="819.2" spreadMethod="pad">
      <stop offset="0.0" stop-color="#c5c5f6"/>
      <stop offset="1.0" stop-color="#a2a2ca"/>
    </radialGradient>
    <radialGradient cx="0" cy="0" gradientTransform="matrix(0.0037, 0.0, 0.0, 0.0037, 10.2, 1.85)" gradientUnits="userSpaceOnUse" id="gradient88" r="819.2" spreadMethod="pad">
      <stop offset="0.0" stop-color="#313a5d"/>
      <stop offset="1.0" stop-color="#222841"/>
    </radialGradient>
    <radialGradient cx="0" cy="0" gradientTransform="matrix(0.0043, 0.0, 0.0, 0.0043, 8.7, 1.45)" gradientUnits="userSpaceOnUse" id="gradient89" r="819.2" spreadMethod="pad">
      <stop offset="0.0" stop-color="#38426a"/>
      <stop offset="1.0" stop-color="#374269"/>
    </radialGradient>
    <radialGradient cx="0" cy="0" gradientTransform="matrix(0.0026, 0.0, 0.0, 0.0026, 17.5, 8.2)" gradientUnits="userSpaceOnUse" id="gradient90" r="819.2" spreadMethod="pad">
      <stop offset="0.0" stop-color="#606077"/>
      <stop offset="1.0" stop-color="#5e5e75"/>
    </radialGradient>
    <radialGradient cx="0" cy="0" gradientTransform="matrix(0.0019, 0.0, 0.0, 0.0019, 8.9, 2.95)" gradientUnits="userSpaceOnUse" id="gradient91" r="819.2" spreadMethod="pad">
      <stop offset="0.0" stop-color="#08090e"/>
      <stop offset="1.0" stop-color="#08090e"/>
    </radialGradient>
  </defs>
</svg>
