<?xml version="1.0" encoding="UTF-8" standalone="no"?>
<svg xmlns:ffdec="https://www.free-decompiler.com/flash" xmlns:xlink="http://www.w3.org/1999/xlink" ffdec:objectType="shape" height="72.25px" width="57.45px" xmlns="http://www.w3.org/2000/svg">
  <g transform="matrix(1.0, 0.0, 0.0, 1.0, 41.3, 56.1)">
    <path d="M0.15 -54.15 Q-0.2 -54.6 3.2 -56.1 L3.4 -56.05 3.75 -55.2 4.0 -54.2 3.7 -54.5 2.1 -55.15 3.5 -54.0 Q4.35 -52.8 4.15 -52.45 L4.1 -52.1 2.6 -53.35 0.75 -54.1 0.75 -54.25 0.45 -54.15 0.15 -54.15" fill="url(#gradient0)" fill-rule="evenodd" stroke="none"/>
    <path d="M4.15 -52.45 Q4.35 -52.8 3.5 -54.0 L2.1 -55.15 3.7 -54.5 4.0 -54.2 Q6.15 -52.6 6.15 -49.65 L6.2 -49.45 5.3 -48.5 5.2 -48.15 4.65 -48.45 4.65 -48.55 4.75 -49.2 4.35 -51.9 4.15 -52.45" fill="url(#gradient1)" fill-rule="evenodd" stroke="none"/>
    <path d="M0.45 -54.15 L0.75 -54.25 0.75 -54.1 0.45 -54.15" fill="url(#gradient2)" fill-rule="evenodd" stroke="none"/>
    <path d="M0.15 -54.15 L0.45 -54.15 0.75 -54.1 2.6 -53.35 4.1 -52.1 4.35 -51.9 4.75 -49.2 4.65 -48.55 Q4.35 -49.7 2.8 -51.3 L-0.2 -54.2 0.15 -54.15 M-4.9 -52.4 L-3.4 -53.85 -1.1 -54.25 0.45 -52.15 2.2 -48.5 2.45 -48.2 Q0.65 -48.0 0.05 -46.45 L-1.2 -46.7 -3.4 -45.1 Q-3.3 -45.4 -5.2 -48.5 L-5.05 -48.95 Q-6.3 -51.55 -4.75 -52.25 L-4.95 -52.3 -4.9 -52.4" fill="url(#gradient3)" fill-rule="evenodd" stroke="none"/>
    <path d="M6.15 -49.65 L7.65 -49.3 Q9.5 -47.6 10.1 -45.05 L10.25 -42.55 9.7 -40.7 Q9.6 -45.05 7.0 -45.95 L6.3 -46.4 5.8 -46.6 5.2 -48.15 5.3 -48.5 6.2 -49.45 6.15 -49.65" fill="url(#gradient4)" fill-rule="evenodd" stroke="none"/>
    <path d="M4.65 -48.45 L5.2 -48.15 5.8 -46.6 5.8 -46.5 7.0 -41.75 4.75 -44.75 4.7 -44.8 4.65 -44.9 4.5 -45.05 3.9 -45.65 3.6 -46.05 3.05 -47.9 4.2 -48.5 4.6 -48.5 4.65 -48.45" fill="url(#gradient5)" fill-rule="evenodd" stroke="none"/>
    <path d="M7.0 -45.95 L7.9 -44.95 11.0 -32.85 10.6 -32.9 10.5 -32.55 Q9.3 -31.9 8.55 -31.9 L8.4 -31.6 7.65 -31.6 7.65 -31.65 7.85 -32.2 7.9 -32.45 Q8.4 -33.5 8.1 -34.7 L7.45 -36.65 6.15 -39.4 6.15 -42.35 Q5.65 -42.65 4.75 -44.6 L4.75 -44.75 7.0 -41.75 5.8 -46.5 6.3 -46.4 7.0 -45.95" fill="url(#gradient6)" fill-rule="evenodd" stroke="none"/>
    <path d="M-1.1 -54.25 L-1.95 -55.55 -0.2 -54.2 2.8 -51.3 Q4.35 -49.7 4.65 -48.55 L4.65 -48.45 4.6 -48.5 4.2 -48.5 3.05 -47.9 2.45 -48.2 2.2 -48.5 0.45 -52.15 -1.1 -54.25" fill="url(#gradient7)" fill-rule="evenodd" stroke="none"/>
    <path d="M3.05 -47.9 L3.6 -46.05 3.9 -45.65 3.6 -44.9 2.15 -40.35 1.0 -35.45 0.85 -34.7 0.65 -33.85 0.45 -34.75 0.05 -38.75 0.0 -39.35 -0.05 -40.5 0.0 -40.75 -0.05 -41.0 -0.05 -41.4 -0.15 -42.65 -0.15 -43.85 -0.15 -46.1 0.05 -46.45 Q0.65 -48.0 2.45 -48.2 L3.05 -47.9" fill="url(#gradient8)" fill-rule="evenodd" stroke="none"/>
    <path d="M3.9 -45.65 L4.5 -45.05 3.7 -44.0 3.75 -44.35 3.6 -44.9 3.9 -45.65" fill="url(#gradient9)" fill-rule="evenodd" stroke="none"/>
    <path d="M4.5 -45.05 L4.65 -44.9 3.95 -43.75 4.05 -43.6 4.5 -43.7 4.4 -43.15 3.95 -42.15 3.05 -41.35 2.45 -40.5 2.15 -40.35 3.6 -44.9 3.75 -44.35 3.7 -44.0 4.5 -45.05 M-0.15 -43.85 L-0.15 -42.65 Q-1.45 -42.9 -1.6 -43.15 L-2.0 -43.0 -2.1 -43.0 Q-1.55 -41.6 -0.05 -41.4 L-0.05 -41.0 -1.5 -41.65 -2.15 -42.35 -2.25 -42.45 -2.3 -43.15 -0.15 -43.85" fill="url(#gradient10)" fill-rule="evenodd" stroke="none"/>
    <path d="M4.75 -44.75 L4.75 -44.6 4.5 -43.7 4.05 -43.6 3.95 -43.75 4.65 -44.9 4.7 -44.8 4.75 -44.75" fill="url(#gradient11)" fill-rule="evenodd" stroke="none"/>
    <path d="M4.75 -44.6 Q5.65 -42.65 6.15 -42.35 L6.15 -39.4 3.95 -42.15 4.4 -43.15 4.5 -43.7 4.75 -44.6 M0.0 -40.75 L-0.05 -40.5 -0.15 -40.7 0.0 -40.75 M0.0 -39.35 L0.05 -38.75 -0.95 -40.4 -0.55 -40.45 -0.45 -40.4 0.0 -39.35 M1.0 -35.45 L2.15 -40.35 2.45 -40.5 3.7 -38.3 3.4 -38.3 3.6 -37.25 3.2 -36.65 Q3.6 -36.2 1.25 -34.55 L1.0 -35.45" fill="url(#gradient12)" fill-rule="evenodd" stroke="none"/>
    <path d="M7.5 -31.45 L7.2 -31.25 6.95 -30.9 5.35 -29.8 5.2 -29.55 5.4 -29.05 5.5 -28.3 5.45 -27.75 5.2 -26.9 4.9 -26.25 4.1 -24.8 2.7 -21.65 Q1.8 -20.35 0.35 -20.4 -1.3 -23.1 -4.1 -24.8 -4.55 -25.3 -5.35 -25.5 L-5.85 -26.4 -6.5 -27.65 -6.5 -28.55 -5.8 -29.15 -5.5 -29.35 -5.4 -30.1 -5.1 -29.7 -5.05 -29.6 -5.05 -29.55 -5.0 -29.5 -5.1 -29.8 -5.1 -29.85 -5.1 -29.9 -5.15 -30.05 -5.15 -30.1 -5.15 -30.15 -5.2 -30.3 -5.2 -30.5 -5.2 -30.65 -5.15 -30.7 -5.1 -30.6 Q-4.85 -28.9 -4.35 -29.2 L-5.05 -33.5 -5.5 -41.25 -5.6 -42.35 -5.35 -42.95 -3.9 -42.85 -3.45 -41.4 -1.8 -36.35 0.7 -30.35 Q1.2 -29.1 1.8 -28.85 L2.05 -28.75 Q7.95 -32.3 4.55 -36.65 L3.7 -38.3 2.45 -40.5 3.05 -41.35 3.95 -42.15 6.15 -39.4 7.45 -36.65 8.1 -34.7 Q8.4 -33.5 7.9 -32.45 L7.85 -32.2 7.65 -31.65 7.65 -31.6 7.5 -31.45" fill="url(#gradient13)" fill-rule="evenodd" stroke="none"/>
    <path d="M0.45 -34.75 L0.65 -33.85 0.85 -34.7 1.25 -34.55 Q3.6 -36.2 3.2 -36.65 L3.6 -37.25 3.4 -38.3 3.7 -38.3 4.55 -36.65 Q7.95 -32.3 2.05 -28.75 L1.8 -29.15 1.8 -28.85 Q1.2 -29.1 0.7 -30.35 L-1.8 -36.35 -1.5 -36.55 Q-1.15 -35.6 0.45 -34.75 M-5.05 -33.5 L-4.35 -29.2 Q-4.85 -28.9 -5.1 -30.6 L-5.15 -30.7 -5.25 -31.1 -5.4 -31.5 -5.35 -32.85 -5.05 -33.5" fill="url(#gradient14)" fill-rule="evenodd" stroke="none"/>
    <path d="M11.0 -32.85 Q14.05 -27.9 13.85 -24.35 L14.1 -23.35 13.8 -21.9 12.8 -21.7 12.65 -21.55 12.5 -21.65 12.15 -21.85 11.15 -23.2 Q7.85 -27.7 7.5 -31.45 L7.65 -31.6 8.4 -31.6 8.55 -31.9 Q9.3 -31.9 10.5 -32.55 L10.6 -32.9 11.0 -32.85" fill="url(#gradient15)" fill-rule="evenodd" stroke="none"/>
    <path d="M-0.05 -40.5 L0.0 -39.35 -0.45 -40.4 -0.55 -40.45 -0.15 -40.7 -0.05 -40.5 M0.05 -38.75 L0.45 -34.75 Q-1.15 -35.6 -1.5 -36.55 L-1.8 -36.35 -3.45 -41.4 -2.55 -40.75 -0.95 -40.4 0.05 -38.75 M0.85 -34.7 L1.0 -35.45 1.25 -34.55 0.85 -34.7 M-5.5 -41.25 L-5.05 -33.5 -5.35 -32.85 -5.4 -31.5 Q-5.85 -31.85 -6.65 -34.55 L-7.7 -36.35 -7.8 -37.0 -8.1 -37.35 -7.8 -38.6 Q-8.1 -38.75 -8.15 -40.1 L-7.95 -40.35 -6.8 -40.9 -6.7 -40.9 -6.35 -41.1 -5.5 -41.25" fill="url(#gradient16)" fill-rule="evenodd" stroke="none"/>
    <path d="M2.05 -28.75 L1.8 -28.85 1.8 -29.15 2.05 -28.75" fill="url(#gradient17)" fill-rule="evenodd" stroke="none"/>
    <path d="M5.45 -29.4 Q10.8 -23.7 4.4 -15.0 L3.1 -14.25 Q1.5 -14.05 1.4 -14.25 L0.95 -18.0 0.35 -20.4 Q1.8 -20.35 2.7 -21.65 L4.1 -24.8 4.9 -26.25 5.2 -26.35 5.2 -26.9 5.45 -27.75 5.65 -28.05 5.5 -28.3 5.4 -29.05 5.45 -29.4" fill="url(#gradient18)" fill-rule="evenodd" stroke="none"/>
    <path d="M5.35 -29.8 L5.45 -29.4 5.4 -29.05 5.2 -29.55 5.35 -29.8 M4.9 -26.25 L5.2 -26.9 5.2 -26.35 4.9 -26.25 M5.45 -27.75 L5.5 -28.3 5.65 -28.05 5.45 -27.75" fill="url(#gradient19)" fill-rule="evenodd" stroke="none"/>
    <path d="M13.85 -24.35 Q17.6 -22.85 15.2 -19.6 15.15 -20.6 14.6 -21.25 L13.8 -21.9 14.1 -23.35 13.85 -24.35 M12.7 -19.0 Q9.6 -20.15 11.15 -23.2 L12.15 -21.85 12.5 -21.65 12.15 -20.85 Q12.25 -19.15 12.7 -19.0" fill="url(#gradient20)" fill-rule="evenodd" stroke="none"/>
    <path d="M15.2 -19.6 Q14.9 -18.05 12.7 -19.0 12.25 -19.15 12.15 -20.85 L12.5 -21.65 12.65 -21.55 12.8 -21.7 13.8 -21.9 14.6 -21.25 Q15.15 -20.6 15.2 -19.6" fill="url(#gradient21)" fill-rule="evenodd" stroke="none"/>
    <path d="M3.55 -13.35 L3.1 -12.3 Q2.15 -11.05 1.4 -10.8 L1.45 -12.95 1.5 -13.05 1.9 -12.95 2.1 -12.8 3.05 -12.95 3.55 -13.35" fill="url(#gradient22)" fill-rule="evenodd" stroke="none"/>
    <path d="M1.4 -10.8 L1.25 -10.35 0.8 -9.45 Q-0.35 -9.05 -1.05 -7.75 L-1.5 -7.7 -1.95 -7.75 -2.15 -7.1 -2.0 -6.7 -2.4 -6.45 Q-3.2 -7.25 -3.0 -7.55 L-3.15 -8.55 -3.4 -8.7 -3.4 -8.8 -3.45 -8.9 -3.95 -9.7 -5.1 -10.95 -5.85 -12.15 -5.9 -12.3 -6.35 -13.05 -7.7 -16.85 Q-3.95 -14.75 -3.75 -17.05 -4.9 -18.65 -8.25 -19.45 L-8.3 -20.1 Q-7.05 -18.5 -5.6 -20.35 -6.0 -22.1 -8.45 -22.35 L-8.4 -25.15 -7.6 -25.5 -7.35 -25.4 Q-6.85 -26.95 -5.85 -26.4 L-5.35 -25.5 Q-4.55 -25.3 -4.1 -24.8 -1.3 -23.1 0.35 -20.4 L0.95 -18.0 1.4 -14.25 1.5 -13.05 1.45 -12.95 1.4 -10.8" fill="url(#gradient23)" fill-rule="evenodd" stroke="none"/>
    <path d="M4.4 -15.0 L4.2 -14.1 3.55 -13.35 3.05 -12.95 2.1 -12.8 1.9 -12.95 1.5 -13.05 1.4 -14.25 Q1.5 -14.05 3.1 -14.25 L4.4 -15.0" fill="url(#gradient24)" fill-rule="evenodd" stroke="none"/>
    <path d="M1.25 -10.35 Q1.45 -8.25 0.8 -7.2 -0.1 -3.0 -2.0 -6.7 L-2.15 -7.1 -1.95 -7.75 -1.5 -7.7 -1.05 -7.75 Q-0.35 -9.05 0.8 -9.45 L1.25 -10.35" fill="url(#gradient25)" fill-rule="evenodd" stroke="none"/>
    <path d="M0.8 -7.2 Q1.9 -5.4 2.05 -3.65 L2.0 -0.35 1.95 -0.2 Q-0.4 2.6 -2.75 0.85 L-2.9 0.6 -3.45 -0.8 -3.9 -2.8 -4.1 -4.65 -4.1 -5.3 -4.1 -5.6 -3.9 -6.3 -3.6 -7.1 -3.55 -7.1 -3.45 -6.75 -3.25 -7.3 -3.0 -7.55 Q-3.2 -7.25 -2.4 -6.45 L-2.0 -6.7 Q-0.1 -3.0 0.8 -7.2 M-3.6 -7.2 L-3.6 -7.25 -3.55 -7.25 -3.6 -7.2" fill="url(#gradient26)" fill-rule="evenodd" stroke="none"/>
    <path d="M2.0 -0.35 L2.05 -0.25 1.95 -0.2 2.0 -0.35 M-2.8 1.2 L-2.8 1.15 -2.8 1.1 -2.9 0.6 -2.75 0.85 -2.6 1.2 -1.85 1.8 -2.8 1.2 M1.35 1.2 Q-0.05 2.3 -1.8 1.8 L0.35 1.75 1.35 1.2" fill="url(#gradient27)" fill-rule="evenodd" stroke="none"/>
    <path d="M2.05 -0.25 L2.45 1.35 2.4 2.15 Q1.6 3.95 -1.75 3.3 L-1.8 3.2 -2.15 3.0 -2.4 2.65 -2.8 1.2 -1.85 1.8 -1.8 1.8 Q-0.05 2.3 1.35 1.2 L1.6 0.95 1.9 0.5 1.95 -0.2 2.05 -0.25" fill="url(#gradient28)" fill-rule="evenodd" stroke="none"/>
    <path d="M-5.0 -52.3 L-4.9 -52.4 -4.95 -52.3 -5.0 -52.3" fill="url(#gradient29)" fill-rule="evenodd" stroke="none"/>
    <path d="M-6.8 -48.35 Q-7.6 -50.2 -5.0 -52.3 L-4.95 -52.3 -4.75 -52.25 Q-6.3 -51.55 -5.05 -48.95 L-5.2 -48.5 Q-3.3 -45.4 -3.4 -45.1 L-3.45 -45.1 -4.1 -44.55 -6.05 -46.9 -6.8 -48.35" fill="url(#gradient30)" fill-rule="evenodd" stroke="none"/>
    <path d="M-30.2 -33.85 L-40.7 -27.9 -41.3 -27.85 -41.25 -27.9 -38.4 -30.25 -28.4 -37.0 -28.75 -36.65 -28.95 -36.3 -27.45 -36.55 -29.85 -34.4 -30.2 -33.85" fill="url(#gradient31)" fill-rule="evenodd" stroke="none"/>
    <path d="M0.05 -46.45 L-0.15 -46.1 -0.15 -43.85 -2.3 -43.15 -2.75 -43.05 -3.9 -42.85 -5.35 -42.95 -6.45 -43.25 -6.85 -43.5 -6.25 -43.6 -5.65 -43.7 -5.1 -44.0 -4.1 -44.55 -3.45 -45.1 -3.4 -45.1 -1.2 -46.7 0.05 -46.45" fill="url(#gradient32)" fill-rule="evenodd" stroke="none"/>
    <path d="M-16.95 -32.95 Q-20.7 -29.4 -20.1 -34.9 L-19.7 -36.65 -18.05 -39.55 -17.75 -40.4 -15.8 -42.55 Q-15.4 -42.6 -13.45 -44.65 L-13.2 -45.75 -14.1 -46.3 -12.55 -47.7 -11.05 -48.45 -9.65 -48.85 -7.75 -48.9 -7.05 -48.35 -7.1 -47.55 -7.15 -46.75 -7.3 -46.25 -7.6 -45.25 Q-7.4 -45.05 -9.3 -42.95 L-10.25 -41.3 Q-12.4 -41.8 -13.2 -37.6 L-16.95 -32.95" fill="url(#gradient33)" fill-rule="evenodd" stroke="none"/>
    <path d="M-7.1 -47.55 L-6.8 -48.35 -6.05 -46.9 -4.1 -44.55 -5.1 -44.0 -6.0 -44.25 -6.55 -44.65 -6.7 -44.9 -7.0 -45.45 -7.1 -46.3 -7.15 -46.75 -7.1 -47.55" fill="url(#gradient34)" fill-rule="evenodd" stroke="none"/>
    <path d="M-11.05 -48.45 Q-7.95 -50.3 -7.75 -48.9 L-9.65 -48.85 -11.05 -48.45" fill="url(#gradient35)" fill-rule="evenodd" stroke="none"/>
    <path d="M-5.1 -44.0 L-5.65 -43.7 -6.25 -43.6 -6.55 -44.65 -6.0 -44.25 -5.1 -44.0 M-6.7 -44.9 L-7.35 -45.25 -7.6 -45.25 -7.3 -46.25 -7.1 -46.3 -7.0 -45.45 -6.7 -44.9" fill="url(#gradient36)" fill-rule="evenodd" stroke="none"/>
    <path d="M-6.25 -43.6 L-6.85 -43.5 -6.45 -43.25 Q-7.8 -42.35 -8.75 -42.3 L-9.75 -41.3 -10.25 -41.3 -9.3 -42.95 Q-7.4 -45.05 -7.6 -45.25 L-7.35 -45.25 -6.7 -44.9 -6.55 -44.65 -6.25 -43.6 M-14.3 -34.5 L-14.15 -35.7 -13.2 -37.4 -13.3 -36.65 -14.25 -34.5 -14.3 -34.5" fill="url(#gradient37)" fill-rule="evenodd" stroke="none"/>
    <path d="M-7.15 -32.65 L-7.65 -33.1 -8.65 -34.5 -8.4 -35.3 -7.7 -36.35 -6.65 -34.55 Q-5.85 -31.85 -5.4 -31.5 L-5.25 -31.1 -7.15 -32.65 M-5.35 -42.95 L-5.6 -42.35 -5.5 -41.25 -6.35 -41.1 -6.7 -40.9 -6.8 -40.9 -7.95 -40.35 -8.15 -40.1 -8.95 -41.15 -9.75 -41.3 -8.75 -42.3 Q-7.8 -42.35 -6.45 -43.25 L-5.35 -42.95" fill="url(#gradient38)" fill-rule="evenodd" stroke="none"/>
    <path d="M-8.65 -34.5 L-9.9 -33.75 Q-10.75 -31.5 -11.2 -31.3 -14.65 -28.95 -15.1 -31.9 L-14.75 -33.2 -14.3 -34.4 -14.25 -34.5 -13.3 -36.65 -13.2 -37.4 -13.2 -37.45 -13.2 -37.6 Q-12.4 -41.8 -10.25 -41.3 L-9.75 -41.3 -8.95 -41.15 -8.15 -40.1 Q-8.1 -38.75 -7.8 -38.6 L-8.1 -37.35 -7.8 -37.0 -7.7 -36.35 -8.4 -35.3 -8.65 -34.5" fill="url(#gradient39)" fill-rule="evenodd" stroke="none"/>
    <path d="M-0.15 -42.65 L-0.05 -41.4 Q-1.55 -41.6 -2.1 -43.0 L-2.0 -43.0 -1.6 -43.15 Q-1.45 -42.9 -0.15 -42.65" fill="url(#gradient40)" fill-rule="evenodd" stroke="none"/>
    <path d="M-2.3 -43.15 L-2.25 -42.45 -2.75 -43.05 -2.3 -43.15" fill="url(#gradient41)" fill-rule="evenodd" stroke="none"/>
    <path d="M-0.05 -41.0 L0.0 -40.75 -0.15 -40.7 -0.55 -40.45 -0.95 -40.4 -2.55 -40.75 -3.45 -41.4 -3.9 -42.85 -2.75 -43.05 -2.25 -42.45 -2.15 -42.35 -1.5 -41.65 -0.05 -41.0" fill="url(#gradient42)" fill-rule="evenodd" stroke="none"/>
    <path d="M-22.3 -36.3 L-27.45 -34.05 Q-30.4 -33.1 -30.2 -33.85 L-29.85 -34.4 -27.45 -36.55 -28.95 -36.3 -28.75 -36.65 -28.4 -37.0 -28.3 -37.15 -24.25 -41.1 -17.95 -45.3 -16.1 -46.3 -14.6 -46.6 -14.1 -46.3 -13.2 -45.75 -13.45 -44.65 Q-15.4 -42.6 -15.8 -42.55 L-17.75 -40.4 -20.5 -37.2 -22.3 -36.3" fill="url(#gradient43)" fill-rule="evenodd" stroke="none"/>
    <path d="M-20.1 -34.9 Q-30.4 -22.65 -22.3 -36.3 L-20.5 -37.2 -17.75 -40.4 -18.05 -39.55 -19.7 -36.65 -20.1 -34.9" fill="url(#gradient44)" fill-rule="evenodd" stroke="none"/>
    <path d="M-14.75 -33.2 L-16.15 -31.75 Q-17.15 -31.55 -16.95 -32.95 L-13.2 -37.6 -13.2 -37.45 -13.2 -37.4 -14.15 -35.7 -14.3 -34.5 -14.3 -34.4 -14.75 -33.2" fill="url(#gradient45)" fill-rule="evenodd" stroke="none"/>
    <path d="M-13.2 -37.45 L-13.2 -37.4 -13.2 -37.45 M-14.3 -34.5 L-14.25 -34.5 -14.3 -34.4 -14.3 -34.5" fill="url(#gradient46)" fill-rule="evenodd" stroke="none"/>
    <path d="M-13.6 -24.95 L-13.55 -24.65 -13.7 -24.75 -13.7 -24.8 -13.6 -24.95 M-15.9 -22.3 Q-18.85 -22.2 -19.05 -24.9 -18.4 -27.9 -16.3 -27.6 L-16.45 -25.95 -15.75 -24.5 -15.5 -24.25 -14.6 -23.85 -15.15 -22.55 -15.9 -22.3" fill="url(#gradient47)" fill-rule="evenodd" stroke="none"/>
    <path d="M-11.2 -31.3 Q-10.4 -29.25 -13.6 -24.95 L-13.7 -24.8 -13.7 -24.75 -14.0 -24.1 -14.6 -23.85 -15.5 -24.25 -15.75 -24.5 -16.45 -25.95 -16.3 -27.6 Q-16.55 -27.65 -16.05 -30.15 L-15.1 -31.9 Q-14.65 -28.95 -11.2 -31.3" fill="url(#gradient48)" fill-rule="evenodd" stroke="none"/>
    <path d="M-6.85 -29.7 Q-7.3 -30.05 -7.45 -31.3 L-7.15 -32.65 -5.25 -31.1 -5.15 -30.7 -5.2 -30.65 -5.25 -30.5 -5.4 -30.15 -5.9 -29.85 -5.85 -29.15 -6.85 -29.7" fill="url(#gradient49)" fill-rule="evenodd" stroke="none"/>
    <path d="M-5.2 -30.5 L-5.2 -30.3 -5.2 -30.15 -5.2 -30.1 -5.15 -30.05 -5.15 -29.95 -5.1 -29.9 -5.1 -29.85 -5.1 -29.8 -5.1 -29.7 -5.4 -30.1 -5.4 -30.15 -5.25 -30.5 -5.2 -30.5" fill="url(#gradient50)" fill-rule="evenodd" stroke="none"/>
    <path d="M-5.2 -30.3 L-5.15 -30.15 -5.2 -30.15 -5.2 -30.3" fill="url(#gradient51)" fill-rule="evenodd" stroke="none"/>
    <path d="M-5.15 -30.15 L-5.15 -30.1 -5.2 -30.1 -5.2 -30.15 -5.15 -30.15 M-5.15 -30.05 L-5.1 -29.9 -5.15 -29.95 -5.15 -30.05 M-5.1 -29.8 L-5.0 -29.5 -5.05 -29.55 -5.05 -29.6 -5.1 -29.7 -5.1 -29.8" fill="url(#gradient52)" fill-rule="evenodd" stroke="none"/>
    <path d="M-5.2 -30.65 L-5.2 -30.5 -5.25 -30.5 -5.2 -30.65" fill="url(#gradient53)" fill-rule="evenodd" stroke="none"/>
    <path d="M-5.15 -30.1 L-5.15 -30.05 -5.2 -30.1 -5.15 -30.1" fill="url(#gradient54)" fill-rule="evenodd" stroke="none"/>
    <path d="M-5.4 -30.1 L-5.5 -29.35 -5.8 -29.15 -5.85 -29.15 -5.9 -29.85 -5.4 -30.15 -5.4 -30.1" fill="url(#gradient55)" fill-rule="evenodd" stroke="none"/>
    <path d="M-7.75 -27.1 Q-7.85 -28.05 -7.55 -28.75 L-6.85 -29.7 -5.85 -29.15 -5.8 -29.15 -6.5 -28.55 -6.8 -28.5 -7.75 -27.1" fill="url(#gradient56)" fill-rule="evenodd" stroke="none"/>
    <path d="M-8.4 -25.15 L-8.1 -26.6 -7.75 -27.1 -6.8 -28.5 -6.5 -28.55 -6.5 -27.65 -5.85 -26.4 Q-6.85 -26.95 -7.35 -25.4 L-7.6 -25.5 -8.4 -25.15" fill="url(#gradient57)" fill-rule="evenodd" stroke="none"/>
    <path d="M-8.3 -20.1 L-8.65 -21.1 -8.45 -22.35 Q-6.0 -22.1 -5.6 -20.35 -7.05 -18.5 -8.3 -20.1" fill="url(#gradient58)" fill-rule="evenodd" stroke="none"/>
    <path d="M-7.7 -16.85 L-8.2 -17.85 -8.25 -19.45 Q-4.9 -18.65 -3.75 -17.05 -3.95 -14.75 -7.7 -16.85" fill="url(#gradient59)" fill-rule="evenodd" stroke="none"/>
    <path d="M-13.55 -24.65 Q-12.75 -22.55 -15.9 -22.3 L-15.15 -22.55 -14.6 -23.85 -14.0 -24.1 -13.7 -24.75 -13.55 -24.65" fill="url(#gradient60)" fill-rule="evenodd" stroke="none"/>
    <path d="M-5.1 -10.95 L-4.45 -9.95 -3.95 -9.7 -3.45 -8.9 -3.55 -8.9 Q-6.0 -8.85 -6.05 -11.9 L-5.85 -12.15 -5.1 -10.95" fill="url(#gradient61)" fill-rule="evenodd" stroke="none"/>
    <path d="M-3.95 -9.7 L-4.45 -9.95 -5.1 -10.95 -3.95 -9.7" fill="url(#gradient62)" fill-rule="evenodd" stroke="none"/>
    <path d="M-6.4 -12.05 L-5.9 -12.3 -5.85 -12.15 -6.05 -11.9 Q-7.6 -8.65 -3.55 -8.9 L-3.45 -8.9 -3.4 -8.8 -3.65 -8.6 -3.9 -8.4 Q-7.2 -8.25 -6.4 -12.0 L-6.4 -12.05" fill="url(#gradient63)" fill-rule="evenodd" stroke="none"/>
    <path d="M-3.45 -7.95 L-3.4 -8.7 -3.15 -8.55 -3.0 -7.55 -3.25 -7.3 -3.45 -6.75 -3.55 -7.1 -3.45 -7.7 -3.45 -7.95" fill="url(#gradient64)" fill-rule="evenodd" stroke="none"/>
    <path d="M-3.55 -8.0 L-3.45 -7.95 -3.45 -7.7 -3.55 -7.7 -3.55 -8.0" fill="url(#gradient65)" fill-rule="evenodd" stroke="none"/>
    <path d="M-6.65 -4.8 Q-9.25 -8.95 -8.8 -10.35 -8.05 -12.8 -6.4 -12.05 L-6.4 -12.0 -7.2 -11.35 Q-7.5 -11.5 -8.0 -10.15 L-7.95 -8.75 Q-5.85 -6.85 -4.1 -8.25 L-3.9 -8.4 -3.65 -8.6 -3.55 -8.0 -3.55 -7.7 -3.55 -7.3 -3.6 -7.25 -3.6 -7.2 -3.6 -7.1 -3.9 -6.3 -4.1 -6.85 -4.5 -6.1 -4.1 -5.6 -4.1 -5.3 -5.05 -5.95 -5.15 -5.1 -5.75 -4.7 -6.2 -5.55 -6.3 -5.65 -6.65 -4.8" fill="url(#gradient66)" fill-rule="evenodd" stroke="none"/>
    <path d="M-3.9 -8.4 L-4.1 -8.25 Q-7.85 -7.05 -7.2 -11.35 L-6.4 -12.0 Q-7.2 -8.25 -3.9 -8.4" fill="url(#gradient67)" fill-rule="evenodd" stroke="none"/>
    <path d="M-4.1 -5.6 L-4.5 -6.1 -4.1 -6.85 -3.9 -6.3 -4.1 -5.6" fill="url(#gradient68)" fill-rule="evenodd" stroke="none"/>
    <path d="M-3.6 -7.1 L-3.6 -7.2 -3.55 -7.25 -3.55 -7.3 -3.55 -7.7 -3.45 -7.7 -3.55 -7.1 -3.6 -7.1" fill="url(#gradient69)" fill-rule="evenodd" stroke="none"/>
    <path d="M-3.6 -7.25 L-3.55 -7.3 -3.55 -7.25 -3.6 -7.25" fill="url(#gradient70)" fill-rule="evenodd" stroke="none"/>
    <path d="M-6.05 -11.9 Q-6.0 -8.85 -3.55 -8.9 -7.6 -8.65 -6.05 -11.9 M-7.2 -11.35 Q-7.85 -7.05 -4.1 -8.25 -5.85 -6.85 -7.95 -8.75 L-8.0 -10.15 Q-7.5 -11.5 -7.2 -11.35" fill="url(#gradient71)" fill-rule="evenodd" stroke="none"/>
    <path d="M-3.9 -2.8 L-4.55 -2.95 -6.65 -4.8 -6.3 -5.65 -6.2 -5.55 -5.75 -4.7 -5.15 -5.1 -4.1 -4.65 -3.9 -2.8" fill="url(#gradient72)" fill-rule="evenodd" stroke="none"/>
    <path d="M-5.15 -5.1 L-5.05 -5.95 -4.1 -5.3 -4.1 -4.65 -5.15 -5.1" fill="url(#gradient73)" fill-rule="evenodd" stroke="none"/>
    <path d="M2.4 2.15 L2.4 2.5 2.45 2.8 2.45 2.9 2.4 3.6 1.65 4.35 1.3 4.6 0.65 4.8 0.6 4.8 0.15 4.85 -0.05 4.85 Q-1.35 4.6 -1.35 4.2 L-1.75 3.3 Q1.6 3.95 2.4 2.15 M3.9 7.65 L4.05 8.15 3.85 9.65 2.95 10.2 Q-0.15 10.5 -0.15 8.25 2.1 9.7 3.9 7.65 M1.95 -0.2 L1.9 0.5 1.6 0.95 1.35 1.2 0.35 1.75 -1.8 1.8 -1.85 1.8 -2.6 1.2 -2.75 0.85 Q-0.4 2.6 1.95 -0.2 M3.05 4.9 L3.25 5.3 3.3 6.15 2.6 7.05 Q0.75 8.0 -0.2 6.25 2.6 6.35 3.05 4.9 M-0.2 8.2 L-0.2 8.15 -0.2 8.1 -0.2 8.2" fill="url(#gradient74)" fill-rule="evenodd" stroke="none"/>
    <path d="M-1.8 3.3 L-1.8 3.2 -1.75 3.3 -1.8 3.3" fill="url(#gradient75)" fill-rule="evenodd" stroke="none"/>
    <path d="M2.4 2.5 L2.6 2.7 2.45 2.8 2.4 2.5 M-1.75 4.15 L-1.8 3.3 -1.75 3.3 -1.35 4.2 Q-1.35 4.6 -0.05 4.85 L-1.0 4.75 -1.75 4.15 M1.65 4.35 L2.4 3.6 2.45 2.9 2.6 3.3 2.3 3.85 1.65 4.35" fill="url(#gradient76)" fill-rule="evenodd" stroke="none"/>
    <path d="M2.6 2.7 L3.05 4.0 3.05 4.8 3.05 4.9 Q2.6 6.35 -0.2 6.25 L-0.3 6.2 -0.85 5.95 -1.3 5.45 -1.75 4.15 -1.0 4.75 -0.05 4.85 0.15 4.85 0.6 4.8 0.65 4.8 1.3 4.6 1.65 4.35 2.3 3.85 2.6 3.3 2.45 2.9 2.45 2.8 2.6 2.7" fill="url(#gradient77)" fill-rule="evenodd" stroke="none"/>
    <path d="M3.05 4.8 L3.5 5.4 Q2.95 8.55 -0.6 7.0 L-0.6 6.95 -0.65 6.9 -0.85 5.95 -0.3 6.2 -0.2 6.25 Q0.75 8.0 2.6 7.05 L3.3 6.15 3.25 5.3 3.05 4.9 3.05 4.8" fill="url(#gradient78)" fill-rule="evenodd" stroke="none"/>
    <path d="M-0.3 8.05 L-0.3 8.0 -0.2 8.1 -0.3 8.05 M-0.2 8.1 L-0.15 8.2 -0.2 8.2 -0.2 8.1" fill="url(#gradient79)" fill-rule="evenodd" stroke="none"/>
    <path d="M-0.3 8.05 L-0.2 8.1 -0.2 8.15 -0.3 8.05" fill="url(#gradient80)" fill-rule="evenodd" stroke="none"/>
    <path d="M3.5 5.4 L4.0 6.7 4.05 7.2 3.9 7.65 Q2.1 9.7 -0.15 8.25 L-0.15 8.2 -0.2 8.1 -0.3 8.0 -0.6 7.0 Q2.95 8.55 3.5 5.4" fill="url(#gradient81)" fill-rule="evenodd" stroke="none"/>
    <path d="M4.05 8.15 Q10.5 13.15 9.25 15.25 L8.1 15.5 7.25 16.15 Q-1.9 11.3 -0.3 8.05 L-0.2 8.15 -0.2 8.2 -0.15 8.2 -0.15 8.25 Q-0.15 10.5 2.95 10.2 L3.85 9.65 4.05 8.15" fill="url(#gradient82)" fill-rule="evenodd" stroke="none"/>
    <path d="M9.25 15.25 L7.25 16.15 8.1 15.5 9.25 15.25" fill="url(#gradient83)" fill-rule="evenodd" stroke="none"/>
  </g>
  <defs>
    <radialGradient cx="0" cy="0" gradientTransform="matrix(0.0038, 0.0, 0.0, 0.0038, 1.6, -54.0)" gradientUnits="userSpaceOnUse" id="gradient0" r="819.2" spreadMethod="pad">
      <stop offset="0.0" stop-color="#f3f3f3"/>
      <stop offset="1.0" stop-color="#858585"/>
    </radialGradient>
    <radialGradient cx="0" cy="0" gradientTransform="matrix(0.0088, 0.0, 0.0, 0.0088, 4.0, -48.3)" gradientUnits="userSpaceOnUse" id="gradient1" r="819.2" spreadMethod="pad">
      <stop offset="0.0" stop-color="#70c1f0"/>
      <stop offset="1.0" stop-color="#3a657e"/>
    </radialGradient>
    <radialGradient cx="0" cy="0" gradientTransform="matrix(0.0014, 0.0, 0.0, 0.0014, 0.15, -53.6)" gradientUnits="userSpaceOnUse" id="gradient2" r="819.2" spreadMethod="pad">
      <stop offset="0.0" stop-color="#acacac"/>
      <stop offset="1.0" stop-color="#9d9d9d"/>
    </radialGradient>
    <radialGradient cx="0" cy="0" gradientTransform="matrix(0.0072, 0.0, 0.0, 0.0072, -0.4, -49.9)" gradientUnits="userSpaceOnUse" id="gradient3" r="819.2" spreadMethod="pad">
      <stop offset="0.0" stop-color="#6ebceb"/>
      <stop offset="1.0" stop-color="#508aab"/>
    </radialGradient>
    <radialGradient cx="0" cy="0" gradientTransform="matrix(0.012, 0.0, 0.0, 0.012, 4.3, -49.1)" gradientUnits="userSpaceOnUse" id="gradient4" r="819.2" spreadMethod="pad">
      <stop offset="0.0" stop-color="#70c0ef"/>
      <stop offset="1.0" stop-color="#3c6780"/>
    </radialGradient>
    <radialGradient cx="0" cy="0" gradientTransform="matrix(0.0049, 0.0, 0.0, 0.0049, 5.25, -45.4)" gradientUnits="userSpaceOnUse" id="gradient5" r="819.2" spreadMethod="pad">
      <stop offset="0.0" stop-color="#6fbfed"/>
      <stop offset="1.0" stop-color="#508aab"/>
    </radialGradient>
    <radialGradient cx="0" cy="0" gradientTransform="matrix(0.0175, 0.0, 0.0, 0.0175, 5.65, -43.75)" gradientUnits="userSpaceOnUse" id="gradient6" r="819.2" spreadMethod="pad">
      <stop offset="0.0" stop-color="#3c4772"/>
      <stop offset="1.0" stop-color="#2b3453"/>
    </radialGradient>
    <radialGradient cx="0" cy="0" gradientTransform="matrix(0.0077, 0.0, 0.0, 0.0077, 0.8, -52.5)" gradientUnits="userSpaceOnUse" id="gradient7" r="819.2" spreadMethod="pad">
      <stop offset="0.0" stop-color="#6ebeec"/>
      <stop offset="1.0" stop-color="#4c83a3"/>
    </radialGradient>
    <radialGradient cx="0" cy="0" gradientTransform="matrix(0.0116, 0.0, 0.0, 0.0116, 1.15, -43.4)" gradientUnits="userSpaceOnUse" id="gradient8" r="819.2" spreadMethod="pad">
      <stop offset="0.0" stop-color="#6cbae8"/>
      <stop offset="1.0" stop-color="#4d84a5"/>
    </radialGradient>
    <radialGradient cx="0" cy="0" gradientTransform="matrix(0.0024, 0.0, 0.0, 0.0024, 3.8, -45.9)" gradientUnits="userSpaceOnUse" id="gradient9" r="819.2" spreadMethod="pad">
      <stop offset="0.0" stop-color="#2a3250"/>
      <stop offset="1.0" stop-color="#161a29"/>
    </radialGradient>
    <radialGradient cx="0" cy="0" gradientTransform="matrix(0.0092, 0.0, 0.0, 0.0092, 3.2, -47.65)" gradientUnits="userSpaceOnUse" id="gradient10" r="819.2" spreadMethod="pad">
      <stop offset="0.0" stop-color="#7c7c9a"/>
      <stop offset="1.0" stop-color="#525266"/>
    </radialGradient>
    <radialGradient cx="0" cy="0" gradientTransform="matrix(0.0011, 0.0, 0.0, 0.0011, 4.0, -44.35)" gradientUnits="userSpaceOnUse" id="gradient11" r="819.2" spreadMethod="pad">
      <stop offset="0.0" stop-color="#2d3656"/>
      <stop offset="1.0" stop-color="#28304d"/>
    </radialGradient>
    <radialGradient cx="0" cy="0" gradientTransform="matrix(0.0095, 0.0, 0.0, 0.0095, -0.35, -41.45)" gradientUnits="userSpaceOnUse" id="gradient12" r="819.2" spreadMethod="pad">
      <stop offset="0.0" stop-color="#a7a7d0"/>
      <stop offset="1.0" stop-color="#8989ab"/>
    </radialGradient>
    <radialGradient cx="0" cy="0" gradientTransform="matrix(0.024, 0.0, 0.0, 0.024, -3.4, -39.7)" gradientUnits="userSpaceOnUse" id="gradient13" r="819.2" spreadMethod="pad">
      <stop offset="0.0" stop-color="#3e4a76"/>
      <stop offset="1.0" stop-color="#1a1f31"/>
    </radialGradient>
    <radialGradient cx="0" cy="0" gradientTransform="matrix(0.0139, 0.0, 0.0, 0.0139, 4.4, -35.65)" gradientUnits="userSpaceOnUse" id="gradient14" r="819.2" spreadMethod="pad">
      <stop offset="0.0" stop-color="#adadd8"/>
      <stop offset="1.0" stop-color="#73738f"/>
    </radialGradient>
    <radialGradient cx="0" cy="0" gradientTransform="matrix(0.0147, 0.0, 0.0, 0.0147, 9.7, -32.3)" gradientUnits="userSpaceOnUse" id="gradient15" r="819.2" spreadMethod="pad">
      <stop offset="0.0" stop-color="#404c79"/>
      <stop offset="1.0" stop-color="#2b3352"/>
    </radialGradient>
    <radialGradient cx="0" cy="0" gradientTransform="matrix(0.0106, 0.0, 0.0, 0.0106, -6.05, -37.65)" gradientUnits="userSpaceOnUse" id="gradient16" r="819.2" spreadMethod="pad">
      <stop offset="0.0" stop-color="#ababd6"/>
      <stop offset="1.0" stop-color="#8181a1"/>
    </radialGradient>
    <radialGradient cx="0" cy="0" gradientTransform="matrix(9.0E-4, 0.0, 0.0, 9.0E-4, 1.75, -29.25)" gradientUnits="userSpaceOnUse" id="gradient17" r="819.2" spreadMethod="pad">
      <stop offset="0.0" stop-color="#777794"/>
      <stop offset="1.0" stop-color="#767694"/>
    </radialGradient>
    <radialGradient cx="0" cy="0" gradientTransform="matrix(0.0163, 0.0, 0.0, 0.0163, 3.8, -27.25)" gradientUnits="userSpaceOnUse" id="gradient18" r="819.2" spreadMethod="pad">
      <stop offset="0.0" stop-color="#a5a5ce"/>
      <stop offset="1.0" stop-color="#444454"/>
    </radialGradient>
    <radialGradient cx="0" cy="0" gradientTransform="matrix(0.0061, 0.0, 0.0, 0.0061, 3.45, -25.85)" gradientUnits="userSpaceOnUse" id="gradient19" r="819.2" spreadMethod="pad">
      <stop offset="0.0" stop-color="#7a7a98"/>
      <stop offset="1.0" stop-color="#62627a"/>
    </radialGradient>
    <radialGradient cx="0" cy="0" gradientTransform="matrix(0.0043, 0.0, 0.0, 0.0043, 13.4, -22.5)" gradientUnits="userSpaceOnUse" id="gradient20" r="819.2" spreadMethod="pad">
      <stop offset="0.0" stop-color="#424e7d"/>
      <stop offset="1.0" stop-color="#1f243b"/>
    </radialGradient>
    <radialGradient cx="0" cy="0" gradientTransform="matrix(0.0037, 0.0, 0.0, 0.0037, 13.1, -21.5)" gradientUnits="userSpaceOnUse" id="gradient21" r="819.2" spreadMethod="pad">
      <stop offset="0.0" stop-color="#b6b6e3"/>
      <stop offset="1.0" stop-color="#595970"/>
    </radialGradient>
    <radialGradient cx="0" cy="0" gradientTransform="matrix(0.0034, 0.0, 0.0, 0.0034, 1.45, -13.5)" gradientUnits="userSpaceOnUse" id="gradient22" r="819.2" spreadMethod="pad">
      <stop offset="0.0" stop-color="#9999bf"/>
      <stop offset="1.0" stop-color="#393946"/>
    </radialGradient>
    <radialGradient cx="0" cy="0" gradientTransform="matrix(0.0234, 0.0, 0.0, 0.0234, -4.6, -24.75)" gradientUnits="userSpaceOnUse" id="gradient23" r="819.2" spreadMethod="pad">
      <stop offset="0.0" stop-color="#b0b0dc"/>
      <stop offset="1.0" stop-color="#5c5c73"/>
    </radialGradient>
    <radialGradient cx="0" cy="0" gradientTransform="matrix(0.0041, 0.0, 0.0, 0.0041, 1.7, -14.65)" gradientUnits="userSpaceOnUse" id="gradient24" r="819.2" spreadMethod="pad">
      <stop offset="0.0" stop-color="#7c7c9b"/>
      <stop offset="1.0" stop-color="#4e4e61"/>
    </radialGradient>
    <radialGradient cx="0" cy="0" gradientTransform="matrix(0.0082, 0.0, 0.0, 0.0082, -1.05, -10.7)" gradientUnits="userSpaceOnUse" id="gradient25" r="819.2" spreadMethod="pad">
      <stop offset="0.0" stop-color="#9393b8"/>
      <stop offset="1.0" stop-color="#5d5d74"/>
    </radialGradient>
    <radialGradient cx="0" cy="0" gradientTransform="matrix(0.0122, 0.0, 0.0, 0.0122, -2.25, -7.9)" gradientUnits="userSpaceOnUse" id="gradient26" r="819.2" spreadMethod="pad">
      <stop offset="0.0" stop-color="#b3b3df"/>
      <stop offset="1.0" stop-color="#58586f"/>
    </radialGradient>
    <radialGradient cx="0" cy="0" gradientTransform="matrix(0.0044, 0.0, 0.0, 0.0044, 0.4, 1.65)" gradientUnits="userSpaceOnUse" id="gradient27" r="819.2" spreadMethod="pad">
      <stop offset="0.0" stop-color="#39436c"/>
      <stop offset="1.0" stop-color="#38436b"/>
    </radialGradient>
    <radialGradient cx="0" cy="0" gradientTransform="matrix(0.0042, 0.0, 0.0, 0.0042, 0.4, 1.65)" gradientUnits="userSpaceOnUse" id="gradient28" r="819.2" spreadMethod="pad">
      <stop offset="0.0" stop-color="#2d3554"/>
      <stop offset="1.0" stop-color="#222942"/>
    </radialGradient>
    <radialGradient cx="0" cy="0" gradientTransform="matrix(0.0065, 0.0, 0.0, 0.0065, -5.2, -52.2)" gradientUnits="userSpaceOnUse" id="gradient29" r="819.2" spreadMethod="pad">
      <stop offset="0.0" stop-color="#3d6982"/>
      <stop offset="1.0" stop-color="#243d4c"/>
    </radialGradient>
    <radialGradient cx="0" cy="0" gradientTransform="matrix(0.0092, 0.0, 0.0, 0.0092, -2.9, -51.95)" gradientUnits="userSpaceOnUse" id="gradient30" r="819.2" spreadMethod="pad">
      <stop offset="0.0" stop-color="#5ea1c9"/>
      <stop offset="1.0" stop-color="#375f76"/>
    </radialGradient>
    <radialGradient cx="0" cy="0" gradientTransform="matrix(0.0179, 0.0, 0.0, 0.0179, -29.0, -35.95)" gradientUnits="userSpaceOnUse" id="gradient31" r="819.2" spreadMethod="pad">
      <stop offset="0.0" stop-color="#bcbcbc"/>
      <stop offset="1.0" stop-color="#4e4e4e"/>
    </radialGradient>
    <radialGradient cx="0" cy="0" gradientTransform="matrix(0.0118, 0.0, 0.0, 0.0118, 1.75, -47.8)" gradientUnits="userSpaceOnUse" id="gradient32" r="819.2" spreadMethod="pad">
      <stop offset="0.0" stop-color="#6ebeec"/>
      <stop offset="1.0" stop-color="#3f6d88"/>
    </radialGradient>
    <radialGradient cx="0" cy="0" gradientTransform="matrix(0.0244, 0.0, 0.0, 0.0244, -9.55, -48.95)" gradientUnits="userSpaceOnUse" id="gradient33" r="819.2" spreadMethod="pad">
      <stop offset="0.0" stop-color="#ffffff"/>
      <stop offset="1.0" stop-color="#656565"/>
    </radialGradient>
    <radialGradient cx="0" cy="0" gradientTransform="matrix(0.0052, 0.0, 0.0, 0.0052, -6.0, -47.55)" gradientUnits="userSpaceOnUse" id="gradient34" r="819.2" spreadMethod="pad">
      <stop offset="0.0" stop-color="#538fb2"/>
      <stop offset="1.0" stop-color="#2e5063"/>
    </radialGradient>
    <radialGradient cx="0" cy="0" gradientTransform="matrix(0.003, 0.0, 0.0, 0.003, -9.55, -48.95)" gradientUnits="userSpaceOnUse" id="gradient35" r="819.2" spreadMethod="pad">
      <stop offset="0.0" stop-color="#979797"/>
      <stop offset="1.0" stop-color="#6a6a6a"/>
    </radialGradient>
    <radialGradient cx="0" cy="0" gradientTransform="matrix(0.0031, 0.0, 0.0, 0.0031, -5.8, -45.75)" gradientUnits="userSpaceOnUse" id="gradient36" r="819.2" spreadMethod="pad">
      <stop offset="0.0" stop-color="#6cbae7"/>
      <stop offset="1.0" stop-color="#508aac"/>
    </radialGradient>
    <radialGradient cx="0" cy="0" gradientTransform="matrix(0.0152, 0.0, 0.0, 0.0152, -7.25, -43.75)" gradientUnits="userSpaceOnUse" id="gradient37" r="819.2" spreadMethod="pad">
      <stop offset="0.0" stop-color="#ffffff"/>
      <stop offset="1.0" stop-color="#8c8c8c"/>
    </radialGradient>
    <radialGradient cx="0" cy="0" gradientTransform="matrix(0.017, 0.0, 0.0, 0.017, -4.4, -43.2)" gradientUnits="userSpaceOnUse" id="gradient38" r="819.2" spreadMethod="pad">
      <stop offset="0.0" stop-color="#a6a6cf"/>
      <stop offset="1.0" stop-color="#606078"/>
    </radialGradient>
    <radialGradient cx="0" cy="0" gradientTransform="matrix(0.0126, 0.0, 0.0, 0.0126, -10.45, -39.1)" gradientUnits="userSpaceOnUse" id="gradient39" r="819.2" spreadMethod="pad">
      <stop offset="0.0" stop-color="#3d4974"/>
      <stop offset="1.0" stop-color="#1d2237"/>
    </radialGradient>
    <radialGradient cx="0" cy="0" gradientTransform="matrix(0.0022, 0.0, 0.0, 0.0022, -0.35, -43.05)" gradientUnits="userSpaceOnUse" id="gradient40" r="819.2" spreadMethod="pad">
      <stop offset="0.0" stop-color="#3b4670"/>
      <stop offset="1.0" stop-color="#262d49"/>
    </radialGradient>
    <radialGradient cx="0" cy="0" gradientTransform="matrix(0.0023, 0.0, 0.0, 0.0023, -2.75, -43.1)" gradientUnits="userSpaceOnUse" id="gradient41" r="819.2" spreadMethod="pad">
      <stop offset="0.0" stop-color="#7a7a98"/>
      <stop offset="1.0" stop-color="#7a7a98"/>
    </radialGradient>
    <radialGradient cx="0" cy="0" gradientTransform="matrix(0.0056, 0.0, 0.0, 0.0056, -1.3, -40.25)" gradientUnits="userSpaceOnUse" id="gradient42" r="819.2" spreadMethod="pad">
      <stop offset="0.0" stop-color="#777795"/>
      <stop offset="1.0" stop-color="#6d6d88"/>
    </radialGradient>
    <radialGradient cx="0" cy="0" gradientTransform="matrix(0.0232, 0.0, 0.0, 0.0232, -15.35, -45.8)" gradientUnits="userSpaceOnUse" id="gradient43" r="819.2" spreadMethod="pad">
      <stop offset="0.0" stop-color="#ececec"/>
      <stop offset="1.0" stop-color="#6c6c6c"/>
    </radialGradient>
    <radialGradient cx="0" cy="0" gradientTransform="matrix(0.0098, 0.0, 0.0, 0.0098, -22.25, -36.4)" gradientUnits="userSpaceOnUse" id="gradient44" r="819.2" spreadMethod="pad">
      <stop offset="0.0" stop-color="#a5a5a5"/>
      <stop offset="1.0" stop-color="#5b5b5b"/>
    </radialGradient>
    <radialGradient cx="0" cy="0" gradientTransform="matrix(0.0074, 0.0, 0.0, 0.0074, -16.8, -33.95)" gradientUnits="userSpaceOnUse" id="gradient45" r="819.2" spreadMethod="pad">
      <stop offset="0.0" stop-color="#9d9d9d"/>
      <stop offset="1.0" stop-color="#7c7c7c"/>
    </radialGradient>
    <radialGradient cx="0" cy="0" gradientTransform="matrix(0.009, 0.0, 0.0, 0.009, -14.1, -35.15)" gradientUnits="userSpaceOnUse" id="gradient46" r="819.2" spreadMethod="pad">
      <stop offset="0.0" stop-color="#262d47"/>
      <stop offset="1.0" stop-color="#08090e"/>
    </radialGradient>
    <radialGradient cx="0" cy="0" gradientTransform="matrix(0.004, 0.0, 0.0, 0.004, -16.85, -25.4)" gradientUnits="userSpaceOnUse" id="gradient47" r="819.2" spreadMethod="pad">
      <stop offset="0.0" stop-color="#424e7d"/>
      <stop offset="1.0" stop-color="#1e243a"/>
    </radialGradient>
    <radialGradient cx="0" cy="0" gradientTransform="matrix(0.0101, 0.0, 0.0, 0.0101, -13.35, -31.5)" gradientUnits="userSpaceOnUse" id="gradient48" r="819.2" spreadMethod="pad">
      <stop offset="0.0" stop-color="#414c7a"/>
      <stop offset="1.0" stop-color="#1d2236"/>
    </radialGradient>
    <radialGradient cx="0" cy="0" gradientTransform="matrix(0.0036, 0.0, 0.0, 0.0036, -5.8, -32.05)" gradientUnits="userSpaceOnUse" id="gradient49" r="819.2" spreadMethod="pad">
      <stop offset="0.0" stop-color="#6ebdec"/>
      <stop offset="1.0" stop-color="#365d74"/>
    </radialGradient>
    <radialGradient cx="0" cy="0" gradientTransform="matrix(0.0019, 0.0, 0.0, 0.0019, -5.0, -29.5)" gradientUnits="userSpaceOnUse" id="gradient50" r="819.2" spreadMethod="pad">
      <stop offset="0.0" stop-color="#2b3352"/>
      <stop offset="1.0" stop-color="#242b45"/>
    </radialGradient>
    <radialGradient cx="0" cy="0" gradientTransform="matrix(0.0011, 0.0, 0.0, 0.0011, -5.2, -29.95)" gradientUnits="userSpaceOnUse" id="gradient51" r="819.2" spreadMethod="pad">
      <stop offset="0.0" stop-color="#2e3758"/>
      <stop offset="1.0" stop-color="#2a314f"/>
    </radialGradient>
    <radialGradient cx="0" cy="0" gradientTransform="matrix(0.0011, 0.0, 0.0, 0.0011, -5.25, -30.45)" gradientUnits="userSpaceOnUse" id="gradient52" r="819.2" spreadMethod="pad">
      <stop offset="0.0" stop-color="#08090e"/>
      <stop offset="1.0" stop-color="#08090e"/>
    </radialGradient>
    <radialGradient cx="0" cy="0" gradientTransform="matrix(8.0E-4, 0.0, 0.0, 8.0E-4, -5.1, -31.05)" gradientUnits="userSpaceOnUse" id="gradient53" r="819.2" spreadMethod="pad">
      <stop offset="0.0" stop-color="#0b0d15"/>
      <stop offset="1.0" stop-color="#08090e"/>
    </radialGradient>
    <radialGradient cx="0" cy="0" gradientTransform="matrix(9.0E-4, 0.0, 0.0, 9.0E-4, -5.25, -30.65)" gradientUnits="userSpaceOnUse" id="gradient54" r="819.2" spreadMethod="pad">
      <stop offset="0.0" stop-color="#08090e"/>
      <stop offset="1.0" stop-color="#08090e"/>
    </radialGradient>
    <radialGradient cx="0" cy="0" gradientTransform="matrix(0.0018, 0.0, 0.0, 0.0018, -5.6, -30.5)" gradientUnits="userSpaceOnUse" id="gradient55" r="819.2" spreadMethod="pad">
      <stop offset="0.0" stop-color="#5491b4"/>
      <stop offset="1.0" stop-color="#375e75"/>
    </radialGradient>
    <radialGradient cx="0" cy="0" gradientTransform="matrix(0.004, 0.0, 0.0, 0.004, -6.2, -29.75)" gradientUnits="userSpaceOnUse" id="gradient56" r="819.2" spreadMethod="pad">
      <stop offset="0.0" stop-color="#69b4e0"/>
      <stop offset="1.0" stop-color="#497e9c"/>
    </radialGradient>
    <radialGradient cx="0" cy="0" gradientTransform="matrix(0.0056, 0.0, 0.0, 0.0056, -3.95, -25.65)" gradientUnits="userSpaceOnUse" id="gradient57" r="819.2" spreadMethod="pad">
      <stop offset="0.0" stop-color="#a1a1c9"/>
      <stop offset="1.0" stop-color="#666680"/>
    </radialGradient>
    <radialGradient cx="0" cy="0" gradientTransform="matrix(0.0036, 0.0, 0.0, 0.0036, -5.85, -21.9)" gradientUnits="userSpaceOnUse" id="gradient58" r="819.2" spreadMethod="pad">
      <stop offset="0.0" stop-color="#3f4b78"/>
      <stop offset="1.0" stop-color="#232a43"/>
    </radialGradient>
    <radialGradient cx="0" cy="0" gradientTransform="matrix(0.0043, 0.0, 0.0, 0.0043, -4.85, -18.6)" gradientUnits="userSpaceOnUse" id="gradient59" r="819.2" spreadMethod="pad">
      <stop offset="0.0" stop-color="#414c7a"/>
      <stop offset="1.0" stop-color="#262d48"/>
    </radialGradient>
    <radialGradient cx="0" cy="0" gradientTransform="matrix(0.0026, 0.0, 0.0, 0.0026, -14.55, -24.0)" gradientUnits="userSpaceOnUse" id="gradient60" r="819.2" spreadMethod="pad">
      <stop offset="0.0" stop-color="#b1b1dc"/>
      <stop offset="1.0" stop-color="#515164"/>
    </radialGradient>
    <radialGradient cx="0" cy="0" gradientTransform="matrix(0.0039, 0.0, 0.0, 0.0039, -5.45, -11.3)" gradientUnits="userSpaceOnUse" id="gradient61" r="819.2" spreadMethod="pad">
      <stop offset="0.0" stop-color="#282f4b"/>
      <stop offset="1.0" stop-color="#1b2135"/>
    </radialGradient>
    <radialGradient cx="0" cy="0" gradientTransform="matrix(0.0023, 0.0, 0.0, 0.0023, -4.55, -10.1)" gradientUnits="userSpaceOnUse" id="gradient62" r="819.2" spreadMethod="pad">
      <stop offset="0.0" stop-color="#414d7b"/>
      <stop offset="1.0" stop-color="#414c7a"/>
    </radialGradient>
    <radialGradient cx="0" cy="0" gradientTransform="matrix(0.0042, 0.0, 0.0, 0.0042, -6.0, -9.05)" gradientUnits="userSpaceOnUse" id="gradient63" r="819.2" spreadMethod="pad">
      <stop offset="0.0" stop-color="#404c7a"/>
      <stop offset="1.0" stop-color="#404c79"/>
    </radialGradient>
    <radialGradient cx="0" cy="0" gradientTransform="matrix(0.0038, 0.0, 0.0, 0.0038, -2.8, -6.05)" gradientUnits="userSpaceOnUse" id="gradient64" r="819.2" spreadMethod="pad">
      <stop offset="0.0" stop-color="#7a7a99"/>
      <stop offset="1.0" stop-color="#797997"/>
    </radialGradient>
    <radialGradient cx="0" cy="0" gradientTransform="matrix(0.0018, 0.0, 0.0, 0.0018, -3.65, -8.2)" gradientUnits="userSpaceOnUse" id="gradient65" r="819.2" spreadMethod="pad">
      <stop offset="0.0" stop-color="#8383a4"/>
      <stop offset="1.0" stop-color="#8282a3"/>
    </radialGradient>
    <radialGradient cx="0" cy="0" gradientTransform="matrix(0.008, 0.0, 0.0, 0.008, -6.95, -10.6)" gradientUnits="userSpaceOnUse" id="gradient66" r="819.2" spreadMethod="pad">
      <stop offset="0.0" stop-color="#bdbdeb"/>
      <stop offset="1.0" stop-color="#4a4a5d"/>
    </radialGradient>
    <radialGradient cx="0" cy="0" gradientTransform="matrix(0.0044, 0.0, 0.0, 0.0044, -6.9, -10.25)" gradientUnits="userSpaceOnUse" id="gradient67" r="819.2" spreadMethod="pad">
      <stop offset="0.0" stop-color="#282f4c"/>
      <stop offset="1.0" stop-color="#181d2f"/>
    </radialGradient>
    <radialGradient cx="0" cy="0" gradientTransform="matrix(0.0025, 0.0, 0.0, 0.0025, -4.15, -7.0)" gradientUnits="userSpaceOnUse" id="gradient68" r="819.2" spreadMethod="pad">
      <stop offset="0.0" stop-color="#bcbcea"/>
      <stop offset="1.0" stop-color="#b6b6e4"/>
    </radialGradient>
    <radialGradient cx="0" cy="0" gradientTransform="matrix(0.0163, 0.0, 0.0, 0.0163, -8.2, -18.3)" gradientUnits="userSpaceOnUse" id="gradient69" r="819.2" spreadMethod="pad">
      <stop offset="0.0" stop-color="#5d5d73"/>
      <stop offset="1.0" stop-color="#15151a"/>
    </radialGradient>
    <radialGradient cx="0" cy="0" gradientTransform="matrix(0.0044, 0.0, 0.0, 0.0044, -3.95, -4.65)" gradientUnits="userSpaceOnUse" id="gradient70" r="819.2" spreadMethod="pad">
      <stop offset="0.0" stop-color="#15151a"/>
      <stop offset="1.0" stop-color="#15151a"/>
    </radialGradient>
    <radialGradient cx="0" cy="0" gradientTransform="matrix(0.0054, 0.0, 0.0, 0.0054, -7.15, -10.75)" gradientUnits="userSpaceOnUse" id="gradient71" r="819.2" spreadMethod="pad">
      <stop offset="0.0" stop-color="#6f6f8b"/>
      <stop offset="1.0" stop-color="#454555"/>
    </radialGradient>
    <radialGradient cx="0" cy="0" gradientTransform="matrix(0.0039, 0.0, 0.0, 0.0039, -4.55, -3.05)" gradientUnits="userSpaceOnUse" id="gradient72" r="819.2" spreadMethod="pad">
      <stop offset="0.0" stop-color="#c2c2f2"/>
      <stop offset="1.0" stop-color="#7d7d9d"/>
    </radialGradient>
    <radialGradient cx="0" cy="0" gradientTransform="matrix(0.0034, 0.0, 0.0, 0.0034, -3.15, -4.3)" gradientUnits="userSpaceOnUse" id="gradient73" r="819.2" spreadMethod="pad">
      <stop offset="0.0" stop-color="#bdbdec"/>
      <stop offset="1.0" stop-color="#9797bd"/>
    </radialGradient>
    <radialGradient cx="0" cy="0" gradientTransform="matrix(0.0138, 0.0, 0.0, 0.0138, 2.85, 10.1)" gradientUnits="userSpaceOnUse" id="gradient74" r="819.2" spreadMethod="pad">
      <stop offset="0.0" stop-color="#8f8fb2"/>
      <stop offset="1.0" stop-color="#57576d"/>
    </radialGradient>
    <radialGradient cx="0" cy="0" gradientTransform="matrix(0.0023, 0.0, 0.0, 0.0023, -0.9, 3.45)" gradientUnits="userSpaceOnUse" id="gradient75" r="819.2" spreadMethod="pad">
      <stop offset="0.0" stop-color="#08090e"/>
      <stop offset="1.0" stop-color="#08090e"/>
    </radialGradient>
    <radialGradient cx="0" cy="0" gradientTransform="matrix(0.0041, 0.0, 0.0, 0.0041, 1.15, 4.55)" gradientUnits="userSpaceOnUse" id="gradient76" r="819.2" spreadMethod="pad">
      <stop offset="0.0" stop-color="#3b4670"/>
      <stop offset="1.0" stop-color="#3a456f"/>
    </radialGradient>
    <radialGradient cx="0" cy="0" gradientTransform="matrix(0.0038, 0.0, 0.0, 0.0038, 1.15, 4.55)" gradientUnits="userSpaceOnUse" id="gradient77" r="819.2" spreadMethod="pad">
      <stop offset="0.0" stop-color="#2b3351"/>
      <stop offset="1.0" stop-color="#21263e"/>
    </radialGradient>
    <radialGradient cx="0" cy="0" gradientTransform="matrix(0.004, 0.0, 0.0, 0.004, 2.15, 7.25)" gradientUnits="userSpaceOnUse" id="gradient78" r="819.2" spreadMethod="pad">
      <stop offset="0.0" stop-color="#3d4873"/>
      <stop offset="1.0" stop-color="#3c4772"/>
    </radialGradient>
    <radialGradient cx="0" cy="0" gradientTransform="matrix(0.0022, 0.0, 0.0, 0.0022, 1.15, 8.85)" gradientUnits="userSpaceOnUse" id="gradient79" r="819.2" spreadMethod="pad">
      <stop offset="0.0" stop-color="#08090e"/>
      <stop offset="1.0" stop-color="#08090e"/>
    </radialGradient>
    <radialGradient cx="0" cy="0" gradientTransform="matrix(0.0111, 0.0, 0.0, 0.0111, -2.95, -0.35)" gradientUnits="userSpaceOnUse" id="gradient80" r="819.2" spreadMethod="pad">
      <stop offset="0.0" stop-color="#15151a"/>
      <stop offset="1.0" stop-color="#15151a"/>
    </radialGradient>
    <radialGradient cx="0" cy="0" gradientTransform="matrix(0.0038, 0.0, 0.0, 0.0038, 2.15, 7.25)" gradientUnits="userSpaceOnUse" id="gradient81" r="819.2" spreadMethod="pad">
      <stop offset="0.0" stop-color="#29314e"/>
      <stop offset="1.0" stop-color="#20263d"/>
    </radialGradient>
    <radialGradient cx="0" cy="0" gradientTransform="matrix(0.0087, 0.0, 0.0, 0.0087, 3.05, 11.6)" gradientUnits="userSpaceOnUse" id="gradient82" r="819.2" spreadMethod="pad">
      <stop offset="0.0" stop-color="#c2c2f2"/>
      <stop offset="1.0" stop-color="#a7a7d0"/>
    </radialGradient>
    <radialGradient cx="0" cy="0" gradientTransform="matrix(0.0031, 0.0, 0.0, 0.0031, 9.25, 15.1)" gradientUnits="userSpaceOnUse" id="gradient83" r="819.2" spreadMethod="pad">
      <stop offset="0.0" stop-color="#64647d"/>
      <stop offset="1.0" stop-color="#61617a"/>
    </radialGradient>
  </defs>
</svg>
