<?xml version="1.0" encoding="UTF-8" standalone="no"?>
<svg xmlns:ffdec="https://www.free-decompiler.com/flash" xmlns:xlink="http://www.w3.org/1999/xlink" ffdec:objectType="shape" height="72.75px" width="57.1px" xmlns="http://www.w3.org/2000/svg">
  <g transform="matrix(1.0, 0.0, 0.0, 1.0, 15.55, 55.95)">
    <path d="M5.15 -51.95 L4.4 -51.9 Q5.7 -51.4 5.5 -49.95 -1.75 -48.7 -3.1 -47.9 L-2.85 -48.55 Q-3.0 -51.5 -1.7 -53.25 L-0.55 -53.75 0.15 -53.8 Q2.7 -54.0 3.85 -53.2 L5.15 -51.95 M5.0 -49.35 Q6.15 -47.8 3.85 -45.55 L3.6 -44.75 2.6 -45.55 1.3 -46.35 -0.3 -46.05 -0.45 -46.5 5.0 -49.35 M-5.05 -49.85 L-4.6 -50.65 -4.9 -49.85 -5.05 -49.85 M-3.5 -46.55 L-3.4 -46.5 -3.45 -46.35 -3.5 -46.35 -3.5 -46.55 M-3.5 -46.15 L-3.6 -45.55 -3.6 -45.4 -4.4 -45.75 -3.75 -45.75 -3.5 -46.15" fill="url(#gradient0)" fill-rule="evenodd" stroke="none"/>
    <path d="M5.5 -49.95 Q5.7 -51.4 4.4 -51.9 L5.15 -51.95 Q5.25 -52.45 7.1 -49.75 L7.0 -47.8 6.85 -47.2 4.5 -44.1 3.6 -44.75 3.85 -45.55 Q6.15 -47.8 5.0 -49.35 L5.35 -49.6 5.45 -49.65 6.1 -50.05 5.5 -49.95" fill="url(#gradient1)" fill-rule="evenodd" stroke="none"/>
    <path d="M-3.1 -47.9 Q-1.75 -48.7 5.5 -49.95 L6.1 -50.05 5.45 -49.65 5.35 -49.6 5.0 -49.35 -0.45 -46.5 Q-3.45 -47.45 -3.4 -46.5 L-3.5 -46.55 -3.4 -47.15 -3.1 -47.9" fill="url(#gradient2)" fill-rule="evenodd" stroke="none"/>
    <path d="M30.5 -33.2 L30.2 -33.7 27.75 -36.0 29.1 -35.75 28.6 -36.45 36.1 -31.45 Q41.4 -27.65 41.55 -27.25 41.35 -26.85 40.05 -27.65 L30.5 -33.2" fill="url(#gradient3)" fill-rule="evenodd" stroke="none"/>
    <path d="M28.6 -36.45 L29.1 -35.75 27.75 -36.0 30.2 -33.7 30.5 -33.2 30.1 -32.9 29.4 -32.95 26.95 -33.75 22.5 -35.75 22.45 -35.8 20.8 -36.65 18.0 -39.9 16.2 -42.0 Q15.3 -42.45 13.65 -44.15 L13.45 -45.35 14.25 -45.85 Q15.1 -48.35 28.6 -36.45" fill="url(#gradient4)" fill-rule="evenodd" stroke="none"/>
    <path d="M18.0 -39.9 L20.8 -36.65 22.45 -35.8 22.5 -35.75 Q30.8 -21.85 20.4 -34.35 L19.75 -36.65 Q18.2 -39.05 18.0 -39.9" fill="url(#gradient5)" fill-rule="evenodd" stroke="none"/>
    <path d="M14.25 -45.85 L13.45 -45.35 13.65 -44.15 Q15.3 -42.45 16.2 -42.0 L18.0 -39.9 Q18.2 -39.05 19.75 -36.65 L20.4 -34.35 Q20.95 -28.7 17.35 -32.3 L13.4 -37.1 Q12.5 -41.45 10.6 -40.85 L9.6 -42.5 Q8.2 -43.8 7.8 -44.8 L7.55 -45.55 7.55 -45.6 7.45 -46.05 7.45 -46.2 7.4 -46.2 7.3 -47.2 7.3 -48.0 8.0 -48.5 9.85 -48.45 11.25 -48.05 12.7 -47.3 14.25 -45.85" fill="url(#gradient6)" fill-rule="evenodd" stroke="none"/>
    <path d="M11.25 -48.05 L9.85 -48.45 8.0 -48.5 8.8 -49.1 Q10.7 -48.6 11.25 -48.05" fill="url(#gradient7)" fill-rule="evenodd" stroke="none"/>
    <path d="M4.5 -44.1 L6.85 -47.2 7.0 -47.8 7.3 -47.2 7.4 -46.2 7.4 -46.05 7.4 -45.75 7.35 -45.55 Q7.5 -44.05 5.45 -43.6 L4.5 -44.1" fill="url(#gradient8)" fill-rule="evenodd" stroke="none"/>
    <path d="M7.4 -46.2 L7.45 -46.2 7.45 -46.05 7.4 -46.05 7.4 -46.2" fill="url(#gradient9)" fill-rule="evenodd" stroke="none"/>
    <path d="M7.55 -45.6 L7.55 -45.55 7.8 -44.8 7.0 -44.3 6.65 -43.15 5.45 -43.6 Q7.5 -44.05 7.35 -45.55 L7.4 -45.75 7.55 -45.6" fill="url(#gradient10)" fill-rule="evenodd" stroke="none"/>
    <path d="M7.8 -44.8 Q8.2 -43.8 9.6 -42.5 L10.6 -40.85 10.05 -40.85 Q9.5 -41.9 6.5 -42.95 L6.95 -43.1 6.65 -43.15 7.0 -44.3 7.8 -44.8 M13.45 -36.9 Q13.8 -36.9 14.5 -35.15 L14.65 -33.75 13.5 -36.15 13.45 -36.9" fill="url(#gradient11)" fill-rule="evenodd" stroke="none"/>
    <path d="M3.6 -44.75 L4.5 -44.1 5.45 -43.6 6.65 -43.15 6.95 -43.1 6.5 -42.95 5.5 -42.65 4.2 -42.65 2.9 -42.8 2.35 -42.9 2.3 -42.9 1.4 -43.15 -0.7 -44.0 -0.35 -45.55 -0.3 -46.05 1.3 -46.35 2.6 -45.55 3.6 -44.75" fill="url(#gradient12)" fill-rule="evenodd" stroke="none"/>
    <path d="M2.9 -42.8 L2.9 -42.6 1.9 -41.4 0.2 -40.5 -0.7 -40.05 -1.7 -39.9 -1.35 -41.6 Q1.45 -40.2 2.35 -42.9 L2.9 -42.8 M2.3 -42.9 L2.2 -42.7 Q1.15 -42.8 0.2 -42.3 L-1.15 -42.5 -0.7 -44.0 1.4 -43.15 2.3 -42.9 M-3.65 -44.0 L-3.6 -43.3 -3.65 -43.3 -3.9 -43.9 -4.4 -44.55 -4.45 -44.8 -4.55 -44.85 -4.55 -44.9 -4.6 -45.2 -4.75 -45.95 -4.6 -45.9 -4.25 -44.75 -3.65 -44.0 M-3.6 -43.25 L-3.5 -41.65 -3.6 -41.7 -4.2 -42.7 -4.2 -42.95 -4.25 -43.0 -4.25 -43.35 -3.7 -43.15 -3.65 -43.25 -3.6 -43.25" fill="url(#gradient13)" fill-rule="evenodd" stroke="none"/>
    <path d="M2.9 -42.8 L4.2 -42.65 3.7 -40.9 2.9 -40.35 Q1.4 -39.8 1.25 -40.0 L0.9 -40.05 0.45 -40.3 0.2 -40.5 1.9 -41.4 2.9 -42.6 2.9 -42.8" fill="url(#gradient14)" fill-rule="evenodd" stroke="none"/>
    <path d="M-4.85 -29.2 L-6.55 -30.5 -6.65 -30.55 -6.7 -30.65 -6.9 -30.95 -7.05 -31.0 -7.2 -31.1 -7.3 -31.1 -7.55 -32.1 Q-8.15 -33.55 -7.5 -35.2 L-7.5 -35.3 -7.45 -35.35 -7.4 -35.45 -6.65 -37.15 -6.55 -37.3 -6.55 -37.45 -5.85 -39.0 -3.6 -41.7 -3.5 -41.65 -3.0 -38.45 -3.4 -37.8 -5.25 -33.7 Q-6.35 -31.1 -1.95 -28.2 -1.25 -28.35 -0.7 -29.45 L2.1 -36.0 3.7 -40.9 4.2 -42.65 5.5 -42.65 5.8 -42.0 5.7 -40.85 5.3 -36.3 5.35 -33.7 5.3 -33.15 5.0 -30.65 4.65 -29.0 4.65 -28.85 4.7 -28.7 5.15 -28.95 5.4 -30.15 5.45 -30.4 5.55 -30.15 5.55 -29.85 5.35 -29.15 5.5 -29.2 5.7 -29.7 5.8 -29.7 5.8 -29.1 6.0 -28.7 6.85 -28.05 6.95 -27.7 6.85 -27.15 6.0 -25.55 Q2.75 -22.55 1.8 -22.2 L0.6 -20.35 0.1 -19.9 Q-1.05 -19.35 -2.65 -21.85 L-3.7 -24.45 -4.45 -25.75 -4.75 -26.2 -5.1 -27.4 -5.1 -27.7 -4.95 -28.55 -4.7 -29.0 -4.85 -29.2 M-4.7 -28.85 L-4.55 -28.6 -4.4 -28.65 -4.6 -28.95 -4.7 -28.85" fill="url(#gradient15)" fill-rule="evenodd" stroke="none"/>
    <path d="M0.45 -40.3 L0.9 -40.05 0.8 -39.9 -0.2 -37.75 1.25 -40.0 Q1.4 -39.8 2.9 -40.35 L3.7 -40.9 2.1 -36.0 1.8 -36.2 Q1.2 -34.85 0.4 -35.0 L0.15 -34.4 -0.2 -34.4 -0.45 -34.2 -0.65 -34.35 -0.85 -34.2 -0.45 -37.3 -0.2 -37.55 -0.25 -37.65 -0.35 -37.5 -0.35 -37.7 0.45 -40.3 M8.4 -39.7 Q7.85 -37.95 8.3 -37.15 L8.0 -36.0 6.8 -33.7 5.6 -30.6 5.5 -30.55 5.65 -31.7 Q5.75 -32.5 5.3 -33.15 L5.35 -33.7 5.3 -36.3 5.7 -40.85 6.45 -40.7 8.2 -39.9 8.4 -39.7 M4.65 -28.85 L4.65 -29.0 4.75 -28.95 4.65 -28.85" fill="url(#gradient16)" fill-rule="evenodd" stroke="none"/>
    <path d="M-1.15 -42.5 L0.2 -42.3 Q1.15 -42.8 2.2 -42.7 L2.3 -42.9 2.35 -42.9 Q1.45 -40.2 -1.35 -41.6 L-1.15 -42.5" fill="url(#gradient17)" fill-rule="evenodd" stroke="none"/>
    <path d="M0.2 -40.5 L0.45 -40.3 -0.35 -37.7 -0.35 -37.5 -0.25 -37.65 -0.2 -37.55 -0.45 -37.3 -0.85 -34.2 Q-3.1 -34.85 -3.05 -37.9 L-3.4 -37.8 -3.0 -38.45 Q-1.8 -32.35 -1.7 -39.9 L-0.7 -40.05 0.2 -40.5 M0.9 -40.05 L1.25 -40.0 -0.2 -37.75 0.8 -39.9 0.9 -40.05 M-4.45 -44.0 L-4.35 -43.65 -4.3 -43.6 -4.25 -43.35 -4.25 -43.0 -4.2 -42.95 -4.2 -42.7 -3.6 -41.7 -5.85 -39.0 -5.85 -41.85 Q-5.3 -41.95 -4.45 -44.0" fill="url(#gradient18)" fill-rule="evenodd" stroke="none"/>
    <path d="M14.95 -32.7 L15.35 -31.3 Q15.3 -28.6 11.5 -30.75 10.65 -31.9 10.2 -33.2 L8.9 -34.05 8.8 -34.8 8.0 -36.0 8.3 -37.15 Q7.85 -37.95 8.4 -39.7 9.1 -40.15 9.3 -40.8 L10.05 -40.85 10.6 -40.85 Q12.5 -41.45 13.4 -37.1 L13.45 -36.9 13.5 -36.15 14.65 -33.75 14.65 -33.7 14.95 -32.7" fill="url(#gradient19)" fill-rule="evenodd" stroke="none"/>
    <path d="M8.9 -34.05 L8.15 -32.9 7.3 -32.05 5.6 -30.6 6.8 -33.7 8.0 -36.0 8.8 -34.8 8.9 -34.05 M6.5 -42.95 Q9.5 -41.9 10.05 -40.85 L9.3 -40.8 Q9.1 -40.15 8.4 -39.7 L8.2 -39.9 6.45 -40.7 5.7 -40.85 5.8 -42.0 5.5 -42.65 6.5 -42.95" fill="url(#gradient20)" fill-rule="evenodd" stroke="none"/>
    <path d="M5.3 -33.15 Q5.75 -32.5 5.65 -31.7 L5.5 -30.55 5.45 -30.4 5.4 -30.15 5.15 -28.95 4.7 -28.7 4.65 -28.85 4.75 -28.95 4.65 -29.0 5.0 -30.65 5.3 -33.15 M-0.85 -34.2 L-0.65 -34.35 -0.45 -34.2 -0.2 -34.4 0.15 -34.4 0.4 -35.0 Q1.2 -34.85 1.8 -36.2 L2.1 -36.0 -0.7 -29.45 Q-1.25 -28.35 -1.95 -28.2 -6.35 -31.1 -5.25 -33.7 L-3.4 -37.8 -3.05 -37.9 Q-3.1 -34.85 -0.85 -34.2" fill="url(#gradient21)" fill-rule="evenodd" stroke="none"/>
    <path d="M7.3 -32.05 Q7.6 -31.75 7.3 -30.15 L6.75 -29.45 6.15 -29.0 6.1 -29.45 5.8 -29.7 5.7 -29.7 5.55 -30.15 5.45 -30.4 5.5 -30.55 5.6 -30.6 7.3 -32.05" fill="url(#gradient22)" fill-rule="evenodd" stroke="none"/>
    <path d="M5.55 -30.15 L5.7 -29.7 5.5 -29.2 5.35 -29.15 5.55 -29.85 5.55 -30.15" fill="url(#gradient23)" fill-rule="evenodd" stroke="none"/>
    <path d="M5.8 -29.7 L6.1 -29.45 6.15 -29.0 6.0 -28.7 5.8 -29.1 5.8 -29.7" fill="url(#gradient24)" fill-rule="evenodd" stroke="none"/>
    <path d="M6.75 -29.45 Q9.05 -28.45 8.4 -26.2 L7.3 -27.85 6.85 -28.05 6.0 -28.7 6.15 -29.0 6.75 -29.45" fill="url(#gradient25)" fill-rule="evenodd" stroke="none"/>
    <path d="M8.4 -26.2 L8.75 -24.6 Q7.55 -24.75 7.15 -25.9 L6.45 -25.95 6.0 -25.55 6.85 -27.15 6.95 -27.7 6.85 -28.05 7.3 -27.85 8.4 -26.2" fill="url(#gradient26)" fill-rule="evenodd" stroke="none"/>
    <path d="M8.75 -24.6 L8.9 -24.4 8.8 -21.8 8.75 -21.85 8.65 -22.05 8.2 -22.05 7.9 -21.85 Q5.55 -20.25 6.05 -19.7 L8.7 -19.75 8.6 -18.9 Q5.45 -18.3 4.2 -16.75 4.3 -14.2 8.1 -16.5 L6.25 -11.65 5.8 -10.9 5.8 -10.85 4.25 -8.85 4.15 -8.7 3.85 -8.2 3.55 -6.95 2.85 -5.9 2.55 -6.2 2.6 -6.75 2.55 -7.15 1.55 -7.2 Q2.0 -7.2 -0.7 -9.7 L-0.8 -9.75 -0.95 -10.2 -1.0 -12.35 -0.95 -13.6 -0.65 -16.85 0.1 -19.9 0.6 -20.35 1.8 -22.2 Q2.75 -22.55 6.0 -25.55 L6.45 -25.95 7.15 -25.9 Q7.55 -24.75 8.75 -24.6" fill="url(#gradient27)" fill-rule="evenodd" stroke="none"/>
    <path d="M17.35 -32.3 L17.3 -31.45 17.05 -31.1 16.6 -31.1 16.25 -31.25 14.95 -32.7 14.65 -33.7 14.65 -33.75 14.5 -35.15 Q13.8 -36.9 13.45 -36.9 L13.4 -37.1 17.35 -32.3" fill="url(#gradient28)" fill-rule="evenodd" stroke="none"/>
    <path d="M15.35 -31.3 L16.4 -29.6 16.7 -27.55 16.65 -27.0 16.85 -24.95 Q16.1 -23.35 15.05 -23.3 L14.4 -23.5 14.1 -24.1 14.0 -24.25 Q10.7 -28.9 11.5 -30.75 15.3 -28.6 15.35 -31.3" fill="url(#gradient29)" fill-rule="evenodd" stroke="none"/>
    <path d="M16.65 -27.0 Q19.2 -27.15 19.45 -23.9 18.8 -21.45 16.25 -21.7 L15.8 -21.85 15.4 -22.3 15.05 -23.3 Q16.1 -23.35 16.85 -24.95 L16.65 -27.0 M14.0 -24.05 L14.0 -24.25 14.1 -24.1 14.0 -24.05" fill="url(#gradient30)" fill-rule="evenodd" stroke="none"/>
    <path d="M16.25 -21.7 Q13.3 -21.7 14.0 -24.05 L14.1 -24.1 14.4 -23.5 15.05 -23.3 15.4 -22.3 15.8 -21.85 16.25 -21.7" fill="url(#gradient31)" fill-rule="evenodd" stroke="none"/>
    <path d="M8.8 -21.8 L8.95 -20.7 8.7 -19.75 6.05 -19.7 Q5.55 -20.25 7.9 -21.85 L8.2 -22.05 8.65 -22.05 8.75 -21.85 8.8 -21.8" fill="url(#gradient32)" fill-rule="evenodd" stroke="none"/>
    <path d="M8.6 -18.9 L8.7 -17.95 Q8.65 -17.2 8.1 -16.5 4.3 -14.2 4.2 -16.75 5.45 -18.3 8.6 -18.9" fill="url(#gradient33)" fill-rule="evenodd" stroke="none"/>
    <path d="M7.75 -10.6 L8.4 -10.0 Q9.3 -6.55 5.7 -7.15 8.05 -6.9 8.05 -10.0 L7.75 -10.6 M6.6 -11.1 L7.1 -10.75 7.25 -10.35 7.3 -10.0 7.1 -9.0 Q6.05 -7.2 4.15 -8.05 6.2 -8.1 6.6 -10.0 L6.7 -10.65 6.6 -11.1 M5.8 -10.85 L5.5 -9.85 5.45 -9.7 5.05 -9.3 4.25 -8.85 5.8 -10.85" fill="url(#gradient34)" fill-rule="evenodd" stroke="none"/>
    <path d="M6.9 -11.25 L7.1 -11.15 7.75 -10.6 8.05 -10.0 Q8.05 -6.9 5.7 -7.15 L4.75 -7.4 4.7 -7.4 4.65 -7.55 5.95 -7.7 7.1 -9.0 7.3 -10.0 7.25 -10.35 7.15 -10.85 6.9 -11.25" fill="url(#gradient35)" fill-rule="evenodd" stroke="none"/>
    <path d="M7.1 -11.15 Q11.7 -11.1 7.3 -3.9 6.9 -5.7 6.45 -3.8 L5.8 -4.15 5.8 -5.1 4.55 -4.3 4.65 -4.45 5.15 -5.2 Q4.8 -6.5 4.55 -5.45 L4.4 -5.65 4.2 -6.3 4.15 -7.0 4.3 -7.7 4.5 -7.6 4.55 -7.55 4.65 -7.55 4.7 -7.4 4.75 -7.4 5.7 -7.15 Q9.3 -6.55 8.4 -10.0 L7.75 -10.6 7.1 -11.15" fill="url(#gradient36)" fill-rule="evenodd" stroke="none"/>
    <path d="M6.45 -11.5 L6.9 -11.25 7.15 -10.85 7.25 -10.35 7.1 -10.75 6.6 -11.1 6.45 -11.5 M4.65 -7.55 L4.55 -7.55 4.5 -7.6 4.3 -7.7 4.0 -8.05 4.15 -8.05 Q6.05 -7.2 7.1 -9.0 L5.95 -7.7 4.65 -7.55" fill="url(#gradient37)" fill-rule="evenodd" stroke="none"/>
    <path d="M6.25 -11.65 L6.45 -11.5 6.6 -11.1 6.7 -10.65 6.6 -10.0 Q6.2 -8.1 4.15 -8.05 L4.0 -8.05 3.85 -8.15 3.85 -8.2 4.15 -8.7 5.05 -9.3 5.45 -9.7 5.5 -9.85 5.8 -10.85 5.8 -10.9 6.25 -11.65" fill="url(#gradient38)" fill-rule="evenodd" stroke="none"/>
    <path d="M5.8 -10.85 L5.8 -10.9 5.8 -10.85 M5.05 -9.3 L4.15 -8.7 4.25 -8.85 5.05 -9.3" fill="url(#gradient39)" fill-rule="evenodd" stroke="none"/>
    <path d="M-0.3 -6.55 L-0.7 -7.85 -0.9 -9.5 -0.8 -9.7 -0.7 -9.7 Q2.0 -7.2 1.55 -7.2 L2.55 -7.15 2.6 -6.75 2.55 -6.2 Q0.55 -2.45 -0.3 -6.55" fill="url(#gradient40)" fill-rule="evenodd" stroke="none"/>
    <path d="M3.85 -8.2 L3.85 -8.15 4.0 -6.9 4.0 -6.85 4.0 -6.6 4.0 -6.25 3.55 -6.95 3.85 -8.2" fill="url(#gradient41)" fill-rule="evenodd" stroke="none"/>
    <path d="M4.15 -7.0 L4.2 -6.3 4.0 -6.6 4.0 -6.85 4.05 -6.9 4.15 -7.0" fill="url(#gradient42)" fill-rule="evenodd" stroke="none"/>
    <path d="M4.35 -1.85 L4.05 -0.25 3.35 1.25 3.2 1.4 2.4 1.9 0.95 2.05 0.6 1.9 -0.35 1.7 Q-1.15 1.25 -1.35 0.4 L-1.45 0.25 -1.5 -3.15 Q-1.35 -5.05 -0.3 -6.55 0.55 -2.45 2.55 -6.2 L2.85 -5.9 3.55 -6.95 4.0 -6.25 4.0 -6.6 4.2 -6.3 4.4 -5.65 4.5 -5.3 4.65 -4.45 4.55 -4.3 4.55 -3.65 4.35 -1.85" fill="url(#gradient43)" fill-rule="evenodd" stroke="none"/>
    <path d="M4.0 -6.85 L4.0 -6.9 4.05 -6.9 4.0 -6.85" fill="url(#gradient44)" fill-rule="evenodd" stroke="none"/>
    <path d="M4.4 -5.65 L4.55 -5.45 4.5 -5.3 4.4 -5.65" fill="url(#gradient45)" fill-rule="evenodd" stroke="none"/>
    <path d="M4.55 -5.45 Q4.8 -6.5 5.15 -5.2 L4.65 -4.45 4.5 -5.3 4.55 -5.45" fill="url(#gradient46)" fill-rule="evenodd" stroke="none"/>
    <path d="M7.3 -3.9 L5.35 -2.2 4.35 -1.85 4.55 -3.65 5.8 -4.15 6.45 -3.8 Q6.9 -5.7 7.3 -3.9" fill="url(#gradient47)" fill-rule="evenodd" stroke="none"/>
    <path d="M4.55 -4.3 L5.8 -5.1 5.8 -4.15 4.55 -3.65 4.55 -4.3" fill="url(#gradient48)" fill-rule="evenodd" stroke="none"/>
    <path d="M2.35 3.85 L2.35 3.9 Q1.8 5.85 -0.25 5.35 L-0.35 5.3 Q-1.15 4.9 -1.9 3.9 L-1.85 3.2 -1.85 3.15 -1.8 2.85 Q0.55 4.85 2.35 3.85 M-3.45 8.85 L-3.3 8.35 Q0.15 10.6 0.75 8.75 L0.65 9.95 Q-0.05 10.7 -1.15 10.85 -4.15 10.8 -3.45 8.85 M3.2 1.4 L3.2 1.7 3.0 1.9 2.25 2.4 2.2 2.4 1.6 2.55 1.25 2.55 0.0 2.25 -0.5 1.9 Q-1.05 1.8 -1.35 0.95 L-1.35 0.4 Q-1.15 1.25 -0.35 1.7 L0.6 1.9 0.95 2.05 2.4 1.9 3.2 1.4 M0.9 6.8 Q-0.05 8.5 -1.7 7.8 -3.2 6.95 -2.4 5.6 -1.35 7.3 0.9 6.8" fill="url(#gradient49)" fill-rule="evenodd" stroke="none"/>
    <path d="M3.35 1.25 L3.25 1.7 3.2 1.9 2.85 2.2 2.25 2.4 3.0 1.9 3.2 1.7 3.2 1.4 3.35 1.25 M-1.6 0.85 L-1.45 0.25 -1.35 0.4 -1.35 0.95 Q-1.05 1.8 -0.5 1.9 L0.0 2.25 1.25 2.55 0.1 2.35 -0.8 1.9 -1.3 1.45 -1.6 0.85" fill="url(#gradient50)" fill-rule="evenodd" stroke="none"/>
    <path d="M3.25 1.7 L3.0 3.15 2.35 3.85 Q0.55 4.85 -1.8 2.85 L-1.95 2.4 -1.6 0.85 -1.3 1.45 -0.8 1.9 0.1 2.35 1.25 2.55 1.6 2.55 2.2 2.4 2.25 2.4 2.85 2.2 3.2 1.9 3.25 1.7" fill="url(#gradient51)" fill-rule="evenodd" stroke="none"/>
    <path d="M2.3 4.7 L2.05 5.75 1.75 6.25 1.4 6.6 0.9 6.8 Q-1.35 7.3 -2.4 5.6 L-2.45 5.45 -2.45 4.75 -2.1 3.65 -1.9 3.9 Q-1.15 4.9 -0.35 5.3 0.95 5.9 2.3 4.7" fill="url(#gradient52)" fill-rule="evenodd" stroke="none"/>
    <path d="M2.35 3.9 L2.3 4.7 Q0.95 5.9 -0.35 5.3 L-0.25 5.35 Q1.8 5.85 2.35 3.9 M-2.1 3.65 L-1.95 3.2 -1.85 3.2 -1.9 3.9 -2.1 3.65" fill="url(#gradient53)" fill-rule="evenodd" stroke="none"/>
    <path d="M1.4 6.6 L1.25 7.4 Q-1.35 9.45 -3.0 6.4 L-2.9 5.95 -2.45 5.45 -2.4 5.6 Q-3.2 6.95 -1.7 7.8 -0.05 8.5 0.9 6.8 L1.4 6.6" fill="url(#gradient54)" fill-rule="evenodd" stroke="none"/>
    <path d="M1.25 7.4 L0.85 8.6 0.75 8.75 Q0.15 10.6 -3.3 8.35 L-3.4 7.35 -3.0 6.4 Q-1.35 9.45 1.25 7.4" fill="url(#gradient55)" fill-rule="evenodd" stroke="none"/>
    <path d="M0.85 8.6 Q2.8 11.65 -6.55 16.8 L-7.35 16.2 -8.5 15.85 Q-9.8 13.65 -3.45 8.85 -4.15 10.8 -1.15 10.85 -0.05 10.7 0.65 9.95 L0.75 8.75 0.85 8.6" fill="url(#gradient56)" fill-rule="evenodd" stroke="none"/>
    <path d="M-9.3 -44.9 Q-11.15 -43.2 -11.2 -40.75 L-11.4 -42.6 Q-11.55 -43.3 -10.75 -45.95 L-9.35 -48.0 -6.55 -50.05 -5.05 -49.85 -4.9 -49.85 -5.05 -49.4 -4.95 -48.85 -6.65 -48.05 Q-8.0 -47.05 -8.9 -45.55 L-9.3 -44.9" fill="url(#gradient57)" fill-rule="evenodd" stroke="none"/>
    <path d="M0.15 -53.8 L-0.55 -53.75 -1.7 -53.25 -0.8 -54.5 0.15 -53.8 M-3.65 -52.45 L-3.45 -54.45 -2.95 -55.5 -2.0 -55.2 -1.35 -54.8 -2.75 -53.55 -3.65 -52.45" fill="url(#gradient58)" fill-rule="evenodd" stroke="none"/>
    <path d="M-1.7 -53.25 Q-3.0 -51.5 -2.85 -48.55 L-3.1 -47.9 -3.4 -47.15 -4.25 -48.35 -4.95 -48.85 -5.05 -49.4 -4.9 -49.85 -4.6 -50.65 -3.65 -52.45 -2.75 -53.55 -1.35 -54.8 0.85 -55.95 -0.8 -54.5 -1.7 -53.25" fill="url(#gradient59)" fill-rule="evenodd" stroke="none"/>
    <path d="M-4.95 -46.05 Q-7.4 -46.65 -9.9 -43.4 L-9.3 -44.9 -8.9 -45.55 Q-8.0 -47.05 -6.65 -48.05 L-4.95 -48.85 -4.25 -48.35 -3.4 -47.15 -3.5 -46.55 -3.5 -46.35 -3.5 -46.2 -3.5 -46.15 -3.75 -45.75 -4.4 -45.75 -4.45 -45.85 -4.6 -45.9 -4.75 -45.95 -4.8 -46.0 -4.95 -46.05" fill="url(#gradient60)" fill-rule="evenodd" stroke="none"/>
    <path d="M-3.6 -43.3 L-3.6 -43.25 -3.65 -43.25 -3.65 -43.3 -3.6 -43.3 M-3.45 -46.35 L-3.45 -46.2 -3.5 -46.2 -3.5 -46.35 -3.45 -46.35" fill="url(#gradient61)" fill-rule="evenodd" stroke="none"/>
    <path d="M-0.7 -44.0 L-1.15 -42.5 -1.35 -41.6 -1.7 -39.9 Q-1.8 -32.35 -3.0 -38.45 L-3.5 -41.65 -3.6 -43.25 -3.6 -43.3 -3.65 -44.0 -3.6 -45.4 -3.6 -45.55 -3.5 -46.15 -3.5 -46.2 -3.45 -46.2 -3.45 -46.35 -3.4 -46.5 Q-3.45 -47.45 -0.45 -46.5 L-0.3 -46.05 -0.35 -45.55 -0.7 -44.0" fill="url(#gradient62)" fill-rule="evenodd" stroke="none"/>
    <path d="M-4.95 -46.0 L-4.95 -46.05 -4.8 -46.0 -4.75 -45.95 -4.6 -45.2 -4.95 -46.0" fill="url(#gradient63)" fill-rule="evenodd" stroke="none"/>
    <path d="M-4.4 -45.75 L-3.6 -45.4 -3.65 -44.0 -4.25 -44.75 -4.6 -45.9 -4.45 -45.85 -4.4 -45.75" fill="url(#gradient64)" fill-rule="evenodd" stroke="none"/>
    <path d="M-4.55 -44.9 L-4.6 -45.2 -4.55 -44.9" fill="url(#gradient65)" fill-rule="evenodd" stroke="none"/>
    <path d="M-7.05 -31.0 L-7.05 -30.95 -7.2 -31.1 -7.05 -31.0 M-10.55 -32.3 L-9.9 -35.35 Q-8.05 -39.9 -7.5 -44.4 L-6.4 -45.75 -5.25 -46.05 -4.95 -46.0 -4.6 -45.2 -4.55 -44.9 -4.55 -44.85 -4.45 -44.8 -4.4 -44.55 -4.45 -44.0 Q-5.3 -41.95 -5.85 -41.85 L-5.85 -39.0 -6.55 -37.45 -6.55 -37.3 -6.65 -37.15 -7.4 -35.45 -7.45 -35.35 -7.5 -35.3 -7.5 -35.2 Q-8.15 -33.55 -7.55 -32.1 L-7.3 -31.1 Q-9.25 -31.35 -10.1 -32.4 L-10.55 -32.3" fill="url(#gradient66)" fill-rule="evenodd" stroke="none"/>
    <path d="M-4.4 -44.55 L-3.9 -43.9 -3.65 -43.3 -3.65 -43.25 -3.7 -43.15 -4.25 -43.35 -4.3 -43.6 -4.35 -43.65 -4.45 -44.0 -4.4 -44.55" fill="url(#gradient67)" fill-rule="evenodd" stroke="none"/>
    <path d="M-7.05 -30.95 Q-6.9 -28.3 -10.7 -22.75 L-11.25 -21.85 -11.95 -21.05 -13.25 -21.4 -13.45 -21.85 -13.65 -22.8 -13.4 -23.75 -13.05 -25.2 -12.9 -25.35 -13.0 -25.35 -12.8 -27.55 -11.3 -31.45 -10.55 -32.3 -10.1 -32.4 Q-9.25 -31.35 -7.3 -31.1 L-7.2 -31.1 -7.05 -30.95" fill="url(#gradient68)" fill-rule="evenodd" stroke="none"/>
    <path d="M-13.05 -25.2 L-13.0 -25.35 -12.9 -25.35 -13.05 -25.2" fill="url(#gradient69)" fill-rule="evenodd" stroke="none"/>
    <path d="M-5.0 -28.85 L-4.85 -29.2 -4.7 -29.0 -4.95 -28.55 -5.0 -28.85 M-5.1 -27.4 L-5.25 -27.55 -5.1 -27.7 -5.1 -27.4 M-4.75 -26.2 L-4.45 -25.75 -4.75 -25.9 -4.75 -26.2" fill="url(#gradient70)" fill-rule="evenodd" stroke="none"/>
    <path d="M-3.95 -14.4 Q-10.35 -23.35 -5.0 -28.85 L-4.95 -28.55 -5.1 -27.7 -5.25 -27.55 -5.1 -27.4 -4.75 -26.2 -4.75 -25.9 -4.45 -25.75 -3.7 -24.45 -2.65 -21.85 Q-1.05 -19.35 0.1 -19.9 L-0.65 -16.85 -0.95 -13.6 -2.35 -13.6 Q-3.4 -13.85 -3.95 -14.4" fill="url(#gradient71)" fill-rule="evenodd" stroke="none"/>
    <path d="M-4.7 -28.85 L-4.6 -28.95 -4.4 -28.65 -4.55 -28.6 -4.7 -28.85" fill="url(#gradient72)" fill-rule="evenodd" stroke="none"/>
    <path d="M-2.95 -12.6 L-3.65 -13.45 -3.65 -13.9 -3.95 -14.4 Q-3.4 -13.85 -2.35 -13.6 L-0.95 -13.6 -1.0 -12.35 -2.4 -12.15 -2.95 -12.6" fill="url(#gradient73)" fill-rule="evenodd" stroke="none"/>
    <path d="M-10.7 -22.75 Q-9.2 -19.2 -12.2 -18.45 -11.55 -19.45 -11.6 -20.05 L-11.95 -21.05 -11.25 -21.85 -10.7 -22.75 M-14.7 -19.1 Q-16.95 -22.3 -13.4 -23.75 L-13.65 -22.8 -13.45 -21.85 -13.25 -21.4 -14.1 -20.7 Q-14.9 -19.45 -14.7 -19.1" fill="url(#gradient74)" fill-rule="evenodd" stroke="none"/>
    <path d="M-12.2 -18.45 Q-14.0 -17.35 -14.7 -19.1 -14.9 -19.45 -14.1 -20.7 L-13.25 -21.4 -11.95 -21.05 -11.6 -20.05 Q-11.55 -19.45 -12.2 -18.45" fill="url(#gradient75)" fill-rule="evenodd" stroke="none"/>
    <path d="M-0.8 -9.7 L-0.8 -9.75 -0.7 -9.7 -0.8 -9.7" fill="url(#gradient76)" fill-rule="evenodd" stroke="none"/>
    <path d="M-0.95 -10.2 Q-1.8 -10.5 -2.6 -11.6 L-2.95 -12.6 -2.4 -12.15 -1.0 -12.35 -0.95 -10.2" fill="url(#gradient77)" fill-rule="evenodd" stroke="none"/>
    <path d="M-1.95 3.2 L-1.85 3.15 -1.85 3.2 -1.95 3.2" fill="url(#gradient78)" fill-rule="evenodd" stroke="none"/>
    <path d="M-6.55 16.8 L-8.5 15.85 -7.35 16.2 -6.55 16.8" fill="url(#gradient79)" fill-rule="evenodd" stroke="none"/>
  </g>
  <defs>
    <radialGradient cx="0" cy="0" gradientTransform="matrix(0.0077, 0.0, 0.0, 0.0077, 0.4, -49.6)" gradientUnits="userSpaceOnUse" id="gradient0" r="819.2" spreadMethod="pad">
      <stop offset="0.0" stop-color="#6ebdeb"/>
      <stop offset="1.0" stop-color="#4b81a1"/>
    </radialGradient>
    <radialGradient cx="0" cy="0" gradientTransform="matrix(0.0093, 0.0, 0.0, 0.0093, 3.0, -51.6)" gradientUnits="userSpaceOnUse" id="gradient1" r="819.2" spreadMethod="pad">
      <stop offset="0.0" stop-color="#5ea1c9"/>
      <stop offset="1.0" stop-color="#375f76"/>
    </radialGradient>
    <radialGradient cx="0" cy="0" gradientTransform="matrix(0.0078, 0.0, 0.0, 0.0078, 0.1, -48.0)" gradientUnits="userSpaceOnUse" id="gradient2" r="819.2" spreadMethod="pad">
      <stop offset="0.0" stop-color="#6ebdec"/>
      <stop offset="1.0" stop-color="#3e6b86"/>
    </radialGradient>
    <radialGradient cx="0" cy="0" gradientTransform="matrix(0.0182, 0.0, 0.0, 0.0182, 29.1, -35.4)" gradientUnits="userSpaceOnUse" id="gradient3" r="819.2" spreadMethod="pad">
      <stop offset="0.0" stop-color="#bcbcbc"/>
      <stop offset="1.0" stop-color="#4e4e4e"/>
    </radialGradient>
    <radialGradient cx="0" cy="0" gradientTransform="matrix(0.0234, 0.0, 0.0, 0.0234, 15.4, -45.4)" gradientUnits="userSpaceOnUse" id="gradient4" r="819.2" spreadMethod="pad">
      <stop offset="0.0" stop-color="#ececec"/>
      <stop offset="1.0" stop-color="#6e6e6e"/>
    </radialGradient>
    <radialGradient cx="0" cy="0" gradientTransform="matrix(0.01, 0.0, 0.0, 0.01, 22.35, -35.85)" gradientUnits="userSpaceOnUse" id="gradient5" r="819.2" spreadMethod="pad">
      <stop offset="0.0" stop-color="#a5a5a5"/>
      <stop offset="1.0" stop-color="#5b5b5b"/>
    </radialGradient>
    <radialGradient cx="0" cy="0" gradientTransform="matrix(0.0247, 0.0, 0.0, 0.0247, 9.6, -48.55)" gradientUnits="userSpaceOnUse" id="gradient6" r="819.2" spreadMethod="pad">
      <stop offset="0.0" stop-color="#ffffff"/>
      <stop offset="1.0" stop-color="#6b6b6b"/>
    </radialGradient>
    <radialGradient cx="0" cy="0" gradientTransform="matrix(0.0031, 0.0, 0.0, 0.0031, 9.6, -48.55)" gradientUnits="userSpaceOnUse" id="gradient7" r="819.2" spreadMethod="pad">
      <stop offset="0.0" stop-color="#979797"/>
      <stop offset="1.0" stop-color="#656565"/>
    </radialGradient>
    <radialGradient cx="0" cy="0" gradientTransform="matrix(0.0049, 0.0, 0.0, 0.0049, 6.1, -47.1)" gradientUnits="userSpaceOnUse" id="gradient8" r="819.2" spreadMethod="pad">
      <stop offset="0.0" stop-color="#538fb2"/>
      <stop offset="1.0" stop-color="#32566b"/>
    </radialGradient>
    <radialGradient cx="0" cy="0" gradientTransform="matrix(0.0154, 0.0, 0.0, 0.0154, 14.3, -36.25)" gradientUnits="userSpaceOnUse" id="gradient9" r="819.2" spreadMethod="pad">
      <stop offset="0.0" stop-color="#202020"/>
      <stop offset="1.0" stop-color="#202020"/>
    </radialGradient>
    <radialGradient cx="0" cy="0" gradientTransform="matrix(0.0031, 0.0, 0.0, 0.0031, 5.25, -44.65)" gradientUnits="userSpaceOnUse" id="gradient10" r="819.2" spreadMethod="pad">
      <stop offset="0.0" stop-color="#6ab7e4"/>
      <stop offset="1.0" stop-color="#497e9c"/>
    </radialGradient>
    <radialGradient cx="0" cy="0" gradientTransform="matrix(0.0154, 0.0, 0.0, 0.0154, 7.35, -43.3)" gradientUnits="userSpaceOnUse" id="gradient11" r="819.2" spreadMethod="pad">
      <stop offset="0.0" stop-color="#ffffff"/>
      <stop offset="1.0" stop-color="#8d8d8d"/>
    </radialGradient>
    <radialGradient cx="0" cy="0" gradientTransform="matrix(0.0118, 0.0, 0.0, 0.0118, -1.8, -47.55)" gradientUnits="userSpaceOnUse" id="gradient12" r="819.2" spreadMethod="pad">
      <stop offset="0.0" stop-color="#6ebeec"/>
      <stop offset="1.0" stop-color="#3f6e88"/>
    </radialGradient>
    <radialGradient cx="0" cy="0" gradientTransform="matrix(0.0107, 0.0, 0.0, 0.0107, -4.2, -48.0)" gradientUnits="userSpaceOnUse" id="gradient13" r="819.2" spreadMethod="pad">
      <stop offset="0.0" stop-color="#7d7d9c"/>
      <stop offset="1.0" stop-color="#48485a"/>
    </radialGradient>
    <radialGradient cx="0" cy="0" gradientTransform="matrix(0.0052, 0.0, 0.0, 0.0052, 2.1, -39.8)" gradientUnits="userSpaceOnUse" id="gradient14" r="819.2" spreadMethod="pad">
      <stop offset="0.0" stop-color="#777795"/>
      <stop offset="1.0" stop-color="#6d6d88"/>
    </radialGradient>
    <radialGradient cx="0" cy="0" gradientTransform="matrix(0.0241, 0.0, 0.0, 0.0241, 3.55, -39.3)" gradientUnits="userSpaceOnUse" id="gradient15" r="819.2" spreadMethod="pad">
      <stop offset="0.0" stop-color="#3e4a76"/>
      <stop offset="1.0" stop-color="#1a1f31"/>
    </radialGradient>
    <radialGradient cx="0" cy="0" gradientTransform="matrix(0.0116, 0.0, 0.0, 0.0116, 6.15, -37.25)" gradientUnits="userSpaceOnUse" id="gradient16" r="819.2" spreadMethod="pad">
      <stop offset="0.0" stop-color="#ababd6"/>
      <stop offset="1.0" stop-color="#757593"/>
    </radialGradient>
    <radialGradient cx="0" cy="0" gradientTransform="matrix(0.0036, 0.0, 0.0, 0.0036, -0.65, -42.65)" gradientUnits="userSpaceOnUse" id="gradient17" r="819.2" spreadMethod="pad">
      <stop offset="0.0" stop-color="#3b4670"/>
      <stop offset="1.0" stop-color="#252c47"/>
    </radialGradient>
    <radialGradient cx="0" cy="0" gradientTransform="matrix(0.0094, 0.0, 0.0, 0.0094, 0.5, -41.05)" gradientUnits="userSpaceOnUse" id="gradient18" r="819.2" spreadMethod="pad">
      <stop offset="0.0" stop-color="#a7a7d0"/>
      <stop offset="1.0" stop-color="#8989ab"/>
    </radialGradient>
    <radialGradient cx="0" cy="0" gradientTransform="matrix(0.0128, 0.0, 0.0, 0.0128, 10.5, -38.75)" gradientUnits="userSpaceOnUse" id="gradient19" r="819.2" spreadMethod="pad">
      <stop offset="0.0" stop-color="#3d4974"/>
      <stop offset="1.0" stop-color="#1d2237"/>
    </radialGradient>
    <radialGradient cx="0" cy="0" gradientTransform="matrix(0.017, 0.0, 0.0, 0.017, 4.5, -42.8)" gradientUnits="userSpaceOnUse" id="gradient20" r="819.2" spreadMethod="pad">
      <stop offset="0.0" stop-color="#a6a6cf"/>
      <stop offset="1.0" stop-color="#59596f"/>
    </radialGradient>
    <radialGradient cx="0" cy="0" gradientTransform="matrix(0.0139, 0.0, 0.0, 0.0139, -4.2, -35.25)" gradientUnits="userSpaceOnUse" id="gradient21" r="819.2" spreadMethod="pad">
      <stop offset="0.0" stop-color="#adadd8"/>
      <stop offset="1.0" stop-color="#73738f"/>
    </radialGradient>
    <radialGradient cx="0" cy="0" gradientTransform="matrix(0.0041, 0.0, 0.0, 0.0041, 6.15, -32.25)" gradientUnits="userSpaceOnUse" id="gradient22" r="819.2" spreadMethod="pad">
      <stop offset="0.0" stop-color="#6ab7e4"/>
      <stop offset="1.0" stop-color="#32566b"/>
    </radialGradient>
    <radialGradient cx="0" cy="0" gradientTransform="matrix(0.0013, 0.0, 0.0, 0.0013, 5.45, -29.4)" gradientUnits="userSpaceOnUse" id="gradient23" r="819.2" spreadMethod="pad">
      <stop offset="0.0" stop-color="#2b3352"/>
      <stop offset="1.0" stop-color="#242b45"/>
    </radialGradient>
    <radialGradient cx="0" cy="0" gradientTransform="matrix(0.0018, 0.0, 0.0, 0.0018, 5.75, -30.1)" gradientUnits="userSpaceOnUse" id="gradient24" r="819.2" spreadMethod="pad">
      <stop offset="0.0" stop-color="#4a809f"/>
      <stop offset="1.0" stop-color="#3a657e"/>
    </radialGradient>
    <radialGradient cx="0" cy="0" gradientTransform="matrix(0.0049, 0.0, 0.0, 0.0049, 5.3, -28.8)" gradientUnits="userSpaceOnUse" id="gradient25" r="819.2" spreadMethod="pad">
      <stop offset="0.0" stop-color="#6ab6e3"/>
      <stop offset="1.0" stop-color="#467997"/>
    </radialGradient>
    <radialGradient cx="0" cy="0" gradientTransform="matrix(0.0063, 0.0, 0.0, 0.0063, 5.2, -27.8)" gradientUnits="userSpaceOnUse" id="gradient26" r="819.2" spreadMethod="pad">
      <stop offset="0.0" stop-color="#9a9ac0"/>
      <stop offset="1.0" stop-color="#696982"/>
    </radialGradient>
    <radialGradient cx="0" cy="0" gradientTransform="matrix(0.0235, 0.0, 0.0, 0.0235, 4.8, -24.3)" gradientUnits="userSpaceOnUse" id="gradient27" r="819.2" spreadMethod="pad">
      <stop offset="0.0" stop-color="#b0b0dc"/>
      <stop offset="1.0" stop-color="#5c5c73"/>
    </radialGradient>
    <radialGradient cx="0" cy="0" gradientTransform="matrix(0.0075, 0.0, 0.0, 0.0075, 17.0, -33.35)" gradientUnits="userSpaceOnUse" id="gradient28" r="819.2" spreadMethod="pad">
      <stop offset="0.0" stop-color="#9d9d9d"/>
      <stop offset="1.0" stop-color="#7c7c7c"/>
    </radialGradient>
    <radialGradient cx="0" cy="0" gradientTransform="matrix(0.0102, 0.0, 0.0, 0.0102, 13.55, -31.0)" gradientUnits="userSpaceOnUse" id="gradient29" r="819.2" spreadMethod="pad">
      <stop offset="0.0" stop-color="#414c7a"/>
      <stop offset="1.0" stop-color="#1d2236"/>
    </radialGradient>
    <radialGradient cx="0" cy="0" gradientTransform="matrix(0.0039, 0.0, 0.0, 0.0039, 17.05, -24.8)" gradientUnits="userSpaceOnUse" id="gradient30" r="819.2" spreadMethod="pad">
      <stop offset="0.0" stop-color="#424e7d"/>
      <stop offset="1.0" stop-color="#20263d"/>
    </radialGradient>
    <radialGradient cx="0" cy="0" gradientTransform="matrix(0.0027, 0.0, 0.0, 0.0027, 14.85, -23.5)" gradientUnits="userSpaceOnUse" id="gradient31" r="819.2" spreadMethod="pad">
      <stop offset="0.0" stop-color="#b5b5e2"/>
      <stop offset="1.0" stop-color="#515164"/>
    </radialGradient>
    <radialGradient cx="0" cy="0" gradientTransform="matrix(0.0037, 0.0, 0.0, 0.0037, 6.05, -21.5)" gradientUnits="userSpaceOnUse" id="gradient32" r="819.2" spreadMethod="pad">
      <stop offset="0.0" stop-color="#3f4b78"/>
      <stop offset="1.0" stop-color="#232a43"/>
    </radialGradient>
    <radialGradient cx="0" cy="0" gradientTransform="matrix(0.0043, 0.0, 0.0, 0.0043, 5.1, -18.15)" gradientUnits="userSpaceOnUse" id="gradient33" r="819.2" spreadMethod="pad">
      <stop offset="0.0" stop-color="#414c7a"/>
      <stop offset="1.0" stop-color="#262d48"/>
    </radialGradient>
    <radialGradient cx="0" cy="0" gradientTransform="matrix(0.0047, 0.0, 0.0, 0.0047, 6.3, -10.6)" gradientUnits="userSpaceOnUse" id="gradient34" r="819.2" spreadMethod="pad">
      <stop offset="0.0" stop-color="#6f6f8b"/>
      <stop offset="1.0" stop-color="#474759"/>
    </radialGradient>
    <radialGradient cx="0" cy="0" gradientTransform="matrix(0.0043, 0.0, 0.0, 0.0043, 7.25, -9.5)" gradientUnits="userSpaceOnUse" id="gradient35" r="819.2" spreadMethod="pad">
      <stop offset="0.0" stop-color="#282f4c"/>
      <stop offset="1.0" stop-color="#181d2f"/>
    </radialGradient>
    <radialGradient cx="0" cy="0" gradientTransform="matrix(0.008, 0.0, 0.0, 0.008, 7.45, -9.75)" gradientUnits="userSpaceOnUse" id="gradient36" r="819.2" spreadMethod="pad">
      <stop offset="0.0" stop-color="#bdbdeb"/>
      <stop offset="1.0" stop-color="#4a4a5d"/>
    </radialGradient>
    <radialGradient cx="0" cy="0" gradientTransform="matrix(0.004, 0.0, 0.0, 0.004, 6.95, -8.8)" gradientUnits="userSpaceOnUse" id="gradient37" r="819.2" spreadMethod="pad">
      <stop offset="0.0" stop-color="#404c7a"/>
      <stop offset="1.0" stop-color="#404c79"/>
    </radialGradient>
    <radialGradient cx="0" cy="0" gradientTransform="matrix(0.0039, 0.0, 0.0, 0.0039, 5.8, -10.6)" gradientUnits="userSpaceOnUse" id="gradient38" r="819.2" spreadMethod="pad">
      <stop offset="0.0" stop-color="#282f4b"/>
      <stop offset="1.0" stop-color="#1b2135"/>
    </radialGradient>
    <radialGradient cx="0" cy="0" gradientTransform="matrix(0.0026, 0.0, 0.0, 0.0026, 5.5, -9.9)" gradientUnits="userSpaceOnUse" id="gradient39" r="819.2" spreadMethod="pad">
      <stop offset="0.0" stop-color="#414d7b"/>
      <stop offset="1.0" stop-color="#414d7a"/>
    </radialGradient>
    <radialGradient cx="0" cy="0" gradientTransform="matrix(0.0082, 0.0, 0.0, 0.0082, 1.35, -10.2)" gradientUnits="userSpaceOnUse" id="gradient40" r="819.2" spreadMethod="pad">
      <stop offset="0.0" stop-color="#9393b8"/>
      <stop offset="1.0" stop-color="#5f5f77"/>
    </radialGradient>
    <radialGradient cx="0" cy="0" gradientTransform="matrix(0.0038, 0.0, 0.0, 0.0038, 3.15, -5.45)" gradientUnits="userSpaceOnUse" id="gradient41" r="819.2" spreadMethod="pad">
      <stop offset="0.0" stop-color="#7a7a99"/>
      <stop offset="1.0" stop-color="#797997"/>
    </radialGradient>
    <radialGradient cx="0" cy="0" gradientTransform="matrix(0.0018, 0.0, 0.0, 0.0018, 4.15, -7.25)" gradientUnits="userSpaceOnUse" id="gradient42" r="819.2" spreadMethod="pad">
      <stop offset="0.0" stop-color="#8383a4"/>
      <stop offset="1.0" stop-color="#8282a3"/>
    </radialGradient>
    <radialGradient cx="0" cy="0" gradientTransform="matrix(0.0122, 0.0, 0.0, 0.0122, 2.6, -7.3)" gradientUnits="userSpaceOnUse" id="gradient43" r="819.2" spreadMethod="pad">
      <stop offset="0.0" stop-color="#b3b3df"/>
      <stop offset="1.0" stop-color="#58586f"/>
    </radialGradient>
    <radialGradient cx="0" cy="0" gradientTransform="matrix(0.0018, 0.0, 0.0, 0.0018, 3.4, -6.0)" gradientUnits="userSpaceOnUse" id="gradient44" r="819.2" spreadMethod="pad">
      <stop offset="0.0" stop-color="#1e1e26"/>
      <stop offset="1.0" stop-color="#15151a"/>
    </radialGradient>
    <radialGradient cx="0" cy="0" gradientTransform="matrix(0.0014, 0.0, 0.0, 0.0014, 4.2, -6.0)" gradientUnits="userSpaceOnUse" id="gradient45" r="819.2" spreadMethod="pad">
      <stop offset="0.0" stop-color="#c6c6f7"/>
      <stop offset="1.0" stop-color="#bebeee"/>
    </radialGradient>
    <radialGradient cx="0" cy="0" gradientTransform="matrix(0.0025, 0.0, 0.0, 0.0025, 4.7, -6.1)" gradientUnits="userSpaceOnUse" id="gradient46" r="819.2" spreadMethod="pad">
      <stop offset="0.0" stop-color="#bcbcea"/>
      <stop offset="1.0" stop-color="#b6b6e4"/>
    </radialGradient>
    <radialGradient cx="0" cy="0" gradientTransform="matrix(0.0039, 0.0, 0.0, 0.0039, 5.05, -2.2)" gradientUnits="userSpaceOnUse" id="gradient47" r="819.2" spreadMethod="pad">
      <stop offset="0.0" stop-color="#c2c2f2"/>
      <stop offset="1.0" stop-color="#6f6f8b"/>
    </radialGradient>
    <radialGradient cx="0" cy="0" gradientTransform="matrix(0.0034, 0.0, 0.0, 0.0034, 3.65, -3.4)" gradientUnits="userSpaceOnUse" id="gradient48" r="819.2" spreadMethod="pad">
      <stop offset="0.0" stop-color="#bdbdec"/>
      <stop offset="1.0" stop-color="#9797bd"/>
    </radialGradient>
    <radialGradient cx="0" cy="0" gradientTransform="matrix(0.0136, 0.0, 0.0, 0.0136, -2.4, 10.75)" gradientUnits="userSpaceOnUse" id="gradient49" r="819.2" spreadMethod="pad">
      <stop offset="0.0" stop-color="#8f8fb2"/>
      <stop offset="1.0" stop-color="#5b5b72"/>
    </radialGradient>
    <radialGradient cx="0" cy="0" gradientTransform="matrix(0.0051, 0.0, 0.0, 0.0051, -0.75, 1.85)" gradientUnits="userSpaceOnUse" id="gradient50" r="819.2" spreadMethod="pad">
      <stop offset="0.0" stop-color="#39436c"/>
      <stop offset="1.0" stop-color="#38436b"/>
    </radialGradient>
    <radialGradient cx="0" cy="0" gradientTransform="matrix(0.0042, 0.0, 0.0, 0.0042, 0.0, 2.25)" gradientUnits="userSpaceOnUse" id="gradient51" r="819.2" spreadMethod="pad">
      <stop offset="0.0" stop-color="#2d3554"/>
      <stop offset="1.0" stop-color="#222942"/>
    </radialGradient>
    <radialGradient cx="0" cy="0" gradientTransform="matrix(0.004, 0.0, 0.0, 0.004, -0.8, 5.45)" gradientUnits="userSpaceOnUse" id="gradient52" r="819.2" spreadMethod="pad">
      <stop offset="0.0" stop-color="#2b3351"/>
      <stop offset="1.0" stop-color="#21263e"/>
    </radialGradient>
    <radialGradient cx="0" cy="0" gradientTransform="matrix(0.0047, 0.0, 0.0, 0.0047, -1.4, 4.8)" gradientUnits="userSpaceOnUse" id="gradient53" r="819.2" spreadMethod="pad">
      <stop offset="0.0" stop-color="#3b4670"/>
      <stop offset="1.0" stop-color="#3b456f"/>
    </radialGradient>
    <radialGradient cx="0" cy="0" gradientTransform="matrix(0.0046, 0.0, 0.0, 0.0046, -2.35, 7.5)" gradientUnits="userSpaceOnUse" id="gradient54" r="819.2" spreadMethod="pad">
      <stop offset="0.0" stop-color="#3d4873"/>
      <stop offset="1.0" stop-color="#3c4772"/>
    </radialGradient>
    <radialGradient cx="0" cy="0" gradientTransform="matrix(0.004, 0.0, 0.0, 0.004, -1.8, 8.15)" gradientUnits="userSpaceOnUse" id="gradient55" r="819.2" spreadMethod="pad">
      <stop offset="0.0" stop-color="#29314e"/>
      <stop offset="1.0" stop-color="#20263d"/>
    </radialGradient>
    <radialGradient cx="0" cy="0" gradientTransform="matrix(0.0087, 0.0, 0.0, 0.0087, -2.6, 12.2)" gradientUnits="userSpaceOnUse" id="gradient56" r="819.2" spreadMethod="pad">
      <stop offset="0.0" stop-color="#c2c2f2"/>
      <stop offset="1.0" stop-color="#a7a7d0"/>
    </radialGradient>
    <radialGradient cx="0" cy="0" gradientTransform="matrix(0.013, 0.0, 0.0, 0.013, -3.55, -48.05)" gradientUnits="userSpaceOnUse" id="gradient57" r="819.2" spreadMethod="pad">
      <stop offset="0.0" stop-color="#6dbbe9"/>
      <stop offset="1.0" stop-color="#43728f"/>
    </radialGradient>
    <radialGradient cx="0" cy="0" gradientTransform="matrix(0.0033, 0.0, 0.0, 0.0033, -1.35, -53.4)" gradientUnits="userSpaceOnUse" id="gradient58" r="819.2" spreadMethod="pad">
      <stop offset="0.0" stop-color="#f3f3f3"/>
      <stop offset="1.0" stop-color="#898989"/>
    </radialGradient>
    <radialGradient cx="0" cy="0" gradientTransform="matrix(0.0078, 0.0, 0.0, 0.0078, -3.45, -51.3)" gradientUnits="userSpaceOnUse" id="gradient59" r="819.2" spreadMethod="pad">
      <stop offset="0.0" stop-color="#6fbeed"/>
      <stop offset="1.0" stop-color="#457693"/>
    </radialGradient>
    <radialGradient cx="0" cy="0" gradientTransform="matrix(0.0069, 0.0, 0.0, 0.0069, -6.1, -47.55)" gradientUnits="userSpaceOnUse" id="gradient60" r="819.2" spreadMethod="pad">
      <stop offset="0.0" stop-color="#6fbeed"/>
      <stop offset="1.0" stop-color="#4c83a4"/>
    </radialGradient>
    <radialGradient cx="0" cy="0" gradientTransform="matrix(0.0118, 0.0, 0.0, 0.0118, -3.75, -45.25)" gradientUnits="userSpaceOnUse" id="gradient61" r="819.2" spreadMethod="pad">
      <stop offset="0.0" stop-color="#0e181e"/>
      <stop offset="1.0" stop-color="#0e181e"/>
    </radialGradient>
    <radialGradient cx="0" cy="0" gradientTransform="matrix(0.0121, 0.0, 0.0, 0.0121, -2.05, -45.6)" gradientUnits="userSpaceOnUse" id="gradient62" r="819.2" spreadMethod="pad">
      <stop offset="0.0" stop-color="#6ebdec"/>
      <stop offset="1.0" stop-color="#467996"/>
    </radialGradient>
    <radialGradient cx="0" cy="0" gradientTransform="matrix(0.0038, 0.0, 0.0, 0.0038, -5.2, -47.7)" gradientUnits="userSpaceOnUse" id="gradient63" r="819.2" spreadMethod="pad">
      <stop offset="0.0" stop-color="#6d6d88"/>
      <stop offset="1.0" stop-color="#515165"/>
    </radialGradient>
    <radialGradient cx="0" cy="0" gradientTransform="matrix(0.0021, 0.0, 0.0, 0.0021, -3.7, -45.6)" gradientUnits="userSpaceOnUse" id="gradient64" r="819.2" spreadMethod="pad">
      <stop offset="0.0" stop-color="#2b3351"/>
      <stop offset="1.0" stop-color="#1d2236"/>
    </radialGradient>
    <radialGradient cx="0" cy="0" gradientTransform="matrix(0.0038, 0.0, 0.0, 0.0038, -5.2, -47.7)" gradientUnits="userSpaceOnUse" id="gradient65" r="819.2" spreadMethod="pad">
      <stop offset="0.0" stop-color="#15151a"/>
      <stop offset="1.0" stop-color="#15151a"/>
    </radialGradient>
    <radialGradient cx="0" cy="0" gradientTransform="matrix(0.0175, 0.0, 0.0, 0.0175, -5.45, -43.25)" gradientUnits="userSpaceOnUse" id="gradient66" r="819.2" spreadMethod="pad">
      <stop offset="0.0" stop-color="#3c4772"/>
      <stop offset="1.0" stop-color="#2b3453"/>
    </radialGradient>
    <radialGradient cx="0" cy="0" gradientTransform="matrix(0.0013, 0.0, 0.0, 0.0013, -3.85, -43.95)" gradientUnits="userSpaceOnUse" id="gradient67" r="819.2" spreadMethod="pad">
      <stop offset="0.0" stop-color="#2d3656"/>
      <stop offset="1.0" stop-color="#262d48"/>
    </radialGradient>
    <radialGradient cx="0" cy="0" gradientTransform="matrix(0.0146, 0.0, 0.0, 0.0146, -9.4, -31.8)" gradientUnits="userSpaceOnUse" id="gradient68" r="819.2" spreadMethod="pad">
      <stop offset="0.0" stop-color="#404c79"/>
      <stop offset="1.0" stop-color="#2b3352"/>
    </radialGradient>
    <radialGradient cx="0" cy="0" gradientTransform="matrix(0.0101, 0.0, 0.0, 0.0101, -13.05, -25.2)" gradientUnits="userSpaceOnUse" id="gradient69" r="819.2" spreadMethod="pad">
      <stop offset="0.0" stop-color="#242b44"/>
      <stop offset="1.0" stop-color="#08090e"/>
    </radialGradient>
    <radialGradient cx="0" cy="0" gradientTransform="matrix(0.006, 0.0, 0.0, 0.006, -3.15, -25.35)" gradientUnits="userSpaceOnUse" id="gradient70" r="819.2" spreadMethod="pad">
      <stop offset="0.0" stop-color="#7a7a98"/>
      <stop offset="1.0" stop-color="#66667f"/>
    </radialGradient>
    <radialGradient cx="0" cy="0" gradientTransform="matrix(0.0165, 0.0, 0.0, 0.0165, -3.5, -26.75)" gradientUnits="userSpaceOnUse" id="gradient71" r="819.2" spreadMethod="pad">
      <stop offset="0.0" stop-color="#a5a5ce"/>
      <stop offset="1.0" stop-color="#444454"/>
    </radialGradient>
    <radialGradient cx="0" cy="0" gradientTransform="matrix(0.0039, 0.0, 0.0, 0.0039, -4.55, -28.9)" gradientUnits="userSpaceOnUse" id="gradient72" r="819.2" spreadMethod="pad">
      <stop offset="0.0" stop-color="#232a43"/>
      <stop offset="1.0" stop-color="#08090e"/>
    </radialGradient>
    <radialGradient cx="0" cy="0" gradientTransform="matrix(0.0041, 0.0, 0.0, 0.0041, -1.3, -14.0)" gradientUnits="userSpaceOnUse" id="gradient73" r="819.2" spreadMethod="pad">
      <stop offset="0.0" stop-color="#7c7c9b"/>
      <stop offset="1.0" stop-color="#4e4e61"/>
    </radialGradient>
    <radialGradient cx="0" cy="0" gradientTransform="matrix(0.0041, 0.0, 0.0, 0.0041, -13.0, -21.8)" gradientUnits="userSpaceOnUse" id="gradient74" r="819.2" spreadMethod="pad">
      <stop offset="0.0" stop-color="#424e7d"/>
      <stop offset="1.0" stop-color="#1f243a"/>
    </radialGradient>
    <radialGradient cx="0" cy="0" gradientTransform="matrix(0.0037, 0.0, 0.0, 0.0037, -12.75, -21.0)" gradientUnits="userSpaceOnUse" id="gradient75" r="819.2" spreadMethod="pad">
      <stop offset="0.0" stop-color="#b6b6e3"/>
      <stop offset="1.0" stop-color="#595970"/>
    </radialGradient>
    <radialGradient cx="0" cy="0" gradientTransform="matrix(0.0126, 0.0, 0.0, 0.0126, -0.95, -10.25)" gradientUnits="userSpaceOnUse" id="gradient76" r="819.2" spreadMethod="pad">
      <stop offset="0.0" stop-color="#56566b"/>
      <stop offset="1.0" stop-color="#15151a"/>
    </radialGradient>
    <radialGradient cx="0" cy="0" gradientTransform="matrix(0.0035, 0.0, 0.0, 0.0035, -1.05, -12.8)" gradientUnits="userSpaceOnUse" id="gradient77" r="819.2" spreadMethod="pad">
      <stop offset="0.0" stop-color="#9999bf"/>
      <stop offset="1.0" stop-color="#393946"/>
    </radialGradient>
    <radialGradient cx="0" cy="0" gradientTransform="matrix(0.0062, 0.0, 0.0, 0.0062, 2.55, 3.0)" gradientUnits="userSpaceOnUse" id="gradient78" r="819.2" spreadMethod="pad">
      <stop offset="0.0" stop-color="#15151a"/>
      <stop offset="1.0" stop-color="#15151a"/>
    </radialGradient>
    <radialGradient cx="0" cy="0" gradientTransform="matrix(0.0031, 0.0, 0.0, 0.0031, -8.8, 15.7)" gradientUnits="userSpaceOnUse" id="gradient79" r="819.2" spreadMethod="pad">
      <stop offset="0.0" stop-color="#64647d"/>
      <stop offset="1.0" stop-color="#61617a"/>
    </radialGradient>
  </defs>
</svg>
