<?xml version="1.0" encoding="UTF-8" standalone="no"?>
<svg xmlns:ffdec="https://www.free-decompiler.com/flash" xmlns:xlink="http://www.w3.org/1999/xlink" ffdec:objectType="shape" height="66.45px" width="60.5px" xmlns="http://www.w3.org/2000/svg">
  <g transform="matrix(1.0, 0.0, 0.0, 1.0, 17.35, 56.85)">
    <path d="M2.95 -52.9 Q3.35 -53.05 4.9 -50.75 L4.95 -50.0 4.8 -48.8 4.4 -47.85 4.3 -47.55 2.3 -45.05 1.4 -45.7 1.65 -46.7 2.7 -47.85 3.05 -48.7 Q2.75 -48.4 2.75 -50.3 L3.85 -50.95 3.25 -50.85 Q3.55 -52.15 2.25 -52.85 L2.95 -52.9" fill="url(#gradient0)" fill-rule="evenodd" stroke="none"/>
    <path d="M0.6 -54.55 L1.3 -54.4 2.95 -52.9 2.25 -52.85 Q3.55 -52.15 3.25 -50.85 0.4 -49.9 -4.0 -49.35 L-5.5 -48.25 Q-4.9 -53.3 -3.9 -54.2 L-2.95 -54.65 -2.05 -54.75 -1.2 -54.85 0.6 -54.55 M-7.3 -50.8 L-6.85 -51.55 -7.15 -50.75 -7.3 -50.8 M-5.7 -47.4 L-5.55 -47.4 -5.7 -47.15 -5.75 -47.15 -5.7 -47.4 M-2.7 -47.4 L1.0 -49.2 2.75 -50.3 Q2.75 -48.4 3.05 -48.7 L2.7 -47.85 1.65 -46.7 1.4 -45.7 Q0.7 -46.45 -0.95 -47.25 L-2.5 -46.95 -2.7 -47.4 M-6.65 -46.75 L-5.95 -46.7 -5.75 -47.05 -5.85 -46.35 -6.65 -46.75" fill="url(#gradient1)" fill-rule="evenodd" stroke="none"/>
    <path d="M3.25 -50.85 L3.85 -50.95 2.75 -50.3 1.0 -49.2 -2.7 -47.4 -4.05 -47.5 -4.8 -47.85 -5.1 -47.85 -5.35 -47.8 -5.55 -47.4 -5.7 -47.4 -5.7 -47.85 -5.6 -48.05 -5.5 -48.25 -4.0 -49.35 Q0.4 -49.9 3.25 -50.85" fill="url(#gradient2)" fill-rule="evenodd" stroke="none"/>
    <path d="M12.7 -45.3 Q16.1 -46.6 28.55 -33.85 L28.75 -33.55 28.6 -33.5 27.3 -34.1 27.2 -33.95 30.45 -30.65 30.4 -30.15 30.2 -29.85 28.7 -30.2 21.55 -34.1 21.4 -34.2 19.95 -35.0 17.0 -38.45 15.05 -40.85 Q13.9 -41.6 12.2 -43.5 L11.95 -44.65 12.7 -45.3" fill="url(#gradient3)" fill-rule="evenodd" stroke="none"/>
    <path d="M28.55 -33.85 L39.75 -25.4 42.75 -22.7 43.15 -22.15 43.0 -22.05 Q42.0 -22.4 39.4 -24.1 L30.4 -30.15 30.45 -30.65 27.2 -33.95 27.3 -34.1 28.6 -33.5 28.75 -33.55 28.55 -33.85" fill="url(#gradient4)" fill-rule="evenodd" stroke="none"/>
    <path d="M21.55 -34.1 Q32.25 -16.1 19.95 -31.8 L19.2 -34.25 17.0 -38.45 19.95 -35.0 21.4 -34.2 21.55 -34.1" fill="url(#gradient5)" fill-rule="evenodd" stroke="none"/>
    <path d="M9.4 -47.75 L11.15 -46.85 12.7 -45.3 11.95 -44.65 12.2 -43.5 Q13.9 -41.6 15.05 -40.85 L17.0 -38.45 19.2 -34.25 19.95 -31.8 Q21.05 -25.6 17.05 -29.4 L11.35 -36.7 10.05 -38.3 Q8.45 -41.5 6.45 -43.75 L6.1 -44.5 5.95 -45.15 5.65 -46.3 5.7 -47.65 6.25 -48.15 8.05 -48.15 9.4 -47.75" fill="url(#gradient6)" fill-rule="evenodd" stroke="none"/>
    <path d="M6.85 -48.45 L7.25 -48.55 Q9.45 -48.0 9.4 -47.75 L8.05 -48.15 6.25 -48.15 6.85 -48.45" fill="url(#gradient7)" fill-rule="evenodd" stroke="none"/>
    <path d="M-2.05 -54.75 L-1.7 -55.6 Q-0.6 -55.4 0.6 -54.55 L-1.2 -54.85 -2.05 -54.75 M5.15 -47.1 L5.15 -47.75 5.3 -47.1 5.15 -47.1" fill="url(#gradient8)" fill-rule="evenodd" stroke="none"/>
    <path d="M2.3 -45.05 L4.3 -47.55 4.4 -47.85 4.8 -48.8 5.1 -48.0 5.15 -47.75 5.15 -47.1 5.15 -46.75 Q5.3 -44.95 3.15 -44.6 L2.3 -45.05" fill="url(#gradient9)" fill-rule="evenodd" stroke="none"/>
    <path d="M5.15 -46.75 L5.5 -46.4 5.85 -45.15 6.0 -44.5 5.95 -43.8 5.35 -43.85 4.4 -42.85 3.4 -43.6 4.7 -44.15 Q3.55 -44.2 3.15 -44.6 5.3 -44.95 5.15 -46.75 M3.15 -43.6 L3.0 -43.3 2.6 -43.15 2.6 -43.5 2.75 -43.6 3.15 -43.6" fill="url(#gradient10)" fill-rule="evenodd" stroke="none"/>
    <path d="M4.95 -50.0 L6.85 -48.45 6.25 -48.15 5.7 -47.65 5.1 -48.0 4.8 -48.8 4.95 -50.0" fill="url(#gradient11)" fill-rule="evenodd" stroke="none"/>
    <path d="M5.95 -45.15 L6.1 -44.5 6.0 -44.5 5.85 -45.15 5.95 -45.15" fill="url(#gradient12)" fill-rule="evenodd" stroke="none"/>
    <path d="M14.05 -30.6 L13.8 -30.1 13.3 -31.3 12.9 -31.75 13.1 -30.15 12.9 -28.95 11.95 -28.8 11.05 -29.5 10.25 -30.7 7.6 -34.75 7.9 -36.0 Q8.2 -36.65 7.65 -38.25 L6.45 -39.1 6.45 -40.2 6.25 -40.65 4.85 -41.55 Q4.05 -42.35 4.4 -42.85 L5.35 -43.85 5.95 -43.8 6.45 -43.75 Q8.45 -41.5 10.05 -38.3 L11.35 -36.7 11.8 -36.0 Q14.65 -32.45 14.05 -30.6 M12.85 -32.4 L12.3 -33.6 12.85 -31.8 12.85 -32.4" fill="url(#gradient13)" fill-rule="evenodd" stroke="none"/>
    <path d="M0.1 -43.85 Q-0.55 -41.25 -3.55 -42.55 L-3.35 -43.45 -2.05 -43.25 Q-2.05 -43.5 0.1 -43.85" fill="url(#gradient14)" fill-rule="evenodd" stroke="none"/>
    <path d="M1.4 -45.7 L2.3 -45.05 3.15 -44.6 Q3.55 -44.2 4.7 -44.15 L3.4 -43.6 3.15 -43.6 2.75 -43.6 2.55 -43.6 1.4 -43.6 0.65 -43.75 0.1 -43.85 -0.85 -44.1 -2.9 -44.95 -2.5 -46.95 -0.95 -47.25 Q0.7 -46.45 1.4 -45.7" fill="url(#gradient15)" fill-rule="evenodd" stroke="none"/>
    <path d="M-2.0 -41.5 L-0.55 -42.2 0.5 -43.3 0.65 -43.75 1.4 -43.6 -0.1 -41.4 -1.2 -41.25 -1.85 -41.4 -2.0 -41.5" fill="url(#gradient16)" fill-rule="evenodd" stroke="none"/>
    <path d="M-6.4 -43.85 L-6.5 -44.35 -5.9 -44.15 -5.85 -44.15 -5.75 -42.65 -6.25 -43.45 -6.4 -43.75 -6.4 -43.85 M-6.65 -45.45 L-6.7 -45.8 -6.75 -45.85 -6.75 -45.95 -6.8 -46.2 -7.0 -46.9 -6.8 -46.85 -6.7 -46.1 -5.85 -44.9 -5.85 -44.3 -5.9 -44.3 -6.15 -44.95 -6.65 -45.45 M0.65 -43.75 L0.5 -43.3 -0.55 -42.2 -2.0 -41.5 -2.5 -41.2 -3.15 -40.9 -3.95 -40.9 -3.55 -42.55 Q-0.55 -41.25 0.1 -43.85 L0.65 -43.75 M-2.9 -44.95 L-0.85 -44.1 0.1 -43.85 Q-2.05 -43.5 -2.05 -43.25 L-3.35 -43.45 -2.9 -44.95" fill="url(#gradient17)" fill-rule="evenodd" stroke="none"/>
    <path d="M4.4 -42.85 Q4.05 -42.35 4.85 -41.55 L6.25 -40.65 6.45 -40.2 6.45 -39.1 4.95 -39.35 3.7 -39.05 3.55 -39.55 Q2.65 -40.65 2.05 -40.75 L2.05 -41.1 2.05 -41.15 2.7 -42.2 2.6 -43.15 3.0 -43.3 3.15 -43.6 3.4 -43.6 4.4 -42.85 M0.95 -30.35 L1.1 -30.65 1.0 -30.35 0.95 -30.35 M1.15 -30.8 L0.9 -31.5 1.1 -32.1 1.3 -31.35 1.15 -30.8" fill="url(#gradient18)" fill-rule="evenodd" stroke="none"/>
    <path d="M2.75 -43.6 L2.6 -43.5 2.55 -43.6 2.75 -43.6" fill="url(#gradient19)" fill-rule="evenodd" stroke="none"/>
    <path d="M-7.7 -31.3 L-8.1 -32.3 -9.35 -33.55 Q-13.95 -37.75 -7.15 -42.7 L-6.25 -43.45 -5.75 -42.65 -5.6 -41.55 -6.25 -40.9 -9.3 -37.85 -9.8 -36.0 -9.65 -35.15 -9.2 -34.15 -8.05 -32.7 -7.35 -31.9 -7.2 -32.95 -6.4 -34.1 -3.35 -37.45 -0.75 -40.45 -0.1 -41.4 1.4 -43.6 2.55 -43.6 2.6 -43.5 2.6 -43.15 2.7 -42.2 2.05 -41.15 2.05 -41.1 Q0.85 -40.4 -0.85 -36.0 L-1.2 -35.2 -1.2 -34.4 -2.45 -31.15 -2.7 -30.9 -2.65 -30.45 -2.8 -30.0 -2.7 -29.6 -2.65 -29.3 -0.25 -29.35 0.1 -29.3 0.75 -29.6 0.3 -28.1 -0.05 -28.05 0.3 -28.05 -0.25 -25.5 -0.4 -25.5 -0.95 -24.65 -1.65 -24.4 -1.85 -24.35 -2.5 -24.15 -2.5 -24.1 -2.95 -23.8 -3.55 -23.0 -3.75 -22.15 -3.65 -22.05 -3.55 -21.9 Q-5.25 -22.0 -6.25 -24.15 L-6.65 -24.75 Q-7.0 -28.85 -7.7 -29.15 L-7.8 -30.35 -7.7 -30.5 -7.65 -30.5 -7.7 -30.6 -7.7 -31.3" fill="url(#gradient20)" fill-rule="evenodd" stroke="none"/>
    <path d="M2.05 -41.15 L2.05 -41.1 2.05 -41.15" fill="url(#gradient21)" fill-rule="evenodd" stroke="none"/>
    <path d="M-3.15 -40.9 L-2.5 -41.2 -3.8 -39.85 -1.85 -41.4 -1.2 -41.25 -0.1 -41.4 -0.75 -40.45 -3.35 -37.45 -4.3 -36.85 -4.05 -39.85 -3.15 -40.9 M2.05 -41.1 L2.05 -40.75 Q2.65 -40.65 3.55 -39.55 L3.7 -39.05 2.45 -37.45 Q2.35 -36.25 2.05 -36.0 1.2 -34.9 1.2 -34.1 L1.1 -32.1 0.9 -31.5 1.15 -30.8 1.1 -30.65 0.95 -30.35 0.8 -29.95 0.1 -29.3 -0.25 -29.35 0.15 -29.8 0.15 -30.3 -1.65 -29.7 -1.65 -29.8 -1.45 -30.25 Q-1.0 -30.35 -0.85 -31.45 L-1.85 -30.15 -1.85 -31.1 -2.65 -30.45 -2.7 -30.9 -2.45 -31.15 -1.2 -34.4 -1.2 -35.2 -0.85 -36.0 Q0.85 -40.4 2.05 -41.1 M-4.8 -37.75 L-4.45 -36.75 -4.6 -36.8 -4.75 -36.55 -5.2 -36.55 -4.8 -37.75" fill="url(#gradient22)" fill-rule="evenodd" stroke="none"/>
    <path d="M7.6 -34.75 L7.45 -33.95 5.95 -31.75 5.55 -30.0 4.65 -27.2 3.0 -23.1 2.95 -23.0 2.9 -22.85 1.6 -23.55 1.15 -24.15 Q0.55 -23.9 -0.25 -25.5 L0.3 -28.05 0.3 -28.1 0.75 -29.6 1.0 -30.35 1.1 -30.65 1.15 -30.8 1.3 -31.35 1.1 -32.1 1.2 -34.1 Q1.2 -34.9 2.05 -36.0 2.35 -36.25 2.45 -37.45 L3.7 -39.05 4.95 -39.35 6.45 -39.1 7.65 -38.25 Q8.2 -36.65 7.9 -36.0 L7.6 -34.75" fill="url(#gradient23)" fill-rule="evenodd" stroke="none"/>
    <path d="M-1.45 -30.25 L-1.65 -29.8 -1.65 -29.7 0.15 -30.3 0.15 -29.8 -0.25 -29.35 -2.65 -29.3 -2.7 -29.6 -1.95 -29.85 -1.45 -30.25 M0.1 -29.3 L0.8 -29.95 0.95 -30.35 1.0 -30.35 0.75 -29.6 0.1 -29.3 M-6.25 -40.9 L-5.85 -40.85 -5.85 -40.65 -6.5 -39.85 -6.2 -39.1 -6.2 -38.15 Q-5.95 -37.05 -5.45 -37.15 L-5.25 -36.55 -5.9 -36.0 -7.05 -34.35 -7.2 -32.95 -7.35 -31.9 -8.05 -32.7 -8.45 -33.85 -9.2 -34.15 -9.65 -35.15 -9.8 -36.0 -9.3 -37.85 -6.25 -40.9 M-3.75 -22.15 L-3.55 -23.0 -2.95 -23.8 -3.25 -22.2 -3.75 -22.15" fill="url(#gradient24)" fill-rule="evenodd" stroke="none"/>
    <path d="M0.3 -28.1 L0.3 -28.05 -0.05 -28.05 0.3 -28.1" fill="url(#gradient25)" fill-rule="evenodd" stroke="none"/>
    <path d="M5.55 -30.0 Q7.35 -27.5 5.15 -25.7 L4.9 -26.85 4.65 -27.2 5.55 -30.0" fill="url(#gradient26)" fill-rule="evenodd" stroke="none"/>
    <path d="M5.15 -25.7 Q5.45 -25.55 5.3 -24.0 L4.9 -23.0 4.85 -22.9 3.25 -22.85 3.0 -23.1 4.65 -27.2 4.9 -26.85 5.15 -25.7 M-2.5 -24.1 L-2.5 -24.15 -1.85 -24.35 -2.05 -24.15 -2.25 -23.75 -2.5 -24.1 M-1.65 -24.4 L-0.95 -24.65 -1.2 -24.3 -1.65 -24.4" fill="url(#gradient27)" fill-rule="evenodd" stroke="none"/>
    <path d="M17.05 -29.4 Q17.05 -25.65 14.05 -30.6 14.65 -32.45 11.8 -36.0 L11.35 -36.7 17.05 -29.4" fill="url(#gradient28)" fill-rule="evenodd" stroke="none"/>
    <path d="M13.8 -30.1 Q16.45 -18.1 10.25 -30.7 L11.05 -29.5 11.95 -28.8 12.9 -28.95 13.1 -30.15 12.9 -31.75 13.3 -31.3 13.8 -30.1 M12.85 -32.4 L12.85 -31.8 12.3 -33.6 12.85 -32.4" fill="url(#gradient29)" fill-rule="evenodd" stroke="none"/>
    <path d="M4.9 -23.0 L5.15 -21.75 5.1 -20.85 4.85 -20.9 4.25 -20.25 3.65 -20.05 Q3.8 -19.7 1.15 -18.15 L2.2 -19.95 Q5.2 -20.15 4.85 -22.9 L4.9 -23.0 M5.15 -19.45 Q5.3 -14.95 3.8 -13.05 L3.6 -12.65 3.55 -12.5 3.55 -12.45 3.6 -12.3 3.65 -11.85 3.5 -11.25 2.6 -10.6 Q2.6 -11.15 1.4 -10.6 L0.35 -11.1 0.75 -12.3 Q1.0 -14.05 -0.55 -15.1 L-0.05 -16.3 0.55 -17.1 Q4.65 -16.3 5.15 -19.45 M2.9 -22.85 L2.95 -23.0 3.0 -23.1 3.25 -22.85 2.85 -22.35 2.9 -22.85 M-2.95 -23.8 L-2.5 -24.1 -2.25 -23.75 -2.05 -24.15 -1.85 -24.35 -1.65 -24.4 -1.2 -24.3 -1.35 -24.15 -2.35 -22.15 Q-3.35 -18.85 -3.1 -18.15 L-3.25 -17.9 -3.4 -18.5 -3.3 -21.9 -3.25 -22.2 -2.95 -23.8" fill="url(#gradient30)" fill-rule="evenodd" stroke="none"/>
    <path d="M5.1 -20.85 L5.15 -19.45 Q4.65 -16.3 0.55 -17.1 L1.15 -18.15 Q3.8 -19.7 3.65 -20.05 L4.25 -20.25 4.85 -20.9 5.1 -20.85" fill="url(#gradient31)" fill-rule="evenodd" stroke="none"/>
    <path d="M3.25 -22.85 L4.85 -22.9 Q5.2 -20.15 2.2 -19.95 L2.85 -22.35 3.25 -22.85" fill="url(#gradient32)" fill-rule="evenodd" stroke="none"/>
    <path d="M-0.25 -25.5 Q0.55 -23.9 1.15 -24.15 L1.6 -23.55 2.9 -22.85 2.85 -22.35 2.2 -19.95 1.15 -18.15 0.55 -17.1 -0.05 -16.3 -0.55 -15.1 -0.95 -14.45 Q-2.65 -13.8 -3.9 -14.0 L-4.25 -14.45 -4.2 -14.7 -3.25 -17.9 -3.1 -18.15 Q-3.35 -18.85 -2.35 -22.15 L-1.35 -24.15 -1.2 -24.3 -0.95 -24.65 -0.4 -25.5 -0.25 -25.5" fill="url(#gradient33)" fill-rule="evenodd" stroke="none"/>
    <path d="M3.55 -12.45 L3.55 -12.5 3.6 -12.65 3.8 -12.3 4.0 -11.8 4.05 -11.6 3.9 -11.65 3.7 -12.3 3.55 -12.45" fill="url(#gradient34)" fill-rule="evenodd" stroke="none"/>
    <path d="M3.8 -13.05 Q5.1 -12.6 6.4 -11.6 L7.05 -10.95 7.3 -10.55 Q8.55 -7.85 6.2 -6.8 L6.1 -6.75 5.35 -6.7 4.55 -6.7 4.5 -6.7 Q0.95 -7.3 -0.05 -10.05 1.0 -8.5 2.6 -10.6 L3.5 -11.25 3.65 -11.85 3.9 -11.65 4.05 -11.6 4.0 -11.8 3.8 -12.3 3.6 -12.65 3.8 -13.05" fill="url(#gradient35)" fill-rule="evenodd" stroke="none"/>
    <path d="M8.55 -9.85 L8.6 -9.8 Q10.05 -8.4 8.7 -6.8 9.5 -7.9 8.75 -9.35 L8.55 -9.85 M7.7 -6.05 L7.45 -5.9 6.5 -5.95 6.75 -6.0 7.7 -6.05" fill="url(#gradient36)" fill-rule="evenodd" stroke="none"/>
    <path d="M7.45 -10.7 L8.55 -9.85 8.75 -9.35 Q9.6 -7.6 6.75 -6.0 L6.5 -5.95 6.3 -5.95 5.3 -6.15 4.65 -6.65 5.05 -6.45 6.0 -6.45 6.3 -6.65 6.5 -6.7 7.4 -7.3 7.9 -8.2 7.95 -8.65 8.1 -9.7 7.45 -10.7 M4.55 -6.65 L4.5 -6.7 4.55 -6.7 4.55 -6.65" fill="url(#gradient37)" fill-rule="evenodd" stroke="none"/>
    <path d="M7.05 -10.95 L7.45 -10.7 8.1 -9.7 7.95 -8.65 7.9 -9.7 7.3 -10.55 7.05 -10.95 M4.65 -6.65 L4.55 -6.65 4.55 -6.7 5.35 -6.7 5.0 -6.65 5.3 -6.55 6.3 -6.65 6.0 -6.45 5.05 -6.45 4.65 -6.65" fill="url(#gradient38)" fill-rule="evenodd" stroke="none"/>
    <path d="M8.75 -9.35 Q9.5 -7.9 8.7 -6.8 L7.9 -6.1 7.75 -6.05 7.7 -6.05 6.75 -6.0 Q9.6 -7.6 8.75 -9.35 M7.3 -10.55 L7.9 -9.7 7.95 -8.65 7.9 -8.2 7.4 -7.3 6.5 -6.7 6.3 -6.65 5.3 -6.55 5.0 -6.65 5.35 -6.7 6.1 -6.75 6.2 -6.8 Q8.55 -7.85 7.3 -10.55 M9.2 -6.05 L8.75 -5.65 8.55 -5.5 8.2 -5.35 7.75 -5.4 7.6 -5.45 8.55 -5.6 9.2 -6.05 M10.9 -7.45 L11.0 -6.8 11.5 -6.2 10.95 -6.0 Q11.0 -5.2 10.0 -4.3 L8.85 -4.05 Q7.75 -4.55 7.75 -4.95 11.2 -4.85 10.9 -7.45" fill="url(#gradient39)" fill-rule="evenodd" stroke="none"/>
    <path d="M8.6 -9.8 L9.5 -9.15 9.6 -9.05 9.65 -9.0 Q10.55 -7.85 9.2 -6.05 L8.55 -5.6 7.6 -5.45 6.95 -5.55 6.3 -5.95 6.5 -5.95 7.45 -5.9 7.7 -6.05 7.75 -6.05 7.9 -6.1 8.7 -6.8 Q10.05 -8.4 8.6 -9.8" fill="url(#gradient40)" fill-rule="evenodd" stroke="none"/>
    <path d="M9.6 -9.05 Q11.8 -9.4 12.3 -7.35 11.85 -2.2 9.9 -0.8 L9.9 -0.95 10.15 -2.3 9.85 -1.55 9.75 -1.55 9.1 -1.65 9.1 -2.5 8.95 -2.55 8.45 -2.55 7.8 -1.55 7.6 -1.35 7.6 -1.9 Q8.1 -2.75 7.25 -3.0 L7.1 -4.3 7.25 -5.3 7.7 -5.0 7.75 -4.95 Q7.75 -4.55 8.85 -4.05 L10.0 -4.3 Q11.0 -5.2 10.95 -6.0 L11.5 -6.2 11.0 -6.8 10.9 -7.45 10.9 -7.55 10.35 -8.5 9.7 -9.0 9.65 -9.0 9.6 -9.05" fill="url(#gradient41)" fill-rule="evenodd" stroke="none"/>
    <path d="M7.25 -5.35 L6.95 -5.55 7.6 -5.45 7.75 -5.4 7.25 -5.35 M9.65 -9.0 L9.7 -9.0 Q11.4 -6.5 8.75 -5.65 L9.2 -6.05 Q10.55 -7.85 9.65 -9.0" fill="url(#gradient42)" fill-rule="evenodd" stroke="none"/>
    <path d="M3.9 -11.65 L3.65 -11.85 3.6 -12.3 3.55 -12.45 3.7 -12.3 3.9 -11.65" fill="url(#gradient43)" fill-rule="evenodd" stroke="none"/>
    <path d="M-0.05 -10.05 L-0.3 -10.35 0.35 -11.1 1.4 -10.6 Q2.6 -11.15 2.6 -10.6 1.0 -8.5 -0.05 -10.05" fill="url(#gradient44)" fill-rule="evenodd" stroke="none"/>
    <path d="M-0.3 -10.35 Q-1.3 -9.3 -3.55 -10.1 -4.75 -11.1 -4.45 -12.3 L-3.9 -14.0 Q-2.65 -13.8 -0.95 -14.45 L-0.55 -15.1 Q1.0 -14.05 0.75 -12.3 L0.35 -11.1 -0.3 -10.35" fill="url(#gradient45)" fill-rule="evenodd" stroke="none"/>
    <path d="M7.25 -5.3 L7.25 -5.35 7.75 -5.4 8.2 -5.35 8.55 -5.5 8.75 -5.65 Q11.4 -6.5 9.7 -9.0 L10.35 -8.5 10.9 -7.55 10.9 -7.45 Q11.2 -4.85 7.75 -4.95 L7.7 -5.0 7.25 -5.3" fill="url(#gradient46)" fill-rule="evenodd" stroke="none"/>
    <path d="M7.25 -0.9 L7.6 -1.9 7.6 -1.35 7.25 -0.9" fill="url(#gradient47)" fill-rule="evenodd" stroke="none"/>
    <path d="M9.9 -0.8 L9.05 0.1 7.65 0.5 6.85 -0.05 5.8 -0.2 5.7 -0.2 5.65 -0.25 Q5.1 -2.0 7.1 -4.3 L7.25 -3.0 Q8.1 -2.75 7.6 -1.9 L7.25 -0.9 7.1 -0.6 7.25 -0.6 9.75 -1.55 9.85 -1.55 9.9 -0.95 9.9 -0.8" fill="url(#gradient48)" fill-rule="evenodd" stroke="none"/>
    <path d="M7.25 -0.9 L7.6 -1.35 7.8 -1.55 8.95 -2.55 9.1 -2.5 9.1 -1.65 7.25 -0.6 7.1 -0.6 7.25 -0.9" fill="url(#gradient49)" fill-rule="evenodd" stroke="none"/>
    <path d="M7.65 0.5 L5.8 -0.2 6.85 -0.05 7.65 0.5" fill="url(#gradient50)" fill-rule="evenodd" stroke="none"/>
    <path d="M7.25 -0.6 L9.1 -1.65 9.75 -1.55 7.25 -0.6" fill="url(#gradient51)" fill-rule="evenodd" stroke="none"/>
    <path d="M8.95 -2.55 L7.8 -1.55 8.45 -2.55 8.95 -2.55" fill="url(#gradient52)" fill-rule="evenodd" stroke="none"/>
    <path d="M9.9 -0.95 L9.85 -1.55 10.15 -2.3 9.9 -0.95" fill="url(#gradient53)" fill-rule="evenodd" stroke="none"/>
    <path d="M-6.85 -51.55 L-6.4 -52.6 Q-4.95 -54.8 -4.45 -54.9 1.4 -59.15 -3.9 -54.2 -4.9 -53.3 -5.5 -48.25 L-5.6 -48.05 -6.55 -49.35 -6.9 -49.5 -7.15 -49.75 -7.3 -50.3 -7.15 -50.75 -6.85 -51.55" fill="url(#gradient54)" fill-rule="evenodd" stroke="none"/>
    <path d="M-11.55 -45.85 Q-11.8 -45.9 -12.9 -43.85 L-13.35 -41.8 -13.65 -44.3 -12.85 -47.1 Q-11.8 -49.55 -8.85 -50.95 L-7.3 -50.8 -7.15 -50.75 -7.3 -50.3 -7.15 -49.75 -8.8 -49.0 -10.1 -47.85 -11.55 -45.85" fill="url(#gradient55)" fill-rule="evenodd" stroke="none"/>
    <path d="M-5.55 -47.4 L-5.35 -47.8 -5.1 -47.85 -4.8 -47.85 -4.05 -47.5 -2.7 -47.4 -2.5 -46.95 -2.9 -44.95 -3.35 -43.45 -3.55 -42.55 -3.95 -40.9 -4.05 -39.85 -4.3 -36.85 -4.3 -36.55 -4.45 -36.75 -4.8 -37.75 -5.6 -41.55 -5.75 -42.65 -5.85 -44.15 -5.85 -44.3 -5.85 -44.9 -5.85 -46.35 -5.75 -47.05 -5.75 -47.1 -5.7 -47.1 -5.7 -47.15 -5.55 -47.4" fill="url(#gradient56)" fill-rule="evenodd" stroke="none"/>
    <path d="M-7.15 -46.95 Q-9.25 -47.7 -12.05 -44.35 L-12.2 -44.4 -11.55 -45.85 -10.1 -47.85 -8.8 -49.0 -7.15 -49.75 -6.9 -49.5 -6.55 -49.35 -5.6 -48.05 -5.7 -47.85 -5.7 -47.4 -5.75 -47.15 -5.75 -47.1 -5.75 -47.05 -5.95 -46.7 -6.65 -46.75 -6.7 -46.75 -6.8 -46.85 -7.0 -46.9 -7.15 -46.95" fill="url(#gradient57)" fill-rule="evenodd" stroke="none"/>
    <path d="M-6.8 -46.85 L-6.7 -46.75 -6.65 -46.75 -5.85 -46.35 -5.85 -44.9 -6.7 -46.1 -6.8 -46.85" fill="url(#gradient58)" fill-rule="evenodd" stroke="none"/>
    <path d="M-6.85 -46.2 L-7.15 -46.95 -7.0 -46.9 -6.8 -46.2 -6.85 -46.2" fill="url(#gradient59)" fill-rule="evenodd" stroke="none"/>
    <path d="M-5.75 -47.1 L-5.75 -47.15 -5.7 -47.15 -5.7 -47.1 -5.75 -47.1 M-5.85 -44.3 L-5.85 -44.15 -5.9 -44.15 -5.9 -44.3 -5.85 -44.3" fill="url(#gradient60)" fill-rule="evenodd" stroke="none"/>
    <path d="M-6.75 -45.95 L-6.85 -46.2 -6.8 -46.2 -6.75 -45.95" fill="url(#gradient61)" fill-rule="evenodd" stroke="none"/>
    <path d="M-6.5 -43.75 L-6.4 -43.85 -6.4 -43.75 -6.5 -43.75" fill="url(#gradient62)" fill-rule="evenodd" stroke="none"/>
    <path d="M-7.15 -42.7 L-6.5 -43.75 -6.4 -43.75 -6.25 -43.45 -7.15 -42.7 M-3.95 -40.9 L-3.15 -40.9 -4.05 -39.85 -3.95 -40.9 M-2.5 -41.2 L-2.0 -41.5 -1.85 -41.4 -3.8 -39.85 -2.5 -41.2 M-5.6 -41.55 L-4.8 -37.75 -5.2 -36.55 -5.25 -36.55 -5.45 -37.15 Q-5.95 -37.05 -6.2 -38.15 L-6.2 -39.1 -6.5 -39.85 -5.85 -40.65 -5.85 -40.85 -6.25 -40.9 -5.6 -41.55" fill="url(#gradient63)" fill-rule="evenodd" stroke="none"/>
    <path d="M-6.5 -44.35 L-6.65 -45.45 -6.15 -44.95 -5.9 -44.3 -5.9 -44.15 -6.5 -44.35" fill="url(#gradient64)" fill-rule="evenodd" stroke="none"/>
    <path d="M-4.45 -36.75 L-4.3 -36.55 -4.3 -36.85 -3.35 -37.45 -6.4 -34.1 -7.2 -32.95 -7.05 -34.35 -5.9 -36.0 -5.25 -36.55 -5.2 -36.55 -4.75 -36.55 -4.6 -36.8 -4.45 -36.75" fill="url(#gradient65)" fill-rule="evenodd" stroke="none"/>
    <path d="M-9.2 -34.15 L-8.45 -33.85 -8.05 -32.7 -9.2 -34.15 M-7.7 -30.6 L-7.65 -30.5 -7.7 -30.5 -7.7 -30.6 M-3.55 -21.9 L-3.65 -22.05 -3.75 -22.15 -3.25 -22.2 -3.3 -21.9 -3.55 -21.9" fill="url(#gradient66)" fill-rule="evenodd" stroke="none"/>
    <path d="M-9.65 -15.55 Q-10.25 -16.7 -10.7 -20.35 L-10.25 -26.2 -9.65 -27.9 -8.65 -30.3 -7.7 -31.3 -7.7 -30.6 -7.7 -30.5 -7.8 -30.35 -7.7 -29.15 Q-7.0 -28.85 -6.65 -24.75 L-6.25 -24.15 Q-5.25 -22.0 -3.55 -21.9 L-3.3 -21.9 -3.4 -18.5 -4.25 -15.9 -5.1 -14.25 -5.45 -13.2 -5.5 -13.1 -5.7 -12.6 -5.75 -12.7 -5.3 -14.1 -6.0 -13.1 -6.5 -12.95 -6.1 -13.3 -6.4 -13.75 -6.4 -14.25 Q-8.35 -14.3 -9.5 -15.65 L-9.65 -15.55" fill="url(#gradient67)" fill-rule="evenodd" stroke="none"/>
    <path d="M-10.25 -26.2 L-10.1 -27.1 -9.65 -27.9 -10.25 -26.2" fill="url(#gradient68)" fill-rule="evenodd" stroke="none"/>
    <path d="M-2.65 -30.45 L-1.85 -31.1 -1.85 -30.15 -0.85 -31.45 Q-1.0 -30.35 -1.45 -30.25 L-1.95 -29.85 -2.7 -29.6 -2.8 -30.0 -2.65 -30.45" fill="url(#gradient69)" fill-rule="evenodd" stroke="none"/>
    <path d="M-9.45 -13.05 L-9.75 -14.2 -9.65 -15.55 -9.5 -15.65 Q-8.35 -14.3 -6.4 -14.25 L-6.4 -13.75 -6.1 -13.3 -6.5 -12.95 -7.7 -12.3 Q-9.45 -10.45 -9.4 -12.3 L-9.45 -13.05" fill="url(#gradient70)" fill-rule="evenodd" stroke="none"/>
    <path d="M-5.5 -13.1 L-5.45 -13.2 -5.45 -13.1 -5.5 -13.1" fill="url(#gradient71)" fill-rule="evenodd" stroke="none"/>
    <path d="M-4.8 -10.75 L-5.35 -7.9 -6.35 -5.9 -6.4 -5.8 Q-8.15 -3.55 -10.95 -6.9 L-10.8 -9.8 Q-10.65 -11.3 -9.45 -13.05 L-9.4 -12.3 Q-9.45 -10.45 -7.7 -12.3 L-6.5 -12.95 -6.0 -13.1 -5.75 -12.7 -5.7 -12.6 -5.5 -13.1 -5.45 -13.1 -5.45 -12.3 -5.3 -11.6 -4.8 -10.75" fill="url(#gradient72)" fill-rule="evenodd" stroke="none"/>
    <path d="M-3.55 -10.1 L-4.1 -10.2 -4.8 -10.75 -5.3 -11.6 -5.45 -12.3 -5.45 -13.1 -5.45 -13.2 -5.1 -14.25 -4.2 -14.7 -4.25 -14.45 -3.9 -14.0 -4.45 -12.3 Q-4.75 -11.1 -3.55 -10.1" fill="url(#gradient73)" fill-rule="evenodd" stroke="none"/>
    <path d="M-6.0 -13.1 L-5.3 -14.1 -5.75 -12.7 -6.0 -13.1" fill="url(#gradient74)" fill-rule="evenodd" stroke="none"/>
    <path d="M-6.4 -5.55 L-6.4 -5.4 -6.55 -5.35 -6.4 -5.55 M-11.1 -6.3 L-10.95 -6.7 Q-10.55 -4.7 -8.0 -4.7 -10.15 -4.45 -11.1 -6.3" fill="url(#gradient75)" fill-rule="evenodd" stroke="none"/>
    <path d="M-6.4 -5.8 L-6.4 -5.55 -6.55 -5.35 -7.05 -4.9 -7.2 -4.85 -7.25 -4.85 -7.7 -4.7 -8.0 -4.7 Q-10.55 -4.7 -10.95 -6.7 L-10.95 -6.9 Q-8.15 -3.55 -6.4 -5.8 M-7.0 -3.7 L-7.05 -3.15 -7.4 -2.35 Q-7.65 -2.05 -7.9 -2.05 L-8.25 -2.0 -9.35 -1.9 -10.75 -2.4 -11.25 -3.2 -11.25 -3.5 -11.25 -3.6 -11.15 -4.2 -11.1 -4.15 Q-9.05 -2.35 -7.0 -3.7 M-7.45 -0.95 L-7.55 -0.2 -7.7 0.35 -8.65 0.9 -10.0 1.0 Q-11.75 0.6 -11.55 -0.4 L-11.45 -0.85 -11.45 -1.25 -10.65 -0.55 -9.5 -0.25 -8.35 -0.4 -7.45 -0.95 M-7.85 1.85 L-7.8 2.2 Q-8.35 4.5 -9.45 4.0 L-10.3 3.65 -11.95 3.45 -12.55 2.65 -12.5 1.9 -12.0 1.05 -11.95 1.05 Q-10.75 3.85 -7.85 1.85" fill="url(#gradient76)" fill-rule="evenodd" stroke="none"/>
    <path d="M-7.05 -3.15 L-7.0 -2.95 -7.15 -2.55 -7.4 -2.35 -7.05 -3.15 M-11.35 -3.2 L-11.3 -3.5 -11.25 -3.5 -11.25 -3.2 -10.75 -2.4 -9.35 -1.9 -8.25 -2.0 Q-10.35 -1.25 -11.35 -3.2" fill="url(#gradient77)" fill-rule="evenodd" stroke="none"/>
    <path d="M-11.3 -3.5 L-11.25 -3.6 -11.25 -3.5 -11.3 -3.5" fill="url(#gradient78)" fill-rule="evenodd" stroke="none"/>
    <path d="M-6.4 -5.4 L-6.65 -4.35 -7.0 -3.7 Q-9.05 -2.35 -11.1 -4.15 L-11.15 -4.2 -11.35 -4.6 -11.4 -5.25 -11.1 -6.3 Q-10.15 -4.45 -8.0 -4.7 L-7.7 -4.7 -7.25 -4.85 -7.2 -4.85 -7.05 -4.9 -6.55 -5.35 -6.4 -5.4" fill="url(#gradient79)" fill-rule="evenodd" stroke="none"/>
    <path d="M-7.15 -2.55 L-7.45 -0.95 -8.35 -0.4 -9.5 -0.25 -10.65 -0.55 -11.45 -1.25 -11.6 -2.05 -11.35 -3.2 Q-10.35 -1.25 -8.25 -2.0 L-7.9 -2.05 Q-7.65 -2.05 -7.4 -2.35 L-7.15 -2.55" fill="url(#gradient80)" fill-rule="evenodd" stroke="none"/>
    <path d="M-7.55 -0.2 L-7.45 -0.05 -7.55 0.25 -7.7 0.35 -7.55 -0.2 M-11.8 -0.05 L-11.6 -0.75 -11.45 -0.85 -11.55 -0.4 Q-11.75 0.6 -10.0 1.0 L-8.65 0.9 Q-10.6 1.7 -11.8 -0.05" fill="url(#gradient81)" fill-rule="evenodd" stroke="none"/>
    <path d="M-7.55 0.25 L-7.85 1.85 Q-10.75 3.85 -11.95 1.05 L-11.95 1.0 -11.8 -0.05 Q-10.6 1.7 -8.65 0.9 L-7.7 0.35 -7.55 0.25" fill="url(#gradient82)" fill-rule="evenodd" stroke="none"/>
    <path d="M-7.8 2.2 Q-7.3 2.6 -7.95 4.15 L-9.5 5.75 -15.1 9.4 -16.4 9.6 -16.55 9.3 -16.8 8.5 -17.25 8.0 Q-17.95 5.6 -12.5 1.9 L-12.55 2.65 -11.95 3.45 -10.3 3.65 -9.45 4.0 Q-8.35 4.5 -7.8 2.2" fill="url(#gradient83)" fill-rule="evenodd" stroke="none"/>
    <path d="M-12.0 1.05 L-11.95 1.0 -11.95 1.05 -12.0 1.05" fill="url(#gradient84)" fill-rule="evenodd" stroke="none"/>
    <path d="M-16.55 9.3 L-17.25 8.0 -16.8 8.5 -16.55 9.3" fill="url(#gradient85)" fill-rule="evenodd" stroke="none"/>
  </g>
  <defs>
    <radialGradient cx="0" cy="0" gradientTransform="matrix(0.0092, 0.0, 0.0, 0.0092, 0.8, -52.5)" gradientUnits="userSpaceOnUse" id="gradient0" r="819.2" spreadMethod="pad">
      <stop offset="0.0" stop-color="#5ea2ca"/>
      <stop offset="1.0" stop-color="#375f76"/>
    </radialGradient>
    <radialGradient cx="0" cy="0" gradientTransform="matrix(0.0087, 0.0, 0.0, 0.0087, -3.0, -48.95)" gradientUnits="userSpaceOnUse" id="gradient1" r="819.2" spreadMethod="pad">
      <stop offset="0.0" stop-color="#70c0ef"/>
      <stop offset="1.0" stop-color="#4a7f9e"/>
    </radialGradient>
    <radialGradient cx="0" cy="0" gradientTransform="matrix(0.0078, 0.0, 0.0, 0.0078, -2.15, -48.9)" gradientUnits="userSpaceOnUse" id="gradient2" r="819.2" spreadMethod="pad">
      <stop offset="0.0" stop-color="#70c1f1"/>
      <stop offset="1.0" stop-color="#406e89"/>
    </radialGradient>
    <radialGradient cx="0" cy="0" gradientTransform="matrix(0.0254, 0.0, 0.0, 0.0254, 15.3, -44.6)" gradientUnits="userSpaceOnUse" id="gradient3" r="819.2" spreadMethod="pad">
      <stop offset="0.0" stop-color="#fafafa"/>
      <stop offset="1.0" stop-color="#686868"/>
    </radialGradient>
    <radialGradient cx="0" cy="0" gradientTransform="matrix(0.0221, 0.0, 0.0, 0.0221, 28.75, -33.2)" gradientUnits="userSpaceOnUse" id="gradient4" r="819.2" spreadMethod="pad">
      <stop offset="0.0" stop-color="#c5c5c5"/>
      <stop offset="1.0" stop-color="#5d5d5d"/>
    </radialGradient>
    <radialGradient cx="0" cy="0" gradientTransform="matrix(0.0125, 0.0, 0.0, 0.0125, 21.65, -33.7)" gradientUnits="userSpaceOnUse" id="gradient5" r="819.2" spreadMethod="pad">
      <stop offset="0.0" stop-color="#bcbcbc"/>
      <stop offset="1.0" stop-color="#707070"/>
    </radialGradient>
    <radialGradient cx="0" cy="0" gradientTransform="matrix(0.0285, 0.0, 0.0, 0.0285, 7.9, -48.25)" gradientUnits="userSpaceOnUse" id="gradient6" r="819.2" spreadMethod="pad">
      <stop offset="0.0" stop-color="#ffffff"/>
      <stop offset="1.0" stop-color="#787878"/>
    </radialGradient>
    <radialGradient cx="0" cy="0" gradientTransform="matrix(0.0021, 0.0, 0.0, 0.0021, 7.9, -48.25)" gradientUnits="userSpaceOnUse" id="gradient7" r="819.2" spreadMethod="pad">
      <stop offset="0.0" stop-color="#797979"/>
      <stop offset="1.0" stop-color="#626262"/>
    </radialGradient>
    <radialGradient cx="0" cy="0" gradientTransform="matrix(0.0122, 0.0, 0.0, 0.0122, -1.3, -54.75)" gradientUnits="userSpaceOnUse" id="gradient8" r="819.2" spreadMethod="pad">
      <stop offset="0.0" stop-color="#bcbcbc"/>
      <stop offset="1.0" stop-color="#7c7c7c"/>
    </radialGradient>
    <radialGradient cx="0" cy="0" gradientTransform="matrix(0.0038, 0.0, 0.0, 0.0038, 3.35, -47.4)" gradientUnits="userSpaceOnUse" id="gradient9" r="819.2" spreadMethod="pad">
      <stop offset="0.0" stop-color="#5491b4"/>
      <stop offset="1.0" stop-color="#33586e"/>
    </radialGradient>
    <radialGradient cx="0" cy="0" gradientTransform="matrix(0.0041, 0.0, 0.0, 0.0041, 3.05, -45.65)" gradientUnits="userSpaceOnUse" id="gradient10" r="819.2" spreadMethod="pad">
      <stop offset="0.0" stop-color="#6ebdeb"/>
      <stop offset="1.0" stop-color="#416f8b"/>
    </radialGradient>
    <radialGradient cx="0" cy="0" gradientTransform="matrix(0.0052, 0.0, 0.0, 0.0052, 3.85, -49.55)" gradientUnits="userSpaceOnUse" id="gradient11" r="819.2" spreadMethod="pad">
      <stop offset="0.0" stop-color="#acacac"/>
      <stop offset="1.0" stop-color="#818181"/>
    </radialGradient>
    <radialGradient cx="0" cy="0" gradientTransform="matrix(0.0195, 0.0, 0.0, 0.0195, 13.5, -34.1)" gradientUnits="userSpaceOnUse" id="gradient12" r="819.2" spreadMethod="pad">
      <stop offset="0.0" stop-color="#202020"/>
      <stop offset="1.0" stop-color="#202020"/>
    </radialGradient>
    <radialGradient cx="0" cy="0" gradientTransform="matrix(0.0186, 0.0, 0.0, 0.0186, 5.85, -42.5)" gradientUnits="userSpaceOnUse" id="gradient13" r="819.2" spreadMethod="pad">
      <stop offset="0.0" stop-color="#ffffff"/>
      <stop offset="1.0" stop-color="#878787"/>
    </radialGradient>
    <radialGradient cx="0" cy="0" gradientTransform="matrix(0.0028, 0.0, 0.0, 0.0028, -2.25, -43.5)" gradientUnits="userSpaceOnUse" id="gradient14" r="819.2" spreadMethod="pad">
      <stop offset="0.0" stop-color="#3d4873"/>
      <stop offset="1.0" stop-color="#28304c"/>
    </radialGradient>
    <radialGradient cx="0" cy="0" gradientTransform="matrix(0.0084, 0.0, 0.0, 0.0084, -1.8, -46.6)" gradientUnits="userSpaceOnUse" id="gradient15" r="819.2" spreadMethod="pad">
      <stop offset="0.0" stop-color="#71c2f1"/>
      <stop offset="1.0" stop-color="#43738f"/>
    </radialGradient>
    <radialGradient cx="0" cy="0" gradientTransform="matrix(0.0045, 0.0, 0.0, 0.0045, -0.05, -40.9)" gradientUnits="userSpaceOnUse" id="gradient16" r="819.2" spreadMethod="pad">
      <stop offset="0.0" stop-color="#787896"/>
      <stop offset="1.0" stop-color="#70708c"/>
    </radialGradient>
    <radialGradient cx="0" cy="0" gradientTransform="matrix(0.0107, 0.0, 0.0, 0.0107, -6.4, -48.95)" gradientUnits="userSpaceOnUse" id="gradient17" r="819.2" spreadMethod="pad">
      <stop offset="0.0" stop-color="#7e7e9d"/>
      <stop offset="1.0" stop-color="#49495b"/>
    </radialGradient>
    <radialGradient cx="0" cy="0" gradientTransform="matrix(0.017, 0.0, 0.0, 0.017, 2.65, -43.25)" gradientUnits="userSpaceOnUse" id="gradient18" r="819.2" spreadMethod="pad">
      <stop offset="0.0" stop-color="#9f9fc7"/>
      <stop offset="1.0" stop-color="#5b5b72"/>
    </radialGradient>
    <radialGradient cx="0" cy="0" gradientTransform="matrix(9.0E-4, 0.0, 0.0, 9.0E-4, 2.3, -43.35)" gradientUnits="userSpaceOnUse" id="gradient19" r="819.2" spreadMethod="pad">
      <stop offset="0.0" stop-color="#22222a"/>
      <stop offset="1.0" stop-color="#15151a"/>
    </radialGradient>
    <radialGradient cx="0" cy="0" gradientTransform="matrix(0.0258, 0.0, 0.0, 0.0258, 1.55, -42.5)" gradientUnits="userSpaceOnUse" id="gradient20" r="819.2" spreadMethod="pad">
      <stop offset="0.0" stop-color="#3f4b77"/>
      <stop offset="1.0" stop-color="#1a1f32"/>
    </radialGradient>
    <radialGradient cx="0" cy="0" gradientTransform="matrix(0.0044, 0.0, 0.0, 0.0044, 2.05, -40.15)" gradientUnits="userSpaceOnUse" id="gradient21" r="819.2" spreadMethod="pad">
      <stop offset="0.0" stop-color="#15151a"/>
      <stop offset="1.0" stop-color="#15151a"/>
    </radialGradient>
    <radialGradient cx="0" cy="0" gradientTransform="matrix(0.0107, 0.0, 0.0, 0.0107, 0.65, -37.35)" gradientUnits="userSpaceOnUse" id="gradient22" r="819.2" spreadMethod="pad">
      <stop offset="0.0" stop-color="#a3a3cc"/>
      <stop offset="1.0" stop-color="#696983"/>
    </radialGradient>
    <radialGradient cx="0" cy="0" gradientTransform="matrix(0.0195, 0.0, 0.0, 0.0195, 5.3, -37.5)" gradientUnits="userSpaceOnUse" id="gradient23" r="819.2" spreadMethod="pad">
      <stop offset="0.0" stop-color="#3e4a76"/>
      <stop offset="1.0" stop-color="#2b3352"/>
    </radialGradient>
    <radialGradient cx="0" cy="0" gradientTransform="matrix(0.0192, 0.0, 0.0, 0.0192, -6.45, -37.6)" gradientUnits="userSpaceOnUse" id="gradient24" r="819.2" spreadMethod="pad">
      <stop offset="0.0" stop-color="#b0b0dc"/>
      <stop offset="1.0" stop-color="#595970"/>
    </radialGradient>
    <radialGradient cx="0" cy="0" gradientTransform="matrix(0.0013, 0.0, 0.0, 0.0013, -0.4, -28.05)" gradientUnits="userSpaceOnUse" id="gradient25" r="819.2" spreadMethod="pad">
      <stop offset="0.0" stop-color="#2c3454"/>
      <stop offset="1.0" stop-color="#29314e"/>
    </radialGradient>
    <radialGradient cx="0" cy="0" gradientTransform="matrix(0.0052, 0.0, 0.0, 0.0052, 4.6, -29.75)" gradientUnits="userSpaceOnUse" id="gradient26" r="819.2" spreadMethod="pad">
      <stop offset="0.0" stop-color="#65aed8"/>
      <stop offset="1.0" stop-color="#386078"/>
    </radialGradient>
    <radialGradient cx="0" cy="0" gradientTransform="matrix(0.0083, 0.0, 0.0, 0.0083, -1.3, -26.0)" gradientUnits="userSpaceOnUse" id="gradient27" r="819.2" spreadMethod="pad">
      <stop offset="0.0" stop-color="#a9a9d3"/>
      <stop offset="1.0" stop-color="#5f5f77"/>
    </radialGradient>
    <radialGradient cx="0" cy="0" gradientTransform="matrix(0.0131, 0.0, 0.0, 0.0131, 11.3, -37.15)" gradientUnits="userSpaceOnUse" id="gradient28" r="819.2" spreadMethod="pad">
      <stop offset="0.0" stop-color="#bcbcbc"/>
      <stop offset="1.0" stop-color="#9a9a9a"/>
    </radialGradient>
    <radialGradient cx="0" cy="0" gradientTransform="matrix(0.0137, 0.0, 0.0, 0.0137, 11.4, -35.2)" gradientUnits="userSpaceOnUse" id="gradient29" r="819.2" spreadMethod="pad">
      <stop offset="0.0" stop-color="#b5b5b5"/>
      <stop offset="1.0" stop-color="#858585"/>
    </radialGradient>
    <radialGradient cx="0" cy="0" gradientTransform="matrix(0.0198, 0.0, 0.0, 0.0198, -0.95, -25.6)" gradientUnits="userSpaceOnUse" id="gradient30" r="819.2" spreadMethod="pad">
      <stop offset="0.0" stop-color="#a8a8d2"/>
      <stop offset="1.0" stop-color="#5b5b71"/>
    </radialGradient>
    <radialGradient cx="0" cy="0" gradientTransform="matrix(0.0046, 0.0, 0.0, 0.0046, 1.8, -19.05)" gradientUnits="userSpaceOnUse" id="gradient31" r="819.2" spreadMethod="pad">
      <stop offset="0.0" stop-color="#414c7a"/>
      <stop offset="1.0" stop-color="#282f4b"/>
    </radialGradient>
    <radialGradient cx="0" cy="0" gradientTransform="matrix(0.0037, 0.0, 0.0, 0.0037, 1.75, -22.55)" gradientUnits="userSpaceOnUse" id="gradient32" r="819.2" spreadMethod="pad">
      <stop offset="0.0" stop-color="#414d7b"/>
      <stop offset="1.0" stop-color="#262d48"/>
    </radialGradient>
    <radialGradient cx="0" cy="0" gradientTransform="matrix(0.0153, 0.0, 0.0, 0.0153, 0.85, -24.45)" gradientUnits="userSpaceOnUse" id="gradient33" r="819.2" spreadMethod="pad">
      <stop offset="0.0" stop-color="#404c79"/>
      <stop offset="1.0" stop-color="#29304d"/>
    </radialGradient>
    <radialGradient cx="0" cy="0" gradientTransform="matrix(0.0035, 0.0, 0.0, 0.0035, 3.4, -12.8)" gradientUnits="userSpaceOnUse" id="gradient34" r="819.2" spreadMethod="pad">
      <stop offset="0.0" stop-color="#59596e"/>
      <stop offset="1.0" stop-color="#4f4f62"/>
    </radialGradient>
    <radialGradient cx="0" cy="0" gradientTransform="matrix(0.0081, 0.0, 0.0, 0.0081, 1.65, -11.0)" gradientUnits="userSpaceOnUse" id="gradient35" r="819.2" spreadMethod="pad">
      <stop offset="0.0" stop-color="#b6b6e3"/>
      <stop offset="1.0" stop-color="#56566b"/>
    </radialGradient>
    <radialGradient cx="0" cy="0" gradientTransform="matrix(0.0041, 0.0, 0.0, 0.0041, 9.1, -7.45)" gradientUnits="userSpaceOnUse" id="gradient36" r="819.2" spreadMethod="pad">
      <stop offset="0.0" stop-color="#424f7e"/>
      <stop offset="1.0" stop-color="#424e7d"/>
    </radialGradient>
    <radialGradient cx="0" cy="0" gradientTransform="matrix(0.0052, 0.0, 0.0, 0.0052, 8.2, -8.9)" gradientUnits="userSpaceOnUse" id="gradient37" r="819.2" spreadMethod="pad">
      <stop offset="0.0" stop-color="#282f4c"/>
      <stop offset="1.0" stop-color="#1a1f31"/>
    </radialGradient>
    <radialGradient cx="0" cy="0" gradientTransform="matrix(0.0057, 0.0, 0.0, 0.0057, 5.9, -6.6)" gradientUnits="userSpaceOnUse" id="gradient38" r="819.2" spreadMethod="pad">
      <stop offset="0.0" stop-color="#414c7a"/>
      <stop offset="1.0" stop-color="#404c7a"/>
    </radialGradient>
    <radialGradient cx="0" cy="0" gradientTransform="matrix(0.0079, 0.0, 0.0, 0.0079, 11.4, -6.4)" gradientUnits="userSpaceOnUse" id="gradient39" r="819.2" spreadMethod="pad">
      <stop offset="0.0" stop-color="#7b7b9a"/>
      <stop offset="1.0" stop-color="#3b3b4a"/>
    </radialGradient>
    <radialGradient cx="0" cy="0" gradientTransform="matrix(0.0048, 0.0, 0.0, 0.0048, 9.4, -8.1)" gradientUnits="userSpaceOnUse" id="gradient40" r="819.2" spreadMethod="pad">
      <stop offset="0.0" stop-color="#272e49"/>
      <stop offset="1.0" stop-color="#191d2f"/>
    </radialGradient>
    <radialGradient cx="0" cy="0" gradientTransform="matrix(0.0079, 0.0, 0.0, 0.0079, 7.8, -3.45)" gradientUnits="userSpaceOnUse" id="gradient41" r="819.2" spreadMethod="pad">
      <stop offset="0.0" stop-color="#c1c1f1"/>
      <stop offset="1.0" stop-color="#61617a"/>
    </radialGradient>
    <radialGradient cx="0" cy="0" gradientTransform="matrix(0.0027, 0.0, 0.0, 0.0027, 8.25, -7.35)" gradientUnits="userSpaceOnUse" id="gradient42" r="819.2" spreadMethod="pad">
      <stop offset="0.0" stop-color="#445080"/>
      <stop offset="1.0" stop-color="#435080"/>
    </radialGradient>
    <radialGradient cx="0" cy="0" gradientTransform="matrix(0.003, 0.0, 0.0, 0.003, 3.8, -10.4)" gradientUnits="userSpaceOnUse" id="gradient43" r="819.2" spreadMethod="pad">
      <stop offset="0.0" stop-color="#5b5b72"/>
      <stop offset="1.0" stop-color="#5a5a70"/>
    </radialGradient>
    <radialGradient cx="0" cy="0" gradientTransform="matrix(0.0062, 0.0, 0.0, 0.0062, 0.1, -12.8)" gradientUnits="userSpaceOnUse" id="gradient44" r="819.2" spreadMethod="pad">
      <stop offset="0.0" stop-color="#7e7e9e"/>
      <stop offset="1.0" stop-color="#48485b"/>
    </radialGradient>
    <radialGradient cx="0" cy="0" gradientTransform="matrix(0.0046, 0.0, 0.0, 0.0046, -1.9, -13.55)" gradientUnits="userSpaceOnUse" id="gradient45" r="819.2" spreadMethod="pad">
      <stop offset="0.0" stop-color="#414d7c"/>
      <stop offset="1.0" stop-color="#1e2339"/>
    </radialGradient>
    <radialGradient cx="0" cy="0" gradientTransform="matrix(0.0046, 0.0, 0.0, 0.0046, 10.3, -7.45)" gradientUnits="userSpaceOnUse" id="gradient46" r="819.2" spreadMethod="pad">
      <stop offset="0.0" stop-color="#262c47"/>
      <stop offset="1.0" stop-color="#171c2d"/>
    </radialGradient>
    <radialGradient cx="0" cy="0" gradientTransform="matrix(0.0026, 0.0, 0.0, 0.0026, 7.0, -0.6)" gradientUnits="userSpaceOnUse" id="gradient47" r="819.2" spreadMethod="pad">
      <stop offset="0.0" stop-color="#a3a3cb"/>
      <stop offset="1.0" stop-color="#5f5f76"/>
    </radialGradient>
    <radialGradient cx="0" cy="0" gradientTransform="matrix(0.0054, 0.0, 0.0, 0.0054, 9.75, -1.65)" gradientUnits="userSpaceOnUse" id="gradient48" r="819.2" spreadMethod="pad">
      <stop offset="0.0" stop-color="#c5c5f6"/>
      <stop offset="1.0" stop-color="#b4b4e1"/>
    </radialGradient>
    <radialGradient cx="0" cy="0" gradientTransform="matrix(0.0035, 0.0, 0.0, 0.0035, 7.0, -0.6)" gradientUnits="userSpaceOnUse" id="gradient49" r="819.2" spreadMethod="pad">
      <stop offset="0.0" stop-color="#bebeed"/>
      <stop offset="1.0" stop-color="#9c9cc2"/>
    </radialGradient>
    <radialGradient cx="0" cy="0" gradientTransform="matrix(0.0029, 0.0, 0.0, 0.0029, 5.55, -0.35)" gradientUnits="userSpaceOnUse" id="gradient50" r="819.2" spreadMethod="pad">
      <stop offset="0.0" stop-color="#5a5a70"/>
      <stop offset="1.0" stop-color="#56566b"/>
    </radialGradient>
    <radialGradient cx="0" cy="0" gradientTransform="matrix(0.0036, 0.0, 0.0, 0.0036, 9.75, -1.65)" gradientUnits="userSpaceOnUse" id="gradient51" r="819.2" spreadMethod="pad">
      <stop offset="0.0" stop-color="#a4a4cd"/>
      <stop offset="1.0" stop-color="#9797bc"/>
    </radialGradient>
    <radialGradient cx="0" cy="0" gradientTransform="matrix(0.0018, 0.0, 0.0, 0.0018, 8.35, -2.6)" gradientUnits="userSpaceOnUse" id="gradient52" r="819.2" spreadMethod="pad">
      <stop offset="0.0" stop-color="#767693"/>
      <stop offset="1.0" stop-color="#71718c"/>
    </radialGradient>
    <radialGradient cx="0" cy="0" gradientTransform="matrix(0.0021, 0.0, 0.0, 0.0021, 10.1, -2.6)" gradientUnits="userSpaceOnUse" id="gradient53" r="819.2" spreadMethod="pad">
      <stop offset="0.0" stop-color="#606078"/>
      <stop offset="1.0" stop-color="#606077"/>
    </radialGradient>
    <radialGradient cx="0" cy="0" gradientTransform="matrix(0.0078, 0.0, 0.0, 0.0078, -5.65, -52.2)" gradientUnits="userSpaceOnUse" id="gradient54" r="819.2" spreadMethod="pad">
      <stop offset="0.0" stop-color="#71c3f3"/>
      <stop offset="1.0" stop-color="#457795"/>
    </radialGradient>
    <radialGradient cx="0" cy="0" gradientTransform="matrix(0.0128, 0.0, 0.0, 0.0128, -5.8, -48.95)" gradientUnits="userSpaceOnUse" id="gradient55" r="819.2" spreadMethod="pad">
      <stop offset="0.0" stop-color="#6fbeed"/>
      <stop offset="1.0" stop-color="#42728e"/>
    </radialGradient>
    <radialGradient cx="0" cy="0" gradientTransform="matrix(0.012, 0.0, 0.0, 0.012, -4.3, -46.5)" gradientUnits="userSpaceOnUse" id="gradient56" r="819.2" spreadMethod="pad">
      <stop offset="0.0" stop-color="#70c0ef"/>
      <stop offset="1.0" stop-color="#477a98"/>
    </radialGradient>
    <radialGradient cx="0" cy="0" gradientTransform="matrix(0.0067, 0.0, 0.0, 0.0067, -8.25, -48.2)" gradientUnits="userSpaceOnUse" id="gradient57" r="819.2" spreadMethod="pad">
      <stop offset="0.0" stop-color="#71c3f2"/>
      <stop offset="1.0" stop-color="#4d86a7"/>
    </radialGradient>
    <radialGradient cx="0" cy="0" gradientTransform="matrix(0.0021, 0.0, 0.0, 0.0021, -5.9, -46.55)" gradientUnits="userSpaceOnUse" id="gradient58" r="819.2" spreadMethod="pad">
      <stop offset="0.0" stop-color="#2c3453"/>
      <stop offset="1.0" stop-color="#191d2f"/>
    </radialGradient>
    <radialGradient cx="0" cy="0" gradientTransform="matrix(0.0038, 0.0, 0.0, 0.0038, -7.45, -48.6)" gradientUnits="userSpaceOnUse" id="gradient59" r="819.2" spreadMethod="pad">
      <stop offset="0.0" stop-color="#6a6a84"/>
      <stop offset="1.0" stop-color="#4f4f62"/>
    </radialGradient>
    <radialGradient cx="0" cy="0" gradientTransform="matrix(0.0117, 0.0, 0.0, 0.0117, -5.95, -46.15)" gradientUnits="userSpaceOnUse" id="gradient60" r="819.2" spreadMethod="pad">
      <stop offset="0.0" stop-color="#0e181e"/>
      <stop offset="1.0" stop-color="#0e181e"/>
    </radialGradient>
    <radialGradient cx="0" cy="0" gradientTransform="matrix(0.0038, 0.0, 0.0, 0.0038, -7.45, -48.6)" gradientUnits="userSpaceOnUse" id="gradient61" r="819.2" spreadMethod="pad">
      <stop offset="0.0" stop-color="#15151a"/>
      <stop offset="1.0" stop-color="#15151a"/>
    </radialGradient>
    <radialGradient cx="0" cy="0" gradientTransform="matrix(0.0022, 0.0, 0.0, 0.0022, -6.55, -45.6)" gradientUnits="userSpaceOnUse" id="gradient62" r="819.2" spreadMethod="pad">
      <stop offset="0.0" stop-color="#15151a"/>
      <stop offset="1.0" stop-color="#15151a"/>
    </radialGradient>
    <radialGradient cx="0" cy="0" gradientTransform="matrix(0.0084, 0.0, 0.0, 0.0084, -1.75, -41.7)" gradientUnits="userSpaceOnUse" id="gradient63" r="819.2" spreadMethod="pad">
      <stop offset="0.0" stop-color="#9191b5"/>
      <stop offset="1.0" stop-color="#7b7b99"/>
    </radialGradient>
    <radialGradient cx="0" cy="0" gradientTransform="matrix(0.0013, 0.0, 0.0, 0.0013, -6.1, -44.95)" gradientUnits="userSpaceOnUse" id="gradient64" r="819.2" spreadMethod="pad">
      <stop offset="0.0" stop-color="#2d3656"/>
      <stop offset="1.0" stop-color="#252c46"/>
    </radialGradient>
    <radialGradient cx="0" cy="0" gradientTransform="matrix(0.0079, 0.0, 0.0, 0.0079, -3.05, -37.05)" gradientUnits="userSpaceOnUse" id="gradient65" r="819.2" spreadMethod="pad">
      <stop offset="0.0" stop-color="#9b9bc1"/>
      <stop offset="1.0" stop-color="#6c6c87"/>
    </radialGradient>
    <radialGradient cx="0" cy="0" gradientTransform="matrix(0.0227, 0.0, 0.0, 0.0227, -10.45, -39.2)" gradientUnits="userSpaceOnUse" id="gradient66" r="819.2" spreadMethod="pad">
      <stop offset="0.0" stop-color="#232a43"/>
      <stop offset="1.0" stop-color="#08090e"/>
    </radialGradient>
    <radialGradient cx="0" cy="0" gradientTransform="matrix(0.023, 0.0, 0.0, 0.023, -6.05, -30.95)" gradientUnits="userSpaceOnUse" id="gradient67" r="819.2" spreadMethod="pad">
      <stop offset="0.0" stop-color="#ababd6"/>
      <stop offset="1.0" stop-color="#4c4c5f"/>
    </radialGradient>
    <radialGradient cx="0" cy="0" gradientTransform="matrix(0.002, 0.0, 0.0, 0.002, -9.9, -26.55)" gradientUnits="userSpaceOnUse" id="gradient68" r="819.2" spreadMethod="pad">
      <stop offset="0.0" stop-color="#2a3250"/>
      <stop offset="1.0" stop-color="#232941"/>
    </radialGradient>
    <radialGradient cx="0" cy="0" gradientTransform="matrix(0.0026, 0.0, 0.0, 0.0026, -2.0, -31.2)" gradientUnits="userSpaceOnUse" id="gradient69" r="819.2" spreadMethod="pad">
      <stop offset="0.0" stop-color="#71718d"/>
      <stop offset="1.0" stop-color="#363643"/>
    </radialGradient>
    <radialGradient cx="0" cy="0" gradientTransform="matrix(0.0052, 0.0, 0.0, 0.0052, -7.75, -14.8)" gradientUnits="userSpaceOnUse" id="gradient70" r="819.2" spreadMethod="pad">
      <stop offset="0.0" stop-color="#8e8eb1"/>
      <stop offset="1.0" stop-color="#5a5a71"/>
    </radialGradient>
    <radialGradient cx="0" cy="0" gradientTransform="matrix(0.0045, 0.0, 0.0, 0.0045, -5.0, -11.15)" gradientUnits="userSpaceOnUse" id="gradient71" r="819.2" spreadMethod="pad">
      <stop offset="0.0" stop-color="#454556"/>
      <stop offset="1.0" stop-color="#15151a"/>
    </radialGradient>
    <radialGradient cx="0" cy="0" gradientTransform="matrix(0.0104, 0.0, 0.0, 0.0104, -7.1, -13.15)" gradientUnits="userSpaceOnUse" id="gradient72" r="819.2" spreadMethod="pad">
      <stop offset="0.0" stop-color="#bcbcea"/>
      <stop offset="1.0" stop-color="#59596e"/>
    </radialGradient>
    <radialGradient cx="0" cy="0" gradientTransform="matrix(0.0044, 0.0, 0.0, 0.0044, -4.05, -13.8)" gradientUnits="userSpaceOnUse" id="gradient73" r="819.2" spreadMethod="pad">
      <stop offset="0.0" stop-color="#b5b5e2"/>
      <stop offset="1.0" stop-color="#525266"/>
    </radialGradient>
    <radialGradient cx="0" cy="0" gradientTransform="matrix(0.0033, 0.0, 0.0, 0.0033, -6.7, -12.25)" gradientUnits="userSpaceOnUse" id="gradient74" r="819.2" spreadMethod="pad">
      <stop offset="0.0" stop-color="#62627a"/>
      <stop offset="1.0" stop-color="#5d5d74"/>
    </radialGradient>
    <radialGradient cx="0" cy="0" gradientTransform="matrix(0.0055, 0.0, 0.0, 0.0055, -6.9, -5.1)" gradientUnits="userSpaceOnUse" id="gradient75" r="819.2" spreadMethod="pad">
      <stop offset="0.0" stop-color="#38426a"/>
      <stop offset="1.0" stop-color="#384269"/>
    </radialGradient>
    <radialGradient cx="0" cy="0" gradientTransform="matrix(0.0112, 0.0, 0.0, 0.0112, -10.6, 1.75)" gradientUnits="userSpaceOnUse" id="gradient76" r="819.2" spreadMethod="pad">
      <stop offset="0.0" stop-color="#8888a9"/>
      <stop offset="1.0" stop-color="#5c5c73"/>
    </radialGradient>
    <radialGradient cx="0" cy="0" gradientTransform="matrix(0.0038, 0.0, 0.0, 0.0038, -8.9, -1.85)" gradientUnits="userSpaceOnUse" id="gradient77" r="819.2" spreadMethod="pad">
      <stop offset="0.0" stop-color="#38426a"/>
      <stop offset="1.0" stop-color="#374269"/>
    </radialGradient>
    <radialGradient cx="0" cy="0" gradientTransform="matrix(0.0034, 0.0, 0.0, 0.0034, -11.0, -5.3)" gradientUnits="userSpaceOnUse" id="gradient78" r="819.2" spreadMethod="pad">
      <stop offset="0.0" stop-color="#15151a"/>
      <stop offset="1.0" stop-color="#15151a"/>
    </radialGradient>
    <radialGradient cx="0" cy="0" gradientTransform="matrix(0.0038, 0.0, 0.0, 0.0038, -9.2, -4.85)" gradientUnits="userSpaceOnUse" id="gradient79" r="819.2" spreadMethod="pad">
      <stop offset="0.0" stop-color="#30385a"/>
      <stop offset="1.0" stop-color="#212840"/>
    </radialGradient>
    <radialGradient cx="0" cy="0" gradientTransform="matrix(0.0035, 0.0, 0.0, 0.0035, -9.65, -1.95)" gradientUnits="userSpaceOnUse" id="gradient80" r="819.2" spreadMethod="pad">
      <stop offset="0.0" stop-color="#30395c"/>
      <stop offset="1.0" stop-color="#222941"/>
    </radialGradient>
    <radialGradient cx="0" cy="0" gradientTransform="matrix(0.0036, 0.0, 0.0, 0.0036, -9.4, 1.05)" gradientUnits="userSpaceOnUse" id="gradient81" r="819.2" spreadMethod="pad">
      <stop offset="0.0" stop-color="#38426a"/>
      <stop offset="1.0" stop-color="#374269"/>
    </radialGradient>
    <radialGradient cx="0" cy="0" gradientTransform="matrix(0.0035, 0.0, 0.0, 0.0035, -10.15, 1.05)" gradientUnits="userSpaceOnUse" id="gradient82" r="819.2" spreadMethod="pad">
      <stop offset="0.0" stop-color="#313a5d"/>
      <stop offset="1.0" stop-color="#222841"/>
    </radialGradient>
    <radialGradient cx="0" cy="0" gradientTransform="matrix(0.0093, 0.0, 0.0, 0.0093, -11.2, 3.95)" gradientUnits="userSpaceOnUse" id="gradient83" r="819.2" spreadMethod="pad">
      <stop offset="0.0" stop-color="#c5c5f6"/>
      <stop offset="1.0" stop-color="#a2a2ca"/>
    </radialGradient>
    <radialGradient cx="0" cy="0" gradientTransform="matrix(0.0021, 0.0, 0.0, 0.0021, -11.7, -0.55)" gradientUnits="userSpaceOnUse" id="gradient84" r="819.2" spreadMethod="pad">
      <stop offset="0.0" stop-color="#08090e"/>
      <stop offset="1.0" stop-color="#08090e"/>
    </radialGradient>
    <radialGradient cx="0" cy="0" gradientTransform="matrix(0.0026, 0.0, 0.0, 0.0026, -17.45, 7.7)" gradientUnits="userSpaceOnUse" id="gradient85" r="819.2" spreadMethod="pad">
      <stop offset="0.0" stop-color="#606077"/>
      <stop offset="1.0" stop-color="#5e5e75"/>
    </radialGradient>
  </defs>
</svg>
