<?xml version="1.0" encoding="UTF-8" standalone="no"?>
<svg xmlns:ffdec="https://www.free-decompiler.com/flash" xmlns:xlink="http://www.w3.org/1999/xlink" ffdec:objectType="shape" height="67.45px" width="38.15px" xmlns="http://www.w3.org/2000/svg">
  <g transform="matrix(1.0, 0.0, 0.0, 1.0, 9.8, 58.35)">
    <path d="M-4.3 -57.3 L-2.45 -58.25 Q-0.7 -58.6 1.0 -57.35 L2.0 -56.55 2.25 -56.25 2.15 -56.25 2.05 -56.25 0.7 -57.0 -0.75 -57.15 -1.05 -57.05 Q-1.6 -56.65 -3.95 -56.15 L-5.0 -55.65 -4.3 -57.3" fill="url(#gradient0)" fill-rule="evenodd" stroke="none"/>
    <path d="M-5.0 -55.65 L-3.95 -56.15 Q-1.6 -56.65 -1.05 -57.05 L-0.65 -57.05 0.15 -57.0 2.05 -56.25 2.15 -56.25 3.8 -55.1 Q5.45 -53.05 5.2 -52.95 L5.35 -52.45 5.0 -52.75 4.65 -52.8 4.85 -51.9 Q4.55 -50.25 4.1 -49.6 L3.8 -49.7 3.6 -49.4 Q0.9 -50.95 0.9 -51.75 L0.6 -51.8 0.75 -50.05 -0.25 -50.4 -0.65 -49.55 Q-1.2 -49.6 -1.4 -50.35 L-1.7 -50.45 -1.5 -49.9 Q-2.9 -49.2 -2.0 -48.5 L-2.55 -48.15 -3.6 -48.4 -3.1 -47.4 -3.95 -47.85 -5.1 -50.6 Q-5.2 -51.9 -5.75 -52.7 L-5.7 -53.0 -3.8 -51.5 -1.85 -50.45 Q-5.1 -53.3 -4.8 -55.45 L-5.05 -55.55 -5.0 -55.65" fill="url(#gradient1)" fill-rule="evenodd" stroke="none"/>
    <path d="M5.2 -52.95 Q5.5 -52.95 6.8 -50.05 L6.75 -47.35 6.7 -47.25 6.55 -46.8 Q6.65 -47.4 5.5 -47.15 L5.15 -46.2 5.05 -46.3 4.65 -48.3 4.1 -49.6 Q4.55 -50.25 4.85 -51.9 L4.65 -52.8 5.0 -52.75 5.35 -52.45 5.2 -52.95" fill="url(#gradient2)" fill-rule="evenodd" stroke="none"/>
    <path d="M4.1 -49.6 L4.65 -48.3 5.05 -46.3 4.55 -46.55 4.3 -46.05 4.05 -45.75 3.8 -44.8 Q2.9 -44.9 2.5 -44.45 L0.6 -44.8 0.2 -44.6 0.25 -44.15 -1.05 -45.2 -3.1 -47.4 -3.6 -48.4 -2.55 -48.15 -2.0 -48.5 Q-2.9 -49.2 -1.5 -49.9 L-1.7 -50.45 -1.4 -50.35 Q-1.2 -49.6 -0.65 -49.55 L-0.25 -50.4 0.75 -50.05 0.6 -51.8 0.9 -51.75 Q0.9 -50.95 3.6 -49.4 L3.8 -49.7 4.1 -49.6" fill="url(#gradient3)" fill-rule="evenodd" stroke="none"/>
    <path d="M25.45 -29.65 Q29.45 -15.75 27.95 -12.45 L27.5 -12.4 26.0 -15.2 20.55 -28.9 19.6 -31.5 19.55 -31.65 19.5 -31.9 19.45 -31.95 19.45 -32.0 19.35 -32.2 19.3 -32.4 18.95 -33.5 19.15 -33.75 19.7 -33.7 21.4 -32.35 22.45 -31.2 22.7 -31.3 23.6 -30.95 24.3 -29.35 25.1 -28.1 25.45 -28.0 25.45 -29.65 M19.8 -39.95 L18.65 -42.35 18.75 -42.6 19.85 -41.55 20.85 -38.45 19.8 -39.95" fill="url(#gradient4)" fill-rule="evenodd" stroke="none"/>
    <path d="M15.35 -46.2 Q21.6 -46.4 25.4 -29.9 L25.45 -29.7 25.45 -29.65 25.45 -28.0 25.1 -28.1 24.3 -29.35 23.6 -30.95 22.7 -31.3 22.45 -31.2 21.4 -32.35 19.7 -33.7 19.15 -33.75 18.95 -33.5 19.3 -32.4 19.25 -32.4 18.3 -33.65 17.55 -35.5 17.45 -37.5 15.65 -43.45 Q15.3 -43.75 16.7 -44.35 L15.55 -46.05 15.35 -46.2 M19.8 -39.95 L20.85 -38.45 19.85 -41.55 18.75 -42.6 18.65 -42.35 19.8 -39.95 M19.35 -32.2 L19.35 -32.15 19.3 -32.25 19.35 -32.2" fill="url(#gradient5)" fill-rule="evenodd" stroke="none"/>
    <path d="M9.85 -47.0 L10.0 -47.4 10.85 -47.85 12.55 -47.7 12.6 -47.7 13.15 -47.5 13.2 -47.5 14.35 -46.95 15.35 -46.2 15.55 -46.05 16.7 -44.35 Q15.3 -43.75 15.65 -43.45 L17.45 -37.5 17.55 -35.5 18.3 -33.65 19.25 -32.4 19.25 -32.35 19.3 -32.3 19.3 -32.25 19.35 -32.15 19.35 -32.1 19.4 -32.05 19.45 -32.0 19.45 -31.95 19.5 -31.9 19.55 -31.65 19.55 -31.5 Q19.3 -28.6 17.55 -28.05 L16.8 -30.65 16.1 -32.3 15.35 -34.75 Q14.5 -37.15 12.45 -40.05 L10.25 -42.3 9.85 -43.75 9.7 -46.05 9.85 -47.0" fill="url(#gradient6)" fill-rule="evenodd" stroke="none"/>
    <path d="M10.0 -47.4 L10.7 -48.35 10.85 -47.85 10.0 -47.4" fill="url(#gradient7)" fill-rule="evenodd" stroke="none"/>
    <path d="M10.7 -48.35 L12.55 -47.7 10.85 -47.85 10.7 -48.35" fill="url(#gradient8)" fill-rule="evenodd" stroke="none"/>
    <path d="M14.8 -28.5 L14.7 -28.55 12.4 -31.8 Q11.8 -32.05 9.75 -34.4 L8.55 -36.1 8.65 -36.85 8.65 -37.05 8.7 -37.2 8.8 -38.1 8.3 -39.1 Q8.6 -41.35 7.2 -42.95 L7.15 -44.2 7.6 -44.2 8.95 -43.3 10.25 -42.3 12.45 -40.05 Q14.5 -37.15 15.35 -34.75 L16.1 -32.3 Q17.0 -28.95 14.9 -28.4 L14.85 -28.5 14.8 -28.5" fill="url(#gradient9)" fill-rule="evenodd" stroke="none"/>
    <path d="M6.75 -47.35 L8.1 -47.65 9.65 -47.25 9.85 -47.0 9.7 -46.05 9.85 -43.75 10.25 -42.3 8.95 -43.3 9.0 -45.15 7.6 -46.05 7.05 -46.15 6.7 -47.25 6.75 -47.35 M8.55 -36.1 L9.75 -34.4 9.95 -33.45 8.9 -33.9 8.5 -34.25 8.2 -34.75 8.05 -34.9 8.55 -36.1" fill="url(#gradient10)" fill-rule="evenodd" stroke="none"/>
    <path d="M5.15 -46.2 L5.5 -47.15 Q6.65 -47.4 6.55 -46.8 L6.7 -47.25 7.05 -46.15 7.1 -46.05 7.15 -44.2 7.2 -42.95 7.0 -41.7 6.2 -41.35 5.95 -43.45 5.15 -46.05 5.15 -46.2" fill="url(#gradient11)" fill-rule="evenodd" stroke="none"/>
    <path d="M8.95 -43.3 L7.6 -44.2 7.15 -44.2 7.1 -46.05 7.05 -46.15 7.6 -46.05 9.0 -45.15 8.95 -43.3" fill="url(#gradient12)" fill-rule="evenodd" stroke="none"/>
    <path d="M5.05 -46.3 L5.15 -46.2 5.15 -46.05 5.95 -43.45 6.2 -41.35 6.2 -41.3 5.85 -40.95 4.8 -40.95 Q3.65 -43.5 1.6 -42.15 L0.9 -43.25 0.6 -43.85 0.5 -43.85 0.25 -44.15 0.2 -44.6 0.6 -44.8 2.5 -44.45 Q2.9 -44.9 3.8 -44.8 L4.05 -45.75 4.3 -46.05 4.55 -46.55 5.05 -46.3" fill="url(#gradient13)" fill-rule="evenodd" stroke="none"/>
    <path d="M0.25 -44.15 L0.5 -43.85 0.65 -43.55 -0.35 -43.25 -1.0 -42.8 -1.0 -43.2 -1.0 -43.35 -1.0 -43.45 -1.05 -44.4 -1.05 -44.8 -1.05 -45.05 -1.05 -45.2 0.25 -44.15" fill="url(#gradient14)" fill-rule="evenodd" stroke="none"/>
    <path d="M0.5 -43.85 L0.6 -43.85 0.9 -43.25 0.65 -43.55 0.5 -43.85" fill="url(#gradient15)" fill-rule="evenodd" stroke="none"/>
    <path d="M1.6 -42.15 Q3.65 -43.5 4.8 -40.95 L5.2 -39.75 5.35 -36.9 5.2 -33.65 5.0 -31.8 4.5 -28.75 4.1 -35.45 3.5 -34.75 3.35 -34.75 3.25 -35.95 Q3.0 -37.0 2.45 -37.65 L1.8 -37.65 1.45 -37.45 0.85 -34.75 0.8 -34.7 0.75 -34.75 0.6 -38.4 0.65 -38.5 0.75 -40.55 1.25 -41.65 1.3 -41.75 1.4 -41.85 1.6 -42.15" fill="url(#gradient16)" fill-rule="evenodd" stroke="none"/>
    <path d="M-7.25 -34.75 L-8.95 -36.3 -9.3 -37.1 -9.7 -37.85 -9.75 -37.85 Q-8.65 -42.4 -6.6 -41.7 L-4.15 -42.05 -1.65 -42.6 -1.4 -42.45 -1.5 -42.65 -1.0 -42.8 -0.35 -43.25 0.65 -43.55 0.9 -43.25 1.6 -42.15 1.4 -41.85 1.1 -41.75 -0.8 -41.3 -3.95 -40.9 Q-6.45 -40.15 -6.6 -39.7 L-6.6 -39.6 Q-6.65 -39.25 -8.45 -37.65 L-8.55 -36.4 -7.75 -35.3 -7.25 -34.9 -7.25 -34.75 M0.3 -30.9 L0.25 -30.4 0.25 -30.2 -0.25 -26.6 -1.0 -26.65 -2.15 -27.0 -2.05 -30.5 -1.9 -30.8 -0.6 -30.55 0.3 -30.9 M-2.45 -45.0 L-1.5 -44.85 -1.05 -45.05 -1.05 -44.8 -2.45 -44.6 -2.7 -44.55 -2.75 -44.5 -2.45 -45.0" fill="url(#gradient17)" fill-rule="evenodd" stroke="none"/>
    <path d="M1.25 -41.65 L0.75 -40.55 0.65 -38.5 0.6 -38.4 0.75 -34.75 0.8 -34.7 0.4 -31.65 0.05 -31.45 -1.5 -31.6 -1.2 -32.65 -1.1 -34.75 Q-1.25 -36.95 -3.6 -38.95 L-3.45 -39.25 -2.9 -39.55 -1.5 -40.95 -0.8 -41.3 1.1 -41.75 1.2 -41.7 1.25 -41.65" fill="url(#gradient18)" fill-rule="evenodd" stroke="none"/>
    <path d="M1.2 -41.7 L1.1 -41.75 1.4 -41.85 1.3 -41.75 1.2 -41.7" fill="url(#gradient19)" fill-rule="evenodd" stroke="none"/>
    <path d="M1.25 -41.65 L1.2 -41.7 1.3 -41.75 1.25 -41.65" fill="url(#gradient20)" fill-rule="evenodd" stroke="none"/>
    <path d="M0.4 -31.65 L0.8 -34.7 0.85 -34.75 1.45 -37.45 1.8 -37.65 2.45 -37.65 Q3.0 -37.0 3.25 -35.95 L3.35 -34.75 3.5 -34.75 4.1 -35.45 4.5 -28.75 4.3 -20.5 4.3 -20.35 4.15 -17.25 Q3.6 -15.0 3.55 -12.1 3.05 -7.25 2.45 -12.1 1.9 -14.3 1.45 -18.65 L1.55 -12.4 1.4 -12.7 0.85 -15.0 0.85 -15.05 0.8 -15.2 0.8 -15.4 0.75 -15.45 0.5 -16.85 -0.45 -21.55 -0.7 -23.4 -0.25 -26.6 0.25 -30.2 0.25 -30.4 0.3 -30.9 0.4 -31.65 M3.1 -31.0 L2.95 -29.0 3.55 -25.55 3.25 -31.2 3.1 -31.0" fill="url(#gradient21)" fill-rule="evenodd" stroke="none"/>
    <path d="M7.2 -42.95 Q8.6 -41.35 8.3 -39.1 L7.95 -37.85 7.5 -37.0 7.0 -37.7 6.95 -39.05 6.2 -41.3 6.2 -41.35 7.0 -41.7 7.2 -42.95" fill="url(#gradient22)" fill-rule="evenodd" stroke="none"/>
    <path d="M4.8 -40.95 L5.85 -40.95 6.2 -41.3 6.95 -39.05 7.0 -37.7 6.65 -37.3 5.35 -36.9 5.2 -39.75 4.8 -40.95" fill="url(#gradient23)" fill-rule="evenodd" stroke="none"/>
    <path d="M5.2 -33.65 L5.35 -36.9 6.65 -37.3 7.0 -37.7 7.5 -37.0 7.6 -34.75 7.5 -34.35 7.45 -34.2 6.95 -33.6 5.2 -33.65" fill="url(#gradient24)" fill-rule="evenodd" stroke="none"/>
    <path d="M8.3 -39.1 L8.8 -38.1 8.7 -37.2 8.65 -37.05 8.65 -36.85 8.55 -36.1 8.05 -34.9 7.5 -34.35 7.6 -34.75 7.5 -37.0 7.95 -37.85 8.3 -39.1" fill="url(#gradient25)" fill-rule="evenodd" stroke="none"/>
    <path d="M8.05 -34.9 L8.2 -34.75 8.5 -34.25 Q9.1 -33.25 7.95 -31.35 L7.45 -30.85 6.95 -30.65 6.9 -30.7 Q7.65 -31.1 7.45 -34.2 L7.5 -34.35 8.05 -34.9" fill="url(#gradient26)" fill-rule="evenodd" stroke="none"/>
    <path d="M5.0 -31.8 L5.2 -33.65 6.95 -33.6 7.45 -34.2 Q7.65 -31.1 6.9 -30.7 5.8 -29.95 5.2 -30.5 L5.0 -31.8" fill="url(#gradient27)" fill-rule="evenodd" stroke="none"/>
    <path d="M8.55 -28.65 L8.35 -30.2 8.1 -30.5 8.1 -31.1 7.95 -31.35 Q9.1 -33.25 8.5 -34.25 L8.9 -33.9 9.95 -33.45 11.55 -28.9 Q11.45 -27.2 8.8 -27.95 L8.65 -28.05 8.55 -28.65" fill="url(#gradient28)" fill-rule="evenodd" stroke="none"/>
    <path d="M8.1 -30.5 L7.5 -29.1 7.05 -28.5 6.85 -28.35 7.1 -30.25 6.95 -30.65 7.45 -30.85 7.95 -31.35 8.1 -31.1 8.1 -30.5" fill="url(#gradient29)" fill-rule="evenodd" stroke="none"/>
    <path d="M14.7 -28.55 Q15.0 -27.75 14.95 -24.95 L14.7 -23.75 14.25 -23.35 13.8 -23.45 13.0 -25.1 11.55 -28.9 9.95 -33.45 9.75 -34.4 Q11.8 -32.05 12.4 -31.8 L14.7 -28.55" fill="url(#gradient30)" fill-rule="evenodd" stroke="none"/>
    <path d="M4.65 1.1 Q4.7 17.75 2.4 -0.25 L1.95 -6.3 1.7 -9.75 1.6 -9.8 1.6 -10.15 1.6 -12.1 1.55 -12.4 1.45 -18.65 Q1.9 -14.3 2.45 -12.1 3.05 -7.25 3.55 -12.1 3.6 -15.0 4.15 -17.25 L4.3 -20.35 4.4 -19.85 4.5 -14.95 4.55 -7.9 4.55 -7.5 4.55 -7.4 4.55 -6.2 4.55 -5.15 4.55 -5.1 4.65 -3.85 4.65 -2.75 4.65 -2.7 4.65 -1.45 4.65 -0.35 4.65 1.1 M3.1 -31.0 L3.25 -31.2 3.55 -25.55 2.95 -29.0 3.1 -31.0" fill="url(#gradient31)" fill-rule="evenodd" stroke="none"/>
    <path d="M-6.6 -41.7 L-4.5 -42.1 -4.15 -42.05 -6.6 -41.7 M-1.5 -31.6 L0.05 -31.45 0.4 -31.65 0.3 -30.9 -0.6 -30.55 -1.9 -30.8 -1.5 -31.6" fill="url(#gradient32)" fill-rule="evenodd" stroke="none"/>
    <path d="M8.85 -25.85 Q7.45 -27.35 8.55 -28.65 L8.65 -28.05 8.8 -27.95 8.6 -26.7 8.85 -25.85" fill="url(#gradient33)" fill-rule="evenodd" stroke="none"/>
    <path d="M6.9 -30.7 L6.95 -30.65 7.1 -30.25 6.85 -28.35 6.6 -27.95 6.25 -27.6 5.25 -27.5 5.2 -30.5 Q5.8 -29.95 6.9 -30.7" fill="url(#gradient34)" fill-rule="evenodd" stroke="none"/>
    <path d="M7.4 -28.15 L7.65 -27.45 7.45 -26.45 7.2 -25.8 6.8 -25.25 6.5 -24.95 6.05 -24.8 Q6.9 -25.2 6.6 -27.95 L6.85 -28.35 7.05 -28.5 7.4 -28.15" fill="url(#gradient35)" fill-rule="evenodd" stroke="none"/>
    <path d="M7.5 -29.1 L7.4 -28.15 7.05 -28.5 7.5 -29.1" fill="url(#gradient36)" fill-rule="evenodd" stroke="none"/>
    <path d="M7.45 -26.45 L7.35 -24.75 6.8 -25.25 7.2 -25.8 7.45 -26.45 M5.85 -18.9 Q5.6 -18.8 5.35 -17.5 L6.05 -15.85 4.5 -14.95 4.4 -19.85 5.0 -19.1 5.85 -18.9" fill="url(#gradient37)" fill-rule="evenodd" stroke="none"/>
    <path d="M6.6 -27.95 Q6.9 -25.2 6.05 -24.8 L5.9 -24.75 5.1 -24.65 5.25 -27.5 6.25 -27.6 6.6 -27.95" fill="url(#gradient38)" fill-rule="evenodd" stroke="none"/>
    <path d="M7.35 -24.75 Q9.35 -18.9 5.85 -18.9 L5.0 -19.1 4.4 -19.85 4.3 -20.35 4.3 -20.5 Q4.5 -20.4 4.7 -21.8 L5.1 -24.65 5.9 -24.75 6.05 -24.8 6.5 -24.95 6.8 -25.25 7.35 -24.75" fill="url(#gradient39)" fill-rule="evenodd" stroke="none"/>
    <path d="M13.0 -25.1 Q10.1 -23.75 8.85 -25.85 L8.6 -26.7 8.8 -27.95 Q11.45 -27.2 11.55 -28.9 L13.0 -25.1" fill="url(#gradient40)" fill-rule="evenodd" stroke="none"/>
    <path d="M4.5 -28.75 L5.0 -31.8 5.2 -30.5 5.25 -27.5 5.1 -24.65 4.7 -21.8 Q4.5 -20.4 4.3 -20.5 L4.5 -28.75" fill="url(#gradient41)" fill-rule="evenodd" stroke="none"/>
    <path d="M19.3 -32.4 L19.35 -32.2 19.45 -32.0 19.4 -32.05 19.35 -32.1 19.35 -32.15 19.35 -32.2 19.3 -32.25 19.3 -32.3 19.25 -32.35 19.25 -32.4 19.3 -32.4 M19.55 -31.65 L19.6 -31.5 19.55 -31.5 19.55 -31.65" fill="url(#gradient42)" fill-rule="evenodd" stroke="none"/>
    <path d="M20.55 -28.9 L19.45 -24.95 18.65 -23.3 Q17.95 -22.4 17.5 -22.9 L17.3 -24.8 Q18.05 -24.65 17.55 -28.05 19.3 -28.6 19.55 -31.5 L19.6 -31.5 20.55 -28.9" fill="url(#gradient43)" fill-rule="evenodd" stroke="none"/>
    <path d="M17.3 -24.8 Q16.8 -24.8 16.4 -25.45 L14.8 -28.5 14.85 -28.5 14.9 -28.4 Q17.0 -28.95 16.1 -32.3 L16.8 -30.65 17.55 -28.05 Q18.05 -24.65 17.3 -24.8" fill="url(#gradient44)" fill-rule="evenodd" stroke="none"/>
    <path d="M1.4 -12.7 L1.55 -12.4 1.6 -12.1 1.6 -10.15 1.4 -12.7" fill="url(#gradient45)" fill-rule="evenodd" stroke="none"/>
    <path d="M6.05 -15.85 Q7.9 -13.9 7.1 -9.65 L7.05 -9.55 Q6.3 -7.7 4.55 -7.9 L4.5 -14.95 6.05 -15.85" fill="url(#gradient46)" fill-rule="evenodd" stroke="none"/>
    <path d="M7.1 -9.65 L7.15 -8.95 Q7.1 -7.6 4.55 -7.4 L4.55 -7.5 Q7.15 -7.6 7.05 -9.55 L7.1 -9.65" fill="url(#gradient47)" fill-rule="evenodd" stroke="none"/>
    <path d="M7.15 -8.95 L7.15 -7.7 6.85 -7.05 6.7 -6.85 5.8 -6.3 4.55 -6.2 4.55 -7.4 Q7.1 -7.6 7.15 -8.95" fill="url(#gradient48)" fill-rule="evenodd" stroke="none"/>
    <path d="M6.85 -7.05 L6.9 -6.2 Q6.3 -4.85 4.55 -5.1 L4.55 -5.15 Q6.9 -5.25 6.7 -6.85 L6.85 -7.05" fill="url(#gradient49)" fill-rule="evenodd" stroke="none"/>
    <path d="M7.05 -9.55 Q7.15 -7.6 4.55 -7.5 L4.55 -7.9 Q6.3 -7.7 7.05 -9.55 M4.55 -6.2 L5.8 -6.3 6.7 -6.85 Q6.9 -5.25 4.55 -5.15 L4.55 -6.2 M4.65 -0.35 L4.65 -1.45 Q5.35 -1.4 5.85 -1.75 L6.25 -2.15 6.05 -1.45 5.4 -0.8 4.65 -0.35 M4.65 -2.75 L4.65 -3.85 5.6 -3.9 6.1 -4.15 Q6.15 -3.55 5.65 -3.05 L4.65 -2.75" fill="url(#gradient50)" fill-rule="evenodd" stroke="none"/>
    <path d="M6.5 -2.7 Q8.55 0.35 4.65 1.1 L4.65 -0.35 5.4 -0.8 6.05 -1.45 6.25 -2.15 6.5 -2.7 M2.4 -0.25 L0.55 -2.0 0.65 -3.45 0.6 -4.15 1.0 -5.55 1.05 -6.5 1.95 -6.3 2.4 -0.25" fill="url(#gradient51)" fill-rule="evenodd" stroke="none"/>
    <path d="M-4.3 -4.15 Q-5.45 -7.35 -4.15 -10.4 L-4.0 -10.4 -3.8 -10.7 -3.75 -10.7 Q-3.9 -10.25 -2.45 -10.2 L-2.4 -8.9 -2.25 -9.2 -0.45 -10.9 -0.4 -11.5 Q0.7 -10.7 0.9 -9.35 L1.05 -6.5 1.0 -5.55 0.6 -4.15 0.5 -3.75 Q-1.8 -1.1 -4.0 -3.35 L-4.0 -3.4 -4.1 -3.7 -4.3 -4.15" fill="url(#gradient52)" fill-rule="evenodd" stroke="none"/>
    <path d="M6.9 -6.2 L6.85 -5.1 6.55 -4.5 6.1 -4.15 5.6 -3.9 4.65 -3.85 4.55 -5.1 Q6.3 -4.85 6.9 -6.2" fill="url(#gradient53)" fill-rule="evenodd" stroke="none"/>
    <path d="M-4.3 -3.6 L-4.3 -3.75 -4.25 -3.6 -4.3 -3.6 M0.6 -4.15 L0.65 -3.45 Q-1.2 -0.1 -4.2 -3.55 L-4.05 -3.4 -4.0 -3.35 Q-1.3 -0.35 0.5 -3.75 L0.6 -4.15" fill="url(#gradient54)" fill-rule="evenodd" stroke="none"/>
    <path d="M0.55 -2.0 L0.5 -1.8 0.05 -1.2 -1.25 -0.65 -2.15 -0.65 -2.55 -0.8 -3.05 -0.9 -3.75 -1.4 -3.85 -1.5 -4.2 -2.15 -4.3 -3.6 -4.25 -3.6 -4.2 -3.55 Q-1.2 -0.1 0.65 -3.45 L0.55 -2.0" fill="url(#gradient55)" fill-rule="evenodd" stroke="none"/>
    <path d="M0.5 -1.8 L0.5 -1.75 0.5 -1.15 0.5 -1.1 0.35 -0.8 Q-1.9 1.25 -3.5 -0.8 L-3.75 -1.4 -3.05 -0.9 -2.55 -0.8 -2.15 -0.65 -1.25 -0.65 0.05 -1.2 0.5 -1.8 M0.7 0.45 L0.7 0.5 0.7 0.7 0.65 0.9 0.25 1.7 Q-0.55 2.25 -2.8 1.25 0.0 2.05 0.6 0.35 L0.7 0.45 M0.85 2.0 L1.05 2.8 0.85 3.2 Q-0.9 3.55 -0.9 3.9 L-1.5 4.0 -1.85 4.45 -2.0 4.45 Q-4.55 2.3 -3.55 1.3 -1.95 5.35 0.85 2.0 M-4.3 -4.0 L-4.3 -4.05 -4.25 -4.0 -4.3 -4.0 M0.5 -3.75 Q-1.3 -0.35 -4.0 -3.35 -1.8 -1.1 0.5 -3.75 M-4.05 -3.4 L-4.2 -3.55 -4.25 -3.9 -4.1 -3.7 -4.0 -3.4 -4.05 -3.4" fill="url(#gradient56)" fill-rule="evenodd" stroke="none"/>
    <path d="M0.5 -1.75 L0.6 -1.25 0.5 -1.15 0.5 -1.75 M-3.85 -1.25 L-3.85 -1.5 -3.75 -1.4 -3.5 -0.8 Q-1.9 1.25 0.35 -0.8 L0.5 -1.1 0.5 -0.8 Q-2.5 1.7 -3.65 -0.8 L-3.85 -1.1 -3.85 -1.25" fill="url(#gradient57)" fill-rule="evenodd" stroke="none"/>
    <path d="M0.6 -1.25 L0.65 0.1 0.6 0.35 Q0.0 2.05 -2.8 1.25 L-2.95 1.1 -3.05 1.1 -3.05 1.05 -3.55 0.45 -3.85 -0.8 -3.85 -1.1 -3.65 -0.8 Q-2.5 1.7 0.5 -0.8 L0.5 -1.1 0.5 -1.15 0.6 -1.25" fill="url(#gradient58)" fill-rule="evenodd" stroke="none"/>
    <path d="M6.55 -4.5 L6.65 -3.9 6.55 -3.7 6.1 -3.05 Q5.65 -2.6 4.65 -2.7 L4.65 -2.75 5.65 -3.05 Q6.15 -3.55 6.1 -4.15 L6.55 -4.5" fill="url(#gradient59)" fill-rule="evenodd" stroke="none"/>
    <path d="M6.55 -3.7 L6.5 -2.7 6.25 -2.15 5.85 -1.75 Q5.35 -1.4 4.65 -1.45 L4.65 -2.7 Q5.65 -2.6 6.1 -3.05 L6.55 -3.7" fill="url(#gradient60)" fill-rule="evenodd" stroke="none"/>
    <path d="M0.65 0.1 L0.7 0.45 0.6 0.35 0.65 0.1 M0.7 0.5 L0.75 0.7 0.7 0.7 0.7 0.5 M-3.55 0.45 L-3.05 1.05 -3.05 1.1 -2.95 1.1 -2.8 1.25 Q-0.55 2.25 0.25 1.7 -1.05 3.55 -3.5 1.2 L-3.55 0.45" fill="url(#gradient61)" fill-rule="evenodd" stroke="none"/>
    <path d="M0.75 0.7 L0.85 2.0 Q-1.95 5.35 -3.55 1.3 L-3.5 1.2 Q-1.05 3.55 0.25 1.7 L0.65 0.9 0.7 0.7 0.75 0.7" fill="url(#gradient62)" fill-rule="evenodd" stroke="none"/>
    <path d="M1.05 2.8 Q1.85 9.15 -5.1 3.65 L-8.05 1.05 -8.15 0.1 -6.9 -1.7 Q-5.95 -2.35 -3.85 -1.25 L-3.85 -1.1 -3.85 -0.8 -3.55 0.45 -3.5 1.2 -3.55 1.3 Q-4.55 2.3 -2.0 4.45 L-1.85 4.45 -1.5 4.0 -0.9 3.9 Q-0.9 3.55 0.85 3.2 L1.05 2.8" fill="url(#gradient63)" fill-rule="evenodd" stroke="none"/>
    <path d="M-1.05 -57.05 L-0.75 -57.15 -0.65 -57.05 -1.05 -57.05" fill="url(#gradient64)" fill-rule="evenodd" stroke="none"/>
    <path d="M-4.3 -57.3 L-5.0 -55.65 -5.05 -55.55 -5.75 -55.5 -6.0 -56.05 -6.55 -55.55 -6.65 -55.6 -6.5 -56.45 -6.2 -56.95 -5.85 -57.25 -5.25 -57.4 -4.4 -57.35 -4.3 -57.3" fill="url(#gradient65)" fill-rule="evenodd" stroke="none"/>
    <path d="M-6.35 -54.9 L-6.15 -55.3 -5.75 -55.5 -5.05 -55.55 -4.8 -55.45 Q-5.1 -53.3 -1.85 -50.45 L-3.8 -51.5 -5.7 -53.0 Q-6.7 -54.25 -6.35 -54.9" fill="url(#gradient66)" fill-rule="evenodd" stroke="none"/>
    <path d="M-6.65 -51.65 Q-9.45 -50.75 -8.7 -45.4 L-9.6 -47.6 -9.8 -50.05 -9.15 -52.7 Q-8.0 -55.3 -6.35 -54.9 -6.7 -54.25 -5.7 -53.0 L-5.75 -52.7 -6.5 -52.15 -6.65 -51.65" fill="url(#gradient67)" fill-rule="evenodd" stroke="none"/>
    <path d="M-3.25 -43.85 L-5.35 -46.4 Q-6.9 -49.05 -6.65 -51.65 L-6.5 -52.15 -5.75 -52.7 Q-5.2 -51.9 -5.1 -50.6 L-3.95 -47.85 -3.9 -47.1 -3.55 -46.05 -3.5 -45.95 -3.35 -45.55 -2.85 -44.45 -2.75 -44.3 -2.0 -43.3 -1.95 -43.25 -1.5 -42.65 -1.4 -42.45 -1.65 -42.6 -2.35 -43.1 -3.2 -43.85 -3.25 -43.85" fill="url(#gradient68)" fill-rule="evenodd" stroke="none"/>
    <path d="M-3.9 -47.1 L-3.55 -46.55 -2.65 -46.35 -2.8 -46.05 -3.5 -45.95 -3.55 -46.05 -3.9 -47.1" fill="url(#gradient69)" fill-rule="evenodd" stroke="none"/>
    <path d="M-3.95 -47.85 L-3.1 -47.4 -1.05 -45.2 -1.05 -45.05 -1.5 -44.85 -2.45 -45.0 -3.05 -45.15 -3.35 -45.55 -3.5 -45.95 -2.8 -46.05 -2.65 -46.35 -3.55 -46.55 -3.9 -47.1 -3.95 -47.85" fill="url(#gradient70)" fill-rule="evenodd" stroke="none"/>
    <path d="M-9.3 -37.1 L-9.75 -37.85 -9.7 -37.85 -9.3 -37.1 M-3.55 -43.15 L-3.25 -43.85 -3.2 -43.85 -3.55 -43.15 M-2.75 -44.5 L-2.7 -44.55 -2.45 -44.6 -2.75 -44.3 -2.85 -44.45 -2.75 -44.5 M-7.25 -35.3 L-7.25 -34.9 -7.75 -35.3 -8.55 -36.4 -7.9 -35.7 -7.25 -35.3" fill="url(#gradient71)" fill-rule="evenodd" stroke="none"/>
    <path d="M-1.95 -43.25 L-2.0 -43.3 -1.05 -44.4 -1.0 -43.45 -1.7 -43.35 -1.0 -43.35 -1.0 -43.2 -1.95 -43.25" fill="url(#gradient72)" fill-rule="evenodd" stroke="none"/>
    <path d="M-4.5 -42.1 L-3.75 -42.5 -2.35 -43.1 -1.65 -42.6 -4.15 -42.05 -4.5 -42.1 M-0.8 -41.3 L-1.5 -40.95 -2.9 -39.55 -3.45 -39.25 -3.6 -38.95 -4.65 -39.2 -6.35 -38.65 -6.35 -38.6 -6.3 -38.55 -6.35 -38.55 -6.3 -38.5 -7.05 -37.25 -7.25 -35.3 -7.9 -35.7 -8.55 -36.4 -8.45 -37.65 Q-6.65 -39.25 -6.6 -39.6 L-6.6 -39.7 Q-6.45 -40.15 -3.95 -40.9 L-0.8 -41.3 M-1.5 -42.65 L-1.95 -43.25 -1.0 -43.2 -1.0 -42.8 -1.5 -42.65 M-1.0 -43.45 L-1.0 -43.35 -1.7 -43.35 -1.0 -43.45" fill="url(#gradient73)" fill-rule="evenodd" stroke="none"/>
    <path d="M-3.75 -42.5 L-3.55 -43.15 -3.2 -43.85 -2.35 -43.1 -3.75 -42.5 M-2.45 -44.6 L-1.05 -44.8 -1.05 -44.4 -2.0 -43.3 -2.75 -44.3 -2.45 -44.6" fill="url(#gradient74)" fill-rule="evenodd" stroke="none"/>
    <path d="M-6.65 -28.35 L-6.5 -31.9 Q-6.55 -31.2 -7.25 -34.75 L-7.25 -34.9 -7.25 -35.3 -7.05 -37.25 -6.3 -38.5 -6.3 -38.55 -6.35 -38.6 -6.35 -38.65 -4.65 -39.2 -3.6 -38.95 Q-1.25 -36.95 -1.1 -34.75 L-1.2 -32.65 -1.5 -31.6 -1.9 -30.8 -2.05 -30.5 -2.15 -27.0 -2.45 -24.5 -2.55 -23.9 -2.85 -23.4 Q-4.6 -22.1 -5.45 -23.4 -6.05 -23.6 -6.35 -24.5 L-6.45 -25.4 -6.65 -28.2 -6.65 -28.35" fill="url(#gradient75)" fill-rule="evenodd" stroke="none"/>
    <path d="M-6.7 -28.2 L-6.65 -28.35 -6.65 -28.2 -6.7 -28.2 M-6.3 -38.5 L-6.35 -38.55 -6.3 -38.55 -6.3 -38.5" fill="url(#gradient76)" fill-rule="evenodd" stroke="none"/>
    <path d="M-7.15 -16.6 L-8.0 -20.05 -7.15 -19.25 -7.0 -18.8 -7.0 -16.7 -7.15 -16.6 M-8.4 -22.55 L-7.9 -26.85 -6.7 -28.2 -6.65 -28.2 -6.45 -25.4 -6.75 -25.1 -6.9 -24.5 -7.15 -24.4 -7.35 -24.5 -7.5 -24.35 -7.45 -23.4 -7.3 -23.05 -7.4 -22.3 Q-8.3 -23.4 -8.4 -22.55 M-0.45 -21.55 L0.5 -16.85 Q-0.1 -13.15 -0.25 -13.5 L-0.4 -11.5 -0.45 -10.9 -2.25 -9.2 -2.4 -8.9 -2.45 -10.2 Q-3.9 -10.25 -3.75 -10.7 L-3.8 -10.75 -3.85 -10.85 -4.25 -11.65 -3.55 -12.1 Q-1.1 -14.15 -3.85 -16.85 L-3.6 -18.35 Q-2.95 -18.75 -2.35 -21.9 L-1.9 -21.8 -1.4 -21.9 -0.45 -21.55" fill="url(#gradient77)" fill-rule="evenodd" stroke="none"/>
    <path d="M-6.9 -24.5 L-6.75 -25.1 -6.45 -25.4 -6.35 -24.5 Q-6.05 -23.6 -5.45 -23.4 -4.6 -22.1 -2.85 -23.4 L-2.55 -23.9 -2.45 -24.5 -2.35 -21.9 Q-2.95 -18.75 -3.6 -18.35 L-3.85 -16.85 Q-4.45 -15.4 -7.0 -16.7 L-7.0 -18.8 -7.15 -19.25 -7.35 -20.15 -7.4 -22.3 -7.3 -23.05 -6.9 -24.5" fill="url(#gradient78)" fill-rule="evenodd" stroke="none"/>
    <path d="M-2.15 -27.0 L-1.0 -26.65 -0.25 -26.6 -0.7 -23.4 -0.45 -21.55 -1.4 -21.9 -1.9 -21.8 -2.35 -21.9 -2.45 -24.5 -2.15 -27.0" fill="url(#gradient79)" fill-rule="evenodd" stroke="none"/>
    <path d="M-7.3 -23.05 L-7.45 -23.4 -7.5 -24.35 -7.35 -24.5 -7.15 -24.4 -6.9 -24.5 -7.3 -23.05" fill="url(#gradient80)" fill-rule="evenodd" stroke="none"/>
    <path d="M-8.0 -20.05 L-8.4 -21.15 -8.4 -22.55 Q-8.3 -23.4 -7.4 -22.3 L-7.35 -20.15 -7.15 -19.25 -8.0 -20.05" fill="url(#gradient81)" fill-rule="evenodd" stroke="none"/>
    <path d="M-4.6 -11.5 Q-9.9 -11.9 -7.15 -16.6 L-7.0 -16.7 Q-4.45 -15.4 -3.85 -16.85 -1.1 -14.15 -3.55 -12.1 L-4.25 -11.65 -4.6 -11.5" fill="url(#gradient82)" fill-rule="evenodd" stroke="none"/>
    <path d="M-3.85 -10.85 L-3.8 -10.75 -3.8 -10.7 -4.0 -10.4 -4.05 -10.9 -3.85 -10.85" fill="url(#gradient83)" fill-rule="evenodd" stroke="none"/>
    <path d="M-4.35 -11.3 L-4.6 -11.5 -4.25 -11.65 -3.85 -10.85 -4.05 -10.9 -4.35 -11.3" fill="url(#gradient84)" fill-rule="evenodd" stroke="none"/>
    <path d="M-4.15 -10.4 L-4.35 -11.3 -4.05 -10.9 -4.0 -10.4 -4.15 -10.4" fill="url(#gradient85)" fill-rule="evenodd" stroke="none"/>
    <path d="M-3.8 -10.75 L-3.75 -10.7 -3.8 -10.7 -3.8 -10.75" fill="url(#gradient86)" fill-rule="evenodd" stroke="none"/>
    <path d="M-4.3 -3.75 L-4.3 -4.0 -4.25 -4.0 -4.25 -3.9 -4.2 -3.55 -4.25 -3.6 -4.3 -3.75" fill="url(#gradient87)" fill-rule="evenodd" stroke="none"/>
    <path d="M-4.3 -4.05 L-4.3 -4.15 -4.1 -3.7 -4.25 -3.9 -4.25 -4.0 -4.3 -4.05 M-4.0 -3.35 L-4.05 -3.4 -4.0 -3.4 -4.0 -3.35" fill="url(#gradient88)" fill-rule="evenodd" stroke="none"/>
  </g>
  <defs>
    <radialGradient cx="0" cy="0" gradientTransform="matrix(0.0085, 0.0, 0.0, 0.0085, -4.55, -54.65)" gradientUnits="userSpaceOnUse" id="gradient0" r="819.2" spreadMethod="pad">
      <stop offset="0.0" stop-color="#69b4e0"/>
      <stop offset="1.0" stop-color="#345a71"/>
    </radialGradient>
    <radialGradient cx="0" cy="0" gradientTransform="matrix(0.0082, 0.0, 0.0, 0.0082, -0.05, -51.35)" gradientUnits="userSpaceOnUse" id="gradient1" r="819.2" spreadMethod="pad">
      <stop offset="0.0" stop-color="#70c0f0"/>
      <stop offset="1.0" stop-color="#447693"/>
    </radialGradient>
    <radialGradient cx="0" cy="0" gradientTransform="matrix(0.0075, 0.0, 0.0, 0.0075, 3.55, -48.15)" gradientUnits="userSpaceOnUse" id="gradient2" r="819.2" spreadMethod="pad">
      <stop offset="0.0" stop-color="#6dbbe9"/>
      <stop offset="1.0" stop-color="#447693"/>
    </radialGradient>
    <radialGradient cx="0" cy="0" gradientTransform="matrix(0.007, 0.0, 0.0, 0.007, 1.25, -49.3)" gradientUnits="userSpaceOnUse" id="gradient3" r="819.2" spreadMethod="pad">
      <stop offset="0.0" stop-color="#71c2f2"/>
      <stop offset="1.0" stop-color="#518caf"/>
    </radialGradient>
    <radialGradient cx="0" cy="0" gradientTransform="matrix(0.0383, 0.0, 0.0, 0.0383, 18.7, -42.6)" gradientUnits="userSpaceOnUse" id="gradient4" r="819.2" spreadMethod="pad">
      <stop offset="0.0" stop-color="#f3f3f3"/>
      <stop offset="1.0" stop-color="#acacac"/>
    </radialGradient>
    <radialGradient cx="0" cy="0" gradientTransform="matrix(0.0255, 0.0, 0.0, 0.0255, 14.55, -45.15)" gradientUnits="userSpaceOnUse" id="gradient5" r="819.2" spreadMethod="pad">
      <stop offset="0.0" stop-color="#ffffff"/>
      <stop offset="1.0" stop-color="#b4b4b4"/>
    </radialGradient>
    <radialGradient cx="0" cy="0" gradientTransform="matrix(0.0244, 0.0, 0.0, 0.0244, 11.3, -46.6)" gradientUnits="userSpaceOnUse" id="gradient6" r="819.2" spreadMethod="pad">
      <stop offset="0.0" stop-color="#fdfdfd"/>
      <stop offset="1.0" stop-color="#939393"/>
    </radialGradient>
    <radialGradient cx="0" cy="0" gradientTransform="matrix(0.0013, 0.0, 0.0, 0.0013, 10.75, -47.95)" gradientUnits="userSpaceOnUse" id="gradient7" r="819.2" spreadMethod="pad">
      <stop offset="0.0" stop-color="#868686"/>
      <stop offset="1.0" stop-color="#848484"/>
    </radialGradient>
    <radialGradient cx="0" cy="0" gradientTransform="matrix(0.0041, 0.0, 0.0, 0.0041, 10.75, -47.95)" gradientUnits="userSpaceOnUse" id="gradient8" r="819.2" spreadMethod="pad">
      <stop offset="0.0" stop-color="#686868"/>
      <stop offset="1.0" stop-color="#434343"/>
    </radialGradient>
    <radialGradient cx="0" cy="0" gradientTransform="matrix(0.0189, 0.0, 0.0, 0.0189, 8.2, -42.25)" gradientUnits="userSpaceOnUse" id="gradient9" r="819.2" spreadMethod="pad">
      <stop offset="0.0" stop-color="#ffffff"/>
      <stop offset="1.0" stop-color="#898989"/>
    </radialGradient>
    <radialGradient cx="0" cy="0" gradientTransform="matrix(0.0152, 0.0, 0.0, 0.0152, 8.35, -45.2)" gradientUnits="userSpaceOnUse" id="gradient10" r="819.2" spreadMethod="pad">
      <stop offset="0.0" stop-color="#404c79"/>
      <stop offset="1.0" stop-color="#2a3250"/>
    </radialGradient>
    <radialGradient cx="0" cy="0" gradientTransform="matrix(0.0069, 0.0, 0.0, 0.0069, 4.6, -46.75)" gradientUnits="userSpaceOnUse" id="gradient11" r="819.2" spreadMethod="pad">
      <stop offset="0.0" stop-color="#6ebeec"/>
      <stop offset="1.0" stop-color="#4e87a9"/>
    </radialGradient>
    <radialGradient cx="0" cy="0" gradientTransform="matrix(0.0054, 0.0, 0.0, 0.0054, 8.3, -43.05)" gradientUnits="userSpaceOnUse" id="gradient12" r="819.2" spreadMethod="pad">
      <stop offset="0.0" stop-color="#8989ab"/>
      <stop offset="1.0" stop-color="#5c5c73"/>
    </radialGradient>
    <radialGradient cx="0" cy="0" gradientTransform="matrix(0.0091, 0.0, 0.0, 0.0091, 3.2, -47.75)" gradientUnits="userSpaceOnUse" id="gradient13" r="819.2" spreadMethod="pad">
      <stop offset="0.0" stop-color="#6fbfed"/>
      <stop offset="1.0" stop-color="#538eb1"/>
    </radialGradient>
    <radialGradient cx="0" cy="0" gradientTransform="matrix(0.0038, 0.0, 0.0, 0.0038, 0.75, -43.65)" gradientUnits="userSpaceOnUse" id="gradient14" r="819.2" spreadMethod="pad">
      <stop offset="0.0" stop-color="#8888a9"/>
      <stop offset="1.0" stop-color="#696984"/>
    </radialGradient>
    <radialGradient cx="0" cy="0" gradientTransform="matrix(0.0025, 0.0, 0.0, 0.0025, 1.2, -42.7)" gradientUnits="userSpaceOnUse" id="gradient15" r="819.2" spreadMethod="pad">
      <stop offset="0.0" stop-color="#0e181e"/>
      <stop offset="1.0" stop-color="#0e181e"/>
    </radialGradient>
    <radialGradient cx="0" cy="0" gradientTransform="matrix(0.0329, 0.0, 0.0, 0.0329, 3.3, -41.4)" gradientUnits="userSpaceOnUse" id="gradient16" r="819.2" spreadMethod="pad">
      <stop offset="0.0" stop-color="#cacaca"/>
      <stop offset="1.0" stop-color="#a8a8a8"/>
    </radialGradient>
    <radialGradient cx="0" cy="0" gradientTransform="matrix(0.0214, 0.0, 0.0, 0.0214, -1.65, -27.85)" gradientUnits="userSpaceOnUse" id="gradient17" r="819.2" spreadMethod="pad">
      <stop offset="0.0" stop-color="#414d7b"/>
      <stop offset="1.0" stop-color="#272e49"/>
    </radialGradient>
    <radialGradient cx="0" cy="0" gradientTransform="matrix(0.0076, 0.0, 0.0, 0.0076, -0.55, -37.4)" gradientUnits="userSpaceOnUse" id="gradient18" r="819.2" spreadMethod="pad">
      <stop offset="0.0" stop-color="#a5a5ce"/>
      <stop offset="1.0" stop-color="#56566b"/>
    </radialGradient>
    <radialGradient cx="0" cy="0" gradientTransform="matrix(0.0055, 0.0, 0.0, 0.0055, 1.85, -42.05)" gradientUnits="userSpaceOnUse" id="gradient19" r="819.2" spreadMethod="pad">
      <stop offset="0.0" stop-color="#15151a"/>
      <stop offset="1.0" stop-color="#15151a"/>
    </radialGradient>
    <radialGradient cx="0" cy="0" gradientTransform="matrix(0.0078, 0.0, 0.0, 0.0078, -2.45, -40.7)" gradientUnits="userSpaceOnUse" id="gradient20" r="819.2" spreadMethod="pad">
      <stop offset="0.0" stop-color="#15151a"/>
      <stop offset="1.0" stop-color="#15151a"/>
    </radialGradient>
    <radialGradient cx="0" cy="0" gradientTransform="matrix(0.0191, 0.0, 0.0, 0.0191, 2.15, -24.55)" gradientUnits="userSpaceOnUse" id="gradient21" r="819.2" spreadMethod="pad">
      <stop offset="0.0" stop-color="#e3e3e3"/>
      <stop offset="1.0" stop-color="#ababab"/>
    </radialGradient>
    <radialGradient cx="0" cy="0" gradientTransform="matrix(0.0068, 0.0, 0.0, 0.0068, 5.45, -42.2)" gradientUnits="userSpaceOnUse" id="gradient22" r="819.2" spreadMethod="pad">
      <stop offset="0.0" stop-color="#73c6f6"/>
      <stop offset="1.0" stop-color="#518bad"/>
    </radialGradient>
    <radialGradient cx="0" cy="0" gradientTransform="matrix(0.0067, 0.0, 0.0, 0.0067, 4.4, -41.95)" gradientUnits="userSpaceOnUse" id="gradient23" r="819.2" spreadMethod="pad">
      <stop offset="0.0" stop-color="#73c6f6"/>
      <stop offset="1.0" stop-color="#4b81a1"/>
    </radialGradient>
    <radialGradient cx="0" cy="0" gradientTransform="matrix(0.0063, 0.0, 0.0, 0.0063, 6.25, -38.5)" gradientUnits="userSpaceOnUse" id="gradient24" r="819.2" spreadMethod="pad">
      <stop offset="0.0" stop-color="#72c3f4"/>
      <stop offset="1.0" stop-color="#3a647c"/>
    </radialGradient>
    <radialGradient cx="0" cy="0" gradientTransform="matrix(0.0048, 0.0, 0.0, 0.0048, 6.95, -38.05)" gradientUnits="userSpaceOnUse" id="gradient25" r="819.2" spreadMethod="pad">
      <stop offset="0.0" stop-color="#68b3df"/>
      <stop offset="1.0" stop-color="#41718c"/>
    </radialGradient>
    <radialGradient cx="0" cy="0" gradientTransform="matrix(0.0044, 0.0, 0.0, 0.0044, 6.95, -34.2)" gradientUnits="userSpaceOnUse" id="gradient26" r="819.2" spreadMethod="pad">
      <stop offset="0.0" stop-color="#6cb9e6"/>
      <stop offset="1.0" stop-color="#406e89"/>
    </radialGradient>
    <radialGradient cx="0" cy="0" gradientTransform="matrix(0.0049, 0.0, 0.0, 0.0049, 6.65, -34.25)" gradientUnits="userSpaceOnUse" id="gradient27" r="819.2" spreadMethod="pad">
      <stop offset="0.0" stop-color="#73c5f6"/>
      <stop offset="1.0" stop-color="#355b72"/>
    </radialGradient>
    <radialGradient cx="0" cy="0" gradientTransform="matrix(0.0095, 0.0, 0.0, 0.0095, 9.65, -34.3)" gradientUnits="userSpaceOnUse" id="gradient28" r="819.2" spreadMethod="pad">
      <stop offset="0.0" stop-color="#404b79"/>
      <stop offset="1.0" stop-color="#20263c"/>
    </radialGradient>
    <radialGradient cx="0" cy="0" gradientTransform="matrix(0.0038, 0.0, 0.0, 0.0038, 6.5, -31.5)" gradientUnits="userSpaceOnUse" id="gradient29" r="819.2" spreadMethod="pad">
      <stop offset="0.0" stop-color="#6dbbe9"/>
      <stop offset="1.0" stop-color="#3b667f"/>
    </radialGradient>
    <radialGradient cx="0" cy="0" gradientTransform="matrix(0.0131, 0.0, 0.0, 0.0131, 11.6, -33.85)" gradientUnits="userSpaceOnUse" id="gradient30" r="819.2" spreadMethod="pad">
      <stop offset="0.0" stop-color="#c1c1c1"/>
      <stop offset="1.0" stop-color="#828282"/>
    </radialGradient>
    <radialGradient cx="0" cy="0" gradientTransform="matrix(0.0494, 0.0, 0.0, 0.0494, 2.1, -31.4)" gradientUnits="userSpaceOnUse" id="gradient31" r="819.2" spreadMethod="pad">
      <stop offset="0.0" stop-color="#f0f0f0"/>
      <stop offset="1.0" stop-color="#a5a5a5"/>
    </radialGradient>
    <radialGradient cx="0" cy="0" gradientTransform="matrix(0.0139, 0.0, 0.0, 0.0139, -0.4, -32.35)" gradientUnits="userSpaceOnUse" id="gradient32" r="819.2" spreadMethod="pad">
      <stop offset="0.0" stop-color="#9c9cc3"/>
      <stop offset="1.0" stop-color="#4d4d5f"/>
    </radialGradient>
    <radialGradient cx="0" cy="0" gradientTransform="matrix(0.0027, 0.0, 0.0, 0.0027, 8.95, -27.8)" gradientUnits="userSpaceOnUse" id="gradient33" r="819.2" spreadMethod="pad">
      <stop offset="0.0" stop-color="#b6b6e4"/>
      <stop offset="1.0" stop-color="#5e5e75"/>
    </radialGradient>
    <radialGradient cx="0" cy="0" gradientTransform="matrix(0.0044, 0.0, 0.0, 0.0044, 6.25, -31.05)" gradientUnits="userSpaceOnUse" id="gradient34" r="819.2" spreadMethod="pad">
      <stop offset="0.0" stop-color="#74c8f9"/>
      <stop offset="1.0" stop-color="#345a70"/>
    </radialGradient>
    <radialGradient cx="0" cy="0" gradientTransform="matrix(0.0039, 0.0, 0.0, 0.0039, 6.15, -27.9)" gradientUnits="userSpaceOnUse" id="gradient35" r="819.2" spreadMethod="pad">
      <stop offset="0.0" stop-color="#6ebeec"/>
      <stop offset="1.0" stop-color="#365d75"/>
    </radialGradient>
    <radialGradient cx="0" cy="0" gradientTransform="matrix(0.0028, 0.0, 0.0, 0.0028, 6.45, -27.85)" gradientUnits="userSpaceOnUse" id="gradient36" r="819.2" spreadMethod="pad">
      <stop offset="0.0" stop-color="#747491"/>
      <stop offset="1.0" stop-color="#5f5f76"/>
    </radialGradient>
    <radialGradient cx="0" cy="0" gradientTransform="matrix(0.0162, 0.0, 0.0, 0.0162, 4.55, -13.8)" gradientUnits="userSpaceOnUse" id="gradient37" r="819.2" spreadMethod="pad">
      <stop offset="0.0" stop-color="#72728f"/>
      <stop offset="1.0" stop-color="#5e5e75"/>
    </radialGradient>
    <radialGradient cx="0" cy="0" gradientTransform="matrix(0.004, 0.0, 0.0, 0.004, 5.85, -27.95)" gradientUnits="userSpaceOnUse" id="gradient38" r="819.2" spreadMethod="pad">
      <stop offset="0.0" stop-color="#76cbfd"/>
      <stop offset="1.0" stop-color="#31556b"/>
    </radialGradient>
    <radialGradient cx="0" cy="0" gradientTransform="matrix(0.0057, 0.0, 0.0, 0.0057, 6.0, -23.7)" gradientUnits="userSpaceOnUse" id="gradient39" r="819.2" spreadMethod="pad">
      <stop offset="0.0" stop-color="#78ceff"/>
      <stop offset="1.0" stop-color="#32576c"/>
    </radialGradient>
    <radialGradient cx="0" cy="0" gradientTransform="matrix(0.0036, 0.0, 0.0, 0.0036, 11.35, -27.55)" gradientUnits="userSpaceOnUse" id="gradient40" r="819.2" spreadMethod="pad">
      <stop offset="0.0" stop-color="#445181"/>
      <stop offset="1.0" stop-color="#20253c"/>
    </radialGradient>
    <radialGradient cx="0" cy="0" gradientTransform="matrix(0.0234, 0.0, 0.0, 0.0234, 2.15, -38.7)" gradientUnits="userSpaceOnUse" id="gradient41" r="819.2" spreadMethod="pad">
      <stop offset="0.0" stop-color="#eeeeee"/>
      <stop offset="1.0" stop-color="#9c9c9c"/>
    </radialGradient>
    <radialGradient cx="0" cy="0" gradientTransform="matrix(0.0286, 0.0, 0.0, 0.0286, 26.0, -15.35)" gradientUnits="userSpaceOnUse" id="gradient42" r="819.2" spreadMethod="pad">
      <stop offset="0.0" stop-color="#202020"/>
      <stop offset="1.0" stop-color="#202020"/>
    </radialGradient>
    <radialGradient cx="0" cy="0" gradientTransform="matrix(0.0126, 0.0, 0.0, 0.0126, 19.6, -33.0)" gradientUnits="userSpaceOnUse" id="gradient43" r="819.2" spreadMethod="pad">
      <stop offset="0.0" stop-color="#cccccc"/>
      <stop offset="1.0" stop-color="#bcbcbc"/>
    </radialGradient>
    <radialGradient cx="0" cy="0" gradientTransform="matrix(0.0091, 0.0, 0.0, 0.0091, 15.8, -32.2)" gradientUnits="userSpaceOnUse" id="gradient44" r="819.2" spreadMethod="pad">
      <stop offset="0.0" stop-color="#e0e0e0"/>
      <stop offset="1.0" stop-color="#b9b9b9"/>
    </radialGradient>
    <radialGradient cx="0" cy="0" gradientTransform="matrix(0.0037, 0.0, 0.0, 0.0037, 1.6, -12.75)" gradientUnits="userSpaceOnUse" id="gradient45" r="819.2" spreadMethod="pad">
      <stop offset="0.0" stop-color="#939393"/>
      <stop offset="1.0" stop-color="#888888"/>
    </radialGradient>
    <radialGradient cx="0" cy="0" gradientTransform="matrix(0.0102, 0.0, 0.0, 0.0102, 4.3, -16.05)" gradientUnits="userSpaceOnUse" id="gradient46" r="819.2" spreadMethod="pad">
      <stop offset="0.0" stop-color="#bebeed"/>
      <stop offset="1.0" stop-color="#535369"/>
    </radialGradient>
    <radialGradient cx="0" cy="0" gradientTransform="matrix(0.0043, 0.0, 0.0, 0.0043, 4.85, -7.5)" gradientUnits="userSpaceOnUse" id="gradient47" r="819.2" spreadMethod="pad">
      <stop offset="0.0" stop-color="#3f4b77"/>
      <stop offset="1.0" stop-color="#3e4a76"/>
    </radialGradient>
    <radialGradient cx="0" cy="0" gradientTransform="matrix(0.0034, 0.0, 0.0, 0.0034, 4.85, -7.5)" gradientUnits="userSpaceOnUse" id="gradient48" r="819.2" spreadMethod="pad">
      <stop offset="0.0" stop-color="#282f4b"/>
      <stop offset="1.0" stop-color="#222942"/>
    </radialGradient>
    <radialGradient cx="0" cy="0" gradientTransform="matrix(0.0034, 0.0, 0.0, 0.0034, 4.85, -5.1)" gradientUnits="userSpaceOnUse" id="gradient49" r="819.2" spreadMethod="pad">
      <stop offset="0.0" stop-color="#3f4a77"/>
      <stop offset="1.0" stop-color="#3e4a76"/>
    </radialGradient>
    <radialGradient cx="0" cy="0" gradientTransform="matrix(0.0097, 0.0, 0.0, 0.0097, 4.45, -2.25)" gradientUnits="userSpaceOnUse" id="gradient50" r="819.2" spreadMethod="pad">
      <stop offset="0.0" stop-color="#7c7c9a"/>
      <stop offset="1.0" stop-color="#606078"/>
    </radialGradient>
    <radialGradient cx="0" cy="0" gradientTransform="matrix(0.0092, 0.0, 0.0, 0.0092, 5.2, -1.5)" gradientUnits="userSpaceOnUse" id="gradient51" r="819.2" spreadMethod="pad">
      <stop offset="0.0" stop-color="#bebeee"/>
      <stop offset="1.0" stop-color="#7a7a98"/>
    </radialGradient>
    <radialGradient cx="0" cy="0" gradientTransform="matrix(0.0109, 0.0, 0.0, 0.0109, -1.9, -10.95)" gradientUnits="userSpaceOnUse" id="gradient52" r="819.2" spreadMethod="pad">
      <stop offset="0.0" stop-color="#c0c0f0"/>
      <stop offset="1.0" stop-color="#515166"/>
    </radialGradient>
    <radialGradient cx="0" cy="0" gradientTransform="matrix(0.003, 0.0, 0.0, 0.003, 4.85, -5.1)" gradientUnits="userSpaceOnUse" id="gradient53" r="819.2" spreadMethod="pad">
      <stop offset="0.0" stop-color="#29314e"/>
      <stop offset="1.0" stop-color="#222942"/>
    </radialGradient>
    <radialGradient cx="0" cy="0" gradientTransform="matrix(0.0056, 0.0, 0.0, 0.0056, -3.8, -2.75)" gradientUnits="userSpaceOnUse" id="gradient54" r="819.2" spreadMethod="pad">
      <stop offset="0.0" stop-color="#3f4b78"/>
      <stop offset="1.0" stop-color="#3f4a77"/>
    </radialGradient>
    <radialGradient cx="0" cy="0" gradientTransform="matrix(0.0046, 0.0, 0.0, 0.0046, -1.45, -1.7)" gradientUnits="userSpaceOnUse" id="gradient55" r="819.2" spreadMethod="pad">
      <stop offset="0.0" stop-color="#262d48"/>
      <stop offset="1.0" stop-color="#1f243a"/>
    </radialGradient>
    <radialGradient cx="0" cy="0" gradientTransform="matrix(0.0115, 0.0, 0.0, 0.0115, -0.85, 4.45)" gradientUnits="userSpaceOnUse" id="gradient56" r="819.2" spreadMethod="pad">
      <stop offset="0.0" stop-color="#8787a9"/>
      <stop offset="1.0" stop-color="#535368"/>
    </radialGradient>
    <radialGradient cx="0" cy="0" gradientTransform="matrix(0.0055, 0.0, 0.0, 0.0055, -3.9, -1.6)" gradientUnits="userSpaceOnUse" id="gradient57" r="819.2" spreadMethod="pad">
      <stop offset="0.0" stop-color="#414d7b"/>
      <stop offset="1.0" stop-color="#414d7b"/>
    </radialGradient>
    <radialGradient cx="0" cy="0" gradientTransform="matrix(0.0042, 0.0, 0.0, 0.0042, -1.25, 0.6)" gradientUnits="userSpaceOnUse" id="gradient58" r="819.2" spreadMethod="pad">
      <stop offset="0.0" stop-color="#242a44"/>
      <stop offset="1.0" stop-color="#1e2439"/>
    </radialGradient>
    <radialGradient cx="0" cy="0" gradientTransform="matrix(0.0026, 0.0, 0.0, 0.0026, 5.9, -3.1)" gradientUnits="userSpaceOnUse" id="gradient59" r="819.2" spreadMethod="pad">
      <stop offset="0.0" stop-color="#3e4a76"/>
      <stop offset="1.0" stop-color="#3e4a76"/>
    </radialGradient>
    <radialGradient cx="0" cy="0" gradientTransform="matrix(0.0029, 0.0, 0.0, 0.0029, 4.6, -2.8)" gradientUnits="userSpaceOnUse" id="gradient60" r="819.2" spreadMethod="pad">
      <stop offset="0.0" stop-color="#2a3250"/>
      <stop offset="1.0" stop-color="#1f243a"/>
    </radialGradient>
    <radialGradient cx="0" cy="0" gradientTransform="matrix(0.0042, 0.0, 0.0, 0.0042, -1.75, 2.4)" gradientUnits="userSpaceOnUse" id="gradient61" r="819.2" spreadMethod="pad">
      <stop offset="0.0" stop-color="#434f7e"/>
      <stop offset="1.0" stop-color="#424e7d"/>
    </radialGradient>
    <radialGradient cx="0" cy="0" gradientTransform="matrix(0.0042, 0.0, 0.0, 0.0042, -1.0, 2.65)" gradientUnits="userSpaceOnUse" id="gradient62" r="819.2" spreadMethod="pad">
      <stop offset="0.0" stop-color="#222840"/>
      <stop offset="1.0" stop-color="#1d2237"/>
    </radialGradient>
    <radialGradient cx="0" cy="0" gradientTransform="matrix(0.0105, 0.0, 0.0, 0.0105, -0.1, 2.95)" gradientUnits="userSpaceOnUse" id="gradient63" r="819.2" spreadMethod="pad">
      <stop offset="0.0" stop-color="#c3c3f3"/>
      <stop offset="1.0" stop-color="#8484a5"/>
    </radialGradient>
    <radialGradient cx="0" cy="0" gradientTransform="matrix(0.0022, 0.0, 0.0, 0.0022, -2.15, -56.1)" gradientUnits="userSpaceOnUse" id="gradient64" r="819.2" spreadMethod="pad">
      <stop offset="0.0" stop-color="#3f6b86"/>
      <stop offset="1.0" stop-color="#3a647d"/>
    </radialGradient>
    <radialGradient cx="0" cy="0" gradientTransform="matrix(0.0035, 0.0, 0.0, 0.0035, -4.2, -55.1)" gradientUnits="userSpaceOnUse" id="gradient65" r="819.2" spreadMethod="pad">
      <stop offset="0.0" stop-color="#6ab6e3"/>
      <stop offset="1.0" stop-color="#375f77"/>
    </radialGradient>
    <radialGradient cx="0" cy="0" gradientTransform="matrix(0.0052, 0.0, 0.0, 0.0052, -3.65, -52.0)" gradientUnits="userSpaceOnUse" id="gradient66" r="819.2" spreadMethod="pad">
      <stop offset="0.0" stop-color="#61a7d1"/>
      <stop offset="1.0" stop-color="#3b657e"/>
    </radialGradient>
    <radialGradient cx="0" cy="0" gradientTransform="matrix(0.0107, 0.0, 0.0, 0.0107, -5.2, -53.5)" gradientUnits="userSpaceOnUse" id="gradient67" r="819.2" spreadMethod="pad">
      <stop offset="0.0" stop-color="#6ebdec"/>
      <stop offset="1.0" stop-color="#39627a"/>
    </radialGradient>
    <radialGradient cx="0" cy="0" gradientTransform="matrix(0.0096, 0.0, 0.0, 0.0096, -5.15, -49.4)" gradientUnits="userSpaceOnUse" id="gradient68" r="819.2" spreadMethod="pad">
      <stop offset="0.0" stop-color="#73c6f7"/>
      <stop offset="1.0" stop-color="#487c9a"/>
    </radialGradient>
    <radialGradient cx="0" cy="0" gradientTransform="matrix(0.0013, 0.0, 0.0, 0.0013, -3.1, -46.7)" gradientUnits="userSpaceOnUse" id="gradient69" r="819.2" spreadMethod="pad">
      <stop offset="0.0" stop-color="#374168"/>
      <stop offset="1.0" stop-color="#2c3454"/>
    </radialGradient>
    <radialGradient cx="0" cy="0" gradientTransform="matrix(0.0032, 0.0, 0.0, 0.0032, -2.45, -46.4)" gradientUnits="userSpaceOnUse" id="gradient70" r="819.2" spreadMethod="pad">
      <stop offset="0.0" stop-color="#9c9cc3"/>
      <stop offset="1.0" stop-color="#424253"/>
    </radialGradient>
    <radialGradient cx="0" cy="0" gradientTransform="matrix(0.0133, 0.0, 0.0, 0.0133, -9.75, -37.95)" gradientUnits="userSpaceOnUse" id="gradient71" r="819.2" spreadMethod="pad">
      <stop offset="0.0" stop-color="#252c46"/>
      <stop offset="1.0" stop-color="#08090e"/>
    </radialGradient>
    <radialGradient cx="0" cy="0" gradientTransform="matrix(0.0038, 0.0, 0.0, 0.0038, -0.4, -43.35)" gradientUnits="userSpaceOnUse" id="gradient72" r="819.2" spreadMethod="pad">
      <stop offset="0.0" stop-color="#767693"/>
      <stop offset="1.0" stop-color="#414151"/>
    </radialGradient>
    <radialGradient cx="0" cy="0" gradientTransform="matrix(0.007, 0.0, 0.0, 0.007, -3.95, -39.9)" gradientUnits="userSpaceOnUse" id="gradient73" r="819.2" spreadMethod="pad">
      <stop offset="0.0" stop-color="#ababd5"/>
      <stop offset="1.0" stop-color="#4e4e62"/>
    </radialGradient>
    <radialGradient cx="0" cy="0" gradientTransform="matrix(0.004, 0.0, 0.0, 0.004, -2.6, -42.85)" gradientUnits="userSpaceOnUse" id="gradient74" r="819.2" spreadMethod="pad">
      <stop offset="0.0" stop-color="#747491"/>
      <stop offset="1.0" stop-color="#545469"/>
    </radialGradient>
    <radialGradient cx="0" cy="0" gradientTransform="matrix(0.0171, 0.0, 0.0, 0.0171, -4.35, -36.35)" gradientUnits="userSpaceOnUse" id="gradient75" r="819.2" spreadMethod="pad">
      <stop offset="0.0" stop-color="#3d4974"/>
      <stop offset="1.0" stop-color="#29304d"/>
    </radialGradient>
    <radialGradient cx="0" cy="0" gradientTransform="matrix(0.0162, 0.0, 0.0, 0.0162, -5.6, -38.55)" gradientUnits="userSpaceOnUse" id="gradient76" r="819.2" spreadMethod="pad">
      <stop offset="0.0" stop-color="#141826"/>
      <stop offset="1.0" stop-color="#08090e"/>
    </radialGradient>
    <radialGradient cx="0" cy="0" gradientTransform="matrix(0.0191, 0.0, 0.0, 0.0191, -1.85, -23.6)" gradientUnits="userSpaceOnUse" id="gradient77" r="819.2" spreadMethod="pad">
      <stop offset="0.0" stop-color="#a5a5ce"/>
      <stop offset="1.0" stop-color="#6c6c86"/>
    </radialGradient>
    <radialGradient cx="0" cy="0" gradientTransform="matrix(0.012, 0.0, 0.0, 0.012, -4.7, -24.15)" gradientUnits="userSpaceOnUse" id="gradient78" r="819.2" spreadMethod="pad">
      <stop offset="0.0" stop-color="#404b78"/>
      <stop offset="1.0" stop-color="#222940"/>
    </radialGradient>
    <radialGradient cx="0" cy="0" gradientTransform="matrix(0.0083, 0.0, 0.0, 0.0083, -1.75, -28.3)" gradientUnits="userSpaceOnUse" id="gradient79" r="819.2" spreadMethod="pad">
      <stop offset="0.0" stop-color="#b5b5e2"/>
      <stop offset="1.0" stop-color="#8282a2"/>
    </radialGradient>
    <radialGradient cx="0" cy="0" gradientTransform="matrix(0.0027, 0.0, 0.0, 0.0027, -6.65, -24.7)" gradientUnits="userSpaceOnUse" id="gradient80" r="819.2" spreadMethod="pad">
      <stop offset="0.0" stop-color="#333d61"/>
      <stop offset="1.0" stop-color="#222941"/>
    </radialGradient>
    <radialGradient cx="0" cy="0" gradientTransform="matrix(0.0029, 0.0, 0.0, 0.0029, -7.3, -21.3)" gradientUnits="userSpaceOnUse" id="gradient81" r="819.2" spreadMethod="pad">
      <stop offset="0.0" stop-color="#343e63"/>
      <stop offset="1.0" stop-color="#232941"/>
    </radialGradient>
    <radialGradient cx="0" cy="0" gradientTransform="matrix(0.004, 0.0, 0.0, 0.004, -5.3, -14.8)" gradientUnits="userSpaceOnUse" id="gradient82" r="819.2" spreadMethod="pad">
      <stop offset="0.0" stop-color="#424f7e"/>
      <stop offset="1.0" stop-color="#1d2237"/>
    </radialGradient>
    <radialGradient cx="0" cy="0" gradientTransform="matrix(0.0028, 0.0, 0.0, 0.0028, -4.1, -11.05)" gradientUnits="userSpaceOnUse" id="gradient83" r="819.2" spreadMethod="pad">
      <stop offset="0.0" stop-color="#8282a2"/>
      <stop offset="1.0" stop-color="#80809f"/>
    </radialGradient>
    <radialGradient cx="0" cy="0" gradientTransform="matrix(0.0023, 0.0, 0.0, 0.0023, -3.4, -11.15)" gradientUnits="userSpaceOnUse" id="gradient84" r="819.2" spreadMethod="pad">
      <stop offset="0.0" stop-color="#6c6c87"/>
      <stop offset="1.0" stop-color="#545468"/>
    </radialGradient>
    <radialGradient cx="0" cy="0" gradientTransform="matrix(0.0034, 0.0, 0.0, 0.0034, -3.8, -8.8)" gradientUnits="userSpaceOnUse" id="gradient85" r="819.2" spreadMethod="pad">
      <stop offset="0.0" stop-color="#4f4f62"/>
      <stop offset="1.0" stop-color="#464658"/>
    </radialGradient>
    <radialGradient cx="0" cy="0" gradientTransform="matrix(0.0197, 0.0, 0.0, 0.0197, -8.3, -24.15)" gradientUnits="userSpaceOnUse" id="gradient86" r="819.2" spreadMethod="pad">
      <stop offset="0.0" stop-color="#62627b"/>
      <stop offset="1.0" stop-color="#15151a"/>
    </radialGradient>
    <radialGradient cx="0" cy="0" gradientTransform="matrix(0.0044, 0.0, 0.0, 0.0044, -3.8, -1.85)" gradientUnits="userSpaceOnUse" id="gradient87" r="819.2" spreadMethod="pad">
      <stop offset="0.0" stop-color="#4e4e62"/>
      <stop offset="1.0" stop-color="#15151a"/>
    </radialGradient>
    <radialGradient cx="0" cy="0" gradientTransform="matrix(0.008, 0.0, 0.0, 0.008, -4.6, -5.0)" gradientUnits="userSpaceOnUse" id="gradient88" r="819.2" spreadMethod="pad">
      <stop offset="0.0" stop-color="#4a4a5d"/>
      <stop offset="1.0" stop-color="#15151a"/>
    </radialGradient>
  </defs>
</svg>
