<?xml version="1.0" encoding="UTF-8" standalone="no"?>
<svg xmlns:ffdec="https://www.free-decompiler.com/flash" xmlns:xlink="http://www.w3.org/1999/xlink" ffdec:objectType="shape" height="79.45px" width="63.4px" xmlns="http://www.w3.org/2000/svg">
  <g transform="matrix(1.0, 0.0, 0.0, 1.0, 47.6, 56.65)">
    <path d="M1.0 -56.35 L3.75 -56.45 4.8 -55.45 4.95 -55.2 4.95 -54.65 4.75 -54.25 4.6 -54.05 Q2.9 -54.6 2.75 -54.95 L2.65 -55.25 2.6 -55.3 2.25 -55.6 1.8 -55.6 1.3 -55.7 0.55 -55.7 -0.9 -55.55 1.0 -56.35" fill="url(#gradient0)" fill-rule="evenodd" stroke="none"/>
    <path d="M-0.9 -55.55 L0.55 -55.7 1.3 -55.7 1.8 -55.6 2.6 -55.3 2.65 -55.25 2.75 -54.95 Q2.9 -54.6 4.6 -54.05 L4.95 -53.0 Q5.3 -51.65 5.1 -51.3 L3.4 -46.7 2.15 -45.85 2.5 -46.25 2.7 -46.8 1.85 -46.65 Q0.8 -48.45 0.5 -48.2 0.2 -47.9 -0.6 -48.6 L-1.45 -48.4 -1.7 -49.2 -2.1 -49.7 -3.15 -49.05 -3.65 -49.25 -4.15 -48.6 -4.35 -48.75 -4.7 -48.45 Q-5.55 -48.65 -5.3 -50.2 L-5.5 -50.5 -5.3 -51.35 -4.55 -52.7 -4.85 -52.6 -4.8 -52.5 -5.5 -51.7 -5.6 -51.8 -5.35 -52.15 -5.45 -52.3 -4.35 -53.75 Q-2.45 -55.35 -1.65 -55.3 L-0.9 -55.55" fill="url(#gradient1)" fill-rule="evenodd" stroke="none"/>
    <path d="M4.6 -54.05 L4.75 -54.25 6.9 -53.95 7.05 -53.8 Q12.4 -49.55 11.35 -43.25 10.4 -48.9 6.05 -50.15 L6.05 -50.6 5.1 -51.3 Q5.3 -51.65 4.95 -53.0 L4.6 -54.05" fill="url(#gradient2)" fill-rule="evenodd" stroke="none"/>
    <path d="M4.75 -54.25 L4.95 -54.65 4.95 -55.2 4.8 -55.45 7.25 -55.25 8.75 -54.5 9.6 -53.5 Q8.85 -54.15 7.05 -53.8 L6.9 -53.95 4.75 -54.25" fill="url(#gradient3)" fill-rule="evenodd" stroke="none"/>
    <path d="M1.0 -56.35 L-0.9 -55.55 -1.65 -55.3 Q-4.4 -55.6 -5.85 -54.65 L-4.25 -55.8 -2.4 -56.45 1.0 -56.35 M1.8 -55.6 L2.25 -55.6 2.6 -55.3 1.8 -55.6" fill="url(#gradient4)" fill-rule="evenodd" stroke="none"/>
    <path d="M6.05 -50.15 Q5.85 -44.25 1.65 -41.65 L1.5 -41.5 1.35 -41.8 2.45 -43.25 2.75 -44.05 2.9 -44.5 3.35 -45.65 3.4 -46.7 5.1 -51.3 6.05 -50.6 6.05 -50.15" fill="url(#gradient5)" fill-rule="evenodd" stroke="none"/>
    <path d="M-4.7 -48.45 L-4.35 -48.75 -4.15 -48.6 -3.65 -49.25 -3.15 -49.05 -2.1 -49.7 -1.7 -49.2 -1.45 -48.4 -0.6 -48.6 Q0.2 -47.9 0.5 -48.2 0.8 -48.45 1.85 -46.65 L2.7 -46.8 2.5 -46.25 2.15 -45.85 1.3 -44.9 0.9 -44.55 0.7 -44.25 0.4 -43.9 -0.25 -43.35 -0.45 -43.45 -0.8 -43.35 -4.5 -43.7 -4.65 -44.5 -4.95 -44.75 -5.15 -45.3 -5.7 -44.9 -5.75 -45.15 Q-5.55 -45.05 -5.35 -47.0 L-4.7 -48.45" fill="url(#gradient6)" fill-rule="evenodd" stroke="none"/>
    <path d="M1.3 -44.9 L2.15 -45.85 3.4 -46.7 3.35 -45.65 Q1.3 -44.35 2.9 -44.5 L2.75 -44.05 2.45 -43.7 1.8 -43.55 1.7 -43.65 1.8 -44.8 1.3 -44.9" fill="url(#gradient7)" fill-rule="evenodd" stroke="none"/>
    <path d="M0.4 -43.9 L0.7 -44.25 0.95 -43.4 0.5 -43.6 0.4 -43.9" fill="url(#gradient8)" fill-rule="evenodd" stroke="none"/>
    <path d="M0.7 -44.25 L0.9 -44.55 1.7 -43.65 1.8 -43.55 0.95 -43.4 0.7 -44.25" fill="url(#gradient9)" fill-rule="evenodd" stroke="none"/>
    <path d="M-0.25 -43.35 L0.4 -43.9 0.5 -43.6 0.4 -43.1 -0.25 -43.35 M-2.4 -40.6 L-2.5 -39.95 -2.75 -39.7 -2.75 -39.95 -2.75 -40.2 -2.4 -40.6" fill="url(#gradient10)" fill-rule="evenodd" stroke="none"/>
    <path d="M0.9 -44.55 L1.3 -44.9 1.8 -44.8 1.7 -43.65 0.9 -44.55" fill="url(#gradient11)" fill-rule="evenodd" stroke="none"/>
    <path d="M3.35 -45.65 L2.9 -44.5 Q1.3 -44.35 3.35 -45.65" fill="url(#gradient12)" fill-rule="evenodd" stroke="none"/>
    <path d="M3.1 -41.3 L3.6 -41.3 3.75 -41.25 6.5 -40.9 7.3 -39.8 7.4 -39.65 7.55 -39.6 8.2 -38.0 8.0 -37.35 7.35 -38.35 6.2 -38.9 5.95 -39.35 Q6.0 -39.85 3.15 -40.45 L1.6 -40.35 1.5 -41.45 3.1 -41.3" fill="url(#gradient13)" fill-rule="evenodd" stroke="none"/>
    <path d="M-0.8 -43.35 L-0.45 -43.45 -0.25 -43.35 0.4 -43.1 0.95 -42.9 1.35 -41.8 1.5 -41.5 1.5 -41.45 1.6 -40.35 1.6 -40.0 1.65 -38.35 1.55 -37.05 1.3 -37.2 0.5 -36.7 0.0 -35.45 -1.4 -26.5 -1.8 -20.5 -1.9 -21.75 -1.95 -21.8 -2.75 -35.45 -2.75 -36.05 -2.5 -39.95 -2.4 -40.6 -1.8 -42.6 -0.8 -43.35" fill="url(#gradient14)" fill-rule="evenodd" stroke="none"/>
    <path d="M1.65 -41.65 L3.1 -41.3 1.5 -41.45 1.5 -41.5 1.65 -41.65 M1.6 -40.35 L3.15 -40.45 Q6.0 -39.85 5.95 -39.35 L6.2 -38.9 5.95 -39.0 4.45 -38.95 4.1 -38.7 1.6 -40.0 1.6 -40.35" fill="url(#gradient15)" fill-rule="evenodd" stroke="none"/>
    <path d="M1.55 -37.05 L1.65 -38.35 1.6 -40.0 4.1 -38.7 4.0 -38.35 Q3.75 -36.1 2.9 -36.2 L2.9 -35.7 1.55 -37.05 M3.75 -32.2 L3.8 -32.2 4.2 -31.85 3.9 -31.5 3.75 -32.2 M-2.75 -39.7 L-2.5 -39.95 -2.75 -36.05 -2.75 -35.7 -2.95 -33.95 -3.0 -33.95 -3.75 -35.65 -3.8 -35.7 -3.85 -36.55 -3.6 -37.25 -3.1 -38.35 -2.75 -39.7" fill="url(#gradient16)" fill-rule="evenodd" stroke="none"/>
    <path d="M8.0 -37.35 Q8.45 -34.05 10.5 -30.65 L10.9 -29.3 Q11.05 -28.5 10.45 -27.45 8.45 -25.75 7.45 -27.9 6.3 -29.0 5.45 -31.1 L4.45 -31.7 4.2 -31.85 3.8 -32.2 3.75 -32.3 3.6 -33.85 2.9 -35.7 2.9 -36.2 Q3.75 -36.1 4.0 -38.35 L4.1 -38.7 4.45 -38.95 5.95 -39.0 6.2 -38.9 7.35 -38.35 8.0 -37.35" fill="url(#gradient17)" fill-rule="evenodd" stroke="none"/>
    <path d="M1.55 -37.05 L2.9 -35.7 3.6 -33.85 3.75 -32.3 3.75 -32.2 3.9 -31.5 4.15 -27.2 4.25 -23.4 3.95 -21.6 3.5 -19.7 3.3 -18.55 3.1 -17.9 1.7 -12.25 1.95 -13.7 Q-0.45 -6.85 -0.75 -14.65 L-0.75 -14.8 -1.4 -14.65 Q-1.45 -16.25 -1.7 -15.95 L-1.85 -19.4 -1.8 -20.5 -1.4 -26.5 0.0 -35.45 0.5 -36.7 1.3 -37.2 1.55 -37.05" fill="url(#gradient18)" fill-rule="evenodd" stroke="none"/>
    <path d="M3.75 -32.2 L3.75 -32.3 3.8 -32.2 3.75 -32.2" fill="url(#gradient19)" fill-rule="evenodd" stroke="none"/>
    <path d="M4.45 -31.7 L4.7 -31.05 4.85 -28.95 5.1 -28.15 4.15 -27.2 3.9 -31.5 4.2 -31.85 4.45 -31.7 M-3.0 -30.4 L-2.7 -22.8 -3.0 -22.8 -3.6 -22.8 -3.85 -22.95 -4.2 -23.3 -4.05 -23.85 -4.05 -24.7 -4.05 -25.45 -4.2 -26.0 -4.2 -26.5 -4.25 -26.55 -4.15 -26.95 -4.25 -28.0 -4.15 -29.3 -4.3 -29.8 -4.25 -30.05 -3.9 -29.95 -4.25 -30.25 -4.25 -30.75 -3.15 -30.45 -3.0 -30.4" fill="url(#gradient20)" fill-rule="evenodd" stroke="none"/>
    <path d="M5.1 -28.15 L5.25 -28.05 5.05 -27.8 5.1 -26.5 4.8 -22.95 3.95 -21.6 4.25 -23.4 4.15 -27.2 5.1 -28.15" fill="url(#gradient21)" fill-rule="evenodd" stroke="none"/>
    <path d="M5.25 -28.05 Q5.5 -28.4 7.3 -25.65 L7.5 -21.3 7.4 -21.6 6.9 -21.45 6.4 -20.85 3.8 -19.15 3.3 -18.55 3.5 -19.7 Q5.7 -20.05 6.4 -21.65 7.75 -24.7 4.8 -22.95 L5.1 -26.5 5.05 -27.8 5.25 -28.05 M7.0 -18.8 L6.2 -15.3 Q5.75 -13.85 3.65 -10.95 L2.65 -9.25 1.95 -8.8 1.15 -8.55 1.7 -12.25 3.1 -17.9 Q5.5 -16.75 7.0 -18.8" fill="url(#gradient22)" fill-rule="evenodd" stroke="none"/>
    <path d="M10.5 -30.65 Q12.8 -29.55 13.4 -25.95 L13.55 -25.55 13.75 -25.05 13.1 -23.85 11.55 -23.5 Q11.25 -23.45 10.6 -24.35 7.6 -26.15 7.45 -27.9 8.45 -25.75 10.45 -27.45 11.05 -28.5 10.9 -29.3 L10.5 -30.65" fill="url(#gradient23)" fill-rule="evenodd" stroke="none"/>
    <path d="M13.95 -25.5 Q17.55 -23.8 14.05 -20.25 9.4 -19.75 10.6 -24.35 11.25 -23.45 11.55 -23.5 L13.1 -23.85 13.75 -25.05 13.55 -25.55 13.95 -25.5" fill="url(#gradient24)" fill-rule="evenodd" stroke="none"/>
    <path d="M13.4 -25.95 L13.95 -25.5 13.55 -25.55 13.4 -25.95" fill="url(#gradient25)" fill-rule="evenodd" stroke="none"/>
    <path d="M7.5 -21.3 L7.55 -20.15 7.0 -18.8 Q5.5 -16.75 3.1 -17.9 L3.3 -18.55 3.8 -19.15 6.4 -20.85 6.9 -21.45 7.4 -21.6 7.5 -21.3" fill="url(#gradient26)" fill-rule="evenodd" stroke="none"/>
    <path d="M3.5 -19.7 L3.95 -21.6 4.8 -22.95 Q7.75 -24.7 6.4 -21.65 5.7 -20.05 3.5 -19.7" fill="url(#gradient27)" fill-rule="evenodd" stroke="none"/>
    <path d="M3.65 -10.95 L3.3 -9.7 3.0 -9.3 2.65 -9.25 3.65 -10.95" fill="url(#gradient28)" fill-rule="evenodd" stroke="none"/>
    <path d="M3.0 -9.3 L3.1 -8.8 3.0 -7.25 2.5 -5.05 1.8 -3.35 1.2 -2.25 -0.25 -0.1 -0.35 -0.15 1.15 -8.55 1.95 -8.8 2.65 -9.25 3.0 -9.3 M-4.7 -2.25 L-4.2 -4.7 -3.9 -5.2 -4.25 -1.65 -4.3 -1.65 -4.4 -1.9 -4.7 -1.9 -4.7 -2.25" fill="url(#gradient29)" fill-rule="evenodd" stroke="none"/>
    <path d="M3.0 -7.25 L3.3 -6.8 3.25 -6.2 3.1 -5.8 2.5 -5.05 3.0 -7.25" fill="url(#gradient30)" fill-rule="evenodd" stroke="none"/>
    <path d="M3.1 -8.8 Q13.85 -9.9 1.2 -2.25 L1.8 -3.35 Q3.3 -3.45 3.25 -6.2 L3.3 -6.8 3.0 -7.25 3.1 -8.8" fill="url(#gradient31)" fill-rule="evenodd" stroke="none"/>
    <path d="M-0.45 0.35 L-2.25 9.15 -2.3 9.2 -2.4 9.85 -2.45 9.9 -2.55 10.55 -2.6 10.6 -2.9 11.9 -2.95 12.05 -3.5 14.6 -4.95 19.15 -5.35 20.8 -6.25 22.75 -6.4 22.8 -6.85 22.25 -6.8 19.65 -6.15 14.2 -5.55 9.55 -5.45 8.75 -5.3 7.3 -5.2 6.85 -5.05 5.7 -4.85 3.8 -4.85 3.6 -4.65 1.65 -4.35 -0.5 -4.35 -0.7 -4.25 -1.4 -4.25 -1.65 -3.9 -5.2 -3.35 -10.6 -2.55 -15.25 -2.2 -18.0 -1.85 -19.4 -1.7 -15.95 Q-1.45 -16.25 -1.4 -14.65 L-0.75 -14.8 -0.75 -14.65 Q-0.45 -6.85 1.95 -13.7 L1.7 -12.25 1.15 -8.55 -0.35 -0.15 -0.4 0.15 -0.45 0.35" fill="url(#gradient32)" fill-rule="evenodd" stroke="none"/>
    <path d="M2.5 -5.05 L3.1 -5.8 3.25 -6.2 Q3.3 -3.45 1.8 -3.35 L2.5 -5.05" fill="url(#gradient33)" fill-rule="evenodd" stroke="none"/>
    <path d="M-7.45 -45.8 L-7.5 -48.8 Q-6.25 -51.75 -5.65 -52.0 L-5.45 -52.3 -5.35 -52.15 -5.6 -51.8 -5.5 -51.7 -4.8 -52.5 -4.85 -52.6 -4.55 -52.7 -5.3 -51.35 -5.5 -50.5 -5.3 -50.2 Q-5.55 -48.65 -4.7 -48.45 L-5.35 -47.0 Q-5.55 -45.05 -5.75 -45.15 -5.75 -46.55 -7.1 -45.35 L-7.45 -45.8" fill="url(#gradient34)" fill-rule="evenodd" stroke="none"/>
    <path d="M-24.8 -30.2 Q-46.75 -6.7 -46.95 -7.35 L-47.6 -7.65 -46.4 -10.55 -38.45 -21.8 -30.7 -31.0 -31.1 -30.2 -30.95 -29.8 -29.8 -30.4 -28.5 -31.55 Q-28.35 -30.4 -26.75 -31.0 L-23.05 -32.7 -22.85 -32.55 -24.8 -30.2" fill="url(#gradient35)" fill-rule="evenodd" stroke="none"/>
    <path d="M-5.7 -44.9 L-5.15 -45.3 -4.95 -44.75 -4.65 -44.5 -4.5 -43.7 -0.8 -43.35 -1.8 -42.6 -2.4 -40.6 -2.75 -40.2 -2.75 -39.95 Q-3.05 -39.05 -6.8 -39.95 L-6.8 -40.0 Q-7.0 -40.85 -6.4 -42.6 L-5.7 -44.9" fill="url(#gradient36)" fill-rule="evenodd" stroke="none"/>
    <path d="M-8.35 -47.0 L-8.1 -46.95 -7.8 -46.35 -8.35 -47.0" fill="url(#gradient37)" fill-rule="evenodd" stroke="none"/>
    <path d="M-18.5 -25.65 Q-22.25 -20.75 -22.05 -26.1 L-19.75 -30.2 Q-20.2 -32.05 -19.25 -35.55 L-18.35 -36.75 -16.0 -41.15 -15.1 -43.5 -15.05 -44.3 -14.3 -45.15 Q-12.2 -48.0 -8.35 -47.0 L-7.8 -46.35 -7.65 -46.15 -7.75 -44.85 -7.75 -44.55 -7.9 -43.9 -8.05 -43.25 -8.6 -41.7 -14.4 -34.45 Q-15.8 -31.35 -15.7 -30.75 L-17.5 -28.4 -18.5 -25.65" fill="url(#gradient38)" fill-rule="evenodd" stroke="none"/>
    <path d="M-7.75 -44.85 L-7.65 -44.95 -7.6 -44.9 -7.75 -44.55 -7.75 -44.85" fill="url(#gradient39)" fill-rule="evenodd" stroke="none"/>
    <path d="M-7.65 -44.95 L-7.45 -45.8 -7.1 -45.35 Q-5.75 -46.55 -5.75 -45.15 L-5.7 -44.9 -6.4 -42.6 Q-7.0 -40.85 -6.8 -40.0 L-7.65 -40.35 -7.8 -41.6 -7.8 -41.95 -7.8 -43.25 -7.9 -43.9 -7.75 -44.55 -7.6 -44.9 -7.65 -44.95" fill="url(#gradient40)" fill-rule="evenodd" stroke="none"/>
    <path d="M-7.8 -41.95 L-8.6 -41.7 -8.05 -43.25 -7.8 -43.25 -7.8 -41.95 M-4.15 -34.45 L-3.8 -35.65 -3.75 -35.65 -3.0 -33.95 -3.0 -33.9 -3.0 -31.1 -3.05 -31.05 -3.25 -30.9 Q-4.0 -31.65 -4.25 -31.55 L-4.45 -32.6 -4.2 -33.3 -4.15 -34.45" fill="url(#gradient41)" fill-rule="evenodd" stroke="none"/>
    <path d="M-7.8 -43.25 L-8.05 -43.25 -7.9 -43.9 -7.8 -43.25" fill="url(#gradient42)" fill-rule="evenodd" stroke="none"/>
    <path d="M-7.8 -41.6 L-7.65 -40.35 -6.8 -40.0 -6.8 -39.95 -7.95 -36.75 -7.9 -36.4 -8.35 -36.55 -8.55 -36.9 -8.6 -38.35 Q-8.85 -38.3 -8.3 -40.85 L-7.8 -41.6 M-3.85 -36.55 L-3.9 -36.45 -4.05 -36.55 -3.6 -37.25 -3.85 -36.55" fill="url(#gradient43)" fill-rule="evenodd" stroke="none"/>
    <path d="M-9.0 -31.55 L-10.75 -28.3 -11.95 -26.5 Q-14.15 -23.0 -15.55 -24.65 L-15.75 -25.0 -15.95 -27.9 -15.7 -30.75 Q-15.8 -31.35 -14.4 -34.45 L-8.6 -41.7 -7.8 -41.95 -7.8 -41.6 -8.3 -40.85 Q-8.85 -38.3 -8.6 -38.35 L-8.55 -36.9 -9.1 -35.65 Q-9.2 -34.25 -8.6 -33.0 L-9.0 -31.55" fill="url(#gradient44)" fill-rule="evenodd" stroke="none"/>
    <path d="M-7.9 -36.4 L-7.95 -36.75 -6.8 -39.95 Q-3.05 -39.05 -2.75 -39.95 L-2.75 -39.7 -3.1 -38.35 -3.6 -37.25 -4.05 -36.55 Q-4.9 -34.85 -7.3 -35.75 L-7.3 -35.55 -7.6 -35.55 -7.75 -35.3 -7.95 -35.8 -7.9 -36.4" fill="url(#gradient45)" fill-rule="evenodd" stroke="none"/>
    <path d="M-23.55 -31.3 L-24.8 -30.2 -22.85 -32.55 -23.05 -32.7 -26.75 -31.0 Q-28.35 -30.4 -28.5 -31.55 L-29.8 -30.4 -30.95 -29.8 -31.1 -30.2 -30.7 -31.0 Q-19.25 -50.6 -14.3 -45.15 L-15.05 -44.3 -15.1 -43.5 -16.0 -41.15 -18.35 -36.75 -19.25 -35.55 -23.55 -31.3" fill="url(#gradient46)" fill-rule="evenodd" stroke="none"/>
    <path d="M-18.95 -21.8 L-18.95 -23.4 -18.5 -25.65 -17.5 -28.4 -15.7 -30.75 -15.95 -27.9 -15.75 -25.0 -17.55 -21.6 Q-18.0 -20.75 -18.65 -21.0 L-18.95 -21.8" fill="url(#gradient47)" fill-rule="evenodd" stroke="none"/>
    <path d="M-10.75 -28.3 L-11.05 -27.1 Q-11.2 -27.4 -14.45 -18.65 L-15.2 -17.25 -15.55 -16.9 -16.0 -16.95 -16.4 -18.25 -16.35 -20.5 -15.55 -24.65 Q-14.15 -23.0 -11.95 -26.5 L-10.75 -28.3" fill="url(#gradient48)" fill-rule="evenodd" stroke="none"/>
    <path d="M-22.05 -26.1 Q-34.75 -4.25 -23.55 -31.3 L-19.25 -35.55 Q-20.2 -32.05 -19.75 -30.2 L-22.05 -26.1" fill="url(#gradient49)" fill-rule="evenodd" stroke="none"/>
    <path d="M-2.75 -36.05 L-2.75 -35.45 -2.75 -35.7 -2.75 -36.05 M-1.95 -21.8 L-1.9 -21.75 -1.95 -21.75 -1.95 -21.8" fill="url(#gradient50)" fill-rule="evenodd" stroke="none"/>
    <path d="M-4.05 -36.55 L-3.9 -36.45 -3.85 -36.55 -3.8 -35.7 -3.8 -35.65 -4.15 -34.45 -4.7 -33.15 -5.45 -32.05 -5.85 -31.8 Q-6.5 -31.65 -7.3 -32.05 L-7.3 -32.2 Q-7.65 -32.25 -7.8 -33.35 L-7.75 -35.3 -7.6 -35.55 -7.3 -35.55 -7.3 -35.75 Q-4.9 -34.85 -4.05 -36.55" fill="url(#gradient51)" fill-rule="evenodd" stroke="none"/>
    <path d="M-3.8 -35.65 L-3.8 -35.7 -3.75 -35.65 -3.8 -35.65" fill="url(#gradient52)" fill-rule="evenodd" stroke="none"/>
    <path d="M-2.75 -35.45 L-1.95 -21.8 -1.95 -21.75 -2.2 -18.9 -2.7 -22.8 -3.0 -30.4 -3.0 -31.0 -3.0 -31.1 -3.0 -33.9 -2.95 -33.95 -2.75 -35.7 -2.75 -35.45" fill="url(#gradient53)" fill-rule="evenodd" stroke="none"/>
    <path d="M-3.0 -33.95 L-2.95 -33.95 -3.0 -33.9 -3.0 -33.95 M-3.0 -31.1 L-3.0 -31.0 -3.05 -31.0 -3.05 -31.05 -3.0 -31.1" fill="url(#gradient54)" fill-rule="evenodd" stroke="none"/>
    <path d="M-8.55 -36.9 L-8.35 -36.55 -7.9 -36.4 -7.95 -35.8 -7.75 -35.3 -7.8 -33.35 Q-7.65 -32.25 -7.3 -32.2 L-7.8 -32.2 Q-8.3 -32.3 -8.6 -33.0 -9.2 -34.25 -9.1 -35.65 L-8.55 -36.9 M-5.45 -32.05 L-4.7 -33.15 -4.15 -34.45 -4.2 -33.3 -4.45 -32.6 -4.7 -32.2 -5.45 -32.05" fill="url(#gradient55)" fill-rule="evenodd" stroke="none"/>
    <path d="M-7.3 -32.05 Q-6.5 -31.65 -5.85 -31.8 L-5.45 -32.05 -4.7 -32.2 -4.45 -32.6 -4.25 -31.55 -4.35 -31.05 -4.85 -29.15 Q-4.9 -27.55 -7.4 -28.65 L-7.6 -29.05 -7.9 -31.05 Q-7.75 -32.15 -7.3 -32.05" fill="url(#gradient56)" fill-rule="evenodd" stroke="none"/>
    <path d="M-4.25 -31.55 Q-4.0 -31.65 -3.25 -30.9 L-3.05 -31.05 -3.05 -31.0 -3.15 -30.45 -4.25 -30.75 -4.35 -31.05 -4.25 -31.55 M-4.25 -30.25 L-3.9 -29.95 -4.25 -30.05 -4.25 -30.25" fill="url(#gradient57)" fill-rule="evenodd" stroke="none"/>
    <path d="M-3.0 -31.0 L-3.0 -30.4 -3.15 -30.45 -3.05 -31.0 -3.0 -31.0" fill="url(#gradient58)" fill-rule="evenodd" stroke="none"/>
    <path d="M-8.25 -29.6 L-9.0 -31.55 -8.6 -33.0 Q-8.3 -32.3 -7.8 -32.2 L-7.3 -32.2 -7.3 -32.05 Q-7.75 -32.15 -7.9 -31.05 L-7.6 -29.05 -8.2 -29.45 -8.25 -29.6 M-4.85 -29.15 L-4.35 -31.05 -4.25 -30.75 -4.25 -30.25 -4.25 -30.05 -4.3 -29.8 -4.4 -29.4 -4.85 -29.15" fill="url(#gradient59)" fill-rule="evenodd" stroke="none"/>
    <path d="M-8.9 -27.9 L-8.6 -28.95 -8.25 -29.6 -8.2 -29.45 -8.3 -29.25 -8.9 -27.9" fill="url(#gradient60)" fill-rule="evenodd" stroke="none"/>
    <path d="M-4.0 -16.15 L-3.9 -16.35 Q-2.2 -18.0 -4.3 -22.15 L-3.5 -22.4 -3.0 -22.8 -2.7 -22.8 -2.2 -18.9 -2.2 -18.0 -2.55 -15.25 -3.5 -15.6 -3.65 -15.95 -4.0 -16.1 -4.0 -16.15 M-7.7 -22.9 L-8.05 -23.6 -7.95 -23.55 -7.5 -23.05 -7.65 -22.9 -7.7 -22.9 M-8.35 -24.25 L-8.75 -24.7 -8.8 -25.15 -8.75 -25.15 -8.45 -24.9 -8.35 -24.25 M-8.95 -26.7 L-9.05 -27.25 -8.9 -27.9 -8.3 -29.25 -8.45 -28.25 -8.8 -27.65 -8.95 -26.7" fill="url(#gradient61)" fill-rule="evenodd" stroke="none"/>
    <path d="M-7.6 -29.05 L-7.4 -28.65 -7.3 -27.2 -7.1 -26.5 -6.6 -25.7 -7.0 -25.8 -7.6 -26.35 -8.15 -27.2 -8.45 -28.25 -8.3 -29.25 -8.2 -29.45 -7.6 -29.05 M-4.45 -26.05 L-4.7 -25.8 -5.2 -25.7 -5.3 -25.7 -4.7 -26.5 -4.25 -28.0 -4.15 -26.95 -4.25 -26.55 -4.3 -26.5 -4.45 -26.05" fill="url(#gradient62)" fill-rule="evenodd" stroke="none"/>
    <path d="M-8.15 -23.85 L-8.35 -24.25 -8.45 -24.9 -8.75 -25.15 -8.8 -25.2 -9.0 -26.1 -8.95 -26.7 -8.8 -27.65 -8.45 -28.25 -8.15 -27.2 -7.6 -26.35 Q-8.6 -25.3 -7.15 -23.25 L-7.5 -23.05 -7.95 -23.55 -8.15 -23.85 M-4.3 -22.15 L-4.55 -22.75 -4.2 -23.3 -3.85 -22.95 -3.6 -22.8 -3.0 -22.8 -3.5 -22.4 -4.3 -22.15" fill="url(#gradient63)" fill-rule="evenodd" stroke="none"/>
    <path d="M-8.05 -23.6 L-8.05 -23.7 -8.1 -23.75 -8.15 -23.85 -7.95 -23.55 -8.05 -23.6 M-8.8 -25.15 L-8.8 -25.2 -8.75 -25.15 -8.8 -25.15" fill="url(#gradient64)" fill-rule="evenodd" stroke="none"/>
    <path d="M-7.4 -28.65 Q-4.9 -27.55 -4.85 -29.15 L-4.4 -29.4 -4.3 -29.8 -4.15 -29.3 -4.25 -28.0 -4.7 -26.5 -5.3 -25.7 -5.8 -25.5 -6.35 -25.65 -6.6 -25.7 -7.1 -26.5 -7.3 -27.2 -7.4 -28.65" fill="url(#gradient65)" fill-rule="evenodd" stroke="none"/>
    <path d="M-6.9 -23.05 L-7.05 -24.8 -6.85 -25.35 -6.35 -25.65 -5.8 -25.5 -5.45 -25.45 -5.2 -25.7 -4.7 -25.8 -4.45 -26.05 -4.25 -25.85 -4.2 -26.0 -4.05 -25.45 -4.05 -24.7 -4.7 -22.75 Q-6.2 -21.45 -6.9 -23.05" fill="url(#gradient66)" fill-rule="evenodd" stroke="none"/>
    <path d="M-7.6 -26.35 L-7.0 -25.8 -6.6 -25.7 -6.35 -25.65 -6.85 -25.35 -7.05 -24.8 -6.9 -23.05 -7.15 -23.25 Q-8.6 -25.3 -7.6 -26.35 M-4.7 -22.75 L-4.05 -24.7 -4.05 -23.85 -4.2 -23.3 -4.55 -22.75 -4.7 -22.75 M-4.2 -26.0 L-4.25 -25.85 -4.45 -26.05 -4.3 -26.5 -4.25 -26.55 -4.2 -26.5 -4.2 -26.0 M-5.2 -25.7 L-5.45 -25.45 -5.8 -25.5 -5.3 -25.7 -5.2 -25.7" fill="url(#gradient67)" fill-rule="evenodd" stroke="none"/>
    <path d="M-1.8 -20.5 L-1.85 -19.4 -2.2 -18.0 -2.2 -18.9 -1.95 -21.75 -1.9 -21.75 -1.8 -20.5" fill="url(#gradient68)" fill-rule="evenodd" stroke="none"/>
    <path d="M-3.9 -16.35 Q-6.3 -15.25 -8.45 -17.55 -10.25 -21.75 -7.7 -22.85 L-7.65 -22.9 -7.5 -23.05 -7.15 -23.25 -6.9 -23.05 Q-6.2 -21.45 -4.7 -22.75 L-4.55 -22.75 -4.3 -22.15 Q-2.2 -18.0 -3.9 -16.35" fill="url(#gradient69)" fill-rule="evenodd" stroke="none"/>
    <path d="M-7.7 -22.85 L-7.7 -22.9 -7.65 -22.9 -7.7 -22.85" fill="url(#gradient70)" fill-rule="evenodd" stroke="none"/>
    <path d="M-3.35 -10.6 Q-4.25 -11.65 -4.55 -14.45 L-4.05 -16.1 -4.0 -16.1 -3.65 -15.95 -3.5 -15.6 -2.55 -15.25 -3.35 -10.6" fill="url(#gradient71)" fill-rule="evenodd" stroke="none"/>
    <path d="M-4.05 -16.1 L-4.0 -16.15 -4.0 -16.1 -4.05 -16.1" fill="url(#gradient72)" fill-rule="evenodd" stroke="none"/>
    <path d="M-19.0 -21.8 L-18.95 -21.8 -19.0 -21.8" fill="url(#gradient73)" fill-rule="evenodd" stroke="none"/>
    <path d="M-16.0 -16.95 Q-18.8 -15.55 -20.25 -17.75 -21.4 -20.45 -19.0 -21.8 L-18.95 -21.8 -18.65 -21.0 Q-18.0 -20.75 -17.55 -21.6 L-17.05 -20.85 -16.35 -20.5 -16.4 -18.25 -16.0 -16.95" fill="url(#gradient74)" fill-rule="evenodd" stroke="none"/>
    <path d="M-15.75 -25.0 L-15.55 -24.65 -16.35 -20.5 -17.05 -20.85 -17.55 -21.6 -15.75 -25.0" fill="url(#gradient75)" fill-rule="evenodd" stroke="none"/>
    <path d="M-5.8 0.35 L-5.65 -0.35 -5.1 -1.5 -4.9 -1.0 -4.35 -0.5 -4.65 1.65 -5.2 1.3 -5.8 0.35" fill="url(#gradient76)" fill-rule="evenodd" stroke="none"/>
    <path d="M-4.3 -1.65 L-4.25 -1.65 -4.25 -1.4 -4.3 -1.65" fill="url(#gradient77)" fill-rule="evenodd" stroke="none"/>
    <path d="M-0.25 -0.1 L-0.3 0.1 -0.4 0.15 -0.35 -0.15 -0.25 -0.1 M-9.75 7.7 L-9.25 6.7 Q-7.8 9.5 -5.45 8.75 L-5.55 9.55 -5.95 10.05 Q-6.25 9.1 -7.0 10.25 L-6.95 9.2 -7.3 9.1 -7.55 9.1 -7.7 8.65 Q-9.15 8.25 -9.4 7.75 L-9.75 7.7 M-7.95 4.6 L-7.5 3.85 Q-6.95 4.9 -6.4 5.15 L-5.05 5.7 -5.2 6.85 Q-7.5 6.35 -8.0 5.6 L-8.15 5.35 Q-8.25 4.95 -7.95 4.6 M-6.4 1.6 L-5.8 0.35 -5.2 1.3 -4.65 1.65 -4.85 3.6 Q-6.9 2.6 -6.4 1.6 M-4.95 -1.85 L-4.7 -2.25 -4.7 -1.9 -4.4 -1.9 -4.3 -1.65 -4.25 -1.4 -4.35 -0.7 -4.8 -1.15 -4.95 -1.85" fill="url(#gradient78)" fill-rule="evenodd" stroke="none"/>
    <path d="M-0.3 0.1 L-0.45 0.35 -0.4 0.15 -0.3 0.1 M-5.1 -1.5 L-4.95 -1.85 -4.8 -1.15 -4.35 -0.7 -4.35 -0.5 -4.9 -1.0 -5.1 -1.5" fill="url(#gradient79)" fill-rule="evenodd" stroke="none"/>
    <path d="M-6.65 1.95 L-6.4 1.6 Q-6.9 2.6 -4.85 3.6 L-4.85 3.8 -6.0 3.15 Q-6.5 2.75 -6.65 1.95" fill="url(#gradient80)" fill-rule="evenodd" stroke="none"/>
    <path d="M-7.5 3.85 L-7.4 3.3 -6.65 1.95 Q-6.5 2.75 -6.0 3.15 L-4.85 3.8 -5.05 5.7 -6.4 5.15 Q-6.95 4.9 -7.5 3.85" fill="url(#gradient81)" fill-rule="evenodd" stroke="none"/>
    <path d="M-8.3 4.9 L-7.95 4.6 Q-8.25 4.95 -8.15 5.35 L-8.3 4.9 M-5.2 6.85 L-5.3 7.3 Q-7.2 7.3 -8.0 5.6 -7.5 6.35 -5.2 6.85" fill="url(#gradient82)" fill-rule="evenodd" stroke="none"/>
    <path d="M-9.25 6.7 L-8.3 4.9 -8.15 5.35 -8.0 5.6 Q-7.2 7.3 -5.3 7.3 L-5.45 8.75 Q-7.8 9.5 -9.25 6.7" fill="url(#gradient83)" fill-rule="evenodd" stroke="none"/>
    <path d="M-6.15 14.2 Q-12.7 9.75 -9.75 7.7 L-9.4 7.75 Q-9.15 8.25 -7.7 8.65 L-7.55 9.1 -7.3 9.1 -6.95 9.2 -7.0 10.25 Q-6.25 9.1 -5.95 10.05 L-5.55 9.55 -6.15 14.2" fill="url(#gradient84)" fill-rule="evenodd" stroke="none"/>
    <path d="M-3.5 14.6 L-3.85 16.25 -5.35 20.8 -4.95 19.15 -3.5 14.6" fill="url(#gradient85)" fill-rule="evenodd" stroke="none"/>
  </g>
  <defs>
    <radialGradient cx="0" cy="0" gradientTransform="matrix(0.0073, 0.0, 0.0, 0.0073, -1.05, -55.6)" gradientUnits="userSpaceOnUse" id="gradient0" r="819.2" spreadMethod="pad">
      <stop offset="0.0" stop-color="#60a4cd"/>
      <stop offset="1.0" stop-color="#42728e"/>
    </radialGradient>
    <radialGradient cx="0" cy="0" gradientTransform="matrix(0.0096, 0.0, 0.0, 0.0096, -2.3, -50.4)" gradientUnits="userSpaceOnUse" id="gradient1" r="819.2" spreadMethod="pad">
      <stop offset="0.0" stop-color="#75cafb"/>
      <stop offset="1.0" stop-color="#497d9c"/>
    </radialGradient>
    <radialGradient cx="0" cy="0" gradientTransform="matrix(0.0157, 0.0, 0.0, 0.0157, 2.9, -53.1)" gradientUnits="userSpaceOnUse" id="gradient2" r="819.2" spreadMethod="pad">
      <stop offset="0.0" stop-color="#77ccfe"/>
      <stop offset="1.0" stop-color="#487c9b"/>
    </radialGradient>
    <radialGradient cx="0" cy="0" gradientTransform="matrix(0.0076, 0.0, 0.0, 0.0076, 3.35, -52.8)" gradientUnits="userSpaceOnUse" id="gradient3" r="819.2" spreadMethod="pad">
      <stop offset="0.0" stop-color="#77ccfe"/>
      <stop offset="1.0" stop-color="#3e6a85"/>
    </radialGradient>
    <radialGradient cx="0" cy="0" gradientTransform="matrix(0.0074, 0.0, 0.0, 0.0074, -0.4, -55.95)" gradientUnits="userSpaceOnUse" id="gradient4" r="819.2" spreadMethod="pad">
      <stop offset="0.0" stop-color="#77cdff"/>
      <stop offset="1.0" stop-color="#3c6881"/>
    </radialGradient>
    <radialGradient cx="0" cy="0" gradientTransform="matrix(0.0096, 0.0, 0.0, 0.0096, 4.45, -48.05)" gradientUnits="userSpaceOnUse" id="gradient5" r="819.2" spreadMethod="pad">
      <stop offset="0.0" stop-color="#78ceff"/>
      <stop offset="1.0" stop-color="#487c9a"/>
    </radialGradient>
    <radialGradient cx="0" cy="0" gradientTransform="matrix(0.0071, 0.0, 0.0, 0.0071, -2.1, -48.2)" gradientUnits="userSpaceOnUse" id="gradient6" r="819.2" spreadMethod="pad">
      <stop offset="0.0" stop-color="#76cbfc"/>
      <stop offset="1.0" stop-color="#4e87a7"/>
    </radialGradient>
    <radialGradient cx="0" cy="0" gradientTransform="matrix(0.0045, 0.0, 0.0, 0.0045, 1.7, -43.65)" gradientUnits="userSpaceOnUse" id="gradient7" r="819.2" spreadMethod="pad">
      <stop offset="0.0" stop-color="#70708b"/>
      <stop offset="1.0" stop-color="#59596f"/>
    </radialGradient>
    <radialGradient cx="0" cy="0" gradientTransform="matrix(0.0023, 0.0, 0.0, 0.0023, 0.35, -45.25)" gradientUnits="userSpaceOnUse" id="gradient8" r="819.2" spreadMethod="pad">
      <stop offset="0.0" stop-color="#8a8aac"/>
      <stop offset="1.0" stop-color="#545469"/>
    </radialGradient>
    <radialGradient cx="0" cy="0" gradientTransform="matrix(0.0023, 0.0, 0.0, 0.0023, 0.9, -43.45)" gradientUnits="userSpaceOnUse" id="gradient9" r="819.2" spreadMethod="pad">
      <stop offset="0.0" stop-color="#8888aa"/>
      <stop offset="1.0" stop-color="#8888aa"/>
    </radialGradient>
    <radialGradient cx="0" cy="0" gradientTransform="matrix(0.0083, 0.0, 0.0, 0.0083, -3.1, -39.0)" gradientUnits="userSpaceOnUse" id="gradient10" r="819.2" spreadMethod="pad">
      <stop offset="0.0" stop-color="#9999bf"/>
      <stop offset="1.0" stop-color="#696983"/>
    </radialGradient>
    <radialGradient cx="0" cy="0" gradientTransform="matrix(0.0026, 0.0, 0.0, 0.0026, 0.35, -45.25)" gradientUnits="userSpaceOnUse" id="gradient11" r="819.2" spreadMethod="pad">
      <stop offset="0.0" stop-color="#8a8aac"/>
      <stop offset="1.0" stop-color="#8080a0"/>
    </radialGradient>
    <radialGradient cx="0" cy="0" gradientTransform="matrix(0.0023, 0.0, 0.0, 0.0023, 3.15, -45.85)" gradientUnits="userSpaceOnUse" id="gradient12" r="819.2" spreadMethod="pad">
      <stop offset="0.0" stop-color="#39436b"/>
      <stop offset="1.0" stop-color="#252b46"/>
    </radialGradient>
    <radialGradient cx="0" cy="0" gradientTransform="matrix(0.0096, 0.0, 0.0, 0.0096, 0.8, -40.4)" gradientUnits="userSpaceOnUse" id="gradient13" r="819.2" spreadMethod="pad">
      <stop offset="0.0" stop-color="#30395b"/>
      <stop offset="1.0" stop-color="#1c2235"/>
    </radialGradient>
    <radialGradient cx="0" cy="0" gradientTransform="matrix(0.0189, 0.0, 0.0, 0.0189, 0.35, -34.05)" gradientUnits="userSpaceOnUse" id="gradient14" r="819.2" spreadMethod="pad">
      <stop offset="0.0" stop-color="#ececec"/>
      <stop offset="1.0" stop-color="#aeaeae"/>
    </radialGradient>
    <radialGradient cx="0" cy="0" gradientTransform="matrix(0.0057, 0.0, 0.0, 0.0057, 2.35, -37.95)" gradientUnits="userSpaceOnUse" id="gradient15" r="819.2" spreadMethod="pad">
      <stop offset="0.0" stop-color="#b2b2df"/>
      <stop offset="1.0" stop-color="#4a4a5c"/>
    </radialGradient>
    <radialGradient cx="0" cy="0" gradientTransform="matrix(0.013, 0.0, 0.0, 0.013, -1.75, -40.1)" gradientUnits="userSpaceOnUse" id="gradient16" r="819.2" spreadMethod="pad">
      <stop offset="0.0" stop-color="#afafda"/>
      <stop offset="1.0" stop-color="#515164"/>
    </radialGradient>
    <radialGradient cx="0" cy="0" gradientTransform="matrix(0.0132, 0.0, 0.0, 0.0132, 4.65, -36.25)" gradientUnits="userSpaceOnUse" id="gradient17" r="819.2" spreadMethod="pad">
      <stop offset="0.0" stop-color="#404c79"/>
      <stop offset="1.0" stop-color="#232a43"/>
    </radialGradient>
    <radialGradient cx="0" cy="0" gradientTransform="matrix(0.0208, 0.0, 0.0, 0.0208, 2.4, -24.25)" gradientUnits="userSpaceOnUse" id="gradient18" r="819.2" spreadMethod="pad">
      <stop offset="0.0" stop-color="#ffffff"/>
      <stop offset="1.0" stop-color="#c1c1c1"/>
    </radialGradient>
    <radialGradient cx="0" cy="0" gradientTransform="matrix(0.0148, 0.0, 0.0, 0.0148, 5.5, -39.15)" gradientUnits="userSpaceOnUse" id="gradient19" r="819.2" spreadMethod="pad">
      <stop offset="0.0" stop-color="#080a10"/>
      <stop offset="1.0" stop-color="#08090e"/>
    </radialGradient>
    <radialGradient cx="0" cy="0" gradientTransform="matrix(0.0121, 0.0, 0.0, 0.0121, -4.35, -30.2)" gradientUnits="userSpaceOnUse" id="gradient20" r="819.2" spreadMethod="pad">
      <stop offset="0.0" stop-color="#434f7f"/>
      <stop offset="1.0" stop-color="#252c46"/>
    </radialGradient>
    <radialGradient cx="0" cy="0" gradientTransform="matrix(0.0062, 0.0, 0.0, 0.0062, 3.1, -26.0)" gradientUnits="userSpaceOnUse" id="gradient21" r="819.2" spreadMethod="pad">
      <stop offset="0.0" stop-color="#a5a5ce"/>
      <stop offset="1.0" stop-color="#65657e"/>
    </radialGradient>
    <radialGradient cx="0" cy="0" gradientTransform="matrix(0.0239, 0.0, 0.0, 0.0239, 3.8, -26.0)" gradientUnits="userSpaceOnUse" id="gradient22" r="819.2" spreadMethod="pad">
      <stop offset="0.0" stop-color="#a9a9d3"/>
      <stop offset="1.0" stop-color="#64647d"/>
    </radialGradient>
    <radialGradient cx="0" cy="0" gradientTransform="matrix(0.0079, 0.0, 0.0, 0.0079, 9.5, -28.1)" gradientUnits="userSpaceOnUse" id="gradient23" r="819.2" spreadMethod="pad">
      <stop offset="0.0" stop-color="#3b4671"/>
      <stop offset="1.0" stop-color="#1d2237"/>
    </radialGradient>
    <radialGradient cx="0" cy="0" gradientTransform="matrix(0.0038, 0.0, 0.0, 0.0038, 13.15, -23.15)" gradientUnits="userSpaceOnUse" id="gradient24" r="819.2" spreadMethod="pad">
      <stop offset="0.0" stop-color="#445181"/>
      <stop offset="1.0" stop-color="#232942"/>
    </radialGradient>
    <radialGradient cx="0" cy="0" gradientTransform="matrix(8.0E-4, 0.0, 0.0, 8.0E-4, 13.4, -25.7)" gradientUnits="userSpaceOnUse" id="gradient25" r="819.2" spreadMethod="pad">
      <stop offset="0.0" stop-color="#8080a0"/>
      <stop offset="1.0" stop-color="#5a5a70"/>
    </radialGradient>
    <radialGradient cx="0" cy="0" gradientTransform="matrix(0.0046, 0.0, 0.0, 0.0046, 4.2, -19.7)" gradientUnits="userSpaceOnUse" id="gradient26" r="819.2" spreadMethod="pad">
      <stop offset="0.0" stop-color="#424e7d"/>
      <stop offset="1.0" stop-color="#272e4a"/>
    </radialGradient>
    <radialGradient cx="0" cy="0" gradientTransform="matrix(0.0039, 0.0, 0.0, 0.0039, 4.05, -22.75)" gradientUnits="userSpaceOnUse" id="gradient27" r="819.2" spreadMethod="pad">
      <stop offset="0.0" stop-color="#434f7e"/>
      <stop offset="1.0" stop-color="#222841"/>
    </radialGradient>
    <radialGradient cx="0" cy="0" gradientTransform="matrix(0.0019, 0.0, 0.0, 0.0019, 2.5, -9.9)" gradientUnits="userSpaceOnUse" id="gradient28" r="819.2" spreadMethod="pad">
      <stop offset="0.0" stop-color="#62627a"/>
      <stop offset="1.0" stop-color="#525267"/>
    </radialGradient>
    <radialGradient cx="0" cy="0" gradientTransform="matrix(0.0116, 0.0, 0.0, 0.0116, 0.75, -8.45)" gradientUnits="userSpaceOnUse" id="gradient29" r="819.2" spreadMethod="pad">
      <stop offset="0.0" stop-color="#c0c0ef"/>
      <stop offset="1.0" stop-color="#606078"/>
    </radialGradient>
    <radialGradient cx="0" cy="0" gradientTransform="matrix(0.002, 0.0, 0.0, 0.002, 2.6, -6.15)" gradientUnits="userSpaceOnUse" id="gradient30" r="819.2" spreadMethod="pad">
      <stop offset="0.0" stop-color="#252c46"/>
      <stop offset="1.0" stop-color="#1e253b"/>
    </radialGradient>
    <radialGradient cx="0" cy="0" gradientTransform="matrix(0.0079, 0.0, 0.0, 0.0079, 2.15, -5.55)" gradientUnits="userSpaceOnUse" id="gradient31" r="819.2" spreadMethod="pad">
      <stop offset="0.0" stop-color="#aeaed9"/>
      <stop offset="1.0" stop-color="#757592"/>
    </radialGradient>
    <radialGradient cx="0" cy="0" gradientTransform="matrix(0.0449, 0.0, 0.0, 0.0449, 0.4, -13.45)" gradientUnits="userSpaceOnUse" id="gradient32" r="819.2" spreadMethod="pad">
      <stop offset="0.0" stop-color="#ffffff"/>
      <stop offset="1.0" stop-color="#cacaca"/>
    </radialGradient>
    <radialGradient cx="0" cy="0" gradientTransform="matrix(0.0031, 0.0, 0.0, 0.0031, 1.75, -5.1)" gradientUnits="userSpaceOnUse" id="gradient33" r="819.2" spreadMethod="pad">
      <stop offset="0.0" stop-color="#6c6c87"/>
      <stop offset="1.0" stop-color="#57576c"/>
    </radialGradient>
    <radialGradient cx="0" cy="0" gradientTransform="matrix(0.0088, 0.0, 0.0, 0.0088, -4.4, -46.95)" gradientUnits="userSpaceOnUse" id="gradient34" r="819.2" spreadMethod="pad">
      <stop offset="0.0" stop-color="#70c1f0"/>
      <stop offset="1.0" stop-color="#487c9a"/>
    </radialGradient>
    <radialGradient cx="0" cy="0" gradientTransform="matrix(0.0304, 0.0, 0.0, 0.0304, -38.35, -18.1)" gradientUnits="userSpaceOnUse" id="gradient35" r="819.2" spreadMethod="pad">
      <stop offset="0.0" stop-color="#ffffff"/>
      <stop offset="1.0" stop-color="#e4e4e4"/>
    </radialGradient>
    <radialGradient cx="0" cy="0" gradientTransform="matrix(0.0093, 0.0, 0.0, 0.0093, -4.0, -46.55)" gradientUnits="userSpaceOnUse" id="gradient36" r="819.2" spreadMethod="pad">
      <stop offset="0.0" stop-color="#74c8f9"/>
      <stop offset="1.0" stop-color="#487c9a"/>
    </radialGradient>
    <radialGradient cx="0" cy="0" gradientTransform="matrix(0.0014, 0.0, 0.0, 0.0014, -8.45, -47.15)" gradientUnits="userSpaceOnUse" id="gradient37" r="819.2" spreadMethod="pad">
      <stop offset="0.0" stop-color="#838383"/>
      <stop offset="1.0" stop-color="#828282"/>
    </radialGradient>
    <radialGradient cx="0" cy="0" gradientTransform="matrix(0.0315, 0.0, 0.0, 0.0315, -9.35, -46.2)" gradientUnits="userSpaceOnUse" id="gradient38" r="819.2" spreadMethod="pad">
      <stop offset="0.0" stop-color="#ffffff"/>
      <stop offset="1.0" stop-color="#b2b2b2"/>
    </radialGradient>
    <radialGradient cx="0" cy="0" gradientTransform="matrix(0.0032, 0.0, 0.0, 0.0032, -7.75, -44.95)" gradientUnits="userSpaceOnUse" id="gradient39" r="819.2" spreadMethod="pad">
      <stop offset="0.0" stop-color="#0e181e"/>
      <stop offset="1.0" stop-color="#0e181e"/>
    </radialGradient>
    <radialGradient cx="0" cy="0" gradientTransform="matrix(0.0071, 0.0, 0.0, 0.0071, -5.35, -45.5)" gradientUnits="userSpaceOnUse" id="gradient40" r="819.2" spreadMethod="pad">
      <stop offset="0.0" stop-color="#72c4f4"/>
      <stop offset="1.0" stop-color="#4e86a8"/>
    </radialGradient>
    <radialGradient cx="0" cy="0" gradientTransform="matrix(0.0158, 0.0, 0.0, 0.0158, -9.95, -40.95)" gradientUnits="userSpaceOnUse" id="gradient41" r="819.2" spreadMethod="pad">
      <stop offset="0.0" stop-color="#9797bc"/>
      <stop offset="1.0" stop-color="#515165"/>
    </radialGradient>
    <radialGradient cx="0" cy="0" gradientTransform="matrix(0.0028, 0.0, 0.0, 0.0028, -6.55, -43.55)" gradientUnits="userSpaceOnUse" id="gradient42" r="819.2" spreadMethod="pad">
      <stop offset="0.0" stop-color="#adadd8"/>
      <stop offset="1.0" stop-color="#7b7b9a"/>
    </radialGradient>
    <radialGradient cx="0" cy="0" gradientTransform="matrix(0.007, 0.0, 0.0, 0.007, -6.0, -41.2)" gradientUnits="userSpaceOnUse" id="gradient43" r="819.2" spreadMethod="pad">
      <stop offset="0.0" stop-color="#77cdff"/>
      <stop offset="1.0" stop-color="#4a80a0"/>
    </radialGradient>
    <radialGradient cx="0" cy="0" gradientTransform="matrix(0.0182, 0.0, 0.0, 0.0182, -12.3, -38.4)" gradientUnits="userSpaceOnUse" id="gradient44" r="819.2" spreadMethod="pad">
      <stop offset="0.0" stop-color="#ffffff"/>
      <stop offset="1.0" stop-color="#ababab"/>
    </radialGradient>
    <radialGradient cx="0" cy="0" gradientTransform="matrix(0.0068, 0.0, 0.0, 0.0068, -5.35, -40.15)" gradientUnits="userSpaceOnUse" id="gradient45" r="819.2" spreadMethod="pad">
      <stop offset="0.0" stop-color="#78ceff"/>
      <stop offset="1.0" stop-color="#4c82a2"/>
    </radialGradient>
    <radialGradient cx="0" cy="0" gradientTransform="matrix(0.0297, 0.0, 0.0, 0.0297, -15.55, -45.1)" gradientUnits="userSpaceOnUse" id="gradient46" r="819.2" spreadMethod="pad">
      <stop offset="0.0" stop-color="#ffffff"/>
      <stop offset="1.0" stop-color="#dedede"/>
    </radialGradient>
    <radialGradient cx="0" cy="0" gradientTransform="matrix(0.013, 0.0, 0.0, 0.013, -15.75, -31.35)" gradientUnits="userSpaceOnUse" id="gradient47" r="819.2" spreadMethod="pad">
      <stop offset="0.0" stop-color="#f9f9f9"/>
      <stop offset="1.0" stop-color="#dfdfdf"/>
    </radialGradient>
    <radialGradient cx="0" cy="0" gradientTransform="matrix(0.0166, 0.0, 0.0, 0.0166, -15.55, -17.0)" gradientUnits="userSpaceOnUse" id="gradient48" r="819.2" spreadMethod="pad">
      <stop offset="0.0" stop-color="#efefef"/>
      <stop offset="1.0" stop-color="#c4c4c4"/>
    </radialGradient>
    <radialGradient cx="0" cy="0" gradientTransform="matrix(0.0273, 0.0, 0.0, 0.0273, -18.7, -36.5)" gradientUnits="userSpaceOnUse" id="gradient49" r="819.2" spreadMethod="pad">
      <stop offset="0.0" stop-color="#ffffff"/>
      <stop offset="1.0" stop-color="#d4d4d4"/>
    </radialGradient>
    <radialGradient cx="0" cy="0" gradientTransform="matrix(0.0261, 0.0, 0.0, 0.0261, -2.0, -22.25)" gradientUnits="userSpaceOnUse" id="gradient50" r="819.2" spreadMethod="pad">
      <stop offset="0.0" stop-color="#9c9c9c"/>
      <stop offset="1.0" stop-color="#202020"/>
    </radialGradient>
    <radialGradient cx="0" cy="0" gradientTransform="matrix(0.0049, 0.0, 0.0, 0.0049, -6.65, -35.7)" gradientUnits="userSpaceOnUse" id="gradient51" r="819.2" spreadMethod="pad">
      <stop offset="0.0" stop-color="#76cafc"/>
      <stop offset="1.0" stop-color="#39627a"/>
    </radialGradient>
    <radialGradient cx="0" cy="0" gradientTransform="matrix(0.0072, 0.0, 0.0, 0.0072, -1.6, -30.7)" gradientUnits="userSpaceOnUse" id="gradient52" r="819.2" spreadMethod="pad">
      <stop offset="0.0" stop-color="#15151a"/>
      <stop offset="1.0" stop-color="#15151a"/>
    </radialGradient>
    <radialGradient cx="0" cy="0" gradientTransform="matrix(0.0145, 0.0, 0.0, 0.0145, -1.9, -25.6)" gradientUnits="userSpaceOnUse" id="gradient53" r="819.2" spreadMethod="pad">
      <stop offset="0.0" stop-color="#ececec"/>
      <stop offset="1.0" stop-color="#ababab"/>
    </radialGradient>
    <radialGradient cx="0" cy="0" gradientTransform="matrix(0.0058, 0.0, 0.0, 0.0058, -3.1, -32.7)" gradientUnits="userSpaceOnUse" id="gradient54" r="819.2" spreadMethod="pad">
      <stop offset="0.0" stop-color="#202020"/>
      <stop offset="1.0" stop-color="#202020"/>
    </radialGradient>
    <radialGradient cx="0" cy="0" gradientTransform="matrix(0.0067, 0.0, 0.0, 0.0067, -7.0, -37.0)" gradientUnits="userSpaceOnUse" id="gradient55" r="819.2" spreadMethod="pad">
      <stop offset="0.0" stop-color="#74c7f8"/>
      <stop offset="1.0" stop-color="#406f8a"/>
    </radialGradient>
    <radialGradient cx="0" cy="0" gradientTransform="matrix(0.0051, 0.0, 0.0, 0.0051, -7.1, -32.1)" gradientUnits="userSpaceOnUse" id="gradient56" r="819.2" spreadMethod="pad">
      <stop offset="0.0" stop-color="#76cbfd"/>
      <stop offset="1.0" stop-color="#386179"/>
    </radialGradient>
    <radialGradient cx="0" cy="0" gradientTransform="matrix(0.0043, 0.0, 0.0, 0.0043, -3.7, -32.4)" gradientUnits="userSpaceOnUse" id="gradient57" r="819.2" spreadMethod="pad">
      <stop offset="0.0" stop-color="#a8a8d2"/>
      <stop offset="1.0" stop-color="#8a8aac"/>
    </radialGradient>
    <radialGradient cx="0" cy="0" gradientTransform="matrix(0.0027, 0.0, 0.0, 0.0027, -2.35, -31.8)" gradientUnits="userSpaceOnUse" id="gradient58" r="819.2" spreadMethod="pad">
      <stop offset="0.0" stop-color="#2f2f3b"/>
      <stop offset="1.0" stop-color="#15151a"/>
    </radialGradient>
    <radialGradient cx="0" cy="0" gradientTransform="matrix(0.0054, 0.0, 0.0, 0.0054, -7.4, -32.6)" gradientUnits="userSpaceOnUse" id="gradient59" r="819.2" spreadMethod="pad">
      <stop offset="0.0" stop-color="#6fbfee"/>
      <stop offset="1.0" stop-color="#3f6d88"/>
    </radialGradient>
    <radialGradient cx="0" cy="0" gradientTransform="matrix(0.0019, 0.0, 0.0, 0.0019, -8.5, -28.6)" gradientUnits="userSpaceOnUse" id="gradient60" r="819.2" spreadMethod="pad">
      <stop offset="0.0" stop-color="#2a3250"/>
      <stop offset="1.0" stop-color="#22273f"/>
    </radialGradient>
    <radialGradient cx="0" cy="0" gradientTransform="matrix(0.018, 0.0, 0.0, 0.018, -7.7, -28.05)" gradientUnits="userSpaceOnUse" id="gradient61" r="819.2" spreadMethod="pad">
      <stop offset="0.0" stop-color="#7d7d9c"/>
      <stop offset="1.0" stop-color="#545469"/>
    </radialGradient>
    <radialGradient cx="0" cy="0" gradientTransform="matrix(0.005, 0.0, 0.0, 0.005, -7.0, -29.25)" gradientUnits="userSpaceOnUse" id="gradient62" r="819.2" spreadMethod="pad">
      <stop offset="0.0" stop-color="#70c0f0"/>
      <stop offset="1.0" stop-color="#386077"/>
    </radialGradient>
    <radialGradient cx="0" cy="0" gradientTransform="matrix(0.0063, 0.0, 0.0, 0.0063, -7.1, -24.7)" gradientUnits="userSpaceOnUse" id="gradient63" r="819.2" spreadMethod="pad">
      <stop offset="0.0" stop-color="#8a8aad"/>
      <stop offset="1.0" stop-color="#5d5d74"/>
    </radialGradient>
    <radialGradient cx="0" cy="0" gradientTransform="matrix(0.0054, 0.0, 0.0, 0.0054, -8.8, -25.3)" gradientUnits="userSpaceOnUse" id="gradient64" r="819.2" spreadMethod="pad">
      <stop offset="0.0" stop-color="#55556a"/>
      <stop offset="1.0" stop-color="#15151a"/>
    </radialGradient>
    <radialGradient cx="0" cy="0" gradientTransform="matrix(0.0046, 0.0, 0.0, 0.0046, -6.7, -29.3)" gradientUnits="userSpaceOnUse" id="gradient65" r="819.2" spreadMethod="pad">
      <stop offset="0.0" stop-color="#77cdff"/>
      <stop offset="1.0" stop-color="#345a70"/>
    </radialGradient>
    <radialGradient cx="0" cy="0" gradientTransform="matrix(0.0042, 0.0, 0.0, 0.0042, -6.4, -25.6)" gradientUnits="userSpaceOnUse" id="gradient66" r="819.2" spreadMethod="pad">
      <stop offset="0.0" stop-color="#79d0ff"/>
      <stop offset="1.0" stop-color="#32566b"/>
    </radialGradient>
    <radialGradient cx="0" cy="0" gradientTransform="matrix(0.0045, 0.0, 0.0, 0.0045, -5.2, -26.25)" gradientUnits="userSpaceOnUse" id="gradient67" r="819.2" spreadMethod="pad">
      <stop offset="0.0" stop-color="#77ccff"/>
      <stop offset="1.0" stop-color="#375e76"/>
    </radialGradient>
    <radialGradient cx="0" cy="0" gradientTransform="matrix(0.0085, 0.0, 0.0, 0.0085, -1.75, -23.55)" gradientUnits="userSpaceOnUse" id="gradient68" r="819.2" spreadMethod="pad">
      <stop offset="0.0" stop-color="#b3b3b3"/>
      <stop offset="1.0" stop-color="#9e9e9e"/>
    </radialGradient>
    <radialGradient cx="0" cy="0" gradientTransform="matrix(0.0081, 0.0, 0.0, 0.0081, -5.65, -22.6)" gradientUnits="userSpaceOnUse" id="gradient69" r="819.2" spreadMethod="pad">
      <stop offset="0.0" stop-color="#7dd6ff"/>
      <stop offset="1.0" stop-color="#365d75"/>
    </radialGradient>
    <radialGradient cx="0" cy="0" gradientTransform="matrix(0.009, 0.0, 0.0, 0.009, -7.6, -16.85)" gradientUnits="userSpaceOnUse" id="gradient70" r="819.2" spreadMethod="pad">
      <stop offset="0.0" stop-color="#264151"/>
      <stop offset="1.0" stop-color="#0e181e"/>
    </radialGradient>
    <radialGradient cx="0" cy="0" gradientTransform="matrix(0.0073, 0.0, 0.0, 0.0073, -2.65, -16.25)" gradientUnits="userSpaceOnUse" id="gradient71" r="819.2" spreadMethod="pad">
      <stop offset="0.0" stop-color="#b9b9e7"/>
      <stop offset="1.0" stop-color="#5b5b72"/>
    </radialGradient>
    <radialGradient cx="0" cy="0" gradientTransform="matrix(0.0027, 0.0, 0.0, 0.0027, -3.8, -17.7)" gradientUnits="userSpaceOnUse" id="gradient72" r="819.2" spreadMethod="pad">
      <stop offset="0.0" stop-color="#15151a"/>
      <stop offset="1.0" stop-color="#15151a"/>
    </radialGradient>
    <radialGradient cx="0" cy="0" gradientTransform="matrix(0.0016, 0.0, 0.0, 0.0016, -18.95, -21.8)" gradientUnits="userSpaceOnUse" id="gradient73" r="819.2" spreadMethod="pad">
      <stop offset="0.0" stop-color="#202020"/>
      <stop offset="1.0" stop-color="#202020"/>
    </radialGradient>
    <radialGradient cx="0" cy="0" gradientTransform="matrix(0.0041, 0.0, 0.0, 0.0041, -18.15, -19.7)" gradientUnits="userSpaceOnUse" id="gradient74" r="819.2" spreadMethod="pad">
      <stop offset="0.0" stop-color="#445080"/>
      <stop offset="1.0" stop-color="#232a43"/>
    </radialGradient>
    <radialGradient cx="0" cy="0" gradientTransform="matrix(0.0091, 0.0, 0.0, 0.0091, -16.25, -26.25)" gradientUnits="userSpaceOnUse" id="gradient75" r="819.2" spreadMethod="pad">
      <stop offset="0.0" stop-color="#374168"/>
      <stop offset="1.0" stop-color="#2a3250"/>
    </radialGradient>
    <radialGradient cx="0" cy="0" gradientTransform="matrix(0.0043, 0.0, 0.0, 0.0043, -3.95, 0.25)" gradientUnits="userSpaceOnUse" id="gradient76" r="819.2" spreadMethod="pad">
      <stop offset="0.0" stop-color="#3d4873"/>
      <stop offset="1.0" stop-color="#252b46"/>
    </radialGradient>
    <radialGradient cx="0" cy="0" gradientTransform="matrix(0.0485, 0.0, 0.0, 0.0485, -6.8, 19.5)" gradientUnits="userSpaceOnUse" id="gradient77" r="819.2" spreadMethod="pad">
      <stop offset="0.0" stop-color="#202020"/>
      <stop offset="1.0" stop-color="#202020"/>
    </radialGradient>
    <radialGradient cx="0" cy="0" gradientTransform="matrix(0.0162, 0.0, 0.0, 0.0162, -8.2, 9.9)" gradientUnits="userSpaceOnUse" id="gradient78" r="819.2" spreadMethod="pad">
      <stop offset="0.0" stop-color="#b5b5e1"/>
      <stop offset="1.0" stop-color="#66667f"/>
    </radialGradient>
    <radialGradient cx="0" cy="0" gradientTransform="matrix(0.0062, 0.0, 0.0, 0.0062, -0.45, 0.2)" gradientUnits="userSpaceOnUse" id="gradient79" r="819.2" spreadMethod="pad">
      <stop offset="0.0" stop-color="#272e4a"/>
      <stop offset="1.0" stop-color="#272e4a"/>
    </radialGradient>
    <radialGradient cx="0" cy="0" gradientTransform="matrix(0.0034, 0.0, 0.0, 0.0034, -4.85, 3.75)" gradientUnits="userSpaceOnUse" id="gradient80" r="819.2" spreadMethod="pad">
      <stop offset="0.0" stop-color="#2a314f"/>
      <stop offset="1.0" stop-color="#29314e"/>
    </radialGradient>
    <radialGradient cx="0" cy="0" gradientTransform="matrix(0.0029, 0.0, 0.0, 0.0029, -5.55, 3.35)" gradientUnits="userSpaceOnUse" id="gradient81" r="819.2" spreadMethod="pad">
      <stop offset="0.0" stop-color="#3c4772"/>
      <stop offset="1.0" stop-color="#353e64"/>
    </radialGradient>
    <radialGradient cx="0" cy="0" gradientTransform="matrix(0.0048, 0.0, 0.0, 0.0048, -5.25, 7.2)" gradientUnits="userSpaceOnUse" id="gradient82" r="819.2" spreadMethod="pad">
      <stop offset="0.0" stop-color="#2b3352"/>
      <stop offset="1.0" stop-color="#2b3352"/>
    </radialGradient>
    <radialGradient cx="0" cy="0" gradientTransform="matrix(0.0034, 0.0, 0.0, 0.0034, -7.35, 6.5)" gradientUnits="userSpaceOnUse" id="gradient83" r="819.2" spreadMethod="pad">
      <stop offset="0.0" stop-color="#3b4671"/>
      <stop offset="1.0" stop-color="#2a3250"/>
    </radialGradient>
    <radialGradient cx="0" cy="0" gradientTransform="matrix(0.0065, 0.0, 0.0, 0.0065, -8.65, 9.3)" gradientUnits="userSpaceOnUse" id="gradient84" r="819.2" spreadMethod="pad">
      <stop offset="0.0" stop-color="#c2c2f2"/>
      <stop offset="1.0" stop-color="#464658"/>
    </radialGradient>
    <radialGradient cx="0" cy="0" gradientTransform="matrix(0.0151, 0.0, 0.0, 0.0151, -5.1, 19.45)" gradientUnits="userSpaceOnUse" id="gradient85" r="819.2" spreadMethod="pad">
      <stop offset="0.0" stop-color="#a0a0a0"/>
      <stop offset="1.0" stop-color="#878787"/>
    </radialGradient>
  </defs>
</svg>
