<?xml version="1.0" encoding="UTF-8" standalone="no"?>
<svg xmlns:ffdec="https://www.free-decompiler.com/flash" xmlns:xlink="http://www.w3.org/1999/xlink" ffdec:objectType="shape" height="68.45px" width="35.7px" xmlns="http://www.w3.org/2000/svg">
  <g transform="matrix(1.0, 0.0, 0.0, 1.0, 24.05, 56.6)">
    <path d="M-0.2 -56.55 L-0.05 -56.6 0.2 -56.4 0.6 -55.85 -0.3 -55.85 -0.4 -55.9 -0.2 -56.55" fill="url(#gradient0)" fill-rule="evenodd" stroke="none"/>
    <path d="M-3.85 -54.0 L-3.75 -54.1 -2.4 -55.45 -1.1 -55.8 -0.9 -55.8 -0.1 -55.0 1.45 -53.0 3.05 -50.15 4.05 -49.35 2.75 -49.3 Q1.55 -48.9 1.0 -48.0 L-0.1 -48.15 Q-1.4 -47.6 -2.35 -46.6 -5.0 -50.25 -4.25 -53.0 L-3.75 -53.75 -3.85 -54.0 M0.6 -55.85 L0.85 -55.8 1.9 -55.7 2.85 -55.3 3.7 -54.9 5.0 -53.85 5.45 -53.0 Q5.5 -51.65 5.9 -50.85 L5.8 -49.9 5.0 -51.4 1.15 -54.85 -0.3 -55.85 0.6 -55.85" fill="url(#gradient1)" fill-rule="evenodd" stroke="none"/>
    <path d="M0.85 -55.8 L1.8 -56.25 2.15 -56.25 2.85 -55.3 1.9 -55.7 0.85 -55.8" fill="url(#gradient2)" fill-rule="evenodd" stroke="none"/>
    <path d="M5.0 -53.85 Q5.1 -54.3 3.9 -55.6 L2.6 -56.4 4.35 -55.85 5.8 -54.7 6.9 -53.0 7.2 -51.15 7.2 -50.95 6.7 -50.4 6.3 -49.45 5.85 -49.7 5.8 -49.9 5.9 -50.85 Q5.5 -51.65 5.45 -53.0 L5.0 -53.85" fill="url(#gradient3)" fill-rule="evenodd" stroke="none"/>
    <path d="M-1.0 -55.9 L-1.45 -56.45 -0.75 -56.1 -0.4 -55.9 -0.3 -55.85 1.15 -54.85 5.0 -51.4 5.8 -49.9 5.85 -49.7 5.2 -49.75 4.2 -49.3 4.05 -49.35 3.05 -50.15 1.45 -53.0 -0.1 -55.0 -0.9 -55.8 -1.0 -55.9" fill="url(#gradient4)" fill-rule="evenodd" stroke="none"/>
    <path d="M7.2 -51.15 Q9.0 -51.75 10.55 -46.65 L10.35 -44.35 9.4 -42.8 Q9.85 -46.55 8.1 -47.25 L6.8 -48.05 6.3 -49.45 6.7 -50.4 7.2 -50.95 7.2 -51.15" fill="url(#gradient5)" fill-rule="evenodd" stroke="none"/>
    <path d="M5.85 -49.7 L6.3 -49.45 6.8 -48.05 7.2 -46.35 7.65 -42.65 7.65 -42.3 7.0 -43.45 6.75 -44.15 5.7 -45.7 5.45 -46.1 5.35 -46.25 4.75 -46.95 4.1 -48.6 4.2 -49.3 5.2 -49.75 5.85 -49.7" fill="url(#gradient6)" fill-rule="evenodd" stroke="none"/>
    <path d="M5.7 -45.7 L5.55 -45.3 5.2 -45.15 5.05 -45.3 5.45 -46.1 5.7 -45.7" fill="url(#gradient7)" fill-rule="evenodd" stroke="none"/>
    <path d="M5.15 -43.95 L5.55 -45.3 5.7 -45.7 6.75 -44.15 7.0 -43.45 7.2 -41.7 7.2 -41.65 5.15 -43.95 M2.0 -42.1 L3.2 -41.95 3.75 -42.3 5.0 -40.3 4.45 -40.3 Q5.15 -39.5 4.1 -37.8 2.9 -36.75 2.8 -36.2 L2.65 -36.3 2.1 -39.55 1.1 -40.8 1.25 -41.05 1.95 -39.9 1.45 -41.25 2.0 -42.1" fill="url(#gradient8)" fill-rule="evenodd" stroke="none"/>
    <path d="M5.55 -45.3 L5.15 -43.95 4.0 -42.95 3.75 -42.3 3.2 -41.95 2.0 -42.1 4.6 -46.55 4.85 -45.9 4.7 -45.55 5.35 -46.25 5.45 -46.1 5.05 -45.3 5.2 -45.15 5.55 -45.3 M0.3 -45.1 L0.1 -44.5 -0.2 -44.5 -0.55 -44.75 -0.95 -44.6 -1.0 -44.6 -0.7 -43.9 -0.1 -43.45 -0.25 -43.15 -1.15 -44.0 -1.2 -44.7 0.3 -45.1" fill="url(#gradient9)" fill-rule="evenodd" stroke="none"/>
    <path d="M8.1 -47.25 Q9.15 -46.0 8.2 -39.85 L7.2 -41.65 7.2 -41.7 7.0 -43.45 7.65 -42.3 7.65 -42.65 7.2 -46.35 6.8 -48.05 8.1 -47.25" fill="url(#gradient10)" fill-rule="evenodd" stroke="none"/>
    <path d="M4.05 -49.35 L4.2 -49.3 4.1 -48.6 4.75 -46.95 4.6 -46.55 2.0 -42.1 1.45 -41.25 1.25 -41.05 1.1 -40.8 -0.55 -38.7 -0.75 -38.95 -0.3 -40.5 -0.4 -41.7 -0.5 -41.85 -0.55 -42.15 -0.25 -43.15 -0.1 -43.45 0.1 -44.5 0.3 -45.1 0.75 -47.45 1.0 -48.0 Q1.55 -48.9 2.75 -49.3 L4.05 -49.35" fill="url(#gradient11)" fill-rule="evenodd" stroke="none"/>
    <path d="M5.35 -46.25 L4.7 -45.55 4.85 -45.9 4.6 -46.55 4.75 -46.95 5.35 -46.25" fill="url(#gradient12)" fill-rule="evenodd" stroke="none"/>
    <path d="M1.0 -48.0 L0.75 -47.45 0.3 -45.1 -1.2 -44.7 -1.65 -44.6 -2.7 -44.45 -4.15 -44.5 -5.35 -44.85 -5.8 -45.1 -5.25 -45.2 -4.7 -45.25 -3.9 -45.7 -3.0 -46.15 -2.35 -46.6 Q-1.4 -47.6 -0.1 -48.15 L1.0 -48.0" fill="url(#gradient13)" fill-rule="evenodd" stroke="none"/>
    <path d="M8.2 -39.85 L10.0 -36.05 Q10.35 -34.95 9.0 -33.8 L9.0 -33.65 Q8.75 -33.15 6.55 -31.75 L6.3 -31.4 6.55 -30.4 Q4.2 -21.0 0.85 -22.5 L0.85 -22.65 0.75 -22.9 -0.05 -24.0 -0.25 -24.4 -0.8 -24.8 Q-0.05 -26.25 -0.1 -27.5 L-0.2 -29.55 -0.35 -30.35 -0.35 -30.4 -0.9 -31.95 -1.0 -32.7 -1.0 -33.05 -1.05 -33.3 Q0.55 -36.0 -0.25 -37.95 L-0.1 -37.95 3.0 -31.5 3.4 -30.85 3.9 -30.6 6.55 -32.9 Q7.0 -33.3 7.25 -34.65 7.25 -36.7 6.9 -36.85 L5.0 -40.3 3.75 -42.3 4.0 -42.95 5.15 -43.95 7.2 -41.65 8.2 -39.85 M-4.15 -44.5 L-2.7 -44.45 -2.2 -42.9 -2.05 -42.5 -2.55 -41.7 -3.2 -39.85 -3.65 -39.65 Q-3.45 -41.4 -4.0 -41.7 L-4.2 -42.75 -4.4 -43.85 -4.15 -44.5" fill="url(#gradient14)" fill-rule="evenodd" stroke="none"/>
    <path d="M2.8 -36.2 Q2.9 -36.75 4.1 -37.8 5.15 -39.5 4.45 -40.3 L5.0 -40.3 6.9 -36.85 Q7.25 -36.7 7.25 -34.65 7.0 -33.3 6.55 -32.9 L3.9 -30.6 3.4 -30.85 3.0 -31.5 Q3.6 -32.45 3.55 -34.4 L2.8 -36.2 M0.75 -22.9 L0.5 -23.05 -0.05 -24.0 0.75 -22.9" fill="url(#gradient15)" fill-rule="evenodd" stroke="none"/>
    <path d="M-0.55 -38.7 L1.1 -40.8 2.1 -39.55 2.65 -36.3 Q1.8 -35.9 0.05 -37.95 L-0.1 -37.95 -0.25 -37.95 -0.5 -38.55 -0.55 -38.7 M1.25 -41.05 L1.45 -41.25 1.95 -39.9 1.25 -41.05 M-6.95 -40.95 L-7.0 -41.1 -6.65 -41.7 -5.3 -42.4 -4.2 -42.75 -4.0 -41.7 Q-3.45 -41.4 -3.65 -39.65 L-4.4 -39.0 -5.15 -37.65 Q-5.45 -38.8 -6.65 -39.95 L-6.95 -40.95 M-2.05 -42.5 L-2.2 -42.9 -1.9 -42.65 -2.05 -42.5" fill="url(#gradient16)" fill-rule="evenodd" stroke="none"/>
    <path d="M9.0 -33.65 L8.75 -32.1 8.65 -30.4 8.35 -29.3 7.65 -30.4 7.3 -30.85 6.3 -31.4 6.55 -31.75 Q8.75 -33.15 9.0 -33.65" fill="url(#gradient17)" fill-rule="evenodd" stroke="none"/>
    <path d="M2.65 -36.3 L2.8 -36.2 3.55 -34.4 Q3.6 -32.45 3.0 -31.5 L-0.1 -37.95 0.05 -37.95 Q1.8 -35.9 2.65 -36.3" fill="url(#gradient18)" fill-rule="evenodd" stroke="none"/>
    <path d="M8.7 -27.6 Q9.35 -21.8 6.6 -17.7 5.75 -16.55 2.85 -16.55 L2.85 -16.4 2.55 -16.55 2.15 -17.15 2.1 -16.4 1.65 -17.65 1.65 -17.7 0.65 -21.3 0.65 -21.4 0.7 -21.45 0.65 -21.45 0.6 -22.65 0.85 -22.5 Q4.2 -21.0 6.55 -30.4 L6.3 -31.4 7.3 -30.85 7.65 -30.4 8.35 -29.3 8.4 -29.0 8.7 -27.6" fill="url(#gradient19)" fill-rule="evenodd" stroke="none"/>
    <path d="M8.9 -27.9 L8.7 -27.6 8.4 -29.0 8.8 -28.55 8.9 -27.9" fill="url(#gradient20)" fill-rule="evenodd" stroke="none"/>
    <path d="M8.75 -32.1 Q11.05 -30.35 8.9 -27.9 L8.8 -28.55 8.4 -29.0 8.35 -29.3 8.65 -30.4 8.75 -32.1" fill="url(#gradient21)" fill-rule="evenodd" stroke="none"/>
    <path d="M0.85 -22.5 L0.6 -22.65 0.5 -23.05 0.75 -22.9 0.85 -22.65 0.85 -22.5" fill="url(#gradient22)" fill-rule="evenodd" stroke="none"/>
    <path d="M0.65 -21.3 Q0.5 -15.0 -0.75 -12.75 L-0.8 -12.5 Q-1.2 -11.85 -3.45 -10.85 L-4.45 -11.0 -4.6 -11.05 -5.1 -10.25 -5.4 -10.75 -5.55 -11.4 -5.6 -12.45 Q-6.85 -14.2 -7.45 -16.6 L-7.85 -19.95 -7.05 -19.05 Q-5.05 -17.4 -3.9 -19.05 -4.7 -20.65 -7.95 -22.6 L-7.85 -23.35 Q-7.0 -21.05 -5.0 -22.45 L-5.05 -22.9 -5.35 -23.35 Q-7.15 -26.2 -7.55 -25.3 L-7.35 -26.6 -6.95 -26.7 -6.9 -27.0 -6.25 -26.95 -6.1 -26.75 -5.65 -26.9 -5.3 -26.25 Q-3.65 -21.7 -0.8 -24.8 L-0.25 -24.4 -0.05 -24.0 0.5 -23.05 0.6 -22.65 0.65 -21.45 0.65 -21.4 0.65 -21.3" fill="url(#gradient23)" fill-rule="evenodd" stroke="none"/>
    <path d="M1.65 -17.65 L1.65 -17.7 1.65 -17.65 M0.65 -21.45 L0.7 -21.45 0.65 -21.4 0.65 -21.45" fill="url(#gradient24)" fill-rule="evenodd" stroke="none"/>
    <path d="M5.95 -16.1 L6.3 -14.45 Q6.3 -12.7 5.95 -12.1 L5.85 -11.8 Q3.6 -8.85 1.45 -11.45 L1.35 -11.6 1.25 -11.8 Q-0.05 -17.4 1.65 -17.65 L2.1 -16.4 2.25 -16.1 2.55 -16.55 2.85 -16.4 3.35 -15.85 4.35 -15.5 4.45 -15.15 5.25 -15.1 5.6 -15.8 5.95 -16.1" fill="url(#gradient25)" fill-rule="evenodd" stroke="none"/>
    <path d="M6.6 -17.7 L6.5 -16.95 5.95 -16.1 5.6 -15.8 5.45 -15.75 5.4 -15.7 5.35 -15.7 5.2 -15.55 4.35 -15.5 3.35 -15.85 2.85 -16.4 2.85 -16.55 Q5.75 -16.55 6.6 -17.7" fill="url(#gradient26)" fill-rule="evenodd" stroke="none"/>
    <path d="M2.1 -16.4 L2.15 -17.15 2.55 -16.55 2.25 -16.1 2.1 -16.4" fill="url(#gradient27)" fill-rule="evenodd" stroke="none"/>
    <path d="M4.35 -15.5 L5.2 -15.55 5.35 -15.7 5.4 -15.7 5.45 -15.75 5.6 -15.8 5.25 -15.1 4.45 -15.15 4.35 -15.5" fill="url(#gradient28)" fill-rule="evenodd" stroke="none"/>
    <path d="M5.95 -12.1 L6.1 -10.35 5.7 -9.65 Q3.9 -7.9 1.65 -9.85 L1.6 -9.9 1.5 -10.05 1.25 -11.45 1.35 -11.35 1.85 -10.65 1.9 -10.6 2.15 -10.45 2.8 -10.1 3.05 -10.05 Q3.75 -9.85 4.4 -10.05 L5.2 -10.55 5.25 -10.6 5.65 -10.95 5.75 -11.25 5.8 -11.35 5.85 -11.5 5.85 -11.8 5.95 -12.1" fill="url(#gradient29)" fill-rule="evenodd" stroke="none"/>
    <path d="M5.7 -9.65 L5.7 -9.35 5.45 -8.8 Q3.75 -7.85 2.75 -8.2 2.4 -8.35 2.1 -8.65 1.75 -9.1 1.6 -9.85 L1.65 -9.85 Q3.9 -7.9 5.7 -9.65 M1.55 -7.35 L1.55 -7.55 1.65 -7.75 1.65 -7.9 1.85 -7.75 Q3.4 -5.9 5.5 -7.55 5.6 -6.8 5.2 -6.4 L4.85 -6.15 3.5 -5.9 Q1.6 -6.55 1.55 -7.35 M5.25 -10.6 L5.2 -10.55 4.35 -10.1 3.05 -10.05 2.8 -10.1 2.15 -10.45 1.9 -10.6 1.85 -10.65 1.35 -11.35 1.35 -11.5 1.45 -11.45 Q3.6 -8.85 5.85 -11.8 L5.85 -11.5 5.8 -11.35 5.75 -11.25 5.25 -10.6 M1.5 -6.0 Q5.15 -3.0 5.65 -6.45 6.8 -4.15 3.15 -3.6 1.75 -3.55 1.5 -6.0" fill="url(#gradient30)" fill-rule="evenodd" stroke="none"/>
    <path d="M1.25 -11.45 L1.25 -11.8 1.35 -11.6 1.35 -11.5 1.35 -11.35 1.25 -11.45 M5.75 -11.25 L5.65 -10.95 5.25 -10.6 5.75 -11.25 M5.2 -10.55 L4.4 -10.05 Q3.75 -9.85 3.05 -10.05 L4.35 -10.1 5.2 -10.55" fill="url(#gradient31)" fill-rule="evenodd" stroke="none"/>
    <path d="M5.65 -6.85 L9.9 -5.25 Q11.3 -4.4 11.6 -3.5 L11.65 -1.45 8.85 -1.5 8.8 -1.55 8.75 -1.55 3.8 -2.5 1.65 -3.35 0.85 -4.55 Q0.8 -5.85 1.5 -6.65 L1.45 -6.25 1.5 -6.15 1.5 -6.0 Q1.75 -3.55 3.15 -3.6 6.8 -4.15 5.65 -6.45 L5.6 -6.7 5.65 -6.85" fill="url(#gradient32)" fill-rule="evenodd" stroke="none"/>
    <path d="M1.5 -6.65 L1.5 -7.1 Q3.0 -5.0 4.85 -6.15 L5.2 -6.4 5.6 -6.7 5.65 -6.45 Q5.15 -3.0 1.5 -6.0 L1.5 -6.15 1.45 -6.25 1.5 -6.65" fill="url(#gradient33)" fill-rule="evenodd" stroke="none"/>
    <path d="M5.55 -7.65 L5.7 -7.35 5.65 -6.85 5.6 -6.7 5.2 -6.4 Q5.6 -6.8 5.5 -7.55 L5.55 -7.65 M1.5 -7.1 L1.55 -7.35 Q1.6 -6.55 3.5 -5.9 L4.85 -6.15 Q3.0 -5.0 1.5 -7.1 M1.55 -7.55 L1.6 -7.95 1.65 -7.95 1.65 -7.9 1.65 -7.75 1.55 -7.55" fill="url(#gradient34)" fill-rule="evenodd" stroke="none"/>
    <path d="M5.7 -9.35 L5.8 -8.55 5.55 -7.65 5.5 -7.55 Q3.4 -5.9 1.85 -7.75 L1.65 -7.9 1.65 -7.95 1.65 -8.0 1.45 -9.3 2.1 -8.65 Q2.4 -8.35 2.75 -8.2 4.25 -7.4 5.45 -8.8 L5.7 -9.35" fill="url(#gradient35)" fill-rule="evenodd" stroke="none"/>
    <path d="M1.45 -11.45 L1.35 -11.5 1.35 -11.6 1.45 -11.45" fill="url(#gradient36)" fill-rule="evenodd" stroke="none"/>
    <path d="M1.45 -9.3 L1.5 -10.05 1.6 -9.9 1.6 -9.85 Q1.75 -9.1 2.1 -8.65 L1.45 -9.3 M2.75 -8.2 Q3.75 -7.85 5.45 -8.8 4.25 -7.4 2.75 -8.2" fill="url(#gradient37)" fill-rule="evenodd" stroke="none"/>
    <path d="M1.6 -9.9 L1.65 -9.85 1.6 -9.85 1.6 -9.9" fill="url(#gradient38)" fill-rule="evenodd" stroke="none"/>
    <path d="M1.6 -7.95 L1.65 -8.0 1.65 -7.95 1.6 -7.95" fill="url(#gradient39)" fill-rule="evenodd" stroke="none"/>
    <path d="M8.85 -1.5 L8.75 -1.55 8.8 -1.55 8.85 -1.5" fill="url(#gradient40)" fill-rule="evenodd" stroke="none"/>
    <path d="M-15.25 -51.25 L-13.3 -51.3 -12.6 -50.2 -13.25 -50.85 -15.25 -51.25" fill="url(#gradient41)" fill-rule="evenodd" stroke="none"/>
    <path d="M-16.1 -41.5 L-17.15 -40.0 Q-23.1 -31.3 -21.65 -41.7 L-21.5 -43.0 -21.45 -43.15 Q-20.5 -45.1 -20.25 -46.3 L-19.95 -46.75 -19.95 -46.95 -20.25 -46.45 Q-18.55 -51.05 -15.95 -51.15 L-15.25 -51.25 -13.25 -50.85 -12.6 -50.2 -12.45 -50.05 -12.35 -49.3 -12.35 -48.55 -13.35 -45.5 -13.4 -45.45 -13.4 -45.4 -13.45 -45.35 -14.35 -43.7 -16.0 -41.7 -16.1 -41.5" fill="url(#gradient42)" fill-rule="evenodd" stroke="none"/>
    <path d="M-1.1 -55.8 L-1.0 -55.9 -0.9 -55.8 -1.1 -55.8 M-0.75 -56.1 L-0.2 -56.55 -0.4 -55.9 -0.75 -56.1" fill="url(#gradient43)" fill-rule="evenodd" stroke="none"/>
    <path d="M-11.9 -34.0 L-12.5 -32.55 -13.15 -31.75 -13.7 -32.05 Q-14.5 -33.55 -14.45 -34.75 L-14.45 -38.5 -13.4 -45.35 -13.4 -45.4 -13.4 -45.45 -13.35 -45.5 -12.35 -48.55 -12.35 -49.3 Q-10.9 -53.4 -7.85 -51.25 L-7.65 -49.85 -7.8 -47.1 -7.85 -46.6 -8.5 -44.95 -9.1 -42.25 -9.65 -42.2 -10.5 -41.7 Q-12.35 -40.9 -10.95 -37.7 L-11.35 -37.0 -11.9 -34.0" fill="url(#gradient44)" fill-rule="evenodd" stroke="none"/>
    <path d="M-5.75 -50.0 L-5.8 -51.8 -4.3 -53.75 Q-4.1 -53.85 -3.85 -54.0 L-3.75 -53.75 -4.25 -53.0 Q-5.0 -50.25 -2.35 -46.6 L-3.0 -46.15 -4.35 -47.6 Q-5.45 -48.95 -5.75 -50.0" fill="url(#gradient45)" fill-rule="evenodd" stroke="none"/>
    <path d="M-6.1 -48.05 L-6.1 -49.0 -5.75 -50.0 Q-5.45 -48.95 -4.35 -47.6 L-3.0 -46.15 -3.9 -45.7 Q-6.2 -45.95 -6.1 -48.05" fill="url(#gradient46)" fill-rule="evenodd" stroke="none"/>
    <path d="M-6.75 -46.95 L-6.6 -47.55 -6.1 -48.05 Q-6.2 -45.95 -3.9 -45.7 L-4.7 -45.25 -5.25 -45.2 Q-5.3 -46.0 -5.9 -46.5 L-6.75 -46.95" fill="url(#gradient47)" fill-rule="evenodd" stroke="none"/>
    <path d="M-5.35 -44.85 L-4.15 -44.5 -4.4 -43.85 -4.2 -42.75 -5.3 -42.4 -6.65 -41.7 -7.0 -41.1 -6.95 -40.95 -8.45 -42.35 -8.8 -42.3 -7.55 -43.75 -5.35 -44.85" fill="url(#gradient48)" fill-rule="evenodd" stroke="none"/>
    <path d="M-1.65 -44.6 L-1.2 -44.7 -1.15 -44.0 -1.65 -44.6" fill="url(#gradient49)" fill-rule="evenodd" stroke="none"/>
    <path d="M0.1 -44.5 L-0.1 -43.45 -0.7 -43.9 -1.0 -44.6 -0.95 -44.6 -0.55 -44.75 -0.2 -44.5 0.1 -44.5" fill="url(#gradient50)" fill-rule="evenodd" stroke="none"/>
    <path d="M-0.25 -43.15 L-0.55 -42.15 -0.9 -42.95 -1.45 -43.0 -1.9 -42.65 -2.2 -42.9 -2.7 -44.45 -1.65 -44.6 -1.15 -44.0 -0.25 -43.15" fill="url(#gradient51)" fill-rule="evenodd" stroke="none"/>
    <path d="M-9.75 -31.45 L-10.1 -31.6 Q-9.8 -32.35 -10.3 -33.7 L-10.05 -35.95 -9.0 -34.25 -8.6 -32.95 -9.1 -31.95 -9.4 -31.55 -9.75 -31.45 M-7.8 -47.1 L-6.75 -46.95 -5.9 -46.5 Q-5.3 -46.0 -5.25 -45.2 L-5.8 -45.1 -5.35 -44.85 -7.55 -43.75 -8.8 -42.3 -9.1 -42.25 -8.5 -44.95 -7.85 -46.6 -7.8 -47.1" fill="url(#gradient52)" fill-rule="evenodd" stroke="none"/>
    <path d="M-6.85 -28.95 L-7.55 -30.6 -8.6 -32.95 -9.0 -34.25 -10.05 -35.95 -10.95 -37.7 Q-12.35 -40.9 -10.5 -41.7 L-9.65 -42.2 -9.1 -42.25 -8.8 -42.3 -8.45 -42.35 -6.95 -40.95 -6.65 -39.95 Q-5.45 -38.8 -5.15 -37.65 -5.95 -34.55 -4.4 -32.95 L-4.55 -32.1 -5.3 -29.55 -5.3 -26.25 -5.65 -26.9 -6.75 -28.7 -6.75 -28.8 -6.85 -28.95" fill="url(#gradient53)" fill-rule="evenodd" stroke="none"/>
    <path d="M-0.55 -42.15 L-0.5 -41.85 -0.55 -40.6 -1.05 -39.0 Q-2.5 -38.5 -3.2 -39.85 L-2.55 -41.7 -2.05 -42.5 -1.9 -42.65 -1.45 -43.0 -0.9 -42.95 -0.55 -42.15" fill="url(#gradient54)" fill-rule="evenodd" stroke="none"/>
    <path d="M-0.5 -41.85 L-0.4 -41.7 -0.3 -40.5 -0.75 -38.95 -1.05 -39.0 -0.55 -40.6 -0.5 -41.85" fill="url(#gradient55)" fill-rule="evenodd" stroke="none"/>
    <path d="M-0.75 -38.95 L-0.55 -38.7 -0.5 -38.55 -0.25 -37.95 Q0.55 -36.0 -1.05 -33.3 -2.2 -31.6 -4.4 -32.95 -5.95 -34.55 -5.15 -37.65 L-4.4 -39.0 -3.65 -39.65 -3.2 -39.85 Q-2.5 -38.5 -1.05 -39.0 L-0.75 -38.95" fill="url(#gradient56)" fill-rule="evenodd" stroke="none"/>
    <path d="M-13.4 -45.4 L-13.4 -45.35 -13.45 -45.35 -13.4 -45.4" fill="url(#gradient57)" fill-rule="evenodd" stroke="none"/>
    <path d="M-14.45 -34.75 L-15.4 -30.8 -15.9 -29.5 -15.95 -29.4 -16.4 -29.5 -16.7 -30.4 -16.85 -34.2 Q-16.85 -37.1 -16.1 -41.5 L-16.0 -41.7 -14.35 -43.7 -13.45 -45.35 -13.4 -45.35 -14.45 -38.5 -14.45 -34.75" fill="url(#gradient58)" fill-rule="evenodd" stroke="none"/>
    <path d="M-17.15 -40.0 L-21.65 -28.1 Q-22.85 -25.3 -23.45 -25.9 -25.3 -29.75 -21.5 -43.0 L-21.65 -41.7 Q-23.1 -31.3 -17.15 -40.0 M-21.45 -43.15 L-21.15 -44.35 -20.25 -46.45 -19.95 -46.95 -19.95 -46.75 -20.25 -46.3 Q-20.5 -45.1 -21.45 -43.15" fill="url(#gradient59)" fill-rule="evenodd" stroke="none"/>
    <path d="M-10.1 -31.6 L-11.05 -28.95 -11.35 -28.5 -11.7 -28.55 Q-12.05 -28.85 -12.1 -30.1 L-11.9 -34.0 -11.35 -37.0 -10.95 -37.7 -10.05 -35.95 -10.3 -33.7 Q-9.8 -32.35 -10.1 -31.6" fill="url(#gradient60)" fill-rule="evenodd" stroke="none"/>
    <path d="M-5.3 -26.25 L-5.3 -29.55 -4.55 -32.1 -4.4 -32.95 Q-2.2 -31.6 -1.05 -33.3 L-1.0 -33.05 -1.0 -32.7 -0.9 -31.95 -0.35 -30.4 -0.35 -30.35 -0.2 -29.55 -0.1 -27.5 Q-0.05 -26.25 -0.8 -24.8 -3.65 -21.7 -5.3 -26.25" fill="url(#gradient61)" fill-rule="evenodd" stroke="none"/>
    <path d="M-7.55 -30.6 L-8.25 -25.75 -8.45 -25.05 -8.9 -25.0 Q-9.25 -25.4 -9.5 -26.95 L-9.75 -31.45 -9.4 -31.55 -9.1 -31.95 -8.6 -32.95 -7.55 -30.6" fill="url(#gradient62)" fill-rule="evenodd" stroke="none"/>
    <path d="M-6.8 -28.7 L-6.8 -28.8 -6.75 -28.8 -6.75 -28.7 -6.8 -28.7" fill="url(#gradient63)" fill-rule="evenodd" stroke="none"/>
    <path d="M-7.35 -26.6 L-7.35 -26.7 -7.3 -26.75 -7.3 -26.8 -7.3 -26.85 -7.2 -28.0 -6.8 -28.7 -6.75 -28.7 -5.65 -26.9 -6.1 -26.75 -6.25 -26.95 -6.9 -27.0 -6.95 -26.7 -7.35 -26.6" fill="url(#gradient64)" fill-rule="evenodd" stroke="none"/>
    <path d="M-6.8 -28.8 L-6.85 -28.95 -6.75 -28.8 -6.8 -28.8" fill="url(#gradient65)" fill-rule="evenodd" stroke="none"/>
    <path d="M-6.1 -11.45 L-5.95 -11.6 -6.0 -11.45 -6.1 -11.45 M-7.35 -26.7 L-7.3 -26.8 -7.3 -26.75 -7.35 -26.7" fill="url(#gradient66)" fill-rule="evenodd" stroke="none"/>
    <path d="M-7.85 -23.35 L-7.85 -24.35 -7.65 -25.2 -7.55 -25.25 -7.55 -25.3 Q-7.15 -26.2 -5.35 -23.35 L-5.05 -22.9 -5.0 -22.45 Q-7.0 -21.05 -7.85 -23.35" fill="url(#gradient67)" fill-rule="evenodd" stroke="none"/>
    <path d="M-7.85 -19.95 L-8.2 -21.45 -7.95 -22.6 Q-4.7 -20.65 -3.9 -19.05 -5.05 -17.4 -7.05 -19.05 L-7.85 -19.95" fill="url(#gradient68)" fill-rule="evenodd" stroke="none"/>
    <path d="M-0.8 -12.5 L-1.25 -11.05 -1.9 -10.1 Q-3.9 -6.65 -4.75 -10.35 L-4.75 -10.65 -4.45 -11.0 -3.45 -10.85 Q-1.2 -11.85 -0.8 -12.5" fill="url(#gradient69)" fill-rule="evenodd" stroke="none"/>
    <path d="M-4.45 -11.0 L-4.75 -10.65 -4.75 -10.35 -5.1 -10.25 -4.6 -11.05 -4.45 -11.0" fill="url(#gradient70)" fill-rule="evenodd" stroke="none"/>
    <path d="M-1.9 -10.1 Q-1.05 -6.65 -2.35 -4.3 L-2.5 -4.05 Q-5.1 -1.7 -7.1 -4.05 L-7.2 -4.45 Q-7.6 -5.25 -7.5 -7.45 L-7.15 -9.9 -6.55 -11.0 -6.1 -11.45 -6.0 -11.45 -6.25 -10.85 -5.55 -11.4 -5.4 -10.75 -5.1 -10.25 -4.75 -10.35 Q-3.9 -6.65 -1.9 -10.1" fill="url(#gradient71)" fill-rule="evenodd" stroke="none"/>
    <path d="M-5.95 -11.6 L-5.6 -12.45 -5.55 -11.4 -6.25 -10.85 -6.0 -11.45 -5.95 -11.6" fill="url(#gradient72)" fill-rule="evenodd" stroke="none"/>
    <path d="M-2.35 -4.3 L-2.35 -3.75 Q-2.65 -2.35 -5.3 -2.5 -2.45 -2.55 -2.5 -4.05 L-2.35 -4.3 M-7.25 -3.85 L-7.2 -4.45 -7.1 -4.05 Q-6.95 -2.95 -5.35 -2.5 L-6.55 -2.9 -7.25 -3.85" fill="url(#gradient73)" fill-rule="evenodd" stroke="none"/>
    <path d="M-2.35 -3.75 L-2.3 -2.5 -2.6 -1.85 Q-3.6 -0.2 -6.7 -1.65 L-6.75 -1.7 -6.9 -1.9 -7.2 -2.5 -7.25 -3.85 -6.55 -2.9 -5.35 -2.5 -5.3 -2.5 Q-2.65 -2.35 -2.35 -3.75" fill="url(#gradient74)" fill-rule="evenodd" stroke="none"/>
    <path d="M-2.6 -1.85 L-2.55 -1.75 -2.6 -1.4 -2.6 -1.3 -2.9 -0.6 -3.8 0.0 -3.85 0.0 Q-6.8 0.2 -6.7 -1.65 -3.6 -0.2 -2.6 -1.85 M-2.3 3.0 L-2.3 3.7 Q-3.35 6.35 -6.15 3.55 L-6.3 3.4 -6.45 3.55 -6.45 3.5 -6.4 2.8 -6.5 2.85 -6.4 2.35 -5.75 3.35 -5.3 3.55 Q-4.65 3.95 -3.35 3.55 L-3.0 3.55 -2.3 3.0 M-7.1 -4.05 Q-5.1 -1.7 -2.5 -4.05 -2.45 -2.55 -5.3 -2.5 L-5.35 -2.5 Q-6.95 -2.95 -7.1 -4.05 M-2.55 0.45 Q-2.1 2.05 -3.95 2.5 -5.5 2.3 -5.85 1.2 -3.3 1.95 -2.55 0.45" fill="url(#gradient75)" fill-rule="evenodd" stroke="none"/>
    <path d="M-2.55 -1.75 L-2.5 -1.5 -2.6 -1.4 -2.55 -1.75 M-6.9 -1.05 L-6.9 -1.9 -6.75 -1.7 -6.7 -1.65 Q-6.8 0.2 -3.85 0.0 -5.45 0.7 -6.9 -1.05 M-3.8 0.0 L-2.9 -0.6 -2.6 -1.3 -2.55 -1.05 -2.9 -0.45 -3.8 0.0" fill="url(#gradient76)" fill-rule="evenodd" stroke="none"/>
    <path d="M-2.5 -1.5 L-2.4 0.25 -2.55 0.45 Q-3.3 1.95 -5.85 1.2 L-6.5 0.65 -6.85 -0.15 -6.9 -1.05 Q-5.45 0.7 -3.85 0.0 L-3.8 0.0 -2.9 -0.45 -2.55 -1.05 -2.6 -1.3 -2.6 -1.4 -2.5 -1.5" fill="url(#gradient77)" fill-rule="evenodd" stroke="none"/>
    <path d="M-2.25 0.9 L-2.05 2.45 -2.3 3.0 -3.0 3.55 -3.35 3.55 Q-4.65 3.95 -5.3 3.55 L-5.75 3.35 -6.4 2.35 -6.5 1.45 Q-3.05 4.0 -2.25 0.9" fill="url(#gradient78)" fill-rule="evenodd" stroke="none"/>
    <path d="M-2.4 0.25 L-2.25 0.9 Q-3.05 4.0 -6.5 1.45 L-6.5 0.65 -5.85 1.2 Q-5.5 2.3 -3.95 2.5 -2.1 2.05 -2.55 0.45 L-2.4 0.25" fill="url(#gradient79)" fill-rule="evenodd" stroke="none"/>
    <path d="M-2.3 3.7 Q0.85 10.2 -1.2 11.8 L-2.5 11.6 -3.55 11.85 Q-5.8 11.5 -6.45 3.55 L-6.3 3.4 -6.15 3.55 Q-3.35 6.35 -2.3 3.7 M-6.45 3.5 L-6.5 2.85 -6.4 2.8 -6.45 3.5" fill="url(#gradient80)" fill-rule="evenodd" stroke="none"/>
    <path d="M-1.2 11.8 L-3.55 11.85 -2.5 11.6 -1.2 11.8" fill="url(#gradient81)" fill-rule="evenodd" stroke="none"/>
  </g>
  <defs>
    <radialGradient cx="0" cy="0" gradientTransform="matrix(0.002, 0.0, 0.0, 0.002, -0.55, -55.55)" gradientUnits="userSpaceOnUse" id="gradient0" r="819.2" spreadMethod="pad">
      <stop offset="0.0" stop-color="#a7a7a7"/>
      <stop offset="1.0" stop-color="#909090"/>
    </radialGradient>
    <radialGradient cx="0" cy="0" gradientTransform="matrix(0.0088, 0.0, 0.0, 0.0088, 1.85, -49.8)" gradientUnits="userSpaceOnUse" id="gradient1" r="819.2" spreadMethod="pad">
      <stop offset="0.0" stop-color="#6ab5e2"/>
      <stop offset="1.0" stop-color="#497e9c"/>
    </radialGradient>
    <radialGradient cx="0" cy="0" gradientTransform="matrix(0.002, 0.0, 0.0, 0.002, 2.15, -55.15)" gradientUnits="userSpaceOnUse" id="gradient2" r="819.2" spreadMethod="pad">
      <stop offset="0.0" stop-color="#b5b5b5"/>
      <stop offset="1.0" stop-color="#8b8b8b"/>
    </radialGradient>
    <radialGradient cx="0" cy="0" gradientTransform="matrix(0.0088, 0.0, 0.0, 0.0088, 5.15, -49.8)" gradientUnits="userSpaceOnUse" id="gradient3" r="819.2" spreadMethod="pad">
      <stop offset="0.0" stop-color="#6cb9e7"/>
      <stop offset="1.0" stop-color="#3a647d"/>
    </radialGradient>
    <radialGradient cx="0" cy="0" gradientTransform="matrix(0.0078, 0.0, 0.0, 0.0078, 3.0, -52.15)" gradientUnits="userSpaceOnUse" id="gradient4" r="819.2" spreadMethod="pad">
      <stop offset="0.0" stop-color="#6bb7e4"/>
      <stop offset="1.0" stop-color="#467895"/>
    </radialGradient>
    <radialGradient cx="0" cy="0" gradientTransform="matrix(0.0104, 0.0, 0.0, 0.0104, 5.5, -50.5)" gradientUnits="userSpaceOnUse" id="gradient5" r="819.2" spreadMethod="pad">
      <stop offset="0.0" stop-color="#6ab7e4"/>
      <stop offset="1.0" stop-color="#375f77"/>
    </radialGradient>
    <radialGradient cx="0" cy="0" gradientTransform="matrix(0.0072, 0.0, 0.0, 0.0072, 5.55, -47.95)" gradientUnits="userSpaceOnUse" id="gradient6" r="819.2" spreadMethod="pad">
      <stop offset="0.0" stop-color="#6ab7e4"/>
      <stop offset="1.0" stop-color="#508aac"/>
    </radialGradient>
    <radialGradient cx="0" cy="0" gradientTransform="matrix(0.001, 0.0, 0.0, 0.001, 5.2, -45.95)" gradientUnits="userSpaceOnUse" id="gradient7" r="819.2" spreadMethod="pad">
      <stop offset="0.0" stop-color="#2d3656"/>
      <stop offset="1.0" stop-color="#282f4c"/>
    </radialGradient>
    <radialGradient cx="0" cy="0" gradientTransform="matrix(0.0094, 0.0, 0.0, 0.0094, 0.75, -43.2)" gradientUnits="userSpaceOnUse" id="gradient8" r="819.2" spreadMethod="pad">
      <stop offset="0.0" stop-color="#a0a0c8"/>
      <stop offset="1.0" stop-color="#8787a9"/>
    </radialGradient>
    <radialGradient cx="0" cy="0" gradientTransform="matrix(0.0087, 0.0, 0.0, 0.0087, 2.7, -49.2)" gradientUnits="userSpaceOnUse" id="gradient9" r="819.2" spreadMethod="pad">
      <stop offset="0.0" stop-color="#9797bc"/>
      <stop offset="1.0" stop-color="#4d4d60"/>
    </radialGradient>
    <radialGradient cx="0" cy="0" gradientTransform="matrix(0.0089, 0.0, 0.0, 0.0089, 5.75, -46.05)" gradientUnits="userSpaceOnUse" id="gradient10" r="819.2" spreadMethod="pad">
      <stop offset="0.0" stop-color="#3d4974"/>
      <stop offset="1.0" stop-color="#242b45"/>
    </radialGradient>
    <radialGradient cx="0" cy="0" gradientTransform="matrix(0.0137, 0.0, 0.0, 0.0137, 2.55, -47.55)" gradientUnits="userSpaceOnUse" id="gradient11" r="819.2" spreadMethod="pad">
      <stop offset="0.0" stop-color="#6ab7e4"/>
      <stop offset="1.0" stop-color="#477a97"/>
    </radialGradient>
    <radialGradient cx="0" cy="0" gradientTransform="matrix(0.0023, 0.0, 0.0, 0.0023, 4.9, -47.4)" gradientUnits="userSpaceOnUse" id="gradient12" r="819.2" spreadMethod="pad">
      <stop offset="0.0" stop-color="#2a324f"/>
      <stop offset="1.0" stop-color="#151927"/>
    </radialGradient>
    <radialGradient cx="0" cy="0" gradientTransform="matrix(0.0083, 0.0, 0.0, 0.0083, 0.6, -47.4)" gradientUnits="userSpaceOnUse" id="gradient13" r="819.2" spreadMethod="pad">
      <stop offset="0.0" stop-color="#6ab7e4"/>
      <stop offset="1.0" stop-color="#406e89"/>
    </radialGradient>
    <radialGradient cx="0" cy="0" gradientTransform="matrix(0.0198, 0.0, 0.0, 0.0198, 6.4, -37.9)" gradientUnits="userSpaceOnUse" id="gradient14" r="819.2" spreadMethod="pad">
      <stop offset="0.0" stop-color="#3d4873"/>
      <stop offset="1.0" stop-color="#191d2f"/>
    </radialGradient>
    <radialGradient cx="0" cy="0" gradientTransform="matrix(0.0183, 0.0, 0.0, 0.0183, 5.35, -37.2)" gradientUnits="userSpaceOnUse" id="gradient15" r="819.2" spreadMethod="pad">
      <stop offset="0.0" stop-color="#aaaad4"/>
      <stop offset="1.0" stop-color="#616179"/>
    </radialGradient>
    <radialGradient cx="0" cy="0" gradientTransform="matrix(0.0098, 0.0, 0.0, 0.0098, -4.55, -39.0)" gradientUnits="userSpaceOnUse" id="gradient16" r="819.2" spreadMethod="pad">
      <stop offset="0.0" stop-color="#a7a7d0"/>
      <stop offset="1.0" stop-color="#8787a9"/>
    </radialGradient>
    <radialGradient cx="0" cy="0" gradientTransform="matrix(0.0066, 0.0, 0.0, 0.0066, 7.85, -33.75)" gradientUnits="userSpaceOnUse" id="gradient17" r="819.2" spreadMethod="pad">
      <stop offset="0.0" stop-color="#262d47"/>
      <stop offset="1.0" stop-color="#1f243a"/>
    </radialGradient>
    <radialGradient cx="0" cy="0" gradientTransform="matrix(0.0088, 0.0, 0.0, 0.0088, -0.75, -37.65)" gradientUnits="userSpaceOnUse" id="gradient18" r="819.2" spreadMethod="pad">
      <stop offset="0.0" stop-color="#a3a3cc"/>
      <stop offset="1.0" stop-color="#696983"/>
    </radialGradient>
    <radialGradient cx="0" cy="0" gradientTransform="matrix(0.0163, 0.0, 0.0, 0.0163, 4.5, -29.25)" gradientUnits="userSpaceOnUse" id="gradient19" r="819.2" spreadMethod="pad">
      <stop offset="0.0" stop-color="#a3a3cb"/>
      <stop offset="1.0" stop-color="#3f3f4e"/>
    </radialGradient>
    <radialGradient cx="0" cy="0" gradientTransform="matrix(0.0017, 0.0, 0.0, 0.0017, 8.35, -28.95)" gradientUnits="userSpaceOnUse" id="gradient20" r="819.2" spreadMethod="pad">
      <stop offset="0.0" stop-color="#7c7c9b"/>
      <stop offset="1.0" stop-color="#59596f"/>
    </radialGradient>
    <radialGradient cx="0" cy="0" gradientTransform="matrix(0.0029, 0.0, 0.0, 0.0029, 7.95, -30.1)" gradientUnits="userSpaceOnUse" id="gradient21" r="819.2" spreadMethod="pad">
      <stop offset="0.0" stop-color="#404b79"/>
      <stop offset="1.0" stop-color="#20253c"/>
    </radialGradient>
    <radialGradient cx="0" cy="0" gradientTransform="matrix(0.0019, 0.0, 0.0, 0.0019, 1.15, -22.6)" gradientUnits="userSpaceOnUse" id="gradient22" r="819.2" spreadMethod="pad">
      <stop offset="0.0" stop-color="#08090e"/>
      <stop offset="1.0" stop-color="#08090e"/>
    </radialGradient>
    <radialGradient cx="0" cy="0" gradientTransform="matrix(0.0205, 0.0, 0.0, 0.0205, -3.1, -26.35)" gradientUnits="userSpaceOnUse" id="gradient23" r="819.2" spreadMethod="pad">
      <stop offset="0.0" stop-color="#b0b0db"/>
      <stop offset="1.0" stop-color="#5f5f76"/>
    </radialGradient>
    <radialGradient cx="0" cy="0" gradientTransform="matrix(0.006, 0.0, 0.0, 0.006, 0.65, -21.4)" gradientUnits="userSpaceOnUse" id="gradient24" r="819.2" spreadMethod="pad">
      <stop offset="0.0" stop-color="#57576d"/>
      <stop offset="1.0" stop-color="#15151a"/>
    </radialGradient>
    <radialGradient cx="0" cy="0" gradientTransform="matrix(0.0077, 0.0, 0.0, 0.0077, 3.5, -16.45)" gradientUnits="userSpaceOnUse" id="gradient25" r="819.2" spreadMethod="pad">
      <stop offset="0.0" stop-color="#aaaad4"/>
      <stop offset="1.0" stop-color="#434354"/>
    </radialGradient>
    <radialGradient cx="0" cy="0" gradientTransform="matrix(0.0041, 0.0, 0.0, 0.0041, 4.0, -17.1)" gradientUnits="userSpaceOnUse" id="gradient26" r="819.2" spreadMethod="pad">
      <stop offset="0.0" stop-color="#777795"/>
      <stop offset="1.0" stop-color="#56566b"/>
    </radialGradient>
    <radialGradient cx="0" cy="0" gradientTransform="matrix(0.0016, 0.0, 0.0, 0.0016, 2.75, -16.2)" gradientUnits="userSpaceOnUse" id="gradient27" r="819.2" spreadMethod="pad">
      <stop offset="0.0" stop-color="#4d4d60"/>
      <stop offset="1.0" stop-color="#474758"/>
    </radialGradient>
    <radialGradient cx="0" cy="0" gradientTransform="matrix(0.0018, 0.0, 0.0, 0.0018, 5.2, -15.05)" gradientUnits="userSpaceOnUse" id="gradient28" r="819.2" spreadMethod="pad">
      <stop offset="0.0" stop-color="#424252"/>
      <stop offset="1.0" stop-color="#33333f"/>
    </radialGradient>
    <radialGradient cx="0" cy="0" gradientTransform="matrix(0.0055, 0.0, 0.0, 0.0055, 5.55, -10.7)" gradientUnits="userSpaceOnUse" id="gradient29" r="819.2" spreadMethod="pad">
      <stop offset="0.0" stop-color="#21273e"/>
      <stop offset="1.0" stop-color="#1e2439"/>
    </radialGradient>
    <radialGradient cx="0" cy="0" gradientTransform="matrix(0.0101, 0.0, 0.0, 0.0101, 6.05, -5.1)" gradientUnits="userSpaceOnUse" id="gradient30" r="819.2" spreadMethod="pad">
      <stop offset="0.0" stop-color="#616178"/>
      <stop offset="1.0" stop-color="#545469"/>
    </radialGradient>
    <radialGradient cx="0" cy="0" gradientTransform="matrix(0.004, 0.0, 0.0, 0.004, 3.4, -10.05)" gradientUnits="userSpaceOnUse" id="gradient31" r="819.2" spreadMethod="pad">
      <stop offset="0.0" stop-color="#424e7c"/>
      <stop offset="1.0" stop-color="#414d7c"/>
    </radialGradient>
    <radialGradient cx="0" cy="0" gradientTransform="matrix(0.0096, 0.0, 0.0, 0.0096, 4.55, -5.2)" gradientUnits="userSpaceOnUse" id="gradient32" r="819.2" spreadMethod="pad">
      <stop offset="0.0" stop-color="#c4c4f4"/>
      <stop offset="1.0" stop-color="#9595ba"/>
    </radialGradient>
    <radialGradient cx="0" cy="0" gradientTransform="matrix(0.0035, 0.0, 0.0, 0.0035, 3.45, -5.6)" gradientUnits="userSpaceOnUse" id="gradient33" r="819.2" spreadMethod="pad">
      <stop offset="0.0" stop-color="#242a44"/>
      <stop offset="1.0" stop-color="#1d2237"/>
    </radialGradient>
    <radialGradient cx="0" cy="0" gradientTransform="matrix(0.0041, 0.0, 0.0, 0.0041, 2.75, -6.0)" gradientUnits="userSpaceOnUse" id="gradient34" r="819.2" spreadMethod="pad">
      <stop offset="0.0" stop-color="#414d7c"/>
      <stop offset="1.0" stop-color="#414d7b"/>
    </radialGradient>
    <radialGradient cx="0" cy="0" gradientTransform="matrix(0.0035, 0.0, 0.0, 0.0035, 3.45, -8.0)" gradientUnits="userSpaceOnUse" id="gradient35" r="819.2" spreadMethod="pad">
      <stop offset="0.0" stop-color="#222941"/>
      <stop offset="1.0" stop-color="#1e2338"/>
    </radialGradient>
    <radialGradient cx="0" cy="0" gradientTransform="matrix(0.0066, 0.0, 0.0, 0.0066, 0.95, -12.55)" gradientUnits="userSpaceOnUse" id="gradient36" r="819.2" spreadMethod="pad">
      <stop offset="0.0" stop-color="#4f4f62"/>
      <stop offset="1.0" stop-color="#15151a"/>
    </radialGradient>
    <radialGradient cx="0" cy="0" gradientTransform="matrix(0.0042, 0.0, 0.0, 0.0042, 2.7, -8.2)" gradientUnits="userSpaceOnUse" id="gradient37" r="819.2" spreadMethod="pad">
      <stop offset="0.0" stop-color="#414d7c"/>
      <stop offset="1.0" stop-color="#414d7b"/>
    </radialGradient>
    <radialGradient cx="0" cy="0" gradientTransform="matrix(0.0025, 0.0, 0.0, 0.0025, 2.75, -9.1)" gradientUnits="userSpaceOnUse" id="gradient38" r="819.2" spreadMethod="pad">
      <stop offset="0.0" stop-color="#08090e"/>
      <stop offset="1.0" stop-color="#08090e"/>
    </radialGradient>
    <radialGradient cx="0" cy="0" gradientTransform="matrix(0.0077, 0.0, 0.0, 0.0077, 5.65, -10.65)" gradientUnits="userSpaceOnUse" id="gradient39" r="819.2" spreadMethod="pad">
      <stop offset="0.0" stop-color="#15151a"/>
      <stop offset="1.0" stop-color="#15151a"/>
    </radialGradient>
    <radialGradient cx="0" cy="0" gradientTransform="matrix(0.0104, 0.0, 0.0, 0.0104, 8.75, -1.6)" gradientUnits="userSpaceOnUse" id="gradient40" r="819.2" spreadMethod="pad">
      <stop offset="0.0" stop-color="#15151a"/>
      <stop offset="1.0" stop-color="#15151a"/>
    </radialGradient>
    <radialGradient cx="0" cy="0" gradientTransform="matrix(0.0035, 0.0, 0.0, 0.0035, -13.25, -50.9)" gradientUnits="userSpaceOnUse" id="gradient41" r="819.2" spreadMethod="pad">
      <stop offset="0.0" stop-color="#878787"/>
      <stop offset="1.0" stop-color="#555555"/>
    </radialGradient>
    <radialGradient cx="0" cy="0" gradientTransform="matrix(0.0208, 0.0, 0.0, 0.0208, -13.25, -50.9)" gradientUnits="userSpaceOnUse" id="gradient42" r="819.2" spreadMethod="pad">
      <stop offset="0.0" stop-color="#ffffff"/>
      <stop offset="1.0" stop-color="#787878"/>
    </radialGradient>
    <radialGradient cx="0" cy="0" gradientTransform="matrix(0.0015, 0.0, 0.0, 0.0015, -0.55, -55.55)" gradientUnits="userSpaceOnUse" id="gradient43" r="819.2" spreadMethod="pad">
      <stop offset="0.0" stop-color="#c4c4c4"/>
      <stop offset="1.0" stop-color="#777777"/>
    </radialGradient>
    <radialGradient cx="0" cy="0" gradientTransform="matrix(0.0245, 0.0, 0.0, 0.0245, -8.55, -51.3)" gradientUnits="userSpaceOnUse" id="gradient44" r="819.2" spreadMethod="pad">
      <stop offset="0.0" stop-color="#fbfbfb"/>
      <stop offset="1.0" stop-color="#919191"/>
    </radialGradient>
    <radialGradient cx="0" cy="0" gradientTransform="matrix(0.0092, 0.0, 0.0, 0.0092, -1.85, -53.5)" gradientUnits="userSpaceOnUse" id="gradient45" r="819.2" spreadMethod="pad">
      <stop offset="0.0" stop-color="#5998bd"/>
      <stop offset="1.0" stop-color="#39617a"/>
    </radialGradient>
    <radialGradient cx="0" cy="0" gradientTransform="matrix(0.0053, 0.0, 0.0, 0.0053, -5.0, -49.15)" gradientUnits="userSpaceOnUse" id="gradient46" r="819.2" spreadMethod="pad">
      <stop offset="0.0" stop-color="#5490b4"/>
      <stop offset="1.0" stop-color="#2c4d60"/>
    </radialGradient>
    <radialGradient cx="0" cy="0" gradientTransform="matrix(0.0031, 0.0, 0.0, 0.0031, -4.8, -47.45)" gradientUnits="userSpaceOnUse" id="gradient47" r="819.2" spreadMethod="pad">
      <stop offset="0.0" stop-color="#69b5e2"/>
      <stop offset="1.0" stop-color="#4f87a8"/>
    </radialGradient>
    <radialGradient cx="0" cy="0" gradientTransform="matrix(0.0087, 0.0, 0.0, 0.0087, -3.75, -45.0)" gradientUnits="userSpaceOnUse" id="gradient48" r="819.2" spreadMethod="pad">
      <stop offset="0.0" stop-color="#9f9fc7"/>
      <stop offset="1.0" stop-color="#8d8db0"/>
    </radialGradient>
    <radialGradient cx="0" cy="0" gradientTransform="matrix(0.0023, 0.0, 0.0, 0.0023, -1.7, -44.75)" gradientUnits="userSpaceOnUse" id="gradient49" r="819.2" spreadMethod="pad">
      <stop offset="0.0" stop-color="#7b7b99"/>
      <stop offset="1.0" stop-color="#7b7b99"/>
    </radialGradient>
    <radialGradient cx="0" cy="0" gradientTransform="matrix(0.0038, 0.0, 0.0, 0.0038, 0.25, -44.8)" gradientUnits="userSpaceOnUse" id="gradient50" r="819.2" spreadMethod="pad">
      <stop offset="0.0" stop-color="#384269"/>
      <stop offset="1.0" stop-color="#272e4a"/>
    </radialGradient>
    <radialGradient cx="0" cy="0" gradientTransform="matrix(0.0051, 0.0, 0.0, 0.0051, -0.7, -41.9)" gradientUnits="userSpaceOnUse" id="gradient51" r="819.2" spreadMethod="pad">
      <stop offset="0.0" stop-color="#777795"/>
      <stop offset="1.0" stop-color="#6f6f8a"/>
    </radialGradient>
    <radialGradient cx="0" cy="0" gradientTransform="matrix(0.0181, 0.0, 0.0, 0.0181, -5.55, -45.75)" gradientUnits="userSpaceOnUse" id="gradient52" r="819.2" spreadMethod="pad">
      <stop offset="0.0" stop-color="#ffffff"/>
      <stop offset="1.0" stop-color="#969696"/>
    </radialGradient>
    <radialGradient cx="0" cy="0" gradientTransform="matrix(0.0129, 0.0, 0.0, 0.0129, -6.85, -34.9)" gradientUnits="userSpaceOnUse" id="gradient53" r="819.2" spreadMethod="pad">
      <stop offset="0.0" stop-color="#3c4772"/>
      <stop offset="1.0" stop-color="#272f4b"/>
    </radialGradient>
    <radialGradient cx="0" cy="0" gradientTransform="matrix(0.0046, 0.0, 0.0, 0.0046, -1.45, -42.35)" gradientUnits="userSpaceOnUse" id="gradient54" r="819.2" spreadMethod="pad">
      <stop offset="0.0" stop-color="#374269"/>
      <stop offset="1.0" stop-color="#262e4a"/>
    </radialGradient>
    <radialGradient cx="0" cy="0" gradientTransform="matrix(0.0036, 0.0, 0.0, 0.0036, -0.7, -41.65)" gradientUnits="userSpaceOnUse" id="gradient55" r="819.2" spreadMethod="pad">
      <stop offset="0.0" stop-color="#2d3656"/>
      <stop offset="1.0" stop-color="#222941"/>
    </radialGradient>
    <radialGradient cx="0" cy="0" gradientTransform="matrix(0.0068, 0.0, 0.0, 0.0068, -3.0, -38.0)" gradientUnits="userSpaceOnUse" id="gradient56" r="819.2" spreadMethod="pad">
      <stop offset="0.0" stop-color="#38426a"/>
      <stop offset="1.0" stop-color="#1d2338"/>
    </radialGradient>
    <radialGradient cx="0" cy="0" gradientTransform="matrix(0.0169, 0.0, 0.0, 0.0169, -13.8, -32.25)" gradientUnits="userSpaceOnUse" id="gradient57" r="819.2" spreadMethod="pad">
      <stop offset="0.0" stop-color="#202020"/>
      <stop offset="1.0" stop-color="#202020"/>
    </radialGradient>
    <radialGradient cx="0" cy="0" gradientTransform="matrix(0.0199, 0.0, 0.0, 0.0199, -13.3, -45.6)" gradientUnits="userSpaceOnUse" id="gradient58" r="819.2" spreadMethod="pad">
      <stop offset="0.0" stop-color="#e5e5e5"/>
      <stop offset="1.0" stop-color="#919191"/>
    </radialGradient>
    <radialGradient cx="0" cy="0" gradientTransform="matrix(0.0286, 0.0, 0.0, 0.0286, -18.6, -48.95)" gradientUnits="userSpaceOnUse" id="gradient59" r="819.2" spreadMethod="pad">
      <stop offset="0.0" stop-color="#c6c6c6"/>
      <stop offset="1.0" stop-color="#898989"/>
    </radialGradient>
    <radialGradient cx="0" cy="0" gradientTransform="matrix(0.012, 0.0, 0.0, 0.012, -11.0, -38.45)" gradientUnits="userSpaceOnUse" id="gradient60" r="819.2" spreadMethod="pad">
      <stop offset="0.0" stop-color="#b3b3b3"/>
      <stop offset="1.0" stop-color="#a1a1a1"/>
    </radialGradient>
    <radialGradient cx="0" cy="0" gradientTransform="matrix(0.008, 0.0, 0.0, 0.008, -3.35, -30.2)" gradientUnits="userSpaceOnUse" id="gradient61" r="819.2" spreadMethod="pad">
      <stop offset="0.0" stop-color="#2f3859"/>
      <stop offset="1.0" stop-color="#1f253b"/>
    </radialGradient>
    <radialGradient cx="0" cy="0" gradientTransform="matrix(0.0084, 0.0, 0.0, 0.0084, -7.65, -31.8)" gradientUnits="userSpaceOnUse" id="gradient62" r="819.2" spreadMethod="pad">
      <stop offset="0.0" stop-color="#bebebe"/>
      <stop offset="1.0" stop-color="#a6a6a6"/>
    </radialGradient>
    <radialGradient cx="0" cy="0" gradientTransform="matrix(0.0023, 0.0, 0.0, 0.0023, -6.95, -28.55)" gradientUnits="userSpaceOnUse" id="gradient63" r="819.2" spreadMethod="pad">
      <stop offset="0.0" stop-color="#15151a"/>
      <stop offset="1.0" stop-color="#15151a"/>
    </radialGradient>
    <radialGradient cx="0" cy="0" gradientTransform="matrix(0.004, 0.0, 0.0, 0.004, -4.65, -27.0)" gradientUnits="userSpaceOnUse" id="gradient64" r="819.2" spreadMethod="pad">
      <stop offset="0.0" stop-color="#8c8caf"/>
      <stop offset="1.0" stop-color="#6b6b86"/>
    </radialGradient>
    <radialGradient cx="0" cy="0" gradientTransform="matrix(0.0026, 0.0, 0.0, 0.0026, -6.7, -29.9)" gradientUnits="userSpaceOnUse" id="gradient65" r="819.2" spreadMethod="pad">
      <stop offset="0.0" stop-color="#4d83a4"/>
      <stop offset="1.0" stop-color="#477a98"/>
    </radialGradient>
    <radialGradient cx="0" cy="0" gradientTransform="matrix(0.0143, 0.0, 0.0, 0.0143, -8.15, -21.55)" gradientUnits="userSpaceOnUse" id="gradient66" r="819.2" spreadMethod="pad">
      <stop offset="0.0" stop-color="#64647d"/>
      <stop offset="1.0" stop-color="#393948"/>
    </radialGradient>
    <radialGradient cx="0" cy="0" gradientTransform="matrix(0.0037, 0.0, 0.0, 0.0037, -4.9, -23.95)" gradientUnits="userSpaceOnUse" id="gradient67" r="819.2" spreadMethod="pad">
      <stop offset="0.0" stop-color="#404c79"/>
      <stop offset="1.0" stop-color="#262d48"/>
    </radialGradient>
    <radialGradient cx="0" cy="0" gradientTransform="matrix(0.0047, 0.0, 0.0, 0.0047, -4.7, -20.65)" gradientUnits="userSpaceOnUse" id="gradient68" r="819.2" spreadMethod="pad">
      <stop offset="0.0" stop-color="#404b78"/>
      <stop offset="1.0" stop-color="#262e49"/>
    </radialGradient>
    <radialGradient cx="0" cy="0" gradientTransform="matrix(0.007, 0.0, 0.0, 0.007, -2.8, -13.3)" gradientUnits="userSpaceOnUse" id="gradient69" r="819.2" spreadMethod="pad">
      <stop offset="0.0" stop-color="#8888aa"/>
      <stop offset="1.0" stop-color="#505064"/>
    </radialGradient>
    <radialGradient cx="0" cy="0" gradientTransform="matrix(0.0031, 0.0, 0.0, 0.0031, -5.5, -9.7)" gradientUnits="userSpaceOnUse" id="gradient70" r="819.2" spreadMethod="pad">
      <stop offset="0.0" stop-color="#292933"/>
      <stop offset="1.0" stop-color="#15151a"/>
    </radialGradient>
    <radialGradient cx="0" cy="0" gradientTransform="matrix(0.011, 0.0, 0.0, 0.011, -4.7, -11.5)" gradientUnits="userSpaceOnUse" id="gradient71" r="819.2" spreadMethod="pad">
      <stop offset="0.0" stop-color="#b8b8e5"/>
      <stop offset="1.0" stop-color="#4d4d60"/>
    </radialGradient>
    <radialGradient cx="0" cy="0" gradientTransform="matrix(0.0034, 0.0, 0.0, 0.0034, -5.7, -10.1)" gradientUnits="userSpaceOnUse" id="gradient72" r="819.2" spreadMethod="pad">
      <stop offset="0.0" stop-color="#6b6b86"/>
      <stop offset="1.0" stop-color="#6a6a84"/>
    </radialGradient>
    <radialGradient cx="0" cy="0" gradientTransform="matrix(0.0043, 0.0, 0.0, 0.0043, -5.1, -2.5)" gradientUnits="userSpaceOnUse" id="gradient73" r="819.2" spreadMethod="pad">
      <stop offset="0.0" stop-color="#3d4974"/>
      <stop offset="1.0" stop-color="#3d4873"/>
    </radialGradient>
    <radialGradient cx="0" cy="0" gradientTransform="matrix(0.004, 0.0, 0.0, 0.004, -5.1, -2.5)" gradientUnits="userSpaceOnUse" id="gradient74" r="819.2" spreadMethod="pad">
      <stop offset="0.0" stop-color="#272e4a"/>
      <stop offset="1.0" stop-color="#1f253c"/>
    </radialGradient>
    <radialGradient cx="0" cy="0" gradientTransform="matrix(0.0123, 0.0, 0.0, 0.0123, -3.8, 5.1)" gradientUnits="userSpaceOnUse" id="gradient75" r="819.2" spreadMethod="pad">
      <stop offset="0.0" stop-color="#80809f"/>
      <stop offset="1.0" stop-color="#57576c"/>
    </radialGradient>
    <radialGradient cx="0" cy="0" gradientTransform="matrix(0.0052, 0.0, 0.0, 0.0052, -2.95, -0.65)" gradientUnits="userSpaceOnUse" id="gradient76" r="819.2" spreadMethod="pad">
      <stop offset="0.0" stop-color="#3f4b78"/>
      <stop offset="1.0" stop-color="#3f4a77"/>
    </radialGradient>
    <radialGradient cx="0" cy="0" gradientTransform="matrix(0.0039, 0.0, 0.0, 0.0039, -4.2, 0.05)" gradientUnits="userSpaceOnUse" id="gradient77" r="819.2" spreadMethod="pad">
      <stop offset="0.0" stop-color="#242b45"/>
      <stop offset="1.0" stop-color="#1f243b"/>
    </radialGradient>
    <radialGradient cx="0" cy="0" gradientTransform="matrix(0.0038, 0.0, 0.0, 0.0038, -3.85, 2.5)" gradientUnits="userSpaceOnUse" id="gradient78" r="819.2" spreadMethod="pad">
      <stop offset="0.0" stop-color="#232942"/>
      <stop offset="1.0" stop-color="#1e2439"/>
    </radialGradient>
    <radialGradient cx="0" cy="0" gradientTransform="matrix(0.0053, 0.0, 0.0, 0.0053, -2.3, 0.65)" gradientUnits="userSpaceOnUse" id="gradient79" r="819.2" spreadMethod="pad">
      <stop offset="0.0" stop-color="#414d7b"/>
      <stop offset="1.0" stop-color="#414d7b"/>
    </radialGradient>
    <radialGradient cx="0" cy="0" gradientTransform="matrix(0.0085, 0.0, 0.0, 0.0085, -3.25, 8.35)" gradientUnits="userSpaceOnUse" id="gradient80" r="819.2" spreadMethod="pad">
      <stop offset="0.0" stop-color="#c5c5f6"/>
      <stop offset="1.0" stop-color="#9696bb"/>
    </radialGradient>
    <radialGradient cx="0" cy="0" gradientTransform="matrix(0.0017, 0.0, 0.0, 0.0017, -2.5, 11.45)" gradientUnits="userSpaceOnUse" id="gradient81" r="819.2" spreadMethod="pad">
      <stop offset="0.0" stop-color="#6b6b86"/>
      <stop offset="1.0" stop-color="#6a6a85"/>
    </radialGradient>
  </defs>
</svg>
