<?xml version="1.0" encoding="UTF-8" standalone="no"?>
<svg xmlns:ffdec="https://www.free-decompiler.com/flash" xmlns:xlink="http://www.w3.org/1999/xlink" ffdec:objectType="shape" height="71.35px" width="42.5px" xmlns="http://www.w3.org/2000/svg">
  <g transform="matrix(1.0, 0.0, 0.0, 1.0, 23.5, 54.55)">
    <path d="M-5.6 -49.25 L-4.9 -50.55 -3.5 -52.05 -2.6 -52.3 Q3.5 -53.15 5.4 -48.7 4.0 -47.2 5.35 -45.45 L4.7 -44.65 3.85 -44.3 Q4.55 -48.7 0.55 -45.1 L-0.55 -45.35 -3.35 -43.3 -3.5 -43.35 Q-6.45 -45.6 -5.6 -49.25" fill="url(#gradient0)" fill-rule="evenodd" stroke="none"/>
    <path d="M-2.6 -52.3 L-3.5 -52.05 -4.9 -50.55 -5.6 -49.25 Q-8.1 -49.25 -8.3 -41.0 L-9.8 -40.05 Q-11.65 -49.5 -9.6 -51.9 -5.5 -57.0 -2.6 -52.3" fill="url(#gradient1)" fill-rule="evenodd" stroke="none"/>
    <path d="M-9.8 -40.05 L-8.3 -41.0 -6.55 -41.7 -3.6 -43.2 -3.6 -43.1 Q-3.75 -42.7 -4.75 -42.35 L-3.75 -41.9 -3.85 -41.1 -3.7 -39.45 Q-3.4 -37.4 -1.3 -32.9 L2.2 -27.8 2.55 -27.5 Q2.25 -26.6 0.8 -25.75 L-1.35 -25.35 Q-3.25 -25.9 -5.2 -27.8 L-5.7 -28.4 -5.65 -27.8 Q-6.0 -26.7 -3.45 -23.75 L-4.1 -23.15 -4.5 -22.2 -4.75 -21.0 -5.2 -16.75 -6.0 -16.8 -7.25 -17.25 Q-9.5 -18.0 -9.6 -22.0 -9.05 -27.35 -5.75 -28.45 L-7.05 -30.4 Q-8.5 -31.4 -9.5 -31.55 -11.4 -31.8 -13.2 -33.7 L-13.7 -34.55 -13.75 -35.3 -12.7 -36.15 -12.3 -36.9 -12.3 -37.0 -12.25 -37.0 -12.15 -37.35 -12.15 -37.4 -12.1 -37.5 -12.1 -37.55 -12.05 -37.65 -12.05 -37.7 -12.0 -37.75 -12.0 -37.85 -11.95 -37.9 -11.8 -38.4 -11.7 -38.5 -11.7 -38.55 -11.5 -38.7 -11.25 -39.05 -11.2 -39.1 -10.4 -39.45 -10.35 -39.45 -10.3 -39.5 -9.8 -40.05" fill="url(#gradient2)" fill-rule="evenodd" stroke="none"/>
    <path d="M-3.5 -43.35 L-3.35 -43.3 -3.6 -43.1 -3.6 -43.2 -3.5 -43.35" fill="url(#gradient3)" fill-rule="evenodd" stroke="none"/>
    <path d="M5.35 -45.45 Q4.0 -47.2 5.4 -48.7 11.35 -48.45 10.3 -40.8 L10.2 -40.25 8.35 -38.4 9.55 -40.6 9.5 -41.85 Q9.0 -45.9 5.55 -45.55 L5.35 -45.45" fill="url(#gradient4)" fill-rule="evenodd" stroke="none"/>
    <path d="M3.85 -44.3 L4.7 -44.65 5.35 -45.45 5.55 -45.55 5.5 -45.2 Q5.05 -40.8 3.8 -40.0 L3.4 -39.45 3.25 -39.05 2.7 -38.65 2.55 -38.6 2.65 -39.45 3.85 -44.3 M0.35 -42.55 L0.55 -39.45 0.6 -39.15 -1.05 -39.85 -1.75 -40.55 -1.8 -40.6 -2.0 -41.55 -2.0 -41.6 -2.15 -41.85 -2.15 -41.9 -0.45 -42.25 0.35 -42.55" fill="url(#gradient5)" fill-rule="evenodd" stroke="none"/>
    <path d="M9.5 -41.85 L9.55 -40.6 8.35 -38.4 10.2 -40.25 10.3 -40.8 Q11.4 -40.2 9.95 -37.05 L9.55 -36.6 8.65 -36.0 9.3 -33.5 9.15 -31.85 8.4 -30.0 8.1 -29.55 7.45 -28.95 7.4 -28.9 6.35 -28.0 6.5 -27.8 7.15 -27.2 8.8 -24.55 8.9 -24.3 9.2 -24.4 9.3 -24.05 9.0 -22.0 7.95 -19.85 7.45 -19.15 6.2 -17.55 4.8 -16.3 2.2 -15.35 0.5 -14.95 -2.55 -14.6 -2.4 -16.1 Q-2.0 -20.85 -0.25 -22.75 2.65 -21.8 5.65 -25.75 L5.95 -26.85 5.95 -27.75 Q5.3 -26.25 1.15 -24.95 L2.0 -25.9 Q4.05 -27.2 4.35 -27.8 8.25 -30.6 4.1 -39.45 L3.8 -40.0 Q5.05 -40.8 5.5 -45.2 7.95 -45.4 9.5 -41.85" fill="url(#gradient6)" fill-rule="evenodd" stroke="none"/>
    <path d="M0.55 -45.1 Q4.55 -48.7 3.85 -44.3 L2.65 -39.45 2.55 -38.6 1.65 -33.35 1.6 -33.05 1.5 -33.1 1.05 -34.65 0.8 -36.75 0.65 -37.55 0.6 -38.65 0.6 -39.15 0.55 -39.45 0.35 -42.55 0.3 -44.45 0.55 -45.1" fill="url(#gradient7)" fill-rule="evenodd" stroke="none"/>
    <path d="M-3.35 -43.3 L-0.55 -45.35 0.55 -45.1 0.3 -44.45 0.35 -42.55 -0.45 -42.25 -2.15 -41.9 -2.25 -41.9 -3.3 -41.9 -3.75 -41.9 -4.75 -42.35 Q-3.75 -42.7 -3.6 -43.1 L-3.35 -43.3" fill="url(#gradient8)" fill-rule="evenodd" stroke="none"/>
    <path d="M0.65 -37.55 L0.8 -36.75 0.1 -37.8 -0.15 -38.4 0.15 -38.45 0.3 -38.35 0.65 -37.55 M1.65 -33.35 L2.55 -38.6 2.7 -38.65 3.2 -36.25 3.35 -33.65 Q1.9 -33.1 1.95 -32.4 L1.85 -32.55 1.65 -33.35" fill="url(#gradient9)" fill-rule="evenodd" stroke="none"/>
    <path d="M3.8 -40.0 L4.1 -39.45 Q8.25 -30.6 4.35 -27.8 4.05 -27.2 2.0 -25.9 L1.15 -24.95 -2.05 -25.0 -1.35 -25.35 0.8 -25.75 Q2.25 -26.6 2.55 -27.5 L2.75 -27.8 3.2 -28.6 3.3 -29.95 3.35 -33.65 3.2 -36.25 2.7 -38.65 3.25 -39.05 3.4 -39.45 3.8 -40.0 M-0.25 -22.75 Q-2.0 -20.85 -2.4 -16.1 L-2.55 -14.6 -5.45 -14.7 -5.2 -16.75 -4.75 -21.0 -4.5 -22.2 -4.1 -23.15 -3.45 -23.75 Q-3.25 -23.15 -1.4 -22.7 L-0.25 -22.75" fill="url(#gradient10)" fill-rule="evenodd" stroke="none"/>
    <path d="M-2.15 -41.9 L-2.15 -41.85 -2.25 -41.8 -2.25 -41.9 -2.15 -41.9" fill="url(#gradient11)" fill-rule="evenodd" stroke="none"/>
    <path d="M0.6 -39.15 L0.6 -38.65 0.15 -38.45 -0.15 -38.4 -0.7 -38.4 -1.9 -38.85 -3.0 -40.85 -3.3 -41.9 -2.25 -41.9 -2.25 -41.8 -2.3 -41.05 -1.8 -40.6 -1.75 -40.55 -1.05 -39.85 0.6 -39.15" fill="url(#gradient12)" fill-rule="evenodd" stroke="none"/>
    <path d="M3.3 -29.95 L3.2 -28.6 2.75 -27.8 2.55 -27.5 2.2 -27.8 -1.3 -32.9 Q-3.4 -37.4 -3.7 -39.45 L-3.85 -41.1 -3.75 -41.9 -3.3 -41.9 -3.0 -40.85 -1.9 -38.85 1.6 -32.7 3.3 -29.95" fill="url(#gradient13)" fill-rule="evenodd" stroke="none"/>
    <path d="M3.3 -29.95 L1.6 -32.7 1.85 -32.55 1.95 -32.4 Q1.9 -33.1 3.35 -33.65 L3.3 -29.95" fill="url(#gradient14)" fill-rule="evenodd" stroke="none"/>
    <path d="M0.6 -38.65 L0.65 -37.55 0.3 -38.35 0.15 -38.45 0.6 -38.65 M0.8 -36.75 L1.05 -34.65 1.5 -33.1 1.6 -33.05 1.65 -33.35 1.85 -32.55 1.6 -32.7 -1.9 -38.85 -0.7 -38.4 -0.15 -38.4 0.1 -37.8 0.8 -36.75" fill="url(#gradient15)" fill-rule="evenodd" stroke="none"/>
    <path d="M-2.15 -41.85 L-2.0 -41.6 -2.0 -41.55 -1.8 -40.6 -2.3 -41.05 -2.25 -41.8 -2.15 -41.85" fill="url(#gradient16)" fill-rule="evenodd" stroke="none"/>
    <path d="M8.4 -30.0 L9.15 -31.85 9.3 -33.5 8.65 -36.0 9.55 -36.6 9.95 -37.05 10.95 -34.2 11.4 -31.55 Q9.7 -29.45 8.4 -30.0" fill="url(#gradient17)" fill-rule="evenodd" stroke="none"/>
    <path d="M11.4 -31.55 L13.35 -29.0 15.15 -23.2 15.45 -22.0 14.9 -20.7 13.7 -20.4 12.85 -21.55 12.0 -23.05 Q11.0 -23.9 9.7 -25.8 L9.0 -26.8 8.7 -27.75 8.7 -27.8 8.65 -27.8 8.65 -27.85 8.1 -29.55 8.4 -30.0 Q9.7 -29.45 11.4 -31.55" fill="url(#gradient18)" fill-rule="evenodd" stroke="none"/>
    <path d="M7.4 -28.9 L7.45 -28.95 7.5 -28.85 7.4 -28.9" fill="url(#gradient19)" fill-rule="evenodd" stroke="none"/>
    <path d="M8.65 -27.85 L8.65 -27.8 8.7 -27.75 9.0 -26.8 9.7 -25.8 10.0 -24.8 9.9 -24.7 9.2 -24.4 8.9 -24.3 8.8 -24.55 7.15 -27.2 6.5 -27.8 6.35 -28.0 7.4 -28.9 7.5 -28.85 8.65 -27.85" fill="url(#gradient20)" fill-rule="evenodd" stroke="none"/>
    <path d="M9.2 -24.4 L9.9 -24.7 9.3 -24.05 9.2 -24.4" fill="url(#gradient21)" fill-rule="evenodd" stroke="none"/>
    <path d="M8.65 -27.8 L8.7 -27.8 8.7 -27.75 8.65 -27.8" fill="url(#gradient22)" fill-rule="evenodd" stroke="none"/>
    <path d="M-10.35 -39.5 L-10.3 -39.5 -10.35 -39.45 -10.35 -39.5" fill="url(#gradient23)" fill-rule="evenodd" stroke="none"/>
    <path d="M-11.2 -39.1 L-11.05 -39.3 -10.35 -39.5 -10.35 -39.45 -10.4 -39.45 -11.2 -39.1" fill="url(#gradient24)" fill-rule="evenodd" stroke="none"/>
    <path d="M-12.3 -36.9 L-12.3 -36.95 -12.3 -37.0 -12.3 -36.9" fill="url(#gradient25)" fill-rule="evenodd" stroke="none"/>
    <path d="M15.15 -23.2 Q18.4 -22.65 18.25 -20.4 L17.55 -20.65 17.4 -20.6 17.35 -20.6 16.25 -20.55 16.0 -20.3 16.0 -19.9 16.6 -19.15 17.1 -18.95 17.8 -19.0 17.05 -18.25 Q16.4 -18.75 15.6 -20.15 L14.9 -20.7 15.45 -22.0 15.15 -23.2 M14.25 -17.95 L13.65 -18.3 13.15 -18.8 13.05 -19.0 12.7 -19.8 12.65 -20.65 12.85 -21.55 13.7 -20.4 Q13.0 -19.4 14.25 -17.95" fill="url(#gradient26)" fill-rule="evenodd" stroke="none"/>
    <path d="M17.05 -18.25 Q16.35 -16.55 14.25 -17.95 13.0 -19.4 13.7 -20.4 L14.9 -20.7 15.6 -20.15 Q16.4 -18.75 17.05 -18.25" fill="url(#gradient27)" fill-rule="evenodd" stroke="none"/>
    <path d="M-9.5 -31.55 L-9.85 -30.8 -11.35 -28.9 Q-14.55 -26.85 -15.0 -30.25 L-14.3 -31.95 -13.2 -33.7 Q-11.4 -31.8 -9.5 -31.55" fill="url(#gradient28)" fill-rule="evenodd" stroke="none"/>
    <path d="M-11.35 -28.9 L-11.3 -27.1 Q-12.95 -23.05 -12.95 -21.25 L-13.0 -20.9 -13.5 -20.45 Q-16.8 -21.5 -15.9 -23.35 -16.9 -27.5 -15.0 -30.25 -14.55 -26.85 -11.35 -28.9" fill="url(#gradient29)" fill-rule="evenodd" stroke="none"/>
    <path d="M-15.2 -17.9 Q-19.3 -18.25 -18.3 -21.75 L-17.75 -22.45 -17.35 -22.85 -16.2 -23.3 -16.15 -23.3 -15.9 -23.35 Q-16.8 -21.5 -13.5 -20.45 L-13.7 -19.2 -13.85 -19.35 -14.25 -19.3 -15.05 -18.45 -15.2 -17.9" fill="url(#gradient30)" fill-rule="evenodd" stroke="none"/>
    <path d="M-16.1 -23.4 L-16.15 -23.3 -16.2 -23.3 -16.1 -23.4" fill="url(#gradient31)" fill-rule="evenodd" stroke="none"/>
    <path d="M-17.2 -24.35 L-16.8 -24.45 -16.75 -24.35 -16.1 -23.4 -16.2 -23.3 -17.35 -22.85 -17.75 -22.45 -18.6 -23.6 -18.5 -23.85 -17.2 -24.35" fill="url(#gradient32)" fill-rule="evenodd" stroke="none"/>
    <path d="M-18.5 -22.7 L-22.6 -29.4 -23.5 -31.8 -21.9 -30.65 -17.2 -24.35 -18.5 -23.85 -18.6 -23.6 -18.45 -22.7 -18.5 -22.7" fill="url(#gradient33)" fill-rule="evenodd" stroke="none"/>
    <path d="M-18.45 -22.65 L-18.5 -22.7 -18.45 -22.7 -18.45 -22.65" fill="url(#gradient34)" fill-rule="evenodd" stroke="none"/>
    <path d="M-18.3 -21.75 L-18.45 -22.65 -18.45 -22.7 -18.6 -23.6 -17.75 -22.45 -18.3 -21.75" fill="url(#gradient35)" fill-rule="evenodd" stroke="none"/>
    <path d="M2.4 -12.3 L2.3 -9.75 Q-0.4 -7.25 -0.05 -7.1 L-0.95 -7.15 -1.05 -6.5 -0.9 -6.05 -1.25 -5.9 -1.45 -6.3 -1.65 -6.35 -1.8 -7.0 -2.0 -7.8 -2.2 -8.05 -2.7 -8.85 -4.1 -10.3 -5.2 -12.05 -6.05 -13.9 -6.05 -13.95 -7.25 -17.25 -6.0 -16.8 -5.2 -16.75 -5.45 -14.7 -2.55 -14.6 0.5 -14.95 2.2 -15.35 2.35 -13.65 2.4 -12.6 2.4 -12.45 2.4 -12.3" fill="url(#gradient36)" fill-rule="evenodd" stroke="none"/>
    <path d="M-2.4 -6.4 L-2.35 -6.5 -2.35 -6.4 -2.4 -6.4 M-6.1 -13.9 L-6.05 -13.95 -6.05 -13.9 -6.1 -13.9" fill="url(#gradient37)" fill-rule="evenodd" stroke="none"/>
    <path d="M-4.1 -10.3 L-4.8 -10.25 -5.6 -9.9 Q-8.15 -8.3 -10.1 -10.35 -10.5 -12.75 -7.6 -13.15 L-6.1 -13.9 -6.05 -13.9 -5.2 -12.05 -4.1 -10.3" fill="url(#gradient38)" fill-rule="evenodd" stroke="none"/>
    <path d="M-5.6 -9.9 L-5.5 -9.6 -5.5 -8.3 -3.8 -6.85 -3.7 -5.6 -3.9 -5.35 -4.3 -4.95 -4.6 -4.4 -4.65 -4.25 Q-5.45 -3.25 -8.6 -5.8 L-10.6 -10.15 Q-11.2 -15.35 -7.6 -13.15 -10.5 -12.75 -10.1 -10.35 -8.15 -8.3 -5.6 -9.9 M-6.25 -7.55 L-6.1 -7.4 -6.2 -9.05 -6.6 -8.2 -7.0 -8.35 -6.25 -7.55" fill="url(#gradient39)" fill-rule="evenodd" stroke="none"/>
    <path d="M-3.9 -5.35 L-4.65 -4.25 -4.6 -4.4 -4.3 -4.95 -3.9 -5.35" fill="url(#gradient40)" fill-rule="evenodd" stroke="none"/>
    <path d="M-5.5 -9.6 L-4.25 -8.0 -3.8 -6.85 -5.5 -8.3 -5.5 -9.6" fill="url(#gradient41)" fill-rule="evenodd" stroke="none"/>
    <path d="M1.15 -24.95 Q5.3 -26.25 5.95 -27.75 L5.95 -26.85 5.65 -25.75 Q2.65 -21.8 -0.25 -22.75 L-1.4 -22.7 Q-3.25 -23.15 -3.45 -23.75 -6.0 -26.7 -5.65 -27.8 L-5.7 -28.4 -5.2 -27.8 Q-3.25 -25.9 -1.35 -25.35 L-2.05 -25.0 1.15 -24.95" fill="url(#gradient42)" fill-rule="evenodd" stroke="none"/>
    <path d="M-12.95 -21.25 Q-11.8 -20.15 -13.35 -18.6 L-13.7 -19.2 -13.5 -20.45 -13.0 -20.9 -12.95 -21.25" fill="url(#gradient43)" fill-rule="evenodd" stroke="none"/>
    <path d="M12.6 -18.85 L8.4 -18.95 7.45 -19.15 7.95 -19.85 12.05 -20.25 12.4 -18.95 12.6 -18.95 12.6 -18.85" fill="url(#gradient44)" fill-rule="evenodd" stroke="none"/>
    <path d="M12.05 -20.25 L12.0 -20.6 12.65 -20.65 12.7 -19.8 13.05 -19.0 12.6 -18.95 12.4 -18.95 12.05 -20.25" fill="url(#gradient45)" fill-rule="evenodd" stroke="none"/>
    <path d="M-13.35 -18.6 L-12.8 -17.75 -13.2 -17.75 -13.6 -17.45 -14.15 -16.35 -15.2 -17.9 -15.05 -18.45 -14.25 -19.3 -13.85 -19.35 -13.7 -19.2 -13.35 -18.6" fill="url(#gradient46)" fill-rule="evenodd" stroke="none"/>
    <path d="M18.45 -19.0 L17.8 -19.0 17.1 -18.95 16.6 -19.15 16.0 -19.9 16.0 -20.3 16.25 -20.55 17.35 -20.6 Q16.75 -19.8 18.45 -19.0" fill="url(#gradient47)" fill-rule="evenodd" stroke="none"/>
    <path d="M18.25 -20.4 L18.7 -20.0 19.0 -19.35 18.75 -19.05 18.45 -19.0 Q16.75 -19.8 17.35 -20.6 L17.4 -20.6 17.55 -20.65 18.25 -20.4" fill="url(#gradient48)" fill-rule="evenodd" stroke="none"/>
    <path d="M13.15 -18.8 L12.6 -18.85 12.6 -18.95 13.05 -19.0 13.15 -18.8" fill="url(#gradient49)" fill-rule="evenodd" stroke="none"/>
    <path d="M-12.8 -17.75 Q-13.0 -15.65 -14.15 -16.35 L-13.6 -17.45 -13.2 -17.75 -12.8 -17.75" fill="url(#gradient50)" fill-rule="evenodd" stroke="none"/>
    <path d="M6.2 -17.55 L5.4 -15.95 3.95 -14.25 2.8 -13.7 2.35 -13.65 2.2 -15.35 4.8 -16.3 6.2 -17.55" fill="url(#gradient51)" fill-rule="evenodd" stroke="none"/>
    <path d="M3.95 -14.25 L3.45 -13.15 2.55 -12.6 2.5 -12.6 2.4 -12.6 2.35 -13.65 2.8 -13.7 3.95 -14.25" fill="url(#gradient52)" fill-rule="evenodd" stroke="none"/>
    <path d="M2.55 -12.6 L2.4 -12.3 2.4 -12.45 2.5 -12.6 2.55 -12.6" fill="url(#gradient53)" fill-rule="evenodd" stroke="none"/>
    <path d="M2.4 -12.45 L2.4 -12.6 2.5 -12.6 2.4 -12.45" fill="url(#gradient54)" fill-rule="evenodd" stroke="none"/>
    <path d="M2.3 -9.75 L2.4 -9.6 2.3 -7.75 1.95 -6.65 Q1.55 -4.25 0.85 -4.4 L0.5 -4.4 Q-0.75 -5.0 -0.9 -6.05 L-1.05 -6.5 -0.95 -7.15 -0.05 -7.1 Q-0.4 -7.25 2.3 -9.75" fill="url(#gradient55)" fill-rule="evenodd" stroke="none"/>
    <path d="M1.95 -6.65 Q4.05 -2.8 3.35 0.35 1.95 3.0 -1.35 1.4 -3.6 -3.05 -2.4 -6.4 L-2.35 -6.4 -2.25 -6.15 -2.1 -6.7 -1.8 -7.0 -1.65 -6.35 -1.45 -6.3 -1.25 -5.9 -0.9 -6.05 Q-0.75 -5.0 0.5 -4.4 L0.85 -4.4 Q1.55 -4.25 1.95 -6.65" fill="url(#gradient56)" fill-rule="evenodd" stroke="none"/>
    <path d="M-2.35 -6.5 L-2.2 -8.05 -2.0 -7.8 -1.8 -7.0 -2.1 -6.7 -2.25 -6.15 -2.35 -6.4 -2.35 -6.5" fill="url(#gradient57)" fill-rule="evenodd" stroke="none"/>
    <path d="M-6.6 -8.2 L-6.2 -9.05 -6.1 -7.4 -6.25 -7.55 -6.6 -8.2" fill="url(#gradient58)" fill-rule="evenodd" stroke="none"/>
    <path d="M-6.6 -8.2 L-6.25 -7.55 -7.0 -8.35 -6.6 -8.2" fill="url(#gradient59)" fill-rule="evenodd" stroke="none"/>
    <path d="M3.35 0.35 Q3.85 4.95 5.6 8.35 6.35 10.2 3.25 10.55 L2.5 10.1 2.2 10.25 2.1 9.75 1.7 9.25 1.5 7.7 1.5 7.1 Q0.65 6.75 -1.35 1.4 1.95 3.0 3.35 0.35" fill="url(#gradient60)" fill-rule="evenodd" stroke="none"/>
    <path d="M5.6 8.35 Q12.2 13.3 10.95 15.4 L9.95 15.7 9.0 16.4 Q8.95 18.25 1.65 11.15 0.55 8.85 1.5 7.7 L1.7 9.25 2.1 9.75 2.2 10.25 2.5 10.1 3.25 10.55 Q6.35 10.2 5.6 8.35" fill="url(#gradient61)" fill-rule="evenodd" stroke="none"/>
    <path d="M10.95 15.4 L9.0 16.4 9.95 15.7 10.95 15.4" fill="url(#gradient62)" fill-rule="evenodd" stroke="none"/>
  </g>
  <defs>
    <radialGradient cx="0" cy="0" gradientTransform="matrix(0.0084, 0.0, 0.0, 0.0084, 0.7, -46.9)" gradientUnits="userSpaceOnUse" id="gradient0" r="819.2" spreadMethod="pad">
      <stop offset="0.0" stop-color="#5f5945"/>
      <stop offset="1.0" stop-color="#3e3a2d"/>
    </radialGradient>
    <radialGradient cx="0" cy="0" gradientTransform="matrix(0.0161, 0.0, 0.0, 0.0161, -4.55, -51.15)" gradientUnits="userSpaceOnUse" id="gradient1" r="819.2" spreadMethod="pad">
      <stop offset="0.0" stop-color="#625c47"/>
      <stop offset="1.0" stop-color="#3e3a2d"/>
    </radialGradient>
    <radialGradient cx="0" cy="0" gradientTransform="matrix(0.0252, 0.0, 0.0, 0.0252, -8.15, -37.05)" gradientUnits="userSpaceOnUse" id="gradient2" r="819.2" spreadMethod="pad">
      <stop offset="0.0" stop-color="#3f6284"/>
      <stop offset="1.0" stop-color="#2b435a"/>
    </radialGradient>
    <radialGradient cx="0" cy="0" gradientTransform="matrix(0.0017, 0.0, 0.0, 0.0017, -3.65, -42.8)" gradientUnits="userSpaceOnUse" id="gradient3" r="819.2" spreadMethod="pad">
      <stop offset="0.0" stop-color="#4d83a0"/>
      <stop offset="1.0" stop-color="#182933"/>
    </radialGradient>
    <radialGradient cx="0" cy="0" gradientTransform="matrix(0.0117, 0.0, 0.0, 0.0117, 3.3, -46.6)" gradientUnits="userSpaceOnUse" id="gradient4" r="819.2" spreadMethod="pad">
      <stop offset="0.0" stop-color="#5e5845"/>
      <stop offset="1.0" stop-color="#383529"/>
    </radialGradient>
    <radialGradient cx="0" cy="0" gradientTransform="matrix(0.0093, 0.0, 0.0, 0.0093, 1.6, -46.25)" gradientUnits="userSpaceOnUse" id="gradient5" r="819.2" spreadMethod="pad">
      <stop offset="0.0" stop-color="#ffc975"/>
      <stop offset="1.0" stop-color="#a07141"/>
    </radialGradient>
    <radialGradient cx="0" cy="0" gradientTransform="matrix(0.0336, 0.0, 0.0, 0.0336, 6.4, -40.7)" gradientUnits="userSpaceOnUse" id="gradient6" r="819.2" spreadMethod="pad">
      <stop offset="0.0" stop-color="#3f6284"/>
      <stop offset="1.0" stop-color="#2b435a"/>
    </radialGradient>
    <radialGradient cx="0" cy="0" gradientTransform="matrix(0.0148, 0.0, 0.0, 0.0148, 1.9, -45.2)" gradientUnits="userSpaceOnUse" id="gradient7" r="819.2" spreadMethod="pad">
      <stop offset="0.0" stop-color="#5b5542"/>
      <stop offset="1.0" stop-color="#393529"/>
    </radialGradient>
    <radialGradient cx="0" cy="0" gradientTransform="matrix(0.0064, 0.0, 0.0, 0.0064, -0.1, -44.75)" gradientUnits="userSpaceOnUse" id="gradient8" r="819.2" spreadMethod="pad">
      <stop offset="0.0" stop-color="#5c5643"/>
      <stop offset="1.0" stop-color="#39362a"/>
    </radialGradient>
    <radialGradient cx="0" cy="0" gradientTransform="matrix(0.0052, 0.0, 0.0, 0.0052, 1.4, -35.7)" gradientUnits="userSpaceOnUse" id="gradient9" r="819.2" spreadMethod="pad">
      <stop offset="0.0" stop-color="#ffd27a"/>
      <stop offset="1.0" stop-color="#ffc573"/>
    </radialGradient>
    <radialGradient cx="0" cy="0" gradientTransform="matrix(0.0255, 0.0, 0.0, 0.0255, 5.35, -32.65)" gradientUnits="userSpaceOnUse" id="gradient10" r="819.2" spreadMethod="pad">
      <stop offset="0.0" stop-color="#75c7f2"/>
      <stop offset="1.0" stop-color="#5c9cbf"/>
    </radialGradient>
    <radialGradient cx="0" cy="0" gradientTransform="matrix(0.0078, 0.0, 0.0, 0.0078, -5.0, -46.25)" gradientUnits="userSpaceOnUse" id="gradient11" r="819.2" spreadMethod="pad">
      <stop offset="0.0" stop-color="#261b10"/>
      <stop offset="1.0" stop-color="#261b10"/>
    </radialGradient>
    <radialGradient cx="0" cy="0" gradientTransform="matrix(0.007, 0.0, 0.0, 0.007, -1.1, -38.25)" gradientUnits="userSpaceOnUse" id="gradient12" r="819.2" spreadMethod="pad">
      <stop offset="0.0" stop-color="#dd9c5b"/>
      <stop offset="1.0" stop-color="#c78c51"/>
    </radialGradient>
    <radialGradient cx="0" cy="0" gradientTransform="matrix(0.0149, 0.0, 0.0, 0.0149, -2.2, -38.7)" gradientUnits="userSpaceOnUse" id="gradient13" r="819.2" spreadMethod="pad">
      <stop offset="0.0" stop-color="#74c5f1"/>
      <stop offset="1.0" stop-color="#5692b2"/>
    </radialGradient>
    <radialGradient cx="0" cy="0" gradientTransform="matrix(0.0046, 0.0, 0.0, 0.0046, 4.55, -33.1)" gradientUnits="userSpaceOnUse" id="gradient14" r="819.2" spreadMethod="pad">
      <stop offset="0.0" stop-color="#ffdb80"/>
      <stop offset="1.0" stop-color="#e7a35e"/>
    </radialGradient>
    <radialGradient cx="0" cy="0" gradientTransform="matrix(0.0103, 0.0, 0.0, 0.0103, -4.35, -37.6)" gradientUnits="userSpaceOnUse" id="gradient15" r="819.2" spreadMethod="pad">
      <stop offset="0.0" stop-color="#ffd57c"/>
      <stop offset="1.0" stop-color="#e3b066"/>
    </radialGradient>
    <radialGradient cx="0" cy="0" gradientTransform="matrix(0.0031, 0.0, 0.0, 0.0031, -2.1, -43.15)" gradientUnits="userSpaceOnUse" id="gradient16" r="819.2" spreadMethod="pad">
      <stop offset="0.0" stop-color="#e09e5c"/>
      <stop offset="1.0" stop-color="#d89859"/>
    </radialGradient>
    <radialGradient cx="0" cy="0" gradientTransform="matrix(0.0071, 0.0, 0.0, 0.0071, 8.3, -34.25)" gradientUnits="userSpaceOnUse" id="gradient17" r="819.2" spreadMethod="pad">
      <stop offset="0.0" stop-color="#ffb569"/>
      <stop offset="1.0" stop-color="#d89858"/>
    </radialGradient>
    <radialGradient cx="0" cy="0" gradientTransform="matrix(0.0153, 0.0, 0.0, 0.0153, 9.4, -31.1)" gradientUnits="userSpaceOnUse" id="gradient18" r="819.2" spreadMethod="pad">
      <stop offset="0.0" stop-color="#968888"/>
      <stop offset="1.0" stop-color="#6e6464"/>
    </radialGradient>
    <radialGradient cx="0" cy="0" gradientTransform="matrix(0.0013, 0.0, 0.0, 0.0013, 7.3, -29.2)" gradientUnits="userSpaceOnUse" id="gradient19" r="819.2" spreadMethod="pad">
      <stop offset="0.0" stop-color="#1f1e18"/>
      <stop offset="1.0" stop-color="#1f1e18"/>
    </radialGradient>
    <radialGradient cx="0" cy="0" gradientTransform="matrix(0.0066, 0.0, 0.0, 0.0066, 8.9, -24.4)" gradientUnits="userSpaceOnUse" id="gradient20" r="819.2" spreadMethod="pad">
      <stop offset="0.0" stop-color="#d1c7a1"/>
      <stop offset="1.0" stop-color="#a79e81"/>
    </radialGradient>
    <radialGradient cx="0" cy="0" gradientTransform="matrix(0.0029, 0.0, 0.0, 0.0029, 9.25, -26.5)" gradientUnits="userSpaceOnUse" id="gradient21" r="819.2" spreadMethod="pad">
      <stop offset="0.0" stop-color="#1f1e18"/>
      <stop offset="1.0" stop-color="#1f1e18"/>
    </radialGradient>
    <radialGradient cx="0" cy="0" gradientTransform="matrix(0.0054, 0.0, 0.0, 0.0054, 8.95, -26.95)" gradientUnits="userSpaceOnUse" id="gradient22" r="819.2" spreadMethod="pad">
      <stop offset="0.0" stop-color="#121010"/>
      <stop offset="1.0" stop-color="#121010"/>
    </radialGradient>
    <radialGradient cx="0" cy="0" gradientTransform="matrix(0.0323, 0.0, 0.0, 0.0323, -9.35, -23.7)" gradientUnits="userSpaceOnUse" id="gradient23" r="819.2" spreadMethod="pad">
      <stop offset="0.0" stop-color="#253a4e"/>
      <stop offset="1.0" stop-color="#080c10"/>
    </radialGradient>
    <radialGradient cx="0" cy="0" gradientTransform="matrix(0.0019, 0.0, 0.0, 0.0019, -11.35, -39.1)" gradientUnits="userSpaceOnUse" id="gradient24" r="819.2" spreadMethod="pad">
      <stop offset="0.0" stop-color="#213345"/>
      <stop offset="1.0" stop-color="#182633"/>
    </radialGradient>
    <radialGradient cx="0" cy="0" gradientTransform="matrix(0.0017, 0.0, 0.0, 0.0017, -12.4, -36.5)" gradientUnits="userSpaceOnUse" id="gradient25" r="819.2" spreadMethod="pad">
      <stop offset="0.0" stop-color="#294057"/>
      <stop offset="1.0" stop-color="#25394d"/>
    </radialGradient>
    <radialGradient cx="0" cy="0" gradientTransform="matrix(0.004, 0.0, 0.0, 0.004, 15.0, -20.85)" gradientUnits="userSpaceOnUse" id="gradient26" r="819.2" spreadMethod="pad">
      <stop offset="0.0" stop-color="#ffea88"/>
      <stop offset="1.0" stop-color="#ab7846"/>
    </radialGradient>
    <radialGradient cx="0" cy="0" gradientTransform="matrix(0.004, 0.0, 0.0, 0.004, 14.45, -20.2)" gradientUnits="userSpaceOnUse" id="gradient27" r="819.2" spreadMethod="pad">
      <stop offset="0.0" stop-color="#ffea88"/>
      <stop offset="1.0" stop-color="#ad7a47"/>
    </radialGradient>
    <radialGradient cx="0" cy="0" gradientTransform="matrix(0.0072, 0.0, 0.0, 0.0072, -12.8, -33.2)" gradientUnits="userSpaceOnUse" id="gradient28" r="819.2" spreadMethod="pad">
      <stop offset="0.0" stop-color="#d89858"/>
      <stop offset="1.0" stop-color="#73512f"/>
    </radialGradient>
    <radialGradient cx="0" cy="0" gradientTransform="matrix(0.0115, 0.0, 0.0, 0.0115, -13.1, -29.0)" gradientUnits="userSpaceOnUse" id="gradient29" r="819.2" spreadMethod="pad">
      <stop offset="0.0" stop-color="#948787"/>
      <stop offset="1.0" stop-color="#524a4a"/>
    </radialGradient>
    <radialGradient cx="0" cy="0" gradientTransform="matrix(0.0037, 0.0, 0.0, 0.0037, -15.8, -21.0)" gradientUnits="userSpaceOnUse" id="gradient30" r="819.2" spreadMethod="pad">
      <stop offset="0.0" stop-color="#ffeb89"/>
      <stop offset="1.0" stop-color="#9b6d40"/>
    </radialGradient>
    <radialGradient cx="0" cy="0" gradientTransform="matrix(0.0038, 0.0, 0.0, 0.0038, -16.2, -23.5)" gradientUnits="userSpaceOnUse" id="gradient31" r="819.2" spreadMethod="pad">
      <stop offset="0.0" stop-color="#877f26"/>
      <stop offset="1.0" stop-color="#867e25"/>
    </radialGradient>
    <radialGradient cx="0" cy="0" gradientTransform="matrix(0.0033, 0.0, 0.0, 0.0033, -17.35, -21.9)" gradientUnits="userSpaceOnUse" id="gradient32" r="819.2" spreadMethod="pad">
      <stop offset="0.0" stop-color="#eee043"/>
      <stop offset="1.0" stop-color="#eddf42"/>
    </radialGradient>
    <radialGradient cx="0" cy="0" gradientTransform="matrix(0.0131, 0.0, 0.0, 0.0131, -16.7, -23.6)" gradientUnits="userSpaceOnUse" id="gradient33" r="819.2" spreadMethod="pad">
      <stop offset="0.0" stop-color="#bdbdbd"/>
      <stop offset="1.0" stop-color="#b7b7b7"/>
    </radialGradient>
    <radialGradient cx="0" cy="0" gradientTransform="matrix(0.0026, 0.0, 0.0, 0.0026, -18.65, -23.85)" gradientUnits="userSpaceOnUse" id="gradient34" r="819.2" spreadMethod="pad">
      <stop offset="0.0" stop-color="#222009"/>
      <stop offset="1.0" stop-color="#222009"/>
    </radialGradient>
    <radialGradient cx="0" cy="0" gradientTransform="matrix(0.004, 0.0, 0.0, 0.004, -18.65, -23.85)" gradientUnits="userSpaceOnUse" id="gradient35" r="819.2" spreadMethod="pad">
      <stop offset="0.0" stop-color="#beb335"/>
      <stop offset="1.0" stop-color="#aaa02f"/>
    </radialGradient>
    <radialGradient cx="0" cy="0" gradientTransform="matrix(0.0135, 0.0, 0.0, 0.0135, -2.6, -16.1)" gradientUnits="userSpaceOnUse" id="gradient36" r="819.2" spreadMethod="pad">
      <stop offset="0.0" stop-color="#f3ab64"/>
      <stop offset="1.0" stop-color="#92673c"/>
    </radialGradient>
    <radialGradient cx="0" cy="0" gradientTransform="matrix(0.0123, 0.0, 0.0, 0.0123, -1.9, -9.3)" gradientUnits="userSpaceOnUse" id="gradient37" r="819.2" spreadMethod="pad">
      <stop offset="0.0" stop-color="#261b10"/>
      <stop offset="1.0" stop-color="#261b10"/>
    </radialGradient>
    <radialGradient cx="0" cy="0" gradientTransform="matrix(0.0077, 0.0, 0.0, 0.0077, -9.05, -11.9)" gradientUnits="userSpaceOnUse" id="gradient38" r="819.2" spreadMethod="pad">
      <stop offset="0.0" stop-color="#615959"/>
      <stop offset="1.0" stop-color="#373232"/>
    </radialGradient>
    <radialGradient cx="0" cy="0" gradientTransform="matrix(0.0106, 0.0, 0.0, 0.0106, -7.55, -12.2)" gradientUnits="userSpaceOnUse" id="gradient39" r="819.2" spreadMethod="pad">
      <stop offset="0.0" stop-color="#fffb92"/>
      <stop offset="1.0" stop-color="#dcad65"/>
    </radialGradient>
    <radialGradient cx="0" cy="0" gradientTransform="matrix(0.0025, 0.0, 0.0, 0.0025, -3.8, -5.65)" gradientUnits="userSpaceOnUse" id="gradient40" r="819.2" spreadMethod="pad">
      <stop offset="0.0" stop-color="#9f7041"/>
      <stop offset="1.0" stop-color="#9d6f40"/>
    </radialGradient>
    <radialGradient cx="0" cy="0" gradientTransform="matrix(0.0025, 0.0, 0.0, 0.0025, -4.4, -8.1)" gradientUnits="userSpaceOnUse" id="gradient41" r="819.2" spreadMethod="pad">
      <stop offset="0.0" stop-color="#ffef8b"/>
      <stop offset="1.0" stop-color="#ffd37b"/>
    </radialGradient>
    <radialGradient cx="0" cy="0" gradientTransform="matrix(0.0094, 0.0, 0.0, 0.0094, -1.7, -26.2)" gradientUnits="userSpaceOnUse" id="gradient42" r="819.2" spreadMethod="pad">
      <stop offset="0.0" stop-color="#fff5c7"/>
      <stop offset="1.0" stop-color="#958d72"/>
    </radialGradient>
    <radialGradient cx="0" cy="0" gradientTransform="matrix(0.0022, 0.0, 0.0, 0.0022, -13.75, -20.4)" gradientUnits="userSpaceOnUse" id="gradient43" r="819.2" spreadMethod="pad">
      <stop offset="0.0" stop-color="#ffe887"/>
      <stop offset="1.0" stop-color="#a87645"/>
    </radialGradient>
    <radialGradient cx="0" cy="0" gradientTransform="matrix(0.0075, 0.0, 0.0, 0.0075, 12.7, -20.45)" gradientUnits="userSpaceOnUse" id="gradient44" r="819.2" spreadMethod="pad">
      <stop offset="0.0" stop-color="#696969"/>
      <stop offset="1.0" stop-color="#656565"/>
    </radialGradient>
    <radialGradient cx="0" cy="0" gradientTransform="matrix(0.0031, 0.0, 0.0, 0.0031, 13.9, -19.1)" gradientUnits="userSpaceOnUse" id="gradient45" r="819.2" spreadMethod="pad">
      <stop offset="0.0" stop-color="#9c932c"/>
      <stop offset="1.0" stop-color="#978e2a"/>
    </radialGradient>
    <radialGradient cx="0" cy="0" gradientTransform="matrix(0.0032, 0.0, 0.0, 0.0032, -13.4, -17.75)" gradientUnits="userSpaceOnUse" id="gradient46" r="819.2" spreadMethod="pad">
      <stop offset="0.0" stop-color="#e33232"/>
      <stop offset="1.0" stop-color="#c02a2a"/>
    </radialGradient>
    <radialGradient cx="0" cy="0" gradientTransform="matrix(0.0022, 0.0, 0.0, 0.0022, 17.15, -20.35)" gradientUnits="userSpaceOnUse" id="gradient47" r="819.2" spreadMethod="pad">
      <stop offset="0.0" stop-color="#ad2727"/>
      <stop offset="1.0" stop-color="#541313"/>
    </radialGradient>
    <radialGradient cx="0" cy="0" gradientTransform="matrix(0.0025, 0.0, 0.0, 0.0025, 18.65, -19.15)" gradientUnits="userSpaceOnUse" id="gradient48" r="819.2" spreadMethod="pad">
      <stop offset="0.0" stop-color="#ea3434"/>
      <stop offset="1.0" stop-color="#ea3434"/>
    </radialGradient>
    <radialGradient cx="0" cy="0" gradientTransform="matrix(0.0036, 0.0, 0.0, 0.0036, 12.4, -19.0)" gradientUnits="userSpaceOnUse" id="gradient49" r="819.2" spreadMethod="pad">
      <stop offset="0.0" stop-color="#6c661e"/>
      <stop offset="1.0" stop-color="#3b3811"/>
    </radialGradient>
    <radialGradient cx="0" cy="0" gradientTransform="matrix(0.0021, 0.0, 0.0, 0.0021, -12.8, -17.4)" gradientUnits="userSpaceOnUse" id="gradient50" r="819.2" spreadMethod="pad">
      <stop offset="0.0" stop-color="#a22424"/>
      <stop offset="1.0" stop-color="#a12424"/>
    </radialGradient>
    <radialGradient cx="0" cy="0" gradientTransform="matrix(0.0075, 0.0, 0.0, 0.0075, 1.65, -16.45)" gradientUnits="userSpaceOnUse" id="gradient51" r="819.2" spreadMethod="pad">
      <stop offset="0.0" stop-color="#9b6d40"/>
      <stop offset="1.0" stop-color="#7d5833"/>
    </radialGradient>
    <radialGradient cx="0" cy="0" gradientTransform="matrix(0.0034, 0.0, 0.0, 0.0034, 2.25, -13.9)" gradientUnits="userSpaceOnUse" id="gradient52" r="819.2" spreadMethod="pad">
      <stop offset="0.0" stop-color="#c0884f"/>
      <stop offset="1.0" stop-color="#8f643a"/>
    </radialGradient>
    <radialGradient cx="0" cy="0" gradientTransform="matrix(0.002, 0.0, 0.0, 0.002, 2.6, -13.35)" gradientUnits="userSpaceOnUse" id="gradient53" r="819.2" spreadMethod="pad">
      <stop offset="0.0" stop-color="#9f7041"/>
      <stop offset="1.0" stop-color="#8f653a"/>
    </radialGradient>
    <radialGradient cx="0" cy="0" gradientTransform="matrix(0.0011, 0.0, 0.0, 0.0011, 1.95, -12.0)" gradientUnits="userSpaceOnUse" id="gradient54" r="819.2" spreadMethod="pad">
      <stop offset="0.0" stop-color="#67492a"/>
      <stop offset="1.0" stop-color="#553b22"/>
    </radialGradient>
    <radialGradient cx="0" cy="0" gradientTransform="matrix(0.0082, 0.0, 0.0, 0.0082, -0.15, -10.1)" gradientUnits="userSpaceOnUse" id="gradient55" r="819.2" spreadMethod="pad">
      <stop offset="0.0" stop-color="#ffc372"/>
      <stop offset="1.0" stop-color="#af7b47"/>
    </radialGradient>
    <radialGradient cx="0" cy="0" gradientTransform="matrix(0.011, 0.0, 0.0, 0.011, -0.85, -6.2)" gradientUnits="userSpaceOnUse" id="gradient56" r="819.2" spreadMethod="pad">
      <stop offset="0.0" stop-color="#ffe585"/>
      <stop offset="1.0" stop-color="#a27343"/>
    </radialGradient>
    <radialGradient cx="0" cy="0" gradientTransform="matrix(0.0039, 0.0, 0.0, 0.0039, -1.6, -5.45)" gradientUnits="userSpaceOnUse" id="gradient57" r="819.2" spreadMethod="pad">
      <stop offset="0.0" stop-color="#eca761"/>
      <stop offset="1.0" stop-color="#eba661"/>
    </radialGradient>
    <radialGradient cx="0" cy="0" gradientTransform="matrix(0.0025, 0.0, 0.0, 0.0025, -6.25, -9.4)" gradientUnits="userSpaceOnUse" id="gradient58" r="819.2" spreadMethod="pad">
      <stop offset="0.0" stop-color="#ffd97e"/>
      <stop offset="1.0" stop-color="#ffcf78"/>
    </radialGradient>
    <radialGradient cx="0" cy="0" gradientTransform="matrix(0.002, 0.0, 0.0, 0.002, -7.2, -8.6)" gradientUnits="userSpaceOnUse" id="gradient59" r="819.2" spreadMethod="pad">
      <stop offset="0.0" stop-color="#a57444"/>
      <stop offset="1.0" stop-color="#a27242"/>
    </radialGradient>
    <radialGradient cx="0" cy="0" gradientTransform="matrix(0.0139, 0.0, 0.0, 0.0139, 4.45, 10.8)" gradientUnits="userSpaceOnUse" id="gradient60" r="819.2" spreadMethod="pad">
      <stop offset="0.0" stop-color="#807474"/>
      <stop offset="1.0" stop-color="#4c4545"/>
    </radialGradient>
    <radialGradient cx="0" cy="0" gradientTransform="matrix(0.011, 0.0, 0.0, 0.011, 4.05, 9.55)" gradientUnits="userSpaceOnUse" id="gradient61" r="819.2" spreadMethod="pad">
      <stop offset="0.0" stop-color="#fffa91"/>
      <stop offset="1.0" stop-color="#ffca75"/>
    </radialGradient>
    <radialGradient cx="0" cy="0" gradientTransform="matrix(0.0031, 0.0, 0.0, 0.0031, 11.0, 15.3)" gradientUnits="userSpaceOnUse" id="gradient62" r="819.2" spreadMethod="pad">
      <stop offset="0.0" stop-color="#ae7b48"/>
      <stop offset="1.0" stop-color="#a97845"/>
    </radialGradient>
  </defs>
</svg>
