<?xml version="1.0" encoding="UTF-8" standalone="no"?>
<svg xmlns:ffdec="https://www.free-decompiler.com/flash" xmlns:xlink="http://www.w3.org/1999/xlink" ffdec:objectType="shape" height="81.25px" width="59.35px" xmlns="http://www.w3.org/2000/svg">
  <g transform="matrix(1.0, 0.0, 0.0, 1.0, 15.35, 73.6)">
    <path d="M0.95 -68.05 L0.2 -68.3 -1.25 -69.15 Q2.1 -71.15 -0.3 -72.9 L-1.65 -73.2 Q3.0 -74.6 5.85 -70.85 7.15 -67.0 0.95 -68.05" fill="url(#gradient0)" fill-rule="evenodd" stroke="none"/>
    <path d="M-1.25 -69.15 L0.2 -68.3 0.95 -68.05 Q2.15 -62.9 0.6 -59.75 L0.55 -59.7 0.1 -59.8 -0.8 -59.7 -1.2 -60.4 -2.4 -61.75 -3.85 -62.65 -3.7 -65.6 -3.15 -67.25 -3.1 -67.25 -3.05 -67.55 -2.85 -69.7 -2.1 -69.25 -1.25 -69.15 M-3.6 -60.7 L-3.85 -61.45 -3.5 -60.9 -3.55 -60.7 -3.6 -60.7" fill="url(#gradient1)" fill-rule="evenodd" stroke="none"/>
    <path d="M0.55 -59.7 L0.6 -59.75 0.65 -59.6 0.55 -59.7 M-3.55 -57.5 L-3.6 -60.65 -3.55 -60.65 -3.5 -60.6 -3.4 -60.4 -3.2 -59.85 -3.35 -57.65 -3.5 -57.45 -3.55 -57.5" fill="url(#gradient2)" fill-rule="evenodd" stroke="none"/>
    <path d="M-0.8 -59.7 L0.1 -59.8 0.55 -59.7 0.65 -59.6 Q1.85 -58.9 1.75 -58.55 L1.8 -57.5 0.25 -58.5 -0.35 -58.4 -0.35 -58.75 -0.8 -59.7" fill="url(#gradient3)" fill-rule="evenodd" stroke="none"/>
    <path d="M1.8 -57.5 L2.55 -56.85 3.55 -55.7 3.9 -55.15 4.5 -54.1 5.5 -51.35 5.55 -51.0 5.35 -51.25 Q4.3 -55.3 -2.2 -57.3 L-2.4 -57.45 -1.4 -58.05 -0.35 -58.4 0.25 -58.5 1.8 -57.5" fill="url(#gradient4)" fill-rule="evenodd" stroke="none"/>
    <path d="M2.55 -56.85 L3.2 -56.3 3.55 -55.7 2.55 -56.85 M3.9 -55.15 L4.4 -54.45 4.4 -54.4 4.5 -54.1 3.9 -55.15 M-2.2 -57.3 Q4.3 -55.3 5.35 -51.25 L5.15 -49.45 4.85 -48.55 3.75 -47.2 3.15 -47.95 2.2 -48.4 0.45 -47.35 0.3 -47.45 -0.25 -47.2 -0.65 -47.35 -0.7 -47.6 -0.7 -47.95 -0.9 -48.25 Q-1.7 -50.4 -2.2 -57.3 M-1.05 -47.9 L-1.65 -47.95 -2.25 -48.1 -2.45 -47.65 -2.7 -47.95 Q-4.65 -50.3 -4.7 -49.4 L-5.0 -49.95 -3.9 -52.9 -3.95 -54.45 -3.65 -54.6 -2.85 -51.7 Q-1.85 -49.0 -1.05 -47.95 L-1.05 -47.9 M-3.35 -57.65 L-3.35 -57.4 -3.5 -57.45 -3.35 -57.65 M-3.3 -57.4 L-3.15 -57.4 -3.15 -57.35 -3.3 -57.4" fill="url(#gradient5)" fill-rule="evenodd" stroke="none"/>
    <path d="M4.9 -54.45 Q7.45 -54.8 9.7 -52.6 L10.05 -52.35 Q9.85 -51.2 10.7 -49.6 L11.6 -47.95 11.85 -47.35 12.85 -46.15 12.85 -45.65 15.1 -42.85 14.25 -42.9 Q13.65 -40.9 13.95 -40.75 14.25 -39.8 16.5 -36.7 L18.4 -34.35 Q18.65 -33.8 17.9 -32.6 L16.8 -32.55 15.65 -33.5 11.35 -39.45 6.95 -44.9 5.1 -47.95 4.95 -48.15 5.15 -49.45 5.35 -51.25 5.55 -51.0 5.5 -51.35 4.5 -54.1 4.4 -54.4 4.9 -54.45" fill="url(#gradient6)" fill-rule="evenodd" stroke="none"/>
    <path d="M4.4 -54.45 L4.9 -54.45 4.4 -54.4 4.4 -54.45" fill="url(#gradient7)" fill-rule="evenodd" stroke="none"/>
    <path d="M9.7 -52.6 Q17.75 -55.65 28.3 -36.5 L27.8 -36.6 24.45 -38.4 Q19.55 -41.85 16.7 -44.35 L14.1 -46.05 12.95 -46.25 12.85 -46.15 11.85 -47.35 11.6 -47.95 10.7 -49.6 Q9.85 -51.2 10.05 -52.35 L9.7 -52.6" fill="url(#gradient8)" fill-rule="evenodd" stroke="none"/>
    <path d="M28.3 -36.5 L33.5 -31.65 40.95 -23.7 43.55 -20.15 44.0 -18.85 43.15 -18.85 39.65 -21.4 23.6 -34.75 20.05 -37.9 15.1 -42.85 12.85 -45.65 12.85 -46.15 12.95 -46.25 14.1 -46.05 16.7 -44.35 Q19.55 -41.85 24.45 -38.4 L27.8 -36.6 28.3 -36.5" fill="url(#gradient9)" fill-rule="evenodd" stroke="none"/>
    <path d="M20.05 -37.9 Q31.35 -16.5 18.4 -34.35 L16.5 -36.7 Q14.25 -39.8 13.95 -40.75 13.65 -40.9 14.25 -42.9 L15.1 -42.85 20.05 -37.9" fill="url(#gradient10)" fill-rule="evenodd" stroke="none"/>
    <path d="M4.95 -48.15 L4.85 -47.95 4.6 -47.55 4.35 -47.05 3.85 -46.45 3.75 -47.2 4.85 -48.55 5.15 -49.45 4.95 -48.15" fill="url(#gradient11)" fill-rule="evenodd" stroke="none"/>
    <path d="M7.8 -39.25 L7.8 -38.65 7.15 -36.2 6.7 -35.45 6.45 -35.15 6.4 -35.45 5.15 -40.05 4.15 -41.85 4.15 -44.4 3.85 -46.45 4.35 -47.05 4.6 -47.25 4.6 -47.55 4.85 -47.95 4.95 -48.15 5.1 -47.95 6.95 -44.9 6.7 -44.35 6.95 -41.8 7.8 -39.25" fill="url(#gradient12)" fill-rule="evenodd" stroke="none"/>
    <path d="M11.35 -39.45 Q12.9 -33.3 11.8 -32.35 11.05 -32.2 10.75 -33.0 L9.05 -36.95 9.0 -37.0 9.0 -37.05 8.95 -37.1 8.95 -37.15 8.85 -37.3 8.85 -37.35 8.8 -37.4 8.8 -37.45 8.75 -37.5 8.75 -37.55 8.7 -37.6 8.7 -37.65 8.65 -37.7 8.65 -37.8 8.6 -37.85 8.6 -37.9 8.55 -37.95 7.8 -39.25 6.95 -41.8 6.7 -44.35 6.95 -44.9 11.35 -39.45" fill="url(#gradient13)" fill-rule="evenodd" stroke="none"/>
    <path d="M2.5 -21.35 L2.0 -21.15 1.8 -21.25 1.5 -21.9 0.8 -27.0 0.75 -27.25 0.75 -27.3 0.75 -27.4 0.75 -27.65 0.75 -27.95 0.65 -28.05 0.65 -28.3 0.65 -28.6 0.15 -40.75 0.25 -40.85 0.1 -41.6 -0.2 -44.15 -0.3 -46.55 0.45 -47.35 2.2 -48.4 3.15 -47.95 3.75 -47.2 3.85 -46.45 4.15 -44.4 4.15 -41.85 Q2.85 -43.05 1.9 -41.5 L2.85 -31.9 Q3.05 -28.35 2.85 -27.45 L2.8 -27.1 2.95 -25.9 3.45 -24.5 2.9 -22.05 2.5 -21.35" fill="url(#gradient14)" fill-rule="evenodd" stroke="none"/>
    <path d="M4.6 -47.55 L4.6 -47.25 4.35 -47.05 4.6 -47.55" fill="url(#gradient15)" fill-rule="evenodd" stroke="none"/>
    <path d="M0.45 -47.35 L-0.3 -46.55 -0.2 -44.15 -1.15 -44.45 -1.9 -44.45 -2.5 -44.85 -3.05 -45.35 -4.2 -46.95 -4.45 -47.95 -4.5 -48.5 -4.5 -48.55 -4.7 -49.3 -4.7 -49.4 Q-4.65 -50.3 -2.7 -47.95 L-2.45 -47.65 -2.25 -48.1 -1.65 -47.95 -1.05 -47.9 -0.65 -47.35 -0.25 -47.2 0.3 -47.45 0.45 -47.35 M-0.7 -47.6 L-0.9 -48.25 -0.7 -47.95 -0.7 -47.6" fill="url(#gradient16)" fill-rule="evenodd" stroke="none"/>
    <path d="M7.55 -29.25 L7.65 -28.55 9.15 -17.1 Q9.3 -14.3 8.35 -14.9 L8.7 -13.75 5.4 -20.05 5.35 -20.15 4.1 -22.85 4.1 -22.95 3.45 -24.5 2.95 -25.9 2.8 -27.1 2.9 -27.0 2.85 -27.45 Q3.05 -28.35 2.85 -31.9 L1.9 -41.5 Q2.85 -43.05 4.15 -41.85 L5.15 -40.05 6.4 -35.45 6.45 -35.15 7.55 -29.25" fill="url(#gradient17)" fill-rule="evenodd" stroke="none"/>
    <path d="M0.1 -41.6 L0.25 -40.85 0.15 -40.75 0.1 -41.6 M0.65 -28.05 L0.75 -27.95 0.65 -27.95 0.65 -28.05" fill="url(#gradient18)" fill-rule="evenodd" stroke="none"/>
    <path d="M-0.1 -27.75 L-0.3 -27.7 -0.4 -30.7 Q-0.35 -32.7 -0.6 -32.2 L-1.15 -28.15 -1.5 -28.4 -2.15 -30.65 -2.25 -33.3 -2.3 -34.25 -2.35 -35.3 -1.6 -37.35 -1.65 -38.8 -1.4 -39.15 -1.35 -40.9 -1.15 -41.45 -1.45 -41.65 -1.65 -42.35 -2.0 -44.3 -1.9 -44.45 -1.15 -44.45 -0.2 -44.15 0.1 -41.6 0.15 -40.75 0.65 -28.6 0.6 -28.4 0.15 -27.9 -0.1 -27.75" fill="url(#gradient19)" fill-rule="evenodd" stroke="none"/>
    <path d="M7.15 -36.2 L7.85 -32.15 Q8.1 -30.55 7.55 -29.25 L6.45 -35.15 6.7 -35.45 7.15 -36.2" fill="url(#gradient20)" fill-rule="evenodd" stroke="none"/>
    <path d="M0.65 -28.3 L0.65 -28.05 0.65 -27.95 0.75 -27.65 0.75 -27.4 0.15 -27.9 0.6 -28.4 0.65 -28.3" fill="url(#gradient21)" fill-rule="evenodd" stroke="none"/>
    <path d="M0.65 -28.6 L0.65 -28.3 0.6 -28.4 0.65 -28.6 M0.75 -27.95 L0.75 -27.65 0.65 -27.95 0.75 -27.95" fill="url(#gradient22)" fill-rule="evenodd" stroke="none"/>
    <path d="M-0.05 -27.65 L-0.1 -27.75 0.15 -27.9 0.75 -27.4 0.75 -27.3 -0.05 -27.65" fill="url(#gradient23)" fill-rule="evenodd" stroke="none"/>
    <path d="M4.15 -22.05 L3.7 -21.6 2.5 -21.35 2.9 -22.05 3.45 -24.5 4.1 -22.95 4.1 -22.85 4.15 -22.05 M1.5 -21.9 L1.0 -22.5 -0.25 -26.1 -0.3 -27.25 -0.05 -27.65 0.75 -27.3 0.75 -27.25 0.8 -27.0 1.5 -21.9" fill="url(#gradient24)" fill-rule="evenodd" stroke="none"/>
    <path d="M5.4 -20.05 L5.35 -20.05 5.35 -20.15 5.4 -20.05 M2.85 -27.45 L2.9 -27.0 2.8 -27.1 2.85 -27.45" fill="url(#gradient25)" fill-rule="evenodd" stroke="none"/>
    <path d="M5.35 -20.05 L5.6 -11.75 5.45 -11.75 5.05 -13.6 4.15 -22.05 4.1 -22.85 5.35 -20.15 5.35 -20.05" fill="url(#gradient26)" fill-rule="evenodd" stroke="none"/>
    <path d="M0.9 -17.35 L1.0 -16.65 Q0.95 -15.95 0.45 -15.5 L-0.75 -14.9 0.25 -15.5 Q1.05 -16.3 0.75 -16.85 L0.9 -17.35 M-3.15 -15.3 L-3.5 -15.5 -3.95 -16.1 -3.95 -16.35 -3.45 -15.75 -3.15 -15.3" fill="url(#gradient27)" fill-rule="evenodd" stroke="none"/>
    <path d="M1.35 -10.15 L1.45 -9.95 Q0.6 -7.25 -1.6 -7.6 L-1.75 -8.8 Q0.8 -8.4 1.35 -10.15 M-0.75 -14.9 L-2.15 -14.85 -2.25 -14.9 -2.3 -14.9 -3.1 -15.25 -3.15 -15.3 -3.45 -15.75 Q-1.2 -14.15 0.75 -16.85 1.05 -16.3 0.25 -15.5 L-0.75 -14.9 M-3.35 -14.25 Q-0.45 -12.8 0.9 -14.65 1.3 -11.8 -2.7 -13.05 L-3.15 -13.6 -3.35 -14.25 M0.85 -11.85 L0.75 -10.75 0.4 -10.5 -0.45 -10.1 -1.95 -10.3 -2.25 -11.4 Q-0.25 -10.85 0.85 -11.85" fill="url(#gradient28)" fill-rule="evenodd" stroke="none"/>
    <path d="M1.0 -16.65 L1.15 -15.45 0.95 -14.75 0.9 -14.65 Q-0.45 -12.8 -3.35 -14.25 L-3.4 -14.3 -3.85 -15.05 -3.95 -16.1 -3.5 -15.5 -3.15 -15.3 -3.1 -15.25 -2.3 -14.9 -2.25 -14.9 -2.15 -14.85 -0.75 -14.9 0.45 -15.5 Q0.95 -15.95 1.0 -16.65" fill="url(#gradient29)" fill-rule="evenodd" stroke="none"/>
    <path d="M-0.7 -23.2 Q1.0 -21.8 0.9 -17.35 L0.75 -16.85 Q-1.2 -14.15 -3.45 -15.75 L-3.95 -16.35 -4.45 -17.25 -4.45 -17.65 -4.05 -18.9 -4.2 -19.95 -3.95 -21.1 -4.0 -22.4 -3.3 -21.6 Q-1.6 -22.5 -1.6 -22.95 L-1.4 -23.35 -1.25 -22.95 -1.15 -22.3 -0.95 -22.3 -0.7 -23.2" fill="url(#gradient30)" fill-rule="evenodd" stroke="none"/>
    <path d="M0.95 -14.75 L1.15 -14.3 1.1 -13.95 Q0.55 -11.8 -2.5 -12.75 L-2.7 -13.05 Q1.3 -11.8 0.9 -14.65 L0.95 -14.75 M-3.4 -14.3 L-3.35 -14.25 -3.15 -13.6 -3.45 -13.85 -3.4 -14.3" fill="url(#gradient31)" fill-rule="evenodd" stroke="none"/>
    <path d="M1.1 -13.95 L1.25 -12.6 1.05 -12.15 0.85 -11.85 Q-0.25 -10.85 -2.25 -11.4 L-2.5 -12.75 Q0.55 -11.8 1.1 -13.95" fill="url(#gradient32)" fill-rule="evenodd" stroke="none"/>
    <path d="M7.65 -28.55 Q11.75 -15.4 16.1 6.5 16.45 8.55 15.35 6.8 L13.8 3.1 8.7 -13.75 8.35 -14.9 Q9.3 -14.3 9.15 -17.1 L7.65 -28.55" fill="url(#gradient33)" fill-rule="evenodd" stroke="none"/>
    <path d="M1.05 -12.15 L1.3 -11.45 1.05 -10.85 0.6 -10.5 -0.7 -9.95 -1.9 -10.15 -1.95 -10.3 -0.45 -10.1 0.4 -10.5 0.75 -10.75 0.85 -11.85 1.05 -12.15" fill="url(#gradient34)" fill-rule="evenodd" stroke="none"/>
    <path d="M1.3 -11.45 L1.35 -10.15 Q0.8 -8.4 -1.75 -8.8 L-1.9 -10.15 -0.7 -9.95 0.6 -10.5 1.05 -10.85 1.3 -11.45" fill="url(#gradient35)" fill-rule="evenodd" stroke="none"/>
    <path d="M-1.65 -73.2 L-0.3 -72.9 Q2.1 -71.15 -1.25 -69.15 L-2.1 -69.25 -2.85 -69.7 Q-4.55 -72.45 -1.85 -73.1 L-1.8 -73.2 -1.65 -73.2" fill="url(#gradient36)" fill-rule="evenodd" stroke="none"/>
    <path d="M-3.05 -67.55 L-3.1 -67.25 -3.15 -67.25 -3.05 -67.55 M-3.6 -60.65 L-3.6 -60.7 -3.55 -60.7 -3.55 -60.65 -3.6 -60.65" fill="url(#gradient37)" fill-rule="evenodd" stroke="none"/>
    <path d="M-3.85 -62.65 L-2.4 -61.75 -1.2 -60.4 -0.8 -59.7 -0.35 -58.75 -0.35 -58.4 -1.4 -58.05 -2.4 -57.45 -3.0 -57.45 -3.05 -57.4 -3.15 -57.4 -3.3 -57.4 -3.35 -57.4 -3.35 -57.65 -3.2 -59.85 -3.4 -60.4 -3.5 -60.6 -3.55 -60.65 -3.55 -60.7 -3.5 -60.9 -3.85 -61.45 Q-4.0 -62.15 -5.15 -63.0 L-3.85 -62.65" fill="url(#gradient38)" fill-rule="evenodd" stroke="none"/>
    <path d="M-6.6 -55.1 L-7.7 -55.5 -10.95 -55.35 -12.25 -54.55 -11.4 -55.85 -10.95 -56.2 Q-7.05 -58.85 -3.55 -57.5 L-3.5 -57.45 -3.35 -57.4 -3.3 -57.4 -3.15 -57.35 -2.95 -57.15 -2.95 -56.9 -3.7 -56.0 -3.65 -54.6 -3.95 -54.45 -5.5 -54.75 -6.6 -55.1" fill="url(#gradient39)" fill-rule="evenodd" stroke="none"/>
    <path d="M-2.4 -57.45 L-2.2 -57.3 Q-1.7 -50.4 -0.9 -48.25 L-0.7 -47.6 -0.65 -47.35 -1.05 -47.9 -1.05 -47.95 Q-1.85 -49.0 -2.85 -51.7 L-3.65 -54.6 -3.7 -56.0 -2.95 -56.9 -2.95 -57.15 -3.15 -57.35 -3.15 -57.4 -3.05 -57.4 -3.0 -57.45 -2.4 -57.45" fill="url(#gradient40)" fill-rule="evenodd" stroke="none"/>
    <path d="M-7.3 -53.2 L-7.15 -54.1 -6.6 -55.1 -5.5 -54.75 -6.35 -53.0 -6.3 -53.6 -5.75 -54.8 -6.3 -54.65 -6.65 -54.3 -7.3 -53.2 M-4.7 -49.4 L-4.7 -49.3 -5.35 -49.0 -5.55 -48.95 -5.0 -49.95 -4.7 -49.4 M-6.9 -50.95 L-6.95 -51.15 -6.85 -51.05 -6.9 -50.95" fill="url(#gradient41)" fill-rule="evenodd" stroke="none"/>
    <path d="M-7.05 -51.3 L-7.3 -52.15 -7.3 -53.2 -6.65 -54.3 -6.3 -54.65 -5.75 -54.8 -6.3 -53.6 -6.35 -53.0 -6.7 -52.25 -6.85 -51.05 -6.95 -51.15 -7.05 -51.3" fill="url(#gradient42)" fill-rule="evenodd" stroke="none"/>
    <path d="M-6.35 -53.0 L-5.5 -54.75 -3.95 -54.45 -3.9 -52.9 -5.0 -49.95 -5.55 -48.95 -5.75 -48.1 -5.85 -47.95 -5.85 -47.75 -5.9 -47.45 -5.95 -46.2 -5.85 -44.95 -6.4 -46.05 -6.85 -47.4 -6.85 -47.6 -6.85 -47.7 -6.9 -47.95 -7.1 -49.7 -6.9 -50.95 -6.85 -51.05 -6.7 -52.25 -6.35 -53.0" fill="url(#gradient43)" fill-rule="evenodd" stroke="none"/>
    <path d="M-12.85 -46.6 L-12.85 -47.4 -12.8 -47.45 Q-11.6 -51.3 -7.05 -51.3 L-6.95 -51.15 -6.9 -50.95 -7.1 -49.7 -7.8 -49.6 -11.5 -48.8 -12.35 -47.95 -12.75 -46.75 -12.85 -46.6" fill="url(#gradient44)" fill-rule="evenodd" stroke="none"/>
    <path d="M-7.8 -49.6 L-7.1 -49.7 -6.9 -47.95 -6.85 -47.7 -8.15 -47.35 -9.5 -46.05 -9.6 -46.55 -9.5 -46.8 -8.85 -48.9 -7.75 -49.3 -7.8 -49.6 M-5.35 -49.0 L-5.5 -48.15 -5.75 -48.1 -5.55 -48.95 -5.35 -49.0 M-5.55 -47.8 L-5.6 -47.55 -5.9 -47.45 -5.85 -47.75 -5.55 -47.8 M-6.85 -47.6 L-6.85 -47.4 -7.75 -47.4 -6.85 -47.6" fill="url(#gradient45)" fill-rule="evenodd" stroke="none"/>
    <path d="M-4.7 -49.3 L-4.5 -48.55 -4.5 -48.5 -4.45 -47.95 -4.2 -46.95 -5.05 -46.55 -5.55 -47.15 -5.6 -47.55 -5.55 -47.8 -5.55 -47.95 -5.5 -48.15 -5.35 -49.0 -4.7 -49.3" fill="url(#gradient46)" fill-rule="evenodd" stroke="none"/>
    <path d="M-12.85 -35.45 L-12.95 -37.3 -12.8 -37.85 Q-16.2 -39.5 -15.1 -42.0 L-14.95 -42.25 -15.0 -42.3 -14.55 -43.35 -13.35 -44.3 -9.2 -45.25 -6.4 -46.05 -5.85 -44.95 -5.95 -46.2 -5.05 -46.55 -4.2 -46.95 -3.05 -45.35 -3.8 -45.15 -3.85 -45.1 Q-8.05 -44.05 -10.2 -41.9 L-12.5 -39.75 Q-13.45 -38.25 -12.9 -38.45 L-12.55 -37.9 -12.15 -37.8 -9.1 -36.3 -8.5 -35.9 -8.35 -35.75 -7.7 -35.65 -7.65 -35.5 -7.7 -35.5 -7.6 -35.45 -7.6 -35.4 -7.3 -34.95 -7.3 -34.75 -7.6 -32.15 -10.15 -32.5 -11.5 -32.9 -11.75 -33.0 -12.1 -33.55 -12.75 -35.1 -12.85 -35.45 M-2.35 -35.3 L-2.3 -34.25 -3.0 -33.2 -3.0 -34.4 -2.6 -34.75 -2.35 -35.3 M-3.0 -32.15 L-3.1 -32.2 -3.05 -32.55 -3.0 -32.15" fill="url(#gradient47)" fill-rule="evenodd" stroke="none"/>
    <path d="M-3.05 -45.35 L-2.5 -44.85 -2.0 -44.3 -1.65 -42.35 -1.45 -41.65 -1.15 -41.45 -1.35 -40.9 -1.4 -39.15 -1.65 -38.8 Q-1.05 -40.65 -4.8 -42.15 L-4.4 -42.95 -4.15 -44.85 -3.85 -45.1 -3.8 -45.15 -3.05 -45.35" fill="url(#gradient48)" fill-rule="evenodd" stroke="none"/>
    <path d="M-5.05 -46.55 L-5.95 -46.2 -5.9 -47.45 -5.6 -47.55 -5.55 -47.15 -5.05 -46.55 M-6.4 -46.05 L-9.2 -45.25 -9.2 -45.35 -10.05 -45.4 -9.5 -46.05 -8.15 -47.35 -6.85 -47.7 -6.85 -47.6 -7.75 -47.4 -6.85 -47.4 -6.4 -46.05 M-3.85 -45.1 L-4.15 -44.85 -4.4 -42.95 -4.8 -42.15 Q-8.5 -42.9 -7.9 -35.95 L-8.5 -35.9 -9.1 -36.3 -8.3 -36.5 -8.4 -37.05 -9.2 -38.05 Q-9.35 -40.85 -10.2 -41.9 -8.05 -44.05 -3.85 -45.1 M-5.5 -48.15 L-5.55 -47.95 -5.55 -47.8 -5.85 -47.75 -5.85 -47.95 -5.75 -48.1 -5.5 -48.15" fill="url(#gradient49)" fill-rule="evenodd" stroke="none"/>
    <path d="M-2.5 -44.85 L-1.9 -44.45 -2.0 -44.3 -2.5 -44.85" fill="url(#gradient50)" fill-rule="evenodd" stroke="none"/>
    <path d="M-9.5 -46.05 L-10.05 -45.4 -12.2 -45.1 -12.55 -45.5 -12.75 -46.75 -12.35 -47.95 -11.5 -48.8 -7.8 -49.6 -7.75 -49.3 -8.85 -48.9 -9.5 -46.8 -9.6 -46.55 -9.5 -46.05" fill="url(#gradient51)" fill-rule="evenodd" stroke="none"/>
    <path d="M-13.35 -44.3 L-12.7 -44.85 -12.2 -45.1 -10.05 -45.4 -9.2 -45.35 -9.2 -45.25 -13.35 -44.3 M-10.2 -41.9 Q-9.35 -40.85 -9.2 -38.05 L-8.4 -37.05 -8.3 -36.5 -9.1 -36.3 -12.15 -37.8 -12.4 -38.25 -12.9 -38.45 Q-13.45 -38.25 -12.5 -39.75 L-10.2 -41.9 M-8.5 -35.9 L-7.9 -35.95 -7.7 -35.65 -8.35 -35.75 -8.5 -35.9" fill="url(#gradient52)" fill-rule="evenodd" stroke="none"/>
    <path d="M-4.8 -42.15 Q-1.05 -40.65 -1.65 -38.8 L-1.6 -37.35 -2.35 -35.3 -2.6 -34.75 -3.0 -34.4 -3.0 -33.2 -3.05 -32.7 -3.05 -32.55 -3.1 -32.2 -3.8 -28.2 -3.95 -27.35 Q-4.65 -26.8 -5.4 -26.9 -6.5 -27.15 -7.25 -28.2 L-7.65 -29.8 -7.6 -32.15 -7.3 -34.75 -7.3 -34.95 -7.6 -35.4 -7.6 -35.45 -7.65 -35.5 -7.7 -35.65 -7.9 -35.95 Q-8.5 -42.9 -4.8 -42.15" fill="url(#gradient53)" fill-rule="evenodd" stroke="none"/>
    <path d="M-12.8 -35.1 L-12.85 -35.45 -12.75 -35.1 -12.8 -35.1 M-15.1 -42.0 L-15.0 -42.3 -14.95 -42.25 -15.1 -42.0 M-12.7 -44.85 L-12.85 -46.6 -12.75 -46.75 -12.55 -45.5 -12.2 -45.1 -12.7 -44.85 M-12.15 -37.8 L-12.55 -37.9 -12.9 -38.45 -12.4 -38.25 -12.15 -37.8" fill="url(#gradient54)" fill-rule="evenodd" stroke="none"/>
    <path d="M-12.4 -33.35 L-12.7 -34.25 -12.75 -34.3 -12.75 -34.55 -12.8 -34.65 -12.8 -35.1 -12.75 -35.1 -12.1 -33.55 -12.4 -33.35" fill="url(#gradient55)" fill-rule="evenodd" stroke="none"/>
    <path d="M-8.6 -28.8 Q-9.3 -29.95 -10.1 -30.3 L-11.35 -32.0 -11.55 -32.35 -11.5 -32.9 -10.15 -32.5 -7.6 -32.15 -7.65 -29.8 -8.35 -28.6 -8.6 -28.8 M-3.1 -32.2 L-3.0 -32.15 -2.7 -30.45 Q-3.35 -27.9 -3.7 -28.2 L-3.8 -28.2 -3.1 -32.2" fill="url(#gradient56)" fill-rule="evenodd" stroke="none"/>
    <path d="M-9.9 -15.9 L-9.95 -15.95 -9.95 -16.0 -10.0 -16.05 Q-16.1 -25.55 -12.4 -33.35 L-12.1 -33.55 -11.75 -33.0 -11.5 -32.9 -11.55 -32.35 -11.35 -32.0 -10.1 -30.3 Q-9.3 -29.95 -8.6 -28.8 -15.3 -28.4 -9.0 -25.85 L-9.1 -25.5 Q-15.95 -26.6 -11.05 -22.95 L-10.5 -22.75 -8.95 -22.8 -9.1 -21.7 -9.75 -20.95 -9.9 -19.85 Q-9.55 -14.3 -4.45 -17.65 L-4.45 -17.25 -4.6 -16.5 -4.25 -14.6 -4.2 -13.9 -4.7 -12.15 Q-4.55 -14.2 -6.65 -12.75 L-6.85 -13.05 Q-8.15 -14.9 -9.0 -14.85 L-9.9 -15.9 M-4.25 -24.95 L-4.0 -22.95 -4.0 -22.4 -3.95 -21.1 -4.2 -19.95 -4.65 -20.9 -5.65 -21.7 -4.25 -24.95" fill="url(#gradient57)" fill-rule="evenodd" stroke="none"/>
    <path d="M-2.25 -33.3 L-2.15 -30.65 -1.5 -28.4 -1.5 -26.8 -1.55 -26.65 -1.95 -24.9 -1.45 -24.0 -1.4 -23.35 -1.6 -22.95 Q-1.6 -22.5 -3.3 -21.6 L-4.0 -22.4 -4.0 -22.95 -4.25 -24.95 -3.85 -26.7 -3.7 -28.2 Q-3.35 -27.9 -2.7 -30.45 L-3.0 -32.15 -3.05 -32.55 -3.05 -32.7 -2.25 -33.3" fill="url(#gradient58)" fill-rule="evenodd" stroke="none"/>
    <path d="M-2.3 -34.25 L-2.25 -33.3 -3.05 -32.7 -3.0 -33.2 -2.3 -34.25" fill="url(#gradient59)" fill-rule="evenodd" stroke="none"/>
    <path d="M-7.6 -35.45 L-7.7 -35.5 -7.65 -35.5 -7.6 -35.45" fill="url(#gradient60)" fill-rule="evenodd" stroke="none"/>
    <path d="M-7.3 -34.95 L-7.3 -34.75 -7.3 -34.95" fill="url(#gradient61)" fill-rule="evenodd" stroke="none"/>
    <path d="M-3.8 -28.2 L-3.7 -28.2 -3.85 -26.7 -4.25 -24.95 -5.65 -21.7 Q-6.55 -19.45 -9.15 -21.05 L-9.1 -21.7 -8.95 -22.8 -9.1 -25.5 -9.0 -25.85 -8.75 -27.6 -8.35 -28.6 -7.65 -29.8 -7.25 -28.2 Q-6.5 -27.15 -5.4 -26.9 -4.65 -26.8 -3.95 -27.35 L-3.8 -28.2" fill="url(#gradient62)" fill-rule="evenodd" stroke="none"/>
    <path d="M-8.6 -28.8 L-8.35 -28.6 -8.75 -27.6 -9.0 -25.85 Q-15.3 -28.4 -8.6 -28.8" fill="url(#gradient63)" fill-rule="evenodd" stroke="none"/>
    <path d="M-0.35 -27.6 L-0.35 -27.45 -0.4 -27.3 -0.7 -23.2 -0.95 -22.3 -1.15 -22.3 -1.25 -22.95 -1.4 -23.35 -1.45 -24.0 -1.5 -26.65 -1.5 -26.8 -1.5 -28.4 -1.15 -28.15 -0.6 -32.2 Q-0.35 -32.7 -0.4 -30.7 L-0.55 -28.4 -0.35 -27.6" fill="url(#gradient64)" fill-rule="evenodd" stroke="none"/>
    <path d="M-0.3 -27.7 L-0.35 -27.6 -0.55 -28.4 -0.4 -30.7 -0.3 -27.7" fill="url(#gradient65)" fill-rule="evenodd" stroke="none"/>
    <path d="M-1.55 -26.65 L-1.5 -26.8 -1.5 -26.65 -1.55 -26.65" fill="url(#gradient66)" fill-rule="evenodd" stroke="none"/>
    <path d="M-5.65 -21.7 L-4.65 -20.9 -4.2 -19.95 -4.05 -18.9 -4.45 -17.65 Q-9.55 -14.3 -9.9 -19.85 L-9.6 -20.5 -9.15 -21.05 Q-6.55 -19.45 -5.65 -21.7" fill="url(#gradient67)" fill-rule="evenodd" stroke="none"/>
    <path d="M-9.15 -21.05 L-9.6 -20.5 -9.9 -19.85 -9.75 -20.95 -9.1 -21.7 -9.15 -21.05" fill="url(#gradient68)" fill-rule="evenodd" stroke="none"/>
    <path d="M-1.75 -6.7 L-1.85 -6.2 -1.85 -6.0 Q-3.6 -2.75 -6.8 -5.4 L-6.85 -5.5 -7.9 -8.55 -8.0 -11.2 -7.9 -11.9 Q-7.05 -12.0 -6.85 -13.05 L-6.65 -12.75 Q-4.55 -14.2 -4.7 -12.15 L-4.2 -13.9 -4.25 -14.6 -3.45 -13.85 -3.15 -13.6 -2.7 -13.05 -2.5 -12.75 -2.25 -11.4 -1.95 -10.3 -1.9 -10.15 -1.75 -8.8 -1.6 -7.6 -1.75 -6.7" fill="url(#gradient69)" fill-rule="evenodd" stroke="none"/>
    <path d="M-7.9 -11.9 L-8.5 -13.45 Q-10.0 -14.85 -9.9 -15.9 L-9.0 -14.85 Q-8.15 -14.9 -6.85 -13.05 -7.05 -12.0 -7.9 -11.9" fill="url(#gradient70)" fill-rule="evenodd" stroke="none"/>
    <path d="M-8.95 -22.8 L-10.5 -22.75 -11.05 -22.95 Q-15.95 -26.6 -9.1 -25.5 L-8.95 -22.8" fill="url(#gradient71)" fill-rule="evenodd" stroke="none"/>
    <path d="M1.45 -9.95 Q3.3 -5.1 -1.75 -6.7 L-1.6 -7.6 Q0.6 -7.25 1.45 -9.95" fill="url(#gradient72)" fill-rule="evenodd" stroke="none"/>
    <path d="M-1.85 -6.2 L-1.6 -6.0 -1.6 -5.3 Q-2.75 -3.45 -4.5 -3.7 L-3.6 -3.8 Q-2.45 -4.05 -1.9 -4.95 L-1.85 -6.0 -1.85 -6.2 M-6.8 -4.85 L-6.85 -5.3 -6.2 -4.45 -6.8 -4.85" fill="url(#gradient73)" fill-rule="evenodd" stroke="none"/>
    <path d="M-1.6 -3.25 L-1.55 -3.05 -1.6 -2.0 Q-1.65 -1.6 -3.0 -0.95 L-4.2 -0.8 -5.6 -1.45 -6.05 -2.15 -6.1 -2.5 -6.1 -2.6 -6.05 -2.6 Q-2.95 -1.4 -1.6 -3.25 M-6.85 -5.3 L-6.85 -5.4 -6.8 -5.4 Q-3.6 -2.75 -1.85 -6.0 L-1.9 -4.95 Q-2.45 -4.05 -3.6 -3.8 L-4.5 -3.7 Q-5.4 -3.7 -5.95 -4.1 L-6.2 -4.45 -6.85 -5.3 M-1.0 2.2 L-1.4 3.4 -2.25 4.0 -2.6 4.0 Q-6.1 3.8 -5.6 2.15 -2.35 4.5 -1.0 2.2 M-5.65 0.1 L-5.6 0.1 Q-2.95 1.6 -1.35 -0.35 -0.85 0.9 -3.5 1.55 -5.85 1.35 -5.65 0.1" fill="url(#gradient74)" fill-rule="evenodd" stroke="none"/>
    <path d="M-5.7 0.0 L-5.7 -0.05 -5.65 -0.05 -5.65 0.0 -5.7 0.0 M-6.1 -2.15 L-6.1 -2.3 -6.2 -2.4 -6.1 -2.5 -6.05 -2.15 -6.1 -2.15 M-6.85 -5.4 L-6.85 -5.5 -6.8 -5.4 -6.85 -5.4" fill="url(#gradient75)" fill-rule="evenodd" stroke="none"/>
    <path d="M-1.6 -5.3 L-1.45 -3.7 -1.6 -3.25 Q-2.95 -1.4 -6.05 -2.6 L-6.1 -2.65 -6.7 -3.45 -6.8 -4.85 -6.2 -4.45 -5.95 -4.1 Q-5.4 -3.7 -4.5 -3.7 -2.75 -3.45 -1.6 -5.3" fill="url(#gradient76)" fill-rule="evenodd" stroke="none"/>
    <path d="M-6.1 -2.6 L-6.1 -2.65 -6.05 -2.6 -6.1 -2.6" fill="url(#gradient77)" fill-rule="evenodd" stroke="none"/>
    <path d="M-1.55 -3.05 L-1.35 -2.85 -1.25 -2.3 Q-2.3 -0.3 -4.2 -0.8 L-3.0 -0.95 Q-1.65 -1.6 -1.6 -2.0 L-1.55 -3.05 M-6.05 -1.75 L-6.1 -2.15 -6.05 -2.15 -5.6 -1.45 -6.05 -1.75" fill="url(#gradient78)" fill-rule="evenodd" stroke="none"/>
    <path d="M-5.7 -0.05 L-5.7 -0.1 -5.65 -0.05 -5.7 -0.05 M-5.65 0.1 L-5.65 0.0 -5.6 0.1 -5.65 0.1" fill="url(#gradient79)" fill-rule="evenodd" stroke="none"/>
    <path d="M-1.25 -2.3 L-1.15 -1.35 -1.25 -0.45 -1.35 -0.35 Q-2.95 1.6 -5.6 0.1 L-5.65 0.0 -5.65 -0.05 -5.7 -0.1 -5.95 -0.5 -6.05 -1.75 -5.6 -1.45 -4.2 -0.8 Q-2.3 -0.3 -1.25 -2.3" fill="url(#gradient80)" fill-rule="evenodd" stroke="none"/>
    <path d="M-1.25 -0.45 L-1.05 -0.2 -1.05 0.4 Q-2.4 3.25 -5.65 0.95 L-5.7 0.0 -5.65 0.0 -5.65 0.1 Q-5.85 1.35 -3.5 1.55 -0.85 0.9 -1.35 -0.35 L-1.25 -0.45" fill="url(#gradient81)" fill-rule="evenodd" stroke="none"/>
    <path d="M-0.8 1.55 Q1.45 4.6 -1.5 5.95 L-4.7 6.85 -9.55 7.65 -11.05 7.45 -11.3 6.95 -11.5 6.4 -12.1 5.75 -12.15 5.65 -12.2 5.6 Q-11.95 3.9 -10.3 3.25 L-5.6 1.8 -5.6 2.15 Q-6.1 3.8 -2.6 4.0 L-2.25 4.0 -1.4 3.4 -1.0 2.2 -0.8 1.65 -0.8 1.55" fill="url(#gradient82)" fill-rule="evenodd" stroke="none"/>
    <path d="M-1.05 0.4 L-0.8 1.55 -0.8 1.65 -1.0 2.2 Q-2.35 4.5 -5.6 2.15 L-5.6 1.8 -5.65 0.95 Q-2.4 3.25 -1.05 0.4" fill="url(#gradient83)" fill-rule="evenodd" stroke="none"/>
    <path d="M-11.3 6.95 L-12.1 5.75 -11.5 6.4 -11.3 6.95" fill="url(#gradient84)" fill-rule="evenodd" stroke="none"/>
  </g>
  <defs>
    <radialGradient cx="0" cy="0" gradientTransform="matrix(0.0088, 0.0, 0.0, 0.0088, 3.65, -68.85)" gradientUnits="userSpaceOnUse" id="gradient0" r="819.2" spreadMethod="pad">
      <stop offset="0.0" stop-color="#3d4974"/>
      <stop offset="1.0" stop-color="#242b45"/>
    </radialGradient>
    <radialGradient cx="0" cy="0" gradientTransform="matrix(0.009, 0.0, 0.0, 0.009, -1.8, -66.25)" gradientUnits="userSpaceOnUse" id="gradient1" r="819.2" spreadMethod="pad">
      <stop offset="0.0" stop-color="#374168"/>
      <stop offset="1.0" stop-color="#212840"/>
    </radialGradient>
    <radialGradient cx="0" cy="0" gradientTransform="matrix(0.0052, 0.0, 0.0, 0.0052, 0.1, -59.45)" gradientUnits="userSpaceOnUse" id="gradient2" r="819.2" spreadMethod="pad">
      <stop offset="0.0" stop-color="#2a3250"/>
      <stop offset="1.0" stop-color="#242b45"/>
    </radialGradient>
    <radialGradient cx="0" cy="0" gradientTransform="matrix(0.0029, 0.0, 0.0, 0.0029, -0.45, -57.65)" gradientUnits="userSpaceOnUse" id="gradient3" r="819.2" spreadMethod="pad">
      <stop offset="0.0" stop-color="#5795ba"/>
      <stop offset="1.0" stop-color="#477a98"/>
    </radialGradient>
    <radialGradient cx="0" cy="0" gradientTransform="matrix(0.0075, 0.0, 0.0, 0.0075, 3.05, -55.3)" gradientUnits="userSpaceOnUse" id="gradient4" r="819.2" spreadMethod="pad">
      <stop offset="0.0" stop-color="#75c8fa"/>
      <stop offset="1.0" stop-color="#528eb0"/>
    </radialGradient>
    <radialGradient cx="0" cy="0" gradientTransform="matrix(0.0097, 0.0, 0.0, 0.0097, -1.05, -53.65)" gradientUnits="userSpaceOnUse" id="gradient5" r="819.2" spreadMethod="pad">
      <stop offset="0.0" stop-color="#75c9fa"/>
      <stop offset="1.0" stop-color="#42728e"/>
    </radialGradient>
    <radialGradient cx="0" cy="0" gradientTransform="matrix(0.0301, 0.0, 0.0, 0.0301, 4.4, -53.45)" gradientUnits="userSpaceOnUse" id="gradient6" r="819.2" spreadMethod="pad">
      <stop offset="0.0" stop-color="#ffffff"/>
      <stop offset="1.0" stop-color="#a8a8a8"/>
    </radialGradient>
    <radialGradient cx="0" cy="0" gradientTransform="matrix(0.0022, 0.0, 0.0, 0.0022, 3.75, -54.45)" gradientUnits="userSpaceOnUse" id="gradient7" r="819.2" spreadMethod="pad">
      <stop offset="0.0" stop-color="#5a5a5a"/>
      <stop offset="1.0" stop-color="#3a3a3a"/>
    </radialGradient>
    <radialGradient cx="0" cy="0" gradientTransform="matrix(0.0309, 0.0, 0.0, 0.0309, 10.6, -52.35)" gradientUnits="userSpaceOnUse" id="gradient8" r="819.2" spreadMethod="pad">
      <stop offset="0.0" stop-color="#ffffff"/>
      <stop offset="1.0" stop-color="#d9d9d9"/>
    </radialGradient>
    <radialGradient cx="0" cy="0" gradientTransform="matrix(0.0315, 0.0, 0.0, 0.0315, 24.25, -35.7)" gradientUnits="userSpaceOnUse" id="gradient9" r="819.2" spreadMethod="pad">
      <stop offset="0.0" stop-color="#ffffff"/>
      <stop offset="1.0" stop-color="#d2d2d2"/>
    </radialGradient>
    <radialGradient cx="0" cy="0" gradientTransform="matrix(0.0259, 0.0, 0.0, 0.0259, 13.3, -44.05)" gradientUnits="userSpaceOnUse" id="gradient10" r="819.2" spreadMethod="pad">
      <stop offset="0.0" stop-color="#ffffff"/>
      <stop offset="1.0" stop-color="#d1d1d1"/>
    </radialGradient>
    <radialGradient cx="0" cy="0" gradientTransform="matrix(0.006, 0.0, 0.0, 0.006, 5.0, -50.25)" gradientUnits="userSpaceOnUse" id="gradient11" r="819.2" spreadMethod="pad">
      <stop offset="0.0" stop-color="#4f87a8"/>
      <stop offset="1.0" stop-color="#3a647c"/>
    </radialGradient>
    <radialGradient cx="0" cy="0" gradientTransform="matrix(0.0168, 0.0, 0.0, 0.0168, 4.55, -48.95)" gradientUnits="userSpaceOnUse" id="gradient12" r="819.2" spreadMethod="pad">
      <stop offset="0.0" stop-color="#f3f3f3"/>
      <stop offset="1.0" stop-color="#a9a9a9"/>
    </radialGradient>
    <radialGradient cx="0" cy="0" gradientTransform="matrix(0.0161, 0.0, 0.0, 0.0161, 7.1, -44.8)" gradientUnits="userSpaceOnUse" id="gradient13" r="819.2" spreadMethod="pad">
      <stop offset="0.0" stop-color="#ffffff"/>
      <stop offset="1.0" stop-color="#b5b5b5"/>
    </radialGradient>
    <radialGradient cx="0" cy="0" gradientTransform="matrix(0.0326, 0.0, 0.0, 0.0326, 2.25, -47.95)" gradientUnits="userSpaceOnUse" id="gradient14" r="819.2" spreadMethod="pad">
      <stop offset="0.0" stop-color="#fcfcfc"/>
      <stop offset="1.0" stop-color="#8b8b8b"/>
    </radialGradient>
    <radialGradient cx="0" cy="0" gradientTransform="matrix(0.0029, 0.0, 0.0, 0.0029, 5.0, -49.05)" gradientUnits="userSpaceOnUse" id="gradient15" r="819.2" spreadMethod="pad">
      <stop offset="0.0" stop-color="#406e89"/>
      <stop offset="1.0" stop-color="#315469"/>
    </radialGradient>
    <radialGradient cx="0" cy="0" gradientTransform="matrix(0.0074, 0.0, 0.0, 0.0074, -0.45, -50.1)" gradientUnits="userSpaceOnUse" id="gradient16" r="819.2" spreadMethod="pad">
      <stop offset="0.0" stop-color="#6dbcea"/>
      <stop offset="1.0" stop-color="#2e4f63"/>
    </radialGradient>
    <radialGradient cx="0" cy="0" gradientTransform="matrix(0.0191, 0.0, 0.0, 0.0191, 5.6, -28.55)" gradientUnits="userSpaceOnUse" id="gradient17" r="819.2" spreadMethod="pad">
      <stop offset="0.0" stop-color="#eaeaea"/>
      <stop offset="1.0" stop-color="#999999"/>
    </radialGradient>
    <radialGradient cx="0" cy="0" gradientTransform="matrix(0.0279, 0.0, 0.0, 0.0279, 0.95, -25.65)" gradientUnits="userSpaceOnUse" id="gradient18" r="819.2" spreadMethod="pad">
      <stop offset="0.0" stop-color="#202020"/>
      <stop offset="1.0" stop-color="#202020"/>
    </radialGradient>
    <radialGradient cx="0" cy="0" gradientTransform="matrix(0.0193, 0.0, 0.0, 0.0193, 0.25, -43.6)" gradientUnits="userSpaceOnUse" id="gradient19" r="819.2" spreadMethod="pad">
      <stop offset="0.0" stop-color="#ffffff"/>
      <stop offset="1.0" stop-color="#747474"/>
    </radialGradient>
    <radialGradient cx="0" cy="0" gradientTransform="matrix(0.0103, 0.0, 0.0, 0.0103, 6.35, -37.35)" gradientUnits="userSpaceOnUse" id="gradient20" r="819.2" spreadMethod="pad">
      <stop offset="0.0" stop-color="#d4d4d4"/>
      <stop offset="1.0" stop-color="#c7c7c7"/>
    </radialGradient>
    <radialGradient cx="0" cy="0" gradientTransform="matrix(0.0015, 0.0, 0.0, 0.0015, 0.75, -28.7)" gradientUnits="userSpaceOnUse" id="gradient21" r="819.2" spreadMethod="pad">
      <stop offset="0.0" stop-color="#5694b8"/>
      <stop offset="1.0" stop-color="#2d4d60"/>
    </radialGradient>
    <radialGradient cx="0" cy="0" gradientTransform="matrix(0.0038, 0.0, 0.0, 0.0038, 0.8, -28.35)" gradientUnits="userSpaceOnUse" id="gradient22" r="819.2" spreadMethod="pad">
      <stop offset="0.0" stop-color="#949494"/>
      <stop offset="1.0" stop-color="#8a8a8a"/>
    </radialGradient>
    <radialGradient cx="0" cy="0" gradientTransform="matrix(0.0017, 0.0, 0.0, 0.0017, 0.2, -28.3)" gradientUnits="userSpaceOnUse" id="gradient23" r="819.2" spreadMethod="pad">
      <stop offset="0.0" stop-color="#487c9b"/>
      <stop offset="1.0" stop-color="#2e4f63"/>
    </radialGradient>
    <radialGradient cx="0" cy="0" gradientTransform="matrix(0.0076, 0.0, 0.0, 0.0076, 1.65, -27.6)" gradientUnits="userSpaceOnUse" id="gradient24" r="819.2" spreadMethod="pad">
      <stop offset="0.0" stop-color="#7dd6ff"/>
      <stop offset="1.0" stop-color="#2d4d60"/>
    </radialGradient>
    <radialGradient cx="0" cy="0" gradientTransform="matrix(0.0191, 0.0, 0.0, 0.0191, 2.85, -27.5)" gradientUnits="userSpaceOnUse" id="gradient25" r="819.2" spreadMethod="pad">
      <stop offset="0.0" stop-color="#202020"/>
      <stop offset="1.0" stop-color="#202020"/>
    </radialGradient>
    <radialGradient cx="0" cy="0" gradientTransform="matrix(0.011, 0.0, 0.0, 0.011, 4.5, -20.7)" gradientUnits="userSpaceOnUse" id="gradient26" r="819.2" spreadMethod="pad">
      <stop offset="0.0" stop-color="#d1d1d1"/>
      <stop offset="1.0" stop-color="#9b9b9b"/>
    </radialGradient>
    <radialGradient cx="0" cy="0" gradientTransform="matrix(0.005, 0.0, 0.0, 0.005, -0.4, -15.1)" gradientUnits="userSpaceOnUse" id="gradient27" r="819.2" spreadMethod="pad">
      <stop offset="0.0" stop-color="#3f4b77"/>
      <stop offset="1.0" stop-color="#3f4a77"/>
    </radialGradient>
    <radialGradient cx="0" cy="0" gradientTransform="matrix(0.0102, 0.0, 0.0, 0.0102, -0.05, -9.65)" gradientUnits="userSpaceOnUse" id="gradient28" r="819.2" spreadMethod="pad">
      <stop offset="0.0" stop-color="#7b7b9a"/>
      <stop offset="1.0" stop-color="#59596e"/>
    </radialGradient>
    <radialGradient cx="0" cy="0" gradientTransform="matrix(0.004, 0.0, 0.0, 0.004, -1.25, -14.9)" gradientUnits="userSpaceOnUse" id="gradient29" r="819.2" spreadMethod="pad">
      <stop offset="0.0" stop-color="#282f4b"/>
      <stop offset="1.0" stop-color="#1e243a"/>
    </radialGradient>
    <radialGradient cx="0" cy="0" gradientTransform="matrix(0.0103, 0.0, 0.0, 0.0103, -2.55, -23.45)" gradientUnits="userSpaceOnUse" id="gradient30" r="819.2" spreadMethod="pad">
      <stop offset="0.0" stop-color="#babae9"/>
      <stop offset="1.0" stop-color="#545468"/>
    </radialGradient>
    <radialGradient cx="0" cy="0" gradientTransform="matrix(0.0043, 0.0, 0.0, 0.0043, -1.7, -12.6)" gradientUnits="userSpaceOnUse" id="gradient31" r="819.2" spreadMethod="pad">
      <stop offset="0.0" stop-color="#3e4a76"/>
      <stop offset="1.0" stop-color="#3e4975"/>
    </radialGradient>
    <radialGradient cx="0" cy="0" gradientTransform="matrix(0.0038, 0.0, 0.0, 0.0038, -0.9, -12.55)" gradientUnits="userSpaceOnUse" id="gradient32" r="819.2" spreadMethod="pad">
      <stop offset="0.0" stop-color="#2a324f"/>
      <stop offset="1.0" stop-color="#1f253c"/>
    </radialGradient>
    <radialGradient cx="0" cy="0" gradientTransform="matrix(0.0308, 0.0, 0.0, 0.0308, 8.25, -16.55)" gradientUnits="userSpaceOnUse" id="gradient33" r="819.2" spreadMethod="pad">
      <stop offset="0.0" stop-color="#f1f1f1"/>
      <stop offset="1.0" stop-color="#b2b2b2"/>
    </radialGradient>
    <radialGradient cx="0" cy="0" gradientTransform="matrix(0.003, 0.0, 0.0, 0.003, -0.05, -10.25)" gradientUnits="userSpaceOnUse" id="gradient34" r="819.2" spreadMethod="pad">
      <stop offset="0.0" stop-color="#3e4975"/>
      <stop offset="1.0" stop-color="#3d4874"/>
    </radialGradient>
    <radialGradient cx="0" cy="0" gradientTransform="matrix(0.003, 0.0, 0.0, 0.003, -0.8, -10.1)" gradientUnits="userSpaceOnUse" id="gradient35" r="819.2" spreadMethod="pad">
      <stop offset="0.0" stop-color="#2c3453"/>
      <stop offset="1.0" stop-color="#252c46"/>
    </radialGradient>
    <radialGradient cx="0" cy="0" gradientTransform="matrix(0.0038, 0.0, 0.0, 0.0038, -0.5, -71.2)" gradientUnits="userSpaceOnUse" id="gradient36" r="819.2" spreadMethod="pad">
      <stop offset="0.0" stop-color="#aaaad4"/>
      <stop offset="1.0" stop-color="#6b6b86"/>
    </radialGradient>
    <radialGradient cx="0" cy="0" gradientTransform="matrix(0.0108, 0.0, 0.0, 0.0108, -3.2, -62.6)" gradientUnits="userSpaceOnUse" id="gradient37" r="819.2" spreadMethod="pad">
      <stop offset="0.0" stop-color="#090b11"/>
      <stop offset="1.0" stop-color="#08090e"/>
    </radialGradient>
    <radialGradient cx="0" cy="0" gradientTransform="matrix(0.007, 0.0, 0.0, 0.007, -1.6, -58.7)" gradientUnits="userSpaceOnUse" id="gradient38" r="819.2" spreadMethod="pad">
      <stop offset="0.0" stop-color="#75c9fb"/>
      <stop offset="1.0" stop-color="#447490"/>
    </radialGradient>
    <radialGradient cx="0" cy="0" gradientTransform="matrix(0.012, 0.0, 0.0, 0.012, -2.55, -55.55)" gradientUnits="userSpaceOnUse" id="gradient39" r="819.2" spreadMethod="pad">
      <stop offset="0.0" stop-color="#74c8f9"/>
      <stop offset="1.0" stop-color="#386178"/>
    </radialGradient>
    <radialGradient cx="0" cy="0" gradientTransform="matrix(0.0069, 0.0, 0.0, 0.0069, -2.2, -52.0)" gradientUnits="userSpaceOnUse" id="gradient40" r="819.2" spreadMethod="pad">
      <stop offset="0.0" stop-color="#75c9fa"/>
      <stop offset="1.0" stop-color="#4e86a8"/>
    </radialGradient>
    <radialGradient cx="0" cy="0" gradientTransform="matrix(0.0068, 0.0, 0.0, 0.0068, -6.8, -53.2)" gradientUnits="userSpaceOnUse" id="gradient41" r="819.2" spreadMethod="pad">
      <stop offset="0.0" stop-color="#787896"/>
      <stop offset="1.0" stop-color="#535368"/>
    </radialGradient>
    <radialGradient cx="0" cy="0" gradientTransform="matrix(0.0028, 0.0, 0.0, 0.0028, -6.3, -52.7)" gradientUnits="userSpaceOnUse" id="gradient42" r="819.2" spreadMethod="pad">
      <stop offset="0.0" stop-color="#3c4872"/>
      <stop offset="1.0" stop-color="#232942"/>
    </radialGradient>
    <radialGradient cx="0" cy="0" gradientTransform="matrix(0.0133, 0.0, 0.0, 0.0133, -2.05, -55.25)" gradientUnits="userSpaceOnUse" id="gradient43" r="819.2" spreadMethod="pad">
      <stop offset="0.0" stop-color="#75c9fa"/>
      <stop offset="1.0" stop-color="#467896"/>
    </radialGradient>
    <radialGradient cx="0" cy="0" gradientTransform="matrix(0.0061, 0.0, 0.0, 0.0061, -10.4, -49.25)" gradientUnits="userSpaceOnUse" id="gradient44" r="819.2" spreadMethod="pad">
      <stop offset="0.0" stop-color="#2f3758"/>
      <stop offset="1.0" stop-color="#222942"/>
    </radialGradient>
    <radialGradient cx="0" cy="0" gradientTransform="matrix(0.007, 0.0, 0.0, 0.007, -4.85, -48.55)" gradientUnits="userSpaceOnUse" id="gradient45" r="819.2" spreadMethod="pad">
      <stop offset="0.0" stop-color="#8686a8"/>
      <stop offset="1.0" stop-color="#6e6e89"/>
    </radialGradient>
    <radialGradient cx="0" cy="0" gradientTransform="matrix(0.0048, 0.0, 0.0, 0.0048, -3.65, -46.75)" gradientUnits="userSpaceOnUse" id="gradient46" r="819.2" spreadMethod="pad">
      <stop offset="0.0" stop-color="#70708c"/>
      <stop offset="1.0" stop-color="#65657e"/>
    </radialGradient>
    <radialGradient cx="0" cy="0" gradientTransform="matrix(0.0163, 0.0, 0.0, 0.0163, -7.9, -34.65)" gradientUnits="userSpaceOnUse" id="gradient47" r="819.2" spreadMethod="pad">
      <stop offset="0.0" stop-color="#424e7d"/>
      <stop offset="1.0" stop-color="#2d3554"/>
    </radialGradient>
    <radialGradient cx="0" cy="0" gradientTransform="matrix(0.0113, 0.0, 0.0, 0.0113, -1.45, -46.35)" gradientUnits="userSpaceOnUse" id="gradient48" r="819.2" spreadMethod="pad">
      <stop offset="0.0" stop-color="#ababd5"/>
      <stop offset="1.0" stop-color="#757592"/>
    </radialGradient>
    <radialGradient cx="0" cy="0" gradientTransform="matrix(0.0098, 0.0, 0.0, 0.0098, -5.25, -42.95)" gradientUnits="userSpaceOnUse" id="gradient49" r="819.2" spreadMethod="pad">
      <stop offset="0.0" stop-color="#9f9fc6"/>
      <stop offset="1.0" stop-color="#5f5f76"/>
    </radialGradient>
    <radialGradient cx="0" cy="0" gradientTransform="matrix(0.003, 0.0, 0.0, 0.003, -2.75, -46.1)" gradientUnits="userSpaceOnUse" id="gradient50" r="819.2" spreadMethod="pad">
      <stop offset="0.0" stop-color="#4b80a0"/>
      <stop offset="1.0" stop-color="#416f8b"/>
    </radialGradient>
    <radialGradient cx="0" cy="0" gradientTransform="matrix(0.0078, 0.0, 0.0, 0.0078, -7.1, -48.75)" gradientUnits="userSpaceOnUse" id="gradient51" r="819.2" spreadMethod="pad">
      <stop offset="0.0" stop-color="#acacd6"/>
      <stop offset="1.0" stop-color="#5e5e76"/>
    </radialGradient>
    <radialGradient cx="0" cy="0" gradientTransform="matrix(0.0104, 0.0, 0.0, 0.0104, -10.55, -42.8)" gradientUnits="userSpaceOnUse" id="gradient52" r="819.2" spreadMethod="pad">
      <stop offset="0.0" stop-color="#b0b0dc"/>
      <stop offset="1.0" stop-color="#5e5e76"/>
    </radialGradient>
    <radialGradient cx="0" cy="0" gradientTransform="matrix(0.0169, 0.0, 0.0, 0.0169, -4.6, -40.25)" gradientUnits="userSpaceOnUse" id="gradient53" r="819.2" spreadMethod="pad">
      <stop offset="0.0" stop-color="#404b78"/>
      <stop offset="1.0" stop-color="#252b45"/>
    </radialGradient>
    <radialGradient cx="0" cy="0" gradientTransform="matrix(0.0157, 0.0, 0.0, 0.0157, -15.0, -42.35)" gradientUnits="userSpaceOnUse" id="gradient54" r="819.2" spreadMethod="pad">
      <stop offset="0.0" stop-color="#242a43"/>
      <stop offset="1.0" stop-color="#0a0b12"/>
    </radialGradient>
    <radialGradient cx="0" cy="0" gradientTransform="matrix(0.0036, 0.0, 0.0, 0.0036, -12.85, -35.25)" gradientUnits="userSpaceOnUse" id="gradient55" r="819.2" spreadMethod="pad">
      <stop offset="0.0" stop-color="#1f243a"/>
      <stop offset="1.0" stop-color="#1b2134"/>
    </radialGradient>
    <radialGradient cx="0" cy="0" gradientTransform="matrix(0.0087, 0.0, 0.0, 0.0087, -8.45, -33.65)" gradientUnits="userSpaceOnUse" id="gradient56" r="819.2" spreadMethod="pad">
      <stop offset="0.0" stop-color="#b8b8e5"/>
      <stop offset="1.0" stop-color="#62627b"/>
    </radialGradient>
    <radialGradient cx="0" cy="0" gradientTransform="matrix(0.0265, 0.0, 0.0, 0.0265, -9.5, -32.15)" gradientUnits="userSpaceOnUse" id="gradient57" r="819.2" spreadMethod="pad">
      <stop offset="0.0" stop-color="#babae8"/>
      <stop offset="1.0" stop-color="#6c6c86"/>
    </radialGradient>
    <radialGradient cx="0" cy="0" gradientTransform="matrix(0.0131, 0.0, 0.0, 0.0131, -5.05, -31.6)" gradientUnits="userSpaceOnUse" id="gradient58" r="819.2" spreadMethod="pad">
      <stop offset="0.0" stop-color="#7c7c9a"/>
      <stop offset="1.0" stop-color="#63637b"/>
    </radialGradient>
    <radialGradient cx="0" cy="0" gradientTransform="matrix(0.0042, 0.0, 0.0, 0.0042, -2.45, -34.45)" gradientUnits="userSpaceOnUse" id="gradient59" r="819.2" spreadMethod="pad">
      <stop offset="0.0" stop-color="#72728e"/>
      <stop offset="1.0" stop-color="#55556b"/>
    </radialGradient>
    <radialGradient cx="0" cy="0" gradientTransform="matrix(0.0024, 0.0, 0.0, 0.0024, -7.95, -35.6)" gradientUnits="userSpaceOnUse" id="gradient60" r="819.2" spreadMethod="pad">
      <stop offset="0.0" stop-color="#414d7c"/>
      <stop offset="1.0" stop-color="#3d4874"/>
    </radialGradient>
    <radialGradient cx="0" cy="0" gradientTransform="matrix(0.0116, 0.0, 0.0, 0.0116, -7.4, -41.25)" gradientUnits="userSpaceOnUse" id="gradient61" r="819.2" spreadMethod="pad">
      <stop offset="0.0" stop-color="#08090e"/>
      <stop offset="1.0" stop-color="#08090e"/>
    </radialGradient>
    <radialGradient cx="0" cy="0" gradientTransform="matrix(0.0115, 0.0, 0.0, 0.0115, -6.5, -28.3)" gradientUnits="userSpaceOnUse" id="gradient62" r="819.2" spreadMethod="pad">
      <stop offset="0.0" stop-color="#3f4b78"/>
      <stop offset="1.0" stop-color="#1e243a"/>
    </radialGradient>
    <radialGradient cx="0" cy="0" gradientTransform="matrix(0.0044, 0.0, 0.0, 0.0044, -8.85, -28.35)" gradientUnits="userSpaceOnUse" id="gradient63" r="819.2" spreadMethod="pad">
      <stop offset="0.0" stop-color="#435080"/>
      <stop offset="1.0" stop-color="#313a5d"/>
    </radialGradient>
    <radialGradient cx="0" cy="0" gradientTransform="matrix(0.0074, 0.0, 0.0, 0.0074, -0.55, -28.45)" gradientUnits="userSpaceOnUse" id="gradient64" r="819.2" spreadMethod="pad">
      <stop offset="0.0" stop-color="#bbbbbb"/>
      <stop offset="1.0" stop-color="#909090"/>
    </radialGradient>
    <radialGradient cx="0" cy="0" gradientTransform="matrix(0.007, 0.0, 0.0, 0.007, -0.55, -28.45)" gradientUnits="userSpaceOnUse" id="gradient65" r="819.2" spreadMethod="pad">
      <stop offset="0.0" stop-color="#a9a9a9"/>
      <stop offset="1.0" stop-color="#9e9e9e"/>
    </radialGradient>
    <radialGradient cx="0" cy="0" gradientTransform="matrix(0.0043, 0.0, 0.0, 0.0043, -1.5, -25.0)" gradientUnits="userSpaceOnUse" id="gradient66" r="819.2" spreadMethod="pad">
      <stop offset="0.0" stop-color="#202020"/>
      <stop offset="1.0" stop-color="#202020"/>
    </radialGradient>
    <radialGradient cx="0" cy="0" gradientTransform="matrix(0.0041, 0.0, 0.0, 0.0041, -7.15, -19.65)" gradientUnits="userSpaceOnUse" id="gradient67" r="819.2" spreadMethod="pad">
      <stop offset="0.0" stop-color="#445080"/>
      <stop offset="1.0" stop-color="#1d2337"/>
    </radialGradient>
    <radialGradient cx="0" cy="0" gradientTransform="matrix(0.0016, 0.0, 0.0, 0.0016, -9.2, -20.95)" gradientUnits="userSpaceOnUse" id="gradient68" r="819.2" spreadMethod="pad">
      <stop offset="0.0" stop-color="#9e9ec5"/>
      <stop offset="1.0" stop-color="#6b6b85"/>
    </radialGradient>
    <radialGradient cx="0" cy="0" gradientTransform="matrix(0.0128, 0.0, 0.0, 0.0128, -5.5, -14.1)" gradientUnits="userSpaceOnUse" id="gradient69" r="819.2" spreadMethod="pad">
      <stop offset="0.0" stop-color="#c0c0ef"/>
      <stop offset="1.0" stop-color="#595970"/>
    </radialGradient>
    <radialGradient cx="0" cy="0" gradientTransform="matrix(0.0047, 0.0, 0.0, 0.0047, -7.35, -14.25)" gradientUnits="userSpaceOnUse" id="gradient70" r="819.2" spreadMethod="pad">
      <stop offset="0.0" stop-color="#8e8eb1"/>
      <stop offset="1.0" stop-color="#58586e"/>
    </radialGradient>
    <radialGradient cx="0" cy="0" gradientTransform="matrix(0.0053, 0.0, 0.0, 0.0053, -8.9, -25.7)" gradientUnits="userSpaceOnUse" id="gradient71" r="819.2" spreadMethod="pad">
      <stop offset="0.0" stop-color="#445081"/>
      <stop offset="1.0" stop-color="#242c46"/>
    </radialGradient>
    <radialGradient cx="0" cy="0" gradientTransform="matrix(0.0038, 0.0, 0.0, 0.0038, 0.15, -8.85)" gradientUnits="userSpaceOnUse" id="gradient72" r="819.2" spreadMethod="pad">
      <stop offset="0.0" stop-color="#bfbfee"/>
      <stop offset="1.0" stop-color="#606078"/>
    </radialGradient>
    <radialGradient cx="0" cy="0" gradientTransform="matrix(0.0061, 0.0, 0.0, 0.0061, -6.45, -4.45)" gradientUnits="userSpaceOnUse" id="gradient73" r="819.2" spreadMethod="pad">
      <stop offset="0.0" stop-color="#39436c"/>
      <stop offset="1.0" stop-color="#39436b"/>
    </radialGradient>
    <radialGradient cx="0" cy="0" gradientTransform="matrix(0.0135, 0.0, 0.0, 0.0135, -2.4, 4.35)" gradientUnits="userSpaceOnUse" id="gradient74" r="819.2" spreadMethod="pad">
      <stop offset="0.0" stop-color="#9b9bc1"/>
      <stop offset="1.0" stop-color="#5b5b71"/>
    </radialGradient>
    <radialGradient cx="0" cy="0" gradientTransform="matrix(0.0086, 0.0, 0.0, 0.0086, -6.35, -3.55)" gradientUnits="userSpaceOnUse" id="gradient75" r="819.2" spreadMethod="pad">
      <stop offset="0.0" stop-color="#15151a"/>
      <stop offset="1.0" stop-color="#15151a"/>
    </radialGradient>
    <radialGradient cx="0" cy="0" gradientTransform="matrix(0.0044, 0.0, 0.0, 0.0044, -4.0, -3.45)" gradientUnits="userSpaceOnUse" id="gradient76" r="819.2" spreadMethod="pad">
      <stop offset="0.0" stop-color="#2f3859"/>
      <stop offset="1.0" stop-color="#20263d"/>
    </radialGradient>
    <radialGradient cx="0" cy="0" gradientTransform="matrix(0.0029, 0.0, 0.0, 0.0029, -6.3, -2.9)" gradientUnits="userSpaceOnUse" id="gradient77" r="819.2" spreadMethod="pad">
      <stop offset="0.0" stop-color="#08090e"/>
      <stop offset="1.0" stop-color="#08090e"/>
    </radialGradient>
    <radialGradient cx="0" cy="0" gradientTransform="matrix(0.0056, 0.0, 0.0, 0.0056, -5.75, -1.45)" gradientUnits="userSpaceOnUse" id="gradient78" r="819.2" spreadMethod="pad">
      <stop offset="0.0" stop-color="#3c4771"/>
      <stop offset="1.0" stop-color="#3b4670"/>
    </radialGradient>
    <radialGradient cx="0" cy="0" gradientTransform="matrix(0.0028, 0.0, 0.0, 0.0028, -5.6, 0.0)" gradientUnits="userSpaceOnUse" id="gradient79" r="819.2" spreadMethod="pad">
      <stop offset="0.0" stop-color="#08090e"/>
      <stop offset="1.0" stop-color="#08090e"/>
    </radialGradient>
    <radialGradient cx="0" cy="0" gradientTransform="matrix(0.0041, 0.0, 0.0, 0.0041, -3.5, -0.5)" gradientUnits="userSpaceOnUse" id="gradient80" r="819.2" spreadMethod="pad">
      <stop offset="0.0" stop-color="#2c3453"/>
      <stop offset="1.0" stop-color="#20263c"/>
    </radialGradient>
    <radialGradient cx="0" cy="0" gradientTransform="matrix(0.0058, 0.0, 0.0, 0.0058, -5.85, 0.1)" gradientUnits="userSpaceOnUse" id="gradient81" r="819.2" spreadMethod="pad">
      <stop offset="0.0" stop-color="#3e4975"/>
      <stop offset="1.0" stop-color="#3e4975"/>
    </radialGradient>
    <radialGradient cx="0" cy="0" gradientTransform="matrix(0.012, 0.0, 0.0, 0.012, -2.9, 2.75)" gradientUnits="userSpaceOnUse" id="gradient82" r="819.2" spreadMethod="pad">
      <stop offset="0.0" stop-color="#c5c5f5"/>
      <stop offset="1.0" stop-color="#9f9fc7"/>
    </radialGradient>
    <radialGradient cx="0" cy="0" gradientTransform="matrix(0.0048, 0.0, 0.0, 0.0048, -2.35, 1.95)" gradientUnits="userSpaceOnUse" id="gradient83" r="819.2" spreadMethod="pad">
      <stop offset="0.0" stop-color="#29314f"/>
      <stop offset="1.0" stop-color="#1f253b"/>
    </radialGradient>
    <radialGradient cx="0" cy="0" gradientTransform="matrix(0.0029, 0.0, 0.0, 0.0029, -12.4, 5.3)" gradientUnits="userSpaceOnUse" id="gradient84" r="819.2" spreadMethod="pad">
      <stop offset="0.0" stop-color="#5f5f77"/>
      <stop offset="1.0" stop-color="#5e5e76"/>
    </radialGradient>
  </defs>
</svg>
