<?xml version="1.0" encoding="UTF-8" standalone="no"?>
<svg xmlns:ffdec="https://www.free-decompiler.com/flash" xmlns:xlink="http://www.w3.org/1999/xlink" ffdec:objectType="shape" height="65.75px" width="25.45px" xmlns="http://www.w3.org/2000/svg">
  <g transform="matrix(1.0, 0.0, 0.0, 1.0, 13.85, 55.0)">
    <path d="M6.35 -50.75 L6.45 -50.7 6.35 -50.7 6.35 -50.75" fill="url(#gradient0)" fill-rule="evenodd" stroke="none"/>
    <path d="M6.35 -50.7 L6.45 -50.7 8.25 -50.1 Q9.5 -48.25 9.4 -47.0 L9.15 -45.2 8.35 -44.1 Q8.6 -46.45 6.9 -47.0 L6.25 -47.3 6.25 -47.35 Q5.6 -48.95 6.35 -50.7" fill="url(#gradient1)" fill-rule="evenodd" stroke="none"/>
    <path d="M6.35 -50.75 L6.35 -50.7 Q5.6 -48.95 6.25 -47.35 L6.2 -47.3 5.45 -46.5 4.85 -46.3 Q5.7 -48.15 4.6 -49.0 1.4 -48.75 0.75 -47.3 0.45 -47.65 -0.65 -47.0 L-2.5 -45.7 Q-4.95 -48.85 -4.55 -52.0 L-3.9 -52.95 -4.05 -53.1 -3.95 -53.15 -3.95 -53.2 Q2.3 -57.75 6.35 -50.75" fill="url(#gradient2)" fill-rule="evenodd" stroke="none"/>
    <path d="M6.9 -47.0 L7.15 -46.6 7.5 -44.55 7.0 -42.0 6.45 -43.2 6.15 -44.55 5.55 -45.15 6.25 -47.3 6.9 -47.0" fill="url(#gradient3)" fill-rule="evenodd" stroke="none"/>
    <path d="M6.2 -47.3 L6.25 -47.35 6.25 -47.3 6.2 -47.3" fill="url(#gradient4)" fill-rule="evenodd" stroke="none"/>
    <path d="M4.85 -46.3 L5.45 -46.5 6.2 -47.3 6.25 -47.3 5.55 -45.15 5.55 -44.75 5.05 -43.05 3.95 -42.0 3.65 -41.4 3.05 -41.05 2.3 -41.05 1.3 -41.45 1.25 -41.45 4.75 -45.95 4.85 -46.3 M0.35 -44.45 L-0.1 -42.1 -0.7 -42.4 -1.3 -43.1 -1.4 -44.0 -1.4 -44.05 -1.45 -44.2 0.35 -44.45" fill="url(#gradient5)" fill-rule="evenodd" stroke="none"/>
    <path d="M5.55 -44.75 L5.55 -45.15 6.15 -44.55 6.45 -43.2 5.55 -44.75 M0.8 -40.95 L0.85 -41.05 1.05 -41.2 2.4 -39.3 1.3 -41.45 2.3 -41.05 3.05 -41.05 3.65 -41.4 3.95 -42.0 4.7 -41.05 5.25 -40.15 4.75 -40.0 5.15 -39.0 4.7 -38.05 4.65 -37.3 Q4.25 -36.35 3.7 -36.45 L3.45 -35.8 3.3 -35.9 2.65 -38.95 1.0 -40.7 0.8 -40.95" fill="url(#gradient6)" fill-rule="evenodd" stroke="none"/>
    <path d="M0.35 -44.45 L0.8 -46.9 0.75 -47.3 Q1.4 -48.75 4.6 -49.0 5.7 -48.15 4.85 -46.3 L4.75 -45.95 1.25 -41.45 1.05 -41.2 0.85 -41.05 0.8 -40.95 -0.55 -39.8 -0.25 -41.3 -0.1 -42.1 0.35 -44.45" fill="url(#gradient7)" fill-rule="evenodd" stroke="none"/>
    <path d="M0.75 -47.3 L0.8 -46.9 0.35 -44.45 -1.45 -44.2 -1.7 -44.2 -3.4 -44.45 -3.95 -44.75 -4.15 -44.85 -4.1 -44.95 -3.2 -45.3 -2.5 -45.7 -0.65 -47.0 Q0.45 -47.65 0.75 -47.3" fill="url(#gradient8)" fill-rule="evenodd" stroke="none"/>
    <path d="M7.0 -42.0 Q10.0 -37.45 10.0 -36.3 10.75 -34.25 7.3 -31.8 L7.15 -31.65 7.05 -31.55 6.55 -31.05 5.5 -30.4 5.3 -30.4 5.3 -30.6 5.85 -31.05 4.95 -31.1 4.9 -32.25 5.15 -33.15 Q6.65 -34.95 5.7 -38.2 L5.5 -39.7 5.25 -40.15 4.7 -41.05 3.95 -42.0 5.05 -43.05 5.55 -44.75 6.45 -43.2 7.0 -42.0 M-8.35 -41.35 L-8.2 -42.0 -7.7 -42.85 -6.85 -43.5 -5.2 -44.3 -4.1 -44.6 -3.8 -44.55 -3.4 -44.45 -3.4 -43.65 -2.35 -41.9 -0.05 -38.2 0.8 -37.15 1.05 -36.8 2.4 -35.95 Q5.6 -34.35 4.55 -30.6 L4.3 -30.1 2.85 -28.8 2.45 -28.65 2.6 -28.65 Q-0.25 -27.05 -3.4 -30.1 L-4.1 -30.55 -4.55 -31.0 -4.75 -31.2 -6.15 -32.7 -6.1 -32.8 -5.7 -32.65 -5.3 -32.9 -5.15 -32.85 -4.15 -33.5 -3.95 -33.6 Q-1.95 -35.1 -5.95 -40.25 L-6.6 -41.05 -7.55 -41.65 -7.75 -41.55 -8.05 -41.65 -8.35 -41.35 M-4.15 -30.0 Q-3.55 -26.75 0.6 -25.15 3.75 -23.7 4.55 -27.05 L5.6 -26.7 Q5.1 -21.8 1.55 -21.85 L1.6 -21.95 1.6 -22.1 1.15 -22.9 0.7 -23.85 Q-0.6 -24.7 -2.1 -25.15 L-4.8 -27.7 Q-5.5 -28.6 -5.05 -29.1 L-4.4 -29.8 -4.15 -30.0 M5.55 -30.35 L5.85 -30.35 5.75 -30.1 5.55 -30.0 5.55 -30.35" fill="url(#gradient9)" fill-rule="evenodd" stroke="none"/>
    <path d="M-0.25 -41.3 L-0.55 -39.8 0.8 -40.95 1.0 -40.7 2.65 -38.95 3.3 -35.9 2.55 -35.95 2.4 -36.0 2.3 -36.2 Q1.95 -36.15 0.8 -37.15 L-0.05 -38.2 -2.35 -41.9 -0.25 -41.3 M1.05 -41.2 L1.25 -41.45 1.3 -41.45 2.4 -39.3 1.05 -41.2 M-5.1 -35.4 L-5.7 -38.75 -6.3 -39.65 -5.95 -40.25 Q-1.95 -35.1 -3.95 -33.6 L-4.0 -33.6 -4.45 -34.55 -5.1 -35.4" fill="url(#gradient10)" fill-rule="evenodd" stroke="none"/>
    <path d="M5.25 -40.15 L5.5 -39.7 5.7 -38.2 5.65 -36.15 Q5.45 -34.9 4.9 -34.05 L4.0 -34.9 3.7 -35.6 3.45 -35.8 3.7 -36.45 Q4.25 -36.35 4.65 -37.3 L4.7 -38.05 5.15 -39.0 4.75 -40.0 5.25 -40.15 M1.2 -22.25 L1.15 -22.9 1.6 -22.1 1.2 -22.25" fill="url(#gradient11)" fill-rule="evenodd" stroke="none"/>
    <path d="M5.7 -38.2 Q6.65 -34.95 5.15 -33.15 L5.1 -33.75 4.9 -34.05 Q5.45 -34.9 5.65 -36.15 L5.7 -38.2" fill="url(#gradient12)" fill-rule="evenodd" stroke="none"/>
    <path d="M5.15 -33.15 L4.9 -32.25 4.95 -31.1 4.55 -30.6 Q5.6 -34.35 2.4 -35.95 L2.4 -36.0 2.55 -35.95 4.0 -34.9 4.9 -34.05 5.1 -33.75 5.15 -33.15" fill="url(#gradient13)" fill-rule="evenodd" stroke="none"/>
    <path d="M4.95 -31.1 L5.85 -31.05 5.3 -30.6 5.3 -30.4 5.5 -30.4 6.55 -31.05 7.05 -31.55 7.15 -31.55 7.15 -31.5 6.8 -31.0 6.55 -30.65 6.45 -30.1 6.55 -28.8 Q6.5 -27.85 5.6 -26.7 L4.55 -27.05 Q3.75 -23.7 0.6 -25.15 -3.55 -26.75 -4.15 -30.0 L-4.15 -30.1 -4.2 -30.5 -4.1 -30.55 -3.4 -30.1 Q-0.25 -27.05 2.6 -28.65 L2.85 -28.7 3.05 -28.9 2.85 -28.8 4.3 -30.1 4.55 -30.6 4.95 -31.1 M5.55 -30.35 L5.55 -30.0 5.75 -30.1 5.85 -30.35 5.55 -30.35" fill="url(#gradient14)" fill-rule="evenodd" stroke="none"/>
    <path d="M7.05 -31.55 L7.15 -31.65 7.15 -31.55 7.05 -31.55 M-4.1 -30.55 L-4.2 -30.5 -4.55 -31.0 -4.1 -30.55" fill="url(#gradient15)" fill-rule="evenodd" stroke="none"/>
    <path d="M7.3 -31.8 L8.05 -30.8 8.15 -29.6 7.1 -30.8 7.15 -31.5 7.15 -31.55 7.15 -31.65 7.3 -31.8" fill="url(#gradient16)" fill-rule="evenodd" stroke="none"/>
    <path d="M6.8 -31.0 L7.15 -31.5 7.1 -30.8 6.8 -31.0" fill="url(#gradient17)" fill-rule="evenodd" stroke="none"/>
    <path d="M3.45 -35.8 L3.7 -35.6 4.0 -34.9 2.55 -35.95 3.3 -35.9 3.45 -35.8 M2.4 -36.0 L2.4 -35.95 1.05 -36.8 0.8 -37.15 Q1.95 -36.15 2.3 -36.2 L2.4 -36.0" fill="url(#gradient18)" fill-rule="evenodd" stroke="none"/>
    <path d="M2.85 -28.8 L3.05 -28.9 2.85 -28.7 2.6 -28.65 2.45 -28.65 2.85 -28.8" fill="url(#gradient19)" fill-rule="evenodd" stroke="none"/>
    <path d="M8.15 -29.6 L8.65 -28.15 9.1 -25.6 Q9.2 -22.25 6.65 -17.5 5.8 -16.4 2.95 -16.35 L2.95 -16.2 2.65 -16.35 2.25 -16.95 2.2 -16.15 1.75 -17.5 1.35 -19.0 1.35 -19.15 1.3 -19.15 1.4 -21.25 1.25 -21.95 1.55 -21.85 Q5.1 -21.8 5.6 -26.7 6.5 -27.85 6.55 -28.8 L6.45 -30.1 6.55 -30.65 6.8 -31.0 7.1 -30.8 8.15 -29.6" fill="url(#gradient20)" fill-rule="evenodd" stroke="none"/>
    <path d="M1.3 -19.0 Q0.6 -13.95 -0.85 -11.9 -4.3 -9.35 -4.55 -10.55 L-4.65 -10.6 -5.3 -10.0 -5.7 -10.75 -5.7 -11.25 -5.6 -11.85 -5.7 -12.25 Q-8.1 -14.4 -6.7 -24.0 L-6.35 -23.75 -6.2 -23.8 Q-4.65 -25.35 -2.1 -25.15 -0.6 -24.7 0.7 -23.85 L1.15 -22.9 1.2 -22.25 1.25 -21.95 1.4 -21.25 1.3 -19.15 1.3 -19.0" fill="url(#gradient21)" fill-rule="evenodd" stroke="none"/>
    <path d="M1.6 -22.1 L1.6 -21.95 1.55 -21.85 1.25 -21.95 1.2 -22.25 1.6 -22.1" fill="url(#gradient22)" fill-rule="evenodd" stroke="none"/>
    <path d="M1.35 -19.0 L1.3 -19.0 1.3 -19.15 1.35 -19.15 1.35 -19.0" fill="url(#gradient23)" fill-rule="evenodd" stroke="none"/>
    <path d="M6.05 -16.0 L6.4 -14.3 Q6.45 -12.5 5.9 -11.55 3.65 -8.75 1.55 -11.4 L1.45 -11.55 Q0.0 -17.3 1.75 -17.5 L2.2 -16.15 2.3 -15.95 2.65 -16.35 2.95 -16.2 3.45 -15.65 4.45 -15.3 4.5 -15.0 4.65 -14.95 5.3 -14.95 5.65 -15.6 6.05 -16.0" fill="url(#gradient24)" fill-rule="evenodd" stroke="none"/>
    <path d="M6.65 -17.5 L6.6 -16.85 6.05 -16.0 5.65 -15.6 5.55 -15.6 5.5 -15.55 5.45 -15.55 5.3 -15.4 4.45 -15.3 3.45 -15.65 2.95 -16.2 2.95 -16.35 Q5.8 -16.4 6.65 -17.5" fill="url(#gradient25)" fill-rule="evenodd" stroke="none"/>
    <path d="M2.65 -16.35 L2.3 -15.95 2.2 -16.15 2.25 -16.95 2.65 -16.35" fill="url(#gradient26)" fill-rule="evenodd" stroke="none"/>
    <path d="M4.45 -15.3 L5.3 -15.4 5.45 -15.55 5.5 -15.55 5.55 -15.6 5.65 -15.6 5.3 -14.95 4.65 -14.95 4.5 -15.0 4.45 -15.3" fill="url(#gradient27)" fill-rule="evenodd" stroke="none"/>
    <path d="M5.9 -11.55 L5.55 -6.85 Q7.8 -5.0 3.25 -3.55 L2.15 -4.15 Q1.4 -4.85 1.65 -6.6 L1.75 -8.45 1.85 -8.7 1.75 -8.75 1.45 -11.45 1.55 -11.4 Q3.65 -8.75 5.9 -11.55" fill="url(#gradient28)" fill-rule="evenodd" stroke="none"/>
    <path d="M1.45 -11.45 L1.45 -11.55 1.55 -11.4 1.45 -11.45" fill="url(#gradient29)" fill-rule="evenodd" stroke="none"/>
    <path d="M1.75 -8.45 L1.75 -8.75 1.85 -8.7 1.75 -8.45" fill="url(#gradient30)" fill-rule="evenodd" stroke="none"/>
    <path d="M5.55 -6.85 Q13.7 -4.95 10.85 -1.25 6.2 -1.55 1.9 -3.25 0.15 -4.2 1.65 -6.6 1.4 -4.85 2.15 -4.15 L3.25 -3.55 Q7.8 -5.0 5.55 -6.85" fill="url(#gradient31)" fill-rule="evenodd" stroke="none"/>
    <path d="M-4.05 -53.1 L-3.95 -53.2 -3.95 -53.15 -4.05 -53.1" fill="url(#gradient32)" fill-rule="evenodd" stroke="none"/>
    <path d="M-5.9 -49.15 Q-6.9 -50.9 -4.05 -53.1 L-3.9 -52.95 -4.55 -52.0 Q-4.95 -48.85 -2.5 -45.7 L-3.2 -45.3 Q-5.95 -48.2 -5.9 -49.15" fill="url(#gradient33)" fill-rule="evenodd" stroke="none"/>
    <path d="M-7.3 -44.2 Q-7.6 -44.4 -6.75 -46.6 L-6.25 -47.15 Q-6.5 -45.15 -3.95 -44.75 L-3.8 -44.55 -4.1 -44.6 -5.2 -44.3 -6.85 -43.5 -7.1 -43.7 -7.3 -44.2" fill="url(#gradient34)" fill-rule="evenodd" stroke="none"/>
    <path d="M-3.95 -44.75 L-3.4 -44.45 -3.8 -44.55 -3.95 -44.75" fill="url(#gradient35)" fill-rule="evenodd" stroke="none"/>
    <path d="M-6.25 -47.15 L-6.3 -48.05 -5.9 -49.15 Q-5.95 -48.2 -3.2 -45.3 L-4.1 -44.95 -4.15 -44.85 -3.95 -44.75 Q-6.5 -45.15 -6.25 -47.15" fill="url(#gradient36)" fill-rule="evenodd" stroke="none"/>
    <path d="M-0.1 -42.1 L-0.25 -41.3 -2.35 -41.9 -3.4 -43.65 -3.4 -44.45 -1.7 -44.2 -1.8 -43.75 -1.3 -43.1 -0.7 -42.4 -0.1 -42.1" fill="url(#gradient37)" fill-rule="evenodd" stroke="none"/>
    <path d="M-1.7 -44.2 L-1.45 -44.2 -1.4 -44.05 -1.4 -44.0 -1.3 -43.1 -1.8 -43.75 -1.7 -44.2" fill="url(#gradient38)" fill-rule="evenodd" stroke="none"/>
    <path d="M-7.7 -42.85 L-7.6 -43.65 -7.3 -44.2 -7.1 -43.7 -6.85 -43.5 -7.7 -42.85" fill="url(#gradient39)" fill-rule="evenodd" stroke="none"/>
    <path d="M-8.55 -40.45 L-8.35 -41.35 -8.05 -41.65 -7.75 -41.55 -7.55 -41.65 -6.6 -41.05 -5.95 -40.25 -6.3 -39.65 -7.75 -40.4 -8.55 -40.45 M-5.1 -35.4 L-4.45 -34.55 -4.0 -33.6 -4.15 -33.5 -5.15 -32.85 -5.3 -32.9 -5.9 -33.1 -5.5 -33.7 -5.1 -35.4" fill="url(#gradient40)" fill-rule="evenodd" stroke="none"/>
    <path d="M-11.45 -27.25 L-11.35 -30.65 -10.75 -34.15 -11.1 -36.3 -11.05 -37.05 Q-10.95 -39.75 -8.6 -40.4 L-8.55 -40.45 -7.75 -40.4 -6.3 -39.65 -5.7 -38.75 -5.1 -35.4 -5.5 -33.7 -5.9 -33.1 -6.1 -32.8 -6.15 -32.7 -6.55 -32.1 -6.75 -31.85 -7.05 -29.45 -7.6 -27.8 Q-10.0 -25.2 -11.45 -27.2 L-11.45 -27.25" fill="url(#gradient41)" fill-rule="evenodd" stroke="none"/>
    <path d="M-11.5 -27.2 L-11.45 -27.25 -11.45 -27.2 -11.5 -27.2" fill="url(#gradient42)" fill-rule="evenodd" stroke="none"/>
    <path d="M-7.1 -24.85 Q-7.5 -21.75 -8.1 -21.25 L-8.4 -18.75 -8.5 -18.2 -9.0 -17.9 -10.25 -18.25 -11.15 -19.15 -11.3 -19.2 -11.45 -19.65 -11.5 -20.8 Q-11.95 -22.35 -12.0 -24.95 L-11.5 -27.2 -11.45 -27.2 Q-10.0 -25.2 -7.6 -27.8 L-7.25 -27.15 -7.1 -25.25 -7.1 -24.85" fill="url(#gradient43)" fill-rule="evenodd" stroke="none"/>
    <path d="M-4.0 -33.6 L-3.95 -33.6 -4.15 -33.5 -4.0 -33.6 M-5.9 -33.1 L-5.3 -32.9 -5.7 -32.65 -6.1 -32.8 -5.9 -33.1" fill="url(#gradient44)" fill-rule="evenodd" stroke="none"/>
    <path d="M-4.2 -30.5 L-4.15 -30.1 -4.15 -30.0 -4.4 -29.8 -4.9 -30.1 -5.0 -30.2 -5.15 -30.6 -5.05 -30.95 -4.75 -31.2 -4.55 -31.0 -4.2 -30.5" fill="url(#gradient45)" fill-rule="evenodd" stroke="none"/>
    <path d="M-4.75 -31.2 L-5.05 -30.95 -5.15 -30.6 -5.0 -30.2 -5.45 -30.35 -6.0 -30.8 -6.4 -31.35 -6.55 -32.1 -6.15 -32.7 -4.75 -31.2" fill="url(#gradient46)" fill-rule="evenodd" stroke="none"/>
    <path d="M-5.0 -30.2 L-4.9 -30.1 -4.4 -29.8 -5.05 -29.1 -6.15 -28.4 -6.65 -27.15 -6.7 -27.15 -6.75 -27.3 -6.8 -27.35 -6.8 -27.5 -6.8 -27.55 -6.85 -27.55 Q-7.15 -30.15 -6.0 -30.8 L-5.45 -30.35 -5.0 -30.2" fill="url(#gradient47)" fill-rule="evenodd" stroke="none"/>
    <path d="M-6.8 -27.5 L-6.85 -27.55 -6.8 -27.55 -6.8 -27.5" fill="url(#gradient48)" fill-rule="evenodd" stroke="none"/>
    <path d="M-6.7 -27.1 L-6.7 -27.15 -6.65 -27.15 -6.7 -27.1" fill="url(#gradient49)" fill-rule="evenodd" stroke="none"/>
    <path d="M-6.7 -24.0 L-7.1 -24.85 -7.1 -25.25 -7.0 -26.3 -6.7 -27.1 -6.65 -27.15 -6.15 -28.4 -5.05 -29.1 Q-5.5 -28.6 -4.8 -27.7 L-2.1 -25.15 Q-4.65 -25.35 -6.2 -23.8 L-6.35 -23.75 -6.7 -24.0" fill="url(#gradient50)" fill-rule="evenodd" stroke="none"/>
    <path d="M-8.4 -18.75 Q-7.0 -16.05 -10.25 -15.35 -9.45 -15.6 -9.25 -16.25 L-9.0 -17.9 -8.5 -18.2 -8.4 -18.75" fill="url(#gradient51)" fill-rule="evenodd" stroke="none"/>
    <path d="M-10.25 -15.35 Q-12.95 -14.8 -13.85 -17.45 -14.1 -20.15 -11.5 -20.8 L-11.45 -19.65 -11.3 -19.2 -11.15 -19.15 -10.25 -18.25 -9.0 -17.9 -9.25 -16.25 Q-9.45 -15.6 -10.25 -15.35" fill="url(#gradient52)" fill-rule="evenodd" stroke="none"/>
    <path d="M-0.85 -11.9 L-1.45 -10.35 -2.15 -9.55 Q-4.5 -6.6 -4.9 -10.05 L-4.9 -10.3 -4.55 -10.55 Q-4.3 -9.35 -0.85 -11.9" fill="url(#gradient53)" fill-rule="evenodd" stroke="none"/>
    <path d="M-5.3 -10.0 L-4.65 -10.6 -4.55 -10.55 -4.9 -10.3 -4.9 -10.05 -5.3 -10.0" fill="url(#gradient54)" fill-rule="evenodd" stroke="none"/>
    <path d="M-2.15 -9.55 Q-1.45 -7.35 -3.3 -4.1 -5.8 -1.95 -7.85 -4.4 L-7.85 -4.5 -7.9 -4.55 -8.1 -6.65 -7.9 -8.15 -7.85 -8.2 -7.85 -8.25 -7.8 -8.4 -7.8 -8.45 -7.75 -8.6 -7.75 -8.7 -7.7 -8.75 -7.35 -10.25 -6.0 -11.7 -6.5 -10.6 -5.7 -11.25 -5.7 -10.75 -5.3 -10.0 -4.9 -10.05 Q-4.5 -6.6 -2.15 -9.55" fill="url(#gradient55)" fill-rule="evenodd" stroke="none"/>
    <path d="M-6.0 -11.7 L-5.7 -12.25 -5.6 -11.85 -5.7 -11.25 -6.5 -10.6 -6.0 -11.7" fill="url(#gradient56)" fill-rule="evenodd" stroke="none"/>
    <path d="M-3.3 -4.1 L-3.8 -1.05 Q-3.35 0.5 -3.7 2.85 -4.95 5.2 -7.25 2.75 L-7.65 2.4 -7.85 2.5 -7.9 1.95 -7.8 1.35 -7.15 0.05 Q-7.6 0.15 -7.85 -4.4 -5.8 -1.95 -3.3 -4.1" fill="url(#gradient57)" fill-rule="evenodd" stroke="none"/>
    <path d="M-3.7 2.85 Q-0.75 9.1 -2.65 10.75 L-3.8 10.5 -5.0 10.75 Q-7.45 10.15 -7.9 1.95 L-7.85 2.5 -7.65 2.4 -7.25 2.75 Q-4.95 5.2 -3.7 2.85" fill="url(#gradient58)" fill-rule="evenodd" stroke="none"/>
    <path d="M-2.65 10.75 L-5.0 10.75 -3.8 10.5 -2.65 10.75" fill="url(#gradient59)" fill-rule="evenodd" stroke="none"/>
  </g>
  <defs>
    <radialGradient cx="0" cy="0" gradientTransform="matrix(0.002, 0.0, 0.0, 0.002, 4.8, -50.25)" gradientUnits="userSpaceOnUse" id="gradient0" r="819.2" spreadMethod="pad">
      <stop offset="0.0" stop-color="#948b29"/>
      <stop offset="1.0" stop-color="#7f7824"/>
    </radialGradient>
    <radialGradient cx="0" cy="0" gradientTransform="matrix(0.0072, 0.0, 0.0, 0.0072, 5.25, -49.2)" gradientUnits="userSpaceOnUse" id="gradient1" r="819.2" spreadMethod="pad">
      <stop offset="0.0" stop-color="#fced47"/>
      <stop offset="1.0" stop-color="#8b8327"/>
    </radialGradient>
    <radialGradient cx="0" cy="0" gradientTransform="matrix(0.0089, 0.0, 0.0, 0.0089, 1.75, -48.9)" gradientUnits="userSpaceOnUse" id="gradient2" r="819.2" spreadMethod="pad">
      <stop offset="0.0" stop-color="#fbec46"/>
      <stop offset="1.0" stop-color="#a49a2e"/>
    </radialGradient>
    <radialGradient cx="0" cy="0" gradientTransform="matrix(0.0056, 0.0, 0.0, 0.0056, 4.95, -45.8)" gradientUnits="userSpaceOnUse" id="gradient3" r="819.2" spreadMethod="pad">
      <stop offset="0.0" stop-color="#ffdd81"/>
      <stop offset="1.0" stop-color="#b47f49"/>
    </radialGradient>
    <radialGradient cx="0" cy="0" gradientTransform="matrix(0.0047, 0.0, 0.0, 0.0047, 6.25, -47.4)" gradientUnits="userSpaceOnUse" id="gradient4" r="819.2" spreadMethod="pad">
      <stop offset="0.0" stop-color="#222009"/>
      <stop offset="1.0" stop-color="#222009"/>
    </radialGradient>
    <radialGradient cx="0" cy="0" gradientTransform="matrix(0.0088, 0.0, 0.0, 0.0088, 2.55, -48.25)" gradientUnits="userSpaceOnUse" id="gradient5" r="819.2" spreadMethod="pad">
      <stop offset="0.0" stop-color="#ffc472"/>
      <stop offset="1.0" stop-color="#a47443"/>
    </radialGradient>
    <radialGradient cx="0" cy="0" gradientTransform="matrix(0.0096, 0.0, 0.0, 0.0096, 2.55, -39.0)" gradientUnits="userSpaceOnUse" id="gradient6" r="819.2" spreadMethod="pad">
      <stop offset="0.0" stop-color="#847878"/>
      <stop offset="1.0" stop-color="#756a6a"/>
    </radialGradient>
    <radialGradient cx="0" cy="0" gradientTransform="matrix(0.01, 0.0, 0.0, 0.01, 2.7, -47.45)" gradientUnits="userSpaceOnUse" id="gradient7" r="819.2" spreadMethod="pad">
      <stop offset="0.0" stop-color="#f6e845"/>
      <stop offset="1.0" stop-color="#888026"/>
    </radialGradient>
    <radialGradient cx="0" cy="0" gradientTransform="matrix(0.0066, 0.0, 0.0, 0.0066, 0.85, -46.8)" gradientUnits="userSpaceOnUse" id="gradient8" r="819.2" spreadMethod="pad">
      <stop offset="0.0" stop-color="#f0e243"/>
      <stop offset="1.0" stop-color="#9e952c"/>
    </radialGradient>
    <radialGradient cx="0" cy="0" gradientTransform="matrix(0.0158, 0.0, 0.0, 0.0158, 0.85, -33.2)" gradientUnits="userSpaceOnUse" id="gradient9" r="819.2" spreadMethod="pad">
      <stop offset="0.0" stop-color="#ffffff"/>
      <stop offset="1.0" stop-color="#9c9c9c"/>
    </radialGradient>
    <radialGradient cx="0" cy="0" gradientTransform="matrix(0.0114, 0.0, 0.0, 0.0114, -5.65, -37.15)" gradientUnits="userSpaceOnUse" id="gradient10" r="819.2" spreadMethod="pad">
      <stop offset="0.0" stop-color="#8e8181"/>
      <stop offset="1.0" stop-color="#665d5d"/>
    </radialGradient>
    <radialGradient cx="0" cy="0" gradientTransform="matrix(0.0208, 0.0, 0.0, 0.0208, 4.2, -38.95)" gradientUnits="userSpaceOnUse" id="gradient11" r="819.2" spreadMethod="pad">
      <stop offset="0.0" stop-color="#928585"/>
      <stop offset="1.0" stop-color="#625a5a"/>
    </radialGradient>
    <radialGradient cx="0" cy="0" gradientTransform="matrix(0.0052, 0.0, 0.0, 0.0052, 5.75, -37.3)" gradientUnits="userSpaceOnUse" id="gradient12" r="819.2" spreadMethod="pad">
      <stop offset="0.0" stop-color="#3f6284"/>
      <stop offset="1.0" stop-color="#2e4861"/>
    </radialGradient>
    <radialGradient cx="0" cy="0" gradientTransform="matrix(0.0073, 0.0, 0.0, 0.0073, 2.4, -36.0)" gradientUnits="userSpaceOnUse" id="gradient13" r="819.2" spreadMethod="pad">
      <stop offset="0.0" stop-color="#3b5c7c"/>
      <stop offset="1.0" stop-color="#283f55"/>
    </radialGradient>
    <radialGradient cx="0" cy="0" gradientTransform="matrix(0.0106, 0.0, 0.0, 0.0106, 0.25, -26.2)" gradientUnits="userSpaceOnUse" id="gradient14" r="819.2" spreadMethod="pad">
      <stop offset="0.0" stop-color="#395978"/>
      <stop offset="1.0" stop-color="#213447"/>
    </radialGradient>
    <radialGradient cx="0" cy="0" gradientTransform="matrix(0.0144, 0.0, 0.0, 0.0144, -4.3, -30.65)" gradientUnits="userSpaceOnUse" id="gradient15" r="819.2" spreadMethod="pad">
      <stop offset="0.0" stop-color="#1e2f3f"/>
      <stop offset="1.0" stop-color="#080c10"/>
    </radialGradient>
    <radialGradient cx="0" cy="0" gradientTransform="matrix(0.0022, 0.0, 0.0, 0.0022, 6.7, -30.75)" gradientUnits="userSpaceOnUse" id="gradient16" r="819.2" spreadMethod="pad">
      <stop offset="0.0" stop-color="#ffcf79"/>
      <stop offset="1.0" stop-color="#a97845"/>
    </radialGradient>
    <radialGradient cx="0" cy="0" gradientTransform="matrix(0.0047, 0.0, 0.0, 0.0047, 6.35, -28.4)" gradientUnits="userSpaceOnUse" id="gradient17" r="819.2" spreadMethod="pad">
      <stop offset="0.0" stop-color="#af7b48"/>
      <stop offset="1.0" stop-color="#a47443"/>
    </radialGradient>
    <radialGradient cx="0" cy="0" gradientTransform="matrix(0.005, 0.0, 0.0, 0.005, 0.3, -33.4)" gradientUnits="userSpaceOnUse" id="gradient18" r="819.2" spreadMethod="pad">
      <stop offset="0.0" stop-color="#8f8282"/>
      <stop offset="1.0" stop-color="#574f4f"/>
    </radialGradient>
    <radialGradient cx="0" cy="0" gradientTransform="matrix(0.0022, 0.0, 0.0, 0.0022, 3.1, -29.05)" gradientUnits="userSpaceOnUse" id="gradient19" r="819.2" spreadMethod="pad">
      <stop offset="0.0" stop-color="#606060"/>
      <stop offset="1.0" stop-color="#444444"/>
    </radialGradient>
    <radialGradient cx="0" cy="0" gradientTransform="matrix(0.0171, 0.0, 0.0, 0.0171, 5.95, -29.5)" gradientUnits="userSpaceOnUse" id="gradient20" r="819.2" spreadMethod="pad">
      <stop offset="0.0" stop-color="#867a7a"/>
      <stop offset="1.0" stop-color="#474040"/>
    </radialGradient>
    <radialGradient cx="0" cy="0" gradientTransform="matrix(0.0191, 0.0, 0.0, 0.0191, -1.8, -24.65)" gradientUnits="userSpaceOnUse" id="gradient21" r="819.2" spreadMethod="pad">
      <stop offset="0.0" stop-color="#988a8a"/>
      <stop offset="1.0" stop-color="#514a4a"/>
    </radialGradient>
    <radialGradient cx="0" cy="0" gradientTransform="matrix(0.0288, 0.0, 0.0, 0.0288, -6.15, -44.0)" gradientUnits="userSpaceOnUse" id="gradient22" r="819.2" spreadMethod="pad">
      <stop offset="0.0" stop-color="#7f7f7f"/>
      <stop offset="1.0" stop-color="#202020"/>
    </radialGradient>
    <radialGradient cx="0" cy="0" gradientTransform="matrix(0.0026, 0.0, 0.0, 0.0026, 1.55, -18.25)" gradientUnits="userSpaceOnUse" id="gradient23" r="819.2" spreadMethod="pad">
      <stop offset="0.0" stop-color="#443e3e"/>
      <stop offset="1.0" stop-color="#221e1e"/>
    </radialGradient>
    <radialGradient cx="0" cy="0" gradientTransform="matrix(0.0076, 0.0, 0.0, 0.0076, 3.6, -16.25)" gradientUnits="userSpaceOnUse" id="gradient24" r="819.2" spreadMethod="pad">
      <stop offset="0.0" stop-color="#ffe384"/>
      <stop offset="1.0" stop-color="#7b5732"/>
    </radialGradient>
    <radialGradient cx="0" cy="0" gradientTransform="matrix(0.0041, 0.0, 0.0, 0.0041, 4.1, -16.9)" gradientUnits="userSpaceOnUse" id="gradient25" r="819.2" spreadMethod="pad">
      <stop offset="0.0" stop-color="#e7a35f"/>
      <stop offset="1.0" stop-color="#a07141"/>
    </radialGradient>
    <radialGradient cx="0" cy="0" gradientTransform="matrix(0.0016, 0.0, 0.0, 0.0016, 2.85, -16.0)" gradientUnits="userSpaceOnUse" id="gradient26" r="819.2" spreadMethod="pad">
      <stop offset="0.0" stop-color="#443e3e"/>
      <stop offset="1.0" stop-color="#403a3a"/>
    </radialGradient>
    <radialGradient cx="0" cy="0" gradientTransform="matrix(0.0018, 0.0, 0.0, 0.0018, 5.25, -14.9)" gradientUnits="userSpaceOnUse" id="gradient27" r="819.2" spreadMethod="pad">
      <stop offset="0.0" stop-color="#795532"/>
      <stop offset="1.0" stop-color="#614528"/>
    </radialGradient>
    <radialGradient cx="0" cy="0" gradientTransform="matrix(0.0087, 0.0, 0.0, 0.0087, 3.6, -5.1)" gradientUnits="userSpaceOnUse" id="gradient28" r="819.2" spreadMethod="pad">
      <stop offset="0.0" stop-color="#bd864e"/>
      <stop offset="1.0" stop-color="#976b3e"/>
    </radialGradient>
    <radialGradient cx="0" cy="0" gradientTransform="matrix(0.0066, 0.0, 0.0, 0.0066, 1.05, -12.4)" gradientUnits="userSpaceOnUse" id="gradient29" r="819.2" spreadMethod="pad">
      <stop offset="0.0" stop-color="#8b6239"/>
      <stop offset="1.0" stop-color="#261b10"/>
    </radialGradient>
    <radialGradient cx="0" cy="0" gradientTransform="matrix(0.0055, 0.0, 0.0, 0.0055, 1.55, -10.45)" gradientUnits="userSpaceOnUse" id="gradient30" r="819.2" spreadMethod="pad">
      <stop offset="0.0" stop-color="#261b10"/>
      <stop offset="1.0" stop-color="#261b10"/>
    </radialGradient>
    <radialGradient cx="0" cy="0" gradientTransform="matrix(0.0095, 0.0, 0.0, 0.0095, 4.65, -5.15)" gradientUnits="userSpaceOnUse" id="gradient31" r="819.2" spreadMethod="pad">
      <stop offset="0.0" stop-color="#ffff95"/>
      <stop offset="1.0" stop-color="#fec170"/>
    </radialGradient>
    <radialGradient cx="0" cy="0" gradientTransform="matrix(0.0065, 0.0, 0.0, 0.0065, -4.3, -52.95)" gradientUnits="userSpaceOnUse" id="gradient32" r="819.2" spreadMethod="pad">
      <stop offset="0.0" stop-color="#817a24"/>
      <stop offset="1.0" stop-color="#413d12"/>
    </radialGradient>
    <radialGradient cx="0" cy="0" gradientTransform="matrix(0.0069, 0.0, 0.0, 0.0069, -3.8, -50.65)" gradientUnits="userSpaceOnUse" id="gradient33" r="819.2" spreadMethod="pad">
      <stop offset="0.0" stop-color="#c8bc38"/>
      <stop offset="1.0" stop-color="#8b8226"/>
    </radialGradient>
    <radialGradient cx="0" cy="0" gradientTransform="matrix(0.004, 0.0, 0.0, 0.004, -4.5, -45.7)" gradientUnits="userSpaceOnUse" id="gradient34" r="819.2" spreadMethod="pad">
      <stop offset="0.0" stop-color="#fff148"/>
      <stop offset="1.0" stop-color="#a99f2f"/>
    </radialGradient>
    <radialGradient cx="0" cy="0" gradientTransform="matrix(0.0013, 0.0, 0.0, 0.0013, -3.65, -45.2)" gradientUnits="userSpaceOnUse" id="gradient35" r="819.2" spreadMethod="pad">
      <stop offset="0.0" stop-color="#938b29"/>
      <stop offset="1.0" stop-color="#5c571a"/>
    </radialGradient>
    <radialGradient cx="0" cy="0" gradientTransform="matrix(0.0053, 0.0, 0.0, 0.0053, -5.15, -48.25)" gradientUnits="userSpaceOnUse" id="gradient36" r="819.2" spreadMethod="pad">
      <stop offset="0.0" stop-color="#c9bd38"/>
      <stop offset="1.0" stop-color="#787121"/>
    </radialGradient>
    <radialGradient cx="0" cy="0" gradientTransform="matrix(0.0061, 0.0, 0.0, 0.0061, -1.05, -41.0)" gradientUnits="userSpaceOnUse" id="gradient37" r="819.2" spreadMethod="pad">
      <stop offset="0.0" stop-color="#706666"/>
      <stop offset="1.0" stop-color="#5d5555"/>
    </radialGradient>
    <radialGradient cx="0" cy="0" gradientTransform="matrix(0.0031, 0.0, 0.0, 0.0031, -1.5, -45.65)" gradientUnits="userSpaceOnUse" id="gradient38" r="819.2" spreadMethod="pad">
      <stop offset="0.0" stop-color="#e29f5d"/>
      <stop offset="1.0" stop-color="#db9b5a"/>
    </radialGradient>
    <radialGradient cx="0" cy="0" gradientTransform="matrix(0.0022, 0.0, 0.0, 0.0022, -6.85, -43.45)" gradientUnits="userSpaceOnUse" id="gradient39" r="819.2" spreadMethod="pad">
      <stop offset="0.0" stop-color="#d3c63b"/>
      <stop offset="1.0" stop-color="#aca130"/>
    </radialGradient>
    <radialGradient cx="0" cy="0" gradientTransform="matrix(0.0096, 0.0, 0.0, 0.0096, -7.55, -39.7)" gradientUnits="userSpaceOnUse" id="gradient40" r="819.2" spreadMethod="pad">
      <stop offset="0.0" stop-color="#837777"/>
      <stop offset="1.0" stop-color="#5d5555"/>
    </radialGradient>
    <radialGradient cx="0" cy="0" gradientTransform="matrix(0.0152, 0.0, 0.0, 0.0152, -8.0, -37.5)" gradientUnits="userSpaceOnUse" id="gradient41" r="819.2" spreadMethod="pad">
      <stop offset="0.0" stop-color="#ffd079"/>
      <stop offset="1.0" stop-color="#bc854d"/>
    </radialGradient>
    <radialGradient cx="0" cy="0" gradientTransform="matrix(0.0115, 0.0, 0.0, 0.0115, -11.25, -31.85)" gradientUnits="userSpaceOnUse" id="gradient42" r="819.2" spreadMethod="pad">
      <stop offset="0.0" stop-color="#bd854d"/>
      <stop offset="1.0" stop-color="#2a1d11"/>
    </radialGradient>
    <radialGradient cx="0" cy="0" gradientTransform="matrix(0.0118, 0.0, 0.0, 0.0118, -9.25, -26.75)" gradientUnits="userSpaceOnUse" id="gradient43" r="819.2" spreadMethod="pad">
      <stop offset="0.0" stop-color="#ffdd80"/>
      <stop offset="1.0" stop-color="#ad7a47"/>
    </radialGradient>
    <radialGradient cx="0" cy="0" gradientTransform="matrix(0.002, 0.0, 0.0, 0.002, -4.75, -33.4)" gradientUnits="userSpaceOnUse" id="gradient44" r="819.2" spreadMethod="pad">
      <stop offset="0.0" stop-color="#d5d5d5"/>
      <stop offset="1.0" stop-color="#939393"/>
    </radialGradient>
    <radialGradient cx="0" cy="0" gradientTransform="matrix(0.0021, 0.0, 0.0, 0.0021, -4.75, -31.55)" gradientUnits="userSpaceOnUse" id="gradient45" r="819.2" spreadMethod="pad">
      <stop offset="0.0" stop-color="#d6c93c"/>
      <stop offset="1.0" stop-color="#746d20"/>
    </radialGradient>
    <radialGradient cx="0" cy="0" gradientTransform="matrix(0.0027, 0.0, 0.0, 0.0027, -5.2, -32.35)" gradientUnits="userSpaceOnUse" id="gradient46" r="819.2" spreadMethod="pad">
      <stop offset="0.0" stop-color="#f3e444"/>
      <stop offset="1.0" stop-color="#7e7723"/>
    </radialGradient>
    <radialGradient cx="0" cy="0" gradientTransform="matrix(0.0051, 0.0, 0.0, 0.0051, -4.65, -30.6)" gradientUnits="userSpaceOnUse" id="gradient47" r="819.2" spreadMethod="pad">
      <stop offset="0.0" stop-color="#f9ea46"/>
      <stop offset="1.0" stop-color="#aea430"/>
    </radialGradient>
    <radialGradient cx="0" cy="0" gradientTransform="matrix(0.0014, 0.0, 0.0, 0.0014, -6.75, -27.15)" gradientUnits="userSpaceOnUse" id="gradient48" r="819.2" spreadMethod="pad">
      <stop offset="0.0" stop-color="#222009"/>
      <stop offset="1.0" stop-color="#222009"/>
    </radialGradient>
    <radialGradient cx="0" cy="0" gradientTransform="matrix(0.0022, 0.0, 0.0, 0.0022, -6.9, -26.8)" gradientUnits="userSpaceOnUse" id="gradient49" r="819.2" spreadMethod="pad">
      <stop offset="0.0" stop-color="#121010"/>
      <stop offset="1.0" stop-color="#121010"/>
    </radialGradient>
    <radialGradient cx="0" cy="0" gradientTransform="matrix(0.007, 0.0, 0.0, 0.007, -1.45, -26.2)" gradientUnits="userSpaceOnUse" id="gradient50" r="819.2" spreadMethod="pad">
      <stop offset="0.0" stop-color="#908383"/>
      <stop offset="1.0" stop-color="#5d5454"/>
    </radialGradient>
    <radialGradient cx="0" cy="0" gradientTransform="matrix(0.0037, 0.0, 0.0, 0.0037, -9.05, -18.15)" gradientUnits="userSpaceOnUse" id="gradient51" r="819.2" spreadMethod="pad">
      <stop offset="0.0" stop-color="#ffe987"/>
      <stop offset="1.0" stop-color="#92673c"/>
    </radialGradient>
    <radialGradient cx="0" cy="0" gradientTransform="matrix(0.0039, 0.0, 0.0, 0.0039, -11.4, -18.5)" gradientUnits="userSpaceOnUse" id="gradient52" r="819.2" spreadMethod="pad">
      <stop offset="0.0" stop-color="#ffe987"/>
      <stop offset="1.0" stop-color="#a67544"/>
    </radialGradient>
    <radialGradient cx="0" cy="0" gradientTransform="matrix(0.0066, 0.0, 0.0, 0.0066, -2.65, -12.5)" gradientUnits="userSpaceOnUse" id="gradient53" r="819.2" spreadMethod="pad">
      <stop offset="0.0" stop-color="#f9af66"/>
      <stop offset="1.0" stop-color="#90663b"/>
    </radialGradient>
    <radialGradient cx="0" cy="0" gradientTransform="matrix(0.0031, 0.0, 0.0, 0.0031, -5.8, -9.6)" gradientUnits="userSpaceOnUse" id="gradient54" r="819.2" spreadMethod="pad">
      <stop offset="0.0" stop-color="#201d1d"/>
      <stop offset="1.0" stop-color="#121010"/>
    </radialGradient>
    <radialGradient cx="0" cy="0" gradientTransform="matrix(0.0103, 0.0, 0.0, 0.0103, -4.85, -11.2)" gradientUnits="userSpaceOnUse" id="gradient55" r="819.2" spreadMethod="pad">
      <stop offset="0.0" stop-color="#ffef8b"/>
      <stop offset="1.0" stop-color="#8e643a"/>
    </radialGradient>
    <radialGradient cx="0" cy="0" gradientTransform="matrix(0.0032, 0.0, 0.0, 0.0032, -6.0, -10.0)" gradientUnits="userSpaceOnUse" id="gradient56" r="819.2" spreadMethod="pad">
      <stop offset="0.0" stop-color="#5c5454"/>
      <stop offset="1.0" stop-color="#5b5353"/>
    </radialGradient>
    <radialGradient cx="0" cy="0" gradientTransform="matrix(0.0109, 0.0, 0.0, 0.0109, -6.3, 4.0)" gradientUnits="userSpaceOnUse" id="gradient57" r="819.2" spreadMethod="pad">
      <stop offset="0.0" stop-color="#e7a35f"/>
      <stop offset="1.0" stop-color="#976b3e"/>
    </radialGradient>
    <radialGradient cx="0" cy="0" gradientTransform="matrix(0.0109, 0.0, 0.0, 0.0109, -4.35, 8.8)" gradientUnits="userSpaceOnUse" id="gradient58" r="819.2" spreadMethod="pad">
      <stop offset="0.0" stop-color="#ffff96"/>
      <stop offset="1.0" stop-color="#cdb469"/>
    </radialGradient>
    <radialGradient cx="0" cy="0" gradientTransform="matrix(0.0031, 0.0, 0.0, 0.0031, -5.2, 10.65)" gradientUnits="userSpaceOnUse" id="gradient59" r="819.2" spreadMethod="pad">
      <stop offset="0.0" stop-color="#ca8e53"/>
      <stop offset="1.0" stop-color="#c88d52"/>
    </radialGradient>
  </defs>
</svg>
