<?xml version="1.0" encoding="UTF-8" standalone="no"?>
<svg xmlns:ffdec="https://www.free-decompiler.com/flash" xmlns:xlink="http://www.w3.org/1999/xlink" ffdec:objectType="shape" height="65.7px" width="25.4px" xmlns="http://www.w3.org/2000/svg">
  <g transform="matrix(1.0, 0.0, 0.0, 1.0, 10.85, 55.0)">
    <path d="M3.15 -45.75 L3.55 -46.8 Q4.35 -47.35 4.95 -48.75 L4.7 -48.95 4.8 -50.35 4.5 -50.45 4.5 -50.65 5.0 -50.6 5.2 -50.8 4.85 -51.6 5.05 -52.05 4.4 -52.8 4.05 -52.95 4.1 -53.1 4.65 -52.95 4.8 -53.1 Q7.75 -50.65 6.65 -49.0 L6.2 -47.9 4.05 -45.2 3.15 -45.75" fill="url(#gradient0)" fill-rule="evenodd" stroke="none"/>
    <path d="M4.8 -53.1 L4.65 -52.95 4.1 -53.1 4.05 -52.95 4.4 -52.8 5.05 -52.05 4.85 -51.6 5.2 -50.8 5.0 -50.6 4.5 -50.65 4.5 -50.45 4.8 -50.35 4.7 -48.95 4.95 -48.75 Q4.35 -47.35 3.55 -46.8 L3.15 -45.75 Q-0.05 -48.05 -0.6 -47.2 -2.95 -50.45 -4.1 -46.3 L-4.7 -46.5 -5.25 -47.0 Q-3.7 -49.75 -5.55 -51.05 -1.6 -57.7 4.8 -53.1" fill="url(#gradient1)" fill-rule="evenodd" stroke="none"/>
    <path d="M4.05 -45.2 L6.2 -47.9 6.65 -49.0 7.0 -48.05 6.95 -47.1 Q7.15 -45.15 4.7 -44.8 L4.5 -44.8 4.8 -45.0 4.05 -45.2" fill="url(#gradient2)" fill-rule="evenodd" stroke="none"/>
    <path d="M6.95 -47.1 Q7.15 -47.3 7.75 -45.25 L7.7 -44.2 7.4 -43.6 6.6 -44.05 5.4 -44.45 5.3 -44.5 4.1 -44.4 4.1 -44.45 4.7 -44.8 Q7.15 -45.15 6.95 -47.1" fill="url(#gradient3)" fill-rule="evenodd" stroke="none"/>
    <path d="M8.05 -43.1 L9.0 -41.85 8.95 -41.4 8.75 -41.7 8.5 -41.6 8.25 -41.7 7.3 -41.1 6.6 -40.3 Q2.8 -35.5 4.6 -33.65 L5.95 -32.95 6.35 -32.7 6.8 -32.8 6.8 -32.75 5.45 -31.25 5.2 -31.05 4.8 -30.6 4.15 -30.15 Q-1.25 -26.05 -3.65 -30.15 L-3.95 -30.7 -3.85 -31.05 Q-4.25 -31.75 -4.1 -33.05 -4.15 -33.75 -3.45 -34.45 L-1.7 -35.95 -1.7 -36.0 -0.3 -36.9 -0.05 -37.3 2.1 -40.3 3.0 -41.9 4.1 -43.65 4.1 -44.4 5.3 -44.5 5.4 -44.45 6.6 -44.05 7.4 -43.6 8.05 -43.1 M-6.65 -31.85 Q-10.0 -34.25 -9.35 -36.25 -9.25 -37.7 -6.35 -42.0 L-6.15 -42.5 -6.1 -42.55 -6.1 -42.6 -6.05 -42.7 -5.85 -43.25 -4.9 -44.85 Q-4.75 -43.4 -4.15 -42.75 L-3.25 -42.05 -4.05 -41.1 -4.55 -40.25 -4.8 -39.95 -5.05 -38.25 Q-6.15 -35.7 -4.25 -32.35 L-4.3 -31.15 -5.6 -31.0 -6.25 -31.5 -6.5 -31.75 -6.65 -31.85 M4.8 -30.05 L4.9 -30.0 5.65 -29.35 5.7 -29.15 5.9 -28.8 5.8 -28.25 5.0 -27.25 2.85 -25.25 Q2.3 -25.3 -0.05 -23.9 L-0.5 -22.95 -0.95 -22.15 -1.0 -22.05 -0.95 -21.9 Q-4.1 -22.15 -4.5 -25.05 L-4.55 -25.2 -4.55 -25.25 -4.65 -25.5 -4.95 -26.75 -3.9 -27.1 Q-3.1 -23.75 0.1 -25.2 L2.7 -26.55 Q4.75 -28.4 4.8 -30.05" fill="url(#gradient4)" fill-rule="evenodd" stroke="none"/>
    <path d="M7.7 -44.2 L7.95 -43.75 8.05 -43.1 7.4 -43.6 7.7 -44.2" fill="url(#gradient5)" fill-rule="evenodd" stroke="none"/>
    <path d="M3.15 -45.75 L4.05 -45.2 4.8 -45.0 4.5 -44.8 4.1 -44.6 3.85 -44.45 2.35 -44.3 0.2 -44.5 -0.95 -44.9 -0.6 -46.3 -0.6 -47.2 Q-0.05 -48.05 3.15 -45.75" fill="url(#gradient6)" fill-rule="evenodd" stroke="none"/>
    <path d="M-5.25 -47.0 L-4.7 -46.5 -4.1 -46.3 -3.25 -43.0 -2.3 -41.1 -2.35 -41.05 -2.4 -41.1 -2.9 -41.4 -3.25 -42.05 -4.15 -42.75 Q-4.75 -43.4 -4.9 -44.85 L-4.85 -45.2 -5.05 -45.9 -5.1 -45.95 -5.1 -46.0 -5.2 -46.2 -5.2 -46.25 -5.35 -47.0 -5.25 -47.0 M-0.95 -44.9 L0.2 -44.5 2.35 -44.3 Q3.05 -43.35 -0.25 -41.6 L-0.7 -41.4 -1.4 -41.1 -1.55 -41.05 -1.55 -41.1 -1.4 -42.95 -0.95 -44.9" fill="url(#gradient7)" fill-rule="evenodd" stroke="none"/>
    <path d="M4.1 -44.6 L4.5 -44.8 4.7 -44.8 4.1 -44.45 4.1 -44.6" fill="url(#gradient8)" fill-rule="evenodd" stroke="none"/>
    <path d="M2.35 -44.3 L3.85 -44.45 4.1 -44.6 4.1 -44.45 4.1 -44.4 4.1 -43.65 3.0 -41.9 Q1.9 -41.3 0.2 -41.35 L-0.1 -41.45 -0.25 -41.6 Q3.05 -43.35 2.35 -44.3" fill="url(#gradient9)" fill-rule="evenodd" stroke="none"/>
    <path d="M3.0 -41.9 L2.1 -40.3 -0.05 -37.3 Q-2.35 -35.45 -2.6 -36.0 -2.3 -39.4 -0.8 -41.2 L-0.7 -41.4 -0.25 -41.6 -0.1 -41.45 -0.25 -41.35 -1.7 -39.25 0.2 -41.35 Q1.9 -41.3 3.0 -41.9 M4.6 -33.65 Q2.8 -35.5 6.6 -40.3 L7.0 -39.7 6.4 -38.85 5.8 -35.45 5.75 -35.4 4.6 -33.65" fill="url(#gradient10)" fill-rule="evenodd" stroke="none"/>
    <path d="M8.95 -41.4 L9.2 -40.5 8.65 -40.5 7.0 -39.7 6.6 -40.3 7.3 -41.1 8.25 -41.7 8.5 -41.6 8.75 -41.7 8.95 -41.4 M5.95 -32.95 L4.6 -33.65 5.75 -35.4 5.8 -35.4 6.1 -33.95 6.55 -33.15 5.95 -32.95" fill="url(#gradient11)" fill-rule="evenodd" stroke="none"/>
    <path d="M9.2 -40.5 L10.1 -40.3 11.25 -39.05 11.75 -36.85 11.4 -34.2 Q12.25 -30.65 12.1 -27.25 10.75 -25.3 8.2 -27.8 L7.95 -28.55 7.6 -30.15 7.4 -31.85 6.9 -32.6 6.8 -32.75 6.8 -32.8 6.55 -33.15 6.1 -33.95 5.8 -35.4 5.8 -35.45 6.4 -38.85 7.0 -39.7 8.65 -40.5 9.2 -40.5" fill="url(#gradient12)" fill-rule="evenodd" stroke="none"/>
    <path d="M5.8 -35.45 L5.8 -35.4 5.75 -35.4 5.8 -35.45" fill="url(#gradient13)" fill-rule="evenodd" stroke="none"/>
    <path d="M5.45 -31.25 L6.8 -32.75 6.9 -32.6 6.75 -31.8 6.25 -31.2 5.6 -30.75 5.45 -31.25" fill="url(#gradient14)" fill-rule="evenodd" stroke="none"/>
    <path d="M6.8 -32.8 L6.35 -32.7 5.95 -32.95 6.55 -33.15 6.8 -32.8" fill="url(#gradient15)" fill-rule="evenodd" stroke="none"/>
    <path d="M5.2 -31.05 L5.45 -31.25 5.6 -30.75 5.5 -30.45 5.05 -30.15 4.9 -30.0 4.8 -30.05 4.8 -30.15 5.1 -30.85 5.2 -31.05" fill="url(#gradient16)" fill-rule="evenodd" stroke="none"/>
    <path d="M-3.95 -30.7 L-3.65 -30.15 Q-1.25 -26.05 4.15 -30.15 L4.8 -30.6 4.9 -30.7 5.1 -30.85 4.8 -30.15 4.8 -30.05 Q4.75 -28.4 2.7 -26.55 L0.1 -25.2 Q-3.1 -23.75 -3.9 -27.1 L-4.95 -26.75 Q-6.15 -28.15 -5.75 -30.15 L-5.75 -30.3 -5.85 -30.55 -6.15 -31.0 -6.4 -31.45 -6.25 -31.5 -5.6 -31.0 -4.3 -31.15 -3.95 -30.7" fill="url(#gradient17)" fill-rule="evenodd" stroke="none"/>
    <path d="M4.8 -30.6 L5.2 -31.05 5.1 -30.85 4.9 -30.7 4.8 -30.6 M-6.5 -31.55 L-6.5 -31.75 -6.25 -31.5 -6.4 -31.45 -6.5 -31.55" fill="url(#gradient18)" fill-rule="evenodd" stroke="none"/>
    <path d="M7.6 -30.15 L7.95 -28.55 7.85 -27.85 7.35 -27.15 6.8 -28.45 5.7 -29.15 5.65 -29.35 4.9 -30.0 5.05 -30.15 5.5 -30.45 5.6 -30.75 6.25 -31.2 7.1 -30.7 7.6 -30.15" fill="url(#gradient19)" fill-rule="evenodd" stroke="none"/>
    <path d="M7.7 -24.9 L7.35 -24.1 Q5.3 -25.3 2.85 -25.25 L5.0 -27.25 5.8 -28.25 5.9 -28.8 5.7 -29.15 6.8 -28.45 7.35 -27.15 7.6 -26.5 7.7 -25.25 7.7 -24.9" fill="url(#gradient20)" fill-rule="evenodd" stroke="none"/>
    <path d="M12.1 -27.25 L12.65 -24.9 Q12.4 -21.25 12.15 -20.85 L12.1 -19.5 11.85 -19.2 10.95 -18.35 Q9.8 -17.75 9.7 -17.95 L9.25 -18.2 9.0 -18.8 8.75 -21.3 Q8.3 -21.3 7.7 -24.9 L7.7 -25.25 7.9 -27.15 8.2 -27.8 Q10.75 -25.3 12.1 -27.25" fill="url(#gradient21)" fill-rule="evenodd" stroke="none"/>
    <path d="M12.15 -20.85 Q14.95 -19.9 14.5 -17.5 13.3 -14.65 10.9 -15.4 L10.05 -15.95 Q9.65 -16.85 9.7 -17.95 9.8 -17.75 10.95 -18.35 L11.85 -19.2 12.1 -19.5 12.15 -20.85" fill="url(#gradient22)" fill-rule="evenodd" stroke="none"/>
    <path d="M10.9 -15.4 Q7.55 -16.3 9.0 -18.8 L9.25 -18.2 9.7 -17.95 Q9.65 -16.85 10.05 -15.95 L10.9 -15.4" fill="url(#gradient23)" fill-rule="evenodd" stroke="none"/>
    <path d="M6.35 -12.25 L6.35 -12.2 6.3 -12.2 6.35 -12.25" fill="url(#gradient24)" fill-rule="evenodd" stroke="none"/>
    <path d="M6.35 -12.2 L6.55 -11.8 7.0 -10.95 6.95 -10.85 6.45 -11.25 6.3 -12.2 6.35 -12.2" fill="url(#gradient25)" fill-rule="evenodd" stroke="none"/>
    <path d="M6.55 -11.8 Q8.9 -11.3 8.5 -4.55 6.7 -1.85 3.95 -4.2 L3.9 -4.25 Q2.15 -7.3 2.8 -9.6 3.5 -9.2 3.85 -8.4 L4.4 -8.25 4.55 -8.25 Q5.75 -8.8 5.6 -10.1 L5.85 -10.05 6.0 -10.0 6.35 -10.7 6.45 -11.25 6.95 -10.85 7.0 -10.95 6.55 -11.8" fill="url(#gradient26)" fill-rule="evenodd" stroke="none"/>
    <path d="M2.8 -9.6 L2.05 -10.6 Q1.7 -11.25 1.5 -11.95 1.75 -11.15 4.25 -10.3 L5.3 -10.6 5.55 -10.35 5.6 -10.1 Q5.75 -8.8 4.55 -8.25 L4.4 -8.25 3.85 -8.4 Q3.5 -9.2 2.8 -9.6" fill="url(#gradient27)" fill-rule="evenodd" stroke="none"/>
    <path d="M7.35 -24.1 Q8.75 -13.85 6.35 -12.25 L6.3 -12.2 6.45 -11.25 6.35 -10.7 6.0 -10.0 5.85 -10.05 5.55 -10.35 5.3 -10.6 4.25 -10.3 Q1.75 -11.15 1.5 -11.95 L1.45 -12.0 Q0.2 -13.65 -0.65 -19.1 L-0.65 -19.15 -0.6 -22.0 -0.5 -22.3 -0.5 -22.95 -0.05 -23.9 Q2.3 -25.3 2.85 -25.25 5.3 -25.3 7.35 -24.1" fill="url(#gradient28)" fill-rule="evenodd" stroke="none"/>
    <path d="M5.85 -10.05 L5.6 -10.1 5.55 -10.35 5.85 -10.05" fill="url(#gradient29)" fill-rule="evenodd" stroke="none"/>
    <path d="M3.9 -4.2 L3.9 -4.25 3.95 -4.2 3.9 -4.2" fill="url(#gradient30)" fill-rule="evenodd" stroke="none"/>
    <path d="M8.5 -4.55 Q8.3 -0.2 7.85 0.2 L8.25 0.9 8.4 1.3 8.5 1.85 8.5 2.5 8.4 2.4 8.05 2.7 Q5.75 5.1 4.3 2.9 4.0 0.4 4.5 -0.95 L3.9 -4.2 3.95 -4.2 Q6.7 -1.85 8.5 -4.55" fill="url(#gradient31)" fill-rule="evenodd" stroke="none"/>
    <path d="M8.5 2.5 Q7.85 10.85 5.6 10.7 L4.6 10.45 3.35 10.7 Q1.45 8.8 4.3 2.9 5.75 5.1 8.05 2.7 L8.4 2.4 8.5 2.5" fill="url(#gradient32)" fill-rule="evenodd" stroke="none"/>
    <path d="M5.6 10.7 L3.35 10.7 4.6 10.45 5.6 10.7" fill="url(#gradient33)" fill-rule="evenodd" stroke="none"/>
    <path d="M-4.1 -46.3 Q-2.95 -50.45 -0.6 -47.2 L-0.6 -46.3 -0.95 -44.9 -1.4 -42.95 -1.55 -41.1 -1.55 -41.05 -1.6 -40.1 -2.35 -41.05 -2.3 -41.1 -3.25 -43.0 -4.1 -46.3" fill="url(#gradient34)" fill-rule="evenodd" stroke="none"/>
    <path d="M0.2 -41.35 L-1.7 -39.25 -0.25 -41.35 -0.1 -41.45 0.2 -41.35 M-0.7 -41.4 L-0.8 -41.2 Q-2.3 -39.4 -2.6 -36.0 -4.6 -37.0 -4.55 -40.25 L-4.05 -41.1 -3.25 -42.05 -2.9 -41.4 -2.4 -41.1 -2.35 -41.05 -1.6 -40.1 -1.55 -41.05 -1.4 -41.1 -0.7 -41.4 M-4.85 -45.2 L-4.9 -44.85 -5.85 -43.25 -5.5 -44.6 -5.35 -44.6 -4.85 -45.2" fill="url(#gradient35)" fill-rule="evenodd" stroke="none"/>
    <path d="M-6.35 -42.0 L-6.85 -44.55 -6.5 -46.6 -6.3 -46.95 -5.45 -47.0 -5.2 -46.25 -5.2 -46.2 -5.1 -46.0 -5.1 -45.95 -5.05 -45.9 -4.85 -45.2 -5.35 -44.6 -5.5 -44.6 -5.85 -43.25 -6.05 -42.7 -6.1 -42.6 -6.1 -42.55 -6.15 -42.5 -6.35 -42.0" fill="url(#gradient36)" fill-rule="evenodd" stroke="none"/>
    <path d="M-5.55 -51.05 Q-3.7 -49.75 -5.25 -47.0 L-5.35 -47.0 -5.45 -47.0 -6.3 -46.95 -7.0 -46.7 -7.15 -46.35 -7.05 -45.2 -8.0 -46.1 -8.45 -47.35 -8.45 -47.75 Q-8.5 -50.1 -5.55 -51.05" fill="url(#gradient37)" fill-rule="evenodd" stroke="none"/>
    <path d="M-5.2 -46.25 L-5.45 -47.0 -5.35 -47.0 -5.2 -46.25" fill="url(#gradient38)" fill-rule="evenodd" stroke="none"/>
    <path d="M-0.05 -37.3 L-0.3 -36.9 -1.7 -36.0 -1.8 -36.0 -3.25 -35.05 -4.25 -34.1 -4.9 -35.75 -5.05 -38.25 -4.8 -39.95 -4.55 -40.25 Q-4.6 -37.0 -2.6 -36.0 -2.35 -35.45 -0.05 -37.3 M-0.95 -22.15 L-0.5 -22.95 -0.5 -22.3 -0.95 -22.15" fill="url(#gradient39)" fill-rule="evenodd" stroke="none"/>
    <path d="M-1.7 -36.0 L-1.7 -35.95 -1.8 -36.0 -1.7 -36.0" fill="url(#gradient40)" fill-rule="evenodd" stroke="none"/>
    <path d="M-1.7 -35.95 L-3.45 -34.45 Q-4.15 -33.75 -4.1 -33.05 L-4.4 -33.1 -4.5 -33.35 -4.25 -34.1 -3.25 -35.05 -1.8 -36.0 -1.7 -35.95" fill="url(#gradient41)" fill-rule="evenodd" stroke="none"/>
    <path d="M-4.1 -33.05 Q-4.25 -31.75 -3.85 -31.05 L-3.95 -30.7 -4.3 -31.15 -4.25 -32.35 Q-6.15 -35.7 -5.05 -38.25 L-4.9 -35.75 -4.25 -34.1 -4.5 -33.35 -4.4 -33.1 -4.1 -33.05" fill="url(#gradient42)" fill-rule="evenodd" stroke="none"/>
    <path d="M-6.4 -31.45 L-6.15 -31.0 -6.45 -30.8 -6.5 -31.55 -6.4 -31.45" fill="url(#gradient43)" fill-rule="evenodd" stroke="none"/>
    <path d="M-7.5 -29.6 Q-7.7 -30.1 -7.35 -31.0 L-6.65 -31.85 -6.5 -31.75 -6.5 -31.55 -6.45 -30.8 -7.1 -30.15 -7.5 -29.6" fill="url(#gradient44)" fill-rule="evenodd" stroke="none"/>
    <path d="M-0.7 -19.1 L-1.1 -17.6 -1.55 -16.0 -1.65 -16.1 -1.6 -16.85 -1.9 -16.4 -2.35 -16.2 Q-5.5 -16.6 -6.0 -17.55 -8.6 -22.3 -8.45 -25.65 L-7.95 -28.3 -7.5 -29.6 -7.1 -30.15 -6.45 -30.8 -6.15 -31.0 -5.85 -30.55 -5.75 -30.3 -5.75 -30.15 Q-6.15 -28.15 -4.95 -26.75 L-4.65 -25.5 -4.55 -25.25 -4.55 -25.2 -4.5 -25.05 Q-4.1 -22.15 -0.95 -21.9 L-0.6 -22.0 -0.65 -19.15 -0.7 -19.1" fill="url(#gradient45)" fill-rule="evenodd" stroke="none"/>
    <path d="M-0.95 -21.9 L-1.0 -22.05 -0.95 -22.15 -0.5 -22.3 -0.6 -22.0 -0.95 -21.9" fill="url(#gradient46)" fill-rule="evenodd" stroke="none"/>
    <path d="M-0.65 -19.1 L-0.7 -19.1 -0.65 -19.15 -0.65 -19.1" fill="url(#gradient47)" fill-rule="evenodd" stroke="none"/>
    <path d="M-5.35 -16.0 L-5.9 -16.8 -6.0 -17.55 Q-5.5 -16.6 -2.35 -16.2 L-2.8 -15.65 -3.75 -15.35 -3.85 -15.35 -4.55 -15.4 -4.8 -15.6 -5.0 -15.65 -5.35 -16.0" fill="url(#gradient48)" fill-rule="evenodd" stroke="none"/>
    <path d="M-1.1 -17.6 Q0.65 -17.45 -0.85 -11.5 -2.5 -8.7 -5.3 -11.65 -6.1 -13.45 -5.35 -16.0 L-5.0 -15.65 -4.65 -14.95 -4.05 -14.95 -3.85 -15.2 -3.75 -15.35 -2.8 -15.65 -2.35 -16.2 -1.9 -16.4 -1.65 -16.1 -1.55 -16.0 -1.1 -17.6" fill="url(#gradient49)" fill-rule="evenodd" stroke="none"/>
    <path d="M-1.9 -16.4 L-1.6 -16.85 -1.65 -16.1 -1.9 -16.4" fill="url(#gradient50)" fill-rule="evenodd" stroke="none"/>
    <path d="M-3.85 -15.2 L-4.05 -14.95 -4.65 -14.95 -5.0 -15.65 -4.8 -15.6 -4.55 -15.4 -3.85 -15.35 -3.85 -15.2" fill="url(#gradient51)" fill-rule="evenodd" stroke="none"/>
    <path d="M-3.75 -15.35 L-3.85 -15.2 -3.85 -15.35 -3.75 -15.35" fill="url(#gradient52)" fill-rule="evenodd" stroke="none"/>
    <path d="M-0.85 -11.5 L-1.1 -8.3 -1.0 -6.65 Q-0.65 -5.1 -1.5 -4.15 L-2.6 -3.6 Q-7.05 -5.05 -4.9 -6.9 L-5.3 -11.65 Q-2.5 -8.7 -0.85 -11.5" fill="url(#gradient53)" fill-rule="evenodd" stroke="none"/>
    <path d="M-1.0 -6.65 Q3.0 -2.65 -10.0 -1.25 -13.15 -4.9 -4.9 -6.9 -7.05 -5.05 -2.6 -3.6 L-1.5 -4.15 Q-0.65 -5.1 -1.0 -6.65" fill="url(#gradient54)" fill-rule="evenodd" stroke="none"/>
  </g>
  <defs>
    <radialGradient cx="0" cy="0" gradientTransform="matrix(0.0055, 0.0, 0.0, 0.0055, 2.85, -49.6)" gradientUnits="userSpaceOnUse" id="gradient0" r="819.2" spreadMethod="pad">
      <stop offset="0.0" stop-color="#dacd3d"/>
      <stop offset="1.0" stop-color="#8b8226"/>
    </radialGradient>
    <radialGradient cx="0" cy="0" gradientTransform="matrix(0.0089, 0.0, 0.0, 0.0089, -1.2, -48.95)" gradientUnits="userSpaceOnUse" id="gradient1" r="819.2" spreadMethod="pad">
      <stop offset="0.0" stop-color="#fbec46"/>
      <stop offset="1.0" stop-color="#a3992d"/>
    </radialGradient>
    <radialGradient cx="0" cy="0" gradientTransform="matrix(0.0053, 0.0, 0.0, 0.0053, 5.75, -48.25)" gradientUnits="userSpaceOnUse" id="gradient2" r="819.2" spreadMethod="pad">
      <stop offset="0.0" stop-color="#c9bd38"/>
      <stop offset="1.0" stop-color="#787121"/>
    </radialGradient>
    <radialGradient cx="0" cy="0" gradientTransform="matrix(0.0043, 0.0, 0.0, 0.0043, 4.2, -45.15)" gradientUnits="userSpaceOnUse" id="gradient3" r="819.2" spreadMethod="pad">
      <stop offset="0.0" stop-color="#f4e644"/>
      <stop offset="1.0" stop-color="#aaa02f"/>
    </radialGradient>
    <radialGradient cx="0" cy="0" gradientTransform="matrix(0.0159, 0.0, 0.0, 0.0159, 1.55, -34.55)" gradientUnits="userSpaceOnUse" id="gradient4" r="819.2" spreadMethod="pad">
      <stop offset="0.0" stop-color="#ffffff"/>
      <stop offset="1.0" stop-color="#7d7d7d"/>
    </radialGradient>
    <radialGradient cx="0" cy="0" gradientTransform="matrix(0.0015, 0.0, 0.0, 0.0015, 7.1, -43.45)" gradientUnits="userSpaceOnUse" id="gradient5" r="819.2" spreadMethod="pad">
      <stop offset="0.0" stop-color="#d4c73b"/>
      <stop offset="1.0" stop-color="#b5aa32"/>
    </radialGradient>
    <radialGradient cx="0" cy="0" gradientTransform="matrix(0.0066, 0.0, 0.0, 0.0066, -0.35, -46.85)" gradientUnits="userSpaceOnUse" id="gradient6" r="819.2" spreadMethod="pad">
      <stop offset="0.0" stop-color="#f0e243"/>
      <stop offset="1.0" stop-color="#827a24"/>
    </radialGradient>
    <radialGradient cx="0" cy="0" gradientTransform="matrix(0.0102, 0.0, 0.0, 0.0102, -1.45, -42.7)" gradientUnits="userSpaceOnUse" id="gradient7" r="819.2" spreadMethod="pad">
      <stop offset="0.0" stop-color="#eca761"/>
      <stop offset="1.0" stop-color="#b47f4a"/>
    </radialGradient>
    <radialGradient cx="0" cy="0" gradientTransform="matrix(0.0013, 0.0, 0.0, 0.0013, 4.2, -45.2)" gradientUnits="userSpaceOnUse" id="gradient8" r="819.2" spreadMethod="pad">
      <stop offset="0.0" stop-color="#938b29"/>
      <stop offset="1.0" stop-color="#5c571a"/>
    </radialGradient>
    <radialGradient cx="0" cy="0" gradientTransform="matrix(0.0065, 0.0, 0.0, 0.0065, 0.95, -41.0)" gradientUnits="userSpaceOnUse" id="gradient9" r="819.2" spreadMethod="pad">
      <stop offset="0.0" stop-color="#6f6565"/>
      <stop offset="1.0" stop-color="#5d5555"/>
    </radialGradient>
    <radialGradient cx="0" cy="0" gradientTransform="matrix(0.0114, 0.0, 0.0, 0.0114, 6.2, -37.2)" gradientUnits="userSpaceOnUse" id="gradient10" r="819.2" spreadMethod="pad">
      <stop offset="0.0" stop-color="#8e8181"/>
      <stop offset="1.0" stop-color="#665d5d"/>
    </radialGradient>
    <radialGradient cx="0" cy="0" gradientTransform="matrix(0.0096, 0.0, 0.0, 0.0096, 8.1, -39.75)" gradientUnits="userSpaceOnUse" id="gradient11" r="819.2" spreadMethod="pad">
      <stop offset="0.0" stop-color="#837777"/>
      <stop offset="1.0" stop-color="#5d5555"/>
    </radialGradient>
    <radialGradient cx="0" cy="0" gradientTransform="matrix(0.0152, 0.0, 0.0, 0.0152, 8.5, -37.55)" gradientUnits="userSpaceOnUse" id="gradient12" r="819.2" spreadMethod="pad">
      <stop offset="0.0" stop-color="#ffd079"/>
      <stop offset="1.0" stop-color="#bc844d"/>
    </radialGradient>
    <radialGradient cx="0" cy="0" gradientTransform="matrix(0.0061, 0.0, 0.0, 0.0061, 5.55, -36.3)" gradientUnits="userSpaceOnUse" id="gradient13" r="819.2" spreadMethod="pad">
      <stop offset="0.0" stop-color="#261b10"/>
      <stop offset="1.0" stop-color="#261b10"/>
    </radialGradient>
    <radialGradient cx="0" cy="0" gradientTransform="matrix(0.002, 0.0, 0.0, 0.002, 5.6, -32.2)" gradientUnits="userSpaceOnUse" id="gradient14" r="819.2" spreadMethod="pad">
      <stop offset="0.0" stop-color="#ccc039"/>
      <stop offset="1.0" stop-color="#777021"/>
    </radialGradient>
    <radialGradient cx="0" cy="0" gradientTransform="matrix(0.0027, 0.0, 0.0, 0.0027, 6.35, -32.75)" gradientUnits="userSpaceOnUse" id="gradient15" r="819.2" spreadMethod="pad">
      <stop offset="0.0" stop-color="#cfcfcf"/>
      <stop offset="1.0" stop-color="#747474"/>
    </radialGradient>
    <radialGradient cx="0" cy="0" gradientTransform="matrix(0.0014, 0.0, 0.0, 0.0014, 5.05, -31.05)" gradientUnits="userSpaceOnUse" id="gradient16" r="819.2" spreadMethod="pad">
      <stop offset="0.0" stop-color="#beb235"/>
      <stop offset="1.0" stop-color="#867e25"/>
    </radialGradient>
    <radialGradient cx="0" cy="0" gradientTransform="matrix(0.0126, 0.0, 0.0, 0.0126, 2.45, -26.5)" gradientUnits="userSpaceOnUse" id="gradient17" r="819.2" spreadMethod="pad">
      <stop offset="0.0" stop-color="#3d5f80"/>
      <stop offset="1.0" stop-color="#223749"/>
    </radialGradient>
    <radialGradient cx="0" cy="0" gradientTransform="matrix(0.0144, 0.0, 0.0, 0.0144, 4.9, -31.0)" gradientUnits="userSpaceOnUse" id="gradient18" r="819.2" spreadMethod="pad">
      <stop offset="0.0" stop-color="#080c10"/>
      <stop offset="1.0" stop-color="#080c10"/>
    </radialGradient>
    <radialGradient cx="0" cy="0" gradientTransform="matrix(0.0052, 0.0, 0.0, 0.0052, 4.8, -30.5)" gradientUnits="userSpaceOnUse" id="gradient19" r="819.2" spreadMethod="pad">
      <stop offset="0.0" stop-color="#faeb46"/>
      <stop offset="1.0" stop-color="#908828"/>
    </radialGradient>
    <radialGradient cx="0" cy="0" gradientTransform="matrix(0.007, 0.0, 0.0, 0.007, 2.0, -26.25)" gradientUnits="userSpaceOnUse" id="gradient20" r="819.2" spreadMethod="pad">
      <stop offset="0.0" stop-color="#908383"/>
      <stop offset="1.0" stop-color="#5d5454"/>
    </radialGradient>
    <radialGradient cx="0" cy="0" gradientTransform="matrix(0.0118, 0.0, 0.0, 0.0118, 9.8, -26.8)" gradientUnits="userSpaceOnUse" id="gradient21" r="819.2" spreadMethod="pad">
      <stop offset="0.0" stop-color="#ffdd80"/>
      <stop offset="1.0" stop-color="#af7b47"/>
    </radialGradient>
    <radialGradient cx="0" cy="0" gradientTransform="matrix(0.0039, 0.0, 0.0, 0.0039, 11.9, -18.55)" gradientUnits="userSpaceOnUse" id="gradient22" r="819.2" spreadMethod="pad">
      <stop offset="0.0" stop-color="#ffe987"/>
      <stop offset="1.0" stop-color="#a67544"/>
    </radialGradient>
    <radialGradient cx="0" cy="0" gradientTransform="matrix(0.0036, 0.0, 0.0, 0.0036, 9.55, -18.2)" gradientUnits="userSpaceOnUse" id="gradient23" r="819.2" spreadMethod="pad">
      <stop offset="0.0" stop-color="#ffe987"/>
      <stop offset="1.0" stop-color="#9b6d3f"/>
    </radialGradient>
    <radialGradient cx="0" cy="0" gradientTransform="matrix(0.0036, 0.0, 0.0, 0.0036, 6.15, -12.6)" gradientUnits="userSpaceOnUse" id="gradient24" r="819.2" spreadMethod="pad">
      <stop offset="0.0" stop-color="#433d3d"/>
      <stop offset="1.0" stop-color="#363131"/>
    </radialGradient>
    <radialGradient cx="0" cy="0" gradientTransform="matrix(0.0032, 0.0, 0.0, 0.0032, 6.55, -10.05)" gradientUnits="userSpaceOnUse" id="gradient25" r="819.2" spreadMethod="pad">
      <stop offset="0.0" stop-color="#5c5454"/>
      <stop offset="1.0" stop-color="#5b5353"/>
    </radialGradient>
    <radialGradient cx="0" cy="0" gradientTransform="matrix(0.0103, 0.0, 0.0, 0.0103, 5.4, -11.2)" gradientUnits="userSpaceOnUse" id="gradient26" r="819.2" spreadMethod="pad">
      <stop offset="0.0" stop-color="#ffef8b"/>
      <stop offset="1.0" stop-color="#8e643a"/>
    </radialGradient>
    <radialGradient cx="0" cy="0" gradientTransform="matrix(0.0066, 0.0, 0.0, 0.0066, 3.2, -12.55)" gradientUnits="userSpaceOnUse" id="gradient27" r="819.2" spreadMethod="pad">
      <stop offset="0.0" stop-color="#f9af66"/>
      <stop offset="1.0" stop-color="#92673c"/>
    </radialGradient>
    <radialGradient cx="0" cy="0" gradientTransform="matrix(0.0191, 0.0, 0.0, 0.0191, 2.35, -24.7)" gradientUnits="userSpaceOnUse" id="gradient28" r="819.2" spreadMethod="pad">
      <stop offset="0.0" stop-color="#988a8a"/>
      <stop offset="1.0" stop-color="#514a4a"/>
    </radialGradient>
    <radialGradient cx="0" cy="0" gradientTransform="matrix(0.0031, 0.0, 0.0, 0.0031, 6.35, -9.6)" gradientUnits="userSpaceOnUse" id="gradient29" r="819.2" spreadMethod="pad">
      <stop offset="0.0" stop-color="#201d1d"/>
      <stop offset="1.0" stop-color="#121010"/>
    </radialGradient>
    <radialGradient cx="0" cy="0" gradientTransform="matrix(0.0061, 0.0, 0.0, 0.0061, 3.2, -5.5)" gradientUnits="userSpaceOnUse" id="gradient30" r="819.2" spreadMethod="pad">
      <stop offset="0.0" stop-color="#855d36"/>
      <stop offset="1.0" stop-color="#261b10"/>
    </radialGradient>
    <radialGradient cx="0" cy="0" gradientTransform="matrix(0.0109, 0.0, 0.0, 0.0109, 6.85, 3.95)" gradientUnits="userSpaceOnUse" id="gradient31" r="819.2" spreadMethod="pad">
      <stop offset="0.0" stop-color="#e7a35f"/>
      <stop offset="1.0" stop-color="#976b3e"/>
    </radialGradient>
    <radialGradient cx="0" cy="0" gradientTransform="matrix(0.0109, 0.0, 0.0, 0.0109, 4.9, 8.8)" gradientUnits="userSpaceOnUse" id="gradient32" r="819.2" spreadMethod="pad">
      <stop offset="0.0" stop-color="#ffff96"/>
      <stop offset="1.0" stop-color="#cdb469"/>
    </radialGradient>
    <radialGradient cx="0" cy="0" gradientTransform="matrix(0.0031, 0.0, 0.0, 0.0031, 5.75, 10.65)" gradientUnits="userSpaceOnUse" id="gradient33" r="819.2" spreadMethod="pad">
      <stop offset="0.0" stop-color="#ca8e53"/>
      <stop offset="1.0" stop-color="#c88d52"/>
    </radialGradient>
    <radialGradient cx="0" cy="0" gradientTransform="matrix(0.0081, 0.0, 0.0, 0.0081, -2.5, -46.7)" gradientUnits="userSpaceOnUse" id="gradient34" r="819.2" spreadMethod="pad">
      <stop offset="0.0" stop-color="#f3e444"/>
      <stop offset="1.0" stop-color="#aba130"/>
    </radialGradient>
    <radialGradient cx="0" cy="0" gradientTransform="matrix(0.0096, 0.0, 0.0, 0.0096, -2.0, -39.05)" gradientUnits="userSpaceOnUse" id="gradient35" r="819.2" spreadMethod="pad">
      <stop offset="0.0" stop-color="#827777"/>
      <stop offset="1.0" stop-color="#6f6565"/>
    </radialGradient>
    <radialGradient cx="0" cy="0" gradientTransform="matrix(0.0066, 0.0, 0.0, 0.0066, -4.45, -45.85)" gradientUnits="userSpaceOnUse" id="gradient36" r="819.2" spreadMethod="pad">
      <stop offset="0.0" stop-color="#ffdd81"/>
      <stop offset="1.0" stop-color="#a77644"/>
    </radialGradient>
    <radialGradient cx="0" cy="0" gradientTransform="matrix(0.0056, 0.0, 0.0, 0.0056, -4.35, -48.95)" gradientUnits="userSpaceOnUse" id="gradient37" r="819.2" spreadMethod="pad">
      <stop offset="0.0" stop-color="#ecde42"/>
      <stop offset="1.0" stop-color="#8c8427"/>
    </radialGradient>
    <radialGradient cx="0" cy="0" gradientTransform="matrix(0.0038, 0.0, 0.0, 0.0038, -5.8, -48.7)" gradientUnits="userSpaceOnUse" id="gradient38" r="819.2" spreadMethod="pad">
      <stop offset="0.0" stop-color="#ca8f53"/>
      <stop offset="1.0" stop-color="#a37343"/>
    </radialGradient>
    <radialGradient cx="0" cy="0" gradientTransform="matrix(0.0193, 0.0, 0.0, 0.0193, -4.4, -37.65)" gradientUnits="userSpaceOnUse" id="gradient39" r="819.2" spreadMethod="pad">
      <stop offset="0.0" stop-color="#928585"/>
      <stop offset="1.0" stop-color="#585050"/>
    </radialGradient>
    <radialGradient cx="0" cy="0" gradientTransform="matrix(1.0E-4, 0.0, 0.0, 1.0E-4, -1.85, -36.05)" gradientUnits="userSpaceOnUse" id="gradient40" r="819.2" spreadMethod="pad">
      <stop offset="0.0" stop-color="#263b50"/>
      <stop offset="1.0" stop-color="#263b50"/>
    </radialGradient>
    <radialGradient cx="0" cy="0" gradientTransform="matrix(0.0048, 0.0, 0.0, 0.0048, -1.85, -36.05)" gradientUnits="userSpaceOnUse" id="gradient41" r="819.2" spreadMethod="pad">
      <stop offset="0.0" stop-color="#3b5c7c"/>
      <stop offset="1.0" stop-color="#283f54"/>
    </radialGradient>
    <radialGradient cx="0" cy="0" gradientTransform="matrix(0.0096, 0.0, 0.0, 0.0096, -5.1, -38.3)" gradientUnits="userSpaceOnUse" id="gradient42" r="819.2" spreadMethod="pad">
      <stop offset="0.0" stop-color="#3f6284"/>
      <stop offset="1.0" stop-color="#2d465f"/>
    </radialGradient>
    <radialGradient cx="0" cy="0" gradientTransform="matrix(0.0033, 0.0, 0.0, 0.0033, -6.2, -31.65)" gradientUnits="userSpaceOnUse" id="gradient43" r="819.2" spreadMethod="pad">
      <stop offset="0.0" stop-color="#af7b48"/>
      <stop offset="1.0" stop-color="#a17142"/>
    </radialGradient>
    <radialGradient cx="0" cy="0" gradientTransform="matrix(0.0022, 0.0, 0.0, 0.0022, -6.2, -30.8)" gradientUnits="userSpaceOnUse" id="gradient44" r="819.2" spreadMethod="pad">
      <stop offset="0.0" stop-color="#ffcf79"/>
      <stop offset="1.0" stop-color="#b8824b"/>
    </radialGradient>
    <radialGradient cx="0" cy="0" gradientTransform="matrix(0.0171, 0.0, 0.0, 0.0171, -5.4, -29.55)" gradientUnits="userSpaceOnUse" id="gradient45" r="819.2" spreadMethod="pad">
      <stop offset="0.0" stop-color="#867a7a"/>
      <stop offset="1.0" stop-color="#474040"/>
    </radialGradient>
    <radialGradient cx="0" cy="0" gradientTransform="matrix(0.0203, 0.0, 0.0, 0.0203, -9.4, -36.2)" gradientUnits="userSpaceOnUse" id="gradient46" r="819.2" spreadMethod="pad">
      <stop offset="0.0" stop-color="#aaaaaa"/>
      <stop offset="1.0" stop-color="#202020"/>
    </radialGradient>
    <radialGradient cx="0" cy="0" gradientTransform="matrix(0.0157, 0.0, 0.0, 0.0157, 1.1, -12.5)" gradientUnits="userSpaceOnUse" id="gradient47" r="819.2" spreadMethod="pad">
      <stop offset="0.0" stop-color="#121010"/>
      <stop offset="1.0" stop-color="#121010"/>
    </radialGradient>
    <radialGradient cx="0" cy="0" gradientTransform="matrix(0.0041, 0.0, 0.0, 0.0041, -3.55, -16.95)" gradientUnits="userSpaceOnUse" id="gradient48" r="819.2" spreadMethod="pad">
      <stop offset="0.0" stop-color="#e7a35f"/>
      <stop offset="1.0" stop-color="#a07141"/>
    </radialGradient>
    <radialGradient cx="0" cy="0" gradientTransform="matrix(0.0076, 0.0, 0.0, 0.0076, -3.05, -16.3)" gradientUnits="userSpaceOnUse" id="gradient49" r="819.2" spreadMethod="pad">
      <stop offset="0.0" stop-color="#ffe384"/>
      <stop offset="1.0" stop-color="#7b5732"/>
    </radialGradient>
    <radialGradient cx="0" cy="0" gradientTransform="matrix(0.0016, 0.0, 0.0, 0.0016, -2.3, -16.05)" gradientUnits="userSpaceOnUse" id="gradient50" r="819.2" spreadMethod="pad">
      <stop offset="0.0" stop-color="#443e3e"/>
      <stop offset="1.0" stop-color="#403a3a"/>
    </radialGradient>
    <radialGradient cx="0" cy="0" gradientTransform="matrix(0.0018, 0.0, 0.0, 0.0018, -4.75, -14.95)" gradientUnits="userSpaceOnUse" id="gradient51" r="819.2" spreadMethod="pad">
      <stop offset="0.0" stop-color="#795532"/>
      <stop offset="1.0" stop-color="#614528"/>
    </radialGradient>
    <radialGradient cx="0" cy="0" gradientTransform="matrix(0.0018, 0.0, 0.0, 0.0018, -3.95, -14.4)" gradientUnits="userSpaceOnUse" id="gradient52" r="819.2" spreadMethod="pad">
      <stop offset="0.0" stop-color="#976a3e"/>
      <stop offset="1.0" stop-color="#95693d"/>
    </radialGradient>
    <radialGradient cx="0" cy="0" gradientTransform="matrix(0.0087, 0.0, 0.0, 0.0087, -3.1, -5.15)" gradientUnits="userSpaceOnUse" id="gradient53" r="819.2" spreadMethod="pad">
      <stop offset="0.0" stop-color="#bd864e"/>
      <stop offset="1.0" stop-color="#976b3e"/>
    </radialGradient>
    <radialGradient cx="0" cy="0" gradientTransform="matrix(0.0095, 0.0, 0.0, 0.0095, -4.15, -5.2)" gradientUnits="userSpaceOnUse" id="gradient54" r="819.2" spreadMethod="pad">
      <stop offset="0.0" stop-color="#ffff95"/>
      <stop offset="1.0" stop-color="#fec170"/>
    </radialGradient>
  </defs>
</svg>
