<?xml version="1.0" encoding="UTF-8" standalone="no"?>
<svg xmlns:ffdec="https://www.free-decompiler.com/flash" xmlns:xlink="http://www.w3.org/1999/xlink" ffdec:objectType="shape" height="65.3px" width="25.35px" xmlns="http://www.w3.org/2000/svg">
  <g transform="matrix(1.0, 0.0, 0.0, 1.0, 12.8, 56.8)">
    <path d="M2.45 -56.3 L3.55 -56.25 5.25 -55.45 5.85 -55.05 6.4 -54.65 Q6.85 -53.85 6.9 -51.8 L6.3 -49.7 Q5.45 -47.6 4.8 -46.85 L3.85 -46.15 4.3 -46.65 4.5 -47.25 3.65 -47.0 Q2.4 -47.85 2.75 -48.3 L2.35 -48.5 Q1.85 -48.2 1.1 -48.9 L0.25 -48.7 0.05 -49.4 -0.4 -50.0 -1.25 -49.45 -1.5 -49.4 -1.95 -49.6 Q-2.45 -48.6 -2.75 -49.15 L-3.05 -48.8 Q-4.75 -50.75 -2.9 -53.05 L-2.9 -53.15 -3.15 -53.05 -3.9 -52.1 -3.65 -52.65 -3.75 -52.75 -4.0 -52.45 Q-1.05 -56.6 2.45 -56.3" fill="url(#gradient0)" fill-rule="evenodd" stroke="none"/>
    <path d="M5.25 -55.45 L3.55 -56.25 2.45 -56.3 Q4.45 -57.6 5.25 -55.45" fill="url(#gradient1)" fill-rule="evenodd" stroke="none"/>
    <path d="M4.8 -46.85 Q5.45 -47.6 6.3 -49.7 L6.9 -51.8 Q7.55 -51.9 7.65 -50.85 L7.6 -49.2 6.65 -47.0 Q4.95 -44.75 4.7 -44.85 L3.7 -44.1 3.55 -44.0 3.25 -43.75 3.15 -43.75 3.25 -43.95 3.45 -44.2 3.55 -44.45 3.65 -44.5 4.45 -45.7 4.8 -46.85" fill="url(#gradient2)" fill-rule="evenodd" stroke="none"/>
    <path d="M6.9 -51.8 Q6.85 -53.85 6.4 -54.65 L5.85 -55.05 8.35 -54.15 9.45 -51.8 Q10.5 -48.85 8.4 -44.9 8.9 -47.25 7.6 -49.2 L7.65 -50.85 Q7.55 -51.9 6.9 -51.8" fill="url(#gradient3)" fill-rule="evenodd" stroke="none"/>
    <path d="M-3.05 -48.8 L-2.75 -49.15 Q-2.45 -48.6 -1.95 -49.6 L-1.5 -49.4 -1.25 -49.45 -0.4 -50.0 0.05 -49.4 0.25 -48.7 1.1 -48.9 Q1.85 -48.2 2.35 -48.5 L2.75 -48.3 Q2.4 -47.85 3.65 -47.0 L4.5 -47.25 4.3 -46.65 3.85 -46.15 3.1 -45.4 2.75 -45.0 2.45 -44.7 2.2 -44.5 2.2 -44.4 1.0 -43.35 0.95 -43.85 0.55 -44.0 -1.4 -43.7 -2.8 -44.05 -2.9 -44.5 Q-3.45 -46.1 -4.0 -45.3 L-4.05 -45.45 -3.65 -47.35 -3.05 -48.8" fill="url(#gradient4)" fill-rule="evenodd" stroke="none"/>
    <path d="M-4.0 -45.3 Q-3.45 -46.1 -2.9 -44.5 L-2.8 -44.05 -1.4 -43.7 0.55 -44.0 0.95 -43.85 1.0 -43.35 -0.6 -41.1 -1.1 -40.45 -1.9 -39.9 -5.2 -40.0 -5.1 -40.3 -5.1 -40.35 Q-5.3 -41.0 -4.9 -42.4 L-4.0 -45.3" fill="url(#gradient5)" fill-rule="evenodd" stroke="none"/>
    <path d="M3.55 -44.0 L4.45 -43.3 Q5.25 -42.3 5.05 -42.05 L3.8 -43.15 3.15 -43.45 2.95 -43.4 2.2 -43.7 2.2 -44.15 2.75 -43.9 3.25 -43.95 3.15 -43.75 3.25 -43.75 3.55 -44.0 M5.8 -41.05 L6.25 -41.2 6.35 -41.2 6.6 -41.25 Q8.55 -40.95 9.55 -40.1 L10.65 -38.55 Q11.1 -34.45 8.4 -32.95 L8.55 -33.55 8.3 -36.3 7.6 -37.35 7.65 -37.6 7.7 -37.85 7.45 -38.15 6.1 -38.85 4.1 -38.55 Q0.0 -36.75 0.9 -33.55 1.85 -31.2 2.45 -31.45 L2.5 -30.95 3.15 -29.5 1.2 -29.65 -2.5 -32.3 -2.65 -33.2 -2.3 -34.5 -2.4 -34.95 -2.25 -35.5 -2.6 -36.75 Q-2.2 -36.95 -1.45 -38.75 L-1.1 -40.45 -0.6 -41.1 1.85 -41.15 5.8 -41.05 M3.3 -27.8 L3.35 -25.85 Q1.3 -26.0 -1.35 -23.95 L-1.4 -23.9 -1.45 -23.9 -1.5 -24.15 -1.95 -24.15 -2.3 -24.4 -2.2 -24.95 -2.3 -25.4 -2.2 -25.95 -2.35 -26.65 -2.4 -27.45 -2.45 -28.75 -2.4 -30.15 -1.15 -28.75 Q1.55 -27.8 3.3 -27.8 M-6.15 -44.9 L-6.2 -42.05 -6.55 -41.6 -7.1 -39.95 -6.95 -37.9 -7.0 -37.9 -8.05 -40.7 -7.85 -42.3 -6.55 -44.5 -6.15 -44.9" fill="url(#gradient6)" fill-rule="evenodd" stroke="none"/>
    <path d="M1.0 -43.35 L2.2 -44.4 2.2 -44.15 2.2 -43.7 2.2 -43.35 2.15 -42.45 2.15 -42.35 2.15 -42.15 2.15 -41.6 1.85 -41.15 -0.6 -41.1 1.0 -43.35" fill="url(#gradient7)" fill-rule="evenodd" stroke="none"/>
    <path d="M2.2 -43.7 L2.95 -43.4 4.05 -42.55 4.6 -41.65 3.2 -42.25 2.4 -43.35 2.2 -43.35 2.2 -43.7" fill="url(#gradient8)" fill-rule="evenodd" stroke="none"/>
    <path d="M2.2 -43.35 L2.4 -43.35 3.2 -42.25 2.15 -42.45 2.2 -43.35 M2.15 -42.35 L3.05 -42.2 2.15 -42.15 2.15 -42.35" fill="url(#gradient9)" fill-rule="evenodd" stroke="none"/>
    <path d="M2.2 -44.4 L2.2 -44.5 2.45 -44.7 2.55 -44.5 2.75 -43.9 2.2 -44.15 2.2 -44.4" fill="url(#gradient10)" fill-rule="evenodd" stroke="none"/>
    <path d="M2.75 -45.0 L3.1 -45.4 3.65 -45.4 3.6 -45.3 3.55 -44.45 3.45 -44.2 2.75 -45.0" fill="url(#gradient11)" fill-rule="evenodd" stroke="none"/>
    <path d="M3.85 -46.15 L4.8 -46.85 4.45 -45.7 3.65 -44.5 3.55 -44.45 3.6 -45.3 3.65 -45.4 3.1 -45.4 3.85 -46.15 M4.7 -44.85 L4.25 -44.25 3.7 -44.1 4.7 -44.85" fill="url(#gradient12)" fill-rule="evenodd" stroke="none"/>
    <path d="M5.05 -42.05 L5.45 -41.25 4.6 -41.65 4.05 -42.55 2.95 -43.4 3.15 -43.45 3.8 -43.15 5.05 -42.05" fill="url(#gradient13)" fill-rule="evenodd" stroke="none"/>
    <path d="M2.45 -44.7 L2.75 -45.0 3.45 -44.2 3.25 -43.95 2.75 -43.9 2.55 -44.5 2.45 -44.7" fill="url(#gradient14)" fill-rule="evenodd" stroke="none"/>
    <path d="M5.45 -41.25 L5.8 -41.05 1.85 -41.15 2.15 -41.6 2.15 -42.15 3.05 -42.2 2.15 -42.35 2.15 -42.45 3.2 -42.25 4.6 -41.65 5.45 -41.25 M4.85 -37.9 L4.7 -38.2 4.1 -38.55 6.1 -38.85 7.45 -38.15 7.4 -37.65 6.0 -38.15 4.85 -37.9" fill="url(#gradient15)" fill-rule="evenodd" stroke="none"/>
    <path d="M4.1 -38.55 L4.7 -38.2 4.85 -37.9 Q2.5 -35.9 2.35 -33.55 L2.25 -33.15 2.45 -31.45 Q1.85 -31.2 0.9 -33.55 0.0 -36.75 4.1 -38.55" fill="url(#gradient16)" fill-rule="evenodd" stroke="none"/>
    <path d="M6.3 -41.3 L6.6 -41.25 6.35 -41.2 6.3 -41.3" fill="url(#gradient17)" fill-rule="evenodd" stroke="none"/>
    <path d="M6.25 -41.2 L6.3 -41.3 6.35 -41.2 6.25 -41.2" fill="url(#gradient18)" fill-rule="evenodd" stroke="none"/>
    <path d="M8.4 -32.95 Q7.85 -30.3 7.75 -30.8 L7.9 -27.5 7.7 -24.15 7.6 -23.3 7.25 -22.6 6.2 -21.65 Q4.5 -21.95 4.4 -21.45 L4.05 -22.35 3.8 -22.45 3.8 -22.6 3.65 -23.3 3.35 -25.85 3.3 -27.8 3.3 -29.2 3.15 -29.5 2.5 -30.95 2.45 -31.45 2.25 -33.15 2.35 -33.55 Q2.5 -35.9 4.85 -37.9 L6.0 -38.15 7.4 -37.65 7.55 -37.4 7.6 -37.35 8.3 -36.3 8.55 -33.55 8.4 -32.95" fill="url(#gradient19)" fill-rule="evenodd" stroke="none"/>
    <path d="M7.4 -37.65 L7.45 -38.15 7.7 -37.85 7.65 -37.6 7.55 -37.4 7.4 -37.65" fill="url(#gradient20)" fill-rule="evenodd" stroke="none"/>
    <path d="M7.55 -37.4 L7.65 -37.6 7.6 -37.35 7.55 -37.4" fill="url(#gradient21)" fill-rule="evenodd" stroke="none"/>
    <path d="M3.15 -29.5 L3.3 -29.2 3.3 -27.8 Q1.55 -27.8 -1.15 -28.75 L-2.4 -30.15 -2.5 -30.5 -2.55 -31.65 -2.5 -32.3 1.2 -29.65 3.15 -29.5" fill="url(#gradient22)" fill-rule="evenodd" stroke="none"/>
    <path d="M3.65 -23.3 L3.8 -22.6 3.8 -22.45 4.05 -22.35 4.4 -21.45 Q4.5 -21.95 6.2 -21.65 L7.25 -22.6 7.6 -23.3 7.7 -24.15 8.05 -23.65 8.35 -22.6 Q9.0 -21.6 8.2 -15.45 L8.0 -15.15 7.1 -14.7 5.45 -14.9 5.1 -15.15 5.05 -15.55 4.8 -17.05 Q4.1 -17.75 3.55 -20.6 L3.55 -22.6 3.65 -23.3" fill="url(#gradient23)" fill-rule="evenodd" stroke="none"/>
    <path d="M7.9 -27.5 Q11.6 -22.05 8.85 -14.85 L8.2 -15.45 Q9.0 -21.6 8.35 -22.6 L8.05 -23.65 7.7 -24.15 7.9 -27.5 M2.45 -9.8 L2.35 -11.6 Q0.35 -17.0 0.7 -19.8 L0.7 -19.9 0.65 -20.2 0.7 -20.2 1.25 -19.95 Q3.1 -20.9 3.55 -20.6 4.1 -17.75 4.8 -17.05 L5.05 -15.55 Q3.0 -14.6 3.95 -11.65 L4.85 -10.6 6.3 -10.1 5.85 -9.2 5.6 -8.75 4.3 -8.65 4.35 -7.45 Q2.9 -8.45 2.45 -9.8" fill="url(#gradient24)" fill-rule="evenodd" stroke="none"/>
    <path d="M3.35 -25.85 L3.65 -23.3 3.55 -22.6 3.55 -20.6 Q3.1 -20.9 1.25 -19.95 L0.7 -20.2 0.65 -20.25 -0.3 -20.95 -1.25 -22.3 -1.3 -23.6 -1.35 -23.75 -1.35 -23.95 Q1.3 -26.0 3.35 -25.85" fill="url(#gradient25)" fill-rule="evenodd" stroke="none"/>
    <path d="M0.7 -20.2 L0.65 -20.2 0.65 -20.25 0.7 -20.2 M-1.3 -23.6 L-1.4 -23.75 -1.35 -23.75 -1.3 -23.6" fill="url(#gradient26)" fill-rule="evenodd" stroke="none"/>
    <path d="M0.65 -19.8 L0.3 -18.9 -0.55 -17.55 -1.65 -16.15 -1.95 -15.65 -2.6 -14.55 -3.6 -14.6 Q-5.55 -15.4 -5.5 -15.6 L-5.85 -15.6 -5.55 -16.2 -5.5 -16.3 -4.95 -17.3 Q0.65 -16.55 -2.35 -22.6 L-2.75 -23.65 -2.65 -23.75 -1.45 -23.9 -1.4 -23.75 -1.3 -23.6 -1.25 -22.3 -0.3 -20.95 0.65 -20.25 0.65 -20.2 0.7 -19.9 0.65 -19.8 M-6.5 -23.25 L-6.65 -24.5 -6.5 -27.5 -6.3 -27.25 -6.2 -26.4 -6.05 -25.2 -5.4 -24.05 -6.5 -23.25" fill="url(#gradient27)" fill-rule="evenodd" stroke="none"/>
    <path d="M0.7 -19.8 L0.65 -19.8 0.7 -19.9 0.7 -19.8" fill="url(#gradient28)" fill-rule="evenodd" stroke="none"/>
    <path d="M8.85 -14.85 Q10.75 -11.5 6.85 -10.15 L6.3 -10.1 4.85 -10.6 3.95 -11.65 Q3.0 -14.6 5.05 -15.55 L5.1 -15.15 5.45 -14.9 7.1 -14.7 8.0 -15.15 8.2 -15.45 8.85 -14.85" fill="url(#gradient29)" fill-rule="evenodd" stroke="none"/>
    <path d="M6.85 -10.15 L6.6 -9.75 6.45 -8.7 6.1 -8.75 6.05 -8.9 6.1 -9.25 5.9 -9.2 5.85 -9.2 6.3 -10.1 6.85 -10.15" fill="url(#gradient30)" fill-rule="evenodd" stroke="none"/>
    <path d="M5.9 -9.2 L6.1 -9.25 6.05 -8.9 5.9 -9.2" fill="url(#gradient31)" fill-rule="evenodd" stroke="none"/>
    <path d="M6.45 -8.7 Q7.8 -5.55 6.75 -2.15 L6.7 -1.95 6.35 -1.25 5.45 -0.7 4.0 -0.45 3.5 -0.7 2.9 -0.8 1.95 -1.75 1.35 -3.7 Q1.1 -5.3 1.25 -7.9 L1.85 -9.1 2.45 -9.8 Q2.9 -8.45 4.35 -7.45 L4.3 -8.65 5.6 -8.75 5.85 -9.2 5.9 -9.2 6.05 -8.9 6.1 -8.75 6.45 -8.7" fill="url(#gradient32)" fill-rule="evenodd" stroke="none"/>
    <path d="M6.8 -2.0 L6.3 2.85 6.4 3.1 Q7.95 4.9 4.95 6.9 L3.6 7.0 Q3.5 6.35 2.15 5.35 L2.1 4.7 2.3 1.95 1.95 -1.75 2.9 -0.8 3.5 -0.7 4.0 -0.45 5.45 -0.7 6.35 -1.25 6.7 -1.95 6.8 -2.0" fill="url(#gradient33)" fill-rule="evenodd" stroke="none"/>
    <path d="M6.75 -2.15 L6.8 -2.0 6.7 -1.95 6.75 -2.15" fill="url(#gradient34)" fill-rule="evenodd" stroke="none"/>
    <path d="M6.4 3.1 Q14.0 1.2 12.2 6.5 9.3 7.6 5.65 8.35 L3.1 8.5 Q0.3 7.3 2.1 4.7 L2.15 5.35 Q3.5 6.35 3.6 7.0 L4.95 6.9 Q7.95 4.9 6.4 3.1" fill="url(#gradient35)" fill-rule="evenodd" stroke="none"/>
    <path d="M-4.0 -52.45 L-3.75 -52.75 -3.65 -52.65 -3.9 -52.1 -3.15 -53.05 -2.9 -53.15 -2.9 -53.05 Q-4.75 -50.75 -3.05 -48.8 L-3.65 -47.35 -4.05 -45.45 -4.2 -45.55 -4.4 -46.3 -4.95 -46.15 -5.2 -46.3 -5.5 -45.7 -5.75 -46.2 -5.75 -46.4 -5.85 -49.25 Q-4.6 -52.25 -4.0 -52.45" fill="url(#gradient36)" fill-rule="evenodd" stroke="none"/>
    <path d="M-4.05 -45.45 L-4.0 -45.3 -4.9 -42.4 Q-5.3 -41.0 -5.1 -40.35 -6.25 -40.3 -6.2 -42.05 L-6.15 -44.9 -6.1 -44.95 -6.1 -45.1 -6.05 -45.15 -6.05 -45.2 -5.95 -45.3 -6.0 -45.4 -5.75 -46.2 -5.5 -45.7 -5.2 -46.3 -4.95 -46.15 -4.4 -46.3 -4.2 -45.55 -4.05 -45.45" fill="url(#gradient37)" fill-rule="evenodd" stroke="none"/>
    <path d="M-10.6 -33.9 L-10.55 -36.6 Q-10.3 -39.55 -10.05 -39.7 L-9.95 -39.75 -10.05 -39.9 Q-10.8 -47.55 -5.75 -46.4 L-5.75 -46.2 -6.0 -45.4 -6.05 -45.2 -6.05 -45.15 -6.1 -45.15 -7.95 -44.1 -7.85 -42.3 -8.05 -40.7 -7.0 -37.9 -6.95 -37.8 -6.9 -37.6 -7.5 -36.45 -7.45 -35.8 -7.4 -35.7 -7.4 -35.6 -7.4 -35.3 -7.35 -35.0 -7.35 -34.95 -7.3 -34.8 -7.25 -34.7 -7.25 -34.55 -7.2 -34.5 -6.95 -33.7 -7.1 -33.55 Q-8.85 -30.95 -10.6 -33.5 L-10.6 -33.9" fill="url(#gradient38)" fill-rule="evenodd" stroke="none"/>
    <path d="M-6.0 -45.4 L-5.95 -45.3 -6.05 -45.2 -6.0 -45.4 M-6.05 -45.15 L-6.1 -45.1 -6.1 -45.15 -6.05 -45.15" fill="url(#gradient39)" fill-rule="evenodd" stroke="none"/>
    <path d="M-6.1 -45.1 L-6.1 -44.95 -6.15 -44.9 -6.55 -44.5 -7.85 -42.3 -7.95 -44.1 -6.1 -45.15 -6.1 -45.1" fill="url(#gradient40)" fill-rule="evenodd" stroke="none"/>
    <path d="M-6.2 -42.05 Q-6.25 -40.3 -5.1 -40.35 L-5.1 -40.3 -5.2 -40.0 -5.85 -38.5 -6.25 -36.9 -6.7 -37.05 -6.9 -37.6 -6.95 -37.8 -6.95 -37.9 -7.1 -39.95 -6.55 -41.6 -6.2 -42.05" fill="url(#gradient41)" fill-rule="evenodd" stroke="none"/>
    <path d="M-10.65 -33.7 L-10.6 -33.9 -10.6 -33.5 -10.65 -33.55 -10.65 -33.7 M-10.05 -39.7 L-10.05 -39.9 -9.95 -39.75 -10.05 -39.7" fill="url(#gradient42)" fill-rule="evenodd" stroke="none"/>
    <path d="M-7.0 -37.9 L-6.95 -37.9 -6.95 -37.8 -7.0 -37.9" fill="url(#gradient43)" fill-rule="evenodd" stroke="none"/>
    <path d="M-6.25 -36.9 L-5.85 -38.5 -5.2 -40.0 -1.9 -39.9 -1.1 -40.45 -1.45 -38.75 Q-2.2 -36.95 -2.6 -36.75 L-3.5 -35.9 -5.6 -36.1 -5.7 -35.9 -6.0 -35.95 -6.05 -35.65 -6.25 -36.25 -6.25 -36.9" fill="url(#gradient44)" fill-rule="evenodd" stroke="none"/>
    <path d="M-6.65 -30.4 Q-6.75 -29.45 -7.2 -29.1 L-7.45 -27.5 -7.65 -26.75 Q-11.2 -26.25 -10.5 -28.7 -11.5 -31.4 -10.65 -33.7 L-10.65 -33.55 -10.6 -33.5 Q-8.85 -30.95 -7.1 -33.55 L-6.95 -33.7 -6.85 -33.55 -6.85 -33.5 Q-7.85 -32.65 -6.65 -30.4" fill="url(#gradient45)" fill-rule="evenodd" stroke="none"/>
    <path d="M-2.4 -34.95 L-3.05 -33.55 -3.7 -32.55 -4.35 -32.25 -5.55 -32.55 -5.6 -32.65 -5.9 -32.95 -6.05 -33.55 -6.15 -34.75 -6.05 -35.65 -6.0 -35.95 -5.7 -35.9 -5.6 -36.1 -3.5 -35.9 -2.6 -36.75 -2.25 -35.5 -2.4 -34.95" fill="url(#gradient46)" fill-rule="evenodd" stroke="none"/>
    <path d="M-6.9 -37.6 L-6.7 -37.05 -6.25 -36.9 -6.25 -36.25 -6.05 -35.65 -6.15 -34.75 -6.05 -33.55 -5.9 -32.95 -5.6 -32.65 -6.15 -32.7 -6.55 -32.95 -6.85 -33.5 -6.85 -33.55 -6.95 -33.7 -7.2 -34.5 -7.25 -34.55 -7.25 -34.7 -7.25 -34.8 -7.3 -34.95 -7.3 -35.0 -7.35 -35.3 -7.4 -35.6 -7.4 -35.7 -7.45 -35.8 -7.5 -36.45 -6.9 -37.6 M-2.4 -34.95 L-2.3 -34.5 -2.65 -33.2 -3.05 -32.6 -3.7 -32.55 -3.05 -33.55 -2.4 -34.95" fill="url(#gradient47)" fill-rule="evenodd" stroke="none"/>
    <path d="M-3.7 -32.55 L-3.05 -32.6 -2.65 -33.2 -2.5 -32.3 -2.55 -31.65 -3.05 -29.75 Q-3.15 -28.15 -5.65 -29.15 L-5.9 -29.65 -6.15 -31.6 Q-6.05 -32.6 -5.55 -32.55 L-4.35 -32.25 -3.7 -32.55" fill="url(#gradient48)" fill-rule="evenodd" stroke="none"/>
    <path d="M-7.25 -34.7 L-7.3 -34.8 -7.25 -34.8 -7.25 -34.7 M-7.35 -34.95 L-7.35 -35.0 -7.3 -35.0 -7.3 -34.95 -7.35 -34.95 M-7.4 -35.3 L-7.4 -35.6 -7.35 -35.3 -7.4 -35.3" fill="url(#gradient49)" fill-rule="evenodd" stroke="none"/>
    <path d="M-7.3 -34.8 L-7.35 -34.95 -7.3 -34.95 -7.25 -34.8 -7.3 -34.8 M-7.35 -35.0 L-7.4 -35.3 -7.35 -35.3 -7.3 -35.0 -7.35 -35.0" fill="url(#gradient50)" fill-rule="evenodd" stroke="none"/>
    <path d="M-6.45 -30.1 L-6.65 -30.4 Q-7.85 -32.65 -6.85 -33.5 L-6.55 -32.95 -6.15 -32.7 -5.6 -32.65 -5.55 -32.55 Q-6.05 -32.6 -6.15 -31.6 L-5.9 -29.65 -6.45 -30.1 M-2.55 -31.65 L-2.5 -30.5 -2.6 -30.1 -3.05 -29.75 -2.55 -31.65" fill="url(#gradient51)" fill-rule="evenodd" stroke="none"/>
    <path d="M-6.45 -28.05 Q-6.85 -29.0 -6.7 -29.4 L-6.45 -30.1 -5.9 -29.65 -5.65 -29.15 -5.55 -27.6 Q-5.4 -26.9 -4.85 -26.45 L-5.1 -26.45 -5.85 -27.05 -6.35 -27.85 -6.4 -28.05 -6.45 -28.05 M-2.45 -28.75 L-2.4 -27.45 -2.7 -26.8 -2.95 -26.5 -3.45 -26.4 -3.45 -26.45 -2.9 -27.2 -2.45 -28.75" fill="url(#gradient52)" fill-rule="evenodd" stroke="none"/>
    <path d="M-6.45 -27.9 L-6.45 -28.05 -6.4 -28.05 -6.35 -27.85 -6.45 -27.9" fill="url(#gradient53)" fill-rule="evenodd" stroke="none"/>
    <path d="M-6.5 -27.5 L-6.45 -27.9 -6.35 -27.85 -5.85 -27.05 -6.2 -26.4 -6.3 -27.25 -6.5 -27.5 M-2.3 -24.4 L-1.95 -24.15 -1.5 -24.15 -1.45 -23.9 -2.65 -23.75 -2.3 -24.4" fill="url(#gradient54)" fill-rule="evenodd" stroke="none"/>
    <path d="M-2.4 -27.45 L-2.35 -26.65 -2.7 -26.8 -2.4 -27.45 M-2.3 -25.4 L-2.2 -24.95 -2.3 -24.4 -2.65 -23.75 -2.75 -23.65 -2.85 -23.6 -2.3 -25.4 M-5.85 -27.05 L-5.1 -26.45 -4.85 -26.45 -4.6 -26.35 -5.05 -26.05 -5.1 -25.85 -5.25 -25.5 -5.1 -23.85 -5.4 -24.05 -6.05 -25.2 -6.2 -26.4 -5.85 -27.05 M-3.45 -26.45 L-3.45 -26.4 -3.65 -26.15 -4.05 -26.2 -3.45 -26.45" fill="url(#gradient55)" fill-rule="evenodd" stroke="none"/>
    <path d="M-2.35 -26.65 L-2.2 -25.95 -2.3 -25.4 -2.85 -23.6 Q-3.9 -22.2 -5.1 -23.85 L-5.25 -25.5 -5.1 -25.85 -5.05 -26.05 -4.6 -26.35 -4.05 -26.2 -3.65 -26.15 -3.45 -26.4 -2.95 -26.5 -2.7 -26.8 -2.35 -26.65" fill="url(#gradient56)" fill-rule="evenodd" stroke="none"/>
    <path d="M-7.7 -24.7 Q-9.7 -22.0 -12.45 -24.5 -13.7 -27.8 -10.5 -28.7 -11.2 -26.25 -7.65 -26.75 L-7.45 -25.6 -7.7 -24.7" fill="url(#gradient57)" fill-rule="evenodd" stroke="none"/>
    <path d="M-7.45 -27.5 Q-6.3 -25.9 -7.7 -24.7 L-7.45 -25.6 -7.65 -26.75 -7.45 -27.5" fill="url(#gradient58)" fill-rule="evenodd" stroke="none"/>
    <path d="M-2.4 -30.15 L-2.45 -28.75 -2.9 -27.2 -3.45 -26.45 -4.05 -26.2 -4.6 -26.35 -4.85 -26.45 Q-5.4 -26.9 -5.55 -27.6 L-5.65 -29.15 Q-3.15 -28.15 -3.05 -29.75 L-2.6 -30.1 -2.5 -30.5 -2.4 -30.15" fill="url(#gradient59)" fill-rule="evenodd" stroke="none"/>
    <path d="M-1.45 -23.9 L-1.4 -23.9 -1.35 -23.95 -1.35 -23.75 -1.4 -23.75 -1.45 -23.9" fill="url(#gradient60)" fill-rule="evenodd" stroke="none"/>
    <path d="M-4.95 -17.3 Q-8.95 -19.7 -6.5 -23.25 L-5.4 -24.05 -5.1 -23.85 Q-3.9 -22.2 -2.85 -23.6 L-2.75 -23.65 -2.35 -22.6 Q0.65 -16.55 -4.95 -17.3" fill="url(#gradient61)" fill-rule="evenodd" stroke="none"/>
    <path d="M-5.6 -16.2 L-5.5 -16.3 -5.55 -16.2 -5.6 -16.2" fill="url(#gradient62)" fill-rule="evenodd" stroke="none"/>
    <path d="M-1.95 -15.65 Q-0.55 -13.2 -2.6 -9.15 -4.5 -6.65 -7.2 -9.75 -7.9 -14.15 -5.6 -16.2 L-5.55 -16.2 -5.85 -15.6 -5.5 -15.6 Q-5.55 -15.4 -3.6 -14.6 L-2.6 -14.55 -1.95 -15.65" fill="url(#gradient63)" fill-rule="evenodd" stroke="none"/>
    <path d="M-0.55 -17.55 L-0.8 -16.55 -1.65 -16.15 -0.55 -17.55" fill="url(#gradient64)" fill-rule="evenodd" stroke="none"/>
    <path d="M-2.6 -9.15 L-2.75 -8.2 Q-3.45 -6.95 -2.9 -4.15 L-3.3 -1.95 Q-4.3 -0.35 -7.25 -2.8 L-7.25 -2.85 -7.2 -3.2 -7.2 -3.25 -7.05 -3.3 -7.1 -3.55 -6.55 -4.5 -6.5 -4.5 -6.55 -4.65 -6.65 -5.0 -6.65 -5.1 -6.95 -6.1 -7.2 -9.75 Q-4.5 -6.65 -2.6 -9.15" fill="url(#gradient65)" fill-rule="evenodd" stroke="none"/>
    <path d="M-6.7 -5.0 L-6.65 -5.1 -6.65 -5.0 -6.7 -5.0 M-6.55 -4.65 L-6.5 -4.5 -6.55 -4.5 -6.55 -4.65" fill="url(#gradient66)" fill-rule="evenodd" stroke="none"/>
    <path d="M-2.75 -8.2 Q1.1 -9.2 -3.9 -0.15 -8.2 1.6 -7.25 -2.8 -4.3 -0.35 -3.3 -1.95 L-2.9 -4.15 Q-3.45 -6.95 -2.75 -8.2 M-7.2 -3.25 L-6.7 -5.0 -6.65 -5.0 -6.55 -4.65 -6.55 -4.5 -7.1 -3.55 -7.05 -3.3 -7.2 -3.25" fill="url(#gradient67)" fill-rule="evenodd" stroke="none"/>
  </g>
  <defs>
    <radialGradient cx="0" cy="0" gradientTransform="matrix(0.0104, 0.0, 0.0, 0.0104, 0.25, -48.85)" gradientUnits="userSpaceOnUse" id="gradient0" r="819.2" spreadMethod="pad">
      <stop offset="0.0" stop-color="#fdee47"/>
      <stop offset="1.0" stop-color="#a2982d"/>
    </radialGradient>
    <radialGradient cx="0" cy="0" gradientTransform="matrix(0.0037, 0.0, 0.0, 0.0037, 4.95, -54.8)" gradientUnits="userSpaceOnUse" id="gradient1" r="819.2" spreadMethod="pad">
      <stop offset="0.0" stop-color="#a69c2e"/>
      <stop offset="1.0" stop-color="#625c1b"/>
    </radialGradient>
    <radialGradient cx="0" cy="0" gradientTransform="matrix(0.0077, 0.0, 0.0, 0.0077, 6.0, -49.4)" gradientUnits="userSpaceOnUse" id="gradient2" r="819.2" spreadMethod="pad">
      <stop offset="0.0" stop-color="#fff749"/>
      <stop offset="1.0" stop-color="#aaa02f"/>
    </radialGradient>
    <radialGradient cx="0" cy="0" gradientTransform="matrix(0.0115, 0.0, 0.0, 0.0115, 4.7, -53.25)" gradientUnits="userSpaceOnUse" id="gradient3" r="819.2" spreadMethod="pad">
      <stop offset="0.0" stop-color="#fff649"/>
      <stop offset="1.0" stop-color="#aaa02f"/>
    </radialGradient>
    <radialGradient cx="0" cy="0" gradientTransform="matrix(0.0071, 0.0, 0.0, 0.0071, -0.35, -48.5)" gradientUnits="userSpaceOnUse" id="gradient4" r="819.2" spreadMethod="pad">
      <stop offset="0.0" stop-color="#fff048"/>
      <stop offset="1.0" stop-color="#b3a932"/>
    </radialGradient>
    <radialGradient cx="0" cy="0" gradientTransform="matrix(0.0066, 0.0, 0.0, 0.0066, -1.9, -44.35)" gradientUnits="userSpaceOnUse" id="gradient5" r="819.2" spreadMethod="pad">
      <stop offset="0.0" stop-color="#f9ea46"/>
      <stop offset="1.0" stop-color="#b9ae33"/>
    </radialGradient>
    <radialGradient cx="0" cy="0" gradientTransform="matrix(0.0243, 0.0, 0.0, 0.0243, 2.55, -27.4)" gradientUnits="userSpaceOnUse" id="gradient6" r="819.2" spreadMethod="pad">
      <stop offset="0.0" stop-color="#ffffff"/>
      <stop offset="1.0" stop-color="#8d8d8d"/>
    </radialGradient>
    <radialGradient cx="0" cy="0" gradientTransform="matrix(0.006, 0.0, 0.0, 0.006, -0.55, -41.05)" gradientUnits="userSpaceOnUse" id="gradient7" r="819.2" spreadMethod="pad">
      <stop offset="0.0" stop-color="#776d6d"/>
      <stop offset="1.0" stop-color="#5e5555"/>
    </radialGradient>
    <radialGradient cx="0" cy="0" gradientTransform="matrix(0.0043, 0.0, 0.0, 0.0043, 3.7, -41.8)" gradientUnits="userSpaceOnUse" id="gradient8" r="819.2" spreadMethod="pad">
      <stop offset="0.0" stop-color="#645b5b"/>
      <stop offset="1.0" stop-color="#4c4545"/>
    </radialGradient>
    <radialGradient cx="0" cy="0" gradientTransform="matrix(0.0033, 0.0, 0.0, 0.0033, 3.15, -42.35)" gradientUnits="userSpaceOnUse" id="gradient9" r="819.2" spreadMethod="pad">
      <stop offset="0.0" stop-color="#685f5f"/>
      <stop offset="1.0" stop-color="#494343"/>
    </radialGradient>
    <radialGradient cx="0" cy="0" gradientTransform="matrix(0.0023, 0.0, 0.0, 0.0023, 2.15, -45.7)" gradientUnits="userSpaceOnUse" id="gradient10" r="819.2" spreadMethod="pad">
      <stop offset="0.0" stop-color="#f1aa63"/>
      <stop offset="1.0" stop-color="#9f7041"/>
    </radialGradient>
    <radialGradient cx="0" cy="0" gradientTransform="matrix(0.0026, 0.0, 0.0, 0.0026, 2.15, -45.7)" gradientUnits="userSpaceOnUse" id="gradient11" r="819.2" spreadMethod="pad">
      <stop offset="0.0" stop-color="#f1aa63"/>
      <stop offset="1.0" stop-color="#e5a15e"/>
    </radialGradient>
    <radialGradient cx="0" cy="0" gradientTransform="matrix(0.004, 0.0, 0.0, 0.004, 3.5, -44.15)" gradientUnits="userSpaceOnUse" id="gradient12" r="819.2" spreadMethod="pad">
      <stop offset="0.0" stop-color="#d09355"/>
      <stop offset="1.0" stop-color="#ae7a47"/>
    </radialGradient>
    <radialGradient cx="0" cy="0" gradientTransform="matrix(0.0037, 0.0, 0.0, 0.0037, 5.1, -41.3)" gradientUnits="userSpaceOnUse" id="gradient13" r="819.2" spreadMethod="pad">
      <stop offset="0.0" stop-color="#3e6182"/>
      <stop offset="1.0" stop-color="#283f55"/>
    </radialGradient>
    <radialGradient cx="0" cy="0" gradientTransform="matrix(0.0026, 0.0, 0.0, 0.0026, 2.15, -45.7)" gradientUnits="userSpaceOnUse" id="gradient14" r="819.2" spreadMethod="pad">
      <stop offset="0.0" stop-color="#eda761"/>
      <stop offset="1.0" stop-color="#e29f5d"/>
    </radialGradient>
    <radialGradient cx="0" cy="0" gradientTransform="matrix(0.0071, 0.0, 0.0, 0.0071, 5.05, -38.8)" gradientUnits="userSpaceOnUse" id="gradient15" r="819.2" spreadMethod="pad">
      <stop offset="0.0" stop-color="#8d8181"/>
      <stop offset="1.0" stop-color="#403a3a"/>
    </radialGradient>
    <radialGradient cx="0" cy="0" gradientTransform="matrix(0.0127, 0.0, 0.0, 0.0127, -0.75, -40.55)" gradientUnits="userSpaceOnUse" id="gradient16" r="819.2" spreadMethod="pad">
      <stop offset="0.0" stop-color="#877b7b"/>
      <stop offset="1.0" stop-color="#4f4848"/>
    </radialGradient>
    <radialGradient cx="0" cy="0" gradientTransform="matrix(7.0E-4, 0.0, 0.0, 7.0E-4, 6.05, -41.05)" gradientUnits="userSpaceOnUse" id="gradient17" r="819.2" spreadMethod="pad">
      <stop offset="0.0" stop-color="#283f54"/>
      <stop offset="1.0" stop-color="#213446"/>
    </radialGradient>
    <radialGradient cx="0" cy="0" gradientTransform="matrix(1.0E-4, 0.0, 0.0, 1.0E-4, 6.3, -41.4)" gradientUnits="userSpaceOnUse" id="gradient18" r="819.2" spreadMethod="pad">
      <stop offset="0.0" stop-color="#406487"/>
      <stop offset="1.0" stop-color="#406487"/>
    </radialGradient>
    <radialGradient cx="0" cy="0" gradientTransform="matrix(0.0173, 0.0, 0.0, 0.0173, 5.45, -35.25)" gradientUnits="userSpaceOnUse" id="gradient19" r="819.2" spreadMethod="pad">
      <stop offset="0.0" stop-color="#ffd079"/>
      <stop offset="1.0" stop-color="#c88d52"/>
    </radialGradient>
    <radialGradient cx="0" cy="0" gradientTransform="matrix(0.0016, 0.0, 0.0, 0.0016, 7.45, -36.95)" gradientUnits="userSpaceOnUse" id="gradient20" r="819.2" spreadMethod="pad">
      <stop offset="0.0" stop-color="#b8b8b8"/>
      <stop offset="1.0" stop-color="#aeaeae"/>
    </radialGradient>
    <radialGradient cx="0" cy="0" gradientTransform="matrix(0.0012, 0.0, 0.0, 0.0012, 7.65, -37.9)" gradientUnits="userSpaceOnUse" id="gradient21" r="819.2" spreadMethod="pad">
      <stop offset="0.0" stop-color="#afafaf"/>
      <stop offset="1.0" stop-color="#aeaeae"/>
    </radialGradient>
    <radialGradient cx="0" cy="0" gradientTransform="matrix(0.0064, 0.0, 0.0, 0.0064, -1.65, -29.4)" gradientUnits="userSpaceOnUse" id="gradient22" r="819.2" spreadMethod="pad">
      <stop offset="0.0" stop-color="#2d465e"/>
      <stop offset="1.0" stop-color="#253a4f"/>
    </radialGradient>
    <radialGradient cx="0" cy="0" gradientTransform="matrix(0.0121, 0.0, 0.0, 0.0121, 5.8, -22.9)" gradientUnits="userSpaceOnUse" id="gradient23" r="819.2" spreadMethod="pad">
      <stop offset="0.0" stop-color="#ffda7f"/>
      <stop offset="1.0" stop-color="#a87645"/>
    </radialGradient>
    <radialGradient cx="0" cy="0" gradientTransform="matrix(0.0207, 0.0, 0.0, 0.0207, 2.35, -23.15)" gradientUnits="userSpaceOnUse" id="gradient24" r="819.2" spreadMethod="pad">
      <stop offset="0.0" stop-color="#8c7f7f"/>
      <stop offset="1.0" stop-color="#595151"/>
    </radialGradient>
    <radialGradient cx="0" cy="0" gradientTransform="matrix(0.0089, 0.0, 0.0, 0.0089, 2.85, -27.1)" gradientUnits="userSpaceOnUse" id="gradient25" r="819.2" spreadMethod="pad">
      <stop offset="0.0" stop-color="#988b8b"/>
      <stop offset="1.0" stop-color="#5a5151"/>
    </radialGradient>
    <radialGradient cx="0" cy="0" gradientTransform="matrix(0.0045, 0.0, 0.0, 0.0045, -0.25, -20.95)" gradientUnits="userSpaceOnUse" id="gradient26" r="819.2" spreadMethod="pad">
      <stop offset="0.0" stop-color="#3c3737"/>
      <stop offset="1.0" stop-color="#121010"/>
    </radialGradient>
    <radialGradient cx="0" cy="0" gradientTransform="matrix(0.0101, 0.0, 0.0, 0.0101, -1.95, -21.55)" gradientUnits="userSpaceOnUse" id="gradient27" r="819.2" spreadMethod="pad">
      <stop offset="0.0" stop-color="#605757"/>
      <stop offset="1.0" stop-color="#504949"/>
    </radialGradient>
    <radialGradient cx="0" cy="0" gradientTransform="matrix(0.0109, 0.0, 0.0, 0.0109, 1.7, -13.6)" gradientUnits="userSpaceOnUse" id="gradient28" r="819.2" spreadMethod="pad">
      <stop offset="0.0" stop-color="#484242"/>
      <stop offset="1.0" stop-color="#2c2828"/>
    </radialGradient>
    <radialGradient cx="0" cy="0" gradientTransform="matrix(0.004, 0.0, 0.0, 0.004, 6.45, -13.45)" gradientUnits="userSpaceOnUse" id="gradient29" r="819.2" spreadMethod="pad">
      <stop offset="0.0" stop-color="#ffe686"/>
      <stop offset="1.0" stop-color="#8c633a"/>
    </radialGradient>
    <radialGradient cx="0" cy="0" gradientTransform="matrix(0.0041, 0.0, 0.0, 0.0041, 5.9, -10.35)" gradientUnits="userSpaceOnUse" id="gradient30" r="819.2" spreadMethod="pad">
      <stop offset="0.0" stop-color="#d09355"/>
      <stop offset="1.0" stop-color="#94693d"/>
    </radialGradient>
    <radialGradient cx="0" cy="0" gradientTransform="matrix(0.0029, 0.0, 0.0, 0.0029, 6.1, -9.4)" gradientUnits="userSpaceOnUse" id="gradient31" r="819.2" spreadMethod="pad">
      <stop offset="0.0" stop-color="#e3a05d"/>
      <stop offset="1.0" stop-color="#dd9c5b"/>
    </radialGradient>
    <radialGradient cx="0" cy="0" gradientTransform="matrix(0.0115, 0.0, 0.0, 0.0115, 4.15, -9.4)" gradientUnits="userSpaceOnUse" id="gradient32" r="819.2" spreadMethod="pad">
      <stop offset="0.0" stop-color="#fff38d"/>
      <stop offset="1.0" stop-color="#92673c"/>
    </radialGradient>
    <radialGradient cx="0" cy="0" gradientTransform="matrix(0.0113, 0.0, 0.0, 0.0113, 4.8, 6.8)" gradientUnits="userSpaceOnUse" id="gradient33" r="819.2" spreadMethod="pad">
      <stop offset="0.0" stop-color="#eea862"/>
      <stop offset="1.0" stop-color="#9a6d3f"/>
    </radialGradient>
    <radialGradient cx="0" cy="0" gradientTransform="matrix(0.0056, 0.0, 0.0, 0.0056, 6.25, -1.4)" gradientUnits="userSpaceOnUse" id="gradient34" r="819.2" spreadMethod="pad">
      <stop offset="0.0" stop-color="#261b10"/>
      <stop offset="1.0" stop-color="#261b10"/>
    </radialGradient>
    <radialGradient cx="0" cy="0" gradientTransform="matrix(0.0101, 0.0, 0.0, 0.0101, 4.65, 5.85)" gradientUnits="userSpaceOnUse" id="gradient35" r="819.2" spreadMethod="pad">
      <stop offset="0.0" stop-color="#ffee8a"/>
      <stop offset="1.0" stop-color="#fdb66a"/>
    </radialGradient>
    <radialGradient cx="0" cy="0" gradientTransform="matrix(0.009, 0.0, 0.0, 0.009, -2.7, -47.3)" gradientUnits="userSpaceOnUse" id="gradient36" r="819.2" spreadMethod="pad">
      <stop offset="0.0" stop-color="#f9ea46"/>
      <stop offset="1.0" stop-color="#a69c2e"/>
    </radialGradient>
    <radialGradient cx="0" cy="0" gradientTransform="matrix(0.007, 0.0, 0.0, 0.007, -3.7, -45.85)" gradientUnits="userSpaceOnUse" id="gradient37" r="819.2" spreadMethod="pad">
      <stop offset="0.0" stop-color="#fbec46"/>
      <stop offset="1.0" stop-color="#b9af33"/>
    </radialGradient>
    <radialGradient cx="0" cy="0" gradientTransform="matrix(0.0154, 0.0, 0.0, 0.0154, -7.4, -44.2)" gradientUnits="userSpaceOnUse" id="gradient38" r="819.2" spreadMethod="pad">
      <stop offset="0.0" stop-color="#ffdb80"/>
      <stop offset="1.0" stop-color="#c58b51"/>
    </radialGradient>
    <radialGradient cx="0" cy="0" gradientTransform="matrix(0.0031, 0.0, 0.0, 0.0031, -5.3, -47.25)" gradientUnits="userSpaceOnUse" id="gradient39" r="819.2" spreadMethod="pad">
      <stop offset="0.0" stop-color="#222009"/>
      <stop offset="1.0" stop-color="#222009"/>
    </radialGradient>
    <radialGradient cx="0" cy="0" gradientTransform="matrix(0.0055, 0.0, 0.0, 0.0055, -7.35, -42.0)" gradientUnits="userSpaceOnUse" id="gradient40" r="819.2" spreadMethod="pad">
      <stop offset="0.0" stop-color="#706666"/>
      <stop offset="1.0" stop-color="#4a4343"/>
    </radialGradient>
    <radialGradient cx="0" cy="0" gradientTransform="matrix(0.0069, 0.0, 0.0, 0.0069, -4.3, -41.6)" gradientUnits="userSpaceOnUse" id="gradient41" r="819.2" spreadMethod="pad">
      <stop offset="0.0" stop-color="#fff649"/>
      <stop offset="1.0" stop-color="#b4a932"/>
    </radialGradient>
    <radialGradient cx="0" cy="0" gradientTransform="matrix(0.0089, 0.0, 0.0, 0.0089, -10.05, -40.1)" gradientUnits="userSpaceOnUse" id="gradient42" r="819.2" spreadMethod="pad">
      <stop offset="0.0" stop-color="#c0874f"/>
      <stop offset="1.0" stop-color="#261b10"/>
    </radialGradient>
    <radialGradient cx="0" cy="0" gradientTransform="matrix(0.0037, 0.0, 0.0, 0.0037, -7.1, -38.65)" gradientUnits="userSpaceOnUse" id="gradient43" r="819.2" spreadMethod="pad">
      <stop offset="0.0" stop-color="#a49a2e"/>
      <stop offset="1.0" stop-color="#5e591a"/>
    </radialGradient>
    <radialGradient cx="0" cy="0" gradientTransform="matrix(0.0068, 0.0, 0.0, 0.0068, -3.65, -40.5)" gradientUnits="userSpaceOnUse" id="gradient44" r="819.2" spreadMethod="pad">
      <stop offset="0.0" stop-color="#fff649"/>
      <stop offset="1.0" stop-color="#b7ab33"/>
    </radialGradient>
    <radialGradient cx="0" cy="0" gradientTransform="matrix(0.0096, 0.0, 0.0, 0.0096, -8.7, -33.15)" gradientUnits="userSpaceOnUse" id="gradient45" r="819.2" spreadMethod="pad">
      <stop offset="0.0" stop-color="#ffdd81"/>
      <stop offset="1.0" stop-color="#a07142"/>
    </radialGradient>
    <radialGradient cx="0" cy="0" gradientTransform="matrix(0.0047, 0.0, 0.0, 0.0047, -4.95, -36.05)" gradientUnits="userSpaceOnUse" id="gradient46" r="819.2" spreadMethod="pad">
      <stop offset="0.0" stop-color="#fff348"/>
      <stop offset="1.0" stop-color="#888026"/>
    </radialGradient>
    <radialGradient cx="0" cy="0" gradientTransform="matrix(0.0065, 0.0, 0.0, 0.0065, -5.3, -37.4)" gradientUnits="userSpaceOnUse" id="gradient47" r="819.2" spreadMethod="pad">
      <stop offset="0.0" stop-color="#fdee47"/>
      <stop offset="1.0" stop-color="#9b922b"/>
    </radialGradient>
    <radialGradient cx="0" cy="0" gradientTransform="matrix(0.0046, 0.0, 0.0, 0.0046, -4.45, -32.45)" gradientUnits="userSpaceOnUse" id="gradient48" r="819.2" spreadMethod="pad">
      <stop offset="0.0" stop-color="#fff94a"/>
      <stop offset="1.0" stop-color="#847c25"/>
    </radialGradient>
    <radialGradient cx="0" cy="0" gradientTransform="matrix(0.0018, 0.0, 0.0, 0.0018, -7.45, -36.05)" gradientUnits="userSpaceOnUse" id="gradient49" r="819.2" spreadMethod="pad">
      <stop offset="0.0" stop-color="#b2a832"/>
      <stop offset="1.0" stop-color="#a2992d"/>
    </radialGradient>
    <radialGradient cx="0" cy="0" gradientTransform="matrix(0.0024, 0.0, 0.0, 0.0024, -7.25, -34.6)" gradientUnits="userSpaceOnUse" id="gradient50" r="819.2" spreadMethod="pad">
      <stop offset="0.0" stop-color="#a2992d"/>
      <stop offset="1.0" stop-color="#918828"/>
    </radialGradient>
    <radialGradient cx="0" cy="0" gradientTransform="matrix(0.0053, 0.0, 0.0, 0.0053, -5.7, -33.1)" gradientUnits="userSpaceOnUse" id="gradient51" r="819.2" spreadMethod="pad">
      <stop offset="0.0" stop-color="#f4e644"/>
      <stop offset="1.0" stop-color="#a1972d"/>
    </radialGradient>
    <radialGradient cx="0" cy="0" gradientTransform="matrix(0.0049, 0.0, 0.0, 0.0049, -5.25, -29.85)" gradientUnits="userSpaceOnUse" id="gradient52" r="819.2" spreadMethod="pad">
      <stop offset="0.0" stop-color="#f8e945"/>
      <stop offset="1.0" stop-color="#887f25"/>
    </radialGradient>
    <radialGradient cx="0" cy="0" gradientTransform="matrix(0.003, 0.0, 0.0, 0.003, -5.85, -27.1)" gradientUnits="userSpaceOnUse" id="gradient53" r="819.2" spreadMethod="pad">
      <stop offset="0.0" stop-color="#787122"/>
      <stop offset="1.0" stop-color="#222009"/>
    </radialGradient>
    <radialGradient cx="0" cy="0" gradientTransform="matrix(0.0071, 0.0, 0.0, 0.0071, -5.45, -26.6)" gradientUnits="userSpaceOnUse" id="gradient54" r="819.2" spreadMethod="pad">
      <stop offset="0.0" stop-color="#635a5a"/>
      <stop offset="1.0" stop-color="#3e3838"/>
    </radialGradient>
    <radialGradient cx="0" cy="0" gradientTransform="matrix(0.0043, 0.0, 0.0, 0.0043, -3.4, -26.95)" gradientUnits="userSpaceOnUse" id="gradient55" r="819.2" spreadMethod="pad">
      <stop offset="0.0" stop-color="#fffb4b"/>
      <stop offset="1.0" stop-color="#8b8227"/>
    </radialGradient>
    <radialGradient cx="0" cy="0" gradientTransform="matrix(0.0041, 0.0, 0.0, 0.0041, -4.6, -26.3)" gradientUnits="userSpaceOnUse" id="gradient56" r="819.2" spreadMethod="pad">
      <stop offset="0.0" stop-color="#ffff4c"/>
      <stop offset="1.0" stop-color="#867e25"/>
    </radialGradient>
    <radialGradient cx="0" cy="0" gradientTransform="matrix(0.0037, 0.0, 0.0, 0.0037, -10.4, -26.35)" gradientUnits="userSpaceOnUse" id="gradient57" r="819.2" spreadMethod="pad">
      <stop offset="0.0" stop-color="#ffef8b"/>
      <stop offset="1.0" stop-color="#996c3f"/>
    </radialGradient>
    <radialGradient cx="0" cy="0" gradientTransform="matrix(0.0024, 0.0, 0.0, 0.0024, -7.95, -26.6)" gradientUnits="userSpaceOnUse" id="gradient58" r="819.2" spreadMethod="pad">
      <stop offset="0.0" stop-color="#ffe988"/>
      <stop offset="1.0" stop-color="#b37e49"/>
    </radialGradient>
    <radialGradient cx="0" cy="0" gradientTransform="matrix(0.0042, 0.0, 0.0, 0.0042, -4.1, -29.75)" gradientUnits="userSpaceOnUse" id="gradient59" r="819.2" spreadMethod="pad">
      <stop offset="0.0" stop-color="#fffc4b"/>
      <stop offset="1.0" stop-color="#736c20"/>
    </radialGradient>
    <radialGradient cx="0" cy="0" gradientTransform="matrix(0.021, 0.0, 0.0, 0.021, -7.65, -39.5)" gradientUnits="userSpaceOnUse" id="gradient60" r="819.2" spreadMethod="pad">
      <stop offset="0.0" stop-color="#9e9e9e"/>
      <stop offset="1.0" stop-color="#202020"/>
    </radialGradient>
    <radialGradient cx="0" cy="0" gradientTransform="matrix(0.0078, 0.0, 0.0, 0.0078, -3.85, -23.4)" gradientUnits="userSpaceOnUse" id="gradient61" r="819.2" spreadMethod="pad">
      <stop offset="0.0" stop-color="#ffff50"/>
      <stop offset="1.0" stop-color="#807824"/>
    </radialGradient>
    <radialGradient cx="0" cy="0" gradientTransform="matrix(0.0034, 0.0, 0.0, 0.0034, -4.95, -17.45)" gradientUnits="userSpaceOnUse" id="gradient62" r="819.2" spreadMethod="pad">
      <stop offset="0.0" stop-color="#121010"/>
      <stop offset="1.0" stop-color="#121010"/>
    </radialGradient>
    <radialGradient cx="0" cy="0" gradientTransform="matrix(0.0098, 0.0, 0.0, 0.0098, -4.05, -15.85)" gradientUnits="userSpaceOnUse" id="gradient63" r="819.2" spreadMethod="pad">
      <stop offset="0.0" stop-color="#fff68f"/>
      <stop offset="1.0" stop-color="#8f653a"/>
    </radialGradient>
    <radialGradient cx="0" cy="0" gradientTransform="matrix(0.003, 0.0, 0.0, 0.003, -2.0, -17.0)" gradientUnits="userSpaceOnUse" id="gradient64" r="819.2" spreadMethod="pad">
      <stop offset="0.0" stop-color="#f6ad65"/>
      <stop offset="1.0" stop-color="#9f7041"/>
    </radialGradient>
    <radialGradient cx="0" cy="0" gradientTransform="matrix(0.0111, 0.0, 0.0, 0.0111, -5.95, -1.05)" gradientUnits="userSpaceOnUse" id="gradient65" r="819.2" spreadMethod="pad">
      <stop offset="0.0" stop-color="#cf9255"/>
      <stop offset="1.0" stop-color="#9b6d3f"/>
    </radialGradient>
    <radialGradient cx="0" cy="0" gradientTransform="matrix(0.0086, 0.0, 0.0, 0.0086, -6.3, -3.85)" gradientUnits="userSpaceOnUse" id="gradient66" r="819.2" spreadMethod="pad">
      <stop offset="0.0" stop-color="#a47443"/>
      <stop offset="1.0" stop-color="#6b4b2c"/>
    </radialGradient>
    <radialGradient cx="0" cy="0" gradientTransform="matrix(0.0086, 0.0, 0.0, 0.0086, -6.0, -2.6)" gradientUnits="userSpaceOnUse" id="gradient67" r="819.2" spreadMethod="pad">
      <stop offset="0.0" stop-color="#fff991"/>
      <stop offset="1.0" stop-color="#be864e"/>
    </radialGradient>
  </defs>
</svg>
