<?xml version="1.0" encoding="UTF-8" standalone="no"?>
<svg xmlns:ffdec="https://www.free-decompiler.com/flash" xmlns:xlink="http://www.w3.org/1999/xlink" ffdec:objectType="shape" height="63.75px" width="30.4px" xmlns="http://www.w3.org/2000/svg">
  <g transform="matrix(1.0, 0.0, 0.0, 1.0, 13.75, 53.55)">
    <path d="M-1.8 -51.65 Q0.35 -54.75 5.4 -52.8 L5.85 -52.55 7.65 -51.15 8.65 -49.3 8.65 -49.25 Q7.9 -48.45 8.6 -45.85 L8.55 -45.7 7.9 -45.0 7.3 -44.8 Q7.7 -45.45 7.55 -46.5 L7.0 -47.45 Q4.3 -47.35 3.15 -45.75 3.05 -46.15 1.65 -45.35 L-0.2 -44.1 Q-3.15 -46.75 -1.85 -51.55 L-1.8 -51.65" fill="url(#gradient0)" fill-rule="evenodd" stroke="none"/>
    <path d="M8.75 -49.2 Q11.0 -49.95 11.75 -45.0 L11.45 -43.7 10.65 -42.65 Q10.85 -45.35 8.6 -45.85 7.9 -48.45 8.65 -49.25 L8.75 -49.2" fill="url(#gradient1)" fill-rule="evenodd" stroke="none"/>
    <path d="M8.65 -49.3 L8.75 -49.2 8.65 -49.25 8.65 -49.3" fill="url(#gradient2)" fill-rule="evenodd" stroke="none"/>
    <path d="M3.15 -45.75 Q4.3 -47.35 7.0 -47.45 L7.55 -46.5 Q7.7 -45.45 7.3 -44.8 L7.05 -44.2 3.7 -39.85 3.55 -39.75 3.45 -39.6 2.15 -38.45 1.8 -38.2 1.85 -38.7 2.15 -39.8 2.3 -40.45 2.7 -42.85 3.2 -45.3 3.15 -45.75" fill="url(#gradient3)" fill-rule="evenodd" stroke="none"/>
    <path d="M8.55 -45.7 Q8.0 -43.7 7.85 -43.85 L7.7 -42.6 7.4 -41.7 7.25 -41.3 6.45 -40.75 Q5.85 -39.6 5.5 -39.55 L4.35 -39.55 3.9 -39.75 3.8 -39.8 3.7 -39.85 7.05 -44.2 7.3 -44.8 7.9 -45.0 8.55 -45.7 M0.95 -41.45 L0.85 -42.45 0.85 -42.6 2.7 -42.85 2.3 -40.45 1.6 -40.8 0.95 -41.45" fill="url(#gradient4)" fill-rule="evenodd" stroke="none"/>
    <path d="M-0.2 -44.1 L1.65 -45.35 Q3.05 -46.15 3.15 -45.75 L3.2 -45.3 2.7 -42.85 0.85 -42.6 0.8 -42.6 0.5 -42.6 -1.1 -42.85 -1.85 -43.25 -1.9 -43.35 -0.95 -43.65 -0.2 -44.1" fill="url(#gradient5)" fill-rule="evenodd" stroke="none"/>
    <path d="M0.8 -42.6 L0.85 -42.45 0.95 -41.45 0.45 -42.15 0.5 -42.6 0.8 -42.6" fill="url(#gradient6)" fill-rule="evenodd" stroke="none"/>
    <path d="M0.85 -42.45 L0.8 -42.6 0.85 -42.6 0.85 -42.45" fill="url(#gradient7)" fill-rule="evenodd" stroke="none"/>
    <path d="M0.5 -42.6 L0.45 -42.15 0.95 -41.45 1.6 -40.8 2.3 -40.45 2.15 -39.8 0.95 -39.85 -0.9 -41.8 -1.25 -42.6 -1.15 -42.85 -1.1 -42.85 0.5 -42.6" fill="url(#gradient8)" fill-rule="evenodd" stroke="none"/>
    <path d="M3.7 -39.85 L3.8 -39.8 3.55 -39.75 3.7 -39.85 M3.9 -39.75 L4.35 -39.55 5.4 -37.9 5.45 -37.85 5.75 -37.6 6.35 -34.65 6.4 -34.6 6.15 -34.5 5.65 -34.75 5.55 -34.8 4.85 -35.35 2.15 -38.45 3.45 -39.6 5.4 -37.9 3.9 -39.65 3.9 -39.75 M1.85 -38.7 L0.95 -39.85 2.15 -39.8 1.85 -38.7 M1.15 -32.9 L1.15 -32.5 0.85 -31.85 0.3 -31.6 Q0.4 -32.3 -0.9 -35.2 L-2.2 -36.8 -1.8 -37.7 Q-0.2 -36.35 1.1 -33.35 L1.15 -32.9" fill="url(#gradient9)" fill-rule="evenodd" stroke="none"/>
    <path d="M7.7 -42.6 L9.5 -39.7 11.65 -36.9 12.1 -35.85 12.05 -35.4 11.65 -33.95 11.05 -32.8 8.55 -30.45 8.25 -29.9 8.1 -29.3 7.5 -28.2 Q4.75 -25.35 0.45 -27.7 L0.05 -28.85 0.2 -29.4 0.3 -31.6 0.85 -31.85 1.15 -32.5 1.15 -32.9 1.3 -33.1 1.1 -33.35 Q-0.2 -36.35 -1.8 -37.7 -4.5 -39.6 -5.0 -38.6 L-5.35 -38.4 -5.45 -37.85 -5.3 -37.05 -5.3 -36.95 -5.3 -36.8 -5.35 -36.8 -5.45 -37.05 -5.5 -37.1 -5.55 -37.55 -5.55 -37.75 -5.65 -38.5 -5.35 -39.55 -4.15 -41.1 Q-3.95 -41.3 -3.7 -41.45 L-3.05 -41.95 -1.3 -42.6 -1.25 -42.6 -0.9 -41.8 0.95 -39.85 1.85 -38.7 1.8 -38.2 2.15 -38.45 4.85 -35.35 5.0 -35.05 5.55 -34.8 5.65 -34.75 6.15 -34.5 6.3 -34.4 Q8.45 -33.1 8.15 -32.3 L8.3 -32.35 Q9.9 -34.1 8.55 -37.15 L8.1 -38.7 7.75 -39.2 6.45 -40.75 7.25 -41.3 7.4 -41.7 7.7 -42.6 M6.85 -26.4 Q6.05 -21.8 2.85 -21.25 L2.85 -21.3 3.0 -21.45 3.05 -21.8 2.75 -22.35 2.75 -22.55 2.25 -22.9 1.9 -23.0 1.4 -23.25 1.15 -24.75 Q5.4 -22.3 6.85 -26.4" fill="url(#gradient10)" fill-rule="evenodd" stroke="none"/>
    <path d="M3.8 -39.8 L3.9 -39.75 3.9 -39.65 5.4 -37.9 3.45 -39.6 3.55 -39.75 3.8 -39.8 M4.35 -39.55 L5.5 -39.55 Q5.85 -39.6 6.45 -40.75 L7.75 -39.2 Q8.0 -35.5 6.35 -34.65 L5.75 -37.6 5.45 -37.85 5.4 -37.9 4.35 -39.55" fill="url(#gradient11)" fill-rule="evenodd" stroke="none"/>
    <path d="M6.4 -34.6 L6.35 -34.65 Q8.0 -35.5 7.75 -39.2 L8.1 -38.7 8.55 -37.15 8.7 -35.2 8.15 -33.25 6.9 -34.15 6.7 -34.5 6.4 -34.6 M2.75 -22.35 L3.05 -21.8 3.0 -21.45 2.75 -21.45 2.75 -22.35" fill="url(#gradient12)" fill-rule="evenodd" stroke="none"/>
    <path d="M4.85 -35.35 L5.55 -34.8 5.0 -35.05 4.85 -35.35 M6.15 -34.5 L6.4 -34.6 6.7 -34.5 6.9 -34.15 6.3 -34.4 6.15 -34.5" fill="url(#gradient13)" fill-rule="evenodd" stroke="none"/>
    <path d="M8.3 -32.35 L8.15 -32.3 Q8.45 -33.1 6.3 -34.4 L6.9 -34.15 8.15 -33.25 8.3 -33.05 8.3 -32.35" fill="url(#gradient14)" fill-rule="evenodd" stroke="none"/>
    <path d="M8.55 -37.15 Q9.9 -34.1 8.3 -32.35 L8.3 -33.05 8.15 -33.25 8.7 -35.2 8.55 -37.15" fill="url(#gradient15)" fill-rule="evenodd" stroke="none"/>
    <path d="M1.15 -32.9 L1.1 -33.35 1.3 -33.1 1.15 -32.9" fill="url(#gradient16)" fill-rule="evenodd" stroke="none"/>
    <path d="M-4.9 -29.75 L-4.9 -29.8 -4.95 -29.85 Q-8.05 -35.45 -5.45 -36.55 L-5.4 -36.6 -5.35 -36.65 -5.3 -36.75 -4.85 -36.9 -2.2 -36.8 -0.9 -35.2 Q0.4 -32.3 0.3 -31.6 L0.2 -29.4 0.05 -28.85 0.45 -27.7 1.15 -24.75 1.4 -23.25 1.5 -22.85 Q0.3 -20.05 -2.15 -21.3 L-2.2 -21.4 -2.65 -22.75 -3.4 -24.55 -4.25 -27.7 -4.7 -29.4 -4.9 -29.75" fill="url(#gradient17)" fill-rule="evenodd" stroke="none"/>
    <path d="M8.1 -29.3 Q11.5 -18.65 8.95 -15.05 L8.35 -14.55 Q7.45 -13.9 6.75 -13.9 L5.85 -13.9 5.5 -13.75 4.5 -16.1 4.15 -17.75 3.25 -20.35 2.75 -21.05 2.85 -21.25 Q6.05 -21.8 6.85 -26.4 L7.45 -27.5 7.5 -28.2 8.1 -29.3" fill="url(#gradient18)" fill-rule="evenodd" stroke="none"/>
    <path d="M0.45 -27.7 Q4.75 -25.35 7.5 -28.2 L7.45 -27.5 6.85 -26.4 Q5.4 -22.3 1.15 -24.75 L0.45 -27.7" fill="url(#gradient19)" fill-rule="evenodd" stroke="none"/>
    <path d="M12.05 -35.4 L11.9 -34.45 11.65 -33.95 12.05 -35.4" fill="url(#gradient20)" fill-rule="evenodd" stroke="none"/>
    <path d="M1.5 -13.85 L1.0 -12.75 0.2 -11.5 -0.2 -11.2 -2.15 -10.45 -3.25 -10.75 -3.3 -10.75 -3.45 -10.65 -3.55 -10.6 -3.85 -10.5 -4.0 -10.5 -4.55 -11.2 -4.6 -11.6 -4.45 -12.2 -4.55 -12.5 -4.65 -12.65 -5.0 -13.2 Q-6.6 -18.0 -5.45 -22.2 -4.6 -21.3 -4.1 -21.7 L-2.65 -22.75 -2.2 -21.4 -2.2 -21.3 -2.05 -20.2 -1.15 -17.75 1.5 -13.85 M2.85 -21.25 L2.75 -21.05 1.5 -22.85 1.4 -23.25 1.9 -23.0 2.15 -22.75 2.25 -22.9 2.75 -22.55 2.75 -22.35 2.75 -21.45 2.85 -21.3 2.85 -21.25" fill="url(#gradient21)" fill-rule="evenodd" stroke="none"/>
    <path d="M-5.45 -22.2 L-5.85 -23.25 -5.85 -23.85 -5.9 -24.05 -6.1 -24.9 -5.7 -25.7 -5.4 -26.5 -4.25 -27.7 -3.4 -24.55 -2.65 -22.75 -4.1 -21.7 Q-4.6 -21.3 -5.45 -22.2 M2.25 -22.9 L2.15 -22.75 1.9 -23.0 2.25 -22.9" fill="url(#gradient22)" fill-rule="evenodd" stroke="none"/>
    <path d="M-5.6 -37.55 L-5.55 -37.75 -5.55 -37.55 -5.6 -37.55 M2.75 -21.45 L3.0 -21.45 2.85 -21.3 2.75 -21.45 M-5.3 -37.05 L-5.45 -37.85 -5.35 -38.4 -5.0 -38.6 -5.25 -37.05 -5.3 -37.05" fill="url(#gradient23)" fill-rule="evenodd" stroke="none"/>
    <path d="M3.15 -11.15 L1.5 -13.85 -1.15 -17.75 -2.05 -20.2 -2.2 -21.3 -2.15 -21.3 Q0.3 -20.05 1.5 -22.85 L2.75 -21.05 3.25 -20.35 4.15 -17.75 4.5 -16.1 5.5 -13.75 5.45 -12.55 4.45 -11.55 Q3.15 -10.7 3.15 -11.15" fill="url(#gradient24)" fill-rule="evenodd" stroke="none"/>
    <path d="M8.75 -12.65 L9.25 -11.65 9.25 -10.9 9.0 -10.6 Q8.8 -11.65 7.75 -12.15 L5.45 -12.55 5.5 -13.75 5.85 -13.9 6.75 -13.9 7.95 -13.4 8.75 -12.65" fill="url(#gradient25)" fill-rule="evenodd" stroke="none"/>
    <path d="M8.95 -15.05 L9.05 -13.75 8.75 -12.65 7.95 -13.4 6.75 -13.9 Q7.45 -13.9 8.35 -14.55 L8.95 -15.05" fill="url(#gradient26)" fill-rule="evenodd" stroke="none"/>
    <path d="M9.25 -11.65 Q9.7 -11.15 10.15 -9.3 L10.25 -6.5 10.1 -6.05 Q7.8 -3.2 5.7 -5.2 L5.6 -5.3 4.75 -6.85 4.45 -8.1 Q8.65 -6.85 9.0 -10.6 L9.25 -10.9 9.25 -11.65" fill="url(#gradient27)" fill-rule="evenodd" stroke="none"/>
    <path d="M4.45 -8.1 Q2.7 -9.45 3.15 -11.15 3.15 -10.7 4.45 -11.55 L5.45 -12.55 7.75 -12.15 Q8.8 -11.65 9.0 -10.6 8.65 -6.85 4.45 -8.1" fill="url(#gradient28)" fill-rule="evenodd" stroke="none"/>
    <path d="M5.65 -5.2 L5.6 -5.3 5.7 -5.2 5.65 -5.2" fill="url(#gradient29)" fill-rule="evenodd" stroke="none"/>
    <path d="M10.25 -6.5 Q11.0 -0.7 10.9 0.7 L11.8 2.2 Q12.8 4.2 7.85 4.4 7.7 3.75 7.2 3.35 L7.05 2.25 6.65 -1.35 5.65 -5.2 5.7 -5.2 Q7.8 -3.2 10.1 -6.05 L10.25 -6.5" fill="url(#gradient30)" fill-rule="evenodd" stroke="none"/>
    <path d="M16.55 8.45 L15.8 9.75 16.1 8.85 16.55 8.45" fill="url(#gradient31)" fill-rule="evenodd" stroke="none"/>
    <path d="M11.8 2.2 Q17.4 6.2 16.55 8.45 L16.1 8.85 15.8 9.75 Q16.15 10.55 14.2 9.95 L8.6 6.0 7.0 4.3 6.7 2.75 7.05 2.25 7.2 3.35 Q7.7 3.75 7.85 4.4 12.8 4.2 11.8 2.2" fill="url(#gradient32)" fill-rule="evenodd" stroke="none"/>
    <path d="M-1.9 -51.55 L-1.8 -51.65 -1.85 -51.55 -1.9 -51.55" fill="url(#gradient33)" fill-rule="evenodd" stroke="none"/>
    <path d="M-3.8 -47.65 L-3.85 -49.4 -2.5 -51.2 -1.9 -51.55 -1.85 -51.55 Q-3.15 -46.75 -0.2 -44.1 L-0.95 -43.65 Q-1.4 -43.85 -3.25 -46.35 L-3.8 -47.65" fill="url(#gradient34)" fill-rule="evenodd" stroke="none"/>
    <path d="M-5.35 -42.7 Q-5.45 -43.45 -4.75 -45.05 L-4.2 -45.7 Q-4.3 -43.4 -1.9 -43.25 L-1.3 -42.85 -1.3 -42.6 -3.05 -41.95 -3.7 -41.45 -4.85 -41.9 -5.3 -42.65 -5.35 -42.7" fill="url(#gradient35)" fill-rule="evenodd" stroke="none"/>
    <path d="M-4.2 -45.7 L-4.2 -46.55 -3.8 -47.65 -3.25 -46.35 Q-1.4 -43.85 -0.95 -43.65 L-1.9 -43.35 -1.85 -43.25 -1.9 -43.25 Q-4.3 -43.4 -4.2 -45.7" fill="url(#gradient36)" fill-rule="evenodd" stroke="none"/>
    <path d="M-5.35 -39.55 Q-5.8 -39.75 -5.7 -41.75 L-5.35 -42.7 -5.3 -42.65 -4.85 -41.9 -3.7 -41.45 Q-3.95 -41.3 -4.15 -41.1 L-5.35 -39.55" fill="url(#gradient37)" fill-rule="evenodd" stroke="none"/>
    <path d="M-5.45 -36.6 L-5.6 -37.55 -5.55 -37.55 -5.5 -37.1 -5.45 -37.05 -5.35 -36.8 -5.35 -36.65 -5.4 -36.6 -5.45 -36.6" fill="url(#gradient38)" fill-rule="evenodd" stroke="none"/>
    <path d="M-1.25 -42.6 L-1.3 -42.6 -1.3 -42.85 -1.15 -42.85 -1.25 -42.6" fill="url(#gradient39)" fill-rule="evenodd" stroke="none"/>
    <path d="M-1.85 -43.25 L-1.1 -42.85 -1.15 -42.85 -1.3 -42.85 -1.9 -43.25 -1.85 -43.25" fill="url(#gradient40)" fill-rule="evenodd" stroke="none"/>
    <path d="M-1.8 -37.7 L-2.2 -36.8 -4.85 -36.9 -5.3 -36.75 -5.3 -36.8 -5.3 -36.95 -5.25 -37.05 -5.0 -38.6 Q-4.5 -39.6 -1.8 -37.7" fill="url(#gradient41)" fill-rule="evenodd" stroke="none"/>
    <path d="M-5.3 -36.75 L-5.35 -36.65 -5.35 -36.8 -5.3 -36.8 -5.3 -36.75 M-5.3 -37.05 L-5.25 -37.05 -5.3 -36.95 -5.3 -37.05" fill="url(#gradient42)" fill-rule="evenodd" stroke="none"/>
    <path d="M-5.45 -36.55 L-5.45 -36.6 -5.4 -36.6 -5.45 -36.55 M-2.2 -21.3 L-2.2 -21.4 -2.15 -21.3 -2.2 -21.3" fill="url(#gradient43)" fill-rule="evenodd" stroke="none"/>
    <path d="M-5.7 -25.7 L-5.8 -26.05 -5.85 -26.1 -5.95 -26.5 -5.95 -26.7 Q-6.2 -29.05 -4.9 -29.75 L-4.7 -29.4 -4.25 -27.7 -5.4 -26.5 -5.7 -25.7" fill="url(#gradient44)" fill-rule="evenodd" stroke="none"/>
    <path d="M-1.45 -9.65 Q-1.7 -7.6 -6.65 -7.15 L-7.45 -7.3 -7.7 -7.4 Q-9.95 -8.35 -8.55 -11.25 L-7.2 -12.35 Q-6.3 -13.0 -5.0 -13.2 L-4.65 -12.65 -5.05 -11.65 -5.3 -11.25 -4.6 -11.6 -4.55 -11.2 -4.0 -10.5 -3.85 -10.5 -3.55 -10.55 Q-2.85 -7.3 -1.45 -9.65" fill="url(#gradient45)" fill-rule="evenodd" stroke="none"/>
    <path d="M-4.65 -12.65 L-4.55 -12.5 -5.05 -11.65 -4.65 -12.65" fill="url(#gradient46)" fill-rule="evenodd" stroke="none"/>
    <path d="M-8.3 -6.65 Q-6.05 -4.15 -6.25 -1.4 L-6.35 -1.35 -6.4 -1.35 -7.35 -1.2 -8.25 -0.6 Q-12.7 -2.45 -13.75 -7.65 -13.85 -12.05 -10.4 -10.2 -13.7 -7.85 -11.75 -6.05 -10.4 -4.6 -9.3 -6.05 L-8.75 -6.55 -8.3 -6.65" fill="url(#gradient47)" fill-rule="evenodd" stroke="none"/>
    <path d="M-6.65 -7.15 L-8.3 -6.65 -8.75 -6.55 -9.3 -6.05 Q-10.4 -4.6 -11.75 -6.05 -13.7 -7.85 -10.4 -10.2 L-8.55 -11.25 Q-9.95 -8.35 -7.7 -7.4 L-7.45 -7.3 -6.65 -7.15" fill="url(#gradient48)" fill-rule="evenodd" stroke="none"/>
    <path d="M0.2 -11.5 L-0.45 -10.35 -1.45 -9.65 Q-2.85 -7.3 -3.55 -10.55 L-3.55 -10.6 -3.45 -10.65 -3.25 -10.75 -2.15 -10.45 -0.2 -11.2 0.2 -11.5" fill="url(#gradient49)" fill-rule="evenodd" stroke="none"/>
    <path d="M-5.05 -11.65 L-4.55 -12.5 -4.45 -12.2 -4.6 -11.6 -5.3 -11.25 -5.05 -11.65" fill="url(#gradient50)" fill-rule="evenodd" stroke="none"/>
    <path d="M-3.85 -10.5 L-3.55 -10.6 -3.55 -10.55 -3.85 -10.5 M-3.45 -10.65 L-3.3 -10.75 -3.25 -10.75 -3.45 -10.65" fill="url(#gradient51)" fill-rule="evenodd" stroke="none"/>
    <path d="M-6.4 -1.35 L-8.25 -0.6 -7.35 -1.2 -6.4 -1.35" fill="url(#gradient52)" fill-rule="evenodd" stroke="none"/>
  </g>
  <defs>
    <radialGradient cx="0" cy="0" gradientTransform="matrix(0.0091, 0.0, 0.0, 0.0091, 4.1, -47.3)" gradientUnits="userSpaceOnUse" id="gradient0" r="819.2" spreadMethod="pad">
      <stop offset="0.0" stop-color="#feef47"/>
      <stop offset="1.0" stop-color="#a89e2f"/>
    </radialGradient>
    <radialGradient cx="0" cy="0" gradientTransform="matrix(0.007, 0.0, 0.0, 0.007, 7.6, -47.65)" gradientUnits="userSpaceOnUse" id="gradient1" r="819.2" spreadMethod="pad">
      <stop offset="0.0" stop-color="#feef47"/>
      <stop offset="1.0" stop-color="#8b8326"/>
    </radialGradient>
    <radialGradient cx="0" cy="0" gradientTransform="matrix(0.0019, 0.0, 0.0, 0.0019, 7.4, -48.4)" gradientUnits="userSpaceOnUse" id="gradient2" r="819.2" spreadMethod="pad">
      <stop offset="0.0" stop-color="#ada331"/>
      <stop offset="1.0" stop-color="#948b29"/>
    </radialGradient>
    <radialGradient cx="0" cy="0" gradientTransform="matrix(0.0101, 0.0, 0.0, 0.0101, 5.1, -45.85)" gradientUnits="userSpaceOnUse" id="gradient3" r="819.2" spreadMethod="pad">
      <stop offset="0.0" stop-color="#f9ea46"/>
      <stop offset="1.0" stop-color="#898126"/>
    </radialGradient>
    <radialGradient cx="0" cy="0" gradientTransform="matrix(0.0087, 0.0, 0.0, 0.0087, 4.9, -46.7)" gradientUnits="userSpaceOnUse" id="gradient4" r="819.2" spreadMethod="pad">
      <stop offset="0.0" stop-color="#ffc573"/>
      <stop offset="1.0" stop-color="#9f7041"/>
    </radialGradient>
    <radialGradient cx="0" cy="0" gradientTransform="matrix(0.0067, 0.0, 0.0, 0.0067, 3.2, -45.2)" gradientUnits="userSpaceOnUse" id="gradient5" r="819.2" spreadMethod="pad">
      <stop offset="0.0" stop-color="#f6e745"/>
      <stop offset="1.0" stop-color="#9f952c"/>
    </radialGradient>
    <radialGradient cx="0" cy="0" gradientTransform="matrix(0.0031, 0.0, 0.0, 0.0031, 0.7, -44.15)" gradientUnits="userSpaceOnUse" id="gradient6" r="819.2" spreadMethod="pad">
      <stop offset="0.0" stop-color="#e19e5c"/>
      <stop offset="1.0" stop-color="#d99959"/>
    </radialGradient>
    <radialGradient cx="0" cy="0" gradientTransform="matrix(0.0045, 0.0, 0.0, 0.0045, 1.45, -41.75)" gradientUnits="userSpaceOnUse" id="gradient7" r="819.2" spreadMethod="pad">
      <stop offset="0.0" stop-color="#261b10"/>
      <stop offset="1.0" stop-color="#261b10"/>
    </radialGradient>
    <radialGradient cx="0" cy="0" gradientTransform="matrix(0.006, 0.0, 0.0, 0.006, 1.15, -39.45)" gradientUnits="userSpaceOnUse" id="gradient8" r="819.2" spreadMethod="pad">
      <stop offset="0.0" stop-color="#696060"/>
      <stop offset="1.0" stop-color="#5f5656"/>
    </radialGradient>
    <radialGradient cx="0" cy="0" gradientTransform="matrix(0.0094, 0.0, 0.0, 0.0094, -1.1, -34.5)" gradientUnits="userSpaceOnUse" id="gradient9" r="819.2" spreadMethod="pad">
      <stop offset="0.0" stop-color="#857979"/>
      <stop offset="1.0" stop-color="#6e6464"/>
    </radialGradient>
    <radialGradient cx="0" cy="0" gradientTransform="matrix(0.0208, 0.0, 0.0, 0.0208, -1.85, -37.75)" gradientUnits="userSpaceOnUse" id="gradient10" r="819.2" spreadMethod="pad">
      <stop offset="0.0" stop-color="#fefefe"/>
      <stop offset="1.0" stop-color="#7f7f7f"/>
    </radialGradient>
    <radialGradient cx="0" cy="0" gradientTransform="matrix(0.0089, 0.0, 0.0, 0.0089, 3.55, -40.8)" gradientUnits="userSpaceOnUse" id="gradient11" r="819.2" spreadMethod="pad">
      <stop offset="0.0" stop-color="#7c7171"/>
      <stop offset="1.0" stop-color="#6b6262"/>
    </radialGradient>
    <radialGradient cx="0" cy="0" gradientTransform="matrix(0.0182, 0.0, 0.0, 0.0182, 7.55, -35.65)" gradientUnits="userSpaceOnUse" id="gradient12" r="819.2" spreadMethod="pad">
      <stop offset="0.0" stop-color="#938686"/>
      <stop offset="1.0" stop-color="#615858"/>
    </radialGradient>
    <radialGradient cx="0" cy="0" gradientTransform="matrix(0.0049, 0.0, 0.0, 0.0049, 3.65, -32.1)" gradientUnits="userSpaceOnUse" id="gradient13" r="819.2" spreadMethod="pad">
      <stop offset="0.0" stop-color="#908383"/>
      <stop offset="1.0" stop-color="#5e5555"/>
    </radialGradient>
    <radialGradient cx="0" cy="0" gradientTransform="matrix(0.0036, 0.0, 0.0, 0.0036, 6.3, -34.45)" gradientUnits="userSpaceOnUse" id="gradient14" r="819.2" spreadMethod="pad">
      <stop offset="0.0" stop-color="#34526e"/>
      <stop offset="1.0" stop-color="#24394c"/>
    </radialGradient>
    <radialGradient cx="0" cy="0" gradientTransform="matrix(0.0063, 0.0, 0.0, 0.0063, 8.5, -37.25)" gradientUnits="userSpaceOnUse" id="gradient15" r="819.2" spreadMethod="pad">
      <stop offset="0.0" stop-color="#406486"/>
      <stop offset="1.0" stop-color="#2c455e"/>
    </radialGradient>
    <radialGradient cx="0" cy="0" gradientTransform="matrix(0.0029, 0.0, 0.0, 0.0029, 0.2, -31.6)" gradientUnits="userSpaceOnUse" id="gradient16" r="819.2" spreadMethod="pad">
      <stop offset="0.0" stop-color="#aeaeae"/>
      <stop offset="1.0" stop-color="#9f9f9f"/>
    </radialGradient>
    <radialGradient cx="0" cy="0" gradientTransform="matrix(0.0191, 0.0, 0.0, 0.0191, -3.8, -35.0)" gradientUnits="userSpaceOnUse" id="gradient17" r="819.2" spreadMethod="pad">
      <stop offset="0.0" stop-color="#ffd37b"/>
      <stop offset="1.0" stop-color="#d79758"/>
    </radialGradient>
    <radialGradient cx="0" cy="0" gradientTransform="matrix(0.018, 0.0, 0.0, 0.018, 5.2, -28.2)" gradientUnits="userSpaceOnUse" id="gradient18" r="819.2" spreadMethod="pad">
      <stop offset="0.0" stop-color="#8f8282"/>
      <stop offset="1.0" stop-color="#4f4848"/>
    </radialGradient>
    <radialGradient cx="0" cy="0" gradientTransform="matrix(0.0104, 0.0, 0.0, 0.0104, 1.7, -25.35)" gradientUnits="userSpaceOnUse" id="gradient19" r="819.2" spreadMethod="pad">
      <stop offset="0.0" stop-color="#375774"/>
      <stop offset="1.0" stop-color="#213446"/>
    </radialGradient>
    <radialGradient cx="0" cy="0" gradientTransform="matrix(0.0029, 0.0, 0.0, 0.0029, 12.05, -35.85)" gradientUnits="userSpaceOnUse" id="gradient20" r="819.2" spreadMethod="pad">
      <stop offset="0.0" stop-color="#8c8c8c"/>
      <stop offset="1.0" stop-color="#898989"/>
    </radialGradient>
    <radialGradient cx="0" cy="0" gradientTransform="matrix(0.016, 0.0, 0.0, 0.016, -1.25, -22.95)" gradientUnits="userSpaceOnUse" id="gradient21" r="819.2" spreadMethod="pad">
      <stop offset="0.0" stop-color="#8f8383"/>
      <stop offset="1.0" stop-color="#4a4343"/>
    </radialGradient>
    <radialGradient cx="0" cy="0" gradientTransform="matrix(0.0061, 0.0, 0.0, 0.0061, -1.25, -23.9)" gradientUnits="userSpaceOnUse" id="gradient22" r="819.2" spreadMethod="pad">
      <stop offset="0.0" stop-color="#8a7e7e"/>
      <stop offset="1.0" stop-color="#534b4b"/>
    </radialGradient>
    <radialGradient cx="0" cy="0" gradientTransform="matrix(0.0243, 0.0, 0.0, 0.0243, -5.5, -39.35)" gradientUnits="userSpaceOnUse" id="gradient23" r="819.2" spreadMethod="pad">
      <stop offset="0.0" stop-color="#202020"/>
      <stop offset="1.0" stop-color="#202020"/>
    </radialGradient>
    <radialGradient cx="0" cy="0" gradientTransform="matrix(0.0158, 0.0, 0.0, 0.0158, -0.35, -22.2)" gradientUnits="userSpaceOnUse" id="gradient24" r="819.2" spreadMethod="pad">
      <stop offset="0.0" stop-color="#ffdb80"/>
      <stop offset="1.0" stop-color="#dc9b5a"/>
    </radialGradient>
    <radialGradient cx="0" cy="0" gradientTransform="matrix(0.0044, 0.0, 0.0, 0.0044, 6.15, -12.95)" gradientUnits="userSpaceOnUse" id="gradient25" r="819.2" spreadMethod="pad">
      <stop offset="0.0" stop-color="#ffe384"/>
      <stop offset="1.0" stop-color="#ba834c"/>
    </radialGradient>
    <radialGradient cx="0" cy="0" gradientTransform="matrix(0.0049, 0.0, 0.0, 0.0049, 7.9, -16.35)" gradientUnits="userSpaceOnUse" id="gradient26" r="819.2" spreadMethod="pad">
      <stop offset="0.0" stop-color="#ffbb6d"/>
      <stop offset="1.0" stop-color="#a97845"/>
    </radialGradient>
    <radialGradient cx="0" cy="0" gradientTransform="matrix(0.0075, 0.0, 0.0, 0.0075, 7.95, -10.4)" gradientUnits="userSpaceOnUse" id="gradient27" r="819.2" spreadMethod="pad">
      <stop offset="0.0" stop-color="#ffbd6e"/>
      <stop offset="1.0" stop-color="#896038"/>
    </radialGradient>
    <radialGradient cx="0" cy="0" gradientTransform="matrix(0.0045, 0.0, 0.0, 0.0045, 5.65, -11.4)" gradientUnits="userSpaceOnUse" id="gradient28" r="819.2" spreadMethod="pad">
      <stop offset="0.0" stop-color="#ffe384"/>
      <stop offset="1.0" stop-color="#a47443"/>
    </radialGradient>
    <radialGradient cx="0" cy="0" gradientTransform="matrix(0.0029, 0.0, 0.0, 0.0029, 4.7, -7.0)" gradientUnits="userSpaceOnUse" id="gradient29" r="819.2" spreadMethod="pad">
      <stop offset="0.0" stop-color="#855e37"/>
      <stop offset="1.0" stop-color="#5c4026"/>
    </radialGradient>
    <radialGradient cx="0" cy="0" gradientTransform="matrix(0.0113, 0.0, 0.0, 0.0113, 9.85, 2.35)" gradientUnits="userSpaceOnUse" id="gradient30" r="819.2" spreadMethod="pad">
      <stop offset="0.0" stop-color="#f9b066"/>
      <stop offset="1.0" stop-color="#a67544"/>
    </radialGradient>
    <radialGradient cx="0" cy="0" gradientTransform="matrix(0.0027, 0.0, 0.0, 0.0027, 16.6, 8.15)" gradientUnits="userSpaceOnUse" id="gradient31" r="819.2" spreadMethod="pad">
      <stop offset="0.0" stop-color="#a97745"/>
      <stop offset="1.0" stop-color="#a77544"/>
    </radialGradient>
    <radialGradient cx="0" cy="0" gradientTransform="matrix(0.0095, 0.0, 0.0, 0.0095, 10.25, 4.35)" gradientUnits="userSpaceOnUse" id="gradient32" r="819.2" spreadMethod="pad">
      <stop offset="0.0" stop-color="#ffff94"/>
      <stop offset="1.0" stop-color="#ffd47c"/>
    </radialGradient>
    <radialGradient cx="0" cy="0" gradientTransform="matrix(0.0066, 0.0, 0.0, 0.0066, -2.15, -51.4)" gradientUnits="userSpaceOnUse" id="gradient33" r="819.2" spreadMethod="pad">
      <stop offset="0.0" stop-color="#877f26"/>
      <stop offset="1.0" stop-color="#464213"/>
    </radialGradient>
    <radialGradient cx="0" cy="0" gradientTransform="matrix(0.0069, 0.0, 0.0, 0.0069, -1.55, -49.05)" gradientUnits="userSpaceOnUse" id="gradient34" r="819.2" spreadMethod="pad">
      <stop offset="0.0" stop-color="#c8bc38"/>
      <stop offset="1.0" stop-color="#878026"/>
    </radialGradient>
    <radialGradient cx="0" cy="0" gradientTransform="matrix(0.0041, 0.0, 0.0, 0.0041, -2.4, -44.15)" gradientUnits="userSpaceOnUse" id="gradient35" r="819.2" spreadMethod="pad">
      <stop offset="0.0" stop-color="#fff248"/>
      <stop offset="1.0" stop-color="#a0972c"/>
    </radialGradient>
    <radialGradient cx="0" cy="0" gradientTransform="matrix(0.0052, 0.0, 0.0, 0.0052, -3.0, -46.7)" gradientUnits="userSpaceOnUse" id="gradient36" r="819.2" spreadMethod="pad">
      <stop offset="0.0" stop-color="#c8bc38"/>
      <stop offset="1.0" stop-color="#746d20"/>
    </radialGradient>
    <radialGradient cx="0" cy="0" gradientTransform="matrix(0.0039, 0.0, 0.0, 0.0039, -3.25, -41.9)" gradientUnits="userSpaceOnUse" id="gradient37" r="819.2" spreadMethod="pad">
      <stop offset="0.0" stop-color="#fff449"/>
      <stop offset="1.0" stop-color="#a89d2e"/>
    </radialGradient>
    <radialGradient cx="0" cy="0" gradientTransform="matrix(0.0027, 0.0, 0.0, 0.0027, -5.4, -38.4)" gradientUnits="userSpaceOnUse" id="gradient38" r="819.2" spreadMethod="pad">
      <stop offset="0.0" stop-color="#beb235"/>
      <stop offset="1.0" stop-color="#aba130"/>
    </radialGradient>
    <radialGradient cx="0" cy="0" gradientTransform="matrix(0.0018, 0.0, 0.0, 0.0018, -2.1, -42.7)" gradientUnits="userSpaceOnUse" id="gradient39" r="819.2" spreadMethod="pad">
      <stop offset="0.0" stop-color="#b9ae34"/>
      <stop offset="1.0" stop-color="#aba130"/>
    </radialGradient>
    <radialGradient cx="0" cy="0" gradientTransform="matrix(0.0013, 0.0, 0.0, 0.0013, -1.5, -43.65)" gradientUnits="userSpaceOnUse" id="gradient40" r="819.2" spreadMethod="pad">
      <stop offset="0.0" stop-color="#8e8628"/>
      <stop offset="1.0" stop-color="#565118"/>
    </radialGradient>
    <radialGradient cx="0" cy="0" gradientTransform="matrix(0.0096, 0.0, 0.0, 0.0096, -1.05, -41.65)" gradientUnits="userSpaceOnUse" id="gradient41" r="819.2" spreadMethod="pad">
      <stop offset="0.0" stop-color="#837777"/>
      <stop offset="1.0" stop-color="#696060"/>
    </radialGradient>
    <radialGradient cx="0" cy="0" gradientTransform="matrix(0.0031, 0.0, 0.0, 0.0031, -5.05, -38.7)" gradientUnits="userSpaceOnUse" id="gradient42" r="819.2" spreadMethod="pad">
      <stop offset="0.0" stop-color="#574f4f"/>
      <stop offset="1.0" stop-color="#4e4747"/>
    </radialGradient>
    <radialGradient cx="0" cy="0" gradientTransform="matrix(0.02, 0.0, 0.0, 0.02, -6.2, -36.15)" gradientUnits="userSpaceOnUse" id="gradient43" r="819.2" spreadMethod="pad">
      <stop offset="0.0" stop-color="#8d633a"/>
      <stop offset="1.0" stop-color="#261b10"/>
    </radialGradient>
    <radialGradient cx="0" cy="0" gradientTransform="matrix(0.0049, 0.0, 0.0, 0.0049, -3.35, -28.55)" gradientUnits="userSpaceOnUse" id="gradient44" r="819.2" spreadMethod="pad">
      <stop offset="0.0" stop-color="#f3e444"/>
      <stop offset="1.0" stop-color="#a49a2e"/>
    </radialGradient>
    <radialGradient cx="0" cy="0" gradientTransform="matrix(0.0078, 0.0, 0.0, 0.0078, -3.05, -10.8)" gradientUnits="userSpaceOnUse" id="gradient45" r="819.2" spreadMethod="pad">
      <stop offset="0.0" stop-color="#ffe988"/>
      <stop offset="1.0" stop-color="#94683d"/>
    </radialGradient>
    <radialGradient cx="0" cy="0" gradientTransform="matrix(0.0033, 0.0, 0.0, 0.0033, -4.45, -12.85)" gradientUnits="userSpaceOnUse" id="gradient46" r="819.2" spreadMethod="pad">
      <stop offset="0.0" stop-color="#484141"/>
      <stop offset="1.0" stop-color="#403a3a"/>
    </radialGradient>
    <radialGradient cx="0" cy="0" gradientTransform="matrix(0.011, 0.0, 0.0, 0.011, -10.7, -2.0)" gradientUnits="userSpaceOnUse" id="gradient47" r="819.2" spreadMethod="pad">
      <stop offset="0.0" stop-color="#fffe94"/>
      <stop offset="1.0" stop-color="#a77644"/>
    </radialGradient>
    <radialGradient cx="0" cy="0" gradientTransform="matrix(0.0079, 0.0, 0.0, 0.0079, -12.9, -7.75)" gradientUnits="userSpaceOnUse" id="gradient48" r="819.2" spreadMethod="pad">
      <stop offset="0.0" stop-color="#d49557"/>
      <stop offset="1.0" stop-color="#765330"/>
    </radialGradient>
    <radialGradient cx="0" cy="0" gradientTransform="matrix(0.0057, 0.0, 0.0, 0.0057, -1.1, -12.25)" gradientUnits="userSpaceOnUse" id="gradient49" r="819.2" spreadMethod="pad">
      <stop offset="0.0" stop-color="#db9b5a"/>
      <stop offset="1.0" stop-color="#7c5833"/>
    </radialGradient>
    <radialGradient cx="0" cy="0" gradientTransform="matrix(0.0027, 0.0, 0.0, 0.0027, -4.9, -10.7)" gradientUnits="userSpaceOnUse" id="gradient50" r="819.2" spreadMethod="pad">
      <stop offset="0.0" stop-color="#4b4444"/>
      <stop offset="1.0" stop-color="#494343"/>
    </radialGradient>
    <radialGradient cx="0" cy="0" gradientTransform="matrix(0.0031, 0.0, 0.0, 0.0031, -4.65, -10.25)" gradientUnits="userSpaceOnUse" id="gradient51" r="819.2" spreadMethod="pad">
      <stop offset="0.0" stop-color="#181616"/>
      <stop offset="1.0" stop-color="#121010"/>
    </radialGradient>
    <radialGradient cx="0" cy="0" gradientTransform="matrix(0.0029, 0.0, 0.0, 0.0029, -6.3, -1.55)" gradientUnits="userSpaceOnUse" id="gradient52" r="819.2" spreadMethod="pad">
      <stop offset="0.0" stop-color="#b9834c"/>
      <stop offset="1.0" stop-color="#b4804a"/>
    </radialGradient>
  </defs>
</svg>
