<?xml version="1.0" encoding="UTF-8" standalone="no"?>
<svg xmlns:ffdec="https://www.free-decompiler.com/flash" xmlns:xlink="http://www.w3.org/1999/xlink" ffdec:objectType="shape" height="67.1px" width="32.75px" xmlns="http://www.w3.org/2000/svg">
  <g transform="matrix(1.0, 0.0, 0.0, 1.0, 18.2, 56.55)">
    <path d="M-0.3 -54.3 Q1.9 -59.1 6.8 -53.75 9.1 -51.55 6.25 -39.35 L5.35 -40.3 Q5.35 -52.2 2.8 -51.25 L2.3 -52.25 0.6 -54.05 -0.3 -54.3" fill="url(#gradient0)" fill-rule="evenodd" stroke="none"/>
    <path d="M-8.25 -50.6 L-8.25 -50.75 Q-6.25 -55.15 -0.3 -54.3 L0.6 -54.05 2.3 -52.25 2.8 -51.25 Q4.5 -50.4 0.95 -45.5 L0.8 -45.45 0.45 -45.25 -2.0 -47.05 -3.55 -47.0 Q-3.7 -48.6 -5.8 -48.55 -7.25 -48.6 -6.9 -46.35 L-7.6 -46.65 -8.25 -47.35 Q-6.55 -48.7 -8.25 -50.6" fill="url(#gradient1)" fill-rule="evenodd" stroke="none"/>
    <path d="M6.25 -39.35 Q6.35 -37.95 7.1 -37.55 L7.7 -35.25 7.75 -34.95 Q8.4 -28.85 5.55 -30.05 L3.5 -29.8 0.8 -29.65 1.0 -29.2 Q-6.8 -24.85 -8.25 -29.8 L-8.6 -30.4 -8.55 -30.45 -8.55 -30.55 -8.35 -30.75 Q-8.45 -32.15 -7.7 -32.6 -4.5 -34.15 0.8 -41.45 1.15 -41.65 1.45 -43.4 L1.4 -44.15 1.85 -44.3 2.55 -43.7 5.35 -40.3 6.25 -39.35 M5.05 -26.75 Q5.6 -26.55 6.5 -24.35 L6.6 -22.4 5.55 -25.05 4.95 -26.15 5.05 -26.75 M5.85 -20.65 L5.1 -19.7 4.4 -19.15 4.65 -19.85 Q5.55 -20.95 5.85 -20.65 M-10.2 -23.15 L-10.5 -24.45 -9.6 -27.15 -8.8 -29.0 Q-6.6 -23.5 -1.6 -25.05 -1.25 -24.65 -1.2 -23.2 L-1.4 -21.05 -2.8 -18.1 -3.0 -16.75 -3.2 -16.8 -3.7 -16.85 Q-4.05 -16.7 -6.25 -17.45 L-7.3 -18.1 -7.5 -18.15 -8.1 -18.95 -10.2 -23.15 M-10.1 -32.35 Q-12.1 -34.45 -11.85 -37.3 L-11.3 -38.8 Q-8.4 -42.4 -7.8 -44.15 L-7.75 -43.85 -7.75 -43.5 -7.25 -42.55 -6.65 -41.95 -7.1 -41.45 Q-12.8 -35.1 -9.7 -32.6 L-10.1 -32.35 M-7.75 -45.4 L-7.8 -45.45 -7.75 -45.4 M1.35 -44.6 L1.35 -44.7 1.75 -44.4 1.35 -44.6 M3.05 -19.0 L3.55 -18.4 3.1 -18.2 3.05 -19.0" fill="url(#gradient2)" fill-rule="evenodd" stroke="none"/>
    <path d="M-3.55 -47.0 L-2.0 -47.05 0.45 -45.25 0.95 -44.85 1.25 -44.65 1.35 -44.6 1.75 -44.4 1.85 -44.3 1.4 -44.15 1.0 -43.95 -0.8 -43.9 -2.2 -44.2 -3.85 -44.8 -3.55 -47.0" fill="url(#gradient3)" fill-rule="evenodd" stroke="none"/>
    <path d="M-9.1 -31.05 L-9.95 -31.85 -10.1 -32.35 -9.7 -32.6 -8.2 -34.35 -6.3 -35.95 -5.85 -36.45 -5.65 -36.6 -5.45 -36.55 -5.3 -37.0 -2.1 -40.25 -0.85 -41.45 0.9 -43.5 1.0 -43.95 1.4 -44.15 1.45 -43.4 Q1.15 -41.65 0.8 -41.45 -4.5 -34.15 -7.7 -32.6 -8.45 -32.15 -8.35 -30.75 L-8.55 -30.55 -8.6 -30.55 -9.1 -31.05 M1.25 -44.65 L1.3 -44.75 1.35 -44.7 1.35 -44.6 1.25 -44.65" fill="url(#gradient4)" fill-rule="evenodd" stroke="none"/>
    <path d="M0.8 -45.45 L0.95 -45.5 1.3 -44.75 1.25 -44.65 0.95 -44.85 0.8 -45.45" fill="url(#gradient5)" fill-rule="evenodd" stroke="none"/>
    <path d="M-8.5 -50.6 L-8.25 -50.75 -8.25 -50.6 -8.5 -50.6" fill="url(#gradient6)" fill-rule="evenodd" stroke="none"/>
    <path d="M-8.5 -50.6 L-8.25 -50.6 Q-6.55 -48.7 -8.25 -47.35 L-8.35 -47.35 Q-13.9 -46.45 -11.9 -40.05 L-13.2 -42.45 Q-13.75 -49.75 -8.5 -50.6" fill="url(#gradient7)" fill-rule="evenodd" stroke="none"/>
    <path d="M-7.8 -44.25 L-7.75 -45.35 -7.65 -45.3 -7.7 -45.4 -7.75 -45.4 -7.8 -45.45 -7.85 -45.55 -8.35 -47.35 -8.25 -47.35 -7.6 -46.65 -6.9 -46.35 -6.55 -41.9 -6.65 -41.95 -7.25 -42.55 -7.75 -43.5 -7.75 -43.85 -7.75 -44.25 -7.8 -44.25 M-0.8 -43.9 L-0.55 -43.1 Q-1.5 -41.7 -2.7 -41.45 L-3.55 -41.05 -4.5 -40.6 -3.85 -44.8 -2.2 -44.2 -0.8 -43.9" fill="url(#gradient8)" fill-rule="evenodd" stroke="none"/>
    <path d="M-7.75 -45.35 L-7.75 -45.4 -7.7 -45.4 -7.65 -45.3 -7.75 -45.35" fill="url(#gradient9)" fill-rule="evenodd" stroke="none"/>
    <path d="M-7.8 -44.15 L-7.8 -44.25 -7.75 -44.25 -7.75 -43.85 -7.8 -44.15" fill="url(#gradient10)" fill-rule="evenodd" stroke="none"/>
    <path d="M-6.9 -46.35 Q-7.25 -48.6 -5.8 -48.55 -3.7 -48.6 -3.55 -47.0 L-3.85 -44.8 -4.5 -40.6 -4.8 -39.2 -4.85 -38.9 -4.9 -38.7 -5.3 -37.0 -5.45 -36.55 -5.65 -36.6 -5.75 -36.85 -5.95 -37.4 -6.3 -39.9 -6.45 -41.45 -6.55 -41.9 -6.9 -46.35" fill="url(#gradient11)" fill-rule="evenodd" stroke="none"/>
    <path d="M0.45 -45.25 L0.8 -45.45 0.95 -44.85 0.45 -45.25 M1.0 -43.95 L0.9 -43.5 -0.85 -41.45 -2.1 -40.25 -2.95 -40.35 -3.3 -40.5 -3.45 -40.85 -3.55 -41.05 -2.7 -41.45 Q-1.5 -41.7 -0.55 -43.1 L-0.8 -43.9 1.0 -43.95" fill="url(#gradient12)" fill-rule="evenodd" stroke="none"/>
    <path d="M-5.85 -36.45 L-6.3 -35.95 -6.75 -36.25 -7.35 -37.4 -6.9 -38.85 -6.3 -39.9 -5.95 -37.4 -5.75 -36.85 -5.85 -36.45 M-3.55 -41.05 L-3.45 -40.85 -4.8 -39.2 -4.5 -40.6 -3.55 -41.05 M-3.3 -40.5 L-2.95 -40.35 -4.9 -38.7 -4.85 -38.9 -3.3 -40.5" fill="url(#gradient13)" fill-rule="evenodd" stroke="none"/>
    <path d="M-8.55 -30.55 L-8.55 -30.45 -8.6 -30.45 -8.6 -30.55 -8.55 -30.55" fill="url(#gradient14)" fill-rule="evenodd" stroke="none"/>
    <path d="M-9.1 -30.3 L-9.1 -31.05 -8.6 -30.55 -8.6 -30.45 -8.6 -30.4 -8.25 -29.8 Q-6.8 -24.85 1.0 -29.2 L0.6 -27.35 -0.15 -26.7 0.15 -26.15 -1.25 -25.4 -1.6 -25.05 Q-6.6 -23.5 -8.8 -29.0 L-9.1 -30.3" fill="url(#gradient15)" fill-rule="evenodd" stroke="none"/>
    <path d="M-8.2 -34.35 L-9.7 -32.6 Q-12.8 -35.1 -7.1 -41.45 L-6.65 -41.95 -6.55 -41.9 -6.45 -41.45 -6.3 -39.9 -6.9 -38.85 -7.35 -37.4 -7.85 -35.9 -8.2 -34.35" fill="url(#gradient16)" fill-rule="evenodd" stroke="none"/>
    <path d="M-6.3 -35.95 L-8.2 -34.35 -7.85 -35.9 -7.35 -37.4 -6.75 -36.25 -6.3 -35.95" fill="url(#gradient17)" fill-rule="evenodd" stroke="none"/>
    <path d="M-2.1 -40.25 L-5.3 -37.0 -4.9 -38.7 -2.95 -40.35 -2.1 -40.25 M-5.65 -36.6 L-5.85 -36.45 -5.75 -36.85 -5.65 -36.6 M-3.45 -40.85 L-3.3 -40.5 -4.85 -38.9 -4.8 -39.2 -3.45 -40.85" fill="url(#gradient18)" fill-rule="evenodd" stroke="none"/>
    <path d="M7.7 -35.25 Q12.5 -36.95 14.55 -37.3 L7.75 -34.95 7.7 -35.25" fill="url(#gradient19)" fill-rule="evenodd" stroke="none"/>
    <path d="M-10.5 -24.45 L-10.95 -26.55 Q-10.95 -28.05 -9.1 -30.3 L-8.8 -29.0 -9.6 -27.15 -10.5 -24.45" fill="url(#gradient20)" fill-rule="evenodd" stroke="none"/>
    <path d="M-8.55 -30.45 L-8.6 -30.4 -8.6 -30.45 -8.55 -30.45" fill="url(#gradient21)" fill-rule="evenodd" stroke="none"/>
    <path d="M5.55 -30.05 L5.05 -26.75 4.95 -26.15 3.8 -21.9 Q1.5 -21.1 0.15 -23.25 L0.35 -25.9 0.6 -27.35 1.0 -29.2 0.8 -29.65 3.5 -29.8 5.55 -30.05" fill="url(#gradient22)" fill-rule="evenodd" stroke="none"/>
    <path d="M6.6 -22.4 L7.65 -20.3 7.5 -20.35 6.35 -20.75 5.85 -20.65 Q5.55 -20.95 4.65 -19.85 L4.4 -19.15 4.1 -18.1 3.9 -17.9 3.8 -18.1 3.55 -18.4 3.05 -19.0 3.0 -19.1 3.75 -20.65 3.8 -21.9 4.95 -26.15 5.55 -25.05 6.6 -22.4 M0.6 -27.35 L0.35 -25.9 0.15 -26.15 -0.15 -26.7 0.6 -27.35" fill="url(#gradient23)" fill-rule="evenodd" stroke="none"/>
    <path d="M-3.0 -16.75 L-2.8 -18.1 -1.4 -21.05 -0.45 -22.8 0.15 -23.25 Q1.5 -21.1 3.8 -21.9 L3.75 -20.65 3.0 -19.1 1.4 -16.05 -0.2 -14.35 -1.15 -12.8 -1.5 -12.5 -4.6 -12.6 -4.8 -13.1 -3.1 -16.7 -3.0 -16.75" fill="url(#gradient24)" fill-rule="evenodd" stroke="none"/>
    <path d="M-1.4 -21.05 L-1.2 -23.2 Q-1.25 -24.65 -1.6 -25.05 L-1.25 -25.4 0.15 -26.15 0.35 -25.9 0.15 -23.25 -0.45 -22.8 -1.4 -21.05 M3.0 -19.1 L3.05 -19.0 3.1 -18.2 3.15 -18.1 Q3.45 -18.0 2.85 -14.7 L1.4 -16.05 3.0 -19.1" fill="url(#gradient25)" fill-rule="evenodd" stroke="none"/>
    <path d="M5.1 -19.7 Q5.4 -14.75 4.1 -13.2 L3.85 -12.8 3.75 -12.65 3.95 -11.6 3.65 -10.8 3.45 -10.6 3.05 -10.7 2.95 -10.75 2.6 -10.95 1.5 -10.65 -0.05 -11.2 -0.45 -12.2 -1.15 -12.8 -0.2 -14.35 1.4 -16.05 2.85 -14.7 Q3.45 -18.0 3.15 -18.1 L3.1 -18.2 3.55 -18.4 3.8 -18.1 3.9 -17.9 4.1 -18.1 4.4 -19.15 5.1 -19.7 M-3.2 -16.8 L-3.0 -16.75 -3.1 -16.7 -3.2 -16.8" fill="url(#gradient26)" fill-rule="evenodd" stroke="none"/>
    <path d="M-9.85 -14.9 Q-10.8 -18.4 -10.7 -20.0 L-10.2 -23.15 -8.1 -18.95 -7.5 -18.15 -7.3 -18.1 -6.25 -17.45 Q-4.05 -16.7 -3.7 -16.85 L-4.2 -15.5 -5.4 -12.95 -5.65 -12.7 -5.6 -13.2 -6.2 -12.25 -6.8 -12.05 -6.3 -12.55 -6.7 -12.95 -6.65 -13.4 Q-10.15 -14.35 -9.7 -14.95 L-9.85 -14.9" fill="url(#gradient27)" fill-rule="evenodd" stroke="none"/>
    <path d="M-4.65 -8.05 L-5.4 -8.45 -6.0 -9.35 -5.45 -9.25 -5.35 -8.85 -4.65 -8.05 M-5.4 -12.95 L-4.8 -13.1 -4.6 -12.6 -5.25 -11.6 -6.15 -11.8 -6.1 -12.0 -5.65 -12.7 -5.4 -12.95" fill="url(#gradient28)" fill-rule="evenodd" stroke="none"/>
    <path d="M-1.8 -7.75 L-3.05 -7.55 Q-3.65 -7.5 -4.65 -8.05 L-5.35 -8.85 -5.45 -9.25 -4.95 -9.2 -4.7 -9.9 -4.7 -11.35 -4.9 -11.55 -5.25 -11.6 -4.6 -12.6 -1.5 -12.5 -1.15 -12.8 -0.45 -12.2 -0.05 -11.2 -0.05 -11.1 0.1 -10.65 -0.25 -9.25 -0.7 -8.45 -1.8 -7.75" fill="url(#gradient29)" fill-rule="evenodd" stroke="none"/>
    <path d="M-9.75 -12.35 L-9.95 -13.3 -9.85 -14.9 -9.7 -14.95 Q-10.15 -14.35 -6.65 -13.4 L-6.7 -12.95 -6.3 -12.55 -6.8 -12.05 Q-10.05 -9.05 -9.75 -12.35" fill="url(#gradient30)" fill-rule="evenodd" stroke="none"/>
    <path d="M-5.4 -8.45 L-5.95 -6.45 -6.9 -4.85 -7.75 -4.2 -10.1 -4.35 Q-11.0 -5.45 -11.05 -5.15 L-11.5 -6.1 -11.3 -9.0 Q-10.8 -11.05 -9.75 -12.35 -10.05 -9.05 -6.8 -12.05 L-6.2 -12.25 -6.1 -12.0 -6.15 -11.8 -6.65 -11.9 Q-8.15 -10.6 -7.05 -9.6 L-6.0 -9.35 -5.4 -8.45" fill="url(#gradient31)" fill-rule="evenodd" stroke="none"/>
    <path d="M-5.65 -12.7 L-6.1 -12.0 -6.2 -12.25 -5.6 -13.2 -5.65 -12.7" fill="url(#gradient32)" fill-rule="evenodd" stroke="none"/>
    <path d="M-6.9 -4.85 L-8.2 -0.65 -8.6 2.6 Q-8.75 3.95 -9.0 4.0 L-9.45 4.8 Q-14.2 4.3 -13.25 2.35 L-12.4 0.95 Q-12.45 -0.65 -11.5 -6.1 L-11.05 -5.15 Q-11.0 -5.45 -10.1 -4.35 L-7.75 -4.2 -6.9 -4.85" fill="url(#gradient33)" fill-rule="evenodd" stroke="none"/>
    <path d="M-8.6 2.6 Q-8.1 3.25 -8.6 4.5 L-10.15 6.2 -15.75 10.25 -17.1 10.55 -17.35 10.05 -17.6 9.3 -18.05 8.85 Q-19.05 6.65 -13.25 2.35 -14.2 4.3 -9.45 4.8 L-9.0 4.0 Q-8.75 3.95 -8.6 2.6" fill="url(#gradient34)" fill-rule="evenodd" stroke="none"/>
    <path d="M-17.35 10.05 L-18.05 8.85 -17.6 9.3 -17.35 10.05" fill="url(#gradient35)" fill-rule="evenodd" stroke="none"/>
    <path d="M4.1 -13.2 Q6.2 -13.1 7.7 -11.9 9.55 -11.05 7.8 -8.15 L7.4 -8.45 2.7 -9.85 2.95 -10.7 3.05 -10.7 3.45 -10.6 3.65 -10.8 3.95 -11.6 Q4.3 -11.45 4.6 -11.25 L4.7 -11.35 3.85 -12.8 4.1 -13.2" fill="url(#gradient36)" fill-rule="evenodd" stroke="none"/>
    <path d="M3.75 -12.65 L3.85 -12.8 4.7 -11.35 4.6 -11.25 3.75 -12.65" fill="url(#gradient37)" fill-rule="evenodd" stroke="none"/>
    <path d="M3.95 -11.6 L3.75 -12.65 4.6 -11.25 Q4.3 -11.45 3.95 -11.6" fill="url(#gradient38)" fill-rule="evenodd" stroke="none"/>
    <path d="M2.95 -10.75 L3.05 -10.7 2.95 -10.7 2.95 -10.75" fill="url(#gradient39)" fill-rule="evenodd" stroke="none"/>
    <path d="M-0.05 -11.2 L1.5 -10.65 2.6 -10.95 2.95 -10.75 2.95 -10.7 2.7 -9.85 0.45 -10.45 0.2 -11.1 -0.05 -11.1 -0.05 -11.2" fill="url(#gradient40)" fill-rule="evenodd" stroke="none"/>
    <path d="M-6.65 -11.9 Q-6.0 -10.8 -7.05 -9.6 -8.15 -10.6 -6.65 -11.9" fill="url(#gradient41)" fill-rule="evenodd" stroke="none"/>
    <path d="M-5.25 -11.6 L-4.9 -11.55 -4.7 -11.35 -4.7 -9.9 -4.95 -9.2 -5.45 -9.25 -6.0 -9.35 -7.05 -9.6 Q-6.0 -10.8 -6.65 -11.9 L-6.15 -11.8 -5.25 -11.6" fill="url(#gradient42)" fill-rule="evenodd" stroke="none"/>
    <path d="M7.7 -11.9 L10.05 -11.15 10.6 -11.15 Q12.25 -11.25 12.4 -7.75 11.3 -6.45 10.55 -6.45 L9.05 -7.25 7.8 -8.15 Q9.55 -11.05 7.7 -11.9" fill="url(#gradient43)" fill-rule="evenodd" stroke="none"/>
    <path d="M8.35 -7.05 L7.1 -6.85 -0.15 -7.85 1.05 -9.05 0.45 -10.45 2.7 -9.85 7.4 -8.45 7.8 -8.15 9.05 -7.25 8.35 -7.05" fill="url(#gradient44)" fill-rule="evenodd" stroke="none"/>
    <path d="M10.6 -11.15 Q13.4 -12.3 13.9 -9.8 14.15 -8.35 11.9 -3.85 L10.65 -2.95 11.0 -3.95 9.8 -2.1 8.75 -1.65 8.25 -1.75 7.5 -2.25 6.4 -2.45 Q5.85 -4.95 8.25 -6.75 L8.4 -6.95 8.35 -7.0 8.35 -7.05 9.05 -7.25 10.55 -6.45 Q11.3 -6.45 12.4 -7.75 12.25 -11.25 10.6 -11.15 M9.8 -5.65 L9.45 -6.4 9.3 -6.7 9.2 -6.4 9.2 -4.7 9.45 -5.1 10.15 -5.85 10.1 -5.95 9.8 -5.65" fill="url(#gradient45)" fill-rule="evenodd" stroke="none"/>
    <path d="M10.65 -2.95 L9.8 -2.1 11.0 -3.95 10.65 -2.95" fill="url(#gradient46)" fill-rule="evenodd" stroke="none"/>
    <path d="M0.45 -10.45 L1.05 -9.05 -0.25 -9.25 0.1 -10.65 -0.05 -11.1 0.2 -11.1 0.45 -10.45" fill="url(#gradient47)" fill-rule="evenodd" stroke="none"/>
    <path d="M-0.15 -7.85 L-0.6 -7.45 -1.8 -7.75 -0.7 -8.45 -0.25 -9.25 1.05 -9.05 -0.15 -7.85" fill="url(#gradient48)" fill-rule="evenodd" stroke="none"/>
    <path d="M8.25 -6.75 L8.35 -7.0 8.4 -6.95 8.25 -6.75" fill="url(#gradient49)" fill-rule="evenodd" stroke="none"/>
    <path d="M9.45 -5.1 L9.2 -4.7 9.2 -6.4 9.3 -6.7 9.45 -6.4 9.8 -5.65 9.45 -5.1" fill="url(#gradient50)" fill-rule="evenodd" stroke="none"/>
    <path d="M9.45 -5.1 L9.8 -5.65 10.1 -5.95 10.15 -5.85 9.45 -5.1" fill="url(#gradient51)" fill-rule="evenodd" stroke="none"/>
    <path d="M8.25 -1.75 L6.4 -2.45 7.5 -2.25 8.25 -1.75" fill="url(#gradient52)" fill-rule="evenodd" stroke="none"/>
  </g>
  <defs>
    <radialGradient cx="0" cy="0" gradientTransform="matrix(0.019, 0.0, 0.0, 0.019, 1.55, -53.15)" gradientUnits="userSpaceOnUse" id="gradient0" r="819.2" spreadMethod="pad">
      <stop offset="0.0" stop-color="#625c47"/>
      <stop offset="1.0" stop-color="#3b372b"/>
    </radialGradient>
    <radialGradient cx="0" cy="0" gradientTransform="matrix(0.0086, 0.0, 0.0, 0.0086, -3.75, -48.85)" gradientUnits="userSpaceOnUse" id="gradient1" r="819.2" spreadMethod="pad">
      <stop offset="0.0" stop-color="#5f5945"/>
      <stop offset="1.0" stop-color="#3e3a2d"/>
    </radialGradient>
    <radialGradient cx="0" cy="0" gradientTransform="matrix(0.0284, 0.0, 0.0, 0.0284, -1.1, -24.4)" gradientUnits="userSpaceOnUse" id="gradient2" r="819.2" spreadMethod="pad">
      <stop offset="0.0" stop-color="#406486"/>
      <stop offset="1.0" stop-color="#294157"/>
    </radialGradient>
    <radialGradient cx="0" cy="0" gradientTransform="matrix(0.0066, 0.0, 0.0, 0.0066, -3.3, -46.35)" gradientUnits="userSpaceOnUse" id="gradient3" r="819.2" spreadMethod="pad">
      <stop offset="0.0" stop-color="#5c5643"/>
      <stop offset="1.0" stop-color="#3a372a"/>
    </radialGradient>
    <radialGradient cx="0" cy="0" gradientTransform="matrix(0.0133, 0.0, 0.0, 0.0133, -1.35, -38.7)" gradientUnits="userSpaceOnUse" id="gradient4" r="819.2" spreadMethod="pad">
      <stop offset="0.0" stop-color="#74c5f0"/>
      <stop offset="1.0" stop-color="#43728c"/>
    </radialGradient>
    <radialGradient cx="0" cy="0" gradientTransform="matrix(0.0029, 0.0, 0.0, 0.0029, 1.3, -43.85)" gradientUnits="userSpaceOnUse" id="gradient5" r="819.2" spreadMethod="pad">
      <stop offset="0.0" stop-color="#44738d"/>
      <stop offset="1.0" stop-color="#0e181e"/>
    </radialGradient>
    <radialGradient cx="0" cy="0" gradientTransform="matrix(0.0024, 0.0, 0.0, 0.0024, -8.8, -50.4)" gradientUnits="userSpaceOnUse" id="gradient6" r="819.2" spreadMethod="pad">
      <stop offset="0.0" stop-color="#423d30"/>
      <stop offset="1.0" stop-color="#3c382b"/>
    </radialGradient>
    <radialGradient cx="0" cy="0" gradientTransform="matrix(0.0129, 0.0, 0.0, 0.0129, -6.4, -49.1)" gradientUnits="userSpaceOnUse" id="gradient7" r="819.2" spreadMethod="pad">
      <stop offset="0.0" stop-color="#5d5744"/>
      <stop offset="1.0" stop-color="#3b372b"/>
    </radialGradient>
    <radialGradient cx="0" cy="0" gradientTransform="matrix(0.0103, 0.0, 0.0, 0.0103, -4.4, -42.4)" gradientUnits="userSpaceOnUse" id="gradient8" r="819.2" spreadMethod="pad">
      <stop offset="0.0" stop-color="#eea862"/>
      <stop offset="1.0" stop-color="#b57f4a"/>
    </radialGradient>
    <radialGradient cx="0" cy="0" gradientTransform="matrix(0.0074, 0.0, 0.0, 0.0074, -8.45, -47.45)" gradientUnits="userSpaceOnUse" id="gradient9" r="819.2" spreadMethod="pad">
      <stop offset="0.0" stop-color="#261b10"/>
      <stop offset="1.0" stop-color="#261b10"/>
    </radialGradient>
    <radialGradient cx="0" cy="0" gradientTransform="matrix(0.0022, 0.0, 0.0, 0.0022, -7.8, -45.45)" gradientUnits="userSpaceOnUse" id="gradient10" r="819.2" spreadMethod="pad">
      <stop offset="0.0" stop-color="#261b10"/>
      <stop offset="1.0" stop-color="#261b10"/>
    </radialGradient>
    <radialGradient cx="0" cy="0" gradientTransform="matrix(0.0139, 0.0, 0.0, 0.0139, -5.3, -47.95)" gradientUnits="userSpaceOnUse" id="gradient11" r="819.2" spreadMethod="pad">
      <stop offset="0.0" stop-color="#5f5945"/>
      <stop offset="1.0" stop-color="#363227"/>
    </radialGradient>
    <radialGradient cx="0" cy="0" gradientTransform="matrix(0.0067, 0.0, 0.0, 0.0067, -1.25, -45.25)" gradientUnits="userSpaceOnUse" id="gradient12" r="819.2" spreadMethod="pad">
      <stop offset="0.0" stop-color="#d89959"/>
      <stop offset="1.0" stop-color="#cc9053"/>
    </radialGradient>
    <radialGradient cx="0" cy="0" gradientTransform="matrix(0.0051, 0.0, 0.0, 0.0051, -5.45, -38.4)" gradientUnits="userSpaceOnUse" id="gradient13" r="819.2" spreadMethod="pad">
      <stop offset="0.0" stop-color="#ffc070"/>
      <stop offset="1.0" stop-color="#eea861"/>
    </radialGradient>
    <radialGradient cx="0" cy="0" gradientTransform="matrix(0.0016, 0.0, 0.0, 0.0016, -9.05, -31.1)" gradientUnits="userSpaceOnUse" id="gradient14" r="819.2" spreadMethod="pad">
      <stop offset="0.0" stop-color="#0e181e"/>
      <stop offset="1.0" stop-color="#0e181e"/>
    </radialGradient>
    <radialGradient cx="0" cy="0" gradientTransform="matrix(0.0077, 0.0, 0.0, 0.0077, -3.9, -28.1)" gradientUnits="userSpaceOnUse" id="gradient15" r="819.2" spreadMethod="pad">
      <stop offset="0.0" stop-color="#fff6c8"/>
      <stop offset="1.0" stop-color="#9d9579"/>
    </radialGradient>
    <radialGradient cx="0" cy="0" gradientTransform="matrix(0.0096, 0.0, 0.0, 0.0096, -9.6, -36.75)" gradientUnits="userSpaceOnUse" id="gradient16" r="819.2" spreadMethod="pad">
      <stop offset="0.0" stop-color="#70bfe9"/>
      <stop offset="1.0" stop-color="#538ead"/>
    </radialGradient>
    <radialGradient cx="0" cy="0" gradientTransform="matrix(0.0031, 0.0, 0.0, 0.0031, -7.4, -36.5)" gradientUnits="userSpaceOnUse" id="gradient17" r="819.2" spreadMethod="pad">
      <stop offset="0.0" stop-color="#ffdd81"/>
      <stop offset="1.0" stop-color="#fbc874"/>
    </radialGradient>
    <radialGradient cx="0" cy="0" gradientTransform="matrix(0.0088, 0.0, 0.0, 0.0088, -3.35, -41.2)" gradientUnits="userSpaceOnUse" id="gradient18" r="819.2" spreadMethod="pad">
      <stop offset="0.0" stop-color="#f8af66"/>
      <stop offset="1.0" stop-color="#dd9b5a"/>
    </radialGradient>
    <radialGradient cx="0" cy="0" gradientTransform="matrix(0.014, 0.0, 0.0, 0.014, 11.9, -36.4)" gradientUnits="userSpaceOnUse" id="gradient19" r="819.2" spreadMethod="pad">
      <stop offset="0.0" stop-color="#4e4e4e"/>
      <stop offset="1.0" stop-color="#4d4d4d"/>
    </radialGradient>
    <radialGradient cx="0" cy="0" gradientTransform="matrix(0.0053, 0.0, 0.0, 0.0053, -9.9, -28.55)" gradientUnits="userSpaceOnUse" id="gradient20" r="819.2" spreadMethod="pad">
      <stop offset="0.0" stop-color="#4d829f"/>
      <stop offset="1.0" stop-color="#44748d"/>
    </radialGradient>
    <radialGradient cx="0" cy="0" gradientTransform="matrix(5.0E-4, 0.0, 0.0, 5.0E-4, -8.6, -30.5)" gradientUnits="userSpaceOnUse" id="gradient21" r="819.2" spreadMethod="pad">
      <stop offset="0.0" stop-color="#396177"/>
      <stop offset="1.0" stop-color="#315366"/>
    </radialGradient>
    <radialGradient cx="0" cy="0" gradientTransform="matrix(0.011, 0.0, 0.0, 0.011, 3.55, -29.15)" gradientUnits="userSpaceOnUse" id="gradient22" r="819.2" spreadMethod="pad">
      <stop offset="0.0" stop-color="#ffba6c"/>
      <stop offset="1.0" stop-color="#c78c51"/>
    </radialGradient>
    <radialGradient cx="0" cy="0" gradientTransform="matrix(0.0127, 0.0, 0.0, 0.0127, 0.15, -27.6)" gradientUnits="userSpaceOnUse" id="gradient23" r="819.2" spreadMethod="pad">
      <stop offset="0.0" stop-color="#fff5c7"/>
      <stop offset="1.0" stop-color="#a1997b"/>
    </radialGradient>
    <radialGradient cx="0" cy="0" gradientTransform="matrix(0.0145, 0.0, 0.0, 0.0145, 1.45, -21.3)" gradientUnits="userSpaceOnUse" id="gradient24" r="819.2" spreadMethod="pad">
      <stop offset="0.0" stop-color="#928585"/>
      <stop offset="1.0" stop-color="#6b6262"/>
    </radialGradient>
    <radialGradient cx="0" cy="0" gradientTransform="matrix(0.0123, 0.0, 0.0, 0.0123, -0.05, -24.5)" gradientUnits="userSpaceOnUse" id="gradient25" r="819.2" spreadMethod="pad">
      <stop offset="0.0" stop-color="#fffbcc"/>
      <stop offset="1.0" stop-color="#d9cfa7"/>
    </radialGradient>
    <radialGradient cx="0" cy="0" gradientTransform="matrix(0.0127, 0.0, 0.0, 0.0127, 4.0, -20.75)" gradientUnits="userSpaceOnUse" id="gradient26" r="819.2" spreadMethod="pad">
      <stop offset="0.0" stop-color="#d39557"/>
      <stop offset="1.0" stop-color="#6a4b2b"/>
    </radialGradient>
    <radialGradient cx="0" cy="0" gradientTransform="matrix(0.0111, 0.0, 0.0, 0.0111, -6.1, -20.3)" gradientUnits="userSpaceOnUse" id="gradient27" r="819.2" spreadMethod="pad">
      <stop offset="0.0" stop-color="#f6ad65"/>
      <stop offset="1.0" stop-color="#7f5a34"/>
    </radialGradient>
    <radialGradient cx="0" cy="0" gradientTransform="matrix(0.0047, 0.0, 0.0, 0.0047, -4.85, -12.05)" gradientUnits="userSpaceOnUse" id="gradient28" r="819.2" spreadMethod="pad">
      <stop offset="0.0" stop-color="#ffe384"/>
      <stop offset="1.0" stop-color="#8c633a"/>
    </radialGradient>
    <radialGradient cx="0" cy="0" gradientTransform="matrix(0.0047, 0.0, 0.0, 0.0047, -2.7, -11.45)" gradientUnits="userSpaceOnUse" id="gradient29" r="819.2" spreadMethod="pad">
      <stop offset="0.0" stop-color="#ffe284"/>
      <stop offset="1.0" stop-color="#966a3d"/>
    </radialGradient>
    <radialGradient cx="0" cy="0" gradientTransform="matrix(0.0079, 0.0, 0.0, 0.0079, -8.8, -16.2)" gradientUnits="userSpaceOnUse" id="gradient30" r="819.2" spreadMethod="pad">
      <stop offset="0.0" stop-color="#ffba6c"/>
      <stop offset="1.0" stop-color="#a87645"/>
    </radialGradient>
    <radialGradient cx="0" cy="0" gradientTransform="matrix(0.0106, 0.0, 0.0, 0.0106, -7.35, -12.3)" gradientUnits="userSpaceOnUse" id="gradient31" r="819.2" spreadMethod="pad">
      <stop offset="0.0" stop-color="#fff18c"/>
      <stop offset="1.0" stop-color="#a27242"/>
    </radialGradient>
    <radialGradient cx="0" cy="0" gradientTransform="matrix(0.0033, 0.0, 0.0, 0.0033, -7.0, -11.4)" gradientUnits="userSpaceOnUse" id="gradient32" r="819.2" spreadMethod="pad">
      <stop offset="0.0" stop-color="#b7814b"/>
      <stop offset="1.0" stop-color="#af7b48"/>
    </radialGradient>
    <radialGradient cx="0" cy="0" gradientTransform="matrix(0.0114, 0.0, 0.0, 0.0114, -11.55, 2.7)" gradientUnits="userSpaceOnUse" id="gradient33" r="819.2" spreadMethod="pad">
      <stop offset="0.0" stop-color="#766c6c"/>
      <stop offset="1.0" stop-color="#4f4848"/>
    </radialGradient>
    <radialGradient cx="0" cy="0" gradientTransform="matrix(0.0095, 0.0, 0.0, 0.0095, -12.0, 4.55)" gradientUnits="userSpaceOnUse" id="gradient34" r="819.2" spreadMethod="pad">
      <stop offset="0.0" stop-color="#fffc93"/>
      <stop offset="1.0" stop-color="#ffd079"/>
    </radialGradient>
    <radialGradient cx="0" cy="0" gradientTransform="matrix(0.0027, 0.0, 0.0, 0.0027, -18.25, 8.55)" gradientUnits="userSpaceOnUse" id="gradient35" r="819.2" spreadMethod="pad">
      <stop offset="0.0" stop-color="#a87645"/>
      <stop offset="1.0" stop-color="#a67544"/>
    </radialGradient>
    <radialGradient cx="0" cy="0" gradientTransform="matrix(0.0082, 0.0, 0.0, 0.0082, 2.15, -10.95)" gradientUnits="userSpaceOnUse" id="gradient36" r="819.2" spreadMethod="pad">
      <stop offset="0.0" stop-color="#fff18c"/>
      <stop offset="1.0" stop-color="#b47f4a"/>
    </radialGradient>
    <radialGradient cx="0" cy="0" gradientTransform="matrix(0.0033, 0.0, 0.0, 0.0033, 3.6, -13.05)" gradientUnits="userSpaceOnUse" id="gradient37" r="819.2" spreadMethod="pad">
      <stop offset="0.0" stop-color="#9c6e40"/>
      <stop offset="1.0" stop-color="#8a6139"/>
    </radialGradient>
    <radialGradient cx="0" cy="0" gradientTransform="matrix(0.0027, 0.0, 0.0, 0.0027, 4.05, -10.85)" gradientUnits="userSpaceOnUse" id="gradient38" r="819.2" spreadMethod="pad">
      <stop offset="0.0" stop-color="#9c6e40"/>
      <stop offset="1.0" stop-color="#996c3f"/>
    </radialGradient>
    <radialGradient cx="0" cy="0" gradientTransform="matrix(0.0031, 0.0, 0.0, 0.0031, 3.8, -10.4)" gradientUnits="userSpaceOnUse" id="gradient39" r="819.2" spreadMethod="pad">
      <stop offset="0.0" stop-color="#322314"/>
      <stop offset="1.0" stop-color="#261b10"/>
    </radialGradient>
    <radialGradient cx="0" cy="0" gradientTransform="matrix(0.0058, 0.0, 0.0, 0.0058, 0.3, -12.45)" gradientUnits="userSpaceOnUse" id="gradient40" r="819.2" spreadMethod="pad">
      <stop offset="0.0" stop-color="#db9a5a"/>
      <stop offset="1.0" stop-color="#875f37"/>
    </radialGradient>
    <radialGradient cx="0" cy="0" gradientTransform="matrix(0.0014, 0.0, 0.0, 0.0014, -7.0, -10.85)" gradientUnits="userSpaceOnUse" id="gradient41" r="819.2" spreadMethod="pad">
      <stop offset="0.0" stop-color="#cd2d2d"/>
      <stop offset="1.0" stop-color="#cc2d2d"/>
    </radialGradient>
    <radialGradient cx="0" cy="0" gradientTransform="matrix(0.003, 0.0, 0.0, 0.003, -5.25, -11.1)" gradientUnits="userSpaceOnUse" id="gradient42" r="819.2" spreadMethod="pad">
      <stop offset="0.0" stop-color="#b62828"/>
      <stop offset="1.0" stop-color="#711919"/>
    </radialGradient>
    <radialGradient cx="0" cy="0" gradientTransform="matrix(0.0079, 0.0, 0.0, 0.0079, 12.9, -10.0)" gradientUnits="userSpaceOnUse" id="gradient43" r="819.2" spreadMethod="pad">
      <stop offset="0.0" stop-color="#6c6262"/>
      <stop offset="1.0" stop-color="#363030"/>
    </radialGradient>
    <radialGradient cx="0" cy="0" gradientTransform="matrix(0.0125, 0.0, 0.0, 0.0125, -0.6, -10.85)" gradientUnits="userSpaceOnUse" id="gradient44" r="819.2" spreadMethod="pad">
      <stop offset="0.0" stop-color="#b8b8b8"/>
      <stop offset="1.0" stop-color="#b3b3b3"/>
    </radialGradient>
    <radialGradient cx="0" cy="0" gradientTransform="matrix(0.0121, 0.0, 0.0, 0.0121, 9.6, -2.1)" gradientUnits="userSpaceOnUse" id="gradient45" r="819.2" spreadMethod="pad">
      <stop offset="0.0" stop-color="#fffc92"/>
      <stop offset="1.0" stop-color="#9c6e40"/>
    </radialGradient>
    <radialGradient cx="0" cy="0" gradientTransform="matrix(0.0027, 0.0, 0.0, 0.0027, 10.6, -3.05)" gradientUnits="userSpaceOnUse" id="gradient46" r="819.2" spreadMethod="pad">
      <stop offset="0.0" stop-color="#c58b51"/>
      <stop offset="1.0" stop-color="#7a5632"/>
    </radialGradient>
    <radialGradient cx="0" cy="0" gradientTransform="matrix(0.0026, 0.0, 0.0, 0.0026, -1.15, -9.55)" gradientUnits="userSpaceOnUse" id="gradient47" r="819.2" spreadMethod="pad">
      <stop offset="0.0" stop-color="#c6ba37"/>
      <stop offset="1.0" stop-color="#c5b937"/>
    </radialGradient>
    <radialGradient cx="0" cy="0" gradientTransform="matrix(0.0038, 0.0, 0.0, 0.0038, 1.0, -9.1)" gradientUnits="userSpaceOnUse" id="gradient48" r="819.2" spreadMethod="pad">
      <stop offset="0.0" stop-color="#b6ab33"/>
      <stop offset="1.0" stop-color="#9d942c"/>
    </radialGradient>
    <radialGradient cx="0" cy="0" gradientTransform="matrix(0.0132, 0.0, 0.0, 0.0132, 11.95, -11.75)" gradientUnits="userSpaceOnUse" id="gradient49" r="819.2" spreadMethod="pad">
      <stop offset="0.0" stop-color="#604428"/>
      <stop offset="1.0" stop-color="#261b10"/>
    </radialGradient>
    <radialGradient cx="0" cy="0" gradientTransform="matrix(0.0025, 0.0, 0.0, 0.0025, 9.2, -6.8)" gradientUnits="userSpaceOnUse" id="gradient50" r="819.2" spreadMethod="pad">
      <stop offset="0.0" stop-color="#ffd27a"/>
      <stop offset="1.0" stop-color="#ffc874"/>
    </radialGradient>
    <radialGradient cx="0" cy="0" gradientTransform="matrix(0.0021, 0.0, 0.0, 0.0021, 10.25, -6.1)" gradientUnits="userSpaceOnUse" id="gradient51" r="819.2" spreadMethod="pad">
      <stop offset="0.0" stop-color="#ae7b48"/>
      <stop offset="1.0" stop-color="#ac7946"/>
    </radialGradient>
    <radialGradient cx="0" cy="0" gradientTransform="matrix(0.0029, 0.0, 0.0, 0.0029, 6.2, -2.6)" gradientUnits="userSpaceOnUse" id="gradient52" r="819.2" spreadMethod="pad">
      <stop offset="0.0" stop-color="#ab7946"/>
      <stop offset="1.0" stop-color="#a67544"/>
    </radialGradient>
  </defs>
</svg>
