<?xml version="1.0" encoding="UTF-8" standalone="no"?>
<svg xmlns:ffdec="https://www.free-decompiler.com/flash" xmlns:xlink="http://www.w3.org/1999/xlink" ffdec:objectType="shape" height="66.6px" width="31.55px" xmlns="http://www.w3.org/2000/svg">
  <g transform="matrix(1.0, 0.0, 0.0, 1.0, 15.45, 55.1)">
    <path d="M2.95 -50.5 L3.15 -49.9 2.75 -50.3 2.45 -50.3 2.65 -49.25 2.25 -48.8 2.35 -47.85 2.15 -47.8 1.95 -47.1 1.75 -47.15 1.45 -46.9 Q-1.25 -48.4 -1.55 -49.25 L-1.7 -48.95 -1.45 -48.85 -1.4 -47.5 -2.45 -47.8 -2.65 -47.15 -2.9 -47.0 -3.65 -47.85 -3.95 -47.85 -3.65 -47.35 Q-5.0 -46.4 -4.2 -45.9 L-4.75 -45.6 -5.85 -45.8 -5.55 -45.3 -5.55 -44.95 -5.2 -44.65 -5.7 -44.9 Q-7.5 -47.35 -8.05 -50.25 L-8.1 -50.7 -7.6 -52.25 -7.65 -52.7 -6.45 -53.65 -5.65 -54.1 -4.4 -54.55 -3.2 -54.5 Q0.35 -54.6 2.95 -50.5" fill="url(#gradient0)" fill-rule="evenodd" stroke="none"/>
    <path d="M1.95 -47.1 L2.15 -47.8 2.35 -47.85 2.25 -48.8 2.65 -49.25 2.45 -50.3 2.75 -50.3 3.15 -49.9 2.95 -50.5 Q3.35 -50.4 4.65 -47.55 L4.65 -45.5 4.6 -44.75 4.4 -44.25 Q4.45 -44.95 3.4 -44.6 L3.0 -43.7 2.95 -43.75 2.55 -45.65 1.95 -47.1" fill="url(#gradient1)" fill-rule="evenodd" stroke="none"/>
    <path d="M-5.2 -44.65 L-5.55 -44.95 -5.55 -45.3 -5.85 -45.8 -4.75 -45.6 -4.2 -45.9 Q-5.0 -46.4 -3.65 -47.35 L-3.95 -47.85 -3.65 -47.85 -2.9 -47.0 -2.65 -47.15 -2.45 -47.8 -1.4 -47.5 -1.45 -48.85 -1.7 -48.95 -1.55 -49.25 Q-1.25 -48.4 1.45 -46.9 L1.75 -47.15 1.95 -47.1 2.55 -45.65 2.95 -43.75 2.45 -44.0 Q1.75 -43.1 1.8 -42.4 0.85 -42.3 0.4 -41.8 L-1.55 -42.15 -1.95 -41.95 -1.9 -41.45 -3.45 -42.85 -5.2 -44.65" fill="url(#gradient2)" fill-rule="evenodd" stroke="none"/>
    <path d="M4.6 -44.75 L4.65 -45.5 Q7.75 -44.85 6.15 -40.6 L5.95 -41.75 5.45 -42.55 5.1 -44.0 4.75 -44.25 4.6 -44.75" fill="url(#gradient3)" fill-rule="evenodd" stroke="none"/>
    <path d="M3.0 -43.7 L3.4 -44.6 Q4.45 -44.95 4.4 -44.25 L4.6 -44.75 4.75 -44.25 5.05 -42.95 5.1 -40.35 4.95 -39.1 4.15 -38.7 3.85 -40.95 3.0 -43.7" fill="url(#gradient4)" fill-rule="evenodd" stroke="none"/>
    <path d="M2.95 -43.75 L3.0 -43.7 3.85 -40.95 4.15 -38.7 3.8 -38.35 1.05 -38.25 0.05 -38.85 -0.4 -39.4 -1.9 -41.45 -1.95 -41.95 -1.55 -42.15 0.4 -41.8 Q0.85 -42.3 1.8 -42.4 1.75 -43.1 2.45 -44.0 L2.95 -43.75" fill="url(#gradient5)" fill-rule="evenodd" stroke="none"/>
    <path d="M4.15 -38.7 L4.95 -39.1 5.1 -40.35 5.85 -39.5 6.0 -39.05 6.3 -37.9 6.25 -36.5 6.0 -35.45 5.45 -34.4 5.0 -35.1 4.85 -36.6 4.15 -38.7" fill="url(#gradient6)" fill-rule="evenodd" stroke="none"/>
    <path d="M0.05 -38.85 L1.05 -38.25 3.8 -38.35 4.15 -38.7 4.85 -36.6 5.0 -35.1 Q4.05 -33.85 2.3 -34.6 1.1 -35.95 0.95 -36.65 L0.05 -38.85" fill="url(#gradient7)" fill-rule="evenodd" stroke="none"/>
    <path d="M-0.4 -39.4 L0.05 -38.85 0.95 -36.65 Q1.1 -35.95 2.3 -34.6 L2.05 -33.7 2.0 -32.7 2.05 -32.05 2.0 -32.0 1.95 -30.7 2.0 -30.35 Q1.05 -29.5 0.25 -27.8 L-0.35 -27.35 -0.2 -29.35 -0.45 -30.35 -0.25 -30.7 Q1.0 -36.35 -4.05 -36.25 -4.55 -36.8 -6.05 -35.9 L-7.6 -34.6 -7.85 -34.25 -7.8 -33.9 -7.7 -33.55 -7.3 -32.85 -7.4 -32.05 -6.8 -29.6 -5.45 -27.45 -6.75 -27.8 -6.95 -28.0 -7.25 -28.2 -7.6 -28.35 -7.65 -28.45 -7.7 -28.45 -7.75 -28.5 Q-11.65 -29.95 -11.7 -33.5 L-11.0 -35.35 Q-9.85 -36.7 -8.45 -37.25 L-8.05 -37.35 -7.85 -37.4 -7.7 -37.4 Q-7.95 -41.1 -3.4 -41.9 L-3.35 -41.6 -4.3 -41.15 -4.6 -40.95 -5.65 -40.15 -5.75 -40.15 Q-7.9 -38.55 -7.2 -37.6 L-7.15 -37.65 -7.05 -37.65 -2.8 -39.05 -0.4 -39.4 M5.1 -40.35 L5.05 -42.95 5.45 -42.55 5.95 -41.75 6.15 -40.6 6.0 -39.05 5.85 -39.5 5.1 -40.35 M-6.2 -23.8 L-6.2 -24.1 -6.25 -24.15 -6.25 -24.25 -6.65 -25.3 -5.55 -24.8 -4.55 -24.75 -4.15 -23.35 -5.05 -23.45 Q-5.85 -24.05 -6.2 -23.8 M-0.05 -25.7 L1.9 -26.85 2.05 -27.3 2.1 -27.15 2.05 -26.55 2.25 -25.65 2.15 -24.85 2.15 -23.85 2.45 -22.65 0.75 -23.05 -0.05 -25.7" fill="url(#gradient8)" fill-rule="evenodd" stroke="none"/>
    <path d="M5.05 -42.95 L4.75 -44.25 5.1 -44.0 5.45 -42.55 5.05 -42.95" fill="url(#gradient9)" fill-rule="evenodd" stroke="none"/>
    <path d="M6.25 -36.5 L6.75 -35.55 6.4 -33.05 6.0 -32.15 5.5 -31.7 5.6 -33.15 5.45 -34.4 6.0 -35.45 6.25 -36.5 M2.05 -32.0 L2.05 -32.05 2.0 -32.7 2.65 -31.55 2.4 -31.5 2.05 -32.0" fill="url(#gradient10)" fill-rule="evenodd" stroke="none"/>
    <path d="M5.45 -34.4 L5.6 -33.15 5.5 -31.7 5.45 -31.55 Q5.15 -30.6 3.55 -30.7 L2.65 -31.55 2.0 -32.7 2.05 -33.7 2.3 -34.6 Q4.05 -33.85 5.0 -35.1 L5.45 -34.4" fill="url(#gradient11)" fill-rule="evenodd" stroke="none"/>
    <path d="M6.0 -32.15 Q7.35 -31.15 6.1 -28.85 L5.6 -28.25 5.05 -28.1 5.4 -28.9 5.55 -30.7 5.45 -31.55 5.5 -31.7 6.0 -32.15 M2.05 -28.3 L1.9 -29.05 2.0 -30.2 2.8 -28.05 2.25 -28.05 2.1 -28.25 2.05 -28.3" fill="url(#gradient12)" fill-rule="evenodd" stroke="none"/>
    <path d="M2.05 -32.05 L2.05 -32.0 2.0 -32.0 2.05 -32.05" fill="url(#gradient13)" fill-rule="evenodd" stroke="none"/>
    <path d="M5.45 -31.55 L5.55 -30.7 5.4 -28.9 5.05 -28.1 5.0 -28.05 Q4.9 -27.65 3.45 -27.55 L2.8 -28.05 2.0 -30.2 2.0 -30.35 1.95 -30.7 2.0 -32.0 2.05 -32.0 2.4 -31.5 2.65 -31.55 3.55 -30.7 Q5.15 -30.6 5.45 -31.55" fill="url(#gradient14)" fill-rule="evenodd" stroke="none"/>
    <path d="M6.1 -28.85 L6.35 -28.2 6.25 -27.3 6.05 -26.5 5.25 -25.4 5.2 -25.4 5.35 -27.4 5.15 -28.0 5.0 -28.05 5.05 -28.1 5.6 -28.25 6.1 -28.85 M2.8 -25.05 L2.75 -25.1 2.25 -25.65 2.05 -26.55 2.1 -27.15 2.85 -25.05 2.8 -25.05" fill="url(#gradient15)" fill-rule="evenodd" stroke="none"/>
    <path d="M-6.65 -25.3 L-6.95 -25.65 Q-6.65 -27.85 -7.2 -27.9 L-7.35 -28.1 -7.25 -28.15 -7.2 -28.1 -6.95 -28.0 -6.75 -27.8 -5.45 -27.45 -5.1 -27.05 -4.55 -24.75 -5.55 -24.8 -6.65 -25.3 M-7.6 -28.3 L-7.65 -28.35 -7.6 -28.35 -7.6 -28.3 M2.0 -30.2 L1.9 -29.05 2.05 -28.3 2.05 -28.25 2.05 -27.3 1.9 -26.85 -0.05 -25.7 -0.4 -26.7 -0.35 -27.35 0.25 -27.8 Q1.05 -29.5 2.0 -30.35 L2.0 -30.2" fill="url(#gradient16)" fill-rule="evenodd" stroke="none"/>
    <path d="M2.05 -28.25 L2.05 -28.3 2.1 -28.25 2.05 -28.25" fill="url(#gradient17)" fill-rule="evenodd" stroke="none"/>
    <path d="M2.05 -27.3 L2.05 -28.25 2.1 -28.25 2.25 -28.05 2.8 -28.05 3.45 -27.55 Q4.9 -27.65 5.0 -28.05 L5.15 -28.0 5.35 -27.4 5.2 -25.4 4.95 -24.95 4.3 -24.5 3.45 -24.55 3.15 -24.7 2.95 -24.95 2.9 -25.0 2.85 -25.05 2.1 -27.15 2.05 -27.3" fill="url(#gradient18)" fill-rule="evenodd" stroke="none"/>
    <path d="M2.75 -25.1 L2.6 -25.15 2.25 -24.8 2.15 -24.85 2.25 -25.65 2.75 -25.1 M2.7 -22.15 L3.55 -21.1 3.05 -21.25 2.7 -22.15 M4.6 -21.15 Q5.6 -22.05 4.95 -24.95 L5.2 -25.4 5.25 -25.4 5.95 -24.75 6.2 -24.1 6.15 -23.65 6.0 -22.7 5.5 -21.75 5.2 -21.4 4.6 -21.15 M3.45 -24.55 L3.35 -24.35 3.15 -24.7 3.45 -24.55 M2.95 -24.95 L2.8 -25.05 2.85 -25.05 2.9 -25.0 2.95 -24.95" fill="url(#gradient19)" fill-rule="evenodd" stroke="none"/>
    <path d="M2.15 -24.85 L2.25 -24.8 2.6 -25.15 2.75 -25.1 2.8 -25.05 2.95 -24.95 3.15 -24.7 3.35 -24.35 3.45 -24.55 4.3 -24.5 4.95 -24.95 Q5.6 -22.05 4.6 -21.15 L4.25 -21.0 3.55 -21.1 2.7 -22.15 2.45 -22.65 2.15 -23.85 2.15 -24.85" fill="url(#gradient20)" fill-rule="evenodd" stroke="none"/>
    <path d="M6.25 -27.3 L6.75 -25.0 6.2 -23.65 6.15 -23.65 6.2 -24.1 5.95 -24.75 5.25 -25.4 6.05 -26.5 6.25 -27.3" fill="url(#gradient21)" fill-rule="evenodd" stroke="none"/>
    <path d="M6.2 -23.65 L6.4 -20.9 5.5 -21.75 6.0 -22.7 6.15 -23.65 6.2 -23.65 M5.5 -14.95 L5.05 -12.85 5.85 -11.35 6.0 -11.05 5.4 -10.45 4.25 -9.85 2.8 -9.75 2.3 -10.9 1.95 -11.3 1.6 -11.7 Q2.4 -13.9 2.15 -17.9 L2.8 -18.65 3.8 -15.65 Q4.85 -14.6 5.5 -14.95" fill="url(#gradient22)" fill-rule="evenodd" stroke="none"/>
    <path d="M6.4 -20.9 Q8.35 -15.05 5.5 -14.95 4.85 -14.6 3.8 -15.65 L2.8 -18.65 3.15 -20.45 3.05 -21.25 3.55 -21.1 4.25 -21.0 4.6 -21.15 5.2 -21.4 5.5 -21.75 6.4 -20.9" fill="url(#gradient23)" fill-rule="evenodd" stroke="none"/>
    <path d="M2.45 -22.65 L2.7 -22.15 3.05 -21.25 3.15 -20.45 2.8 -18.65 2.15 -17.9 1.45 -20.3 1.15 -20.6 0.75 -23.05 2.45 -22.65 M-4.15 -23.35 L-4.0 -22.75 Q-4.7 -22.7 -4.95 -23.2 L-5.05 -23.45 -4.15 -23.35" fill="url(#gradient24)" fill-rule="evenodd" stroke="none"/>
    <path d="M-0.35 -27.35 L-0.4 -26.7 -0.05 -25.7 0.75 -23.05 1.15 -20.6 1.25 -20.05 0.45 -19.05 -0.1 -19.05 Q-1.45 -17.65 -2.5 -19.05 L-2.7 -19.45 -4.0 -22.75 -4.15 -23.35 -4.55 -24.75 -5.1 -27.05 -5.45 -27.45 -6.8 -29.6 -7.4 -32.05 -7.3 -32.85 -7.25 -33.05 -7.25 -33.1 -6.9 -34.1 Q-5.95 -35.1 -4.55 -35.1 L-4.55 -34.85 Q-4.2 -34.95 -2.1 -33.8 L-0.95 -32.15 -0.45 -30.35 -0.2 -29.35 -0.35 -27.35" fill="url(#gradient25)" fill-rule="evenodd" stroke="none"/>
    <path d="M-1.85 -12.0 L-2.0 -12.75 -2.9 -16.35 -2.8 -19.05 -2.7 -19.45 -2.5 -19.05 Q-1.45 -17.65 -0.1 -19.05 L0.45 -19.05 1.25 -20.05 1.15 -20.6 1.45 -20.3 2.15 -17.9 Q2.4 -13.9 1.6 -11.7 L1.6 -11.5 1.5 -9.7 0.05 -9.0 -0.2 -9.05 -1.35 -10.05 -1.7 -11.25 -1.85 -12.0" fill="url(#gradient26)" fill-rule="evenodd" stroke="none"/>
    <path d="M5.85 -11.35 Q8.5 -9.45 10.1 -4.3 9.9 -2.0 5.85 -1.9 4.1 -3.0 2.25 -7.4 L2.8 -8.6 2.8 -9.75 4.25 -9.85 5.4 -10.45 6.0 -11.05 5.85 -11.35" fill="url(#gradient27)" fill-rule="evenodd" stroke="none"/>
    <path d="M1.6 -11.7 L1.95 -11.3 1.6 -11.5 1.6 -11.7" fill="url(#gradient28)" fill-rule="evenodd" stroke="none"/>
    <path d="M2.25 -7.4 Q0.8 -5.35 -2.05 -6.9 -4.1 -9.1 -2.2 -11.25 L-2.0 -11.35 -1.7 -11.25 -1.35 -10.05 -0.2 -9.05 0.05 -9.0 1.5 -9.7 1.6 -11.5 1.95 -11.3 2.3 -10.9 2.8 -9.75 2.8 -8.6 2.25 -7.4" fill="url(#gradient29)" fill-rule="evenodd" stroke="none"/>
    <path d="M10.1 -4.3 Q12.85 2.3 12.95 4.45 L14.15 5.8 Q11.6 8.25 11.75 9.3 10.95 8.2 10.95 8.7 L10.55 7.85 9.95 6.75 8.7 3.05 5.85 -1.9 Q9.9 -2.0 10.1 -4.3" fill="url(#gradient30)" fill-rule="evenodd" stroke="none"/>
    <path d="M-3.2 -54.5 L-4.4 -54.55 -5.65 -54.1 -6.45 -53.65 Q-4.9 -56.0 -3.2 -54.5" fill="url(#gradient31)" fill-rule="evenodd" stroke="none"/>
    <path d="M-7.65 -52.7 L-7.6 -52.25 -8.1 -50.7 -8.05 -50.25 -8.6 -49.9 -8.8 -49.0 Q-10.05 -48.75 -10.1 -45.3 -11.05 -46.95 -11.0 -48.2 L-10.75 -50.5 -9.7 -52.3 -7.65 -52.7" fill="url(#gradient32)" fill-rule="evenodd" stroke="none"/>
    <path d="M-8.05 -50.25 Q-7.5 -47.35 -5.7 -44.9 L-5.35 -43.95 -4.2 -42.25 -4.25 -42.15 -4.45 -42.3 -4.5 -42.4 -6.1 -43.5 -6.2 -43.65 -6.9 -44.5 Q-7.55 -44.85 -8.4 -47.0 L-8.8 -49.0 -8.6 -49.9 -8.05 -50.25" fill="url(#gradient33)" fill-rule="evenodd" stroke="none"/>
    <path d="M-6.15 -43.5 L-6.2 -43.65 -6.1 -43.5 -6.15 -43.5" fill="url(#gradient34)" fill-rule="evenodd" stroke="none"/>
    <path d="M-5.7 -44.9 L-5.2 -44.65 -3.45 -42.85 -3.4 -42.4 -3.45 -42.3 -4.2 -42.25 -5.35 -43.95 -5.7 -44.9 M-4.45 -42.3 L-5.35 -42.6 -6.15 -43.5 -6.1 -43.5 -4.5 -42.4 -4.45 -42.3" fill="url(#gradient35)" fill-rule="evenodd" stroke="none"/>
    <path d="M-8.45 -37.25 L-8.1 -37.45 -8.05 -37.35 -8.45 -37.25" fill="url(#gradient36)" fill-rule="evenodd" stroke="none"/>
    <path d="M-8.1 -37.45 L-7.85 -37.4 -8.05 -37.35 -8.1 -37.45" fill="url(#gradient37)" fill-rule="evenodd" stroke="none"/>
    <path d="M-5.65 -40.1 L-5.65 -40.15 -4.6 -40.95 -4.3 -41.15 -3.35 -41.6 -3.35 -41.5 -3.6 -41.4 Q-3.7 -40.8 -4.95 -40.45 L-5.25 -39.2 -6.9 -37.85 -6.6 -38.9 -5.65 -40.1" fill="url(#gradient38)" fill-rule="evenodd" stroke="none"/>
    <path d="M-5.65 -40.15 L-5.65 -40.1 -5.75 -40.15 -5.65 -40.15" fill="url(#gradient39)" fill-rule="evenodd" stroke="none"/>
    <path d="M-5.65 -40.1 L-6.6 -38.9 -6.9 -37.85 -7.05 -37.65 -7.15 -37.65 -7.2 -37.6 Q-7.9 -38.55 -5.75 -40.15 L-5.65 -40.1" fill="url(#gradient40)" fill-rule="evenodd" stroke="none"/>
    <path d="M-6.9 -37.85 L-5.25 -39.2 -3.4 -40.15 -3.25 -40.2 -3.25 -40.0 -4.9 -39.3 -3.25 -39.85 -3.15 -39.3 -2.8 -39.05 -7.05 -37.65 -6.9 -37.85 M-4.55 -35.1 Q-5.95 -35.1 -6.9 -34.1 L-7.25 -33.1 -7.3 -33.1 -7.6 -34.6 -6.05 -35.9 Q-4.55 -36.8 -4.05 -36.25 L-4.2 -35.9 -4.5 -35.75 -4.55 -35.1" fill="url(#gradient41)" fill-rule="evenodd" stroke="none"/>
    <path d="M-1.9 -41.45 L-0.4 -39.4 -2.8 -39.05 -3.15 -39.3 -3.25 -39.85 -3.25 -40.0 -3.25 -40.2 -3.35 -41.5 -3.35 -41.6 -3.4 -41.9 -3.45 -42.3 -3.4 -42.4 -3.45 -42.85 -1.9 -41.45" fill="url(#gradient42)" fill-rule="evenodd" stroke="none"/>
    <path d="M-5.25 -39.2 L-4.95 -40.45 Q-3.7 -40.8 -3.6 -41.4 L-3.35 -41.5 -3.25 -40.2 -3.4 -40.15 -5.25 -39.2 M-3.25 -39.85 L-4.9 -39.3 -3.25 -40.0 -3.25 -39.85" fill="url(#gradient43)" fill-rule="evenodd" stroke="none"/>
    <path d="M-0.45 -30.35 L-0.95 -32.15 -2.1 -33.8 Q-4.2 -34.95 -4.55 -34.85 L-4.55 -35.1 -4.5 -35.75 -4.2 -35.9 -4.05 -36.25 Q1.0 -36.35 -0.25 -30.7 L-0.45 -30.35" fill="url(#gradient44)" fill-rule="evenodd" stroke="none"/>
    <path d="M-7.25 -33.05 L-7.3 -32.85 -7.7 -33.55 -7.8 -33.9 -7.85 -34.25 -7.6 -34.6 -7.3 -33.1 -7.25 -33.05" fill="url(#gradient45)" fill-rule="evenodd" stroke="none"/>
    <path d="M-7.25 -33.1 L-7.25 -33.05 -7.3 -33.1 -7.25 -33.1" fill="url(#gradient46)" fill-rule="evenodd" stroke="none"/>
    <path d="M-7.25 -28.15 L-7.25 -28.2 -6.95 -28.0 -7.2 -28.1 -7.25 -28.15 M-7.65 -28.35 L-7.65 -28.45 -7.6 -28.35 -7.65 -28.35" fill="url(#gradient47)" fill-rule="evenodd" stroke="none"/>
    <path d="M-7.35 -28.1 L-7.5 -28.25 -7.6 -28.3 -7.6 -28.35 -7.25 -28.2 -7.25 -28.15 -7.35 -28.1 M-7.65 -28.35 L-7.7 -28.45 -7.65 -28.45 -7.65 -28.35" fill="url(#gradient48)" fill-rule="evenodd" stroke="none"/>
    <path d="M-2.0 -12.75 Q-2.2 -12.15 -3.6 -10.85 L-4.0 -9.85 -4.45 -8.85 -6.2 -7.45 Q-5.25 -9.05 -7.3 -9.0 L-7.5 -9.6 -7.55 -9.65 -8.45 -11.85 -8.5 -11.95 Q-11.05 -21.3 -6.2 -23.8 -5.85 -24.05 -5.05 -23.45 L-4.95 -23.2 Q-4.7 -22.7 -4.0 -22.75 L-2.7 -19.45 -2.8 -19.05 -2.9 -16.35 -2.0 -12.75" fill="url(#gradient49)" fill-rule="evenodd" stroke="none"/>
    <path d="M-5.2 -3.35 L-6.35 -0.65 -6.5 0.55 Q-6.7 1.8 -9.75 2.1 -12.25 0.25 -10.35 -1.7 L-10.25 -1.75 -10.1 -2.85 -9.75 -4.55 -9.65 -4.35 Q-7.4 -0.95 -5.2 -3.35" fill="url(#gradient50)" fill-rule="evenodd" stroke="none"/>
    <path d="M-6.5 0.55 Q-6.6 7.6 -15.45 -1.3 -15.7 -5.85 -10.1 -2.85 L-10.25 -1.75 -10.35 -1.7 Q-12.25 0.25 -9.75 2.1 -6.7 1.8 -6.5 0.55" fill="url(#gradient51)" fill-rule="evenodd" stroke="none"/>
    <path d="M-2.2 -11.25 L-1.85 -12.0 -1.7 -11.25 -2.0 -11.35 -2.2 -11.25" fill="url(#gradient52)" fill-rule="evenodd" stroke="none"/>
    <path d="M-4.0 -9.85 Q-1.9 -9.6 -5.2 -3.35 -7.4 -0.95 -9.65 -4.35 L-9.75 -4.65 -9.6 -6.95 Q-9.5 -8.05 -8.25 -9.65 L-8.2 -9.65 -8.2 -9.4 -7.85 -9.4 -7.8 -9.3 -7.55 -9.6 -7.5 -9.6 -7.3 -9.0 Q-5.25 -9.05 -6.2 -7.45 L-4.45 -8.85 -4.0 -9.85" fill="url(#gradient53)" fill-rule="evenodd" stroke="none"/>
    <path d="M-8.5 -11.85 L-8.5 -11.95 -8.45 -11.85 -8.5 -11.85 M-7.5 -9.6 L-7.55 -9.6 -7.55 -9.65 -7.5 -9.6" fill="url(#gradient54)" fill-rule="evenodd" stroke="none"/>
    <path d="M-7.55 -9.6 L-7.8 -9.3 -7.85 -9.4 -7.75 -9.75 -7.55 -9.65 -7.55 -9.6" fill="url(#gradient55)" fill-rule="evenodd" stroke="none"/>
    <path d="M-8.15 -10.2 L-8.5 -11.85 -8.45 -11.85 -7.55 -9.65 -7.75 -9.75 -8.0 -10.05 -8.15 -10.2" fill="url(#gradient56)" fill-rule="evenodd" stroke="none"/>
    <path d="M-8.25 -9.65 L-8.2 -9.7 -8.2 -9.65 -8.25 -9.65" fill="url(#gradient57)" fill-rule="evenodd" stroke="none"/>
    <path d="M-8.2 -9.7 L-8.15 -10.2 -8.0 -10.05 -7.75 -9.75 -7.85 -9.4 -8.2 -9.4 -8.2 -9.65 -8.2 -9.7" fill="url(#gradient58)" fill-rule="evenodd" stroke="none"/>
    <path d="M-9.75 -4.55 L-9.75 -4.65 -9.65 -4.35 -9.75 -4.55" fill="url(#gradient59)" fill-rule="evenodd" stroke="none"/>
    <path d="M14.15 5.8 Q19.15 8.9 11.45 11.5 L10.8 11.45 7.4 8.65 Q6.4 7.85 9.95 6.75 L10.55 7.85 10.95 8.7 Q10.95 8.2 11.75 9.3 11.6 8.25 14.15 5.8" fill="url(#gradient60)" fill-rule="evenodd" stroke="none"/>
  </g>
  <defs>
    <radialGradient cx="0" cy="0" gradientTransform="matrix(0.0083, 0.0, 0.0, 0.0083, -2.25, -48.8)" gradientUnits="userSpaceOnUse" id="gradient0" r="819.2" spreadMethod="pad">
      <stop offset="0.0" stop-color="#fff449"/>
      <stop offset="1.0" stop-color="#a3992d"/>
    </radialGradient>
    <radialGradient cx="0" cy="0" gradientTransform="matrix(0.0075, 0.0, 0.0, 0.0075, 1.4, -45.6)" gradientUnits="userSpaceOnUse" id="gradient1" r="819.2" spreadMethod="pad">
      <stop offset="0.0" stop-color="#fdee47"/>
      <stop offset="1.0" stop-color="#a1982d"/>
    </radialGradient>
    <radialGradient cx="0" cy="0" gradientTransform="matrix(0.007, 0.0, 0.0, 0.007, -0.9, -46.75)" gradientUnits="userSpaceOnUse" id="gradient2" r="819.2" spreadMethod="pad">
      <stop offset="0.0" stop-color="#fff649"/>
      <stop offset="1.0" stop-color="#baae34"/>
    </radialGradient>
    <radialGradient cx="0" cy="0" gradientTransform="matrix(0.0046, 0.0, 0.0, 0.0046, 4.6, -43.75)" gradientUnits="userSpaceOnUse" id="gradient3" r="819.2" spreadMethod="pad">
      <stop offset="0.0" stop-color="#ffd57c"/>
      <stop offset="1.0" stop-color="#bc844d"/>
    </radialGradient>
    <radialGradient cx="0" cy="0" gradientTransform="matrix(0.007, 0.0, 0.0, 0.007, 2.45, -44.2)" gradientUnits="userSpaceOnUse" id="gradient4" r="819.2" spreadMethod="pad">
      <stop offset="0.0" stop-color="#fff047"/>
      <stop offset="1.0" stop-color="#baaf34"/>
    </radialGradient>
    <radialGradient cx="0" cy="0" gradientTransform="matrix(0.0092, 0.0, 0.0, 0.0092, 1.1, -45.2)" gradientUnits="userSpaceOnUse" id="gradient5" r="819.2" spreadMethod="pad">
      <stop offset="0.0" stop-color="#fff047"/>
      <stop offset="1.0" stop-color="#beb335"/>
    </radialGradient>
    <radialGradient cx="0" cy="0" gradientTransform="matrix(0.0069, 0.0, 0.0, 0.0069, 3.4, -39.6)" gradientUnits="userSpaceOnUse" id="gradient6" r="819.2" spreadMethod="pad">
      <stop offset="0.0" stop-color="#fffb4b"/>
      <stop offset="1.0" stop-color="#bbb034"/>
    </radialGradient>
    <radialGradient cx="0" cy="0" gradientTransform="matrix(0.0068, 0.0, 0.0, 0.0068, 2.35, -39.35)" gradientUnits="userSpaceOnUse" id="gradient7" r="819.2" spreadMethod="pad">
      <stop offset="0.0" stop-color="#fffb4b"/>
      <stop offset="1.0" stop-color="#a89d2f"/>
    </radialGradient>
    <radialGradient cx="0" cy="0" gradientTransform="matrix(0.0172, 0.0, 0.0, 0.0172, -1.65, -36.2)" gradientUnits="userSpaceOnUse" id="gradient8" r="819.2" spreadMethod="pad">
      <stop offset="0.0" stop-color="#ffffff"/>
      <stop offset="1.0" stop-color="#aaaaaa"/>
    </radialGradient>
    <radialGradient cx="0" cy="0" gradientTransform="matrix(0.0044, 0.0, 0.0, 0.0044, 5.15, -41.9)" gradientUnits="userSpaceOnUse" id="gradient9" r="819.2" spreadMethod="pad">
      <stop offset="0.0" stop-color="#655c5c"/>
      <stop offset="1.0" stop-color="#504848"/>
    </radialGradient>
    <radialGradient cx="0" cy="0" gradientTransform="matrix(0.0056, 0.0, 0.0, 0.0056, 4.95, -35.45)" gradientUnits="userSpaceOnUse" id="gradient10" r="819.2" spreadMethod="pad">
      <stop offset="0.0" stop-color="#f1e243"/>
      <stop offset="1.0" stop-color="#9f962c"/>
    </radialGradient>
    <radialGradient cx="0" cy="0" gradientTransform="matrix(0.0047, 0.0, 0.0, 0.0047, 4.25, -34.45)" gradientUnits="userSpaceOnUse" id="gradient11" r="819.2" spreadMethod="pad">
      <stop offset="0.0" stop-color="#fff84a"/>
      <stop offset="1.0" stop-color="#877e25"/>
    </radialGradient>
    <radialGradient cx="0" cy="0" gradientTransform="matrix(0.0053, 0.0, 0.0, 0.0053, 4.95, -31.5)" gradientUnits="userSpaceOnUse" id="gradient12" r="819.2" spreadMethod="pad">
      <stop offset="0.0" stop-color="#f8e945"/>
      <stop offset="1.0" stop-color="#988e2a"/>
    </radialGradient>
    <radialGradient cx="0" cy="0" gradientTransform="matrix(0.001, 0.0, 0.0, 0.001, 2.4, -32.15)" gradientUnits="userSpaceOnUse" id="gradient13" r="819.2" spreadMethod="pad">
      <stop offset="0.0" stop-color="#2b280c"/>
      <stop offset="1.0" stop-color="#222009"/>
    </radialGradient>
    <radialGradient cx="0" cy="0" gradientTransform="matrix(0.0046, 0.0, 0.0, 0.0046, 3.7, -31.4)" gradientUnits="userSpaceOnUse" id="gradient14" r="819.2" spreadMethod="pad">
      <stop offset="0.0" stop-color="#fffd4b"/>
      <stop offset="1.0" stop-color="#8a8227"/>
    </radialGradient>
    <radialGradient cx="0" cy="0" gradientTransform="matrix(0.005, 0.0, 0.0, 0.005, 4.7, -28.7)" gradientUnits="userSpaceOnUse" id="gradient15" r="819.2" spreadMethod="pad">
      <stop offset="0.0" stop-color="#fff047"/>
      <stop offset="1.0" stop-color="#877f25"/>
    </radialGradient>
    <radialGradient cx="0" cy="0" gradientTransform="matrix(0.0113, 0.0, 0.0, 0.0113, -5.5, -24.9)" gradientUnits="userSpaceOnUse" id="gradient16" r="819.2" spreadMethod="pad">
      <stop offset="0.0" stop-color="#34526e"/>
      <stop offset="1.0" stop-color="#283f54"/>
    </radialGradient>
    <radialGradient cx="0" cy="0" gradientTransform="matrix(0.0032, 0.0, 0.0, 0.0032, 2.0, -30.65)" gradientUnits="userSpaceOnUse" id="gradient17" r="819.2" spreadMethod="pad">
      <stop offset="0.0" stop-color="#222009"/>
      <stop offset="1.0" stop-color="#222009"/>
    </radialGradient>
    <radialGradient cx="0" cy="0" gradientTransform="matrix(0.0046, 0.0, 0.0, 0.0046, 4.45, -28.25)" gradientUnits="userSpaceOnUse" id="gradient18" r="819.2" spreadMethod="pad">
      <stop offset="0.0" stop-color="#ffff4c"/>
      <stop offset="1.0" stop-color="#7c7522"/>
    </radialGradient>
    <radialGradient cx="0" cy="0" gradientTransform="matrix(0.0049, 0.0, 0.0, 0.0049, 3.1, -24.85)" gradientUnits="userSpaceOnUse" id="gradient19" r="819.2" spreadMethod="pad">
      <stop offset="0.0" stop-color="#ffff4d"/>
      <stop offset="1.0" stop-color="#8a8226"/>
    </radialGradient>
    <radialGradient cx="0" cy="0" gradientTransform="matrix(0.0044, 0.0, 0.0, 0.0044, 4.25, -24.7)" gradientUnits="userSpaceOnUse" id="gradient20" r="819.2" spreadMethod="pad">
      <stop offset="0.0" stop-color="#ffff4e"/>
      <stop offset="1.0" stop-color="#787021"/>
    </radialGradient>
    <radialGradient cx="0" cy="0" gradientTransform="matrix(0.0034, 0.0, 0.0, 0.0034, 4.95, -26.05)" gradientUnits="userSpaceOnUse" id="gradient21" r="819.2" spreadMethod="pad">
      <stop offset="0.0" stop-color="#827777"/>
      <stop offset="1.0" stop-color="#504949"/>
    </radialGradient>
    <radialGradient cx="0" cy="0" gradientTransform="matrix(0.0121, 0.0, 0.0, 0.0121, 1.9, -18.45)" gradientUnits="userSpaceOnUse" id="gradient22" r="819.2" spreadMethod="pad">
      <stop offset="0.0" stop-color="#706666"/>
      <stop offset="1.0" stop-color="#605757"/>
    </radialGradient>
    <radialGradient cx="0" cy="0" gradientTransform="matrix(0.0063, 0.0, 0.0, 0.0063, 4.8, -20.15)" gradientUnits="userSpaceOnUse" id="gradient23" r="819.2" spreadMethod="pad">
      <stop offset="0.0" stop-color="#ffff4f"/>
      <stop offset="1.0" stop-color="#7a7221"/>
    </radialGradient>
    <radialGradient cx="0" cy="0" gradientTransform="matrix(0.008, 0.0, 0.0, 0.008, -2.25, -22.8)" gradientUnits="userSpaceOnUse" id="gradient24" r="819.2" spreadMethod="pad">
      <stop offset="0.0" stop-color="#978989"/>
      <stop offset="1.0" stop-color="#544d4d"/>
    </radialGradient>
    <radialGradient cx="0" cy="0" gradientTransform="matrix(0.0194, 0.0, 0.0, 0.0194, -4.4, -32.9)" gradientUnits="userSpaceOnUse" id="gradient25" r="819.2" spreadMethod="pad">
      <stop offset="0.0" stop-color="#ffd57c"/>
      <stop offset="1.0" stop-color="#d79858"/>
    </radialGradient>
    <radialGradient cx="0" cy="0" gradientTransform="matrix(0.0133, 0.0, 0.0, 0.0133, -0.15, -19.2)" gradientUnits="userSpaceOnUse" id="gradient26" r="819.2" spreadMethod="pad">
      <stop offset="0.0" stop-color="#ffdb7f"/>
      <stop offset="1.0" stop-color="#ab7846"/>
    </radialGradient>
    <radialGradient cx="0" cy="0" gradientTransform="matrix(0.0118, 0.0, 0.0, 0.0118, 3.95, -10.05)" gradientUnits="userSpaceOnUse" id="gradient27" r="819.2" spreadMethod="pad">
      <stop offset="0.0" stop-color="#fff68f"/>
      <stop offset="1.0" stop-color="#d59657"/>
    </radialGradient>
    <radialGradient cx="0" cy="0" gradientTransform="matrix(0.0015, 0.0, 0.0, 0.0015, 2.0, -12.35)" gradientUnits="userSpaceOnUse" id="gradient28" r="819.2" spreadMethod="pad">
      <stop offset="0.0" stop-color="#ffc170"/>
      <stop offset="1.0" stop-color="#9b6d40"/>
    </radialGradient>
    <radialGradient cx="0" cy="0" gradientTransform="matrix(0.0043, 0.0, 0.0, 0.0043, -0.15, -9.85)" gradientUnits="userSpaceOnUse" id="gradient29" r="819.2" spreadMethod="pad">
      <stop offset="0.0" stop-color="#ffe786"/>
      <stop offset="1.0" stop-color="#96693e"/>
    </radialGradient>
    <radialGradient cx="0" cy="0" gradientTransform="matrix(0.0167, 0.0, 0.0, 0.0167, 13.65, 8.55)" gradientUnits="userSpaceOnUse" id="gradient30" r="819.2" spreadMethod="pad">
      <stop offset="0.0" stop-color="#ffe082"/>
      <stop offset="1.0" stop-color="#b6804a"/>
    </radialGradient>
    <radialGradient cx="0" cy="0" gradientTransform="matrix(0.0029, 0.0, 0.0, 0.0029, -4.4, -53.7)" gradientUnits="userSpaceOnUse" id="gradient31" r="819.2" spreadMethod="pad">
      <stop offset="0.0" stop-color="#948c2a"/>
      <stop offset="1.0" stop-color="#777021"/>
    </radialGradient>
    <radialGradient cx="0" cy="0" gradientTransform="matrix(0.0075, 0.0, 0.0, 0.0075, -7.55, -50.85)" gradientUnits="userSpaceOnUse" id="gradient32" r="819.2" spreadMethod="pad">
      <stop offset="0.0" stop-color="#fff549"/>
      <stop offset="1.0" stop-color="#b0a631"/>
    </radialGradient>
    <radialGradient cx="0" cy="0" gradientTransform="matrix(0.0076, 0.0, 0.0, 0.0076, -7.15, -47.7)" gradientUnits="userSpaceOnUse" id="gradient33" r="819.2" spreadMethod="pad">
      <stop offset="0.0" stop-color="#fffc4b"/>
      <stop offset="1.0" stop-color="#aa9f2f"/>
    </radialGradient>
    <radialGradient cx="0" cy="0" gradientTransform="matrix(0.0084, 0.0, 0.0, 0.0084, -8.6, -47.5)" gradientUnits="userSpaceOnUse" id="gradient34" r="819.2" spreadMethod="pad">
      <stop offset="0.0" stop-color="#222009"/>
      <stop offset="1.0" stop-color="#222009"/>
    </radialGradient>
    <radialGradient cx="0" cy="0" gradientTransform="matrix(0.0038, 0.0, 0.0, 0.0038, -4.65, -43.75)" gradientUnits="userSpaceOnUse" id="gradient35" r="819.2" spreadMethod="pad">
      <stop offset="0.0" stop-color="#ffc573"/>
      <stop offset="1.0" stop-color="#b37e49"/>
    </radialGradient>
    <radialGradient cx="0" cy="0" gradientTransform="matrix(7.0E-4, 0.0, 0.0, 7.0E-4, -8.1, -37.5)" gradientUnits="userSpaceOnUse" id="gradient36" r="819.2" spreadMethod="pad">
      <stop offset="0.0" stop-color="#294056"/>
      <stop offset="1.0" stop-color="#24394c"/>
    </radialGradient>
    <radialGradient cx="0" cy="0" gradientTransform="matrix(2.0E-4, 0.0, 0.0, 2.0E-4, -8.1, -37.45)" gradientUnits="userSpaceOnUse" id="gradient37" r="819.2" spreadMethod="pad">
      <stop offset="0.0" stop-color="#3f6385"/>
      <stop offset="1.0" stop-color="#3f6385"/>
    </radialGradient>
    <radialGradient cx="0" cy="0" gradientTransform="matrix(0.0057, 0.0, 0.0, 0.0057, -6.0, -38.4)" gradientUnits="userSpaceOnUse" id="gradient38" r="819.2" spreadMethod="pad">
      <stop offset="0.0" stop-color="#6c6363"/>
      <stop offset="1.0" stop-color="#504949"/>
    </radialGradient>
    <radialGradient cx="0" cy="0" gradientTransform="matrix(1.0E-4, 0.0, 0.0, 1.0E-4, -5.75, -40.2)" gradientUnits="userSpaceOnUse" id="gradient39" r="819.2" spreadMethod="pad">
      <stop offset="0.0" stop-color="#273c51"/>
      <stop offset="1.0" stop-color="#273c51"/>
    </radialGradient>
    <radialGradient cx="0" cy="0" gradientTransform="matrix(0.0039, 0.0, 0.0, 0.0039, -7.4, -37.45)" gradientUnits="userSpaceOnUse" id="gradient40" r="819.2" spreadMethod="pad">
      <stop offset="0.0" stop-color="#406486"/>
      <stop offset="1.0" stop-color="#2b4359"/>
    </radialGradient>
    <radialGradient cx="0" cy="0" gradientTransform="matrix(0.0061, 0.0, 0.0, 0.0061, -5.1, -36.25)" gradientUnits="userSpaceOnUse" id="gradient41" r="819.2" spreadMethod="pad">
      <stop offset="0.0" stop-color="#908383"/>
      <stop offset="1.0" stop-color="#534c4c"/>
    </radialGradient>
    <radialGradient cx="0" cy="0" gradientTransform="matrix(0.0042, 0.0, 0.0, 0.0042, -0.95, -40.9)" gradientUnits="userSpaceOnUse" id="gradient42" r="819.2" spreadMethod="pad">
      <stop offset="0.0" stop-color="#786e6e"/>
      <stop offset="1.0" stop-color="#5b5353"/>
    </radialGradient>
    <radialGradient cx="0" cy="0" gradientTransform="matrix(0.0044, 0.0, 0.0, 0.0044, -3.25, -40.0)" gradientUnits="userSpaceOnUse" id="gradient43" r="819.2" spreadMethod="pad">
      <stop offset="0.0" stop-color="#605858"/>
      <stop offset="1.0" stop-color="#484141"/>
    </radialGradient>
    <radialGradient cx="0" cy="0" gradientTransform="matrix(0.012, 0.0, 0.0, 0.012, -0.1, -39.25)" gradientUnits="userSpaceOnUse" id="gradient44" r="819.2" spreadMethod="pad">
      <stop offset="0.0" stop-color="#867a7a"/>
      <stop offset="1.0" stop-color="#564e4e"/>
    </radialGradient>
    <radialGradient cx="0" cy="0" gradientTransform="matrix(0.0023, 0.0, 0.0, 0.0023, -6.85, -33.05)" gradientUnits="userSpaceOnUse" id="gradient45" r="819.2" spreadMethod="pad">
      <stop offset="0.0" stop-color="#dedede"/>
      <stop offset="1.0" stop-color="#b9b9b9"/>
    </radialGradient>
    <radialGradient cx="0" cy="0" gradientTransform="matrix(0.0212, 0.0, 0.0, 0.0212, -5.2, -35.1)" gradientUnits="userSpaceOnUse" id="gradient46" r="819.2" spreadMethod="pad">
      <stop offset="0.0" stop-color="#5d4126"/>
      <stop offset="1.0" stop-color="#261b10"/>
    </radialGradient>
    <radialGradient cx="0" cy="0" gradientTransform="matrix(0.0184, 0.0, 0.0, 0.0184, -6.45, -26.9)" gradientUnits="userSpaceOnUse" id="gradient47" r="819.2" spreadMethod="pad">
      <stop offset="0.0" stop-color="#a0a0a0"/>
      <stop offset="1.0" stop-color="#2b2b2b"/>
    </radialGradient>
    <radialGradient cx="0" cy="0" gradientTransform="matrix(0.003, 0.0, 0.0, 0.003, -6.7, -27.6)" gradientUnits="userSpaceOnUse" id="gradient48" r="819.2" spreadMethod="pad">
      <stop offset="0.0" stop-color="#080c10"/>
      <stop offset="1.0" stop-color="#080c10"/>
    </radialGradient>
    <radialGradient cx="0" cy="0" gradientTransform="matrix(0.0192, 0.0, 0.0, 0.0192, -2.6, -21.95)" gradientUnits="userSpaceOnUse" id="gradient49" r="819.2" spreadMethod="pad">
      <stop offset="0.0" stop-color="#998b8b"/>
      <stop offset="1.0" stop-color="#484242"/>
    </radialGradient>
    <radialGradient cx="0" cy="0" gradientTransform="matrix(0.0095, 0.0, 0.0, 0.0095, -9.55, 2.15)" gradientUnits="userSpaceOnUse" id="gradient50" r="819.2" spreadMethod="pad">
      <stop offset="0.0" stop-color="#ca8e53"/>
      <stop offset="1.0" stop-color="#825b35"/>
    </radialGradient>
    <radialGradient cx="0" cy="0" gradientTransform="matrix(0.0097, 0.0, 0.0, 0.0097, -8.35, 1.05)" gradientUnits="userSpaceOnUse" id="gradient51" r="819.2" spreadMethod="pad">
      <stop offset="0.0" stop-color="#ffeb89"/>
      <stop offset="1.0" stop-color="#e5a25e"/>
    </radialGradient>
    <radialGradient cx="0" cy="0" gradientTransform="matrix(0.001, 0.0, 0.0, 0.001, -1.55, -11.35)" gradientUnits="userSpaceOnUse" id="gradient52" r="819.2" spreadMethod="pad">
      <stop offset="0.0" stop-color="#e3a05d"/>
      <stop offset="1.0" stop-color="#bc854d"/>
    </radialGradient>
    <radialGradient cx="0" cy="0" gradientTransform="matrix(0.0089, 0.0, 0.0, 0.0089, -5.9, -9.35)" gradientUnits="userSpaceOnUse" id="gradient53" r="819.2" spreadMethod="pad">
      <stop offset="0.0" stop-color="#fff08c"/>
      <stop offset="1.0" stop-color="#896038"/>
    </radialGradient>
    <radialGradient cx="0" cy="0" gradientTransform="matrix(0.0192, 0.0, 0.0, 0.0192, -6.85, -7.85)" gradientUnits="userSpaceOnUse" id="gradient54" r="819.2" spreadMethod="pad">
      <stop offset="0.0" stop-color="#131111"/>
      <stop offset="1.0" stop-color="#121010"/>
    </radialGradient>
    <radialGradient cx="0" cy="0" gradientTransform="matrix(0.0022, 0.0, 0.0, 0.0022, -7.85, -9.85)" gradientUnits="userSpaceOnUse" id="gradient55" r="819.2" spreadMethod="pad">
      <stop offset="0.0" stop-color="#a77544"/>
      <stop offset="1.0" stop-color="#a17142"/>
    </radialGradient>
    <radialGradient cx="0" cy="0" gradientTransform="matrix(0.0023, 0.0, 0.0, 0.0023, -8.2, -11.05)" gradientUnits="userSpaceOnUse" id="gradient56" r="819.2" spreadMethod="pad">
      <stop offset="0.0" stop-color="#af7b48"/>
      <stop offset="1.0" stop-color="#775331"/>
    </radialGradient>
    <radialGradient cx="0" cy="0" gradientTransform="matrix(0.004, 0.0, 0.0, 0.004, -8.55, -11.85)" gradientUnits="userSpaceOnUse" id="gradient57" r="819.2" spreadMethod="pad">
      <stop offset="0.0" stop-color="#a57544"/>
      <stop offset="1.0" stop-color="#563d24"/>
    </radialGradient>
    <radialGradient cx="0" cy="0" gradientTransform="matrix(0.0029, 0.0, 0.0, 0.0029, -8.1, -8.1)" gradientUnits="userSpaceOnUse" id="gradient58" r="819.2" spreadMethod="pad">
      <stop offset="0.0" stop-color="#a17142"/>
      <stop offset="1.0" stop-color="#8b6239"/>
    </radialGradient>
    <radialGradient cx="0" cy="0" gradientTransform="matrix(0.0063, 0.0, 0.0, 0.0063, -9.65, -5.65)" gradientUnits="userSpaceOnUse" id="gradient59" r="819.2" spreadMethod="pad">
      <stop offset="0.0" stop-color="#261b10"/>
      <stop offset="1.0" stop-color="#261b10"/>
    </radialGradient>
    <radialGradient cx="0" cy="0" gradientTransform="matrix(0.0069, 0.0, 0.0, 0.0069, 12.8, 7.2)" gradientUnits="userSpaceOnUse" id="gradient60" r="819.2" spreadMethod="pad">
      <stop offset="0.0" stop-color="#fff68f"/>
      <stop offset="1.0" stop-color="#c68b51"/>
    </radialGradient>
  </defs>
</svg>
