<?xml version="1.0" encoding="UTF-8" standalone="no"?>
<svg xmlns:ffdec="https://www.free-decompiler.com/flash" xmlns:xlink="http://www.w3.org/1999/xlink" ffdec:objectType="shape" height="63.9px" width="22.25px" xmlns="http://www.w3.org/2000/svg">
  <g transform="matrix(1.0, 0.0, 0.0, 1.0, 12.2, 56.85)">
    <path d="M-2.05 -56.35 L-3.45 -56.3 Q-4.35 -55.9 -5.2 -55.55 -4.2 -57.65 -2.05 -56.35" fill="url(#gradient0)" fill-rule="evenodd" stroke="none"/>
    <path d="M-5.2 -55.55 Q-4.35 -55.9 -3.45 -56.3 L-2.05 -56.35 Q1.9 -56.05 4.05 -52.25 L4.25 -51.75 3.75 -52.1 3.5 -52.1 3.7 -51.15 Q3.35 -49.4 2.9 -48.85 0.2 -49.7 -0.3 -51.0 L-0.6 -51.0 -0.65 -50.7 -0.45 -50.6 -0.45 -49.35 -1.4 -49.6 -1.5 -49.65 -1.85 -48.85 Q-2.2 -48.7 -2.7 -49.7 L-2.9 -49.7 -2.7 -49.1 Q-3.1 -48.4 -3.5 -48.45 L-3.2 -47.75 -3.6 -47.65 -3.75 -47.4 -4.85 -47.7 -4.45 -47.05 -4.55 -46.8 -4.2 -46.5 -4.6 -46.7 Q-6.5 -49.3 -6.95 -52.15 L-6.5 -54.15 -6.55 -54.5 Q-5.9 -55.0 -5.3 -55.45 L-5.2 -55.55" fill="url(#gradient1)" fill-rule="evenodd" stroke="none"/>
    <path d="M2.9 -48.85 Q3.35 -49.4 3.7 -51.15 L3.5 -52.1 3.75 -52.1 4.25 -51.75 4.05 -52.25 Q4.1 -52.75 5.7 -49.2 L5.6 -46.45 5.4 -46.0 Q5.4 -46.65 4.4 -46.35 L3.95 -45.45 3.45 -47.65 2.9 -48.85" fill="url(#gradient2)" fill-rule="evenodd" stroke="none"/>
    <path d="M3.95 -45.45 L4.4 -46.35 Q5.4 -46.65 5.4 -46.0 L5.6 -46.45 5.7 -46.2 5.9 -45.5 6.05 -44.85 6.05 -42.15 6.05 -41.3 5.9 -40.9 5.05 -40.5 4.9 -42.35 3.95 -45.45" fill="url(#gradient3)" fill-rule="evenodd" stroke="none"/>
    <path d="M-4.2 -46.5 L-4.55 -46.8 -4.45 -47.05 -4.85 -47.7 -3.75 -47.4 -3.6 -47.65 -3.2 -47.75 -3.5 -48.45 Q-3.1 -48.4 -2.7 -49.1 L-2.9 -49.7 -2.7 -49.7 Q-2.2 -48.7 -1.85 -48.85 L-1.5 -49.65 -1.4 -49.6 -0.45 -49.35 -0.45 -50.6 -0.65 -50.7 -0.6 -51.0 -0.3 -51.0 Q0.2 -49.7 2.9 -48.85 L3.45 -47.65 3.95 -45.45 3.45 -45.75 Q2.65 -44.85 2.7 -44.1 L1.7 -43.9 1.3 -43.65 -0.5 -44.0 -0.95 -43.8 -0.95 -43.3 -2.35 -44.55 -4.1 -46.4 -4.2 -46.5" fill="url(#gradient4)" fill-rule="evenodd" stroke="none"/>
    <path d="M-6.55 -54.5 L-6.5 -54.15 -6.95 -52.15 -7.6 -51.8 -7.65 -50.85 Q-8.95 -50.6 -9.0 -47.1 -10.35 -50.0 -9.65 -52.35 L-8.55 -54.15 -6.55 -54.5" fill="url(#gradient5)" fill-rule="evenodd" stroke="none"/>
    <path d="M-6.95 -52.15 Q-6.5 -49.3 -4.6 -46.7 L-4.3 -45.65 -3.2 -44.1 -3.25 -44.0 -3.5 -44.2 -4.9 -45.25 -5.4 -45.7 -5.6 -45.95 -5.65 -46.0 Q-6.65 -47.05 -7.45 -49.15 L-7.65 -50.85 -7.6 -51.8 -6.95 -52.15" fill="url(#gradient6)" fill-rule="evenodd" stroke="none"/>
    <path d="M-4.6 -46.7 L-4.2 -46.5 -4.1 -46.4 -2.35 -44.55 -2.4 -44.15 -2.7 -44.0 -3.2 -44.1 -4.3 -45.65 -4.6 -46.7 M-3.5 -44.2 L-4.2 -44.4 -4.9 -45.25 -3.5 -44.2" fill="url(#gradient7)" fill-rule="evenodd" stroke="none"/>
    <path d="M-2.35 -43.45 L-2.4 -44.15 -2.35 -44.55 -0.95 -43.3 -0.6 -42.95 -0.3 -42.5 0.4 -41.4 -0.3 -41.3 -2.15 -41.4 -2.25 -42.0 -2.25 -42.15 -2.25 -42.25 -2.25 -42.4 -2.3 -42.7 -2.3 -42.75 -2.3 -42.8 -2.3 -43.0 -2.35 -43.25 -2.35 -43.45" fill="url(#gradient8)" fill-rule="evenodd" stroke="none"/>
    <path d="M7.65 -42.25 L7.65 -43.9 Q7.8 -45.6 5.9 -45.5 L5.7 -46.2 Q11.3 -48.6 9.7 -34.5 L9.45 -33.65 Q8.9 -33.0 7.55 -33.0 L7.4 -33.5 6.95 -33.95 7.3 -34.75 7.55 -35.65 7.6 -36.0 7.6 -36.2 7.65 -36.35 7.75 -37.15 7.25 -38.25 7.25 -38.7 7.3 -38.95 7.65 -40.25 7.7 -40.4 7.8 -41.5 7.65 -42.25" fill="url(#gradient9)" fill-rule="evenodd" stroke="none"/>
    <path d="M7.65 -42.25 L7.25 -43.3 6.05 -44.85 5.9 -45.5 Q7.8 -45.6 7.65 -43.9 L7.65 -42.25" fill="url(#gradient10)" fill-rule="evenodd" stroke="none"/>
    <path d="M6.05 -44.85 L7.25 -43.3 7.65 -42.25 7.8 -41.5 7.7 -40.4 7.65 -40.25 7.3 -38.95 Q7.4 -39.6 6.95 -41.0 L6.05 -42.15 6.05 -44.85 M-8.65 -32.95 Q-12.95 -38.25 -6.4 -40.55 L-6.3 -40.55 -6.15 -40.6 -5.05 -40.9 -2.15 -41.4 -0.3 -41.3 0.4 -41.4 0.85 -40.85 0.85 -40.45 1.35 -38.9 2.45 -37.25 2.65 -36.25 2.65 -35.5 2.65 -34.9 3.0 -33.8 2.85 -32.8 2.9 -32.0 2.85 -31.75 -0.2 -29.4 Q-3.25 -28.65 -3.65 -29.45 L-2.85 -31.1 Q-2.15 -31.15 -1.8 -31.65 L-1.25 -32.8 Q-0.3 -38.15 -4.45 -38.9 L-6.25 -39.0 -7.55 -37.9 -7.7 -37.65 -7.65 -37.35 -7.65 -37.3 -8.35 -36.35 Q-8.95 -33.6 -8.65 -32.95 M-4.05 -26.0 L-3.9 -27.35 Q-3.1 -26.55 2.35 -28.25 L3.0 -29.2 3.0 -29.0 3.0 -28.95 3.2 -27.5 3.15 -26.7 3.3 -25.0 3.35 -24.1 3.65 -23.35 3.5 -23.2 3.0 -22.95 3.0 -23.05 2.85 -23.35 Q1.45 -24.95 -4.05 -26.0 M3.0 -25.55 L3.05 -25.15 3.0 -26.15 2.9 -26.2 2.9 -25.6 3.0 -25.55 M3.0 -22.8 L3.0 -22.9 3.0 -22.8" fill="url(#gradient11)" fill-rule="evenodd" stroke="none"/>
    <path d="M5.05 -40.5 L5.05 -40.45 4.75 -40.1 4.55 -40.2 1.95 -40.05 0.85 -40.85 0.4 -41.4 -0.3 -42.5 -0.5 -42.95 -0.6 -43.1 -0.6 -42.95 -0.95 -43.3 -0.95 -43.8 -0.5 -44.0 1.3 -43.65 1.7 -43.9 2.7 -44.1 Q2.65 -44.85 3.45 -45.75 L3.95 -45.45 4.9 -42.35 5.05 -40.5" fill="url(#gradient12)" fill-rule="evenodd" stroke="none"/>
    <path d="M6.05 -42.15 L6.95 -41.0 Q7.4 -39.6 7.3 -38.95 L7.25 -38.7 7.25 -38.25 6.4 -36.1 5.9 -36.85 5.85 -38.1 5.05 -40.45 5.05 -40.5 5.9 -40.9 6.05 -41.3 6.05 -42.15 M2.45 -37.25 L3.2 -36.45 2.65 -36.25 2.45 -37.25" fill="url(#gradient13)" fill-rule="evenodd" stroke="none"/>
    <path d="M-4.55 -41.55 L-4.1 -42.4 Q-3.15 -43.3 -2.35 -43.45 L-2.35 -43.25 -2.35 -43.1 -2.9 -42.75 -3.05 -42.75 -3.6 -42.45 -4.55 -41.55" fill="url(#gradient14)" fill-rule="evenodd" stroke="none"/>
    <path d="M-4.75 -41.1 L-4.55 -41.55 -3.6 -42.45 -3.05 -42.75 -2.9 -42.7 -3.5 -42.2 -3.95 -41.5 -4.75 -41.1" fill="url(#gradient15)" fill-rule="evenodd" stroke="none"/>
    <path d="M-2.9 -42.75 L-2.9 -42.7 -3.05 -42.75 -2.9 -42.75" fill="url(#gradient16)" fill-rule="evenodd" stroke="none"/>
    <path d="M-2.3 -43.0 L-2.3 -42.8 -2.35 -42.75 -3.25 -41.85 -3.95 -41.5 -3.5 -42.2 -2.9 -42.7 -2.9 -42.75 -2.35 -43.1 -2.3 -43.0" fill="url(#gradient17)" fill-rule="evenodd" stroke="none"/>
    <path d="M-2.35 -43.25 L-2.3 -43.0 -2.35 -43.1 -2.35 -43.25 M-2.3 -42.8 L-2.3 -42.75 -2.35 -42.75 -2.3 -42.8" fill="url(#gradient18)" fill-rule="evenodd" stroke="none"/>
    <path d="M-0.6 -42.95 L-0.6 -43.1 -0.5 -42.95 -0.3 -42.5 -0.6 -42.95" fill="url(#gradient19)" fill-rule="evenodd" stroke="none"/>
    <path d="M-5.05 -40.9 L-4.85 -41.05 -4.75 -41.1 -3.95 -41.5 -3.25 -41.85 -2.8 -41.9 -2.95 -42.0 -2.85 -42.05 -2.25 -42.25 -2.25 -42.15 -2.8 -42.0 -2.25 -42.0 -2.15 -41.4 -5.05 -40.9 M-7.4 -37.65 L-7.55 -37.9 -6.25 -39.0 -4.45 -38.9 -4.7 -38.6 -5.05 -38.5 -5.4 -37.9 -6.0 -38.05 -7.4 -37.65" fill="url(#gradient20)" fill-rule="evenodd" stroke="none"/>
    <path d="M-2.3 -42.75 L-2.3 -42.7 -2.25 -42.4 -2.25 -42.25 -2.85 -42.05 -2.95 -42.0 -2.8 -41.9 -3.25 -41.85 -2.35 -42.75 -2.3 -42.75 M-2.25 -42.15 L-2.25 -42.0 -2.8 -42.0 -2.25 -42.15" fill="url(#gradient21)" fill-rule="evenodd" stroke="none"/>
    <path d="M-6.35 -40.6 L-6.15 -40.6 -6.3 -40.55 -6.35 -40.6" fill="url(#gradient22)" fill-rule="evenodd" stroke="none"/>
    <path d="M-6.4 -40.55 L-6.35 -40.6 -6.3 -40.55 -6.4 -40.55" fill="url(#gradient23)" fill-rule="evenodd" stroke="none"/>
    <path d="M-8.5 -24.5 Q-8.55 -29.4 -8.1 -31.0 L-8.65 -32.95 Q-8.95 -33.6 -8.35 -36.35 L-7.65 -37.3 -7.6 -37.35 -7.4 -37.65 -6.0 -38.05 -5.4 -37.9 -5.55 -37.55 Q-2.65 -35.8 -3.15 -35.85 L-2.7 -34.65 Q-2.35 -33.0 -2.6 -32.8 L-2.85 -31.1 -3.65 -29.45 -3.8 -29.3 -3.9 -27.35 -4.05 -26.0 -4.45 -24.25 -4.55 -24.0 Q-7.7 -20.8 -8.5 -24.5" fill="url(#gradient24)" fill-rule="evenodd" stroke="none"/>
    <path d="M-7.65 -37.35 L-7.6 -37.35 -7.65 -37.3 -7.65 -37.35" fill="url(#gradient25)" fill-rule="evenodd" stroke="none"/>
    <path d="M-7.65 -37.35 L-7.7 -37.65 -7.55 -37.9 -7.4 -37.65 -7.6 -37.35 -7.65 -37.35" fill="url(#gradient26)" fill-rule="evenodd" stroke="none"/>
    <path d="M-4.45 -38.9 Q-0.3 -38.15 -1.25 -32.8 L-1.8 -31.65 Q-2.15 -31.15 -2.85 -31.1 L-2.6 -32.8 Q-2.35 -33.0 -2.7 -34.65 L-3.15 -35.85 Q-2.65 -35.8 -5.55 -37.55 L-5.4 -37.9 -5.05 -38.5 -4.7 -38.6 -4.45 -38.9" fill="url(#gradient27)" fill-rule="evenodd" stroke="none"/>
    <path d="M5.05 -40.45 L5.85 -38.1 5.9 -36.85 Q3.9 -35.35 3.2 -36.45 L2.45 -37.25 1.35 -38.9 0.85 -40.45 0.85 -40.85 1.95 -40.05 4.55 -40.2 4.75 -40.1 5.05 -40.45" fill="url(#gradient28)" fill-rule="evenodd" stroke="none"/>
    <path d="M6.4 -36.1 L7.25 -38.25 7.75 -37.15 7.65 -36.35 7.6 -36.2 7.6 -36.0 7.55 -35.65 7.3 -34.75 6.95 -33.95 6.45 -33.45 6.55 -34.65 6.4 -36.1 M3.0 -33.8 L2.65 -34.9 2.65 -35.5 3.05 -34.25 3.6 -33.35 3.35 -33.3 3.0 -33.8" fill="url(#gradient29)" fill-rule="evenodd" stroke="none"/>
    <path d="M5.9 -36.85 L6.4 -36.1 6.55 -34.65 6.45 -33.45 6.4 -33.35 6.3 -33.05 5.95 -32.8 4.5 -32.5 4.05 -32.8 3.6 -33.35 3.05 -34.25 2.65 -35.5 2.65 -36.25 3.2 -36.45 Q3.9 -35.35 5.9 -36.85" fill="url(#gradient30)" fill-rule="evenodd" stroke="none"/>
    <path d="M2.9 -32.0 L3.75 -29.85 3.35 -29.85 3.0 -30.1 2.85 -31.75 2.9 -32.0 M5.95 -29.9 Q6.45 -30.55 6.4 -31.3 L6.45 -32.8 6.4 -33.35 6.45 -33.45 6.95 -33.95 7.4 -33.5 7.55 -33.0 7.6 -32.8 7.6 -32.05 7.0 -30.65 6.55 -30.05 5.95 -29.9" fill="url(#gradient31)" fill-rule="evenodd" stroke="none"/>
    <path d="M3.0 -33.8 L3.35 -33.3 3.6 -33.35 4.05 -32.8 4.5 -32.5 5.95 -32.8 6.3 -33.05 6.4 -33.35 6.45 -32.8 6.4 -31.3 Q6.45 -30.55 5.95 -29.9 L5.9 -29.85 Q5.05 -28.95 3.75 -29.85 L2.9 -32.0 2.85 -32.8 3.0 -33.8" fill="url(#gradient32)" fill-rule="evenodd" stroke="none"/>
    <path d="M9.7 -34.5 Q10.8 -32.85 8.3 -28.6 L8.0 -27.95 7.45 -29.2 7.3 -29.35 7.3 -29.85 7.0 -30.65 7.6 -32.05 7.6 -32.8 7.55 -33.0 Q8.9 -33.0 9.45 -33.65 L9.7 -34.5" fill="url(#gradient33)" fill-rule="evenodd" stroke="none"/>
    <path d="M8.3 -28.6 Q9.0 -27.3 7.85 -25.9 L7.9 -26.55 8.1 -26.75 8.0 -27.95 8.3 -28.6" fill="url(#gradient34)" fill-rule="evenodd" stroke="none"/>
    <path d="M7.85 -25.9 L7.85 -25.55 7.15 -24.15 6.55 -23.55 6.4 -23.55 Q7.95 -26.6 6.2 -27.2 L6.95 -28.3 7.3 -29.35 7.45 -29.2 8.0 -27.95 8.1 -26.75 7.9 -26.55 7.85 -25.9 M3.0 -22.95 L3.5 -23.2 3.35 -22.9 3.0 -22.9 3.0 -22.95" fill="url(#gradient35)" fill-rule="evenodd" stroke="none"/>
    <path d="M5.9 -29.85 L5.95 -29.9 6.55 -30.05 7.0 -30.65 7.3 -29.85 7.3 -29.35 6.95 -28.3 6.2 -27.2 6.1 -27.15 6.25 -29.15 6.05 -29.8 5.9 -29.85 M3.2 -27.5 L3.0 -28.95 3.05 -28.95 3.35 -27.95 3.9 -26.75 3.7 -27.0 3.2 -27.5" fill="url(#gradient36)" fill-rule="evenodd" stroke="none"/>
    <path d="M-3.65 -29.45 Q-3.25 -28.65 -0.2 -29.4 L2.85 -31.75 3.0 -30.1 3.0 -29.2 2.35 -28.25 Q-3.1 -26.55 -3.9 -27.35 L-3.8 -29.3 -3.65 -29.45" fill="url(#gradient37)" fill-rule="evenodd" stroke="none"/>
    <path d="M3.75 -29.85 Q5.05 -28.95 5.9 -29.85 L6.05 -29.8 6.25 -29.15 6.1 -27.15 5.9 -26.85 5.5 -26.4 5.05 -26.25 4.4 -26.35 4.15 -26.5 3.9 -26.75 3.35 -27.95 3.05 -28.95 3.0 -29.0 3.0 -29.2 3.0 -30.1 3.35 -29.85 3.75 -29.85" fill="url(#gradient38)" fill-rule="evenodd" stroke="none"/>
    <path d="M3.65 -23.35 L3.35 -24.1 3.3 -25.0 3.9 -23.55 4.5 -22.95 3.85 -23.1 3.65 -23.35 M3.15 -26.7 L3.2 -27.5 3.7 -27.0 3.15 -26.7 M6.2 -27.2 Q7.95 -26.6 6.4 -23.55 L6.1 -23.25 5.55 -23.05 Q5.9 -23.2 6.1 -24.25 L5.9 -26.85 6.1 -27.15 6.2 -27.2 M4.4 -26.35 L4.3 -26.2 4.15 -26.5 4.4 -26.35" fill="url(#gradient39)" fill-rule="evenodd" stroke="none"/>
    <path d="M3.3 -25.0 L3.15 -26.7 3.7 -27.0 3.9 -26.75 4.15 -26.5 4.3 -26.2 4.4 -26.35 5.05 -26.25 5.5 -26.4 5.9 -26.85 6.1 -24.25 Q5.9 -23.2 5.55 -23.05 L5.5 -23.05 5.15 -22.9 4.5 -22.95 3.9 -23.55 3.3 -25.0" fill="url(#gradient40)" fill-rule="evenodd" stroke="none"/>
    <path d="M3.0 -28.95 L3.0 -29.0 3.05 -28.95 3.0 -28.95" fill="url(#gradient41)" fill-rule="evenodd" stroke="none"/>
    <path d="M7.85 -25.55 L7.95 -24.35 7.6 -22.4 6.55 -23.55 7.15 -24.15 7.85 -25.55 M5.65 -16.85 L5.2 -15.75 5.8 -14.1 Q1.75 -11.8 2.15 -14.25 L2.05 -14.6 Q1.45 -15.0 0.8 -16.25 L1.05 -18.6 0.95 -19.15 2.15 -20.2 2.85 -21.7 2.85 -22.7 3.0 -22.8 3.0 -22.9 3.35 -22.9 3.35 -21.7 4.6 -17.75 Q5.2 -16.9 5.65 -16.85" fill="url(#gradient42)" fill-rule="evenodd" stroke="none"/>
    <path d="M7.6 -22.4 Q9.55 -17.3 5.65 -16.85 5.2 -16.9 4.6 -17.75 L3.35 -21.7 3.35 -22.9 3.5 -23.2 3.65 -23.35 3.85 -23.1 4.5 -22.95 5.15 -22.9 5.5 -23.05 5.55 -23.05 6.1 -23.25 6.4 -23.55 6.55 -23.55 7.6 -22.4" fill="url(#gradient43)" fill-rule="evenodd" stroke="none"/>
    <path d="M3.0 -25.55 L2.9 -25.6 2.9 -26.2 3.0 -26.15 3.05 -25.15 3.0 -25.55" fill="url(#gradient44)" fill-rule="evenodd" stroke="none"/>
    <path d="M-4.05 -26.0 Q1.45 -24.95 2.85 -23.35 L2.85 -22.7 2.85 -21.7 2.15 -20.2 0.95 -19.15 Q-3.7 -19.55 -3.35 -21.7 L-4.05 -22.75 -4.45 -24.25 -4.05 -26.0" fill="url(#gradient45)" fill-rule="evenodd" stroke="none"/>
    <path d="M-5.2 -11.4 L-5.4 -11.8 -5.3 -11.9 -5.7 -12.3 -6.15 -12.8 -7.05 -14.55 -6.5 -15.85 Q-6.45 -16.5 -6.95 -17.3 -5.55 -18.55 -4.55 -21.7 L-4.3 -23.05 -4.3 -23.55 -4.55 -24.0 -4.45 -24.25 -4.05 -22.75 -3.35 -21.7 Q-3.7 -19.55 0.95 -19.15 L1.05 -18.6 0.8 -16.25 0.8 -15.75 0.75 -15.6 -0.2 -11.9 -0.4 -9.95 -0.5 -9.35 -2.45 -7.3 -2.45 -8.6 Q-4.05 -8.7 -3.85 -9.15 L-3.9 -9.3 -4.6 -10.6 -5.05 -11.2 -5.2 -11.4" fill="url(#gradient46)" fill-rule="evenodd" stroke="none"/>
    <path d="M-9.95 -19.3 L-9.6 -22.3 -8.5 -24.5 Q-7.7 -20.8 -4.55 -24.0 L-4.3 -23.55 -4.3 -23.05 -4.55 -21.7 Q-5.55 -18.55 -6.95 -17.3 -7.7 -15.35 -8.3 -15.6 L-9.45 -15.5 -10.3 -17.2 -10.05 -18.45 -9.95 -19.3" fill="url(#gradient47)" fill-rule="evenodd" stroke="none"/>
    <path d="M-10.4 -18.85 L-9.95 -19.3 -10.05 -18.45 -10.4 -18.85" fill="url(#gradient48)" fill-rule="evenodd" stroke="none"/>
    <path d="M-7.05 -14.55 Q-9.2 -12.25 -11.65 -14.5 -13.15 -17.35 -10.5 -18.8 L-10.45 -18.85 -10.4 -18.85 -10.05 -18.45 -10.3 -17.2 -9.45 -15.5 -8.3 -15.6 Q-7.7 -15.35 -6.95 -17.3 -6.45 -16.5 -6.5 -15.85 L-7.05 -14.55" fill="url(#gradient49)" fill-rule="evenodd" stroke="none"/>
    <path d="M2.85 -23.35 L3.0 -23.05 3.0 -22.95 3.0 -22.9 3.0 -22.8 2.85 -22.7 2.85 -23.35" fill="url(#gradient50)" fill-rule="evenodd" stroke="none"/>
    <path d="M0.8 -16.25 Q1.45 -15.0 2.05 -14.6 L2.15 -14.25 2.05 -14.3 1.75 -14.5 0.95 -15.0 0.8 -15.6 0.8 -15.75 0.8 -16.25" fill="url(#gradient51)" fill-rule="evenodd" stroke="none"/>
    <path d="M0.8 -15.75 L0.8 -15.6 0.75 -15.6 0.8 -15.75" fill="url(#gradient52)" fill-rule="evenodd" stroke="none"/>
    <path d="M-4.55 -2.9 Q-5.6 -5.2 -4.3 -8.9 L-4.1 -8.9 -3.85 -9.15 Q-4.05 -8.7 -2.45 -8.6 L-2.45 -7.3 -0.5 -9.35 -0.4 -9.95 Q1.3 -8.85 0.85 -4.9 L0.8 -4.25 0.25 -2.4 Q-2.0 0.4 -4.4 -2.55 L-4.45 -2.7 -4.55 -2.8 -4.55 -2.9" fill="url(#gradient53)" fill-rule="evenodd" stroke="none"/>
    <path d="M-3.85 -9.15 L-4.1 -8.9 -4.1 -9.35 -3.9 -9.3 -3.85 -9.15" fill="url(#gradient54)" fill-rule="evenodd" stroke="none"/>
    <path d="M-4.45 -9.7 L-4.75 -10.05 -5.15 -11.25 -5.05 -11.2 -4.6 -10.6 -3.9 -9.3 -4.1 -9.35 -4.45 -9.7" fill="url(#gradient55)" fill-rule="evenodd" stroke="none"/>
    <path d="M-5.15 -11.25 L-5.15 -11.35 -5.2 -11.4 -5.05 -11.2 -5.15 -11.25 M-5.4 -11.8 L-5.7 -12.3 -5.3 -11.9 -5.4 -11.8" fill="url(#gradient56)" fill-rule="evenodd" stroke="none"/>
    <path d="M5.8 -14.1 Q7.65 -11.7 6.4 -7.85 4.4 -4.8 1.75 -7.6 0.3 -11.45 1.85 -14.2 L2.05 -14.3 2.15 -14.25 Q1.75 -11.8 5.8 -14.1" fill="url(#gradient57)" fill-rule="evenodd" stroke="none"/>
    <path d="M2.05 -14.3 L1.85 -14.2 1.75 -14.5 2.05 -14.3" fill="url(#gradient58)" fill-rule="evenodd" stroke="none"/>
    <path d="M-4.3 -8.9 L-4.45 -9.7 -4.1 -9.35 -4.1 -8.9 -4.3 -8.9" fill="url(#gradient59)" fill-rule="evenodd" stroke="none"/>
    <path d="M-4.55 -2.8 L-4.55 -2.9 -4.55 -2.8 M-4.45 -2.7 L-4.4 -2.55 -4.55 -2.65 -4.45 -2.7" fill="url(#gradient60)" fill-rule="evenodd" stroke="none"/>
    <path d="M-4.15 -0.6 L-4.2 -1.15 -4.1 -0.85 -4.15 -0.6 M-4.55 -2.65 L-4.55 -2.8 -4.45 -2.7 -4.55 -2.65" fill="url(#gradient61)" fill-rule="evenodd" stroke="none"/>
    <path d="M5.4 -1.05 Q6.95 1.6 4.35 2.55 L3.2 2.45 Q1.15 1.4 0.15 0.1 L0.25 -2.4 0.8 -4.25 0.85 -4.9 1.8 -4.4 Q0.7 -1.25 2.0 0.45 3.25 2.0 4.4 0.45 L4.95 -0.05 5.45 -0.9 5.4 -1.05" fill="url(#gradient62)" fill-rule="evenodd" stroke="none"/>
    <path d="M0.15 0.1 L0.5 3.55 0.5 3.8 Q0.3 4.4 -2.55 5.3 -5.2 3.3 -3.75 1.6 L-3.7 1.55 -4.05 0.45 -4.15 -0.35 -4.15 -0.6 -4.1 -0.85 -4.2 -1.15 -4.2 -1.2 -4.25 -1.35 -4.55 -2.65 -4.4 -2.55 Q-2.0 0.4 0.25 -2.4 L0.15 0.1" fill="url(#gradient63)" fill-rule="evenodd" stroke="none"/>
    <path d="M6.4 -7.85 Q5.75 -3.3 5.1 -2.3 L5.4 -1.05 5.45 -0.9 4.95 -0.05 4.4 0.45 Q3.25 2.0 2.0 0.45 0.7 -1.25 1.8 -4.4 L1.9 -4.95 1.75 -7.6 Q4.4 -4.8 6.4 -7.85" fill="url(#gradient64)" fill-rule="evenodd" stroke="none"/>
    <path d="M0.5 3.8 Q1.05 9.8 -5.35 4.7 L-8.5 1.9 -8.55 0.95 Q-8.05 -2.1 -4.15 -0.35 L-4.05 0.45 -3.7 1.55 -3.75 1.6 Q-5.2 3.3 -2.55 5.3 0.3 4.4 0.5 3.8" fill="url(#gradient65)" fill-rule="evenodd" stroke="none"/>
  </g>
  <defs>
    <radialGradient cx="0" cy="0" gradientTransform="matrix(0.0029, 0.0, 0.0, 0.0029, -3.25, -55.5)" gradientUnits="userSpaceOnUse" id="gradient0" r="819.2" spreadMethod="pad">
      <stop offset="0.0" stop-color="#8b8327"/>
      <stop offset="1.0" stop-color="#6e671f"/>
    </radialGradient>
    <radialGradient cx="0" cy="0" gradientTransform="matrix(0.0104, 0.0, 0.0, 0.0104, -0.2, -48.95)" gradientUnits="userSpaceOnUse" id="gradient1" r="819.2" spreadMethod="pad">
      <stop offset="0.0" stop-color="#ffef47"/>
      <stop offset="1.0" stop-color="#a0972d"/>
    </radialGradient>
    <radialGradient cx="0" cy="0" gradientTransform="matrix(0.0075, 0.0, 0.0, 0.0075, 2.4, -47.35)" gradientUnits="userSpaceOnUse" id="gradient2" r="819.2" spreadMethod="pad">
      <stop offset="0.0" stop-color="#faeb46"/>
      <stop offset="1.0" stop-color="#a3992d"/>
    </radialGradient>
    <radialGradient cx="0" cy="0" gradientTransform="matrix(0.007, 0.0, 0.0, 0.007, 3.45, -45.95)" gradientUnits="userSpaceOnUse" id="gradient3" r="819.2" spreadMethod="pad">
      <stop offset="0.0" stop-color="#fced47"/>
      <stop offset="1.0" stop-color="#baaf33"/>
    </radialGradient>
    <radialGradient cx="0" cy="0" gradientTransform="matrix(0.0071, 0.0, 0.0, 0.0071, 0.1, -48.55)" gradientUnits="userSpaceOnUse" id="gradient4" r="819.2" spreadMethod="pad">
      <stop offset="0.0" stop-color="#fff148"/>
      <stop offset="1.0" stop-color="#b6ab33"/>
    </radialGradient>
    <radialGradient cx="0" cy="0" gradientTransform="matrix(0.0074, 0.0, 0.0, 0.0074, -6.45, -52.7)" gradientUnits="userSpaceOnUse" id="gradient5" r="819.2" spreadMethod="pad">
      <stop offset="0.0" stop-color="#fff148"/>
      <stop offset="1.0" stop-color="#b0a631"/>
    </radialGradient>
    <radialGradient cx="0" cy="0" gradientTransform="matrix(0.0076, 0.0, 0.0, 0.0076, -6.05, -49.55)" gradientUnits="userSpaceOnUse" id="gradient6" r="819.2" spreadMethod="pad">
      <stop offset="0.0" stop-color="#fff749"/>
      <stop offset="1.0" stop-color="#aaa02f"/>
    </radialGradient>
    <radialGradient cx="0" cy="0" gradientTransform="matrix(0.0038, 0.0, 0.0, 0.0038, -3.6, -45.55)" gradientUnits="userSpaceOnUse" id="gradient7" r="819.2" spreadMethod="pad">
      <stop offset="0.0" stop-color="#ffc472"/>
      <stop offset="1.0" stop-color="#ae7b47"/>
    </radialGradient>
    <radialGradient cx="0" cy="0" gradientTransform="matrix(0.006, 0.0, 0.0, 0.006, 0.25, -41.25)" gradientUnits="userSpaceOnUse" id="gradient8" r="819.2" spreadMethod="pad">
      <stop offset="0.0" stop-color="#7b7070"/>
      <stop offset="1.0" stop-color="#5d5555"/>
    </radialGradient>
    <radialGradient cx="0" cy="0" gradientTransform="matrix(0.0145, 0.0, 0.0, 0.0145, 7.15, -43.8)" gradientUnits="userSpaceOnUse" id="gradient9" r="819.2" spreadMethod="pad">
      <stop offset="0.0" stop-color="#ffdd81"/>
      <stop offset="1.0" stop-color="#be874e"/>
    </radialGradient>
    <radialGradient cx="0" cy="0" gradientTransform="matrix(0.0074, 0.0, 0.0, 0.0074, 6.8, -42.6)" gradientUnits="userSpaceOnUse" id="gradient10" r="819.2" spreadMethod="pad">
      <stop offset="0.0" stop-color="#6e6565"/>
      <stop offset="1.0" stop-color="#4f4848"/>
    </radialGradient>
    <radialGradient cx="0" cy="0" gradientTransform="matrix(0.0251, 0.0, 0.0, 0.0251, -2.35, -26.35)" gradientUnits="userSpaceOnUse" id="gradient11" r="819.2" spreadMethod="pad">
      <stop offset="0.0" stop-color="#ffffff"/>
      <stop offset="1.0" stop-color="#979797"/>
    </radialGradient>
    <radialGradient cx="0" cy="0" gradientTransform="matrix(0.0066, 0.0, 0.0, 0.0066, 1.7, -44.45)" gradientUnits="userSpaceOnUse" id="gradient12" r="819.2" spreadMethod="pad">
      <stop offset="0.0" stop-color="#faeb46"/>
      <stop offset="1.0" stop-color="#bcb134"/>
    </radialGradient>
    <radialGradient cx="0" cy="0" gradientTransform="matrix(0.0071, 0.0, 0.0, 0.0071, 4.35, -41.35)" gradientUnits="userSpaceOnUse" id="gradient13" r="819.2" spreadMethod="pad">
      <stop offset="0.0" stop-color="#fff749"/>
      <stop offset="1.0" stop-color="#aaa02f"/>
    </radialGradient>
    <radialGradient cx="0" cy="0" gradientTransform="matrix(0.0042, 0.0, 0.0, 0.0042, -4.5, -41.45)" gradientUnits="userSpaceOnUse" id="gradient14" r="819.2" spreadMethod="pad">
      <stop offset="0.0" stop-color="#8f8f8f"/>
      <stop offset="1.0" stop-color="#646464"/>
    </radialGradient>
    <radialGradient cx="0" cy="0" gradientTransform="matrix(0.0029, 0.0, 0.0, 0.0029, -4.6, -41.15)" gradientUnits="userSpaceOnUse" id="gradient15" r="819.2" spreadMethod="pad">
      <stop offset="0.0" stop-color="#3e6283"/>
      <stop offset="1.0" stop-color="#2b435b"/>
    </radialGradient>
    <radialGradient cx="0" cy="0" gradientTransform="matrix(1.0E-4, 0.0, 0.0, 1.0E-4, -3.05, -42.85)" gradientUnits="userSpaceOnUse" id="gradient16" r="819.2" spreadMethod="pad">
      <stop offset="0.0" stop-color="#2a4258"/>
      <stop offset="1.0" stop-color="#2a4258"/>
    </radialGradient>
    <radialGradient cx="0" cy="0" gradientTransform="matrix(0.004, 0.0, 0.0, 0.004, -3.65, -41.1)" gradientUnits="userSpaceOnUse" id="gradient17" r="819.2" spreadMethod="pad">
      <stop offset="0.0" stop-color="#625959"/>
      <stop offset="1.0" stop-color="#474141"/>
    </radialGradient>
    <radialGradient cx="0" cy="0" gradientTransform="matrix(0.0034, 0.0, 0.0, 0.0034, -2.4, -43.95)" gradientUnits="userSpaceOnUse" id="gradient18" r="819.2" spreadMethod="pad">
      <stop offset="0.0" stop-color="#121010"/>
      <stop offset="1.0" stop-color="#121010"/>
    </radialGradient>
    <radialGradient cx="0" cy="0" gradientTransform="matrix(0.0025, 0.0, 0.0, 0.0025, 0.1, -41.9)" gradientUnits="userSpaceOnUse" id="gradient19" r="819.2" spreadMethod="pad">
      <stop offset="0.0" stop-color="#222009"/>
      <stop offset="1.0" stop-color="#222009"/>
    </radialGradient>
    <radialGradient cx="0" cy="0" gradientTransform="matrix(0.007, 0.0, 0.0, 0.007, -5.55, -39.1)" gradientUnits="userSpaceOnUse" id="gradient20" r="819.2" spreadMethod="pad">
      <stop offset="0.0" stop-color="#8e8282"/>
      <stop offset="1.0" stop-color="#443e3e"/>
    </radialGradient>
    <radialGradient cx="0" cy="0" gradientTransform="matrix(0.0025, 0.0, 0.0, 0.0025, -1.9, -42.3)" gradientUnits="userSpaceOnUse" id="gradient21" r="819.2" spreadMethod="pad">
      <stop offset="0.0" stop-color="#665d5d"/>
      <stop offset="1.0" stop-color="#453f3f"/>
    </radialGradient>
    <radialGradient cx="0" cy="0" gradientTransform="matrix(2.0E-4, 0.0, 0.0, 2.0E-4, -6.35, -40.65)" gradientUnits="userSpaceOnUse" id="gradient22" r="819.2" spreadMethod="pad">
      <stop offset="0.0" stop-color="#416588"/>
      <stop offset="1.0" stop-color="#416588"/>
    </radialGradient>
    <radialGradient cx="0" cy="0" gradientTransform="matrix(2.0E-4, 0.0, 0.0, 2.0E-4, -6.35, -40.7)" gradientUnits="userSpaceOnUse" id="gradient23" r="819.2" spreadMethod="pad">
      <stop offset="0.0" stop-color="#24394c"/>
      <stop offset="1.0" stop-color="#233649"/>
    </radialGradient>
    <radialGradient cx="0" cy="0" gradientTransform="matrix(0.0164, 0.0, 0.0, 0.0164, -5.6, -35.0)" gradientUnits="userSpaceOnUse" id="gradient24" r="819.2" spreadMethod="pad">
      <stop offset="0.0" stop-color="#ffd179"/>
      <stop offset="1.0" stop-color="#c58b51"/>
    </radialGradient>
    <radialGradient cx="0" cy="0" gradientTransform="matrix(0.0177, 0.0, 0.0, 0.0177, -6.9, -37.5)" gradientUnits="userSpaceOnUse" id="gradient25" r="819.2" spreadMethod="pad">
      <stop offset="0.0" stop-color="#5c4126"/>
      <stop offset="1.0" stop-color="#261b10"/>
    </radialGradient>
    <radialGradient cx="0" cy="0" gradientTransform="matrix(0.0018, 0.0, 0.0, 0.0018, -7.45, -36.6)" gradientUnits="userSpaceOnUse" id="gradient26" r="819.2" spreadMethod="pad">
      <stop offset="0.0" stop-color="#c8c8c8"/>
      <stop offset="1.0" stop-color="#bebebe"/>
    </radialGradient>
    <radialGradient cx="0" cy="0" gradientTransform="matrix(0.0086, 0.0, 0.0, 0.0086, -0.85, -37.35)" gradientUnits="userSpaceOnUse" id="gradient27" r="819.2" spreadMethod="pad">
      <stop offset="0.0" stop-color="#857a7a"/>
      <stop offset="1.0" stop-color="#4e4747"/>
    </radialGradient>
    <radialGradient cx="0" cy="0" gradientTransform="matrix(0.0068, 0.0, 0.0, 0.0068, 3.3, -41.1)" gradientUnits="userSpaceOnUse" id="gradient28" r="819.2" spreadMethod="pad">
      <stop offset="0.0" stop-color="#fff549"/>
      <stop offset="1.0" stop-color="#a79d2e"/>
    </radialGradient>
    <radialGradient cx="0" cy="0" gradientTransform="matrix(0.0055, 0.0, 0.0, 0.0055, 5.9, -37.15)" gradientUnits="userSpaceOnUse" id="gradient29" r="819.2" spreadMethod="pad">
      <stop offset="0.0" stop-color="#efe143"/>
      <stop offset="1.0" stop-color="#a2982d"/>
    </radialGradient>
    <radialGradient cx="0" cy="0" gradientTransform="matrix(0.0047, 0.0, 0.0, 0.0047, 5.2, -36.15)" gradientUnits="userSpaceOnUse" id="gradient30" r="819.2" spreadMethod="pad">
      <stop offset="0.0" stop-color="#fff449"/>
      <stop offset="1.0" stop-color="#877f25"/>
    </radialGradient>
    <radialGradient cx="0" cy="0" gradientTransform="matrix(0.0052, 0.0, 0.0, 0.0052, 5.9, -33.25)" gradientUnits="userSpaceOnUse" id="gradient31" r="819.2" spreadMethod="pad">
      <stop offset="0.0" stop-color="#f6e745"/>
      <stop offset="1.0" stop-color="#9a902b"/>
    </radialGradient>
    <radialGradient cx="0" cy="0" gradientTransform="matrix(0.0046, 0.0, 0.0, 0.0046, 4.65, -33.15)" gradientUnits="userSpaceOnUse" id="gradient32" r="819.2" spreadMethod="pad">
      <stop offset="0.0" stop-color="#fff94a"/>
      <stop offset="1.0" stop-color="#8c8327"/>
    </radialGradient>
    <radialGradient cx="0" cy="0" gradientTransform="matrix(0.0087, 0.0, 0.0, 0.0087, 7.65, -34.0)" gradientUnits="userSpaceOnUse" id="gradient33" r="819.2" spreadMethod="pad">
      <stop offset="0.0" stop-color="#ffe887"/>
      <stop offset="1.0" stop-color="#8f653b"/>
    </radialGradient>
    <radialGradient cx="0" cy="0" gradientTransform="matrix(0.0029, 0.0, 0.0, 0.0029, 7.55, -28.1)" gradientUnits="userSpaceOnUse" id="gradient34" r="819.2" spreadMethod="pad">
      <stop offset="0.0" stop-color="#ffbb6d"/>
      <stop offset="1.0" stop-color="#a37343"/>
    </radialGradient>
    <radialGradient cx="0" cy="0" gradientTransform="matrix(0.0063, 0.0, 0.0, 0.0063, 5.7, -26.85)" gradientUnits="userSpaceOnUse" id="gradient35" r="819.2" spreadMethod="pad">
      <stop offset="0.0" stop-color="#8c8080"/>
      <stop offset="1.0" stop-color="#4d4646"/>
    </radialGradient>
    <radialGradient cx="0" cy="0" gradientTransform="matrix(0.005, 0.0, 0.0, 0.005, 5.65, -30.45)" gradientUnits="userSpaceOnUse" id="gradient36" r="819.2" spreadMethod="pad">
      <stop offset="0.0" stop-color="#fdee47"/>
      <stop offset="1.0" stop-color="#888026"/>
    </radialGradient>
    <radialGradient cx="0" cy="0" gradientTransform="matrix(0.008, 0.0, 0.0, 0.008, -1.9, -27.3)" gradientUnits="userSpaceOnUse" id="gradient37" r="819.2" spreadMethod="pad">
      <stop offset="0.0" stop-color="#324f6a"/>
      <stop offset="1.0" stop-color="#283f55"/>
    </radialGradient>
    <radialGradient cx="0" cy="0" gradientTransform="matrix(0.0046, 0.0, 0.0, 0.0046, 5.4, -30.0)" gradientUnits="userSpaceOnUse" id="gradient38" r="819.2" spreadMethod="pad">
      <stop offset="0.0" stop-color="#fffd4b"/>
      <stop offset="1.0" stop-color="#756d20"/>
    </radialGradient>
    <radialGradient cx="0" cy="0" gradientTransform="matrix(0.0048, 0.0, 0.0, 0.0048, 4.05, -26.65)" gradientUnits="userSpaceOnUse" id="gradient39" r="819.2" spreadMethod="pad">
      <stop offset="0.0" stop-color="#ffff4c"/>
      <stop offset="1.0" stop-color="#8c8327"/>
    </radialGradient>
    <radialGradient cx="0" cy="0" gradientTransform="matrix(0.0044, 0.0, 0.0, 0.0044, 5.2, -26.5)" gradientUnits="userSpaceOnUse" id="gradient40" r="819.2" spreadMethod="pad">
      <stop offset="0.0" stop-color="#ffff4d"/>
      <stop offset="1.0" stop-color="#787021"/>
    </radialGradient>
    <radialGradient cx="0" cy="0" gradientTransform="matrix(0.0029, 0.0, 0.0, 0.0029, 3.3, -28.0)" gradientUnits="userSpaceOnUse" id="gradient41" r="819.2" spreadMethod="pad">
      <stop offset="0.0" stop-color="#222009"/>
      <stop offset="1.0" stop-color="#222009"/>
    </radialGradient>
    <radialGradient cx="0" cy="0" gradientTransform="matrix(0.0183, 0.0, 0.0, 0.0183, 7.0, -26.8)" gradientUnits="userSpaceOnUse" id="gradient42" r="819.2" spreadMethod="pad">
      <stop offset="0.0" stop-color="#675d5d"/>
      <stop offset="1.0" stop-color="#524a4a"/>
    </radialGradient>
    <radialGradient cx="0" cy="0" gradientTransform="matrix(0.0062, 0.0, 0.0, 0.0062, 5.75, -22.0)" gradientUnits="userSpaceOnUse" id="gradient43" r="819.2" spreadMethod="pad">
      <stop offset="0.0" stop-color="#ffff4e"/>
      <stop offset="1.0" stop-color="#787121"/>
    </radialGradient>
    <radialGradient cx="0" cy="0" gradientTransform="matrix(0.0029, 0.0, 0.0, 0.0029, 2.85, -26.85)" gradientUnits="userSpaceOnUse" id="gradient44" r="819.2" spreadMethod="pad">
      <stop offset="0.0" stop-color="#b6b6b6"/>
      <stop offset="1.0" stop-color="#979797"/>
    </radialGradient>
    <radialGradient cx="0" cy="0" gradientTransform="matrix(0.0074, 0.0, 0.0, 0.0074, -1.15, -25.0)" gradientUnits="userSpaceOnUse" id="gradient45" r="819.2" spreadMethod="pad">
      <stop offset="0.0" stop-color="#988b8b"/>
      <stop offset="1.0" stop-color="#615959"/>
    </radialGradient>
    <radialGradient cx="0" cy="0" gradientTransform="matrix(0.0216, 0.0, 0.0, 0.0216, -2.2, -24.1)" gradientUnits="userSpaceOnUse" id="gradient46" r="819.2" spreadMethod="pad">
      <stop offset="0.0" stop-color="#978a8a"/>
      <stop offset="1.0" stop-color="#544d4d"/>
    </radialGradient>
    <radialGradient cx="0" cy="0" gradientTransform="matrix(0.0118, 0.0, 0.0, 0.0118, -5.75, -23.85)" gradientUnits="userSpaceOnUse" id="gradient47" r="819.2" spreadMethod="pad">
      <stop offset="0.0" stop-color="#ffd27a"/>
      <stop offset="1.0" stop-color="#9c6e40"/>
    </radialGradient>
    <radialGradient cx="0" cy="0" gradientTransform="matrix(0.0011, 0.0, 0.0, 0.0011, -9.9, -18.5)" gradientUnits="userSpaceOnUse" id="gradient48" r="819.2" spreadMethod="pad">
      <stop offset="0.0" stop-color="#f9b066"/>
      <stop offset="1.0" stop-color="#a77645"/>
    </radialGradient>
    <radialGradient cx="0" cy="0" gradientTransform="matrix(0.0038, 0.0, 0.0, 0.0038, -9.6, -16.6)" gradientUnits="userSpaceOnUse" id="gradient49" r="819.2" spreadMethod="pad">
      <stop offset="0.0" stop-color="#ffe988"/>
      <stop offset="1.0" stop-color="#b07c48"/>
    </radialGradient>
    <radialGradient cx="0" cy="0" gradientTransform="matrix(0.023, 0.0, 0.0, 0.023, -10.2, -36.4)" gradientUnits="userSpaceOnUse" id="gradient50" r="819.2" spreadMethod="pad">
      <stop offset="0.0" stop-color="#a8a8a8"/>
      <stop offset="1.0" stop-color="#202020"/>
    </radialGradient>
    <radialGradient cx="0" cy="0" gradientTransform="matrix(0.0025, 0.0, 0.0, 0.0025, 1.8, -14.7)" gradientUnits="userSpaceOnUse" id="gradient51" r="819.2" spreadMethod="pad">
      <stop offset="0.0" stop-color="#ffb96c"/>
      <stop offset="1.0" stop-color="#92673c"/>
    </radialGradient>
    <radialGradient cx="0" cy="0" gradientTransform="matrix(0.0029, 0.0, 0.0, 0.0029, 1.65, -15.3)" gradientUnits="userSpaceOnUse" id="gradient52" r="819.2" spreadMethod="pad">
      <stop offset="0.0" stop-color="#261b10"/>
      <stop offset="1.0" stop-color="#261b10"/>
    </radialGradient>
    <radialGradient cx="0" cy="0" gradientTransform="matrix(0.0105, 0.0, 0.0, 0.0105, -1.95, -9.35)" gradientUnits="userSpaceOnUse" id="gradient53" r="819.2" spreadMethod="pad">
      <stop offset="0.0" stop-color="#fff38e"/>
      <stop offset="1.0" stop-color="#8b6239"/>
    </radialGradient>
    <radialGradient cx="0" cy="0" gradientTransform="matrix(0.0027, 0.0, 0.0, 0.0027, -4.2, -9.45)" gradientUnits="userSpaceOnUse" id="gradient54" r="819.2" spreadMethod="pad">
      <stop offset="0.0" stop-color="#d59758"/>
      <stop offset="1.0" stop-color="#d09355"/>
    </radialGradient>
    <radialGradient cx="0" cy="0" gradientTransform="matrix(0.0021, 0.0, 0.0, 0.0021, -4.1, -10.25)" gradientUnits="userSpaceOnUse" id="gradient55" r="819.2" spreadMethod="pad">
      <stop offset="0.0" stop-color="#b47f4a"/>
      <stop offset="1.0" stop-color="#986b3e"/>
    </radialGradient>
    <radialGradient cx="0" cy="0" gradientTransform="matrix(0.0107, 0.0, 0.0, 0.0107, -7.25, -15.1)" gradientUnits="userSpaceOnUse" id="gradient56" r="819.2" spreadMethod="pad">
      <stop offset="0.0" stop-color="#464040"/>
      <stop offset="1.0" stop-color="#282424"/>
    </radialGradient>
    <radialGradient cx="0" cy="0" gradientTransform="matrix(0.01, 0.0, 0.0, 0.01, 4.1, -14.3)" gradientUnits="userSpaceOnUse" id="gradient57" r="819.2" spreadMethod="pad">
      <stop offset="0.0" stop-color="#fff18c"/>
      <stop offset="1.0" stop-color="#8c6239"/>
    </radialGradient>
    <radialGradient cx="0" cy="0" gradientTransform="matrix(0.002, 0.0, 0.0, 0.002, 2.3, -14.6)" gradientUnits="userSpaceOnUse" id="gradient58" r="819.2" spreadMethod="pad">
      <stop offset="0.0" stop-color="#c48a51"/>
      <stop offset="1.0" stop-color="#ba834c"/>
    </radialGradient>
    <radialGradient cx="0" cy="0" gradientTransform="matrix(0.0033, 0.0, 0.0, 0.0033, -3.95, -7.3)" gradientUnits="userSpaceOnUse" id="gradient59" r="819.2" spreadMethod="pad">
      <stop offset="0.0" stop-color="#92673c"/>
      <stop offset="1.0" stop-color="#7e5934"/>
    </radialGradient>
    <radialGradient cx="0" cy="0" gradientTransform="matrix(0.0064, 0.0, 0.0, 0.0064, -4.85, -3.65)" gradientUnits="userSpaceOnUse" id="gradient60" r="819.2" spreadMethod="pad">
      <stop offset="0.0" stop-color="#896138"/>
      <stop offset="1.0" stop-color="#261b10"/>
    </radialGradient>
    <radialGradient cx="0" cy="0" gradientTransform="matrix(0.0074, 0.0, 0.0, 0.0074, -3.5, 2.1)" gradientUnits="userSpaceOnUse" id="gradient61" r="819.2" spreadMethod="pad">
      <stop offset="0.0" stop-color="#9b6d40"/>
      <stop offset="1.0" stop-color="#5b4026"/>
    </radialGradient>
    <radialGradient cx="0" cy="0" gradientTransform="matrix(0.0083, 0.0, 0.0, 0.0083, 4.05, -0.1)" gradientUnits="userSpaceOnUse" id="gradient62" r="819.2" spreadMethod="pad">
      <stop offset="0.0" stop-color="#fff28d"/>
      <stop offset="1.0" stop-color="#e9a661"/>
    </radialGradient>
    <radialGradient cx="0" cy="0" gradientTransform="matrix(0.0111, 0.0, 0.0, 0.0111, -1.3, 5.4)" gradientUnits="userSpaceOnUse" id="gradient63" r="819.2" spreadMethod="pad">
      <stop offset="0.0" stop-color="#df9e5c"/>
      <stop offset="1.0" stop-color="#896138"/>
    </radialGradient>
    <radialGradient cx="0" cy="0" gradientTransform="matrix(0.0099, 0.0, 0.0, 0.0099, 3.45, -0.8)" gradientUnits="userSpaceOnUse" id="gradient64" r="819.2" spreadMethod="pad">
      <stop offset="0.0" stop-color="#d09355"/>
      <stop offset="1.0" stop-color="#94683c"/>
    </radialGradient>
    <radialGradient cx="0" cy="0" gradientTransform="matrix(0.0101, 0.0, 0.0, 0.0101, -1.15, 4.5)" gradientUnits="userSpaceOnUse" id="gradient65" r="819.2" spreadMethod="pad">
      <stop offset="0.0" stop-color="#ffe485"/>
      <stop offset="1.0" stop-color="#f6ad65"/>
    </radialGradient>
  </defs>
</svg>
