<?xml version="1.0" encoding="UTF-8" standalone="no"?>
<svg xmlns:ffdec="https://www.free-decompiler.com/flash" xmlns:xlink="http://www.w3.org/1999/xlink" ffdec:objectType="shape" height="71.9px" width="33.7px" xmlns="http://www.w3.org/2000/svg">
  <g transform="matrix(1.0, 0.0, 0.0, 1.0, 15.85, 57.0)">
    <path d="M5.7 -52.3 L5.8 -51.9 5.4 -52.2 5.15 -52.1 5.35 -51.25 Q5.1 -49.3 4.6 -48.9 L4.35 -49.05 4.15 -48.75 Q1.45 -50.2 1.25 -51.0 L1.05 -50.75 1.25 -50.65 1.3 -49.3 0.35 -49.55 -0.05 -48.85 -0.55 -49.05 -0.9 -49.65 -1.2 -49.7 -0.9 -49.15 Q-2.3 -48.3 -1.45 -47.8 L-1.9 -47.5 -3.1 -47.7 -2.8 -47.25 -2.8 -46.9 -2.5 -46.6 -2.9 -46.75 Q-4.2 -48.45 -4.4 -49.3 L-5.25 -52.1 -5.3 -52.55 -4.85 -54.2 -4.9 -54.55 -3.7 -55.5 -1.65 -56.4 -0.35 -56.35 Q4.45 -55.5 5.7 -52.3" fill="url(#gradient0)" fill-rule="evenodd" stroke="none"/>
    <path d="M-2.5 -46.6 L-2.8 -46.9 -2.8 -47.25 -3.1 -47.7 -1.9 -47.5 -1.45 -47.8 Q-2.3 -48.3 -0.9 -49.15 L-1.2 -49.7 -0.9 -49.65 -0.55 -49.05 -0.05 -48.85 0.35 -49.55 1.3 -49.3 1.25 -50.65 1.05 -50.75 1.25 -51.0 Q1.45 -50.2 4.15 -48.75 L4.35 -49.05 4.6 -48.9 5.15 -47.7 5.65 -45.65 5.15 -45.9 Q4.45 -45.1 4.4 -44.1 L3.7 -44.05 3.15 -43.75 1.25 -44.1 0.85 -43.85 0.85 -43.4 -0.4 -44.45 -2.1 -46.25 -2.5 -46.6" fill="url(#gradient1)" fill-rule="evenodd" stroke="none"/>
    <path d="M4.6 -48.9 Q5.1 -49.3 5.35 -51.25 L5.15 -52.1 5.4 -52.2 5.8 -51.9 5.7 -52.3 Q5.9 -52.6 7.35 -49.3 L7.3 -46.65 7.1 -46.25 7.0 -46.25 6.9 -46.6 6.6 -46.4 6.2 -46.45 6.0 -46.25 5.7 -45.6 5.65 -45.65 5.15 -47.7 4.6 -48.9" fill="url(#gradient2)" fill-rule="evenodd" stroke="none"/>
    <path d="M5.7 -45.6 L6.0 -46.25 6.2 -46.45 6.6 -46.4 6.9 -46.6 7.0 -46.25 7.1 -46.25 7.3 -46.65 7.8 -45.05 7.8 -45.0 7.85 -42.3 7.65 -41.05 6.85 -40.7 6.55 -43.05 5.7 -45.6" fill="url(#gradient3)" fill-rule="evenodd" stroke="none"/>
    <path d="M5.65 -45.65 L5.7 -45.6 6.55 -43.05 6.85 -40.7 6.85 -40.65 6.55 -40.3 3.65 -40.25 2.6 -41.0 2.45 -41.25 1.4 -42.65 1.15 -43.15 1.05 -43.15 0.85 -43.4 0.85 -43.85 1.25 -44.1 3.15 -43.75 3.7 -44.05 4.4 -44.1 Q4.45 -45.1 5.15 -45.9 L5.65 -45.65" fill="url(#gradient4)" fill-rule="evenodd" stroke="none"/>
    <path d="M8.45 -44.45 L8.3 -44.6 Q11.6 -46.15 12.9 -43.35 13.1 -40.4 15.8 -30.9 14.6 -28.85 12.0 -30.25 L11.95 -30.3 11.95 -30.35 11.95 -30.65 11.85 -30.75 Q11.0 -31.75 10.15 -35.6 L9.45 -36.3 9.4 -36.3 9.5 -37.5 9.4 -37.8 Q12.0 -45.9 8.45 -44.45" fill="url(#gradient5)" fill-rule="evenodd" stroke="none"/>
    <path d="M7.8 -45.0 L8.0 -45.0 8.2 -44.7 8.3 -44.6 8.45 -44.45 Q10.55 -40.15 9.2 -38.1 L9.0 -38.45 Q9.25 -40.05 8.65 -41.25 L7.85 -42.3 7.8 -45.0 M2.6 -41.0 L2.9 -39.5 3.85 -37.85 3.9 -37.4 4.4 -36.55 4.4 -35.75 4.4 -35.65 4.75 -34.05 4.6 -33.2 4.75 -32.1 4.7 -31.45 Q0.3 -28.4 -3.2 -30.65 L-3.4 -30.9 -3.45 -30.95 -3.6 -31.2 -3.75 -31.4 -3.85 -31.45 -3.85 -31.5 -4.1 -31.8 -4.2 -31.95 -4.35 -32.2 -3.95 -31.95 -3.1 -31.95 Q-1.1 -31.95 -1.35 -33.2 -0.9 -38.75 -3.8 -40.0 -4.5 -40.75 -5.1 -40.4 L-6.15 -39.6 -6.3 -39.5 -7.55 -38.95 Q-6.85 -41.9 -2.15 -42.0 L-1.9 -42.0 -0.4 -42.0 Q0.85 -41.55 1.75 -41.6 L2.45 -41.25 2.6 -41.0 M4.85 -29.1 L4.85 -29.05 5.05 -27.65 5.0 -27.0 4.95 -25.95 5.1 -25.05 5.1 -25.0 5.15 -24.2 5.5 -23.45 5.4 -23.35 5.35 -23.25 5.3 -23.2 5.25 -23.05 5.15 -23.0 4.75 -22.6 4.25 -22.5 3.65 -22.35 3.55 -22.4 3.4 -22.75 Q3.8 -23.65 -2.05 -26.05 L-3.65 -27.3 -4.0 -27.75 -4.15 -27.7 -4.35 -27.8 -4.35 -27.85 -3.95 -29.2 -2.6 -28.2 -1.55 -27.85 3.55 -28.0 4.85 -29.1" fill="url(#gradient6)" fill-rule="evenodd" stroke="none"/>
    <path d="M7.8 -45.0 L7.8 -45.05 8.15 -45.05 8.2 -44.7 8.0 -45.0 7.8 -45.0" fill="url(#gradient7)" fill-rule="evenodd" stroke="none"/>
    <path d="M2.6 -41.0 L3.65 -40.25 6.55 -40.3 6.85 -40.65 7.65 -38.35 7.75 -37.0 7.4 -36.75 6.05 -36.2 5.05 -36.6 3.85 -37.85 2.9 -39.5 2.6 -41.0" fill="url(#gradient8)" fill-rule="evenodd" stroke="none"/>
    <path d="M2.45 -41.25 L1.75 -41.6 Q0.85 -41.55 -0.4 -42.0 L-0.55 -42.45 -0.55 -42.55 -0.45 -42.75 -0.6 -44.3 -0.4 -44.45 0.85 -43.4 1.05 -43.15 1.4 -42.65 2.45 -41.25" fill="url(#gradient9)" fill-rule="evenodd" stroke="none"/>
    <path d="M1.4 -42.65 L1.05 -43.15 1.15 -43.15 1.4 -42.65" fill="url(#gradient10)" fill-rule="evenodd" stroke="none"/>
    <path d="M3.85 -37.85 L5.05 -36.6 4.55 -36.4 4.4 -36.55 3.9 -37.4 3.85 -37.85 M7.75 -37.0 L7.65 -38.35 6.85 -40.65 6.85 -40.7 7.65 -41.05 7.85 -42.3 8.65 -41.25 Q9.25 -40.05 9.0 -38.45 L8.65 -37.3 8.2 -36.45 7.75 -37.0" fill="url(#gradient11)" fill-rule="evenodd" stroke="none"/>
    <path d="M9.4 -37.8 L9.5 -37.5 9.4 -36.3 9.35 -35.95 9.15 -35.0 8.75 -34.15 8.25 -33.7 8.35 -35.0 8.2 -36.45 8.65 -37.3 9.0 -38.45 9.2 -38.1 9.4 -37.8 M4.75 -34.05 L4.4 -35.65 4.45 -35.65 5.4 -33.6 5.15 -33.55 4.75 -34.05" fill="url(#gradient12)" fill-rule="evenodd" stroke="none"/>
    <path d="M8.45 -44.45 Q12.0 -45.9 9.4 -37.8 L9.2 -38.1 Q10.55 -40.15 8.45 -44.45" fill="url(#gradient13)" fill-rule="evenodd" stroke="none"/>
    <path d="M9.4 -36.3 L9.45 -36.3 9.35 -35.95 9.4 -36.3" fill="url(#gradient14)" fill-rule="evenodd" stroke="none"/>
    <path d="M5.05 -36.6 L6.05 -36.2 7.4 -36.75 7.75 -37.0 8.2 -36.45 8.35 -35.0 8.25 -33.7 8.2 -33.55 8.0 -33.2 Q7.8 -32.75 6.3 -32.75 L5.7 -33.2 5.4 -33.6 4.45 -35.65 4.4 -35.75 4.4 -36.55 4.55 -36.4 5.05 -36.6" fill="url(#gradient15)" fill-rule="evenodd" stroke="none"/>
    <path d="M4.75 -32.1 L4.6 -33.2 4.75 -34.05 5.15 -33.55 5.4 -33.6 5.7 -33.2 6.3 -32.75 Q7.8 -32.75 8.0 -33.2 L8.2 -33.55 8.25 -33.2 8.25 -31.5 Q8.25 -30.65 7.8 -30.15 L7.8 -30.05 Q6.5 -29.15 5.6 -30.05 L4.75 -32.1" fill="url(#gradient16)" fill-rule="evenodd" stroke="none"/>
    <path d="M4.7 -31.45 L4.75 -32.1 5.6 -30.05 4.95 -30.2 4.85 -30.25 4.7 -31.45 M8.25 -33.7 L8.75 -34.15 Q10.1 -33.2 8.85 -30.9 L8.5 -30.35 7.8 -30.15 Q8.25 -30.65 8.25 -31.5 L8.25 -33.2 8.2 -33.55 8.25 -33.7" fill="url(#gradient17)" fill-rule="evenodd" stroke="none"/>
    <path d="M4.4 -35.65 L4.4 -35.75 4.45 -35.65 4.4 -35.65" fill="url(#gradient18)" fill-rule="evenodd" stroke="none"/>
    <path d="M-4.1 -31.8 L-3.85 -31.5 -3.85 -31.45 -3.65 -31.2 -3.45 -30.95 -3.4 -30.9 -3.25 -30.65 -3.2 -30.65 Q0.3 -28.4 4.7 -31.45 L4.85 -30.25 4.85 -30.2 4.85 -29.1 3.55 -28.0 -1.55 -27.85 -2.6 -28.2 -3.95 -29.2 -3.95 -29.25 Q-4.15 -29.95 -3.75 -30.75 L-3.85 -31.1 -3.8 -31.2 -3.95 -31.25 -4.4 -32.05 -4.3 -31.9 -4.1 -31.8" fill="url(#gradient19)" fill-rule="evenodd" stroke="none"/>
    <path d="M4.95 -30.2 L5.6 -30.05 Q6.5 -29.15 7.8 -30.05 L8.15 -29.4 7.95 -27.4 7.8 -27.05 6.9 -26.45 6.25 -26.55 6.0 -26.7 5.7 -27.0 4.85 -29.05 4.85 -29.1 4.85 -30.2 4.95 -30.2" fill="url(#gradient20)" fill-rule="evenodd" stroke="none"/>
    <path d="M4.85 -30.25 L4.95 -30.2 4.85 -30.2 4.85 -30.25" fill="url(#gradient21)" fill-rule="evenodd" stroke="none"/>
    <path d="M5.7 -27.0 L6.0 -26.7 6.1 -26.4 6.25 -26.55 6.9 -26.45 7.8 -27.05 8.0 -24.6 Q8.15 -24.25 7.4 -23.2 L7.0 -23.0 6.4 -23.1 5.8 -23.6 5.15 -25.0 5.1 -25.05 4.95 -25.95 5.0 -27.0 5.5 -27.15 5.7 -27.0" fill="url(#gradient22)" fill-rule="evenodd" stroke="none"/>
    <path d="M6.0 -26.7 L6.25 -26.55 6.1 -26.4 6.0 -26.7 M7.8 -27.05 L7.95 -27.4 8.1 -27.45 Q9.85 -26.7 8.3 -23.75 L7.9 -23.3 7.4 -23.2 Q8.15 -24.25 8.0 -24.6 L7.8 -27.05 M5.5 -23.45 L5.15 -24.2 5.1 -25.0 5.15 -25.0 5.8 -23.6 6.4 -23.1 5.5 -23.45 M5.0 -27.0 L5.05 -27.65 5.5 -27.15 5.0 -27.0" fill="url(#gradient23)" fill-rule="evenodd" stroke="none"/>
    <path d="M7.8 -30.15 L8.5 -30.35 8.85 -30.9 9.15 -30.2 9.15 -29.65 9.05 -29.3 8.8 -28.45 8.1 -27.45 7.95 -27.4 8.15 -29.4 7.8 -30.05 7.8 -30.15 M4.85 -29.05 L5.7 -27.0 5.5 -27.15 5.05 -27.65 4.85 -29.05" fill="url(#gradient24)" fill-rule="evenodd" stroke="none"/>
    <path d="M3.65 -22.35 L4.25 -22.5 4.75 -22.1 5.25 -22.0 6.35 -18.3 5.0 -17.1 4.8 -16.95 4.95 -15.8 4.35 -15.2 3.0 -14.75 3.0 -18.95 2.75 -20.2 2.6 -20.35 3.25 -21.35 3.3 -22.05 3.65 -22.35 M9.15 -29.65 L10.05 -28.05 10.4 -26.6 10.3 -26.2 9.95 -27.75 9.05 -29.3 9.15 -29.65 M10.3 -26.1 L10.05 -24.05 9.6 -23.6 9.2 -22.95 9.05 -23.2 9.55 -23.9 10.3 -26.1" fill="url(#gradient25)" fill-rule="evenodd" stroke="none"/>
    <path d="M4.25 -22.5 L4.75 -22.6 5.15 -23.0 5.25 -22.0 4.75 -22.1 4.25 -22.5 M10.3 -26.2 L10.3 -26.1 9.55 -23.9 9.05 -23.2 8.3 -23.75 Q9.85 -26.7 8.1 -27.45 L8.8 -28.45 9.05 -29.3 9.95 -27.75 10.3 -26.2" fill="url(#gradient26)" fill-rule="evenodd" stroke="none"/>
    <path d="M5.1 -25.0 L5.1 -25.05 5.15 -25.0 5.1 -25.0" fill="url(#gradient27)" fill-rule="evenodd" stroke="none"/>
    <path d="M11.85 -30.75 L11.95 -30.65 11.95 -30.35 11.85 -30.75 M11.95 -30.3 L12.0 -30.25 11.95 -30.25 11.95 -30.3" fill="url(#gradient28)" fill-rule="evenodd" stroke="none"/>
    <path d="M12.0 -30.25 Q14.6 -28.85 15.8 -30.9 17.5 -28.45 16.95 -22.85 17.15 -19.8 14.15 -22.2 L13.55 -23.55 Q11.1 -28.75 11.95 -30.25 L12.0 -30.25" fill="url(#gradient29)" fill-rule="evenodd" stroke="none"/>
    <path d="M14.15 -22.2 L12.75 -21.35 Q12.2 -20.85 12.25 -20.2 L12.3 -19.7 Q10.6 -21.75 13.55 -23.55 L14.15 -22.2" fill="url(#gradient30)" fill-rule="evenodd" stroke="none"/>
    <path d="M16.95 -22.85 Q18.85 -21.1 16.65 -18.5 13.55 -17.15 12.3 -19.7 L12.25 -20.2 Q12.2 -20.85 12.75 -21.35 L14.15 -22.2 Q17.15 -19.8 16.95 -22.85" fill="url(#gradient31)" fill-rule="evenodd" stroke="none"/>
    <path d="M5.15 -23.0 L5.25 -23.05 5.3 -23.2 5.35 -23.25 5.4 -23.35 5.5 -23.45 6.4 -23.1 7.0 -23.0 7.4 -23.2 7.9 -23.3 8.3 -23.75 9.05 -23.2 9.2 -22.95 Q10.6 -21.0 9.75 -17.75 7.65 -15.7 6.35 -18.3 L5.25 -22.0 5.15 -23.0" fill="url(#gradient32)" fill-rule="evenodd" stroke="none"/>
    <path d="M3.4 -22.75 L3.55 -22.4 3.65 -22.35 3.3 -22.05 3.4 -22.75" fill="url(#gradient33)" fill-rule="evenodd" stroke="none"/>
    <path d="M-4.35 -27.85 L-4.35 -27.8 -4.4 -27.85 -4.35 -27.85 M-4.15 -27.7 L-4.0 -27.75 -3.65 -27.3 -2.05 -26.05 Q3.8 -23.65 3.4 -22.75 L3.3 -22.05 3.25 -21.35 2.6 -20.35 2.5 -20.2 Q0.35 -18.1 -1.6 -20.2 -5.1 -22.2 -4.15 -27.7" fill="url(#gradient34)" fill-rule="evenodd" stroke="none"/>
    <path d="M-4.35 -27.8 L-4.15 -27.7 Q-5.1 -22.2 -1.6 -20.2 0.35 -18.1 2.5 -20.2 L2.6 -20.35 2.75 -20.2 3.0 -18.95 3.0 -14.75 2.9 -9.3 2.95 -8.95 2.9 -8.2 1.9 -7.2 0.95 -6.4 0.9 -7.2 0.9 -7.4 -0.35 -7.7 -0.65 -8.15 -1.95 -10.1 -2.05 -10.15 -2.05 -10.2 -2.1 -10.25 Q-10.2 -22.05 -4.4 -27.85 L-4.35 -27.8" fill="url(#gradient35)" fill-rule="evenodd" stroke="none"/>
    <path d="M4.95 -15.8 Q6.4 -13.65 3.7 -9.75 L2.9 -9.3 3.0 -14.75 4.35 -15.2 4.95 -15.8" fill="url(#gradient36)" fill-rule="evenodd" stroke="none"/>
    <path d="M3.7 -9.75 L3.2 -8.8 2.95 -8.95 2.9 -9.3 3.7 -9.75 M-1.65 -8.45 L-1.5 -8.75 -1.15 -8.4 -0.95 -7.85 -0.9 -7.7 -0.9 -7.2 -0.7 -5.3 -0.2 -3.55 Q-3.0 -1.65 -2.45 -7.2 L-1.65 -8.45" fill="url(#gradient37)" fill-rule="evenodd" stroke="none"/>
    <path d="M3.2 -8.8 Q7.1 -4.2 7.3 -0.9 7.1 1.1 2.95 1.55 L2.9 1.55 2.8 1.5 2.75 1.35 2.65 1.3 2.65 1.25 2.6 1.15 2.55 1.15 1.65 0.05 0.45 -2.15 -0.2 -3.55 -0.7 -5.3 -0.9 -7.2 -0.9 -7.7 -0.9 -7.85 -0.8 -8.05 -0.8 -8.1 -0.65 -8.15 -0.35 -7.7 0.9 -7.4 0.9 -7.2 0.95 -6.4 1.9 -7.2 2.9 -8.2 2.95 -8.95 3.2 -8.8" fill="url(#gradient38)" fill-rule="evenodd" stroke="none"/>
    <path d="M2.65 1.25 L2.55 1.15 2.6 1.15 2.65 1.25 M-0.9 -7.85 L-0.9 -7.7 -0.95 -7.85 -0.9 -7.85" fill="url(#gradient39)" fill-rule="evenodd" stroke="none"/>
    <path d="M7.3 -0.9 L10.1 4.8 12.75 8.9 Q10.45 9.35 9.35 11.85 L9.1 11.85 8.85 11.5 8.75 11.6 8.35 11.4 8.0 9.5 7.8 8.55 Q6.2 7.2 2.8 1.5 L2.9 1.55 2.95 1.55 Q7.1 1.1 7.3 -0.9" fill="url(#gradient40)" fill-rule="evenodd" stroke="none"/>
    <path d="M12.75 8.9 Q17.05 11.75 9.4 14.9 2.45 12.75 8.0 9.5 L8.35 11.4 8.75 11.6 8.85 11.5 9.1 11.85 9.35 11.85 Q10.45 9.35 12.75 8.9" fill="url(#gradient41)" fill-rule="evenodd" stroke="none"/>
    <path d="M-0.35 -56.35 L-1.65 -56.4 -3.7 -55.5 Q-2.25 -57.95 -0.35 -56.35" fill="url(#gradient42)" fill-rule="evenodd" stroke="none"/>
    <path d="M-4.9 -54.55 L-4.85 -54.2 -5.3 -52.55 -5.25 -52.1 -5.95 -51.7 -6.0 -50.85 Q-7.5 -50.05 -7.3 -47.15 -8.25 -49.05 -8.25 -50.4 L-7.95 -52.45 -6.85 -54.2 -4.9 -54.55" fill="url(#gradient43)" fill-rule="evenodd" stroke="none"/>
    <path d="M-5.25 -52.1 L-4.4 -49.3 Q-4.2 -48.45 -2.9 -46.75 L-2.55 -45.7 -1.45 -44.2 -1.5 -44.1 -1.8 -44.3 -3.2 -45.3 -3.2 -45.35 -3.25 -45.35 -3.7 -45.85 -3.75 -45.9 -3.95 -46.1 Q-6.1 -48.85 -6.0 -50.85 L-5.95 -51.7 -5.25 -52.1" fill="url(#gradient44)" fill-rule="evenodd" stroke="none"/>
    <path d="M-3.2 -45.3 L-3.25 -45.35 -3.2 -45.35 -3.2 -45.3" fill="url(#gradient45)" fill-rule="evenodd" stroke="none"/>
    <path d="M-2.9 -46.75 L-2.5 -46.6 -2.1 -46.25 -0.4 -44.45 -0.6 -44.3 -0.95 -44.1 -1.45 -44.2 -2.55 -45.7 -2.9 -46.75 M-1.8 -44.3 L-2.55 -44.5 -3.2 -45.3 -1.8 -44.3" fill="url(#gradient46)" fill-rule="evenodd" stroke="none"/>
    <path d="M-6.3 -39.5 L-6.15 -39.6 -6.15 -39.5 -6.3 -39.5" fill="url(#gradient47)" fill-rule="evenodd" stroke="none"/>
    <path d="M-7.55 -38.95 L-6.3 -39.5 -6.15 -39.5 -4.75 -39.45 -5.25 -39.0 -5.1 -38.55 -4.6 -38.0 -4.45 -37.55 -3.25 -36.5 -3.15 -34.95 -3.75 -33.2 -4.05 -32.65 -4.45 -32.35 -4.5 -32.3 -4.6 -32.2 -5.45 -31.6 Q-6.25 -29.5 -7.0 -28.75 -8.35 -26.75 -10.3 -28.05 -11.25 -28.35 -10.6 -30.6 L-10.05 -32.35 -9.05 -34.35 -8.8 -36.9 -7.55 -38.95" fill="url(#gradient48)" fill-rule="evenodd" stroke="none"/>
    <path d="M-3.8 -40.0 Q-0.9 -38.75 -1.35 -33.2 -1.1 -31.95 -3.1 -31.95 L-3.2 -32.15 -3.85 -32.3 -4.05 -32.65 -3.75 -33.2 -3.15 -34.95 -3.25 -36.5 -4.45 -37.55 -4.6 -38.0 -5.1 -38.55 -5.25 -39.0 -4.75 -39.45 -3.8 -40.0" fill="url(#gradient49)" fill-rule="evenodd" stroke="none"/>
    <path d="M-0.4 -42.0 L-1.9 -42.0 -0.55 -42.45 -0.4 -42.0 M-6.15 -39.6 L-5.1 -40.4 Q-4.5 -40.75 -3.8 -40.0 L-4.75 -39.45 -6.15 -39.5 -6.15 -39.6" fill="url(#gradient50)" fill-rule="evenodd" stroke="none"/>
    <path d="M-0.45 -42.75 L-0.55 -42.55 -0.7 -42.5 -0.45 -42.75" fill="url(#gradient51)" fill-rule="evenodd" stroke="none"/>
    <path d="M-1.9 -42.0 L-2.15 -42.0 -0.7 -42.5 -0.55 -42.55 -0.55 -42.45 -1.9 -42.0" fill="url(#gradient52)" fill-rule="evenodd" stroke="none"/>
    <path d="M-13.2 -28.6 L-12.55 -28.8 -13.15 -27.55 -13.3 -28.1 -13.2 -28.6" fill="url(#gradient53)" fill-rule="evenodd" stroke="none"/>
    <path d="M-13.15 -27.55 L-12.55 -28.8 -11.9 -29.6 -10.6 -30.6 Q-11.25 -28.35 -10.3 -28.05 -8.35 -26.75 -7.0 -28.75 -6.55 -27.1 -10.35 -25.2 -15.75 -23.05 -13.15 -27.55" fill="url(#gradient54)" fill-rule="evenodd" stroke="none"/>
    <path d="M-13.2 -28.6 L-13.3 -28.1 -13.15 -27.55 Q-15.75 -23.05 -10.35 -25.2 -11.8 -21.6 -15.35 -24.05 -17.0 -27.9 -13.2 -28.6" fill="url(#gradient55)" fill-rule="evenodd" stroke="none"/>
    <path d="M-4.35 -32.2 L-4.2 -31.95 -4.3 -31.95 -4.3 -32.05 -4.35 -32.1 -4.4 -32.15 -4.45 -32.2 -4.45 -32.3 -4.35 -32.2" fill="url(#gradient56)" fill-rule="evenodd" stroke="none"/>
    <path d="M-4.4 -32.15 L-4.35 -32.1 -4.3 -32.05 -4.3 -31.95 -4.3 -31.9 -4.4 -32.05 -4.4 -32.15 M-4.5 -32.3 L-4.45 -32.35 -4.45 -32.3 -4.5 -32.3" fill="url(#gradient57)" fill-rule="evenodd" stroke="none"/>
    <path d="M-4.2 -31.95 L-4.1 -31.8 -4.3 -31.9 -4.3 -31.95 -4.2 -31.95" fill="url(#gradient58)" fill-rule="evenodd" stroke="none"/>
    <path d="M-3.1 -31.95 L-3.95 -31.95 -4.35 -32.2 -4.45 -32.3 -4.45 -32.35 -4.05 -32.65 -3.85 -32.3 -3.2 -32.15 -3.1 -31.95" fill="url(#gradient59)" fill-rule="evenodd" stroke="none"/>
    <path d="M-4.4 -32.15 L-4.4 -32.05 -4.6 -32.2 -4.5 -32.3 -4.45 -32.2 -4.4 -32.15 M-3.95 -31.25 L-3.8 -31.2 -3.85 -31.1 -3.95 -31.25" fill="url(#gradient60)" fill-rule="evenodd" stroke="none"/>
    <path d="M-4.5 -32.3 L-4.45 -32.3 -4.45 -32.2 -4.5 -32.3" fill="url(#gradient61)" fill-rule="evenodd" stroke="none"/>
    <path d="M-3.6 -31.2 L-3.45 -30.95 -3.65 -31.2 -3.6 -31.2 M-3.4 -30.9 L-3.2 -30.65 -3.25 -30.65 -3.4 -30.9" fill="url(#gradient62)" fill-rule="evenodd" stroke="none"/>
    <path d="M-3.75 -31.4 L-3.6 -31.2 -3.65 -31.2 -3.75 -31.4" fill="url(#gradient63)" fill-rule="evenodd" stroke="none"/>
    <path d="M-3.85 -31.45 L-3.75 -31.4 -3.65 -31.2 -3.85 -31.45" fill="url(#gradient64)" fill-rule="evenodd" stroke="none"/>
    <path d="M-2.05 -10.1 L-2.05 -10.15 -1.95 -10.1 -2.05 -10.1" fill="url(#gradient65)" fill-rule="evenodd" stroke="none"/>
    <path d="M-1.5 -8.75 L-2.05 -10.1 -1.95 -10.1 -0.65 -8.15 -0.8 -8.1 -1.15 -8.4 -1.5 -8.75" fill="url(#gradient66)" fill-rule="evenodd" stroke="none"/>
    <path d="M-0.8 -8.1 L-0.8 -8.05 -0.9 -7.85 -0.95 -7.85 -1.15 -8.4 -0.8 -8.1" fill="url(#gradient67)" fill-rule="evenodd" stroke="none"/>
    <path d="M0.45 -2.15 Q-0.85 -1.4 -2.9 -3.15 L-7.7 -7.85 Q-4.15 -10.9 -1.65 -8.45 L-2.45 -7.2 Q-3.0 -1.65 -0.2 -3.55 L0.45 -2.15" fill="url(#gradient68)" fill-rule="evenodd" stroke="none"/>
  </g>
  <defs>
    <radialGradient cx="0" cy="0" gradientTransform="matrix(0.0083, 0.0, 0.0, 0.0083, 0.5, -50.6)" gradientUnits="userSpaceOnUse" id="gradient0" r="819.2" spreadMethod="pad">
      <stop offset="0.0" stop-color="#fff348"/>
      <stop offset="1.0" stop-color="#a3992d"/>
    </radialGradient>
    <radialGradient cx="0" cy="0" gradientTransform="matrix(0.0069, 0.0, 0.0, 0.0069, 1.8, -48.6)" gradientUnits="userSpaceOnUse" id="gradient1" r="819.2" spreadMethod="pad">
      <stop offset="0.0" stop-color="#fff549"/>
      <stop offset="1.0" stop-color="#b7ac33"/>
    </radialGradient>
    <radialGradient cx="0" cy="0" gradientTransform="matrix(0.0075, 0.0, 0.0, 0.0075, 4.1, -47.5)" gradientUnits="userSpaceOnUse" id="gradient2" r="819.2" spreadMethod="pad">
      <stop offset="0.0" stop-color="#fced46"/>
      <stop offset="1.0" stop-color="#a2982d"/>
    </radialGradient>
    <radialGradient cx="0" cy="0" gradientTransform="matrix(0.0069, 0.0, 0.0, 0.0069, 5.15, -46.1)" gradientUnits="userSpaceOnUse" id="gradient3" r="819.2" spreadMethod="pad">
      <stop offset="0.0" stop-color="#ffef47"/>
      <stop offset="1.0" stop-color="#bbaf34"/>
    </radialGradient>
    <radialGradient cx="0" cy="0" gradientTransform="matrix(0.0091, 0.0, 0.0, 0.0091, 3.75, -47.1)" gradientUnits="userSpaceOnUse" id="gradient4" r="819.2" spreadMethod="pad">
      <stop offset="0.0" stop-color="#fff047"/>
      <stop offset="1.0" stop-color="#bfb335"/>
    </radialGradient>
    <radialGradient cx="0" cy="0" gradientTransform="matrix(0.0172, 0.0, 0.0, 0.0172, 10.55, -41.95)" gradientUnits="userSpaceOnUse" id="gradient5" r="819.2" spreadMethod="pad">
      <stop offset="0.0" stop-color="#ffdb80"/>
      <stop offset="1.0" stop-color="#dc9b5a"/>
    </radialGradient>
    <radialGradient cx="0" cy="0" gradientTransform="matrix(0.022, 0.0, 0.0, 0.022, 5.35, -27.25)" gradientUnits="userSpaceOnUse" id="gradient6" r="819.2" spreadMethod="pad">
      <stop offset="0.0" stop-color="#ffffff"/>
      <stop offset="1.0" stop-color="#939393"/>
    </radialGradient>
    <radialGradient cx="0" cy="0" gradientTransform="matrix(0.0042, 0.0, 0.0, 0.0042, 6.15, -44.55)" gradientUnits="userSpaceOnUse" id="gradient7" r="819.2" spreadMethod="pad">
      <stop offset="0.0" stop-color="#8b7f7f"/>
      <stop offset="1.0" stop-color="#675e5e"/>
    </radialGradient>
    <radialGradient cx="0" cy="0" gradientTransform="matrix(0.0068, 0.0, 0.0, 0.0068, 5.05, -41.3)" gradientUnits="userSpaceOnUse" id="gradient8" r="819.2" spreadMethod="pad">
      <stop offset="0.0" stop-color="#fffb4b"/>
      <stop offset="1.0" stop-color="#aea431"/>
    </radialGradient>
    <radialGradient cx="0" cy="0" gradientTransform="matrix(0.008, 0.0, 0.0, 0.008, 2.15, -39.85)" gradientUnits="userSpaceOnUse" id="gradient9" r="819.2" spreadMethod="pad">
      <stop offset="0.0" stop-color="#7f7474"/>
      <stop offset="1.0" stop-color="#5e5656"/>
    </radialGradient>
    <radialGradient cx="0" cy="0" gradientTransform="matrix(0.0025, 0.0, 0.0, 0.0025, 1.8, -42.05)" gradientUnits="userSpaceOnUse" id="gradient10" r="819.2" spreadMethod="pad">
      <stop offset="0.0" stop-color="#222009"/>
      <stop offset="1.0" stop-color="#222009"/>
    </radialGradient>
    <radialGradient cx="0" cy="0" gradientTransform="matrix(0.007, 0.0, 0.0, 0.007, 6.05, -41.55)" gradientUnits="userSpaceOnUse" id="gradient11" r="819.2" spreadMethod="pad">
      <stop offset="0.0" stop-color="#fffa4a"/>
      <stop offset="1.0" stop-color="#a89e2f"/>
    </radialGradient>
    <radialGradient cx="0" cy="0" gradientTransform="matrix(0.0055, 0.0, 0.0, 0.0055, 7.65, -37.4)" gradientUnits="userSpaceOnUse" id="gradient12" r="819.2" spreadMethod="pad">
      <stop offset="0.0" stop-color="#f0e243"/>
      <stop offset="1.0" stop-color="#a0962c"/>
    </radialGradient>
    <radialGradient cx="0" cy="0" gradientTransform="matrix(0.0072, 0.0, 0.0, 0.0072, 8.7, -41.55)" gradientUnits="userSpaceOnUse" id="gradient13" r="819.2" spreadMethod="pad">
      <stop offset="0.0" stop-color="#7e7272"/>
      <stop offset="1.0" stop-color="#534c4c"/>
    </radialGradient>
    <radialGradient cx="0" cy="0" gradientTransform="matrix(0.0024, 0.0, 0.0, 0.0024, 9.15, -35.65)" gradientUnits="userSpaceOnUse" id="gradient14" r="819.2" spreadMethod="pad">
      <stop offset="0.0" stop-color="#a1972d"/>
      <stop offset="1.0" stop-color="#8f8628"/>
    </radialGradient>
    <radialGradient cx="0" cy="0" gradientTransform="matrix(0.0062, 0.0, 0.0, 0.0062, 6.9, -37.85)" gradientUnits="userSpaceOnUse" id="gradient15" r="819.2" spreadMethod="pad">
      <stop offset="0.0" stop-color="#fff84a"/>
      <stop offset="1.0" stop-color="#8b8327"/>
    </radialGradient>
    <radialGradient cx="0" cy="0" gradientTransform="matrix(0.0046, 0.0, 0.0, 0.0046, 6.45, -33.45)" gradientUnits="userSpaceOnUse" id="gradient16" r="819.2" spreadMethod="pad">
      <stop offset="0.0" stop-color="#fffd4b"/>
      <stop offset="1.0" stop-color="#8a8227"/>
    </radialGradient>
    <radialGradient cx="0" cy="0" gradientTransform="matrix(0.0052, 0.0, 0.0, 0.0052, 7.7, -33.5)" gradientUnits="userSpaceOnUse" id="gradient17" r="819.2" spreadMethod="pad">
      <stop offset="0.0" stop-color="#f8e945"/>
      <stop offset="1.0" stop-color="#978f2a"/>
    </radialGradient>
    <radialGradient cx="0" cy="0" gradientTransform="matrix(0.0017, 0.0, 0.0, 0.0017, 4.75, -34.8)" gradientUnits="userSpaceOnUse" id="gradient18" r="819.2" spreadMethod="pad">
      <stop offset="0.0" stop-color="#222009"/>
      <stop offset="1.0" stop-color="#222009"/>
    </radialGradient>
    <radialGradient cx="0" cy="0" gradientTransform="matrix(0.0116, 0.0, 0.0, 0.0116, 3.9, -28.55)" gradientUnits="userSpaceOnUse" id="gradient19" r="819.2" spreadMethod="pad">
      <stop offset="0.0" stop-color="#365572"/>
      <stop offset="1.0" stop-color="#24394d"/>
    </radialGradient>
    <radialGradient cx="0" cy="0" gradientTransform="matrix(0.0046, 0.0, 0.0, 0.0046, 7.2, -30.25)" gradientUnits="userSpaceOnUse" id="gradient20" r="819.2" spreadMethod="pad">
      <stop offset="0.0" stop-color="#ffff4c"/>
      <stop offset="1.0" stop-color="#736d20"/>
    </radialGradient>
    <radialGradient cx="0" cy="0" gradientTransform="matrix(0.0032, 0.0, 0.0, 0.0032, 4.75, -32.65)" gradientUnits="userSpaceOnUse" id="gradient21" r="819.2" spreadMethod="pad">
      <stop offset="0.0" stop-color="#222009"/>
      <stop offset="1.0" stop-color="#222009"/>
    </radialGradient>
    <radialGradient cx="0" cy="0" gradientTransform="matrix(0.0044, 0.0, 0.0, 0.0044, 7.0, -26.75)" gradientUnits="userSpaceOnUse" id="gradient22" r="819.2" spreadMethod="pad">
      <stop offset="0.0" stop-color="#ffff4e"/>
      <stop offset="1.0" stop-color="#777021"/>
    </radialGradient>
    <radialGradient cx="0" cy="0" gradientTransform="matrix(0.0049, 0.0, 0.0, 0.0049, 5.85, -26.9)" gradientUnits="userSpaceOnUse" id="gradient23" r="819.2" spreadMethod="pad">
      <stop offset="0.0" stop-color="#ffff4d"/>
      <stop offset="1.0" stop-color="#8c8327"/>
    </radialGradient>
    <radialGradient cx="0" cy="0" gradientTransform="matrix(0.005, 0.0, 0.0, 0.005, 7.45, -30.75)" gradientUnits="userSpaceOnUse" id="gradient24" r="819.2" spreadMethod="pad">
      <stop offset="0.0" stop-color="#feef47"/>
      <stop offset="1.0" stop-color="#877f25"/>
    </radialGradient>
    <radialGradient cx="0" cy="0" gradientTransform="matrix(0.0178, 0.0, 0.0, 0.0178, 8.9, -27.35)" gradientUnits="userSpaceOnUse" id="gradient25" r="819.2" spreadMethod="pad">
      <stop offset="0.0" stop-color="#6c6262"/>
      <stop offset="1.0" stop-color="#403a3a"/>
    </radialGradient>
    <radialGradient cx="0" cy="0" gradientTransform="matrix(0.008, 0.0, 0.0, 0.008, 6.95, -28.35)" gradientUnits="userSpaceOnUse" id="gradient26" r="819.2" spreadMethod="pad">
      <stop offset="0.0" stop-color="#948686"/>
      <stop offset="1.0" stop-color="#463f3f"/>
    </radialGradient>
    <radialGradient cx="0" cy="0" gradientTransform="matrix(0.0036, 0.0, 0.0, 0.0036, 5.25, -24.7)" gradientUnits="userSpaceOnUse" id="gradient27" r="819.2" spreadMethod="pad">
      <stop offset="0.0" stop-color="#222009"/>
      <stop offset="1.0" stop-color="#222009"/>
    </radialGradient>
    <radialGradient cx="0" cy="0" gradientTransform="matrix(0.01, 0.0, 0.0, 0.01, 12.55, -28.55)" gradientUnits="userSpaceOnUse" id="gradient28" r="819.2" spreadMethod="pad">
      <stop offset="0.0" stop-color="#261b10"/>
      <stop offset="1.0" stop-color="#261b10"/>
    </radialGradient>
    <radialGradient cx="0" cy="0" gradientTransform="matrix(0.0129, 0.0, 0.0, 0.0129, 13.85, -30.7)" gradientUnits="userSpaceOnUse" id="gradient29" r="819.2" spreadMethod="pad">
      <stop offset="0.0" stop-color="#ffe183"/>
      <stop offset="1.0" stop-color="#aa7845"/>
    </radialGradient>
    <radialGradient cx="0" cy="0" gradientTransform="matrix(0.0038, 0.0, 0.0, 0.0038, 13.85, -22.45)" gradientUnits="userSpaceOnUse" id="gradient30" r="819.2" spreadMethod="pad">
      <stop offset="0.0" stop-color="#ffed8a"/>
      <stop offset="1.0" stop-color="#ac7946"/>
    </radialGradient>
    <radialGradient cx="0" cy="0" gradientTransform="matrix(0.0037, 0.0, 0.0, 0.0037, 14.95, -21.15)" gradientUnits="userSpaceOnUse" id="gradient31" r="819.2" spreadMethod="pad">
      <stop offset="0.0" stop-color="#ffed8a"/>
      <stop offset="1.0" stop-color="#a87745"/>
    </radialGradient>
    <radialGradient cx="0" cy="0" gradientTransform="matrix(0.0064, 0.0, 0.0, 0.0064, 7.6, -22.2)" gradientUnits="userSpaceOnUse" id="gradient32" r="819.2" spreadMethod="pad">
      <stop offset="0.0" stop-color="#ffff4f"/>
      <stop offset="1.0" stop-color="#797221"/>
    </radialGradient>
    <radialGradient cx="0" cy="0" gradientTransform="matrix(0.0253, 0.0, 0.0, 0.0253, 3.65, -22.8)" gradientUnits="userSpaceOnUse" id="gradient33" r="819.2" spreadMethod="pad">
      <stop offset="0.0" stop-color="#8a8a8a"/>
      <stop offset="1.0" stop-color="#333333"/>
    </radialGradient>
    <radialGradient cx="0" cy="0" gradientTransform="matrix(0.0073, 0.0, 0.0, 0.0073, -0.75, -25.05)" gradientUnits="userSpaceOnUse" id="gradient34" r="819.2" spreadMethod="pad">
      <stop offset="0.0" stop-color="#998c8c"/>
      <stop offset="1.0" stop-color="#534c4c"/>
    </radialGradient>
    <radialGradient cx="0" cy="0" gradientTransform="matrix(0.0255, 0.0, 0.0, 0.0255, -3.4, -25.6)" gradientUnits="userSpaceOnUse" id="gradient35" r="819.2" spreadMethod="pad">
      <stop offset="0.0" stop-color="#8c7f7f"/>
      <stop offset="1.0" stop-color="#5f5757"/>
    </radialGradient>
    <radialGradient cx="0" cy="0" gradientTransform="matrix(0.0082, 0.0, 0.0, 0.0082, 3.4, -15.95)" gradientUnits="userSpaceOnUse" id="gradient36" r="819.2" spreadMethod="pad">
      <stop offset="0.0" stop-color="#ffea88"/>
      <stop offset="1.0" stop-color="#825c35"/>
    </radialGradient>
    <radialGradient cx="0" cy="0" gradientTransform="matrix(0.0097, 0.0, 0.0, 0.0097, -1.4, -4.95)" gradientUnits="userSpaceOnUse" id="gradient37" r="819.2" spreadMethod="pad">
      <stop offset="0.0" stop-color="#b6814b"/>
      <stop offset="1.0" stop-color="#94683d"/>
    </radialGradient>
    <radialGradient cx="0" cy="0" gradientTransform="matrix(0.0122, 0.0, 0.0, 0.0122, 1.35, -7.05)" gradientUnits="userSpaceOnUse" id="gradient38" r="819.2" spreadMethod="pad">
      <stop offset="0.0" stop-color="#fff38d"/>
      <stop offset="1.0" stop-color="#c48a50"/>
    </radialGradient>
    <radialGradient cx="0" cy="0" gradientTransform="matrix(0.0085, 0.0, 0.0, 0.0085, 0.85, -1.5)" gradientUnits="userSpaceOnUse" id="gradient39" r="819.2" spreadMethod="pad">
      <stop offset="0.0" stop-color="#92673c"/>
      <stop offset="1.0" stop-color="#261b10"/>
    </radialGradient>
    <radialGradient cx="0" cy="0" gradientTransform="matrix(0.0167, 0.0, 0.0, 0.0167, 11.3, 11.5)" gradientUnits="userSpaceOnUse" id="gradient40" r="819.2" spreadMethod="pad">
      <stop offset="0.0" stop-color="#ffdf82"/>
      <stop offset="1.0" stop-color="#ae7a47"/>
    </radialGradient>
    <radialGradient cx="0" cy="0" gradientTransform="matrix(0.0094, 0.0, 0.0, 0.0094, 13.05, 10.85)" gradientUnits="userSpaceOnUse" id="gradient41" r="819.2" spreadMethod="pad">
      <stop offset="0.0" stop-color="#fffb92"/>
      <stop offset="1.0" stop-color="#cc9054"/>
    </radialGradient>
    <radialGradient cx="0" cy="0" gradientTransform="matrix(0.0033, 0.0, 0.0, 0.0033, -1.65, -55.55)" gradientUnits="userSpaceOnUse" id="gradient42" r="819.2" spreadMethod="pad">
      <stop offset="0.0" stop-color="#958c2a"/>
      <stop offset="1.0" stop-color="#777021"/>
    </radialGradient>
    <radialGradient cx="0" cy="0" gradientTransform="matrix(0.0074, 0.0, 0.0, 0.0074, -4.8, -52.7)" gradientUnits="userSpaceOnUse" id="gradient43" r="819.2" spreadMethod="pad">
      <stop offset="0.0" stop-color="#fff448"/>
      <stop offset="1.0" stop-color="#aea431"/>
    </radialGradient>
    <radialGradient cx="0" cy="0" gradientTransform="matrix(0.0076, 0.0, 0.0, 0.0076, -4.35, -49.6)" gradientUnits="userSpaceOnUse" id="gradient44" r="819.2" spreadMethod="pad">
      <stop offset="0.0" stop-color="#fffb4b"/>
      <stop offset="1.0" stop-color="#aaa02f"/>
    </radialGradient>
    <radialGradient cx="0" cy="0" gradientTransform="matrix(0.0083, 0.0, 0.0, 0.0083, -5.8, -49.4)" gradientUnits="userSpaceOnUse" id="gradient45" r="819.2" spreadMethod="pad">
      <stop offset="0.0" stop-color="#222009"/>
      <stop offset="1.0" stop-color="#222009"/>
    </radialGradient>
    <radialGradient cx="0" cy="0" gradientTransform="matrix(0.0038, 0.0, 0.0, 0.0038, -1.9, -45.7)" gradientUnits="userSpaceOnUse" id="gradient46" r="819.2" spreadMethod="pad">
      <stop offset="0.0" stop-color="#ffc472"/>
      <stop offset="1.0" stop-color="#b27d49"/>
    </radialGradient>
    <radialGradient cx="0" cy="0" gradientTransform="matrix(0.0011, 0.0, 0.0, 0.0011, -6.4, -39.55)" gradientUnits="userSpaceOnUse" id="gradient47" r="819.2" spreadMethod="pad">
      <stop offset="0.0" stop-color="#a4a4a4"/>
      <stop offset="1.0" stop-color="#8c8c8c"/>
    </radialGradient>
    <radialGradient cx="0" cy="0" gradientTransform="matrix(0.0131, 0.0, 0.0, 0.0131, -5.25, -36.85)" gradientUnits="userSpaceOnUse" id="gradient48" r="819.2" spreadMethod="pad">
      <stop offset="0.0" stop-color="#ffd77d"/>
      <stop offset="1.0" stop-color="#9a6c3f"/>
    </radialGradient>
    <radialGradient cx="0" cy="0" gradientTransform="matrix(0.0083, 0.0, 0.0, 0.0083, -0.95, -37.85)" gradientUnits="userSpaceOnUse" id="gradient49" r="819.2" spreadMethod="pad">
      <stop offset="0.0" stop-color="#8d8080"/>
      <stop offset="1.0" stop-color="#494343"/>
    </radialGradient>
    <radialGradient cx="0" cy="0" gradientTransform="matrix(0.0065, 0.0, 0.0, 0.0065, -2.85, -39.0)" gradientUnits="userSpaceOnUse" id="gradient50" r="819.2" spreadMethod="pad">
      <stop offset="0.0" stop-color="#928585"/>
      <stop offset="1.0" stop-color="#453f3f"/>
    </radialGradient>
    <radialGradient cx="0" cy="0" gradientTransform="matrix(9.0E-4, 0.0, 0.0, 9.0E-4, -0.6, -42.65)" gradientUnits="userSpaceOnUse" id="gradient51" r="819.2" spreadMethod="pad">
      <stop offset="0.0" stop-color="#35536f"/>
      <stop offset="1.0" stop-color="#2b435a"/>
    </radialGradient>
    <radialGradient cx="0" cy="0" gradientTransform="matrix(0.0057, 0.0, 0.0, 0.0057, 1.2, -43.15)" gradientUnits="userSpaceOnUse" id="gradient52" r="819.2" spreadMethod="pad">
      <stop offset="0.0" stop-color="#2b2828"/>
      <stop offset="1.0" stop-color="#242020"/>
    </radialGradient>
    <radialGradient cx="0" cy="0" gradientTransform="matrix(0.0014, 0.0, 0.0, 0.0014, -12.9, -27.9)" gradientUnits="userSpaceOnUse" id="gradient53" r="819.2" spreadMethod="pad">
      <stop offset="0.0" stop-color="#ffc170"/>
      <stop offset="1.0" stop-color="#885f38"/>
    </radialGradient>
    <radialGradient cx="0" cy="0" gradientTransform="matrix(0.0081, 0.0, 0.0, 0.0081, -9.15, -29.0)" gradientUnits="userSpaceOnUse" id="gradient54" r="819.2" spreadMethod="pad">
      <stop offset="0.0" stop-color="#ffe485"/>
      <stop offset="1.0" stop-color="#8c6339"/>
    </radialGradient>
    <radialGradient cx="0" cy="0" gradientTransform="matrix(0.004, 0.0, 0.0, 0.004, -13.5, -26.25)" gradientUnits="userSpaceOnUse" id="gradient55" r="819.2" spreadMethod="pad">
      <stop offset="0.0" stop-color="#ffec89"/>
      <stop offset="1.0" stop-color="#ae7b47"/>
    </radialGradient>
    <radialGradient cx="0" cy="0" gradientTransform="matrix(0.0019, 0.0, 0.0, 0.0019, -3.9, -31.6)" gradientUnits="userSpaceOnUse" id="gradient56" r="819.2" spreadMethod="pad">
      <stop offset="0.0" stop-color="#202020"/>
      <stop offset="1.0" stop-color="#202020"/>
    </radialGradient>
    <radialGradient cx="0" cy="0" gradientTransform="matrix(0.002, 0.0, 0.0, 0.002, -4.3, -32.05)" gradientUnits="userSpaceOnUse" id="gradient57" r="819.2" spreadMethod="pad">
      <stop offset="0.0" stop-color="#202020"/>
      <stop offset="1.0" stop-color="#202020"/>
    </radialGradient>
    <radialGradient cx="0" cy="0" gradientTransform="matrix(0.0019, 0.0, 0.0, 0.0019, -4.8, -32.9)" gradientUnits="userSpaceOnUse" id="gradient58" r="819.2" spreadMethod="pad">
      <stop offset="0.0" stop-color="#848484"/>
      <stop offset="1.0" stop-color="#727272"/>
    </radialGradient>
    <radialGradient cx="0" cy="0" gradientTransform="matrix(0.0031, 0.0, 0.0, 0.0031, -4.45, -34.25)" gradientUnits="userSpaceOnUse" id="gradient59" r="819.2" spreadMethod="pad">
      <stop offset="0.0" stop-color="#ffffff"/>
      <stop offset="1.0" stop-color="#fbfbfb"/>
    </radialGradient>
    <radialGradient cx="0" cy="0" gradientTransform="matrix(0.003, 0.0, 0.0, 0.003, -3.9, -31.25)" gradientUnits="userSpaceOnUse" id="gradient60" r="819.2" spreadMethod="pad">
      <stop offset="0.0" stop-color="#080c10"/>
      <stop offset="1.0" stop-color="#080c10"/>
    </radialGradient>
    <radialGradient cx="0" cy="0" gradientTransform="matrix(0.002, 0.0, 0.0, 0.002, -5.0, -33.5)" gradientUnits="userSpaceOnUse" id="gradient61" r="819.2" spreadMethod="pad">
      <stop offset="0.0" stop-color="#9a9a9a"/>
      <stop offset="1.0" stop-color="#777777"/>
    </radialGradient>
    <radialGradient cx="0" cy="0" gradientTransform="matrix(0.0022, 0.0, 0.0, 0.0022, -3.05, -30.5)" gradientUnits="userSpaceOnUse" id="gradient62" r="819.2" spreadMethod="pad">
      <stop offset="0.0" stop-color="#1d2d3c"/>
      <stop offset="1.0" stop-color="#080c10"/>
    </radialGradient>
    <radialGradient cx="0" cy="0" gradientTransform="matrix(0.0019, 0.0, 0.0, 0.0019, -3.25, -30.95)" gradientUnits="userSpaceOnUse" id="gradient63" r="819.2" spreadMethod="pad">
      <stop offset="0.0" stop-color="#202020"/>
      <stop offset="1.0" stop-color="#202020"/>
    </radialGradient>
    <radialGradient cx="0" cy="0" gradientTransform="matrix(0.0019, 0.0, 0.0, 0.0019, -3.7, -31.35)" gradientUnits="userSpaceOnUse" id="gradient64" r="819.2" spreadMethod="pad">
      <stop offset="0.0" stop-color="#202020"/>
      <stop offset="1.0" stop-color="#202020"/>
    </radialGradient>
    <radialGradient cx="0" cy="0" gradientTransform="matrix(0.0155, 0.0, 0.0, 0.0155, -4.95, -14.6)" gradientUnits="userSpaceOnUse" id="gradient65" r="819.2" spreadMethod="pad">
      <stop offset="0.0" stop-color="#423c3c"/>
      <stop offset="1.0" stop-color="#121010"/>
    </radialGradient>
    <radialGradient cx="0" cy="0" gradientTransform="matrix(0.0033, 0.0, 0.0, 0.0033, -0.15, -8.45)" gradientUnits="userSpaceOnUse" id="gradient66" r="819.2" spreadMethod="pad">
      <stop offset="0.0" stop-color="#ce9154"/>
      <stop offset="1.0" stop-color="#90663b"/>
    </radialGradient>
    <radialGradient cx="0" cy="0" gradientTransform="matrix(0.0037, 0.0, 0.0, 0.0037, -0.25, -5.7)" gradientUnits="userSpaceOnUse" id="gradient67" r="819.2" spreadMethod="pad">
      <stop offset="0.0" stop-color="#8a6139"/>
      <stop offset="1.0" stop-color="#7c5733"/>
    </radialGradient>
    <radialGradient cx="0" cy="0" gradientTransform="matrix(0.0082, 0.0, 0.0, 0.0082, -1.8, -5.45)" gradientUnits="userSpaceOnUse" id="gradient68" r="819.2" spreadMethod="pad">
      <stop offset="0.0" stop-color="#ffdf82"/>
      <stop offset="1.0" stop-color="#df9d5b"/>
    </radialGradient>
  </defs>
</svg>
