<?xml version="1.0" encoding="UTF-8" standalone="no"?>
<svg xmlns:ffdec="https://www.free-decompiler.com/flash" xmlns:xlink="http://www.w3.org/1999/xlink" ffdec:objectType="shape" height="71.4px" width="33.55px" xmlns="http://www.w3.org/2000/svg">
  <g transform="matrix(1.0, 0.0, 0.0, 1.0, 17.2, 56.7)">
    <path d="M1.1 -56.15 L2.4 -56.1 3.9 -55.45 4.6 -54.95 5.2 -54.55 Q5.65 -53.8 5.8 -51.75 L5.55 -51.45 5.0 -49.1 3.7 -46.75 2.95 -46.25 3.45 -47.15 2.6 -46.9 Q1.5 -48.75 1.3 -48.4 0.95 -48.1 0.15 -48.75 L-0.8 -48.55 -0.95 -49.25 -1.35 -49.85 -2.0 -49.35 -2.4 -49.25 -2.95 -49.4 -3.5 -48.7 -3.75 -48.95 -4.1 -48.6 Q-5.75 -50.5 -4.0 -53.0 L-4.95 -51.95 -4.9 -52.4 -4.75 -52.5 -4.85 -52.6 -5.2 -52.25 Q-2.5 -56.3 1.1 -56.15" fill="url(#gradient0)" fill-rule="evenodd" stroke="none"/>
    <path d="M3.9 -55.45 L2.4 -56.1 1.1 -56.15 Q3.1 -57.55 3.9 -55.45" fill="url(#gradient1)" fill-rule="evenodd" stroke="none"/>
    <path d="M5.8 -51.75 Q5.65 -53.8 5.2 -54.55 L4.6 -54.95 7.1 -54.1 8.25 -51.75 8.55 -48.95 Q8.3 -46.15 7.25 -44.5 L7.35 -46.85 Q6.9 -49.0 6.4 -49.15 L6.45 -50.85 Q6.05 -51.9 5.8 -51.75" fill="url(#gradient2)" fill-rule="evenodd" stroke="none"/>
    <path d="M3.7 -46.75 L5.0 -49.1 5.55 -51.45 5.8 -51.75 Q6.05 -51.9 6.45 -50.85 L6.4 -49.15 5.55 -47.0 3.35 -44.55 3.05 -44.4 2.65 -44.05 2.3 -43.75 2.15 -43.7 2.2 -43.85 2.35 -44.1 2.45 -44.35 2.6 -44.4 3.35 -45.5 3.7 -46.75" fill="url(#gradient3)" fill-rule="evenodd" stroke="none"/>
    <path d="M-4.1 -48.6 L-3.75 -48.95 -3.5 -48.7 -2.95 -49.4 -2.4 -49.25 -2.0 -49.35 -1.35 -49.85 -0.95 -49.25 -0.8 -48.55 0.15 -48.75 Q0.95 -48.1 1.3 -48.4 1.5 -48.75 2.6 -46.9 L3.45 -47.15 2.95 -46.25 2.05 -45.3 1.6 -44.9 1.3 -44.55 1.15 -44.4 1.05 -44.25 -0.1 -43.25 -0.1 -43.7 -0.4 -43.85 -2.35 -43.55 Q-2.55 -43.95 -3.8 -43.85 L-3.85 -44.4 Q-4.45 -45.95 -5.05 -45.1 L-5.1 -45.3 Q-4.85 -45.4 -4.75 -47.05 L-4.1 -48.6" fill="url(#gradient4)" fill-rule="evenodd" stroke="none"/>
    <path d="M2.05 -45.3 L2.55 -45.3 2.45 -44.4 2.45 -44.35 2.35 -44.1 1.6 -44.9 2.05 -45.3" fill="url(#gradient5)" fill-rule="evenodd" stroke="none"/>
    <path d="M2.95 -46.25 L3.7 -46.75 3.35 -45.5 2.6 -44.4 2.45 -44.35 2.45 -44.4 2.55 -45.3 2.05 -45.3 2.95 -46.25 M3.35 -44.55 L3.1 -44.2 2.65 -44.05 3.05 -44.4 3.35 -44.55" fill="url(#gradient6)" fill-rule="evenodd" stroke="none"/>
    <path d="M1.55 -43.8 L1.1 -44.05 1.05 -44.25 1.15 -44.4 1.3 -44.55 1.4 -44.4 1.55 -43.8" fill="url(#gradient7)" fill-rule="evenodd" stroke="none"/>
    <path d="M1.1 -44.05 L1.0 -42.25 1.0 -42.1 1.0 -42.05 1.0 -41.55 Q-0.2 -41.1 -1.2 -41.2 L-1.7 -40.95 -0.1 -43.25 1.05 -44.25 1.1 -44.05" fill="url(#gradient8)" fill-rule="evenodd" stroke="none"/>
    <path d="M2.2 -43.85 L1.55 -43.8 1.4 -44.4 1.3 -44.55 1.6 -44.9 2.35 -44.1 2.2 -43.85" fill="url(#gradient9)" fill-rule="evenodd" stroke="none"/>
    <path d="M1.0 -42.25 L1.15 -42.1 1.0 -42.1 1.0 -42.25" fill="url(#gradient10)" fill-rule="evenodd" stroke="none"/>
    <path d="M1.15 -42.1 L2.45 -41.65 2.3 -41.65 1.0 -42.05 1.0 -42.1 1.15 -42.1" fill="url(#gradient11)" fill-rule="evenodd" stroke="none"/>
    <path d="M2.45 -41.65 Q7.35 -41.4 8.0 -38.55 L6.8 -39.05 6.75 -39.3 6.65 -39.35 6.7 -39.1 6.6 -39.1 5.85 -39.95 Q5.15 -40.15 4.4 -39.6 1.5 -38.45 1.9 -32.7 1.75 -31.85 3.65 -31.5 L4.5 -31.55 4.95 -31.8 4.8 -31.65 4.8 -31.6 3.85 -30.35 3.65 -30.15 Q3.3 -29.15 0.3 -29.2 L-3.6 -30.8 -3.7 -31.45 -3.6 -32.15 -3.75 -33.0 -3.5 -33.85 -3.5 -34.65 -3.25 -35.55 -3.3 -36.75 -3.15 -37.2 -2.35 -38.85 -2.05 -40.45 -1.7 -40.95 -1.2 -41.2 Q-0.2 -41.1 1.0 -41.55 L2.3 -41.65 2.45 -41.65 M4.45 -28.75 L4.8 -27.45 2.8 -25.75 Q-0.15 -24.8 -1.65 -23.6 L-2.75 -22.8 -2.9 -22.35 -3.0 -21.9 -3.05 -21.9 -3.2 -22.05 -3.75 -22.1 -4.3 -22.2 -4.65 -22.6 -4.25 -23.1 -4.05 -24.4 -4.0 -25.8 -4.0 -26.8 -3.8 -27.45 -3.95 -28.2 -3.95 -28.25 Q3.7 -26.3 4.45 -28.75 M-7.85 -44.15 L-7.75 -44.35 -7.65 -44.4 -7.35 -44.6 -7.25 -44.6 -7.25 -41.9 Q-7.9 -41.65 -8.25 -39.6 L-8.0 -37.4 -8.45 -36.55 Q-10.25 -40.3 -7.95 -44.05 L-7.85 -44.15" fill="url(#gradient12)" fill-rule="evenodd" stroke="none"/>
    <path d="M1.0 -41.55 L1.0 -42.05 2.3 -41.65 1.0 -41.55 M6.6 -39.1 L5.35 -39.0 4.4 -39.6 Q5.15 -40.15 5.85 -39.95 L6.6 -39.1" fill="url(#gradient13)" fill-rule="evenodd" stroke="none"/>
    <path d="M8.0 -38.55 L8.35 -38.35 9.4 -36.3 9.55 -33.95 Q10.35 -32.75 11.1 -30.15 12.05 -25.6 7.55 -28.25 6.8 -28.9 6.0 -31.15 L5.1 -31.8 5.05 -31.8 5.0 -31.85 4.6 -32.15 4.35 -32.7 3.75 -34.45 3.8 -35.85 4.0 -36.35 Q5.2 -37.1 5.65 -38.05 L5.8 -38.6 5.35 -39.0 6.6 -39.1 6.7 -39.1 6.8 -39.05 8.0 -38.55" fill="url(#gradient14)" fill-rule="evenodd" stroke="none"/>
    <path d="M6.7 -39.1 L6.65 -39.35 6.75 -39.3 6.8 -39.05 6.7 -39.1" fill="url(#gradient15)" fill-rule="evenodd" stroke="none"/>
    <path d="M5.35 -39.0 L5.8 -38.6 5.65 -38.05 Q5.2 -37.1 4.0 -36.35 L3.8 -35.85 3.75 -34.45 4.35 -32.7 4.6 -32.15 4.35 -31.75 3.6 -31.65 3.65 -31.5 Q1.75 -31.85 1.9 -32.7 1.5 -38.45 4.4 -39.6 L5.35 -39.0" fill="url(#gradient16)" fill-rule="evenodd" stroke="none"/>
    <path d="M4.6 -32.15 L5.0 -31.85 4.95 -31.8 4.5 -31.55 3.65 -31.5 3.6 -31.65 4.35 -31.75 4.6 -32.15" fill="url(#gradient17)" fill-rule="evenodd" stroke="none"/>
    <path d="M5.0 -31.85 L5.05 -31.8 5.0 -31.8 5.0 -31.85" fill="url(#gradient18)" fill-rule="evenodd" stroke="none"/>
    <path d="M4.95 -31.8 L5.0 -31.85 5.0 -31.8 4.8 -31.65 4.95 -31.8" fill="url(#gradient19)" fill-rule="evenodd" stroke="none"/>
    <path d="M5.1 -31.8 L4.3 -30.35 4.45 -28.75 Q3.7 -26.3 -3.95 -28.25 L-3.75 -28.9 -3.8 -29.8 -3.6 -30.8 0.3 -29.2 Q3.3 -29.15 3.65 -30.15 L3.85 -30.35 4.8 -31.6 4.8 -31.65 5.0 -31.8 5.05 -31.8 5.1 -31.8" fill="url(#gradient20)" fill-rule="evenodd" stroke="none"/>
    <path d="M4.8 -27.45 L4.95 -27.4 Q4.8 -21.5 3.85 -21.05 -0.65 -16.9 -2.1 -19.9 L-2.15 -19.95 -2.75 -21.05 -2.8 -21.65 -2.9 -22.35 -2.75 -22.8 -1.65 -23.6 Q-0.15 -24.8 2.8 -25.75 L4.8 -27.45" fill="url(#gradient21)" fill-rule="evenodd" stroke="none"/>
    <path d="M13.0 -28.4 L13.6 -28.2 13.75 -28.05 13.6 -27.1 13.0 -28.4" fill="url(#gradient22)" fill-rule="evenodd" stroke="none"/>
    <path d="M13.6 -28.2 Q17.7 -26.55 15.65 -23.6 12.0 -21.3 10.8 -24.75 15.95 -22.45 13.6 -27.1 L13.75 -28.05 13.6 -28.2" fill="url(#gradient23)" fill-rule="evenodd" stroke="none"/>
    <path d="M11.1 -30.15 L12.7 -28.85 13.0 -28.4 13.6 -27.1 Q15.95 -22.45 10.8 -24.75 7.15 -26.45 7.55 -28.25 12.05 -25.6 11.1 -30.15" fill="url(#gradient24)" fill-rule="evenodd" stroke="none"/>
    <path d="M2.1 -8.5 Q4.1 -10.15 6.15 -9.35 L7.75 -8.7 7.9 -8.6 7.95 -7.85 3.35 -3.35 Q1.7 -1.85 0.2 -2.25 L0.75 -3.65 Q4.8 -3.7 2.1 -8.5" fill="url(#gradient25)" fill-rule="evenodd" stroke="none"/>
    <path d="M4.95 -27.4 Q10.65 -21.55 2.4 -9.85 L1.1 -7.85 0.85 -7.5 Q-0.9 -7.5 -0.5 -6.25 -2.55 -7.4 -2.45 -8.7 L-2.4 -9.2 -2.5 -14.55 -2.6 -15.4 -2.5 -18.65 -2.15 -19.9 -2.1 -19.9 Q-0.65 -16.9 3.85 -21.05 4.8 -21.5 4.95 -27.4" fill="url(#gradient26)" fill-rule="evenodd" stroke="none"/>
    <path d="M0.2 -2.25 L-0.85 -0.35 -2.25 1.5 Q-4.2 2.65 -6.75 -0.85 -6.6 -3.85 -2.6 -8.65 L-2.45 -8.7 Q-2.55 -7.4 -0.5 -6.25 -0.9 -7.5 0.85 -7.5 L1.1 -7.85 1.25 -7.85 1.4 -7.65 1.3 -5.7 0.75 -3.65 0.2 -2.25" fill="url(#gradient27)" fill-rule="evenodd" stroke="none"/>
    <path d="M1.6 -8.2 L1.4 -7.65 1.25 -7.85 1.6 -8.2" fill="url(#gradient28)" fill-rule="evenodd" stroke="none"/>
    <path d="M2.4 -9.85 L2.0 -8.55 1.6 -8.2 1.25 -7.85 1.1 -7.85 2.4 -9.85" fill="url(#gradient29)" fill-rule="evenodd" stroke="none"/>
    <path d="M2.0 -8.55 L2.1 -8.5 Q4.8 -3.7 0.75 -3.65 L1.3 -5.7 1.4 -7.65 1.6 -8.2 2.0 -8.55 M-2.6 -8.65 L-3.15 -9.65 -2.6 -9.35 -2.4 -9.2 -2.45 -8.7 -2.6 -8.65" fill="url(#gradient30)" fill-rule="evenodd" stroke="none"/>
    <path d="M-5.2 -52.25 L-4.85 -52.6 -4.75 -52.5 -4.9 -52.4 -4.95 -51.95 -4.0 -53.0 Q-5.75 -50.5 -4.1 -48.6 L-4.75 -47.05 Q-4.85 -45.4 -5.1 -45.3 L-5.4 -46.1 -6.0 -45.95 -6.25 -46.2 -6.55 -45.5 -6.8 -46.05 -6.95 -49.0 Q-5.5 -52.4 -5.2 -52.25" fill="url(#gradient31)" fill-rule="evenodd" stroke="none"/>
    <path d="M-0.1 -43.25 L-1.7 -40.95 -2.05 -40.45 -2.9 -39.75 -6.25 -39.85 -6.1 -40.15 -6.1 -40.2 -6.1 -41.4 -5.3 -44.4 -5.05 -45.1 Q-4.45 -45.95 -3.85 -44.4 L-3.8 -43.85 Q-2.55 -43.95 -2.35 -43.55 L-0.4 -43.85 -0.1 -43.7 -0.1 -43.25" fill="url(#gradient32)" fill-rule="evenodd" stroke="none"/>
    <path d="M-8.6 -36.5 L-8.9 -35.95 -9.6 -35.3 -10.35 -32.5 -11.45 -29.8 -11.6 -29.4 -11.95 -29.45 -12.45 -29.1 Q-15.45 -29.55 -15.3 -30.35 L-15.25 -30.55 -14.6 -34.05 Q-12.9 -38.6 -12.4 -42.9 -11.95 -45.25 -8.2 -44.4 L-7.85 -44.15 -7.95 -44.05 -9.0 -44.1 -9.95 -43.15 Q-9.8 -38.1 -8.6 -36.5" fill="url(#gradient33)" fill-rule="evenodd" stroke="none"/>
    <path d="M-7.75 -44.35 L-7.6 -44.65 -7.35 -44.6 -7.65 -44.4 -7.75 -44.35" fill="url(#gradient34)" fill-rule="evenodd" stroke="none"/>
    <path d="M-8.5 -36.45 L-8.6 -36.5 Q-9.8 -38.1 -9.95 -43.15 L-9.0 -44.1 -7.95 -44.05 Q-10.25 -40.3 -8.45 -36.55 L-8.5 -36.45" fill="url(#gradient35)" fill-rule="evenodd" stroke="none"/>
    <path d="M-7.25 -44.6 L-7.25 -44.7 -7.2 -44.75 -7.2 -44.95 -6.95 -45.35 -7.0 -45.4 -6.8 -46.05 -6.55 -45.5 -6.25 -46.2 -6.0 -45.95 -5.4 -46.1 -5.1 -45.3 -5.05 -45.1 -5.3 -44.4 -6.1 -41.4 -6.1 -40.2 -6.55 -40.45 -7.0 -40.5 -7.25 -41.9 -7.25 -44.6" fill="url(#gradient36)" fill-rule="evenodd" stroke="none"/>
    <path d="M-7.2 -44.95 L-7.0 -45.4 -6.95 -45.35 -7.2 -44.95" fill="url(#gradient37)" fill-rule="evenodd" stroke="none"/>
    <path d="M-6.1 -40.2 L-6.1 -40.15 -6.25 -39.85 -6.85 -38.45 -7.3 -36.65 -7.75 -36.9 -8.0 -37.4 -8.25 -39.6 Q-7.9 -41.65 -7.25 -41.9 L-7.0 -40.5 -6.55 -40.45 -6.1 -40.2 M-3.4 -36.85 L-3.15 -37.2 -3.3 -36.75 -3.4 -36.85" fill="url(#gradient38)" fill-rule="evenodd" stroke="none"/>
    <path d="M-6.25 -39.85 L-2.9 -39.75 -2.05 -40.45 -2.35 -38.85 -3.15 -37.2 -3.4 -36.85 -4.5 -35.75 -6.65 -35.9 -6.7 -35.75 -7.0 -35.75 -7.05 -35.45 -7.3 -36.05 -7.3 -36.65 -6.85 -38.45 -6.25 -39.85" fill="url(#gradient39)" fill-rule="evenodd" stroke="none"/>
    <path d="M-15.35 -30.35 L-15.35 -30.45 -15.25 -30.55 -15.3 -30.35 -15.35 -30.35" fill="url(#gradient40)" fill-rule="evenodd" stroke="none"/>
    <path d="M-11.45 -29.8 Q-10.9 -27.35 -13.0 -23.1 L-13.55 -21.85 -13.95 -21.4 -14.7 -21.05 -15.2 -20.7 -15.55 -20.7 -15.95 -21.05 -16.2 -21.3 -16.4 -22.3 Q-16.95 -27.55 -15.35 -30.35 L-15.3 -30.35 Q-15.45 -29.55 -12.45 -29.1 L-11.95 -29.45 -11.6 -29.4 -11.45 -29.8" fill="url(#gradient41)" fill-rule="evenodd" stroke="none"/>
    <path d="M-7.05 -35.45 L-7.0 -35.75 -6.7 -35.75 -6.65 -35.9 -4.5 -35.75 -3.4 -36.85 -3.3 -36.75 -3.25 -35.55 -3.5 -34.65 -3.65 -34.1 -4.5 -32.7 -4.8 -32.4 -5.3 -32.1 Q-6.15 -32.05 -6.65 -32.4 L-6.7 -32.45 -6.85 -32.7 -7.2 -33.65 -7.05 -35.45" fill="url(#gradient42)" fill-rule="evenodd" stroke="none"/>
    <path d="M-8.0 -33.3 L-8.5 -35.0 -8.5 -36.45 -8.45 -36.55 -8.0 -37.4 -7.75 -36.9 -7.3 -36.65 -7.3 -36.05 -7.05 -35.45 -7.2 -33.65 -6.85 -32.7 -6.7 -32.45 -7.25 -32.5 -7.5 -32.7 -8.0 -33.3 M-3.5 -34.65 L-3.5 -33.85 -3.75 -33.0 -4.2 -32.4 -4.8 -32.4 -4.5 -32.7 -3.65 -34.1 -3.5 -34.65" fill="url(#gradient43)" fill-rule="evenodd" stroke="none"/>
    <path d="M-3.75 -33.0 L-3.6 -32.15 -3.7 -31.45 -4.2 -29.5 Q-4.55 -27.75 -6.9 -29.2 L-6.95 -29.4 -7.25 -31.35 Q-7.1 -32.5 -6.65 -32.4 -6.15 -32.05 -5.3 -32.1 L-4.8 -32.4 -4.2 -32.4 -3.75 -33.0" fill="url(#gradient44)" fill-rule="evenodd" stroke="none"/>
    <path d="M-7.8 -30.25 L-8.4 -31.9 Q-8.5 -32.5 -8.0 -33.3 L-7.5 -32.7 -7.25 -32.5 -6.7 -32.45 -6.65 -32.4 Q-7.1 -32.5 -7.25 -31.35 L-6.95 -29.4 -7.65 -30.0 -7.75 -30.2 -7.8 -30.25 M-3.6 -30.8 L-3.8 -29.8 -3.95 -29.55 -4.2 -29.5 -3.7 -31.45 -3.6 -30.8" fill="url(#gradient45)" fill-rule="evenodd" stroke="none"/>
    <path d="M-6.95 -29.4 L-6.9 -29.2 -6.95 -27.1 Q-6.9 -26.45 -6.05 -25.9 L-6.7 -26.05 -7.3 -26.55 -7.7 -27.15 -7.95 -27.9 -8.0 -27.95 -8.15 -28.6 -8.05 -29.35 -7.65 -30.0 -6.95 -29.4 M-4.0 -26.8 L-4.45 -26.05 -4.75 -25.9 -4.9 -25.95 -4.85 -26.1 -4.1 -27.45 -3.95 -28.2 -3.8 -27.45 -4.0 -26.8" fill="url(#gradient46)" fill-rule="evenodd" stroke="none"/>
    <path d="M-7.8 -30.2 L-7.8 -30.25 -7.75 -30.2 -7.8 -30.2" fill="url(#gradient47)" fill-rule="evenodd" stroke="none"/>
    <path d="M-4.35 -15.65 L-4.3 -16.2 -4.3 -16.25 Q-3.6 -17.15 -3.75 -18.7 L-4.45 -21.65 -3.75 -22.1 -3.2 -22.05 -3.05 -21.9 -2.8 -21.65 -2.75 -21.05 -2.15 -19.95 -2.15 -19.9 -2.5 -18.65 -2.6 -15.4 -2.5 -14.55 Q-3.7 -14.75 -3.95 -15.15 L-4.35 -15.6 -4.35 -15.65 M-8.5 -22.25 L-8.75 -22.65 -8.6 -22.75 -8.9 -23.0 -9.45 -23.65 -9.75 -25.4 Q-9.15 -24.5 -9.0 -23.4 L-8.35 -22.45 -8.5 -22.25 M-9.8 -25.85 Q-9.85 -28.15 -7.8 -30.2 L-7.75 -30.2 -7.65 -30.0 -8.05 -29.35 -8.25 -29.1 -8.45 -29.1 -9.35 -27.45 -9.75 -25.85 -9.8 -25.85" fill="url(#gradient48)" fill-rule="evenodd" stroke="none"/>
    <path d="M-9.75 -25.4 L-9.75 -25.5 -9.8 -25.65 -9.8 -25.8 -9.75 -25.8 -9.75 -25.85 -9.35 -27.45 -8.45 -29.1 -8.25 -29.1 -8.05 -29.35 -8.15 -28.6 -8.0 -27.95 -7.95 -27.9 -7.7 -27.15 -7.3 -26.55 -7.6 -26.25 -7.8 -25.75 -7.85 -24.7 -7.8 -24.65 -7.8 -24.55 -7.75 -24.35 -7.75 -24.3 -7.7 -24.2 -7.25 -23.1 -8.35 -22.45 -9.0 -23.4 Q-9.15 -24.5 -9.75 -25.4 M-4.65 -22.6 L-4.3 -22.2 -3.75 -22.1 -4.45 -21.65 -4.65 -22.6" fill="url(#gradient49)" fill-rule="evenodd" stroke="none"/>
    <path d="M-9.8 -25.8 L-9.8 -25.85 -9.75 -25.85 -9.75 -25.8 -9.8 -25.8" fill="url(#gradient50)" fill-rule="evenodd" stroke="none"/>
    <path d="M-7.3 -26.55 L-6.7 -26.05 -6.05 -25.9 -5.55 -25.8 -4.85 -26.1 -4.9 -25.95 -4.75 -25.9 -4.45 -26.05 -4.0 -26.8 -4.0 -25.8 -4.3 -25.95 Q-5.25 -25.05 -6.05 -25.7 L-6.65 -25.4 -6.65 -25.15 -6.9 -24.85 -6.85 -22.75 -7.25 -23.1 -7.7 -24.2 -7.7 -24.3 -7.75 -24.3 -7.75 -24.35 -7.8 -24.55 -7.8 -24.65 -7.85 -24.7 -7.8 -25.75 -7.6 -26.25 -7.3 -26.55 M-4.75 -22.6 L-4.3 -23.4 -4.05 -24.4 -4.25 -23.1 -4.65 -22.6 -4.75 -22.6" fill="url(#gradient51)" fill-rule="evenodd" stroke="none"/>
    <path d="M-6.85 -22.75 L-6.9 -24.85 -6.65 -25.15 -6.65 -25.4 -6.05 -25.7 Q-5.25 -25.05 -4.3 -25.95 L-4.0 -25.8 -4.05 -24.4 -4.3 -23.4 -4.75 -22.6 Q-5.9 -21.25 -6.85 -22.75" fill="url(#gradient52)" fill-rule="evenodd" stroke="none"/>
    <path d="M-3.8 -29.8 L-3.75 -28.9 -3.95 -28.25 -3.95 -28.2 -4.1 -27.45 -4.85 -26.1 -5.55 -25.8 -6.05 -25.9 Q-6.9 -26.45 -6.95 -27.1 L-6.9 -29.2 Q-4.55 -27.75 -4.2 -29.5 L-3.95 -29.55 -3.8 -29.8" fill="url(#gradient53)" fill-rule="evenodd" stroke="none"/>
    <path d="M-4.35 -16.2 Q-6.9 -14.4 -9.1 -17.4 -10.45 -20.95 -8.5 -22.25 L-8.35 -22.45 -7.25 -23.1 -6.85 -22.75 Q-5.9 -21.25 -4.75 -22.6 L-4.65 -22.6 -4.45 -21.65 -3.75 -18.7 Q-3.6 -17.15 -4.3 -16.25 L-4.35 -16.2" fill="url(#gradient54)" fill-rule="evenodd" stroke="none"/>
    <path d="M-3.05 -21.9 L-3.0 -21.9 -2.9 -22.35 -2.8 -21.65 -3.05 -21.9" fill="url(#gradient55)" fill-rule="evenodd" stroke="none"/>
    <path d="M-2.1 -19.9 L-2.15 -19.9 -2.15 -19.95 -2.1 -19.9" fill="url(#gradient56)" fill-rule="evenodd" stroke="none"/>
    <path d="M-7.75 -24.3 L-7.7 -24.3 -7.7 -24.2 -7.75 -24.3" fill="url(#gradient57)" fill-rule="evenodd" stroke="none"/>
    <path d="M-8.75 -22.65 L-8.9 -23.0 -8.6 -22.75 -8.75 -22.65" fill="url(#gradient58)" fill-rule="evenodd" stroke="none"/>
    <path d="M-4.4 -15.6 L-4.35 -15.65 -4.35 -15.6 -4.4 -15.6 M-4.3 -16.2 L-4.35 -16.2 -4.3 -16.25 -4.3 -16.2" fill="url(#gradient59)" fill-rule="evenodd" stroke="none"/>
    <path d="M-3.15 -9.65 Q-5.7 -12.95 -4.4 -15.6 L-4.35 -15.6 -3.95 -15.15 Q-3.7 -14.75 -2.5 -14.55 L-2.4 -9.2 -2.6 -9.35 -3.15 -9.65" fill="url(#gradient60)" fill-rule="evenodd" stroke="none"/>
    <path d="M-13.0 -23.1 Q-10.25 -21.95 -11.7 -19.35 L-11.75 -20.35 -12.35 -21.05 -13.55 -21.85 -13.0 -23.1" fill="url(#gradient61)" fill-rule="evenodd" stroke="none"/>
    <path d="M-11.7 -19.35 Q-13.1 -16.75 -16.05 -18.1 -18.2 -20.5 -16.4 -22.3 L-16.2 -21.3 -15.95 -21.05 -15.55 -20.7 -15.2 -20.7 -14.7 -21.05 -13.95 -21.4 -13.55 -21.85 -12.35 -21.05 -11.75 -20.35 -11.7 -19.35" fill="url(#gradient62)" fill-rule="evenodd" stroke="none"/>
    <path d="M-7.4 9.3 Q-5.8 8.7 -5.05 12.4 L-6.65 13.65 -8.8 14.7 Q-16.6 11.5 -12.15 8.9 L-12.1 8.85 Q-9.65 9.6 -8.6 11.75 L-7.75 11.3 -7.4 9.3" fill="url(#gradient63)" fill-rule="evenodd" stroke="none"/>
    <path d="M-2.25 1.5 Q-6.1 7.8 -7.25 8.55 L-7.4 9.3 -7.75 11.3 -8.6 11.75 Q-9.65 9.6 -12.1 8.85 -11.6 7.65 -9.45 4.85 L-6.75 -0.85 Q-4.2 2.65 -2.25 1.5" fill="url(#gradient64)" fill-rule="evenodd" stroke="none"/>
  </g>
  <defs>
    <radialGradient cx="0" cy="0" gradientTransform="matrix(0.0096, 0.0, 0.0, 0.0096, -1.6, -50.6)" gradientUnits="userSpaceOnUse" id="gradient0" r="819.2" spreadMethod="pad">
      <stop offset="0.0" stop-color="#fff248"/>
      <stop offset="1.0" stop-color="#aca130"/>
    </radialGradient>
    <radialGradient cx="0" cy="0" gradientTransform="matrix(0.0038, 0.0, 0.0, 0.0038, 3.65, -54.7)" gradientUnits="userSpaceOnUse" id="gradient1" r="819.2" spreadMethod="pad">
      <stop offset="0.0" stop-color="#a39a2e"/>
      <stop offset="1.0" stop-color="#6c661e"/>
    </radialGradient>
    <radialGradient cx="0" cy="0" gradientTransform="matrix(0.0114, 0.0, 0.0, 0.0114, 3.5, -53.15)" gradientUnits="userSpaceOnUse" id="gradient2" r="819.2" spreadMethod="pad">
      <stop offset="0.0" stop-color="#fffc4b"/>
      <stop offset="1.0" stop-color="#aaa030"/>
    </radialGradient>
    <radialGradient cx="0" cy="0" gradientTransform="matrix(0.0076, 0.0, 0.0, 0.0076, 4.9, -49.35)" gradientUnits="userSpaceOnUse" id="gradient3" r="819.2" spreadMethod="pad">
      <stop offset="0.0" stop-color="#fffc4b"/>
      <stop offset="1.0" stop-color="#aba12f"/>
    </radialGradient>
    <radialGradient cx="0" cy="0" gradientTransform="matrix(0.0071, 0.0, 0.0, 0.0071, -1.35, -48.35)" gradientUnits="userSpaceOnUse" id="gradient4" r="819.2" spreadMethod="pad">
      <stop offset="0.0" stop-color="#fff549"/>
      <stop offset="1.0" stop-color="#baaf34"/>
    </radialGradient>
    <radialGradient cx="0" cy="0" gradientTransform="matrix(0.0025, 0.0, 0.0, 0.0025, 1.0, -45.65)" gradientUnits="userSpaceOnUse" id="gradient5" r="819.2" spreadMethod="pad">
      <stop offset="0.0" stop-color="#f2ab63"/>
      <stop offset="1.0" stop-color="#e3a05d"/>
    </radialGradient>
    <radialGradient cx="0" cy="0" gradientTransform="matrix(0.004, 0.0, 0.0, 0.004, 2.35, -44.05)" gradientUnits="userSpaceOnUse" id="gradient6" r="819.2" spreadMethod="pad">
      <stop offset="0.0" stop-color="#ce9155"/>
      <stop offset="1.0" stop-color="#a97746"/>
    </radialGradient>
    <radialGradient cx="0" cy="0" gradientTransform="matrix(0.0023, 0.0, 0.0, 0.0023, 1.0, -45.65)" gradientUnits="userSpaceOnUse" id="gradient7" r="819.2" spreadMethod="pad">
      <stop offset="0.0" stop-color="#f2ab63"/>
      <stop offset="1.0" stop-color="#9b6d40"/>
    </radialGradient>
    <radialGradient cx="0" cy="0" gradientTransform="matrix(0.0063, 0.0, 0.0, 0.0063, -1.65, -40.95)" gradientUnits="userSpaceOnUse" id="gradient8" r="819.2" spreadMethod="pad">
      <stop offset="0.0" stop-color="#7e7272"/>
      <stop offset="1.0" stop-color="#5e5656"/>
    </radialGradient>
    <radialGradient cx="0" cy="0" gradientTransform="matrix(0.0025, 0.0, 0.0, 0.0025, 1.0, -45.65)" gradientUnits="userSpaceOnUse" id="gradient9" r="819.2" spreadMethod="pad">
      <stop offset="0.0" stop-color="#eba661"/>
      <stop offset="1.0" stop-color="#e19f5c"/>
    </radialGradient>
    <radialGradient cx="0" cy="0" gradientTransform="matrix(9.0E-4, 0.0, 0.0, 9.0E-4, 0.95, -42.2)" gradientUnits="userSpaceOnUse" id="gradient10" r="819.2" spreadMethod="pad">
      <stop offset="0.0" stop-color="#35536f"/>
      <stop offset="1.0" stop-color="#2b435a"/>
    </radialGradient>
    <radialGradient cx="0" cy="0" gradientTransform="matrix(0.0058, 0.0, 0.0, 0.0058, -0.85, -42.7)" gradientUnits="userSpaceOnUse" id="gradient11" r="819.2" spreadMethod="pad">
      <stop offset="0.0" stop-color="#2b2828"/>
      <stop offset="1.0" stop-color="#242020"/>
    </radialGradient>
    <radialGradient cx="0" cy="0" gradientTransform="matrix(0.0213, 0.0, 0.0, 0.0213, -4.55, -27.5)" gradientUnits="userSpaceOnUse" id="gradient12" r="819.2" spreadMethod="pad">
      <stop offset="0.0" stop-color="#ffffff"/>
      <stop offset="1.0" stop-color="#919191"/>
    </radialGradient>
    <radialGradient cx="0" cy="0" gradientTransform="matrix(0.0065, 0.0, 0.0, 0.0065, 3.25, -38.55)" gradientUnits="userSpaceOnUse" id="gradient13" r="819.2" spreadMethod="pad">
      <stop offset="0.0" stop-color="#928585"/>
      <stop offset="1.0" stop-color="#453f3f"/>
    </radialGradient>
    <radialGradient cx="0" cy="0" gradientTransform="matrix(0.0131, 0.0, 0.0, 0.0131, 5.6, -36.4)" gradientUnits="userSpaceOnUse" id="gradient14" r="819.2" spreadMethod="pad">
      <stop offset="0.0" stop-color="#ffd77d"/>
      <stop offset="1.0" stop-color="#9a6c3f"/>
    </radialGradient>
    <radialGradient cx="0" cy="0" gradientTransform="matrix(0.0011, 0.0, 0.0, 0.0011, 6.8, -39.05)" gradientUnits="userSpaceOnUse" id="gradient15" r="819.2" spreadMethod="pad">
      <stop offset="0.0" stop-color="#a4a4a4"/>
      <stop offset="1.0" stop-color="#8c8c8c"/>
    </radialGradient>
    <radialGradient cx="0" cy="0" gradientTransform="matrix(0.0084, 0.0, 0.0, 0.0084, 1.3, -37.45)" gradientUnits="userSpaceOnUse" id="gradient16" r="819.2" spreadMethod="pad">
      <stop offset="0.0" stop-color="#8d8080"/>
      <stop offset="1.0" stop-color="#494343"/>
    </radialGradient>
    <radialGradient cx="0" cy="0" gradientTransform="matrix(0.0092, 0.0, 0.0, 0.0092, 4.85, -31.95)" gradientUnits="userSpaceOnUse" id="gradient17" r="819.2" spreadMethod="pad">
      <stop offset="0.0" stop-color="#fefefe"/>
      <stop offset="1.0" stop-color="#dcdcdc"/>
    </radialGradient>
    <radialGradient cx="0" cy="0" gradientTransform="matrix(0.0097, 0.0, 0.0, 0.0097, 6.35, -39.25)" gradientUnits="userSpaceOnUse" id="gradient18" r="819.2" spreadMethod="pad">
      <stop offset="0.0" stop-color="#2c1f12"/>
      <stop offset="1.0" stop-color="#261b10"/>
    </radialGradient>
    <radialGradient cx="0" cy="0" gradientTransform="matrix(0.0018, 0.0, 0.0, 0.0018, 5.1, -32.0)" gradientUnits="userSpaceOnUse" id="gradient19" r="819.2" spreadMethod="pad">
      <stop offset="0.0" stop-color="#080c10"/>
      <stop offset="1.0" stop-color="#080c10"/>
    </radialGradient>
    <radialGradient cx="0" cy="0" gradientTransform="matrix(0.0116, 0.0, 0.0, 0.0116, -3.55, -28.1)" gradientUnits="userSpaceOnUse" id="gradient20" r="819.2" spreadMethod="pad">
      <stop offset="0.0" stop-color="#365572"/>
      <stop offset="1.0" stop-color="#24394c"/>
    </radialGradient>
    <radialGradient cx="0" cy="0" gradientTransform="matrix(0.0072, 0.0, 0.0, 0.0072, 1.1, -24.6)" gradientUnits="userSpaceOnUse" id="gradient21" r="819.2" spreadMethod="pad">
      <stop offset="0.0" stop-color="#998c8c"/>
      <stop offset="1.0" stop-color="#504949"/>
    </radialGradient>
    <radialGradient cx="0" cy="0" gradientTransform="matrix(0.0014, 0.0, 0.0, 0.0014, 13.15, -27.45)" gradientUnits="userSpaceOnUse" id="gradient22" r="819.2" spreadMethod="pad">
      <stop offset="0.0" stop-color="#ffc170"/>
      <stop offset="1.0" stop-color="#7c5733"/>
    </radialGradient>
    <radialGradient cx="0" cy="0" gradientTransform="matrix(0.0041, 0.0, 0.0, 0.0041, 13.7, -26.0)" gradientUnits="userSpaceOnUse" id="gradient23" r="819.2" spreadMethod="pad">
      <stop offset="0.0" stop-color="#ffec89"/>
      <stop offset="1.0" stop-color="#a27243"/>
    </radialGradient>
    <radialGradient cx="0" cy="0" gradientTransform="matrix(0.0082, 0.0, 0.0, 0.0082, 8.9, -28.15)" gradientUnits="userSpaceOnUse" id="gradient24" r="819.2" spreadMethod="pad">
      <stop offset="0.0" stop-color="#ffd37b"/>
      <stop offset="1.0" stop-color="#896038"/>
    </radialGradient>
    <radialGradient cx="0" cy="0" gradientTransform="matrix(0.008, 0.0, 0.0, 0.008, 2.1, -5.55)" gradientUnits="userSpaceOnUse" id="gradient25" r="819.2" spreadMethod="pad">
      <stop offset="0.0" stop-color="#ffdf82"/>
      <stop offset="1.0" stop-color="#df9d5b"/>
    </radialGradient>
    <radialGradient cx="0" cy="0" gradientTransform="matrix(0.0252, 0.0, 0.0, 0.0252, 3.75, -25.1)" gradientUnits="userSpaceOnUse" id="gradient26" r="819.2" spreadMethod="pad">
      <stop offset="0.0" stop-color="#8c7f7f"/>
      <stop offset="1.0" stop-color="#5f5656"/>
    </radialGradient>
    <radialGradient cx="0" cy="0" gradientTransform="matrix(0.012, 0.0, 0.0, 0.012, -1.0, -6.85)" gradientUnits="userSpaceOnUse" id="gradient27" r="819.2" spreadMethod="pad">
      <stop offset="0.0" stop-color="#fff38d"/>
      <stop offset="1.0" stop-color="#c48a50"/>
    </radialGradient>
    <radialGradient cx="0" cy="0" gradientTransform="matrix(0.0037, 0.0, 0.0, 0.0037, 0.6, -5.55)" gradientUnits="userSpaceOnUse" id="gradient28" r="819.2" spreadMethod="pad">
      <stop offset="0.0" stop-color="#8a6139"/>
      <stop offset="1.0" stop-color="#7c5733"/>
    </radialGradient>
    <radialGradient cx="0" cy="0" gradientTransform="matrix(0.0032, 0.0, 0.0, 0.0032, 0.5, -8.2)" gradientUnits="userSpaceOnUse" id="gradient29" r="819.2" spreadMethod="pad">
      <stop offset="0.0" stop-color="#ce9154"/>
      <stop offset="1.0" stop-color="#90663b"/>
    </radialGradient>
    <radialGradient cx="0" cy="0" gradientTransform="matrix(0.0095, 0.0, 0.0, 0.0095, 1.7, -5.0)" gradientUnits="userSpaceOnUse" id="gradient30" r="819.2" spreadMethod="pad">
      <stop offset="0.0" stop-color="#b6814b"/>
      <stop offset="1.0" stop-color="#94683d"/>
    </radialGradient>
    <radialGradient cx="0" cy="0" gradientTransform="matrix(0.009, 0.0, 0.0, 0.009, -3.7, -47.15)" gradientUnits="userSpaceOnUse" id="gradient31" r="819.2" spreadMethod="pad">
      <stop offset="0.0" stop-color="#fced47"/>
      <stop offset="1.0" stop-color="#a79d2e"/>
    </radialGradient>
    <radialGradient cx="0" cy="0" gradientTransform="matrix(0.0093, 0.0, 0.0, 0.0093, -3.3, -46.7)" gradientUnits="userSpaceOnUse" id="gradient32" r="819.2" spreadMethod="pad">
      <stop offset="0.0" stop-color="#fff148"/>
      <stop offset="1.0" stop-color="#bdb235"/>
    </radialGradient>
    <radialGradient cx="0" cy="0" gradientTransform="matrix(0.0172, 0.0, 0.0, 0.0172, -10.25, -41.5)" gradientUnits="userSpaceOnUse" id="gradient33" r="819.2" spreadMethod="pad">
      <stop offset="0.0" stop-color="#ffdb80"/>
      <stop offset="1.0" stop-color="#dc9b5a"/>
    </radialGradient>
    <radialGradient cx="0" cy="0" gradientTransform="matrix(0.0043, 0.0, 0.0, 0.0043, -5.85, -44.15)" gradientUnits="userSpaceOnUse" id="gradient34" r="819.2" spreadMethod="pad">
      <stop offset="0.0" stop-color="#8b7f7f"/>
      <stop offset="1.0" stop-color="#675e5e"/>
    </radialGradient>
    <radialGradient cx="0" cy="0" gradientTransform="matrix(0.0073, 0.0, 0.0, 0.0073, -8.4, -41.1)" gradientUnits="userSpaceOnUse" id="gradient35" r="819.2" spreadMethod="pad">
      <stop offset="0.0" stop-color="#7e7272"/>
      <stop offset="1.0" stop-color="#534c4c"/>
    </radialGradient>
    <radialGradient cx="0" cy="0" gradientTransform="matrix(0.0071, 0.0, 0.0, 0.0071, -4.7, -45.65)" gradientUnits="userSpaceOnUse" id="gradient36" r="819.2" spreadMethod="pad">
      <stop offset="0.0" stop-color="#fff047"/>
      <stop offset="1.0" stop-color="#bcb034"/>
    </radialGradient>
    <radialGradient cx="0" cy="0" gradientTransform="matrix(0.0054, 0.0, 0.0, 0.0054, -7.2, -45.2)" gradientUnits="userSpaceOnUse" id="gradient37" r="819.2" spreadMethod="pad">
      <stop offset="0.0" stop-color="#222009"/>
      <stop offset="1.0" stop-color="#222009"/>
    </radialGradient>
    <radialGradient cx="0" cy="0" gradientTransform="matrix(0.007, 0.0, 0.0, 0.007, -5.35, -41.4)" gradientUnits="userSpaceOnUse" id="gradient38" r="819.2" spreadMethod="pad">
      <stop offset="0.0" stop-color="#fffb4b"/>
      <stop offset="1.0" stop-color="#b3a831"/>
    </radialGradient>
    <radialGradient cx="0" cy="0" gradientTransform="matrix(0.0068, 0.0, 0.0, 0.0068, -4.65, -40.35)" gradientUnits="userSpaceOnUse" id="gradient39" r="819.2" spreadMethod="pad">
      <stop offset="0.0" stop-color="#fffb4b"/>
      <stop offset="1.0" stop-color="#b6aa33"/>
    </radialGradient>
    <radialGradient cx="0" cy="0" gradientTransform="matrix(0.0078, 0.0, 0.0, 0.0078, -14.15, -35.8)" gradientUnits="userSpaceOnUse" id="gradient40" r="819.2" spreadMethod="pad">
      <stop offset="0.0" stop-color="#be864e"/>
      <stop offset="1.0" stop-color="#261b10"/>
    </radialGradient>
    <radialGradient cx="0" cy="0" gradientTransform="matrix(0.0128, 0.0, 0.0, 0.0128, -13.5, -30.2)" gradientUnits="userSpaceOnUse" id="gradient41" r="819.2" spreadMethod="pad">
      <stop offset="0.0" stop-color="#ffe183"/>
      <stop offset="1.0" stop-color="#ab7946"/>
    </radialGradient>
    <radialGradient cx="0" cy="0" gradientTransform="matrix(0.0065, 0.0, 0.0, 0.0065, -5.9, -37.35)" gradientUnits="userSpaceOnUse" id="gradient42" r="819.2" spreadMethod="pad">
      <stop offset="0.0" stop-color="#fff84a"/>
      <stop offset="1.0" stop-color="#7c7522"/>
    </radialGradient>
    <radialGradient cx="0" cy="0" gradientTransform="matrix(0.0065, 0.0, 0.0, 0.0065, -6.35, -37.25)" gradientUnits="userSpaceOnUse" id="gradient43" r="819.2" spreadMethod="pad">
      <stop offset="0.0" stop-color="#fff448"/>
      <stop offset="1.0" stop-color="#988f2a"/>
    </radialGradient>
    <radialGradient cx="0" cy="0" gradientTransform="matrix(0.005, 0.0, 0.0, 0.005, -6.45, -32.4)" gradientUnits="userSpaceOnUse" id="gradient44" r="819.2" spreadMethod="pad">
      <stop offset="0.0" stop-color="#fffb4b"/>
      <stop offset="1.0" stop-color="#8a8126"/>
    </radialGradient>
    <radialGradient cx="0" cy="0" gradientTransform="matrix(0.0053, 0.0, 0.0, 0.0053, -6.75, -32.9)" gradientUnits="userSpaceOnUse" id="gradient45" r="819.2" spreadMethod="pad">
      <stop offset="0.0" stop-color="#faeb46"/>
      <stop offset="1.0" stop-color="#938a29"/>
    </radialGradient>
    <radialGradient cx="0" cy="0" gradientTransform="matrix(0.0049, 0.0, 0.0, 0.0049, -6.55, -29.6)" gradientUnits="userSpaceOnUse" id="gradient46" r="819.2" spreadMethod="pad">
      <stop offset="0.0" stop-color="#fff148"/>
      <stop offset="1.0" stop-color="#837b25"/>
    </radialGradient>
    <radialGradient cx="0" cy="0" gradientTransform="matrix(8.0E-4, 0.0, 0.0, 8.0E-4, -7.7, -30.1)" gradientUnits="userSpaceOnUse" id="gradient47" r="819.2" spreadMethod="pad">
      <stop offset="0.0" stop-color="#222009"/>
      <stop offset="1.0" stop-color="#222009"/>
    </radialGradient>
    <radialGradient cx="0" cy="0" gradientTransform="matrix(0.0175, 0.0, 0.0, 0.0175, -8.5, -26.9)" gradientUnits="userSpaceOnUse" id="gradient48" r="819.2" spreadMethod="pad">
      <stop offset="0.0" stop-color="#6c6262"/>
      <stop offset="1.0" stop-color="#443e3e"/>
    </radialGradient>
    <radialGradient cx="0" cy="0" gradientTransform="matrix(0.0079, 0.0, 0.0, 0.0079, -6.6, -27.85)" gradientUnits="userSpaceOnUse" id="gradient49" r="819.2" spreadMethod="pad">
      <stop offset="0.0" stop-color="#948686"/>
      <stop offset="1.0" stop-color="#464040"/>
    </radialGradient>
    <radialGradient cx="0" cy="0" gradientTransform="matrix(0.0055, 0.0, 0.0, 0.0055, -9.55, -24.85)" gradientUnits="userSpaceOnUse" id="gradient50" r="819.2" spreadMethod="pad">
      <stop offset="0.0" stop-color="#4f4848"/>
      <stop offset="1.0" stop-color="#121010"/>
    </radialGradient>
    <radialGradient cx="0" cy="0" gradientTransform="matrix(0.0049, 0.0, 0.0, 0.0049, -4.9, -26.25)" gradientUnits="userSpaceOnUse" id="gradient51" r="819.2" spreadMethod="pad">
      <stop offset="0.0" stop-color="#ffff4d"/>
      <stop offset="1.0" stop-color="#8c8327"/>
    </radialGradient>
    <radialGradient cx="0" cy="0" gradientTransform="matrix(0.0044, 0.0, 0.0, 0.0044, -6.15, -25.6)" gradientUnits="userSpaceOnUse" id="gradient52" r="819.2" spreadMethod="pad">
      <stop offset="0.0" stop-color="#ffff4e"/>
      <stop offset="1.0" stop-color="#787021"/>
    </radialGradient>
    <radialGradient cx="0" cy="0" gradientTransform="matrix(0.0046, 0.0, 0.0, 0.0046, -6.25, -29.65)" gradientUnits="userSpaceOnUse" id="gradient53" r="819.2" spreadMethod="pad">
      <stop offset="0.0" stop-color="#ffff4c"/>
      <stop offset="1.0" stop-color="#736c20"/>
    </radialGradient>
    <radialGradient cx="0" cy="0" gradientTransform="matrix(0.0084, 0.0, 0.0, 0.0084, -5.75, -22.45)" gradientUnits="userSpaceOnUse" id="gradient54" r="819.2" spreadMethod="pad">
      <stop offset="0.0" stop-color="#ffff50"/>
      <stop offset="1.0" stop-color="#7c7422"/>
    </radialGradient>
    <radialGradient cx="0" cy="0" gradientTransform="matrix(0.0282, 0.0, 0.0, 0.0282, -3.15, -22.0)" gradientUnits="userSpaceOnUse" id="gradient55" r="819.2" spreadMethod="pad">
      <stop offset="0.0" stop-color="#828282"/>
      <stop offset="1.0" stop-color="#2a2a2a"/>
    </radialGradient>
    <radialGradient cx="0" cy="0" gradientTransform="matrix(0.0041, 0.0, 0.0, 0.0041, -1.8, -19.5)" gradientUnits="userSpaceOnUse" id="gradient56" r="819.2" spreadMethod="pad">
      <stop offset="0.0" stop-color="#121010"/>
      <stop offset="1.0" stop-color="#121010"/>
    </radialGradient>
    <radialGradient cx="0" cy="0" gradientTransform="matrix(0.0013, 0.0, 0.0, 0.0013, -7.95, -25.15)" gradientUnits="userSpaceOnUse" id="gradient57" r="819.2" spreadMethod="pad">
      <stop offset="0.0" stop-color="#a99f2f"/>
      <stop offset="1.0" stop-color="#928a29"/>
    </radialGradient>
    <radialGradient cx="0" cy="0" gradientTransform="matrix(0.0141, 0.0, 0.0, 0.0141, -9.9, -26.2)" gradientUnits="userSpaceOnUse" id="gradient58" r="819.2" spreadMethod="pad">
      <stop offset="0.0" stop-color="#575050"/>
      <stop offset="1.0" stop-color="#121010"/>
    </radialGradient>
    <radialGradient cx="0" cy="0" gradientTransform="matrix(0.0026, 0.0, 0.0, 0.0026, -4.25, -17.1)" gradientUnits="userSpaceOnUse" id="gradient59" r="819.2" spreadMethod="pad">
      <stop offset="0.0" stop-color="#121010"/>
      <stop offset="1.0" stop-color="#121010"/>
    </radialGradient>
    <radialGradient cx="0" cy="0" gradientTransform="matrix(0.0079, 0.0, 0.0, 0.0079, -3.05, -15.7)" gradientUnits="userSpaceOnUse" id="gradient60" r="819.2" spreadMethod="pad">
      <stop offset="0.0" stop-color="#ffea88"/>
      <stop offset="1.0" stop-color="#8f653b"/>
    </radialGradient>
    <radialGradient cx="0" cy="0" gradientTransform="matrix(0.0037, 0.0, 0.0, 0.0037, -13.45, -22.05)" gradientUnits="userSpaceOnUse" id="gradient61" r="819.2" spreadMethod="pad">
      <stop offset="0.0" stop-color="#ffed8a"/>
      <stop offset="1.0" stop-color="#aa7846"/>
    </radialGradient>
    <radialGradient cx="0" cy="0" gradientTransform="matrix(0.0037, 0.0, 0.0, 0.0037, -14.55, -20.75)" gradientUnits="userSpaceOnUse" id="gradient62" r="819.2" spreadMethod="pad">
      <stop offset="0.0" stop-color="#ffed8a"/>
      <stop offset="1.0" stop-color="#b07c48"/>
    </radialGradient>
    <radialGradient cx="0" cy="0" gradientTransform="matrix(0.0092, 0.0, 0.0, 0.0092, -12.55, 10.8)" gradientUnits="userSpaceOnUse" id="gradient63" r="819.2" spreadMethod="pad">
      <stop offset="0.0" stop-color="#fffb92"/>
      <stop offset="1.0" stop-color="#c88d52"/>
    </radialGradient>
    <radialGradient cx="0" cy="0" gradientTransform="matrix(0.0165, 0.0, 0.0, 0.0165, -10.8, 11.45)" gradientUnits="userSpaceOnUse" id="gradient64" r="819.2" spreadMethod="pad">
      <stop offset="0.0" stop-color="#ffdf82"/>
      <stop offset="1.0" stop-color="#ad7a47"/>
    </radialGradient>
  </defs>
</svg>
