<?xml version="1.0" encoding="UTF-8" standalone="no"?>
<svg xmlns:ffdec="https://www.free-decompiler.com/flash" xmlns:xlink="http://www.w3.org/1999/xlink" ffdec:objectType="shape" height="63.9px" width="22.1px" xmlns="http://www.w3.org/2000/svg">
  <g transform="matrix(1.0, 0.0, 0.0, 1.0, 9.45, 57.5)">
    <path d="M5.7 -56.25 L4.35 -56.9 2.85 -57.05 Q5.2 -58.25 5.7 -56.25" fill="url(#gradient0)" fill-rule="evenodd" stroke="none"/>
    <path d="M-2.5 -49.65 Q-4.15 -51.55 -2.3 -54.0 L-2.6 -53.85 -2.55 -53.75 -3.3 -52.95 -3.05 -53.5 -3.15 -53.6 -3.45 -53.25 Q-0.55 -57.4 2.85 -57.05 L4.35 -56.9 5.7 -56.25 6.3 -55.8 6.55 -55.65 6.85 -55.4 7.2 -54.3 7.35 -52.65 6.8 -50.6 Q5.85 -48.25 5.25 -47.6 L4.45 -47.1 4.8 -47.45 5.0 -48.1 4.2 -47.8 Q2.95 -49.7 2.95 -49.3 2.4 -49.05 1.65 -49.75 L0.8 -49.55 0.6 -50.4 0.15 -50.8 -0.6 -50.3 -0.95 -50.25 -1.5 -50.45 Q-1.7 -49.65 -2.5 -49.65" fill="url(#gradient1)" fill-rule="evenodd" stroke="none"/>
    <path d="M7.35 -52.65 L7.2 -54.3 6.85 -55.4 6.55 -55.65 6.3 -55.8 8.8 -54.85 9.85 -52.65 Q10.35 -45.75 8.85 -45.9 9.25 -48.4 8.05 -50.05 L8.05 -51.75 Q7.9 -52.65 7.35 -52.65" fill="url(#gradient2)" fill-rule="evenodd" stroke="none"/>
    <path d="M5.25 -47.6 Q5.85 -48.25 6.8 -50.6 L7.35 -52.65 Q7.9 -52.65 8.05 -51.75 L8.05 -50.05 7.05 -47.75 Q5.3 -45.5 5.15 -45.65 L4.2 -44.95 3.75 -44.65 3.75 -44.8 3.95 -45.05 4.05 -45.25 4.95 -46.55 5.25 -47.6" fill="url(#gradient3)" fill-rule="evenodd" stroke="none"/>
    <path d="M4.45 -47.1 L5.25 -47.6 4.95 -46.55 4.05 -45.25 4.1 -46.2 3.6 -46.25 4.45 -47.1 M4.2 -44.95 L5.15 -45.65 4.7 -45.05 4.2 -44.95" fill="url(#gradient4)" fill-rule="evenodd" stroke="none"/>
    <path d="M-3.45 -53.25 L-3.15 -53.6 -3.05 -53.5 -3.3 -52.95 -2.55 -53.75 -2.6 -53.85 -2.3 -54.0 Q-4.15 -51.55 -2.5 -49.65 L-3.1 -48.2 Q-3.2 -46.75 -3.5 -46.35 -3.4 -47.9 -4.95 -46.55 L-5.2 -47.0 -5.3 -50.05 Q-3.95 -53.1 -3.45 -53.25" fill="url(#gradient5)" fill-rule="evenodd" stroke="none"/>
    <path d="M-3.5 -46.35 Q-3.2 -46.75 -3.1 -48.2 L-2.5 -49.65 Q-1.7 -49.65 -1.5 -50.45 L-0.95 -50.25 -0.6 -50.3 0.15 -50.8 0.6 -50.4 0.8 -49.55 1.65 -49.75 Q2.4 -49.05 2.95 -49.3 2.95 -49.7 4.2 -47.8 L5.0 -48.1 4.8 -47.45 4.45 -47.1 3.6 -46.25 3.2 -45.85 2.95 -45.55 2.8 -45.4 1.5 -44.25 1.5 -44.6 1.2 -44.85 -0.7 -44.6 -0.8 -44.6 -1.25 -44.85 -1.7 -44.75 -2.25 -44.95 -2.35 -45.65 -2.7 -45.95 -2.9 -46.4 -3.15 -46.45 -3.45 -46.15 -3.5 -46.35" fill="url(#gradient6)" fill-rule="evenodd" stroke="none"/>
    <path d="M-5.2 -47.0 L-4.95 -46.55 Q-3.4 -47.9 -3.5 -46.35 L-3.45 -46.15 -4.55 -42.4 -4.55 -41.25 -5.45 -41.65 -5.65 -42.85 -5.65 -42.9 -5.6 -45.5 -5.6 -45.75 -5.55 -45.8 -5.55 -45.95 -5.5 -46.0 -5.5 -46.05 -5.4 -46.15 -5.45 -46.25 -5.25 -46.95 -5.2 -47.0" fill="url(#gradient7)" fill-rule="evenodd" stroke="none"/>
    <path d="M3.6 -46.25 L4.1 -46.2 4.05 -45.25 3.95 -45.05 3.2 -45.85 3.6 -46.25" fill="url(#gradient8)" fill-rule="evenodd" stroke="none"/>
    <path d="M-9.2 -35.2 L-9.3 -37.4 -9.05 -40.2 -8.95 -40.2 -9.05 -40.35 Q-10.3 -47.75 -5.25 -46.95 L-5.45 -46.25 -5.5 -46.2 Q-5.95 -46.5 -7.0 -45.6 L-7.15 -43.0 -7.2 -41.05 -6.45 -38.6 -6.45 -38.45 -6.9 -37.5 -6.9 -36.65 -6.9 -36.5 -6.85 -36.35 -6.85 -36.1 -6.75 -35.6 -6.7 -35.5 -6.35 -34.4 -6.65 -33.85 Q-8.75 -33.4 -9.2 -35.15 L-9.2 -35.2" fill="url(#gradient9)" fill-rule="evenodd" stroke="none"/>
    <path d="M-5.45 -46.25 L-5.4 -46.15 -5.5 -46.05 -5.5 -46.2 -5.45 -46.25 M-5.65 -42.9 L-5.65 -42.85 -5.7 -42.85 -5.65 -42.9" fill="url(#gradient10)" fill-rule="evenodd" stroke="none"/>
    <path d="M-5.5 -46.05 L-5.5 -46.0 -5.55 -45.95 -5.55 -45.8 -5.6 -45.75 -5.6 -45.5 -6.75 -44.0 -7.15 -43.0 -7.0 -45.6 Q-5.95 -46.5 -5.5 -46.2 L-5.5 -46.05" fill="url(#gradient11)" fill-rule="evenodd" stroke="none"/>
    <path d="M5.6 -41.6 L6.65 -41.3 6.75 -41.3 6.9 -41.25 Q13.4 -38.95 9.1 -33.65 9.5 -34.3 8.9 -37.05 L8.15 -38.05 8.2 -38.25 8.05 -38.6 6.85 -39.7 5.0 -39.6 Q0.95 -38.95 1.75 -33.5 2.05 -32.1 3.35 -31.8 L4.2 -30.15 Q1.0 -28.85 -2.0 -32.15 L-2.1 -32.5 -2.05 -33.5 -2.2 -34.0 -1.95 -34.8 -1.9 -35.9 Q-1.65 -36.05 -1.75 -37.35 L-1.9 -37.85 -0.9 -39.55 Q-0.35 -41.1 -0.5 -41.4 L0.1 -42.15 2.6 -42.1 5.6 -41.6 M4.45 -28.15 L4.6 -26.7 2.7 -25.95 0.3 -25.6 Q-1.85 -25.05 -2.35 -24.1 L-2.4 -24.05 -2.45 -23.95 -2.5 -23.6 -2.55 -23.8 -2.9 -23.9 -2.45 -24.75 -2.4 -25.55 -2.35 -26.95 -2.35 -28.0 -2.2 -28.7 -2.3 -29.35 -2.3 -29.5 Q3.55 -27.05 4.45 -28.15 M-5.6 -45.5 L-5.65 -42.9 -5.7 -42.85 -6.05 -42.4 -6.6 -40.7 -6.4 -38.6 -6.45 -38.6 -7.2 -41.05 -7.15 -43.0 -6.75 -44.0 -5.6 -45.5" fill="url(#gradient12)" fill-rule="evenodd" stroke="none"/>
    <path d="M-3.45 -46.15 L-3.15 -46.45 -2.9 -46.4 -2.7 -45.95 -2.35 -45.65 -2.25 -44.95 -1.7 -44.75 -1.25 -44.85 -0.8 -44.6 -0.7 -44.6 1.2 -44.85 1.5 -44.6 1.5 -44.25 0.1 -42.15 -0.5 -41.4 -1.35 -40.8 -4.65 -40.9 Q-4.8 -41.0 -4.55 -41.2 L-4.55 -41.25 -4.55 -42.4 -3.45 -46.15" fill="url(#gradient13)" fill-rule="evenodd" stroke="none"/>
    <path d="M3.95 -45.05 L3.75 -44.8 3.2 -44.75 2.95 -45.55 3.2 -45.85 3.95 -45.05" fill="url(#gradient14)" fill-rule="evenodd" stroke="none"/>
    <path d="M2.95 -45.55 L3.2 -44.75 2.85 -44.9 2.8 -45.4 2.95 -45.55" fill="url(#gradient15)" fill-rule="evenodd" stroke="none"/>
    <path d="M2.8 -44.25 L2.75 -43.8 2.75 -43.5 2.7 -42.95 2.7 -42.85 2.7 -42.75 2.6 -42.1 0.1 -42.15 1.5 -44.25 2.8 -45.4 2.85 -44.9 2.8 -44.25" fill="url(#gradient16)" fill-rule="evenodd" stroke="none"/>
    <path d="M3.95 -43.55 L3.95 -43.5 4.1 -43.45 4.6 -43.15 5.1 -42.2 4.2 -43.1 3.6 -43.5 3.4 -43.45 2.85 -43.7 2.75 -43.8 2.8 -44.25 3.95 -43.65 3.95 -43.55" fill="url(#gradient17)" fill-rule="evenodd" stroke="none"/>
    <path d="M2.75 -43.8 L2.85 -43.7 2.75 -43.8" fill="url(#gradient18)" fill-rule="evenodd" stroke="none"/>
    <path d="M2.85 -43.7 L3.4 -43.45 4.5 -42.2 3.75 -42.55 2.75 -43.5 2.75 -43.8 2.85 -43.7" fill="url(#gradient19)" fill-rule="evenodd" stroke="none"/>
    <path d="M2.75 -43.5 L3.75 -42.55 2.7 -42.95 2.75 -43.5 M2.7 -42.85 L3.35 -42.65 2.7 -42.75 2.7 -42.85" fill="url(#gradient20)" fill-rule="evenodd" stroke="none"/>
    <path d="M3.75 -42.55 L4.5 -42.2 5.3 -41.8 5.6 -41.6 2.6 -42.1 2.7 -42.75 3.35 -42.65 2.7 -42.85 2.7 -42.95 3.75 -42.55 M5.0 -39.6 L6.85 -39.7 8.05 -38.6 7.9 -38.3 6.55 -38.75 5.9 -38.6 5.6 -39.2 5.0 -39.6" fill="url(#gradient21)" fill-rule="evenodd" stroke="none"/>
    <path d="M-4.55 -41.25 L-4.55 -41.2 Q-4.8 -41.0 -4.65 -40.9 L-5.3 -39.45 -5.7 -37.8 -6.15 -37.95 -6.4 -38.45 -6.4 -38.6 -6.6 -40.7 -6.05 -42.4 -5.7 -42.85 -5.65 -42.85 -5.45 -41.65 -4.55 -41.25" fill="url(#gradient22)" fill-rule="evenodd" stroke="none"/>
    <path d="M-6.45 -38.6 L-6.4 -38.6 -6.4 -38.45 -6.45 -38.45 -6.45 -38.6" fill="url(#gradient23)" fill-rule="evenodd" stroke="none"/>
    <path d="M4.1 -43.45 L3.95 -43.5 3.95 -43.55 4.1 -43.45" fill="url(#gradient24)" fill-rule="evenodd" stroke="none"/>
    <path d="M3.4 -43.45 L3.6 -43.5 4.2 -43.1 5.1 -42.2 5.3 -41.8 4.5 -42.2 3.4 -43.45" fill="url(#gradient25)" fill-rule="evenodd" stroke="none"/>
    <path d="M6.65 -41.3 L6.8 -41.35 6.75 -41.3 6.65 -41.3" fill="url(#gradient26)" fill-rule="evenodd" stroke="none"/>
    <path d="M6.8 -41.35 L6.9 -41.25 6.75 -41.3 6.8 -41.35" fill="url(#gradient27)" fill-rule="evenodd" stroke="none"/>
    <path d="M-4.65 -40.9 L-1.35 -40.8 -0.5 -41.4 Q-0.35 -41.1 -0.9 -39.55 L-1.9 -37.85 Q-2.65 -36.1 -5.05 -37.05 L-5.1 -36.9 -5.45 -36.85 -5.55 -36.55 -5.7 -37.8 -5.3 -39.45 -4.65 -40.9" fill="url(#gradient28)" fill-rule="evenodd" stroke="none"/>
    <path d="M-1.9 -37.85 L-1.75 -37.35 Q-1.65 -36.05 -1.9 -35.9 L-2.35 -34.7 -3.2 -33.5 -3.7 -33.2 -4.3 -33.2 -5.0 -33.5 -5.05 -33.5 -5.1 -33.55 -5.6 -34.65 -5.55 -36.55 -5.45 -36.85 -5.1 -36.9 -5.05 -37.05 Q-2.65 -36.1 -1.9 -37.85" fill="url(#gradient29)" fill-rule="evenodd" stroke="none"/>
    <path d="M-1.9 -35.9 L-1.95 -34.8 -2.2 -34.0 -2.25 -33.95 -2.3 -33.85 -2.6 -33.5 -3.2 -33.5 -2.35 -34.7 -1.9 -35.9 M-5.7 -37.8 L-5.55 -36.55 -5.6 -34.65 -5.1 -33.55 -5.65 -33.6 Q-6.1 -33.8 -6.35 -34.4 L-6.7 -35.5 -6.7 -35.6 -6.8 -36.1 -6.8 -36.35 -6.85 -36.5 -6.9 -36.65 -6.9 -37.5 -6.45 -38.45 -6.4 -38.45 -6.15 -37.95 -5.7 -37.8" fill="url(#gradient30)" fill-rule="evenodd" stroke="none"/>
    <path d="M-9.25 -35.15 L-9.2 -35.2 -9.2 -35.15 -9.25 -35.15 M-9.05 -40.2 L-9.05 -40.35 -8.95 -40.2 -9.05 -40.2" fill="url(#gradient31)" fill-rule="evenodd" stroke="none"/>
    <path d="M-7.8 -29.35 Q-9.25 -31.1 -9.45 -33.1 L-9.25 -35.15 -9.2 -35.15 Q-8.75 -33.4 -6.65 -33.85 L-6.75 -33.5 -6.75 -32.8 -6.05 -31.1 -6.35 -30.55 -6.75 -30.15 -7.5 -28.7 -7.75 -29.25 -7.8 -29.35" fill="url(#gradient32)" fill-rule="evenodd" stroke="none"/>
    <path d="M-7.8 -29.25 L-7.8 -29.35 -7.75 -29.25 -7.8 -29.25" fill="url(#gradient33)" fill-rule="evenodd" stroke="none"/>
    <path d="M-7.35 -26.6 Q-7.85 -27.05 -8.05 -28.0 L-7.8 -29.25 -7.75 -29.25 -7.5 -28.7 -7.55 -27.45 -7.35 -27.25 -7.35 -26.6" fill="url(#gradient34)" fill-rule="evenodd" stroke="none"/>
    <path d="M5.0 -39.6 L5.6 -39.2 5.9 -38.6 6.05 -38.25 Q3.2 -36.5 3.65 -36.55 L3.1 -34.85 Q2.9 -33.7 3.1 -33.5 L3.35 -31.8 Q2.05 -32.1 1.75 -33.5 0.95 -38.95 5.0 -39.6" fill="url(#gradient35)" fill-rule="evenodd" stroke="none"/>
    <path d="M9.1 -33.65 L8.65 -31.7 Q9.2 -28.05 8.95 -25.25 8.5 -21.45 5.0 -24.75 L4.95 -24.95 4.6 -26.7 4.45 -28.15 4.35 -29.95 4.2 -30.15 3.35 -31.8 3.1 -33.5 Q2.9 -33.7 3.1 -34.85 L3.65 -36.55 Q3.2 -36.5 6.05 -38.25 L5.9 -38.6 6.55 -38.75 7.9 -38.3 8.15 -38.05 8.9 -37.05 Q9.5 -34.3 9.1 -33.65" fill="url(#gradient36)" fill-rule="evenodd" stroke="none"/>
    <path d="M7.9 -38.3 L8.05 -38.6 8.2 -38.25 8.15 -38.05 7.9 -38.3" fill="url(#gradient37)" fill-rule="evenodd" stroke="none"/>
    <path d="M-6.9 -36.65 L-6.85 -36.5 -6.9 -36.5 -6.9 -36.65 M-6.8 -36.35 L-6.8 -36.1 -6.85 -36.1 -6.85 -36.35 -6.8 -36.35 M-6.7 -35.6 L-6.7 -35.5 -6.75 -35.6 -6.7 -35.6" fill="url(#gradient38)" fill-rule="evenodd" stroke="none"/>
    <path d="M-6.85 -36.5 L-6.8 -36.35 -6.85 -36.35 -6.9 -36.5 -6.85 -36.5 M-6.8 -36.1 L-6.7 -35.6 -6.75 -35.6 -6.85 -36.1 -6.8 -36.1" fill="url(#gradient39)" fill-rule="evenodd" stroke="none"/>
    <path d="M8.95 -25.25 L10.1 -23.0 10.45 -20.0 10.55 -19.1 10.8 -17.8 10.05 -16.3 Q8.2 -15.45 7.45 -17.9 L7.2 -18.6 Q6.4 -18.55 5.05 -22.4 L4.85 -23.8 5.0 -24.75 Q8.5 -21.45 8.95 -25.25" fill="url(#gradient40)" fill-rule="evenodd" stroke="none"/>
    <path d="M7.55 -15.2 L6.65 -13.4 5.7 -12.05 5.2 -11.3 4.5 -10.0 4.45 -9.9 4.25 -9.5 Q2.45 -9.7 2.95 -8.15 1.55 -9.2 1.1 -10.0 L1.0 -10.6 0.9 -12.2 -0.2 -16.3 -0.35 -16.85 -0.5 -19.0 -0.35 -19.85 Q3.95 -20.15 3.9 -22.4 L4.65 -23.65 4.95 -24.95 5.0 -24.75 4.85 -23.8 5.05 -22.4 Q6.4 -18.55 7.2 -18.6 L7.45 -17.9 7.0 -16.65 7.55 -15.2" fill="url(#gradient41)" fill-rule="evenodd" stroke="none"/>
    <path d="M4.6 -26.7 L4.95 -24.95 4.65 -23.65 3.9 -22.4 Q3.95 -20.15 -0.35 -19.85 L-1.6 -20.85 -1.75 -21.15 -1.65 -21.2 -1.75 -21.5 -2.15 -22.05 -2.35 -22.4 -2.35 -23.4 -2.35 -24.05 -2.35 -24.1 Q-1.85 -25.05 0.3 -25.6 L2.7 -25.95 4.6 -26.7" fill="url(#gradient42)" fill-rule="evenodd" stroke="none"/>
    <path d="M4.2 -30.15 L4.35 -29.95 4.45 -28.15 Q3.55 -27.05 -2.3 -29.5 L-2.15 -30.0 -2.25 -30.8 -2.0 -31.65 -2.0 -32.15 Q1.0 -28.85 4.2 -30.15" fill="url(#gradient43)" fill-rule="evenodd" stroke="none"/>
    <path d="M-2.2 -34.0 L-2.05 -33.5 -2.1 -32.5 -2.6 -30.6 Q-2.8 -28.9 -5.3 -30.35 L-5.4 -30.55 -5.65 -32.5 Q-5.5 -33.6 -5.1 -33.5 L-5.05 -33.5 -5.0 -33.5 -4.3 -33.2 -3.7 -33.2 -3.2 -33.5 -2.6 -33.5 -2.3 -33.85 -2.25 -33.95 -2.2 -34.0" fill="url(#gradient44)" fill-rule="evenodd" stroke="none"/>
    <path d="M-2.1 -32.5 L-2.0 -32.15 -2.0 -31.65 -2.25 -30.8 -2.6 -30.6 -2.1 -32.5 M-6.35 -34.4 Q-6.1 -33.8 -5.65 -33.6 L-5.1 -33.55 -5.05 -33.5 -5.1 -33.5 Q-5.5 -33.6 -5.65 -32.5 L-5.4 -30.55 -6.05 -31.1 -6.75 -32.8 -6.75 -33.5 -6.65 -33.85 -6.35 -34.4" fill="url(#gradient45)" fill-rule="evenodd" stroke="none"/>
    <path d="M-6.05 -31.1 L-5.4 -30.55 -5.3 -30.35 Q-5.8 -27.65 -4.45 -27.05 L-5.2 -27.25 -5.6 -27.7 Q-6.25 -28.25 -6.5 -29.75 L-6.35 -30.55 -6.05 -31.1 M-3.25 -27.2 L-2.5 -28.55 -2.3 -29.35 -2.2 -28.7 -2.35 -28.0 -2.85 -27.15 -3.2 -27.05 -3.25 -27.2" fill="url(#gradient46)" fill-rule="evenodd" stroke="none"/>
    <path d="M-2.3 -29.5 L-2.3 -29.35 -2.5 -28.55 -3.25 -27.2 -3.8 -26.95 -4.45 -27.05 Q-5.8 -27.65 -5.3 -30.35 -2.8 -28.9 -2.6 -30.6 L-2.25 -30.8 -2.15 -30.0 -2.3 -29.5" fill="url(#gradient47)" fill-rule="evenodd" stroke="none"/>
    <path d="M-7.35 -26.15 L-7.35 -26.6 -7.35 -27.25 -7.55 -27.45 -7.5 -28.7 -6.75 -30.15 -6.35 -30.55 -6.5 -29.75 Q-6.25 -28.25 -5.6 -27.7 L-5.9 -27.45 -6.2 -26.85 -6.2 -25.85 -6.15 -25.8 -6.15 -25.65 -6.1 -25.5 -6.1 -25.4 -6.05 -25.35 -5.6 -24.25 -5.95 -24.1 -6.5 -24.65 -6.45 -24.8 -6.95 -25.6 -7.25 -26.1 -7.3 -26.15 -7.35 -26.15 M-2.9 -23.9 L-2.55 -23.8 -2.5 -23.6 -3.0 -23.5 -3.05 -23.75 -2.9 -23.9" fill="url(#gradient48)" fill-rule="evenodd" stroke="none"/>
    <path d="M-4.45 -27.05 L-3.8 -26.95 -3.25 -27.2 -3.2 -27.05 -2.85 -27.15 -2.35 -28.0 -2.35 -26.95 -2.4 -26.85 -2.7 -27.1 -3.15 -26.95 -3.6 -26.55 -4.45 -26.85 -4.9 -26.55 -5.05 -26.6 -5.35 -25.5 -5.25 -23.95 -5.6 -24.25 -6.05 -25.35 -6.05 -25.4 -6.1 -25.4 -6.1 -25.5 -6.1 -25.65 -6.15 -25.65 -6.15 -25.8 -6.2 -25.85 -6.2 -26.85 -5.9 -27.45 -5.6 -27.7 -5.2 -27.25 -4.45 -27.05 M-2.4 -25.55 L-2.45 -24.75 -2.9 -23.9 -3.05 -23.75 -3.25 -23.6 -2.65 -24.65 -2.4 -25.55" fill="url(#gradient49)" fill-rule="evenodd" stroke="none"/>
    <path d="M-6.05 -25.35 L-6.1 -25.4 -6.05 -25.4 -6.05 -25.35 M-6.1 -25.5 L-6.15 -25.65 -6.1 -25.65 -6.1 -25.5" fill="url(#gradient50)" fill-rule="evenodd" stroke="none"/>
    <path d="M-2.35 -26.95 L-2.4 -25.55 -2.65 -24.65 -3.25 -23.6 Q-4.5 -22.55 -5.25 -23.95 L-5.35 -25.5 -5.05 -26.6 -4.9 -26.55 -4.45 -26.85 -3.6 -26.55 -3.15 -26.95 -2.7 -27.1 -2.4 -26.85 -2.35 -26.95" fill="url(#gradient51)" fill-rule="evenodd" stroke="none"/>
    <path d="M-4.8 -16.8 Q-6.6 -17.45 -6.6 -17.7 L-7.5 -18.75 Q-8.25 -20.0 -7.9 -21.9 L-7.05 -23.25 -5.95 -24.1 -5.6 -24.25 -5.25 -23.95 Q-4.5 -22.55 -3.25 -23.6 L-3.05 -23.75 -3.0 -23.5 -2.75 -22.4 Q-1.9 -19.9 -2.2 -18.5 -2.6 -17.25 -3.4 -16.75 L-4.8 -16.8" fill="url(#gradient52)" fill-rule="evenodd" stroke="none"/>
    <path d="M-2.4 -24.05 L-2.35 -24.1 -2.35 -24.05 -2.4 -24.05 M-2.15 -22.05 L-1.75 -21.5 -1.65 -21.2 -1.75 -21.15 -2.15 -22.05" fill="url(#gradient53)" fill-rule="evenodd" stroke="none"/>
    <path d="M-2.5 -23.6 L-2.45 -23.95 -2.4 -24.05 -2.35 -24.05 -2.35 -23.4 -2.5 -23.6" fill="url(#gradient54)" fill-rule="evenodd" stroke="none"/>
    <path d="M-5.3 -14.75 L-5.2 -14.9 -4.7 -16.35 -4.65 -16.4 -4.8 -16.8 -3.4 -16.75 Q-2.6 -17.25 -2.2 -18.5 -1.9 -19.9 -2.75 -22.4 L-3.0 -23.5 -2.5 -23.6 -2.35 -23.4 -2.35 -22.4 -2.15 -22.05 -1.75 -21.15 -1.6 -20.85 -0.35 -19.85 -0.5 -19.0 -0.35 -16.85 -1.65 -14.9 -2.15 -13.7 Q-3.4 -13.35 -5.3 -14.75 M-7.05 -23.25 L-7.4 -25.3 -7.35 -26.15 -7.3 -26.15 -7.25 -26.1 -6.95 -25.6 -6.5 -24.65 -5.95 -24.1 -7.05 -23.25" fill="url(#gradient55)" fill-rule="evenodd" stroke="none"/>
    <path d="M-6.95 -25.6 L-6.45 -24.8 -6.5 -24.65 -6.95 -25.6" fill="url(#gradient56)" fill-rule="evenodd" stroke="none"/>
    <path d="M10.95 -19.55 Q13.6 -18.3 12.15 -15.2 9.5 -13.0 7.55 -15.2 L7.0 -16.65 7.45 -17.9 Q8.2 -15.45 10.05 -16.3 L10.8 -17.8 10.55 -19.1 10.95 -19.55" fill="url(#gradient57)" fill-rule="evenodd" stroke="none"/>
    <path d="M5.7 -12.05 L5.35 -10.75 5.05 -10.4 4.65 -10.0 4.5 -10.0 5.2 -11.3 5.7 -12.05" fill="url(#gradient58)" fill-rule="evenodd" stroke="none"/>
    <path d="M4.45 -9.9 L4.5 -10.0 4.65 -10.0 4.6 -9.65 4.45 -9.9" fill="url(#gradient59)" fill-rule="evenodd" stroke="none"/>
    <path d="M4.9 -9.5 Q6.25 -6.1 5.05 -3.45 2.75 -0.2 0.3 -3.1 L-0.2 -4.7 -0.3 -5.55 Q-0.8 -9.3 1.0 -10.6 L1.1 -10.0 Q1.55 -9.2 2.95 -8.15 2.45 -9.7 4.25 -9.5 L4.45 -9.9 4.6 -9.65 4.9 -9.5" fill="url(#gradient60)" fill-rule="evenodd" stroke="none"/>
    <path d="M-0.35 -16.85 L-0.2 -16.3 -0.35 -15.7 -1.2 -15.25 -1.5 -15.0 -1.65 -14.9 -0.35 -16.85" fill="url(#gradient61)" fill-rule="evenodd" stroke="none"/>
    <path d="M10.45 -20.0 L10.95 -19.55 10.55 -19.1 10.45 -20.0" fill="url(#gradient62)" fill-rule="evenodd" stroke="none"/>
    <path d="M-5.95 -8.7 Q-7.2 -10.6 -5.3 -14.75 -3.4 -13.35 -2.15 -13.7 L-1.65 -14.9 -1.5 -15.0 -1.35 -14.85 Q0.35 -11.9 -1.25 -8.3 -3.95 -5.6 -5.8 -8.4 L-5.95 -8.7" fill="url(#gradient63)" fill-rule="evenodd" stroke="none"/>
    <path d="M-5.9 -8.45 L-5.95 -8.7 -5.8 -8.4 -5.9 -8.45" fill="url(#gradient64)" fill-rule="evenodd" stroke="none"/>
    <path d="M-4.85 -1.9 L-4.55 -3.0 Q-5.15 -3.85 -5.9 -8.45 L-5.8 -8.4 Q-3.95 -5.6 -1.25 -8.3 L-1.35 -5.3 -1.25 -5.1 -0.75 -2.3 Q-0.8 -1.0 -1.45 -0.25 -2.8 1.3 -3.8 -0.25 -4.8 -1.0 -4.75 -1.5 L-4.9 -1.5 -4.85 -1.9" fill="url(#gradient65)" fill-rule="evenodd" stroke="none"/>
    <path d="M0.45 -0.55 Q-3.05 3.4 -5.15 0.9 L-5.25 0.8 -5.2 -1.25 -4.85 -1.9 -4.9 -1.5 -4.75 -1.5 Q-4.8 -1.0 -3.8 -0.25 -2.8 1.3 -1.45 -0.25 -0.8 -1.0 -0.75 -2.3 L-1.25 -5.1 -0.3 -5.55 -0.2 -4.7 0.3 -3.1 0.45 -0.55" fill="url(#gradient66)" fill-rule="evenodd" stroke="none"/>
    <path d="M5.05 -3.45 L4.7 -1.0 4.65 -0.25 4.3 0.85 Q5.05 1.8 4.75 2.75 L4.05 4.0 Q3.4 5.95 0.0 2.8 L0.45 -0.55 0.3 -3.1 Q2.75 -0.2 5.05 -3.45" fill="url(#gradient67)" fill-rule="evenodd" stroke="none"/>
    <path d="M-1.35 -14.85 L-1.5 -15.0 -1.2 -15.25 -1.35 -14.85" fill="url(#gradient68)" fill-rule="evenodd" stroke="none"/>
    <path d="M5.05 -10.4 L4.9 -9.5 4.6 -9.65 4.65 -10.0 5.05 -10.4" fill="url(#gradient69)" fill-rule="evenodd" stroke="none"/>
    <path d="M4.7 -1.0 Q6.75 -2.15 7.9 -1.55 L9.15 0.35 8.95 1.3 5.85 4.0 Q-0.75 9.3 0.0 2.8 3.4 5.95 4.05 4.0 L4.75 2.75 Q5.05 1.8 4.3 0.85 L4.65 -0.25 4.7 -1.0" fill="url(#gradient70)" fill-rule="evenodd" stroke="none"/>
  </g>
  <defs>
    <radialGradient cx="0" cy="0" gradientTransform="matrix(0.0037, 0.0, 0.0, 0.0037, 5.4, -55.55)" gradientUnits="userSpaceOnUse" id="gradient0" r="819.2" spreadMethod="pad">
      <stop offset="0.0" stop-color="#a59b2e"/>
      <stop offset="1.0" stop-color="#66601c"/>
    </radialGradient>
    <radialGradient cx="0" cy="0" gradientTransform="matrix(0.0102, 0.0, 0.0, 0.0102, 0.8, -49.65)" gradientUnits="userSpaceOnUse" id="gradient1" r="819.2" spreadMethod="pad">
      <stop offset="0.0" stop-color="#feef47"/>
      <stop offset="1.0" stop-color="#a1972d"/>
    </radialGradient>
    <radialGradient cx="0" cy="0" gradientTransform="matrix(0.0114, 0.0, 0.0, 0.0114, 5.15, -54.05)" gradientUnits="userSpaceOnUse" id="gradient2" r="819.2" spreadMethod="pad">
      <stop offset="0.0" stop-color="#fff749"/>
      <stop offset="1.0" stop-color="#aaa02f"/>
    </radialGradient>
    <radialGradient cx="0" cy="0" gradientTransform="matrix(0.0076, 0.0, 0.0, 0.0076, 6.5, -50.25)" gradientUnits="userSpaceOnUse" id="gradient3" r="819.2" spreadMethod="pad">
      <stop offset="0.0" stop-color="#fff749"/>
      <stop offset="1.0" stop-color="#aaa02f"/>
    </radialGradient>
    <radialGradient cx="0" cy="0" gradientTransform="matrix(0.004, 0.0, 0.0, 0.004, 3.95, -44.95)" gradientUnits="userSpaceOnUse" id="gradient4" r="819.2" spreadMethod="pad">
      <stop offset="0.0" stop-color="#d09356"/>
      <stop offset="1.0" stop-color="#ae7a47"/>
    </radialGradient>
    <radialGradient cx="0" cy="0" gradientTransform="matrix(0.0089, 0.0, 0.0, 0.0089, -2.1, -48.15)" gradientUnits="userSpaceOnUse" id="gradient5" r="819.2" spreadMethod="pad">
      <stop offset="0.0" stop-color="#faeb46"/>
      <stop offset="1.0" stop-color="#a69c2e"/>
    </radialGradient>
    <radialGradient cx="0" cy="0" gradientTransform="matrix(0.0071, 0.0, 0.0, 0.0071, 0.2, -49.3)" gradientUnits="userSpaceOnUse" id="gradient6" r="819.2" spreadMethod="pad">
      <stop offset="0.0" stop-color="#fff148"/>
      <stop offset="1.0" stop-color="#b4a932"/>
    </radialGradient>
    <radialGradient cx="0" cy="0" gradientTransform="matrix(0.007, 0.0, 0.0, 0.007, -3.1, -46.7)" gradientUnits="userSpaceOnUse" id="gradient7" r="819.2" spreadMethod="pad">
      <stop offset="0.0" stop-color="#fced47"/>
      <stop offset="1.0" stop-color="#bbb034"/>
    </radialGradient>
    <radialGradient cx="0" cy="0" gradientTransform="matrix(0.0025, 0.0, 0.0, 0.0025, 2.6, -46.55)" gradientUnits="userSpaceOnUse" id="gradient8" r="819.2" spreadMethod="pad">
      <stop offset="0.0" stop-color="#f3ac64"/>
      <stop offset="1.0" stop-color="#e7a25f"/>
    </radialGradient>
    <radialGradient cx="0" cy="0" gradientTransform="matrix(0.0145, 0.0, 0.0, 0.0145, -6.75, -44.5)" gradientUnits="userSpaceOnUse" id="gradient9" r="819.2" spreadMethod="pad">
      <stop offset="0.0" stop-color="#ffdd81"/>
      <stop offset="1.0" stop-color="#be874e"/>
    </radialGradient>
    <radialGradient cx="0" cy="0" gradientTransform="matrix(0.0069, 0.0, 0.0, 0.0069, -5.65, -43.05)" gradientUnits="userSpaceOnUse" id="gradient10" r="819.2" spreadMethod="pad">
      <stop offset="0.0" stop-color="#222009"/>
      <stop offset="1.0" stop-color="#222009"/>
    </radialGradient>
    <radialGradient cx="0" cy="0" gradientTransform="matrix(0.0074, 0.0, 0.0, 0.0074, -6.4, -43.3)" gradientUnits="userSpaceOnUse" id="gradient11" r="819.2" spreadMethod="pad">
      <stop offset="0.0" stop-color="#6e6565"/>
      <stop offset="1.0" stop-color="#4d4646"/>
    </radialGradient>
    <radialGradient cx="0" cy="0" gradientTransform="matrix(0.0242, 0.0, 0.0, 0.0242, 2.0, -27.55)" gradientUnits="userSpaceOnUse" id="gradient12" r="819.2" spreadMethod="pad">
      <stop offset="0.0" stop-color="#ffffff"/>
      <stop offset="1.0" stop-color="#999999"/>
    </radialGradient>
    <radialGradient cx="0" cy="0" gradientTransform="matrix(0.0066, 0.0, 0.0, 0.0066, -1.35, -45.2)" gradientUnits="userSpaceOnUse" id="gradient13" r="819.2" spreadMethod="pad">
      <stop offset="0.0" stop-color="#faeb46"/>
      <stop offset="1.0" stop-color="#b9ae34"/>
    </radialGradient>
    <radialGradient cx="0" cy="0" gradientTransform="matrix(0.0025, 0.0, 0.0, 0.0025, 2.6, -46.55)" gradientUnits="userSpaceOnUse" id="gradient14" r="819.2" spreadMethod="pad">
      <stop offset="0.0" stop-color="#eda761"/>
      <stop offset="1.0" stop-color="#e2a05d"/>
    </radialGradient>
    <radialGradient cx="0" cy="0" gradientTransform="matrix(0.0023, 0.0, 0.0, 0.0023, 2.6, -46.55)" gradientUnits="userSpaceOnUse" id="gradient15" r="819.2" spreadMethod="pad">
      <stop offset="0.0" stop-color="#f3ac64"/>
      <stop offset="1.0" stop-color="#9f7041"/>
    </radialGradient>
    <radialGradient cx="0" cy="0" gradientTransform="matrix(0.0044, 0.0, 0.0, 0.0044, 0.3, -43.6)" gradientUnits="userSpaceOnUse" id="gradient16" r="819.2" spreadMethod="pad">
      <stop offset="0.0" stop-color="#7b7070"/>
      <stop offset="1.0" stop-color="#5d5555"/>
    </radialGradient>
    <radialGradient cx="0" cy="0" gradientTransform="matrix(0.0054, 0.0, 0.0, 0.0054, 4.9, -42.15)" gradientUnits="userSpaceOnUse" id="gradient17" r="819.2" spreadMethod="pad">
      <stop offset="0.0" stop-color="#878787"/>
      <stop offset="1.0" stop-color="#575757"/>
    </radialGradient>
    <radialGradient cx="0" cy="0" gradientTransform="matrix(0.003, 0.0, 0.0, 0.003, 3.6, -43.4)" gradientUnits="userSpaceOnUse" id="gradient18" r="819.2" spreadMethod="pad">
      <stop offset="0.0" stop-color="#666666"/>
      <stop offset="1.0" stop-color="#383838"/>
    </radialGradient>
    <radialGradient cx="0" cy="0" gradientTransform="matrix(0.0036, 0.0, 0.0, 0.0036, 4.05, -41.8)" gradientUnits="userSpaceOnUse" id="gradient19" r="819.2" spreadMethod="pad">
      <stop offset="0.0" stop-color="#625959"/>
      <stop offset="1.0" stop-color="#514a4a"/>
    </radialGradient>
    <radialGradient cx="0" cy="0" gradientTransform="matrix(0.0029, 0.0, 0.0, 0.0029, 3.75, -42.65)" gradientUnits="userSpaceOnUse" id="gradient20" r="819.2" spreadMethod="pad">
      <stop offset="0.0" stop-color="#685f5f"/>
      <stop offset="1.0" stop-color="#474141"/>
    </radialGradient>
    <radialGradient cx="0" cy="0" gradientTransform="matrix(0.007, 0.0, 0.0, 0.007, 6.0, -39.8)" gradientUnits="userSpaceOnUse" id="gradient21" r="819.2" spreadMethod="pad">
      <stop offset="0.0" stop-color="#8e8282"/>
      <stop offset="1.0" stop-color="#443e3e"/>
    </radialGradient>
    <radialGradient cx="0" cy="0" gradientTransform="matrix(0.0069, 0.0, 0.0, 0.0069, -3.75, -42.45)" gradientUnits="userSpaceOnUse" id="gradient22" r="819.2" spreadMethod="pad">
      <stop offset="0.0" stop-color="#fff749"/>
      <stop offset="1.0" stop-color="#b5aa32"/>
    </radialGradient>
    <radialGradient cx="0" cy="0" gradientTransform="matrix(0.0037, 0.0, 0.0, 0.0037, -6.55, -39.55)" gradientUnits="userSpaceOnUse" id="gradient23" r="819.2" spreadMethod="pad">
      <stop offset="0.0" stop-color="#a59b2e"/>
      <stop offset="1.0" stop-color="#222009"/>
    </radialGradient>
    <radialGradient cx="0" cy="0" gradientTransform="matrix(0.0023, 0.0, 0.0, 0.0023, 4.6, -43.15)" gradientUnits="userSpaceOnUse" id="gradient24" r="819.2" spreadMethod="pad">
      <stop offset="0.0" stop-color="#747474"/>
      <stop offset="1.0" stop-color="#4c4c4c"/>
    </radialGradient>
    <radialGradient cx="0" cy="0" gradientTransform="matrix(0.0029, 0.0, 0.0, 0.0029, 5.0, -41.85)" gradientUnits="userSpaceOnUse" id="gradient25" r="819.2" spreadMethod="pad">
      <stop offset="0.0" stop-color="#3e6283"/>
      <stop offset="1.0" stop-color="#25394d"/>
    </radialGradient>
    <radialGradient cx="0" cy="0" gradientTransform="matrix(1.0E-4, 0.0, 0.0, 1.0E-4, 6.7, -41.45)" gradientUnits="userSpaceOnUse" id="gradient26" r="819.2" spreadMethod="pad">
      <stop offset="0.0" stop-color="#416588"/>
      <stop offset="1.0" stop-color="#416588"/>
    </radialGradient>
    <radialGradient cx="0" cy="0" gradientTransform="matrix(2.0E-4, 0.0, 0.0, 2.0E-4, 6.75, -41.4)" gradientUnits="userSpaceOnUse" id="gradient27" r="819.2" spreadMethod="pad">
      <stop offset="0.0" stop-color="#253a4e"/>
      <stop offset="1.0" stop-color="#233749"/>
    </radialGradient>
    <radialGradient cx="0" cy="0" gradientTransform="matrix(0.0067, 0.0, 0.0, 0.0067, -3.1, -41.4)" gradientUnits="userSpaceOnUse" id="gradient28" r="819.2" spreadMethod="pad">
      <stop offset="0.0" stop-color="#fff649"/>
      <stop offset="1.0" stop-color="#b7ac33"/>
    </radialGradient>
    <radialGradient cx="0" cy="0" gradientTransform="matrix(0.0047, 0.0, 0.0, 0.0047, -4.4, -36.95)" gradientUnits="userSpaceOnUse" id="gradient29" r="819.2" spreadMethod="pad">
      <stop offset="0.0" stop-color="#fff449"/>
      <stop offset="1.0" stop-color="#898126"/>
    </radialGradient>
    <radialGradient cx="0" cy="0" gradientTransform="matrix(0.0064, 0.0, 0.0, 0.0064, -4.75, -38.3)" gradientUnits="userSpaceOnUse" id="gradient30" r="819.2" spreadMethod="pad">
      <stop offset="0.0" stop-color="#feee47"/>
      <stop offset="1.0" stop-color="#9d942c"/>
    </radialGradient>
    <radialGradient cx="0" cy="0" gradientTransform="matrix(0.0086, 0.0, 0.0, 0.0086, -9.05, -40.7)" gradientUnits="userSpaceOnUse" id="gradient31" r="819.2" spreadMethod="pad">
      <stop offset="0.0" stop-color="#bc854d"/>
      <stop offset="1.0" stop-color="#261b10"/>
    </radialGradient>
    <radialGradient cx="0" cy="0" gradientTransform="matrix(0.0087, 0.0, 0.0, 0.0087, -7.25, -34.7)" gradientUnits="userSpaceOnUse" id="gradient32" r="819.2" spreadMethod="pad">
      <stop offset="0.0" stop-color="#ffe887"/>
      <stop offset="1.0" stop-color="#966a3e"/>
    </radialGradient>
    <radialGradient cx="0" cy="0" gradientTransform="matrix(0.0078, 0.0, 0.0, 0.0078, -9.45, -33.75)" gradientUnits="userSpaceOnUse" id="gradient33" r="819.2" spreadMethod="pad">
      <stop offset="0.0" stop-color="#bc854d"/>
      <stop offset="1.0" stop-color="#7f5a34"/>
    </radialGradient>
    <radialGradient cx="0" cy="0" gradientTransform="matrix(0.0026, 0.0, 0.0, 0.0026, -7.15, -28.8)" gradientUnits="userSpaceOnUse" id="gradient34" r="819.2" spreadMethod="pad">
      <stop offset="0.0" stop-color="#ffbb6d"/>
      <stop offset="1.0" stop-color="#b17c48"/>
    </radialGradient>
    <radialGradient cx="0" cy="0" gradientTransform="matrix(0.0086, 0.0, 0.0, 0.0086, 1.25, -38.05)" gradientUnits="userSpaceOnUse" id="gradient35" r="819.2" spreadMethod="pad">
      <stop offset="0.0" stop-color="#857a7a"/>
      <stop offset="1.0" stop-color="#4f4848"/>
    </radialGradient>
    <radialGradient cx="0" cy="0" gradientTransform="matrix(0.0164, 0.0, 0.0, 0.0164, 6.0, -35.7)" gradientUnits="userSpaceOnUse" id="gradient36" r="819.2" spreadMethod="pad">
      <stop offset="0.0" stop-color="#ffd179"/>
      <stop offset="1.0" stop-color="#c58b51"/>
    </radialGradient>
    <radialGradient cx="0" cy="0" gradientTransform="matrix(0.0018, 0.0, 0.0, 0.0018, 7.85, -37.3)" gradientUnits="userSpaceOnUse" id="gradient37" r="819.2" spreadMethod="pad">
      <stop offset="0.0" stop-color="#c8c8c8"/>
      <stop offset="1.0" stop-color="#bebebe"/>
    </radialGradient>
    <radialGradient cx="0" cy="0" gradientTransform="matrix(0.0018, 0.0, 0.0, 0.0018, -6.9, -36.95)" gradientUnits="userSpaceOnUse" id="gradient38" r="819.2" spreadMethod="pad">
      <stop offset="0.0" stop-color="#b3a832"/>
      <stop offset="1.0" stop-color="#a3992e"/>
    </radialGradient>
    <radialGradient cx="0" cy="0" gradientTransform="matrix(0.0024, 0.0, 0.0, 0.0024, -6.7, -35.5)" gradientUnits="userSpaceOnUse" id="gradient39" r="819.2" spreadMethod="pad">
      <stop offset="0.0" stop-color="#a3992e"/>
      <stop offset="1.0" stop-color="#918928"/>
    </radialGradient>
    <radialGradient cx="0" cy="0" gradientTransform="matrix(0.0117, 0.0, 0.0, 0.0117, 6.9, -24.75)" gradientUnits="userSpaceOnUse" id="gradient40" r="819.2" spreadMethod="pad">
      <stop offset="0.0" stop-color="#ffdd81"/>
      <stop offset="1.0" stop-color="#9c6e40"/>
    </radialGradient>
    <radialGradient cx="0" cy="0" gradientTransform="matrix(0.0216, 0.0, 0.0, 0.0216, 2.65, -24.8)" gradientUnits="userSpaceOnUse" id="gradient41" r="819.2" spreadMethod="pad">
      <stop offset="0.0" stop-color="#978a8a"/>
      <stop offset="1.0" stop-color="#544d4d"/>
    </radialGradient>
    <radialGradient cx="0" cy="0" gradientTransform="matrix(0.0074, 0.0, 0.0, 0.0074, 1.55, -25.7)" gradientUnits="userSpaceOnUse" id="gradient42" r="819.2" spreadMethod="pad">
      <stop offset="0.0" stop-color="#988b8b"/>
      <stop offset="1.0" stop-color="#615959"/>
    </radialGradient>
    <radialGradient cx="0" cy="0" gradientTransform="matrix(0.0092, 0.0, 0.0, 0.0092, -2.25, -29.6)" gradientUnits="userSpaceOnUse" id="gradient43" r="819.2" spreadMethod="pad">
      <stop offset="0.0" stop-color="#314d68"/>
      <stop offset="1.0" stop-color="#2a4359"/>
    </radialGradient>
    <radialGradient cx="0" cy="0" gradientTransform="matrix(0.0046, 0.0, 0.0, 0.0046, -3.95, -33.35)" gradientUnits="userSpaceOnUse" id="gradient44" r="819.2" spreadMethod="pad">
      <stop offset="0.0" stop-color="#fff94a"/>
      <stop offset="1.0" stop-color="#8b8327"/>
    </radialGradient>
    <radialGradient cx="0" cy="0" gradientTransform="matrix(0.0053, 0.0, 0.0, 0.0053, -5.15, -34.0)" gradientUnits="userSpaceOnUse" id="gradient45" r="819.2" spreadMethod="pad">
      <stop offset="0.0" stop-color="#f5e745"/>
      <stop offset="1.0" stop-color="#948b29"/>
    </radialGradient>
    <radialGradient cx="0" cy="0" gradientTransform="matrix(0.0049, 0.0, 0.0, 0.0049, -4.95, -30.7)" gradientUnits="userSpaceOnUse" id="gradient46" r="819.2" spreadMethod="pad">
      <stop offset="0.0" stop-color="#fdee47"/>
      <stop offset="1.0" stop-color="#847d25"/>
    </radialGradient>
    <radialGradient cx="0" cy="0" gradientTransform="matrix(0.0046, 0.0, 0.0, 0.0046, -4.65, -30.75)" gradientUnits="userSpaceOnUse" id="gradient47" r="819.2" spreadMethod="pad">
      <stop offset="0.0" stop-color="#fffc4b"/>
      <stop offset="1.0" stop-color="#746c20"/>
    </radialGradient>
    <radialGradient cx="0" cy="0" gradientTransform="matrix(0.0063, 0.0, 0.0, 0.0063, -5.3, -27.55)" gradientUnits="userSpaceOnUse" id="gradient48" r="819.2" spreadMethod="pad">
      <stop offset="0.0" stop-color="#8c8080"/>
      <stop offset="1.0" stop-color="#4e4747"/>
    </radialGradient>
    <radialGradient cx="0" cy="0" gradientTransform="matrix(0.0048, 0.0, 0.0, 0.0048, -3.25, -27.35)" gradientUnits="userSpaceOnUse" id="gradient49" r="819.2" spreadMethod="pad">
      <stop offset="0.0" stop-color="#ffff4c"/>
      <stop offset="1.0" stop-color="#8c8327"/>
    </radialGradient>
    <radialGradient cx="0" cy="0" gradientTransform="matrix(0.0013, 0.0, 0.0, 0.0013, -6.25, -26.3)" gradientUnits="userSpaceOnUse" id="gradient50" r="819.2" spreadMethod="pad">
      <stop offset="0.0" stop-color="#a89e2f"/>
      <stop offset="1.0" stop-color="#928929"/>
    </radialGradient>
    <radialGradient cx="0" cy="0" gradientTransform="matrix(0.0043, 0.0, 0.0, 0.0043, -4.5, -26.75)" gradientUnits="userSpaceOnUse" id="gradient51" r="819.2" spreadMethod="pad">
      <stop offset="0.0" stop-color="#ffff4d"/>
      <stop offset="1.0" stop-color="#787021"/>
    </radialGradient>
    <radialGradient cx="0" cy="0" gradientTransform="matrix(0.0083, 0.0, 0.0, 0.0083, -4.15, -23.6)" gradientUnits="userSpaceOnUse" id="gradient52" r="819.2" spreadMethod="pad">
      <stop offset="0.0" stop-color="#ffff50"/>
      <stop offset="1.0" stop-color="#7c7422"/>
    </radialGradient>
    <radialGradient cx="0" cy="0" gradientTransform="matrix(0.0053, 0.0, 0.0, 0.0053, -2.4, -22.5)" gradientUnits="userSpaceOnUse" id="gradient53" r="819.2" spreadMethod="pad">
      <stop offset="0.0" stop-color="#595151"/>
      <stop offset="1.0" stop-color="#161414"/>
    </radialGradient>
    <radialGradient cx="0" cy="0" gradientTransform="matrix(0.0017, 0.0, 0.0, 0.0017, -2.65, -24.55)" gradientUnits="userSpaceOnUse" id="gradient54" r="819.2" spreadMethod="pad">
      <stop offset="0.0" stop-color="#9b9b9b"/>
      <stop offset="1.0" stop-color="#202020"/>
    </radialGradient>
    <radialGradient cx="0" cy="0" gradientTransform="matrix(0.0183, 0.0, 0.0, 0.0183, -6.55, -27.5)" gradientUnits="userSpaceOnUse" id="gradient55" r="819.2" spreadMethod="pad">
      <stop offset="0.0" stop-color="#675d5d"/>
      <stop offset="1.0" stop-color="#524a4a"/>
    </radialGradient>
    <radialGradient cx="0" cy="0" gradientTransform="matrix(0.0068, 0.0, 0.0, 0.0068, -7.35, -26.3)" gradientUnits="userSpaceOnUse" id="gradient56" r="819.2" spreadMethod="pad">
      <stop offset="0.0" stop-color="#585050"/>
      <stop offset="1.0" stop-color="#2f2b2b"/>
    </radialGradient>
    <radialGradient cx="0" cy="0" gradientTransform="matrix(0.0038, 0.0, 0.0, 0.0038, 10.0, -17.3)" gradientUnits="userSpaceOnUse" id="gradient57" r="819.2" spreadMethod="pad">
      <stop offset="0.0" stop-color="#ffe988"/>
      <stop offset="1.0" stop-color="#b07c48"/>
    </radialGradient>
    <radialGradient cx="0" cy="0" gradientTransform="matrix(0.0027, 0.0, 0.0, 0.0027, 4.5, -10.95)" gradientUnits="userSpaceOnUse" id="gradient58" r="819.2" spreadMethod="pad">
      <stop offset="0.0" stop-color="#b47f4a"/>
      <stop offset="1.0" stop-color="#90653b"/>
    </radialGradient>
    <radialGradient cx="0" cy="0" gradientTransform="matrix(0.0027, 0.0, 0.0, 0.0027, 4.6, -10.15)" gradientUnits="userSpaceOnUse" id="gradient59" r="819.2" spreadMethod="pad">
      <stop offset="0.0" stop-color="#d59658"/>
      <stop offset="1.0" stop-color="#d09355"/>
    </radialGradient>
    <radialGradient cx="0" cy="0" gradientTransform="matrix(0.0105, 0.0, 0.0, 0.0105, 2.4, -10.05)" gradientUnits="userSpaceOnUse" id="gradient60" r="819.2" spreadMethod="pad">
      <stop offset="0.0" stop-color="#fff38e"/>
      <stop offset="1.0" stop-color="#896038"/>
    </radialGradient>
    <radialGradient cx="0" cy="0" gradientTransform="matrix(0.0025, 0.0, 0.0, 0.0025, -1.35, -15.35)" gradientUnits="userSpaceOnUse" id="gradient61" r="819.2" spreadMethod="pad">
      <stop offset="0.0" stop-color="#ffb96c"/>
      <stop offset="1.0" stop-color="#92673c"/>
    </radialGradient>
    <radialGradient cx="0" cy="0" gradientTransform="matrix(0.0011, 0.0, 0.0, 0.0011, 10.3, -19.2)" gradientUnits="userSpaceOnUse" id="gradient62" r="819.2" spreadMethod="pad">
      <stop offset="0.0" stop-color="#f9b066"/>
      <stop offset="1.0" stop-color="#a67544"/>
    </radialGradient>
    <radialGradient cx="0" cy="0" gradientTransform="matrix(0.01, 0.0, 0.0, 0.01, -3.65, -15.0)" gradientUnits="userSpaceOnUse" id="gradient63" r="819.2" spreadMethod="pad">
      <stop offset="0.0" stop-color="#fff18c"/>
      <stop offset="1.0" stop-color="#8c6239"/>
    </radialGradient>
    <radialGradient cx="0" cy="0" gradientTransform="matrix(0.0074, 0.0, 0.0, 0.0074, -6.2, -9.35)" gradientUnits="userSpaceOnUse" id="gradient64" r="819.2" spreadMethod="pad">
      <stop offset="0.0" stop-color="#8e643a"/>
      <stop offset="1.0" stop-color="#261b10"/>
    </radialGradient>
    <radialGradient cx="0" cy="0" gradientTransform="matrix(0.0099, 0.0, 0.0, 0.0099, -3.0, -1.45)" gradientUnits="userSpaceOnUse" id="gradient65" r="819.2" spreadMethod="pad">
      <stop offset="0.0" stop-color="#d09355"/>
      <stop offset="1.0" stop-color="#96693d"/>
    </radialGradient>
    <radialGradient cx="0" cy="0" gradientTransform="matrix(0.0083, 0.0, 0.0, 0.0083, -3.6, -0.75)" gradientUnits="userSpaceOnUse" id="gradient66" r="819.2" spreadMethod="pad">
      <stop offset="0.0" stop-color="#fff28d"/>
      <stop offset="1.0" stop-color="#e8a661"/>
    </radialGradient>
    <radialGradient cx="0" cy="0" gradientTransform="matrix(0.0111, 0.0, 0.0, 0.0111, 1.7, 4.7)" gradientUnits="userSpaceOnUse" id="gradient67" r="819.2" spreadMethod="pad">
      <stop offset="0.0" stop-color="#df9e5c"/>
      <stop offset="1.0" stop-color="#896138"/>
    </radialGradient>
    <radialGradient cx="0" cy="0" gradientTransform="matrix(0.002, 0.0, 0.0, 0.002, -1.85, -15.3)" gradientUnits="userSpaceOnUse" id="gradient68" r="819.2" spreadMethod="pad">
      <stop offset="0.0" stop-color="#c48a50"/>
      <stop offset="1.0" stop-color="#ba834c"/>
    </radialGradient>
    <radialGradient cx="0" cy="0" gradientTransform="matrix(0.0033, 0.0, 0.0, 0.0033, 4.4, -8.0)" gradientUnits="userSpaceOnUse" id="gradient69" r="819.2" spreadMethod="pad">
      <stop offset="0.0" stop-color="#92673c"/>
      <stop offset="1.0" stop-color="#7e5934"/>
    </radialGradient>
    <radialGradient cx="0" cy="0" gradientTransform="matrix(0.0101, 0.0, 0.0, 0.0101, 1.55, 3.85)" gradientUnits="userSpaceOnUse" id="gradient70" r="819.2" spreadMethod="pad">
      <stop offset="0.0" stop-color="#ffe485"/>
      <stop offset="1.0" stop-color="#f6ad65"/>
    </radialGradient>
  </defs>
</svg>
