<?xml version="1.0" encoding="UTF-8" standalone="no"?>
<svg xmlns:ffdec="https://www.free-decompiler.com/flash" xmlns:xlink="http://www.w3.org/1999/xlink" ffdec:objectType="shape" height="66.35px" width="36.4px" xmlns="http://www.w3.org/2000/svg">
  <g transform="matrix(1.0, 0.0, 0.0, 1.0, 17.05, 55.05)">
    <path d="M-3.55 -54.1 L-5.3 -54.05 -6.85 -53.4 Q-5.8 -56.05 -3.75 -54.4 L-3.55 -54.1" fill="url(#gradient0)" fill-rule="evenodd" stroke="none"/>
    <path d="M-6.85 -53.4 L-5.3 -54.05 -3.55 -54.1 Q2.15 -52.65 2.7 -48.95 -2.65 -49.4 1.55 -43.35 L1.3 -43.0 0.65 -42.1 0.05 -41.95 Q-1.05 -41.6 -3.45 -42.7 L-4.0 -42.9 -6.4 -44.6 Q-7.05 -45.15 -7.7 -47.05 L-8.5 -50.2 -8.55 -50.6 -7.8 -52.75 -6.85 -53.4" fill="url(#gradient1)" fill-rule="evenodd" stroke="none"/>
    <path d="M1.55 -43.35 Q-2.65 -49.4 2.7 -48.95 12.4 -43.7 6.4 -24.4 L5.6 -22.9 Q6.2 -24.85 6.15 -26.05 6.45 -33.3 4.85 -36.35 L3.55 -40.0 Q2.65 -42.15 2.05 -42.7 L1.55 -43.35" fill="url(#gradient2)" fill-rule="evenodd" stroke="none"/>
    <path d="M1.3 -43.0 L1.55 -43.35 2.05 -42.7 Q2.65 -42.15 3.55 -40.0 L4.85 -36.35 2.3 -32.35 1.95 -31.65 1.35 -31.05 -0.5 -28.8 Q-0.15 -28.3 -0.05 -26.35 L-0.8 -25.95 -2.25 -25.8 -6.2 -27.35 -7.25 -27.95 Q-7.3 -28.4 -8.85 -29.4 -14.55 -32.0 -10.65 -36.7 L-10.25 -36.85 -8.85 -36.9 -7.15 -37.7 Q-3.3 -38.4 -0.35 -39.7 L1.1 -40.95 Q1.55 -41.55 1.35 -42.7 L1.3 -43.0 M2.5 -30.5 Q4.95 -29.3 6.15 -26.05 6.2 -24.85 5.6 -22.9 L6.4 -24.4 Q6.75 -23.25 6.5 -22.65 L5.4 -21.05 5.15 -20.8 3.7 -19.35 Q2.1 -15.8 1.35 -16.05 L1.3 -18.7 0.85 -19.55 -0.6 -25.3 1.05 -26.75 Q2.35 -28.4 2.5 -30.5 M-4.1 -41.95 L-4.05 -42.0 -4.05 -41.95 -4.1 -41.95 M-8.55 -26.6 L-7.85 -25.65 -7.45 -25.4 -8.45 -23.5 Q-10.0 -21.05 -10.4 -21.0 L-9.9 -22.9 -8.55 -26.6 M-7.9 -16.5 L-7.35 -18.5 -7.0 -16.3 -7.9 -16.5 M-3.85 -15.7 L-5.95 -16.05 -5.4 -16.5 -4.05 -16.4 -3.85 -16.25 -3.85 -15.7 M-5.85 -17.95 L-5.9 -17.8 -6.05 -17.95 -5.85 -17.95" fill="url(#gradient3)" fill-rule="evenodd" stroke="none"/>
    <path d="M0.05 -41.95 L0.65 -42.1 1.3 -43.0 1.35 -42.7 Q1.55 -41.55 1.1 -40.95 L-0.35 -39.7 Q-3.3 -38.4 -7.15 -37.7 L-8.85 -36.9 -10.25 -36.85 -10.65 -36.7 -8.5 -37.8 -7.25 -38.55 -5.65 -39.4 -4.0 -40.0 -3.95 -40.0 -3.85 -40.05 -3.8 -40.05 -1.4 -40.95 Q-0.2 -41.5 0.05 -41.95" fill="url(#gradient4)" fill-rule="evenodd" stroke="none"/>
    <path d="M-4.0 -42.9 L-3.45 -42.7 Q-1.05 -41.6 0.05 -41.95 -0.2 -41.5 -1.4 -40.95 L-3.8 -40.05 -3.8 -40.1 -3.8 -40.15 -3.95 -41.45 -3.95 -41.55 -4.0 -41.95 -4.0 -42.0 -4.05 -42.2 -4.0 -42.7 -4.0 -42.9" fill="url(#gradient5)" fill-rule="evenodd" stroke="none"/>
    <path d="M-6.4 -44.6 L-4.0 -42.9 -4.0 -42.7 -4.05 -42.2 -4.6 -41.9 -5.15 -42.0 -6.15 -43.5 -6.4 -44.6 M-6.55 -42.85 L-6.3 -42.7 -5.8 -42.3 -6.15 -42.35 -6.55 -42.85" fill="url(#gradient6)" fill-rule="evenodd" stroke="none"/>
    <path d="M-8.5 -50.2 L-7.7 -47.05 Q-7.05 -45.15 -6.4 -44.6 L-6.15 -43.5 -5.15 -42.0 -5.0 -41.7 -5.35 -41.85 -5.75 -42.25 -5.8 -42.3 -6.3 -42.7 -6.55 -42.85 Q-10.6 -47.95 -8.95 -49.95 L-8.5 -50.2" fill="url(#gradient7)" fill-rule="evenodd" stroke="none"/>
    <path d="M-7.8 -52.75 L-8.55 -50.6 -8.5 -50.2 -8.95 -49.95 Q-14.5 -48.45 -11.5 -43.15 L-13.15 -44.95 -13.65 -47.55 -13.65 -47.95 -12.65 -50.7 -9.8 -53.4 -7.8 -52.75" fill="url(#gradient8)" fill-rule="evenodd" stroke="none"/>
    <path d="M-5.35 -41.85 L-5.0 -41.7 -5.15 -42.0 -4.6 -41.9 -4.05 -42.2 -4.0 -42.0 -4.05 -42.0 -4.1 -41.95 -4.9 -41.4 -7.25 -40.5 -6.35 -41.3 -5.35 -41.85" fill="url(#gradient9)" fill-rule="evenodd" stroke="none"/>
    <path d="M-7.25 -38.55 L-8.5 -37.8 -8.2 -39.15 -7.45 -40.25 -7.25 -40.5 -4.9 -41.4 -4.1 -41.95 -4.05 -41.95 -4.0 -41.95 -3.95 -41.55 -5.25 -40.7 -7.25 -38.55" fill="url(#gradient10)" fill-rule="evenodd" stroke="none"/>
    <path d="M-5.65 -39.4 L-7.25 -38.55 -5.25 -40.7 -3.95 -41.55 -3.95 -41.45 Q-3.9 -41.0 -5.3 -40.6 L-5.65 -39.4" fill="url(#gradient11)" fill-rule="evenodd" stroke="none"/>
    <path d="M-3.85 -40.05 L-3.95 -40.0 -4.0 -40.0 -5.65 -39.4 -5.3 -40.6 Q-3.9 -41.0 -3.95 -41.45 L-3.8 -40.15 -3.8 -40.1 -3.85 -40.05" fill="url(#gradient12)" fill-rule="evenodd" stroke="none"/>
    <path d="M-3.8 -40.05 L-3.85 -40.05 -3.8 -40.1 -3.8 -40.05 M-4.0 -42.0 L-4.0 -41.95 -4.05 -41.95 -4.05 -42.0 -4.0 -42.0" fill="url(#gradient13)" fill-rule="evenodd" stroke="none"/>
    <path d="M-8.85 -29.4 Q-7.3 -28.4 -7.25 -27.95 L-6.2 -27.35 -5.75 -26.85 -5.5 -25.75 -5.8 -25.8 -5.95 -25.15 -7.25 -25.55 -7.45 -25.4 -7.85 -25.65 -8.55 -26.6 -8.8 -27.4 -8.85 -29.4 M-0.8 -25.95 L-0.05 -26.35 Q-0.15 -28.3 -0.5 -28.8 L1.35 -31.05 1.95 -31.65 2.3 -32.35 2.5 -31.6 2.5 -30.5 Q2.35 -28.4 1.05 -26.75 L-0.6 -25.3 -0.8 -25.95" fill="url(#gradient14)" fill-rule="evenodd" stroke="none"/>
    <path d="M-6.2 -27.35 L-2.25 -25.8 -0.8 -25.95 -0.6 -25.3 0.85 -19.55 0.55 -18.8 Q0.15 -19.15 -0.45 -18.2 -2.75 -17.85 -3.2 -19.05 L-3.25 -19.1 -3.3 -19.35 -5.1 -24.05 -5.5 -25.75 -5.75 -26.85 -6.2 -27.35" fill="url(#gradient15)" fill-rule="evenodd" stroke="none"/>
    <path d="M5.4 -21.05 L8.35 -17.0 5.25 -20.7 5.15 -20.75 5.15 -20.8 5.4 -21.05" fill="url(#gradient16)" fill-rule="evenodd" stroke="none"/>
    <path d="M5.15 -20.7 L5.0 -18.4 3.85 -13.45 3.85 -13.15 4.85 -11.3 Q4.95 -10.35 1.9 -9.95 L1.7 -10.0 0.9 -11.4 0.7 -11.9 0.2 -12.3 1.0 -14.6 1.35 -16.05 Q2.1 -15.8 3.7 -19.35 L5.15 -20.8 5.15 -20.75 5.15 -20.7" fill="url(#gradient17)" fill-rule="evenodd" stroke="none"/>
    <path d="M-3.2 -19.05 Q-2.75 -17.85 -0.45 -18.2 0.15 -19.15 0.55 -18.8 L0.85 -19.55 1.3 -18.7 1.35 -16.05 1.0 -14.6 0.2 -12.3 0.05 -11.9 -0.1 -10.55 -3.25 -10.45 -3.35 -12.75 -3.5 -13.15 -3.8 -14.05 -3.85 -15.7 -3.85 -16.25 -3.75 -17.3 -3.25 -19.05 -3.2 -19.05" fill="url(#gradient18)" fill-rule="evenodd" stroke="none"/>
    <path d="M-5.95 -25.15 L-5.8 -25.8 -5.5 -25.75 -5.1 -24.05 -3.3 -19.35 -3.25 -19.1 -3.25 -19.05 -3.75 -17.3 -3.85 -16.25 -4.05 -16.4 -5.4 -16.5 -5.95 -16.05 -6.85 -15.45 -7.0 -16.3 -7.35 -18.5 -7.1 -19.3 -7.3 -19.35 -5.95 -25.15 M-5.85 -17.95 L-6.05 -17.95 -5.9 -17.8 -5.85 -17.95" fill="url(#gradient19)" fill-rule="evenodd" stroke="none"/>
    <path d="M-7.45 -25.4 L-7.25 -25.55 -5.95 -25.15 -7.3 -19.35 -7.1 -19.3 -7.35 -18.5 -7.9 -16.5 -8.45 -13.55 -8.55 -13.7 -9.4 -15.8 -10.45 -17.8 Q-10.85 -18.6 -10.95 -19.9 L-10.45 -20.9 -10.4 -20.95 -10.4 -21.0 Q-10.0 -21.05 -8.45 -23.5 L-7.45 -25.4" fill="url(#gradient20)" fill-rule="evenodd" stroke="none"/>
    <path d="M-3.25 -19.1 L-3.2 -19.05 -3.25 -19.05 -3.25 -19.1" fill="url(#gradient21)" fill-rule="evenodd" stroke="none"/>
    <path d="M-10.45 -17.8 L-9.4 -15.8 -8.55 -13.7 -8.45 -13.55 -7.9 -16.5 -7.0 -16.3 -6.85 -15.45 -5.95 -16.05 -3.85 -15.7 -3.8 -14.05 -3.5 -13.15 -4.9 -12.0 -5.45 -11.0 -5.55 -10.65 -6.25 -10.9 -6.95 -9.2 -7.75 -8.7 -7.4 -9.8 Q-9.35 -10.15 -8.9 -10.8 L-9.8 -13.05 -9.8 -13.15 -9.85 -13.15 -10.55 -14.8 Q-10.95 -17.6 -10.45 -17.8" fill="url(#gradient22)" fill-rule="evenodd" stroke="none"/>
    <path d="M-9.85 -13.15 L-9.8 -13.15 -9.8 -13.05 -9.85 -13.05 -9.85 -13.15" fill="url(#gradient23)" fill-rule="evenodd" stroke="none"/>
    <path d="M-9.8 -13.05 L-8.9 -10.8 -9.0 -10.8 -9.25 -10.9 -9.5 -11.35 -9.5 -11.4 -9.6 -11.5 -9.85 -13.05 -9.8 -13.05" fill="url(#gradient24)" fill-rule="evenodd" stroke="none"/>
    <path d="M5.25 -20.7 L5.15 -20.7 5.15 -20.75 5.25 -20.7" fill="url(#gradient25)" fill-rule="evenodd" stroke="none"/>
    <path d="M4.85 -11.3 Q7.0 -10.25 9.1 -4.9 L9.25 -4.4 9.05 -4.35 8.9 -3.9 4.15 -6.35 3.95 -6.75 3.9 -7.05 2.45 -7.65 2.25 -7.8 2.05 -7.65 1.7 -7.3 1.35 -7.4 1.4 -7.65 Q1.5 -8.65 1.15 -9.15 L0.55 -10.1 0.65 -11.55 0.9 -11.4 1.7 -10.0 1.9 -9.95 Q4.95 -10.35 4.85 -11.3 M5.05 -2.1 L4.3 -2.7 3.5 -3.7 6.6 -2.4 6.15 -1.95 5.6 -2.05 5.5 -1.9 5.05 -2.1" fill="url(#gradient26)" fill-rule="evenodd" stroke="none"/>
    <path d="M0.2 -12.3 L0.7 -11.9 0.9 -11.4 0.65 -11.55 0.05 -11.9 0.2 -12.3" fill="url(#gradient27)" fill-rule="evenodd" stroke="none"/>
    <path d="M-8.9 -10.8 Q-9.35 -10.15 -7.4 -9.8 L-7.75 -8.7 -6.95 -9.2 -6.9 -8.85 -5.1 -8.05 -5.65 -6.4 Q-6.65 -4.65 -7.05 -4.6 -10.25 -2.7 -11.3 -5.75 L-11.35 -5.8 -11.35 -5.9 -11.4 -5.95 -11.4 -6.1 Q-11.25 -9.9 -9.65 -11.0 L-9.65 -10.6 -9.3 -10.6 -9.0 -10.8 -8.9 -10.8 M-5.55 -10.65 L-5.45 -11.0 -5.1 -10.5 -5.55 -10.65" fill="url(#gradient28)" fill-rule="evenodd" stroke="none"/>
    <path d="M-6.95 -9.2 L-6.25 -10.9 -5.55 -10.65 -5.1 -10.5 -3.9 -9.9 -4.45 -9.0 -4.6 -7.8 -5.1 -8.05 -6.9 -8.85 -6.95 -9.2 M0.8 -5.25 L0.15 -5.55 0.65 -6.0 0.7 -6.0 0.8 -5.25 M1.35 -7.4 L1.7 -7.3 0.9 -6.4 1.35 -7.4" fill="url(#gradient29)" fill-rule="evenodd" stroke="none"/>
    <path d="M0.15 -5.55 Q-3.65 -3.9 -4.6 -7.8 L-4.45 -9.0 -3.9 -9.9 -3.25 -10.45 -0.1 -10.55 0.55 -10.1 1.15 -9.15 Q1.5 -8.65 1.4 -7.65 L1.35 -7.4 0.9 -6.4 0.85 -6.35 0.7 -6.05 0.65 -6.0 0.15 -5.55" fill="url(#gradient30)" fill-rule="evenodd" stroke="none"/>
    <path d="M-9.6 -11.4 L-9.6 -11.5 -9.5 -11.4 -9.6 -11.4" fill="url(#gradient31)" fill-rule="evenodd" stroke="none"/>
    <path d="M-9.65 -11.0 L-9.6 -11.4 -9.5 -11.4 -9.5 -11.35 -9.25 -10.9 -9.3 -10.6 -9.65 -10.6 -9.65 -11.0" fill="url(#gradient32)" fill-rule="evenodd" stroke="none"/>
    <path d="M-7.05 -4.6 L-8.3 -2.0 -8.5 -1.05 Q-9.25 0.45 -12.3 -0.25 -13.4 -1.6 -13.1 -2.45 L-12.2 -3.35 -12.1 -3.3 -12.1 -3.5 -11.9 -4.4 -11.4 -6.1 -11.4 -5.95 -11.35 -5.9 -11.35 -5.8 -11.3 -5.75 Q-10.25 -2.7 -7.05 -4.6" fill="url(#gradient33)" fill-rule="evenodd" stroke="none"/>
    <path d="M-8.5 -1.05 Q-9.0 5.75 -17.05 -2.75 -17.2 -7.7 -11.9 -4.4 L-12.1 -3.5 -12.2 -3.35 -13.1 -2.45 Q-13.4 -1.6 -12.3 -0.25 -9.25 0.45 -8.5 -1.05" fill="url(#gradient34)" fill-rule="evenodd" stroke="none"/>
    <path d="M-9.25 -10.9 L-9.0 -10.8 -9.3 -10.6 -9.25 -10.9" fill="url(#gradient35)" fill-rule="evenodd" stroke="none"/>
    <path d="M1.7 -7.3 L2.05 -7.65 2.25 -7.8 2.45 -7.65 3.9 -7.05 3.95 -6.75 3.95 -6.4 4.0 -4.6 0.7 -6.05 0.85 -6.35 0.9 -6.4 1.7 -7.3" fill="url(#gradient36)" fill-rule="evenodd" stroke="none"/>
    <path d="M3.95 -6.75 L4.15 -6.35 3.95 -6.4 3.95 -6.75" fill="url(#gradient37)" fill-rule="evenodd" stroke="none"/>
    <path d="M9.8 -3.4 L16.25 -0.15 19.35 2.2 19.3 2.3 15.65 1.45 11.1 -0.5 6.6 -2.4 3.5 -3.7 3.45 -3.8 3.15 -3.95 4.0 -4.6 3.95 -6.4 4.15 -6.35 8.9 -3.9 9.8 -3.4" fill="url(#gradient38)" fill-rule="evenodd" stroke="none"/>
    <path d="M3.15 -3.95 Q3.0 -3.1 0.9 -4.35 L0.8 -5.25 0.7 -6.0 0.7 -6.05 4.0 -4.6 3.15 -3.95" fill="url(#gradient39)" fill-rule="evenodd" stroke="none"/>
    <path d="M9.1 -4.9 L9.8 -3.4 8.9 -3.9 9.05 -4.35 9.25 -4.4 9.1 -4.9 M11.1 -0.5 Q11.7 0.55 12.5 3.9 L13.7 5.2 Q13.8 5.8 11.65 8.4 L11.65 8.95 10.65 8.05 9.7 6.4 8.2 2.75 5.05 -2.1 5.5 -1.9 5.6 -2.05 6.15 -1.95 6.6 -2.4 11.1 -0.5" fill="url(#gradient40)" fill-rule="evenodd" stroke="none"/>
    <path d="M0.7 -6.0 L0.65 -6.0 0.7 -6.05 0.7 -6.0" fill="url(#gradient41)" fill-rule="evenodd" stroke="none"/>
    <path d="M13.7 5.2 Q18.6 8.1 11.15 11.3 L9.75 11.1 7.75 8.8 7.05 8.35 7.0 7.6 Q7.95 6.9 9.7 6.4 L10.65 8.05 11.65 8.95 11.65 8.4 Q13.8 5.8 13.7 5.2" fill="url(#gradient42)" fill-rule="evenodd" stroke="none"/>
    <path d="M-12.2 -3.35 L-12.1 -3.5 -12.1 -3.3 -12.2 -3.35" fill="url(#gradient43)" fill-rule="evenodd" stroke="none"/>
  </g>
  <defs>
    <radialGradient cx="0" cy="0" gradientTransform="matrix(0.0034, 0.0, 0.0, 0.0034, -4.6, -52.75)" gradientUnits="userSpaceOnUse" id="gradient0" r="819.2" spreadMethod="pad">
      <stop offset="0.0" stop-color="#403c2f"/>
      <stop offset="1.0" stop-color="#312e24"/>
    </radialGradient>
    <radialGradient cx="0" cy="0" gradientTransform="matrix(0.0087, 0.0, 0.0, 0.0087, -2.65, -47.95)" gradientUnits="userSpaceOnUse" id="gradient1" r="819.2" spreadMethod="pad">
      <stop offset="0.0" stop-color="#635c48"/>
      <stop offset="1.0" stop-color="#3b382b"/>
    </radialGradient>
    <radialGradient cx="0" cy="0" gradientTransform="matrix(0.0265, 0.0, 0.0, 0.0265, 4.25, -44.45)" gradientUnits="userSpaceOnUse" id="gradient2" r="819.2" spreadMethod="pad">
      <stop offset="0.0" stop-color="#615b46"/>
      <stop offset="1.0" stop-color="#3c382c"/>
    </radialGradient>
    <radialGradient cx="0" cy="0" gradientTransform="matrix(0.0218, 0.0, 0.0, 0.0218, -4.7, -32.95)" gradientUnits="userSpaceOnUse" id="gradient3" r="819.2" spreadMethod="pad">
      <stop offset="0.0" stop-color="#3e6183"/>
      <stop offset="1.0" stop-color="#294057"/>
    </radialGradient>
    <radialGradient cx="0" cy="0" gradientTransform="matrix(0.0137, 0.0, 0.0, 0.0137, -0.55, -41.55)" gradientUnits="userSpaceOnUse" id="gradient4" r="819.2" spreadMethod="pad">
      <stop offset="0.0" stop-color="#6bb5dd"/>
      <stop offset="1.0" stop-color="#3e687f"/>
    </radialGradient>
    <radialGradient cx="0" cy="0" gradientTransform="matrix(0.0049, 0.0, 0.0, 0.0049, -1.85, -42.3)" gradientUnits="userSpaceOnUse" id="gradient5" r="819.2" spreadMethod="pad">
      <stop offset="0.0" stop-color="#ffb66a"/>
      <stop offset="1.0" stop-color="#c1884f"/>
    </radialGradient>
    <radialGradient cx="0" cy="0" gradientTransform="matrix(0.0031, 0.0, 0.0, 0.0031, -5.45, -43.45)" gradientUnits="userSpaceOnUse" id="gradient6" r="819.2" spreadMethod="pad">
      <stop offset="0.0" stop-color="#ffc271"/>
      <stop offset="1.0" stop-color="#a27242"/>
    </radialGradient>
    <radialGradient cx="0" cy="0" gradientTransform="matrix(0.0075, 0.0, 0.0, 0.0075, -7.65, -47.35)" gradientUnits="userSpaceOnUse" id="gradient7" r="819.2" spreadMethod="pad">
      <stop offset="0.0" stop-color="#655e49"/>
      <stop offset="1.0" stop-color="#403c2e"/>
    </radialGradient>
    <radialGradient cx="0" cy="0" gradientTransform="matrix(0.0105, 0.0, 0.0, 0.0105, -9.85, -51.55)" gradientUnits="userSpaceOnUse" id="gradient8" r="819.2" spreadMethod="pad">
      <stop offset="0.0" stop-color="#635d48"/>
      <stop offset="1.0" stop-color="#3a3629"/>
    </radialGradient>
    <radialGradient cx="0" cy="0" gradientTransform="matrix(0.0032, 0.0, 0.0, 0.0032, -5.9, -41.1)" gradientUnits="userSpaceOnUse" id="gradient9" r="819.2" spreadMethod="pad">
      <stop offset="0.0" stop-color="#1d2d3d"/>
      <stop offset="1.0" stop-color="#1b2a39"/>
    </radialGradient>
    <radialGradient cx="0" cy="0" gradientTransform="matrix(0.0075, 0.0, 0.0, 0.0075, -8.0, -38.9)" gradientUnits="userSpaceOnUse" id="gradient10" r="819.2" spreadMethod="pad">
      <stop offset="0.0" stop-color="#4d83a0"/>
      <stop offset="1.0" stop-color="#375e73"/>
    </radialGradient>
    <radialGradient cx="0" cy="0" gradientTransform="matrix(0.0059, 0.0, 0.0, 0.0059, -3.9, -40.55)" gradientUnits="userSpaceOnUse" id="gradient11" r="819.2" spreadMethod="pad">
      <stop offset="0.0" stop-color="#ffb86b"/>
      <stop offset="1.0" stop-color="#ca8f53"/>
    </radialGradient>
    <radialGradient cx="0" cy="0" gradientTransform="matrix(0.0072, 0.0, 0.0, 0.0072, -6.4, -38.0)" gradientUnits="userSpaceOnUse" id="gradient12" r="819.2" spreadMethod="pad">
      <stop offset="0.0" stop-color="#9b6e40"/>
      <stop offset="1.0" stop-color="#886038"/>
    </radialGradient>
    <radialGradient cx="0" cy="0" gradientTransform="matrix(0.0032, 0.0, 0.0, 0.0032, -4.0, -41.75)" gradientUnits="userSpaceOnUse" id="gradient13" r="819.2" spreadMethod="pad">
      <stop offset="0.0" stop-color="#261b10"/>
      <stop offset="1.0" stop-color="#261b10"/>
    </radialGradient>
    <radialGradient cx="0" cy="0" gradientTransform="matrix(0.0107, 0.0, 0.0, 0.0107, -4.7, -27.15)" gradientUnits="userSpaceOnUse" id="gradient14" r="819.2" spreadMethod="pad">
      <stop offset="0.0" stop-color="#efe3b8"/>
      <stop offset="1.0" stop-color="#928b70"/>
    </radialGradient>
    <radialGradient cx="0" cy="0" gradientTransform="matrix(0.0118, 0.0, 0.0, 0.0118, -3.4, -26.35)" gradientUnits="userSpaceOnUse" id="gradient15" r="819.2" spreadMethod="pad">
      <stop offset="0.0" stop-color="#ffce78"/>
      <stop offset="1.0" stop-color="#e3a25e"/>
    </radialGradient>
    <radialGradient cx="0" cy="0" gradientTransform="matrix(0.0186, 0.0, 0.0, 0.0186, -1.05, -29.05)" gradientUnits="userSpaceOnUse" id="gradient16" r="819.2" spreadMethod="pad">
      <stop offset="0.0" stop-color="#6f6f6f"/>
      <stop offset="1.0" stop-color="#606060"/>
    </radialGradient>
    <radialGradient cx="0" cy="0" gradientTransform="matrix(0.0119, 0.0, 0.0, 0.0119, 0.6, -18.6)" gradientUnits="userSpaceOnUse" id="gradient17" r="819.2" spreadMethod="pad">
      <stop offset="0.0" stop-color="#eea862"/>
      <stop offset="1.0" stop-color="#c0874f"/>
    </radialGradient>
    <radialGradient cx="0" cy="0" gradientTransform="matrix(0.0129, 0.0, 0.0, 0.0129, -1.25, -18.6)" gradientUnits="userSpaceOnUse" id="gradient18" r="819.2" spreadMethod="pad">
      <stop offset="0.0" stop-color="#958888"/>
      <stop offset="1.0" stop-color="#544c4c"/>
    </radialGradient>
    <radialGradient cx="0" cy="0" gradientTransform="matrix(0.01, 0.0, 0.0, 0.01, -3.95, -23.25)" gradientUnits="userSpaceOnUse" id="gradient19" r="819.2" spreadMethod="pad">
      <stop offset="0.0" stop-color="#fff7c9"/>
      <stop offset="1.0" stop-color="#e5d9b0"/>
    </radialGradient>
    <radialGradient cx="0" cy="0" gradientTransform="matrix(0.0127, 0.0, 0.0, 0.0127, -6.2, -23.7)" gradientUnits="userSpaceOnUse" id="gradient20" r="819.2" spreadMethod="pad">
      <stop offset="0.0" stop-color="#fffacb"/>
      <stop offset="1.0" stop-color="#aea586"/>
    </radialGradient>
    <radialGradient cx="0" cy="0" gradientTransform="matrix(0.0186, 0.0, 0.0, 0.0186, -7.8, -31.4)" gradientUnits="userSpaceOnUse" id="gradient21" r="819.2" spreadMethod="pad">
      <stop offset="0.0" stop-color="#c48a50"/>
      <stop offset="1.0" stop-color="#261b10"/>
    </radialGradient>
    <radialGradient cx="0" cy="0" gradientTransform="matrix(0.0121, 0.0, 0.0, 0.0121, -6.35, -17.65)" gradientUnits="userSpaceOnUse" id="gradient22" r="819.2" spreadMethod="pad">
      <stop offset="0.0" stop-color="#e19f5c"/>
      <stop offset="1.0" stop-color="#8f643b"/>
    </radialGradient>
    <radialGradient cx="0" cy="0" gradientTransform="matrix(0.0075, 0.0, 0.0, 0.0075, -10.0, -13.55)" gradientUnits="userSpaceOnUse" id="gradient23" r="819.2" spreadMethod="pad">
      <stop offset="0.0" stop-color="#7d5833"/>
      <stop offset="1.0" stop-color="#261b10"/>
    </radialGradient>
    <radialGradient cx="0" cy="0" gradientTransform="matrix(0.0022, 0.0, 0.0, 0.0022, -9.55, -12.2)" gradientUnits="userSpaceOnUse" id="gradient24" r="819.2" spreadMethod="pad">
      <stop offset="0.0" stop-color="#b17d49"/>
      <stop offset="1.0" stop-color="#795532"/>
    </radialGradient>
    <radialGradient cx="0" cy="0" gradientTransform="matrix(0.0151, 0.0, 0.0, 0.0151, 6.15, -19.6)" gradientUnits="userSpaceOnUse" id="gradient25" r="819.2" spreadMethod="pad">
      <stop offset="0.0" stop-color="#202020"/>
      <stop offset="1.0" stop-color="#202020"/>
    </radialGradient>
    <radialGradient cx="0" cy="0" gradientTransform="matrix(0.0098, 0.0, 0.0, 0.0098, 4.05, -9.2)" gradientUnits="userSpaceOnUse" id="gradient26" r="819.2" spreadMethod="pad">
      <stop offset="0.0" stop-color="#fff48e"/>
      <stop offset="1.0" stop-color="#dd9c5a"/>
    </radialGradient>
    <radialGradient cx="0" cy="0" gradientTransform="matrix(0.002, 0.0, 0.0, 0.002, 0.8, -12.75)" gradientUnits="userSpaceOnUse" id="gradient27" r="819.2" spreadMethod="pad">
      <stop offset="0.0" stop-color="#ffc271"/>
      <stop offset="1.0" stop-color="#714f2e"/>
    </radialGradient>
    <radialGradient cx="0" cy="0" gradientTransform="matrix(0.0087, 0.0, 0.0, 0.0087, -7.3, -10.5)" gradientUnits="userSpaceOnUse" id="gradient28" r="819.2" spreadMethod="pad">
      <stop offset="0.0" stop-color="#fff28d"/>
      <stop offset="1.0" stop-color="#865f37"/>
    </radialGradient>
    <radialGradient cx="0" cy="0" gradientTransform="matrix(0.0092, 0.0, 0.0, 0.0092, 0.35, -7.45)" gradientUnits="userSpaceOnUse" id="gradient29" r="819.2" spreadMethod="pad">
      <stop offset="0.0" stop-color="#ff3a3a"/>
      <stop offset="1.0" stop-color="#db3131"/>
    </radialGradient>
    <radialGradient cx="0" cy="0" gradientTransform="matrix(0.0043, 0.0, 0.0, 0.0043, -1.75, -8.6)" gradientUnits="userSpaceOnUse" id="gradient30" r="819.2" spreadMethod="pad">
      <stop offset="0.0" stop-color="#ffe786"/>
      <stop offset="1.0" stop-color="#91673c"/>
    </radialGradient>
    <radialGradient cx="0" cy="0" gradientTransform="matrix(0.0039, 0.0, 0.0, 0.0039, -9.9, -13.0)" gradientUnits="userSpaceOnUse" id="gradient31" r="819.2" spreadMethod="pad">
      <stop offset="0.0" stop-color="#a87645"/>
      <stop offset="1.0" stop-color="#65472a"/>
    </radialGradient>
    <radialGradient cx="0" cy="0" gradientTransform="matrix(0.0028, 0.0, 0.0, 0.0028, -9.6, -9.3)" gradientUnits="userSpaceOnUse" id="gradient32" r="819.2" spreadMethod="pad">
      <stop offset="0.0" stop-color="#a47343"/>
      <stop offset="1.0" stop-color="#8e643a"/>
    </radialGradient>
    <radialGradient cx="0" cy="0" gradientTransform="matrix(0.0092, 0.0, 0.0, 0.0092, -11.55, 0.55)" gradientUnits="userSpaceOnUse" id="gradient33" r="819.2" spreadMethod="pad">
      <stop offset="0.0" stop-color="#625959"/>
      <stop offset="1.0" stop-color="#3f3939"/>
    </radialGradient>
    <radialGradient cx="0" cy="0" gradientTransform="matrix(0.0094, 0.0, 0.0, 0.0094, -10.45, -0.6)" gradientUnits="userSpaceOnUse" id="gradient34" r="819.2" spreadMethod="pad">
      <stop offset="0.0" stop-color="#ffec8a"/>
      <stop offset="1.0" stop-color="#dc9b5a"/>
    </radialGradient>
    <radialGradient cx="0" cy="0" gradientTransform="matrix(0.0021, 0.0, 0.0, 0.0021, -9.25, -11.05)" gradientUnits="userSpaceOnUse" id="gradient35" r="819.2" spreadMethod="pad">
      <stop offset="0.0" stop-color="#a87645"/>
      <stop offset="1.0" stop-color="#a27243"/>
    </radialGradient>
    <radialGradient cx="0" cy="0" gradientTransform="matrix(0.004, 0.0, 0.0, 0.004, 3.85, -7.05)" gradientUnits="userSpaceOnUse" id="gradient36" r="819.2" spreadMethod="pad">
      <stop offset="0.0" stop-color="#ffff50"/>
      <stop offset="1.0" stop-color="#ffff50"/>
    </radialGradient>
    <radialGradient cx="0" cy="0" gradientTransform="matrix(0.0044, 0.0, 0.0, 0.0044, 2.55, -3.7)" gradientUnits="userSpaceOnUse" id="gradient37" r="819.2" spreadMethod="pad">
      <stop offset="0.0" stop-color="#ffff4f"/>
      <stop offset="1.0" stop-color="#f0eb45"/>
    </radialGradient>
    <radialGradient cx="0" cy="0" gradientTransform="matrix(0.0232, 0.0, 0.0, 0.0232, 2.7, -7.1)" gradientUnits="userSpaceOnUse" id="gradient38" r="819.2" spreadMethod="pad">
      <stop offset="0.0" stop-color="#f5f5f5"/>
      <stop offset="1.0" stop-color="#f3f3f3"/>
    </radialGradient>
    <radialGradient cx="0" cy="0" gradientTransform="matrix(0.0044, 0.0, 0.0, 0.0044, 3.95, -4.65)" gradientUnits="userSpaceOnUse" id="gradient39" r="819.2" spreadMethod="pad">
      <stop offset="0.0" stop-color="#c1b536"/>
      <stop offset="1.0" stop-color="#b7ac33"/>
    </radialGradient>
    <radialGradient cx="0" cy="0" gradientTransform="matrix(0.0168, 0.0, 0.0, 0.0168, 13.4, 8.1)" gradientUnits="userSpaceOnUse" id="gradient40" r="819.2" spreadMethod="pad">
      <stop offset="0.0" stop-color="#9c8f8f"/>
      <stop offset="1.0" stop-color="#595252"/>
    </radialGradient>
    <radialGradient cx="0" cy="0" gradientTransform="matrix(0.0044, 0.0, 0.0, 0.0044, 2.1, -7.85)" gradientUnits="userSpaceOnUse" id="gradient41" r="819.2" spreadMethod="pad">
      <stop offset="0.0" stop-color="#222009"/>
      <stop offset="1.0" stop-color="#222009"/>
    </radialGradient>
    <radialGradient cx="0" cy="0" gradientTransform="matrix(0.0079, 0.0, 0.0, 0.0079, 13.4, 7.85)" gradientUnits="userSpaceOnUse" id="gradient42" r="819.2" spreadMethod="pad">
      <stop offset="0.0" stop-color="#fff38e"/>
      <stop offset="1.0" stop-color="#b6804a"/>
    </radialGradient>
    <radialGradient cx="0" cy="0" gradientTransform="matrix(0.0062, 0.0, 0.0, 0.0062, -11.3, -7.0)" gradientUnits="userSpaceOnUse" id="gradient43" r="819.2" spreadMethod="pad">
      <stop offset="0.0" stop-color="#121010"/>
      <stop offset="1.0" stop-color="#121010"/>
    </radialGradient>
  </defs>
</svg>
