<?xml version="1.0" encoding="UTF-8" standalone="no"?>
<svg xmlns:ffdec="https://www.free-decompiler.com/flash" xmlns:xlink="http://www.w3.org/1999/xlink" ffdec:objectType="shape" height="68.2px" width="36.4px" xmlns="http://www.w3.org/2000/svg">
  <g transform="matrix(1.0, 0.0, 0.0, 1.0, 25.95, 60.85)">
    <path d="M-0.25 -49.55 L0.15 -50.5 Q1.3 -50.85 1.2 -50.1 L1.35 -50.6 1.85 -49.0 1.85 -46.8 1.85 -45.45 1.75 -45.1 0.85 -45.55 -0.25 -49.55" fill="url(#gradient0)" fill-rule="evenodd" stroke="none"/>
    <path d="M1.35 -50.6 L1.2 -50.1 Q1.3 -50.85 0.15 -50.5 L-0.25 -49.55 -0.3 -49.65 -0.7 -51.65 -1.25 -53.05 Q-0.75 -53.65 -0.5 -55.45 L-0.7 -56.25 -0.4 -56.2 0.0 -55.8 -0.15 -56.25 Q0.15 -56.3 1.5 -53.4 L1.35 -50.6" fill="url(#gradient1)" fill-rule="evenodd" stroke="none"/>
    <path d="M-0.3 -49.65 L-0.25 -49.55 0.85 -45.55 0.85 -45.45 Q-0.3 -42.85 -2.9 -44.45 L-3.05 -44.55 -3.05 -44.6 -3.5 -45.1 -5.1 -47.4 -5.15 -47.9 -4.7 -48.1 -2.75 -47.85 Q-2.3 -48.3 -1.5 -48.2 -1.5 -49.15 -0.75 -49.9 L-0.3 -49.65" fill="url(#gradient2)" fill-rule="evenodd" stroke="none"/>
    <path d="M0.85 -45.55 L1.75 -45.1 2.55 -43.6 2.9 -41.85 Q2.1 -40.2 1.0 -40.4 L0.65 -41.45 Q0.5 -41.25 -0.8 -42.3 L-0.5 -42.35 -0.85 -42.8 -2.3 -43.65 -2.9 -44.45 Q-0.3 -42.85 0.85 -45.45 L0.85 -45.55" fill="url(#gradient3)" fill-rule="evenodd" stroke="none"/>
    <path d="M1.75 -45.1 L1.85 -45.45 1.85 -46.8 2.9 -45.7 3.55 -42.9 3.45 -41.7 3.4 -41.85 2.9 -41.85 2.55 -43.6 1.75 -45.1" fill="url(#gradient4)" fill-rule="evenodd" stroke="none"/>
    <path d="M3.45 -41.7 L3.55 -42.9 4.0 -42.05 3.85 -40.4 3.8 -40.95 3.45 -41.7" fill="url(#gradient5)" fill-rule="evenodd" stroke="none"/>
    <path d="M2.9 -41.85 L3.4 -41.85 3.45 -41.7 3.8 -40.95 3.85 -40.4 3.9 -39.5 3.7 -38.65 3.5 -38.15 2.95 -37.5 2.35 -37.25 2.05 -38.5 1.0 -40.15 1.0 -40.4 Q2.1 -40.2 2.9 -41.85" fill="url(#gradient6)" fill-rule="evenodd" stroke="none"/>
    <path d="M-0.8 -42.3 Q0.5 -41.25 0.65 -41.45 L1.0 -40.4 1.0 -40.15 0.65 -40.6 -0.95 -41.45 -2.7 -41.2 -2.65 -42.05 -1.4 -42.35 -0.8 -42.3 M-5.35 -36.2 L-4.5 -37.25 -4.2 -36.15 -3.2 -34.55 -4.25 -34.85 -4.85 -35.5 -4.95 -35.65 -5.05 -35.75 -5.35 -36.2" fill="url(#gradient7)" fill-rule="evenodd" stroke="none"/>
    <path d="M3.15 -33.8 L5.25 -28.5 5.55 -27.7 Q5.25 -26.85 4.6 -26.75 2.0 -26.35 1.15 -27.95 L1.15 -28.05 -0.85 -31.55 -1.05 -32.15 -1.05 -32.2 -1.4 -33.0 -1.35 -33.1 -1.45 -33.15 -2.3 -33.65 -2.5 -33.8 -2.9 -34.2 -2.95 -34.35 -3.2 -34.55 -4.2 -36.15 -4.5 -37.25 Q-5.15 -39.1 -4.2 -40.25 L-2.7 -41.2 -0.95 -41.45 0.65 -40.6 1.0 -40.15 2.05 -38.5 2.35 -37.25 Q2.8 -35.7 2.6 -34.8 L2.75 -34.5 2.85 -34.35 3.1 -33.85 3.15 -33.8" fill="url(#gradient8)" fill-rule="evenodd" stroke="none"/>
    <path d="M3.7 -38.65 L4.05 -37.5 3.8 -36.8 3.5 -38.15 3.7 -38.65" fill="url(#gradient9)" fill-rule="evenodd" stroke="none"/>
    <path d="M3.8 -36.8 L3.65 -35.8 3.25 -35.1 2.95 -34.65 2.75 -34.5 2.6 -34.8 Q2.8 -35.7 2.35 -37.25 L2.95 -37.5 3.5 -38.15 3.8 -36.8" fill="url(#gradient10)" fill-rule="evenodd" stroke="none"/>
    <path d="M3.25 -35.1 L3.4 -34.65 3.15 -33.95 3.1 -34.35 2.95 -34.65 3.25 -35.1 M3.15 -33.85 L3.15 -33.8 3.1 -33.85 3.15 -33.85" fill="url(#gradient11)" fill-rule="evenodd" stroke="none"/>
    <path d="M3.15 -33.95 L3.15 -33.85 3.1 -33.85 2.85 -34.35 2.75 -34.5 2.95 -34.65 3.1 -34.35 3.15 -33.95" fill="url(#gradient12)" fill-rule="evenodd" stroke="none"/>
    <path d="M2.4 -22.9 Q1.0 -21.9 -0.75 -24.05 L-0.45 -24.95 -0.5 -25.4 Q-0.05 -25.65 0.0 -26.85 L-0.05 -27.95 0.55 -27.9 0.9 -28.05 1.15 -28.05 1.15 -27.95 Q0.95 -26.35 1.45 -25.05 L2.4 -22.9" fill="url(#gradient13)" fill-rule="evenodd" stroke="none"/>
    <path d="M0.9 -28.05 L0.55 -27.9 -0.05 -27.95 -0.7 -29.35 -0.85 -30.1 Q0.35 -28.9 0.6 -28.15 L0.9 -28.05" fill="url(#gradient14)" fill-rule="evenodd" stroke="none"/>
    <path d="M1.15 -28.05 L0.9 -28.05 0.6 -28.15 Q0.35 -28.9 -0.85 -30.1 L-0.9 -30.3 -0.9 -31.25 -0.85 -31.55 1.15 -28.05" fill="url(#gradient15)" fill-rule="evenodd" stroke="none"/>
    <path d="M5.25 -28.5 Q6.9 -26.6 7.3 -21.2 7.5 -19.15 4.6 -18.9 L4.35 -19.45 3.4 -21.6 2.55 -22.5 2.4 -22.9 1.45 -25.05 Q0.95 -26.35 1.15 -27.95 2.0 -26.35 4.6 -26.75 5.25 -26.85 5.55 -27.7 L5.25 -28.5" fill="url(#gradient16)" fill-rule="evenodd" stroke="none"/>
    <path d="M4.65 -17.35 Q3.8 -18.7 4.35 -19.45 L4.6 -18.9 4.65 -17.35" fill="url(#gradient17)" fill-rule="evenodd" stroke="none"/>
    <path d="M-1.3 -20.05 L1.0 -18.1 2.6 -15.65 Q3.5 -14.25 0.15 -12.2 L0.05 -12.2 -0.65 -12.3 -1.55 -12.75 -2.9 -13.75 -1.55 -17.5 -1.3 -20.05" fill="url(#gradient18)" fill-rule="evenodd" stroke="none"/>
    <path d="M7.3 -21.2 Q11.95 -20.0 9.7 -16.35 6.6 -14.05 4.65 -17.35 L4.6 -18.9 Q7.5 -19.15 7.3 -21.2" fill="url(#gradient19)" fill-rule="evenodd" stroke="none"/>
    <path d="M2.6 -15.65 L5.95 -11.1 7.1 -8.85 9.35 -7.3 9.4 -6.95 Q6.6 -3.95 5.3 -5.3 L5.25 -5.35 Q3.15 -9.05 -0.65 -12.3 L0.05 -12.2 0.15 -12.2 Q3.5 -14.25 2.6 -15.65" fill="url(#gradient20)" fill-rule="evenodd" stroke="none"/>
    <path d="M4.6 -3.5 L4.15 -3.9 4.9 -3.55 4.6 -3.5" fill="url(#gradient21)" fill-rule="evenodd" stroke="none"/>
    <path d="M4.15 -3.9 L4.15 -4.6 5.25 -5.1 5.25 -3.65 4.9 -3.55 4.15 -3.9" fill="url(#gradient22)" fill-rule="evenodd" stroke="none"/>
    <path d="M5.45 -2.75 L4.6 -3.5 4.9 -3.55 5.25 -3.65 5.45 -2.9 5.45 -2.75" fill="url(#gradient23)" fill-rule="evenodd" stroke="none"/>
    <path d="M5.25 -5.3 L5.25 -5.35 5.3 -5.3 5.25 -5.3" fill="url(#gradient24)" fill-rule="evenodd" stroke="none"/>
    <path d="M9.4 -6.95 Q10.55 -6.7 10.25 -5.5 L8.75 -3.35 Q6.9 -1.25 5.45 -2.75 L5.45 -2.9 5.25 -3.65 5.25 -5.1 5.25 -5.3 5.3 -5.3 Q6.6 -3.95 9.4 -6.95" fill="url(#gradient25)" fill-rule="evenodd" stroke="none"/>
    <path d="M-19.4 -51.35 L-19.3 -51.1 Q-17.9 -48.3 -21.0 -47.45 L-20.8 -48.1 -20.85 -48.8 -21.6 -50.8 -21.6 -51.8 Q-20.65 -52.95 -19.4 -51.35" fill="url(#gradient26)" fill-rule="evenodd" stroke="none"/>
    <path d="M-21.45 -47.25 Q-26.85 -47.0 -25.8 -51.8 -22.0 -56.1 -19.4 -51.35 -20.65 -52.95 -21.6 -51.8 L-21.6 -50.8 -20.85 -48.8 -20.8 -48.1 -21.0 -47.45 -21.45 -47.25" fill="url(#gradient27)" fill-rule="evenodd" stroke="none"/>
    <path d="M-13.15 -51.1 L-13.85 -52.75 -14.05 -54.85 -13.65 -56.75 -12.7 -58.25 -12.0 -58.35 -11.9 -58.4 -10.65 -58.6 -11.1 -56.55 -11.05 -56.25 -11.7 -55.9 -11.9 -55.45 -11.85 -54.9 Q-13.15 -54.8 -13.05 -51.1 L-13.15 -51.1" fill="url(#gradient28)" fill-rule="evenodd" stroke="none"/>
    <path d="M-0.15 -56.25 L0.0 -55.8 -0.4 -56.2 -0.7 -56.25 -0.5 -55.45 Q-0.75 -53.65 -1.25 -53.05 L-1.45 -53.1 -1.75 -52.85 Q-4.5 -54.4 -4.45 -55.15 L-4.8 -55.2 -4.6 -54.6 -4.6 -53.5 -5.6 -53.8 -5.95 -53.05 Q-6.55 -52.95 -6.8 -53.9 L-7.05 -53.85 -6.8 -53.35 Q-8.15 -52.45 -7.35 -51.85 L-7.8 -51.65 -9.0 -51.8 -8.65 -51.15 -8.7 -50.95 -8.4 -50.6 -8.8 -50.8 Q-9.5 -51.4 -10.25 -53.45 L-11.05 -56.25 -11.1 -56.55 -10.65 -58.6 -9.4 -59.55 -7.5 -60.45 -6.25 -60.35 Q-3.05 -60.7 -0.15 -56.25" fill="url(#gradient29)" fill-rule="evenodd" stroke="none"/>
    <path d="M-11.85 -54.9 L-11.9 -55.45 -11.7 -55.9 -11.05 -56.25 -10.25 -53.45 Q-9.5 -51.4 -8.8 -50.8 L-8.5 -49.85 -7.3 -48.15 -7.6 -48.25 -9.0 -49.25 -10.15 -50.55 -10.8 -51.45 -11.7 -53.45 -11.85 -54.9" fill="url(#gradient30)" fill-rule="evenodd" stroke="none"/>
    <path d="M-16.4 -46.25 Q-20.15 -44.85 -21.45 -47.25 L-21.0 -47.45 Q-17.9 -48.3 -19.3 -51.1 L-18.0 -50.95 -16.7 -50.15 Q-14.5 -48.7 -16.4 -46.25" fill="url(#gradient31)" fill-rule="evenodd" stroke="none"/>
    <path d="M-9.8 -47.3 L-12.65 -46.65 -16.4 -46.25 Q-14.5 -48.7 -16.7 -50.15 L-13.15 -51.1 -13.05 -51.1 -10.8 -51.45 -10.15 -50.55 -8.45 -48.45 -7.8 -48.25 -9.0 -47.4 -9.8 -47.3" fill="url(#gradient32)" fill-rule="evenodd" stroke="none"/>
    <path d="M-9.4 -59.55 Q-8.25 -61.7 -6.25 -60.35 L-7.5 -60.45 -9.4 -59.55" fill="url(#gradient33)" fill-rule="evenodd" stroke="none"/>
    <path d="M-1.25 -53.05 L-0.7 -51.65 -0.3 -49.65 -0.75 -49.9 Q-1.5 -49.15 -1.5 -48.2 -2.3 -48.3 -2.75 -47.85 L-4.7 -48.1 -5.15 -47.9 -5.1 -47.4 -6.15 -48.25 -6.25 -48.35 -8.4 -50.6 -8.7 -50.95 -8.65 -51.15 -9.0 -51.8 -7.8 -51.65 -7.35 -51.85 Q-8.15 -52.45 -6.8 -53.35 L-7.05 -53.85 -6.8 -53.9 Q-6.55 -52.95 -5.95 -53.05 L-5.6 -53.8 -4.6 -53.5 -4.6 -54.6 -4.8 -55.2 -4.45 -55.15 Q-4.5 -54.4 -1.75 -52.85 L-1.45 -53.1 -1.25 -53.05" fill="url(#gradient34)" fill-rule="evenodd" stroke="none"/>
    <path d="M-8.8 -50.8 L-8.4 -50.6 -6.25 -48.35 -6.7 -48.15 -7.3 -48.15 -8.5 -49.85 -8.8 -50.8 M-10.15 -50.55 L-9.0 -49.25 -7.6 -48.25 -7.8 -48.25 -8.45 -48.45 -10.15 -50.55" fill="url(#gradient35)" fill-rule="evenodd" stroke="none"/>
    <path d="M-10.0 -27.6 Q-10.2 -27.5 -11.0 -29.35 L-11.15 -30.55 Q-10.3 -29.65 -7.05 -29.85 -2.0 -30.95 -2.3 -33.2 L-1.95 -32.7 -1.2 -31.65 -0.9 -31.25 -0.9 -30.3 -1.25 -30.3 Q-1.3 -30.05 -2.9 -29.45 L-7.8 -28.5 Q-8.6 -29.7 -9.9 -27.55 L-10.0 -27.6 M-11.45 -33.5 L-11.45 -33.55 -12.9 -34.65 -13.7 -36.7 -13.7 -37.95 Q-13.45 -39.35 -13.05 -39.65 L-14.05 -41.55 -14.25 -43.05 Q-14.0 -44.4 -13.15 -45.1 L-11.9 -45.9 -11.9 -45.95 -11.75 -46.0 -11.7 -46.05 -9.8 -47.3 -9.0 -47.4 -7.8 -48.25 -7.6 -48.25 -7.3 -48.15 -6.7 -48.15 -6.25 -48.35 -6.15 -48.25 -6.15 -47.9 -8.45 -46.85 -9.25 -46.3 -9.75 -46.0 -10.85 -44.55 Q-12.95 -42.5 -12.4 -40.55 L-12.35 -40.35 Q-11.6 -41.35 -10.55 -41.4 L-10.5 -41.4 -9.95 -41.55 -9.85 -41.6 -9.3 -41.7 -8.9 -42.0 -4.15 -44.75 -3.5 -45.1 -3.05 -44.6 -3.05 -44.55 -2.9 -44.45 -2.3 -43.65 -0.85 -42.8 -0.5 -42.35 -0.8 -42.3 -1.4 -42.35 -2.65 -42.05 -3.2 -41.95 -3.4 -41.7 -4.7 -41.05 -6.7 -39.25 -7.05 -38.75 -6.9 -37.85 -6.7 -37.3 -6.35 -36.95 -5.85 -36.35 -5.05 -35.75 -4.95 -35.65 -4.85 -35.5 -4.25 -34.85 -3.8 -34.35 -2.9 -34.2 -2.5 -33.8 Q-2.15 -32.4 -7.65 -32.45 L-9.4 -32.65 Q-11.3 -33.3 -11.45 -33.5" fill="url(#gradient36)" fill-rule="evenodd" stroke="none"/>
    <path d="M-3.5 -45.1 L-4.15 -44.75 -5.25 -44.8 -6.0 -45.1 -6.05 -45.25 -6.05 -45.45 -6.1 -45.45 -6.15 -45.9 -6.15 -47.9 -6.15 -48.25 -5.1 -47.4 -3.5 -45.1" fill="url(#gradient37)" fill-rule="evenodd" stroke="none"/>
    <path d="M-8.9 -42.0 L-9.3 -41.7 -9.85 -41.6 -8.9 -42.0 M-9.95 -41.55 L-10.5 -41.4 -10.6 -41.5 -11.75 -41.1 Q-11.95 -42.5 -11.7 -43.0 L-10.85 -44.55 -9.75 -46.0 -9.25 -46.3 -9.5 -45.9 -9.2 -45.8 -9.65 -45.45 Q-10.7 -43.45 -9.8 -42.0 L-9.95 -41.55" fill="url(#gradient38)" fill-rule="evenodd" stroke="none"/>
    <path d="M-9.25 -46.3 L-8.45 -46.85 -6.15 -47.9 -6.15 -45.9 -8.7 -44.1 -9.8 -42.0 Q-10.7 -43.45 -9.65 -45.45 L-9.2 -45.8 -9.5 -45.9 -9.25 -46.3 M-6.05 -45.25 L-8.45 -44.15 -6.25 -45.45 -6.1 -45.45 -6.05 -45.45 -6.05 -45.25" fill="url(#gradient39)" fill-rule="evenodd" stroke="none"/>
    <path d="M-2.65 -42.05 L-2.7 -41.2 -4.2 -40.25 Q-5.15 -39.1 -4.5 -37.25 L-5.35 -36.2 -6.35 -36.95 -6.7 -37.3 -6.9 -37.85 -6.7 -39.25 -4.7 -41.05 -3.4 -41.7 -3.2 -41.95 -2.65 -42.05 M-4.15 -44.75 L-8.9 -42.0 -9.85 -41.6 -9.95 -41.55 -9.8 -42.0 -8.7 -44.1 -6.15 -45.9 -6.1 -45.45 -6.25 -45.45 -8.45 -44.15 -6.05 -45.25 -6.0 -45.1 -5.25 -44.8 -4.15 -44.75" fill="url(#gradient40)" fill-rule="evenodd" stroke="none"/>
    <path d="M-6.9 -37.85 L-7.05 -38.75 -6.7 -39.25 -6.9 -37.85 M-6.35 -36.95 L-5.35 -36.2 -5.05 -35.75 -5.85 -36.35 -6.35 -36.95 M-2.9 -34.2 L-3.8 -34.35 -4.25 -34.85 -3.2 -34.55 -2.95 -34.35 -2.9 -34.2" fill="url(#gradient41)" fill-rule="evenodd" stroke="none"/>
    <path d="M-10.5 -41.4 L-10.55 -41.4 -10.6 -41.5 -10.5 -41.4" fill="url(#gradient42)" fill-rule="evenodd" stroke="none"/>
    <path d="M-10.55 -41.4 Q-11.6 -41.35 -12.35 -40.35 L-12.4 -40.55 -11.75 -41.1 -10.6 -41.5 -10.55 -41.4" fill="url(#gradient43)" fill-rule="evenodd" stroke="none"/>
    <path d="M-12.4 -40.55 Q-12.95 -42.5 -10.85 -44.55 L-11.7 -43.0 Q-11.95 -42.5 -11.75 -41.1 L-12.4 -40.55" fill="url(#gradient44)" fill-rule="evenodd" stroke="none"/>
    <path d="M-11.15 -30.55 L-11.45 -33.5 Q-11.3 -33.3 -9.4 -32.65 L-7.65 -32.45 Q-2.15 -32.4 -2.5 -33.8 L-2.3 -33.65 -2.35 -33.55 -2.3 -33.2 Q-2.0 -30.95 -7.05 -29.85 -10.3 -29.65 -11.15 -30.55" fill="url(#gradient45)" fill-rule="evenodd" stroke="none"/>
    <path d="M-2.35 -33.55 L-2.3 -33.65 -1.45 -33.15 -1.4 -33.0 -1.05 -32.2 -1.1 -32.15 -1.2 -31.65 -1.95 -32.7 -1.9 -32.7 -2.35 -33.55" fill="url(#gradient46)" fill-rule="evenodd" stroke="none"/>
    <path d="M-2.35 -33.55 L-1.9 -32.7 -1.95 -32.7 -2.3 -33.2 -2.35 -33.55" fill="url(#gradient47)" fill-rule="evenodd" stroke="none"/>
    <path d="M-1.1 -32.15 L-1.05 -32.2 -1.05 -32.15 -1.1 -32.15 M-1.4 -33.0 L-1.45 -33.15 -1.35 -33.1 -1.4 -33.0" fill="url(#gradient48)" fill-rule="evenodd" stroke="none"/>
    <path d="M-1.2 -31.65 L-1.1 -32.15 -1.05 -32.15 -0.85 -31.55 -0.9 -31.25 -1.2 -31.65" fill="url(#gradient49)" fill-rule="evenodd" stroke="none"/>
    <path d="M-0.75 -24.05 L-1.3 -22.5 -1.3 -20.05 -1.55 -17.5 -2.9 -13.75 -2.8 -12.15 -2.9 -11.25 -3.55 -9.7 Q-3.15 -11.2 -5.3 -10.5 L-5.6 -10.85 -6.6 -12.2 -7.35 -12.65 -8.1 -13.7 -8.15 -13.75 Q-11.8 -21.3 -9.95 -27.25 L-9.95 -27.45 -9.9 -27.55 Q-8.6 -29.7 -7.8 -28.5 L-7.8 -28.3 -7.15 -28.5 -5.75 -27.75 Q-6.0 -28.2 -3.7 -27.25 L-2.9 -27.65 Q-1.3 -26.55 -0.9 -27.25 L-0.75 -26.95 -0.65 -25.55 -0.5 -25.6 -0.5 -25.4 -0.45 -24.95 -0.75 -24.05" fill="url(#gradient50)" fill-rule="evenodd" stroke="none"/>
    <path d="M-0.05 -27.95 L0.0 -26.85 Q-0.05 -25.65 -0.5 -25.4 L-0.5 -25.6 -0.65 -25.55 -0.75 -26.95 -0.9 -27.25 Q-1.3 -26.55 -2.9 -27.65 L-3.7 -27.25 Q-6.0 -28.2 -5.75 -27.75 L-7.15 -28.5 -7.8 -28.3 -7.8 -28.5 -2.9 -29.45 Q-1.3 -30.05 -1.25 -30.3 L-0.9 -30.3 -0.85 -30.1 -0.7 -29.35 -0.05 -27.95" fill="url(#gradient51)" fill-rule="evenodd" stroke="none"/>
    <path d="M-10.0 -27.45 L-10.0 -27.6 -9.9 -27.55 -9.95 -27.45 -10.0 -27.45" fill="url(#gradient52)" fill-rule="evenodd" stroke="none"/>
    <path d="M-9.95 -27.25 L-10.0 -27.45 -9.95 -27.45 -9.95 -27.25" fill="url(#gradient53)" fill-rule="evenodd" stroke="none"/>
    <path d="M-6.75 -10.2 L-7.15 -11.45 Q-8.5 -13.2 -8.1 -13.7 L-7.35 -12.65 -6.6 -12.2 -5.6 -10.85 -5.85 -10.8 -6.1 -10.8 -6.05 -10.25 -6.45 -9.95 -6.75 -10.2" fill="url(#gradient54)" fill-rule="evenodd" stroke="none"/>
    <path d="M-2.8 -12.15 Q-0.35 -11.85 -1.75 -3.85 -3.95 -1.1 -6.45 -4.1 L-6.55 -4.35 Q-7.7 -6.85 -6.75 -10.2 L-6.45 -9.95 -6.05 -10.25 -5.85 -10.8 -5.6 -10.85 -5.3 -10.5 Q-3.15 -11.2 -3.55 -9.7 L-2.9 -11.25 -2.8 -12.15" fill="url(#gradient55)" fill-rule="evenodd" stroke="none"/>
    <path d="M-6.05 -10.25 L-6.1 -10.8 -5.85 -10.8 -6.05 -10.25" fill="url(#gradient56)" fill-rule="evenodd" stroke="none"/>
    <path d="M-1.75 -3.85 L-2.05 1.15 -1.8 2.15 Q-1.55 2.85 -2.35 4.45 L-3.65 4.85 -3.7 4.65 Q-7.15 4.3 -6.45 1.9 -6.1 1.45 -6.25 -1.05 L-6.55 -4.15 -6.5 -4.15 -6.45 -4.1 Q-3.95 -1.1 -1.75 -3.85" fill="url(#gradient57)" fill-rule="evenodd" stroke="none"/>
    <path d="M-6.55 -4.2 L-6.55 -4.35 -6.45 -4.1 -6.5 -4.15 -6.55 -4.2" fill="url(#gradient58)" fill-rule="evenodd" stroke="none"/>
    <path d="M-6.55 -4.15 L-6.55 -4.2 -6.5 -4.15 -6.55 -4.15" fill="url(#gradient59)" fill-rule="evenodd" stroke="none"/>
    <path d="M-1.8 2.15 Q0.15 4.85 -2.9 6.25 L-11.05 7.35 -12.25 6.95 -12.4 6.6 -12.55 5.85 -13.05 5.3 Q-12.8 3.55 -11.1 3.05 L-6.45 1.9 Q-7.15 4.3 -3.7 4.65 L-3.65 4.85 -2.35 4.45 Q-1.55 2.85 -1.8 2.15" fill="url(#gradient60)" fill-rule="evenodd" stroke="none"/>
    <path d="M-12.4 6.6 L-13.05 5.3 -12.55 5.85 -12.4 6.6" fill="url(#gradient61)" fill-rule="evenodd" stroke="none"/>
  </g>
  <defs>
    <radialGradient cx="0" cy="0" gradientTransform="matrix(0.007, 0.0, 0.0, 0.007, -0.75, -50.1)" gradientUnits="userSpaceOnUse" id="gradient0" r="819.2" spreadMethod="pad">
      <stop offset="0.0" stop-color="#fff449"/>
      <stop offset="1.0" stop-color="#bbaf34"/>
    </radialGradient>
    <radialGradient cx="0" cy="0" gradientTransform="matrix(0.0074, 0.0, 0.0, 0.0074, -1.8, -51.55)" gradientUnits="userSpaceOnUse" id="gradient1" r="819.2" spreadMethod="pad">
      <stop offset="0.0" stop-color="#fff148"/>
      <stop offset="1.0" stop-color="#a1982d"/>
    </radialGradient>
    <radialGradient cx="0" cy="0" gradientTransform="matrix(0.0092, 0.0, 0.0, 0.0092, -2.1, -51.15)" gradientUnits="userSpaceOnUse" id="gradient2" r="819.2" spreadMethod="pad">
      <stop offset="0.0" stop-color="#fff248"/>
      <stop offset="1.0" stop-color="#aa9f2f"/>
    </radialGradient>
    <radialGradient cx="0" cy="0" gradientTransform="matrix(0.0061, 0.0, 0.0, 0.0061, -0.5, -44.65)" gradientUnits="userSpaceOnUse" id="gradient3" r="819.2" spreadMethod="pad">
      <stop offset="0.0" stop-color="#fffa4a"/>
      <stop offset="1.0" stop-color="#978e2a"/>
    </radialGradient>
    <radialGradient cx="0" cy="0" gradientTransform="matrix(0.0064, 0.0, 0.0, 0.0064, 0.95, -45.8)" gradientUnits="userSpaceOnUse" id="gradient4" r="819.2" spreadMethod="pad">
      <stop offset="0.0" stop-color="#fdee47"/>
      <stop offset="1.0" stop-color="#b5aa32"/>
    </radialGradient>
    <radialGradient cx="0" cy="0" gradientTransform="matrix(0.0031, 0.0, 0.0, 0.0031, 3.0, -42.3)" gradientUnits="userSpaceOnUse" id="gradient5" r="819.2" spreadMethod="pad">
      <stop offset="0.0" stop-color="#c5ba37"/>
      <stop offset="1.0" stop-color="#a69c2e"/>
    </radialGradient>
    <radialGradient cx="0" cy="0" gradientTransform="matrix(0.0056, 0.0, 0.0, 0.0056, 1.7, -41.8)" gradientUnits="userSpaceOnUse" id="gradient6" r="819.2" spreadMethod="pad">
      <stop offset="0.0" stop-color="#ffff4d"/>
      <stop offset="1.0" stop-color="#908728"/>
    </radialGradient>
    <radialGradient cx="0" cy="0" gradientTransform="matrix(0.0143, 0.0, 0.0, 0.0143, -1.3, -45.9)" gradientUnits="userSpaceOnUse" id="gradient7" r="819.2" spreadMethod="pad">
      <stop offset="0.0" stop-color="#7f7474"/>
      <stop offset="1.0" stop-color="#5a5252"/>
    </radialGradient>
    <radialGradient cx="0" cy="0" gradientTransform="matrix(0.0172, 0.0, 0.0, 0.0172, -2.2, -38.5)" gradientUnits="userSpaceOnUse" id="gradient8" r="819.2" spreadMethod="pad">
      <stop offset="0.0" stop-color="#ffd27a"/>
      <stop offset="1.0" stop-color="#d39556"/>
    </radialGradient>
    <radialGradient cx="0" cy="0" gradientTransform="matrix(0.0029, 0.0, 0.0, 0.0029, 3.05, -38.45)" gradientUnits="userSpaceOnUse" id="gradient9" r="819.2" spreadMethod="pad">
      <stop offset="0.0" stop-color="#c7bb38"/>
      <stop offset="1.0" stop-color="#aa9f2f"/>
    </radialGradient>
    <radialGradient cx="0" cy="0" gradientTransform="matrix(0.0045, 0.0, 0.0, 0.0045, 2.3, -37.95)" gradientUnits="userSpaceOnUse" id="gradient10" r="819.2" spreadMethod="pad">
      <stop offset="0.0" stop-color="#ffff4d"/>
      <stop offset="1.0" stop-color="#938b29"/>
    </radialGradient>
    <radialGradient cx="0" cy="0" gradientTransform="matrix(0.0018, 0.0, 0.0, 0.0018, 2.75, -34.9)" gradientUnits="userSpaceOnUse" id="gradient11" r="819.2" spreadMethod="pad">
      <stop offset="0.0" stop-color="#b9ae34"/>
      <stop offset="1.0" stop-color="#a2992d"/>
    </radialGradient>
    <radialGradient cx="0" cy="0" gradientTransform="matrix(0.002, 0.0, 0.0, 0.002, 2.75, -33.95)" gradientUnits="userSpaceOnUse" id="gradient12" r="819.2" spreadMethod="pad">
      <stop offset="0.0" stop-color="#c7bb38"/>
      <stop offset="1.0" stop-color="#ada330"/>
    </radialGradient>
    <radialGradient cx="0" cy="0" gradientTransform="matrix(0.0055, 0.0, 0.0, 0.0055, 1.15, -27.2)" gradientUnits="userSpaceOnUse" id="gradient13" r="819.2" spreadMethod="pad">
      <stop offset="0.0" stop-color="#ffff51"/>
      <stop offset="1.0" stop-color="#6c651d"/>
    </radialGradient>
    <radialGradient cx="0" cy="0" gradientTransform="matrix(0.0024, 0.0, 0.0, 0.0024, -0.05, -29.5)" gradientUnits="userSpaceOnUse" id="gradient14" r="819.2" spreadMethod="pad">
      <stop offset="0.0" stop-color="#dbce3d"/>
      <stop offset="1.0" stop-color="#b1a632"/>
    </radialGradient>
    <radialGradient cx="0" cy="0" gradientTransform="matrix(0.0033, 0.0, 0.0, 0.0033, -0.05, -30.55)" gradientUnits="userSpaceOnUse" id="gradient15" r="819.2" spreadMethod="pad">
      <stop offset="0.0" stop-color="#d4c83b"/>
      <stop offset="1.0" stop-color="#6c651d"/>
    </radialGradient>
    <radialGradient cx="0" cy="0" gradientTransform="matrix(0.0127, 0.0, 0.0, 0.0127, 2.85, -27.45)" gradientUnits="userSpaceOnUse" id="gradient16" r="819.2" spreadMethod="pad">
      <stop offset="0.0" stop-color="#ffdc80"/>
      <stop offset="1.0" stop-color="#bc844d"/>
    </radialGradient>
    <radialGradient cx="0" cy="0" gradientTransform="matrix(0.0021, 0.0, 0.0, 0.0021, 4.65, -18.85)" gradientUnits="userSpaceOnUse" id="gradient17" r="819.2" spreadMethod="pad">
      <stop offset="0.0" stop-color="#ffbf6f"/>
      <stop offset="1.0" stop-color="#b27d49"/>
    </radialGradient>
    <radialGradient cx="0" cy="0" gradientTransform="matrix(0.0086, 0.0, 0.0, 0.0086, -2.9, -17.85)" gradientUnits="userSpaceOnUse" id="gradient18" r="819.2" spreadMethod="pad">
      <stop offset="0.0" stop-color="#ffed8a"/>
      <stop offset="1.0" stop-color="#d09356"/>
    </radialGradient>
    <radialGradient cx="0" cy="0" gradientTransform="matrix(0.0038, 0.0, 0.0, 0.0038, 7.45, -18.6)" gradientUnits="userSpaceOnUse" id="gradient19" r="819.2" spreadMethod="pad">
      <stop offset="0.0" stop-color="#ffe887"/>
      <stop offset="1.0" stop-color="#92673c"/>
    </radialGradient>
    <radialGradient cx="0" cy="0" gradientTransform="matrix(0.012, 0.0, 0.0, 0.012, 6.7, -7.0)" gradientUnits="userSpaceOnUse" id="gradient20" r="819.2" spreadMethod="pad">
      <stop offset="0.0" stop-color="#ffd87e"/>
      <stop offset="1.0" stop-color="#aa7846"/>
    </radialGradient>
    <radialGradient cx="0" cy="0" gradientTransform="matrix(0.0018, 0.0, 0.0, 0.0018, 4.05, -4.05)" gradientUnits="userSpaceOnUse" id="gradient21" r="819.2" spreadMethod="pad">
      <stop offset="0.0" stop-color="#95693d"/>
      <stop offset="1.0" stop-color="#5e4226"/>
    </radialGradient>
    <radialGradient cx="0" cy="0" gradientTransform="matrix(0.0022, 0.0, 0.0, 0.0022, 5.35, -3.45)" gradientUnits="userSpaceOnUse" id="gradient22" r="819.2" spreadMethod="pad">
      <stop offset="0.0" stop-color="#ffda7f"/>
      <stop offset="1.0" stop-color="#ca8e53"/>
    </radialGradient>
    <radialGradient cx="0" cy="0" gradientTransform="matrix(0.0011, 0.0, 0.0, 0.0011, 5.25, -3.75)" gradientUnits="userSpaceOnUse" id="gradient23" r="819.2" spreadMethod="pad">
      <stop offset="0.0" stop-color="#a17242"/>
      <stop offset="1.0" stop-color="#72502f"/>
    </radialGradient>
    <radialGradient cx="0" cy="0" gradientTransform="matrix(0.0139, 0.0, 0.0, 0.0139, 2.55, -15.75)" gradientUnits="userSpaceOnUse" id="gradient24" r="819.2" spreadMethod="pad">
      <stop offset="0.0" stop-color="#261b10"/>
      <stop offset="1.0" stop-color="#261b10"/>
    </radialGradient>
    <radialGradient cx="0" cy="0" gradientTransform="matrix(0.0057, 0.0, 0.0, 0.0057, 8.85, -6.0)" gradientUnits="userSpaceOnUse" id="gradient25" r="819.2" spreadMethod="pad">
      <stop offset="0.0" stop-color="#fff48e"/>
      <stop offset="1.0" stop-color="#886038"/>
    </radialGradient>
    <radialGradient cx="0" cy="0" gradientTransform="matrix(0.0042, 0.0, 0.0, 0.0042, -21.15, -50.95)" gradientUnits="userSpaceOnUse" id="gradient26" r="819.2" spreadMethod="pad">
      <stop offset="0.0" stop-color="#ffd079"/>
      <stop offset="1.0" stop-color="#996c3f"/>
    </radialGradient>
    <radialGradient cx="0" cy="0" gradientTransform="matrix(0.0043, 0.0, 0.0, 0.0043, -22.6, -50.7)" gradientUnits="userSpaceOnUse" id="gradient27" r="819.2" spreadMethod="pad">
      <stop offset="0.0" stop-color="#ffd079"/>
      <stop offset="1.0" stop-color="#a17142"/>
    </radialGradient>
    <radialGradient cx="0" cy="0" gradientTransform="matrix(0.0075, 0.0, 0.0, 0.0075, -10.6, -56.75)" gradientUnits="userSpaceOnUse" id="gradient28" r="819.2" spreadMethod="pad">
      <stop offset="0.0" stop-color="#fff749"/>
      <stop offset="1.0" stop-color="#b0a531"/>
    </radialGradient>
    <radialGradient cx="0" cy="0" gradientTransform="matrix(0.0104, 0.0, 0.0, 0.0104, -4.4, -53.15)" gradientUnits="userSpaceOnUse" id="gradient29" r="819.2" spreadMethod="pad">
      <stop offset="0.0" stop-color="#fff749"/>
      <stop offset="1.0" stop-color="#a1982d"/>
    </radialGradient>
    <radialGradient cx="0" cy="0" gradientTransform="matrix(0.0076, 0.0, 0.0, 0.0076, -10.25, -53.65)" gradientUnits="userSpaceOnUse" id="gradient30" r="819.2" spreadMethod="pad">
      <stop offset="0.0" stop-color="#fffe4c"/>
      <stop offset="1.0" stop-color="#a99f2f"/>
    </radialGradient>
    <radialGradient cx="0" cy="0" gradientTransform="matrix(0.0044, 0.0, 0.0, 0.0044, -18.7, -48.8)" gradientUnits="userSpaceOnUse" id="gradient31" r="819.2" spreadMethod="pad">
      <stop offset="0.0" stop-color="#e29f5d"/>
      <stop offset="1.0" stop-color="#95693d"/>
    </radialGradient>
    <radialGradient cx="0" cy="0" gradientTransform="matrix(0.0129, 0.0, 0.0, 0.0129, -8.25, -49.9)" gradientUnits="userSpaceOnUse" id="gradient32" r="819.2" spreadMethod="pad">
      <stop offset="0.0" stop-color="#ffdf82"/>
      <stop offset="1.0" stop-color="#ae7b47"/>
    </radialGradient>
    <radialGradient cx="0" cy="0" gradientTransform="matrix(0.0029, 0.0, 0.0, 0.0029, -7.45, -59.55)" gradientUnits="userSpaceOnUse" id="gradient33" r="819.2" spreadMethod="pad">
      <stop offset="0.0" stop-color="#958c2a"/>
      <stop offset="1.0" stop-color="#736c20"/>
    </radialGradient>
    <radialGradient cx="0" cy="0" gradientTransform="matrix(0.0071, 0.0, 0.0, 0.0071, -4.05, -52.75)" gradientUnits="userSpaceOnUse" id="gradient34" r="819.2" spreadMethod="pad">
      <stop offset="0.0" stop-color="#fff94a"/>
      <stop offset="1.0" stop-color="#bdb134"/>
    </radialGradient>
    <radialGradient cx="0" cy="0" gradientTransform="matrix(0.0038, 0.0, 0.0, 0.0038, -7.8, -49.65)" gradientUnits="userSpaceOnUse" id="gradient35" r="819.2" spreadMethod="pad">
      <stop offset="0.0" stop-color="#ffc874"/>
      <stop offset="1.0" stop-color="#ab7846"/>
    </radialGradient>
    <radialGradient cx="0" cy="0" gradientTransform="matrix(0.0244, 0.0, 0.0, 0.0244, -7.0, -29.35)" gradientUnits="userSpaceOnUse" id="gradient36" r="819.2" spreadMethod="pad">
      <stop offset="0.0" stop-color="#ffffff"/>
      <stop offset="1.0" stop-color="#b2b2b2"/>
    </radialGradient>
    <radialGradient cx="0" cy="0" gradientTransform="matrix(0.0057, 0.0, 0.0, 0.0057, -3.45, -45.55)" gradientUnits="userSpaceOnUse" id="gradient37" r="819.2" spreadMethod="pad">
      <stop offset="0.0" stop-color="#736969"/>
      <stop offset="1.0" stop-color="#595151"/>
    </radialGradient>
    <radialGradient cx="0" cy="0" gradientTransform="matrix(0.0053, 0.0, 0.0, 0.0053, -9.6, -42.55)" gradientUnits="userSpaceOnUse" id="gradient38" r="819.2" spreadMethod="pad">
      <stop offset="0.0" stop-color="#968888"/>
      <stop offset="1.0" stop-color="#786d6d"/>
    </radialGradient>
    <radialGradient cx="0" cy="0" gradientTransform="matrix(0.0069, 0.0, 0.0, 0.0069, -8.75, -44.15)" gradientUnits="userSpaceOnUse" id="gradient39" r="819.2" spreadMethod="pad">
      <stop offset="0.0" stop-color="#817575"/>
      <stop offset="1.0" stop-color="#574f4f"/>
    </radialGradient>
    <radialGradient cx="0" cy="0" gradientTransform="matrix(0.0086, 0.0, 0.0, 0.0086, -4.75, -39.25)" gradientUnits="userSpaceOnUse" id="gradient40" r="819.2" spreadMethod="pad">
      <stop offset="0.0" stop-color="#7a6f6f"/>
      <stop offset="1.0" stop-color="#5c5454"/>
    </radialGradient>
    <radialGradient cx="0" cy="0" gradientTransform="matrix(0.007, 0.0, 0.0, 0.007, -3.75, -34.4)" gradientUnits="userSpaceOnUse" id="gradient41" r="819.2" spreadMethod="pad">
      <stop offset="0.0" stop-color="#ffffff"/>
      <stop offset="1.0" stop-color="#a0a0a0"/>
    </radialGradient>
    <radialGradient cx="0" cy="0" gradientTransform="matrix(1.0E-4, 0.0, 0.0, 1.0E-4, -10.7, -41.5)" gradientUnits="userSpaceOnUse" id="gradient42" r="819.2" spreadMethod="pad">
      <stop offset="0.0" stop-color="#314c67"/>
      <stop offset="1.0" stop-color="#314c67"/>
    </radialGradient>
    <radialGradient cx="0" cy="0" gradientTransform="matrix(0.0025, 0.0, 0.0, 0.0025, -10.7, -41.5)" gradientUnits="userSpaceOnUse" id="gradient43" r="819.2" spreadMethod="pad">
      <stop offset="0.0" stop-color="#304b64"/>
      <stop offset="1.0" stop-color="#273d53"/>
    </radialGradient>
    <radialGradient cx="0" cy="0" gradientTransform="matrix(0.0053, 0.0, 0.0, 0.0053, -11.0, -44.65)" gradientUnits="userSpaceOnUse" id="gradient44" r="819.2" spreadMethod="pad">
      <stop offset="0.0" stop-color="#41668a"/>
      <stop offset="1.0" stop-color="#314d67"/>
    </radialGradient>
    <radialGradient cx="0" cy="0" gradientTransform="matrix(0.0078, 0.0, 0.0, 0.0078, -7.3, -29.95)" gradientUnits="userSpaceOnUse" id="gradient45" r="819.2" spreadMethod="pad">
      <stop offset="0.0" stop-color="#416588"/>
      <stop offset="1.0" stop-color="#24384c"/>
    </radialGradient>
    <radialGradient cx="0" cy="0" gradientTransform="matrix(0.0031, 0.0, 0.0, 0.0031, -1.9, -33.9)" gradientUnits="userSpaceOnUse" id="gradient46" r="819.2" spreadMethod="pad">
      <stop offset="0.0" stop-color="#b7b7b7"/>
      <stop offset="1.0" stop-color="#a5a5a5"/>
    </radialGradient>
    <radialGradient cx="0" cy="0" gradientTransform="matrix(0.0017, 0.0, 0.0, 0.0017, -2.0, -32.95)" gradientUnits="userSpaceOnUse" id="gradient47" r="819.2" spreadMethod="pad">
      <stop offset="0.0" stop-color="#b7b7b7"/>
      <stop offset="1.0" stop-color="#a6a6a6"/>
    </radialGradient>
    <radialGradient cx="0" cy="0" gradientTransform="matrix(0.0139, 0.0, 0.0, 0.0139, -1.2, -41.2)" gradientUnits="userSpaceOnUse" id="gradient48" r="819.2" spreadMethod="pad">
      <stop offset="0.0" stop-color="#261b10"/>
      <stop offset="1.0" stop-color="#261b10"/>
    </radialGradient>
    <radialGradient cx="0" cy="0" gradientTransform="matrix(0.0023, 0.0, 0.0, 0.0023, -1.25, -32.3)" gradientUnits="userSpaceOnUse" id="gradient49" r="819.2" spreadMethod="pad">
      <stop offset="0.0" stop-color="#625959"/>
      <stop offset="1.0" stop-color="#4f4848"/>
    </radialGradient>
    <radialGradient cx="0" cy="0" gradientTransform="matrix(0.0238, 0.0, 0.0, 0.0238, -5.45, -28.05)" gradientUnits="userSpaceOnUse" id="gradient50" r="819.2" spreadMethod="pad">
      <stop offset="0.0" stop-color="#9a8c8c"/>
      <stop offset="1.0" stop-color="#595151"/>
    </radialGradient>
    <radialGradient cx="0" cy="0" gradientTransform="matrix(0.0085, 0.0, 0.0, 0.0085, -5.4, -30.35)" gradientUnits="userSpaceOnUse" id="gradient51" r="819.2" spreadMethod="pad">
      <stop offset="0.0" stop-color="#9a8c8c"/>
      <stop offset="1.0" stop-color="#605757"/>
    </radialGradient>
    <radialGradient cx="0" cy="0" gradientTransform="matrix(0.0024, 0.0, 0.0, 0.0024, -9.65, -28.55)" gradientUnits="userSpaceOnUse" id="gradient52" r="819.2" spreadMethod="pad">
      <stop offset="0.0" stop-color="#575050"/>
      <stop offset="1.0" stop-color="#4b4444"/>
    </radialGradient>
    <radialGradient cx="0" cy="0" gradientTransform="matrix(0.0155, 0.0, 0.0, 0.0155, -9.8, -17.2)" gradientUnits="userSpaceOnUse" id="gradient53" r="819.2" spreadMethod="pad">
      <stop offset="0.0" stop-color="#4a4343"/>
      <stop offset="1.0" stop-color="#121010"/>
    </radialGradient>
    <radialGradient cx="0" cy="0" gradientTransform="matrix(0.0041, 0.0, 0.0, 0.0041, -5.85, -11.9)" gradientUnits="userSpaceOnUse" id="gradient54" r="819.2" spreadMethod="pad">
      <stop offset="0.0" stop-color="#e3a05d"/>
      <stop offset="1.0" stop-color="#a57443"/>
    </radialGradient>
    <radialGradient cx="0" cy="0" gradientTransform="matrix(0.0115, 0.0, 0.0, 0.0115, -4.5, -11.6)" gradientUnits="userSpaceOnUse" id="gradient55" r="819.2" spreadMethod="pad">
      <stop offset="0.0" stop-color="#fff28d"/>
      <stop offset="1.0" stop-color="#9b6d3f"/>
    </radialGradient>
    <radialGradient cx="0" cy="0" gradientTransform="matrix(0.0029, 0.0, 0.0, 0.0029, -6.15, -10.85)" gradientUnits="userSpaceOnUse" id="gradient56" r="819.2" spreadMethod="pad">
      <stop offset="0.0" stop-color="#c1884f"/>
      <stop offset="1.0" stop-color="#bf874e"/>
    </radialGradient>
    <radialGradient cx="0" cy="0" gradientTransform="matrix(0.0121, 0.0, 0.0, 0.0121, -3.65, 4.75)" gradientUnits="userSpaceOnUse" id="gradient57" r="819.2" spreadMethod="pad">
      <stop offset="0.0" stop-color="#f8af66"/>
      <stop offset="1.0" stop-color="#94683d"/>
    </radialGradient>
    <radialGradient cx="0" cy="0" gradientTransform="matrix(0.0068, 0.0, 0.0, 0.0068, -6.95, -5.35)" gradientUnits="userSpaceOnUse" id="gradient58" r="819.2" spreadMethod="pad">
      <stop offset="0.0" stop-color="#8f653b"/>
      <stop offset="1.0" stop-color="#261b10"/>
    </radialGradient>
    <radialGradient cx="0" cy="0" gradientTransform="matrix(0.0065, 0.0, 0.0, 0.0065, -6.4, -2.7)" gradientUnits="userSpaceOnUse" id="gradient59" r="819.2" spreadMethod="pad">
      <stop offset="0.0" stop-color="#261b10"/>
      <stop offset="1.0" stop-color="#261b10"/>
    </radialGradient>
    <radialGradient cx="0" cy="0" gradientTransform="matrix(0.0099, 0.0, 0.0, 0.0099, -5.2, 3.9)" gradientUnits="userSpaceOnUse" id="gradient60" r="819.2" spreadMethod="pad">
      <stop offset="0.0" stop-color="#fff991"/>
      <stop offset="1.0" stop-color="#ffc572"/>
    </radialGradient>
    <radialGradient cx="0" cy="0" gradientTransform="matrix(0.0028, 0.0, 0.0, 0.0028, -13.25, 4.85)" gradientUnits="userSpaceOnUse" id="gradient61" r="819.2" spreadMethod="pad">
      <stop offset="0.0" stop-color="#ad7a47"/>
      <stop offset="1.0" stop-color="#ab7846"/>
    </radialGradient>
  </defs>
</svg>
