<?xml version="1.0" encoding="UTF-8" standalone="no"?>
<svg xmlns:ffdec="https://www.free-decompiler.com/flash" xmlns:xlink="http://www.w3.org/1999/xlink" ffdec:objectType="shape" height="67.25px" width="36.9px" xmlns="http://www.w3.org/2000/svg">
  <g transform="matrix(1.0, 0.0, 0.0, 1.0, 4.55, 70.6)">
    <path d="M14.65 -62.9 L14.7 -64.55 Q14.5 -65.7 13.95 -65.5 13.85 -67.55 13.45 -68.4 L12.95 -68.8 Q18.5 -66.5 16.25 -59.8 L15.5 -58.25 15.6 -59.95 15.65 -60.4 15.25 -62.1 14.65 -62.9" fill="url(#gradient0)" fill-rule="evenodd" stroke="none"/>
    <path d="M13.95 -65.5 Q14.5 -65.7 14.7 -64.55 L14.65 -62.9 13.85 -60.95 13.0 -59.75 12.6 -59.3 12.4 -59.1 11.65 -58.45 10.85 -57.8 10.3 -57.4 10.35 -57.65 10.5 -57.85 10.6 -58.1 11.45 -59.2 11.8 -60.35 11.8 -60.45 11.95 -60.75 Q12.15 -60.6 13.15 -62.85 L13.95 -65.5" fill="url(#gradient1)" fill-rule="evenodd" stroke="none"/>
    <path d="M13.95 -65.5 L13.15 -62.85 Q12.15 -60.6 11.95 -60.75 L12.0 -60.95 11.5 -61.85 11.6 -62.85 Q10.9 -63.95 9.85 -63.9 L8.9 -64.75 8.85 -65.05 8.05 -64.8 7.15 -64.8 7.05 -64.9 7.0 -64.2 5.4 -63.2 5.1 -63.95 Q4.3 -64.15 4.2 -64.75 L4.25 -65.45 4.55 -65.55 4.25 -66.1 Q2.9 -65.0 3.45 -65.95 L2.8 -64.95 2.45 -64.9 2.45 -65.0 2.5 -65.05 2.5 -65.1 2.6 -65.15 Q5.85 -70.7 9.35 -70.0 L10.85 -69.9 12.3 -69.2 12.95 -68.8 13.45 -68.4 Q13.85 -67.55 13.95 -65.5" fill="url(#gradient2)" fill-rule="evenodd" stroke="none"/>
    <path d="M12.3 -69.2 L10.85 -69.9 9.35 -70.0 Q11.55 -71.55 12.3 -69.2" fill="url(#gradient3)" fill-rule="evenodd" stroke="none"/>
    <path d="M2.45 -64.9 L2.8 -64.95 3.45 -65.95 Q2.9 -65.0 4.25 -66.1 L4.55 -65.55 4.25 -65.45 4.2 -64.75 Q4.3 -64.15 5.1 -63.95 L5.4 -63.2 4.4 -59.05 Q3.85 -60.25 2.05 -58.85 L1.75 -59.35 1.5 -61.5 2.05 -64.1 2.35 -64.7 2.4 -64.75 2.4 -64.8 2.45 -64.9" fill="url(#gradient4)" fill-rule="evenodd" stroke="none"/>
    <path d="M11.95 -60.75 L11.8 -60.45 11.8 -60.35 10.6 -58.85 10.15 -58.25 9.75 -57.75 9.0 -56.95 9.0 -57.1 8.75 -57.1 6.8 -56.3 5.85 -56.35 Q5.4 -57.15 4.9 -56.95 L4.4 -59.05 5.4 -63.2 7.0 -64.2 7.05 -64.9 7.15 -64.8 8.05 -64.8 8.85 -65.05 8.9 -64.75 9.85 -63.9 Q10.9 -63.95 11.6 -62.85 L11.5 -61.85 12.0 -60.95 11.95 -60.75" fill="url(#gradient5)" fill-rule="evenodd" stroke="none"/>
    <path d="M10.6 -58.1 L10.5 -57.85 10.15 -58.25 10.6 -58.85 10.6 -58.1" fill="url(#gradient6)" fill-rule="evenodd" stroke="none"/>
    <path d="M9.0 -56.95 L8.3 -54.55 7.85 -53.6 6.5 -53.05 5.7 -52.15 4.75 -53.45 4.9 -56.95 Q5.4 -57.15 5.85 -56.35 L6.8 -56.3 8.75 -57.1 9.0 -57.1 9.0 -56.95" fill="url(#gradient7)" fill-rule="evenodd" stroke="none"/>
    <path d="M9.0 -56.95 L9.75 -57.75 9.75 -57.5 9.95 -57.55 Q10.3 -53.7 8.3 -54.55 L9.0 -56.95" fill="url(#gradient8)" fill-rule="evenodd" stroke="none"/>
    <path d="M10.5 -57.85 L10.35 -57.65 9.95 -57.55 9.75 -57.5 9.75 -57.75 10.15 -58.25 10.5 -57.85" fill="url(#gradient9)" fill-rule="evenodd" stroke="none"/>
    <path d="M10.35 -57.65 L10.3 -57.4 10.85 -57.8 11.4 -58.0 11.65 -58.45 12.4 -59.1 12.75 -59.0 13.8 -58.05 14.85 -56.35 15.1 -55.55 15.3 -55.05 15.25 -53.85 Q14.95 -50.9 11.45 -47.3 L11.05 -46.35 8.4 -44.6 8.1 -45.1 9.0 -46.7 8.75 -48.65 8.4 -49.05 Q9.55 -50.15 7.85 -53.6 L8.3 -54.55 Q10.3 -53.7 9.95 -57.55 L10.35 -57.65 M2.0 -54.6 L2.5 -53.25 2.5 -53.2 2.35 -52.1 2.05 -52.3 0.95 -52.2 -0.45 -51.55 -0.7 -51.1 -0.65 -50.9 -1.4 -49.7 -1.65 -46.7 Q-6.45 -53.4 0.6 -54.7 L0.8 -54.7 0.9 -54.7 1.25 -54.55 1.35 -54.55 2.0 -54.6 M11.3 -45.95 Q14.1 -40.9 9.15 -37.15 L9.05 -37.1 9.0 -37.15 9.0 -37.4 8.4 -37.8 7.8 -38.75 8.65 -39.95 Q8.6 -41.5 8.35 -41.6 L8.65 -42.05 8.85 -42.25 10.85 -44.6 11.3 -45.95 M3.85 -41.1 L4.15 -41.0 4.15 -39.1 3.8 -39.2 3.85 -41.1" fill="url(#gradient10)" fill-rule="evenodd" stroke="none"/>
    <path d="M11.8 -60.35 L11.45 -59.2 10.6 -58.1 10.6 -58.85 11.8 -60.35 M10.85 -57.8 L11.65 -58.45 11.4 -58.0 10.85 -57.8" fill="url(#gradient11)" fill-rule="evenodd" stroke="none"/>
    <path d="M1.75 -59.35 L2.05 -58.85 Q3.85 -60.25 4.4 -59.05 L4.9 -56.95 4.75 -53.45 Q3.8 -52.3 2.6 -53.2 L2.5 -53.25 2.0 -54.6 1.9 -54.75 1.35 -57.05 1.75 -59.35" fill="url(#gradient12)" fill-rule="evenodd" stroke="none"/>
    <path d="M1.9 -54.75 L2.0 -54.6 1.35 -54.55 1.9 -54.75 M-0.45 -51.55 L0.95 -52.2 2.05 -52.3 2.35 -52.1 2.4 -51.65 2.15 -51.6 2.05 -51.3 1.05 -51.55 -0.35 -51.15 -0.45 -51.55" fill="url(#gradient13)" fill-rule="evenodd" stroke="none"/>
    <path d="M2.5 -53.25 L2.6 -53.2 2.5 -53.2 2.5 -53.25" fill="url(#gradient14)" fill-rule="evenodd" stroke="none"/>
    <path d="M2.6 -53.2 Q3.8 -52.3 4.75 -53.45 L5.7 -52.15 5.9 -49.75 5.85 -48.1 5.25 -47.85 4.3 -47.9 4.0 -48.6 2.7 -50.25 2.45 -50.9 2.4 -51.65 2.35 -52.1 2.5 -53.2 2.6 -53.2" fill="url(#gradient15)" fill-rule="evenodd" stroke="none"/>
    <path d="M2.05 -51.3 L2.15 -51.6 2.4 -51.65 2.45 -50.9 2.0 -51.2 2.05 -51.3" fill="url(#gradient16)" fill-rule="evenodd" stroke="none"/>
    <path d="M-1.65 -46.7 L-1.4 -49.7 -0.65 -50.9 -0.6 -50.95 -0.35 -51.15 1.05 -51.55 2.05 -51.3 2.0 -51.2 2.45 -50.9 2.7 -50.25 4.0 -48.6 4.3 -47.9 4.3 -47.85 4.2 -46.25 4.55 -44.35 4.5 -44.3 3.85 -42.8 3.8 -42.2 3.85 -41.1 3.8 -39.2 3.6 -36.6 3.55 -36.05 3.1 -35.25 Q1.1 -34.1 0.6 -35.25 L-0.1 -35.7 -0.6 -37.25 -0.8 -40.25 -0.8 -40.3 -0.75 -44.05 Q-0.9 -43.65 -1.65 -46.7" fill="url(#gradient17)" fill-rule="evenodd" stroke="none"/>
    <path d="M7.85 -53.6 Q9.55 -50.15 8.4 -49.05 L8.35 -48.85 Q7.85 -48.85 7.0 -47.85 L6.45 -47.15 6.05 -47.85 5.85 -48.1 5.9 -49.75 5.7 -52.15 6.5 -53.05 7.85 -53.6" fill="url(#gradient18)" fill-rule="evenodd" stroke="none"/>
    <path d="M12.6 -59.3 L13.0 -59.75 14.15 -60.2 15.6 -59.95 15.5 -58.25 16.25 -59.8 18.2 -58.5 Q20.2 -58.25 22.0 -57.4 23.25 -57.0 23.7 -56.45 L23.9 -55.1 Q23.9 -53.45 21.15 -53.55 L16.4 -53.65 15.25 -53.85 15.3 -55.05 15.1 -55.55 15.25 -56.9 Q14.55 -57.85 13.8 -58.05 L12.75 -59.0 12.6 -59.3" fill="url(#gradient19)" fill-rule="evenodd" stroke="none"/>
    <path d="M12.4 -59.1 L12.6 -59.3 12.75 -59.0 12.4 -59.1" fill="url(#gradient20)" fill-rule="evenodd" stroke="none"/>
    <path d="M15.1 -55.55 L14.85 -56.35 13.8 -58.05 Q14.55 -57.85 15.25 -56.9 L15.1 -55.55" fill="url(#gradient21)" fill-rule="evenodd" stroke="none"/>
    <path d="M21.15 -53.55 Q23.9 -53.45 23.9 -55.1 L23.7 -56.45 Q23.25 -57.0 22.0 -57.4 L24.3 -57.45 Q26.65 -56.9 27.25 -56.1 L28.3 -55.65 Q28.9 -54.2 28.7 -54.0 L28.5 -53.55 28.0 -53.25 27.15 -53.2 26.75 -53.2 Q22.85 -51.9 21.15 -53.55" fill="url(#gradient22)" fill-rule="evenodd" stroke="none"/>
    <path d="M27.25 -56.1 Q30.9 -58.85 32.35 -55.15 31.25 -49.95 27.45 -52.75 L27.15 -53.2 28.0 -53.25 28.5 -53.55 28.7 -54.0 Q28.9 -54.2 28.3 -55.65 L27.25 -56.1" fill="url(#gradient23)" fill-rule="evenodd" stroke="none"/>
    <path d="M27.45 -52.75 L26.75 -53.2 27.15 -53.2 27.45 -52.75" fill="url(#gradient24)" fill-rule="evenodd" stroke="none"/>
    <path d="M8.4 -44.6 L11.05 -46.35 11.45 -47.3 11.3 -46.6 11.25 -46.15 11.25 -46.0 11.3 -45.95 10.85 -44.6 8.85 -42.25 8.8 -43.65 8.4 -44.6 M3.8 -42.2 L4.3 -41.45 4.15 -41.0 3.85 -41.1 3.8 -42.2" fill="url(#gradient25)" fill-rule="evenodd" stroke="none"/>
    <path d="M11.3 -46.6 L12.5 -45.15 11.25 -46.15 11.3 -46.6 M14.4 -41.65 Q16.35 -37.75 14.4 -31.7 L14.3 -30.8 14.9 -29.8 12.25 -29.6 Q11.9 -29.35 11.05 -30.35 L10.25 -31.7 8.95 -33.2 8.3 -34.55 8.65 -35.25 8.9 -35.5 8.95 -36.8 9.0 -37.0 9.05 -37.05 9.05 -37.1 9.15 -37.15 Q14.4 -36.3 14.4 -41.65" fill="url(#gradient26)" fill-rule="evenodd" stroke="none"/>
    <path d="M11.25 -46.15 L12.5 -45.15 13.95 -43.3 14.4 -41.65 Q14.4 -36.3 9.15 -37.15 14.1 -40.9 11.3 -45.95 L11.25 -46.0 11.25 -46.15" fill="url(#gradient27)" fill-rule="evenodd" stroke="none"/>
    <path d="M8.4 -49.05 L8.75 -48.65 9.0 -46.7 8.1 -45.1 7.65 -44.55 6.85 -44.3 6.55 -45.25 6.45 -47.15 7.0 -47.85 Q7.85 -48.85 8.35 -48.85 L8.4 -49.05" fill="url(#gradient28)" fill-rule="evenodd" stroke="none"/>
    <path d="M8.1 -45.1 L8.4 -44.6 8.8 -43.65 8.85 -42.25 8.65 -42.05 8.35 -41.6 7.45 -40.8 6.45 -40.75 6.4 -40.8 6.55 -41.15 Q6.4 -43.2 6.85 -44.3 L7.65 -44.55 8.1 -45.1" fill="url(#gradient29)" fill-rule="evenodd" stroke="none"/>
    <path d="M5.85 -48.1 L6.05 -47.85 6.45 -47.15 6.55 -45.25 6.85 -44.3 Q5.9 -43.5 4.55 -44.3 L4.55 -44.35 4.2 -46.25 4.3 -47.85 4.3 -47.9 5.25 -47.85 5.85 -48.1" fill="url(#gradient30)" fill-rule="evenodd" stroke="none"/>
    <path d="M4.55 -44.35 L4.55 -44.3 4.5 -44.3 4.55 -44.35" fill="url(#gradient31)" fill-rule="evenodd" stroke="none"/>
    <path d="M6.85 -44.3 Q6.4 -43.2 6.55 -41.15 L6.4 -40.8 5.2 -40.85 4.3 -41.45 3.8 -42.2 3.85 -42.8 4.5 -44.3 4.55 -44.3 Q5.9 -43.5 6.85 -44.3" fill="url(#gradient32)" fill-rule="evenodd" stroke="none"/>
    <path d="M6.4 -40.8 L6.45 -40.75 6.85 -38.15 5.9 -37.85 Q5.55 -37.7 4.55 -38.6 L4.15 -39.1 4.15 -41.0 4.3 -41.45 5.2 -40.85 6.4 -40.8" fill="url(#gradient33)" fill-rule="evenodd" stroke="none"/>
    <path d="M4.15 -39.1 L4.55 -38.6 Q3.55 -36.0 5.25 -35.25 L5.25 -35.2 4.3 -34.35 4.2 -33.7 3.8 -33.85 3.8 -35.25 3.6 -36.6 3.8 -39.2 4.15 -39.1 M7.75 -35.4 L8.55 -36.45 8.4 -37.8 9.0 -37.4 9.0 -37.15 8.95 -37.0 8.95 -36.8 8.9 -35.5 8.65 -35.25 8.3 -34.55 7.8 -35.25 7.75 -35.4" fill="url(#gradient34)" fill-rule="evenodd" stroke="none"/>
    <path d="M4.55 -38.6 Q5.55 -37.7 5.9 -37.85 L6.85 -38.15 6.9 -38.15 6.65 -37.6 6.5 -35.25 6.25 -34.9 5.25 -35.2 5.25 -35.25 Q3.55 -36.0 4.55 -38.6" fill="url(#gradient35)" fill-rule="evenodd" stroke="none"/>
    <path d="M6.45 -40.75 L7.45 -40.8 8.35 -41.6 Q8.6 -41.5 8.65 -39.95 L7.8 -38.75 6.9 -38.15 6.85 -38.15 6.45 -40.75" fill="url(#gradient36)" fill-rule="evenodd" stroke="none"/>
    <path d="M6.9 -38.15 L7.8 -38.75 8.4 -37.8 8.55 -36.45 7.75 -35.4 7.05 -34.85 6.25 -34.9 6.5 -35.25 6.65 -37.6 6.9 -38.15" fill="url(#gradient37)" fill-rule="evenodd" stroke="none"/>
    <path d="M9.0 -37.15 L9.05 -37.1 9.05 -37.05 9.0 -37.0 8.95 -37.0 9.0 -37.15" fill="url(#gradient38)" fill-rule="evenodd" stroke="none"/>
    <path d="M8.95 -37.0 L9.0 -37.0 8.95 -36.8 8.95 -37.0" fill="url(#gradient39)" fill-rule="evenodd" stroke="none"/>
    <path d="M8.95 -33.2 Q9.4 -29.35 6.7 -28.65 2.65 -30.15 4.2 -33.7 L4.3 -34.35 5.25 -35.2 6.25 -34.9 7.05 -34.85 7.75 -35.4 7.8 -35.25 8.3 -34.55 8.95 -33.2" fill="url(#gradient40)" fill-rule="evenodd" stroke="none"/>
    <path d="M3.6 -36.6 L3.8 -35.25 3.8 -33.85 Q3.1 -30.3 2.6 -29.95 L2.4 -28.65 2.35 -28.2 1.7 -27.85 0.4 -27.7 Q-0.8 -28.05 -0.75 -28.4 -1.7 -31.9 -1.2 -35.25 L-0.8 -37.0 -0.6 -37.25 -0.1 -35.7 0.6 -35.25 Q1.1 -34.1 3.1 -35.25 L3.55 -36.05 3.6 -36.6" fill="url(#gradient41)" fill-rule="evenodd" stroke="none"/>
    <path d="M6.7 -28.65 Q6.15 -25.25 5.75 -24.6 L5.6 -22.55 5.55 -22.15 Q3.65 -20.4 3.65 -20.05 L3.6 -21.4 Q1.95 -21.3 2.1 -21.85 L2.1 -21.9 1.5 -23.05 Q5.95 -25.45 2.4 -28.65 L2.6 -29.95 Q3.1 -30.3 3.8 -33.85 L4.2 -33.7 Q2.65 -30.15 6.7 -28.65 M-1.2 -28.15 Q-3.8 -35.75 -0.85 -40.25 L-0.8 -40.25 -0.6 -37.25 -0.8 -37.0 -1.2 -35.25 Q-1.7 -31.9 -0.75 -28.4 L-1.2 -28.15" fill="url(#gradient42)" fill-rule="evenodd" stroke="none"/>
    <path d="M1.1 -23.0 Q-3.65 -24.15 -1.2 -28.15 L-0.75 -28.4 Q-0.8 -28.05 0.4 -27.7 L1.7 -27.85 2.35 -28.2 2.4 -28.65 Q5.95 -25.45 1.5 -23.05 L1.1 -23.0" fill="url(#gradient43)" fill-rule="evenodd" stroke="none"/>
    <path d="M14.4 -31.7 Q17.7 -29.45 17.3 -25.65 16.6 -22.75 12.95 -24.35 10.4 -26.25 11.05 -30.35 11.9 -29.35 12.25 -29.6 L14.9 -29.8 14.3 -30.8 14.4 -31.7" fill="url(#gradient44)" fill-rule="evenodd" stroke="none"/>
    <path d="M17.4 -25.45 Q17.65 -26.15 20.6 -23.85 L20.35 -22.55 19.05 -18.9 Q18.45 -17.6 17.8 -17.0 L16.65 -16.5 Q14.15 -16.5 14.3 -19.05 L14.3 -19.1 14.35 -19.1 Q15.4 -16.8 17.75 -18.65 18.9 -21.25 17.45 -22.65 L17.4 -25.45" fill="url(#gradient45)" fill-rule="evenodd" stroke="none"/>
    <path d="M17.3 -25.65 L17.4 -25.45 17.45 -22.65 Q18.9 -21.25 17.75 -18.65 15.4 -16.8 14.35 -19.1 L14.3 -19.1 14.3 -19.15 Q13.6 -21.1 13.8 -22.35 L12.95 -24.35 Q16.6 -22.75 17.3 -25.65" fill="url(#gradient46)" fill-rule="evenodd" stroke="none"/>
    <path d="M1.55 -21.35 L1.35 -22.5 1.15 -22.65 1.1 -23.0 1.5 -23.05 2.1 -21.9 1.75 -22.0 1.8 -21.4 1.55 -21.35" fill="url(#gradient47)" fill-rule="evenodd" stroke="none"/>
    <path d="M2.1 -21.9 L2.1 -21.85 1.8 -21.4 1.75 -22.0 2.1 -21.9" fill="url(#gradient48)" fill-rule="evenodd" stroke="none"/>
    <path d="M5.6 -22.55 Q7.8 -22.8 6.3 -14.2 4.05 -11.4 1.45 -14.4 L1.3 -14.55 0.8 -17.35 Q0.85 -19.9 1.55 -21.35 L1.8 -21.4 2.1 -21.85 Q1.95 -21.3 3.6 -21.4 L3.65 -20.05 Q3.65 -20.4 5.55 -22.15 L5.6 -22.55" fill="url(#gradient49)" fill-rule="evenodd" stroke="none"/>
    <path d="M1.3 -14.4 L1.3 -14.55 1.45 -14.4 1.3 -14.4" fill="url(#gradient50)" fill-rule="evenodd" stroke="none"/>
    <path d="M6.3 -14.2 L6.15 -10.35 6.5 -7.3 6.65 -7.1 Q6.55 -6.6 4.95 -4.95 L3.5 -5.05 Q0.55 -7.2 2.0 -8.9 L1.3 -14.4 1.45 -14.4 Q4.05 -11.4 6.3 -14.2" fill="url(#gradient51)" fill-rule="evenodd" stroke="none"/>
    <path d="M6.65 -7.1 Q8.45 -4.55 5.0 -3.35 -1.75 -3.9 -4.55 -6.4 -4.85 -10.55 2.0 -8.9 0.55 -7.2 3.5 -5.05 L4.95 -4.95 Q6.55 -6.6 6.65 -7.1" fill="url(#gradient52)" fill-rule="evenodd" stroke="none"/>
    <path d="M1.25 -54.55 L0.9 -54.7 0.95 -54.75 1.25 -54.55 M0.8 -54.7 L0.6 -54.7 0.85 -54.8 0.8 -54.7" fill="url(#gradient53)" fill-rule="evenodd" stroke="none"/>
    <path d="M0.9 -54.7 L0.8 -54.7 0.85 -54.8 0.95 -54.75 0.9 -54.7" fill="url(#gradient54)" fill-rule="evenodd" stroke="none"/>
    <path d="M-0.7 -51.1 L-0.45 -51.55 -0.35 -51.15 -0.6 -50.95 -0.7 -51.1" fill="url(#gradient55)" fill-rule="evenodd" stroke="none"/>
    <path d="M-0.65 -50.9 L-0.7 -51.1 -0.6 -50.95 -0.65 -50.9" fill="url(#gradient56)" fill-rule="evenodd" stroke="none"/>
    <path d="M-0.85 -40.25 L-0.8 -40.3 -0.8 -40.25 -0.85 -40.25" fill="url(#gradient57)" fill-rule="evenodd" stroke="none"/>
  </g>
  <defs>
    <radialGradient cx="0" cy="0" gradientTransform="matrix(0.0115, 0.0, 0.0, 0.0115, 11.7, -66.95)" gradientUnits="userSpaceOnUse" id="gradient0" r="819.2" spreadMethod="pad">
      <stop offset="0.0" stop-color="#fff148"/>
      <stop offset="1.0" stop-color="#aba130"/>
    </radialGradient>
    <radialGradient cx="0" cy="0" gradientTransform="matrix(0.0077, 0.0, 0.0, 0.0077, 13.05, -63.1)" gradientUnits="userSpaceOnUse" id="gradient1" r="819.2" spreadMethod="pad">
      <stop offset="0.0" stop-color="#fff248"/>
      <stop offset="1.0" stop-color="#aca230"/>
    </radialGradient>
    <radialGradient cx="0" cy="0" gradientTransform="matrix(0.0083, 0.0, 0.0, 0.0083, 8.2, -64.15)" gradientUnits="userSpaceOnUse" id="gradient2" r="819.2" spreadMethod="pad">
      <stop offset="0.0" stop-color="#faeb46"/>
      <stop offset="1.0" stop-color="#a49a2d"/>
    </radialGradient>
    <radialGradient cx="0" cy="0" gradientTransform="matrix(0.0038, 0.0, 0.0, 0.0038, 11.95, -68.55)" gradientUnits="userSpaceOnUse" id="gradient3" r="819.2" spreadMethod="pad">
      <stop offset="0.0" stop-color="#ada331"/>
      <stop offset="1.0" stop-color="#736c20"/>
    </radialGradient>
    <radialGradient cx="0" cy="0" gradientTransform="matrix(0.0082, 0.0, 0.0, 0.0082, 6.9, -61.5)" gradientUnits="userSpaceOnUse" id="gradient4" r="819.2" spreadMethod="pad">
      <stop offset="0.0" stop-color="#faeb46"/>
      <stop offset="1.0" stop-color="#bcb135"/>
    </radialGradient>
    <radialGradient cx="0" cy="0" gradientTransform="matrix(0.0066, 0.0016, -0.0032, 0.0135, 7.5, -63.05)" gradientUnits="userSpaceOnUse" id="gradient5" r="819.2" spreadMethod="pad">
      <stop offset="0.0" stop-color="#f8e945"/>
      <stop offset="1.0" stop-color="#aba130"/>
    </radialGradient>
    <radialGradient cx="0" cy="0" gradientTransform="matrix(0.0026, 0.0, 0.0, 0.0026, 9.15, -59.45)" gradientUnits="userSpaceOnUse" id="gradient6" r="819.2" spreadMethod="pad">
      <stop offset="0.0" stop-color="#de9c5b"/>
      <stop offset="1.0" stop-color="#d19356"/>
    </radialGradient>
    <radialGradient cx="0" cy="0" gradientTransform="matrix(0.0073, 0.0, 0.0, 0.0073, 6.45, -57.95)" gradientUnits="userSpaceOnUse" id="gradient7" r="819.2" spreadMethod="pad">
      <stop offset="0.0" stop-color="#f4e544"/>
      <stop offset="1.0" stop-color="#b3a832"/>
    </radialGradient>
    <radialGradient cx="0" cy="0" gradientTransform="matrix(0.0058, 0.0, 0.0, 0.0058, 8.0, -54.45)" gradientUnits="userSpaceOnUse" id="gradient8" r="819.2" spreadMethod="pad">
      <stop offset="0.0" stop-color="#706666"/>
      <stop offset="1.0" stop-color="#645b5b"/>
    </radialGradient>
    <radialGradient cx="0" cy="0" gradientTransform="matrix(0.0026, 0.0, 0.0, 0.0026, 9.15, -59.45)" gradientUnits="userSpaceOnUse" id="gradient9" r="819.2" spreadMethod="pad">
      <stop offset="0.0" stop-color="#e9a460"/>
      <stop offset="1.0" stop-color="#de9d5b"/>
    </radialGradient>
    <radialGradient cx="0" cy="0" gradientTransform="matrix(0.0254, 0.0, 0.0, 0.0254, 3.9, -40.25)" gradientUnits="userSpaceOnUse" id="gradient10" r="819.2" spreadMethod="pad">
      <stop offset="0.0" stop-color="#ffffff"/>
      <stop offset="1.0" stop-color="#8c8c8c"/>
    </radialGradient>
    <radialGradient cx="0" cy="0" gradientTransform="matrix(0.004, 0.0, 0.0, 0.004, 10.5, -57.8)" gradientUnits="userSpaceOnUse" id="gradient11" r="819.2" spreadMethod="pad">
      <stop offset="0.0" stop-color="#cc9054"/>
      <stop offset="1.0" stop-color="#ac7946"/>
    </radialGradient>
    <radialGradient cx="0" cy="0" gradientTransform="matrix(0.0099, 0.0, 0.0, 0.0099, 4.75, -60.2)" gradientUnits="userSpaceOnUse" id="gradient12" r="819.2" spreadMethod="pad">
      <stop offset="0.0" stop-color="#fdee47"/>
      <stop offset="1.0" stop-color="#b1a731"/>
    </radialGradient>
    <radialGradient cx="0" cy="0" gradientTransform="matrix(0.0062, 0.0, 0.0, 0.0062, 3.9, -51.05)" gradientUnits="userSpaceOnUse" id="gradient13" r="819.2" spreadMethod="pad">
      <stop offset="0.0" stop-color="#8a7d7d"/>
      <stop offset="1.0" stop-color="#534b4b"/>
    </radialGradient>
    <radialGradient cx="0" cy="0" gradientTransform="matrix(0.0073, 0.0, 0.0, 0.0073, 2.35, -53.75)" gradientUnits="userSpaceOnUse" id="gradient14" r="819.2" spreadMethod="pad">
      <stop offset="0.0" stop-color="#222009"/>
      <stop offset="1.0" stop-color="#222009"/>
    </radialGradient>
    <radialGradient cx="0" cy="0" gradientTransform="matrix(0.0075, 0.0, 0.0, 0.0075, 4.7, -53.5)" gradientUnits="userSpaceOnUse" id="gradient15" r="819.2" spreadMethod="pad">
      <stop offset="0.0" stop-color="#fff047"/>
      <stop offset="1.0" stop-color="#b3a832"/>
    </radialGradient>
    <radialGradient cx="0" cy="0" gradientTransform="matrix(0.0105, 0.0, 0.0, 0.0105, 2.0, -50.2)" gradientUnits="userSpaceOnUse" id="gradient16" r="819.2" spreadMethod="pad">
      <stop offset="0.0" stop-color="#7f7474"/>
      <stop offset="1.0" stop-color="#6b6262"/>
    </radialGradient>
    <radialGradient cx="0" cy="0" gradientTransform="matrix(0.0175, 0.0, 0.0, 0.0175, 1.2, -48.6)" gradientUnits="userSpaceOnUse" id="gradient17" r="819.2" spreadMethod="pad">
      <stop offset="0.0" stop-color="#ffcc77"/>
      <stop offset="1.0" stop-color="#bf874e"/>
    </radialGradient>
    <radialGradient cx="0" cy="0" gradientTransform="matrix(0.0076, 0.0, 0.0, 0.0076, 6.3, -53.25)" gradientUnits="userSpaceOnUse" id="gradient18" r="819.2" spreadMethod="pad">
      <stop offset="0.0" stop-color="#fff148"/>
      <stop offset="1.0" stop-color="#b0a531"/>
    </radialGradient>
    <radialGradient cx="0" cy="0" gradientTransform="matrix(0.0128, 0.0, 0.0, 0.0128, 14.05, -57.1)" gradientUnits="userSpaceOnUse" id="gradient19" r="819.2" spreadMethod="pad">
      <stop offset="0.0" stop-color="#ffd57c"/>
      <stop offset="1.0" stop-color="#bf874e"/>
    </radialGradient>
    <radialGradient cx="0" cy="0" gradientTransform="matrix(0.0037, 0.0, 0.0, 0.0037, 11.05, -58.4)" gradientUnits="userSpaceOnUse" id="gradient20" r="819.2" spreadMethod="pad">
      <stop offset="0.0" stop-color="#847878"/>
      <stop offset="1.0" stop-color="#655d5d"/>
    </radialGradient>
    <radialGradient cx="0" cy="0" gradientTransform="matrix(0.0049, 0.0, 0.0, 0.0049, 14.4, -55.5)" gradientUnits="userSpaceOnUse" id="gradient21" r="819.2" spreadMethod="pad">
      <stop offset="0.0" stop-color="#746969"/>
      <stop offset="1.0" stop-color="#585151"/>
    </radialGradient>
    <radialGradient cx="0" cy="0" gradientTransform="matrix(0.0081, 0.0, 0.0, 0.0081, 23.15, -55.2)" gradientUnits="userSpaceOnUse" id="gradient22" r="819.2" spreadMethod="pad">
      <stop offset="0.0" stop-color="#ffd47b"/>
      <stop offset="1.0" stop-color="#ba834d"/>
    </radialGradient>
    <radialGradient cx="0" cy="0" gradientTransform="matrix(0.0035, 0.0, 0.0, 0.0035, 29.5, -54.75)" gradientUnits="userSpaceOnUse" id="gradient23" r="819.2" spreadMethod="pad">
      <stop offset="0.0" stop-color="#ffed8a"/>
      <stop offset="1.0" stop-color="#8e653a"/>
    </radialGradient>
    <radialGradient cx="0" cy="0" gradientTransform="matrix(9.0E-4, 0.0, 0.0, 9.0E-4, 27.2, -53.3)" gradientUnits="userSpaceOnUse" id="gradient24" r="819.2" spreadMethod="pad">
      <stop offset="0.0" stop-color="#e8a45f"/>
      <stop offset="1.0" stop-color="#845d36"/>
    </radialGradient>
    <radialGradient cx="0" cy="0" gradientTransform="matrix(0.0074, 0.0, 0.0, 0.0074, 9.1, -42.7)" gradientUnits="userSpaceOnUse" id="gradient25" r="819.2" spreadMethod="pad">
      <stop offset="0.0" stop-color="#2c455d"/>
      <stop offset="1.0" stop-color="#213345"/>
    </radialGradient>
    <radialGradient cx="0" cy="0" gradientTransform="matrix(0.0192, 0.0, 0.0, 0.0192, 12.35, -44.2)" gradientUnits="userSpaceOnUse" id="gradient26" r="819.2" spreadMethod="pad">
      <stop offset="0.0" stop-color="#635b5b"/>
      <stop offset="1.0" stop-color="#494242"/>
    </radialGradient>
    <radialGradient cx="0" cy="0" gradientTransform="matrix(0.007, 0.0, 0.0, 0.007, 10.45, -42.7)" gradientUnits="userSpaceOnUse" id="gradient27" r="819.2" spreadMethod="pad">
      <stop offset="0.0" stop-color="#978989"/>
      <stop offset="1.0" stop-color="#443d3d"/>
    </radialGradient>
    <radialGradient cx="0" cy="0" gradientTransform="matrix(0.0052, 0.0, 0.0, 0.0052, 6.95, -48.4)" gradientUnits="userSpaceOnUse" id="gradient28" r="819.2" spreadMethod="pad">
      <stop offset="0.0" stop-color="#f9ea46"/>
      <stop offset="1.0" stop-color="#867e25"/>
    </radialGradient>
    <radialGradient cx="0" cy="0" gradientTransform="matrix(0.0048, 0.0, 0.0, 0.0048, 7.05, -44.55)" gradientUnits="userSpaceOnUse" id="gradient29" r="819.2" spreadMethod="pad">
      <stop offset="0.0" stop-color="#faeb46"/>
      <stop offset="1.0" stop-color="#726c20"/>
    </radialGradient>
    <radialGradient cx="0" cy="0" gradientTransform="matrix(0.0066, 0.0, 0.0, 0.0066, 5.3, -49.1)" gradientUnits="userSpaceOnUse" id="gradient30" r="819.2" spreadMethod="pad">
      <stop offset="0.0" stop-color="#fff148"/>
      <stop offset="1.0" stop-color="#857d25"/>
    </radialGradient>
    <radialGradient cx="0" cy="0" gradientTransform="matrix(8.0E-4, 0.0, 0.0, 8.0E-4, 4.15, -44.7)" gradientUnits="userSpaceOnUse" id="gradient31" r="819.2" spreadMethod="pad">
      <stop offset="0.0" stop-color="#777021"/>
      <stop offset="1.0" stop-color="#6a641d"/>
    </radialGradient>
    <radialGradient cx="0" cy="0" gradientTransform="matrix(0.0047, 0.0, 0.0, 0.0047, 5.65, -44.6)" gradientUnits="userSpaceOnUse" id="gradient32" r="819.2" spreadMethod="pad">
      <stop offset="0.0" stop-color="#fff649"/>
      <stop offset="1.0" stop-color="#766e21"/>
    </radialGradient>
    <radialGradient cx="0" cy="0" gradientTransform="matrix(0.0043, 0.0, 0.0, 0.0043, 5.75, -41.4)" gradientUnits="userSpaceOnUse" id="gradient33" r="819.2" spreadMethod="pad">
      <stop offset="0.0" stop-color="#fffb4b"/>
      <stop offset="1.0" stop-color="#756e21"/>
    </radialGradient>
    <radialGradient cx="0" cy="0" gradientTransform="matrix(0.0098, 0.0, 0.0, 0.0098, 4.05, -41.2)" gradientUnits="userSpaceOnUse" id="gradient34" r="819.2" spreadMethod="pad">
      <stop offset="0.0" stop-color="#958888"/>
      <stop offset="1.0" stop-color="#5e5656"/>
    </radialGradient>
    <radialGradient cx="0" cy="0" gradientTransform="matrix(0.004, 0.0, 0.0, 0.004, 5.8, -38.25)" gradientUnits="userSpaceOnUse" id="gradient35" r="819.2" spreadMethod="pad">
      <stop offset="0.0" stop-color="#ffff4c"/>
      <stop offset="1.0" stop-color="#746e20"/>
    </radialGradient>
    <radialGradient cx="0" cy="0" gradientTransform="matrix(0.0045, 0.0, 0.0, 0.0045, 7.0, -41.85)" gradientUnits="userSpaceOnUse" id="gradient36" r="819.2" spreadMethod="pad">
      <stop offset="0.0" stop-color="#fff047"/>
      <stop offset="1.0" stop-color="#726b20"/>
    </radialGradient>
    <radialGradient cx="0" cy="0" gradientTransform="matrix(0.0051, 0.0, 0.0, 0.0051, 6.05, -39.0)" gradientUnits="userSpaceOnUse" id="gradient37" r="819.2" spreadMethod="pad">
      <stop offset="0.0" stop-color="#ffff4d"/>
      <stop offset="1.0" stop-color="#6e681f"/>
    </radialGradient>
    <radialGradient cx="0" cy="0" gradientTransform="matrix(0.0245, 0.0, 0.0, 0.0245, -0.65, -54.5)" gradientUnits="userSpaceOnUse" id="gradient38" r="819.2" spreadMethod="pad">
      <stop offset="0.0" stop-color="#5b5b5b"/>
      <stop offset="1.0" stop-color="#202020"/>
    </radialGradient>
    <radialGradient cx="0" cy="0" gradientTransform="matrix(0.0011, 0.0, 0.0, 0.0011, 9.15, -37.7)" gradientUnits="userSpaceOnUse" id="gradient39" r="819.2" spreadMethod="pad">
      <stop offset="0.0" stop-color="#969696"/>
      <stop offset="1.0" stop-color="#707070"/>
    </radialGradient>
    <radialGradient cx="0" cy="0" gradientTransform="matrix(0.0079, 0.0, 0.0, 0.0079, 6.15, -35.15)" gradientUnits="userSpaceOnUse" id="gradient40" r="819.2" spreadMethod="pad">
      <stop offset="0.0" stop-color="#ffff4f"/>
      <stop offset="1.0" stop-color="#797221"/>
    </radialGradient>
    <radialGradient cx="0" cy="0" gradientTransform="matrix(0.0124, 0.0, 0.0, 0.0124, 1.2, -36.15)" gradientUnits="userSpaceOnUse" id="gradient41" r="819.2" spreadMethod="pad">
      <stop offset="0.0" stop-color="#ffd57c"/>
      <stop offset="1.0" stop-color="#a37343"/>
    </radialGradient>
    <radialGradient cx="0" cy="0" gradientTransform="matrix(0.0213, 0.0, 0.0, 0.0213, 4.95, -36.35)" gradientUnits="userSpaceOnUse" id="gradient42" r="819.2" spreadMethod="pad">
      <stop offset="0.0" stop-color="#877b7b"/>
      <stop offset="1.0" stop-color="#564e4e"/>
    </radialGradient>
    <radialGradient cx="0" cy="0" gradientTransform="matrix(0.0041, 0.0, 0.0, 0.0041, 0.85, -26.5)" gradientUnits="userSpaceOnUse" id="gradient43" r="819.2" spreadMethod="pad">
      <stop offset="0.0" stop-color="#ffe485"/>
      <stop offset="1.0" stop-color="#8d633a"/>
    </radialGradient>
    <radialGradient cx="0" cy="0" gradientTransform="matrix(0.0091, 0.0, 0.0, 0.0091, 12.85, -30.6)" gradientUnits="userSpaceOnUse" id="gradient44" r="819.2" spreadMethod="pad">
      <stop offset="0.0" stop-color="#fff28d"/>
      <stop offset="1.0" stop-color="#8f653a"/>
    </radialGradient>
    <radialGradient cx="0" cy="0" gradientTransform="matrix(0.0074, 0.0, 0.0, 0.0074, 16.3, -19.8)" gradientUnits="userSpaceOnUse" id="gradient45" r="819.2" spreadMethod="pad">
      <stop offset="0.0" stop-color="#fff08c"/>
      <stop offset="1.0" stop-color="#d39557"/>
    </radialGradient>
    <radialGradient cx="0" cy="0" gradientTransform="matrix(0.0101, 0.0, 0.0, 0.0101, 17.6, -18.75)" gradientUnits="userSpaceOnUse" id="gradient46" r="819.2" spreadMethod="pad">
      <stop offset="0.0" stop-color="#c48a50"/>
      <stop offset="1.0" stop-color="#825b35"/>
    </radialGradient>
    <radialGradient cx="0" cy="0" gradientTransform="matrix(0.0042, 0.0, 0.0, 0.0042, 1.9, -23.1)" gradientUnits="userSpaceOnUse" id="gradient47" r="819.2" spreadMethod="pad">
      <stop offset="0.0" stop-color="#c1884f"/>
      <stop offset="1.0" stop-color="#8f653b"/>
    </radialGradient>
    <radialGradient cx="0" cy="0" gradientTransform="matrix(0.003, 0.0, 0.0, 0.003, 1.75, -22.1)" gradientUnits="userSpaceOnUse" id="gradient48" r="819.2" spreadMethod="pad">
      <stop offset="0.0" stop-color="#da9a5a"/>
      <stop offset="1.0" stop-color="#d59657"/>
    </radialGradient>
    <radialGradient cx="0" cy="0" gradientTransform="matrix(0.012, 0.0, 0.0, 0.012, 4.1, -22.2)" gradientUnits="userSpaceOnUse" id="gradient49" r="819.2" spreadMethod="pad">
      <stop offset="0.0" stop-color="#fff08c"/>
      <stop offset="1.0" stop-color="#8d643a"/>
    </radialGradient>
    <radialGradient cx="0" cy="0" gradientTransform="matrix(0.0077, 0.0, 0.0, 0.0077, 2.0, -9.2)" gradientUnits="userSpaceOnUse" id="gradient50" r="819.2" spreadMethod="pad">
      <stop offset="0.0" stop-color="#90663b"/>
      <stop offset="1.0" stop-color="#543b22"/>
    </radialGradient>
    <radialGradient cx="0" cy="0" gradientTransform="matrix(0.0123, 0.0, 0.0, 0.0123, 4.75, -5.05)" gradientUnits="userSpaceOnUse" id="gradient51" r="819.2" spreadMethod="pad">
      <stop offset="0.0" stop-color="#e7a35f"/>
      <stop offset="1.0" stop-color="#966a3e"/>
    </radialGradient>
    <radialGradient cx="0" cy="0" gradientTransform="matrix(0.0102, 0.0, 0.0, 0.0102, 3.65, -6.15)" gradientUnits="userSpaceOnUse" id="gradient52" r="819.2" spreadMethod="pad">
      <stop offset="0.0" stop-color="#ffe887"/>
      <stop offset="1.0" stop-color="#ffb76a"/>
    </radialGradient>
    <radialGradient cx="0" cy="0" gradientTransform="matrix(8.0E-4, 0.0, 0.0, 8.0E-4, 1.1, -54.5)" gradientUnits="userSpaceOnUse" id="gradient53" r="819.2" spreadMethod="pad">
      <stop offset="0.0" stop-color="#2a4259"/>
      <stop offset="1.0" stop-color="#213446"/>
    </radialGradient>
    <radialGradient cx="0" cy="0" gradientTransform="matrix(2.0E-4, 0.0, 0.0, 2.0E-4, 0.75, -54.8)" gradientUnits="userSpaceOnUse" id="gradient54" r="819.2" spreadMethod="pad">
      <stop offset="0.0" stop-color="#3f6385"/>
      <stop offset="1.0" stop-color="#3f6385"/>
    </radialGradient>
    <radialGradient cx="0" cy="0" gradientTransform="matrix(0.0016, 0.0, 0.0, 0.0016, -0.55, -50.35)" gradientUnits="userSpaceOnUse" id="gradient55" r="819.2" spreadMethod="pad">
      <stop offset="0.0" stop-color="#a8a8a8"/>
      <stop offset="1.0" stop-color="#9e9e9e"/>
    </radialGradient>
    <radialGradient cx="0" cy="0" gradientTransform="matrix(0.0012, 0.0, 0.0, 0.0012, -0.8, -51.3)" gradientUnits="userSpaceOnUse" id="gradient56" r="819.2" spreadMethod="pad">
      <stop offset="0.0" stop-color="#acacac"/>
      <stop offset="1.0" stop-color="#a9a9a9"/>
    </radialGradient>
    <radialGradient cx="0" cy="0" gradientTransform="matrix(0.0205, 0.0, 0.0, 0.0205, -0.2, -34.9)" gradientUnits="userSpaceOnUse" id="gradient57" r="819.2" spreadMethod="pad">
      <stop offset="0.0" stop-color="#b27d49"/>
      <stop offset="1.0" stop-color="#271b10"/>
    </radialGradient>
  </defs>
</svg>
