<?xml version="1.0" encoding="UTF-8" standalone="no"?>
<svg xmlns:ffdec="https://www.free-decompiler.com/flash" xmlns:xlink="http://www.w3.org/1999/xlink" ffdec:objectType="shape" height="69.85px" width="29.45px" xmlns="http://www.w3.org/2000/svg">
  <g transform="matrix(1.0, 0.0, 0.0, 1.0, 13.7, 56.15)">
    <path d="M-3.45 -55.9 L-1.95 -56.05 -0.45 -55.7 -0.45 -55.4 -1.05 -55.05 -1.55 -53.9 -2.05 -52.9 -2.15 -52.1 -2.25 -52.05 -2.35 -52.05 -2.4 -52.0 -3.1 -51.85 -4.25 -51.65 -5.2 -53.5 -4.15 -54.2 -3.9 -55.75 -3.5 -55.9 -3.45 -55.9" fill="url(#gradient0)" fill-rule="evenodd" stroke="none"/>
    <path d="M-3.45 -55.9 L-3.5 -55.9 -3.9 -55.75 -4.15 -54.2 -5.2 -53.5 -4.25 -51.65 -5.45 -50.35 Q-5.85 -51.4 -7.2 -52.0 L-6.75 -52.95 -5.45 -54.95 -4.7 -55.8 -4.1 -56.1 -3.45 -55.9" fill="url(#gradient1)" fill-rule="evenodd" stroke="none"/>
    <path d="M-4.25 -51.65 L-3.1 -51.85 Q-4.4 -50.75 -4.0 -49.35 L-4.25 -49.0 -4.65 -50.15 -5.1 -50.25 Q-5.3 -50.15 -5.55 -50.0 L-5.45 -50.35 -4.25 -51.65 M-2.15 -52.1 L-2.05 -52.9 -1.55 -53.9 -0.45 -53.1 -0.4 -52.85 -0.1 -52.55 -0.35 -52.6 -2.15 -52.1 M2.7 -46.35 L-0.95 -47.4 -1.8 -48.25 -0.9 -49.0 Q-1.65 -47.2 3.05 -46.85 L2.7 -46.35" fill="url(#gradient2)" fill-rule="evenodd" stroke="none"/>
    <path d="M-3.1 -51.85 L-2.4 -52.0 -2.35 -52.05 -2.25 -52.05 -2.15 -52.1 -0.35 -52.6 -0.1 -52.55 0.1 -52.45 0.35 -52.05 0.4 -51.0 Q-0.6 -49.05 -0.9 -49.0 L-1.8 -48.25 -2.05 -47.9 -2.5 -47.9 -2.8 -48.25 -3.05 -49.15 -4.0 -49.35 Q-4.4 -50.75 -3.1 -51.85" fill="url(#gradient3)" fill-rule="evenodd" stroke="none"/>
    <path d="M-1.55 -53.9 L-1.05 -55.05 -0.45 -55.4 -0.45 -55.7 0.55 -56.15 4.55 -54.6 Q9.7 -48.55 9.15 -47.5 L8.75 -48.25 5.85 -51.0 5.15 -51.5 4.1 -51.85 2.8 -51.5 2.45 -51.65 1.7 -52.65 0.35 -52.05 0.1 -52.45 -0.1 -52.55 -0.4 -52.85 -0.45 -53.1 -1.55 -53.9 M11.1 -42.35 L12.2 -37.1 12.1 -37.05 10.3 -43.35 10.7 -43.1 11.1 -42.35" fill="url(#gradient4)" fill-rule="evenodd" stroke="none"/>
    <path d="M9.15 -47.5 L10.2 -45.75 7.5 -45.55 4.65 -46.8 3.05 -46.85 Q-1.65 -47.2 -0.9 -49.0 -0.6 -49.05 0.4 -51.0 L0.35 -52.05 1.7 -52.65 2.45 -51.65 2.8 -51.5 4.1 -51.85 5.15 -51.5 5.85 -51.0 8.75 -48.25 9.15 -47.5 M10.7 -45.0 L11.05 -44.55 12.45 -40.35 12.35 -40.3 11.1 -42.35 10.7 -43.1 10.3 -43.35 9.1 -44.4 8.9 -44.65 10.7 -45.0" fill="url(#gradient5)" fill-rule="evenodd" stroke="none"/>
    <path d="M-7.9 -49.6 Q-8.45 -53.3 -6.75 -52.95 L-7.2 -52.0 Q-5.85 -51.4 -5.45 -50.35 L-5.55 -50.0 -6.1 -49.7 -6.35 -49.7 -6.5 -49.8 -7.85 -49.05 -7.9 -49.6" fill="url(#gradient6)" fill-rule="evenodd" stroke="none"/>
    <path d="M-8.5 -48.5 L-8.45 -49.5 -7.9 -49.6 -7.85 -49.05 -8.5 -48.5 M-6.1 -49.7 L-6.35 -49.6 -6.35 -49.7 -6.1 -49.7" fill="url(#gradient7)" fill-rule="evenodd" stroke="none"/>
    <path d="M-9.55 -41.5 L-9.55 -45.75 -8.5 -48.5 -7.85 -49.05 -6.5 -49.8 -6.35 -49.7 -6.35 -49.6 Q-8.4 -48.2 -5.8 -47.55 -7.9 -46.3 -7.3 -44.95 L-8.35 -43.85 -8.45 -43.7 -8.65 -43.25 -9.1 -41.3 -8.95 -40.05 -8.7 -38.75 -9.05 -39.7 -9.55 -41.5" fill="url(#gradient8)" fill-rule="evenodd" stroke="none"/>
    <path d="M-5.55 -50.0 Q-5.3 -50.15 -5.1 -50.25 L-4.65 -50.15 -4.25 -49.0 -4.4 -47.65 -4.95 -48.05 -5.8 -47.55 Q-8.4 -48.2 -6.35 -49.6 L-6.1 -49.7 -5.55 -50.0" fill="url(#gradient9)" fill-rule="evenodd" stroke="none"/>
    <path d="M10.2 -45.75 Q9.3 -45.0 15.75 -47.4 L10.7 -45.0 8.9 -44.65 7.95 -44.4 6.0 -44.1 5.3 -44.15 4.5 -43.8 4.25 -43.85 3.2 -43.9 2.85 -44.0 2.7 -44.0 1.35 -44.1 0.6 -44.15 0.05 -44.1 Q-1.55 -44.15 -3.55 -46.8 L-4.2 -46.7 -4.4 -47.1 -4.4 -47.65 -4.25 -49.0 -4.0 -49.35 -3.05 -49.15 -2.8 -48.25 -2.5 -47.9 -2.05 -47.9 -1.8 -48.25 -0.95 -47.4 2.7 -46.35 5.65 -45.45 7.5 -45.55 10.2 -45.75" fill="url(#gradient10)" fill-rule="evenodd" stroke="none"/>
    <path d="M-5.8 -47.55 L-4.95 -48.05 -4.4 -47.65 -4.4 -47.1 -4.2 -46.7 -3.4 -44.8 -1.75 -44.15 -5.3 -43.7 -6.1 -43.5 -7.95 -43.1 -8.2 -43.15 -8.45 -43.7 -8.35 -43.85 -7.3 -44.95 Q-7.9 -46.3 -5.8 -47.55" fill="url(#gradient11)" fill-rule="evenodd" stroke="none"/>
    <path d="M2.7 -46.35 L3.05 -46.85 4.65 -46.8 7.5 -45.55 5.65 -45.45 2.7 -46.35 M7.95 -44.4 L8.6 -42.4 7.9 -43.3 6.85 -42.9 6.35 -43.85 6.0 -44.1 7.95 -44.4 M9.0 -39.8 L9.3 -40.1 9.65 -39.1 9.0 -39.8" fill="url(#gradient12)" fill-rule="evenodd" stroke="none"/>
    <path d="M0.05 -44.1 L-1.0 -44.0 -1.75 -44.15 -3.4 -44.8 -4.2 -46.7 -3.55 -46.8 Q-1.55 -44.15 0.05 -44.1" fill="url(#gradient13)" fill-rule="evenodd" stroke="none"/>
    <path d="M1.35 -44.1 L1.2 -43.85 0.05 -42.6 Q-0.65 -42.25 -1.3 -41.95 L-1.9 -41.6 -2.05 -41.55 -2.25 -41.5 -2.5 -41.45 -3.05 -41.4 -4.25 -42.5 -4.3 -42.5 -5.1 -43.15 -5.3 -43.7 -1.75 -44.15 -1.0 -44.0 0.05 -44.1 0.6 -44.15 1.35 -44.1" fill="url(#gradient14)" fill-rule="evenodd" stroke="none"/>
    <path d="M-10.05 -39.85 L-9.9 -40.95 -9.55 -41.5 -9.05 -39.7 -9.3 -39.25 -9.75 -37.45 -10.15 -39.1 -10.05 -39.85 M-7.95 -43.1 L-7.9 -42.0 -7.95 -41.95 -8.95 -40.05 -9.1 -41.3 -8.65 -43.25 -8.45 -43.7 -8.2 -43.15 -7.95 -43.1" fill="url(#gradient15)" fill-rule="evenodd" stroke="none"/>
    <path d="M4.15 -36.65 Q3.5 -34.7 3.7 -34.45 L4.3 -32.0 4.1 -31.8 4.1 -31.65 2.45 -30.5 1.5 -29.55 1.55 -31.7 1.65 -31.8 1.85 -32.1 1.95 -35.05 2.45 -35.65 3.5 -36.1 4.15 -36.65 M-3.25 -37.3 L-4.3 -35.6 -4.8 -35.15 -5.25 -34.15 -6.35 -32.1 -6.55 -32.25 -6.5 -32.35 -6.75 -32.45 -7.05 -32.65 -7.6 -33.0 -8.7 -34.1 -9.55 -35.3 -9.75 -37.45 -9.3 -39.25 -9.05 -39.7 -8.7 -38.75 -8.95 -40.05 -7.95 -41.95 -7.9 -41.95 -7.85 -41.55 Q-7.55 -42.2 -6.6 -42.05 L-6.35 -41.45 -6.3 -41.3 -6.1 -41.35 -5.85 -41.4 -5.95 -41.6 -6.1 -43.5 -5.3 -43.7 -5.1 -43.15 -4.3 -42.5 -4.85 -41.1 -5.1 -39.8 -5.1 -39.7 -5.15 -39.25 -4.25 -38.4 -3.45 -37.3 -3.25 -37.3 M-1.4 -31.65 L-1.4 -29.05 -1.95 -29.2 -2.0 -29.2 -2.1 -29.25 -2.25 -29.25 -2.35 -29.3 -2.5 -29.3 -2.55 -29.35 -2.6 -29.4 -2.7 -29.45 -2.8 -29.55 -2.95 -29.65 -3.0 -29.7 -3.05 -29.75 -3.6 -30.05 -3.65 -30.3 -3.4 -30.1 -3.6 -30.35 -3.9 -30.65 -2.9 -31.8 -2.8 -31.95 -2.1 -32.45 -1.75 -32.95 -1.65 -32.95 -1.65 -32.25 -1.4 -31.8 -1.4 -31.65" fill="url(#gradient16)" fill-rule="evenodd" stroke="none"/>
    <path d="M-7.9 -42.0 L-7.9 -41.95 -7.95 -41.95 -7.9 -42.0" fill="url(#gradient17)" fill-rule="evenodd" stroke="none"/>
    <path d="M-6.3 -41.45 L-6.35 -41.45 -6.6 -42.05 Q-7.55 -42.2 -7.85 -41.55 L-7.9 -41.95 -7.9 -42.0 -7.95 -43.1 -6.1 -43.5 -5.95 -41.6 -6.3 -41.45" fill="url(#gradient18)" fill-rule="evenodd" stroke="none"/>
    <path d="M9.1 -44.4 L9.65 -42.6 9.8 -40.85 8.6 -42.4 7.95 -44.4 8.9 -44.65 9.1 -44.4 M9.8 -40.6 L9.9 -38.65 9.65 -39.1 9.3 -40.1 9.8 -40.6" fill="url(#gradient19)" fill-rule="evenodd" stroke="none"/>
    <path d="M-7.25 -25.5 L-10.05 -19.65 -10.25 -19.55 -10.9 -19.85 -9.35 -24.95 -8.25 -27.8 -7.1 -30.45 -6.7 -31.0 -6.5 -31.7 -6.45 -31.8 -6.4 -32.0 -6.35 -32.1 -5.25 -34.15 -4.55 -35.0 -4.3 -35.6 -3.25 -37.3 -2.65 -38.3 -1.1 -39.85 -0.7 -40.25 1.8 -42.65 3.05 -43.2 4.5 -43.8 5.3 -44.15 6.0 -44.1 6.35 -43.85 6.85 -42.9 Q7.55 -40.8 5.05 -39.55 6.25 -41.75 4.55 -42.25 L3.95 -40.1 3.8 -38.6 3.05 -38.0 Q2.8 -39.8 0.9 -38.75 0.2 -38.0 -0.5 -34.75 L-1.05 -33.9 -1.45 -33.5 Q-1.0 -35.0 -3.2 -34.5 -4.05 -32.95 -2.8 -31.95 L-2.9 -31.8 -3.9 -30.65 -3.95 -30.6 -4.0 -30.6 -4.15 -30.9 -4.95 -30.95 -5.85 -30.55 -5.8 -29.65 -5.45 -29.2 -4.9 -29.15 -6.35 -26.8 -7.25 -25.5" fill="url(#gradient20)" fill-rule="evenodd" stroke="none"/>
    <path d="M4.5 -43.8 L3.05 -43.2 3.2 -43.85 3.2 -43.9 4.25 -43.85 4.5 -43.8 M-0.7 -40.25 L-1.1 -39.85 -2.65 -38.3 -3.25 -37.3 -3.45 -37.3 -4.25 -38.4 -4.55 -40.7 -4.25 -42.5 -3.05 -41.4 -2.5 -41.45 -2.45 -40.95 -2.15 -40.6 -1.4 -40.2 -0.7 -40.25" fill="url(#gradient21)" fill-rule="evenodd" stroke="none"/>
    <path d="M3.05 -43.2 L1.8 -42.65 -0.7 -40.25 -1.4 -40.2 -2.15 -40.6 -2.25 -41.5 -2.05 -41.55 -1.9 -41.05 -1.75 -40.75 -1.55 -41.1 -1.3 -41.95 Q-0.65 -42.25 0.05 -42.6 0.65 -42.5 1.85 -43.05 L2.8 -43.8 2.85 -43.85 2.85 -44.0 3.2 -43.9 3.2 -43.85 3.05 -43.2" fill="url(#gradient22)" fill-rule="evenodd" stroke="none"/>
    <path d="M2.8 -43.8 L2.8 -43.85 2.7 -44.0 2.85 -44.0 2.85 -43.85 2.8 -43.8" fill="url(#gradient23)" fill-rule="evenodd" stroke="none"/>
    <path d="M2.7 -44.0 L2.8 -43.85 2.8 -43.8 1.85 -43.05 Q0.65 -42.5 0.05 -42.6 L1.2 -43.85 1.35 -44.1 2.7 -44.0 M-1.9 -41.6 L-1.3 -41.95 -1.55 -41.1 -1.8 -41.3 -1.9 -41.6" fill="url(#gradient24)" fill-rule="evenodd" stroke="none"/>
    <path d="M-4.3 -42.5 L-4.25 -42.5 -4.55 -40.7 -4.25 -38.4 -5.15 -39.25 -5.1 -39.7 -4.95 -39.75 -5.1 -39.8 -4.85 -41.1 -4.3 -42.5 M-2.05 -41.55 L-1.9 -41.6 -1.8 -41.3 -1.9 -41.05 -2.05 -41.55" fill="url(#gradient25)" fill-rule="evenodd" stroke="none"/>
    <path d="M-2.5 -41.45 L-2.25 -41.5 -2.15 -40.6 -2.45 -40.95 -2.5 -41.45" fill="url(#gradient26)" fill-rule="evenodd" stroke="none"/>
    <path d="M-11.05 -37.3 L-10.05 -39.85 -10.15 -39.1 -9.75 -37.45 -9.55 -35.3 -8.7 -34.1 Q-9.8 -33.95 -10.75 -35.6 L-11.05 -37.3" fill="url(#gradient27)" fill-rule="evenodd" stroke="none"/>
    <path d="M-11.85 -34.35 L-11.8 -34.5 -11.75 -34.65 -11.75 -34.7 -11.7 -34.8 -11.7 -34.9 -11.65 -35.0 -11.65 -35.1 -11.55 -35.15 -11.05 -37.3 -10.75 -35.6 Q-9.8 -33.95 -8.7 -34.1 L-7.6 -33.0 -7.05 -32.65 -6.9 -32.35 -8.0 -31.65 -9.7 -31.8 -11.05 -32.75 -11.85 -34.35" fill="url(#gradient28)" fill-rule="evenodd" stroke="none"/>
    <path d="M-8.25 -27.8 L-10.85 -27.8 -12.8 -29.15 -13.0 -29.45 -13.7 -31.6 Q-13.35 -34.3 -11.85 -34.35 L-12.2 -33.4 -12.2 -31.8 Q-9.8 -28.4 -7.0 -31.8 L-6.75 -32.2 -6.4 -32.0 -6.45 -31.8 -6.5 -31.7 -6.95 -31.1 -7.1 -30.45 -8.25 -27.8" fill="url(#gradient29)" fill-rule="evenodd" stroke="none"/>
    <path d="M-6.5 -31.7 L-6.7 -31.0 -7.1 -30.45 -6.95 -31.1 -6.5 -31.7 M-4.0 -30.6 L-4.15 -29.95 -4.75 -29.25 -4.9 -29.15 -5.45 -29.2 -5.8 -29.65 -5.85 -30.55 -4.95 -30.95 -4.15 -30.9 -4.0 -30.6" fill="url(#gradient30)" fill-rule="evenodd" stroke="none"/>
    <path d="M-6.35 -32.1 L-6.4 -32.0 -6.75 -32.2 -6.75 -32.25 -6.75 -32.3 -6.55 -32.25 -6.35 -32.1 M1.5 -29.55 L2.45 -30.5 4.1 -31.65 4.2 -31.75 4.25 -31.75 4.05 -30.65 Q2.55 -28.9 1.5 -28.5 L1.5 -29.55 M-1.4 -29.0 L-1.4 -27.55 -2.65 -27.65 Q-4.25 -28.4 -4.75 -29.25 L-4.15 -29.95 -4.0 -30.6 -3.95 -30.6 -3.8 -30.55 -3.8 -30.5 -3.7 -30.4 -3.7 -30.35 -3.65 -30.3 -3.6 -30.05 -3.05 -29.75 -3.0 -29.7 -2.95 -29.65 -2.8 -29.55 -2.7 -29.45 -2.6 -29.4 -2.55 -29.35 -2.5 -29.3 -2.35 -29.3 -2.25 -29.25 -2.1 -29.25 -2.0 -29.2 -1.95 -29.2 -1.55 -29.0 -1.4 -29.0" fill="url(#gradient31)" fill-rule="evenodd" stroke="none"/>
    <path d="M-4.3 -35.6 L-4.55 -35.0 -5.25 -34.15 -4.8 -35.15 -4.3 -35.6 M-1.45 -33.5 L-1.65 -33.0 -1.75 -32.95 -2.1 -32.45 -2.8 -31.95 Q-4.05 -32.95 -3.2 -34.5 -1.0 -35.0 -1.45 -33.5" fill="url(#gradient32)" fill-rule="evenodd" stroke="none"/>
    <path d="M9.8 -40.85 L9.8 -40.8 8.75 -40.1 6.85 -38.85 4.15 -36.65 3.5 -36.1 2.45 -35.65 2.95 -36.95 2.95 -37.3 3.05 -38.0 3.8 -38.6 4.7 -39.15 5.05 -39.55 Q7.55 -40.8 6.85 -42.9 L7.9 -43.3 8.6 -42.4 9.8 -40.85" fill="url(#gradient33)" fill-rule="evenodd" stroke="none"/>
    <path d="M5.05 -39.55 L4.7 -39.15 3.8 -38.6 3.95 -40.1 4.55 -42.25 Q6.25 -41.75 5.05 -39.55" fill="url(#gradient34)" fill-rule="evenodd" stroke="none"/>
    <path d="M-5.1 -39.8 L-4.95 -39.75 -5.1 -39.7 -5.1 -39.8" fill="url(#gradient35)" fill-rule="evenodd" stroke="none"/>
    <path d="M-6.1 -41.35 L-6.3 -41.45 -5.95 -41.6 -5.85 -41.4 -6.1 -41.35" fill="url(#gradient36)" fill-rule="evenodd" stroke="none"/>
    <path d="M-6.3 -41.45 L-6.1 -41.35 -6.3 -41.3 -6.35 -41.45 -6.3 -41.45" fill="url(#gradient37)" fill-rule="evenodd" stroke="none"/>
    <path d="M-1.8 -41.3 L-1.55 -41.1 -1.75 -40.75 -1.9 -41.05 -1.8 -41.3" fill="url(#gradient38)" fill-rule="evenodd" stroke="none"/>
    <path d="M9.8 -40.8 L9.8 -40.6 9.3 -40.1 9.0 -39.8 8.75 -40.1 9.8 -40.8" fill="url(#gradient39)" fill-rule="evenodd" stroke="none"/>
    <path d="M9.9 -38.65 L10.4 -37.8 10.9 -36.0 Q10.15 -35.35 12.1 -28.5 L11.9 -27.7 11.9 -27.6 10.7 -26.5 8.9 -25.85 Q5.95 -27.0 5.9 -26.75 L4.45 -31.8 4.35 -31.8 4.35 -31.85 4.3 -32.0 3.7 -34.45 Q3.5 -34.7 4.15 -36.65 L6.85 -38.85 8.75 -40.1 9.0 -39.8 9.65 -39.1 9.9 -38.65" fill="url(#gradient40)" fill-rule="evenodd" stroke="none"/>
    <path d="M2.95 -37.3 L2.95 -36.95 2.45 -35.65 1.95 -35.05 1.65 -34.8 Q0.05 -34.2 1.0 -36.65 L1.45 -37.3 2.3 -38.0 2.65 -38.0 2.9 -37.75 2.95 -37.3" fill="url(#gradient41)" fill-rule="evenodd" stroke="none"/>
    <path d="M3.05 -38.0 L2.95 -37.3 2.9 -37.75 2.65 -38.0 2.3 -38.0 1.45 -37.3 1.0 -36.65 Q0.05 -34.2 1.65 -34.8 L0.55 -34.0 -1.05 -33.9 -0.5 -34.75 Q0.2 -38.0 0.9 -38.75 2.8 -39.8 3.05 -38.0" fill="url(#gradient42)" fill-rule="evenodd" stroke="none"/>
    <path d="M1.65 -34.8 L1.95 -35.05 1.85 -32.1 1.65 -31.8 1.55 -31.7 0.65 -31.2 Q-0.45 -31.0 -1.4 -31.65 L-1.4 -31.8 -1.65 -32.25 -1.65 -32.95 -1.65 -33.0 -1.45 -33.5 -1.05 -33.9 0.55 -34.0 1.65 -34.8" fill="url(#gradient43)" fill-rule="evenodd" stroke="none"/>
    <path d="M-1.65 -33.0 L-1.65 -32.95 -1.75 -32.95 -1.65 -33.0" fill="url(#gradient44)" fill-rule="evenodd" stroke="none"/>
    <path d="M11.9 -27.6 L11.65 -23.7 11.3 -24.1 Q9.75 -24.95 8.9 -25.85 L10.7 -26.5 11.9 -27.6" fill="url(#gradient45)" fill-rule="evenodd" stroke="none"/>
    <path d="M11.65 -23.7 L8.6 -20.8 8.05 -20.4 Q7.55 -24.35 3.85 -24.95 L5.9 -26.75 Q5.95 -27.0 8.9 -25.85 9.75 -24.95 11.3 -24.1 L11.65 -23.7" fill="url(#gradient46)" fill-rule="evenodd" stroke="none"/>
    <path d="M4.35 -31.8 L4.45 -31.8 5.9 -26.75 3.85 -24.95 1.4 -23.15 1.5 -28.5 Q2.55 -28.9 4.05 -30.65 L4.25 -31.75 4.25 -31.8 4.3 -31.8 4.35 -31.8 M-1.4 -27.55 L-1.4 -22.1 Q-5.55 -20.25 -6.35 -26.8 L-4.9 -29.15 -4.75 -29.25 Q-4.25 -28.4 -2.65 -27.65 L-1.4 -27.55" fill="url(#gradient47)" fill-rule="evenodd" stroke="none"/>
    <path d="M4.35 -31.85 L4.35 -31.8 4.3 -31.8 4.35 -31.85" fill="url(#gradient48)" fill-rule="evenodd" stroke="none"/>
    <path d="M4.3 -32.0 L4.35 -31.85 4.3 -31.8 4.25 -31.8 4.25 -31.75 4.2 -31.75 4.1 -31.65 4.1 -31.8 4.3 -32.0 M-7.05 -32.65 L-6.75 -32.45 -6.75 -32.3 -6.75 -32.25 -6.9 -32.35 -7.05 -32.65" fill="url(#gradient49)" fill-rule="evenodd" stroke="none"/>
    <path d="M1.55 -31.7 L1.5 -29.55 1.5 -28.5 1.4 -23.15 1.4 -22.9 1.35 -20.8 1.35 -20.55 1.35 -19.8 Q-0.15 -17.1 -1.4 -19.65 L-1.4 -19.75 -1.4 -20.65 -1.4 -21.4 -1.4 -21.45 -1.4 -22.1 -1.4 -27.55 -1.4 -29.0 -1.4 -29.05 -1.4 -31.65 Q-0.45 -31.0 0.65 -31.2 L1.55 -31.7 M-1.4 -15.5 Q-0.5 -14.9 0.1 -14.95 L1.3 -15.1 1.25 -14.1 1.2 -10.25 0.9 6.45 0.9 6.5 0.9 7.35 0.85 7.6 0.55 8.0 0.5 8.05 Q-0.9 8.65 -1.4 7.3 L-1.4 6.95 -1.4 6.8 -1.45 -13.9 -1.4 -15.5" fill="url(#gradient50)" fill-rule="evenodd" stroke="none"/>
    <path d="M-6.75 -32.2 L-7.0 -31.8 Q-9.8 -28.4 -12.2 -31.8 L-12.2 -33.4 -11.85 -34.35 -11.05 -32.75 -9.7 -31.8 -8.0 -31.65 -6.9 -32.35 -6.75 -32.25 -6.75 -32.2" fill="url(#gradient51)" fill-rule="evenodd" stroke="none"/>
    <path d="M-6.75 -32.45 L-6.5 -32.35 -6.55 -32.25 -6.75 -32.3 -6.75 -32.45" fill="url(#gradient52)" fill-rule="evenodd" stroke="none"/>
    <path d="M-3.8 -30.55 L-3.95 -30.6 -3.9 -30.65 -3.8 -30.55" fill="url(#gradient53)" fill-rule="evenodd" stroke="none"/>
    <path d="M-3.7 -30.4 L-3.8 -30.5 -3.8 -30.55 -3.9 -30.65 -3.6 -30.35 -3.7 -30.4" fill="url(#gradient54)" fill-rule="evenodd" stroke="none"/>
    <path d="M-3.65 -30.3 L-3.7 -30.35 -3.7 -30.4 -3.6 -30.35 -3.4 -30.1 -3.65 -30.3" fill="url(#gradient55)" fill-rule="evenodd" stroke="none"/>
    <path d="M-1.4 -29.05 L-1.4 -29.0 -1.55 -29.0 -1.95 -29.2 -1.4 -29.05" fill="url(#gradient56)" fill-rule="evenodd" stroke="none"/>
    <path d="M-7.3 -22.9 L-7.25 -25.5 -6.35 -26.8 Q-5.55 -20.25 -1.4 -22.1 L-1.4 -21.45 -1.45 -21.4 -2.35 -20.25 -2.4 -19.85 -2.4 -19.8 -2.65 -19.15 -2.55 -18.3 -2.55 -18.15 -3.15 -17.95 -4.4 -17.5 -5.65 -17.7 Q-6.25 -17.2 -7.0 -19.8 L-7.3 -22.9" fill="url(#gradient57)" fill-rule="evenodd" stroke="none"/>
    <path d="M-1.4 -21.45 L-1.4 -21.4 -1.45 -21.4 -1.4 -21.45 M-1.4 -19.75 L-1.4 -19.65 -1.45 -19.65 -1.4 -19.75 M-1.4 6.95 L-1.4 7.3 -1.45 7.3 -1.4 6.95" fill="url(#gradient58)" fill-rule="evenodd" stroke="none"/>
    <path d="M-1.4 -21.4 L-1.4 -20.65 -2.4 -19.85 -2.35 -20.25 -1.45 -21.4 -1.4 -21.4 M1.3 -15.1 Q2.2 -15.3 2.85 -16.25 L3.3 -17.65 3.65 -16.95 3.8 -14.9 3.85 -14.55 3.1 -13.25 2.6 -13.35 1.25 -14.1 1.3 -15.1" fill="url(#gradient59)" fill-rule="evenodd" stroke="none"/>
    <path d="M-1.4 -20.65 L-1.4 -19.75 -1.45 -19.65 -2.35 -18.35 -2.55 -18.3 -2.65 -19.15 -2.4 -19.8 -2.4 -19.85 -1.4 -20.65 M1.35 -20.55 L1.35 -20.8 1.8 -20.4 1.35 -20.55" fill="url(#gradient60)" fill-rule="evenodd" stroke="none"/>
    <path d="M1.4 -22.9 L1.4 -23.15 3.85 -24.95 Q7.55 -24.35 8.05 -20.4 L6.5 -19.05 5.15 -18.0 5.3 -19.25 5.05 -19.8 Q3.55 -23.3 1.4 -22.9" fill="url(#gradient61)" fill-rule="evenodd" stroke="none"/>
    <path d="M1.35 -20.8 L1.4 -22.9 Q3.55 -23.3 5.05 -19.8 L5.3 -19.25 5.15 -18.0 3.85 -14.55 3.8 -14.9 3.65 -16.95 3.3 -17.65 2.35 -19.8 1.8 -20.4 1.35 -20.8" fill="url(#gradient62)" fill-rule="evenodd" stroke="none"/>
    <path d="M6.25 -11.05 L6.45 -9.0 7.0 -6.65 Q8.45 -5.55 9.45 -3.55 L9.9 -1.75 Q9.7 2.05 5.6 4.3 L4.5 5.15 Q1.0 6.8 0.9 6.5 L0.9 6.45 1.2 -10.25 3.0 -9.55 Q5.1 -10.25 6.25 -11.05 M-8.7 -5.55 Q-6.5 -9.9 -6.3 -16.15 L-6.3 -16.3 -6.1 -16.35 -5.65 -17.7 -4.4 -17.5 -3.15 -17.95 -2.3 -15.45 -1.45 -13.9 -1.4 6.8 Q-5.45 6.6 -7.75 4.3 -12.6 -0.55 -8.7 -5.55 M5.15 -18.0 L6.5 -19.05 6.35 -17.85 6.0 -14.1 6.15 -12.7 5.5 -11.25 4.7 -11.5 Q2.45 -13.05 2.6 -13.35 L3.1 -13.25 3.85 -14.55 5.15 -18.0" fill="url(#gradient63)" fill-rule="evenodd" stroke="none"/>
    <path d="M8.6 -20.8 Q10.6 -11.3 6.4 -11.1 L6.2 -11.1 5.5 -11.25 6.15 -12.7 6.3 -12.85 6.5 -16.35 6.35 -17.85 6.5 -19.05 8.05 -20.4 8.6 -20.8" fill="url(#gradient64)" fill-rule="evenodd" stroke="none"/>
    <path d="M-6.35 -16.3 Q-7.75 -20.75 -8.35 -21.3 L-7.3 -22.9 -7.0 -19.8 Q-6.25 -17.2 -5.65 -17.7 L-6.1 -16.35 -6.3 -16.3 -6.35 -16.3" fill="url(#gradient65)" fill-rule="evenodd" stroke="none"/>
    <path d="M-6.3 -16.15 L-6.35 -16.3 -6.3 -16.3 -6.3 -16.15" fill="url(#gradient66)" fill-rule="evenodd" stroke="none"/>
    <path d="M-1.4 -19.65 Q-0.15 -17.1 1.35 -19.8 L1.35 -20.55 1.8 -20.4 2.35 -19.8 3.3 -17.65 2.85 -16.25 Q2.2 -15.3 1.3 -15.1 L0.1 -14.95 Q-0.5 -14.9 -1.4 -15.5 -2.3 -16.2 -2.45 -16.9 L-2.55 -18.15 -2.55 -18.3 -2.35 -18.35 -1.45 -19.65 -1.4 -19.65" fill="url(#gradient67)" fill-rule="evenodd" stroke="none"/>
    <path d="M6.4 -11.1 L6.25 -11.05 Q5.1 -10.25 3.0 -9.55 L1.2 -10.25 1.25 -14.1 2.6 -13.35 Q2.45 -13.05 4.7 -11.5 L5.5 -11.25 6.2 -11.1 6.4 -11.1 M-3.15 -17.95 L-2.55 -18.15 -2.45 -16.9 Q-2.3 -16.2 -1.4 -15.5 L-1.45 -13.9 -2.3 -15.45 -3.15 -17.95" fill="url(#gradient68)" fill-rule="evenodd" stroke="none"/>
    <path d="M6.45 -9.0 Q13.2 -7.2 11.45 1.9 10.4 7.2 0.9 9.75 L0.9 7.35 0.9 6.5 Q1.0 6.8 4.5 5.15 L5.6 4.3 Q9.7 2.05 9.9 -1.75 L9.45 -3.55 Q8.45 -5.55 7.0 -6.65 L6.45 -9.0 M-1.5 9.95 Q-8.15 9.9 -10.85 5.3 -13.7 0.4 -8.7 -5.55 -12.6 -0.55 -7.75 4.3 -5.45 6.6 -1.4 6.8 L-1.4 6.95 -1.45 7.3 -1.5 7.55 -1.5 9.95" fill="url(#gradient69)" fill-rule="evenodd" stroke="none"/>
    <path d="M0.9 9.75 L0.85 12.95 Q0.65 13.55 0.0 13.7 L-0.75 13.65 -1.35 13.2 -1.5 12.75 -1.5 9.95 -1.5 7.55 Q-0.65 8.75 0.5 8.05 L0.55 8.0 0.85 7.6 0.9 7.35 0.9 9.75" fill="url(#gradient70)" fill-rule="evenodd" stroke="none"/>
    <path d="M-1.4 7.3 Q-0.9 8.65 0.5 8.05 -0.65 8.75 -1.5 7.55 L-1.45 7.3 -1.4 7.3" fill="url(#gradient71)" fill-rule="evenodd" stroke="none"/>
  </g>
  <defs>
    <radialGradient cx="0" cy="0" gradientTransform="matrix(0.0069, 0.0, 0.0, 0.0069, -2.75, -53.45)" gradientUnits="userSpaceOnUse" id="gradient0" r="819.2" spreadMethod="pad">
      <stop offset="0.0" stop-color="#746a95"/>
      <stop offset="1.0" stop-color="#47415b"/>
    </radialGradient>
    <radialGradient cx="0" cy="0" gradientTransform="matrix(0.0084, 0.0, 0.0, 0.0084, -5.2, -54.4)" gradientUnits="userSpaceOnUse" id="gradient1" r="819.2" spreadMethod="pad">
      <stop offset="0.0" stop-color="#766b97"/>
      <stop offset="1.0" stop-color="#524a69"/>
    </radialGradient>
    <radialGradient cx="0" cy="0" gradientTransform="matrix(0.0064, 0.0, 0.0, 0.0064, -1.6, -49.05)" gradientUnits="userSpaceOnUse" id="gradient2" r="819.2" spreadMethod="pad">
      <stop offset="0.0" stop-color="#766b97"/>
      <stop offset="1.0" stop-color="#4f4866"/>
    </radialGradient>
    <radialGradient cx="0" cy="0" gradientTransform="matrix(0.0078, 0.0, 0.0, 0.0078, -2.75, -50.1)" gradientUnits="userSpaceOnUse" id="gradient3" r="819.2" spreadMethod="pad">
      <stop offset="0.0" stop-color="#6e648d"/>
      <stop offset="1.0" stop-color="#564e6e"/>
    </radialGradient>
    <radialGradient cx="0" cy="0" gradientTransform="matrix(0.0238, 0.0, 0.0, 0.0238, -1.15, -51.15)" gradientUnits="userSpaceOnUse" id="gradient4" r="819.2" spreadMethod="pad">
      <stop offset="0.0" stop-color="#6e648d"/>
      <stop offset="1.0" stop-color="#332e41"/>
    </radialGradient>
    <radialGradient cx="0" cy="0" gradientTransform="matrix(0.0179, 0.0, 0.0, 0.0179, 0.8, -49.45)" gradientUnits="userSpaceOnUse" id="gradient5" r="819.2" spreadMethod="pad">
      <stop offset="0.0" stop-color="#766b98"/>
      <stop offset="1.0" stop-color="#453f59"/>
    </radialGradient>
    <radialGradient cx="0" cy="0" gradientTransform="matrix(0.007, 0.0, 0.0, 0.007, -7.5, -51.3)" gradientUnits="userSpaceOnUse" id="gradient6" r="819.2" spreadMethod="pad">
      <stop offset="0.0" stop-color="#776c99"/>
      <stop offset="1.0" stop-color="#524a69"/>
    </radialGradient>
    <radialGradient cx="0" cy="0" gradientTransform="matrix(0.003, 0.0, 0.0, 0.003, -6.6, -49.25)" gradientUnits="userSpaceOnUse" id="gradient7" r="819.2" spreadMethod="pad">
      <stop offset="0.0" stop-color="#716791"/>
      <stop offset="1.0" stop-color="#3a354b"/>
    </radialGradient>
    <radialGradient cx="0" cy="0" gradientTransform="matrix(0.0114, 0.0, 0.0, 0.0114, -5.65, -47.4)" gradientUnits="userSpaceOnUse" id="gradient8" r="819.2" spreadMethod="pad">
      <stop offset="0.0" stop-color="#6f658e"/>
      <stop offset="1.0" stop-color="#3a344a"/>
    </radialGradient>
    <radialGradient cx="0" cy="0" gradientTransform="matrix(0.0037, 0.0, 0.0, 0.0037, -4.75, -48.75)" gradientUnits="userSpaceOnUse" id="gradient9" r="819.2" spreadMethod="pad">
      <stop offset="0.0" stop-color="#6a6088"/>
      <stop offset="1.0" stop-color="#5f567a"/>
    </radialGradient>
    <radialGradient cx="0" cy="0" gradientTransform="matrix(0.0238, 0.0, 0.0, 0.0238, -3.75, -48.35)" gradientUnits="userSpaceOnUse" id="gradient10" r="819.2" spreadMethod="pad">
      <stop offset="0.0" stop-color="#716690"/>
      <stop offset="1.0" stop-color="#3e384f"/>
    </radialGradient>
    <radialGradient cx="0" cy="0" gradientTransform="matrix(0.0062, 0.0, 0.0, 0.0062, -4.95, -47.05)" gradientUnits="userSpaceOnUse" id="gradient11" r="819.2" spreadMethod="pad">
      <stop offset="0.0" stop-color="#6a6088"/>
      <stop offset="1.0" stop-color="#363145"/>
    </radialGradient>
    <radialGradient cx="0" cy="0" gradientTransform="matrix(0.0159, 0.0, 0.0, 0.0159, 0.35, -47.2)" gradientUnits="userSpaceOnUse" id="gradient12" r="819.2" spreadMethod="pad">
      <stop offset="0.0" stop-color="#585070"/>
      <stop offset="1.0" stop-color="#4b4461"/>
    </radialGradient>
    <radialGradient cx="0" cy="0" gradientTransform="matrix(0.0083, 0.0, 0.0, 0.0083, -4.0, -46.75)" gradientUnits="userSpaceOnUse" id="gradient13" r="819.2" spreadMethod="pad">
      <stop offset="0.0" stop-color="#716690"/>
      <stop offset="1.0" stop-color="#3a354b"/>
    </radialGradient>
    <radialGradient cx="0" cy="0" gradientTransform="matrix(0.0054, 0.0, 0.0, 0.0054, -2.4, -42.85)" gradientUnits="userSpaceOnUse" id="gradient14" r="819.2" spreadMethod="pad">
      <stop offset="0.0" stop-color="#e8a860"/>
      <stop offset="1.0" stop-color="#9b7040"/>
    </radialGradient>
    <radialGradient cx="0" cy="0" gradientTransform="matrix(0.0076, 0.0, 0.0, 0.0076, -6.65, -42.65)" gradientUnits="userSpaceOnUse" id="gradient15" r="819.2" spreadMethod="pad">
      <stop offset="0.0" stop-color="#24334a"/>
      <stop offset="1.0" stop-color="#1f2d41"/>
    </radialGradient>
    <radialGradient cx="0" cy="0" gradientTransform="matrix(0.0136, 0.0, 0.0, 0.0136, -5.45, -37.5)" gradientUnits="userSpaceOnUse" id="gradient16" r="819.2" spreadMethod="pad">
      <stop offset="0.0" stop-color="#354d6e"/>
      <stop offset="1.0" stop-color="#1e2c40"/>
    </radialGradient>
    <radialGradient cx="0" cy="0" gradientTransform="matrix(0.0036, 0.0, 0.0, 0.0036, -8.05, -43.9)" gradientUnits="userSpaceOnUse" id="gradient17" r="819.2" spreadMethod="pad">
      <stop offset="0.0" stop-color="#0e181e"/>
      <stop offset="1.0" stop-color="#0e181e"/>
    </radialGradient>
    <radialGradient cx="0" cy="0" gradientTransform="matrix(0.0038, 0.0, 0.0, 0.0038, -7.85, -41.2)" gradientUnits="userSpaceOnUse" id="gradient18" r="819.2" spreadMethod="pad">
      <stop offset="0.0" stop-color="#74c7f8"/>
      <stop offset="1.0" stop-color="#538fb2"/>
    </radialGradient>
    <radialGradient cx="0" cy="0" gradientTransform="matrix(0.0172, 0.0, 0.0, 0.0172, 9.95, -34.45)" gradientUnits="userSpaceOnUse" id="gradient19" r="819.2" spreadMethod="pad">
      <stop offset="0.0" stop-color="#524a69"/>
      <stop offset="1.0" stop-color="#463f5a"/>
    </radialGradient>
    <radialGradient cx="0" cy="0" gradientTransform="matrix(0.0198, 0.0, 0.0, 0.0198, -5.3, -32.6)" gradientUnits="userSpaceOnUse" id="gradient20" r="819.2" spreadMethod="pad">
      <stop offset="0.0" stop-color="#6a3a0d"/>
      <stop offset="1.0" stop-color="#492709"/>
    </radialGradient>
    <radialGradient cx="0" cy="0" gradientTransform="matrix(0.0097, 0.0, 0.0, 0.0097, -3.05, -42.6)" gradientUnits="userSpaceOnUse" id="gradient21" r="819.2" spreadMethod="pad">
      <stop offset="0.0" stop-color="#fdefc7"/>
      <stop offset="1.0" stop-color="#c3b898"/>
    </radialGradient>
    <radialGradient cx="0" cy="0" gradientTransform="matrix(0.0078, 0.0, 0.0, 0.0078, -1.85, -40.7)" gradientUnits="userSpaceOnUse" id="gradient22" r="819.2" spreadMethod="pad">
      <stop offset="0.0" stop-color="#304564"/>
      <stop offset="1.0" stop-color="#213046"/>
    </radialGradient>
    <radialGradient cx="0" cy="0" gradientTransform="matrix(0.0013, 0.0, 0.0, 0.0013, 2.4, -44.6)" gradientUnits="userSpaceOnUse" id="gradient23" r="819.2" spreadMethod="pad">
      <stop offset="0.0" stop-color="#06090d"/>
      <stop offset="1.0" stop-color="#06090d"/>
    </radialGradient>
    <radialGradient cx="0" cy="0" gradientTransform="matrix(0.0075, 0.0, 0.0, 0.0075, -1.1, -40.15)" gradientUnits="userSpaceOnUse" id="gradient24" r="819.2" spreadMethod="pad">
      <stop offset="0.0" stop-color="#f1ae64"/>
      <stop offset="1.0" stop-color="#cb9354"/>
    </radialGradient>
    <radialGradient cx="0" cy="0" gradientTransform="matrix(0.0083, 0.0, 0.0, 0.0083, -1.45, -42.2)" gradientUnits="userSpaceOnUse" id="gradient25" r="819.2" spreadMethod="pad">
      <stop offset="0.0" stop-color="#314765"/>
      <stop offset="1.0" stop-color="#2b3d58"/>
    </radialGradient>
    <radialGradient cx="0" cy="0" gradientTransform="matrix(0.0031, 0.0, 0.0, 0.0031, -2.05, -40.1)" gradientUnits="userSpaceOnUse" id="gradient26" r="819.2" spreadMethod="pad">
      <stop offset="0.0" stop-color="#233247"/>
      <stop offset="1.0" stop-color="#213045"/>
    </radialGradient>
    <radialGradient cx="0" cy="0" gradientTransform="matrix(0.0056, 0.0, 0.0, 0.0056, -10.0, -38.0)" gradientUnits="userSpaceOnUse" id="gradient27" r="819.2" spreadMethod="pad">
      <stop offset="0.0" stop-color="#4c82a2"/>
      <stop offset="1.0" stop-color="#447693"/>
    </radialGradient>
    <radialGradient cx="0" cy="0" gradientTransform="matrix(0.0066, 0.0, 0.0, 0.0066, -10.9, -35.95)" gradientUnits="userSpaceOnUse" id="gradient28" r="819.2" spreadMethod="pad">
      <stop offset="0.0" stop-color="#212f44"/>
      <stop offset="1.0" stop-color="#1b2739"/>
    </radialGradient>
    <radialGradient cx="0" cy="0" gradientTransform="matrix(0.0078, 0.0, 0.0, 0.0078, -12.2, -31.9)" gradientUnits="userSpaceOnUse" id="gradient29" r="819.2" spreadMethod="pad">
      <stop offset="0.0" stop-color="#233247"/>
      <stop offset="1.0" stop-color="#1b2839"/>
    </radialGradient>
    <radialGradient cx="0" cy="0" gradientTransform="matrix(0.0023, 0.0, 0.0, 0.0023, -5.8, -30.9)" gradientUnits="userSpaceOnUse" id="gradient30" r="819.2" spreadMethod="pad">
      <stop offset="0.0" stop-color="#ffbe00"/>
      <stop offset="1.0" stop-color="#d66e00"/>
    </radialGradient>
    <radialGradient cx="0" cy="0" gradientTransform="matrix(0.0135, 0.0, 0.0, 0.0135, 3.8, -30.3)" gradientUnits="userSpaceOnUse" id="gradient31" r="819.2" spreadMethod="pad">
      <stop offset="0.0" stop-color="#9c937a"/>
      <stop offset="1.0" stop-color="#6d6755"/>
    </radialGradient>
    <radialGradient cx="0" cy="0" gradientTransform="matrix(0.0031, 0.0, 0.0, 0.0031, -3.65, -34.4)" gradientUnits="userSpaceOnUse" id="gradient32" r="819.2" spreadMethod="pad">
      <stop offset="0.0" stop-color="#ffbe00"/>
      <stop offset="1.0" stop-color="#c86800"/>
    </radialGradient>
    <radialGradient cx="0" cy="0" gradientTransform="matrix(0.0083, 0.0, 0.0, 0.0083, 5.45, -40.35)" gradientUnits="userSpaceOnUse" id="gradient33" r="819.2" spreadMethod="pad">
      <stop offset="0.0" stop-color="#74c7f8"/>
      <stop offset="1.0" stop-color="#60a5ce"/>
    </radialGradient>
    <radialGradient cx="0" cy="0" gradientTransform="matrix(0.0036, 0.0, 0.0, 0.0036, 3.75, -41.55)" gradientUnits="userSpaceOnUse" id="gradient34" r="819.2" spreadMethod="pad">
      <stop offset="0.0" stop-color="#ffb700"/>
      <stop offset="1.0" stop-color="#cc6b00"/>
    </radialGradient>
    <radialGradient cx="0" cy="0" gradientTransform="matrix(0.0021, 0.0, 0.0, 0.0021, -4.6, -38.9)" gradientUnits="userSpaceOnUse" id="gradient35" r="819.2" spreadMethod="pad">
      <stop offset="0.0" stop-color="#354c6e"/>
      <stop offset="1.0" stop-color="#304665"/>
    </radialGradient>
    <radialGradient cx="0" cy="0" gradientTransform="matrix(0.0013, 0.0, 0.0, 0.0013, -6.35, -41.5)" gradientUnits="userSpaceOnUse" id="gradient36" r="819.2" spreadMethod="pad">
      <stop offset="0.0" stop-color="#4b80a0"/>
      <stop offset="1.0" stop-color="#4a809f"/>
    </radialGradient>
    <radialGradient cx="0" cy="0" gradientTransform="matrix(0.0021, 0.0, 0.0, 0.0021, -6.35, -41.5)" gradientUnits="userSpaceOnUse" id="gradient37" r="819.2" spreadMethod="pad">
      <stop offset="0.0" stop-color="#5491b5"/>
      <stop offset="1.0" stop-color="#5491b4"/>
    </radialGradient>
    <radialGradient cx="0" cy="0" gradientTransform="matrix(0.0041, 0.0, 0.0, 0.0041, -1.55, -41.85)" gradientUnits="userSpaceOnUse" id="gradient38" r="819.2" spreadMethod="pad">
      <stop offset="0.0" stop-color="#2f4361"/>
      <stop offset="1.0" stop-color="#2d415e"/>
    </radialGradient>
    <radialGradient cx="0" cy="0" gradientTransform="matrix(0.0028, 0.0, 0.0, 0.0028, 9.7, -40.9)" gradientUnits="userSpaceOnUse" id="gradient39" r="819.2" spreadMethod="pad">
      <stop offset="0.0" stop-color="#3d6983"/>
      <stop offset="1.0" stop-color="#111e26"/>
    </radialGradient>
    <radialGradient cx="0" cy="0" gradientTransform="matrix(0.0149, 0.0, 0.0, 0.0149, 6.8, -37.35)" gradientUnits="userSpaceOnUse" id="gradient40" r="819.2" spreadMethod="pad">
      <stop offset="0.0" stop-color="#344b6c"/>
      <stop offset="1.0" stop-color="#202e42"/>
    </radialGradient>
    <radialGradient cx="0" cy="0" gradientTransform="matrix(0.0042, 0.0, 0.0, 0.0042, 0.8, -37.2)" gradientUnits="userSpaceOnUse" id="gradient41" r="819.2" spreadMethod="pad">
      <stop offset="0.0" stop-color="#ffb000"/>
      <stop offset="1.0" stop-color="#f78000"/>
    </radialGradient>
    <radialGradient cx="0" cy="0" gradientTransform="matrix(0.0049, 0.0, 0.0, 0.0049, -0.3, -37.95)" gradientUnits="userSpaceOnUse" id="gradient42" r="819.2" spreadMethod="pad">
      <stop offset="0.0" stop-color="#eadcb7"/>
      <stop offset="1.0" stop-color="#7f7863"/>
    </radialGradient>
    <radialGradient cx="0" cy="0" gradientTransform="matrix(0.0049, 0.0, 0.0, 0.0049, -1.6, -34.4)" gradientUnits="userSpaceOnUse" id="gradient43" r="819.2" spreadMethod="pad">
      <stop offset="0.0" stop-color="#a59c82"/>
      <stop offset="1.0" stop-color="#a0977e"/>
    </radialGradient>
    <radialGradient cx="0" cy="0" gradientTransform="matrix(0.0014, 0.0, 0.0, 0.0014, -1.75, -32.5)" gradientUnits="userSpaceOnUse" id="gradient44" r="819.2" spreadMethod="pad">
      <stop offset="0.0" stop-color="#1f1e19"/>
      <stop offset="1.0" stop-color="#1f1e19"/>
    </radialGradient>
    <radialGradient cx="0" cy="0" gradientTransform="matrix(0.0051, 0.0, 0.0, 0.0051, 8.75, -25.9)" gradientUnits="userSpaceOnUse" id="gradient45" r="819.2" spreadMethod="pad">
      <stop offset="0.0" stop-color="#78ceff"/>
      <stop offset="1.0" stop-color="#447591"/>
    </radialGradient>
    <radialGradient cx="0" cy="0" gradientTransform="matrix(0.0076, 0.0, 0.0, 0.0076, 8.75, -25.9)" gradientUnits="userSpaceOnUse" id="gradient46" r="819.2" spreadMethod="pad">
      <stop offset="0.0" stop-color="#354c6d"/>
      <stop offset="1.0" stop-color="#1e2a3d"/>
    </radialGradient>
    <radialGradient cx="0" cy="0" gradientTransform="matrix(0.0133, 0.0, 0.0, 0.0133, 4.2, -26.85)" gradientUnits="userSpaceOnUse" id="gradient47" r="819.2" spreadMethod="pad">
      <stop offset="0.0" stop-color="#344b6c"/>
      <stop offset="1.0" stop-color="#24354c"/>
    </radialGradient>
    <radialGradient cx="0" cy="0" gradientTransform="matrix(0.0128, 0.0, 0.0, 0.0128, 5.7, -27.4)" gradientUnits="userSpaceOnUse" id="gradient48" r="819.2" spreadMethod="pad">
      <stop offset="0.0" stop-color="#06090d"/>
      <stop offset="1.0" stop-color="#06090d"/>
    </radialGradient>
    <radialGradient cx="0" cy="0" gradientTransform="matrix(0.0144, 0.0, 0.0, 0.0144, 4.1, -31.8)" gradientUnits="userSpaceOnUse" id="gradient49" r="819.2" spreadMethod="pad">
      <stop offset="0.0" stop-color="#77705d"/>
      <stop offset="1.0" stop-color="#1f1e19"/>
    </radialGradient>
    <radialGradient cx="0" cy="0" gradientTransform="matrix(0.0629, 0.0, 0.0, 0.0629, -1.3, -37.95)" gradientUnits="userSpaceOnUse" id="gradient50" r="819.2" spreadMethod="pad">
      <stop offset="0.0" stop-color="#4d2a0a"/>
      <stop offset="1.0" stop-color="#3d2107"/>
    </radialGradient>
    <radialGradient cx="0" cy="0" gradientTransform="matrix(0.0055, 0.0, 0.0, 0.0055, -11.15, -32.9)" gradientUnits="userSpaceOnUse" id="gradient51" r="819.2" spreadMethod="pad">
      <stop offset="0.0" stop-color="#477b99"/>
      <stop offset="1.0" stop-color="#386178"/>
    </radialGradient>
    <radialGradient cx="0" cy="0" gradientTransform="matrix(0.0092, 0.0, 0.0, 0.0092, -9.75, -37.85)" gradientUnits="userSpaceOnUse" id="gradient52" r="819.2" spreadMethod="pad">
      <stop offset="0.0" stop-color="#06090d"/>
      <stop offset="1.0" stop-color="#06090d"/>
    </radialGradient>
    <radialGradient cx="0" cy="0" gradientTransform="matrix(0.0022, 0.0, 0.0, 0.0022, -3.7, -30.35)" gradientUnits="userSpaceOnUse" id="gradient53" r="819.2" spreadMethod="pad">
      <stop offset="0.0" stop-color="#06090d"/>
      <stop offset="1.0" stop-color="#06090d"/>
    </radialGradient>
    <radialGradient cx="0" cy="0" gradientTransform="matrix(0.0023, 0.0, 0.0, 0.0023, -4.2, -31.3)" gradientUnits="userSpaceOnUse" id="gradient54" r="819.2" spreadMethod="pad">
      <stop offset="0.0" stop-color="#182332"/>
      <stop offset="1.0" stop-color="#151f2c"/>
    </radialGradient>
    <radialGradient cx="0" cy="0" gradientTransform="matrix(0.0016, 0.0, 0.0, 0.0016, -3.7, -30.35)" gradientUnits="userSpaceOnUse" id="gradient55" r="819.2" spreadMethod="pad">
      <stop offset="0.0" stop-color="#182332"/>
      <stop offset="1.0" stop-color="#151d2b"/>
    </radialGradient>
    <radialGradient cx="0" cy="0" gradientTransform="matrix(0.0017, 0.0, 0.0, 0.0017, -1.3, -29.05)" gradientUnits="userSpaceOnUse" id="gradient56" r="819.2" spreadMethod="pad">
      <stop offset="0.0" stop-color="#23211b"/>
      <stop offset="1.0" stop-color="#1f1e19"/>
    </radialGradient>
    <radialGradient cx="0" cy="0" gradientTransform="matrix(0.0135, 0.0, 0.0, 0.0135, -2.2, -18.4)" gradientUnits="userSpaceOnUse" id="gradient57" r="819.2" spreadMethod="pad">
      <stop offset="0.0" stop-color="#66b0db"/>
      <stop offset="1.0" stop-color="#4e86a7"/>
    </radialGradient>
    <radialGradient cx="0" cy="0" gradientTransform="matrix(0.0621, 0.0, 0.0, 0.0621, -1.45, 12.65)" gradientUnits="userSpaceOnUse" id="gradient58" r="819.2" spreadMethod="pad">
      <stop offset="0.0" stop-color="#0e0802"/>
      <stop offset="1.0" stop-color="#0e0802"/>
    </radialGradient>
    <radialGradient cx="0" cy="0" gradientTransform="matrix(0.0105, 0.0, 0.0, 0.0105, 3.75, -14.65)" gradientUnits="userSpaceOnUse" id="gradient59" r="819.2" spreadMethod="pad">
      <stop offset="0.0" stop-color="#1b2738"/>
      <stop offset="1.0" stop-color="#06090d"/>
    </radialGradient>
    <radialGradient cx="0" cy="0" gradientTransform="matrix(0.0035, 0.0, 0.0, 0.0035, -1.05, -19.8)" gradientUnits="userSpaceOnUse" id="gradient60" r="819.2" spreadMethod="pad">
      <stop offset="0.0" stop-color="#ffe181"/>
      <stop offset="1.0" stop-color="#d59a58"/>
    </radialGradient>
    <radialGradient cx="0" cy="0" gradientTransform="matrix(0.007, 0.0, 0.0, 0.007, 6.6, -23.6)" gradientUnits="userSpaceOnUse" id="gradient61" r="819.2" spreadMethod="pad">
      <stop offset="0.0" stop-color="#70c1f0"/>
      <stop offset="1.0" stop-color="#457794"/>
    </radialGradient>
    <radialGradient cx="0" cy="0" gradientTransform="matrix(0.0066, 0.0, 0.0, 0.0066, 2.35, -19.85)" gradientUnits="userSpaceOnUse" id="gradient62" r="819.2" spreadMethod="pad">
      <stop offset="0.0" stop-color="#2d405c"/>
      <stop offset="1.0" stop-color="#212f44"/>
    </radialGradient>
    <radialGradient cx="0" cy="0" gradientTransform="matrix(0.0357, 0.0, 0.0, 0.0357, -3.6, 6.5)" gradientUnits="userSpaceOnUse" id="gradient63" r="819.2" spreadMethod="pad">
      <stop offset="0.0" stop-color="#2f4461"/>
      <stop offset="1.0" stop-color="#1e2b3d"/>
    </radialGradient>
    <radialGradient cx="0" cy="0" gradientTransform="matrix(0.0155, 0.0, 0.0, 0.0155, 6.7, -11.5)" gradientUnits="userSpaceOnUse" id="gradient64" r="819.2" spreadMethod="pad">
      <stop offset="0.0" stop-color="#2f2c24"/>
      <stop offset="1.0" stop-color="#1f1e19"/>
    </radialGradient>
    <radialGradient cx="0" cy="0" gradientTransform="matrix(0.0091, 0.0, 0.0, 0.0091, -6.95, -23.6)" gradientUnits="userSpaceOnUse" id="gradient65" r="819.2" spreadMethod="pad">
      <stop offset="0.0" stop-color="#a1987e"/>
      <stop offset="1.0" stop-color="#79725f"/>
    </radialGradient>
    <radialGradient cx="0" cy="0" gradientTransform="matrix(0.0159, 0.0, 0.0, 0.0159, -6.35, -15.9)" gradientUnits="userSpaceOnUse" id="gradient66" r="819.2" spreadMethod="pad">
      <stop offset="0.0" stop-color="#06090d"/>
      <stop offset="1.0" stop-color="#06090d"/>
    </radialGradient>
    <radialGradient cx="0" cy="0" gradientTransform="matrix(0.0039, 0.0, 0.0, 0.0039, 0.4, -18.2)" gradientUnits="userSpaceOnUse" id="gradient67" r="819.2" spreadMethod="pad">
      <stop offset="0.0" stop-color="#ffe483"/>
      <stop offset="1.0" stop-color="#966c3e"/>
    </radialGradient>
    <radialGradient cx="0" cy="0" gradientTransform="matrix(0.0152, 0.0, 0.0, 0.0152, -3.45, -18.75)" gradientUnits="userSpaceOnUse" id="gradient68" r="819.2" spreadMethod="pad">
      <stop offset="0.0" stop-color="#9d947b"/>
      <stop offset="1.0" stop-color="#534e40"/>
    </radialGradient>
    <radialGradient cx="0" cy="0" gradientTransform="matrix(0.0281, 0.0, 0.0, 0.0281, -7.1, 8.7)" gradientUnits="userSpaceOnUse" id="gradient69" r="819.2" spreadMethod="pad">
      <stop offset="0.0" stop-color="#6bb8e5"/>
      <stop offset="1.0" stop-color="#4a7f9e"/>
    </radialGradient>
    <radialGradient cx="0" cy="0" gradientTransform="matrix(0.0076, 0.0, 0.0, 0.0076, -1.45, 7.55)" gradientUnits="userSpaceOnUse" id="gradient70" r="819.2" spreadMethod="pad">
      <stop offset="0.0" stop-color="#857d68"/>
      <stop offset="1.0" stop-color="#7d7561"/>
    </radialGradient>
    <radialGradient cx="0" cy="0" gradientTransform="matrix(0.0027, 0.0, 0.0, 0.0027, 0.6, 7.8)" gradientUnits="userSpaceOnUse" id="gradient71" r="819.2" spreadMethod="pad">
      <stop offset="0.0" stop-color="#ffffd5"/>
      <stop offset="1.0" stop-color="#ffffd5"/>
    </radialGradient>
  </defs>
</svg>
