<?xml version="1.0" encoding="UTF-8" standalone="no"?>
<svg xmlns:ffdec="https://www.free-decompiler.com/flash" xmlns:xlink="http://www.w3.org/1999/xlink" ffdec:objectType="shape" height="69.5px" width="46.75px" xmlns="http://www.w3.org/2000/svg">
  <g transform="matrix(1.0, 0.0, 0.0, 1.0, 29.2, 58.05)">
    <path d="M11.3 -43.15 L7.65 -50.8 3.35 -56.2 2.5 -56.6 -0.15 -57.1 -0.95 -57.5 -1.3 -57.45 -0.7 -58.05 3.8 -56.55 Q10.05 -48.75 9.6 -47.55 L11.0 -44.05 11.1 -43.85 11.3 -43.15 M-2.05 -56.55 L-2.45 -55.9 -2.75 -55.85 -2.05 -56.55 M12.6 -38.1 L13.5 -36.05 13.65 -35.3 14.25 -32.75 15.05 -29.6 14.9 -29.55 14.45 -31.2 13.9 -33.5 13.65 -34.15 13.6 -34.2 13.6 -34.25 13.55 -34.35 13.55 -34.4 13.45 -34.8 13.45 -34.85 13.4 -35.0 13.4 -35.05 13.3 -35.2 13.1 -36.05 13.05 -36.15 13.0 -36.45 12.6 -38.1 M12.5 -39.95 L12.15 -41.0 12.5 -40.35 12.5 -39.95" fill="url(#gradient0)" fill-rule="evenodd" stroke="none"/>
    <path d="M-1.3 -57.45 L-0.95 -57.5 -0.15 -57.1 2.5 -56.6 3.35 -56.2 7.65 -50.8 11.3 -43.15 12.15 -41.0 12.5 -39.95 14.9 -32.4 14.95 -32.0 14.75 -32.55 13.65 -35.3 13.5 -36.05 12.6 -38.1 12.6 -38.15 12.55 -38.2 11.2 -41.8 10.4 -43.2 10.15 -43.7 6.85 -49.75 5.95 -50.65 5.9 -50.7 Q5.4 -54.35 0.1 -54.95 L-1.3 -55.3 -1.95 -55.2 -2.55 -55.3 -2.6 -55.35 -2.45 -55.9 -2.05 -56.55 -1.55 -57.3 -1.3 -57.45" fill="url(#gradient1)" fill-rule="evenodd" stroke="none"/>
    <path d="M11.1 -43.85 L11.0 -44.05 11.15 -43.85 11.1 -43.85 M10.4 -43.2 L11.2 -41.8 Q10.85 -41.2 11.85 -39.8 L11.95 -38.9 12.15 -38.05 11.95 -37.15 10.35 -42.9 10.4 -43.2 M6.95 -36.1 L7.65 -34.4 7.15 -34.85 7.1 -35.0 7.1 -35.05 7.0 -35.2 6.95 -36.1 M11.3 -35.45 L11.1 -35.05 10.65 -37.05 11.3 -35.45" fill="url(#gradient2)" fill-rule="evenodd" stroke="none"/>
    <path d="M11.0 -44.05 L9.6 -47.55 11.75 -44.6 16.5 -35.45 16.4 -35.4 11.15 -43.85 11.0 -44.05 M-1.55 -57.3 L-2.05 -56.55 -2.75 -55.85 -2.9 -55.8 -3.1 -55.95 Q-2.75 -57.15 -2.35 -57.35 L-1.55 -57.3" fill="url(#gradient3)" fill-rule="evenodd" stroke="none"/>
    <path d="M-2.6 -55.35 L-2.55 -55.3 -1.75 -54.15 -1.75 -53.95 -1.9 -53.7 -2.2 -53.45 -5.05 -52.9 -5.35 -53.0 -5.75 -53.05 -5.85 -53.25 -5.6 -54.55 -5.55 -54.6 -5.4 -54.8 -4.45 -55.75 -3.1 -55.95 -2.9 -55.8 -2.6 -55.35 M3.5 -42.9 L3.55 -42.75 3.65 -42.6 6.0 -38.4 6.6 -37.05 3.25 -42.45 2.7 -43.9 3.5 -42.9" fill="url(#gradient4)" fill-rule="evenodd" stroke="none"/>
    <path d="M-7.35 -51.8 Q-7.2 -54.75 -5.4 -54.8 L-5.55 -54.6 -5.6 -54.6 -6.3 -54.2 -6.4 -53.6 -6.65 -53.6 -7.35 -51.8" fill="url(#gradient5)" fill-rule="evenodd" stroke="none"/>
    <path d="M-6.85 -50.5 L-7.0 -50.8 -7.35 -51.65 -7.35 -51.8 -6.65 -53.6 -6.4 -53.6 -6.85 -50.5 M-2.45 -44.05 L-2.75 -44.65 -2.6 -44.6 -2.05 -43.95 -1.9 -43.8 -1.8 -43.7 -1.6 -43.45 -1.55 -43.4 -1.45 -43.35 -0.9 -42.75 -0.75 -42.5 -0.95 -42.6 -1.45 -43.1 -1.85 -43.4 -2.0 -43.6 -2.25 -43.85 -2.45 -44.05" fill="url(#gradient6)" fill-rule="evenodd" stroke="none"/>
    <path d="M-3.2 -42.8 L-6.7 -49.1 Q-7.05 -49.35 -6.85 -50.5 L-6.4 -53.6 -6.3 -54.2 -5.6 -54.6 -5.6 -54.55 -5.85 -53.25 -5.75 -53.05 -5.35 -53.0 Q-6.55 -51.2 -3.65 -46.65 L-2.75 -44.65 -2.45 -44.05 -2.35 -43.8 -1.95 -43.1 -0.55 -41.35 1.3 -39.15 1.45 -38.95 4.2 -35.55 7.65 -32.5 8.1 -32.1 8.25 -32.0 8.75 -31.55 9.0 -31.35 11.95 -28.7 12.35 -28.35 13.15 -27.65 12.35 -28.2 12.0 -28.45 9.3 -30.65 9.0 -30.95 8.8 -31.05 8.2 -31.55 8.1 -31.65 4.35 -34.7 3.05 -36.0 -0.1 -39.45 -2.85 -42.45 -3.1 -42.75 -3.2 -42.8 M13.5 -27.3 L13.4 -27.35 13.5 -27.35 13.5 -27.3" fill="url(#gradient7)" fill-rule="evenodd" stroke="none"/>
    <path d="M-5.6 -54.55 L-5.6 -54.6 -5.55 -54.6 -5.6 -54.55" fill="url(#gradient8)" fill-rule="evenodd" stroke="none"/>
    <path d="M-2.45 -55.9 L-2.6 -55.35 -2.9 -55.8 -2.75 -55.85 -2.45 -55.9 M-2.55 -55.3 L-1.95 -55.2 -1.3 -55.3 0.1 -54.95 -0.65 -54.7 -1.75 -53.95 -1.75 -54.15 -2.55 -55.3 M-3.65 -46.65 Q-6.55 -51.2 -5.35 -53.0 L-5.05 -52.9 Q-5.6 -52.9 -5.5 -50.7 L-3.1 -46.35 -3.65 -46.65" fill="url(#gradient9)" fill-rule="evenodd" stroke="none"/>
    <path d="M0.1 -54.95 Q5.4 -54.35 5.9 -50.7 L5.95 -50.65 7.1 -47.95 8.2 -44.25 9.6 -39.65 11.95 -28.7 9.0 -31.35 8.1 -33.5 7.95 -33.75 7.65 -34.4 6.95 -36.1 6.6 -37.05 6.0 -38.4 3.65 -42.6 3.55 -42.75 3.5 -42.9 2.2 -45.1 2.05 -45.55 Q0.65 -49.7 -1.75 -50.9 L-1.85 -51.6 -1.45 -52.8 -2.2 -53.45 -1.9 -53.7 -1.75 -53.95 -0.65 -54.7 0.1 -54.95 M9.3 -30.65 L12.0 -28.45 12.5 -25.5 12.5 -25.4 12.55 -25.15 13.6 -18.65 13.6 -18.2 13.05 -19.6 11.75 -23.9 12.85 -22.35 12.85 -22.6 10.85 -26.3 10.2 -28.5 9.3 -30.65" fill="url(#gradient10)" fill-rule="evenodd" stroke="none"/>
    <path d="M-2.75 -44.65 L-3.65 -46.65 -3.1 -46.35 -2.0 -44.55 -2.6 -44.6 -2.75 -44.65" fill="url(#gradient11)" fill-rule="evenodd" stroke="none"/>
    <path d="M-3.1 -42.75 L-2.85 -42.45 Q-3.05 -42.3 -3.3 -42.2 L-3.1 -42.75 M-1.95 -43.1 L-2.35 -43.8 -2.25 -43.85 -2.0 -43.6 -1.95 -43.1 M-1.45 -43.4 L-1.55 -43.4 -1.6 -43.45 -1.8 -43.85 -1.85 -44.05 -1.8 -44.15 -1.45 -43.6 -1.45 -43.4" fill="url(#gradient12)" fill-rule="evenodd" stroke="none"/>
    <path d="M-24.2 -49.95 L-26.3 -49.55 -28.6 -47.65 Q-30.2 -47.4 -27.55 -51.45 L-24.5 -53.6 Q-21.6 -55.9 -14.3 -50.8 L-12.8 -49.5 -12.7 -49.4 -12.4 -49.15 -12.25 -49.05 -12.1 -48.85 -11.8 -48.65 -11.7 -48.55 -11.65 -48.4 Q-13.15 -48.0 -13.5 -45.55 L-13.5 -45.45 -15.4 -46.65 Q-14.75 -47.8 -15.3 -49.7 -18.25 -49.85 -16.55 -47.4 L-16.65 -47.4 Q-17.55 -47.4 -19.0 -50.9 L-19.9 -51.8 Q-22.2 -51.95 -21.45 -49.5 L-22.15 -49.7 -22.15 -50.0 -23.25 -52.55 -23.75 -53.05 Q-25.15 -51.55 -23.0 -49.95 L-24.15 -50.0 -24.05 -50.15 -24.45 -50.45 -25.55 -52.55 Q-26.8 -50.75 -24.2 -49.95" fill="url(#gradient13)" fill-rule="evenodd" stroke="none"/>
    <path d="M-23.0 -49.95 Q-25.15 -51.55 -23.75 -53.05 L-23.25 -52.55 -22.15 -50.0 -22.15 -49.7 -22.75 -49.8 -23.0 -49.95" fill="url(#gradient14)" fill-rule="evenodd" stroke="none"/>
    <path d="M4.35 -34.7 L8.1 -31.65 8.15 -31.5 9.05 -29.8 9.2 -29.45 9.25 -29.4 9.95 -27.95 10.85 -26.3 12.85 -22.6 12.85 -22.35 11.75 -23.9 10.5 -25.6 9.15 -27.6 8.2 -28.9 7.55 -29.85 4.35 -34.7 M7.65 -32.5 L4.2 -35.55 1.45 -38.95 1.35 -39.15 0.0 -41.35 -0.75 -42.5 -0.9 -42.75 -1.45 -43.6 -1.8 -44.15 -1.85 -44.25 -2.0 -44.55 -3.1 -46.35 -5.5 -50.7 Q-5.6 -52.9 -5.05 -52.9 L-2.2 -53.45 -1.45 -52.8 -1.85 -51.6 -1.75 -50.9 Q0.65 -49.7 2.05 -45.55 L2.2 -45.1 2.7 -43.9 3.25 -42.45 4.3 -39.65 7.1 -33.75 7.5 -33.0 7.65 -32.5" fill="url(#gradient15)" fill-rule="evenodd" stroke="none"/>
    <path d="M9.0 -30.95 L9.3 -30.65 10.2 -28.5 10.85 -26.3 9.95 -27.95 10.0 -28.2 9.15 -30.4 9.0 -30.95 M12.0 -28.45 L12.35 -28.2 12.5 -25.5 12.0 -28.45 M12.35 -28.35 L11.95 -28.7 9.6 -39.65 8.2 -44.25 9.8 -40.65 10.65 -37.05 11.1 -35.05 11.5 -33.15 12.0 -30.75 12.3 -28.85 12.35 -28.35 M9.0 -31.35 L8.75 -31.55 8.1 -33.1 8.05 -33.5 7.95 -33.75 8.1 -33.5 9.0 -31.35 M2.2 -45.1 L3.5 -42.9 2.7 -43.9 2.2 -45.1 M12.6 -25.3 L12.55 -25.15 12.5 -25.4 12.6 -25.3 M13.05 -19.6 L12.55 -9.75 12.45 -9.65 12.15 -14.05 12.0 -18.4 11.8 -19.0 10.5 -25.6 11.75 -23.9 13.05 -19.6" fill="url(#gradient16)" fill-rule="evenodd" stroke="none"/>
    <path d="M3.05 -36.0 L4.35 -34.7 7.55 -29.85 7.65 -26.9 7.6 -21.3 7.6 -18.7 7.35 -16.25 6.9 -12.3 6.65 -10.3 6.55 -10.25 6.35 -18.35 6.2 -20.05 5.7 -23.9 5.25 -27.25 4.15 -31.25 3.75 -33.0 3.6 -33.85 3.35 -34.7 3.05 -36.0 M6.6 -37.05 L6.95 -36.1 7.0 -35.2 7.05 -35.05 7.05 -35.0 7.1 -33.75 4.3 -39.65 3.25 -42.45 6.6 -37.05" fill="url(#gradient17)" fill-rule="evenodd" stroke="none"/>
    <path d="M7.1 -35.0 L7.05 -35.0 7.05 -35.05 7.1 -35.05 7.1 -35.0" fill="url(#gradient18)" fill-rule="evenodd" stroke="none"/>
    <path d="M-24.2 -49.95 Q-26.8 -50.75 -25.55 -52.55 L-24.45 -50.45 -24.05 -50.15 -24.15 -50.0 -24.2 -49.95" fill="url(#gradient19)" fill-rule="evenodd" stroke="none"/>
    <path d="M-16.65 -47.4 L-16.75 -47.35 -17.85 -46.9 Q-18.2 -46.6 -20.2 -47.65 L-20.25 -47.85 -19.6 -47.5 -19.0 -47.6 -18.8 -48.35 -19.35 -49.7 Q-21.35 -51.7 -21.25 -49.2 L-21.25 -49.15 -21.45 -49.5 Q-22.2 -51.95 -19.9 -51.8 L-19.0 -50.9 Q-17.55 -47.4 -16.65 -47.4" fill="url(#gradient20)" fill-rule="evenodd" stroke="none"/>
    <path d="M-15.4 -46.65 L-16.05 -46.95 -16.55 -47.4 Q-18.25 -49.85 -15.3 -49.7 -14.75 -47.8 -15.4 -46.65" fill="url(#gradient21)" fill-rule="evenodd" stroke="none"/>
    <path d="M-3.55 -42.0 L-3.55 -42.3 -3.2 -42.8 -3.1 -42.75 -3.3 -42.2 -3.55 -42.0" fill="url(#gradient22)" fill-rule="evenodd" stroke="none"/>
    <path d="M-3.9 -41.45 L-3.85 -41.75 -3.55 -42.0 -3.3 -42.2 Q-3.05 -42.3 -2.85 -42.45 L-0.1 -39.45 Q-2.95 -40.5 -2.8 -40.95 L-3.9 -41.25 -3.9 -41.45 M1.3 -39.15 L-0.55 -41.35 0.0 -41.35 1.35 -39.15 1.3 -39.15" fill="url(#gradient23)" fill-rule="evenodd" stroke="none"/>
    <path d="M5.95 -50.65 L6.85 -49.75 10.15 -43.7 10.35 -42.9 11.95 -37.15 12.6 -34.3 13.05 -31.5 13.45 -29.3 14.05 -25.8 14.05 -25.6 13.95 -25.65 13.5 -27.3 13.5 -27.35 13.05 -29.05 12.5 -31.1 11.9 -33.4 11.9 -33.5 11.3 -35.45 10.65 -37.05 9.8 -40.65 8.2 -44.25 7.1 -47.95 5.95 -50.65" fill="url(#gradient24)" fill-rule="evenodd" stroke="none"/>
    <path d="M7.65 -34.4 L7.95 -33.75 8.05 -33.5 8.1 -33.1 7.85 -33.5 7.5 -33.85 7.5 -33.9 7.45 -33.95 7.15 -34.85 7.65 -34.4 M11.95 -37.15 L12.15 -38.05 11.95 -38.9 13.0 -36.45 13.05 -36.15 13.05 -36.05 12.9 -34.55 12.6 -34.3 11.95 -37.15 M11.1 -35.05 L11.3 -35.45 11.9 -33.5 11.9 -33.4 11.5 -33.15 11.1 -35.05" fill="url(#gradient25)" fill-rule="evenodd" stroke="none"/>
    <path d="M-21.25 -49.15 L-21.25 -49.2 Q-21.35 -51.7 -19.35 -49.7 L-18.8 -48.35 -19.0 -47.6 -19.6 -47.5 -20.25 -47.85 -20.95 -48.55 -21.0 -48.65 -21.05 -48.7 -21.1 -48.8 -21.2 -49.0 -21.25 -49.1 -21.25 -49.15" fill="url(#gradient26)" fill-rule="evenodd" stroke="none"/>
    <path d="M-11.7 -48.55 L-11.55 -48.4 -11.65 -48.4 -11.7 -48.55" fill="url(#gradient27)" fill-rule="evenodd" stroke="none"/>
    <path d="M-11.55 -48.4 Q-11.3 -45.95 -13.5 -45.45 L-13.5 -45.55 Q-13.15 -48.0 -11.65 -48.4 L-11.55 -48.4" fill="url(#gradient28)" fill-rule="evenodd" stroke="none"/>
    <path d="M-16.75 -47.35 L-16.65 -45.3 -16.85 -44.7 -17.75 -44.2 Q-18.55 -43.95 -19.6 -44.45 L-20.0 -45.1 -20.2 -47.65 Q-18.2 -46.6 -17.85 -46.9 L-16.75 -47.35" fill="url(#gradient29)" fill-rule="evenodd" stroke="none"/>
    <path d="M-16.85 -44.7 L-15.95 -33.2 -15.9 -32.5 -15.9 -32.35 -17.25 -31.5 Q-18.75 -31.8 -18.45 -32.6 L-19.6 -44.45 Q-18.55 -43.95 -17.75 -44.2 L-16.85 -44.7 M-17.75 -24.95 L-15.25 -25.55 -13.6 -5.15 -14.0 -4.55 -14.35 -4.35 -14.4 -4.35 -14.65 -4.3 -14.75 -4.3 -15.4 -4.5 -15.8 -5.05 -15.9 -5.2 -17.75 -24.95" fill="url(#gradient30)" fill-rule="evenodd" stroke="none"/>
    <path d="M-18.45 -32.6 Q-18.75 -31.8 -17.25 -31.5 L-17.7 -31.2 -19.05 -28.55 Q-20.7 -30.85 -18.45 -32.6 M-15.9 -32.35 L-15.9 -32.5 -15.75 -32.4 -15.9 -32.35" fill="url(#gradient31)" fill-rule="evenodd" stroke="none"/>
    <path d="M-14.9 -32.7 L-14.0 -32.8 -12.2 -31.0 Q-13.35 -32.05 -15.4 -29.35 L-16.05 -27.25 Q-15.9 -25.55 -15.2 -25.6 L-15.25 -25.55 -17.75 -24.95 Q-17.95 -24.05 -19.3 -26.55 L-19.05 -28.55 -17.7 -31.2 -17.25 -31.5 -15.9 -32.35 -15.75 -32.4 -14.9 -32.7" fill="url(#gradient32)" fill-rule="evenodd" stroke="none"/>
    <path d="M-15.95 -33.2 L-15.25 -33.05 -14.9 -32.7 -15.75 -32.4 -15.9 -32.5 -15.95 -33.2" fill="url(#gradient33)" fill-rule="evenodd" stroke="none"/>
    <path d="M-12.2 -31.0 L-10.3 -29.7 -11.7 -29.4 -13.1 -28.2 -14.0 -26.45 Q-14.2 -25.2 -14.0 -24.7 L-15.2 -25.6 Q-15.9 -25.55 -16.05 -27.25 L-15.4 -29.35 Q-13.35 -32.05 -12.2 -31.0" fill="url(#gradient34)" fill-rule="evenodd" stroke="none"/>
    <path d="M-1.8 -44.15 L-1.85 -44.05 -1.9 -43.8 -2.05 -43.95 -2.1 -44.45 -1.85 -44.25 -1.8 -44.15" fill="url(#gradient35)" fill-rule="evenodd" stroke="none"/>
    <path d="M-1.85 -44.05 L-1.8 -43.85 -1.8 -43.7 -1.9 -43.8 -1.85 -44.05" fill="url(#gradient36)" fill-rule="evenodd" stroke="none"/>
    <path d="M-1.45 -42.95 L-1.45 -43.1 -0.95 -42.6 -1.45 -42.95 M-1.45 -43.35 L-1.45 -43.4 -1.45 -43.6 -0.9 -42.75 -1.45 -43.35" fill="url(#gradient37)" fill-rule="evenodd" stroke="none"/>
    <path d="M-1.55 -43.4 L-1.45 -43.4 -1.45 -43.35 -1.55 -43.4" fill="url(#gradient38)" fill-rule="evenodd" stroke="none"/>
    <path d="M-1.45 -43.1 L-1.45 -42.95 -1.85 -43.4 -1.45 -43.1 M-1.8 -43.85 L-1.6 -43.45 -1.8 -43.7 -1.8 -43.85" fill="url(#gradient39)" fill-rule="evenodd" stroke="none"/>
    <path d="M-0.55 -41.35 L-1.95 -43.1 -2.0 -43.6 -1.85 -43.4 -1.45 -42.95 -0.95 -42.6 -0.75 -42.5 0.0 -41.35 -0.55 -41.35" fill="url(#gradient40)" fill-rule="evenodd" stroke="none"/>
    <path d="M10.15 -43.7 L10.4 -43.2 10.35 -42.9 10.15 -43.7" fill="url(#gradient41)" fill-rule="evenodd" stroke="none"/>
    <path d="M-8.35 -35.3 Q-10.6 -39.7 -6.5 -40.8 L-7.55 -39.25 -7.55 -39.0 -7.35 -39.1 -6.55 -38.6 -8.2 -36.5 -8.35 -35.3 M-4.55 -41.35 L-4.45 -41.4 -4.2 -41.3 -3.9 -41.25 -2.8 -40.95 Q-2.95 -40.5 -0.1 -39.45 L3.05 -36.0 3.35 -34.7 Q2.15 -36.6 -4.55 -41.35 M1.45 -38.95 L1.3 -39.15 1.35 -39.15 1.45 -38.95 M3.6 -33.85 L3.75 -33.0 Q0.55 -29.7 -2.1 -30.35 L-1.1 -33.5 -0.95 -34.4 0.9 -32.7 Q1.95 -32.4 2.35 -33.5 3.35 -33.45 3.6 -33.85 M0.7 -28.95 L1.25 -29.1 1.05 -28.95 0.7 -28.95" fill="url(#gradient42)" fill-rule="evenodd" stroke="none"/>
    <path d="M-4.1 -41.4 L-3.9 -41.45 -3.9 -41.25 -4.2 -41.3 -4.1 -41.4" fill="url(#gradient43)" fill-rule="evenodd" stroke="none"/>
    <path d="M-6.5 -40.8 L-5.6 -41.8 -4.55 -41.35 Q2.15 -36.6 3.35 -34.7 L3.6 -33.85 Q3.35 -33.45 2.35 -33.5 1.95 -32.4 0.9 -32.7 L-0.95 -34.4 -4.65 -37.35 -6.55 -38.6 -7.35 -39.1 -7.5 -39.2 -7.55 -39.25 -6.5 -40.8" fill="url(#gradient44)" fill-rule="evenodd" stroke="none"/>
    <path d="M-9.5 -29.2 L-8.6 -32.1 Q-8.65 -34.7 -8.35 -35.3 L-8.2 -36.5 -6.55 -38.6 -4.65 -37.35 -0.95 -34.4 -1.1 -33.5 -2.1 -30.35 -2.4 -29.35 Q-2.7 -27.85 -4.05 -25.55 L-4.35 -24.3 -4.5 -23.55 -4.7 -23.35 -4.95 -23.45 -5.1 -24.0 -5.65 -24.0 -8.5 -24.8 -9.9 -25.7 -10.2 -26.65 -10.1 -27.1 -10.0 -27.25 -10.0 -27.3 -9.5 -29.2" fill="url(#gradient45)" fill-rule="evenodd" stroke="none"/>
    <path d="M-7.35 -39.1 L-7.55 -39.0 -7.55 -39.25 -7.5 -39.2 -7.35 -39.1" fill="url(#gradient46)" fill-rule="evenodd" stroke="none"/>
    <path d="M-4.45 -41.4 L-4.1 -41.4 -4.2 -41.3 -4.45 -41.4" fill="url(#gradient47)" fill-rule="evenodd" stroke="none"/>
    <path d="M14.75 -32.55 L14.95 -32.0 14.9 -32.4 16.95 -31.05 17.55 -28.9 Q15.6 -27.15 14.5 -25.3 L12.6 -25.3 12.5 -25.4 12.5 -25.5 12.35 -28.2 13.15 -27.65 12.35 -28.35 12.3 -28.85 13.05 -29.05 13.5 -27.35 13.4 -27.35 13.5 -27.3 13.95 -25.65 14.05 -25.6 14.05 -25.8 13.45 -29.3 14.4 -30.25 14.45 -31.2 14.9 -29.55 15.05 -29.6 14.25 -32.75 14.75 -32.55 M9.1 -30.0 L9.1 -30.1 9.05 -30.25 9.05 -30.35 9.1 -30.4 9.15 -30.4 10.0 -28.2 9.95 -27.95 9.25 -29.4 9.25 -29.45 9.1 -30.0" fill="url(#gradient48)" fill-rule="evenodd" stroke="none"/>
    <path d="M8.1 -31.65 L8.2 -31.55 8.15 -31.5 8.1 -31.65 M8.1 -32.1 L7.65 -32.5 7.5 -33.0 8.05 -32.35 8.1 -32.2 8.1 -32.1 M4.15 -31.25 L5.25 -27.25 5.7 -23.9 Q1.35 -22.4 -4.35 -24.3 L-4.05 -25.55 Q-2.7 -27.85 -2.4 -29.35 L-1.25 -28.8 0.7 -28.95 1.05 -28.95 1.25 -29.1 1.45 -29.2 1.55 -29.25 Q2.15 -29.25 3.25 -30.25 L4.15 -31.25 M7.65 -26.9 L7.55 -29.85 8.2 -28.9 7.65 -26.9" fill="url(#gradient49)" fill-rule="evenodd" stroke="none"/>
    <path d="M8.75 -31.55 L8.25 -32.0 8.15 -32.2 8.05 -32.35 7.5 -33.85 7.85 -33.5 8.1 -33.1 8.75 -31.55 M13.05 -36.05 L13.1 -36.05 13.3 -35.2 13.4 -35.05 13.4 -35.0 13.45 -34.85 13.45 -34.8 13.55 -34.4 13.55 -34.35 13.6 -34.25 13.6 -34.2 13.6 -34.15 13.75 -33.5 13.8 -33.05 13.05 -31.5 12.6 -34.3 12.9 -34.55 13.05 -36.05 M11.5 -33.15 L11.9 -33.4 12.5 -31.1 12.0 -30.75 11.5 -33.15" fill="url(#gradient50)" fill-rule="evenodd" stroke="none"/>
    <path d="M3.75 -33.0 L4.15 -31.25 3.25 -30.25 Q2.15 -29.25 1.55 -29.25 L1.45 -29.2 1.25 -29.1 0.7 -28.95 -1.25 -28.8 -2.4 -29.35 -2.1 -30.35 Q0.55 -29.7 3.75 -33.0" fill="url(#gradient51)" fill-rule="evenodd" stroke="none"/>
    <path d="M8.8 -31.05 L9.0 -30.95 9.15 -30.4 9.1 -30.4 9.0 -30.5 8.8 -31.05 M13.05 -31.5 L13.8 -33.05 13.75 -33.5 13.6 -34.15 13.65 -34.15 13.9 -33.5 14.45 -31.2 14.4 -30.25 13.45 -29.3 13.05 -31.5 M12.3 -28.85 L12.0 -30.75 12.5 -31.1 13.05 -29.05 12.3 -28.85" fill="url(#gradient52)" fill-rule="evenodd" stroke="none"/>
    <path d="M13.6 -34.15 L13.6 -34.2 13.65 -34.15 13.6 -34.15" fill="url(#gradient53)" fill-rule="evenodd" stroke="none"/>
    <path d="M8.2 -31.55 L8.8 -31.05 9.0 -30.5 9.05 -30.35 9.05 -30.25 9.1 -30.1 9.1 -30.0 9.05 -29.8 8.15 -31.5 8.2 -31.55 M8.25 -32.0 L8.1 -32.1 8.1 -32.2 8.15 -32.2 8.25 -32.0 M5.7 -23.9 L6.2 -20.05 5.7 -19.95 3.55 -19.95 -0.55 -20.45 -3.3 -21.15 -3.85 -21.5 -4.6 -21.8 -5.5 -22.45 -5.8 -22.85 -4.7 -23.35 -4.5 -23.55 -4.35 -24.3 Q1.35 -22.4 5.7 -23.9 M7.6 -21.3 L7.65 -26.9 8.2 -28.9 9.15 -27.6 9.0 -25.8 8.1 -22.4 7.7 -21.5 7.6 -21.3" fill="url(#gradient54)" fill-rule="evenodd" stroke="none"/>
    <path d="M-10.3 -29.7 L-9.5 -29.2 -10.0 -27.3 -10.05 -27.25 -10.1 -27.1 -10.2 -26.65 Q-11.25 -26.15 -10.8 -23.65 L-9.9 -22.15 -13.55 -24.4 -14.0 -24.7 Q-14.2 -25.2 -14.0 -26.45 L-13.1 -28.2 -11.7 -29.4 -10.3 -29.7" fill="url(#gradient55)" fill-rule="evenodd" stroke="none"/>
    <path d="M8.05 -32.35 L8.15 -32.2 8.1 -32.2 8.05 -32.35" fill="url(#gradient56)" fill-rule="evenodd" stroke="none"/>
    <path d="M9.25 -29.45 L9.25 -29.4 9.2 -29.45 9.25 -29.45" fill="url(#gradient57)" fill-rule="evenodd" stroke="none"/>
    <path d="M6.2 -20.05 L6.35 -18.35 5.65 -19.65 5.7 -19.95 6.2 -20.05 M7.35 -16.25 L7.6 -18.7 7.6 -21.3 7.7 -21.5 8.1 -22.4 9.75 -20.45 7.35 -16.25" fill="url(#gradient58)" fill-rule="evenodd" stroke="none"/>
    <path d="M-10.0 -27.3 L-10.0 -27.25 -10.05 -27.25 -10.0 -27.3" fill="url(#gradient59)" fill-rule="evenodd" stroke="none"/>
    <path d="M-10.0 -27.25 L-10.1 -27.1 -10.05 -27.25 -10.0 -27.25" fill="url(#gradient60)" fill-rule="evenodd" stroke="none"/>
    <path d="M-10.2 -26.65 L-9.9 -25.7 -8.5 -24.8 -5.65 -24.0 -5.1 -24.0 -4.95 -23.45 -4.7 -23.35 -5.8 -22.85 -6.6 -22.5 -8.2 -21.65 -9.9 -22.15 -10.8 -23.65 Q-11.25 -26.15 -10.2 -26.65" fill="url(#gradient61)" fill-rule="evenodd" stroke="none"/>
    <path d="M12.15 -14.05 L11.95 -11.35 11.85 -11.4 11.8 -19.0 12.0 -18.4 12.15 -14.05" fill="url(#gradient62)" fill-rule="evenodd" stroke="none"/>
    <path d="M-6.6 -22.5 L-5.8 -22.85 -5.5 -22.45 -5.7 -13.7 Q-5.5 -11.0 -4.35 -9.95 L-4.6 -9.7 -6.2 -10.25 Q-9.65 -10.85 -6.6 -22.5" fill="url(#gradient63)" fill-rule="evenodd" stroke="none"/>
    <path d="M6.35 -18.35 L6.55 -10.25 6.65 -10.3 6.9 -12.3 7.85 -7.9 Q8.85 -5.25 9.1 -5.25 L9.9 -4.35 Q11.6 -1.85 8.95 2.6 -0.9 11.85 -7.9 2.6 -11.75 -2.6 -8.05 -5.9 L-7.9 -5.9 -7.8 -6.25 -7.45 -6.9 -6.6 -8.9 -6.4 -9.3 -6.2 -10.25 -4.6 -9.7 -4.15 -9.45 -3.85 -9.15 -1.65 -8.8 -0.9 -9.45 Q0.45 -9.75 3.15 -14.5 L5.65 -19.65 6.35 -18.35 M-5.5 -22.45 L-4.6 -21.8 -3.85 -21.5 -3.3 -21.15 -0.55 -20.45 3.55 -19.95 Q0.1 -11.55 -4.35 -9.95 -5.5 -11.0 -5.7 -13.7 L-5.5 -22.45" fill="url(#gradient64)" fill-rule="evenodd" stroke="none"/>
    <path d="M-4.35 -9.95 Q0.1 -11.55 3.55 -19.95 L5.7 -19.95 5.65 -19.65 3.15 -14.5 Q0.45 -9.75 -0.9 -9.45 L-1.65 -8.8 -3.85 -9.15 -4.15 -9.45 -4.6 -9.7 -4.35 -9.95" fill="url(#gradient65)" fill-rule="evenodd" stroke="none"/>
    <path d="M-6.4 -9.3 L-6.6 -8.9 -6.6 -9.0 -6.55 -9.05 -6.4 -9.3" fill="url(#gradient66)" fill-rule="evenodd" stroke="none"/>
    <path d="M-7.45 -6.9 L-7.8 -6.25 -8.05 -5.9 Q-11.75 -2.6 -7.9 2.6 -0.9 11.85 8.95 2.6 11.6 -1.85 9.9 -4.35 14.7 1.15 12.45 6.3 8.3 12.5 0.75 11.25 -6.1 10.4 -9.8 4.95 -13.8 -0.75 -7.45 -6.9" fill="url(#gradient67)" fill-rule="evenodd" stroke="none"/>
    <path d="M-7.8 -6.25 L-7.9 -5.9 -8.05 -5.9 -7.8 -6.25" fill="url(#gradient68)" fill-rule="evenodd" stroke="none"/>
    <path d="M-15.9 -5.05 L-15.9 -5.2 -15.8 -5.05 -15.9 -5.05" fill="url(#gradient69)" fill-rule="evenodd" stroke="none"/>
    <path d="M-15.9 -4.8 L-15.9 -5.05 -15.8 -5.05 -15.4 -4.5 -14.75 -4.3 -15.15 -4.3 -15.9 -4.8" fill="url(#gradient70)" fill-rule="evenodd" stroke="none"/>
    <path d="M-15.9 -4.8 L-15.15 -4.3 -14.75 -4.3 -14.65 -4.3 -14.4 -4.35 -14.35 -4.35 -14.0 -4.55 -13.6 -5.15 -13.15 0.45 -13.3 0.85 -13.9 1.25 Q-14.85 1.45 -15.25 0.8 L-15.9 -4.8" fill="url(#gradient71)" fill-rule="evenodd" stroke="none"/>
  </g>
  <defs>
    <radialGradient cx="0" cy="0" gradientTransform="matrix(0.0387, 0.0, 0.0, 0.0387, -0.1, -57.15)" gradientUnits="userSpaceOnUse" id="gradient0" r="819.2" spreadMethod="pad">
      <stop offset="0.0" stop-color="#776c98"/>
      <stop offset="1.0" stop-color="#4f4765"/>
    </radialGradient>
    <radialGradient cx="0" cy="0" gradientTransform="matrix(0.0329, 0.0, 0.0, 0.0329, 1.9, -55.45)" gradientUnits="userSpaceOnUse" id="gradient1" r="819.2" spreadMethod="pad">
      <stop offset="0.0" stop-color="#746994"/>
      <stop offset="1.0" stop-color="#534b6a"/>
    </radialGradient>
    <radialGradient cx="0" cy="0" gradientTransform="matrix(0.0116, 0.0, 0.0, 0.0116, 9.1, -43.55)" gradientUnits="userSpaceOnUse" id="gradient2" r="819.2" spreadMethod="pad">
      <stop offset="0.0" stop-color="#26364e"/>
      <stop offset="1.0" stop-color="#1c283a"/>
    </radialGradient>
    <radialGradient cx="0" cy="0" gradientTransform="matrix(0.0231, 0.0, 0.0, 0.0231, 11.6, -44.7)" gradientUnits="userSpaceOnUse" id="gradient3" r="819.2" spreadMethod="pad">
      <stop offset="0.0" stop-color="#796e9b"/>
      <stop offset="1.0" stop-color="#4f4765"/>
    </radialGradient>
    <radialGradient cx="0" cy="0" gradientTransform="matrix(0.02, 0.0, 0.0, 0.02, 0.35, -49.1)" gradientUnits="userSpaceOnUse" id="gradient4" r="819.2" spreadMethod="pad">
      <stop offset="0.0" stop-color="#756a96"/>
      <stop offset="1.0" stop-color="#554c6c"/>
    </radialGradient>
    <radialGradient cx="0" cy="0" gradientTransform="matrix(0.0068, 0.0, 0.0, 0.0068, -6.6, -54.45)" gradientUnits="userSpaceOnUse" id="gradient5" r="819.2" spreadMethod="pad">
      <stop offset="0.0" stop-color="#6b6189"/>
      <stop offset="1.0" stop-color="#544c6b"/>
    </radialGradient>
    <radialGradient cx="0" cy="0" gradientTransform="matrix(0.0149, 0.0, 0.0, 0.0149, -6.95, -51.55)" gradientUnits="userSpaceOnUse" id="gradient6" r="819.2" spreadMethod="pad">
      <stop offset="0.0" stop-color="#786d99"/>
      <stop offset="1.0" stop-color="#433d56"/>
    </radialGradient>
    <radialGradient cx="0" cy="0" gradientTransform="matrix(0.0275, 0.0, 0.0, 0.0275, -2.35, -43.4)" gradientUnits="userSpaceOnUse" id="gradient7" r="819.2" spreadMethod="pad">
      <stop offset="0.0" stop-color="#776c98"/>
      <stop offset="1.0" stop-color="#4c4662"/>
    </radialGradient>
    <radialGradient cx="0" cy="0" gradientTransform="matrix(0.0054, 0.0, 0.0, 0.0054, -4.05, -56.0)" gradientUnits="userSpaceOnUse" id="gradient8" r="819.2" spreadMethod="pad">
      <stop offset="0.0" stop-color="#0f0e14"/>
      <stop offset="1.0" stop-color="#0f0e13"/>
    </radialGradient>
    <radialGradient cx="0" cy="0" gradientTransform="matrix(0.0087, 0.0, 0.0, 0.0087, -1.4, -53.35)" gradientUnits="userSpaceOnUse" id="gradient9" r="819.2" spreadMethod="pad">
      <stop offset="0.0" stop-color="#6b6189"/>
      <stop offset="1.0" stop-color="#443e58"/>
    </radialGradient>
    <radialGradient cx="0" cy="0" gradientTransform="matrix(0.0456, 0.0, 0.0, 0.0456, -0.45, -52.9)" gradientUnits="userSpaceOnUse" id="gradient10" r="819.2" spreadMethod="pad">
      <stop offset="0.0" stop-color="#756a95"/>
      <stop offset="1.0" stop-color="#574f70"/>
    </radialGradient>
    <radialGradient cx="0" cy="0" gradientTransform="matrix(0.0045, 0.0, 0.0, 0.0045, -1.8, -44.55)" gradientUnits="userSpaceOnUse" id="gradient11" r="819.2" spreadMethod="pad">
      <stop offset="0.0" stop-color="#ba864d"/>
      <stop offset="1.0" stop-color="#ae7e48"/>
    </radialGradient>
    <radialGradient cx="0" cy="0" gradientTransform="matrix(0.0046, 0.0, 0.0, 0.0046, -3.0, -42.35)" gradientUnits="userSpaceOnUse" id="gradient12" r="819.2" spreadMethod="pad">
      <stop offset="0.0" stop-color="#223146"/>
      <stop offset="1.0" stop-color="#1a2636"/>
    </radialGradient>
    <radialGradient cx="0" cy="0" gradientTransform="matrix(0.0201, 0.0, 0.0, 0.0201, -12.75, -47.75)" gradientUnits="userSpaceOnUse" id="gradient13" r="819.2" spreadMethod="pad">
      <stop offset="0.0" stop-color="#6d3b0e"/>
      <stop offset="1.0" stop-color="#482609"/>
    </radialGradient>
    <radialGradient cx="0" cy="0" gradientTransform="matrix(0.0027, 0.0, 0.0, 0.0027, -22.75, -51.85)" gradientUnits="userSpaceOnUse" id="gradient14" r="819.2" spreadMethod="pad">
      <stop offset="0.0" stop-color="#ffc100"/>
      <stop offset="1.0" stop-color="#bf6400"/>
    </radialGradient>
    <radialGradient cx="0" cy="0" gradientTransform="matrix(0.0344, 0.0, 0.0, 0.0344, 0.2, -47.7)" gradientUnits="userSpaceOnUse" id="gradient15" r="819.2" spreadMethod="pad">
      <stop offset="0.0" stop-color="#746a95"/>
      <stop offset="1.0" stop-color="#4d4562"/>
    </radialGradient>
    <radialGradient cx="0" cy="0" gradientTransform="matrix(0.036, 0.0, 0.0, 0.036, 7.05, -38.45)" gradientUnits="userSpaceOnUse" id="gradient16" r="819.2" spreadMethod="pad">
      <stop offset="0.0" stop-color="#675e84"/>
      <stop offset="1.0" stop-color="#423c55"/>
    </radialGradient>
    <radialGradient cx="0" cy="0" gradientTransform="matrix(0.0443, 0.0, 0.0, 0.0443, 2.05, -46.35)" gradientUnits="userSpaceOnUse" id="gradient17" r="819.2" spreadMethod="pad">
      <stop offset="0.0" stop-color="#746995"/>
      <stop offset="1.0" stop-color="#48425d"/>
    </radialGradient>
    <radialGradient cx="0" cy="0" gradientTransform="matrix(0.0011, 0.0, 0.0, 0.0011, 7.05, -35.25)" gradientUnits="userSpaceOnUse" id="gradient18" r="819.2" spreadMethod="pad">
      <stop offset="0.0" stop-color="#0e181e"/>
      <stop offset="1.0" stop-color="#0e181e"/>
    </radialGradient>
    <radialGradient cx="0" cy="0" gradientTransform="matrix(0.0022, 0.0, 0.0, 0.0022, -24.85, -51.65)" gradientUnits="userSpaceOnUse" id="gradient19" r="819.2" spreadMethod="pad">
      <stop offset="0.0" stop-color="#ffc300"/>
      <stop offset="1.0" stop-color="#bb6100"/>
    </radialGradient>
    <radialGradient cx="0" cy="0" gradientTransform="matrix(0.0046, 0.0, 0.0, 0.0046, -18.75, -50.65)" gradientUnits="userSpaceOnUse" id="gradient20" r="819.2" spreadMethod="pad">
      <stop offset="0.0" stop-color="#f3e5bf"/>
      <stop offset="1.0" stop-color="#7d7662"/>
    </radialGradient>
    <radialGradient cx="0" cy="0" gradientTransform="matrix(0.0032, 0.0, 0.0, 0.0032, -15.1, -49.3)" gradientUnits="userSpaceOnUse" id="gradient21" r="819.2" spreadMethod="pad">
      <stop offset="0.0" stop-color="#ffc500"/>
      <stop offset="1.0" stop-color="#c66700"/>
    </radialGradient>
    <radialGradient cx="0" cy="0" gradientTransform="matrix(0.003, 0.0, 0.0, 0.003, -3.8, -41.05)" gradientUnits="userSpaceOnUse" id="gradient22" r="819.2" spreadMethod="pad">
      <stop offset="0.0" stop-color="#202e41"/>
      <stop offset="1.0" stop-color="#1a2637"/>
    </radialGradient>
    <radialGradient cx="0" cy="0" gradientTransform="matrix(0.0052, 0.0, 0.0, 0.0052, -0.1, -39.85)" gradientUnits="userSpaceOnUse" id="gradient23" r="819.2" spreadMethod="pad">
      <stop offset="0.0" stop-color="#faebc4"/>
      <stop offset="1.0" stop-color="#958c74"/>
    </radialGradient>
    <radialGradient cx="0" cy="0" gradientTransform="matrix(0.0324, 0.0, 0.0, 0.0324, 4.65, -50.3)" gradientUnits="userSpaceOnUse" id="gradient24" r="819.2" spreadMethod="pad">
      <stop offset="0.0" stop-color="#6e648d"/>
      <stop offset="1.0" stop-color="#4d4562"/>
    </radialGradient>
    <radialGradient cx="0" cy="0" gradientTransform="matrix(0.0054, 0.0, 0.0, 0.0054, 11.4, -36.0)" gradientUnits="userSpaceOnUse" id="gradient25" r="819.2" spreadMethod="pad">
      <stop offset="0.0" stop-color="#508aab"/>
      <stop offset="1.0" stop-color="#3d6983"/>
    </radialGradient>
    <radialGradient cx="0" cy="0" gradientTransform="matrix(0.0032, 0.0, 0.0, 0.0032, -19.3, -50.05)" gradientUnits="userSpaceOnUse" id="gradient26" r="819.2" spreadMethod="pad">
      <stop offset="0.0" stop-color="#ffc200"/>
      <stop offset="1.0" stop-color="#d26d00"/>
    </radialGradient>
    <radialGradient cx="0" cy="0" gradientTransform="matrix(0.0064, 0.0, 0.0, 0.0064, -11.7, -48.5)" gradientUnits="userSpaceOnUse" id="gradient27" r="819.2" spreadMethod="pad">
      <stop offset="0.0" stop-color="#3c2007"/>
      <stop offset="1.0" stop-color="#2f1905"/>
    </radialGradient>
    <radialGradient cx="0" cy="0" gradientTransform="matrix(0.0038, 0.0, 0.0, 0.0038, -12.2, -48.3)" gradientUnits="userSpaceOnUse" id="gradient28" r="819.2" spreadMethod="pad">
      <stop offset="0.0" stop-color="#432508"/>
      <stop offset="1.0" stop-color="#432408"/>
    </radialGradient>
    <radialGradient cx="0" cy="0" gradientTransform="matrix(0.0043, 0.0, 0.0, 0.0043, -18.75, -47.7)" gradientUnits="userSpaceOnUse" id="gradient29" r="819.2" spreadMethod="pad">
      <stop offset="0.0" stop-color="#bcb294"/>
      <stop offset="1.0" stop-color="#aaa085"/>
    </radialGradient>
    <radialGradient cx="0" cy="0" gradientTransform="matrix(0.0629, 0.0, 0.0, 0.0629, -18.95, -50.15)" gradientUnits="userSpaceOnUse" id="gradient30" r="819.2" spreadMethod="pad">
      <stop offset="0.0" stop-color="#572f0b"/>
      <stop offset="1.0" stop-color="#432408"/>
    </radialGradient>
    <radialGradient cx="0" cy="0" gradientTransform="matrix(0.0035, 0.0, 0.0, 0.0035, -17.4, -30.85)" gradientUnits="userSpaceOnUse" id="gradient31" r="819.2" spreadMethod="pad">
      <stop offset="0.0" stop-color="#ffea86"/>
      <stop offset="1.0" stop-color="#ae7e48"/>
    </radialGradient>
    <radialGradient cx="0" cy="0" gradientTransform="matrix(0.0077, 0.0, 0.0, 0.0077, -17.7, -31.3)" gradientUnits="userSpaceOnUse" id="gradient32" r="819.2" spreadMethod="pad">
      <stop offset="0.0" stop-color="#334a69"/>
      <stop offset="1.0" stop-color="#1f2d40"/>
    </radialGradient>
    <radialGradient cx="0" cy="0" gradientTransform="matrix(0.0013, 0.0, 0.0, 0.0013, -15.8, -32.25)" gradientUnits="userSpaceOnUse" id="gradient33" r="819.2" spreadMethod="pad">
      <stop offset="0.0" stop-color="#ffcd75"/>
      <stop offset="1.0" stop-color="#a07342"/>
    </radialGradient>
    <radialGradient cx="0" cy="0" gradientTransform="matrix(0.0049, 0.0, 0.0, 0.0049, -13.1, -28.25)" gradientUnits="userSpaceOnUse" id="gradient34" r="819.2" spreadMethod="pad">
      <stop offset="0.0" stop-color="#67b0dc"/>
      <stop offset="1.0" stop-color="#3e6b86"/>
    </radialGradient>
    <radialGradient cx="0" cy="0" gradientTransform="matrix(0.0017, 0.0, 0.0, 0.0017, -1.85, -44.2)" gradientUnits="userSpaceOnUse" id="gradient35" r="819.2" spreadMethod="pad">
      <stop offset="0.0" stop-color="#1e2b3d"/>
      <stop offset="1.0" stop-color="#1c283a"/>
    </radialGradient>
    <radialGradient cx="0" cy="0" gradientTransform="matrix(0.0017, 0.0, 0.0, 0.0017, -1.95, -42.85)" gradientUnits="userSpaceOnUse" id="gradient36" r="819.2" spreadMethod="pad">
      <stop offset="0.0" stop-color="#06090d"/>
      <stop offset="1.0" stop-color="#06090d"/>
    </radialGradient>
    <radialGradient cx="0" cy="0" gradientTransform="matrix(0.003, 0.0, 0.0, 0.003, -0.9, -43.8)" gradientUnits="userSpaceOnUse" id="gradient37" r="819.2" spreadMethod="pad">
      <stop offset="0.0" stop-color="#c89153"/>
      <stop offset="1.0" stop-color="#c89053"/>
    </radialGradient>
    <radialGradient cx="0" cy="0" gradientTransform="matrix(0.0015, 0.0, 0.0, 0.0015, -1.5, -44.6)" gradientUnits="userSpaceOnUse" id="gradient38" r="819.2" spreadMethod="pad">
      <stop offset="0.0" stop-color="#261c10"/>
      <stop offset="1.0" stop-color="#261c10"/>
    </radialGradient>
    <radialGradient cx="0" cy="0" gradientTransform="matrix(0.0026, 0.0, 0.0, 0.0026, -1.65, -43.55)" gradientUnits="userSpaceOnUse" id="gradient39" r="819.2" spreadMethod="pad">
      <stop offset="0.0" stop-color="#06090d"/>
      <stop offset="1.0" stop-color="#06090d"/>
    </radialGradient>
    <radialGradient cx="0" cy="0" gradientTransform="matrix(0.0033, 0.0, 0.0, 0.0033, 0.15, -42.2)" gradientUnits="userSpaceOnUse" id="gradient40" r="819.2" spreadMethod="pad">
      <stop offset="0.0" stop-color="#26374e"/>
      <stop offset="1.0" stop-color="#1f2d41"/>
    </radialGradient>
    <radialGradient cx="0" cy="0" gradientTransform="matrix(0.0028, 0.0, 0.0, 0.0028, 10.0, -43.05)" gradientUnits="userSpaceOnUse" id="gradient41" r="819.2" spreadMethod="pad">
      <stop offset="0.0" stop-color="#538fb2"/>
      <stop offset="1.0" stop-color="#518aad"/>
    </radialGradient>
    <radialGradient cx="0" cy="0" gradientTransform="matrix(0.0127, 0.0, 0.0, 0.0127, -1.65, -38.85)" gradientUnits="userSpaceOnUse" id="gradient42" r="819.2" spreadMethod="pad">
      <stop offset="0.0" stop-color="#324867"/>
      <stop offset="1.0" stop-color="#212f44"/>
    </radialGradient>
    <radialGradient cx="0" cy="0" gradientTransform="matrix(0.0034, 0.0, 0.0, 0.0034, -4.6, -40.75)" gradientUnits="userSpaceOnUse" id="gradient43" r="819.2" spreadMethod="pad">
      <stop offset="0.0" stop-color="#192433"/>
      <stop offset="1.0" stop-color="#131c29"/>
    </radialGradient>
    <radialGradient cx="0" cy="0" gradientTransform="matrix(0.01, 0.0, 0.0, 0.01, -3.05, -39.5)" gradientUnits="userSpaceOnUse" id="gradient44" r="819.2" spreadMethod="pad">
      <stop offset="0.0" stop-color="#71c2f1"/>
      <stop offset="1.0" stop-color="#4f88a9"/>
    </radialGradient>
    <radialGradient cx="0" cy="0" gradientTransform="matrix(0.0146, 0.0, 0.0, 0.0146, -4.25, -35.4)" gradientUnits="userSpaceOnUse" id="gradient45" r="819.2" spreadMethod="pad">
      <stop offset="0.0" stop-color="#324868"/>
      <stop offset="1.0" stop-color="#223248"/>
    </radialGradient>
    <radialGradient cx="0" cy="0" gradientTransform="matrix(0.0042, 0.0, 0.0, 0.0042, -7.65, -39.1)" gradientUnits="userSpaceOnUse" id="gradient46" r="819.2" spreadMethod="pad">
      <stop offset="0.0" stop-color="#375e76"/>
      <stop offset="1.0" stop-color="#0e181e"/>
    </radialGradient>
    <radialGradient cx="0" cy="0" gradientTransform="matrix(0.007, 0.0, 0.0, 0.007, -6.5, -40.9)" gradientUnits="userSpaceOnUse" id="gradient47" r="819.2" spreadMethod="pad">
      <stop offset="0.0" stop-color="#111823"/>
      <stop offset="1.0" stop-color="#06090d"/>
    </radialGradient>
    <radialGradient cx="0" cy="0" gradientTransform="matrix(0.0054, 0.0, 0.0, 0.0054, 13.25, -29.2)" gradientUnits="userSpaceOnUse" id="gradient48" r="819.2" spreadMethod="pad">
      <stop offset="0.0" stop-color="#2e415e"/>
      <stop offset="1.0" stop-color="#202e41"/>
    </radialGradient>
    <radialGradient cx="0" cy="0" gradientTransform="matrix(0.0146, 0.0, 0.0, 0.0146, -1.8, -25.5)" gradientUnits="userSpaceOnUse" id="gradient49" r="819.2" spreadMethod="pad">
      <stop offset="0.0" stop-color="#364e70"/>
      <stop offset="1.0" stop-color="#2c3f5a"/>
    </radialGradient>
    <radialGradient cx="0" cy="0" gradientTransform="matrix(0.0067, 0.0, 0.0, 0.0067, 12.8, -34.65)" gradientUnits="userSpaceOnUse" id="gradient50" r="819.2" spreadMethod="pad">
      <stop offset="0.0" stop-color="#212f44"/>
      <stop offset="1.0" stop-color="#1a2636"/>
    </radialGradient>
    <radialGradient cx="0" cy="0" gradientTransform="matrix(0.0075, 0.0, 0.0, 0.0075, 3.05, -30.1)" gradientUnits="userSpaceOnUse" id="gradient51" r="819.2" spreadMethod="pad">
      <stop offset="0.0" stop-color="#bdb294"/>
      <stop offset="1.0" stop-color="#8a816c"/>
    </radialGradient>
    <radialGradient cx="0" cy="0" gradientTransform="matrix(0.0055, 0.0, 0.0, 0.0055, 13.0, -31.6)" gradientUnits="userSpaceOnUse" id="gradient52" r="819.2" spreadMethod="pad">
      <stop offset="0.0" stop-color="#487c9b"/>
      <stop offset="1.0" stop-color="#305266"/>
    </radialGradient>
    <radialGradient cx="0" cy="0" gradientTransform="matrix(0.014, 0.0, 0.0, 0.014, 15.0, -29.3)" gradientUnits="userSpaceOnUse" id="gradient53" r="819.2" spreadMethod="pad">
      <stop offset="0.0" stop-color="#0f0e13"/>
      <stop offset="1.0" stop-color="#0f0e13"/>
    </radialGradient>
    <radialGradient cx="0" cy="0" gradientTransform="matrix(0.0173, 0.0, 0.0, 0.0173, -3.45, -23.95)" gradientUnits="userSpaceOnUse" id="gradient54" r="819.2" spreadMethod="pad">
      <stop offset="0.0" stop-color="#6cb9e6"/>
      <stop offset="1.0" stop-color="#4a7f9f"/>
    </radialGradient>
    <radialGradient cx="0" cy="0" gradientTransform="matrix(0.0084, 0.0, 0.0, 0.0084, -13.1, -28.25)" gradientUnits="userSpaceOnUse" id="gradient55" r="819.2" spreadMethod="pad">
      <stop offset="0.0" stop-color="#2f4462"/>
      <stop offset="1.0" stop-color="#1f2d40"/>
    </radialGradient>
    <radialGradient cx="0" cy="0" gradientTransform="matrix(0.0039, 0.0, 0.0, 0.0039, 8.5, -31.4)" gradientUnits="userSpaceOnUse" id="gradient56" r="819.2" spreadMethod="pad">
      <stop offset="0.0" stop-color="#06090d"/>
      <stop offset="1.0" stop-color="#06090d"/>
    </radialGradient>
    <radialGradient cx="0" cy="0" gradientTransform="matrix(0.0038, 0.0, 0.0, 0.0038, 9.1, -32.05)" gradientUnits="userSpaceOnUse" id="gradient57" r="819.2" spreadMethod="pad">
      <stop offset="0.0" stop-color="#06090d"/>
      <stop offset="1.0" stop-color="#06090d"/>
    </radialGradient>
    <radialGradient cx="0" cy="0" gradientTransform="matrix(0.0084, 0.0, 0.0, 0.0084, 7.65, -23.05)" gradientUnits="userSpaceOnUse" id="gradient58" r="819.2" spreadMethod="pad">
      <stop offset="0.0" stop-color="#9b9279"/>
      <stop offset="1.0" stop-color="#79725f"/>
    </radialGradient>
    <radialGradient cx="0" cy="0" gradientTransform="matrix(0.0087, 0.0, 0.0, 0.0087, -8.65, -32.15)" gradientUnits="userSpaceOnUse" id="gradient59" r="819.2" spreadMethod="pad">
      <stop offset="0.0" stop-color="#06090d"/>
      <stop offset="1.0" stop-color="#06090d"/>
    </radialGradient>
    <radialGradient cx="0" cy="0" gradientTransform="matrix(9.0E-4, 0.0, 0.0, 9.0E-4, -10.1, -27.4)" gradientUnits="userSpaceOnUse" id="gradient60" r="819.2" spreadMethod="pad">
      <stop offset="0.0" stop-color="#213045"/>
      <stop offset="1.0" stop-color="#202f43"/>
    </radialGradient>
    <radialGradient cx="0" cy="0" gradientTransform="matrix(0.0069, 0.0, 0.0, 0.0069, -9.9, -25.85)" gradientUnits="userSpaceOnUse" id="gradient61" r="819.2" spreadMethod="pad">
      <stop offset="0.0" stop-color="#5592b6"/>
      <stop offset="1.0" stop-color="#2f5165"/>
    </radialGradient>
    <radialGradient cx="0" cy="0" gradientTransform="matrix(0.0261, 0.0, 0.0, 0.0261, 11.9, -20.05)" gradientUnits="userSpaceOnUse" id="gradient62" r="819.2" spreadMethod="pad">
      <stop offset="0.0" stop-color="#4e4764"/>
      <stop offset="1.0" stop-color="#443e58"/>
    </radialGradient>
    <radialGradient cx="0" cy="0" gradientTransform="matrix(0.0171, 0.0, 0.0, 0.0171, -5.7, -10.3)" gradientUnits="userSpaceOnUse" id="gradient63" r="819.2" spreadMethod="pad">
      <stop offset="0.0" stop-color="#2d2a23"/>
      <stop offset="1.0" stop-color="#1f1e19"/>
    </radialGradient>
    <radialGradient cx="0" cy="0" gradientTransform="matrix(0.0387, 0.0, 0.0, 0.0387, 4.8, 5.95)" gradientUnits="userSpaceOnUse" id="gradient64" r="819.2" spreadMethod="pad">
      <stop offset="0.0" stop-color="#344b6b"/>
      <stop offset="1.0" stop-color="#1c293b"/>
    </radialGradient>
    <radialGradient cx="0" cy="0" gradientTransform="matrix(0.0196, 0.0, 0.0, 0.0196, 4.55, -22.85)" gradientUnits="userSpaceOnUse" id="gradient65" r="819.2" spreadMethod="pad">
      <stop offset="0.0" stop-color="#a49a80"/>
      <stop offset="1.0" stop-color="#615b4c"/>
    </radialGradient>
    <radialGradient cx="0" cy="0" gradientTransform="matrix(0.0032, 0.0, 0.0, 0.0032, -6.65, -8.6)" gradientUnits="userSpaceOnUse" id="gradient66" r="819.2" spreadMethod="pad">
      <stop offset="0.0" stop-color="#06090d"/>
      <stop offset="1.0" stop-color="#06090d"/>
    </radialGradient>
    <radialGradient cx="0" cy="0" gradientTransform="matrix(0.0283, 0.0, 0.0, 0.0283, 7.55, 10.5)" gradientUnits="userSpaceOnUse" id="gradient67" r="819.2" spreadMethod="pad">
      <stop offset="0.0" stop-color="#7cd6ff"/>
      <stop offset="1.0" stop-color="#3c6882"/>
    </radialGradient>
    <radialGradient cx="0" cy="0" gradientTransform="matrix(0.0106, 0.0, 0.0, 0.0106, -5.8, -13.95)" gradientUnits="userSpaceOnUse" id="gradient68" r="819.2" spreadMethod="pad">
      <stop offset="0.0" stop-color="#06090d"/>
      <stop offset="1.0" stop-color="#06090d"/>
    </radialGradient>
    <radialGradient cx="0" cy="0" gradientTransform="matrix(0.0629, 0.0, 0.0, 0.0629, -20.25, -50.9)" gradientUnits="userSpaceOnUse" id="gradient69" r="819.2" spreadMethod="pad">
      <stop offset="0.0" stop-color="#442508"/>
      <stop offset="1.0" stop-color="#351c06"/>
    </radialGradient>
    <radialGradient cx="0" cy="0" gradientTransform="matrix(0.0024, 0.0, 0.0, 0.0024, -15.2, -4.45)" gradientUnits="userSpaceOnUse" id="gradient70" r="819.2" spreadMethod="pad">
      <stop offset="0.0" stop-color="#fffbd0"/>
      <stop offset="1.0" stop-color="#fffad0"/>
    </radialGradient>
    <radialGradient cx="0" cy="0" gradientTransform="matrix(0.0068, 0.0, 0.0, 0.0068, -14.85, -4.4)" gradientUnits="userSpaceOnUse" id="gradient71" r="819.2" spreadMethod="pad">
      <stop offset="0.0" stop-color="#978e76"/>
      <stop offset="1.0" stop-color="#89816b"/>
    </radialGradient>
  </defs>
</svg>
