<?xml version="1.0" encoding="UTF-8" standalone="no"?>
<svg xmlns:ffdec="https://www.free-decompiler.com/flash" xmlns:xlink="http://www.w3.org/1999/xlink" ffdec:objectType="shape" height="82.75px" width="55.85px" xmlns="http://www.w3.org/2000/svg">
  <g transform="matrix(1.0, 0.0, 0.0, 1.0, 29.9, 56.95)">
    <path d="M0.6 -56.4 L0.85 -56.5 5.05 -55.4 9.15 -50.3 12.9 -42.75 16.4 -32.6 16.7 -31.55 16.4 -32.05 16.4 -32.1 15.45 -34.35 15.3 -35.3 14.45 -36.95 13.15 -40.85 12.55 -41.65 12.0 -42.75 8.75 -48.75 7.8 -49.65 7.55 -50.3 Q7.0 -53.35 2.1 -53.9 L0.75 -54.25 -0.4 -54.15 -0.65 -54.5 -0.4 -55.0 0.2 -55.9 0.25 -56.0 0.45 -56.15 0.5 -56.25 0.6 -56.3 0.6 -56.4" fill="url(#gradient0)" fill-rule="evenodd" stroke="none"/>
    <path d="M0.6 -56.4 L0.6 -56.3 0.5 -56.25 0.45 -56.15 0.25 -56.0 0.2 -55.9 -0.75 -54.9 -0.9 -54.8 -1.15 -55.0 -1.15 -55.05 -1.15 -55.15 -0.5 -56.4 0.6 -56.4 M11.4 -46.75 L13.65 -43.65 14.8 -41.35 18.15 -35.1 18.15 -34.8 15.7 -38.6 15.65 -38.65 15.65 -38.75 12.8 -43.25 12.75 -43.35 11.4 -46.75" fill="url(#gradient1)" fill-rule="evenodd" stroke="none"/>
    <path d="M-0.4 -55.0 L-0.65 -54.5 -0.9 -54.8 -0.75 -54.9 -0.4 -55.0 M-0.4 -54.15 L0.75 -54.25 2.1 -53.9 0.35 -52.8 0.45 -53.05 -0.4 -54.15 M-2.9 -51.9 L-3.3 -51.4 -3.5 -50.55 -3.65 -51.05 -3.3 -52.05 -2.9 -51.9 M-3.5 -50.4 L-3.4 -50.3 -3.4 -49.9 -3.55 -50.3 -3.5 -50.4 M-3.25 -49.3 L-1.15 -45.6 -1.55 -45.75 Q-2.2 -47.65 -3.0 -48.35 L-3.25 -49.3" fill="url(#gradient2)" fill-rule="evenodd" stroke="none"/>
    <path d="M2.1 -53.9 Q7.0 -53.35 7.55 -50.3 L7.8 -49.65 8.8 -47.4 10.05 -43.35 11.55 -38.35 13.7 -28.3 10.75 -30.85 10.25 -32.1 9.9 -32.7 8.9 -35.3 8.75 -35.55 8.25 -36.7 7.75 -38.05 5.25 -42.35 4.3 -44.0 2.5 -48.0 Q0.75 -50.1 0.35 -49.8 L0.35 -50.3 0.2 -50.55 0.7 -51.75 -0.05 -52.4 0.35 -52.8 2.1 -53.9 M14.2 -25.3 L14.2 -25.05 14.3 -24.8 15.4 -18.15 15.3 -17.85 14.9 -18.7 13.45 -23.4 14.45 -21.95 14.45 -22.3 12.4 -26.3 12.05 -27.8 11.05 -30.2 13.8 -27.95 14.2 -25.3" fill="url(#gradient3)" fill-rule="evenodd" stroke="none"/>
    <path d="M12.3 -25.05 L11.3 -26.55 10.25 -28.05 9.3 -29.35 6.25 -34.1 9.9 -31.1 10.0 -31.05 10.5 -29.95 11.4 -28.2 11.5 -28.15 11.5 -28.05 11.55 -27.95 12.4 -26.3 14.45 -22.3 14.45 -21.95 13.45 -23.4 12.3 -25.05 M-0.05 -52.4 L0.7 -51.75 0.2 -50.55 0.35 -50.3 0.35 -49.8 Q0.75 -50.1 2.5 -48.0 L4.3 -44.0 4.75 -42.9 5.3 -41.4 6.05 -39.25 8.9 -33.3 9.4 -32.1 6.3 -34.7 3.25 -38.5 1.85 -40.85 1.35 -41.6 0.95 -42.25 0.2 -43.4 0.0 -43.75 -1.15 -45.6 -3.25 -49.3 -3.25 -49.4 -3.4 -49.75 -3.4 -49.9 -3.4 -50.3 -3.5 -50.4 -3.5 -50.55 -3.3 -51.4 -2.9 -51.9 -0.05 -52.4" fill="url(#gradient4)" fill-rule="evenodd" stroke="none"/>
    <path d="M-0.65 -54.5 L-0.4 -54.15 0.45 -53.05 0.35 -52.8 -0.05 -52.4 -2.9 -51.9 -3.3 -52.05 -3.8 -52.4 -3.4 -53.65 -3.25 -53.9 -3.05 -54.15 -2.8 -54.4 -2.75 -54.5 -2.25 -54.75 -2.15 -54.8 -1.9 -54.9 -1.75 -55.0 -1.5 -55.0 -1.15 -55.0 -0.9 -54.8 -0.65 -54.5 M5.25 -42.35 L7.75 -38.05 8.25 -36.7 5.3 -41.4 4.75 -42.9 5.25 -42.35" fill="url(#gradient5)" fill-rule="evenodd" stroke="none"/>
    <path d="M0.2 -55.9 L-0.4 -55.0 -0.75 -54.9 0.2 -55.9 M14.45 -36.95 L15.3 -35.3 15.45 -34.35 16.15 -31.6 16.65 -29.7 16.65 -29.45 16.45 -29.55 16.05 -31.05 14.45 -36.95 M12.9 -42.75 L9.15 -50.3 5.05 -55.4 0.85 -56.5 Q5.8 -59.05 11.4 -46.75 L12.75 -43.35 12.8 -43.25 12.9 -42.75" fill="url(#gradient6)" fill-rule="evenodd" stroke="none"/>
    <path d="M20.9 -28.95 L21.95 -26.8 Q22.1 -21.7 17.3 -23.4 L17.2 -23.55 17.15 -23.55 15.8 -25.4 15.7 -25.55 15.7 -25.65 Q21.45 -25.45 20.9 -28.95" fill="url(#gradient7)" fill-rule="evenodd" stroke="none"/>
    <path d="M12.0 -42.75 L12.55 -41.65 12.4 -41.35 12.0 -42.75 M8.75 -35.55 L8.9 -35.3 8.8 -35.3 8.75 -35.55" fill="url(#gradient8)" fill-rule="evenodd" stroke="none"/>
    <path d="M12.55 -41.65 L13.15 -40.85 14.45 -36.95 16.05 -31.05 14.9 -30.6 14.05 -35.45 12.4 -41.35 12.55 -41.65 M15.45 -34.35 L16.4 -32.1 16.4 -32.05 16.15 -31.6 15.45 -34.35 M16.4 -32.6 L12.9 -42.75 12.8 -43.25 15.65 -38.75 15.65 -38.65 15.7 -38.6 17.4 -35.55 17.4 -34.3 16.4 -32.6 M13.65 -43.65 L14.8 -42.5 14.8 -41.35 13.65 -43.65 M12.5 -36.1 L13.25 -34.55 14.4 -30.2 13.8 -30.1 12.5 -36.1" fill="url(#gradient9)" fill-rule="evenodd" stroke="none"/>
    <path d="M7.8 -49.65 L8.75 -48.75 12.0 -42.75 12.4 -41.35 14.05 -35.45 14.9 -30.6 15.3 -28.3 15.7 -25.65 15.7 -25.55 15.8 -25.4 15.8 -25.15 15.65 -25.2 15.3 -26.3 15.1 -27.05 14.8 -28.45 14.4 -30.2 13.25 -34.55 12.5 -36.1 11.75 -39.65 10.05 -43.35 8.8 -47.4 7.8 -49.65 M15.1 -27.05 L15.15 -27.05 15.1 -27.05" fill="url(#gradient10)" fill-rule="evenodd" stroke="none"/>
    <path d="M0.0 -43.75 L0.2 -43.4 0.2 -43.0 -0.25 -43.4 -0.05 -43.75 0.0 -43.75 M0.1 -42.6 L-0.05 -42.9 0.2 -42.65 0.1 -42.6" fill="url(#gradient11)" fill-rule="evenodd" stroke="none"/>
    <path d="M0.2 -43.4 L0.95 -42.25 0.2 -43.0 0.2 -43.4 M0.85 -42.0 L0.1 -42.6 0.2 -42.65 0.85 -42.0" fill="url(#gradient12)" fill-rule="evenodd" stroke="none"/>
    <path d="M1.35 -41.6 L1.85 -40.85 1.35 -40.85 -0.05 -42.4 -0.3 -43.1 -0.05 -42.9 0.1 -42.6 0.85 -42.0 1.35 -41.6" fill="url(#gradient13)" fill-rule="evenodd" stroke="none"/>
    <path d="M-1.8 -41.65 L-1.25 -42.15 2.1 -38.5 Q-0.05 -38.4 -2.0 -41.4 L-1.9 -41.5 -1.8 -41.65 M1.85 -40.85 L3.25 -38.5 1.35 -40.85 1.85 -40.85" fill="url(#gradient14)" fill-rule="evenodd" stroke="none"/>
    <path d="M-4.8 -49.65 L-5.0 -50.0 -5.05 -50.3 -5.3 -50.65 -5.3 -50.9 -4.65 -52.65 -4.4 -52.75 -4.8 -49.65 M0.95 -42.25 L1.35 -41.6 0.85 -42.0 0.2 -42.65 -0.05 -42.9 -0.3 -43.1 -0.55 -43.65 -0.25 -43.4 0.2 -43.0 0.95 -42.25" fill="url(#gradient15)" fill-rule="evenodd" stroke="none"/>
    <path d="M14.95 -26.95 L14.9 -27.05 15.1 -27.05 14.95 -26.95 M14.65 -27.4 L14.15 -27.7 13.8 -27.95 11.05 -30.2 10.75 -30.45 10.5 -30.7 10.0 -31.05 9.9 -31.1 6.25 -34.1 4.9 -35.45 2.1 -38.5 -1.25 -42.15 -4.65 -48.25 -4.9 -48.8 -4.8 -49.65 -4.4 -52.75 -4.05 -53.5 -3.4 -53.65 -3.8 -52.4 -3.3 -52.05 -3.65 -51.05 -3.5 -50.55 -3.5 -50.4 -3.55 -50.3 -3.4 -49.9 -3.4 -49.75 -3.25 -49.4 -3.25 -49.3 -3.0 -48.35 Q-2.2 -47.65 -1.55 -45.75 L-0.65 -43.85 -0.55 -43.65 -0.3 -43.1 -0.05 -42.4 1.35 -40.85 3.25 -38.5 6.3 -34.7 9.4 -32.1 10.4 -31.2 10.75 -30.85 13.7 -28.3 14.15 -27.9 14.65 -27.45 14.65 -27.4 M15.1 -27.05 L15.15 -27.05 15.1 -27.05" fill="url(#gradient16)" fill-rule="evenodd" stroke="none"/>
    <path d="M9.4 -22.05 L9.4 -21.65 9.4 -18.0 9.15 -16.25 8.25 -9.15 8.15 -10.35 8.15 -14.4 8.05 -15.85 8.15 -17.75 7.8 -19.4 7.4 -23.4 6.9 -27.3 6.05 -30.55 5.65 -32.05 5.65 -32.1 4.9 -35.45 6.25 -34.1 9.3 -29.35 9.5 -26.55 9.4 -22.05 M8.25 -36.7 L8.75 -35.55 8.8 -35.3 8.9 -33.3 6.05 -39.25 5.3 -41.4 8.25 -36.7" fill="url(#gradient17)" fill-rule="evenodd" stroke="none"/>
    <path d="M14.15 -27.7 L14.2 -25.3 13.8 -27.95 14.15 -27.7 M14.9 -18.7 L14.4 -8.35 13.95 -12.25 13.8 -17.35 13.55 -18.05 12.3 -25.05 13.45 -23.4 14.9 -18.7 M4.3 -44.0 L5.25 -42.35 4.75 -42.9 4.3 -44.0 M9.9 -32.7 L10.25 -32.1 10.75 -30.85 10.4 -31.2 9.9 -32.7 M13.7 -28.3 L11.55 -38.35 10.05 -43.35 11.75 -39.65 12.5 -36.1 13.8 -30.1 14.05 -28.55 14.15 -27.9 13.7 -28.3 M11.5 -28.2 L10.75 -30.45 11.05 -30.2 12.05 -27.8 12.4 -26.3 11.55 -27.95 11.5 -28.05 11.5 -28.15 11.5 -28.2" fill="url(#gradient18)" fill-rule="evenodd" stroke="none"/>
    <path d="M-7.05 -38.65 L-6.65 -40.0 -6.05 -39.1 -7.05 -38.65 M-3.55 -41.5 L-2.15 -41.65 -2.05 -41.5 -2.0 -41.4 Q-0.05 -38.4 2.1 -38.5 L4.9 -35.45 5.65 -32.1 5.65 -32.05 1.0 -30.1 Q-1.55 -29.95 -2.5 -31.2 L-3.0 -31.7 -3.15 -31.95 -3.05 -32.1 -1.5 -33.55 -1.5 -34.3 Q2.05 -30.45 3.05 -33.7 L2.6 -34.95 -1.75 -39.4 -2.15 -40.0 -2.15 -40.1 -2.55 -40.35 -2.65 -40.4 -2.9 -40.75 -3.55 -41.5 M-2.8 -30.45 L-2.8 -30.55 -2.65 -30.45 -2.8 -30.45 M-2.9 -30.6 L-3.15 -30.55 -3.05 -30.95 -2.9 -30.6 M-3.25 -31.2 L-3.3 -31.2 -3.25 -31.3 -3.25 -31.2" fill="url(#gradient19)" fill-rule="evenodd" stroke="none"/>
    <path d="M-6.65 -40.0 L-6.65 -40.25 -4.65 -42.15 -4.15 -42.25 -3.55 -41.5 -2.9 -40.75 -2.65 -40.4 -2.55 -40.35 -2.25 -39.9 -1.75 -39.4 2.6 -34.95 3.05 -33.7 Q2.05 -30.45 -1.5 -34.3 L-6.05 -39.1 -6.65 -40.0" fill="url(#gradient20)" fill-rule="evenodd" stroke="none"/>
    <path d="M9.3 -29.35 L10.25 -28.05 9.5 -26.55 9.3 -29.35 M6.05 -30.55 L6.9 -27.3 7.4 -23.4 Q-0.3 -20.95 -5.15 -25.95 L-3.3 -31.2 -3.25 -31.2 -3.15 -31.1 -3.05 -30.95 -3.15 -30.55 -2.9 -30.6 -2.8 -30.55 -2.8 -30.45 -2.8 -30.35 -2.65 -30.1 -0.75 -28.6 1.95 -28.55 2.1 -28.6 4.4 -29.2 5.5 -30.05 5.75 -30.2 6.05 -30.55 M10.5 -30.7 L10.65 -30.3 10.5 -29.95 10.0 -31.05 10.5 -30.7" fill="url(#gradient21)" fill-rule="evenodd" stroke="none"/>
    <path d="M-3.15 -31.95 L-3.0 -31.7 -2.5 -31.2 Q-1.55 -29.95 1.0 -30.1 L5.65 -32.05 6.05 -30.55 5.75 -30.2 5.5 -30.05 4.4 -29.2 2.1 -28.6 1.95 -28.55 -0.75 -28.6 -2.65 -30.1 -2.8 -30.35 -2.8 -30.45 -2.65 -30.45 -2.8 -30.55 -2.9 -30.6 -3.05 -30.95 -3.15 -31.1 -3.15 -31.35 -3.15 -31.45 -3.05 -31.7 -3.25 -31.85 -3.15 -31.95" fill="url(#gradient22)" fill-rule="evenodd" stroke="none"/>
    <path d="M16.4 -32.05 L16.7 -31.55 16.4 -32.6 17.4 -34.3 17.4 -35.55 19.4 -31.8 Q18.55 -28.9 15.3 -28.3 L14.9 -30.6 16.05 -31.05 16.45 -29.55 16.65 -29.45 16.65 -29.7 16.15 -31.6 16.4 -32.05 M14.4 -30.2 L14.8 -28.45 14.15 -28.55 14.05 -28.55 13.8 -30.1 14.4 -30.2" fill="url(#gradient23)" fill-rule="evenodd" stroke="none"/>
    <path d="M19.4 -31.8 L20.9 -28.95 Q21.45 -25.45 15.7 -25.65 L15.3 -28.3 Q18.55 -28.9 19.4 -31.8 M15.3 -26.3 L14.95 -26.95 15.1 -27.05 15.3 -26.3 M14.9 -27.05 L14.8 -27.2 14.65 -27.45 14.15 -28.55 14.8 -28.45 15.1 -27.05 14.9 -27.05" fill="url(#gradient24)" fill-rule="evenodd" stroke="none"/>
    <path d="M11.3 -26.55 L10.55 -24.2 9.4 -22.05 9.5 -26.55 10.25 -28.05 11.3 -26.55 M7.4 -23.4 L7.8 -19.4 6.9 -18.55 6.55 -18.45 4.4 -18.55 0.35 -19.65 Q-4.45 -21.65 -4.75 -22.05 L-4.75 -22.15 -5.4 -22.95 -5.65 -24.2 -5.15 -25.95 Q-0.3 -20.95 7.4 -23.4 M10.5 -30.7 L10.75 -30.45 11.5 -28.2 11.4 -28.2 10.5 -29.95 10.65 -30.3 10.5 -30.7" fill="url(#gradient25)" fill-rule="evenodd" stroke="none"/>
    <path d="M14.8 -27.2 L14.65 -27.4 14.65 -27.45 14.8 -27.2" fill="url(#gradient26)" fill-rule="evenodd" stroke="none"/>
    <path d="M21.95 -26.8 Q29.75 -24.2 22.3 -18.65 18.95 -17.85 18.3 -19.55 L17.2 -23.4 17.3 -23.4 Q22.1 -21.7 21.95 -26.8" fill="url(#gradient27)" fill-rule="evenodd" stroke="none"/>
    <path d="M17.2 -23.4 L17.15 -23.55 17.2 -23.55 17.3 -23.4 17.2 -23.4" fill="url(#gradient28)" fill-rule="evenodd" stroke="none"/>
    <path d="M9.4 -21.65 L11.05 -19.45 11.05 -19.15 9.15 -16.25 9.4 -18.0 9.4 -21.65 M7.8 -19.4 L8.15 -17.75 8.05 -15.85 8.0 -15.9 6.9 -18.55 7.8 -19.4" fill="url(#gradient29)" fill-rule="evenodd" stroke="none"/>
    <path d="M13.95 -12.25 L13.8 -10.0 13.65 -10.1 13.55 -18.05 13.8 -17.35 13.95 -12.25" fill="url(#gradient30)" fill-rule="evenodd" stroke="none"/>
    <path d="M8.25 -9.15 L10.25 -2.25 13.3 4.1 13.4 4.3 Q15.25 16.0 1.7 10.1 L-8.3 -9.1 -8.3 -9.15 -7.3 -11.1 -6.0 -9.35 -4.5 -8.85 Q-1.3 -4.0 4.4 -13.9 L6.55 -18.45 6.9 -18.55 8.0 -15.9 7.8 -14.35 8.15 -10.35 8.25 -9.15 M-9.8 -4.85 L-9.8 -5.0 -9.7 -5.2 -9.65 -5.7 -3.25 6.45 -5.4 4.3 Q-9.35 0.35 -9.8 -4.85 M-4.75 -22.05 Q-4.45 -21.65 0.35 -19.65 L4.4 -18.55 3.5 -16.5 1.95 -13.9 Q1.8 -12.95 -1.5 -9.85 L-3.75 -8.85 -3.8 -8.85 Q-5.3 -9.05 -5.65 -13.9 L-4.9 -20.9 -4.8 -21.15 -4.75 -22.05" fill="url(#gradient31)" fill-rule="evenodd" stroke="none"/>
    <path d="M-3.8 -8.85 L-3.75 -8.85 -1.5 -9.85 Q1.8 -12.95 1.95 -13.9 L3.5 -16.5 4.4 -18.55 6.55 -18.45 4.4 -13.9 Q-1.3 -4.0 -4.5 -8.85 L-4.5 -8.9 -3.8 -8.85" fill="url(#gradient32)" fill-rule="evenodd" stroke="none"/>
    <path d="M8.05 -15.85 L8.15 -14.4 7.8 -14.35 8.0 -15.9 8.05 -15.85" fill="url(#gradient33)" fill-rule="evenodd" stroke="none"/>
    <path d="M-5.0 -50.0 L-5.3 -50.65 -5.05 -50.3 -5.0 -50.0 M-5.3 -50.9 Q-5.0 -54.4 -3.3 -53.9 L-3.25 -53.9 -3.4 -53.65 -4.05 -53.5 -4.4 -52.75 -4.65 -52.65 -5.3 -50.9" fill="url(#gradient34)" fill-rule="evenodd" stroke="none"/>
    <path d="M-2.75 -54.5 L-2.0 -55.05 -1.15 -55.15 -1.15 -55.05 -1.5 -55.0 -1.75 -55.0 -1.9 -54.9 -2.15 -54.8 -2.25 -54.75 -2.75 -54.5" fill="url(#gradient35)" fill-rule="evenodd" stroke="none"/>
    <path d="M-1.15 -55.05 L-1.15 -55.0 -1.5 -55.0 -1.15 -55.05" fill="url(#gradient36)" fill-rule="evenodd" stroke="none"/>
    <path d="M-3.3 -53.9 L-3.05 -54.15 -3.25 -53.9 -3.3 -53.9" fill="url(#gradient37)" fill-rule="evenodd" stroke="none"/>
    <path d="M-1.15 -45.6 L0.0 -43.75 -0.05 -43.75 -0.65 -43.85 -1.55 -45.75 -1.15 -45.6" fill="url(#gradient38)" fill-rule="evenodd" stroke="none"/>
    <path d="M-12.3 -32.2 L-8.4 -36.6 -7.4 -38.5 -7.05 -38.65 -6.05 -39.1 -1.5 -34.3 -1.5 -33.55 -3.05 -32.1 -3.15 -31.95 -3.25 -31.85 -3.3 -31.85 Q-4.8 -30.2 -7.3 -28.85 L-8.3 -27.55 Q-12.95 -28.95 -12.3 -32.1 L-12.3 -32.2" fill="url(#gradient39)" fill-rule="evenodd" stroke="none"/>
    <path d="M-2.0 -41.4 L-2.05 -41.5 -1.9 -41.5 -2.0 -41.4" fill="url(#gradient40)" fill-rule="evenodd" stroke="none"/>
    <path d="M-2.15 -41.65 L-1.8 -41.65 -1.9 -41.5 -2.05 -41.5 -2.15 -41.65 M-3.25 -31.45 L-3.15 -31.45 -3.15 -31.35 -3.25 -31.35 -3.25 -31.45" fill="url(#gradient41)" fill-rule="evenodd" stroke="none"/>
    <path d="M-2.55 -40.35 L-2.15 -40.1 -2.15 -40.0 -2.25 -39.9 -2.55 -40.35" fill="url(#gradient42)" fill-rule="evenodd" stroke="none"/>
    <path d="M-2.15 -40.0 L-1.75 -39.4 -2.25 -39.9 -2.15 -40.0" fill="url(#gradient43)" fill-rule="evenodd" stroke="none"/>
    <path d="M-14.4 -30.05 L-12.3 -32.2 -12.3 -32.1 Q-12.95 -28.95 -8.3 -27.55 L-9.8 -25.8 Q-14.0 -24.7 -14.4 -30.05" fill="url(#gradient44)" fill-rule="evenodd" stroke="none"/>
    <path d="M-16.65 -27.4 L-14.4 -30.05 Q-14.0 -24.7 -9.8 -25.8 L-11.7 -23.8 Q-16.25 -22.7 -16.65 -27.4" fill="url(#gradient45)" fill-rule="evenodd" stroke="none"/>
    <path d="M1.45 15.35 L-0.05 12.55 -3.25 6.45 -9.65 -5.7 -15.3 -16.9 -13.95 -17.0 -13.45 -17.75 -12.95 -17.85 -8.4 -9.15 -8.3 -9.1 1.7 10.1 3.75 14.1 1.45 15.35 M-19.45 -24.9 L-26.2 -37.7 Q-25.7 -38.7 -25.1 -39.0 L-24.55 -39.1 -23.85 -38.85 -17.45 -26.65 -17.75 -26.2 -18.35 -25.95 -19.45 -24.9" fill="url(#gradient46)" fill-rule="evenodd" stroke="none"/>
    <path d="M-20.35 -23.9 L-19.45 -24.9 -18.35 -25.95 -17.75 -26.2 -18.1 -25.05 -20.35 -23.9" fill="url(#gradient47)" fill-rule="evenodd" stroke="none"/>
    <path d="M-17.45 -26.65 L-16.65 -27.4 Q-16.25 -22.7 -11.7 -23.8 L-12.95 -22.05 Q-17.2 -20.25 -18.1 -25.05 L-17.75 -26.2 -17.45 -26.65" fill="url(#gradient48)" fill-rule="evenodd" stroke="none"/>
    <path d="M-3.15 -31.1 L-3.25 -31.2 -3.25 -31.3 -3.25 -31.35 -3.15 -31.35 -3.15 -31.1 M-3.3 -31.85 L-3.25 -31.85 -3.05 -31.7 -3.15 -31.45 -3.25 -31.45 -3.3 -31.85" fill="url(#gradient49)" fill-rule="evenodd" stroke="none"/>
    <path d="M-29.85 -42.5 L-29.85 -42.65 -29.75 -42.65 -29.75 -42.5 -29.85 -42.5 M-29.9 -43.65 L-29.9 -43.75 -29.85 -43.75 -29.85 -43.65 -29.9 -43.65" fill="url(#gradient50)" fill-rule="evenodd" stroke="none"/>
    <path d="M-29.9 -43.75 L-29.9 -44.1 -29.75 -44.65 -29.25 -45.15 Q-26.9 -42.0 -25.7 -44.25 L-25.25 -43.25 -25.25 -42.1 -27.6 -41.35 -27.9 -41.15 -27.9 -40.5 -28.75 -40.9 -28.9 -41.25 -28.6 -41.1 -28.25 -41.5 -28.5 -43.0 -29.0 -43.85 -29.35 -43.75 -29.4 -44.15 -29.85 -43.75 -29.9 -43.75" fill="url(#gradient51)" fill-rule="evenodd" stroke="none"/>
    <path d="M-29.9 -42.9 L-29.9 -43.65 -29.85 -43.65 -29.85 -43.75 -29.4 -44.15 -29.35 -43.75 -29.0 -43.85 -28.5 -43.0 -28.25 -41.5 -28.6 -41.1 -28.9 -41.25 -29.75 -42.5 -29.75 -42.65 -29.9 -42.9" fill="url(#gradient52)" fill-rule="evenodd" stroke="none"/>
    <path d="M-27.1 -38.9 L-27.2 -37.45 Q-24.9 -20.8 -29.1 -37.2 L-28.4 -36.95 -27.9 -37.35 -28.4 -38.05 -29.4 -38.6 -29.65 -39.85 -28.85 -39.1 -28.15 -39.15 -28.1 -39.5 -28.25 -40.0 -28.4 -39.9 -28.6 -40.4 -29.75 -41.65 -29.85 -42.5 -29.75 -42.5 -28.9 -41.25 -28.75 -40.9 -27.9 -40.5 -27.1 -38.9 M-29.85 -42.65 L-29.9 -42.9 -29.75 -42.65 -29.85 -42.65 M-29.75 -44.65 L-28.85 -47.65 -27.1 -48.5 Q-28.15 -45.4 -25.0 -45.4 L-25.7 -44.25 Q-26.9 -42.0 -29.25 -45.15 L-29.75 -44.65 M-26.85 -44.25 Q-28.15 -46.1 -28.25 -47.6 -29.55 -44.7 -27.0 -44.1 L-26.85 -44.25" fill="url(#gradient53)" fill-rule="evenodd" stroke="none"/>
    <path d="M-26.85 -44.25 L-27.0 -44.1 Q-29.55 -44.7 -28.25 -47.6 -28.15 -46.1 -26.85 -44.25" fill="url(#gradient54)" fill-rule="evenodd" stroke="none"/>
    <path d="M-29.65 -39.85 L-29.9 -40.85 -29.75 -41.65 -28.6 -40.4 -28.4 -39.9 -28.25 -40.0 -28.1 -39.5 -28.15 -39.15 -28.85 -39.1 -29.65 -39.85" fill="url(#gradient55)" fill-rule="evenodd" stroke="none"/>
    <path d="M-26.6 -38.05 L-27.1 -38.9 -27.9 -40.5 -27.9 -41.15 -27.6 -41.35 -25.25 -42.1 -23.85 -39.25 -24.55 -39.1 -25.1 -39.0 -25.5 -38.9 -26.6 -38.05" fill="url(#gradient56)" fill-rule="evenodd" stroke="none"/>
    <path d="M-29.1 -37.2 L-29.5 -38.1 -29.4 -38.6 -28.4 -38.05 -27.9 -37.35 -28.4 -36.95 -29.1 -37.2" fill="url(#gradient57)" fill-rule="evenodd" stroke="none"/>
    <path d="M-26.2 -37.7 L-26.6 -38.05 -25.5 -38.9 -25.1 -39.0 Q-25.7 -38.7 -26.2 -37.7 M-23.85 -39.25 L-23.85 -38.85 -24.55 -39.1 -23.85 -39.25" fill="url(#gradient58)" fill-rule="evenodd" stroke="none"/>
    <path d="M-27.1 -48.5 Q-24.35 -49.2 -25.0 -45.4 -28.15 -45.4 -27.1 -48.5" fill="url(#gradient59)" fill-rule="evenodd" stroke="none"/>
    <path d="M-4.75 -22.05 L-4.8 -21.15 -4.9 -20.9 -5.65 -13.9 Q-5.3 -9.05 -3.8 -8.85 L-4.5 -8.9 -4.5 -8.85 -6.0 -9.35 -7.3 -11.1 Q-8.8 -15.45 -5.4 -22.95 L-4.75 -22.15 -4.75 -22.05" fill="url(#gradient60)" fill-rule="evenodd" stroke="none"/>
    <path d="M-15.3 -16.9 Q-20.4 -17.9 -20.35 -23.9 L-18.1 -25.05 Q-17.2 -20.25 -12.95 -22.05 L-12.8 -18.55 -12.95 -17.85 -13.45 -17.75 -13.95 -17.0 -15.3 -16.9" fill="url(#gradient61)" fill-rule="evenodd" stroke="none"/>
    <path d="M-8.3 -9.15 L-8.3 -9.1 -8.4 -9.15 -8.3 -9.15" fill="url(#gradient62)" fill-rule="evenodd" stroke="none"/>
    <path d="M13.3 4.1 Q13.95 4.65 14.95 9.05 L14.45 12.2 Q10.0 17.7 4.05 14.5 L3.75 14.1 1.7 10.1 Q15.25 16.0 13.4 4.3 L13.3 4.1 M-0.05 12.55 Q-13.15 3.25 -9.8 -4.85 -9.35 0.35 -5.4 4.3 L-3.25 6.45 -0.05 12.55" fill="url(#gradient63)" fill-rule="evenodd" stroke="none"/>
    <path d="M4.05 14.5 L9.25 24.55 7.8 25.15 6.8 25.8 1.45 15.35 3.75 14.1 4.05 14.5" fill="url(#gradient64)" fill-rule="evenodd" stroke="none"/>
    <path d="M8.3 25.15 L6.8 25.8 7.8 25.15 7.9 25.3 8.3 25.15" fill="url(#gradient65)" fill-rule="evenodd" stroke="none"/>
    <path d="M9.25 24.55 L8.3 25.15 7.9 25.3 7.8 25.15 9.25 24.55" fill="url(#gradient66)" fill-rule="evenodd" stroke="none"/>
  </g>
  <defs>
    <radialGradient cx="0" cy="0" gradientTransform="matrix(0.0322, 0.0, 0.0, 0.0322, 3.85, -54.4)" gradientUnits="userSpaceOnUse" id="gradient0" r="819.2" spreadMethod="pad">
      <stop offset="0.0" stop-color="#796e9c"/>
      <stop offset="1.0" stop-color="#4e4765"/>
    </radialGradient>
    <radialGradient cx="0" cy="0" gradientTransform="matrix(0.0228, 0.0, 0.0, 0.0228, 13.3, -44.05)" gradientUnits="userSpaceOnUse" id="gradient1" r="819.2" spreadMethod="pad">
      <stop offset="0.0" stop-color="#7e72a1"/>
      <stop offset="1.0" stop-color="#514967"/>
    </radialGradient>
    <radialGradient cx="0" cy="0" gradientTransform="matrix(0.0084, 0.0, 0.0, 0.0084, 0.6, -52.35)" gradientUnits="userSpaceOnUse" id="gradient2" r="819.2" spreadMethod="pad">
      <stop offset="0.0" stop-color="#716791"/>
      <stop offset="1.0" stop-color="#443d57"/>
    </radialGradient>
    <radialGradient cx="0" cy="0" gradientTransform="matrix(0.0449, 0.0, 0.0, 0.0449, 1.55, -51.85)" gradientUnits="userSpaceOnUse" id="gradient3" r="819.2" spreadMethod="pad">
      <stop offset="0.0" stop-color="#7a6f9d"/>
      <stop offset="1.0" stop-color="#46405a"/>
    </radialGradient>
    <radialGradient cx="0" cy="0" gradientTransform="matrix(0.0338, 0.0, 0.0, 0.0338, 2.2, -46.8)" gradientUnits="userSpaceOnUse" id="gradient4" r="819.2" spreadMethod="pad">
      <stop offset="0.0" stop-color="#7a6f9c"/>
      <stop offset="1.0" stop-color="#4e4765"/>
    </radialGradient>
    <radialGradient cx="0" cy="0" gradientTransform="matrix(0.0195, 0.0, 0.0, 0.0195, 2.35, -48.25)" gradientUnits="userSpaceOnUse" id="gradient5" r="819.2" spreadMethod="pad">
      <stop offset="0.0" stop-color="#7a6f9d"/>
      <stop offset="1.0" stop-color="#5c5476"/>
    </radialGradient>
    <radialGradient cx="0" cy="0" gradientTransform="matrix(0.0379, 0.0, 0.0, 0.0379, 1.85, -56.15)" gradientUnits="userSpaceOnUse" id="gradient6" r="819.2" spreadMethod="pad">
      <stop offset="0.0" stop-color="#7c719f"/>
      <stop offset="1.0" stop-color="#504967"/>
    </radialGradient>
    <radialGradient cx="0" cy="0" gradientTransform="matrix(0.0052, 0.0, 0.0, 0.0052, 19.65, -26.5)" gradientUnits="userSpaceOnUse" id="gradient7" r="819.2" spreadMethod="pad">
      <stop offset="0.0" stop-color="#63aad3"/>
      <stop offset="1.0" stop-color="#447693"/>
    </radialGradient>
    <radialGradient cx="0" cy="0" gradientTransform="matrix(0.0107, 0.0, 0.0, 0.0107, 12.1, -43.05)" gradientUnits="userSpaceOnUse" id="gradient8" r="819.2" spreadMethod="pad">
      <stop offset="0.0" stop-color="#5898bd"/>
      <stop offset="1.0" stop-color="#4e86a7"/>
    </radialGradient>
    <radialGradient cx="0" cy="0" gradientTransform="matrix(0.0155, 0.0, 0.0, 0.0155, 11.3, -42.6)" gradientUnits="userSpaceOnUse" id="gradient9" r="819.2" spreadMethod="pad">
      <stop offset="0.0" stop-color="#344b6b"/>
      <stop offset="1.0" stop-color="#233248"/>
    </radialGradient>
    <radialGradient cx="0" cy="0" gradientTransform="matrix(0.0319, 0.0, 0.0, 0.0319, 6.5, -49.45)" gradientUnits="userSpaceOnUse" id="gradient10" r="819.2" spreadMethod="pad">
      <stop offset="0.0" stop-color="#736893"/>
      <stop offset="1.0" stop-color="#4c4461"/>
    </radialGradient>
    <radialGradient cx="0" cy="0" gradientTransform="matrix(0.0024, 0.0, 0.0, 0.0024, -0.35, -43.4)" gradientUnits="userSpaceOnUse" id="gradient11" r="819.2" spreadMethod="pad">
      <stop offset="0.0" stop-color="#06090d"/>
      <stop offset="1.0" stop-color="#06090d"/>
    </radialGradient>
    <radialGradient cx="0" cy="0" gradientTransform="matrix(0.0025, 0.0, 0.0, 0.0025, 1.35, -43.0)" gradientUnits="userSpaceOnUse" id="gradient12" r="819.2" spreadMethod="pad">
      <stop offset="0.0" stop-color="#dda05c"/>
      <stop offset="1.0" stop-color="#c48d51"/>
    </radialGradient>
    <radialGradient cx="0" cy="0" gradientTransform="matrix(0.005, 0.0, 0.0, 0.005, 1.9, -39.95)" gradientUnits="userSpaceOnUse" id="gradient13" r="819.2" spreadMethod="pad">
      <stop offset="0.0" stop-color="#293a54"/>
      <stop offset="1.0" stop-color="#202d42"/>
    </radialGradient>
    <radialGradient cx="0" cy="0" gradientTransform="matrix(0.0052, 0.0, 0.0, 0.0052, 1.75, -39.55)" gradientUnits="userSpaceOnUse" id="gradient14" r="819.2" spreadMethod="pad">
      <stop offset="0.0" stop-color="#fff5cc"/>
      <stop offset="1.0" stop-color="#8a826c"/>
    </radialGradient>
    <radialGradient cx="0" cy="0" gradientTransform="matrix(0.0147, 0.0, 0.0, 0.0147, -4.95, -50.75)" gradientUnits="userSpaceOnUse" id="gradient15" r="819.2" spreadMethod="pad">
      <stop offset="0.0" stop-color="#7c709f"/>
      <stop offset="1.0" stop-color="#4d4662"/>
    </radialGradient>
    <radialGradient cx="0" cy="0" gradientTransform="matrix(0.0269, 0.0, 0.0, 0.0269, -0.35, -42.7)" gradientUnits="userSpaceOnUse" id="gradient16" r="819.2" spreadMethod="pad">
      <stop offset="0.0" stop-color="#7c709f"/>
      <stop offset="1.0" stop-color="#4d4662"/>
    </radialGradient>
    <radialGradient cx="0" cy="0" gradientTransform="matrix(0.0447, 0.0, 0.0, 0.0447, 4.0, -45.55)" gradientUnits="userSpaceOnUse" id="gradient17" r="819.2" spreadMethod="pad">
      <stop offset="0.0" stop-color="#796e9b"/>
      <stop offset="1.0" stop-color="#49425e"/>
    </radialGradient>
    <radialGradient cx="0" cy="0" gradientTransform="matrix(0.0465, 0.0, 0.0, 0.0465, 4.1, -45.05)" gradientUnits="userSpaceOnUse" id="gradient18" r="819.2" spreadMethod="pad">
      <stop offset="0.0" stop-color="#665d83"/>
      <stop offset="1.0" stop-color="#423c55"/>
    </radialGradient>
    <radialGradient cx="0" cy="0" gradientTransform="matrix(0.0123, 0.0, 0.0, 0.0123, -0.4, -37.9)" gradientUnits="userSpaceOnUse" id="gradient19" r="819.2" spreadMethod="pad">
      <stop offset="0.0" stop-color="#354c6d"/>
      <stop offset="1.0" stop-color="#213044"/>
    </radialGradient>
    <radialGradient cx="0" cy="0" gradientTransform="matrix(0.0083, 0.0, 0.0, 0.0083, -1.65, -38.3)" gradientUnits="userSpaceOnUse" id="gradient20" r="819.2" spreadMethod="pad">
      <stop offset="0.0" stop-color="#73c6f7"/>
      <stop offset="1.0" stop-color="#5089ab"/>
    </radialGradient>
    <radialGradient cx="0" cy="0" gradientTransform="matrix(0.0125, 0.0, 0.0, 0.0125, 1.4, -26.05)" gradientUnits="userSpaceOnUse" id="gradient21" r="819.2" spreadMethod="pad">
      <stop offset="0.0" stop-color="#374f72"/>
      <stop offset="1.0" stop-color="#283952"/>
    </radialGradient>
    <radialGradient cx="0" cy="0" gradientTransform="matrix(0.0107, 0.0, 0.0, 0.0107, 4.05, -29.2)" gradientUnits="userSpaceOnUse" id="gradient22" r="819.2" spreadMethod="pad">
      <stop offset="0.0" stop-color="#d4c8a6"/>
      <stop offset="1.0" stop-color="#8c836d"/>
    </radialGradient>
    <radialGradient cx="0" cy="0" gradientTransform="matrix(0.0052, 0.0, 0.0, 0.0052, 16.1, -31.75)" gradientUnits="userSpaceOnUse" id="gradient23" r="819.2" spreadMethod="pad">
      <stop offset="0.0" stop-color="#63aad4"/>
      <stop offset="1.0" stop-color="#4c82a2"/>
    </radialGradient>
    <radialGradient cx="0" cy="0" gradientTransform="matrix(0.0052, 0.0, 0.0, 0.0052, 17.2, -29.1)" gradientUnits="userSpaceOnUse" id="gradient24" r="819.2" spreadMethod="pad">
      <stop offset="0.0" stop-color="#2b3d58"/>
      <stop offset="1.0" stop-color="#1c293b"/>
    </radialGradient>
    <radialGradient cx="0" cy="0" gradientTransform="matrix(0.0175, 0.0, 0.0, 0.0175, -1.9, -23.65)" gradientUnits="userSpaceOnUse" id="gradient25" r="819.2" spreadMethod="pad">
      <stop offset="0.0" stop-color="#6cbae7"/>
      <stop offset="1.0" stop-color="#447693"/>
    </radialGradient>
    <radialGradient cx="0" cy="0" gradientTransform="matrix(0.0052, 0.0, 0.0, 0.0052, 13.55, -29.85)" gradientUnits="userSpaceOnUse" id="gradient26" r="819.2" spreadMethod="pad">
      <stop offset="0.0" stop-color="#06090d"/>
      <stop offset="1.0" stop-color="#06090d"/>
    </radialGradient>
    <radialGradient cx="0" cy="0" gradientTransform="matrix(0.0066, 0.0, 0.0, 0.0066, 20.5, -23.35)" gradientUnits="userSpaceOnUse" id="gradient27" r="819.2" spreadMethod="pad">
      <stop offset="0.0" stop-color="#354c6e"/>
      <stop offset="1.0" stop-color="#25354c"/>
    </radialGradient>
    <radialGradient cx="0" cy="0" gradientTransform="matrix(0.0042, 0.0, 0.0, 0.0042, 17.5, -23.25)" gradientUnits="userSpaceOnUse" id="gradient28" r="819.2" spreadMethod="pad">
      <stop offset="0.0" stop-color="#0e181e"/>
      <stop offset="1.0" stop-color="#0e181e"/>
    </radialGradient>
    <radialGradient cx="0" cy="0" gradientTransform="matrix(0.0091, 0.0, 0.0, 0.0091, 8.95, -22.35)" gradientUnits="userSpaceOnUse" id="gradient29" r="819.2" spreadMethod="pad">
      <stop offset="0.0" stop-color="#9f967d"/>
      <stop offset="1.0" stop-color="#77715e"/>
    </radialGradient>
    <radialGradient cx="0" cy="0" gradientTransform="matrix(0.0264, 0.0, 0.0, 0.0264, 13.65, -19.35)" gradientUnits="userSpaceOnUse" id="gradient30" r="819.2" spreadMethod="pad">
      <stop offset="0.0" stop-color="#534c6b"/>
      <stop offset="1.0" stop-color="#49425d"/>
    </radialGradient>
    <radialGradient cx="0" cy="0" gradientTransform="matrix(0.0429, 0.0, 0.0, 0.0429, 7.9, 9.1)" gradientUnits="userSpaceOnUse" id="gradient31" r="819.2" spreadMethod="pad">
      <stop offset="0.0" stop-color="#374f71"/>
      <stop offset="1.0" stop-color="#1d2a3d"/>
    </radialGradient>
    <radialGradient cx="0" cy="0" gradientTransform="matrix(0.017, 0.0, 0.0, 0.017, 4.6, -19.25)" gradientUnits="userSpaceOnUse" id="gradient32" r="819.2" spreadMethod="pad">
      <stop offset="0.0" stop-color="#aaa085"/>
      <stop offset="1.0" stop-color="#605b4b"/>
    </radialGradient>
    <radialGradient cx="0" cy="0" gradientTransform="matrix(0.0034, 0.0, 0.0, 0.0034, 8.8, -15.9)" gradientUnits="userSpaceOnUse" id="gradient33" r="819.2" spreadMethod="pad">
      <stop offset="0.0" stop-color="#6e6856"/>
      <stop offset="1.0" stop-color="#1f1e19"/>
    </radialGradient>
    <radialGradient cx="0" cy="0" gradientTransform="matrix(0.005, 0.0, 0.0, 0.005, -2.8, -52.2)" gradientUnits="userSpaceOnUse" id="gradient34" r="819.2" spreadMethod="pad">
      <stop offset="0.0" stop-color="#716690"/>
      <stop offset="1.0" stop-color="#574f6f"/>
    </radialGradient>
    <radialGradient cx="0" cy="0" gradientTransform="matrix(0.0036, 0.0, 0.0, 0.0036, -3.45, -53.7)" gradientUnits="userSpaceOnUse" id="gradient35" r="819.2" spreadMethod="pad">
      <stop offset="0.0" stop-color="#3b364c"/>
      <stop offset="1.0" stop-color="#1e1b26"/>
    </radialGradient>
    <radialGradient cx="0" cy="0" gradientTransform="matrix(0.0032, 0.0, 0.0, 0.0032, -1.7, -55.1)" gradientUnits="userSpaceOnUse" id="gradient36" r="819.2" spreadMethod="pad">
      <stop offset="0.0" stop-color="#756a96"/>
      <stop offset="1.0" stop-color="#716791"/>
    </radialGradient>
    <radialGradient cx="0" cy="0" gradientTransform="matrix(0.0052, 0.0, 0.0, 0.0052, -2.05, -55.0)" gradientUnits="userSpaceOnUse" id="gradient37" r="819.2" spreadMethod="pad">
      <stop offset="0.0" stop-color="#0f0e13"/>
      <stop offset="1.0" stop-color="#0f0e13"/>
    </radialGradient>
    <radialGradient cx="0" cy="0" gradientTransform="matrix(0.0044, 0.0, 0.0, 0.0044, 0.1, -43.9)" gradientUnits="userSpaceOnUse" id="gradient38" r="819.2" spreadMethod="pad">
      <stop offset="0.0" stop-color="#edab62"/>
      <stop offset="1.0" stop-color="#ad7c47"/>
    </radialGradient>
    <radialGradient cx="0" cy="0" gradientTransform="matrix(0.0128, 0.0, 0.0, 0.0128, -4.1, -36.8)" gradientUnits="userSpaceOnUse" id="gradient39" r="819.2" spreadMethod="pad">
      <stop offset="0.0" stop-color="#354d6e"/>
      <stop offset="1.0" stop-color="#202e43"/>
    </radialGradient>
    <radialGradient cx="0" cy="0" gradientTransform="matrix(0.0034, 0.0, 0.0, 0.0034, 0.15, -42.35)" gradientUnits="userSpaceOnUse" id="gradient40" r="819.2" spreadMethod="pad">
      <stop offset="0.0" stop-color="#121a25"/>
      <stop offset="1.0" stop-color="#0e151e"/>
    </radialGradient>
    <radialGradient cx="0" cy="0" gradientTransform="matrix(0.013, 0.0, 0.0, 0.013, -2.6, -41.7)" gradientUnits="userSpaceOnUse" id="gradient41" r="819.2" spreadMethod="pad">
      <stop offset="0.0" stop-color="#0a0e14"/>
      <stop offset="1.0" stop-color="#06090d"/>
    </radialGradient>
    <radialGradient cx="0" cy="0" gradientTransform="matrix(0.0014, 0.0, 0.0, 0.0014, -2.15, -39.8)" gradientUnits="userSpaceOnUse" id="gradient42" r="819.2" spreadMethod="pad">
      <stop offset="0.0" stop-color="#233349"/>
      <stop offset="1.0" stop-color="#1f2d40"/>
    </radialGradient>
    <radialGradient cx="0" cy="0" gradientTransform="matrix(0.0019, 0.0, 0.0, 0.0019, -1.45, -38.9)" gradientUnits="userSpaceOnUse" id="gradient43" r="819.2" spreadMethod="pad">
      <stop offset="0.0" stop-color="#223247"/>
      <stop offset="1.0" stop-color="#202f43"/>
    </radialGradient>
    <radialGradient cx="0" cy="0" gradientTransform="matrix(0.0046, 0.0, 0.0, 0.0046, -11.55, -29.35)" gradientUnits="userSpaceOnUse" id="gradient44" r="819.2" spreadMethod="pad">
      <stop offset="0.0" stop-color="#5490b3"/>
      <stop offset="1.0" stop-color="#305367"/>
    </radialGradient>
    <radialGradient cx="0" cy="0" gradientTransform="matrix(0.0058, 0.0, 0.0, 0.0058, -14.3, -27.7)" gradientUnits="userSpaceOnUse" id="gradient45" r="819.2" spreadMethod="pad">
      <stop offset="0.0" stop-color="#24344a"/>
      <stop offset="1.0" stop-color="#1c283a"/>
    </radialGradient>
    <radialGradient cx="0" cy="0" gradientTransform="matrix(0.0957, 0.0, 0.0, 0.0957, 8.15, 24.8)" gradientUnits="userSpaceOnUse" id="gradient46" r="819.2" spreadMethod="pad">
      <stop offset="0.0" stop-color="#7e4410"/>
      <stop offset="1.0" stop-color="#62350c"/>
    </radialGradient>
    <radialGradient cx="0" cy="0" gradientTransform="matrix(0.0033, 0.0, 0.0, 0.0033, -18.2, -25.25)" gradientUnits="userSpaceOnUse" id="gradient47" r="819.2" spreadMethod="pad">
      <stop offset="0.0" stop-color="#1f2c3f"/>
      <stop offset="1.0" stop-color="#1c293a"/>
    </radialGradient>
    <radialGradient cx="0" cy="0" gradientTransform="matrix(0.0067, 0.0, 0.0, 0.0067, -16.65, -26.25)" gradientUnits="userSpaceOnUse" id="gradient48" r="819.2" spreadMethod="pad">
      <stop offset="0.0" stop-color="#4f87a9"/>
      <stop offset="1.0" stop-color="#3e6b85"/>
    </radialGradient>
    <radialGradient cx="0" cy="0" gradientTransform="matrix(0.0016, 0.0, 0.0, 0.0016, -3.15, -31.7)" gradientUnits="userSpaceOnUse" id="gradient49" r="819.2" spreadMethod="pad">
      <stop offset="0.0" stop-color="#1f1e19"/>
      <stop offset="1.0" stop-color="#1f1e19"/>
    </radialGradient>
    <radialGradient cx="0" cy="0" gradientTransform="matrix(0.0012, 0.0, 0.0, 0.0012, -29.9, -43.1)" gradientUnits="userSpaceOnUse" id="gradient50" r="819.2" spreadMethod="pad">
      <stop offset="0.0" stop-color="#d46b00"/>
      <stop offset="1.0" stop-color="#c06000"/>
    </radialGradient>
    <radialGradient cx="0" cy="0" gradientTransform="matrix(0.0038, 0.0, 0.0, 0.0038, -26.95, -43.45)" gradientUnits="userSpaceOnUse" id="gradient51" r="819.2" spreadMethod="pad">
      <stop offset="0.0" stop-color="#ffffdc"/>
      <stop offset="1.0" stop-color="#9f967c"/>
    </radialGradient>
    <radialGradient cx="0" cy="0" gradientTransform="matrix(0.0036, 0.0, 0.0, 0.0036, -28.35, -43.0)" gradientUnits="userSpaceOnUse" id="gradient52" r="819.2" spreadMethod="pad">
      <stop offset="0.0" stop-color="#ffcf00"/>
      <stop offset="1.0" stop-color="#bb6000"/>
    </radialGradient>
    <radialGradient cx="0" cy="0" gradientTransform="matrix(0.0238, 0.0, 0.0, 0.0238, -26.5, -29.2)" gradientUnits="userSpaceOnUse" id="gradient53" r="819.2" spreadMethod="pad">
      <stop offset="0.0" stop-color="#7a420f"/>
      <stop offset="1.0" stop-color="#3f2108"/>
    </radialGradient>
    <radialGradient cx="0" cy="0" gradientTransform="matrix(0.0033, 0.0, 0.0, 0.0033, -27.05, -45.45)" gradientUnits="userSpaceOnUse" id="gradient54" r="819.2" spreadMethod="pad">
      <stop offset="0.0" stop-color="#ffcc00"/>
      <stop offset="1.0" stop-color="#eb7700"/>
    </radialGradient>
    <radialGradient cx="0" cy="0" gradientTransform="matrix(0.002, 0.0, 0.0, 0.002, -28.6, -40.8)" gradientUnits="userSpaceOnUse" id="gradient55" r="819.2" spreadMethod="pad">
      <stop offset="0.0" stop-color="#ffdb00"/>
      <stop offset="1.0" stop-color="#e77600"/>
    </radialGradient>
    <radialGradient cx="0" cy="0" gradientTransform="matrix(0.0047, 0.0, 0.0, 0.0047, -25.6, -39.05)" gradientUnits="userSpaceOnUse" id="gradient56" r="819.2" spreadMethod="pad">
      <stop offset="0.0" stop-color="#fffed3"/>
      <stop offset="1.0" stop-color="#cdc1a0"/>
    </radialGradient>
    <radialGradient cx="0" cy="0" gradientTransform="matrix(0.0019, 0.0, 0.0, 0.0019, -28.2, -38.0)" gradientUnits="userSpaceOnUse" id="gradient57" r="819.2" spreadMethod="pad">
      <stop offset="0.0" stop-color="#ffe100"/>
      <stop offset="1.0" stop-color="#fc8400"/>
    </radialGradient>
    <radialGradient cx="0" cy="0" gradientTransform="matrix(0.0029, 0.0, 0.0, 0.0029, -24.65, -39.4)" gradientUnits="userSpaceOnUse" id="gradient58" r="819.2" spreadMethod="pad">
      <stop offset="0.0" stop-color="#6c6654"/>
      <stop offset="1.0" stop-color="#6b6554"/>
    </radialGradient>
    <radialGradient cx="0" cy="0" gradientTransform="matrix(0.0035, 0.0, 0.0, 0.0035, -27.45, -47.2)" gradientUnits="userSpaceOnUse" id="gradient59" r="819.2" spreadMethod="pad">
      <stop offset="0.0" stop-color="#78410f"/>
      <stop offset="1.0" stop-color="#78410f"/>
    </radialGradient>
    <radialGradient cx="0" cy="0" gradientTransform="matrix(0.015, 0.0, 0.0, 0.015, -5.45, -20.05)" gradientUnits="userSpaceOnUse" id="gradient60" r="819.2" spreadMethod="pad">
      <stop offset="0.0" stop-color="#1f1e19"/>
      <stop offset="1.0" stop-color="#1f1e19"/>
    </radialGradient>
    <radialGradient cx="0" cy="0" gradientTransform="matrix(0.0114, 0.0, 0.0, 0.0114, -14.1, -17.15)" gradientUnits="userSpaceOnUse" id="gradient61" r="819.2" spreadMethod="pad">
      <stop offset="0.0" stop-color="#374f72"/>
      <stop offset="1.0" stop-color="#2c405c"/>
    </radialGradient>
    <radialGradient cx="0" cy="0" gradientTransform="matrix(0.0107, 0.0, 0.0, 0.0107, -5.5, -17.25)" gradientUnits="userSpaceOnUse" id="gradient62" r="819.2" spreadMethod="pad">
      <stop offset="0.0" stop-color="#06090d"/>
      <stop offset="1.0" stop-color="#06090d"/>
    </radialGradient>
    <radialGradient cx="0" cy="0" gradientTransform="matrix(0.0324, 0.0, 0.0, 0.0324, 8.85, 12.35)" gradientUnits="userSpaceOnUse" id="gradient63" r="819.2" spreadMethod="pad">
      <stop offset="0.0" stop-color="#6fbeed"/>
      <stop offset="1.0" stop-color="#41718d"/>
    </radialGradient>
    <radialGradient cx="0" cy="0" gradientTransform="matrix(0.0144, 0.0, 0.0, 0.0144, 8.2, 24.8)" gradientUnits="userSpaceOnUse" id="gradient64" r="819.2" spreadMethod="pad">
      <stop offset="0.0" stop-color="#ffffd7"/>
      <stop offset="1.0" stop-color="#bcb193"/>
    </radialGradient>
    <radialGradient cx="0" cy="0" gradientTransform="matrix(0.0029, 0.0, 0.0, 0.0029, 7.05, 25.45)" gradientUnits="userSpaceOnUse" id="gradient65" r="819.2" spreadMethod="pad">
      <stop offset="0.0" stop-color="#36332b"/>
      <stop offset="1.0" stop-color="#36332b"/>
    </radialGradient>
    <radialGradient cx="0" cy="0" gradientTransform="matrix(0.002, 0.0, 0.0, 0.002, 8.15, 24.8)" gradientUnits="userSpaceOnUse" id="gradient66" r="819.2" spreadMethod="pad">
      <stop offset="0.0" stop-color="#190e03"/>
      <stop offset="1.0" stop-color="#190d03"/>
    </radialGradient>
  </defs>
</svg>
