<?xml version="1.0" encoding="UTF-8" standalone="no"?>
<svg xmlns:ffdec="https://www.free-decompiler.com/flash" xmlns:xlink="http://www.w3.org/1999/xlink" ffdec:objectType="shape" height="69.9px" width="69.4px" xmlns="http://www.w3.org/2000/svg">
  <g transform="matrix(1.0, 0.0, 0.0, 1.0, 52.2, 58.95)">
    <path d="M5.55 -58.05 L6.1 -57.9 6.3 -57.8 6.55 -57.65 7.1 -57.15 6.2 -57.0 Q5.95 -53.5 5.7 -54.1 L5.4 -53.0 3.45 -49.1 -2.05 -39.5 -3.5 -37.25 -3.6 -36.5 -4.4 -34.85 -6.65 -30.3 -6.8 -30.4 -6.0 -32.75 -5.35 -34.5 0.35 -49.55 Q0.75 -50.9 2.35 -52.6 L2.6 -54.85 3.3 -56.35 4.0 -57.65 4.5 -58.15 5.55 -58.05" fill="url(#gradient0)" fill-rule="evenodd" stroke="none"/>
    <path d="M6.1 -57.9 L5.55 -58.05 5.45 -58.3 6.1 -57.9 M-9.45 -41.9 Q-17.5 -29.95 -15.25 -33.7 L-8.5 -44.4 -7.7 -45.45 -6.9 -46.4 -7.55 -44.3 -9.45 -41.9" fill="url(#gradient1)" fill-rule="evenodd" stroke="none"/>
    <path d="M5.45 -58.3 L5.55 -58.05 4.5 -58.15 4.0 -57.65 2.35 -57.15 1.8 -57.25 1.6 -57.9 1.85 -57.95 4.45 -58.95 5.1 -58.85 5.45 -58.3" fill="url(#gradient2)" fill-rule="evenodd" stroke="none"/>
    <path d="M7.1 -57.15 L6.55 -57.65 7.5 -57.15 7.1 -57.15 M11.2 -46.55 L10.95 -42.25 10.7 -39.9 10.7 -42.6 10.7 -46.0 10.4 -47.05 10.15 -48.35 10.45 -51.95 10.3 -52.65 10.65 -52.0 11.2 -46.55 M9.5 -51.4 L9.65 -51.65 9.75 -51.15 9.5 -51.4" fill="url(#gradient3)" fill-rule="evenodd" stroke="none"/>
    <path d="M-5.35 -34.5 L-6.0 -32.75 -8.8 -29.35 -8.75 -29.7 -5.35 -34.5 M-4.4 -34.85 L-3.6 -36.5 -3.5 -37.25 -2.05 -39.5 2.45 -46.8 3.45 -49.1 5.4 -53.0 5.7 -54.1 Q5.95 -53.5 6.2 -57.0 L7.1 -57.15 7.5 -57.15 8.6 -56.5 9.0 -55.85 8.2 -52.9 7.8 -51.85 6.1 -49.2 4.45 -46.55 4.35 -46.45 4.35 -46.4 4.0 -46.0 3.25 -44.8 -1.4 -38.45 -4.4 -34.85" fill="url(#gradient4)" fill-rule="evenodd" stroke="none"/>
    <path d="M6.55 -57.65 L6.3 -57.8 7.15 -57.8 8.7 -56.5 8.6 -56.5 7.5 -57.15 6.55 -57.65 M9.1 -50.5 L9.5 -51.4 9.75 -51.15 9.75 -51.05 9.8 -50.75 9.75 -48.4 9.1 -50.5 M9.8 -46.45 L10.15 -48.35 10.4 -47.05 10.3 -43.25 10.05 -43.45 9.8 -46.45" fill="url(#gradient5)" fill-rule="evenodd" stroke="none"/>
    <path d="M8.7 -56.5 L9.25 -56.6 9.5 -56.35 9.65 -55.85 9.75 -55.15 10.0 -53.0 9.65 -51.65 9.5 -51.4 9.1 -50.5 8.7 -49.6 7.75 -47.65 6.1 -45.0 5.8 -44.65 4.25 -42.55 2.8 -40.45 -0.2 -36.75 -0.4 -36.6 -0.55 -36.5 -4.8 -31.75 0.0 -37.8 0.15 -38.05 1.85 -40.05 2.9 -41.75 4.25 -43.8 4.7 -44.55 5.0 -45.0 5.55 -45.85 5.65 -46.0 6.55 -47.45 6.75 -48.1 7.5 -49.95 7.5 -50.0 7.65 -50.2 8.45 -51.95 8.2 -52.9 9.0 -55.85 8.6 -56.5 8.7 -56.5" fill="url(#gradient6)" fill-rule="evenodd" stroke="none"/>
    <path d="M-11.15 -28.65 L-11.65 -27.2 -11.4 -28.75 -10.85 -31.35 -10.8 -31.45 -10.45 -33.7 -9.85 -36.45 -9.85 -36.5 -9.25 -39.0 -7.55 -44.3 -6.9 -46.4 -4.9 -50.5 -3.05 -54.2 -0.85 -56.2 -4.0 -51.4 Q-8.35 -40.5 -7.85 -40.7 L-8.8 -37.95 -9.35 -36.5 -9.45 -35.85 -10.05 -33.45 -10.5 -31.4 -11.15 -28.65 M-0.4 -56.7 L1.0 -58.05 1.85 -57.95 1.6 -57.9 1.8 -57.25 -0.4 -56.7" fill="url(#gradient7)" fill-rule="evenodd" stroke="none"/>
    <path d="M3.3 -56.35 L2.6 -54.85 2.35 -52.6 Q0.75 -50.9 0.35 -49.55 L-2.25 -47.2 Q-7.05 -39.2 -7.35 -36.5 L-8.1 -34.35 -8.5 -33.2 -8.65 -32.85 -9.25 -31.05 -9.8 -28.8 -11.65 -21.5 -10.6 -28.5 -10.1 -31.2 -9.7 -33.2 -9.15 -35.55 -8.8 -36.5 -8.65 -37.65 -7.85 -40.7 Q-8.35 -40.5 -4.0 -51.4 L-0.85 -56.2 -0.4 -56.7 1.8 -57.25 2.35 -57.15 3.3 -56.35" fill="url(#gradient8)" fill-rule="evenodd" stroke="none"/>
    <path d="M4.0 -57.65 L3.3 -56.35 2.35 -57.15 4.0 -57.65 M8.2 -52.9 L8.45 -51.95 7.65 -50.2 7.5 -50.0 7.4 -49.95 6.6 -49.1 6.1 -49.2 7.8 -51.85 8.2 -52.9" fill="url(#gradient9)" fill-rule="evenodd" stroke="none"/>
    <path d="M9.65 -51.65 L10.0 -53.0 9.75 -55.15 10.05 -54.1 10.3 -52.65 10.45 -51.95 10.15 -48.35 9.8 -46.45 8.95 -43.25 8.85 -43.25 8.85 -43.35 9.75 -47.2 9.75 -48.4 9.8 -50.75 9.75 -51.05 9.75 -51.15 9.65 -51.65 M8.95 -43.1 L8.75 -42.95 8.85 -43.2 8.95 -43.1" fill="url(#gradient10)" fill-rule="evenodd" stroke="none"/>
    <path d="M9.65 -55.85 Q12.1 -53.95 11.2 -46.55 L10.65 -52.0 10.3 -52.65 10.05 -54.1 9.75 -55.15 9.65 -55.85" fill="url(#gradient11)" fill-rule="evenodd" stroke="none"/>
    <path d="M7.5 -50.0 L7.5 -49.95 7.4 -49.95 7.5 -50.0 M6.75 -48.1 L6.55 -47.45 6.2 -47.45 6.75 -48.1 M7.75 -47.65 L8.7 -49.6 8.85 -49.3 8.7 -48.65 7.75 -47.65" fill="url(#gradient12)" fill-rule="evenodd" stroke="none"/>
    <path d="M7.5 -49.95 L6.75 -48.1 6.2 -47.45 5.7 -46.95 5.1 -46.8 5.1 -46.95 5.1 -47.2 6.6 -49.1 7.4 -49.95 7.5 -49.95" fill="url(#gradient13)" fill-rule="evenodd" stroke="none"/>
    <path d="M10.95 -42.25 Q12.55 -38.9 10.95 -37.65 L10.75 -38.85 9.1 -40.95 10.0 -41.4 10.2 -41.35 10.15 -41.5 8.95 -43.1 8.85 -43.2 8.85 -43.25 8.95 -43.25 10.7 -42.6 10.7 -39.9 10.95 -42.25 M5.55 -45.85 L5.0 -45.0 4.6 -45.45 4.5 -45.85 4.5 -46.25 4.75 -46.45 5.55 -45.85 M2.9 -41.75 L1.85 -40.05 0.15 -38.05 0.1 -38.05 1.7 -41.5 2.2 -41.8 2.9 -41.75 M-0.4 -36.6 L-0.2 -36.75 -0.05 -36.5 0.9 -35.15 Q1.5 -34.5 3.25 -36.5 L3.65 -36.75 3.65 -36.5 4.75 -32.85 2.25 -32.95 -0.8 -35.25 -0.4 -36.5 -0.4 -36.6 M2.8 -40.45 L4.25 -42.55 4.85 -42.6 Q4.8 -43.3 6.55 -43.6 L6.9 -43.65 7.0 -43.75 7.35 -43.75 2.8 -40.45 M5.8 -44.65 L6.1 -45.0 6.3 -44.65 6.3 -44.3 5.8 -44.65 M4.35 -46.15 L4.1 -45.85 4.0 -46.0 4.35 -46.4 4.35 -46.15 M-1.3 -33.45 L-1.3 -33.4 -1.35 -33.4 -1.3 -33.45" fill="url(#gradient14)" fill-rule="evenodd" stroke="none"/>
    <path d="M10.95 -37.65 L11.25 -34.35 12.85 -28.75 Q12.8 -28.2 11.1 -27.3 L7.65 -26.45 7.5 -25.85 7.25 -25.75 7.0 -26.8 6.75 -28.0 Q5.65 -29.55 5.1 -31.7 L4.75 -32.85 3.65 -36.5 3.65 -36.75 9.1 -40.95 10.75 -38.85 10.95 -37.65" fill="url(#gradient15)" fill-rule="evenodd" stroke="none"/>
    <path d="M10.15 -41.5 L10.2 -41.35 10.0 -41.4 10.05 -41.5 10.15 -41.5" fill="url(#gradient16)" fill-rule="evenodd" stroke="none"/>
    <path d="M9.25 -47.55 Q8.5 -44.35 6.85 -45.85 L8.45 -46.95 9.25 -47.85 9.25 -47.55" fill="url(#gradient17)" fill-rule="evenodd" stroke="none"/>
    <path d="M6.55 -47.45 L5.65 -46.0 5.7 -46.95 6.2 -47.45 6.55 -47.45 M6.1 -45.0 L7.75 -47.65 8.7 -48.65 8.85 -49.3 9.25 -47.85 8.45 -46.95 6.85 -45.85 Q8.5 -44.35 9.25 -47.55 L9.5 -46.8 8.85 -44.65 8.75 -44.8 6.3 -44.65 6.1 -45.0" fill="url(#gradient18)" fill-rule="evenodd" stroke="none"/>
    <path d="M5.1 -47.2 L5.1 -46.95 4.9 -47.05 5.1 -47.2" fill="url(#gradient19)" fill-rule="evenodd" stroke="none"/>
    <path d="M5.1 -46.95 L5.1 -46.8 4.6 -46.7 4.9 -47.05 5.1 -46.95" fill="url(#gradient20)" fill-rule="evenodd" stroke="none"/>
    <path d="M-5.45 -9.95 L-5.95 -19.8 -5.7 -24.7 -5.7 -25.0 -5.45 -30.25 -5.2 -31.6 -1.4 -38.45 3.25 -44.8 3.25 -44.7 2.7 -43.6 1.7 -41.5 0.1 -38.05 0.0 -37.8 -4.8 -31.75 -0.55 -36.5 -0.4 -36.6 -0.4 -36.5 -0.8 -35.25 -1.3 -33.45 -1.35 -33.4 -2.65 -29.3 -3.2 -26.3 -3.95 -22.45 -4.5 -19.5 -4.5 -19.25 -4.55 -19.15 -4.55 -18.9 -4.7 -17.5 -5.2 -11.45 -5.2 -11.2 -5.2 -10.95 -5.3 -10.9 -5.45 -9.95 M6.6 -49.1 L5.1 -47.2 4.9 -47.05 4.6 -46.7 4.6 -46.65 4.45 -46.55 6.1 -49.2 6.6 -49.1" fill="url(#gradient21)" fill-rule="evenodd" stroke="none"/>
    <path d="M8.85 -44.65 L8.7 -43.75 8.3 -44.05 7.35 -43.75 7.0 -43.75 6.85 -43.75 6.55 -43.8 6.3 -44.3 6.3 -44.65 8.75 -44.8 8.85 -44.65" fill="url(#gradient22)" fill-rule="evenodd" stroke="none"/>
    <path d="M5.0 -45.0 L4.7 -44.55 4.6 -45.45 5.0 -45.0 M4.25 -43.8 L2.9 -41.75 2.2 -41.8 1.7 -41.5 2.7 -43.6 4.25 -43.8 M4.25 -42.55 L5.8 -44.65 6.3 -44.3 6.55 -43.8 6.55 -43.6 Q4.8 -43.3 4.85 -42.6 L4.25 -42.55" fill="url(#gradient23)" fill-rule="evenodd" stroke="none"/>
    <path d="M6.85 -43.75 L6.9 -43.65 6.55 -43.6 6.55 -43.8 6.85 -43.75" fill="url(#gradient24)" fill-rule="evenodd" stroke="none"/>
    <path d="M6.9 -43.65 L6.85 -43.75 7.0 -43.75 6.9 -43.65" fill="url(#gradient25)" fill-rule="evenodd" stroke="none"/>
    <path d="M0.15 -38.05 L0.0 -37.8 0.1 -38.05 0.15 -38.05 M-0.2 -36.75 L2.8 -40.45 7.35 -43.75 8.3 -44.05 8.7 -43.6 8.85 -43.35 8.85 -43.25 8.85 -43.2 8.75 -42.95 8.95 -43.1 10.15 -41.5 10.05 -41.5 10.0 -41.4 9.1 -40.95 3.65 -36.75 3.25 -36.5 Q1.5 -34.5 0.9 -35.15 L-0.05 -36.5 -0.2 -36.75" fill="url(#gradient26)" fill-rule="evenodd" stroke="none"/>
    <path d="M8.7 -43.75 L8.7 -43.6 8.3 -44.05 8.7 -43.75" fill="url(#gradient27)" fill-rule="evenodd" stroke="none"/>
    <path d="M4.35 -46.4 L4.35 -46.45 4.45 -46.55 4.6 -46.65 4.75 -46.45 4.5 -46.25 4.35 -46.15 4.35 -46.4" fill="url(#gradient28)" fill-rule="evenodd" stroke="none"/>
    <path d="M4.5 -46.25 L4.5 -45.85 4.25 -45.5 4.1 -45.75 4.1 -45.85 4.35 -46.15 4.5 -46.25 M4.1 -45.35 L4.1 -45.45 4.2 -45.45 4.1 -45.35" fill="url(#gradient29)" fill-rule="evenodd" stroke="none"/>
    <path d="M4.1 -45.85 L4.1 -45.75 4.1 -45.45 4.1 -45.35 3.25 -44.7 3.25 -44.8 4.0 -46.0 4.1 -45.85" fill="url(#gradient30)" fill-rule="evenodd" stroke="none"/>
    <path d="M4.1 -45.75 L4.25 -45.5 4.2 -45.45 4.1 -45.45 4.1 -45.75" fill="url(#gradient31)" fill-rule="evenodd" stroke="none"/>
    <path d="M4.7 -44.55 L4.25 -43.8 2.7 -43.6 3.25 -44.7 4.1 -45.35 4.2 -45.45 4.25 -45.5 4.5 -45.85 4.6 -45.45 4.7 -44.55" fill="url(#gradient32)" fill-rule="evenodd" stroke="none"/>
    <path d="M-6.8 -30.4 L-6.65 -30.3 -4.4 -34.85 -1.4 -38.45 -5.2 -31.6 -5.7 -30.75 -6.35 -29.55 -8.4 -25.9 -6.8 -30.4 M-2.05 -39.5 L3.45 -49.1 2.45 -46.8 -2.05 -39.5" fill="url(#gradient33)" fill-rule="evenodd" stroke="none"/>
    <path d="M-0.8 -35.25 L2.25 -32.95 4.75 -32.85 5.1 -31.7 4.0 -31.2 1.6 -31.55 1.45 -31.6 Q0.75 -31.5 -0.4 -32.5 L-1.3 -33.4 -1.3 -33.45 -0.8 -35.25" fill="url(#gradient34)" fill-rule="evenodd" stroke="none"/>
    <path d="M-5.2 -31.6 L-5.45 -30.25 -5.7 -30.75 -5.2 -31.6 M5.1 -31.7 Q5.65 -29.55 6.75 -28.0 L7.0 -26.8 Q2.9 -24.95 -3.2 -26.3 L-2.65 -29.3 -1.35 -33.4 -1.3 -33.4 -0.4 -32.5 Q0.75 -31.5 1.45 -31.6 L1.6 -31.55 4.0 -31.2 5.1 -31.7" fill="url(#gradient35)" fill-rule="evenodd" stroke="none"/>
    <path d="M12.85 -28.75 L13.9 -24.8 Q11.45 -21.95 7.9 -23.1 L7.55 -24.45 7.25 -25.75 7.5 -25.85 7.65 -26.45 11.1 -27.3 Q12.8 -28.2 12.85 -28.75" fill="url(#gradient36)" fill-rule="evenodd" stroke="none"/>
    <path d="M-5.7 -25.0 L-6.6 -27.9 -6.35 -29.55 -5.7 -30.75 -5.45 -30.25 -5.7 -25.0 M7.0 -26.8 L7.25 -25.75 7.55 -24.45 5.35 -23.45 -0.95 -22.3 -3.1 -22.3 -3.95 -22.45 -3.2 -26.3 Q2.9 -24.95 7.0 -26.8" fill="url(#gradient37)" fill-rule="evenodd" stroke="none"/>
    <path d="M14.75 -21.25 L15.3 -18.6 Q13.55 -14.7 9.4 -16.45 L8.7 -19.65 Q13.25 -18.05 14.75 -21.25" fill="url(#gradient38)" fill-rule="evenodd" stroke="none"/>
    <path d="M15.3 -18.6 L17.2 -14.65 16.65 -12.95 Q14.5 -11.05 11.9 -10.75 L8.95 -11.7 8.3 -12.0 9.4 -16.45 Q13.55 -14.7 15.3 -18.6" fill="url(#gradient39)" fill-rule="evenodd" stroke="none"/>
    <path d="M7.15 -11.85 L8.0 -11.95 Q5.1 -5.85 -1.75 -18.9 L-3.1 -21.9 -3.1 -22.3 -0.95 -22.3 0.65 -18.9 Q2.8 -14.75 4.75 -13.15 L7.15 -11.85" fill="url(#gradient40)" fill-rule="evenodd" stroke="none"/>
    <path d="M8.95 -11.7 L10.0 -7.05 11.1 -4.2 12.4 -1.35 Q10.15 6.65 2.35 7.1 -6.6 5.55 -8.4 -1.35 -8.7 -1.95 -8.15 -3.65 L-7.55 -4.85 -7.35 -5.0 -5.75 -8.65 -5.45 -9.95 -5.3 -10.9 -5.2 -10.95 -5.2 -11.2 -5.15 -11.45 -4.5 -15.4 -4.4 -17.5 -4.4 -18.9 -4.5 -19.15 -4.5 -19.25 -4.5 -19.5 -3.1 -21.9 -1.75 -18.9 Q5.1 -5.85 8.0 -11.95 L8.3 -12.0 8.95 -11.7 M8.35 -20.55 L8.35 -14.4 Q8.15 -12.65 7.15 -11.85 L4.75 -13.15 Q2.8 -14.75 0.65 -18.9 L-0.95 -22.3 5.35 -23.45 7.55 -24.45 7.9 -23.1 8.35 -20.55" fill="url(#gradient41)" fill-rule="evenodd" stroke="none"/>
    <path d="M8.35 -20.55 L8.7 -19.65 9.4 -16.45 8.3 -12.0 8.0 -11.95 7.15 -11.85 Q8.15 -12.65 8.35 -14.4 L8.35 -20.55" fill="url(#gradient42)" fill-rule="evenodd" stroke="none"/>
    <path d="M13.9 -24.8 L14.75 -21.25 Q13.25 -18.05 8.7 -19.65 L8.35 -20.55 7.9 -23.1 Q11.45 -21.95 13.9 -24.8" fill="url(#gradient43)" fill-rule="evenodd" stroke="none"/>
    <path d="M11.1 -4.2 Q18.75 7.65 2.2 10.95 -16.1 7.65 -7.55 -4.85 L-8.15 -3.65 Q-8.7 -1.95 -8.4 -1.35 -6.6 5.55 2.35 7.1 10.15 6.65 12.4 -1.35 L11.1 -4.2" fill="url(#gradient44)" fill-rule="evenodd" stroke="none"/>
    <path d="M-7.35 -48.1 Q-7.1 -49.5 -6.0 -50.2 L-4.9 -50.5 -6.9 -46.4 -7.7 -45.45 -7.6 -47.55 -7.35 -48.1" fill="url(#gradient45)" fill-rule="evenodd" stroke="none"/>
    <path d="M-50.6 -2.85 L-50.85 -2.95 -50.6 -2.95 -50.6 -2.85 M-51.15 -3.2 L-51.5 -3.5 -51.5 -3.55 -51.5 -4.45 -51.95 -4.85 -51.8 -4.65 -52.05 -4.45 -52.15 -4.45 -52.15 -4.65 -52.2 -4.8 -52.2 -4.85 -52.15 -5.0 -52.15 -5.1 -52.05 -5.2 -51.9 -5.0 -51.8 -4.95 -51.25 -4.4 -51.3 -3.8 -51.0 -3.8 -51.15 -3.2" fill="url(#gradient46)" fill-rule="evenodd" stroke="none"/>
    <path d="M-50.85 -2.95 L-51.0 -3.0 -51.15 -3.2 -51.0 -3.8 -51.3 -3.8 -51.25 -4.4 -50.75 -3.8 -50.6 -3.2 -50.6 -2.95 -50.85 -2.95 M-51.65 -3.65 L-51.65 -3.75 -51.7 -3.8 -51.95 -4.15 -51.95 -4.2 -52.05 -4.3 -52.05 -4.4 -52.05 -4.45 -51.8 -4.65 -51.95 -4.85 -51.5 -4.45 -51.5 -3.55 -51.65 -3.65 M-52.15 -4.65 L-52.2 -4.7 -52.2 -4.8 -52.15 -4.65 M-52.2 -4.85 L-52.2 -5.0 -52.15 -5.0 -52.2 -4.85" fill="url(#gradient47)" fill-rule="evenodd" stroke="none"/>
    <path d="M-51.5 -3.5 L-51.65 -3.65 -51.5 -3.55 -51.5 -3.5 M-52.05 -4.4 L-52.15 -4.45 -52.05 -4.45 -52.05 -4.4 M-52.2 -5.0 L-52.15 -5.1 -52.15 -5.0 -52.2 -5.0" fill="url(#gradient48)" fill-rule="evenodd" stroke="none"/>
    <path d="M-41.1 -9.45 L-50.6 -2.85 -50.6 -2.95 -50.6 -3.2 -50.75 -3.8 -51.25 -4.4 -51.8 -4.95 -51.9 -5.0 -52.05 -5.2 -42.85 -11.5 -42.55 -11.5 -41.5 -10.55 -41.1 -9.45" fill="url(#gradient49)" fill-rule="evenodd" stroke="none"/>
    <path d="M-12.85 -29.05 L-41.1 -9.45 -41.5 -10.55 -42.55 -11.5 -15.4 -30.2 Q-14.6 -30.25 -12.85 -29.05" fill="url(#gradient50)" fill-rule="evenodd" stroke="none"/>
    <path d="M-9.6 -41.15 L-9.6 -41.25 -9.55 -41.35 -9.45 -41.9 -7.55 -44.3 -9.25 -39.0 -9.7 -40.3 -9.6 -41.15 M-8.5 -44.4 L-8.5 -47.1 -7.35 -48.1 -7.6 -47.55 -7.7 -45.45 -8.5 -44.4 M-7.85 -40.7 L-8.65 -37.65 -8.8 -37.95 -7.85 -40.7" fill="url(#gradient51)" fill-rule="evenodd" stroke="none"/>
    <path d="M-10.75 -38.45 L-9.6 -41.15 -9.7 -40.3 -9.25 -39.0 -9.85 -36.5 -9.85 -36.45 -10.45 -36.95 -10.75 -38.45 M-8.65 -37.65 L-8.8 -36.5 -9.15 -35.55 -9.45 -35.85 -9.35 -36.5 -8.8 -37.95 -8.65 -37.65" fill="url(#gradient52)" fill-rule="evenodd" stroke="none"/>
    <path d="M-11.45 -36.3 L-11.45 -36.45 -11.4 -36.5 -10.75 -38.45 -10.45 -36.95 -9.85 -36.45 -10.45 -33.7 Q-10.95 -33.8 -11.4 -35.15 L-11.45 -36.3 M-9.15 -35.55 L-9.7 -33.2 -10.05 -33.45 -9.45 -35.85 -9.15 -35.55 M-8.4 -32.9 L-8.4 -32.85 -8.65 -32.85 -8.5 -33.2 -8.4 -32.9" fill="url(#gradient53)" fill-rule="evenodd" stroke="none"/>
    <path d="M-12.05 -34.9 L-11.45 -36.3 -11.4 -35.15 Q-10.95 -33.8 -10.45 -33.7 L-10.8 -31.45 -10.85 -31.35 Q-11.0 -31.2 -12.2 -32.75 L-12.1 -34.75 -12.05 -34.9 M-9.7 -33.2 L-10.1 -31.2 -10.5 -31.4 -10.05 -33.45 -9.7 -33.2 M-8.65 -32.85 L-8.4 -32.85 -8.5 -32.5 -8.6 -31.2 -9.25 -31.05 -8.65 -32.85" fill="url(#gradient54)" fill-rule="evenodd" stroke="none"/>
    <path d="M-12.2 -34.75 L-12.05 -34.9 -12.1 -34.75 -12.2 -34.75" fill="url(#gradient55)" fill-rule="evenodd" stroke="none"/>
    <path d="M-8.8 -29.3 L-9.8 -28.8 -9.25 -31.05 -8.6 -31.2 -8.75 -29.7 -8.8 -29.35 -8.8 -29.3 M-10.6 -28.5 L-11.15 -28.65 -10.5 -31.4 -10.1 -31.2 -10.6 -28.5 M-11.4 -28.75 L-12.85 -29.05 Q-14.6 -30.25 -15.4 -30.2 L-15.9 -30.95 -15.8 -31.2 -12.2 -34.75 -12.1 -34.75 -12.2 -32.75 Q-11.0 -31.2 -10.85 -31.35 L-11.4 -28.75" fill="url(#gradient56)" fill-rule="evenodd" stroke="none"/>
    <path d="M-8.4 -32.9 L-8.5 -33.2 -8.1 -34.35 -8.4 -32.9" fill="url(#gradient57)" fill-rule="evenodd" stroke="none"/>
    <path d="M0.35 -49.55 L-5.35 -34.5 -8.75 -29.7 -8.6 -31.2 -8.5 -32.5 -8.4 -32.85 -8.4 -32.9 -8.1 -34.35 -7.35 -36.5 Q-7.05 -39.2 -2.25 -47.2 L0.35 -49.55 M-6.0 -32.75 L-6.8 -30.4 -8.4 -25.9 -6.35 -29.55 -6.6 -27.9 -8.25 -19.95 -8.5 -15.85 -8.6 -15.8 -9.05 -10.5 -9.45 -20.2 -8.8 -29.3 -8.8 -29.35 -6.0 -32.75" fill="url(#gradient58)" fill-rule="evenodd" stroke="none"/>
    <path d="M-5.95 -19.8 L-7.55 -22.45 -5.7 -24.7 -5.95 -19.8 M-3.1 -22.3 L-3.1 -21.9 -4.5 -19.5 -3.95 -22.45 -3.1 -22.3" fill="url(#gradient59)" fill-rule="evenodd" stroke="none"/>
    <path d="M-4.7 -17.5 L-4.55 -18.9 -4.55 -19.15 -4.5 -19.15 -4.4 -18.9 -4.4 -17.5 -4.7 -17.5" fill="url(#gradient60)" fill-rule="evenodd" stroke="none"/>
    <path d="M-4.5 -19.15 L-4.55 -19.15 -4.5 -19.25 -4.5 -19.15 M-5.15 -11.45 L-5.2 -11.2 -5.2 -11.45 -5.15 -11.45" fill="url(#gradient61)" fill-rule="evenodd" stroke="none"/>
  </g>
  <defs>
    <radialGradient cx="0" cy="0" gradientTransform="matrix(0.0249, 0.0, 0.0, 0.0249, 1.4, -49.05)" gradientUnits="userSpaceOnUse" id="gradient0" r="819.2" spreadMethod="pad">
      <stop offset="0.0" stop-color="#7d71a0"/>
      <stop offset="1.0" stop-color="#665d83"/>
    </radialGradient>
    <radialGradient cx="0" cy="0" gradientTransform="matrix(0.0259, 0.0, 0.0, 0.0259, -3.55, -51.2)" gradientUnits="userSpaceOnUse" id="gradient1" r="819.2" spreadMethod="pad">
      <stop offset="0.0" stop-color="#7e72a2"/>
      <stop offset="1.0" stop-color="#514968"/>
    </radialGradient>
    <radialGradient cx="0" cy="0" gradientTransform="matrix(0.0105, 0.0, 0.0, 0.0105, -1.2, -53.2)" gradientUnits="userSpaceOnUse" id="gradient2" r="819.2" spreadMethod="pad">
      <stop offset="0.0" stop-color="#7e72a2"/>
      <stop offset="1.0" stop-color="#48415c"/>
    </radialGradient>
    <radialGradient cx="0" cy="0" gradientTransform="matrix(0.0152, 0.0, 0.0, 0.0152, 10.35, -52.05)" gradientUnits="userSpaceOnUse" id="gradient3" r="819.2" spreadMethod="pad">
      <stop offset="0.0" stop-color="#7c719f"/>
      <stop offset="1.0" stop-color="#4d4663"/>
    </radialGradient>
    <radialGradient cx="0" cy="0" gradientTransform="matrix(0.0345, 0.0, 0.0, 0.0345, 5.65, -53.55)" gradientUnits="userSpaceOnUse" id="gradient4" r="819.2" spreadMethod="pad">
      <stop offset="0.0" stop-color="#7d71a0"/>
      <stop offset="1.0" stop-color="#4b4460"/>
    </radialGradient>
    <radialGradient cx="0" cy="0" gradientTransform="matrix(0.0192, 0.0, 0.0, 0.0192, 10.1, -42.7)" gradientUnits="userSpaceOnUse" id="gradient5" r="819.2" spreadMethod="pad">
      <stop offset="0.0" stop-color="#8175a5"/>
      <stop offset="1.0" stop-color="#4a435f"/>
    </radialGradient>
    <radialGradient cx="0" cy="0" gradientTransform="matrix(0.0242, 0.0, 0.0, 0.0242, 6.55, -47.5)" gradientUnits="userSpaceOnUse" id="gradient6" r="819.2" spreadMethod="pad">
      <stop offset="0.0" stop-color="#7e72a1"/>
      <stop offset="1.0" stop-color="#48415d"/>
    </radialGradient>
    <radialGradient cx="0" cy="0" gradientTransform="matrix(0.0378, 0.0, 0.0, 0.0378, -0.05, -54.95)" gradientUnits="userSpaceOnUse" id="gradient7" r="819.2" spreadMethod="pad">
      <stop offset="0.0" stop-color="#7c709e"/>
      <stop offset="1.0" stop-color="#48415c"/>
    </radialGradient>
    <radialGradient cx="0" cy="0" gradientTransform="matrix(0.042, 0.0, 0.0, 0.042, 1.55, -53.1)" gradientUnits="userSpaceOnUse" id="gradient8" r="819.2" spreadMethod="pad">
      <stop offset="0.0" stop-color="#7a6f9d"/>
      <stop offset="1.0" stop-color="#514967"/>
    </radialGradient>
    <radialGradient cx="0" cy="0" gradientTransform="matrix(0.0093, 0.0, 0.0, 0.0093, 3.25, -55.9)" gradientUnits="userSpaceOnUse" id="gradient9" r="819.2" spreadMethod="pad">
      <stop offset="0.0" stop-color="#6a6088"/>
      <stop offset="1.0" stop-color="#3e384f"/>
    </radialGradient>
    <radialGradient cx="0" cy="0" gradientTransform="matrix(0.015, 0.0, 0.0, 0.015, 9.4, -54.9)" gradientUnits="userSpaceOnUse" id="gradient10" r="819.2" spreadMethod="pad">
      <stop offset="0.0" stop-color="#7c719f"/>
      <stop offset="1.0" stop-color="#49425e"/>
    </radialGradient>
    <radialGradient cx="0" cy="0" gradientTransform="matrix(0.0161, 0.0, 0.0, 0.0161, 8.4, -55.9)" gradientUnits="userSpaceOnUse" id="gradient11" r="819.2" spreadMethod="pad">
      <stop offset="0.0" stop-color="#746994"/>
      <stop offset="1.0" stop-color="#4a435f"/>
    </radialGradient>
    <radialGradient cx="0" cy="0" gradientTransform="matrix(0.002, 0.0, 0.0, 0.002, 7.2, -48.85)" gradientUnits="userSpaceOnUse" id="gradient12" r="819.2" spreadMethod="pad">
      <stop offset="0.0" stop-color="#733e0e"/>
      <stop offset="1.0" stop-color="#733e0e"/>
    </radialGradient>
    <radialGradient cx="0" cy="0" gradientTransform="matrix(0.005, 0.0, 0.0, 0.005, 5.0, -46.95)" gradientUnits="userSpaceOnUse" id="gradient13" r="819.2" spreadMethod="pad">
      <stop offset="0.0" stop-color="#ca9254"/>
      <stop offset="1.0" stop-color="#a67844"/>
    </radialGradient>
    <radialGradient cx="0" cy="0" gradientTransform="matrix(0.0114, 0.0, 0.0, 0.0114, 2.9, -40.45)" gradientUnits="userSpaceOnUse" id="gradient14" r="819.2" spreadMethod="pad">
      <stop offset="0.0" stop-color="#344b6c"/>
      <stop offset="1.0" stop-color="#233349"/>
    </radialGradient>
    <radialGradient cx="0" cy="0" gradientTransform="matrix(0.0145, 0.0, 0.0, 0.0145, 6.7, -37.8)" gradientUnits="userSpaceOnUse" id="gradient15" r="819.2" spreadMethod="pad">
      <stop offset="0.0" stop-color="#364d6f"/>
      <stop offset="1.0" stop-color="#233349"/>
    </radialGradient>
    <radialGradient cx="0" cy="0" gradientTransform="matrix(0.0014, 0.0, 0.0, 0.0014, 10.05, -41.5)" gradientUnits="userSpaceOnUse" id="gradient16" r="819.2" spreadMethod="pad">
      <stop offset="0.0" stop-color="#0e181e"/>
      <stop offset="1.0" stop-color="#0e181e"/>
    </radialGradient>
    <radialGradient cx="0" cy="0" gradientTransform="matrix(0.0025, 0.0, 0.0, 0.0025, 7.5, -46.75)" gradientUnits="userSpaceOnUse" id="gradient17" r="819.2" spreadMethod="pad">
      <stop offset="0.0" stop-color="#ffd200"/>
      <stop offset="1.0" stop-color="#ea7600"/>
    </radialGradient>
    <radialGradient cx="0" cy="0" gradientTransform="matrix(0.01, 0.0, 0.0, 0.01, 5.45, -41.95)" gradientUnits="userSpaceOnUse" id="gradient18" r="819.2" spreadMethod="pad">
      <stop offset="0.0" stop-color="#6b3a0d"/>
      <stop offset="1.0" stop-color="#3f2207"/>
    </radialGradient>
    <radialGradient cx="0" cy="0" gradientTransform="matrix(0.0023, 0.0, 0.0, 0.0023, 3.85, -48.45)" gradientUnits="userSpaceOnUse" id="gradient19" r="819.2" spreadMethod="pad">
      <stop offset="0.0" stop-color="#ffbb6b"/>
      <stop offset="1.0" stop-color="#f0ad63"/>
    </radialGradient>
    <radialGradient cx="0" cy="0" gradientTransform="matrix(0.0021, 0.0, 0.0, 0.0021, 4.3, -46.8)" gradientUnits="userSpaceOnUse" id="gradient20" r="819.2" spreadMethod="pad">
      <stop offset="0.0" stop-color="#f2af64"/>
      <stop offset="1.0" stop-color="#f2af64"/>
    </radialGradient>
    <radialGradient cx="0" cy="0" gradientTransform="matrix(0.0475, 0.0, 0.0, 0.0475, 2.7, -48.05)" gradientUnits="userSpaceOnUse" id="gradient21" r="819.2" spreadMethod="pad">
      <stop offset="0.0" stop-color="#7a6e9c"/>
      <stop offset="1.0" stop-color="#4d4562"/>
    </radialGradient>
    <radialGradient cx="0" cy="0" gradientTransform="matrix(0.0033, 0.0, 0.0, 0.0033, 6.05, -44.2)" gradientUnits="userSpaceOnUse" id="gradient22" r="819.2" spreadMethod="pad">
      <stop offset="0.0" stop-color="#ffffe3"/>
      <stop offset="1.0" stop-color="#a79e83"/>
    </radialGradient>
    <radialGradient cx="0" cy="0" gradientTransform="matrix(0.0052, 0.0, 0.0, 0.0052, 2.6, -42.2)" gradientUnits="userSpaceOnUse" id="gradient23" r="819.2" spreadMethod="pad">
      <stop offset="0.0" stop-color="#fffbd1"/>
      <stop offset="1.0" stop-color="#746e5b"/>
    </radialGradient>
    <radialGradient cx="0" cy="0" gradientTransform="matrix(0.0034, 0.0, 0.0, 0.0034, 7.05, -43.2)" gradientUnits="userSpaceOnUse" id="gradient24" r="819.2" spreadMethod="pad">
      <stop offset="0.0" stop-color="#17212f"/>
      <stop offset="1.0" stop-color="#141d2a"/>
    </radialGradient>
    <radialGradient cx="0" cy="0" gradientTransform="matrix(0.0012, 0.0, 0.0, 0.0012, 7.35, -43.75)" gradientUnits="userSpaceOnUse" id="gradient25" r="819.2" spreadMethod="pad">
      <stop offset="0.0" stop-color="#06090d"/>
      <stop offset="1.0" stop-color="#06090d"/>
    </radialGradient>
    <radialGradient cx="0" cy="0" gradientTransform="matrix(0.01, 0.0, 0.0, 0.01, 5.05, -42.35)" gradientUnits="userSpaceOnUse" id="gradient26" r="819.2" spreadMethod="pad">
      <stop offset="0.0" stop-color="#77ccfe"/>
      <stop offset="1.0" stop-color="#5694b9"/>
    </radialGradient>
    <radialGradient cx="0" cy="0" gradientTransform="matrix(0.0012, 0.0, 0.0, 0.0012, 8.15, -44.45)" gradientUnits="userSpaceOnUse" id="gradient27" r="819.2" spreadMethod="pad">
      <stop offset="0.0" stop-color="#ff8c00"/>
      <stop offset="1.0" stop-color="#f77c00"/>
    </radialGradient>
    <radialGradient cx="0" cy="0" gradientTransform="matrix(0.0012, 0.0, 0.0, 0.0012, 4.65, -46.8)" gradientUnits="userSpaceOnUse" id="gradient28" r="819.2" spreadMethod="pad">
      <stop offset="0.0" stop-color="#192433"/>
      <stop offset="1.0" stop-color="#192433"/>
    </radialGradient>
    <radialGradient cx="0" cy="0" gradientTransform="matrix(0.0026, 0.0, 0.0, 0.0026, 4.35, -46.6)" gradientUnits="userSpaceOnUse" id="gradient29" r="819.2" spreadMethod="pad">
      <stop offset="0.0" stop-color="#06090d"/>
      <stop offset="1.0" stop-color="#06090d"/>
    </radialGradient>
    <radialGradient cx="0" cy="0" gradientTransform="matrix(0.0021, 0.0, 0.0, 0.0021, 2.85, -45.9)" gradientUnits="userSpaceOnUse" id="gradient30" r="819.2" spreadMethod="pad">
      <stop offset="0.0" stop-color="#db9e5a"/>
      <stop offset="1.0" stop-color="#b6844b"/>
    </radialGradient>
    <radialGradient cx="0" cy="0" gradientTransform="matrix(0.0011, 0.0, 0.0, 0.0011, 3.65, -45.15)" gradientUnits="userSpaceOnUse" id="gradient31" r="819.2" spreadMethod="pad">
      <stop offset="0.0" stop-color="#06090d"/>
      <stop offset="1.0" stop-color="#06090d"/>
    </radialGradient>
    <radialGradient cx="0" cy="0" gradientTransform="matrix(0.0048, 0.0, 0.0, 0.0048, 2.25, -42.95)" gradientUnits="userSpaceOnUse" id="gradient32" r="819.2" spreadMethod="pad">
      <stop offset="0.0" stop-color="#293b54"/>
      <stop offset="1.0" stop-color="#1e2b3e"/>
    </radialGradient>
    <radialGradient cx="0" cy="0" gradientTransform="matrix(0.032, 0.0, 0.0, 0.032, 3.3, -49.25)" gradientUnits="userSpaceOnUse" id="gradient33" r="819.2" spreadMethod="pad">
      <stop offset="0.0" stop-color="#7d71a0"/>
      <stop offset="1.0" stop-color="#645a80"/>
    </radialGradient>
    <radialGradient cx="0" cy="0" gradientTransform="matrix(0.0069, 0.0, 0.0, 0.0069, -0.55, -32.6)" gradientUnits="userSpaceOnUse" id="gradient34" r="819.2" spreadMethod="pad">
      <stop offset="0.0" stop-color="#cfc3a2"/>
      <stop offset="1.0" stop-color="#a69d82"/>
    </radialGradient>
    <radialGradient cx="0" cy="0" gradientTransform="matrix(0.0131, 0.0, 0.0, 0.0131, 4.1, -27.0)" gradientUnits="userSpaceOnUse" id="gradient35" r="819.2" spreadMethod="pad">
      <stop offset="0.0" stop-color="#385174"/>
      <stop offset="1.0" stop-color="#2e4360"/>
    </radialGradient>
    <radialGradient cx="0" cy="0" gradientTransform="matrix(0.0061, 0.0, 0.0, 0.0061, 9.1, -26.95)" gradientUnits="userSpaceOnUse" id="gradient36" r="819.2" spreadMethod="pad">
      <stop offset="0.0" stop-color="#65add7"/>
      <stop offset="1.0" stop-color="#4c82a3"/>
    </radialGradient>
    <radialGradient cx="0" cy="0" gradientTransform="matrix(0.0166, 0.0, 0.0, 0.0166, 5.85, -26.5)" gradientUnits="userSpaceOnUse" id="gradient37" r="819.2" spreadMethod="pad">
      <stop offset="0.0" stop-color="#71c2f1"/>
      <stop offset="1.0" stop-color="#5999be"/>
    </radialGradient>
    <radialGradient cx="0" cy="0" gradientTransform="matrix(0.0053, 0.0, 0.0, 0.0053, 11.05, -19.1)" gradientUnits="userSpaceOnUse" id="gradient38" r="819.2" spreadMethod="pad">
      <stop offset="0.0" stop-color="#65add7"/>
      <stop offset="1.0" stop-color="#457895"/>
    </radialGradient>
    <radialGradient cx="0" cy="0" gradientTransform="matrix(0.0072, 0.0, 0.0, 0.0072, 12.45, -16.15)" gradientUnits="userSpaceOnUse" id="gradient39" r="819.2" spreadMethod="pad">
      <stop offset="0.0" stop-color="#385073"/>
      <stop offset="1.0" stop-color="#25354d"/>
    </radialGradient>
    <radialGradient cx="0" cy="0" gradientTransform="matrix(0.0204, 0.0, 0.0, 0.0204, -2.15, -25.3)" gradientUnits="userSpaceOnUse" id="gradient40" r="819.2" spreadMethod="pad">
      <stop offset="0.0" stop-color="#bcb193"/>
      <stop offset="1.0" stop-color="#666050"/>
    </radialGradient>
    <radialGradient cx="0" cy="0" gradientTransform="matrix(0.0415, 0.0, 0.0, 0.0415, 0.2, 6.65)" gradientUnits="userSpaceOnUse" id="gradient41" r="819.2" spreadMethod="pad">
      <stop offset="0.0" stop-color="#334a6a"/>
      <stop offset="1.0" stop-color="#1d2a3d"/>
    </radialGradient>
    <radialGradient cx="0" cy="0" gradientTransform="matrix(0.0128, 0.0, 0.0, 0.0128, 8.7, -12.4)" gradientUnits="userSpaceOnUse" id="gradient42" r="819.2" spreadMethod="pad">
      <stop offset="0.0" stop-color="#28261f"/>
      <stop offset="1.0" stop-color="#1f1e19"/>
    </radialGradient>
    <radialGradient cx="0" cy="0" gradientTransform="matrix(0.0052, 0.0, 0.0, 0.0052, 11.05, -23.15)" gradientUnits="userSpaceOnUse" id="gradient43" r="819.2" spreadMethod="pad">
      <stop offset="0.0" stop-color="#2d415e"/>
      <stop offset="1.0" stop-color="#212f44"/>
    </radialGradient>
    <radialGradient cx="0" cy="0" gradientTransform="matrix(0.0253, 0.0, 0.0, 0.0253, -4.2, 9.65)" gradientUnits="userSpaceOnUse" id="gradient44" r="819.2" spreadMethod="pad">
      <stop offset="0.0" stop-color="#77cdff"/>
      <stop offset="1.0" stop-color="#3d6983"/>
    </radialGradient>
    <radialGradient cx="0" cy="0" gradientTransform="matrix(0.008, 0.0, 0.0, 0.008, -7.45, -45.5)" gradientUnits="userSpaceOnUse" id="gradient45" r="819.2" spreadMethod="pad">
      <stop offset="0.0" stop-color="#538fb2"/>
      <stop offset="1.0" stop-color="#33576d"/>
    </radialGradient>
    <radialGradient cx="0" cy="0" gradientTransform="matrix(0.0034, 0.0, 0.0, 0.0034, -52.15, -5.3)" gradientUnits="userSpaceOnUse" id="gradient46" r="819.2" spreadMethod="pad">
      <stop offset="0.0" stop-color="#867e69"/>
      <stop offset="1.0" stop-color="#857d68"/>
    </radialGradient>
    <radialGradient cx="0" cy="0" gradientTransform="matrix(0.0032, 0.0, 0.0, 0.0032, -52.25, -5.15)" gradientUnits="userSpaceOnUse" id="gradient47" r="819.2" spreadMethod="pad">
      <stop offset="0.0" stop-color="#3d2108"/>
      <stop offset="1.0" stop-color="#3d2108"/>
    </radialGradient>
    <radialGradient cx="0" cy="0" gradientTransform="matrix(0.055, 0.0, 0.0, 0.055, -52.1, -5.25)" gradientUnits="userSpaceOnUse" id="gradient48" r="819.2" spreadMethod="pad">
      <stop offset="0.0" stop-color="#361e07"/>
      <stop offset="1.0" stop-color="#190e03"/>
    </radialGradient>
    <radialGradient cx="0" cy="0" gradientTransform="matrix(0.0138, 0.0, 0.0, 0.0138, -51.1, -4.4)" gradientUnits="userSpaceOnUse" id="gradient49" r="819.2" spreadMethod="pad">
      <stop offset="0.0" stop-color="#fffed3"/>
      <stop offset="1.0" stop-color="#d7ceab"/>
    </radialGradient>
    <radialGradient cx="0" cy="0" gradientTransform="matrix(0.0712, 0.0, 0.0, 0.0712, -51.15, -4.4)" gradientUnits="userSpaceOnUse" id="gradient50" r="819.2" spreadMethod="pad">
      <stop offset="0.0" stop-color="#7b430f"/>
      <stop offset="1.0" stop-color="#522c0a"/>
    </radialGradient>
    <radialGradient cx="0" cy="0" gradientTransform="matrix(0.0132, 0.0, 0.0, 0.0132, -9.05, -38.55)" gradientUnits="userSpaceOnUse" id="gradient51" r="819.2" spreadMethod="pad">
      <stop offset="0.0" stop-color="#2d415d"/>
      <stop offset="1.0" stop-color="#1c293a"/>
    </radialGradient>
    <radialGradient cx="0" cy="0" gradientTransform="matrix(0.0052, 0.0, 0.0, 0.0052, -8.75, -37.8)" gradientUnits="userSpaceOnUse" id="gradient52" r="819.2" spreadMethod="pad">
      <stop offset="0.0" stop-color="#518bae"/>
      <stop offset="1.0" stop-color="#42728f"/>
    </radialGradient>
    <radialGradient cx="0" cy="0" gradientTransform="matrix(0.0043, 0.0, 0.0, 0.0043, -9.25, -35.75)" gradientUnits="userSpaceOnUse" id="gradient53" r="819.2" spreadMethod="pad">
      <stop offset="0.0" stop-color="#223146"/>
      <stop offset="1.0" stop-color="#1e2b3e"/>
    </radialGradient>
    <radialGradient cx="0" cy="0" gradientTransform="matrix(0.0047, 0.0, 0.0, 0.0047, -10.85, -34.05)" gradientUnits="userSpaceOnUse" id="gradient54" r="819.2" spreadMethod="pad">
      <stop offset="0.0" stop-color="#4e87a8"/>
      <stop offset="1.0" stop-color="#40708b"/>
    </radialGradient>
    <radialGradient cx="0" cy="0" gradientTransform="matrix(0.0036, 0.0, 0.0, 0.0036, -11.25, -37.25)" gradientUnits="userSpaceOnUse" id="gradient55" r="819.2" spreadMethod="pad">
      <stop offset="0.0" stop-color="#0e181e"/>
      <stop offset="1.0" stop-color="#0e181e"/>
    </radialGradient>
    <radialGradient cx="0" cy="0" gradientTransform="matrix(0.0083, 0.0, 0.0, 0.0083, -13.85, -29.4)" gradientUnits="userSpaceOnUse" id="gradient56" r="819.2" spreadMethod="pad">
      <stop offset="0.0" stop-color="#3a5378"/>
      <stop offset="1.0" stop-color="#202f43"/>
    </radialGradient>
    <radialGradient cx="0" cy="0" gradientTransform="matrix(0.0331, 0.0, 0.0, 0.0331, -5.7, -42.75)" gradientUnits="userSpaceOnUse" id="gradient57" r="819.2" spreadMethod="pad">
      <stop offset="0.0" stop-color="#574f70"/>
      <stop offset="1.0" stop-color="#4e4764"/>
    </radialGradient>
    <radialGradient cx="0" cy="0" gradientTransform="matrix(0.0489, 0.0, 0.0, 0.0489, -0.25, -49.7)" gradientUnits="userSpaceOnUse" id="gradient58" r="819.2" spreadMethod="pad">
      <stop offset="0.0" stop-color="#7d71a0"/>
      <stop offset="1.0" stop-color="#4c4561"/>
    </radialGradient>
    <radialGradient cx="0" cy="0" gradientTransform="matrix(0.0089, 0.0, 0.0, 0.0089, -5.35, -25.45)" gradientUnits="userSpaceOnUse" id="gradient59" r="819.2" spreadMethod="pad">
      <stop offset="0.0" stop-color="#a0977d"/>
      <stop offset="1.0" stop-color="#837b66"/>
    </radialGradient>
    <radialGradient cx="0" cy="0" gradientTransform="matrix(0.0032, 0.0, 0.0, 0.0032, -5.55, -19.15)" gradientUnits="userSpaceOnUse" id="gradient60" r="819.2" spreadMethod="pad">
      <stop offset="0.0" stop-color="#7a7360"/>
      <stop offset="1.0" stop-color="#434035"/>
    </radialGradient>
    <radialGradient cx="0" cy="0" gradientTransform="matrix(0.0212, 0.0, 0.0, 0.0212, -4.6, -20.9)" gradientUnits="userSpaceOnUse" id="gradient61" r="819.2" spreadMethod="pad">
      <stop offset="0.0" stop-color="#06090d"/>
      <stop offset="1.0" stop-color="#06090d"/>
    </radialGradient>
  </defs>
</svg>
