<?xml version="1.0" encoding="UTF-8" standalone="no"?>
<svg xmlns:ffdec="https://www.free-decompiler.com/flash" xmlns:xlink="http://www.w3.org/1999/xlink" ffdec:objectType="shape" height="75.1px" width="53.95px" xmlns="http://www.w3.org/2000/svg">
  <g transform="matrix(1.0, 0.0, 0.0, 1.0, 26.95, 37.55)">
    <path d="M-6.9 -25.75 L-8.9 -27.4 -10.2 -27.65 -10.75 -28.25 -10.7 -28.3 Q-7.05 -27.65 -6.9 -25.75" fill="url(#gradient0)" fill-rule="evenodd" stroke="none"/>
    <path d="M-10.2 -27.65 L-8.9 -27.4 -6.9 -25.75 -6.4 -25.25 -6.25 -24.25 -6.3 -24.15 -6.95 -24.7 -7.7 -23.85 -8.75 -24.6 Q-9.45 -25.15 -9.65 -25.9 L-9.65 -26.05 -9.7 -26.25 -10.1 -27.05 -10.55 -27.45 -10.2 -27.65" fill="url(#gradient1)" fill-rule="evenodd" stroke="none"/>
    <path d="M-10.7 -28.3 L-10.75 -28.25 -10.2 -27.65 -10.55 -27.45 -11.45 -27.3 -14.3 -27.8 Q-18.35 -25.85 -19.3 -25.15 -18.9 -26.35 -18.3 -26.7 L-14.6 -28.7 Q-12.2 -29.6 -10.7 -28.3 M-22.8 -8.35 L-23.05 -7.75 -23.1 -8.15 -22.75 -10.3 -22.7 -10.05 -22.75 -8.45 -22.8 -8.35 M-21.85 -16.85 L-21.9 -16.9 -21.85 -17.0 -21.75 -17.0 -21.85 -16.85" fill="url(#gradient2)" fill-rule="evenodd" stroke="none"/>
    <path d="M-9.7 -26.25 L-9.65 -26.05 -9.65 -25.9 -9.9 -24.7 Q-16.15 -28.65 -23.45 -19.2 L-22.8 -20.6 -22.3 -21.25 -22.15 -21.35 -19.4 -24.75 -19.3 -25.15 Q-18.35 -25.85 -14.3 -27.8 L-11.45 -27.3 -10.45 -27.15 -9.7 -26.25 M-23.8 -18.45 L-24.05 -17.55 -24.25 -17.45 -23.8 -18.45 M-24.8 -16.0 L-25.2 -15.15 -25.25 -15.2 -24.6 -16.6 -24.5 -16.6 -24.6 -16.3 -24.8 -16.0" fill="url(#gradient3)" fill-rule="evenodd" stroke="none"/>
    <path d="M-10.55 -27.45 L-10.1 -27.05 -9.7 -26.25 -10.45 -27.15 -11.45 -27.3 -10.55 -27.45 M-9.65 -25.9 Q-9.45 -25.15 -8.75 -24.6 L-7.7 -23.85 -7.6 -23.6 -8.05 -23.75 -8.85 -23.65 -9.0 -22.55 -9.35 -22.95 -9.55 -23.95 -9.9 -24.7 -9.65 -25.9 M-16.3 -21.5 L-16.1 -21.55 -15.3 -21.0 -16.1 -20.65 -16.3 -21.5 M-12.1 -18.45 L-12.8 -17.85 -13.6 -18.0 -13.85 -18.2 -12.1 -18.45" fill="url(#gradient4)" fill-rule="evenodd" stroke="none"/>
    <path d="M-9.9 -24.7 L-9.55 -23.95 -9.35 -22.95 -10.3 -23.0 Q-10.25 -22.65 -13.95 -21.55 L-15.45 -21.7 -16.1 -21.55 -16.3 -21.5 -18.65 -20.75 -19.55 -20.5 -20.0 -20.4 -21.85 -18.9 -23.25 -17.85 -24.05 -17.55 -23.8 -18.45 -23.45 -19.2 Q-16.15 -28.65 -9.9 -24.7 M-24.05 -16.7 L-25.0 -15.0 -25.1 -15.05 -24.8 -16.0 -24.6 -16.3 -24.5 -16.6 -24.05 -16.7" fill="url(#gradient5)" fill-rule="evenodd" stroke="none"/>
    <path d="M-24.05 -17.55 L-23.25 -17.85 -22.0 -18.4 -20.85 -18.8 -19.7 -19.25 -16.1 -20.65 -15.3 -21.0 -13.95 -21.55 Q-10.25 -22.65 -10.3 -23.0 L-9.35 -22.95 -9.0 -22.55 -8.9 -22.15 -9.0 -22.05 -8.95 -21.15 -9.0 -20.45 -9.15 -20.25 -9.85 -20.35 -12.1 -18.45 -13.85 -18.2 -15.2 -18.05 -15.45 -18.0 -15.55 -18.0 -16.1 -17.9 -21.0 -17.15 -21.75 -17.0 -21.85 -17.0 -22.65 -16.9 -24.05 -16.7 -24.5 -16.6 -24.6 -16.6 -26.95 -16.25 -24.25 -17.45 -24.05 -17.55" fill="url(#gradient6)" fill-rule="evenodd" stroke="none"/>
    <path d="M-7.7 -23.85 L-6.95 -24.7 -6.3 -24.15 -6.25 -24.25 -5.45 -23.35 -5.2 -22.5 -5.5 -22.8 -5.6 -22.5 -6.3 -22.75 -6.9 -23.3 -7.6 -23.6 -7.7 -23.85" fill="url(#gradient7)" fill-rule="evenodd" stroke="none"/>
    <path d="M-9.0 -22.55 L-8.85 -23.65 -8.05 -23.75 -7.6 -23.6 -6.9 -23.3 -6.3 -22.75 -6.6 -22.7 -6.7 -22.45 -6.45 -19.95 -8.55 -20.65 Q-8.8 -20.65 -8.75 -22.05 L-8.9 -22.15 -9.0 -22.55 M-9.2 -19.25 L-9.15 -15.0 -9.65 -14.4 -9.85 -14.15 -10.3 -13.65 -11.5 -12.15 -11.8 -11.85 -14.15 -9.4 -15.85 -7.7 -14.65 -9.55 -12.75 -12.35 -12.65 -12.55 -12.0 -13.7 -11.3 -15.0 -10.05 -17.45 -9.6 -18.75 -9.2 -19.25" fill="url(#gradient8)" fill-rule="evenodd" stroke="none"/>
    <path d="M-6.3 -22.75 L-5.6 -22.5 -5.15 -22.3 -4.75 -21.85 -4.5 -21.25 -4.65 -19.15 -5.45 -17.85 -5.85 -17.15 -6.05 -16.85 -7.0 -15.65 -6.8 -16.3 Q-6.05 -19.85 -6.45 -19.95 L-6.7 -22.45 -6.6 -22.7 -6.3 -22.75 M-9.25 -14.35 L-9.45 -12.95 -10.75 -11.8 -11.15 -11.45 -13.5 -9.5 -11.5 -11.75 -11.2 -12.0 -10.0 -13.3 -9.25 -14.35" fill="url(#gradient9)" fill-rule="evenodd" stroke="none"/>
    <path d="M-5.6 -22.5 L-5.5 -22.8 -5.2 -22.5 -4.75 -22.2 -4.75 -21.85 -5.15 -22.3 -5.6 -22.5" fill="url(#gradient10)" fill-rule="evenodd" stroke="none"/>
    <path d="M19.7 -32.25 L19.45 -32.35 19.2 -32.75 Q19.05 -33.35 19.75 -35.05 L19.8 -36.1 19.7 -36.4 19.25 -36.75 Q15.8 -37.25 15.25 -33.3 L15.1 -33.3 14.95 -33.35 11.8 -33.5 Q10.45 -37.75 14.3 -37.1 12.25 -36.1 13.8 -34.4 16.15 -36.05 15.0 -37.2 15.7 -38.15 21.5 -36.6 L24.5 -33.95 26.45 -30.05 27.0 -25.3 26.45 -25.3 25.95 -24.9 24.55 -28.6 Q22.2 -31.9 19.7 -32.25 M21.85 -35.2 L20.7 -34.65 Q20.15 -34.2 20.25 -33.0 L20.35 -32.65 20.85 -32.55 21.7 -33.1 22.95 -34.35 23.15 -34.55 23.1 -34.95 22.55 -35.2 21.85 -35.2 M22.35 -32.35 L22.25 -31.4 Q26.4 -32.8 23.75 -33.25 22.85 -33.15 22.35 -32.35" fill="url(#gradient11)" fill-rule="evenodd" stroke="none"/>
    <path d="M15.25 -33.3 Q15.8 -37.25 19.25 -36.75 L19.7 -36.4 19.8 -36.1 19.75 -35.05 Q19.05 -33.35 19.2 -32.75 L19.45 -32.35 19.7 -32.25 19.15 -31.9 18.45 -31.65 Q17.3 -34.85 15.45 -32.7 L15.25 -33.3 M17.7 -36.5 Q15.55 -36.0 16.2 -34.3 17.65 -33.8 18.7 -35.05 19.55 -36.5 17.7 -36.5" fill="url(#gradient12)" fill-rule="evenodd" stroke="none"/>
    <path d="M21.85 -35.2 L22.55 -35.2 23.1 -34.95 23.15 -34.55 22.95 -34.35 21.7 -33.1 20.85 -32.55 20.35 -32.65 20.25 -33.0 Q20.15 -34.2 20.7 -34.65 L21.85 -35.2" fill="url(#gradient13)" fill-rule="evenodd" stroke="none"/>
    <path d="M15.0 -37.2 Q16.15 -36.05 13.8 -34.4 12.25 -36.1 14.3 -37.1 L15.0 -37.2" fill="url(#gradient14)" fill-rule="evenodd" stroke="none"/>
    <path d="M14.35 -30.15 L14.3 -30.55 14.5 -30.75 Q16.75 -30.85 17.1 -29.2 L17.0 -29.0 16.6 -28.9 Q16.5 -31.3 14.35 -30.15" fill="url(#gradient15)" fill-rule="evenodd" stroke="none"/>
    <path d="M15.45 -32.7 Q17.3 -34.85 18.45 -31.65 L17.1 -29.2 Q16.75 -30.85 14.5 -30.75 L15.45 -32.7" fill="url(#gradient16)" fill-rule="evenodd" stroke="none"/>
    <path d="M14.35 -30.15 Q16.5 -31.3 16.6 -28.9 L9.55 -15.85 9.15 -16.3 8.05 -16.9 7.4 -17.3 14.35 -30.15 M4.4 -11.95 L4.55 -12.15 4.9 -12.1 4.7 -12.45 4.8 -12.65 Q7.15 -14.0 7.15 -11.5 L6.35 -10.0 6.3 -9.9 6.2 -9.65 -1.7 4.8 -3.0 7.2 -3.1 7.4 -4.15 6.05 -5.2 5.45 -5.2 5.4 -2.85 1.2 3.35 -10.05 4.4 -11.95 M-9.15 12.75 Q-8.55 11.1 -7.8 11.3 L-7.75 10.3 Q-5.05 10.2 -5.15 11.2 L-12.05 23.85 -13.35 22.9 -14.5 22.55 -12.2 18.3 -9.15 12.75" fill="url(#gradient17)" fill-rule="evenodd" stroke="none"/>
    <path d="M22.35 -32.35 Q22.85 -33.15 23.75 -33.25 26.4 -32.8 22.25 -31.4 L22.35 -32.35" fill="url(#gradient18)" fill-rule="evenodd" stroke="none"/>
    <path d="M25.95 -24.9 L26.45 -25.3 27.0 -25.3 26.75 -24.85 26.05 -24.75 25.95 -24.9" fill="url(#gradient19)" fill-rule="evenodd" stroke="none"/>
    <path d="M17.7 -36.5 Q19.55 -36.5 18.7 -35.05 17.65 -33.8 16.2 -34.3 15.55 -36.0 17.7 -36.5" fill="url(#gradient20)" fill-rule="evenodd" stroke="none"/>
    <path d="M8.05 -16.9 L9.15 -16.3 9.55 -15.85 Q10.85 -13.65 8.3 -11.8 L7.15 -11.5 Q7.15 -14.0 4.8 -12.65 L4.4 -13.35 4.25 -14.55 4.25 -14.8 4.3 -14.95 4.3 -15.0 4.55 -15.6 5.4 -16.1 7.05 -15.7 7.85 -15.7 8.3 -16.05 8.4 -16.3 8.05 -16.9" fill="url(#gradient21)" fill-rule="evenodd" stroke="none"/>
    <path d="M4.55 -15.6 L4.55 -16.15 4.6 -16.3 5.4 -17.1 5.8 -17.35 6.5 -17.4 7.4 -17.3 8.05 -16.9 8.4 -16.3 8.3 -16.05 7.85 -15.7 7.05 -15.7 5.4 -16.1 4.55 -15.6" fill="url(#gradient22)" fill-rule="evenodd" stroke="none"/>
    <path d="M4.55 -16.15 L4.45 -16.2 4.45 -16.3 4.65 -17.65 6.05 -18.05 6.5 -17.4 5.8 -17.35 5.4 -17.1 4.6 -16.3 4.55 -16.15" fill="url(#gradient23)" fill-rule="evenodd" stroke="none"/>
    <path d="M4.45 -16.2 L4.55 -16.15 4.55 -15.6 4.3 -15.0 4.45 -16.2 M4.7 -12.45 L4.05 -13.5 4.25 -14.55 4.4 -13.35 4.8 -12.65 4.7 -12.45" fill="url(#gradient24)" fill-rule="evenodd" stroke="none"/>
    <path d="M4.45 -16.2 L4.3 -15.0 4.3 -14.95 4.25 -14.8 4.25 -14.55 4.05 -13.5 4.7 -12.45 4.9 -12.1 4.55 -12.15 4.4 -11.95 Q2.25 -14.15 3.0 -16.3 L3.15 -16.6 4.65 -17.65 4.45 -16.3 4.45 -16.2 M6.3 -9.9 L6.35 -10.0 6.45 -9.75 6.3 -9.9" fill="url(#gradient25)" fill-rule="evenodd" stroke="none"/>
    <path d="M3.15 -16.6 L3.0 -16.3 Q2.25 -14.15 4.4 -11.95 L3.35 -10.05 3.05 -9.95 Q-0.3 -11.45 0.4 -15.15 L3.15 -16.6" fill="url(#gradient26)" fill-rule="evenodd" stroke="none"/>
    <path d="M0.4 -15.15 Q-0.3 -11.45 3.05 -9.95 L-1.5 -8.25 -2.05 -8.3 -2.2 -8.6 -2.0 -8.65 -1.7 -8.8 -2.05 -8.9 -2.15 -9.0 -2.45 -9.5 -2.5 -10.5 -2.3 -12.15 -2.3 -12.8 -1.65 -14.2 0.4 -15.15" fill="url(#gradient27)" fill-rule="evenodd" stroke="none"/>
    <path d="M7.15 -11.5 L8.3 -11.8 8.45 -10.6 7.8 -9.45 7.4 -8.1 7.35 -8.0 7.15 -8.2 7.15 -8.3 6.45 -9.75 6.35 -10.0 7.15 -11.5" fill="url(#gradient28)" fill-rule="evenodd" stroke="none"/>
    <path d="M-5.85 -17.15 L-5.45 -17.85 -1.65 -14.2 -2.3 -12.8 -3.3 -14.55 -4.9 -16.3 -5.75 -16.9 -5.85 -17.15 M-2.5 -10.5 L-2.45 -9.5 -2.75 -8.95 -2.9 -8.25 -3.05 -8.2 -3.35 -8.15 -3.4 -8.2 -3.8 -8.25 -2.85 -9.6 -2.5 -10.5 M-2.05 -8.9 L-1.7 -8.8 -2.0 -8.65 -2.05 -8.85 -2.05 -8.9" fill="url(#gradient29)" fill-rule="evenodd" stroke="none"/>
    <path d="M-7.0 -15.65 L-6.05 -16.85 -5.65 -16.7 -5.75 -16.9 -4.9 -16.3 -3.3 -14.55 -2.3 -12.8 -2.3 -12.15 -2.5 -10.5 -2.85 -9.6 -3.8 -8.25 -4.15 -7.8 -4.6 -7.05 -4.75 -6.6 -4.8 -5.55 -5.25 -4.65 -5.45 -4.4 -5.45 -4.35 -6.1 -3.5 -7.2 -2.9 -7.25 -2.9 -7.3 -2.9 -7.3 -2.85 -7.35 -2.85 -7.4 -2.8 -7.95 -2.65 -8.0 -2.6 -8.2 -2.6 -8.3 -2.55 -9.9 -2.45 Q-11.3 -3.15 -13.65 -3.3 L-12.85 -7.3 -13.4 -9.05 -12.1 -8.45 -10.25 -8.25 -10.65 -6.5 -10.45 -6.65 -8.55 -11.05 -8.1 -11.1 -8.0 -11.4 -7.6 -11.75 -7.25 -13.0 -7.0 -13.3 -6.95 -13.95 -6.9 -14.25 -7.1 -14.5 -7.25 -14.7 -7.0 -15.65 M-9.65 -11.35 L-10.25 -8.45 Q-11.15 -10.0 -10.0 -10.2 L-10.1 -10.55 -11.15 -11.45 -10.75 -11.8 -10.35 -11.7 -9.65 -11.35 M-17.65 -14.55 L-17.85 -14.45 -17.75 -14.65 -17.65 -14.55 M-18.25 -13.9 L-17.35 -14.25 -17.25 -13.9 Q-14.8 -13.0 -13.95 -13.15 L-12.65 -12.55 -12.75 -12.35 -16.5 -13.5 -18.35 -13.65 -18.25 -13.9 M-11.5 -12.15 L-11.2 -12.0 -11.5 -11.75 -11.8 -11.85 -11.5 -12.15 M-8.45 -1.1 L-8.6 -0.8 -8.75 -0.8 -8.9 -1.1 -8.45 -1.1 M-9.35 -1.1 Q-9.6 -0.35 -11.4 -1.35 L-9.35 -1.1" fill="url(#gradient30)" fill-rule="evenodd" stroke="none"/>
    <path d="M-6.05 -16.85 L-5.85 -17.15 -5.75 -16.9 -5.65 -16.7 -6.05 -16.85" fill="url(#gradient31)" fill-rule="evenodd" stroke="none"/>
    <path d="M-8.9 -22.15 L-8.75 -22.05 -9.0 -22.05 -8.9 -22.15 M-9.15 -20.25 L-9.2 -19.25 -9.6 -18.75 -10.05 -17.45 -13.0 -16.0 -14.0 -15.55 -15.05 -15.1 -17.35 -14.25 -18.25 -13.9 -19.15 -13.7 -18.25 -14.25 -17.85 -14.45 -17.65 -14.55 -15.7 -15.75 -15.3 -16.05 -13.9 -17.1 -13.5 -17.35 -12.8 -17.85 -12.1 -18.45 -9.85 -20.35 -9.15 -20.25 M-19.15 -13.6 L-19.35 -13.55 -19.35 -13.6 -19.15 -13.6" fill="url(#gradient32)" fill-rule="evenodd" stroke="none"/>
    <path d="M-6.45 -19.95 Q-6.05 -19.85 -6.8 -16.3 L-7.0 -15.65 -7.25 -14.7 -7.45 -14.05 -8.4 -11.5 -8.55 -11.05 -10.45 -6.65 -10.65 -6.5 -10.25 -8.25 -10.25 -8.45 -9.65 -11.35 -9.6 -11.55 -9.45 -12.95 -9.25 -14.35 -9.25 -14.4 -9.15 -15.0 -9.2 -19.25 -9.15 -20.25 -9.0 -20.45 -8.95 -21.15 -9.0 -22.05 -8.75 -22.05 Q-8.8 -20.65 -8.55 -20.65 L-6.45 -19.95" fill="url(#gradient33)" fill-rule="evenodd" stroke="none"/>
    <path d="M-7.45 -14.05 L-7.25 -14.7 -7.1 -14.5 -7.25 -14.35 -6.95 -13.95 -7.0 -13.3 -7.25 -13.0 -7.2 -13.3 -7.45 -14.05" fill="url(#gradient34)" fill-rule="evenodd" stroke="none"/>
    <path d="M-6.95 -13.95 L-7.25 -14.35 -7.1 -14.5 -6.9 -14.25 -6.95 -13.95" fill="url(#gradient35)" fill-rule="evenodd" stroke="none"/>
    <path d="M-9.25 -14.4 L-9.25 -14.35 -10.0 -13.3 -11.2 -12.0 -11.5 -12.15 -10.3 -13.65 -9.8 -13.9 -9.85 -14.15 -9.65 -14.4 -9.25 -14.4 M-9.45 -12.95 L-9.6 -11.55 -10.35 -11.7 -10.75 -11.8 -9.45 -12.95 M-8.4 -11.5 L-7.45 -14.05 -7.2 -13.3 -7.25 -13.0 -7.6 -11.75 -8.0 -11.4 -8.4 -11.5 M-15.7 -15.75 L-17.65 -14.55 -17.75 -14.65 -17.7 -15.4 -17.35 -16.3 -16.85 -17.15 -16.1 -17.9 -15.55 -18.0 -15.95 -17.25 -15.85 -16.85 -15.55 -17.5 -15.45 -17.1 -15.55 -17.0 -15.6 -16.7 -15.6 -16.3 -15.9 -16.8 -15.95 -16.3 -15.7 -15.75 M-17.35 -14.25 L-15.05 -15.1 Q-14.95 -14.75 -13.45 -14.05 L-12.0 -13.7 -12.65 -12.55 -13.95 -13.15 Q-14.8 -13.0 -17.25 -13.9 L-17.35 -14.25" fill="url(#gradient36)" fill-rule="evenodd" stroke="none"/>
    <path d="M-15.3 -16.05 L-15.7 -15.75 -15.95 -16.3 -15.9 -16.8 -15.6 -16.3 -15.55 -16.25 -15.3 -16.05 M-15.05 -15.1 L-14.0 -15.55 -12.35 -15.5 -11.3 -15.0 -12.0 -13.7 -13.45 -14.05 Q-14.95 -14.75 -15.05 -15.1 M-10.3 -13.65 L-9.85 -14.15 -9.8 -13.9 -10.3 -13.65" fill="url(#gradient37)" fill-rule="evenodd" stroke="none"/>
    <path d="M-9.15 -15.0 L-9.25 -14.4 -9.65 -14.4 -9.15 -15.0 M-12.8 -17.85 L-13.5 -17.35 -13.6 -17.4 -13.6 -17.45 -13.65 -17.65 -13.75 -17.75 -13.85 -17.9 -13.6 -18.0 -12.8 -17.85 M-13.0 -16.0 L-10.05 -17.45 -11.3 -15.0 -12.35 -15.5 -13.0 -16.0" fill="url(#gradient38)" fill-rule="evenodd" stroke="none"/>
    <path d="M-9.6 -11.55 L-9.65 -11.35 -10.35 -11.7 -9.6 -11.55 M-8.55 -11.05 L-8.4 -11.5 -8.0 -11.4 -8.1 -11.1 -8.55 -11.05" fill="url(#gradient39)" fill-rule="evenodd" stroke="none"/>
    <path d="M-20.6 -10.2 L-20.65 -10.2 -19.8 -13.25 -19.35 -13.55 -19.15 -13.6 -18.35 -13.65 -16.5 -13.5 -12.75 -12.35 -14.65 -9.55 -17.25 -10.3 -19.4 -10.55 -20.15 -10.5 -20.35 -10.25 -20.6 -10.2 M-10.25 -8.45 L-10.25 -8.25 -12.1 -8.45 -13.4 -9.05 -14.15 -9.4 -11.8 -11.85 -11.5 -11.75 -13.5 -9.5 -11.15 -11.45 -10.1 -10.55 -10.0 -10.2 Q-11.15 -10.0 -10.25 -8.45" fill="url(#gradient40)" fill-rule="evenodd" stroke="none"/>
    <path d="M-2.45 -9.5 L-2.15 -9.0 -2.05 -8.85 -2.0 -8.65 -2.2 -8.6 -2.9 -8.25 -2.75 -8.95 -2.45 -9.5" fill="url(#gradient41)" fill-rule="evenodd" stroke="none"/>
    <path d="M-2.15 -9.0 L-2.05 -8.9 -2.05 -8.85 -2.15 -9.0" fill="url(#gradient42)" fill-rule="evenodd" stroke="none"/>
    <path d="M-2.2 -8.6 L-2.05 -8.3 -3.05 -8.2 -2.9 -8.25 -2.2 -8.6" fill="url(#gradient43)" fill-rule="evenodd" stroke="none"/>
    <path d="M-4.15 -7.8 L-4.5 -7.05 -4.6 -7.05 -4.15 -7.8" fill="url(#gradient44)" fill-rule="evenodd" stroke="none"/>
    <path d="M-4.5 -7.05 L-4.75 -6.6 -4.6 -7.05 -4.5 -7.05 M-5.45 -4.35 Q-5.85 -1.35 -8.45 -1.1 L-8.9 -1.1 -9.35 -1.1 -11.4 -1.35 -11.45 -1.4 -11.55 -1.45 -13.9 -2.3 -13.65 -3.3 Q-11.3 -3.15 -9.9 -2.45 L-8.3 -2.55 -8.2 -2.6 -8.0 -2.6 -7.95 -2.65 -7.4 -2.8 -7.35 -2.85 -7.3 -2.85 -7.3 -2.9 -7.2 -2.9 -6.1 -3.5 -5.45 -4.35" fill="url(#gradient45)" fill-rule="evenodd" stroke="none"/>
    <path d="M-5.25 -4.65 L-4.35 -1.75 Q-1.9 5.75 -10.55 3.65 L-11.9 3.35 -15.05 2.5 -13.9 -2.3 -11.55 -1.45 -11.45 -1.4 -11.4 -1.35 Q-9.6 -0.35 -9.35 -1.1 L-8.9 -1.1 -8.75 -0.8 -8.6 -0.8 -8.45 -1.1 Q-5.85 -1.35 -5.45 -4.35 L-5.45 -4.4 -5.25 -4.65 M-8.1 2.65 L-8.35 2.75 -8.2 2.8 -8.1 2.65" fill="url(#gradient46)" fill-rule="evenodd" stroke="none"/>
    <path d="M-7.3 -2.9 L-7.25 -2.9 -7.2 -2.9 -7.3 -2.9" fill="url(#gradient47)" fill-rule="evenodd" stroke="none"/>
    <path d="M-1.7 4.8 L-1.6 6.45 -2.7 7.2 -3.0 7.2 -1.7 4.8 M-4.35 -1.75 L-2.85 1.2 -5.2 5.4 -5.25 5.15 -5.45 5.05 -5.6 5.0 -5.65 5.0 -8.65 4.25 -10.55 3.65 Q-1.9 5.75 -4.35 -1.75" fill="url(#gradient48)" fill-rule="evenodd" stroke="none"/>
    <path d="M6.3 -9.9 L6.45 -9.75 7.15 -8.3 7.15 -8.2 6.2 -9.65 6.3 -9.9" fill="url(#gradient49)" fill-rule="evenodd" stroke="none"/>
    <path d="M-5.45 5.05 L-5.6 5.05 -5.6 5.0 -5.45 5.05 M-5.65 5.0 L-6.0 5.0 -6.45 4.9 -6.6 5.45 -7.75 10.3 -7.8 11.3 Q-8.55 11.1 -9.15 12.75 L-9.45 12.45 -10.55 10.7 -10.85 10.05 Q-10.85 8.45 -10.4 7.55 -10.5 7.0 -9.4 4.95 L-8.65 4.25 -5.65 5.0" fill="url(#gradient50)" fill-rule="evenodd" stroke="none"/>
    <path d="M-5.6 5.0 L-5.6 5.05 -5.45 5.05 -5.25 5.15 -5.2 5.4 -5.2 5.45 -6.6 5.45 -6.45 4.9 -6.0 5.0 -5.65 5.0 -5.6 5.0" fill="url(#gradient51)" fill-rule="evenodd" stroke="none"/>
    <path d="M-3.1 7.4 Q-2.45 9.4 -4.2 10.75 L-5.15 11.2 Q-5.05 10.2 -7.75 10.3 L-6.6 5.45 -5.2 5.45 -4.15 6.05 -3.1 7.4" fill="url(#gradient52)" fill-rule="evenodd" stroke="none"/>
    <path d="M-11.9 3.35 L-10.55 3.65 -8.65 4.25 -9.4 4.95 Q-10.5 7.0 -10.4 7.55 -10.85 8.45 -10.85 10.05 L-10.55 10.7 -14.1 9.45 -14.35 8.5 -14.15 7.55 Q-13.6 4.05 -11.9 3.35" fill="url(#gradient53)" fill-rule="evenodd" stroke="none"/>
    <path d="M-4.2 10.75 Q-3.9 18.45 -1.6 22.15 1.95 26.2 -2.4 31.4 -6.4 37.05 -16.25 31.75 L-16.1 31.4 -12.2 24.35 -12.05 23.85 -5.15 11.2 -4.2 10.75 M-16.45 18.2 L-16.25 17.0 -15.85 17.3 -14.65 17.5 -13.85 18.05 -12.2 18.3 -14.5 22.55 -14.9 22.95 -18.65 29.8 Q-22.85 26.25 -16.8 19.45 L-16.45 18.2 M-8.1 2.65 L-8.2 2.8 -8.35 2.75 -8.1 2.65 M-10.55 10.7 L-9.45 12.45 -10.9 15.05 Q-12.6 17.15 -14.35 17.4 L-15.85 15.85 -16.05 14.85 -15.85 13.25 -16.5 8.4 -14.1 9.45 -10.55 10.7" fill="url(#gradient54)" fill-rule="evenodd" stroke="none"/>
    <path d="M-9.45 12.45 L-9.15 12.75 -12.2 18.3 -13.85 18.05 -14.65 17.5 -14.35 17.45 -14.35 17.4 Q-12.6 17.15 -10.9 15.05 L-9.45 12.45" fill="url(#gradient55)" fill-rule="evenodd" stroke="none"/>
    <path d="M-21.85 -18.9 L-20.0 -20.4 -19.55 -20.5 -20.35 -19.75 -20.85 -18.8 -22.0 -18.4 -21.85 -18.9 M-16.1 -21.55 L-15.45 -21.7 -13.95 -21.55 -15.3 -21.0 -16.1 -21.55 M-21.9 -16.9 Q-25.7 -4.6 -22.65 -16.9 L-21.85 -17.0 -21.9 -16.9" fill="url(#gradient56)" fill-rule="evenodd" stroke="none"/>
    <path d="M-18.65 -20.75 L-16.3 -21.5 -16.1 -20.65 -19.7 -19.25 -18.65 -20.75 M-20.65 -10.2 L-21.85 -1.6 -21.6 8.05 -22.75 -0.2 -22.9 -4.35 -22.75 -4.4 -22.8 -5.05 -22.75 -8.35 -22.75 -8.45 -22.7 -10.05 -21.0 -17.15 -16.1 -17.9 -16.85 -17.15 -18.15 -16.05 -18.65 -15.45 -19.35 -13.6 -19.35 -13.55 -19.8 -13.25 -20.65 -10.2 M-15.2 -18.05 L-13.85 -18.2 -13.6 -18.0 -13.85 -17.9 -15.2 -18.05" fill="url(#gradient57)" fill-rule="evenodd" stroke="none"/>
    <path d="M-15.55 -18.0 L-15.45 -18.0 -15.55 -17.5 -15.85 -16.85 -15.95 -17.25 -15.55 -18.0 M-15.55 -17.0 L-15.45 -17.0 -15.45 -16.75 -15.6 -16.7 -15.55 -17.0" fill="url(#gradient58)" fill-rule="evenodd" stroke="none"/>
    <path d="M-15.45 -17.0 L-15.55 -17.0 -15.45 -17.1 -15.45 -17.0 M-15.4 -16.75 L-15.35 -16.75 -15.35 -16.35 -15.45 -16.4 -15.4 -16.75" fill="url(#gradient59)" fill-rule="evenodd" stroke="none"/>
    <path d="M-13.9 -17.1 L-15.3 -16.05 -15.55 -16.25 -15.45 -16.3 -15.45 -16.4 -15.35 -16.35 -15.35 -16.75 -15.4 -16.75 -15.45 -16.75 -15.45 -17.0 -15.45 -17.1 -15.55 -17.5 -15.45 -18.0 -15.2 -18.05 -13.85 -17.9 -13.75 -17.75 -13.75 -17.65 -13.9 -17.1 M-14.0 -15.55 L-13.0 -16.0 -12.35 -15.5 -14.0 -15.55" fill="url(#gradient60)" fill-rule="evenodd" stroke="none"/>
    <path d="M-15.6 -16.7 L-15.45 -16.75 -15.4 -16.75 -15.45 -16.4 -15.45 -16.3 -15.55 -16.25 -15.6 -16.3 -15.6 -16.7" fill="url(#gradient61)" fill-rule="evenodd" stroke="none"/>
    <path d="M-13.65 -17.65 L-13.75 -17.65 -13.75 -17.75 -13.65 -17.65" fill="url(#gradient62)" fill-rule="evenodd" stroke="none"/>
    <path d="M-13.5 -17.35 L-13.9 -17.1 -13.75 -17.65 -13.65 -17.65 -13.6 -17.45 -13.6 -17.4 -13.5 -17.35" fill="url(#gradient63)" fill-rule="evenodd" stroke="none"/>
    <path d="M-19.55 -20.5 L-18.65 -20.75 -19.7 -19.25 -20.85 -18.8 -20.35 -19.75 -19.55 -20.5 M-22.9 -4.35 L-22.8 -5.05 -22.75 -4.4 -22.9 -4.35 M-22.75 -8.35 L-22.8 -8.35 -22.75 -8.45 -22.75 -8.35 M-22.75 -10.3 L-22.65 -12.9 -22.15 -15.4 -22.1 -15.55 -22.1 -15.65 -22.05 -15.8 -22.05 -15.85 -22.0 -16.05 -22.0 -16.15 -21.95 -16.25 -21.95 -16.35 -21.85 -16.85 -21.75 -17.0 -21.0 -17.15 -22.7 -10.05 -22.75 -10.3" fill="url(#gradient64)" fill-rule="evenodd" stroke="none"/>
    <path d="M-17.85 -14.45 L-18.25 -14.25 -18.15 -16.05 -16.85 -17.15 -17.35 -16.3 -17.7 -15.4 -17.75 -14.65 -17.85 -14.45" fill="url(#gradient65)" fill-rule="evenodd" stroke="none"/>
    <path d="M-20.05 -9.3 L-20.5 -9.65 -20.6 -10.2 -20.35 -10.25 -20.15 -10.5 -19.4 -10.55 -20.05 -9.3" fill="url(#gradient66)" fill-rule="evenodd" stroke="none"/>
    <path d="M-21.25 2.0 L-21.2 -0.15 Q-20.2 -5.9 -20.35 -8.65 L-20.05 -9.3 -19.4 -10.55 -17.25 -10.3 -14.65 -9.55 -15.85 -7.7 -14.15 -9.4 -13.4 -9.05 -12.85 -7.3 -13.65 -3.3 -13.9 -2.3 -15.05 2.5 -15.2 2.45 Q-15.2 2.8 -16.55 3.4 L-18.55 3.1 Q-20.35 2.65 -21.25 2.0" fill="url(#gradient67)" fill-rule="evenodd" stroke="none"/>
    <path d="M-22.15 -21.35 L-22.3 -21.25 -22.7 -21.3 -22.15 -21.35" fill="url(#gradient68)" fill-rule="evenodd" stroke="none"/>
    <path d="M-18.5 7.6 L-19.85 6.9 -17.2 4.35 -16.55 3.4 Q-15.2 2.8 -15.2 2.45 L-15.05 2.5 -11.9 3.35 Q-13.6 4.05 -14.15 7.55 L-14.35 8.5 -14.1 9.45 -16.5 8.4 -16.7 8.3 -18.5 7.6" fill="url(#gradient69)" fill-rule="evenodd" stroke="none"/>
    <path d="M-19.85 6.9 L-21.25 2.0 Q-20.35 2.65 -18.55 3.1 L-16.55 3.4 -17.2 4.35 -19.85 6.9" fill="url(#gradient70)" fill-rule="evenodd" stroke="none"/>
    <path d="M-16.25 17.0 Q-19.8 12.9 -18.5 7.6 L-16.7 8.3 -16.7 11.85 -16.05 14.85 -15.85 15.85 -14.35 17.4 -14.35 17.45 -14.65 17.5 -15.85 17.3 -16.25 17.0" fill="url(#gradient71)" fill-rule="evenodd" stroke="none"/>
    <path d="M-17.8 34.65 L-18.05 35.0 -18.2 34.95 -18.25 34.9 -18.5 34.7 -18.8 34.45 -18.9 34.4 -19.0 34.35 -19.35 34.15 -20.35 33.65 -20.6 33.55 -20.65 33.55 -20.15 32.6 -18.65 29.8 -14.9 22.95 -14.5 22.55 -13.35 22.9 -12.05 23.85 -12.2 24.35 -16.1 31.4 -16.25 31.75 -17.8 34.65" fill="url(#gradient72)" fill-rule="evenodd" stroke="none"/>
    <path d="M-1.6 22.15 Q4.2 28.2 -1.4 34.85 -9.8 40.35 -17.8 34.65 L-16.25 31.75 Q-6.4 37.05 -2.4 31.4 1.95 26.2 -1.6 22.15 M-20.15 32.6 Q-26.7 23.35 -16.45 18.2 L-16.8 19.45 Q-22.85 26.25 -18.65 29.8 L-20.15 32.6" fill="url(#gradient73)" fill-rule="evenodd" stroke="none"/>
    <path d="M-18.05 35.0 L-18.3 35.0 -18.5 34.95 -18.55 34.9 -18.85 34.8 -18.9 34.7 -18.95 34.7 -19.0 34.65 -19.3 34.5 -19.35 34.15 -19.0 34.35 -18.95 34.5 -18.9 34.4 -18.8 34.45 -18.6 34.8 -18.5 34.7 -18.25 34.9 -18.2 34.95 -18.05 35.0 M-19.8 34.2 L-19.85 34.2 -19.8 34.2 M-20.15 34.0 L-20.25 33.95 -20.25 33.9 -20.3 33.85 -20.35 33.85 -20.55 33.75 -20.6 33.65 -20.6 33.55 -20.35 33.65 -19.85 33.95 -19.8 34.15 -20.1 34.0 -20.15 34.0 M-19.7 34.2 L-19.65 34.05 -19.5 34.2 -19.7 34.2" fill="url(#gradient74)" fill-rule="evenodd" stroke="none"/>
    <path d="M-19.3 34.5 L-19.55 34.4 -19.8 34.2 -19.85 34.2 -19.9 34.2 -20.1 34.05 -20.1 34.0 -19.8 34.15 -19.85 33.95 -20.35 33.65 -19.35 34.15 -19.3 34.5 M-20.65 33.65 L-20.65 33.55 -20.6 33.55 -20.6 33.65 -20.65 33.65 M-18.9 34.4 L-18.95 34.5 -19.0 34.35 -18.9 34.4 M-18.5 34.7 L-18.6 34.8 -18.8 34.45 -18.5 34.7 M-19.7 34.2 L-19.5 34.2 -19.65 34.05 -19.7 34.2" fill="url(#gradient75)" fill-rule="evenodd" stroke="none"/>
    <path d="M-19.85 34.2 L-19.9 34.2 -19.85 34.2 M-20.1 34.05 L-20.15 34.0 -20.1 34.0 -20.1 34.05 M-20.25 33.95 L-20.35 33.85 -20.3 33.85 -20.25 33.9 -20.25 33.95 M-20.55 33.75 L-20.65 33.65 -20.6 33.65 -20.55 33.75" fill="url(#gradient76)" fill-rule="evenodd" stroke="none"/>
  </g>
  <defs>
    <radialGradient cx="0" cy="0" gradientTransform="matrix(0.006, 0.0, 0.0, 0.006, -10.7, -26.05)" gradientUnits="userSpaceOnUse" id="gradient0" r="819.2" spreadMethod="pad">
      <stop offset="0.0" stop-color="#5a5273"/>
      <stop offset="1.0" stop-color="#524a68"/>
    </radialGradient>
    <radialGradient cx="0" cy="0" gradientTransform="matrix(0.0071, 0.0, 0.0, 0.0071, -9.2, -22.0)" gradientUnits="userSpaceOnUse" id="gradient1" r="819.2" spreadMethod="pad">
      <stop offset="0.0" stop-color="#776c98"/>
      <stop offset="1.0" stop-color="#4a435f"/>
    </radialGradient>
    <radialGradient cx="0" cy="0" gradientTransform="matrix(0.0252, 0.0, 0.0, 0.0252, -13.35, -25.85)" gradientUnits="userSpaceOnUse" id="gradient2" r="819.2" spreadMethod="pad">
      <stop offset="0.0" stop-color="#685e85"/>
      <stop offset="1.0" stop-color="#463f59"/>
    </radialGradient>
    <radialGradient cx="0" cy="0" gradientTransform="matrix(0.0204, 0.0, 0.0, 0.0204, -11.8, -24.5)" gradientUnits="userSpaceOnUse" id="gradient3" r="819.2" spreadMethod="pad">
      <stop offset="0.0" stop-color="#706690"/>
      <stop offset="1.0" stop-color="#373247"/>
    </radialGradient>
    <radialGradient cx="0" cy="0" gradientTransform="matrix(0.0079, 0.0, 0.0, 0.0079, -10.1, -22.95)" gradientUnits="userSpaceOnUse" id="gradient4" r="819.2" spreadMethod="pad">
      <stop offset="0.0" stop-color="#786d99"/>
      <stop offset="1.0" stop-color="#4d4662"/>
    </radialGradient>
    <radialGradient cx="0" cy="0" gradientTransform="matrix(0.0203, 0.0, 0.0, 0.0203, -11.75, -24.9)" gradientUnits="userSpaceOnUse" id="gradient5" r="819.2" spreadMethod="pad">
      <stop offset="0.0" stop-color="#716791"/>
      <stop offset="1.0" stop-color="#48415c"/>
    </radialGradient>
    <radialGradient cx="0" cy="0" gradientTransform="matrix(0.0222, 0.0, 0.0, 0.0222, -10.1, -22.5)" gradientUnits="userSpaceOnUse" id="gradient6" r="819.2" spreadMethod="pad">
      <stop offset="0.0" stop-color="#776c98"/>
      <stop offset="1.0" stop-color="#3d374e"/>
    </radialGradient>
    <radialGradient cx="0" cy="0" gradientTransform="matrix(0.0069, 0.0, 0.0, 0.0069, -6.05, -23.6)" gradientUnits="userSpaceOnUse" id="gradient7" r="819.2" spreadMethod="pad">
      <stop offset="0.0" stop-color="#776c98"/>
      <stop offset="1.0" stop-color="#6a6088"/>
    </radialGradient>
    <radialGradient cx="0" cy="0" gradientTransform="matrix(0.019, 0.0, 0.0, 0.019, -8.35, -21.3)" gradientUnits="userSpaceOnUse" id="gradient8" r="819.2" spreadMethod="pad">
      <stop offset="0.0" stop-color="#786d9a"/>
      <stop offset="1.0" stop-color="#4c4562"/>
    </radialGradient>
    <radialGradient cx="0" cy="0" gradientTransform="matrix(0.0161, 0.0, 0.0, 0.0161, -6.1, -20.35)" gradientUnits="userSpaceOnUse" id="gradient9" r="819.2" spreadMethod="pad">
      <stop offset="0.0" stop-color="#796d9a"/>
      <stop offset="1.0" stop-color="#48415c"/>
    </radialGradient>
    <radialGradient cx="0" cy="0" gradientTransform="matrix(0.0033, 0.0, 0.0, 0.0033, -5.5, -22.5)" gradientUnits="userSpaceOnUse" id="gradient10" r="819.2" spreadMethod="pad">
      <stop offset="0.0" stop-color="#716690"/>
      <stop offset="1.0" stop-color="#453f59"/>
    </radialGradient>
    <radialGradient cx="0" cy="0" gradientTransform="matrix(0.0222, 0.0, 0.0, 0.0222, 11.35, -34.8)" gradientUnits="userSpaceOnUse" id="gradient11" r="819.2" spreadMethod="pad">
      <stop offset="0.0" stop-color="#6e3b0e"/>
      <stop offset="1.0" stop-color="#4e2a09"/>
    </radialGradient>
    <radialGradient cx="0" cy="0" gradientTransform="matrix(0.0042, 0.0, 0.0, 0.0042, 18.35, -33.55)" gradientUnits="userSpaceOnUse" id="gradient12" r="819.2" spreadMethod="pad">
      <stop offset="0.0" stop-color="#ffffd7"/>
      <stop offset="1.0" stop-color="#8d856f"/>
    </radialGradient>
    <radialGradient cx="0" cy="0" gradientTransform="matrix(0.0027, 0.0, 0.0, 0.0027, 22.0, -33.15)" gradientUnits="userSpaceOnUse" id="gradient13" r="819.2" spreadMethod="pad">
      <stop offset="0.0" stop-color="#ffde00"/>
      <stop offset="1.0" stop-color="#ca7c00"/>
    </radialGradient>
    <radialGradient cx="0" cy="0" gradientTransform="matrix(0.0029, 0.0, 0.0, 0.0029, 14.9, -34.95)" gradientUnits="userSpaceOnUse" id="gradient14" r="819.2" spreadMethod="pad">
      <stop offset="0.0" stop-color="#ffe100"/>
      <stop offset="1.0" stop-color="#c87c00"/>
    </radialGradient>
    <radialGradient cx="0" cy="0" gradientTransform="matrix(0.0035, 0.0, 0.0, 0.0035, 14.25, -30.25)" gradientUnits="userSpaceOnUse" id="gradient15" r="819.2" spreadMethod="pad">
      <stop offset="0.0" stop-color="#867e69"/>
      <stop offset="1.0" stop-color="#857e68"/>
    </radialGradient>
    <radialGradient cx="0" cy="0" gradientTransform="matrix(0.0045, 0.0, 0.0, 0.0045, 16.05, -30.6)" gradientUnits="userSpaceOnUse" id="gradient16" r="819.2" spreadMethod="pad">
      <stop offset="0.0" stop-color="#fbecc5"/>
      <stop offset="1.0" stop-color="#d4c8a6"/>
    </radialGradient>
    <radialGradient cx="0" cy="0" gradientTransform="matrix(0.097, 0.0, 0.0, 0.097, -19.3, 34.05)" gradientUnits="userSpaceOnUse" id="gradient17" r="819.2" spreadMethod="pad">
      <stop offset="0.0" stop-color="#77410f"/>
      <stop offset="1.0" stop-color="#5f330c"/>
    </radialGradient>
    <radialGradient cx="0" cy="0" gradientTransform="matrix(0.0019, 0.0, 0.0, 0.0019, 23.7, -31.9)" gradientUnits="userSpaceOnUse" id="gradient18" r="819.2" spreadMethod="pad">
      <stop offset="0.0" stop-color="#ffdd00"/>
      <stop offset="1.0" stop-color="#dd8600"/>
    </radialGradient>
    <radialGradient cx="0" cy="0" gradientTransform="matrix(7.0E-4, 0.0, 0.0, 7.0E-4, 26.5, -24.95)" gradientUnits="userSpaceOnUse" id="gradient19" r="819.2" spreadMethod="pad">
      <stop offset="0.0" stop-color="#552e0b"/>
      <stop offset="1.0" stop-color="#552e0b"/>
    </radialGradient>
    <radialGradient cx="0" cy="0" gradientTransform="matrix(0.003, 0.0, 0.0, 0.003, 18.0, -34.2)" gradientUnits="userSpaceOnUse" id="gradient20" r="819.2" spreadMethod="pad">
      <stop offset="0.0" stop-color="#ffdf00"/>
      <stop offset="1.0" stop-color="#d78100"/>
    </radialGradient>
    <radialGradient cx="0" cy="0" gradientTransform="matrix(0.0038, 0.0, 0.0, 0.0038, 7.25, -14.6)" gradientUnits="userSpaceOnUse" id="gradient21" r="819.2" spreadMethod="pad">
      <stop offset="0.0" stop-color="#ffea86"/>
      <stop offset="1.0" stop-color="#be894e"/>
    </radialGradient>
    <radialGradient cx="0" cy="0" gradientTransform="matrix(0.0035, 0.0, 0.0, 0.0035, 7.3, -16.1)" gradientUnits="userSpaceOnUse" id="gradient22" r="819.2" spreadMethod="pad">
      <stop offset="0.0" stop-color="#ffeb86"/>
      <stop offset="1.0" stop-color="#cb9354"/>
    </radialGradient>
    <radialGradient cx="0" cy="0" gradientTransform="matrix(0.0038, 0.0, 0.0, 0.0038, 5.95, -18.15)" gradientUnits="userSpaceOnUse" id="gradient23" r="819.2" spreadMethod="pad">
      <stop offset="0.0" stop-color="#0b1017"/>
      <stop offset="1.0" stop-color="#06090d"/>
    </radialGradient>
    <radialGradient cx="0" cy="0" gradientTransform="matrix(0.0077, 0.0, 0.0, 0.0077, 0.3, -15.3)" gradientUnits="userSpaceOnUse" id="gradient24" r="819.2" spreadMethod="pad">
      <stop offset="0.0" stop-color="#39627a"/>
      <stop offset="1.0" stop-color="#0e181e"/>
    </radialGradient>
    <radialGradient cx="0" cy="0" gradientTransform="matrix(0.0069, 0.0, 0.0, 0.0069, 2.95, -14.25)" gradientUnits="userSpaceOnUse" id="gradient25" r="819.2" spreadMethod="pad">
      <stop offset="0.0" stop-color="#25354c"/>
      <stop offset="1.0" stop-color="#1f2c3f"/>
    </radialGradient>
    <radialGradient cx="0" cy="0" gradientTransform="matrix(0.0056, 0.0, 0.0, 0.0056, 2.95, -14.25)" gradientUnits="userSpaceOnUse" id="gradient26" r="819.2" spreadMethod="pad">
      <stop offset="0.0" stop-color="#67b1dc"/>
      <stop offset="1.0" stop-color="#3a637c"/>
    </radialGradient>
    <radialGradient cx="0" cy="0" gradientTransform="matrix(0.0057, 0.0, 0.0, 0.0057, 0.65, -12.15)" gradientUnits="userSpaceOnUse" id="gradient27" r="819.2" spreadMethod="pad">
      <stop offset="0.0" stop-color="#2f4360"/>
      <stop offset="1.0" stop-color="#1c2839"/>
    </radialGradient>
    <radialGradient cx="0" cy="0" gradientTransform="matrix(0.0068, 0.0, 0.0, 0.0068, 6.4, -13.55)" gradientUnits="userSpaceOnUse" id="gradient28" r="819.2" spreadMethod="pad">
      <stop offset="0.0" stop-color="#0f161f"/>
      <stop offset="1.0" stop-color="#06090d"/>
    </radialGradient>
    <radialGradient cx="0" cy="0" gradientTransform="matrix(0.009, 0.0, 0.0, 0.009, -3.05, -11.5)" gradientUnits="userSpaceOnUse" id="gradient29" r="819.2" spreadMethod="pad">
      <stop offset="0.0" stop-color="#314765"/>
      <stop offset="1.0" stop-color="#1d293b"/>
    </radialGradient>
    <radialGradient cx="0" cy="0" gradientTransform="matrix(0.0152, 0.0, 0.0, 0.0152, -6.45, -12.0)" gradientUnits="userSpaceOnUse" id="gradient30" r="819.2" spreadMethod="pad">
      <stop offset="0.0" stop-color="#354c6d"/>
      <stop offset="1.0" stop-color="#1f2d40"/>
    </radialGradient>
    <radialGradient cx="0" cy="0" gradientTransform="matrix(0.0033, 0.0, 0.0, 0.0033, -5.7, -16.6)" gradientUnits="userSpaceOnUse" id="gradient31" r="819.2" spreadMethod="pad">
      <stop offset="0.0" stop-color="#6dbbe9"/>
      <stop offset="1.0" stop-color="#508aac"/>
    </radialGradient>
    <radialGradient cx="0" cy="0" gradientTransform="matrix(0.0144, 0.0, 0.0, 0.0144, -9.75, -20.35)" gradientUnits="userSpaceOnUse" id="gradient32" r="819.2" spreadMethod="pad">
      <stop offset="0.0" stop-color="#796d9b"/>
      <stop offset="1.0" stop-color="#453f59"/>
    </radialGradient>
    <radialGradient cx="0" cy="0" gradientTransform="matrix(0.0161, 0.0, 0.0, 0.0161, -8.85, -19.6)" gradientUnits="userSpaceOnUse" id="gradient33" r="819.2" spreadMethod="pad">
      <stop offset="0.0" stop-color="#776c99"/>
      <stop offset="1.0" stop-color="#4d4663"/>
    </radialGradient>
    <radialGradient cx="0" cy="0" gradientTransform="matrix(0.0055, 0.0, 0.0, 0.0055, -9.15, -14.55)" gradientUnits="userSpaceOnUse" id="gradient34" r="819.2" spreadMethod="pad">
      <stop offset="0.0" stop-color="#2b3e59"/>
      <stop offset="1.0" stop-color="#25364d"/>
    </radialGradient>
    <radialGradient cx="0" cy="0" gradientTransform="matrix(0.0026, 0.0, 0.0, 0.0026, -7.35, -13.4)" gradientUnits="userSpaceOnUse" id="gradient35" r="819.2" spreadMethod="pad">
      <stop offset="0.0" stop-color="#354c6d"/>
      <stop offset="1.0" stop-color="#2c3f5b"/>
    </radialGradient>
    <radialGradient cx="0" cy="0" gradientTransform="matrix(0.0097, 0.0, 0.0, 0.0097, -15.25, -13.45)" gradientUnits="userSpaceOnUse" id="gradient36" r="819.2" spreadMethod="pad">
      <stop offset="0.0" stop-color="#fff6cc"/>
      <stop offset="1.0" stop-color="#b2a78b"/>
    </radialGradient>
    <radialGradient cx="0" cy="0" gradientTransform="matrix(0.0058, 0.0, 0.0, 0.0058, -12.55, -14.05)" gradientUnits="userSpaceOnUse" id="gradient37" r="819.2" spreadMethod="pad">
      <stop offset="0.0" stop-color="#26374f"/>
      <stop offset="1.0" stop-color="#202e43"/>
    </radialGradient>
    <radialGradient cx="0" cy="0" gradientTransform="matrix(0.0071, 0.0, 0.0, 0.0071, -10.25, -16.1)" gradientUnits="userSpaceOnUse" id="gradient38" r="819.2" spreadMethod="pad">
      <stop offset="0.0" stop-color="#f5b165"/>
      <stop offset="1.0" stop-color="#986e3f"/>
    </radialGradient>
    <radialGradient cx="0" cy="0" gradientTransform="matrix(0.0049, 0.0, 0.0, 0.0049, -10.85, -11.15)" gradientUnits="userSpaceOnUse" id="gradient39" r="819.2" spreadMethod="pad">
      <stop offset="0.0" stop-color="#2d415d"/>
      <stop offset="1.0" stop-color="#233248"/>
    </radialGradient>
    <radialGradient cx="0" cy="0" gradientTransform="matrix(0.0083, 0.0, 0.0, 0.0083, -14.8, -13.1)" gradientUnits="userSpaceOnUse" id="gradient40" r="819.2" spreadMethod="pad">
      <stop offset="0.0" stop-color="#73c6f6"/>
      <stop offset="1.0" stop-color="#538fb2"/>
    </radialGradient>
    <radialGradient cx="0" cy="0" gradientTransform="matrix(0.002, 0.0, 0.0, 0.002, -2.5, -9.6)" gradientUnits="userSpaceOnUse" id="gradient41" r="819.2" spreadMethod="pad">
      <stop offset="0.0" stop-color="#111923"/>
      <stop offset="1.0" stop-color="#06090e"/>
    </radialGradient>
    <radialGradient cx="0" cy="0" gradientTransform="matrix(0.0034, 0.0, 0.0, 0.0034, -2.55, -11.45)" gradientUnits="userSpaceOnUse" id="gradient42" r="819.2" spreadMethod="pad">
      <stop offset="0.0" stop-color="#0c1119"/>
      <stop offset="1.0" stop-color="#06090d"/>
    </radialGradient>
    <radialGradient cx="0" cy="0" gradientTransform="matrix(0.002, 0.0, 0.0, 0.002, -2.5, -9.6)" gradientUnits="userSpaceOnUse" id="gradient43" r="819.2" spreadMethod="pad">
      <stop offset="0.0" stop-color="#487c9b"/>
      <stop offset="1.0" stop-color="#487b9a"/>
    </radialGradient>
    <radialGradient cx="0" cy="0" gradientTransform="matrix(0.0013, 0.0, 0.0, 0.0013, -4.7, -7.55)" gradientUnits="userSpaceOnUse" id="gradient44" r="819.2" spreadMethod="pad">
      <stop offset="0.0" stop-color="#1f1e19"/>
      <stop offset="1.0" stop-color="#1f1e19"/>
    </radialGradient>
    <radialGradient cx="0" cy="0" gradientTransform="matrix(0.011, 0.0, 0.0, 0.011, -5.75, -6.15)" gradientUnits="userSpaceOnUse" id="gradient45" r="819.2" spreadMethod="pad">
      <stop offset="0.0" stop-color="#9c937b"/>
      <stop offset="1.0" stop-color="#7c7561"/>
    </radialGradient>
    <radialGradient cx="0" cy="0" gradientTransform="matrix(0.0129, 0.0, 0.0, 0.0129, -13.75, 1.2)" gradientUnits="userSpaceOnUse" id="gradient46" r="819.2" spreadMethod="pad">
      <stop offset="0.0" stop-color="#364e70"/>
      <stop offset="1.0" stop-color="#25354d"/>
    </radialGradient>
    <radialGradient cx="0" cy="0" gradientTransform="matrix(9.0E-4, 0.0, 0.0, 9.0E-4, -7.7, -2.8)" gradientUnits="userSpaceOnUse" id="gradient47" r="819.2" spreadMethod="pad">
      <stop offset="0.0" stop-color="#464237"/>
      <stop offset="1.0" stop-color="#3a362d"/>
    </radialGradient>
    <radialGradient cx="0" cy="0" gradientTransform="matrix(0.0119, 0.0, 0.0, 0.0119, -4.95, 7.15)" gradientUnits="userSpaceOnUse" id="gradient48" r="819.2" spreadMethod="pad">
      <stop offset="0.0" stop-color="#5c9ec5"/>
      <stop offset="1.0" stop-color="#497d9c"/>
    </radialGradient>
    <radialGradient cx="0" cy="0" gradientTransform="matrix(0.0024, 0.0, 0.0, 0.0024, 6.4, -9.85)" gradientUnits="userSpaceOnUse" id="gradient49" r="819.2" spreadMethod="pad">
      <stop offset="0.0" stop-color="#182231"/>
      <stop offset="1.0" stop-color="#111823"/>
    </radialGradient>
    <radialGradient cx="0" cy="0" gradientTransform="matrix(0.0099, 0.0, 0.0, 0.0099, -7.1, 6.6)" gradientUnits="userSpaceOnUse" id="gradient50" r="819.2" spreadMethod="pad">
      <stop offset="0.0" stop-color="#324766"/>
      <stop offset="1.0" stop-color="#233249"/>
    </radialGradient>
    <radialGradient cx="0" cy="0" gradientTransform="matrix(0.005, 0.0, 0.0, 0.005, -8.45, 4.7)" gradientUnits="userSpaceOnUse" id="gradient51" r="819.2" spreadMethod="pad">
      <stop offset="0.0" stop-color="#0c1119"/>
      <stop offset="1.0" stop-color="#06090d"/>
    </radialGradient>
    <radialGradient cx="0" cy="0" gradientTransform="matrix(0.004, 0.0, 0.0, 0.004, -5.85, 7.85)" gradientUnits="userSpaceOnUse" id="gradient52" r="819.2" spreadMethod="pad">
      <stop offset="0.0" stop-color="#ffe684"/>
      <stop offset="1.0" stop-color="#9e7241"/>
    </radialGradient>
    <radialGradient cx="0" cy="0" gradientTransform="matrix(0.0059, 0.0, 0.0, 0.0059, -10.2, 6.5)" gradientUnits="userSpaceOnUse" id="gradient53" r="819.2" spreadMethod="pad">
      <stop offset="0.0" stop-color="#77ccfe"/>
      <stop offset="1.0" stop-color="#4c82a2"/>
    </radialGradient>
    <radialGradient cx="0" cy="0" gradientTransform="matrix(0.0396, 0.0, 0.0, 0.0396, -7.15, 34.15)" gradientUnits="userSpaceOnUse" id="gradient54" r="819.2" spreadMethod="pad">
      <stop offset="0.0" stop-color="#2f4360"/>
      <stop offset="1.0" stop-color="#202e42"/>
    </radialGradient>
    <radialGradient cx="0" cy="0" gradientTransform="matrix(0.0092, 0.0, 0.0, 0.0092, -9.5, 12.35)" gradientUnits="userSpaceOnUse" id="gradient55" r="819.2" spreadMethod="pad">
      <stop offset="0.0" stop-color="#908871"/>
      <stop offset="1.0" stop-color="#464237"/>
    </radialGradient>
    <radialGradient cx="0" cy="0" gradientTransform="matrix(0.0187, 0.0, 0.0, 0.0187, -13.25, -21.45)" gradientUnits="userSpaceOnUse" id="gradient56" r="819.2" spreadMethod="pad">
      <stop offset="0.0" stop-color="#6e648d"/>
      <stop offset="1.0" stop-color="#292635"/>
    </radialGradient>
    <radialGradient cx="0" cy="0" gradientTransform="matrix(0.0375, 0.0, 0.0, 0.0375, -13.35, -21.5)" gradientUnits="userSpaceOnUse" id="gradient57" r="819.2" spreadMethod="pad">
      <stop offset="0.0" stop-color="#5a5173"/>
      <stop offset="1.0" stop-color="#3d384e"/>
    </radialGradient>
    <radialGradient cx="0" cy="0" gradientTransform="matrix(0.0023, 0.0, 0.0, 0.0023, -15.85, -17.75)" gradientUnits="userSpaceOnUse" id="gradient58" r="819.2" spreadMethod="pad">
      <stop offset="0.0" stop-color="#06090d"/>
      <stop offset="1.0" stop-color="#06090d"/>
    </radialGradient>
    <radialGradient cx="0" cy="0" gradientTransform="matrix(0.0038, 0.0, 0.0, 0.0038, -15.5, -16.45)" gradientUnits="userSpaceOnUse" id="gradient59" r="819.2" spreadMethod="pad">
      <stop offset="0.0" stop-color="#b2814a"/>
      <stop offset="1.0" stop-color="#976d3f"/>
    </radialGradient>
    <radialGradient cx="0" cy="0" gradientTransform="matrix(0.0058, 0.0, 0.0, 0.0058, -12.75, -15.4)" gradientUnits="userSpaceOnUse" id="gradient60" r="819.2" spreadMethod="pad">
      <stop offset="0.0" stop-color="#e3a45e"/>
      <stop offset="1.0" stop-color="#bb874d"/>
    </radialGradient>
    <radialGradient cx="0" cy="0" gradientTransform="matrix(0.0034, 0.0, 0.0, 0.0034, -14.55, -18.2)" gradientUnits="userSpaceOnUse" id="gradient61" r="819.2" spreadMethod="pad">
      <stop offset="0.0" stop-color="#304564"/>
      <stop offset="1.0" stop-color="#2c3f5a"/>
    </radialGradient>
    <radialGradient cx="0" cy="0" gradientTransform="matrix(0.0042, 0.0, 0.0, 0.0042, -13.0, -16.75)" gradientUnits="userSpaceOnUse" id="gradient62" r="819.2" spreadMethod="pad">
      <stop offset="0.0" stop-color="#261c10"/>
      <stop offset="1.0" stop-color="#261c10"/>
    </radialGradient>
    <radialGradient cx="0" cy="0" gradientTransform="matrix(0.003, 0.0, 0.0, 0.003, -13.65, -18.9)" gradientUnits="userSpaceOnUse" id="gradient63" r="819.2" spreadMethod="pad">
      <stop offset="0.0" stop-color="#e1a25d"/>
      <stop offset="1.0" stop-color="#d99d5a"/>
    </radialGradient>
    <radialGradient cx="0" cy="0" gradientTransform="matrix(0.023, 0.0, 0.0, 0.023, -22.7, -4.1)" gradientUnits="userSpaceOnUse" id="gradient64" r="819.2" spreadMethod="pad">
      <stop offset="0.0" stop-color="#554e6d"/>
      <stop offset="1.0" stop-color="#4a435f"/>
    </radialGradient>
    <radialGradient cx="0" cy="0" gradientTransform="matrix(0.0099, 0.0, 0.0, 0.0099, -17.85, -11.55)" gradientUnits="userSpaceOnUse" id="gradient65" r="819.2" spreadMethod="pad">
      <stop offset="0.0" stop-color="#4d4663"/>
      <stop offset="1.0" stop-color="#393349"/>
    </radialGradient>
    <radialGradient cx="0" cy="0" gradientTransform="matrix(0.0018, 0.0, 0.0, 0.0018, -19.4, -10.3)" gradientUnits="userSpaceOnUse" id="gradient66" r="819.2" spreadMethod="pad">
      <stop offset="0.0" stop-color="#0e181e"/>
      <stop offset="1.0" stop-color="#0e181e"/>
    </radialGradient>
    <radialGradient cx="0" cy="0" gradientTransform="matrix(0.0178, 0.0, 0.0, 0.0178, -18.5, 2.95)" gradientUnits="userSpaceOnUse" id="gradient67" r="819.2" spreadMethod="pad">
      <stop offset="0.0" stop-color="#324868"/>
      <stop offset="1.0" stop-color="#26374f"/>
    </radialGradient>
    <radialGradient cx="0" cy="0" gradientTransform="matrix(0.0097, 0.0, 0.0, 0.0097, -23.2, -21.35)" gradientUnits="userSpaceOnUse" id="gradient68" r="819.2" spreadMethod="pad">
      <stop offset="0.0" stop-color="#5b5274"/>
      <stop offset="1.0" stop-color="#47405b"/>
    </radialGradient>
    <radialGradient cx="0" cy="0" gradientTransform="matrix(0.0073, 0.0, 0.0, 0.0073, -17.4, 4.25)" gradientUnits="userSpaceOnUse" id="gradient69" r="819.2" spreadMethod="pad">
      <stop offset="0.0" stop-color="#354c6c"/>
      <stop offset="1.0" stop-color="#202e43"/>
    </radialGradient>
    <radialGradient cx="0" cy="0" gradientTransform="matrix(0.0056, 0.0, 0.0, 0.0056, -17.4, 4.25)" gradientUnits="userSpaceOnUse" id="gradient70" r="819.2" spreadMethod="pad">
      <stop offset="0.0" stop-color="#76ccfe"/>
      <stop offset="1.0" stop-color="#4c84a4"/>
    </radialGradient>
    <radialGradient cx="0" cy="0" gradientTransform="matrix(0.014, 0.0, 0.0, 0.014, -16.35, 15.45)" gradientUnits="userSpaceOnUse" id="gradient71" r="819.2" spreadMethod="pad">
      <stop offset="0.0" stop-color="#504b3e"/>
      <stop offset="1.0" stop-color="#1f1e19"/>
    </radialGradient>
    <radialGradient cx="0" cy="0" gradientTransform="matrix(0.0154, 0.0, 0.0, 0.0154, -19.3, 34.05)" gradientUnits="userSpaceOnUse" id="gradient72" r="819.2" spreadMethod="pad">
      <stop offset="0.0" stop-color="#fff5cc"/>
      <stop offset="1.0" stop-color="#d1c6a5"/>
    </radialGradient>
    <radialGradient cx="0" cy="0" gradientTransform="matrix(0.0282, 0.0, 0.0, 0.0282, -3.5, 36.2)" gradientUnits="userSpaceOnUse" id="gradient73" r="819.2" spreadMethod="pad">
      <stop offset="0.0" stop-color="#6ab6e3"/>
      <stop offset="1.0" stop-color="#4c82a3"/>
    </radialGradient>
    <radialGradient cx="0" cy="0" gradientTransform="matrix(0.0036, 0.0, 0.0, 0.0036, -20.75, 33.5)" gradientUnits="userSpaceOnUse" id="gradient74" r="819.2" spreadMethod="pad">
      <stop offset="0.0" stop-color="#4a463a"/>
      <stop offset="1.0" stop-color="#49453a"/>
    </radialGradient>
    <radialGradient cx="0" cy="0" gradientTransform="matrix(0.0018, 0.0, 0.0, 0.0018, -19.55, 34.3)" gradientUnits="userSpaceOnUse" id="gradient75" r="819.2" spreadMethod="pad">
      <stop offset="0.0" stop-color="#221204"/>
      <stop offset="1.0" stop-color="#221204"/>
    </radialGradient>
    <radialGradient cx="0" cy="0" gradientTransform="matrix(0.0218, 0.0, 0.0, 0.0218, -20.3, 33.85)" gradientUnits="userSpaceOnUse" id="gradient76" r="819.2" spreadMethod="pad">
      <stop offset="0.0" stop-color="#140b02"/>
      <stop offset="1.0" stop-color="#0e0802"/>
    </radialGradient>
  </defs>
</svg>
