<?xml version="1.0" encoding="UTF-8" standalone="no"?>
<svg xmlns:ffdec="https://www.free-decompiler.com/flash" xmlns:xlink="http://www.w3.org/1999/xlink" ffdec:objectType="shape" height="68.6px" width="64.35px" xmlns="http://www.w3.org/2000/svg">
  <g transform="matrix(1.0, 0.0, 0.0, 1.0, 13.9, 58.2)">
    <path d="M44.0 -52.5 L43.0 -52.45 Q41.95 -55.2 44.9 -56.1 L45.8 -56.0 46.05 -55.75 45.85 -54.65 Q45.3 -53.45 44.0 -52.5" fill="url(#gradient0)" fill-rule="evenodd" stroke="none"/>
    <path d="M44.0 -52.5 Q45.3 -53.45 45.85 -54.65 L46.05 -55.75 45.8 -56.0 44.9 -56.1 Q41.95 -55.2 43.0 -52.45 L44.0 -52.5 M43.4 -50.95 L41.45 -54.85 41.4 -55.6 Q43.55 -59.05 44.9 -57.9 L48.5 -54.45 50.45 -48.4 Q48.5 -30.9 42.75 -28.9 L45.05 -34.95 45.65 -39.7 Q46.65 -38.35 48.5 -39.7 47.8 -42.0 45.8 -40.7 L45.45 -43.45 Q47.25 -41.7 49.1 -44.0 47.25 -47.4 45.45 -43.65 L45.2 -45.5 45.2 -45.75 46.65 -47.3 Q49.9 -53.35 43.4 -50.95" fill="url(#gradient1)" fill-rule="evenodd" stroke="none"/>
    <path d="M-9.85 -39.1 L-10.3 -37.95 -10.45 -37.85 -10.45 -38.05 -9.6 -41.8 -9.55 -41.85 -9.85 -39.1 M-9.5 -42.25 L-9.1 -44.4 -8.95 -44.7 -8.6 -44.7 -9.5 -42.25 M-6.4 -50.9 Q-4.8 -56.15 3.4 -54.65 L3.2 -54.65 3.25 -54.45 3.9 -53.8 3.45 -53.75 2.4 -53.4 -0.25 -53.95 Q-5.55 -52.5 -6.4 -50.9" fill="url(#gradient2)" fill-rule="evenodd" stroke="none"/>
    <path d="M-11.45 -44.7 L-11.9 -44.0 -12.0 -44.15 -11.45 -44.85 -11.4 -44.85 -11.45 -44.7 M-11.1 -45.35 L-10.25 -46.7 -10.15 -46.35 -10.9 -45.35 -11.1 -45.35 M-10.15 -46.75 L-8.85 -48.8 -7.0 -50.4 -6.65 -50.7 -6.4 -50.9 Q-5.55 -52.5 -0.25 -53.95 L2.4 -53.4 3.7 -53.05 4.2 -52.4 4.3 -52.1 4.35 -51.95 4.35 -51.75 4.0 -50.7 2.75 -50.95 2.45 -51.65 1.75 -51.9 -2.05 -51.45 -6.55 -49.7 -8.6 -48.15 -8.75 -48.0 -8.85 -47.9 -9.7 -47.3 -10.15 -46.75" fill="url(#gradient3)" fill-rule="evenodd" stroke="none"/>
    <path d="M4.2 -52.4 L3.7 -53.05 2.4 -53.4 3.45 -53.75 4.15 -52.8 4.2 -52.4 M4.35 -51.75 L5.2 -50.5 6.15 -49.95 6.3 -49.55 5.5 -49.7 5.1 -49.6 4.9 -48.65 4.6 -48.95 4.0 -50.7 4.35 -51.75 M2.0 -44.85 L1.5 -44.4 0.5 -44.75 2.0 -44.85 M-1.95 -47.9 L-1.2 -47.3 -0.9 -47.3 -1.8 -47.05 -2.0 -47.3 -2.2 -47.9 -1.95 -47.9" fill="url(#gradient4)" fill-rule="evenodd" stroke="none"/>
    <path d="M7.0 -51.85 L7.3 -51.5 7.45 -50.75 7.45 -50.35 6.9 -50.75 6.15 -49.95 5.2 -50.5 4.35 -51.75 4.35 -51.95 4.3 -52.1 4.2 -52.4 4.15 -52.8 3.45 -53.75 3.9 -53.8 5.1 -53.65 7.0 -51.85" fill="url(#gradient5)" fill-rule="evenodd" stroke="none"/>
    <path d="M-9.6 -41.8 L-9.55 -42.0 -9.55 -41.85 -9.6 -41.8 M3.4 -54.65 Q6.9 -53.95 7.0 -51.85 L5.1 -53.65 3.9 -53.8 3.25 -54.45 3.2 -54.65 3.4 -54.65" fill="url(#gradient6)" fill-rule="evenodd" stroke="none"/>
    <path d="M-11.25 -44.85 L-11.45 -44.7 -11.4 -44.85 -11.25 -44.85 M-10.25 -46.7 L-10.15 -46.75 -9.7 -47.3 -8.85 -47.9 -8.75 -48.0 -8.6 -48.15 -6.55 -49.7 -2.05 -51.45 1.75 -51.9 2.45 -51.65 2.75 -50.95 4.0 -50.7 4.6 -48.95 4.0 -49.0 Q3.55 -48.35 0.35 -47.65 L0.35 -47.7 0.3 -47.7 -1.95 -47.9 -2.2 -47.9 -5.55 -47.5 -6.55 -47.3 -7.05 -47.05 -8.25 -46.55 -9.55 -46.1 -9.7 -46.05 -9.9 -45.85 -10.05 -45.75 -10.45 -45.45 -10.9 -45.35 -10.15 -46.35 -10.25 -46.7" fill="url(#gradient7)" fill-rule="evenodd" stroke="none"/>
    <path d="M-7.0 -50.4 L-9.4 -50.6 -9.4 -50.7 -6.65 -50.7 -7.0 -50.4 M-9.5 -50.6 L-9.7 -50.7 -9.5 -50.7 -9.5 -50.6" fill="url(#gradient8)" fill-rule="evenodd" stroke="none"/>
    <path d="M45.2 -45.5 L44.5 -45.7 44.0 -45.95 43.55 -46.65 43.4 -47.3 42.95 -48.45 42.6 -48.75 42.85 -49.95 43.4 -50.95 Q49.9 -53.35 46.65 -47.3 L45.2 -45.75 45.2 -45.5 M44.45 -47.4 Q48.3 -48.85 45.05 -51.15 L44.25 -50.8 Q42.1 -48.5 44.45 -47.4" fill="url(#gradient9)" fill-rule="evenodd" stroke="none"/>
    <path d="M45.65 -39.7 L45.8 -40.7 Q47.8 -42.0 48.5 -39.7 46.65 -38.35 45.65 -39.7" fill="url(#gradient10)" fill-rule="evenodd" stroke="none"/>
    <path d="M7.45 -50.75 L8.2 -49.95 8.45 -48.8 8.05 -49.0 8.05 -48.55 7.3 -48.8 6.3 -49.55 6.15 -49.95 6.9 -50.75 7.45 -50.35 7.45 -50.75" fill="url(#gradient11)" fill-rule="evenodd" stroke="none"/>
    <path d="M7.3 -48.8 L7.0 -48.6 7.0 -47.6 6.55 -47.3 5.9 -46.75 5.5 -46.9 5.4 -47.3 5.4 -47.9 5.1 -48.0 4.95 -48.05 4.9 -48.65 5.1 -49.6 5.5 -49.7 6.3 -49.55 7.3 -48.8 M4.6 -44.75 L4.5 -41.7 1.45 -38.6 1.3 -38.45 1.05 -38.2 0.55 -37.85 0.25 -37.55 -0.05 -37.35 -0.1 -37.25 -1.55 -36.1 -2.8 -35.05 -3.0 -34.95 -2.9 -35.25 -1.95 -36.3 0.05 -38.55 0.5 -39.2 1.5 -40.65 2.25 -41.85 2.3 -41.9 2.45 -42.05 3.4 -43.65 4.1 -44.6 4.6 -44.75" fill="url(#gradient12)" fill-rule="evenodd" stroke="none"/>
    <path d="M-9.5 -44.7 L-11.25 -44.85 -11.4 -44.85 -11.45 -44.85 -13.35 -45.05 -13.35 -45.1 -11.1 -45.35 -10.9 -45.35 -10.45 -45.45 -8.8 -45.65 -8.65 -45.7 -8.0 -45.85 -7.0 -45.95 -1.8 -47.05 -0.9 -47.3 0.3 -47.65 0.35 -47.65 Q3.55 -48.35 4.0 -49.0 L4.6 -48.95 4.9 -48.65 4.95 -48.05 4.9 -48.0 4.9 -46.55 4.7 -46.25 4.15 -46.35 Q3.05 -45.95 2.0 -44.85 L0.5 -44.75 0.05 -44.7 -0.15 -44.7 -1.55 -44.7 -2.0 -44.6 -2.05 -44.6 -3.6 -44.6 -3.8 -44.6 -7.55 -44.6 -8.6 -44.7 -8.95 -44.7 -9.5 -44.7" fill="url(#gradient13)" fill-rule="evenodd" stroke="none"/>
    <path d="M44.45 -47.4 Q42.1 -48.5 44.25 -50.8 L45.05 -51.15 Q48.3 -48.85 44.45 -47.4" fill="url(#gradient14)" fill-rule="evenodd" stroke="none"/>
    <path d="M44.5 -45.7 L42.2 -44.0 41.8 -43.8 41.35 -43.85 40.4 -44.7 39.55 -46.25 39.95 -46.95 42.6 -48.75 42.95 -48.45 43.4 -47.3 43.55 -46.65 44.0 -45.95 44.5 -45.7" fill="url(#gradient15)" fill-rule="evenodd" stroke="none"/>
    <path d="M41.35 -43.85 L27.65 -34.35 26.75 -34.0 Q25.75 -34.35 25.45 -35.25 L25.45 -36.25 26.05 -36.8 26.9 -37.4 39.55 -46.25 40.4 -44.7 41.35 -43.85 M23.3 -31.4 L9.45 -21.85 8.2 -21.0 7.65 -20.65 7.1 -20.25 Q5.65 -20.65 5.95 -22.75 L6.7 -23.25 8.35 -24.4 18.8 -31.75 19.0 -31.8 19.55 -31.65 21.2 -33.4 21.5 -33.55 22.0 -32.55 22.7 -31.75 23.3 -31.4 M-5.05 -15.05 L-0.3 -18.3 Q0.0 -17.3 1.75 -19.5 L2.6 -18.5 3.75 -17.95 3.4 -17.75 -0.85 -14.8 -4.7 -12.1 -5.05 -11.9 -5.65 -11.85 -5.85 -11.9 Q-7.25 -13.15 -6.55 -13.95 L-6.45 -13.95 -6.45 -14.05 -5.35 -14.8 -5.05 -15.05" fill="url(#gradient16)" fill-rule="evenodd" stroke="none"/>
    <path d="M26.65 -37.6 L26.9 -37.4 26.05 -36.8 25.25 -37.15 24.75 -37.6 23.7 -37.65 24.4 -38.35 26.65 -37.6" fill="url(#gradient17)" fill-rule="evenodd" stroke="none"/>
    <path d="M21.75 -39.85 Q22.1 -39.85 22.2 -39.55 24.45 -38.55 26.65 -37.6 L24.4 -38.35 23.7 -37.65 22.5 -36.45 21.4 -33.95 21.2 -33.4 19.55 -31.65 19.2 -33.2 19.05 -34.0 18.8 -35.45 19.1 -37.4 20.3 -39.15 Q21.25 -39.85 21.75 -39.85" fill="url(#gradient18)" fill-rule="evenodd" stroke="none"/>
    <path d="M19.65 -41.2 L21.75 -39.85 Q21.25 -39.85 20.3 -39.15 L19.1 -37.4 18.8 -35.45 19.05 -34.0 16.9 -35.15 Q14.7 -39.45 19.65 -41.2" fill="url(#gradient19)" fill-rule="evenodd" stroke="none"/>
    <path d="M17.05 -42.65 L19.65 -41.2 Q14.7 -39.45 16.9 -35.15 L13.4 -37.25 12.9 -38.8 13.4 -40.7 Q14.55 -43.25 17.05 -42.65" fill="url(#gradient20)" fill-rule="evenodd" stroke="none"/>
    <path d="M13.6 -44.4 L17.05 -42.65 Q14.55 -43.25 13.4 -40.7 L12.9 -38.8 13.4 -37.25 11.85 -38.25 Q10.95 -42.75 13.6 -44.4" fill="url(#gradient21)" fill-rule="evenodd" stroke="none"/>
    <path d="M9.0 -47.25 L10.05 -46.1 Q13.6 -44.8 13.6 -44.4 10.95 -42.75 11.85 -38.25 L10.35 -39.0 8.4 -39.75 7.0 -40.55 6.3 -41.3 6.85 -42.85 8.75 -45.45 9.0 -47.25" fill="url(#gradient22)" fill-rule="evenodd" stroke="none"/>
    <path d="M8.85 -48.05 L9.0 -47.25 8.75 -45.45 6.85 -42.85 7.45 -45.15 Q7.1 -45.05 7.05 -47.3 L7.0 -47.6 7.0 -48.6 7.3 -48.8 8.05 -48.55 8.85 -48.05 M4.5 -41.6 L4.2 -40.25 1.85 -38.35 1.65 -38.2 0.7 -37.6 -0.1 -37.0 -0.25 -36.95 -0.65 -36.8 -0.1 -37.25 -0.05 -37.35 0.25 -37.55 0.55 -37.85 1.05 -38.2 1.3 -38.45 1.45 -38.55 2.85 -39.7 4.5 -41.6" fill="url(#gradient23)" fill-rule="evenodd" stroke="none"/>
    <path d="M8.45 -48.8 L8.85 -48.6 8.85 -48.05 8.05 -48.55 8.05 -49.0 8.45 -48.8" fill="url(#gradient24)" fill-rule="evenodd" stroke="none"/>
    <path d="M-9.4 -50.6 L-9.5 -50.6 -9.5 -50.7 -9.4 -50.7 -9.4 -50.6" fill="url(#gradient25)" fill-rule="evenodd" stroke="none"/>
    <path d="M0.3 -47.7 L0.35 -47.7 0.35 -47.65 0.3 -47.65 0.3 -47.7" fill="url(#gradient26)" fill-rule="evenodd" stroke="none"/>
    <path d="M-9.1 -44.4 L-11.05 -40.25 -9.5 -44.7 -8.95 -44.7 -9.1 -44.4 M0.3 -47.7 L0.3 -47.65 -0.9 -47.3 -1.2 -47.3 -1.95 -47.9 0.3 -47.7 M-8.25 -46.55 L-7.05 -47.05 -8.0 -45.85 -8.65 -45.7 -8.8 -45.7 -8.25 -46.55" fill="url(#gradient27)" fill-rule="evenodd" stroke="none"/>
    <path d="M-9.3 -28.7 L-9.4 -23.45 -9.5 -23.15 -9.6 -23.25 -10.25 -30.7 -10.15 -32.75 -9.85 -35.15 -9.3 -33.8 -9.3 -28.7 M-2.2 -47.9 L-2.0 -47.3 -1.8 -47.05 -7.0 -45.95 -5.55 -47.5 -2.2 -47.9 M-3.8 -44.6 L-4.9 -43.85 -5.25 -43.65 -5.55 -43.0 -6.6 -43.55 -8.45 -41.05 -8.4 -40.8 -9.15 -39.9 -7.55 -44.6 -3.8 -44.6" fill="url(#gradient28)" fill-rule="evenodd" stroke="none"/>
    <path d="M-10.15 -32.75 L-10.1 -35.8 -9.85 -35.15 -10.15 -32.75 M-9.9 -37.65 L-9.85 -39.1 -9.55 -41.85 -9.55 -42.0 -9.5 -42.25 -8.6 -44.7 -7.55 -44.6 -9.15 -39.9 -9.5 -39.35 -9.9 -37.65 M-8.0 -45.85 L-7.05 -47.05 -6.55 -47.3 -5.55 -47.5 -7.0 -45.95 -8.0 -45.85" fill="url(#gradient29)" fill-rule="evenodd" stroke="none"/>
    <path d="M-8.8 -45.7 L-8.65 -45.7 -8.8 -45.65 -8.8 -45.7" fill="url(#gradient30)" fill-rule="evenodd" stroke="none"/>
    <path d="M7.0 -47.6 L7.05 -47.3 Q7.1 -45.05 7.45 -45.15 L6.85 -42.85 6.3 -41.3 6.1 -40.8 5.9 -40.35 5.2 -38.8 5.15 -38.6 2.8 -34.1 2.65 -34.15 3.7 -37.55 3.7 -37.6 4.2 -40.25 4.5 -41.6 4.5 -41.7 4.6 -44.75 4.7 -46.25 4.9 -46.55 4.9 -48.0 5.1 -48.0 5.4 -47.9 5.4 -47.3 5.5 -46.9 5.9 -46.75 6.55 -47.3 7.0 -47.6" fill="url(#gradient31)" fill-rule="evenodd" stroke="none"/>
    <path d="M4.95 -48.05 L5.1 -48.0 4.9 -48.0 4.95 -48.05 M4.7 -46.25 L4.6 -44.75 4.1 -44.6 3.4 -43.65 1.15 -42.7 Q0.25 -42.25 -0.8 -42.0 L-2.25 -41.5 -3.2 -41.3 -5.35 -40.8 -3.6 -41.6 -3.0 -41.9 -1.4 -42.65 -0.55 -43.2 0.15 -43.6 0.25 -43.65 1.5 -44.4 2.0 -44.85 Q3.05 -45.95 4.15 -46.35 L4.7 -46.25" fill="url(#gradient32)" fill-rule="evenodd" stroke="none"/>
    <path d="M1.5 -44.4 L0.25 -43.65 0.15 -44.35 0.15 -44.4 0.05 -44.7 0.5 -44.75 1.5 -44.4 M1.15 -42.7 L3.4 -43.65 2.45 -42.05 2.3 -42.1 2.0 -42.25 1.15 -42.7" fill="url(#gradient33)" fill-rule="evenodd" stroke="none"/>
    <path d="M0.25 -43.65 L0.15 -43.6 -0.25 -44.15 -0.15 -44.7 0.05 -44.7 0.15 -44.4 0.15 -44.35 0.25 -43.65" fill="url(#gradient34)" fill-rule="evenodd" stroke="none"/>
    <path d="M0.15 -43.6 L-0.55 -43.2 -1.65 -44.15 -1.6 -44.5 -1.55 -44.55 -1.55 -44.7 -0.15 -44.7 -0.25 -44.15 0.15 -43.6 M2.45 -42.05 L2.3 -41.9 2.3 -42.1 2.45 -42.05" fill="url(#gradient35)" fill-rule="evenodd" stroke="none"/>
    <path d="M4.5 -41.7 L4.5 -41.6 2.85 -39.7 1.45 -38.55 1.45 -38.6 4.5 -41.7 M4.2 -40.25 L3.7 -37.6 1.85 -38.35 4.2 -40.25 M5.15 -38.6 L5.2 -38.8 5.3 -38.75 5.15 -38.6 M-1.4 -42.65 L-3.0 -41.9 Q-3.3 -42.85 -4.3 -43.0 L-4.2 -43.6 -4.2 -43.85 -3.6 -44.6 -2.05 -44.6 -2.0 -43.65 -1.4 -42.65 M-2.25 -41.5 L-0.8 -42.0 0.1 -41.25 1.5 -40.65 0.5 -39.2 -1.8 -41.3 -2.25 -41.5 M-1.55 -44.7 L-1.55 -44.55 -1.6 -44.5 -1.65 -44.15 -2.0 -44.6 -1.55 -44.7" fill="url(#gradient36)" fill-rule="evenodd" stroke="none"/>
    <path d="M-0.55 -43.2 L-1.4 -42.65 -2.0 -43.65 -2.05 -44.6 -2.0 -44.6 -1.65 -44.15 -0.55 -43.2 M-0.8 -42.0 Q0.25 -42.25 1.15 -42.7 L2.0 -42.25 2.25 -41.85 1.5 -40.65 0.1 -41.25 -0.8 -42.0" fill="url(#gradient37)" fill-rule="evenodd" stroke="none"/>
    <path d="M-3.8 -44.6 L-3.6 -44.6 -4.2 -43.85 -4.2 -43.6 -4.95 -43.15 -4.9 -43.85 -3.8 -44.6" fill="url(#gradient38)" fill-rule="evenodd" stroke="none"/>
    <path d="M45.45 -43.45 L45.45 -43.65 Q47.25 -47.4 49.1 -44.0 47.25 -41.7 45.45 -43.45" fill="url(#gradient39)" fill-rule="evenodd" stroke="none"/>
    <path d="M3.7 -37.6 L3.7 -37.55 2.85 -37.35 1.65 -38.2 1.85 -38.35 3.7 -37.6 M1.3 -38.45 L1.45 -38.6 1.45 -38.55 1.3 -38.45" fill="url(#gradient40)" fill-rule="evenodd" stroke="none"/>
    <path d="M3.7 -37.55 L2.65 -34.15 2.8 -34.1 5.15 -38.6 5.3 -38.75 5.75 -39.0 6.05 -39.6 6.05 -40.1 5.9 -40.35 6.1 -40.8 6.65 -40.15 7.0 -40.3 7.0 -40.55 8.4 -39.75 10.35 -39.0 Q11.65 -34.95 8.05 -33.1 L7.4 -32.6 7.25 -32.55 6.9 -32.2 5.35 -31.8 4.7 -30.8 4.4 -30.65 4.55 -30.55 3.7 -29.85 1.85 -29.45 1.25 -29.5 1.05 -29.5 0.9 -29.55 0.75 -29.55 0.65 -29.55 0.55 -29.65 0.5 -29.65 0.45 -29.7 0.3 -29.7 0.25 -29.75 0.15 -29.75 0.1 -29.85 -0.15 -29.9 -0.25 -29.95 -1.4 -31.05 -2.9 -32.0 -2.8 -32.55 -2.8 -35.05 -1.55 -36.1 -0.3 -35.55 -0.5 -36.25 -0.25 -36.55 -0.25 -36.95 -0.1 -37.0 0.7 -37.05 0.7 -37.6 1.65 -38.2 2.85 -37.35 3.7 -37.55 M-3.0 -41.9 L-3.6 -41.6 -5.3 -42.85 -4.95 -43.15 -4.2 -43.6 -4.3 -43.0 Q-3.3 -42.85 -3.0 -41.9 M-3.2 -41.3 L-2.25 -41.5 -1.8 -41.3 0.5 -39.2 0.05 -38.55 -3.2 -41.3 M-1.95 -36.3 L-2.9 -35.25 -3.4 -37.35 -1.95 -36.3 M-1.3 -29.45 L-1.0 -29.45 -0.5 -29.05 -1.05 -29.1 -1.3 -29.45 M-0.45 -29.05 L0.55 -28.5 0.3 -28.3 -0.15 -28.45 -0.45 -29.05 M0.9 -28.35 L1.35 -28.25 0.9 -27.95 0.9 -28.35" fill="url(#gradient41)" fill-rule="evenodd" stroke="none"/>
    <path d="M-3.6 -41.6 L-5.35 -40.8 -3.2 -41.3 0.05 -38.55 -1.95 -36.3 -3.4 -37.35 -6.95 -40.1 -8.2 -40.85 -8.4 -41.05 -8.45 -41.05 -6.6 -43.55 -5.55 -43.0 -5.3 -42.85 -3.6 -41.6 M-1.55 -36.1 L-0.1 -37.25 -0.65 -36.8 -0.25 -36.95 -0.25 -36.55 -0.5 -36.25 -0.3 -35.55 -1.55 -36.1 M-0.1 -37.0 L0.7 -37.6 0.7 -37.05 -0.1 -37.0" fill="url(#gradient42)" fill-rule="evenodd" stroke="none"/>
    <path d="M-8.45 -41.05 L-8.4 -41.05 -8.2 -40.85 -8.4 -40.8 -8.45 -41.05" fill="url(#gradient43)" fill-rule="evenodd" stroke="none"/>
    <path d="M-8.95 -27.6 L-9.3 -28.7 -9.3 -33.8 -9.85 -35.15 -10.1 -35.8 -9.95 -37.2 -9.9 -37.45 -9.9 -37.65 -9.5 -39.35 -9.15 -39.9 -8.4 -40.8 -8.2 -40.85 -6.95 -40.1 -3.4 -37.35 -2.9 -35.25 -3.0 -34.95 -2.8 -35.05 -2.8 -32.55 -2.9 -32.0 -2.9 -31.1 -2.95 -28.1 -3.9 -27.8 -4.15 -27.5 Q-4.95 -27.05 -5.7 -26.65 L-7.55 -26.85 -8.95 -27.6" fill="url(#gradient44)" fill-rule="evenodd" stroke="none"/>
    <path d="M6.1 -40.8 L6.3 -41.3 7.0 -40.55 7.0 -40.3 6.65 -40.15 6.1 -40.8" fill="url(#gradient45)" fill-rule="evenodd" stroke="none"/>
    <path d="M2.3 -41.9 L2.25 -41.85 2.0 -42.25 2.3 -42.1 2.3 -41.9" fill="url(#gradient46)" fill-rule="evenodd" stroke="none"/>
    <path d="M5.2 -38.8 L5.9 -40.35 6.05 -40.1 5.9 -40.1 6.05 -39.6 5.75 -39.0 5.3 -38.75 5.2 -38.8" fill="url(#gradient47)" fill-rule="evenodd" stroke="none"/>
    <path d="M6.05 -39.6 L5.9 -40.1 6.05 -40.1 6.05 -39.6" fill="url(#gradient48)" fill-rule="evenodd" stroke="none"/>
    <path d="M25.25 -37.15 L25.45 -36.25 25.45 -35.25 Q23.15 -30.85 22.5 -36.45 L23.7 -37.65 24.75 -37.6 25.25 -37.15" fill="url(#gradient49)" fill-rule="evenodd" stroke="none"/>
    <path d="M27.65 -34.35 Q27.5 -30.7 23.3 -31.4 L22.7 -31.75 22.0 -32.55 21.5 -33.55 21.4 -33.95 22.5 -36.45 Q23.15 -30.85 25.45 -35.25 25.75 -34.35 26.75 -34.0 L27.65 -34.35 M25.25 -37.15 L26.05 -36.8 25.45 -36.25 25.25 -37.15" fill="url(#gradient50)" fill-rule="evenodd" stroke="none"/>
    <path d="M18.8 -31.75 L18.45 -31.65 18.45 -31.75 18.65 -31.85 18.85 -31.85 19.0 -31.8 18.8 -31.75 M21.5 -33.55 L21.2 -33.4 21.4 -33.95 21.5 -33.55" fill="url(#gradient51)" fill-rule="evenodd" stroke="none"/>
    <path d="M18.9 -32.15 L19.2 -33.2 19.55 -31.65 19.0 -31.8 18.85 -31.85 18.85 -32.0 18.9 -32.15" fill="url(#gradient52)" fill-rule="evenodd" stroke="none"/>
    <path d="M18.8 -32.0 L18.9 -32.15 18.85 -32.0 18.8 -32.0" fill="url(#gradient53)" fill-rule="evenodd" stroke="none"/>
    <path d="M18.65 -31.85 L18.8 -32.0 18.85 -32.0 18.85 -31.85 18.65 -31.85" fill="url(#gradient54)" fill-rule="evenodd" stroke="none"/>
    <path d="M8.05 -33.1 L7.5 -32.6 7.4 -32.6 8.05 -33.1" fill="url(#gradient55)" fill-rule="evenodd" stroke="none"/>
    <path d="M7.5 -32.6 L7.25 -32.25 Q5.3 -27.15 1.35 -28.25 L0.9 -28.35 0.55 -28.5 -0.45 -29.05 -0.5 -29.05 -1.0 -29.45 -1.3 -29.45 -2.9 -31.1 -2.9 -32.0 -1.4 -31.05 -0.25 -29.95 -0.15 -29.9 0.1 -29.85 0.15 -29.75 0.25 -29.75 0.3 -29.7 0.45 -29.7 0.5 -29.65 0.55 -29.65 0.65 -29.55 0.75 -29.55 0.9 -29.5 1.05 -29.5 1.25 -29.5 1.85 -29.45 3.7 -29.85 4.55 -30.55 4.7 -30.8 5.35 -31.8 6.9 -32.2 7.25 -32.55 7.4 -32.6 7.5 -32.6" fill="url(#gradient56)" fill-rule="evenodd" stroke="none"/>
    <path d="M4.7 -30.8 L4.55 -30.55 4.4 -30.65 4.7 -30.8" fill="url(#gradient57)" fill-rule="evenodd" stroke="none"/>
    <path d="M7.25 -32.25 L7.45 -31.1 Q7.85 -25.45 6.45 -23.85 L2.3 -25.3 -0.7 -26.8 -2.95 -28.1 -2.9 -31.1 -1.3 -29.45 -1.05 -29.1 -0.5 -29.05 -0.45 -29.05 -0.15 -28.45 0.3 -28.3 0.55 -28.5 0.9 -28.35 0.9 -27.95 1.35 -28.25 Q5.3 -27.15 7.25 -32.25" fill="url(#gradient58)" fill-rule="evenodd" stroke="none"/>
    <path d="M7.45 -31.1 L7.85 -29.7 Q8.55 -24.95 8.35 -24.4 L6.7 -23.25 6.3 -23.55 6.45 -23.85 Q7.85 -25.45 7.45 -31.1 M6.55 -18.85 L7.25 -19.25 7.5 -19.7 7.65 -20.65 8.2 -21.0 Q7.45 -17.5 6.7 -18.25 L5.55 -18.1 6.55 -18.85" fill="url(#gradient59)" fill-rule="evenodd" stroke="none"/>
    <path d="M-0.7 -19.95 Q-2.4 -23.7 2.3 -25.3 L6.45 -23.85 6.15 -23.65 5.55 -23.15 Q5.4 -22.65 2.85 -21.45 L1.75 -19.5 Q0.0 -17.3 -0.3 -18.3 L-0.7 -19.95" fill="url(#gradient60)" fill-rule="evenodd" stroke="none"/>
    <path d="M-4.0 -21.65 Q-4.2 -26.0 -0.7 -26.8 L2.3 -25.3 Q-2.4 -23.7 -0.7 -19.95 L-4.0 -21.65" fill="url(#gradient61)" fill-rule="evenodd" stroke="none"/>
    <path d="M-7.0 -23.35 L-7.85 -24.05 -7.6 -24.65 -5.7 -26.65 Q-4.95 -27.05 -4.15 -27.5 L-3.9 -27.8 -2.95 -28.1 -0.7 -26.8 Q-4.2 -26.0 -4.0 -21.65 L-6.05 -22.8 -7.0 -23.35" fill="url(#gradient62)" fill-rule="evenodd" stroke="none"/>
    <path d="M0.9 -29.5 L0.75 -29.55 0.9 -29.55 0.9 -29.5" fill="url(#gradient63)" fill-rule="evenodd" stroke="none"/>
    <path d="M1.05 -29.5 L0.9 -29.5 0.9 -29.55 1.05 -29.5" fill="url(#gradient64)" fill-rule="evenodd" stroke="none"/>
    <path d="M-7.85 -24.05 L-8.95 -27.6 -7.55 -26.85 -5.7 -26.65 -7.6 -24.65 -7.85 -24.05" fill="url(#gradient65)" fill-rule="evenodd" stroke="none"/>
    <path d="M6.3 -23.55 L6.15 -23.65 6.45 -23.85 6.3 -23.55" fill="url(#gradient66)" fill-rule="evenodd" stroke="none"/>
    <path d="M6.15 -23.65 L6.3 -23.55 6.7 -23.25 5.95 -22.75 5.55 -23.15 6.15 -23.65 M7.1 -20.25 L7.65 -20.65 7.5 -19.7 7.25 -19.25 6.55 -18.85 7.0 -19.5 7.1 -20.25" fill="url(#gradient67)" fill-rule="evenodd" stroke="none"/>
    <path d="M3.75 -17.95 L2.6 -18.5 1.75 -19.5 2.85 -21.45 Q5.4 -22.65 5.55 -23.15 L5.95 -22.75 Q5.65 -20.65 7.1 -20.25 L7.0 -19.5 6.55 -18.85 5.55 -18.1 4.1 -17.9 3.75 -17.95" fill="url(#gradient68)" fill-rule="evenodd" stroke="none"/>
    <path d="M7.45 -16.55 Q7.85 -8.75 10.15 -5.15 L11.3 -3.0 Q14.0 4.3 2.1 7.0 -9.7 4.45 -8.75 -3.0 -7.6 -5.55 -6.2 -6.4 L-5.55 -8.8 -5.25 -11.5 -5.15 -11.5 -4.95 -11.5 -4.85 -11.35 Q0.6 -6.95 4.0 -17.75 L4.1 -17.9 5.55 -18.1 6.7 -18.25 7.45 -16.55 M-4.0 -21.65 L-0.7 -19.95 -0.3 -18.3 -5.05 -15.05 -5.3 -18.3 -5.3 -18.45 -6.05 -22.8 -4.0 -21.65 M-4.7 -12.1 L-0.85 -14.8 -2.05 -13.1 Q-4.1 -11.35 -4.5 -11.75 L-4.7 -12.1" fill="url(#gradient69)" fill-rule="evenodd" stroke="none"/>
    <path d="M-5.25 -11.5 L-5.35 -11.55 -5.15 -11.75 -5.05 -11.9 -4.7 -12.1 -4.5 -11.75 -5.1 -11.55 -5.15 -11.5 -5.25 -11.5 M-7.55 -13.35 Q-9.15 -16.2 -7.0 -23.35 L-6.05 -22.8 -5.3 -18.45 -5.35 -18.3 -5.5 -17.35 -5.35 -14.8 -6.45 -14.05 -6.55 -13.95 -6.8 -13.85 -7.55 -13.35" fill="url(#gradient70)" fill-rule="evenodd" stroke="none"/>
    <path d="M-5.35 -11.55 L-12.2 -6.9 -12.7 -6.9 -13.25 -7.25 Q-14.35 -8.6 -13.55 -9.1 L-7.55 -13.35 -6.8 -13.85 -6.85 -13.15 -6.65 -12.55 -5.85 -11.9 -5.65 -11.85 -5.15 -11.75 -5.35 -11.55" fill="url(#gradient71)" fill-rule="evenodd" stroke="none"/>
    <path d="M-5.85 -11.9 L-6.65 -12.55 -6.85 -13.15 -6.8 -13.85 -6.55 -13.95 Q-7.25 -13.15 -5.85 -11.9 M-5.65 -11.85 L-5.05 -11.9 -5.15 -11.75 -5.65 -11.85" fill="url(#gradient72)" fill-rule="evenodd" stroke="none"/>
    <path d="M-6.55 -13.95 L-6.45 -14.05 -6.45 -13.95 -6.55 -13.95" fill="url(#gradient73)" fill-rule="evenodd" stroke="none"/>
    <path d="M9.45 -21.85 L7.45 -16.55 6.7 -18.25 Q7.45 -17.5 8.2 -21.0 L9.45 -21.85" fill="url(#gradient74)" fill-rule="evenodd" stroke="none"/>
    <path d="M-5.35 -18.3 L-5.3 -18.45 -5.3 -18.3 -5.35 -18.3" fill="url(#gradient75)" fill-rule="evenodd" stroke="none"/>
    <path d="M-0.85 -14.8 L3.4 -17.75 3.75 -17.95 4.1 -17.9 4.0 -17.75 Q0.6 -6.95 -4.85 -11.35 L-4.95 -11.5 -5.15 -11.5 -5.1 -11.55 -4.5 -11.75 Q-4.1 -11.35 -2.05 -13.1 L-0.85 -14.8" fill="url(#gradient76)" fill-rule="evenodd" stroke="none"/>
    <path d="M10.15 -5.15 Q15.5 1.65 11.85 6.15 5.6 12.0 -1.4 9.75 -9.25 8.2 -11.3 0.0 -12.15 -6.0 -5.55 -8.8 L-6.2 -6.4 Q-7.6 -5.55 -8.75 -3.0 -9.7 4.45 2.1 7.0 14.0 4.3 11.3 -3.0 L10.15 -5.15" fill="url(#gradient77)" fill-rule="evenodd" stroke="none"/>
  </g>
  <defs>
    <radialGradient cx="0" cy="0" gradientTransform="matrix(0.0038, 0.0, 0.0, 0.0038, 45.65, -54.0)" gradientUnits="userSpaceOnUse" id="gradient0" r="819.2" spreadMethod="pad">
      <stop offset="0.0" stop-color="#ffce00"/>
      <stop offset="1.0" stop-color="#fd9500"/>
    </radialGradient>
    <radialGradient cx="0" cy="0" gradientTransform="matrix(0.0209, 0.0, 0.0, 0.0209, 48.6, -41.8)" gradientUnits="userSpaceOnUse" id="gradient1" r="819.2" spreadMethod="pad">
      <stop offset="0.0" stop-color="#723e0e"/>
      <stop offset="1.0" stop-color="#552e0b"/>
    </radialGradient>
    <radialGradient cx="0" cy="0" gradientTransform="matrix(0.022, 0.0, 0.0, 0.022, 0.75, -51.95)" gradientUnits="userSpaceOnUse" id="gradient2" r="819.2" spreadMethod="pad">
      <stop offset="0.0" stop-color="#70658f"/>
      <stop offset="1.0" stop-color="#413c54"/>
    </radialGradient>
    <radialGradient cx="0" cy="0" gradientTransform="matrix(0.0192, 0.0, 0.0, 0.0192, 2.3, -50.35)" gradientUnits="userSpaceOnUse" id="gradient3" r="819.2" spreadMethod="pad">
      <stop offset="0.0" stop-color="#776c98"/>
      <stop offset="1.0" stop-color="#363145"/>
    </radialGradient>
    <radialGradient cx="0" cy="0" gradientTransform="matrix(0.0077, 0.0, 0.0, 0.0077, 3.8, -48.95)" gradientUnits="userSpaceOnUse" id="gradient4" r="819.2" spreadMethod="pad">
      <stop offset="0.0" stop-color="#7d719f"/>
      <stop offset="1.0" stop-color="#504967"/>
    </radialGradient>
    <radialGradient cx="0" cy="0" gradientTransform="matrix(0.0063, 0.0, 0.0, 0.0063, 4.9, -51.95)" gradientUnits="userSpaceOnUse" id="gradient5" r="819.2" spreadMethod="pad">
      <stop offset="0.0" stop-color="#7c709e"/>
      <stop offset="1.0" stop-color="#534a6a"/>
    </radialGradient>
    <radialGradient cx="0" cy="0" gradientTransform="matrix(0.0203, 0.0, 0.0, 0.0203, 3.3, -52.2)" gradientUnits="userSpaceOnUse" id="gradient6" r="819.2" spreadMethod="pad">
      <stop offset="0.0" stop-color="#635a7f"/>
      <stop offset="1.0" stop-color="#48415b"/>
    </radialGradient>
    <radialGradient cx="0" cy="0" gradientTransform="matrix(0.019, 0.0, 0.0, 0.019, 2.35, -50.65)" gradientUnits="userSpaceOnUse" id="gradient7" r="819.2" spreadMethod="pad">
      <stop offset="0.0" stop-color="#776c98"/>
      <stop offset="1.0" stop-color="#463f59"/>
    </radialGradient>
    <radialGradient cx="0" cy="0" gradientTransform="matrix(0.0094, 0.0, 0.0, 0.0094, -2.25, -50.75)" gradientUnits="userSpaceOnUse" id="gradient8" r="819.2" spreadMethod="pad">
      <stop offset="0.0" stop-color="#5a5274"/>
      <stop offset="1.0" stop-color="#574f6f"/>
    </radialGradient>
    <radialGradient cx="0" cy="0" gradientTransform="matrix(0.0054, 0.0, 0.0, 0.0054, 47.05, -48.85)" gradientUnits="userSpaceOnUse" id="gradient9" r="819.2" spreadMethod="pad">
      <stop offset="0.0" stop-color="#faecc4"/>
      <stop offset="1.0" stop-color="#847c67"/>
    </radialGradient>
    <radialGradient cx="0" cy="0" gradientTransform="matrix(0.0028, 0.0, 0.0, 0.0028, 47.95, -40.3)" gradientUnits="userSpaceOnUse" id="gradient10" r="819.2" spreadMethod="pad">
      <stop offset="0.0" stop-color="#ffcc00"/>
      <stop offset="1.0" stop-color="#fd9900"/>
    </radialGradient>
    <radialGradient cx="0" cy="0" gradientTransform="matrix(0.0065, 0.0, 0.0, 0.0065, 3.0, -49.6)" gradientUnits="userSpaceOnUse" id="gradient11" r="819.2" spreadMethod="pad">
      <stop offset="0.0" stop-color="#7c709e"/>
      <stop offset="1.0" stop-color="#413b53"/>
    </radialGradient>
    <radialGradient cx="0" cy="0" gradientTransform="matrix(0.0181, 0.0, 0.0, 0.0181, 5.25, -47.05)" gradientUnits="userSpaceOnUse" id="gradient12" r="819.2" spreadMethod="pad">
      <stop offset="0.0" stop-color="#7d72a1"/>
      <stop offset="1.0" stop-color="#4d4662"/>
    </radialGradient>
    <radialGradient cx="0" cy="0" gradientTransform="matrix(0.0215, 0.0, 0.0, 0.0215, 3.65, -48.6)" gradientUnits="userSpaceOnUse" id="gradient13" r="819.2" spreadMethod="pad">
      <stop offset="0.0" stop-color="#7b709e"/>
      <stop offset="1.0" stop-color="#3b354c"/>
    </radialGradient>
    <radialGradient cx="0" cy="0" gradientTransform="matrix(0.0038, 0.0, 0.0, 0.0038, 46.15, -49.1)" gradientUnits="userSpaceOnUse" id="gradient14" r="819.2" spreadMethod="pad">
      <stop offset="0.0" stop-color="#ffcb00"/>
      <stop offset="1.0" stop-color="#ff9700"/>
    </radialGradient>
    <radialGradient cx="0" cy="0" gradientTransform="matrix(0.0057, 0.0, 0.0, 0.0057, 43.85, -47.85)" gradientUnits="userSpaceOnUse" id="gradient15" r="819.2" spreadMethod="pad">
      <stop offset="0.0" stop-color="#e1d5b1"/>
      <stop offset="1.0" stop-color="#b3a98d"/>
    </radialGradient>
    <radialGradient cx="0" cy="0" gradientTransform="matrix(0.0893, 0.0, 0.0, 0.0893, 46.4, -49.6)" gradientUnits="userSpaceOnUse" id="gradient16" r="819.2" spreadMethod="pad">
      <stop offset="0.0" stop-color="#68380d"/>
      <stop offset="1.0" stop-color="#552e0a"/>
    </radialGradient>
    <radialGradient cx="0" cy="0" gradientTransform="matrix(0.0066, 0.0, 0.0, 0.0066, 22.55, -39.45)" gradientUnits="userSpaceOnUse" id="gradient17" r="819.2" spreadMethod="pad">
      <stop offset="0.0" stop-color="#06090d"/>
      <stop offset="1.0" stop-color="#06090d"/>
    </radialGradient>
    <radialGradient cx="0" cy="0" gradientTransform="matrix(0.0066, 0.0, 0.0, 0.0066, 22.25, -36.45)" gradientUnits="userSpaceOnUse" id="gradient18" r="819.2" spreadMethod="pad">
      <stop offset="0.0" stop-color="#273951"/>
      <stop offset="1.0" stop-color="#233248"/>
    </radialGradient>
    <radialGradient cx="0" cy="0" gradientTransform="matrix(0.0049, 0.0, 0.0, 0.0049, 19.1, -37.5)" gradientUnits="userSpaceOnUse" id="gradient19" r="819.2" spreadMethod="pad">
      <stop offset="0.0" stop-color="#5fa3cb"/>
      <stop offset="1.0" stop-color="#41708b"/>
    </radialGradient>
    <radialGradient cx="0" cy="0" gradientTransform="matrix(0.0055, 0.0, 0.0, 0.0055, 16.8, -39.7)" gradientUnits="userSpaceOnUse" id="gradient20" r="819.2" spreadMethod="pad">
      <stop offset="0.0" stop-color="#2a3c57"/>
      <stop offset="1.0" stop-color="#1a2536"/>
    </radialGradient>
    <radialGradient cx="0" cy="0" gradientTransform="matrix(0.0065, 0.0, 0.0, 0.0065, 11.8, -42.1)" gradientUnits="userSpaceOnUse" id="gradient21" r="819.2" spreadMethod="pad">
      <stop offset="0.0" stop-color="#5999bf"/>
      <stop offset="1.0" stop-color="#3f6c87"/>
    </radialGradient>
    <radialGradient cx="0" cy="0" gradientTransform="matrix(0.0106, 0.0, 0.0, 0.0106, 11.85, -41.75)" gradientUnits="userSpaceOnUse" id="gradient22" r="819.2" spreadMethod="pad">
      <stop offset="0.0" stop-color="#2c3f5b"/>
      <stop offset="1.0" stop-color="#192332"/>
    </radialGradient>
    <radialGradient cx="0" cy="0" gradientTransform="matrix(0.0154, 0.0, 0.0, 0.0154, 7.4, -46.25)" gradientUnits="userSpaceOnUse" id="gradient23" r="819.2" spreadMethod="pad">
      <stop offset="0.0" stop-color="#7c719f"/>
      <stop offset="1.0" stop-color="#443e57"/>
    </radialGradient>
    <radialGradient cx="0" cy="0" gradientTransform="matrix(0.0035, 0.0, 0.0, 0.0035, 8.15, -48.35)" gradientUnits="userSpaceOnUse" id="gradient24" r="819.2" spreadMethod="pad">
      <stop offset="0.0" stop-color="#7d71a0"/>
      <stop offset="1.0" stop-color="#393449"/>
    </radialGradient>
    <radialGradient cx="0" cy="0" gradientTransform="matrix(0.0099, 0.0, 0.0, 0.0099, -9.9, -50.8)" gradientUnits="userSpaceOnUse" id="gradient25" r="819.2" spreadMethod="pad">
      <stop offset="0.0" stop-color="#0f0e13"/>
      <stop offset="1.0" stop-color="#0f0e13"/>
    </radialGradient>
    <radialGradient cx="0" cy="0" gradientTransform="matrix(0.0154, 0.0, 0.0, 0.0154, -9.9, -47.25)" gradientUnits="userSpaceOnUse" id="gradient26" r="819.2" spreadMethod="pad">
      <stop offset="0.0" stop-color="#302c3e"/>
      <stop offset="1.0" stop-color="#131118"/>
    </radialGradient>
    <radialGradient cx="0" cy="0" gradientTransform="matrix(0.017, 0.0, 0.0, 0.017, 0.75, -47.7)" gradientUnits="userSpaceOnUse" id="gradient27" r="819.2" spreadMethod="pad">
      <stop offset="0.0" stop-color="#70668f"/>
      <stop offset="1.0" stop-color="#282433"/>
    </radialGradient>
    <radialGradient cx="0" cy="0" gradientTransform="matrix(0.0331, 0.0, 0.0, 0.0331, 0.65, -47.8)" gradientUnits="userSpaceOnUse" id="gradient28" r="819.2" spreadMethod="pad">
      <stop offset="0.0" stop-color="#595172"/>
      <stop offset="1.0" stop-color="#3d374d"/>
    </radialGradient>
    <radialGradient cx="0" cy="0" gradientTransform="matrix(0.0331, 0.0, 0.0, 0.0331, -9.85, -25.95)" gradientUnits="userSpaceOnUse" id="gradient29" r="819.2" spreadMethod="pad">
      <stop offset="0.0" stop-color="#595172"/>
      <stop offset="1.0" stop-color="#453f59"/>
    </radialGradient>
    <radialGradient cx="0" cy="0" gradientTransform="matrix(0.011, 0.0, 0.0, 0.011, -4.7, -46.45)" gradientUnits="userSpaceOnUse" id="gradient30" r="819.2" spreadMethod="pad">
      <stop offset="0.0" stop-color="#15131a"/>
      <stop offset="1.0" stop-color="#0f0e13"/>
    </radialGradient>
    <radialGradient cx="0" cy="0" gradientTransform="matrix(0.017, 0.0, 0.0, 0.017, 4.45, -47.9)" gradientUnits="userSpaceOnUse" id="gradient31" r="819.2" spreadMethod="pad">
      <stop offset="0.0" stop-color="#7d71a0"/>
      <stop offset="1.0" stop-color="#4d4662"/>
    </radialGradient>
    <radialGradient cx="0" cy="0" gradientTransform="matrix(0.0136, 0.0, 0.0, 0.0136, 4.1, -46.35)" gradientUnits="userSpaceOnUse" id="gradient32" r="819.2" spreadMethod="pad">
      <stop offset="0.0" stop-color="#7e72a1"/>
      <stop offset="1.0" stop-color="#3f3950"/>
    </radialGradient>
    <radialGradient cx="0" cy="0" gradientTransform="matrix(0.0069, 0.0, 0.0, 0.0069, 3.35, -42.95)" gradientUnits="userSpaceOnUse" id="gradient33" r="819.2" spreadMethod="pad">
      <stop offset="0.0" stop-color="#f3b064"/>
      <stop offset="1.0" stop-color="#92693c"/>
    </radialGradient>
    <radialGradient cx="0" cy="0" gradientTransform="matrix(0.0028, 0.0, 0.0, 0.0028, 0.1, -45.95)" gradientUnits="userSpaceOnUse" id="gradient34" r="819.2" spreadMethod="pad">
      <stop offset="0.0" stop-color="#dfa15c"/>
      <stop offset="1.0" stop-color="#d69b59"/>
    </radialGradient>
    <radialGradient cx="0" cy="0" gradientTransform="matrix(0.0066, 0.0, 0.0, 0.0066, 1.9, -41.75)" gradientUnits="userSpaceOnUse" id="gradient35" r="819.2" spreadMethod="pad">
      <stop offset="0.0" stop-color="#f1ae64"/>
      <stop offset="1.0" stop-color="#c38d51"/>
    </radialGradient>
    <radialGradient cx="0" cy="0" gradientTransform="matrix(0.0095, 0.0, 0.0, 0.0095, -2.2, -41.4)" gradientUnits="userSpaceOnUse" id="gradient36" r="819.2" spreadMethod="pad">
      <stop offset="0.0" stop-color="#ffffd5"/>
      <stop offset="1.0" stop-color="#c2b798"/>
    </radialGradient>
    <radialGradient cx="0" cy="0" gradientTransform="matrix(0.0075, 0.0, 0.0, 0.0075, 1.55, -40.0)" gradientUnits="userSpaceOnUse" id="gradient37" r="819.2" spreadMethod="pad">
      <stop offset="0.0" stop-color="#2b3d58"/>
      <stop offset="1.0" stop-color="#233248"/>
    </radialGradient>
    <radialGradient cx="0" cy="0" gradientTransform="matrix(0.0069, 0.0, 0.0, 0.0069, -5.0, -40.85)" gradientUnits="userSpaceOnUse" id="gradient38" r="819.2" spreadMethod="pad">
      <stop offset="0.0" stop-color="#4a435f"/>
      <stop offset="1.0" stop-color="#423b54"/>
    </radialGradient>
    <radialGradient cx="0" cy="0" gradientTransform="matrix(0.0037, 0.0, 0.0, 0.0037, 48.4, -44.35)" gradientUnits="userSpaceOnUse" id="gradient39" r="819.2" spreadMethod="pad">
      <stop offset="0.0" stop-color="#ffcc00"/>
      <stop offset="1.0" stop-color="#bb7600"/>
    </radialGradient>
    <radialGradient cx="0" cy="0" gradientTransform="matrix(0.0085, 0.0, 0.0, 0.0085, -1.2, -39.95)" gradientUnits="userSpaceOnUse" id="gradient40" r="819.2" spreadMethod="pad">
      <stop offset="0.0" stop-color="#364d6f"/>
      <stop offset="1.0" stop-color="#2c3f5b"/>
    </radialGradient>
    <radialGradient cx="0" cy="0" gradientTransform="matrix(0.0158, 0.0, 0.0, 0.0158, 6.25, -37.8)" gradientUnits="userSpaceOnUse" id="gradient41" r="819.2" spreadMethod="pad">
      <stop offset="0.0" stop-color="#385073"/>
      <stop offset="1.0" stop-color="#202e43"/>
    </radialGradient>
    <radialGradient cx="0" cy="0" gradientTransform="matrix(0.0083, 0.0, 0.0, 0.0083, -3.95, -41.1)" gradientUnits="userSpaceOnUse" id="gradient42" r="819.2" spreadMethod="pad">
      <stop offset="0.0" stop-color="#7ad2ff"/>
      <stop offset="1.0" stop-color="#64aad5"/>
    </radialGradient>
    <radialGradient cx="0" cy="0" gradientTransform="matrix(0.001, 0.0, 0.0, 0.001, -8.55, -41.15)" gradientUnits="userSpaceOnUse" id="gradient43" r="819.2" spreadMethod="pad">
      <stop offset="0.0" stop-color="#3b667f"/>
      <stop offset="1.0" stop-color="#203644"/>
    </radialGradient>
    <radialGradient cx="0" cy="0" gradientTransform="matrix(0.0151, 0.0, 0.0, 0.0151, -6.7, -38.25)" gradientUnits="userSpaceOnUse" id="gradient44" r="819.2" spreadMethod="pad">
      <stop offset="0.0" stop-color="#374f71"/>
      <stop offset="1.0" stop-color="#202e42"/>
    </radialGradient>
    <radialGradient cx="0" cy="0" gradientTransform="matrix(0.0034, 0.0, 0.0, 0.0034, 6.85, -40.4)" gradientUnits="userSpaceOnUse" id="gradient45" r="819.2" spreadMethod="pad">
      <stop offset="0.0" stop-color="#76cbfd"/>
      <stop offset="1.0" stop-color="#6bb8e6"/>
    </radialGradient>
    <radialGradient cx="0" cy="0" gradientTransform="matrix(0.0011, 0.0, 0.0, 0.0011, 2.1, -42.45)" gradientUnits="userSpaceOnUse" id="gradient46" r="819.2" spreadMethod="pad">
      <stop offset="0.0" stop-color="#182231"/>
      <stop offset="1.0" stop-color="#182231"/>
    </radialGradient>
    <radialGradient cx="0" cy="0" gradientTransform="matrix(0.0046, 0.0, 0.0, 0.0046, 3.85, -39.15)" gradientUnits="userSpaceOnUse" id="gradient47" r="819.2" spreadMethod="pad">
      <stop offset="0.0" stop-color="#334969"/>
      <stop offset="1.0" stop-color="#2f4361"/>
    </radialGradient>
    <radialGradient cx="0" cy="0" gradientTransform="matrix(0.0052, 0.0, 0.0, 0.0052, 5.35, -39.15)" gradientUnits="userSpaceOnUse" id="gradient48" r="819.2" spreadMethod="pad">
      <stop offset="0.0" stop-color="#375072"/>
      <stop offset="1.0" stop-color="#2d415e"/>
    </radialGradient>
    <radialGradient cx="0" cy="0" gradientTransform="matrix(0.0037, 0.0, 0.0, 0.0037, 24.3, -34.85)" gradientUnits="userSpaceOnUse" id="gradient49" r="819.2" spreadMethod="pad">
      <stop offset="0.0" stop-color="#ffe483"/>
      <stop offset="1.0" stop-color="#b7844c"/>
    </radialGradient>
    <radialGradient cx="0" cy="0" gradientTransform="matrix(0.0041, 0.0, 0.0, 0.0041, 24.8, -34.2)" gradientUnits="userSpaceOnUse" id="gradient50" r="819.2" spreadMethod="pad">
      <stop offset="0.0" stop-color="#ffe382"/>
      <stop offset="1.0" stop-color="#b18049"/>
    </radialGradient>
    <radialGradient cx="0" cy="0" gradientTransform="matrix(0.0051, 0.0, 0.0, 0.0051, 18.3, -31.75)" gradientUnits="userSpaceOnUse" id="gradient51" r="819.2" spreadMethod="pad">
      <stop offset="0.0" stop-color="#080b10"/>
      <stop offset="1.0" stop-color="#06090d"/>
    </radialGradient>
    <radialGradient cx="0" cy="0" gradientTransform="matrix(0.0027, 0.0, 0.0, 0.0027, 19.55, -31.75)" gradientUnits="userSpaceOnUse" id="gradient52" r="819.2" spreadMethod="pad">
      <stop offset="0.0" stop-color="#223146"/>
      <stop offset="1.0" stop-color="#1b2738"/>
    </radialGradient>
    <radialGradient cx="0" cy="0" gradientTransform="matrix(0.0027, 0.0, 0.0, 0.0027, 18.8, -32.0)" gradientUnits="userSpaceOnUse" id="gradient53" r="819.2" spreadMethod="pad">
      <stop offset="0.0" stop-color="#06090d"/>
      <stop offset="1.0" stop-color="#06090d"/>
    </radialGradient>
    <radialGradient cx="0" cy="0" gradientTransform="matrix(0.0027, 0.0, 0.0, 0.0027, 18.8, -32.0)" gradientUnits="userSpaceOnUse" id="gradient54" r="819.2" spreadMethod="pad">
      <stop offset="0.0" stop-color="#1f2c3f"/>
      <stop offset="1.0" stop-color="#151e2c"/>
    </radialGradient>
    <radialGradient cx="0" cy="0" gradientTransform="matrix(0.0022, 0.0, 0.0, 0.0022, 7.6, -33.55)" gradientUnits="userSpaceOnUse" id="gradient55" r="819.2" spreadMethod="pad">
      <stop offset="0.0" stop-color="#1f1e19"/>
      <stop offset="1.0" stop-color="#1f1e19"/>
    </radialGradient>
    <radialGradient cx="0" cy="0" gradientTransform="matrix(0.0101, 0.0, 0.0, 0.0101, 5.25, -31.85)" gradientUnits="userSpaceOnUse" id="gradient56" r="819.2" spreadMethod="pad">
      <stop offset="0.0" stop-color="#9d947b"/>
      <stop offset="1.0" stop-color="#7e7763"/>
    </radialGradient>
    <radialGradient cx="0" cy="0" gradientTransform="matrix(0.0011, 0.0, 0.0, 0.0011, 4.55, -30.85)" gradientUnits="userSpaceOnUse" id="gradient57" r="819.2" spreadMethod="pad">
      <stop offset="0.0" stop-color="#182332"/>
      <stop offset="1.0" stop-color="#151f2c"/>
    </radialGradient>
    <radialGradient cx="0" cy="0" gradientTransform="matrix(0.0146, 0.0, 0.0, 0.0146, -3.15, -27.45)" gradientUnits="userSpaceOnUse" id="gradient58" r="819.2" spreadMethod="pad">
      <stop offset="0.0" stop-color="#364e70"/>
      <stop offset="1.0" stop-color="#233247"/>
    </radialGradient>
    <radialGradient cx="0" cy="0" gradientTransform="matrix(0.0188, 0.0, 0.0, 0.0188, 3.15, -19.0)" gradientUnits="userSpaceOnUse" id="gradient59" r="819.2" spreadMethod="pad">
      <stop offset="0.0" stop-color="#6ab7e4"/>
      <stop offset="1.0" stop-color="#467997"/>
    </radialGradient>
    <radialGradient cx="0" cy="0" gradientTransform="matrix(0.0055, 0.0, 0.0, 0.0055, 2.6, -21.45)" gradientUnits="userSpaceOnUse" id="gradient60" r="819.2" spreadMethod="pad">
      <stop offset="0.0" stop-color="#334969"/>
      <stop offset="1.0" stop-color="#202e43"/>
    </radialGradient>
    <radialGradient cx="0" cy="0" gradientTransform="matrix(0.007, 0.0, 0.0, 0.007, -3.45, -25.05)" gradientUnits="userSpaceOnUse" id="gradient61" r="819.2" spreadMethod="pad">
      <stop offset="0.0" stop-color="#6fbfee"/>
      <stop offset="1.0" stop-color="#4b80a0"/>
    </radialGradient>
    <radialGradient cx="0" cy="0" gradientTransform="matrix(0.0065, 0.0, 0.0, 0.0065, -5.8, -26.75)" gradientUnits="userSpaceOnUse" id="gradient62" r="819.2" spreadMethod="pad">
      <stop offset="0.0" stop-color="#354d6e"/>
      <stop offset="1.0" stop-color="#233248"/>
    </radialGradient>
    <radialGradient cx="0" cy="0" gradientTransform="matrix(0.0018, 0.0, 0.0, 0.0018, -0.45, -30.15)" gradientUnits="userSpaceOnUse" id="gradient63" r="819.2" spreadMethod="pad">
      <stop offset="0.0" stop-color="#464237"/>
      <stop offset="1.0" stop-color="#35332a"/>
    </radialGradient>
    <radialGradient cx="0" cy="0" gradientTransform="matrix(0.0013, 0.0, 0.0, 0.0013, 0.85, -29.6)" gradientUnits="userSpaceOnUse" id="gradient64" r="819.2" spreadMethod="pad">
      <stop offset="0.0" stop-color="#1f1e19"/>
      <stop offset="1.0" stop-color="#1f1e19"/>
    </radialGradient>
    <radialGradient cx="0" cy="0" gradientTransform="matrix(0.0048, 0.0, 0.0, 0.0048, -5.8, -26.75)" gradientUnits="userSpaceOnUse" id="gradient65" r="819.2" spreadMethod="pad">
      <stop offset="0.0" stop-color="#7cd6ff"/>
      <stop offset="1.0" stop-color="#3c6781"/>
    </radialGradient>
    <radialGradient cx="0" cy="0" gradientTransform="matrix(0.0052, 0.0, 0.0, 0.0052, 5.8, -23.0)" gradientUnits="userSpaceOnUse" id="gradient66" r="819.2" spreadMethod="pad">
      <stop offset="0.0" stop-color="#0c1219"/>
      <stop offset="1.0" stop-color="#06090d"/>
    </radialGradient>
    <radialGradient cx="0" cy="0" gradientTransform="matrix(0.0049, 0.0, 0.0, 0.0049, 5.8, -22.95)" gradientUnits="userSpaceOnUse" id="gradient67" r="819.2" spreadMethod="pad">
      <stop offset="0.0" stop-color="#ffe483"/>
      <stop offset="1.0" stop-color="#966c3e"/>
    </radialGradient>
    <radialGradient cx="0" cy="0" gradientTransform="matrix(0.0036, 0.0, 0.0, 0.0036, 4.25, -20.9)" gradientUnits="userSpaceOnUse" id="gradient68" r="819.2" spreadMethod="pad">
      <stop offset="0.0" stop-color="#ffee88"/>
      <stop offset="1.0" stop-color="#b18049"/>
    </radialGradient>
    <radialGradient cx="0" cy="0" gradientTransform="matrix(0.0406, 0.0, 0.0, 0.0406, 4.55, 6.65)" gradientUnits="userSpaceOnUse" id="gradient69" r="819.2" spreadMethod="pad">
      <stop offset="0.0" stop-color="#314766"/>
      <stop offset="1.0" stop-color="#1d2a3d"/>
    </radialGradient>
    <radialGradient cx="0" cy="0" gradientTransform="matrix(0.0177, 0.0, 0.0, 0.0177, -4.25, -11.35)" gradientUnits="userSpaceOnUse" id="gradient70" r="819.2" spreadMethod="pad">
      <stop offset="0.0" stop-color="#322f27"/>
      <stop offset="1.0" stop-color="#1f1e19"/>
    </radialGradient>
    <radialGradient cx="0" cy="0" gradientTransform="matrix(0.0104, 0.0, 0.0, 0.0104, -6.65, -12.7)" gradientUnits="userSpaceOnUse" id="gradient71" r="819.2" spreadMethod="pad">
      <stop offset="0.0" stop-color="#d4c8a6"/>
      <stop offset="1.0" stop-color="#b5ab8e"/>
    </radialGradient>
    <radialGradient cx="0" cy="0" gradientTransform="matrix(0.0025, 0.0, 0.0, 0.0025, -6.85, -13.1)" gradientUnits="userSpaceOnUse" id="gradient72" r="819.2" spreadMethod="pad">
      <stop offset="0.0" stop-color="#ccc0a0"/>
      <stop offset="1.0" stop-color="#cbc09f"/>
    </radialGradient>
    <radialGradient cx="0" cy="0" gradientTransform="matrix(0.089, 0.0, 0.0, 0.089, -13.6, -9.15)" gradientUnits="userSpaceOnUse" id="gradient73" r="819.2" spreadMethod="pad">
      <stop offset="0.0" stop-color="#0e0802"/>
      <stop offset="1.0" stop-color="#0e0802"/>
    </radialGradient>
    <radialGradient cx="0" cy="0" gradientTransform="matrix(0.0069, 0.0, 0.0, 0.0069, 6.8, -22.15)" gradientUnits="userSpaceOnUse" id="gradient74" r="819.2" spreadMethod="pad">
      <stop offset="0.0" stop-color="#9a9179"/>
      <stop offset="1.0" stop-color="#79725f"/>
    </radialGradient>
    <radialGradient cx="0" cy="0" gradientTransform="matrix(0.0072, 0.0, 0.0, 0.0072, -5.6, -20.5)" gradientUnits="userSpaceOnUse" id="gradient75" r="819.2" spreadMethod="pad">
      <stop offset="0.0" stop-color="#06090d"/>
      <stop offset="1.0" stop-color="#06090d"/>
    </radialGradient>
    <radialGradient cx="0" cy="0" gradientTransform="matrix(0.0127, 0.0, 0.0, 0.0127, 1.8, -19.1)" gradientUnits="userSpaceOnUse" id="gradient76" r="819.2" spreadMethod="pad">
      <stop offset="0.0" stop-color="#b0a68a"/>
      <stop offset="1.0" stop-color="#605a4b"/>
    </radialGradient>
    <radialGradient cx="0" cy="0" gradientTransform="matrix(0.0285, 0.0, 0.0, 0.0285, 8.15, 8.95)" gradientUnits="userSpaceOnUse" id="gradient77" r="819.2" spreadMethod="pad">
      <stop offset="0.0" stop-color="#71c3f3"/>
      <stop offset="1.0" stop-color="#4a7f9e"/>
    </radialGradient>
  </defs>
</svg>
