<?xml version="1.0" encoding="UTF-8" standalone="no"?>
<svg xmlns:ffdec="https://www.free-decompiler.com/flash" xmlns:xlink="http://www.w3.org/1999/xlink" ffdec:objectType="shape" height="66.05px" width="52.05px" xmlns="http://www.w3.org/2000/svg">
  <g transform="matrix(1.0, 0.0, 0.0, 1.0, 37.15, 56.05)">
    <path d="M-5.3 -50.45 Q-5.55 -51.35 -6.9 -52.15 L-6.45 -53.1 -5.2 -55.15 -4.55 -55.85 -3.8 -56.05 -3.25 -55.9 -3.75 -55.7 -4.0 -54.15 -5.0 -53.5 -4.15 -51.75 -5.3 -50.45" fill="url(#gradient0)" fill-rule="evenodd" stroke="none"/>
    <path d="M-6.45 -53.1 L-6.9 -52.15 Q-5.55 -51.35 -5.3 -50.45 L-5.3 -50.2 -5.35 -50.1 -5.95 -49.8 -6.15 -49.85 -6.3 -50.0 -7.6 -49.15 -7.65 -49.8 Q-8.25 -53.4 -6.45 -53.1" fill="url(#gradient1)" fill-rule="evenodd" stroke="none"/>
    <path d="M-7.65 -49.8 L-7.6 -49.15 -8.2 -48.75 -8.25 -48.75 -8.25 -49.65 -7.65 -49.8 M-6.15 -49.85 L-5.95 -49.8 -6.1 -49.7 -6.15 -49.85" fill="url(#gradient2)" fill-rule="evenodd" stroke="none"/>
    <path d="M-8.25 -48.75 L-8.2 -48.75 -8.25 -48.7 -8.25 -48.75" fill="url(#gradient3)" fill-rule="evenodd" stroke="none"/>
    <path d="M-7.6 -49.15 L-6.3 -50.0 -6.15 -49.85 -6.1 -49.7 Q-7.55 -48.85 -7.0 -48.45 L-5.65 -47.75 -5.75 -47.6 Q-7.2 -47.1 -7.0 -45.4 L-8.2 -44.05 -8.4 -43.85 -8.85 -41.75 -8.7 -40.75 -8.5 -39.4 -8.85 -40.25 -9.25 -41.95 -9.25 -46.05 -8.25 -48.7 -8.2 -48.75 -7.6 -49.15" fill="url(#gradient4)" fill-rule="evenodd" stroke="none"/>
    <path d="M-5.95 -49.8 L-5.35 -50.1 -5.3 -50.2 -4.75 -50.4 -4.45 -50.25 -4.15 -49.1 -4.25 -47.8 -4.8 -48.15 -5.65 -47.75 -7.0 -48.45 Q-7.55 -48.85 -6.1 -49.7 L-5.95 -49.8" fill="url(#gradient5)" fill-rule="evenodd" stroke="none"/>
    <path d="M-5.3 -50.45 L-4.15 -51.75 -3.0 -51.85 -3.8 -51.05 -3.85 -49.5 -4.15 -49.1 -4.45 -50.25 -4.75 -50.4 -5.3 -50.2 -5.3 -50.45 M-1.5 -53.9 L-0.65 -53.3 -0.1 -52.6 -2.1 -52.15 -1.5 -53.9 M-1.7 -48.45 L-0.9 -49.05 -0.5 -47.95 0.2 -47.6 2.95 -47.05 2.65 -46.6 -0.9 -47.6 -1.7 -48.45" fill="url(#gradient6)" fill-rule="evenodd" stroke="none"/>
    <path d="M-3.85 -49.5 L-2.95 -49.25 Q-2.75 -47.35 -1.7 -48.45 L-0.9 -47.6 2.65 -46.6 5.5 -45.8 7.35 -46.0 10.15 -46.2 10.85 -46.2 14.9 -47.6 10.65 -45.55 8.75 -45.05 7.9 -44.9 6.2 -44.5 4.65 -44.15 3.85 -44.25 3.15 -44.3 2.75 -44.3 1.25 -44.45 0.6 -44.5 -0.2 -44.4 Q-1.55 -44.55 -3.25 -46.85 L-4.05 -46.95 -4.25 -47.15 -4.2 -47.6 -4.25 -47.8 -4.15 -49.1 -3.85 -49.5" fill="url(#gradient7)" fill-rule="evenodd" stroke="none"/>
    <path d="M-2.1 -52.15 L-0.1 -52.6 0.3 -52.05 0.4 -51.05 -0.9 -49.05 -1.7 -48.45 Q-2.75 -47.35 -2.95 -49.25 L-3.85 -49.5 -3.8 -51.05 -3.0 -51.85 -2.2 -52.05 -2.1 -52.15" fill="url(#gradient8)" fill-rule="evenodd" stroke="none"/>
    <path d="M-4.15 -51.75 L-5.0 -53.5 -4.0 -54.15 -3.75 -55.7 -3.25 -55.9 -1.85 -56.0 -0.4 -55.7 -0.4 -55.45 -0.95 -55.1 -1.5 -53.9 -2.1 -52.15 -2.2 -52.05 -3.0 -51.85 -4.15 -51.75" fill="url(#gradient9)" fill-rule="evenodd" stroke="none"/>
    <path d="M-1.5 -53.9 L-0.95 -55.1 -0.4 -55.45 -0.4 -55.7 Q4.75 -57.45 9.2 -47.7 5.55 -53.3 0.3 -52.05 L-0.1 -52.6 -0.65 -53.3 -1.5 -53.9 M10.35 -43.85 L11.2 -42.75 12.25 -38.05 12.15 -37.95 10.35 -43.85" fill="url(#gradient10)" fill-rule="evenodd" stroke="none"/>
    <path d="M0.3 -52.05 Q5.55 -53.3 9.2 -47.7 L10.15 -46.2 7.35 -46.0 4.5 -47.05 2.95 -47.05 0.2 -47.6 -0.5 -47.95 -0.9 -49.05 0.4 -51.05 0.3 -52.05 M9.15 -44.8 L8.75 -45.05 10.65 -45.55 11.1 -44.8 12.4 -41.4 12.4 -41.1 11.2 -42.75 10.35 -43.85 9.15 -44.8" fill="url(#gradient11)" fill-rule="evenodd" stroke="none"/>
    <path d="M-1.65 -44.45 L-5.1 -44.05 -5.95 -43.85 -7.8 -43.5 -8.2 -44.05 -7.0 -45.4 Q-7.2 -47.1 -5.75 -47.6 L-5.65 -47.75 -4.8 -48.15 -4.25 -47.8 -4.2 -47.6 -4.25 -47.15 -4.05 -46.95 -3.25 -45.05 -1.65 -44.45" fill="url(#gradient12)" fill-rule="evenodd" stroke="none"/>
    <path d="M-8.2 -44.05 L-7.8 -43.5 -7.7 -42.55 -7.8 -42.5 -8.7 -40.75 -8.85 -41.75 -8.4 -43.85 -8.2 -44.05 M-9.25 -41.95 L-8.85 -40.25 -9.2 -39.7 -9.55 -38.3 -10.15 -38.85 -10.0 -39.9 -10.0 -40.0 -9.95 -40.05 -9.9 -40.95 -9.25 -41.95" fill="url(#gradient13)" fill-rule="evenodd" stroke="none"/>
    <path d="M-10.15 -38.85 L-10.85 -38.95 -10.0 -39.9 -10.15 -38.85" fill="url(#gradient14)" fill-rule="evenodd" stroke="none"/>
    <path d="M-11.45 -37.05 L-12.9 -37.45 -10.85 -38.95 -10.15 -38.85 -9.55 -38.3 -9.55 -37.55 -11.45 -37.05" fill="url(#gradient15)" fill-rule="evenodd" stroke="none"/>
    <path d="M-11.45 -37.05 L-11.65 -36.9 -13.1 -36.4 -13.4 -37.1 -12.9 -37.45 -11.45 -37.05" fill="url(#gradient16)" fill-rule="evenodd" stroke="none"/>
    <path d="M-13.4 -37.1 L-13.1 -36.4 -12.9 -35.75 -12.9 -35.15 -13.1 -34.85 Q-14.25 -34.4 -15.35 -33.9 -16.4 -35.4 -18.05 -32.85 L-18.1 -32.65 -18.65 -32.35 -18.7 -32.35 -19.15 -32.15 -22.95 -31.1 -24.6 -29.6 -25.95 -29.0 -28.75 -28.75 -29.15 -28.25 -28.7 -27.85 -29.35 -27.5 -29.85 -27.3 -31.95 -27.15 -32.1 -27.05 -31.9 -26.7 -31.4 -26.6 Q-42.25 -20.75 -32.6 -28.4 L-32.7 -28.1 -32.35 -28.2 -32.0 -28.8 -31.05 -29.6 -30.05 -30.2 -29.55 -30.0 -27.75 -31.75 -25.85 -32.9 -24.1 -33.45 -21.05 -35.25 -19.45 -36.0 -17.9 -36.15 -17.15 -36.4 -16.8 -36.85 -16.8 -37.15 -14.2 -38.15 -13.4 -37.1" fill="url(#gradient17)" fill-rule="evenodd" stroke="none"/>
    <path d="M-15.35 -33.9 L-15.75 -33.45 -16.8 -32.85 -17.0 -32.85 -18.1 -32.65 -18.05 -32.85 Q-16.4 -35.4 -15.35 -33.9 M-19.45 -36.0 L-18.2 -36.95 -16.8 -37.15 -16.8 -36.85 -17.15 -36.4 -17.9 -36.15 -19.45 -36.0" fill="url(#gradient18)" fill-rule="evenodd" stroke="none"/>
    <path d="M-4.05 -46.95 L-3.25 -46.85 Q-1.55 -44.55 -0.2 -44.4 L-0.9 -44.3 -1.65 -44.45 -3.25 -45.05 -4.05 -46.95" fill="url(#gradient19)" fill-rule="evenodd" stroke="none"/>
    <path d="M-0.2 -44.4 L0.6 -44.5 1.25 -44.45 0.9 -43.85 0.05 -43.0 -1.25 -42.4 -1.85 -42.1 -2.0 -42.0 -2.2 -41.95 -2.45 -41.95 -3.15 -41.95 -3.65 -42.55 -3.65 -42.7 -3.75 -42.7 -4.15 -42.95 -4.2 -42.95 -4.95 -43.55 -5.1 -44.05 -1.65 -44.45 -0.9 -44.3 -0.2 -44.4" fill="url(#gradient20)" fill-rule="evenodd" stroke="none"/>
    <path d="M6.4 -42.0 L7.4 -42.15 7.65 -42.0 8.0 -41.5 6.4 -42.0 M5.95 -34.8 L5.85 -34.5 5.75 -34.45 5.1 -33.5 4.35 -32.85 4.35 -32.8 4.1 -32.35 Q2.0 -31.1 1.5 -30.25 L0.3 -29.85 0.25 -29.8 -1.15 -29.75 -1.65 -29.85 -1.7 -29.85 -1.85 -29.95 -1.9 -29.95 -2.1 -30.0 -2.2 -30.0 -2.65 -30.2 -2.8 -30.35 -2.95 -30.4 -3.05 -30.55 -3.2 -30.6 -3.55 -30.95 -3.4 -30.95 -3.55 -31.1 -3.8 -31.4 -4.15 -32.05 -4.4 -32.1 -1.35 -33.3 -1.25 -33.4 -1.05 -33.45 Q-0.65 -33.2 2.75 -34.5 L5.95 -34.8 M-5.1 -44.05 L-4.95 -43.55 -4.2 -42.95 Q-5.75 -39.15 -4.4 -39.15 L-5.55 -38.65 -8.2 -37.95 -9.55 -37.55 -9.55 -38.3 -9.2 -39.7 -8.85 -40.25 -8.5 -39.4 -8.7 -40.75 -7.8 -42.5 -7.7 -42.5 -7.7 -42.1 -7.2 -42.55 -7.0 -42.4 -6.6 -42.6 -6.25 -42.0 -6.15 -41.95 -6.1 -41.75 -6.05 -41.9 -5.75 -41.95 -5.85 -42.15 -5.95 -43.85 -5.1 -44.05" fill="url(#gradient21)" fill-rule="evenodd" stroke="none"/>
    <path d="M-7.8 -43.5 L-5.95 -43.85 -5.85 -42.15 -6.25 -42.0 -6.6 -42.6 -7.0 -42.4 -7.2 -42.55 -7.7 -42.1 -7.7 -42.5 -7.7 -42.55 -7.8 -43.5" fill="url(#gradient22)" fill-rule="evenodd" stroke="none"/>
    <path d="M7.9 -44.9 L9.7 -39.65 10.15 -34.4 10.45 -31.75 9.8 -24.05 9.7 -24.0 9.6 -24.6 9.5 -31.4 8.6 -36.5 Q10.25 -39.55 8.6 -41.15 L8.5 -41.5 6.8 -44.15 6.2 -44.5 7.9 -44.9 M7.35 -46.0 L5.5 -45.8 2.65 -46.6 2.95 -47.05 4.5 -47.05 7.35 -46.0" fill="url(#gradient23)" fill-rule="evenodd" stroke="none"/>
    <path d="M7.9 -44.9 L8.75 -45.05 9.15 -44.8 9.7 -43.1 10.25 -36.75 10.15 -34.4 9.7 -39.65 7.9 -44.9" fill="url(#gradient24)" fill-rule="evenodd" stroke="none"/>
    <path d="M3.85 -44.25 L4.65 -44.15 6.2 -44.5 6.8 -44.15 8.5 -41.5 8.3 -41.6 8.0 -42.0 7.65 -42.0 7.4 -42.15 6.4 -42.0 Q3.6 -40.35 2.25 -41.3 L-0.7 -40.4 -0.55 -40.8 0.9 -42.4 3.1 -43.85 3.85 -44.25" fill="url(#gradient25)" fill-rule="evenodd" stroke="none"/>
    <path d="M3.15 -44.3 L3.85 -44.25 3.1 -43.85 3.15 -44.3 M-0.55 -40.8 L-0.7 -40.4 -0.75 -40.35 -4.2 -39.3 -4.45 -40.75 -4.15 -42.95 -3.75 -42.7 -3.65 -42.55 -3.15 -41.95 -2.45 -41.95 -2.4 -41.5 -2.05 -41.15 -1.35 -40.75 -0.55 -40.8" fill="url(#gradient26)" fill-rule="evenodd" stroke="none"/>
    <path d="M2.75 -44.3 L3.15 -44.3 3.1 -43.85 0.9 -42.4 -0.55 -40.8 -1.35 -40.75 -2.05 -41.15 -2.2 -41.95 -2.0 -42.0 -1.85 -41.6 -1.65 -41.3 -1.5 -41.7 -1.25 -42.4 0.05 -43.0 1.7 -43.45 2.75 -44.3" fill="url(#gradient27)" fill-rule="evenodd" stroke="none"/>
    <path d="M1.25 -44.45 L2.75 -44.3 1.7 -43.45 0.05 -43.0 0.9 -43.85 1.25 -44.45 M-1.85 -42.1 L-1.25 -42.4 -1.5 -41.7 -1.7 -41.8 -1.85 -42.1" fill="url(#gradient28)" fill-rule="evenodd" stroke="none"/>
    <path d="M7.65 -42.0 L8.0 -42.0 8.3 -41.6 8.5 -41.5 8.6 -41.15 8.0 -41.5 7.65 -42.0" fill="url(#gradient29)" fill-rule="evenodd" stroke="none"/>
    <path d="M-0.7 -40.4 L2.25 -41.3 Q3.6 -40.35 6.4 -42.0 L8.0 -41.5 8.6 -41.15 Q10.25 -39.55 8.6 -36.5 L7.05 -35.0 5.95 -34.8 2.75 -34.5 Q-0.65 -33.2 -1.05 -33.45 1.35 -37.75 -5.55 -38.65 L-4.4 -39.15 -4.2 -39.3 -0.75 -40.35 -0.7 -40.4" fill="url(#gradient30)" fill-rule="evenodd" stroke="none"/>
    <path d="M-7.7 -42.5 L-7.8 -42.5 -7.7 -42.55 -7.7 -42.5" fill="url(#gradient31)" fill-rule="evenodd" stroke="none"/>
    <path d="M-4.2 -42.95 L-4.15 -42.95 -4.45 -40.75 -4.2 -39.3 -4.4 -39.15 Q-5.75 -39.15 -4.2 -42.95 M-2.0 -42.0 L-1.85 -42.1 -1.7 -41.8 -1.85 -41.6 -2.0 -42.0" fill="url(#gradient32)" fill-rule="evenodd" stroke="none"/>
    <path d="M-3.75 -42.7 L-3.65 -42.7 -3.65 -42.55 -3.75 -42.7" fill="url(#gradient33)" fill-rule="evenodd" stroke="none"/>
    <path d="M-2.45 -41.95 L-2.2 -41.95 -2.05 -41.15 -2.4 -41.5 -2.45 -41.95" fill="url(#gradient34)" fill-rule="evenodd" stroke="none"/>
    <path d="M-1.5 -41.7 L-1.65 -41.3 -1.85 -41.6 -1.7 -41.8 -1.5 -41.7" fill="url(#gradient35)" fill-rule="evenodd" stroke="none"/>
    <path d="M-6.25 -42.0 L-5.85 -42.15 -5.75 -41.95 -6.05 -41.9 -6.15 -41.95 -6.25 -42.0" fill="url(#gradient36)" fill-rule="evenodd" stroke="none"/>
    <path d="M-6.05 -41.9 L-6.1 -41.75 -6.15 -41.95 -6.05 -41.9" fill="url(#gradient37)" fill-rule="evenodd" stroke="none"/>
    <path d="M-5.2 -31.85 L-4.45 -32.85 Q-4.35 -37.95 -8.2 -37.95 L-5.55 -38.65 Q1.35 -37.75 -1.05 -33.45 L-1.25 -33.4 -1.35 -33.3 -4.4 -32.1 -5.2 -31.85" fill="url(#gradient38)" fill-rule="evenodd" stroke="none"/>
    <path d="M-11.65 -36.9 L-11.45 -37.05 -9.55 -37.55 -8.2 -37.95 Q-4.35 -37.95 -4.45 -32.85 L-5.2 -31.85 Q-5.4 -31.75 -5.55 -31.7 L-6.25 -31.5 -6.35 -31.5 -9.75 -30.55 -8.7 -31.1 Q-8.2 -32.8 -8.45 -32.85 -8.5 -34.55 -10.0 -36.15 L-11.65 -36.9" fill="url(#gradient39)" fill-rule="evenodd" stroke="none"/>
    <path d="M4.1 -32.35 L4.25 -32.45 Q3.2 -29.0 -1.25 -28.25 -4.05 -28.2 -5.35 -31.3 L-5.4 -31.5 -5.55 -31.7 Q-5.4 -31.75 -5.2 -31.85 L-4.4 -32.1 -4.15 -32.05 -3.8 -31.4 -3.65 -31.15 -3.6 -31.1 -3.55 -30.95 -3.2 -30.6 -3.05 -30.55 -2.95 -30.4 -2.8 -30.35 -2.65 -30.2 -2.2 -30.0 -2.1 -30.0 -1.9 -29.95 -1.85 -29.95 -1.7 -29.85 -1.65 -29.85 -1.65 -29.8 -1.15 -29.75 0.25 -29.8 0.3 -29.85 1.5 -30.25 Q2.0 -31.1 4.1 -32.35" fill="url(#gradient40)" fill-rule="evenodd" stroke="none"/>
    <path d="M-13.1 -36.4 L-11.65 -36.9 -10.0 -36.15 Q-8.5 -34.55 -8.45 -32.85 -8.2 -32.8 -8.7 -31.1 L-9.75 -30.55 -12.1 -29.65 -12.3 -29.6 -12.65 -29.55 -11.9 -30.6 -11.95 -32.85 -12.7 -34.6 -13.1 -34.85 -12.9 -35.15 -12.9 -35.75 -13.1 -36.4" fill="url(#gradient41)" fill-rule="evenodd" stroke="none"/>
    <path d="M-6.35 -31.5 L-6.25 -31.5 Q-6.65 -22.25 -3.25 -22.65 7.45 -26.15 8.15 -28.4 L8.7 -27.1 Q9.0 -26.05 7.8 -25.15 L7.55 -24.95 4.35 -22.7 -0.3 -19.95 -3.15 -18.75 -4.25 -18.3 -5.55 -18.45 Q-6.1 -17.9 -6.9 -20.15 L-7.2 -23.65 -7.1 -26.6 -6.35 -31.5" fill="url(#gradient42)" fill-rule="evenodd" stroke="none"/>
    <path d="M5.95 -32.85 L6.85 -31.5 8.15 -28.4 Q7.45 -26.15 -3.25 -22.65 -6.65 -22.25 -6.25 -31.5 L-5.55 -31.7 -5.4 -31.5 -5.35 -31.3 Q-4.05 -28.2 -1.25 -28.25 3.2 -29.0 4.25 -32.45 L4.35 -32.8 4.35 -32.85 5.1 -33.5 5.95 -32.85" fill="url(#gradient43)" fill-rule="evenodd" stroke="none"/>
    <path d="M-15.35 -33.9 Q-14.25 -34.4 -13.1 -34.85 L-12.7 -34.6 -11.95 -32.85 -11.9 -30.6 -12.65 -29.55 -12.85 -29.2 -13.1 -28.85 -13.85 -27.8 -13.95 -27.7 -14.05 -27.5 -14.6 -27.65 -15.5 -28.45 -15.9 -28.8 -16.2 -29.2 -16.7 -31.95 -16.8 -32.85 -15.75 -33.45 -15.35 -33.9" fill="url(#gradient44)" fill-rule="evenodd" stroke="none"/>
    <path d="M-16.8 -32.85 L-16.7 -31.95 -18.65 -32.35 -18.1 -32.65 -17.0 -32.85 -16.8 -32.85" fill="url(#gradient45)" fill-rule="evenodd" stroke="none"/>
    <path d="M-25.25 -33.8 Q-25.0 -34.45 -23.6 -35.15 L-21.9 -35.25 -23.3 -34.8 -25.25 -33.8 M-19.8 -31.1 L-20.75 -30.0 -21.35 -29.75 -22.35 -29.4 -23.4 -29.45 -21.9 -30.4 -19.8 -31.1" fill="url(#gradient46)" fill-rule="evenodd" stroke="none"/>
    <path d="M-25.85 -32.9 L-25.25 -33.8 -23.3 -34.8 -21.9 -35.25 -21.05 -35.25 -24.1 -33.45 -25.85 -32.9 M-24.6 -29.6 L-22.95 -31.1 -19.15 -32.15 -19.25 -31.7 -19.8 -31.1 -21.9 -30.4 -23.4 -29.45 -24.6 -29.6" fill="url(#gradient47)" fill-rule="evenodd" stroke="none"/>
    <path d="M5.95 -34.8 L7.05 -35.0 6.85 -31.5 5.95 -32.85 5.85 -34.45 5.85 -34.5 5.95 -34.8" fill="url(#gradient48)" fill-rule="evenodd" stroke="none"/>
    <path d="M5.85 -34.5 L5.85 -34.45 5.75 -34.45 5.85 -34.5" fill="url(#gradient49)" fill-rule="evenodd" stroke="none"/>
    <path d="M4.1 -32.35 L4.35 -32.8 4.25 -32.45 4.1 -32.35" fill="url(#gradient50)" fill-rule="evenodd" stroke="none"/>
    <path d="M-12.85 -29.2 L-12.65 -29.55 -12.3 -29.6 -12.55 -28.8 -12.85 -29.2" fill="url(#gradient51)" fill-rule="evenodd" stroke="none"/>
    <path d="M-12.3 -29.6 L-12.1 -29.65 -12.05 -28.55 -12.45 -28.65 -12.55 -28.8 -12.3 -29.6" fill="url(#gradient52)" fill-rule="evenodd" stroke="none"/>
    <path d="M-15.9 -28.8 L-15.5 -28.45 -16.3 -28.4 -15.9 -28.8 M-13.85 -27.8 L-13.1 -28.85 -12.95 -28.85 -13.05 -28.4 -13.6 -27.85 -13.7 -27.8 -13.8 -27.8 -13.85 -27.8 M-19.15 -32.15 L-18.7 -32.35 Q-15.95 -29.25 -20.75 -30.0 L-19.8 -31.1 -19.25 -31.7 -19.15 -32.15" fill="url(#gradient53)" fill-rule="evenodd" stroke="none"/>
    <path d="M-27.75 -31.75 L-29.55 -30.0 -30.05 -30.2 -28.95 -31.35 -27.75 -31.75 M-28.7 -27.85 L-29.15 -28.25 -28.75 -28.75 -25.95 -29.0 -27.15 -28.05 -28.7 -27.85" fill="url(#gradient54)" fill-rule="evenodd" stroke="none"/>
    <path d="M-16.7 -31.95 L-16.2 -29.2 -15.9 -28.8 -16.3 -28.4 -17.1 -27.85 Q-20.65 -27.15 -21.35 -29.75 L-20.75 -30.0 Q-15.95 -29.25 -18.7 -32.35 L-18.65 -32.35 -16.7 -31.95" fill="url(#gradient55)" fill-rule="evenodd" stroke="none"/>
    <path d="M-15.5 -28.45 L-14.6 -27.65 Q-16.05 -26.7 -17.1 -27.85 L-16.3 -28.4 -15.5 -28.45" fill="url(#gradient56)" fill-rule="evenodd" stroke="none"/>
    <path d="M-1.65 -29.85 L-1.15 -29.75 -1.65 -29.8 -1.65 -29.85" fill="url(#gradient57)" fill-rule="evenodd" stroke="none"/>
    <path d="M-3.55 -31.1 L-3.4 -30.95 -3.55 -30.95 -3.6 -31.1 -3.55 -31.1" fill="url(#gradient58)" fill-rule="evenodd" stroke="none"/>
    <path d="M-3.8 -31.4 L-3.55 -31.1 -3.6 -31.1 -3.65 -31.15 -3.8 -31.4" fill="url(#gradient59)" fill-rule="evenodd" stroke="none"/>
    <path d="M-6.35 -17.0 L-8.3 -22.05 -7.2 -23.65 -6.9 -20.15 Q-6.1 -17.9 -5.55 -18.45 L-5.7 -18.05 -6.1 -17.05 -6.3 -17.0 -6.35 -17.0" fill="url(#gradient60)" fill-rule="evenodd" stroke="none"/>
    <path d="M-6.35 -17.0 L-6.3 -17.0 -6.3 -16.8 -6.35 -17.0" fill="url(#gradient61)" fill-rule="evenodd" stroke="none"/>
    <path d="M-5.55 -18.45 L-4.25 -18.3 -3.15 -18.75 -2.85 -18.05 Q0.6 -6.95 6.4 -11.7 L6.7 -9.1 7.35 -6.6 Q8.5 -6.1 9.9 -3.3 11.2 4.15 -1.65 6.7 -12.75 3.85 -10.15 -3.3 L-9.0 -5.35 Q-6.45 -10.45 -6.3 -16.8 L-6.3 -17.0 -6.1 -17.05 -5.7 -18.05 -5.55 -18.45 M-0.3 -19.95 L4.35 -22.7 7.55 -24.95 6.45 -18.55 6.2 -15.25 6.25 -13.25 5.7 -12.0 Q3.2 -11.8 0.45 -18.05 L-0.3 -19.95" fill="url(#gradient62)" fill-rule="evenodd" stroke="none"/>
    <path d="M7.55 -24.95 L7.8 -25.15 Q11.3 -11.45 6.45 -11.8 L6.3 -11.8 5.7 -12.0 6.25 -13.25 6.45 -13.45 6.65 -17.4 6.45 -18.55 7.55 -24.95" fill="url(#gradient63)" fill-rule="evenodd" stroke="none"/>
    <path d="M-3.15 -18.75 L-0.3 -19.95 0.45 -18.05 Q3.2 -11.8 5.7 -12.0 L6.3 -11.8 6.45 -11.8 6.4 -11.7 Q0.6 -6.95 -2.85 -18.05 L-3.15 -18.75" fill="url(#gradient64)" fill-rule="evenodd" stroke="none"/>
    <path d="M-31.05 -29.6 L-32.0 -28.8 -32.35 -28.2 -32.7 -28.1 -32.6 -28.4 -32.0 -29.2 -31.05 -29.6 M-31.4 -26.6 L-31.9 -26.7 -32.1 -27.05 -31.95 -27.15 -29.85 -27.3 -29.35 -27.5 -29.9 -26.95 -31.4 -26.6" fill="url(#gradient65)" fill-rule="evenodd" stroke="none"/>
    <path d="M-13.1 -28.85 L-12.85 -29.2 -12.55 -28.8 -12.45 -28.65 -12.95 -28.85 -13.1 -28.85" fill="url(#gradient66)" fill-rule="evenodd" stroke="none"/>
    <path d="M-13.95 -27.7 L-13.85 -27.8 -13.8 -27.8 -13.95 -27.7" fill="url(#gradient67)" fill-rule="evenodd" stroke="none"/>
    <path d="M-14.05 -27.5 L-13.95 -27.7 -13.8 -27.8 -13.7 -27.8 -13.6 -27.85 -13.05 -28.4 -12.95 -28.85 -12.45 -28.65 -12.05 -28.55 Q-12.1 -26.85 -14.05 -27.5" fill="url(#gradient68)" fill-rule="evenodd" stroke="none"/>
    <path d="M-9.0 -5.35 L-10.15 -3.3 Q-12.75 3.85 -1.65 6.7 11.2 4.15 9.9 -3.3 8.5 -6.1 7.35 -6.6 L6.7 -9.1 Q13.45 -5.95 12.45 -0.25 10.55 7.9 2.25 9.6 -5.8 11.35 -10.75 5.85 -14.35 1.3 -9.0 -5.35" fill="url(#gradient69)" fill-rule="evenodd" stroke="none"/>
  </g>
  <defs>
    <radialGradient cx="0" cy="0" gradientTransform="matrix(0.0075, 0.0, 0.0, 0.0075, -2.95, -50.15)" gradientUnits="userSpaceOnUse" id="gradient0" r="819.2" spreadMethod="pad">
      <stop offset="0.0" stop-color="#7e72a1"/>
      <stop offset="1.0" stop-color="#453f59"/>
    </radialGradient>
    <radialGradient cx="0" cy="0" gradientTransform="matrix(0.0068, 0.0, 0.0, 0.0068, -7.25, -51.4)" gradientUnits="userSpaceOnUse" id="gradient1" r="819.2" spreadMethod="pad">
      <stop offset="0.0" stop-color="#7e73a2"/>
      <stop offset="1.0" stop-color="#524a69"/>
    </radialGradient>
    <radialGradient cx="0" cy="0" gradientTransform="matrix(0.0029, 0.0, 0.0, 0.0029, -6.35, -49.4)" gradientUnits="userSpaceOnUse" id="gradient2" r="819.2" spreadMethod="pad">
      <stop offset="0.0" stop-color="#776c98"/>
      <stop offset="1.0" stop-color="#3c374e"/>
    </radialGradient>
    <radialGradient cx="0" cy="0" gradientTransform="matrix(0.01, 0.0, 0.0, 0.01, -9.4, -42.55)" gradientUnits="userSpaceOnUse" id="gradient3" r="819.2" spreadMethod="pad">
      <stop offset="0.0" stop-color="#453e58"/>
      <stop offset="1.0" stop-color="#0f0e13"/>
    </radialGradient>
    <radialGradient cx="0" cy="0" gradientTransform="matrix(0.0115, 0.0, 0.0, 0.0115, -5.7, -48.2)" gradientUnits="userSpaceOnUse" id="gradient4" r="819.2" spreadMethod="pad">
      <stop offset="0.0" stop-color="#766b97"/>
      <stop offset="1.0" stop-color="#393449"/>
    </radialGradient>
    <radialGradient cx="0" cy="0" gradientTransform="matrix(0.0036, 0.0, 0.0, 0.0036, -4.6, -48.9)" gradientUnits="userSpaceOnUse" id="gradient5" r="819.2" spreadMethod="pad">
      <stop offset="0.0" stop-color="#726791"/>
      <stop offset="1.0" stop-color="#645b81"/>
    </radialGradient>
    <radialGradient cx="0" cy="0" gradientTransform="matrix(0.0062, 0.0, 0.0, 0.0062, -1.6, -49.15)" gradientUnits="userSpaceOnUse" id="gradient6" r="819.2" spreadMethod="pad">
      <stop offset="0.0" stop-color="#7c719f"/>
      <stop offset="1.0" stop-color="#585071"/>
    </radialGradient>
    <radialGradient cx="0" cy="0" gradientTransform="matrix(0.0235, 0.0, 0.0, 0.0235, -3.65, -48.5)" gradientUnits="userSpaceOnUse" id="gradient7" r="819.2" spreadMethod="pad">
      <stop offset="0.0" stop-color="#766b97"/>
      <stop offset="1.0" stop-color="#3d374e"/>
    </radialGradient>
    <radialGradient cx="0" cy="0" gradientTransform="matrix(0.0076, 0.0, 0.0, 0.0076, -2.7, -50.15)" gradientUnits="userSpaceOnUse" id="gradient8" r="819.2" spreadMethod="pad">
      <stop offset="0.0" stop-color="#756a96"/>
      <stop offset="1.0" stop-color="#564e6e"/>
    </radialGradient>
    <radialGradient cx="0" cy="0" gradientTransform="matrix(0.0066, 0.0, 0.0, 0.0066, -2.7, -53.45)" gradientUnits="userSpaceOnUse" id="gradient9" r="819.2" spreadMethod="pad">
      <stop offset="0.0" stop-color="#7a6f9c"/>
      <stop offset="1.0" stop-color="#47405b"/>
    </radialGradient>
    <radialGradient cx="0" cy="0" gradientTransform="matrix(0.0232, 0.0, 0.0, 0.0232, -1.15, -51.2)" gradientUnits="userSpaceOnUse" id="gradient10" r="819.2" spreadMethod="pad">
      <stop offset="0.0" stop-color="#766b97"/>
      <stop offset="1.0" stop-color="#332e41"/>
    </radialGradient>
    <radialGradient cx="0" cy="0" gradientTransform="matrix(0.0175, 0.0, 0.0, 0.0175, 0.75, -49.55)" gradientUnits="userSpaceOnUse" id="gradient11" r="819.2" spreadMethod="pad">
      <stop offset="0.0" stop-color="#7e72a1"/>
      <stop offset="1.0" stop-color="#443e58"/>
    </radialGradient>
    <radialGradient cx="0" cy="0" gradientTransform="matrix(0.0058, 0.0, 0.0, 0.0058, -4.8, -47.25)" gradientUnits="userSpaceOnUse" id="gradient12" r="819.2" spreadMethod="pad">
      <stop offset="0.0" stop-color="#716791"/>
      <stop offset="1.0" stop-color="#373246"/>
    </radialGradient>
    <radialGradient cx="0" cy="0" gradientTransform="matrix(0.0099, 0.0, 0.0, 0.0099, -5.95, -44.5)" gradientUnits="userSpaceOnUse" id="gradient13" r="819.2" spreadMethod="pad">
      <stop offset="0.0" stop-color="#2b3d58"/>
      <stop offset="1.0" stop-color="#233349"/>
    </radialGradient>
    <radialGradient cx="0" cy="0" gradientTransform="matrix(0.0016, 0.0, 0.0, 0.0016, -10.2, -38.95)" gradientUnits="userSpaceOnUse" id="gradient14" r="819.2" spreadMethod="pad">
      <stop offset="0.0" stop-color="#4f87a9"/>
      <stop offset="1.0" stop-color="#375e76"/>
    </radialGradient>
    <radialGradient cx="0" cy="0" gradientTransform="matrix(0.0063, 0.0, 0.0, 0.0063, -8.65, -37.7)" gradientUnits="userSpaceOnUse" id="gradient15" r="819.2" spreadMethod="pad">
      <stop offset="0.0" stop-color="#2d405c"/>
      <stop offset="1.0" stop-color="#1a2536"/>
    </radialGradient>
    <radialGradient cx="0" cy="0" gradientTransform="matrix(0.0032, 0.0, 0.0, 0.0032, -12.9, -34.95)" gradientUnits="userSpaceOnUse" id="gradient16" r="819.2" spreadMethod="pad">
      <stop offset="0.0" stop-color="#6ab6e3"/>
      <stop offset="1.0" stop-color="#365d74"/>
    </radialGradient>
    <radialGradient cx="0" cy="0" gradientTransform="matrix(0.025, 0.0, 0.0, 0.025, -19.5, -34.55)" gradientUnits="userSpaceOnUse" id="gradient17" r="819.2" spreadMethod="pad">
      <stop offset="0.0" stop-color="#68380d"/>
      <stop offset="1.0" stop-color="#402307"/>
    </radialGradient>
    <radialGradient cx="0" cy="0" gradientTransform="matrix(0.0041, 0.0, 0.0, 0.0041, -17.75, -36.15)" gradientUnits="userSpaceOnUse" id="gradient18" r="819.2" spreadMethod="pad">
      <stop offset="0.0" stop-color="#ffa800"/>
      <stop offset="1.0" stop-color="#8d4700"/>
    </radialGradient>
    <radialGradient cx="0" cy="0" gradientTransform="matrix(0.008, 0.0, 0.0, 0.008, -3.85, -46.95)" gradientUnits="userSpaceOnUse" id="gradient19" r="819.2" spreadMethod="pad">
      <stop offset="0.0" stop-color="#776c98"/>
      <stop offset="1.0" stop-color="#3c374d"/>
    </radialGradient>
    <radialGradient cx="0" cy="0" gradientTransform="matrix(0.0062, 0.0, 0.0, 0.0062, -3.6, -43.85)" gradientUnits="userSpaceOnUse" id="gradient20" r="819.2" spreadMethod="pad">
      <stop offset="0.0" stop-color="#f5b165"/>
      <stop offset="1.0" stop-color="#956c3d"/>
    </radialGradient>
    <radialGradient cx="0" cy="0" gradientTransform="matrix(0.0163, 0.0, 0.0, 0.0163, -5.1, -38.85)" gradientUnits="userSpaceOnUse" id="gradient21" r="819.2" spreadMethod="pad">
      <stop offset="0.0" stop-color="#385072"/>
      <stop offset="1.0" stop-color="#1c283a"/>
    </radialGradient>
    <radialGradient cx="0" cy="0" gradientTransform="matrix(0.0037, 0.0, 0.0, 0.0037, -7.7, -41.75)" gradientUnits="userSpaceOnUse" id="gradient22" r="819.2" spreadMethod="pad">
      <stop offset="0.0" stop-color="#79cfff"/>
      <stop offset="1.0" stop-color="#538eb1"/>
    </radialGradient>
    <radialGradient cx="0" cy="0" gradientTransform="matrix(0.0326, 0.0, 0.0, 0.0326, 9.65, -23.6)" gradientUnits="userSpaceOnUse" id="gradient23" r="819.2" spreadMethod="pad">
      <stop offset="0.0" stop-color="#5a5274"/>
      <stop offset="1.0" stop-color="#48425d"/>
    </radialGradient>
    <radialGradient cx="0" cy="0" gradientTransform="matrix(0.0268, 0.0, 0.0, 0.0268, 9.7, -27.0)" gradientUnits="userSpaceOnUse" id="gradient24" r="819.2" spreadMethod="pad">
      <stop offset="0.0" stop-color="#554d6d"/>
      <stop offset="1.0" stop-color="#443e58"/>
    </radialGradient>
    <radialGradient cx="0" cy="0" gradientTransform="matrix(0.0066, 0.0, 0.0, 0.0066, 3.3, -42.15)" gradientUnits="userSpaceOnUse" id="gradient25" r="819.2" spreadMethod="pad">
      <stop offset="0.0" stop-color="#74c7f8"/>
      <stop offset="1.0" stop-color="#5999be"/>
    </radialGradient>
    <radialGradient cx="0" cy="0" gradientTransform="matrix(0.0087, 0.0, 0.0, 0.0087, -3.0, -43.1)" gradientUnits="userSpaceOnUse" id="gradient26" r="819.2" spreadMethod="pad">
      <stop offset="0.0" stop-color="#fffad0"/>
      <stop offset="1.0" stop-color="#d8cba9"/>
    </radialGradient>
    <radialGradient cx="0" cy="0" gradientTransform="matrix(0.0072, 0.0, 0.0, 0.0072, -1.8, -41.25)" gradientUnits="userSpaceOnUse" id="gradient27" r="819.2" spreadMethod="pad">
      <stop offset="0.0" stop-color="#324867"/>
      <stop offset="1.0" stop-color="#233248"/>
    </radialGradient>
    <radialGradient cx="0" cy="0" gradientTransform="matrix(0.0068, 0.0, 0.0, 0.0068, -1.05, -40.75)" gradientUnits="userSpaceOnUse" id="gradient28" r="819.2" spreadMethod="pad">
      <stop offset="0.0" stop-color="#fcb668"/>
      <stop offset="1.0" stop-color="#cb9254"/>
    </radialGradient>
    <radialGradient cx="0" cy="0" gradientTransform="matrix(0.0033, 0.0, 0.0, 0.0033, 7.6, -42.85)" gradientUnits="userSpaceOnUse" id="gradient29" r="819.2" spreadMethod="pad">
      <stop offset="0.0" stop-color="#0e181e"/>
      <stop offset="1.0" stop-color="#0e181e"/>
    </radialGradient>
    <radialGradient cx="0" cy="0" gradientTransform="matrix(0.0122, 0.0, 0.0, 0.0122, -0.35, -37.05)" gradientUnits="userSpaceOnUse" id="gradient30" r="819.2" spreadMethod="pad">
      <stop offset="0.0" stop-color="#304462"/>
      <stop offset="1.0" stop-color="#1d2a3c"/>
    </radialGradient>
    <radialGradient cx="0" cy="0" gradientTransform="matrix(0.0035, 0.0, 0.0, 0.0035, -7.9, -44.45)" gradientUnits="userSpaceOnUse" id="gradient31" r="819.2" spreadMethod="pad">
      <stop offset="0.0" stop-color="#0e181e"/>
      <stop offset="1.0" stop-color="#0e181e"/>
    </radialGradient>
    <radialGradient cx="0" cy="0" gradientTransform="matrix(0.0081, 0.0, 0.0, 0.0081, -1.45, -42.7)" gradientUnits="userSpaceOnUse" id="gradient32" r="819.2" spreadMethod="pad">
      <stop offset="0.0" stop-color="#344b6b"/>
      <stop offset="1.0" stop-color="#2d415d"/>
    </radialGradient>
    <radialGradient cx="0" cy="0" gradientTransform="matrix(0.002, 0.0, 0.0, 0.002, -4.0, -43.75)" gradientUnits="userSpaceOnUse" id="gradient33" r="819.2" spreadMethod="pad">
      <stop offset="0.0" stop-color="#261c10"/>
      <stop offset="1.0" stop-color="#261c10"/>
    </radialGradient>
    <radialGradient cx="0" cy="0" gradientTransform="matrix(0.0031, 0.0, 0.0, 0.0031, -2.0, -40.7)" gradientUnits="userSpaceOnUse" id="gradient34" r="819.2" spreadMethod="pad">
      <stop offset="0.0" stop-color="#223147"/>
      <stop offset="1.0" stop-color="#212f44"/>
    </radialGradient>
    <radialGradient cx="0" cy="0" gradientTransform="matrix(0.004, 0.0, 0.0, 0.004, -1.5, -42.4)" gradientUnits="userSpaceOnUse" id="gradient35" r="819.2" spreadMethod="pad">
      <stop offset="0.0" stop-color="#324766"/>
      <stop offset="1.0" stop-color="#304563"/>
    </radialGradient>
    <radialGradient cx="0" cy="0" gradientTransform="matrix(0.0012, 0.0, 0.0, 0.0012, -5.95, -42.25)" gradientUnits="userSpaceOnUse" id="gradient36" r="819.2" spreadMethod="pad">
      <stop offset="0.0" stop-color="#4b82a2"/>
      <stop offset="1.0" stop-color="#4b81a1"/>
    </radialGradient>
    <radialGradient cx="0" cy="0" gradientTransform="matrix(0.002, 0.0, 0.0, 0.002, -6.25, -42.1)" gradientUnits="userSpaceOnUse" id="gradient37" r="819.2" spreadMethod="pad">
      <stop offset="0.0" stop-color="#5491b5"/>
      <stop offset="1.0" stop-color="#5491b4"/>
    </radialGradient>
    <radialGradient cx="0" cy="0" gradientTransform="matrix(0.0089, 0.0, 0.0, 0.0089, -1.1, -37.0)" gradientUnits="userSpaceOnUse" id="gradient38" r="819.2" spreadMethod="pad">
      <stop offset="0.0" stop-color="#60a4cd"/>
      <stop offset="1.0" stop-color="#365d74"/>
    </radialGradient>
    <radialGradient cx="0" cy="0" gradientTransform="matrix(0.0058, 0.0, 0.0, 0.0058, -9.0, -34.65)" gradientUnits="userSpaceOnUse" id="gradient39" r="819.2" spreadMethod="pad">
      <stop offset="0.0" stop-color="#2e425f"/>
      <stop offset="1.0" stop-color="#213045"/>
    </radialGradient>
    <radialGradient cx="0" cy="0" gradientTransform="matrix(0.0105, 0.0, 0.0, 0.0105, -4.25, -32.1)" gradientUnits="userSpaceOnUse" id="gradient40" r="819.2" spreadMethod="pad">
      <stop offset="0.0" stop-color="#baaf92"/>
      <stop offset="1.0" stop-color="#6f6957"/>
    </radialGradient>
    <radialGradient cx="0" cy="0" gradientTransform="matrix(0.0079, 0.0, 0.0, 0.0079, -9.0, -34.65)" gradientUnits="userSpaceOnUse" id="gradient41" r="819.2" spreadMethod="pad">
      <stop offset="0.0" stop-color="#63aad4"/>
      <stop offset="1.0" stop-color="#406e8a"/>
    </radialGradient>
    <radialGradient cx="0" cy="0" gradientTransform="matrix(0.0188, 0.0, 0.0, 0.0188, -2.15, -19.2)" gradientUnits="userSpaceOnUse" id="gradient42" r="819.2" spreadMethod="pad">
      <stop offset="0.0" stop-color="#6bb8e6"/>
      <stop offset="1.0" stop-color="#4d83a4"/>
    </radialGradient>
    <radialGradient cx="0" cy="0" gradientTransform="matrix(0.0139, 0.0, 0.0, 0.0139, 4.2, -27.7)" gradientUnits="userSpaceOnUse" id="gradient43" r="819.2" spreadMethod="pad">
      <stop offset="0.0" stop-color="#364e6f"/>
      <stop offset="1.0" stop-color="#233248"/>
    </radialGradient>
    <radialGradient cx="0" cy="0" gradientTransform="matrix(0.0087, 0.0, 0.0, 0.0087, -17.05, -34.15)" gradientUnits="userSpaceOnUse" id="gradient44" r="819.2" spreadMethod="pad">
      <stop offset="0.0" stop-color="#2c3f5a"/>
      <stop offset="1.0" stop-color="#1e2a3d"/>
    </radialGradient>
    <radialGradient cx="0" cy="0" gradientTransform="matrix(0.0021, 0.0, 0.0, 0.0021, -18.3, -32.75)" gradientUnits="userSpaceOnUse" id="gradient45" r="819.2" spreadMethod="pad">
      <stop offset="0.0" stop-color="#ffe181"/>
      <stop offset="1.0" stop-color="#fdcc75"/>
    </radialGradient>
    <radialGradient cx="0" cy="0" gradientTransform="matrix(0.0073, 0.0, 0.0, 0.0073, -25.2, -33.75)" gradientUnits="userSpaceOnUse" id="gradient46" r="819.2" spreadMethod="pad">
      <stop offset="0.0" stop-color="#ff8b00"/>
      <stop offset="1.0" stop-color="#be5f00"/>
    </radialGradient>
    <radialGradient cx="0" cy="0" gradientTransform="matrix(0.0056, 0.0, 0.0, 0.0056, -22.95, -33.9)" gradientUnits="userSpaceOnUse" id="gradient47" r="819.2" spreadMethod="pad">
      <stop offset="0.0" stop-color="#cec2a1"/>
      <stop offset="1.0" stop-color="#706957"/>
    </radialGradient>
    <radialGradient cx="0" cy="0" gradientTransform="matrix(0.0102, 0.0, 0.0, 0.0102, 6.8, -34.25)" gradientUnits="userSpaceOnUse" id="gradient48" r="819.2" spreadMethod="pad">
      <stop offset="0.0" stop-color="#544c6c"/>
      <stop offset="1.0" stop-color="#443e58"/>
    </radialGradient>
    <radialGradient cx="0" cy="0" gradientTransform="matrix(0.011, 0.0, 0.0, 0.011, 6.5, -25.9)" gradientUnits="userSpaceOnUse" id="gradient49" r="819.2" spreadMethod="pad">
      <stop offset="0.0" stop-color="#201d29"/>
      <stop offset="1.0" stop-color="#0f0e13"/>
    </radialGradient>
    <radialGradient cx="0" cy="0" gradientTransform="matrix(0.0128, 0.0, 0.0, 0.0128, 4.1, -32.55)" gradientUnits="userSpaceOnUse" id="gradient50" r="819.2" spreadMethod="pad">
      <stop offset="0.0" stop-color="#6f6957"/>
      <stop offset="1.0" stop-color="#1f1e19"/>
    </radialGradient>
    <radialGradient cx="0" cy="0" gradientTransform="matrix(0.0055, 0.0, 0.0, 0.0055, -12.0, -33.35)" gradientUnits="userSpaceOnUse" id="gradient51" r="819.2" spreadMethod="pad">
      <stop offset="0.0" stop-color="#25364d"/>
      <stop offset="1.0" stop-color="#16212f"/>
    </radialGradient>
    <radialGradient cx="0" cy="0" gradientTransform="matrix(0.0024, 0.0, 0.0, 0.0024, -12.05, -28.6)" gradientUnits="userSpaceOnUse" id="gradient52" r="819.2" spreadMethod="pad">
      <stop offset="0.0" stop-color="#1c293b"/>
      <stop offset="1.0" stop-color="#182331"/>
    </radialGradient>
    <radialGradient cx="0" cy="0" gradientTransform="matrix(0.0121, 0.0, 0.0, 0.0121, -21.2, -32.4)" gradientUnits="userSpaceOnUse" id="gradient53" r="819.2" spreadMethod="pad">
      <stop offset="0.0" stop-color="#482709"/>
      <stop offset="1.0" stop-color="#311a06"/>
    </radialGradient>
    <radialGradient cx="0" cy="0" gradientTransform="matrix(0.0041, 0.0, 0.0, 0.0041, -29.0, -30.5)" gradientUnits="userSpaceOnUse" id="gradient54" r="819.2" spreadMethod="pad">
      <stop offset="0.0" stop-color="#ffa600"/>
      <stop offset="1.0" stop-color="#c36200"/>
    </radialGradient>
    <radialGradient cx="0" cy="0" gradientTransform="matrix(0.0045, 0.0, 0.0, 0.0045, -18.3, -31.4)" gradientUnits="userSpaceOnUse" id="gradient55" r="819.2" spreadMethod="pad">
      <stop offset="0.0" stop-color="#ffe080"/>
      <stop offset="1.0" stop-color="#976d3e"/>
    </radialGradient>
    <radialGradient cx="0" cy="0" gradientTransform="matrix(0.002, 0.0, 0.0, 0.002, -15.85, -28.95)" gradientUnits="userSpaceOnUse" id="gradient56" r="819.2" spreadMethod="pad">
      <stop offset="0.0" stop-color="#ffd97c"/>
      <stop offset="1.0" stop-color="#976e3e"/>
    </radialGradient>
    <radialGradient cx="0" cy="0" gradientTransform="matrix(0.0016, 0.0, 0.0, 0.0016, -1.25, -29.8)" gradientUnits="userSpaceOnUse" id="gradient57" r="819.2" spreadMethod="pad">
      <stop offset="0.0" stop-color="#22201b"/>
      <stop offset="1.0" stop-color="#1f1e19"/>
    </radialGradient>
    <radialGradient cx="0" cy="0" gradientTransform="matrix(0.0016, 0.0, 0.0, 0.0016, -3.6, -31.15)" gradientUnits="userSpaceOnUse" id="gradient58" r="819.2" spreadMethod="pad">
      <stop offset="0.0" stop-color="#182231"/>
      <stop offset="1.0" stop-color="#141d2a"/>
    </radialGradient>
    <radialGradient cx="0" cy="0" gradientTransform="matrix(0.0023, 0.0, 0.0, 0.0023, -4.15, -32.05)" gradientUnits="userSpaceOnUse" id="gradient59" r="819.2" spreadMethod="pad">
      <stop offset="0.0" stop-color="#182231"/>
      <stop offset="1.0" stop-color="#151e2b"/>
    </radialGradient>
    <radialGradient cx="0" cy="0" gradientTransform="matrix(0.0093, 0.0, 0.0, 0.0093, -6.9, -24.35)" gradientUnits="userSpaceOnUse" id="gradient60" r="819.2" spreadMethod="pad">
      <stop offset="0.0" stop-color="#a2987f"/>
      <stop offset="1.0" stop-color="#7b7460"/>
    </radialGradient>
    <radialGradient cx="0" cy="0" gradientTransform="matrix(0.0034, 0.0, 0.0, 0.0034, -6.35, -16.5)" gradientUnits="userSpaceOnUse" id="gradient61" r="819.2" spreadMethod="pad">
      <stop offset="0.0" stop-color="#06090d"/>
      <stop offset="1.0" stop-color="#06090d"/>
    </radialGradient>
    <radialGradient cx="0" cy="0" gradientTransform="matrix(0.0408, 0.0, 0.0, 0.0408, -3.6, 6.4)" gradientUnits="userSpaceOnUse" id="gradient62" r="819.2" spreadMethod="pad">
      <stop offset="0.0" stop-color="#314766"/>
      <stop offset="1.0" stop-color="#1f2d40"/>
    </radialGradient>
    <radialGradient cx="0" cy="0" gradientTransform="matrix(0.0205, 0.0, 0.0, 0.0205, 5.25, -11.6)" gradientUnits="userSpaceOnUse" id="gradient63" r="819.2" spreadMethod="pad">
      <stop offset="0.0" stop-color="#302e26"/>
      <stop offset="1.0" stop-color="#1f1e19"/>
    </radialGradient>
    <radialGradient cx="0" cy="0" gradientTransform="matrix(0.0179, 0.0, 0.0, 0.0179, -1.4, -24.15)" gradientUnits="userSpaceOnUse" id="gradient64" r="819.2" spreadMethod="pad">
      <stop offset="0.0" stop-color="#c9be9e"/>
      <stop offset="1.0" stop-color="#676151"/>
    </radialGradient>
    <radialGradient cx="0" cy="0" gradientTransform="matrix(0.0032, 0.0, 0.0, 0.0032, -31.8, -28.7)" gradientUnits="userSpaceOnUse" id="gradient65" r="819.2" spreadMethod="pad">
      <stop offset="0.0" stop-color="#ffa800"/>
      <stop offset="1.0" stop-color="#c36200"/>
    </radialGradient>
    <radialGradient cx="0" cy="0" gradientTransform="matrix(0.0033, 0.0, 0.0, 0.0033, -14.45, -29.8)" gradientUnits="userSpaceOnUse" id="gradient66" r="819.2" spreadMethod="pad">
      <stop offset="0.0" stop-color="#06090d"/>
      <stop offset="1.0" stop-color="#06090d"/>
    </radialGradient>
    <radialGradient cx="0" cy="0" gradientTransform="matrix(0.0015, 0.0, 0.0, 0.0015, -13.7, -27.9)" gradientUnits="userSpaceOnUse" id="gradient67" r="819.2" spreadMethod="pad">
      <stop offset="0.0" stop-color="#ffffe1"/>
      <stop offset="1.0" stop-color="#ffffe1"/>
    </radialGradient>
    <radialGradient cx="0" cy="0" gradientTransform="matrix(0.002, 0.0, 0.0, 0.002, -13.0, -28.9)" gradientUnits="userSpaceOnUse" id="gradient68" r="819.2" spreadMethod="pad">
      <stop offset="0.0" stop-color="#807864"/>
      <stop offset="1.0" stop-color="#494539"/>
    </radialGradient>
    <radialGradient cx="0" cy="0" gradientTransform="matrix(0.0285, 0.0, 0.0, 0.0285, -7.15, 8.7)" gradientUnits="userSpaceOnUse" id="gradient69" r="819.2" spreadMethod="pad">
      <stop offset="0.0" stop-color="#70c0ef"/>
      <stop offset="1.0" stop-color="#4d84a5"/>
    </radialGradient>
  </defs>
</svg>
