<?xml version="1.0" encoding="UTF-8" standalone="no"?>
<svg xmlns:ffdec="https://www.free-decompiler.com/flash" xmlns:xlink="http://www.w3.org/1999/xlink" ffdec:objectType="shape" height="69.3px" width="59.7px" xmlns="http://www.w3.org/2000/svg">
  <g transform="matrix(1.0, 0.0, 0.0, 1.0, 29.85, 34.65)">
    <path d="M11.05 -32.55 L12.5 -34.1 13.05 -34.65 14.15 -34.4 17.75 -33.05 Q23.75 -25.1 23.25 -24.1 L24.45 -20.65 24.55 -20.6 24.8 -19.65 23.55 -22.45 Q16.95 -37.9 11.5 -32.6 L11.45 -32.55 11.05 -32.55 M26.0 -14.45 L26.85 -12.45 27.0 -11.65 28.0 -6.6 28.05 -6.25 27.95 -6.3 26.0 -14.45 M25.95 -16.45 L25.6 -17.5 25.95 -16.85 25.95 -16.45" fill="url(#gradient0)" fill-rule="evenodd" stroke="none"/>
    <path d="M10.6 -32.65 L10.7 -32.75 10.6 -32.9 10.6 -33.0 Q11.1 -34.25 11.35 -34.2 L12.5 -34.1 11.05 -32.55 10.75 -32.45 10.6 -32.55 10.6 -32.65 M24.55 -20.6 L24.45 -20.65 23.25 -24.1 25.25 -21.1 29.85 -11.75 29.8 -11.65 29.7 -11.8 24.55 -20.6" fill="url(#gradient1)" fill-rule="evenodd" stroke="none"/>
    <path d="M10.6 -32.9 L10.35 -32.8 10.25 -33.05 10.6 -33.0 10.6 -32.9" fill="url(#gradient2)" fill-rule="evenodd" stroke="none"/>
    <path d="M10.35 -32.8 L10.4 -32.7 10.5 -32.55 9.5 -32.3 8.35 -31.3 8.15 -31.3 8.35 -31.5 8.25 -31.75 Q9.2 -33.15 9.6 -33.05 L10.25 -33.05 10.35 -32.8" fill="url(#gradient3)" fill-rule="evenodd" stroke="none"/>
    <path d="M8.25 -31.75 L8.35 -31.5 8.15 -31.3 7.55 -31.15 7.25 -30.8 7.2 -30.45 7.0 -30.35 6.35 -28.7 Q5.9 -31.45 8.25 -31.75" fill="url(#gradient4)" fill-rule="evenodd" stroke="none"/>
    <path d="M7.2 -30.45 L7.3 -30.35 6.8 -27.25 6.65 -27.55 6.55 -27.85 6.35 -28.65 6.35 -28.7 7.0 -30.35 7.2 -30.45 M11.1 -20.55 L10.8 -21.2 11.4 -20.6 11.45 -20.5 11.55 -20.4 12.5 -19.35 12.7 -19.0 11.35 -20.25 11.3 -20.35 11.2 -20.45 11.1 -20.55" fill="url(#gradient5)" fill-rule="evenodd" stroke="none"/>
    <path d="M8.15 -31.3 L8.35 -31.3 7.85 -30.15 7.95 -29.65 8.35 -29.6 Q7.25 -27.8 9.95 -23.25 L10.7 -21.45 10.8 -21.2 11.1 -20.55 11.15 -20.45 11.2 -20.35 11.35 -19.9 11.45 -19.7 12.95 -17.75 13.9 -16.55 13.9 -16.45 12.45 -16.9 10.2 -19.5 10.15 -19.6 10.1 -19.75 9.3 -21.15 8.7 -22.45 8.65 -22.5 8.25 -23.25 6.65 -26.3 6.8 -27.25 7.3 -30.35 7.2 -30.45 7.25 -30.8 7.55 -31.15 8.15 -31.3 M16.6 -13.15 L17.9 -11.4 21.15 -8.4 22.1 -7.6 22.4 -7.3 25.15 -4.8 25.3 -4.6 26.15 -3.8 25.3 -4.4 25.15 -4.55 22.7 -6.65 22.35 -6.95 21.55 -7.65 18.2 -10.55 17.95 -10.7 17.75 -10.9 16.2 -12.55 14.95 -15.05 15.15 -14.9 16.6 -13.15" fill="url(#gradient6)" fill-rule="evenodd" stroke="none"/>
    <path d="M11.35 -31.75 L11.3 -31.85 11.45 -32.55 11.5 -32.6 Q16.95 -37.9 23.55 -22.45 L24.8 -19.65 25.6 -17.5 25.95 -16.45 25.95 -16.4 26.0 -16.2 28.2 -8.65 28.05 -8.6 27.0 -11.65 26.85 -12.45 26.0 -14.45 26.0 -14.6 25.95 -14.65 24.9 -17.9 23.7 -20.0 20.7 -25.85 19.8 -26.85 Q19.5 -30.35 14.1 -31.3 L12.5 -31.65 11.85 -31.55 11.35 -31.75" fill="url(#gradient7)" fill-rule="evenodd" stroke="none"/>
    <path d="M10.75 -32.45 L11.05 -32.55 11.45 -32.55 11.3 -31.85 10.75 -32.45 M9.95 -23.25 Q7.25 -27.8 8.35 -29.6 8.6 -29.45 8.8 -29.35 8.2 -29.4 8.25 -27.25 L10.35 -23.0 9.95 -23.25 M12.2 -30.15 L11.35 -31.75 11.85 -31.55 12.5 -31.65 14.1 -31.3 Q12.4 -30.2 12.45 -30.5 L12.2 -30.15" fill="url(#gradient8)" fill-rule="evenodd" stroke="none"/>
    <path d="M10.4 -32.7 L10.35 -32.8 10.6 -32.9 10.7 -32.75 10.6 -32.65 10.4 -32.7" fill="url(#gradient9)" fill-rule="evenodd" stroke="none"/>
    <path d="M10.4 -32.7 L10.6 -32.65 10.6 -32.55 10.5 -32.55 10.4 -32.7" fill="url(#gradient10)" fill-rule="evenodd" stroke="none"/>
    <path d="M8.35 -31.3 L9.5 -32.3 10.5 -32.55 10.6 -32.55 10.75 -32.45 11.3 -31.85 11.35 -31.75 12.2 -30.15 11.75 -29.65 10.4 -29.4 10.25 -29.5 8.8 -29.35 Q8.6 -29.45 8.35 -29.6 L7.95 -29.65 7.85 -30.15 8.35 -31.3 M16.9 -18.6 L16.35 -20.15 17.05 -19.15 19.7 -14.3 20.05 -13.3 16.9 -18.6" fill="url(#gradient11)" fill-rule="evenodd" stroke="none"/>
    <path d="M11.75 -29.65 L12.2 -30.15 12.45 -30.5 Q12.4 -30.2 14.1 -31.3 19.5 -30.35 19.8 -26.85 L20.9 -24.15 21.95 -20.25 23.15 -15.65 25.15 -4.8 22.4 -7.3 21.25 -10.1 21.2 -10.2 20.25 -12.8 20.05 -13.3 19.7 -14.3 17.05 -19.15 16.05 -21.05 15.5 -22.45 Q14.35 -25.8 12.15 -26.95 L12.05 -27.7 12.3 -28.5 12.5 -28.75 12.35 -29.1 11.75 -29.65 M22.7 -6.65 L25.15 -4.55 25.3 -3.4 25.7 0.7 23.8 -3.05 23.35 -5.0 22.7 -6.65 M25.5 2.65 L24.6 -0.75 25.75 0.8 26.15 4.45 25.5 2.65" fill="url(#gradient12)" fill-rule="evenodd" stroke="none"/>
    <path d="M19.8 -26.85 L20.7 -25.85 23.7 -20.0 25.55 -12.5 26.85 -2.8 26.85 -2.55 26.55 -3.35 24.85 -11.3 24.0 -13.5 23.4 -16.85 21.95 -20.25 20.9 -24.15 19.8 -26.85" fill="url(#gradient13)" fill-rule="evenodd" stroke="none"/>
    <path d="M21.95 -20.25 L23.4 -16.85 24.0 -13.5 25.2 -7.15 25.3 -4.6 25.15 -4.8 23.15 -15.65 21.95 -20.25 M16.35 -20.15 L16.05 -21.05 17.05 -19.15 16.35 -20.15 M21.25 -10.1 L22.4 -7.3 22.1 -7.6 21.25 -10.1 M22.35 -6.95 L22.7 -6.65 23.35 -5.0 23.8 -3.05 23.0 -4.65 22.35 -6.95 M25.15 -4.55 L25.3 -4.4 25.3 -3.4 25.15 -4.55 M24.35 6.05 L24.4 3.85 24.15 2.5 23.45 -2.4 24.6 -0.75 25.5 2.65 24.4 11.95 24.3 12.0 24.35 6.05" fill="url(#gradient14)" fill-rule="evenodd" stroke="none"/>
    <path d="M20.35 -10.35 L20.25 -10.55 18.1 -15.3 16.9 -18.6 20.05 -13.3 20.25 -12.8 20.35 -10.35 M17.75 -10.9 L17.95 -10.7 20.6 -6.5 20.65 -5.35 20.15 3.5 18.7 10.85 18.6 10.8 18.85 4.25 18.85 4.15 18.7 2.15 18.45 -1.3 18.2 -4.2 16.8 -10.55 16.75 -10.9 16.65 -11.15 16.65 -11.2 17.35 -10.55 17.5 -10.0 17.6 -10.55 17.75 -10.9" fill="url(#gradient15)" fill-rule="evenodd" stroke="none"/>
    <path d="M10.35 -23.0 L8.25 -27.25 Q8.2 -29.4 8.8 -29.35 L10.25 -29.5 10.4 -29.4 11.75 -29.65 12.35 -29.1 12.5 -28.75 12.3 -28.5 12.05 -27.7 12.15 -26.95 Q14.35 -25.8 15.5 -22.45 L16.05 -21.05 16.35 -20.15 16.9 -18.6 18.1 -15.3 20.25 -10.55 20.35 -10.35 21.15 -8.4 17.9 -11.4 16.6 -13.15 16.0 -14.45 14.55 -16.25 Q14.45 -16.3 14.3 -16.4 L14.2 -16.55 13.5 -17.75 12.7 -19.0 12.5 -19.35 11.9 -20.3 11.75 -20.65 11.7 -20.7 11.35 -21.3 10.35 -23.0 M17.95 -10.7 L18.2 -10.55 21.55 -7.65 23.0 -4.65 23.8 -3.05 25.7 0.7 25.75 0.8 24.6 -0.75 23.45 -2.4 20.6 -6.5 17.95 -10.7" fill="url(#gradient16)" fill-rule="evenodd" stroke="none"/>
    <path d="M10.7 -21.45 L9.95 -23.25 10.35 -23.0 11.35 -21.3 10.7 -21.45" fill="url(#gradient17)" fill-rule="evenodd" stroke="none"/>
    <path d="M9.3 -21.15 L10.1 -19.75 9.95 -19.5 9.85 -19.15 Q9.3 -17.6 8.9 -17.7 L8.8 -17.25 8.8 -17.2 8.4 -16.85 8.95 -16.8 8.7 -16.25 8.65 -16.2 8.25 -15.8 8.3 -15.1 7.15 -14.15 7.75 -13.95 10.5 -14.0 9.4 -13.2 Q6.6 -11.8 4.95 -10.55 L4.45 -10.15 3.7 -12.0 3.9 -14.25 Q5.15 -15.9 6.4 -16.15 L6.5 -18.05 6.65 -18.95 6.85 -19.15 7.1 -19.5 7.1 -19.55 7.15 -19.6 7.75 -20.2 8.65 -20.9 9.3 -21.15 M13.9 -16.45 L13.9 -16.55 14.2 -16.55 14.3 -16.4 13.9 -16.45 M11.15 -20.45 L11.1 -20.55 11.2 -20.45 11.15 -20.45 M10.8 -21.2 L10.7 -21.45 11.35 -21.3 11.7 -20.7 11.4 -20.6 10.8 -21.2 M16.45 -10.9 L16.45 -11.4 16.65 -11.2 16.65 -11.15 16.6 -11.0 16.45 -10.9 M12.0 -6.45 L14.4 -7.35 Q14.3 -7.0 12.85 -6.5 L12.0 -6.45" fill="url(#gradient18)" fill-rule="evenodd" stroke="none"/>
    <path d="M10.15 -19.6 L10.2 -19.5 9.85 -19.15 9.95 -19.5 10.15 -19.6 M11.2 -20.35 L11.15 -20.45 11.2 -20.45 11.3 -20.35 11.2 -20.35 M11.45 -20.5 L11.4 -20.6 11.7 -20.7 11.75 -20.65 11.45 -20.5" fill="url(#gradient19)" fill-rule="evenodd" stroke="none"/>
    <path d="M8.25 -23.25 L8.65 -22.5 8.6 -22.45 8.3 -21.4 7.75 -20.2 7.15 -19.6 Q7.2 -22.1 5.3 -21.1 5.8 -23.4 8.25 -23.25 M6.65 -18.95 L6.55 -19.0 6.85 -19.15 6.65 -18.95" fill="url(#gradient20)" fill-rule="evenodd" stroke="none"/>
    <path d="M6.55 -19.0 L5.8 -18.6 -1.95 -14.3 -2.65 -15.7 -2.8 -15.8 -3.4 -15.35 -3.45 -15.25 -3.8 -14.65 -4.45 -15.35 -4.95 -15.6 5.3 -21.1 Q7.2 -22.1 7.15 -19.6 L7.1 -19.55 7.1 -19.5 6.85 -19.15 6.55 -19.0 M-9.2 -13.35 L-7.9 -13.95 -7.5 -13.85 -7.1 -13.6 -6.65 -12.8 -6.75 -11.8 Q-6.55 -11.55 -8.15 -10.75 L-17.35 -5.65 Q-17.35 -7.9 -18.85 -8.15 L-9.2 -13.35" fill="url(#gradient21)" fill-rule="evenodd" stroke="none"/>
    <path d="M8.65 -22.5 L8.7 -22.45 9.3 -21.15 8.65 -20.9 7.75 -20.2 8.3 -21.4 8.6 -22.45 8.65 -22.5" fill="url(#gradient22)" fill-rule="evenodd" stroke="none"/>
    <path d="M10.2 -19.5 L12.45 -16.9 11.3 -17.2 9.1 -16.95 8.85 -17.2 8.8 -17.25 8.9 -17.7 Q9.3 -17.6 9.85 -19.15 L10.2 -19.5 M13.9 -16.55 L12.95 -17.75 13.5 -17.75 14.2 -16.55 13.9 -16.55 M11.35 -19.9 L11.2 -20.35 11.3 -20.35 11.35 -20.25 11.4 -19.9 11.35 -19.9 M11.55 -20.4 L11.45 -20.5 11.75 -20.65 11.9 -20.3 11.55 -20.4" fill="url(#gradient23)" fill-rule="evenodd" stroke="none"/>
    <path d="M12.95 -17.75 L11.45 -19.7 11.4 -19.9 11.35 -20.25 12.7 -19.0 13.5 -17.75 12.95 -17.75 M11.9 -20.3 L12.5 -19.35 11.55 -20.4 11.9 -20.3" fill="url(#gradient24)" fill-rule="evenodd" stroke="none"/>
    <path d="M11.45 -19.7 L11.35 -19.9 11.4 -19.9 11.45 -19.7" fill="url(#gradient25)" fill-rule="evenodd" stroke="none"/>
    <path d="M10.1 -19.75 L10.15 -19.6 9.95 -19.5 10.1 -19.75" fill="url(#gradient26)" fill-rule="evenodd" stroke="none"/>
    <path d="M6.5 -18.05 L5.8 -18.6 6.55 -19.0 6.65 -18.95 6.5 -18.05" fill="url(#gradient27)" fill-rule="evenodd" stroke="none"/>
    <path d="M-1.95 -14.3 L-1.85 -14.0 -1.7 -13.2 Q-2.25 -11.6 -3.45 -10.55 L-4.7 -9.4 -5.7 -8.95 -6.3 -8.75 -7.7 -8.3 -7.2 -10.2 -7.05 -10.85 -6.2 -11.85 -4.15 -14.0 -3.85 -14.3 -3.8 -14.65 -3.45 -15.25 -3.4 -15.35 -2.8 -15.8 -2.65 -15.7 -1.95 -14.3" fill="url(#gradient28)" fill-rule="evenodd" stroke="none"/>
    <path d="M-4.95 -15.6 L-4.45 -15.35 -3.8 -14.65 -3.85 -14.3 -4.15 -14.0 Q-5.05 -15.75 -6.8 -15.65 L-7.55 -15.05 Q-7.75 -14.5 -7.1 -13.6 L-7.5 -13.85 -7.9 -13.95 -9.2 -13.35 Q-7.8 -16.85 -4.95 -15.6 M-6.2 -11.85 L-7.05 -10.85 -7.2 -10.2 -8.15 -10.75 Q-6.55 -11.55 -6.75 -11.8 L-6.65 -12.8 -6.2 -11.85" fill="url(#gradient29)" fill-rule="evenodd" stroke="none"/>
    <path d="M-7.1 -13.6 Q-7.75 -14.5 -7.55 -15.05 L-6.8 -15.65 Q-5.05 -15.75 -4.15 -14.0 L-6.2 -11.85 -6.65 -12.8 -7.1 -13.6" fill="url(#gradient30)" fill-rule="evenodd" stroke="none"/>
    <path d="M12.45 -16.9 L13.9 -16.45 14.3 -16.4 Q14.45 -16.3 14.55 -16.25 L16.0 -14.45 16.6 -13.15 15.15 -14.9 14.95 -15.05 16.2 -12.55 17.75 -10.9 17.6 -10.55 17.5 -10.0 17.35 -10.55 16.65 -11.2 16.45 -11.4 Q14.15 -13.25 10.5 -14.0 L7.75 -13.95 7.15 -14.15 8.3 -15.1 8.25 -15.8 8.65 -16.2 8.7 -16.25 8.95 -16.8 9.1 -16.95 11.3 -17.2 12.45 -16.9" fill="url(#gradient31)" fill-rule="evenodd" stroke="none"/>
    <path d="M8.8 -17.2 L8.85 -17.2 9.1 -16.95 8.95 -16.8 8.4 -16.85 8.8 -17.2" fill="url(#gradient32)" fill-rule="evenodd" stroke="none"/>
    <path d="M8.85 -17.2 L8.8 -17.2 8.8 -17.25 8.85 -17.2" fill="url(#gradient33)" fill-rule="evenodd" stroke="none"/>
    <path d="M16.45 -11.4 L16.45 -10.9 16.35 -9.7 16.0 -9.2 14.4 -7.35 12.0 -6.45 10.8 -6.15 9.75 -5.6 7.1 -4.35 6.55 -3.9 6.15 -3.85 Q3.7 -3.9 2.65 -6.6 2.85 -8.7 3.8 -9.7 L4.45 -10.15 4.95 -10.55 Q6.6 -11.8 9.4 -13.2 L10.5 -14.0 Q14.15 -13.25 16.45 -11.4" fill="url(#gradient34)" fill-rule="evenodd" stroke="none"/>
    <path d="M-1.85 -14.0 L0.85 -11.8 0.95 -11.5 0.7 -10.55 Q0.3 -8.5 -2.85 -6.55 L-5.7 -8.95 -4.7 -9.4 -3.45 -10.55 Q-2.25 -11.6 -1.7 -13.2 L-1.85 -14.0" fill="url(#gradient35)" fill-rule="evenodd" stroke="none"/>
    <path d="M3.8 -9.7 Q2.85 -8.7 2.65 -6.6 L1.95 -5.5 Q1.35 -3.65 1.55 -3.45 L-2.85 -6.55 Q0.3 -8.5 0.7 -10.55 L0.95 -11.5 0.85 -11.8 3.8 -9.7" fill="url(#gradient36)" fill-rule="evenodd" stroke="none"/>
    <path d="M-18.85 -8.15 Q-17.35 -7.9 -17.35 -5.65 L-17.75 -5.05 -19.5 -4.05 Q-19.85 -6.2 -21.75 -7.0 L-19.7 -8.15 -18.85 -8.15" fill="url(#gradient37)" fill-rule="evenodd" stroke="none"/>
    <path d="M-17.7 3.45 L-20.85 1.75 -20.9 1.7 -20.95 1.7 -21.0 1.65 -21.05 1.65 -21.1 1.6 -23.25 0.4 -27.3 -3.8 -28.0 -4.8 -29.8 -9.55 -29.85 -14.4 -28.35 -18.4 -27.65 -18.45 -27.25 -18.15 -27.35 -14.2 -26.45 -11.4 Q-28.15 -13.1 -29.4 -11.5 L-29.15 -11.25 -26.2 -10.8 -25.25 -9.35 Q-28.05 -10.8 -28.35 -8.4 L-27.0 -8.05 Q-24.95 -7.9 -24.55 -8.35 L-23.7 -7.35 Q-25.95 -6.75 -24.9 -4.4 -24.65 -3.4 -19.5 -3.15 L-18.7 -2.4 Q-21.3 -3.2 -20.45 0.1 -17.9 0.45 -17.75 -1.6 L-15.45 0.2 -16.35 1.4 -17.7 3.45" fill="url(#gradient38)" fill-rule="evenodd" stroke="none"/>
    <path d="M-26.2 -10.8 L-29.15 -11.25 -29.4 -11.5 Q-28.15 -13.1 -26.45 -11.4 L-26.2 -10.8" fill="url(#gradient39)" fill-rule="evenodd" stroke="none"/>
    <path d="M-17.7 3.45 L-16.35 1.4 -15.45 0.2 -15.65 0.8 -17.0 2.9 -17.5 3.5 -17.7 3.45" fill="url(#gradient40)" fill-rule="evenodd" stroke="none"/>
    <path d="M-17.75 -1.6 Q-17.9 0.45 -20.45 0.1 -21.3 -3.2 -18.7 -2.4 L-17.75 -1.6" fill="url(#gradient41)" fill-rule="evenodd" stroke="none"/>
    <path d="M-19.5 -3.15 Q-24.65 -3.4 -24.9 -4.4 -25.95 -6.75 -23.7 -7.35 L-22.65 -7.3 -21.75 -7.0 Q-19.85 -6.2 -19.5 -4.05 L-19.5 -3.15 M-22.4 -4.5 L-20.6 -4.65 Q-19.65 -6.4 -22.95 -7.1 -24.45 -7.1 -23.7 -5.35 L-22.4 -4.5" fill="url(#gradient42)" fill-rule="evenodd" stroke="none"/>
    <path d="M6.15 -3.85 L6.55 -3.9 7.1 -4.35 9.75 -5.6 12.85 -5.1 14.35 -5.75 14.6 -5.95 Q16.0 -7.85 16.0 -9.2 L16.35 -9.7 16.45 -10.9 16.6 -11.0 16.75 -10.9 16.8 -10.55 18.2 -4.2 18.45 -1.3 Q16.5 0.1 11.85 0.25 L10.15 -0.1 Q7.25 -0.9 6.35 -1.5 L5.65 -2.0 Q5.1 -2.9 5.4 -3.2 L5.45 -3.25 5.45 -3.35 5.65 -3.75 6.15 -3.85" fill="url(#gradient43)" fill-rule="evenodd" stroke="none"/>
    <path d="M9.75 -5.6 L10.8 -6.15 12.0 -6.45 12.85 -6.5 Q14.3 -7.0 14.4 -7.35 L16.0 -9.2 Q16.0 -7.85 14.6 -5.95 L14.35 -5.75 12.85 -5.1 9.75 -5.6" fill="url(#gradient44)" fill-rule="evenodd" stroke="none"/>
    <path d="M18.45 -1.3 L18.7 2.15 17.95 2.4 17.9 2.4 16.35 2.75 12.35 2.9 6.0 1.45 6.0 1.4 5.0 1.05 Q1.2 0.1 5.4 -3.4 L5.45 -3.4 5.45 -3.35 5.45 -3.25 5.4 -3.2 Q5.1 -2.9 5.65 -2.0 L6.35 -1.5 Q7.25 -0.9 10.15 -0.1 L11.85 0.25 Q16.5 0.1 18.45 -1.3 M5.45 -3.5 L5.45 -3.45 5.4 -3.45 5.45 -3.5" fill="url(#gradient45)" fill-rule="evenodd" stroke="none"/>
    <path d="M5.5 -3.7 L5.6 -3.75 5.65 -3.75 5.45 -3.35 5.45 -3.4 5.45 -3.45 5.45 -3.5 5.5 -3.65 5.5 -3.7" fill="url(#gradient46)" fill-rule="evenodd" stroke="none"/>
    <path d="M2.65 -6.6 Q3.7 -3.9 6.15 -3.85 L5.65 -3.75 5.6 -3.75 5.5 -3.75 1.55 -3.45 Q1.35 -3.65 1.95 -5.5 L2.65 -6.6" fill="url(#gradient47)" fill-rule="evenodd" stroke="none"/>
    <path d="M18.85 4.15 L18.85 4.25 18.8 4.25 18.85 4.15" fill="url(#gradient48)" fill-rule="evenodd" stroke="none"/>
    <path d="M18.7 2.15 L18.85 4.15 18.8 4.25 18.25 5.65 18.45 4.45 18.15 3.35 17.95 2.4 18.7 2.15" fill="url(#gradient49)" fill-rule="evenodd" stroke="none"/>
    <path d="M-24.55 -8.35 Q-24.95 -7.9 -27.0 -8.05 L-28.35 -8.4 Q-28.05 -10.8 -25.25 -9.35 L-24.55 -8.35" fill="url(#gradient50)" fill-rule="evenodd" stroke="none"/>
    <path d="M-7.7 -8.3 L-6.3 -8.75 -7.7 -7.55 -7.7 -8.3" fill="url(#gradient51)" fill-rule="evenodd" stroke="none"/>
    <path d="M-22.4 -4.5 L-23.7 -5.35 Q-24.45 -7.1 -22.95 -7.1 -19.65 -6.4 -20.6 -4.65 L-22.4 -4.5" fill="url(#gradient52)" fill-rule="evenodd" stroke="none"/>
    <path d="M5.6 -3.75 L5.5 -3.7 5.5 -3.75 5.6 -3.75 M5.45 -3.45 L5.45 -3.4 5.4 -3.4 5.4 -3.45 5.45 -3.45" fill="url(#gradient53)" fill-rule="evenodd" stroke="none"/>
    <path d="M5.0 1.05 L6.0 1.4 6.0 1.45 5.7 7.55 5.9 10.3 Q7.0 13.7 7.2 13.3 L7.9 13.95 8.2 14.0 8.4 14.1 9.05 14.1 9.3 14.15 7.95 14.15 6.75 14.0 5.35 12.75 Q3.25 10.25 5.0 1.05" fill="url(#gradient54)" fill-rule="evenodd" stroke="none"/>
    <path d="M6.0 1.45 L12.35 2.9 16.35 2.75 Q13.55 11.5 10.4 13.3 L9.35 14.1 9.05 14.1 8.4 14.1 8.2 14.0 7.9 13.95 7.2 13.3 Q7.0 13.7 5.9 10.3 L5.7 7.55 6.0 1.45 M17.9 2.4 L17.95 2.4 18.15 3.35 17.6 6.1 Q17.0 11.8 20.8 18.05 23.2 21.2 20.7 25.25 15.85 31.7 11.1 30.65 7.3 30.25 2.95 25.25 -0.1 20.15 3.65 16.9 L3.85 16.85 3.95 16.6 4.1 16.25 4.15 16.2 5.1 14.0 5.35 12.75 6.75 14.0 7.95 14.15 Q8.2 15.05 11.45 14.55 L12.55 13.3 Q13.55 13.0 16.0 7.8 L17.9 2.4" fill="url(#gradient55)" fill-rule="evenodd" stroke="none"/>
    <path d="M20.8 18.05 Q26.4 24.0 23.95 29.5 20.2 35.6 12.5 34.45 5.6 33.75 1.65 28.2 L0.45 25.3 0.25 22.35 Q0.4 19.85 1.9 18.0 L4.1 16.25 3.95 16.6 3.65 16.9 Q-0.1 20.15 2.95 25.25 7.3 30.25 11.1 30.65 15.85 31.7 20.7 25.25 23.2 21.2 20.8 18.05" fill="url(#gradient56)" fill-rule="evenodd" stroke="none"/>
    <path d="M18.25 5.65 L17.6 6.1 18.15 3.35 18.45 4.45 18.25 5.65" fill="url(#gradient57)" fill-rule="evenodd" stroke="none"/>
    <path d="M24.15 2.5 L24.4 3.85 24.35 6.05 23.7 9.55 24.15 2.5" fill="url(#gradient58)" fill-rule="evenodd" stroke="none"/>
    <path d="M16.35 2.75 L17.9 2.4 16.0 7.8 Q13.55 13.0 12.55 13.3 L11.45 14.55 Q8.2 15.05 7.95 14.15 L9.3 14.15 9.35 14.1 10.4 13.3 Q13.55 11.5 16.35 2.75" fill="url(#gradient59)" fill-rule="evenodd" stroke="none"/>
    <path d="M9.35 14.1 L9.3 14.15 9.05 14.1 9.35 14.1" fill="url(#gradient60)" fill-rule="evenodd" stroke="none"/>
    <path d="M3.95 16.6 L3.85 16.85 3.65 16.9 3.95 16.6" fill="url(#gradient61)" fill-rule="evenodd" stroke="none"/>
  </g>
  <defs>
    <radialGradient cx="0" cy="0" gradientTransform="matrix(0.0381, 0.0, 0.0, 0.0381, 13.85, -33.65)" gradientUnits="userSpaceOnUse" id="gradient0" r="819.2" spreadMethod="pad">
      <stop offset="0.0" stop-color="#7b6f9d"/>
      <stop offset="1.0" stop-color="#4e4764"/>
    </radialGradient>
    <radialGradient cx="0" cy="0" gradientTransform="matrix(0.0232, 0.0, 0.0, 0.0232, 25.15, -21.25)" gradientUnits="userSpaceOnUse" id="gradient1" r="819.2" spreadMethod="pad">
      <stop offset="0.0" stop-color="#7c709e"/>
      <stop offset="1.0" stop-color="#4e4865"/>
    </radialGradient>
    <radialGradient cx="0" cy="0" gradientTransform="matrix(0.001, 0.0, 0.0, 0.001, 10.1, -32.85)" gradientUnits="userSpaceOnUse" id="gradient2" r="819.2" spreadMethod="pad">
      <stop offset="0.0" stop-color="#2b2738"/>
      <stop offset="1.0" stop-color="#1b1822"/>
    </radialGradient>
    <radialGradient cx="0" cy="0" gradientTransform="matrix(0.0042, 0.0, 0.0, 0.0042, 9.45, -32.5)" gradientUnits="userSpaceOnUse" id="gradient3" r="819.2" spreadMethod="pad">
      <stop offset="0.0" stop-color="#776c98"/>
      <stop offset="1.0" stop-color="#4e4764"/>
    </radialGradient>
    <radialGradient cx="0" cy="0" gradientTransform="matrix(0.0073, 0.0, 0.0, 0.0073, 7.35, -31.7)" gradientUnits="userSpaceOnUse" id="gradient4" r="819.2" spreadMethod="pad">
      <stop offset="0.0" stop-color="#746995"/>
      <stop offset="1.0" stop-color="#47415b"/>
    </radialGradient>
    <radialGradient cx="0" cy="0" gradientTransform="matrix(0.0152, 0.0, 0.0, 0.0152, 6.7, -28.3)" gradientUnits="userSpaceOnUse" id="gradient5" r="819.2" spreadMethod="pad">
      <stop offset="0.0" stop-color="#7a6f9c"/>
      <stop offset="1.0" stop-color="#4f4865"/>
    </radialGradient>
    <radialGradient cx="0" cy="0" gradientTransform="matrix(0.0398, 0.0, 0.0, 0.0398, 9.35, -30.85)" gradientUnits="userSpaceOnUse" id="gradient6" r="819.2" spreadMethod="pad">
      <stop offset="0.0" stop-color="#7b709d"/>
      <stop offset="1.0" stop-color="#4c4460"/>
    </radialGradient>
    <radialGradient cx="0" cy="0" gradientTransform="matrix(0.032, 0.0, 0.0, 0.032, 15.9, -31.65)" gradientUnits="userSpaceOnUse" id="gradient7" r="819.2" spreadMethod="pad">
      <stop offset="0.0" stop-color="#796d9b"/>
      <stop offset="1.0" stop-color="#514968"/>
    </radialGradient>
    <radialGradient cx="0" cy="0" gradientTransform="matrix(0.0084, 0.0, 0.0, 0.0084, 12.55, -29.55)" gradientUnits="userSpaceOnUse" id="gradient8" r="819.2" spreadMethod="pad">
      <stop offset="0.0" stop-color="#756a95"/>
      <stop offset="1.0" stop-color="#453f59"/>
    </radialGradient>
    <radialGradient cx="0" cy="0" gradientTransform="matrix(0.0036, 0.0, 0.0, 0.0036, 10.1, -32.85)" gradientUnits="userSpaceOnUse" id="gradient9" r="819.2" spreadMethod="pad">
      <stop offset="0.0" stop-color="#786d9a"/>
      <stop offset="1.0" stop-color="#6e648d"/>
    </radialGradient>
    <radialGradient cx="0" cy="0" gradientTransform="matrix(0.0027, 0.0, 0.0, 0.0027, 10.15, -32.85)" gradientUnits="userSpaceOnUse" id="gradient10" r="819.2" spreadMethod="pad">
      <stop offset="0.0" stop-color="#6b6189"/>
      <stop offset="1.0" stop-color="#504967"/>
    </radialGradient>
    <radialGradient cx="0" cy="0" gradientTransform="matrix(0.0195, 0.0, 0.0, 0.0195, 14.4, -25.3)" gradientUnits="userSpaceOnUse" id="gradient11" r="819.2" spreadMethod="pad">
      <stop offset="0.0" stop-color="#786d9a"/>
      <stop offset="1.0" stop-color="#5d5478"/>
    </radialGradient>
    <radialGradient cx="0" cy="0" gradientTransform="matrix(0.0437, 0.0, 0.0, 0.0437, 14.35, -29.4)" gradientUnits="userSpaceOnUse" id="gradient12" r="819.2" spreadMethod="pad">
      <stop offset="0.0" stop-color="#796e9b"/>
      <stop offset="1.0" stop-color="#433d56"/>
    </radialGradient>
    <radialGradient cx="0" cy="0" gradientTransform="matrix(0.0311, 0.0, 0.0, 0.0311, 18.55, -26.45)" gradientUnits="userSpaceOnUse" id="gradient13" r="819.2" spreadMethod="pad">
      <stop offset="0.0" stop-color="#716690"/>
      <stop offset="1.0" stop-color="#4b4460"/>
    </radialGradient>
    <radialGradient cx="0" cy="0" gradientTransform="matrix(0.0425, 0.0, 0.0, 0.0425, 16.0, -21.9)" gradientUnits="userSpaceOnUse" id="gradient14" r="819.2" spreadMethod="pad">
      <stop offset="0.0" stop-color="#62597d"/>
      <stop offset="1.0" stop-color="#3f3951"/>
    </radialGradient>
    <radialGradient cx="0" cy="0" gradientTransform="matrix(0.0411, 0.0, 0.0, 0.0411, 15.8, -22.5)" gradientUnits="userSpaceOnUse" id="gradient15" r="819.2" spreadMethod="pad">
      <stop offset="0.0" stop-color="#776c99"/>
      <stop offset="1.0" stop-color="#463f5a"/>
    </radialGradient>
    <radialGradient cx="0" cy="0" gradientTransform="matrix(0.0394, 0.0, 0.0, 0.0394, 12.65, -28.85)" gradientUnits="userSpaceOnUse" id="gradient16" r="819.2" spreadMethod="pad">
      <stop offset="0.0" stop-color="#7a6f9c"/>
      <stop offset="1.0" stop-color="#4c4562"/>
    </radialGradient>
    <radialGradient cx="0" cy="0" gradientTransform="matrix(0.0045, 0.0, 0.0, 0.0045, 11.7, -21.25)" gradientUnits="userSpaceOnUse" id="gradient17" r="819.2" spreadMethod="pad">
      <stop offset="0.0" stop-color="#dfa15c"/>
      <stop offset="1.0" stop-color="#a87945"/>
    </radialGradient>
    <radialGradient cx="0" cy="0" gradientTransform="matrix(0.0143, 0.0, 0.0, 0.0143, 14.7, -15.9)" gradientUnits="userSpaceOnUse" id="gradient18" r="819.2" spreadMethod="pad">
      <stop offset="0.0" stop-color="#304563"/>
      <stop offset="1.0" stop-color="#1e2b3e"/>
    </radialGradient>
    <radialGradient cx="0" cy="0" gradientTransform="matrix(0.0039, 0.0, 0.0, 0.0039, 9.65, -19.5)" gradientUnits="userSpaceOnUse" id="gradient19" r="819.2" spreadMethod="pad">
      <stop offset="0.0" stop-color="#1d293b"/>
      <stop offset="1.0" stop-color="#1b2739"/>
    </radialGradient>
    <radialGradient cx="0" cy="0" gradientTransform="matrix(0.0031, 0.0, 0.0, 0.0031, 7.7, -21.15)" gradientUnits="userSpaceOnUse" id="gradient20" r="819.2" spreadMethod="pad">
      <stop offset="0.0" stop-color="#fff58c"/>
      <stop offset="1.0" stop-color="#c79052"/>
    </radialGradient>
    <radialGradient cx="0" cy="0" gradientTransform="matrix(0.0499, 0.0, 0.0, 0.0499, -22.8, -4.05)" gradientUnits="userSpaceOnUse" id="gradient21" r="819.2" spreadMethod="pad">
      <stop offset="0.0" stop-color="#562f0b"/>
      <stop offset="1.0" stop-color="#472709"/>
    </radialGradient>
    <radialGradient cx="0" cy="0" gradientTransform="matrix(0.0044, 0.0, 0.0, 0.0044, 10.25, -19.95)" gradientUnits="userSpaceOnUse" id="gradient22" r="819.2" spreadMethod="pad">
      <stop offset="0.0" stop-color="#385174"/>
      <stop offset="1.0" stop-color="#2e415e"/>
    </radialGradient>
    <radialGradient cx="0" cy="0" gradientTransform="matrix(0.0075, 0.0, 0.0, 0.0075, 14.8, -16.65)" gradientUnits="userSpaceOnUse" id="gradient23" r="819.2" spreadMethod="pad">
      <stop offset="0.0" stop-color="#fff1c9"/>
      <stop offset="1.0" stop-color="#958d75"/>
    </radialGradient>
    <radialGradient cx="0" cy="0" gradientTransform="matrix(0.0048, 0.0, 0.0, 0.0048, 13.6, -17.45)" gradientUnits="userSpaceOnUse" id="gradient24" r="819.2" spreadMethod="pad">
      <stop offset="0.0" stop-color="#273750"/>
      <stop offset="1.0" stop-color="#223147"/>
    </radialGradient>
    <radialGradient cx="0" cy="0" gradientTransform="matrix(0.0011, 0.0, 0.0, 0.0011, 11.45, -19.75)" gradientUnits="userSpaceOnUse" id="gradient25" r="819.2" spreadMethod="pad">
      <stop offset="0.0" stop-color="#06090d"/>
      <stop offset="1.0" stop-color="#06090d"/>
    </radialGradient>
    <radialGradient cx="0" cy="0" gradientTransform="matrix(0.0019, 0.0, 0.0, 0.0019, 9.95, -19.0)" gradientUnits="userSpaceOnUse" id="gradient26" r="819.2" spreadMethod="pad">
      <stop offset="0.0" stop-color="#2b3e59"/>
      <stop offset="1.0" stop-color="#233249"/>
    </radialGradient>
    <radialGradient cx="0" cy="0" gradientTransform="matrix(0.0015, 0.0, 0.0, 0.0015, 6.85, -19.1)" gradientUnits="userSpaceOnUse" id="gradient27" r="819.2" spreadMethod="pad">
      <stop offset="0.0" stop-color="#ffd97c"/>
      <stop offset="1.0" stop-color="#a77945"/>
    </radialGradient>
    <radialGradient cx="0" cy="0" gradientTransform="matrix(0.0059, 0.0, 0.0, 0.0059, -5.5, -12.7)" gradientUnits="userSpaceOnUse" id="gradient28" r="819.2" spreadMethod="pad">
      <stop offset="0.0" stop-color="#304562"/>
      <stop offset="1.0" stop-color="#25354c"/>
    </radialGradient>
    <radialGradient cx="0" cy="0" gradientTransform="matrix(0.0037, 0.0, 0.0, 0.0037, -6.2, -13.1)" gradientUnits="userSpaceOnUse" id="gradient29" r="819.2" spreadMethod="pad">
      <stop offset="0.0" stop-color="#ffe784"/>
      <stop offset="1.0" stop-color="#a47644"/>
    </radialGradient>
    <radialGradient cx="0" cy="0" gradientTransform="matrix(0.003, 0.0, 0.0, 0.003, -5.75, -13.55)" gradientUnits="userSpaceOnUse" id="gradient30" r="819.2" spreadMethod="pad">
      <stop offset="0.0" stop-color="#ffe885"/>
      <stop offset="1.0" stop-color="#be884e"/>
    </radialGradient>
    <radialGradient cx="0" cy="0" gradientTransform="matrix(0.009, 0.0, 0.0, 0.009, 12.25, -15.05)" gradientUnits="userSpaceOnUse" id="gradient31" r="819.2" spreadMethod="pad">
      <stop offset="0.0" stop-color="#72c3f3"/>
      <stop offset="1.0" stop-color="#477b9a"/>
    </radialGradient>
    <radialGradient cx="0" cy="0" gradientTransform="matrix(0.0025, 0.0, 0.0, 0.0025, 9.45, -16.3)" gradientUnits="userSpaceOnUse" id="gradient32" r="819.2" spreadMethod="pad">
      <stop offset="0.0" stop-color="#1f2d40"/>
      <stop offset="1.0" stop-color="#1b2738"/>
    </radialGradient>
    <radialGradient cx="0" cy="0" gradientTransform="matrix(0.004, 0.0, 0.0, 0.004, 9.9, -18.35)" gradientUnits="userSpaceOnUse" id="gradient33" r="819.2" spreadMethod="pad">
      <stop offset="0.0" stop-color="#06090d"/>
      <stop offset="1.0" stop-color="#06090d"/>
    </radialGradient>
    <radialGradient cx="0" cy="0" gradientTransform="matrix(0.0128, 0.0, 0.0, 0.0128, 12.0, -11.05)" gradientUnits="userSpaceOnUse" id="gradient34" r="819.2" spreadMethod="pad">
      <stop offset="0.0" stop-color="#344a6b"/>
      <stop offset="1.0" stop-color="#223247"/>
    </radialGradient>
    <radialGradient cx="0" cy="0" gradientTransform="matrix(0.007, 0.0, 0.0, 0.007, -0.5, -8.6)" gradientUnits="userSpaceOnUse" id="gradient35" r="819.2" spreadMethod="pad">
      <stop offset="0.0" stop-color="#71c3f3"/>
      <stop offset="1.0" stop-color="#477997"/>
    </radialGradient>
    <radialGradient cx="0" cy="0" gradientTransform="matrix(0.007, 0.0, 0.0, 0.007, 2.55, -6.8)" gradientUnits="userSpaceOnUse" id="gradient36" r="819.2" spreadMethod="pad">
      <stop offset="0.0" stop-color="#354d6e"/>
      <stop offset="1.0" stop-color="#1e2b3e"/>
    </radialGradient>
    <radialGradient cx="0" cy="0" gradientTransform="matrix(0.0041, 0.0, 0.0, 0.0041, -19.5, -5.75)" gradientUnits="userSpaceOnUse" id="gradient37" r="819.2" spreadMethod="pad">
      <stop offset="0.0" stop-color="#bbb193"/>
      <stop offset="1.0" stop-color="#8a826c"/>
    </radialGradient>
    <radialGradient cx="0" cy="0" gradientTransform="matrix(0.0226, 0.0, 0.0, 0.0226, -22.65, -0.85)" gradientUnits="userSpaceOnUse" id="gradient38" r="819.2" spreadMethod="pad">
      <stop offset="0.0" stop-color="#713d0e"/>
      <stop offset="1.0" stop-color="#482709"/>
    </radialGradient>
    <radialGradient cx="0" cy="0" gradientTransform="matrix(0.0025, 0.0, 0.0, 0.0025, -28.3, -10.95)" gradientUnits="userSpaceOnUse" id="gradient39" r="819.2" spreadMethod="pad">
      <stop offset="0.0" stop-color="#ffca00"/>
      <stop offset="1.0" stop-color="#f68400"/>
    </radialGradient>
    <radialGradient cx="0" cy="0" gradientTransform="matrix(0.0044, 0.0, 0.0, 0.0044, -17.4, 3.15)" gradientUnits="userSpaceOnUse" id="gradient40" r="819.2" spreadMethod="pad">
      <stop offset="0.0" stop-color="#0e0802"/>
      <stop offset="1.0" stop-color="#0e0802"/>
    </radialGradient>
    <radialGradient cx="0" cy="0" gradientTransform="matrix(0.0038, 0.0, 0.0, 0.0038, -20.45, -0.1)" gradientUnits="userSpaceOnUse" id="gradient41" r="819.2" spreadMethod="pad">
      <stop offset="0.0" stop-color="#ffc900"/>
      <stop offset="1.0" stop-color="#bb6b00"/>
    </radialGradient>
    <radialGradient cx="0" cy="0" gradientTransform="matrix(0.0055, 0.0, 0.0, 0.0055, -24.0, -3.9)" gradientUnits="userSpaceOnUse" id="gradient42" r="819.2" spreadMethod="pad">
      <stop offset="0.0" stop-color="#f8eac2"/>
      <stop offset="1.0" stop-color="#837c67"/>
    </radialGradient>
    <radialGradient cx="0" cy="0" gradientTransform="matrix(0.0129, 0.0, 0.0, 0.0129, 11.45, -1.8)" gradientUnits="userSpaceOnUse" id="gradient43" r="819.2" spreadMethod="pad">
      <stop offset="0.0" stop-color="#374f71"/>
      <stop offset="1.0" stop-color="#202e42"/>
    </radialGradient>
    <radialGradient cx="0" cy="0" gradientTransform="matrix(0.0072, 0.0, 0.0, 0.0072, 12.35, -5.0)" gradientUnits="userSpaceOnUse" id="gradient44" r="819.2" spreadMethod="pad">
      <stop offset="0.0" stop-color="#b8ae90"/>
      <stop offset="1.0" stop-color="#938b73"/>
    </radialGradient>
    <radialGradient cx="0" cy="0" gradientTransform="matrix(0.0109, 0.0, 0.0, 0.0109, 12.05, 0.15)" gradientUnits="userSpaceOnUse" id="gradient45" r="819.2" spreadMethod="pad">
      <stop offset="0.0" stop-color="#6fbfee"/>
      <stop offset="1.0" stop-color="#4a809e"/>
    </radialGradient>
    <radialGradient cx="0" cy="0" gradientTransform="matrix(0.0022, 0.0, 0.0, 0.0022, 5.85, -4.55)" gradientUnits="userSpaceOnUse" id="gradient46" r="819.2" spreadMethod="pad">
      <stop offset="0.0" stop-color="#1d293b"/>
      <stop offset="1.0" stop-color="#1c293b"/>
    </radialGradient>
    <radialGradient cx="0" cy="0" gradientTransform="matrix(0.0058, 0.0, 0.0, 0.0058, 2.55, -6.8)" gradientUnits="userSpaceOnUse" id="gradient47" r="819.2" spreadMethod="pad">
      <stop offset="0.0" stop-color="#77cdff"/>
      <stop offset="1.0" stop-color="#294759"/>
    </radialGradient>
    <radialGradient cx="0" cy="0" gradientTransform="matrix(0.0088, 0.0, 0.0, 0.0088, 18.85, 3.85)" gradientUnits="userSpaceOnUse" id="gradient48" r="819.2" spreadMethod="pad">
      <stop offset="0.0" stop-color="#0f0e13"/>
      <stop offset="1.0" stop-color="#0f0e13"/>
    </radialGradient>
    <radialGradient cx="0" cy="0" gradientTransform="matrix(0.006, 0.0, 0.0, 0.006, 17.85, 0.65)" gradientUnits="userSpaceOnUse" id="gradient49" r="819.2" spreadMethod="pad">
      <stop offset="0.0" stop-color="#8f8770"/>
      <stop offset="1.0" stop-color="#756f5c"/>
    </radialGradient>
    <radialGradient cx="0" cy="0" gradientTransform="matrix(0.0035, 0.0, 0.0, 0.0035, -27.4, -7.85)" gradientUnits="userSpaceOnUse" id="gradient50" r="819.2" spreadMethod="pad">
      <stop offset="0.0" stop-color="#ffcc00"/>
      <stop offset="1.0" stop-color="#bb6800"/>
    </radialGradient>
    <radialGradient cx="0" cy="0" gradientTransform="matrix(0.003, 0.0, 0.0, 0.003, -7.85, -7.65)" gradientUnits="userSpaceOnUse" id="gradient51" r="819.2" spreadMethod="pad">
      <stop offset="0.0" stop-color="#121924"/>
      <stop offset="1.0" stop-color="#0e151d"/>
    </radialGradient>
    <radialGradient cx="0" cy="0" gradientTransform="matrix(0.0039, 0.0, 0.0, 0.0039, -23.45, -4.65)" gradientUnits="userSpaceOnUse" id="gradient52" r="819.2" spreadMethod="pad">
      <stop offset="0.0" stop-color="#ffca00"/>
      <stop offset="1.0" stop-color="#ff8c00"/>
    </radialGradient>
    <radialGradient cx="0" cy="0" gradientTransform="matrix(0.0036, 0.0, 0.0, 0.0036, 5.3, -2.9)" gradientUnits="userSpaceOnUse" id="gradient53" r="819.2" spreadMethod="pad">
      <stop offset="0.0" stop-color="#1c293b"/>
      <stop offset="1.0" stop-color="#182231"/>
    </radialGradient>
    <radialGradient cx="0" cy="0" gradientTransform="matrix(0.0201, 0.0, 0.0, 0.0201, 6.3, 12.65)" gradientUnits="userSpaceOnUse" id="gradient54" r="819.2" spreadMethod="pad">
      <stop offset="0.0" stop-color="#575244"/>
      <stop offset="1.0" stop-color="#1f1e19"/>
    </radialGradient>
    <radialGradient cx="0" cy="0" gradientTransform="matrix(0.0398, 0.0, 0.0, 0.0398, 15.9, 29.7)" gradientUnits="userSpaceOnUse" id="gradient55" r="819.2" spreadMethod="pad">
      <stop offset="0.0" stop-color="#344b6c"/>
      <stop offset="1.0" stop-color="#1e2b3e"/>
    </radialGradient>
    <radialGradient cx="0" cy="0" gradientTransform="matrix(0.0285, 0.0, 0.0, 0.0285, 19.15, 33.65)" gradientUnits="userSpaceOnUse" id="gradient56" r="819.2" spreadMethod="pad">
      <stop offset="0.0" stop-color="#7bd4ff"/>
      <stop offset="1.0" stop-color="#3a657e"/>
    </radialGradient>
    <radialGradient cx="0" cy="0" gradientTransform="matrix(0.0027, 0.0, 0.0, 0.0027, 17.9, 4.05)" gradientUnits="userSpaceOnUse" id="gradient57" r="819.2" spreadMethod="pad">
      <stop offset="0.0" stop-color="#1f1e19"/>
      <stop offset="1.0" stop-color="#1f1e19"/>
    </radialGradient>
    <radialGradient cx="0" cy="0" gradientTransform="matrix(0.0094, 0.0, 0.0, 0.0094, 24.25, 2.1)" gradientUnits="userSpaceOnUse" id="gradient58" r="819.2" spreadMethod="pad">
      <stop offset="0.0" stop-color="#4c4461"/>
      <stop offset="1.0" stop-color="#443d57"/>
    </radialGradient>
    <radialGradient cx="0" cy="0" gradientTransform="matrix(0.0175, 0.0, 0.0, 0.0175, 16.4, 2.55)" gradientUnits="userSpaceOnUse" id="gradient59" r="819.2" spreadMethod="pad">
      <stop offset="0.0" stop-color="#9b927a"/>
      <stop offset="1.0" stop-color="#66604f"/>
    </radialGradient>
    <radialGradient cx="0" cy="0" gradientTransform="matrix(0.003, 0.0, 0.0, 0.003, 7.45, 13.9)" gradientUnits="userSpaceOnUse" id="gradient60" r="819.2" spreadMethod="pad">
      <stop offset="0.0" stop-color="#1f1e19"/>
      <stop offset="1.0" stop-color="#1f1e19"/>
    </radialGradient>
    <radialGradient cx="0" cy="0" gradientTransform="matrix(0.0101, 0.0, 0.0, 0.0101, 5.65, 9.4)" gradientUnits="userSpaceOnUse" id="gradient61" r="819.2" spreadMethod="pad">
      <stop offset="0.0" stop-color="#06090d"/>
      <stop offset="1.0" stop-color="#06090d"/>
    </radialGradient>
  </defs>
</svg>
