<?xml version="1.0" encoding="UTF-8" standalone="no"?>
<svg xmlns:ffdec="https://www.free-decompiler.com/flash" xmlns:xlink="http://www.w3.org/1999/xlink" ffdec:objectType="shape" height="88.15px" width="58.65px" xmlns="http://www.w3.org/2000/svg">
  <g transform="matrix(1.0, 0.0, 0.0, 1.0, 42.8, 76.65)">
    <path d="M-42.35 -73.55 L-42.5 -73.7 Q-43.65 -77.9 -40.5 -76.15 L-40.5 -76.1 -41.0 -75.95 Q-39.6 -75.15 -39.3 -74.5 L-40.1 -74.85 -40.55 -74.8 -40.7 -74.5 -39.0 -73.75 -37.7 -72.55 -37.65 -72.35 Q-40.9 -73.95 -40.55 -71.1 L-40.6 -71.15 -40.7 -71.2 -41.4 -72.3 -41.65 -72.95 -41.9 -73.35 -41.95 -73.05 -42.35 -73.55 M-37.05 -73.5 L-34.4 -71.35 -34.05 -70.75 -36.9 -73.1 -37.05 -73.5" fill="url(#gradient0)" fill-rule="evenodd" stroke="none"/>
    <path d="M-42.5 -73.7 L-42.35 -73.55 -42.45 -73.55 -42.5 -73.7 M-40.7 -71.2 L-40.6 -71.15 -40.7 -71.15 -40.7 -71.2" fill="url(#gradient1)" fill-rule="evenodd" stroke="none"/>
    <path d="M-42.35 -73.55 L-41.95 -73.05 -41.9 -72.65 -42.15 -72.85 -42.45 -73.55 -42.35 -73.55 M-37.65 -72.35 L-37.7 -72.55 -38.4 -73.9 -39.3 -74.5 Q-39.6 -75.15 -41.0 -75.95 L-40.5 -76.1 -40.3 -76.1 -40.15 -76.1 -39.95 -76.0 -39.7 -75.95 -38.4 -74.45 -37.1 -73.55 -37.05 -73.5 -36.9 -73.1 -36.9 -72.1 -37.15 -71.65 -37.65 -72.35" fill="url(#gradient2)" fill-rule="evenodd" stroke="none"/>
    <path d="M-40.5 -76.1 L-40.5 -76.15 -40.3 -76.1 -40.5 -76.1" fill="url(#gradient3)" fill-rule="evenodd" stroke="none"/>
    <path d="M-41.95 -73.05 L-41.9 -73.35 -41.65 -72.95 -41.4 -72.3 -40.7 -71.2 -40.7 -71.15 -40.95 -71.3 -41.3 -71.65 -41.9 -72.65 -41.95 -73.05 M-37.7 -72.55 L-39.0 -73.75 -40.7 -74.5 -40.55 -74.8 -40.1 -74.85 -39.3 -74.5 -38.4 -73.9 -37.7 -72.55" fill="url(#gradient4)" fill-rule="evenodd" stroke="none"/>
    <path d="M-39.7 -75.95 L-38.25 -75.35 Q-37.05 -74.2 -37.1 -73.55 L-38.4 -74.45 -39.7 -75.95 M-42.15 -72.85 L-41.9 -72.65 -41.3 -71.65 -41.95 -72.3 -42.15 -72.85" fill="url(#gradient5)" fill-rule="evenodd" stroke="none"/>
    <path d="M-34.05 -70.75 L-34.15 -70.35 -34.7 -69.3 -35.85 -68.3 -36.35 -68.4 -38.05 -69.85 -37.15 -70.6 -37.15 -71.65 -36.9 -72.1 -36.9 -73.1 -34.05 -70.75" fill="url(#gradient6)" fill-rule="evenodd" stroke="none"/>
    <path d="M-40.55 -71.1 Q-40.9 -73.95 -37.65 -72.35 L-37.15 -71.65 -37.15 -70.6 -38.05 -69.85 -39.2 -69.95 Q-39.9 -70.05 -40.55 -71.1" fill="url(#gradient7)" fill-rule="evenodd" stroke="none"/>
    <path d="M-10.6 -50.15 L-4.25 -44.8 -3.9 -44.15 -4.3 -43.55 -4.6 -43.4 -5.95 -45.3 -9.85 -49.15 -9.85 -49.2 -10.6 -50.15 M7.3 -34.9 L7.65 -34.15 7.55 -34.1 7.35 -33.65 6.95 -33.9 6.75 -34.4 6.8 -34.45 6.8 -34.85 7.3 -34.9 M-34.15 -70.35 L-21.6 -59.7 -21.65 -59.15 -22.95 -57.9 -23.0 -57.85 -23.55 -57.85 -35.85 -68.3 -34.7 -69.3 -34.15 -70.35" fill="url(#gradient8)" fill-rule="evenodd" stroke="none"/>
    <path d="M-23.55 -57.85 L-23.0 -57.85 -23.3 -57.7 -23.5 -56.05 -23.7 -57.25 -23.55 -57.85 M-22.95 -57.9 L-21.65 -59.15 -21.75 -58.65 -22.95 -57.9" fill="url(#gradient9)" fill-rule="evenodd" stroke="none"/>
    <path d="M-16.25 -56.55 Q-21.6 -54.9 -19.55 -51.25 L-19.1 -50.35 -22.2 -52.85 -23.5 -56.05 -23.3 -57.7 -23.0 -57.85 -22.95 -57.9 -21.75 -58.65 -19.5 -59.75 Q-19.05 -60.5 -17.45 -59.3 L-16.25 -56.55" fill="url(#gradient10)" fill-rule="evenodd" stroke="none"/>
    <path d="M-21.6 -59.7 L-20.75 -60.1 -20.05 -60.1 -19.5 -59.75 -21.75 -58.65 -21.65 -59.15 -21.6 -59.7" fill="url(#gradient11)" fill-rule="evenodd" stroke="none"/>
    <path d="M-16.25 -56.55 L-13.7 -53.95 Q-17.45 -54.2 -18.35 -49.7 L-18.85 -50.25 -19.55 -51.25 Q-21.6 -54.9 -16.25 -56.55" fill="url(#gradient12)" fill-rule="evenodd" stroke="none"/>
    <path d="M-19.55 -51.25 L-18.85 -50.25 -19.1 -50.35 -19.55 -51.25" fill="url(#gradient13)" fill-rule="evenodd" stroke="none"/>
    <path d="M-3.25 -55.95 L-2.55 -57.25 -2.05 -57.35 -1.6 -57.25 -1.6 -57.15 -2.05 -56.7 -2.85 -55.85 -3.05 -55.75 -3.15 -55.85 -3.25 -55.95 M9.05 -48.0 L9.9 -46.85 11.2 -45.05 15.8 -36.3 15.85 -35.9 11.2 -43.4 10.5 -44.4 9.05 -48.0" fill="url(#gradient14)" fill-rule="evenodd" stroke="none"/>
    <path d="M-3.45 -55.95 L-3.25 -55.95 -3.15 -55.85 -3.45 -55.9 -3.45 -55.95" fill="url(#gradient15)" fill-rule="evenodd" stroke="none"/>
    <path d="M-3.85 -55.9 L-3.45 -55.95 -3.45 -55.9 -3.85 -55.9" fill="url(#gradient16)" fill-rule="evenodd" stroke="none"/>
    <path d="M-5.4 -54.8 L-4.85 -55.45 -3.95 -55.85 -3.9 -55.9 -3.85 -55.9 -3.45 -55.9 -3.15 -55.85 -3.05 -55.75 -2.7 -55.3 -2.55 -55.1 -1.85 -53.85 -1.95 -53.65 -2.3 -53.35 -5.05 -52.85 -5.4 -53.0 -5.8 -53.05 -5.85 -53.45 -5.6 -54.55 -5.4 -54.8 M3.05 -43.4 L4.95 -40.15 Q6.35 -37.75 6.05 -37.75 L3.05 -42.6 2.45 -44.2 3.05 -43.4" fill="url(#gradient17)" fill-rule="evenodd" stroke="none"/>
    <path d="M-7.35 -51.9 Q-7.0 -55.2 -5.4 -54.8 L-5.6 -54.55 -6.2 -54.35 -6.4 -53.65 -6.6 -53.65 -7.35 -51.9" fill="url(#gradient18)" fill-rule="evenodd" stroke="none"/>
    <path d="M-6.9 -50.7 L-6.95 -50.9 -7.3 -51.6 -7.3 -51.7 -7.35 -51.8 -7.35 -51.9 -6.6 -53.65 -6.4 -53.65 -6.8 -50.7 -6.9 -50.7 M-1.2 -43.3 L-1.0 -42.95 -1.6 -43.35 -1.9 -43.7 -2.1 -43.9 -2.55 -44.3 -2.75 -44.8 -2.3 -44.4 -2.15 -44.3 -2.1 -44.2 -1.9 -44.0 -1.7 -43.8 -1.6 -43.75 -1.2 -43.3" fill="url(#gradient19)" fill-rule="evenodd" stroke="none"/>
    <path d="M-4.25 -44.8 L-6.8 -49.5 -6.8 -50.65 -6.8 -50.7 -6.4 -53.65 -6.2 -54.35 -5.6 -54.55 -5.85 -53.45 -5.8 -53.05 -5.4 -53.0 -5.65 -52.5 -5.6 -51.45 -5.6 -51.4 -5.55 -51.0 -5.55 -50.7 -5.15 -49.35 -4.9 -49.2 -3.7 -46.85 -2.85 -44.9 -2.75 -44.8 -2.55 -44.3 -2.15 -43.5 -0.65 -41.75 1.1 -39.55 4.25 -35.7 7.3 -33.1 7.95 -32.45 8.4 -32.15 8.6 -31.95 11.55 -29.3 11.95 -28.95 12.1 -28.85 11.95 -28.75 11.6 -29.05 8.9 -31.25 8.65 -31.45 8.05 -32.0 7.75 -32.2 4.15 -35.2 4.05 -35.25 2.75 -36.5 0.95 -38.5 -3.45 -43.35 -3.9 -44.15 -4.25 -44.8" fill="url(#gradient20)" fill-rule="evenodd" stroke="none"/>
    <path d="M-1.5 -57.3 Q3.4 -60.2 9.05 -48.0 L10.5 -44.4 10.65 -43.8 8.05 -49.2 Q2.8 -59.05 -1.5 -57.3 M13.25 -35.6 L14.45 -30.45 14.3 -30.55 12.2 -38.2 13.05 -36.5 13.25 -35.6 M-2.05 -56.7 L-2.55 -55.85 -2.85 -55.85 -2.05 -56.7" fill="url(#gradient21)" fill-rule="evenodd" stroke="none"/>
    <path d="M11.15 -42.8 L14.5 -32.75 14.35 -32.7 13.25 -35.6 13.05 -36.5 12.2 -38.2 10.85 -41.8 10.05 -43.3 9.8 -43.75 6.4 -49.9 5.55 -50.75 Q5.1 -54.25 -0.05 -54.9 L-1.5 -55.25 -2.55 -55.1 -2.7 -55.3 -2.55 -55.85 -2.05 -56.7 -1.6 -57.15 -1.5 -57.3 Q2.8 -59.05 8.05 -49.2 L10.65 -43.8 11.15 -42.8" fill="url(#gradient22)" fill-rule="evenodd" stroke="none"/>
    <path d="M11.2 -43.4 L11.15 -42.8 10.65 -43.8 10.5 -44.4 11.2 -43.4 M10.85 -41.8 L10.5 -41.1 10.0 -43.1 10.05 -43.3 10.85 -41.8 M6.6 -36.45 L7.3 -34.9 6.8 -34.85 6.6 -36.45" fill="url(#gradient23)" fill-rule="evenodd" stroke="none"/>
    <path d="M-1.6 -57.25 L-1.5 -57.3 -1.6 -57.15 -1.6 -57.25" fill="url(#gradient24)" fill-rule="evenodd" stroke="none"/>
    <path d="M-2.55 -55.85 L-2.7 -55.3 -3.05 -55.75 -2.85 -55.85 -2.55 -55.85 M-2.55 -55.1 L-1.5 -55.25 -0.05 -54.9 -1.85 -53.85 -2.55 -55.1 M-5.4 -53.0 L-5.05 -52.85 -5.6 -51.45 -5.65 -52.5 -5.4 -53.0 M-5.55 -50.7 L-3.25 -46.6 -3.7 -46.85 -4.9 -49.2 -5.15 -49.35 -5.55 -50.7" fill="url(#gradient25)" fill-rule="evenodd" stroke="none"/>
    <path d="M12.15 -25.85 L12.15 -25.65 12.2 -25.45 13.25 -19.45 13.15 -19.2 12.75 -20.15 11.35 -24.65 12.35 -23.25 12.3 -23.65 10.3 -27.3 9.85 -29.05 8.9 -31.25 11.6 -29.05 12.15 -25.85 M-0.05 -54.9 Q5.1 -54.25 5.55 -50.75 L7.75 -44.6 9.1 -40.1 11.55 -29.3 8.6 -31.95 7.95 -33.3 7.9 -33.45 7.85 -33.65 7.65 -34.1 7.65 -34.15 7.3 -34.9 6.6 -36.45 6.05 -37.75 Q6.35 -37.75 4.95 -40.15 L3.05 -43.4 2.1 -45.1 0.75 -48.2 0.1 -49.2 -1.15 -50.5 -1.9 -50.85 -2.05 -51.5 -1.6 -52.8 -2.3 -53.35 -1.95 -53.65 -1.85 -53.85 -0.05 -54.9" fill="url(#gradient26)" fill-rule="evenodd" stroke="none"/>
    <path d="M10.2 -26.3 L9.0 -28.0 7.95 -29.45 7.2 -30.45 4.15 -35.2 7.75 -32.2 8.05 -31.6 8.9 -30.0 9.6 -28.7 10.3 -27.3 12.3 -23.65 12.35 -23.25 11.35 -24.65 10.2 -26.3 M-2.3 -53.35 L-1.6 -52.8 -2.05 -51.5 -1.9 -50.85 -1.15 -50.5 0.1 -49.2 0.75 -48.2 2.1 -45.1 2.45 -44.2 3.05 -42.6 4.2 -39.65 6.7 -34.45 6.75 -34.4 6.95 -33.9 7.3 -33.1 4.25 -35.7 1.1 -39.55 -0.2 -41.75 -1.0 -42.95 -1.2 -43.3 -1.6 -43.8 -1.6 -43.9 -1.9 -44.35 -1.95 -44.5 -2.15 -44.75 -2.15 -44.8 -3.25 -46.6 -5.55 -50.7 -5.55 -51.0 -5.6 -51.4 -5.6 -51.45 -5.05 -52.85 -2.3 -53.35" fill="url(#gradient27)" fill-rule="evenodd" stroke="none"/>
    <path d="M-18.35 -49.7 Q-17.45 -54.2 -13.7 -53.95 L-11.25 -51.0 -12.35 -50.9 Q-14.7 -49.6 -14.65 -49.2 L-15.45 -48.15 Q-16.0 -47.1 -15.85 -46.6 L-18.35 -49.7" fill="url(#gradient28)" fill-rule="evenodd" stroke="none"/>
    <path d="M-11.25 -51.0 L-10.6 -50.15 -9.85 -49.2 -9.85 -49.15 -10.8 -48.6 Q-13.1 -44.3 -13.2 -43.45 L-15.65 -46.4 -15.85 -46.6 Q-16.0 -47.1 -15.45 -48.15 L-14.65 -49.2 Q-14.7 -49.6 -12.35 -50.9 L-11.25 -51.0" fill="url(#gradient29)" fill-rule="evenodd" stroke="none"/>
    <path d="M12.1 -27.7 L12.15 -25.85 11.6 -29.05 11.95 -28.75 12.1 -27.7 M12.75 -20.15 L12.35 -10.15 11.95 -13.85 11.55 -19.3 10.2 -26.3 11.35 -24.65 12.75 -20.15 M2.1 -45.1 L3.05 -43.4 2.45 -44.2 2.1 -45.1 M7.65 -34.15 L7.65 -34.1 7.55 -34.1 7.65 -34.15 M7.95 -33.3 L8.6 -31.95 8.4 -32.15 8.15 -32.6 7.95 -33.3 M11.55 -29.3 L9.1 -40.1 7.75 -44.6 9.3 -41.25 10.25 -37.35 11.2 -33.15 11.25 -32.95 11.25 -32.9 11.35 -32.7 11.35 -32.6 11.4 -32.4 11.4 -32.35 11.45 -32.05 11.45 -32.0 11.7 -31.2 11.95 -28.95 11.55 -29.3 M8.65 -31.45 L8.9 -31.25 9.85 -29.05 10.3 -27.3 9.6 -28.7 9.05 -30.35 8.9 -30.55 8.65 -31.45" fill="url(#gradient30)" fill-rule="evenodd" stroke="none"/>
    <path d="M7.0 -16.4 L6.75 -13.4 6.55 -11.35 6.4 -11.3 6.35 -11.7 6.05 -19.2 6.05 -19.65 5.95 -20.75 5.4 -24.6 4.85 -28.45 3.9 -31.85 3.5 -33.55 2.75 -36.5 4.05 -35.25 4.15 -35.2 7.2 -30.45 7.35 -27.35 7.35 -21.95 7.35 -19.65 7.1 -16.7 7.0 -16.4 M6.05 -37.75 L6.6 -36.45 6.8 -34.85 6.8 -34.45 6.75 -34.4 6.7 -34.45 4.2 -39.65 3.05 -42.6 6.05 -37.75" fill="url(#gradient31)" fill-rule="evenodd" stroke="none"/>
    <path d="M-6.8 -50.65 L-6.9 -50.7 -6.8 -50.7 -6.8 -50.65" fill="url(#gradient32)" fill-rule="evenodd" stroke="none"/>
    <path d="M-3.25 -46.6 L-2.15 -44.8 -2.85 -44.9 -3.7 -46.85 -3.25 -46.6" fill="url(#gradient33)" fill-rule="evenodd" stroke="none"/>
    <path d="M-3.45 -43.35 Q-3.85 -43.05 -4.3 -42.8 L-4.5 -43.2 -4.3 -43.55 -3.9 -44.15 -3.45 -43.35 M-2.15 -44.8 L-2.15 -44.75 -2.25 -44.5 -2.3 -44.4 -2.75 -44.8 -2.85 -44.9 -2.15 -44.8" fill="url(#gradient34)" fill-rule="evenodd" stroke="none"/>
    <path d="M-1.9 -44.35 L-1.6 -43.9 -1.7 -43.9 -1.9 -44.15 -1.9 -44.35 M-2.15 -43.5 L-2.55 -44.3 -2.1 -43.9 -2.15 -43.5 M-2.15 -44.3 L-2.3 -44.4 -2.25 -44.5 -2.15 -44.3" fill="url(#gradient35)" fill-rule="evenodd" stroke="none"/>
    <path d="M-1.0 -42.95 L-0.2 -41.75 -0.65 -41.75 -2.15 -43.5 -2.1 -43.9 -1.9 -43.7 -1.6 -43.35 -1.0 -42.95" fill="url(#gradient36)" fill-rule="evenodd" stroke="none"/>
    <path d="M10.5 -41.1 L11.95 -36.2 12.95 -30.15 13.45 -27.55 13.65 -26.3 13.25 -27.4 12.35 -30.75 11.2 -35.2 10.25 -37.35 9.3 -41.25 7.75 -44.6 5.55 -50.75 6.4 -49.9 9.8 -43.75 10.0 -43.1 10.5 -41.1" fill="url(#gradient37)" fill-rule="evenodd" stroke="none"/>
    <path d="M12.95 -30.15 L14.15 -29.1 Q14.4 -28.25 13.45 -27.55 L12.95 -30.15 M13.25 -27.4 L12.5 -27.35 12.1 -27.7 11.95 -28.75 12.1 -28.85 11.95 -28.95 11.7 -31.2 12.35 -30.75 13.25 -27.4 M7.65 -34.1 L7.85 -33.65 7.9 -33.45 7.95 -33.3 8.15 -32.6 7.9 -32.8 7.35 -33.65 7.55 -34.1 7.65 -34.1 M8.9 -30.55 L9.05 -30.35 8.9 -30.4 8.9 -30.55" fill="url(#gradient38)" fill-rule="evenodd" stroke="none"/>
    <path d="M-8.15 -35.5 L-8.15 -35.6 -8.9 -37.55 -9.05 -37.8 -9.05 -37.9 -9.1 -38.0 -9.65 -39.5 Q-12.7 -42.25 -13.0 -43.2 -13.2 -43.15 -13.2 -43.45 -13.1 -44.3 -10.8 -48.6 L-9.85 -49.15 -5.95 -45.3 -4.6 -43.4 -4.5 -43.2 -4.3 -42.8 -4.4 -42.45 -5.05 -41.8 -5.2 -41.75 -3.45 -39.55 -1.0 -35.2 -1.15 -34.8 -1.6 -34.45 -1.95 -34.1 -3.35 -33.7 -3.65 -33.7 -5.2 -33.7 -8.15 -35.5" fill="url(#gradient39)" fill-rule="evenodd" stroke="none"/>
    <path d="M-4.6 -43.4 L-4.3 -43.55 -4.5 -43.2 -4.6 -43.4" fill="url(#gradient40)" fill-rule="evenodd" stroke="none"/>
    <path d="M-2.15 -44.75 L-1.95 -44.5 -2.1 -44.2 -2.15 -44.3 -2.25 -44.5 -2.15 -44.75" fill="url(#gradient41)" fill-rule="evenodd" stroke="none"/>
    <path d="M-1.95 -44.5 L-1.9 -44.35 -1.9 -44.15 -1.9 -44.0 -2.1 -44.2 -1.95 -44.5" fill="url(#gradient42)" fill-rule="evenodd" stroke="none"/>
    <path d="M-1.9 -44.0 L-1.9 -44.15 -1.7 -43.9 -1.7 -43.8 -1.9 -44.0" fill="url(#gradient43)" fill-rule="evenodd" stroke="none"/>
    <path d="M-1.6 -43.9 L-1.6 -43.8 -1.6 -43.75 -1.7 -43.8 -1.7 -43.9 -1.6 -43.9" fill="url(#gradient44)" fill-rule="evenodd" stroke="none"/>
    <path d="M-1.6 -43.8 L-1.2 -43.3 -1.6 -43.75 -1.6 -43.8" fill="url(#gradient45)" fill-rule="evenodd" stroke="none"/>
    <path d="M9.8 -43.75 L10.05 -43.3 10.0 -43.1 9.8 -43.75" fill="url(#gradient46)" fill-rule="evenodd" stroke="none"/>
    <path d="M0.95 -38.5 L1.95 -36.45 Q2.95 -34.25 2.45 -34.45 0.1 -30.8 -0.65 -34.45 L-1.0 -35.2 -3.45 -39.55 -5.2 -41.75 -5.05 -41.8 -4.4 -42.45 -4.3 -42.8 Q-3.85 -43.05 -3.45 -43.35 L0.95 -38.5" fill="url(#gradient47)" fill-rule="evenodd" stroke="none"/>
    <path d="M-6.5 -33.75 L-8.15 -35.5 -5.2 -33.7 -3.65 -33.7 -3.5 -33.5 -3.35 -33.7 -1.95 -34.1 -1.6 -34.45 -1.15 -34.8 -1.0 -35.2 -0.65 -34.45 Q0.1 -30.8 2.45 -34.45 2.95 -34.25 1.95 -36.45 L0.95 -38.5 2.75 -36.5 3.5 -33.55 Q-0.2 -28.65 -5.55 -33.1 L-5.6 -33.15 -5.65 -33.15 -5.8 -33.3 -6.5 -33.75 M-8.15 -35.6 L-8.7 -36.3 -9.05 -37.7 -8.9 -37.55 -8.15 -35.6" fill="url(#gradient48)" fill-rule="evenodd" stroke="none"/>
    <path d="M-9.05 -37.7 L-9.05 -37.8 -8.9 -37.55 -9.05 -37.7" fill="url(#gradient49)" fill-rule="evenodd" stroke="none"/>
    <path d="M-0.2 -41.75 L1.1 -39.55 -0.65 -41.75 -0.2 -41.75" fill="url(#gradient50)" fill-rule="evenodd" stroke="none"/>
    <path d="M-6.1 -26.95 L-5.45 -30.65 -5.05 -31.95 -5.0 -31.95 -4.7 -31.75 Q-4.15 -29.55 0.6 -29.65 L1.0 -29.8 1.3 -29.85 2.9 -30.8 3.9 -31.85 4.85 -28.45 5.4 -24.6 Q-3.05 -22.75 -6.1 -26.95 M6.95 -33.9 L7.35 -33.65 7.9 -32.8 7.95 -32.45 7.3 -33.1 6.95 -33.9 M8.05 -32.0 L8.05 -31.6 7.75 -32.2 8.05 -32.0 M7.2 -30.45 L7.95 -29.45 7.35 -27.35 7.2 -30.45" fill="url(#gradient51)" fill-rule="evenodd" stroke="none"/>
    <path d="M-5.05 -32.45 L-6.1 -33.35 -5.8 -33.3 -5.65 -33.15 -5.6 -33.15 -5.55 -33.1 Q-0.2 -28.65 3.5 -33.55 L3.9 -31.85 2.9 -30.8 1.3 -29.85 1.0 -29.8 0.6 -29.65 Q-4.15 -29.55 -4.7 -31.75 L-4.8 -32.25 -5.05 -32.45" fill="url(#gradient52)" fill-rule="evenodd" stroke="none"/>
    <path d="M-5.0 -32.0 L-5.05 -32.45 -4.8 -32.25 -4.7 -31.75 -5.0 -31.95 -5.0 -32.0 M-6.1 -33.35 L-6.5 -33.75 -5.8 -33.3 -6.1 -33.35" fill="url(#gradient53)" fill-rule="evenodd" stroke="none"/>
    <path d="M-3.35 -33.7 L-3.5 -33.5 -3.65 -33.7 -3.35 -33.7" fill="url(#gradient54)" fill-rule="evenodd" stroke="none"/>
    <path d="M9.0 -28.0 L8.8 -26.4 7.9 -23.1 7.35 -21.95 7.35 -27.35 7.95 -29.45 9.0 -28.0 M-6.4 -24.05 L-6.8 -24.8 -6.7 -25.6 -6.6 -25.65 -6.5 -25.85 -6.3 -25.95 -6.3 -26.3 -6.1 -26.95 Q-3.05 -22.75 5.4 -24.6 L5.95 -20.75 5.45 -20.75 3.3 -20.65 -1.15 -21.3 Q-3.75 -21.8 -5.6 -23.25 L-6.4 -24.05 M8.65 -31.45 L8.9 -30.55 8.9 -30.4 8.9 -30.0 8.05 -31.6 8.05 -32.0 8.65 -31.45 M7.9 -32.8 L8.15 -32.6 8.4 -32.15 7.95 -32.45 7.9 -32.8" fill="url(#gradient55)" fill-rule="evenodd" stroke="none"/>
    <path d="M-5.05 -31.95 L-5.0 -32.0 -5.0 -31.95 -5.05 -31.95" fill="url(#gradient56)" fill-rule="evenodd" stroke="none"/>
    <path d="M-6.5 -25.85 L-6.3 -26.3 -6.3 -25.95 -6.5 -25.85" fill="url(#gradient57)" fill-rule="evenodd" stroke="none"/>
    <path d="M7.9 -23.1 L9.65 -20.8 7.2 -16.6 7.15 -16.6 7.1 -16.7 7.35 -19.65 7.35 -21.95 7.9 -23.1 M5.95 -20.75 L6.05 -19.65 6.05 -19.2 5.85 -19.65 5.4 -20.35 5.45 -20.75 5.95 -20.75" fill="url(#gradient58)" fill-rule="evenodd" stroke="none"/>
    <path d="M11.95 -13.85 L11.8 -11.95 11.7 -12.15 11.55 -19.3 11.95 -13.85" fill="url(#gradient59)" fill-rule="evenodd" stroke="none"/>
    <path d="M-6.35 -10.9 Q-9.95 -10.9 -6.4 -24.05 L-5.6 -23.25 -5.85 -14.25 Q-5.55 -10.85 -4.6 -10.55 L-5.15 -10.5 -6.35 -10.9" fill="url(#gradient60)" fill-rule="evenodd" stroke="none"/>
    <path d="M6.75 -13.4 Q7.85 -6.4 9.4 -4.95 L9.4 -4.9 Q14.1 3.5 -0.35 7.2 -12.35 3.4 -9.15 -4.9 L-8.55 -5.7 -8.45 -5.75 -8.5 -5.65 -8.35 -5.75 -8.15 -6.15 -7.95 -6.7 -6.9 -9.0 -6.8 -9.05 -6.7 -9.55 -6.7 -9.7 -6.6 -9.75 -6.35 -10.9 -5.15 -10.5 Q-4.7 -9.4 -1.7 -9.4 L0.7 -11.5 3.25 -15.6 5.4 -20.35 5.85 -19.65 6.05 -19.2 6.35 -11.7 6.4 -11.3 6.55 -11.35 6.75 -13.4 M-5.6 -23.25 Q-3.75 -21.8 -1.15 -21.3 L3.3 -20.65 2.85 -19.65 Q0.5 -13.15 -4.6 -10.55 -5.55 -10.85 -5.85 -14.25 L-5.6 -23.25" fill="url(#gradient61)" fill-rule="evenodd" stroke="none"/>
    <path d="M-6.9 -9.0 L-6.9 -9.15 -6.8 -9.2 -6.7 -9.55 -6.8 -9.05 -6.9 -9.0" fill="url(#gradient62)" fill-rule="evenodd" stroke="none"/>
    <path d="M-4.6 -10.55 Q0.5 -13.15 2.85 -19.65 L3.3 -20.65 5.45 -20.75 5.4 -20.35 3.25 -15.6 0.7 -11.5 -1.7 -9.4 Q-4.7 -9.4 -5.15 -10.5 L-4.6 -10.55" fill="url(#gradient63)" fill-rule="evenodd" stroke="none"/>
    <path d="M7.2 -16.6 L7.0 -16.4 7.1 -16.7 7.15 -16.6 7.2 -16.6" fill="url(#gradient64)" fill-rule="evenodd" stroke="none"/>
    <path d="M9.4 -4.95 Q15.1 0.85 12.55 6.45 8.15 12.55 0.9 11.3 -6.3 10.85 -10.45 4.45 -13.45 -3.2 -7.95 -6.7 L-8.15 -6.15 -8.55 -5.7 -9.15 -4.9 Q-12.35 3.4 -0.35 7.2 14.1 3.5 9.4 -4.9 L9.4 -4.95" fill="url(#gradient65)" fill-rule="evenodd" stroke="none"/>
    <path d="M-8.55 -5.7 L-8.15 -6.15 -8.35 -5.75 -8.5 -5.65 -8.45 -5.75 -8.55 -5.7" fill="url(#gradient66)" fill-rule="evenodd" stroke="none"/>
  </g>
  <defs>
    <radialGradient cx="0" cy="0" gradientTransform="matrix(0.008, 0.0, 0.0, 0.008, -40.55, -72.35)" gradientUnits="userSpaceOnUse" id="gradient0" r="819.2" spreadMethod="pad">
      <stop offset="0.0" stop-color="#542e0b"/>
      <stop offset="1.0" stop-color="#402208"/>
    </radialGradient>
    <radialGradient cx="0" cy="0" gradientTransform="matrix(0.0075, 0.0, 0.0, 0.0075, -42.7, -74.5)" gradientUnits="userSpaceOnUse" id="gradient1" r="819.2" spreadMethod="pad">
      <stop offset="0.0" stop-color="#492809"/>
      <stop offset="1.0" stop-color="#0e0802"/>
    </radialGradient>
    <radialGradient cx="0" cy="0" gradientTransform="matrix(0.0043, 0.0, 0.0, 0.0043, -39.4, -74.4)" gradientUnits="userSpaceOnUse" id="gradient2" r="819.2" spreadMethod="pad">
      <stop offset="0.0" stop-color="#d9cdaa"/>
      <stop offset="1.0" stop-color="#968d76"/>
    </radialGradient>
    <radialGradient cx="0" cy="0" gradientTransform="matrix(0.0013, 0.0, 0.0, 0.0013, -40.85, -76.15)" gradientUnits="userSpaceOnUse" id="gradient3" r="819.2" spreadMethod="pad">
      <stop offset="0.0" stop-color="#b15900"/>
      <stop offset="1.0" stop-color="#824100"/>
    </radialGradient>
    <radialGradient cx="0" cy="0" gradientTransform="matrix(0.0034, 0.0, 0.0, 0.0034, -39.85, -73.9)" gradientUnits="userSpaceOnUse" id="gradient4" r="819.2" spreadMethod="pad">
      <stop offset="0.0" stop-color="#ffb000"/>
      <stop offset="1.0" stop-color="#cc6600"/>
    </radialGradient>
    <radialGradient cx="0" cy="0" gradientTransform="matrix(0.0048, 0.0, 0.0, 0.0048, -38.95, -74.75)" gradientUnits="userSpaceOnUse" id="gradient5" r="819.2" spreadMethod="pad">
      <stop offset="0.0" stop-color="#ffa600"/>
      <stop offset="1.0" stop-color="#c46200"/>
    </radialGradient>
    <radialGradient cx="0" cy="0" gradientTransform="matrix(0.0054, 0.0, 0.0, 0.0054, -38.15, -72.25)" gradientUnits="userSpaceOnUse" id="gradient6" r="819.2" spreadMethod="pad">
      <stop offset="0.0" stop-color="#f6e8c1"/>
      <stop offset="1.0" stop-color="#c1b597"/>
    </radialGradient>
    <radialGradient cx="0" cy="0" gradientTransform="matrix(0.0022, 0.0, 0.0, 0.0022, -38.9, -71.5)" gradientUnits="userSpaceOnUse" id="gradient7" r="819.2" spreadMethod="pad">
      <stop offset="0.0" stop-color="#60340c"/>
      <stop offset="1.0" stop-color="#60340c"/>
    </radialGradient>
    <radialGradient cx="0" cy="0" gradientTransform="matrix(0.0866, 0.0, 0.0, 0.0866, -40.35, -74.05)" gradientUnits="userSpaceOnUse" id="gradient8" r="819.2" spreadMethod="pad">
      <stop offset="0.0" stop-color="#713d0e"/>
      <stop offset="1.0" stop-color="#5b310b"/>
    </radialGradient>
    <radialGradient cx="0" cy="0" gradientTransform="matrix(0.0037, 0.0, 0.0, 0.0037, -21.9, -58.25)" gradientUnits="userSpaceOnUse" id="gradient9" r="819.2" spreadMethod="pad">
      <stop offset="0.0" stop-color="#ffd77b"/>
      <stop offset="1.0" stop-color="#c28c50"/>
    </radialGradient>
    <radialGradient cx="0" cy="0" gradientTransform="matrix(0.0067, 0.0, 0.0, 0.0067, -18.8, -55.8)" gradientUnits="userSpaceOnUse" id="gradient10" r="819.2" spreadMethod="pad">
      <stop offset="0.0" stop-color="#344a6b"/>
      <stop offset="1.0" stop-color="#1d2a3d"/>
    </radialGradient>
    <radialGradient cx="0" cy="0" gradientTransform="matrix(0.0017, 0.0, 0.0, 0.0017, -20.75, -59.05)" gradientUnits="userSpaceOnUse" id="gradient11" r="819.2" spreadMethod="pad">
      <stop offset="0.0" stop-color="#ffc470"/>
      <stop offset="1.0" stop-color="#a67844"/>
    </radialGradient>
    <radialGradient cx="0" cy="0" gradientTransform="matrix(0.0074, 0.0, 0.0, 0.0074, -18.8, -55.8)" gradientUnits="userSpaceOnUse" id="gradient12" r="819.2" spreadMethod="pad">
      <stop offset="0.0" stop-color="#6ebeec"/>
      <stop offset="1.0" stop-color="#477a98"/>
    </radialGradient>
    <radialGradient cx="0" cy="0" gradientTransform="matrix(0.0053, 0.0, 0.0, 0.0053, -15.65, -51.4)" gradientUnits="userSpaceOnUse" id="gradient13" r="819.2" spreadMethod="pad">
      <stop offset="0.0" stop-color="#273951"/>
      <stop offset="1.0" stop-color="#1e2c40"/>
    </radialGradient>
    <radialGradient cx="0" cy="0" gradientTransform="matrix(0.0235, 0.0, 0.0, 0.0235, 6.0, -52.35)" gradientUnits="userSpaceOnUse" id="gradient14" r="819.2" spreadMethod="pad">
      <stop offset="0.0" stop-color="#7a6f9d"/>
      <stop offset="1.0" stop-color="#4b4460"/>
    </radialGradient>
    <radialGradient cx="0" cy="0" gradientTransform="matrix(0.0034, 0.0, 0.0, 0.0034, -3.7, -56.0)" gradientUnits="userSpaceOnUse" id="gradient15" r="819.2" spreadMethod="pad">
      <stop offset="0.0" stop-color="#776c99"/>
      <stop offset="1.0" stop-color="#6e648d"/>
    </radialGradient>
    <radialGradient cx="0" cy="0" gradientTransform="matrix(8.0E-4, 0.0, 0.0, 8.0E-4, -3.7, -56.0)" gradientUnits="userSpaceOnUse" id="gradient16" r="819.2" spreadMethod="pad">
      <stop offset="0.0" stop-color="#2d2939"/>
      <stop offset="1.0" stop-color="#211e2b"/>
    </radialGradient>
    <radialGradient cx="0" cy="0" gradientTransform="matrix(0.0194, 0.0, 0.0, 0.0194, 0.15, -49.2)" gradientUnits="userSpaceOnUse" id="gradient17" r="819.2" spreadMethod="pad">
      <stop offset="0.0" stop-color="#776c98"/>
      <stop offset="1.0" stop-color="#5b5274"/>
    </radialGradient>
    <radialGradient cx="0" cy="0" gradientTransform="matrix(0.0055, 0.0, 0.0, 0.0055, -4.55, -53.5)" gradientUnits="userSpaceOnUse" id="gradient18" r="819.2" spreadMethod="pad">
      <stop offset="0.0" stop-color="#726892"/>
      <stop offset="1.0" stop-color="#5a5172"/>
    </radialGradient>
    <radialGradient cx="0" cy="0" gradientTransform="matrix(0.0145, 0.0, 0.0, 0.0145, -6.95, -51.65)" gradientUnits="userSpaceOnUse" id="gradient19" r="819.2" spreadMethod="pad">
      <stop offset="0.0" stop-color="#796e9b"/>
      <stop offset="1.0" stop-color="#433c55"/>
    </radialGradient>
    <radialGradient cx="0" cy="0" gradientTransform="matrix(0.0383, 0.0, 0.0, 0.0383, -4.5, -54.3)" gradientUnits="userSpaceOnUse" id="gradient20" r="819.2" spreadMethod="pad">
      <stop offset="0.0" stop-color="#7a6e9c"/>
      <stop offset="1.0" stop-color="#4b4460"/>
    </radialGradient>
    <radialGradient cx="0" cy="0" gradientTransform="matrix(0.0376, 0.0, 0.0, 0.0376, -0.3, -57.05)" gradientUnits="userSpaceOnUse" id="gradient21" r="819.2" spreadMethod="pad">
      <stop offset="0.0" stop-color="#796e9b"/>
      <stop offset="1.0" stop-color="#4f4764"/>
    </radialGradient>
    <radialGradient cx="0" cy="0" gradientTransform="matrix(0.0319, 0.0, 0.0, 0.0319, 1.65, -55.35)" gradientUnits="userSpaceOnUse" id="gradient22" r="819.2" spreadMethod="pad">
      <stop offset="0.0" stop-color="#776c98"/>
      <stop offset="1.0" stop-color="#4e4865"/>
    </radialGradient>
    <radialGradient cx="0" cy="0" gradientTransform="matrix(0.012, 0.0, 0.0, 0.012, 10.0, -44.0)" gradientUnits="userSpaceOnUse" id="gradient23" r="819.2" spreadMethod="pad">
      <stop offset="0.0" stop-color="#25364d"/>
      <stop offset="1.0" stop-color="#192434"/>
    </radialGradient>
    <radialGradient cx="0" cy="0" gradientTransform="matrix(0.0132, 0.0, 0.0, 0.0132, -1.9, -57.05)" gradientUnits="userSpaceOnUse" id="gradient24" r="819.2" spreadMethod="pad">
      <stop offset="0.0" stop-color="#0f0e13"/>
      <stop offset="1.0" stop-color="#0f0e13"/>
    </radialGradient>
    <radialGradient cx="0" cy="0" gradientTransform="matrix(0.0083, 0.0, 0.0, 0.0083, -1.55, -53.3)" gradientUnits="userSpaceOnUse" id="gradient25" r="819.2" spreadMethod="pad">
      <stop offset="0.0" stop-color="#746994"/>
      <stop offset="1.0" stop-color="#453e58"/>
    </radialGradient>
    <radialGradient cx="0" cy="0" gradientTransform="matrix(0.0446, 0.0, 0.0, 0.0446, 0.1, -53.3)" gradientUnits="userSpaceOnUse" id="gradient26" r="819.2" spreadMethod="pad">
      <stop offset="0.0" stop-color="#786d99"/>
      <stop offset="1.0" stop-color="#423c55"/>
    </radialGradient>
    <radialGradient cx="0" cy="0" gradientTransform="matrix(0.0396, 0.0, 0.0, 0.0396, -1.45, -52.7)" gradientUnits="userSpaceOnUse" id="gradient27" r="819.2" spreadMethod="pad">
      <stop offset="0.0" stop-color="#786d9a"/>
      <stop offset="1.0" stop-color="#4c4562"/>
    </radialGradient>
    <radialGradient cx="0" cy="0" gradientTransform="matrix(0.0054, 0.0, 0.0, 0.0054, -14.1, -49.95)" gradientUnits="userSpaceOnUse" id="gradient28" r="819.2" spreadMethod="pad">
      <stop offset="0.0" stop-color="#334969"/>
      <stop offset="1.0" stop-color="#233248"/>
    </radialGradient>
    <radialGradient cx="0" cy="0" gradientTransform="matrix(0.0052, 0.0, 0.0, 0.0052, -11.65, -46.95)" gradientUnits="userSpaceOnUse" id="gradient29" r="819.2" spreadMethod="pad">
      <stop offset="0.0" stop-color="#73c5f6"/>
      <stop offset="1.0" stop-color="#538fb3"/>
    </radialGradient>
    <radialGradient cx="0" cy="0" gradientTransform="matrix(0.0455, 0.0, 0.0, 0.0455, 1.9, -46.05)" gradientUnits="userSpaceOnUse" id="gradient30" r="819.2" spreadMethod="pad">
      <stop offset="0.0" stop-color="#5f567a"/>
      <stop offset="1.0" stop-color="#403a52"/>
    </radialGradient>
    <radialGradient cx="0" cy="0" gradientTransform="matrix(0.0437, 0.0, 0.0, 0.0437, 1.8, -46.55)" gradientUnits="userSpaceOnUse" id="gradient31" r="819.2" spreadMethod="pad">
      <stop offset="0.0" stop-color="#766b98"/>
      <stop offset="1.0" stop-color="#46405a"/>
    </radialGradient>
    <radialGradient cx="0" cy="0" gradientTransform="matrix(0.0394, 0.0, 0.0, 0.0394, -6.4, -54.1)" gradientUnits="userSpaceOnUse" id="gradient32" r="819.2" spreadMethod="pad">
      <stop offset="0.0" stop-color="#0f0e13"/>
      <stop offset="1.0" stop-color="#0f0e13"/>
    </radialGradient>
    <radialGradient cx="0" cy="0" gradientTransform="matrix(0.0044, 0.0, 0.0, 0.0044, -1.9, -44.9)" gradientUnits="userSpaceOnUse" id="gradient33" r="819.2" spreadMethod="pad">
      <stop offset="0.0" stop-color="#b18049"/>
      <stop offset="1.0" stop-color="#a57744"/>
    </radialGradient>
    <radialGradient cx="0" cy="0" gradientTransform="matrix(0.0052, 0.0, 0.0, 0.0052, -0.9, -41.9)" gradientUnits="userSpaceOnUse" id="gradient34" r="819.2" spreadMethod="pad">
      <stop offset="0.0" stop-color="#344a6a"/>
      <stop offset="1.0" stop-color="#314665"/>
    </radialGradient>
    <radialGradient cx="0" cy="0" gradientTransform="matrix(0.003, 0.0, 0.0, 0.003, -2.1, -43.5)" gradientUnits="userSpaceOnUse" id="gradient35" r="819.2" spreadMethod="pad">
      <stop offset="0.0" stop-color="#213045"/>
      <stop offset="1.0" stop-color="#1c293b"/>
    </radialGradient>
    <radialGradient cx="0" cy="0" gradientTransform="matrix(0.0047, 0.0, 0.0, 0.0047, 0.05, -41.0)" gradientUnits="userSpaceOnUse" id="gradient36" r="819.2" spreadMethod="pad">
      <stop offset="0.0" stop-color="#24344a"/>
      <stop offset="1.0" stop-color="#1f2c40"/>
    </radialGradient>
    <radialGradient cx="0" cy="0" gradientTransform="matrix(0.0316, 0.0, 0.0, 0.0316, 4.35, -50.4)" gradientUnits="userSpaceOnUse" id="gradient37" r="819.2" spreadMethod="pad">
      <stop offset="0.0" stop-color="#70658f"/>
      <stop offset="1.0" stop-color="#4c4561"/>
    </radialGradient>
    <radialGradient cx="0" cy="0" gradientTransform="matrix(0.0105, 0.0, 0.0, 0.0105, 7.2, -33.6)" gradientUnits="userSpaceOnUse" id="gradient38" r="819.2" spreadMethod="pad">
      <stop offset="0.0" stop-color="#e4d7b3"/>
      <stop offset="1.0" stop-color="#c3b899"/>
    </radialGradient>
    <radialGradient cx="0" cy="0" gradientTransform="matrix(0.0142, 0.0, 0.0, 0.0142, -5.35, -38.65)" gradientUnits="userSpaceOnUse" id="gradient39" r="819.2" spreadMethod="pad">
      <stop offset="0.0" stop-color="#344b6b"/>
      <stop offset="1.0" stop-color="#202f44"/>
    </radialGradient>
    <radialGradient cx="0" cy="0" gradientTransform="matrix(5.0E-4, 0.0, 0.0, 5.0E-4, -4.4, -43.35)" gradientUnits="userSpaceOnUse" id="gradient40" r="819.2" spreadMethod="pad">
      <stop offset="0.0" stop-color="#ffc671"/>
      <stop offset="1.0" stop-color="#dea05b"/>
    </radialGradient>
    <radialGradient cx="0" cy="0" gradientTransform="matrix(0.0016, 0.0, 0.0, 0.0016, -2.0, -44.6)" gradientUnits="userSpaceOnUse" id="gradient41" r="819.2" spreadMethod="pad">
      <stop offset="0.0" stop-color="#1e2b3e"/>
      <stop offset="1.0" stop-color="#1c283a"/>
    </radialGradient>
    <radialGradient cx="0" cy="0" gradientTransform="matrix(0.0016, 0.0, 0.0, 0.0016, -2.05, -43.25)" gradientUnits="userSpaceOnUse" id="gradient42" r="819.2" spreadMethod="pad">
      <stop offset="0.0" stop-color="#06090d"/>
      <stop offset="1.0" stop-color="#06090d"/>
    </radialGradient>
    <radialGradient cx="0" cy="0" gradientTransform="matrix(0.0026, 0.0, 0.0, 0.0026, -1.8, -44.0)" gradientUnits="userSpaceOnUse" id="gradient43" r="819.2" spreadMethod="pad">
      <stop offset="0.0" stop-color="#06090d"/>
      <stop offset="1.0" stop-color="#06090d"/>
    </radialGradient>
    <radialGradient cx="0" cy="0" gradientTransform="matrix(0.0029, 0.0, 0.0, 0.0029, -1.65, -44.95)" gradientUnits="userSpaceOnUse" id="gradient44" r="819.2" spreadMethod="pad">
      <stop offset="0.0" stop-color="#261c10"/>
      <stop offset="1.0" stop-color="#261c10"/>
    </radialGradient>
    <radialGradient cx="0" cy="0" gradientTransform="matrix(0.0035, 0.0, 0.0, 0.0035, -1.35, -41.85)" gradientUnits="userSpaceOnUse" id="gradient45" r="819.2" spreadMethod="pad">
      <stop offset="0.0" stop-color="#c48d51"/>
      <stop offset="1.0" stop-color="#be894f"/>
    </radialGradient>
    <radialGradient cx="0" cy="0" gradientTransform="matrix(0.0053, 0.0, 0.0, 0.0053, 9.5, -45.65)" gradientUnits="userSpaceOnUse" id="gradient46" r="819.2" spreadMethod="pad">
      <stop offset="0.0" stop-color="#538eb1"/>
      <stop offset="1.0" stop-color="#4e87a8"/>
    </radialGradient>
    <radialGradient cx="0" cy="0" gradientTransform="matrix(0.0104, 0.0, 0.0, 0.0104, -1.35, -41.05)" gradientUnits="userSpaceOnUse" id="gradient47" r="819.2" spreadMethod="pad">
      <stop offset="0.0" stop-color="#74c8f9"/>
      <stop offset="1.0" stop-color="#4a7f9f"/>
    </radialGradient>
    <radialGradient cx="0" cy="0" gradientTransform="matrix(0.0122, 0.0, 0.0, 0.0122, -0.2, -39.45)" gradientUnits="userSpaceOnUse" id="gradient48" r="819.2" spreadMethod="pad">
      <stop offset="0.0" stop-color="#324867"/>
      <stop offset="1.0" stop-color="#1e2b3d"/>
    </radialGradient>
    <radialGradient cx="0" cy="0" gradientTransform="matrix(0.0136, 0.0, 0.0, 0.0136, -5.2, -33.85)" gradientUnits="userSpaceOnUse" id="gradient49" r="819.2" spreadMethod="pad">
      <stop offset="0.0" stop-color="#06090d"/>
      <stop offset="1.0" stop-color="#06090d"/>
    </radialGradient>
    <radialGradient cx="0" cy="0" gradientTransform="matrix(0.0047, 0.0, 0.0, 0.0047, -0.25, -40.3)" gradientUnits="userSpaceOnUse" id="gradient50" r="819.2" spreadMethod="pad">
      <stop offset="0.0" stop-color="#fff4cb"/>
      <stop offset="1.0" stop-color="#a59b81"/>
    </radialGradient>
    <radialGradient cx="0" cy="0" gradientTransform="matrix(0.0165, 0.0, 0.0, 0.0165, -3.6, -25.65)" gradientUnits="userSpaceOnUse" id="gradient51" r="819.2" spreadMethod="pad">
      <stop offset="0.0" stop-color="#374f71"/>
      <stop offset="1.0" stop-color="#2b3e59"/>
    </radialGradient>
    <radialGradient cx="0" cy="0" gradientTransform="matrix(0.0116, 0.0, 0.0, 0.0116, 2.8, -30.8)" gradientUnits="userSpaceOnUse" id="gradient52" r="819.2" spreadMethod="pad">
      <stop offset="0.0" stop-color="#b3a98c"/>
      <stop offset="1.0" stop-color="#79725f"/>
    </radialGradient>
    <radialGradient cx="0" cy="0" gradientTransform="matrix(0.005, 0.0, 0.0, 0.005, -4.55, -31.25)" gradientUnits="userSpaceOnUse" id="gradient53" r="819.2" spreadMethod="pad">
      <stop offset="0.0" stop-color="#827b66"/>
      <stop offset="1.0" stop-color="#1f1e19"/>
    </radialGradient>
    <radialGradient cx="0" cy="0" gradientTransform="matrix(0.004, 0.0, 0.0, 0.004, -4.6, -34.6)" gradientUnits="userSpaceOnUse" id="gradient54" r="819.2" spreadMethod="pad">
      <stop offset="0.0" stop-color="#1b2738"/>
      <stop offset="1.0" stop-color="#0b1017"/>
    </radialGradient>
    <radialGradient cx="0" cy="0" gradientTransform="matrix(0.0172, 0.0, 0.0, 0.0172, -3.55, -24.75)" gradientUnits="userSpaceOnUse" id="gradient55" r="819.2" spreadMethod="pad">
      <stop offset="0.0" stop-color="#6bb9e6"/>
      <stop offset="1.0" stop-color="#487b99"/>
    </radialGradient>
    <radialGradient cx="0" cy="0" gradientTransform="matrix(0.0012, 0.0, 0.0, 0.0012, -4.75, -32.6)" gradientUnits="userSpaceOnUse" id="gradient56" r="819.2" spreadMethod="pad">
      <stop offset="0.0" stop-color="#1f2c3f"/>
      <stop offset="1.0" stop-color="#1d2a3c"/>
    </radialGradient>
    <radialGradient cx="0" cy="0" gradientTransform="matrix(0.0023, 0.0, 0.0, 0.0023, -6.4, -26.0)" gradientUnits="userSpaceOnUse" id="gradient57" r="819.2" spreadMethod="pad">
      <stop offset="0.0" stop-color="#0e181e"/>
      <stop offset="1.0" stop-color="#0e181e"/>
    </radialGradient>
    <radialGradient cx="0" cy="0" gradientTransform="matrix(0.0085, 0.0, 0.0, 0.0085, 7.45, -23.75)" gradientUnits="userSpaceOnUse" id="gradient58" r="819.2" spreadMethod="pad">
      <stop offset="0.0" stop-color="#958c75"/>
      <stop offset="1.0" stop-color="#736c59"/>
    </radialGradient>
    <radialGradient cx="0" cy="0" gradientTransform="matrix(0.0241, 0.0, 0.0, 0.0241, 11.35, -31.8)" gradientUnits="userSpaceOnUse" id="gradient59" r="819.2" spreadMethod="pad">
      <stop offset="0.0" stop-color="#4d4663"/>
      <stop offset="1.0" stop-color="#443e56"/>
    </radialGradient>
    <radialGradient cx="0" cy="0" gradientTransform="matrix(0.0213, 0.0, 0.0, 0.0213, -6.85, -11.15)" gradientUnits="userSpaceOnUse" id="gradient60" r="819.2" spreadMethod="pad">
      <stop offset="0.0" stop-color="#23211b"/>
      <stop offset="1.0" stop-color="#1f1e19"/>
    </radialGradient>
    <radialGradient cx="0" cy="0" gradientTransform="matrix(0.0395, 0.0, 0.0, 0.0395, 4.75, 5.95)" gradientUnits="userSpaceOnUse" id="gradient61" r="819.2" spreadMethod="pad">
      <stop offset="0.0" stop-color="#334969"/>
      <stop offset="1.0" stop-color="#1c293b"/>
    </radialGradient>
    <radialGradient cx="0" cy="0" gradientTransform="matrix(0.0034, 0.0, 0.0, 0.0034, -6.9, -8.95)" gradientUnits="userSpaceOnUse" id="gradient62" r="819.2" spreadMethod="pad">
      <stop offset="0.0" stop-color="#06090d"/>
      <stop offset="1.0" stop-color="#06090d"/>
    </radialGradient>
    <radialGradient cx="0" cy="0" gradientTransform="matrix(0.0197, 0.0, 0.0, 0.0197, 4.3, -23.6)" gradientUnits="userSpaceOnUse" id="gradient63" r="819.2" spreadMethod="pad">
      <stop offset="0.0" stop-color="#999078"/>
      <stop offset="1.0" stop-color="#615b4c"/>
    </radialGradient>
    <radialGradient cx="0" cy="0" gradientTransform="matrix(0.0021, 0.0, 0.0, 0.0021, 7.6, -17.7)" gradientUnits="userSpaceOnUse" id="gradient64" r="819.2" spreadMethod="pad">
      <stop offset="0.0" stop-color="#6a6453"/>
      <stop offset="1.0" stop-color="#565143"/>
    </radialGradient>
    <radialGradient cx="0" cy="0" gradientTransform="matrix(0.0286, 0.0, 0.0, 0.0286, 7.5, 10.55)" gradientUnits="userSpaceOnUse" id="gradient65" r="819.2" spreadMethod="pad">
      <stop offset="0.0" stop-color="#7bd3ff"/>
      <stop offset="1.0" stop-color="#4a80a0"/>
    </radialGradient>
    <radialGradient cx="0" cy="0" gradientTransform="matrix(0.0112, 0.0, 0.0, 0.0112, -6.0, -14.5)" gradientUnits="userSpaceOnUse" id="gradient66" r="819.2" spreadMethod="pad">
      <stop offset="0.0" stop-color="#06090d"/>
      <stop offset="1.0" stop-color="#06090d"/>
    </radialGradient>
  </defs>
</svg>
