<?xml version="1.0" encoding="UTF-8" standalone="no"?>
<svg xmlns:ffdec="https://www.free-decompiler.com/flash" xmlns:xlink="http://www.w3.org/1999/xlink" ffdec:objectType="shape" height="81.75px" width="70.3px" xmlns="http://www.w3.org/2000/svg">
  <g transform="matrix(1.0, 0.0, 0.0, 1.0, 35.15, 40.9)">
    <path d="M-22.4 -40.65 L-22.0 -40.5 -21.55 -40.0 Q-22.05 -36.55 -23.2 -40.0 L-23.1 -40.4 -22.65 -40.65 -22.4 -40.65" fill="url(#gradient0)" fill-rule="evenodd" stroke="none"/>
    <path d="M-22.4 -40.65 Q-19.45 -41.4 -12.75 -39.9 L-12.6 -39.0 Q-18.4 -40.0 -25.7 -35.8 -26.95 -38.8 -30.3 -37.5 -32.1 -36.9 -29.15 -33.05 L-29.25 -32.6 -31.8 -29.55 Q-33.05 -31.25 -35.15 -31.2 L-34.55 -32.9 -34.5 -32.95 -34.45 -33.15 -34.4 -33.2 -34.3 -33.6 -34.25 -33.65 -34.2 -33.85 -34.15 -33.95 -34.05 -34.15 -34.0 -34.2 -34.0 -34.3 -34.0 -34.35 -33.9 -34.6 -33.85 -34.65 -33.8 -34.85 -33.75 -34.9 -33.75 -35.0 -33.7 -35.05 -33.7 -35.1 -33.65 -35.15 -33.65 -35.3 -33.6 -35.35 -29.55 -39.0 -24.25 -40.55 -22.65 -40.65 -23.1 -40.4 -23.2 -40.0 Q-22.05 -36.55 -21.55 -40.0 L-22.0 -40.5 -22.4 -40.65 M-25.8 -39.95 Q-27.85 -38.5 -24.5 -37.2 -23.2 -39.4 -25.8 -39.95 M-32.5 -34.6 L-33.55 -34.3 Q-34.0 -33.9 -33.9 -33.35 -31.75 -31.7 -30.6 -32.2 -29.95 -34.15 -32.5 -34.6" fill="url(#gradient1)" fill-rule="evenodd" stroke="none"/>
    <path d="M-35.15 -31.2 Q-33.05 -31.25 -31.8 -29.55 -33.9 -29.2 -35.15 -31.2" fill="url(#gradient2)" fill-rule="evenodd" stroke="none"/>
    <path d="M-29.25 -32.6 L-29.15 -33.05 Q-32.1 -36.9 -30.3 -37.5 -26.95 -38.8 -25.7 -35.8 L-25.6 -35.05 Q-27.1 -36.0 -27.55 -32.7 L-28.0 -32.55 -29.25 -32.6 M-29.4 -37.35 L-29.9 -36.95 -30.15 -36.15 -29.65 -35.25 Q-29.0 -34.6 -28.0 -34.8 -25.6 -36.5 -28.85 -37.5 L-29.4 -37.35" fill="url(#gradient3)" fill-rule="evenodd" stroke="none"/>
    <path d="M-25.8 -39.95 Q-23.2 -39.4 -24.5 -37.2 -27.85 -38.5 -25.8 -39.95" fill="url(#gradient4)" fill-rule="evenodd" stroke="none"/>
    <path d="M-29.4 -37.35 L-28.85 -37.5 Q-25.6 -36.5 -28.0 -34.8 -29.0 -34.6 -29.65 -35.25 L-30.15 -36.15 -29.9 -36.95 -29.4 -37.35" fill="url(#gradient5)" fill-rule="evenodd" stroke="none"/>
    <path d="M-25.6 -35.05 L-23.3 -33.35 Q-24.7 -32.7 -25.1 -31.0 L-27.55 -32.7 Q-27.1 -36.0 -25.6 -35.05" fill="url(#gradient6)" fill-rule="evenodd" stroke="none"/>
    <path d="M-23.3 -33.35 L-23.25 -33.05 Q-24.85 -32.8 -24.65 -31.0 L-25.1 -31.0 Q-24.7 -32.7 -23.3 -33.35" fill="url(#gradient7)" fill-rule="evenodd" stroke="none"/>
    <path d="M-23.25 -33.05 L-10.0 -23.55 -10.15 -23.4 -10.95 -22.85 -11.6 -22.0 -11.95 -22.1 -12.1 -22.0 -24.65 -31.0 Q-24.85 -32.8 -23.25 -33.05 M4.1 -13.45 L11.35 -8.3 10.7 -7.95 10.05 -7.25 9.9 -7.15 9.1 -6.85 4.3 -10.25 4.1 -13.45 M14.85 -5.75 L25.8 2.0 25.45 2.8 24.3 4.1 15.75 -2.0 15.35 -2.35 15.35 -2.65 15.6 -4.25 15.1 -5.35 14.85 -5.55 14.85 -5.75 M-1.5 -14.85 L-1.65 -14.55 -1.7 -14.6 -1.55 -14.85 -1.5 -14.85 M-0.8 -13.9 L0.1 -16.15 0.25 -16.3 1.95 -15.05 1.65 -12.65 1.1 -12.95 0.55 -12.9 -0.8 -13.9 M3.85 -12.35 L4.15 -10.4 3.95 -10.55 3.7 -11.05 3.85 -12.35 M2.25 -14.8 L2.85 -14.35 3.25 -11.6 3.4 -11.55 3.4 -12.05 3.25 -14.1 3.55 -13.9 3.65 -11.15 1.8 -12.55 2.25 -14.8" fill="url(#gradient8)" fill-rule="evenodd" stroke="none"/>
    <path d="M-32.5 -34.6 Q-29.95 -34.15 -30.6 -32.2 -31.75 -31.7 -33.9 -33.35 -34.0 -33.9 -33.55 -34.3 L-32.5 -34.6" fill="url(#gradient9)" fill-rule="evenodd" stroke="none"/>
    <path d="M-12.45 -19.65 L-12.1 -22.0 -11.95 -22.1 -11.6 -22.0 -11.1 -21.9 -11.7 -21.2 -12.45 -19.65" fill="url(#gradient10)" fill-rule="evenodd" stroke="none"/>
    <path d="M-9.8 -23.55 L-9.75 -23.55 -9.65 -23.55 -9.9 -23.15 -11.1 -21.9 -11.6 -22.0 -10.95 -22.85 -10.15 -23.4 -9.8 -23.55" fill="url(#gradient11)" fill-rule="evenodd" stroke="none"/>
    <path d="M-10.0 -23.55 L-9.8 -23.55 -10.15 -23.4 -10.0 -23.55 M-9.75 -23.55 L-9.55 -23.65 -9.65 -23.55 -9.75 -23.55" fill="url(#gradient12)" fill-rule="evenodd" stroke="none"/>
    <path d="M-9.55 -23.65 L-9.15 -24.0 -7.1 -24.7 -6.9 -24.65 -6.8 -24.6 -6.75 -24.6 -6.4 -24.55 -5.55 -23.9 -6.4 -21.9 Q-6.3 -19.7 -6.65 -19.3 L-7.7 -18.0 -8.35 -16.4 -8.6 -16.15 -10.8 -13.6 Q-14.9 -4.8 -14.4 -4.25 L-14.95 -1.85 -16.1 2.75 -17.3 12.15 -16.75 1.25 -15.75 -5.7 -15.05 -9.7 -12.55 -18.35 -9.9 -23.15 -9.65 -23.55 -9.55 -23.65" fill="url(#gradient13)" fill-rule="evenodd" stroke="none"/>
    <path d="M-9.15 -24.0 L-7.9 -25.45 -7.0 -25.45 -7.2 -25.3 -7.1 -24.7 -9.15 -24.0 M-15.75 -5.7 L-16.5 -3.0 -18.0 7.35 -17.1 -2.95 -16.2 -7.35 -15.85 -9.1 -15.55 -10.4 -15.1 -12.45 -13.9 -15.95 -12.45 -19.6 -12.45 -19.65 -11.7 -21.2 -11.1 -21.9 -9.9 -23.15 -12.55 -18.35 -15.05 -9.7 -15.75 -5.7" fill="url(#gradient14)" fill-rule="evenodd" stroke="none"/>
    <path d="M-7.0 -25.45 L-4.0 -26.7 -3.3 -26.1 -3.15 -25.8 -4.3 -25.85 -4.6 -25.7 -4.9 -25.25 -5.45 -25.2 -6.75 -24.6 -6.8 -24.6 -6.9 -24.65 -7.1 -24.7 -7.2 -25.3 -7.0 -25.45" fill="url(#gradient15)" fill-rule="evenodd" stroke="none"/>
    <path d="M-3.3 -26.1 L-2.65 -25.9 -2.3 -25.55 -2.3 -25.45 -3.15 -25.8 -3.3 -26.1 M-17.15 -8.05 L-22.7 1.0 -17.55 -8.6 -16.35 -10.75 -15.1 -12.45 -15.55 -10.4 -16.1 -9.7 -17.15 -8.05" fill="url(#gradient16)" fill-rule="evenodd" stroke="none"/>
    <path d="M-4.9 -25.25 L-4.6 -25.7 -4.3 -25.85 -3.15 -25.8 -2.3 -25.45 -1.7 -25.05 -2.3 -24.95 -2.75 -24.55 -2.8 -22.2 -3.3 -20.45 -4.9 -16.55 -6.1 -14.6 -10.15 -5.4 -11.3 -3.15 -11.25 -3.05 -11.05 -3.15 -11.95 -0.75 -13.75 3.8 -13.1 1.05 -12.8 -0.55 -8.35 -16.4 -7.7 -18.0 -6.65 -19.3 Q-6.3 -19.7 -6.4 -21.9 L-5.55 -23.9 -4.9 -25.25" fill="url(#gradient17)" fill-rule="evenodd" stroke="none"/>
    <path d="M-4.9 -25.25 L-5.55 -23.9 -6.4 -24.55 -6.75 -24.6 -5.45 -25.2 -4.9 -25.25 M-0.1 -20.9 L0.15 -19.75 -0.7 -17.3 -0.75 -17.25 -1.45 -16.5 -1.45 -16.65 -2.2 -16.55 -0.6 -19.55 -0.1 -20.9" fill="url(#gradient18)" fill-rule="evenodd" stroke="none"/>
    <path d="M-2.3 -25.55 Q-2.1 -26.5 0.45 -24.7 L-1.85 -25.6 -2.3 -25.45 -2.3 -25.55 M1.45 -19.25 L1.6 -19.6 1.9 -18.8 1.85 -18.25 1.45 -19.25 M2.35 -18.45 L3.05 -16.3 3.25 -14.1 3.4 -12.05 3.4 -11.55 3.25 -11.6 2.85 -14.35 2.5 -16.4 2.3 -16.8 2.35 -18.45" fill="url(#gradient19)" fill-rule="evenodd" stroke="none"/>
    <path d="M0.45 -24.7 L0.6 -24.55 0.0 -24.45 -0.85 -24.95 -1.7 -25.05 -2.3 -25.45 -1.85 -25.6 0.45 -24.7 M3.95 -15.65 L4.1 -13.45 4.3 -10.25 4.35 -9.1 4.25 -9.15 4.15 -10.4 3.85 -12.35 3.55 -14.6 3.55 -14.8 3.55 -14.85 3.5 -14.9 3.05 -16.3 2.35 -18.45 2.35 -19.95 1.7 -22.55 2.75 -20.8 3.75 -16.15 3.95 -15.65 M4.3 -8.7 L4.3 -9.0 4.4 -8.95 4.4 -8.6 4.3 -8.7" fill="url(#gradient20)" fill-rule="evenodd" stroke="none"/>
    <path d="M-15.25 4.15 L-15.7 4.75 -15.75 4.65 -15.25 3.7 -12.8 -0.55 -13.1 1.05 -15.25 4.15 M-11.95 -0.75 L-11.05 -3.15 -11.25 -3.05 -11.3 -3.15 -10.15 -5.4 -5.95 -13.65 -4.9 -16.55 -3.3 -20.45 -2.8 -22.2 -2.75 -24.55 -2.3 -24.95 -1.7 -25.05 -0.85 -24.95 0.0 -24.45 0.5 -23.75 Q0.15 -20.9 -0.1 -20.9 L-0.6 -19.55 -2.2 -16.55 -4.25 -12.8 -4.45 -12.4 -9.0 -5.1 -11.95 -0.75" fill="url(#gradient21)" fill-rule="evenodd" stroke="none"/>
    <path d="M-13.75 3.8 L-11.95 -0.75 -9.0 -5.1 -11.85 1.45 -12.15 2.15 -12.35 2.55 -12.75 3.5 -12.9 3.9 -14.75 8.1 -13.75 3.8 M-10.15 -5.4 L-6.1 -14.6 -4.9 -16.55 -5.95 -13.65 -10.15 -5.4" fill="url(#gradient22)" fill-rule="evenodd" stroke="none"/>
    <path d="M0.6 -24.55 L1.1 -24.3 1.25 -23.9 1.3 -23.25 1.65 -21.25 1.6 -19.6 1.45 -19.25 0.25 -16.3 0.1 -16.15 -0.8 -13.9 -1.5 -12.65 -1.7 -12.3 -1.85 -12.15 -4.3 -8.2 -5.85 -5.7 -7.55 -3.55 -11.8 1.95 -12.35 2.55 -12.15 2.15 -11.8 1.7 -7.6 -4.25 -7.3 -4.8 -6.05 -6.55 -5.3 -7.85 -3.65 -10.9 -3.1 -11.95 -2.6 -12.8 -1.65 -14.55 -1.5 -14.85 -1.5 -14.9 -0.7 -17.25 -0.7 -17.3 0.15 -19.75 -0.1 -20.9 Q0.15 -20.9 0.5 -23.75 L0.0 -24.45 0.6 -24.55" fill="url(#gradient23)" fill-rule="evenodd" stroke="none"/>
    <path d="M-13.1 22.2 L-13.05 22.1 -12.95 22.2 -13.1 22.2 M-13.05 21.95 L-14.7 13.7 -14.9 11.0 -14.9 10.4 -15.0 9.7 -15.25 4.15 -13.1 1.05 -13.75 3.8 -14.75 8.1 -12.9 3.9 -13.05 6.7 -13.1 7.5 -13.15 7.7 -13.3 9.1 -13.45 11.25 -13.55 13.1 -13.0 21.85 -13.0 21.9 -13.0 21.95 -13.05 21.95 M-15.25 3.7 L-15.35 2.0 -15.2 0.2 -15.2 0.05 -15.1 0.0 -14.95 -1.85 -14.4 -4.25 Q-14.9 -4.8 -10.8 -13.6 L-8.6 -16.15 -8.35 -16.4 -12.8 -0.55 -15.25 3.7" fill="url(#gradient24)" fill-rule="evenodd" stroke="none"/>
    <path d="M-2.2 -16.55 L-1.45 -16.65 -1.45 -16.5 -2.65 -14.85 -2.95 -14.5 -3.3 -13.95 -3.4 -13.85 -3.6 -13.55 -4.25 -12.8 -2.2 -16.55 M-7.3 -4.8 L-7.6 -4.25 -11.8 1.7 -11.85 1.45 -9.0 -5.1 -4.45 -12.4 -4.9 -11.1 -5.15 -10.4 -6.25 -7.55 -7.3 -4.8 M-11.8 1.95 L-7.55 -3.55 -7.9 -1.9 -8.25 0.0 -9.2 4.6 -9.3 6.75 -9.55 10.55 -9.55 10.8 -9.8 14.9 -9.35 22.5 -11.2 13.25 -11.5 8.7 -11.8 4.6 -11.8 1.95" fill="url(#gradient25)" fill-rule="evenodd" stroke="none"/>
    <path d="M-1.45 -16.5 L-0.75 -17.25 -0.7 -17.25 -1.5 -14.9 -1.55 -14.85 -1.7 -14.6 -2.0 -14.3 -2.6 -14.15 -2.65 -14.85 -1.45 -16.5" fill="url(#gradient26)" fill-rule="evenodd" stroke="none"/>
    <path d="M-0.75 -17.25 L-0.7 -17.3 -0.7 -17.25 -0.75 -17.25 M-1.5 -14.9 L-1.5 -14.85 -1.55 -14.85 -1.5 -14.9" fill="url(#gradient27)" fill-rule="evenodd" stroke="none"/>
    <path d="M1.25 -23.9 Q1.5 -24.9 3.4 -20.35 L3.95 -15.65 3.75 -16.15 2.75 -20.8 1.7 -22.55 1.55 -23.15 1.3 -23.25 1.25 -23.9 M3.55 -14.85 L3.55 -14.8 3.5 -14.85 3.55 -14.85 M3.55 -14.6 L3.85 -12.35 3.7 -11.05 3.65 -11.15 3.55 -13.9 3.55 -14.6" fill="url(#gradient28)" fill-rule="evenodd" stroke="none"/>
    <path d="M1.6 -19.6 L1.65 -21.25 1.3 -23.25 1.55 -23.15 1.7 -22.55 2.35 -19.95 2.35 -18.45 2.3 -16.8 2.25 -14.8 1.8 -12.55 1.25 -10.3 1.65 -12.65 1.95 -15.05 1.85 -18.25 1.9 -18.8 1.6 -19.6" fill="url(#gradient29)" fill-rule="evenodd" stroke="none"/>
    <path d="M-0.35 -2.5 L-0.55 -2.35 -0.9 -1.95 -1.35 -1.5 -1.85 -1.15 -4.15 -0.75 -7.9 -1.9 -7.55 -3.55 -5.85 -5.7 -4.3 -8.2 Q-1.0 -9.45 -1.7 -11.85 L-1.65 -12.15 -1.7 -12.3 -1.5 -12.65 -0.6 -12.75 0.15 -12.65 -0.2 -12.15 -0.3 -11.8 0.0 -11.8 1.0 -11.55 -0.8 -8.6 Q-3.95 -4.8 -5.0 -4.25 L-5.25 -3.95 -5.55 -3.2 -4.0 -2.1 -2.5 -2.3 -1.0 -3.45 -0.35 -2.5 M-5.3 -7.85 L-6.05 -6.55 -7.3 -4.8 -6.25 -7.55 -5.3 -7.85 M-0.4 -11.15 L-0.35 -11.05 -0.35 -11.15 -0.4 -11.3 -0.5 -11.3 -0.5 -11.25 -0.4 -11.15 M-0.4 -10.45 L-0.35 -10.75 -0.35 -11.0 -0.4 -10.95 -0.5 -10.85 -0.65 -10.5 -0.7 -10.0 -0.9 -9.25 -0.65 -9.7 -0.5 -9.35 -0.35 -10.35 -0.4 -10.4 -0.4 -10.45 M-1.0 -1.5 L-0.9 -1.8 -0.85 -1.6 -1.0 -1.5" fill="url(#gradient30)" fill-rule="evenodd" stroke="none"/>
    <path d="M-0.2 -12.15 L0.15 -12.65 0.55 -12.9 1.1 -12.95 1.25 -12.6 1.0 -11.55 0.0 -11.8 0.05 -12.05 -0.2 -12.15" fill="url(#gradient31)" fill-rule="evenodd" stroke="none"/>
    <path d="M1.0 -11.55 L1.25 -12.6 1.1 -12.95 1.65 -12.65 1.25 -10.3 1.8 -12.55 3.65 -11.15 3.7 -11.05 3.95 -10.55 3.55 -9.35 2.25 -7.2 -1.0 -3.45 -2.5 -2.3 -4.0 -2.1 -5.55 -3.2 -5.25 -3.95 -5.0 -4.25 Q-3.95 -4.8 -0.8 -8.6 L1.0 -11.55" fill="url(#gradient32)" fill-rule="evenodd" stroke="none"/>
    <path d="M-0.2 -12.15 L0.05 -12.05 0.0 -11.8 -0.3 -11.8 -0.2 -12.15" fill="url(#gradient33)" fill-rule="evenodd" stroke="none"/>
    <path d="M-16.45 -13.85 L-16.4 -13.95 Q-16.35 -15.0 -14.9 -15.75 L-13.9 -15.95 -15.1 -12.45 -16.35 -10.75 -16.5 -11.3 -16.45 -13.85 M-15.55 -10.4 L-15.85 -9.1 -16.1 -9.7 -15.55 -10.4" fill="url(#gradient34)" fill-rule="evenodd" stroke="none"/>
    <path d="M-16.2 -7.35 L-16.45 -7.35 -17.15 -8.05 -16.1 -9.7 -15.85 -9.1 -16.2 -7.35 M-17.55 -8.6 Q-20.0 -11.35 -16.45 -13.85 L-16.5 -11.3 -16.35 -10.75 -17.55 -8.6" fill="url(#gradient35)" fill-rule="evenodd" stroke="none"/>
    <path d="M-2.6 -14.15 L-2.95 -14.5 -2.65 -14.85 -2.6 -14.15" fill="url(#gradient36)" fill-rule="evenodd" stroke="none"/>
    <path d="M3.5 -14.9 L3.55 -14.85 3.5 -14.85 3.5 -14.9" fill="url(#gradient37)" fill-rule="evenodd" stroke="none"/>
    <path d="M-2.95 -14.5 L-2.6 -14.15 -3.3 -13.95 -2.95 -14.5" fill="url(#gradient38)" fill-rule="evenodd" stroke="none"/>
    <path d="M-3.6 -13.55 L-3.4 -13.85 -3.1 -13.2 -3.15 -12.9 -3.25 -12.45 -3.6 -12.15 -3.6 -13.55" fill="url(#gradient39)" fill-rule="evenodd" stroke="none"/>
    <path d="M-3.6 -13.55 L-3.6 -12.15 -3.8 -11.75 -4.9 -11.1 -4.45 -12.4 -4.25 -12.8 -3.6 -13.55" fill="url(#gradient40)" fill-rule="evenodd" stroke="none"/>
    <path d="M-3.1 -11.95 L-3.65 -10.9 -5.15 -10.4 -4.9 -11.1 -3.8 -11.75 -3.6 -12.15 -3.25 -12.45 -3.15 -12.9 -3.1 -12.9 -3.1 -11.95" fill="url(#gradient41)" fill-rule="evenodd" stroke="none"/>
    <path d="M-2.6 -12.8 L-3.1 -11.95 -3.1 -12.9 -2.6 -12.8 M-3.65 -10.9 L-5.3 -7.85 -6.25 -7.55 -5.15 -10.4 -3.65 -10.9 M-4.3 -8.2 L-1.85 -12.15 -1.8 -12.15 -1.7 -11.85 Q-1.0 -9.45 -4.3 -8.2" fill="url(#gradient42)" fill-rule="evenodd" stroke="none"/>
    <path d="M-1.85 -12.15 L-1.7 -12.3 -1.65 -12.15 -1.8 -12.15 -1.85 -12.15" fill="url(#gradient43)" fill-rule="evenodd" stroke="none"/>
    <path d="M-1.65 -12.15 L-1.7 -11.85 -1.8 -12.15 -1.65 -12.15" fill="url(#gradient44)" fill-rule="evenodd" stroke="none"/>
    <path d="M5.7 4.9 L5.3 4.75 5.25 4.7 -0.35 -2.5 -1.0 -3.45 2.25 -7.2 3.55 -9.35 4.3 -8.7 4.4 -8.6 Q5.8 -8.35 6.0 -5.0 L7.5 -3.2 7.75 -2.95 8.85 -1.65 8.9 -1.1 9.2 -0.55 Q10.45 0.9 6.1 3.75 L5.95 3.9 5.95 4.55 5.7 4.9" fill="url(#gradient45)" fill-rule="evenodd" stroke="none"/>
    <path d="M-0.35 -11.15 L-0.4 -11.15 -0.5 -11.25 -0.5 -11.3 -0.4 -11.3 -0.35 -11.15 M-0.4 -10.95 L-0.4 -10.85 -0.5 -10.85 -0.4 -10.95" fill="url(#gradient46)" fill-rule="evenodd" stroke="none"/>
    <path d="M-0.35 -11.15 L-0.35 -11.05 -0.4 -11.15 -0.35 -11.15 M-0.4 -10.95 L-0.35 -11.0 -0.35 -10.75 -0.4 -10.45 -0.4 -10.85 -0.4 -10.95" fill="url(#gradient47)" fill-rule="evenodd" stroke="none"/>
    <path d="M-0.4 -10.85 L-0.4 -10.45 -0.4 -10.4 -0.6 -9.9 -0.7 -10.0 -0.65 -10.5 -0.5 -10.85 -0.4 -10.85" fill="url(#gradient48)" fill-rule="evenodd" stroke="none"/>
    <path d="M-0.65 -9.7 L-0.9 -9.25 -0.7 -10.0 -0.6 -9.9 -0.65 -9.7" fill="url(#gradient49)" fill-rule="evenodd" stroke="none"/>
    <path d="M-0.4 -10.4 L-0.35 -10.35 -0.5 -9.35 -0.65 -9.7 -0.6 -9.9 -0.4 -10.4" fill="url(#gradient50)" fill-rule="evenodd" stroke="none"/>
    <path d="M13.1 -0.65 L12.9 -0.25 Q11.25 -4.15 7.75 -2.95 L7.5 -3.2 8.0 -4.35 Q8.6 -5.7 10.55 -5.35 L12.35 -4.25 13.35 -3.0 Q13.7 -1.35 13.1 -0.65" fill="url(#gradient51)" fill-rule="evenodd" stroke="none"/>
    <path d="M15.75 -2.0 L15.55 -1.0 13.1 -0.65 Q13.7 -1.35 13.35 -3.0 L12.35 -4.25 10.55 -5.35 Q8.6 -5.7 8.0 -4.35 L8.65 -6.7 9.1 -6.85 9.9 -7.15 10.05 -7.25 13.0 -7.05 14.85 -5.55 15.1 -5.35 15.6 -4.25 15.35 -2.65 15.35 -2.35 15.75 -2.0" fill="url(#gradient52)" fill-rule="evenodd" stroke="none"/>
    <path d="M11.35 -8.3 Q14.35 -8.75 14.85 -5.75 L14.85 -5.55 13.0 -7.05 10.05 -7.25 10.7 -7.95 11.35 -8.3" fill="url(#gradient53)" fill-rule="evenodd" stroke="none"/>
    <path d="M-0.55 -2.35 L1.05 0.55 1.8 2.35 Q2.45 4.15 -2.75 6.15 -7.45 7.8 -9.3 6.75 L-9.2 4.6 -8.25 0.0 -6.2 0.65 -4.45 0.7 Q-1.7 0.85 -1.0 -1.5 L-0.85 -1.6 -0.9 -1.8 -0.9 -1.9 -0.9 -1.95 -0.55 -2.35 M-11.8 1.7 L-12.15 2.15 -11.85 1.45 -11.8 1.7 M-12.35 2.55 L-11.8 1.95 -11.8 4.6 -12.75 3.5 -12.35 2.55" fill="url(#gradient54)" fill-rule="evenodd" stroke="none"/>
    <path d="M12.9 -0.25 L12.4 0.95 10.9 3.65 11.2 1.8 Q10.55 -0.6 9.2 -0.55 L8.9 -1.1 8.85 -1.65 7.75 -2.95 Q11.25 -4.15 12.9 -0.25" fill="url(#gradient55)" fill-rule="evenodd" stroke="none"/>
    <path d="M10.9 3.65 L9.6 5.0 5.7 4.9 5.95 4.55 5.95 3.9 6.1 3.75 Q10.45 0.9 9.2 -0.55 10.55 -0.6 11.2 1.8 L10.9 3.65" fill="url(#gradient56)" fill-rule="evenodd" stroke="none"/>
    <path d="M-0.9 -1.9 L-1.3 -1.5 -1.35 -1.5 -0.9 -1.95 -0.9 -1.9" fill="url(#gradient57)" fill-rule="evenodd" stroke="none"/>
    <path d="M-8.25 0.0 L-7.9 -1.9 -4.15 -0.75 -1.85 -1.15 -1.35 -1.5 -1.3 -1.5 -0.9 -1.9 -0.9 -1.8 -1.0 -1.5 Q-1.7 0.85 -4.45 0.7 L-6.2 0.65 -8.25 0.0" fill="url(#gradient58)" fill-rule="evenodd" stroke="none"/>
    <path d="M1.8 2.35 Q2.35 3.05 2.3 5.3 L1.75 6.1 0.9 7.0 -3.0 9.2 -6.05 10.35 -7.6 10.8 -8.8 10.85 -9.4 10.65 -9.55 10.55 -9.3 6.75 Q-7.45 7.8 -2.75 6.15 2.45 4.15 1.8 2.35 M-12.9 3.9 L-12.75 3.5 -11.8 4.6 -11.5 8.7 -12.2 7.9 -12.3 7.7 -12.8 7.1 -13.05 6.7 -12.9 3.9" fill="url(#gradient59)" fill-rule="evenodd" stroke="none"/>
    <path d="M-14.9 11.0 L-15.25 10.6 -15.2 10.55 -14.9 10.4 -14.9 11.0 M-12.55 8.2 L-12.2 7.9 -11.5 8.7 -11.2 13.25 -11.95 14.4 -12.0 14.4 -12.15 14.75 -12.3 14.8 -12.95 13.75 -13.0 13.6 -13.05 13.6 -13.45 11.25 -13.3 9.1 -12.55 8.2 M-9.55 10.8 L-9.55 10.55 -9.4 10.65 -9.55 10.8" fill="url(#gradient60)" fill-rule="evenodd" stroke="none"/>
    <path d="M1.45 18.2 L1.9 20.3 3.1 22.95 3.45 23.5 3.55 23.8 4.25 24.65 Q6.4 26.6 3.45 31.55 -5.95 41.45 -14.55 31.55 -17.1 30.15 -14.35 24.5 L-14.25 24.4 -13.1 22.2 -12.95 22.2 -13.05 22.1 -13.05 22.0 -13.0 21.95 -13.0 21.9 -12.95 21.85 Q-12.0 18.9 -12.0 17.85 L-11.95 14.65 -11.95 14.4 -11.2 13.25 -9.35 22.5 -9.8 14.9 -9.55 10.8 -9.4 10.65 -8.8 10.85 Q-6.55 15.1 -4.0 17.95 L-1.7 19.6 -1.65 19.6 Q0.65 18.85 0.8 18.3 L1.45 18.2 M-12.55 8.2 L-12.8 7.25 -12.8 7.1 -12.3 7.7 -12.2 7.9 -12.55 8.2 M-6.05 10.35 L-3.0 9.2 0.9 7.0 0.8 7.7 0.95 15.7 Q0.9 17.05 0.55 17.6 -2.05 16.95 -6.05 10.35" fill="url(#gradient61)" fill-rule="evenodd" stroke="none"/>
    <path d="M25.8 2.0 L35.1 8.55 Q35.25 8.85 34.55 9.75 L33.65 10.75 33.35 10.65 24.3 4.1 25.45 2.8 25.8 2.0" fill="url(#gradient62)" fill-rule="evenodd" stroke="none"/>
    <path d="M-15.25 10.6 L-15.4 10.25 -15.0 9.7 -14.9 10.4 -15.2 10.55 -15.25 10.6 M-12.8 7.25 L-12.55 8.2 -13.3 9.1 -13.15 7.7 -13.1 7.5 -12.8 7.25 M-12.15 14.75 L-12.0 14.4 -11.95 14.4 -11.95 14.65 -12.15 14.75 M-12.95 13.75 L-13.0 13.75 -13.05 13.6 -13.0 13.6 -12.95 13.75" fill="url(#gradient63)" fill-rule="evenodd" stroke="none"/>
    <path d="M1.75 6.1 Q6.3 15.5 1.85 18.0 L0.55 17.6 Q0.9 17.05 0.95 15.7 L0.8 7.7 0.9 7.0 1.75 6.1" fill="url(#gradient64)" fill-rule="evenodd" stroke="none"/>
    <path d="M1.85 18.0 L1.45 18.2 0.8 18.3 Q0.65 18.85 -1.65 19.6 L-1.7 19.6 -4.0 17.95 Q-6.55 15.1 -8.8 10.85 L-7.6 10.8 -6.05 10.35 Q-2.05 16.95 0.55 17.6 L1.85 18.0" fill="url(#gradient65)" fill-rule="evenodd" stroke="none"/>
    <path d="M-13.05 13.6 L-13.0 13.75 -12.65 16.65 -13.55 13.1 -13.45 11.25 -13.05 13.6" fill="url(#gradient66)" fill-rule="evenodd" stroke="none"/>
    <path d="M-13.05 22.0 L-13.05 21.95 -13.0 21.95 -13.05 22.0 M-12.95 21.85 L-13.0 21.9 -13.0 21.85 -12.95 21.85" fill="url(#gradient67)" fill-rule="evenodd" stroke="none"/>
    <path d="M3.1 22.95 Q9.0 29.1 4.9 34.5 1.45 39.75 -5.8 40.7 -13.65 41.75 -17.35 35.75 -19.4 29.7 -14.35 24.5 -17.1 30.15 -14.55 31.55 -5.95 41.45 3.45 31.55 6.4 26.6 4.25 24.65 L3.45 23.5 3.1 22.95" fill="url(#gradient68)" fill-rule="evenodd" stroke="none"/>
    <path d="M3.45 23.5 L4.25 24.65 3.55 23.8 3.45 23.5" fill="url(#gradient69)" fill-rule="evenodd" stroke="none"/>
  </g>
  <defs>
    <radialGradient cx="0" cy="0" gradientTransform="matrix(0.002, 0.0, 0.0, 0.002, -22.7, -39.1)" gradientUnits="userSpaceOnUse" id="gradient0" r="819.2" spreadMethod="pad">
      <stop offset="0.0" stop-color="#ffe200"/>
      <stop offset="1.0" stop-color="#c18e00"/>
    </radialGradient>
    <radialGradient cx="0" cy="0" gradientTransform="matrix(0.0293, 0.0, 0.0, 0.0293, -12.7, -39.45)" gradientUnits="userSpaceOnUse" id="gradient1" r="819.2" spreadMethod="pad">
      <stop offset="0.0" stop-color="#7e4410"/>
      <stop offset="1.0" stop-color="#5b320b"/>
    </radialGradient>
    <radialGradient cx="0" cy="0" gradientTransform="matrix(0.0042, 0.0, 0.0, 0.0042, -34.8, -31.35)" gradientUnits="userSpaceOnUse" id="gradient2" r="819.2" spreadMethod="pad">
      <stop offset="0.0" stop-color="#361e07"/>
      <stop offset="1.0" stop-color="#361d07"/>
    </radialGradient>
    <radialGradient cx="0" cy="0" gradientTransform="matrix(0.0043, 0.0, 0.0, 0.0043, -29.05, -34.85)" gradientUnits="userSpaceOnUse" id="gradient3" r="819.2" spreadMethod="pad">
      <stop offset="0.0" stop-color="#ffffd8"/>
      <stop offset="1.0" stop-color="#b4a98d"/>
    </radialGradient>
    <radialGradient cx="0" cy="0" gradientTransform="matrix(0.0026, 0.0, 0.0, 0.0026, -25.8, -38.0)" gradientUnits="userSpaceOnUse" id="gradient4" r="819.2" spreadMethod="pad">
      <stop offset="0.0" stop-color="#ffe200"/>
      <stop offset="1.0" stop-color="#e09d00"/>
    </radialGradient>
    <radialGradient cx="0" cy="0" gradientTransform="matrix(0.0027, 0.0, 0.0, 0.0027, -28.7, -35.5)" gradientUnits="userSpaceOnUse" id="gradient5" r="819.2" spreadMethod="pad">
      <stop offset="0.0" stop-color="#ffe100"/>
      <stop offset="1.0" stop-color="#f0a600"/>
    </radialGradient>
    <radialGradient cx="0" cy="0" gradientTransform="matrix(0.0049, 0.0, 0.0, 0.0049, -24.5, -32.5)" gradientUnits="userSpaceOnUse" id="gradient6" r="819.2" spreadMethod="pad">
      <stop offset="0.0" stop-color="#ffffd4"/>
      <stop offset="1.0" stop-color="#d5c9a7"/>
    </radialGradient>
    <radialGradient cx="0" cy="0" gradientTransform="matrix(0.0026, 0.0, 0.0, 0.0026, -24.15, -32.95)" gradientUnits="userSpaceOnUse" id="gradient7" r="819.2" spreadMethod="pad">
      <stop offset="0.0" stop-color="#867e69"/>
      <stop offset="1.0" stop-color="#857d68"/>
    </radialGradient>
    <radialGradient cx="0" cy="0" gradientTransform="matrix(0.0963, 0.0, 0.0, 0.0963, 34.4, 9.65)" gradientUnits="userSpaceOnUse" id="gradient8" r="819.2" spreadMethod="pad">
      <stop offset="0.0" stop-color="#7d4410"/>
      <stop offset="1.0" stop-color="#6a390d"/>
    </radialGradient>
    <radialGradient cx="0" cy="0" gradientTransform="matrix(0.0025, 0.0, 0.0, 0.0025, -32.25, -32.85)" gradientUnits="userSpaceOnUse" id="gradient9" r="819.2" spreadMethod="pad">
      <stop offset="0.0" stop-color="#ffe000"/>
      <stop offset="1.0" stop-color="#ffad00"/>
    </radialGradient>
    <radialGradient cx="0" cy="0" gradientTransform="matrix(0.0039, 0.0, 0.0, 0.0039, -10.8, -21.85)" gradientUnits="userSpaceOnUse" id="gradient10" r="819.2" spreadMethod="pad">
      <stop offset="0.0" stop-color="#2c405b"/>
      <stop offset="1.0" stop-color="#233349"/>
    </radialGradient>
    <radialGradient cx="0" cy="0" gradientTransform="matrix(0.0024, 0.0, 0.0, 0.0024, -10.75, -22.2)" gradientUnits="userSpaceOnUse" id="gradient11" r="819.2" spreadMethod="pad">
      <stop offset="0.0" stop-color="#ffcf76"/>
      <stop offset="1.0" stop-color="#b3814a"/>
    </radialGradient>
    <radialGradient cx="0" cy="0" gradientTransform="matrix(0.0031, 0.0, 0.0, 0.0031, -11.35, -22.35)" gradientUnits="userSpaceOnUse" id="gradient12" r="819.2" spreadMethod="pad">
      <stop offset="0.0" stop-color="#c18c50"/>
      <stop offset="1.0" stop-color="#775632"/>
    </radialGradient>
    <radialGradient cx="0" cy="0" gradientTransform="matrix(0.0418, 0.0, 0.0, 0.0418, -7.35, -20.25)" gradientUnits="userSpaceOnUse" id="gradient13" r="819.2" spreadMethod="pad">
      <stop offset="0.0" stop-color="#776c98"/>
      <stop offset="1.0" stop-color="#3c364d"/>
    </radialGradient>
    <radialGradient cx="0" cy="0" gradientTransform="matrix(0.0389, 0.0, 0.0, 0.0389, -8.85, -22.75)" gradientUnits="userSpaceOnUse" id="gradient14" r="819.2" spreadMethod="pad">
      <stop offset="0.0" stop-color="#736893"/>
      <stop offset="1.0" stop-color="#383348"/>
    </radialGradient>
    <radialGradient cx="0" cy="0" gradientTransform="matrix(0.0069, 0.0, 0.0, 0.0069, -6.65, -24.8)" gradientUnits="userSpaceOnUse" id="gradient15" r="819.2" spreadMethod="pad">
      <stop offset="0.0" stop-color="#766b97"/>
      <stop offset="1.0" stop-color="#4c4460"/>
    </radialGradient>
    <radialGradient cx="0" cy="0" gradientTransform="matrix(0.041, 0.0, 0.0, 0.041, -22.8, 1.0)" gradientUnits="userSpaceOnUse" id="gradient16" r="819.2" spreadMethod="pad">
      <stop offset="0.0" stop-color="#7a6f9c"/>
      <stop offset="1.0" stop-color="#4c4562"/>
    </radialGradient>
    <radialGradient cx="0" cy="0" gradientTransform="matrix(0.0254, 0.0, 0.0, 0.0254, -7.15, -15.95)" gradientUnits="userSpaceOnUse" id="gradient17" r="819.2" spreadMethod="pad">
      <stop offset="0.0" stop-color="#756b96"/>
      <stop offset="1.0" stop-color="#60577b"/>
    </radialGradient>
    <radialGradient cx="0" cy="0" gradientTransform="matrix(0.0098, 0.0, 0.0, 0.0098, -5.6, -23.3)" gradientUnits="userSpaceOnUse" id="gradient18" r="819.2" spreadMethod="pad">
      <stop offset="0.0" stop-color="#6c628a"/>
      <stop offset="1.0" stop-color="#423c54"/>
    </radialGradient>
    <radialGradient cx="0" cy="0" gradientTransform="matrix(0.0189, 0.0, 0.0, 0.0189, 3.35, -11.35)" gradientUnits="userSpaceOnUse" id="gradient19" r="819.2" spreadMethod="pad">
      <stop offset="0.0" stop-color="#7a6f9c"/>
      <stop offset="1.0" stop-color="#4b4460"/>
    </radialGradient>
    <radialGradient cx="0" cy="0" gradientTransform="matrix(0.0205, 0.0, 0.0, 0.0205, -4.1, -23.1)" gradientUnits="userSpaceOnUse" id="gradient20" r="819.2" spreadMethod="pad">
      <stop offset="0.0" stop-color="#766b97"/>
      <stop offset="1.0" stop-color="#4e4663"/>
    </radialGradient>
    <radialGradient cx="0" cy="0" gradientTransform="matrix(0.0352, 0.0, 0.0, 0.0352, -3.05, -21.05)" gradientUnits="userSpaceOnUse" id="gradient21" r="819.2" spreadMethod="pad">
      <stop offset="0.0" stop-color="#776c98"/>
      <stop offset="1.0" stop-color="#4c4561"/>
    </radialGradient>
    <radialGradient cx="0" cy="0" gradientTransform="matrix(0.0385, 0.0, 0.0, 0.0385, -2.85, -21.0)" gradientUnits="userSpaceOnUse" id="gradient22" r="819.2" spreadMethod="pad">
      <stop offset="0.0" stop-color="#786d99"/>
      <stop offset="1.0" stop-color="#564e6e"/>
    </radialGradient>
    <radialGradient cx="0" cy="0" gradientTransform="matrix(0.0253, 0.0, 0.0, 0.0253, -1.45, -14.85)" gradientUnits="userSpaceOnUse" id="gradient23" r="819.2" spreadMethod="pad">
      <stop offset="0.0" stop-color="#786d9a"/>
      <stop offset="1.0" stop-color="#4a435f"/>
    </radialGradient>
    <radialGradient cx="0" cy="0" gradientTransform="matrix(0.0548, 0.0, 0.0, 0.0548, -3.6, -21.75)" gradientUnits="userSpaceOnUse" id="gradient24" r="819.2" spreadMethod="pad">
      <stop offset="0.0" stop-color="#776c98"/>
      <stop offset="1.0" stop-color="#3a354b"/>
    </radialGradient>
    <radialGradient cx="0" cy="0" gradientTransform="matrix(0.046, 0.0, 0.0, 0.046, -5.55, -15.1)" gradientUnits="userSpaceOnUse" id="gradient25" r="819.2" spreadMethod="pad">
      <stop offset="0.0" stop-color="#746995"/>
      <stop offset="1.0" stop-color="#463f59"/>
    </radialGradient>
    <radialGradient cx="0" cy="0" gradientTransform="matrix(0.0051, 0.0, 0.0, 0.0051, -2.7, -14.2)" gradientUnits="userSpaceOnUse" id="gradient26" r="819.2" spreadMethod="pad">
      <stop offset="0.0" stop-color="#cb9354"/>
      <stop offset="1.0" stop-color="#ac7c47"/>
    </radialGradient>
    <radialGradient cx="0" cy="0" gradientTransform="matrix(0.0347, 0.0, 0.0, 0.0347, -3.0, -24.15)" gradientUnits="userSpaceOnUse" id="gradient27" r="819.2" spreadMethod="pad">
      <stop offset="0.0" stop-color="#24202d"/>
      <stop offset="1.0" stop-color="#0f0e13"/>
    </radialGradient>
    <radialGradient cx="0" cy="0" gradientTransform="matrix(0.0166, 0.0, 0.0, 0.0166, 0.0, -23.75)" gradientUnits="userSpaceOnUse" id="gradient28" r="819.2" spreadMethod="pad">
      <stop offset="0.0" stop-color="#746995"/>
      <stop offset="1.0" stop-color="#4b4461"/>
    </radialGradient>
    <radialGradient cx="0" cy="0" gradientTransform="matrix(0.0122, 0.0, 0.0, 0.0122, 2.1, -19.8)" gradientUnits="userSpaceOnUse" id="gradient29" r="819.2" spreadMethod="pad">
      <stop offset="0.0" stop-color="#796e9b"/>
      <stop offset="1.0" stop-color="#49435e"/>
    </radialGradient>
    <radialGradient cx="0" cy="0" gradientTransform="matrix(0.012, 0.0, 0.0, 0.012, -2.75, -8.4)" gradientUnits="userSpaceOnUse" id="gradient30" r="819.2" spreadMethod="pad">
      <stop offset="0.0" stop-color="#354c6d"/>
      <stop offset="1.0" stop-color="#1e2b3d"/>
    </radialGradient>
    <radialGradient cx="0" cy="0" gradientTransform="matrix(0.0023, 0.0, 0.0, 0.0023, 0.35, -11.6)" gradientUnits="userSpaceOnUse" id="gradient31" r="819.2" spreadMethod="pad">
      <stop offset="0.0" stop-color="#101c22"/>
      <stop offset="1.0" stop-color="#0e181e"/>
    </radialGradient>
    <radialGradient cx="0" cy="0" gradientTransform="matrix(0.0109, 0.0, 0.0, 0.0109, 0.15, -10.15)" gradientUnits="userSpaceOnUse" id="gradient32" r="819.2" spreadMethod="pad">
      <stop offset="0.0" stop-color="#6ebdec"/>
      <stop offset="1.0" stop-color="#4a7f9f"/>
    </radialGradient>
    <radialGradient cx="0" cy="0" gradientTransform="matrix(0.0016, 0.0, 0.0, 0.0016, -0.3, -12.2)" gradientUnits="userSpaceOnUse" id="gradient33" r="819.2" spreadMethod="pad">
      <stop offset="0.0" stop-color="#0e181e"/>
      <stop offset="1.0" stop-color="#0e181e"/>
    </radialGradient>
    <radialGradient cx="0" cy="0" gradientTransform="matrix(0.0062, 0.0, 0.0, 0.0062, -15.55, -11.75)" gradientUnits="userSpaceOnUse" id="gradient34" r="819.2" spreadMethod="pad">
      <stop offset="0.0" stop-color="#60a5cd"/>
      <stop offset="1.0" stop-color="#487c9a"/>
    </radialGradient>
    <radialGradient cx="0" cy="0" gradientTransform="matrix(0.006, 0.0, 0.0, 0.006, -16.35, -11.15)" gradientUnits="userSpaceOnUse" id="gradient35" r="819.2" spreadMethod="pad">
      <stop offset="0.0" stop-color="#304563"/>
      <stop offset="1.0" stop-color="#182331"/>
    </radialGradient>
    <radialGradient cx="0" cy="0" gradientTransform="matrix(0.0024, 0.0, 0.0, 0.0024, -4.1, -15.65)" gradientUnits="userSpaceOnUse" id="gradient36" r="819.2" spreadMethod="pad">
      <stop offset="0.0" stop-color="#dea05c"/>
      <stop offset="1.0" stop-color="#d09656"/>
    </radialGradient>
    <radialGradient cx="0" cy="0" gradientTransform="matrix(0.0078, 0.0, 0.0, 0.0078, 3.55, -14.95)" gradientUnits="userSpaceOnUse" id="gradient37" r="819.2" spreadMethod="pad">
      <stop offset="0.0" stop-color="#0f0e13"/>
      <stop offset="1.0" stop-color="#0f0e13"/>
    </radialGradient>
    <radialGradient cx="0" cy="0" gradientTransform="matrix(0.0022, 0.0, 0.0, 0.0022, -3.45, -14.0)" gradientUnits="userSpaceOnUse" id="gradient38" r="819.2" spreadMethod="pad">
      <stop offset="0.0" stop-color="#f1ae64"/>
      <stop offset="1.0" stop-color="#f1ae64"/>
    </radialGradient>
    <radialGradient cx="0" cy="0" gradientTransform="matrix(0.0027, 0.0, 0.0, 0.0027, -3.25, -13.5)" gradientUnits="userSpaceOnUse" id="gradient39" r="819.2" spreadMethod="pad">
      <stop offset="0.0" stop-color="#06090d"/>
      <stop offset="1.0" stop-color="#06090d"/>
    </radialGradient>
    <radialGradient cx="0" cy="0" gradientTransform="matrix(0.0048, 0.0, 0.0, 0.0048, -5.1, -11.0)" gradientUnits="userSpaceOnUse" id="gradient40" r="819.2" spreadMethod="pad">
      <stop offset="0.0" stop-color="#c89053"/>
      <stop offset="1.0" stop-color="#bd884e"/>
    </radialGradient>
    <radialGradient cx="0" cy="0" gradientTransform="matrix(0.0039, 0.0, 0.0, 0.0039, -5.6, -10.95)" gradientUnits="userSpaceOnUse" id="gradient41" r="819.2" spreadMethod="pad">
      <stop offset="0.0" stop-color="#25354c"/>
      <stop offset="1.0" stop-color="#1f2c40"/>
    </radialGradient>
    <radialGradient cx="0" cy="0" gradientTransform="matrix(0.0051, 0.0, 0.0, 0.0051, -4.45, -9.1)" gradientUnits="userSpaceOnUse" id="gradient42" r="819.2" spreadMethod="pad">
      <stop offset="0.0" stop-color="#fff2ca"/>
      <stop offset="1.0" stop-color="#88816b"/>
    </radialGradient>
    <radialGradient cx="0" cy="0" gradientTransform="matrix(0.0011, 0.0, 0.0, 0.0011, -1.9, -12.2)" gradientUnits="userSpaceOnUse" id="gradient43" r="819.2" spreadMethod="pad">
      <stop offset="0.0" stop-color="#1a2535"/>
      <stop offset="1.0" stop-color="#182332"/>
    </radialGradient>
    <radialGradient cx="0" cy="0" gradientTransform="matrix(0.0033, 0.0, 0.0, 0.0033, -1.1, -11.35)" gradientUnits="userSpaceOnUse" id="gradient44" r="819.2" spreadMethod="pad">
      <stop offset="0.0" stop-color="#1c2839"/>
      <stop offset="1.0" stop-color="#131c29"/>
    </radialGradient>
    <radialGradient cx="0" cy="0" gradientTransform="matrix(0.0156, 0.0, 0.0, 0.0156, 1.35, -7.25)" gradientUnits="userSpaceOnUse" id="gradient45" r="819.2" spreadMethod="pad">
      <stop offset="0.0" stop-color="#344b6c"/>
      <stop offset="1.0" stop-color="#223146"/>
    </radialGradient>
    <radialGradient cx="0" cy="0" gradientTransform="matrix(6.0E-4, 0.0, 0.0, 6.0E-4, -0.45, -11.1)" gradientUnits="userSpaceOnUse" id="gradient46" r="819.2" spreadMethod="pad">
      <stop offset="0.0" stop-color="#1d2a3d"/>
      <stop offset="1.0" stop-color="#1a2636"/>
    </radialGradient>
    <radialGradient cx="0" cy="0" gradientTransform="matrix(7.0E-4, 0.0, 0.0, 7.0E-4, -0.4, -10.8)" gradientUnits="userSpaceOnUse" id="gradient47" r="819.2" spreadMethod="pad">
      <stop offset="0.0" stop-color="#1c2839"/>
      <stop offset="1.0" stop-color="#1a2636"/>
    </radialGradient>
    <radialGradient cx="0" cy="0" gradientTransform="matrix(0.0015, 0.0, 0.0, 0.0015, -0.6, -9.9)" gradientUnits="userSpaceOnUse" id="gradient48" r="819.2" spreadMethod="pad">
      <stop offset="0.0" stop-color="#233248"/>
      <stop offset="1.0" stop-color="#1d2a3d"/>
    </radialGradient>
    <radialGradient cx="0" cy="0" gradientTransform="matrix(0.002, 0.0, 0.0, 0.002, -1.1, -8.8)" gradientUnits="userSpaceOnUse" id="gradient49" r="819.2" spreadMethod="pad">
      <stop offset="0.0" stop-color="#283a53"/>
      <stop offset="1.0" stop-color="#273750"/>
    </radialGradient>
    <radialGradient cx="0" cy="0" gradientTransform="matrix(0.0011, 0.0, 0.0, 0.0011, -0.6, -9.9)" gradientUnits="userSpaceOnUse" id="gradient50" r="819.2" spreadMethod="pad">
      <stop offset="0.0" stop-color="#233248"/>
      <stop offset="1.0" stop-color="#202e41"/>
    </radialGradient>
    <radialGradient cx="0" cy="0" gradientTransform="matrix(0.0042, 0.0, 0.0, 0.0042, 10.65, -2.95)" gradientUnits="userSpaceOnUse" id="gradient51" r="819.2" spreadMethod="pad">
      <stop offset="0.0" stop-color="#5ea1c9"/>
      <stop offset="1.0" stop-color="#497d9c"/>
    </radialGradient>
    <radialGradient cx="0" cy="0" gradientTransform="matrix(0.0058, 0.0, 0.0, 0.0058, 12.1, -4.5)" gradientUnits="userSpaceOnUse" id="gradient52" r="819.2" spreadMethod="pad">
      <stop offset="0.0" stop-color="#314664"/>
      <stop offset="1.0" stop-color="#213045"/>
    </radialGradient>
    <radialGradient cx="0" cy="0" gradientTransform="matrix(0.0036, 0.0, 0.0, 0.0036, 12.65, -6.75)" gradientUnits="userSpaceOnUse" id="gradient53" r="819.2" spreadMethod="pad">
      <stop offset="0.0" stop-color="#ffe382"/>
      <stop offset="1.0" stop-color="#c18c50"/>
    </radialGradient>
    <radialGradient cx="0" cy="0" gradientTransform="matrix(0.0116, 0.0, 0.0, 0.0116, -3.8, 0.4)" gradientUnits="userSpaceOnUse" id="gradient54" r="819.2" spreadMethod="pad">
      <stop offset="0.0" stop-color="#364e70"/>
      <stop offset="1.0" stop-color="#2b3e59"/>
    </radialGradient>
    <radialGradient cx="0" cy="0" gradientTransform="matrix(0.0064, 0.0, 0.0, 0.0064, 8.6, -1.1)" gradientUnits="userSpaceOnUse" id="gradient55" r="819.2" spreadMethod="pad">
      <stop offset="0.0" stop-color="#2c3f5a"/>
      <stop offset="1.0" stop-color="#202e42"/>
    </radialGradient>
    <radialGradient cx="0" cy="0" gradientTransform="matrix(0.0076, 0.0, 0.0, 0.0076, 11.1, 1.75)" gradientUnits="userSpaceOnUse" id="gradient56" r="819.2" spreadMethod="pad">
      <stop offset="0.0" stop-color="#538fb2"/>
      <stop offset="1.0" stop-color="#2b4a5c"/>
    </radialGradient>
    <radialGradient cx="0" cy="0" gradientTransform="matrix(0.0011, 0.0, 0.0, 0.0011, -0.9, -2.15)" gradientUnits="userSpaceOnUse" id="gradient57" r="819.2" spreadMethod="pad">
      <stop offset="0.0" stop-color="#1f1e19"/>
      <stop offset="1.0" stop-color="#1f1e19"/>
    </radialGradient>
    <radialGradient cx="0" cy="0" gradientTransform="matrix(0.0093, 0.0, 0.0, 0.0093, -7.5, 0.35)" gradientUnits="userSpaceOnUse" id="gradient58" r="819.2" spreadMethod="pad">
      <stop offset="0.0" stop-color="#c9bd9d"/>
      <stop offset="1.0" stop-color="#88806b"/>
    </radialGradient>
    <radialGradient cx="0" cy="0" gradientTransform="matrix(0.0187, 0.0, 0.0, 0.0187, -0.85, 5.15)" gradientUnits="userSpaceOnUse" id="gradient59" r="819.2" spreadMethod="pad">
      <stop offset="0.0" stop-color="#61a6cf"/>
      <stop offset="1.0" stop-color="#4b81a1"/>
    </radialGradient>
    <radialGradient cx="0" cy="0" gradientTransform="matrix(0.0091, 0.0, 0.0, 0.0091, -11.8, 7.3)" gradientUnits="userSpaceOnUse" id="gradient60" r="819.2" spreadMethod="pad">
      <stop offset="0.0" stop-color="#9c937a"/>
      <stop offset="1.0" stop-color="#6b6554"/>
    </radialGradient>
    <radialGradient cx="0" cy="0" gradientTransform="matrix(0.0394, 0.0, 0.0, 0.0394, -8.0, 36.0)" gradientUnits="userSpaceOnUse" id="gradient61" r="819.2" spreadMethod="pad">
      <stop offset="0.0" stop-color="#354c6e"/>
      <stop offset="1.0" stop-color="#1d293b"/>
    </radialGradient>
    <radialGradient cx="0" cy="0" gradientTransform="matrix(0.0141, 0.0, 0.0, 0.0141, 34.4, 9.65)" gradientUnits="userSpaceOnUse" id="gradient62" r="819.2" spreadMethod="pad">
      <stop offset="0.0" stop-color="#ffffd5"/>
      <stop offset="1.0" stop-color="#918972"/>
    </radialGradient>
    <radialGradient cx="0" cy="0" gradientTransform="matrix(0.0066, 0.0, 0.0, 0.0066, -15.3, 10.5)" gradientUnits="userSpaceOnUse" id="gradient63" r="819.2" spreadMethod="pad">
      <stop offset="0.0" stop-color="#6c6655"/>
      <stop offset="1.0" stop-color="#1f1e19"/>
    </radialGradient>
    <radialGradient cx="0" cy="0" gradientTransform="matrix(0.0168, 0.0, 0.0, 0.0168, 1.7, 17.6)" gradientUnits="userSpaceOnUse" id="gradient64" r="819.2" spreadMethod="pad">
      <stop offset="0.0" stop-color="#3b382f"/>
      <stop offset="1.0" stop-color="#1f1e19"/>
    </radialGradient>
    <radialGradient cx="0" cy="0" gradientTransform="matrix(0.0144, 0.0, 0.0, 0.0144, -6.55, 9.65)" gradientUnits="userSpaceOnUse" id="gradient65" r="819.2" spreadMethod="pad">
      <stop offset="0.0" stop-color="#aea488"/>
      <stop offset="1.0" stop-color="#595345"/>
    </radialGradient>
    <radialGradient cx="0" cy="0" gradientTransform="matrix(0.0091, 0.0, 0.0, 0.0091, -13.85, 9.4)" gradientUnits="userSpaceOnUse" id="gradient66" r="819.2" spreadMethod="pad">
      <stop offset="0.0" stop-color="#49425d"/>
      <stop offset="1.0" stop-color="#312d3f"/>
    </radialGradient>
    <radialGradient cx="0" cy="0" gradientTransform="matrix(0.0229, 0.0, 0.0, 0.0229, -12.85, 6.85)" gradientUnits="userSpaceOnUse" id="gradient67" r="819.2" spreadMethod="pad">
      <stop offset="0.0" stop-color="#06090d"/>
      <stop offset="1.0" stop-color="#06090d"/>
    </radialGradient>
    <radialGradient cx="0" cy="0" gradientTransform="matrix(0.0285, 0.0, 0.0, 0.0285, -12.65, 39.85)" gradientUnits="userSpaceOnUse" id="gradient68" r="819.2" spreadMethod="pad">
      <stop offset="0.0" stop-color="#7cd5ff"/>
      <stop offset="1.0" stop-color="#3b657e"/>
    </radialGradient>
    <radialGradient cx="0" cy="0" gradientTransform="matrix(0.0047, 0.0, 0.0, 0.0047, 4.7, 25.35)" gradientUnits="userSpaceOnUse" id="gradient69" r="819.2" spreadMethod="pad">
      <stop offset="0.0" stop-color="#1b2738"/>
      <stop offset="1.0" stop-color="#151e2b"/>
    </radialGradient>
  </defs>
</svg>
