<?xml version="1.0" encoding="UTF-8" standalone="no"?>
<svg xmlns:ffdec="https://www.free-decompiler.com/flash" xmlns:xlink="http://www.w3.org/1999/xlink" ffdec:objectType="shape" height="73.6px" width="29.15px" xmlns="http://www.w3.org/2000/svg">
  <g transform="matrix(1.0, 0.0, 0.0, 1.0, 14.7, 51.95)">
    <path d="M10.55 -41.65 L10.9 -42.65 10.9 -44.2 Q12.35 -41.25 11.4 -39.8 L11.25 -39.3 10.05 -38.1 10.55 -40.45 10.55 -41.65" fill="url(#gradient0)" fill-rule="evenodd" stroke="none"/>
    <path d="M10.9 -44.2 L10.9 -42.65 10.55 -41.65 9.95 -41.25 9.85 -40.6 9.6 -40.75 9.0 -40.55 8.65 -40.05 8.9 -41.6 8.8 -42.1 8.95 -42.65 9.25 -44.95 9.35 -45.0 9.25 -45.5 8.9 -47.1 8.6 -47.6 Q10.15 -47.85 10.9 -44.2 M0.85 -34.75 L0.6 -34.45 -1.05 -33.5 -1.55 -34.45 -1.85 -35.8 0.1 -35.3 0.85 -34.75 M-9.8 -11.2 Q-12.8 -6.55 -14.65 -31.05 -15.35 -34.65 -7.95 -42.3 L-8.95 -40.8 -9.3 -39.3 Q-9.2 -39.4 -9.05 -39.45 L-8.95 -38.75 -8.3 -38.35 -7.2 -37.75 -6.75 -38.0 -6.55 -37.55 -4.45 -35.95 -4.05 -36.0 -3.7 -34.4 -3.05 -32.85 -5.25 -32.7 -5.05 -32.5 Q-6.7 -32.65 -10.35 -33.7 L-11.5 -33.7 Q-12.4 -34.15 -13.95 -32.55 L-14.3 -29.9 -13.5 -23.75 Q-12.15 -17.75 -12.25 -17.1 L-11.85 -14.3 -11.5 -13.15 -11.05 -12.8 -10.35 -13.3 -10.85 -12.45 -10.5 -11.7 -9.8 -11.4 -9.8 -11.2" fill="url(#gradient1)" fill-rule="evenodd" stroke="none"/>
    <path d="M10.55 -41.65 L10.55 -40.45 10.05 -38.1 9.7 -36.95 8.9 -35.3 8.85 -35.25 6.5 -31.4 3.05 -31.3 2.9 -31.3 1.1 -31.35 0.25 -31.4 -0.7 -32.7 -1.05 -33.5 0.6 -34.45 0.85 -34.75 Q8.35 -33.25 8.65 -40.05 L9.0 -40.55 9.6 -40.75 9.85 -40.6 9.95 -41.25 10.55 -41.65 M9.25 -45.5 L9.35 -45.0 9.25 -44.95 9.25 -45.5 M-7.95 -42.3 L-5.2 -45.15 -5.15 -45.15 -5.0 -43.6 -5.8 -42.65 Q-7.9 -40.3 -4.15 -36.7 L-4.05 -36.0 -4.45 -35.95 -6.55 -37.55 -6.75 -38.0 -7.2 -37.75 -8.3 -38.35 -8.95 -38.75 -9.05 -39.45 Q-9.2 -39.4 -9.3 -39.3 L-8.95 -40.8 -7.95 -42.3 M-3.05 -32.85 L-2.55 -31.8 -2.65 -31.8 -5.05 -32.5 -5.25 -32.7 -3.05 -32.85" fill="url(#gradient2)" fill-rule="evenodd" stroke="none"/>
    <path d="M10.05 -38.1 L11.25 -39.3 11.4 -39.8 Q13.25 -35.45 11.4 -33.55 L10.55 -32.9 9.2 -32.9 8.9 -35.25 8.9 -35.3 9.7 -36.95 10.05 -38.1" fill="url(#gradient3)" fill-rule="evenodd" stroke="none"/>
    <path d="M8.6 -47.6 L8.9 -47.1 9.25 -45.5 9.25 -44.95 8.95 -42.65 8.8 -42.1 7.55 -39.85 Q4.8 -37.7 3.7 -37.45 0.9 -35.7 -2.1 -39.15 L-2.0 -41.05 -1.4 -42.65 Q1.15 -47.45 2.7 -42.65 L3.15 -41.55 3.05 -42.65 Q-0.05 -51.4 -4.2 -42.65 L-4.35 -42.3 -4.65 -42.65 -5.0 -43.6 -5.15 -45.15 -5.15 -45.25 Q-0.4 -57.35 8.6 -47.6 M6.7 -42.25 L7.4 -42.65 Q9.45 -43.6 7.6 -45.75 L7.15 -45.7 5.7 -44.75 4.0 -42.65 3.35 -41.3 Q2.5 -38.4 4.35 -39.2 L4.25 -38.95 4.6 -38.65 5.3 -38.95 5.95 -38.95 6.45 -39.85 6.2 -40.25 5.85 -40.4 6.7 -42.25" fill="url(#gradient4)" fill-rule="evenodd" stroke="none"/>
    <path d="M3.35 -41.3 L4.0 -42.65 5.7 -44.75 7.15 -45.7 7.6 -45.75 Q9.45 -43.6 7.4 -42.65 L6.7 -42.25 5.4 -41.75 3.35 -41.3" fill="url(#gradient5)" fill-rule="evenodd" stroke="none"/>
    <path d="M-4.35 -42.3 L-4.2 -42.65 Q-0.05 -51.4 3.05 -42.65 L3.15 -41.55 2.7 -42.65 Q1.15 -47.45 -1.4 -42.65 L-2.0 -41.05 -2.1 -39.15 -1.85 -35.8 -1.55 -34.45 -1.05 -33.5 -0.7 -32.7 0.25 -31.4 1.05 -30.6 1.3 -30.35 1.25 -30.0 1.25 -27.55 0.75 -28.0 -1.4 -30.3 -2.55 -31.8 -3.05 -32.85 -3.7 -34.4 -4.05 -36.0 -4.15 -36.7 -4.45 -39.9 -4.35 -42.3" fill="url(#gradient6)" fill-rule="evenodd" stroke="none"/>
    <path d="M8.8 -42.1 L8.9 -41.6 8.65 -40.05 Q8.35 -33.25 0.85 -34.75 L0.1 -35.3 -1.85 -35.8 -2.1 -39.15 Q0.9 -35.7 3.7 -37.45 4.8 -37.7 7.55 -39.85 L8.8 -42.1 M5.85 -40.4 L6.2 -40.25 6.45 -39.85 5.95 -38.95 5.3 -38.95 4.6 -38.65 4.25 -38.95 4.35 -39.2 5.3 -39.75 5.85 -40.4 M-5.0 -43.6 L-4.65 -42.65 -4.35 -42.3 -4.45 -39.9 -4.15 -36.7 Q-7.9 -40.3 -5.8 -42.65 L-5.0 -43.6" fill="url(#gradient7)" fill-rule="evenodd" stroke="none"/>
    <path d="M3.35 -41.3 L5.4 -41.75 6.7 -42.25 5.85 -40.4 5.3 -39.75 4.35 -39.2 Q2.5 -38.4 3.35 -41.3" fill="url(#gradient8)" fill-rule="evenodd" stroke="none"/>
    <path d="M3.7 9.65 L6.8 7.6 8.2 -1.0 9.3 -17.1 9.6 -19.05 10.05 -18.9 10.25 -17.95 10.55 -14.95 10.7 -10.7 9.6 2.55 8.95 5.85 8.8 7.6 3.7 11.45 Q3.5 11.5 3.7 11.3 L3.7 9.65 M9.7 -20.6 L9.85 -22.75 10.0 -22.75 10.4 -23.05 10.3 -21.8 10.2 -20.95 9.7 -20.6 M9.85 -25.15 L9.55 -29.05 10.05 -27.75 10.3 -26.75 Q10.2 -24.95 9.85 -25.15 M8.9 -35.25 L8.85 -35.25 8.9 -35.3 8.9 -35.25 M1.1 12.75 Q-19.1 16.35 -9.65 -2.9 L-9.6 -2.9 -9.7 -1.95 -9.75 -1.9 Q-12.75 5.65 -11.5 8.45 -4.75 13.3 1.1 10.85 L1.1 12.75" fill="url(#gradient9)" fill-rule="evenodd" stroke="none"/>
    <path d="M4.7 -27.6 L6.15 -28.3 7.6 -29.9 8.45 -31.75 8.1 -33.4 Q8.05 -31.05 6.05 -29.9 L4.75 -29.25 4.75 -29.9 4.7 -30.0 4.7 -30.4 4.25 -30.95 3.55 -31.15 3.5 -31.15 3.45 -31.15 3.05 -31.3 6.5 -31.4 8.85 -35.25 8.9 -35.25 9.2 -32.9 9.55 -29.05 9.85 -25.15 Q7.8 -23.05 9.2 -22.9 L9.35 -22.85 9.55 -22.85 9.85 -22.75 9.7 -20.6 Q7.8 -20.25 9.6 -19.05 L9.3 -17.1 8.2 -1.0 6.8 7.6 3.7 9.65 4.1 -7.6 Q6.6 -9.55 5.15 -12.1 L4.95 -13.05 4.3 -13.6 4.55 -24.15 Q5.8 -24.2 7.1 -26.2 L8.05 -28.8 8.05 -29.5 7.6 -29.05 Q7.25 -29.0 7.15 -27.55 L6.35 -26.05 5.15 -25.45 4.65 -25.5 4.7 -27.6 M1.1 -31.35 L2.9 -31.3 1.75 -30.95 1.55 -30.7 1.45 -30.55 1.3 -30.35 1.05 -30.6 1.1 -31.35 M1.25 -27.55 L1.3 -24.5 1.2 -14.1 0.2 -13.6 -0.3 -14.6 -1.2 -17.85 -1.95 -18.9 Q-1.55 -20.1 -1.6 -21.7 L-1.95 -24.1 -0.35 -25.55 0.75 -28.0 1.25 -27.55 M-9.6 -2.95 L-9.45 -3.75 -7.55 -1.2 -5.1 -1.5 -5.05 -1.5 -4.75 -1.55 -4.55 -1.55 -4.35 -1.6 -4.05 -1.6 -3.95 -1.65 -3.25 -1.7 -2.0 -3.35 -1.95 -3.4 -1.85 -3.6 -1.75 -3.65 1.05 -7.45 1.2 -7.35 1.1 10.85 Q-4.75 13.3 -11.5 8.45 -12.75 5.65 -9.75 -1.9 L-9.7 -1.95 -9.6 -2.9 -9.6 -2.95 M-7.9 -17.15 L-7.9 -17.25 -7.85 -17.25 -7.85 -17.3 -7.7 -18.45 -7.35 -18.2 -7.35 -17.1 Q-7.2 -13.2 -2.4 -10.95 L-2.35 -10.85 -1.85 -10.3 -0.85 -9.65 -0.65 -9.2 -2.8 -6.65 -6.5 -6.05 -8.05 -7.25 -8.6 -7.25 Q-8.45 -8.4 -9.1 -9.9 L-8.35 -14.95 -7.85 -17.1 -7.9 -17.15 M-10.25 0.6 L-10.15 0.6 -10.15 0.45 -10.25 0.6" fill="url(#gradient10)" fill-rule="evenodd" stroke="none"/>
    <path d="M4.75 -29.25 L6.05 -29.9 Q8.05 -31.05 8.1 -33.4 L8.45 -31.75 7.6 -29.9 6.15 -28.3 4.7 -27.6 4.75 -29.25" fill="url(#gradient11)" fill-rule="evenodd" stroke="none"/>
    <path d="M0.25 -31.4 L1.1 -31.35 1.05 -30.6 0.25 -31.4 M0.75 -28.0 L-0.35 -25.55 -1.95 -24.1 -2.6 -26.4 -1.7 -28.3 -1.55 -29.9 -1.4 -30.3 0.75 -28.0" fill="url(#gradient12)" fill-rule="evenodd" stroke="none"/>
    <path d="M3.45 -31.15 L3.5 -31.15 3.55 -31.15 4.0 -31.0 4.55 -30.55 4.6 -29.95 4.6 -29.7 4.55 -29.6 3.7 -29.0 2.75 -28.95 1.85 -29.25 1.55 -29.55 1.4 -29.9 1.4 -29.95 1.45 -30.55 1.55 -30.7 Q2.0 -31.2 3.45 -31.15" fill="url(#gradient13)" fill-rule="evenodd" stroke="none"/>
    <path d="M3.05 -31.3 L3.45 -31.15 Q2.0 -31.2 1.55 -30.7 L1.75 -30.95 2.9 -31.3 3.05 -31.3 M3.55 -31.15 L4.25 -30.95 4.7 -30.4 4.7 -30.0 4.6 -29.95 4.55 -30.55 4.0 -31.0 3.55 -31.15 M1.4 -29.95 L1.25 -30.0 1.3 -30.35 1.45 -30.55 1.4 -29.95" fill="url(#gradient14)" fill-rule="evenodd" stroke="none"/>
    <path d="M4.75 -29.25 L4.7 -27.6 4.65 -25.5 4.45 -24.5 Q3.45 -23.15 1.3 -24.5 L1.25 -27.55 1.25 -30.0 1.4 -29.95 1.4 -29.9 1.55 -29.55 1.85 -29.25 2.75 -28.95 Q4.05 -28.65 4.55 -29.6 L4.6 -29.7 4.6 -29.95 4.7 -30.0 4.75 -29.9 4.75 -29.25" fill="url(#gradient15)" fill-rule="evenodd" stroke="none"/>
    <path d="M4.55 -24.15 L4.3 -13.6 4.25 -12.35 Q4.35 -11.7 3.5 -11.3 L2.3 -11.3 1.4 -11.9 1.25 -13.2 1.2 -14.1 1.3 -24.5 Q3.45 -23.15 4.45 -24.5 L4.55 -24.15 M4.1 -7.6 L3.7 9.65 3.7 11.3 Q3.5 11.5 3.7 11.45 L3.65 13.7 Q2.15 15.65 1.05 13.45 L1.05 13.35 1.1 13.35 1.1 13.15 1.1 12.75 1.1 10.85 1.2 -7.35 3.15 -7.2 4.1 -7.6 M4.55 -29.6 Q4.05 -28.65 2.75 -28.95 L3.7 -29.0 4.55 -29.6" fill="url(#gradient16)" fill-rule="evenodd" stroke="none"/>
    <path d="M4.65 -25.5 L5.15 -25.45 6.35 -26.05 7.15 -27.55 Q7.25 -29.0 7.6 -29.05 L8.05 -29.5 8.05 -28.8 7.1 -26.2 Q5.8 -24.2 4.55 -24.15 L4.45 -24.5 4.65 -25.5" fill="url(#gradient17)" fill-rule="evenodd" stroke="none"/>
    <path d="M9.55 -29.05 L9.2 -32.9 10.55 -32.9 11.4 -33.55 Q11.95 -33.3 11.0 -29.25 L11.2 -27.85 11.2 -27.45 10.6 -27.3 10.3 -27.4 10.05 -27.75 9.55 -29.05" fill="url(#gradient18)" fill-rule="evenodd" stroke="none"/>
    <path d="M10.6 -27.3 L11.2 -27.45 11.2 -27.85 Q14.45 -25.05 10.95 -22.95 L10.9 -23.2 Q13.1 -24.6 10.6 -27.3" fill="url(#gradient19)" fill-rule="evenodd" stroke="none"/>
    <path d="M10.3 -27.4 L10.6 -27.3 Q13.1 -24.6 10.9 -23.2 L10.75 -23.35 Q11.15 -22.85 10.95 -25.8 L10.3 -27.4" fill="url(#gradient20)" fill-rule="evenodd" stroke="none"/>
    <path d="M9.85 -22.75 L9.55 -22.85 9.35 -22.85 9.2 -22.9 Q7.8 -23.05 9.85 -25.15 10.2 -24.95 10.3 -26.75 L10.05 -27.75 10.3 -27.4 10.95 -25.8 Q11.15 -22.85 10.75 -23.35 L10.6 -23.2 10.4 -23.05 10.0 -22.75 9.85 -22.75" fill="url(#gradient21)" fill-rule="evenodd" stroke="none"/>
    <path d="M10.6 -23.2 L10.85 -22.6 10.65 -21.5 10.3 -21.8 10.4 -23.05 10.6 -23.2" fill="url(#gradient22)" fill-rule="evenodd" stroke="none"/>
    <path d="M9.6 -19.05 Q7.8 -20.25 9.7 -20.6 L10.2 -20.95 10.65 -21.5 10.85 -22.6 10.6 -23.2 10.75 -23.35 10.9 -23.2 10.95 -22.95 Q12.4 -19.6 10.3 -18.9 L10.05 -18.9 9.6 -19.05" fill="url(#gradient23)" fill-rule="evenodd" stroke="none"/>
    <path d="M10.3 -18.9 L10.25 -17.95 10.05 -18.9 10.3 -18.9 M10.55 -14.95 L11.65 -10.1 Q12.9 -7.55 13.8 -4.05 L13.9 -2.35 12.8 0.2 10.05 3.15 9.9 3.25 9.6 2.55 10.7 -10.7 10.55 -14.95" fill="url(#gradient24)" fill-rule="evenodd" stroke="none"/>
    <path d="M4.3 -13.6 L4.95 -13.05 5.15 -12.1 4.95 -12.0 4.25 -12.35 4.3 -13.6 M0.2 -13.6 L1.2 -14.1 1.25 -13.2 0.5 -13.05 -0.25 -12.45 -0.35 -12.6 -0.25 -13.1 0.2 -13.6" fill="url(#gradient25)" fill-rule="evenodd" stroke="none"/>
    <path d="M5.15 -12.1 Q6.6 -9.55 4.1 -7.6 L3.15 -7.2 1.2 -7.35 1.05 -7.45 -0.15 -8.25 -0.65 -9.2 -0.85 -9.65 -0.85 -11.15 -0.25 -12.45 0.5 -13.05 1.25 -13.2 1.4 -11.9 2.3 -11.3 3.5 -11.3 Q4.35 -11.7 4.25 -12.35 L4.95 -12.0 5.15 -12.1" fill="url(#gradient26)" fill-rule="evenodd" stroke="none"/>
    <path d="M13.8 -4.05 Q14.15 -4.1 14.45 -1.35 L13.75 1.05 9.7 6.55 8.95 5.85 9.6 2.55 9.9 3.25 10.05 3.15 12.8 0.2 13.9 -2.35 13.8 -4.05" fill="url(#gradient27)" fill-rule="evenodd" stroke="none"/>
    <path d="M3.65 13.7 L3.55 20.8 Q2.7 21.9 1.9 21.6 1.1 21.25 0.95 20.75 L1.05 13.45 Q2.15 15.65 3.65 13.7" fill="url(#gradient28)" fill-rule="evenodd" stroke="none"/>
    <path d="M1.05 13.35 L1.1 13.15 1.1 13.35 1.05 13.35" fill="url(#gradient29)" fill-rule="evenodd" stroke="none"/>
    <path d="M-5.2 -45.15 L-5.15 -45.25 -5.15 -45.15 -5.2 -45.15" fill="url(#gradient30)" fill-rule="evenodd" stroke="none"/>
    <path d="M-9.8 -11.4 L-10.5 -11.7 -10.85 -12.45 -10.35 -13.3 -11.05 -12.8 -11.5 -13.15 -11.85 -14.3 -12.25 -17.1 Q-12.15 -17.75 -13.5 -23.75 L-14.3 -29.9 -13.95 -32.55 Q-12.4 -34.15 -11.5 -33.7 L-11.65 -31.6 -11.3 -29.9 -10.6 -28.25 -10.05 -27.5 Q-11.7 -24.15 -8.2 -19.35 L-7.7 -18.45 -7.85 -17.3 -7.9 -17.25 -7.9 -17.15 -7.95 -17.1 -9.45 -14.25 -9.8 -11.4" fill="url(#gradient31)" fill-rule="evenodd" stroke="none"/>
    <path d="M-11.5 -33.7 L-10.35 -33.7 Q-6.7 -32.65 -5.05 -32.5 L-2.65 -31.8 -2.75 -29.9 -3.45 -27.95 Q-4.0 -29.0 -6.85 -27.25 L-8.65 -27.15 -10.05 -27.5 -10.6 -28.25 -11.3 -29.9 -11.65 -31.6 -11.5 -33.7" fill="url(#gradient32)" fill-rule="evenodd" stroke="none"/>
    <path d="M-2.55 -31.8 L-1.4 -30.3 -1.55 -29.9 -1.7 -28.3 -2.6 -26.4 -3.45 -27.95 -2.75 -29.9 -2.65 -31.8 -2.55 -31.8" fill="url(#gradient33)" fill-rule="evenodd" stroke="none"/>
    <path d="M-8.2 -19.35 Q-11.7 -24.15 -10.05 -27.5 L-8.65 -27.15 -6.85 -27.25 Q-4.65 -20.8 -7.3 -18.75 L-7.35 -18.75 -8.2 -19.35" fill="url(#gradient34)" fill-rule="evenodd" stroke="none"/>
    <path d="M-1.95 -24.1 L-1.6 -21.7 Q-1.55 -20.1 -1.95 -18.9 L-7.3 -18.75 Q-4.65 -20.8 -6.85 -27.25 -4.0 -29.0 -3.45 -27.95 L-2.6 -26.4 -1.95 -24.1" fill="url(#gradient35)" fill-rule="evenodd" stroke="none"/>
    <path d="M-7.7 -18.45 L-8.2 -19.35 -7.35 -18.75 -7.35 -18.2 -7.7 -18.45" fill="url(#gradient36)" fill-rule="evenodd" stroke="none"/>
    <path d="M-1.95 -18.9 L-1.2 -17.85 -0.3 -14.6 0.2 -13.6 -0.25 -13.1 -0.35 -12.6 -0.25 -12.45 -0.85 -11.15 -0.85 -9.65 -1.85 -10.3 -2.35 -10.85 -2.35 -10.95 -2.4 -10.95 Q-7.2 -13.2 -7.35 -17.1 L-7.35 -18.2 -7.35 -18.75 -7.3 -18.75 -1.95 -18.9" fill="url(#gradient37)" fill-rule="evenodd" stroke="none"/>
    <path d="M-9.65 -2.9 L-9.6 -2.95 -9.6 -2.9 -9.65 -2.9 M-7.9 -17.25 L-7.85 -17.3 -7.85 -17.25 -7.9 -17.25 M-10.25 0.6 L-10.15 0.45 -10.15 0.6 -10.25 0.6" fill="url(#gradient38)" fill-rule="evenodd" stroke="none"/>
    <path d="M-9.45 -3.75 L-10.3 -5.15 -9.8 -11.2 -9.8 -11.4 -9.45 -14.25 -7.95 -17.1 -7.9 -17.15 -7.85 -17.1 -8.35 -14.95 -9.1 -9.9 Q-8.45 -8.4 -8.6 -7.25 L-8.05 -7.25 -6.5 -6.05 -2.8 -6.65 -0.65 -9.2 -0.15 -8.25 1.05 -7.45 -1.75 -3.65 -1.85 -3.6 -1.95 -3.4 -2.0 -3.35 -3.25 -1.7 -3.95 -1.65 -4.05 -1.6 -4.35 -1.6 -4.55 -1.55 -4.75 -1.55 -5.05 -1.5 -5.1 -1.5 -7.55 -1.2 -9.45 -3.75" fill="url(#gradient39)" fill-rule="evenodd" stroke="none"/>
    <path d="M-2.4 -10.95 L-2.35 -10.95 -2.35 -10.85 -2.4 -10.95" fill="url(#gradient40)" fill-rule="evenodd" stroke="none"/>
  </g>
  <defs>
    <radialGradient cx="0" cy="0" gradientTransform="matrix(0.005, 0.0, 0.0, 0.005, 9.8, -42.05)" gradientUnits="userSpaceOnUse" id="gradient0" r="819.2" spreadMethod="pad">
      <stop offset="0.0" stop-color="#f8af66"/>
      <stop offset="1.0" stop-color="#91663b"/>
    </radialGradient>
    <radialGradient cx="0" cy="0" gradientTransform="matrix(0.0297, 0.0, 0.0, 0.0297, -5.25, -35.1)" gradientUnits="userSpaceOnUse" id="gradient1" r="819.2" spreadMethod="pad">
      <stop offset="0.0" stop-color="#66604a"/>
      <stop offset="1.0" stop-color="#343026"/>
    </radialGradient>
    <radialGradient cx="0" cy="0" gradientTransform="matrix(0.0205, 0.0, 0.0, 0.0205, -4.3, -36.25)" gradientUnits="userSpaceOnUse" id="gradient2" r="819.2" spreadMethod="pad">
      <stop offset="0.0" stop-color="#665f4a"/>
      <stop offset="1.0" stop-color="#3e3a2d"/>
    </radialGradient>
    <radialGradient cx="0" cy="0" gradientTransform="matrix(0.0076, 0.0, 0.0, 0.0076, 9.75, -39.15)" gradientUnits="userSpaceOnUse" id="gradient3" r="819.2" spreadMethod="pad">
      <stop offset="0.0" stop-color="#ffdc80"/>
      <stop offset="1.0" stop-color="#805b34"/>
    </radialGradient>
    <radialGradient cx="0" cy="0" gradientTransform="matrix(0.017, 0.0, 0.0, 0.017, 7.8, -41.45)" gradientUnits="userSpaceOnUse" id="gradient4" r="819.2" spreadMethod="pad">
      <stop offset="0.0" stop-color="#68614b"/>
      <stop offset="1.0" stop-color="#3e3a2d"/>
    </radialGradient>
    <radialGradient cx="0" cy="0" gradientTransform="matrix(0.0056, 0.0, 0.0, 0.0056, 4.1, -45.55)" gradientUnits="userSpaceOnUse" id="gradient5" r="819.2" spreadMethod="pad">
      <stop offset="0.0" stop-color="#fef1c3"/>
      <stop offset="1.0" stop-color="#dbd0a9"/>
    </radialGradient>
    <radialGradient cx="0" cy="0" gradientTransform="matrix(0.0177, 0.0, 0.0, 0.0177, -1.3, -32.65)" gradientUnits="userSpaceOnUse" id="gradient6" r="819.2" spreadMethod="pad">
      <stop offset="0.0" stop-color="#6f3f20"/>
      <stop offset="1.0" stop-color="#382010"/>
    </radialGradient>
    <radialGradient cx="0" cy="0" gradientTransform="matrix(0.0144, 0.0, 0.0, 0.0144, -1.25, -37.3)" gradientUnits="userSpaceOnUse" id="gradient7" r="819.2" spreadMethod="pad">
      <stop offset="0.0" stop-color="#665f4a"/>
      <stop offset="1.0" stop-color="#413d2f"/>
    </radialGradient>
    <radialGradient cx="0" cy="0" gradientTransform="matrix(0.0049, 0.0, 0.0, 0.0049, 3.25, -41.65)" gradientUnits="userSpaceOnUse" id="gradient8" r="819.2" spreadMethod="pad">
      <stop offset="0.0" stop-color="#dc9b5a"/>
      <stop offset="1.0" stop-color="#a57443"/>
    </radialGradient>
    <radialGradient cx="0" cy="0" gradientTransform="matrix(0.0622, 0.0, 0.0, 0.0622, -2.8, 13.55)" gradientUnits="userSpaceOnUse" id="gradient9" r="819.2" spreadMethod="pad">
      <stop offset="0.0" stop-color="#6c654f"/>
      <stop offset="1.0" stop-color="#3a362a"/>
    </radialGradient>
    <radialGradient cx="0" cy="0" gradientTransform="matrix(0.0429, 0.0, 0.0, 0.0429, -0.1, -23.45)" gradientUnits="userSpaceOnUse" id="gradient10" r="819.2" spreadMethod="pad">
      <stop offset="0.0" stop-color="#de3131"/>
      <stop offset="1.0" stop-color="#a42424"/>
    </radialGradient>
    <radialGradient cx="0" cy="0" gradientTransform="matrix(0.0085, 0.0, 0.0, 0.0085, 7.4, -33.85)" gradientUnits="userSpaceOnUse" id="gradient11" r="819.2" spreadMethod="pad">
      <stop offset="0.0" stop-color="#fff7c8"/>
      <stop offset="1.0" stop-color="#a0987c"/>
    </radialGradient>
    <radialGradient cx="0" cy="0" gradientTransform="matrix(0.0103, 0.0, 0.0, 0.0103, -0.2, -32.1)" gradientUnits="userSpaceOnUse" id="gradient12" r="819.2" spreadMethod="pad">
      <stop offset="0.0" stop-color="#484334"/>
      <stop offset="1.0" stop-color="#393529"/>
    </radialGradient>
    <radialGradient cx="0" cy="0" gradientTransform="matrix(0.0033, 0.0, 0.0, 0.0033, 2.0, -29.5)" gradientUnits="userSpaceOnUse" id="gradient13" r="819.2" spreadMethod="pad">
      <stop offset="0.0" stop-color="#5c351b"/>
      <stop offset="1.0" stop-color="#5c341b"/>
    </radialGradient>
    <radialGradient cx="0" cy="0" gradientTransform="matrix(0.005, 0.0, 0.0, 0.005, 3.75, -31.2)" gradientUnits="userSpaceOnUse" id="gradient14" r="819.2" spreadMethod="pad">
      <stop offset="0.0" stop-color="#1f1e18"/>
      <stop offset="1.0" stop-color="#1f1e18"/>
    </radialGradient>
    <radialGradient cx="0" cy="0" gradientTransform="matrix(0.0072, 0.0, 0.0, 0.0072, 1.45, -29.6)" gradientUnits="userSpaceOnUse" id="gradient15" r="819.2" spreadMethod="pad">
      <stop offset="0.0" stop-color="#a39b7e"/>
      <stop offset="1.0" stop-color="#958d72"/>
    </radialGradient>
    <radialGradient cx="0" cy="0" gradientTransform="matrix(0.0545, 0.0, 0.0, 0.0545, 1.55, -29.6)" gradientUnits="userSpaceOnUse" id="gradient16" r="819.2" spreadMethod="pad">
      <stop offset="0.0" stop-color="#4b2b16"/>
      <stop offset="1.0" stop-color="#3b2111"/>
    </radialGradient>
    <radialGradient cx="0" cy="0" gradientTransform="matrix(0.0081, 0.0, 0.0, 0.0081, 7.45, -29.6)" gradientUnits="userSpaceOnUse" id="gradient17" r="819.2" spreadMethod="pad">
      <stop offset="0.0" stop-color="#ffffd5"/>
      <stop offset="1.0" stop-color="#79735d"/>
    </radialGradient>
    <radialGradient cx="0" cy="0" gradientTransform="matrix(0.0072, 0.0, 0.0, 0.0072, 8.95, -32.75)" gradientUnits="userSpaceOnUse" id="gradient18" r="819.2" spreadMethod="pad">
      <stop offset="0.0" stop-color="#635d48"/>
      <stop offset="1.0" stop-color="#3b372b"/>
    </radialGradient>
    <radialGradient cx="0" cy="0" gradientTransform="matrix(0.0044, 0.0, 0.0, 0.0044, 10.95, -26.65)" gradientUnits="userSpaceOnUse" id="gradient19" r="819.2" spreadMethod="pad">
      <stop offset="0.0" stop-color="#665f4a"/>
      <stop offset="1.0" stop-color="#2e2b21"/>
    </radialGradient>
    <radialGradient cx="0" cy="0" gradientTransform="matrix(0.0034, 0.0, 0.0, 0.0034, 10.6, -26.05)" gradientUnits="userSpaceOnUse" id="gradient20" r="819.2" spreadMethod="pad">
      <stop offset="0.0" stop-color="#ffe988"/>
      <stop offset="1.0" stop-color="#94683c"/>
    </radialGradient>
    <radialGradient cx="0" cy="0" gradientTransform="matrix(0.0059, 0.0, 0.0, 0.0059, 7.25, -24.1)" gradientUnits="userSpaceOnUse" id="gradient21" r="819.2" spreadMethod="pad">
      <stop offset="0.0" stop-color="#fdf0c3"/>
      <stop offset="1.0" stop-color="#91896f"/>
    </radialGradient>
    <radialGradient cx="0" cy="0" gradientTransform="matrix(0.0048, 0.0, 0.0, 0.0048, 9.85, -22.9)" gradientUnits="userSpaceOnUse" id="gradient22" r="819.2" spreadMethod="pad">
      <stop offset="0.0" stop-color="#1f1e18"/>
      <stop offset="1.0" stop-color="#1f1e18"/>
    </radialGradient>
    <radialGradient cx="0" cy="0" gradientTransform="matrix(0.0047, 0.0, 0.0, 0.0047, 8.3, -20.65)" gradientUnits="userSpaceOnUse" id="gradient23" r="819.2" spreadMethod="pad">
      <stop offset="0.0" stop-color="#ffffd3"/>
      <stop offset="1.0" stop-color="#888168"/>
    </radialGradient>
    <radialGradient cx="0" cy="0" gradientTransform="matrix(0.0153, 0.0, 0.0, 0.0153, 9.85, -9.45)" gradientUnits="userSpaceOnUse" id="gradient24" r="819.2" spreadMethod="pad">
      <stop offset="0.0" stop-color="#992222"/>
      <stop offset="1.0" stop-color="#891e1e"/>
    </radialGradient>
    <radialGradient cx="0" cy="0" gradientTransform="matrix(0.005, 0.0, 0.0, 0.005, 3.7, -12.65)" gradientUnits="userSpaceOnUse" id="gradient25" r="819.2" spreadMethod="pad">
      <stop offset="0.0" stop-color="#ffdd81"/>
      <stop offset="1.0" stop-color="#c68c51"/>
    </radialGradient>
    <radialGradient cx="0" cy="0" gradientTransform="matrix(0.005, 0.0, 0.0, 0.005, 2.7, -11.2)" gradientUnits="userSpaceOnUse" id="gradient26" r="819.2" spreadMethod="pad">
      <stop offset="0.0" stop-color="#67604b"/>
      <stop offset="1.0" stop-color="#343026"/>
    </radialGradient>
    <radialGradient cx="0" cy="0" gradientTransform="matrix(0.0113, 0.0, 0.0, 0.0113, 10.65, 3.35)" gradientUnits="userSpaceOnUse" id="gradient27" r="819.2" spreadMethod="pad">
      <stop offset="0.0" stop-color="#514c3b"/>
      <stop offset="1.0" stop-color="#3b372a"/>
    </radialGradient>
    <radialGradient cx="0" cy="0" gradientTransform="matrix(0.0094, 0.0, 0.0, 0.0094, 3.45, 13.95)" gradientUnits="userSpaceOnUse" id="gradient28" r="819.2" spreadMethod="pad">
      <stop offset="0.0" stop-color="#827b64"/>
      <stop offset="1.0" stop-color="#746e5a"/>
    </radialGradient>
    <radialGradient cx="0" cy="0" gradientTransform="matrix(0.0548, 0.0, 0.0, 0.0548, 1.75, -31.0)" gradientUnits="userSpaceOnUse" id="gradient29" r="819.2" spreadMethod="pad">
      <stop offset="0.0" stop-color="#0e0804"/>
      <stop offset="1.0" stop-color="#0e0804"/>
    </radialGradient>
    <radialGradient cx="0" cy="0" gradientTransform="matrix(0.0124, 0.0, 0.0, 0.0124, -5.25, -46.15)" gradientUnits="userSpaceOnUse" id="gradient30" r="819.2" spreadMethod="pad">
      <stop offset="0.0" stop-color="#373328"/>
      <stop offset="1.0" stop-color="#11100d"/>
    </radialGradient>
    <radialGradient cx="0" cy="0" gradientTransform="matrix(0.0249, 0.0, 0.0, 0.0249, -14.7, -31.1)" gradientUnits="userSpaceOnUse" id="gradient31" r="819.2" spreadMethod="pad">
      <stop offset="0.0" stop-color="#0c0c09"/>
      <stop offset="1.0" stop-color="#0c0c09"/>
    </radialGradient>
    <radialGradient cx="0" cy="0" gradientTransform="matrix(0.0073, 0.0, 0.0, 0.0073, -7.05, -32.25)" gradientUnits="userSpaceOnUse" id="gradient32" r="819.2" spreadMethod="pad">
      <stop offset="0.0" stop-color="#ffe183"/>
      <stop offset="1.0" stop-color="#b5804a"/>
    </radialGradient>
    <radialGradient cx="0" cy="0" gradientTransform="matrix(0.0095, 0.0, 0.0, 0.0095, -2.45, -33.8)" gradientUnits="userSpaceOnUse" id="gradient33" r="819.2" spreadMethod="pad">
      <stop offset="0.0" stop-color="#ffc170"/>
      <stop offset="1.0" stop-color="#b9824c"/>
    </radialGradient>
    <radialGradient cx="0" cy="0" gradientTransform="matrix(0.0082, 0.0, 0.0, 0.0082, -6.0, -25.4)" gradientUnits="userSpaceOnUse" id="gradient34" r="819.2" spreadMethod="pad">
      <stop offset="0.0" stop-color="#ffe284"/>
      <stop offset="1.0" stop-color="#a27242"/>
    </radialGradient>
    <radialGradient cx="0" cy="0" gradientTransform="matrix(0.0096, 0.0, 0.0, 0.0096, -4.45, -25.05)" gradientUnits="userSpaceOnUse" id="gradient35" r="819.2" spreadMethod="pad">
      <stop offset="0.0" stop-color="#ffe284"/>
      <stop offset="1.0" stop-color="#d79858"/>
    </radialGradient>
    <radialGradient cx="0" cy="0" gradientTransform="matrix(0.0018, 0.0, 0.0, 0.0018, -7.85, -19.7)" gradientUnits="userSpaceOnUse" id="gradient36" r="819.2" spreadMethod="pad">
      <stop offset="0.0" stop-color="#cd9054"/>
      <stop offset="1.0" stop-color="#966a3e"/>
    </radialGradient>
    <radialGradient cx="0" cy="0" gradientTransform="matrix(0.012, 0.0, 0.0, 0.012, -1.0, -11.65)" gradientUnits="userSpaceOnUse" id="gradient37" r="819.2" spreadMethod="pad">
      <stop offset="0.0" stop-color="#68614b"/>
      <stop offset="1.0" stop-color="#474333"/>
    </radialGradient>
    <radialGradient cx="0" cy="0" gradientTransform="matrix(0.0226, 0.0, 0.0, 0.0226, -7.9, -17.05)" gradientUnits="userSpaceOnUse" id="gradient38" r="819.2" spreadMethod="pad">
      <stop offset="0.0" stop-color="#1f0707"/>
      <stop offset="1.0" stop-color="#1f0707"/>
    </radialGradient>
    <radialGradient cx="0" cy="0" gradientTransform="matrix(0.018, 0.0, 0.0, 0.018, -8.9, -15.55)" gradientUnits="userSpaceOnUse" id="gradient39" r="819.2" spreadMethod="pad">
      <stop offset="0.0" stop-color="#ffffd3"/>
      <stop offset="1.0" stop-color="#a8a082"/>
    </radialGradient>
    <radialGradient cx="0" cy="0" gradientTransform="matrix(0.0046, 0.0, 0.0, 0.0046, -5.15, -13.45)" gradientUnits="userSpaceOnUse" id="gradient40" r="819.2" spreadMethod="pad">
      <stop offset="0.0" stop-color="#0c0c09"/>
      <stop offset="1.0" stop-color="#0c0c09"/>
    </radialGradient>
  </defs>
</svg>
