<?xml version="1.0" encoding="UTF-8" standalone="no"?>
<svg xmlns:ffdec="https://www.free-decompiler.com/flash" xmlns:xlink="http://www.w3.org/1999/xlink" ffdec:objectType="shape" height="77.95px" width="45.8px" xmlns="http://www.w3.org/2000/svg">
  <g transform="matrix(1.0, 0.0, 0.0, 1.0, 30.05, 65.1)">
    <path d="M-26.8 -48.6 L-25.25 -49.65 -24.0 -51.0 Q-22.4 -52.9 -23.7 -58.95 L-25.25 -61.6 -26.3 -62.75 -27.5 -63.45 Q-28.85 -63.3 -29.0 -62.8 L-30.05 -60.35 -29.85 -62.8 -29.45 -63.8 Q-26.05 -66.5 -23.65 -63.5 -20.45 -60.25 -20.8 -55.8 -20.75 -48.8 -26.5 -46.2 L-26.8 -48.6" fill="url(#gradient0)" fill-rule="evenodd" stroke="none"/>
    <path d="M-29.8 -49.55 L-29.7 -49.6 -29.55 -49.7 -29.5 -49.8 -28.9 -50.0 -28.85 -50.0 -28.5 -50.05 -28.15 -50.05 -27.55 -49.95 -27.5 -49.9 -27.05 -49.35 -27.05 -49.15 -27.1 -48.9 -27.2 -48.65 -28.05 -48.25 -29.35 -48.3 -29.7 -48.5 -29.95 -48.8 -29.95 -48.85 -29.8 -49.55" fill="url(#gradient1)" fill-rule="evenodd" stroke="none"/>
    <path d="M-26.35 -43.9 L-24.8 -32.7 -24.8 -32.55 -24.75 -32.3 -24.75 -31.35 Q-25.0 -30.9 -26.0 -30.4 -27.1 -30.45 -27.35 -30.9 L-27.55 -32.1 -29.2 -43.55 Q-27.0 -42.65 -26.35 -43.9 M-29.95 -48.85 L-29.95 -48.8 -30.0 -48.8 -30.0 -48.85 -29.95 -48.85 M-29.35 -48.3 L-28.05 -48.25 -27.2 -48.65 -28.05 -48.2 -28.75 -48.15 -29.35 -48.3 M-26.8 -26.9 L-25.15 -26.8 -24.1 -27.2 -21.25 -5.2 -21.45 -4.7 Q-23.3 -3.65 -23.55 -4.7 L-23.6 -4.85 -23.65 -5.0 -23.65 -5.15 -26.8 -26.9" fill="url(#gradient2)" fill-rule="evenodd" stroke="none"/>
    <path d="M-26.5 -46.2 L-26.3 -44.75 -26.35 -43.9 Q-27.0 -42.65 -29.2 -43.55 L-30.0 -48.8 -29.95 -48.8 -29.7 -48.5 -29.35 -48.3 -28.75 -48.15 -28.05 -48.2 -27.2 -48.65 -27.1 -48.9 -27.05 -49.15 -27.05 -49.35 -27.0 -49.35 -26.8 -48.6 -26.5 -46.2" fill="url(#gradient3)" fill-rule="evenodd" stroke="none"/>
    <path d="M-29.8 -49.55 L-29.95 -48.85 -30.0 -48.85 -30.0 -49.3 -29.8 -49.55 M-27.05 -49.35 L-27.5 -49.9 -27.2 -49.85 -27.0 -49.35 -27.05 -49.35" fill="url(#gradient4)" fill-rule="evenodd" stroke="none"/>
    <path d="M-8.25 -44.0 L-8.3 -44.0 -8.3 -44.25 -8.25 -44.0" fill="url(#gradient5)" fill-rule="evenodd" stroke="none"/>
    <path d="M5.85 -43.75 L5.65 -43.0 Q1.05 -34.1 -4.8 -39.25 L-3.7 -39.05 -3.25 -39.2 -3.1 -39.55 -2.25 -39.7 -2.15 -40.35 -2.05 -40.35 -2.05 -40.4 -2.2 -41.25 -2.4 -41.65 -3.05 -43.0 -4.7 -45.05 -6.4 -46.1 Q-8.7 -44.05 -6.45 -43.0 L-5.85 -42.6 -4.8 -40.5 -5.15 -40.55 -5.45 -40.25 -5.0 -39.75 -4.95 -39.4 Q-6.45 -40.75 -8.0 -43.0 L-8.25 -44.0 -8.3 -44.25 -8.25 -46.55 -7.6 -48.15 Q1.5 -57.7 6.15 -45.35 L5.85 -43.75" fill="url(#gradient6)" fill-rule="evenodd" stroke="none"/>
    <path d="M-3.1 -39.55 L-3.25 -39.2 -3.7 -39.05 -4.8 -39.25 Q1.05 -34.1 5.65 -43.0 L5.85 -43.75 6.45 -43.0 Q6.7 -38.1 4.05 -37.25 2.85 -36.5 0.3 -36.15 L-0.55 -35.5 Q-7.25 -33.45 -8.35 -40.95 L-8.55 -42.45 -8.3 -44.0 -8.25 -44.0 -8.0 -43.0 Q-6.45 -40.75 -4.95 -39.4 L-5.0 -39.75 -5.45 -40.25 -5.15 -40.55 -4.8 -40.5 -4.0 -39.85 -3.1 -39.55" fill="url(#gradient7)" fill-rule="evenodd" stroke="none"/>
    <path d="M-8.3 -44.0 L-8.55 -42.45 -8.35 -40.95 -8.6 -40.9 -8.8 -41.2 -9.55 -41.6 -9.95 -42.45 -10.05 -43.0 -10.05 -45.0 Q-10.65 -45.7 -8.95 -47.6 L-7.6 -48.15 -8.25 -46.55 -8.3 -44.25 -8.3 -44.0 M-0.55 -35.5 L0.3 -36.15 Q2.85 -36.5 4.05 -37.25 L5.05 -36.35 6.05 -36.2 7.55 -37.55 7.85 -38.05 8.35 -37.95 9.9 -39.3 9.95 -39.75 10.25 -39.7 9.7 -41.45 8.8 -42.7 Q18.05 -33.15 14.95 -27.15 L14.8 -27.95 15.1 -30.9 14.8 -33.0 13.45 -34.1 13.1 -34.1 10.8 -34.1 5.85 -32.8 6.6 -33.1 6.45 -33.2 Q1.5 -33.25 -0.55 -35.5 M4.1 -32.45 L4.45 -32.5 4.3 -32.4 4.1 -32.45 M14.6 -23.65 L14.3 -21.35 13.8 -21.85 13.8 -22.05 13.8 -22.15 14.6 -23.65" fill="url(#gradient8)" fill-rule="evenodd" stroke="none"/>
    <path d="M-11.95 -41.8 L-11.5 -43.15 Q-10.75 -44.65 -10.05 -45.0 L-10.05 -43.0 -9.95 -42.45 -9.85 -39.5 -9.3 -37.75 -9.75 -37.95 -11.0 -40.0 -11.25 -40.1 -11.4 -40.6 -12.0 -41.25 -11.95 -41.8" fill="url(#gradient9)" fill-rule="evenodd" stroke="none"/>
    <path d="M-17.45 -36.15 L-17.0 -37.05 -16.0 -38.3 -13.75 -40.35 -12.0 -41.25 -11.4 -40.6 -11.25 -40.1 -11.0 -40.0 -9.75 -37.95 -10.8 -36.7 -14.45 -33.45 Q-18.3 -32.8 -17.45 -36.15" fill="url(#gradient10)" fill-rule="evenodd" stroke="none"/>
    <path d="M-16.0 -38.3 L-14.55 -40.05 -11.95 -41.8 -12.0 -41.25 -13.75 -40.35 -16.0 -38.3" fill="url(#gradient11)" fill-rule="evenodd" stroke="none"/>
    <path d="M-8.35 -40.95 Q-7.25 -33.45 -0.55 -35.5 1.5 -33.25 6.45 -33.2 L6.6 -33.1 5.85 -32.8 4.45 -32.5 4.1 -32.45 3.75 -32.4 1.7 -32.05 -0.1 -32.0 -5.8 -31.95 -7.95 -35.2 -9.25 -37.45 -9.3 -37.75 -9.85 -39.5 -9.95 -42.45 -9.55 -41.6 -8.8 -41.2 -8.6 -40.9 -8.35 -40.95 M4.05 -37.25 Q6.7 -38.1 6.45 -43.0 L5.85 -43.75 6.15 -45.35 8.15 -43.6 8.8 -42.7 9.7 -41.45 10.25 -39.7 9.95 -39.75 9.9 -39.3 8.35 -37.95 7.85 -38.05 7.55 -37.55 6.05 -36.2 5.05 -36.35 4.05 -37.25" fill="url(#gradient12)" fill-rule="evenodd" stroke="none"/>
    <path d="M-24.8 -32.7 L-23.4 -33.05 -22.6 -33.45 -19.45 -35.65 -17.95 -36.2 -17.45 -36.15 Q-18.3 -32.8 -14.45 -33.45 L-13.5 -33.45 -13.5 -33.25 Q-13.45 -32.8 -14.4 -31.95 L-18.3 -30.35 -18.45 -30.35 -18.45 -30.3 -18.6 -30.3 -18.7 -30.3 -18.7 -30.25 -18.85 -30.25 -19.0 -30.25 -19.0 -30.2 -22.7 -29.6 -22.8 -30.1 -22.7 -30.25 Q-21.95 -32.05 -24.45 -32.45 L-24.8 -32.55 -24.8 -32.7" fill="url(#gradient13)" fill-rule="evenodd" stroke="none"/>
    <path d="M-26.0 -30.4 L-26.0 -30.25 Q-26.1 -27.6 -22.8 -30.1 L-22.7 -29.6 -23.0 -28.45 Q-23.4 -27.65 -24.1 -27.2 L-25.15 -26.8 -26.8 -26.9 Q-30.4 -29.0 -27.55 -32.1 L-27.35 -30.9 Q-27.1 -30.45 -26.0 -30.4 M-24.45 -32.45 L-24.75 -32.3 -24.8 -32.55 -24.45 -32.45" fill="url(#gradient14)" fill-rule="evenodd" stroke="none"/>
    <path d="M-26.0 -30.4 Q-25.0 -30.9 -24.75 -31.35 L-24.75 -32.3 -24.45 -32.45 Q-21.95 -32.05 -22.7 -30.25 L-22.8 -30.1 Q-26.1 -27.6 -26.0 -30.25 L-26.0 -30.4" fill="url(#gradient15)" fill-rule="evenodd" stroke="none"/>
    <path d="M-18.7 -30.25 L-18.7 -30.3 -18.6 -30.3 -18.7 -30.25 M-18.45 -30.3 L-18.45 -30.35 -18.3 -30.35 -18.45 -30.3 M-18.85 -30.25 L-19.0 -30.2 -19.0 -30.25 -18.85 -30.25" fill="url(#gradient16)" fill-rule="evenodd" stroke="none"/>
    <path d="M-9.75 -37.95 L-9.3 -37.75 -9.25 -37.45 -9.35 -37.0 -9.2 -36.0 -10.8 -34.65 Q-12.15 -33.8 -13.35 -33.45 L-13.5 -33.45 -14.45 -33.45 -10.8 -36.7 -9.75 -37.95" fill="url(#gradient17)" fill-rule="evenodd" stroke="none"/>
    <path d="M-7.95 -35.2 L-8.25 -34.4 -8.35 -32.9 -9.2 -36.0 -9.35 -37.0 -9.25 -37.45 -7.95 -35.2" fill="url(#gradient18)" fill-rule="evenodd" stroke="none"/>
    <path d="M-7.45 -33.1 L-7.55 -31.75 -6.75 -30.25 -5.3 -28.65 Q-3.75 -27.55 -2.55 -28.15 L-2.4 -28.25 -1.65 -29.7 -1.9 -30.1 -2.25 -30.2 Q-2.15 -29.5 -4.05 -29.7 L-5.05 -30.25 Q-7.2 -31.35 -7.3 -33.2 L-7.45 -33.1 M-6.75 -26.9 L-4.75 -25.0 -3.05 -24.45 Q-1.25 -24.8 -1.8 -26.1 -6.45 -24.95 -7.45 -30.0 L-7.65 -29.85 -7.65 -29.15 -7.6 -29.05 -7.6 -29.0 -6.75 -26.9 M-0.1 -32.0 L-0.25 -30.25 Q1.8 -18.1 1.2 -17.85 -1.4 -19.6 -0.45 -17.45 L-0.15 -16.3 0.9 -15.6 0.55 -13.85 Q-0.95 -14.55 -0.45 -15.3 L-0.9 -15.25 Q-1.1 -12.45 0.2 -11.8 0.4 -11.15 -0.85 -9.1 L-4.0 -4.7 Q-5.8 -2.1 -7.4 1.1 L-8.85 4.7 -11.8 1.3 Q-13.6 -1.3 -12.7 -4.7 L-12.2 -6.1 -12.1 -6.4 -10.65 -11.35 -10.05 -15.3 -10.0 -15.75 -8.0 -17.45 -8.15 -18.8 -8.2 -19.05 -8.45 -19.05 -9.5 -18.05 -9.85 -17.95 -9.9 -18.35 -9.9 -18.4 -9.85 -18.45 -9.75 -18.5 Q-9.65 -31.25 -8.35 -32.9 L-8.25 -34.4 -7.95 -35.2 -5.8 -31.95 -0.1 -32.0" fill="url(#gradient19)" fill-rule="evenodd" stroke="none"/>
    <path d="M-13.5 -33.25 L-13.5 -33.45 -13.35 -33.45 -13.5 -33.25" fill="url(#gradient20)" fill-rule="evenodd" stroke="none"/>
    <path d="M-5.85 -42.6 L-6.45 -43.0 Q-8.7 -44.05 -6.4 -46.1 L-4.7 -45.05 -3.05 -43.0 -2.4 -41.65 -3.75 -41.9 -5.85 -42.6" fill="url(#gradient21)" fill-rule="evenodd" stroke="none"/>
    <path d="M-3.1 -39.55 L-4.0 -39.85 -4.8 -40.5 -5.85 -42.6 -3.75 -41.9 -2.4 -41.65 -2.2 -41.25 -2.05 -40.4 -2.15 -40.35 -2.25 -39.7 -3.1 -39.55" fill="url(#gradient22)" fill-rule="evenodd" stroke="none"/>
    <path d="M-2.05 -40.4 L-2.05 -40.35 -2.15 -40.35 -2.05 -40.4" fill="url(#gradient23)" fill-rule="evenodd" stroke="none"/>
    <path d="M-7.45 -33.1 L-7.3 -33.2 Q-7.2 -31.35 -5.05 -30.25 L-4.05 -29.7 Q-2.15 -29.5 -2.25 -30.2 L-1.9 -30.1 -1.65 -29.7 -2.4 -28.25 -2.55 -28.15 Q-3.75 -27.55 -5.3 -28.65 L-6.75 -30.25 -7.55 -31.75 -7.45 -33.1" fill="url(#gradient24)" fill-rule="evenodd" stroke="none"/>
    <path d="M-6.75 -26.9 L-7.6 -29.0 -7.6 -29.05 -7.65 -29.15 -7.65 -29.85 -7.45 -30.0 Q-6.45 -24.95 -1.8 -26.1 -1.25 -24.8 -3.05 -24.45 L-4.75 -25.0 -6.75 -26.9" fill="url(#gradient25)" fill-rule="evenodd" stroke="none"/>
    <path d="M-0.1 -32.0 L1.7 -32.05 3.75 -32.4 3.6 -30.25 3.7 -27.55 4.4 -22.75 4.75 -21.55 4.75 -17.4 4.0 -17.25 2.65 -17.45 1.9 -17.5 1.2 -17.85 Q1.8 -18.1 -0.25 -30.25 L-0.1 -32.0 M-12.2 -6.1 L-12.7 -4.7 Q-13.6 -1.3 -11.8 1.3 L-8.85 4.7 -7.4 1.1 Q-5.8 -2.1 -4.0 -4.7 L-0.85 -9.1 Q0.4 -11.15 0.2 -11.8 L1.2 -10.75 3.35 -9.7 3.35 -9.65 2.7 -8.15 -2.9 -0.25 -4.65 2.8 -6.35 6.55 Q-6.8 6.6 -7.3 7.6 -7.5 7.5 -7.65 7.45 L-11.15 4.0 -13.2 1.1 Q-14.7 -2.4 -12.35 -6.15 L-12.3 -6.2 -12.2 -6.25 -12.2 -6.1 M0.55 -13.85 L0.9 -15.6 1.6 -15.05 3.95 -14.8 4.4 -14.9 3.95 -12.5 1.25 -13.25 0.55 -13.85" fill="url(#gradient26)" fill-rule="evenodd" stroke="none"/>
    <path d="M4.45 -32.5 L5.85 -32.8 10.8 -34.1 13.1 -34.1 13.5 -32.65 13.45 -30.25 13.4 -29.9 Q12.9 -27.9 10.8 -26.85 L9.15 -26.7 7.25 -26.95 7.25 -27.05 Q7.0 -27.05 6.9 -27.25 L6.8 -27.3 5.5 -28.65 4.75 -30.25 4.35 -31.5 4.3 -32.4 4.45 -32.5" fill="url(#gradient27)" fill-rule="evenodd" stroke="none"/>
    <path d="M3.7 -27.55 L3.6 -30.25 3.75 -32.4 4.1 -32.45 4.3 -32.4 4.35 -31.5 4.75 -30.25 5.5 -28.65 6.8 -27.3 5.3 -25.9 4.75 -25.8 Q4.1 -26.35 3.7 -27.55" fill="url(#gradient28)" fill-rule="evenodd" stroke="none"/>
    <path d="M-12.1 -6.4 L-12.2 -6.1 -12.2 -6.25 -12.1 -6.4 M6.8 -27.3 L6.9 -27.25 6.1 -26.05 5.3 -25.9 6.8 -27.3" fill="url(#gradient29)" fill-rule="evenodd" stroke="none"/>
    <path d="M4.4 -22.75 L3.7 -27.55 Q4.1 -26.35 4.75 -25.8 L5.3 -25.9 6.1 -26.05 6.9 -27.25 Q7.0 -27.05 7.25 -27.05 L7.25 -26.95 7.05 -25.7 7.15 -23.4 Q5.6 -22.1 4.4 -22.75" fill="url(#gradient30)" fill-rule="evenodd" stroke="none"/>
    <path d="M7.25 -26.95 L9.15 -26.7 10.8 -26.85 Q11.0 -19.7 13.25 -21.6 L13.05 -20.95 12.8 -20.65 11.7 -19.5 9.4 -19.6 8.5 -20.4 7.55 -22.0 7.15 -23.4 7.05 -25.7 7.25 -26.95" fill="url(#gradient31)" fill-rule="evenodd" stroke="none"/>
    <path d="M13.4 -29.9 L13.45 -30.25 13.5 -32.65 13.1 -34.1 13.45 -34.1 14.8 -33.0 15.1 -30.9 14.8 -27.95 14.25 -29.15 13.4 -29.9 M13.8 -22.05 L13.75 -22.05 13.8 -22.15 13.8 -22.05 M9.4 -19.6 L9.35 -18.4 10.1 -16.55 10.35 -14.0 9.5 -13.85 8.7 -17.45 8.5 -20.4 9.4 -19.6" fill="url(#gradient32)" fill-rule="evenodd" stroke="none"/>
    <path d="M10.8 -26.85 Q12.9 -27.9 13.4 -29.9 L14.25 -29.15 14.8 -27.95 14.95 -27.15 15.0 -25.15 14.6 -23.65 13.8 -22.15 13.75 -22.05 13.25 -21.6 Q11.0 -19.7 10.8 -26.85" fill="url(#gradient33)" fill-rule="evenodd" stroke="none"/>
    <path d="M13.75 -22.05 L13.8 -22.05 13.8 -21.85 13.7 -21.2 13.05 -20.95 13.25 -21.6 13.75 -22.05" fill="url(#gradient34)" fill-rule="evenodd" stroke="none"/>
    <path d="M14.3 -21.35 L14.65 -20.85 14.25 -20.6 12.8 -20.65 13.05 -20.95 13.7 -21.2 13.8 -21.85 14.3 -21.35" fill="url(#gradient35)" fill-rule="evenodd" stroke="none"/>
    <path d="M14.65 -20.85 L15.25 -19.85 15.3 -17.85 15.15 -17.45 14.6 -15.9 14.45 -15.2 Q13.45 -13.7 13.15 -12.55 L10.8 -12.5 10.4 -13.3 10.35 -14.0 10.1 -16.55 9.35 -18.4 9.4 -19.6 11.7 -19.5 12.8 -20.65 14.25 -20.6 14.65 -20.85" fill="url(#gradient36)" fill-rule="evenodd" stroke="none"/>
    <path d="M15.3 -17.85 L15.2 -16.75 14.6 -15.9 15.15 -17.45 15.3 -17.85" fill="url(#gradient37)" fill-rule="evenodd" stroke="none"/>
    <path d="M4.75 -17.4 L4.75 -21.55 4.4 -22.75 Q5.6 -22.1 7.15 -23.4 L7.55 -22.0 8.5 -20.4 8.7 -17.45 9.5 -13.85 8.5 -13.15 8.35 -13.3 8.0 -13.3 7.95 -13.05 6.25 -12.4 3.95 -12.5 4.4 -14.9 Q6.8 -15.0 7.75 -17.45 L7.65 -19.15 7.3 -19.5 7.05 -19.45 7.1 -18.5 6.1 -17.7 4.75 -17.4 M9.95 -8.25 L10.35 -3.25 Q13.4 4.85 11.95 8.1 9.8 11.2 3.35 11.1 L-0.2 9.85 -3.7 7.4 -4.65 2.8 -2.9 -0.25 2.7 -8.15 3.35 -9.65 3.4 -9.65 5.0 -9.35 5.1 -9.3 5.35 -9.3 5.5 -9.25 5.75 -9.25 5.9 -9.2 6.45 -9.2 7.85 -9.9 8.2 -9.6 8.7 -8.9 9.95 -8.25" fill="url(#gradient38)" fill-rule="evenodd" stroke="none"/>
    <path d="M1.2 -17.85 L1.9 -17.5 2.65 -17.45 4.0 -17.25 4.75 -17.4 6.1 -17.7 7.1 -18.5 7.05 -19.45 7.3 -19.5 7.65 -19.15 7.75 -17.45 Q6.8 -15.0 4.4 -14.9 L3.95 -14.8 1.6 -15.05 0.9 -15.6 -0.15 -16.3 -0.45 -17.45 Q-1.4 -19.6 1.2 -17.85" fill="url(#gradient39)" fill-rule="evenodd" stroke="none"/>
    <path d="M0.2 -11.8 Q-1.1 -12.45 -0.9 -15.25 L-0.45 -15.3 Q-0.95 -14.55 0.55 -13.85 L1.25 -13.25 3.95 -12.5 6.25 -12.4 7.95 -13.05 8.0 -13.3 8.35 -13.3 8.5 -13.15 Q6.95 -11.15 7.85 -9.9 L6.45 -9.2 5.9 -9.2 5.75 -9.25 5.5 -9.25 5.35 -9.3 5.1 -9.3 5.0 -9.35 3.4 -9.65 3.35 -9.7 1.2 -10.75 0.2 -11.8" fill="url(#gradient40)" fill-rule="evenodd" stroke="none"/>
    <path d="M10.35 -14.0 L10.4 -13.3 10.8 -12.5 Q9.45 -11.95 8.6 -9.65 L8.2 -9.6 7.85 -9.9 Q6.95 -11.15 8.5 -13.15 L9.5 -13.85 10.35 -14.0" fill="url(#gradient41)" fill-rule="evenodd" stroke="none"/>
    <path d="M13.15 -12.55 Q14.75 -8.55 9.95 -8.25 L8.7 -8.9 8.2 -9.6 8.6 -9.65 Q9.45 -11.95 10.8 -12.5 L13.15 -12.55" fill="url(#gradient42)" fill-rule="evenodd" stroke="none"/>
    <path d="M3.35 -9.7 L3.4 -9.65 3.35 -9.65 3.35 -9.7" fill="url(#gradient43)" fill-rule="evenodd" stroke="none"/>
    <path d="M10.35 -3.25 Q15.85 5.75 11.0 10.95 8.0 13.8 1.1 12.4 L-6.05 8.55 -6.35 6.55 -4.65 2.8 -3.7 7.4 -0.2 9.85 3.35 11.1 Q9.8 11.2 11.95 8.1 13.4 4.85 10.35 -3.25" fill="url(#gradient44)" fill-rule="evenodd" stroke="none"/>
    <path d="M-9.9 -18.35 L-9.85 -17.95 -9.5 -18.05 -8.45 -19.05 -8.2 -19.05 -8.15 -18.8 -8.0 -17.45 -10.0 -15.75 -11.25 -14.6 Q-12.15 -15.45 -9.9 -18.35" fill="url(#gradient45)" fill-rule="evenodd" stroke="none"/>
    <path d="M-10.0 -15.75 L-10.05 -15.3 -11.25 -14.6 -10.0 -15.75" fill="url(#gradient46)" fill-rule="evenodd" stroke="none"/>
    <path d="M-23.65 -5.15 L-23.65 -5.0 -23.7 -5.0 -23.65 -5.15" fill="url(#gradient47)" fill-rule="evenodd" stroke="none"/>
    <path d="M-23.65 -5.0 L-23.6 -4.85 -23.7 -4.85 -23.7 -5.0 -23.65 -5.0" fill="url(#gradient48)" fill-rule="evenodd" stroke="none"/>
    <path d="M-23.6 -4.85 L-23.55 -4.7 Q-23.3 -3.65 -21.45 -4.7 L-21.25 -5.2 -20.2 2.2 Q-20.5 3.1 -21.25 3.15 -22.65 3.15 -22.65 2.45 L-23.7 -4.85 -23.6 -4.85" fill="url(#gradient49)" fill-rule="evenodd" stroke="none"/>
  </g>
  <defs>
    <radialGradient cx="0" cy="0" gradientTransform="matrix(0.0183, 0.0, 0.0, 0.0183, -23.7, -50.7)" gradientUnits="userSpaceOnUse" id="gradient0" r="819.2" spreadMethod="pad">
      <stop offset="0.0" stop-color="#774423"/>
      <stop offset="1.0" stop-color="#412513"/>
    </radialGradient>
    <radialGradient cx="0" cy="0" gradientTransform="matrix(0.0025, 0.0, 0.0, 0.0025, -27.95, -49.15)" gradientUnits="userSpaceOnUse" id="gradient1" r="819.2" spreadMethod="pad">
      <stop offset="0.0" stop-color="#573119"/>
      <stop offset="1.0" stop-color="#573119"/>
    </radialGradient>
    <radialGradient cx="0" cy="0" gradientTransform="matrix(0.0549, 0.0, 0.0, 0.0549, -28.35, -48.35)" gradientUnits="userSpaceOnUse" id="gradient2" r="819.2" spreadMethod="pad">
      <stop offset="0.0" stop-color="#5a331a"/>
      <stop offset="1.0" stop-color="#472815"/>
    </radialGradient>
    <radialGradient cx="0" cy="0" gradientTransform="matrix(0.0061, 0.0, 0.0, 0.0061, -28.35, -48.3)" gradientUnits="userSpaceOnUse" id="gradient3" r="819.2" spreadMethod="pad">
      <stop offset="0.0" stop-color="#c4ba97"/>
      <stop offset="1.0" stop-color="#aea587"/>
    </radialGradient>
    <radialGradient cx="0" cy="0" gradientTransform="matrix(0.0061, 0.0, 0.0, 0.0061, -30.1, -49.0)" gradientUnits="userSpaceOnUse" id="gradient4" r="819.2" spreadMethod="pad">
      <stop offset="0.0" stop-color="#90886f"/>
      <stop offset="1.0" stop-color="#434034"/>
    </radialGradient>
    <radialGradient cx="0" cy="0" gradientTransform="matrix(0.0125, 0.0, 0.0, 0.0125, -8.35, -44.55)" gradientUnits="userSpaceOnUse" id="gradient5" r="819.2" spreadMethod="pad">
      <stop offset="0.0" stop-color="#373428"/>
      <stop offset="1.0" stop-color="#1e1c15"/>
    </radialGradient>
    <radialGradient cx="0" cy="0" gradientTransform="matrix(0.017, 0.0, 0.0, 0.017, -6.5, -41.0)" gradientUnits="userSpaceOnUse" id="gradient6" r="819.2" spreadMethod="pad">
      <stop offset="0.0" stop-color="#68614b"/>
      <stop offset="1.0" stop-color="#3b372b"/>
    </radialGradient>
    <radialGradient cx="0" cy="0" gradientTransform="matrix(0.0166, 0.0, 0.0, 0.0166, 4.15, -38.95)" gradientUnits="userSpaceOnUse" id="gradient7" r="819.2" spreadMethod="pad">
      <stop offset="0.0" stop-color="#67604b"/>
      <stop offset="1.0" stop-color="#413d2f"/>
    </radialGradient>
    <radialGradient cx="0" cy="0" gradientTransform="matrix(0.022, 0.0, 0.0, 0.022, 2.95, -34.25)" gradientUnits="userSpaceOnUse" id="gradient8" r="819.2" spreadMethod="pad">
      <stop offset="0.0" stop-color="#655e49"/>
      <stop offset="1.0" stop-color="#363327"/>
    </radialGradient>
    <radialGradient cx="0" cy="0" gradientTransform="matrix(0.0068, 0.0, 0.0, 0.0068, -8.9, -43.3)" gradientUnits="userSpaceOnUse" id="gradient9" r="819.2" spreadMethod="pad">
      <stop offset="0.0" stop-color="#ffd17a"/>
      <stop offset="1.0" stop-color="#966a3d"/>
    </radialGradient>
    <radialGradient cx="0" cy="0" gradientTransform="matrix(0.0112, 0.0, 0.0, 0.0112, -11.2, -40.1)" gradientUnits="userSpaceOnUse" id="gradient10" r="819.2" spreadMethod="pad">
      <stop offset="0.0" stop-color="#ffe887"/>
      <stop offset="1.0" stop-color="#bf864e"/>
    </radialGradient>
    <radialGradient cx="0" cy="0" gradientTransform="matrix(0.0059, 0.0, 0.0, 0.0059, -12.85, -40.85)" gradientUnits="userSpaceOnUse" id="gradient11" r="819.2" spreadMethod="pad">
      <stop offset="0.0" stop-color="#df9d5b"/>
      <stop offset="1.0" stop-color="#a67544"/>
    </radialGradient>
    <radialGradient cx="0" cy="0" gradientTransform="matrix(0.0204, 0.0, 0.0, 0.0204, 5.3, -36.75)" gradientUnits="userSpaceOnUse" id="gradient12" r="819.2" spreadMethod="pad">
      <stop offset="0.0" stop-color="#66604a"/>
      <stop offset="1.0" stop-color="#444032"/>
    </radialGradient>
    <radialGradient cx="0" cy="0" gradientTransform="matrix(0.0094, 0.0, 0.0, 0.0094, -17.65, -33.85)" gradientUnits="userSpaceOnUse" id="gradient13" r="819.2" spreadMethod="pad">
      <stop offset="0.0" stop-color="#6d664f"/>
      <stop offset="1.0" stop-color="#433f30"/>
    </radialGradient>
    <radialGradient cx="0" cy="0" gradientTransform="matrix(0.0043, 0.0, 0.0, 0.0043, -25.75, -30.4)" gradientUnits="userSpaceOnUse" id="gradient14" r="819.2" spreadMethod="pad">
      <stop offset="0.0" stop-color="#6d664f"/>
      <stop offset="1.0" stop-color="#312e23"/>
    </radialGradient>
    <radialGradient cx="0" cy="0" gradientTransform="matrix(0.0034, 0.0, 0.0, 0.0034, -25.2, -30.25)" gradientUnits="userSpaceOnUse" id="gradient15" r="819.2" spreadMethod="pad">
      <stop offset="0.0" stop-color="#ffeb89"/>
      <stop offset="1.0" stop-color="#d29456"/>
    </radialGradient>
    <radialGradient cx="0" cy="0" gradientTransform="matrix(0.0021, 0.0, 0.0, 0.0021, -18.2, -30.5)" gradientUnits="userSpaceOnUse" id="gradient16" r="819.2" spreadMethod="pad">
      <stop offset="0.0" stop-color="#14130f"/>
      <stop offset="1.0" stop-color="#0c0c09"/>
    </radialGradient>
    <radialGradient cx="0" cy="0" gradientTransform="matrix(0.009, 0.0, 0.0, 0.009, -9.65, -38.8)" gradientUnits="userSpaceOnUse" id="gradient17" r="819.2" spreadMethod="pad">
      <stop offset="0.0" stop-color="#ffd57c"/>
      <stop offset="1.0" stop-color="#67492a"/>
    </radialGradient>
    <radialGradient cx="0" cy="0" gradientTransform="matrix(0.0068, 0.0, 0.0, 0.0068, -7.85, -38.45)" gradientUnits="userSpaceOnUse" id="gradient18" r="819.2" spreadMethod="pad">
      <stop offset="0.0" stop-color="#444031"/>
      <stop offset="1.0" stop-color="#393529"/>
    </radialGradient>
    <radialGradient cx="0" cy="0" gradientTransform="matrix(0.0467, 0.0, 0.0, 0.0467, -0.1, -32.65)" gradientUnits="userSpaceOnUse" id="gradient19" r="819.2" spreadMethod="pad">
      <stop offset="0.0" stop-color="#b52828"/>
      <stop offset="1.0" stop-color="#8f2020"/>
    </radialGradient>
    <radialGradient cx="0" cy="0" gradientTransform="matrix(4.0E-4, 0.0, 0.0, 4.0E-4, -13.65, -33.5)" gradientUnits="userSpaceOnUse" id="gradient20" r="819.2" spreadMethod="pad">
      <stop offset="0.0" stop-color="#312e23"/>
      <stop offset="1.0" stop-color="#2c2920"/>
    </radialGradient>
    <radialGradient cx="0" cy="0" gradientTransform="matrix(0.0056, 0.0, 0.0, 0.0056, -3.3, -45.9)" gradientUnits="userSpaceOnUse" id="gradient21" r="819.2" spreadMethod="pad">
      <stop offset="0.0" stop-color="#fdf0c3"/>
      <stop offset="1.0" stop-color="#d9cea7"/>
    </radialGradient>
    <radialGradient cx="0" cy="0" gradientTransform="matrix(0.0055, 0.0, 0.0, 0.0055, -1.7, -41.9)" gradientUnits="userSpaceOnUse" id="gradient22" r="819.2" spreadMethod="pad">
      <stop offset="0.0" stop-color="#dc9b5a"/>
      <stop offset="1.0" stop-color="#aa7746"/>
    </radialGradient>
    <radialGradient cx="0" cy="0" gradientTransform="matrix(0.0048, 0.0, 0.0, 0.0048, -3.15, -43.8)" gradientUnits="userSpaceOnUse" id="gradient23" r="819.2" spreadMethod="pad">
      <stop offset="0.0" stop-color="#171511"/>
      <stop offset="1.0" stop-color="#0c0c09"/>
    </radialGradient>
    <radialGradient cx="0" cy="0" gradientTransform="matrix(0.0081, 0.0, 0.0, 0.0081, -1.75, -30.15)" gradientUnits="userSpaceOnUse" id="gradient24" r="819.2" spreadMethod="pad">
      <stop offset="0.0" stop-color="#fef1c4"/>
      <stop offset="1.0" stop-color="#aba284"/>
    </radialGradient>
    <radialGradient cx="0" cy="0" gradientTransform="matrix(0.0089, 0.0, 0.0, 0.0089, -7.35, -29.6)" gradientUnits="userSpaceOnUse" id="gradient25" r="819.2" spreadMethod="pad">
      <stop offset="0.0" stop-color="#ffffd1"/>
      <stop offset="1.0" stop-color="#a1997c"/>
    </radialGradient>
    <radialGradient cx="0" cy="0" gradientTransform="matrix(0.035, 0.0, 0.0, 0.035, 4.15, -18.7)" gradientUnits="userSpaceOnUse" id="gradient26" r="819.2" spreadMethod="pad">
      <stop offset="0.0" stop-color="#524d3b"/>
      <stop offset="1.0" stop-color="#454032"/>
    </radialGradient>
    <radialGradient cx="0" cy="0" gradientTransform="matrix(0.0093, 0.0, 0.0, 0.0093, 7.7, -33.8)" gradientUnits="userSpaceOnUse" id="gradient27" r="819.2" spreadMethod="pad">
      <stop offset="0.0" stop-color="#ffe082"/>
      <stop offset="1.0" stop-color="#b5804a"/>
    </radialGradient>
    <radialGradient cx="0" cy="0" gradientTransform="matrix(0.0112, 0.0, 0.0, 0.0112, 4.4, -33.95)" gradientUnits="userSpaceOnUse" id="gradient28" r="819.2" spreadMethod="pad">
      <stop offset="0.0" stop-color="#ffc774"/>
      <stop offset="1.0" stop-color="#91663b"/>
    </radialGradient>
    <radialGradient cx="0" cy="0" gradientTransform="matrix(0.0328, 0.0, 0.0, 0.0328, -8.75, -30.8)" gradientUnits="userSpaceOnUse" id="gradient29" r="819.2" spreadMethod="pad">
      <stop offset="0.0" stop-color="#871e1e"/>
      <stop offset="1.0" stop-color="#3c0d0d"/>
    </radialGradient>
    <radialGradient cx="0" cy="0" gradientTransform="matrix(0.0089, 0.0, 0.0, 0.0089, 2.85, -24.5)" gradientUnits="userSpaceOnUse" id="gradient30" r="819.2" spreadMethod="pad">
      <stop offset="0.0" stop-color="#534e3c"/>
      <stop offset="1.0" stop-color="#484435"/>
    </radialGradient>
    <radialGradient cx="0" cy="0" gradientTransform="matrix(0.0104, 0.0, 0.0, 0.0104, 8.7, -27.6)" gradientUnits="userSpaceOnUse" id="gradient31" r="819.2" spreadMethod="pad">
      <stop offset="0.0" stop-color="#ffd97e"/>
      <stop offset="1.0" stop-color="#8b6238"/>
    </radialGradient>
    <radialGradient cx="0" cy="0" gradientTransform="matrix(0.0348, 0.0, 0.0, 0.0348, 14.5, -29.05)" gradientUnits="userSpaceOnUse" id="gradient32" r="819.2" spreadMethod="pad">
      <stop offset="0.0" stop-color="#0c0c09"/>
      <stop offset="1.0" stop-color="#0c0c09"/>
    </radialGradient>
    <radialGradient cx="0" cy="0" gradientTransform="matrix(0.0087, 0.0, 0.0, 0.0087, 11.45, -28.2)" gradientUnits="userSpaceOnUse" id="gradient33" r="819.2" spreadMethod="pad">
      <stop offset="0.0" stop-color="#ffde81"/>
      <stop offset="1.0" stop-color="#94683c"/>
    </radialGradient>
    <radialGradient cx="0" cy="0" gradientTransform="matrix(0.0019, 0.0, 0.0, 0.0019, 13.3, -22.2)" gradientUnits="userSpaceOnUse" id="gradient34" r="819.2" spreadMethod="pad">
      <stop offset="0.0" stop-color="#423e30"/>
      <stop offset="1.0" stop-color="#373428"/>
    </radialGradient>
    <radialGradient cx="0" cy="0" gradientTransform="matrix(0.0024, 0.0, 0.0, 0.0024, 12.6, -20.85)" gradientUnits="userSpaceOnUse" id="gradient35" r="819.2" spreadMethod="pad">
      <stop offset="0.0" stop-color="#4b4637"/>
      <stop offset="1.0" stop-color="#3e3a2d"/>
    </radialGradient>
    <radialGradient cx="0" cy="0" gradientTransform="matrix(0.0097, 0.0, 0.0, 0.0097, 12.6, -19.7)" gradientUnits="userSpaceOnUse" id="gradient36" r="819.2" spreadMethod="pad">
      <stop offset="0.0" stop-color="#645d48"/>
      <stop offset="1.0" stop-color="#333025"/>
    </radialGradient>
    <radialGradient cx="0" cy="0" gradientTransform="matrix(0.003, 0.0, 0.0, 0.003, 15.3, -18.1)" gradientUnits="userSpaceOnUse" id="gradient37" r="819.2" spreadMethod="pad">
      <stop offset="0.0" stop-color="#3d392c"/>
      <stop offset="1.0" stop-color="#2f2c22"/>
    </radialGradient>
    <radialGradient cx="0" cy="0" gradientTransform="matrix(0.0337, 0.0, 0.0, 0.0337, 5.85, -16.5)" gradientUnits="userSpaceOnUse" id="gradient38" r="819.2" spreadMethod="pad">
      <stop offset="0.0" stop-color="#c32b2b"/>
      <stop offset="1.0" stop-color="#a42424"/>
    </radialGradient>
    <radialGradient cx="0" cy="0" gradientTransform="matrix(0.0073, 0.0, 0.0, 0.0073, 1.8, -17.65)" gradientUnits="userSpaceOnUse" id="gradient39" r="819.2" spreadMethod="pad">
      <stop offset="0.0" stop-color="#fffdcd"/>
      <stop offset="1.0" stop-color="#aaa183"/>
    </radialGradient>
    <radialGradient cx="0" cy="0" gradientTransform="matrix(0.0095, 0.0, 0.0, 0.0095, 1.15, -13.4)" gradientUnits="userSpaceOnUse" id="gradient40" r="819.2" spreadMethod="pad">
      <stop offset="0.0" stop-color="#ffffd0"/>
      <stop offset="1.0" stop-color="#a69d80"/>
    </radialGradient>
    <radialGradient cx="0" cy="0" gradientTransform="matrix(0.0044, 0.0, 0.0, 0.0044, 9.85, -12.9)" gradientUnits="userSpaceOnUse" id="gradient41" r="819.2" spreadMethod="pad">
      <stop offset="0.0" stop-color="#fff08c"/>
      <stop offset="1.0" stop-color="#b6804a"/>
    </radialGradient>
    <radialGradient cx="0" cy="0" gradientTransform="matrix(0.0042, 0.0, 0.0, 0.0042, 10.75, -11.7)" gradientUnits="userSpaceOnUse" id="gradient42" r="819.2" spreadMethod="pad">
      <stop offset="0.0" stop-color="#6f6851"/>
      <stop offset="1.0" stop-color="#2d2a21"/>
    </radialGradient>
    <radialGradient cx="0" cy="0" gradientTransform="matrix(0.0063, 0.0, 0.0, 0.0063, -0.55, -12.65)" gradientUnits="userSpaceOnUse" id="gradient43" r="819.2" spreadMethod="pad">
      <stop offset="0.0" stop-color="#25231d"/>
      <stop offset="1.0" stop-color="#1f1e18"/>
    </radialGradient>
    <radialGradient cx="0" cy="0" gradientTransform="matrix(0.0227, 0.0, 0.0, 0.0227, -3.85, 8.3)" gradientUnits="userSpaceOnUse" id="gradient44" r="819.2" spreadMethod="pad">
      <stop offset="0.0" stop-color="#605945"/>
      <stop offset="1.0" stop-color="#3d3a2d"/>
    </radialGradient>
    <radialGradient cx="0" cy="0" gradientTransform="matrix(0.0124, 0.0, 0.0, 0.0124, -5.2, -22.5)" gradientUnits="userSpaceOnUse" id="gradient45" r="819.2" spreadMethod="pad">
      <stop offset="0.0" stop-color="#b3aa8a"/>
      <stop offset="1.0" stop-color="#756f5a"/>
    </radialGradient>
    <radialGradient cx="0" cy="0" gradientTransform="matrix(0.0027, 0.0, 0.0, 0.0027, -9.9, -16.05)" gradientUnits="userSpaceOnUse" id="gradient46" r="819.2" spreadMethod="pad">
      <stop offset="0.0" stop-color="#1f1e18"/>
      <stop offset="1.0" stop-color="#1f1e18"/>
    </radialGradient>
    <radialGradient cx="0" cy="0" gradientTransform="matrix(0.055, 0.0, 0.0, 0.055, -30.0, -49.0)" gradientUnits="userSpaceOnUse" id="gradient47" r="819.2" spreadMethod="pad">
      <stop offset="0.0" stop-color="#422513"/>
      <stop offset="1.0" stop-color="#1a0f07"/>
    </radialGradient>
    <radialGradient cx="0" cy="0" gradientTransform="matrix(0.009, 0.0, 0.0, 0.009, -23.75, -4.95)" gradientUnits="userSpaceOnUse" id="gradient48" r="819.2" spreadMethod="pad">
      <stop offset="0.0" stop-color="#726c58"/>
      <stop offset="1.0" stop-color="#6d6754"/>
    </radialGradient>
    <radialGradient cx="0" cy="0" gradientTransform="matrix(0.009, 0.0, 0.0, 0.009, -22.3, -4.25)" gradientUnits="userSpaceOnUse" id="gradient49" r="819.2" spreadMethod="pad">
      <stop offset="0.0" stop-color="#a0977b"/>
      <stop offset="1.0" stop-color="#8e876e"/>
    </radialGradient>
  </defs>
</svg>
