<?xml version="1.0" encoding="UTF-8" standalone="no"?>
<svg xmlns:ffdec="https://www.free-decompiler.com/flash" xmlns:xlink="http://www.w3.org/1999/xlink" ffdec:objectType="shape" height="90.9px" width="28.55px" xmlns="http://www.w3.org/2000/svg">
  <g transform="matrix(1.0, 0.0, 0.0, 1.0, 14.4, 79.6)">
    <path d="M-0.85 -64.55 L0.35 -64.05 1.15 -64.1 Q2.0 -64.3 1.95 -68.8 L1.4 -72.6 0.35 -76.25 -0.35 -77.8 -0.7 -78.4 -1.15 -78.8 -1.6 -78.85 -2.4 -77.55 -2.3 -78.75 -1.95 -79.6 Q2.45 -79.7 3.95 -68.05 4.8 -60.3 -0.85 -62.35 -3.05 -63.6 -0.85 -64.55" fill="url(#gradient0)" fill-rule="evenodd" stroke="none"/>
    <path d="M4.65 -48.6 L9.2 -47.65 12.1 -45.25 Q14.25 -41.45 13.85 -41.25 15.2 -33.55 10.4 -9.5 L8.2 -4.2 Q4.0 0.8 -1.9 -4.2 -3.4 -4.7 -5.15 -16.95 L-5.85 -20.8 -6.15 -22.6 -6.6 -24.45 -7.1 -26.05 -7.65 -28.1 -10.25 -33.6 -10.65 -35.0 Q-12.2 -40.7 -8.7 -41.8 L-8.65 -41.8 -8.6 -40.7 -8.35 -40.35 -9.35 -39.6 -9.55 -38.8 -8.2 -38.0 -7.0 -37.65 -6.95 -37.15 Q-3.55 -35.05 -3.05 -35.1 L-2.8 -34.75 Q5.0 -37.3 6.3 -36.45 6.65 -38.9 9.1 -42.5 9.55 -45.1 4.9 -47.8 L4.65 -48.6" fill="url(#gradient1)" fill-rule="evenodd" stroke="none"/>
    <path d="M-0.9 -54.05 Q3.9 -52.25 4.65 -48.6 L4.9 -47.8 5.05 -47.45 5.4 -45.6 Q5.45 -43.5 5.05 -43.05 L4.95 -42.65 4.7 -42.5 4.7 -42.45 4.3 -42.05 2.5 -40.75 Q2.15 -40.4 0.85 -40.3 L-0.8 -40.4 Q-4.2 -41.7 -7.8 -42.5 L-8.3 -42.7 -8.35 -42.75 Q-10.15 -54.1 -3.4 -54.8 L-0.9 -54.05" fill="url(#gradient2)" fill-rule="evenodd" stroke="none"/>
    <path d="M4.9 -47.8 Q9.55 -45.1 9.1 -42.5 6.65 -38.9 6.3 -36.45 5.0 -37.3 -2.8 -34.75 L-3.05 -35.1 Q-3.55 -35.05 -6.95 -37.15 L-7.0 -37.65 -8.2 -38.0 -9.55 -38.8 -9.35 -39.6 -8.35 -40.35 -8.15 -39.75 -7.9 -39.7 -4.2 -39.3 -1.85 -39.25 0.85 -40.3 Q2.15 -40.4 2.5 -40.75 L4.3 -42.05 4.7 -42.45 4.7 -42.5 4.95 -42.65 5.05 -43.05 6.65 -44.5 Q7.05 -45.45 5.05 -47.45 L4.9 -47.8" fill="url(#gradient3)" fill-rule="evenodd" stroke="none"/>
    <path d="M-8.6 -41.95 L-8.35 -42.7 -8.3 -42.7 -7.8 -42.5 Q-4.2 -41.7 -0.8 -40.4 L0.85 -40.3 -1.85 -39.25 -4.2 -39.3 -7.9 -39.7 -8.15 -39.75 -8.35 -40.35 -8.6 -40.7 -8.65 -41.8 -8.6 -41.95 M5.05 -47.45 Q7.05 -45.45 6.65 -44.5 L5.05 -43.05 Q5.45 -43.5 5.4 -45.6 L5.05 -47.45" fill="url(#gradient4)" fill-rule="evenodd" stroke="none"/>
    <path d="M10.4 -9.5 L11.3 -7.4 11.4 -5.05 11.3 -4.2 Q10.1 9.25 -0.6 8.6 L-5.5 9.25 -9.55 9.15 -11.15 8.6 Q-14.2 6.85 -14.0 2.0 L-10.85 -8.35 Q-6.85 -8.65 -8.0 -12.6 L-6.9 -15.0 -6.45 -18.25 -6.75 -18.9 -6.1 -19.75 -5.85 -20.8 -5.15 -16.95 Q-3.4 -4.7 -1.9 -4.2 4.0 0.8 8.2 -4.2 L10.4 -9.5" fill="url(#gradient5)" fill-rule="evenodd" stroke="none"/>
    <path d="M11.3 -7.4 Q13.6 4.75 6.2 8.7 -1.2 11.75 -9.3 11.2 -15.8 8.7 -14.0 2.0 -14.2 6.85 -11.15 8.6 L-9.55 9.15 -5.5 9.25 -0.6 8.6 Q10.1 9.25 11.3 -4.2 L11.4 -5.05 11.3 -7.4" fill="url(#gradient6)" fill-rule="evenodd" stroke="none"/>
    <path d="M-3.35 -67.2 L-3.3 -67.25 -2.9 -67.4 -2.8 -67.4 -2.65 -67.5 -1.85 -67.5 -1.65 -67.4 -1.6 -67.4 -1.15 -67.2 -1.05 -67.15 -1.0 -66.65 -1.2 -66.3 -1.6 -66.1 -1.65 -66.1 -1.85 -66.0 -2.7 -66.0 -3.05 -66.15 -3.6 -66.5 -3.6 -66.7 -3.35 -67.2" fill="url(#gradient7)" fill-rule="evenodd" stroke="none"/>
    <path d="M-0.85 -64.55 Q-3.05 -63.6 -0.85 -62.35 L-0.9 -61.6 -3.5 -61.55 -3.7 -66.7 -3.6 -66.7 -3.6 -66.5 -3.05 -66.15 -2.7 -66.0 -1.85 -66.0 -1.65 -66.1 -1.6 -66.1 -1.2 -66.3 -1.0 -66.65 -0.85 -66.7 -0.85 -64.55" fill="url(#gradient8)" fill-rule="evenodd" stroke="none"/>
    <path d="M-3.7 -66.7 L-3.6 -67.05 -3.35 -67.2 -3.6 -66.7 -3.7 -66.7 M-1.05 -67.15 L-0.85 -66.7 -1.0 -66.65 -1.05 -67.15" fill="url(#gradient9)" fill-rule="evenodd" stroke="none"/>
    <path d="M-0.9 -61.6 L-0.9 -54.05 -3.4 -54.8 -3.5 -61.55 -0.9 -61.6" fill="url(#gradient10)" fill-rule="evenodd" stroke="none"/>
    <path d="M-8.35 -42.7 L-8.35 -42.75 -8.3 -42.7 -8.35 -42.7" fill="url(#gradient11)" fill-rule="evenodd" stroke="none"/>
    <path d="M-8.7 -41.8 L-8.6 -41.95 -8.65 -41.8 -8.7 -41.8" fill="url(#gradient12)" fill-rule="evenodd" stroke="none"/>
    <path d="M-11.9 -28.5 Q-13.05 -31.7 -10.65 -35.0 L-10.25 -33.6 -7.65 -28.1 -7.1 -26.05 -10.45 -26.75 -11.35 -27.4 -11.9 -28.5" fill="url(#gradient13)" fill-rule="evenodd" stroke="none"/>
    <path d="M-6.6 -22.95 L-6.15 -22.6 -5.85 -20.8 -6.1 -19.75 -6.75 -18.9 -7.25 -18.65 -7.8 -18.7 -8.3 -19.35 -8.3 -19.7 Q-7.3 -20.6 -7.0 -21.4 L-6.6 -22.95" fill="url(#gradient14)" fill-rule="evenodd" stroke="none"/>
    <path d="M-6.6 -22.95 L-6.6 -24.45 -6.15 -22.6 -6.6 -22.95" fill="url(#gradient15)" fill-rule="evenodd" stroke="none"/>
    <path d="M-11.35 -27.4 L-10.45 -26.75 -7.1 -26.05 -6.6 -24.45 -6.6 -22.95 -7.0 -21.4 Q-7.3 -20.6 -8.3 -19.7 -10.4 -18.65 -11.85 -21.15 -13.4 -25.05 -11.35 -27.4" fill="url(#gradient16)" fill-rule="evenodd" stroke="none"/>
    <path d="M-11.1 -19.3 Q-14.2 -23.35 -11.9 -28.5 L-11.35 -27.4 Q-13.4 -25.05 -11.85 -21.15 -10.4 -18.65 -8.3 -19.7 L-8.3 -19.35 -9.6 -19.25 -10.05 -18.95 -10.5 -19.25 -10.65 -19.05 -10.85 -19.1 -11.1 -19.3" fill="url(#gradient17)" fill-rule="evenodd" stroke="none"/>
    <path d="M-11.15 -18.85 L-11.1 -19.3 -10.85 -19.1 -11.15 -18.85" fill="url(#gradient18)" fill-rule="evenodd" stroke="none"/>
    <path d="M-12.1 -13.85 Q-13.05 -17.25 -11.15 -18.85 L-10.85 -19.1 -10.65 -19.05 -10.5 -19.25 -10.05 -18.95 Q-8.9 -16.75 -7.25 -18.65 L-6.75 -18.9 -6.45 -18.25 -6.9 -15.0 -8.0 -12.6 Q-11.3 -8.25 -11.9 -13.6 L-12.1 -13.85" fill="url(#gradient19)" fill-rule="evenodd" stroke="none"/>
    <path d="M-12.35 -13.45 L-12.1 -13.85 -11.9 -13.6 -12.35 -13.45" fill="url(#gradient20)" fill-rule="evenodd" stroke="none"/>
    <path d="M-10.85 -8.35 Q-15.3 -10.45 -12.35 -13.45 L-11.9 -13.6 Q-11.3 -8.25 -8.0 -12.6 -6.85 -8.65 -10.85 -8.35" fill="url(#gradient21)" fill-rule="evenodd" stroke="none"/>
    <path d="M-8.3 -19.35 L-7.8 -18.7 -7.25 -18.65 Q-8.9 -16.75 -10.05 -18.95 L-9.6 -19.25 -8.3 -19.35" fill="url(#gradient22)" fill-rule="evenodd" stroke="none"/>
  </g>
  <defs>
    <radialGradient cx="0" cy="0" gradientTransform="matrix(0.0181, 0.0, 0.0, 0.0181, 1.2, -76.7)" gradientUnits="userSpaceOnUse" id="gradient0" r="819.2" spreadMethod="pad">
      <stop offset="0.0" stop-color="#784423"/>
      <stop offset="1.0" stop-color="#382010"/>
    </radialGradient>
    <radialGradient cx="0" cy="0" gradientTransform="matrix(0.041, 0.0, 0.0, 0.041, -6.65, -33.25)" gradientUnits="userSpaceOnUse" id="gradient1" r="819.2" spreadMethod="pad">
      <stop offset="0.0" stop-color="#655f4a"/>
      <stop offset="1.0" stop-color="#333025"/>
    </radialGradient>
    <radialGradient cx="0" cy="0" gradientTransform="matrix(0.0104, 0.0, 0.0, 0.0104, -1.5, -47.65)" gradientUnits="userSpaceOnUse" id="gradient2" r="819.2" spreadMethod="pad">
      <stop offset="0.0" stop-color="#635c48"/>
      <stop offset="1.0" stop-color="#3f3b2e"/>
    </radialGradient>
    <radialGradient cx="0" cy="0" gradientTransform="matrix(0.0155, 0.0, 0.0, 0.0155, -1.85, -37.85)" gradientUnits="userSpaceOnUse" id="gradient3" r="819.2" spreadMethod="pad">
      <stop offset="0.0" stop-color="#655f4a"/>
      <stop offset="1.0" stop-color="#403d2f"/>
    </radialGradient>
    <radialGradient cx="0" cy="0" gradientTransform="matrix(0.0126, 0.0, 0.0, 0.0126, -2.4, -40.55)" gradientUnits="userSpaceOnUse" id="gradient4" r="819.2" spreadMethod="pad">
      <stop offset="0.0" stop-color="#665f4a"/>
      <stop offset="1.0" stop-color="#433e30"/>
    </radialGradient>
    <radialGradient cx="0" cy="0" gradientTransform="matrix(0.0339, 0.0, 0.0, 0.0339, 3.8, 3.5)" gradientUnits="userSpaceOnUse" id="gradient5" r="819.2" spreadMethod="pad">
      <stop offset="0.0" stop-color="#fd3838"/>
      <stop offset="1.0" stop-color="#a12323"/>
    </radialGradient>
    <radialGradient cx="0" cy="0" gradientTransform="matrix(0.0269, 0.0, 0.0, 0.0269, -1.7, 9.7)" gradientUnits="userSpaceOnUse" id="gradient6" r="819.2" spreadMethod="pad">
      <stop offset="0.0" stop-color="#655f4a"/>
      <stop offset="1.0" stop-color="#373428"/>
    </radialGradient>
    <radialGradient cx="0" cy="0" gradientTransform="matrix(0.0022, 0.0, 0.0, 0.0022, -2.7, -66.15)" gradientUnits="userSpaceOnUse" id="gradient7" r="819.2" spreadMethod="pad">
      <stop offset="0.0" stop-color="#512e17"/>
      <stop offset="1.0" stop-color="#502e17"/>
    </radialGradient>
    <radialGradient cx="0" cy="0" gradientTransform="matrix(0.0059, 0.0, 0.0, 0.0059, -2.35, -66.05)" gradientUnits="userSpaceOnUse" id="gradient8" r="819.2" spreadMethod="pad">
      <stop offset="0.0" stop-color="#e2d6ae"/>
      <stop offset="1.0" stop-color="#bbb190"/>
    </radialGradient>
    <radialGradient cx="0" cy="0" gradientTransform="matrix(0.0072, 0.0, 0.0, 0.0072, -1.35, -67.4)" gradientUnits="userSpaceOnUse" id="gradient9" r="819.2" spreadMethod="pad">
      <stop offset="0.0" stop-color="#201f19"/>
      <stop offset="1.0" stop-color="#1f1e18"/>
    </radialGradient>
    <radialGradient cx="0" cy="0" gradientTransform="matrix(0.0244, 0.0, 0.0, 0.0244, -2.35, -66.1)" gradientUnits="userSpaceOnUse" id="gradient10" r="819.2" spreadMethod="pad">
      <stop offset="0.0" stop-color="#683b1e"/>
      <stop offset="1.0" stop-color="#543018"/>
    </radialGradient>
    <radialGradient cx="0" cy="0" gradientTransform="matrix(0.0147, 0.0, 0.0, 0.0147, -5.65, -54.5)" gradientUnits="userSpaceOnUse" id="gradient11" r="819.2" spreadMethod="pad">
      <stop offset="0.0" stop-color="#2a271e"/>
      <stop offset="1.0" stop-color="#0c0c09"/>
    </radialGradient>
    <radialGradient cx="0" cy="0" gradientTransform="matrix(0.0024, 0.0, 0.0, 0.0024, -8.15, -43.7)" gradientUnits="userSpaceOnUse" id="gradient12" r="819.2" spreadMethod="pad">
      <stop offset="0.0" stop-color="#3a372a"/>
      <stop offset="1.0" stop-color="#373428"/>
    </radialGradient>
    <radialGradient cx="0" cy="0" gradientTransform="matrix(0.0065, 0.0, 0.0, 0.0065, -7.95, -31.25)" gradientUnits="userSpaceOnUse" id="gradient13" r="819.2" spreadMethod="pad">
      <stop offset="0.0" stop-color="#ffcd77"/>
      <stop offset="1.0" stop-color="#b27e49"/>
    </radialGradient>
    <radialGradient cx="0" cy="0" gradientTransform="matrix(0.0055, 0.0, 0.0, 0.0055, -6.95, -23.2)" gradientUnits="userSpaceOnUse" id="gradient14" r="819.2" spreadMethod="pad">
      <stop offset="0.0" stop-color="#ffdc80"/>
      <stop offset="1.0" stop-color="#835d36"/>
    </radialGradient>
    <radialGradient cx="0" cy="0" gradientTransform="matrix(0.0039, 0.0, 0.0, 0.0039, -6.9, -25.3)" gradientUnits="userSpaceOnUse" id="gradient15" r="819.2" spreadMethod="pad">
      <stop offset="0.0" stop-color="#ffca76"/>
      <stop offset="1.0" stop-color="#e5a15e"/>
    </radialGradient>
    <radialGradient cx="0" cy="0" gradientTransform="matrix(0.0091, 0.0, 0.0, 0.0091, -8.5, -26.85)" gradientUnits="userSpaceOnUse" id="gradient16" r="819.2" spreadMethod="pad">
      <stop offset="0.0" stop-color="#ffdf82"/>
      <stop offset="1.0" stop-color="#91663c"/>
    </radialGradient>
    <radialGradient cx="0" cy="0" gradientTransform="matrix(0.0114, 0.0, 0.0, 0.0114, -11.3, -28.0)" gradientUnits="userSpaceOnUse" id="gradient17" r="819.2" spreadMethod="pad">
      <stop offset="0.0" stop-color="#e29f5d"/>
      <stop offset="1.0" stop-color="#886038"/>
    </radialGradient>
    <radialGradient cx="0" cy="0" gradientTransform="matrix(0.0027, 0.0, 0.0, 0.0027, -10.95, -18.4)" gradientUnits="userSpaceOnUse" id="gradient18" r="819.2" spreadMethod="pad">
      <stop offset="0.0" stop-color="#b2a989"/>
      <stop offset="1.0" stop-color="#999176"/>
    </radialGradient>
    <radialGradient cx="0" cy="0" gradientTransform="matrix(0.0092, 0.0, 0.0, 0.0092, -10.4, -18.15)" gradientUnits="userSpaceOnUse" id="gradient19" r="819.2" spreadMethod="pad">
      <stop offset="0.0" stop-color="#68624c"/>
      <stop offset="1.0" stop-color="#27251d"/>
    </radialGradient>
    <radialGradient cx="0" cy="0" gradientTransform="matrix(6.0E-4, 0.0, 0.0, 6.0E-4, -11.95, -13.6)" gradientUnits="userSpaceOnUse" id="gradient20" r="819.2" spreadMethod="pad">
      <stop offset="0.0" stop-color="#d49657"/>
      <stop offset="1.0" stop-color="#ae7a47"/>
    </radialGradient>
    <radialGradient cx="0" cy="0" gradientTransform="matrix(0.0037, 0.0, 0.0, 0.0037, -10.7, -11.45)" gradientUnits="userSpaceOnUse" id="gradient21" r="819.2" spreadMethod="pad">
      <stop offset="0.0" stop-color="#6d664f"/>
      <stop offset="1.0" stop-color="#302d23"/>
    </radialGradient>
    <radialGradient cx="0" cy="0" gradientTransform="matrix(0.0027, 0.0, 0.0, 0.0027, -8.45, -19.9)" gradientUnits="userSpaceOnUse" id="gradient22" r="819.2" spreadMethod="pad">
      <stop offset="0.0" stop-color="#55503e"/>
      <stop offset="1.0" stop-color="#322f24"/>
    </radialGradient>
  </defs>
</svg>
