<?xml version="1.0" encoding="UTF-8" standalone="no"?>
<svg xmlns:ffdec="https://www.free-decompiler.com/flash" xmlns:xlink="http://www.w3.org/1999/xlink" ffdec:objectType="shape" height="62.3px" width="52.85px" xmlns="http://www.w3.org/2000/svg">
  <g transform="matrix(1.0, 0.0, 0.0, 1.0, 23.9, 51.95)">
    <path d="M-1.75 -45.1 Q-2.35 -47.6 2.05 -51.25 6.0 -53.25 9.7 -49.65 L11.65 -47.8 Q12.3 -46.4 12.2 -45.35 L12.1 -43.45 11.4 -41.45 10.8 -40.35 9.45 -39.25 9.05 -39.2 9.05 -39.55 9.25 -39.9 9.1 -40.3 8.65 -40.25 9.55 -41.85 9.85 -42.65 Q12.9 -43.8 10.2 -45.95 7.75 -44.8 6.5 -41.7 5.8 -39.05 7.1 -39.45 L7.75 -38.85 8.7 -39.1 8.9 -39.0 8.1 -38.45 6.1 -37.75 4.35 -37.6 3.5 -37.75 Q0.0 -39.85 -1.5 -43.35 L-1.75 -45.1" fill="url(#gradient0)" fill-rule="evenodd" stroke="none"/>
    <path d="M-1.8 -45.1 L-1.75 -45.1 -1.8 -45.1" fill="url(#gradient1)" fill-rule="evenodd" stroke="none"/>
    <path d="M12.65 -42.45 Q13.05 -36.9 11.65 -35.0 L11.15 -33.9 11.0 -33.6 10.9 -33.55 10.15 -32.25 5.4 -31.7 3.85 -31.8 3.35 -31.7 1.15 -31.85 0.3 -32.1 -0.25 -32.35 -0.2 -32.45 Q1.5 -32.45 4.0 -33.8 L5.35 -35.05 Q10.6 -34.7 11.05 -37.75 L11.55 -40.5 11.5 -41.2 11.95 -41.6 12.3 -41.5 12.3 -42.15 12.65 -42.45 M-4.35 -42.15 L-3.95 -42.6 -2.25 -44.85 -1.8 -45.1 -1.75 -45.1 -1.5 -43.35 Q-4.8 -40.8 -0.9 -37.75 L-0.15 -36.75 0.8 -36.35 0.75 -35.95 0.5 -35.8 0.3 -35.75 -2.15 -36.95 -2.45 -37.4 -2.9 -37.05 -4.75 -37.75 Q-6.45 -38.6 -4.35 -42.15" fill="url(#gradient2)" fill-rule="evenodd" stroke="none"/>
    <path d="M12.2 -45.35 L12.95 -43.55 12.65 -42.45 12.3 -42.15 12.3 -41.5 11.95 -41.6 11.5 -41.2 11.4 -41.45 12.1 -43.45 12.2 -45.35 M-8.45 -11.9 L-8.5 -12.55 -8.6 -12.8 -8.6 -12.95 -8.65 -13.25 -8.65 -13.45 -8.7 -13.65 -8.7 -14.0 -8.7 -14.05 -8.75 -14.1 -8.75 -14.55 -8.8 -14.55 -10.05 -25.35 -10.25 -29.8 -10.05 -31.2 Q-9.1 -36.6 -4.35 -42.15 -6.45 -38.6 -4.75 -37.75 L-2.9 -37.05 -2.45 -37.4 -2.15 -36.95 0.3 -35.75 0.5 -35.8 0.75 -35.95 0.8 -36.35 Q2.9 -35.65 4.55 -35.6 L5.35 -35.05 4.0 -33.8 Q1.5 -32.45 -0.2 -32.45 L-0.25 -32.35 0.3 -32.1 -4.85 -32.75 -7.5 -32.45 Q-10.15 -33.0 -9.55 -25.9 -8.9 -19.9 -8.25 -17.75 L-7.95 -14.05 -7.55 -11.95 -7.2 -11.6 -7.45 -11.25 -7.95 -10.8 -8.35 -11.45 -8.35 -11.6 -8.45 -11.7 -8.45 -11.8 -8.45 -11.9" fill="url(#gradient3)" fill-rule="evenodd" stroke="none"/>
    <path d="M-8.7 -14.0 L-8.75 -14.1 -8.7 -14.05 -8.7 -14.0" fill="url(#gradient4)" fill-rule="evenodd" stroke="none"/>
    <path d="M7.1 -39.45 L8.15 -39.85 8.65 -40.25 9.1 -40.3 9.25 -39.9 9.05 -39.55 9.05 -39.2 9.45 -39.25 10.8 -40.35 11.4 -41.45 11.5 -41.2 11.55 -40.5 11.05 -37.75 Q10.6 -34.7 5.35 -35.05 L4.55 -35.6 Q2.9 -35.65 0.8 -36.35 L-0.15 -36.75 -0.9 -37.75 Q-4.8 -40.8 -1.5 -43.35 0.0 -39.85 3.5 -37.75 L4.35 -37.6 6.1 -37.75 8.1 -38.45 8.9 -39.0 8.7 -39.1 7.75 -38.85 7.1 -39.45" fill="url(#gradient5)" fill-rule="evenodd" stroke="none"/>
    <path d="M6.5 -41.7 L8.65 -42.15 9.85 -42.65 9.55 -41.85 8.65 -40.25 8.15 -39.85 7.1 -39.45 Q5.8 -39.05 6.5 -41.7" fill="url(#gradient6)" fill-rule="evenodd" stroke="none"/>
    <path d="M9.85 -42.65 L8.65 -42.15 6.5 -41.7 Q7.75 -44.8 10.2 -45.95 12.9 -43.8 9.85 -42.65" fill="url(#gradient7)" fill-rule="evenodd" stroke="none"/>
    <path d="M11.65 -35.0 L11.85 -33.6 12.1 -28.2 12.1 -27.95 12.15 -27.25 12.2 -26.35 12.0 -25.9 Q10.7 -23.7 12.2 -24.0 L12.2 -23.95 12.2 -22.2 12.2 -21.85 Q10.85 -20.85 12.1 -20.35 L12.1 -19.95 11.95 -17.9 13.1 -9.8 13.3 -8.05 13.3 -7.9 13.4 -6.75 13.2 -6.75 5.95 -8.0 Q6.8 -13.1 6.15 -13.25 L5.85 -13.2 Q5.7 -11.75 4.95 -10.65 L3.7 -9.0 Q2.95 -10.75 0.45 -10.75 L0.0 -12.7 -0.05 -14.05 0.15 -15.8 Q-0.15 -17.35 -0.55 -17.55 1.4 -20.6 0.75 -23.0 L2.55 -24.05 4.15 -25.9 5.35 -28.6 5.4 -31.7 10.15 -32.25 10.9 -33.55 11.0 -33.2 Q10.85 -30.45 7.75 -29.85 L7.5 -30.15 7.3 -30.15 7.0 -29.35 7.1 -29.05 7.5 -28.4 Q12.1 -29.65 11.15 -33.9 L11.65 -35.0 M-12.25 -8.05 L-11.85 -8.65 -5.4 -7.4 -5.25 -4.35 -2.0 -1.05 -1.35 -1.1 -0.05 -1.55 0.0 -1.55 0.2 -1.55 0.25 -1.55 0.35 -1.65 0.45 -1.65 0.6 -1.7 1.05 -1.8 1.15 -1.85 2.35 -2.2 2.55 -2.4 4.4 -5.55 12.7 -4.0 13.6 -3.75 13.65 2.0 13.15 7.85 10.75 8.85 6.75 9.05 Q-5.35 9.65 -11.1 -2.2 -11.75 -2.8 -12.4 -5.75 L-12.25 -8.05 M-10.05 -10.65 L-9.6 -11.25 -8.5 -11.8 -8.45 -11.8 -8.45 -11.7 -8.35 -11.6 -8.35 -11.45 -8.05 -10.65 -7.95 -10.65 -7.5 -11.0 Q-7.35 -10.85 -6.55 -11.95 L-6.05 -12.9 -5.5 -13.1 -5.6 -12.55 -5.5 -9.95 -10.05 -10.65 M7.3 -25.8 Q6.95 -25.15 8.4 -24.9 L9.7 -25.9 10.65 -27.65 Q11.25 -30.5 11.0 -30.4 L10.55 -29.65 Q10.65 -28.55 10.05 -27.05 L9.05 -26.25 7.45 -26.6 7.3 -25.95 7.25 -25.9 7.3 -25.8 M-4.3 -11.95 L-2.8 -10.15 -2.4 -9.35 -4.55 -9.75 -4.3 -11.95 M-1.85 -6.75 L-1.45 -5.9 -2.5 -6.85 -1.85 -6.75" fill="url(#gradient8)" fill-rule="evenodd" stroke="none"/>
    <path d="M11.0 -33.2 L11.05 -33.5 11.0 -33.6 11.15 -33.9 Q12.1 -29.65 7.5 -28.4 L7.1 -29.05 7.0 -29.35 7.3 -30.15 7.5 -30.15 7.75 -29.85 Q10.85 -30.45 11.0 -33.2" fill="url(#gradient9)" fill-rule="evenodd" stroke="none"/>
    <path d="M11.0 -33.6 L11.05 -33.5 11.0 -33.2 10.9 -33.55 11.0 -33.6" fill="url(#gradient10)" fill-rule="evenodd" stroke="none"/>
    <path d="M3.35 -31.7 L3.85 -31.8 5.4 -31.7 5.35 -28.6 4.15 -25.9 2.55 -24.05 0.75 -23.0 0.2 -24.95 1.25 -25.4 1.65 -25.9 Q2.15 -25.8 3.05 -28.45 L3.35 -31.7" fill="url(#gradient11)" fill-rule="evenodd" stroke="none"/>
    <path d="M1.15 -31.85 L3.35 -31.7 3.05 -28.45 Q2.15 -25.8 1.65 -25.9 L1.25 -25.4 0.2 -24.95 -0.15 -25.9 -0.4 -26.25 Q0.8 -27.6 1.1 -29.25 L1.15 -31.85" fill="url(#gradient12)" fill-rule="evenodd" stroke="none"/>
    <path d="M0.3 -32.1 L1.15 -31.85 1.1 -29.25 Q0.8 -27.6 -0.4 -26.25 L-3.65 -25.55 -5.5 -26.1 -6.75 -27.3 Q-8.1 -29.7 -7.5 -32.45 L-4.85 -32.75 0.3 -32.1" fill="url(#gradient13)" fill-rule="evenodd" stroke="none"/>
    <path d="M-8.5 -11.8 L-8.45 -11.9 -8.45 -11.8 -8.5 -11.8 M-7.5 -32.45 Q-8.1 -29.7 -6.75 -27.3 L-7.0 -27.05 -7.45 -25.9 Q-7.85 -21.05 -5.2 -19.2 L-4.95 -18.2 -5.6 -17.25 -5.7 -16.8 -5.9 -16.5 -5.85 -15.5 -5.55 -14.1 -5.7 -14.05 -6.05 -13.85 -6.95 -11.95 -7.0 -11.95 -7.05 -11.8 -7.2 -11.6 -7.55 -11.95 -7.95 -14.05 -8.25 -17.75 Q-8.9 -19.9 -9.55 -25.9 -10.15 -33.0 -7.5 -32.45" fill="url(#gradient14)" fill-rule="evenodd" stroke="none"/>
    <path d="M-7.05 -11.8 L-7.2 -11.6 -7.05 -11.8" fill="url(#gradient15)" fill-rule="evenodd" stroke="none"/>
    <path d="M-5.45 -13.85 L-5.7 -13.75 -6.05 -12.9 -6.55 -11.95 Q-7.35 -10.85 -7.5 -11.0 L-7.5 -11.05 -7.45 -11.25 -7.2 -11.6 -7.05 -11.8 -7.0 -11.95 -6.95 -11.95 -6.05 -13.85 -5.7 -14.05 -5.55 -14.1 -5.5 -14.05 -5.45 -13.85" fill="url(#gradient16)" fill-rule="evenodd" stroke="none"/>
    <path d="M-0.55 -17.55 Q-0.15 -17.35 0.15 -15.8 L-0.05 -14.05 0.0 -12.7 0.45 -10.75 0.35 -9.35 Q0.0 -7.95 -1.8 -8.55 L-2.4 -9.35 -2.8 -10.15 -4.3 -11.95 -5.05 -12.85 -5.25 -13.45 -5.35 -13.5 -5.45 -13.85 -5.5 -14.05 -5.55 -14.1 -5.85 -15.5 -5.9 -16.5 -5.7 -16.8 -5.6 -17.25 -4.8 -17.4 -3.75 -17.9 Q-2.2 -16.1 -0.55 -17.55" fill="url(#gradient17)" fill-rule="evenodd" stroke="none"/>
    <path d="M-4.95 -18.2 L-4.85 -17.95 -4.6 -17.9 -4.05 -18.0 -3.75 -17.9 -4.8 -17.4 -5.6 -17.25 -4.95 -18.2" fill="url(#gradient18)" fill-rule="evenodd" stroke="none"/>
    <path d="M-3.65 -25.55 L-0.4 -26.25 -0.15 -25.9 0.2 -24.95 0.75 -23.0 Q1.4 -20.6 -0.55 -17.55 -2.2 -16.1 -3.75 -17.9 L-4.05 -18.0 -4.6 -18.8 Q-1.9 -18.4 -3.65 -25.55" fill="url(#gradient19)" fill-rule="evenodd" stroke="none"/>
    <path d="M-4.05 -18.0 L-4.6 -17.9 -4.85 -17.95 -4.95 -18.2 -5.2 -19.2 -4.7 -18.85 -4.6 -18.8 -4.05 -18.0" fill="url(#gradient20)" fill-rule="evenodd" stroke="none"/>
    <path d="M-6.75 -27.3 L-5.5 -26.1 -3.65 -25.55 Q-1.9 -18.4 -4.6 -18.8 L-4.7 -18.85 -5.2 -19.2 Q-7.85 -21.05 -7.45 -25.9 L-7.0 -27.05 -6.75 -27.3" fill="url(#gradient21)" fill-rule="evenodd" stroke="none"/>
    <path d="M7.3 -25.95 L7.45 -26.6 9.05 -26.25 10.05 -27.05 Q10.65 -28.55 10.55 -29.65 L11.0 -30.4 Q11.25 -30.5 10.65 -27.65 L9.7 -25.9 8.4 -24.9 Q6.95 -25.15 7.3 -25.8 L7.4 -25.75 7.35 -25.9 7.3 -25.95" fill="url(#gradient22)" fill-rule="evenodd" stroke="none"/>
    <path d="M7.3 -25.95 L7.35 -25.9 7.4 -25.75 7.3 -25.8 7.25 -25.9 7.3 -25.95" fill="url(#gradient23)" fill-rule="evenodd" stroke="none"/>
    <path d="M12.1 -28.2 Q12.75 -27.9 13.25 -25.05 L12.7 -24.0 12.6 -24.0 12.2 -24.0 Q10.7 -23.7 12.0 -25.9 L12.2 -26.35 12.3 -27.2 12.1 -27.95 12.1 -28.2" fill="url(#gradient24)" fill-rule="evenodd" stroke="none"/>
    <path d="M12.7 -24.0 Q14.45 -19.5 12.45 -20.25 L12.35 -20.35 12.1 -20.35 Q10.85 -20.85 12.2 -21.85 L12.3 -21.8 12.6 -22.15 12.95 -22.55 12.95 -22.8 12.6 -23.95 12.6 -24.0 12.7 -24.0" fill="url(#gradient25)" fill-rule="evenodd" stroke="none"/>
    <path d="M12.2 -24.0 L12.6 -24.0 12.6 -23.95 12.35 -23.95 12.2 -23.95 12.2 -24.0" fill="url(#gradient26)" fill-rule="evenodd" stroke="none"/>
    <path d="M12.1 -19.95 L12.95 -17.15 14.15 -12.25 13.9 -12.1 13.25 -11.05 13.1 -9.8 11.95 -17.9 12.1 -19.95 M14.9 6.7 Q14.05 13.2 -3.8 8.2 -16.5 -3.25 -12.25 -8.05 L-12.4 -5.75 Q-11.75 -2.8 -11.1 -2.2 -5.35 9.65 6.75 9.05 L10.75 8.85 13.15 7.85 13.65 2.0 13.6 -3.75 15.35 -3.45 15.45 0.4 15.25 2.85 14.9 6.7 M12.3 -27.2 L12.2 -26.35 12.15 -27.25 12.3 -27.2 M13.4 -6.75 L13.3 -7.9 13.35 -7.9 13.65 -6.75 13.4 -6.75 M12.2 -23.95 L12.35 -23.95 12.3 -22.35 12.2 -22.2 12.2 -23.95" fill="url(#gradient27)" fill-rule="evenodd" stroke="none"/>
    <path d="M12.1 -27.95 L12.3 -27.2 12.15 -27.25 12.1 -27.95" fill="url(#gradient28)" fill-rule="evenodd" stroke="none"/>
    <path d="M12.35 -23.95 L12.6 -23.95 12.95 -22.8 12.95 -22.55 12.6 -22.15 12.3 -22.35 12.35 -23.95" fill="url(#gradient29)" fill-rule="evenodd" stroke="none"/>
    <path d="M14.15 -12.25 Q23.0 -14.15 28.95 -4.55 29.15 -2.6 26.85 -2.85 29.4 -5.8 20.15 -9.8 13.0 -11.75 15.85 -6.4 14.1 -4.7 13.65 -6.75 L13.35 -7.9 13.3 -8.05 13.1 -9.8 13.25 -11.05 13.9 -12.1 14.15 -12.25" fill="url(#gradient30)" fill-rule="evenodd" stroke="none"/>
    <path d="M15.85 -6.4 L17.55 -6.1 17.35 -6.05 16.9 -5.8 Q15.75 -4.8 16.85 -3.25 L16.9 -3.2 17.1 -3.15 17.1 -3.1 15.8 -3.3 15.35 -3.45 13.6 -3.75 12.7 -4.0 Q11.5 -5.8 13.2 -6.75 L13.4 -6.75 13.65 -6.75 Q14.1 -4.7 15.85 -6.4" fill="url(#gradient31)" fill-rule="evenodd" stroke="none"/>
    <path d="M13.3 -7.9 L13.3 -8.05 13.35 -7.9 13.3 -7.9" fill="url(#gradient32)" fill-rule="evenodd" stroke="none"/>
    <path d="M0.45 -10.75 Q2.95 -10.75 3.7 -9.0 L4.0 -8.3 2.05 -8.5 0.35 -9.35 0.45 -10.75" fill="url(#gradient33)" fill-rule="evenodd" stroke="none"/>
    <path d="M-1.8 -8.55 Q0.0 -7.95 0.35 -9.35 L2.05 -8.5 Q-0.05 -6.5 3.1 -5.8 0.5 -3.6 -1.45 -5.9 L-1.85 -6.75 -2.0 -8.15 -1.8 -8.55" fill="url(#gradient34)" fill-rule="evenodd" stroke="none"/>
    <path d="M-11.85 -8.65 L-17.3 -9.65 -17.7 -9.7 Q-19.1 -11.2 -17.4 -11.95 L-16.95 -11.8 -10.05 -10.65 -5.5 -9.95 -4.55 -9.75 -2.4 -9.35 -1.8 -8.55 -2.0 -8.15 -1.85 -6.75 -2.5 -6.85 -5.4 -7.4 -11.85 -8.65 M5.95 -8.0 L13.2 -6.75 Q11.5 -5.8 12.7 -4.0 L4.4 -5.55 3.1 -5.8 Q-0.05 -6.5 2.05 -8.5 L4.0 -8.3 5.95 -8.0 M17.5 -6.05 L16.9 -5.8 17.35 -6.05 17.5 -6.05 M16.85 -3.25 L17.0 -3.2 16.9 -3.2 16.85 -3.25" fill="url(#gradient35)" fill-rule="evenodd" stroke="none"/>
    <path d="M3.7 -9.0 L4.95 -10.65 Q5.7 -11.75 5.85 -13.2 L6.15 -13.25 Q6.8 -13.1 5.95 -8.0 L4.0 -8.3 3.7 -9.0 M-5.35 -13.5 L-5.25 -13.45 -5.05 -12.85 -4.3 -11.95 -4.55 -9.75 -5.5 -9.95 -5.6 -12.55 -5.5 -13.1 -5.35 -13.5 M4.4 -5.55 L2.55 -2.4 2.35 -2.2 1.15 -1.85 1.05 -1.8 0.6 -1.7 0.45 -1.65 0.35 -1.65 0.25 -1.55 0.2 -1.55 0.0 -1.55 -0.05 -1.55 -2.0 -1.05 -5.25 -4.35 -5.4 -7.4 -2.5 -6.85 -1.45 -5.9 Q0.5 -3.6 3.1 -5.8 L4.4 -5.55" fill="url(#gradient36)" fill-rule="evenodd" stroke="none"/>
    <path d="M-17.7 -9.65 L-23.4 -10.75 Q-24.0 -11.2 -23.85 -11.95 -23.15 -13.2 -22.5 -12.85 L-17.35 -11.95 -17.4 -11.95 Q-19.1 -11.2 -17.7 -9.7 L-17.7 -9.65" fill="url(#gradient37)" fill-rule="evenodd" stroke="none"/>
    <path d="M-17.3 -9.65 L-17.7 -9.65 -17.7 -9.7 -17.3 -9.65 M-17.35 -11.95 L-16.95 -11.8 -17.4 -11.95 -17.35 -11.95" fill="url(#gradient38)" fill-rule="evenodd" stroke="none"/>
    <path d="M-7.45 -11.25 L-7.5 -11.05 -7.5 -11.0 -7.95 -10.65 -7.95 -10.8 -7.45 -11.25" fill="url(#gradient39)" fill-rule="evenodd" stroke="none"/>
    <path d="M-7.95 -10.65 L-8.05 -10.65 -8.35 -11.45 -7.95 -10.8 -7.95 -10.65" fill="url(#gradient40)" fill-rule="evenodd" stroke="none"/>
    <path d="M17.1 1.45 Q18.3 5.2 14.9 6.7 L15.25 2.85 Q15.85 6.15 17.1 1.45" fill="url(#gradient41)" fill-rule="evenodd" stroke="none"/>
    <path d="M15.8 -3.3 L17.1 0.4 17.1 1.45 Q15.85 6.15 15.25 2.85 L15.45 0.4 15.35 -3.45 15.8 -3.3" fill="url(#gradient42)" fill-rule="evenodd" stroke="none"/>
    <path d="M-0.05 -1.55 L-1.35 -1.1 -2.0 -1.05 -0.05 -1.55" fill="url(#gradient43)" fill-rule="evenodd" stroke="none"/>
    <path d="M17.55 -6.1 Q17.95 -5.9 18.35 -5.75 L18.55 -5.1 18.3 -5.7 17.7 -5.95 17.55 -6.05 17.5 -6.05 17.35 -6.05 17.55 -6.1 M18.4 -3.8 L18.0 -3.25 17.75 -3.1 17.1 -3.1 17.1 -3.15 16.9 -3.2 17.0 -3.2 17.8 -3.2 18.4 -3.8" fill="url(#gradient44)" fill-rule="evenodd" stroke="none"/>
    <path d="M18.55 -5.1 L18.55 -4.95 18.6 -4.75 18.6 -4.65 18.55 -4.5 18.5 -4.15 18.4 -3.8 17.8 -3.2 17.0 -3.2 16.85 -3.25 Q15.75 -4.8 16.9 -5.8 L17.5 -6.05 17.55 -6.05 17.7 -5.95 18.3 -5.7 18.55 -5.1" fill="url(#gradient45)" fill-rule="evenodd" stroke="none"/>
  </g>
  <defs>
    <radialGradient cx="0" cy="0" gradientTransform="matrix(0.0165, 0.0, 0.0, 0.0165, 10.8, -41.6)" gradientUnits="userSpaceOnUse" id="gradient0" r="819.2" spreadMethod="pad">
      <stop offset="0.0" stop-color="#67604b"/>
      <stop offset="1.0" stop-color="#3e3b2d"/>
    </radialGradient>
    <radialGradient cx="0" cy="0" gradientTransform="matrix(0.0094, 0.0, 0.0, 0.0094, 2.05, -51.35)" gradientUnits="userSpaceOnUse" id="gradient1" r="819.2" spreadMethod="pad">
      <stop offset="0.0" stop-color="#2a281f"/>
      <stop offset="1.0" stop-color="#11100c"/>
    </radialGradient>
    <radialGradient cx="0" cy="0" gradientTransform="matrix(0.0176, 0.0, 0.0, 0.0176, 0.45, -36.0)" gradientUnits="userSpaceOnUse" id="gradient2" r="819.2" spreadMethod="pad">
      <stop offset="0.0" stop-color="#655e49"/>
      <stop offset="1.0" stop-color="#433e30"/>
    </radialGradient>
    <radialGradient cx="0" cy="0" gradientTransform="matrix(0.0287, 0.0, 0.0, 0.0287, -1.5, -33.5)" gradientUnits="userSpaceOnUse" id="gradient3" r="819.2" spreadMethod="pad">
      <stop offset="0.0" stop-color="#665f4a"/>
      <stop offset="1.0" stop-color="#343126"/>
    </radialGradient>
    <radialGradient cx="0" cy="0" gradientTransform="matrix(0.0021, 0.0, 0.0, 0.0021, -8.8, -14.35)" gradientUnits="userSpaceOnUse" id="gradient4" r="819.2" spreadMethod="pad">
      <stop offset="0.0" stop-color="#302d23"/>
      <stop offset="1.0" stop-color="#302d23"/>
    </radialGradient>
    <radialGradient cx="0" cy="0" gradientTransform="matrix(0.0137, 0.0, 0.0, 0.0137, 1.0, -38.15)" gradientUnits="userSpaceOnUse" id="gradient5" r="819.2" spreadMethod="pad">
      <stop offset="0.0" stop-color="#655f49"/>
      <stop offset="1.0" stop-color="#454132"/>
    </radialGradient>
    <radialGradient cx="0" cy="0" gradientTransform="matrix(0.0047, 0.0, 0.0, 0.0047, 6.45, -41.95)" gradientUnits="userSpaceOnUse" id="gradient6" r="819.2" spreadMethod="pad">
      <stop offset="0.0" stop-color="#df9d5c"/>
      <stop offset="1.0" stop-color="#a77644"/>
    </radialGradient>
    <radialGradient cx="0" cy="0" gradientTransform="matrix(0.0049, 0.0, 0.0, 0.0049, 8.45, -44.3)" gradientUnits="userSpaceOnUse" id="gradient7" r="819.2" spreadMethod="pad">
      <stop offset="0.0" stop-color="#fcefc2"/>
      <stop offset="1.0" stop-color="#d9cfa8"/>
    </radialGradient>
    <radialGradient cx="0" cy="0" gradientTransform="matrix(0.0386, 0.0, 0.0, 0.0386, 3.0, -22.0)" gradientUnits="userSpaceOnUse" id="gradient8" r="819.2" spreadMethod="pad">
      <stop offset="0.0" stop-color="#ea3434"/>
      <stop offset="1.0" stop-color="#a52424"/>
    </radialGradient>
    <radialGradient cx="0" cy="0" gradientTransform="matrix(0.0084, 0.0, 0.0, 0.0084, 10.4, -34.65)" gradientUnits="userSpaceOnUse" id="gradient9" r="819.2" spreadMethod="pad">
      <stop offset="0.0" stop-color="#f8ebbf"/>
      <stop offset="1.0" stop-color="#888169"/>
    </radialGradient>
    <radialGradient cx="0" cy="0" gradientTransform="matrix(0.0021, 0.0, 0.0, 0.0021, 11.2, -32.25)" gradientUnits="userSpaceOnUse" id="gradient10" r="819.2" spreadMethod="pad">
      <stop offset="0.0" stop-color="#1f1e18"/>
      <stop offset="1.0" stop-color="#1f1e18"/>
    </radialGradient>
    <radialGradient cx="0" cy="0" gradientTransform="matrix(0.0134, 0.0, 0.0, 0.0134, 0.45, -22.9)" gradientUnits="userSpaceOnUse" id="gradient11" r="819.2" spreadMethod="pad">
      <stop offset="0.0" stop-color="#484435"/>
      <stop offset="1.0" stop-color="#3c382b"/>
    </radialGradient>
    <radialGradient cx="0" cy="0" gradientTransform="matrix(0.0107, 0.0, 0.0, 0.0107, 1.75, -33.65)" gradientUnits="userSpaceOnUse" id="gradient12" r="819.2" spreadMethod="pad">
      <stop offset="0.0" stop-color="#ffb76b"/>
      <stop offset="1.0" stop-color="#9f7041"/>
    </radialGradient>
    <radialGradient cx="0" cy="0" gradientTransform="matrix(0.0092, 0.0, 0.0, 0.0092, -2.55, -32.55)" gradientUnits="userSpaceOnUse" id="gradient13" r="819.2" spreadMethod="pad">
      <stop offset="0.0" stop-color="#ffde81"/>
      <stop offset="1.0" stop-color="#a57444"/>
    </radialGradient>
    <radialGradient cx="0" cy="0" gradientTransform="matrix(0.0286, 0.0, 0.0, 0.0286, -9.25, -34.1)" gradientUnits="userSpaceOnUse" id="gradient14" r="819.2" spreadMethod="pad">
      <stop offset="0.0" stop-color="#3c382c"/>
      <stop offset="1.0" stop-color="#0c0c09"/>
    </radialGradient>
    <radialGradient cx="0" cy="0" gradientTransform="matrix(0.0022, 0.0, 0.0, 0.0022, -6.85, -12.3)" gradientUnits="userSpaceOnUse" id="gradient15" r="819.2" spreadMethod="pad">
      <stop offset="0.0" stop-color="#0c0c09"/>
      <stop offset="1.0" stop-color="#0c0c09"/>
    </radialGradient>
    <radialGradient cx="0" cy="0" gradientTransform="matrix(0.0055, 0.0, 0.0, 0.0055, -7.6, -11.1)" gradientUnits="userSpaceOnUse" id="gradient16" r="819.2" spreadMethod="pad">
      <stop offset="0.0" stop-color="#1f1d16"/>
      <stop offset="1.0" stop-color="#0c0c09"/>
    </radialGradient>
    <radialGradient cx="0" cy="0" gradientTransform="matrix(0.011, 0.0, 0.0, 0.011, -3.5, -16.9)" gradientUnits="userSpaceOnUse" id="gradient17" r="819.2" spreadMethod="pad">
      <stop offset="0.0" stop-color="#68614c"/>
      <stop offset="1.0" stop-color="#3f3b2e"/>
    </radialGradient>
    <radialGradient cx="0" cy="0" gradientTransform="matrix(0.0019, 0.0, 0.0, 0.0019, -4.15, -17.8)" gradientUnits="userSpaceOnUse" id="gradient18" r="819.2" spreadMethod="pad">
      <stop offset="0.0" stop-color="#3b372b"/>
      <stop offset="1.0" stop-color="#333025"/>
    </radialGradient>
    <radialGradient cx="0" cy="0" gradientTransform="matrix(0.0112, 0.0, 0.0, 0.0112, -2.6, -26.15)" gradientUnits="userSpaceOnUse" id="gradient19" r="819.2" spreadMethod="pad">
      <stop offset="0.0" stop-color="#ffde81"/>
      <stop offset="1.0" stop-color="#966a3e"/>
    </radialGradient>
    <radialGradient cx="0" cy="0" gradientTransform="matrix(0.0016, 0.0, 0.0, 0.0016, -4.35, -18.95)" gradientUnits="userSpaceOnUse" id="gradient20" r="819.2" spreadMethod="pad">
      <stop offset="0.0" stop-color="#484334"/>
      <stop offset="1.0" stop-color="#3a362b"/>
    </radialGradient>
    <radialGradient cx="0" cy="0" gradientTransform="matrix(0.009, 0.0, 0.0, 0.009, -4.1, -25.9)" gradientUnits="userSpaceOnUse" id="gradient21" r="819.2" spreadMethod="pad">
      <stop offset="0.0" stop-color="#ffe082"/>
      <stop offset="1.0" stop-color="#9a6c3f"/>
    </radialGradient>
    <radialGradient cx="0" cy="0" gradientTransform="matrix(0.0074, 0.0, 0.0, 0.0074, 10.5, -30.5)" gradientUnits="userSpaceOnUse" id="gradient22" r="819.2" spreadMethod="pad">
      <stop offset="0.0" stop-color="#ffffd1"/>
      <stop offset="1.0" stop-color="#76705b"/>
    </radialGradient>
    <radialGradient cx="0" cy="0" gradientTransform="matrix(0.0024, 0.0, 0.0, 0.0024, 6.05, -27.05)" gradientUnits="userSpaceOnUse" id="gradient23" r="819.2" spreadMethod="pad">
      <stop offset="0.0" stop-color="#bbb190"/>
      <stop offset="1.0" stop-color="#bab190"/>
    </radialGradient>
    <radialGradient cx="0" cy="0" gradientTransform="matrix(0.0053, 0.0, 0.0, 0.0053, 10.15, -25.0)" gradientUnits="userSpaceOnUse" id="gradient24" r="819.2" spreadMethod="pad">
      <stop offset="0.0" stop-color="#eee2b7"/>
      <stop offset="1.0" stop-color="#90886e"/>
    </radialGradient>
    <radialGradient cx="0" cy="0" gradientTransform="matrix(0.0041, 0.0, 0.0, 0.0041, 11.1, -21.75)" gradientUnits="userSpaceOnUse" id="gradient25" r="819.2" spreadMethod="pad">
      <stop offset="0.0" stop-color="#fff9ca"/>
      <stop offset="1.0" stop-color="#878067"/>
    </radialGradient>
    <radialGradient cx="0" cy="0" gradientTransform="matrix(0.0021, 0.0, 0.0, 0.0021, 12.6, -24.1)" gradientUnits="userSpaceOnUse" id="gradient26" r="819.2" spreadMethod="pad">
      <stop offset="0.0" stop-color="#545041"/>
      <stop offset="1.0" stop-color="#333128"/>
    </radialGradient>
    <radialGradient cx="0" cy="0" gradientTransform="matrix(0.0477, 0.0, 0.0, 0.0477, 9.55, 10.25)" gradientUnits="userSpaceOnUse" id="gradient27" r="819.2" spreadMethod="pad">
      <stop offset="0.0" stop-color="#716952"/>
      <stop offset="1.0" stop-color="#3a372a"/>
    </radialGradient>
    <radialGradient cx="0" cy="0" gradientTransform="matrix(0.0022, 0.0, 0.0, 0.0022, 11.75, -27.55)" gradientUnits="userSpaceOnUse" id="gradient28" r="819.2" spreadMethod="pad">
      <stop offset="0.0" stop-color="#1f1e18"/>
      <stop offset="1.0" stop-color="#1f1e18"/>
    </radialGradient>
    <radialGradient cx="0" cy="0" gradientTransform="matrix(0.0042, 0.0, 0.0, 0.0042, 12.45, -22.35)" gradientUnits="userSpaceOnUse" id="gradient29" r="819.2" spreadMethod="pad">
      <stop offset="0.0" stop-color="#37342a"/>
      <stop offset="1.0" stop-color="#1f1e18"/>
    </radialGradient>
    <radialGradient cx="0" cy="0" gradientTransform="matrix(0.0181, 0.0, 0.0, 0.0181, 27.35, -6.8)" gradientUnits="userSpaceOnUse" id="gradient30" r="819.2" spreadMethod="pad">
      <stop offset="0.0" stop-color="#714121"/>
      <stop offset="1.0" stop-color="#412513"/>
    </radialGradient>
    <radialGradient cx="0" cy="0" gradientTransform="matrix(0.004, 0.0, 0.0, 0.004, 14.55, -5.25)" gradientUnits="userSpaceOnUse" id="gradient31" r="819.2" spreadMethod="pad">
      <stop offset="0.0" stop-color="#bbb290"/>
      <stop offset="1.0" stop-color="#79735d"/>
    </radialGradient>
    <radialGradient cx="0" cy="0" gradientTransform="matrix(0.0086, 0.0, 0.0, 0.0086, 13.95, -5.9)" gradientUnits="userSpaceOnUse" id="gradient32" r="819.2" spreadMethod="pad">
      <stop offset="0.0" stop-color="#0e0804"/>
      <stop offset="1.0" stop-color="#0e0804"/>
    </radialGradient>
    <radialGradient cx="0" cy="0" gradientTransform="matrix(0.0031, 0.0, 0.0, 0.0031, 1.6, -9.2)" gradientUnits="userSpaceOnUse" id="gradient33" r="819.2" spreadMethod="pad">
      <stop offset="0.0" stop-color="#ffeb89"/>
      <stop offset="1.0" stop-color="#e09e5c"/>
    </radialGradient>
    <radialGradient cx="0" cy="0" gradientTransform="matrix(0.0041, 0.0, 0.0, 0.0041, 0.8, -8.15)" gradientUnits="userSpaceOnUse" id="gradient34" r="819.2" spreadMethod="pad">
      <stop offset="0.0" stop-color="#6d664f"/>
      <stop offset="1.0" stop-color="#2c2a20"/>
    </radialGradient>
    <radialGradient cx="0" cy="0" gradientTransform="matrix(0.0435, 0.0, 0.0, 0.0435, 16.35, -4.9)" gradientUnits="userSpaceOnUse" id="gradient35" r="819.2" spreadMethod="pad">
      <stop offset="0.0" stop-color="#563119"/>
      <stop offset="1.0" stop-color="#462814"/>
    </radialGradient>
    <radialGradient cx="0" cy="0" gradientTransform="matrix(0.0172, 0.0, 0.0, 0.0172, -4.45, -14.65)" gradientUnits="userSpaceOnUse" id="gradient36" r="819.2" spreadMethod="pad">
      <stop offset="0.0" stop-color="#ffffd3"/>
      <stop offset="1.0" stop-color="#a49c7e"/>
    </radialGradient>
    <radialGradient cx="0" cy="0" gradientTransform="matrix(0.0068, 0.0, 0.0, 0.0068, -18.4, -11.1)" gradientUnits="userSpaceOnUse" id="gradient37" r="819.2" spreadMethod="pad">
      <stop offset="0.0" stop-color="#aba384"/>
      <stop offset="1.0" stop-color="#958d72"/>
    </radialGradient>
    <radialGradient cx="0" cy="0" gradientTransform="matrix(0.0029, 0.0, 0.0, 0.0029, -17.85, -12.05)" gradientUnits="userSpaceOnUse" id="gradient38" r="819.2" spreadMethod="pad">
      <stop offset="0.0" stop-color="#1f1e18"/>
      <stop offset="1.0" stop-color="#1f1e18"/>
    </radialGradient>
    <radialGradient cx="0" cy="0" gradientTransform="matrix(0.0022, 0.0, 0.0, 0.0022, -7.95, -10.85)" gradientUnits="userSpaceOnUse" id="gradient39" r="819.2" spreadMethod="pad">
      <stop offset="0.0" stop-color="#26231c"/>
      <stop offset="1.0" stop-color="#24221a"/>
    </radialGradient>
    <radialGradient cx="0" cy="0" gradientTransform="matrix(0.0027, 0.0, 0.0, 0.0027, -8.55, -12.6)" gradientUnits="userSpaceOnUse" id="gradient40" r="819.2" spreadMethod="pad">
      <stop offset="0.0" stop-color="#302d23"/>
      <stop offset="1.0" stop-color="#2d2a21"/>
    </radialGradient>
    <radialGradient cx="0" cy="0" gradientTransform="matrix(0.0089, 0.0, 0.0, 0.0089, 15.5, 6.7)" gradientUnits="userSpaceOnUse" id="gradient41" r="819.2" spreadMethod="pad">
      <stop offset="0.0" stop-color="#464233"/>
      <stop offset="1.0" stop-color="#373328"/>
    </radialGradient>
    <radialGradient cx="0" cy="0" gradientTransform="matrix(0.0101, 0.0, 0.0, 0.0101, 13.6, -3.75)" gradientUnits="userSpaceOnUse" id="gradient42" r="819.2" spreadMethod="pad">
      <stop offset="0.0" stop-color="#ae2727"/>
      <stop offset="1.0" stop-color="#972121"/>
    </radialGradient>
    <radialGradient cx="0" cy="0" gradientTransform="matrix(0.0056, 0.0, 0.0, 0.0056, 2.35, -2.25)" gradientUnits="userSpaceOnUse" id="gradient43" r="819.2" spreadMethod="pad">
      <stop offset="0.0" stop-color="#484437"/>
      <stop offset="1.0" stop-color="#2f2c24"/>
    </radialGradient>
    <radialGradient cx="0" cy="0" gradientTransform="matrix(0.0041, 0.0, 0.0, 0.0041, 18.2, -5.8)" gradientUnits="userSpaceOnUse" id="gradient44" r="819.2" spreadMethod="pad">
      <stop offset="0.0" stop-color="#1f1e18"/>
      <stop offset="1.0" stop-color="#1f1e18"/>
    </radialGradient>
    <radialGradient cx="0" cy="0" gradientTransform="matrix(0.0025, 0.0, 0.0, 0.0025, 17.65, -5.25)" gradientUnits="userSpaceOnUse" id="gradient45" r="819.2" spreadMethod="pad">
      <stop offset="0.0" stop-color="#5c341b"/>
      <stop offset="1.0" stop-color="#5b341b"/>
    </radialGradient>
  </defs>
</svg>
