<?xml version="1.0" encoding="UTF-8" standalone="no"?>
<svg xmlns:ffdec="https://www.free-decompiler.com/flash" xmlns:xlink="http://www.w3.org/1999/xlink" ffdec:objectType="shape" height="64.3px" width="66.0px" xmlns="http://www.w3.org/2000/svg">
  <g transform="matrix(1.0, 0.0, 0.0, 1.0, 43.1, 52.6)">
    <path d="M-8.45 -44.3 Q-8.7 -45.4 -8.45 -46.85 L-8.15 -47.9 Q-1.75 -55.85 3.5 -50.35 5.7 -48.55 5.7 -45.45 L5.4 -43.95 Q3.6 -40.3 0.95 -38.4 -0.65 -37.2 -3.45 -38.4 -8.15 -40.25 -8.45 -44.3 M-2.75 -42.15 Q-3.95 -45.25 -6.45 -46.45 -9.2 -44.55 -6.2 -43.15 L-5.7 -41.8 -5.0 -40.8 -5.3 -40.85 -5.7 -40.65 -5.15 -39.85 -3.35 -39.9 -2.85 -40.0 -2.5 -40.25 -2.4 -41.2 -2.75 -42.15" fill="url(#gradient0)" fill-rule="evenodd" stroke="none"/>
    <path d="M-8.15 -47.9 L-8.45 -46.85 Q-8.7 -45.4 -8.45 -44.3 L-8.7 -43.0 -8.55 -41.15 -8.8 -41.15 -9.05 -41.45 -9.7 -41.7 -10.05 -42.5 -10.3 -43.15 -10.3 -44.45 -10.2 -46.05 Q-8.9 -48.4 -8.15 -47.9 M14.15 -28.4 L14.5 -30.35 14.15 -33.35 12.9 -34.5 12.45 -34.55 10.5 -34.6 5.35 -33.25 6.1 -33.5 6.05 -33.7 Q1.1 -33.75 -0.9 -35.95 L0.0 -36.6 Q1.9 -36.85 3.6 -37.6 5.65 -35.25 7.35 -38.4 L7.85 -38.4 Q11.25 -39.6 8.5 -42.55 15.35 -35.55 14.75 -32.05 L14.8 -31.7 14.65 -29.85 14.65 -29.8 14.35 -27.55 14.15 -28.4 M3.85 -32.8 L3.6 -32.85 4.05 -32.95 3.85 -32.8 M13.7 -21.7 L13.15 -22.2 13.2 -22.5 13.25 -22.65 14.0 -24.0 13.7 -21.7" fill="url(#gradient1)" fill-rule="evenodd" stroke="none"/>
    <path d="M-10.3 -44.45 L-10.3 -43.15 -10.05 -42.5 Q-10.3 -42.45 -10.05 -40.2 L-9.75 -38.75 -10.75 -40.1 -11.05 -42.1 Q-11.1 -43.0 -10.3 -44.45" fill="url(#gradient2)" fill-rule="evenodd" stroke="none"/>
    <path d="M-10.75 -40.1 L-9.75 -38.75 -9.7 -38.7 -9.55 -38.4 -9.4 -37.6 -9.5 -36.95 -8.65 -33.2 -9.75 -33.25 -10.65 -33.9 Q-12.55 -36.5 -10.75 -40.1" fill="url(#gradient3)" fill-rule="evenodd" stroke="none"/>
    <path d="M-8.65 -33.2 L-8.55 -33.0 Q-7.95 -32.55 -9.5 -28.55 L-9.5 -27.7 -9.9 -27.6 -10.45 -27.75 -10.45 -28.1 -10.3 -29.6 -10.4 -30.35 -10.3 -30.4 -10.4 -30.7 -10.45 -30.75 -10.9 -32.65 -10.65 -33.9 -9.75 -33.25 -8.65 -33.2" fill="url(#gradient4)" fill-rule="evenodd" stroke="none"/>
    <path d="M-10.45 -30.75 L-10.4 -30.7 -10.3 -30.4 -10.4 -30.35 -10.45 -30.75" fill="url(#gradient5)" fill-rule="evenodd" stroke="none"/>
    <path d="M-10.05 -42.5 L-9.7 -41.7 -9.05 -41.45 -8.8 -41.15 -8.55 -41.15 -8.3 -39.6 -7.7 -38.4 Q-6.0 -34.5 -0.9 -35.95 1.1 -33.75 6.05 -33.7 L6.1 -33.5 5.35 -33.25 4.05 -32.95 3.6 -32.85 3.35 -32.8 1.85 -32.55 -0.45 -32.45 -1.3 -32.25 -6.0 -32.25 -8.1 -35.45 -9.4 -37.6 -9.55 -38.4 -9.7 -38.7 -9.75 -38.75 -10.05 -40.2 Q-10.3 -42.45 -10.05 -42.5 M5.4 -43.95 L5.7 -45.45 7.7 -43.65 8.5 -42.55 Q11.25 -39.6 7.85 -38.4 L7.35 -38.4 Q5.65 -35.25 3.6 -37.6 L4.75 -38.0 4.9 -38.4 Q7.4 -43.8 5.4 -43.95" fill="url(#gradient6)" fill-rule="evenodd" stroke="none"/>
    <path d="M-8.55 -41.15 L-8.7 -43.0 -8.45 -44.3 Q-8.15 -40.25 -3.45 -38.4 -0.65 -37.2 0.95 -38.4 3.6 -40.3 5.4 -43.95 7.4 -43.8 4.9 -38.4 L4.75 -38.0 3.6 -37.6 Q1.9 -36.85 0.0 -36.6 L-0.9 -35.95 Q-6.0 -34.5 -7.7 -38.4 L-8.3 -39.6 -8.55 -41.15 M-3.35 -39.9 L-5.15 -39.85 -5.7 -40.65 -5.3 -40.85 -5.0 -40.8 -3.9 -40.05 -3.35 -39.9" fill="url(#gradient7)" fill-rule="evenodd" stroke="none"/>
    <path d="M-6.2 -43.15 Q-9.2 -44.55 -6.45 -46.45 -3.95 -45.25 -2.75 -42.15 L-4.05 -42.35 -6.2 -43.15" fill="url(#gradient8)" fill-rule="evenodd" stroke="none"/>
    <path d="M-6.2 -43.15 L-4.05 -42.35 -2.75 -42.15 -2.4 -41.2 -2.5 -40.25 -2.85 -40.0 -3.35 -39.9 -3.9 -40.05 -5.0 -40.8 -5.7 -41.8 -6.2 -43.15" fill="url(#gradient9)" fill-rule="evenodd" stroke="none"/>
    <path d="M14.8 -31.7 L14.75 -32.05 22.15 -33.5 Q23.1 -33.0 22.85 -32.0 L22.5 -31.5 22.2 -31.4 14.75 -29.8 14.75 -29.85 15.15 -30.25 15.2 -30.9 14.8 -31.7" fill="url(#gradient10)" fill-rule="evenodd" stroke="none"/>
    <path d="M14.65 -29.8 L14.65 -29.85 14.75 -29.85 14.75 -29.8 14.65 -29.8" fill="url(#gradient11)" fill-rule="evenodd" stroke="none"/>
    <path d="M14.65 -29.85 L14.8 -31.7 15.2 -30.9 15.15 -30.25 14.75 -29.85 14.65 -29.85 M-11.8 -26.55 L-11.25 -26.6 -11.0 -26.4 -10.85 -26.2 -10.75 -25.15 -11.05 -24.3 -11.45 -24.15 -24.2 -21.45 Q-23.55 -22.75 -24.65 -23.85 L-11.8 -26.55 M-29.7 -22.85 L-29.25 -22.5 -29.7 -22.8 -29.7 -22.85 M-29.15 -20.4 L-29.2 -20.35 -29.25 -20.35 -29.15 -20.4" fill="url(#gradient12)" fill-rule="evenodd" stroke="none"/>
    <path d="M-8.65 -33.2 L-9.5 -36.95 -9.4 -37.6 -8.1 -35.45 -8.4 -34.6 -8.55 -33.0 -8.65 -33.2" fill="url(#gradient13)" fill-rule="evenodd" stroke="none"/>
    <path d="M5.35 -33.25 L10.5 -34.6 12.45 -34.55 12.95 -32.8 Q13.15 -31.45 12.8 -30.25 12.4 -28.4 10.25 -27.35 L8.75 -27.2 6.8 -27.35 6.85 -27.45 6.5 -27.7 6.4 -27.75 Q4.15 -29.35 3.85 -32.8 L4.05 -32.95 5.35 -33.25" fill="url(#gradient14)" fill-rule="evenodd" stroke="none"/>
    <path d="M12.45 -34.55 L12.9 -34.5 14.15 -33.35 14.5 -30.35 14.15 -28.4 13.6 -29.6 12.8 -30.25 Q13.15 -31.45 12.95 -32.8 L12.45 -34.55 M7.9 -20.9 L8.9 -20.05 Q8.4 -19.3 9.65 -16.4 L9.8 -14.45 9.45 -14.45 8.95 -14.3 8.2 -17.5 7.9 -20.9 M13.25 -22.65 L13.2 -22.5 13.15 -22.55 13.25 -22.65" fill="url(#gradient15)" fill-rule="evenodd" stroke="none"/>
    <path d="M14.15 -28.4 L14.35 -27.55 14.4 -25.9 14.0 -24.0 13.25 -22.65 13.15 -22.55 12.7 -22.05 Q10.5 -20.75 10.2 -26.4 L10.25 -27.35 Q12.4 -28.4 12.8 -30.25 L13.6 -29.6 14.15 -28.4" fill="url(#gradient16)" fill-rule="evenodd" stroke="none"/>
    <path d="M6.8 -27.35 L8.75 -27.2 10.25 -27.35 10.2 -26.4 Q10.5 -20.75 12.7 -22.05 L12.4 -21.4 12.2 -21.1 11.05 -19.9 8.9 -20.05 7.9 -20.9 7.15 -22.2 6.65 -23.8 6.6 -26.4 6.8 -27.35" fill="url(#gradient17)" fill-rule="evenodd" stroke="none"/>
    <path d="M3.25 -27.95 L3.65 -26.95 4.15 -26.4 4.25 -26.2 4.85 -26.25 5.65 -26.4 6.5 -27.7 6.85 -27.45 6.8 -27.35 6.6 -26.4 6.65 -23.8 6.45 -23.35 4.6 -22.8 4.0 -23.2 3.25 -27.95" fill="url(#gradient18)" fill-rule="evenodd" stroke="none"/>
    <path d="M4.85 -26.25 L4.95 -26.4 6.4 -27.75 6.5 -27.7 5.65 -26.4 4.85 -26.25" fill="url(#gradient19)" fill-rule="evenodd" stroke="none"/>
    <path d="M3.35 -32.8 L3.6 -32.85 3.85 -32.8 Q4.15 -29.35 6.4 -27.75 L4.95 -26.4 4.85 -26.25 4.25 -26.2 4.15 -26.4 3.65 -26.95 3.25 -27.95 3.15 -31.1 3.35 -32.8" fill="url(#gradient20)" fill-rule="evenodd" stroke="none"/>
    <path d="M-0.45 -32.45 L-0.55 -29.4 -0.2 -26.4 0.8 -21.3 Q1.05 -20.15 0.8 -18.35 L-0.25 -19.0 -0.6 -19.05 -0.95 -18.9 -1.05 -18.7 -0.5 -16.75 0.55 -16.05 0.25 -14.45 0.2 -14.3 0.0 -14.45 Q-1.5 -17.2 -1.2 -14.45 L-1.05 -13.3 -0.2 -12.25 -0.35 -11.2 -3.95 -2.45 -7.3 6.15 Q-11.2 3.6 -11.2 -2.45 L-10.65 -4.45 Q-9.9 -7.25 -9.55 -11.3 L-9.55 -14.95 -9.6 -15.3 -9.6 -15.95 -8.15 -17.4 -8.1 -17.95 -8.25 -18.7 -8.55 -19.05 -9.75 -17.75 -9.8 -17.9 -9.85 -20.8 -9.6 -23.15 -9.55 -23.7 -9.5 -27.7 -9.5 -28.55 Q-7.95 -32.55 -8.55 -33.0 L-8.4 -34.6 -8.1 -35.45 -6.0 -32.25 -1.3 -32.25 -0.45 -32.45 M-7.8 -30.2 L-7.9 -29.4 -7.8 -29.35 -7.8 -29.3 -6.95 -27.2 -6.2 -26.4 Q-3.0 -23.15 -2.1 -26.4 L-4.05 -26.45 -5.7 -26.8 -6.9 -27.9 -7.6 -30.25 -7.8 -30.2 M-7.35 -32.85 L-7.4 -33.1 -7.15 -33.45 -7.3 -33.65 -7.45 -33.6 Q-8.45 -29.3 -2.8 -28.55 L-2.7 -28.7 -2.0 -30.15 -2.2 -30.5 Q-2.75 -29.85 -4.15 -30.05 L-5.65 -30.7 -6.85 -31.8 -7.35 -32.85" fill="url(#gradient21)" fill-rule="evenodd" stroke="none"/>
    <path d="M-7.35 -32.85 L-6.85 -31.8 -5.65 -30.7 -4.15 -30.05 Q-2.75 -29.85 -2.2 -30.5 L-2.0 -30.15 -2.7 -28.7 -2.8 -28.55 Q-8.45 -29.3 -7.45 -33.6 L-7.3 -33.65 -7.15 -33.45 -7.4 -33.1 -7.35 -32.85" fill="url(#gradient22)" fill-rule="evenodd" stroke="none"/>
    <path d="M-9.9 -27.6 L-9.5 -27.7 -9.55 -23.7 -10.45 -23.65 -10.9 -23.9 -11.05 -24.3 -10.75 -25.15 -10.85 -26.2 -10.7 -26.4 -10.55 -26.85 -9.9 -27.6" fill="url(#gradient23)" fill-rule="evenodd" stroke="none"/>
    <path d="M-10.45 -28.1 L-10.45 -27.75 -9.9 -27.6 -10.55 -26.85 -10.7 -26.4 -10.85 -26.2 -11.0 -26.4 -11.25 -26.6 -11.8 -26.55 -11.35 -27.5 -10.45 -28.1 M-11.45 -24.15 L-11.05 -24.3 -10.9 -23.9 -10.45 -23.65 -9.55 -23.7 -9.6 -23.15 -10.45 -23.35 -11.45 -24.15" fill="url(#gradient24)" fill-rule="evenodd" stroke="none"/>
    <path d="M3.35 -32.8 L3.15 -31.1 3.25 -27.95 4.0 -23.2 4.3 -21.95 4.3 -17.85 1.55 -17.95 0.8 -18.35 Q1.05 -20.15 0.8 -21.3 L-0.2 -26.4 -0.55 -29.4 -0.45 -32.45 1.85 -32.55 3.35 -32.8 M-10.65 -4.45 L-11.2 -2.45 Q-11.2 3.6 -7.3 6.15 L-3.95 -2.45 -0.35 -11.2 -0.2 -12.25 0.95 -11.15 3.0 -10.15 2.45 -8.4 -3.4 4.35 -4.35 6.85 -4.8 8.15 -5.2 8.25 -5.35 8.5 Q-15.2 3.05 -10.65 -4.45 M0.2 -14.3 L0.25 -14.45 0.55 -16.05 Q0.9 -15.25 4.0 -15.4 L3.5 -13.0 0.85 -13.75 0.2 -14.3" fill="url(#gradient25)" fill-rule="evenodd" stroke="none"/>
    <path d="M0.8 -18.35 L1.55 -17.95 4.3 -17.85 5.5 -18.05 6.6 -18.9 6.55 -19.8 6.85 -19.85 7.1 -19.7 7.2 -19.15 7.2 -17.35 5.8 -15.85 4.0 -15.4 Q0.9 -15.25 0.55 -16.05 L-0.5 -16.75 -1.05 -18.7 -0.95 -18.9 -0.6 -19.05 -0.25 -19.0 0.8 -18.35" fill="url(#gradient26)" fill-rule="evenodd" stroke="none"/>
    <path d="M-0.2 -12.25 L-1.05 -13.3 -1.2 -14.45 Q-1.5 -17.2 0.0 -14.45 L0.2 -14.3 0.85 -13.75 3.5 -13.0 5.8 -12.85 7.45 -13.45 7.45 -13.75 7.85 -13.75 7.9 -13.5 Q6.45 -11.8 7.35 -10.35 L5.85 -9.65 3.0 -10.15 0.95 -11.15 -0.2 -12.25" fill="url(#gradient27)" fill-rule="evenodd" stroke="none"/>
    <path d="M-9.6 -15.3 L-9.55 -14.95 -11.05 -14.15 -10.9 -14.45 -10.7 -14.65 -9.7 -15.25 -9.6 -15.25 -9.6 -15.3" fill="url(#gradient28)" fill-rule="evenodd" stroke="none"/>
    <path d="M-9.6 -15.95 L-9.6 -15.3 -9.6 -15.25 -9.7 -15.25 -10.7 -14.65 -10.05 -15.65 -9.6 -15.95" fill="url(#gradient29)" fill-rule="evenodd" stroke="none"/>
    <path d="M-9.75 -17.75 L-8.55 -19.05 -8.25 -18.7 -8.1 -17.95 -8.15 -17.4 -9.6 -15.95 -10.05 -15.65 -10.7 -14.65 -10.9 -14.45 -11.05 -14.15 Q-11.5 -15.9 -10.1 -17.45 L-9.75 -17.75" fill="url(#gradient30)" fill-rule="evenodd" stroke="none"/>
    <path d="M-9.8 -17.9 L-9.75 -17.75 -10.1 -17.45 -9.8 -17.9" fill="url(#gradient31)" fill-rule="evenodd" stroke="none"/>
    <path d="M4.3 -17.85 L4.3 -21.95 4.0 -23.2 4.6 -22.8 6.45 -23.35 6.65 -23.8 7.15 -22.2 7.9 -20.9 8.2 -17.5 8.95 -14.3 7.9 -13.5 7.85 -13.75 7.45 -13.75 7.45 -13.45 5.8 -12.85 3.5 -13.0 4.0 -15.4 5.8 -15.85 7.2 -17.35 7.2 -19.15 7.1 -19.7 6.85 -19.85 6.55 -19.8 6.6 -18.9 5.5 -18.05 4.3 -17.85 M3.0 -10.15 L5.85 -9.65 7.35 -10.35 7.7 -10.05 8.3 -9.3 9.35 -8.8 9.15 -5.75 9.25 -2.2 Q13.6 8.0 5.55 9.5 L1.55 9.8 -1.6 8.8 -4.35 6.85 -3.4 4.35 2.45 -8.4 3.0 -10.15" fill="url(#gradient32)" fill-rule="evenodd" stroke="none"/>
    <path d="M-7.8 -30.2 L-7.6 -30.25 -6.9 -27.9 -5.7 -26.8 -4.05 -26.45 -2.1 -26.4 Q-3.0 -23.15 -6.2 -26.4 L-6.95 -27.2 -7.8 -29.3 -7.8 -29.35 -7.9 -29.4 -7.8 -30.2" fill="url(#gradient33)" fill-rule="evenodd" stroke="none"/>
    <path d="M-27.8 -23.3 Q-27.1 -26.85 -31.85 -25.45 L-34.4 -24.85 -38.45 -22.95 Q-39.7 -22.1 -41.0 -21.3 -42.9 -19.55 -40.3 -19.3 -43.95 -18.85 -42.8 -21.1 -41.15 -23.9 -34.8 -26.7 -26.75 -28.8 -25.9 -26.4 L-25.5 -25.2 -25.7 -23.75 -25.75 -23.1 -26.3 -22.6 -27.35 -22.6 -27.8 -22.85 -27.8 -23.3" fill="url(#gradient34)" fill-rule="evenodd" stroke="none"/>
    <path d="M-27.8 -23.3 L-27.8 -22.85 -27.35 -22.6 -26.3 -22.6 -25.75 -23.1 -25.7 -23.75 -24.65 -23.85 Q-23.55 -22.75 -24.2 -21.45 L-24.45 -21.3 -29.2 -20.3 -29.2 -20.35 -29.15 -20.4 -29.1 -20.45 -28.95 -20.75 -28.95 -21.85 -29.25 -22.5 -29.7 -22.85 -29.8 -22.9 -27.8 -23.3" fill="url(#gradient35)" fill-rule="evenodd" stroke="none"/>
    <path d="M-30.1 -22.6 L-29.8 -22.9 -29.7 -22.85 -29.7 -22.8 -30.1 -22.6 M-29.2 -20.35 L-29.2 -20.3 -29.65 -20.4 -29.25 -20.35 -29.2 -20.35" fill="url(#gradient36)" fill-rule="evenodd" stroke="none"/>
    <path d="M-29.65 -20.4 L-29.85 -20.65 -29.85 -20.7 -29.95 -20.8 -30.0 -20.95 -30.1 -21.1 -30.1 -21.3 -30.2 -21.4 -30.25 -21.5 -30.25 -22.2 -30.2 -22.5 -30.1 -22.6 -29.7 -22.8 -29.25 -22.5 -28.95 -21.85 -28.95 -20.75 -29.1 -20.45 -29.15 -20.4 -29.25 -20.35 -29.65 -20.4" fill="url(#gradient37)" fill-rule="evenodd" stroke="none"/>
    <path d="M12.4 -21.4 L12.7 -22.05 13.15 -22.55 13.2 -22.5 13.15 -22.2 13.05 -21.6 12.4 -21.4" fill="url(#gradient38)" fill-rule="evenodd" stroke="none"/>
    <path d="M12.2 -21.1 L12.4 -21.4 13.05 -21.6 13.15 -22.2 13.7 -21.7 14.05 -21.2 13.45 -21.0 12.2 -21.1" fill="url(#gradient39)" fill-rule="evenodd" stroke="none"/>
    <path d="M8.9 -20.05 L11.05 -19.9 12.2 -21.1 13.45 -21.0 14.05 -21.2 Q15.05 -20.4 14.6 -17.25 L13.9 -16.15 13.75 -15.6 Q12.85 -14.15 12.55 -13.0 L11.55 -12.3 Q10.65 -12.1 10.25 -12.95 L9.85 -13.9 9.8 -14.45 9.65 -16.4 Q8.4 -19.3 8.9 -20.05" fill="url(#gradient40)" fill-rule="evenodd" stroke="none"/>
    <path d="M7.35 -10.35 Q6.45 -11.8 7.9 -13.5 L8.95 -14.3 9.45 -14.45 9.8 -14.45 9.85 -13.9 10.25 -12.95 Q8.85 -12.3 8.1 -10.15 L7.7 -10.05 7.35 -10.35" fill="url(#gradient41)" fill-rule="evenodd" stroke="none"/>
    <path d="M7.7 -10.05 L8.1 -10.15 Q8.85 -12.3 10.25 -12.95 10.65 -12.1 11.55 -12.3 L12.55 -13.0 Q13.95 -8.8 9.35 -8.8 L8.3 -9.3 7.7 -10.05" fill="url(#gradient42)" fill-rule="evenodd" stroke="none"/>
    <path d="M9.25 -2.2 Q13.55 4.85 9.35 9.45 2.35 14.4 -5.35 8.5 L-5.2 8.25 -4.8 8.15 -4.35 6.85 -1.6 8.8 1.55 9.8 5.55 9.5 Q13.6 8.0 9.25 -2.2" fill="url(#gradient43)" fill-rule="evenodd" stroke="none"/>
  </g>
  <defs>
    <radialGradient cx="0" cy="0" gradientTransform="matrix(0.0167, 0.0, 0.0, 0.0167, -6.75, -41.3)" gradientUnits="userSpaceOnUse" id="gradient0" r="819.2" spreadMethod="pad">
      <stop offset="0.0" stop-color="#655f49"/>
      <stop offset="1.0" stop-color="#3d392c"/>
    </radialGradient>
    <radialGradient cx="0" cy="0" gradientTransform="matrix(0.022, 0.0, 0.0, 0.022, 2.6, -34.75)" gradientUnits="userSpaceOnUse" id="gradient1" r="819.2" spreadMethod="pad">
      <stop offset="0.0" stop-color="#625c47"/>
      <stop offset="1.0" stop-color="#3c382b"/>
    </radialGradient>
    <radialGradient cx="0" cy="0" gradientTransform="matrix(0.0063, 0.0, 0.0, 0.0063, -9.6, -43.5)" gradientUnits="userSpaceOnUse" id="gradient2" r="819.2" spreadMethod="pad">
      <stop offset="0.0" stop-color="#e19f5c"/>
      <stop offset="1.0" stop-color="#92673b"/>
    </radialGradient>
    <radialGradient cx="0" cy="0" gradientTransform="matrix(0.0076, 0.0, 0.0, 0.0076, -9.25, -39.5)" gradientUnits="userSpaceOnUse" id="gradient3" r="819.2" spreadMethod="pad">
      <stop offset="0.0" stop-color="#ffd47b"/>
      <stop offset="1.0" stop-color="#805a34"/>
    </radialGradient>
    <radialGradient cx="0" cy="0" gradientTransform="matrix(0.0072, 0.0, 0.0, 0.0072, -8.4, -33.05)" gradientUnits="userSpaceOnUse" id="gradient4" r="819.2" spreadMethod="pad">
      <stop offset="0.0" stop-color="#5f5945"/>
      <stop offset="1.0" stop-color="#3a362a"/>
    </radialGradient>
    <radialGradient cx="0" cy="0" gradientTransform="matrix(0.0055, 0.0, 0.0, 0.0055, -10.9, -33.1)" gradientUnits="userSpaceOnUse" id="gradient5" r="819.2" spreadMethod="pad">
      <stop offset="0.0" stop-color="#0c0c09"/>
      <stop offset="1.0" stop-color="#0c0c09"/>
    </radialGradient>
    <radialGradient cx="0" cy="0" gradientTransform="matrix(0.0199, 0.0, 0.0, 0.0199, 4.9, -37.2)" gradientUnits="userSpaceOnUse" id="gradient6" r="819.2" spreadMethod="pad">
      <stop offset="0.0" stop-color="#645e49"/>
      <stop offset="1.0" stop-color="#454132"/>
    </radialGradient>
    <radialGradient cx="0" cy="0" gradientTransform="matrix(0.0163, 0.0, 0.0, 0.0163, 3.75, -39.35)" gradientUnits="userSpaceOnUse" id="gradient7" r="819.2" spreadMethod="pad">
      <stop offset="0.0" stop-color="#655e49"/>
      <stop offset="1.0" stop-color="#413d2f"/>
    </radialGradient>
    <radialGradient cx="0" cy="0" gradientTransform="matrix(0.0056, 0.0, 0.0, 0.0056, -3.6, -46.3)" gradientUnits="userSpaceOnUse" id="gradient8" r="819.2" spreadMethod="pad">
      <stop offset="0.0" stop-color="#faedc0"/>
      <stop offset="1.0" stop-color="#d6caa4"/>
    </radialGradient>
    <radialGradient cx="0" cy="0" gradientTransform="matrix(0.0054, 0.0, 0.0, 0.0054, -2.0, -42.3)" gradientUnits="userSpaceOnUse" id="gradient9" r="819.2" spreadMethod="pad">
      <stop offset="0.0" stop-color="#d29456"/>
      <stop offset="1.0" stop-color="#a77644"/>
    </radialGradient>
    <radialGradient cx="0" cy="0" gradientTransform="matrix(0.0096, 0.0, 0.0, 0.0096, 15.05, -31.4)" gradientUnits="userSpaceOnUse" id="gradient10" r="819.2" spreadMethod="pad">
      <stop offset="0.0" stop-color="#e6dab1"/>
      <stop offset="1.0" stop-color="#c7bc99"/>
    </radialGradient>
    <radialGradient cx="0" cy="0" gradientTransform="matrix(0.0033, 0.0, 0.0, 0.0033, 15.45, -32.3)" gradientUnits="userSpaceOnUse" id="gradient11" r="819.2" spreadMethod="pad">
      <stop offset="0.0" stop-color="#1f1e18"/>
      <stop offset="1.0" stop-color="#1f1e18"/>
    </radialGradient>
    <radialGradient cx="0" cy="0" gradientTransform="matrix(0.0557, 0.0, 0.0, 0.0557, -29.1, -22.1)" gradientUnits="userSpaceOnUse" id="gradient12" r="819.2" spreadMethod="pad">
      <stop offset="0.0" stop-color="#714121"/>
      <stop offset="1.0" stop-color="#5d351b"/>
    </radialGradient>
    <radialGradient cx="0" cy="0" gradientTransform="matrix(0.0068, 0.0, 0.0, 0.0068, -8.05, -38.6)" gradientUnits="userSpaceOnUse" id="gradient13" r="819.2" spreadMethod="pad">
      <stop offset="0.0" stop-color="#443f31"/>
      <stop offset="1.0" stop-color="#393529"/>
    </radialGradient>
    <radialGradient cx="0" cy="0" gradientTransform="matrix(0.0096, 0.0, 0.0, 0.0096, 8.55, -34.8)" gradientUnits="userSpaceOnUse" id="gradient14" r="819.2" spreadMethod="pad">
      <stop offset="0.0" stop-color="#ffda7f"/>
      <stop offset="1.0" stop-color="#9e6f41"/>
    </radialGradient>
    <radialGradient cx="0" cy="0" gradientTransform="matrix(0.0319, 0.0, 0.0, 0.0319, 14.25, -34.55)" gradientUnits="userSpaceOnUse" id="gradient15" r="819.2" spreadMethod="pad">
      <stop offset="0.0" stop-color="#0c0c09"/>
      <stop offset="1.0" stop-color="#0c0c09"/>
    </radialGradient>
    <radialGradient cx="0" cy="0" gradientTransform="matrix(0.0087, 0.0, 0.0, 0.0087, 10.95, -28.65)" gradientUnits="userSpaceOnUse" id="gradient16" r="819.2" spreadMethod="pad">
      <stop offset="0.0" stop-color="#ffda7f"/>
      <stop offset="1.0" stop-color="#976b3e"/>
    </radialGradient>
    <radialGradient cx="0" cy="0" gradientTransform="matrix(0.0096, 0.0, 0.0, 0.0096, 8.9, -27.6)" gradientUnits="userSpaceOnUse" id="gradient17" r="819.2" spreadMethod="pad">
      <stop offset="0.0" stop-color="#ffd27a"/>
      <stop offset="1.0" stop-color="#835c36"/>
    </radialGradient>
    <radialGradient cx="0" cy="0" gradientTransform="matrix(0.0087, 0.0, 0.0, 0.0087, 2.5, -24.85)" gradientUnits="userSpaceOnUse" id="gradient18" r="819.2" spreadMethod="pad">
      <stop offset="0.0" stop-color="#524c3b"/>
      <stop offset="1.0" stop-color="#484435"/>
    </radialGradient>
    <radialGradient cx="0" cy="0" gradientTransform="matrix(0.0348, 0.0, 0.0, 0.0348, -8.9, -30.9)" gradientUnits="userSpaceOnUse" id="gradient19" r="819.2" spreadMethod="pad">
      <stop offset="0.0" stop-color="#881e1e"/>
      <stop offset="1.0" stop-color="#1f0707"/>
    </radialGradient>
    <radialGradient cx="0" cy="0" gradientTransform="matrix(0.0105, 0.0, 0.0, 0.0105, 4.0, -34.25)" gradientUnits="userSpaceOnUse" id="gradient20" r="819.2" spreadMethod="pad">
      <stop offset="0.0" stop-color="#ffc070"/>
      <stop offset="1.0" stop-color="#91673c"/>
    </radialGradient>
    <radialGradient cx="0" cy="0" gradientTransform="matrix(0.0459, 0.0, 0.0, 0.0459, -0.6, -30.9)" gradientUnits="userSpaceOnUse" id="gradient21" r="819.2" spreadMethod="pad">
      <stop offset="0.0" stop-color="#b42828"/>
      <stop offset="1.0" stop-color="#8f1f1f"/>
    </radialGradient>
    <radialGradient cx="0" cy="0" gradientTransform="matrix(0.0079, 0.0, 0.0, 0.0079, -2.05, -30.55)" gradientUnits="userSpaceOnUse" id="gradient22" r="819.2" spreadMethod="pad">
      <stop offset="0.0" stop-color="#f6eabe"/>
      <stop offset="1.0" stop-color="#a9a082"/>
    </radialGradient>
    <radialGradient cx="0" cy="0" gradientTransform="matrix(0.0031, 0.0, 0.0, 0.0031, -9.5, -26.1)" gradientUnits="userSpaceOnUse" id="gradient23" r="819.2" spreadMethod="pad">
      <stop offset="0.0" stop-color="#ffef8b"/>
      <stop offset="1.0" stop-color="#ad7a47"/>
    </radialGradient>
    <radialGradient cx="0" cy="0" gradientTransform="matrix(0.0039, 0.0, 0.0, 0.0039, -10.45, -26.25)" gradientUnits="userSpaceOnUse" id="gradient24" r="819.2" spreadMethod="pad">
      <stop offset="0.0" stop-color="#67614b"/>
      <stop offset="1.0" stop-color="#28261d"/>
    </radialGradient>
    <radialGradient cx="0" cy="0" gradientTransform="matrix(0.0362, 0.0, 0.0, 0.0362, 3.75, -19.1)" gradientUnits="userSpaceOnUse" id="gradient25" r="819.2" spreadMethod="pad">
      <stop offset="0.0" stop-color="#504b3a"/>
      <stop offset="1.0" stop-color="#433f31"/>
    </radialGradient>
    <radialGradient cx="0" cy="0" gradientTransform="matrix(0.0072, 0.0, 0.0, 0.0072, 1.45, -18.05)" gradientUnits="userSpaceOnUse" id="gradient26" r="819.2" spreadMethod="pad">
      <stop offset="0.0" stop-color="#fff5c7"/>
      <stop offset="1.0" stop-color="#aea586"/>
    </radialGradient>
    <radialGradient cx="0" cy="0" gradientTransform="matrix(0.0093, 0.0, 0.0, 0.0093, 0.75, -13.85)" gradientUnits="userSpaceOnUse" id="gradient27" r="819.2" spreadMethod="pad">
      <stop offset="0.0" stop-color="#fffacb"/>
      <stop offset="1.0" stop-color="#a59c7f"/>
    </radialGradient>
    <radialGradient cx="0" cy="0" gradientTransform="matrix(0.0026, 0.0, 0.0, 0.0026, -9.6, -15.45)" gradientUnits="userSpaceOnUse" id="gradient28" r="819.2" spreadMethod="pad">
      <stop offset="0.0" stop-color="#1f1e18"/>
      <stop offset="1.0" stop-color="#1f1e18"/>
    </radialGradient>
    <radialGradient cx="0" cy="0" gradientTransform="matrix(0.0031, 0.0, 0.0, 0.0031, -10.7, -16.85)" gradientUnits="userSpaceOnUse" id="gradient29" r="819.2" spreadMethod="pad">
      <stop offset="0.0" stop-color="#7e7761"/>
      <stop offset="1.0" stop-color="#1f1e18"/>
    </radialGradient>
    <radialGradient cx="0" cy="0" gradientTransform="matrix(0.012, 0.0, 0.0, 0.012, -5.45, -22.15)" gradientUnits="userSpaceOnUse" id="gradient30" r="819.2" spreadMethod="pad">
      <stop offset="0.0" stop-color="#aaa183"/>
      <stop offset="1.0" stop-color="#76705b"/>
    </radialGradient>
    <radialGradient cx="0" cy="0" gradientTransform="matrix(0.0024, 0.0, 0.0, 0.0024, -8.95, -18.85)" gradientUnits="userSpaceOnUse" id="gradient31" r="819.2" spreadMethod="pad">
      <stop offset="0.0" stop-color="#90896f"/>
      <stop offset="1.0" stop-color="#79735e"/>
    </radialGradient>
    <radialGradient cx="0" cy="0" gradientTransform="matrix(0.0328, 0.0, 0.0, 0.0328, 5.4, -16.85)" gradientUnits="userSpaceOnUse" id="gradient32" r="819.2" spreadMethod="pad">
      <stop offset="0.0" stop-color="#c22b2b"/>
      <stop offset="1.0" stop-color="#a02424"/>
    </radialGradient>
    <radialGradient cx="0" cy="0" gradientTransform="matrix(0.0086, 0.0, 0.0, 0.0086, -7.5, -29.85)" gradientUnits="userSpaceOnUse" id="gradient33" r="819.2" spreadMethod="pad">
      <stop offset="0.0" stop-color="#fffccd"/>
      <stop offset="1.0" stop-color="#9c9478"/>
    </radialGradient>
    <radialGradient cx="0" cy="0" gradientTransform="matrix(0.0161, 0.0, 0.0, 0.0161, -38.8, -24.45)" gradientUnits="userSpaceOnUse" id="gradient34" r="819.2" spreadMethod="pad">
      <stop offset="0.0" stop-color="#7c4724"/>
      <stop offset="1.0" stop-color="#311c0e"/>
    </radialGradient>
    <radialGradient cx="0" cy="0" gradientTransform="matrix(0.0044, 0.0, 0.0, 0.0044, -27.7, -22.45)" gradientUnits="userSpaceOnUse" id="gradient35" r="819.2" spreadMethod="pad">
      <stop offset="0.0" stop-color="#f7eabe"/>
      <stop offset="1.0" stop-color="#c4ba97"/>
    </radialGradient>
    <radialGradient cx="0" cy="0" gradientTransform="matrix(0.0034, 0.0, 0.0, 0.0034, -30.25, -22.5)" gradientUnits="userSpaceOnUse" id="gradient36" r="819.2" spreadMethod="pad">
      <stop offset="0.0" stop-color="#1f1e18"/>
      <stop offset="1.0" stop-color="#1f1e18"/>
    </radialGradient>
    <radialGradient cx="0" cy="0" gradientTransform="matrix(0.0017, 0.0, 0.0, 0.0017, -29.3, -21.6)" gradientUnits="userSpaceOnUse" id="gradient37" r="819.2" spreadMethod="pad">
      <stop offset="0.0" stop-color="#4e2d17"/>
      <stop offset="1.0" stop-color="#4e2d17"/>
    </radialGradient>
    <radialGradient cx="0" cy="0" gradientTransform="matrix(0.0019, 0.0, 0.0, 0.0019, 12.7, -22.6)" gradientUnits="userSpaceOnUse" id="gradient38" r="819.2" spreadMethod="pad">
      <stop offset="0.0" stop-color="#433f31"/>
      <stop offset="1.0" stop-color="#383528"/>
    </radialGradient>
    <radialGradient cx="0" cy="0" gradientTransform="matrix(0.0024, 0.0, 0.0, 0.0024, 12.05, -21.25)" gradientUnits="userSpaceOnUse" id="gradient39" r="819.2" spreadMethod="pad">
      <stop offset="0.0" stop-color="#4b4636"/>
      <stop offset="1.0" stop-color="#3e3a2e"/>
    </radialGradient>
    <radialGradient cx="0" cy="0" gradientTransform="matrix(0.0097, 0.0, 0.0, 0.0097, 12.0, -20.1)" gradientUnits="userSpaceOnUse" id="gradient40" r="819.2" spreadMethod="pad">
      <stop offset="0.0" stop-color="#615b46"/>
      <stop offset="1.0" stop-color="#322f24"/>
    </radialGradient>
    <radialGradient cx="0" cy="0" gradientTransform="matrix(0.0043, 0.0, 0.0, 0.0043, 9.55, -13.2)" gradientUnits="userSpaceOnUse" id="gradient41" r="819.2" spreadMethod="pad">
      <stop offset="0.0" stop-color="#ffea88"/>
      <stop offset="1.0" stop-color="#b57f4a"/>
    </radialGradient>
    <radialGradient cx="0" cy="0" gradientTransform="matrix(0.0041, 0.0, 0.0, 0.0041, 10.2, -12.15)" gradientUnits="userSpaceOnUse" id="gradient42" r="819.2" spreadMethod="pad">
      <stop offset="0.0" stop-color="#6c654f"/>
      <stop offset="1.0" stop-color="#2e2b22"/>
    </radialGradient>
    <radialGradient cx="0" cy="0" gradientTransform="matrix(0.0215, 0.0, 0.0, 0.0215, -5.1, 7.7)" gradientUnits="userSpaceOnUse" id="gradient43" r="819.2" spreadMethod="pad">
      <stop offset="0.0" stop-color="#5b5542"/>
      <stop offset="1.0" stop-color="#3b382b"/>
    </radialGradient>
  </defs>
</svg>
