<?xml version="1.0" encoding="UTF-8" standalone="no"?>
<svg xmlns:ffdec="https://www.free-decompiler.com/flash" xmlns:xlink="http://www.w3.org/1999/xlink" ffdec:objectType="shape" height="71.3px" width="48.2px" xmlns="http://www.w3.org/2000/svg">
  <g transform="matrix(1.0, 0.0, 0.0, 1.0, 21.1, 58.0)">
    <path d="M-10.6 -48.1 L-10.7 -48.0 -10.7 -48.1 -10.6 -48.1" fill="url(#gradient0)" fill-rule="evenodd" stroke="none"/>
    <path d="M-10.7 -48.1 L-10.7 -48.0 -11.2 -45.8 -11.35 -43.75 Q-12.95 -44.15 -12.05 -46.15 -11.7 -46.95 -12.55 -48.7 L-15.25 -52.8 -17.95 -55.55 Q-21.6 -58.85 -19.8 -54.55 L-21.0 -56.85 -21.1 -57.55 -20.95 -58.0 Q-14.25 -56.75 -10.7 -48.1" fill="url(#gradient1)" fill-rule="evenodd" stroke="none"/>
    <path d="M-11.35 -43.75 L-11.25 -41.65 -11.55 -41.45 -14.45 -45.25 -14.5 -45.5 -13.5 -46.45 -12.75 -46.85 -12.55 -46.85 -12.05 -46.15 Q-12.95 -44.15 -11.35 -43.75" fill="url(#gradient2)" fill-rule="evenodd" stroke="none"/>
    <path d="M-11.25 -41.65 L-11.1 -40.95 -11.55 -41.45 -11.25 -41.65 M-10.8 -40.5 L-10.55 -40.35 -10.6 -40.15 -10.8 -40.5 M9.25 -17.1 L19.85 -2.65 19.5 -2.15 18.05 -1.25 18.0 -1.3 8.95 -13.55 9.25 -17.1" fill="url(#gradient3)" fill-rule="evenodd" stroke="none"/>
    <path d="M-10.7 -48.0 L-10.6 -48.1 Q-8.35 -53.3 -5.85 -52.3 0.9 -50.65 1.9 -46.5 L2.25 -45.35 2.4 -44.8 2.7 -43.35 2.6 -41.5 2.3 -40.65 2.0 -40.2 1.45 -39.7 0.0 -38.7 -1.05 -38.3 Q-2.6 -37.7 -10.55 -40.35 L-10.8 -40.5 -11.1 -40.95 -11.25 -41.65 -11.35 -43.75 -11.2 -45.8 -10.7 -48.0" fill="url(#gradient4)" fill-rule="evenodd" stroke="none"/>
    <path d="M2.25 -45.35 L1.9 -46.5 Q5.0 -46.8 7.6 -44.4 L9.75 -41.1 10.4 -37.55 10.2 -29.9 Q9.45 -23.55 9.25 -17.1 L8.95 -13.55 8.9 -10.55 8.45 -6.05 Q8.05 -0.1 6.2 -0.3 -2.15 -0.4 -2.55 -4.55 -2.05 -5.75 -2.3 -6.5 L-2.8 -7.6 -2.8 -10.8 -2.8 -12.05 -2.9 -12.5 -2.65 -17.35 Q-2.6 -19.05 -3.25 -21.1 L-3.75 -22.65 -4.9 -24.5 Q-5.4 -25.85 -8.0 -28.95 L-11.1 -32.35 -11.7 -33.85 -11.9 -34.4 Q-12.25 -34.7 -12.35 -36.6 L-11.7 -37.9 -10.6 -38.9 -10.15 -37.85 -9.7 -37.5 -10.55 -36.75 -10.6 -35.75 Q-4.6 -32.9 -3.9 -33.05 L-3.75 -32.7 Q1.05 -34.15 2.05 -35.1 2.6 -34.85 3.95 -35.45 L4.7 -35.3 4.7 -35.75 Q4.6 -37.7 6.15 -41.15 L6.05 -42.15 5.55 -42.9 3.6 -44.75 2.25 -45.35" fill="url(#gradient5)" fill-rule="evenodd" stroke="none"/>
    <path d="M8.45 -6.05 Q9.5 -3.55 11.75 0.15 L13.05 3.05 Q17.0 12.0 4.9 11.5 -12.8 10.55 -15.75 -0.2 L-15.9 -0.8 -16.0 -1.0 -15.95 -1.25 -15.9 -2.0 -15.9 -2.15 -15.8 -2.25 -14.45 -7.3 -13.85 -8.1 -12.15 -10.35 -10.85 -9.25 -9.65 -9.5 -9.4 -9.75 Q-9.25 -12.1 -10.3 -12.05 L-11.45 -13.15 -11.45 -13.45 -11.2 -15.95 -9.6 -15.4 -8.65 -15.75 -7.65 -14.95 -8.4 -13.2 -8.4 -12.05 -8.15 -10.75 -7.0 -8.4 -7.35 -7.7 Q-8.85 -5.25 -6.8 -3.55 -4.25 -2.15 -2.55 -4.55 -2.15 -0.4 6.2 -0.3 8.05 -0.1 8.45 -6.05 M-3.25 -21.1 Q-2.6 -19.05 -2.65 -17.35 L-2.9 -12.5 Q-3.25 -13.7 -3.2 -15.15 L-3.9 -16.15 -3.45 -17.35 -3.45 -18.7 -3.2 -19.8 -3.25 -21.1 M-2.8 -10.8 L-2.8 -7.6 -3.25 -8.1 -2.8 -10.8 M-10.15 -17.7 L-10.9 -18.05 -10.8 -19.0 -10.15 -17.7" fill="url(#gradient6)" fill-rule="evenodd" stroke="none"/>
    <path d="M-2.8 -7.6 L-2.3 -6.5 Q-2.05 -5.75 -2.55 -4.55 -4.25 -2.15 -6.8 -3.55 -8.85 -5.25 -7.35 -7.7 L-7.05 -8.0 -6.85 -7.95 Q-6.95 -7.1 -6.4 -6.55 L-4.95 -5.85 Q-4.15 -6.5 -3.45 -6.55 L-3.25 -8.1 -2.8 -7.6" fill="url(#gradient7)" fill-rule="evenodd" stroke="none"/>
    <path d="M-2.9 -12.5 L-2.8 -12.05 -2.8 -10.8 -3.25 -8.1 -3.45 -6.55 Q-4.15 -6.5 -4.95 -5.85 L-6.4 -6.55 Q-6.95 -7.1 -6.85 -7.95 L-7.0 -8.4 -8.15 -10.75 -8.4 -12.05 -8.4 -13.2 -7.65 -14.95 -7.45 -15.45 -6.85 -15.3 Q-4.0 -13.75 -4.1 -16.0 L-3.9 -16.15 -3.2 -15.15 Q-3.25 -13.7 -2.9 -12.5" fill="url(#gradient8)" fill-rule="evenodd" stroke="none"/>
    <path d="M-5.7 -23.85 L-5.65 -23.9 -4.9 -24.5 -3.75 -22.65 -3.25 -21.1 -3.2 -19.8 -3.45 -18.7 -3.85 -19.95 Q-4.2 -20.7 -4.75 -20.8 L-5.05 -22.15 -5.7 -23.55 -5.7 -23.85" fill="url(#gradient9)" fill-rule="evenodd" stroke="none"/>
    <path d="M-11.25 -24.9 Q-13.2 -29.8 -11.1 -32.35 L-8.0 -28.95 Q-5.4 -25.85 -4.9 -24.5 L-5.65 -23.9 -5.7 -23.85 -5.85 -23.85 -5.9 -23.9 -6.4 -24.1 -9.0 -23.9 -9.55 -23.8 -10.2 -23.9 -10.35 -23.9 -11.05 -24.65 -11.25 -24.9" fill="url(#gradient10)" fill-rule="evenodd" stroke="none"/>
    <path d="M-1.05 -38.3 L0.0 -38.7 1.45 -39.7 2.0 -40.2 2.3 -40.65 2.6 -41.5 Q4.85 -43.1 2.4 -44.8 L2.25 -45.35 3.6 -44.75 5.55 -42.9 6.05 -42.15 6.15 -41.15 Q4.6 -37.7 4.7 -35.75 L4.7 -35.3 3.95 -35.45 Q2.6 -34.85 2.05 -35.1 1.05 -34.15 -3.75 -32.7 L-3.9 -33.05 Q-4.6 -32.9 -10.6 -35.75 L-10.55 -36.75 -9.7 -37.5 -9.3 -37.0 -8.75 -37.0 -3.8 -37.4 -2.95 -37.25 -1.05 -38.3 M-10.7 -39.5 L-10.6 -38.9 -11.7 -37.9 -10.7 -39.5" fill="url(#gradient11)" fill-rule="evenodd" stroke="none"/>
    <path d="M-10.55 -40.35 Q-2.6 -37.7 -1.05 -38.3 L-2.95 -37.25 -3.8 -37.4 -8.75 -37.0 -9.3 -37.0 -9.7 -37.5 -10.15 -37.85 -10.6 -38.9 -10.7 -39.5 -10.6 -40.15 -10.55 -40.35 M2.6 -41.5 L2.7 -43.35 2.4 -44.8 Q4.85 -43.1 2.6 -41.5" fill="url(#gradient12)" fill-rule="evenodd" stroke="none"/>
    <path d="M-11.45 -21.85 L-11.4 -22.45 -11.05 -20.0 -11.4 -18.85 -11.65 -19.3 -11.65 -19.7 -11.5 -20.75 -11.5 -21.1 -11.45 -21.85 M-11.35 -23.7 L-11.25 -24.05 -11.25 -23.9 -11.35 -23.7 M-11.25 -24.1 L-11.25 -24.9 -11.05 -24.65 -11.25 -24.1 M-11.85 -16.6 L-11.7 -16.45 -11.75 -16.2 -11.85 -16.6" fill="url(#gradient13)" fill-rule="evenodd" stroke="none"/>
    <path d="M-11.4 -22.45 L-11.35 -23.7 -11.25 -23.9 -11.25 -24.05 -11.25 -24.1 -11.05 -24.65 -10.35 -23.9 Q-11.55 -21.85 -9.7 -17.85 -7.4 -14.7 -5.4 -16.95 L-5.35 -16.45 -6.55 -15.9 -6.8 -15.4 -6.9 -15.45 -6.85 -15.3 -7.45 -15.45 -7.65 -14.95 -8.65 -15.75 -9.55 -16.65 -10.15 -17.7 -10.8 -19.0 -11.05 -20.0 -11.4 -22.45 M-5.85 -23.85 L-5.7 -23.85 -5.7 -23.55 -5.85 -23.85" fill="url(#gradient14)" fill-rule="evenodd" stroke="none"/>
    <path d="M-10.35 -23.9 L-10.2 -23.9 -9.55 -23.8 -9.0 -23.9 -6.4 -24.1 -5.9 -23.9 -5.85 -23.85 -5.7 -23.55 -5.05 -22.15 -4.75 -20.8 -4.75 -19.35 Q-5.0 -17.4 -5.4 -16.95 -7.4 -14.7 -9.7 -17.85 -11.55 -21.85 -10.35 -23.9" fill="url(#gradient15)" fill-rule="evenodd" stroke="none"/>
    <path d="M-5.4 -16.95 Q-5.0 -17.4 -4.75 -19.35 L-4.75 -20.8 Q-4.2 -20.7 -3.85 -19.95 L-3.45 -18.7 -3.45 -17.35 -3.9 -16.15 -4.1 -16.0 -4.7 -15.8 -5.35 -16.45 -5.4 -16.95" fill="url(#gradient16)" fill-rule="evenodd" stroke="none"/>
    <path d="M-11.4 -18.85 L-11.05 -20.0 -10.8 -19.0 -10.9 -18.05 -11.4 -18.85" fill="url(#gradient17)" fill-rule="evenodd" stroke="none"/>
    <path d="M-12.4 -17.6 L-12.55 -19.65 -11.7 -21.6 -11.45 -21.85 -11.5 -21.1 -11.65 -20.7 -11.65 -19.7 -11.65 -19.3 -11.4 -18.85 -10.9 -18.05 -10.15 -17.7 -9.55 -16.65 -8.65 -15.75 -9.6 -15.4 -11.2 -15.95 -11.7 -16.45 -11.85 -16.6 -11.9 -16.7 -12.2 -17.2 -12.4 -17.6" fill="url(#gradient18)" fill-rule="evenodd" stroke="none"/>
    <path d="M-11.5 -21.1 L-11.5 -20.75 -11.65 -20.7 -11.5 -21.1" fill="url(#gradient19)" fill-rule="evenodd" stroke="none"/>
    <path d="M-12.75 -12.1 Q-13.05 -11.7 -12.8 -16.55 L-12.4 -17.6 -12.2 -17.2 -12.2 -16.1 -12.2 -15.3 -11.65 -13.8 -11.55 -13.4 -11.5 -13.3 -11.45 -13.15 -10.3 -12.05 Q-9.25 -12.1 -9.4 -9.75 L-9.65 -9.5 -10.85 -9.25 -12.15 -10.35 -12.55 -11.35 -12.7 -12.05 -12.75 -12.1" fill="url(#gradient20)" fill-rule="evenodd" stroke="none"/>
    <path d="M-13.85 -10.3 L-13.65 -10.6 -13.7 -10.35 -13.85 -10.3 M-13.6 -10.7 L-12.75 -12.1 -12.7 -12.05 -12.55 -11.35 -13.3 -11.0 -13.55 -10.7 -13.6 -10.7 M-11.6 -13.8 L-11.5 -13.45 -11.5 -13.4 -11.55 -13.4 -11.65 -13.8 -11.6 -13.8" fill="url(#gradient21)" fill-rule="evenodd" stroke="none"/>
    <path d="M-13.85 -8.1 L-14.0 -10.1 -13.85 -10.3 -13.7 -10.35 -13.65 -10.6 -13.6 -10.7 -13.55 -10.7 -13.3 -11.0 -12.55 -11.35 -12.15 -10.35 -13.85 -8.1" fill="url(#gradient22)" fill-rule="evenodd" stroke="none"/>
    <path d="M-6.85 -15.3 L-6.9 -15.45 -6.8 -15.4 -6.55 -15.9 -5.35 -16.45 -4.7 -15.8 -4.1 -16.0 Q-4.0 -13.75 -6.85 -15.3" fill="url(#gradient23)" fill-rule="evenodd" stroke="none"/>
    <path d="M-11.7 -16.45 L-11.2 -15.95 -11.45 -13.45 -11.5 -13.45 -11.6 -13.8 -11.7 -15.15 -11.75 -15.35 -11.75 -16.2 -11.7 -16.45 M-11.5 -13.4 L-11.5 -13.3 -11.55 -13.4 -11.5 -13.4" fill="url(#gradient24)" fill-rule="evenodd" stroke="none"/>
    <path d="M-12.2 -17.2 L-11.9 -16.7 -12.2 -16.1 -12.2 -17.2" fill="url(#gradient25)" fill-rule="evenodd" stroke="none"/>
    <path d="M-7.0 -8.4 L-6.85 -7.95 -7.05 -8.0 -7.35 -7.7 -7.0 -8.4" fill="url(#gradient26)" fill-rule="evenodd" stroke="none"/>
    <path d="M-11.5 -13.45 L-11.45 -13.45 -11.45 -13.15 -11.5 -13.3 -11.5 -13.4 -11.5 -13.45" fill="url(#gradient27)" fill-rule="evenodd" stroke="none"/>
    <path d="M13.05 3.05 Q20.1 15.05 1.3 13.0 -14.9 11.25 -15.9 -0.8 L-15.75 -0.2 Q-12.8 10.55 4.9 11.5 17.0 12.0 13.05 3.05 M-15.95 -1.25 L-16.0 -1.75 -15.95 -1.75 -15.95 -1.9 -15.9 -2.0 -15.95 -1.25" fill="url(#gradient28)" fill-rule="evenodd" stroke="none"/>
    <path d="M-16.0 -1.75 L-16.0 -1.8 -15.95 -1.9 -15.95 -1.75 -16.0 -1.75" fill="url(#gradient29)" fill-rule="evenodd" stroke="none"/>
    <path d="M19.85 -2.65 L27.1 7.0 Q27.15 7.5 26.2 8.05 25.3 8.8 24.95 8.3 L18.0 -1.2 18.05 -1.2 18.05 -1.25 19.5 -2.15 19.85 -2.65" fill="url(#gradient30)" fill-rule="evenodd" stroke="none"/>
    <path d="M18.0 -1.2 L18.0 -1.3 18.05 -1.25 18.05 -1.2 18.0 -1.2" fill="url(#gradient31)" fill-rule="evenodd" stroke="none"/>
  </g>
  <defs>
    <radialGradient cx="0" cy="0" gradientTransform="matrix(0.0148, 0.0, 0.0, 0.0148, -8.05, -51.95)" gradientUnits="userSpaceOnUse" id="gradient0" r="819.2" spreadMethod="pad">
      <stop offset="0.0" stop-color="#29261e"/>
      <stop offset="1.0" stop-color="#0c0c09"/>
    </radialGradient>
    <radialGradient cx="0" cy="0" gradientTransform="matrix(0.0122, 0.0, 0.0, 0.0122, -13.15, -51.75)" gradientUnits="userSpaceOnUse" id="gradient1" r="819.2" spreadMethod="pad">
      <stop offset="0.0" stop-color="#814a26"/>
      <stop offset="1.0" stop-color="#442713"/>
    </radialGradient>
    <radialGradient cx="0" cy="0" gradientTransform="matrix(0.004, 0.0, 0.0, 0.004, -12.4, -44.7)" gradientUnits="userSpaceOnUse" id="gradient2" r="819.2" spreadMethod="pad">
      <stop offset="0.0" stop-color="#ffffdc"/>
      <stop offset="1.0" stop-color="#d4c9a3"/>
    </radialGradient>
    <radialGradient cx="0" cy="0" gradientTransform="matrix(0.0409, 0.0, 0.0, 0.0409, 6.2, -19.4)" gradientUnits="userSpaceOnUse" id="gradient3" r="819.2" spreadMethod="pad">
      <stop offset="0.0" stop-color="#824a26"/>
      <stop offset="1.0" stop-color="#5d351b"/>
    </radialGradient>
    <radialGradient cx="0" cy="0" gradientTransform="matrix(0.0102, 0.0, 0.0, 0.0102, -4.0, -45.45)" gradientUnits="userSpaceOnUse" id="gradient4" r="819.2" spreadMethod="pad">
      <stop offset="0.0" stop-color="#625c47"/>
      <stop offset="1.0" stop-color="#3f3b2e"/>
    </radialGradient>
    <radialGradient cx="0" cy="0" gradientTransform="matrix(0.0406, 0.0, 0.0, 0.0406, -6.2, -31.3)" gradientUnits="userSpaceOnUse" id="gradient5" r="819.2" spreadMethod="pad">
      <stop offset="0.0" stop-color="#645d48"/>
      <stop offset="1.0" stop-color="#393529"/>
    </radialGradient>
    <radialGradient cx="0" cy="0" gradientTransform="matrix(0.034, 0.0, 0.0, 0.034, 5.2, 2.35)" gradientUnits="userSpaceOnUse" id="gradient6" r="819.2" spreadMethod="pad">
      <stop offset="0.0" stop-color="#ff3939"/>
      <stop offset="1.0" stop-color="#942020"/>
    </radialGradient>
    <radialGradient cx="0" cy="0" gradientTransform="matrix(0.0043, 0.0, 0.0, 0.0043, -5.35, -6.6)" gradientUnits="userSpaceOnUse" id="gradient7" r="819.2" spreadMethod="pad">
      <stop offset="0.0" stop-color="#6c654e"/>
      <stop offset="1.0" stop-color="#302e23"/>
    </radialGradient>
    <radialGradient cx="0" cy="0" gradientTransform="matrix(0.0086, 0.0, 0.0, 0.0086, -5.6, -12.8)" gradientUnits="userSpaceOnUse" id="gradient8" r="819.2" spreadMethod="pad">
      <stop offset="0.0" stop-color="#645d48"/>
      <stop offset="1.0" stop-color="#2d2a21"/>
    </radialGradient>
    <radialGradient cx="0" cy="0" gradientTransform="matrix(0.0077, 0.0, 0.0, 0.0077, -6.15, -24.0)" gradientUnits="userSpaceOnUse" id="gradient9" r="819.2" spreadMethod="pad">
      <stop offset="0.0" stop-color="#ffdb7f"/>
      <stop offset="1.0" stop-color="#ca8e53"/>
    </radialGradient>
    <radialGradient cx="0" cy="0" gradientTransform="matrix(0.0084, 0.0, 0.0, 0.0084, -8.2, -30.15)" gradientUnits="userSpaceOnUse" id="gradient10" r="819.2" spreadMethod="pad">
      <stop offset="0.0" stop-color="#ffd77d"/>
      <stop offset="1.0" stop-color="#b37e49"/>
    </radialGradient>
    <radialGradient cx="0" cy="0" gradientTransform="matrix(0.0167, 0.0, 0.0, 0.0167, -5.55, -35.1)" gradientUnits="userSpaceOnUse" id="gradient11" r="819.2" spreadMethod="pad">
      <stop offset="0.0" stop-color="#655e49"/>
      <stop offset="1.0" stop-color="#403c2e"/>
    </radialGradient>
    <radialGradient cx="0" cy="0" gradientTransform="matrix(0.0109, 0.0, 0.0, 0.0109, -3.65, -38.5)" gradientUnits="userSpaceOnUse" id="gradient12" r="819.2" spreadMethod="pad">
      <stop offset="0.0" stop-color="#645e49"/>
      <stop offset="1.0" stop-color="#3f3a2e"/>
    </radialGradient>
    <radialGradient cx="0" cy="0" gradientTransform="matrix(0.0085, 0.0, 0.0, 0.0085, -10.45, -22.1)" gradientUnits="userSpaceOnUse" id="gradient13" r="819.2" spreadMethod="pad">
      <stop offset="0.0" stop-color="#413d30"/>
      <stop offset="1.0" stop-color="#383529"/>
    </radialGradient>
    <radialGradient cx="0" cy="0" gradientTransform="matrix(0.0107, 0.0, 0.0, 0.0107, -6.3, -23.6)" gradientUnits="userSpaceOnUse" id="gradient14" r="819.2" spreadMethod="pad">
      <stop offset="0.0" stop-color="#ffce78"/>
      <stop offset="1.0" stop-color="#845d36"/>
    </radialGradient>
    <radialGradient cx="0" cy="0" gradientTransform="matrix(0.0087, 0.0, 0.0, 0.0087, -7.4, -23.25)" gradientUnits="userSpaceOnUse" id="gradient15" r="819.2" spreadMethod="pad">
      <stop offset="0.0" stop-color="#ffd87e"/>
      <stop offset="1.0" stop-color="#92673c"/>
    </radialGradient>
    <radialGradient cx="0" cy="0" gradientTransform="matrix(0.0055, 0.0, 0.0, 0.0055, -4.9, -20.35)" gradientUnits="userSpaceOnUse" id="gradient16" r="819.2" spreadMethod="pad">
      <stop offset="0.0" stop-color="#ffdc80"/>
      <stop offset="1.0" stop-color="#92673c"/>
    </radialGradient>
    <radialGradient cx="0" cy="0" gradientTransform="matrix(0.0123, 0.0, 0.0, 0.0123, -11.35, -23.95)" gradientUnits="userSpaceOnUse" id="gradient17" r="819.2" spreadMethod="pad">
      <stop offset="0.0" stop-color="#1f0707"/>
      <stop offset="1.0" stop-color="#1f0707"/>
    </radialGradient>
    <radialGradient cx="0" cy="0" gradientTransform="matrix(0.0071, 0.0, 0.0, 0.0071, -7.85, -17.5)" gradientUnits="userSpaceOnUse" id="gradient18" r="819.2" spreadMethod="pad">
      <stop offset="0.0" stop-color="#ffffd0"/>
      <stop offset="1.0" stop-color="#978f74"/>
    </radialGradient>
    <radialGradient cx="0" cy="0" gradientTransform="matrix(0.0043, 0.0, 0.0, 0.0043, -12.45, -20.0)" gradientUnits="userSpaceOnUse" id="gradient19" r="819.2" spreadMethod="pad">
      <stop offset="0.0" stop-color="#948d72"/>
      <stop offset="1.0" stop-color="#23221b"/>
    </radialGradient>
    <radialGradient cx="0" cy="0" gradientTransform="matrix(0.0101, 0.0, 0.0, 0.0101, -8.45, -11.75)" gradientUnits="userSpaceOnUse" id="gradient20" r="819.2" spreadMethod="pad">
      <stop offset="0.0" stop-color="#ffffd4"/>
      <stop offset="1.0" stop-color="#a39b7e"/>
    </radialGradient>
    <radialGradient cx="0" cy="0" gradientTransform="matrix(0.0033, 0.0, 0.0, 0.0033, -12.0, -11.8)" gradientUnits="userSpaceOnUse" id="gradient21" r="819.2" spreadMethod="pad">
      <stop offset="0.0" stop-color="#3a362a"/>
      <stop offset="1.0" stop-color="#333025"/>
    </radialGradient>
    <radialGradient cx="0" cy="0" gradientTransform="matrix(0.0068, 0.0, 0.0, 0.0068, -13.35, -11.35)" gradientUnits="userSpaceOnUse" id="gradient22" r="819.2" spreadMethod="pad">
      <stop offset="0.0" stop-color="#322f25"/>
      <stop offset="1.0" stop-color="#0c0c09"/>
    </radialGradient>
    <radialGradient cx="0" cy="0" gradientTransform="matrix(0.0031, 0.0, 0.0, 0.0031, -5.6, -16.95)" gradientUnits="userSpaceOnUse" id="gradient23" r="819.2" spreadMethod="pad">
      <stop offset="0.0" stop-color="#5d5744"/>
      <stop offset="1.0" stop-color="#3b362b"/>
    </radialGradient>
    <radialGradient cx="0" cy="0" gradientTransform="matrix(0.0071, 0.0, 0.0, 0.0071, -11.8, -15.25)" gradientUnits="userSpaceOnUse" id="gradient24" r="819.2" spreadMethod="pad">
      <stop offset="0.0" stop-color="#322f25"/>
      <stop offset="1.0" stop-color="#0c0c09"/>
    </radialGradient>
    <radialGradient cx="0" cy="0" gradientTransform="matrix(0.0079, 0.0, 0.0, 0.0079, -12.75, -15.5)" gradientUnits="userSpaceOnUse" id="gradient25" r="819.2" spreadMethod="pad">
      <stop offset="0.0" stop-color="#28261f"/>
      <stop offset="1.0" stop-color="#1f1e18"/>
    </radialGradient>
    <radialGradient cx="0" cy="0" gradientTransform="matrix(0.001, 0.0, 0.0, 0.001, -6.8, -7.85)" gradientUnits="userSpaceOnUse" id="gradient26" r="819.2" spreadMethod="pad">
      <stop offset="0.0" stop-color="#de9d5b"/>
      <stop offset="1.0" stop-color="#b47e4a"/>
    </radialGradient>
    <radialGradient cx="0" cy="0" gradientTransform="matrix(0.0172, 0.0, 0.0, 0.0172, -11.75, -7.5)" gradientUnits="userSpaceOnUse" id="gradient27" r="819.2" spreadMethod="pad">
      <stop offset="0.0" stop-color="#871e1e"/>
      <stop offset="1.0" stop-color="#1f0707"/>
    </radialGradient>
    <radialGradient cx="0" cy="0" gradientTransform="matrix(0.0271, 0.0, 0.0, 0.0271, 0.85, 11.9)" gradientUnits="userSpaceOnUse" id="gradient28" r="819.2" spreadMethod="pad">
      <stop offset="0.0" stop-color="#534e3c"/>
      <stop offset="1.0" stop-color="#373328"/>
    </radialGradient>
    <radialGradient cx="0" cy="0" gradientTransform="matrix(0.0019, 0.0, 0.0, 0.0019, -15.95, -2.1)" gradientUnits="userSpaceOnUse" id="gradient29" r="819.2" spreadMethod="pad">
      <stop offset="0.0" stop-color="#302d23"/>
      <stop offset="1.0" stop-color="#2c2920"/>
    </radialGradient>
    <radialGradient cx="0" cy="0" gradientTransform="matrix(0.0148, 0.0, 0.0, 0.0148, 19.05, -1.9)" gradientUnits="userSpaceOnUse" id="gradient30" r="819.2" spreadMethod="pad">
      <stop offset="0.0" stop-color="#ffffd7"/>
      <stop offset="1.0" stop-color="#e5ddb6"/>
    </radialGradient>
    <radialGradient cx="0" cy="0" gradientTransform="matrix(0.0148, 0.0, 0.0, 0.0148, 18.0, -1.45)" gradientUnits="userSpaceOnUse" id="gradient31" r="819.2" spreadMethod="pad">
      <stop offset="0.0" stop-color="#21201a"/>
      <stop offset="1.0" stop-color="#1f1e18"/>
    </radialGradient>
  </defs>
</svg>
