<?xml version="1.0" encoding="UTF-8" standalone="no"?>
<svg xmlns:ffdec="https://www.free-decompiler.com/flash" xmlns:xlink="http://www.w3.org/1999/xlink" ffdec:objectType="shape" height="58.4px" width="23.0px" xmlns="http://www.w3.org/2000/svg">
  <g transform="matrix(1.0, 0.0, 0.0, 1.0, 2.05, 73.5)">
    <path d="M14.9 -15.1 Q17.05 -17.4 14.85 -19.7 15.45 -20.7 15.25 -21.5 L15.85 -25.35 Q21.4 -21.7 14.9 -15.1" fill="url(#gradient0)" fill-rule="evenodd" stroke="none"/>
    <path d="M2.8 -43.0 Q16.6 -42.9 19.75 -47.1 25.65 -37.85 2.0 -30.0 -2.6 -33.0 -2.0 -39.5 -0.35 -48.3 2.8 -43.0 M0.8 -62.9 Q-0.65 -75.95 3.75 -72.9 25.15 -54.3 19.75 -47.1 17.05 -51.4 7.4 -56.85 1.6 -56.05 0.8 -62.9" fill="url(#gradient1)" fill-rule="evenodd" stroke="none"/>
  </g>
  <defs>
    <linearGradient gradientTransform="matrix(0.001, -7.0E-4, 0.0055, 0.0072, 51.0, 31.65)" gradientUnits="userSpaceOnUse" id="gradient0" spreadMethod="pad" x1="-819.2" x2="819.2">
      <stop offset="0.25882352941176473" stop-color="#fee18f"/>
      <stop offset="0.7607843137254902" stop-color="#fee18f" stop-opacity="0.0"/>
    </linearGradient>
    <linearGradient gradientTransform="matrix(0.0055, 7.0E-4, -0.0011, 0.009, 5.8, -147.95)" gradientUnits="userSpaceOnUse" id="gradient1" spreadMethod="pad" x1="-819.2" x2="819.2">
      <stop offset="0.25882352941176473" stop-color="#fee18f"/>
      <stop offset="0.7607843137254902" stop-color="#fee18f" stop-opacity="0.0"/>
    </linearGradient>
  </defs>
</svg>
