<?xml version="1.0" encoding="UTF-8" standalone="no"?>
<svg xmlns:ffdec="https://www.free-decompiler.com/flash" xmlns:xlink="http://www.w3.org/1999/xlink" ffdec:objectType="shape" height="65.4px" width="56.75px" xmlns="http://www.w3.org/2000/svg">
  <g transform="matrix(1.0, 0.0, 0.0, 1.0, 40.9, 52.7)">
    <path d="M5.1 -45.35 L7.2 -43.45 7.9 -42.5 Q9.6 -40.45 8.5 -39.65 L7.5 -38.85 6.8 -38.9 6.65 -38.4 5.0 -36.8 4.1 -36.9 3.5 -36.75 3.65 -37.2 3.75 -37.3 3.25 -37.65 2.95 -37.65 Q7.1 -41.2 4.85 -43.95 L5.1 -45.35 M-1.45 -35.95 L-0.55 -35.65 -0.3 -35.4 -0.2 -34.95 0.6 -35.0 Q1.35 -34.1 2.3 -34.35 3.2 -33.7 3.85 -33.75 L5.6 -33.85 5.8 -33.75 5.65 -33.55 5.4 -33.45 5.35 -33.45 3.6 -32.9 3.05 -32.8 2.8 -32.75 0.95 -32.45 -1.05 -32.35 -1.05 -32.3 -6.65 -32.15 -8.7 -35.3 -9.35 -36.5 -10.0 -37.6 -10.5 -39.35 -10.7 -41.2 -10.65 -42.4 -10.3 -41.65 Q-9.25 -40.85 -9.1 -41.05 -8.35 -33.95 -1.45 -35.95" fill="url(#gradient0)" fill-rule="evenodd" stroke="none"/>
    <path d="M2.95 -37.65 L3.25 -37.65 3.75 -37.3 3.65 -37.2 3.5 -36.75 4.1 -36.9 5.0 -36.8 6.65 -38.4 6.8 -38.9 7.5 -38.85 8.5 -39.65 Q9.6 -40.45 7.9 -42.5 15.5 -37.0 14.3 -30.65 L14.1 -30.85 14.05 -33.95 13.65 -34.45 12.7 -35.15 11.95 -35.1 10.35 -35.05 5.65 -33.55 5.8 -33.75 5.6 -33.85 3.85 -33.75 Q3.2 -33.7 2.3 -34.35 1.35 -34.1 0.6 -35.0 L-0.2 -34.95 -0.3 -35.4 -0.55 -35.65 -1.45 -35.95 -0.45 -36.65 Q2.85 -37.3 2.95 -37.65 M10.6 -11.55 L9.9 -11.35 8.65 -11.3 8.65 -11.35 9.1 -11.4 9.95 -11.7 10.1 -11.95 10.6 -11.55 M-10.85 -44.7 Q-11.4 -45.9 -8.9 -47.55 L-9.15 -45.8 -9.05 -44.25 -9.1 -44.2 -9.3 -42.65 -9.1 -41.05 Q-9.25 -40.85 -10.3 -41.65 L-10.65 -42.4 -10.9 -43.1 -10.85 -44.7 M3.6 -32.9 L3.4 -32.8 3.05 -32.8 3.6 -32.9" fill="url(#gradient1)" fill-rule="evenodd" stroke="none"/>
    <path d="M4.85 -43.95 Q7.1 -41.2 2.95 -37.65 2.85 -37.3 -0.45 -36.65 L-1.45 -35.95 Q-8.35 -33.95 -9.1 -41.05 L-9.3 -42.65 -9.1 -44.2 -9.05 -44.2 Q-9.4 -40.05 -1.45 -37.85 0.95 -37.3 4.85 -43.95 M-3.95 -39.95 L-4.25 -39.55 -4.65 -39.45 -5.75 -39.65 -5.8 -40.05 -6.25 -40.65 -6.0 -40.9 -5.55 -40.75 -4.65 -40.15 -3.95 -39.95" fill="url(#gradient2)" fill-rule="evenodd" stroke="none"/>
    <path d="M5.1 -45.35 L4.85 -43.95 Q0.95 -37.3 -1.45 -37.85 -9.4 -40.05 -9.05 -44.2 L-9.05 -44.25 -9.15 -45.8 -8.9 -47.55 Q-4.4 -53.5 -0.75 -52.55 5.45 -49.9 5.1 -45.35 M-3.3 -42.3 L-4.2 -44.05 -5.65 -45.8 -7.0 -46.65 Q-7.45 -47.05 -8.0 -45.8 -9.1 -44.45 -6.85 -43.35 L-6.25 -41.65 -5.55 -40.75 -6.0 -40.9 -6.25 -40.65 -5.8 -40.05 -5.75 -39.65 -4.65 -39.45 -4.25 -39.55 -3.95 -39.95 Q-2.55 -39.8 -3.3 -42.3" fill="url(#gradient3)" fill-rule="evenodd" stroke="none"/>
    <path d="M5.65 -33.55 L10.35 -35.05 11.95 -35.1 12.65 -33.6 Q12.95 -32.65 12.85 -31.55 L12.6 -30.05 Q12.5 -29.3 10.65 -27.8 L9.0 -27.35 7.4 -27.55 6.3 -28.05 Q3.65 -30.2 3.4 -32.8 L3.6 -32.9 5.35 -33.45 5.4 -33.45 5.65 -33.55" fill="url(#gradient4)" fill-rule="evenodd" stroke="none"/>
    <path d="M3.4 -32.8 Q3.65 -30.2 6.3 -28.05 L5.95 -27.55 4.35 -26.05 3.75 -25.95 Q3.2 -26.4 2.7 -27.85 L2.55 -29.4 2.8 -32.75 3.05 -32.8 3.4 -32.8" fill="url(#gradient5)" fill-rule="evenodd" stroke="none"/>
    <path d="M-7.0 6.5 Q-7.65 6.85 -8.0 7.6 L-8.25 7.45 -11.55 4.3 -13.65 1.35 -14.25 -1.5 Q-14.45 -3.1 -12.75 -5.4 L-13.35 -3.25 Q-13.6 -0.45 -12.85 0.1 L-12.1 1.9 -9.45 4.7 -9.3 4.6 -8.1 1.2 -4.1 -5.75 Q-0.1 -5.85 -0.05 -11.25 L0.2 -10.9 2.35 -9.8 1.7 -8.15 -5.4 2.65 -7.0 6.5 M2.8 -32.75 L2.55 -29.4 2.7 -27.85 3.05 -24.65 3.4 -22.95 3.4 -22.85 3.75 -21.7 3.75 -17.55 1.25 -17.65 0.3 -18.05 0.3 -20.85 -1.1 -28.5 -1.05 -32.3 -1.05 -32.35 0.95 -32.45 2.8 -32.75 M3.4 -15.1 L2.95 -12.65 0.3 -13.45 -0.35 -13.95 -0.05 -15.75 0.85 -15.2 2.95 -14.95 3.4 -15.1" fill="url(#gradient6)" fill-rule="evenodd" stroke="none"/>
    <path d="M4.35 -26.05 L5.95 -27.55 5.05 -26.1 4.35 -26.05" fill="url(#gradient7)" fill-rule="evenodd" stroke="none"/>
    <path d="M6.3 -28.05 L7.4 -27.55 7.45 -26.65 Q6.95 -24.85 5.85 -23.15 L3.85 -22.6 3.6 -22.85 3.4 -22.95 3.05 -24.65 2.7 -27.85 Q3.2 -26.4 3.75 -25.95 L4.35 -26.05 5.05 -26.1 5.95 -27.55 6.3 -28.05" fill="url(#gradient8)" fill-rule="evenodd" stroke="none"/>
    <path d="M8.65 -11.3 L8.8 -10.3 Q8.65 -7.6 8.9 -5.0 L9.25 -2.45 9.25 -2.05 10.0 0.1 Q14.0 9.4 5.55 10.75 -1.8 10.7 -4.45 7.35 L-5.4 2.65 1.7 -8.15 2.35 -9.8 Q5.85 -8.1 7.55 -11.4 7.9 -11.9 7.7 -12.7 L7.25 -13.4 6.9 -13.4 6.8 -13.1 5.25 -12.55 2.95 -12.65 3.4 -15.1 5.05 -15.45 6.6 -17.0 6.6 -18.95 6.5 -19.35 6.25 -19.55 5.95 -19.45 6.05 -18.6 4.95 -17.8 3.75 -17.55 3.75 -21.7 3.4 -22.85 3.4 -22.95 3.6 -22.85 3.85 -22.6 5.85 -23.15 Q6.95 -24.85 7.45 -26.65 L7.6 -25.75 7.15 -24.7 7.6 -17.0 Q8.45 -14.45 8.65 -11.4 L8.65 -11.35 8.65 -11.3" fill="url(#gradient9)" fill-rule="evenodd" stroke="none"/>
    <path d="M7.4 -27.55 L9.0 -27.35 10.65 -27.8 Q11.95 -21.8 14.5 -24.1 L14.5 -23.95 14.25 -23.65 13.65 -22.85 Q12.3 -21.05 10.2 -22.1 L8.5 -23.7 7.6 -25.75 7.45 -26.65 7.4 -27.55" fill="url(#gradient10)" fill-rule="evenodd" stroke="none"/>
    <path d="M11.95 -35.1 L12.7 -35.15 13.65 -34.45 14.05 -33.95 14.1 -30.85 13.55 -31.3 12.85 -31.55 Q12.95 -32.65 12.65 -33.6 L11.95 -35.1 M10.2 -22.1 L9.95 -21.65 10.0 -20.5 10.95 -18.8 11.5 -16.8 Q7.75 -15.35 10.1 -11.95 L9.95 -11.7 9.1 -11.4 8.65 -11.35 8.65 -11.4 Q8.45 -14.45 7.6 -17.0 L7.15 -24.7 7.6 -25.75 8.5 -23.7 10.2 -22.1" fill="url(#gradient11)" fill-rule="evenodd" stroke="none"/>
    <path d="M14.3 -30.65 Q16.2 -29.15 15.15 -25.1 L14.5 -24.1 Q11.95 -21.8 10.65 -27.8 12.5 -29.3 12.6 -30.05 L12.85 -31.55 13.55 -31.3 14.1 -30.85 14.3 -30.65" fill="url(#gradient12)" fill-rule="evenodd" stroke="none"/>
    <path d="M15.1 -23.8 Q17.0 -21.15 14.15 -15.9 L14.0 -15.45 13.35 -15.2 12.7 -15.9 11.7 -16.15 11.5 -16.8 10.95 -18.8 10.0 -20.5 9.95 -21.65 10.2 -22.1 Q12.3 -21.05 13.65 -22.85 L14.25 -23.65 14.75 -24.0 15.1 -23.8" fill="url(#gradient13)" fill-rule="evenodd" stroke="none"/>
    <path d="M15.15 -25.1 L15.25 -24.6 15.1 -23.8 14.75 -24.0 14.5 -23.95 14.5 -24.1 15.15 -25.1" fill="url(#gradient14)" fill-rule="evenodd" stroke="none"/>
    <path d="M14.5 -23.95 L14.75 -24.0 14.25 -23.65 14.5 -23.95" fill="url(#gradient15)" fill-rule="evenodd" stroke="none"/>
    <path d="M14.15 -15.9 Q16.25 -11.8 11.85 -11.55 13.1 -12.0 13.35 -15.2 L14.0 -15.45 14.15 -15.9 M11.05 -11.55 L10.6 -11.55 10.1 -11.95 Q7.75 -15.35 11.5 -16.8 L11.7 -16.15 Q9.4 -14.4 10.6 -11.7 L11.05 -11.55" fill="url(#gradient16)" fill-rule="evenodd" stroke="none"/>
    <path d="M11.85 -11.55 L11.05 -11.55 10.6 -11.7 Q9.4 -14.4 11.7 -16.15 L12.7 -15.9 13.35 -15.2 Q13.1 -12.0 11.85 -11.55" fill="url(#gradient17)" fill-rule="evenodd" stroke="none"/>
    <path d="M0.3 -18.05 L1.25 -17.65 3.75 -17.55 4.95 -17.8 6.05 -18.6 5.95 -19.45 6.25 -19.55 6.5 -19.35 6.6 -18.95 6.6 -17.0 5.05 -15.45 3.4 -15.1 2.95 -14.95 0.85 -15.2 -0.05 -15.75 -1.1 -16.45 -1.6 -18.4 -1.25 -18.75 -0.9 -18.75 0.3 -18.05" fill="url(#gradient18)" fill-rule="evenodd" stroke="none"/>
    <path d="M-0.35 -13.95 L0.3 -13.45 2.95 -12.65 5.25 -12.55 6.8 -13.1 6.9 -13.4 7.25 -13.4 7.7 -12.7 Q7.9 -11.9 7.55 -11.4 5.85 -8.1 2.35 -9.8 L0.2 -10.9 -0.05 -11.25 -0.05 -11.4 -0.8 -12.9 -1.7 -13.75 -1.85 -15.0 -1.85 -15.3 -1.6 -15.45 -1.35 -15.35 Q-1.55 -14.4 -0.35 -13.95" fill="url(#gradient19)" fill-rule="evenodd" stroke="none"/>
    <path d="M-12.75 -5.4 L-12.7 -5.55 -11.25 -10.5 -10.8 -13.85 Q-6.3 -15.3 -3.2 -11.4 -1.4 -5.3 -7.35 -6.7 L-5.5 -5.8 -4.1 -5.75 -8.1 1.2 -9.3 4.6 -9.45 4.7 -12.1 1.9 -12.85 0.1 Q-13.6 -0.45 -13.35 -3.25 L-12.75 -5.4 M-1.05 -32.3 L-1.1 -28.5 0.3 -20.85 0.3 -18.05 -0.9 -18.75 -1.25 -18.75 -1.6 -18.4 -1.1 -16.45 -0.05 -15.75 -0.35 -13.95 Q-1.55 -14.4 -1.35 -15.35 L-1.6 -15.45 -1.85 -15.3 -1.85 -15.0 -1.7 -13.75 Q-6.2 -17.1 -10.2 -15.85 L-8.75 -17.15 -8.75 -18.1 -9.0 -18.8 -10.4 -17.5 -10.45 -17.85 -10.1 -28.05 Q-9.4 -31.1 -9.05 -31.35 L-9.1 -32.75 -9.0 -34.35 -8.7 -35.3 -6.65 -32.15 -1.05 -32.3 M-8.2 -33.25 L-8.35 -31.95 -7.5 -30.15 Q-6.05 -28.4 -4.75 -28.2 L-3.4 -28.35 -3.3 -28.6 -2.55 -30.05 -2.85 -30.45 -3.15 -30.45 -3.5 -30.0 -5.0 -30.0 -6.15 -30.5 -7.4 -31.6 Q-7.85 -33.95 -8.05 -33.45 L-8.2 -33.25 M-8.2 -28.55 L-8.15 -28.45 -8.1 -28.3 -7.25 -26.6 -5.65 -25.05 -4.05 -24.55 Q-2.15 -25.2 -2.6 -25.95 L-2.65 -26.25 -3.0 -26.5 -4.65 -26.25 -6.4 -26.65 -7.5 -27.6 -8.0 -29.7 -8.15 -30.0 -8.3 -29.95 -8.45 -29.8 -8.45 -29.1 -8.2 -28.55" fill="url(#gradient20)" fill-rule="evenodd" stroke="none"/>
    <path d="M9.25 -2.45 Q11.85 0.95 11.9 7.95 L10.8 9.8 8.0 11.7 Q2.25 13.6 -0.45 11.85 L-6.85 8.35 -7.0 6.5 -5.4 2.65 -4.45 7.35 Q-1.8 10.7 5.55 10.75 14.0 9.4 10.0 0.1 L9.25 -2.05 9.25 -2.45" fill="url(#gradient21)" fill-rule="evenodd" stroke="none"/>
    <path d="M-6.85 -43.35 Q-9.1 -44.45 -8.0 -45.8 -7.45 -47.05 -7.0 -46.65 L-5.65 -45.8 -4.2 -44.05 -3.3 -42.3 -4.85 -42.6 -6.85 -43.35" fill="url(#gradient22)" fill-rule="evenodd" stroke="none"/>
    <path d="M-9.05 -44.2 L-9.1 -44.2 -9.05 -44.25 -9.05 -44.2" fill="url(#gradient23)" fill-rule="evenodd" stroke="none"/>
    <path d="M-6.85 -43.35 L-4.85 -42.6 -3.3 -42.3 Q-2.55 -39.8 -3.95 -39.95 L-4.65 -40.15 -5.55 -40.75 -6.25 -41.65 -6.85 -43.35" fill="url(#gradient24)" fill-rule="evenodd" stroke="none"/>
    <path d="M-13.2 -40.3 Q-12.6 -43.45 -10.85 -44.7 L-10.9 -43.1 -10.65 -42.4 -10.7 -41.2 -10.5 -39.35 -11.05 -39.55 -12.05 -39.6 -13.2 -40.3" fill="url(#gradient25)" fill-rule="evenodd" stroke="none"/>
    <path d="M-17.3 -33.4 L-17.25 -33.35 -16.55 -34.35 -16.35 -34.75 -16.15 -34.75 -16.15 -34.95 -13.6 -37.85 -13.15 -38.55 -13.05 -38.5 -12.05 -39.6 -11.05 -39.55 -10.5 -39.35 -10.0 -37.6 -9.35 -36.5 -9.75 -35.7 -11.15 -33.45 -12.85 -31.65 -12.9 -31.6 -14.7 -30.45 Q-16.95 -30.2 -17.4 -33.0 L-17.3 -33.4" fill="url(#gradient26)" fill-rule="evenodd" stroke="none"/>
    <path d="M-17.4 -33.4 Q-17.8 -36.95 -13.2 -40.3 L-12.05 -39.6 -13.05 -38.5 -13.15 -38.55 -13.6 -37.85 -16.15 -34.95 -16.15 -34.75 -16.35 -34.75 -16.55 -34.35 -17.25 -33.35 -17.3 -33.4 -17.4 -33.4" fill="url(#gradient27)" fill-rule="evenodd" stroke="none"/>
    <path d="M-12.85 -31.65 L-11.15 -33.45 -9.75 -35.7 -9.85 -35.15 -11.1 -33.25 Q-12.1 -32.05 -12.85 -31.65" fill="url(#gradient28)" fill-rule="evenodd" stroke="none"/>
    <path d="M-17.65 -33.0 L-17.4 -33.4 -17.3 -33.4 -17.4 -33.0 -17.65 -33.0" fill="url(#gradient29)" fill-rule="evenodd" stroke="none"/>
    <path d="M-23.25 -24.4 Q-22.8 -30.65 -17.65 -33.0 L-17.4 -33.0 Q-16.95 -30.2 -14.7 -30.45 -14.45 -30.0 -15.85 -27.85 L-20.6 -22.4 -21.1 -22.85 -21.35 -22.9 -22.05 -23.75 -23.25 -24.4" fill="url(#gradient30)" fill-rule="evenodd" stroke="none"/>
    <path d="M-9.75 -35.7 L-9.35 -36.5 -8.7 -35.3 -9.0 -34.35 -9.1 -32.75 -9.85 -35.15 -9.75 -35.7" fill="url(#gradient31)" fill-rule="evenodd" stroke="none"/>
    <path d="M-8.2 -33.25 L-8.05 -33.45 Q-7.85 -33.95 -7.4 -31.6 L-6.15 -30.5 -5.0 -30.0 -3.5 -30.0 -3.15 -30.45 -2.85 -30.45 -2.55 -30.05 -3.3 -28.6 -3.4 -28.35 -4.75 -28.2 Q-6.05 -28.4 -7.5 -30.15 L-8.35 -31.95 -8.2 -33.25" fill="url(#gradient32)" fill-rule="evenodd" stroke="none"/>
    <path d="M-8.45 -29.1 L-8.45 -29.8 -8.3 -29.95 -8.15 -30.0 -8.0 -29.7 -7.5 -27.6 -6.4 -26.65 -4.65 -26.25 -3.0 -26.5 -2.65 -26.25 -2.6 -25.95 Q-2.15 -25.2 -4.05 -24.55 L-5.65 -25.05 -7.25 -26.6 -8.1 -28.3 -8.15 -28.45 -8.2 -28.55 -8.25 -29.0 -8.45 -29.1" fill="url(#gradient33)" fill-rule="evenodd" stroke="none"/>
    <path d="M-8.45 -29.1 L-8.25 -29.0 -8.2 -28.55 -8.45 -29.1" fill="url(#gradient34)" fill-rule="evenodd" stroke="none"/>
    <path d="M-37.35 -30.9 L-40.35 -33.55 -40.9 -34.35 Q-39.7 -37.05 -37.6 -34.35 L-35.6 -32.55 Q-37.5 -33.35 -37.25 -30.9 L-37.35 -30.9" fill="url(#gradient35)" fill-rule="evenodd" stroke="none"/>
    <path d="M-17.85 -13.75 L-23.05 -18.3 -23.8 -19.0 Q-25.05 -20.15 -23.85 -21.3 L-22.7 -21.55 -21.65 -20.85 -20.75 -20.1 -15.8 -15.9 Q-18.15 -15.9 -17.85 -13.75 M-27.05 -21.9 L-37.0 -30.65 -37.25 -30.9 Q-37.5 -33.35 -35.6 -32.55 L-25.55 -24.1 -25.95 -23.85 -26.8 -22.85 -27.05 -21.9 M-12.9 -13.5 L-13.8 -13.55 -14.75 -12.9 -13.7 -13.65 -12.9 -13.5" fill="url(#gradient36)" fill-rule="evenodd" stroke="none"/>
    <path d="M-37.0 -30.65 L-37.35 -30.9 -37.25 -30.9 -37.0 -30.65" fill="url(#gradient37)" fill-rule="evenodd" stroke="none"/>
    <path d="M-24.05 -18.4 Q-27.35 -18.75 -27.05 -21.9 L-26.8 -22.85 -25.95 -23.85 -25.55 -24.1 -24.6 -24.45 -23.25 -24.4 -22.05 -23.75 -21.35 -22.9 -21.35 -22.85 -21.3 -22.3 -21.65 -20.85 -22.7 -21.55 -23.85 -21.3 Q-25.05 -20.15 -23.8 -19.0 L-24.2 -18.65 -24.05 -18.4" fill="url(#gradient38)" fill-rule="evenodd" stroke="none"/>
    <path d="M-23.05 -18.3 L-23.55 -18.25 -24.05 -18.4 -24.2 -18.65 -23.8 -19.0 -23.05 -18.3 M-20.6 -22.4 L-20.35 -21.6 Q-20.3 -21.05 -20.75 -20.1 L-21.65 -20.85 -21.3 -22.3 -21.35 -22.85 -21.35 -22.9 -21.1 -22.85 -20.6 -22.4" fill="url(#gradient39)" fill-rule="evenodd" stroke="none"/>
    <path d="M-11.9 -15.45 L-11.3 -16.75 -10.45 -17.85 -10.4 -17.5 -9.0 -18.8 -8.75 -18.1 -8.75 -17.15 -10.2 -15.85 -11.9 -15.45" fill="url(#gradient40)" fill-rule="evenodd" stroke="none"/>
    <path d="M-10.8 -13.85 L-12.55 -13.3 -12.7 -13.45 -14.2 -14.7 -11.9 -15.45 -10.2 -15.85 Q-6.2 -17.1 -1.7 -13.75 L-0.8 -12.9 -0.05 -11.4 -0.05 -11.25 Q-0.1 -5.85 -4.1 -5.75 L-5.5 -5.8 -7.35 -6.7 Q-1.4 -5.3 -3.2 -11.4 -6.3 -15.3 -10.8 -13.85" fill="url(#gradient41)" fill-rule="evenodd" stroke="none"/>
    <path d="M-14.95 -11.05 L-17.25 -13.0 -17.85 -13.75 Q-18.15 -15.9 -15.8 -15.9 L-15.35 -15.7 -14.2 -14.7 -12.7 -13.45 -12.75 -13.45 -12.9 -13.5 -13.7 -13.65 -14.75 -12.9 -15.1 -12.3 -15.05 -11.4 -14.95 -11.2 -14.95 -11.05" fill="url(#gradient42)" fill-rule="evenodd" stroke="none"/>
    <path d="M-12.4 -12.9 L-12.3 -12.75 -12.25 -12.2 -12.65 -11.4 -12.9 -11.05 Q-13.5 -10.85 -14.7 -11.05 L-14.95 -11.2 -15.05 -11.4 -15.1 -12.3 -14.75 -12.9 -13.8 -13.55 -12.9 -13.5 -12.4 -12.9" fill="url(#gradient43)" fill-rule="evenodd" stroke="none"/>
    <path d="M-12.55 -13.3 L-12.4 -12.9 -12.9 -13.5 -12.75 -13.45 -12.7 -13.45 -12.55 -13.3 M-12.25 -12.2 Q-12.2 -11.35 -12.9 -11.05 L-12.65 -11.4 -12.25 -12.2 M-14.7 -11.05 L-14.95 -11.05 -14.95 -11.2 -14.7 -11.05" fill="url(#gradient44)" fill-rule="evenodd" stroke="none"/>
  </g>
  <defs>
    <radialGradient cx="0" cy="0" gradientTransform="matrix(0.0198, 0.0, 0.0, 0.0198, 4.35, -37.3)" gradientUnits="userSpaceOnUse" id="gradient0" r="819.2" spreadMethod="pad">
      <stop offset="0.0" stop-color="#655f4a"/>
      <stop offset="1.0" stop-color="#464132"/>
    </radialGradient>
    <radialGradient cx="0" cy="0" gradientTransform="matrix(0.0302, 0.0, 0.0, 0.0302, 2.05, -34.85)" gradientUnits="userSpaceOnUse" id="gradient1" r="819.2" spreadMethod="pad">
      <stop offset="0.0" stop-color="#655e49"/>
      <stop offset="1.0" stop-color="#3b372b"/>
    </radialGradient>
    <radialGradient cx="0" cy="0" gradientTransform="matrix(0.0162, 0.0, 0.0, 0.0162, 3.15, -39.45)" gradientUnits="userSpaceOnUse" id="gradient2" r="819.2" spreadMethod="pad">
      <stop offset="0.0" stop-color="#665f4a"/>
      <stop offset="1.0" stop-color="#433e30"/>
    </radialGradient>
    <radialGradient cx="0" cy="0" gradientTransform="matrix(0.0168, 0.0, 0.0, 0.0168, -7.35, -41.3)" gradientUnits="userSpaceOnUse" id="gradient3" r="819.2" spreadMethod="pad">
      <stop offset="0.0" stop-color="#67604b"/>
      <stop offset="1.0" stop-color="#3c382b"/>
    </radialGradient>
    <radialGradient cx="0" cy="0" gradientTransform="matrix(0.0092, 0.0, 0.0, 0.0092, 7.55, -34.7)" gradientUnits="userSpaceOnUse" id="gradient4" r="819.2" spreadMethod="pad">
      <stop offset="0.0" stop-color="#ffde81"/>
      <stop offset="1.0" stop-color="#a07142"/>
    </radialGradient>
    <radialGradient cx="0" cy="0" gradientTransform="matrix(0.0116, 0.0, 0.0, 0.0116, 3.4, -34.25)" gradientUnits="userSpaceOnUse" id="gradient5" r="819.2" spreadMethod="pad">
      <stop offset="0.0" stop-color="#ffc673"/>
      <stop offset="1.0" stop-color="#845d36"/>
    </radialGradient>
    <radialGradient cx="0" cy="0" gradientTransform="matrix(0.0472, 0.0, 0.0, 0.0472, -13.7, 1.25)" gradientUnits="userSpaceOnUse" id="gradient6" r="819.2" spreadMethod="pad">
      <stop offset="0.0" stop-color="#514c3b"/>
      <stop offset="1.0" stop-color="#484334"/>
    </radialGradient>
    <radialGradient cx="0" cy="0" gradientTransform="matrix(0.0331, 0.0, 0.0, 0.0331, -9.5, -30.6)" gradientUnits="userSpaceOnUse" id="gradient7" r="819.2" spreadMethod="pad">
      <stop offset="0.0" stop-color="#902020"/>
      <stop offset="1.0" stop-color="#400e0e"/>
    </radialGradient>
    <radialGradient cx="0" cy="0" gradientTransform="matrix(0.0112, 0.0, 0.0, 0.0112, 1.9, -24.7)" gradientUnits="userSpaceOnUse" id="gradient8" r="819.2" spreadMethod="pad">
      <stop offset="0.0" stop-color="#514c3b"/>
      <stop offset="1.0" stop-color="#3f3b2e"/>
    </radialGradient>
    <radialGradient cx="0" cy="0" gradientTransform="matrix(0.0386, 0.0, 0.0, 0.0386, 3.0, 2.4)" gradientUnits="userSpaceOnUse" id="gradient9" r="819.2" spreadMethod="pad">
      <stop offset="0.0" stop-color="#c12b2b"/>
      <stop offset="1.0" stop-color="#861d1d"/>
    </radialGradient>
    <radialGradient cx="0" cy="0" gradientTransform="matrix(0.0083, 0.0, 0.0, 0.0083, 9.25, -27.8)" gradientUnits="userSpaceOnUse" id="gradient10" r="819.2" spreadMethod="pad">
      <stop offset="0.0" stop-color="#ffc673"/>
      <stop offset="1.0" stop-color="#95693d"/>
    </radialGradient>
    <radialGradient cx="0" cy="0" gradientTransform="matrix(0.0316, 0.0, 0.0, 0.0316, 13.2, -36.9)" gradientUnits="userSpaceOnUse" id="gradient11" r="819.2" spreadMethod="pad">
      <stop offset="0.0" stop-color="#0c0c09"/>
      <stop offset="1.0" stop-color="#0c0c09"/>
    </radialGradient>
    <radialGradient cx="0" cy="0" gradientTransform="matrix(0.0083, 0.0, 0.0, 0.0083, 11.6, -29.9)" gradientUnits="userSpaceOnUse" id="gradient12" r="819.2" spreadMethod="pad">
      <stop offset="0.0" stop-color="#ffd97e"/>
      <stop offset="1.0" stop-color="#90653b"/>
    </radialGradient>
    <radialGradient cx="0" cy="0" gradientTransform="matrix(0.0094, 0.0, 0.0, 0.0094, 12.4, -22.6)" gradientUnits="userSpaceOnUse" id="gradient13" r="819.2" spreadMethod="pad">
      <stop offset="0.0" stop-color="#5f5945"/>
      <stop offset="1.0" stop-color="#302e23"/>
    </radialGradient>
    <radialGradient cx="0" cy="0" gradientTransform="matrix(0.0015, 0.0, 0.0, 0.0015, 14.55, -24.8)" gradientUnits="userSpaceOnUse" id="gradient14" r="819.2" spreadMethod="pad">
      <stop offset="0.0" stop-color="#433f31"/>
      <stop offset="1.0" stop-color="#363227"/>
    </radialGradient>
    <radialGradient cx="0" cy="0" gradientTransform="matrix(0.0019, 0.0, 0.0, 0.0019, 14.0, -23.65)" gradientUnits="userSpaceOnUse" id="gradient15" r="819.2" spreadMethod="pad">
      <stop offset="0.0" stop-color="#4a4535"/>
      <stop offset="1.0" stop-color="#413d2f"/>
    </radialGradient>
    <radialGradient cx="0" cy="0" gradientTransform="matrix(0.0047, 0.0, 0.0, 0.0047, 12.95, -14.6)" gradientUnits="userSpaceOnUse" id="gradient16" r="819.2" spreadMethod="pad">
      <stop offset="0.0" stop-color="#66604a"/>
      <stop offset="1.0" stop-color="#3a3629"/>
    </radialGradient>
    <radialGradient cx="0" cy="0" gradientTransform="matrix(0.0043, 0.0, 0.0, 0.0043, 11.8, -15.0)" gradientUnits="userSpaceOnUse" id="gradient17" r="819.2" spreadMethod="pad">
      <stop offset="0.0" stop-color="#ffec8a"/>
      <stop offset="1.0" stop-color="#a57443"/>
    </radialGradient>
    <radialGradient cx="0" cy="0" gradientTransform="matrix(0.0071, 0.0, 0.0, 0.0071, 0.85, -17.8)" gradientUnits="userSpaceOnUse" id="gradient18" r="819.2" spreadMethod="pad">
      <stop offset="0.0" stop-color="#fffbcc"/>
      <stop offset="1.0" stop-color="#a89f82"/>
    </radialGradient>
    <radialGradient cx="0" cy="0" gradientTransform="matrix(0.0094, 0.0, 0.0, 0.0094, 0.2, -13.55)" gradientUnits="userSpaceOnUse" id="gradient19" r="819.2" spreadMethod="pad">
      <stop offset="0.0" stop-color="#fffdcd"/>
      <stop offset="1.0" stop-color="#a59d7f"/>
    </radialGradient>
    <radialGradient cx="0" cy="0" gradientTransform="matrix(0.0471, 0.0, 0.0, 0.0471, -1.0, -33.0)" gradientUnits="userSpaceOnUse" id="gradient20" r="819.2" spreadMethod="pad">
      <stop offset="0.0" stop-color="#b92929"/>
      <stop offset="1.0" stop-color="#962121"/>
    </radialGradient>
    <radialGradient cx="0" cy="0" gradientTransform="matrix(0.0217, 0.0, 0.0, 0.0217, -4.6, 8.15)" gradientUnits="userSpaceOnUse" id="gradient21" r="819.2" spreadMethod="pad">
      <stop offset="0.0" stop-color="#615b46"/>
      <stop offset="1.0" stop-color="#3e3b2e"/>
    </radialGradient>
    <radialGradient cx="0" cy="0" gradientTransform="matrix(0.0057, 0.0, 0.0, 0.0057, -4.2, -46.55)" gradientUnits="userSpaceOnUse" id="gradient22" r="819.2" spreadMethod="pad">
      <stop offset="0.0" stop-color="#fdf0c3"/>
      <stop offset="1.0" stop-color="#d8cea7"/>
    </radialGradient>
    <radialGradient cx="0" cy="0" gradientTransform="matrix(0.0093, 0.0, 0.0, 0.0093, -8.8, -48.1)" gradientUnits="userSpaceOnUse" id="gradient23" r="819.2" spreadMethod="pad">
      <stop offset="0.0" stop-color="#3d392c"/>
      <stop offset="1.0" stop-color="#201e17"/>
    </radialGradient>
    <radialGradient cx="0" cy="0" gradientTransform="matrix(0.0045, 0.0, 0.0, 0.0045, -3.3, -42.6)" gradientUnits="userSpaceOnUse" id="gradient24" r="819.2" spreadMethod="pad">
      <stop offset="0.0" stop-color="#d89859"/>
      <stop offset="1.0" stop-color="#ad7a47"/>
    </radialGradient>
    <radialGradient cx="0" cy="0" gradientTransform="matrix(0.0051, 0.0, 0.0, 0.0051, -9.95, -41.8)" gradientUnits="userSpaceOnUse" id="gradient25" r="819.2" spreadMethod="pad">
      <stop offset="0.0" stop-color="#ffdf82"/>
      <stop offset="1.0" stop-color="#c38950"/>
    </radialGradient>
    <radialGradient cx="0" cy="0" gradientTransform="matrix(0.0081, 0.0, 0.0, 0.0081, -13.95, -34.4)" gradientUnits="userSpaceOnUse" id="gradient26" r="819.2" spreadMethod="pad">
      <stop offset="0.0" stop-color="#ffe384"/>
      <stop offset="1.0" stop-color="#e29f5c"/>
    </radialGradient>
    <radialGradient cx="0" cy="0" gradientTransform="matrix(0.0055, 0.0, 0.0, 0.0055, -14.45, -36.45)" gradientUnits="userSpaceOnUse" id="gradient27" r="819.2" spreadMethod="pad">
      <stop offset="0.0" stop-color="#ffd87e"/>
      <stop offset="1.0" stop-color="#ad7947"/>
    </radialGradient>
    <radialGradient cx="0" cy="0" gradientTransform="matrix(0.0073, 0.0, 0.0, 0.0073, -10.1, -35.6)" gradientUnits="userSpaceOnUse" id="gradient28" r="819.2" spreadMethod="pad">
      <stop offset="0.0" stop-color="#c1884f"/>
      <stop offset="1.0" stop-color="#624528"/>
    </radialGradient>
    <radialGradient cx="0" cy="0" gradientTransform="matrix(8.0E-4, 0.0, 0.0, 8.0E-4, -17.45, -33.05)" gradientUnits="userSpaceOnUse" id="gradient29" r="819.2" spreadMethod="pad">
      <stop offset="0.0" stop-color="#413d2f"/>
      <stop offset="1.0" stop-color="#3c382b"/>
    </radialGradient>
    <radialGradient cx="0" cy="0" gradientTransform="matrix(0.0097, 0.0, 0.0, 0.0097, -19.05, -29.4)" gradientUnits="userSpaceOnUse" id="gradient30" r="819.2" spreadMethod="pad">
      <stop offset="0.0" stop-color="#69624c"/>
      <stop offset="1.0" stop-color="#423e30"/>
    </radialGradient>
    <radialGradient cx="0" cy="0" gradientTransform="matrix(0.0061, 0.0, 0.0, 0.0061, -7.95, -37.55)" gradientUnits="userSpaceOnUse" id="gradient31" r="819.2" spreadMethod="pad">
      <stop offset="0.0" stop-color="#454132"/>
      <stop offset="1.0" stop-color="#3c382b"/>
    </radialGradient>
    <radialGradient cx="0" cy="0" gradientTransform="matrix(0.0078, 0.0, 0.0, 0.0078, -2.65, -30.45)" gradientUnits="userSpaceOnUse" id="gradient32" r="819.2" spreadMethod="pad">
      <stop offset="0.0" stop-color="#fcf0c3"/>
      <stop offset="1.0" stop-color="#b2a889"/>
    </radialGradient>
    <radialGradient cx="0" cy="0" gradientTransform="matrix(0.0106, 0.0, 0.0, 0.0106, -8.0, -32.1)" gradientUnits="userSpaceOnUse" id="gradient33" r="819.2" spreadMethod="pad">
      <stop offset="0.0" stop-color="#fffccd"/>
      <stop offset="1.0" stop-color="#837d65"/>
    </radialGradient>
    <radialGradient cx="0" cy="0" gradientTransform="matrix(0.003, 0.0, 0.0, 0.003, -8.5, -29.45)" gradientUnits="userSpaceOnUse" id="gradient34" r="819.2" spreadMethod="pad">
      <stop offset="0.0" stop-color="#9e9679"/>
      <stop offset="1.0" stop-color="#7e7861"/>
    </radialGradient>
    <radialGradient cx="0" cy="0" gradientTransform="matrix(0.0056, 0.0, 0.0, 0.0056, -37.45, -32.15)" gradientUnits="userSpaceOnUse" id="gradient35" r="819.2" spreadMethod="pad">
      <stop offset="0.0" stop-color="#aaa283"/>
      <stop offset="1.0" stop-color="#9a9277"/>
    </radialGradient>
    <radialGradient cx="0" cy="0" gradientTransform="matrix(0.0366, 0.0, 0.0, 0.0366, -14.5, -13.3)" gradientUnits="userSpaceOnUse" id="gradient36" r="819.2" spreadMethod="pad">
      <stop offset="0.0" stop-color="#573219"/>
      <stop offset="1.0" stop-color="#492915"/>
    </radialGradient>
    <radialGradient cx="0" cy="0" gradientTransform="matrix(0.0032, 0.0, 0.0, 0.0032, -35.4, -32.45)" gradientUnits="userSpaceOnUse" id="gradient37" r="819.2" spreadMethod="pad">
      <stop offset="0.0" stop-color="#1f1e18"/>
      <stop offset="1.0" stop-color="#1f1e18"/>
    </radialGradient>
    <radialGradient cx="0" cy="0" gradientTransform="matrix(0.0045, 0.0, 0.0, 0.0045, -24.75, -22.05)" gradientUnits="userSpaceOnUse" id="gradient38" r="819.2" spreadMethod="pad">
      <stop offset="0.0" stop-color="#68624c"/>
      <stop offset="1.0" stop-color="#2f2c22"/>
    </radialGradient>
    <radialGradient cx="0" cy="0" gradientTransform="matrix(0.0038, 0.0, 0.0, 0.0038, -22.0, -20.85)" gradientUnits="userSpaceOnUse" id="gradient39" r="819.2" spreadMethod="pad">
      <stop offset="0.0" stop-color="#ffcf78"/>
      <stop offset="1.0" stop-color="#94693d"/>
    </radialGradient>
    <radialGradient cx="0" cy="0" gradientTransform="matrix(0.0117, 0.0, 0.0, 0.0117, -5.95, -22.3)" gradientUnits="userSpaceOnUse" id="gradient40" r="819.2" spreadMethod="pad">
      <stop offset="0.0" stop-color="#b9af8e"/>
      <stop offset="1.0" stop-color="#948d72"/>
    </radialGradient>
    <radialGradient cx="0" cy="0" gradientTransform="matrix(0.0149, 0.0, 0.0, 0.0149, -10.9, -14.7)" gradientUnits="userSpaceOnUse" id="gradient41" r="819.2" spreadMethod="pad">
      <stop offset="0.0" stop-color="#744222"/>
      <stop offset="1.0" stop-color="#432613"/>
    </radialGradient>
    <radialGradient cx="0" cy="0" gradientTransform="matrix(0.0045, 0.0, 0.0, 0.0045, -14.55, -13.35)" gradientUnits="userSpaceOnUse" id="gradient42" r="819.2" spreadMethod="pad">
      <stop offset="0.0" stop-color="#beb492"/>
      <stop offset="1.0" stop-color="#b1a888"/>
    </radialGradient>
    <radialGradient cx="0" cy="0" gradientTransform="matrix(0.0033, 0.0, 0.0, 0.0033, -12.65, -12.75)" gradientUnits="userSpaceOnUse" id="gradient43" r="819.2" spreadMethod="pad">
      <stop offset="0.0" stop-color="#553019"/>
      <stop offset="1.0" stop-color="#543019"/>
    </radialGradient>
    <radialGradient cx="0" cy="0" gradientTransform="matrix(0.0033, 0.0, 0.0, 0.0033, -14.15, -11.55)" gradientUnits="userSpaceOnUse" id="gradient44" r="819.2" spreadMethod="pad">
      <stop offset="0.0" stop-color="#1f1e18"/>
      <stop offset="1.0" stop-color="#1f1e18"/>
    </radialGradient>
  </defs>
</svg>
