<?xml version="1.0" encoding="UTF-8" standalone="no"?>
<svg xmlns:ffdec="https://www.free-decompiler.com/flash" xmlns:xlink="http://www.w3.org/1999/xlink" ffdec:objectType="shape" height="69.7px" width="19.65px" xmlns="http://www.w3.org/2000/svg">
  <g transform="matrix(1.0, 0.0, 0.0, 1.0, 17.7, 78.45)">
    <path d="M-11.2 -27.15 Q-15.7 -19.9 -12.0 -14.0 L-11.6 -8.75 Q-21.2 -16.65 -15.7 -29.0 -15.35 -27.8 -14.6 -27.1 -13.9 -25.5 -12.45 -27.0 L-11.2 -27.15" fill="url(#gradient0)" fill-rule="evenodd" stroke="none"/>
    <path d="M-13.25 -58.9 L-13.1 -64.85 Q-14.9 -72.4 -2.0 -78.25 -0.25 -79.7 1.5 -70.25 3.2 -61.9 -1.5 -64.5 -8.55 -63.35 -11.45 -61.2 -9.3 -58.0 -4.75 -54.5 1.65 -49.9 -1.8 -49.2 -5.0 -48.45 -8.25 -50.5 -14.4 -55.55 -13.25 -58.9" fill="url(#gradient1)" fill-rule="evenodd" stroke="none"/>
  </g>
  <defs>
    <linearGradient gradientTransform="matrix(-0.001, 0.0022, -0.0083, -0.0037, -70.75, -60.35)" gradientUnits="userSpaceOnUse" id="gradient0" spreadMethod="pad" x1="-819.2" x2="819.2">
      <stop offset="0.25882352941176473" stop-color="#fee18f"/>
      <stop offset="0.7607843137254902" stop-color="#fee18f" stop-opacity="0.0"/>
    </linearGradient>
    <linearGradient gradientTransform="matrix(-0.001, -0.0032, 0.0087, -0.0027, -18.15, -44.3)" gradientUnits="userSpaceOnUse" id="gradient1" spreadMethod="pad" x1="-819.2" x2="819.2">
      <stop offset="0.25882352941176473" stop-color="#fee18f"/>
      <stop offset="0.7607843137254902" stop-color="#fee18f" stop-opacity="0.0"/>
    </linearGradient>
  </defs>
</svg>
