<?xml version="1.0" encoding="UTF-8" standalone="no"?>
<svg xmlns:ffdec="https://www.free-decompiler.com/flash" xmlns:xlink="http://www.w3.org/1999/xlink" ffdec:objectType="shape" height="65.95px" width="68.7px" xmlns="http://www.w3.org/2000/svg">
  <g transform="matrix(1.0, 0.0, 0.0, 1.0, 45.15, 55.15)">
    <path d="M14.75 -45.25 L23.0 -45.2 Q23.65 -44.7 23.55 -44.25 23.6 -43.35 22.9 -43.05 L14.85 -43.0 14.85 -43.05 Q16.0 -43.5 15.0 -45.15 L14.75 -45.25" fill="url(#gradient0)" fill-rule="evenodd" stroke="none"/>
    <path d="M14.75 -45.25 L15.0 -45.15 14.5 -45.15 14.75 -45.25 M14.85 -43.05 L14.85 -43.0 14.6 -43.05 14.85 -43.05" fill="url(#gradient1)" fill-rule="evenodd" stroke="none"/>
    <path d="M11.65 -45.55 L11.85 -45.2 11.9 -45.05 11.65 -45.55" fill="url(#gradient2)" fill-rule="evenodd" stroke="none"/>
    <path d="M15.0 -45.15 Q16.0 -43.5 14.85 -43.05 L14.6 -43.05 13.0 -43.05 11.9 -45.05 11.85 -45.2 14.5 -45.15 15.0 -45.15 M-13.85 -42.85 L-26.15 -42.8 Q-25.4 -44.2 -26.2 -45.25 L-13.65 -45.25 Q-12.5 -45.2 -12.9 -43.4 L-13.15 -43.0 -13.85 -42.85 M-31.15 -45.0 L-31.5 -45.35 -31.4 -45.35 -31.15 -45.0 M-31.15 -42.95 L-31.3 -42.75 -31.4 -42.75 -31.15 -42.95" fill="url(#gradient3)" fill-rule="evenodd" stroke="none"/>
    <path d="M13.0 -43.05 Q15.55 -38.2 9.9 -9.45 6.95 -0.25 3.4 -2.3 -4.1 -3.05 -3.0 -11.45 -2.75 -19.15 -3.65 -21.2 L-4.15 -22.9 -5.75 -26.65 -5.85 -27.0 Q-6.6 -29.35 -7.1 -30.05 L-10.35 -35.9 Q-11.1 -37.5 -10.8 -40.45 L-9.6 -41.85 -8.6 -42.45 -8.55 -41.55 -8.35 -41.15 -8.4 -41.1 Q-9.8 -40.6 -9.3 -39.65 L-8.35 -39.15 -6.55 -38.75 -6.45 -38.15 -4.25 -36.9 -2.35 -36.55 -2.15 -36.05 Q4.75 -38.3 6.1 -37.25 6.5 -39.4 9.0 -43.7 L8.55 -44.85 7.0 -46.8 6.45 -46.95 Q6.55 -47.2 4.95 -47.95 L4.65 -48.8 8.85 -47.85 11.65 -45.55 11.9 -45.05 13.0 -43.05" fill="url(#gradient4)" fill-rule="evenodd" stroke="none"/>
    <path d="M4.8 -43.7 L6.45 -45.05 6.3 -45.85 6.3 -46.15 5.0 -47.75 4.95 -47.95 Q6.55 -47.2 6.45 -46.95 L7.0 -46.8 8.55 -44.85 9.0 -43.7 Q6.5 -39.4 6.1 -37.25 4.75 -38.3 -2.15 -36.05 L-2.35 -36.55 -4.25 -36.9 -6.45 -38.15 -6.55 -38.75 -8.35 -39.15 -9.3 -39.65 Q-9.8 -40.6 -8.4 -41.1 -10.05 -40.45 -1.95 -40.2 L0.85 -41.25 2.2 -41.55 3.6 -42.5 4.35 -42.9 4.6 -43.4 4.8 -43.7" fill="url(#gradient5)" fill-rule="evenodd" stroke="none"/>
    <path d="M5.0 -47.75 L6.3 -46.15 6.3 -45.85 6.45 -45.05 4.8 -43.7 5.2 -44.75 5.2 -45.85 5.0 -47.75 M0.85 -41.25 L-1.95 -40.2 Q-10.05 -40.45 -8.4 -41.1 L-8.35 -41.15 -8.55 -41.55 -8.6 -42.45 -8.25 -43.4 -8.2 -43.4 Q-3.9 -42.6 -0.3 -41.25 L0.85 -41.25" fill="url(#gradient6)" fill-rule="evenodd" stroke="none"/>
    <path d="M-9.0 -45.65 Q-8.85 -53.85 -5.35 -55.15 3.05 -55.25 4.65 -48.8 L4.95 -47.95 5.0 -47.75 5.2 -45.85 5.2 -44.75 4.8 -43.7 4.6 -43.4 3.6 -42.5 2.2 -41.55 0.85 -41.25 -0.3 -41.25 Q-3.9 -42.6 -8.2 -43.4 L-8.25 -43.45 -8.8 -44.0 -8.95 -44.95 -9.0 -45.65" fill="url(#gradient7)" fill-rule="evenodd" stroke="none"/>
    <path d="M4.6 -43.4 L4.35 -42.9 3.6 -42.5 4.6 -43.4" fill="url(#gradient8)" fill-rule="evenodd" stroke="none"/>
    <path d="M9.9 -9.45 L10.8 -7.2 10.9 -5.1 Q10.5 -1.2 9.95 0.05 8.25 8.7 -4.85 8.45 L-9.25 8.45 -10.95 7.95 Q-13.9 5.95 -13.65 1.85 L-12.45 -3.1 Q-10.3 -9.0 -10.55 -9.2 -6.4 -6.6 -5.45 -11.45 L-5.65 -12.2 -4.55 -15.65 Q-4.45 -16.25 -4.8 -17.55 L-4.5 -18.2 -4.4 -18.95 -3.95 -20.05 -3.85 -20.85 -3.65 -21.2 Q-2.75 -19.15 -3.0 -11.45 -4.1 -3.05 3.4 -2.3 6.95 -0.25 9.9 -9.45 M-9.75 -19.05 L-9.45 -18.95 -9.75 -17.55 -9.8 -15.7 -10.05 -16.05 -10.0 -16.8 -9.95 -17.05 -9.75 -19.05" fill="url(#gradient9)" fill-rule="evenodd" stroke="none"/>
    <path d="M10.8 -7.2 Q13.05 4.2 5.9 8.1 -14.1 15.55 -13.9 2.55 L-13.85 2.5 -13.85 2.45 -13.85 2.35 -13.65 1.85 Q-13.9 5.95 -10.95 7.95 L-9.25 8.45 -4.85 8.45 Q8.25 8.7 9.95 0.05 10.5 -1.2 10.9 -5.1 L10.8 -7.2" fill="url(#gradient10)" fill-rule="evenodd" stroke="none"/>
    <path d="M-26.95 -42.7 Q-25.5 -38.35 -33.5 -38.9 -45.75 -40.35 -45.1 -43.55 L-44.15 -43.9 -42.8 -44.0 Q-46.75 -42.35 -35.5 -40.7 L-31.4 -40.7 -29.3 -41.15 -28.95 -41.5 -28.9 -42.1 -29.2 -42.7 Q-29.9 -43.85 -28.05 -43.95 L-27.4 -43.6 -26.95 -42.7" fill="url(#gradient11)" fill-rule="evenodd" stroke="none"/>
    <path d="M-9.8 -41.9 L-10.35 -41.6 -11.25 -41.5 -10.55 -41.75 -10.1 -42.1 -9.8 -41.9 M-13.65 -45.25 Q-11.55 -48.15 -9.15 -45.85 L-9.0 -45.65 -8.95 -44.95 Q-10.05 -45.55 -10.35 -43.4 L-12.65 -43.3 -12.9 -43.4 Q-12.5 -45.2 -13.65 -45.25" fill="url(#gradient12)" fill-rule="evenodd" stroke="none"/>
    <path d="M-8.25 -43.45 L-8.2 -43.4 -8.25 -43.4 -8.25 -43.45" fill="url(#gradient13)" fill-rule="evenodd" stroke="none"/>
    <path d="M-9.6 -41.85 L-9.8 -41.9 -10.1 -42.1 -10.0 -42.65 -10.35 -43.4 Q-10.05 -45.55 -8.95 -44.95 L-8.8 -44.0 -8.25 -43.45 -8.25 -43.4 -8.6 -42.45 -9.6 -41.85" fill="url(#gradient14)" fill-rule="evenodd" stroke="none"/>
    <path d="M-11.25 -41.5 Q-13.6 -41.45 -13.85 -42.85 L-13.15 -43.0 -12.9 -43.4 -12.65 -43.3 -10.35 -43.4 -10.0 -42.65 -10.1 -42.1 -10.55 -41.75 -11.25 -41.5" fill="url(#gradient15)" fill-rule="evenodd" stroke="none"/>
    <path d="M-10.7 -22.55 Q-11.4 -26.8 -10.7 -28.05 -10.6 -27.7 -10.3 -27.5 -10.65 -27.5 -10.8 -25.1 L-10.45 -22.9 Q-9.3 -18.0 -5.95 -19.95 L-5.8 -19.35 -6.0 -19.4 -7.1 -18.95 -7.25 -18.6 -8.15 -19.2 Q-8.7 -19.0 -9.2 -19.4 L-10.05 -20.9 -10.7 -22.55 M-5.95 -27.0 L-5.85 -27.0 -5.75 -26.65 -5.8 -26.55 -5.95 -27.0" fill="url(#gradient16)" fill-rule="evenodd" stroke="none"/>
    <path d="M-10.7 -28.05 Q-12.95 -32.3 -10.35 -35.9 L-7.1 -30.05 Q-6.6 -29.35 -5.85 -27.0 L-5.95 -27.0 -6.85 -27.45 Q-10.45 -27.25 -10.3 -27.5 -10.6 -27.7 -10.7 -28.05" fill="url(#gradient17)" fill-rule="evenodd" stroke="none"/>
    <path d="M-10.3 -27.5 Q-10.45 -27.25 -6.85 -27.45 L-5.95 -27.0 -5.8 -26.55 -5.3 -25.05 -5.1 -23.8 -5.5 -21.25 -5.95 -19.95 Q-9.3 -18.0 -10.45 -22.9 L-10.8 -25.1 Q-10.65 -27.5 -10.3 -27.5" fill="url(#gradient18)" fill-rule="evenodd" stroke="none"/>
    <path d="M-5.1 -23.8 L-5.3 -25.05 -5.8 -26.55 -5.75 -26.65 -4.15 -22.9 -3.65 -21.2 -3.85 -20.85 -4.0 -22.25 -4.55 -23.45 -5.1 -23.8" fill="url(#gradient19)" fill-rule="evenodd" stroke="none"/>
    <path d="M-26.15 -42.8 L-26.95 -42.7 -27.4 -43.6 -28.05 -43.95 Q-29.9 -43.85 -29.2 -42.7 L-31.3 -42.7 -31.3 -42.75 -31.15 -42.95 -30.95 -44.3 -31.15 -45.0 -31.4 -45.35 -31.4 -45.4 -26.2 -45.25 Q-25.4 -44.2 -26.15 -42.8" fill="url(#gradient20)" fill-rule="evenodd" stroke="none"/>
    <path d="M-31.8 -42.9 L-31.95 -43.15 -31.95 -43.2 -32.0 -43.3 -32.0 -43.35 -32.05 -43.4 -32.05 -43.55 -32.1 -43.65 -32.15 -44.05 -32.1 -44.15 -32.1 -44.45 -32.05 -44.65 -32.05 -44.75 -32.0 -44.85 -32.0 -44.9 -31.8 -45.2 -31.75 -45.25 -31.5 -45.35 -31.15 -45.0 -30.95 -44.3 -31.15 -42.95 -31.4 -42.75 -31.8 -42.9" fill="url(#gradient21)" fill-rule="evenodd" stroke="none"/>
    <path d="M-31.3 -42.7 L-31.65 -42.7 -31.8 -42.9 -31.4 -42.75 -31.3 -42.75 -31.3 -42.7 M-31.75 -45.25 L-31.4 -45.4 -31.4 -45.35 -31.5 -45.35 -31.75 -45.25" fill="url(#gradient22)" fill-rule="evenodd" stroke="none"/>
    <path d="M-5.95 -19.95 L-5.5 -21.25 -5.1 -23.8 -4.55 -23.45 -4.0 -22.25 -3.85 -20.85 -3.95 -20.05 -4.4 -18.95 -5.05 -18.65 -5.4 -18.8 -5.8 -19.35 -5.95 -19.95" fill="url(#gradient23)" fill-rule="evenodd" stroke="none"/>
    <path d="M-4.4 -18.95 L-4.5 -18.2 -4.8 -17.55 Q-5.95 -16.2 -6.8 -18.0 L-7.25 -18.6 -7.1 -18.95 -6.0 -19.4 -5.8 -19.35 -5.4 -18.8 -5.05 -18.65 -4.4 -18.95" fill="url(#gradient24)" fill-rule="evenodd" stroke="none"/>
    <path d="M-4.8 -17.55 Q-4.45 -16.25 -4.55 -15.65 L-5.65 -12.2 -6.0 -11.45 -7.05 -10.6 -8.65 -11.25 -9.1 -11.9 -9.0 -13.3 -9.1 -13.85 -9.8 -15.7 -9.75 -17.55 -9.45 -18.95 -9.2 -19.4 Q-8.7 -19.0 -8.15 -19.2 L-7.25 -18.6 -6.8 -18.0 Q-5.95 -16.2 -4.8 -17.55" fill="url(#gradient25)" fill-rule="evenodd" stroke="none"/>
    <path d="M-10.7 -20.35 L-10.9 -21.35 -10.7 -22.55 -10.05 -20.9 -9.2 -19.4 -9.45 -18.95 -9.75 -19.05 -10.3 -19.4 -10.45 -19.7 -10.7 -20.35" fill="url(#gradient26)" fill-rule="evenodd" stroke="none"/>
    <path d="M-9.75 -19.05 L-9.95 -17.05 -10.0 -17.05 -10.3 -18.95 -10.3 -19.4 -9.75 -19.05" fill="url(#gradient27)" fill-rule="evenodd" stroke="none"/>
    <path d="M-9.95 -17.05 L-10.0 -16.8 -10.0 -17.05 -9.95 -17.05" fill="url(#gradient28)" fill-rule="evenodd" stroke="none"/>
    <path d="M-10.75 -13.3 Q-11.4 -12.9 -11.35 -16.95 L-10.7 -20.35 -10.45 -19.7 -10.6 -18.45 -10.4 -16.5 -10.05 -16.05 -9.8 -15.7 -9.1 -13.85 -9.8 -13.8 -10.75 -13.3" fill="url(#gradient29)" fill-rule="evenodd" stroke="none"/>
    <path d="M-11.15 -10.95 L-11.4 -11.45 -11.4 -12.1 -10.75 -13.3 -9.8 -13.8 -9.1 -13.85 -9.0 -13.3 -9.1 -11.9 -10.8 -11.45 -11.15 -10.95" fill="url(#gradient30)" fill-rule="evenodd" stroke="none"/>
    <path d="M-10.45 -19.7 L-10.3 -19.4 -10.3 -18.95 -10.6 -18.45 -10.45 -19.7" fill="url(#gradient31)" fill-rule="evenodd" stroke="none"/>
    <path d="M-10.55 -9.2 L-11.0 -10.0 -11.15 -10.95 -10.8 -11.45 -9.1 -11.9 -8.65 -11.25 -7.05 -10.6 -6.0 -11.45 -5.65 -12.2 -5.45 -11.45 Q-6.4 -6.6 -10.55 -9.2" fill="url(#gradient32)" fill-rule="evenodd" stroke="none"/>
  </g>
  <defs>
    <radialGradient cx="0" cy="0" gradientTransform="matrix(0.0098, 0.0, 0.0, 0.0098, 15.4, -44.55)" gradientUnits="userSpaceOnUse" id="gradient0" r="819.2" spreadMethod="pad">
      <stop offset="0.0" stop-color="#e5d9b0"/>
      <stop offset="1.0" stop-color="#bdb392"/>
    </radialGradient>
    <radialGradient cx="0" cy="0" gradientTransform="matrix(0.0032, 0.0, 0.0, 0.0032, 14.7, -45.35)" gradientUnits="userSpaceOnUse" id="gradient1" r="819.2" spreadMethod="pad">
      <stop offset="0.0" stop-color="#494538"/>
      <stop offset="1.0" stop-color="#201e18"/>
    </radialGradient>
    <radialGradient cx="0" cy="0" gradientTransform="matrix(0.0043, 0.0, 0.0, 0.0043, 11.4, -45.8)" gradientUnits="userSpaceOnUse" id="gradient2" r="819.2" spreadMethod="pad">
      <stop offset="0.0" stop-color="#3e3a2d"/>
      <stop offset="1.0" stop-color="#373327"/>
    </radialGradient>
    <radialGradient cx="0" cy="0" gradientTransform="matrix(0.0574, 0.0, 0.0, 0.0574, -31.05, -44.5)" gradientUnits="userSpaceOnUse" id="gradient3" r="819.2" spreadMethod="pad">
      <stop offset="0.0" stop-color="#6f3f20"/>
      <stop offset="1.0" stop-color="#58321a"/>
    </radialGradient>
    <radialGradient cx="0" cy="0" gradientTransform="matrix(0.0413, 0.0, 0.0, 0.0413, -6.1, -34.25)" gradientUnits="userSpaceOnUse" id="gradient4" r="819.2" spreadMethod="pad">
      <stop offset="0.0" stop-color="#635d48"/>
      <stop offset="1.0" stop-color="#343126"/>
    </radialGradient>
    <radialGradient cx="0" cy="0" gradientTransform="matrix(0.0149, 0.0, 0.0, 0.0149, -1.9, -38.9)" gradientUnits="userSpaceOnUse" id="gradient5" r="819.2" spreadMethod="pad">
      <stop offset="0.0" stop-color="#635d48"/>
      <stop offset="1.0" stop-color="#433e31"/>
    </radialGradient>
    <radialGradient cx="0" cy="0" gradientTransform="matrix(0.0122, 0.0, 0.0, 0.0122, -2.45, -41.5)" gradientUnits="userSpaceOnUse" id="gradient6" r="819.2" spreadMethod="pad">
      <stop offset="0.0" stop-color="#635d48"/>
      <stop offset="1.0" stop-color="#444032"/>
    </radialGradient>
    <radialGradient cx="0" cy="0" gradientTransform="matrix(0.0124, 0.0, 0.0, 0.0124, -0.65, -50.1)" gradientUnits="userSpaceOnUse" id="gradient7" r="819.2" spreadMethod="pad">
      <stop offset="0.0" stop-color="#605a46"/>
      <stop offset="1.0" stop-color="#3f3a2d"/>
    </radialGradient>
    <radialGradient cx="0" cy="0" gradientTransform="matrix(0.0025, 0.0, 0.0, 0.0025, 4.65, -43.65)" gradientUnits="userSpaceOnUse" id="gradient8" r="819.2" spreadMethod="pad">
      <stop offset="0.0" stop-color="#353227"/>
      <stop offset="1.0" stop-color="#1e1c16"/>
    </radialGradient>
    <radialGradient cx="0" cy="0" gradientTransform="matrix(0.0328, 0.0, 0.0, 0.0328, 3.6, 3.0)" gradientUnits="userSpaceOnUse" id="gradient9" r="819.2" spreadMethod="pad">
      <stop offset="0.0" stop-color="#f73737"/>
      <stop offset="1.0" stop-color="#902020"/>
    </radialGradient>
    <radialGradient cx="0" cy="0" gradientTransform="matrix(0.0292, 0.0, 0.0, 0.0292, -5.75, 9.45)" gradientUnits="userSpaceOnUse" id="gradient10" r="819.2" spreadMethod="pad">
      <stop offset="0.0" stop-color="#625c47"/>
      <stop offset="1.0" stop-color="#383428"/>
    </radialGradient>
    <radialGradient cx="0" cy="0" gradientTransform="matrix(0.0164, 0.0, 0.0, 0.0164, -40.05, -40.55)" gradientUnits="userSpaceOnUse" id="gradient11" r="819.2" spreadMethod="pad">
      <stop offset="0.0" stop-color="#794523"/>
      <stop offset="1.0" stop-color="#3a2111"/>
    </radialGradient>
    <radialGradient cx="0" cy="0" gradientTransform="matrix(0.0039, 0.0, 0.0, 0.0039, -11.3, -44.8)" gradientUnits="userSpaceOnUse" id="gradient12" r="819.2" spreadMethod="pad">
      <stop offset="0.0" stop-color="#6d664f"/>
      <stop offset="1.0" stop-color="#383429"/>
    </radialGradient>
    <radialGradient cx="0" cy="0" gradientTransform="matrix(0.0147, 0.0, 0.0, 0.0147, -5.65, -55.2)" gradientUnits="userSpaceOnUse" id="gradient13" r="819.2" spreadMethod="pad">
      <stop offset="0.0" stop-color="#2d2a21"/>
      <stop offset="1.0" stop-color="#0c0c09"/>
    </radialGradient>
    <radialGradient cx="0" cy="0" gradientTransform="matrix(0.0032, 0.0, 0.0, 0.0032, -10.2, -43.9)" gradientUnits="userSpaceOnUse" id="gradient14" r="819.2" spreadMethod="pad">
      <stop offset="0.0" stop-color="#4e4938"/>
      <stop offset="1.0" stop-color="#39362a"/>
    </radialGradient>
    <radialGradient cx="0" cy="0" gradientTransform="matrix(0.0031, 0.0, 0.0, 0.0031, -11.4, -43.25)" gradientUnits="userSpaceOnUse" id="gradient15" r="819.2" spreadMethod="pad">
      <stop offset="0.0" stop-color="#ffe988"/>
      <stop offset="1.0" stop-color="#c1884f"/>
    </radialGradient>
    <radialGradient cx="0" cy="0" gradientTransform="matrix(0.0105, 0.0, 0.0, 0.0105, -6.55, -26.8)" gradientUnits="userSpaceOnUse" id="gradient16" r="819.2" spreadMethod="pad">
      <stop offset="0.0" stop-color="#ffd079"/>
      <stop offset="1.0" stop-color="#9b6d3f"/>
    </radialGradient>
    <radialGradient cx="0" cy="0" gradientTransform="matrix(0.0097, 0.0, 0.0, 0.0097, -8.25, -34.5)" gradientUnits="userSpaceOnUse" id="gradient17" r="819.2" spreadMethod="pad">
      <stop offset="0.0" stop-color="#ffcf78"/>
      <stop offset="1.0" stop-color="#ad7a47"/>
    </radialGradient>
    <radialGradient cx="0" cy="0" gradientTransform="matrix(0.0095, 0.0, 0.0, 0.0095, -7.3, -27.05)" gradientUnits="userSpaceOnUse" id="gradient18" r="819.2" spreadMethod="pad">
      <stop offset="0.0" stop-color="#ffd97e"/>
      <stop offset="1.0" stop-color="#91673b"/>
    </radialGradient>
    <radialGradient cx="0" cy="0" gradientTransform="matrix(0.0093, 0.0, 0.0, 0.0093, -5.75, -27.65)" gradientUnits="userSpaceOnUse" id="gradient19" r="819.2" spreadMethod="pad">
      <stop offset="0.0" stop-color="#ffdb7f"/>
      <stop offset="1.0" stop-color="#aa7845"/>
    </radialGradient>
    <radialGradient cx="0" cy="0" gradientTransform="matrix(0.0063, 0.0, 0.0, 0.0063, -31.0, -44.5)" gradientUnits="userSpaceOnUse" id="gradient20" r="819.2" spreadMethod="pad">
      <stop offset="0.0" stop-color="#f2e5ba"/>
      <stop offset="1.0" stop-color="#d4c9a3"/>
    </radialGradient>
    <radialGradient cx="0" cy="0" gradientTransform="matrix(0.0023, 0.0, 0.0, 0.0023, -31.55, -43.55)" gradientUnits="userSpaceOnUse" id="gradient21" r="819.2" spreadMethod="pad">
      <stop offset="0.0" stop-color="#512e18"/>
      <stop offset="1.0" stop-color="#512e18"/>
    </radialGradient>
    <radialGradient cx="0" cy="0" gradientTransform="matrix(0.0036, 0.0, 0.0, 0.0036, -31.6, -45.5)" gradientUnits="userSpaceOnUse" id="gradient22" r="819.2" spreadMethod="pad">
      <stop offset="0.0" stop-color="#504c3e"/>
      <stop offset="1.0" stop-color="#1f1e18"/>
    </radialGradient>
    <radialGradient cx="0" cy="0" gradientTransform="matrix(0.006, 0.0, 0.0, 0.006, -5.15, -23.6)" gradientUnits="userSpaceOnUse" id="gradient23" r="819.2" spreadMethod="pad">
      <stop offset="0.0" stop-color="#ffd87e"/>
      <stop offset="1.0" stop-color="#8c633a"/>
    </radialGradient>
    <radialGradient cx="0" cy="0" gradientTransform="matrix(0.0037, 0.0, 0.0, 0.0037, -5.65, -20.0)" gradientUnits="userSpaceOnUse" id="gradient24" r="819.2" spreadMethod="pad">
      <stop offset="0.0" stop-color="#5b5542"/>
      <stop offset="1.0" stop-color="#2c2a20"/>
    </radialGradient>
    <radialGradient cx="0" cy="0" gradientTransform="matrix(0.0104, 0.0, 0.0, 0.0104, -8.05, -19.0)" gradientUnits="userSpaceOnUse" id="gradient25" r="819.2" spreadMethod="pad">
      <stop offset="0.0" stop-color="#615a46"/>
      <stop offset="1.0" stop-color="#28261d"/>
    </radialGradient>
    <radialGradient cx="0" cy="0" gradientTransform="matrix(0.0045, 0.0, 0.0, 0.0045, -8.85, -20.4)" gradientUnits="userSpaceOnUse" id="gradient26" r="819.2" spreadMethod="pad">
      <stop offset="0.0" stop-color="#dfd4ac"/>
      <stop offset="1.0" stop-color="#999176"/>
    </radialGradient>
    <radialGradient cx="0" cy="0" gradientTransform="matrix(0.0037, 0.0, 0.0, 0.0037, -10.2, -18.9)" gradientUnits="userSpaceOnUse" id="gradient27" r="819.2" spreadMethod="pad">
      <stop offset="0.0" stop-color="#0c0c09"/>
      <stop offset="1.0" stop-color="#0c0c09"/>
    </radialGradient>
    <radialGradient cx="0" cy="0" gradientTransform="matrix(0.014, 0.0, 0.0, 0.014, -10.5, -9.7)" gradientUnits="userSpaceOnUse" id="gradient28" r="819.2" spreadMethod="pad">
      <stop offset="0.0" stop-color="#821d1d"/>
      <stop offset="1.0" stop-color="#1f0707"/>
    </radialGradient>
    <radialGradient cx="0" cy="0" gradientTransform="matrix(0.0079, 0.0, 0.0, 0.0079, -7.6, -15.1)" gradientUnits="userSpaceOnUse" id="gradient29" r="819.2" spreadMethod="pad">
      <stop offset="0.0" stop-color="#ffffd0"/>
      <stop offset="1.0" stop-color="#a89f81"/>
    </radialGradient>
    <radialGradient cx="0" cy="0" gradientTransform="matrix(0.0035, 0.0, 0.0, 0.0035, -9.1, -12.9)" gradientUnits="userSpaceOnUse" id="gradient30" r="819.2" spreadMethod="pad">
      <stop offset="0.0" stop-color="#ffe686"/>
      <stop offset="1.0" stop-color="#bc854d"/>
    </radialGradient>
    <radialGradient cx="0" cy="0" gradientTransform="matrix(0.0098, 0.0, 0.0, 0.0098, -11.25, -14.35)" gradientUnits="userSpaceOnUse" id="gradient31" r="819.2" spreadMethod="pad">
      <stop offset="0.0" stop-color="#8f886f"/>
      <stop offset="1.0" stop-color="#1f1e18"/>
    </radialGradient>
    <radialGradient cx="0" cy="0" gradientTransform="matrix(0.0043, 0.0, 0.0, 0.0043, -8.5, -11.8)" gradientUnits="userSpaceOnUse" id="gradient32" r="819.2" spreadMethod="pad">
      <stop offset="0.0" stop-color="#6a634d"/>
      <stop offset="1.0" stop-color="#2f2c22"/>
    </radialGradient>
  </defs>
</svg>
