<?xml version="1.0" encoding="UTF-8" standalone="no"?>
<svg xmlns:ffdec="https://www.free-decompiler.com/flash" xmlns:xlink="http://www.w3.org/1999/xlink" ffdec:objectType="shape" height="78.45px" width="55.05px" xmlns="http://www.w3.org/2000/svg">
  <g transform="matrix(1.0, 0.0, 0.0, 1.0, 18.5, 67.0)">
    <path d="M4.45 -54.75 L3.65 -55.05 2.9 -54.95 0.5 -54.25 -3.1 -56.65 Q-2.35 -56.65 -1.7 -57.7 L-1.65 -58.85 4.45 -54.75 M7.9 -50.4 L7.2 -52.3 6.5 -53.35 7.85 -52.55 Q9.25 -51.95 7.9 -50.4 M12.15 -49.6 L29.95 -37.7 30.1 -37.55 30.15 -37.55 Q30.8 -35.8 28.85 -35.6 L28.75 -35.65 28.5 -35.75 13.65 -45.55 12.15 -47.7 11.8 -48.7 12.15 -49.6 M-5.65 -61.4 L-5.85 -61.7 -5.65 -61.65 -5.65 -61.4 M-5.85 -60.2 L-6.25 -59.6 -6.65 -59.35 -7.3 -59.25 -7.3 -59.35 -6.4 -59.6 -5.85 -60.2" fill="url(#gradient0)" fill-rule="evenodd" stroke="none"/>
    <path d="M0.5 -54.25 L2.9 -54.95 3.65 -55.05 4.45 -54.75 5.45 -54.45 6.5 -53.35 7.2 -52.3 7.9 -50.4 8.25 -48.7 8.4 -47.15 8.45 -44.55 8.2 -43.6 7.45 -43.05 6.65 -43.0 2.2 -41.65 -0.35 -41.2 -0.9 -40.95 -1.65 -41.05 -2.3 -41.2 -4.75 -42.7 Q-5.3 -43.15 -5.45 -44.25 L-5.5 -46.5 -5.45 -46.7 -5.0 -48.4 -5.0 -48.5 -4.85 -48.8 Q-4.8 -51.95 0.5 -54.25" fill="url(#gradient1)" fill-rule="evenodd" stroke="none"/>
    <path d="M8.25 -48.7 L7.9 -50.4 Q9.25 -51.95 7.85 -52.55 11.75 -53.8 12.15 -49.6 L11.8 -48.7 11.7 -48.95 11.4 -48.95 8.9 -47.3 9.05 -47.8 8.25 -48.7" fill="url(#gradient2)" fill-rule="evenodd" stroke="none"/>
    <path d="M28.85 -35.6 L28.75 -35.6 28.75 -35.65 28.85 -35.6" fill="url(#gradient3)" fill-rule="evenodd" stroke="none"/>
    <path d="M28.75 -35.6 L28.5 -35.75 28.75 -35.65 28.75 -35.6" fill="url(#gradient4)" fill-rule="evenodd" stroke="none"/>
    <path d="M30.15 -37.55 L36.25 -33.5 Q36.85 -33.25 36.3 -31.9 L35.8 -31.5 35.0 -31.45 28.85 -35.6 Q30.8 -35.8 30.15 -37.55" fill="url(#gradient5)" fill-rule="evenodd" stroke="none"/>
    <path d="M13.65 -45.55 L14.95 -43.6 Q15.35 -43.05 15.15 -39.65 L14.25 -40.8 14.0 -41.2 Q12.5 -43.45 9.55 -42.0 L8.65 -47.15 8.9 -47.3 11.4 -48.95 11.7 -48.95 11.8 -48.7 12.15 -47.7 13.65 -45.55" fill="url(#gradient6)" fill-rule="evenodd" stroke="none"/>
    <path d="M15.15 -39.65 Q16.75 -36.0 13.15 -34.1 13.35 -37.6 10.8 -38.8 L11.8 -40.75 12.4 -41.2 13.45 -41.35 13.75 -41.2 14.25 -40.8 15.15 -39.65" fill="url(#gradient7)" fill-rule="evenodd" stroke="none"/>
    <path d="M9.55 -42.0 Q12.5 -43.45 14.0 -41.2 L14.25 -40.8 13.75 -41.2 13.45 -41.35 12.4 -41.2 11.8 -40.75 10.8 -38.8 Q10.7 -38.9 10.55 -38.95 L10.4 -40.25 9.75 -41.2 9.15 -41.75 9.55 -42.0" fill="url(#gradient8)" fill-rule="evenodd" stroke="none"/>
    <path d="M13.15 -34.1 Q13.3 -31.55 9.1 -29.75 L8.6 -29.7 8.45 -29.7 8.25 -29.7 7.65 -29.75 Q11.45 -37.75 10.55 -38.95 10.7 -38.9 10.8 -38.8 13.35 -37.6 13.15 -34.1" fill="url(#gradient9)" fill-rule="evenodd" stroke="none"/>
    <path d="M-4.85 -48.8 L-5.0 -48.5 -5.05 -48.4 Q-7.6 -47.95 -9.3 -43.5 L-9.45 -43.6 -9.1 -42.6 -8.2 -41.2 Q-6.7 -40.1 -5.85 -36.75 L-2.8 -36.85 Q0.25 -35.8 2.4 -35.75 L3.8 -36.15 Q7.5 -38.55 6.25 -38.55 L7.1 -38.8 8.7 -39.8 8.85 -40.2 8.25 -40.45 8.65 -41.2 8.7 -42.0 9.15 -41.75 9.75 -41.2 10.4 -40.25 10.55 -38.95 Q11.45 -37.75 7.65 -29.75 L6.8 -27.35 5.9 -24.1 3.8 -11.2 2.8 -7.05 Q2.5 -2.8 -5.85 -2.25 -7.65 -1.75 -10.5 -9.4 -15.15 -32.15 -13.65 -42.4 -9.2 -50.2 -4.85 -48.8" fill="url(#gradient10)" fill-rule="evenodd" stroke="none"/>
    <path d="M8.4 -47.15 L8.25 -48.7 9.05 -47.8 8.9 -47.3 8.65 -47.15 8.4 -47.15" fill="url(#gradient11)" fill-rule="evenodd" stroke="none"/>
    <path d="M-5.0 -48.4 L-5.45 -46.7 -5.5 -46.55 -5.7 -46.4 -6.05 -44.95 -5.45 -44.25 Q-5.3 -43.15 -4.75 -42.7 L-2.3 -41.2 -1.65 -41.05 2.0 -39.2 Q3.0 -38.6 8.25 -40.45 L8.85 -40.2 8.7 -39.8 7.1 -38.8 6.25 -38.55 Q7.5 -38.55 3.8 -36.15 L2.4 -35.75 Q0.25 -35.8 -2.8 -36.85 L-5.85 -36.75 Q-6.7 -40.1 -8.2 -41.2 L-9.1 -42.6 -9.45 -43.6 -9.3 -43.5 Q-7.6 -47.95 -5.05 -48.4 L-5.0 -48.4" fill="url(#gradient12)" fill-rule="evenodd" stroke="none"/>
    <path d="M-5.5 -46.5 L-5.45 -44.25 -6.05 -44.95 -5.7 -46.4 -5.5 -46.55 -5.5 -46.5 M-1.65 -41.05 L-0.9 -40.95 -0.35 -41.2 2.2 -41.65 6.65 -43.0 7.45 -43.05 8.2 -43.6 8.7 -42.0 8.65 -41.2 8.25 -40.45 Q3.0 -38.6 2.0 -39.2 L-1.65 -41.05" fill="url(#gradient13)" fill-rule="evenodd" stroke="none"/>
    <path d="M8.25 -29.7 L8.45 -29.7 8.2 -29.35 8.25 -29.7" fill="url(#gradient14)" fill-rule="evenodd" stroke="none"/>
    <path d="M8.45 -29.7 L8.6 -29.7 8.1 -28.7 6.9 -24.3 5.9 -24.1 6.8 -27.35 7.85 -28.55 8.2 -29.35 8.45 -29.7" fill="url(#gradient15)" fill-rule="evenodd" stroke="none"/>
    <path d="M9.1 -29.75 L9.7 -27.35 10.05 -18.7 10.3 -16.1 Q10.55 -12.25 10.3 -12.2 9.95 -4.75 3.8 -11.2 L5.9 -24.1 6.9 -24.3 8.1 -28.7 8.6 -29.7 9.1 -29.75 M11.4 -6.85 L13.4 0.3 13.6 2.3 Q12.75 11.45 5.5 9.1 -9.4 8.0 -9.95 2.3 -11.5 -0.45 -11.4 -7.1 L-10.5 -9.4 Q-7.65 -1.75 -5.85 -2.25 2.5 -2.8 2.8 -7.05 L6.85 -3.25 Q12.1 -4.0 11.4 -6.85" fill="url(#gradient16)" fill-rule="evenodd" stroke="none"/>
    <path d="M7.65 -29.75 L8.25 -29.7 8.2 -29.35 7.85 -28.55 6.8 -27.35 7.65 -29.75" fill="url(#gradient17)" fill-rule="evenodd" stroke="none"/>
    <path d="M10.05 -18.7 Q10.1 -21.05 12.25 -9.75 L11.4 -6.85 Q12.1 -4.0 6.85 -3.25 L2.8 -7.05 3.8 -11.2 Q9.95 -4.75 10.3 -12.2 10.55 -12.25 10.3 -16.1 L10.05 -18.7" fill="url(#gradient18)" fill-rule="evenodd" stroke="none"/>
    <path d="M-4.05 -57.1 Q-7.05 -49.5 -12.4 -54.3 -21.0 -62.1 -17.5 -67.0 L-16.9 -67.0 -15.55 -66.55 Q-18.0 -67.0 -17.25 -64.1 L-16.6 -62.6 -15.4 -60.65 -12.85 -57.6 Q-11.65 -56.45 -9.75 -55.7 -6.8 -53.85 -5.9 -58.35 -3.4 -58.6 -4.05 -57.1" fill="url(#gradient19)" fill-rule="evenodd" stroke="none"/>
    <path d="M-1.65 -58.85 L-1.7 -57.7 Q-2.35 -56.65 -3.1 -56.65 L-4.05 -57.1 Q-3.4 -58.6 -5.9 -58.35 L-7.3 -59.25 -6.65 -59.35 -6.25 -59.6 -5.85 -60.2 -5.6 -61.1 -5.65 -61.3 -5.65 -61.4 -5.65 -61.65 -5.85 -61.7 -5.85 -61.8 -5.65 -61.65 -2.45 -59.6 -1.65 -58.85" fill="url(#gradient20)" fill-rule="evenodd" stroke="none"/>
    <path d="M-7.3 -59.25 L-7.65 -59.6 -7.3 -59.35 -7.3 -59.25 M-6.7 -61.8 L-5.85 -61.9 -5.85 -61.8 -5.85 -61.7 -6.7 -61.8" fill="url(#gradient21)" fill-rule="evenodd" stroke="none"/>
    <path d="M-7.65 -59.6 L-7.8 -60.3 -7.65 -60.65 -7.65 -60.7 -7.6 -60.8 -7.6 -60.85 -7.5 -60.9 -7.5 -61.0 -7.3 -61.25 -6.9 -61.65 -6.8 -61.7 -6.7 -61.8 -5.85 -61.7 -5.65 -61.4 -5.65 -61.3 -5.6 -61.1 -5.85 -60.2 -6.4 -59.6 -7.3 -59.35 -7.65 -59.6" fill="url(#gradient22)" fill-rule="evenodd" stroke="none"/>
    <path d="M-5.0 -48.5 L-5.0 -48.4 -5.05 -48.4 -5.0 -48.5 M-5.45 -46.7 L-5.5 -46.5 -5.5 -46.55 -5.45 -46.7" fill="url(#gradient23)" fill-rule="evenodd" stroke="none"/>
    <path d="M13.4 0.3 Q17.3 15.45 -2.6 10.0 L-6.7 8.45 Q-8.85 7.35 -9.9 5.6 -13.9 -2.6 -11.4 -7.1 -11.5 -0.45 -9.95 2.3 -9.4 8.0 5.5 9.1 12.75 11.45 13.6 2.3 L13.4 0.3" fill="url(#gradient24)" fill-rule="evenodd" stroke="none"/>
  </g>
  <defs>
    <radialGradient cx="0" cy="0" gradientTransform="matrix(0.0535, 0.0, 0.0, 0.0535, -5.8, -60.65)" gradientUnits="userSpaceOnUse" id="gradient0" r="819.2" spreadMethod="pad">
      <stop offset="0.0" stop-color="#5b341b"/>
      <stop offset="1.0" stop-color="#4c2b16"/>
    </radialGradient>
    <radialGradient cx="0" cy="0" gradientTransform="matrix(0.0113, 0.0, 0.0, 0.0113, 2.05, -49.1)" gradientUnits="userSpaceOnUse" id="gradient1" r="819.2" spreadMethod="pad">
      <stop offset="0.0" stop-color="#635c48"/>
      <stop offset="1.0" stop-color="#39362a"/>
    </radialGradient>
    <radialGradient cx="0" cy="0" gradientTransform="matrix(0.004, 0.0, 0.0, 0.004, 9.2, -50.5)" gradientUnits="userSpaceOnUse" id="gradient2" r="819.2" spreadMethod="pad">
      <stop offset="0.0" stop-color="#69634c"/>
      <stop offset="1.0" stop-color="#363327"/>
    </radialGradient>
    <radialGradient cx="0" cy="0" gradientTransform="matrix(0.0295, 0.0, 0.0, 0.0295, 8.9, -48.75)" gradientUnits="userSpaceOnUse" id="gradient3" r="819.2" spreadMethod="pad">
      <stop offset="0.0" stop-color="#0e0804"/>
      <stop offset="1.0" stop-color="#0e0804"/>
    </radialGradient>
    <radialGradient cx="0" cy="0" gradientTransform="matrix(0.0075, 0.0, 0.0, 0.0075, 29.7, -35.05)" gradientUnits="userSpaceOnUse" id="gradient4" r="819.2" spreadMethod="pad">
      <stop offset="0.0" stop-color="#1f1e18"/>
      <stop offset="1.0" stop-color="#1f1e18"/>
    </radialGradient>
    <radialGradient cx="0" cy="0" gradientTransform="matrix(0.0091, 0.0, 0.0, 0.0091, 30.2, -36.6)" gradientUnits="userSpaceOnUse" id="gradient5" r="819.2" spreadMethod="pad">
      <stop offset="0.0" stop-color="#bab08f"/>
      <stop offset="1.0" stop-color="#999276"/>
    </radialGradient>
    <radialGradient cx="0" cy="0" gradientTransform="matrix(0.0114, 0.0, 0.0, 0.0114, 10.55, -47.15)" gradientUnits="userSpaceOnUse" id="gradient6" r="819.2" spreadMethod="pad">
      <stop offset="0.0" stop-color="#6a634d"/>
      <stop offset="1.0" stop-color="#474233"/>
    </radialGradient>
    <radialGradient cx="0" cy="0" gradientTransform="matrix(0.0051, 0.0, 0.0, 0.0051, 11.8, -37.55)" gradientUnits="userSpaceOnUse" id="gradient7" r="819.2" spreadMethod="pad">
      <stop offset="0.0" stop-color="#ffd47b"/>
      <stop offset="1.0" stop-color="#c0874e"/>
    </radialGradient>
    <radialGradient cx="0" cy="0" gradientTransform="matrix(0.0056, 0.0, 0.0, 0.0056, 10.25, -38.8)" gradientUnits="userSpaceOnUse" id="gradient8" r="819.2" spreadMethod="pad">
      <stop offset="0.0" stop-color="#ffce78"/>
      <stop offset="1.0" stop-color="#bc844d"/>
    </radialGradient>
    <radialGradient cx="0" cy="0" gradientTransform="matrix(0.0068, 0.0, 0.0, 0.0068, 9.05, -35.1)" gradientUnits="userSpaceOnUse" id="gradient9" r="819.2" spreadMethod="pad">
      <stop offset="0.0" stop-color="#ffd67c"/>
      <stop offset="1.0" stop-color="#9a6d3f"/>
    </radialGradient>
    <radialGradient cx="0" cy="0" gradientTransform="matrix(0.0413, 0.0, 0.0, 0.0413, 6.1, -34.05)" gradientUnits="userSpaceOnUse" id="gradient10" r="819.2" spreadMethod="pad">
      <stop offset="0.0" stop-color="#645e49"/>
      <stop offset="1.0" stop-color="#312e23"/>
    </radialGradient>
    <radialGradient cx="0" cy="0" gradientTransform="matrix(0.0021, 0.0, 0.0, 0.0021, 8.05, -48.95)" gradientUnits="userSpaceOnUse" id="gradient11" r="819.2" spreadMethod="pad">
      <stop offset="0.0" stop-color="#ffe284"/>
      <stop offset="1.0" stop-color="#95683d"/>
    </radialGradient>
    <radialGradient cx="0" cy="0" gradientTransform="matrix(0.0155, 0.0, 0.0, 0.0155, 1.65, -38.55)" gradientUnits="userSpaceOnUse" id="gradient12" r="819.2" spreadMethod="pad">
      <stop offset="0.0" stop-color="#655f4a"/>
      <stop offset="1.0" stop-color="#423e30"/>
    </radialGradient>
    <radialGradient cx="0" cy="0" gradientTransform="matrix(0.0124, 0.0, 0.0, 0.0124, 2.4, -41.0)" gradientUnits="userSpaceOnUse" id="gradient13" r="819.2" spreadMethod="pad">
      <stop offset="0.0" stop-color="#655f4a"/>
      <stop offset="1.0" stop-color="#433f31"/>
    </radialGradient>
    <radialGradient cx="0" cy="0" gradientTransform="matrix(0.0037, 0.0, 0.0, 0.0037, 8.2, -29.6)" gradientUnits="userSpaceOnUse" id="gradient14" r="819.2" spreadMethod="pad">
      <stop offset="0.0" stop-color="#0c0c09"/>
      <stop offset="1.0" stop-color="#0c0c09"/>
    </radialGradient>
    <radialGradient cx="0" cy="0" gradientTransform="matrix(0.0075, 0.0, 0.0, 0.0075, 6.75, -24.35)" gradientUnits="userSpaceOnUse" id="gradient15" r="819.2" spreadMethod="pad">
      <stop offset="0.0" stop-color="#494535"/>
      <stop offset="1.0" stop-color="#373328"/>
    </radialGradient>
    <radialGradient cx="0" cy="0" gradientTransform="matrix(0.0476, 0.0, 0.0, 0.0476, -4.25, 3.15)" gradientUnits="userSpaceOnUse" id="gradient16" r="819.2" spreadMethod="pad">
      <stop offset="0.0" stop-color="#f43636"/>
      <stop offset="1.0" stop-color="#a12323"/>
    </radialGradient>
    <radialGradient cx="0" cy="0" gradientTransform="matrix(0.0047, 0.0, 0.0, 0.0047, 8.2, -29.35)" gradientUnits="userSpaceOnUse" id="gradient17" r="819.2" spreadMethod="pad">
      <stop offset="0.0" stop-color="#1f0707"/>
      <stop offset="1.0" stop-color="#1f0707"/>
    </radialGradient>
    <radialGradient cx="0" cy="0" gradientTransform="matrix(0.0133, 0.0, 0.0, 0.0133, 10.75, -13.55)" gradientUnits="userSpaceOnUse" id="gradient18" r="819.2" spreadMethod="pad">
      <stop offset="0.0" stop-color="#ffffd6"/>
      <stop offset="1.0" stop-color="#868067"/>
    </radialGradient>
    <radialGradient cx="0" cy="0" gradientTransform="matrix(0.0186, 0.0, 0.0, 0.0186, -5.3, -58.85)" gradientUnits="userSpaceOnUse" id="gradient19" r="819.2" spreadMethod="pad">
      <stop offset="0.0" stop-color="#704021"/>
      <stop offset="1.0" stop-color="#4e2c17"/>
    </radialGradient>
    <radialGradient cx="0" cy="0" gradientTransform="matrix(0.0042, 0.0, 0.0, 0.0042, -4.05, -59.5)" gradientUnits="userSpaceOnUse" id="gradient20" r="819.2" spreadMethod="pad">
      <stop offset="0.0" stop-color="#c6bc99"/>
      <stop offset="1.0" stop-color="#837c65"/>
    </radialGradient>
    <radialGradient cx="0" cy="0" gradientTransform="matrix(0.0059, 0.0, 0.0, 0.0059, -5.4, -61.3)" gradientUnits="userSpaceOnUse" id="gradient21" r="819.2" spreadMethod="pad">
      <stop offset="0.0" stop-color="#2d2b23"/>
      <stop offset="1.0" stop-color="#1f1e18"/>
    </radialGradient>
    <radialGradient cx="0" cy="0" gradientTransform="matrix(0.0024, 0.0, 0.0, 0.0024, -7.2, -60.35)" gradientUnits="userSpaceOnUse" id="gradient22" r="819.2" spreadMethod="pad">
      <stop offset="0.0" stop-color="#532f18"/>
      <stop offset="1.0" stop-color="#532f18"/>
    </radialGradient>
    <radialGradient cx="0" cy="0" gradientTransform="matrix(0.0122, 0.0, 0.0, 0.0122, -4.35, -50.35)" gradientUnits="userSpaceOnUse" id="gradient23" r="819.2" spreadMethod="pad">
      <stop offset="0.0" stop-color="#3a372a"/>
      <stop offset="1.0" stop-color="#14130f"/>
    </radialGradient>
    <radialGradient cx="0" cy="0" gradientTransform="matrix(0.0266, 0.0, 0.0, 0.0266, 1.6, 9.55)" gradientUnits="userSpaceOnUse" id="gradient24" r="819.2" spreadMethod="pad">
      <stop offset="0.0" stop-color="#615b46"/>
      <stop offset="1.0" stop-color="#373328"/>
    </radialGradient>
  </defs>
</svg>
