<?xml version="1.0" encoding="UTF-8" standalone="no"?>
<svg xmlns:ffdec="https://www.free-decompiler.com/flash" xmlns:xlink="http://www.w3.org/1999/xlink" ffdec:objectType="shape" height="71.05px" width="25.8px" xmlns="http://www.w3.org/2000/svg">
  <g transform="matrix(1.0, 0.0, 0.0, 1.0, 12.05, 54.65)">
    <path d="M4.35 -50.55 L5.4 -49.9 6.55 -48.75 6.75 -47.25 5.4 -46.4 5.35 -45.5 4.35 -45.75 4.7 -47.95 4.7 -48.0 4.8 -48.4 4.5 -49.35 4.35 -50.55" fill="url(#gradient0)" fill-rule="evenodd" stroke="none"/>
    <path d="M10.55 -40.9 L10.9 -39.85 10.85 -39.85 10.4 -40.5 10.35 -40.9 9.75 -42.15 10.55 -40.9 M-9.55 -42.6 L-9.4 -43.0 -8.9 -43.95 -6.95 -45.9 -6.6 -45.4 -6.95 -43.8 -6.95 -42.1 Q-8.75 -38.2 -8.0 -35.05 L-7.45 -32.4 -7.6 -32.45 -8.75 -35.6 Q-9.55 -37.3 -9.8 -39.4 L-9.55 -42.6" fill="url(#gradient1)" fill-rule="evenodd" stroke="none"/>
    <path d="M10.4 -40.5 L10.15 -40.9 10.35 -40.9 10.4 -40.5" fill="url(#gradient2)" fill-rule="evenodd" stroke="none"/>
    <path d="M9.8 -13.05 L9.75 -12.75 9.7 -12.9 9.8 -13.05 M9.95 -11.7 L10.15 -11.15 10.0 -11.2 9.95 -11.7 M1.45 -4.1 L0.45 -2.05 Q0.8 -3.8 0.25 -8.3 L0.0 -11.1 -0.4 -14.0 -0.45 -14.75 -0.8 -17.9 -0.85 -20.85 -0.85 -22.1 -0.8 -22.4 -0.7 -23.4 -0.65 -23.65 -0.65 -23.95 -0.6 -24.25 -0.6 -24.85 -0.45 -26.0 2.2 -27.55 2.35 -25.45 2.55 -13.35 1.4 -12.25 1.2 -11.5 1.35 -10.9 1.35 -9.4 Q1.6 -8.4 2.6 -7.65 L2.25 -6.3 2.05 -5.75 1.9 -5.1 1.45 -4.1 M10.15 -40.9 L9.2 -41.05 Q7.65 -40.45 7.3 -39.45 6.25 -38.7 5.75 -37.65 L5.1 -35.65 4.9 -39.65 4.9 -39.9 Q7.4 -43.45 5.75 -45.45 L8.05 -44.9 9.3 -43.2 9.75 -42.15 10.35 -40.9 10.15 -40.9 M-0.15 -36.6 L0.0 -37.0 Q1.15 -36.95 2.8 -38.0 L2.2 -32.4 2.1 -31.75 2.1 -30.6 -1.0 -28.2 -1.2 -29.7 -1.3 -30.3 -1.3 -30.9 -0.15 -36.6 M5.4 -29.5 L5.7 -29.15 5.4 -28.3 5.4 -29.5 M6.6 -20.0 L6.05 -19.05 5.35 -17.3 5.35 -22.75 6.05 -20.85 6.6 -20.0" fill="url(#gradient3)" fill-rule="evenodd" stroke="none"/>
    <path d="M11.0 -39.7 L11.9 -38.35 11.95 -37.55 Q9.35 -40.7 7.3 -39.45 7.65 -40.45 9.2 -41.05 L10.15 -40.9 10.4 -40.5 10.85 -39.85 11.0 -39.7 M-2.85 -31.85 L-3.3 -26.95 -4.15 -27.2 -4.15 -27.25 -4.4 -27.8 -4.7 -31.15 -5.15 -32.9 -3.9 -32.95 -3.3 -33.2 -2.85 -31.85 M-1.5 -25.4 L-0.45 -26.0 -0.6 -24.85 -1.5 -25.4 M-1.35 -29.8 L-1.2 -29.7 -1.0 -28.2 -1.3 -27.9 -1.35 -28.0 -1.35 -29.8" fill="url(#gradient4)" fill-rule="evenodd" stroke="none"/>
    <path d="M10.9 -39.85 L11.0 -39.7 10.85 -39.85 10.9 -39.85" fill="url(#gradient5)" fill-rule="evenodd" stroke="none"/>
    <path d="M5.35 -45.5 L5.4 -46.4 6.75 -47.25 6.7 -46.35 5.65 -45.65 5.35 -45.5" fill="url(#gradient6)" fill-rule="evenodd" stroke="none"/>
    <path d="M5.4 -49.9 Q6.3 -50.05 8.45 -47.75 L9.2 -46.05 8.15 -46.4 Q6.75 -45.0 8.35 -44.95 L8.05 -44.9 5.75 -45.45 5.65 -45.65 6.7 -46.35 6.75 -47.25 6.55 -48.75 5.4 -49.9" fill="url(#gradient7)" fill-rule="evenodd" stroke="none"/>
    <path d="M4.35 -45.75 L5.35 -45.5 5.65 -45.65 5.75 -45.45 Q7.4 -43.45 4.9 -39.9 3.35 -40.95 3.0 -39.4 L2.8 -38.0 Q1.15 -36.95 0.0 -37.0 L-0.15 -36.6 -1.05 -36.5 -0.9 -42.1 0.15 -42.35 1.1 -42.95 Q2.9 -43.2 3.85 -44.2 L4.35 -45.75 M-6.6 -45.4 L-6.1 -44.8 -4.9 -43.95 -4.05 -42.95 Q-2.55 -42.0 -1.75 -42.05 L-2.4 -36.45 -3.15 -36.5 -4.15 -36.6 -5.05 -36.9 Q-6.15 -38.45 -6.7 -40.05 L-6.95 -42.1 -6.95 -43.8 -6.6 -45.4" fill="url(#gradient8)" fill-rule="evenodd" stroke="none"/>
    <path d="M9.2 -46.05 L9.05 -45.7 8.95 -45.5 8.6 -44.95 8.35 -44.95 Q6.75 -45.0 8.15 -46.4 L9.2 -46.05" fill="url(#gradient9)" fill-rule="evenodd" stroke="none"/>
    <path d="M9.05 -45.7 L9.15 -45.4 8.95 -45.5 9.05 -45.7" fill="url(#gradient10)" fill-rule="evenodd" stroke="none"/>
    <path d="M9.15 -45.4 L9.9 -44.05 9.65 -44.15 8.6 -44.95 8.95 -45.5 9.15 -45.4" fill="url(#gradient11)" fill-rule="evenodd" stroke="none"/>
    <path d="M9.9 -44.05 L10.55 -40.9 9.75 -42.15 9.3 -43.2 8.05 -44.9 8.35 -44.95 8.6 -44.95 9.65 -44.15 9.9 -44.05" fill="url(#gradient12)" fill-rule="evenodd" stroke="none"/>
    <path d="M-6.65 -49.8 L-6.45 -50.55 -6.0 -51.1 -6.0 -51.05 -6.25 -50.3 Q-5.35 -47.4 -5.05 -48.0 -1.2 -46.05 1.3 -46.15 -2.1 -45.3 -5.65 -48.0 L-6.5 -49.05 -6.65 -49.8 M4.5 -49.35 L4.8 -48.4 4.7 -48.0 4.7 -47.95 4.3 -47.65 4.55 -48.0 4.5 -49.35" fill="url(#gradient13)" fill-rule="evenodd" stroke="none"/>
    <path d="M-6.75 -49.2 L-6.65 -49.8 -6.5 -49.05 -5.65 -48.0 Q-2.1 -45.3 1.3 -46.15 2.8 -46.55 4.3 -47.65 L4.7 -47.95 4.35 -45.75 3.85 -44.2 Q2.9 -43.2 1.1 -42.95 L-0.9 -42.85 -1.05 -45.65 -1.2 -45.7 -1.3 -44.6 -1.35 -44.35 -1.6 -43.0 -2.9 -43.2 -4.9 -43.95 -6.1 -44.8 -6.6 -45.4 -6.95 -45.9 -7.1 -47.25 -6.75 -49.1 -6.75 -49.2" fill="url(#gradient14)" fill-rule="evenodd" stroke="none"/>
    <path d="M-5.9 -51.15 L-4.25 -53.15 Q-3.0 -54.25 -1.6 -54.6 2.1 -55.1 4.35 -50.55 L4.5 -49.35 4.55 -48.0 4.3 -47.65 Q2.8 -46.55 1.3 -46.15 -1.2 -46.05 -5.05 -48.0 -5.35 -47.4 -6.25 -50.3 L-6.0 -51.05 -5.9 -51.15" fill="url(#gradient15)" fill-rule="evenodd" stroke="none"/>
    <path d="M4.9 -39.9 L4.9 -39.65 Q4.4 -38.4 3.0 -39.4 3.35 -40.95 4.9 -39.9" fill="url(#gradient16)" fill-rule="evenodd" stroke="none"/>
    <path d="M3.05 7.8 L2.95 1.6 2.9 0.15 2.95 -0.95 2.8 -4.25 2.8 -5.95 2.75 -7.55 4.0 -7.1 5.4 -7.25 5.45 -5.5 5.45 -3.5 5.45 0.3 5.45 2.0 5.5 3.75 5.5 6.05 5.5 8.0 5.35 8.35 4.9 8.8 4.75 8.85 4.7 8.85 3.7 8.8 3.35 8.35 3.05 7.8 M4.9 -39.65 L5.1 -35.65 5.2 -32.45 5.25 -32.25 5.25 -32.2 4.9 -31.4 4.75 -31.35 4.7 -31.3 Q2.7 -30.5 2.2 -32.4 L2.8 -38.0 3.0 -39.4 Q4.4 -38.4 4.9 -39.65 M2.35 -25.45 Q4.4 -24.05 5.25 -25.45 L5.35 -22.75 5.35 -17.3 5.4 -13.9 5.4 -12.85 Q4.55 -9.25 2.7 -12.05 L2.55 -13.35 2.35 -25.45" fill="url(#gradient17)" fill-rule="evenodd" stroke="none"/>
    <path d="M1.1 -42.95 L0.15 -42.35 -0.9 -42.1 -0.9 -42.85 1.1 -42.95 M-4.9 -43.95 L-2.9 -43.2 -1.6 -43.0 -1.75 -42.05 Q-2.55 -42.0 -4.05 -42.95 L-4.9 -43.95" fill="url(#gradient18)" fill-rule="evenodd" stroke="none"/>
    <path d="M11.95 -37.55 Q13.85 -35.9 12.55 -30.5 L11.5 -29.3 Q9.1 -28.1 8.85 -28.4 L5.7 -29.15 5.4 -29.5 5.25 -32.2 5.25 -32.25 5.2 -32.45 5.1 -35.65 5.75 -37.65 Q6.25 -38.7 7.3 -39.45 9.35 -40.7 11.95 -37.55" fill="url(#gradient19)" fill-rule="evenodd" stroke="none"/>
    <path d="M5.25 -32.2 L5.4 -29.5 5.4 -28.3 5.25 -25.45 Q4.4 -24.05 2.35 -25.45 L2.2 -27.55 Q5.8 -29.0 2.1 -30.6 L2.1 -31.75 Q3.5 -30.45 4.7 -31.3 L4.75 -31.35 4.9 -31.4 5.25 -32.2" fill="url(#gradient20)" fill-rule="evenodd" stroke="none"/>
    <path d="M4.7 -31.3 Q3.5 -30.45 2.1 -31.75 L2.2 -32.4 Q2.7 -30.5 4.7 -31.3" fill="url(#gradient21)" fill-rule="evenodd" stroke="none"/>
    <path d="M-0.9 -42.1 L-1.05 -36.5 -1.3 -30.9 -1.3 -30.3 -1.35 -29.8 -1.35 -28.0 -1.3 -27.9 -1.0 -28.2 2.1 -30.6 Q5.8 -29.0 2.2 -27.55 L-0.45 -26.0 -1.5 -25.4 Q-4.1 -23.35 -3.3 -26.95 L-2.85 -31.85 -2.4 -36.45 -1.75 -42.05 -1.6 -43.0 -1.35 -44.35 -1.3 -44.6 -1.2 -45.7 -1.05 -45.65 -0.9 -42.85 -0.9 -42.1" fill="url(#gradient22)" fill-rule="evenodd" stroke="none"/>
    <path d="M5.7 -29.15 L8.85 -28.4 8.95 -23.9 Q9.8 -20.85 10.4 -21.05 L8.6 -19.85 7.9 -19.5 7.25 -19.5 6.75 -19.8 6.75 -19.85 6.6 -20.0 6.05 -20.85 5.35 -22.75 5.25 -25.45 5.4 -28.3 5.7 -29.15" fill="url(#gradient23)" fill-rule="evenodd" stroke="none"/>
    <path d="M12.55 -30.5 Q14.8 -28.0 12.9 -23.0 L12.85 -22.95 12.55 -22.3 12.0 -21.75 10.55 -21.15 10.4 -21.05 Q9.8 -20.85 8.95 -23.9 L8.85 -28.4 Q9.1 -28.1 11.5 -29.3 L12.55 -30.5" fill="url(#gradient24)" fill-rule="evenodd" stroke="none"/>
    <path d="M12.9 -23.0 L12.9 -22.95 12.85 -22.95 12.9 -23.0" fill="url(#gradient25)" fill-rule="evenodd" stroke="none"/>
    <path d="M12.9 -22.95 L12.85 -21.85 12.55 -22.3 12.85 -22.95 12.9 -22.95" fill="url(#gradient26)" fill-rule="evenodd" stroke="none"/>
    <path d="M12.85 -21.85 Q13.55 -19.4 12.45 -17.0 L11.55 -15.4 9.8 -13.05 9.7 -12.9 9.25 -12.25 8.65 -11.3 7.65 -10.2 7.6 -10.75 Q6.85 -11.4 6.45 -12.65 L6.45 -13.1 6.05 -13.65 6.55 -15.75 6.75 -19.8 7.25 -19.5 7.9 -19.5 8.6 -19.85 10.4 -21.05 10.55 -21.15 12.0 -21.75 12.55 -22.3 12.85 -21.85" fill="url(#gradient27)" fill-rule="evenodd" stroke="none"/>
    <path d="M12.45 -17.0 L12.1 -16.05 11.55 -15.4 12.45 -17.0" fill="url(#gradient28)" fill-rule="evenodd" stroke="none"/>
    <path d="M6.75 -19.8 L6.55 -15.75 6.05 -13.65 5.4 -13.9 5.35 -17.3 6.05 -19.05 6.6 -20.0 6.75 -19.85 6.75 -19.8 M-0.6 -14.05 L-0.45 -14.75 -0.4 -14.0 -0.6 -14.05" fill="url(#gradient29)" fill-rule="evenodd" stroke="none"/>
    <path d="M6.05 -13.65 L6.45 -13.1 6.45 -12.65 5.4 -12.85 5.4 -13.9 6.05 -13.65 M2.7 -12.05 L2.1 -11.75 2.0 -11.4 1.6 -11.2 1.65 -11.05 1.35 -10.9 1.2 -11.5 1.4 -12.25 2.55 -13.35 2.7 -12.05" fill="url(#gradient30)" fill-rule="evenodd" stroke="none"/>
    <path d="M6.45 -12.65 Q6.85 -11.4 7.6 -10.75 L7.65 -10.2 7.6 -9.5 7.2 -8.6 6.7 -7.95 5.4 -7.25 4.0 -7.1 2.75 -7.55 2.6 -7.65 Q1.6 -8.4 1.35 -9.4 L1.35 -10.9 1.65 -11.05 1.6 -11.2 2.0 -11.4 2.1 -11.75 2.7 -12.05 Q4.55 -9.25 5.4 -12.85 L6.45 -12.65" fill="url(#gradient31)" fill-rule="evenodd" stroke="none"/>
    <path d="M9.75 -12.75 L9.95 -11.75 9.95 -11.7 10.0 -11.2 9.95 -10.05 9.55 -8.6 9.55 -8.5 8.35 -6.7 Q7.55 -5.9 6.6 -5.75 L5.45 -5.5 5.4 -7.25 6.7 -7.95 7.2 -8.6 Q9.5 -9.85 9.25 -12.25 L9.7 -12.9 9.75 -12.75 M0.25 -8.3 L0.15 -8.3 -0.15 -9.0 -0.8 -11.05 -0.7 -11.8 -0.4 -11.3 0.0 -11.1 0.25 -8.3 M2.6 -7.65 L2.75 -7.55 2.8 -5.95 2.25 -6.3 2.6 -7.65" fill="url(#gradient32)" fill-rule="evenodd" stroke="none"/>
    <path d="M7.65 -10.2 L8.65 -11.3 9.25 -12.25 Q9.5 -9.85 7.2 -8.6 L7.6 -9.5 7.65 -10.2 M-0.6 -14.05 L-0.4 -14.0 0.0 -11.1 -0.4 -11.3 -0.7 -11.8 -0.6 -14.05" fill="url(#gradient33)" fill-rule="evenodd" stroke="none"/>
    <path d="M10.15 -11.15 L10.2 -9.75 9.8 -8.8 9.55 -8.6 9.95 -10.05 10.0 -11.2 10.15 -11.15 M-5.15 -32.9 L-4.7 -31.15 -5.4 -30.5 -5.75 -31.0 -6.3 -29.7 -6.75 -28.9 -6.95 -31.05 -7.35 -31.8 -7.35 -31.85 -7.45 -32.25 -7.45 -32.4 -8.0 -35.05 -7.1 -33.95 -6.2 -33.2 -5.15 -32.9" fill="url(#gradient34)" fill-rule="evenodd" stroke="none"/>
    <path d="M9.55 -8.5 L9.65 -8.15 9.65 -6.85 9.2 -5.75 Q8.05 -3.7 5.45 -3.5 L5.45 -5.5 6.6 -5.75 Q7.55 -5.9 8.35 -6.7 L9.55 -8.5 M2.8 -5.95 L2.8 -4.25 1.9 -5.1 2.05 -5.75 2.25 -6.3 2.8 -5.95" fill="url(#gradient35)" fill-rule="evenodd" stroke="none"/>
    <path d="M9.65 -8.15 Q11.65 -5.75 10.75 -2.65 9.9 0.45 5.45 0.3 L5.45 -3.5 Q8.05 -3.7 9.2 -5.75 L9.65 -6.85 9.65 -8.15 M2.3 -1.7 L2.3 -1.75 2.25 -1.85 1.45 -4.1 1.9 -5.1 2.8 -4.25 2.95 -0.95 2.35 -1.65 2.3 -1.7" fill="url(#gradient36)" fill-rule="evenodd" stroke="none"/>
    <path d="M2.3 -1.65 L2.3 -1.7 2.35 -1.65 2.3 -1.65" fill="url(#gradient37)" fill-rule="evenodd" stroke="none"/>
    <path d="M10.75 -2.65 Q11.0 -1.5 10.75 -0.85 L10.0 0.65 Q8.85 2.7 5.45 2.0 L5.45 0.3 Q9.9 0.45 10.75 -2.65 M2.45 -0.7 L2.3 -1.65 2.35 -1.65 2.95 -0.95 2.9 0.15 2.5 -0.6 2.45 -0.7" fill="url(#gradient38)" fill-rule="evenodd" stroke="none"/>
    <path d="M2.45 -0.6 L2.45 -0.7 2.5 -0.6 2.45 -0.6" fill="url(#gradient39)" fill-rule="evenodd" stroke="none"/>
    <path d="M10.0 0.65 L9.65 1.95 8.35 3.3 7.0 3.9 5.5 3.75 5.45 2.0 Q8.85 2.7 10.0 0.65 M2.95 1.6 L2.55 0.55 2.45 -0.6 2.5 -0.6 2.9 0.15 2.95 1.6" fill="url(#gradient40)" fill-rule="evenodd" stroke="none"/>
    <path d="M8.35 3.3 L8.35 3.75 Q8.2 6.2 5.5 6.05 L5.5 3.75 7.0 3.9 8.35 3.3" fill="url(#gradient41)" fill-rule="evenodd" stroke="none"/>
    <path d="M8.35 3.75 Q10.1 5.95 5.65 12.95 L5.6 8.35 5.5 8.0 5.5 6.05 Q8.2 6.2 8.35 3.75 M3.05 12.85 L2.55 11.75 Q2.7 9.45 3.0 9.35 L3.05 12.85" fill="url(#gradient42)" fill-rule="evenodd" stroke="none"/>
    <path d="M3.05 8.25 L3.05 7.8 3.35 8.35 3.7 8.8 4.7 8.85 3.65 8.85 3.2 8.35 3.05 8.25" fill="url(#gradient43)" fill-rule="evenodd" stroke="none"/>
    <path d="M5.65 12.95 L5.6 15.7 Q5.55 16.3 4.1 16.4 L3.7 16.25 3.25 15.7 3.05 12.85 3.0 9.35 3.05 8.25 3.2 8.35 3.65 8.85 4.7 8.85 4.75 8.85 4.9 8.8 5.35 8.35 5.5 8.0 5.6 8.35 5.65 12.95" fill="url(#gradient44)" fill-rule="evenodd" stroke="none"/>
    <path d="M-6.0 -51.1 L-5.9 -51.15 -6.0 -51.05 -6.0 -51.1" fill="url(#gradient45)" fill-rule="evenodd" stroke="none"/>
    <path d="M-6.85 -49.1 L-6.75 -49.2 -6.75 -49.1 -6.85 -49.1" fill="url(#gradient46)" fill-rule="evenodd" stroke="none"/>
    <path d="M-9.4 -43.0 Q-10.45 -47.3 -6.85 -49.1 L-6.75 -49.1 -7.1 -47.25 -6.95 -45.9 -8.9 -43.95 -9.4 -43.0" fill="url(#gradient47)" fill-rule="evenodd" stroke="none"/>
    <path d="M-6.95 -42.1 L-6.7 -40.05 Q-6.15 -38.45 -5.05 -36.9 L-4.15 -36.6 -3.15 -36.5 -3.5 -35.05 -3.3 -33.2 -3.9 -32.95 -5.15 -32.9 -6.2 -33.2 -7.1 -33.95 -8.0 -35.05 Q-8.75 -38.2 -6.95 -42.1" fill="url(#gradient48)" fill-rule="evenodd" stroke="none"/>
    <path d="M-9.4 -36.1 Q-11.3 -37.75 -9.55 -42.6 L-9.8 -39.4 Q-9.55 -37.3 -8.75 -35.6 L-9.4 -36.1" fill="url(#gradient49)" fill-rule="evenodd" stroke="none"/>
    <path d="M-1.05 -36.5 L-0.15 -36.6 -1.3 -30.9 -1.05 -36.5 M-2.4 -36.45 L-2.85 -31.85 -3.3 -33.2 -3.5 -35.05 -3.15 -36.5 -2.4 -36.45 M-1.35 -29.8 L-1.3 -30.3 -1.2 -29.7 -1.35 -29.8" fill="url(#gradient50)" fill-rule="evenodd" stroke="none"/>
    <path d="M-9.5 -30.6 L-9.9 -34.85 -9.4 -36.1 -8.75 -35.6 -7.6 -32.45 -8.25 -29.3 -9.0 -29.1 -9.35 -29.15 -9.6 -29.55 -9.5 -30.6" fill="url(#gradient51)" fill-rule="evenodd" stroke="none"/>
    <path d="M-8.25 -14.9 L-8.75 -11.5 -9.35 -9.95 -9.5 -10.7 -9.6 -14.7 Q-9.1 -19.55 -9.1 -25.3 L-8.25 -28.3 -8.25 -29.3 -7.6 -32.45 -7.45 -32.4 -7.45 -32.25 -7.35 -31.85 -7.35 -31.8 -6.95 -31.05 -6.75 -28.9 -6.75 -28.6 -7.0 -24.35 -7.2 -23.7 -7.75 -21.9 -7.85 -20.6 -8.0 -19.85 -8.1 -17.45 -8.25 -14.9" fill="url(#gradient52)" fill-rule="evenodd" stroke="none"/>
    <path d="M-9.2 -25.3 Q-13.2 -27.2 -9.5 -30.6 L-9.6 -29.55 -9.35 -29.15 -9.0 -29.1 Q-10.1 -26.0 -9.2 -25.3 M-6.75 -28.9 L-6.3 -29.7 -6.2 -29.55 -6.75 -28.6 -6.75 -28.9" fill="url(#gradient53)" fill-rule="evenodd" stroke="none"/>
    <path d="M-4.7 -31.15 L-4.4 -27.8 -4.15 -27.25 -4.2 -27.2 -5.1 -25.65 -5.3 -24.3 -6.1 -24.25 -6.25 -24.3 -6.25 -23.95 -6.75 -23.85 -6.85 -23.65 -7.2 -23.7 -7.0 -24.35 -6.75 -28.6 -6.2 -29.55 -5.4 -30.5 -4.7 -31.15" fill="url(#gradient54)" fill-rule="evenodd" stroke="none"/>
    <path d="M-9.1 -25.3 L-9.2 -25.3 Q-10.1 -26.0 -9.0 -29.1 L-8.25 -29.3 -8.25 -28.3 -9.1 -25.3" fill="url(#gradient55)" fill-rule="evenodd" stroke="none"/>
    <path d="M-4.15 -27.25 L-4.15 -27.2 -4.2 -27.2 -4.15 -27.25" fill="url(#gradient56)" fill-rule="evenodd" stroke="none"/>
    <path d="M-3.3 -26.95 Q-4.1 -23.35 -1.5 -25.4 L-0.6 -24.85 -0.6 -24.25 -0.65 -23.95 -0.65 -23.65 -0.7 -23.4 -0.8 -22.4 -0.85 -22.1 -0.85 -20.85 -2.15 -19.85 Q-3.8 -17.8 -4.7 -19.85 L-5.15 -21.5 -5.3 -24.3 -5.1 -25.65 -4.2 -27.2 -4.15 -27.2 -3.3 -26.95" fill="url(#gradient57)" fill-rule="evenodd" stroke="none"/>
    <path d="M-1.7 0.65 L-2.15 0.25 Q-3.0 -1.15 -5.55 -2.5 L-6.4 -19.85 Q-5.95 -22.3 -6.25 -23.95 L-6.25 -24.3 -6.1 -24.25 -5.3 -24.3 -5.15 -21.5 -4.7 -19.85 Q-3.8 -17.8 -2.15 -19.85 L-0.85 -20.85 -0.8 -17.9 Q-2.25 -15.9 -1.75 -5.75 L-1.7 0.65" fill="url(#gradient58)" fill-rule="evenodd" stroke="none"/>
    <path d="M-7.2 -23.7 L-6.85 -23.65 -6.75 -19.05 -7.2 -19.4 -7.85 -20.6 -7.75 -21.9 -7.2 -23.7" fill="url(#gradient59)" fill-rule="evenodd" stroke="none"/>
    <path d="M-0.8 -6.15 L-0.7 1.6 -0.8 1.75 -1.7 0.65 -1.75 -5.75 Q-2.25 -15.9 -0.8 -17.9 L-0.45 -14.75 -0.6 -14.05 -0.7 -11.8 -0.8 -11.05 -0.8 -8.3 -0.8 -6.95 -0.8 -6.15 M-2.15 0.25 L-4.0 -1.25 -6.0 -2.55 -6.05 -3.45 -6.05 -5.25 -6.2 -6.95 -6.2 -8.25 -6.4 -11.6 -6.45 -13.15 -6.6 -16.1 -6.75 -19.05 -6.85 -23.65 -6.75 -23.85 -6.25 -23.95 Q-5.95 -22.3 -6.4 -19.85 L-5.55 -2.5 Q-3.0 -1.15 -2.15 0.25" fill="url(#gradient60)" fill-rule="evenodd" stroke="none"/>
    <path d="M-7.85 -20.6 L-7.2 -19.4 -6.75 -19.05 -6.6 -16.1 -7.0 -16.3 -8.0 -17.55 -8.1 -17.45 -8.0 -19.85 -7.85 -20.6" fill="url(#gradient61)" fill-rule="evenodd" stroke="none"/>
    <path d="M-7.85 -14.4 L-8.25 -14.9 -8.1 -17.45 -8.0 -17.55 -7.0 -16.3 -6.6 -16.1 -6.45 -13.15 -7.85 -14.4" fill="url(#gradient62)" fill-rule="evenodd" stroke="none"/>
    <path d="M-7.85 -14.1 L-7.85 -14.4 -6.45 -13.15 -6.4 -11.6 -7.15 -12.3 -7.85 -14.1" fill="url(#gradient63)" fill-rule="evenodd" stroke="none"/>
    <path d="M-4.0 -1.25 L-10.7 0.3 Q-12.5 0.65 -11.7 -1.0 L-11.85 -1.4 Q-13.1 -2.75 -6.5 -5.1 L-6.45 -4.0 -6.05 -3.45 -6.0 -2.55 -4.0 -1.25" fill="url(#gradient64)" fill-rule="evenodd" stroke="none"/>
    <path d="M-7.8 -10.2 L-8.2 -12.15 Q-8.25 -13.6 -7.85 -14.1 L-7.15 -12.3 -6.4 -11.6 -6.2 -8.25 -6.9 -8.85 -7.8 -10.2 M-0.8 -8.3 L-0.8 -11.05 -0.15 -9.0 -0.8 -8.3" fill="url(#gradient65)" fill-rule="evenodd" stroke="none"/>
    <path d="M0.15 -8.3 L-0.15 -7.75 -0.8 -6.95 -0.8 -8.3 -0.15 -9.0 0.15 -8.3 M-7.45 -8.45 L-7.8 -10.2 -6.9 -8.85 -6.2 -8.25 -6.2 -6.95 -6.6 -7.15 -6.9 -7.7 -7.0 -7.65 -7.45 -8.45" fill="url(#gradient66)" fill-rule="evenodd" stroke="none"/>
    <path d="M-0.15 -7.75 L-0.35 -6.8 -0.8 -6.15 -0.8 -6.95 -0.15 -7.75 M-6.5 -5.6 L-7.2 -6.85 -7.45 -8.45 -7.0 -7.65 -6.9 -7.7 -6.6 -7.15 -6.2 -6.95 -6.05 -5.25 -6.5 -5.6" fill="url(#gradient67)" fill-rule="evenodd" stroke="none"/>
    <path d="M-6.5 -5.1 L-6.5 -5.6 -6.05 -5.25 -6.05 -3.45 -6.45 -4.0 -6.5 -5.1" fill="url(#gradient68)" fill-rule="evenodd" stroke="none"/>
  </g>
  <defs>
    <radialGradient cx="0" cy="0" gradientTransform="matrix(0.0057, 0.0, 0.0, 0.0057, 3.05, -46.35)" gradientUnits="userSpaceOnUse" id="gradient0" r="819.2" spreadMethod="pad">
      <stop offset="0.0" stop-color="#42678b"/>
      <stop offset="1.0" stop-color="#24394c"/>
    </radialGradient>
    <radialGradient cx="0" cy="0" gradientTransform="matrix(0.0222, 0.0, 0.0, 0.0222, -5.0, -46.7)" gradientUnits="userSpaceOnUse" id="gradient1" r="819.2" spreadMethod="pad">
      <stop offset="0.0" stop-color="#ffab00"/>
      <stop offset="1.0" stop-color="#e77500"/>
    </radialGradient>
    <radialGradient cx="0" cy="0" gradientTransform="matrix(0.0017, 0.0, 0.0, 0.0017, 10.2, -41.0)" gradientUnits="userSpaceOnUse" id="gradient2" r="819.2" spreadMethod="pad">
      <stop offset="0.0" stop-color="#e57300"/>
      <stop offset="1.0" stop-color="#db6e00"/>
    </radialGradient>
    <radialGradient cx="0" cy="0" gradientTransform="matrix(0.0437, 0.0, 0.0, 0.0437, 1.1, -37.9)" gradientUnits="userSpaceOnUse" id="gradient3" r="819.2" spreadMethod="pad">
      <stop offset="0.0" stop-color="#ffd800"/>
      <stop offset="1.0" stop-color="#ff8e00"/>
    </radialGradient>
    <radialGradient cx="0" cy="0" gradientTransform="matrix(0.0213, 0.0, 0.0, 0.0213, 6.45, -40.55)" gradientUnits="userSpaceOnUse" id="gradient4" r="819.2" spreadMethod="pad">
      <stop offset="0.0" stop-color="#ffd77d"/>
      <stop offset="1.0" stop-color="#bf874e"/>
    </radialGradient>
    <radialGradient cx="0" cy="0" gradientTransform="matrix(0.0027, 0.0, 0.0, 0.0027, 10.95, -39.6)" gradientUnits="userSpaceOnUse" id="gradient5" r="819.2" spreadMethod="pad">
      <stop offset="0.0" stop-color="#d36a00"/>
      <stop offset="1.0" stop-color="#bd5f00"/>
    </radialGradient>
    <radialGradient cx="0" cy="0" gradientTransform="matrix(0.0027, 0.0, 0.0, 0.0027, 6.6, -47.4)" gradientUnits="userSpaceOnUse" id="gradient6" r="819.2" spreadMethod="pad">
      <stop offset="0.0" stop-color="#293f55"/>
      <stop offset="1.0" stop-color="#283f55"/>
    </radialGradient>
    <radialGradient cx="0" cy="0" gradientTransform="matrix(0.0053, 0.0, 0.0, 0.0053, 5.8, -47.5)" gradientUnits="userSpaceOnUse" id="gradient7" r="819.2" spreadMethod="pad">
      <stop offset="0.0" stop-color="#42688b"/>
      <stop offset="1.0" stop-color="#1e2f3f"/>
    </radialGradient>
    <radialGradient cx="0" cy="0" gradientTransform="matrix(0.011, 0.0, 0.0, 0.011, 0.45, -40.65)" gradientUnits="userSpaceOnUse" id="gradient8" r="819.2" spreadMethod="pad">
      <stop offset="0.0" stop-color="#416588"/>
      <stop offset="1.0" stop-color="#2a4259"/>
    </radialGradient>
    <radialGradient cx="0" cy="0" gradientTransform="matrix(0.0022, 0.0, 0.0, 0.0022, 9.1, -46.15)" gradientUnits="userSpaceOnUse" id="gradient9" r="819.2" spreadMethod="pad">
      <stop offset="0.0" stop-color="#283f55"/>
      <stop offset="1.0" stop-color="#283f55"/>
    </radialGradient>
    <radialGradient cx="0" cy="0" gradientTransform="matrix(0.0052, 0.0, 0.0, 0.0052, 7.35, -46.45)" gradientUnits="userSpaceOnUse" id="gradient10" r="819.2" spreadMethod="pad">
      <stop offset="0.0" stop-color="#9c9579"/>
      <stop offset="1.0" stop-color="#7e7761"/>
    </radialGradient>
    <radialGradient cx="0" cy="0" gradientTransform="matrix(0.0025, 0.0, 0.0, 0.0025, 8.1, -45.3)" gradientUnits="userSpaceOnUse" id="gradient11" r="819.2" spreadMethod="pad">
      <stop offset="0.0" stop-color="#24384c"/>
      <stop offset="1.0" stop-color="#203243"/>
    </radialGradient>
    <radialGradient cx="0" cy="0" gradientTransform="matrix(0.0076, 0.0, 0.0, 0.0076, 9.1, -42.65)" gradientUnits="userSpaceOnUse" id="gradient12" r="819.2" spreadMethod="pad">
      <stop offset="0.0" stop-color="#080c10"/>
      <stop offset="1.0" stop-color="#080c10"/>
    </radialGradient>
    <radialGradient cx="0" cy="0" gradientTransform="matrix(0.0093, 0.0, 0.0, 0.0093, -0.5, -46.1)" gradientUnits="userSpaceOnUse" id="gradient13" r="819.2" spreadMethod="pad">
      <stop offset="0.0" stop-color="#294056"/>
      <stop offset="1.0" stop-color="#283e53"/>
    </radialGradient>
    <radialGradient cx="0" cy="0" gradientTransform="matrix(0.0098, 0.0, 0.0, 0.0098, -2.7, -45.2)" gradientUnits="userSpaceOnUse" id="gradient14" r="819.2" spreadMethod="pad">
      <stop offset="0.0" stop-color="#355370"/>
      <stop offset="1.0" stop-color="#283e54"/>
    </radialGradient>
    <radialGradient cx="0" cy="0" gradientTransform="matrix(0.0074, 0.0, 0.0, 0.0074, -0.9, -48.7)" gradientUnits="userSpaceOnUse" id="gradient15" r="819.2" spreadMethod="pad">
      <stop offset="0.0" stop-color="#fff2c5"/>
      <stop offset="1.0" stop-color="#7c7660"/>
    </radialGradient>
    <radialGradient cx="0" cy="0" gradientTransform="matrix(0.0019, 0.0, 0.0, 0.0019, 4.35, -39.2)" gradientUnits="userSpaceOnUse" id="gradient16" r="819.2" spreadMethod="pad">
      <stop offset="0.0" stop-color="#5a331a"/>
      <stop offset="1.0" stop-color="#5a331a"/>
    </radialGradient>
    <radialGradient cx="0" cy="0" gradientTransform="matrix(0.0632, 0.0, 0.0, 0.0632, 3.0, -39.5)" gradientUnits="userSpaceOnUse" id="gradient17" r="819.2" spreadMethod="pad">
      <stop offset="0.0" stop-color="#4f2d17"/>
      <stop offset="1.0" stop-color="#3a2111"/>
    </radialGradient>
    <radialGradient cx="0" cy="0" gradientTransform="matrix(0.0047, 0.0, 0.0, 0.0047, -1.6, -43.15)" gradientUnits="userSpaceOnUse" id="gradient18" r="819.2" spreadMethod="pad">
      <stop offset="0.0" stop-color="#ba834c"/>
      <stop offset="1.0" stop-color="#9d6e40"/>
    </radialGradient>
    <radialGradient cx="0" cy="0" gradientTransform="matrix(0.0089, 0.0, 0.0, 0.0089, 8.0, -35.3)" gradientUnits="userSpaceOnUse" id="gradient19" r="819.2" spreadMethod="pad">
      <stop offset="0.0" stop-color="#69624c"/>
      <stop offset="1.0" stop-color="#383528"/>
    </radialGradient>
    <radialGradient cx="0" cy="0" gradientTransform="matrix(0.0088, 0.0, 0.0, 0.0088, 2.15, -31.9)" gradientUnits="userSpaceOnUse" id="gradient20" r="819.2" spreadMethod="pad">
      <stop offset="0.0" stop-color="#a0987b"/>
      <stop offset="1.0" stop-color="#8d856d"/>
    </radialGradient>
    <radialGradient cx="0" cy="0" gradientTransform="matrix(0.0033, 0.0, 0.0, 0.0033, 2.85, -31.25)" gradientUnits="userSpaceOnUse" id="gradient21" r="819.2" spreadMethod="pad">
      <stop offset="0.0" stop-color="#d3c8a3"/>
      <stop offset="1.0" stop-color="#d2c7a2"/>
    </radialGradient>
    <radialGradient cx="0" cy="0" gradientTransform="matrix(0.0229, 0.0, 0.0, 0.0229, -1.65, -27.15)" gradientUnits="userSpaceOnUse" id="gradient22" r="819.2" spreadMethod="pad">
      <stop offset="0.0" stop-color="#63381d"/>
      <stop offset="1.0" stop-color="#4a2a15"/>
    </radialGradient>
    <radialGradient cx="0" cy="0" gradientTransform="matrix(0.0131, 0.0, 0.0, 0.0131, 7.65, -29.75)" gradientUnits="userSpaceOnUse" id="gradient23" r="819.2" spreadMethod="pad">
      <stop offset="0.0" stop-color="#ffe485"/>
      <stop offset="1.0" stop-color="#c1884f"/>
    </radialGradient>
    <radialGradient cx="0" cy="0" gradientTransform="matrix(0.0095, 0.0, 0.0, 0.0095, 8.8, -28.6)" gradientUnits="userSpaceOnUse" id="gradient24" r="819.2" spreadMethod="pad">
      <stop offset="0.0" stop-color="#ffe484"/>
      <stop offset="1.0" stop-color="#bb844d"/>
    </radialGradient>
    <radialGradient cx="0" cy="0" gradientTransform="matrix(0.0011, 0.0, 0.0, 0.0011, 12.9, -23.55)" gradientUnits="userSpaceOnUse" id="gradient25" r="819.2" spreadMethod="pad">
      <stop offset="0.0" stop-color="#be864e"/>
      <stop offset="1.0" stop-color="#a37343"/>
    </radialGradient>
    <radialGradient cx="0" cy="0" gradientTransform="matrix(0.0017, 0.0, 0.0, 0.0017, 12.35, -22.4)" gradientUnits="userSpaceOnUse" id="gradient26" r="819.2" spreadMethod="pad">
      <stop offset="0.0" stop-color="#db9a5a"/>
      <stop offset="1.0" stop-color="#b9834c"/>
    </radialGradient>
    <radialGradient cx="0" cy="0" gradientTransform="matrix(0.012, 0.0, 0.0, 0.012, 7.7, -13.9)" gradientUnits="userSpaceOnUse" id="gradient27" r="819.2" spreadMethod="pad">
      <stop offset="0.0" stop-color="#6b654e"/>
      <stop offset="1.0" stop-color="#4a4535"/>
    </radialGradient>
    <radialGradient cx="0" cy="0" gradientTransform="matrix(0.0024, 0.0, 0.0, 0.0024, 11.9, -16.05)" gradientUnits="userSpaceOnUse" id="gradient28" r="819.2" spreadMethod="pad">
      <stop offset="0.0" stop-color="#464133"/>
      <stop offset="1.0" stop-color="#413c2e"/>
    </radialGradient>
    <radialGradient cx="0" cy="0" gradientTransform="matrix(0.0083, 0.0, 0.0, 0.0083, 4.45, -18.8)" gradientUnits="userSpaceOnUse" id="gradient29" r="819.2" spreadMethod="pad">
      <stop offset="0.0" stop-color="#3e6081"/>
      <stop offset="1.0" stop-color="#2b435a"/>
    </radialGradient>
    <radialGradient cx="0" cy="0" gradientTransform="matrix(0.0045, 0.0, 0.0, 0.0045, 2.9, -12.0)" gradientUnits="userSpaceOnUse" id="gradient30" r="819.2" spreadMethod="pad">
      <stop offset="0.0" stop-color="#ffe283"/>
      <stop offset="1.0" stop-color="#cb8f53"/>
    </radialGradient>
    <radialGradient cx="0" cy="0" gradientTransform="matrix(0.0048, 0.0, 0.0, 0.0048, 3.9, -11.0)" gradientUnits="userSpaceOnUse" id="gradient31" r="819.2" spreadMethod="pad">
      <stop offset="0.0" stop-color="#ffe686"/>
      <stop offset="1.0" stop-color="#9f7041"/>
    </radialGradient>
    <radialGradient cx="0" cy="0" gradientTransform="matrix(0.0095, 0.0, 0.0, 0.0095, 6.15, -8.8)" gradientUnits="userSpaceOnUse" id="gradient32" r="819.2" spreadMethod="pad">
      <stop offset="0.0" stop-color="#324e68"/>
      <stop offset="1.0" stop-color="#203345"/>
    </radialGradient>
    <radialGradient cx="0" cy="0" gradientTransform="matrix(0.011, 0.0, 0.0, 0.011, 6.95, -11.05)" gradientUnits="userSpaceOnUse" id="gradient33" r="819.2" spreadMethod="pad">
      <stop offset="0.0" stop-color="#2f4962"/>
      <stop offset="1.0" stop-color="#25394d"/>
    </radialGradient>
    <radialGradient cx="0" cy="0" gradientTransform="matrix(0.0312, 0.0, 0.0, 0.0312, -9.2, -24.75)" gradientUnits="userSpaceOnUse" id="gradient34" r="819.2" spreadMethod="pad">
      <stop offset="0.0" stop-color="#ef7800"/>
      <stop offset="1.0" stop-color="#331a00"/>
    </radialGradient>
    <radialGradient cx="0" cy="0" gradientTransform="matrix(0.0059, 0.0, 0.0, 0.0059, 6.4, -6.5)" gradientUnits="userSpaceOnUse" id="gradient35" r="819.2" spreadMethod="pad">
      <stop offset="0.0" stop-color="#645e49"/>
      <stop offset="1.0" stop-color="#322f24"/>
    </radialGradient>
    <radialGradient cx="0" cy="0" gradientTransform="matrix(0.0065, 0.0, 0.0, 0.0065, 6.7, -4.25)" gradientUnits="userSpaceOnUse" id="gradient36" r="819.2" spreadMethod="pad">
      <stop offset="0.0" stop-color="#416588"/>
      <stop offset="1.0" stop-color="#223548"/>
    </radialGradient>
    <radialGradient cx="0" cy="0" gradientTransform="matrix(0.0035, 0.0, 0.0, 0.0035, 1.5, -4.15)" gradientUnits="userSpaceOnUse" id="gradient37" r="819.2" spreadMethod="pad">
      <stop offset="0.0" stop-color="#1f3142"/>
      <stop offset="1.0" stop-color="#121c26"/>
    </radialGradient>
    <radialGradient cx="0" cy="0" gradientTransform="matrix(0.0073, 0.0, 0.0, 0.0073, 7.75, -0.5)" gradientUnits="userSpaceOnUse" id="gradient38" r="819.2" spreadMethod="pad">
      <stop offset="0.0" stop-color="#34516d"/>
      <stop offset="1.0" stop-color="#1f3041"/>
    </radialGradient>
    <radialGradient cx="0" cy="0" gradientTransform="matrix(0.0023, 0.0, 0.0, 0.0023, 2.6, -0.35)" gradientUnits="userSpaceOnUse" id="gradient39" r="819.2" spreadMethod="pad">
      <stop offset="0.0" stop-color="#1b2b39"/>
      <stop offset="1.0" stop-color="#101a23"/>
    </radialGradient>
    <radialGradient cx="0" cy="0" gradientTransform="matrix(0.006, 0.0, 0.0, 0.006, 5.3, 1.6)" gradientUnits="userSpaceOnUse" id="gradient40" r="819.2" spreadMethod="pad">
      <stop offset="0.0" stop-color="#314d67"/>
      <stop offset="1.0" stop-color="#1d2d3d"/>
    </radialGradient>
    <radialGradient cx="0" cy="0" gradientTransform="matrix(0.005, 0.0, 0.0, 0.005, 6.05, 2.75)" gradientUnits="userSpaceOnUse" id="gradient41" r="819.2" spreadMethod="pad">
      <stop offset="0.0" stop-color="#3f3b2e"/>
      <stop offset="1.0" stop-color="#2c2a20"/>
    </radialGradient>
    <radialGradient cx="0" cy="0" gradientTransform="matrix(0.0079, 0.0, 0.0, 0.0079, 6.05, 9.3)" gradientUnits="userSpaceOnUse" id="gradient42" r="819.2" spreadMethod="pad">
      <stop offset="0.0" stop-color="#776f56"/>
      <stop offset="1.0" stop-color="#4c4738"/>
    </radialGradient>
    <radialGradient cx="0" cy="0" gradientTransform="matrix(0.0027, 0.0, 0.0, 0.0027, 4.85, 8.7)" gradientUnits="userSpaceOnUse" id="gradient43" r="819.2" spreadMethod="pad">
      <stop offset="0.0" stop-color="#ffffd7"/>
      <stop offset="1.0" stop-color="#ffffd7"/>
    </radialGradient>
    <radialGradient cx="0" cy="0" gradientTransform="matrix(0.0101, 0.0, 0.0, 0.0101, 3.1, 8.15)" gradientUnits="userSpaceOnUse" id="gradient44" r="819.2" spreadMethod="pad">
      <stop offset="0.0" stop-color="#807a63"/>
      <stop offset="1.0" stop-color="#726c57"/>
    </radialGradient>
    <radialGradient cx="0" cy="0" gradientTransform="matrix(0.0061, 0.0, 0.0, 0.0061, -3.05, -54.15)" gradientUnits="userSpaceOnUse" id="gradient45" r="819.2" spreadMethod="pad">
      <stop offset="0.0" stop-color="#686350"/>
      <stop offset="1.0" stop-color="#28261f"/>
    </radialGradient>
    <radialGradient cx="0" cy="0" gradientTransform="matrix(0.0064, 0.0, 0.0, 0.0064, -7.15, -47.15)" gradientUnits="userSpaceOnUse" id="gradient46" r="819.2" spreadMethod="pad">
      <stop offset="0.0" stop-color="#080c10"/>
      <stop offset="1.0" stop-color="#080c10"/>
    </radialGradient>
    <radialGradient cx="0" cy="0" gradientTransform="matrix(0.0051, 0.0, 0.0, 0.0051, -6.45, -45.55)" gradientUnits="userSpaceOnUse" id="gradient47" r="819.2" spreadMethod="pad">
      <stop offset="0.0" stop-color="#645e49"/>
      <stop offset="1.0" stop-color="#373328"/>
    </radialGradient>
    <radialGradient cx="0" cy="0" gradientTransform="matrix(0.0073, 0.0, 0.0, 0.0073, -4.0, -37.3)" gradientUnits="userSpaceOnUse" id="gradient48" r="819.2" spreadMethod="pad">
      <stop offset="0.0" stop-color="#605a46"/>
      <stop offset="1.0" stop-color="#464233"/>
    </radialGradient>
    <radialGradient cx="0" cy="0" gradientTransform="matrix(0.0066, 0.0, 0.0, 0.0066, -9.75, -40.7)" gradientUnits="userSpaceOnUse" id="gradient49" r="819.2" spreadMethod="pad">
      <stop offset="0.0" stop-color="#d79858"/>
      <stop offset="1.0" stop-color="#8a6138"/>
    </radialGradient>
    <radialGradient cx="0" cy="0" gradientTransform="matrix(0.0091, 0.0, 0.0, 0.0091, -0.05, -36.75)" gradientUnits="userSpaceOnUse" id="gradient50" r="819.2" spreadMethod="pad">
      <stop offset="0.0" stop-color="#5d5743"/>
      <stop offset="1.0" stop-color="#3b372b"/>
    </radialGradient>
    <radialGradient cx="0" cy="0" gradientTransform="matrix(0.0072, 0.0, 0.0, 0.0072, -7.85, -34.65)" gradientUnits="userSpaceOnUse" id="gradient51" r="819.2" spreadMethod="pad">
      <stop offset="0.0" stop-color="#5a5441"/>
      <stop offset="1.0" stop-color="#413d2f"/>
    </radialGradient>
    <radialGradient cx="0" cy="0" gradientTransform="matrix(0.029, 0.0, 0.0, 0.029, -9.45, -10.05)" gradientUnits="userSpaceOnUse" id="gradient52" r="819.2" spreadMethod="pad">
      <stop offset="0.0" stop-color="#ff8f00"/>
      <stop offset="1.0" stop-color="#dd6e00"/>
    </radialGradient>
    <radialGradient cx="0" cy="0" gradientTransform="matrix(0.0038, 0.0, 0.0, 0.0038, -9.1, -28.35)" gradientUnits="userSpaceOnUse" id="gradient53" r="819.2" spreadMethod="pad">
      <stop offset="0.0" stop-color="#fff48e"/>
      <stop offset="1.0" stop-color="#b37e49"/>
    </radialGradient>
    <radialGradient cx="0" cy="0" gradientTransform="matrix(0.0063, 0.0, 0.0, 0.0063, -4.05, -27.65)" gradientUnits="userSpaceOnUse" id="gradient54" r="819.2" spreadMethod="pad">
      <stop offset="0.0" stop-color="#605a45"/>
      <stop offset="1.0" stop-color="#393529"/>
    </radialGradient>
    <radialGradient cx="0" cy="0" gradientTransform="matrix(0.0041, 0.0, 0.0, 0.0041, -8.35, -28.55)" gradientUnits="userSpaceOnUse" id="gradient55" r="819.2" spreadMethod="pad">
      <stop offset="0.0" stop-color="#fff68f"/>
      <stop offset="1.0" stop-color="#c29053"/>
    </radialGradient>
    <radialGradient cx="0" cy="0" gradientTransform="matrix(9.0E-4, 0.0, 0.0, 9.0E-4, -4.0, -27.25)" gradientUnits="userSpaceOnUse" id="gradient56" r="819.2" spreadMethod="pad">
      <stop offset="0.0" stop-color="#261b10"/>
      <stop offset="1.0" stop-color="#261b10"/>
    </radialGradient>
    <radialGradient cx="0" cy="0" gradientTransform="matrix(0.0099, 0.0, 0.0, 0.0099, -1.5, -26.1)" gradientUnits="userSpaceOnUse" id="gradient57" r="819.2" spreadMethod="pad">
      <stop offset="0.0" stop-color="#6d664f"/>
      <stop offset="1.0" stop-color="#363327"/>
    </radialGradient>
    <radialGradient cx="0" cy="0" gradientTransform="matrix(0.0278, 0.0, 0.0, 0.0278, 0.65, -22.1)" gradientUnits="userSpaceOnUse" id="gradient58" r="819.2" spreadMethod="pad">
      <stop offset="0.0" stop-color="#f9ecc0"/>
      <stop offset="1.0" stop-color="#8d866d"/>
    </radialGradient>
    <radialGradient cx="0" cy="0" gradientTransform="matrix(0.0066, 0.0, 0.0, 0.0066, -7.05, -24.2)" gradientUnits="userSpaceOnUse" id="gradient59" r="819.2" spreadMethod="pad">
      <stop offset="0.0" stop-color="#2a4259"/>
      <stop offset="1.0" stop-color="#223548"/>
    </radialGradient>
    <radialGradient cx="0" cy="0" gradientTransform="matrix(0.0266, 0.0, 0.0, 0.0266, 0.05, -20.1)" gradientUnits="userSpaceOnUse" id="gradient60" r="819.2" spreadMethod="pad">
      <stop offset="0.0" stop-color="#5d5743"/>
      <stop offset="1.0" stop-color="#373328"/>
    </radialGradient>
    <radialGradient cx="0" cy="0" gradientTransform="matrix(0.0049, 0.0, 0.0, 0.0049, -6.35, -19.55)" gradientUnits="userSpaceOnUse" id="gradient61" r="819.2" spreadMethod="pad">
      <stop offset="0.0" stop-color="#314c66"/>
      <stop offset="1.0" stop-color="#223548"/>
    </radialGradient>
    <radialGradient cx="0" cy="0" gradientTransform="matrix(0.0047, 0.0, 0.0, 0.0047, -6.55, -16.7)" gradientUnits="userSpaceOnUse" id="gradient62" r="819.2" spreadMethod="pad">
      <stop offset="0.0" stop-color="#34516d"/>
      <stop offset="1.0" stop-color="#192735"/>
    </radialGradient>
    <radialGradient cx="0" cy="0" gradientTransform="matrix(0.0026, 0.0, 0.0, 0.0026, -6.25, -13.55)" gradientUnits="userSpaceOnUse" id="gradient63" r="819.2" spreadMethod="pad">
      <stop offset="0.0" stop-color="#55503e"/>
      <stop offset="1.0" stop-color="#343125"/>
    </radialGradient>
    <radialGradient cx="0" cy="0" gradientTransform="matrix(0.0092, 0.0, 0.0, 0.0092, -5.3, -3.65)" gradientUnits="userSpaceOnUse" id="gradient64" r="819.2" spreadMethod="pad">
      <stop offset="0.0" stop-color="#776f56"/>
      <stop offset="1.0" stop-color="#615b46"/>
    </radialGradient>
    <radialGradient cx="0" cy="0" gradientTransform="matrix(0.008, 0.0, 0.0, 0.008, -6.15, -11.55)" gradientUnits="userSpaceOnUse" id="gradient65" r="819.2" spreadMethod="pad">
      <stop offset="0.0" stop-color="#365572"/>
      <stop offset="1.0" stop-color="#1f3141"/>
    </radialGradient>
    <radialGradient cx="0" cy="0" gradientTransform="matrix(0.0076, 0.0, 0.0, 0.0076, -6.0, -8.8)" gradientUnits="userSpaceOnUse" id="gradient66" r="819.2" spreadMethod="pad">
      <stop offset="0.0" stop-color="#2f4a63"/>
      <stop offset="1.0" stop-color="#213446"/>
    </radialGradient>
    <radialGradient cx="0" cy="0" gradientTransform="matrix(0.0072, 0.0, 0.0, 0.0072, -6.0, -7.55)" gradientUnits="userSpaceOnUse" id="gradient67" r="819.2" spreadMethod="pad">
      <stop offset="0.0" stop-color="#324e69"/>
      <stop offset="1.0" stop-color="#1f3142"/>
    </radialGradient>
    <radialGradient cx="0" cy="0" gradientTransform="matrix(0.0047, 0.0, 0.0, 0.0047, -6.3, -6.8)" gradientUnits="userSpaceOnUse" id="gradient68" r="819.2" spreadMethod="pad">
      <stop offset="0.0" stop-color="#343126"/>
      <stop offset="1.0" stop-color="#2a281e"/>
    </radialGradient>
  </defs>
</svg>
