<?xml version="1.0" encoding="UTF-8" standalone="no"?>
<svg xmlns:ffdec="https://www.free-decompiler.com/flash" xmlns:xlink="http://www.w3.org/1999/xlink" ffdec:objectType="shape" height="66.4px" width="74.45px" xmlns="http://www.w3.org/2000/svg">
  <g transform="matrix(1.0, 0.0, 0.0, 1.0, 33.5, 55.1)">
    <path d="M-1.4 -50.7 L-0.5 -53.25 1.6 -54.8 1.85 -54.8 3.75 -55.1 6.4 -54.7 8.85 -51.7 Q10.65 -48.6 3.4 -47.05 -0.7 -46.55 -1.7 -49.65 L-1.4 -50.7" fill="url(#gradient0)" fill-rule="evenodd" stroke="none"/>
    <path d="M-1.4 -50.7 L-1.7 -49.65 -1.85 -48.55 -1.25 -45.55 -1.6 -45.3 -2.6 -45.1 -2.6 -46.0 -4.15 -46.65 -4.3 -46.95 -4.3 -47.05 -4.4 -47.3 -4.45 -48.1 -3.15 -49.9 -2.2 -50.5 -1.4 -50.7" fill="url(#gradient1)" fill-rule="evenodd" stroke="none"/>
    <path d="M-6.75 -45.95 Q-6.9 -46.75 -5.05 -48.7 L-3.15 -49.9 -4.45 -48.1 -4.4 -47.3 -4.3 -47.05 -4.3 -46.95 -4.2 -46.2 -4.15 -45.8 -3.0 -45.3 -3.15 -44.95 -5.15 -44.35 -5.65 -44.05 -6.15 -44.0 -5.05 -44.55 -5.1 -44.8 -5.7 -45.6 -6.95 -45.05 -6.75 -45.95" fill="url(#gradient2)" fill-rule="evenodd" stroke="none"/>
    <path d="M-7.55 -44.4 L-7.3 -45.45 -6.75 -45.95 -6.95 -45.05 -6.75 -44.75 -7.35 -44.35 -7.55 -44.4" fill="url(#gradient3)" fill-rule="evenodd" stroke="none"/>
    <path d="M-8.15 -42.8 L-7.55 -44.4 -7.35 -44.35 -6.75 -44.75 -6.3 -44.1 -7.55 -43.15 -8.15 -42.8" fill="url(#gradient4)" fill-rule="evenodd" stroke="none"/>
    <path d="M-8.25 -15.5 L-9.0 -15.4 -8.55 -22.4 -8.6 -23.6 -7.8 -22.35 -6.8 -21.35 -6.7 -20.9 -6.75 -20.15 -8.25 -15.5 M-8.9 -39.05 L-8.15 -42.8 -7.55 -43.15 -6.3 -44.1 -6.15 -44.0 -5.65 -44.05 -7.0 -42.1 -7.05 -42.05 -7.1 -41.9 -7.15 -41.9 -7.15 -41.85 -7.55 -41.15 -7.6 -41.1 -7.6 -41.05 -7.65 -41.0 -7.65 -40.9 -7.7 -40.85 -8.35 -39.25 -8.4 -39.2 -8.4 -39.05 -8.5 -38.95 -8.5 -38.9 -8.75 -37.95 -8.9 -37.7 -8.9 -39.05" fill="url(#gradient5)" fill-rule="evenodd" stroke="none"/>
    <path d="M-6.15 -44.0 L-6.3 -44.1 -6.75 -44.75 -6.95 -45.05 -5.7 -45.6 -5.1 -44.8 -5.05 -44.55 -6.15 -44.0" fill="url(#gradient6)" fill-rule="evenodd" stroke="none"/>
    <path d="M9.5 -45.5 Q12.75 -41.35 10.4 -35.7 L10.4 -35.8 10.5 -36.8 10.55 -38.5 10.15 -40.6 9.95 -41.5 10.0 -41.9 10.0 -43.75 9.5 -45.5 M1.9 -6.6 L1.85 -7.05 Q2.8 -7.3 3.25 -7.9 L3.75 -8.75 3.6 -4.05 3.8 -2.95 3.8 -2.0 2.65 -4.3 1.9 -6.6 M-9.55 -12.3 L-8.7 -13.9 -8.25 -15.5 -6.75 -20.15 -6.7 -20.9 -6.1 -20.15 -6.25 -19.5 -6.25 -19.25 -6.3 -18.85 -6.35 -18.75 -6.3 -18.5 -6.0 -17.05 -6.8 -14.9 -7.35 -12.8 -7.4 -12.65 -7.6 -11.65 -8.05 -12.05 -8.35 -12.45 -9.2 -12.5 -9.25 -12.5 -9.3 -12.45 -9.55 -12.3 M-3.15 -44.95 L-3.35 -44.45 -3.25 -42.8 -2.65 -41.9 Q1.2 -37.0 3.55 -38.0 L3.85 -37.3 Q5.45 -31.65 5.15 -30.3 L4.4 -26.55 4.4 -25.25 4.65 -21.85 4.6 -18.65 4.45 -15.95 3.95 -11.55 Q3.05 -13.4 1.05 -13.25 L0.15 -15.95 Q-0.2 -19.7 -1.2 -20.5 -0.1 -25.1 -2.85 -28.85 L-2.65 -28.95 -2.3 -29.3 Q-0.1 -32.15 -2.2 -36.6 L-2.5 -37.05 -2.95 -37.55 -7.8 -38.75 -7.85 -38.7 -8.55 -38.2 -8.5 -38.4 -8.5 -38.55 -8.4 -38.65 -8.4 -38.75 -8.35 -38.85 -8.35 -39.0 -7.65 -40.85 -7.65 -40.9 -7.6 -41.0 -7.6 -41.05 -7.6 -41.1 -7.55 -41.15 -7.15 -41.85 -7.1 -41.9 -7.05 -42.05 -7.0 -42.1 -5.65 -44.05 -5.15 -44.35 -3.15 -44.95" fill="url(#gradient7)" fill-rule="evenodd" stroke="none"/>
    <path d="M9.45 -45.55 L9.5 -45.5 10.0 -43.75 10.0 -41.9 9.95 -41.5 9.9 -41.15 Q9.3 -36.7 6.2 -37.4 L3.85 -37.3 3.55 -38.0 Q1.2 -37.0 -2.65 -41.9 L-3.25 -42.8 -3.35 -44.45 -3.15 -44.95 -3.0 -45.3 -2.6 -45.1 -1.6 -45.3 -1.25 -45.55 Q-1.25 -44.9 -0.05 -44.25 L1.5 -43.75 Q6.4 -41.4 7.8 -44.7 L9.25 -45.85 9.45 -45.55" fill="url(#gradient8)" fill-rule="evenodd" stroke="none"/>
    <path d="M-3.0 -45.3 L-4.15 -45.8 -4.2 -46.2 -4.15 -46.65 -2.6 -46.0 -2.6 -45.1 -3.0 -45.3" fill="url(#gradient9)" fill-rule="evenodd" stroke="none"/>
    <path d="M-4.2 -46.2 L-4.3 -46.95 -4.15 -46.65 -4.2 -46.2" fill="url(#gradient10)" fill-rule="evenodd" stroke="none"/>
    <path d="M-1.7 -49.65 Q-0.7 -46.55 3.4 -47.05 10.65 -48.6 8.85 -51.7 L9.45 -50.95 9.45 -50.7 9.5 -50.45 Q9.65 -48.7 5.35 -47.15 0.75 -45.85 -1.85 -48.55 L-1.7 -49.65" fill="url(#gradient11)" fill-rule="evenodd" stroke="none"/>
    <path d="M-23.15 -44.4 L-32.05 -49.25 -33.45 -50.25 -33.5 -50.85 -33.3 -51.4 Q-32.35 -52.3 -32.1 -51.85 L-22.0 -46.3 -22.2 -46.25 -22.25 -46.2 -22.8 -45.95 -23.2 -44.95 -23.2 -44.65 -23.15 -44.4" fill="url(#gradient12)" fill-rule="evenodd" stroke="none"/>
    <path d="M-22.9 -44.3 L-23.15 -44.4 -23.2 -44.65 -22.9 -44.3 M-22.0 -46.3 L-21.85 -46.2 -22.2 -46.25 -22.0 -46.3 M-22.25 -46.2 L-22.65 -45.95 -23.2 -44.95 -22.8 -45.95 -22.25 -46.2" fill="url(#gradient13)" fill-rule="evenodd" stroke="none"/>
    <path d="M9.95 -28.7 L18.45 -24.05 17.75 -23.35 17.3 -22.05 11.15 -25.4 11.05 -26.0 10.2 -27.5 10.1 -27.9 10.0 -28.1 10.0 -28.15 9.95 -28.7 M25.3 -20.35 L32.1 -16.3 31.75 -15.95 31.45 -15.05 24.1 -18.3 24.0 -18.6 24.15 -19.2 24.85 -20.25 25.05 -20.4 25.3 -20.35 M-9.5 -36.9 L-22.9 -44.3 -23.2 -44.65 -23.2 -44.95 -22.65 -45.95 -22.25 -46.2 -22.2 -46.25 -21.85 -46.2 -8.9 -39.05 -8.9 -37.7 -9.5 -36.9" fill="url(#gradient14)" fill-rule="evenodd" stroke="none"/>
    <path d="M9.5 -50.45 L9.95 -47.6 Q9.95 -46.35 9.5 -46.15 L9.25 -45.85 7.8 -44.7 Q6.45 -44.0 4.45 -43.7 L1.5 -43.75 -0.05 -44.25 Q-1.25 -44.9 -1.25 -45.55 L-1.85 -48.55 Q0.75 -45.85 5.35 -47.15 9.65 -48.7 9.5 -50.45" fill="url(#gradient15)" fill-rule="evenodd" stroke="none"/>
    <path d="M9.5 -46.15 L9.45 -45.55 9.25 -45.85 9.5 -46.15" fill="url(#gradient16)" fill-rule="evenodd" stroke="none"/>
    <path d="M1.5 -43.75 L4.45 -43.7 Q6.45 -44.0 7.8 -44.7 6.4 -41.4 1.5 -43.75" fill="url(#gradient17)" fill-rule="evenodd" stroke="none"/>
    <path d="M9.9 -41.15 L9.95 -41.5 10.15 -40.6 9.9 -41.15" fill="url(#gradient18)" fill-rule="evenodd" stroke="none"/>
    <path d="M9.9 -41.15 L10.15 -40.6 10.55 -38.5 10.5 -36.8 Q9.7 -33.9 7.35 -33.6 L6.65 -33.6 Q6.9 -35.25 6.65 -36.05 L6.2 -37.4 Q9.3 -36.7 9.9 -41.15" fill="url(#gradient19)" fill-rule="evenodd" stroke="none"/>
    <path d="M-2.2 -36.6 Q-0.1 -32.15 -2.3 -29.3 L-2.35 -29.4 Q-1.8 -29.75 -1.65 -32.7 L-2.2 -36.6 M5.15 -30.3 Q5.45 -31.65 3.85 -37.3 L6.2 -37.4 6.65 -36.05 Q6.9 -35.25 6.65 -33.6 L6.2 -31.85 5.15 -30.3" fill="url(#gradient20)" fill-rule="evenodd" stroke="none"/>
    <path d="M-7.1 -41.9 L-7.15 -41.85 -7.15 -41.9 -7.1 -41.9" fill="url(#gradient21)" fill-rule="evenodd" stroke="none"/>
    <path d="M-9.25 -29.25 Q-11.4 -33.0 -9.5 -36.9 L-8.9 -37.7 -8.75 -37.95 -8.6 -38.15 -8.55 -38.2 -7.85 -38.7 -7.8 -38.75 -2.95 -37.55 -2.5 -37.05 -2.2 -36.6 -1.65 -32.7 Q-1.8 -29.75 -2.35 -29.4 L-2.85 -28.95 -2.85 -28.85 -6.4 -27.75 -7.85 -28.05 Q-8.95 -28.65 -8.9 -28.95 L-9.25 -29.25" fill="url(#gradient22)" fill-rule="evenodd" stroke="none"/>
    <path d="M-8.75 -37.95 L-8.5 -38.9 -8.5 -38.85 -8.5 -38.7 -8.55 -38.65 -8.55 -38.4 -8.55 -38.3 -8.6 -38.25 -8.6 -38.15 -8.75 -37.95 M-8.5 -38.95 L-8.4 -39.05 -8.4 -39.0 -8.4 -38.95 -8.5 -38.95" fill="url(#gradient23)" fill-rule="evenodd" stroke="none"/>
    <path d="M-8.5 -38.4 L-8.55 -38.2 -8.6 -38.15 -8.6 -38.25 -8.55 -38.3 -8.55 -38.4 -8.5 -38.4" fill="url(#gradient24)" fill-rule="evenodd" stroke="none"/>
    <path d="M-2.3 -29.3 L-2.65 -28.95 -2.85 -28.85 -2.85 -28.95 -2.35 -29.4 -2.3 -29.3 M4.4 -25.25 L4.4 -26.55 5.15 -30.3 6.2 -31.85 6.65 -33.6 7.35 -33.6 6.9 -30.7 6.9 -30.6 6.95 -28.95 6.9 -28.1 6.6 -27.65 6.65 -27.2 6.65 -27.0 6.3 -26.9 5.9 -27.3 5.1 -27.65 5.3 -26.15 4.4 -25.25" fill="url(#gradient25)" fill-rule="evenodd" stroke="none"/>
    <path d="M-7.6 -41.05 L-7.6 -41.0 -7.65 -41.0 -7.6 -41.05 M-7.65 -40.9 L-7.65 -40.85 -7.7 -40.85 -7.65 -40.9" fill="url(#gradient26)" fill-rule="evenodd" stroke="none"/>
    <path d="M-7.6 -41.0 L-7.65 -40.9 -7.65 -41.0 -7.6 -41.0 M-7.65 -40.85 L-8.35 -39.0 -8.4 -39.0 -8.4 -39.05 -8.4 -39.2 -8.35 -39.25 -7.7 -40.85 -7.65 -40.85 M-8.5 -38.9 L-8.5 -38.95 -8.4 -38.95 -8.5 -38.85 -8.5 -38.9" fill="url(#gradient27)" fill-rule="evenodd" stroke="none"/>
    <path d="M-8.35 -39.0 L-8.35 -38.85 -8.4 -38.75 -8.4 -38.65 -8.5 -38.55 -8.5 -38.4 -8.55 -38.4 -8.55 -38.65 -8.5 -38.7 -8.5 -38.85 -8.4 -38.95 -8.4 -39.0 -8.35 -39.0" fill="url(#gradient28)" fill-rule="evenodd" stroke="none"/>
    <path d="M10.4 -35.7 L10.4 -35.65 9.85 -33.15 9.3 -32.0 9.25 -30.7 10.0 -28.15 10.0 -28.1 10.1 -27.9 10.2 -27.5 10.4 -26.85 10.5 -25.85 11.55 -24.0 11.8 -22.15 11.45 -20.45 11.25 -21.65 10.5 -23.75 10.15 -26.15 Q9.9 -27.1 8.55 -28.95 L7.05 -30.45 6.9 -30.7 7.35 -33.6 Q9.7 -33.9 10.5 -36.8 L10.4 -35.8 10.4 -35.7 M-8.25 -11.95 L-9.25 -12.0 -9.55 -12.3 -9.3 -12.45 -9.25 -12.5 -9.2 -12.5 -8.35 -12.45 -8.05 -12.05 -8.15 -11.95 -8.25 -11.95" fill="url(#gradient29)" fill-rule="evenodd" stroke="none"/>
    <path d="M9.3 -32.0 L9.95 -28.7 10.0 -28.15 9.25 -30.7 9.3 -32.0" fill="url(#gradient30)" fill-rule="evenodd" stroke="none"/>
    <path d="M4.6 -18.65 L4.65 -21.85 4.4 -25.25 5.3 -26.15 5.1 -27.65 5.9 -27.3 6.3 -26.9 6.65 -27.0 6.65 -27.2 7.25 -25.95 7.4 -24.4 Q7.3 -18.15 4.6 -18.65" fill="url(#gradient31)" fill-rule="evenodd" stroke="none"/>
    <path d="M7.05 -30.45 L8.55 -28.95 Q9.9 -27.1 10.15 -26.15 L10.5 -23.75 10.4 -23.2 9.55 -23.25 8.95 -23.0 8.6 -23.0 8.6 -23.45 8.2 -23.7 8.15 -23.95 8.15 -24.15 7.4 -24.4 7.25 -25.95 6.65 -27.2 6.6 -27.65 6.9 -28.1 6.95 -28.95 6.9 -30.6 7.05 -30.45" fill="url(#gradient32)" fill-rule="evenodd" stroke="none"/>
    <path d="M-8.6 -23.6 Q-10.2 -26.95 -9.25 -29.25 L-8.9 -28.95 Q-8.95 -28.65 -7.85 -28.05 L-6.4 -27.75 Q-4.25 -22.0 -5.75 -20.75 L-6.8 -21.35 -7.8 -22.35 -8.6 -23.6" fill="url(#gradient33)" fill-rule="evenodd" stroke="none"/>
    <path d="M-5.75 -20.75 L-5.45 -20.35 -6.1 -20.15 -6.7 -20.9 -6.8 -21.35 -5.75 -20.75" fill="url(#gradient34)" fill-rule="evenodd" stroke="none"/>
    <path d="M-2.85 -28.85 Q-0.1 -25.1 -1.2 -20.5 L-2.2 -19.15 Q-3.9 -18.95 -5.15 -20.2 L-5.45 -20.35 -5.75 -20.75 Q-4.25 -22.0 -6.4 -27.75 L-2.85 -28.85" fill="url(#gradient35)" fill-rule="evenodd" stroke="none"/>
    <path d="M-1.2 -20.5 Q-0.2 -19.7 0.15 -15.95 L1.05 -13.25 1.3 -12.0 0.7 -11.5 -1.55 -11.35 -1.55 -11.45 -1.65 -11.5 -1.8 -11.7 -1.9 -11.85 -1.95 -11.95 -2.0 -12.0 Q-2.3 -11.95 -5.0 -14.8 L-6.0 -17.05 -6.3 -18.5 -6.35 -18.75 -6.3 -18.85 -6.25 -19.25 -6.25 -19.5 -5.15 -20.2 Q-3.9 -18.95 -2.2 -19.15 L-1.2 -20.5" fill="url(#gradient36)" fill-rule="evenodd" stroke="none"/>
    <path d="M-5.45 -20.35 L-5.15 -20.2 -6.25 -19.5 -6.1 -20.15 -5.45 -20.35" fill="url(#gradient37)" fill-rule="evenodd" stroke="none"/>
    <path d="M11.45 -20.45 L11.45 -19.9 Q12.2 -18.75 8.55 -16.3 L8.6 -22.45 9.25 -21.2 9.85 -20.6 10.25 -20.9 10.25 -21.25 10.55 -21.55 10.7 -21.45 10.7 -21.65 10.4 -23.2 10.5 -23.75 11.25 -21.65 11.45 -20.45" fill="url(#gradient38)" fill-rule="evenodd" stroke="none"/>
    <path d="M8.95 -23.0 L9.55 -23.25 10.4 -23.2 10.7 -21.65 10.7 -21.45 10.55 -21.55 10.25 -21.25 9.85 -22.2 8.95 -23.0" fill="url(#gradient39)" fill-rule="evenodd" stroke="none"/>
    <path d="M10.25 -21.25 L10.25 -20.9 9.85 -20.6 9.25 -21.2 8.6 -22.45 8.6 -23.0 8.95 -23.0 9.85 -22.2 10.25 -21.25" fill="url(#gradient40)" fill-rule="evenodd" stroke="none"/>
    <path d="M5.45 -0.4 Q2.05 -1.7 1.85 -0.6 L1.9 -6.6 2.65 -4.3 2.6 -1.15 Q3.45 -2.05 6.9 -0.3 L7.85 -0.45 7.8 -2.95 8.3 -20.2 8.2 -23.7 8.6 -23.45 8.6 -23.0 8.6 -22.45 8.55 -16.3 8.5 -12.85 8.3 -10.65 Q8.65 -10.25 8.55 -8.4 L8.6 -5.95 8.8 -1.8 8.85 -0.1 8.85 0.1 7.6 0.25 5.45 -0.4" fill="url(#gradient41)" fill-rule="evenodd" stroke="none"/>
    <path d="M3.95 -11.55 L4.45 -15.95 4.6 -18.65 Q7.3 -18.15 7.4 -24.4 L8.15 -24.15 8.15 -23.95 8.2 -23.7 8.3 -20.2 7.8 -2.95 7.85 -0.45 6.9 -0.3 Q3.45 -2.05 2.6 -1.15 L2.65 -4.3 3.8 -2.0 3.8 -2.95 3.6 -4.05 3.75 -8.75 3.9 -9.3 4.25 -9.85 4.35 -10.55 3.95 -11.55" fill="url(#gradient42)" fill-rule="evenodd" stroke="none"/>
    <path d="M18.45 -24.05 L19.15 -23.8 25.15 -20.5 25.05 -20.4 24.85 -20.25 24.15 -19.35 24.0 -18.6 23.9 -18.3 21.6 -19.6 17.3 -22.05 17.75 -23.35 18.45 -24.05" fill="url(#gradient43)" fill-rule="evenodd" stroke="none"/>
    <path d="M11.15 -25.4 L11.55 -24.0 10.5 -25.85 10.4 -26.85 10.2 -27.5 11.05 -26.0 11.15 -25.4" fill="url(#gradient44)" fill-rule="evenodd" stroke="none"/>
    <path d="M1.05 -13.25 Q3.05 -13.4 3.95 -11.55 L4.35 -10.55 4.25 -9.85 3.9 -9.3 Q3.95 -10.45 3.15 -11.2 L1.3 -12.0 1.05 -13.25" fill="url(#gradient45)" fill-rule="evenodd" stroke="none"/>
    <path d="M1.85 -7.05 L1.1 -6.85 0.15 -7.0 -0.4 -7.15 -1.25 -7.75 -1.8 -8.45 -2.15 -10.25 -1.65 -11.5 -1.55 -11.45 -1.55 -11.35 0.7 -11.5 1.3 -12.0 3.15 -11.2 Q3.95 -10.45 3.9 -9.3 L3.75 -8.75 3.25 -7.9 Q2.8 -7.3 1.85 -7.05" fill="url(#gradient46)" fill-rule="evenodd" stroke="none"/>
    <path d="M11.45 -19.9 Q12.55 -19.0 12.6 -15.05 L12.0 -14.4 8.5 -12.85 8.55 -16.3 Q12.2 -18.75 11.45 -19.9" fill="url(#gradient47)" fill-rule="evenodd" stroke="none"/>
    <path d="M25.15 -20.5 L25.3 -20.35 25.05 -20.4 25.15 -20.5 M24.1 -18.3 L24.0 -18.25 23.9 -18.3 24.0 -18.6 24.1 -18.3 M24.0 -18.6 L24.15 -19.35 24.85 -20.25 24.15 -19.2 24.0 -18.6" fill="url(#gradient48)" fill-rule="evenodd" stroke="none"/>
    <path d="M24.0 -18.25 L24.35 -15.9 Q39.75 -8.3 40.95 -7.25 L38.15 -8.25 23.0 -15.0 21.6 -19.6 23.9 -18.3 24.0 -18.25" fill="url(#gradient49)" fill-rule="evenodd" stroke="none"/>
    <path d="M-6.8 -14.9 L-6.0 -17.05 -5.0 -14.8 Q-2.3 -11.95 -2.0 -12.0 L-2.0 -11.95 Q-7.0 -12.0 -6.8 -14.9" fill="url(#gradient50)" fill-rule="evenodd" stroke="none"/>
    <path d="M-6.8 -14.9 Q-7.0 -12.0 -2.0 -11.95 L-1.95 -11.95 -1.9 -11.85 -1.8 -11.7 -1.65 -11.5 -2.15 -10.25 -1.8 -8.45 Q-6.6 -7.15 -7.35 -12.65 L-7.35 -12.8 -6.8 -14.9" fill="url(#gradient51)" fill-rule="evenodd" stroke="none"/>
    <path d="M-7.4 -12.65 L-7.35 -12.8 -7.35 -12.65 -7.4 -12.65" fill="url(#gradient52)" fill-rule="evenodd" stroke="none"/>
    <path d="M-7.35 -12.65 Q-6.6 -7.15 -1.8 -8.45 L-1.25 -7.75 -0.4 -7.15 Q-4.85 -4.65 -7.65 -9.1 L-8.0 -10.3 -8.15 -11.95 -8.05 -12.05 -7.6 -11.65 -7.4 -12.65 -7.35 -12.65" fill="url(#gradient53)" fill-rule="evenodd" stroke="none"/>
    <path d="M32.1 -16.3 L32.2 -16.0 31.85 -15.35 31.45 -15.05 31.75 -15.95 32.1 -16.3" fill="url(#gradient54)" fill-rule="evenodd" stroke="none"/>
    <path d="M-2.0 -11.95 L-2.0 -12.0 -1.95 -11.95 -2.0 -11.95" fill="url(#gradient55)" fill-rule="evenodd" stroke="none"/>
    <path d="M-2.2 -4.95 Q-3.2 -3.35 -7.05 -3.65 L-7.3 -3.7 Q-13.05 -7.4 -8.6 -11.7 L-8.55 -11.8 -8.25 -11.95 -8.15 -11.95 -8.0 -10.3 -7.65 -9.1 Q-6.7 -3.7 -2.2 -4.95" fill="url(#gradient56)" fill-rule="evenodd" stroke="none"/>
    <path d="M12.6 -15.05 L12.75 -13.3 Q12.5 -11.55 12.05 -10.7 11.05 -8.8 8.55 -8.4 8.65 -10.25 8.3 -10.65 L8.5 -12.85 12.0 -14.4 12.6 -15.05" fill="url(#gradient57)" fill-rule="evenodd" stroke="none"/>
    <path d="M12.05 -10.7 L12.1 -9.4 Q12.3 -7.0 8.6 -5.95 L8.55 -8.4 Q11.05 -8.8 12.05 -10.7" fill="url(#gradient58)" fill-rule="evenodd" stroke="none"/>
    <path d="M0.15 -7.0 L-0.65 -5.9 Q-0.95 -5.45 -2.2 -4.95 -6.7 -3.7 -7.65 -9.1 -4.85 -4.65 -0.4 -7.15 L0.15 -7.0" fill="url(#gradient59)" fill-rule="evenodd" stroke="none"/>
    <path d="M-11.7 -8.8 Q-11.2 -10.25 -10.25 -10.95 L-8.6 -11.7 Q-13.05 -7.4 -7.3 -3.7 L-8.65 -3.8 -8.85 -3.85 -8.9 -3.85 -9.0 -3.85 Q-11.7 -4.6 -11.8 -8.45 L-11.75 -8.75 -11.7 -8.75 -11.7 -8.8" fill="url(#gradient60)" fill-rule="evenodd" stroke="none"/>
    <path d="M-11.75 -8.75 L-11.7 -8.8 -11.7 -8.75 -11.75 -8.75" fill="url(#gradient61)" fill-rule="evenodd" stroke="none"/>
    <path d="M-7.05 -3.65 L-6.0 -1.9 -5.95 -0.85 -6.95 -0.6 -7.85 0.15 -8.75 -0.05 -10.85 -1.85 Q-15.4 -8.15 -11.75 -8.75 L-11.8 -8.45 Q-12.4 -6.2 -11.05 -4.9 L-11.0 -4.85 -9.9 -4.05 -9.0 -3.85 -8.9 -3.85 -8.85 -3.85 -8.65 -3.8 -7.3 -3.7 -7.05 -3.65" fill="url(#gradient62)" fill-rule="evenodd" stroke="none"/>
    <path d="M12.1 -9.4 Q13.45 -7.6 12.75 -4.7 L12.4 -3.8 11.55 -2.95 10.4 -2.15 8.8 -1.8 8.6 -5.95 Q12.3 -7.0 12.1 -9.4" fill="url(#gradient63)" fill-rule="evenodd" stroke="none"/>
    <path d="M-11.8 -8.45 Q-11.7 -4.6 -9.0 -3.85 L-9.9 -4.05 -11.0 -4.85 -11.05 -4.9 Q-12.4 -6.2 -11.8 -8.45" fill="url(#gradient64)" fill-rule="evenodd" stroke="none"/>
    <path d="M12.75 -4.7 L12.85 -2.9 12.65 -2.05 12.65 -2.0 Q12.55 -0.65 8.85 -0.1 L8.8 -1.8 10.4 -2.15 11.55 -2.95 12.4 -3.8 12.75 -4.7" fill="url(#gradient65)" fill-rule="evenodd" stroke="none"/>
    <path d="M12.65 -2.0 L12.6 -0.15 11.8 1.4 Q10.25 3.2 8.05 2.55 6.2 1.95 5.45 -0.4 L7.6 0.25 8.85 0.1 8.85 -0.1 Q12.55 -0.65 12.65 -2.0" fill="url(#gradient66)" fill-rule="evenodd" stroke="none"/>
    <path d="M11.8 1.4 L11.95 3.7 11.8 4.65 11.1 4.9 9.45 4.55 Q8.4 4.15 8.15 3.25 L8.05 2.55 Q10.25 3.2 11.8 1.4" fill="url(#gradient67)" fill-rule="evenodd" stroke="none"/>
    <path d="M11.95 3.7 Q17.3 7.95 16.4 9.7 L15.7 10.05 15.55 10.65 15.3 11.3 15.2 11.25 14.2 11.0 10.75 8.45 8.2 6.2 Q6.9 4.7 8.15 3.25 8.4 4.15 9.45 4.55 L11.1 4.9 11.8 4.65 11.95 3.7" fill="url(#gradient68)" fill-rule="evenodd" stroke="none"/>
    <path d="M16.4 9.7 L15.55 10.65 15.7 10.05 16.4 9.7" fill="url(#gradient69)" fill-rule="evenodd" stroke="none"/>
  </g>
  <defs>
    <radialGradient cx="0" cy="0" gradientTransform="matrix(0.0076, 0.0, 0.0, 0.0076, 2.9, -50.85)" gradientUnits="userSpaceOnUse" id="gradient0" r="819.2" spreadMethod="pad">
      <stop offset="0.0" stop-color="#f8ecbf"/>
      <stop offset="1.0" stop-color="#a9a183"/>
    </radialGradient>
    <radialGradient cx="0" cy="0" gradientTransform="matrix(0.0069, 0.0, 0.0, 0.0069, -2.65, -46.1)" gradientUnits="userSpaceOnUse" id="gradient1" r="819.2" spreadMethod="pad">
      <stop offset="0.0" stop-color="#3f6284"/>
      <stop offset="1.0" stop-color="#2a4259"/>
    </radialGradient>
    <radialGradient cx="0" cy="0" gradientTransform="matrix(0.0048, 0.0, 0.0, 0.0048, -3.6, -46.95)" gradientUnits="userSpaceOnUse" id="gradient2" r="819.2" spreadMethod="pad">
      <stop offset="0.0" stop-color="#406386"/>
      <stop offset="1.0" stop-color="#1c2b3a"/>
    </radialGradient>
    <radialGradient cx="0" cy="0" gradientTransform="matrix(0.0028, 0.0, 0.0, 0.0028, -5.6, -45.65)" gradientUnits="userSpaceOnUse" id="gradient3" r="819.2" spreadMethod="pad">
      <stop offset="0.0" stop-color="#aea586"/>
      <stop offset="1.0" stop-color="#9e957a"/>
    </radialGradient>
    <radialGradient cx="0" cy="0" gradientTransform="matrix(0.003, 0.0, 0.0, 0.003, -6.15, -44.45)" gradientUnits="userSpaceOnUse" id="gradient4" r="819.2" spreadMethod="pad">
      <stop offset="0.0" stop-color="#294056"/>
      <stop offset="1.0" stop-color="#263b50"/>
    </radialGradient>
    <radialGradient cx="0" cy="0" gradientTransform="matrix(0.0336, 0.0, 0.0, 0.0336, -8.15, -42.9)" gradientUnits="userSpaceOnUse" id="gradient5" r="819.2" spreadMethod="pad">
      <stop offset="0.0" stop-color="#263b50"/>
      <stop offset="1.0" stop-color="#080c10"/>
    </radialGradient>
    <radialGradient cx="0" cy="0" gradientTransform="matrix(0.0025, 0.0, 0.0, 0.0025, -7.0, -45.15)" gradientUnits="userSpaceOnUse" id="gradient6" r="819.2" spreadMethod="pad">
      <stop offset="0.0" stop-color="#263b50"/>
      <stop offset="1.0" stop-color="#263b50"/>
    </radialGradient>
    <radialGradient cx="0" cy="0" gradientTransform="matrix(0.0467, 0.0, 0.0, 0.0467, -1.7, -39.95)" gradientUnits="userSpaceOnUse" id="gradient7" r="819.2" spreadMethod="pad">
      <stop offset="0.0" stop-color="#ffcf00"/>
      <stop offset="1.0" stop-color="#ff8200"/>
    </radialGradient>
    <radialGradient cx="0" cy="0" gradientTransform="matrix(0.0106, 0.0, 0.0, 0.0106, 1.4, -42.2)" gradientUnits="userSpaceOnUse" id="gradient8" r="819.2" spreadMethod="pad">
      <stop offset="0.0" stop-color="#3f6284"/>
      <stop offset="1.0" stop-color="#293f55"/>
    </radialGradient>
    <radialGradient cx="0" cy="0" gradientTransform="matrix(0.0027, 0.0, 0.0, 0.0027, -4.2, -46.8)" gradientUnits="userSpaceOnUse" id="gradient9" r="819.2" spreadMethod="pad">
      <stop offset="0.0" stop-color="#263c50"/>
      <stop offset="1.0" stop-color="#263b50"/>
    </radialGradient>
    <radialGradient cx="0" cy="0" gradientTransform="matrix(0.0015, 0.0, 0.0, 0.0015, -4.2, -46.8)" gradientUnits="userSpaceOnUse" id="gradient10" r="819.2" spreadMethod="pad">
      <stop offset="0.0" stop-color="#263c50"/>
      <stop offset="1.0" stop-color="#24394d"/>
    </radialGradient>
    <radialGradient cx="0" cy="0" gradientTransform="matrix(0.0137, 0.0, 0.0, 0.0137, -1.5, -48.05)" gradientUnits="userSpaceOnUse" id="gradient11" r="819.2" spreadMethod="pad">
      <stop offset="0.0" stop-color="#2b445b"/>
      <stop offset="1.0" stop-color="#2b435a"/>
    </radialGradient>
    <radialGradient cx="0" cy="0" gradientTransform="matrix(0.0144, 0.0, 0.0, 0.0144, -23.0, -45.7)" gradientUnits="userSpaceOnUse" id="gradient12" r="819.2" spreadMethod="pad">
      <stop offset="0.0" stop-color="#fff9ca"/>
      <stop offset="1.0" stop-color="#d9d0a8"/>
    </radialGradient>
    <radialGradient cx="0" cy="0" gradientTransform="matrix(0.0019, 0.0, 0.0, 0.0019, -23.15, -45.35)" gradientUnits="userSpaceOnUse" id="gradient13" r="819.2" spreadMethod="pad">
      <stop offset="0.0" stop-color="#9d9579"/>
      <stop offset="1.0" stop-color="#9c9479"/>
    </radialGradient>
    <radialGradient cx="0" cy="0" gradientTransform="matrix(0.0826, 0.0, 0.0, 0.0826, 31.65, -15.85)" gradientUnits="userSpaceOnUse" id="gradient14" r="819.2" spreadMethod="pad">
      <stop offset="0.0" stop-color="#7e4825"/>
      <stop offset="1.0" stop-color="#65391d"/>
    </radialGradient>
    <radialGradient cx="0" cy="0" gradientTransform="matrix(0.0106, 0.0, 0.0, 0.0106, 3.65, -44.35)" gradientUnits="userSpaceOnUse" id="gradient15" r="819.2" spreadMethod="pad">
      <stop offset="0.0" stop-color="#304b65"/>
      <stop offset="1.0" stop-color="#273d52"/>
    </radialGradient>
    <radialGradient cx="0" cy="0" gradientTransform="matrix(0.0021, 0.0, 0.0, 0.0021, 8.9, -46.7)" gradientUnits="userSpaceOnUse" id="gradient16" r="819.2" spreadMethod="pad">
      <stop offset="0.0" stop-color="#444031"/>
      <stop offset="1.0" stop-color="#3a362a"/>
    </radialGradient>
    <radialGradient cx="0" cy="0" gradientTransform="matrix(0.0049, 0.0, 0.0, 0.0049, 4.0, -44.4)" gradientUnits="userSpaceOnUse" id="gradient17" r="819.2" spreadMethod="pad">
      <stop offset="0.0" stop-color="#b5804a"/>
      <stop offset="1.0" stop-color="#95693d"/>
    </radialGradient>
    <radialGradient cx="0" cy="0" gradientTransform="matrix(0.0017, 0.0, 0.0, 0.0017, 9.95, -41.1)" gradientUnits="userSpaceOnUse" id="gradient18" r="819.2" spreadMethod="pad">
      <stop offset="0.0" stop-color="#f97d00"/>
      <stop offset="1.0" stop-color="#a35200"/>
    </radialGradient>
    <radialGradient cx="0" cy="0" gradientTransform="matrix(0.0067, 0.0, 0.0, 0.0067, 6.3, -37.7)" gradientUnits="userSpaceOnUse" id="gradient19" r="819.2" spreadMethod="pad">
      <stop offset="0.0" stop-color="#585340"/>
      <stop offset="1.0" stop-color="#403c2f"/>
    </radialGradient>
    <radialGradient cx="0" cy="0" gradientTransform="matrix(0.0104, 0.0, 0.0, 0.0104, -1.2, -36.1)" gradientUnits="userSpaceOnUse" id="gradient20" r="819.2" spreadMethod="pad">
      <stop offset="0.0" stop-color="#645d48"/>
      <stop offset="1.0" stop-color="#3a362a"/>
    </radialGradient>
    <radialGradient cx="0" cy="0" gradientTransform="matrix(0.0045, 0.0, 0.0, 0.0045, -8.1, -40.25)" gradientUnits="userSpaceOnUse" id="gradient21" r="819.2" spreadMethod="pad">
      <stop offset="0.0" stop-color="#ff9500"/>
      <stop offset="1.0" stop-color="#ef7c00"/>
    </radialGradient>
    <radialGradient cx="0" cy="0" gradientTransform="matrix(0.0104, 0.0, 0.0, 0.0104, -6.2, -36.0)" gradientUnits="userSpaceOnUse" id="gradient22" r="819.2" spreadMethod="pad">
      <stop offset="0.0" stop-color="#645e49"/>
      <stop offset="1.0" stop-color="#343126"/>
    </radialGradient>
    <radialGradient cx="0" cy="0" gradientTransform="matrix(0.0049, 0.0, 0.0, 0.0049, -8.8, -36.3)" gradientUnits="userSpaceOnUse" id="gradient23" r="819.2" spreadMethod="pad">
      <stop offset="0.0" stop-color="#ffaa00"/>
      <stop offset="1.0" stop-color="#ff9700"/>
    </radialGradient>
    <radialGradient cx="0" cy="0" gradientTransform="matrix(0.003, 0.0, 0.0, 0.003, -8.7, -38.15)" gradientUnits="userSpaceOnUse" id="gradient24" r="819.2" spreadMethod="pad">
      <stop offset="0.0" stop-color="#ff9600"/>
      <stop offset="1.0" stop-color="#ff9500"/>
    </radialGradient>
    <radialGradient cx="0" cy="0" gradientTransform="matrix(0.0203, 0.0, 0.0, 0.0203, -2.45, -40.05)" gradientUnits="userSpaceOnUse" id="gradient25" r="819.2" spreadMethod="pad">
      <stop offset="0.0" stop-color="#ffdb7f"/>
      <stop offset="1.0" stop-color="#bb844d"/>
    </radialGradient>
    <radialGradient cx="0" cy="0" gradientTransform="matrix(0.0045, 0.0, 0.0, 0.0045, -8.1, -40.25)" gradientUnits="userSpaceOnUse" id="gradient26" r="819.2" spreadMethod="pad">
      <stop offset="0.0" stop-color="#331a00"/>
      <stop offset="1.0" stop-color="#331a00"/>
    </radialGradient>
    <radialGradient cx="0" cy="0" gradientTransform="matrix(0.0047, 0.0, 0.0, 0.0047, -8.7, -38.15)" gradientUnits="userSpaceOnUse" id="gradient27" r="819.2" spreadMethod="pad">
      <stop offset="0.0" stop-color="#ff9600"/>
      <stop offset="1.0" stop-color="#ff9100"/>
    </radialGradient>
    <radialGradient cx="0" cy="0" gradientTransform="matrix(0.0047, 0.0, 0.0, 0.0047, -8.7, -38.15)" gradientUnits="userSpaceOnUse" id="gradient28" r="819.2" spreadMethod="pad">
      <stop offset="0.0" stop-color="#6a3500"/>
      <stop offset="1.0" stop-color="#331a00"/>
    </radialGradient>
    <radialGradient cx="0" cy="0" gradientTransform="matrix(0.0372, 0.0, 0.0, 0.0372, -8.8, -14.0)" gradientUnits="userSpaceOnUse" id="gradient29" r="819.2" spreadMethod="pad">
      <stop offset="0.0" stop-color="#e87500"/>
      <stop offset="1.0" stop-color="#331a00"/>
    </radialGradient>
    <radialGradient cx="0" cy="0" gradientTransform="matrix(0.0031, 0.0, 0.0, 0.0031, 9.45, -29.8)" gradientUnits="userSpaceOnUse" id="gradient30" r="819.2" spreadMethod="pad">
      <stop offset="0.0" stop-color="#e77400"/>
      <stop offset="1.0" stop-color="#d76b00"/>
    </radialGradient>
    <radialGradient cx="0" cy="0" gradientTransform="matrix(0.0103, 0.0, 0.0, 0.0103, 3.6, -26.3)" gradientUnits="userSpaceOnUse" id="gradient31" r="819.2" spreadMethod="pad">
      <stop offset="0.0" stop-color="#69624c"/>
      <stop offset="1.0" stop-color="#353127"/>
    </radialGradient>
    <radialGradient cx="0" cy="0" gradientTransform="matrix(0.008, 0.0, 0.0, 0.008, 6.1, -27.9)" gradientUnits="userSpaceOnUse" id="gradient32" r="819.2" spreadMethod="pad">
      <stop offset="0.0" stop-color="#5d5743"/>
      <stop offset="1.0" stop-color="#363227"/>
    </radialGradient>
    <radialGradient cx="0" cy="0" gradientTransform="matrix(0.0086, 0.0, 0.0, 0.0086, -5.75, -27.7)" gradientUnits="userSpaceOnUse" id="gradient33" r="819.2" spreadMethod="pad">
      <stop offset="0.0" stop-color="#ffd97e"/>
      <stop offset="1.0" stop-color="#8c6239"/>
    </radialGradient>
    <radialGradient cx="0" cy="0" gradientTransform="matrix(0.0016, 0.0, 0.0, 0.0016, -5.8, -21.0)" gradientUnits="userSpaceOnUse" id="gradient34" r="819.2" spreadMethod="pad">
      <stop offset="0.0" stop-color="#d19356"/>
      <stop offset="1.0" stop-color="#9d6f40"/>
    </radialGradient>
    <radialGradient cx="0" cy="0" gradientTransform="matrix(0.0124, 0.0, 0.0, 0.0124, -4.9, -29.1)" gradientUnits="userSpaceOnUse" id="gradient35" r="819.2" spreadMethod="pad">
      <stop offset="0.0" stop-color="#ffdc80"/>
      <stop offset="1.0" stop-color="#8e643a"/>
    </radialGradient>
    <radialGradient cx="0" cy="0" gradientTransform="matrix(0.012, 0.0, 0.0, 0.012, -4.0, -19.7)" gradientUnits="userSpaceOnUse" id="gradient36" r="819.2" spreadMethod="pad">
      <stop offset="0.0" stop-color="#67604a"/>
      <stop offset="1.0" stop-color="#444031"/>
    </radialGradient>
    <radialGradient cx="0" cy="0" gradientTransform="matrix(0.002, 0.0, 0.0, 0.002, -5.6, -20.0)" gradientUnits="userSpaceOnUse" id="gradient37" r="819.2" spreadMethod="pad">
      <stop offset="0.0" stop-color="#3f3b2e"/>
      <stop offset="1.0" stop-color="#3c382b"/>
    </radialGradient>
    <radialGradient cx="0" cy="0" gradientTransform="matrix(0.0084, 0.0, 0.0, 0.0084, 8.15, -22.85)" gradientUnits="userSpaceOnUse" id="gradient38" r="819.2" spreadMethod="pad">
      <stop offset="0.0" stop-color="#324e69"/>
      <stop offset="1.0" stop-color="#263b50"/>
    </radialGradient>
    <radialGradient cx="0" cy="0" gradientTransform="matrix(0.0053, 0.0, 0.0, 0.0053, 8.5, -24.2)" gradientUnits="userSpaceOnUse" id="gradient39" r="819.2" spreadMethod="pad">
      <stop offset="0.0" stop-color="#334f6b"/>
      <stop offset="1.0" stop-color="#294157"/>
    </radialGradient>
    <radialGradient cx="0" cy="0" gradientTransform="matrix(0.0042, 0.0, 0.0, 0.0042, 8.15, -23.05)" gradientUnits="userSpaceOnUse" id="gradient40" r="819.2" spreadMethod="pad">
      <stop offset="0.0" stop-color="#3d5f7f"/>
      <stop offset="1.0" stop-color="#294057"/>
    </radialGradient>
    <radialGradient cx="0" cy="0" gradientTransform="matrix(0.0297, 0.0, 0.0, 0.0297, 7.75, -24.15)" gradientUnits="userSpaceOnUse" id="gradient41" r="819.2" spreadMethod="pad">
      <stop offset="0.0" stop-color="#494535"/>
      <stop offset="1.0" stop-color="#3e3a2d"/>
    </radialGradient>
    <radialGradient cx="0" cy="0" gradientTransform="matrix(0.0299, 0.0, 0.0, 0.0299, 5.8, -24.9)" gradientUnits="userSpaceOnUse" id="gradient42" r="819.2" spreadMethod="pad">
      <stop offset="0.0" stop-color="#e3d7af"/>
      <stop offset="1.0" stop-color="#9d9579"/>
    </radialGradient>
    <radialGradient cx="0" cy="0" gradientTransform="matrix(0.008, 0.0, 0.0, 0.008, 18.95, -22.6)" gradientUnits="userSpaceOnUse" id="gradient43" r="819.2" spreadMethod="pad">
      <stop offset="0.0" stop-color="#ffffd2"/>
      <stop offset="1.0" stop-color="#91896f"/>
    </radialGradient>
    <radialGradient cx="0" cy="0" gradientTransform="matrix(0.0064, 0.0, 0.0, 0.0064, 11.45, -24.1)" gradientUnits="userSpaceOnUse" id="gradient44" r="819.2" spreadMethod="pad">
      <stop offset="0.0" stop-color="#d66b00"/>
      <stop offset="1.0" stop-color="#ca6500"/>
    </radialGradient>
    <radialGradient cx="0" cy="0" gradientTransform="matrix(0.0045, 0.0, 0.0, 0.0045, 1.55, -12.2)" gradientUnits="userSpaceOnUse" id="gradient45" r="819.2" spreadMethod="pad">
      <stop offset="0.0" stop-color="#ffe586"/>
      <stop offset="1.0" stop-color="#b17c48"/>
    </radialGradient>
    <radialGradient cx="0" cy="0" gradientTransform="matrix(0.0049, 0.0, 0.0, 0.0049, 0.85, -11.0)" gradientUnits="userSpaceOnUse" id="gradient46" r="819.2" spreadMethod="pad">
      <stop offset="0.0" stop-color="#ffe485"/>
      <stop offset="1.0" stop-color="#96693e"/>
    </radialGradient>
    <radialGradient cx="0" cy="0" gradientTransform="matrix(0.0063, 0.0, 0.0, 0.0063, 8.15, -17.25)" gradientUnits="userSpaceOnUse" id="gradient47" r="819.2" spreadMethod="pad">
      <stop offset="0.0" stop-color="#3a5a79"/>
      <stop offset="1.0" stop-color="#263b4f"/>
    </radialGradient>
    <radialGradient cx="0" cy="0" gradientTransform="matrix(0.003, 0.0, 0.0, 0.003, 25.1, -20.6)" gradientUnits="userSpaceOnUse" id="gradient48" r="819.2" spreadMethod="pad">
      <stop offset="0.0" stop-color="#867f67"/>
      <stop offset="1.0" stop-color="#857e66"/>
    </radialGradient>
    <radialGradient cx="0" cy="0" gradientTransform="matrix(0.0244, 0.0, 0.0, 0.0244, 37.95, -8.85)" gradientUnits="userSpaceOnUse" id="gradient49" r="819.2" spreadMethod="pad">
      <stop offset="0.0" stop-color="#804925"/>
      <stop offset="1.0" stop-color="#412513"/>
    </radialGradient>
    <radialGradient cx="0" cy="0" gradientTransform="matrix(0.0065, 0.0, 0.0, 0.0065, -4.4, -16.55)" gradientUnits="userSpaceOnUse" id="gradient50" r="819.2" spreadMethod="pad">
      <stop offset="0.0" stop-color="#304c66"/>
      <stop offset="1.0" stop-color="#1f3041"/>
    </radialGradient>
    <radialGradient cx="0" cy="0" gradientTransform="matrix(0.0056, 0.0, 0.0, 0.0056, -3.8, -12.35)" gradientUnits="userSpaceOnUse" id="gradient51" r="819.2" spreadMethod="pad">
      <stop offset="0.0" stop-color="#34526e"/>
      <stop offset="1.0" stop-color="#1d2e3e"/>
    </radialGradient>
    <radialGradient cx="0" cy="0" gradientTransform="matrix(0.0023, 0.0, 0.0, 0.0023, -7.25, -11.85)" gradientUnits="userSpaceOnUse" id="gradient52" r="819.2" spreadMethod="pad">
      <stop offset="0.0" stop-color="#213345"/>
      <stop offset="1.0" stop-color="#15202c"/>
    </radialGradient>
    <radialGradient cx="0" cy="0" gradientTransform="matrix(0.0103, 0.0, 0.0, 0.0103, -6.6, -12.8)" gradientUnits="userSpaceOnUse" id="gradient53" r="819.2" spreadMethod="pad">
      <stop offset="0.0" stop-color="#2e4860"/>
      <stop offset="1.0" stop-color="#1b2a39"/>
    </radialGradient>
    <radialGradient cx="0" cy="0" gradientTransform="matrix(0.0014, 0.0, 0.0, 0.0014, 32.1, -16.05)" gradientUnits="userSpaceOnUse" id="gradient54" r="819.2" spreadMethod="pad">
      <stop offset="0.0" stop-color="#3b2211"/>
      <stop offset="1.0" stop-color="#3b2211"/>
    </radialGradient>
    <radialGradient cx="0" cy="0" gradientTransform="matrix(0.0033, 0.0, 0.0, 0.0033, -2.75, -13.0)" gradientUnits="userSpaceOnUse" id="gradient55" r="819.2" spreadMethod="pad">
      <stop offset="0.0" stop-color="#2c2920"/>
      <stop offset="1.0" stop-color="#1c1b15"/>
    </radialGradient>
    <radialGradient cx="0" cy="0" gradientTransform="matrix(0.006, 0.0, 0.0, 0.006, -6.35, -7.7)" gradientUnits="userSpaceOnUse" id="gradient56" r="819.2" spreadMethod="pad">
      <stop offset="0.0" stop-color="#406486"/>
      <stop offset="1.0" stop-color="#1f3041"/>
    </radialGradient>
    <radialGradient cx="0" cy="0" gradientTransform="matrix(0.0065, 0.0, 0.0, 0.0065, 8.7, -13.7)" gradientUnits="userSpaceOnUse" id="gradient57" r="819.2" spreadMethod="pad">
      <stop offset="0.0" stop-color="#3c5e7e"/>
      <stop offset="1.0" stop-color="#1b2b3a"/>
    </radialGradient>
    <radialGradient cx="0" cy="0" gradientTransform="matrix(0.0049, 0.0, 0.0, 0.0049, 8.3, -9.25)" gradientUnits="userSpaceOnUse" id="gradient58" r="819.2" spreadMethod="pad">
      <stop offset="0.0" stop-color="#69624c"/>
      <stop offset="1.0" stop-color="#3b372a"/>
    </radialGradient>
    <radialGradient cx="0" cy="0" gradientTransform="matrix(0.0066, 0.0, 0.0, 0.0066, -5.35, -7.6)" gradientUnits="userSpaceOnUse" id="gradient59" r="819.2" spreadMethod="pad">
      <stop offset="0.0" stop-color="#5a5441"/>
      <stop offset="1.0" stop-color="#2e2b22"/>
    </radialGradient>
    <radialGradient cx="0" cy="0" gradientTransform="matrix(0.0076, 0.0, 0.0, 0.0076, -9.8, -9.25)" gradientUnits="userSpaceOnUse" id="gradient60" r="819.2" spreadMethod="pad">
      <stop offset="0.0" stop-color="#375673"/>
      <stop offset="1.0" stop-color="#1a2a38"/>
    </radialGradient>
    <radialGradient cx="0" cy="0" gradientTransform="matrix(0.0081, 0.0, 0.0, 0.0081, -11.5, -9.45)" gradientUnits="userSpaceOnUse" id="gradient61" r="819.2" spreadMethod="pad">
      <stop offset="0.0" stop-color="#223447"/>
      <stop offset="1.0" stop-color="#080e12"/>
    </radialGradient>
    <radialGradient cx="0" cy="0" gradientTransform="matrix(0.0104, 0.0, 0.0, 0.0104, -7.55, -1.65)" gradientUnits="userSpaceOnUse" id="gradient62" r="819.2" spreadMethod="pad">
      <stop offset="0.0" stop-color="#746d54"/>
      <stop offset="1.0" stop-color="#413d2f"/>
    </radialGradient>
    <radialGradient cx="0" cy="0" gradientTransform="matrix(0.0069, 0.0, 0.0, 0.0069, 9.15, -7.4)" gradientUnits="userSpaceOnUse" id="gradient63" r="819.2" spreadMethod="pad">
      <stop offset="0.0" stop-color="#43688c"/>
      <stop offset="1.0" stop-color="#1f3143"/>
    </radialGradient>
    <radialGradient cx="0" cy="0" gradientTransform="matrix(0.0057, 0.0, 0.0, 0.0057, -11.6, -7.15)" gradientUnits="userSpaceOnUse" id="gradient64" r="819.2" spreadMethod="pad">
      <stop offset="0.0" stop-color="#283e54"/>
      <stop offset="1.0" stop-color="#182532"/>
    </radialGradient>
    <radialGradient cx="0" cy="0" gradientTransform="matrix(0.0044, 0.0, 0.0, 0.0044, 9.9, -2.85)" gradientUnits="userSpaceOnUse" id="gradient65" r="819.2" spreadMethod="pad">
      <stop offset="0.0" stop-color="#385876"/>
      <stop offset="1.0" stop-color="#24384c"/>
    </radialGradient>
    <radialGradient cx="0" cy="0" gradientTransform="matrix(0.0049, 0.0, 0.0, 0.0049, 8.85, -0.95)" gradientUnits="userSpaceOnUse" id="gradient66" r="819.2" spreadMethod="pad">
      <stop offset="0.0" stop-color="#3d5f7f"/>
      <stop offset="1.0" stop-color="#213445"/>
    </radialGradient>
    <radialGradient cx="0" cy="0" gradientTransform="matrix(0.0038, 0.0, 0.0, 0.0038, 10.55, 2.65)" gradientUnits="userSpaceOnUse" id="gradient67" r="819.2" spreadMethod="pad">
      <stop offset="0.0" stop-color="#494435"/>
      <stop offset="1.0" stop-color="#363327"/>
    </radialGradient>
    <radialGradient cx="0" cy="0" gradientTransform="matrix(0.0087, 0.0, 0.0, 0.0087, 10.65, 5.7)" gradientUnits="userSpaceOnUse" id="gradient68" r="819.2" spreadMethod="pad">
      <stop offset="0.0" stop-color="#736c54"/>
      <stop offset="1.0" stop-color="#5f5945"/>
    </radialGradient>
    <radialGradient cx="0" cy="0" gradientTransform="matrix(0.0016, 0.0, 0.0, 0.0016, 15.65, 9.95)" gradientUnits="userSpaceOnUse" id="gradient69" r="819.2" spreadMethod="pad">
      <stop offset="0.0" stop-color="#393529"/>
      <stop offset="1.0" stop-color="#383428"/>
    </radialGradient>
  </defs>
</svg>
