<?xml version="1.0" encoding="UTF-8" standalone="no"?>
<svg xmlns:ffdec="https://www.free-decompiler.com/flash" xmlns:xlink="http://www.w3.org/1999/xlink" ffdec:objectType="shape" height="70.4px" width="59.0px" xmlns="http://www.w3.org/2000/svg">
  <g transform="matrix(1.0, 0.0, 0.0, 1.0, 16.25, 53.85)">
    <path d="M-4.0 -50.4 Q-2.15 -53.45 0.65 -53.85 L3.4 -53.4 6.25 -50.3 6.3 -49.6 6.45 -48.65 Q6.9 -44.7 -0.65 -46.05 -4.65 -47.25 -4.1 -50.2 L-4.0 -50.4" fill="url(#gradient0)" fill-rule="evenodd" stroke="none"/>
    <path d="M-4.2 -50.2 L-4.2 -50.25 -4.1 -50.3 -4.0 -50.4 -4.1 -50.2 -4.2 -50.2" fill="url(#gradient1)" fill-rule="evenodd" stroke="none"/>
    <path d="M-4.7 -49.05 L-4.65 -49.5 -4.2 -50.2 -4.1 -50.2 Q-4.65 -47.25 -0.65 -46.05 6.9 -44.7 6.45 -48.65 L6.75 -47.75 6.7 -47.4 Q6.3 -45.4 1.7 -45.4 -3.15 -45.65 -4.7 -49.05" fill="url(#gradient2)" fill-rule="evenodd" stroke="none"/>
    <path d="M-4.95 -47.75 L-4.7 -49.05 Q-3.15 -45.65 1.7 -45.4 6.3 -45.4 6.7 -47.4 L6.4 -45.5 Q6.7 -43.1 3.35 -42.4 L1.0 -42.3 Q-0.9 -42.3 -3.05 -43.4 L-3.95 -44.0 -4.75 -44.9 -4.95 -45.15 -5.1 -46.5 -4.95 -47.75" fill="url(#gradient3)" fill-rule="evenodd" stroke="none"/>
    <path d="M-10.2 -40.6 Q-10.55 -46.55 -4.95 -47.75 L-5.1 -46.5 -4.95 -45.15 Q-6.3 -44.05 -7.9 -41.8 L-8.35 -40.9 -8.65 -39.65 -8.65 -38.8 -9.55 -39.6 -10.2 -40.6" fill="url(#gradient4)" fill-rule="evenodd" stroke="none"/>
    <path d="M-12.2 -32.25 Q-12.95 -37.7 -10.2 -40.6 L-9.55 -39.6 -8.65 -38.8 -8.2 -35.6 Q-9.05 -32.6 -8.15 -32.05 -10.4 -29.75 -12.2 -32.25" fill="url(#gradient5)" fill-rule="evenodd" stroke="none"/>
    <path d="M-7.25 -32.3 Q-7.25 -28.85 -11.1 -23.6 L-11.5 -23.5 -12.05 -23.8 -12.7 -23.8 -13.3 -23.55 -13.85 -23.8 -14.0 -24.05 -13.9 -24.55 -13.55 -30.0 -12.2 -32.25 Q-10.4 -29.75 -8.15 -32.05 L-7.4 -32.45 -7.25 -32.3" fill="url(#gradient6)" fill-rule="evenodd" stroke="none"/>
    <path d="M-11.1 -23.6 Q-9.75 -19.95 -12.4 -19.3 -10.7 -20.0 -11.5 -23.5 L-11.1 -23.6 M-13.6 -19.15 L-14.45 -19.15 Q-18.3 -22.75 -13.9 -24.55 L-14.0 -24.05 -13.85 -23.8 -13.3 -23.55 -14.0 -20.65 Q-14.3 -19.4 -13.6 -19.15" fill="url(#gradient7)" fill-rule="evenodd" stroke="none"/>
    <path d="M-7.1 -32.6 L-7.25 -32.3 -7.4 -32.45 -7.1 -32.6" fill="url(#gradient8)" fill-rule="evenodd" stroke="none"/>
    <path d="M-6.85 -32.8 L-7.1 -32.6 -7.4 -32.45 -8.15 -32.05 Q-9.05 -32.6 -8.2 -35.6 L-6.85 -32.8" fill="url(#gradient9)" fill-rule="evenodd" stroke="none"/>
    <path d="M-5.3 -21.1 Q-5.9 -19.75 -6.0 -17.6 L-6.7 -9.45 -7.5 -7.35 Q-8.65 -11.6 -7.1 -25.9 L-7.05 -25.9 -7.05 -25.95 -7.05 -26.0 -6.95 -26.2 -6.25 -31.15 -6.15 -31.35 -6.2 -31.35 -6.25 -31.8 -6.85 -32.8 -8.2 -35.6 -8.65 -38.8 -8.65 -39.65 -8.35 -40.9 -7.9 -41.8 Q-6.3 -44.05 -4.95 -45.15 L-4.75 -44.9 -5.1 -43.25 -5.05 -40.6 Q-6.8 -36.35 -5.9 -32.6 L-4.95 -28.5 -4.85 -27.95 -4.85 -24.9 -5.05 -22.0 -5.1 -21.75 -5.3 -21.1" fill="url(#gradient10)" fill-rule="evenodd" stroke="none"/>
    <path d="M6.3 -49.6 L7.1 -49.05 7.7 -48.45 8.1 -47.25 7.1 -46.4 7.1 -45.5 6.4 -45.5 6.7 -47.4 6.75 -47.75 6.45 -48.65 6.3 -49.6" fill="url(#gradient11)" fill-rule="evenodd" stroke="none"/>
    <path d="M7.1 -49.05 L9.15 -47.8 10.1 -46.3 9.55 -46.55 9.35 -46.55 9.0 -45.75 8.95 -45.35 9.65 -45.05 9.4 -45.0 9.2 -45.0 7.35 -45.3 7.15 -45.5 8.1 -46.5 8.1 -47.25 7.7 -48.45 7.1 -49.05" fill="url(#gradient12)" fill-rule="evenodd" stroke="none"/>
    <path d="M8.1 -47.25 L8.1 -46.5 7.15 -45.5 7.1 -45.5 7.1 -46.4 8.1 -47.25" fill="url(#gradient13)" fill-rule="evenodd" stroke="none"/>
    <path d="M-4.75 -44.9 L-3.95 -44.0 -3.05 -43.4 Q0.85 -39.65 3.35 -42.4 6.7 -43.1 6.4 -45.5 L7.1 -45.5 7.15 -45.5 7.35 -45.3 Q9.05 -43.6 7.95 -40.9 6.9 -37.45 3.05 -36.45 L2.95 -36.0 2.0 -35.7 -0.65 -35.4 -2.1 -35.45 Q-5.0 -38.95 -5.05 -40.6 L-5.1 -43.25 -4.75 -44.9" fill="url(#gradient14)" fill-rule="evenodd" stroke="none"/>
    <path d="M10.1 -46.3 L9.7 -45.15 9.65 -45.05 8.95 -45.35 9.0 -45.75 9.35 -46.55 9.55 -46.55 10.1 -46.3" fill="url(#gradient15)" fill-rule="evenodd" stroke="none"/>
    <path d="M9.7 -45.15 L10.3 -44.35 9.4 -45.0 9.65 -45.05 9.7 -45.15" fill="url(#gradient16)" fill-rule="evenodd" stroke="none"/>
    <path d="M7.95 -2.85 L7.75 -2.1 7.6 -2.05 7.7 -2.65 7.8 -4.55 7.55 -6.4 7.4 -6.6 7.35 -7.15 8.75 -8.75 8.7 -8.0 8.65 -7.65 8.5 -5.5 7.95 -2.85 M10.55 -43.65 L11.95 -41.4 11.8 -41.4 11.25 -41.5 10.4 -40.9 9.3 -39.0 8.95 -37.55 8.85 -37.2 Q8.2 -33.8 9.55 -30.65 L9.0 -30.05 9.2 -29.85 9.65 -30.3 9.75 -30.25 9.9 -30.0 10.35 -29.55 10.7 -29.75 11.35 -31.35 12.25 -31.0 10.95 -24.55 10.95 -23.4 11.3 -21.55 11.15 -18.8 10.95 -17.25 10.6 -14.6 10.35 -14.35 10.65 -19.75 Q10.75 -20.55 10.2 -21.45 L9.1 -19.05 8.75 -14.95 8.75 -12.55 6.3 -9.9 6.1 -10.45 4.4 -14.95 4.25 -15.3 3.35 -18.1 2.95 -23.65 2.1 -28.5 2.1 -30.25 Q2.9 -33.3 2.95 -36.0 L3.05 -36.45 Q6.9 -37.45 7.95 -40.9 9.05 -43.6 7.35 -45.3 L9.2 -45.0 10.55 -43.65" fill="url(#gradient17)" fill-rule="evenodd" stroke="none"/>
    <path d="M10.3 -44.35 L10.45 -44.25 10.55 -43.65 9.2 -45.0 9.4 -45.0 10.3 -44.35 M10.95 -17.25 L11.15 -18.8 11.25 -17.2 10.95 -17.25" fill="url(#gradient18)" fill-rule="evenodd" stroke="none"/>
    <path d="M8.85 -37.2 L10.4 -32.9 10.55 -31.9 9.75 -30.25 9.65 -30.3 9.2 -29.85 9.0 -30.05 9.55 -30.65 Q8.2 -33.8 8.85 -37.2 M2.95 -36.0 Q2.9 -33.3 2.1 -30.25 L2.1 -28.5 Q-0.05 -29.65 -0.75 -32.2 L-0.95 -33.8 -0.65 -35.4 2.0 -35.7 2.95 -36.0" fill="url(#gradient19)" fill-rule="evenodd" stroke="none"/>
    <path d="M-5.05 -40.6 Q-5.0 -38.95 -2.1 -35.45 L-0.65 -35.4 -0.95 -33.8 -0.75 -32.2 -1.8 -31.5 -3.8 -31.35 -4.9 -31.8 -5.9 -32.6 Q-6.8 -36.35 -5.05 -40.6" fill="url(#gradient20)" fill-rule="evenodd" stroke="none"/>
    <path d="M-7.1 -25.9 L-7.05 -25.95 -7.05 -25.9 -7.1 -25.9 M-6.25 -31.15 L-6.2 -31.35 -6.15 -31.35 -6.25 -31.15 M11.95 -41.4 L12.0 -41.1 11.8 -41.4 11.95 -41.4 M11.1 -31.5 L11.35 -31.35 10.7 -29.75 10.35 -29.55 9.9 -30.0 11.1 -31.5 M8.75 -12.55 L8.75 -14.95 9.1 -19.05 10.2 -21.45 Q10.75 -20.55 10.65 -19.75 L10.35 -14.35 8.75 -12.55 M-5.9 -32.6 L-4.9 -31.8 -3.8 -31.35 -3.3 -30.0 Q-3.55 -29.75 -3.9 -29.45 L-4.7 -28.25 -4.95 -28.5 -5.9 -32.6 M10.55 -10.8 L10.45 -9.0 10.3 -8.3 9.95 -8.6 9.65 -8.95 9.3 -9.4 10.55 -10.8" fill="url(#gradient21)" fill-rule="evenodd" stroke="none"/>
    <path d="M12.0 -41.1 L12.05 -40.9 11.8 -40.9 Q10.35 -41.4 8.95 -37.55 L9.3 -39.0 10.4 -40.9 11.25 -41.5 11.8 -41.4 12.0 -41.1 M10.55 -31.9 L11.1 -31.5 9.9 -30.0 9.75 -30.25 10.55 -31.9 M2.1 -28.5 L2.95 -23.65 1.85 -23.65 1.75 -23.5 1.05 -23.5 0.95 -23.9 0.4 -24.25 0.35 -26.15 Q-0.45 -26.0 -0.95 -25.2 L-2.15 -25.65 -2.25 -26.0 -2.6 -26.2 -2.9 -26.7 -3.25 -29.65 -3.1 -29.7 -3.25 -29.75 -3.3 -30.0 -3.8 -31.35 -1.8 -31.5 -0.75 -32.2 Q-0.05 -29.65 2.1 -28.5" fill="url(#gradient22)" fill-rule="evenodd" stroke="none"/>
    <path d="M12.05 -40.9 Q16.4 -40.7 17.7 -35.9 L17.85 -34.35 Q17.3 -32.3 16.5 -31.8 L15.15 -31.0 12.85 -30.85 12.25 -31.0 11.35 -31.35 11.1 -31.5 10.55 -31.9 10.4 -32.9 8.85 -37.2 8.95 -37.55 Q10.35 -41.4 11.8 -40.9 L12.05 -40.9" fill="url(#gradient23)" fill-rule="evenodd" stroke="none"/>
    <path d="M-3.05 -43.4 Q-0.9 -42.3 1.0 -42.3 L3.35 -42.4 Q0.85 -39.65 -3.05 -43.4" fill="url(#gradient24)" fill-rule="evenodd" stroke="none"/>
    <path d="M17.7 -35.9 Q20.9 -33.85 19.6 -29.7 L18.95 -28.45 Q17.95 -27.05 16.5 -31.8 17.3 -32.3 17.85 -34.35 L17.7 -35.9" fill="url(#gradient25)" fill-rule="evenodd" stroke="none"/>
    <path d="M12.85 -30.85 L15.15 -31.0 16.5 -31.8 Q17.95 -27.05 18.95 -28.45 L18.8 -27.95 Q18.15 -25.75 15.75 -26.15 13.2 -27.1 12.85 -30.85" fill="url(#gradient26)" fill-rule="evenodd" stroke="none"/>
    <path d="M33.95 -40.45 L40.5 -47.75 41.15 -48.25 Q43.15 -48.0 42.65 -46.65 L35.55 -38.85 35.7 -39.3 35.5 -39.8 34.75 -40.4 34.6 -40.45 34.55 -40.45 33.95 -40.45" fill="url(#gradient27)" fill-rule="evenodd" stroke="none"/>
    <path d="M35.55 -38.85 L21.2 -22.8 20.35 -23.6 20.35 -23.65 21.25 -25.75 21.2 -26.3 33.8 -40.25 34.55 -40.45 34.6 -40.45 34.75 -40.4 35.5 -39.8 35.7 -39.3 35.55 -38.85 M17.6 -18.65 L11.25 -11.55 10.55 -10.8 9.3 -9.4 8.75 -8.75 7.35 -7.15 6.7 -6.5 Q6.3 -7.95 4.75 -8.1 L6.3 -9.9 8.75 -12.55 10.35 -14.35 10.6 -14.6 15.75 -20.25 16.3 -20.7 16.9 -20.65 17.7 -19.7 17.85 -19.05 17.6 -18.65 M-3.5 4.0 L-4.4 4.75 -4.75 4.05 -5.55 3.7 -3.7 1.5 -3.5 1.25 -3.05 0.6 -1.15 -1.55 -0.5 -2.35 -0.3 -2.55 0.1 -2.55 0.15 -2.55 0.25 -2.45 1.1 -1.95 1.55 -1.3 1.5 -0.7 1.4 -0.55 1.15 -0.35 -1.9 2.5 -2.8 3.35 -3.5 4.0" fill="url(#gradient28)" fill-rule="evenodd" stroke="none"/>
    <path d="M33.8 -40.25 L33.95 -40.45 34.55 -40.45 33.8 -40.25" fill="url(#gradient29)" fill-rule="evenodd" stroke="none"/>
    <path d="M-3.25 -29.75 L-3.25 -29.65 -2.9 -26.7 -2.6 -26.2 -3.4 -24.8 -3.65 -23.15 -3.75 -23.25 -4.05 -22.65 -4.05 -22.05 -4.2 -21.65 -4.35 -21.65 -5.05 -22.0 -4.85 -24.9 -4.85 -27.95 -4.7 -28.25 -3.9 -29.45 Q-3.55 -29.75 -3.3 -30.0 L-3.25 -29.75" fill="url(#gradient30)" fill-rule="evenodd" stroke="none"/>
    <path d="M-3.25 -29.75 L-3.1 -29.7 -3.25 -29.65 -3.25 -29.75" fill="url(#gradient31)" fill-rule="evenodd" stroke="none"/>
    <path d="M-2.6 -26.2 L-2.25 -26.0 -2.15 -25.65 -0.95 -25.2 Q-0.45 -26.0 0.35 -26.15 L0.4 -24.25 0.95 -23.9 1.05 -23.5 1.75 -23.5 1.15 -22.0 0.85 -20.55 Q-4.5 -15.45 -3.65 -23.15 L-3.4 -24.8 -2.6 -26.2" fill="url(#gradient32)" fill-rule="evenodd" stroke="none"/>
    <path d="M-4.05 -1.05 L-4.1 -0.15 -4.3 -0.65 -4.2 -6.2 -3.6 -12.25 -3.6 -12.45 -3.35 -13.7 -3.45 -14.1 -3.4 -14.6 -3.45 -14.9 -3.45 -14.95 -3.8 -17.75 -4.0 -20.25 -4.1 -21.55 -4.05 -22.05 -4.05 -22.65 -3.75 -23.25 -3.65 -23.15 Q-4.5 -15.45 0.85 -20.55 L1.3 -19.6 1.2 -19.4 0.8 -19.15 -0.85 -17.0 -2.45 -13.65 -3.1 -10.9 -3.1 -10.85 -3.15 -10.65 -3.4 -9.9 -3.95 -5.35 -4.05 -1.05" fill="url(#gradient33)" fill-rule="evenodd" stroke="none"/>
    <path d="M-3.7 1.5 L-3.9 0.95 -3.75 -1.35 -3.1 -10.65 -3.1 -10.85 -3.1 -10.9 -2.45 -13.65 -0.85 -17.0 0.8 -19.15 1.2 -19.4 1.55 -18.1 0.55 -17.25 -0.85 -14.95 -1.4 -13.35 -2.2 -10.45 Q-2.2 -9.45 -2.75 -8.75 L-2.7 -7.25 -3.0 -5.7 -3.4 -0.3 -3.5 1.25 -3.7 1.5 M-4.2 -21.65 L-4.05 -22.05 -4.1 -21.55 -4.2 -21.65" fill="url(#gradient34)" fill-rule="evenodd" stroke="none"/>
    <path d="M-4.35 -21.65 L-4.2 -21.65 -4.1 -21.55 -4.0 -20.25 -4.35 -20.05 -4.65 -20.4 -4.7 -20.8 -4.6 -21.45 -4.35 -21.65" fill="url(#gradient35)" fill-rule="evenodd" stroke="none"/>
    <path d="M-5.05 -22.0 L-4.35 -21.65 -4.6 -21.45 -4.7 -20.8 -4.9 -21.1 -5.0 -21.05 -5.1 -21.75 -5.05 -22.0" fill="url(#gradient36)" fill-rule="evenodd" stroke="none"/>
    <path d="M19.6 -29.7 Q21.0 -28.3 20.85 -28.05 L21.2 -26.3 21.25 -25.75 20.35 -23.65 20.35 -23.6 20.05 -22.3 Q18.5 -20.85 17.65 -21.55 L17.05 -23.25 17.0 -23.35 16.25 -25.45 15.75 -26.15 Q18.15 -25.75 18.8 -27.95 L18.95 -28.45 19.6 -29.7" fill="url(#gradient37)" fill-rule="evenodd" stroke="none"/>
    <path d="M21.2 -22.8 Q22.65 -17.9 17.6 -18.65 L17.85 -19.05 17.7 -19.7 16.9 -20.65 17.65 -21.55 Q18.5 -20.85 20.05 -22.3 L20.35 -23.6 21.2 -22.8 M17.0 -23.35 L17.05 -23.25 16.85 -23.15 17.0 -23.35" fill="url(#gradient38)" fill-rule="evenodd" stroke="none"/>
    <path d="M17.05 -23.25 L17.65 -21.55 16.9 -20.65 16.3 -20.7 15.75 -20.25 Q15.1 -22.15 16.85 -23.15 L17.05 -23.25" fill="url(#gradient39)" fill-rule="evenodd" stroke="none"/>
    <path d="M-5.05 -19.75 L-5.3 -21.1 -5.1 -21.75 -5.0 -21.05 -4.9 -21.1 -4.7 -20.8 -4.65 -20.4 -4.35 -20.05 -4.0 -20.25 -3.8 -17.75 -4.55 -18.5 -5.05 -19.75" fill="url(#gradient40)" fill-rule="evenodd" stroke="none"/>
    <path d="M-12.4 -19.3 L-13.45 -19.1 -13.6 -19.15 Q-14.3 -19.4 -14.0 -20.65 L-13.3 -23.55 -12.7 -23.8 -12.05 -23.8 -11.5 -23.5 Q-10.7 -20.0 -12.4 -19.3" fill="url(#gradient41)" fill-rule="evenodd" stroke="none"/>
    <path d="M2.95 -23.65 L3.35 -18.1 4.25 -15.3 4.05 -15.15 3.6 -15.05 3.1 -15.3 1.85 -17.2 1.7 -17.6 1.55 -18.1 1.2 -19.4 1.3 -19.6 0.85 -20.55 1.15 -22.0 1.75 -23.5 1.85 -23.65 2.95 -23.65" fill="url(#gradient42)" fill-rule="evenodd" stroke="none"/>
    <path d="M4.25 -15.3 L4.4 -14.95 6.1 -10.45 Q1.65 -9.7 -1.4 -13.35 L-0.85 -14.95 0.55 -17.25 1.55 -18.1 1.7 -17.6 1.4 -17.4 1.2 -16.85 1.15 -14.95 1.3 -14.25 1.5 -14.4 1.75 -14.05 2.05 -14.2 2.65 -13.9 2.75 -13.5 3.95 -14.95 4.05 -15.15 4.25 -15.3" fill="url(#gradient43)" fill-rule="evenodd" stroke="none"/>
    <path d="M1.85 -17.2 L3.1 -15.3 3.6 -15.05 4.05 -15.15 3.95 -14.95 2.75 -13.5 2.65 -13.9 2.05 -14.2 2.1 -14.95 1.85 -17.2" fill="url(#gradient44)" fill-rule="evenodd" stroke="none"/>
    <path d="M1.7 -17.6 L1.85 -17.2 2.1 -14.95 2.05 -14.2 1.75 -14.05 1.5 -14.4 1.3 -14.25 1.15 -14.95 1.2 -16.85 1.4 -17.4 1.7 -17.6" fill="url(#gradient45)" fill-rule="evenodd" stroke="none"/>
    <path d="M-4.65 -15.65 L-5.2 -17.55 Q-5.35 -19.05 -5.05 -19.75 L-4.55 -18.5 -3.8 -17.75 -3.45 -14.95 -3.45 -14.9 -3.45 -14.7 -4.3 -15.1 -4.65 -15.65" fill="url(#gradient46)" fill-rule="evenodd" stroke="none"/>
    <path d="M-3.6 -12.85 L-4.3 -14.0 -4.65 -15.65 -4.3 -15.1 -3.45 -14.7 -3.4 -14.6 -3.45 -14.1 -3.45 -13.75 -3.5 -13.65 -3.6 -12.85" fill="url(#gradient47)" fill-rule="evenodd" stroke="none"/>
    <path d="M-3.75 -1.35 L-4.05 -1.05 -3.95 -5.35 -3.4 -9.9 -3.15 -10.65 -3.1 -10.65 -3.75 -1.35 M-3.6 -12.45 L-3.6 -12.85 -3.5 -13.65 -3.45 -13.75 -3.45 -14.1 -3.35 -13.7 -3.6 -12.45 M-3.45 -14.9 L-3.4 -14.6 -3.45 -14.7 -3.45 -14.9" fill="url(#gradient48)" fill-rule="evenodd" stroke="none"/>
    <path d="M-3.1 -10.85 L-3.1 -10.65 -3.15 -10.65 -3.1 -10.85 M-2.7 -7.25 L-2.2 -5.6 -2.4 -4.85 -2.35 -3.65 -2.35 -3.6 -3.0 -1.95 -3.1 -0.55 -3.15 -0.5 -3.4 -0.3 -3.0 -5.7 -2.7 -7.25" fill="url(#gradient49)" fill-rule="evenodd" stroke="none"/>
    <path d="M6.1 -10.45 L6.3 -9.9 4.75 -8.1 2.4 -5.7 Q0.55 -6.15 -2.2 -10.45 L-1.4 -13.35 Q1.65 -9.7 6.1 -10.45" fill="url(#gradient50)" fill-rule="evenodd" stroke="none"/>
    <path d="M-2.2 -10.45 Q0.55 -6.15 2.4 -5.7 L0.1 -3.15 -1.05 -3.95 -2.2 -5.6 -2.7 -7.25 -2.75 -8.75 Q-2.2 -9.45 -2.2 -10.45 M7.35 -7.15 L7.4 -6.6 7.25 -6.1 6.1 -4.15 5.0 -3.2 Q3.95 -2.55 3.35 -2.6 L6.4 -6.0 6.7 -6.5 7.35 -7.15" fill="url(#gradient51)" fill-rule="evenodd" stroke="none"/>
    <path d="M-3.15 -0.5 L-3.1 -0.55 -3.1 -0.5 -3.15 -0.5" fill="url(#gradient52)" fill-rule="evenodd" stroke="none"/>
    <path d="M5.9 -3.15 Q7.05 -0.6 5.25 2.3 L4.2 3.35 Q3.4 3.9 2.25 3.9 L2.8 3.3 3.15 -0.7 4.35 -1.1 5.25 -1.95 5.9 -3.15 M-3.1 -0.55 L-3.0 -1.95 -2.35 -3.6 -2.25 -3.6 -1.9 -2.45 -1.15 -1.55 -3.05 0.6 -3.1 -0.5 -3.1 -0.55 M1.15 -0.35 L1.3 2.75 0.35 3.7 -0.6 3.4 -1.9 2.5 1.15 -0.35" fill="url(#gradient53)" fill-rule="evenodd" stroke="none"/>
    <path d="M-2.35 -3.6 L-2.35 -3.65 -2.25 -3.6 -2.35 -3.6" fill="url(#gradient54)" fill-rule="evenodd" stroke="none"/>
    <path d="M6.0 -3.6 L5.9 -3.15 5.25 -1.95 4.35 -1.1 3.15 -0.7 3.3 -2.55 3.35 -2.6 Q3.95 -2.55 5.0 -3.2 L6.1 -4.15 6.0 -3.6 M-2.2 -5.6 L-1.05 -3.95 0.1 -3.15 -0.3 -2.6 -0.5 -2.35 -1.15 -1.55 -1.9 -2.45 -2.25 -3.6 -2.35 -3.65 -2.4 -4.85 -2.2 -5.6" fill="url(#gradient55)" fill-rule="evenodd" stroke="none"/>
    <path d="M11.25 -11.55 Q14.45 -9.25 7.95 -2.85 L8.5 -5.5 8.65 -7.65 9.4 -8.0 9.95 -8.6 10.3 -8.3 10.45 -9.0 10.55 -10.8 11.25 -11.55 M7.7 -2.65 L6.8 -2.55 6.0 -3.6 6.1 -4.15 7.25 -6.1 7.4 -6.6 7.55 -6.4 7.8 -4.55 7.7 -2.65" fill="url(#gradient56)" fill-rule="evenodd" stroke="none"/>
    <path d="M9.95 -8.6 L9.4 -8.0 8.65 -7.65 8.7 -8.0 9.65 -8.95 9.95 -8.6" fill="url(#gradient57)" fill-rule="evenodd" stroke="none"/>
    <path d="M9.65 -8.95 L8.7 -8.0 8.75 -8.75 9.3 -9.4 9.65 -8.95" fill="url(#gradient58)" fill-rule="evenodd" stroke="none"/>
    <path d="M2.4 -5.7 L4.75 -8.1 Q6.3 -7.95 6.7 -6.5 L6.4 -6.0 3.35 -2.6 3.3 -2.55 1.5 -0.65 1.5 -0.7 1.55 -1.3 1.1 -1.95 0.25 -2.45 0.15 -2.55 0.1 -2.55 -0.3 -2.6 0.1 -3.15 2.4 -5.7" fill="url(#gradient59)" fill-rule="evenodd" stroke="none"/>
    <path d="M-8.55 14.05 L-11.6 16.55 -11.35 16.1 -9.0 13.35 -2.5 6.6 -1.15 5.25 0.35 3.7 1.3 2.75 1.15 -0.35 1.4 -0.55 1.5 -0.65 3.3 -2.55 3.15 -0.7 2.8 3.3 2.25 3.9 0.1 5.9 -1.45 7.35 -3.0 8.8 -8.55 14.05" fill="url(#gradient60)" fill-rule="evenodd" stroke="none"/>
    <path d="M0.1 -2.55 L-0.3 -2.55 -0.5 -2.35 -0.3 -2.6 0.1 -2.55 M1.5 -0.7 L1.5 -0.65 1.4 -0.55 1.5 -0.7" fill="url(#gradient61)" fill-rule="evenodd" stroke="none"/>
    <path d="M5.25 2.3 Q5.2 3.25 4.65 4.1 L3.5 5.55 2.4 6.05 0.1 5.9 2.25 3.9 Q3.4 3.9 4.2 3.35 L5.25 2.3 M0.35 3.7 L-1.15 5.25 -2.5 3.95 -2.8 3.35 -1.9 2.5 -0.6 3.4 0.35 3.7" fill="url(#gradient62)" fill-rule="evenodd" stroke="none"/>
    <path d="M3.5 5.55 Q2.8 7.2 0.75 7.65 L-0.2 7.8 -1.45 7.35 0.1 5.9 2.4 6.05 3.5 5.55 M-2.5 6.6 L-3.25 5.55 -3.5 4.0 -2.8 3.35 -2.5 3.95 -1.15 5.25 -2.5 6.6" fill="url(#gradient63)" fill-rule="evenodd" stroke="none"/>
    <path d="M0.75 7.65 L0.65 8.2 Q-1.35 11.25 -3.0 8.8 L-1.45 7.35 -0.2 7.8 0.75 7.65" fill="url(#gradient64)" fill-rule="evenodd" stroke="none"/>
    <path d="M0.65 8.2 L0.8 8.55 0.7 9.85 0.25 10.75 -1.75 12.65 -5.3 15.35 -6.45 15.7 -6.8 15.4 -7.25 14.75 -8.4 14.5 -8.55 14.4 -8.55 14.05 -3.0 8.8 Q-1.35 11.25 0.65 8.2" fill="url(#gradient65)" fill-rule="evenodd" stroke="none"/>
    <path d="M-4.4 4.75 Q-5.75 4.7 -5.55 3.7 L-4.75 4.05 -4.4 4.75" fill="url(#gradient66)" fill-rule="evenodd" stroke="none"/>
    <path d="M-6.8 15.4 L-8.4 14.5 -7.25 14.75 -6.8 15.4" fill="url(#gradient67)" fill-rule="evenodd" stroke="none"/>
  </g>
  <defs>
    <radialGradient cx="0" cy="0" gradientTransform="matrix(0.0072, 0.0, 0.0, 0.0072, 1.05, -48.2)" gradientUnits="userSpaceOnUse" id="gradient0" r="819.2" spreadMethod="pad">
      <stop offset="0.0" stop-color="#f4e8bc"/>
      <stop offset="1.0" stop-color="#878068"/>
    </radialGradient>
    <radialGradient cx="0" cy="0" gradientTransform="matrix(0.0062, 0.0, 0.0, 0.0062, -1.05, -53.5)" gradientUnits="userSpaceOnUse" id="gradient1" r="819.2" spreadMethod="pad">
      <stop offset="0.0" stop-color="#706b57"/>
      <stop offset="1.0" stop-color="#2f2c24"/>
    </radialGradient>
    <radialGradient cx="0" cy="0" gradientTransform="matrix(0.0091, 0.0, 0.0, 0.0091, -0.55, -45.9)" gradientUnits="userSpaceOnUse" id="gradient2" r="819.2" spreadMethod="pad">
      <stop offset="0.0" stop-color="#2b445b"/>
      <stop offset="1.0" stop-color="#2b435a"/>
    </radialGradient>
    <radialGradient cx="0" cy="0" gradientTransform="matrix(0.009, 0.0, 0.0, 0.009, 1.5, -45.55)" gradientUnits="userSpaceOnUse" id="gradient3" r="819.2" spreadMethod="pad">
      <stop offset="0.0" stop-color="#314c67"/>
      <stop offset="1.0" stop-color="#283f54"/>
    </radialGradient>
    <radialGradient cx="0" cy="0" gradientTransform="matrix(0.0084, 0.0, 0.0, 0.0084, -5.35, -44.75)" gradientUnits="userSpaceOnUse" id="gradient4" r="819.2" spreadMethod="pad">
      <stop offset="0.0" stop-color="#68614b"/>
      <stop offset="1.0" stop-color="#322e24"/>
    </radialGradient>
    <radialGradient cx="0" cy="0" gradientTransform="matrix(0.0113, 0.0, 0.0, 0.0113, -8.8, -40.05)" gradientUnits="userSpaceOnUse" id="gradient5" r="819.2" spreadMethod="pad">
      <stop offset="0.0" stop-color="#ffe585"/>
      <stop offset="1.0" stop-color="#8d633a"/>
    </radialGradient>
    <radialGradient cx="0" cy="0" gradientTransform="matrix(0.012, 0.0, 0.0, 0.012, -9.4, -32.15)" gradientUnits="userSpaceOnUse" id="gradient6" r="819.2" spreadMethod="pad">
      <stop offset="0.0" stop-color="#6c654e"/>
      <stop offset="1.0" stop-color="#433e30"/>
    </radialGradient>
    <radialGradient cx="0" cy="0" gradientTransform="matrix(0.004, 0.0, 0.0, 0.004, -13.55, -22.35)" gradientUnits="userSpaceOnUse" id="gradient7" r="819.2" spreadMethod="pad">
      <stop offset="0.0" stop-color="#ffec89"/>
      <stop offset="1.0" stop-color="#8d6339"/>
    </radialGradient>
    <radialGradient cx="0" cy="0" gradientTransform="matrix(0.001, 0.0, 0.0, 0.001, -7.45, -32.9)" gradientUnits="userSpaceOnUse" id="gradient8" r="819.2" spreadMethod="pad">
      <stop offset="0.0" stop-color="#b7814b"/>
      <stop offset="1.0" stop-color="#6c4c2c"/>
    </radialGradient>
    <radialGradient cx="0" cy="0" gradientTransform="matrix(0.0056, 0.0, 0.0, 0.0056, -8.5, -36.6)" gradientUnits="userSpaceOnUse" id="gradient9" r="819.2" spreadMethod="pad">
      <stop offset="0.0" stop-color="#ffcd77"/>
      <stop offset="1.0" stop-color="#7c5733"/>
    </radialGradient>
    <radialGradient cx="0" cy="0" gradientTransform="matrix(0.0454, 0.0, 0.0, 0.0454, -3.65, -44.45)" gradientUnits="userSpaceOnUse" id="gradient10" r="819.2" spreadMethod="pad">
      <stop offset="0.0" stop-color="#ffbd00"/>
      <stop offset="1.0" stop-color="#fd8400"/>
    </radialGradient>
    <radialGradient cx="0" cy="0" gradientTransform="matrix(0.0051, 0.0, 0.0, 0.0051, 4.8, -46.0)" gradientUnits="userSpaceOnUse" id="gradient11" r="819.2" spreadMethod="pad">
      <stop offset="0.0" stop-color="#406487"/>
      <stop offset="1.0" stop-color="#253a4e"/>
    </radialGradient>
    <radialGradient cx="0" cy="0" gradientTransform="matrix(0.0041, 0.0, 0.0, 0.0041, 7.05, -47.4)" gradientUnits="userSpaceOnUse" id="gradient12" r="819.2" spreadMethod="pad">
      <stop offset="0.0" stop-color="#406487"/>
      <stop offset="1.0" stop-color="#1a2938"/>
    </radialGradient>
    <radialGradient cx="0" cy="0" gradientTransform="matrix(0.0018, 0.0, 0.0, 0.0018, 8.0, -46.55)" gradientUnits="userSpaceOnUse" id="gradient13" r="819.2" spreadMethod="pad">
      <stop offset="0.0" stop-color="#294056"/>
      <stop offset="1.0" stop-color="#294056"/>
    </radialGradient>
    <radialGradient cx="0" cy="0" gradientTransform="matrix(0.0108, 0.0, 0.0, 0.0108, 0.05, -40.4)" gradientUnits="userSpaceOnUse" id="gradient14" r="819.2" spreadMethod="pad">
      <stop offset="0.0" stop-color="#3f6284"/>
      <stop offset="1.0" stop-color="#2a4158"/>
    </radialGradient>
    <radialGradient cx="0" cy="0" gradientTransform="matrix(0.0019, 0.0, 0.0, 0.0019, 10.1, -46.35)" gradientUnits="userSpaceOnUse" id="gradient15" r="819.2" spreadMethod="pad">
      <stop offset="0.0" stop-color="#294056"/>
      <stop offset="1.0" stop-color="#294056"/>
    </radialGradient>
    <radialGradient cx="0" cy="0" gradientTransform="matrix(0.002, 0.0, 0.0, 0.002, 9.05, -45.4)" gradientUnits="userSpaceOnUse" id="gradient16" r="819.2" spreadMethod="pad">
      <stop offset="0.0" stop-color="#233649"/>
      <stop offset="1.0" stop-color="#1f3142"/>
    </radialGradient>
    <radialGradient cx="0" cy="0" gradientTransform="matrix(0.0437, 0.0, 0.0, 0.0437, 6.15, -37.7)" gradientUnits="userSpaceOnUse" id="gradient17" r="819.2" spreadMethod="pad">
      <stop offset="0.0" stop-color="#ffd000"/>
      <stop offset="1.0" stop-color="#f37f00"/>
    </radialGradient>
    <radialGradient cx="0" cy="0" gradientTransform="matrix(0.034, 0.0, 0.0, 0.034, 9.7, -45.15)" gradientUnits="userSpaceOnUse" id="gradient18" r="819.2" spreadMethod="pad">
      <stop offset="0.0" stop-color="#080c10"/>
      <stop offset="1.0" stop-color="#080c10"/>
    </radialGradient>
    <radialGradient cx="0" cy="0" gradientTransform="matrix(0.0114, 0.0, 0.0, 0.0114, 8.0, -35.35)" gradientUnits="userSpaceOnUse" id="gradient19" r="819.2" spreadMethod="pad">
      <stop offset="0.0" stop-color="#605a46"/>
      <stop offset="1.0" stop-color="#3b372b"/>
    </radialGradient>
    <radialGradient cx="0" cy="0" gradientTransform="matrix(0.0071, 0.0, 0.0, 0.0071, -2.3, -37.05)" gradientUnits="userSpaceOnUse" id="gradient20" r="819.2" spreadMethod="pad">
      <stop offset="0.0" stop-color="#5f5945"/>
      <stop offset="1.0" stop-color="#353227"/>
    </radialGradient>
    <radialGradient cx="0" cy="0" gradientTransform="matrix(0.0422, 0.0, 0.0, 0.0422, -8.55, -37.4)" gradientUnits="userSpaceOnUse" id="gradient21" r="819.2" spreadMethod="pad">
      <stop offset="0.0" stop-color="#ed7700"/>
      <stop offset="1.0" stop-color="#331a00"/>
    </radialGradient>
    <radialGradient cx="0" cy="0" gradientTransform="matrix(0.0219, 0.0, 0.0, 0.0219, 7.35, -40.35)" gradientUnits="userSpaceOnUse" id="gradient22" r="819.2" spreadMethod="pad">
      <stop offset="0.0" stop-color="#ffdc80"/>
      <stop offset="1.0" stop-color="#c58b51"/>
    </radialGradient>
    <radialGradient cx="0" cy="0" gradientTransform="matrix(0.0092, 0.0, 0.0, 0.0092, 11.55, -37.65)" gradientUnits="userSpaceOnUse" id="gradient23" r="819.2" spreadMethod="pad">
      <stop offset="0.0" stop-color="#665f4a"/>
      <stop offset="1.0" stop-color="#3e3a2d"/>
    </radialGradient>
    <radialGradient cx="0" cy="0" gradientTransform="matrix(0.0047, 0.0, 0.0, 0.0047, 0.45, -43.15)" gradientUnits="userSpaceOnUse" id="gradient24" r="819.2" spreadMethod="pad">
      <stop offset="0.0" stop-color="#b8824c"/>
      <stop offset="1.0" stop-color="#976a3e"/>
    </radialGradient>
    <radialGradient cx="0" cy="0" gradientTransform="matrix(0.0066, 0.0, 0.0, 0.0066, 16.7, -33.25)" gradientUnits="userSpaceOnUse" id="gradient25" r="819.2" spreadMethod="pad">
      <stop offset="0.0" stop-color="#ffce78"/>
      <stop offset="1.0" stop-color="#af7b47"/>
    </radialGradient>
    <radialGradient cx="0" cy="0" gradientTransform="matrix(0.0072, 0.0, 0.0, 0.0072, 14.5, -31.55)" gradientUnits="userSpaceOnUse" id="gradient26" r="819.2" spreadMethod="pad">
      <stop offset="0.0" stop-color="#ffc371"/>
      <stop offset="1.0" stop-color="#7c5733"/>
    </radialGradient>
    <radialGradient cx="0" cy="0" gradientTransform="matrix(0.0128, 0.0, 0.0, 0.0128, 35.15, -40.25)" gradientUnits="userSpaceOnUse" id="gradient27" r="819.2" spreadMethod="pad">
      <stop offset="0.0" stop-color="#f3e7bc"/>
      <stop offset="1.0" stop-color="#ccc29d"/>
    </radialGradient>
    <radialGradient cx="0" cy="0" gradientTransform="matrix(0.0786, 0.0, 0.0, 0.0786, -4.9, 3.95)" gradientUnits="userSpaceOnUse" id="gradient28" r="819.2" spreadMethod="pad">
      <stop offset="0.0" stop-color="#784423"/>
      <stop offset="1.0" stop-color="#5f361c"/>
    </radialGradient>
    <radialGradient cx="0" cy="0" gradientTransform="matrix(0.0028, 0.0, 0.0, 0.0028, 35.6, -39.05)" gradientUnits="userSpaceOnUse" id="gradient29" r="819.2" spreadMethod="pad">
      <stop offset="0.0" stop-color="#aea586"/>
      <stop offset="1.0" stop-color="#aea586"/>
    </radialGradient>
    <radialGradient cx="0" cy="0" gradientTransform="matrix(0.0069, 0.0, 0.0, 0.0069, -2.35, -26.85)" gradientUnits="userSpaceOnUse" id="gradient30" r="819.2" spreadMethod="pad">
      <stop offset="0.0" stop-color="#5a5441"/>
      <stop offset="1.0" stop-color="#2e2b21"/>
    </radialGradient>
    <radialGradient cx="0" cy="0" gradientTransform="matrix(0.0069, 0.0, 0.0, 0.0069, -2.95, -26.95)" gradientUnits="userSpaceOnUse" id="gradient31" r="819.2" spreadMethod="pad">
      <stop offset="0.0" stop-color="#a57544"/>
      <stop offset="1.0" stop-color="#261b10"/>
    </radialGradient>
    <radialGradient cx="0" cy="0" gradientTransform="matrix(0.0107, 0.0, 0.0, 0.0107, 1.0, -26.05)" gradientUnits="userSpaceOnUse" id="gradient32" r="819.2" spreadMethod="pad">
      <stop offset="0.0" stop-color="#6a634d"/>
      <stop offset="1.0" stop-color="#363327"/>
    </radialGradient>
    <radialGradient cx="0" cy="0" gradientTransform="matrix(0.0271, 0.0, 0.0, 0.0271, 3.1, -21.05)" gradientUnits="userSpaceOnUse" id="gradient33" r="819.2" spreadMethod="pad">
      <stop offset="0.0" stop-color="#ede1b7"/>
      <stop offset="1.0" stop-color="#938c72"/>
    </radialGradient>
    <radialGradient cx="0" cy="0" gradientTransform="matrix(0.0266, 0.0, 0.0, 0.0266, 2.6, -19.15)" gradientUnits="userSpaceOnUse" id="gradient34" r="819.2" spreadMethod="pad">
      <stop offset="0.0" stop-color="#5b5542"/>
      <stop offset="1.0" stop-color="#393529"/>
    </radialGradient>
    <radialGradient cx="0" cy="0" gradientTransform="matrix(0.0027, 0.0, 0.0, 0.0027, -4.25, -21.9)" gradientUnits="userSpaceOnUse" id="gradient35" r="819.2" spreadMethod="pad">
      <stop offset="0.0" stop-color="#2a4259"/>
      <stop offset="1.0" stop-color="#203243"/>
    </radialGradient>
    <radialGradient cx="0" cy="0" gradientTransform="matrix(0.0043, 0.0, 0.0, 0.0043, -4.6, -23.55)" gradientUnits="userSpaceOnUse" id="gradient36" r="819.2" spreadMethod="pad">
      <stop offset="0.0" stop-color="#263c50"/>
      <stop offset="1.0" stop-color="#213346"/>
    </radialGradient>
    <radialGradient cx="0" cy="0" gradientTransform="matrix(0.0088, 0.0, 0.0, 0.0088, 18.5, -28.4)" gradientUnits="userSpaceOnUse" id="gradient37" r="819.2" spreadMethod="pad">
      <stop offset="0.0" stop-color="#5a5542"/>
      <stop offset="1.0" stop-color="#27241c"/>
    </radialGradient>
    <radialGradient cx="0" cy="0" gradientTransform="matrix(0.0042, 0.0, 0.0, 0.0042, 18.85, -21.9)" gradientUnits="userSpaceOnUse" id="gradient38" r="819.2" spreadMethod="pad">
      <stop offset="0.0" stop-color="#ffeb89"/>
      <stop offset="1.0" stop-color="#986b3e"/>
    </radialGradient>
    <radialGradient cx="0" cy="0" gradientTransform="matrix(0.0033, 0.0, 0.0, 0.0033, 17.45, -22.35)" gradientUnits="userSpaceOnUse" id="gradient39" r="819.2" spreadMethod="pad">
      <stop offset="0.0" stop-color="#ffeb89"/>
      <stop offset="1.0" stop-color="#c68b51"/>
    </radialGradient>
    <radialGradient cx="0" cy="0" gradientTransform="matrix(0.0044, 0.0, 0.0, 0.0044, -4.2, -21.2)" gradientUnits="userSpaceOnUse" id="gradient40" r="819.2" spreadMethod="pad">
      <stop offset="0.0" stop-color="#273d52"/>
      <stop offset="1.0" stop-color="#203243"/>
    </radialGradient>
    <radialGradient cx="0" cy="0" gradientTransform="matrix(0.0039, 0.0, 0.0, 0.0039, -12.55, -22.3)" gradientUnits="userSpaceOnUse" id="gradient41" r="819.2" spreadMethod="pad">
      <stop offset="0.0" stop-color="#ffeb89"/>
      <stop offset="1.0" stop-color="#aa7745"/>
    </radialGradient>
    <radialGradient cx="0" cy="0" gradientTransform="matrix(0.0118, 0.0, 0.0, 0.0118, 3.95, -24.45)" gradientUnits="userSpaceOnUse" id="gradient42" r="819.2" spreadMethod="pad">
      <stop offset="0.0" stop-color="#6a634d"/>
      <stop offset="1.0" stop-color="#302c23"/>
    </radialGradient>
    <radialGradient cx="0" cy="0" gradientTransform="matrix(0.0088, 0.0, 0.0, 0.0088, 3.6, -16.6)" gradientUnits="userSpaceOnUse" id="gradient43" r="819.2" spreadMethod="pad">
      <stop offset="0.0" stop-color="#3c5e7e"/>
      <stop offset="1.0" stop-color="#253a4e"/>
    </radialGradient>
    <radialGradient cx="0" cy="0" gradientTransform="matrix(0.0068, 0.0, 0.0, 0.0068, 3.1, -18.15)" gradientUnits="userSpaceOnUse" id="gradient44" r="819.2" spreadMethod="pad">
      <stop offset="0.0" stop-color="#385877"/>
      <stop offset="1.0" stop-color="#2e4861"/>
    </radialGradient>
    <radialGradient cx="0" cy="0" gradientTransform="matrix(0.0041, 0.0, 0.0, 0.0041, 2.3, -16.9)" gradientUnits="userSpaceOnUse" id="gradient45" r="819.2" spreadMethod="pad">
      <stop offset="0.0" stop-color="#406386"/>
      <stop offset="1.0" stop-color="#2b435a"/>
    </radialGradient>
    <radialGradient cx="0" cy="0" gradientTransform="matrix(0.0058, 0.0, 0.0, 0.0058, -4.1, -18.9)" gradientUnits="userSpaceOnUse" id="gradient46" r="819.2" spreadMethod="pad">
      <stop offset="0.0" stop-color="#2a4258"/>
      <stop offset="1.0" stop-color="#1e3040"/>
    </radialGradient>
    <radialGradient cx="0" cy="0" gradientTransform="matrix(0.0027, 0.0, 0.0, 0.0027, -3.35, -14.9)" gradientUnits="userSpaceOnUse" id="gradient47" r="819.2" spreadMethod="pad">
      <stop offset="0.0" stop-color="#283e53"/>
      <stop offset="1.0" stop-color="#1d2e3e"/>
    </radialGradient>
    <radialGradient cx="0" cy="0" gradientTransform="matrix(0.0173, 0.0, 0.0, 0.0173, -3.3, -14.95)" gradientUnits="userSpaceOnUse" id="gradient48" r="819.2" spreadMethod="pad">
      <stop offset="0.0" stop-color="#928a70"/>
      <stop offset="1.0" stop-color="#1f1e18"/>
    </radialGradient>
    <radialGradient cx="0" cy="0" gradientTransform="matrix(0.0164, 0.0, 0.0, 0.0164, -3.0, -12.65)" gradientUnits="userSpaceOnUse" id="gradient49" r="819.2" spreadMethod="pad">
      <stop offset="0.0" stop-color="#0c0c09"/>
      <stop offset="1.0" stop-color="#0c0c09"/>
    </radialGradient>
    <radialGradient cx="0" cy="0" gradientTransform="matrix(0.0076, 0.0, 0.0, 0.0076, 2.65, -11.55)" gradientUnits="userSpaceOnUse" id="gradient50" r="819.2" spreadMethod="pad">
      <stop offset="0.0" stop-color="#3e6082"/>
      <stop offset="1.0" stop-color="#253a4e"/>
    </radialGradient>
    <radialGradient cx="0" cy="0" gradientTransform="matrix(0.0087, 0.0, 0.0, 0.0087, 0.4, -8.5)" gradientUnits="userSpaceOnUse" id="gradient51" r="819.2" spreadMethod="pad">
      <stop offset="0.0" stop-color="#3a5a79"/>
      <stop offset="1.0" stop-color="#213446"/>
    </radialGradient>
    <radialGradient cx="0" cy="0" gradientTransform="matrix(0.0043, 0.0, 0.0, 0.0043, -3.15, -0.75)" gradientUnits="userSpaceOnUse" id="gradient52" r="819.2" spreadMethod="pad">
      <stop offset="0.0" stop-color="#203243"/>
      <stop offset="1.0" stop-color="#080c10"/>
    </radialGradient>
    <radialGradient cx="0" cy="0" gradientTransform="matrix(0.0073, 0.0, 0.0, 0.0073, 2.75, -1.25)" gradientUnits="userSpaceOnUse" id="gradient53" r="819.2" spreadMethod="pad">
      <stop offset="0.0" stop-color="#406587"/>
      <stop offset="1.0" stop-color="#223547"/>
    </radialGradient>
    <radialGradient cx="0" cy="0" gradientTransform="matrix(0.0021, 0.0, 0.0, 0.0021, -2.4, -4.45)" gradientUnits="userSpaceOnUse" id="gradient54" r="819.2" spreadMethod="pad">
      <stop offset="0.0" stop-color="#343126"/>
      <stop offset="1.0" stop-color="#1f1d17"/>
    </radialGradient>
    <radialGradient cx="0" cy="0" gradientTransform="matrix(0.0067, 0.0, 0.0, 0.0067, 0.65, -3.3)" gradientUnits="userSpaceOnUse" id="gradient55" r="819.2" spreadMethod="pad">
      <stop offset="0.0" stop-color="#5f5945"/>
      <stop offset="1.0" stop-color="#383529"/>
    </radialGradient>
    <radialGradient cx="0" cy="0" gradientTransform="matrix(0.0099, 0.0, 0.0, 0.0099, 10.0, -10.05)" gradientUnits="userSpaceOnUse" id="gradient56" r="819.2" spreadMethod="pad">
      <stop offset="0.0" stop-color="#736b53"/>
      <stop offset="1.0" stop-color="#464133"/>
    </radialGradient>
    <radialGradient cx="0" cy="0" gradientTransform="matrix(0.0022, 0.0, 0.0, 0.0022, 8.85, -9.45)" gradientUnits="userSpaceOnUse" id="gradient57" r="819.2" spreadMethod="pad">
      <stop offset="0.0" stop-color="#3a362a"/>
      <stop offset="1.0" stop-color="#1e1c16"/>
    </radialGradient>
    <radialGradient cx="0" cy="0" gradientTransform="matrix(0.0033, 0.0, 0.0, 0.0033, 9.35, -10.15)" gradientUnits="userSpaceOnUse" id="gradient58" r="819.2" spreadMethod="pad">
      <stop offset="0.0" stop-color="#283f55"/>
      <stop offset="1.0" stop-color="#16232e"/>
    </radialGradient>
    <radialGradient cx="0" cy="0" gradientTransform="matrix(0.0091, 0.0, 0.0, 0.0091, 0.9, -2.15)" gradientUnits="userSpaceOnUse" id="gradient59" r="819.2" spreadMethod="pad">
      <stop offset="0.0" stop-color="#fff7c8"/>
      <stop offset="1.0" stop-color="#d5cba5"/>
    </radialGradient>
    <radialGradient cx="0" cy="0" gradientTransform="matrix(0.0263, 0.0, 0.0, 0.0263, -9.35, 13.9)" gradientUnits="userSpaceOnUse" id="gradient60" r="819.2" spreadMethod="pad">
      <stop offset="0.0" stop-color="#7a4524"/>
      <stop offset="1.0" stop-color="#432613"/>
    </radialGradient>
    <radialGradient cx="0" cy="0" gradientTransform="matrix(0.0028, 0.0, 0.0, 0.0028, 0.15, -2.65)" gradientUnits="userSpaceOnUse" id="gradient61" r="819.2" spreadMethod="pad">
      <stop offset="0.0" stop-color="#7f7861"/>
      <stop offset="1.0" stop-color="#7e7761"/>
    </radialGradient>
    <radialGradient cx="0" cy="0" gradientTransform="matrix(0.0067, 0.0, 0.0, 0.0067, 1.5, 3.3)" gradientUnits="userSpaceOnUse" id="gradient62" r="819.2" spreadMethod="pad">
      <stop offset="0.0" stop-color="#355370"/>
      <stop offset="1.0" stop-color="#223547"/>
    </radialGradient>
    <radialGradient cx="0" cy="0" gradientTransform="matrix(0.0063, 0.0, 0.0, 0.0063, -1.45, 4.65)" gradientUnits="userSpaceOnUse" id="gradient63" r="819.2" spreadMethod="pad">
      <stop offset="0.0" stop-color="#324e69"/>
      <stop offset="1.0" stop-color="#203143"/>
    </radialGradient>
    <radialGradient cx="0" cy="0" gradientTransform="matrix(0.0055, 0.0, 0.0, 0.0055, -1.2, 6.0)" gradientUnits="userSpaceOnUse" id="gradient64" r="819.2" spreadMethod="pad">
      <stop offset="0.0" stop-color="#423e30"/>
      <stop offset="1.0" stop-color="#302d22"/>
    </radialGradient>
    <radialGradient cx="0" cy="0" gradientTransform="matrix(0.008, 0.0, 0.0, 0.008, -2.8, 11.35)" gradientUnits="userSpaceOnUse" id="gradient65" r="819.2" spreadMethod="pad">
      <stop offset="0.0" stop-color="#736b53"/>
      <stop offset="1.0" stop-color="#66604a"/>
    </radialGradient>
    <radialGradient cx="0" cy="0" gradientTransform="matrix(0.0019, 0.0, 0.0, 0.0019, -4.5, 4.65)" gradientUnits="userSpaceOnUse" id="gradient66" r="819.2" spreadMethod="pad">
      <stop offset="0.0" stop-color="#382010"/>
      <stop offset="1.0" stop-color="#382010"/>
    </radialGradient>
    <radialGradient cx="0" cy="0" gradientTransform="matrix(0.0029, 0.0, 0.0, 0.0029, -8.6, 14.35)" gradientUnits="userSpaceOnUse" id="gradient67" r="819.2" spreadMethod="pad">
      <stop offset="0.0" stop-color="#3d392c"/>
      <stop offset="1.0" stop-color="#393529"/>
    </radialGradient>
  </defs>
</svg>
