<?xml version="1.0" encoding="UTF-8" standalone="no"?>
<svg xmlns:ffdec="https://www.free-decompiler.com/flash" xmlns:xlink="http://www.w3.org/1999/xlink" ffdec:objectType="shape" height="64.7px" width="70.4px" xmlns="http://www.w3.org/2000/svg">
  <g transform="matrix(1.0, 0.0, 0.0, 1.0, 30.85, 55.85)">
    <path d="M-6.15 -52.05 L-5.95 -52.45 Q-4.4 -55.15 -1.45 -55.85 L1.4 -55.35 4.25 -52.3 4.3 -51.7 4.4 -50.75 Q4.65 -46.8 -2.2 -48.0 -6.8 -49.4 -6.15 -52.05" fill="url(#gradient0)" fill-rule="evenodd" stroke="none"/>
    <path d="M-6.05 -52.3 L-5.95 -52.45 -6.15 -52.05 -6.05 -52.3" fill="url(#gradient1)" fill-rule="evenodd" stroke="none"/>
    <path d="M-6.05 -52.3 L-6.15 -52.05 Q-6.8 -49.4 -2.2 -48.0 4.65 -46.8 4.4 -50.75 L4.7 -49.85 4.65 -49.4 Q3.7 -47.15 -1.05 -47.55 -5.85 -48.35 -6.65 -51.1 L-6.65 -51.5 -6.05 -52.3" fill="url(#gradient2)" fill-rule="evenodd" stroke="none"/>
    <path d="M-6.8 -50.05 L-6.65 -51.1 Q-5.85 -48.35 -1.05 -47.55 3.7 -47.15 4.65 -49.4 L4.25 -47.05 Q4.75 -45.45 1.2 -44.45 L-0.85 -44.35 Q-2.85 -44.4 -5.0 -45.5 L-6.05 -46.15 -6.5 -46.75 -6.75 -47.05 -7.1 -48.35 -6.8 -50.05" fill="url(#gradient3)" fill-rule="evenodd" stroke="none"/>
    <path d="M-9.4 -43.95 Q-10.2 -48.5 -6.8 -50.05 L-7.1 -48.35 -6.75 -47.05 -8.85 -45.05 -9.4 -43.95" fill="url(#gradient4)" fill-rule="evenodd" stroke="none"/>
    <path d="M-9.6 -43.2 L-9.6 -43.25 -9.55 -43.3 -9.4 -43.95 -8.85 -45.05 -6.75 -47.05 -6.5 -46.75 -6.95 -44.95 -6.9 -43.65 -6.95 -43.3 Q-8.7 -39.35 -7.95 -36.1 L-7.45 -33.3 -7.5 -33.3 -7.5 -33.45 -7.6 -33.5 -7.65 -34.1 -8.55 -36.25 Q-9.35 -38.0 -9.65 -40.05 L-9.6 -43.2" fill="url(#gradient5)" fill-rule="evenodd" stroke="none"/>
    <path d="M4.3 -51.7 L5.6 -50.85 6.55 -49.8 6.6 -48.45 5.2 -47.65 5.2 -46.75 4.25 -47.05 4.65 -49.4 4.7 -49.85 4.4 -50.75 4.3 -51.7" fill="url(#gradient6)" fill-rule="evenodd" stroke="none"/>
    <path d="M5.6 -50.85 Q6.1 -51.1 8.4 -48.85 L9.0 -47.25 8.1 -47.65 7.9 -47.5 7.45 -46.5 8.3 -46.1 7.9 -46.05 5.7 -46.7 5.55 -46.95 6.6 -47.65 6.6 -48.45 6.55 -49.8 5.6 -50.85" fill="url(#gradient7)" fill-rule="evenodd" stroke="none"/>
    <path d="M9.0 -47.25 L8.85 -46.8 8.75 -46.55 8.4 -46.1 8.3 -46.1 7.45 -46.5 7.9 -47.5 8.1 -47.65 9.0 -47.25" fill="url(#gradient8)" fill-rule="evenodd" stroke="none"/>
    <path d="M9.7 -45.15 L10.35 -42.1 9.75 -43.05 8.85 -44.85 7.9 -46.05 8.3 -46.1 8.4 -46.1 9.45 -45.3 9.7 -45.15" fill="url(#gradient9)" fill-rule="evenodd" stroke="none"/>
    <path d="M8.95 -46.45 L9.35 -46.05 9.7 -45.15 9.45 -45.3 8.4 -46.1 8.75 -46.55 8.95 -46.45" fill="url(#gradient10)" fill-rule="evenodd" stroke="none"/>
    <path d="M8.85 -46.8 L8.95 -46.45 8.75 -46.55 8.85 -46.8" fill="url(#gradient11)" fill-rule="evenodd" stroke="none"/>
    <path d="M6.6 -48.45 L6.6 -47.65 5.55 -46.95 5.2 -46.75 5.2 -47.65 6.6 -48.45" fill="url(#gradient12)" fill-rule="evenodd" stroke="none"/>
    <path d="M-6.5 -46.75 L-6.05 -46.15 -5.0 -45.5 Q-4.95 -44.95 -4.05 -44.25 L-2.65 -43.65 -2.05 -43.45 -0.35 -43.65 0.9 -44.15 1.2 -44.45 Q4.75 -45.45 4.25 -47.05 L5.2 -46.75 5.55 -46.95 5.7 -46.7 6.15 -45.85 Q6.5 -44.05 6.0 -43.65 5.05 -39.55 -0.1 -38.4 L-0.25 -37.95 -1.55 -37.75 -3.15 -37.8 -4.9 -38.05 Q-7.35 -41.65 -6.95 -43.3 L-6.9 -43.65 -6.95 -44.95 -6.5 -46.75" fill="url(#gradient13)" fill-rule="evenodd" stroke="none"/>
    <path d="M-5.0 -45.5 Q-2.85 -44.4 -0.85 -44.35 L1.2 -44.45 0.9 -44.15 -0.35 -43.65 -2.05 -43.45 -2.65 -43.65 -4.05 -44.25 Q-4.95 -44.95 -5.0 -45.5" fill="url(#gradient14)" fill-rule="evenodd" stroke="none"/>
    <path d="M-7.95 -36.1 Q-8.7 -39.35 -6.95 -43.3 -7.35 -41.65 -4.9 -38.05 L-3.15 -37.8 -3.45 -36.5 -3.35 -34.4 -3.95 -34.1 -5.2 -34.0 -6.7 -34.65 -7.95 -36.1" fill="url(#gradient15)" fill-rule="evenodd" stroke="none"/>
    <path d="M10.0 -11.95 Q10.25 -10.3 9.6 -9.25 L8.2 -9.25 8.8 -11.65 8.75 -12.4 10.0 -11.95 M7.75 -31.4 L8.3 -30.95 8.1 -30.65 7.55 -30.55 7.1 -30.7 7.75 -31.4 M7.75 -21.9 Q8.1 -21.85 8.5 -20.1 L8.8 -17.6 8.2 -17.35 8.1 -20.2 7.75 -21.9 M-7.45 -33.3 L-7.95 -36.1 -6.7 -34.65 -5.2 -34.0 -4.65 -32.05 -5.45 -31.4 -5.75 -31.75 -6.3 -30.4 -6.65 -29.75 -6.75 -29.7 -6.75 -29.75 -6.95 -32.1 -7.2 -32.6 -7.45 -33.3" fill="url(#gradient16)" fill-rule="evenodd" stroke="none"/>
    <path d="M-7.5 -33.3 L-7.45 -33.3 -7.2 -32.6 -7.5 -33.3" fill="url(#gradient17)" fill-rule="evenodd" stroke="none"/>
    <path d="M-8.1 -17.95 L-8.45 -13.2 -9.35 -10.65 -9.55 -15.2 Q-9.05 -20.2 -9.05 -25.95 -9.2 -26.55 -8.2 -29.15 L-8.2 -30.0 -7.6 -33.45 -7.5 -33.45 -7.5 -33.3 -7.2 -32.6 -6.95 -32.1 -6.75 -29.75 -6.75 -29.7 -6.75 -29.45 -7.0 -25.15 -7.2 -24.45 -7.5 -23.3 -7.85 -21.65 -8.1 -17.95" fill="url(#gradient18)" fill-rule="evenodd" stroke="none"/>
    <path d="M-7.6 -33.5 L-7.5 -33.45 -7.6 -33.45 -7.6 -33.5" fill="url(#gradient19)" fill-rule="evenodd" stroke="none"/>
    <path d="M-9.5 -31.15 Q-9.15 -30.75 -9.85 -35.55 L-9.3 -36.85 -8.55 -36.25 -7.65 -34.1 -7.6 -33.5 -7.6 -33.45 -8.2 -30.0 -9.05 -29.75 -9.55 -30.2 -9.5 -31.15" fill="url(#gradient20)" fill-rule="evenodd" stroke="none"/>
    <path d="M-9.3 -36.85 Q-11.3 -40.55 -9.6 -43.2 L-9.65 -40.05 Q-9.35 -38.0 -8.55 -36.25 L-9.3 -36.85" fill="url(#gradient21)" fill-rule="evenodd" stroke="none"/>
    <path d="M5.7 -46.7 L7.9 -46.05 8.85 -44.85 9.75 -43.05 10.15 -42.1 10.0 -42.1 Q7.75 -43.05 5.95 -38.5 4.6 -35.15 6.15 -31.8 L5.55 -31.3 5.9 -30.95 6.35 -31.4 6.55 -31.25 7.1 -30.7 7.55 -30.55 8.1 -30.65 8.3 -30.95 8.4 -30.95 8.05 -29.75 Q7.55 -26.2 9.05 -23.95 L9.05 -23.9 Q8.8 -22.75 9.4 -21.1 L9.4 -17.75 8.8 -17.6 8.5 -20.1 Q8.1 -21.85 7.75 -21.9 L7.35 -22.5 5.95 -20.2 4.45 -15.9 4.0 -14.05 -0.05 -12.5 -0.3 -14.7 -0.5 -15.85 -0.5 -15.9 -0.8 -19.0 -0.85 -22.0 -0.85 -23.2 -0.7 -24.9 -0.65 -25.9 -0.55 -27.8 -1.05 -29.75 Q-1.0 -30.4 -1.25 -30.95 L-1.2 -32.75 Q-0.4 -35.6 -0.25 -37.95 L-0.1 -38.4 Q5.05 -39.55 6.0 -43.65 6.5 -44.05 6.15 -45.85 L5.7 -46.7 M3.15 -11.0 L2.75 -9.1 2.05 -6.8 1.6 -5.4 0.5 -3.0 0.4 -2.95 0.3 -3.35 0.45 -6.4 0.4 -7.85 0.2 -9.8 3.15 -11.0" fill="url(#gradient22)" fill-rule="evenodd" stroke="none"/>
    <path d="M6.1 -38.4 L6.6 -33.65 7.1 -32.05 6.55 -31.25 6.35 -31.4 5.9 -30.95 5.55 -31.3 6.15 -31.8 Q4.6 -35.15 5.95 -38.5 L6.1 -38.4 M-0.25 -37.95 Q-0.4 -35.6 -1.2 -32.75 L-1.25 -30.95 -2.6 -32.5 -3.35 -34.4 -3.45 -36.5 -3.15 -37.8 -1.55 -37.75 -0.25 -37.95" fill="url(#gradient23)" fill-rule="evenodd" stroke="none"/>
    <path d="M10.35 -42.1 L10.6 -41.35 10.45 -41.4 10.35 -41.7 10.15 -42.1 9.75 -43.05 10.35 -42.1" fill="url(#gradient24)" fill-rule="evenodd" stroke="none"/>
    <path d="M10.0 -42.1 L10.15 -42.1 10.35 -41.7 10.0 -42.1" fill="url(#gradient25)" fill-rule="evenodd" stroke="none"/>
    <path d="M10.45 -41.4 Q7.85 -42.7 6.1 -38.4 L5.95 -38.5 Q7.75 -43.05 10.0 -42.1 L10.35 -41.7 10.45 -41.4 M7.1 -32.05 L7.75 -31.4 7.1 -30.7 6.55 -31.25 7.1 -32.05 M-1.25 -30.95 Q-1.0 -30.4 -1.05 -29.75 L-0.55 -27.8 -0.65 -25.9 Q-1.55 -26.25 -2.0 -27.0 L-1.9 -28.55 Q-3.0 -28.3 -3.15 -27.85 L-4.15 -28.25 -4.5 -29.75 -4.55 -30.65 -4.6 -30.85 -4.65 -31.8 -4.55 -31.85 -4.55 -32.05 -4.65 -32.0 -4.65 -32.05 -5.2 -34.0 -3.95 -34.1 -3.35 -34.4 -2.6 -32.5 -1.25 -30.95" fill="url(#gradient26)" fill-rule="evenodd" stroke="none"/>
    <path d="M10.6 -41.35 Q15.15 -39.3 14.4 -33.55 14.4 -32.9 13.4 -31.6 L12.2 -30.85 9.2 -30.65 8.4 -30.95 8.3 -30.95 7.75 -31.4 7.1 -32.05 6.6 -33.65 6.1 -38.4 Q7.85 -42.7 10.45 -41.4 L10.6 -41.35" fill="url(#gradient27)" fill-rule="evenodd" stroke="none"/>
    <path d="M-9.15 -25.95 Q-13.05 -27.55 -9.5 -31.15 L-9.55 -30.2 -9.05 -29.75 Q-9.55 -29.25 -9.55 -26.8 L-9.15 -25.95 M-6.75 -29.7 L-6.65 -29.75 -6.3 -30.4 -6.25 -30.35 -6.75 -29.45 -6.75 -29.7" fill="url(#gradient28)" fill-rule="evenodd" stroke="none"/>
    <path d="M-9.05 -25.95 L-9.15 -25.95 -9.55 -26.8 Q-9.55 -29.25 -9.05 -29.75 L-8.2 -30.0 -8.2 -29.15 Q-9.2 -26.55 -9.05 -25.95" fill="url(#gradient29)" fill-rule="evenodd" stroke="none"/>
    <path d="M-5.45 -31.4 L-4.65 -32.05 -4.65 -32.0 -4.65 -31.8 -4.6 -30.85 -4.55 -30.65 -4.5 -29.75 -4.15 -28.25 -5.1 -26.6 -5.25 -25.25 -6.25 -25.2 -6.25 -24.9 -6.8 -24.7 -6.8 -24.2 -7.2 -24.45 -7.0 -25.15 -6.75 -29.45 -6.25 -30.35 -5.45 -31.4" fill="url(#gradient30)" fill-rule="evenodd" stroke="none"/>
    <path d="M14.4 -33.55 Q16.6 -29.25 14.25 -26.05 L13.4 -25.1 Q12.95 -24.4 12.45 -26.2 L12.1 -29.75 12.2 -30.85 13.4 -31.6 Q14.4 -32.9 14.4 -33.55" fill="url(#gradient31)" fill-rule="evenodd" stroke="none"/>
    <path d="M8.4 -30.95 L9.2 -30.65 12.2 -30.85 12.1 -29.75 12.45 -26.2 Q12.95 -24.4 13.4 -25.1 L13.2 -24.65 Q11.8 -21.75 9.15 -23.9 L9.05 -23.95 Q7.55 -26.2 8.05 -29.75 L8.4 -30.95" fill="url(#gradient32)" fill-rule="evenodd" stroke="none"/>
    <path d="M14.25 -26.05 L14.1 -25.35 13.75 -25.1 13.4 -25.1 14.25 -26.05" fill="url(#gradient33)" fill-rule="evenodd" stroke="none"/>
    <path d="M14.1 -25.35 L14.35 -24.5 13.2 -24.65 13.4 -25.1 13.75 -25.1 14.1 -25.35 M14.4 -24.4 L14.7 -23.95 14.65 -23.7 14.4 -24.4 M14.65 -21.85 L14.5 -20.35 14.35 -20.1 14.5 -21.35 14.65 -21.85" fill="url(#gradient34)" fill-rule="evenodd" stroke="none"/>
    <path d="M-4.65 -31.8 L-4.65 -32.0 -4.55 -32.05 -4.55 -31.85 -4.65 -31.8" fill="url(#gradient35)" fill-rule="evenodd" stroke="none"/>
    <path d="M-0.65 -25.9 L-0.7 -24.9 -0.85 -23.2 -0.85 -22.0 Q-5.3 -16.3 -5.25 -25.25 L-5.1 -26.6 -4.15 -28.25 -3.15 -27.85 Q-3.0 -28.3 -1.9 -28.55 L-2.0 -27.0 Q-1.55 -26.25 -0.65 -25.9" fill="url(#gradient36)" fill-rule="evenodd" stroke="none"/>
    <path d="M-0.85 -22.0 L-0.8 -19.0 -1.2 -18.1 -1.8 -14.55 -1.9 -11.7 -5.85 -10.2 -6.4 -20.5 Q-5.95 -23.05 -6.25 -24.9 L-6.25 -25.2 -5.25 -25.25 Q-5.3 -16.3 -0.85 -22.0 M-2.05 -0.45 L-3.65 -2.05 -5.45 -3.1 -5.55 -3.35 -5.7 -7.35 -5.5 -7.55 -1.9 -8.95 -1.7 -2.05 -1.75 -0.15 -2.05 -0.45" fill="url(#gradient37)" fill-rule="evenodd" stroke="none"/>
    <path d="M-3.8 -1.8 L-5.95 -3.25 -6.15 -7.15 -5.7 -7.35 -5.55 -3.35 -5.45 -3.1 -3.65 -2.05 -2.05 -0.45 -2.35 -0.65 -3.65 -1.7 -3.8 -1.8 M-6.4 -12.25 L-6.45 -13.25 -6.5 -16.15 -6.75 -19.65 -6.8 -22.25 -6.8 -23.55 -6.8 -24.2 -6.8 -24.7 -6.25 -24.9 Q-5.95 -23.05 -6.4 -20.5 L-5.85 -10.2 -6.25 -10.0 -6.4 -12.25 M-0.8 -19.0 L-0.5 -15.9 -0.5 -15.85 -0.65 -14.9 -0.8 -12.15 -1.9 -11.7 -1.8 -14.55 -1.2 -18.1 -0.8 -19.0 M-0.8 -9.4 L-0.8 -9.25 -0.8 -6.15 -0.8 -4.7 -0.8 -2.55 -0.75 -2.05 -0.75 -1.35 -0.75 0.95 -1.75 -0.15 -1.7 -2.05 -1.9 -8.95 -0.8 -9.4" fill="url(#gradient38)" fill-rule="evenodd" stroke="none"/>
    <path d="M-7.2 -24.45 L-6.8 -24.2 -6.8 -23.55 -7.2 -22.6 -7.5 -23.3 -7.2 -24.45" fill="url(#gradient39)" fill-rule="evenodd" stroke="none"/>
    <path d="M9.05 -23.9 L9.05 -23.95 9.15 -23.9 9.05 -23.9" fill="url(#gradient40)" fill-rule="evenodd" stroke="none"/>
    <path d="M14.35 -24.5 L14.4 -24.4 14.65 -23.7 14.65 -21.85 14.5 -21.35 14.35 -20.1 13.55 -18.75 13.0 -18.25 12.65 -17.5 12.65 -17.4 12.5 -17.0 12.1 -16.2 9.5 -16.3 9.4 -17.75 9.4 -21.1 Q8.8 -22.75 9.05 -23.9 L9.15 -23.9 Q11.8 -21.75 13.2 -24.65 L14.35 -24.5" fill="url(#gradient41)" fill-rule="evenodd" stroke="none"/>
    <path d="M8.8 -17.6 L9.4 -17.75 9.5 -16.3 8.95 -15.9 8.45 -15.4 7.9 -15.5 7.1 -15.25 7.25 -15.9 7.6 -16.7 8.2 -17.35 8.8 -17.6" fill="url(#gradient42)" fill-rule="evenodd" stroke="none"/>
    <path d="M-0.5 -15.85 L-0.3 -14.7 -0.65 -14.9 -0.5 -15.85 M4.0 -14.05 L4.45 -15.9 5.95 -20.2 7.35 -22.5 7.75 -21.9 8.1 -20.2 8.2 -17.35 7.6 -16.7 7.25 -15.9 7.1 -15.25 4.0 -14.05" fill="url(#gradient43)" fill-rule="evenodd" stroke="none"/>
    <path d="M12.65 -17.4 L29.55 -24.0 29.6 -24.05 29.65 -24.05 30.1 -24.15 30.15 -24.15 30.3 -24.05 Q31.75 -22.95 30.65 -22.05 L13.4 -15.15 13.2 -15.9 12.5 -17.0 12.65 -17.4 M-12.65 -4.7 L-19.75 -2.8 -19.5 -3.15 -19.55 -3.7 -20.2 -4.35 -13.45 -7.2 -12.8 -7.3 Q-11.4 -6.15 -12.0 -5.0 L-12.65 -4.7 M-0.05 -12.5 L4.0 -14.05 7.1 -15.25 7.9 -15.5 8.45 -15.4 Q9.7 -13.3 8.2 -13.0 L3.15 -11.0 0.2 -9.8 -0.8 -9.4 -1.9 -8.95 -5.5 -7.55 Q-4.9 -9.1 -6.45 -9.95 L-6.25 -10.0 -5.85 -10.2 -1.9 -11.7 -0.8 -12.15 -0.05 -12.5" fill="url(#gradient44)" fill-rule="evenodd" stroke="none"/>
    <path d="M13.4 -15.15 Q14.05 -12.65 10.0 -11.95 L8.75 -12.4 8.2 -12.9 8.2 -13.0 Q9.7 -13.3 8.45 -15.4 L8.95 -15.9 9.5 -16.3 12.1 -16.2 12.5 -17.0 13.2 -15.9 13.4 -15.15" fill="url(#gradient45)" fill-rule="evenodd" stroke="none"/>
    <path d="M29.95 -24.2 L38.25 -27.5 Q39.05 -27.7 39.55 -26.55 L39.45 -25.7 39.1 -25.4 30.65 -22.05 Q31.75 -22.95 30.3 -24.05 L30.15 -24.15 30.1 -24.15 29.95 -24.2" fill="url(#gradient46)" fill-rule="evenodd" stroke="none"/>
    <path d="M29.65 -24.05 L29.95 -24.2 30.1 -24.15 29.65 -24.05" fill="url(#gradient47)" fill-rule="evenodd" stroke="none"/>
    <path d="M-0.3 -14.7 L-0.05 -12.5 -0.8 -12.15 -0.65 -14.9 -0.3 -14.7 M8.2 -13.0 L8.2 -12.9 Q7.1 -7.75 2.75 -9.1 L3.15 -11.0 8.2 -13.0" fill="url(#gradient48)" fill-rule="evenodd" stroke="none"/>
    <path d="M-6.8 -23.55 L-6.8 -22.25 -7.1 -22.3 -7.2 -22.6 -6.8 -23.55" fill="url(#gradient49)" fill-rule="evenodd" stroke="none"/>
    <path d="M-6.8 -22.25 L-6.75 -19.65 -7.0 -20.1 -7.35 -20.2 -7.85 -21.65 -7.5 -23.3 -7.2 -22.6 -7.1 -22.3 -6.8 -22.25" fill="url(#gradient50)" fill-rule="evenodd" stroke="none"/>
    <path d="M-7.85 -17.25 L-8.1 -17.95 -7.85 -21.65 -7.35 -20.2 -7.0 -20.1 -6.75 -19.65 -6.5 -16.15 -7.4 -16.6 -7.85 -17.25" fill="url(#gradient51)" fill-rule="evenodd" stroke="none"/>
    <path d="M13.55 -18.75 L12.65 -17.5 13.0 -18.25 13.55 -18.75" fill="url(#gradient52)" fill-rule="evenodd" stroke="none"/>
    <path d="M-6.45 -13.25 Q-8.15 -15.55 -7.85 -17.25 L-7.4 -16.6 -6.5 -16.15 -6.45 -13.25" fill="url(#gradient53)" fill-rule="evenodd" stroke="none"/>
    <path d="M8.2 -9.25 L8.0 -9.0 Q6.4 -5.8 2.05 -6.8 L2.75 -9.1 Q7.1 -7.75 8.2 -12.9 L8.75 -12.4 8.8 -11.65 8.2 -9.25 M-0.35 -8.65 L-0.8 -9.25 -0.8 -9.4 0.2 -9.8 0.4 -7.85 -0.35 -8.65" fill="url(#gradient54)" fill-rule="evenodd" stroke="none"/>
    <path d="M-6.15 -7.15 L-9.8 -5.7 -12.1 -4.85 -12.0 -5.0 Q-11.4 -6.15 -12.8 -7.3 L-13.1 -7.4 -6.45 -9.95 Q-4.9 -9.1 -5.5 -7.55 L-5.7 -7.35 -6.15 -7.15" fill="url(#gradient55)" fill-rule="evenodd" stroke="none"/>
    <path d="M-6.45 -9.95 L-6.4 -12.25 -6.25 -10.0 -6.45 -9.95 M-0.8 -9.25 L-0.35 -8.65 -0.1 -7.4 -0.3 -6.25 -0.8 -6.15 -0.8 -9.25" fill="url(#gradient56)" fill-rule="evenodd" stroke="none"/>
    <path d="M8.0 -9.0 L8.05 -8.85 Q8.2 -5.6 3.95 -4.85 L3.55 -4.85 2.3 -5.0 1.6 -5.4 2.05 -6.8 Q6.4 -5.8 8.0 -9.0 M-0.35 -8.65 L0.4 -7.85 0.45 -6.4 -0.1 -7.4 -0.35 -8.65" fill="url(#gradient57)" fill-rule="evenodd" stroke="none"/>
    <path d="M-12.5 -4.7 L-12.65 -4.7 -12.0 -5.0 -12.1 -4.85 -12.5 -4.7 M-13.45 -7.2 L-13.1 -7.4 -12.8 -7.3 -13.45 -7.2" fill="url(#gradient58)" fill-rule="evenodd" stroke="none"/>
    <path d="M8.05 -8.85 Q9.6 -6.9 8.5 -3.7 L7.9 -2.65 7.25 -2.05 Q3.65 -0.15 1.55 -2.05 L0.5 -3.0 1.6 -5.4 2.3 -5.0 3.55 -4.85 3.75 -4.7 3.95 -4.85 Q8.2 -5.6 8.05 -8.85 M-0.3 -6.25 L-0.1 -7.4 0.45 -6.4 0.3 -3.35 0.15 -3.6 -0.25 -4.9 -0.3 -6.25" fill="url(#gradient59)" fill-rule="evenodd" stroke="none"/>
    <path d="M3.55 -4.85 L3.95 -4.85 3.75 -4.7 3.55 -4.85" fill="url(#gradient60)" fill-rule="evenodd" stroke="none"/>
    <path d="M8.5 -3.7 L8.3 -2.15 7.25 -0.4 Q3.4 2.35 0.45 -2.05 L0.15 -2.75 0.15 -2.95 0.15 -3.6 0.3 -3.35 0.4 -2.95 0.5 -3.0 1.55 -2.05 Q3.65 -0.15 7.25 -2.05 L7.9 -2.65 8.5 -3.7" fill="url(#gradient61)" fill-rule="evenodd" stroke="none"/>
    <path d="M-0.8 -4.7 L-0.25 -4.9 0.15 -3.6 0.15 -2.95 -0.8 -2.55 -0.8 -4.7" fill="url(#gradient62)" fill-rule="evenodd" stroke="none"/>
    <path d="M-0.8 -6.15 L-0.3 -6.25 -0.25 -4.9 -0.8 -4.7 -0.8 -6.15" fill="url(#gradient63)" fill-rule="evenodd" stroke="none"/>
    <path d="M-9.8 -5.7 L-12.6 1.5 -24.8 4.8 -30.85 5.95 Q-28.95 4.85 -13.8 0.05 L-12.5 -4.7 -12.1 -4.85 -9.8 -5.7" fill="url(#gradient64)" fill-rule="evenodd" stroke="none"/>
    <path d="M0.65 0.0 Q-7.05 7.0 -6.75 4.75 L-6.95 4.0 -7.65 3.65 Q-8.05 2.4 -6.8 1.15 L-3.8 -1.8 -3.65 -1.7 -3.2 -0.7 -2.35 -0.65 -2.05 -0.45 -1.75 -0.15 -0.75 0.95 -0.75 -1.35 -0.1 -2.05 0.1 -2.35 0.15 -2.05 0.15 -1.45 0.65 0.0" fill="url(#gradient65)" fill-rule="evenodd" stroke="none"/>
    <path d="M-3.65 -1.7 L-2.35 -0.65 -3.2 -0.7 -3.65 -1.7 M0.15 -2.75 L0.1 -2.35 -0.1 -2.05 -0.75 -1.35 -0.75 -2.05 -0.8 -2.55 0.15 -2.95 0.15 -2.75" fill="url(#gradient66)" fill-rule="evenodd" stroke="none"/>
    <path d="M-19.75 -2.8 Q-21.15 -3.5 -20.2 -4.35 L-19.55 -3.7 -19.5 -3.15 -19.75 -2.8" fill="url(#gradient67)" fill-rule="evenodd" stroke="none"/>
    <path d="M7.25 -0.4 L6.75 0.55 5.45 1.6 5.15 1.7 3.65 1.95 Q2.7 1.95 1.65 1.2 L0.65 0.0 0.15 -1.45 0.15 -2.05 0.1 -2.35 0.15 -2.75 0.45 -2.05 Q3.4 2.35 7.25 -0.4" fill="url(#gradient68)" fill-rule="evenodd" stroke="none"/>
    <path d="M-6.75 4.75 L-6.95 4.3 -7.65 3.65 -6.95 4.0 -6.75 4.75" fill="url(#gradient69)" fill-rule="evenodd" stroke="none"/>
    <path d="M5.45 1.6 L5.55 3.15 5.05 4.25 3.3 5.9 -0.15 8.45 -1.25 8.85 -1.65 8.75 -2.2 8.0 -3.3 7.8 -3.35 7.8 -3.4 7.7 Q-4.4 6.1 1.6 1.65 L1.65 2.95 1.85 3.35 2.4 3.65 Q4.2 3.9 5.15 1.7 L5.45 1.6" fill="url(#gradient70)" fill-rule="evenodd" stroke="none"/>
    <path d="M1.6 1.65 L1.65 1.2 Q2.7 1.95 3.65 1.95 L5.15 1.7 Q4.2 3.9 2.4 3.65 L1.85 3.35 1.65 2.95 1.6 1.65" fill="url(#gradient71)" fill-rule="evenodd" stroke="none"/>
    <path d="M-1.65 8.75 L-2.15 8.3 -3.3 7.8 -2.2 8.0 -1.65 8.75" fill="url(#gradient72)" fill-rule="evenodd" stroke="none"/>
  </g>
  <defs>
    <radialGradient cx="0" cy="0" gradientTransform="matrix(0.0071, 0.0, 0.0, 0.0071, -0.95, -50.2)" gradientUnits="userSpaceOnUse" id="gradient0" r="819.2" spreadMethod="pad">
      <stop offset="0.0" stop-color="#fbeec2"/>
      <stop offset="1.0" stop-color="#807a63"/>
    </radialGradient>
    <radialGradient cx="0" cy="0" gradientTransform="matrix(0.0061, 0.0, 0.0, 0.0061, -3.05, -55.5)" gradientUnits="userSpaceOnUse" id="gradient1" r="819.2" spreadMethod="pad">
      <stop offset="0.0" stop-color="#6b6653"/>
      <stop offset="1.0" stop-color="#2b2921"/>
    </radialGradient>
    <radialGradient cx="0" cy="0" gradientTransform="matrix(0.0091, 0.0, 0.0, 0.0091, -2.5, -47.95)" gradientUnits="userSpaceOnUse" id="gradient2" r="819.2" spreadMethod="pad">
      <stop offset="0.0" stop-color="#294157"/>
      <stop offset="1.0" stop-color="#294056"/>
    </radialGradient>
    <radialGradient cx="0" cy="0" gradientTransform="matrix(0.0097, 0.0, 0.0, 0.0097, -2.7, -46.7)" gradientUnits="userSpaceOnUse" id="gradient3" r="819.2" spreadMethod="pad">
      <stop offset="0.0" stop-color="#34516d"/>
      <stop offset="1.0" stop-color="#283f55"/>
    </radialGradient>
    <radialGradient cx="0" cy="0" gradientTransform="matrix(0.0052, 0.0, 0.0, 0.0052, -6.4, -46.55)" gradientUnits="userSpaceOnUse" id="gradient4" r="819.2" spreadMethod="pad">
      <stop offset="0.0" stop-color="#625c47"/>
      <stop offset="1.0" stop-color="#383428"/>
    </radialGradient>
    <radialGradient cx="0" cy="0" gradientTransform="matrix(0.0178, 0.0, 0.0, 0.0178, -5.0, -47.8)" gradientUnits="userSpaceOnUse" id="gradient5" r="819.2" spreadMethod="pad">
      <stop offset="0.0" stop-color="#ffaa00"/>
      <stop offset="1.0" stop-color="#ee7c00"/>
    </radialGradient>
    <radialGradient cx="0" cy="0" gradientTransform="matrix(0.0055, 0.0, 0.0, 0.0055, 3.0, -47.6)" gradientUnits="userSpaceOnUse" id="gradient6" r="819.2" spreadMethod="pad">
      <stop offset="0.0" stop-color="#416588"/>
      <stop offset="1.0" stop-color="#223548"/>
    </radialGradient>
    <radialGradient cx="0" cy="0" gradientTransform="matrix(0.0044, 0.0, 0.0, 0.0044, 5.7, -48.7)" gradientUnits="userSpaceOnUse" id="gradient7" r="819.2" spreadMethod="pad">
      <stop offset="0.0" stop-color="#416689"/>
      <stop offset="1.0" stop-color="#1c2b3a"/>
    </radialGradient>
    <radialGradient cx="0" cy="0" gradientTransform="matrix(0.002, 0.0, 0.0, 0.002, 8.35, -46.2)" gradientUnits="userSpaceOnUse" id="gradient8" r="819.2" spreadMethod="pad">
      <stop offset="0.0" stop-color="#283f55"/>
      <stop offset="1.0" stop-color="#283f55"/>
    </radialGradient>
    <radialGradient cx="0" cy="0" gradientTransform="matrix(0.0314, 0.0, 0.0, 0.0314, 8.95, -43.6)" gradientUnits="userSpaceOnUse" id="gradient9" r="819.2" spreadMethod="pad">
      <stop offset="0.0" stop-color="#080c10"/>
      <stop offset="1.0" stop-color="#080c10"/>
    </radialGradient>
    <radialGradient cx="0" cy="0" gradientTransform="matrix(0.0025, 0.0, 0.0, 0.0025, 8.0, -46.45)" gradientUnits="userSpaceOnUse" id="gradient10" r="819.2" spreadMethod="pad">
      <stop offset="0.0" stop-color="#253a4e"/>
      <stop offset="1.0" stop-color="#213446"/>
    </radialGradient>
    <radialGradient cx="0" cy="0" gradientTransform="matrix(0.0054, 0.0, 0.0, 0.0054, 7.25, -47.55)" gradientUnits="userSpaceOnUse" id="gradient11" r="819.2" spreadMethod="pad">
      <stop offset="0.0" stop-color="#a0987c"/>
      <stop offset="1.0" stop-color="#837d66"/>
    </radialGradient>
    <radialGradient cx="0" cy="0" gradientTransform="matrix(0.0027, 0.0, 0.0, 0.0027, 6.5, -48.6)" gradientUnits="userSpaceOnUse" id="gradient12" r="819.2" spreadMethod="pad">
      <stop offset="0.0" stop-color="#293f55"/>
      <stop offset="1.0" stop-color="#283f55"/>
    </radialGradient>
    <radialGradient cx="0" cy="0" gradientTransform="matrix(0.0108, 0.0, 0.0, 0.0108, 0.4, -42.05)" gradientUnits="userSpaceOnUse" id="gradient13" r="819.2" spreadMethod="pad">
      <stop offset="0.0" stop-color="#406486"/>
      <stop offset="1.0" stop-color="#294057"/>
    </radialGradient>
    <radialGradient cx="0" cy="0" gradientTransform="matrix(0.0055, 0.0, 0.0, 0.0055, -0.9, -45.15)" gradientUnits="userSpaceOnUse" id="gradient14" r="819.2" spreadMethod="pad">
      <stop offset="0.0" stop-color="#c68b51"/>
      <stop offset="1.0" stop-color="#a17142"/>
    </radialGradient>
    <radialGradient cx="0" cy="0" gradientTransform="matrix(0.0072, 0.0, 0.0, 0.0072, -4.0, -38.55)" gradientUnits="userSpaceOnUse" id="gradient15" r="819.2" spreadMethod="pad">
      <stop offset="0.0" stop-color="#5e5844"/>
      <stop offset="1.0" stop-color="#464233"/>
    </radialGradient>
    <radialGradient cx="0" cy="0" gradientTransform="matrix(0.0301, 0.0, 0.0, 0.0301, -9.1, -25.6)" gradientUnits="userSpaceOnUse" id="gradient16" r="819.2" spreadMethod="pad">
      <stop offset="0.0" stop-color="#f57b00"/>
      <stop offset="1.0" stop-color="#331a00"/>
    </radialGradient>
    <radialGradient cx="0" cy="0" gradientTransform="matrix(0.0023, 0.0, 0.0, 0.0023, -7.05, -32.2)" gradientUnits="userSpaceOnUse" id="gradient17" r="819.2" spreadMethod="pad">
      <stop offset="0.0" stop-color="#dd6f00"/>
      <stop offset="1.0" stop-color="#cb6500"/>
    </radialGradient>
    <radialGradient cx="0" cy="0" gradientTransform="matrix(0.0294, 0.0, 0.0, 0.0294, -9.4, -10.75)" gradientUnits="userSpaceOnUse" id="gradient18" r="819.2" spreadMethod="pad">
      <stop offset="0.0" stop-color="#ff8d00"/>
      <stop offset="1.0" stop-color="#e17100"/>
    </radialGradient>
    <radialGradient cx="0" cy="0" gradientTransform="matrix(0.0047, 0.0, 0.0, 0.0047, -7.35, -32.85)" gradientUnits="userSpaceOnUse" id="gradient19" r="819.2" spreadMethod="pad">
      <stop offset="0.0" stop-color="#dd6f00"/>
      <stop offset="1.0" stop-color="#8c4600"/>
    </radialGradient>
    <radialGradient cx="0" cy="0" gradientTransform="matrix(0.0073, 0.0, 0.0, 0.0073, -7.8, -35.4)" gradientUnits="userSpaceOnUse" id="gradient20" r="819.2" spreadMethod="pad">
      <stop offset="0.0" stop-color="#57523f"/>
      <stop offset="1.0" stop-color="#413d2f"/>
    </radialGradient>
    <radialGradient cx="0" cy="0" gradientTransform="matrix(0.0067, 0.0, 0.0, 0.0067, -9.7, -41.55)" gradientUnits="userSpaceOnUse" id="gradient21" r="819.2" spreadMethod="pad">
      <stop offset="0.0" stop-color="#d89859"/>
      <stop offset="1.0" stop-color="#8c633a"/>
    </radialGradient>
    <radialGradient cx="0" cy="0" gradientTransform="matrix(0.0442, 0.0, 0.0, 0.0442, 4.0, -39.05)" gradientUnits="userSpaceOnUse" id="gradient22" r="819.2" spreadMethod="pad">
      <stop offset="0.0" stop-color="#ffd400"/>
      <stop offset="1.0" stop-color="#ff8900"/>
    </radialGradient>
    <radialGradient cx="0" cy="0" gradientTransform="matrix(0.0104, 0.0, 0.0, 0.0104, 4.4, -37.4)" gradientUnits="userSpaceOnUse" id="gradient23" r="819.2" spreadMethod="pad">
      <stop offset="0.0" stop-color="#665f4a"/>
      <stop offset="1.0" stop-color="#3c392c"/>
    </radialGradient>
    <radialGradient cx="0" cy="0" gradientTransform="matrix(0.0043, 0.0, 0.0, 0.0043, 10.55, -40.85)" gradientUnits="userSpaceOnUse" id="gradient24" r="819.2" spreadMethod="pad">
      <stop offset="0.0" stop-color="#e37200"/>
      <stop offset="1.0" stop-color="#d76c00"/>
    </radialGradient>
    <radialGradient cx="0" cy="0" gradientTransform="matrix(0.0017, 0.0, 0.0, 0.0017, 10.1, -42.2)" gradientUnits="userSpaceOnUse" id="gradient25" r="819.2" spreadMethod="pad">
      <stop offset="0.0" stop-color="#ed7700"/>
      <stop offset="1.0" stop-color="#e37200"/>
    </radialGradient>
    <radialGradient cx="0" cy="0" gradientTransform="matrix(0.0206, 0.0, 0.0, 0.0206, 4.9, -41.7)" gradientUnits="userSpaceOnUse" id="gradient26" r="819.2" spreadMethod="pad">
      <stop offset="0.0" stop-color="#ffe082"/>
      <stop offset="1.0" stop-color="#a97745"/>
    </radialGradient>
    <radialGradient cx="0" cy="0" gradientTransform="matrix(0.009, 0.0, 0.0, 0.009, 9.4, -37.6)" gradientUnits="userSpaceOnUse" id="gradient27" r="819.2" spreadMethod="pad">
      <stop offset="0.0" stop-color="#67604b"/>
      <stop offset="1.0" stop-color="#363327"/>
    </radialGradient>
    <radialGradient cx="0" cy="0" gradientTransform="matrix(0.0037, 0.0, 0.0, 0.0037, -9.05, -29.05)" gradientUnits="userSpaceOnUse" id="gradient28" r="819.2" spreadMethod="pad">
      <stop offset="0.0" stop-color="#ffee8a"/>
      <stop offset="1.0" stop-color="#b7814b"/>
    </radialGradient>
    <radialGradient cx="0" cy="0" gradientTransform="matrix(0.0041, 0.0, 0.0, 0.0041, -8.3, -29.25)" gradientUnits="userSpaceOnUse" id="gradient29" r="819.2" spreadMethod="pad">
      <stop offset="0.0" stop-color="#fff08c"/>
      <stop offset="1.0" stop-color="#c38d52"/>
    </radialGradient>
    <radialGradient cx="0" cy="0" gradientTransform="matrix(0.0067, 0.0, 0.0, 0.0067, -4.05, -28.65)" gradientUnits="userSpaceOnUse" id="gradient30" r="819.2" spreadMethod="pad">
      <stop offset="0.0" stop-color="#5d5744"/>
      <stop offset="1.0" stop-color="#353227"/>
    </radialGradient>
    <radialGradient cx="0" cy="0" gradientTransform="matrix(0.007, 0.0, 0.0, 0.007, 11.4, -30.55)" gradientUnits="userSpaceOnUse" id="gradient31" r="819.2" spreadMethod="pad">
      <stop offset="0.0" stop-color="#ffd87e"/>
      <stop offset="1.0" stop-color="#94683c"/>
    </radialGradient>
    <radialGradient cx="0" cy="0" gradientTransform="matrix(0.0103, 0.0, 0.0, 0.0103, 10.2, -31.4)" gradientUnits="userSpaceOnUse" id="gradient32" r="819.2" spreadMethod="pad">
      <stop offset="0.0" stop-color="#ffde81"/>
      <stop offset="1.0" stop-color="#896138"/>
    </radialGradient>
    <radialGradient cx="0" cy="0" gradientTransform="matrix(0.0025, 0.0, 0.0, 0.0025, 14.0, -26.55)" gradientUnits="userSpaceOnUse" id="gradient33" r="819.2" spreadMethod="pad">
      <stop offset="0.0" stop-color="#c58b51"/>
      <stop offset="1.0" stop-color="#a77645"/>
    </radialGradient>
    <radialGradient cx="0" cy="0" gradientTransform="matrix(0.0059, 0.0, 0.0, 0.0059, 14.55, -23.75)" gradientUnits="userSpaceOnUse" id="gradient34" r="819.2" spreadMethod="pad">
      <stop offset="0.0" stop-color="#464133"/>
      <stop offset="1.0" stop-color="#343025"/>
    </radialGradient>
    <radialGradient cx="0" cy="0" gradientTransform="matrix(0.0052, 0.0, 0.0, 0.0052, -5.2, -33.9)" gradientUnits="userSpaceOnUse" id="gradient35" r="819.2" spreadMethod="pad">
      <stop offset="0.0" stop-color="#a67544"/>
      <stop offset="1.0" stop-color="#261b10"/>
    </radialGradient>
    <radialGradient cx="0" cy="0" gradientTransform="matrix(0.0099, 0.0, 0.0, 0.0099, -1.5, -27.2)" gradientUnits="userSpaceOnUse" id="gradient36" r="819.2" spreadMethod="pad">
      <stop offset="0.0" stop-color="#6b644d"/>
      <stop offset="1.0" stop-color="#373428"/>
    </radialGradient>
    <radialGradient cx="0" cy="0" gradientTransform="matrix(0.0282, 0.0, 0.0, 0.0282, 0.6, -23.15)" gradientUnits="userSpaceOnUse" id="gradient37" r="819.2" spreadMethod="pad">
      <stop offset="0.0" stop-color="#f3e6bb"/>
      <stop offset="1.0" stop-color="#90896f"/>
    </radialGradient>
    <radialGradient cx="0" cy="0" gradientTransform="matrix(0.0269, 0.0, 0.0, 0.0269, 0.0, -21.15)" gradientUnits="userSpaceOnUse" id="gradient38" r="819.2" spreadMethod="pad">
      <stop offset="0.0" stop-color="#5a5542"/>
      <stop offset="1.0" stop-color="#383529"/>
    </radialGradient>
    <radialGradient cx="0" cy="0" gradientTransform="matrix(0.0043, 0.0, 0.0, 0.0043, -6.2, -25.25)" gradientUnits="userSpaceOnUse" id="gradient39" r="819.2" spreadMethod="pad">
      <stop offset="0.0" stop-color="#2d475f"/>
      <stop offset="1.0" stop-color="#263a4f"/>
    </radialGradient>
    <radialGradient cx="0" cy="0" gradientTransform="matrix(0.0042, 0.0, 0.0, 0.0042, 10.65, -23.05)" gradientUnits="userSpaceOnUse" id="gradient40" r="819.2" spreadMethod="pad">
      <stop offset="0.0" stop-color="#372717"/>
      <stop offset="1.0" stop-color="#261b10"/>
    </radialGradient>
    <radialGradient cx="0" cy="0" gradientTransform="matrix(0.0103, 0.0, 0.0, 0.0103, 12.1, -23.85)" gradientUnits="userSpaceOnUse" id="gradient41" r="819.2" spreadMethod="pad">
      <stop offset="0.0" stop-color="#665f4a"/>
      <stop offset="1.0" stop-color="#403b2e"/>
    </radialGradient>
    <radialGradient cx="0" cy="0" gradientTransform="matrix(0.0034, 0.0, 0.0, 0.0034, 9.3, -16.75)" gradientUnits="userSpaceOnUse" id="gradient42" r="819.2" spreadMethod="pad">
      <stop offset="0.0" stop-color="#ffeb89"/>
      <stop offset="1.0" stop-color="#dc9b5a"/>
    </radialGradient>
    <radialGradient cx="0" cy="0" gradientTransform="matrix(0.0103, 0.0, 0.0, 0.0103, 5.05, -21.15)" gradientUnits="userSpaceOnUse" id="gradient43" r="819.2" spreadMethod="pad">
      <stop offset="0.0" stop-color="#3c5e7e"/>
      <stop offset="1.0" stop-color="#253a4f"/>
    </radialGradient>
    <radialGradient cx="0" cy="0" gradientTransform="matrix(0.0713, 0.0, 0.0, 0.0713, -19.75, -4.1)" gradientUnits="userSpaceOnUse" id="gradient44" r="819.2" spreadMethod="pad">
      <stop offset="0.0" stop-color="#683b1e"/>
      <stop offset="1.0" stop-color="#4f2d17"/>
    </radialGradient>
    <radialGradient cx="0" cy="0" gradientTransform="matrix(0.0039, 0.0, 0.0, 0.0039, 10.55, -15.2)" gradientUnits="userSpaceOnUse" id="gradient45" r="819.2" spreadMethod="pad">
      <stop offset="0.0" stop-color="#ffeb89"/>
      <stop offset="1.0" stop-color="#a57543"/>
    </radialGradient>
    <radialGradient cx="0" cy="0" gradientTransform="matrix(0.0111, 0.0, 0.0, 0.0111, 30.75, -23.8)" gradientUnits="userSpaceOnUse" id="gradient46" r="819.2" spreadMethod="pad">
      <stop offset="0.0" stop-color="#cfc49f"/>
      <stop offset="1.0" stop-color="#a9a082"/>
    </radialGradient>
    <radialGradient cx="0" cy="0" gradientTransform="matrix(0.0027, 0.0, 0.0, 0.0027, 30.15, -24.25)" gradientUnits="userSpaceOnUse" id="gradient47" r="819.2" spreadMethod="pad">
      <stop offset="0.0" stop-color="#dcd1aa"/>
      <stop offset="1.0" stop-color="#dbd0a9"/>
    </radialGradient>
    <radialGradient cx="0" cy="0" gradientTransform="matrix(0.0072, 0.0, 0.0, 0.0072, 3.9, -12.1)" gradientUnits="userSpaceOnUse" id="gradient48" r="819.2" spreadMethod="pad">
      <stop offset="0.0" stop-color="#34516d"/>
      <stop offset="1.0" stop-color="#283f54"/>
    </radialGradient>
    <radialGradient cx="0" cy="0" gradientTransform="matrix(0.003, 0.0, 0.0, 0.003, -6.5, -24.1)" gradientUnits="userSpaceOnUse" id="gradient49" r="819.2" spreadMethod="pad">
      <stop offset="0.0" stop-color="#2d465e"/>
      <stop offset="1.0" stop-color="#233649"/>
    </radialGradient>
    <radialGradient cx="0" cy="0" gradientTransform="matrix(0.0041, 0.0, 0.0, 0.0041, -6.8, -22.8)" gradientUnits="userSpaceOnUse" id="gradient50" r="819.2" spreadMethod="pad">
      <stop offset="0.0" stop-color="#294056"/>
      <stop offset="1.0" stop-color="#23374a"/>
    </radialGradient>
    <radialGradient cx="0" cy="0" gradientTransform="matrix(0.0043, 0.0, 0.0, 0.0043, -6.65, -19.55)" gradientUnits="userSpaceOnUse" id="gradient51" r="819.2" spreadMethod="pad">
      <stop offset="0.0" stop-color="#2b435b"/>
      <stop offset="1.0" stop-color="#24384c"/>
    </radialGradient>
    <radialGradient cx="0" cy="0" gradientTransform="matrix(0.0016, 0.0, 0.0, 0.0016, 12.85, -18.25)" gradientUnits="userSpaceOnUse" id="gradient52" r="819.2" spreadMethod="pad">
      <stop offset="0.0" stop-color="#302d23"/>
      <stop offset="1.0" stop-color="#2c2920"/>
    </radialGradient>
    <radialGradient cx="0" cy="0" gradientTransform="matrix(0.0038, 0.0, 0.0, 0.0038, -6.4, -16.4)" gradientUnits="userSpaceOnUse" id="gradient53" r="819.2" spreadMethod="pad">
      <stop offset="0.0" stop-color="#2d465e"/>
      <stop offset="1.0" stop-color="#1f3141"/>
    </radialGradient>
    <radialGradient cx="0" cy="0" gradientTransform="matrix(0.0084, 0.0, 0.0, 0.0084, 2.55, -9.95)" gradientUnits="userSpaceOnUse" id="gradient54" r="819.2" spreadMethod="pad">
      <stop offset="0.0" stop-color="#334f6b"/>
      <stop offset="1.0" stop-color="#1f3142"/>
    </radialGradient>
    <radialGradient cx="0" cy="0" gradientTransform="matrix(0.0086, 0.0, 0.0, 0.0086, -12.25, -6.85)" gradientUnits="userSpaceOnUse" id="gradient55" r="819.2" spreadMethod="pad">
      <stop offset="0.0" stop-color="#e0d5ad"/>
      <stop offset="1.0" stop-color="#b7ae8d"/>
    </radialGradient>
    <radialGradient cx="0" cy="0" gradientTransform="matrix(0.0078, 0.0, 0.0, 0.0078, -0.7, -9.75)" gradientUnits="userSpaceOnUse" id="gradient56" r="819.2" spreadMethod="pad">
      <stop offset="0.0" stop-color="#3a5a79"/>
      <stop offset="1.0" stop-color="#213446"/>
    </radialGradient>
    <radialGradient cx="0" cy="0" gradientTransform="matrix(0.0063, 0.0, 0.0, 0.0063, 3.2, -7.15)" gradientUnits="userSpaceOnUse" id="gradient57" r="819.2" spreadMethod="pad">
      <stop offset="0.0" stop-color="#5e5844"/>
      <stop offset="1.0" stop-color="#373428"/>
    </radialGradient>
    <radialGradient cx="0" cy="0" gradientTransform="matrix(0.003, 0.0, 0.0, 0.003, -12.5, -7.2)" gradientUnits="userSpaceOnUse" id="gradient58" r="819.2" spreadMethod="pad">
      <stop offset="0.0" stop-color="#ada485"/>
      <stop offset="1.0" stop-color="#aca384"/>
    </radialGradient>
    <radialGradient cx="0" cy="0" gradientTransform="matrix(0.0067, 0.0, 0.0, 0.0067, 4.85, -5.6)" gradientUnits="userSpaceOnUse" id="gradient59" r="819.2" spreadMethod="pad">
      <stop offset="0.0" stop-color="#3f6385"/>
      <stop offset="1.0" stop-color="#213446"/>
    </radialGradient>
    <radialGradient cx="0" cy="0" gradientTransform="matrix(0.0017, 0.0, 0.0, 0.0017, 3.6, -5.7)" gradientUnits="userSpaceOnUse" id="gradient60" r="819.2" spreadMethod="pad">
      <stop offset="0.0" stop-color="#e29f5d"/>
      <stop offset="1.0" stop-color="#ca8e53"/>
    </radialGradient>
    <radialGradient cx="0" cy="0" gradientTransform="matrix(0.006, 0.0, 0.0, 0.006, 4.5, -1.65)" gradientUnits="userSpaceOnUse" id="gradient61" r="819.2" spreadMethod="pad">
      <stop offset="0.0" stop-color="#324d68"/>
      <stop offset="1.0" stop-color="#203345"/>
    </radialGradient>
    <radialGradient cx="0" cy="0" gradientTransform="matrix(0.0038, 0.0, 0.0, 0.0038, -0.2, -5.35)" gradientUnits="userSpaceOnUse" id="gradient62" r="819.2" spreadMethod="pad">
      <stop offset="0.0" stop-color="#34526e"/>
      <stop offset="1.0" stop-color="#172330"/>
    </radialGradient>
    <radialGradient cx="0" cy="0" gradientTransform="matrix(0.0031, 0.0, 0.0, 0.0031, -0.3, -7.05)" gradientUnits="userSpaceOnUse" id="gradient63" r="819.2" spreadMethod="pad">
      <stop offset="0.0" stop-color="#34516d"/>
      <stop offset="1.0" stop-color="#253a4d"/>
    </radialGradient>
    <radialGradient cx="0" cy="0" gradientTransform="matrix(0.026, 0.0, 0.0, 0.026, -27.7, 4.8)" gradientUnits="userSpaceOnUse" id="gradient64" r="819.2" spreadMethod="pad">
      <stop offset="0.0" stop-color="#693c1f"/>
      <stop offset="1.0" stop-color="#452714"/>
    </radialGradient>
    <radialGradient cx="0" cy="0" gradientTransform="matrix(0.007, 0.0, 0.0, 0.007, -2.75, 0.75)" gradientUnits="userSpaceOnUse" id="gradient65" r="819.2" spreadMethod="pad">
      <stop offset="0.0" stop-color="#756d55"/>
      <stop offset="1.0" stop-color="#615b47"/>
    </radialGradient>
    <radialGradient cx="0" cy="0" gradientTransform="matrix(0.004, 0.0, 0.0, 0.004, -2.7, -2.4)" gradientUnits="userSpaceOnUse" id="gradient66" r="819.2" spreadMethod="pad">
      <stop offset="0.0" stop-color="#423e30"/>
      <stop offset="1.0" stop-color="#333025"/>
    </radialGradient>
    <radialGradient cx="0" cy="0" gradientTransform="matrix(0.0019, 0.0, 0.0, 0.0019, -19.6, -3.1)" gradientUnits="userSpaceOnUse" id="gradient67" r="819.2" spreadMethod="pad">
      <stop offset="0.0" stop-color="#4e2d17"/>
      <stop offset="1.0" stop-color="#4e2d17"/>
    </radialGradient>
    <radialGradient cx="0" cy="0" gradientTransform="matrix(0.0065, 0.0, 0.0, 0.0065, 4.25, 0.1)" gradientUnits="userSpaceOnUse" id="gradient68" r="819.2" spreadMethod="pad">
      <stop offset="0.0" stop-color="#2d465f"/>
      <stop offset="1.0" stop-color="#203344"/>
    </radialGradient>
    <radialGradient cx="0" cy="0" gradientTransform="matrix(0.0026, 0.0, 0.0, 0.0026, -7.85, 3.45)" gradientUnits="userSpaceOnUse" id="gradient69" r="819.2" spreadMethod="pad">
      <stop offset="0.0" stop-color="#3f3b2d"/>
      <stop offset="1.0" stop-color="#3b372b"/>
    </radialGradient>
    <radialGradient cx="0" cy="0" gradientTransform="matrix(0.0079, 0.0, 0.0, 0.0079, 2.15, 4.65)" gradientUnits="userSpaceOnUse" id="gradient70" r="819.2" spreadMethod="pad">
      <stop offset="0.0" stop-color="#746d54"/>
      <stop offset="1.0" stop-color="#5e5845"/>
    </radialGradient>
    <radialGradient cx="0" cy="0" gradientTransform="matrix(0.0044, 0.0, 0.0, 0.0044, 2.6, 0.55)" gradientUnits="userSpaceOnUse" id="gradient71" r="819.2" spreadMethod="pad">
      <stop offset="0.0" stop-color="#393529"/>
      <stop offset="1.0" stop-color="#27251d"/>
    </radialGradient>
    <radialGradient cx="0" cy="0" gradientTransform="matrix(0.0029, 0.0, 0.0, 0.0029, -3.55, 7.6)" gradientUnits="userSpaceOnUse" id="gradient72" r="819.2" spreadMethod="pad">
      <stop offset="0.0" stop-color="#464133"/>
      <stop offset="1.0" stop-color="#403c2e"/>
    </radialGradient>
  </defs>
</svg>
