<?xml version="1.0" encoding="UTF-8" standalone="no"?>
<svg xmlns:ffdec="https://www.free-decompiler.com/flash" xmlns:xlink="http://www.w3.org/1999/xlink" ffdec:objectType="shape" height="70.45px" width="71.6px" xmlns="http://www.w3.org/2000/svg">
  <g transform="matrix(1.0, 0.0, 0.0, 1.0, 54.05, 55.85)">
    <path d="M-1.75 -46.7 Q6.8 -47.45 4.9 -52.9 L4.55 -53.75 5.6 -52.5 5.85 -51.05 Q3.7 -45.75 -1.75 -46.7 M-5.2 -50.9 L-4.35 -48.35 -1.8 -46.7 -3.0 -46.95 Q-4.65 -47.8 -5.1 -48.85 L-5.35 -50.6 -5.2 -50.9" fill="url(#gradient0)" fill-rule="evenodd" stroke="none"/>
    <path d="M4.55 -53.75 L4.9 -52.9 Q6.8 -47.45 -1.75 -46.7 L-1.8 -46.7 -4.35 -48.35 -5.2 -50.9 -5.1 -51.1 Q-5.3 -52.8 -2.15 -55.55 3.65 -56.6 4.55 -53.75" fill="url(#gradient1)" fill-rule="evenodd" stroke="none"/>
    <path d="M-1.8 -46.7 L-1.75 -46.7 Q3.7 -45.75 5.85 -51.05 L6.25 -48.5 Q6.1 -47.35 5.45 -46.55 5.35 -46.0 3.25 -44.75 L1.0 -44.2 -0.1 -45.0 Q-3.3 -45.85 -4.1 -46.65 L-4.65 -46.65 -4.95 -47.95 -5.1 -48.85 Q-4.65 -47.8 -3.0 -46.95 L-1.8 -46.7" fill="url(#gradient2)" fill-rule="evenodd" stroke="none"/>
    <path d="M9.1 -39.7 L9.85 -38.0 10.0 -36.9 8.7 -37.7 8.6 -37.75 8.55 -37.8 7.7 -38.55 6.1 -38.65 4.9 -38.2 Q3.6 -37.0 3.5 -36.1 L2.95 -35.05 2.7 -33.75 2.65 -33.55 2.65 -33.45 2.25 -31.0 2.7 -30.15 0.4 -32.55 0.25 -32.5 0.5 -31.85 -1.1 -34.4 -0.65 -32.6 0.2 -31.05 1.7 -30.15 1.95 -30.0 3.25 -29.0 3.35 -29.0 4.45 -29.25 6.05 -28.1 6.1 -26.9 6.5 -25.7 7.4 -24.7 7.7 -23.55 Q7.8 -23.05 8.8 -22.8 L8.9 -22.75 9.05 -16.0 8.95 -17.2 8.25 -19.75 Q7.65 -21.25 7.2 -21.05 L6.8 -21.15 6.3 -19.25 6.15 -18.55 4.2 -10.7 3.85 -7.3 2.05 -6.05 -0.55 -3.35 -1.35 -2.55 -4.95 0.7 -5.9 1.1 -7.5 1.35 -7.8 0.9 -8.7 -0.7 -9.0 -6.85 Q-4.4 -5.85 -4.0 -3.7 L-3.5 -13.9 -3.7 -26.9 Q-3.95 -28.85 -3.15 -33.8 L-1.8 -37.45 -0.65 -37.95 0.2 -39.9 0.2 -39.95 -0.1 -40.8 Q6.75 -40.7 6.4 -42.65 L7.3 -41.3 9.0 -39.8 9.1 -39.7 M-6.85 -45.55 L-6.85 -45.5 -6.9 -45.3 -6.85 -44.9 -6.8 -44.75 -6.65 -44.2 Q-10.1 -42.2 -8.35 -39.9 L-8.25 -39.55 -9.45 -36.5 Q-10.15 -32.65 -10.15 -29.1 L-11.1 -31.3 -11.5 -33.5 -11.55 -33.6 -11.7 -35.45 -11.7 -35.5 -11.65 -35.95 -11.65 -36.0 -11.4 -36.45 -11.4 -36.9 -11.5 -37.1 -11.6 -37.05 -11.6 -37.25 -11.55 -37.35 -10.75 -40.5 -10.7 -40.8 -9.75 -42.9 Q-8.85 -44.2 -7.95 -44.75 L-7.05 -45.85 -6.65 -45.95 -6.85 -45.55" fill="url(#gradient3)" fill-rule="evenodd" stroke="none"/>
    <path d="M6.4 -42.65 Q6.75 -40.7 -0.1 -40.8 L-0.35 -41.55 0.1 -41.65 1.15 -42.65 1.15 -43.5 1.0 -44.2 3.25 -44.75 Q5.35 -46.0 5.45 -46.55 L6.25 -44.7 6.4 -42.65 M-4.65 -46.65 L-5.8 -46.5 -6.85 -45.55 -6.65 -45.95 -4.95 -47.95 -4.65 -46.65 M-6.85 -45.3 L-6.8 -44.9 -6.85 -44.9 -6.9 -45.3 -6.85 -45.3" fill="url(#gradient4)" fill-rule="evenodd" stroke="none"/>
    <path d="M1.0 -44.2 L1.15 -43.5 0.2 -42.65 0.1 -41.65 -0.35 -41.55 Q-4.7 -41.85 -6.65 -44.2 L-6.8 -44.75 -6.8 -44.9 -6.85 -45.3 -6.85 -45.5 -6.85 -45.55 -5.8 -46.5 -4.65 -46.65 -4.1 -46.65 Q-3.3 -45.85 -0.1 -45.0 L1.0 -44.2" fill="url(#gradient5)" fill-rule="evenodd" stroke="none"/>
    <path d="M1.15 -43.5 L1.15 -42.65 0.1 -41.65 0.2 -42.65 1.15 -43.5" fill="url(#gradient6)" fill-rule="evenodd" stroke="none"/>
    <path d="M-0.1 -40.8 L0.2 -39.95 -0.25 -40.15 -1.15 -38.25 -0.65 -37.95 -1.8 -37.45 -2.85 -37.05 -4.2 -37.3 -5.05 -37.55 -7.2 -38.55 -8.25 -39.55 -8.35 -39.9 Q-10.1 -42.2 -6.65 -44.2 -4.7 -41.85 -0.35 -41.55 L-0.1 -40.8" fill="url(#gradient7)" fill-rule="evenodd" stroke="none"/>
    <path d="M0.2 -39.95 L0.2 -39.9 -0.65 -37.95 -1.15 -38.25 -0.25 -40.15 0.2 -39.95" fill="url(#gradient8)" fill-rule="evenodd" stroke="none"/>
    <path d="M9.1 -39.7 L9.0 -39.8 9.4 -40.1 9.1 -39.7" fill="url(#gradient9)" fill-rule="evenodd" stroke="none"/>
    <path d="M6.05 -28.1 L4.45 -29.25 4.25 -29.35 4.2 -29.4 2.95 -31.75 2.65 -33.45 2.65 -33.55 2.7 -33.75 2.95 -35.05 3.5 -36.1 4.95 -37.7 Q5.7 -38.4 6.3 -38.25 L7.1 -38.25 8.55 -37.8 8.6 -37.75 8.7 -37.7 10.0 -36.9 11.45 -35.25 Q12.0 -34.5 12.2 -32.2 L12.2 -31.3 11.9 -30.1 Q11.45 -28.2 7.55 -27.65 L6.05 -28.1" fill="url(#gradient10)" fill-rule="evenodd" stroke="none"/>
    <path d="M2.7 -30.15 L2.25 -31.0 2.65 -33.45 2.95 -31.75 4.2 -29.4 2.65 -29.8 3.65 -29.65 3.0 -30.05 2.75 -30.0 3.2 -29.8 2.65 -29.8 2.2 -29.95 2.0 -30.45 2.65 -30.05 2.7 -30.15 M3.5 -36.1 Q3.6 -37.0 4.9 -38.2 L6.1 -38.65 6.3 -38.25 Q5.7 -38.4 4.95 -37.7 L3.5 -36.1 M-10.7 -40.8 L-10.75 -40.5 -10.95 -40.55 -10.7 -40.8 M-11.6 -37.05 L-11.5 -37.1 -11.4 -36.9 -11.4 -36.45 -11.65 -36.0 -11.85 -36.5 -11.6 -37.05 M-11.65 -35.95 L-11.7 -35.5 -11.85 -35.7 -11.65 -35.95" fill="url(#gradient11)" fill-rule="evenodd" stroke="none"/>
    <path d="M6.1 -38.65 L7.7 -38.55 8.55 -37.8 7.1 -38.25 6.3 -38.25 6.1 -38.65" fill="url(#gradient12)" fill-rule="evenodd" stroke="none"/>
    <path d="M1.7 -30.15 L0.2 -31.05 -0.65 -32.6 0.75 -31.25 0.95 -31.05 1.7 -30.15" fill="url(#gradient13)" fill-rule="evenodd" stroke="none"/>
    <path d="M0.5 -31.85 L0.25 -32.5 0.4 -32.55 2.7 -30.15 2.65 -30.05 2.0 -30.45 0.95 -31.05 0.75 -31.25 0.5 -31.85" fill="url(#gradient14)" fill-rule="evenodd" stroke="none"/>
    <path d="M-0.65 -32.6 L-1.1 -34.4 0.5 -31.85 0.75 -31.25 -0.65 -32.6" fill="url(#gradient15)" fill-rule="evenodd" stroke="none"/>
    <path d="M3.2 -29.8 L2.75 -30.0 3.0 -30.05 3.65 -29.65 3.2 -29.8" fill="url(#gradient16)" fill-rule="evenodd" stroke="none"/>
    <path d="M1.95 -30.0 L1.7 -30.15 0.95 -31.05 2.0 -30.45 2.2 -29.95 1.95 -30.0 M3.2 -29.8 L3.65 -29.65 2.65 -29.8 3.2 -29.8" fill="url(#gradient17)" fill-rule="evenodd" stroke="none"/>
    <path d="M4.45 -29.25 L3.35 -29.0 3.25 -29.0 1.95 -30.0 2.2 -29.95 2.65 -29.8 4.2 -29.4 4.25 -29.35 4.45 -29.25" fill="url(#gradient18)" fill-rule="evenodd" stroke="none"/>
    <path d="M7.4 -24.7 L6.5 -25.7 6.1 -26.9 6.05 -28.1 7.55 -27.65 7.5 -26.9 7.75 -25.55 7.5 -25.35 7.4 -24.7" fill="url(#gradient19)" fill-rule="evenodd" stroke="none"/>
    <path d="M7.75 -25.55 L7.5 -26.9 7.55 -27.65 Q11.45 -28.2 11.9 -30.1 12.95 -29.8 13.55 -28.4 L13.75 -26.9 13.45 -25.55 12.7 -24.35 11.95 -23.75 10.95 -23.35 9.45 -23.55 8.65 -24.05 Q7.65 -25.25 7.75 -25.55" fill="url(#gradient20)" fill-rule="evenodd" stroke="none"/>
    <path d="M8.8 -22.8 Q7.8 -23.05 7.7 -23.55 L7.4 -24.7 7.5 -25.35 7.75 -25.55 Q7.65 -25.25 8.65 -24.05 L9.45 -23.55 9.25 -23.0 8.8 -22.8" fill="url(#gradient21)" fill-rule="evenodd" stroke="none"/>
    <path d="M12.2 -32.2 Q15.15 -29.85 13.8 -25.7 L13.75 -25.55 13.35 -24.85 12.7 -24.35 13.45 -25.55 13.75 -26.9 13.55 -28.4 Q12.95 -29.8 11.9 -30.1 L12.2 -31.3 12.2 -32.2" fill="url(#gradient22)" fill-rule="evenodd" stroke="none"/>
    <path d="M13.8 -25.7 L14.95 -24.55 15.4 -23.25 Q16.25 -18.6 11.85 -20.2 L10.75 -20.85 9.65 -22.15 9.8 -22.15 Q11.4 -21.75 11.95 -23.75 L12.7 -24.35 13.35 -24.85 13.75 -25.55 13.8 -25.7" fill="url(#gradient23)" fill-rule="evenodd" stroke="none"/>
    <path d="M15.4 -23.25 Q18.95 -21.9 16.65 -18.35 13.1 -16.4 11.85 -20.2 16.25 -18.6 15.4 -23.25" fill="url(#gradient24)" fill-rule="evenodd" stroke="none"/>
    <path d="M8.9 -22.75 L8.8 -22.8 9.25 -23.0 9.45 -23.55 10.95 -23.35 11.95 -23.75 Q11.4 -21.75 9.8 -22.15 L9.7 -22.25 9.65 -22.25 8.9 -22.75" fill="url(#gradient25)" fill-rule="evenodd" stroke="none"/>
    <path d="M9.65 -22.15 L9.65 -22.25 9.7 -22.25 9.8 -22.15 9.65 -22.15" fill="url(#gradient26)" fill-rule="evenodd" stroke="none"/>
    <path d="M7.2 -21.05 Q7.65 -21.25 8.25 -19.75 L8.95 -17.2 9.05 -16.0 9.05 -15.8 9.1 -15.45 9.1 -15.1 9.15 -14.95 9.15 -12.6 8.75 -10.75 8.55 -10.3 8.05 -11.55 7.65 -13.8 7.15 -20.65 7.2 -21.05" fill="url(#gradient27)" fill-rule="evenodd" stroke="none"/>
    <path d="M6.3 -19.25 L6.8 -21.15 7.2 -21.05 7.15 -20.65 7.05 -19.95 6.5 -18.95 6.3 -19.25" fill="url(#gradient28)" fill-rule="evenodd" stroke="none"/>
    <path d="M6.15 -18.55 L6.3 -19.25 6.5 -18.95 6.55 -17.8 6.15 -18.55" fill="url(#gradient29)" fill-rule="evenodd" stroke="none"/>
    <path d="M4.2 -10.7 L6.15 -18.55 6.55 -17.8 6.8 -16.3 Q6.9 -14.35 6.55 -12.85 L6.05 -11.65 Q5.85 -11.2 4.2 -10.7" fill="url(#gradient30)" fill-rule="evenodd" stroke="none"/>
    <path d="M3.85 -7.3 L4.2 -10.7 Q5.85 -11.2 6.05 -11.65 L6.55 -12.85 Q7.15 -10.0 6.1 -8.1 5.95 -7.6 5.2 -7.2 L3.85 -7.3" fill="url(#gradient31)" fill-rule="evenodd" stroke="none"/>
    <path d="M-0.55 -3.35 L2.05 -6.05 3.85 -7.3 5.2 -7.2 Q5.95 -7.6 6.1 -8.1 L6.1 -7.75 5.5 -5.95 4.35 -4.45 Q3.25 -2.6 -0.55 -3.35" fill="url(#gradient32)" fill-rule="evenodd" stroke="none"/>
    <path d="M6.1 -7.75 Q12.7 -7.45 3.25 -1.7 L3.25 -1.95 Q3.7 -2.25 4.2 -3.45 L4.35 -4.45 5.5 -5.95 6.1 -7.75" fill="url(#gradient33)" fill-rule="evenodd" stroke="none"/>
    <path d="M-5.9 1.1 L-4.95 0.7 -1.35 -2.55 Q2.2 -0.95 3.25 -1.95 L3.25 -1.7 Q3.65 0.5 0.25 3.9 -1.75 4.55 -5.9 1.1" fill="url(#gradient34)" fill-rule="evenodd" stroke="none"/>
    <path d="M-1.35 -2.55 L-0.55 -3.35 Q3.25 -2.6 4.35 -4.45 L4.2 -3.45 Q3.7 -2.25 3.25 -1.95 2.2 -0.95 -1.35 -2.55" fill="url(#gradient35)" fill-rule="evenodd" stroke="none"/>
    <path d="M-7.8 0.9 L-7.5 1.35 -5.9 1.1 Q-1.75 4.55 0.25 3.9 L-0.35 5.25 Q-0.65 5.85 -2.2 7.1 -7.25 8.1 -8.5 2.7 L-7.8 0.9" fill="url(#gradient36)" fill-rule="evenodd" stroke="none"/>
    <path d="M-6.85 -45.5 L-6.85 -45.3 -6.9 -45.3 -6.85 -45.5 M-6.8 -44.9 L-6.8 -44.75 -6.85 -44.9 -6.8 -44.9" fill="url(#gradient37)" fill-rule="evenodd" stroke="none"/>
    <path d="M-7.95 -44.75 Q-8.85 -44.2 -9.75 -42.9 L-10.7 -40.8 -10.95 -40.55 -10.75 -40.5 -11.55 -37.35 -11.6 -37.25 -11.6 -37.05 -11.85 -36.5 -11.65 -36.0 -11.65 -35.95 -11.85 -35.7 -11.7 -35.5 -11.7 -35.45 -12.25 -35.4 -14.7 -36.1 -14.8 -36.2 -15.6 -37.35 -16.1 -38.5 Q-14.35 -47.0 -7.95 -44.75" fill="url(#gradient38)" fill-rule="evenodd" stroke="none"/>
    <path d="M-1.8 -37.45 L-3.15 -33.8 Q-3.95 -28.85 -3.7 -26.9 L-3.5 -13.9 -4.0 -3.7 Q-4.4 -5.85 -9.0 -6.85 L-10.35 -7.1 Q-9.8 -14.1 -10.05 -24.25 L-10.1 -27.25 -10.15 -29.1 Q-10.15 -32.65 -9.45 -36.5 L-8.25 -39.55 -7.2 -38.55 Q-8.8 -37.0 -9.05 -32.85 L-8.85 -12.65 Q-6.95 -12.65 -6.05 -12.1 L-5.55 -11.6 -5.1 -10.7 -5.35 -30.95 -5.0 -33.2 -5.3 -33.3 -5.4 -34.1 Q-4.85 -33.6 -4.2 -36.05 L-4.2 -37.3 -2.85 -37.05 -1.8 -37.45" fill="url(#gradient39)" fill-rule="evenodd" stroke="none"/>
    <path d="M-7.2 -38.55 L-5.05 -37.55 -4.2 -37.3 -4.2 -36.05 Q-4.85 -33.6 -5.4 -34.1 L-5.3 -33.3 -5.0 -33.2 -5.35 -30.95 -5.1 -10.7 -5.55 -11.6 -6.05 -12.1 Q-6.95 -12.65 -8.85 -12.65 L-9.05 -32.85 Q-8.8 -37.0 -7.2 -38.55" fill="url(#gradient40)" fill-rule="evenodd" stroke="none"/>
    <path d="M-16.1 -38.5 L-15.6 -37.35 -14.8 -36.2 -14.9 -35.8 -16.0 -33.45 Q-16.45 -33.6 -17.0 -32.65 L-17.55 -31.25 -17.95 -30.95 Q-19.45 -34.7 -16.1 -38.5" fill="url(#gradient41)" fill-rule="evenodd" stroke="none"/>
    <path d="M-11.7 -35.45 L-11.55 -33.6 -11.55 -33.5 -12.3 -31.5 Q-13.7 -29.3 -13.95 -29.45 L-14.5 -29.1 -15.25 -29.0 -15.95 -29.95 -16.0 -33.45 -14.9 -35.8 -14.7 -36.1 -12.25 -35.4 -11.7 -35.45" fill="url(#gradient42)" fill-rule="evenodd" stroke="none"/>
    <path d="M-11.55 -33.6 L-11.5 -33.5 -11.55 -33.5 -11.55 -33.6" fill="url(#gradient43)" fill-rule="evenodd" stroke="none"/>
    <path d="M-14.9 -35.8 L-14.8 -36.2 -14.7 -36.1 -14.9 -35.8 M-13.95 -29.45 L-14.4 -29.05 -14.5 -29.1 -13.95 -29.45" fill="url(#gradient44)" fill-rule="evenodd" stroke="none"/>
    <path d="M-17.55 -31.25 L-17.0 -32.65 Q-16.45 -33.6 -16.0 -33.45 L-15.95 -29.95 Q-18.0 -27.85 -17.55 -31.25" fill="url(#gradient45)" fill-rule="evenodd" stroke="none"/>
    <path d="M-17.95 -30.95 L-17.55 -31.25 Q-18.0 -27.85 -15.95 -29.95 L-15.25 -29.0 Q-18.7 -25.65 -18.1 -30.4 L-17.95 -30.95" fill="url(#gradient46)" fill-rule="evenodd" stroke="none"/>
    <path d="M-14.4 -29.05 L-13.9 -27.75 -14.0 -26.25 Q-13.8 -25.9 -15.15 -24.35 L-15.7 -22.5 -15.7 -22.45 -15.85 -21.9 -16.35 -21.4 Q-18.6 -19.65 -18.95 -22.5 -21.15 -26.3 -18.1 -30.4 -18.7 -25.65 -15.25 -29.0 L-14.5 -29.1 -14.4 -29.05" fill="url(#gradient47)" fill-rule="evenodd" stroke="none"/>
    <path d="M-15.7 -22.5 L-10.1 -27.25 -10.05 -24.25 -14.25 -20.65 -14.7 -21.65 -15.7 -22.45 -15.7 -22.5 M-39.0 0.9 L-39.1 0.3 -39.45 -0.2 -40.3 -0.95 -40.7 -1.0 -20.05 -18.8 Q-17.2 -19.65 -18.05 -17.3 L-39.0 0.9 M-52.1 12.0 L-52.0 12.05 -52.05 12.3 -52.1 12.05 -52.1 12.0" fill="url(#gradient48)" fill-rule="evenodd" stroke="none"/>
    <path d="M-40.7 -1.0 L-40.3 -0.95 -39.45 -0.2 -39.1 0.3 -39.0 0.9 -39.0 1.1 -52.0 12.35 -52.05 12.35 -52.05 12.3 -52.0 12.05 -52.1 12.0 -52.25 11.75 -52.25 11.7 -52.8 10.85 -53.2 10.5 -53.3 10.45 -53.35 10.4 -53.6 10.3 -53.9 10.15 -41.4 -0.6 -40.7 -1.0" fill="url(#gradient49)" fill-rule="evenodd" stroke="none"/>
    <path d="M-16.35 -21.4 L-15.85 -21.9 -15.7 -22.45 -14.7 -21.65 -14.25 -20.65 -14.4 -19.2 -14.6 -18.8 -15.2 -18.35 -15.05 -19.45 -15.15 -19.8 -16.35 -21.4" fill="url(#gradient50)" fill-rule="evenodd" stroke="none"/>
    <path d="M-18.05 -17.3 Q-17.2 -19.65 -20.05 -18.8 -21.0 -21.45 -18.95 -22.5 -18.6 -19.65 -16.35 -21.4 L-15.15 -19.8 -15.05 -19.45 -15.2 -18.35 -16.35 -17.5 -18.05 -17.3" fill="url(#gradient51)" fill-rule="evenodd" stroke="none"/>
    <path d="M-5.5 9.4 L-5.9 10.05 Q-7.55 13.15 -9.75 9.5 L-8.8 7.95 -7.25 9.2 -5.5 9.4" fill="url(#gradient52)" fill-rule="evenodd" stroke="none"/>
    <path d="M-2.2 7.1 L-3.2 8.35 Q-3.9 8.95 -5.5 9.4 L-7.25 9.2 -8.8 7.95 Q-10.15 4.8 -8.5 2.7 -7.25 8.1 -2.2 7.1" fill="url(#gradient53)" fill-rule="evenodd" stroke="none"/>
    <path d="M-5.9 10.05 Q-1.35 12.0 -8.15 14.6 -14.6 12.3 -9.75 9.5 -7.55 13.15 -5.9 10.05" fill="url(#gradient54)" fill-rule="evenodd" stroke="none"/>
    <path d="M-53.9 10.15 L-53.6 10.3 -54.0 10.35 -54.05 10.35 -53.9 10.15 M-52.05 12.35 L-52.0 12.35 -52.3 12.4 -52.05 12.35" fill="url(#gradient55)" fill-rule="evenodd" stroke="none"/>
    <path d="M-53.6 10.3 L-53.35 10.4 -53.3 10.45 -53.2 10.5 -52.8 10.85 -52.25 11.7 -52.25 11.75 -52.1 12.0 -52.1 12.05 -52.05 12.3 -52.05 12.35 -52.3 12.4 -52.35 12.4 -52.5 12.35 -52.65 12.3 -52.7 12.25 -52.75 12.25 -52.8 12.2 -53.05 12.0 -53.5 11.6 -53.6 11.4 -53.65 11.35 -53.9 11.0 -53.9 10.95 -53.9 10.85 -53.95 10.85 -53.95 10.8 -54.0 10.7 -54.0 10.6 -54.0 10.35 -53.6 10.3" fill="url(#gradient56)" fill-rule="evenodd" stroke="none"/>
    <path d="M-54.05 10.35 L-54.0 10.35 -54.0 10.6 -54.05 10.35 M-53.95 10.85 L-53.9 10.85 -53.9 10.95 -53.95 10.85" fill="url(#gradient57)" fill-rule="evenodd" stroke="none"/>
  </g>
  <defs>
    <radialGradient cx="0" cy="0" gradientTransform="matrix(0.0112, 0.0, 0.0, 0.0112, -1.2, -46.7)" gradientUnits="userSpaceOnUse" id="gradient0" r="819.2" spreadMethod="pad">
      <stop offset="0.0" stop-color="#355370"/>
      <stop offset="1.0" stop-color="#34526e"/>
    </radialGradient>
    <radialGradient cx="0" cy="0" gradientTransform="matrix(0.0084, 0.0, 0.0, 0.0084, 1.0, -51.85)" gradientUnits="userSpaceOnUse" id="gradient1" r="819.2" spreadMethod="pad">
      <stop offset="0.0" stop-color="#fff3c5"/>
      <stop offset="1.0" stop-color="#837c65"/>
    </radialGradient>
    <radialGradient cx="0" cy="0" gradientTransform="matrix(0.0084, 0.0, 0.0, 0.0084, 0.85, -46.25)" gradientUnits="userSpaceOnUse" id="gradient2" r="819.2" spreadMethod="pad">
      <stop offset="0.0" stop-color="#2b445b"/>
      <stop offset="1.0" stop-color="#273d52"/>
    </radialGradient>
    <radialGradient cx="0" cy="0" gradientTransform="matrix(0.05, 0.0, 0.0, 0.05, -0.85, -39.2)" gradientUnits="userSpaceOnUse" id="gradient3" r="819.2" spreadMethod="pad">
      <stop offset="0.0" stop-color="#ffd400"/>
      <stop offset="1.0" stop-color="#ff8a00"/>
    </radialGradient>
    <radialGradient cx="0" cy="0" gradientTransform="matrix(0.011, 0.0, 0.0, 0.011, 0.7, -41.2)" gradientUnits="userSpaceOnUse" id="gradient4" r="819.2" spreadMethod="pad">
      <stop offset="0.0" stop-color="#416689"/>
      <stop offset="1.0" stop-color="#223649"/>
    </radialGradient>
    <radialGradient cx="0" cy="0" gradientTransform="matrix(0.0071, 0.0, 0.0, 0.0071, -2.2, -42.2)" gradientUnits="userSpaceOnUse" id="gradient5" r="819.2" spreadMethod="pad">
      <stop offset="0.0" stop-color="#416689"/>
      <stop offset="1.0" stop-color="#2b435a"/>
    </radialGradient>
    <radialGradient cx="0" cy="0" gradientTransform="matrix(0.0018, 0.0, 0.0, 0.0018, 0.05, -42.65)" gradientUnits="userSpaceOnUse" id="gradient6" r="819.2" spreadMethod="pad">
      <stop offset="0.0" stop-color="#283f55"/>
      <stop offset="1.0" stop-color="#283f55"/>
    </radialGradient>
    <radialGradient cx="0" cy="0" gradientTransform="matrix(0.0083, 0.0, 0.0, 0.0083, -2.3, -41.1)" gradientUnits="userSpaceOnUse" id="gradient7" r="819.2" spreadMethod="pad">
      <stop offset="0.0" stop-color="#406587"/>
      <stop offset="1.0" stop-color="#2e4861"/>
    </radialGradient>
    <radialGradient cx="0" cy="0" gradientTransform="matrix(0.0028, 0.0, 0.0, 0.0028, -1.25, -38.25)" gradientUnits="userSpaceOnUse" id="gradient8" r="819.2" spreadMethod="pad">
      <stop offset="0.0" stop-color="#283f54"/>
      <stop offset="1.0" stop-color="#283f54"/>
    </radialGradient>
    <radialGradient cx="0" cy="0" gradientTransform="matrix(0.0029, 0.0, 0.0, 0.0029, 9.35, -40.2)" gradientUnits="userSpaceOnUse" id="gradient9" r="819.2" spreadMethod="pad">
      <stop offset="0.0" stop-color="#6d3e20"/>
      <stop offset="1.0" stop-color="#4b2b16"/>
    </radialGradient>
    <radialGradient cx="0" cy="0" gradientTransform="matrix(0.0086, 0.0, 0.0, 0.0086, 6.5, -34.35)" gradientUnits="userSpaceOnUse" id="gradient10" r="819.2" spreadMethod="pad">
      <stop offset="0.0" stop-color="#68614c"/>
      <stop offset="1.0" stop-color="#3b372b"/>
    </radialGradient>
    <radialGradient cx="0" cy="0" gradientTransform="matrix(0.0218, 0.0, 0.0, 0.0218, -10.85, -35.85)" gradientUnits="userSpaceOnUse" id="gradient11" r="819.2" spreadMethod="pad">
      <stop offset="0.0" stop-color="#ffe384"/>
      <stop offset="1.0" stop-color="#e19e5c"/>
    </radialGradient>
    <radialGradient cx="0" cy="0" gradientTransform="matrix(0.0041, 0.0, 0.0, 0.0041, 5.75, -38.25)" gradientUnits="userSpaceOnUse" id="gradient12" r="819.2" spreadMethod="pad">
      <stop offset="0.0" stop-color="#6a634d"/>
      <stop offset="1.0" stop-color="#4b4636"/>
    </radialGradient>
    <radialGradient cx="0" cy="0" gradientTransform="matrix(0.0046, 0.0, 0.0, 0.0046, -0.7, -32.8)" gradientUnits="userSpaceOnUse" id="gradient13" r="819.2" spreadMethod="pad">
      <stop offset="0.0" stop-color="#ffcb00"/>
      <stop offset="1.0" stop-color="#ffb800"/>
    </radialGradient>
    <radialGradient cx="0" cy="0" gradientTransform="matrix(0.0028, 0.0, 0.0, 0.0028, 0.8, -31.25)" gradientUnits="userSpaceOnUse" id="gradient14" r="819.2" spreadMethod="pad">
      <stop offset="0.0" stop-color="#ffbc00"/>
      <stop offset="1.0" stop-color="#ffbb00"/>
    </radialGradient>
    <radialGradient cx="0" cy="0" gradientTransform="matrix(0.0047, 0.0, 0.0, 0.0047, -1.2, -34.6)" gradientUnits="userSpaceOnUse" id="gradient15" r="819.2" spreadMethod="pad">
      <stop offset="0.0" stop-color="#ffd100"/>
      <stop offset="1.0" stop-color="#ffc600"/>
    </radialGradient>
    <radialGradient cx="0" cy="0" gradientTransform="matrix(0.0042, 0.0, 0.0, 0.0042, 3.85, -29.7)" gradientUnits="userSpaceOnUse" id="gradient16" r="819.2" spreadMethod="pad">
      <stop offset="0.0" stop-color="#331a00"/>
      <stop offset="1.0" stop-color="#331a00"/>
    </radialGradient>
    <radialGradient cx="0" cy="0" gradientTransform="matrix(0.0042, 0.0, 0.0, 0.0042, 0.8, -31.25)" gradientUnits="userSpaceOnUse" id="gradient17" r="819.2" spreadMethod="pad">
      <stop offset="0.0" stop-color="#ffbc00"/>
      <stop offset="1.0" stop-color="#ffaa00"/>
    </radialGradient>
    <radialGradient cx="0" cy="0" gradientTransform="matrix(0.0039, 0.0, 0.0, 0.0039, 1.9, -30.1)" gradientUnits="userSpaceOnUse" id="gradient18" r="819.2" spreadMethod="pad">
      <stop offset="0.0" stop-color="#ffaa00"/>
      <stop offset="1.0" stop-color="#ff9a00"/>
    </radialGradient>
    <radialGradient cx="0" cy="0" gradientTransform="matrix(0.0049, 0.0, 0.0, 0.0049, 7.1, -28.55)" gradientUnits="userSpaceOnUse" id="gradient19" r="819.2" spreadMethod="pad">
      <stop offset="0.0" stop-color="#ffcc77"/>
      <stop offset="1.0" stop-color="#976b3e"/>
    </radialGradient>
    <radialGradient cx="0" cy="0" gradientTransform="matrix(0.0072, 0.0, 0.0, 0.0072, 9.2, -29.2)" gradientUnits="userSpaceOnUse" id="gradient20" r="819.2" spreadMethod="pad">
      <stop offset="0.0" stop-color="#ffe686"/>
      <stop offset="1.0" stop-color="#8c633a"/>
    </radialGradient>
    <radialGradient cx="0" cy="0" gradientTransform="matrix(0.0037, 0.0, 0.0, 0.0037, 8.0, -25.75)" gradientUnits="userSpaceOnUse" id="gradient21" r="819.2" spreadMethod="pad">
      <stop offset="0.0" stop-color="#ffe083"/>
      <stop offset="1.0" stop-color="#7c5733"/>
    </radialGradient>
    <radialGradient cx="0" cy="0" gradientTransform="matrix(0.0083, 0.0, 0.0, 0.0083, 11.55, -30.55)" gradientUnits="userSpaceOnUse" id="gradient22" r="819.2" spreadMethod="pad">
      <stop offset="0.0" stop-color="#eba661"/>
      <stop offset="1.0" stop-color="#996b3f"/>
    </radialGradient>
    <radialGradient cx="0" cy="0" gradientTransform="matrix(0.0053, 0.0, 0.0, 0.0053, 12.75, -24.05)" gradientUnits="userSpaceOnUse" id="gradient23" r="819.2" spreadMethod="pad">
      <stop offset="0.0" stop-color="#6b644e"/>
      <stop offset="1.0" stop-color="#2c2920"/>
    </radialGradient>
    <radialGradient cx="0" cy="0" gradientTransform="matrix(0.0037, 0.0, 0.0, 0.0037, 14.65, -20.85)" gradientUnits="userSpaceOnUse" id="gradient24" r="819.2" spreadMethod="pad">
      <stop offset="0.0" stop-color="#fff08c"/>
      <stop offset="1.0" stop-color="#94693d"/>
    </radialGradient>
    <radialGradient cx="0" cy="0" gradientTransform="matrix(0.0034, 0.0, 0.0, 0.0034, 9.15, -24.0)" gradientUnits="userSpaceOnUse" id="gradient25" r="819.2" spreadMethod="pad">
      <stop offset="0.0" stop-color="#f6ad65"/>
      <stop offset="1.0" stop-color="#a47343"/>
    </radialGradient>
    <radialGradient cx="0" cy="0" gradientTransform="matrix(0.0015, 0.0, 0.0, 0.0015, 9.95, -22.05)" gradientUnits="userSpaceOnUse" id="gradient26" r="819.2" spreadMethod="pad">
      <stop offset="0.0" stop-color="#0c0c09"/>
      <stop offset="1.0" stop-color="#0c0c09"/>
    </radialGradient>
    <radialGradient cx="0" cy="0" gradientTransform="matrix(0.0135, 0.0, 0.0, 0.0135, 9.05, -12.4)" gradientUnits="userSpaceOnUse" id="gradient27" r="819.2" spreadMethod="pad">
      <stop offset="0.0" stop-color="#422100"/>
      <stop offset="1.0" stop-color="#331a00"/>
    </radialGradient>
    <radialGradient cx="0" cy="0" gradientTransform="matrix(0.0046, 0.0, 0.0, 0.0046, 6.75, -22.05)" gradientUnits="userSpaceOnUse" id="gradient28" r="819.2" spreadMethod="pad">
      <stop offset="0.0" stop-color="#3e3a2d"/>
      <stop offset="1.0" stop-color="#2d2b21"/>
    </radialGradient>
    <radialGradient cx="0" cy="0" gradientTransform="matrix(0.0058, 0.0, 0.0, 0.0058, 5.9, -20.0)" gradientUnits="userSpaceOnUse" id="gradient29" r="819.2" spreadMethod="pad">
      <stop offset="0.0" stop-color="#294056"/>
      <stop offset="1.0" stop-color="#253a4e"/>
    </radialGradient>
    <radialGradient cx="0" cy="0" gradientTransform="matrix(0.0061, 0.0, 0.0, 0.0061, 4.7, -15.3)" gradientUnits="userSpaceOnUse" id="gradient30" r="819.2" spreadMethod="pad">
      <stop offset="0.0" stop-color="#314c67"/>
      <stop offset="1.0" stop-color="#23374a"/>
    </radialGradient>
    <radialGradient cx="0" cy="0" gradientTransform="matrix(0.0071, 0.0, 0.0, 0.0071, 4.35, -12.4)" gradientUnits="userSpaceOnUse" id="gradient31" r="819.2" spreadMethod="pad">
      <stop offset="0.0" stop-color="#375673"/>
      <stop offset="1.0" stop-color="#1f3142"/>
    </radialGradient>
    <radialGradient cx="0" cy="0" gradientTransform="matrix(0.0078, 0.0, 0.0, 0.0078, 3.55, -7.95)" gradientUnits="userSpaceOnUse" id="gradient32" r="819.2" spreadMethod="pad">
      <stop offset="0.0" stop-color="#365471"/>
      <stop offset="1.0" stop-color="#1c2c3b"/>
    </radialGradient>
    <radialGradient cx="0" cy="0" gradientTransform="matrix(0.0054, 0.0, 0.0, 0.0054, 4.8, -4.75)" gradientUnits="userSpaceOnUse" id="gradient33" r="819.2" spreadMethod="pad">
      <stop offset="0.0" stop-color="#605a46"/>
      <stop offset="1.0" stop-color="#454132"/>
    </radialGradient>
    <radialGradient cx="0" cy="0" gradientTransform="matrix(0.0074, 0.0, 0.0, 0.0074, -1.7, -1.7)" gradientUnits="userSpaceOnUse" id="gradient34" r="819.2" spreadMethod="pad">
      <stop offset="0.0" stop-color="#476f96"/>
      <stop offset="1.0" stop-color="#2c465e"/>
    </radialGradient>
    <radialGradient cx="0" cy="0" gradientTransform="matrix(0.0048, 0.0, 0.0, 0.0048, 0.55, -3.9)" gradientUnits="userSpaceOnUse" id="gradient35" r="819.2" spreadMethod="pad">
      <stop offset="0.0" stop-color="#69624c"/>
      <stop offset="1.0" stop-color="#423d2f"/>
    </radialGradient>
    <radialGradient cx="0" cy="0" gradientTransform="matrix(0.0071, 0.0, 0.0, 0.0071, -4.15, 1.75)" gradientUnits="userSpaceOnUse" id="gradient36" r="819.2" spreadMethod="pad">
      <stop offset="0.0" stop-color="#476f96"/>
      <stop offset="1.0" stop-color="#2a4258"/>
    </radialGradient>
    <radialGradient cx="0" cy="0" gradientTransform="matrix(0.0026, 0.0, 0.0, 0.0026, -6.85, -44.75)" gradientUnits="userSpaceOnUse" id="gradient37" r="819.2" spreadMethod="pad">
      <stop offset="0.0" stop-color="#080c10"/>
      <stop offset="1.0" stop-color="#080c10"/>
    </radialGradient>
    <radialGradient cx="0" cy="0" gradientTransform="matrix(0.0087, 0.0, 0.0, 0.0087, -10.75, -42.15)" gradientUnits="userSpaceOnUse" id="gradient38" r="819.2" spreadMethod="pad">
      <stop offset="0.0" stop-color="#6a634d"/>
      <stop offset="1.0" stop-color="#3a362a"/>
    </radialGradient>
    <radialGradient cx="0" cy="0" gradientTransform="matrix(0.0414, 0.0, 0.0, 0.0414, -3.3, -37.8)" gradientUnits="userSpaceOnUse" id="gradient39" r="819.2" spreadMethod="pad">
      <stop offset="0.0" stop-color="#406487"/>
      <stop offset="1.0" stop-color="#284056"/>
    </radialGradient>
    <radialGradient cx="0" cy="0" gradientTransform="matrix(0.0334, 0.0, 0.0, 0.0334, -4.4, -38.25)" gradientUnits="userSpaceOnUse" id="gradient40" r="819.2" spreadMethod="pad">
      <stop offset="0.0" stop-color="#fff7c8"/>
      <stop offset="1.0" stop-color="#a1987b"/>
    </radialGradient>
    <radialGradient cx="0" cy="0" gradientTransform="matrix(0.0085, 0.0, 0.0, 0.0085, -15.75, -37.45)" gradientUnits="userSpaceOnUse" id="gradient41" r="819.2" spreadMethod="pad">
      <stop offset="0.0" stop-color="#ffe686"/>
      <stop offset="1.0" stop-color="#b7814b"/>
    </radialGradient>
    <radialGradient cx="0" cy="0" gradientTransform="matrix(0.0078, 0.0, 0.0, 0.0078, -14.25, -35.4)" gradientUnits="userSpaceOnUse" id="gradient42" r="819.2" spreadMethod="pad">
      <stop offset="0.0" stop-color="#ffe686"/>
      <stop offset="1.0" stop-color="#845d36"/>
    </radialGradient>
    <radialGradient cx="0" cy="0" gradientTransform="matrix(0.0193, 0.0, 0.0, 0.0193, -7.9, -44.95)" gradientUnits="userSpaceOnUse" id="gradient43" r="819.2" spreadMethod="pad">
      <stop offset="0.0" stop-color="#d16900"/>
      <stop offset="1.0" stop-color="#331a00"/>
    </radialGradient>
    <radialGradient cx="0" cy="0" gradientTransform="matrix(0.0092, 0.0, 0.0, 0.0092, -14.85, -36.4)" gradientUnits="userSpaceOnUse" id="gradient44" r="819.2" spreadMethod="pad">
      <stop offset="0.0" stop-color="#ffe585"/>
      <stop offset="1.0" stop-color="#68492a"/>
    </radialGradient>
    <radialGradient cx="0" cy="0" gradientTransform="matrix(0.0045, 0.0, 0.0, 0.0045, -16.4, -32.7)" gradientUnits="userSpaceOnUse" id="gradient45" r="819.2" spreadMethod="pad">
      <stop offset="0.0" stop-color="#ffe787"/>
      <stop offset="1.0" stop-color="#be864e"/>
    </radialGradient>
    <radialGradient cx="0" cy="0" gradientTransform="matrix(0.003, 0.0, 0.0, 0.003, -17.15, -30.0)" gradientUnits="userSpaceOnUse" id="gradient46" r="819.2" spreadMethod="pad">
      <stop offset="0.0" stop-color="#ffcc76"/>
      <stop offset="1.0" stop-color="#a17142"/>
    </radialGradient>
    <radialGradient cx="0" cy="0" gradientTransform="matrix(0.0099, 0.0, 0.0, 0.0099, -16.75, -28.3)" gradientUnits="userSpaceOnUse" id="gradient47" r="819.2" spreadMethod="pad">
      <stop offset="0.0" stop-color="#67604b"/>
      <stop offset="1.0" stop-color="#403c2f"/>
    </radialGradient>
    <radialGradient cx="0" cy="0" gradientTransform="matrix(0.0779, 0.0, 0.0, 0.0779, -53.0, 10.65)" gradientUnits="userSpaceOnUse" id="gradient48" r="819.2" spreadMethod="pad">
      <stop offset="0.0" stop-color="#774423"/>
      <stop offset="1.0" stop-color="#472815"/>
    </radialGradient>
    <radialGradient cx="0" cy="0" gradientTransform="matrix(0.0167, 0.0, 0.0, 0.0167, -50.25, 8.25)" gradientUnits="userSpaceOnUse" id="gradient49" r="819.2" spreadMethod="pad">
      <stop offset="0.0" stop-color="#fff5c7"/>
      <stop offset="1.0" stop-color="#d0c5a0"/>
    </radialGradient>
    <radialGradient cx="0" cy="0" gradientTransform="matrix(0.0039, 0.0, 0.0, 0.0039, -16.2, -21.45)" gradientUnits="userSpaceOnUse" id="gradient50" r="819.2" spreadMethod="pad">
      <stop offset="0.0" stop-color="#ffef8b"/>
      <stop offset="1.0" stop-color="#a07041"/>
    </radialGradient>
    <radialGradient cx="0" cy="0" gradientTransform="matrix(0.004, 0.0, 0.0, 0.004, -17.9, -20.55)" gradientUnits="userSpaceOnUse" id="gradient51" r="819.2" spreadMethod="pad">
      <stop offset="0.0" stop-color="#ffef8b"/>
      <stop offset="1.0" stop-color="#c68c51"/>
    </radialGradient>
    <radialGradient cx="0" cy="0" gradientTransform="matrix(0.0048, 0.0, 0.0, 0.0048, -7.8, 8.5)" gradientUnits="userSpaceOnUse" id="gradient52" r="819.2" spreadMethod="pad">
      <stop offset="0.0" stop-color="#655f49"/>
      <stop offset="1.0" stop-color="#443f31"/>
    </radialGradient>
    <radialGradient cx="0" cy="0" gradientTransform="matrix(0.0059, 0.0, 0.0, 0.0059, -6.7, 5.7)" gradientUnits="userSpaceOnUse" id="gradient53" r="819.2" spreadMethod="pad">
      <stop offset="0.0" stop-color="#406486"/>
      <stop offset="1.0" stop-color="#23384b"/>
    </radialGradient>
    <radialGradient cx="0" cy="0" gradientTransform="matrix(0.0081, 0.0, 0.0, 0.0081, -10.9, 11.65)" gradientUnits="userSpaceOnUse" id="gradient54" r="819.2" spreadMethod="pad">
      <stop offset="0.0" stop-color="#736c54"/>
      <stop offset="1.0" stop-color="#3c382b"/>
    </radialGradient>
    <radialGradient cx="0" cy="0" gradientTransform="matrix(0.0026, 0.0, 0.0, 0.0026, -52.35, 11.35)" gradientUnits="userSpaceOnUse" id="gradient55" r="819.2" spreadMethod="pad">
      <stop offset="0.0" stop-color="#847d66"/>
      <stop offset="1.0" stop-color="#847d65"/>
    </radialGradient>
    <radialGradient cx="0" cy="0" gradientTransform="matrix(0.0027, 0.0, 0.0, 0.0027, -53.35, 10.35)" gradientUnits="userSpaceOnUse" id="gradient56" r="819.2" spreadMethod="pad">
      <stop offset="0.0" stop-color="#3d2312"/>
      <stop offset="1.0" stop-color="#3c2212"/>
    </radialGradient>
    <radialGradient cx="0" cy="0" gradientTransform="matrix(0.0122, 0.0, 0.0, 0.0122, -54.0, 10.75)" gradientUnits="userSpaceOnUse" id="gradient57" r="819.2" spreadMethod="pad">
      <stop offset="0.0" stop-color="#0e0804"/>
      <stop offset="1.0" stop-color="#0e0804"/>
    </radialGradient>
  </defs>
</svg>
