<?xml version="1.0" encoding="UTF-8" standalone="no"?>
<svg xmlns:ffdec="https://www.free-decompiler.com/flash" xmlns:xlink="http://www.w3.org/1999/xlink" ffdec:objectType="shape" height="74.5px" width="65.6px" xmlns="http://www.w3.org/2000/svg">
  <g transform="matrix(1.0, 0.0, 0.0, 1.0, 30.25, 64.35)">
    <path d="M7.45 -53.3 Q8.3 -53.25 9.2 -51.65 L9.5 -50.2 Q9.2 -49.15 8.7 -48.35 9.7 -50.25 7.45 -53.3 M-1.55 -48.05 L-1.55 -48.1 -1.6 -48.15 -1.8 -49.8 -1.6 -50.25 -1.35 -47.9 -1.55 -48.05 M4.45 -45.95 Q0.2 -45.25 -1.3 -47.85 L1.65 -46.15 4.45 -45.95" fill="url(#gradient0)" fill-rule="evenodd" stroke="none"/>
    <path d="M14.7 -47.6 L20.05 -53.25 21.7 -51.65 21.25 -51.0 19.6 -49.3 16.35 -46.0 14.7 -47.6" fill="url(#gradient1)" fill-rule="evenodd" stroke="none"/>
    <path d="M21.25 -51.0 L22.85 -50.45 35.35 -64.35 33.35 -61.35 23.1 -48.75 19.6 -49.3 21.25 -51.0" fill="url(#gradient2)" fill-rule="evenodd" stroke="none"/>
    <path d="M9.85 -42.5 L14.7 -47.6 16.35 -46.0 10.05 -39.45 9.95 -39.9 9.4 -40.45 9.85 -41.65 9.85 -42.5 M20.05 -53.25 L25.8 -59.0 Q28.1 -58.35 25.6 -56.5 L21.7 -51.65 20.05 -53.25 M-8.95 -19.4 L-18.75 -9.1 -18.95 -9.0 -19.5 -9.25 -20.15 -9.9 -20.4 -10.6 -8.95 -22.65 -8.95 -19.4" fill="url(#gradient3)" fill-rule="evenodd" stroke="none"/>
    <path d="M9.2 -46.05 L9.85 -44.2 9.85 -42.5 9.85 -41.65 9.4 -40.45 Q6.55 -38.3 0.3 -40.7 L0.3 -41.4 0.5 -41.4 2.15 -42.05 2.15 -42.35 2.3 -42.55 2.4 -43.45 Q7.75 -43.2 9.2 -46.05 M-1.55 -47.3 L-1.4 -47.4 -1.35 -47.2 -1.55 -47.3" fill="url(#gradient4)" fill-rule="evenodd" stroke="none"/>
    <path d="M8.7 -48.35 Q9.2 -49.15 9.5 -50.2 L9.85 -47.9 9.2 -46.05 Q7.75 -43.2 2.4 -43.45 L2.35 -43.45 2.4 -43.75 Q-1.6 -46.55 -1.35 -47.2 L-1.4 -47.4 -1.55 -48.05 -1.35 -47.9 -1.3 -47.85 Q0.2 -45.25 4.45 -45.95 L5.15 -46.05 5.2 -46.05 5.35 -46.15 5.4 -46.15 Q6.55 -46.5 7.35 -46.95 8.25 -47.55 8.7 -48.35" fill="url(#gradient5)" fill-rule="evenodd" stroke="none"/>
    <path d="M7.45 -53.3 Q9.7 -50.25 8.7 -48.35 8.25 -47.55 7.35 -46.95 6.55 -46.5 5.4 -46.15 L5.35 -46.15 5.2 -46.05 5.15 -46.05 4.45 -45.95 1.65 -46.15 -1.3 -47.85 -1.35 -47.9 -1.6 -50.25 Q2.8 -58.7 7.45 -53.3" fill="url(#gradient6)" fill-rule="evenodd" stroke="none"/>
    <path d="M2.15 -42.95 L2.15 -42.35 2.15 -42.05 0.5 -41.4 0.6 -42.3 2.15 -42.95" fill="url(#gradient7)" fill-rule="evenodd" stroke="none"/>
    <path d="M2.15 -42.35 L2.15 -42.95 2.35 -43.45 2.4 -43.45 2.3 -42.55 2.15 -42.35" fill="url(#gradient8)" fill-rule="evenodd" stroke="none"/>
    <path d="M-3.3 -47.1 L-2.5 -47.4 -1.55 -47.3 -1.35 -47.2 Q-1.6 -46.55 2.4 -43.75 L2.35 -43.45 2.15 -42.95 0.6 -42.3 0.5 -41.4 0.3 -41.4 -1.8 -42.2 -2.3 -42.55 Q-4.15 -43.45 -4.45 -45.35 L-4.3 -46.0 -4.05 -46.75 -3.3 -47.1" fill="url(#gradient9)" fill-rule="evenodd" stroke="none"/>
    <path d="M10.05 -39.45 Q12.15 -33.85 11.45 -32.9 L11.4 -32.7 11.4 -32.65 11.0 -31.4 10.8 -30.7 9.95 -29.65 10.1 -30.6 Q11.65 -35.85 7.05 -36.9 2.3 -37.15 1.5 -33.4 L0.9 -31.4 0.8 -31.25 0.8 -31.15 Q0.5 -30.95 0.6 -29.55 L0.9 -29.3 1.0 -28.6 1.7 -26.85 Q-0.7 -24.4 -0.4 -21.5 L-0.7 -19.85 -0.55 -18.7 -0.55 -17.55 -0.65 -16.8 -0.95 -15.7 -0.95 -14.65 -0.6 -10.3 Q-3.95 -6.55 0.5 -4.75 5.6 -5.35 3.0 -9.95 L4.8 -13.55 4.9 -14.65 4.8 -16.15 4.5 -16.8 5.65 -17.6 6.5 -18.5 5.65 -14.65 5.6 -13.95 5.45 -10.7 5.45 -8.05 4.8 -7.35 4.15 -6.8 3.85 -6.25 Q1.9 0.55 -4.65 0.45 L-5.25 0.4 -8.35 -1.25 -9.8 -4.6 -10.1 -7.6 -9.3 -12.8 -9.5 -9.85 Q-5.5 -8.65 -5.3 -5.05 L-4.6 -12.9 -4.75 -28.6 Q-5.05 -30.3 -3.9 -34.75 L-1.95 -37.85 -1.05 -38.0 0.35 -39.7 0.3 -40.7 Q6.55 -38.3 9.4 -40.45 L9.95 -39.9 10.05 -39.45 M9.4 -27.7 Q10.35 -22.95 11.6 -19.7 L11.75 -17.6 11.9 -16.25 11.45 -11.25 11.0 -8.55 10.7 -6.7 10.5 -4.7 10.35 -4.6 10.1 -6.35 9.95 -7.85 9.65 -10.7 9.4 -13.4 9.15 -14.65 Q9.15 -16.1 8.15 -18.45 L7.0 -19.25 Q9.05 -22.75 8.45 -26.1 L9.4 -27.7 M-8.8 -36.4 L-8.75 -38.55 -8.55 -38.85 -8.0 -39.1 -8.25 -38.75 -8.8 -36.4 M-4.3 -46.0 L-4.45 -45.35 -5.5 -45.2 -4.3 -46.0 M-5.9 -44.9 L-6.9 -43.5 -6.75 -40.95 -7.85 -39.35 -8.0 -39.35 -7.9 -39.45 -7.7 -39.85 -8.4 -39.3 -8.55 -39.75 -7.5 -42.55 -7.25 -43.45 -5.9 -44.9" fill="url(#gradient10)" fill-rule="evenodd" stroke="none"/>
    <path d="M7.2 -36.4 L7.05 -36.9 Q11.65 -35.85 10.1 -30.6 10.3 -34.7 7.2 -36.4" fill="url(#gradient11)" fill-rule="evenodd" stroke="none"/>
    <path d="M7.05 -36.9 L7.2 -36.4 Q4.4 -37.65 1.5 -33.4 2.3 -37.15 7.05 -36.9 M0.8 -31.25 L0.9 -31.4 0.9 -31.25 0.8 -31.25 M0.8 -31.15 L0.9 -31.15 0.9 -29.3 0.6 -29.55 Q0.5 -30.95 0.8 -31.15" fill="url(#gradient12)" fill-rule="evenodd" stroke="none"/>
    <path d="M2.45 -25.8 L1.5 -24.35 1.0 -23.0 0.25 -22.5 -0.4 -21.5 Q-0.7 -24.4 1.7 -26.85 L2.45 -25.8" fill="url(#gradient13)" fill-rule="evenodd" stroke="none"/>
    <path d="M9.95 -29.65 L9.4 -27.7 8.45 -26.1 7.35 -25.25 Q2.3 -26.4 2.45 -25.8 L1.7 -26.85 1.0 -28.6 0.9 -29.3 0.9 -31.15 0.9 -31.25 0.9 -31.4 1.5 -33.4 Q4.4 -37.65 7.2 -36.4 10.3 -34.7 10.1 -30.6 L9.95 -29.65" fill="url(#gradient14)" fill-rule="evenodd" stroke="none"/>
    <path d="M1.0 -23.0 L1.5 -24.35 2.45 -25.8 Q2.3 -26.4 7.35 -25.25 8.45 -18.8 2.65 -17.8 L1.85 -18.3 1.15 -19.2 1.05 -19.6 0.8 -21.25 1.0 -23.0" fill="url(#gradient15)" fill-rule="evenodd" stroke="none"/>
    <path d="M2.65 -17.8 Q8.45 -18.8 7.35 -25.25 L8.45 -26.1 Q9.05 -22.75 7.0 -19.25 L6.5 -18.5 5.65 -17.6 4.5 -16.8 3.85 -17.3 2.65 -17.15 2.65 -17.8" fill="url(#gradient16)" fill-rule="evenodd" stroke="none"/>
    <path d="M11.4 -32.65 L11.4 -32.05 11.0 -31.4 11.4 -32.65" fill="url(#gradient17)" fill-rule="evenodd" stroke="none"/>
    <path d="M11.75 -17.6 L12.65 -15.75 Q12.95 -14.75 12.8 -13.3 L12.25 -11.85 11.45 -11.25 11.9 -16.25 11.75 -17.6 M9.4 -13.4 L9.65 -10.7 7.55 -10.8 7.3 -11.3 7.3 -11.95 7.7 -12.95 8.2 -12.95 9.4 -13.4" fill="url(#gradient18)" fill-rule="evenodd" stroke="none"/>
    <path d="M12.8 -13.3 Q13.05 -12.35 12.7 -11.3 L12.15 -9.95 11.95 -9.5 11.0 -8.55 11.45 -11.25 12.25 -11.85 12.8 -13.3 M9.65 -10.7 L9.95 -7.85 5.45 -8.05 5.45 -10.7 5.95 -10.35 Q6.8 -10.25 7.55 -10.8 L9.65 -10.7" fill="url(#gradient19)" fill-rule="evenodd" stroke="none"/>
    <path d="M7.0 -19.25 L8.15 -18.45 Q9.15 -16.1 9.15 -14.65 L9.4 -13.4 8.2 -12.95 7.7 -12.95 5.6 -13.95 5.65 -14.65 6.5 -18.5 7.0 -19.25" fill="url(#gradient20)" fill-rule="evenodd" stroke="none"/>
    <path d="M1.05 -19.6 L1.15 -19.2 1.85 -18.3 2.65 -17.8 2.65 -17.15 Q-0.1 -15.05 -0.55 -17.55 L-0.55 -18.7 0.15 -18.8 1.05 -19.6" fill="url(#gradient21)" fill-rule="evenodd" stroke="none"/>
    <path d="M2.65 -17.15 L3.85 -17.3 4.5 -16.8 4.8 -16.15 4.9 -14.65 4.8 -13.55 3.0 -9.95 2.65 -9.25 Q1.9 -8.45 1.4 -8.6 L-0.35 -8.95 -0.6 -9.4 -0.6 -10.3 -0.95 -14.65 -0.95 -15.7 -0.65 -16.8 -0.55 -17.55 Q-0.1 -15.05 2.65 -17.15" fill="url(#gradient22)" fill-rule="evenodd" stroke="none"/>
    <path d="M5.6 -13.95 L7.7 -12.95 7.3 -11.95 7.3 -11.3 7.55 -10.8 Q6.8 -10.25 5.95 -10.35 L5.45 -10.7 5.6 -13.95" fill="url(#gradient23)" fill-rule="evenodd" stroke="none"/>
    <path d="M12.15 -9.95 L12.2 -9.65 11.9 -8.1 10.7 -6.7 11.0 -8.55 11.95 -9.5 12.15 -9.95 M9.95 -7.85 L10.1 -6.35 Q6.35 -5.1 4.8 -7.35 L5.45 -8.05 9.95 -7.85" fill="url(#gradient24)" fill-rule="evenodd" stroke="none"/>
    <path d="M12.2 -9.65 Q13.3 -8.75 12.85 -5.35 10.25 0.35 4.75 -3.85 L4.15 -5.2 3.85 -6.25 4.15 -6.8 4.8 -7.35 Q6.35 -5.1 10.1 -6.35 L10.35 -4.6 10.5 -4.7 10.7 -6.7 11.9 -8.1 12.2 -9.65" fill="url(#gradient25)" fill-rule="evenodd" stroke="none"/>
    <path d="M3.0 -9.95 Q5.6 -5.35 0.5 -4.75 -3.95 -6.55 -0.6 -10.3 L-0.6 -9.4 -0.35 -8.95 1.4 -8.6 Q1.9 -8.45 2.65 -9.25 L3.0 -9.95" fill="url(#gradient26)" fill-rule="evenodd" stroke="none"/>
    <path d="M12.85 -5.35 L12.9 -5.0 12.8 -3.85 12.45 -3.1 11.45 -1.65 Q10.25 -0.7 9.55 -0.75 L8.7 -0.6 7.3 -0.85 6.15 -1.55 6.1 -1.65 5.95 -1.75 5.15 -2.85 4.75 -3.85 Q10.25 0.35 12.85 -5.35" fill="url(#gradient27)" fill-rule="evenodd" stroke="none"/>
    <path d="M7.5 -0.5 L6.15 -1.55 7.3 -0.85 8.7 -0.6 9.55 -0.75 Q10.25 -0.7 11.45 -1.65 L12.45 -3.1 12.2 -2.05 11.25 -0.9 9.95 -0.3 8.2 -0.3 7.5 -0.5" fill="url(#gradient28)" fill-rule="evenodd" stroke="none"/>
    <path d="M12.9 -5.0 Q14.45 -5.95 15.7 -2.85 L12.8 -0.05 Q7.4 4.0 7.5 -0.5 L8.2 -0.3 Q9.75 0.95 11.1 -0.75 L11.25 -0.9 12.2 -2.05 12.45 -3.1 12.8 -3.85 12.9 -5.0" fill="url(#gradient29)" fill-rule="evenodd" stroke="none"/>
    <path d="M8.2 -0.3 L9.95 -0.3 11.25 -0.9 11.1 -0.75 Q9.75 0.95 8.2 -0.3" fill="url(#gradient30)" fill-rule="evenodd" stroke="none"/>
    <path d="M-9.0 -40.2 Q-11.2 -48.1 -3.3 -47.1 L-4.05 -46.75 -4.3 -46.0 -5.5 -45.2 -5.9 -44.9 -7.25 -43.45 -7.5 -42.55 -8.55 -39.75 -8.95 -40.15 -9.0 -40.2" fill="url(#gradient31)" fill-rule="evenodd" stroke="none"/>
    <path d="M0.3 -40.7 L0.35 -39.7 -0.45 -40.1 -1.75 -38.35 -3.65 -37.9 -4.1 -38.1 -5.0 -38.75 -6.2 -40.0 -6.75 -40.95 -6.9 -43.5 -5.9 -44.9 -5.5 -45.2 -4.45 -45.35 Q-4.15 -43.45 -2.3 -42.55 L-1.8 -42.2 0.3 -41.4 0.3 -40.7" fill="url(#gradient32)" fill-rule="evenodd" stroke="none"/>
    <path d="M-9.0 -40.15 L-9.0 -40.2 -8.95 -40.15 -9.0 -40.15" fill="url(#gradient33)" fill-rule="evenodd" stroke="none"/>
    <path d="M-8.75 -38.55 L-9.0 -39.3 -9.0 -40.15 -8.95 -40.15 -8.55 -39.75 -8.4 -39.3 -8.5 -39.25 -8.55 -38.95 -8.55 -38.85 -8.75 -38.55" fill="url(#gradient34)" fill-rule="evenodd" stroke="none"/>
    <path d="M-8.4 -39.3 L-7.7 -39.85 -7.9 -39.45 -8.0 -39.35 -8.1 -39.3 -8.5 -39.25 -8.4 -39.3" fill="url(#gradient35)" fill-rule="evenodd" stroke="none"/>
    <path d="M-8.0 -39.35 L-7.85 -39.35 -8.0 -39.1 -8.55 -38.85 -8.55 -38.95 -8.1 -39.3 -8.0 -39.35" fill="url(#gradient36)" fill-rule="evenodd" stroke="none"/>
    <path d="M-8.1 -39.3 L-8.55 -38.95 -8.5 -39.25 -8.1 -39.3" fill="url(#gradient37)" fill-rule="evenodd" stroke="none"/>
    <path d="M-9.3 -12.8 L-8.95 -19.4 -8.95 -22.65 -9.15 -32.25 Q-9.15 -35.55 -8.8 -36.4 L-8.25 -38.75 -8.0 -39.1 -7.85 -39.35 -6.75 -40.95 -6.2 -40.0 Q-9.55 -35.8 -8.65 -28.6 -8.1 -19.25 -8.3 -15.05 L-7.1 -14.65 Q-6.2 -14.45 -5.9 -12.9 L-6.15 -32.05 Q-5.25 -34.6 -5.6 -35.45 -5.4 -35.05 -4.55 -36.7 L-4.1 -38.1 -3.65 -37.9 -3.3 -37.75 -1.95 -37.85 -3.9 -34.75 Q-5.05 -30.3 -4.75 -28.6 L-4.6 -12.9 -5.3 -5.05 Q-5.5 -8.65 -9.5 -9.85 L-9.3 -12.8" fill="url(#gradient38)" fill-rule="evenodd" stroke="none"/>
    <path d="M-6.2 -40.0 L-5.0 -38.75 -4.1 -38.1 -4.55 -36.7 Q-5.4 -35.05 -5.6 -35.45 -5.25 -34.6 -6.15 -32.05 L-5.9 -12.9 Q-6.2 -14.45 -7.1 -14.65 L-8.3 -15.05 Q-8.1 -19.25 -8.65 -28.6 -9.55 -35.8 -6.2 -40.0" fill="url(#gradient39)" fill-rule="evenodd" stroke="none"/>
    <path d="M0.35 -39.7 L-1.05 -38.0 -1.75 -38.35 -0.45 -40.1 0.35 -39.7" fill="url(#gradient40)" fill-rule="evenodd" stroke="none"/>
    <path d="M-1.05 -38.0 L-1.95 -37.85 -3.3 -37.75 -3.65 -37.9 -1.75 -38.35 -1.05 -38.0" fill="url(#gradient41)" fill-rule="evenodd" stroke="none"/>
    <path d="M0.8 -31.15 L0.8 -31.25 0.9 -31.25 0.9 -31.15 0.8 -31.15" fill="url(#gradient42)" fill-rule="evenodd" stroke="none"/>
    <path d="M-18.75 -9.1 L-18.8 -8.95 -18.95 -9.0 -18.75 -9.1 M-20.5 -10.55 L-20.4 -10.6 -20.15 -9.9 -20.5 -10.55" fill="url(#gradient43)" fill-rule="evenodd" stroke="none"/>
    <path d="M-18.8 -8.95 L-28.4 1.25 -28.7 1.3 -29.3 1.05 Q-30.35 0.15 -30.25 -0.3 L-20.5 -10.55 -20.15 -9.9 -19.5 -9.25 -18.95 -9.0 -18.8 -8.95" fill="url(#gradient44)" fill-rule="evenodd" stroke="none"/>
    <path d="M-0.4 -21.5 L0.25 -22.5 1.0 -23.0 0.8 -21.25 1.05 -19.6 0.15 -18.8 -0.55 -18.7 -0.7 -19.85 -0.4 -21.5" fill="url(#gradient45)" fill-rule="evenodd" stroke="none"/>
    <path d="M-10.6 -5.75 L-10.1 -7.6 -9.8 -4.6 -9.95 -4.55 -10.35 -5.05 -10.25 -5.25 -10.5 -5.25 -10.6 -5.75" fill="url(#gradient46)" fill-rule="evenodd" stroke="none"/>
    <path d="M-12.2 -1.05 L-11.8 -3.65 Q-11.15 -5.45 -10.6 -5.75 L-10.5 -5.25 -10.25 -5.25 -10.35 -5.05 -9.95 -4.55 -9.8 -4.6 -8.35 -1.25 -5.25 0.4 -4.65 0.45 Q-8.1 2.1 -11.85 -0.75 L-12.0 -1.05 -12.2 -1.05" fill="url(#gradient47)" fill-rule="evenodd" stroke="none"/>
    <path d="M-4.65 0.45 Q-6.3 4.35 -8.55 4.35 L-10.0 4.3 -11.7 3.15 -12.45 1.25 Q-12.6 -0.05 -12.2 -1.05 L-12.0 -1.05 -11.85 -0.75 Q-8.1 2.1 -4.65 0.45" fill="url(#gradient48)" fill-rule="evenodd" stroke="none"/>
    <path d="M-8.55 4.35 L-9.05 5.65 Q-9.35 7.45 -12.55 5.25 L-11.7 3.15 -10.0 4.3 -8.55 4.35" fill="url(#gradient49)" fill-rule="evenodd" stroke="none"/>
    <path d="M-9.05 5.65 Q-2.6 8.1 -10.5 10.15 -16.75 7.6 -12.55 5.25 -9.35 7.45 -9.05 5.65" fill="url(#gradient50)" fill-rule="evenodd" stroke="none"/>
  </g>
  <defs>
    <radialGradient cx="0" cy="0" gradientTransform="matrix(0.0101, 0.0, 0.0, 0.0101, 4.35, -45.9)" gradientUnits="userSpaceOnUse" id="gradient0" r="819.2" spreadMethod="pad">
      <stop offset="0.0" stop-color="#35536f"/>
      <stop offset="1.0" stop-color="#34516d"/>
    </radialGradient>
    <radialGradient cx="0" cy="0" gradientTransform="matrix(0.0095, 0.0, 0.0, 0.0095, 15.45, -46.95)" gradientUnits="userSpaceOnUse" id="gradient1" r="819.2" spreadMethod="pad">
      <stop offset="0.0" stop-color="#ffffd4"/>
      <stop offset="1.0" stop-color="#b5ac8c"/>
    </radialGradient>
    <radialGradient cx="0" cy="0" gradientTransform="matrix(0.0232, 0.0, 0.0, 0.0232, 22.95, -50.25)" gradientUnits="userSpaceOnUse" id="gradient2" r="819.2" spreadMethod="pad">
      <stop offset="0.0" stop-color="#804925"/>
      <stop offset="1.0" stop-color="#512e17"/>
    </radialGradient>
    <radialGradient cx="0" cy="0" gradientTransform="matrix(0.09, 0.0, 0.0, 0.09, 26.3, -58.65)" gradientUnits="userSpaceOnUse" id="gradient3" r="819.2" spreadMethod="pad">
      <stop offset="0.0" stop-color="#7f4825"/>
      <stop offset="1.0" stop-color="#653a1d"/>
    </radialGradient>
    <radialGradient cx="0" cy="0" gradientTransform="matrix(0.0094, 0.0, 0.0, 0.0094, 2.7, -42.3)" gradientUnits="userSpaceOnUse" id="gradient4" r="819.2" spreadMethod="pad">
      <stop offset="0.0" stop-color="#3e6283"/>
      <stop offset="1.0" stop-color="#293f55"/>
    </radialGradient>
    <radialGradient cx="0" cy="0" gradientTransform="matrix(0.0131, 0.0, 0.0, 0.0131, 9.05, -47.9)" gradientUnits="userSpaceOnUse" id="gradient5" r="819.2" spreadMethod="pad">
      <stop offset="0.0" stop-color="#2a4259"/>
      <stop offset="1.0" stop-color="#24374b"/>
    </radialGradient>
    <radialGradient cx="0" cy="0" gradientTransform="matrix(0.0071, 0.0, 0.0, 0.0071, 3.9, -49.6)" gradientUnits="userSpaceOnUse" id="gradient6" r="819.2" spreadMethod="pad">
      <stop offset="0.0" stop-color="#f6e9bd"/>
      <stop offset="1.0" stop-color="#7f7962"/>
    </radialGradient>
    <radialGradient cx="0" cy="0" gradientTransform="matrix(0.0021, 0.0, 0.0, 0.0021, 0.45, -42.4)" gradientUnits="userSpaceOnUse" id="gradient7" r="819.2" spreadMethod="pad">
      <stop offset="0.0" stop-color="#263b4f"/>
      <stop offset="1.0" stop-color="#263b4f"/>
    </radialGradient>
    <radialGradient cx="0" cy="0" gradientTransform="matrix(0.0026, 0.0, 0.0, 0.0026, 2.05, -42.2)" gradientUnits="userSpaceOnUse" id="gradient8" r="819.2" spreadMethod="pad">
      <stop offset="0.0" stop-color="#273d52"/>
      <stop offset="1.0" stop-color="#253a4f"/>
    </radialGradient>
    <radialGradient cx="0" cy="0" gradientTransform="matrix(0.0078, 0.0, 0.0, 0.0078, 0.45, -42.4)" gradientUnits="userSpaceOnUse" id="gradient9" r="819.2" spreadMethod="pad">
      <stop offset="0.0" stop-color="#3e6082"/>
      <stop offset="1.0" stop-color="#283f54"/>
    </radialGradient>
    <radialGradient cx="0" cy="0" gradientTransform="matrix(0.0489, 0.0, 0.0, 0.0489, 1.4, -39.15)" gradientUnits="userSpaceOnUse" id="gradient10" r="819.2" spreadMethod="pad">
      <stop offset="0.0" stop-color="#ffcc00"/>
      <stop offset="1.0" stop-color="#ff9200"/>
    </radialGradient>
    <radialGradient cx="0" cy="0" gradientTransform="matrix(0.0086, 0.0, 0.0, 0.0086, 7.1, -36.9)" gradientUnits="userSpaceOnUse" id="gradient11" r="819.2" spreadMethod="pad">
      <stop offset="0.0" stop-color="#655e49"/>
      <stop offset="1.0" stop-color="#413d2f"/>
    </radialGradient>
    <radialGradient cx="0" cy="0" gradientTransform="matrix(0.011, 0.0, 0.0, 0.011, 3.25, -37.55)" gradientUnits="userSpaceOnUse" id="gradient12" r="819.2" spreadMethod="pad">
      <stop offset="0.0" stop-color="#ffd77d"/>
      <stop offset="1.0" stop-color="#d89859"/>
    </radialGradient>
    <radialGradient cx="0" cy="0" gradientTransform="matrix(0.0078, 0.0, 0.0, 0.0078, 2.8, -26.05)" gradientUnits="userSpaceOnUse" id="gradient13" r="819.2" spreadMethod="pad">
      <stop offset="0.0" stop-color="#ffd77d"/>
      <stop offset="1.0" stop-color="#c78c52"/>
    </radialGradient>
    <radialGradient cx="0" cy="0" gradientTransform="matrix(0.0098, 0.0, 0.0, 0.0098, 5.25, -32.7)" gradientUnits="userSpaceOnUse" id="gradient14" r="819.2" spreadMethod="pad">
      <stop offset="0.0" stop-color="#635d48"/>
      <stop offset="1.0" stop-color="#353226"/>
    </radialGradient>
    <radialGradient cx="0" cy="0" gradientTransform="matrix(0.0099, 0.0, 0.0, 0.0099, 4.4, -25.75)" gradientUnits="userSpaceOnUse" id="gradient15" r="819.2" spreadMethod="pad">
      <stop offset="0.0" stop-color="#ffd67c"/>
      <stop offset="1.0" stop-color="#90663b"/>
    </radialGradient>
    <radialGradient cx="0" cy="0" gradientTransform="matrix(0.0097, 0.0, 0.0, 0.0097, 2.0, -24.25)" gradientUnits="userSpaceOnUse" id="gradient16" r="819.2" spreadMethod="pad">
      <stop offset="0.0" stop-color="#fcb167"/>
      <stop offset="1.0" stop-color="#805a34"/>
    </radialGradient>
    <radialGradient cx="0" cy="0" gradientTransform="matrix(0.0035, 0.0, 0.0, 0.0035, 11.5, -33.65)" gradientUnits="userSpaceOnUse" id="gradient17" r="819.2" spreadMethod="pad">
      <stop offset="0.0" stop-color="#eb7600"/>
      <stop offset="1.0" stop-color="#d16900"/>
    </radialGradient>
    <radialGradient cx="0" cy="0" gradientTransform="matrix(0.0059, 0.0, 0.0, 0.0059, 8.65, -14.3)" gradientUnits="userSpaceOnUse" id="gradient18" r="819.2" spreadMethod="pad">
      <stop offset="0.0" stop-color="#334f6a"/>
      <stop offset="1.0" stop-color="#23374a"/>
    </radialGradient>
    <radialGradient cx="0" cy="0" gradientTransform="matrix(0.0062, 0.0, 0.0, 0.0062, 7.95, -12.0)" gradientUnits="userSpaceOnUse" id="gradient19" r="819.2" spreadMethod="pad">
      <stop offset="0.0" stop-color="#385876"/>
      <stop offset="1.0" stop-color="#203244"/>
    </radialGradient>
    <radialGradient cx="0" cy="0" gradientTransform="matrix(0.0103, 0.0, 0.0, 0.0103, 6.65, -21.0)" gradientUnits="userSpaceOnUse" id="gradient20" r="819.2" spreadMethod="pad">
      <stop offset="0.0" stop-color="#3d6080"/>
      <stop offset="1.0" stop-color="#1c2c3c"/>
    </radialGradient>
    <radialGradient cx="0" cy="0" gradientTransform="matrix(0.0049, 0.0, 0.0, 0.0049, 0.85, -20.15)" gradientUnits="userSpaceOnUse" id="gradient21" r="819.2" spreadMethod="pad">
      <stop offset="0.0" stop-color="#ffcc76"/>
      <stop offset="1.0" stop-color="#a47443"/>
    </radialGradient>
    <radialGradient cx="0" cy="0" gradientTransform="matrix(0.01, 0.0, 0.0, 0.01, 1.55, -16.65)" gradientUnits="userSpaceOnUse" id="gradient22" r="819.2" spreadMethod="pad">
      <stop offset="0.0" stop-color="#665f4a"/>
      <stop offset="1.0" stop-color="#312e24"/>
    </radialGradient>
    <radialGradient cx="0" cy="0" gradientTransform="matrix(0.0069, 0.0, 0.0, 0.0069, 6.25, -14.9)" gradientUnits="userSpaceOnUse" id="gradient23" r="819.2" spreadMethod="pad">
      <stop offset="0.0" stop-color="#273c51"/>
      <stop offset="1.0" stop-color="#1a2a39"/>
    </radialGradient>
    <radialGradient cx="0" cy="0" gradientTransform="matrix(0.0057, 0.0, 0.0, 0.0057, 9.05, -8.35)" gradientUnits="userSpaceOnUse" id="gradient24" r="819.2" spreadMethod="pad">
      <stop offset="0.0" stop-color="#5b5542"/>
      <stop offset="1.0" stop-color="#2e2b21"/>
    </radialGradient>
    <radialGradient cx="0" cy="0" gradientTransform="matrix(0.006, 0.0, 0.0, 0.006, 8.45, -7.0)" gradientUnits="userSpaceOnUse" id="gradient25" r="819.2" spreadMethod="pad">
      <stop offset="0.0" stop-color="#406487"/>
      <stop offset="1.0" stop-color="#182633"/>
    </radialGradient>
    <radialGradient cx="0" cy="0" gradientTransform="matrix(0.0044, 0.0, 0.0, 0.0044, 1.05, -8.5)" gradientUnits="userSpaceOnUse" id="gradient26" r="819.2" spreadMethod="pad">
      <stop offset="0.0" stop-color="#ffe485"/>
      <stop offset="1.0" stop-color="#95693d"/>
    </radialGradient>
    <radialGradient cx="0" cy="0" gradientTransform="matrix(0.0081, 0.0, 0.0, 0.0081, 11.1, -3.65)" gradientUnits="userSpaceOnUse" id="gradient27" r="819.2" spreadMethod="pad">
      <stop offset="0.0" stop-color="#2a4158"/>
      <stop offset="1.0" stop-color="#1a2937"/>
    </radialGradient>
    <radialGradient cx="0" cy="0" gradientTransform="matrix(0.0081, 0.0, 0.0, 0.0081, 12.4, -3.6)" gradientUnits="userSpaceOnUse" id="gradient28" r="819.2" spreadMethod="pad">
      <stop offset="0.0" stop-color="#233649"/>
      <stop offset="1.0" stop-color="#121c26"/>
    </radialGradient>
    <radialGradient cx="0" cy="0" gradientTransform="matrix(0.0085, 0.0, 0.0, 0.0085, 9.35, -0.55)" gradientUnits="userSpaceOnUse" id="gradient29" r="819.2" spreadMethod="pad">
      <stop offset="0.0" stop-color="#6a634d"/>
      <stop offset="1.0" stop-color="#4e4939"/>
    </radialGradient>
    <radialGradient cx="0" cy="0" gradientTransform="matrix(0.0048, 0.0, 0.0, 0.0048, 11.2, -2.4)" gradientUnits="userSpaceOnUse" id="gradient30" r="819.2" spreadMethod="pad">
      <stop offset="0.0" stop-color="#343126"/>
      <stop offset="1.0" stop-color="#1f1d17"/>
    </radialGradient>
    <radialGradient cx="0" cy="0" gradientTransform="matrix(0.0072, 0.0, 0.0, 0.0072, -5.7, -44.9)" gradientUnits="userSpaceOnUse" id="gradient31" r="819.2" spreadMethod="pad">
      <stop offset="0.0" stop-color="#665f4a"/>
      <stop offset="1.0" stop-color="#333025"/>
    </radialGradient>
    <radialGradient cx="0" cy="0" gradientTransform="matrix(0.0089, 0.0, 0.0, 0.0089, -0.5, -40.15)" gradientUnits="userSpaceOnUse" id="gradient32" r="819.2" spreadMethod="pad">
      <stop offset="0.0" stop-color="#3e6182"/>
      <stop offset="1.0" stop-color="#2b435a"/>
    </radialGradient>
    <radialGradient cx="0" cy="0" gradientTransform="matrix(0.004, 0.0, 0.0, 0.004, -9.85, -42.75)" gradientUnits="userSpaceOnUse" id="gradient33" r="819.2" spreadMethod="pad">
      <stop offset="0.0" stop-color="#0c0c09"/>
      <stop offset="1.0" stop-color="#0c0c09"/>
    </radialGradient>
    <radialGradient cx="0" cy="0" gradientTransform="matrix(0.0024, 0.0, 0.0, 0.0024, -7.95, -40.15)" gradientUnits="userSpaceOnUse" id="gradient34" r="819.2" spreadMethod="pad">
      <stop offset="0.0" stop-color="#ffb569"/>
      <stop offset="1.0" stop-color="#ae7a47"/>
    </radialGradient>
    <radialGradient cx="0" cy="0" gradientTransform="matrix(0.002, 0.0, 0.0, 0.002, -7.3, -40.3)" gradientUnits="userSpaceOnUse" id="gradient35" r="819.2" spreadMethod="pad">
      <stop offset="0.0" stop-color="#ff8900"/>
      <stop offset="1.0" stop-color="#e17000"/>
    </radialGradient>
    <radialGradient cx="0" cy="0" gradientTransform="matrix(0.0021, 0.0, 0.0, 0.0021, -7.2, -39.75)" gradientUnits="userSpaceOnUse" id="gradient36" r="819.2" spreadMethod="pad">
      <stop offset="0.0" stop-color="#ff8400"/>
      <stop offset="1.0" stop-color="#e07100"/>
    </radialGradient>
    <radialGradient cx="0" cy="0" gradientTransform="matrix(9.0E-4, 0.0, 0.0, 9.0E-4, -8.1, -39.5)" gradientUnits="userSpaceOnUse" id="gradient37" r="819.2" spreadMethod="pad">
      <stop offset="0.0" stop-color="#da6d00"/>
      <stop offset="1.0" stop-color="#a65300"/>
    </radialGradient>
    <radialGradient cx="0" cy="0" gradientTransform="matrix(0.0405, 0.0, 0.0, 0.0405, -2.0, -38.05)" gradientUnits="userSpaceOnUse" id="gradient38" r="819.2" spreadMethod="pad">
      <stop offset="0.0" stop-color="#395978"/>
      <stop offset="1.0" stop-color="#23374a"/>
    </radialGradient>
    <radialGradient cx="0" cy="0" gradientTransform="matrix(0.0326, 0.0, 0.0, 0.0326, -3.25, -38.9)" gradientUnits="userSpaceOnUse" id="gradient39" r="819.2" spreadMethod="pad">
      <stop offset="0.0" stop-color="#ede1b7"/>
      <stop offset="1.0" stop-color="#8e876d"/>
    </radialGradient>
    <radialGradient cx="0" cy="0" gradientTransform="matrix(0.003, 0.0, 0.0, 0.003, -1.8, -38.45)" gradientUnits="userSpaceOnUse" id="gradient40" r="819.2" spreadMethod="pad">
      <stop offset="0.0" stop-color="#253a4e"/>
      <stop offset="1.0" stop-color="#253a4e"/>
    </radialGradient>
    <radialGradient cx="0" cy="0" gradientTransform="matrix(0.0033, 0.0, 0.0, 0.0033, -3.7, -38.0)" gradientUnits="userSpaceOnUse" id="gradient41" r="819.2" spreadMethod="pad">
      <stop offset="0.0" stop-color="#101921"/>
      <stop offset="1.0" stop-color="#0f171f"/>
    </radialGradient>
    <radialGradient cx="0" cy="0" gradientTransform="matrix(0.0076, 0.0, 0.0, 0.0076, 1.1, -32.45)" gradientUnits="userSpaceOnUse" id="gradient42" r="819.2" spreadMethod="pad">
      <stop offset="0.0" stop-color="#0c0c09"/>
      <stop offset="1.0" stop-color="#0c0c09"/>
    </radialGradient>
    <radialGradient cx="0" cy="0" gradientTransform="matrix(0.0028, 0.0, 0.0, 0.0028, -18.8, -9.15)" gradientUnits="userSpaceOnUse" id="gradient43" r="819.2" spreadMethod="pad">
      <stop offset="0.0" stop-color="#8e876e"/>
      <stop offset="1.0" stop-color="#8e876d"/>
    </radialGradient>
    <radialGradient cx="0" cy="0" gradientTransform="matrix(0.0173, 0.0, 0.0, 0.0173, -19.9, -9.65)" gradientUnits="userSpaceOnUse" id="gradient44" r="819.2" spreadMethod="pad">
      <stop offset="0.0" stop-color="#fff9ca"/>
      <stop offset="1.0" stop-color="#d1c7a2"/>
    </radialGradient>
    <radialGradient cx="0" cy="0" gradientTransform="matrix(0.0051, 0.0, 0.0, 0.0051, 0.95, -22.6)" gradientUnits="userSpaceOnUse" id="gradient45" r="819.2" spreadMethod="pad">
      <stop offset="0.0" stop-color="#ffd87d"/>
      <stop offset="1.0" stop-color="#bd854d"/>
    </radialGradient>
    <radialGradient cx="0" cy="0" gradientTransform="matrix(0.0026, 0.0, 0.0, 0.0026, -9.6, -6.15)" gradientUnits="userSpaceOnUse" id="gradient46" r="819.2" spreadMethod="pad">
      <stop offset="0.0" stop-color="#2d465e"/>
      <stop offset="1.0" stop-color="#263b50"/>
    </radialGradient>
    <radialGradient cx="0" cy="0" gradientTransform="matrix(0.0066, 0.0, 0.0, 0.0066, -8.7, -3.3)" gradientUnits="userSpaceOnUse" id="gradient47" r="819.2" spreadMethod="pad">
      <stop offset="0.0" stop-color="#43698d"/>
      <stop offset="1.0" stop-color="#253a4d"/>
    </radialGradient>
    <radialGradient cx="0" cy="0" gradientTransform="matrix(0.0053, 0.0, 0.0, 0.0053, -8.95, 0.2)" gradientUnits="userSpaceOnUse" id="gradient48" r="819.2" spreadMethod="pad">
      <stop offset="0.0" stop-color="#406588"/>
      <stop offset="1.0" stop-color="#23384b"/>
    </radialGradient>
    <radialGradient cx="0" cy="0" gradientTransform="matrix(0.0049, 0.0, 0.0, 0.0049, -10.65, 3.55)" gradientUnits="userSpaceOnUse" id="gradient49" r="819.2" spreadMethod="pad">
      <stop offset="0.0" stop-color="#635c48"/>
      <stop offset="1.0" stop-color="#433f30"/>
    </radialGradient>
    <radialGradient cx="0" cy="0" gradientTransform="matrix(0.0066, 0.0, 0.0, 0.0066, -11.55, 6.35)" gradientUnits="userSpaceOnUse" id="gradient50" r="819.2" spreadMethod="pad">
      <stop offset="0.0" stop-color="#726a52"/>
      <stop offset="1.0" stop-color="#413d2f"/>
    </radialGradient>
  </defs>
</svg>
