<?xml version="1.0" encoding="UTF-8" standalone="no"?>
<svg xmlns:ffdec="https://www.free-decompiler.com/flash" xmlns:xlink="http://www.w3.org/1999/xlink" ffdec:objectType="shape" height="79.65px" width="82.9px" xmlns="http://www.w3.org/2000/svg">
  <g transform="matrix(1.0, 0.0, 0.0, 1.0, 55.3, 68.45)">
    <path d="M0.2 -50.85 L0.65 -50.35 0.8 -49.2 0.8 -48.8 0.85 -47.25 0.85 -47.2 Q-0.5 -45.95 -2.0 -45.65 L-5.0 -45.95 -5.0 -46.55 Q-4.7 -46.5 -3.9 -47.85 L-3.7 -49.4 0.2 -50.85 M-7.6 -52.55 Q-5.7 -54.8 -2.0 -53.05 L-4.95 -51.9 -5.75 -52.3 -7.6 -52.55" fill="url(#gradient0)" fill-rule="evenodd" stroke="none"/>
    <path d="M9.85 -57.6 L10.1 -57.55 9.6 -57.45 9.85 -57.6 M10.6 -54.95 L10.6 -54.9 10.4 -54.9 10.6 -54.95" fill="url(#gradient1)" fill-rule="evenodd" stroke="none"/>
    <path d="M10.1 -57.55 L9.85 -57.6 12.8 -58.8 14.85 -58.8 15.1 -59.0 15.1 -59.65 15.9 -59.75 16.7 -59.0 16.85 -58.55 16.7 -57.45 16.25 -57.1 10.6 -54.9 10.6 -54.95 Q11.85 -55.85 10.45 -57.4 L10.3 -57.45 10.1 -57.55" fill="url(#gradient2)" fill-rule="evenodd" stroke="none"/>
    <path d="M9.6 -57.45 L10.1 -57.55 10.3 -57.45 10.45 -57.4 Q11.85 -55.85 10.6 -54.95 L10.4 -54.9 0.2 -50.85 -3.7 -49.4 -4.15 -50.95 -4.95 -51.9 -2.0 -53.05 9.6 -57.45 M16.7 -57.45 L16.85 -58.55 16.7 -59.0 15.9 -59.75 Q27.95 -62.35 16.7 -57.45 M-10.5 -46.7 L-36.2 -36.65 Q-35.6 -38.2 -37.45 -39.45 L-10.45 -49.85 Q-7.3 -49.35 -9.7 -47.0 L-10.5 -46.7" fill="url(#gradient3)" fill-rule="evenodd" stroke="none"/>
    <path d="M15.1 -59.65 L15.1 -59.0 14.85 -58.8 12.8 -58.8 12.95 -67.05 23.35 -68.4 27.6 -68.45 Q27.05 -67.95 14.65 -65.45 L15.1 -59.65" fill="url(#gradient4)" fill-rule="evenodd" stroke="none"/>
    <path d="M2.75 -48.25 L4.75 -47.2 Q5.9 -45.85 6.5 -43.75 L6.55 -43.7 6.5 -42.05 6.3 -41.9 6.05 -41.85 4.5 -42.65 3.65 -41.75 2.3 -42.6 2.25 -43.0 3.0 -43.25 4.0 -44.7 4.0 -45.05 3.7 -46.9 2.75 -48.25" fill="url(#gradient5)" fill-rule="evenodd" stroke="none"/>
    <path d="M0.8 -49.2 L2.75 -48.25 3.7 -46.9 4.0 -45.05 3.0 -44.05 1.05 -43.7 1.0 -42.95 0.05 -43.6 0.8 -45.65 1.0 -47.4 1.05 -48.0 0.8 -48.8 0.8 -49.2" fill="url(#gradient6)" fill-rule="evenodd" stroke="none"/>
    <path d="M-5.0 -45.95 L-2.0 -45.65 Q-0.5 -45.95 0.85 -47.2 L0.7 -46.75 -0.4 -45.95 -1.8 -45.65 -4.3 -45.5 -4.7 -45.65 -5.0 -45.65 -5.0 -45.95 M0.85 -47.25 L0.8 -48.8 1.05 -48.0 1.0 -47.4 0.85 -47.25" fill="url(#gradient7)" fill-rule="evenodd" stroke="none"/>
    <path d="M-9.7 -44.5 L-10.45 -45.65 -10.5 -46.7 -9.7 -47.0 -8.85 -46.25 -8.95 -45.65 -9.4 -44.25 -9.7 -44.5 M0.85 -47.2 L0.85 -47.25 1.0 -47.4 0.8 -45.65 0.05 -43.6 -0.9 -42.95 -2.65 -42.5 -4.85 -42.5 -5.1 -44.05 -5.0 -45.65 -4.7 -45.65 -4.3 -45.5 -1.8 -45.65 -0.4 -45.95 0.7 -46.75 0.85 -47.2" fill="url(#gradient8)" fill-rule="evenodd" stroke="none"/>
    <path d="M4.0 -45.05 L4.0 -44.7 3.0 -43.25 3.0 -44.05 4.0 -45.05" fill="url(#gradient9)" fill-rule="evenodd" stroke="none"/>
    <path d="M3.0 -43.25 L2.25 -43.0 1.0 -42.95 1.05 -43.7 3.0 -44.05 3.0 -43.25" fill="url(#gradient10)" fill-rule="evenodd" stroke="none"/>
    <path d="M-10.5 -39.3 Q-11.0 -41.5 -10.75 -42.2 L-9.7 -44.5 -9.4 -44.25 -10.05 -40.9 -10.05 -38.55 -10.15 -38.55 -10.45 -39.2 -10.5 -39.3 M2.25 -43.0 L2.3 -42.6 Q1.95 -39.8 -1.7 -37.9 L-2.35 -38.25 -4.35 -38.45 -4.3 -39.05 -4.8 -41.9 -3.35 -42.15 -2.65 -42.5 -0.9 -42.95 0.05 -43.6 1.0 -42.95 2.25 -43.0" fill="url(#gradient11)" fill-rule="evenodd" stroke="none"/>
    <path d="M6.15 -27.75 Q2.35 -19.05 6.95 -5.6 L6.5 -6.65 Q5.55 -8.65 4.3 -7.9 L4.15 -8.25 4.1 -9.6 3.65 -10.95 3.0 -13.55 2.85 -13.85 Q0.6 -22.6 -2.65 -14.8 L-3.55 -14.0 -4.05 -11.85 -4.05 -11.7 -4.15 -11.65 -4.35 -11.05 -5.3 -8.2 -5.95 -6.35 -6.35 -5.1 -6.4 -4.95 -7.35 -2.4 -7.6 -1.9 -7.65 -2.15 -7.35 -3.95 -7.2 -4.8 -7.3 -8.4 -7.3 -9.2 -7.5 -11.35 -7.75 -16.1 -7.45 -20.5 -6.9 -25.65 Q-6.9 -26.8 -7.6 -27.45 L-8.0 -29.15 -8.25 -31.35 -7.65 -30.75 -7.35 -30.25 -6.5 -29.6 -5.75 -29.3 -4.55 -29.45 -2.75 -29.0 -2.65 -28.5 -2.35 -28.5 -2.8 -28.45 -3.05 -28.15 -2.6 -27.7 -2.1 -28.0 -1.55 -27.45 -0.45 -26.65 0.85 -26.35 1.45 -26.35 1.8 -26.95 3.05 -28.55 Q4.0 -28.5 4.6 -29.6 7.5 -31.25 6.45 -33.65 L6.5 -33.85 6.05 -34.45 5.1 -36.65 Q3.8 -37.7 2.45 -37.25 L0.85 -37.6 -0.85 -37.45 -1.7 -37.9 Q1.95 -39.8 2.3 -42.6 L3.65 -41.75 4.8 -41.1 5.25 -41.05 6.5 -38.45 7.3 -35.3 Q7.75 -33.8 6.7 -29.6 L6.15 -27.75" fill="url(#gradient12)" fill-rule="evenodd" stroke="none"/>
    <path d="M3.65 -41.75 L4.5 -42.65 6.05 -41.85 5.45 -41.25 5.4 -41.2 5.25 -41.05 4.8 -41.1 3.65 -41.75" fill="url(#gradient13)" fill-rule="evenodd" stroke="none"/>
    <path d="M-0.85 -37.45 L0.85 -37.6 2.45 -37.25 Q7.4 -34.6 3.7 -29.6 3.7 -29.25 1.95 -28.55 L-0.6 -28.45 -2.15 -29.1 -1.05 -29.6 Q1.25 -31.95 0.2 -34.9 L0.1 -36.4 -0.85 -37.45" fill="url(#gradient14)" fill-rule="evenodd" stroke="none"/>
    <path d="M6.3 -41.9 L6.5 -42.05 Q6.65 -41.4 7.95 -40.75 L8.4 -38.4 8.65 -36.95 8.65 -36.25 8.55 -35.7 8.5 -36.05 7.6 -39.45 6.55 -40.2 5.4 -41.2 5.45 -41.25 6.3 -41.9" fill="url(#gradient15)" fill-rule="evenodd" stroke="none"/>
    <path d="M6.05 -41.85 L6.3 -41.9 5.45 -41.25 6.05 -41.85" fill="url(#gradient16)" fill-rule="evenodd" stroke="none"/>
    <path d="M8.65 -37.8 L8.7 -37.65 8.7 -37.45 8.65 -36.95 8.4 -38.4 8.65 -37.8 M8.75 -36.15 L8.85 -34.45 8.7 -31.3 8.55 -35.7 8.65 -36.25 8.75 -36.15" fill="url(#gradient17)" fill-rule="evenodd" stroke="none"/>
    <path d="M6.55 -43.7 Q8.1 -44.85 8.65 -37.8 L8.4 -38.4 7.95 -40.75 Q6.65 -41.4 6.5 -42.05 L6.55 -43.7 M8.7 -37.45 L8.75 -36.15 8.65 -36.25 8.65 -36.95 8.7 -37.45" fill="url(#gradient18)" fill-rule="evenodd" stroke="none"/>
    <path d="M8.7 -31.3 Q8.3 -26.7 8.55 -18.15 L9.2 -11.25 7.95 -12.2 Q7.0 -13.1 6.65 -14.25 L6.0 -21.85 6.15 -27.75 6.7 -29.6 Q7.75 -33.8 7.3 -35.3 L6.5 -38.45 6.55 -40.2 7.6 -39.45 8.5 -36.05 8.55 -35.7 8.7 -31.3" fill="url(#gradient19)" fill-rule="evenodd" stroke="none"/>
    <path d="M-0.6 -28.45 L1.95 -28.55 Q3.7 -29.25 3.7 -29.6 7.4 -34.6 2.45 -37.25 3.8 -37.7 5.1 -36.65 L6.05 -34.45 6.45 -33.65 Q7.5 -31.25 4.6 -29.6 4.0 -28.5 3.05 -28.55 L1.8 -26.95 0.85 -26.35 -0.45 -26.65 -1.55 -27.45 -0.6 -28.45" fill="url(#gradient20)" fill-rule="evenodd" stroke="none"/>
    <path d="M6.95 -5.6 L7.0 -5.45 7.15 -5.35 7.3 -4.15 6.45 -4.3 5.75 -5.75 Q5.15 -6.75 4.0 -7.4 L4.15 -8.25 4.3 -7.9 Q5.55 -8.65 6.5 -6.65 L6.95 -5.6 M-9.5 -21.1 L-9.95 -19.5 -10.15 -16.6 -10.2 -18.0 -10.15 -22.55 -9.5 -25.95 -9.55 -26.65 -9.7 -26.6 -9.8 -26.75 -9.65 -27.35 -9.55 -27.25 -9.5 -27.25 -9.5 -27.75 -9.5 -28.15 -9.35 -29.55 -9.4 -32.75 Q-10.95 -36.6 -10.5 -39.2 L-10.45 -39.2 -10.15 -38.55 -10.15 -38.45 -9.95 -36.25 Q-9.65 -35.05 -9.05 -34.6 L-9.05 -33.5 -8.6 -32.25 -8.25 -31.35 -8.0 -29.15 Q-8.6 -28.8 -8.9 -27.05 L-8.85 -25.4 -8.75 -25.35 -9.35 -22.5 -9.35 -22.2 -9.5 -21.1 M-10.0 -25.65 L-9.95 -26.25 -9.85 -26.25 -10.0 -25.65 M-9.85 -26.45 L-9.85 -26.5 -9.8 -26.5 -9.8 -26.45 -9.85 -26.45 M6.05 -34.45 L6.5 -33.85 6.45 -33.65 6.05 -34.45" fill="url(#gradient21)" fill-rule="evenodd" stroke="none"/>
    <path d="M-0.85 -37.45 L0.1 -36.4 0.2 -34.9 Q-1.85 -37.25 -5.65 -31.95 L-5.8 -33.2 -6.1 -33.75 Q-5.75 -34.1 -4.55 -36.25 L-4.35 -38.45 -2.35 -38.25 -1.7 -37.9 -0.85 -37.45 M-5.9 -31.3 L-5.8 -31.6 -5.8 -31.3 -5.9 -31.3" fill="url(#gradient22)" fill-rule="evenodd" stroke="none"/>
    <path d="M1.8 -26.95 L1.45 -26.35 0.85 -26.35 1.8 -26.95" fill="url(#gradient23)" fill-rule="evenodd" stroke="none"/>
    <path d="M-4.05 -11.85 L-3.55 -14.0 -2.65 -14.8 -3.2 -13.85 -3.1 -13.55 Q-4.35 -10.95 -2.65 -10.55 L-3.55 -10.55 -3.9 -10.9 -4.05 -11.85 M2.85 -13.85 L3.0 -13.55 3.65 -10.95 3.65 -10.3 3.05 -9.85 3.0 -11.5 2.4 -12.2 2.85 -13.85" fill="url(#gradient24)" fill-rule="evenodd" stroke="none"/>
    <path d="M-5.3 -8.2 L-4.35 -11.05 -3.9 -10.9 -3.55 -10.55 -2.65 -10.55 Q1.7 -10.0 2.4 -12.2 L3.0 -11.5 3.05 -9.85 Q-0.1 -2.65 -5.3 -8.2" fill="url(#gradient25)" fill-rule="evenodd" stroke="none"/>
    <path d="M-5.95 -6.35 L-5.3 -8.2 Q-0.1 -2.65 3.05 -9.85 L3.65 -10.3 3.65 -10.95 4.1 -9.6 4.15 -8.25 4.0 -7.4 3.55 -5.85 Q1.55 -1.95 -2.95 -3.35 L-4.0 -3.95 -4.85 -4.75 -5.95 -6.35" fill="url(#gradient26)" fill-rule="evenodd" stroke="none"/>
    <path d="M6.45 -4.3 L6.65 -3.55 Q6.45 3.0 -0.55 1.2 L-2.0 -0.05 -2.6 -0.95 -2.65 -1.05 Q3.6 0.25 3.55 -5.85 L4.0 -7.4 Q5.15 -6.75 5.75 -5.75 L6.45 -4.3" fill="url(#gradient27)" fill-rule="evenodd" stroke="none"/>
    <path d="M6.65 -3.55 Q7.25 -2.9 7.45 -1.65 L7.4 -0.1 7.1 1.05 Q6.45 2.2 5.7 2.5 2.35 3.95 0.85 2.5 L0.4 2.3 -0.55 1.2 Q6.45 3.0 6.65 -3.55" fill="url(#gradient28)" fill-rule="evenodd" stroke="none"/>
    <path d="M-4.35 -11.05 L-4.15 -11.65 -4.05 -11.7 -4.05 -11.85 -3.9 -10.9 -4.35 -11.05 M-2.65 -14.8 Q0.6 -22.6 2.85 -13.85 L2.4 -12.2 Q1.7 -10.0 -2.65 -10.55 -4.35 -10.95 -3.1 -13.55 L-3.2 -13.85 -2.65 -14.8" fill="url(#gradient29)" fill-rule="evenodd" stroke="none"/>
    <path d="M-10.45 -49.85 Q-10.4 -50.85 -9.1 -51.95 L-7.6 -52.55 -5.75 -52.3 -4.95 -51.9 -4.15 -50.95 -3.7 -49.4 -3.9 -47.85 Q-4.7 -46.5 -5.0 -46.55 L-6.7 -46.1 -8.85 -46.25 -9.7 -47.0 Q-7.3 -49.35 -10.45 -49.85" fill="url(#gradient30)" fill-rule="evenodd" stroke="none"/>
    <path d="M-53.55 -29.65 L-54.05 -29.6 -54.35 -29.8 -53.8 -29.65 -53.5 -29.9 -53.55 -29.65 M-55.25 -32.6 L-54.9 -32.9 -54.5 -32.7 -55.25 -32.6" fill="url(#gradient31)" fill-rule="evenodd" stroke="none"/>
    <path d="M-54.35 -29.8 L-54.8 -30.25 -54.8 -30.35 -54.9 -30.4 -54.9 -30.5 -55.05 -30.65 -55.05 -30.7 -55.1 -30.75 -55.1 -30.9 -55.15 -31.0 -55.15 -31.05 -55.25 -31.15 -55.25 -31.3 -55.3 -31.45 -55.25 -32.6 -54.5 -32.7 -54.35 -32.6 -54.0 -32.25 -53.7 -31.8 -53.5 -31.15 -53.5 -31.05 -53.4 -30.85 -53.4 -30.2 -53.5 -29.95 -53.5 -29.9 -53.8 -29.65 -54.35 -29.8" fill="url(#gradient32)" fill-rule="evenodd" stroke="none"/>
    <path d="M-36.2 -36.65 L-36.75 -36.2 -53.55 -29.65 -53.5 -29.9 -53.5 -29.95 -53.4 -30.2 -53.4 -30.85 -53.5 -31.05 -53.5 -31.15 -53.7 -31.8 -54.0 -32.25 -54.35 -32.6 -54.5 -32.7 -54.9 -32.9 -37.95 -39.45 -37.45 -39.45 Q-35.6 -38.2 -36.2 -36.65" fill="url(#gradient33)" fill-rule="evenodd" stroke="none"/>
    <path d="M-5.0 -46.55 L-5.0 -45.95 -5.0 -45.65 -5.1 -44.05 -4.85 -42.5 -4.8 -41.9 -4.3 -39.05 -4.35 -38.45 -4.55 -36.25 Q-5.75 -34.1 -6.1 -33.75 L-6.2 -34.0 -8.9 -34.95 -9.25 -35.05 Q-9.5 -35.1 -9.4 -35.3 L-9.65 -35.9 -10.05 -38.45 -10.05 -38.55 -10.05 -40.9 -9.4 -44.25 -8.95 -45.65 -8.85 -46.25 -6.7 -46.1 -5.0 -46.55" fill="url(#gradient34)" fill-rule="evenodd" stroke="none"/>
    <path d="M-10.5 -39.2 L-10.5 -39.3 -10.45 -39.2 -10.5 -39.2 M-10.05 -38.55 L-10.05 -38.45 -10.15 -38.45 -10.15 -38.55 -10.05 -38.55" fill="url(#gradient35)" fill-rule="evenodd" stroke="none"/>
    <path d="M-4.85 -42.5 L-2.65 -42.5 -3.35 -42.15 -4.8 -41.9 -4.85 -42.5" fill="url(#gradient36)" fill-rule="evenodd" stroke="none"/>
    <path d="M-10.05 -38.45 L-9.65 -35.9 -9.4 -35.3 Q-9.5 -35.1 -9.25 -35.05 L-8.9 -34.95 -9.05 -34.6 Q-9.65 -35.05 -9.95 -36.25 L-10.15 -38.45 -10.05 -38.45" fill="url(#gradient37)" fill-rule="evenodd" stroke="none"/>
    <path d="M-8.9 -34.95 L-6.2 -34.0 -6.1 -33.75 -5.8 -33.2 -5.65 -31.95 -5.8 -31.6 -5.9 -31.3 -7.75 -31.35 -8.6 -32.25 -9.05 -33.5 -9.05 -34.6 -8.9 -34.95" fill="url(#gradient38)" fill-rule="evenodd" stroke="none"/>
    <path d="M-7.65 -30.75 L-8.25 -31.35 -8.6 -32.25 -7.75 -31.35 -7.65 -30.75" fill="url(#gradient39)" fill-rule="evenodd" stroke="none"/>
    <path d="M-4.55 -29.45 L-5.75 -29.3 -6.5 -29.6 -7.35 -30.25 -7.65 -30.75 -7.75 -31.35 -5.9 -31.3 -5.8 -31.3 -5.4 -30.25 -4.65 -29.6 -4.55 -29.45" fill="url(#gradient40)" fill-rule="evenodd" stroke="none"/>
    <path d="M0.2 -34.9 Q1.25 -31.95 -1.05 -29.6 L-2.15 -29.1 -2.75 -29.0 -4.55 -29.45 -4.65 -29.6 -5.4 -30.25 -5.8 -31.3 -5.8 -31.6 -5.65 -31.95 Q-1.85 -37.25 0.2 -34.9" fill="url(#gradient41)" fill-rule="evenodd" stroke="none"/>
    <path d="M-8.0 -29.15 L-7.6 -27.45 -8.1 -26.9 -8.75 -25.4 -8.85 -25.4 -8.9 -27.05 Q-8.6 -28.8 -8.0 -29.15" fill="url(#gradient42)" fill-rule="evenodd" stroke="none"/>
    <path d="M-7.6 -27.45 Q-6.9 -26.8 -6.9 -25.65 L-7.45 -20.5 Q-9.2 -18.35 -9.25 -22.2 L-9.35 -22.5 -8.75 -25.35 -8.75 -25.4 -8.1 -26.9 -7.6 -27.45" fill="url(#gradient43)" fill-rule="evenodd" stroke="none"/>
    <path d="M-9.65 -27.35 L-9.5 -27.75 -9.5 -27.25 -9.55 -27.25 -9.65 -27.35" fill="url(#gradient44)" fill-rule="evenodd" stroke="none"/>
    <path d="M-9.95 -26.25 L-9.85 -26.45 -9.8 -26.45 -9.8 -26.3 -9.85 -26.25 -9.95 -26.25 M-9.85 -26.5 L-9.8 -26.75 -9.7 -26.6 -9.8 -26.5 -9.85 -26.5" fill="url(#gradient45)" fill-rule="evenodd" stroke="none"/>
    <path d="M-10.15 -22.55 L-10.05 -25.35 -10.0 -25.4 -10.0 -25.65 -9.85 -26.25 -9.8 -26.3 -9.8 -26.45 -9.8 -26.5 -9.7 -26.6 -9.55 -26.65 -9.5 -25.95 -10.15 -22.55" fill="url(#gradient46)" fill-rule="evenodd" stroke="none"/>
    <path d="M-8.75 -25.4 L-8.75 -25.35 -8.85 -25.4 -8.75 -25.4 M-9.35 -22.5 L-9.25 -22.2 -9.35 -22.2 -9.35 -22.5" fill="url(#gradient47)" fill-rule="evenodd" stroke="none"/>
    <path d="M-2.15 -29.1 L-0.6 -28.45 -1.55 -27.45 -2.1 -28.0 -2.6 -27.7 -3.05 -28.15 -2.8 -28.45 -2.35 -28.5 -2.65 -28.5 -2.75 -29.0 -2.15 -29.1" fill="url(#gradient48)" fill-rule="evenodd" stroke="none"/>
    <path d="M-7.75 -0.2 L-7.85 -0.1 -7.95 -0.8 -9.1 -3.65 -9.1 -4.45 -9.5 -21.1 -9.35 -22.2 -9.25 -22.2 Q-9.2 -18.35 -7.45 -20.5 L-7.75 -16.1 -8.1 -13.55 -7.75 -0.2" fill="url(#gradient49)" fill-rule="evenodd" stroke="none"/>
    <path d="M-7.2 -0.8 L-7.15 1.95 -7.75 -0.2 -8.1 -13.55 -7.75 -16.1 -7.5 -11.35 -7.5 -9.35 -7.5 -8.9 -7.35 -4.8 -7.35 -3.95 -7.65 -2.15 -7.6 -1.9 -7.35 -2.4 -7.2 -0.8" fill="url(#gradient50)" fill-rule="evenodd" stroke="none"/>
    <path d="M-10.15 -16.6 Q-9.85 -14.25 -11.05 -12.3 L-10.2 -18.0 -10.15 -16.6" fill="url(#gradient51)" fill-rule="evenodd" stroke="none"/>
    <path d="M-7.5 -11.35 L-7.3 -9.2 -7.5 -9.35 -7.5 -11.35" fill="url(#gradient52)" fill-rule="evenodd" stroke="none"/>
    <path d="M-7.3 -9.2 L-7.3 -8.4 -7.5 -8.9 -7.5 -9.35 -7.3 -9.2" fill="url(#gradient53)" fill-rule="evenodd" stroke="none"/>
    <path d="M-2.6 -0.95 L-7.2 -0.8 -7.35 -2.4 -6.4 -4.95 -6.25 -4.95 -6.05 -3.5 Q-5.3 -2.85 -4.35 -2.75 L-3.45 -1.65 -2.65 -1.05 -2.6 -0.95 M-7.95 -0.8 Q-15.15 -0.15 -9.1 -4.45 L-9.1 -3.65 -7.95 -0.8 M-7.2 -4.8 L-7.35 -3.95 -7.35 -4.8 -7.2 -4.8" fill="url(#gradient54)" fill-rule="evenodd" stroke="none"/>
    <path d="M-6.35 -5.1 L-5.95 -6.35 -4.85 -4.75 -4.8 -4.0 -6.25 -4.95 -6.35 -5.1" fill="url(#gradient55)" fill-rule="evenodd" stroke="none"/>
    <path d="M-4.35 -2.75 Q-5.3 -2.85 -6.05 -3.5 L-6.25 -4.95 -4.8 -4.0 -4.35 -2.75" fill="url(#gradient56)" fill-rule="evenodd" stroke="none"/>
    <path d="M3.55 -5.85 Q3.6 0.25 -2.65 -1.05 L-3.45 -1.65 -4.35 -2.75 -4.8 -4.0 -4.85 -4.75 -4.0 -3.95 -3.75 -3.4 -3.2 -3.2 -2.95 -3.35 Q1.55 -1.95 3.55 -5.85" fill="url(#gradient57)" fill-rule="evenodd" stroke="none"/>
    <path d="M-4.0 -3.95 L-2.95 -3.35 -3.2 -3.2 -3.75 -3.4 -4.0 -3.95" fill="url(#gradient58)" fill-rule="evenodd" stroke="none"/>
    <path d="M7.25 1.95 Q10.15 3.55 6.35 8.1 L3.05 10.9 Q1.75 11.7 1.2 10.35 L1.15 10.35 Q-2.05 10.55 3.05 4.7 5.55 7.25 6.85 2.6 L6.85 2.5 7.25 1.95" fill="url(#gradient59)" fill-rule="evenodd" stroke="none"/>
    <path d="M7.4 -0.1 L7.55 0.3 7.25 1.95 6.85 2.5 6.85 2.6 5.45 3.85 2.6 4.0 1.35 3.4 0.4 2.3 0.85 2.5 Q2.35 3.95 5.7 2.5 6.45 2.2 7.1 1.05 L7.4 -0.1" fill="url(#gradient60)" fill-rule="evenodd" stroke="none"/>
    <path d="M3.05 4.7 L2.6 4.0 5.45 3.85 6.85 2.6 Q5.55 7.25 3.05 4.7" fill="url(#gradient61)" fill-rule="evenodd" stroke="none"/>
  </g>
  <defs>
    <radialGradient cx="0" cy="0" gradientTransform="matrix(0.0072, 0.0, 0.0, 0.0072, -4.5, -48.15)" gradientUnits="userSpaceOnUse" id="gradient0" r="819.2" spreadMethod="pad">
      <stop offset="0.0" stop-color="#fff6c8"/>
      <stop offset="1.0" stop-color="#7e7862"/>
    </radialGradient>
    <radialGradient cx="0" cy="0" gradientTransform="matrix(0.0033, 0.0, 0.0, 0.0033, 9.95, -57.75)" gradientUnits="userSpaceOnUse" id="gradient1" r="819.2" spreadMethod="pad">
      <stop offset="0.0" stop-color="#c7bd99"/>
      <stop offset="1.0" stop-color="#c6bc99"/>
    </radialGradient>
    <radialGradient cx="0" cy="0" gradientTransform="matrix(0.0074, 0.0, 0.0, 0.0074, 10.95, -56.9)" gradientUnits="userSpaceOnUse" id="gradient2" r="819.2" spreadMethod="pad">
      <stop offset="0.0" stop-color="#c9bf9b"/>
      <stop offset="1.0" stop-color="#ada485"/>
    </radialGradient>
    <radialGradient cx="0" cy="0" gradientTransform="matrix(0.0629, 0.0, 0.0, 0.0629, -26.3, -42.45)" gradientUnits="userSpaceOnUse" id="gradient3" r="819.2" spreadMethod="pad">
      <stop offset="0.0" stop-color="#5f361c"/>
      <stop offset="1.0" stop-color="#4f2d17"/>
    </radialGradient>
    <radialGradient cx="0" cy="0" gradientTransform="matrix(0.0206, 0.0, 0.0, 0.0206, 13.45, -59.5)" gradientUnits="userSpaceOnUse" id="gradient4" r="819.2" spreadMethod="pad">
      <stop offset="0.0" stop-color="#7d4724"/>
      <stop offset="1.0" stop-color="#4f2d17"/>
    </radialGradient>
    <radialGradient cx="0" cy="0" gradientTransform="matrix(0.0077, 0.0, 0.0, 0.0077, 4.45, -42.8)" gradientUnits="userSpaceOnUse" id="gradient5" r="819.2" spreadMethod="pad">
      <stop offset="0.0" stop-color="#3e6183"/>
      <stop offset="1.0" stop-color="#223547"/>
    </radialGradient>
    <radialGradient cx="0" cy="0" gradientTransform="matrix(0.0067, 0.0, 0.0, 0.0067, 1.05, -43.85)" gradientUnits="userSpaceOnUse" id="gradient6" r="819.2" spreadMethod="pad">
      <stop offset="0.0" stop-color="#42668a"/>
      <stop offset="1.0" stop-color="#223547"/>
    </radialGradient>
    <radialGradient cx="0" cy="0" gradientTransform="matrix(0.009, 0.0, 0.0, 0.009, -6.05, -45.95)" gradientUnits="userSpaceOnUse" id="gradient7" r="819.2" spreadMethod="pad">
      <stop offset="0.0" stop-color="#2b445b"/>
      <stop offset="1.0" stop-color="#2b435a"/>
    </radialGradient>
    <radialGradient cx="0" cy="0" gradientTransform="matrix(0.0096, 0.0, 0.0, 0.0096, -6.25, -44.75)" gradientUnits="userSpaceOnUse" id="gradient8" r="819.2" spreadMethod="pad">
      <stop offset="0.0" stop-color="#35536f"/>
      <stop offset="1.0" stop-color="#273e54"/>
    </radialGradient>
    <radialGradient cx="0" cy="0" gradientTransform="matrix(0.0027, 0.0, 0.0, 0.0027, 2.85, -43.3)" gradientUnits="userSpaceOnUse" id="gradient9" r="819.2" spreadMethod="pad">
      <stop offset="0.0" stop-color="#273d52"/>
      <stop offset="1.0" stop-color="#263c50"/>
    </radialGradient>
    <radialGradient cx="0" cy="0" gradientTransform="matrix(0.0023, 0.0, 0.0, 0.0023, 2.85, -43.3)" gradientUnits="userSpaceOnUse" id="gradient10" r="819.2" spreadMethod="pad">
      <stop offset="0.0" stop-color="#2d475f"/>
      <stop offset="1.0" stop-color="#2d475f"/>
    </radialGradient>
    <radialGradient cx="0" cy="0" gradientTransform="matrix(0.0092, 0.0, 0.0, 0.0092, -4.3, -40.6)" gradientUnits="userSpaceOnUse" id="gradient11" r="819.2" spreadMethod="pad">
      <stop offset="0.0" stop-color="#42678b"/>
      <stop offset="1.0" stop-color="#2c455d"/>
    </radialGradient>
    <radialGradient cx="0" cy="0" gradientTransform="matrix(0.045, 0.0, 0.0, 0.045, -1.45, -38.3)" gradientUnits="userSpaceOnUse" id="gradient12" r="819.2" spreadMethod="pad">
      <stop offset="0.0" stop-color="#ffd700"/>
      <stop offset="1.0" stop-color="#fa7e00"/>
    </radialGradient>
    <radialGradient cx="0" cy="0" gradientTransform="matrix(0.0028, 0.0, 0.0, 0.0028, 3.6, -41.95)" gradientUnits="userSpaceOnUse" id="gradient13" r="819.2" spreadMethod="pad">
      <stop offset="0.0" stop-color="#2d465f"/>
      <stop offset="1.0" stop-color="#2d465e"/>
    </radialGradient>
    <radialGradient cx="0" cy="0" gradientTransform="matrix(0.0081, 0.0, 0.0, 0.0081, -0.95, -34.5)" gradientUnits="userSpaceOnUse" id="gradient14" r="819.2" spreadMethod="pad">
      <stop offset="0.0" stop-color="#68614b"/>
      <stop offset="1.0" stop-color="#353227"/>
    </radialGradient>
    <radialGradient cx="0" cy="0" gradientTransform="matrix(0.0128, 0.0, 0.0, 0.0128, 5.2, -41.45)" gradientUnits="userSpaceOnUse" id="gradient15" r="819.2" spreadMethod="pad">
      <stop offset="0.0" stop-color="#2d465f"/>
      <stop offset="1.0" stop-color="#23384a"/>
    </radialGradient>
    <radialGradient cx="0" cy="0" gradientTransform="matrix(0.0015, 0.0, 0.0, 0.0015, 5.9, -41.95)" gradientUnits="userSpaceOnUse" id="gradient16" r="819.2" spreadMethod="pad">
      <stop offset="0.0" stop-color="#182532"/>
      <stop offset="1.0" stop-color="#172531"/>
    </radialGradient>
    <radialGradient cx="0" cy="0" gradientTransform="matrix(0.0136, 0.0, 0.0, 0.0136, 8.35, -34.95)" gradientUnits="userSpaceOnUse" id="gradient17" r="819.2" spreadMethod="pad">
      <stop offset="0.0" stop-color="#1f1e18"/>
      <stop offset="1.0" stop-color="#1f1e18"/>
    </radialGradient>
    <radialGradient cx="0" cy="0" gradientTransform="matrix(0.0115, 0.0, 0.0, 0.0115, 5.3, -42.65)" gradientUnits="userSpaceOnUse" id="gradient18" r="819.2" spreadMethod="pad">
      <stop offset="0.0" stop-color="#b9b08f"/>
      <stop offset="1.0" stop-color="#898269"/>
    </radialGradient>
    <radialGradient cx="0" cy="0" gradientTransform="matrix(0.0218, 0.0, 0.0, 0.0218, 5.95, -23.15)" gradientUnits="userSpaceOnUse" id="gradient19" r="819.2" spreadMethod="pad">
      <stop offset="0.0" stop-color="#203243"/>
      <stop offset="1.0" stop-color="#080c10"/>
    </radialGradient>
    <radialGradient cx="0" cy="0" gradientTransform="matrix(0.0138, 0.0, 0.0, 0.0138, 3.45, -36.35)" gradientUnits="userSpaceOnUse" id="gradient20" r="819.2" spreadMethod="pad">
      <stop offset="0.0" stop-color="#ffd47b"/>
      <stop offset="1.0" stop-color="#714f2e"/>
    </radialGradient>
    <radialGradient cx="0" cy="0" gradientTransform="matrix(0.049, 0.0, 0.0, 0.049, -10.3, -40.4)" gradientUnits="userSpaceOnUse" id="gradient21" r="819.2" spreadMethod="pad">
      <stop offset="0.0" stop-color="#e27100"/>
      <stop offset="1.0" stop-color="#331a00"/>
    </radialGradient>
    <radialGradient cx="0" cy="0" gradientTransform="matrix(0.008, 0.0, 0.0, 0.008, -6.1, -34.9)" gradientUnits="userSpaceOnUse" id="gradient22" r="819.2" spreadMethod="pad">
      <stop offset="0.0" stop-color="#ffc674"/>
      <stop offset="1.0" stop-color="#c58b51"/>
    </radialGradient>
    <radialGradient cx="0" cy="0" gradientTransform="matrix(0.0025, 0.0, 0.0, 0.0025, 0.7, -25.5)" gradientUnits="userSpaceOnUse" id="gradient23" r="819.2" spreadMethod="pad">
      <stop offset="0.0" stop-color="#5f5945"/>
      <stop offset="1.0" stop-color="#494435"/>
    </radialGradient>
    <radialGradient cx="0" cy="0" gradientTransform="matrix(0.0142, 0.0, 0.0, 0.0142, -3.9, -17.55)" gradientUnits="userSpaceOnUse" id="gradient24" r="819.2" spreadMethod="pad">
      <stop offset="0.0" stop-color="#395977"/>
      <stop offset="1.0" stop-color="#253a4e"/>
    </radialGradient>
    <radialGradient cx="0" cy="0" gradientTransform="matrix(0.0068, 0.0, 0.0, 0.0068, -1.75, -11.0)" gradientUnits="userSpaceOnUse" id="gradient25" r="819.2" spreadMethod="pad">
      <stop offset="0.0" stop-color="#3e6182"/>
      <stop offset="1.0" stop-color="#223547"/>
    </radialGradient>
    <radialGradient cx="0" cy="0" gradientTransform="matrix(0.0092, 0.0, 0.0, 0.0092, 1.25, -8.7)" gradientUnits="userSpaceOnUse" id="gradient26" r="819.2" spreadMethod="pad">
      <stop offset="0.0" stop-color="#385775"/>
      <stop offset="1.0" stop-color="#223548"/>
    </radialGradient>
    <radialGradient cx="0" cy="0" gradientTransform="matrix(0.0074, 0.0, 0.0, 0.0074, 2.05, -4.2)" gradientUnits="userSpaceOnUse" id="gradient27" r="819.2" spreadMethod="pad">
      <stop offset="0.0" stop-color="#446b8f"/>
      <stop offset="1.0" stop-color="#1a2836"/>
    </radialGradient>
    <radialGradient cx="0" cy="0" gradientTransform="matrix(0.0061, 0.0, 0.0, 0.0061, 3.9, 0.45)" gradientUnits="userSpaceOnUse" id="gradient28" r="819.2" spreadMethod="pad">
      <stop offset="0.0" stop-color="#34516c"/>
      <stop offset="1.0" stop-color="#203345"/>
    </radialGradient>
    <radialGradient cx="0" cy="0" gradientTransform="matrix(0.0118, 0.0, 0.0, 0.0118, -1.3, -19.25)" gradientUnits="userSpaceOnUse" id="gradient29" r="819.2" spreadMethod="pad">
      <stop offset="0.0" stop-color="#42688b"/>
      <stop offset="1.0" stop-color="#263c50"/>
    </radialGradient>
    <radialGradient cx="0" cy="0" gradientTransform="matrix(0.0047, 0.0, 0.0, 0.0047, -7.3, -49.85)" gradientUnits="userSpaceOnUse" id="gradient30" r="819.2" spreadMethod="pad">
      <stop offset="0.0" stop-color="#ffda7f"/>
      <stop offset="1.0" stop-color="#95693d"/>
    </radialGradient>
    <radialGradient cx="0" cy="0" gradientTransform="matrix(0.0038, 0.0, 0.0, 0.0038, -54.35, -32.75)" gradientUnits="userSpaceOnUse" id="gradient31" r="819.2" spreadMethod="pad">
      <stop offset="0.0" stop-color="#aba384"/>
      <stop offset="1.0" stop-color="#aaa283"/>
    </radialGradient>
    <radialGradient cx="0" cy="0" gradientTransform="matrix(0.003, 0.0, 0.0, 0.003, -54.05, -32.3)" gradientUnits="userSpaceOnUse" id="gradient32" r="819.2" spreadMethod="pad">
      <stop offset="0.0" stop-color="#4f2d17"/>
      <stop offset="1.0" stop-color="#4e2c17"/>
    </radialGradient>
    <radialGradient cx="0" cy="0" gradientTransform="matrix(0.0237, 0.0, 0.0, 0.0237, -36.5, -38.55)" gradientUnits="userSpaceOnUse" id="gradient33" r="819.2" spreadMethod="pad">
      <stop offset="0.0" stop-color="#cec49f"/>
      <stop offset="1.0" stop-color="#7c7660"/>
    </radialGradient>
    <radialGradient cx="0" cy="0" gradientTransform="matrix(0.0101, 0.0, 0.0, 0.0101, -7.85, -41.95)" gradientUnits="userSpaceOnUse" id="gradient34" r="819.2" spreadMethod="pad">
      <stop offset="0.0" stop-color="#665f4a"/>
      <stop offset="1.0" stop-color="#444032"/>
    </radialGradient>
    <radialGradient cx="0" cy="0" gradientTransform="matrix(0.0065, 0.0, 0.0, 0.0065, -10.35, -43.55)" gradientUnits="userSpaceOnUse" id="gradient35" r="819.2" spreadMethod="pad">
      <stop offset="0.0" stop-color="#24394c"/>
      <stop offset="1.0" stop-color="#080c10"/>
    </radialGradient>
    <radialGradient cx="0" cy="0" gradientTransform="matrix(0.0033, 0.0, 0.0, 0.0033, -5.15, -42.7)" gradientUnits="userSpaceOnUse" id="gradient36" r="819.2" spreadMethod="pad">
      <stop offset="0.0" stop-color="#b47f4a"/>
      <stop offset="1.0" stop-color="#95693d"/>
    </radialGradient>
    <radialGradient cx="0" cy="0" gradientTransform="matrix(0.0038, 0.0, 0.0, 0.0038, -9.85, -37.25)" gradientUnits="userSpaceOnUse" id="gradient37" r="819.2" spreadMethod="pad">
      <stop offset="0.0" stop-color="#3e3a2d"/>
      <stop offset="1.0" stop-color="#343126"/>
    </radialGradient>
    <radialGradient cx="0" cy="0" gradientTransform="matrix(0.0052, 0.0, 0.0, 0.0052, -7.85, -35.1)" gradientUnits="userSpaceOnUse" id="gradient38" r="819.2" spreadMethod="pad">
      <stop offset="0.0" stop-color="#ffdb80"/>
      <stop offset="1.0" stop-color="#a67544"/>
    </radialGradient>
    <radialGradient cx="0" cy="0" gradientTransform="matrix(0.003, 0.0, 0.0, 0.003, -8.6, -32.8)" gradientUnits="userSpaceOnUse" id="gradient39" r="819.2" spreadMethod="pad">
      <stop offset="0.0" stop-color="#c78c52"/>
      <stop offset="1.0" stop-color="#8b6239"/>
    </radialGradient>
    <radialGradient cx="0" cy="0" gradientTransform="matrix(0.004, 0.0, 0.0, 0.004, -7.0, -32.0)" gradientUnits="userSpaceOnUse" id="gradient40" r="819.2" spreadMethod="pad">
      <stop offset="0.0" stop-color="#ffcf79"/>
      <stop offset="1.0" stop-color="#90653b"/>
    </radialGradient>
    <radialGradient cx="0" cy="0" gradientTransform="matrix(0.0073, 0.0, 0.0, 0.0073, -5.05, -34.15)" gradientUnits="userSpaceOnUse" id="gradient41" r="819.2" spreadMethod="pad">
      <stop offset="0.0" stop-color="#ffdd81"/>
      <stop offset="1.0" stop-color="#ad7947"/>
    </radialGradient>
    <radialGradient cx="0" cy="0" gradientTransform="matrix(0.0043, 0.0, 0.0, 0.0043, -7.05, -28.25)" gradientUnits="userSpaceOnUse" id="gradient42" r="819.2" spreadMethod="pad">
      <stop offset="0.0" stop-color="#494435"/>
      <stop offset="1.0" stop-color="#383429"/>
    </radialGradient>
    <radialGradient cx="0" cy="0" gradientTransform="matrix(0.009, 0.0, 0.0, 0.009, -6.25, -26.15)" gradientUnits="userSpaceOnUse" id="gradient43" r="819.2" spreadMethod="pad">
      <stop offset="0.0" stop-color="#645d48"/>
      <stop offset="1.0" stop-color="#373428"/>
    </radialGradient>
    <radialGradient cx="0" cy="0" gradientTransform="matrix(0.0029, 0.0, 0.0, 0.0029, -9.5, -28.65)" gradientUnits="userSpaceOnUse" id="gradient44" r="819.2" spreadMethod="pad">
      <stop offset="0.0" stop-color="#d96d00"/>
      <stop offset="1.0" stop-color="#cf6800"/>
    </radialGradient>
    <radialGradient cx="0" cy="0" gradientTransform="matrix(0.0045, 0.0, 0.0, 0.0045, -10.1, -25.35)" gradientUnits="userSpaceOnUse" id="gradient45" r="819.2" spreadMethod="pad">
      <stop offset="0.0" stop-color="#d36a00"/>
      <stop offset="1.0" stop-color="#b15900"/>
    </radialGradient>
    <radialGradient cx="0" cy="0" gradientTransform="matrix(0.0048, 0.0, 0.0, 0.0048, -10.1, -23.75)" gradientUnits="userSpaceOnUse" id="gradient46" r="819.2" spreadMethod="pad">
      <stop offset="0.0" stop-color="#dc6e00"/>
      <stop offset="1.0" stop-color="#d26900"/>
    </radialGradient>
    <radialGradient cx="0" cy="0" gradientTransform="matrix(0.0066, 0.0, 0.0, 0.0066, -9.0, -24.75)" gradientUnits="userSpaceOnUse" id="gradient47" r="819.2" spreadMethod="pad">
      <stop offset="0.0" stop-color="#3a362a"/>
      <stop offset="1.0" stop-color="#0c0c09"/>
    </radialGradient>
    <radialGradient cx="0" cy="0" gradientTransform="matrix(0.0034, 0.0, 0.0, 0.0034, -2.8, -30.1)" gradientUnits="userSpaceOnUse" id="gradient48" r="819.2" spreadMethod="pad">
      <stop offset="0.0" stop-color="#524d3c"/>
      <stop offset="1.0" stop-color="#2d2920"/>
    </radialGradient>
    <radialGradient cx="0" cy="0" gradientTransform="matrix(0.0246, 0.0, 0.0, 0.0246, -6.55, -19.6)" gradientUnits="userSpaceOnUse" id="gradient49" r="819.2" spreadMethod="pad">
      <stop offset="0.0" stop-color="#b7ad8d"/>
      <stop offset="1.0" stop-color="#827c64"/>
    </radialGradient>
    <radialGradient cx="0" cy="0" gradientTransform="matrix(0.0247, 0.0, 0.0, 0.0247, -7.5, -18.25)" gradientUnits="userSpaceOnUse" id="gradient50" r="819.2" spreadMethod="pad">
      <stop offset="0.0" stop-color="#423e30"/>
      <stop offset="1.0" stop-color="#333025"/>
    </radialGradient>
    <radialGradient cx="0" cy="0" gradientTransform="matrix(0.0092, 0.0, 0.0, 0.0092, -11.1, -12.35)" gradientUnits="userSpaceOnUse" id="gradient51" r="819.2" spreadMethod="pad">
      <stop offset="0.0" stop-color="#ff8000"/>
      <stop offset="1.0" stop-color="#eb7600"/>
    </radialGradient>
    <radialGradient cx="0" cy="0" gradientTransform="matrix(0.0044, 0.0, 0.0, 0.0044, -7.25, -12.35)" gradientUnits="userSpaceOnUse" id="gradient52" r="819.2" spreadMethod="pad">
      <stop offset="0.0" stop-color="#2b435a"/>
      <stop offset="1.0" stop-color="#1e2f3f"/>
    </radialGradient>
    <radialGradient cx="0" cy="0" gradientTransform="matrix(0.0041, 0.0, 0.0, 0.0041, -7.25, -9.05)" gradientUnits="userSpaceOnUse" id="gradient53" r="819.2" spreadMethod="pad">
      <stop offset="0.0" stop-color="#24384c"/>
      <stop offset="1.0" stop-color="#1d2f3e"/>
    </radialGradient>
    <radialGradient cx="0" cy="0" gradientTransform="matrix(0.0104, 0.0, 0.0, 0.0104, -3.65, -3.45)" gradientUnits="userSpaceOnUse" id="gradient54" r="819.2" spreadMethod="pad">
      <stop offset="0.0" stop-color="#736c54"/>
      <stop offset="1.0" stop-color="#5a5441"/>
    </radialGradient>
    <radialGradient cx="0" cy="0" gradientTransform="matrix(0.0038, 0.0, 0.0, 0.0038, -5.5, -6.8)" gradientUnits="userSpaceOnUse" id="gradient55" r="819.2" spreadMethod="pad">
      <stop offset="0.0" stop-color="#33506b"/>
      <stop offset="1.0" stop-color="#172531"/>
    </radialGradient>
    <radialGradient cx="0" cy="0" gradientTransform="matrix(0.0026, 0.0, 0.0, 0.0026, -4.5, -4.5)" gradientUnits="userSpaceOnUse" id="gradient56" r="819.2" spreadMethod="pad">
      <stop offset="0.0" stop-color="#3e3a2d"/>
      <stop offset="1.0" stop-color="#302d23"/>
    </radialGradient>
    <radialGradient cx="0" cy="0" gradientTransform="matrix(0.0058, 0.0, 0.0, 0.0058, -0.6, -3.85)" gradientUnits="userSpaceOnUse" id="gradient57" r="819.2" spreadMethod="pad">
      <stop offset="0.0" stop-color="#68614c"/>
      <stop offset="1.0" stop-color="#393529"/>
    </radialGradient>
    <radialGradient cx="0" cy="0" gradientTransform="matrix(0.0018, 0.0, 0.0, 0.0018, -2.95, -4.05)" gradientUnits="userSpaceOnUse" id="gradient58" r="819.2" spreadMethod="pad">
      <stop offset="0.0" stop-color="#2a4258"/>
      <stop offset="1.0" stop-color="#213447"/>
    </radialGradient>
    <radialGradient cx="0" cy="0" gradientTransform="matrix(0.0093, 0.0, 0.0, 0.0093, 3.8, 8.65)" gradientUnits="userSpaceOnUse" id="gradient59" r="819.2" spreadMethod="pad">
      <stop offset="0.0" stop-color="#706951"/>
      <stop offset="1.0" stop-color="#3c382b"/>
    </radialGradient>
    <radialGradient cx="0" cy="0" gradientTransform="matrix(0.0064, 0.0, 0.0, 0.0064, 3.35, 2.6)" gradientUnits="userSpaceOnUse" id="gradient60" r="819.2" spreadMethod="pad">
      <stop offset="0.0" stop-color="#294157"/>
      <stop offset="1.0" stop-color="#1b2a39"/>
    </radialGradient>
    <radialGradient cx="0" cy="0" gradientTransform="matrix(0.0054, 0.0, 0.0, 0.0054, 6.1, 2.4)" gradientUnits="userSpaceOnUse" id="gradient61" r="819.2" spreadMethod="pad">
      <stop offset="0.0" stop-color="#3d392c"/>
      <stop offset="1.0" stop-color="#28251c"/>
    </radialGradient>
  </defs>
</svg>
