<?xml version="1.0" encoding="UTF-8" standalone="no"?>
<svg xmlns:ffdec="https://www.free-decompiler.com/flash" xmlns:xlink="http://www.w3.org/1999/xlink" ffdec:objectType="shape" height="65.6px" width="67.5px" xmlns="http://www.w3.org/2000/svg">
  <g transform="matrix(1.0, 0.0, 0.0, 1.0, 61.35, 68.1)">
    <path d="M-9.35 -64.6 L-8.35 -65.45 -5.7 -66.35 -5.15 -66.25 -2.65 -65.15 Q-0.55 -63.55 -0.65 -61.95 L-0.55 -59.6 -0.55 -59.45 -2.75 -57.45 Q-6.25 -56.25 -8.0 -57.55 L-10.4 -59.2 -10.55 -59.6 -10.8 -62.4 -9.45 -64.4 -9.35 -64.6" fill="url(#gradient0)" fill-rule="evenodd" stroke="none"/>
    <path d="M-9.45 -64.45 L-9.35 -64.6 -9.45 -64.4 -9.45 -64.45" fill="url(#gradient1)" fill-rule="evenodd" stroke="none"/>
    <path d="M-11.35 -61.4 Q-11.45 -62.15 -10.55 -63.6 L-9.45 -64.45 -9.45 -64.4 -10.8 -62.4 -10.55 -59.6 -10.4 -59.2 -8.0 -57.55 Q-6.25 -56.25 -2.75 -57.45 L-0.55 -59.45 Q-1.05 -56.8 -6.2 -56.8 -10.15 -57.05 -11.35 -61.4 M-0.65 -61.95 L-0.35 -61.55 -0.3 -60.8 -0.45 -59.75 -0.55 -59.6 -0.65 -61.95" fill="url(#gradient2)" fill-rule="evenodd" stroke="none"/>
    <path d="M-11.45 -58.15 L-11.6 -60.0 -11.35 -61.4 Q-10.15 -57.05 -6.2 -56.8 -1.05 -56.8 -0.55 -59.45 L-0.55 -59.6 -0.45 -59.75 -0.95 -57.4 -1.35 -56.4 Q-2.4 -55.25 -3.05 -55.2 L-4.15 -54.7 -5.6 -54.55 -5.75 -54.9 -6.75 -55.55 Q-7.45 -55.45 -9.55 -56.45 L-11.15 -57.45 -11.45 -58.15" fill="url(#gradient3)" fill-rule="evenodd" stroke="none"/>
    <path d="M-0.95 -57.4 L-0.05 -55.35 0.1 -53.0 Q-1.65 -50.45 -7.0 -51.5 L-7.2 -52.2 -6.75 -52.2 -5.55 -53.15 -5.55 -54.0 -5.6 -54.55 -4.15 -54.7 -3.05 -55.2 Q-2.4 -55.25 -1.35 -56.4 L-0.95 -57.4 M-12.6 -57.0 L-11.45 -58.15 -11.15 -57.45 -11.95 -57.4 -12.65 -56.85 -12.6 -57.0" fill="url(#gradient4)" fill-rule="evenodd" stroke="none"/>
    <path d="M0.1 -53.0 Q4.1 -48.65 3.3 -45.85 L2.7 -46.8 2.6 -46.9 Q3.05 -47.3 0.95 -48.75 L-0.7 -49.05 Q-5.45 -47.2 -4.75 -41.0 L-6.95 -43.4 -6.9 -42.7 -8.15 -45.05 -8.2 -45.2 -8.25 -45.0 -8.0 -43.6 -7.85 -43.4 -7.15 -41.9 -5.6 -40.85 -5.4 -40.7 -5.35 -40.65 -4.15 -39.7 -4.1 -39.7 -3.1 -38.3 Q-4.8 -35.9 -3.7 -32.55 L-3.55 -31.15 -3.3 -30.5 -3.1 -29.5 -2.55 -28.7 -2.5 -28.6 -2.3 -28.4 -2.25 -28.3 -2.1 -28.1 -2.05 -27.95 -1.95 -27.9 -1.85 -27.65 -1.35 -26.9 -1.75 -24.1 -2.1 -20.95 Q-3.25 -20.35 -3.3 -18.15 L-4.15 -16.7 -5.0 -15.0 -5.7 -13.65 -8.55 -16.65 -11.2 -19.65 -10.95 -26.1 -11.0 -40.65 -10.4 -44.7 -8.8 -48.3 -7.75 -48.65 -6.75 -50.55 -7.0 -51.5 Q-1.65 -50.45 0.1 -53.0 M2.5 -31.35 L2.5 -31.15 2.35 -31.2 2.5 -31.35 M-7.35 -11.45 Q-9.15 -8.9 -14.85 -14.0 L-15.2 -14.6 -15.85 -16.0 -16.2 -16.65 -16.75 -18.95 -13.75 -17.95 Q-11.7 -16.6 -11.65 -15.4 L-11.45 -16.25 -10.35 -15.05 -10.4 -14.9 -7.35 -11.55 -7.35 -11.45 M-13.75 -56.05 L-12.6 -57.0 -12.65 -56.85 -13.05 -56.55 -13.0 -55.15 Q-16.75 -53.2 -14.85 -50.75 L-14.85 -50.7 -16.05 -48.15 Q-16.95 -43.7 -16.95 -41.9 L-17.4 -43.2 -17.8 -45.4 -17.8 -45.45 -18.0 -46.1 -17.95 -46.9 Q-18.2 -48.3 -16.85 -52.1 L-16.85 -52.2 -15.65 -54.35 -13.75 -56.05 M-17.0 -30.0 L-17.0 -26.1 -17.05 -26.05 -17.15 -26.1 -17.6 -26.65 -17.4 -28.05 -17.05 -30.0 -17.0 -30.0" fill="url(#gradient5)" fill-rule="evenodd" stroke="none"/>
    <path d="M-21.5 -51.3 Q-20.1 -57.65 -13.75 -56.05 L-15.65 -54.35 -16.85 -52.2 -16.85 -52.1 Q-18.2 -48.3 -17.95 -46.9 L-19.0 -47.1 -19.1 -47.1 -21.3 -49.45 -21.5 -50.9 -21.5 -51.3" fill="url(#gradient6)" fill-rule="evenodd" stroke="none"/>
    <path d="M-25.05 -45.5 L-24.95 -45.6 -24.75 -45.0 -25.05 -45.5 M-23.3 -49.5 L-22.4 -50.7 -21.5 -51.3 -21.5 -50.9 -22.5 -50.3 -23.3 -49.5 M-19.1 -47.1 L-19.0 -47.1 -19.25 -46.85 -19.1 -47.1" fill="url(#gradient7)" fill-rule="evenodd" stroke="none"/>
    <path d="M-24.95 -45.6 L-24.95 -45.65 -24.9 -46.05 -24.45 -47.75 -23.45 -49.35 -23.3 -49.5 -22.5 -50.3 -21.5 -50.9 -21.3 -49.45 -19.1 -47.1 -19.25 -46.85 -20.7 -44.9 -21.8 -44.25 -23.1 -43.8 -23.5 -43.8 -24.55 -44.4 -24.7 -44.8 -24.75 -44.85 -24.75 -45.0 -24.95 -45.6" fill="url(#gradient8)" fill-rule="evenodd" stroke="none"/>
    <path d="M-18.9 -24.45 L-29.55 -36.2 -28.9 -37.05 -27.75 -37.8 -18.8 -27.95 -17.6 -26.65 -17.15 -26.1 -17.05 -26.05 -15.95 -24.85 -15.75 -24.55 -11.2 -19.65 -8.55 -16.65 -9.65 -15.9 -10.35 -15.05 -11.45 -16.25 -17.25 -22.55 -18.85 -24.35 -18.9 -24.45 M-32.95 -40.0 L-44.9 -53.15 -44.85 -53.7 -44.25 -54.35 -44.2 -54.4 -44.05 -54.5 -43.85 -54.6 -43.5 -54.75 -43.1 -54.7 -31.35 -41.65 -31.5 -41.4 -32.55 -40.65 -32.95 -40.0 M-49.75 -58.6 Q-58.4 -70.95 -47.95 -59.95 L-48.45 -59.95 -49.15 -59.45 -49.7 -58.6 -49.75 -58.6" fill="url(#gradient9)" fill-rule="evenodd" stroke="none"/>
    <path d="M-49.7 -58.55 L-49.75 -58.6 -49.7 -58.6 -49.7 -58.55" fill="url(#gradient10)" fill-rule="evenodd" stroke="none"/>
    <path d="M-45.05 -53.3 L-47.35 -55.75 -48.85 -57.35 -49.7 -58.55 -49.7 -58.6 -49.15 -59.45 -48.45 -59.95 -47.95 -59.95 -43.2 -54.8 -43.5 -54.75 -43.85 -54.6 -44.05 -54.5 -44.2 -54.4 -44.25 -54.35 -44.7 -54.0 -45.05 -53.3" fill="url(#gradient11)" fill-rule="evenodd" stroke="none"/>
    <path d="M-44.9 -53.15 L-45.05 -53.3 -44.7 -54.0 -44.25 -54.35 -44.85 -53.7 -44.9 -53.15 M-43.2 -54.8 L-43.1 -54.7 -43.5 -54.75 -43.2 -54.8" fill="url(#gradient12)" fill-rule="evenodd" stroke="none"/>
    <path d="M-47.35 -55.75 L-50.45 -52.95 -50.85 -52.95 -57.9 -62.75 -61.35 -68.1 -58.3 -64.75 -50.75 -55.2 -50.5 -55.25 -48.85 -57.35 -47.35 -55.75" fill="url(#gradient13)" fill-rule="evenodd" stroke="none"/>
    <path d="M-11.15 -57.45 L-9.55 -56.45 Q-7.45 -55.45 -6.75 -55.55 L-5.75 -54.9 -5.6 -54.55 -5.55 -54.0 -6.75 -53.1 -6.75 -52.2 -7.2 -52.2 Q-12.55 -53.15 -13.0 -55.15 L-13.05 -56.55 -12.65 -56.85 -11.95 -57.4 -11.15 -57.45" fill="url(#gradient14)" fill-rule="evenodd" stroke="none"/>
    <path d="M-7.0 -51.5 L-6.75 -50.55 -7.3 -50.75 -8.25 -48.9 -7.75 -48.65 -8.8 -48.3 -9.8 -47.95 -11.15 -48.25 -13.95 -49.75 -14.8 -50.5 -14.8 -50.7 -14.85 -50.75 Q-16.75 -53.2 -13.0 -55.15 -12.55 -53.15 -7.2 -52.2 L-7.0 -51.5" fill="url(#gradient15)" fill-rule="evenodd" stroke="none"/>
    <path d="M-6.75 -52.2 L-6.75 -53.1 -5.55 -54.0 -5.55 -53.15 -6.75 -52.2" fill="url(#gradient16)" fill-rule="evenodd" stroke="none"/>
    <path d="M-14.85 -50.75 L-14.8 -50.7 -14.85 -50.7 -14.85 -50.75" fill="url(#gradient17)" fill-rule="evenodd" stroke="none"/>
    <path d="M-14.8 -50.7 L-14.8 -50.5 -13.95 -49.75 Q-15.5 -49.95 -16.15 -40.65 L-15.95 -24.85 -17.05 -26.05 -17.0 -26.1 -17.0 -30.0 -17.0 -30.35 -16.95 -31.3 -16.95 -33.75 -16.95 -41.9 Q-16.95 -43.7 -16.05 -48.15 L-14.85 -50.7 -14.8 -50.7 M-11.15 -48.25 L-9.8 -47.95 -8.8 -48.3 -10.4 -44.7 -11.0 -40.65 -10.95 -26.1 -11.2 -19.65 -15.75 -24.55 Q-12.85 -24.35 -12.45 -22.55 L-12.6 -42.0 -12.15 -44.3 -12.4 -44.45 -12.55 -45.25 -11.95 -45.45 Q-10.85 -47.35 -11.15 -48.25 M-17.25 -21.15 L-17.25 -22.55 -11.45 -16.25 -11.65 -15.4 Q-11.7 -16.6 -13.75 -17.95 L-16.75 -18.95 -17.4 -19.25 -17.25 -21.15" fill="url(#gradient18)" fill-rule="evenodd" stroke="none"/>
    <path d="M-17.95 -46.9 L-18.0 -46.1 -17.8 -45.45 -17.85 -45.4 Q-18.95 -43.2 -21.5 -42.8 L-20.8 -43.7 -20.6 -44.3 -20.7 -44.9 -19.25 -46.85 -19.0 -47.1 -17.95 -46.9" fill="url(#gradient19)" fill-rule="evenodd" stroke="none"/>
    <path d="M-31.35 -41.65 L-30.5 -42.1 -29.7 -42.0 -30.95 -41.1 -31.5 -41.4 -31.35 -41.65" fill="url(#gradient20)" fill-rule="evenodd" stroke="none"/>
    <path d="M-29.7 -42.0 L-27.4 -44.45 Q-26.5 -45.4 -25.05 -45.5 L-24.75 -45.0 -24.75 -44.85 -24.7 -44.8 -24.55 -44.4 Q-25.7 -42.3 -23.35 -41.65 L-25.05 -40.0 -27.55 -39.05 -29.4 -38.9 -29.95 -39.05 -31.0 -40.65 -30.95 -41.1 -29.7 -42.0" fill="url(#gradient21)" fill-rule="evenodd" stroke="none"/>
    <path d="M-7.75 -48.65 L-8.25 -48.9 -7.3 -50.75 -6.75 -50.55 -7.75 -48.65" fill="url(#gradient22)" fill-rule="evenodd" stroke="none"/>
    <path d="M-17.8 -45.45 L-17.8 -45.4 -17.85 -45.4 -17.8 -45.45" fill="url(#gradient23)" fill-rule="evenodd" stroke="none"/>
    <path d="M-13.95 -49.75 L-11.15 -48.25 Q-10.85 -47.35 -11.95 -45.45 L-12.55 -45.25 -12.4 -44.45 -12.15 -44.3 -12.6 -42.0 -12.45 -22.55 Q-12.85 -24.35 -15.75 -24.55 L-15.95 -24.85 -16.15 -40.65 Q-15.5 -49.95 -13.95 -49.75" fill="url(#gradient24)" fill-rule="evenodd" stroke="none"/>
    <path d="M-17.05 -30.0 L-17.0 -30.35 -17.0 -30.0 -17.05 -30.0" fill="url(#gradient25)" fill-rule="evenodd" stroke="none"/>
    <path d="M-18.45 -29.3 L-18.05 -31.55 -17.2 -33.05 -17.15 -31.6 -16.95 -31.3 -17.0 -30.35 -17.05 -30.0 -17.4 -28.05 -17.95 -28.35 -18.45 -29.3" fill="url(#gradient26)" fill-rule="evenodd" stroke="none"/>
    <path d="M-17.2 -33.05 L-16.95 -33.75 -16.95 -31.3 -17.15 -31.6 -17.2 -33.05" fill="url(#gradient27)" fill-rule="evenodd" stroke="none"/>
    <path d="M-0.7 -49.05 L0.95 -48.75 Q3.05 -47.3 2.6 -46.9 L2.55 -46.9 1.4 -47.9 Q0.25 -48.65 -0.45 -48.5 L-0.7 -49.05" fill="url(#gradient28)" fill-rule="evenodd" stroke="none"/>
    <path d="M-4.75 -41.0 Q-5.45 -47.2 -0.7 -49.05 L-0.45 -48.5 Q-5.5 -47.3 -4.4 -40.8 L-4.55 -40.8 -4.75 -41.0 M-5.35 -41.2 L-4.55 -40.7 -4.35 -40.65 -4.4 -40.6 -4.7 -40.6 -4.4 -40.5 -4.35 -40.4 -5.15 -40.65 -5.2 -40.7 -5.35 -41.2" fill="url(#gradient29)" fill-rule="evenodd" stroke="none"/>
    <path d="M-6.9 -42.7 L-6.95 -43.4 -4.75 -41.0 -4.55 -40.8 -4.55 -40.7 -5.35 -41.2 -6.35 -41.8 -6.6 -42.1 -6.9 -42.7" fill="url(#gradient30)" fill-rule="evenodd" stroke="none"/>
    <path d="M-7.85 -43.4 L-8.0 -43.6 -8.25 -45.0 -8.2 -45.2 -8.15 -45.05 -6.9 -42.7 -6.6 -42.1 -7.85 -43.4" fill="url(#gradient31)" fill-rule="evenodd" stroke="none"/>
    <path d="M-6.6 -42.1 L-6.35 -41.8 -5.6 -40.85 -7.15 -41.9 -7.85 -43.4 -6.6 -42.1" fill="url(#gradient32)" fill-rule="evenodd" stroke="none"/>
    <path d="M-5.6 -40.85 L-6.35 -41.8 -5.35 -41.2 -5.2 -40.7 -5.4 -40.7 -5.6 -40.85 M-4.4 -40.5 L-4.7 -40.6 -4.4 -40.6 -4.4 -40.5" fill="url(#gradient33)" fill-rule="evenodd" stroke="none"/>
    <path d="M2.6 -46.9 L2.7 -46.8 2.55 -46.9 2.6 -46.9" fill="url(#gradient34)" fill-rule="evenodd" stroke="none"/>
    <path d="M3.3 -45.85 Q5.1 -42.3 3.4 -39.1 L2.8 -38.2 2.3 -37.8 -1.85 -37.4 -3.1 -38.3 -4.1 -39.7 -4.35 -40.4 -4.4 -40.5 -4.4 -40.6 -4.35 -40.65 -4.4 -40.8 Q-5.5 -47.3 -0.45 -48.5 0.25 -48.65 1.4 -47.9 L2.55 -46.9 2.7 -46.8 3.3 -45.85" fill="url(#gradient35)" fill-rule="evenodd" stroke="none"/>
    <path d="M-21.5 -42.8 L-22.4 -42.2 -23.15 -42.25 -23.1 -43.8 -21.8 -44.25 -20.7 -44.9 -20.6 -44.3 -20.8 -43.7 -21.5 -42.8" fill="url(#gradient36)" fill-rule="evenodd" stroke="none"/>
    <path d="M-22.4 -42.2 L-23.35 -41.65 Q-25.7 -42.3 -24.55 -44.4 L-23.5 -43.8 -23.1 -43.8 -23.15 -42.25 -22.4 -42.2" fill="url(#gradient37)" fill-rule="evenodd" stroke="none"/>
    <path d="M3.4 -39.1 Q4.8 -35.7 2.5 -31.35 L2.35 -31.2 2.0 -30.75 Q0.7 -30.5 0.1 -29.9 L0.05 -30.35 Q4.75 -32.55 2.8 -38.2 L3.4 -39.1" fill="url(#gradient38)" fill-rule="evenodd" stroke="none"/>
    <path d="M-1.85 -37.4 L2.3 -37.8 2.8 -38.2 Q4.75 -32.55 0.05 -30.35 L-0.75 -30.55 -1.75 -31.4 -2.45 -33.2 -2.5 -34.45 -2.45 -35.45 -1.85 -37.4" fill="url(#gradient39)" fill-rule="evenodd" stroke="none"/>
    <path d="M-1.85 -37.4 L-2.45 -35.45 -2.5 -34.45 -3.05 -34.2 -3.7 -32.55 Q-4.8 -35.9 -3.1 -38.3 L-1.85 -37.4" fill="url(#gradient40)" fill-rule="evenodd" stroke="none"/>
    <path d="M-5.4 -40.7 L-5.2 -40.7 -5.15 -40.65 -4.35 -40.4 -4.1 -39.7 -4.15 -39.7 -5.35 -40.65 -5.4 -40.7" fill="url(#gradient41)" fill-rule="evenodd" stroke="none"/>
    <path d="M-4.55 -40.7 L-4.55 -40.8 -4.4 -40.8 -4.35 -40.65 -4.55 -40.7" fill="url(#gradient42)" fill-rule="evenodd" stroke="none"/>
    <path d="M-29.55 -36.2 Q-34.0 -36.0 -32.95 -40.0 L-32.55 -40.65 -31.5 -41.4 -30.95 -41.1 -31.0 -40.65 -29.95 -39.05 -29.4 -38.9 -27.55 -39.05 -27.75 -37.8 -28.9 -37.05 -29.55 -36.2" fill="url(#gradient43)" fill-rule="evenodd" stroke="none"/>
    <path d="M-20.45 -19.85 Q-20.7 -22.75 -18.9 -24.45 L-18.85 -24.35 -18.75 -22.9 Q-18.65 -22.15 -17.25 -21.15 L-17.4 -19.25 -16.75 -18.95 -16.2 -16.65 -15.85 -16.0 Q-18.9 -15.5 -20.45 -19.85" fill="url(#gradient44)" fill-rule="evenodd" stroke="none"/>
    <path d="M-20.5 -17.45 L-20.65 -18.85 -20.45 -19.85 Q-18.9 -15.5 -15.85 -16.0 L-15.2 -14.6 Q-18.55 -13.5 -20.2 -16.5 L-20.3 -16.7 -20.5 -17.45" fill="url(#gradient45)" fill-rule="evenodd" stroke="none"/>
    <path d="M-16.05 -13.5 Q-15.25 -9.15 -19.85 -11.6 L-23.75 -15.6 Q-22.5 -18.75 -20.5 -17.45 L-20.3 -16.7 -20.3 -16.6 -20.0 -15.45 -19.4 -14.6 -19.4 -14.55 Q-18.3 -10.35 -16.55 -13.45 L-16.05 -13.5" fill="url(#gradient46)" fill-rule="evenodd" stroke="none"/>
    <path d="M-14.85 -14.0 L-16.05 -13.5 -16.55 -13.45 -17.75 -13.5 Q-19.25 -14.2 -19.4 -14.55 L-19.4 -14.6 -20.0 -15.45 -20.3 -16.6 -20.2 -16.5 Q-18.55 -13.5 -15.2 -14.6 L-14.85 -14.0" fill="url(#gradient47)" fill-rule="evenodd" stroke="none"/>
    <path d="M-18.85 -24.35 L-17.25 -22.55 -17.25 -21.15 Q-18.65 -22.15 -18.75 -22.9 L-18.85 -24.35" fill="url(#gradient48)" fill-rule="evenodd" stroke="none"/>
    <path d="M-18.8 -27.95 L-18.45 -29.3 -17.95 -28.35 -17.4 -28.05 -17.6 -26.65 -18.8 -27.95" fill="url(#gradient49)" fill-rule="evenodd" stroke="none"/>
    <path d="M-2.5 -34.45 L-2.45 -33.2 -1.75 -31.4 -2.75 -30.3 -3.3 -30.5 -3.55 -31.15 -3.7 -32.55 -3.05 -34.2 -2.5 -34.45" fill="url(#gradient50)" fill-rule="evenodd" stroke="none"/>
    <path d="M-1.75 -31.4 L-0.75 -30.55 0.05 -30.35 0.1 -29.9 Q-1.0 -27.7 -2.25 -28.4 L-2.3 -28.5 -2.5 -28.6 -2.55 -28.7 -3.1 -29.5 -3.3 -30.5 -2.75 -30.3 -1.75 -31.4" fill="url(#gradient51)" fill-rule="evenodd" stroke="none"/>
    <path d="M2.5 -31.15 L3.55 -29.6 3.75 -28.2 3.95 -27.1 3.7 -26.1 Q2.2 -23.95 0.3 -25.65 L-0.45 -26.1 -1.35 -26.9 -1.85 -27.65 -1.9 -27.95 -1.95 -27.9 -2.05 -27.95 -2.05 -28.05 -1.95 -28.15 -2.1 -28.1 -2.25 -28.3 -2.25 -28.4 Q-1.0 -27.7 0.1 -29.9 0.7 -30.5 2.0 -30.75 L2.35 -31.2 2.5 -31.15 M-2.5 -28.6 L-2.3 -28.5 -2.3 -28.4 -2.5 -28.6" fill="url(#gradient52)" fill-rule="evenodd" stroke="none"/>
    <path d="M-2.3 -28.5 L-2.25 -28.4 -2.3 -28.4 -2.3 -28.5" fill="url(#gradient53)" fill-rule="evenodd" stroke="none"/>
    <path d="M3.75 -28.2 Q6.45 -27.45 6.1 -24.75 5.0 -22.05 2.6 -22.5 L2.5 -22.55 Q1.05 -23.1 0.8 -23.65 L0.35 -24.7 0.3 -25.65 Q2.2 -23.95 3.7 -26.1 L3.95 -27.1 3.75 -28.2" fill="url(#gradient54)" fill-rule="evenodd" stroke="none"/>
    <path d="M-1.35 -26.9 L-0.45 -26.1 0.3 -25.65 0.35 -24.7 -1.75 -24.1 -1.35 -26.9" fill="url(#gradient55)" fill-rule="evenodd" stroke="none"/>
    <path d="M-2.25 -28.4 L-2.25 -28.3 -2.3 -28.4 -2.25 -28.4 M-2.1 -28.1 L-1.95 -28.15 -2.05 -28.05 -2.05 -27.95 -2.1 -28.1 M-1.95 -27.9 L-1.9 -27.95 -1.85 -27.65 -1.95 -27.9" fill="url(#gradient56)" fill-rule="evenodd" stroke="none"/>
    <path d="M-2.1 -20.95 L-1.75 -24.1 0.35 -24.7 0.8 -23.65 Q1.05 -23.1 2.5 -22.55 2.8 -19.9 -2.1 -20.95" fill="url(#gradient57)" fill-rule="evenodd" stroke="none"/>
    <path d="M2.6 -22.5 L2.5 -20.75 1.55 -18.5 Q-0.75 -15.55 -4.15 -16.7 L-3.3 -18.15 Q-3.25 -20.35 -2.1 -20.95 2.8 -19.9 2.5 -22.55 L2.6 -22.5" fill="url(#gradient58)" fill-rule="evenodd" stroke="none"/>
    <path d="M1.55 -18.5 L1.4 -16.9 Q0.8 -13.6 -5.0 -15.0 L-4.15 -16.7 Q-0.75 -15.55 1.55 -18.5" fill="url(#gradient59)" fill-rule="evenodd" stroke="none"/>
    <path d="M0.35 -3.1 L0.25 -3.2 -1.35 -4.95 -2.3 -6.0 -3.35 -7.15 -6.75 -10.85 -7.35 -11.45 -7.35 -11.55 -10.4 -14.9 -10.35 -15.05 -9.65 -15.9 -8.55 -16.65 -5.7 -13.65 -1.85 -9.45 -0.3 -7.75 0.15 -7.2 1.95 -5.3 2.2 -4.75 1.2 -3.95 0.5 -3.2 0.35 -3.1" fill="url(#gradient60)" fill-rule="evenodd" stroke="none"/>
    <path d="M1.4 -16.9 Q1.9 -16.35 2.0 -14.3 L1.55 -12.15 1.3 -11.55 0.35 -10.4 Q-0.55 -9.65 -1.85 -9.45 L-5.7 -13.65 -5.0 -15.0 Q0.8 -13.6 1.4 -16.9" fill="url(#gradient61)" fill-rule="evenodd" stroke="none"/>
    <path d="M-20.2 -16.5 L-20.3 -16.6 -20.3 -16.7 -20.2 -16.5" fill="url(#gradient62)" fill-rule="evenodd" stroke="none"/>
    <path d="M-19.4 -14.55 Q-19.25 -14.2 -17.75 -13.5 L-16.55 -13.45 Q-18.3 -10.35 -19.4 -14.55" fill="url(#gradient63)" fill-rule="evenodd" stroke="none"/>
    <path d="M1.55 -12.15 L1.55 -10.75 1.15 -9.6 0.75 -8.8 -0.3 -7.75 -1.85 -9.45 Q-0.55 -9.65 0.35 -10.4 L1.3 -11.55 1.55 -12.15 M-6.1 -8.95 L-6.15 -9.0 -6.15 -9.15 -6.15 -9.2 -6.2 -9.2 -6.75 -10.85 -3.35 -7.15 -4.75 -7.6 -6.1 -8.95" fill="url(#gradient64)" fill-rule="evenodd" stroke="none"/>
    <path d="M1.15 -9.6 L1.1 -8.75 0.6 -7.75 0.15 -7.2 -0.3 -7.75 0.75 -8.8 1.15 -9.6 M-3.9 -6.3 Q-4.6 -6.5 -5.4 -7.5 L-6.1 -8.95 -4.75 -7.6 -3.35 -7.15 -2.3 -6.0 -3.9 -6.3" fill="url(#gradient65)" fill-rule="evenodd" stroke="none"/>
    <path d="M-6.15 -9.15 L-6.2 -9.2 -6.15 -9.2 -6.15 -9.15" fill="url(#gradient66)" fill-rule="evenodd" stroke="none"/>
    <path d="M-3.9 -6.15 L-3.9 -6.3 -2.3 -6.0 -1.35 -4.95 Q-3.95 -4.1 -3.9 -6.15" fill="url(#gradient67)" fill-rule="evenodd" stroke="none"/>
    <path d="M0.6 -7.75 Q5.05 -9.45 5.6 -5.7 L4.9 -5.0 1.1 -3.5 2.2 -4.75 1.95 -5.3 0.15 -7.2 0.6 -7.75 M0.25 -3.2 Q-5.8 -0.95 -3.9 -6.15 -3.95 -4.1 -1.35 -4.95 L0.25 -3.2" fill="url(#gradient68)" fill-rule="evenodd" stroke="none"/>
    <path d="M1.1 -3.5 L0.5 -3.1 0.5 -3.2 1.2 -3.95 2.2 -4.75 1.1 -3.5" fill="url(#gradient69)" fill-rule="evenodd" stroke="none"/>
    <path d="M0.5 -3.1 L0.35 -3.1 0.5 -3.2 0.5 -3.1" fill="url(#gradient70)" fill-rule="evenodd" stroke="none"/>
  </g>
  <defs>
    <radialGradient cx="0" cy="0" gradientTransform="matrix(0.0074, 0.0, 0.0, 0.0074, -5.6, -60.4)" gradientUnits="userSpaceOnUse" id="gradient0" r="819.2" spreadMethod="pad">
      <stop offset="0.0" stop-color="#f4e7bc"/>
      <stop offset="1.0" stop-color="#89826a"/>
    </radialGradient>
    <radialGradient cx="0" cy="0" gradientTransform="matrix(0.0049, 0.0, 0.0, 0.0049, -8.45, -65.5)" gradientUnits="userSpaceOnUse" id="gradient1" r="819.2" spreadMethod="pad">
      <stop offset="0.0" stop-color="#726c58"/>
      <stop offset="1.0" stop-color="#1f1e18"/>
    </radialGradient>
    <radialGradient cx="0" cy="0" gradientTransform="matrix(0.0107, 0.0, 0.0, 0.0107, -7.7, -57.2)" gradientUnits="userSpaceOnUse" id="gradient2" r="819.2" spreadMethod="pad">
      <stop offset="0.0" stop-color="#375673"/>
      <stop offset="1.0" stop-color="#365572"/>
    </radialGradient>
    <radialGradient cx="0" cy="0" gradientTransform="matrix(0.0128, 0.0, 0.0, 0.0128, -10.75, -58.45)" gradientUnits="userSpaceOnUse" id="gradient3" r="819.2" spreadMethod="pad">
      <stop offset="0.0" stop-color="#294157"/>
      <stop offset="1.0" stop-color="#213446"/>
    </radialGradient>
    <radialGradient cx="0" cy="0" gradientTransform="matrix(0.0093, 0.0, 0.0, 0.0093, -7.6, -54.0)" gradientUnits="userSpaceOnUse" id="gradient4" r="819.2" spreadMethod="pad">
      <stop offset="0.0" stop-color="#3e6283"/>
      <stop offset="1.0" stop-color="#263b4f"/>
    </radialGradient>
    <radialGradient cx="0" cy="0" gradientTransform="matrix(0.0478, 0.0, 0.0, 0.0478, -7.8, -49.9)" gradientUnits="userSpaceOnUse" id="gradient5" r="819.2" spreadMethod="pad">
      <stop offset="0.0" stop-color="#ffcd00"/>
      <stop offset="1.0" stop-color="#fd8000"/>
    </radialGradient>
    <radialGradient cx="0" cy="0" gradientTransform="matrix(0.0085, 0.0, 0.0, 0.0085, -15.9, -53.3)" gradientUnits="userSpaceOnUse" id="gradient6" r="819.2" spreadMethod="pad">
      <stop offset="0.0" stop-color="#665f4a"/>
      <stop offset="1.0" stop-color="#393529"/>
    </radialGradient>
    <radialGradient cx="0" cy="0" gradientTransform="matrix(0.0066, 0.0, 0.0, 0.0066, -20.45, -46.35)" gradientUnits="userSpaceOnUse" id="gradient7" r="819.2" spreadMethod="pad">
      <stop offset="0.0" stop-color="#feb368"/>
      <stop offset="1.0" stop-color="#a17242"/>
    </radialGradient>
    <radialGradient cx="0" cy="0" gradientTransform="matrix(0.0079, 0.0, 0.0, 0.0079, -19.9, -48.95)" gradientUnits="userSpaceOnUse" id="gradient8" r="819.2" spreadMethod="pad">
      <stop offset="0.0" stop-color="#ffde81"/>
      <stop offset="1.0" stop-color="#b8824c"/>
    </radialGradient>
    <radialGradient cx="0" cy="0" gradientTransform="matrix(0.0787, 0.0, 0.0, 0.0787, -10.45, -17.4)" gradientUnits="userSpaceOnUse" id="gradient9" r="819.2" spreadMethod="pad">
      <stop offset="0.0" stop-color="#7d4724"/>
      <stop offset="1.0" stop-color="#61371c"/>
    </radialGradient>
    <radialGradient cx="0" cy="0" gradientTransform="matrix(0.0011, 0.0, 0.0, 0.0011, -49.7, -58.9)" gradientUnits="userSpaceOnUse" id="gradient10" r="819.2" spreadMethod="pad">
      <stop offset="0.0" stop-color="#1f1e18"/>
      <stop offset="1.0" stop-color="#1f1e18"/>
    </radialGradient>
    <radialGradient cx="0" cy="0" gradientTransform="matrix(0.0085, 0.0, 0.0, 0.0085, -44.55, -54.3)" gradientUnits="userSpaceOnUse" id="gradient11" r="819.2" spreadMethod="pad">
      <stop offset="0.0" stop-color="#fffecf"/>
      <stop offset="1.0" stop-color="#d3cca6"/>
    </radialGradient>
    <radialGradient cx="0" cy="0" gradientTransform="matrix(0.0017, 0.0, 0.0, 0.0017, -44.55, -54.3)" gradientUnits="userSpaceOnUse" id="gradient12" r="819.2" spreadMethod="pad">
      <stop offset="0.0" stop-color="#7c755f"/>
      <stop offset="1.0" stop-color="#7b755f"/>
    </radialGradient>
    <radialGradient cx="0" cy="0" gradientTransform="matrix(0.0229, 0.0, 0.0, 0.0229, -61.45, -68.3)" gradientUnits="userSpaceOnUse" id="gradient13" r="819.2" spreadMethod="pad">
      <stop offset="0.0" stop-color="#804925"/>
      <stop offset="1.0" stop-color="#3a2110"/>
    </radialGradient>
    <radialGradient cx="0" cy="0" gradientTransform="matrix(0.0054, 0.0, 0.0, 0.0054, -9.75, -53.75)" gradientUnits="userSpaceOnUse" id="gradient14" r="819.2" spreadMethod="pad">
      <stop offset="0.0" stop-color="#3e6081"/>
      <stop offset="1.0" stop-color="#2b445b"/>
    </radialGradient>
    <radialGradient cx="0" cy="0" gradientTransform="matrix(0.0077, 0.0, 0.0, 0.0077, -9.25, -51.85)" gradientUnits="userSpaceOnUse" id="gradient15" r="819.2" spreadMethod="pad">
      <stop offset="0.0" stop-color="#3e6182"/>
      <stop offset="1.0" stop-color="#2e4861"/>
    </radialGradient>
    <radialGradient cx="0" cy="0" gradientTransform="matrix(0.0019, 0.0, 0.0, 0.0019, -6.85, -53.2)" gradientUnits="userSpaceOnUse" id="gradient16" r="819.2" spreadMethod="pad">
      <stop offset="0.0" stop-color="#273d52"/>
      <stop offset="1.0" stop-color="#273d52"/>
    </radialGradient>
    <radialGradient cx="0" cy="0" gradientTransform="matrix(0.0034, 0.0, 0.0, 0.0034, -14.8, -50.65)" gradientUnits="userSpaceOnUse" id="gradient17" r="819.2" spreadMethod="pad">
      <stop offset="0.0" stop-color="#080c10"/>
      <stop offset="1.0" stop-color="#080c10"/>
    </radialGradient>
    <radialGradient cx="0" cy="0" gradientTransform="matrix(0.0405, 0.0, 0.0, 0.0405, -8.85, -48.5)" gradientUnits="userSpaceOnUse" id="gradient18" r="819.2" spreadMethod="pad">
      <stop offset="0.0" stop-color="#3b5d7c"/>
      <stop offset="1.0" stop-color="#263b50"/>
    </radialGradient>
    <radialGradient cx="0" cy="0" gradientTransform="matrix(0.0071, 0.0, 0.0, 0.0071, -18.5, -47.45)" gradientUnits="userSpaceOnUse" id="gradient19" r="819.2" spreadMethod="pad">
      <stop offset="0.0" stop-color="#ffda7f"/>
      <stop offset="1.0" stop-color="#745130"/>
    </radialGradient>
    <radialGradient cx="0" cy="0" gradientTransform="matrix(0.0013, 0.0, 0.0, 0.0013, -30.5, -41.55)" gradientUnits="userSpaceOnUse" id="gradient20" r="819.2" spreadMethod="pad">
      <stop offset="0.0" stop-color="#ffe082"/>
      <stop offset="1.0" stop-color="#d29456"/>
    </radialGradient>
    <radialGradient cx="0" cy="0" gradientTransform="matrix(0.0087, 0.0, 0.0, 0.0087, -24.95, -43.55)" gradientUnits="userSpaceOnUse" id="gradient21" r="819.2" spreadMethod="pad">
      <stop offset="0.0" stop-color="#625c47"/>
      <stop offset="1.0" stop-color="#3d392c"/>
    </radialGradient>
    <radialGradient cx="0" cy="0" gradientTransform="matrix(0.0026, 0.0, 0.0, 0.0026, -7.4, -50.9)" gradientUnits="userSpaceOnUse" id="gradient22" r="819.2" spreadMethod="pad">
      <stop offset="0.0" stop-color="#273d51"/>
      <stop offset="1.0" stop-color="#263c51"/>
    </radialGradient>
    <radialGradient cx="0" cy="0" gradientTransform="matrix(0.0306, 0.0, 0.0, 0.0306, -13.85, -56.1)" gradientUnits="userSpaceOnUse" id="gradient23" r="819.2" spreadMethod="pad">
      <stop offset="0.0" stop-color="#d86d00"/>
      <stop offset="1.0" stop-color="#331a00"/>
    </radialGradient>
    <radialGradient cx="0" cy="0" gradientTransform="matrix(0.0326, 0.0, 0.0, 0.0326, -11.3, -49.2)" gradientUnits="userSpaceOnUse" id="gradient24" r="819.2" spreadMethod="pad">
      <stop offset="0.0" stop-color="#f1e5ba"/>
      <stop offset="1.0" stop-color="#958e73"/>
    </radialGradient>
    <radialGradient cx="0" cy="0" gradientTransform="matrix(0.0047, 0.0, 0.0, 0.0047, -17.15, -28.8)" gradientUnits="userSpaceOnUse" id="gradient25" r="819.2" spreadMethod="pad">
      <stop offset="0.0" stop-color="#331a00"/>
      <stop offset="1.0" stop-color="#331a00"/>
    </radialGradient>
    <radialGradient cx="0" cy="0" gradientTransform="matrix(0.0058, 0.0, 0.0, 0.0058, -16.95, -31.9)" gradientUnits="userSpaceOnUse" id="gradient26" r="819.2" spreadMethod="pad">
      <stop offset="0.0" stop-color="#2d475f"/>
      <stop offset="1.0" stop-color="#24394d"/>
    </radialGradient>
    <radialGradient cx="0" cy="0" gradientTransform="matrix(0.0031, 0.0, 0.0, 0.0031, -16.75, -33.05)" gradientUnits="userSpaceOnUse" id="gradient27" r="819.2" spreadMethod="pad">
      <stop offset="0.0" stop-color="#2a4157"/>
      <stop offset="1.0" stop-color="#263b50"/>
    </radialGradient>
    <radialGradient cx="0" cy="0" gradientTransform="matrix(0.0054, 0.0, 0.0, 0.0054, -1.05, -48.65)" gradientUnits="userSpaceOnUse" id="gradient28" r="819.2" spreadMethod="pad">
      <stop offset="0.0" stop-color="#645e49"/>
      <stop offset="1.0" stop-color="#433e30"/>
    </radialGradient>
    <radialGradient cx="0" cy="0" gradientTransform="matrix(0.0169, 0.0, 0.0, 0.0169, -4.65, -49.0)" gradientUnits="userSpaceOnUse" id="gradient29" r="819.2" spreadMethod="pad">
      <stop offset="0.0" stop-color="#ffd67c"/>
      <stop offset="1.0" stop-color="#e3a05d"/>
    </radialGradient>
    <radialGradient cx="0" cy="0" gradientTransform="matrix(0.0028, 0.0, 0.0, 0.0028, -6.6, -42.05)" gradientUnits="userSpaceOnUse" id="gradient30" r="819.2" spreadMethod="pad">
      <stop offset="0.0" stop-color="#ffac00"/>
      <stop offset="1.0" stop-color="#ffab00"/>
    </radialGradient>
    <radialGradient cx="0" cy="0" gradientTransform="matrix(0.0047, 0.0, 0.0, 0.0047, -8.4, -45.45)" gradientUnits="userSpaceOnUse" id="gradient31" r="819.2" spreadMethod="pad">
      <stop offset="0.0" stop-color="#ffc000"/>
      <stop offset="1.0" stop-color="#ffb600"/>
    </radialGradient>
    <radialGradient cx="0" cy="0" gradientTransform="matrix(0.0046, 0.0, 0.0, 0.0046, -8.0, -43.65)" gradientUnits="userSpaceOnUse" id="gradient32" r="819.2" spreadMethod="pad">
      <stop offset="0.0" stop-color="#ffbb00"/>
      <stop offset="1.0" stop-color="#ffad00"/>
    </radialGradient>
    <radialGradient cx="0" cy="0" gradientTransform="matrix(0.0043, 0.0, 0.0, 0.0043, -6.6, -42.05)" gradientUnits="userSpaceOnUse" id="gradient33" r="819.2" spreadMethod="pad">
      <stop offset="0.0" stop-color="#ffac00"/>
      <stop offset="1.0" stop-color="#ffa100"/>
    </radialGradient>
    <radialGradient cx="0" cy="0" gradientTransform="matrix(0.0016, 0.0, 0.0, 0.0016, 2.55, -46.4)" gradientUnits="userSpaceOnUse" id="gradient34" r="819.2" spreadMethod="pad">
      <stop offset="0.0" stop-color="#331a00"/>
      <stop offset="1.0" stop-color="#331a00"/>
    </radialGradient>
    <radialGradient cx="0" cy="0" gradientTransform="matrix(0.0101, 0.0, 0.0, 0.0101, -1.5, -45.2)" gradientUnits="userSpaceOnUse" id="gradient35" r="819.2" spreadMethod="pad">
      <stop offset="0.0" stop-color="#645d48"/>
      <stop offset="1.0" stop-color="#3a372b"/>
    </radialGradient>
    <radialGradient cx="0" cy="0" gradientTransform="matrix(0.004, 0.0, 0.0, 0.004, -21.3, -44.9)" gradientUnits="userSpaceOnUse" id="gradient36" r="819.2" spreadMethod="pad">
      <stop offset="0.0" stop-color="#ffd97e"/>
      <stop offset="1.0" stop-color="#a07141"/>
    </radialGradient>
    <radialGradient cx="0" cy="0" gradientTransform="matrix(0.0033, 0.0, 0.0, 0.0033, -22.8, -43.95)" gradientUnits="userSpaceOnUse" id="gradient37" r="819.2" spreadMethod="pad">
      <stop offset="0.0" stop-color="#ffcc77"/>
      <stop offset="1.0" stop-color="#b47f4a"/>
    </radialGradient>
    <radialGradient cx="0" cy="0" gradientTransform="matrix(0.0079, 0.0, 0.0, 0.0079, -1.8, -35.85)" gradientUnits="userSpaceOnUse" id="gradient38" r="819.2" spreadMethod="pad">
      <stop offset="0.0" stop-color="#ffb66a"/>
      <stop offset="1.0" stop-color="#8e643a"/>
    </radialGradient>
    <radialGradient cx="0" cy="0" gradientTransform="matrix(0.0094, 0.0, 0.0, 0.0094, -0.15, -38.2)" gradientUnits="userSpaceOnUse" id="gradient39" r="819.2" spreadMethod="pad">
      <stop offset="0.0" stop-color="#ffdb80"/>
      <stop offset="1.0" stop-color="#8a6138"/>
    </radialGradient>
    <radialGradient cx="0" cy="0" gradientTransform="matrix(0.0076, 0.0, 0.0, 0.0076, -2.05, -38.2)" gradientUnits="userSpaceOnUse" id="gradient40" r="819.2" spreadMethod="pad">
      <stop offset="0.0" stop-color="#ffda7f"/>
      <stop offset="1.0" stop-color="#ba844d"/>
    </radialGradient>
    <radialGradient cx="0" cy="0" gradientTransform="matrix(0.0041, 0.0, 0.0, 0.0041, -2.25, -40.05)" gradientUnits="userSpaceOnUse" id="gradient41" r="819.2" spreadMethod="pad">
      <stop offset="0.0" stop-color="#ff9500"/>
      <stop offset="1.0" stop-color="#ff9400"/>
    </radialGradient>
    <radialGradient cx="0" cy="0" gradientTransform="matrix(0.0043, 0.0, 0.0, 0.0043, -3.5, -40.35)" gradientUnits="userSpaceOnUse" id="gradient42" r="819.2" spreadMethod="pad">
      <stop offset="0.0" stop-color="#331a00"/>
      <stop offset="1.0" stop-color="#331a00"/>
    </radialGradient>
    <radialGradient cx="0" cy="0" gradientTransform="matrix(0.0044, 0.0, 0.0, 0.0044, -30.65, -39.7)" gradientUnits="userSpaceOnUse" id="gradient43" r="819.2" spreadMethod="pad">
      <stop offset="0.0" stop-color="#ffe887"/>
      <stop offset="1.0" stop-color="#a07142"/>
    </radialGradient>
    <radialGradient cx="0" cy="0" gradientTransform="matrix(0.0082, 0.0, 0.0, 0.0082, -17.3, -22.5)" gradientUnits="userSpaceOnUse" id="gradient44" r="819.2" spreadMethod="pad">
      <stop offset="0.0" stop-color="#42688c"/>
      <stop offset="1.0" stop-color="#1c2b3a"/>
    </radialGradient>
    <radialGradient cx="0" cy="0" gradientTransform="matrix(0.005, 0.0, 0.0, 0.005, -17.8, -17.35)" gradientUnits="userSpaceOnUse" id="gradient45" r="819.2" spreadMethod="pad">
      <stop offset="0.0" stop-color="#34516d"/>
      <stop offset="1.0" stop-color="#203344"/>
    </radialGradient>
    <radialGradient cx="0" cy="0" gradientTransform="matrix(0.0084, 0.0, 0.0, 0.0084, -17.75, -13.1)" gradientUnits="userSpaceOnUse" id="gradient46" r="819.2" spreadMethod="pad">
      <stop offset="0.0" stop-color="#6b644d"/>
      <stop offset="1.0" stop-color="#504b3a"/>
    </radialGradient>
    <radialGradient cx="0" cy="0" gradientTransform="matrix(0.0073, 0.0, 0.0, 0.0073, -20.15, -16.85)" gradientUnits="userSpaceOnUse" id="gradient47" r="819.2" spreadMethod="pad">
      <stop offset="0.0" stop-color="#263b4f"/>
      <stop offset="1.0" stop-color="#15202b"/>
    </radialGradient>
    <radialGradient cx="0" cy="0" gradientTransform="matrix(0.0032, 0.0, 0.0, 0.0032, -17.35, -23.65)" gradientUnits="userSpaceOnUse" id="gradient48" r="819.2" spreadMethod="pad">
      <stop offset="0.0" stop-color="#5a5441"/>
      <stop offset="1.0" stop-color="#363226"/>
    </radialGradient>
    <radialGradient cx="0" cy="0" gradientTransform="matrix(0.0034, 0.0, 0.0, 0.0034, -17.15, -27.75)" gradientUnits="userSpaceOnUse" id="gradient49" r="819.2" spreadMethod="pad">
      <stop offset="0.0" stop-color="#324e69"/>
      <stop offset="1.0" stop-color="#273e53"/>
    </radialGradient>
    <radialGradient cx="0" cy="0" gradientTransform="matrix(0.0048, 0.0, 0.0, 0.0048, -2.65, -34.25)" gradientUnits="userSpaceOnUse" id="gradient50" r="819.2" spreadMethod="pad">
      <stop offset="0.0" stop-color="#ffd87e"/>
      <stop offset="1.0" stop-color="#a47443"/>
    </radialGradient>
    <radialGradient cx="0" cy="0" gradientTransform="matrix(0.0044, 0.0, 0.0, 0.0044, -2.05, -31.95)" gradientUnits="userSpaceOnUse" id="gradient51" r="819.2" spreadMethod="pad">
      <stop offset="0.0" stop-color="#ffc875"/>
      <stop offset="1.0" stop-color="#7c5733"/>
    </radialGradient>
    <radialGradient cx="0" cy="0" gradientTransform="matrix(0.007, 0.0, 0.0, 0.007, 0.9, -30.5)" gradientUnits="userSpaceOnUse" id="gradient52" r="819.2" spreadMethod="pad">
      <stop offset="0.0" stop-color="#66604a"/>
      <stop offset="1.0" stop-color="#29261d"/>
    </radialGradient>
    <radialGradient cx="0" cy="0" gradientTransform="matrix(0.0034, 0.0, 0.0, 0.0034, -2.25, -28.55)" gradientUnits="userSpaceOnUse" id="gradient53" r="819.2" spreadMethod="pad">
      <stop offset="0.0" stop-color="#47321d"/>
      <stop offset="1.0" stop-color="#261b10"/>
    </radialGradient>
    <radialGradient cx="0" cy="0" gradientTransform="matrix(0.0041, 0.0, 0.0, 0.0041, 3.0, -25.9)" gradientUnits="userSpaceOnUse" id="gradient54" r="819.2" spreadMethod="pad">
      <stop offset="0.0" stop-color="#ffe887"/>
      <stop offset="1.0" stop-color="#94683c"/>
    </radialGradient>
    <radialGradient cx="0" cy="0" gradientTransform="matrix(0.0045, 0.0, 0.0, 0.0045, -1.9, -27.15)" gradientUnits="userSpaceOnUse" id="gradient55" r="819.2" spreadMethod="pad">
      <stop offset="0.0" stop-color="#2e4962"/>
      <stop offset="1.0" stop-color="#213547"/>
    </radialGradient>
    <radialGradient cx="0" cy="0" gradientTransform="matrix(0.0054, 0.0, 0.0, 0.0054, -2.0, -28.1)" gradientUnits="userSpaceOnUse" id="gradient56" r="819.2" spreadMethod="pad">
      <stop offset="0.0" stop-color="#0c0c09"/>
      <stop offset="1.0" stop-color="#0c0c09"/>
    </radialGradient>
    <radialGradient cx="0" cy="0" gradientTransform="matrix(0.0071, 0.0, 0.0, 0.0071, -1.85, -25.35)" gradientUnits="userSpaceOnUse" id="gradient57" r="819.2" spreadMethod="pad">
      <stop offset="0.0" stop-color="#395978"/>
      <stop offset="1.0" stop-color="#203344"/>
    </radialGradient>
    <radialGradient cx="0" cy="0" gradientTransform="matrix(0.0075, 0.0, 0.0, 0.0075, -1.55, -22.4)" gradientUnits="userSpaceOnUse" id="gradient58" r="819.2" spreadMethod="pad">
      <stop offset="0.0" stop-color="#3c5d7d"/>
      <stop offset="1.0" stop-color="#1b2a38"/>
    </radialGradient>
    <radialGradient cx="0" cy="0" gradientTransform="matrix(0.0059, 0.0, 0.0, 0.0059, -3.25, -17.3)" gradientUnits="userSpaceOnUse" id="gradient59" r="819.2" spreadMethod="pad">
      <stop offset="0.0" stop-color="#645e49"/>
      <stop offset="1.0" stop-color="#393529"/>
    </radialGradient>
    <radialGradient cx="0" cy="0" gradientTransform="matrix(0.0199, 0.0, 0.0, 0.0199, -9.4, -16.3)" gradientUnits="userSpaceOnUse" id="gradient60" r="819.2" spreadMethod="pad">
      <stop offset="0.0" stop-color="#ffffd1"/>
      <stop offset="1.0" stop-color="#a2997c"/>
    </radialGradient>
    <radialGradient cx="0" cy="0" gradientTransform="matrix(0.0077, 0.0, 0.0, 0.0077, -2.95, -15.6)" gradientUnits="userSpaceOnUse" id="gradient61" r="819.2" spreadMethod="pad">
      <stop offset="0.0" stop-color="#446b8f"/>
      <stop offset="1.0" stop-color="#213446"/>
    </radialGradient>
    <radialGradient cx="0" cy="0" gradientTransform="matrix(0.0045, 0.0, 0.0, 0.0045, -20.65, -18.15)" gradientUnits="userSpaceOnUse" id="gradient62" r="819.2" spreadMethod="pad">
      <stop offset="0.0" stop-color="#213445"/>
      <stop offset="1.0" stop-color="#101922"/>
    </radialGradient>
    <radialGradient cx="0" cy="0" gradientTransform="matrix(0.0042, 0.0, 0.0, 0.0042, -18.95, -15.2)" gradientUnits="userSpaceOnUse" id="gradient63" r="819.2" spreadMethod="pad">
      <stop offset="0.0" stop-color="#3a372a"/>
      <stop offset="1.0" stop-color="#25231b"/>
    </radialGradient>
    <radialGradient cx="0" cy="0" gradientTransform="matrix(0.0067, 0.0, 0.0, 0.0067, -1.4, -10.25)" gradientUnits="userSpaceOnUse" id="gradient64" r="819.2" spreadMethod="pad">
      <stop offset="0.0" stop-color="#304b64"/>
      <stop offset="1.0" stop-color="#1e2f40"/>
    </radialGradient>
    <radialGradient cx="0" cy="0" gradientTransform="matrix(0.0088, 0.0, 0.0, 0.0088, -5.9, -8.85)" gradientUnits="userSpaceOnUse" id="gradient65" r="819.2" spreadMethod="pad">
      <stop offset="0.0" stop-color="#223648"/>
      <stop offset="1.0" stop-color="#1b2b3a"/>
    </radialGradient>
    <radialGradient cx="0" cy="0" gradientTransform="matrix(0.0024, 0.0, 0.0, 0.0024, -6.4, -9.6)" gradientUnits="userSpaceOnUse" id="gradient66" r="819.2" spreadMethod="pad">
      <stop offset="0.0" stop-color="#1d2d3d"/>
      <stop offset="1.0" stop-color="#080c10"/>
    </radialGradient>
    <radialGradient cx="0" cy="0" gradientTransform="matrix(0.003, 0.0, 0.0, 0.003, -2.95, -6.6)" gradientUnits="userSpaceOnUse" id="gradient67" r="819.2" spreadMethod="pad">
      <stop offset="0.0" stop-color="#383529"/>
      <stop offset="1.0" stop-color="#29271e"/>
    </radialGradient>
    <radialGradient cx="0" cy="0" gradientTransform="matrix(0.0087, 0.0, 0.0, 0.0087, -1.6, -5.25)" gradientUnits="userSpaceOnUse" id="gradient68" r="819.2" spreadMethod="pad">
      <stop offset="0.0" stop-color="#68624c"/>
      <stop offset="1.0" stop-color="#504a3a"/>
    </radialGradient>
    <radialGradient cx="0" cy="0" gradientTransform="matrix(0.0025, 0.0, 0.0, 0.0025, 0.6, -3.5)" gradientUnits="userSpaceOnUse" id="gradient69" r="819.2" spreadMethod="pad">
      <stop offset="0.0" stop-color="#22130a"/>
      <stop offset="1.0" stop-color="#22130a"/>
    </radialGradient>
    <radialGradient cx="0" cy="0" gradientTransform="matrix(0.0027, 0.0, 0.0, 0.0027, 0.55, -3.5)" gradientUnits="userSpaceOnUse" id="gradient70" r="819.2" spreadMethod="pad">
      <stop offset="0.0" stop-color="#4a4639"/>
      <stop offset="1.0" stop-color="#4a4639"/>
    </radialGradient>
  </defs>
</svg>
