<?xml version="1.0" encoding="UTF-8" standalone="no"?>
<svg xmlns:ffdec="https://www.free-decompiler.com/flash" xmlns:xlink="http://www.w3.org/1999/xlink" ffdec:objectType="shape" height="67.35px" width="33.05px" xmlns="http://www.w3.org/2000/svg">
  <g transform="matrix(1.0, 0.0, 0.0, 1.0, 25.65, 49.15)">
    <path d="M3.55 -33.25 L4.25 -32.45 4.25 -31.85 4.85 -31.25 4.95 -31.05 5.15 -29.65 4.6 -25.0 4.3 -24.6 3.75 -24.35 3.55 -24.3 2.8 -24.1 -1.2 -23.85 -1.55 -23.8 -1.6 -23.65 -1.25 -23.65 -1.45 -22.8 -1.5 -22.6 Q-9.05 -18.1 -11.05 -22.8 L-11.35 -23.25 Q-10.85 -25.45 -6.25 -28.55 L-1.9 -33.9 -1.35 -34.95 -1.0 -36.85 -0.7 -37.0 -1.0 -37.1 -0.95 -37.35 0.6 -36.0 2.6 -33.95 3.55 -33.25 M2.5 -18.95 L3.0 -17.85 3.05 -16.5 2.4 -18.3 2.5 -18.95 M2.65 -14.05 L2.65 -14.0 1.6 -12.75 1.85 -13.4 2.45 -14.05 2.65 -14.05 M-4.85 -10.05 L-7.15 -10.25 -8.5 -10.5 -8.75 -10.6 -10.1 -11.0 -9.9 -11.55 -8.0 -11.8 -3.65 -11.6 -2.45 -10.6 -2.25 -10.4 -4.85 -10.05 M-3.75 -16.85 Q-7.35 -16.0 -8.4 -15.4 L-10.95 -14.8 -11.7 -15.3 -13.05 -15.5 -13.25 -17.85 -13.45 -18.05 -14.25 -18.15 -13.15 -20.1 -11.75 -21.95 Q-9.15 -16.6 -4.15 -18.3 L-3.9 -17.75 -3.75 -16.85 M0.4 -12.35 L0.75 -11.9 0.45 -11.65 0.4 -12.35" fill="url(#gradient0)" fill-rule="evenodd" stroke="none"/>
    <path d="M4.25 -32.45 L3.55 -33.25 Q2.95 -46.3 -0.1 -43.95 L-0.45 -44.6 -2.25 -46.45 -3.2 -46.65 Q-1.25 -51.45 3.75 -47.1 6.55 -45.55 4.25 -32.45" fill="url(#gradient1)" fill-rule="evenodd" stroke="none"/>
    <path d="M4.95 -31.05 L4.85 -31.25 6.6 -31.55 4.95 -31.05" fill="url(#gradient2)" fill-rule="evenodd" stroke="none"/>
    <path d="M-1.5 -22.6 L-1.45 -22.8 -1.25 -23.65 -1.2 -23.85 2.8 -24.1 3.55 -24.3 Q2.85 -23.85 2.5 -18.95 L2.4 -18.3 1.8 -15.35 Q-1.0 -16.1 -1.05 -16.75 L-2.05 -16.9 -1.95 -18.6 -1.65 -21.15 -1.5 -22.6" fill="url(#gradient3)" fill-rule="evenodd" stroke="none"/>
    <path d="M3.05 -16.5 L4.3 -13.75 3.95 -14.0 3.9 -14.0 3.3 -14.25 2.65 -14.05 2.45 -14.05 1.85 -13.4 1.6 -12.75 1.25 -11.35 0.75 -11.9 0.4 -12.35 0.4 -12.55 Q2.35 -13.85 1.8 -15.35 L2.4 -18.3 3.05 -16.5 M-2.55 -19.5 L-2.75 -20.0 -1.65 -21.15 -1.95 -18.6 -2.55 -19.5" fill="url(#gradient4)" fill-rule="evenodd" stroke="none"/>
    <path d="M1.8 -15.35 Q2.35 -13.85 0.4 -12.55 L-0.1 -12.3 -3.65 -11.6 -8.0 -11.8 -9.9 -11.55 Q-9.6 -12.1 -10.05 -13.6 L-10.95 -14.8 -8.4 -15.4 Q-7.35 -16.0 -3.75 -16.85 L-2.05 -16.9 -1.05 -16.75 Q-1.0 -16.1 1.8 -15.35" fill="url(#gradient5)" fill-rule="evenodd" stroke="none"/>
    <path d="M4.3 -13.75 L4.05 -13.55 3.9 -14.0 3.95 -14.0 4.3 -13.75" fill="url(#gradient6)" fill-rule="evenodd" stroke="none"/>
    <path d="M2.65 -14.0 Q2.9 -14.2 3.1 -10.5 L2.75 -8.45 2.6 -8.3 2.5 -8.0 2.55 -8.0 2.85 -7.35 2.5 -6.0 2.05 -6.0 Q1.65 -6.4 0.6 -5.6 L-1.75 -6.15 -3.1 -7.5 Q-4.9 -9.65 -4.85 -10.05 L-2.25 -10.4 0.05 -8.1 0.5 -10.6 0.45 -11.65 0.75 -11.9 1.25 -11.35 1.6 -12.75 2.65 -14.0" fill="url(#gradient7)" fill-rule="evenodd" stroke="none"/>
    <path d="M-2.05 -16.9 L-3.75 -16.85 -3.9 -17.75 -4.15 -18.3 -4.05 -18.55 Q-3.15 -18.85 -2.55 -19.5 L-1.95 -18.6 -2.05 -16.9 M-3.65 -11.6 L-0.1 -12.3 0.4 -12.55 0.4 -12.35 0.45 -11.65 0.5 -10.6 0.05 -8.1 -2.25 -10.4 -2.45 -10.6 -3.65 -11.6" fill="url(#gradient8)" fill-rule="evenodd" stroke="none"/>
    <path d="M2.55 -8.0 L3.45 -7.05 2.85 -7.35 2.55 -8.0" fill="url(#gradient9)" fill-rule="evenodd" stroke="none"/>
    <path d="M3.45 -7.05 L2.55 -8.0 2.5 -8.0 2.6 -8.3 3.45 -7.3 3.6 -6.95 3.45 -7.05" fill="url(#gradient10)" fill-rule="evenodd" stroke="none"/>
    <path d="M2.75 -8.45 Q6.0 -7.0 6.0 -2.65 5.0 0.55 1.8 -1.15 L0.5 -2.65 Q-0.35 -4.1 -0.25 -4.95 2.45 -3.4 2.05 -6.0 L2.5 -6.0 2.85 -7.35 3.45 -7.05 3.6 -6.95 3.45 -7.3 2.6 -8.3 2.75 -8.45" fill="url(#gradient11)" fill-rule="evenodd" stroke="none"/>
    <path d="M-0.25 -4.95 L-1.1 -5.35 -1.75 -6.15 0.6 -5.6 Q1.65 -6.4 2.05 -6.0 2.45 -3.4 -0.25 -4.95" fill="url(#gradient12)" fill-rule="evenodd" stroke="none"/>
    <path d="M6.0 -2.65 L6.3 -1.5 6.35 0.55 7.0 1.55 Q6.15 5.65 3.15 3.35 2.7 1.8 2.8 0.85 L1.8 -1.15 Q5.0 0.55 6.0 -2.65" fill="url(#gradient13)" fill-rule="evenodd" stroke="none"/>
    <path d="M6.35 0.55 Q6.95 0.7 7.35 1.85 L7.4 4.85 Q6.15 10.95 4.5 10.6 L3.55 10.35 2.3 10.55 Q0.5 8.7 3.15 3.35 6.15 5.65 7.0 1.55 L6.35 0.55" fill="url(#gradient14)" fill-rule="evenodd" stroke="none"/>
    <path d="M4.5 10.6 L2.3 10.55 3.55 10.35 4.5 10.6" fill="url(#gradient15)" fill-rule="evenodd" stroke="none"/>
    <path d="M-3.2 -46.65 L-2.25 -46.45 -0.45 -44.6 -0.1 -43.95 Q1.5 -42.85 -1.25 -38.6 L-1.45 -38.4 -2.25 -37.75 Q-2.75 -38.25 -5.1 -39.35 L-6.35 -39.0 Q-6.5 -40.55 -8.65 -40.4 L-9.5 -39.9 Q-9.75 -39.55 -9.6 -38.4 L-10.05 -38.5 -10.6 -39.05 -10.75 -39.25 -10.85 -39.3 Q-9.35 -41.35 -10.95 -42.5 L-10.9 -42.8 Q-9.05 -47.2 -3.2 -46.65" fill="url(#gradient16)" fill-rule="evenodd" stroke="none"/>
    <path d="M-6.35 -39.0 L-6.55 -37.0 -6.95 -33.25 -7.0 -32.5 -7.05 -32.15 -7.05 -32.0 -7.25 -30.4 -7.6 -29.0 -8.05 -29.55 -8.1 -29.65 -8.85 -32.75 -9.15 -34.75 -9.1 -34.95 -9.6 -38.4 Q-9.75 -39.55 -9.5 -39.9 L-8.65 -40.4 Q-6.5 -40.55 -6.35 -39.0" fill="url(#gradient17)" fill-rule="evenodd" stroke="none"/>
    <path d="M-1.0 -37.1 L-0.7 -37.0 -1.0 -36.85 -1.55 -36.55 -3.05 -36.35 -5.0 -36.5 -6.55 -37.0 -6.35 -39.0 -5.1 -39.35 Q-2.75 -38.25 -2.25 -37.75 L-1.25 -37.25 -1.0 -37.1" fill="url(#gradient18)" fill-rule="evenodd" stroke="none"/>
    <path d="M-6.55 -37.0 L-5.0 -36.5 -3.05 -36.35 -2.95 -35.95 -4.05 -34.55 -5.65 -33.75 -6.4 -33.4 -6.95 -33.25 -6.55 -37.0 M-10.6 -39.05 L-10.05 -38.5 -9.6 -38.4 -9.1 -34.95 -9.15 -34.75 -9.4 -34.85 -9.45 -34.95 -10.0 -35.85 -10.05 -36.45 -10.05 -36.5 -10.1 -36.5 -10.1 -37.5 -10.25 -37.8 -10.35 -37.85 -10.35 -37.95 -10.4 -38.05 -10.4 -38.1 -10.5 -38.4 -10.6 -39.05" fill="url(#gradient19)" fill-rule="evenodd" stroke="none"/>
    <path d="M-0.95 -37.35 L-1.0 -37.1 -1.25 -37.25 -1.25 -37.35 -1.0 -38.05 -0.95 -37.45 -0.95 -37.35 M-1.0 -36.85 L-1.35 -34.95 -1.9 -33.9 -6.25 -28.55 Q-10.85 -25.45 -11.35 -23.25 L-11.5 -24.05 -12.1 -24.45 -12.65 -24.95 -12.7 -25.3 -12.1 -25.6 -10.5 -27.45 -8.7 -29.0 -8.15 -29.45 -8.05 -29.55 -7.6 -29.0 -7.25 -30.4 -4.25 -33.5 -1.55 -36.55 -1.0 -36.85 M-15.55 -17.85 Q-16.35 -19.75 -12.45 -23.4 L-12.15 -23.55 -11.75 -21.95 -13.15 -20.1 -14.25 -18.15 -15.4 -18.1 -15.55 -17.85" fill="url(#gradient20)" fill-rule="evenodd" stroke="none"/>
    <path d="M-3.05 -36.35 L-1.55 -36.55 -4.25 -33.5 -4.7 -33.4 -5.35 -33.55 -5.55 -33.75 -5.65 -33.75 -4.05 -34.55 -2.95 -35.95 -3.05 -36.35 M-1.45 -38.4 L-1.25 -37.35 -1.25 -37.25 -2.25 -37.75 -1.45 -38.4" fill="url(#gradient21)" fill-rule="evenodd" stroke="none"/>
    <path d="M-1.45 -38.4 L-1.25 -38.6 -1.0 -38.05 -1.25 -37.35 -1.45 -38.4" fill="url(#gradient22)" fill-rule="evenodd" stroke="none"/>
    <path d="M0.6 -36.0 L-0.95 -37.35 -0.95 -37.45 0.6 -36.0" fill="url(#gradient23)" fill-rule="evenodd" stroke="none"/>
    <path d="M-11.2 -42.5 L-10.9 -42.8 -10.95 -42.5 -11.2 -42.5" fill="url(#gradient24)" fill-rule="evenodd" stroke="none"/>
    <path d="M-10.85 -39.3 Q-16.0 -38.75 -13.85 -32.6 L-15.25 -34.85 Q-16.1 -41.8 -11.2 -42.5 L-10.95 -42.5 Q-9.35 -41.35 -10.85 -39.3" fill="url(#gradient25)" fill-rule="evenodd" stroke="none"/>
    <path d="M-10.7 -38.8 L-10.75 -39.25 -10.6 -39.05 -10.5 -38.4 -10.7 -38.8" fill="url(#gradient26)" fill-rule="evenodd" stroke="none"/>
    <path d="M-12.45 -23.4 L-12.15 -23.65 -12.15 -23.55 -12.45 -23.4 M-12.7 -25.3 L-13.5 -26.1 -14.0 -27.05 -14.6 -28.8 -14.55 -30.4 -13.45 -32.85 -11.15 -35.9 -11.0 -37.8 -10.7 -38.8 -10.5 -38.4 -10.4 -38.1 -10.4 -38.05 -10.35 -37.95 -10.35 -37.85 -10.25 -37.8 -10.1 -37.5 -10.1 -36.5 -10.05 -36.45 -10.0 -35.85 -9.45 -34.95 -9.4 -34.85 Q-14.9 -28.6 -12.1 -25.6 L-12.7 -25.3" fill="url(#gradient27)" fill-rule="evenodd" stroke="none"/>
    <path d="M-13.5 -26.1 L-14.5 -25.85 -14.45 -26.6 -14.7 -26.9 -14.0 -27.05 -13.5 -26.1" fill="url(#gradient28)" fill-rule="evenodd" stroke="none"/>
    <path d="M-14.5 -25.85 Q-15.5 -26.1 -14.7 -26.9 L-14.45 -26.6 -14.5 -25.85" fill="url(#gradient29)" fill-rule="evenodd" stroke="none"/>
    <path d="M-9.4 -34.85 L-9.15 -34.75 -8.85 -32.75 -9.2 -32.05 -9.7 -30.35 -10.5 -27.45 -12.1 -25.6 Q-14.9 -28.6 -9.4 -34.85" fill="url(#gradient30)" fill-rule="evenodd" stroke="none"/>
    <path d="M-5.65 -33.75 L-5.55 -33.75 -5.7 -33.6 -7.05 -32.15 -7.0 -32.5 -6.4 -33.4 -5.65 -33.75 M-5.35 -33.55 L-4.7 -33.4 -4.25 -33.5 -7.25 -30.4 -7.05 -32.0 -5.35 -33.55 M-8.1 -29.65 L-8.05 -29.55 -8.15 -29.45 -8.1 -29.65" fill="url(#gradient31)" fill-rule="evenodd" stroke="none"/>
    <path d="M-10.1 -36.5 L-10.05 -36.5 -10.05 -36.45 -10.1 -36.5" fill="url(#gradient32)" fill-rule="evenodd" stroke="none"/>
    <path d="M-9.7 -30.35 L-9.2 -32.05 -8.85 -32.75 -8.1 -29.65 -8.15 -29.45 -8.7 -29.0 -8.75 -29.25 -9.2 -29.4 -9.7 -30.35 M-5.55 -33.75 L-5.35 -33.55 -7.05 -32.0 -7.05 -32.15 -5.7 -33.6 -5.55 -33.75 M-6.4 -33.4 L-7.0 -32.5 -6.95 -33.25 -6.4 -33.4" fill="url(#gradient33)" fill-rule="evenodd" stroke="none"/>
    <path d="M-10.5 -27.45 L-9.7 -30.35 -9.2 -29.4 -8.75 -29.25 -8.7 -29.0 -10.5 -27.45" fill="url(#gradient34)" fill-rule="evenodd" stroke="none"/>
    <path d="M-1.25 -23.65 L-1.6 -23.65 -1.55 -23.8 -1.2 -23.85 -1.25 -23.65" fill="url(#gradient35)" fill-rule="evenodd" stroke="none"/>
    <path d="M-11.35 -23.25 L-11.05 -22.8 Q-9.05 -18.1 -1.5 -22.6 L-1.65 -21.15 -2.75 -20.0 -2.55 -19.5 Q-3.15 -18.85 -4.05 -18.55 L-4.15 -18.3 Q-9.15 -16.6 -11.75 -21.95 L-12.15 -23.55 -12.15 -23.65 -12.1 -24.45 -11.5 -24.05 -11.35 -23.25" fill="url(#gradient36)" fill-rule="evenodd" stroke="none"/>
    <path d="M-15.25 -14.8 L-15.55 -17.85 -15.4 -18.1 -14.25 -18.15 -13.45 -18.05 -13.25 -17.85 -13.05 -15.5 -14.1 -15.35 -15.2 -14.65 -15.25 -14.8 M-14.75 -9.65 L-14.7 -9.95 -13.25 -9.4 -14.7 -8.9 -14.75 -9.65 M-12.95 -9.35 L-12.45 -9.25 -12.45 -8.95 -12.95 -9.35" fill="url(#gradient37)" fill-rule="evenodd" stroke="none"/>
    <path d="M-8.5 -10.5 L-10.65 -7.0 -12.0 -5.3 -12.0 -6.05 Q-11.2 -5.65 -11.75 -8.45 L-12.45 -8.95 -12.45 -9.25 Q-11.7 -9.3 -11.05 -9.8 L-10.35 -10.6 -10.1 -11.0 -8.75 -10.6 -8.5 -10.5 M-16.2 -7.8 L-16.1 -11.3 -16.05 -11.3 -15.65 -10.6 -14.75 -9.65 -14.7 -8.9 -15.35 -8.65 -15.2 -7.45 -15.4 -7.4 -15.45 -7.65 -15.65 -7.65 -15.9 -8.0 -16.2 -7.8 M-15.4 -14.45 L-15.25 -14.8 -15.2 -14.65 -15.4 -14.45" fill="url(#gradient38)" fill-rule="evenodd" stroke="none"/>
    <path d="M-15.85 -13.85 L-15.4 -14.45 -15.2 -14.65 -14.1 -15.35 -13.05 -15.5 -11.7 -15.3 -10.95 -14.8 -10.05 -13.6 Q-9.6 -12.1 -9.9 -11.55 L-10.1 -11.0 -10.35 -10.6 -11.05 -9.8 Q-11.7 -9.3 -12.45 -9.25 L-12.95 -9.35 -13.1 -9.4 -13.25 -9.4 -14.7 -9.95 -14.75 -9.65 -15.65 -10.6 -16.05 -11.3 -16.15 -12.65 -15.85 -13.85" fill="url(#gradient39)" fill-rule="evenodd" stroke="none"/>
    <path d="M-16.1 -11.3 Q-17.15 -12.8 -15.85 -13.85 L-16.15 -12.65 -16.05 -11.3 -16.1 -11.3" fill="url(#gradient40)" fill-rule="evenodd" stroke="none"/>
    <path d="M-13.1 -9.4 L-12.95 -9.35 -12.45 -8.95 -11.75 -8.45 Q-11.2 -5.65 -12.0 -6.05 L-12.7 -5.6 -13.1 -9.4" fill="url(#gradient41)" fill-rule="evenodd" stroke="none"/>
    <path d="M-13.25 -9.4 L-13.1 -9.4 -12.7 -5.6 -14.6 -6.4 -15.05 -6.6 -15.2 -7.45 -15.35 -8.65 -14.7 -8.9 -13.25 -9.4" fill="url(#gradient42)" fill-rule="evenodd" stroke="none"/>
    <path d="M-15.05 -6.6 L-14.6 -6.4 -14.6 -6.15 -14.65 -6.15 -15.05 -6.6" fill="url(#gradient43)" fill-rule="evenodd" stroke="none"/>
    <path d="M-16.7 -4.95 L-16.6 -6.4 Q-16.15 -7.25 -16.2 -7.8 L-15.9 -8.0 -15.65 -7.65 -15.45 -7.65 -15.4 -7.4 -15.2 -7.45 -15.05 -6.6 -14.65 -6.15 -14.6 -6.1 -14.35 -3.95 Q-18.05 -1.25 -16.7 -4.95" fill="url(#gradient44)" fill-rule="evenodd" stroke="none"/>
    <path d="M-14.65 -6.15 L-14.6 -6.15 -14.6 -6.1 -14.65 -6.15" fill="url(#gradient45)" fill-rule="evenodd" stroke="none"/>
    <path d="M-12.0 -5.3 L-11.1 8.1 -11.5 12.15 -11.65 12.2 -12.75 8.4 -13.6 1.95 -13.6 1.55 -14.35 -3.95 -14.6 -6.1 -14.6 -6.15 -14.6 -6.4 -12.7 -5.6 -12.0 -6.05 -12.0 -5.3" fill="url(#gradient46)" fill-rule="evenodd" stroke="none"/>
    <path d="M-13.6 1.95 L-14.25 3.1 Q-16.85 5.2 -18.95 2.05 -19.4 -1.8 -16.7 -4.95 -18.05 -1.25 -14.35 -3.95 L-13.6 1.55 -13.6 1.95" fill="url(#gradient47)" fill-rule="evenodd" stroke="none"/>
    <path d="M-14.25 3.1 L-15.2 6.5 -15.55 10.5 Q-16.5 13.5 -17.85 12.5 -21.05 11.7 -19.65 9.6 L-19.2 8.95 Q-19.6 7.6 -18.95 2.05 -16.85 5.2 -14.25 3.1" fill="url(#gradient48)" fill-rule="evenodd" stroke="none"/>
    <path d="M-15.55 10.5 Q-14.9 10.4 -15.75 12.6 L-17.5 14.2 -23.4 17.95 -24.85 18.2 -25.05 17.6 -25.15 17.0 -25.5 16.55 Q-26.65 14.25 -19.65 9.6 -21.05 11.7 -17.85 12.5 -16.5 13.5 -15.55 10.5" fill="url(#gradient49)" fill-rule="evenodd" stroke="none"/>
    <path d="M-25.05 17.6 L-25.5 16.55 -25.15 17.0 -25.05 17.6" fill="url(#gradient50)" fill-rule="evenodd" stroke="none"/>
  </g>
  <defs>
    <radialGradient cx="0" cy="0" gradientTransform="matrix(0.0249, 0.0, 0.0, 0.0249, -3.7, -17.7)" gradientUnits="userSpaceOnUse" id="gradient0" r="819.2" spreadMethod="pad">
      <stop offset="0.0" stop-color="#416689"/>
      <stop offset="1.0" stop-color="#2e4861"/>
    </radialGradient>
    <radialGradient cx="0" cy="0" gradientTransform="matrix(0.0176, 0.0, 0.0, 0.0176, -1.4, -45.6)" gradientUnits="userSpaceOnUse" id="gradient1" r="819.2" spreadMethod="pad">
      <stop offset="0.0" stop-color="#665f4a"/>
      <stop offset="1.0" stop-color="#3b372b"/>
    </radialGradient>
    <radialGradient cx="0" cy="0" gradientTransform="matrix(0.003, 0.0, 0.0, 0.003, 4.45, -31.15)" gradientUnits="userSpaceOnUse" id="gradient2" r="819.2" spreadMethod="pad">
      <stop offset="0.0" stop-color="#3e3e3e"/>
      <stop offset="1.0" stop-color="#373737"/>
    </radialGradient>
    <radialGradient cx="0" cy="0" gradientTransform="matrix(0.0079, 0.0, 0.0, 0.0079, 0.3, -20.1)" gradientUnits="userSpaceOnUse" id="gradient3" r="819.2" spreadMethod="pad">
      <stop offset="0.0" stop-color="#ffdd81"/>
      <stop offset="1.0" stop-color="#c58b51"/>
    </radialGradient>
    <radialGradient cx="0" cy="0" gradientTransform="matrix(0.0124, 0.0, 0.0, 0.0124, -2.6, -20.9)" gradientUnits="userSpaceOnUse" id="gradient4" r="819.2" spreadMethod="pad">
      <stop offset="0.0" stop-color="#fff2c5"/>
      <stop offset="1.0" stop-color="#b8ae8e"/>
    </radialGradient>
    <radialGradient cx="0" cy="0" gradientTransform="matrix(0.0116, 0.0, 0.0, 0.0116, -7.7, -13.9)" gradientUnits="userSpaceOnUse" id="gradient5" r="819.2" spreadMethod="pad">
      <stop offset="0.0" stop-color="#948787"/>
      <stop offset="1.0" stop-color="#696060"/>
    </radialGradient>
    <radialGradient cx="0" cy="0" gradientTransform="matrix(0.0022, 0.0, 0.0, 0.0022, 4.0, -13.7)" gradientUnits="userSpaceOnUse" id="gradient6" r="819.2" spreadMethod="pad">
      <stop offset="0.0" stop-color="#1f1e18"/>
      <stop offset="1.0" stop-color="#1f1e18"/>
    </radialGradient>
    <radialGradient cx="0" cy="0" gradientTransform="matrix(0.0096, 0.0, 0.0, 0.0096, -0.25, -13.15)" gradientUnits="userSpaceOnUse" id="gradient7" r="819.2" spreadMethod="pad">
      <stop offset="0.0" stop-color="#d79858"/>
      <stop offset="1.0" stop-color="#9c6d40"/>
    </radialGradient>
    <radialGradient cx="0" cy="0" gradientTransform="matrix(0.0121, 0.0, 0.0, 0.0121, -3.0, -17.65)" gradientUnits="userSpaceOnUse" id="gradient8" r="819.2" spreadMethod="pad">
      <stop offset="0.0" stop-color="#ffffd1"/>
      <stop offset="1.0" stop-color="#dbcfa8"/>
    </radialGradient>
    <radialGradient cx="0" cy="0" gradientTransform="matrix(0.0025, 0.0, 0.0, 0.0025, 3.15, -6.45)" gradientUnits="userSpaceOnUse" id="gradient9" r="819.2" spreadMethod="pad">
      <stop offset="0.0" stop-color="#9b6d3f"/>
      <stop offset="1.0" stop-color="#976b3e"/>
    </radialGradient>
    <radialGradient cx="0" cy="0" gradientTransform="matrix(0.0032, 0.0, 0.0, 0.0032, 2.3, -8.35)" gradientUnits="userSpaceOnUse" id="gradient10" r="819.2" spreadMethod="pad">
      <stop offset="0.0" stop-color="#a07142"/>
      <stop offset="1.0" stop-color="#886038"/>
    </radialGradient>
    <radialGradient cx="0" cy="0" gradientTransform="matrix(0.0086, 0.0, 0.0, 0.0086, 1.75, -7.1)" gradientUnits="userSpaceOnUse" id="gradient11" r="819.2" spreadMethod="pad">
      <stop offset="0.0" stop-color="#fff28d"/>
      <stop offset="1.0" stop-color="#8b6239"/>
    </radialGradient>
    <radialGradient cx="0" cy="0" gradientTransform="matrix(0.0056, 0.0, 0.0, 0.0056, -1.05, -7.15)" gradientUnits="userSpaceOnUse" id="gradient12" r="819.2" spreadMethod="pad">
      <stop offset="0.0" stop-color="#dc9b5a"/>
      <stop offset="1.0" stop-color="#7d5833"/>
    </radialGradient>
    <radialGradient cx="0" cy="0" gradientTransform="matrix(0.0099, 0.0, 0.0, 0.0099, 5.65, 4.6)" gradientUnits="userSpaceOnUse" id="gradient13" r="819.2" spreadMethod="pad">
      <stop offset="0.0" stop-color="#696060"/>
      <stop offset="1.0" stop-color="#423c3c"/>
    </radialGradient>
    <radialGradient cx="0" cy="0" gradientTransform="matrix(0.0126, 0.0, 0.0, 0.0126, 3.45, 10.25)" gradientUnits="userSpaceOnUse" id="gradient14" r="819.2" spreadMethod="pad">
      <stop offset="0.0" stop-color="#fffe94"/>
      <stop offset="1.0" stop-color="#ecc572"/>
    </radialGradient>
    <radialGradient cx="0" cy="0" gradientTransform="matrix(0.0031, 0.0, 0.0, 0.0031, 4.65, 10.5)" gradientUnits="userSpaceOnUse" id="gradient15" r="819.2" spreadMethod="pad">
      <stop offset="0.0" stop-color="#f1aa63"/>
      <stop offset="1.0" stop-color="#eea861"/>
    </radialGradient>
    <radialGradient cx="0" cy="0" gradientTransform="matrix(0.0089, 0.0, 0.0, 0.0089, -6.55, -40.8)" gradientUnits="userSpaceOnUse" id="gradient16" r="819.2" spreadMethod="pad">
      <stop offset="0.0" stop-color="#635d48"/>
      <stop offset="1.0" stop-color="#3f3b2d"/>
    </radialGradient>
    <radialGradient cx="0" cy="0" gradientTransform="matrix(0.013, 0.0, 0.0, 0.013, -8.1, -39.75)" gradientUnits="userSpaceOnUse" id="gradient17" r="819.2" spreadMethod="pad">
      <stop offset="0.0" stop-color="#635d48"/>
      <stop offset="1.0" stop-color="#2e2b21"/>
    </radialGradient>
    <radialGradient cx="0" cy="0" gradientTransform="matrix(0.0064, 0.0, 0.0, 0.0064, -5.75, -38.8)" gradientUnits="userSpaceOnUse" id="gradient18" r="819.2" spreadMethod="pad">
      <stop offset="0.0" stop-color="#615b47"/>
      <stop offset="1.0" stop-color="#3b372b"/>
    </radialGradient>
    <radialGradient cx="0" cy="0" gradientTransform="matrix(0.0099, 0.0, 0.0, 0.0099, -6.8, -34.8)" gradientUnits="userSpaceOnUse" id="gradient19" r="819.2" spreadMethod="pad">
      <stop offset="0.0" stop-color="#f0a963"/>
      <stop offset="1.0" stop-color="#b47f4a"/>
    </radialGradient>
    <radialGradient cx="0" cy="0" gradientTransform="matrix(0.0237, 0.0, 0.0, 0.0237, -3.75, -32.5)" gradientUnits="userSpaceOnUse" id="gradient20" r="819.2" spreadMethod="pad">
      <stop offset="0.0" stop-color="#78ccf9"/>
      <stop offset="1.0" stop-color="#4e85a2"/>
    </radialGradient>
    <radialGradient cx="0" cy="0" gradientTransform="matrix(0.0083, 0.0, 0.0, 0.0083, -4.05, -33.05)" gradientUnits="userSpaceOnUse" id="gradient21" r="819.2" spreadMethod="pad">
      <stop offset="0.0" stop-color="#e8a45f"/>
      <stop offset="1.0" stop-color="#cb8f53"/>
    </radialGradient>
    <radialGradient cx="0" cy="0" gradientTransform="matrix(0.0016, 0.0, 0.0, 0.0016, -1.1, -38.15)" gradientUnits="userSpaceOnUse" id="gradient22" r="819.2" spreadMethod="pad">
      <stop offset="0.0" stop-color="#0e181e"/>
      <stop offset="1.0" stop-color="#0e181e"/>
    </radialGradient>
    <radialGradient cx="0" cy="0" gradientTransform="matrix(0.0037, 0.0, 0.0, 0.0037, -0.55, -37.0)" gradientUnits="userSpaceOnUse" id="gradient23" r="819.2" spreadMethod="pad">
      <stop offset="0.0" stop-color="#1c2c3b"/>
      <stop offset="1.0" stop-color="#192836"/>
    </radialGradient>
    <radialGradient cx="0" cy="0" gradientTransform="matrix(0.0023, 0.0, 0.0, 0.0023, -11.45, -42.45)" gradientUnits="userSpaceOnUse" id="gradient24" r="819.2" spreadMethod="pad">
      <stop offset="0.0" stop-color="#464233"/>
      <stop offset="1.0" stop-color="#413d2f"/>
    </radialGradient>
    <radialGradient cx="0" cy="0" gradientTransform="matrix(0.0117, 0.0, 0.0, 0.0117, -9.15, -41.0)" gradientUnits="userSpaceOnUse" id="gradient25" r="819.2" spreadMethod="pad">
      <stop offset="0.0" stop-color="#615b47"/>
      <stop offset="1.0" stop-color="#393629"/>
    </radialGradient>
    <radialGradient cx="0" cy="0" gradientTransform="matrix(0.0037, 0.0, 0.0, 0.0037, -11.05, -40.65)" gradientUnits="userSpaceOnUse" id="gradient26" r="819.2" spreadMethod="pad">
      <stop offset="0.0" stop-color="#c48a51"/>
      <stop offset="1.0" stop-color="#986b3e"/>
    </radialGradient>
    <radialGradient cx="0" cy="0" gradientTransform="matrix(0.0245, 0.0, 0.0, 0.0245, -9.3, -37.5)" gradientUnits="userSpaceOnUse" id="gradient27" r="819.2" spreadMethod="pad">
      <stop offset="0.0" stop-color="#395977"/>
      <stop offset="1.0" stop-color="#2a4157"/>
    </radialGradient>
    <radialGradient cx="0" cy="0" gradientTransform="matrix(0.0024, 0.0, 0.0, 0.0024, -12.9, -26.9)" gradientUnits="userSpaceOnUse" id="gradient28" r="819.2" spreadMethod="pad">
      <stop offset="0.0" stop-color="#ff3b3b"/>
      <stop offset="1.0" stop-color="#8e2020"/>
    </radialGradient>
    <radialGradient cx="0" cy="0" gradientTransform="matrix(0.0012, 0.0, 0.0, 0.0012, -14.45, -26.15)" gradientUnits="userSpaceOnUse" id="gradient29" r="819.2" spreadMethod="pad">
      <stop offset="0.0" stop-color="#972121"/>
      <stop offset="1.0" stop-color="#962121"/>
    </radialGradient>
    <radialGradient cx="0" cy="0" gradientTransform="matrix(0.0094, 0.0, 0.0, 0.0094, -12.0, -29.8)" gradientUnits="userSpaceOnUse" id="gradient30" r="819.2" spreadMethod="pad">
      <stop offset="0.0" stop-color="#77caf6"/>
      <stop offset="1.0" stop-color="#5997b9"/>
    </radialGradient>
    <radialGradient cx="0" cy="0" gradientTransform="matrix(0.0083, 0.0, 0.0, 0.0083, -5.95, -31.8)" gradientUnits="userSpaceOnUse" id="gradient31" r="819.2" spreadMethod="pad">
      <stop offset="0.0" stop-color="#ffbb6d"/>
      <stop offset="1.0" stop-color="#e8a35f"/>
    </radialGradient>
    <radialGradient cx="0" cy="0" gradientTransform="matrix(0.0022, 0.0, 0.0, 0.0022, -10.2, -37.8)" gradientUnits="userSpaceOnUse" id="gradient32" r="819.2" spreadMethod="pad">
      <stop offset="0.0" stop-color="#261b10"/>
      <stop offset="1.0" stop-color="#261b10"/>
    </radialGradient>
    <radialGradient cx="0" cy="0" gradientTransform="matrix(0.0046, 0.0, 0.0, 0.0046, -7.75, -31.6)" gradientUnits="userSpaceOnUse" id="gradient33" r="819.2" spreadMethod="pad">
      <stop offset="0.0" stop-color="#ffca76"/>
      <stop offset="1.0" stop-color="#f6ae65"/>
    </radialGradient>
    <radialGradient cx="0" cy="0" gradientTransform="matrix(0.0032, 0.0, 0.0, 0.0032, -9.8, -29.6)" gradientUnits="userSpaceOnUse" id="gradient34" r="819.2" spreadMethod="pad">
      <stop offset="0.0" stop-color="#ffe384"/>
      <stop offset="1.0" stop-color="#ffd17a"/>
    </radialGradient>
    <radialGradient cx="0" cy="0" gradientTransform="matrix(0.0035, 0.0, 0.0, 0.0035, -1.5, -23.75)" gradientUnits="userSpaceOnUse" id="gradient35" r="819.2" spreadMethod="pad">
      <stop offset="0.0" stop-color="#080c10"/>
      <stop offset="1.0" stop-color="#080c10"/>
    </radialGradient>
    <radialGradient cx="0" cy="0" gradientTransform="matrix(0.0081, 0.0, 0.0, 0.0081, -6.4, -21.35)" gradientUnits="userSpaceOnUse" id="gradient36" r="819.2" spreadMethod="pad">
      <stop offset="0.0" stop-color="#ffffcf"/>
      <stop offset="1.0" stop-color="#928a70"/>
    </radialGradient>
    <radialGradient cx="0" cy="0" gradientTransform="matrix(0.0122, 0.0, 0.0, 0.0122, -14.15, -8.3)" gradientUnits="userSpaceOnUse" id="gradient37" r="819.2" spreadMethod="pad">
      <stop offset="0.0" stop-color="#fa3737"/>
      <stop offset="1.0" stop-color="#da3030"/>
    </radialGradient>
    <radialGradient cx="0" cy="0" gradientTransform="matrix(0.0098, 0.0, 0.0, 0.0098, -12.75, -9.25)" gradientUnits="userSpaceOnUse" id="gradient38" r="819.2" spreadMethod="pad">
      <stop offset="0.0" stop-color="#ffc070"/>
      <stop offset="1.0" stop-color="#a67544"/>
    </radialGradient>
    <radialGradient cx="0" cy="0" gradientTransform="matrix(0.0044, 0.0, 0.0, 0.0044, -12.9, -12.85)" gradientUnits="userSpaceOnUse" id="gradient39" r="819.2" spreadMethod="pad">
      <stop offset="0.0" stop-color="#ffda7f"/>
      <stop offset="1.0" stop-color="#af7b48"/>
    </radialGradient>
    <radialGradient cx="0" cy="0" gradientTransform="matrix(0.0019, 0.0, 0.0, 0.0019, -16.05, -12.6)" gradientUnits="userSpaceOnUse" id="gradient40" r="819.2" spreadMethod="pad">
      <stop offset="0.0" stop-color="#ffbc6d"/>
      <stop offset="1.0" stop-color="#ba834c"/>
    </radialGradient>
    <radialGradient cx="0" cy="0" gradientTransform="matrix(0.0047, 0.0, 0.0, 0.0047, -12.8, -5.7)" gradientUnits="userSpaceOnUse" id="gradient41" r="819.2" spreadMethod="pad">
      <stop offset="0.0" stop-color="#c4b937"/>
      <stop offset="1.0" stop-color="#c4b937"/>
    </radialGradient>
    <radialGradient cx="0" cy="0" gradientTransform="matrix(0.0049, 0.0, 0.0, 0.0049, -15.4, -8.8)" gradientUnits="userSpaceOnUse" id="gradient42" r="819.2" spreadMethod="pad">
      <stop offset="0.0" stop-color="#ffff4c"/>
      <stop offset="1.0" stop-color="#f6f148"/>
    </radialGradient>
    <radialGradient cx="0" cy="0" gradientTransform="matrix(0.0043, 0.0, 0.0, 0.0043, -11.7, -6.55)" gradientUnits="userSpaceOnUse" id="gradient43" r="819.2" spreadMethod="pad">
      <stop offset="0.0" stop-color="#fffa4a"/>
      <stop offset="1.0" stop-color="#ccc039"/>
    </radialGradient>
    <radialGradient cx="0" cy="0" gradientTransform="matrix(0.0099, 0.0, 0.0, 0.0099, -14.55, -9.55)" gradientUnits="userSpaceOnUse" id="gradient44" r="819.2" spreadMethod="pad">
      <stop offset="0.0" stop-color="#ffda7f"/>
      <stop offset="1.0" stop-color="#d69658"/>
    </radialGradient>
    <radialGradient cx="0" cy="0" gradientTransform="matrix(0.0197, 0.0, 0.0, 0.0197, -14.85, -7.85)" gradientUnits="userSpaceOnUse" id="gradient45" r="819.2" spreadMethod="pad">
      <stop offset="0.0" stop-color="#202020"/>
      <stop offset="1.0" stop-color="#202020"/>
    </radialGradient>
    <radialGradient cx="0" cy="0" gradientTransform="matrix(0.0248, 0.0, 0.0, 0.0248, -11.65, 12.25)" gradientUnits="userSpaceOnUse" id="gradient46" r="819.2" spreadMethod="pad">
      <stop offset="0.0" stop-color="#e7e7e7"/>
      <stop offset="1.0" stop-color="#e6e6e6"/>
    </radialGradient>
    <radialGradient cx="0" cy="0" gradientTransform="matrix(0.0101, 0.0, 0.0, 0.0101, -15.35, -4.05)" gradientUnits="userSpaceOnUse" id="gradient47" r="819.2" spreadMethod="pad">
      <stop offset="0.0" stop-color="#ffeb89"/>
      <stop offset="1.0" stop-color="#a27242"/>
    </radialGradient>
    <radialGradient cx="0" cy="0" gradientTransform="matrix(0.0132, 0.0, 0.0, 0.0132, -19.3, 12.45)" gradientUnits="userSpaceOnUse" id="gradient48" r="819.2" spreadMethod="pad">
      <stop offset="0.0" stop-color="#756b6b"/>
      <stop offset="1.0" stop-color="#524b4b"/>
    </radialGradient>
    <radialGradient cx="0" cy="0" gradientTransform="matrix(0.0107, 0.0, 0.0, 0.0107, -19.0, 11.65)" gradientUnits="userSpaceOnUse" id="gradient49" r="819.2" spreadMethod="pad">
      <stop offset="0.0" stop-color="#fffb92"/>
      <stop offset="1.0" stop-color="#ffc372"/>
    </radialGradient>
    <radialGradient cx="0" cy="0" gradientTransform="matrix(0.0027, 0.0, 0.0, 0.0027, -25.75, 16.1)" gradientUnits="userSpaceOnUse" id="gradient50" r="819.2" spreadMethod="pad">
      <stop offset="0.0" stop-color="#a57444"/>
      <stop offset="1.0" stop-color="#a27242"/>
    </radialGradient>
  </defs>
</svg>
