<?xml version="1.0" encoding="UTF-8" standalone="no"?>
<svg xmlns:ffdec="https://www.free-decompiler.com/flash" xmlns:xlink="http://www.w3.org/1999/xlink" ffdec:objectType="shape" height="69.1px" width="66.8px" xmlns="http://www.w3.org/2000/svg">
  <g transform="matrix(1.0, 0.0, 0.0, 1.0, 14.65, 59.35)">
    <path d="M4.55 -58.85 L4.8 -58.3 4.8 -58.25 7.9 -47.1 Q6.05 -44.5 5.55 -51.5 L5.35 -52.9 4.55 -58.85" fill="url(#gradient0)" fill-rule="evenodd" stroke="none"/>
    <path d="M4.8 -58.3 L4.55 -58.85 4.55 -59.35 4.75 -58.85 4.8 -58.3 M7.9 -47.1 L4.8 -58.25 6.65 -52.15 7.65 -48.75 7.9 -47.1" fill="url(#gradient1)" fill-rule="evenodd" stroke="none"/>
    <path d="M5.35 -52.9 L5.55 -51.5 0.15 -47.65 -0.25 -47.45 -0.3 -47.45 -1.25 -47.25 Q-2.55 -47.95 -2.3 -50.35 -1.85 -52.1 -0.85 -52.65 L1.7 -53.6 3.4 -53.55 5.35 -52.9" fill="url(#gradient2)" fill-rule="evenodd" stroke="none"/>
    <path d="M5.55 -51.5 Q6.05 -44.5 7.9 -47.1 L7.65 -48.75 6.65 -52.15 7.4 -52.35 7.85 -51.25 8.95 -47.35 Q9.0 -46.1 8.3 -45.65 6.55 -43.3 0.55 -43.8 L-0.2 -44.05 Q0.0 -44.65 -1.35 -47.1 L-0.7 -47.15 -0.3 -47.45 -0.25 -47.45 0.15 -47.65 5.55 -51.5" fill="url(#gradient3)" fill-rule="evenodd" stroke="none"/>
    <path d="M7.35 -44.05 L8.1 -45.0 8.65 -43.1 8.75 -42.3 8.65 -41.5 Q7.4 -37.65 3.7 -37.9 L2.65 -37.95 0.3 -38.55 Q-0.35 -41.2 -4.85 -43.05 L-4.85 -43.1 -4.8 -43.55 -4.6 -43.5 -4.4 -43.75 -3.45 -44.05 -3.0 -44.55 -1.1 -43.4 0.65 -42.85 0.85 -42.85 0.8 -43.1 0.75 -43.3 1.0 -43.1 Q3.75 -40.6 6.85 -43.1 L7.35 -44.05" fill="url(#gradient4)" fill-rule="evenodd" stroke="none"/>
    <path d="M8.1 -45.0 L7.35 -44.05 6.6 -43.55 4.9 -43.1 3.1 -42.95 2.65 -43.1 1.8 -43.15 0.6 -43.7 0.55 -43.8 Q6.55 -43.3 8.3 -45.65 L8.1 -45.0" fill="url(#gradient5)" fill-rule="evenodd" stroke="none"/>
    <path d="M8.1 -45.0 L8.3 -45.65 Q9.0 -46.1 8.95 -47.35 L7.85 -51.25 Q10.45 -50.5 11.1 -47.25 L11.6 -42.25 Q11.05 -36.05 9.75 -38.55 L9.6 -40.0 9.5 -40.6 9.4 -40.8 9.3 -41.25 8.75 -42.3 8.65 -43.1 8.1 -45.0" fill="url(#gradient6)" fill-rule="evenodd" stroke="none"/>
    <path d="M0.6 -43.7 L1.8 -43.15 2.65 -43.1 3.1 -42.95 4.9 -43.1 6.6 -43.55 7.35 -44.05 6.85 -43.1 Q3.75 -40.6 1.0 -43.1 L0.75 -43.3 0.6 -43.7" fill="url(#gradient7)" fill-rule="evenodd" stroke="none"/>
    <path d="M0.3 -38.55 L2.65 -37.95 3.7 -37.9 Q5.9 -37.65 4.8 -31.0 L4.1 -28.65 3.0 -27.05 Q1.75 -26.15 1.7 -26.95 L1.65 -28.1 0.85 -28.65 Q-8.3 -28.3 -10.6 -33.65 -5.1 -39.3 0.3 -38.55" fill="url(#gradient8)" fill-rule="evenodd" stroke="none"/>
    <path d="M9.6 -40.0 L9.75 -38.55 9.4 -38.1 9.35 -38.2 9.6 -40.0 M11.6 -42.25 L11.1 -47.25 Q12.75 -44.1 11.6 -42.25" fill="url(#gradient9)" fill-rule="evenodd" stroke="none"/>
    <path d="M3.7 -37.9 Q7.4 -37.65 8.65 -41.5 9.2 -41.75 8.25 -36.3 L6.2 -33.0 4.8 -31.0 Q5.9 -37.65 3.7 -37.9" fill="url(#gradient10)" fill-rule="evenodd" stroke="none"/>
    <path d="M4.8 -31.0 L6.2 -33.0 6.05 -30.9 5.85 -28.0 5.6 -27.8 5.0 -28.0 Q5.65 -27.35 4.05 -25.45 L2.65 -24.3 0.35 -25.3 1.7 -26.95 Q1.75 -26.15 3.0 -27.05 L4.1 -28.65 4.8 -31.0" fill="url(#gradient11)" fill-rule="evenodd" stroke="none"/>
    <path d="M2.65 -24.3 L4.05 -25.45 Q5.65 -27.35 5.0 -28.0 L5.6 -27.8 Q7.5 -27.05 7.6 -23.0 7.5 -15.5 2.45 -20.7 L2.8 -22.95 2.65 -24.3" fill="url(#gradient12)" fill-rule="evenodd" stroke="none"/>
    <path d="M7.6 -23.0 Q7.5 -27.05 5.6 -27.8 L5.85 -28.0 6.05 -30.9 Q10.4 -28.45 10.3 -22.95 L9.8 -23.35 9.15 -23.45 7.7 -22.75 7.6 -23.0" fill="url(#gradient13)" fill-rule="evenodd" stroke="none"/>
    <path d="M7.7 -22.75 L9.15 -23.45 9.8 -23.35 10.3 -22.95 Q11.7 -18.35 10.6 -14.25 L10.15 -14.8 9.55 -15.05 8.4 -14.9 8.3 -16.4 8.05 -17.35 8.05 -17.8 Q10.05 -20.15 7.7 -22.7 L7.7 -22.75" fill="url(#gradient14)" fill-rule="evenodd" stroke="none"/>
    <path d="M2.45 -20.7 Q7.5 -15.5 7.6 -23.0 L7.7 -22.75 7.7 -22.7 8.05 -17.8 8.05 -17.35 8.0 -14.25 7.85 -13.2 7.4 -13.8 7.0 -14.25 4.15 -15.2 4.6 -16.9 4.9 -17.75 4.8 -17.85 3.05 -16.6 3.0 -17.35 2.5 -18.35 2.4 -18.65 2.2 -19.6 1.9 -19.9 2.45 -20.7 M2.45 -8.7 L3.3 -8.4 2.45 -8.4 2.45 -8.7" fill="url(#gradient15)" fill-rule="evenodd" stroke="none"/>
    <path d="M1.9 -19.9 L2.2 -19.6 2.4 -18.65 2.2 -17.2 1.4 -16.05 1.05 -15.75 1.5 -19.35 1.9 -19.9" fill="url(#gradient16)" fill-rule="evenodd" stroke="none"/>
    <path d="M2.65 -24.3 L2.8 -22.95 2.45 -20.7 1.9 -19.9 1.5 -19.35 Q-2.2 -15.1 -3.15 -20.2 -2.4 -20.75 -1.75 -22.3 L-1.45 -23.8 0.35 -25.3 2.65 -24.3" fill="url(#gradient17)" fill-rule="evenodd" stroke="none"/>
    <path d="M3.05 -16.6 L4.8 -17.85 4.9 -17.75 4.6 -16.9 3.9 -14.65 3.7 -14.4 2.0 -15.9 2.2 -16.05 2.85 -16.5 3.05 -16.6 M0.1 -9.55 L2.25 -9.5 2.2 -9.2 1.5 -7.1 1.4 -6.6 1.25 -6.3 1.2 -6.3 0.1 -9.55" fill="url(#gradient18)" fill-rule="evenodd" stroke="none"/>
    <path d="M1.4 -16.05 L2.2 -17.2 2.4 -18.65 2.5 -18.35 2.45 -17.45 2.45 -17.4 2.2 -16.05 2.0 -15.9 1.4 -16.05" fill="url(#gradient19)" fill-rule="evenodd" stroke="none"/>
    <path d="M8.05 -17.35 L8.3 -16.4 8.4 -14.9 8.4 -14.25 8.0 -13.0 7.85 -13.2 8.0 -14.25 8.05 -17.35 M2.5 -18.35 L3.0 -17.35 3.05 -16.6 2.85 -16.5 2.5 -17.4 2.5 -17.45 2.45 -17.45 2.5 -18.35" fill="url(#gradient20)" fill-rule="evenodd" stroke="none"/>
    <path d="M2.45 -17.45 L2.5 -17.45 2.5 -17.4 2.45 -17.4 2.45 -17.45" fill="url(#gradient21)" fill-rule="evenodd" stroke="none"/>
    <path d="M4.15 -15.2 L7.0 -14.25 7.4 -13.8 7.8 -12.95 9.35 -9.2 6.65 -8.25 5.2 -7.8 3.3 -8.4 2.45 -8.7 2.2 -8.8 2.2 -9.2 2.25 -9.5 0.1 -9.55 -0.2 -9.65 -0.5 -9.7 -0.9 -10.95 -1.25 -11.8 -1.3 -12.0 -1.3 -12.1 -1.65 -13.0 -1.35 -13.3 0.0 -14.65 0.95 -15.6 1.4 -16.05 2.0 -15.9 3.7 -14.4 3.9 -14.65 4.15 -15.2" fill="url(#gradient22)" fill-rule="evenodd" stroke="none"/>
    <path d="M4.6 -16.9 L4.15 -15.2 3.9 -14.65 4.6 -16.9 M2.2 -9.2 L2.2 -8.8 1.5 -7.1 2.2 -9.2" fill="url(#gradient23)" fill-rule="evenodd" stroke="none"/>
    <path d="M8.4 -14.9 L9.55 -15.05 10.15 -14.8 10.6 -14.25 11.2 -12.8 11.35 -11.75 8.0 -12.95 8.0 -13.0 8.4 -14.25 8.4 -14.9" fill="url(#gradient24)" fill-rule="evenodd" stroke="none"/>
    <path d="M7.4 -13.8 L7.85 -13.2 8.0 -13.0 8.0 -12.95 7.8 -12.95 7.4 -13.8" fill="url(#gradient25)" fill-rule="evenodd" stroke="none"/>
    <path d="M8.0 -12.95 L11.35 -11.75 46.25 0.5 52.15 4.55 44.65 4.25 11.6 -6.6 8.75 -7.55 6.65 -8.25 9.35 -9.2 7.8 -12.95 8.0 -12.95" fill="url(#gradient26)" fill-rule="evenodd" stroke="none"/>
    <path d="M7.7 -22.7 Q10.05 -20.15 8.05 -17.8 L7.7 -22.7" fill="url(#gradient27)" fill-rule="evenodd" stroke="none"/>
    <path d="M8.75 -7.55 L11.6 -6.6 11.65 -4.0 12.35 1.35 12.4 1.6 12.35 3.15 11.0 4.05 Q8.55 4.5 7.2 1.3 L7.15 1.2 6.75 -2.25 6.15 -4.55 Q9.8 -3.1 8.75 -7.55" fill="url(#gradient28)" fill-rule="evenodd" stroke="none"/>
    <path d="M5.2 -7.8 L6.65 -8.25 8.75 -7.55 Q9.8 -3.1 6.15 -4.55 L5.2 -7.8" fill="url(#gradient29)" fill-rule="evenodd" stroke="none"/>
    <path d="M12.4 1.6 L12.35 1.35 13.3 1.55 13.45 1.75 13.25 2.2 12.4 1.6" fill="url(#gradient30)" fill-rule="evenodd" stroke="none"/>
    <path d="M11.0 4.05 L12.35 3.15 13.25 2.2 13.45 1.75 13.3 1.55 15.55 3.7 15.7 4.55 Q14.9 6.75 11.15 7.0 L9.4 6.55 7.65 5.55 6.6 4.35 Q8.0 5.05 8.25 4.85 L10.0 4.65 11.0 4.05" fill="url(#gradient31)" fill-rule="evenodd" stroke="none"/>
    <path d="M7.2 1.3 Q8.55 4.5 11.0 4.05 L10.0 4.65 8.25 4.85 Q6.05 3.05 7.15 1.3 L7.2 1.3 M12.35 3.15 L12.4 1.6 13.25 2.2 12.35 3.15 M17.25 7.85 L16.65 8.2 16.25 9.05 Q16.3 10.15 14.9 9.5 L11.15 7.0 Q14.9 6.75 15.7 4.55 L17.2 6.5 17.4 7.55 17.25 7.85" fill="url(#gradient32)" fill-rule="evenodd" stroke="none"/>
    <path d="M16.25 9.05 L16.65 8.2 17.25 7.85 16.25 9.05" fill="url(#gradient33)" fill-rule="evenodd" stroke="none"/>
    <path d="M7.15 1.2 L7.2 1.3 7.15 1.3 7.15 1.2" fill="url(#gradient34)" fill-rule="evenodd" stroke="none"/>
    <path d="M-1.25 -47.25 L-0.3 -47.45 -0.7 -47.15 -1.35 -47.1 -1.25 -47.25" fill="url(#gradient35)" fill-rule="evenodd" stroke="none"/>
    <path d="M-2.3 -50.35 Q-2.55 -47.95 -1.25 -47.25 L-1.35 -47.1 Q0.0 -44.65 -0.2 -44.05 L0.55 -43.8 0.6 -43.7 0.75 -43.3 0.8 -43.1 0.85 -42.85 0.65 -42.85 -1.1 -43.4 -3.0 -44.55 -3.8 -46.0 -3.8 -47.75 -3.75 -47.9 -3.2 -49.15 -2.3 -50.35" fill="url(#gradient36)" fill-rule="evenodd" stroke="none"/>
    <path d="M-3.75 -47.9 L-3.8 -47.75 -3.85 -47.75 -3.75 -47.9" fill="url(#gradient37)" fill-rule="evenodd" stroke="none"/>
    <path d="M-3.0 -44.55 L-3.45 -44.05 -5.05 -44.25 -5.45 -44.65 -5.6 -45.05 -5.45 -45.5 -4.8 -47.0 -3.85 -47.75 -3.8 -47.75 -3.8 -46.0 -3.0 -44.55" fill="url(#gradient38)" fill-rule="evenodd" stroke="none"/>
    <path d="M-4.8 -43.55 L-4.85 -43.1 -4.85 -43.05 -5.1 -42.95 -5.2 -43.1 -5.4 -43.3 -6.3 -42.7 -6.4 -43.1 -6.3 -43.7 -5.85 -45.0 -5.45 -45.5 -5.6 -45.05 -5.45 -44.65 -4.9 -43.8 -4.8 -43.55" fill="url(#gradient39)" fill-rule="evenodd" stroke="none"/>
    <path d="M-3.45 -44.05 L-4.4 -43.75 -4.6 -43.5 -4.8 -43.55 -4.9 -43.8 -5.05 -44.25 -3.45 -44.05" fill="url(#gradient40)" fill-rule="evenodd" stroke="none"/>
    <path d="M-5.45 -44.65 L-5.05 -44.25 -4.9 -43.8 -5.45 -44.65" fill="url(#gradient41)" fill-rule="evenodd" stroke="none"/>
    <path d="M-4.85 -43.05 Q-0.35 -41.2 0.3 -38.55 -5.1 -39.3 -10.6 -33.65 L-10.65 -33.6 -11.05 -33.35 -11.3 -33.15 -12.2 -32.5 -12.95 -31.45 -13.0 -31.45 Q-13.3 -32.1 -11.35 -35.65 L-7.7 -40.8 -6.1 -42.45 -5.6 -42.55 -5.1 -42.95 -4.85 -43.05" fill="url(#gradient42)" fill-rule="evenodd" stroke="none"/>
    <path d="M-6.3 -42.7 L-5.4 -43.3 -5.2 -43.1 -5.1 -42.95 -5.6 -42.55 -6.1 -42.45 -6.3 -42.7" fill="url(#gradient43)" fill-rule="evenodd" stroke="none"/>
    <path d="M-6.3 -43.7 L-6.4 -43.1 -6.3 -42.7 -6.1 -42.45 -7.7 -40.8 -7.3 -42.65 -6.3 -43.7" fill="url(#gradient44)" fill-rule="evenodd" stroke="none"/>
    <path d="M-13.0 -31.45 L-12.95 -31.45 -12.2 -32.5 -11.3 -33.15 -11.45 -32.75 -11.3 -32.8 -11.05 -33.35 -10.65 -33.6 -11.7 -30.8 -12.2 -28.65 -12.05 -26.3 Q-11.55 -24.45 -9.15 -23.15 L-9.05 -21.9 -8.8 -21.15 -8.8 -21.05 -8.85 -20.9 -9.0 -20.7 -9.15 -20.35 -9.15 -20.25 -9.05 -17.75 Q-11.65 -13.95 -8.4 -14.25 L-7.15 -13.8 -7.3 -13.65 -10.7 -11.75 -11.7 -12.0 -11.1 -14.25 Q-10.4 -18.15 -10.7 -18.85 L-11.55 -21.8 -11.85 -23.65 -11.95 -23.75 -12.05 -23.45 Q-12.5 -24.75 -12.7 -28.0 L-13.3 -29.7 -13.0 -31.45 M-12.4 -15.6 L-12.5 -15.5 -12.5 -15.6 -12.4 -15.6 M-12.5 -15.3 L-12.5 -15.05 -12.5 -15.0 -12.6 -15.05 -12.6 -15.1 -12.5 -15.05 -12.55 -15.2 -12.55 -15.25 -12.5 -15.3" fill="url(#gradient45)" fill-rule="evenodd" stroke="none"/>
    <path d="M-11.3 -33.15 L-11.05 -33.35 -11.3 -32.8 -11.45 -32.75 -11.3 -33.15" fill="url(#gradient46)" fill-rule="evenodd" stroke="none"/>
    <path d="M-10.65 -33.6 L-10.6 -33.65 Q-8.3 -28.3 0.85 -28.65 L1.65 -28.1 1.7 -26.95 0.35 -25.3 -1.45 -23.8 -1.9 -23.4 -3.75 -22.6 -4.65 -22.5 -6.5 -22.35 -9.0 -23.1 -9.15 -23.15 Q-11.55 -24.45 -12.05 -26.3 L-12.2 -28.65 -11.7 -30.8 -10.65 -33.6" fill="url(#gradient47)" fill-rule="evenodd" stroke="none"/>
    <path d="M-4.65 -22.5 L-3.75 -22.6 -1.9 -23.4 -1.45 -23.8 -1.75 -22.3 Q-2.4 -20.75 -3.15 -20.2 L-3.65 -19.85 Q-4.45 -19.15 -5.6 -19.65 L-6.95 -20.95 Q-5.2 -20.5 -4.65 -22.5" fill="url(#gradient48)" fill-rule="evenodd" stroke="none"/>
    <path d="M-9.05 -17.75 L-9.15 -20.25 -9.05 -20.35 -8.95 -20.7 -8.85 -20.9 -8.8 -21.05 -8.75 -20.85 -7.8 -20.85 -7.1 -21.05 -6.95 -20.95 -5.6 -19.65 Q-4.45 -19.15 -3.65 -19.85 -3.35 -19.75 -4.05 -17.75 L-4.15 -16.05 -4.05 -15.0 -4.15 -14.25 Q-4.25 -11.8 -6.6 -13.15 L-6.75 -13.5 -6.85 -13.65 -6.9 -13.7 -7.25 -14.6 -7.25 -14.65 -7.75 -15.45 -7.9 -15.5 -8.85 -17.0 -9.0 -17.45 -9.0 -17.65 -9.05 -17.75" fill="url(#gradient49)" fill-rule="evenodd" stroke="none"/>
    <path d="M-9.15 -20.35 L-9.0 -20.7 -8.95 -20.7 -9.05 -20.35 -9.15 -20.35 M-8.8 -21.05 L-8.8 -21.15 -7.9 -21.05 -7.35 -21.15 -7.1 -21.05 -7.8 -20.85 -8.75 -20.85 -8.8 -21.05" fill="url(#gradient50)" fill-rule="evenodd" stroke="none"/>
    <path d="M-9.15 -23.15 L-9.0 -23.1 -8.45 -22.15 -7.35 -21.15 -7.9 -21.05 -8.8 -21.15 -9.05 -21.9 -9.15 -23.15" fill="url(#gradient51)" fill-rule="evenodd" stroke="none"/>
    <path d="M-9.0 -23.1 L-6.5 -22.35 -4.65 -22.5 Q-5.2 -20.5 -6.95 -20.95 L-7.1 -21.05 -7.35 -21.15 -8.45 -22.15 -9.0 -23.1" fill="url(#gradient52)" fill-rule="evenodd" stroke="none"/>
    <path d="M1.5 -19.35 L1.05 -15.75 0.95 -15.6 -0.1 -14.7 -0.35 -14.8 Q-1.65 -16.95 -4.15 -16.05 L-4.05 -17.75 Q-3.35 -19.75 -3.65 -19.85 L-3.15 -20.2 Q-2.2 -15.1 1.5 -19.35 M-1.25 -11.8 L-0.9 -10.95 Q-1.35 -10.2 -2.35 -9.9 L-3.65 -9.95 -4.4 -10.55 Q-2.65 -10.45 -2.35 -10.85 L-1.35 -11.8 -1.25 -11.8" fill="url(#gradient53)" fill-rule="evenodd" stroke="none"/>
    <path d="M-7.25 -14.65 L-7.5 -15.0 -7.55 -15.05 -7.6 -15.2 -7.75 -15.45 -7.25 -14.65" fill="url(#gradient54)" fill-rule="evenodd" stroke="none"/>
    <path d="M-7.15 -13.8 L-8.4 -14.25 Q-11.65 -13.95 -9.05 -17.75 L-9.0 -17.65 -9.0 -17.45 -8.85 -17.0 -7.9 -15.5 -7.6 -15.2 -7.55 -15.05 -7.5 -15.0 -7.25 -14.65 -7.25 -14.6 -6.9 -13.7 -7.15 -13.8 M-0.35 -14.8 L-0.1 -14.7 0.0 -14.65 -1.35 -13.3 -1.45 -13.8 -0.9 -14.9 -0.35 -14.8 M-1.3 -12.0 L-1.25 -11.8 -1.35 -11.8 -1.35 -12.0 -1.3 -12.0" fill="url(#gradient55)" fill-rule="evenodd" stroke="none"/>
    <path d="M-7.6 -15.2 L-7.9 -15.5 -7.75 -15.45 -7.6 -15.2" fill="url(#gradient56)" fill-rule="evenodd" stroke="none"/>
    <path d="M-7.3 -13.65 L-7.15 -13.8 -6.9 -13.7 -6.85 -13.65 -7.3 -13.65" fill="url(#gradient57)" fill-rule="evenodd" stroke="none"/>
    <path d="M-10.7 -11.75 L-7.3 -13.65 -6.85 -13.65 -6.75 -13.5 Q-10.0 -12.55 -8.75 -10.3 -6.45 -6.9 -3.6 -9.25 L-2.8 -8.85 Q-4.6 -7.9 -5.85 -7.7 L-6.85 -7.0 -7.3 -6.7 -7.75 -6.3 Q-9.75 -5.0 -11.85 -7.5 -13.2 -10.85 -10.7 -11.75" fill="url(#gradient58)" fill-rule="evenodd" stroke="none"/>
    <path d="M-6.75 -13.5 L-6.6 -13.15 -6.1 -11.7 Q-5.4 -10.8 -4.4 -10.55 L-3.65 -9.95 -3.6 -9.25 Q-6.45 -6.9 -8.75 -10.3 -10.0 -12.55 -6.75 -13.5" fill="url(#gradient59)" fill-rule="evenodd" stroke="none"/>
    <path d="M-6.6 -13.15 Q-4.25 -11.8 -4.15 -14.25 L-4.05 -15.0 -1.95 -14.25 -1.45 -13.8 -1.35 -13.3 -1.65 -13.0 -1.3 -12.1 -1.35 -12.0 -1.35 -11.8 -2.35 -10.85 Q-2.65 -10.45 -4.4 -10.55 -5.4 -10.8 -6.1 -11.7 L-6.6 -13.15" fill="url(#gradient60)" fill-rule="evenodd" stroke="none"/>
    <path d="M-4.15 -16.05 Q-1.65 -16.95 -0.35 -14.8 L-0.9 -14.9 -1.45 -13.8 -1.95 -14.25 -4.05 -15.0 -4.15 -16.05" fill="url(#gradient61)" fill-rule="evenodd" stroke="none"/>
    <path d="M1.05 -15.75 L1.4 -16.05 0.95 -15.6 1.05 -15.75 M-1.35 -12.0 L-1.3 -12.1 -1.3 -12.0 -1.35 -12.0" fill="url(#gradient62)" fill-rule="evenodd" stroke="none"/>
    <path d="M-0.1 -14.7 L0.95 -15.6 0.0 -14.65 -0.1 -14.7" fill="url(#gradient63)" fill-rule="evenodd" stroke="none"/>
    <path d="M-12.05 -23.45 L-11.95 -23.75 -11.85 -23.65 -11.55 -21.8 -12.05 -23.0 -12.05 -23.45" fill="url(#gradient64)" fill-rule="evenodd" stroke="none"/>
    <path d="M-11.55 -21.8 L-10.7 -18.85 Q-10.4 -18.15 -11.1 -14.25 L-11.7 -12.0 -12.9 -9.05 -13.15 -7.1 -13.2 -6.95 -13.3 -5.75 -13.4 -2.45 -14.6 -7.15 Q-14.8 -14.2 -13.5 -14.9 L-12.6 -15.05 -12.5 -15.0 -12.5 -15.05 -12.5 -15.3 -12.5 -15.5 -12.4 -15.6 -12.05 -18.55 -12.05 -23.0 -11.55 -21.8 M-12.6 -15.1 L-12.55 -15.2 -12.5 -15.05 -12.6 -15.1" fill="url(#gradient65)" fill-rule="evenodd" stroke="none"/>
    <path d="M-9.15 -20.25 L-9.15 -20.35 -9.05 -20.35 -9.15 -20.25 M-9.0 -20.7 L-8.85 -20.9 -8.95 -20.7 -9.0 -20.7" fill="url(#gradient66)" fill-rule="evenodd" stroke="none"/>
    <path d="M-12.5 -15.5 L-12.5 -15.3 -12.55 -15.25 -12.55 -15.2 -12.6 -15.1 -12.6 -15.05 -13.5 -14.9 -12.5 -15.6 -12.5 -15.5" fill="url(#gradient67)" fill-rule="evenodd" stroke="none"/>
    <path d="M-11.7 -12.0 L-10.7 -11.75 Q-13.2 -10.85 -11.85 -7.5 -9.75 -5.0 -7.75 -6.3 -10.65 -4.25 -13.1 -6.95 L-13.15 -7.1 -12.9 -9.05 -11.7 -12.0 M-10.35 -2.95 L-10.15 -3.2 Q-7.55 -2.3 -6.3 -5.05 -5.6 -4.25 -5.3 -3.0 L-5.4 -1.95 -6.65 -1.75 -7.75 -1.0 -8.95 -1.55 -10.35 -2.95 M-6.95 -2.15 L-8.0 -2.45 -6.65 -1.85 -6.5 -3.15 -6.95 -2.15" fill="url(#gradient68)" fill-rule="evenodd" stroke="none"/>
    <path d="M-13.3 -5.75 L-13.2 -6.95 -13.1 -6.95 Q-10.65 -4.25 -7.75 -6.3 L-7.3 -6.7 -6.85 -7.0 -6.4 -5.95 -6.3 -5.05 Q-7.55 -2.3 -10.15 -3.2 L-10.35 -2.95 -11.7 -3.8 -13.3 -5.75" fill="url(#gradient69)" fill-rule="evenodd" stroke="none"/>
    <path d="M-2.8 -8.85 L-3.6 -9.25 -3.65 -9.95 -2.35 -9.9 Q-1.35 -10.2 -0.9 -10.95 L-0.5 -9.7 -0.2 -9.65 -1.45 -8.9 -2.8 -8.85" fill="url(#gradient70)" fill-rule="evenodd" stroke="none"/>
    <path d="M-6.65 -1.85 L-6.95 -2.15 -6.5 -3.15 -6.65 -1.85" fill="url(#gradient71)" fill-rule="evenodd" stroke="none"/>
    <path d="M-6.65 -1.85 L-8.0 -2.45 -6.95 -2.15 -6.65 -1.85" fill="url(#gradient72)" fill-rule="evenodd" stroke="none"/>
  </g>
  <defs>
    <radialGradient cx="0" cy="0" gradientTransform="matrix(0.0169, 0.0, 0.0, 0.0169, 4.4, -59.65)" gradientUnits="userSpaceOnUse" id="gradient0" r="819.2" spreadMethod="pad">
      <stop offset="0.0" stop-color="#fbec46"/>
      <stop offset="1.0" stop-color="#bcb134"/>
    </radialGradient>
    <radialGradient cx="0" cy="0" gradientTransform="matrix(0.0158, 0.0, 0.0, 0.0158, 4.4, -59.65)" gradientUnits="userSpaceOnUse" id="gradient1" r="819.2" spreadMethod="pad">
      <stop offset="0.0" stop-color="#a2982d"/>
      <stop offset="1.0" stop-color="#958c2a"/>
    </radialGradient>
    <radialGradient cx="0" cy="0" gradientTransform="matrix(0.0085, 0.0, 0.0, 0.0085, 3.65, -47.55)" gradientUnits="userSpaceOnUse" id="gradient2" r="819.2" spreadMethod="pad">
      <stop offset="0.0" stop-color="#68614b"/>
      <stop offset="1.0" stop-color="#3f3c2e"/>
    </radialGradient>
    <radialGradient cx="0" cy="0" gradientTransform="matrix(0.0084, 0.0, 0.0, 0.0084, 3.35, -50.05)" gradientUnits="userSpaceOnUse" id="gradient3" r="819.2" spreadMethod="pad">
      <stop offset="0.0" stop-color="#67604b"/>
      <stop offset="1.0" stop-color="#444031"/>
    </radialGradient>
    <radialGradient cx="0" cy="0" gradientTransform="matrix(0.0103, 0.0, 0.0, 0.0103, 0.7, -41.05)" gradientUnits="userSpaceOnUse" id="gradient4" r="819.2" spreadMethod="pad">
      <stop offset="0.0" stop-color="#988b8b"/>
      <stop offset="1.0" stop-color="#6b6161"/>
    </radialGradient>
    <radialGradient cx="0" cy="0" gradientTransform="matrix(0.0072, 0.0, 0.0, 0.0072, 3.35, -43.05)" gradientUnits="userSpaceOnUse" id="gradient5" r="819.2" spreadMethod="pad">
      <stop offset="0.0" stop-color="#726868"/>
      <stop offset="1.0" stop-color="#605858"/>
    </radialGradient>
    <radialGradient cx="0" cy="0" gradientTransform="matrix(0.0098, 0.0, 0.0, 0.0098, 11.2, -45.7)" gradientUnits="userSpaceOnUse" id="gradient6" r="819.2" spreadMethod="pad">
      <stop offset="0.0" stop-color="#5590b0"/>
      <stop offset="1.0" stop-color="#4c809d"/>
    </radialGradient>
    <radialGradient cx="0" cy="0" gradientTransform="matrix(0.0058, 0.0, 0.0, 0.0058, 2.8, -43.8)" gradientUnits="userSpaceOnUse" id="gradient7" r="819.2" spreadMethod="pad">
      <stop offset="0.0" stop-color="#e6a25e"/>
      <stop offset="1.0" stop-color="#aa7845"/>
    </radialGradient>
    <radialGradient cx="0" cy="0" gradientTransform="matrix(0.0137, 0.0, 0.0, 0.0137, -5.45, -32.35)" gradientUnits="userSpaceOnUse" id="gradient8" r="819.2" spreadMethod="pad">
      <stop offset="0.0" stop-color="#79cdfa"/>
      <stop offset="1.0" stop-color="#5692b3"/>
    </radialGradient>
    <radialGradient cx="0" cy="0" gradientTransform="matrix(0.0092, 0.0, 0.0, 0.0092, 9.05, -41.95)" gradientUnits="userSpaceOnUse" id="gradient9" r="819.2" spreadMethod="pad">
      <stop offset="0.0" stop-color="#454132"/>
      <stop offset="1.0" stop-color="#383428"/>
    </radialGradient>
    <radialGradient cx="0" cy="0" gradientTransform="matrix(0.01, 0.0, 0.0, 0.01, 2.0, -37.6)" gradientUnits="userSpaceOnUse" id="gradient10" r="819.2" spreadMethod="pad">
      <stop offset="0.0" stop-color="#68624c"/>
      <stop offset="1.0" stop-color="#3e3a2d"/>
    </radialGradient>
    <radialGradient cx="0" cy="0" gradientTransform="matrix(0.0078, 0.0, 0.0, 0.0078, 5.6, -28.4)" gradientUnits="userSpaceOnUse" id="gradient11" r="819.2" spreadMethod="pad">
      <stop offset="0.0" stop-color="#324e6a"/>
      <stop offset="1.0" stop-color="#213446"/>
    </radialGradient>
    <radialGradient cx="0" cy="0" gradientTransform="matrix(0.0096, 0.0, 0.0, 0.0096, 4.0, -26.0)" gradientUnits="userSpaceOnUse" id="gradient12" r="819.2" spreadMethod="pad">
      <stop offset="0.0" stop-color="#6e6750"/>
      <stop offset="1.0" stop-color="#383529"/>
    </radialGradient>
    <radialGradient cx="0" cy="0" gradientTransform="matrix(0.0083, 0.0, 0.0, 0.0083, 5.5, -27.75)" gradientUnits="userSpaceOnUse" id="gradient13" r="819.2" spreadMethod="pad">
      <stop offset="0.0" stop-color="#6a634d"/>
      <stop offset="1.0" stop-color="#383428"/>
    </radialGradient>
    <radialGradient cx="0" cy="0" gradientTransform="matrix(0.014, 0.0, 0.0, 0.014, 7.85, -24.75)" gradientUnits="userSpaceOnUse" id="gradient14" r="819.2" spreadMethod="pad">
      <stop offset="0.0" stop-color="#3b5c7c"/>
      <stop offset="1.0" stop-color="#25394d"/>
    </radialGradient>
    <radialGradient cx="0" cy="0" gradientTransform="matrix(0.0171, 0.0, 0.0, 0.0171, 1.05, -22.4)" gradientUnits="userSpaceOnUse" id="gradient15" r="819.2" spreadMethod="pad">
      <stop offset="0.0" stop-color="#968989"/>
      <stop offset="1.0" stop-color="#6f6464"/>
    </radialGradient>
    <radialGradient cx="0" cy="0" gradientTransform="matrix(0.0055, 0.0, 0.0, 0.0055, 1.15, -20.25)" gradientUnits="userSpaceOnUse" id="gradient16" r="819.2" spreadMethod="pad">
      <stop offset="0.0" stop-color="#406486"/>
      <stop offset="1.0" stop-color="#1e3041"/>
    </radialGradient>
    <radialGradient cx="0" cy="0" gradientTransform="matrix(0.0111, 0.0, 0.0, 0.0111, 0.1, -26.0)" gradientUnits="userSpaceOnUse" id="gradient17" r="819.2" spreadMethod="pad">
      <stop offset="0.0" stop-color="#6e6750"/>
      <stop offset="1.0" stop-color="#312e23"/>
    </radialGradient>
    <radialGradient cx="0" cy="0" gradientTransform="matrix(0.015, 0.0, 0.0, 0.015, 4.9, -18.05)" gradientUnits="userSpaceOnUse" id="gradient18" r="819.2" spreadMethod="pad">
      <stop offset="0.0" stop-color="#ffffff"/>
      <stop offset="1.0" stop-color="#ffffff"/>
    </radialGradient>
    <radialGradient cx="0" cy="0" gradientTransform="matrix(0.0033, 0.0, 0.0, 0.0033, 1.55, -16.9)" gradientUnits="userSpaceOnUse" id="gradient19" r="819.2" spreadMethod="pad">
      <stop offset="0.0" stop-color="#2b445b"/>
      <stop offset="1.0" stop-color="#233749"/>
    </radialGradient>
    <radialGradient cx="0" cy="0" gradientTransform="matrix(0.0072, 0.0, 0.0, 0.0072, 7.3, -16.05)" gradientUnits="userSpaceOnUse" id="gradient20" r="819.2" spreadMethod="pad">
      <stop offset="0.0" stop-color="#314c66"/>
      <stop offset="1.0" stop-color="#213447"/>
    </radialGradient>
    <radialGradient cx="0" cy="0" gradientTransform="matrix(0.0021, 0.0, 0.0, 0.0021, 2.6, -17.05)" gradientUnits="userSpaceOnUse" id="gradient21" r="819.2" spreadMethod="pad">
      <stop offset="0.0" stop-color="#080c10"/>
      <stop offset="1.0" stop-color="#080c10"/>
    </radialGradient>
    <radialGradient cx="0" cy="0" gradientTransform="matrix(0.0108, 0.0, 0.0, 0.0108, 7.1, -14.25)" gradientUnits="userSpaceOnUse" id="gradient22" r="819.2" spreadMethod="pad">
      <stop offset="0.0" stop-color="#ffff54"/>
      <stop offset="1.0" stop-color="#fff749"/>
    </radialGradient>
    <radialGradient cx="0" cy="0" gradientTransform="matrix(0.015, 0.0, 0.0, 0.015, 4.9, -18.05)" gradientUnits="userSpaceOnUse" id="gradient23" r="819.2" spreadMethod="pad">
      <stop offset="0.0" stop-color="#878787"/>
      <stop offset="1.0" stop-color="#848484"/>
    </radialGradient>
    <radialGradient cx="0" cy="0" gradientTransform="matrix(0.0041, 0.0, 0.0, 0.0041, 9.05, -13.95)" gradientUnits="userSpaceOnUse" id="gradient24" r="819.2" spreadMethod="pad">
      <stop offset="0.0" stop-color="#82ddff"/>
      <stop offset="1.0" stop-color="#5b9abd"/>
    </radialGradient>
    <radialGradient cx="0" cy="0" gradientTransform="matrix(0.0081, 0.0, 0.0, 0.0081, 5.2, -7.9)" gradientUnits="userSpaceOnUse" id="gradient25" r="819.2" spreadMethod="pad">
      <stop offset="0.0" stop-color="#ffff52"/>
      <stop offset="1.0" stop-color="#eddf42"/>
    </radialGradient>
    <radialGradient cx="0" cy="0" gradientTransform="matrix(0.0638, 0.0, 0.0, 0.0638, 1.9, -9.9)" gradientUnits="userSpaceOnUse" id="gradient26" r="819.2" spreadMethod="pad">
      <stop offset="0.0" stop-color="#ffffff"/>
      <stop offset="1.0" stop-color="#fefefe"/>
    </radialGradient>
    <radialGradient cx="0" cy="0" gradientTransform="matrix(0.0065, 0.0, 0.0, 0.0065, 6.95, -23.1)" gradientUnits="userSpaceOnUse" id="gradient27" r="819.2" spreadMethod="pad">
      <stop offset="0.0" stop-color="#446a8f"/>
      <stop offset="1.0" stop-color="#1f3143"/>
    </radialGradient>
    <radialGradient cx="0" cy="0" gradientTransform="matrix(0.0157, 0.0, 0.0, 0.0157, 9.65, -8.1)" gradientUnits="userSpaceOnUse" id="gradient28" r="819.2" spreadMethod="pad">
      <stop offset="0.0" stop-color="#595441"/>
      <stop offset="1.0" stop-color="#343126"/>
    </radialGradient>
    <radialGradient cx="0" cy="0" gradientTransform="matrix(0.0063, 0.0, 0.0, 0.0063, 7.75, -8.5)" gradientUnits="userSpaceOnUse" id="gradient29" r="819.2" spreadMethod="pad">
      <stop offset="0.0" stop-color="#5b5542"/>
      <stop offset="1.0" stop-color="#302e23"/>
    </radialGradient>
    <radialGradient cx="0" cy="0" gradientTransform="matrix(0.003, 0.0, 0.0, 0.003, 11.6, 1.15)" gradientUnits="userSpaceOnUse" id="gradient30" r="819.2" spreadMethod="pad">
      <stop offset="0.0" stop-color="#15232b"/>
      <stop offset="1.0" stop-color="#0e181e"/>
    </radialGradient>
    <radialGradient cx="0" cy="0" gradientTransform="matrix(0.0077, 0.0, 0.0, 0.0077, 12.8, 4.85)" gradientUnits="userSpaceOnUse" id="gradient31" r="819.2" spreadMethod="pad">
      <stop offset="0.0" stop-color="#87e4ff"/>
      <stop offset="1.0" stop-color="#548fae"/>
    </radialGradient>
    <radialGradient cx="0" cy="0" gradientTransform="matrix(0.0101, 0.0, 0.0, 0.0101, 10.45, 3.45)" gradientUnits="userSpaceOnUse" id="gradient32" r="819.2" spreadMethod="pad">
      <stop offset="0.0" stop-color="#766e55"/>
      <stop offset="1.0" stop-color="#5e5744"/>
    </radialGradient>
    <radialGradient cx="0" cy="0" gradientTransform="matrix(0.003, 0.0, 0.0, 0.003, 17.3, 7.6)" gradientUnits="userSpaceOnUse" id="gradient33" r="819.2" spreadMethod="pad">
      <stop offset="0.0" stop-color="#3e3a2d"/>
      <stop offset="1.0" stop-color="#3b372b"/>
    </radialGradient>
    <radialGradient cx="0" cy="0" gradientTransform="matrix(0.0105, 0.0, 0.0, 0.0105, 5.85, -6.8)" gradientUnits="userSpaceOnUse" id="gradient34" r="819.2" spreadMethod="pad">
      <stop offset="0.0" stop-color="#0c0c09"/>
      <stop offset="1.0" stop-color="#0c0c09"/>
    </radialGradient>
    <radialGradient cx="0" cy="0" gradientTransform="matrix(0.0019, 0.0, 0.0, 0.0019, -0.75, -47.65)" gradientUnits="userSpaceOnUse" id="gradient35" r="819.2" spreadMethod="pad">
      <stop offset="0.0" stop-color="#28251d"/>
      <stop offset="1.0" stop-color="#26241c"/>
    </radialGradient>
    <radialGradient cx="0" cy="0" gradientTransform="matrix(0.0059, 0.0, 0.0, 0.0059, 0.45, -47.2)" gradientUnits="userSpaceOnUse" id="gradient36" r="819.2" spreadMethod="pad">
      <stop offset="0.0" stop-color="#57513f"/>
      <stop offset="1.0" stop-color="#3f3b2d"/>
    </radialGradient>
    <radialGradient cx="0" cy="0" gradientTransform="matrix(0.0048, 0.0, 0.0, 0.0048, -3.35, -49.05)" gradientUnits="userSpaceOnUse" id="gradient37" r="819.2" spreadMethod="pad">
      <stop offset="0.0" stop-color="#383429"/>
      <stop offset="1.0" stop-color="#0c0c09"/>
    </radialGradient>
    <radialGradient cx="0" cy="0" gradientTransform="matrix(0.0048, 0.0, 0.0, 0.0048, -1.65, -45.05)" gradientUnits="userSpaceOnUse" id="gradient38" r="819.2" spreadMethod="pad">
      <stop offset="0.0" stop-color="#918484"/>
      <stop offset="1.0" stop-color="#5c5454"/>
    </radialGradient>
    <radialGradient cx="0" cy="0" gradientTransform="matrix(0.0036, 0.0, 0.0, 0.0036, -5.45, -43.4)" gradientUnits="userSpaceOnUse" id="gradient39" r="819.2" spreadMethod="pad">
      <stop offset="0.0" stop-color="#998c8c"/>
      <stop offset="1.0" stop-color="#564e4e"/>
    </radialGradient>
    <radialGradient cx="0" cy="0" gradientTransform="matrix(0.0025, 0.0, 0.0, 0.0025, -5.1, -44.4)" gradientUnits="userSpaceOnUse" id="gradient40" r="819.2" spreadMethod="pad">
      <stop offset="0.0" stop-color="#675e5e"/>
      <stop offset="1.0" stop-color="#675e5e"/>
    </radialGradient>
    <radialGradient cx="0" cy="0" gradientTransform="matrix(0.0011, 0.0, 0.0, 0.0011, -5.1, -44.4)" gradientUnits="userSpaceOnUse" id="gradient41" r="819.2" spreadMethod="pad">
      <stop offset="0.0" stop-color="#494242"/>
      <stop offset="1.0" stop-color="#494242"/>
    </radialGradient>
    <radialGradient cx="0" cy="0" gradientTransform="matrix(0.0154, 0.0, 0.0, 0.0154, -2.95, -39.0)" gradientUnits="userSpaceOnUse" id="gradient42" r="819.2" spreadMethod="pad">
      <stop offset="0.0" stop-color="#69634c"/>
      <stop offset="1.0" stop-color="#3e3a2d"/>
    </radialGradient>
    <radialGradient cx="0" cy="0" gradientTransform="matrix(0.0016, 0.0, 0.0, 0.0016, -5.45, -43.4)" gradientUnits="userSpaceOnUse" id="gradient43" r="819.2" spreadMethod="pad">
      <stop offset="0.0" stop-color="#675e5e"/>
      <stop offset="1.0" stop-color="#665d5d"/>
    </radialGradient>
    <radialGradient cx="0" cy="0" gradientTransform="matrix(0.0059, 0.0, 0.0, 0.0059, -5.6, -42.65)" gradientUnits="userSpaceOnUse" id="gradient44" r="819.2" spreadMethod="pad">
      <stop offset="0.0" stop-color="#5e5656"/>
      <stop offset="1.0" stop-color="#4e4747"/>
    </radialGradient>
    <radialGradient cx="0" cy="0" gradientTransform="matrix(0.0298, 0.0, 0.0, 0.0298, -13.1, -31.55)" gradientUnits="userSpaceOnUse" id="gradient45" r="819.2" spreadMethod="pad">
      <stop offset="0.0" stop-color="#332f25"/>
      <stop offset="1.0" stop-color="#161510"/>
    </radialGradient>
    <radialGradient cx="0" cy="0" gradientTransform="matrix(0.0015, 0.0, 0.0, 0.0015, -11.0, -34.0)" gradientUnits="userSpaceOnUse" id="gradient46" r="819.2" spreadMethod="pad">
      <stop offset="0.0" stop-color="#385f74"/>
      <stop offset="1.0" stop-color="#365c71"/>
    </radialGradient>
    <radialGradient cx="0" cy="0" gradientTransform="matrix(0.0115, 0.0, 0.0, 0.0115, -5.6, -31.9)" gradientUnits="userSpaceOnUse" id="gradient47" r="819.2" spreadMethod="pad">
      <stop offset="0.0" stop-color="#68614b"/>
      <stop offset="1.0" stop-color="#504b3a"/>
    </radialGradient>
    <radialGradient cx="0" cy="0" gradientTransform="matrix(0.006, 0.0, 0.0, 0.006, -3.45, -23.9)" gradientUnits="userSpaceOnUse" id="gradient48" r="819.2" spreadMethod="pad">
      <stop offset="0.0" stop-color="#ffb76b"/>
      <stop offset="1.0" stop-color="#9f7041"/>
    </radialGradient>
    <radialGradient cx="0" cy="0" gradientTransform="matrix(0.0106, 0.0, 0.0, 0.0106, -7.1, -21.2)" gradientUnits="userSpaceOnUse" id="gradient49" r="819.2" spreadMethod="pad">
      <stop offset="0.0" stop-color="#665f4a"/>
      <stop offset="1.0" stop-color="#373327"/>
    </radialGradient>
    <radialGradient cx="0" cy="0" gradientTransform="matrix(0.0034, 0.0, 0.0, 0.0034, -7.1, -21.2)" gradientUnits="userSpaceOnUse" id="gradient50" r="819.2" spreadMethod="pad">
      <stop offset="0.0" stop-color="#4a4535"/>
      <stop offset="1.0" stop-color="#393529"/>
    </radialGradient>
    <radialGradient cx="0" cy="0" gradientTransform="matrix(0.003, 0.0, 0.0, 0.003, -7.7, -21.75)" gradientUnits="userSpaceOnUse" id="gradient51" r="819.2" spreadMethod="pad">
      <stop offset="0.0" stop-color="#5fa1c5"/>
      <stop offset="1.0" stop-color="#497b96"/>
    </radialGradient>
    <radialGradient cx="0" cy="0" gradientTransform="matrix(0.0048, 0.0, 0.0, 0.0048, -5.65, -23.25)" gradientUnits="userSpaceOnUse" id="gradient52" r="819.2" spreadMethod="pad">
      <stop offset="0.0" stop-color="#f1aa63"/>
      <stop offset="1.0" stop-color="#94683c"/>
    </radialGradient>
    <radialGradient cx="0" cy="0" gradientTransform="matrix(0.0126, 0.0, 0.0, 0.0126, -0.15, -19.75)" gradientUnits="userSpaceOnUse" id="gradient53" r="819.2" spreadMethod="pad">
      <stop offset="0.0" stop-color="#365471"/>
      <stop offset="1.0" stop-color="#1c2c3b"/>
    </radialGradient>
    <radialGradient cx="0" cy="0" gradientTransform="matrix(0.0032, 0.0, 0.0, 0.0032, -7.9, -16.3)" gradientUnits="userSpaceOnUse" id="gradient54" r="819.2" spreadMethod="pad">
      <stop offset="0.0" stop-color="#0c0c09"/>
      <stop offset="1.0" stop-color="#0c0c09"/>
    </radialGradient>
    <radialGradient cx="0" cy="0" gradientTransform="matrix(0.0144, 0.0, 0.0, 0.0144, 1.45, -13.65)" gradientUnits="userSpaceOnUse" id="gradient55" r="819.2" spreadMethod="pad">
      <stop offset="0.0" stop-color="#456d92"/>
      <stop offset="1.0" stop-color="#34526f"/>
    </radialGradient>
    <radialGradient cx="0" cy="0" gradientTransform="matrix(0.0016, 0.0, 0.0, 0.0016, -7.6, -15.35)" gradientUnits="userSpaceOnUse" id="gradient56" r="819.2" spreadMethod="pad">
      <stop offset="0.0" stop-color="#2b281f"/>
      <stop offset="1.0" stop-color="#25221b"/>
    </radialGradient>
    <radialGradient cx="0" cy="0" gradientTransform="matrix(0.0013, 0.0, 0.0, 0.0013, -6.5, -13.75)" gradientUnits="userSpaceOnUse" id="gradient57" r="819.2" spreadMethod="pad">
      <stop offset="0.0" stop-color="#3f3a2d"/>
      <stop offset="1.0" stop-color="#333025"/>
    </radialGradient>
    <radialGradient cx="0" cy="0" gradientTransform="matrix(0.0119, 0.0, 0.0, 0.0119, -2.85, -10.1)" gradientUnits="userSpaceOnUse" id="gradient58" r="819.2" spreadMethod="pad">
      <stop offset="0.0" stop-color="#454132"/>
      <stop offset="1.0" stop-color="#2f2c22"/>
    </radialGradient>
    <radialGradient cx="0" cy="0" gradientTransform="matrix(0.0054, 0.0, 0.0, 0.0054, -4.85, -11.5)" gradientUnits="userSpaceOnUse" id="gradient59" r="819.2" spreadMethod="pad">
      <stop offset="0.0" stop-color="#585240"/>
      <stop offset="1.0" stop-color="#322e24"/>
    </radialGradient>
    <radialGradient cx="0" cy="0" gradientTransform="matrix(0.0035, 0.0, 0.0, 0.0035, -3.75, -13.5)" gradientUnits="userSpaceOnUse" id="gradient60" r="819.2" spreadMethod="pad">
      <stop offset="0.0" stop-color="#6f6750"/>
      <stop offset="1.0" stop-color="#373327"/>
    </radialGradient>
    <radialGradient cx="0" cy="0" gradientTransform="matrix(0.0033, 0.0, 0.0, 0.0033, -3.15, -15.0)" gradientUnits="userSpaceOnUse" id="gradient61" r="819.2" spreadMethod="pad">
      <stop offset="0.0" stop-color="#6f6850"/>
      <stop offset="1.0" stop-color="#4a4535"/>
    </radialGradient>
    <radialGradient cx="0" cy="0" gradientTransform="matrix(0.0081, 0.0, 0.0, 0.0081, 1.4, -16.2)" gradientUnits="userSpaceOnUse" id="gradient62" r="819.2" spreadMethod="pad">
      <stop offset="0.0" stop-color="#222009"/>
      <stop offset="1.0" stop-color="#222009"/>
    </radialGradient>
    <radialGradient cx="0" cy="0" gradientTransform="matrix(0.0081, 0.0, 0.0, 0.0081, 1.4, -16.2)" gradientUnits="userSpaceOnUse" id="gradient63" r="819.2" spreadMethod="pad">
      <stop offset="0.0" stop-color="#fffb4b"/>
      <stop offset="1.0" stop-color="#fff84a"/>
    </radialGradient>
    <radialGradient cx="0" cy="0" gradientTransform="matrix(0.0033, 0.0, 0.0, 0.0033, -11.6, -21.85)" gradientUnits="userSpaceOnUse" id="gradient64" r="819.2" spreadMethod="pad">
      <stop offset="0.0" stop-color="#0c0c09"/>
      <stop offset="1.0" stop-color="#0c0c09"/>
    </radialGradient>
    <radialGradient cx="0" cy="0" gradientTransform="matrix(0.019, 0.0, 0.0, 0.019, -12.15, -18.1)" gradientUnits="userSpaceOnUse" id="gradient65" r="819.2" spreadMethod="pad">
      <stop offset="0.0" stop-color="#3d392c"/>
      <stop offset="1.0" stop-color="#312e23"/>
    </radialGradient>
    <radialGradient cx="0" cy="0" gradientTransform="matrix(0.002, 0.0, 0.0, 0.002, -9.2, -20.3)" gradientUnits="userSpaceOnUse" id="gradient66" r="819.2" spreadMethod="pad">
      <stop offset="0.0" stop-color="#0c0c09"/>
      <stop offset="1.0" stop-color="#0c0c09"/>
    </radialGradient>
    <radialGradient cx="0" cy="0" gradientTransform="matrix(0.002, 0.0, 0.0, 0.002, -12.85, -15.05)" gradientUnits="userSpaceOnUse" id="gradient67" r="819.2" spreadMethod="pad">
      <stop offset="0.0" stop-color="#2a271e"/>
      <stop offset="1.0" stop-color="#1f1d17"/>
    </radialGradient>
    <radialGradient cx="0" cy="0" gradientTransform="matrix(0.0084, 0.0, 0.0, 0.0084, -7.9, -6.9)" gradientUnits="userSpaceOnUse" id="gradient68" r="819.2" spreadMethod="pad">
      <stop offset="0.0" stop-color="#746c54"/>
      <stop offset="1.0" stop-color="#484334"/>
    </radialGradient>
    <radialGradient cx="0" cy="0" gradientTransform="matrix(0.0073, 0.0, 0.0, 0.0073, -9.95, -4.2)" gradientUnits="userSpaceOnUse" id="gradient69" r="819.2" spreadMethod="pad">
      <stop offset="0.0" stop-color="#6bb5dd"/>
      <stop offset="1.0" stop-color="#4f86a3"/>
    </radialGradient>
    <radialGradient cx="0" cy="0" gradientTransform="matrix(0.0041, 0.0, 0.0, 0.0041, -1.0, -11.3)" gradientUnits="userSpaceOnUse" id="gradient70" r="819.2" spreadMethod="pad">
      <stop offset="0.0" stop-color="#75c6f2"/>
      <stop offset="1.0" stop-color="#315466"/>
    </radialGradient>
    <radialGradient cx="0" cy="0" gradientTransform="matrix(0.0021, 0.0, 0.0, 0.0021, -6.7, -1.85)" gradientUnits="userSpaceOnUse" id="gradient71" r="819.2" spreadMethod="pad">
      <stop offset="0.0" stop-color="#6d664f"/>
      <stop offset="1.0" stop-color="#6c654f"/>
    </radialGradient>
    <radialGradient cx="0" cy="0" gradientTransform="matrix(0.0022, 0.0, 0.0, 0.0022, -8.3, -2.7)" gradientUnits="userSpaceOnUse" id="gradient72" r="819.2" spreadMethod="pad">
      <stop offset="0.0" stop-color="#373428"/>
      <stop offset="1.0" stop-color="#373428"/>
    </radialGradient>
  </defs>
</svg>
