<?xml version="1.0" encoding="UTF-8" standalone="no"?>
<svg xmlns:ffdec="https://www.free-decompiler.com/flash" xmlns:xlink="http://www.w3.org/1999/xlink" ffdec:objectType="shape" height="82.85px" width="53.1px" xmlns="http://www.w3.org/2000/svg">
  <g transform="matrix(1.0, 0.0, 0.0, 1.0, 27.9, 58.35)">
    <path d="M17.15 -40.4 L19.3 -38.6 Q20.0 -37.55 19.5 -36.85 L19.5 -36.8 Q19.75 -36.5 18.2 -34.8 L12.35 -31.75 11.0 -30.5 10.25 -28.45 9.45 -28.15 7.6 -28.0 7.4 -28.0 6.4 -28.0 Q3.95 -28.75 4.6 -37.1 L7.85 -39.35 8.75 -40.3 Q15.05 -43.2 17.15 -40.4" fill="url(#gradient0)" fill-rule="evenodd" stroke="none"/>
    <path d="M7.15 -48.6 L7.65 -47.65 7.75 -47.05 7.8 -46.7 7.8 -46.4 7.8 -46.15 7.8 -45.4 7.15 -43.95 5.5 -42.35 5.7 -43.55 6.3 -45.65 6.95 -46.8 7.15 -48.6" fill="url(#gradient1)" fill-rule="evenodd" stroke="none"/>
    <path d="M-3.45 -48.95 L-2.6 -51.2 -1.75 -51.0 -2.6 -47.35 -2.9 -46.15 Q-0.95 -43.1 -0.55 -50.35 L4.65 -46.7 5.65 -46.2 6.4 -46.15 6.3 -45.65 5.7 -43.55 4.7 -42.85 4.5 -42.75 Q1.35 -41.55 -3.45 -44.4 L-4.1 -45.65 -3.45 -48.95" fill="url(#gradient2)" fill-rule="evenodd" stroke="none"/>
    <path d="M-0.35 -51.9 Q7.45 -53.15 7.15 -48.6 L6.95 -46.8 6.3 -45.65 6.4 -46.15 4.65 -46.7 -0.55 -50.35 -0.35 -51.9" fill="url(#gradient3)" fill-rule="evenodd" stroke="none"/>
    <path d="M7.95 -46.8 L7.8 -46.4 7.8 -46.7 7.95 -46.8" fill="url(#gradient4)" fill-rule="evenodd" stroke="none"/>
    <path d="M7.75 -47.05 L7.95 -46.8 7.8 -46.7 7.75 -47.05" fill="url(#gradient5)" fill-rule="evenodd" stroke="none"/>
    <path d="M7.8 -46.15 L8.85 -45.35 9.0 -45.25 8.6 -42.25 8.75 -40.3 7.85 -39.35 4.6 -37.1 Q-0.8 -34.6 -3.9 -40.05 L-3.9 -40.1 -4.0 -40.2 -4.6 -41.45 -4.7 -42.25 -5.05 -43.1 -5.05 -43.95 -5.05 -44.85 -4.1 -45.65 -3.45 -44.4 -3.4 -44.0 -2.6 -43.05 -2.55 -42.95 -2.15 -42.25 Q0.05 -38.85 4.3 -42.25 L4.7 -42.85 5.7 -43.55 5.5 -42.35 7.15 -43.95 7.8 -45.4 7.8 -46.15" fill="url(#gradient6)" fill-rule="evenodd" stroke="none"/>
    <path d="M-6.5 -47.75 Q-6.85 -49.55 -3.45 -48.95 L-4.1 -45.65 -5.05 -44.85 -5.05 -43.95 Q-6.25 -46.45 -6.1 -47.1 L-6.5 -47.75 M8.85 -45.35 Q15.35 -44.9 17.15 -40.4 15.05 -43.2 8.75 -40.3 L8.6 -42.25 9.0 -45.25 8.85 -45.35" fill="url(#gradient7)" fill-rule="evenodd" stroke="none"/>
    <path d="M4.7 -42.85 L4.3 -42.25 Q0.05 -38.85 -2.15 -42.25 L-2.55 -42.95 -1.4 -42.3 -0.95 -42.25 Q-0.25 -41.8 1.1 -41.85 L3.3 -42.25 4.5 -42.75 4.7 -42.85" fill="url(#gradient8)" fill-rule="evenodd" stroke="none"/>
    <path d="M6.4 -46.15 L5.65 -46.2 4.65 -46.7 6.4 -46.15" fill="url(#gradient9)" fill-rule="evenodd" stroke="none"/>
    <path d="M-2.55 -42.95 L-2.6 -43.05 -3.4 -44.0 -3.45 -44.4 Q1.35 -41.55 4.5 -42.75 L3.3 -42.25 1.1 -41.85 Q-0.25 -41.8 -0.95 -42.25 L-1.4 -42.3 -2.55 -42.95" fill="url(#gradient10)" fill-rule="evenodd" stroke="none"/>
    <path d="M6.4 -28.0 L7.4 -28.0 7.4 -27.95 7.35 -27.9 7.2 -27.8 6.75 -26.75 Q5.7 -25.45 5.2 -25.5 L5.15 -25.5 2.15 -25.2 1.35 -24.9 1.2 -26.1 1.05 -26.4 -0.15 -25.7 Q-0.95 -26.3 -2.0 -26.2 L-2.35 -26.45 -3.0 -29.45 -3.0 -29.85 -3.5 -30.9 Q-3.15 -30.6 -1.4 -32.1 L-0.05 -31.85 1.5 -31.25 3.25 -30.25 5.15 -28.4 Q5.6 -28.2 6.0 -27.95 L6.4 -28.0" fill="url(#gradient11)" fill-rule="evenodd" stroke="none"/>
    <path d="M-4.7 -31.65 L-5.35 -32.4 -5.0 -33.35 -5.1 -34.65 Q-5.1 -35.95 -4.1 -38.15 L-4.6 -38.95 -4.3 -38.95 -4.2 -39.55 -3.85 -39.65 -3.9 -40.05 Q-0.8 -34.6 4.6 -37.1 3.95 -28.75 6.4 -28.0 L6.0 -27.95 Q5.6 -28.2 5.15 -28.4 L3.25 -30.25 1.5 -31.25 -0.05 -31.85 -1.4 -32.1 Q-3.15 -30.6 -3.5 -30.9 L-3.6 -31.0 -4.7 -31.65" fill="url(#gradient12)" fill-rule="evenodd" stroke="none"/>
    <path d="M1.35 -24.9 L2.15 -25.2 5.15 -25.5 5.2 -25.5 Q8.25 -25.0 7.05 -21.55 3.6 -11.1 1.1 -18.55 L0.9 -19.0 0.75 -19.6 Q0.2 -22.45 1.35 -24.9" fill="url(#gradient13)" fill-rule="evenodd" stroke="none"/>
    <path d="M-2.35 -26.45 L-2.0 -26.2 Q-0.95 -26.3 -0.15 -25.7 L1.05 -26.4 1.2 -26.1 1.35 -24.9 Q0.2 -22.45 0.75 -19.6 -3.25 -15.75 -3.4 -21.5 L-3.4 -23.2 -3.0 -25.4 -2.35 -26.45" fill="url(#gradient14)" fill-rule="evenodd" stroke="none"/>
    <path d="M20.1 -26.5 L20.4 -20.55 20.4 -20.45 Q20.3 -18.35 21.3 -10.95 L22.45 -3.85 Q21.2 -5.15 15.5 -7.85 L13.8 -10.7 13.9 -11.1 13.65 -10.9 13.2 -11.6 13.4 -12.35 13.2 -13.4 Q11.85 -15.2 10.55 -14.35 L7.8 -15.95 7.85 -19.0 7.65 -20.35 Q9.35 -24.8 7.4 -27.8 L7.35 -27.9 7.4 -27.95 7.4 -28.0 7.6 -28.0 9.45 -28.15 10.25 -28.45 13.85 -27.9 13.9 -27.8 14.85 -27.1 15.75 -26.05 16.3 -24.5 15.1 -23.75 Q14.45 -23.05 14.55 -21.7 14.75 -19.35 16.3 -19.6 21.45 -19.5 19.1 -24.0 L20.1 -26.5 M-4.4 -27.05 L-4.7 -27.55 -4.7 -31.65 -3.6 -31.0 -3.5 -30.9 -3.0 -29.85 -3.0 -29.45 -4.1 -27.8 -4.4 -27.05" fill="url(#gradient15)" fill-rule="evenodd" stroke="none"/>
    <path d="M5.2 -25.5 Q5.7 -25.45 6.75 -26.75 L7.2 -27.8 7.35 -27.9 7.4 -27.8 Q9.35 -24.8 7.65 -20.35 L7.6 -20.9 7.05 -21.55 Q8.25 -25.0 5.2 -25.5" fill="url(#gradient16)" fill-rule="evenodd" stroke="none"/>
    <path d="M19.5 -36.8 Q24.15 -30.95 20.25 -28.6 L18.7 -28.0 17.6 -27.8 16.85 -27.8 15.65 -27.7 13.85 -27.9 10.25 -28.45 11.0 -30.5 12.35 -31.75 18.2 -34.8 Q19.75 -36.5 19.5 -36.8" fill="url(#gradient17)" fill-rule="evenodd" stroke="none"/>
    <path d="M13.85 -27.9 L15.65 -27.7 16.85 -27.8 17.6 -27.8 16.7 -26.95 14.85 -27.1 13.9 -27.8 13.85 -27.9" fill="url(#gradient18)" fill-rule="evenodd" stroke="none"/>
    <path d="M20.25 -28.6 L20.1 -26.5 19.1 -24.0 18.6 -22.8 17.85 -22.7 17.35 -23.0 16.45 -24.0 16.3 -24.5 15.75 -26.05 14.85 -27.1 16.7 -26.95 17.6 -27.8 18.7 -28.0 20.25 -28.6" fill="url(#gradient19)" fill-rule="evenodd" stroke="none"/>
    <path d="M16.3 -24.5 L16.45 -24.0 15.85 -23.85 15.3 -23.4 14.55 -21.7 Q14.45 -23.05 15.1 -23.75 L16.3 -24.5 M17.35 -23.0 L17.85 -22.7 18.6 -22.8 19.1 -24.0 Q21.45 -19.5 16.3 -19.6 L16.65 -20.05 17.35 -23.0" fill="url(#gradient20)" fill-rule="evenodd" stroke="none"/>
    <path d="M16.45 -24.0 L17.35 -23.0 16.65 -20.05 16.3 -19.6 Q14.75 -19.35 14.55 -21.7 L15.3 -23.4 15.85 -23.85 16.45 -24.0" fill="url(#gradient21)" fill-rule="evenodd" stroke="none"/>
    <path d="M20.4 -20.55 L22.4 -8.85 Q23.8 -5.25 25.2 1.35 L24.8 3.9 Q23.55 1.45 22.45 -3.85 L21.3 -10.95 Q20.3 -18.35 20.4 -20.45 L20.4 -20.55" fill="url(#gradient22)" fill-rule="evenodd" stroke="none"/>
    <path d="M9.9 -6.15 L7.55 -3.9 6.35 -3.8 Q3.5 -5.6 5.75 -8.6 6.15 -5.25 9.9 -6.15 M10.55 -14.35 Q11.85 -15.2 13.2 -13.4 L13.4 -12.35 13.2 -11.6 12.4 -9.6 Q9.3 -7.05 7.0 -9.4 12.2 -7.55 11.35 -13.4 L10.55 -14.35 M6.0 -5.5 L6.0 -5.7 5.7 -6.95 Q5.4 -4.3 5.75 -5.15 L6.85 -5.45 6.0 -5.5" fill="url(#gradient23)" fill-rule="evenodd" stroke="none"/>
    <path d="M5.85 -8.9 L5.25 -7.85 4.0 -6.55 3.25 -6.15 2.65 -6.15 1.9 -6.5 0.7 -9.4 0.65 -10.5 0.5 -13.4 0.55 -13.85 0.55 -13.95 1.1 -18.55 Q3.6 -11.1 7.05 -21.55 L7.6 -20.9 7.65 -20.35 7.85 -19.0 7.8 -15.95 7.75 -15.65 7.4 -13.4 7.0 -11.95 6.3 -9.9 5.85 -8.9" fill="url(#gradient24)" fill-rule="evenodd" stroke="none"/>
    <path d="M7.8 -15.95 L10.55 -14.35 11.35 -13.4 Q12.2 -7.55 7.0 -9.4 L6.3 -9.9 7.0 -11.95 7.85 -12.75 8.15 -13.4 8.35 -13.75 8.35 -14.75 7.75 -15.65 7.8 -15.95" fill="url(#gradient25)" fill-rule="evenodd" stroke="none"/>
    <path d="M7.75 -15.65 L8.35 -14.75 8.35 -13.75 8.15 -13.4 7.85 -12.75 7.0 -11.95 7.4 -13.4 7.75 -15.65" fill="url(#gradient26)" fill-rule="evenodd" stroke="none"/>
    <path d="M13.8 -10.7 Q12.85 -8.1 9.9 -6.15 6.15 -5.25 5.75 -8.6 L5.85 -8.9 6.3 -9.9 7.0 -9.4 Q9.3 -7.05 12.4 -9.6 L12.9 -9.85 13.65 -10.9 13.9 -11.1 13.8 -10.7" fill="url(#gradient27)" fill-rule="evenodd" stroke="none"/>
    <path d="M4.0 -6.55 L4.2 -4.25 Q4.05 -2.5 3.1 -0.6 -1.35 1.15 0.25 -3.7 L1.6 -5.55 1.9 -6.5 2.65 -6.15 3.25 -6.15 4.0 -6.55" fill="url(#gradient28)" fill-rule="evenodd" stroke="none"/>
    <path d="M-2.05 -5.45 L-1.8 -8.15 Q-1.15 -10.1 -0.85 -10.05 L0.1 -10.6 0.65 -10.5 0.7 -9.4 1.9 -6.5 1.6 -5.55 0.25 -3.7 Q-0.75 -3.35 -1.55 -3.9 L-2.0 -5.25 -2.05 -5.45" fill="url(#gradient29)" fill-rule="evenodd" stroke="none"/>
    <path d="M5.75 -5.15 Q5.4 -4.3 5.7 -6.95 L6.0 -5.7 6.0 -5.5 5.75 -5.15" fill="url(#gradient30)" fill-rule="evenodd" stroke="none"/>
    <path d="M5.75 -5.15 L6.0 -5.5 6.85 -5.45 5.75 -5.15" fill="url(#gradient31)" fill-rule="evenodd" stroke="none"/>
    <path d="M0.65 9.15 Q1.05 9.35 2.15 8.6 L1.1 10.05 -0.35 11.1 Q-1.85 11.9 -2.4 11.8 -4.95 11.9 -6.8 9.25 L-6.75 8.4 -4.8 6.2 -4.7 6.3 -4.45 6.75 -4.45 6.8 -3.9 7.3 -2.45 8.25 -0.95 9.05 0.65 9.15" fill="url(#gradient32)" fill-rule="evenodd" stroke="none"/>
    <path d="M1.6 5.9 L1.7 7.6 0.65 9.15 -0.95 9.05 -2.45 8.25 Q1.55 7.95 1.6 5.9 M-2.4 11.8 L-5.0 13.9 -6.6 14.05 -7.2 13.3 -8.45 13.1 -8.55 13.1 -8.6 13.05 Q-9.75 12.2 -6.8 9.25 -4.95 11.9 -2.4 11.8 M-4.0 6.5 L-3.9 7.3 -4.45 6.8 -4.4 6.75 -4.0 6.5" fill="url(#gradient33)" fill-rule="evenodd" stroke="none"/>
    <path d="M3.1 -0.6 L1.6 5.9 Q1.55 7.95 -2.45 8.25 L-3.9 7.3 -4.0 6.5 -3.8 5.75 -2.9 1.8 -2.45 -3.45 -2.45 -3.55 -2.4 -3.6 -2.4 -3.65 -2.35 -3.9 -2.35 -4.0 -2.25 -4.0 -2.25 -4.25 -2.25 -4.45 -2.2 -4.45 -2.2 -4.55 -2.2 -4.85 -2.2 -4.9 -2.0 -5.25 -1.55 -3.9 Q-0.75 -3.35 0.25 -3.7 -1.35 1.15 3.1 -0.6" fill="url(#gradient34)" fill-rule="evenodd" stroke="none"/>
    <path d="M-1.3 -52.45 L-1.3 -52.5 -1.15 -52.9 -1.15 -52.95 -1.1 -53.15 -1.1 -53.25 -1.05 -53.35 -1.05 -53.5 -0.95 -53.65 -0.95 -53.75 -0.9 -53.85 -0.9 -54.05 -0.85 -54.1 -0.85 -54.2 -0.75 -54.3 -0.75 -54.5 -0.7 -54.55 -0.7 -54.75 -0.65 -54.8 0.45 -58.35 -0.35 -51.9 -0.55 -50.35 Q-0.95 -43.1 -2.9 -46.15 L-2.6 -47.35 -1.3 -52.45" fill="url(#gradient35)" fill-rule="evenodd" stroke="none"/>
    <path d="M-1.75 -51.0 L-1.3 -52.45 -2.6 -47.35 -1.75 -51.0" fill="url(#gradient36)" fill-rule="evenodd" stroke="none"/>
    <path d="M-5.35 -32.4 L-6.0 -32.3 -7.35 -32.6 -8.85 -33.5 -9.95 -34.8 -10.45 -36.55 Q-13.05 -40.75 -13.4 -42.25 L-13.75 -43.75 Q-13.55 -47.8 -6.5 -47.75 L-6.1 -47.1 Q-6.25 -46.45 -5.05 -43.95 L-5.05 -43.1 -4.7 -42.25 -4.6 -41.45 -4.0 -40.2 -3.9 -40.1 -3.9 -40.05 -3.85 -39.65 -4.2 -39.55 -4.3 -38.95 -4.6 -38.95 -4.1 -38.15 Q-5.1 -35.95 -5.1 -34.65 L-5.0 -33.35 -5.35 -32.4" fill="url(#gradient37)" fill-rule="evenodd" stroke="none"/>
    <path d="M-11.0 -35.2 Q-17.85 -37.9 -13.75 -43.75 L-13.4 -42.25 Q-13.05 -40.75 -10.45 -36.55 L-9.95 -34.8 -11.0 -35.2" fill="url(#gradient38)" fill-rule="evenodd" stroke="none"/>
    <path d="M-10.9 -33.2 L-11.0 -35.2 -9.95 -34.8 -8.85 -33.5 -7.35 -32.6 Q-9.65 -30.35 -10.9 -33.2" fill="url(#gradient39)" fill-rule="evenodd" stroke="none"/>
    <path d="M-7.65 -22.35 L-10.9 -13.95 -11.0 -13.85 -11.7 -14.75 -10.3 -18.3 Q-12.5 -16.4 -12.5 -15.95 L-13.6 -15.3 -13.65 -15.55 -10.55 -23.15 -10.1 -24.2 -9.45 -23.95 -8.0 -23.4 -7.65 -23.0 -7.6 -22.55 -7.65 -22.5 -8.25 -22.9 -9.3 -21.3 -9.5 -21.1 -8.85 -21.25 -8.8 -20.9 -7.8 -22.35 -7.65 -22.45 -7.65 -22.35" fill="url(#gradient40)" fill-rule="evenodd" stroke="none"/>
    <path d="M-6.6 -26.65 Q-4.65 -24.15 -7.65 -22.35 L-7.65 -22.45 -7.65 -22.5 -7.6 -22.55 Q-5.5 -23.95 -7.05 -26.55 L-6.6 -26.65 M-10.55 -23.15 Q-11.9 -25.7 -10.55 -26.5 L-8.85 -26.9 -9.25 -25.8 -9.25 -24.2 -9.45 -23.95 -10.1 -24.2 -10.55 -23.15 M-8.05 -27.1 L-7.75 -27.25 -7.6 -26.95 -8.05 -27.1" fill="url(#gradient41)" fill-rule="evenodd" stroke="none"/>
    <path d="M-9.25 -24.2 L-9.25 -25.8 -8.85 -26.9 -8.05 -27.1 -7.6 -26.95 -7.05 -26.55 Q-5.5 -23.95 -7.6 -22.55 L-7.65 -23.0 -8.0 -23.4 -8.05 -23.95 -8.45 -24.3 -9.25 -24.2" fill="url(#gradient42)" fill-rule="evenodd" stroke="none"/>
    <path d="M-6.3 -30.85 L-5.7 -30.8 -5.35 -30.5 -5.25 -30.2 -6.6 -26.65 -7.05 -26.55 -7.6 -26.95 -7.75 -27.25 -7.35 -27.8 -6.3 -30.85 M-9.45 -23.95 L-9.25 -24.2 -8.45 -24.3 -8.05 -23.95 -8.0 -23.4 -9.45 -23.95" fill="url(#gradient43)" fill-rule="evenodd" stroke="none"/>
    <path d="M-6.0 -32.3 L-6.3 -30.85 -7.35 -27.8 -7.75 -27.25 -8.05 -27.1 -8.85 -26.9 -10.55 -26.5 -10.5 -28.1 Q-11.9 -32.8 -10.9 -33.2 -9.65 -30.35 -7.35 -32.6 L-6.0 -32.3" fill="url(#gradient44)" fill-rule="evenodd" stroke="none"/>
    <path d="M-4.25 -23.45 L-4.65 -24.8 -4.4 -27.05 -4.1 -27.8 -3.0 -29.45 -2.35 -26.45 -3.0 -25.4 -3.4 -23.2 -4.25 -23.45" fill="url(#gradient45)" fill-rule="evenodd" stroke="none"/>
    <path d="M-3.7 -18.6 L-4.2 -20.25 -4.25 -23.45 -3.4 -23.2 -3.4 -21.5 -3.7 -18.6 M-0.85 -16.6 L-0.95 -15.85 -1.35 -15.75 -0.9 -16.7 -0.85 -16.6" fill="url(#gradient46)" fill-rule="evenodd" stroke="none"/>
    <path d="M-1.9 -14.15 L-2.35 -11.35 -2.45 -11.45 -2.65 -9.45 -3.8 -11.45 -3.7 -18.6 -3.4 -21.5 Q-3.25 -15.75 0.75 -19.6 L0.9 -19.0 -0.25 -17.75 -0.75 -16.95 -0.85 -16.9 -0.9 -16.7 -1.35 -15.75 -1.9 -14.15" fill="url(#gradient47)" fill-rule="evenodd" stroke="none"/>
    <path d="M1.1 -18.55 L0.55 -13.95 0.5 -13.95 Q-0.4 -14.8 -0.35 -15.65 L-0.25 -17.75 0.9 -19.0 1.1 -18.55" fill="url(#gradient48)" fill-rule="evenodd" stroke="none"/>
    <path d="M-7.65 -22.45 L-7.8 -22.35 -9.3 -21.3 -8.25 -22.9 -7.65 -22.5 -7.65 -22.45" fill="url(#gradient49)" fill-rule="evenodd" stroke="none"/>
    <path d="M-7.8 -22.35 L-8.8 -20.9 -8.85 -21.25 -9.5 -21.1 -9.3 -21.3 -7.8 -22.35" fill="url(#gradient50)" fill-rule="evenodd" stroke="none"/>
    <path d="M-0.85 -16.9 L-0.75 -16.9 -0.85 -16.6 -0.9 -16.7 -0.85 -16.9" fill="url(#gradient51)" fill-rule="evenodd" stroke="none"/>
    <path d="M-1.15 -13.2 L-1.25 -13.25 -1.15 -13.35 -1.15 -13.2 M-0.75 -16.95 L-0.75 -16.9 -0.85 -16.9 -0.75 -16.95" fill="url(#gradient52)" fill-rule="evenodd" stroke="none"/>
    <path d="M-0.85 -10.05 L-1.15 -13.2 -1.15 -13.35 -1.15 -13.4 -0.95 -15.85 -0.85 -16.6 -0.75 -16.9 -0.75 -16.95 -0.25 -17.75 -0.35 -15.65 Q-0.4 -14.8 0.5 -13.95 L0.55 -13.85 0.5 -13.4 0.65 -10.5 0.1 -10.6 -0.85 -10.05" fill="url(#gradient53)" fill-rule="evenodd" stroke="none"/>
    <path d="M-1.25 -13.25 L-1.9 -14.15 -1.35 -15.75 -0.95 -15.85 -1.15 -13.4 -1.15 -13.35 -1.25 -13.25" fill="url(#gradient54)" fill-rule="evenodd" stroke="none"/>
    <path d="M0.55 -13.95 L0.55 -13.85 0.5 -13.95 0.55 -13.95" fill="url(#gradient55)" fill-rule="evenodd" stroke="none"/>
    <path d="M-11.7 -14.75 L-24.4 17.35 -27.9 24.5 -26.05 18.45 -12.5 -15.95 Q-12.5 -16.4 -10.3 -18.3 L-11.7 -14.75" fill="url(#gradient56)" fill-rule="evenodd" stroke="none"/>
    <path d="M-2.35 -11.35 L-2.45 -8.6 -2.75 -7.95 -2.65 -9.45 -2.45 -11.45 -2.35 -11.35" fill="url(#gradient57)" fill-rule="evenodd" stroke="none"/>
    <path d="M-2.4 -3.9 L-2.35 -4.1 -2.35 -4.0 -2.35 -3.9 -2.4 -3.9 M-2.35 -4.25 L-2.25 -4.45 -2.25 -4.25 -2.35 -4.25 M-2.25 -4.55 L-2.2 -4.85 -2.2 -4.55 -2.25 -4.55 M-2.2 -4.9 L-2.05 -5.45 -2.0 -5.25 -2.2 -4.9" fill="url(#gradient58)" fill-rule="evenodd" stroke="none"/>
    <path d="M-2.45 -3.45 L-2.45 -3.55 -2.45 -3.45 M-2.4 -3.65 L-2.4 -3.9 -2.35 -3.9 -2.4 -3.65 M-2.35 -4.1 L-2.35 -4.25 -2.25 -4.25 -2.25 -4.0 -2.35 -4.0 -2.35 -4.1 M-2.25 -4.45 L-2.25 -4.55 -2.2 -4.55 -2.2 -4.45 -2.25 -4.45" fill="url(#gradient59)" fill-rule="evenodd" stroke="none"/>
    <path d="M-4.8 6.2 L-3.8 5.75 -4.0 6.5 -4.4 6.75 -4.45 6.75 -4.7 6.3 -4.8 6.2" fill="url(#gradient60)" fill-rule="evenodd" stroke="none"/>
    <path d="M-4.45 6.75 L-4.4 6.75 -4.45 6.8 -4.45 6.75" fill="url(#gradient61)" fill-rule="evenodd" stroke="none"/>
    <path d="M-6.6 14.05 L-8.45 13.1 -7.2 13.3 -6.6 14.05" fill="url(#gradient62)" fill-rule="evenodd" stroke="none"/>
  </g>
  <defs>
    <radialGradient cx="0" cy="0" gradientTransform="matrix(0.012, 0.0, 0.0, 0.012, 12.3, -36.15)" gradientUnits="userSpaceOnUse" id="gradient0" r="819.2" spreadMethod="pad">
      <stop offset="0.0" stop-color="#7cd2ff"/>
      <stop offset="1.0" stop-color="#65acd2"/>
    </radialGradient>
    <radialGradient cx="0" cy="0" gradientTransform="matrix(0.0057, 0.0, 0.0, 0.0057, 5.7, -45.65)" gradientUnits="userSpaceOnUse" id="gradient1" r="819.2" spreadMethod="pad">
      <stop offset="0.0" stop-color="#464233"/>
      <stop offset="1.0" stop-color="#373328"/>
    </radialGradient>
    <radialGradient cx="0" cy="0" gradientTransform="matrix(0.0083, 0.0, 0.0, 0.0083, 1.45, -48.95)" gradientUnits="userSpaceOnUse" id="gradient2" r="819.2" spreadMethod="pad">
      <stop offset="0.0" stop-color="#67604b"/>
      <stop offset="1.0" stop-color="#444031"/>
    </radialGradient>
    <radialGradient cx="0" cy="0" gradientTransform="matrix(0.0083, 0.0, 0.0, 0.0083, 1.1, -46.5)" gradientUnits="userSpaceOnUse" id="gradient3" r="819.2" spreadMethod="pad">
      <stop offset="0.0" stop-color="#68614b"/>
      <stop offset="1.0" stop-color="#3f3a2d"/>
    </radialGradient>
    <radialGradient cx="0" cy="0" gradientTransform="matrix(0.0021, 0.0, 0.0, 0.0021, 7.85, -46.95)" gradientUnits="userSpaceOnUse" id="gradient4" r="819.2" spreadMethod="pad">
      <stop offset="0.0" stop-color="#585050"/>
      <stop offset="1.0" stop-color="#585050"/>
    </radialGradient>
    <radialGradient cx="0" cy="0" gradientTransform="matrix(0.0022, 0.0, 0.0, 0.0022, 7.2, -46.4)" gradientUnits="userSpaceOnUse" id="gradient5" r="819.2" spreadMethod="pad">
      <stop offset="0.0" stop-color="#5e5656"/>
      <stop offset="1.0" stop-color="#484242"/>
    </radialGradient>
    <radialGradient cx="0" cy="0" gradientTransform="matrix(0.0106, 0.0, 0.0, 0.0106, 2.1, -40.05)" gradientUnits="userSpaceOnUse" id="gradient6" r="819.2" spreadMethod="pad">
      <stop offset="0.0" stop-color="#998c8c"/>
      <stop offset="1.0" stop-color="#635a5a"/>
    </radialGradient>
    <radialGradient cx="0" cy="0" gradientTransform="matrix(0.0191, 0.0, 0.0, 0.0191, 7.3, -41.25)" gradientUnits="userSpaceOnUse" id="gradient7" r="819.2" spreadMethod="pad">
      <stop offset="0.0" stop-color="#6a644d"/>
      <stop offset="1.0" stop-color="#312e24"/>
    </radialGradient>
    <radialGradient cx="0" cy="0" gradientTransform="matrix(0.0065, 0.0, 0.0, 0.0065, 2.4, -42.75)" gradientUnits="userSpaceOnUse" id="gradient8" r="819.2" spreadMethod="pad">
      <stop offset="0.0" stop-color="#de9c5b"/>
      <stop offset="1.0" stop-color="#a67544"/>
    </radialGradient>
    <radialGradient cx="0" cy="0" gradientTransform="matrix(0.0031, 0.0, 0.0, 0.0031, 6.4, -46.3)" gradientUnits="userSpaceOnUse" id="gradient9" r="819.2" spreadMethod="pad">
      <stop offset="0.0" stop-color="#27241c"/>
      <stop offset="1.0" stop-color="#25221a"/>
    </radialGradient>
    <radialGradient cx="0" cy="0" gradientTransform="matrix(0.0067, 0.0, 0.0, 0.0067, -0.15, -43.15)" gradientUnits="userSpaceOnUse" id="gradient10" r="819.2" spreadMethod="pad">
      <stop offset="0.0" stop-color="#736868"/>
      <stop offset="1.0" stop-color="#615959"/>
    </radialGradient>
    <radialGradient cx="0" cy="0" gradientTransform="matrix(0.0114, 0.0, 0.0, 0.0114, -0.7, -31.95)" gradientUnits="userSpaceOnUse" id="gradient11" r="819.2" spreadMethod="pad">
      <stop offset="0.0" stop-color="#355370"/>
      <stop offset="1.0" stop-color="#23374a"/>
    </radialGradient>
    <radialGradient cx="0" cy="0" gradientTransform="matrix(0.0132, 0.0, 0.0, 0.0132, 3.4, -38.05)" gradientUnits="userSpaceOnUse" id="gradient12" r="819.2" spreadMethod="pad">
      <stop offset="0.0" stop-color="#6b644e"/>
      <stop offset="1.0" stop-color="#302d23"/>
    </radialGradient>
    <radialGradient cx="0" cy="0" gradientTransform="matrix(0.0109, 0.0, 0.0, 0.0109, 3.2, -24.2)" gradientUnits="userSpaceOnUse" id="gradient13" r="819.2" spreadMethod="pad">
      <stop offset="0.0" stop-color="#6f6750"/>
      <stop offset="1.0" stop-color="#322e24"/>
    </radialGradient>
    <radialGradient cx="0" cy="0" gradientTransform="matrix(0.0092, 0.0, 0.0, 0.0092, 0.25, -25.15)" gradientUnits="userSpaceOnUse" id="gradient14" r="819.2" spreadMethod="pad">
      <stop offset="0.0" stop-color="#6e6750"/>
      <stop offset="1.0" stop-color="#393629"/>
    </radialGradient>
    <radialGradient cx="0" cy="0" gradientTransform="matrix(0.0346, 0.0, 0.0, 0.0346, 20.45, -18.85)" gradientUnits="userSpaceOnUse" id="gradient15" r="819.2" spreadMethod="pad">
      <stop offset="0.0" stop-color="#2e2b21"/>
      <stop offset="1.0" stop-color="#0c0c09"/>
    </radialGradient>
    <radialGradient cx="0" cy="0" gradientTransform="matrix(0.0091, 0.0, 0.0, 0.0091, 4.4, -26.6)" gradientUnits="userSpaceOnUse" id="gradient16" r="819.2" spreadMethod="pad">
      <stop offset="0.0" stop-color="#6e6750"/>
      <stop offset="1.0" stop-color="#383428"/>
    </radialGradient>
    <radialGradient cx="0" cy="0" gradientTransform="matrix(0.01, 0.0, 0.0, 0.01, 14.15, -33.6)" gradientUnits="userSpaceOnUse" id="gradient17" r="819.2" spreadMethod="pad">
      <stop offset="0.0" stop-color="#68614b"/>
      <stop offset="1.0" stop-color="#4e4938"/>
    </radialGradient>
    <radialGradient cx="0" cy="0" gradientTransform="matrix(0.0025, 0.0, 0.0, 0.0025, 15.65, -28.4)" gradientUnits="userSpaceOnUse" id="gradient18" r="819.2" spreadMethod="pad">
      <stop offset="0.0" stop-color="#b07c48"/>
      <stop offset="1.0" stop-color="#755330"/>
    </radialGradient>
    <radialGradient cx="0" cy="0" gradientTransform="matrix(0.0066, 0.0, 0.0, 0.0066, 18.15, -28.0)" gradientUnits="userSpaceOnUse" id="gradient19" r="819.2" spreadMethod="pad">
      <stop offset="0.0" stop-color="#5e5844"/>
      <stop offset="1.0" stop-color="#2e2c22"/>
    </radialGradient>
    <radialGradient cx="0" cy="0" gradientTransform="matrix(0.0036, 0.0, 0.0, 0.0036, 17.15, -22.45)" gradientUnits="userSpaceOnUse" id="gradient20" r="819.2" spreadMethod="pad">
      <stop offset="0.0" stop-color="#716a52"/>
      <stop offset="1.0" stop-color="#2e2b22"/>
    </radialGradient>
    <radialGradient cx="0" cy="0" gradientTransform="matrix(0.004, 0.0, 0.0, 0.004, 16.3, -22.95)" gradientUnits="userSpaceOnUse" id="gradient21" r="819.2" spreadMethod="pad">
      <stop offset="0.0" stop-color="#716a52"/>
      <stop offset="1.0" stop-color="#3b372b"/>
    </radialGradient>
    <radialGradient cx="0" cy="0" gradientTransform="matrix(0.0235, 0.0, 0.0, 0.0235, 22.6, -3.2)" gradientUnits="userSpaceOnUse" id="gradient22" r="819.2" spreadMethod="pad">
      <stop offset="0.0" stop-color="#373428"/>
      <stop offset="1.0" stop-color="#312e23"/>
    </radialGradient>
    <radialGradient cx="0" cy="0" gradientTransform="matrix(0.0103, 0.0, 0.0, 0.0103, 6.55, -8.2)" gradientUnits="userSpaceOnUse" id="gradient23" r="819.2" spreadMethod="pad">
      <stop offset="0.0" stop-color="#736c54"/>
      <stop offset="1.0" stop-color="#444031"/>
    </radialGradient>
    <radialGradient cx="0" cy="0" gradientTransform="matrix(0.0131, 0.0, 0.0, 0.0131, 2.6, -16.95)" gradientUnits="userSpaceOnUse" id="gradient24" r="819.2" spreadMethod="pad">
      <stop offset="0.0" stop-color="#3a5b7a"/>
      <stop offset="1.0" stop-color="#1c2c3c"/>
    </radialGradient>
    <radialGradient cx="0" cy="0" gradientTransform="matrix(0.0079, 0.0, 0.0, 0.0079, 7.65, -14.8)" gradientUnits="userSpaceOnUse" id="gradient25" r="819.2" spreadMethod="pad">
      <stop offset="0.0" stop-color="#403c2f"/>
      <stop offset="1.0" stop-color="#25221b"/>
    </radialGradient>
    <radialGradient cx="0" cy="0" gradientTransform="matrix(0.0041, 0.0, 0.0, 0.0041, 7.35, -15.25)" gradientUnits="userSpaceOnUse" id="gradient26" r="819.2" spreadMethod="pad">
      <stop offset="0.0" stop-color="#3d392c"/>
      <stop offset="1.0" stop-color="#302c22"/>
    </radialGradient>
    <radialGradient cx="0" cy="0" gradientTransform="matrix(0.008, 0.0, 0.0, 0.008, 8.75, -7.15)" gradientUnits="userSpaceOnUse" id="gradient27" r="819.2" spreadMethod="pad">
      <stop offset="0.0" stop-color="#6cb8e0"/>
      <stop offset="1.0" stop-color="#4d839f"/>
    </radialGradient>
    <radialGradient cx="0" cy="0" gradientTransform="matrix(0.0087, 0.0, 0.0, 0.0087, 1.6, -6.35)" gradientUnits="userSpaceOnUse" id="gradient28" r="819.2" spreadMethod="pad">
      <stop offset="0.0" stop-color="#6f6750"/>
      <stop offset="1.0" stop-color="#353126"/>
    </radialGradient>
    <radialGradient cx="0" cy="0" gradientTransform="matrix(0.0079, 0.0, 0.0, 0.0079, 0.4, -9.8)" gradientUnits="userSpaceOnUse" id="gradient29" r="819.2" spreadMethod="pad">
      <stop offset="0.0" stop-color="#82dbff"/>
      <stop offset="1.0" stop-color="#3c667d"/>
    </radialGradient>
    <radialGradient cx="0" cy="0" gradientTransform="matrix(0.0023, 0.0, 0.0, 0.0023, 5.65, -7.15)" gradientUnits="userSpaceOnUse" id="gradient30" r="819.2" spreadMethod="pad">
      <stop offset="0.0" stop-color="#69624c"/>
      <stop offset="1.0" stop-color="#69624c"/>
    </radialGradient>
    <radialGradient cx="0" cy="0" gradientTransform="matrix(0.0019, 0.0, 0.0, 0.0019, 7.0, -5.65)" gradientUnits="userSpaceOnUse" id="gradient31" r="819.2" spreadMethod="pad">
      <stop offset="0.0" stop-color="#444032"/>
      <stop offset="1.0" stop-color="#444032"/>
    </radialGradient>
    <radialGradient cx="0" cy="0" gradientTransform="matrix(0.0072, 0.0, 0.0, 0.0072, -3.75, 9.55)" gradientUnits="userSpaceOnUse" id="gradient32" r="819.2" spreadMethod="pad">
      <stop offset="0.0" stop-color="#86e3ff"/>
      <stop offset="1.0" stop-color="#5590b0"/>
    </radialGradient>
    <radialGradient cx="0" cy="0" gradientTransform="matrix(0.0093, 0.0, 0.0, 0.0093, -2.2, 9.2)" gradientUnits="userSpaceOnUse" id="gradient33" r="819.2" spreadMethod="pad">
      <stop offset="0.0" stop-color="#756e55"/>
      <stop offset="1.0" stop-color="#655e49"/>
    </radialGradient>
    <radialGradient cx="0" cy="0" gradientTransform="matrix(0.0177, 0.0, 0.0, 0.0177, -0.35, -5.5)" gradientUnits="userSpaceOnUse" id="gradient34" r="819.2" spreadMethod="pad">
      <stop offset="0.0" stop-color="#69624c"/>
      <stop offset="1.0" stop-color="#39362a"/>
    </radialGradient>
    <radialGradient cx="0" cy="0" gradientTransform="matrix(0.0169, 0.0, 0.0, 0.0169, 0.3, -58.55)" gradientUnits="userSpaceOnUse" id="gradient35" r="819.2" spreadMethod="pad">
      <stop offset="0.0" stop-color="#fced46"/>
      <stop offset="1.0" stop-color="#bdb235"/>
    </radialGradient>
    <radialGradient cx="0" cy="0" gradientTransform="matrix(0.0158, 0.0, 0.0, 0.0158, 0.3, -58.55)" gradientUnits="userSpaceOnUse" id="gradient36" r="819.2" spreadMethod="pad">
      <stop offset="0.0" stop-color="#a49b2e"/>
      <stop offset="1.0" stop-color="#978e2a"/>
    </radialGradient>
    <radialGradient cx="0" cy="0" gradientTransform="matrix(0.0127, 0.0, 0.0, 0.0127, -3.6, -42.4)" gradientUnits="userSpaceOnUse" id="gradient37" r="819.2" spreadMethod="pad">
      <stop offset="0.0" stop-color="#79cdfa"/>
      <stop offset="1.0" stop-color="#538ead"/>
    </radialGradient>
    <radialGradient cx="0" cy="0" gradientTransform="matrix(0.0088, 0.0, 0.0, 0.0088, -9.25, -38.6)" gradientUnits="userSpaceOnUse" id="gradient38" r="819.2" spreadMethod="pad">
      <stop offset="0.0" stop-color="#544e3d"/>
      <stop offset="1.0" stop-color="#3e3a2d"/>
    </radialGradient>
    <radialGradient cx="0" cy="0" gradientTransform="matrix(0.0034, 0.0, 0.0, 0.0034, -9.15, -34.5)" gradientUnits="userSpaceOnUse" id="gradient39" r="819.2" spreadMethod="pad">
      <stop offset="0.0" stop-color="#f1aa63"/>
      <stop offset="1.0" stop-color="#73512f"/>
    </radialGradient>
    <radialGradient cx="0" cy="0" gradientTransform="matrix(0.0066, 0.0, 0.0, 0.0066, -9.95, -18.9)" gradientUnits="userSpaceOnUse" id="gradient40" r="819.2" spreadMethod="pad">
      <stop offset="0.0" stop-color="#c4b837"/>
      <stop offset="1.0" stop-color="#948c29"/>
    </radialGradient>
    <radialGradient cx="0" cy="0" gradientTransform="matrix(0.0041, 0.0, 0.0, 0.0041, -9.25, -25.35)" gradientUnits="userSpaceOnUse" id="gradient41" r="819.2" spreadMethod="pad">
      <stop offset="0.0" stop-color="#706851"/>
      <stop offset="1.0" stop-color="#363327"/>
    </radialGradient>
    <radialGradient cx="0" cy="0" gradientTransform="matrix(0.003, 0.0, 0.0, 0.003, -8.2, -24.8)" gradientUnits="userSpaceOnUse" id="gradient42" r="819.2" spreadMethod="pad">
      <stop offset="0.0" stop-color="#716a52"/>
      <stop offset="1.0" stop-color="#3b372b"/>
    </radialGradient>
    <radialGradient cx="0" cy="0" gradientTransform="matrix(0.0114, 0.0, 0.0, 0.0114, -9.45, -22.25)" gradientUnits="userSpaceOnUse" id="gradient43" r="819.2" spreadMethod="pad">
      <stop offset="0.0" stop-color="#3e6183"/>
      <stop offset="1.0" stop-color="#365471"/>
    </radialGradient>
    <radialGradient cx="0" cy="0" gradientTransform="matrix(0.0078, 0.0, 0.0, 0.0078, -8.25, -32.45)" gradientUnits="userSpaceOnUse" id="gradient44" r="819.2" spreadMethod="pad">
      <stop offset="0.0" stop-color="#6a634d"/>
      <stop offset="1.0" stop-color="#3b382b"/>
    </radialGradient>
    <radialGradient cx="0" cy="0" gradientTransform="matrix(0.0061, 0.0, 0.0, 0.0061, -1.65, -27.45)" gradientUnits="userSpaceOnUse" id="gradient45" r="819.2" spreadMethod="pad">
      <stop offset="0.0" stop-color="#67604b"/>
      <stop offset="1.0" stop-color="#322f25"/>
    </radialGradient>
    <radialGradient cx="0" cy="0" gradientTransform="matrix(0.0109, 0.0, 0.0, 0.0109, -2.85, -24.05)" gradientUnits="userSpaceOnUse" id="gradient46" r="819.2" spreadMethod="pad">
      <stop offset="0.0" stop-color="#314d68"/>
      <stop offset="1.0" stop-color="#1d2e3e"/>
    </radialGradient>
    <radialGradient cx="0" cy="0" gradientTransform="matrix(0.0161, 0.0, 0.0, 0.0161, 2.0, -21.15)" gradientUnits="userSpaceOnUse" id="gradient47" r="819.2" spreadMethod="pad">
      <stop offset="0.0" stop-color="#9a8c8c"/>
      <stop offset="1.0" stop-color="#524a4a"/>
    </radialGradient>
    <radialGradient cx="0" cy="0" gradientTransform="matrix(0.0069, 0.0, 0.0, 0.0069, 1.35, -19.35)" gradientUnits="userSpaceOnUse" id="gradient48" r="819.2" spreadMethod="pad">
      <stop offset="0.0" stop-color="#456b90"/>
      <stop offset="1.0" stop-color="#213446"/>
    </radialGradient>
    <radialGradient cx="0" cy="0" gradientTransform="matrix(0.0046, 0.0, 0.0, 0.0046, -7.8, -22.6)" gradientUnits="userSpaceOnUse" id="gradient49" r="819.2" spreadMethod="pad">
      <stop offset="0.0" stop-color="#979797"/>
      <stop offset="1.0" stop-color="#909090"/>
    </radialGradient>
    <radialGradient cx="0" cy="0" gradientTransform="matrix(0.0046, 0.0, 0.0, 0.0046, -7.8, -22.6)" gradientUnits="userSpaceOnUse" id="gradient50" r="819.2" spreadMethod="pad">
      <stop offset="0.0" stop-color="#999999"/>
      <stop offset="1.0" stop-color="#979797"/>
    </radialGradient>
    <radialGradient cx="0" cy="0" gradientTransform="matrix(0.003, 0.0, 0.0, 0.003, -0.85, -18.6)" gradientUnits="userSpaceOnUse" id="gradient51" r="819.2" spreadMethod="pad">
      <stop offset="0.0" stop-color="#253a4d"/>
      <stop offset="1.0" stop-color="#203344"/>
    </radialGradient>
    <radialGradient cx="0" cy="0" gradientTransform="matrix(0.0073, 0.0, 0.0, 0.0073, -1.15, -12.0)" gradientUnits="userSpaceOnUse" id="gradient52" r="819.2" spreadMethod="pad">
      <stop offset="0.0" stop-color="#24384b"/>
      <stop offset="1.0" stop-color="#080c10"/>
    </radialGradient>
    <radialGradient cx="0" cy="0" gradientTransform="matrix(0.0077, 0.0, 0.0, 0.0077, -0.15, -15.2)" gradientUnits="userSpaceOnUse" id="gradient53" r="819.2" spreadMethod="pad">
      <stop offset="0.0" stop-color="#375674"/>
      <stop offset="1.0" stop-color="#253a4d"/>
    </radialGradient>
    <radialGradient cx="0" cy="0" gradientTransform="matrix(0.0025, 0.0, 0.0, 0.0025, -0.8, -15.15)" gradientUnits="userSpaceOnUse" id="gradient54" r="819.2" spreadMethod="pad">
      <stop offset="0.0" stop-color="#85e1ff"/>
      <stop offset="1.0" stop-color="#406d85"/>
    </radialGradient>
    <radialGradient cx="0" cy="0" gradientTransform="matrix(0.0113, 0.0, 0.0, 0.0113, 0.5, -10.8)" gradientUnits="userSpaceOnUse" id="gradient55" r="819.2" spreadMethod="pad">
      <stop offset="0.0" stop-color="#23374a"/>
      <stop offset="1.0" stop-color="#080c10"/>
    </radialGradient>
    <radialGradient cx="0" cy="0" gradientTransform="matrix(0.0606, 0.0, 0.0, 0.0606, -28.0, 24.55)" gradientUnits="userSpaceOnUse" id="gradient56" r="819.2" spreadMethod="pad">
      <stop offset="0.0" stop-color="#a4a4a4"/>
      <stop offset="1.0" stop-color="#9e9e9e"/>
    </radialGradient>
    <radialGradient cx="0" cy="0" gradientTransform="matrix(0.0042, 0.0, 0.0, 0.0042, -2.45, -11.3)" gradientUnits="userSpaceOnUse" id="gradient57" r="819.2" spreadMethod="pad">
      <stop offset="0.0" stop-color="#121010"/>
      <stop offset="1.0" stop-color="#121010"/>
    </radialGradient>
    <radialGradient cx="0" cy="0" gradientTransform="matrix(0.0032, 0.0, 0.0, 0.0032, -2.1, -5.1)" gradientUnits="userSpaceOnUse" id="gradient58" r="819.2" spreadMethod="pad">
      <stop offset="0.0" stop-color="#413d2f"/>
      <stop offset="1.0" stop-color="#383529"/>
    </radialGradient>
    <radialGradient cx="0" cy="0" gradientTransform="matrix(0.0145, 0.0, 0.0, 0.0145, -1.95, -5.6)" gradientUnits="userSpaceOnUse" id="gradient59" r="819.2" spreadMethod="pad">
      <stop offset="0.0" stop-color="#0c0c09"/>
      <stop offset="1.0" stop-color="#0c0c09"/>
    </radialGradient>
    <radialGradient cx="0" cy="0" gradientTransform="matrix(0.0031, 0.0, 0.0, 0.0031, -5.05, 6.35)" gradientUnits="userSpaceOnUse" id="gradient60" r="819.2" spreadMethod="pad">
      <stop offset="0.0" stop-color="#0e181e"/>
      <stop offset="1.0" stop-color="#0e181e"/>
    </radialGradient>
    <radialGradient cx="0" cy="0" gradientTransform="matrix(0.0063, 0.0, 0.0, 0.0063, -6.3, 8.45)" gradientUnits="userSpaceOnUse" id="gradient61" r="819.2" spreadMethod="pad">
      <stop offset="0.0" stop-color="#12110d"/>
      <stop offset="1.0" stop-color="#0c0c09"/>
    </radialGradient>
    <radialGradient cx="0" cy="0" gradientTransform="matrix(0.0034, 0.0, 0.0, 0.0034, -8.8, 12.9)" gradientUnits="userSpaceOnUse" id="gradient62" r="819.2" spreadMethod="pad">
      <stop offset="0.0" stop-color="#474334"/>
      <stop offset="1.0" stop-color="#423e2f"/>
    </radialGradient>
  </defs>
</svg>
