<?xml version="1.0" encoding="UTF-8" standalone="no"?>
<svg xmlns:ffdec="https://www.free-decompiler.com/flash" xmlns:xlink="http://www.w3.org/1999/xlink" ffdec:objectType="shape" height="80.1px" width="59.4px" xmlns="http://www.w3.org/2000/svg">
  <g transform="matrix(1.0, 0.0, 0.0, 1.0, 44.6, 61.6)">
    <path d="M-4.75 -45.95 L-1.0 -47.85 1.75 -49.8 1.95 -49.55 2.4 -49.0 3.2 -46.9 3.25 -46.5 Q3.7 -43.55 0.75 -42.25 L0.3 -41.9 0.3 -41.85 -1.9 -42.0 -2.95 -42.25 Q-4.6 -42.45 -6.15 -43.4 L-6.15 -44.0 -6.25 -44.55 -6.1 -45.05 Q-5.4 -44.9 -4.55 -45.65 L-4.75 -45.95" fill="url(#gradient0)" fill-rule="evenodd" stroke="none"/>
    <path d="M1.75 -49.8 L1.5 -50.4 Q4.45 -51.85 7.4 -49.9 L8.25 -49.1 9.0 -47.35 9.1 -46.8 Q7.95 -49.9 1.95 -49.55 L1.75 -49.8" fill="url(#gradient1)" fill-rule="evenodd" stroke="none"/>
    <path d="M10.55 -44.25 L11.65 -41.65 12.1 -39.1 Q11.35 -37.95 10.95 -33.7 L10.95 -26.45 14.5 -3.35 14.6 4.1 14.5 4.3 Q3.15 20.5 -7.45 18.2 -9.3 11.05 -2.55 -3.05 L-1.8 -7.65 -1.0 -10.6 -0.1 -14.05 0.15 -13.55 0.35 -13.8 0.05 -14.05 0.0 -14.55 0.75 -18.0 0.95 -19.65 0.9 -22.05 0.65 -23.15 -0.1 -25.85 -1.1 -28.85 Q-0.4 -29.05 -3.5 -35.3 L-6.55 -39.45 Q-6.75 -41.8 1.65 -40.1 L1.75 -39.95 2.65 -38.75 3.55 -38.55 Q6.8 -33.25 5.7 -27.8 L4.95 -17.35 5.45 -13.4 Q10.95 13.95 7.1 -13.4 6.25 -18.5 6.35 -20.05 L7.15 -27.8 Q8.85 -38.05 5.9 -41.3 L5.8 -41.4 5.75 -42.95 4.95 -43.95 Q5.2 -44.05 4.45 -45.95 L3.65 -46.4 3.2 -46.9 2.4 -49.0 1.95 -49.55 Q7.95 -49.9 9.1 -46.8 L10.55 -44.25 M14.0 4.85 L14.0 4.45 13.45 4.95 14.0 4.85" fill="url(#gradient2)" fill-rule="evenodd" stroke="none"/>
    <path d="M-0.15 -52.55 L0.55 -51.9 1.5 -50.4 1.75 -49.8 -1.0 -47.85 -4.75 -45.95 -5.05 -45.85 -5.65 -45.65 -5.45 -46.15 Q-8.35 -49.6 -6.4 -52.65 -3.75 -55.55 -0.15 -52.55" fill="url(#gradient3)" fill-rule="evenodd" stroke="none"/>
    <path d="M9.0 -47.35 L10.3 -45.45 10.55 -44.25 9.1 -46.8 9.0 -47.35" fill="url(#gradient4)" fill-rule="evenodd" stroke="none"/>
    <path d="M4.95 -43.95 L5.75 -42.95 5.8 -41.4 5.9 -41.3 Q6.25 -40.75 4.1 -38.6 L2.95 -38.8 2.05 -40.0 1.75 -39.95 1.65 -40.1 1.85 -40.8 3.0 -41.0 4.3 -42.25 4.5 -42.35 4.95 -43.95" fill="url(#gradient5)" fill-rule="evenodd" stroke="none"/>
    <path d="M-8.8 -41.0 L-9.25 -43.35 Q-9.1 -46.05 -8.25 -45.85 L-7.85 -45.45 -7.4 -44.4 -6.15 -44.0 -6.15 -43.4 Q-4.6 -42.45 -2.95 -42.25 L-1.9 -42.0 0.3 -41.85 1.1 -40.9 1.35 -40.7 1.85 -40.8 1.65 -40.1 Q-6.75 -41.8 -6.55 -39.45 L-6.8 -39.65 -7.45 -39.65 -8.5 -40.4 -8.8 -41.0 M3.2 -46.9 L3.65 -46.4 3.25 -46.5 3.2 -46.9" fill="url(#gradient6)" fill-rule="evenodd" stroke="none"/>
    <path d="M3.65 -46.4 L4.45 -45.95 Q5.2 -44.05 4.95 -43.95 L4.5 -42.35 4.3 -42.25 3.0 -41.0 1.85 -40.8 1.35 -40.7 1.1 -40.9 1.3 -41.4 0.3 -41.9 0.75 -42.25 Q3.7 -43.55 3.25 -46.5 L3.65 -46.4" fill="url(#gradient7)" fill-rule="evenodd" stroke="none"/>
    <path d="M2.65 -38.75 L1.75 -39.95 2.05 -40.0 2.95 -38.8 2.65 -38.75" fill="url(#gradient8)" fill-rule="evenodd" stroke="none"/>
    <path d="M0.3 -41.9 L1.3 -41.4 1.1 -40.9 0.3 -41.85 0.3 -41.9" fill="url(#gradient9)" fill-rule="evenodd" stroke="none"/>
    <path d="M3.55 -38.55 L2.65 -38.75 2.95 -38.8 4.1 -38.6 3.55 -38.55" fill="url(#gradient10)" fill-rule="evenodd" stroke="none"/>
    <path d="M5.9 -41.3 Q8.85 -38.05 7.15 -27.8 L6.35 -20.05 Q6.25 -18.5 7.1 -13.4 10.95 13.95 5.45 -13.4 L4.95 -17.35 5.7 -27.8 Q6.8 -33.25 3.55 -38.55 L4.1 -38.6 Q6.25 -40.75 5.9 -41.3" fill="url(#gradient11)" fill-rule="evenodd" stroke="none"/>
    <path d="M-11.0 -22.6 Q-14.65 -23.0 -12.75 -30.25 L-12.55 -30.85 -12.2 -31.75 Q-10.55 -28.1 -1.1 -28.85 L-0.1 -25.85 -0.7 -25.1 -2.65 -23.4 Q-5.4 -21.85 -5.9 -22.1 L-6.7 -21.9 -7.6 -21.75 -8.1 -21.85 -9.65 -22.05 -11.0 -22.6" fill="url(#gradient12)" fill-rule="evenodd" stroke="none"/>
    <path d="M-0.1 -25.85 L0.65 -23.15 -0.15 -23.8 -0.7 -25.1 -0.1 -25.85" fill="url(#gradient13)" fill-rule="evenodd" stroke="none"/>
    <path d="M-0.7 -25.1 L-0.15 -23.8 0.0 -22.15 -0.3 -20.65 -0.5 -20.1 -1.9 -18.95 -2.15 -18.85 -2.6 -18.8 Q-4.75 -18.9 -5.9 -22.1 -5.4 -21.85 -2.65 -23.4 L-0.7 -25.1" fill="url(#gradient14)" fill-rule="evenodd" stroke="none"/>
    <path d="M0.65 -23.15 L0.9 -22.05 0.95 -19.65 0.55 -19.8 -0.3 -20.65 0.0 -22.15 -0.15 -23.8 0.65 -23.15" fill="url(#gradient15)" fill-rule="evenodd" stroke="none"/>
    <path d="M0.95 -19.65 L0.75 -18.0 0.05 -17.95 Q-1.9 -18.45 -1.95 -18.8 L-1.9 -18.95 -0.5 -20.1 -0.3 -20.65 0.55 -19.8 0.95 -19.65" fill="url(#gradient16)" fill-rule="evenodd" stroke="none"/>
    <path d="M-5.9 -22.1 Q-4.75 -18.9 -2.6 -18.8 L-3.0 -18.2 -3.45 -17.95 -3.85 -18.1 -5.05 -19.05 -5.7 -19.9 -6.7 -21.9 -5.9 -22.1 M-2.15 -18.85 L-1.9 -18.95 -1.95 -18.8 -2.15 -18.85" fill="url(#gradient17)" fill-rule="evenodd" stroke="none"/>
    <path d="M-2.45 -13.05 L-3.4 -15.0 -3.65 -16.25 -3.45 -17.95 -3.0 -18.2 -2.6 -18.8 -2.15 -18.85 -1.95 -18.8 Q-1.9 -18.45 0.05 -17.95 L0.75 -18.0 0.0 -14.55 0.05 -14.05 0.35 -13.8 0.15 -13.55 -0.1 -14.05 -1.0 -10.6 -1.8 -10.8 -2.15 -11.1 -2.3 -11.95 -2.3 -12.75 -2.45 -13.05" fill="url(#gradient18)" fill-rule="evenodd" stroke="none"/>
    <path d="M-1.8 -7.65 Q-4.4 -9.45 -3.5 -11.25 L-2.95 -11.8 -2.3 -11.95 -2.15 -11.1 -1.8 -10.8 -1.0 -10.6 -1.8 -7.65" fill="url(#gradient19)" fill-rule="evenodd" stroke="none"/>
    <path d="M14.6 4.1 L14.8 4.3 14.5 4.3 14.6 4.1" fill="url(#gradient20)" fill-rule="evenodd" stroke="none"/>
    <path d="M14.0 4.85 L13.45 4.95 14.0 4.45 14.0 4.85" fill="url(#gradient21)" fill-rule="evenodd" stroke="none"/>
    <path d="M-5.7 -59.95 L-5.1 -61.6 -4.95 -61.4 -6.05 -55.2 -6.8 -54.55 -7.65 -53.85 -5.7 -59.95" fill="url(#gradient22)" fill-rule="evenodd" stroke="none"/>
    <path d="M-0.15 -52.55 Q-3.75 -55.55 -6.4 -52.65 -8.35 -49.6 -5.45 -46.15 -9.75 -50.2 -6.8 -54.55 L-6.05 -55.2 Q-2.1 -56.0 -0.15 -52.55 M-5.05 -45.85 L-4.75 -45.95 -4.55 -45.65 -5.05 -45.85" fill="url(#gradient23)" fill-rule="evenodd" stroke="none"/>
    <path d="M-5.45 -46.15 L-5.65 -45.65 -5.05 -45.85 -4.55 -45.65 Q-5.4 -44.9 -6.1 -45.05 L-6.25 -44.55 -7.85 -45.45 -8.25 -45.85 Q-10.65 -48.05 -8.25 -52.85 L-7.65 -53.85 -6.8 -54.55 Q-9.75 -50.2 -5.45 -46.15" fill="url(#gradient24)" fill-rule="evenodd" stroke="none"/>
    <path d="M-8.25 -52.85 L-8.05 -53.9 -5.7 -59.95 -7.65 -53.85 -8.25 -52.85" fill="url(#gradient25)" fill-rule="evenodd" stroke="none"/>
    <path d="M-6.25 -44.55 L-6.15 -44.0 -7.4 -44.4 -7.85 -45.45 -6.25 -44.55" fill="url(#gradient26)" fill-rule="evenodd" stroke="none"/>
    <path d="M-9.1 -40.0 L-8.8 -41.0 -8.5 -40.4 -9.1 -40.0" fill="url(#gradient27)" fill-rule="evenodd" stroke="none"/>
    <path d="M-12.45 -32.35 Q-11.15 -34.9 -9.9 -38.6 L-9.1 -40.0 -8.5 -40.4 -7.45 -39.65 -6.8 -39.65 -6.55 -39.45 -3.5 -35.3 Q-0.4 -29.05 -1.1 -28.85 -10.55 -28.1 -12.2 -31.75 L-12.45 -32.35" fill="url(#gradient28)" fill-rule="evenodd" stroke="none"/>
    <path d="M-12.6 -31.55 L-12.45 -32.35 -12.2 -31.75 -12.55 -30.85 -12.65 -30.8 -12.6 -31.55" fill="url(#gradient29)" fill-rule="evenodd" stroke="none"/>
    <path d="M-12.75 -30.25 Q-76.55 -36.3 -12.6 -31.55 L-12.65 -30.8 -12.55 -30.85 -12.75 -30.25" fill="url(#gradient30)" fill-rule="evenodd" stroke="none"/>
    <path d="M-5.7 -19.9 L-5.05 -19.05 -3.85 -18.1 -4.5 -18.1 -5.7 -19.9" fill="url(#gradient31)" fill-rule="evenodd" stroke="none"/>
    <path d="M-3.4 -15.0 L-4.25 -13.8 Q-5.1 -12.95 -5.75 -12.85 L-6.3 -12.8 -4.95 -16.1 -4.5 -18.1 -3.85 -18.1 -3.45 -17.95 -3.65 -16.25 -3.4 -15.0" fill="url(#gradient32)" fill-rule="evenodd" stroke="none"/>
    <path d="M-11.55 -16.05 L-11.55 -18.95 -10.95 -21.85 -10.5 -21.25 -8.1 -21.85 -7.6 -21.75 -6.7 -21.9 -5.7 -19.9 -4.5 -18.1 -4.95 -16.1 -6.3 -12.8 -7.4 -11.5 Q-9.9 -10.6 -10.85 -13.35 L-10.85 -13.4 -11.55 -16.05" fill="url(#gradient33)" fill-rule="evenodd" stroke="none"/>
    <path d="M-10.95 -21.85 L-11.0 -22.6 -9.65 -22.05 -8.1 -21.85 -10.5 -21.25 -10.95 -21.85" fill="url(#gradient34)" fill-rule="evenodd" stroke="none"/>
    <path d="M-11.4 -13.15 L-11.75 -14.65 -11.55 -16.05 -10.85 -13.4 -10.85 -13.35 -11.3 -13.0 -11.4 -13.15" fill="url(#gradient35)" fill-rule="evenodd" stroke="none"/>
    <path d="M-6.5 -7.6 L-7.2 -5.05 -7.45 -3.25 -7.6 -2.95 -7.6 -2.9 Q-8.9 -0.05 -11.1 -1.7 -12.4 -2.65 -12.65 -4.0 L-12.4 -6.55 -12.25 -7.1 -12.05 -7.95 -11.95 -7.85 -12.0 -8.35 -11.95 -10.3 Q-10.9 -6.15 -9.05 -6.3 -7.6 -6.15 -7.2 -9.2 L-6.95 -8.85 -6.8 -8.0 -6.5 -7.6 M-11.55 -12.55 L-11.4 -13.15 -11.3 -13.0 -11.55 -12.55" fill="url(#gradient36)" fill-rule="evenodd" stroke="none"/>
    <path d="M-11.95 -10.3 L-11.55 -12.55 -11.3 -13.0 -10.85 -13.35 Q-9.9 -10.6 -7.4 -11.5 L-7.2 -9.2 Q-7.6 -6.15 -9.05 -6.3 -10.9 -6.15 -11.95 -10.3" fill="url(#gradient37)" fill-rule="evenodd" stroke="none"/>
    <path d="M-5.75 -12.85 Q-5.15 -10.1 -6.5 -7.6 L-6.8 -8.0 -6.95 -8.85 -7.2 -9.2 -7.4 -11.5 -6.3 -12.8 -5.75 -12.85" fill="url(#gradient38)" fill-rule="evenodd" stroke="none"/>
    <path d="M-3.5 -11.25 L-3.3 -12.2 -2.45 -13.05 -2.3 -12.75 -2.3 -11.95 -2.95 -11.8 -3.5 -11.25" fill="url(#gradient39)" fill-rule="evenodd" stroke="none"/>
    <path d="M-7.6 -2.9 Q-7.4 2.5 -12.45 -1.0 -14.9 -5.35 -12.4 -6.55 L-12.65 -4.0 Q-12.4 -2.65 -11.1 -1.7 -8.9 -0.05 -7.6 -2.9 M-15.7 -3.65 L-16.95 -4.65 -17.1 -5.45 Q-15.75 -8.15 -13.45 -7.15 -16.3 -5.85 -15.7 -3.65" fill="url(#gradient40)" fill-rule="evenodd" stroke="none"/>
    <path d="M-12.45 -1.0 L-10.75 0.75 -12.6 -0.1 -14.3 -1.7 -15.7 -3.65 Q-16.3 -5.85 -13.45 -7.15 L-12.25 -7.1 -12.4 -6.55 Q-14.9 -5.35 -12.45 -1.0" fill="url(#gradient41)" fill-rule="evenodd" stroke="none"/>
    <path d="M-12.05 -7.95 L-12.0 -8.35 -11.95 -7.85 -12.05 -7.95" fill="url(#gradient42)" fill-rule="evenodd" stroke="none"/>
    <path d="M-7.45 -3.25 L-7.0 -2.55 -7.6 -2.95 -7.45 -3.25" fill="url(#gradient43)" fill-rule="evenodd" stroke="none"/>
  </g>
  <defs>
    <radialGradient cx="0" cy="0" gradientTransform="matrix(0.0088, 0.0, 0.0, 0.0088, -2.9, -47.4)" gradientUnits="userSpaceOnUse" id="gradient0" r="819.2" spreadMethod="pad">
      <stop offset="0.0" stop-color="#635c48"/>
      <stop offset="1.0" stop-color="#423e30"/>
    </radialGradient>
    <radialGradient cx="0" cy="0" gradientTransform="matrix(0.0074, 0.0, 0.0, 0.0074, 3.95, -48.85)" gradientUnits="userSpaceOnUse" id="gradient1" r="819.2" spreadMethod="pad">
      <stop offset="0.0" stop-color="#538cab"/>
      <stop offset="1.0" stop-color="#45758f"/>
    </radialGradient>
    <radialGradient cx="0" cy="0" gradientTransform="matrix(0.0654, 0.0, 0.0, 0.0654, -2.85, -35.2)" gradientUnits="userSpaceOnUse" id="gradient2" r="819.2" spreadMethod="pad">
      <stop offset="0.0" stop-color="#645d49"/>
      <stop offset="1.0" stop-color="#3e3a2e"/>
    </radialGradient>
    <radialGradient cx="0" cy="0" gradientTransform="matrix(0.007, 0.0, 0.0, 0.007, -4.0, -49.0)" gradientUnits="userSpaceOnUse" id="gradient3" r="819.2" spreadMethod="pad">
      <stop offset="0.0" stop-color="#625c47"/>
      <stop offset="1.0" stop-color="#423d30"/>
    </radialGradient>
    <radialGradient cx="0" cy="0" gradientTransform="matrix(0.0056, 0.0, 0.0, 0.0056, 9.5, -45.35)" gradientUnits="userSpaceOnUse" id="gradient4" r="819.2" spreadMethod="pad">
      <stop offset="0.0" stop-color="#3f3b2d"/>
      <stop offset="1.0" stop-color="#343126"/>
    </radialGradient>
    <radialGradient cx="0" cy="0" gradientTransform="matrix(0.0052, 0.0, 0.0, 0.0052, 1.55, -41.9)" gradientUnits="userSpaceOnUse" id="gradient5" r="819.2" spreadMethod="pad">
      <stop offset="0.0" stop-color="#928585"/>
      <stop offset="1.0" stop-color="#625959"/>
    </radialGradient>
    <radialGradient cx="0" cy="0" gradientTransform="matrix(0.0108, 0.0, 0.0, 0.0108, -3.05, -41.0)" gradientUnits="userSpaceOnUse" id="gradient6" r="819.2" spreadMethod="pad">
      <stop offset="0.0" stop-color="#928585"/>
      <stop offset="1.0" stop-color="#5b5353"/>
    </radialGradient>
    <radialGradient cx="0" cy="0" gradientTransform="matrix(0.0072, 0.0, 0.0, 0.0072, -0.3, -42.35)" gradientUnits="userSpaceOnUse" id="gradient7" r="819.2" spreadMethod="pad">
      <stop offset="0.0" stop-color="#918484"/>
      <stop offset="1.0" stop-color="#5d5656"/>
    </radialGradient>
    <radialGradient cx="0" cy="0" gradientTransform="matrix(0.0019, 0.0, 0.0, 0.0019, 2.2, -38.65)" gradientUnits="userSpaceOnUse" id="gradient8" r="819.2" spreadMethod="pad">
      <stop offset="0.0" stop-color="#5c5454"/>
      <stop offset="1.0" stop-color="#5c5454"/>
    </radialGradient>
    <radialGradient cx="0" cy="0" gradientTransform="matrix(0.0024, 0.0, 0.0, 0.0024, -0.3, -42.35)" gradientUnits="userSpaceOnUse" id="gradient9" r="819.2" spreadMethod="pad">
      <stop offset="0.0" stop-color="#5d5555"/>
      <stop offset="1.0" stop-color="#5c5454"/>
    </radialGradient>
    <radialGradient cx="0" cy="0" gradientTransform="matrix(0.0023, 0.0, 0.0, 0.0023, 4.05, -38.75)" gradientUnits="userSpaceOnUse" id="gradient10" r="819.2" spreadMethod="pad">
      <stop offset="0.0" stop-color="#1f1c1c"/>
      <stop offset="1.0" stop-color="#1e1b1b"/>
    </radialGradient>
    <radialGradient cx="0" cy="0" gradientTransform="matrix(0.049, 0.0, 0.0, 0.049, 2.75, -39.5)" gradientUnits="userSpaceOnUse" id="gradient11" r="819.2" spreadMethod="pad">
      <stop offset="0.0" stop-color="#7a6f6f"/>
      <stop offset="1.0" stop-color="#5a5252"/>
    </radialGradient>
    <radialGradient cx="0" cy="0" gradientTransform="matrix(0.0119, 0.0, 0.0, 0.0119, -8.0, -31.45)" gradientUnits="userSpaceOnUse" id="gradient12" r="819.2" spreadMethod="pad">
      <stop offset="0.0" stop-color="#635c48"/>
      <stop offset="1.0" stop-color="#444031"/>
    </radialGradient>
    <radialGradient cx="0" cy="0" gradientTransform="matrix(0.004, 0.0, 0.0, 0.004, -1.25, -25.95)" gradientUnits="userSpaceOnUse" id="gradient13" r="819.2" spreadMethod="pad">
      <stop offset="0.0" stop-color="#ffcf78"/>
      <stop offset="1.0" stop-color="#d79758"/>
    </radialGradient>
    <radialGradient cx="0" cy="0" gradientTransform="matrix(0.0075, 0.0, 0.0, 0.0075, -2.1, -25.05)" gradientUnits="userSpaceOnUse" id="gradient14" r="819.2" spreadMethod="pad">
      <stop offset="0.0" stop-color="#ffca76"/>
      <stop offset="1.0" stop-color="#865f37"/>
    </radialGradient>
    <radialGradient cx="0" cy="0" gradientTransform="matrix(0.0047, 0.0, 0.0, 0.0047, -0.3, -23.4)" gradientUnits="userSpaceOnUse" id="gradient15" r="819.2" spreadMethod="pad">
      <stop offset="0.0" stop-color="#ffda7f"/>
      <stop offset="1.0" stop-color="#b9834c"/>
    </radialGradient>
    <radialGradient cx="0" cy="0" gradientTransform="matrix(0.0041, 0.0, 0.0, 0.0041, -0.3, -21.15)" gradientUnits="userSpaceOnUse" id="gradient16" r="819.2" spreadMethod="pad">
      <stop offset="0.0" stop-color="#6db9e1"/>
      <stop offset="1.0" stop-color="#44738d"/>
    </radialGradient>
    <radialGradient cx="0" cy="0" gradientTransform="matrix(0.006, 0.0, 0.0, 0.006, -5.2, -21.65)" gradientUnits="userSpaceOnUse" id="gradient17" r="819.2" spreadMethod="pad">
      <stop offset="0.0" stop-color="#bd854d"/>
      <stop offset="1.0" stop-color="#72512f"/>
    </radialGradient>
    <radialGradient cx="0" cy="0" gradientTransform="matrix(0.0099, 0.0, 0.0, 0.0099, -1.95, -18.45)" gradientUnits="userSpaceOnUse" id="gradient18" r="819.2" spreadMethod="pad">
      <stop offset="0.0" stop-color="#615b46"/>
      <stop offset="1.0" stop-color="#2e2c22"/>
    </radialGradient>
    <radialGradient cx="0" cy="0" gradientTransform="matrix(0.0038, 0.0, 0.0, 0.0038, -1.3, -10.85)" gradientUnits="userSpaceOnUse" id="gradient19" r="819.2" spreadMethod="pad">
      <stop offset="0.0" stop-color="#6b644d"/>
      <stop offset="1.0" stop-color="#333025"/>
    </radialGradient>
    <radialGradient cx="0" cy="0" gradientTransform="matrix(0.0019, 0.0, 0.0, 0.0019, 14.5, 4.2)" gradientUnits="userSpaceOnUse" id="gradient20" r="819.2" spreadMethod="pad">
      <stop offset="0.0" stop-color="#0e181e"/>
      <stop offset="1.0" stop-color="#0e181e"/>
    </radialGradient>
    <radialGradient cx="0" cy="0" gradientTransform="matrix(0.0018, 0.0, 0.0, 0.0018, 13.25, 4.9)" gradientUnits="userSpaceOnUse" id="gradient21" r="819.2" spreadMethod="pad">
      <stop offset="0.0" stop-color="#57523f"/>
      <stop offset="1.0" stop-color="#322f24"/>
    </radialGradient>
    <radialGradient cx="0" cy="0" gradientTransform="matrix(0.0123, 0.0, 0.0, 0.0123, -5.05, -61.8)" gradientUnits="userSpaceOnUse" id="gradient22" r="819.2" spreadMethod="pad">
      <stop offset="0.0" stop-color="#a59b2e"/>
      <stop offset="1.0" stop-color="#8a8227"/>
    </radialGradient>
    <radialGradient cx="0" cy="0" gradientTransform="matrix(0.0125, 0.0, 0.0, 0.0125, -4.0, -45.5)" gradientUnits="userSpaceOnUse" id="gradient23" r="819.2" spreadMethod="pad">
      <stop offset="0.0" stop-color="#595340"/>
      <stop offset="1.0" stop-color="#514c3b"/>
    </radialGradient>
    <radialGradient cx="0" cy="0" gradientTransform="matrix(0.0082, 0.0, 0.0, 0.0082, -8.0, -50.4)" gradientUnits="userSpaceOnUse" id="gradient24" r="819.2" spreadMethod="pad">
      <stop offset="0.0" stop-color="#474233"/>
      <stop offset="1.0" stop-color="#3a362a"/>
    </radialGradient>
    <radialGradient cx="0" cy="0" gradientTransform="matrix(0.0123, 0.0, 0.0, 0.0123, -5.05, -61.8)" gradientUnits="userSpaceOnUse" id="gradient25" r="819.2" spreadMethod="pad">
      <stop offset="0.0" stop-color="#afa531"/>
      <stop offset="1.0" stop-color="#988f2a"/>
    </radialGradient>
    <radialGradient cx="0" cy="0" gradientTransform="matrix(0.0028, 0.0, 0.0, 0.0028, -7.3, -45.7)" gradientUnits="userSpaceOnUse" id="gradient26" r="819.2" spreadMethod="pad">
      <stop offset="0.0" stop-color="#b5804a"/>
      <stop offset="1.0" stop-color="#8c6339"/>
    </radialGradient>
    <radialGradient cx="0" cy="0" gradientTransform="matrix(0.0028, 0.0, 0.0, 0.0028, -8.15, -40.5)" gradientUnits="userSpaceOnUse" id="gradient27" r="819.2" spreadMethod="pad">
      <stop offset="0.0" stop-color="#464233"/>
      <stop offset="1.0" stop-color="#3e3a2d"/>
    </radialGradient>
    <radialGradient cx="0" cy="0" gradientTransform="matrix(0.0123, 0.0, 0.0, 0.0123, -5.8, -31.3)" gradientUnits="userSpaceOnUse" id="gradient28" r="819.2" spreadMethod="pad">
      <stop offset="0.0" stop-color="#73c3ee"/>
      <stop offset="1.0" stop-color="#4e85a3"/>
    </radialGradient>
    <radialGradient cx="0" cy="0" gradientTransform="matrix(0.002, 0.0, 0.0, 0.002, -12.5, -32.55)" gradientUnits="userSpaceOnUse" id="gradient29" r="819.2" spreadMethod="pad">
      <stop offset="0.0" stop-color="#45758f"/>
      <stop offset="1.0" stop-color="#0e181e"/>
    </radialGradient>
    <radialGradient cx="0" cy="0" gradientTransform="matrix(0.0442, 0.0, 0.0, 0.0442, -38.65, -32.85)" gradientUnits="userSpaceOnUse" id="gradient30" r="819.2" spreadMethod="pad">
      <stop offset="0.0" stop-color="#404040"/>
      <stop offset="1.0" stop-color="#3f3f3f"/>
    </radialGradient>
    <radialGradient cx="0" cy="0" gradientTransform="matrix(0.0032, 0.0, 0.0, 0.0032, -5.35, -20.25)" gradientUnits="userSpaceOnUse" id="gradient31" r="819.2" spreadMethod="pad">
      <stop offset="0.0" stop-color="#302d23"/>
      <stop offset="1.0" stop-color="#181712"/>
    </radialGradient>
    <radialGradient cx="0" cy="0" gradientTransform="matrix(0.0071, 0.0, 0.0, 0.0071, -4.5, -18.35)" gradientUnits="userSpaceOnUse" id="gradient32" r="819.2" spreadMethod="pad">
      <stop offset="0.0" stop-color="#273e53"/>
      <stop offset="1.0" stop-color="#14202a"/>
    </radialGradient>
    <radialGradient cx="0" cy="0" gradientTransform="matrix(0.0143, 0.0, 0.0, 0.0143, -6.0, -22.7)" gradientUnits="userSpaceOnUse" id="gradient33" r="819.2" spreadMethod="pad">
      <stop offset="0.0" stop-color="#35536f"/>
      <stop offset="1.0" stop-color="#1a2937"/>
    </radialGradient>
    <radialGradient cx="0" cy="0" gradientTransform="matrix(0.0044, 0.0, 0.0, 0.0044, -10.6, -23.2)" gradientUnits="userSpaceOnUse" id="gradient34" r="819.2" spreadMethod="pad">
      <stop offset="0.0" stop-color="#403c2f"/>
      <stop offset="1.0" stop-color="#312e23"/>
    </radialGradient>
    <radialGradient cx="0" cy="0" gradientTransform="matrix(0.0037, 0.0, 0.0, 0.0037, -11.35, -15.8)" gradientUnits="userSpaceOnUse" id="gradient35" r="819.2" spreadMethod="pad">
      <stop offset="0.0" stop-color="#4c819e"/>
      <stop offset="1.0" stop-color="#385f74"/>
    </radialGradient>
    <radialGradient cx="0" cy="0" gradientTransform="matrix(0.0124, 0.0, 0.0, 0.0124, -7.8, -10.75)" gradientUnits="userSpaceOnUse" id="gradient36" r="819.2" spreadMethod="pad">
      <stop offset="0.0" stop-color="#474234"/>
      <stop offset="1.0" stop-color="#232119"/>
    </radialGradient>
    <radialGradient cx="0" cy="0" gradientTransform="matrix(0.0076, 0.0, 0.0, 0.0076, -9.2, -12.45)" gradientUnits="userSpaceOnUse" id="gradient37" r="819.2" spreadMethod="pad">
      <stop offset="0.0" stop-color="#645e49"/>
      <stop offset="1.0" stop-color="#29271e"/>
    </radialGradient>
    <radialGradient cx="0" cy="0" gradientTransform="matrix(0.0068, 0.0, 0.0, 0.0068, -7.05, -12.75)" gradientUnits="userSpaceOnUse" id="gradient38" r="819.2" spreadMethod="pad">
      <stop offset="0.0" stop-color="#57513f"/>
      <stop offset="1.0" stop-color="#2a271e"/>
    </radialGradient>
    <radialGradient cx="0" cy="0" gradientTransform="matrix(0.0026, 0.0, 0.0, 0.0026, -2.05, -12.6)" gradientUnits="userSpaceOnUse" id="gradient39" r="819.2" spreadMethod="pad">
      <stop offset="0.0" stop-color="#655e49"/>
      <stop offset="1.0" stop-color="#423d30"/>
    </radialGradient>
    <radialGradient cx="0" cy="0" gradientTransform="matrix(0.0065, 0.0, 0.0, 0.0065, -12.35, -3.35)" gradientUnits="userSpaceOnUse" id="gradient40" r="819.2" spreadMethod="pad">
      <stop offset="0.0" stop-color="#635d48"/>
      <stop offset="1.0" stop-color="#433e30"/>
    </radialGradient>
    <radialGradient cx="0" cy="0" gradientTransform="matrix(0.0081, 0.0, 0.0, 0.0081, -14.8, -4.7)" gradientUnits="userSpaceOnUse" id="gradient41" r="819.2" spreadMethod="pad">
      <stop offset="0.0" stop-color="#65abd1"/>
      <stop offset="1.0" stop-color="#477892"/>
    </radialGradient>
    <radialGradient cx="0" cy="0" gradientTransform="matrix(0.0062, 0.0, 0.0, 0.0062, -12.05, -9.75)" gradientUnits="userSpaceOnUse" id="gradient42" r="819.2" spreadMethod="pad">
      <stop offset="0.0" stop-color="#363327"/>
      <stop offset="1.0" stop-color="#0c0c09"/>
    </radialGradient>
    <radialGradient cx="0" cy="0" gradientTransform="matrix(0.0023, 0.0, 0.0, 0.0023, -7.35, -2.85)" gradientUnits="userSpaceOnUse" id="gradient43" r="819.2" spreadMethod="pad">
      <stop offset="0.0" stop-color="#0e181e"/>
      <stop offset="1.0" stop-color="#0e181e"/>
    </radialGradient>
  </defs>
</svg>
