<?xml version="1.0" encoding="UTF-8" standalone="no"?>
<svg xmlns:ffdec="https://www.free-decompiler.com/flash" xmlns:xlink="http://www.w3.org/1999/xlink" ffdec:objectType="shape" height="74.8px" width="48.7px" xmlns="http://www.w3.org/2000/svg">
  <g transform="matrix(1.0, 0.0, 0.0, 1.0, 14.85, 63.55)">
    <path d="M6.35 -57.15 L5.35 -63.55 5.4 -63.55 5.4 -63.4 5.5 -63.35 5.95 -62.1 8.0 -55.85 6.65 -56.85 6.55 -57.0 6.4 -57.05 6.35 -57.15" fill="url(#gradient0)" fill-rule="evenodd" stroke="none"/>
    <path d="M5.95 -62.1 L8.4 -55.9 8.5 -54.9 8.0 -55.85 5.95 -62.1" fill="url(#gradient1)" fill-rule="evenodd" stroke="none"/>
    <path d="M8.5 -54.9 Q11.2 -49.7 8.65 -47.4 L8.45 -47.25 7.6 -46.6 7.4 -46.55 7.0 -47.15 5.8 -47.6 6.05 -48.0 6.4 -48.3 Q10.1 -52.05 6.65 -56.85 L8.0 -55.85 8.5 -54.9" fill="url(#gradient2)" fill-rule="evenodd" stroke="none"/>
    <path d="M0.5 -54.5 Q2.95 -58.05 6.35 -57.15 L6.4 -57.05 6.55 -57.0 6.65 -56.85 Q10.1 -52.05 6.4 -48.3 8.65 -50.75 7.0 -54.3 5.1 -57.55 0.5 -54.5" fill="url(#gradient3)" fill-rule="evenodd" stroke="none"/>
    <path d="M-1.25 -51.3 Q-2.5 -51.0 0.5 -54.5 5.1 -57.55 7.0 -54.3 8.65 -50.75 6.4 -48.3 L6.05 -48.0 5.8 -47.6 5.2 -47.45 -1.25 -51.3" fill="url(#gradient4)" fill-rule="evenodd" stroke="none"/>
    <path d="M13.4 -19.95 L30.85 -28.95 33.85 -28.75 31.7 -25.6 14.7 -15.4 16.2 -18.15 13.4 -19.95" fill="url(#gradient5)" fill-rule="evenodd" stroke="none"/>
    <path d="M8.65 -47.4 Q9.75 -46.4 9.8 -42.85 L9.55 -42.15 Q8.5 -44.35 3.0 -40.7 L1.35 -40.7 1.0 -41.15 1.9 -41.35 3.0 -43.05 3.0 -43.25 Q7.15 -44.55 7.55 -46.15 L8.0 -46.3 8.25 -46.6 8.45 -47.25 8.65 -47.4 M-2.75 -46.6 L-2.8 -46.55 -3.75 -45.7 -3.8 -44.85 -3.85 -44.85 -4.3 -45.8 Q-4.15 -45.55 -3.0 -48.2 L-2.5 -48.6 -2.75 -47.8 -2.75 -46.6" fill="url(#gradient6)" fill-rule="evenodd" stroke="none"/>
    <path d="M8.45 -47.25 L8.25 -46.6 8.0 -46.3 7.55 -46.15 7.6 -46.6 8.45 -47.25" fill="url(#gradient7)" fill-rule="evenodd" stroke="none"/>
    <path d="M-2.15 -49.7 L-1.25 -51.3 5.2 -47.45 5.8 -47.6 7.0 -47.15 7.4 -46.55 7.6 -46.6 7.55 -46.15 Q7.15 -44.55 3.0 -43.25 -3.0 -44.1 -2.75 -46.55 L-2.75 -46.6 -2.75 -47.8 -2.5 -48.6 -2.25 -49.45 -2.15 -49.7" fill="url(#gradient8)" fill-rule="evenodd" stroke="none"/>
    <path d="M3.0 -43.25 L3.0 -43.05 1.85 -42.0 1.9 -41.35 1.0 -41.15 Q0.1 -40.65 -2.25 -41.95 L-3.35 -43.2 -3.6 -43.3 -3.75 -43.8 -3.75 -43.85 -3.8 -44.7 -3.8 -44.85 -3.75 -45.7 -2.8 -46.55 -2.75 -46.55 Q-3.0 -44.1 3.0 -43.25" fill="url(#gradient9)" fill-rule="evenodd" stroke="none"/>
    <path d="M8.5 3.55 L10.4 7.05 13.7 10.85 Q-0.9 13.6 -11.3 -2.05 L-11.9 -3.3 -13.0 -10.25 Q-13.9 -24.45 -13.6 -24.6 L-14.8 -33.95 Q-14.95 -36.8 -14.45 -37.8 L-12.9 -41.05 -11.8 -43.2 -11.7 -43.7 Q-10.0 -49.65 -2.25 -49.45 L-2.5 -48.6 -3.0 -48.2 Q-4.15 -45.55 -4.3 -45.8 L-3.85 -44.85 -3.8 -44.7 -3.75 -43.85 -3.8 -43.8 -4.0 -43.8 -4.8 -42.35 -4.4 -40.75 Q-5.55 -40.15 -6.3 -35.15 L-6.45 -28.75 -5.45 -14.35 -5.45 -4.2 -4.8 -2.25 -4.5 -2.25 -4.2 -2.85 -3.35 -6.5 -2.75 -14.35 -2.4 -32.5 Q-1.65 -36.9 -0.5 -38.5 L0.55 -38.9 1.35 -40.35 1.35 -40.7 3.0 -40.7 Q8.5 -44.35 9.55 -42.15 9.8 -41.6 8.25 -34.5 L6.85 -31.1 6.85 -30.9 7.05 -30.95 5.35 -27.5 5.2 -27.25 Q3.35 -24.55 4.5 -19.55 L4.65 -18.1 5.4 -14.6 4.9 -14.35 3.6 -13.55 Q2.35 -11.6 4.45 -10.4 L5.8 -11.15 5.95 -11.0 6.2 -8.9 6.75 -3.9 7.05 -1.3 8.5 3.55" fill="url(#gradient10)" fill-rule="evenodd" stroke="none"/>
    <path d="M1.0 -41.15 L1.35 -40.7 1.35 -40.35 1.0 -40.4 0.3 -38.9 -1.15 -38.4 -3.55 -39.65 Q-4.55 -40.55 -4.4 -40.75 L-4.8 -42.35 -4.0 -43.8 -3.8 -43.8 -3.75 -43.8 -3.6 -43.3 -3.35 -43.2 -2.25 -41.95 Q0.1 -40.65 1.0 -41.15" fill="url(#gradient11)" fill-rule="evenodd" stroke="none"/>
    <path d="M0.3 -38.9 L1.0 -40.4 1.35 -40.35 0.55 -38.9 0.3 -38.9" fill="url(#gradient12)" fill-rule="evenodd" stroke="none"/>
    <path d="M3.0 -43.05 L1.9 -41.35 1.85 -42.0 3.0 -43.05" fill="url(#gradient13)" fill-rule="evenodd" stroke="none"/>
    <path d="M0.3 -38.9 L0.55 -38.9 -0.5 -38.5 -1.15 -38.4 0.3 -38.9" fill="url(#gradient14)" fill-rule="evenodd" stroke="none"/>
    <path d="M9.8 -42.85 L13.1 -39.9 15.95 -36.55 17.0 -34.75 16.85 -33.75 16.6 -33.55 Q16.25 -32.15 7.25 -31.15 L7.05 -30.95 6.85 -30.9 6.85 -31.1 8.25 -34.5 Q9.8 -41.6 9.55 -42.15 L9.8 -42.85" fill="url(#gradient15)" fill-rule="evenodd" stroke="none"/>
    <path d="M16.6 -33.55 Q21.55 -24.1 12.8 -24.95 L12.55 -24.95 9.6 -25.6 7.2 -26.6 5.65 -27.4 5.35 -27.5 7.05 -30.95 7.25 -31.15 Q16.25 -32.15 16.6 -33.55" fill="url(#gradient16)" fill-rule="evenodd" stroke="none"/>
    <path d="M5.35 -27.5 L5.65 -27.4 5.6 -27.2 5.2 -27.25 5.35 -27.5" fill="url(#gradient17)" fill-rule="evenodd" stroke="none"/>
    <path d="M5.6 -27.2 L5.65 -27.4 7.2 -26.6 7.0 -25.1 6.6 -24.9 6.2 -24.15 5.85 -22.6 Q5.25 -23.8 5.3 -24.9 L5.6 -27.2" fill="url(#gradient18)" fill-rule="evenodd" stroke="none"/>
    <path d="M5.85 -22.6 L6.2 -24.15 6.6 -24.9 7.0 -25.1 7.8 -22.05 6.8 -20.75 6.55 -20.75 6.15 -21.25 5.85 -22.6" fill="url(#gradient19)" fill-rule="evenodd" stroke="none"/>
    <path d="M5.2 -27.25 L5.6 -27.2 5.3 -24.9 Q5.25 -23.8 5.85 -22.6 L6.15 -21.25 6.05 -21.2 6.0 -21.15 5.8 -20.8 4.5 -19.55 Q3.35 -24.55 5.2 -27.25" fill="url(#gradient20)" fill-rule="evenodd" stroke="none"/>
    <path d="M7.2 -26.6 L9.6 -25.6 12.55 -24.95 Q11.95 -21.85 9.95 -20.95 L9.75 -20.95 9.45 -20.95 8.8 -21.15 7.8 -22.05 7.0 -25.1 7.2 -26.6" fill="url(#gradient21)" fill-rule="evenodd" stroke="none"/>
    <path d="M12.8 -24.95 L11.95 -22.25 10.9 -20.65 10.55 -20.4 9.95 -20.95 Q11.95 -21.85 12.55 -24.95 L12.8 -24.95 M9.75 -20.95 L9.45 -20.8 9.45 -20.95 9.75 -20.95" fill="url(#gradient22)" fill-rule="evenodd" stroke="none"/>
    <path d="M10.9 -20.65 L11.1 -19.75 11.15 -19.25 10.55 -20.4 10.9 -20.65 M12.25 -12.95 L12.55 -10.0 10.9 -12.1 12.15 -13.55 12.25 -12.95 M11.2 -18.9 L11.35 -18.75 11.2 -18.75 11.2 -18.9" fill="url(#gradient23)" fill-rule="evenodd" stroke="none"/>
    <path d="M11.1 -19.75 L12.6 -20.4 13.4 -19.95 16.2 -18.15 14.7 -15.4 13.75 -13.8 12.25 -12.95 12.15 -13.55 10.9 -12.1 10.55 -12.0 10.75 -12.5 10.75 -13.6 10.5 -14.35 10.15 -14.75 11.2 -17.3 11.2 -18.75 11.35 -18.75 11.2 -18.9 11.15 -19.25 11.1 -19.75" fill="url(#gradient24)" fill-rule="evenodd" stroke="none"/>
    <path d="M10.55 -20.4 L11.15 -19.25 11.2 -18.9 11.2 -18.75 11.2 -17.3 10.15 -14.75 10.0 -14.35 9.9 -12.95 9.6 -12.55 8.45 -11.8 7.4 -12.45 7.05 -12.45 6.15 -15.0 6.05 -15.2 6.05 -15.3 5.65 -17.1 5.75 -18.7 5.85 -19.25 5.8 -19.3 5.8 -20.8 6.0 -21.15 6.05 -21.15 Q6.9 -17.35 9.45 -20.8 L9.75 -20.95 9.95 -20.95 10.55 -20.4" fill="url(#gradient25)" fill-rule="evenodd" stroke="none"/>
    <path d="M10.55 -12.0 L9.9 -11.0 Q9.35 -10.45 8.4 -10.25 L8.0 -10.25 7.8 -10.25 6.85 -10.4 5.95 -11.0 5.8 -11.15 6.8 -11.75 7.05 -12.45 7.4 -12.45 8.45 -11.8 9.6 -12.55 9.9 -12.95 10.0 -14.35 10.15 -14.75 10.5 -14.35 10.75 -13.6 10.75 -12.5 10.55 -12.0 M6.05 -15.2 L6.15 -15.0 5.55 -14.7 6.0 -15.2 6.05 -15.2" fill="url(#gradient26)" fill-rule="evenodd" stroke="none"/>
    <path d="M6.15 -21.25 L6.55 -20.75 6.8 -20.75 7.8 -22.05 8.8 -21.15 9.45 -20.95 9.45 -20.8 Q6.9 -17.35 6.05 -21.15 L6.05 -21.2 6.15 -21.25" fill="url(#gradient27)" fill-rule="evenodd" stroke="none"/>
    <path d="M6.05 -21.15 L6.0 -21.15 6.05 -21.2 6.05 -21.15 M5.8 -19.3 L5.85 -19.25 5.75 -18.7 5.8 -19.3 M6.05 -15.3 L6.05 -15.2 6.0 -15.2 6.05 -15.3" fill="url(#gradient28)" fill-rule="evenodd" stroke="none"/>
    <path d="M5.8 -20.8 L5.8 -19.3 5.75 -18.7 5.65 -17.1 6.05 -15.3 6.0 -15.2 5.55 -14.7 5.4 -14.6 4.65 -18.1 4.5 -19.55 5.8 -20.8 M5.95 -11.0 L6.85 -10.4 7.8 -10.25 7.0 -9.35 6.2 -8.9 5.95 -11.0" fill="url(#gradient29)" fill-rule="evenodd" stroke="none"/>
    <path d="M6.15 -15.0 L7.05 -12.45 6.8 -11.75 5.8 -11.15 4.45 -10.4 Q5.35 -12.15 3.6 -13.55 L4.9 -14.35 5.4 -14.6 5.55 -14.7 6.15 -15.0" fill="url(#gradient30)" fill-rule="evenodd" stroke="none"/>
    <path d="M8.4 -10.25 L8.1 -9.85 8.0 -10.25 8.4 -10.25" fill="url(#gradient31)" fill-rule="evenodd" stroke="none"/>
    <path d="M8.1 -9.85 L8.25 -7.95 7.8 -5.7 7.6 -5.05 6.75 -3.9 6.2 -8.9 7.0 -9.35 7.8 -10.25 8.0 -10.25 8.1 -9.85" fill="url(#gradient32)" fill-rule="evenodd" stroke="none"/>
    <path d="M7.8 -5.7 L7.2 -1.9 7.05 -1.3 6.75 -3.9 7.6 -5.05 7.8 -5.7" fill="url(#gradient33)" fill-rule="evenodd" stroke="none"/>
    <path d="M7.2 -1.9 L7.4 -1.9 Q7.9 -2.0 8.8 -1.25 L9.6 0.05 9.8 0.5 9.75 1.8 9.25 2.75 8.5 3.55 7.05 -1.3 7.2 -1.9" fill="url(#gradient34)" fill-rule="evenodd" stroke="none"/>
    <path d="M7.4 -1.9 L8.5 -2.25 9.8 -1.95 10.4 -0.85 11.35 -0.05 11.15 0.7 9.75 1.8 9.8 0.5 9.6 0.05 8.8 -1.25 Q7.9 -2.0 7.4 -1.9" fill="url(#gradient35)" fill-rule="evenodd" stroke="none"/>
    <path d="M3.6 -13.55 Q5.35 -12.15 4.45 -10.4 2.35 -11.6 3.6 -13.55" fill="url(#gradient36)" fill-rule="evenodd" stroke="none"/>
    <path d="M-2.75 -46.6 L-2.75 -46.55 -2.8 -46.55 -2.75 -46.6" fill="url(#gradient37)" fill-rule="evenodd" stroke="none"/>
    <path d="M-3.8 -44.85 L-3.8 -44.7 -3.85 -44.85 -3.8 -44.85 M-3.75 -43.85 L-3.75 -43.8 -3.8 -43.8 -3.75 -43.85" fill="url(#gradient38)" fill-rule="evenodd" stroke="none"/>
    <path d="M-1.15 -38.4 L-0.5 -38.5 Q-1.65 -36.9 -2.4 -32.5 L-2.75 -14.35 -3.35 -6.5 -4.2 -2.85 -4.5 -2.25 -4.8 -2.25 -5.45 -4.2 -5.45 -14.35 -6.45 -28.75 -6.3 -35.15 Q-5.55 -40.15 -4.4 -40.75 -4.55 -40.55 -3.55 -39.65 L-1.15 -38.4" fill="url(#gradient39)" fill-rule="evenodd" stroke="none"/>
    <path d="M-12.1 -46.6 Q-10.6 -52.35 -2.15 -49.7 L-2.25 -49.45 Q-10.0 -49.65 -11.7 -43.7 L-12.1 -46.6" fill="url(#gradient40)" fill-rule="evenodd" stroke="none"/>
    <path d="M-12.9 -41.05 Q-14.85 -42.25 -12.1 -46.6 L-11.7 -43.7 -11.8 -43.2 -12.9 -41.05" fill="url(#gradient41)" fill-rule="evenodd" stroke="none"/>
  </g>
  <defs>
    <radialGradient cx="0" cy="0" gradientTransform="matrix(0.0125, 0.0, 0.0, 0.0125, 5.25, -63.85)" gradientUnits="userSpaceOnUse" id="gradient0" r="819.2" spreadMethod="pad">
      <stop offset="0.0" stop-color="#a59b2e"/>
      <stop offset="1.0" stop-color="#8b8227"/>
    </radialGradient>
    <radialGradient cx="0" cy="0" gradientTransform="matrix(0.0125, 0.0, 0.0, 0.0125, 5.25, -63.85)" gradientUnits="userSpaceOnUse" id="gradient1" r="819.2" spreadMethod="pad">
      <stop offset="0.0" stop-color="#b0a631"/>
      <stop offset="1.0" stop-color="#998f2a"/>
    </radialGradient>
    <radialGradient cx="0" cy="0" gradientTransform="matrix(0.0077, 0.0, 0.0, 0.0077, 8.3, -52.25)" gradientUnits="userSpaceOnUse" id="gradient2" r="819.2" spreadMethod="pad">
      <stop offset="0.0" stop-color="#474334"/>
      <stop offset="1.0" stop-color="#3c382b"/>
    </radialGradient>
    <radialGradient cx="0" cy="0" gradientTransform="matrix(0.0107, 0.0, 0.0, 0.0107, 5.8, -48.85)" gradientUnits="userSpaceOnUse" id="gradient3" r="819.2" spreadMethod="pad">
      <stop offset="0.0" stop-color="#57513f"/>
      <stop offset="1.0" stop-color="#504b3a"/>
    </radialGradient>
    <radialGradient cx="0" cy="0" gradientTransform="matrix(0.0076, 0.0, 0.0, 0.0076, 2.65, -51.45)" gradientUnits="userSpaceOnUse" id="gradient4" r="819.2" spreadMethod="pad">
      <stop offset="0.0" stop-color="#615a46"/>
      <stop offset="1.0" stop-color="#494435"/>
    </radialGradient>
    <radialGradient cx="0" cy="0" gradientTransform="matrix(0.0308, 0.0, 0.0, 0.0308, 10.7, -18.7)" gradientUnits="userSpaceOnUse" id="gradient5" r="819.2" spreadMethod="pad">
      <stop offset="0.0" stop-color="#bcbcbc"/>
      <stop offset="1.0" stop-color="#afafaf"/>
    </radialGradient>
    <radialGradient cx="0" cy="0" gradientTransform="matrix(0.0109, 0.0, 0.0, 0.0109, 3.55, -42.95)" gradientUnits="userSpaceOnUse" id="gradient6" r="819.2" spreadMethod="pad">
      <stop offset="0.0" stop-color="#918484"/>
      <stop offset="1.0" stop-color="#5b5353"/>
    </radialGradient>
    <radialGradient cx="0" cy="0" gradientTransform="matrix(0.002, 0.0, 0.0, 0.002, 8.0, -47.6)" gradientUnits="userSpaceOnUse" id="gradient7" r="819.2" spreadMethod="pad">
      <stop offset="0.0" stop-color="#bc854d"/>
      <stop offset="1.0" stop-color="#a27242"/>
    </radialGradient>
    <radialGradient cx="0" cy="0" gradientTransform="matrix(0.0103, 0.0, 0.0, 0.0103, 3.05, -50.6)" gradientUnits="userSpaceOnUse" id="gradient8" r="819.2" spreadMethod="pad">
      <stop offset="0.0" stop-color="#615b47"/>
      <stop offset="1.0" stop-color="#433f30"/>
    </radialGradient>
    <radialGradient cx="0" cy="0" gradientTransform="matrix(0.0081, 0.0, 0.0, 0.0081, 1.65, -42.0)" gradientUnits="userSpaceOnUse" id="gradient9" r="819.2" spreadMethod="pad">
      <stop offset="0.0" stop-color="#908383"/>
      <stop offset="1.0" stop-color="#635a5a"/>
    </radialGradient>
    <radialGradient cx="0" cy="0" gradientTransform="matrix(0.0615, 0.0, 0.0, 0.0615, 6.95, -38.6)" gradientUnits="userSpaceOnUse" id="gradient10" r="819.2" spreadMethod="pad">
      <stop offset="0.0" stop-color="#625c47"/>
      <stop offset="1.0" stop-color="#343126"/>
    </radialGradient>
    <radialGradient cx="0" cy="0" gradientTransform="matrix(0.0074, 0.0, 0.0, 0.0074, 0.95, -40.5)" gradientUnits="userSpaceOnUse" id="gradient11" r="819.2" spreadMethod="pad">
      <stop offset="0.0" stop-color="#908383"/>
      <stop offset="1.0" stop-color="#655c5c"/>
    </radialGradient>
    <radialGradient cx="0" cy="0" gradientTransform="matrix(0.0023, 0.0, 0.0, 0.0023, 0.2, -39.05)" gradientUnits="userSpaceOnUse" id="gradient12" r="819.2" spreadMethod="pad">
      <stop offset="0.0" stop-color="#5a5252"/>
      <stop offset="1.0" stop-color="#5a5252"/>
    </radialGradient>
    <radialGradient cx="0" cy="0" gradientTransform="matrix(0.0021, 0.0, 0.0, 0.0021, 1.65, -42.0)" gradientUnits="userSpaceOnUse" id="gradient13" r="819.2" spreadMethod="pad">
      <stop offset="0.0" stop-color="#5b5353"/>
      <stop offset="1.0" stop-color="#5b5353"/>
    </radialGradient>
    <radialGradient cx="0" cy="0" gradientTransform="matrix(0.0019, 0.0, 0.0, 0.0019, 0.2, -39.05)" gradientUnits="userSpaceOnUse" id="gradient14" r="819.2" spreadMethod="pad">
      <stop offset="0.0" stop-color="#1e1c1c"/>
      <stop offset="1.0" stop-color="#1a1818"/>
    </radialGradient>
    <radialGradient cx="0" cy="0" gradientTransform="matrix(0.0145, 0.0, 0.0, 0.0145, 11.55, -32.0)" gradientUnits="userSpaceOnUse" id="gradient15" r="819.2" spreadMethod="pad">
      <stop offset="0.0" stop-color="#72c1eb"/>
      <stop offset="1.0" stop-color="#528aa9"/>
    </radialGradient>
    <radialGradient cx="0" cy="0" gradientTransform="matrix(0.0136, 0.0, 0.0, 0.0136, 10.95, -35.2)" gradientUnits="userSpaceOnUse" id="gradient16" r="819.2" spreadMethod="pad">
      <stop offset="0.0" stop-color="#635d48"/>
      <stop offset="1.0" stop-color="#4c4837"/>
    </radialGradient>
    <radialGradient cx="0" cy="0" gradientTransform="matrix(0.0015, 0.0, 0.0, 0.0015, 6.0, -27.2)" gradientUnits="userSpaceOnUse" id="gradient17" r="819.2" spreadMethod="pad">
      <stop offset="0.0" stop-color="#1b2a38"/>
      <stop offset="1.0" stop-color="#15212d"/>
    </radialGradient>
    <radialGradient cx="0" cy="0" gradientTransform="matrix(0.0071, 0.0, 0.0, 0.0071, 7.45, -27.55)" gradientUnits="userSpaceOnUse" id="gradient18" r="819.2" spreadMethod="pad">
      <stop offset="0.0" stop-color="#ffce78"/>
      <stop offset="1.0" stop-color="#a67544"/>
    </radialGradient>
    <radialGradient cx="0" cy="0" gradientTransform="matrix(0.0049, 0.0, 0.0, 0.0049, 7.15, -24.75)" gradientUnits="userSpaceOnUse" id="gradient19" r="819.2" spreadMethod="pad">
      <stop offset="0.0" stop-color="#ffd77d"/>
      <stop offset="1.0" stop-color="#a87645"/>
    </radialGradient>
    <radialGradient cx="0" cy="0" gradientTransform="matrix(0.0105, 0.0, 0.0, 0.0105, 4.0, -27.85)" gradientUnits="userSpaceOnUse" id="gradient20" r="819.2" spreadMethod="pad">
      <stop offset="0.0" stop-color="#69624c"/>
      <stop offset="1.0" stop-color="#353126"/>
    </radialGradient>
    <radialGradient cx="0" cy="0" gradientTransform="matrix(0.0072, 0.0, 0.0, 0.0072, 9.0, -26.9)" gradientUnits="userSpaceOnUse" id="gradient21" r="819.2" spreadMethod="pad">
      <stop offset="0.0" stop-color="#ffc975"/>
      <stop offset="1.0" stop-color="#8d633a"/>
    </radialGradient>
    <radialGradient cx="0" cy="0" gradientTransform="matrix(0.007, 0.0, 0.0, 0.007, 12.05, -25.25)" gradientUnits="userSpaceOnUse" id="gradient22" r="819.2" spreadMethod="pad">
      <stop offset="0.0" stop-color="#c88d52"/>
      <stop offset="1.0" stop-color="#93683c"/>
    </radialGradient>
    <radialGradient cx="0" cy="0" gradientTransform="matrix(0.0079, 0.0, 0.0, 0.0079, 11.85, -16.3)" gradientUnits="userSpaceOnUse" id="gradient23" r="819.2" spreadMethod="pad">
      <stop offset="0.0" stop-color="#c7c7c7"/>
      <stop offset="1.0" stop-color="#bcbcbc"/>
    </radialGradient>
    <radialGradient cx="0" cy="0" gradientTransform="matrix(0.0102, 0.0, 0.0, 0.0102, 16.15, -18.25)" gradientUnits="userSpaceOnUse" id="gradient24" r="819.2" spreadMethod="pad">
      <stop offset="0.0" stop-color="#f3e444"/>
      <stop offset="1.0" stop-color="#c3b736"/>
    </radialGradient>
    <radialGradient cx="0" cy="0" gradientTransform="matrix(0.0102, 0.0, 0.0, 0.0102, 9.2, -20.15)" gradientUnits="userSpaceOnUse" id="gradient25" r="819.2" spreadMethod="pad">
      <stop offset="0.0" stop-color="#645e49"/>
      <stop offset="1.0" stop-color="#2b281f"/>
    </radialGradient>
    <radialGradient cx="0" cy="0" gradientTransform="matrix(0.0054, 0.0, 0.0, 0.0054, 9.35, -13.85)" gradientUnits="userSpaceOnUse" id="gradient26" r="819.2" spreadMethod="pad">
      <stop offset="0.0" stop-color="#5e5845"/>
      <stop offset="1.0" stop-color="#322f25"/>
    </radialGradient>
    <radialGradient cx="0" cy="0" gradientTransform="matrix(0.0042, 0.0, 0.0, 0.0042, 7.5, -22.55)" gradientUnits="userSpaceOnUse" id="gradient27" r="819.2" spreadMethod="pad">
      <stop offset="0.0" stop-color="#6fbbe5"/>
      <stop offset="1.0" stop-color="#3c677e"/>
    </radialGradient>
    <radialGradient cx="0" cy="0" gradientTransform="matrix(0.0088, 0.0, 0.0, 0.0088, 6.05, -21.25)" gradientUnits="userSpaceOnUse" id="gradient28" r="819.2" spreadMethod="pad">
      <stop offset="0.0" stop-color="#0c0c09"/>
      <stop offset="1.0" stop-color="#0c0c09"/>
    </radialGradient>
    <radialGradient cx="0" cy="0" gradientTransform="matrix(0.0161, 0.0, 0.0, 0.0161, 5.25, -22.15)" gradientUnits="userSpaceOnUse" id="gradient29" r="819.2" spreadMethod="pad">
      <stop offset="0.0" stop-color="#365471"/>
      <stop offset="1.0" stop-color="#182532"/>
    </radialGradient>
    <radialGradient cx="0" cy="0" gradientTransform="matrix(0.0045, 0.0, 0.0, 0.0045, 5.5, -14.05)" gradientUnits="userSpaceOnUse" id="gradient30" r="819.2" spreadMethod="pad">
      <stop offset="0.0" stop-color="#365471"/>
      <stop offset="1.0" stop-color="#23384b"/>
    </radialGradient>
    <radialGradient cx="0" cy="0" gradientTransform="matrix(0.002, 0.0, 0.0, 0.002, 8.35, -10.85)" gradientUnits="userSpaceOnUse" id="gradient31" r="819.2" spreadMethod="pad">
      <stop offset="0.0" stop-color="#385f74"/>
      <stop offset="1.0" stop-color="#2c4c5d"/>
    </radialGradient>
    <radialGradient cx="0" cy="0" gradientTransform="matrix(0.0083, 0.0, 0.0, 0.0083, 6.15, -10.05)" gradientUnits="userSpaceOnUse" id="gradient32" r="819.2" spreadMethod="pad">
      <stop offset="0.0" stop-color="#69624c"/>
      <stop offset="1.0" stop-color="#302d23"/>
    </radialGradient>
    <radialGradient cx="0" cy="0" gradientTransform="matrix(0.009, 0.0, 0.0, 0.009, 7.35, -6.7)" gradientUnits="userSpaceOnUse" id="gradient33" r="819.2" spreadMethod="pad">
      <stop offset="0.0" stop-color="#3b372b"/>
      <stop offset="1.0" stop-color="#322f24"/>
    </radialGradient>
    <radialGradient cx="0" cy="0" gradientTransform="matrix(0.0051, 0.0, 0.0, 0.0051, 8.65, 0.75)" gradientUnits="userSpaceOnUse" id="gradient34" r="819.2" spreadMethod="pad">
      <stop offset="0.0" stop-color="#67afd5"/>
      <stop offset="1.0" stop-color="#528cab"/>
    </radialGradient>
    <radialGradient cx="0" cy="0" gradientTransform="matrix(0.0059, 0.0, 0.0, 0.0059, 10.1, 1.3)" gradientUnits="userSpaceOnUse" id="gradient35" r="819.2" spreadMethod="pad">
      <stop offset="0.0" stop-color="#605a46"/>
      <stop offset="1.0" stop-color="#56503e"/>
    </radialGradient>
    <radialGradient cx="0" cy="0" gradientTransform="matrix(0.004, 0.0, 0.0, 0.004, 3.55, -13.7)" gradientUnits="userSpaceOnUse" id="gradient36" r="819.2" spreadMethod="pad">
      <stop offset="0.0" stop-color="#2c465e"/>
      <stop offset="1.0" stop-color="#2c455d"/>
    </radialGradient>
    <radialGradient cx="0" cy="0" gradientTransform="matrix(0.0057, 0.0, 0.0, 0.0057, -2.1, -50.05)" gradientUnits="userSpaceOnUse" id="gradient37" r="819.2" spreadMethod="pad">
      <stop offset="0.0" stop-color="#0c0c09"/>
      <stop offset="1.0" stop-color="#0c0c09"/>
    </radialGradient>
    <radialGradient cx="0" cy="0" gradientTransform="matrix(0.0027, 0.0, 0.0, 0.0027, -3.65, -43.5)" gradientUnits="userSpaceOnUse" id="gradient38" r="819.2" spreadMethod="pad">
      <stop offset="0.0" stop-color="#121010"/>
      <stop offset="1.0" stop-color="#121010"/>
    </radialGradient>
    <radialGradient cx="0" cy="0" gradientTransform="matrix(0.0458, 0.0, 0.0, 0.0458, 0.0, -39.55)" gradientUnits="userSpaceOnUse" id="gradient39" r="819.2" spreadMethod="pad">
      <stop offset="0.0" stop-color="#867a7a"/>
      <stop offset="1.0" stop-color="#504949"/>
    </radialGradient>
    <radialGradient cx="0" cy="0" gradientTransform="matrix(0.009, 0.0, 0.0, 0.009, -6.95, -47.7)" gradientUnits="userSpaceOnUse" id="gradient40" r="819.2" spreadMethod="pad">
      <stop offset="0.0" stop-color="#5c9cbe"/>
      <stop offset="1.0" stop-color="#3d687f"/>
    </radialGradient>
    <radialGradient cx="0" cy="0" gradientTransform="matrix(0.0069, 0.0, 0.0, 0.0069, -11.1, -45.45)" gradientUnits="userSpaceOnUse" id="gradient41" r="819.2" spreadMethod="pad">
      <stop offset="0.0" stop-color="#464133"/>
      <stop offset="1.0" stop-color="#3e3a2d"/>
    </radialGradient>
  </defs>
</svg>
