<?xml version="1.0" encoding="UTF-8" standalone="no"?>
<svg xmlns:ffdec="https://www.free-decompiler.com/flash" xmlns:xlink="http://www.w3.org/1999/xlink" ffdec:objectType="shape" height="89.1px" width="52.45px" xmlns="http://www.w3.org/2000/svg">
  <g transform="matrix(1.0, 0.0, 0.0, 1.0, 24.3, 70.75)">
    <path d="M9.15 -51.05 L8.8 -51.7 8.8 -51.9 8.75 -52.0 8.75 -52.45 8.9 -52.2 9.15 -51.05 M12.0 -40.5 L9.15 -51.0 10.75 -45.8 10.85 -45.6 12.05 -41.3 12.0 -40.5" fill="url(#gradient0)" fill-rule="evenodd" stroke="none"/>
    <path d="M8.8 -51.7 L9.15 -51.05 9.15 -51.0 12.0 -40.5 11.6 -39.75 10.6 -40.1 10.05 -41.95 9.65 -44.8 9.5 -46.65 9.4 -46.75 8.8 -51.7" fill="url(#gradient1)" fill-rule="evenodd" stroke="none"/>
    <path d="M22.7 -39.45 L20.85 -37.5 20.1 -35.65 20.0 -32.65 19.6 -32.0 Q16.9 -28.9 14.35 -31.65 L13.4 -34.85 13.6 -35.65 14.4 -37.15 14.6 -38.55 17.05 -42.55 Q22.45 -42.15 22.7 -39.45" fill="url(#gradient2)" fill-rule="evenodd" stroke="none"/>
    <path d="M19.6 -32.0 L20.0 -32.65 20.1 -35.65 20.85 -37.5 22.7 -39.45 Q26.05 -36.6 27.35 -33.75 L21.75 -32.25 19.95 -31.75 19.6 -32.0" fill="url(#gradient3)" fill-rule="evenodd" stroke="none"/>
    <path d="M14.35 -31.65 Q16.9 -28.9 19.6 -32.0 L19.95 -31.75 21.75 -32.25 Q21.8 -30.55 21.25 -29.15 L19.7 -26.85 18.65 -25.95 17.85 -25.65 17.75 -26.2 17.4 -26.45 Q17.45 -29.85 13.75 -28.15 L13.05 -27.9 Q12.9 -29.2 13.6 -30.3 L14.35 -31.65" fill="url(#gradient4)" fill-rule="evenodd" stroke="none"/>
    <path d="M17.05 -42.55 L14.6 -38.55 14.35 -39.3 13.2 -40.75 12.5 -43.75 15.35 -44.1 16.95 -43.5 16.95 -43.2 17.05 -42.55 M-8.15 -37.4 Q-6.6 -41.3 0.45 -41.3 -0.2 -36.15 -0.4 -36.5 L-0.1 -35.65 -0.1 -35.55 -0.2 -35.65 -5.6 -37.85 Q-7.45 -38.2 -8.15 -37.4" fill="url(#gradient5)" fill-rule="evenodd" stroke="none"/>
    <path d="M11.25 -45.95 L10.85 -45.6 10.75 -45.8 11.25 -45.95 M4.25 -41.15 L3.55 -40.75 2.4 -40.75 4.25 -41.15" fill="url(#gradient6)" fill-rule="evenodd" stroke="none"/>
    <path d="M9.65 -44.8 L10.05 -41.95 10.6 -40.1 11.6 -39.75 12.0 -40.5 12.05 -41.3 10.85 -45.6 11.25 -45.95 11.75 -45.8 12.5 -43.75 13.2 -40.75 13.15 -40.1 12.5 -39.05 Q10.0 -36.4 4.75 -37.15 L4.6 -37.15 4.5 -37.25 4.05 -37.4 2.9 -38.5 2.8 -38.65 2.55 -39.85 2.5 -39.95 2.5 -40.0 2.65 -40.1 2.4 -40.2 2.4 -40.35 2.4 -40.75 3.55 -40.75 4.25 -41.15 9.65 -44.8" fill="url(#gradient7)" fill-rule="evenodd" stroke="none"/>
    <path d="M14.6 -38.55 L14.4 -37.15 13.6 -35.65 13.4 -34.85 Q9.7 -28.45 2.2 -32.95 L2.1 -34.0 -0.1 -35.55 -0.1 -35.65 -0.4 -36.5 Q-0.2 -36.15 0.45 -41.3 L0.95 -41.5 1.35 -39.35 3.15 -37.25 3.3 -37.35 2.9 -38.5 4.05 -37.4 4.6 -36.55 5.75 -35.65 7.3 -35.1 Q9.3 -35.1 9.7 -35.65 L10.85 -36.55 11.35 -37.4 12.4 -38.65 12.5 -39.05 13.15 -40.1 13.2 -40.75 14.35 -39.3 14.6 -38.55" fill="url(#gradient8)" fill-rule="evenodd" stroke="none"/>
    <path d="M12.5 -39.05 L12.4 -38.65 11.35 -37.4 Q8.15 -35.45 4.75 -37.15 10.0 -36.4 12.5 -39.05" fill="url(#gradient9)" fill-rule="evenodd" stroke="none"/>
    <path d="M9.4 -46.75 L9.5 -46.65 9.65 -44.8 4.25 -41.15 2.4 -40.75 2.4 -40.35 1.95 -41.15 1.6 -43.65 Q3.4 -49.1 9.4 -46.75 M2.4 -40.2 L2.65 -40.1 2.5 -40.0 2.4 -40.2" fill="url(#gradient10)" fill-rule="evenodd" stroke="none"/>
    <path d="M0.95 -41.5 L1.1 -42.75 1.6 -43.65 1.95 -41.15 2.4 -40.35 2.4 -40.2 2.5 -40.0 2.5 -39.95 2.55 -39.85 2.8 -38.65 2.9 -38.5 3.3 -37.35 3.15 -37.25 1.35 -39.35 0.95 -41.5" fill="url(#gradient11)" fill-rule="evenodd" stroke="none"/>
    <path d="M11.35 -37.4 L10.85 -36.55 9.7 -35.65 Q9.3 -35.1 7.3 -35.1 L5.75 -35.65 4.6 -36.55 4.05 -37.4 4.5 -37.25 4.6 -37.15 4.75 -37.15 Q8.15 -35.45 11.35 -37.4" fill="url(#gradient12)" fill-rule="evenodd" stroke="none"/>
    <path d="M-13.4 -26.4 L-12.75 -29.8 -11.7 -32.45 -10.35 -34.4 -8.45 -29.95 -8.9 -29.85 -8.8 -29.7 -9.25 -29.45 -11.2 -28.75 -12.85 -27.55 -13.4 -26.4 M-0.65 -31.25 L0.45 -31.4 1.2 -31.8 1.3 -31.35 -0.65 -31.25 M-0.85 -31.25 L-1.0 -31.2 -3.85 -30.85 -5.8 -30.5 -7.75 -35.15 -6.1 -34.75 -4.75 -33.85 -3.6 -31.8 -2.05 -31.35 -0.85 -31.25" fill="url(#gradient13)" fill-rule="evenodd" stroke="none"/>
    <path d="M13.4 -34.85 L14.35 -31.65 13.6 -30.3 Q12.9 -29.2 13.05 -27.9 L10.95 -26.2 Q6.8 -27.4 2.25 -23.55 L0.85 -23.55 0.8 -23.55 0.05 -23.7 -1.35 -25.0 -1.9 -25.75 -3.1 -28.0 -1.25 -29.6 -1.0 -31.2 -0.85 -31.25 -0.65 -31.25 1.3 -31.35 1.2 -31.8 1.85 -32.3 2.2 -32.95 Q9.7 -28.45 13.4 -34.85" fill="url(#gradient14)" fill-rule="evenodd" stroke="none"/>
    <path d="M-11.45 -34.35 L-10.65 -35.2 -10.5 -34.85 -11.4 -34.35 -11.45 -34.35 M-8.55 -37.1 L-8.15 -37.4 Q-7.45 -38.2 -5.6 -37.85 L-0.2 -35.65 -0.1 -35.55 2.1 -34.0 2.2 -32.95 1.85 -32.3 1.2 -31.8 0.45 -31.4 -0.65 -31.25 -0.85 -31.25 -2.05 -31.35 -3.6 -31.8 -4.75 -33.85 -6.1 -34.75 -7.75 -35.15 -8.0 -35.65 -8.55 -37.1" fill="url(#gradient15)" fill-rule="evenodd" stroke="none"/>
    <path d="M10.95 -26.2 L13.05 -27.9 13.75 -28.15 Q12.05 -27.2 10.7 -25.35 L8.6 -22.15 9.25 -23.95 10.95 -26.2" fill="url(#gradient16)" fill-rule="evenodd" stroke="none"/>
    <path d="M8.6 -22.15 L10.7 -25.35 Q12.05 -27.2 13.75 -28.15 17.45 -29.85 17.4 -26.45 L15.35 -23.15 Q13.25 -20.3 11.65 -19.1 L10.7 -18.65 10.7 -19.25 9.25 -21.2 8.4 -21.5 8.6 -22.15" fill="url(#gradient17)" fill-rule="evenodd" stroke="none"/>
    <path d="M11.65 -19.1 Q13.25 -20.3 15.35 -23.15 L17.4 -26.45 17.75 -26.2 17.85 -25.65 16.8 -22.95 Q15.2 -20.7 14.1 -20.05 L13.05 -19.4 11.65 -19.1" fill="url(#gradient18)" fill-rule="evenodd" stroke="none"/>
    <path d="M19.7 -26.85 L20.6 -21.1 22.2 -0.55 22.2 0.5 19.85 -1.45 19.6 -1.95 19.2 -4.2 18.4 -5.6 Q19.1 -12.45 15.0 -17.85 L14.35 -18.5 14.1 -20.05 Q15.2 -20.7 16.8 -22.95 L17.85 -25.65 18.65 -25.95 19.7 -26.85 M13.4 -2.7 L9.65 -2.45 9.5 -8.8 11.75 -4.95 13.45 -3.25 13.4 -2.7 M6.05 -2.05 L2.3 -1.3 2.3 -1.6 2.65 -2.35 6.05 -2.05 M-3.4 0.95 Q-9.75 3.6 -10.8 7.9 -10.3 4.1 -9.1 -13.5 L-8.45 -17.6 -7.15 -16.65 -5.25 -16.35 -3.6 -15.35 -2.6 -15.25 Q-3.4 -12.05 -3.05 -10.75 L-2.3 -8.7 -2.7 -7.8 -2.95 -6.1 -3.1 -3.1 -3.4 0.95 M-1.35 -25.0 L0.05 -23.7 0.8 -23.55 -0.6 -21.1 -1.0 -22.25 -2.05 -22.75 -2.95 -25.0 -1.35 -25.0" fill="url(#gradient19)" fill-rule="evenodd" stroke="none"/>
    <path d="M10.7 -18.65 L11.65 -19.1 13.05 -19.4 14.1 -20.05 14.35 -18.5 13.75 -13.8 13.4 -13.15 12.4 -12.65 11.6 -12.9 9.95 -14.05 10.05 -14.45 9.3 -15.0 9.25 -16.55 10.3 -17.85 10.7 -18.65" fill="url(#gradient20)" fill-rule="evenodd" stroke="none"/>
    <path d="M8.4 -21.5 L9.25 -21.2 10.7 -19.25 10.7 -18.65 10.3 -17.85 9.25 -16.55 7.35 -15.1 Q6.45 -14.6 3.95 -14.5 L4.1 -15.75 3.95 -16.45 3.0 -17.85 2.65 -18.1 2.5 -18.4 3.8 -19.4 5.65 -21.1 8.4 -21.5" fill="url(#gradient21)" fill-rule="evenodd" stroke="none"/>
    <path d="M14.35 -18.5 L15.0 -17.85 Q19.1 -12.45 18.4 -5.6 17.25 -6.8 15.8 -6.15 L15.1 -8.9 Q17.0 -10.4 13.75 -13.8 L14.35 -18.5" fill="url(#gradient22)" fill-rule="evenodd" stroke="none"/>
    <path d="M15.1 -8.9 L15.8 -6.15 15.8 -5.05 Q15.1 -3.35 15.35 -2.95 L14.85 -2.75 13.45 -3.25 11.75 -4.95 9.5 -8.8 9.55 -11.45 9.95 -14.05 11.6 -12.9 12.4 -12.65 13.2 -10.55 Q14.55 -8.8 15.1 -8.9" fill="url(#gradient23)" fill-rule="evenodd" stroke="none"/>
    <path d="M13.75 -13.8 Q17.0 -10.4 15.1 -8.9 14.55 -8.8 13.2 -10.55 L12.4 -12.65 13.4 -13.15 13.75 -13.8" fill="url(#gradient24)" fill-rule="evenodd" stroke="none"/>
    <path d="M0.85 -23.55 L2.25 -23.55 Q6.8 -27.4 10.95 -26.2 L9.25 -23.95 8.6 -22.15 8.4 -21.5 5.65 -21.1 3.8 -19.4 Q3.0 -19.7 2.1 -21.1 L0.85 -23.55" fill="url(#gradient25)" fill-rule="evenodd" stroke="none"/>
    <path d="M0.8 -23.55 L0.85 -23.55 2.1 -21.1 Q3.0 -19.7 3.8 -19.4 L2.5 -18.4 1.85 -19.0 0.45 -19.1 0.05 -20.3 -0.6 -20.95 -0.6 -21.1 0.8 -23.55" fill="url(#gradient26)" fill-rule="evenodd" stroke="none"/>
    <path d="M-0.6 -20.95 L0.05 -20.3 0.45 -19.1 0.45 -18.05 0.45 -17.85 0.3 -17.2 -0.75 -15.9 -2.15 -15.35 -2.3 -15.35 -2.6 -15.25 -3.6 -15.35 -5.25 -16.35 -5.95 -17.85 -5.95 -18.9 -5.85 -18.9 -5.7 -18.75 -4.65 -19.8 -4.3 -19.4 Q-3.15 -20.2 -1.95 -20.95 L-0.6 -20.95" fill="url(#gradient27)" fill-rule="evenodd" stroke="none"/>
    <path d="M0.45 -18.05 L0.45 -19.1 1.85 -19.0 2.5 -18.4 2.65 -18.1 1.45 -18.35 0.45 -18.05" fill="url(#gradient28)" fill-rule="evenodd" stroke="none"/>
    <path d="M-2.3 -15.35 L-2.15 -15.35 -1.7 -14.45 -1.35 -14.5 -0.75 -15.9 0.3 -17.2 0.45 -17.85 0.45 -18.05 1.45 -18.35 2.65 -18.1 3.0 -17.85 3.95 -16.45 4.1 -15.75 3.95 -14.5 3.8 -14.15 3.55 -13.55 2.55 -12.65 1.85 -12.35 0.6 -12.25 -0.45 -12.5 Q-1.0 -12.55 -1.9 -13.7 L-2.3 -15.35" fill="url(#gradient29)" fill-rule="evenodd" stroke="none"/>
    <path d="M9.25 -16.55 L9.3 -15.0 Q6.4 -9.0 3.8 -14.15 L3.95 -14.5 Q6.45 -14.6 7.35 -15.1 L9.25 -16.55" fill="url(#gradient30)" fill-rule="evenodd" stroke="none"/>
    <path d="M9.65 -2.45 L9.8 -1.3 6.05 -2.05 2.65 -2.35 2.05 -2.45 Q2.55 -2.6 2.65 -7.3 L2.55 -12.65 3.55 -13.55 3.8 -14.15 Q6.4 -9.0 9.3 -15.0 L10.05 -14.45 9.95 -14.05 9.55 -11.45 9.5 -8.8 9.65 -2.45" fill="url(#gradient31)" fill-rule="evenodd" stroke="none"/>
    <path d="M-2.6 -15.25 L-2.3 -15.35 -1.9 -13.7 Q-1.0 -12.55 -0.45 -12.5 L-0.5 -12.1 -0.2 -11.55 0.45 -11.3 0.15 -9.4 -2.3 -8.7 -3.05 -10.75 Q-3.4 -12.05 -2.6 -15.25" fill="url(#gradient32)" fill-rule="evenodd" stroke="none"/>
    <path d="M2.55 -12.65 L2.65 -7.3 2.0 -6.9 1.2 -6.9 0.35 -8.2 0.15 -9.4 0.45 -11.3 1.1 -11.35 1.85 -12.35 2.55 -12.65" fill="url(#gradient33)" fill-rule="evenodd" stroke="none"/>
    <path d="M-0.45 -12.5 L0.6 -12.25 1.85 -12.35 1.1 -11.35 0.45 -11.3 -0.2 -11.55 -0.5 -12.1 -0.45 -12.5" fill="url(#gradient34)" fill-rule="evenodd" stroke="none"/>
    <path d="M0.15 -9.4 L0.35 -8.2 1.2 -6.9 1.1 -6.1 0.45 -4.55 Q-1.0 -2.55 -2.55 -4.3 L-2.95 -6.1 -2.7 -7.8 -2.3 -8.7 0.15 -9.4" fill="url(#gradient35)" fill-rule="evenodd" stroke="none"/>
    <path d="M2.65 -7.3 Q2.55 -2.6 2.05 -2.45 L2.65 -2.35 2.3 -1.6 Q-1.0 0.8 0.45 -4.55 L1.1 -6.1 1.2 -6.9 2.0 -6.9 2.65 -7.3" fill="url(#gradient36)" fill-rule="evenodd" stroke="none"/>
    <path d="M2.3 -1.3 L1.7 0.35 1.45 2.3 1.1 4.05 Q-0.05 5.7 -1.15 5.7 L-3.6 4.3 -3.6 2.75 -3.6 2.65 -3.4 0.95 -3.1 -3.1 -2.85 -3.1 -2.7 -3.5 -2.55 -4.3 Q-1.0 -2.55 0.45 -4.55 -1.0 0.8 2.3 -1.6 L2.3 -1.3" fill="url(#gradient37)" fill-rule="evenodd" stroke="none"/>
    <path d="M15.25 4.15 Q12.9 0.55 13.4 -2.7 L13.45 -3.25 14.85 -2.75 15.35 -2.95 15.65 -1.85 16.55 -0.5 16.7 -0.1 Q19.05 5.45 15.25 4.15" fill="url(#gradient38)" fill-rule="evenodd" stroke="none"/>
    <path d="M18.4 -5.6 L19.2 -4.2 19.6 -1.95 19.55 -0.75 19.2 -0.1 18.9 0.25 18.1 0.35 Q17.3 -0.1 16.55 -0.5 L15.65 -1.85 15.35 -2.95 Q15.1 -3.35 15.8 -5.05 L15.8 -6.15 Q17.25 -6.8 18.4 -5.6" fill="url(#gradient39)" fill-rule="evenodd" stroke="none"/>
    <path d="M20.35 1.2 L22.45 9.65 22.55 9.95 22.45 11.85 21.55 12.6 19.05 12.15 Q17.95 12.05 17.05 9.5 L16.35 6.8 15.25 4.15 Q19.05 5.45 16.7 -0.1 L16.55 -0.5 Q17.3 -0.1 18.1 0.35 L18.9 0.25 19.2 -0.1 19.55 -0.75 20.35 1.2" fill="url(#gradient40)" fill-rule="evenodd" stroke="none"/>
    <path d="M19.85 -1.45 L20.35 1.2 19.55 -0.75 19.6 -1.95 19.85 -1.45" fill="url(#gradient41)" fill-rule="evenodd" stroke="none"/>
    <path d="M22.45 9.65 L23.7 10.05 23.45 10.65 22.55 9.95 22.45 9.65" fill="url(#gradient42)" fill-rule="evenodd" stroke="none"/>
    <path d="M26.2 13.05 Q28.65 15.4 28.05 16.45 L27.35 16.95 27.15 17.5 Q27.6 18.4 25.65 18.35 L21.4 15.75 Q25.8 15.45 26.2 13.05 M18.25 13.7 Q15.6 11.9 17.05 9.5 17.95 12.05 19.05 12.15 L21.55 12.6 20.25 13.4 18.25 13.7 M23.45 10.65 L22.45 11.85 22.55 9.95 23.45 10.65" fill="url(#gradient43)" fill-rule="evenodd" stroke="none"/>
    <path d="M23.7 10.05 L25.8 11.85 26.3 12.6 26.2 13.05 Q25.8 15.45 21.4 15.75 L19.55 15.45 17.85 14.7 16.3 13.3 18.25 13.7 20.25 13.4 21.55 12.6 22.45 11.85 23.45 10.65 23.7 10.05" fill="url(#gradient44)" fill-rule="evenodd" stroke="none"/>
    <path d="M28.05 16.45 L27.15 17.5 27.35 16.95 28.05 16.45" fill="url(#gradient45)" fill-rule="evenodd" stroke="none"/>
    <path d="M0.6 6.0 Q1.55 6.05 2.3 5.25 L1.3 6.9 -0.45 8.1 -1.9 8.6 Q-4.5 9.0 -6.75 6.5 L-6.75 5.5 -4.8 3.15 -4.5 3.55 -3.6 4.3 -1.15 5.7 -0.5 6.0 0.6 6.0" fill="url(#gradient46)" fill-rule="evenodd" stroke="none"/>
    <path d="M1.45 2.3 L1.85 3.65 Q1.15 5.7 0.6 6.0 L-0.5 6.0 -1.15 5.7 Q-0.05 5.7 1.1 4.05 L1.45 2.3 M-1.9 8.6 L-4.55 11.55 -6.35 11.6 -6.75 10.7 -7.9 10.2 -8.0 8.7 -6.75 6.5 Q-4.5 9.0 -1.9 8.6 M-3.6 2.75 L-3.6 4.3 -4.5 3.55 -3.6 2.75" fill="url(#gradient47)" fill-rule="evenodd" stroke="none"/>
    <path d="M-10.65 -35.2 L-21.35 -60.7 -24.3 -70.75 -20.55 -65.35 -8.55 -37.1 -8.0 -35.65 -7.75 -35.15 -5.8 -30.5 -5.7 -30.3 -5.35 -29.6 -6.25 -25.1 -8.45 -29.95 -10.35 -34.4 -10.5 -34.85 -10.65 -35.2" fill="url(#gradient48)" fill-rule="evenodd" stroke="none"/>
    <path d="M-11.7 -32.45 L-11.95 -33.6 -11.4 -34.35 -10.5 -34.85 -10.35 -34.4 -11.7 -32.45 M-1.9 -25.75 L-1.35 -25.0 -2.95 -25.0 -3.2 -25.6 -1.9 -25.75" fill="url(#gradient49)" fill-rule="evenodd" stroke="none"/>
    <path d="M-11.95 -33.6 L-11.45 -34.35 -11.4 -34.35 -11.95 -33.6" fill="url(#gradient50)" fill-rule="evenodd" stroke="none"/>
    <path d="M-10.25 -25.1 Q-12.1 -25.0 -13.1 -25.6 L-13.4 -26.4 -12.85 -27.55 -11.2 -28.75 -9.25 -29.45 -10.0 -27.65 -10.25 -25.1 M-3.1 -28.0 L-1.9 -25.75 -3.2 -25.6 -3.4 -26.05 -3.35 -26.95 -3.35 -28.0 -3.1 -28.0" fill="url(#gradient51)" fill-rule="evenodd" stroke="none"/>
    <path d="M-8.95 -22.0 L-9.0 -22.4 -8.8 -25.15 -8.55 -25.35 -8.7 -25.65 -8.05 -27.9 -6.1 -23.2 -7.65 -22.9 -8.95 -22.0 M-5.7 -30.3 L-5.8 -30.5 -3.85 -30.85 -3.75 -30.35 -3.85 -30.1 -3.9 -29.95 -3.9 -29.8 -4.4 -28.5 -5.05 -30.05 -5.25 -30.35 -5.7 -30.3 M-3.75 -30.3 L-3.35 -29.25 -3.35 -28.0 -3.35 -26.95 -3.5 -26.8 -3.75 -30.3 M-3.5 -26.45 L-3.5 -26.4 -3.6 -26.45 -3.5 -26.45" fill="url(#gradient52)" fill-rule="evenodd" stroke="none"/>
    <path d="M-1.95 -20.95 Q-3.15 -20.2 -4.3 -19.4 L-4.65 -19.8 -4.75 -22.15 -5.05 -21.85 -5.25 -21.5 -5.6 -21.95 -6.1 -23.2 -8.05 -27.9 -8.8 -29.7 -8.9 -29.85 -8.45 -29.95 -6.25 -25.1 -5.35 -29.6 -5.7 -30.3 -5.25 -30.35 -5.05 -30.05 -4.4 -28.5 -4.0 -27.45 -3.6 -26.45 -3.5 -26.4 -3.4 -26.05 -3.2 -25.6 -2.95 -25.0 -2.05 -22.75 -1.65 -21.75 -1.7 -21.1 -1.95 -20.95" fill="url(#gradient53)" fill-rule="evenodd" stroke="none"/>
    <path d="M-9.0 -22.4 L-9.6 -22.8 -10.0 -23.55 -10.25 -25.1 -10.0 -27.65 -9.25 -29.45 -8.8 -29.7 -8.05 -27.9 -8.7 -25.65 -8.55 -25.35 -8.8 -25.15 -9.0 -22.4" fill="url(#gradient54)" fill-rule="evenodd" stroke="none"/>
    <path d="M-4.65 -19.8 L-5.7 -18.75 -5.85 -18.9 -5.85 -19.0 -5.85 -19.15 -5.6 -19.4 -5.05 -21.85 -4.75 -22.15 -4.65 -19.8 M-3.9 -29.8 L-3.9 -29.95 -3.85 -30.1 -3.75 -30.35 -3.75 -30.3 -3.5 -26.8 -3.5 -26.45 -3.6 -26.45 -4.0 -27.45 -3.9 -29.8" fill="url(#gradient55)" fill-rule="evenodd" stroke="none"/>
    <path d="M-1.0 -31.2 L-1.25 -29.6 -3.1 -28.0 -3.35 -28.0 -3.35 -29.25 -3.75 -30.3 -3.75 -30.35 -3.85 -30.85 -1.0 -31.2" fill="url(#gradient56)" fill-rule="evenodd" stroke="none"/>
    <path d="M-5.85 -18.9 L-5.95 -18.9 -5.95 -19.0 -5.85 -19.0 -5.85 -18.9 M-4.4 -28.5 L-3.9 -29.8 -4.0 -27.45 -4.4 -28.5 M-5.6 -21.95 L-5.25 -21.5 -5.05 -21.85 -5.6 -19.4 -5.85 -19.15 -5.85 -19.3 -5.85 -19.4 -5.8 -19.55 -5.6 -21.95" fill="url(#gradient57)" fill-rule="evenodd" stroke="none"/>
    <path d="M-3.5 -26.45 L-3.5 -26.8 -3.35 -26.95 -3.4 -26.05 -3.5 -26.4 -3.5 -26.45" fill="url(#gradient58)" fill-rule="evenodd" stroke="none"/>
    <path d="M-0.6 -20.95 L-1.95 -20.95 -1.7 -21.1 -1.65 -21.75 -2.05 -22.75 -1.0 -22.25 -0.6 -21.1 -0.6 -20.95" fill="url(#gradient59)" fill-rule="evenodd" stroke="none"/>
    <path d="M-8.45 -17.6 Q-10.0 -20.0 -8.95 -22.0 L-7.65 -22.9 -6.1 -23.2 -5.6 -21.95 -5.8 -19.55 -5.85 -19.4 -5.85 -19.3 -5.95 -19.0 -5.95 -18.9 -5.95 -17.85 -5.25 -16.35 -7.15 -16.65 -8.45 -17.6" fill="url(#gradient60)" fill-rule="evenodd" stroke="none"/>
    <path d="M-5.85 -19.3 L-5.85 -19.15 -5.85 -19.0 -5.95 -19.0 -5.85 -19.3" fill="url(#gradient61)" fill-rule="evenodd" stroke="none"/>
    <path d="M-2.15 -15.35 L-0.75 -15.9 -1.35 -14.5 -1.7 -14.45 -2.15 -15.35" fill="url(#gradient62)" fill-rule="evenodd" stroke="none"/>
    <path d="M-2.95 -6.1 L-2.55 -4.3 -2.7 -3.5 -2.85 -3.1 -3.1 -3.1 -2.95 -6.1" fill="url(#gradient63)" fill-rule="evenodd" stroke="none"/>
    <path d="M-4.8 3.15 L-3.6 2.65 -3.6 2.75 -4.5 3.55 -4.8 3.15" fill="url(#gradient64)" fill-rule="evenodd" stroke="none"/>
    <path d="M-6.35 11.6 L-6.95 10.85 -7.9 10.2 -6.75 10.7 -6.35 11.6" fill="url(#gradient65)" fill-rule="evenodd" stroke="none"/>
  </g>
  <defs>
    <radialGradient cx="0" cy="0" gradientTransform="matrix(0.0155, 0.0, 0.0, 0.0155, 8.6, -52.8)" gradientUnits="userSpaceOnUse" id="gradient0" r="819.2" spreadMethod="pad">
      <stop offset="0.0" stop-color="#9c932c"/>
      <stop offset="1.0" stop-color="#8b8327"/>
    </radialGradient>
    <radialGradient cx="0" cy="0" gradientTransform="matrix(0.0165, 0.0, 0.0, 0.0165, 8.6, -52.8)" gradientUnits="userSpaceOnUse" id="gradient1" r="819.2" spreadMethod="pad">
      <stop offset="0.0" stop-color="#f2e344"/>
      <stop offset="1.0" stop-color="#aaa030"/>
    </radialGradient>
    <radialGradient cx="0" cy="0" gradientTransform="matrix(0.0137, 0.0, 0.0, 0.0137, 14.05, -33.6)" gradientUnits="userSpaceOnUse" id="gradient2" r="819.2" spreadMethod="pad">
      <stop offset="0.0" stop-color="#7fd7ff"/>
      <stop offset="1.0" stop-color="#5b9abd"/>
    </radialGradient>
    <radialGradient cx="0" cy="0" gradientTransform="matrix(0.0105, 0.0, 0.0, 0.0105, 18.6, -34.8)" gradientUnits="userSpaceOnUse" id="gradient3" r="819.2" spreadMethod="pad">
      <stop offset="0.0" stop-color="#69624c"/>
      <stop offset="1.0" stop-color="#454032"/>
    </radialGradient>
    <radialGradient cx="0" cy="0" gradientTransform="matrix(0.0073, 0.0, 0.0, 0.0073, 17.05, -31.55)" gradientUnits="userSpaceOnUse" id="gradient4" r="819.2" spreadMethod="pad">
      <stop offset="0.0" stop-color="#ffee8a"/>
      <stop offset="1.0" stop-color="#9d6e40"/>
    </radialGradient>
    <radialGradient cx="0" cy="0" gradientTransform="matrix(0.0215, 0.0, 0.0, 0.0215, 0.65, -36.65)" gradientUnits="userSpaceOnUse" id="gradient5" r="819.2" spreadMethod="pad">
      <stop offset="0.0" stop-color="#6d664f"/>
      <stop offset="1.0" stop-color="#322f24"/>
    </radialGradient>
    <radialGradient cx="0" cy="0" gradientTransform="matrix(0.0117, 0.0, 0.0, 0.0117, 3.2, -41.25)" gradientUnits="userSpaceOnUse" id="gradient6" r="819.2" spreadMethod="pad">
      <stop offset="0.0" stop-color="#2c2920"/>
      <stop offset="1.0" stop-color="#28261d"/>
    </radialGradient>
    <radialGradient cx="0" cy="0" gradientTransform="matrix(0.01, 0.0, 0.0, 0.01, 8.6, -44.25)" gradientUnits="userSpaceOnUse" id="gradient7" r="819.2" spreadMethod="pad">
      <stop offset="0.0" stop-color="#67604b"/>
      <stop offset="1.0" stop-color="#433e30"/>
    </radialGradient>
    <radialGradient cx="0" cy="0" gradientTransform="matrix(0.0113, 0.0, 0.0, 0.0113, 6.2, -34.9)" gradientUnits="userSpaceOnUse" id="gradient8" r="819.2" spreadMethod="pad">
      <stop offset="0.0" stop-color="#9e9090"/>
      <stop offset="1.0" stop-color="#5e5555"/>
    </radialGradient>
    <radialGradient cx="0" cy="0" gradientTransform="matrix(0.0072, 0.0, 0.0, 0.0072, 7.35, -36.5)" gradientUnits="userSpaceOnUse" id="gradient9" r="819.2" spreadMethod="pad">
      <stop offset="0.0" stop-color="#6b6161"/>
      <stop offset="1.0" stop-color="#585050"/>
    </radialGradient>
    <radialGradient cx="0" cy="0" gradientTransform="matrix(0.0073, 0.0, 0.0, 0.0073, 7.5, -43.4)" gradientUnits="userSpaceOnUse" id="gradient10" r="819.2" spreadMethod="pad">
      <stop offset="0.0" stop-color="#6a634d"/>
      <stop offset="1.0" stop-color="#423e30"/>
    </radialGradient>
    <radialGradient cx="0" cy="0" gradientTransform="matrix(0.0063, 0.0, 0.0, 0.0063, 2.7, -40.3)" gradientUnits="userSpaceOnUse" id="gradient11" r="819.2" spreadMethod="pad">
      <stop offset="0.0" stop-color="#454032"/>
      <stop offset="1.0" stop-color="#383529"/>
    </radialGradient>
    <radialGradient cx="0" cy="0" gradientTransform="matrix(0.0065, 0.0, 0.0, 0.0065, 6.1, -37.3)" gradientUnits="userSpaceOnUse" id="gradient12" r="819.2" spreadMethod="pad">
      <stop offset="0.0" stop-color="#cc9054"/>
      <stop offset="1.0" stop-color="#996c3e"/>
    </radialGradient>
    <radialGradient cx="0" cy="0" gradientTransform="matrix(0.0189, 0.0, 0.0, 0.0189, 1.1, -31.5)" gradientUnits="userSpaceOnUse" id="gradient13" r="819.2" spreadMethod="pad">
      <stop offset="0.0" stop-color="#6b644e"/>
      <stop offset="1.0" stop-color="#3d392c"/>
    </radialGradient>
    <radialGradient cx="0" cy="0" gradientTransform="matrix(0.0132, 0.0, 0.0, 0.0132, 4.5, -33.0)" gradientUnits="userSpaceOnUse" id="gradient14" r="819.2" spreadMethod="pad">
      <stop offset="0.0" stop-color="#6c654e"/>
      <stop offset="1.0" stop-color="#3a362a"/>
    </radialGradient>
    <radialGradient cx="0" cy="0" gradientTransform="matrix(0.0161, 0.0, 0.0, 0.0161, 1.45, -32.15)" gradientUnits="userSpaceOnUse" id="gradient15" r="819.2" spreadMethod="pad">
      <stop offset="0.0" stop-color="#77c9f6"/>
      <stop offset="1.0" stop-color="#5794b5"/>
    </radialGradient>
    <radialGradient cx="0" cy="0" gradientTransform="matrix(0.006, 0.0, 0.0, 0.006, 10.85, -25.15)" gradientUnits="userSpaceOnUse" id="gradient16" r="819.2" spreadMethod="pad">
      <stop offset="0.0" stop-color="#f8af66"/>
      <stop offset="1.0" stop-color="#9d6f40"/>
    </radialGradient>
    <radialGradient cx="0" cy="0" gradientTransform="matrix(0.0078, 0.0, 0.0, 0.0078, 12.4, -24.3)" gradientUnits="userSpaceOnUse" id="gradient17" r="819.2" spreadMethod="pad">
      <stop offset="0.0" stop-color="#ffed8a"/>
      <stop offset="1.0" stop-color="#b17d49"/>
    </radialGradient>
    <radialGradient cx="0" cy="0" gradientTransform="matrix(0.0066, 0.0, 0.0, 0.0066, 14.8, -23.5)" gradientUnits="userSpaceOnUse" id="gradient18" r="819.2" spreadMethod="pad">
      <stop offset="0.0" stop-color="#ffbf6f"/>
      <stop offset="1.0" stop-color="#785531"/>
    </radialGradient>
    <radialGradient cx="0" cy="0" gradientTransform="matrix(0.0455, 0.0, 0.0, 0.0455, -7.45, -22.45)" gradientUnits="userSpaceOnUse" id="gradient19" r="819.2" spreadMethod="pad">
      <stop offset="0.0" stop-color="#2e2b21"/>
      <stop offset="1.0" stop-color="#0c0c09"/>
    </radialGradient>
    <radialGradient cx="0" cy="0" gradientTransform="matrix(0.0083, 0.0, 0.0, 0.0083, 10.3, -18.95)" gradientUnits="userSpaceOnUse" id="gradient20" r="819.2" spreadMethod="pad">
      <stop offset="0.0" stop-color="#69624c"/>
      <stop offset="1.0" stop-color="#343025"/>
    </radialGradient>
    <radialGradient cx="0" cy="0" gradientTransform="matrix(0.0059, 0.0, 0.0, 0.0059, 6.1, -18.7)" gradientUnits="userSpaceOnUse" id="gradient21" r="819.2" spreadMethod="pad">
      <stop offset="0.0" stop-color="#645e49"/>
      <stop offset="1.0" stop-color="#3b372b"/>
    </radialGradient>
    <radialGradient cx="0" cy="0" gradientTransform="matrix(0.0171, 0.0, 0.0, 0.0171, 13.0, -18.1)" gradientUnits="userSpaceOnUse" id="gradient22" r="819.2" spreadMethod="pad">
      <stop offset="0.0" stop-color="#406487"/>
      <stop offset="1.0" stop-color="#223547"/>
    </radialGradient>
    <radialGradient cx="0" cy="0" gradientTransform="matrix(0.0146, 0.0, 0.0, 0.0146, 10.75, -14.05)" gradientUnits="userSpaceOnUse" id="gradient23" r="819.2" spreadMethod="pad">
      <stop offset="0.0" stop-color="#406386"/>
      <stop offset="1.0" stop-color="#192836"/>
    </radialGradient>
    <radialGradient cx="0" cy="0" gradientTransform="matrix(0.0065, 0.0, 0.0, 0.0065, 13.05, -14.05)" gradientUnits="userSpaceOnUse" id="gradient24" r="819.2" spreadMethod="pad">
      <stop offset="0.0" stop-color="#466d93"/>
      <stop offset="1.0" stop-color="#203242"/>
    </radialGradient>
    <radialGradient cx="0" cy="0" gradientTransform="matrix(0.0078, 0.0, 0.0, 0.0078, 6.1, -24.6)" gradientUnits="userSpaceOnUse" id="gradient25" r="819.2" spreadMethod="pad">
      <stop offset="0.0" stop-color="#314c67"/>
      <stop offset="1.0" stop-color="#223547"/>
    </radialGradient>
    <radialGradient cx="0" cy="0" gradientTransform="matrix(0.0053, 0.0, 0.0, 0.0053, 3.2, -21.05)" gradientUnits="userSpaceOnUse" id="gradient26" r="819.2" spreadMethod="pad">
      <stop offset="0.0" stop-color="#6e6750"/>
      <stop offset="1.0" stop-color="#524c3b"/>
    </radialGradient>
    <radialGradient cx="0" cy="0" gradientTransform="matrix(0.0046, 0.0, 0.0, 0.0046, -2.7, -19.15)" gradientUnits="userSpaceOnUse" id="gradient27" r="819.2" spreadMethod="pad">
      <stop offset="0.0" stop-color="#6b644d"/>
      <stop offset="1.0" stop-color="#383429"/>
    </radialGradient>
    <radialGradient cx="0" cy="0" gradientTransform="matrix(0.0027, 0.0, 0.0, 0.0027, 0.25, -18.0)" gradientUnits="userSpaceOnUse" id="gradient28" r="819.2" spreadMethod="pad">
      <stop offset="0.0" stop-color="#655f49"/>
      <stop offset="1.0" stop-color="#393529"/>
    </radialGradient>
    <radialGradient cx="0" cy="0" gradientTransform="matrix(0.0044, 0.0, 0.0, 0.0044, 0.75, -15.95)" gradientUnits="userSpaceOnUse" id="gradient29" r="819.2" spreadMethod="pad">
      <stop offset="0.0" stop-color="#6c654e"/>
      <stop offset="1.0" stop-color="#2f2c22"/>
    </radialGradient>
    <radialGradient cx="0" cy="0" gradientTransform="matrix(0.0053, 0.0, 0.0, 0.0053, 5.95, -16.0)" gradientUnits="userSpaceOnUse" id="gradient30" r="819.2" spreadMethod="pad">
      <stop offset="0.0" stop-color="#595340"/>
      <stop offset="1.0" stop-color="#2b2920"/>
    </radialGradient>
    <radialGradient cx="0" cy="0" gradientTransform="matrix(0.0212, 0.0, 0.0, 0.0212, 9.5, -18.1)" gradientUnits="userSpaceOnUse" id="gradient31" r="819.2" spreadMethod="pad">
      <stop offset="0.0" stop-color="#958888"/>
      <stop offset="1.0" stop-color="#5b5353"/>
    </radialGradient>
    <radialGradient cx="0" cy="0" gradientTransform="matrix(0.0085, 0.0, 0.0, 0.0085, -1.05, -15.25)" gradientUnits="userSpaceOnUse" id="gradient32" r="819.2" spreadMethod="pad">
      <stop offset="0.0" stop-color="#2a4259"/>
      <stop offset="1.0" stop-color="#192836"/>
    </radialGradient>
    <radialGradient cx="0" cy="0" gradientTransform="matrix(0.0092, 0.0, 0.0, 0.0092, 2.95, -14.25)" gradientUnits="userSpaceOnUse" id="gradient33" r="819.2" spreadMethod="pad">
      <stop offset="0.0" stop-color="#334f6a"/>
      <stop offset="1.0" stop-color="#172430"/>
    </radialGradient>
    <radialGradient cx="0" cy="0" gradientTransform="matrix(0.0022, 0.0, 0.0, 0.0022, 0.1, -12.9)" gradientUnits="userSpaceOnUse" id="gradient34" r="819.2" spreadMethod="pad">
      <stop offset="0.0" stop-color="#273d52"/>
      <stop offset="1.0" stop-color="#172430"/>
    </radialGradient>
    <radialGradient cx="0" cy="0" gradientTransform="matrix(0.0066, 0.0, 0.0, 0.0066, -0.75, -8.95)" gradientUnits="userSpaceOnUse" id="gradient35" r="819.2" spreadMethod="pad">
      <stop offset="0.0" stop-color="#86e2ff"/>
      <stop offset="1.0" stop-color="#305265"/>
    </radialGradient>
    <radialGradient cx="0" cy="0" gradientTransform="matrix(0.0092, 0.0, 0.0, 0.0092, 1.15, -7.7)" gradientUnits="userSpaceOnUse" id="gradient36" r="819.2" spreadMethod="pad">
      <stop offset="0.0" stop-color="#756d55"/>
      <stop offset="1.0" stop-color="#2a271f"/>
    </radialGradient>
    <radialGradient cx="0" cy="0" gradientTransform="matrix(0.0138, 0.0, 0.0, 0.0138, -1.05, -4.95)" gradientUnits="userSpaceOnUse" id="gradient37" r="819.2" spreadMethod="pad">
      <stop offset="0.0" stop-color="#5c5643"/>
      <stop offset="1.0" stop-color="#27251d"/>
    </radialGradient>
    <radialGradient cx="0" cy="0" gradientTransform="matrix(0.0102, 0.0, 0.0, 0.0102, 15.6, -2.95)" gradientUnits="userSpaceOnUse" id="gradient38" r="819.2" spreadMethod="pad">
      <stop offset="0.0" stop-color="#716952"/>
      <stop offset="1.0" stop-color="#2f2c22"/>
    </radialGradient>
    <radialGradient cx="0" cy="0" gradientTransform="matrix(0.0083, 0.0, 0.0, 0.0083, 16.6, -6.1)" gradientUnits="userSpaceOnUse" id="gradient39" r="819.2" spreadMethod="pad">
      <stop offset="0.0" stop-color="#81dbff"/>
      <stop offset="1.0" stop-color="#3a6277"/>
    </radialGradient>
    <radialGradient cx="0" cy="0" gradientTransform="matrix(0.0182, 0.0, 0.0, 0.0182, 17.7, -1.3)" gradientUnits="userSpaceOnUse" id="gradient40" r="819.2" spreadMethod="pad">
      <stop offset="0.0" stop-color="#67604b"/>
      <stop offset="1.0" stop-color="#383428"/>
    </radialGradient>
    <radialGradient cx="0" cy="0" gradientTransform="matrix(0.0038, 0.0, 0.0, 0.0038, 19.1, -0.45)" gradientUnits="userSpaceOnUse" id="gradient41" r="819.2" spreadMethod="pad">
      <stop offset="0.0" stop-color="#514b3b"/>
      <stop offset="1.0" stop-color="#363327"/>
    </radialGradient>
    <radialGradient cx="0" cy="0" gradientTransform="matrix(0.0038, 0.0, 0.0, 0.0038, 21.6, 9.75)" gradientUnits="userSpaceOnUse" id="gradient42" r="819.2" spreadMethod="pad">
      <stop offset="0.0" stop-color="#182831"/>
      <stop offset="1.0" stop-color="#0e181e"/>
    </radialGradient>
    <radialGradient cx="0" cy="0" gradientTransform="matrix(0.0108, 0.0, 0.0, 0.0108, 20.6, 12.05)" gradientUnits="userSpaceOnUse" id="gradient43" r="819.2" spreadMethod="pad">
      <stop offset="0.0" stop-color="#776f56"/>
      <stop offset="1.0" stop-color="#5f5945"/>
    </radialGradient>
    <radialGradient cx="0" cy="0" gradientTransform="matrix(0.0087, 0.0, 0.0, 0.0087, 23.4, 13.35)" gradientUnits="userSpaceOnUse" id="gradient44" r="819.2" spreadMethod="pad">
      <stop offset="0.0" stop-color="#86e2ff"/>
      <stop offset="1.0" stop-color="#538dac"/>
    </radialGradient>
    <radialGradient cx="0" cy="0" gradientTransform="matrix(0.0032, 0.0, 0.0, 0.0032, 28.05, 16.15)" gradientUnits="userSpaceOnUse" id="gradient45" r="819.2" spreadMethod="pad">
      <stop offset="0.0" stop-color="#393529"/>
      <stop offset="1.0" stop-color="#373328"/>
    </radialGradient>
    <radialGradient cx="0" cy="0" gradientTransform="matrix(0.0072, 0.0, 0.0, 0.0072, -3.6, 6.5)" gradientUnits="userSpaceOnUse" id="gradient46" r="819.2" spreadMethod="pad">
      <stop offset="0.0" stop-color="#89e9ff"/>
      <stop offset="1.0" stop-color="#5793b3"/>
    </radialGradient>
    <radialGradient cx="0" cy="0" gradientTransform="matrix(0.0087, 0.0, 0.0, 0.0087, -2.05, 6.1)" gradientUnits="userSpaceOnUse" id="gradient47" r="819.2" spreadMethod="pad">
      <stop offset="0.0" stop-color="#787057"/>
      <stop offset="1.0" stop-color="#544f3e"/>
    </radialGradient>
    <radialGradient cx="0" cy="0" gradientTransform="matrix(0.0527, 0.0, 0.0, 0.0527, -21.85, -61.95)" gradientUnits="userSpaceOnUse" id="gradient48" r="819.2" spreadMethod="pad">
      <stop offset="0.0" stop-color="#b7b7b7"/>
      <stop offset="1.0" stop-color="#b3b3b3"/>
    </radialGradient>
    <radialGradient cx="0" cy="0" gradientTransform="matrix(0.0159, 0.0, 0.0, 0.0159, -10.3, -34.35)" gradientUnits="userSpaceOnUse" id="gradient49" r="819.2" spreadMethod="pad">
      <stop offset="0.0" stop-color="#101c22"/>
      <stop offset="1.0" stop-color="#0e181e"/>
    </radialGradient>
    <radialGradient cx="0" cy="0" gradientTransform="matrix(0.0041, 0.0, 0.0, 0.0041, -12.15, -33.7)" gradientUnits="userSpaceOnUse" id="gradient50" r="819.2" spreadMethod="pad">
      <stop offset="0.0" stop-color="#0e181e"/>
      <stop offset="1.0" stop-color="#0e181e"/>
    </radialGradient>
    <radialGradient cx="0" cy="0" gradientTransform="matrix(0.0142, 0.0, 0.0, 0.0142, -11.7, -25.3)" gradientUnits="userSpaceOnUse" id="gradient51" r="819.2" spreadMethod="pad">
      <stop offset="0.0" stop-color="#13120e"/>
      <stop offset="1.0" stop-color="#0c0c09"/>
    </radialGradient>
    <radialGradient cx="0" cy="0" gradientTransform="matrix(0.0085, 0.0, 0.0, 0.0085, -5.95, -24.95)" gradientUnits="userSpaceOnUse" id="gradient52" r="819.2" spreadMethod="pad">
      <stop offset="0.0" stop-color="#ffe887"/>
      <stop offset="1.0" stop-color="#be864e"/>
    </radialGradient>
    <radialGradient cx="0" cy="0" gradientTransform="matrix(0.0138, 0.0, 0.0, 0.0138, -8.95, -30.0)" gradientUnits="userSpaceOnUse" id="gradient53" r="819.2" spreadMethod="pad">
      <stop offset="0.0" stop-color="#c6ba37"/>
      <stop offset="1.0" stop-color="#b8ad33"/>
    </radialGradient>
    <radialGradient cx="0" cy="0" gradientTransform="matrix(0.0069, 0.0, 0.0, 0.0069, -8.4, -24.4)" gradientUnits="userSpaceOnUse" id="gradient54" r="819.2" spreadMethod="pad">
      <stop offset="0.0" stop-color="#ffd079"/>
      <stop offset="1.0" stop-color="#b47f49"/>
    </radialGradient>
    <radialGradient cx="0" cy="0" gradientTransform="matrix(0.0146, 0.0, 0.0, 0.0146, -5.95, -18.85)" gradientUnits="userSpaceOnUse" id="gradient55" r="819.2" spreadMethod="pad">
      <stop offset="0.0" stop-color="#adadad"/>
      <stop offset="1.0" stop-color="#aaaaaa"/>
    </radialGradient>
    <radialGradient cx="0" cy="0" gradientTransform="matrix(0.0049, 0.0, 0.0, 0.0049, -4.1, -32.0)" gradientUnits="userSpaceOnUse" id="gradient56" r="819.2" spreadMethod="pad">
      <stop offset="0.0" stop-color="#ffe988"/>
      <stop offset="1.0" stop-color="#8a6138"/>
    </radialGradient>
    <radialGradient cx="0" cy="0" gradientTransform="matrix(0.0146, 0.0, 0.0, 0.0146, -5.95, -18.85)" gradientUnits="userSpaceOnUse" id="gradient57" r="819.2" spreadMethod="pad">
      <stop offset="0.0" stop-color="#e5e5e5"/>
      <stop offset="1.0" stop-color="#e1e1e1"/>
    </radialGradient>
    <radialGradient cx="0" cy="0" gradientTransform="matrix(0.0021, 0.0, 0.0, 0.0021, -3.75, -27.6)" gradientUnits="userSpaceOnUse" id="gradient58" r="819.2" spreadMethod="pad">
      <stop offset="0.0" stop-color="#cf9255"/>
      <stop offset="1.0" stop-color="#b5804a"/>
    </radialGradient>
    <radialGradient cx="0" cy="0" gradientTransform="matrix(0.0018, 0.0, 0.0, 0.0018, -2.05, -21.35)" gradientUnits="userSpaceOnUse" id="gradient59" r="819.2" spreadMethod="pad">
      <stop offset="0.0" stop-color="#68614b"/>
      <stop offset="1.0" stop-color="#3c382b"/>
    </radialGradient>
    <radialGradient cx="0" cy="0" gradientTransform="matrix(0.0057, 0.0, 0.0, 0.0057, -7.85, -20.25)" gradientUnits="userSpaceOnUse" id="gradient60" r="819.2" spreadMethod="pad">
      <stop offset="0.0" stop-color="#504a3a"/>
      <stop offset="1.0" stop-color="#2f2c22"/>
    </radialGradient>
    <radialGradient cx="0" cy="0" gradientTransform="matrix(0.0074, 0.0, 0.0, 0.0074, -5.55, -24.8)" gradientUnits="userSpaceOnUse" id="gradient61" r="819.2" spreadMethod="pad">
      <stop offset="0.0" stop-color="#202020"/>
      <stop offset="1.0" stop-color="#202020"/>
    </radialGradient>
    <radialGradient cx="0" cy="0" gradientTransform="matrix(0.0113, 0.0, 0.0, 0.0113, -4.15, -22.0)" gradientUnits="userSpaceOnUse" id="gradient62" r="819.2" spreadMethod="pad">
      <stop offset="0.0" stop-color="#2b435a"/>
      <stop offset="1.0" stop-color="#24394d"/>
    </radialGradient>
    <radialGradient cx="0" cy="0" gradientTransform="matrix(0.0032, 0.0, 0.0, 0.0032, -2.3, -4.4)" gradientUnits="userSpaceOnUse" id="gradient63" r="819.2" spreadMethod="pad">
      <stop offset="0.0" stop-color="#423e30"/>
      <stop offset="1.0" stop-color="#343025"/>
    </radialGradient>
    <radialGradient cx="0" cy="0" gradientTransform="matrix(0.005, 0.0, 0.0, 0.005, -3.6, 2.5)" gradientUnits="userSpaceOnUse" id="gradient64" r="819.2" spreadMethod="pad">
      <stop offset="0.0" stop-color="#0f1a20"/>
      <stop offset="1.0" stop-color="#0e181e"/>
    </radialGradient>
    <radialGradient cx="0" cy="0" gradientTransform="matrix(0.0034, 0.0, 0.0, 0.0034, -8.1, 10.0)" gradientUnits="userSpaceOnUse" id="gradient65" r="819.2" spreadMethod="pad">
      <stop offset="0.0" stop-color="#423e30"/>
      <stop offset="1.0" stop-color="#3a362a"/>
    </radialGradient>
  </defs>
</svg>
