<?xml version="1.0" encoding="UTF-8" standalone="no"?>
<svg xmlns:ffdec="https://www.free-decompiler.com/flash" xmlns:xlink="http://www.w3.org/1999/xlink" ffdec:objectType="shape" height="119.5px" width="41.15px" xmlns="http://www.w3.org/2000/svg">
  <g transform="matrix(1.0, 0.0, 0.0, 1.0, 35.25, 99.8)">
    <path d="M-0.9 -41.25 L-1.4 -42.45 -2.45 -43.25 -3.2 -44.8 -3.95 -45.5 -4.25 -46.3 Q-1.4 -44.7 -0.45 -40.65 L-0.9 -41.25 M-1.5 -37.85 L-1.35 -37.85 -0.5 -37.2 -0.15 -37.3 Q0.15 -36.65 1.05 -36.25 L1.65 -34.65 1.7 -34.5 2.15 -33.25 2.4 -32.6 5.45 -22.5 4.75 -24.15 2.4 -27.55 Q2.2 -31.25 -6.9 -33.6 -8.7 -34.8 -1.5 -37.85" fill="url(#gradient0)" fill-rule="evenodd" stroke="none"/>
    <path d="M-2.45 -43.25 L-1.4 -42.45 -0.9 -41.25 -0.75 -39.55 -1.5 -38.9 -2.75 -39.0 -3.05 -39.15 -3.2 -39.65 -2.3 -41.1 -2.25 -42.8 -2.45 -43.25" fill="url(#gradient1)" fill-rule="evenodd" stroke="none"/>
    <path d="M-0.9 -41.25 L-0.45 -40.65 0.15 -39.35 0.3 -38.05 -0.05 -37.4 -0.95 -38.05 -1.35 -37.85 -1.5 -37.85 -1.5 -38.45 -1.1 -38.9 Q-0.8 -39.15 -0.75 -39.55 L-0.9 -41.25" fill="url(#gradient2)" fill-rule="evenodd" stroke="none"/>
    <path d="M-1.5 -38.9 L-0.75 -39.55 Q-0.8 -39.15 -1.1 -38.9 L-1.5 -38.45 -1.65 -38.4 -1.5 -38.9" fill="url(#gradient3)" fill-rule="evenodd" stroke="none"/>
    <path d="M-3.2 -39.65 L-3.05 -39.15 -2.75 -39.0 -1.65 -38.4 -1.5 -38.45 -1.5 -37.85 Q-8.7 -34.8 -6.9 -33.6 L-10.15 -33.7 -10.55 -33.4 -12.75 -34.5 -14.05 -36.25 Q-14.5 -36.45 -14.35 -38.2 L-13.85 -40.05 -13.75 -40.05 -12.95 -39.15 -12.85 -38.9 Q-10.3 -35.85 -6.9 -38.45 L-7.0 -38.05 -6.5 -38.1 -3.2 -39.65" fill="url(#gradient4)" fill-rule="evenodd" stroke="none"/>
    <path d="M-1.35 -37.85 L-0.95 -38.05 -0.05 -37.4 -0.15 -37.3 -0.5 -37.2 -1.35 -37.85" fill="url(#gradient5)" fill-rule="evenodd" stroke="none"/>
    <path d="M-0.05 -37.4 L0.3 -38.05 0.15 -39.35 Q1.55 -39.5 2.4 -32.6 L2.15 -33.25 2.25 -33.55 1.7 -34.5 1.65 -34.65 1.05 -36.25 Q0.15 -36.65 -0.15 -37.3 L-0.05 -37.4" fill="url(#gradient6)" fill-rule="evenodd" stroke="none"/>
    <path d="M-2.75 -39.0 L-1.5 -38.9 -1.65 -38.4 -2.75 -39.0" fill="url(#gradient7)" fill-rule="evenodd" stroke="none"/>
    <path d="M2.15 -33.25 L1.7 -34.5 2.25 -33.55 2.15 -33.25" fill="url(#gradient8)" fill-rule="evenodd" stroke="none"/>
    <path d="M-2.9 -17.8 Q-1.1 -16.3 0.9 -22.55 L1.25 -24.0 2.15 -24.15 2.4 -27.55 4.75 -24.15 5.45 -22.5 5.8 -21.3 5.9 -20.05 4.5 -11.2 4.4 -11.15 4.4 -11.0 4.4 -10.75 4.3 -10.7 4.3 -10.55 4.3 -10.4 4.25 -10.2 4.25 -9.95 Q3.2 -5.6 3.35 -1.9 L2.6 2.6 Q2.45 -1.0 -2.75 -6.95 L-3.2 -10.2 -3.3 -12.7 -4.25 -15.1 -3.35 -16.05 -2.9 -17.8" fill="url(#gradient9)" fill-rule="evenodd" stroke="none"/>
    <path d="M1.25 -24.0 L0.9 -22.55 Q-1.1 -16.3 -2.9 -17.8 L-3.95 -18.0 -5.65 -19.0 Q-7.6 -20.6 -8.45 -22.05 L-8.8 -22.55 -11.05 -26.55 -10.75 -27.2 -8.95 -28.15 -7.0 -28.25 -5.3 -27.55 Q-1.75 -24.9 1.25 -24.0" fill="url(#gradient10)" fill-rule="evenodd" stroke="none"/>
    <path d="M1.25 -24.0 Q-1.75 -24.9 -5.3 -27.55 L-7.0 -28.25 -8.95 -28.15 -10.75 -27.2 -12.1 -27.55 Q-12.85 -27.95 -13.05 -28.9 L-13.15 -29.0 -13.15 -29.45 -12.95 -30.8 -10.55 -33.4 -10.15 -33.7 -6.9 -33.6 Q2.2 -31.25 2.4 -27.55 L2.15 -24.15 1.25 -24.0" fill="url(#gradient11)" fill-rule="evenodd" stroke="none"/>
    <path d="M2.6 2.6 L3.35 -1.9 Q3.2 -5.6 4.25 -9.95 L4.1 5.45 3.85 8.05 Q3.2 11.85 2.15 13.5 L-0.15 15.15 1.7 7.95 2.6 2.6 M4.3 -10.55 L4.3 -10.7 4.4 -10.75 4.3 -10.55 M4.4 -11.0 L4.4 -11.15 4.5 -11.2 4.4 -11.0" fill="url(#gradient12)" fill-rule="evenodd" stroke="none"/>
    <path d="M-31.8 -53.4 L-33.9 -92.75 -32.25 -99.55 -32.05 -99.8 -29.35 -92.45 -26.5 -53.35 -26.5 -52.9 -29.55 -55.0 -31.8 -53.35 -31.8 -53.4" fill="url(#gradient13)" fill-rule="evenodd" stroke="none"/>
    <path d="M-25.4 -49.45 L-23.1 -49.25 -25.85 -49.25 -25.4 -49.45 M-34.95 -49.85 L-32.4 -49.85 -31.9 -49.5 -34.95 -49.85" fill="url(#gradient14)" fill-rule="evenodd" stroke="none"/>
    <path d="M-31.8 -53.35 L-29.55 -55.0 -26.5 -52.9 -25.75 -52.45 -25.5 -52.05 -25.4 -49.45 -25.85 -49.25 -26.2 -49.25 -25.25 -47.45 -25.25 -46.85 -27.05 -45.8 -27.5 -45.5 -29.3 -44.9 -30.65 -45.95 -32.2 -47.2 -32.25 -47.8 -31.65 -49.45 -31.8 -49.5 -31.9 -49.5 -32.4 -49.85 -32.55 -52.75 -32.2 -53.05 -31.8 -53.35" fill="url(#gradient15)" fill-rule="evenodd" stroke="none"/>
    <path d="M-23.1 -49.25 L-22.35 -49.25 -22.65 -49.0 -25.25 -47.45 -26.2 -49.25 -25.85 -49.25 -23.1 -49.25 M-32.25 -47.8 L-35.25 -49.75 -34.95 -49.85 -31.9 -49.5 -31.8 -49.5 -31.65 -49.45 -32.25 -47.8" fill="url(#gradient16)" fill-rule="evenodd" stroke="none"/>
    <path d="M-31.8 -53.4 L-31.8 -53.35 -32.2 -53.05 -31.8 -53.4 M-26.5 -52.9 L-26.5 -53.35 -25.75 -52.45 -26.5 -52.9" fill="url(#gradient17)" fill-rule="evenodd" stroke="none"/>
    <path d="M-3.95 -45.5 L-3.2 -44.8 -2.45 -43.25 -2.25 -42.8 -2.3 -41.1 -3.2 -39.65 -6.5 -38.1 -7.0 -38.05 -6.9 -38.45 -6.8 -38.75 -6.8 -38.85 -6.7 -38.9 -5.85 -39.3 -4.7 -42.05 -4.85 -42.2 -3.9 -43.65 -3.95 -45.5" fill="url(#gradient18)" fill-rule="evenodd" stroke="none"/>
    <path d="M-4.25 -46.3 L-3.95 -45.5 -3.9 -43.65 -4.85 -42.2 -6.55 -42.65 -6.9 -42.8 -11.25 -45.95 -11.0 -47.8 Q-7.8 -49.75 -4.25 -46.3" fill="url(#gradient19)" fill-rule="evenodd" stroke="none"/>
    <path d="M-12.05 -47.6 L-11.95 -47.75 -11.95 -47.8 -11.9 -47.95 -11.9 -48.1 -11.8 -48.25 -11.8 -48.4 -11.7 -48.5 -11.7 -48.6 -11.65 -48.7 -11.65 -48.95 -11.6 -49.0 -10.3 -52.95 -11.0 -47.8 -11.25 -45.95 Q-11.65 -39.25 -13.5 -42.05 L-12.9 -44.35 -12.15 -47.0 -12.15 -47.05 -12.1 -47.2 -12.1 -47.3 -12.05 -47.5 -12.05 -47.6" fill="url(#gradient20)" fill-rule="evenodd" stroke="none"/>
    <path d="M-15.3 -45.85 L-15.55 -47.45 -12.05 -47.6 -12.05 -47.5 -12.1 -47.3 -12.1 -47.2 -12.15 -47.05 -12.15 -47.0 -12.25 -46.85 -12.95 -47.0 -13.15 -47.0 -13.9 -45.05 -14.5 -44.8 -14.95 -44.25 -15.3 -45.8 -15.3 -45.85" fill="url(#gradient21)" fill-rule="evenodd" stroke="none"/>
    <path d="M-6.8 -38.85 L-6.8 -38.75 -12.55 -38.9 -12.95 -39.15 -13.75 -40.05 -13.75 -40.1 -13.95 -40.55 -11.8 -39.2 -9.25 -38.65 -6.8 -38.85" fill="url(#gradient22)" fill-rule="evenodd" stroke="none"/>
    <path d="M-4.7 -42.05 L-5.85 -39.3 -6.7 -38.9 -6.8 -38.85 -9.25 -38.65 -11.8 -39.2 -13.95 -40.55 -14.55 -41.75 -14.5 -42.95 -13.9 -45.05 -13.15 -47.0 -12.95 -47.0 -12.35 -46.6 -12.9 -44.35 -13.5 -42.05 Q-11.65 -39.25 -11.25 -45.95 L-6.9 -42.8 -6.55 -42.65 -5.4 -42.05 -4.7 -42.05" fill="url(#gradient23)" fill-rule="evenodd" stroke="none"/>
    <path d="M-4.85 -42.2 L-4.7 -42.05 -5.4 -42.05 -6.55 -42.65 -4.85 -42.2 M-12.35 -46.6 L-12.95 -47.0 -12.25 -46.85 -12.35 -46.6" fill="url(#gradient24)" fill-rule="evenodd" stroke="none"/>
    <path d="M-6.8 -38.75 L-6.9 -38.45 Q-10.3 -35.85 -12.85 -38.9 L-12.95 -39.15 -12.55 -38.9 -6.8 -38.75" fill="url(#gradient25)" fill-rule="evenodd" stroke="none"/>
    <path d="M-12.15 -47.0 L-12.9 -44.35 -12.35 -46.6 -12.25 -46.85 -12.15 -47.0" fill="url(#gradient26)" fill-rule="evenodd" stroke="none"/>
    <path d="M-21.6 -44.6 Q-20.8 -45.25 -19.05 -45.65 L-16.0 -45.85 -15.3 -45.8 -14.95 -44.25 -15.25 -42.95 -15.1 -42.2 -14.8 -41.9 -20.45 -41.45 Q-21.7 -42.6 -21.6 -44.6" fill="url(#gradient27)" fill-rule="evenodd" stroke="none"/>
    <path d="M-16.0 -45.85 L-15.3 -45.85 -15.3 -45.8 -16.0 -45.85" fill="url(#gradient28)" fill-rule="evenodd" stroke="none"/>
    <path d="M-13.9 -45.05 L-14.5 -42.95 -14.55 -41.75 -14.8 -41.9 -15.1 -42.2 -15.25 -42.95 -14.95 -44.25 -14.5 -44.8 -13.9 -45.05" fill="url(#gradient29)" fill-rule="evenodd" stroke="none"/>
    <path d="M-13.95 -40.55 L-13.75 -40.1 -13.85 -40.05 -16.6 -39.8 Q-19.4 -40.15 -19.65 -40.65 L-20.45 -41.3 -20.45 -41.45 -14.8 -41.9 -14.55 -41.75 -13.95 -40.55" fill="url(#gradient30)" fill-rule="evenodd" stroke="none"/>
    <path d="M-21.5 -40.65 L-20.45 -41.3 -19.65 -40.65 -20.15 -40.5 -21.5 -40.65" fill="url(#gradient31)" fill-rule="evenodd" stroke="none"/>
    <path d="M-26.9 -45.25 L-24.25 -45.65 Q-22.8 -45.45 -21.6 -44.6 -21.7 -42.6 -20.45 -41.45 L-20.45 -41.3 -21.5 -40.65 -22.05 -40.5 -26.75 -41.0 -26.8 -42.35 Q-25.95 -43.4 -26.2 -44.25 L-26.9 -45.25" fill="url(#gradient32)" fill-rule="evenodd" stroke="none"/>
    <path d="M-13.75 -40.1 L-13.75 -40.05 -13.85 -40.05 -13.75 -40.1" fill="url(#gradient33)" fill-rule="evenodd" stroke="none"/>
    <path d="M-12.95 -30.8 L-13.75 -33.05 -14.05 -36.25 -12.75 -34.5 -10.55 -33.4 -12.95 -30.8" fill="url(#gradient34)" fill-rule="evenodd" stroke="none"/>
    <path d="M-19.65 -27.1 Q-18.85 -27.55 -18.3 -27.1 L-14.25 -25.85 -13.75 -24.3 -13.15 -23.6 -13.75 -23.45 Q-18.3 -23.9 -19.65 -27.1" fill="url(#gradient35)" fill-rule="evenodd" stroke="none"/>
    <path d="M-20.4 -27.9 L-20.75 -28.55 -20.75 -28.6 Q-20.6 -31.45 -18.65 -31.1 L-16.75 -30.95 -15.25 -30.4 -13.15 -29.0 -13.05 -28.9 -13.45 -28.6 -14.25 -25.85 -18.3 -27.1 Q-18.85 -27.55 -19.65 -27.1 L-20.4 -27.9" fill="url(#gradient36)" fill-rule="evenodd" stroke="none"/>
    <path d="M-20.75 -28.55 L-20.9 -28.4 -21.05 -28.35 -20.75 -28.6 -20.75 -28.55" fill="url(#gradient37)" fill-rule="evenodd" stroke="none"/>
    <path d="M-20.75 -28.55 L-20.4 -27.9 -20.9 -28.4 -20.75 -28.55" fill="url(#gradient38)" fill-rule="evenodd" stroke="none"/>
    <path d="M-18.65 -31.1 Q-20.6 -31.45 -20.75 -28.6 L-21.05 -28.35 Q-25.15 -28.8 -27.25 -34.9 L-25.4 -37.05 Q-20.1 -34.1 -18.65 -31.1" fill="url(#gradient39)" fill-rule="evenodd" stroke="none"/>
    <path d="M-10.75 -27.2 L-11.05 -26.55 -8.8 -22.55 -8.45 -22.05 -8.6 -22.05 -10.75 -22.3 -12.15 -22.85 -13.15 -23.6 -13.75 -24.3 -14.25 -25.85 -13.45 -28.6 -13.05 -28.9 Q-12.85 -27.95 -12.1 -27.55 L-10.75 -27.2" fill="url(#gradient40)" fill-rule="evenodd" stroke="none"/>
    <path d="M-13.15 -29.0 L-15.25 -30.4 -13.15 -29.45 -13.15 -29.0" fill="url(#gradient41)" fill-rule="evenodd" stroke="none"/>
    <path d="M-27.05 -45.35 L-26.9 -45.25 -26.2 -44.25 Q-25.95 -43.4 -26.8 -42.35 L-26.9 -42.35 -28.9 -43.85 -29.3 -44.35 -29.3 -44.9 -27.5 -45.5 -27.05 -45.35" fill="url(#gradient42)" fill-rule="evenodd" stroke="none"/>
    <path d="M-27.05 -45.8 L-27.05 -45.35 -27.5 -45.5 -27.05 -45.8 M-29.85 -39.65 L-29.95 -40.7 Q-28.3 -40.65 -27.85 -41.15 L-26.9 -42.35 -26.8 -42.35 -26.75 -41.0 -26.75 -40.35 -28.4 -40.1 -29.4 -40.0 -29.85 -39.65" fill="url(#gradient43)" fill-rule="evenodd" stroke="none"/>
    <path d="M-30.65 -45.95 L-29.3 -44.9 -29.3 -44.35 -28.9 -43.85 -26.9 -42.35 -27.85 -41.15 Q-28.3 -40.65 -29.95 -40.7 -34.25 -43.05 -30.65 -45.95" fill="url(#gradient44)" fill-rule="evenodd" stroke="none"/>
    <path d="M-27.25 -34.9 Q-32.85 -35.35 -29.85 -39.65 L-29.4 -40.0 -28.4 -40.1 -27.85 -39.9 -27.05 -38.9 -26.3 -37.2 -25.9 -36.9 -25.4 -37.2 -25.4 -37.05 -27.25 -34.9" fill="url(#gradient45)" fill-rule="evenodd" stroke="none"/>
    <path d="M-26.75 -40.35 L-25.55 -39.2 Q-24.9 -38.3 -25.4 -37.2 L-25.9 -36.9 -26.3 -37.2 -27.05 -38.9 -27.85 -39.9 -28.4 -40.1 -26.75 -40.35" fill="url(#gradient46)" fill-rule="evenodd" stroke="none"/>
    <path d="M-8.6 -22.05 Q-6.7 -19.8 -8.0 -17.05 -13.3 -17.9 -12.4 -15.1 L-13.0 -15.25 -13.2 -15.6 -13.5 -16.95 -13.4 -19.3 -13.0 -21.25 -12.4 -22.55 -12.15 -22.85 -10.75 -22.3 -8.6 -22.05" fill="url(#gradient47)" fill-rule="evenodd" stroke="none"/>
    <path d="M-8.45 -22.05 Q-7.6 -20.6 -5.65 -19.0 L-3.95 -18.0 -4.55 -16.6 -5.65 -15.35 -6.3 -15.45 -8.0 -17.05 Q-6.7 -19.8 -8.6 -22.05 L-8.45 -22.05" fill="url(#gradient48)" fill-rule="evenodd" stroke="none"/>
    <path d="M-3.95 -18.0 L-2.9 -17.8 -3.35 -16.05 -4.25 -15.1 -4.55 -15.0 -4.4 -15.45 -4.55 -16.6 -3.95 -18.0" fill="url(#gradient49)" fill-rule="evenodd" stroke="none"/>
    <path d="M-5.65 -15.35 L-4.55 -16.6 -4.4 -15.45 -4.55 -15.0 -4.65 -14.45 -5.2 -13.45 -5.55 -13.4 -5.65 -15.35" fill="url(#gradient50)" fill-rule="evenodd" stroke="none"/>
    <path d="M-4.25 -15.1 L-3.3 -12.7 -3.2 -10.2 -4.25 -11.3 -5.2 -13.45 -4.65 -14.45 -4.55 -15.0 -4.25 -15.1" fill="url(#gradient51)" fill-rule="evenodd" stroke="none"/>
    <path d="M-8.0 -17.05 L-6.3 -15.45 -5.65 -15.35 -5.55 -13.4 -5.55 -11.55 -6.1 -7.55 -6.55 -6.2 -7.6 -3.9 -8.0 -3.25 -8.75 -2.4 -8.95 -2.1 -9.55 -1.9 -10.4 -1.9 -11.15 -2.2 -12.25 -4.4 -12.6 -6.2 -12.6 -6.35 -12.85 -10.0 -12.4 -15.1 Q-13.3 -17.9 -8.0 -17.05" fill="url(#gradient52)" fill-rule="evenodd" stroke="none"/>
    <path d="M-5.55 -13.4 L-5.2 -13.45 -4.25 -11.3 Q-3.2 -7.8 -6.1 -7.55 L-5.55 -11.55 -5.55 -13.4" fill="url(#gradient53)" fill-rule="evenodd" stroke="none"/>
    <path d="M-12.15 -22.85 L-12.4 -22.55 -13.0 -21.25 -13.4 -19.3 -13.6 -19.3 -13.6 -19.35 -14.05 -20.6 Q-14.2 -22.8 -13.75 -23.45 L-13.15 -23.6 -12.15 -22.85" fill="url(#gradient54)" fill-rule="evenodd" stroke="none"/>
    <path d="M-13.4 -19.3 L-13.5 -16.95 -14.1 -14.2 -13.65 -19.3 -13.6 -19.3 -13.4 -19.3" fill="url(#gradient55)" fill-rule="evenodd" stroke="none"/>
    <path d="M-13.6 -19.35 L-13.6 -19.3 -13.65 -19.3 -13.6 -19.35" fill="url(#gradient56)" fill-rule="evenodd" stroke="none"/>
    <path d="M-13.2 -15.6 L-13.0 -15.25 Q-14.4 -11.3 -12.85 -10.0 L-12.6 -6.35 -13.45 -6.2 -13.85 -5.9 -14.1 -7.65 -14.1 -11.9 -14.05 -11.95 -13.2 -15.6" fill="url(#gradient57)" fill-rule="evenodd" stroke="none"/>
    <path d="M-13.0 -15.25 L-12.4 -15.1 -12.85 -10.0 Q-14.4 -11.3 -13.0 -15.25" fill="url(#gradient58)" fill-rule="evenodd" stroke="none"/>
    <path d="M-13.5 -16.95 L-13.2 -15.6 -14.05 -11.95 -14.1 -11.95 -14.1 -14.2 -13.5 -16.95" fill="url(#gradient59)" fill-rule="evenodd" stroke="none"/>
    <path d="M-14.1 -11.95 L-14.05 -11.95 -14.1 -11.9 -14.1 -11.95" fill="url(#gradient60)" fill-rule="evenodd" stroke="none"/>
    <path d="M-12.6 -6.35 L-12.6 -6.2 -12.25 -4.4 -11.15 -2.2 -11.65 -0.85 -12.7 0.55 Q-14.45 1.15 -14.85 -0.6 L-14.85 -3.35 Q-14.8 -4.5 -13.85 -5.9 L-13.45 -6.2 -12.6 -6.35" fill="url(#gradient61)" fill-rule="evenodd" stroke="none"/>
    <path d="M-3.2 -10.2 L-2.75 -6.95 -2.55 -5.7 -2.65 -4.25 -2.65 -4.15 Q-3.7 -1.25 -7.6 -3.9 L-6.55 -6.2 -6.1 -7.55 Q-3.2 -7.8 -4.25 -11.3 L-3.2 -10.2" fill="url(#gradient62)" fill-rule="evenodd" stroke="none"/>
    <path d="M-8.0 -3.25 L-7.6 -3.9 Q-3.7 -1.25 -2.65 -4.15 L-2.4 -3.8 Q-2.2 0.7 -7.35 -2.2 L-8.0 -3.25" fill="url(#gradient63)" fill-rule="evenodd" stroke="none"/>
    <path d="M-11.15 -2.2 L-10.4 -1.9 -9.55 -1.9 -8.95 -2.1 Q-8.0 0.4 -9.4 3.95 -14.2 5.75 -12.7 0.55 L-11.65 -0.85 -11.15 -2.2" fill="url(#gradient64)" fill-rule="evenodd" stroke="none"/>
    <path d="M-8.75 -2.4 L-8.0 -3.25 -7.35 -2.2 -5.6 -0.55 -5.75 -0.45 -7.4 -1.2 -8.75 -2.4" fill="url(#gradient65)" fill-rule="evenodd" stroke="none"/>
    <path d="M-2.4 -3.8 L-2.65 -4.15 -2.65 -4.25 -2.25 -3.9 -2.4 -3.8" fill="url(#gradient66)" fill-rule="evenodd" stroke="none"/>
    <path d="M-12.7 0.55 Q-14.2 5.75 -9.4 3.95 L-10.15 9.6 -10.8 11.95 -11.95 13.0 -14.8 13.45 -16.15 12.6 -16.3 11.55 -16.25 11.35 -16.15 11.25 -16.05 10.65 -15.4 6.85 -15.1 0.95 -15.0 0.9 -14.85 -0.6 Q-14.45 1.15 -12.7 0.55" fill="url(#gradient67)" fill-rule="evenodd" stroke="none"/>
    <path d="M-17.2 11.4 L-16.8 10.95 -16.05 10.65 -16.15 11.25 -16.25 11.35 -16.95 11.85 -17.2 11.4" fill="url(#gradient68)" fill-rule="evenodd" stroke="none"/>
    <path d="M-11.8 14.15 Q-11.15 14.1 -10.45 13.35 L-11.5 15.15 -13.6 16.8 -14.8 17.1 Q-18.3 16.45 -19.1 14.45 L-19.0 13.55 -17.2 11.4 -16.95 11.85 -16.8 12.0 -16.15 12.6 -14.8 13.45 Q-14.1 13.75 -13.45 14.1 L-12.35 14.35 -11.8 14.15" fill="url(#gradient69)" fill-rule="evenodd" stroke="none"/>
    <path d="M-10.8 11.95 L-10.9 12.85 -11.8 14.15 -12.35 14.35 -13.45 14.1 Q-14.1 13.75 -14.8 13.45 L-11.95 13.0 -10.8 11.95 M-14.8 17.1 L-16.95 19.1 Q-18.95 20.1 -18.65 19.5 L-19.45 18.65 -20.7 18.5 Q-21.95 17.35 -19.1 14.45 -18.3 16.45 -14.8 17.1 M-16.8 12.0 L-16.3 11.55 -16.15 12.6 -16.8 12.0" fill="url(#gradient70)" fill-rule="evenodd" stroke="none"/>
    <path d="M-18.65 19.5 L-20.7 18.5 -19.45 18.65 -18.65 19.5" fill="url(#gradient71)" fill-rule="evenodd" stroke="none"/>
  </g>
  <defs>
    <radialGradient cx="0" cy="0" gradientTransform="matrix(0.017, 0.0, 0.0, 0.017, -2.3, -33.15)" gradientUnits="userSpaceOnUse" id="gradient0" r="819.2" spreadMethod="pad">
      <stop offset="0.0" stop-color="#6a634d"/>
      <stop offset="1.0" stop-color="#373428"/>
    </radialGradient>
    <radialGradient cx="0" cy="0" gradientTransform="matrix(0.0051, 0.0, 0.0, 0.0051, -4.85, -40.0)" gradientUnits="userSpaceOnUse" id="gradient1" r="819.2" spreadMethod="pad">
      <stop offset="0.0" stop-color="#9b8d8d"/>
      <stop offset="1.0" stop-color="#5b5353"/>
    </radialGradient>
    <radialGradient cx="0" cy="0" gradientTransform="matrix(0.0036, 0.0, 0.0, 0.0036, -2.4, -39.45)" gradientUnits="userSpaceOnUse" id="gradient2" r="819.2" spreadMethod="pad">
      <stop offset="0.0" stop-color="#948787"/>
      <stop offset="1.0" stop-color="#585151"/>
    </radialGradient>
    <radialGradient cx="0" cy="0" gradientTransform="matrix(0.0023, 0.0, 0.0, 0.0023, -1.9, -38.3)" gradientUnits="userSpaceOnUse" id="gradient3" r="819.2" spreadMethod="pad">
      <stop offset="0.0" stop-color="#474141"/>
      <stop offset="1.0" stop-color="#443e3e"/>
    </radialGradient>
    <radialGradient cx="0" cy="0" gradientTransform="matrix(0.0099, 0.0, 0.0, 0.0099, -6.3, -37.25)" gradientUnits="userSpaceOnUse" id="gradient4" r="819.2" spreadMethod="pad">
      <stop offset="0.0" stop-color="#998b8b"/>
      <stop offset="1.0" stop-color="#726868"/>
    </radialGradient>
    <radialGradient cx="0" cy="0" gradientTransform="matrix(0.0015, 0.0, 0.0, 0.0015, -1.15, -38.15)" gradientUnits="userSpaceOnUse" id="gradient5" r="819.2" spreadMethod="pad">
      <stop offset="0.0" stop-color="#615858"/>
      <stop offset="1.0" stop-color="#605858"/>
    </radialGradient>
    <radialGradient cx="0" cy="0" gradientTransform="matrix(0.0099, 0.0, 0.0, 0.0099, -0.95, -37.7)" gradientUnits="userSpaceOnUse" id="gradient6" r="819.2" spreadMethod="pad">
      <stop offset="0.0" stop-color="#655c5c"/>
      <stop offset="1.0" stop-color="#4a4343"/>
    </radialGradient>
    <radialGradient cx="0" cy="0" gradientTransform="matrix(0.0019, 0.0, 0.0, 0.0019, -1.9, -38.3)" gradientUnits="userSpaceOnUse" id="gradient7" r="819.2" spreadMethod="pad">
      <stop offset="0.0" stop-color="#615858"/>
      <stop offset="1.0" stop-color="#615858"/>
    </radialGradient>
    <radialGradient cx="0" cy="0" gradientTransform="matrix(0.007, 0.0, 0.0, 0.007, 2.2, -31.6)" gradientUnits="userSpaceOnUse" id="gradient8" r="819.2" spreadMethod="pad">
      <stop offset="0.0" stop-color="#121010"/>
      <stop offset="1.0" stop-color="#121010"/>
    </radialGradient>
    <radialGradient cx="0" cy="0" gradientTransform="matrix(0.0208, 0.0, 0.0, 0.0208, 4.55, -12.1)" gradientUnits="userSpaceOnUse" id="gradient9" r="819.2" spreadMethod="pad">
      <stop offset="0.0" stop-color="#2b281f"/>
      <stop offset="1.0" stop-color="#0c0c09"/>
    </radialGradient>
    <radialGradient cx="0" cy="0" gradientTransform="matrix(0.0096, 0.0, 0.0, 0.0096, -5.9, -24.05)" gradientUnits="userSpaceOnUse" id="gradient10" r="819.2" spreadMethod="pad">
      <stop offset="0.0" stop-color="#6b644d"/>
      <stop offset="1.0" stop-color="#524c3b"/>
    </radialGradient>
    <radialGradient cx="0" cy="0" gradientTransform="matrix(0.0121, 0.0, 0.0, 0.0121, -3.45, -28.45)" gradientUnits="userSpaceOnUse" id="gradient11" r="819.2" spreadMethod="pad">
      <stop offset="0.0" stop-color="#7acffd"/>
      <stop offset="1.0" stop-color="#66aed4"/>
    </radialGradient>
    <radialGradient cx="0" cy="0" gradientTransform="matrix(0.0234, 0.0, 0.0, 0.0234, 3.35, -3.8)" gradientUnits="userSpaceOnUse" id="gradient12" r="819.2" spreadMethod="pad">
      <stop offset="0.0" stop-color="#332f25"/>
      <stop offset="1.0" stop-color="#2e2b22"/>
    </radialGradient>
    <radialGradient cx="0" cy="0" gradientTransform="matrix(0.0539, 0.0, 0.0, 0.0539, -34.0, -92.6)" gradientUnits="userSpaceOnUse" id="gradient13" r="819.2" spreadMethod="pad">
      <stop offset="0.0" stop-color="#ffffff"/>
      <stop offset="1.0" stop-color="#fafafa"/>
    </radialGradient>
    <radialGradient cx="0" cy="0" gradientTransform="matrix(0.0079, 0.0, 0.0, 0.0079, -28.95, -49.65)" gradientUnits="userSpaceOnUse" id="gradient14" r="819.2" spreadMethod="pad">
      <stop offset="0.0" stop-color="#adadad"/>
      <stop offset="1.0" stop-color="#adadad"/>
    </radialGradient>
    <radialGradient cx="0" cy="0" gradientTransform="matrix(0.0126, 0.0, 0.0, 0.0126, -29.05, -44.8)" gradientUnits="userSpaceOnUse" id="gradient15" r="819.2" spreadMethod="pad">
      <stop offset="0.0" stop-color="#ffff4f"/>
      <stop offset="1.0" stop-color="#efe444"/>
    </radialGradient>
    <radialGradient cx="0" cy="0" gradientTransform="matrix(0.0158, 0.0, 0.0, 0.0158, -35.4, -49.95)" gradientUnits="userSpaceOnUse" id="gradient16" r="819.2" spreadMethod="pad">
      <stop offset="0.0" stop-color="#f0f0f0"/>
      <stop offset="1.0" stop-color="#eeeeee"/>
    </radialGradient>
    <radialGradient cx="0" cy="0" gradientTransform="matrix(0.0066, 0.0, 0.0, 0.0066, -29.05, -56.5)" gradientUnits="userSpaceOnUse" id="gradient17" r="819.2" spreadMethod="pad">
      <stop offset="0.0" stop-color="#ffff4d"/>
      <stop offset="1.0" stop-color="#fdee47"/>
    </radialGradient>
    <radialGradient cx="0" cy="0" gradientTransform="matrix(0.0058, 0.0, 0.0, 0.0058, -6.85, -42.15)" gradientUnits="userSpaceOnUse" id="gradient18" r="819.2" spreadMethod="pad">
      <stop offset="0.0" stop-color="#5a5441"/>
      <stop offset="1.0" stop-color="#3c382b"/>
    </radialGradient>
    <radialGradient cx="0" cy="0" gradientTransform="matrix(0.0068, 0.0, 0.0, 0.0068, -9.5, -44.6)" gradientUnits="userSpaceOnUse" id="gradient19" r="819.2" spreadMethod="pad">
      <stop offset="0.0" stop-color="#69624c"/>
      <stop offset="1.0" stop-color="#464133"/>
    </radialGradient>
    <radialGradient cx="0" cy="0" gradientTransform="matrix(0.0152, 0.0, 0.0, 0.0152, -10.45, -53.25)" gradientUnits="userSpaceOnUse" id="gradient20" r="819.2" spreadMethod="pad">
      <stop offset="0.0" stop-color="#e7da41"/>
      <stop offset="1.0" stop-color="#9f962d"/>
    </radialGradient>
    <radialGradient cx="0" cy="0" gradientTransform="matrix(0.0078, 0.0, 0.0, 0.0078, -14.85, -43.75)" gradientUnits="userSpaceOnUse" id="gradient21" r="819.2" spreadMethod="pad">
      <stop offset="0.0" stop-color="#55503e"/>
      <stop offset="1.0" stop-color="#2d2a21"/>
    </radialGradient>
    <radialGradient cx="0" cy="0" gradientTransform="matrix(0.0063, 0.0, 0.0, 0.0063, -9.35, -38.55)" gradientUnits="userSpaceOnUse" id="gradient22" r="819.2" spreadMethod="pad">
      <stop offset="0.0" stop-color="#655c5c"/>
      <stop offset="1.0" stop-color="#595151"/>
    </radialGradient>
    <radialGradient cx="0" cy="0" gradientTransform="matrix(0.0092, 0.0, 0.0, 0.0092, -10.5, -45.4)" gradientUnits="userSpaceOnUse" id="gradient23" r="819.2" spreadMethod="pad">
      <stop offset="0.0" stop-color="#665f4a"/>
      <stop offset="1.0" stop-color="#423e30"/>
    </radialGradient>
    <radialGradient cx="0" cy="0" gradientTransform="matrix(0.0118, 0.0, 0.0, 0.0118, -4.9, -42.2)" gradientUnits="userSpaceOnUse" id="gradient24" r="819.2" spreadMethod="pad">
      <stop offset="0.0" stop-color="#2e2b21"/>
      <stop offset="1.0" stop-color="#2a271e"/>
    </radialGradient>
    <radialGradient cx="0" cy="0" gradientTransform="matrix(0.0059, 0.0, 0.0, 0.0059, -8.5, -39.0)" gradientUnits="userSpaceOnUse" id="gradient25" r="819.2" spreadMethod="pad">
      <stop offset="0.0" stop-color="#c1884f"/>
      <stop offset="1.0" stop-color="#9a6c3f"/>
    </radialGradient>
    <radialGradient cx="0" cy="0" gradientTransform="matrix(0.0143, 0.0, 0.0, 0.0143, -10.45, -53.25)" gradientUnits="userSpaceOnUse" id="gradient26" r="819.2" spreadMethod="pad">
      <stop offset="0.0" stop-color="#a3992e"/>
      <stop offset="1.0" stop-color="#918929"/>
    </radialGradient>
    <radialGradient cx="0" cy="0" gradientTransform="matrix(0.0071, 0.0, 0.0, 0.0071, -16.55, -44.15)" gradientUnits="userSpaceOnUse" id="gradient27" r="819.2" spreadMethod="pad">
      <stop offset="0.0" stop-color="#ffee8b"/>
      <stop offset="1.0" stop-color="#cd9154"/>
    </radialGradient>
    <radialGradient cx="0" cy="0" gradientTransform="matrix(0.002, 0.0, 0.0, 0.002, -15.4, -45.8)" gradientUnits="userSpaceOnUse" id="gradient28" r="819.2" spreadMethod="pad">
      <stop offset="0.0" stop-color="#c1884f"/>
      <stop offset="1.0" stop-color="#704f2e"/>
    </radialGradient>
    <radialGradient cx="0" cy="0" gradientTransform="matrix(0.0055, 0.0, 0.0, 0.0055, -13.8, -41.6)" gradientUnits="userSpaceOnUse" id="gradient29" r="819.2" spreadMethod="pad">
      <stop offset="0.0" stop-color="#6cb7e0"/>
      <stop offset="1.0" stop-color="#63a8cd"/>
    </radialGradient>
    <radialGradient cx="0" cy="0" gradientTransform="matrix(0.0053, 0.0, 0.0, 0.0053, -16.65, -42.5)" gradientUnits="userSpaceOnUse" id="gradient30" r="819.2" spreadMethod="pad">
      <stop offset="0.0" stop-color="#ffdb80"/>
      <stop offset="1.0" stop-color="#92673c"/>
    </radialGradient>
    <radialGradient cx="0" cy="0" gradientTransform="matrix(0.0018, 0.0, 0.0, 0.0018, -20.85, -41.4)" gradientUnits="userSpaceOnUse" id="gradient31" r="819.2" spreadMethod="pad">
      <stop offset="0.0" stop-color="#5a99bb"/>
      <stop offset="1.0" stop-color="#294555"/>
    </radialGradient>
    <radialGradient cx="0" cy="0" gradientTransform="matrix(0.0059, 0.0, 0.0, 0.0059, -24.85, -43.35)" gradientUnits="userSpaceOnUse" id="gradient32" r="819.2" spreadMethod="pad">
      <stop offset="0.0" stop-color="#6c654e"/>
      <stop offset="1.0" stop-color="#444032"/>
    </radialGradient>
    <radialGradient cx="0" cy="0" gradientTransform="matrix(0.0063, 0.0, 0.0, 0.0063, -13.95, -40.55)" gradientUnits="userSpaceOnUse" id="gradient33" r="819.2" spreadMethod="pad">
      <stop offset="0.0" stop-color="#121010"/>
      <stop offset="1.0" stop-color="#121010"/>
    </radialGradient>
    <radialGradient cx="0" cy="0" gradientTransform="matrix(0.014, 0.0, 0.0, 0.014, -10.35, -34.0)" gradientUnits="userSpaceOnUse" id="gradient34" r="819.2" spreadMethod="pad">
      <stop offset="0.0" stop-color="#615b47"/>
      <stop offset="1.0" stop-color="#3a362a"/>
    </radialGradient>
    <radialGradient cx="0" cy="0" gradientTransform="matrix(0.0069, 0.0, 0.0, 0.0069, -14.45, -26.35)" gradientUnits="userSpaceOnUse" id="gradient35" r="819.2" spreadMethod="pad">
      <stop offset="0.0" stop-color="#ffe686"/>
      <stop offset="1.0" stop-color="#966a3d"/>
    </radialGradient>
    <radialGradient cx="0" cy="0" gradientTransform="matrix(0.0083, 0.0, 0.0, 0.0083, -14.4, -27.7)" gradientUnits="userSpaceOnUse" id="gradient36" r="819.2" spreadMethod="pad">
      <stop offset="0.0" stop-color="#ffe786"/>
      <stop offset="1.0" stop-color="#ba834c"/>
    </radialGradient>
    <radialGradient cx="0" cy="0" gradientTransform="matrix(0.0019, 0.0, 0.0, 0.0019, -21.1, -28.5)" gradientUnits="userSpaceOnUse" id="gradient37" r="819.2" spreadMethod="pad">
      <stop offset="0.0" stop-color="#211f18"/>
      <stop offset="1.0" stop-color="#201e17"/>
    </radialGradient>
    <radialGradient cx="0" cy="0" gradientTransform="matrix(0.002, 0.0, 0.0, 0.002, -21.05, -29.1)" gradientUnits="userSpaceOnUse" id="gradient38" r="819.2" spreadMethod="pad">
      <stop offset="0.0" stop-color="#4b809c"/>
      <stop offset="1.0" stop-color="#315466"/>
    </radialGradient>
    <radialGradient cx="0" cy="0" gradientTransform="matrix(0.0085, 0.0, 0.0, 0.0085, -22.1, -31.9)" gradientUnits="userSpaceOnUse" id="gradient39" r="819.2" spreadMethod="pad">
      <stop offset="0.0" stop-color="#6e664f"/>
      <stop offset="1.0" stop-color="#443f32"/>
    </radialGradient>
    <radialGradient cx="0" cy="0" gradientTransform="matrix(0.0069, 0.0, 0.0, 0.0069, -10.65, -27.15)" gradientUnits="userSpaceOnUse" id="gradient40" r="819.2" spreadMethod="pad">
      <stop offset="0.0" stop-color="#ffda7f"/>
      <stop offset="1.0" stop-color="#805b34"/>
    </radialGradient>
    <radialGradient cx="0" cy="0" gradientTransform="matrix(0.0031, 0.0, 0.0, 0.0031, -13.5, -28.95)" gradientUnits="userSpaceOnUse" id="gradient41" r="819.2" spreadMethod="pad">
      <stop offset="0.0" stop-color="#ffba6c"/>
      <stop offset="1.0" stop-color="#644729"/>
    </radialGradient>
    <radialGradient cx="0" cy="0" gradientTransform="matrix(0.0033, 0.0, 0.0, 0.0033, -28.45, -44.75)" gradientUnits="userSpaceOnUse" id="gradient42" r="819.2" spreadMethod="pad">
      <stop offset="0.0" stop-color="#6d664f"/>
      <stop offset="1.0" stop-color="#3f3b2d"/>
    </radialGradient>
    <radialGradient cx="0" cy="0" gradientTransform="matrix(0.0103, 0.0, 0.0, 0.0103, -27.75, -39.45)" gradientUnits="userSpaceOnUse" id="gradient43" r="819.2" spreadMethod="pad">
      <stop offset="0.0" stop-color="#395978"/>
      <stop offset="1.0" stop-color="#283f56"/>
    </radialGradient>
    <radialGradient cx="0" cy="0" gradientTransform="matrix(0.0039, 0.0, 0.0, 0.0039, -29.8, -44.0)" gradientUnits="userSpaceOnUse" id="gradient44" r="819.2" spreadMethod="pad">
      <stop offset="0.0" stop-color="#6e6750"/>
      <stop offset="1.0" stop-color="#302d23"/>
    </radialGradient>
    <radialGradient cx="0" cy="0" gradientTransform="matrix(0.004, 0.0, 0.0, 0.004, -28.7, -38.0)" gradientUnits="userSpaceOnUse" id="gradient45" r="819.2" spreadMethod="pad">
      <stop offset="0.0" stop-color="#6e6750"/>
      <stop offset="1.0" stop-color="#3d382c"/>
    </radialGradient>
    <radialGradient cx="0" cy="0" gradientTransform="matrix(0.0029, 0.0, 0.0, 0.0029, -26.7, -38.6)" gradientUnits="userSpaceOnUse" id="gradient46" r="819.2" spreadMethod="pad">
      <stop offset="0.0" stop-color="#6e6750"/>
      <stop offset="1.0" stop-color="#4b4736"/>
    </radialGradient>
    <radialGradient cx="0" cy="0" gradientTransform="matrix(0.0096, 0.0, 0.0, 0.0096, -9.2, -21.75)" gradientUnits="userSpaceOnUse" id="gradient47" r="819.2" spreadMethod="pad">
      <stop offset="0.0" stop-color="#6f6851"/>
      <stop offset="1.0" stop-color="#383428"/>
    </radialGradient>
    <radialGradient cx="0" cy="0" gradientTransform="matrix(0.0091, 0.0, 0.0, 0.0091, -7.55, -22.4)" gradientUnits="userSpaceOnUse" id="gradient48" r="819.2" spreadMethod="pad">
      <stop offset="0.0" stop-color="#6a634d"/>
      <stop offset="1.0" stop-color="#2f2c22"/>
    </radialGradient>
    <radialGradient cx="0" cy="0" gradientTransform="matrix(0.0053, 0.0, 0.0, 0.0053, -3.7, -19.4)" gradientUnits="userSpaceOnUse" id="gradient49" r="819.2" spreadMethod="pad">
      <stop offset="0.0" stop-color="#203244"/>
      <stop offset="1.0" stop-color="#15212c"/>
    </radialGradient>
    <radialGradient cx="0" cy="0" gradientTransform="matrix(0.0052, 0.0, 0.0, 0.0052, -5.05, -17.7)" gradientUnits="userSpaceOnUse" id="gradient50" r="819.2" spreadMethod="pad">
      <stop offset="0.0" stop-color="#24394c"/>
      <stop offset="1.0" stop-color="#16222e"/>
    </radialGradient>
    <radialGradient cx="0" cy="0" gradientTransform="matrix(0.0062, 0.0, 0.0, 0.0062, -5.3, -14.65)" gradientUnits="userSpaceOnUse" id="gradient51" r="819.2" spreadMethod="pad">
      <stop offset="0.0" stop-color="#5f5945"/>
      <stop offset="1.0" stop-color="#363328"/>
    </radialGradient>
    <radialGradient cx="0" cy="0" gradientTransform="matrix(0.0201, 0.0, 0.0, 0.0201, -10.9, -18.3)" gradientUnits="userSpaceOnUse" id="gradient52" r="819.2" spreadMethod="pad">
      <stop offset="0.0" stop-color="#42678a"/>
      <stop offset="1.0" stop-color="#1d2e3e"/>
    </radialGradient>
    <radialGradient cx="0" cy="0" gradientTransform="matrix(0.0076, 0.0, 0.0, 0.0076, -6.1, -13.6)" gradientUnits="userSpaceOnUse" id="gradient53" r="819.2" spreadMethod="pad">
      <stop offset="0.0" stop-color="#585340"/>
      <stop offset="1.0" stop-color="#29271e"/>
    </radialGradient>
    <radialGradient cx="0" cy="0" gradientTransform="matrix(0.0059, 0.0, 0.0, 0.0059, -11.9, -23.5)" gradientUnits="userSpaceOnUse" id="gradient54" r="819.2" spreadMethod="pad">
      <stop offset="0.0" stop-color="#5f5845"/>
      <stop offset="1.0" stop-color="#343025"/>
    </radialGradient>
    <radialGradient cx="0" cy="0" gradientTransform="matrix(0.0062, 0.0, 0.0, 0.0062, -12.85, -19.0)" gradientUnits="userSpaceOnUse" id="gradient55" r="819.2" spreadMethod="pad">
      <stop offset="0.0" stop-color="#615858"/>
      <stop offset="1.0" stop-color="#504848"/>
    </radialGradient>
    <radialGradient cx="0" cy="0" gradientTransform="matrix(0.0043, 0.0, 0.0, 0.0043, -14.05, -22.6)" gradientUnits="userSpaceOnUse" id="gradient56" r="819.2" spreadMethod="pad">
      <stop offset="0.0" stop-color="#0c0c09"/>
      <stop offset="1.0" stop-color="#0c0c09"/>
    </radialGradient>
    <radialGradient cx="0" cy="0" gradientTransform="matrix(0.0078, 0.0, 0.0, 0.0078, -12.8, -11.0)" gradientUnits="userSpaceOnUse" id="gradient57" r="819.2" spreadMethod="pad">
      <stop offset="0.0" stop-color="#375674"/>
      <stop offset="1.0" stop-color="#24374a"/>
    </radialGradient>
    <radialGradient cx="0" cy="0" gradientTransform="matrix(0.007, 0.0, 0.0, 0.007, -12.15, -15.55)" gradientUnits="userSpaceOnUse" id="gradient58" r="819.2" spreadMethod="pad">
      <stop offset="0.0" stop-color="#446a8f"/>
      <stop offset="1.0" stop-color="#203244"/>
    </radialGradient>
    <radialGradient cx="0" cy="0" gradientTransform="matrix(0.0106, 0.0, 0.0, 0.0106, -14.15, -14.15)" gradientUnits="userSpaceOnUse" id="gradient59" r="819.2" spreadMethod="pad">
      <stop offset="0.0" stop-color="#494242"/>
      <stop offset="1.0" stop-color="#121010"/>
    </radialGradient>
    <radialGradient cx="0" cy="0" gradientTransform="matrix(0.0125, 0.0, 0.0, 0.0125, -12.85, -16.45)" gradientUnits="userSpaceOnUse" id="gradient60" r="819.2" spreadMethod="pad">
      <stop offset="0.0" stop-color="#080c10"/>
      <stop offset="1.0" stop-color="#080c10"/>
    </radialGradient>
    <radialGradient cx="0" cy="0" gradientTransform="matrix(0.0082, 0.0, 0.0, 0.0082, -12.75, -5.75)" gradientUnits="userSpaceOnUse" id="gradient61" r="819.2" spreadMethod="pad">
      <stop offset="0.0" stop-color="#84e0ff"/>
      <stop offset="1.0" stop-color="#396176"/>
    </radialGradient>
    <radialGradient cx="0" cy="0" gradientTransform="matrix(0.0102, 0.0, 0.0, 0.0102, -4.8, -10.65)" gradientUnits="userSpaceOnUse" id="gradient62" r="819.2" spreadMethod="pad">
      <stop offset="0.0" stop-color="#474233"/>
      <stop offset="1.0" stop-color="#25231b"/>
    </radialGradient>
    <radialGradient cx="0" cy="0" gradientTransform="matrix(0.0056, 0.0, 0.0, 0.0056, -4.15, -3.85)" gradientUnits="userSpaceOnUse" id="gradient63" r="819.2" spreadMethod="pad">
      <stop offset="0.0" stop-color="#6f6851"/>
      <stop offset="1.0" stop-color="#2c2920"/>
    </radialGradient>
    <radialGradient cx="0" cy="0" gradientTransform="matrix(0.01, 0.0, 0.0, 0.01, -10.8, -2.75)" gradientUnits="userSpaceOnUse" id="gradient64" r="819.2" spreadMethod="pad">
      <stop offset="0.0" stop-color="#716a52"/>
      <stop offset="1.0" stop-color="#373327"/>
    </radialGradient>
    <radialGradient cx="0" cy="0" gradientTransform="matrix(0.0048, 0.0, 0.0, 0.0048, -6.85, -1.1)" gradientUnits="userSpaceOnUse" id="gradient65" r="819.2" spreadMethod="pad">
      <stop offset="0.0" stop-color="#68afd6"/>
      <stop offset="1.0" stop-color="#5590b0"/>
    </radialGradient>
    <radialGradient cx="0" cy="0" gradientTransform="matrix(0.0022, 0.0, 0.0, 0.0022, -2.55, -4.05)" gradientUnits="userSpaceOnUse" id="gradient66" r="819.2" spreadMethod="pad">
      <stop offset="0.0" stop-color="#0e181e"/>
      <stop offset="1.0" stop-color="#0e181e"/>
    </radialGradient>
    <radialGradient cx="0" cy="0" gradientTransform="matrix(0.0187, 0.0, 0.0, 0.0187, -13.3, -1.25)" gradientUnits="userSpaceOnUse" id="gradient67" r="819.2" spreadMethod="pad">
      <stop offset="0.0" stop-color="#69624c"/>
      <stop offset="1.0" stop-color="#312e23"/>
    </radialGradient>
    <radialGradient cx="0" cy="0" gradientTransform="matrix(0.0032, 0.0, 0.0, 0.0032, -17.5, 11.6)" gradientUnits="userSpaceOnUse" id="gradient68" r="819.2" spreadMethod="pad">
      <stop offset="0.0" stop-color="#0e181e"/>
      <stop offset="1.0" stop-color="#0e181e"/>
    </radialGradient>
    <radialGradient cx="0" cy="0" gradientTransform="matrix(0.0069, 0.0, 0.0, 0.0069, -15.9, 14.9)" gradientUnits="userSpaceOnUse" id="gradient69" r="819.2" spreadMethod="pad">
      <stop offset="0.0" stop-color="#83dfff"/>
      <stop offset="1.0" stop-color="#4b809d"/>
    </radialGradient>
    <radialGradient cx="0" cy="0" gradientTransform="matrix(0.0116, 0.0, 0.0, 0.0116, -13.95, 11.95)" gradientUnits="userSpaceOnUse" id="gradient70" r="819.2" spreadMethod="pad">
      <stop offset="0.0" stop-color="#756e55"/>
      <stop offset="1.0" stop-color="#6b644d"/>
    </radialGradient>
    <radialGradient cx="0" cy="0" gradientTransform="matrix(0.0034, 0.0, 0.0, 0.0034, -21.05, 18.3)" gradientUnits="userSpaceOnUse" id="gradient71" r="819.2" spreadMethod="pad">
      <stop offset="0.0" stop-color="#3f3b2e"/>
      <stop offset="1.0" stop-color="#3b372b"/>
    </radialGradient>
  </defs>
</svg>
