<?xml version="1.0" encoding="UTF-8" standalone="no"?>
<svg xmlns:ffdec="https://www.free-decompiler.com/flash" xmlns:xlink="http://www.w3.org/1999/xlink" ffdec:objectType="shape" height="82.7px" width="63.9px" xmlns="http://www.w3.org/2000/svg">
  <g transform="matrix(1.0, 0.0, 0.0, 1.0, 43.2, 27.1)">
    <path d="M3.7 -23.15 L-0.7 -24.75 -0.85 -24.85 0.6 -24.45 Q10.0 -24.6 15.6 -22.3 21.2 -19.95 20.65 -17.15 9.0 -22.8 3.7 -23.15" fill="url(#gradient0)" fill-rule="evenodd" stroke="none"/>
    <path d="M-0.85 -24.85 L-0.7 -24.75 3.7 -23.15 Q-3.4 -21.6 -6.05 -17.9 -5.85 -18.75 -8.7 -20.8 L-11.2 -22.3 -11.35 -23.2 -11.65 -23.5 -14.95 -24.45 -13.15 -25.6 -9.75 -27.0 -6.35 -26.75 -1.05 -24.9 -0.9 -24.85 -0.85 -24.85 M-38.0 -21.6 L-38.0 -21.5 -38.1 -21.5 -38.0 -21.6" fill="url(#gradient1)" fill-rule="evenodd" stroke="none"/>
    <path d="M-19.75 -26.7 L-17.75 -26.45 -22.35 -26.2 -22.75 -26.3 -22.05 -26.6 -19.75 -26.7" fill="url(#gradient2)" fill-rule="evenodd" stroke="none"/>
    <path d="M-9.75 -27.0 L-13.15 -25.6 -14.95 -24.45 Q-17.55 -25.2 -22.75 -16.2 L-23.5 -16.3 Q-24.4 -16.85 -24.75 -18.0 L-25.5 -21.7 -25.45 -22.3 -26.35 -23.0 -26.25 -23.2 -25.5 -24.0 -25.75 -24.35 -25.75 -24.45 -24.3 -25.8 -22.95 -26.2 -22.35 -26.2 -17.75 -26.45 -9.75 -27.0 M-27.9 -26.1 L-29.1 -25.15 -30.4 -24.75 -30.95 -24.2 -33.25 -23.75 Q-34.3 -23.6 -35.8 -21.7 L-36.65 -23.9 Q-34.45 -27.25 -27.9 -26.1 M-37.05 -23.35 L-36.85 -22.35 -36.8 -22.3 -36.8 -22.0 -36.75 -21.9 -36.75 -21.7 -36.65 -21.5 -36.65 -21.4 -36.55 -21.15 -36.55 -21.0 -36.5 -20.75 -36.5 -20.7 -36.4 -20.35 -36.4 -20.3 -37.25 -19.9 -37.2 -18.5 -37.25 -18.5 -37.8 -19.75 -38.0 -21.5 -38.0 -21.6 -37.9 -22.35 -37.05 -23.35" fill="url(#gradient3)" fill-rule="evenodd" stroke="none"/>
    <path d="M-19.75 -26.7 L-22.05 -26.6 -22.75 -26.3 -22.95 -26.2 -24.3 -25.8 -25.75 -24.45 Q-26.35 -25.8 -29.1 -25.15 L-27.9 -26.1 -24.6 -27.0 -19.75 -26.7" fill="url(#gradient4)" fill-rule="evenodd" stroke="none"/>
    <path d="M-26.35 -23.0 L-25.45 -22.3 -25.5 -21.7 -24.75 -18.0 Q-24.4 -16.85 -23.5 -16.3 L-22.75 -16.2 -22.9 -15.15 -23.75 -13.4 -23.65 -12.9 -24.35 -12.05 -26.9 -10.55 -28.5 -10.1 -30.4 -10.7 -31.65 -11.45 -33.05 -12.7 Q-28.1 -10.5 -27.8 -13.4 L-27.35 -14.55 -27.2 -15.85 -26.6 -17.35 -26.75 -18.05 -25.9 -17.55 -25.8 -19.9 -26.25 -21.85 -26.8 -22.9 -26.9 -23.05 -26.35 -23.0" fill="url(#gradient5)" fill-rule="evenodd" stroke="none"/>
    <path d="M-26.8 -22.9 L-26.25 -21.85 -25.8 -19.9 -25.9 -17.55 -26.75 -18.05 -26.95 -18.15 -27.05 -19.35 Q-27.05 -22.65 -29.2 -23.8 L-28.2 -23.7 -27.3 -23.0 -27.05 -22.9 -26.8 -22.9" fill="url(#gradient6)" fill-rule="evenodd" stroke="none"/>
    <path d="M-25.75 -24.35 L-25.5 -24.0 -26.25 -23.2 -26.35 -23.6 -25.75 -24.35" fill="url(#gradient7)" fill-rule="evenodd" stroke="none"/>
    <path d="M-29.1 -25.15 Q-26.35 -25.8 -25.75 -24.45 L-25.75 -24.35 -26.35 -23.6 -26.25 -23.2 -26.35 -23.0 -26.9 -23.05 -27.9 -24.05 -29.5 -24.45 -30.5 -24.3 -30.95 -24.2 -30.4 -24.75 -29.1 -25.15" fill="url(#gradient8)" fill-rule="evenodd" stroke="none"/>
    <path d="M-27.2 -23.0 L-27.05 -22.9 -27.3 -23.0 -27.2 -23.0" fill="url(#gradient9)" fill-rule="evenodd" stroke="none"/>
    <path d="M-27.05 -22.9 L-27.2 -23.0 -27.9 -24.05 -26.9 -23.05 -26.8 -22.9 -27.05 -22.9" fill="url(#gradient10)" fill-rule="evenodd" stroke="none"/>
    <path d="M-27.2 -23.0 L-27.3 -23.0 -28.2 -23.7 -29.2 -23.8 -30.5 -24.3 -29.5 -24.45 -27.9 -24.05 -27.2 -23.0" fill="url(#gradient11)" fill-rule="evenodd" stroke="none"/>
    <path d="M-29.2 -23.8 Q-27.05 -22.65 -27.05 -19.35 L-27.1 -19.65 -27.3 -19.55 -28.75 -19.05 -30.95 -19.05 -31.2 -19.15 -31.55 -19.15 -31.75 -19.2 -35.0 -19.65 -35.8 -21.7 Q-34.3 -23.6 -33.25 -23.75 L-30.95 -24.2 -30.5 -24.3 -29.2 -23.8" fill="url(#gradient12)" fill-rule="evenodd" stroke="none"/>
    <path d="M-26.75 -18.05 L-26.6 -17.35 -27.2 -15.85 -27.65 -15.4 Q-29.75 -13.0 -34.9 -13.7 -36.15 -14.2 -36.35 -14.85 L-37.1 -18.3 -37.2 -18.5 -37.25 -19.9 -36.4 -19.85 -36.35 -19.85 -36.0 -18.55 -35.25 -15.2 Q-32.15 -13.75 -35.0 -19.65 L-31.75 -19.2 -31.55 -19.15 -31.2 -19.15 -30.95 -19.05 -28.75 -19.05 -27.9 -19.05 -27.3 -19.55 -27.1 -19.65 -27.05 -19.35 -26.95 -18.15 -26.75 -18.05" fill="url(#gradient13)" fill-rule="evenodd" stroke="none"/>
    <path d="M-28.75 -19.05 L-27.3 -19.55 -27.9 -19.05 -28.75 -19.05 M-37.25 -19.9 L-36.4 -20.3 -36.4 -20.15 -36.4 -19.85 -37.25 -19.9" fill="url(#gradient14)" fill-rule="evenodd" stroke="none"/>
    <path d="M-27.2 -15.85 L-27.35 -14.55 -27.8 -13.4 Q-28.1 -10.5 -33.05 -12.7 L-33.25 -12.9 -30.8 -13.0 -30.1 -13.4 Q-29.3 -13.5 -28.05 -14.7 L-27.65 -15.4 -27.2 -15.85" fill="url(#gradient15)" fill-rule="evenodd" stroke="none"/>
    <path d="M-27.65 -15.4 L-28.05 -14.7 Q-29.3 -13.5 -30.1 -13.4 L-30.8 -13.0 -33.25 -12.9 -33.85 -13.0 -34.9 -13.7 Q-29.75 -13.0 -27.65 -15.4" fill="url(#gradient16)" fill-rule="evenodd" stroke="none"/>
    <path d="M-14.95 -24.45 L-11.65 -23.5 -11.35 -23.2 -11.2 -22.3 Q-11.55 -20.8 -12.65 -19.45 L-16.7 -15.3 -17.15 -14.7 -17.5 -13.4 -17.3 -10.7 Q-18.3 -8.8 -21.4 -9.9 L-21.6 -10.0 -22.3 -10.75 -23.65 -12.9 -23.75 -13.4 -22.9 -15.15 -22.75 -16.2 Q-17.55 -25.2 -14.95 -24.45" fill="url(#gradient17)" fill-rule="evenodd" stroke="none"/>
    <path d="M-36.4 -20.15 L-36.35 -19.85 -36.4 -19.85 -36.4 -20.15" fill="url(#gradient18)" fill-rule="evenodd" stroke="none"/>
    <path d="M-36.4 -20.3 L-36.0 -18.55 -36.35 -19.85 -36.4 -20.15 -36.4 -20.3" fill="url(#gradient19)" fill-rule="evenodd" stroke="none"/>
    <path d="M-35.8 -21.7 L-35.0 -19.65 Q-32.15 -13.75 -35.25 -15.2 L-36.0 -18.55 -36.4 -20.3 -36.4 -20.35 -36.5 -20.7 -36.5 -20.75 -36.55 -21.0 -36.55 -21.15 -36.65 -21.4 -36.65 -21.5 -36.75 -21.7 -36.75 -21.9 -36.8 -22.0 -36.8 -22.3 -36.85 -22.35 -37.05 -23.35 -37.7 -26.6 -36.65 -23.9 -35.8 -21.7" fill="url(#gradient20)" fill-rule="evenodd" stroke="none"/>
    <path d="M-33.05 -12.7 L-31.65 -11.45 -31.1 -10.6 -30.8 -9.9 -30.8 -9.75 -30.95 -8.95 -32.6 -8.85 -32.8 -8.85 -35.0 -10.0 -36.35 -11.85 -39.85 -15.6 Q-41.25 -19.25 -38.1 -21.5 L-38.0 -21.5 -37.8 -19.75 -37.25 -18.5 -37.1 -18.3 -36.35 -14.85 Q-36.15 -14.2 -34.9 -13.7 L-33.85 -13.0 -33.25 -12.9 -33.05 -12.7" fill="url(#gradient21)" fill-rule="evenodd" stroke="none"/>
    <path d="M-37.25 -18.5 L-37.2 -18.5 -37.1 -18.3 -37.25 -18.5" fill="url(#gradient22)" fill-rule="evenodd" stroke="none"/>
    <path d="M-32.8 -8.85 L-32.6 -8.85 -31.65 -7.1 -30.1 -5.25 Q-31.45 -6.2 -32.05 -7.3 L-32.8 -8.85" fill="url(#gradient23)" fill-rule="evenodd" stroke="none"/>
    <path d="M-30.4 -10.7 L-28.5 -10.1 -24.9 -5.85 -24.8 -5.6 Q-25.05 -2.2 -26.8 -2.95 L-28.45 -3.75 -30.1 -5.25 -31.65 -7.1 -32.6 -8.85 -30.95 -8.95 -30.8 -9.75 -30.65 -9.75 -30.8 -9.9 -31.1 -10.6 -30.4 -10.7" fill="url(#gradient24)" fill-rule="evenodd" stroke="none"/>
    <path d="M-39.85 -15.6 L-36.35 -11.85 -35.0 -10.0 Q-41.05 -10.45 -39.85 -15.6 M-30.8 -9.75 L-30.8 -9.9 -30.65 -9.75 -30.8 -9.75" fill="url(#gradient25)" fill-rule="evenodd" stroke="none"/>
    <path d="M-23.5 -10.6 L-22.3 -10.75 -21.6 -10.0 -22.45 -9.85 -22.6 -9.4 -23.05 -9.25 -23.5 -10.6 M-21.5 -9.45 L-21.75 -7.7 -22.3 -8.1 -22.45 -8.25 -22.05 -9.15 -21.5 -9.45" fill="url(#gradient26)" fill-rule="evenodd" stroke="none"/>
    <path d="M-26.9 -10.55 L-24.35 -12.05 -23.65 -12.9 -22.3 -10.75 -23.5 -10.6 -26.65 -10.55 -26.9 -10.55" fill="url(#gradient27)" fill-rule="evenodd" stroke="none"/>
    <path d="M-21.6 -10.0 L-21.4 -9.9 -21.5 -9.45 -22.05 -9.15 -22.45 -8.25 -23.15 -6.6 -23.25 -5.4 -23.5 -5.45 -23.05 -9.25 -22.6 -9.4 -22.45 -9.85 -21.6 -10.0" fill="url(#gradient28)" fill-rule="evenodd" stroke="none"/>
    <path d="M-21.4 -9.9 Q-18.3 -8.8 -17.3 -10.7 L-16.5 -10.75 -16.3 -8.7 -15.3 -6.75 -19.35 -3.7 -19.9 -3.55 -20.45 -3.85 -20.95 -4.6 -21.4 -5.45 -21.75 -7.7 -21.5 -9.45 -21.4 -9.9" fill="url(#gradient29)" fill-rule="evenodd" stroke="none"/>
    <path d="M-28.5 -10.1 L-26.9 -10.55 -26.65 -10.55 -25.35 -8.45 -24.8 -6.3 -24.9 -5.85 -28.5 -10.1" fill="url(#gradient30)" fill-rule="evenodd" stroke="none"/>
    <path d="M-22.45 -8.25 L-22.3 -8.1 -22.2 -4.25 -23.25 -5.4 -23.15 -6.6 -22.45 -8.25" fill="url(#gradient31)" fill-rule="evenodd" stroke="none"/>
    <path d="M-31.65 -11.45 L-30.4 -10.7 -31.1 -10.6 -31.65 -11.45" fill="url(#gradient32)" fill-rule="evenodd" stroke="none"/>
    <path d="M-23.25 -5.4 L-22.2 -4.25 -22.1 -4.15 -21.4 -3.65 -20.75 -2.85 -18.35 0.6 -18.35 0.75 -18.65 1.55 -18.75 1.6 -19.3 1.6 -19.95 2.15 -20.45 3.4 -20.9 2.85 -22.3 2.0 -24.05 1.0 -25.8 -0.55 -26.45 -2.0 -26.5 -2.25 -26.8 -2.95 Q-25.05 -2.2 -24.8 -5.6 L-24.3 -5.7 -23.5 -5.45 -23.25 -5.4" fill="url(#gradient33)" fill-rule="evenodd" stroke="none"/>
    <path d="M-21.4 -5.45 L-20.95 -4.6 -21.4 -3.65 -22.1 -4.15 -22.1 -4.25 -21.4 -5.45 M-24.75 5.25 L-24.6 3.2 -24.05 1.0 -22.3 2.0 -22.9 5.25 -24.5 5.25 -24.75 5.25" fill="url(#gradient34)" fill-rule="evenodd" stroke="none"/>
    <path d="M-22.2 -4.25 L-22.1 -4.25 -22.1 -4.15 -22.2 -4.25" fill="url(#gradient35)" fill-rule="evenodd" stroke="none"/>
    <path d="M-24.8 -5.6 L-24.9 -5.85 -24.8 -6.3 -24.3 -5.7 -24.8 -5.6" fill="url(#gradient36)" fill-rule="evenodd" stroke="none"/>
    <path d="M-11.2 -22.3 L-8.7 -20.8 Q-5.85 -18.75 -6.05 -17.9 L-6.45 -15.75 Q-7.55 -13.9 -9.2 -13.1 L-9.3 -13.0 -13.0 -11.55 -16.5 -10.75 -17.3 -10.7 -17.5 -13.4 -17.15 -14.7 -16.7 -15.3 -12.65 -19.45 Q-11.55 -20.8 -11.2 -22.3" fill="url(#gradient37)" fill-rule="evenodd" stroke="none"/>
    <path d="M-9.3 -13.0 L-9.2 -13.1 -9.2 -12.5 -9.3 -13.0" fill="url(#gradient38)" fill-rule="evenodd" stroke="none"/>
    <path d="M-9.3 -13.0 L-9.2 -12.5 -9.2 -12.0 -9.35 -10.2 -10.05 -8.55 -10.2 -8.3 -10.75 -7.8 Q-12.55 -6.55 -13.0 -11.55 L-9.3 -13.0" fill="url(#gradient39)" fill-rule="evenodd" stroke="none"/>
    <path d="M-20.45 -3.85 L-19.9 -3.55 -19.35 -3.7 -15.3 -6.75 -15.05 -6.45 -15.45 -5.45 -15.2 -2.7 -15.9 -2.6 -16.5 -2.7 -16.8 -2.3 -17.65 -1.7 -18.2 -0.65 -18.2 -0.55 -18.35 0.6 -20.75 -2.85 -20.45 -3.85 M-22.3 2.0 L-20.9 2.85 -20.45 3.4 -20.35 3.45 -20.35 4.05 -20.25 4.85 -20.25 4.9 -21.5 4.75 -21.75 4.75 -21.9 5.25 -22.9 5.25 -22.3 2.0" fill="url(#gradient40)" fill-rule="evenodd" stroke="none"/>
    <path d="M-15.3 -6.75 L-16.3 -8.7 -16.5 -10.75 -13.0 -11.55 Q-12.55 -6.55 -10.75 -7.8 L-10.75 -7.7 -10.8 -7.55 Q-12.1 -4.4 -15.05 -6.45 L-15.3 -6.75" fill="url(#gradient41)" fill-rule="evenodd" stroke="none"/>
    <path d="M-20.95 -4.6 L-20.45 -3.85 -20.75 -2.85 -21.4 -3.65 -20.95 -4.6" fill="url(#gradient42)" fill-rule="evenodd" stroke="none"/>
    <path d="M-16.75 -2.15 L-16.8 -2.3 -16.5 -2.7 -15.9 -2.6 -16.05 -2.4 -16.75 -2.15 M-18.35 0.75 L-17.95 0.4 -17.65 0.45 -16.8 1.45 -18.35 1.7 -18.65 1.6 -18.65 1.55 -18.35 0.75 M-20.15 4.45 L-19.65 4.45 -19.35 5.05 -20.25 4.9 -20.25 4.85 -20.15 4.45" fill="url(#gradient43)" fill-rule="evenodd" stroke="none"/>
    <path d="M-16.8 -2.3 L-16.75 -2.15 -17.5 -1.55 -18.15 -0.65 -18.2 -0.65 -17.65 -1.7 -16.8 -2.3 M-16.05 -2.4 L-15.9 -2.6 -15.2 -2.7 -15.2 -2.3 -16.05 -2.4 M-16.2 1.6 L-14.85 -1.4 -13.15 0.2 -12.75 0.15 -13.05 1.55 Q-13.45 2.4 -15.05 2.85 L-16.2 1.6" fill="url(#gradient44)" fill-rule="evenodd" stroke="none"/>
    <path d="M-18.2 -0.65 L-18.15 -0.65 -18.2 -0.55 -18.2 -0.65" fill="url(#gradient45)" fill-rule="evenodd" stroke="none"/>
    <path d="M-16.75 -2.15 L-16.05 -2.4 -15.2 -2.3 -14.85 -1.4 -16.2 1.6 -16.8 1.45 -17.65 0.45 -17.95 0.4 -18.35 0.75 -18.35 0.6 -18.2 -0.55 -18.15 -0.65 -17.5 -1.55 -16.75 -2.15" fill="url(#gradient46)" fill-rule="evenodd" stroke="none"/>
    <path d="M-15.05 -6.45 Q-12.1 -4.4 -10.8 -7.55 L-10.05 -7.7 -9.75 -5.85 -9.75 -5.7 -10.2 -3.55 -11.15 -1.9 -12.75 0.15 -13.15 0.2 -14.85 -1.4 -15.2 -2.3 -15.2 -2.7 -15.45 -5.45 -15.05 -6.45" fill="url(#gradient47)" fill-rule="evenodd" stroke="none"/>
    <path d="M-6.55 -9.6 L-5.05 -8.55 -3.6 -6.9 Q-3.8 -2.35 -8.85 -5.0 L-9.75 -5.7 -9.75 -5.85 Q-4.4 -6.0 -7.8 -9.25 L-6.6 -9.3 -6.55 -9.6" fill="url(#gradient48)" fill-rule="evenodd" stroke="none"/>
    <path d="M-9.35 -10.2 L-9.2 -12.0 -8.15 -11.45 Q-6.65 -10.25 -6.55 -9.6 L-6.6 -9.3 -7.8 -9.25 -9.3 -9.9 -9.35 -10.2" fill="url(#gradient49)" fill-rule="evenodd" stroke="none"/>
    <path d="M-10.05 -8.55 L-9.35 -10.2 -9.3 -9.9 -9.35 -9.15 -10.05 -8.55" fill="url(#gradient50)" fill-rule="evenodd" stroke="none"/>
    <path d="M-10.75 -7.8 L-10.2 -8.3 -10.3 -7.9 -10.75 -7.7 -10.75 -7.8" fill="url(#gradient51)" fill-rule="evenodd" stroke="none"/>
    <path d="M-10.2 -8.3 L-10.05 -8.55 -9.35 -9.15 -9.3 -9.9 -7.8 -9.25 Q-4.4 -6.0 -9.75 -5.85 L-10.05 -7.7 -10.3 -7.9 -10.2 -8.3" fill="url(#gradient52)" fill-rule="evenodd" stroke="none"/>
    <path d="M-10.8 -7.55 L-10.75 -7.7 -10.3 -7.9 -10.05 -7.7 -10.8 -7.55" fill="url(#gradient53)" fill-rule="evenodd" stroke="none"/>
    <path d="M-3.6 -6.9 Q-1.25 -5.05 -3.15 -3.0 L-5.85 -2.7 -7.5 -3.0 -8.4 -3.95 -8.85 -5.0 Q-3.8 -2.35 -3.6 -6.9" fill="url(#gradient54)" fill-rule="evenodd" stroke="none"/>
    <path d="M-7.5 -3.0 Q-7.25 -2.4 -5.4 -1.45 L-7.05 -1.7 -9.15 -2.7 -10.2 -3.55 -9.75 -5.7 -8.85 -5.0 -8.4 -3.95 -7.5 -3.0" fill="url(#gradient55)" fill-rule="evenodd" stroke="none"/>
    <path d="M-20.45 3.4 L-19.95 2.15 -19.3 1.6 -18.75 1.6 -18.65 1.6 -18.35 1.7 -17.45 3.45 -17.2 4.45 -17.3 5.05 -17.75 5.7 -19.35 5.05 -19.65 4.45 -20.15 4.45 -20.35 4.05 -20.35 3.45 -20.45 3.4" fill="url(#gradient56)" fill-rule="evenodd" stroke="none"/>
    <path d="M-18.75 1.6 L-18.65 1.55 -18.65 1.6 -18.75 1.6" fill="url(#gradient57)" fill-rule="evenodd" stroke="none"/>
    <path d="M-16.8 1.45 L-16.2 1.6 -15.05 2.85 Q-13.7 6.05 -17.75 6.9 L-17.75 5.7 -17.3 5.05 -17.2 4.45 -17.45 3.45 -18.35 1.7 -16.8 1.45 M-20.35 4.05 L-20.15 4.45 -20.25 4.85 -20.35 4.05" fill="url(#gradient58)" fill-rule="evenodd" stroke="none"/>
    <path d="M-17.75 6.9 L-17.75 8.05 -17.95 9.5 -19.0 10.65 -18.8 11.15 -18.9 11.45 -19.65 13.05 -20.15 14.05 -21.1 14.45 -22.35 14.9 -23.8 10.75 -24.1 9.95 -22.9 7.15 -22.6 7.05 -22.05 7.45 -22.0 7.15 -21.9 5.25 -21.75 4.75 -21.5 4.75 -20.25 4.9 -19.35 5.05 -17.75 5.7 -17.75 6.9" fill="url(#gradient59)" fill-rule="evenodd" stroke="none"/>
    <path d="M-18.8 11.15 L-19.0 10.65 -17.95 9.5 -17.35 12.15 -17.2 12.95 -17.85 12.45 -18.8 11.15 M-24.5 5.25 L-22.9 5.25 -21.9 5.25 -22.0 7.15 -22.05 7.45 -22.6 7.05 -24.1 5.7 -24.5 5.25" fill="url(#gradient60)" fill-rule="evenodd" stroke="none"/>
    <path d="M-18.9 11.45 L-18.8 11.15 -17.85 12.45 -17.9 12.45 -18.9 11.45 M-24.1 5.7 L-22.6 7.05 -22.9 7.15 -24.1 5.7" fill="url(#gradient61)" fill-rule="evenodd" stroke="none"/>
    <path d="M-17.75 8.05 L-16.8 9.6 -16.6 11.05 -17.35 12.15 -17.95 9.5 -17.75 8.05 M-17.9 12.45 L-19.05 13.05 -19.65 13.05 -18.9 11.45 -17.9 12.45" fill="url(#gradient62)" fill-rule="evenodd" stroke="none"/>
    <path d="M-16.8 9.6 L-14.3 14.0 -13.75 16.45 Q-14.0 18.05 -17.6 19.05 L-19.45 18.05 -19.75 17.5 -19.95 17.0 -21.2 14.7 -21.2 14.6 -21.1 14.6 -21.1 14.5 -21.1 14.45 -20.15 14.05 -19.65 13.05 -19.05 13.05 -17.9 12.45 -17.85 12.45 -17.2 12.95 -17.35 12.15 -16.6 11.05 -16.8 9.6" fill="url(#gradient63)" fill-rule="evenodd" stroke="none"/>
    <path d="M-13.75 16.45 L-13.7 18.2 -14.6 19.65 -15.9 19.75 -17.6 19.05 Q-14.0 18.05 -13.75 16.45 M-17.65 22.6 L-19.8 24.5 Q-21.6 25.4 -21.5 24.8 L-22.2 24.05 -23.6 23.9 -23.8 23.8 -23.9 23.2 -23.8 22.4 -22.05 19.9 -21.9 19.8 -21.9 20.05 -22.05 20.3 Q-20.1 22.65 -17.65 22.6 M-19.9 17.65 L-19.75 17.5 -19.45 18.05 -19.9 17.65" fill="url(#gradient64)" fill-rule="evenodd" stroke="none"/>
    <path d="M-21.2 14.6 L-21.1 14.5 -21.1 14.6 -21.2 14.6" fill="url(#gradient65)" fill-rule="evenodd" stroke="none"/>
    <path d="M-21.2 14.7 L-38.4 49.95 -43.2 55.6 -41.35 47.8 -24.35 11.7 -23.8 10.75 -22.35 14.9 -21.1 14.45 -21.1 14.5 -21.2 14.6 -21.2 14.7" fill="url(#gradient66)" fill-rule="evenodd" stroke="none"/>
    <path d="M-20.2 17.1 L-19.95 17.0 -19.75 17.5 -19.9 17.65 -20.2 17.1" fill="url(#gradient67)" fill-rule="evenodd" stroke="none"/>
    <path d="M-14.6 19.65 Q-13.85 19.65 -13.05 18.85 L-14.0 20.5 -16.35 22.3 -17.65 22.6 Q-20.1 22.65 -22.05 20.3 L-21.9 20.05 -21.9 19.8 -22.05 19.9 -21.6 18.9 -20.2 17.1 -19.9 17.65 -19.45 18.05 -17.6 19.05 -15.9 19.75 -14.6 19.65" fill="url(#gradient68)" fill-rule="evenodd" stroke="none"/>
    <path d="M-24.2 10.6 Q-28.25 6.65 -24.75 5.25 L-24.5 5.25 -24.1 5.7 -22.9 7.15 -24.1 9.95 -24.2 10.6" fill="url(#gradient69)" fill-rule="evenodd" stroke="none"/>
    <path d="M-24.35 11.7 L-24.2 10.6 -24.1 9.95 -23.8 10.75 -24.35 11.7" fill="url(#gradient70)" fill-rule="evenodd" stroke="none"/>
    <path d="M-21.5 24.8 L-23.6 23.9 -22.2 24.05 -21.5 24.8" fill="url(#gradient71)" fill-rule="evenodd" stroke="none"/>
  </g>
  <defs>
    <radialGradient cx="0" cy="0" gradientTransform="matrix(0.0414, 0.0, 0.0, 0.0414, 18.75, -18.3)" gradientUnits="userSpaceOnUse" id="gradient0" r="819.2" spreadMethod="pad">
      <stop offset="0.0" stop-color="#3b372b"/>
      <stop offset="1.0" stop-color="#1e1c15"/>
    </radialGradient>
    <radialGradient cx="0" cy="0" gradientTransform="matrix(0.0497, 0.0, 0.0, 0.0497, 2.5, -24.1)" gradientUnits="userSpaceOnUse" id="gradient1" r="819.2" spreadMethod="pad">
      <stop offset="0.0" stop-color="#1e1c16"/>
      <stop offset="1.0" stop-color="#0c0c09"/>
    </radialGradient>
    <radialGradient cx="0" cy="0" gradientTransform="matrix(0.0118, 0.0, 0.0, 0.0118, -19.25, -26.8)" gradientUnits="userSpaceOnUse" id="gradient2" r="819.2" spreadMethod="pad">
      <stop offset="0.0" stop-color="#1d1a1a"/>
      <stop offset="1.0" stop-color="#121010"/>
    </radialGradient>
    <radialGradient cx="0" cy="0" gradientTransform="matrix(0.0209, 0.0, 0.0, 0.0209, -21.0, -20.7)" gradientUnits="userSpaceOnUse" id="gradient3" r="819.2" spreadMethod="pad">
      <stop offset="0.0" stop-color="#69624c"/>
      <stop offset="1.0" stop-color="#39352a"/>
    </radialGradient>
    <radialGradient cx="0" cy="0" gradientTransform="matrix(0.0092, 0.0, 0.0, 0.0092, -26.2, -23.85)" gradientUnits="userSpaceOnUse" id="gradient4" r="819.2" spreadMethod="pad">
      <stop offset="0.0" stop-color="#706666"/>
      <stop offset="1.0" stop-color="#363131"/>
    </radialGradient>
    <radialGradient cx="0" cy="0" gradientTransform="matrix(0.0109, 0.0, 0.0, 0.0109, -26.15, -17.8)" gradientUnits="userSpaceOnUse" id="gradient5" r="819.2" spreadMethod="pad">
      <stop offset="0.0" stop-color="#988b8b"/>
      <stop offset="1.0" stop-color="#5b5353"/>
    </radialGradient>
    <radialGradient cx="0" cy="0" gradientTransform="matrix(0.0052, 0.0, 0.0, 0.0052, -27.95, -21.0)" gradientUnits="userSpaceOnUse" id="gradient6" r="819.2" spreadMethod="pad">
      <stop offset="0.0" stop-color="#524d3b"/>
      <stop offset="1.0" stop-color="#3d392c"/>
    </radialGradient>
    <radialGradient cx="0" cy="0" gradientTransform="matrix(0.0014, 0.0, 0.0, 0.0014, -25.45, -23.75)" gradientUnits="userSpaceOnUse" id="gradient7" r="819.2" spreadMethod="pad">
      <stop offset="0.0" stop-color="#696060"/>
      <stop offset="1.0" stop-color="#696060"/>
    </radialGradient>
    <radialGradient cx="0" cy="0" gradientTransform="matrix(0.0043, 0.0, 0.0, 0.0043, -28.1, -22.6)" gradientUnits="userSpaceOnUse" id="gradient8" r="819.2" spreadMethod="pad">
      <stop offset="0.0" stop-color="#968989"/>
      <stop offset="1.0" stop-color="#4d4646"/>
    </radialGradient>
    <radialGradient cx="0" cy="0" gradientTransform="matrix(0.0025, 0.0, 0.0, 0.0025, -27.3, -23.15)" gradientUnits="userSpaceOnUse" id="gradient9" r="819.2" spreadMethod="pad">
      <stop offset="0.0" stop-color="#6a6060"/>
      <stop offset="1.0" stop-color="#696060"/>
    </radialGradient>
    <radialGradient cx="0" cy="0" gradientTransform="matrix(0.0025, 0.0, 0.0, 0.0025, -26.7, -22.75)" gradientUnits="userSpaceOnUse" id="gradient10" r="819.2" spreadMethod="pad">
      <stop offset="0.0" stop-color="#4a4444"/>
      <stop offset="1.0" stop-color="#423d3d"/>
    </radialGradient>
    <radialGradient cx="0" cy="0" gradientTransform="matrix(0.0057, 0.0, 0.0, 0.0057, -27.65, -21.55)" gradientUnits="userSpaceOnUse" id="gradient11" r="819.2" spreadMethod="pad">
      <stop offset="0.0" stop-color="#998b8b"/>
      <stop offset="1.0" stop-color="#4b4545"/>
    </radialGradient>
    <radialGradient cx="0" cy="0" gradientTransform="matrix(0.0088, 0.0, 0.0, 0.0088, -31.85, -17.25)" gradientUnits="userSpaceOnUse" id="gradient12" r="819.2" spreadMethod="pad">
      <stop offset="0.0" stop-color="#67604b"/>
      <stop offset="1.0" stop-color="#3c382b"/>
    </radialGradient>
    <radialGradient cx="0" cy="0" gradientTransform="matrix(0.0077, 0.0, 0.0, 0.0077, -32.6, -19.45)" gradientUnits="userSpaceOnUse" id="gradient13" r="819.2" spreadMethod="pad">
      <stop offset="0.0" stop-color="#625c47"/>
      <stop offset="1.0" stop-color="#454031"/>
    </radialGradient>
    <radialGradient cx="0" cy="0" gradientTransform="matrix(0.0124, 0.0, 0.0, 0.0124, -27.2, -19.9)" gradientUnits="userSpaceOnUse" id="gradient14" r="819.2" spreadMethod="pad">
      <stop offset="0.0" stop-color="#2f2c22"/>
      <stop offset="1.0" stop-color="#201e17"/>
    </radialGradient>
    <radialGradient cx="0" cy="0" gradientTransform="matrix(0.0075, 0.0, 0.0, 0.0075, -28.15, -15.65)" gradientUnits="userSpaceOnUse" id="gradient15" r="819.2" spreadMethod="pad">
      <stop offset="0.0" stop-color="#cd9154"/>
      <stop offset="1.0" stop-color="#755330"/>
    </radialGradient>
    <radialGradient cx="0" cy="0" gradientTransform="matrix(0.0068, 0.0, 0.0, 0.0068, -29.5, -13.8)" gradientUnits="userSpaceOnUse" id="gradient16" r="819.2" spreadMethod="pad">
      <stop offset="0.0" stop-color="#655c5c"/>
      <stop offset="1.0" stop-color="#574f4f"/>
    </radialGradient>
    <radialGradient cx="0" cy="0" gradientTransform="matrix(0.013, 0.0, 0.0, 0.013, -14.5, -17.9)" gradientUnits="userSpaceOnUse" id="gradient17" r="819.2" spreadMethod="pad">
      <stop offset="0.0" stop-color="#79cefb"/>
      <stop offset="1.0" stop-color="#64aad0"/>
    </radialGradient>
    <radialGradient cx="0" cy="0" gradientTransform="matrix(0.0134, 0.0, 0.0, 0.0134, -34.0, -16.45)" gradientUnits="userSpaceOnUse" id="gradient18" r="819.2" spreadMethod="pad">
      <stop offset="0.0" stop-color="#222009"/>
      <stop offset="1.0" stop-color="#222009"/>
    </radialGradient>
    <radialGradient cx="0" cy="0" gradientTransform="matrix(0.0146, 0.0, 0.0, 0.0146, -37.8, -26.7)" gradientUnits="userSpaceOnUse" id="gradient19" r="819.2" spreadMethod="pad">
      <stop offset="0.0" stop-color="#988f2a"/>
      <stop offset="1.0" stop-color="#7b7422"/>
    </radialGradient>
    <radialGradient cx="0" cy="0" gradientTransform="matrix(0.0154, 0.0, 0.0, 0.0154, -37.8, -26.7)" gradientUnits="userSpaceOnUse" id="gradient20" r="819.2" spreadMethod="pad">
      <stop offset="0.0" stop-color="#e3d640"/>
      <stop offset="1.0" stop-color="#9b912b"/>
    </radialGradient>
    <radialGradient cx="0" cy="0" gradientTransform="matrix(0.0112, 0.0, 0.0, 0.0112, -37.8, -13.45)" gradientUnits="userSpaceOnUse" id="gradient21" r="819.2" spreadMethod="pad">
      <stop offset="0.0" stop-color="#5fa1c5"/>
      <stop offset="1.0" stop-color="#406d85"/>
    </radialGradient>
    <radialGradient cx="0" cy="0" gradientTransform="matrix(0.0054, 0.0, 0.0, 0.0054, -37.3, -19.3)" gradientUnits="userSpaceOnUse" id="gradient22" r="819.2" spreadMethod="pad">
      <stop offset="0.0" stop-color="#3a362a"/>
      <stop offset="1.0" stop-color="#312e24"/>
    </radialGradient>
    <radialGradient cx="0" cy="0" gradientTransform="matrix(0.0071, 0.0, 0.0, 0.0071, -32.8, -9.3)" gradientUnits="userSpaceOnUse" id="gradient23" r="819.2" spreadMethod="pad">
      <stop offset="0.0" stop-color="#c98e52"/>
      <stop offset="1.0" stop-color="#886038"/>
    </radialGradient>
    <radialGradient cx="0" cy="0" gradientTransform="matrix(0.0097, 0.0, 0.0, 0.0097, -30.3, -9.15)" gradientUnits="userSpaceOnUse" id="gradient24" r="819.2" spreadMethod="pad">
      <stop offset="0.0" stop-color="#ffec89"/>
      <stop offset="1.0" stop-color="#aa7745"/>
    </radialGradient>
    <radialGradient cx="0" cy="0" gradientTransform="matrix(0.0115, 0.0, 0.0, 0.0115, -38.55, -15.35)" gradientUnits="userSpaceOnUse" id="gradient25" r="819.2" spreadMethod="pad">
      <stop offset="0.0" stop-color="#443f31"/>
      <stop offset="1.0" stop-color="#363327"/>
    </radialGradient>
    <radialGradient cx="0" cy="0" gradientTransform="matrix(0.0054, 0.0, 0.0, 0.0054, -22.35, -11.95)" gradientUnits="userSpaceOnUse" id="gradient26" r="819.2" spreadMethod="pad">
      <stop offset="0.0" stop-color="#433f31"/>
      <stop offset="1.0" stop-color="#2b281f"/>
    </radialGradient>
    <radialGradient cx="0" cy="0" gradientTransform="matrix(0.0058, 0.0, 0.0, 0.0058, -24.2, -13.35)" gradientUnits="userSpaceOnUse" id="gradient27" r="819.2" spreadMethod="pad">
      <stop offset="0.0" stop-color="#544e3d"/>
      <stop offset="1.0" stop-color="#191812"/>
    </radialGradient>
    <radialGradient cx="0" cy="0" gradientTransform="matrix(0.0092, 0.0, 0.0, 0.0092, -20.45, -10.6)" gradientUnits="userSpaceOnUse" id="gradient28" r="819.2" spreadMethod="pad">
      <stop offset="0.0" stop-color="#645b5b"/>
      <stop offset="1.0" stop-color="#514a4a"/>
    </radialGradient>
    <radialGradient cx="0" cy="0" gradientTransform="matrix(0.0098, 0.0, 0.0, 0.0098, -17.45, -11.3)" gradientUnits="userSpaceOnUse" id="gradient29" r="819.2" spreadMethod="pad">
      <stop offset="0.0" stop-color="#6e6750"/>
      <stop offset="1.0" stop-color="#4e4838"/>
    </radialGradient>
    <radialGradient cx="0" cy="0" gradientTransform="matrix(0.0069, 0.0, 0.0, 0.0069, -28.75, -9.7)" gradientUnits="userSpaceOnUse" id="gradient30" r="819.2" spreadMethod="pad">
      <stop offset="0.0" stop-color="#ffdc80"/>
      <stop offset="1.0" stop-color="#b07c48"/>
    </radialGradient>
    <radialGradient cx="0" cy="0" gradientTransform="matrix(0.0098, 0.0, 0.0, 0.0098, -22.6, -4.6)" gradientUnits="userSpaceOnUse" id="gradient31" r="819.2" spreadMethod="pad">
      <stop offset="0.0" stop-color="#121010"/>
      <stop offset="1.0" stop-color="#121010"/>
    </radialGradient>
    <radialGradient cx="0" cy="0" gradientTransform="matrix(0.0024, 0.0, 0.0, 0.0024, -32.0, -11.9)" gradientUnits="userSpaceOnUse" id="gradient32" r="819.2" spreadMethod="pad">
      <stop offset="0.0" stop-color="#ffc573"/>
      <stop offset="1.0" stop-color="#d69758"/>
    </radialGradient>
    <radialGradient cx="0" cy="0" gradientTransform="matrix(0.0093, 0.0, 0.0, 0.0093, -23.75, -3.35)" gradientUnits="userSpaceOnUse" id="gradient33" r="819.2" spreadMethod="pad">
      <stop offset="0.0" stop-color="#6d664f"/>
      <stop offset="1.0" stop-color="#494435"/>
    </radialGradient>
    <radialGradient cx="0" cy="0" gradientTransform="matrix(0.0137, 0.0, 0.0, 0.0137, -20.85, -4.65)" gradientUnits="userSpaceOnUse" id="gradient34" r="819.2" spreadMethod="pad">
      <stop offset="0.0" stop-color="#456c92"/>
      <stop offset="1.0" stop-color="#314c66"/>
    </radialGradient>
    <radialGradient cx="0" cy="0" gradientTransform="matrix(0.0134, 0.0, 0.0, 0.0134, -21.25, -6.0)" gradientUnits="userSpaceOnUse" id="gradient35" r="819.2" spreadMethod="pad">
      <stop offset="0.0" stop-color="#080c10"/>
      <stop offset="1.0" stop-color="#080c10"/>
    </radialGradient>
    <radialGradient cx="0" cy="0" gradientTransform="matrix(0.0011, 0.0, 0.0, 0.0011, -24.9, -5.75)" gradientUnits="userSpaceOnUse" id="gradient36" r="819.2" spreadMethod="pad">
      <stop offset="0.0" stop-color="#5a98ba"/>
      <stop offset="1.0" stop-color="#406d86"/>
    </radialGradient>
    <radialGradient cx="0" cy="0" gradientTransform="matrix(0.0107, 0.0, 0.0, 0.0107, -13.25, -18.45)" gradientUnits="userSpaceOnUse" id="gradient37" r="819.2" spreadMethod="pad">
      <stop offset="0.0" stop-color="#69624c"/>
      <stop offset="1.0" stop-color="#514b3a"/>
    </radialGradient>
    <radialGradient cx="0" cy="0" gradientTransform="matrix(0.0021, 0.0, 0.0, 0.0021, -9.7, -13.65)" gradientUnits="userSpaceOnUse" id="gradient38" r="819.2" spreadMethod="pad">
      <stop offset="0.0" stop-color="#24384b"/>
      <stop offset="1.0" stop-color="#1e2e3e"/>
    </radialGradient>
    <radialGradient cx="0" cy="0" gradientTransform="matrix(0.006, 0.0, 0.0, 0.006, -13.1, -12.05)" gradientUnits="userSpaceOnUse" id="gradient39" r="819.2" spreadMethod="pad">
      <stop offset="0.0" stop-color="#ffd47c"/>
      <stop offset="1.0" stop-color="#96693e"/>
    </radialGradient>
    <radialGradient cx="0" cy="0" gradientTransform="matrix(0.0196, 0.0, 0.0, 0.0196, -16.85, -7.75)" gradientUnits="userSpaceOnUse" id="gradient40" r="819.2" spreadMethod="pad">
      <stop offset="0.0" stop-color="#456b90"/>
      <stop offset="1.0" stop-color="#33506b"/>
    </radialGradient>
    <radialGradient cx="0" cy="0" gradientTransform="matrix(0.0073, 0.0, 0.0, 0.0073, -14.45, -11.5)" gradientUnits="userSpaceOnUse" id="gradient41" r="819.2" spreadMethod="pad">
      <stop offset="0.0" stop-color="#ffce78"/>
      <stop offset="1.0" stop-color="#855e36"/>
    </radialGradient>
    <radialGradient cx="0" cy="0" gradientTransform="matrix(0.0028, 0.0, 0.0, 0.0028, -20.25, -3.3)" gradientUnits="userSpaceOnUse" id="gradient42" r="819.2" spreadMethod="pad">
      <stop offset="0.0" stop-color="#456c91"/>
      <stop offset="1.0" stop-color="#324e69"/>
    </radialGradient>
    <radialGradient cx="0" cy="0" gradientTransform="matrix(0.0127, 0.0, 0.0, 0.0127, -20.75, 6.55)" gradientUnits="userSpaceOnUse" id="gradient43" r="819.2" spreadMethod="pad">
      <stop offset="0.0" stop-color="#406487"/>
      <stop offset="1.0" stop-color="#3b5d7e"/>
    </radialGradient>
    <radialGradient cx="0" cy="0" gradientTransform="matrix(0.0037, 0.0, 0.0, 0.0037, -15.6, -0.3)" gradientUnits="userSpaceOnUse" id="gradient44" r="819.2" spreadMethod="pad">
      <stop offset="0.0" stop-color="#6e6750"/>
      <stop offset="1.0" stop-color="#2e2b21"/>
    </radialGradient>
    <radialGradient cx="0" cy="0" gradientTransform="matrix(0.0038, 0.0, 0.0, 0.0038, -18.45, 0.4)" gradientUnits="userSpaceOnUse" id="gradient45" r="819.2" spreadMethod="pad">
      <stop offset="0.0" stop-color="#0c0c09"/>
      <stop offset="1.0" stop-color="#0c0c09"/>
    </radialGradient>
    <radialGradient cx="0" cy="0" gradientTransform="matrix(0.0028, 0.0, 0.0, 0.0028, -16.65, -0.65)" gradientUnits="userSpaceOnUse" id="gradient46" r="819.2" spreadMethod="pad">
      <stop offset="0.0" stop-color="#6e6650"/>
      <stop offset="1.0" stop-color="#4c4837"/>
    </radialGradient>
    <radialGradient cx="0" cy="0" gradientTransform="matrix(0.0083, 0.0, 0.0, 0.0083, -12.7, -6.15)" gradientUnits="userSpaceOnUse" id="gradient47" r="819.2" spreadMethod="pad">
      <stop offset="0.0" stop-color="#67614b"/>
      <stop offset="1.0" stop-color="#443f31"/>
    </radialGradient>
    <radialGradient cx="0" cy="0" gradientTransform="matrix(0.0092, 0.0, 0.0, 0.0092, -9.2, -10.05)" gradientUnits="userSpaceOnUse" id="gradient48" r="819.2" spreadMethod="pad">
      <stop offset="0.0" stop-color="#4a4636"/>
      <stop offset="1.0" stop-color="#29261e"/>
    </radialGradient>
    <radialGradient cx="0" cy="0" gradientTransform="matrix(0.0051, 0.0, 0.0, 0.0051, -10.15, -11.5)" gradientUnits="userSpaceOnUse" id="gradient49" r="819.2" spreadMethod="pad">
      <stop offset="0.0" stop-color="#5c5643"/>
      <stop offset="1.0" stop-color="#393529"/>
    </radialGradient>
    <radialGradient cx="0" cy="0" gradientTransform="matrix(0.0027, 0.0, 0.0, 0.0027, -10.05, -10.5)" gradientUnits="userSpaceOnUse" id="gradient50" r="819.2" spreadMethod="pad">
      <stop offset="0.0" stop-color="#253a4e"/>
      <stop offset="1.0" stop-color="#16232f"/>
    </radialGradient>
    <radialGradient cx="0" cy="0" gradientTransform="matrix(0.001, 0.0, 0.0, 0.001, -10.85, -8.1)" gradientUnits="userSpaceOnUse" id="gradient51" r="819.2" spreadMethod="pad">
      <stop offset="0.0" stop-color="#497c97"/>
      <stop offset="1.0" stop-color="#406c84"/>
    </radialGradient>
    <radialGradient cx="0" cy="0" gradientTransform="matrix(0.0059, 0.0, 0.0, 0.0059, -11.1, -8.95)" gradientUnits="userSpaceOnUse" id="gradient52" r="819.2" spreadMethod="pad">
      <stop offset="0.0" stop-color="#635c48"/>
      <stop offset="1.0" stop-color="#2c2920"/>
    </radialGradient>
    <radialGradient cx="0" cy="0" gradientTransform="matrix(0.0018, 0.0, 0.0, 0.0018, -10.75, -7.65)" gradientUnits="userSpaceOnUse" id="gradient53" r="819.2" spreadMethod="pad">
      <stop offset="0.0" stop-color="#383428"/>
      <stop offset="1.0" stop-color="#2c2a21"/>
    </radialGradient>
    <radialGradient cx="0" cy="0" gradientTransform="matrix(0.0063, 0.0, 0.0, 0.0063, -7.6, -5.05)" gradientUnits="userSpaceOnUse" id="gradient54" r="819.2" spreadMethod="pad">
      <stop offset="0.0" stop-color="#716952"/>
      <stop offset="1.0" stop-color="#3c382b"/>
    </radialGradient>
    <radialGradient cx="0" cy="0" gradientTransform="matrix(0.0076, 0.0, 0.0, 0.0076, -10.0, -5.65)" gradientUnits="userSpaceOnUse" id="gradient55" r="819.2" spreadMethod="pad">
      <stop offset="0.0" stop-color="#73c4ef"/>
      <stop offset="1.0" stop-color="#5793b4"/>
    </radialGradient>
    <radialGradient cx="0" cy="0" gradientTransform="matrix(0.0034, 0.0, 0.0, 0.0034, -18.6, 4.2)" gradientUnits="userSpaceOnUse" id="gradient56" r="819.2" spreadMethod="pad">
      <stop offset="0.0" stop-color="#6d664f"/>
      <stop offset="1.0" stop-color="#403c2e"/>
    </radialGradient>
    <radialGradient cx="0" cy="0" gradientTransform="matrix(0.005, 0.0, 0.0, 0.005, -19.4, 2.75)" gradientUnits="userSpaceOnUse" id="gradient57" r="819.2" spreadMethod="pad">
      <stop offset="0.0" stop-color="#080c10"/>
      <stop offset="1.0" stop-color="#080c10"/>
    </radialGradient>
    <radialGradient cx="0" cy="0" gradientTransform="matrix(0.0038, 0.0, 0.0, 0.0038, -17.75, 3.65)" gradientUnits="userSpaceOnUse" id="gradient58" r="819.2" spreadMethod="pad">
      <stop offset="0.0" stop-color="#6e6650"/>
      <stop offset="1.0" stop-color="#2e2c21"/>
    </radialGradient>
    <radialGradient cx="0" cy="0" gradientTransform="matrix(0.0093, 0.0, 0.0, 0.0093, -24.2, 9.5)" gradientUnits="userSpaceOnUse" id="gradient59" r="819.2" spreadMethod="pad">
      <stop offset="0.0" stop-color="#f6e745"/>
      <stop offset="1.0" stop-color="#c6ba37"/>
    </radialGradient>
    <radialGradient cx="0" cy="0" gradientTransform="matrix(0.0131, 0.0, 0.0, 0.0131, -24.6, 5.0)" gradientUnits="userSpaceOnUse" id="gradient60" r="819.2" spreadMethod="pad">
      <stop offset="0.0" stop-color="#c7c7c7"/>
      <stop offset="1.0" stop-color="#bebebe"/>
    </radialGradient>
    <radialGradient cx="0" cy="0" gradientTransform="matrix(0.0131, 0.0, 0.0, 0.0131, -24.6, 5.0)" gradientUnits="userSpaceOnUse" id="gradient61" r="819.2" spreadMethod="pad">
      <stop offset="0.0" stop-color="#757575"/>
      <stop offset="1.0" stop-color="#717171"/>
    </radialGradient>
    <radialGradient cx="0" cy="0" gradientTransform="matrix(0.0058, 0.0, 0.0, 0.0058, -18.1, 8.9)" gradientUnits="userSpaceOnUse" id="gradient62" r="819.2" spreadMethod="pad">
      <stop offset="0.0" stop-color="#423e30"/>
      <stop offset="1.0" stop-color="#2f2b22"/>
    </radialGradient>
    <radialGradient cx="0" cy="0" gradientTransform="matrix(0.0102, 0.0, 0.0, 0.0102, -20.0, 11.4)" gradientUnits="userSpaceOnUse" id="gradient63" r="819.2" spreadMethod="pad">
      <stop offset="0.0" stop-color="#454132"/>
      <stop offset="1.0" stop-color="#28261d"/>
    </radialGradient>
    <radialGradient cx="0" cy="0" gradientTransform="matrix(0.0094, 0.0, 0.0, 0.0094, -17.35, 19.7)" gradientUnits="userSpaceOnUse" id="gradient64" r="819.2" spreadMethod="pad">
      <stop offset="0.0" stop-color="#736c54"/>
      <stop offset="1.0" stop-color="#5d5743"/>
    </radialGradient>
    <radialGradient cx="0" cy="0" gradientTransform="matrix(0.0049, 0.0, 0.0, 0.0049, -21.15, 14.45)" gradientUnits="userSpaceOnUse" id="gradient65" r="819.2" spreadMethod="pad">
      <stop offset="0.0" stop-color="#26241c"/>
      <stop offset="1.0" stop-color="#0c0c09"/>
    </radialGradient>
    <radialGradient cx="0" cy="0" gradientTransform="matrix(0.0646, 0.0, 0.0, 0.0646, -22.2, 7.1)" gradientUnits="userSpaceOnUse" id="gradient66" r="819.2" spreadMethod="pad">
      <stop offset="0.0" stop-color="#c7c7c7"/>
      <stop offset="1.0" stop-color="#c1c1c1"/>
    </radialGradient>
    <radialGradient cx="0" cy="0" gradientTransform="matrix(0.0034, 0.0, 0.0, 0.0034, -21.05, 18.1)" gradientUnits="userSpaceOnUse" id="gradient67" r="819.2" spreadMethod="pad">
      <stop offset="0.0" stop-color="#0e181e"/>
      <stop offset="1.0" stop-color="#0e181e"/>
    </radialGradient>
    <radialGradient cx="0" cy="0" gradientTransform="matrix(0.0073, 0.0, 0.0, 0.0073, -18.9, 20.4)" gradientUnits="userSpaceOnUse" id="gradient68" r="819.2" spreadMethod="pad">
      <stop offset="0.0" stop-color="#84e0ff"/>
      <stop offset="1.0" stop-color="#5793b4"/>
    </radialGradient>
    <radialGradient cx="0" cy="0" gradientTransform="matrix(0.0057, 0.0, 0.0, 0.0057, -25.05, 5.9)" gradientUnits="userSpaceOnUse" id="gradient69" r="819.2" spreadMethod="pad">
      <stop offset="0.0" stop-color="#80d8ff"/>
      <stop offset="1.0" stop-color="#3d677f"/>
    </radialGradient>
    <radialGradient cx="0" cy="0" gradientTransform="matrix(0.0071, 0.0, 0.0, 0.0071, -24.2, 9.5)" gradientUnits="userSpaceOnUse" id="gradient70" r="819.2" spreadMethod="pad">
      <stop offset="0.0" stop-color="#f6e745"/>
      <stop offset="1.0" stop-color="#bdb235"/>
    </radialGradient>
    <radialGradient cx="0" cy="0" gradientTransform="matrix(0.0034, 0.0, 0.0, 0.0034, -23.9, 23.7)" gradientUnits="userSpaceOnUse" id="gradient71" r="819.2" spreadMethod="pad">
      <stop offset="0.0" stop-color="#484334"/>
      <stop offset="1.0" stop-color="#433e30"/>
    </radialGradient>
  </defs>
</svg>
