<?xml version="1.0" encoding="UTF-8" standalone="no"?>
<svg xmlns:ffdec="https://www.free-decompiler.com/flash" xmlns:xlink="http://www.w3.org/1999/xlink" ffdec:objectType="shape" height="118.2px" width="48.1px" xmlns="http://www.w3.org/2000/svg">
  <g transform="matrix(1.0, 0.0, 0.0, 1.0, 26.2, 113.0)">
    <path d="M6.6 -72.5 L18.3 -104.95 21.7 -113.0 21.9 -112.9 21.7 -112.6 19.7 -105.7 7.7 -72.4 6.05 -68.65 Q5.9 -71.65 6.6 -72.5" fill="url(#gradient0)" fill-rule="evenodd" stroke="none"/>
    <path d="M6.6 -72.5 Q5.9 -71.65 6.05 -68.65 L7.7 -72.4 8.95 -72.4 6.0 -64.35 5.65 -63.5 4.85 -63.3 4.2 -63.15 3.55 -63.55 2.95 -63.95 3.05 -64.2 2.65 -64.6 2.9 -65.5 5.65 -73.45 6.6 -72.5 M4.6 -63.4 L5.4 -65.35 5.4 -65.6 5.0 -65.35 4.65 -65.9 4.6 -64.6 4.5 -64.1 4.5 -63.95 4.35 -63.65 4.6 -63.4" fill="url(#gradient1)" fill-rule="evenodd" stroke="none"/>
    <path d="M4.5 -63.95 L4.5 -64.1 4.6 -64.6 4.65 -65.9 5.0 -65.35 5.4 -65.6 5.4 -65.35 4.6 -63.4 4.5 -63.95" fill="url(#gradient2)" fill-rule="evenodd" stroke="none"/>
    <path d="M2.65 -64.6 L3.05 -64.2 2.95 -63.95 3.55 -63.55 3.85 -62.9 4.25 -62.85 4.85 -63.15 5.1 -61.6 5.0 -60.9 4.5 -60.2 3.95 -60.1 3.55 -60.1 2.7 -60.45 2.0 -61.6 1.65 -63.15 Q2.15 -64.85 2.65 -64.6" fill="url(#gradient3)" fill-rule="evenodd" stroke="none"/>
    <path d="M6.0 -64.35 L6.35 -63.65 6.45 -62.35 5.9 -61.6 5.0 -60.9 5.1 -61.6 4.85 -63.15 4.85 -63.3 5.65 -63.5 6.0 -64.35 M1.85 -60.45 Q-0.85 -64.0 2.9 -65.5 L2.65 -64.6 Q2.15 -64.85 1.65 -63.15 L2.0 -61.6 2.7 -60.45 1.85 -60.45 M3.95 -60.1 L3.6 -60.0 3.55 -60.1 3.95 -60.1" fill="url(#gradient4)" fill-rule="evenodd" stroke="none"/>
    <path d="M1.75 -60.4 L1.85 -60.45 2.7 -60.45 3.55 -60.1 3.6 -60.0 3.6 -59.75 3.15 -58.5 Q2.2 -57.85 1.65 -59.9 L1.75 -60.4 M3.55 -63.55 L4.2 -63.15 4.85 -63.3 4.85 -63.15 4.25 -62.85 3.85 -62.9 3.55 -63.55" fill="url(#gradient5)" fill-rule="evenodd" stroke="none"/>
    <path d="M4.5 -63.95 L4.6 -63.4 4.35 -63.65 4.5 -63.95" fill="url(#gradient6)" fill-rule="evenodd" stroke="none"/>
    <path d="M6.45 -62.35 L9.45 -58.2 Q10.0 -55.6 9.7 -53.65 L9.45 -53.9 Q6.8 -57.8 5.0 -54.3 L4.5 -55.35 3.6 -59.75 3.6 -60.0 3.95 -60.1 4.5 -60.2 5.0 -60.9 5.9 -61.6 6.45 -62.35" fill="url(#gradient7)" fill-rule="evenodd" stroke="none"/>
    <path d="M1.65 -59.9 Q2.2 -57.85 3.15 -58.5 L3.15 -58.3 Q1.45 -55.55 -0.7 -56.35 L-1.25 -57.3 Q-1.2 -58.25 0.2 -59.1 L1.65 -59.9" fill="url(#gradient8)" fill-rule="evenodd" stroke="none"/>
    <path d="M-2.25 -58.7 Q-1.0 -61.55 1.75 -60.4 L1.65 -59.9 0.2 -59.1 Q-1.2 -58.25 -1.25 -57.3 L-1.75 -57.9 -2.25 -58.7 M-0.7 -56.35 Q1.45 -55.55 3.15 -58.3 3.4 -56.05 1.6 -55.35 L0.5 -55.45 -0.35 -55.85 -0.7 -56.35" fill="url(#gradient9)" fill-rule="evenodd" stroke="none"/>
    <path d="M13.5 -45.55 Q13.65 -44.8 13.2 -44.25 12.75 -40.9 9.85 -39.85 L9.2 -43.85 Q7.05 -50.8 1.85 -51.4 L0.6 -52.75 0.15 -52.85 -0.05 -53.15 2.65 -53.5 4.6 -53.1 5.15 -52.75 Q13.05 -48.1 13.5 -45.55" fill="url(#gradient10)" fill-rule="evenodd" stroke="none"/>
    <path d="M9.85 -39.85 L10.1 -35.95 9.05 -25.4 Q11.1 -17.5 11.5 -8.45 L12.15 -6.35 11.8 -3.9 10.25 -1.65 Q0.5 6.6 -16.6 4.95 -19.85 4.45 -21.45 2.0 L-20.8 -7.55 -20.75 -9.1 -20.25 -13.45 -20.15 -14.3 -17.75 -27.85 -17.15 -33.8 -17.1 -34.4 -15.7 -43.85 Q-15.45 -45.3 -14.25 -47.4 L-13.0 -48.7 -12.3 -48.9 -11.75 -48.55 -9.35 -45.6 -9.3 -45.15 -7.05 -44.25 -7.1 -43.85 -6.95 -42.45 -5.9 -41.65 -6.05 -40.65 Q-5.25 -36.8 -4.75 -26.05 L-3.2 -8.3 Q-1.95 -0.35 -0.5 -8.3 L0.2 -36.2 Q-0.15 -42.0 -0.7 -42.45 L0.2 -43.85 -0.05 -45.3 -0.45 -45.6 1.1 -47.0 0.95 -47.55 Q1.35 -48.2 1.35 -50.9 L1.6 -51.4 1.85 -51.4 Q7.05 -50.8 9.2 -43.85 L9.85 -39.85" fill="url(#gradient11)" fill-rule="evenodd" stroke="none"/>
    <path d="M-11.9 -50.75 L-10.75 -51.8 -9.95 -50.95 -9.45 -49.5 Q-8.5 -48.2 -7.4 -47.65 -8.55 -45.9 -6.8 -44.65 L-7.05 -44.25 -9.3 -45.15 -9.35 -45.6 -11.75 -48.55 -12.3 -48.9 -13.0 -48.7 -12.75 -49.35 -11.9 -50.75 M1.85 -51.4 L1.6 -51.4 1.35 -50.9 Q1.35 -48.2 0.95 -47.55 L1.1 -47.0 -0.45 -45.6 -0.6 -45.7 0.05 -46.6 0.15 -47.15 -0.2 -48.15 Q0.75 -49.7 0.15 -52.85 L0.6 -52.75 1.85 -51.4" fill="url(#gradient12)" fill-rule="evenodd" stroke="none"/>
    <path d="M5.0 -54.3 Q6.8 -57.8 9.45 -53.9 L9.15 -53.65 8.9 -52.75 7.45 -52.9 5.15 -52.75 4.6 -53.1 5.0 -54.3" fill="url(#gradient13)" fill-rule="evenodd" stroke="none"/>
    <path d="M9.7 -53.65 L10.35 -52.55 8.9 -52.75 9.15 -53.65 9.45 -53.9 9.7 -53.65" fill="url(#gradient14)" fill-rule="evenodd" stroke="none"/>
    <path d="M10.35 -52.55 Q15.0 -52.3 13.5 -45.55 13.05 -48.1 5.15 -52.75 L7.45 -52.9 8.9 -52.75 10.35 -52.55" fill="url(#gradient15)" fill-rule="evenodd" stroke="none"/>
    <path d="M-8.0 -64.95 L-7.9 -65.1 -7.25 -66.9 -7.1 -66.7 -8.05 -60.9 -8.75 -60.3 -9.8 -59.5 -8.0 -64.95" fill="url(#gradient16)" fill-rule="evenodd" stroke="none"/>
    <path d="M-10.25 -58.75 L-10.0 -60.0 -8.0 -64.95 -9.8 -59.5 -10.25 -58.75" fill="url(#gradient17)" fill-rule="evenodd" stroke="none"/>
    <path d="M-10.75 -51.8 Q-12.65 -53.85 -10.25 -58.75 L-9.8 -59.5 -8.75 -60.3 Q-11.8 -55.15 -8.05 -51.8 -9.85 -51.35 -9.45 -50.75 L-9.95 -50.95 -10.75 -51.8" fill="url(#gradient18)" fill-rule="evenodd" stroke="none"/>
    <path d="M-14.4 -49.0 L-13.5 -49.9 -11.9 -50.75 -12.75 -49.35 -14.4 -49.0" fill="url(#gradient19)" fill-rule="evenodd" stroke="none"/>
    <path d="M-18.85 -47.05 L-18.25 -47.5 -18.05 -47.95 -14.4 -49.0 -12.75 -49.35 -13.0 -48.7 -14.25 -47.4 Q-15.45 -45.3 -15.7 -43.85 L-17.1 -34.4 Q-23.9 -36.35 -21.65 -43.85 L-20.55 -45.35 -18.85 -47.05" fill="url(#gradient20)" fill-rule="evenodd" stroke="none"/>
    <path d="M-0.05 -53.25 L-0.05 -53.15 0.15 -52.85 Q0.75 -49.7 -0.2 -48.15 -3.75 -46.3 -7.4 -47.65 -8.5 -48.2 -9.45 -49.5 L-9.95 -50.95 -9.45 -50.75 Q-9.85 -51.35 -8.05 -51.8 L-8.05 -52.1 Q-7.4 -50.0 -0.7 -54.8 L-0.05 -53.25" fill="url(#gradient21)" fill-rule="evenodd" stroke="none"/>
    <path d="M-1.25 -57.3 L-0.7 -56.35 -0.35 -55.85 -0.2 -55.35 -0.7 -54.8 Q-7.4 -50.0 -8.05 -52.1 -10.25 -54.25 -8.55 -58.2 -5.15 -61.45 -1.75 -57.9 L-1.25 -57.3" fill="url(#gradient22)" fill-rule="evenodd" stroke="none"/>
    <path d="M-8.05 -60.9 Q-4.2 -61.8 -2.25 -58.7 L-1.75 -57.9 Q-5.15 -61.45 -8.55 -58.2 -10.25 -54.25 -8.05 -52.1 L-8.05 -51.8 Q-11.8 -55.15 -8.75 -60.3 L-8.05 -60.9" fill="url(#gradient23)" fill-rule="evenodd" stroke="none"/>
    <path d="M1.6 -55.35 L-0.05 -53.25 -0.7 -54.8 -0.2 -55.35 -0.35 -55.85 0.5 -55.45 1.6 -55.35" fill="url(#gradient24)" fill-rule="evenodd" stroke="none"/>
    <path d="M-0.2 -48.15 L0.15 -47.15 0.05 -46.6 -0.6 -45.7 Q-2.9 -43.5 -6.8 -44.65 -8.55 -45.9 -7.4 -47.65 -3.75 -46.3 -0.2 -48.15" fill="url(#gradient25)" fill-rule="evenodd" stroke="none"/>
    <path d="M-0.6 -45.7 L-0.45 -45.6 -0.05 -45.3 0.2 -43.85 -0.7 -42.45 Q-1.85 -41.1 -5.9 -41.65 L-6.95 -42.45 -7.1 -43.85 -7.05 -44.25 -6.8 -44.65 Q-2.9 -43.5 -0.6 -45.7" fill="url(#gradient26)" fill-rule="evenodd" stroke="none"/>
    <path d="M-0.7 -42.45 Q-0.15 -42.0 0.2 -36.2 L-0.5 -8.3 Q-1.95 -0.35 -3.2 -8.3 L-4.75 -26.05 Q-5.25 -36.8 -6.05 -40.65 L-5.9 -41.65 Q-1.85 -41.1 -0.7 -42.45" fill="url(#gradient27)" fill-rule="evenodd" stroke="none"/>
    <path d="M-17.15 -33.8 Q-24.75 -33.5 -26.0 -38.9 -27.5 -44.2 -18.85 -47.05 L-20.55 -45.35 -21.65 -43.85 Q-23.9 -36.35 -17.1 -34.4 L-17.15 -33.8" fill="url(#gradient28)" fill-rule="evenodd" stroke="none"/>
    <path d="M-23.6 -10.65 L-24.95 -11.6 -25.1 -12.4 Q-23.75 -15.5 -21.05 -14.35 -23.75 -13.65 -23.6 -10.65 M-20.75 -9.1 Q-22.15 -11.95 -20.25 -13.45 L-20.75 -9.1" fill="url(#gradient29)" fill-rule="evenodd" stroke="none"/>
    <path d="M-20.8 -7.55 L-22.85 -9.35 -23.6 -10.65 Q-23.75 -13.65 -21.05 -14.35 L-20.15 -14.3 -20.25 -13.45 Q-22.15 -11.95 -20.75 -9.1 L-20.8 -7.55" fill="url(#gradient30)" fill-rule="evenodd" stroke="none"/>
  </g>
  <defs>
    <radialGradient cx="0" cy="0" gradientTransform="matrix(0.0617, 0.0, 0.0, 0.0617, 21.75, -113.3)" gradientUnits="userSpaceOnUse" id="gradient0" r="819.2" spreadMethod="pad">
      <stop offset="0.0" stop-color="#999999"/>
      <stop offset="1.0" stop-color="#858585"/>
    </radialGradient>
    <radialGradient cx="0" cy="0" gradientTransform="matrix(0.0069, 0.0, 0.0, 0.0069, 5.8, -68.0)" gradientUnits="userSpaceOnUse" id="gradient1" r="819.2" spreadMethod="pad">
      <stop offset="0.0" stop-color="#aea431"/>
      <stop offset="1.0" stop-color="#8d8427"/>
    </radialGradient>
    <radialGradient cx="0" cy="0" gradientTransform="matrix(0.0053, 0.0, 0.0, 0.0053, 4.55, -63.45)" gradientUnits="userSpaceOnUse" id="gradient2" r="819.2" spreadMethod="pad">
      <stop offset="0.0" stop-color="#d5d5d5"/>
      <stop offset="1.0" stop-color="#d2d2d2"/>
    </radialGradient>
    <radialGradient cx="0" cy="0" gradientTransform="matrix(0.0042, 0.0, 0.0, 0.0042, 3.05, -63.6)" gradientUnits="userSpaceOnUse" id="gradient3" r="819.2" spreadMethod="pad">
      <stop offset="0.0" stop-color="#6f6750"/>
      <stop offset="1.0" stop-color="#353126"/>
    </radialGradient>
    <radialGradient cx="0" cy="0" gradientTransform="matrix(0.0049, 0.0, 0.0, 0.0049, 4.55, -63.45)" gradientUnits="userSpaceOnUse" id="gradient4" r="819.2" spreadMethod="pad">
      <stop offset="0.0" stop-color="#67604b"/>
      <stop offset="1.0" stop-color="#393629"/>
    </radialGradient>
    <radialGradient cx="0" cy="0" gradientTransform="matrix(0.0092, 0.0, 0.0, 0.0092, 4.55, -65.15)" gradientUnits="userSpaceOnUse" id="gradient5" r="819.2" spreadMethod="pad">
      <stop offset="0.0" stop-color="#324f6a"/>
      <stop offset="1.0" stop-color="#2b435b"/>
    </radialGradient>
    <radialGradient cx="0" cy="0" gradientTransform="matrix(0.0053, 0.0, 0.0, 0.0053, 4.55, -63.45)" gradientUnits="userSpaceOnUse" id="gradient6" r="819.2" spreadMethod="pad">
      <stop offset="0.0" stop-color="#939393"/>
      <stop offset="1.0" stop-color="#8d8d8d"/>
    </radialGradient>
    <radialGradient cx="0" cy="0" gradientTransform="matrix(0.0084, 0.0, 0.0, 0.0084, 6.4, -56.3)" gradientUnits="userSpaceOnUse" id="gradient7" r="819.2" spreadMethod="pad">
      <stop offset="0.0" stop-color="#6f6850"/>
      <stop offset="1.0" stop-color="#433f31"/>
    </radialGradient>
    <radialGradient cx="0" cy="0" gradientTransform="matrix(0.0031, 0.0, 0.0, 0.0031, 0.5, -58.25)" gradientUnits="userSpaceOnUse" id="gradient8" r="819.2" spreadMethod="pad">
      <stop offset="0.0" stop-color="#6f6851"/>
      <stop offset="1.0" stop-color="#464133"/>
    </radialGradient>
    <radialGradient cx="0" cy="0" gradientTransform="matrix(0.0045, 0.0, 0.0, 0.0045, -0.05, -58.9)" gradientUnits="userSpaceOnUse" id="gradient9" r="819.2" spreadMethod="pad">
      <stop offset="0.0" stop-color="#6e6750"/>
      <stop offset="1.0" stop-color="#302d23"/>
    </radialGradient>
    <radialGradient cx="0" cy="0" gradientTransform="matrix(0.0139, 0.0, 0.0, 0.0139, 7.5, -50.9)" gradientUnits="userSpaceOnUse" id="gradient10" r="819.2" spreadMethod="pad">
      <stop offset="0.0" stop-color="#74c5f0"/>
      <stop offset="1.0" stop-color="#44748e"/>
    </radialGradient>
    <radialGradient cx="0" cy="0" gradientTransform="matrix(0.0673, 0.0, 0.0, 0.0673, 0.45, -47.55)" gradientUnits="userSpaceOnUse" id="gradient11" r="819.2" spreadMethod="pad">
      <stop offset="0.0" stop-color="#6a634d"/>
      <stop offset="1.0" stop-color="#353227"/>
    </radialGradient>
    <radialGradient cx="0" cy="0" gradientTransform="matrix(0.0121, 0.0, 0.0, 0.0121, -7.1, -47.05)" gradientUnits="userSpaceOnUse" id="gradient12" r="819.2" spreadMethod="pad">
      <stop offset="0.0" stop-color="#988b8b"/>
      <stop offset="1.0" stop-color="#645b5b"/>
    </radialGradient>
    <radialGradient cx="0" cy="0" gradientTransform="matrix(0.0044, 0.0, 0.0, 0.0044, 6.5, -52.5)" gradientUnits="userSpaceOnUse" id="gradient13" r="819.2" spreadMethod="pad">
      <stop offset="0.0" stop-color="#ffd179"/>
      <stop offset="1.0" stop-color="#9f7041"/>
    </radialGradient>
    <radialGradient cx="0" cy="0" gradientTransform="matrix(0.0028, 0.0, 0.0, 0.0028, 8.35, -53.1)" gradientUnits="userSpaceOnUse" id="gradient14" r="819.2" spreadMethod="pad">
      <stop offset="0.0" stop-color="#f5ad64"/>
      <stop offset="1.0" stop-color="#b7814b"/>
    </radialGradient>
    <radialGradient cx="0" cy="0" gradientTransform="matrix(0.0119, 0.0, 0.0, 0.0119, 5.4, -49.8)" gradientUnits="userSpaceOnUse" id="gradient15" r="819.2" spreadMethod="pad">
      <stop offset="0.0" stop-color="#5b5542"/>
      <stop offset="1.0" stop-color="#353126"/>
    </radialGradient>
    <radialGradient cx="0" cy="0" gradientTransform="matrix(0.0116, 0.0, 0.0, 0.0116, -7.25, -67.05)" gradientUnits="userSpaceOnUse" id="gradient16" r="819.2" spreadMethod="pad">
      <stop offset="0.0" stop-color="#9c932c"/>
      <stop offset="1.0" stop-color="#817924"/>
    </radialGradient>
    <radialGradient cx="0" cy="0" gradientTransform="matrix(0.0116, 0.0, 0.0, 0.0116, -7.25, -67.05)" gradientUnits="userSpaceOnUse" id="gradient17" r="819.2" spreadMethod="pad">
      <stop offset="0.0" stop-color="#a49a2e"/>
      <stop offset="1.0" stop-color="#888025"/>
    </radialGradient>
    <radialGradient cx="0" cy="0" gradientTransform="matrix(0.0084, 0.0, 0.0, 0.0084, -10.45, -57.15)" gradientUnits="userSpaceOnUse" id="gradient18" r="819.2" spreadMethod="pad">
      <stop offset="0.0" stop-color="#433f31"/>
      <stop offset="1.0" stop-color="#39352a"/>
    </radialGradient>
    <radialGradient cx="0" cy="0" gradientTransform="matrix(0.0038, 0.0, 0.0, 0.0038, -12.95, -49.3)" gradientUnits="userSpaceOnUse" id="gradient19" r="819.2" spreadMethod="pad">
      <stop offset="0.0" stop-color="#ffd47c"/>
      <stop offset="1.0" stop-color="#a37343"/>
    </radialGradient>
    <radialGradient cx="0" cy="0" gradientTransform="matrix(0.0103, 0.0, 0.0, 0.0103, -14.2, -41.8)" gradientUnits="userSpaceOnUse" id="gradient20" r="819.2" spreadMethod="pad">
      <stop offset="0.0" stop-color="#7acffc"/>
      <stop offset="1.0" stop-color="#5794b4"/>
    </radialGradient>
    <radialGradient cx="0" cy="0" gradientTransform="matrix(0.0106, 0.0, 0.0, 0.0106, -6.0, -54.2)" gradientUnits="userSpaceOnUse" id="gradient21" r="819.2" spreadMethod="pad">
      <stop offset="0.0" stop-color="#68614c"/>
      <stop offset="1.0" stop-color="#423e30"/>
    </radialGradient>
    <radialGradient cx="0" cy="0" gradientTransform="matrix(0.0076, 0.0, 0.0, 0.0076, -4.6, -55.05)" gradientUnits="userSpaceOnUse" id="gradient22" r="819.2" spreadMethod="pad">
      <stop offset="0.0" stop-color="#68624c"/>
      <stop offset="1.0" stop-color="#4a4636"/>
    </radialGradient>
    <radialGradient cx="0" cy="0" gradientTransform="matrix(0.0116, 0.0, 0.0, 0.0116, -8.5, -52.2)" gradientUnits="userSpaceOnUse" id="gradient23" r="819.2" spreadMethod="pad">
      <stop offset="0.0" stop-color="#605a46"/>
      <stop offset="1.0" stop-color="#595340"/>
    </radialGradient>
    <radialGradient cx="0" cy="0" gradientTransform="matrix(0.0034, 0.0, 0.0, 0.0034, -1.3, -55.35)" gradientUnits="userSpaceOnUse" id="gradient24" r="819.2" spreadMethod="pad">
      <stop offset="0.0" stop-color="#6a634d"/>
      <stop offset="1.0" stop-color="#3d382c"/>
    </radialGradient>
    <radialGradient cx="0" cy="0" gradientTransform="matrix(0.0054, 0.0, 0.0, 0.0054, -3.8, -47.1)" gradientUnits="userSpaceOnUse" id="gradient25" r="819.2" spreadMethod="pad">
      <stop offset="0.0" stop-color="#998b8b"/>
      <stop offset="1.0" stop-color="#6e6464"/>
    </radialGradient>
    <radialGradient cx="0" cy="0" gradientTransform="matrix(0.005, 0.0, 0.0, 0.005, -3.5, -44.75)" gradientUnits="userSpaceOnUse" id="gradient26" r="819.2" spreadMethod="pad">
      <stop offset="0.0" stop-color="#998b8b"/>
      <stop offset="1.0" stop-color="#796e6e"/>
    </radialGradient>
    <radialGradient cx="0" cy="0" gradientTransform="matrix(0.0469, 0.0, 0.0, 0.0469, -4.25, -42.8)" gradientUnits="userSpaceOnUse" id="gradient27" r="819.2" spreadMethod="pad">
      <stop offset="0.0" stop-color="#938686"/>
      <stop offset="1.0" stop-color="#5a5252"/>
    </radialGradient>
    <radialGradient cx="0" cy="0" gradientTransform="matrix(0.0103, 0.0, 0.0, 0.0103, -20.2, -40.45)" gradientUnits="userSpaceOnUse" id="gradient28" r="819.2" spreadMethod="pad">
      <stop offset="0.0" stop-color="#5c5643"/>
      <stop offset="1.0" stop-color="#2a271e"/>
    </radialGradient>
    <radialGradient cx="0" cy="0" gradientTransform="matrix(0.0064, 0.0, 0.0, 0.0064, -20.5, -10.3)" gradientUnits="userSpaceOnUse" id="gradient29" r="819.2" spreadMethod="pad">
      <stop offset="0.0" stop-color="#625b47"/>
      <stop offset="1.0" stop-color="#55503e"/>
    </radialGradient>
    <radialGradient cx="0" cy="0" gradientTransform="matrix(0.0072, 0.0, 0.0, 0.0072, -22.6, -11.45)" gradientUnits="userSpaceOnUse" id="gradient30" r="819.2" spreadMethod="pad">
      <stop offset="0.0" stop-color="#64aad0"/>
      <stop offset="1.0" stop-color="#4d84a1"/>
    </radialGradient>
  </defs>
</svg>
