<?xml version="1.0" encoding="UTF-8" standalone="no"?>
<svg xmlns:ffdec="https://www.free-decompiler.com/flash" xmlns:xlink="http://www.w3.org/1999/xlink" ffdec:objectType="shape" height="82.55px" width="101.4px" xmlns="http://www.w3.org/2000/svg">
  <g transform="matrix(1.0, 0.0, 0.0, 1.0, 84.25, 73.35)">
    <path d="M-39.05 -71.3 L-39.05 -71.45 -38.55 -73.35 -38.6 -65.95 -39.3 -65.05 -39.85 -64.15 -39.95 -64.15 -39.05 -71.3" fill="url(#gradient0)" fill-rule="evenodd" stroke="none"/>
    <path d="M-35.35 -65.2 L-33.15 -64.85 Q-31.7 -64.5 -30.25 -62.75 L-30.9 -62.35 -35.55 -58.25 -35.6 -58.75 Q-41.3 -65.0 -35.35 -65.2" fill="url(#gradient1)" fill-rule="evenodd" stroke="none"/>
    <path d="M-30.25 -62.75 L-30.55 -62.25 -30.9 -62.35 -30.25 -62.75" fill="url(#gradient2)" fill-rule="evenodd" stroke="none"/>
    <path d="M-30.55 -62.25 L-28.25 -60.65 Q-31.65 -58.4 -30.0 -57.95 -33.75 -57.35 -35.2 -55.9 L-35.7 -55.9 -35.85 -56.3 -36.4 -57.75 -35.55 -58.25 -30.9 -62.35 -30.55 -62.25" fill="url(#gradient3)" fill-rule="evenodd" stroke="none"/>
    <path d="M-28.25 -60.65 L-26.75 -60.05 -26.55 -59.7 -26.55 -59.5 -28.25 -58.65 -29.2 -57.95 -30.0 -57.95 Q-31.65 -58.4 -28.25 -60.65" fill="url(#gradient4)" fill-rule="evenodd" stroke="none"/>
    <path d="M-26.55 -59.7 Q-18.6 -60.25 -12.8 -53.45 L-11.4 -50.35 Q-9.65 -48.1 -8.4 -45.4 15.9 -15.8 17.15 -6.0 17.15 -1.65 2.8 9.2 L-4.35 -6.8 -9.45 -16.8 -14.5 -27.05 -18.8 -37.05 -21.0 -41.95 -22.25 -44.5 -24.05 -46.7 -25.65 -48.4 Q-33.2 -56.65 -35.8 -52.7 -36.7 -56.95 -29.1 -57.3 L-27.7 -56.8 -26.5 -56.55 Q-25.05 -56.65 -21.5 -53.1 L-17.6 -48.4 -5.0 -30.55 Q18.45 -0.7 -2.75 -30.55 L-14.65 -48.4 -19.15 -54.2 Q-22.5 -57.7 -24.2 -57.6 L-25.1 -59.0 -26.55 -59.5 -26.55 -59.7" fill="url(#gradient5)" fill-rule="evenodd" stroke="none"/>
    <path d="M-26.55 -59.5 L-25.1 -59.0 -24.2 -57.6 -24.65 -57.6 Q-25.6 -56.65 -26.5 -56.55 L-27.7 -56.8 -27.6 -57.2 -29.0 -57.6 -29.2 -57.7 -29.2 -57.95 -28.25 -58.65 -26.55 -59.5" fill="url(#gradient6)" fill-rule="evenodd" stroke="none"/>
    <path d="M-38.6 -65.95 L-36.9 -66.0 -35.35 -65.2 Q-41.3 -65.0 -35.6 -58.75 -39.35 -59.85 -39.3 -65.05 L-38.6 -65.95" fill="url(#gradient7)" fill-rule="evenodd" stroke="none"/>
    <path d="M-39.95 -64.15 L-39.85 -64.15 -40.0 -63.9 -39.95 -64.15" fill="url(#gradient8)" fill-rule="evenodd" stroke="none"/>
    <path d="M-39.95 -57.7 L-40.5 -58.35 -40.7 -59.0 -40.45 -62.1 -40.0 -63.9 -39.85 -64.15 -39.3 -65.05 Q-39.35 -59.85 -35.6 -58.75 L-35.55 -58.25 -36.4 -57.75 -35.85 -56.3 -36.85 -56.4 -38.05 -56.7 -39.95 -57.7" fill="url(#gradient9)" fill-rule="evenodd" stroke="none"/>
    <path d="M-40.45 -62.1 L-40.75 -62.65 -39.05 -71.3 -39.95 -64.15 -40.0 -63.9 -40.45 -62.1" fill="url(#gradient10)" fill-rule="evenodd" stroke="none"/>
    <path d="M-37.15 -53.45 L-38.3 -55.0 -39.05 -56.7 -36.85 -56.4 -35.85 -56.3 -35.7 -55.9 -36.6 -55.0 -37.15 -53.45" fill="url(#gradient11)" fill-rule="evenodd" stroke="none"/>
    <path d="M-37.0 -51.1 L-37.35 -51.8 -37.15 -53.45 -36.6 -55.0 -35.7 -55.9 -35.2 -55.9 Q-33.75 -57.35 -30.0 -57.95 L-29.2 -57.95 -29.2 -57.7 -29.1 -57.45 -29.1 -57.3 Q-36.7 -56.95 -35.8 -52.7 L-37.0 -51.1" fill="url(#gradient12)" fill-rule="evenodd" stroke="none"/>
    <path d="M-39.05 -56.7 L-39.7 -57.15 -39.95 -57.7 -38.05 -56.7 -36.85 -56.4 -39.05 -56.7" fill="url(#gradient13)" fill-rule="evenodd" stroke="none"/>
    <path d="M-38.05 -49.6 L-37.0 -51.1 -35.8 -52.7 Q-33.2 -56.65 -25.65 -48.4 L-24.05 -46.7 -23.3 -42.6 -25.25 -42.7 Q-25.85 -48.15 -31.3 -48.4 L-37.4 -49.55 -38.05 -49.6" fill="url(#gradient14)" fill-rule="evenodd" stroke="none"/>
    <path d="M-38.6 -47.4 L-38.4 -49.15 -38.05 -49.6 -37.4 -49.55 -38.6 -47.4" fill="url(#gradient15)" fill-rule="evenodd" stroke="none"/>
    <path d="M-36.05 -41.2 Q-42.05 -41.05 -38.6 -47.4 L-37.4 -49.55 -31.3 -48.4 Q-25.85 -48.15 -25.25 -42.7 L-29.2 -41.45 -30.95 -41.1 -34.15 -41.05 -35.1 -41.1 -36.05 -41.2" fill="url(#gradient16)" fill-rule="evenodd" stroke="none"/>
    <path d="M-24.2 -57.6 Q-22.5 -57.7 -19.15 -54.2 L-14.65 -48.4 -2.75 -30.55 Q18.45 -0.7 -5.0 -30.55 L-17.6 -48.4 -21.5 -53.1 Q-25.05 -56.65 -26.5 -56.55 -25.6 -56.65 -24.65 -57.6 L-24.2 -57.6" fill="url(#gradient17)" fill-rule="evenodd" stroke="none"/>
    <path d="M-27.7 -56.8 L-29.1 -57.3 -29.1 -57.45 -29.0 -57.6 -27.6 -57.2 -27.7 -56.8" fill="url(#gradient18)" fill-rule="evenodd" stroke="none"/>
    <path d="M-29.0 -57.6 L-29.1 -57.45 -29.2 -57.7 -29.0 -57.6" fill="url(#gradient19)" fill-rule="evenodd" stroke="none"/>
    <path d="M-41.55 -28.8 L-41.8 -28.55 -42.2 -28.65 -44.1 -29.6 -44.25 -29.0 -46.7 -29.3 -48.1 -30.45 -48.1 -30.55 -48.15 -30.55 -50.6 -32.95 -47.7 -35.35 -46.55 -36.15 -44.1 -35.75 -44.1 -34.85 -42.0 -35.4 -41.5 -35.35 -41.4 -35.1 -41.15 -33.8 -41.05 -33.4 -40.9 -32.75 -41.15 -31.75 -40.85 -31.1 -40.85 -31.0 -41.05 -30.2 -41.55 -28.8" fill="url(#gradient20)" fill-rule="evenodd" stroke="none"/>
    <path d="M-42.2 -28.65 L-44.0 -26.1 -44.25 -26.1 -44.25 -29.0 -44.1 -29.6 -42.2 -28.65 M-44.1 -35.75 L-43.75 -38.7 -42.0 -35.4 -44.1 -34.85 -44.1 -35.75 M-41.05 -33.4 L-41.15 -33.8 -40.9 -33.4 -41.05 -33.4" fill="url(#gradient21)" fill-rule="evenodd" stroke="none"/>
    <path d="M-48.1 -30.45 L-48.15 -30.55 -48.1 -30.55 -48.1 -30.45" fill="url(#gradient22)" fill-rule="evenodd" stroke="none"/>
    <path d="M-48.15 -30.55 L-79.25 -35.85 -84.25 -38.55 -79.0 -39.65 -47.7 -35.35 -50.6 -32.95 -48.15 -30.55" fill="url(#gradient23)" fill-rule="evenodd" stroke="none"/>
    <path d="M-24.05 -46.7 L-22.25 -44.5 -21.0 -41.95 -22.25 -40.55 Q-24.7 -40.4 -25.8 -38.9 L-26.8 -39.0 -27.05 -39.0 -27.8 -39.15 -28.5 -39.4 -28.6 -39.5 -29.3 -41.2 -29.2 -41.45 -25.25 -42.7 -23.3 -42.6 -24.05 -46.7" fill="url(#gradient24)" fill-rule="evenodd" stroke="none"/>
    <path d="M-21.0 -41.95 L-18.8 -37.05 -19.15 -36.55 -19.4 -36.65 -20.1 -36.1 -20.35 -36.1 -20.25 -36.9 -21.15 -37.05 Q-22.2 -37.45 -24.05 -36.35 L-24.75 -36.45 -26.15 -38.2 -26.8 -39.0 -25.8 -38.9 Q-24.7 -40.4 -22.25 -40.55 L-21.0 -41.95" fill="url(#gradient25)" fill-rule="evenodd" stroke="none"/>
    <path d="M-24.75 -36.45 L-24.05 -36.35 Q-22.2 -37.45 -21.15 -37.05 L-20.25 -36.9 -20.35 -36.1 -20.1 -36.1 -19.4 -36.65 -19.15 -36.55 -19.4 -31.75 -19.2 -30.55 -19.2 -30.45 -20.6 -28.4 Q-21.0 -27.7 -22.8 -27.5 L-23.6 -27.65 -24.75 -28.9 -25.35 -30.55 -25.6 -31.7 Q-25.95 -32.85 -25.15 -35.5 L-24.75 -36.45" fill="url(#gradient26)" fill-rule="evenodd" stroke="none"/>
    <path d="M-18.8 -37.05 L-14.5 -27.05 -16.3 -27.65 -18.15 -29.25 -18.25 -29.3 -19.2 -30.45 -19.2 -30.55 -19.4 -31.75 -19.15 -36.55 -18.8 -37.05" fill="url(#gradient27)" fill-rule="evenodd" stroke="none"/>
    <path d="M-15.8 -24.1 Q-16.45 -23.6 -23.55 -25.15 L-23.3 -27.05 -22.8 -27.5 Q-21.0 -27.7 -20.6 -28.4 L-19.2 -30.45 -18.25 -29.3 -18.15 -29.25 -16.3 -24.8 Q-15.55 -24.3 -15.8 -24.1" fill="url(#gradient28)" fill-rule="evenodd" stroke="none"/>
    <path d="M-9.45 -16.8 Q-11.0 -17.75 -12.85 -19.95 L-15.8 -24.1 Q-15.55 -24.3 -16.3 -24.8 L-18.15 -29.25 -16.3 -27.65 -14.5 -27.05 -9.45 -16.8" fill="url(#gradient29)" fill-rule="evenodd" stroke="none"/>
    <path d="M-29.2 -41.45 L-29.3 -41.2 -30.4 -40.5 -30.55 -40.5 -34.15 -41.05 -30.95 -41.1 -29.2 -41.45" fill="url(#gradient30)" fill-rule="evenodd" stroke="none"/>
    <path d="M-29.3 -41.2 L-28.6 -39.5 -28.6 -39.4 -28.5 -38.05 -28.85 -36.15 -29.1 -35.85 -29.5 -37.3 -30.0 -37.6 -30.05 -39.0 -30.45 -40.3 -30.4 -40.5 -29.3 -41.2" fill="url(#gradient31)" fill-rule="evenodd" stroke="none"/>
    <path d="M-35.35 -35.1 L-36.25 -38.55 -36.05 -41.2 -35.1 -41.1 Q-37.05 -35.7 -32.6 -33.8 L-32.85 -33.55 -33.25 -33.8 -34.05 -33.55 -34.55 -33.95 -35.35 -35.1 M-30.4 -40.5 L-30.45 -40.3 -30.55 -40.5 -30.4 -40.5" fill="url(#gradient32)" fill-rule="evenodd" stroke="none"/>
    <path d="M-30.45 -40.3 L-30.05 -39.0 -30.0 -37.6 -30.15 -36.25 -31.05 -34.5 -31.7 -33.95 -32.6 -33.8 Q-37.05 -35.7 -35.1 -41.1 L-34.15 -41.05 -30.55 -40.5 -30.45 -40.3" fill="url(#gradient33)" fill-rule="evenodd" stroke="none"/>
    <path d="M-30.0 -37.6 L-29.5 -37.3 -29.1 -35.85 -29.2 -34.7 -29.65 -33.7 -30.3 -33.4 -31.05 -34.5 -30.15 -36.25 -30.0 -37.6" fill="url(#gradient34)" fill-rule="evenodd" stroke="none"/>
    <path d="M-28.6 -39.5 L-28.5 -39.4 -28.6 -39.4 -28.6 -39.5" fill="url(#gradient35)" fill-rule="evenodd" stroke="none"/>
    <path d="M-28.5 -39.4 L-27.8 -39.15 -28.05 -38.6 -28.5 -38.05 -28.6 -39.4 -28.5 -39.4" fill="url(#gradient36)" fill-rule="evenodd" stroke="none"/>
    <path d="M-24.75 -36.45 L-25.15 -35.5 Q-25.95 -32.85 -25.6 -31.7 -27.25 -31.45 -27.85 -32.05 L-29.65 -33.55 -29.65 -33.7 -29.2 -34.7 -29.1 -35.85 -28.85 -36.15 -27.6 -37.4 -26.15 -38.2 -24.75 -36.45" fill="url(#gradient37)" fill-rule="evenodd" stroke="none"/>
    <path d="M-27.8 -39.15 L-27.05 -39.0 -28.05 -38.6 -27.8 -39.15" fill="url(#gradient38)" fill-rule="evenodd" stroke="none"/>
    <path d="M-34.95 -32.8 L-34.55 -33.95 -34.05 -33.55 -33.25 -33.8 -32.85 -33.55 Q-31.6 -31.7 -30.15 -32.65 L-30.4 -30.55 -30.9 -29.8 Q-33.7 -25.05 -35.05 -30.55 L-35.2 -31.1 -34.95 -32.8" fill="url(#gradient39)" fill-rule="evenodd" stroke="none"/>
    <path d="M-36.5 -33.05 L-35.35 -35.1 -34.55 -33.95 -34.95 -32.8 -35.8 -32.55 -36.35 -32.75 -36.5 -33.05" fill="url(#gradient40)" fill-rule="evenodd" stroke="none"/>
    <path d="M-35.8 -32.55 L-34.95 -32.8 -35.2 -31.1 -36.25 -30.7 -36.4 -31.5 -35.8 -32.55" fill="url(#gradient41)" fill-rule="evenodd" stroke="none"/>
    <path d="M-37.0 -32.75 L-36.35 -32.75 -35.8 -32.55 -36.4 -31.5 -37.0 -32.75 M-40.9 -33.4 L-40.25 -33.3 -40.9 -32.75 -41.05 -33.4 -40.9 -33.4 M-40.85 -31.0 L-40.85 -30.2 -41.05 -30.2 -40.85 -31.0" fill="url(#gradient42)" fill-rule="evenodd" stroke="none"/>
    <path d="M-40.1 -33.4 L-37.8 -33.7 -36.5 -33.05 -36.35 -32.75 -37.0 -32.75 -38.8 -32.5 -40.85 -31.1 -41.15 -31.75 -40.9 -32.75 -40.25 -33.3 -40.1 -33.4" fill="url(#gradient43)" fill-rule="evenodd" stroke="none"/>
    <path d="M-36.1 -28.3 Q-39.5 -26.45 -40.75 -29.8 L-40.85 -30.2 -40.85 -31.0 -40.85 -31.1 -38.8 -32.5 -37.0 -32.75 -36.4 -31.5 -36.25 -30.7 -36.25 -30.55 -36.4 -29.15 -36.1 -28.3" fill="url(#gradient44)" fill-rule="evenodd" stroke="none"/>
    <path d="M-36.05 -28.1 L-36.1 -28.3 -36.4 -29.15 -36.25 -30.55 -36.25 -30.7 -35.2 -31.1 -35.05 -30.55 Q-33.7 -25.05 -30.9 -29.8 -31.55 -25.7 -35.1 -27.15 L-36.05 -28.1" fill="url(#gradient45)" fill-rule="evenodd" stroke="none"/>
    <path d="M-40.75 -29.8 L-41.55 -28.8 -41.05 -30.2 -40.85 -30.2 -40.75 -29.8 M-41.4 -35.1 L-40.1 -33.4 -40.25 -33.3 -40.9 -33.4 -41.15 -33.8 -41.4 -35.1" fill="url(#gradient46)" fill-rule="evenodd" stroke="none"/>
    <path d="M-33.95 -19.5 L-35.05 -23.0 -35.2 -25.8 -35.2 -25.9 -35.1 -26.35 Q-33.4 -23.85 -32.7 -23.9 L-30.95 -23.85 -30.4 -21.95 Q-29.25 -15.2 -33.95 -19.5" fill="url(#gradient47)" fill-rule="evenodd" stroke="none"/>
    <path d="M-26.5 -25.45 L-28.75 -24.4 -30.95 -23.85 -32.7 -23.9 Q-33.4 -23.85 -35.1 -26.35 L-35.1 -27.15 Q-31.55 -25.7 -30.9 -29.8 L-30.4 -30.55 -30.15 -32.65 -29.65 -33.55 -27.85 -32.05 Q-27.25 -31.45 -25.6 -31.7 L-25.35 -30.55 -24.75 -28.9 -23.6 -27.65 -26.5 -25.45" fill="url(#gradient48)" fill-rule="evenodd" stroke="none"/>
    <path d="M-35.3 -25.9 L-36.05 -28.1 -35.1 -27.15 -35.1 -26.35 -35.2 -25.9 -35.3 -25.9" fill="url(#gradient49)" fill-rule="evenodd" stroke="none"/>
    <path d="M-35.2 -25.8 L-35.3 -25.9 -35.2 -25.9 -35.2 -25.8" fill="url(#gradient50)" fill-rule="evenodd" stroke="none"/>
    <path d="M-32.6 -33.8 L-31.7 -33.95 -31.05 -34.5 -30.3 -33.4 -29.65 -33.7 -29.65 -33.55 -30.15 -32.65 Q-31.6 -31.7 -32.85 -33.55 L-32.6 -33.8" fill="url(#gradient51)" fill-rule="evenodd" stroke="none"/>
    <path d="M-28.75 -24.4 L-28.2 -21.95 -28.1 -18.7 -28.35 -18.7 Q-29.5 -20.0 -30.0 -21.65 L-30.4 -21.95 -30.95 -23.85 -28.75 -24.4" fill="url(#gradient52)" fill-rule="evenodd" stroke="none"/>
    <path d="M-23.3 -27.05 L-24.2 -26.35 -26.5 -25.45 -23.6 -27.65 -22.8 -27.5 -23.3 -27.05" fill="url(#gradient53)" fill-rule="evenodd" stroke="none"/>
    <path d="M-28.1 -18.7 Q-27.8 -18.8 -27.45 -13.95 L-26.55 -10.3 -26.65 -10.15 -26.95 -7.75 -27.45 -7.35 -28.45 -7.35 Q-31.7 -8.8 -32.0 -11.35 L-32.0 -11.95 -31.95 -12.0 -32.1 -12.1 -32.25 -12.65 -32.45 -13.15 -33.95 -19.5 Q-29.25 -15.2 -30.4 -21.95 L-30.0 -21.65 Q-29.5 -20.0 -28.35 -18.7 L-28.1 -18.7" fill="url(#gradient54)" fill-rule="evenodd" stroke="none"/>
    <path d="M-30.65 -6.55 L-28.85 -4.9 Q-31.0 -5.35 -31.15 -5.75 L-33.75 -8.0 -34.4 -9.25 Q-35.0 -11.45 -32.5 -12.65 L-32.25 -12.65 -32.1 -12.1 -32.0 -11.95 -32.0 -11.35 Q-32.85 -8.85 -30.7 -6.6 L-30.65 -6.55" fill="url(#gradient55)" fill-rule="evenodd" stroke="none"/>
    <path d="M-32.1 -12.1 L-31.95 -12.0 -32.0 -11.95 -32.1 -12.1" fill="url(#gradient56)" fill-rule="evenodd" stroke="none"/>
    <path d="M-25.5 -8.55 Q-25.55 -3.75 -30.65 -6.55 L-30.65 -6.6 -30.7 -6.6 Q-32.85 -8.85 -32.0 -11.35 -31.7 -8.8 -28.45 -7.35 L-27.45 -7.35 -26.95 -7.75 -26.65 -10.15 -25.8 -9.3 -25.5 -8.55 M-34.4 -9.25 L-36.1 -10.45 -36.25 -11.1 Q-34.75 -14.0 -32.45 -13.15 L-32.25 -12.65 -32.5 -12.65 Q-35.0 -11.45 -34.4 -9.25" fill="url(#gradient57)" fill-rule="evenodd" stroke="none"/>
    <path d="M-26.55 -10.3 L-25.8 -9.3 -25.15 -8.45 -25.5 -8.55 -25.8 -9.3 -26.65 -10.15 -26.55 -10.3" fill="url(#gradient58)" fill-rule="evenodd" stroke="none"/>
    <path d="M-30.7 -6.6 L-30.65 -6.6 -30.65 -6.55 -30.7 -6.6" fill="url(#gradient59)" fill-rule="evenodd" stroke="none"/>
  </g>
  <defs>
    <radialGradient cx="0" cy="0" gradientTransform="matrix(0.0147, 0.0, 0.0, 0.0147, -38.65, -73.9)" gradientUnits="userSpaceOnUse" id="gradient0" r="819.2" spreadMethod="pad">
      <stop offset="0.0" stop-color="#ebdd42"/>
      <stop offset="1.0" stop-color="#d7ca3c"/>
    </radialGradient>
    <radialGradient cx="0" cy="0" gradientTransform="matrix(0.0078, 0.0, 0.0, 0.0078, -33.8, -60.0)" gradientUnits="userSpaceOnUse" id="gradient1" r="819.2" spreadMethod="pad">
      <stop offset="0.0" stop-color="#6a644d"/>
      <stop offset="1.0" stop-color="#494535"/>
    </radialGradient>
    <radialGradient cx="0" cy="0" gradientTransform="matrix(0.0081, 0.0, 0.0, 0.0081, -31.0, -62.0)" gradientUnits="userSpaceOnUse" id="gradient2" r="819.2" spreadMethod="pad">
      <stop offset="0.0" stop-color="#12110d"/>
      <stop offset="1.0" stop-color="#0c0c09"/>
    </radialGradient>
    <radialGradient cx="0" cy="0" gradientTransform="matrix(0.0064, 0.0, 0.0, 0.0064, -32.4, -59.3)" gradientUnits="userSpaceOnUse" id="gradient3" r="819.2" spreadMethod="pad">
      <stop offset="0.0" stop-color="#6a634d"/>
      <stop offset="1.0" stop-color="#4e4939"/>
    </radialGradient>
    <radialGradient cx="0" cy="0" gradientTransform="matrix(0.0051, 0.0, 0.0, 0.0051, -30.25, -57.85)" gradientUnits="userSpaceOnUse" id="gradient4" r="819.2" spreadMethod="pad">
      <stop offset="0.0" stop-color="#918484"/>
      <stop offset="1.0" stop-color="#504949"/>
    </radialGradient>
    <radialGradient cx="0" cy="0" gradientTransform="matrix(0.0821, 0.0, 0.0, 0.0821, -27.4, -51.05)" gradientUnits="userSpaceOnUse" id="gradient5" r="819.2" spreadMethod="pad">
      <stop offset="0.0" stop-color="#645e49"/>
      <stop offset="1.0" stop-color="#4c4737"/>
    </radialGradient>
    <radialGradient cx="0" cy="0" gradientTransform="matrix(0.0042, 0.0, 0.0, 0.0042, -27.65, -57.35)" gradientUnits="userSpaceOnUse" id="gradient6" r="819.2" spreadMethod="pad">
      <stop offset="0.0" stop-color="#857979"/>
      <stop offset="1.0" stop-color="#585050"/>
    </radialGradient>
    <radialGradient cx="0" cy="0" gradientTransform="matrix(0.0058, 0.0, 0.0, 0.0058, -37.9, -62.6)" gradientUnits="userSpaceOnUse" id="gradient7" r="819.2" spreadMethod="pad">
      <stop offset="0.0" stop-color="#484435"/>
      <stop offset="1.0" stop-color="#474233"/>
    </radialGradient>
    <radialGradient cx="0" cy="0" gradientTransform="matrix(0.0071, 0.0, 0.0, 0.0071, -40.6, -61.0)" gradientUnits="userSpaceOnUse" id="gradient8" r="819.2" spreadMethod="pad">
      <stop offset="0.0" stop-color="#3d392c"/>
      <stop offset="1.0" stop-color="#1e1d16"/>
    </radialGradient>
    <radialGradient cx="0" cy="0" gradientTransform="matrix(0.0089, 0.0, 0.0, 0.0089, -36.4, -59.15)" gradientUnits="userSpaceOnUse" id="gradient9" r="819.2" spreadMethod="pad">
      <stop offset="0.0" stop-color="#595341"/>
      <stop offset="1.0" stop-color="#403c2e"/>
    </radialGradient>
    <radialGradient cx="0" cy="0" gradientTransform="matrix(0.0147, 0.0, 0.0, 0.0147, -38.65, -73.9)" gradientUnits="userSpaceOnUse" id="gradient10" r="819.2" spreadMethod="pad">
      <stop offset="0.0" stop-color="#b4aa32"/>
      <stop offset="1.0" stop-color="#a2982d"/>
    </radialGradient>
    <radialGradient cx="0" cy="0" gradientTransform="matrix(0.0038, 0.0, 0.0, 0.0038, -36.35, -56.55)" gradientUnits="userSpaceOnUse" id="gradient11" r="819.2" spreadMethod="pad">
      <stop offset="0.0" stop-color="#feb368"/>
      <stop offset="1.0" stop-color="#9c6e40"/>
    </radialGradient>
    <radialGradient cx="0" cy="0" gradientTransform="matrix(0.0105, 0.0, 0.0, 0.0105, -34.25, -53.35)" gradientUnits="userSpaceOnUse" id="gradient12" r="819.2" spreadMethod="pad">
      <stop offset="0.0" stop-color="#918484"/>
      <stop offset="1.0" stop-color="#5e5656"/>
    </radialGradient>
    <radialGradient cx="0" cy="0" gradientTransform="matrix(0.005, 0.0, 0.0, 0.005, -36.2, -56.55)" gradientUnits="userSpaceOnUse" id="gradient13" r="819.2" spreadMethod="pad">
      <stop offset="0.0" stop-color="#887c7c"/>
      <stop offset="1.0" stop-color="#5a5353"/>
    </radialGradient>
    <radialGradient cx="0" cy="0" gradientTransform="matrix(0.0133, 0.0, 0.0, 0.0133, -32.55, -48.7)" gradientUnits="userSpaceOnUse" id="gradient14" r="819.2" spreadMethod="pad">
      <stop offset="0.0" stop-color="#72c0eb"/>
      <stop offset="1.0" stop-color="#5087a5"/>
    </radialGradient>
    <radialGradient cx="0" cy="0" gradientTransform="matrix(0.0054, 0.0, 0.0, 0.0054, -38.2, -49.7)" gradientUnits="userSpaceOnUse" id="gradient15" r="819.2" spreadMethod="pad">
      <stop offset="0.0" stop-color="#3e687f"/>
      <stop offset="1.0" stop-color="#0e181e"/>
    </radialGradient>
    <radialGradient cx="0" cy="0" gradientTransform="matrix(0.014, 0.0, 0.0, 0.014, -34.0, -41.15)" gradientUnits="userSpaceOnUse" id="gradient16" r="819.2" spreadMethod="pad">
      <stop offset="0.0" stop-color="#68614b"/>
      <stop offset="1.0" stop-color="#4b4737"/>
    </radialGradient>
    <radialGradient cx="0" cy="0" gradientTransform="matrix(0.0629, 0.0, 0.0, 0.0629, 6.25, -18.2)" gradientUnits="userSpaceOnUse" id="gradient17" r="819.2" spreadMethod="pad">
      <stop offset="0.0" stop-color="#958888"/>
      <stop offset="1.0" stop-color="#655c5c"/>
    </radialGradient>
    <radialGradient cx="0" cy="0" gradientTransform="matrix(0.0022, 0.0, 0.0, 0.0022, -27.85, -56.45)" gradientUnits="userSpaceOnUse" id="gradient18" r="819.2" spreadMethod="pad">
      <stop offset="0.0" stop-color="#8a7e7e"/>
      <stop offset="1.0" stop-color="#8a7e7e"/>
    </radialGradient>
    <radialGradient cx="0" cy="0" gradientTransform="matrix(0.0011, 0.0, 0.0, 0.0011, -29.1, -57.8)" gradientUnits="userSpaceOnUse" id="gradient19" r="819.2" spreadMethod="pad">
      <stop offset="0.0" stop-color="#645b5b"/>
      <stop offset="1.0" stop-color="#645b5b"/>
    </radialGradient>
    <radialGradient cx="0" cy="0" gradientTransform="matrix(0.0121, 0.0, 0.0, 0.0121, -50.7, -33.05)" gradientUnits="userSpaceOnUse" id="gradient20" r="819.2" spreadMethod="pad">
      <stop offset="0.0" stop-color="#ffff51"/>
      <stop offset="1.0" stop-color="#eadc41"/>
    </radialGradient>
    <radialGradient cx="0" cy="0" gradientTransform="matrix(0.0079, 0.0, 0.0, 0.0079, -44.4, -32.35)" gradientUnits="userSpaceOnUse" id="gradient21" r="819.2" spreadMethod="pad">
      <stop offset="0.0" stop-color="#ffffff"/>
      <stop offset="1.0" stop-color="#f9f9f9"/>
    </radialGradient>
    <radialGradient cx="0" cy="0" gradientTransform="matrix(0.0082, 0.0, 0.0, 0.0082, -46.7, -36.25)" gradientUnits="userSpaceOnUse" id="gradient22" r="819.2" spreadMethod="pad">
      <stop offset="0.0" stop-color="#222009"/>
      <stop offset="1.0" stop-color="#222009"/>
    </radialGradient>
    <radialGradient cx="0" cy="0" gradientTransform="matrix(0.0499, 0.0, 0.0, 0.0499, -43.65, -34.9)" gradientUnits="userSpaceOnUse" id="gradient23" r="819.2" spreadMethod="pad">
      <stop offset="0.0" stop-color="#f8f8f8"/>
      <stop offset="1.0" stop-color="#f1f1f1"/>
    </radialGradient>
    <radialGradient cx="0" cy="0" gradientTransform="matrix(0.0122, 0.0, 0.0, 0.0122, -24.05, -48.5)" gradientUnits="userSpaceOnUse" id="gradient24" r="819.2" spreadMethod="pad">
      <stop offset="0.0" stop-color="#615a46"/>
      <stop offset="1.0" stop-color="#333025"/>
    </radialGradient>
    <radialGradient cx="0" cy="0" gradientTransform="matrix(0.0075, 0.0, 0.0, 0.0075, -21.25, -36.8)" gradientUnits="userSpaceOnUse" id="gradient25" r="819.2" spreadMethod="pad">
      <stop offset="0.0" stop-color="#416588"/>
      <stop offset="1.0" stop-color="#2f4963"/>
    </radialGradient>
    <radialGradient cx="0" cy="0" gradientTransform="matrix(0.0101, 0.0, 0.0, 0.0101, -21.7, -35.8)" gradientUnits="userSpaceOnUse" id="gradient26" r="819.2" spreadMethod="pad">
      <stop offset="0.0" stop-color="#69624c"/>
      <stop offset="1.0" stop-color="#2c2a20"/>
    </radialGradient>
    <radialGradient cx="0" cy="0" gradientTransform="matrix(0.0117, 0.0, 0.0, 0.0117, -18.85, -35.65)" gradientUnits="userSpaceOnUse" id="gradient27" r="819.2" spreadMethod="pad">
      <stop offset="0.0" stop-color="#6b644e"/>
      <stop offset="1.0" stop-color="#302d23"/>
    </radialGradient>
    <radialGradient cx="0" cy="0" gradientTransform="matrix(0.0082, 0.0, 0.0, 0.0082, -21.1, -28.7)" gradientUnits="userSpaceOnUse" id="gradient28" r="819.2" spreadMethod="pad">
      <stop offset="0.0" stop-color="#121010"/>
      <stop offset="1.0" stop-color="#121010"/>
    </radialGradient>
    <radialGradient cx="0" cy="0" gradientTransform="matrix(0.0189, 0.0, 0.0, 0.0189, -17.15, -29.6)" gradientUnits="userSpaceOnUse" id="gradient29" r="819.2" spreadMethod="pad">
      <stop offset="0.0" stop-color="#456b90"/>
      <stop offset="1.0" stop-color="#1f3041"/>
    </radialGradient>
    <radialGradient cx="0" cy="0" gradientTransform="matrix(0.0039, 0.0, 0.0, 0.0039, -31.65, -41.85)" gradientUnits="userSpaceOnUse" id="gradient30" r="819.2" spreadMethod="pad">
      <stop offset="0.0" stop-color="#cf9255"/>
      <stop offset="1.0" stop-color="#8d633a"/>
    </radialGradient>
    <radialGradient cx="0" cy="0" gradientTransform="matrix(0.0068, 0.0, 0.0, 0.0068, -30.9, -40.75)" gradientUnits="userSpaceOnUse" id="gradient31" r="819.2" spreadMethod="pad">
      <stop offset="0.0" stop-color="#ffdf82"/>
      <stop offset="1.0" stop-color="#af7b47"/>
    </radialGradient>
    <radialGradient cx="0" cy="0" gradientTransform="matrix(0.009, 0.0, 0.0, 0.009, -31.1, -40.35)" gradientUnits="userSpaceOnUse" id="gradient32" r="819.2" spreadMethod="pad">
      <stop offset="0.0" stop-color="#ffc673"/>
      <stop offset="1.0" stop-color="#a07141"/>
    </radialGradient>
    <radialGradient cx="0" cy="0" gradientTransform="matrix(0.0089, 0.0, 0.0, 0.0089, -32.1, -41.2)" gradientUnits="userSpaceOnUse" id="gradient33" r="819.2" spreadMethod="pad">
      <stop offset="0.0" stop-color="#ffe283"/>
      <stop offset="1.0" stop-color="#93673c"/>
    </radialGradient>
    <radialGradient cx="0" cy="0" gradientTransform="matrix(0.0046, 0.0, 0.0, 0.0046, -30.25, -37.25)" gradientUnits="userSpaceOnUse" id="gradient34" r="819.2" spreadMethod="pad">
      <stop offset="0.0" stop-color="#ffe082"/>
      <stop offset="1.0" stop-color="#94683d"/>
    </radialGradient>
    <radialGradient cx="0" cy="0" gradientTransform="matrix(0.0022, 0.0, 0.0, 0.0022, -28.1, -39.35)" gradientUnits="userSpaceOnUse" id="gradient35" r="819.2" spreadMethod="pad">
      <stop offset="0.0" stop-color="#0c0c09"/>
      <stop offset="1.0" stop-color="#0c0c09"/>
    </radialGradient>
    <radialGradient cx="0" cy="0" gradientTransform="matrix(0.0028, 0.0, 0.0, 0.0028, -28.9, -39.9)" gradientUnits="userSpaceOnUse" id="gradient36" r="819.2" spreadMethod="pad">
      <stop offset="0.0" stop-color="#79cdfb"/>
      <stop offset="1.0" stop-color="#427089"/>
    </radialGradient>
    <radialGradient cx="0" cy="0" gradientTransform="matrix(0.007, 0.0, 0.0, 0.007, -24.55, -35.65)" gradientUnits="userSpaceOnUse" id="gradient37" r="819.2" spreadMethod="pad">
      <stop offset="0.0" stop-color="#625c47"/>
      <stop offset="1.0" stop-color="#3d3a2c"/>
    </radialGradient>
    <radialGradient cx="0" cy="0" gradientTransform="matrix(0.0014, 0.0, 0.0, 0.0014, -27.8, -39.6)" gradientUnits="userSpaceOnUse" id="gradient38" r="819.2" spreadMethod="pad">
      <stop offset="0.0" stop-color="#ffcb76"/>
      <stop offset="1.0" stop-color="#815b34"/>
    </radialGradient>
    <radialGradient cx="0" cy="0" gradientTransform="matrix(0.0078, 0.0, 0.0, 0.0078, -33.45, -33.95)" gradientUnits="userSpaceOnUse" id="gradient39" r="819.2" spreadMethod="pad">
      <stop offset="0.0" stop-color="#655e49"/>
      <stop offset="1.0" stop-color="#2d2a21"/>
    </radialGradient>
    <radialGradient cx="0" cy="0" gradientTransform="matrix(0.0044, 0.0, 0.0, 0.0044, -35.1, -32.65)" gradientUnits="userSpaceOnUse" id="gradient40" r="819.2" spreadMethod="pad">
      <stop offset="0.0" stop-color="#6e6750"/>
      <stop offset="1.0" stop-color="#4d4837"/>
    </radialGradient>
    <radialGradient cx="0" cy="0" gradientTransform="matrix(0.002, 0.0, 0.0, 0.002, -35.05, -31.85)" gradientUnits="userSpaceOnUse" id="gradient41" r="819.2" spreadMethod="pad">
      <stop offset="0.0" stop-color="#615a46"/>
      <stop offset="1.0" stop-color="#3f3b2e"/>
    </radialGradient>
    <radialGradient cx="0" cy="0" gradientTransform="matrix(0.01, 0.0, 0.0, 0.01, -34.65, -31.55)" gradientUnits="userSpaceOnUse" id="gradient42" r="819.2" spreadMethod="pad">
      <stop offset="0.0" stop-color="#416588"/>
      <stop offset="1.0" stop-color="#375775"/>
    </radialGradient>
    <radialGradient cx="0" cy="0" gradientTransform="matrix(0.0035, 0.0, 0.0, 0.0035, -39.25, -32.4)" gradientUnits="userSpaceOnUse" id="gradient43" r="819.2" spreadMethod="pad">
      <stop offset="0.0" stop-color="#6e6750"/>
      <stop offset="1.0" stop-color="#433e30"/>
    </radialGradient>
    <radialGradient cx="0" cy="0" gradientTransform="matrix(0.0037, 0.0, 0.0, 0.0037, -38.2, -30.85)" gradientUnits="userSpaceOnUse" id="gradient44" r="819.2" spreadMethod="pad">
      <stop offset="0.0" stop-color="#6e6750"/>
      <stop offset="1.0" stop-color="#363327"/>
    </radialGradient>
    <radialGradient cx="0" cy="0" gradientTransform="matrix(0.0044, 0.0, 0.0, 0.0044, -34.4, -30.25)" gradientUnits="userSpaceOnUse" id="gradient45" r="819.2" spreadMethod="pad">
      <stop offset="0.0" stop-color="#6c654e"/>
      <stop offset="1.0" stop-color="#333025"/>
    </radialGradient>
    <radialGradient cx="0" cy="0" gradientTransform="matrix(0.0052, 0.0, 0.0, 0.0052, -39.3, -32.1)" gradientUnits="userSpaceOnUse" id="gradient46" r="819.2" spreadMethod="pad">
      <stop offset="0.0" stop-color="#ffff4e"/>
      <stop offset="1.0" stop-color="#ffff4d"/>
    </radialGradient>
    <radialGradient cx="0" cy="0" gradientTransform="matrix(0.0108, 0.0, 0.0, 0.0108, -33.4, -25.8)" gradientUnits="userSpaceOnUse" id="gradient47" r="819.2" spreadMethod="pad">
      <stop offset="0.0" stop-color="#6e6750"/>
      <stop offset="1.0" stop-color="#3f3b2e"/>
    </radialGradient>
    <radialGradient cx="0" cy="0" gradientTransform="matrix(0.0144, 0.0, 0.0, 0.0144, -25.05, -32.25)" gradientUnits="userSpaceOnUse" id="gradient48" r="819.2" spreadMethod="pad">
      <stop offset="0.0" stop-color="#3a5b7b"/>
      <stop offset="1.0" stop-color="#24394d"/>
    </radialGradient>
    <radialGradient cx="0" cy="0" gradientTransform="matrix(0.0033, 0.0, 0.0, 0.0033, -35.35, -28.1)" gradientUnits="userSpaceOnUse" id="gradient49" r="819.2" spreadMethod="pad">
      <stop offset="0.0" stop-color="#5d9dc0"/>
      <stop offset="1.0" stop-color="#3f6b83"/>
    </radialGradient>
    <radialGradient cx="0" cy="0" gradientTransform="matrix(0.0043, 0.0, 0.0, 0.0043, -35.05, -23.05)" gradientUnits="userSpaceOnUse" id="gradient50" r="819.2" spreadMethod="pad">
      <stop offset="0.0" stop-color="#343026"/>
      <stop offset="1.0" stop-color="#0c0c09"/>
    </radialGradient>
    <radialGradient cx="0" cy="0" gradientTransform="matrix(0.0033, 0.0, 0.0, 0.0033, -31.3, -34.95)" gradientUnits="userSpaceOnUse" id="gradient51" r="819.2" spreadMethod="pad">
      <stop offset="0.0" stop-color="#6db9e2"/>
      <stop offset="1.0" stop-color="#385f74"/>
    </radialGradient>
    <radialGradient cx="0" cy="0" gradientTransform="matrix(0.0077, 0.0, 0.0, 0.0077, -30.4, -24.2)" gradientUnits="userSpaceOnUse" id="gradient52" r="819.2" spreadMethod="pad">
      <stop offset="0.0" stop-color="#655e49"/>
      <stop offset="1.0" stop-color="#3b372a"/>
    </radialGradient>
    <radialGradient cx="0" cy="0" gradientTransform="matrix(0.0062, 0.0, 0.0, 0.0062, -23.55, -28.25)" gradientUnits="userSpaceOnUse" id="gradient53" r="819.2" spreadMethod="pad">
      <stop offset="0.0" stop-color="#25394d"/>
      <stop offset="1.0" stop-color="#0e171e"/>
    </radialGradient>
    <radialGradient cx="0" cy="0" gradientTransform="matrix(0.021, 0.0, 0.0, 0.021, -31.55, -24.15)" gradientUnits="userSpaceOnUse" id="gradient54" r="819.2" spreadMethod="pad">
      <stop offset="0.0" stop-color="#6a634d"/>
      <stop offset="1.0" stop-color="#2e2b21"/>
    </radialGradient>
    <radialGradient cx="0" cy="0" gradientTransform="matrix(0.0095, 0.0, 0.0, 0.0095, -30.2, -5.4)" gradientUnits="userSpaceOnUse" id="gradient55" r="819.2" spreadMethod="pad">
      <stop offset="0.0" stop-color="#6cb7e0"/>
      <stop offset="1.0" stop-color="#467892"/>
    </radialGradient>
    <radialGradient cx="0" cy="0" gradientTransform="matrix(0.0154, 0.0, 0.0, 0.0154, -34.55, -22.3)" gradientUnits="userSpaceOnUse" id="gradient56" r="819.2" spreadMethod="pad">
      <stop offset="0.0" stop-color="#363227"/>
      <stop offset="1.0" stop-color="#2e2b21"/>
    </radialGradient>
    <radialGradient cx="0" cy="0" gradientTransform="matrix(0.007, 0.0, 0.0, 0.007, -30.95, -9.4)" gradientUnits="userSpaceOnUse" id="gradient57" r="819.2" spreadMethod="pad">
      <stop offset="0.0" stop-color="#635d48"/>
      <stop offset="1.0" stop-color="#413d2f"/>
    </radialGradient>
    <radialGradient cx="0" cy="0" gradientTransform="matrix(0.0025, 0.0, 0.0, 0.0025, -26.3, -10.05)" gradientUnits="userSpaceOnUse" id="gradient58" r="819.2" spreadMethod="pad">
      <stop offset="0.0" stop-color="#111c23"/>
      <stop offset="1.0" stop-color="#0e181e"/>
    </radialGradient>
    <radialGradient cx="0" cy="0" gradientTransform="matrix(0.0108, 0.0, 0.0, 0.0108, -29.45, -6.1)" gradientUnits="userSpaceOnUse" id="gradient59" r="819.2" spreadMethod="pad">
      <stop offset="0.0" stop-color="#25221b"/>
      <stop offset="1.0" stop-color="#0c0c09"/>
    </radialGradient>
  </defs>
</svg>
