<?xml version="1.0" encoding="UTF-8" standalone="no"?>
<svg xmlns:ffdec="https://www.free-decompiler.com/flash" xmlns:xlink="http://www.w3.org/1999/xlink" ffdec:objectType="shape" height="67.25px" width="28.6px" xmlns="http://www.w3.org/2000/svg">
  <g transform="matrix(1.0, 0.0, 0.0, 1.0, 15.45, 58.7)">
    <path d="M5.15 -54.85 L5.6 -56.65 6.1 -57.7 6.45 -57.35 6.9 -55.2 5.45 -53.15 4.95 -54.0 5.1 -54.6 5.15 -54.85" fill="url(#gradient0)" fill-rule="evenodd" stroke="none"/>
    <path d="M-3.1 -51.45 L-3.1 -52.45 -2.65 -52.9 Q-1.05 -49.35 -1.45 -49.1 -0.3 -47.9 0.35 -47.85 L0.8 -47.3 -0.05 -47.5 -0.25 -47.6 -2.2 -49.0 -2.3 -49.05 -2.35 -48.25 -3.0 -48.95 -3.1 -50.65 -3.1 -50.8 -3.1 -51.3 -3.1 -51.45 M-1.7 -54.2 L-1.25 -54.9 -0.9 -55.0 -0.5 -53.8 -1.55 -54.0 -1.7 -54.2 M1.3 -55.85 L1.9 -55.9 1.95 -54.8 1.4 -55.25 1.3 -54.4 0.35 -55.45 0.55 -55.55 1.3 -55.85 M1.05 -50.25 L1.0 -50.45 1.15 -50.85 1.15 -49.0 Q2.65 -47.65 3.05 -47.85 L4.05 -50.05 3.9 -50.75 4.5 -51.05 4.15 -49.3 4.2 -49.0 4.0 -48.35 5.15 -48.3 5.65 -48.0 4.25 -47.25 4.15 -47.25 1.1 -47.25 0.75 -48.15 1.05 -50.25 M5.15 -52.7 L4.7 -53.7 5.25 -52.85 5.15 -52.7" fill="url(#gradient1)" fill-rule="evenodd" stroke="none"/>
    <path d="M-0.5 -56.35 L0.0 -56.35 1.3 -55.85 0.55 -55.55 -0.35 -56.3 -0.5 -56.35" fill="url(#gradient2)" fill-rule="evenodd" stroke="none"/>
    <path d="M1.9 -55.9 L1.95 -58.05 2.65 -57.45 4.7 -53.7 5.15 -52.7 4.75 -52.2 4.5 -51.05 3.9 -50.75 1.95 -54.8 1.9 -55.9 M4.2 -49.0 L5.15 -48.3 4.0 -48.35 4.2 -49.0" fill="url(#gradient3)" fill-rule="evenodd" stroke="none"/>
    <path d="M2.65 -57.45 L2.5 -58.7 2.9 -58.2 5.1 -54.6 4.95 -54.0 5.45 -53.15 5.25 -52.85 4.7 -53.7 2.65 -57.45" fill="url(#gradient4)" fill-rule="evenodd" stroke="none"/>
    <path d="M0.55 -55.55 L0.35 -55.45 -0.5 -56.35 -0.35 -56.3 0.55 -55.55" fill="url(#gradient5)" fill-rule="evenodd" stroke="none"/>
    <path d="M-0.9 -55.0 L-1.25 -56.75 -0.5 -56.35 0.35 -55.45 1.3 -54.4 1.15 -50.85 1.0 -50.45 0.9 -50.5 0.5 -50.75 0.1 -51.8 -0.5 -53.8 -0.9 -55.0" fill="url(#gradient6)" fill-rule="evenodd" stroke="none"/>
    <path d="M1.3 -54.4 L1.4 -55.25 1.95 -54.8 3.9 -50.75 4.05 -50.05 3.05 -47.85 Q2.65 -47.65 1.15 -49.0 L1.15 -50.85 1.3 -54.4" fill="url(#gradient7)" fill-rule="evenodd" stroke="none"/>
    <path d="M1.05 -50.25 L0.9 -50.5 1.0 -50.45 1.05 -50.25" fill="url(#gradient8)" fill-rule="evenodd" stroke="none"/>
    <path d="M-2.65 -52.9 L-2.65 -53.05 -2.75 -53.1 -3.05 -54.2 Q-3.45 -55.25 -3.15 -55.85 L-1.7 -54.2 -1.55 -54.0 -0.25 -52.25 -0.15 -51.9 0.1 -51.8 0.5 -50.75 0.9 -50.5 1.05 -50.25 0.75 -48.15 1.1 -47.25 1.05 -47.2 0.95 -47.2 0.8 -47.3 0.35 -47.85 Q-0.3 -47.9 -1.45 -49.1 -1.05 -49.35 -2.65 -52.9" fill="url(#gradient9)" fill-rule="evenodd" stroke="none"/>
    <path d="M6.9 -55.2 Q7.6 -55.7 7.7 -54.65 L7.55 -50.45 7.0 -49.25 6.55 -48.55 6.05 -48.15 5.65 -48.0 5.15 -48.3 4.2 -49.0 4.15 -49.3 4.5 -51.05 4.75 -52.2 5.15 -52.7 5.25 -52.85 5.45 -53.15 6.9 -55.2" fill="url(#gradient10)" fill-rule="evenodd" stroke="none"/>
    <path d="M2.9 -58.2 L5.15 -54.85 5.1 -54.6 2.9 -58.2" fill="url(#gradient11)" fill-rule="evenodd" stroke="none"/>
    <path d="M6.05 -48.15 L6.55 -48.55 7.0 -49.25 6.9 -47.65 6.7 -47.3 6.25 -46.7 5.55 -46.2 Q1.4 -44.3 -1.65 -46.5 L-1.75 -46.6 -2.65 -47.65 -3.05 -48.7 -3.0 -48.95 -2.35 -48.25 -2.3 -49.05 -2.2 -49.0 -1.55 -48.25 -0.25 -47.6 -0.05 -47.5 0.95 -47.2 1.05 -47.2 3.65 -47.05 4.15 -47.25 4.25 -47.25 Q5.25 -47.45 5.65 -47.8 L6.05 -48.15" fill="url(#gradient12)" fill-rule="evenodd" stroke="none"/>
    <path d="M5.65 -48.0 L6.05 -48.15 5.65 -47.8 Q5.25 -47.45 4.25 -47.25 L5.65 -48.0 M4.15 -47.25 L3.65 -47.05 1.05 -47.2 1.1 -47.25 4.15 -47.25 M0.95 -47.2 L-0.05 -47.5 0.8 -47.3 0.95 -47.2 M-0.25 -47.6 L-1.55 -48.25 -2.2 -49.0 -0.25 -47.6" fill="url(#gradient13)" fill-rule="evenodd" stroke="none"/>
    <path d="M7.55 -50.45 Q9.7 -47.65 8.7 -45.3 L8.4 -44.65 8.2 -44.45 7.9 -44.05 7.85 -44.45 7.5 -46.05 6.7 -47.3 6.9 -47.65 7.0 -49.25 7.55 -50.45" fill="url(#gradient14)" fill-rule="evenodd" stroke="none"/>
    <path d="M5.15 -37.65 L4.85 -37.45 4.0 -37.2 Q2.7 -37.15 2.3 -37.5 2.8 -40.5 1.2 -42.15 L1.8 -43.25 3.35 -43.5 4.45 -44.45 5.35 -45.65 5.55 -46.2 6.25 -46.7 6.7 -47.3 7.5 -46.05 7.85 -44.45 7.9 -44.05 Q8.25 -41.5 6.25 -38.6 L5.15 -37.65" fill="url(#gradient15)" fill-rule="evenodd" stroke="none"/>
    <path d="M5.55 -46.2 L5.35 -45.65 4.45 -44.45 3.35 -43.5 1.8 -43.25 1.15 -43.45 -0.05 -44.3 -0.9 -45.2 -1.7 -46.5 -1.65 -46.5 Q1.4 -44.3 5.55 -46.2" fill="url(#gradient16)" fill-rule="evenodd" stroke="none"/>
    <path d="M8.7 -45.3 Q10.45 -42.45 9.65 -39.65 8.75 -37.1 6.25 -38.6 8.25 -41.5 7.9 -44.05 L8.2 -44.45 8.4 -44.65 8.7 -45.3" fill="url(#gradient17)" fill-rule="evenodd" stroke="none"/>
    <path d="M1.2 -42.15 Q2.8 -40.5 2.3 -37.5 -0.25 -30.8 -6.85 -34.0 -6.6 -34.0 -6.15 -36.45 L-6.1 -40.95 Q-2.7 -43.85 1.2 -42.15" fill="url(#gradient18)" fill-rule="evenodd" stroke="none"/>
    <path d="M4.85 -37.45 L3.9 -34.05 3.75 -32.65 Q-1.6 -25.55 -6.3 -32.0 L-6.4 -32.1 -7.6 -33.35 -6.9 -34.0 -6.85 -34.0 Q-0.25 -30.8 2.3 -37.5 2.7 -37.15 4.0 -37.2 L4.85 -37.45 M-10.2 -43.65 L-9.95 -44.5 -9.15 -46.0 -8.85 -46.35 -8.75 -46.5 -7.9 -47.35 -5.4 -48.55 -4.95 -48.75 -4.7 -48.85 -4.5 -49.05 -4.45 -49.05 -4.45 -49.0 Q-4.6 -45.9 -0.9 -44.45 L-0.65 -44.3 -0.05 -44.3 1.15 -43.45 1.8 -43.25 1.2 -42.15 Q-2.7 -43.85 -6.1 -40.95 -8.2 -44.9 -10.2 -43.65" fill="url(#gradient19)" fill-rule="evenodd" stroke="none"/>
    <path d="M9.65 -39.65 L9.85 -39.5 10.35 -38.45 10.7 -34.25 11.15 -33.15 11.15 -32.95 10.45 -32.65 10.3 -32.55 8.95 -32.55 8.55 -32.1 8.2 -32.05 5.6 -36.2 5.3 -36.9 5.15 -37.65 6.25 -38.6 Q8.75 -37.1 9.65 -39.65" fill="url(#gradient20)" fill-rule="evenodd" stroke="none"/>
    <path d="M11.15 -33.15 Q15.15 -30.05 11.1 -27.95 6.65 -28.35 8.2 -32.05 L8.55 -32.1 Q8.45 -27.9 11.0 -28.3 12.3 -29.2 10.3 -32.55 L10.45 -32.65 11.15 -32.95 11.15 -33.15" fill="url(#gradient21)" fill-rule="evenodd" stroke="none"/>
    <path d="M4.0 -33.95 L5.6 -31.8 5.8 -31.3 5.8 -29.4 Q5.5 -27.7 4.8 -26.45 L3.8 -27.35 3.45 -28.2 3.45 -28.8 Q5.45 -30.85 4.6 -32.65 L4.0 -33.95 M2.8 -27.3 L2.25 -26.25 2.5 -24.55 2.1 -24.4 1.6 -24.75 1.0 -24.5 Q-1.1 -24.9 -3.05 -24.5 L-5.7 -26.0 -6.15 -26.85 -6.45 -26.75 -6.55 -29.15 -6.7 -29.6 -6.6 -30.7 -6.4 -31.85 Q-4.9 -24.95 2.45 -27.8 L2.8 -27.3 M-6.4 -32.0 L-6.4 -32.1 -6.3 -32.0 -6.4 -32.0" fill="url(#gradient22)" fill-rule="evenodd" stroke="none"/>
    <path d="M8.55 -32.1 L8.95 -32.55 10.3 -32.55 Q12.3 -29.2 11.0 -28.3 8.45 -27.9 8.55 -32.1" fill="url(#gradient23)" fill-rule="evenodd" stroke="none"/>
    <path d="M3.9 -34.05 L4.0 -33.95 4.6 -32.65 Q5.45 -30.85 3.45 -28.8 L3.45 -28.2 2.8 -27.95 2.45 -27.8 Q-4.9 -24.95 -6.4 -31.85 L-6.4 -32.0 -6.3 -32.0 Q-1.6 -25.55 3.75 -32.65 L3.9 -34.05" fill="url(#gradient24)" fill-rule="evenodd" stroke="none"/>
    <path d="M2.8 -27.95 L3.45 -28.2 3.8 -27.35 3.5 -27.3 3.2 -27.45 2.8 -27.95 M2.8 -27.3 Q3.55 -27.45 3.95 -26.1 L4.05 -24.25 3.8 -18.0 3.55 -16.05 3.45 -15.9 3.25 -16.0 3.05 -17.0 3.1 -17.1 2.9 -17.35 2.75 -17.65 2.3 -18.95 2.55 -23.3 2.5 -24.55 2.25 -26.25 2.8 -27.3" fill="url(#gradient25)" fill-rule="evenodd" stroke="none"/>
    <path d="M2.8 -27.95 L3.2 -27.45 3.5 -27.3 3.8 -27.35 4.8 -26.45 Q6.75 -24.65 7.4 -20.85 L7.45 -19.8 7.45 -19.25 7.35 -19.2 7.35 -18.55 6.9 -17.5 5.5 -15.55 5.9 -17.7 5.8 -18.55 5.4 -20.85 4.85 -22.65 4.05 -24.25 3.95 -26.1 Q3.55 -27.45 2.8 -27.3 L2.45 -27.8 2.8 -27.95" fill="url(#gradient26)" fill-rule="evenodd" stroke="none"/>
    <path d="M5.8 -31.3 Q9.5 -27.05 8.85 -22.85 L8.75 -22.0 8.2 -20.55 7.45 -19.8 7.4 -20.85 Q6.75 -24.65 4.8 -26.45 5.5 -27.7 5.8 -29.4 L5.8 -31.3 M3.8 -18.0 L4.05 -24.25 4.85 -22.65 5.4 -20.85 5.8 -18.55 Q5.4 -18.75 4.55 -17.95 L3.8 -18.0" fill="url(#gradient27)" fill-rule="evenodd" stroke="none"/>
    <path d="M8.85 -22.85 L9.1 -20.7 8.7 -14.45 8.65 -14.2 Q8.1 -11.5 2.7 -10.4 L2.8 -16.35 2.65 -17.15 2.75 -17.65 2.9 -17.35 3.05 -17.0 3.25 -16.0 3.45 -15.9 3.55 -16.05 3.8 -18.0 4.55 -17.95 Q5.4 -18.75 5.8 -18.55 L5.9 -17.7 5.5 -15.55 6.9 -17.5 7.35 -18.55 7.5 -18.9 7.45 -19.25 7.45 -19.8 8.2 -20.55 8.75 -22.0 8.85 -22.85" fill="url(#gradient28)" fill-rule="evenodd" stroke="none"/>
    <path d="M7.35 -18.55 L7.35 -19.2 7.45 -19.25 7.5 -18.9 7.35 -18.55" fill="url(#gradient29)" fill-rule="evenodd" stroke="none"/>
    <path d="M2.5 -24.55 L2.55 -23.3 2.3 -18.95 2.75 -17.65 2.65 -17.15 Q1.1 -11.85 -6.5 -14.35 L-6.05 -15.4 Q-4.7 -18.75 -8.9 -19.4 L-8.95 -20.35 -7.85 -23.1 -7.65 -23.05 -7.05 -23.75 Q-6.75 -23.65 -5.75 -24.7 -5.9 -24.0 -3.05 -24.5 -1.1 -24.9 1.0 -24.5 L1.6 -24.75 2.1 -24.4 2.5 -24.55" fill="url(#gradient30)" fill-rule="evenodd" stroke="none"/>
    <path d="M2.9 -17.35 L3.1 -17.1 3.05 -17.0 2.9 -17.35" fill="url(#gradient31)" fill-rule="evenodd" stroke="none"/>
    <path d="M-10.25 -10.4 L-10.25 -11.0 -10.2 -11.4 -9.9 -13.45 -9.1 -13.3 -9.15 -11.1 -9.6 -9.2 -9.7 -9.1 -10.25 -10.4 M2.65 -17.15 L2.8 -16.35 2.7 -10.4 2.7 -9.55 2.5 -9.05 Q-0.25 -4.95 -4.5 -5.45 L-6.4 -6.25 -6.65 -9.05 -6.15 -11.75 -6.95 -13.9 -6.5 -14.35 Q1.1 -11.85 2.65 -17.15" fill="url(#gradient32)" fill-rule="evenodd" stroke="none"/>
    <path d="M8.65 -14.2 Q8.2 -11.45 6.75 -10.0 L4.15 -9.2 2.6 -8.95 2.65 -9.05 2.7 -9.55 2.7 -10.4 Q8.1 -11.5 8.65 -14.2" fill="url(#gradient33)" fill-rule="evenodd" stroke="none"/>
    <path d="M4.15 -9.2 L4.05 -8.6 3.95 -7.85 4.0 -7.7 Q4.25 -6.55 1.9 -6.7 L2.1 -7.0 2.6 -8.95 4.15 -9.2" fill="url(#gradient34)" fill-rule="evenodd" stroke="none"/>
    <path d="M-5.85 -4.5 L-8.45 -5.2 -8.55 -5.4 -9.8 -7.75 -10.25 -10.4 -9.7 -9.1 -9.6 -9.2 -9.15 -11.1 -9.1 -13.3 -7.65 -13.45 -6.95 -13.9 -6.15 -11.75 -6.65 -9.05 -6.4 -6.25 -4.5 -5.45 Q-0.25 -4.95 2.5 -9.05 L2.7 -9.55 2.65 -9.05 2.6 -8.95 2.1 -7.0 1.9 -6.7 1.25 -5.7 0.9 -5.15 -0.75 -4.65 -1.05 -4.55 -1.15 -4.5 -1.85 -4.3 -3.4 -4.0 -4.05 -4.1 -5.85 -4.5" fill="url(#gradient35)" fill-rule="evenodd" stroke="none"/>
    <path d="M4.05 -8.6 Q5.7 -6.9 4.65 -4.8 L4.35 -4.35 Q2.15 -2.35 -0.75 -4.6 L-0.75 -4.65 0.9 -5.15 1.25 -5.7 Q4.75 -5.0 4.0 -7.7 L3.95 -7.85 4.05 -8.6" fill="url(#gradient36)" fill-rule="evenodd" stroke="none"/>
    <path d="M4.0 -7.7 Q4.75 -5.0 1.25 -5.7 L1.9 -6.7 Q4.25 -6.55 4.0 -7.7" fill="url(#gradient37)" fill-rule="evenodd" stroke="none"/>
    <path d="M4.65 -4.8 L7.0 -2.95 6.85 -2.95 6.75 -3.0 Q3.65 -1.45 3.05 2.05 L2.65 1.9 1.0 -0.05 0.45 -2.05 Q4.4 -3.15 4.35 -4.35 L4.65 -4.8" fill="url(#gradient38)" fill-rule="evenodd" stroke="none"/>
    <path d="M1.0 -0.05 L0.3 -0.45 -0.7 -1.35 -0.9 -2.8 -1.3 -3.55 -1.15 -4.5 -1.05 -4.55 -0.75 -4.65 -0.75 -4.6 Q-1.05 -2.2 0.45 -2.05 L1.0 -0.05" fill="url(#gradient39)" fill-rule="evenodd" stroke="none"/>
    <path d="M-0.75 -4.6 Q2.15 -2.35 4.35 -4.35 4.4 -3.15 0.45 -2.05 -1.05 -2.2 -0.75 -4.6" fill="url(#gradient40)" fill-rule="evenodd" stroke="none"/>
    <path d="M7.0 -2.95 L7.25 -2.65 6.85 -2.95 7.0 -2.95" fill="url(#gradient41)" fill-rule="evenodd" stroke="none"/>
    <path d="M7.25 -2.65 Q10.05 -0.05 8.5 2.3 6.0 4.05 3.05 2.05 3.65 -1.45 6.75 -3.0 L6.85 -2.95 7.25 -2.65" fill="url(#gradient42)" fill-rule="evenodd" stroke="none"/>
    <path d="M1.3 2.45 L1.5 2.7 1.25 2.45 1.3 2.45" fill="url(#gradient43)" fill-rule="evenodd" stroke="none"/>
    <path d="M-1.15 0.1 L1.3 2.45 1.25 2.45 0.7 2.3 -0.35 2.75 Q-3.0 4.35 -3.5 7.05 L-3.6 7.1 -4.15 6.5 -5.4 4.5 -5.75 2.8 -5.75 2.75 -5.8 2.55 Q-1.05 1.75 -1.5 0.65 L-1.15 0.1" fill="url(#gradient44)" fill-rule="evenodd" stroke="none"/>
    <path d="M1.5 2.7 Q4.1 5.9 2.1 7.85 0.05 9.55 -3.5 7.05 -3.0 4.35 -0.35 2.75 L0.7 2.3 1.25 2.45 1.5 2.7" fill="url(#gradient45)" fill-rule="evenodd" stroke="none"/>
    <path d="M-2.75 -53.1 L-3.9 -53.9 -4.1 -54.1 -3.95 -54.15 -3.05 -54.2 -2.75 -53.1 M0.1 -51.8 L-0.15 -51.9 -0.25 -52.25 -1.55 -54.0 -0.5 -53.8 0.1 -51.8" fill="url(#gradient46)" fill-rule="evenodd" stroke="none"/>
    <path d="M-3.7 -51.15 L-3.1 -51.45 -3.1 -51.3 -3.7 -51.15" fill="url(#gradient47)" fill-rule="evenodd" stroke="none"/>
    <path d="M-7.8 -48.7 L-7.7 -48.75 -7.75 -48.7 -7.8 -48.7 M-7.6 -48.85 L-5.35 -50.5 -3.7 -51.15 -3.1 -51.3 -3.1 -50.8 -3.8 -50.6 -4.55 -50.35 -6.45 -49.6 -6.95 -49.2 -7.6 -48.85" fill="url(#gradient48)" fill-rule="evenodd" stroke="none"/>
    <path d="M-4.55 -50.35 L-3.8 -50.6 -4.5 -49.05 -4.7 -48.85 -4.95 -48.75 -5.4 -48.55 -4.55 -50.35" fill="url(#gradient49)" fill-rule="evenodd" stroke="none"/>
    <path d="M-1.7 -46.5 L-0.9 -45.2 -0.05 -44.3 -0.65 -44.3 -0.9 -44.45 Q-4.6 -45.9 -4.45 -49.0 L-4.4 -49.1 -3.75 -50.1 -3.1 -50.65 -3.0 -48.95 -3.05 -48.7 -2.65 -47.65 -1.75 -46.6 -1.7 -46.5" fill="url(#gradient50)" fill-rule="evenodd" stroke="none"/>
    <path d="M-1.65 -46.5 L-1.7 -46.5 -1.75 -46.6 -1.65 -46.5" fill="url(#gradient51)" fill-rule="evenodd" stroke="none"/>
    <path d="M-4.4 -49.1 L-4.45 -49.0 -4.45 -49.05 -4.4 -49.1" fill="url(#gradient52)" fill-rule="evenodd" stroke="none"/>
    <path d="M-9.15 -46.0 Q-10.15 -45.55 -8.9 -47.55 L-7.8 -48.7 -7.75 -48.7 -7.7 -48.75 -7.6 -48.85 -6.95 -49.2 -7.95 -48.05 -8.75 -46.5 -8.85 -46.35 -9.15 -46.0" fill="url(#gradient53)" fill-rule="evenodd" stroke="none"/>
    <path d="M-12.9 -27.0 Q-12.3 -26.3 -11.65 -28.65 L-11.5 -32.65 -11.5 -33.0 -9.75 -32.85 -7.95 -33.1 -7.6 -31.05 Q-7.5 -29.45 -7.8 -28.25 L-7.8 -28.15 -7.85 -28.1 -7.85 -28.0 -8.3 -26.9 -8.9 -26.0 Q-10.5 -23.65 -12.9 -27.0" fill="url(#gradient54)" fill-rule="evenodd" stroke="none"/>
    <path d="M-14.4 -28.35 Q-16.75 -33.5 -13.95 -35.9 -13.35 -33.65 -11.5 -33.0 L-11.5 -32.65 -11.65 -28.65 Q-12.3 -26.3 -12.9 -27.0 L-13.0 -27.05 -13.25 -27.15 -14.4 -28.35" fill="url(#gradient55)" fill-rule="evenodd" stroke="none"/>
    <path d="M-13.95 -35.9 Q-14.7 -41.75 -10.2 -43.65 -8.2 -44.9 -6.1 -40.95 L-6.15 -36.45 Q-6.6 -34.0 -6.85 -34.0 L-6.9 -34.0 -7.6 -33.35 -7.95 -33.1 -9.75 -32.85 -11.5 -33.0 Q-13.35 -33.65 -13.95 -35.9" fill="url(#gradient56)" fill-rule="evenodd" stroke="none"/>
    <path d="M-14.15 -26.85 L-14.05 -26.95 -13.25 -27.15 -13.0 -27.05 -14.15 -26.85" fill="url(#gradient57)" fill-rule="evenodd" stroke="none"/>
    <path d="M-11.4 -17.5 L-12.0 -18.65 -12.0 -18.7 -12.05 -18.75 -12.05 -18.8 -13.15 -20.45 -13.75 -21.95 -13.8 -22.0 -13.9 -22.1 -13.95 -22.15 -13.95 -22.2 -13.95 -22.25 -14.05 -22.6 -14.3 -23.15 -14.3 -23.25 -14.4 -23.35 -14.4 -23.4 -14.45 -23.5 -14.5 -25.85 -14.45 -25.9 -14.4 -26.15 -14.3 -26.35 -14.3 -26.4 -14.25 -26.45 -14.15 -26.85 -13.0 -27.05 -12.9 -27.0 Q-10.5 -23.65 -8.9 -26.0 L-8.65 -25.65 -8.5 -24.3 -8.95 -22.2 -8.95 -20.35 -8.9 -19.4 -9.05 -18.3 -10.0 -17.3 -11.4 -17.5" fill="url(#gradient58)" fill-rule="evenodd" stroke="none"/>
    <path d="M-14.5 -25.85 L-14.5 -25.9 -14.45 -25.9 -14.5 -25.85 M-14.45 -26.15 L-14.45 -26.2 -14.4 -26.25 -14.3 -26.35 -14.4 -26.15 -14.45 -26.15" fill="url(#gradient59)" fill-rule="evenodd" stroke="none"/>
    <path d="M-14.5 -25.9 L-14.45 -26.15 -14.4 -26.15 -14.45 -25.9 -14.5 -25.9" fill="url(#gradient60)" fill-rule="evenodd" stroke="none"/>
    <path d="M-14.05 -26.95 L-14.4 -28.35 -13.25 -27.15 -14.05 -26.95" fill="url(#gradient61)" fill-rule="evenodd" stroke="none"/>
    <path d="M-6.6 -30.7 L-6.7 -29.6 -6.55 -29.15 -6.45 -26.75 -6.15 -26.85 -5.7 -26.0 -3.05 -24.5 Q-5.9 -24.0 -5.75 -24.7 -6.75 -23.65 -7.05 -23.75 L-7.65 -23.05 -7.85 -23.1 -8.05 -25.1 -7.85 -28.0 -7.85 -28.1 -7.8 -28.15 -7.8 -28.25 -7.1 -29.95 -6.6 -30.7" fill="url(#gradient62)" fill-rule="evenodd" stroke="none"/>
    <path d="M-9.9 -13.45 Q-12.5 -14.8 -11.4 -17.5 L-10.0 -17.3 -9.05 -18.3 -7.25 -17.45 Q-6.15 -16.35 -6.05 -15.4 L-6.5 -14.35 -6.95 -13.9 -7.65 -13.45 -9.1 -13.3 -9.9 -13.45" fill="url(#gradient63)" fill-rule="evenodd" stroke="none"/>
    <path d="M-8.9 -19.4 Q-4.7 -18.75 -6.05 -15.4 -6.15 -16.35 -7.25 -17.45 L-9.05 -18.3 -8.9 -19.4" fill="url(#gradient64)" fill-rule="evenodd" stroke="none"/>
    <path d="M-14.0 -22.2 L-14.0 -22.25 -13.95 -22.25 -13.95 -22.2 -14.0 -22.2 M-14.15 -22.65 L-14.15 -22.7 -14.2 -22.8 -14.2 -22.85 -14.25 -22.9 -14.25 -23.0 -14.3 -23.05 -14.3 -23.15 -14.05 -22.6 -14.15 -22.65" fill="url(#gradient65)" fill-rule="evenodd" stroke="none"/>
    <path d="M-13.95 -22.15 L-14.0 -22.2 -13.95 -22.2 -13.95 -22.15 M-14.0 -22.25 L-14.15 -22.65 -14.05 -22.6 -13.95 -22.25 -14.0 -22.25" fill="url(#gradient66)" fill-rule="evenodd" stroke="none"/>
    <path d="M-5.7 -4.15 L-5.85 -4.5 -4.05 -4.1 -4.75 -3.8 -5.2 -3.85 -5.7 -4.15" fill="url(#gradient67)" fill-rule="evenodd" stroke="none"/>
    <path d="M-5.7 -4.15 L-5.2 -3.85 -4.75 -3.8 -4.05 -4.1 -3.4 -4.0 -1.85 -4.3 -1.95 -4.15 -2.05 -3.3 Q-1.9 -1.45 -3.65 -1.55 -5.75 -2.25 -5.7 -4.1 L-5.7 -4.15" fill="url(#gradient68)" fill-rule="evenodd" stroke="none"/>
    <path d="M-0.7 -1.35 L-1.15 0.1 -1.5 0.65 Q-4.45 2.5 -6.6 0.15 L-6.6 -0.05 Q-7.85 -2.35 -5.7 -4.15 L-5.7 -4.1 Q-7.35 -1.65 -3.45 -0.45 -0.8 -1.2 -2.05 -3.3 L-1.95 -4.15 -1.3 -3.55 -0.9 -2.8 -0.7 -1.35" fill="url(#gradient69)" fill-rule="evenodd" stroke="none"/>
    <path d="M-5.7 -4.1 Q-5.75 -2.25 -3.65 -1.55 -1.9 -1.45 -2.05 -3.3 -0.8 -1.2 -3.45 -0.45 -7.35 -1.65 -5.7 -4.1" fill="url(#gradient70)" fill-rule="evenodd" stroke="none"/>
    <path d="M-5.4 4.5 Q-7.95 2.35 -6.6 -0.05 L-6.6 0.15 -6.6 1.3 Q-6.55 2.35 -5.9 2.75 L-5.75 2.8 -5.4 4.5" fill="url(#gradient71)" fill-rule="evenodd" stroke="none"/>
    <path d="M-1.5 0.65 Q-1.05 1.75 -5.8 2.55 L-5.75 2.75 -5.75 2.8 -5.9 2.75 Q-6.55 2.35 -6.6 1.3 L-6.6 0.15 Q-4.45 2.5 -1.5 0.65" fill="url(#gradient72)" fill-rule="evenodd" stroke="none"/>
  </g>
  <defs>
    <radialGradient cx="0" cy="0" gradientTransform="matrix(0.0052, 0.0, 0.0, 0.0052, 6.35, -53.6)" gradientUnits="userSpaceOnUse" id="gradient0" r="819.2" spreadMethod="pad">
      <stop offset="0.0" stop-color="#b12727"/>
      <stop offset="1.0" stop-color="#aa2626"/>
    </radialGradient>
    <radialGradient cx="0" cy="0" gradientTransform="matrix(0.0091, 0.0, 0.0, 0.0091, 0.45, -52.4)" gradientUnits="userSpaceOnUse" id="gradient1" r="819.2" spreadMethod="pad">
      <stop offset="0.0" stop-color="#e23232"/>
      <stop offset="1.0" stop-color="#8c1f1f"/>
    </radialGradient>
    <radialGradient cx="0" cy="0" gradientTransform="matrix(0.0022, 0.0, 0.0, 0.0022, 0.65, -55.55)" gradientUnits="userSpaceOnUse" id="gradient2" r="819.2" spreadMethod="pad">
      <stop offset="0.0" stop-color="#c02b2b"/>
      <stop offset="1.0" stop-color="#9c2323"/>
    </radialGradient>
    <radialGradient cx="0" cy="0" gradientTransform="matrix(0.012, 0.0, 0.0, 0.012, 3.85, -48.45)" gradientUnits="userSpaceOnUse" id="gradient3" r="819.2" spreadMethod="pad">
      <stop offset="0.0" stop-color="#e03232"/>
      <stop offset="1.0" stop-color="#c52c2c"/>
    </radialGradient>
    <radialGradient cx="0" cy="0" gradientTransform="matrix(0.0068, 0.0, 0.0, 0.0068, 5.4, -54.05)" gradientUnits="userSpaceOnUse" id="gradient4" r="819.2" spreadMethod="pad">
      <stop offset="0.0" stop-color="#ea3434"/>
      <stop offset="1.0" stop-color="#d52f2f"/>
    </radialGradient>
    <radialGradient cx="0" cy="0" gradientTransform="matrix(0.002, 0.0, 0.0, 0.002, 0.65, -55.55)" gradientUnits="userSpaceOnUse" id="gradient5" r="819.2" spreadMethod="pad">
      <stop offset="0.0" stop-color="#a42424"/>
      <stop offset="1.0" stop-color="#9c2222"/>
    </radialGradient>
    <radialGradient cx="0" cy="0" gradientTransform="matrix(0.0081, 0.0, 0.0, 0.0081, 1.4, -50.75)" gradientUnits="userSpaceOnUse" id="gradient6" r="819.2" spreadMethod="pad">
      <stop offset="0.0" stop-color="#e53333"/>
      <stop offset="1.0" stop-color="#de3131"/>
    </radialGradient>
    <radialGradient cx="0" cy="0" gradientTransform="matrix(0.0082, 0.0, 0.0, 0.0082, 2.15, -48.65)" gradientUnits="userSpaceOnUse" id="gradient7" r="819.2" spreadMethod="pad">
      <stop offset="0.0" stop-color="#d52f2f"/>
      <stop offset="1.0" stop-color="#b82929"/>
    </radialGradient>
    <radialGradient cx="0" cy="0" gradientTransform="matrix(0.0045, 0.0, 0.0, 0.0045, 0.95, -50.35)" gradientUnits="userSpaceOnUse" id="gradient8" r="819.2" spreadMethod="pad">
      <stop offset="0.0" stop-color="#972222"/>
      <stop offset="1.0" stop-color="#7c1c1c"/>
    </radialGradient>
    <radialGradient cx="0" cy="0" gradientTransform="matrix(0.0076, 0.0, 0.0, 0.0076, 0.5, -51.05)" gradientUnits="userSpaceOnUse" id="gradient9" r="819.2" spreadMethod="pad">
      <stop offset="0.0" stop-color="#eb3434"/>
      <stop offset="1.0" stop-color="#cb2d2d"/>
    </radialGradient>
    <radialGradient cx="0" cy="0" gradientTransform="matrix(0.0088, 0.0, 0.0, 0.0088, 3.9, -49.25)" gradientUnits="userSpaceOnUse" id="gradient10" r="819.2" spreadMethod="pad">
      <stop offset="0.0" stop-color="#b62828"/>
      <stop offset="1.0" stop-color="#a02323"/>
    </radialGradient>
    <radialGradient cx="0" cy="0" gradientTransform="matrix(0.0062, 0.0, 0.0, 0.0062, 5.4, -54.05)" gradientUnits="userSpaceOnUse" id="gradient11" r="819.2" spreadMethod="pad">
      <stop offset="0.0" stop-color="#962121"/>
      <stop offset="1.0" stop-color="#7f1c1c"/>
    </radialGradient>
    <radialGradient cx="0" cy="0" gradientTransform="matrix(0.0075, 0.0, 0.0, 0.0075, 1.65, -46.45)" gradientUnits="userSpaceOnUse" id="gradient12" r="819.2" spreadMethod="pad">
      <stop offset="0.0" stop-color="#bababa"/>
      <stop offset="1.0" stop-color="#a9a9a9"/>
    </radialGradient>
    <radialGradient cx="0" cy="0" gradientTransform="matrix(0.0089, 0.0, 0.0, 0.0089, -0.05, -47.55)" gradientUnits="userSpaceOnUse" id="gradient13" r="819.2" spreadMethod="pad">
      <stop offset="0.0" stop-color="#bbbbbb"/>
      <stop offset="1.0" stop-color="#bababa"/>
    </radialGradient>
    <radialGradient cx="0" cy="0" gradientTransform="matrix(0.0054, 0.0, 0.0, 0.0054, 6.3, -48.2)" gradientUnits="userSpaceOnUse" id="gradient14" r="819.2" spreadMethod="pad">
      <stop offset="0.0" stop-color="#ffc271"/>
      <stop offset="1.0" stop-color="#9f7041"/>
    </radialGradient>
    <radialGradient cx="0" cy="0" gradientTransform="matrix(0.0079, 0.0, 0.0, 0.0079, 2.8, -43.7)" gradientUnits="userSpaceOnUse" id="gradient15" r="819.2" spreadMethod="pad">
      <stop offset="0.0" stop-color="#ffdb80"/>
      <stop offset="1.0" stop-color="#9a6d3f"/>
    </radialGradient>
    <radialGradient cx="0" cy="0" gradientTransform="matrix(0.0052, 0.0, 0.0, 0.0052, 1.9, -45.85)" gradientUnits="userSpaceOnUse" id="gradient16" r="819.2" spreadMethod="pad">
      <stop offset="0.0" stop-color="#c98d52"/>
      <stop offset="1.0" stop-color="#9d6f40"/>
    </radialGradient>
    <radialGradient cx="0" cy="0" gradientTransform="matrix(0.0072, 0.0, 0.0, 0.0072, 7.5, -43.95)" gradientUnits="userSpaceOnUse" id="gradient17" r="819.2" spreadMethod="pad">
      <stop offset="0.0" stop-color="#ffd27a"/>
      <stop offset="1.0" stop-color="#896037"/>
    </radialGradient>
    <radialGradient cx="0" cy="0" gradientTransform="matrix(0.0097, 0.0, 0.0, 0.0097, -4.75, -40.6)" gradientUnits="userSpaceOnUse" id="gradient18" r="819.2" spreadMethod="pad">
      <stop offset="0.0" stop-color="#ffd77d"/>
      <stop offset="1.0" stop-color="#b37f49"/>
    </radialGradient>
    <radialGradient cx="0" cy="0" gradientTransform="matrix(0.0192, 0.0, 0.0, 0.0192, -5.0, -43.6)" gradientUnits="userSpaceOnUse" id="gradient19" r="819.2" spreadMethod="pad">
      <stop offset="0.0" stop-color="#ffd77d"/>
      <stop offset="1.0" stop-color="#bf874e"/>
    </radialGradient>
    <radialGradient cx="0" cy="0" gradientTransform="matrix(0.0095, 0.0, 0.0, 0.0095, 6.6, -39.0)" gradientUnits="userSpaceOnUse" id="gradient20" r="819.2" spreadMethod="pad">
      <stop offset="0.0" stop-color="#6c654e"/>
      <stop offset="1.0" stop-color="#413d2f"/>
    </radialGradient>
    <radialGradient cx="0" cy="0" gradientTransform="matrix(0.0038, 0.0, 0.0, 0.0038, 10.8, -30.45)" gradientUnits="userSpaceOnUse" id="gradient21" r="819.2" spreadMethod="pad">
      <stop offset="0.0" stop-color="#6d664f"/>
      <stop offset="1.0" stop-color="#2b281f"/>
    </radialGradient>
    <radialGradient cx="0" cy="0" gradientTransform="matrix(0.0138, 0.0, 0.0, 0.0138, -1.9, -34.85)" gradientUnits="userSpaceOnUse" id="gradient22" r="819.2" spreadMethod="pad">
      <stop offset="0.0" stop-color="#6b644e"/>
      <stop offset="1.0" stop-color="#484334"/>
    </radialGradient>
    <radialGradient cx="0" cy="0" gradientTransform="matrix(0.0035, 0.0, 0.0, 0.0035, 9.9, -31.05)" gradientUnits="userSpaceOnUse" id="gradient23" r="819.2" spreadMethod="pad">
      <stop offset="0.0" stop-color="#fff18c"/>
      <stop offset="1.0" stop-color="#ae7b48"/>
    </radialGradient>
    <radialGradient cx="0" cy="0" gradientTransform="matrix(0.0125, 0.0, 0.0, 0.0125, -5.25, -29.7)" gradientUnits="userSpaceOnUse" id="gradient24" r="819.2" spreadMethod="pad">
      <stop offset="0.0" stop-color="#ffffff"/>
      <stop offset="1.0" stop-color="#aeaeae"/>
    </radialGradient>
    <radialGradient cx="0" cy="0" gradientTransform="matrix(0.0147, 0.0, 0.0, 0.0147, 2.0, -27.95)" gradientUnits="userSpaceOnUse" id="gradient25" r="819.2" spreadMethod="pad">
      <stop offset="0.0" stop-color="#6b644e"/>
      <stop offset="1.0" stop-color="#423d30"/>
    </radialGradient>
    <radialGradient cx="0" cy="0" gradientTransform="matrix(0.0158, 0.0, 0.0, 0.0158, 2.2, -28.25)" gradientUnits="userSpaceOnUse" id="gradient26" r="819.2" spreadMethod="pad">
      <stop offset="0.0" stop-color="#655f4a"/>
      <stop offset="1.0" stop-color="#3c382b"/>
    </radialGradient>
    <radialGradient cx="0" cy="0" gradientTransform="matrix(0.0143, 0.0, 0.0, 0.0143, 2.95, -28.8)" gradientUnits="userSpaceOnUse" id="gradient27" r="819.2" spreadMethod="pad">
      <stop offset="0.0" stop-color="#7e7272"/>
      <stop offset="1.0" stop-color="#524a4a"/>
    </radialGradient>
    <radialGradient cx="0" cy="0" gradientTransform="matrix(0.0129, 0.0, 0.0, 0.0129, 3.45, -19.75)" gradientUnits="userSpaceOnUse" id="gradient28" r="819.2" spreadMethod="pad">
      <stop offset="0.0" stop-color="#7c7171"/>
      <stop offset="1.0" stop-color="#4b4444"/>
    </radialGradient>
    <radialGradient cx="0" cy="0" gradientTransform="matrix(0.0024, 0.0, 0.0, 0.0024, 7.35, -20.3)" gradientUnits="userSpaceOnUse" id="gradient29" r="819.2" spreadMethod="pad">
      <stop offset="0.0" stop-color="#4f4a39"/>
      <stop offset="1.0" stop-color="#4b4637"/>
    </radialGradient>
    <radialGradient cx="0" cy="0" gradientTransform="matrix(0.0158, 0.0, 0.0, 0.0158, -1.3, -24.6)" gradientUnits="userSpaceOnUse" id="gradient30" r="819.2" spreadMethod="pad">
      <stop offset="0.0" stop-color="#9a8d8d"/>
      <stop offset="1.0" stop-color="#5a5151"/>
    </radialGradient>
    <radialGradient cx="0" cy="0" gradientTransform="matrix(0.0022, 0.0, 0.0, 0.0022, 2.5, -18.6)" gradientUnits="userSpaceOnUse" id="gradient31" r="819.2" spreadMethod="pad">
      <stop offset="0.0" stop-color="#0c0c09"/>
      <stop offset="1.0" stop-color="#0c0c09"/>
    </radialGradient>
    <radialGradient cx="0" cy="0" gradientTransform="matrix(0.0126, 0.0, 0.0, 0.0126, -3.25, -14.5)" gradientUnits="userSpaceOnUse" id="gradient32" r="819.2" spreadMethod="pad">
      <stop offset="0.0" stop-color="#746969"/>
      <stop offset="1.0" stop-color="#484242"/>
    </radialGradient>
    <radialGradient cx="0" cy="0" gradientTransform="matrix(0.0088, 0.0, 0.0, 0.0088, 6.95, -12.1)" gradientUnits="userSpaceOnUse" id="gradient33" r="819.2" spreadMethod="pad">
      <stop offset="0.0" stop-color="#353227"/>
      <stop offset="1.0" stop-color="#302d23"/>
    </radialGradient>
    <radialGradient cx="0" cy="0" gradientTransform="matrix(0.0037, 0.0, 0.0, 0.0037, 2.55, -9.55)" gradientUnits="userSpaceOnUse" id="gradient34" r="819.2" spreadMethod="pad">
      <stop offset="0.0" stop-color="#b8824c"/>
      <stop offset="1.0" stop-color="#a27242"/>
    </radialGradient>
    <radialGradient cx="0" cy="0" gradientTransform="matrix(0.0154, 0.0, 0.0, 0.0154, -7.4, -14.9)" gradientUnits="userSpaceOnUse" id="gradient35" r="819.2" spreadMethod="pad">
      <stop offset="0.0" stop-color="#3e3a2d"/>
      <stop offset="1.0" stop-color="#302d22"/>
    </radialGradient>
    <radialGradient cx="0" cy="0" gradientTransform="matrix(0.0056, 0.0, 0.0, 0.0056, 1.3, -5.05)" gradientUnits="userSpaceOnUse" id="gradient36" r="819.2" spreadMethod="pad">
      <stop offset="0.0" stop-color="#746c54"/>
      <stop offset="1.0" stop-color="#373328"/>
    </radialGradient>
    <radialGradient cx="0" cy="0" gradientTransform="matrix(0.003, 0.0, 0.0, 0.003, 2.15, -6.5)" gradientUnits="userSpaceOnUse" id="gradient37" r="819.2" spreadMethod="pad">
      <stop offset="0.0" stop-color="#ffffff"/>
      <stop offset="1.0" stop-color="#acacac"/>
    </radialGradient>
    <radialGradient cx="0" cy="0" gradientTransform="matrix(0.006, 0.0, 0.0, 0.006, 3.2, -2.95)" gradientUnits="userSpaceOnUse" id="gradient38" r="819.2" spreadMethod="pad">
      <stop offset="0.0" stop-color="#ff4141"/>
      <stop offset="1.0" stop-color="#b72929"/>
    </radialGradient>
    <radialGradient cx="0" cy="0" gradientTransform="matrix(0.0037, 0.0, 0.0, 0.0037, 0.45, -2.1)" gradientUnits="userSpaceOnUse" id="gradient39" r="819.2" spreadMethod="pad">
      <stop offset="0.0" stop-color="#514c3b"/>
      <stop offset="1.0" stop-color="#3a362a"/>
    </radialGradient>
    <radialGradient cx="0" cy="0" gradientTransform="matrix(0.0038, 0.0, 0.0, 0.0038, 1.6, -3.35)" gradientUnits="userSpaceOnUse" id="gradient40" r="819.2" spreadMethod="pad">
      <stop offset="0.0" stop-color="#8d1f1f"/>
      <stop offset="1.0" stop-color="#7a1b1b"/>
    </radialGradient>
    <radialGradient cx="0" cy="0" gradientTransform="matrix(9.0E-4, 0.0, 0.0, 9.0E-4, 6.55, -3.15)" gradientUnits="userSpaceOnUse" id="gradient41" r="819.2" spreadMethod="pad">
      <stop offset="0.0" stop-color="#1f0707"/>
      <stop offset="1.0" stop-color="#1f0707"/>
    </radialGradient>
    <radialGradient cx="0" cy="0" gradientTransform="matrix(0.0049, 0.0, 0.0, 0.0049, 5.5, -0.6)" gradientUnits="userSpaceOnUse" id="gradient42" r="819.2" spreadMethod="pad">
      <stop offset="0.0" stop-color="#777057"/>
      <stop offset="1.0" stop-color="#4a4636"/>
    </radialGradient>
    <radialGradient cx="0" cy="0" gradientTransform="matrix(0.0014, 0.0, 0.0, 0.0014, 1.5, 2.6)" gradientUnits="userSpaceOnUse" id="gradient43" r="819.2" spreadMethod="pad">
      <stop offset="0.0" stop-color="#1f0707"/>
      <stop offset="1.0" stop-color="#1f0707"/>
    </radialGradient>
    <radialGradient cx="0" cy="0" gradientTransform="matrix(0.0061, 0.0, 0.0, 0.0061, -3.0, 2.05)" gradientUnits="userSpaceOnUse" id="gradient44" r="819.2" spreadMethod="pad">
      <stop offset="0.0" stop-color="#ff4141"/>
      <stop offset="1.0" stop-color="#af2626"/>
    </radialGradient>
    <radialGradient cx="0" cy="0" gradientTransform="matrix(0.0051, 0.0, 0.0, 0.0051, -0.85, 4.7)" gradientUnits="userSpaceOnUse" id="gradient45" r="819.2" spreadMethod="pad">
      <stop offset="0.0" stop-color="#776f56"/>
      <stop offset="1.0" stop-color="#494535"/>
    </radialGradient>
    <radialGradient cx="0" cy="0" gradientTransform="matrix(0.006, 0.0, 0.0, 0.006, 0.25, -52.15)" gradientUnits="userSpaceOnUse" id="gradient46" r="819.2" spreadMethod="pad">
      <stop offset="0.0" stop-color="#d83030"/>
      <stop offset="1.0" stop-color="#b72828"/>
    </radialGradient>
    <radialGradient cx="0" cy="0" gradientTransform="matrix(0.0017, 0.0, 0.0, 0.0017, -2.8, -51.7)" gradientUnits="userSpaceOnUse" id="gradient47" r="819.2" spreadMethod="pad">
      <stop offset="0.0" stop-color="#6f6f6f"/>
      <stop offset="1.0" stop-color="#646464"/>
    </radialGradient>
    <radialGradient cx="0" cy="0" gradientTransform="matrix(0.0056, 0.0, 0.0, 0.0056, -6.05, -50.1)" gradientUnits="userSpaceOnUse" id="gradient48" r="819.2" spreadMethod="pad">
      <stop offset="0.0" stop-color="#8e8e8e"/>
      <stop offset="1.0" stop-color="#6d6d6d"/>
    </radialGradient>
    <radialGradient cx="0" cy="0" gradientTransform="matrix(0.0061, 0.0, 0.0, 0.0061, -3.75, -51.3)" gradientUnits="userSpaceOnUse" id="gradient49" r="819.2" spreadMethod="pad">
      <stop offset="0.0" stop-color="#606060"/>
      <stop offset="1.0" stop-color="#202020"/>
    </radialGradient>
    <radialGradient cx="0" cy="0" gradientTransform="matrix(0.0054, 0.0, 0.0, 0.0054, -1.95, -48.1)" gradientUnits="userSpaceOnUse" id="gradient50" r="819.2" spreadMethod="pad">
      <stop offset="0.0" stop-color="#ffcb76"/>
      <stop offset="1.0" stop-color="#b9824b"/>
    </radialGradient>
    <radialGradient cx="0" cy="0" gradientTransform="matrix(0.0058, 0.0, 0.0, 0.0058, -2.65, -47.6)" gradientUnits="userSpaceOnUse" id="gradient51" r="819.2" spreadMethod="pad">
      <stop offset="0.0" stop-color="#202020"/>
      <stop offset="1.0" stop-color="#202020"/>
    </radialGradient>
    <radialGradient cx="0" cy="0" gradientTransform="matrix(0.0026, 0.0, 0.0, 0.0026, -4.25, -49.55)" gradientUnits="userSpaceOnUse" id="gradient52" r="819.2" spreadMethod="pad">
      <stop offset="0.0" stop-color="#a87645"/>
      <stop offset="1.0" stop-color="#815a34"/>
    </radialGradient>
    <radialGradient cx="0" cy="0" gradientTransform="matrix(0.0029, 0.0, 0.0, 0.0029, -8.5, -47.85)" gradientUnits="userSpaceOnUse" id="gradient53" r="819.2" spreadMethod="pad">
      <stop offset="0.0" stop-color="#383838"/>
      <stop offset="1.0" stop-color="#202020"/>
    </radialGradient>
    <radialGradient cx="0" cy="0" gradientTransform="matrix(0.0111, 0.0, 0.0, 0.0111, -9.75, -34.15)" gradientUnits="userSpaceOnUse" id="gradient54" r="819.2" spreadMethod="pad">
      <stop offset="0.0" stop-color="#ffd77d"/>
      <stop offset="1.0" stop-color="#9b6d3f"/>
    </radialGradient>
    <radialGradient cx="0" cy="0" gradientTransform="matrix(0.0084, 0.0, 0.0, 0.0084, -12.0, -33.7)" gradientUnits="userSpaceOnUse" id="gradient55" r="819.2" spreadMethod="pad">
      <stop offset="0.0" stop-color="#ffd77d"/>
      <stop offset="1.0" stop-color="#9d6f41"/>
    </radialGradient>
    <radialGradient cx="0" cy="0" gradientTransform="matrix(0.0086, 0.0, 0.0, 0.0086, -9.65, -39.6)" gradientUnits="userSpaceOnUse" id="gradient56" r="819.2" spreadMethod="pad">
      <stop offset="0.0" stop-color="#ffd57c"/>
      <stop offset="1.0" stop-color="#a67543"/>
    </radialGradient>
    <radialGradient cx="0" cy="0" gradientTransform="matrix(0.0015, 0.0, 0.0, 0.0015, -13.05, -27.15)" gradientUnits="userSpaceOnUse" id="gradient57" r="819.2" spreadMethod="pad">
      <stop offset="0.0" stop-color="#322f24"/>
      <stop offset="1.0" stop-color="#2d2a20"/>
    </radialGradient>
    <radialGradient cx="0" cy="0" gradientTransform="matrix(0.0101, 0.0, 0.0, 0.0101, -12.2, -25.1)" gradientUnits="userSpaceOnUse" id="gradient58" r="819.2" spreadMethod="pad">
      <stop offset="0.0" stop-color="#67604a"/>
      <stop offset="1.0" stop-color="#3d392c"/>
    </radialGradient>
    <radialGradient cx="0" cy="0" gradientTransform="matrix(0.0015, 0.0, 0.0, 0.0015, -14.5, -25.95)" gradientUnits="userSpaceOnUse" id="gradient59" r="819.2" spreadMethod="pad">
      <stop offset="0.0" stop-color="#0c0c09"/>
      <stop offset="1.0" stop-color="#0c0c09"/>
    </radialGradient>
    <radialGradient cx="0" cy="0" gradientTransform="matrix(0.0023, 0.0, 0.0, 0.0023, -14.6, -25.25)" gradientUnits="userSpaceOnUse" id="gradient60" r="819.2" spreadMethod="pad">
      <stop offset="0.0" stop-color="#423e30"/>
      <stop offset="1.0" stop-color="#333025"/>
    </radialGradient>
    <radialGradient cx="0" cy="0" gradientTransform="matrix(0.0021, 0.0, 0.0, 0.0021, -13.25, -27.45)" gradientUnits="userSpaceOnUse" id="gradient61" r="819.2" spreadMethod="pad">
      <stop offset="0.0" stop-color="#e09e5c"/>
      <stop offset="1.0" stop-color="#ba834c"/>
    </radialGradient>
    <radialGradient cx="0" cy="0" gradientTransform="matrix(0.0072, 0.0, 0.0, 0.0072, -3.0, -26.4)" gradientUnits="userSpaceOnUse" id="gradient62" r="819.2" spreadMethod="pad">
      <stop offset="0.0" stop-color="#988a8a"/>
      <stop offset="1.0" stop-color="#5f5656"/>
    </radialGradient>
    <radialGradient cx="0" cy="0" gradientTransform="matrix(0.0042, 0.0, 0.0, 0.0042, -8.6, -16.7)" gradientUnits="userSpaceOnUse" id="gradient63" r="819.2" spreadMethod="pad">
      <stop offset="0.0" stop-color="#6b644e"/>
      <stop offset="1.0" stop-color="#322f24"/>
    </radialGradient>
    <radialGradient cx="0" cy="0" gradientTransform="matrix(0.0039, 0.0, 0.0, 0.0039, -8.0, -18.05)" gradientUnits="userSpaceOnUse" id="gradient64" r="819.2" spreadMethod="pad">
      <stop offset="0.0" stop-color="#ffe787"/>
      <stop offset="1.0" stop-color="#b27d49"/>
    </radialGradient>
    <radialGradient cx="0" cy="0" gradientTransform="matrix(0.0055, 0.0, 0.0, 0.0055, -13.75, -22.65)" gradientUnits="userSpaceOnUse" id="gradient65" r="819.2" spreadMethod="pad">
      <stop offset="0.0" stop-color="#0c0c09"/>
      <stop offset="1.0" stop-color="#0c0c09"/>
    </radialGradient>
    <radialGradient cx="0" cy="0" gradientTransform="matrix(0.0036, 0.0, 0.0, 0.0036, -14.55, -23.85)" gradientUnits="userSpaceOnUse" id="gradient66" r="819.2" spreadMethod="pad">
      <stop offset="0.0" stop-color="#403c2f"/>
      <stop offset="1.0" stop-color="#343126"/>
    </radialGradient>
    <radialGradient cx="0" cy="0" gradientTransform="matrix(0.0023, 0.0, 0.0, 0.0023, -5.65, -5.15)" gradientUnits="userSpaceOnUse" id="gradient67" r="819.2" spreadMethod="pad">
      <stop offset="0.0" stop-color="#7f5934"/>
      <stop offset="1.0" stop-color="#523922"/>
    </radialGradient>
    <radialGradient cx="0" cy="0" gradientTransform="matrix(0.0052, 0.0, 0.0, 0.0052, -3.2, -1.6)" gradientUnits="userSpaceOnUse" id="gradient68" r="819.2" spreadMethod="pad">
      <stop offset="0.0" stop-color="#a47443"/>
      <stop offset="1.0" stop-color="#92673c"/>
    </radialGradient>
    <radialGradient cx="0" cy="0" gradientTransform="matrix(0.0061, 0.0, 0.0, 0.0061, -2.35, -0.85)" gradientUnits="userSpaceOnUse" id="gradient69" r="819.2" spreadMethod="pad">
      <stop offset="0.0" stop-color="#756d55"/>
      <stop offset="1.0" stop-color="#3c372b"/>
    </radialGradient>
    <radialGradient cx="0" cy="0" gradientTransform="matrix(0.0044, 0.0, 0.0, 0.0044, -2.7, -2.3)" gradientUnits="userSpaceOnUse" id="gradient70" r="819.2" spreadMethod="pad">
      <stop offset="0.0" stop-color="#ffffff"/>
      <stop offset="1.0" stop-color="#9d9d9d"/>
    </radialGradient>
    <radialGradient cx="0" cy="0" gradientTransform="matrix(0.0038, 0.0, 0.0, 0.0038, -5.65, 2.6)" gradientUnits="userSpaceOnUse" id="gradient71" r="819.2" spreadMethod="pad">
      <stop offset="0.0" stop-color="#494435"/>
      <stop offset="1.0" stop-color="#373328"/>
    </radialGradient>
    <radialGradient cx="0" cy="0" gradientTransform="matrix(0.0038, 0.0, 0.0, 0.0038, -4.15, 0.65)" gradientUnits="userSpaceOnUse" id="gradient72" r="819.2" spreadMethod="pad">
      <stop offset="0.0" stop-color="#881e1e"/>
      <stop offset="1.0" stop-color="#7a1b1b"/>
    </radialGradient>
  </defs>
</svg>
