<?xml version="1.0" encoding="UTF-8" standalone="no"?>
<svg xmlns:ffdec="https://www.free-decompiler.com/flash" xmlns:xlink="http://www.w3.org/1999/xlink" ffdec:objectType="shape" height="68.05px" width="28.55px" xmlns="http://www.w3.org/2000/svg">
  <g transform="matrix(1.0, 0.0, 0.0, 1.0, 12.5, 58.8)">
    <path d="M3.0 -52.6 Q4.15 -53.7 4.55 -53.65 L3.9 -52.25 2.9 -50.8 3.25 -52.25 3.0 -52.6 M1.75 -48.6 L1.8 -48.6 1.65 -47.9 1.5 -47.8 1.75 -48.6 M0.3 -49.0 L0.7 -49.1 0.85 -48.7 0.55 -48.35 0.15 -48.1 0.25 -48.8 0.3 -49.0 M-0.25 -46.9 L-0.4 -46.9 -0.3 -47.15 -0.25 -46.9" fill="url(#gradient0)" fill-rule="evenodd" stroke="none"/>
    <path d="M1.4 -54.45 L2.45 -55.3 2.5 -55.0 2.15 -53.8 1.1 -51.55 -0.2 -49.85 -0.35 -50.05 -1.15 -52.0 1.4 -54.45 M-2.35 -48.1 L-3.1 -47.75 -3.25 -47.75 -3.35 -48.05 -3.25 -48.35 -3.4 -49.35 -3.1 -49.7 -3.05 -49.1 -2.35 -48.1" fill="url(#gradient1)" fill-rule="evenodd" stroke="none"/>
    <path d="M3.65 -51.2 L3.8 -51.1 3.65 -51.1 3.65 -51.2" fill="url(#gradient2)" fill-rule="evenodd" stroke="none"/>
    <path d="M3.6 -51.7 L3.65 -51.2 3.65 -51.1 3.65 -50.95 3.65 -50.45 3.65 -50.4 3.65 -50.3 3.65 -50.0 3.6 -48.45 Q3.0 -47.25 3.05 -48.55 L2.55 -48.15 0.9 -47.0 0.55 -46.85 0.1 -46.75 -3.55 -46.6 -4.7 -47.2 -3.35 -48.05 -3.25 -47.75 -3.1 -47.75 -2.35 -48.1 -1.1 -46.85 0.25 -48.8 0.15 -48.1 0.55 -48.35 0.85 -48.7 0.7 -49.1 0.3 -49.0 0.15 -49.05 -0.2 -49.85 1.1 -51.55 2.15 -53.8 3.0 -52.6 3.25 -52.25 2.9 -50.8 2.95 -50.75 3.3 -51.1 3.6 -51.7 M-1.1 -55.3 L1.4 -54.45 -1.15 -52.0 -2.45 -54.65 -2.1 -55.0 -1.25 -55.3 -1.1 -55.3 M-6.2 -48.3 L-6.2 -48.35 -6.2 -48.4 -6.15 -48.4 -6.1 -48.3 -6.2 -48.3 M1.75 -48.6 L1.5 -47.8 1.65 -47.9 1.8 -48.6 1.75 -48.6 M-3.15 -50.9 L-3.1 -49.7 -3.4 -49.35 -3.65 -49.95 -3.2 -50.9 -3.15 -50.9 M-0.25 -46.9 L-0.3 -47.15 -0.4 -46.9 -0.25 -46.9" fill="url(#gradient3)" fill-rule="evenodd" stroke="none"/>
    <path d="M3.8 -51.1 L4.65 -50.45 4.9 -50.0 4.5 -50.15 4.45 -50.3 3.65 -50.95 3.65 -51.1 3.8 -51.1 M4.7 -49.95 L5.15 -49.7 6.0 -47.95 5.65 -48.05 5.15 -48.5 4.7 -49.95" fill="url(#gradient4)" fill-rule="evenodd" stroke="none"/>
    <path d="M3.9 -52.25 L3.6 -51.7 3.3 -51.1 2.95 -50.75 2.9 -50.8 3.9 -52.25" fill="url(#gradient5)" fill-rule="evenodd" stroke="none"/>
    <path d="M4.45 -50.3 L4.5 -50.15 4.3 -50.25 4.3 -50.3 4.2 -50.3 3.65 -50.4 3.65 -50.45 4.45 -50.3" fill="url(#gradient6)" fill-rule="evenodd" stroke="none"/>
    <path d="M4.9 -50.0 Q6.25 -49.65 7.95 -47.75 L8.95 -45.9 8.9 -45.95 8.0 -47.55 6.3 -49.05 5.15 -49.7 4.7 -49.95 3.65 -50.3 3.65 -50.4 4.2 -50.3 4.3 -50.25 4.5 -50.15 4.9 -50.0" fill="url(#gradient7)" fill-rule="evenodd" stroke="none"/>
    <path d="M4.2 -50.3 L4.3 -50.3 4.3 -50.25 4.2 -50.3" fill="url(#gradient8)" fill-rule="evenodd" stroke="none"/>
    <path d="M8.95 -45.9 L9.05 -45.4 8.25 -46.35 8.1 -46.65 7.15 -48.2 6.3 -49.05 8.0 -47.55 8.9 -45.95 8.95 -45.9" fill="url(#gradient9)" fill-rule="evenodd" stroke="none"/>
    <path d="M9.05 -45.4 L10.9 -42.95 Q8.8 -44.3 6.7 -40.25 3.2 -43.2 -0.55 -41.55 L-1.2 -42.65 -0.1 -43.05 0.7 -43.7 Q5.2 -45.25 4.9 -48.45 L5.65 -48.05 6.0 -47.95 6.7 -47.7 8.1 -46.65 8.25 -46.35 9.05 -45.4 M-3.3 -33.35 L-3.25 -33.5 -3.25 -33.65 -3.3 -33.7 -4.2 -36.8 -2.35 -36.6 -1.7 -36.85 Q1.35 -29.9 7.45 -33.35 L8.2 -32.7 7.15 -31.65 6.95 -31.4 Q5.25 -28.35 2.15 -28.3 L0.15 -28.85 Q-1.05 -28.9 -0.55 -30.5 L-1.9 -30.2 -2.4 -30.6 -3.05 -31.7 -3.3 -33.35" fill="url(#gradient10)" fill-rule="evenodd" stroke="none"/>
    <path d="M3.6 -48.45 L3.65 -48.1 3.25 -46.95 2.25 -45.9 Q-0.45 -43.7 -4.95 -45.5 L-5.05 -45.6 -5.6 -45.9 -6.05 -46.6 -6.3 -47.2 -6.5 -48.55 -6.2 -48.35 -6.2 -48.3 -5.85 -47.7 -5.15 -47.25 -5.1 -47.2 Q-3.9 -45.9 0.1 -46.75 L0.55 -46.85 0.9 -47.0 1.9 -47.5 2.55 -48.15 3.05 -48.55 Q3.0 -47.25 3.6 -48.45" fill="url(#gradient11)" fill-rule="evenodd" stroke="none"/>
    <path d="M2.25 -45.9 L3.25 -46.95 3.65 -48.1 3.6 -48.45 3.65 -50.0 4.45 -49.25 4.9 -48.45 Q5.2 -45.25 0.7 -43.7 L2.1 -45.45 2.25 -45.9" fill="url(#gradient12)" fill-rule="evenodd" stroke="none"/>
    <path d="M0.25 -48.8 L-1.1 -46.85 -2.35 -48.1 -3.05 -49.1 -3.1 -49.7 -3.15 -50.9 -3.15 -51.05 -3.25 -53.85 -3.05 -55.3 -2.9 -55.4 -2.85 -55.3 -2.75 -55.25 -2.65 -55.1 -2.5 -54.8 -2.45 -54.65 -1.15 -52.0 -0.35 -50.05 -0.15 -49.25 0.15 -49.05 0.3 -49.0 0.25 -48.8" fill="url(#gradient13)" fill-rule="evenodd" stroke="none"/>
    <path d="M2.55 -48.15 L1.9 -47.5 0.9 -47.0 2.55 -48.15 M0.1 -46.75 Q-3.9 -45.9 -5.1 -47.2 L-4.7 -47.2 -3.55 -46.6 0.1 -46.75 M-5.15 -47.25 L-5.85 -47.7 -6.2 -48.3 -6.1 -48.3 -5.15 -47.25 M-6.2 -48.35 L-6.5 -48.55 -6.6 -49.75 -6.2 -48.5 -6.2 -48.4 -6.2 -48.35" fill="url(#gradient14)" fill-rule="evenodd" stroke="none"/>
    <path d="M-4.95 -45.5 Q-0.45 -43.7 2.25 -45.9 L2.1 -45.45 0.7 -43.7 -0.1 -43.05 -1.2 -42.65 -2.4 -42.7 -3.5 -43.5 -4.35 -44.35 -5.0 -45.5 -4.95 -45.5" fill="url(#gradient15)" fill-rule="evenodd" stroke="none"/>
    <path d="M-5.2 -30.5 L-4.75 -31.4 -3.4 -33.2 -4.05 -31.7 Q-4.8 -30.1 -2.6 -27.75 L-2.85 -27.05 -3.7 -27.05 -4.3 -26.55 -4.85 -27.6 Q-5.35 -29.5 -5.2 -30.5 M6.95 -31.4 L7.15 -31.65 7.15 -31.0 6.95 -31.4 M7.2 -29.95 Q8.55 -26.6 3.4 -23.9 -0.7 -23.7 -0.95 -23.95 L-1.3 -23.65 -2.4 -24.3 -2.35 -25.25 -2.05 -26.15 -1.65 -26.35 -1.65 -26.7 -1.55 -27.2 Q1.35 -25.65 4.1 -26.7 6.85 -28.5 7.2 -29.95" fill="url(#gradient16)" fill-rule="evenodd" stroke="none"/>
    <path d="M-3.4 -33.2 L-3.3 -33.35 -3.05 -31.7 -2.4 -30.6 -1.9 -30.2 -0.55 -30.5 Q-1.05 -28.9 0.15 -28.85 L2.15 -28.3 Q5.25 -28.35 6.95 -31.4 L7.15 -31.0 7.2 -30.05 7.2 -29.95 Q6.85 -28.5 4.1 -26.7 1.35 -25.65 -1.55 -27.2 L-1.65 -26.7 -1.85 -27.1 -2.25 -27.3 -2.6 -27.75 Q-4.8 -30.1 -4.05 -31.7 L-3.4 -33.2" fill="url(#gradient17)" fill-rule="evenodd" stroke="none"/>
    <path d="M10.9 -42.95 Q15.0 -41.65 14.6 -35.25 14.35 -34.3 13.7 -33.5 L12.2 -32.4 10.55 -32.15 8.6 -32.45 8.2 -32.7 7.45 -33.35 Q6.85 -34.15 6.7 -36.1 L6.7 -40.25 Q8.8 -44.3 10.9 -42.95" fill="url(#gradient18)" fill-rule="evenodd" stroke="none"/>
    <path d="M7.45 -33.35 Q1.35 -29.9 -1.7 -36.85 -2.5 -39.25 -0.55 -41.55 3.2 -43.2 6.7 -40.25 L6.7 -36.1 Q6.85 -34.15 7.45 -33.35" fill="url(#gradient19)" fill-rule="evenodd" stroke="none"/>
    <path d="M7.2 -29.95 L7.2 -30.05 7.75 -29.35 8.25 -27.95 8.55 -27.0 8.75 -25.4 8.55 -22.45 8.3 -22.35 6.6 -23.9 6.15 -23.95 5.95 -23.55 4.45 -23.55 3.4 -23.9 Q8.55 -26.6 7.2 -29.95" fill="url(#gradient20)" fill-rule="evenodd" stroke="none"/>
    <path d="M8.55 -27.0 L8.25 -27.95 8.15 -29.85 Q8.15 -31.25 8.6 -32.45 L10.55 -32.15 12.2 -32.4 12.1 -31.7 Q11.95 -25.9 13.65 -26.4 L13.65 -26.35 Q11.45 -23.1 9.45 -25.35 L8.55 -27.0" fill="url(#gradient21)" fill-rule="evenodd" stroke="none"/>
    <path d="M14.6 -35.25 Q17.3 -33.2 14.95 -27.75 L14.7 -27.3 13.9 -26.5 13.65 -26.4 Q11.95 -25.9 12.1 -31.7 L12.2 -32.4 13.7 -33.5 Q14.35 -34.3 14.6 -35.25" fill="url(#gradient22)" fill-rule="evenodd" stroke="none"/>
    <path d="M14.95 -27.75 L14.9 -27.0 14.6 -26.35 13.9 -26.5 14.7 -27.3 14.95 -27.75" fill="url(#gradient23)" fill-rule="evenodd" stroke="none"/>
    <path d="M14.6 -26.35 L14.75 -26.2 13.65 -26.35 13.65 -26.4 13.9 -26.5 14.6 -26.35" fill="url(#gradient24)" fill-rule="evenodd" stroke="none"/>
    <path d="M14.95 -25.6 L15.1 -25.45 15.05 -25.2 14.95 -25.6" fill="url(#gradient25)" fill-rule="evenodd" stroke="none"/>
    <path d="M14.75 -26.2 L14.95 -25.6 15.05 -25.2 15.05 -22.95 14.85 -22.35 14.5 -21.4 14.0 -20.15 Q12.35 -18.05 12.05 -16.85 L10.9 -16.6 Q10.3 -16.65 9.75 -17.7 L9.5 -18.75 9.5 -19.75 9.6 -21.45 Q8.7 -24.05 9.45 -25.35 11.45 -23.1 13.65 -26.35 L14.75 -26.2" fill="url(#gradient26)" fill-rule="evenodd" stroke="none"/>
    <path d="M14.85 -22.35 L14.75 -21.7 14.5 -21.4 14.85 -22.35" fill="url(#gradient27)" fill-rule="evenodd" stroke="none"/>
    <path d="M12.05 -16.85 Q13.2 -14.6 10.6 -12.8 L9.75 -12.65 8.9 -12.65 Q8.1 -12.8 7.65 -13.25 L7.2 -13.65 6.65 -14.75 Q7.3 -16.4 7.95 -16.85 L9.75 -17.7 Q10.3 -16.65 10.9 -16.6 L12.05 -16.85" fill="url(#gradient28)" fill-rule="evenodd" stroke="none"/>
    <path d="M3.4 -23.9 L4.45 -23.55 5.95 -23.55 6.15 -23.95 6.6 -23.9 8.3 -22.35 8.55 -22.45 9.5 -19.75 9.5 -18.75 Q5.3 -18.1 6.65 -14.75 L7.2 -13.65 Q-0.25 -11.25 -1.9 -16.25 L-1.9 -16.35 -1.95 -16.5 -2.05 -16.7 -2.5 -22.15 -2.4 -24.3 -1.3 -23.65 -0.95 -23.95 Q-0.7 -23.7 3.4 -23.9" fill="url(#gradient29)" fill-rule="evenodd" stroke="none"/>
    <path d="M9.75 -17.7 L7.95 -16.85 Q7.3 -16.4 6.65 -14.75 5.3 -18.1 9.5 -18.75 L9.75 -17.7" fill="url(#gradient30)" fill-rule="evenodd" stroke="none"/>
    <path d="M10.9 -9.7 Q10.9 -6.85 9.25 -4.7 L6.6 -3.85 4.75 -3.45 4.05 -3.35 2.6 -3.7 1.8 -3.85 1.5 -3.9 -0.1 -4.5 -0.5 -4.95 -1.15 -5.95 -1.4 -6.4 -1.9 -8.3 -2.05 -8.7 -1.95 -8.7 -1.95 -8.65 -1.9 -8.6 -1.65 -8.1 Q-1.25 -6.3 3.15 -4.75 5.1 -4.4 7.05 -5.45 L7.4 -8.1 6.85 -10.95 7.65 -13.25 Q8.1 -12.8 8.9 -12.65 L9.75 -12.65 9.85 -10.35 10.25 -8.45 10.4 -8.4 10.9 -9.7" fill="url(#gradient31)" fill-rule="evenodd" stroke="none"/>
    <path d="M10.6 -12.8 L10.9 -10.6 10.9 -9.7 10.4 -8.4 10.25 -8.45 9.85 -10.35 9.75 -12.65 10.6 -12.8 M7.2 -13.65 L7.65 -13.25 6.85 -10.95 7.4 -8.1 7.05 -5.45 Q5.1 -4.4 3.15 -4.75 -1.25 -6.3 -1.65 -8.1 L-1.9 -8.6 -1.95 -8.65 -1.95 -8.7 -1.95 -8.75 -2.1 -8.95 -2.1 -9.7 -2.15 -15.3 -1.95 -16.25 -1.9 -16.25 Q-0.25 -11.25 7.2 -13.65" fill="url(#gradient32)" fill-rule="evenodd" stroke="none"/>
    <path d="M2.6 -3.7 L4.05 -3.35 4.75 -3.45 5.35 -3.1 5.8 -3.1 6.35 -3.4 6.2 -2.25 Q5.85 -1.5 4.85 -1.0 3.05 -0.2 2.75 -2.55 L2.6 -3.4 2.6 -3.7" fill="url(#gradient33)" fill-rule="evenodd" stroke="none"/>
    <path d="M1.5 -0.65 L0.6 0.2 -0.25 0.7 0.35 -1.3 Q0.9 -1.2 1.4 -2.15 L1.5 -3.9 1.8 -3.85 2.1 -2.85 1.5 -1.65 1.5 -0.65" fill="url(#gradient34)" fill-rule="evenodd" stroke="none"/>
    <path d="M1.5 -3.9 L1.4 -2.15 Q0.9 -1.2 0.35 -1.3 -3.7 -2.5 -3.4 -3.45 -1.7 -1.6 1.5 -3.9" fill="url(#gradient35)" fill-rule="evenodd" stroke="none"/>
    <path d="M6.45 -3.45 Q8.4 -2.15 7.4 0.65 L7.3 0.8 Q5.7 3.2 2.3 1.35 L1.85 0.8 1.5 -0.65 1.5 -1.65 2.1 -2.85 2.6 -3.4 2.75 -2.55 Q1.45 -0.6 4.35 0.2 8.0 -0.75 6.45 -3.45" fill="url(#gradient36)" fill-rule="evenodd" stroke="none"/>
    <path d="M6.4 -3.5 L6.45 -3.45 Q8.0 -0.75 4.35 0.2 1.45 -0.6 2.75 -2.55 3.05 -0.2 4.85 -1.0 5.85 -1.5 6.2 -2.25 L6.35 -3.4 6.4 -3.5" fill="url(#gradient37)" fill-rule="evenodd" stroke="none"/>
    <path d="M6.6 -3.85 L6.4 -3.5 6.35 -3.4 5.8 -3.1 5.35 -3.1 4.75 -3.45 6.6 -3.85" fill="url(#gradient38)" fill-rule="evenodd" stroke="none"/>
    <path d="M7.4 0.65 Q8.85 2.45 6.15 5.25 L6.55 3.5 Q7.45 3.65 7.3 0.8 L7.4 0.65" fill="url(#gradient39)" fill-rule="evenodd" stroke="none"/>
    <path d="M7.3 0.8 Q7.45 3.65 6.55 3.5 L6.5 3.3 Q1.9 2.3 2.3 1.35 5.7 3.2 7.3 0.8" fill="url(#gradient40)" fill-rule="evenodd" stroke="none"/>
    <path d="M6.15 5.25 Q5.05 7.3 4.25 7.75 4.2 6.45 3.3 5.4 L1.5 3.7 0.5 3.1 -0.1 3.0 -0.45 3.1 -0.5 3.1 1.85 0.8 2.3 1.35 Q1.9 2.3 6.5 3.3 L6.55 3.5 6.15 5.25" fill="url(#gradient41)" fill-rule="evenodd" stroke="none"/>
    <path d="M4.25 7.75 Q1.25 10.3 -1.4 8.5 -3.25 6.6 -0.8 3.5 L-0.75 3.45 -0.45 3.1 -0.1 3.0 0.5 3.1 1.5 3.7 3.3 5.4 Q4.2 6.45 4.25 7.75" fill="url(#gradient42)" fill-rule="evenodd" stroke="none"/>
    <path d="M-3.3 -58.3 L-3.2 -58.45 -3.15 -58.3 -2.95 -57.45 -2.75 -55.3 -2.75 -55.25 -2.85 -55.3 -2.9 -55.4 -3.05 -55.3 -3.25 -53.85 -3.15 -51.05 -3.2 -50.9 -3.65 -49.95 -3.7 -50.15 -3.45 -51.85 -3.3 -58.3" fill="url(#gradient43)" fill-rule="evenodd" stroke="none"/>
    <path d="M-2.6 -57.3 L-2.5 -57.35 -2.6 -57.25 -2.6 -57.3" fill="url(#gradient44)" fill-rule="evenodd" stroke="none"/>
    <path d="M-2.75 -58.7 L-2.7 -58.8 -2.6 -58.55 -2.6 -57.3 -2.6 -57.25 -2.65 -55.25 -2.65 -55.1 -2.75 -55.25 -2.75 -55.3 -2.95 -57.45 -2.75 -58.7" fill="url(#gradient45)" fill-rule="evenodd" stroke="none"/>
    <path d="M-4.75 -54.4 L-3.65 -58.0 -3.3 -58.3 -3.45 -51.85 -3.7 -50.15 -4.15 -51.45 -5.0 -52.55 -4.75 -54.4" fill="url(#gradient46)" fill-rule="evenodd" stroke="none"/>
    <path d="M-3.15 -58.3 L-2.75 -58.7 -2.95 -57.45 -3.15 -58.3" fill="url(#gradient47)" fill-rule="evenodd" stroke="none"/>
    <path d="M-2.5 -57.35 L-2.5 -57.4 -2.4 -57.5 -2.4 -57.55 -2.25 -57.65 -1.6 -58.45 -1.55 -58.35 -2.2 -55.6 -2.25 -55.4 -2.6 -55.3 -2.65 -55.25 -2.6 -57.25 -2.5 -57.35" fill="url(#gradient48)" fill-rule="evenodd" stroke="none"/>
    <path d="M-0.55 -56.45 L-0.35 -56.55 -0.4 -56.3 -1.1 -55.3 -1.25 -55.3 -2.1 -55.0 -2.45 -54.65 -2.5 -54.8 -0.55 -56.45" fill="url(#gradient49)" fill-rule="evenodd" stroke="none"/>
    <path d="M-6.4 -54.35 L-6.25 -56.7 -6.0 -57.6 -5.7 -53.5 -6.4 -54.35" fill="url(#gradient50)" fill-rule="evenodd" stroke="none"/>
    <path d="M-6.0 -57.6 L-5.9 -57.7 -5.8 -57.55 -5.5 -56.9 -4.75 -54.4 -5.0 -52.55 -5.7 -53.5 -6.0 -57.6" fill="url(#gradient51)" fill-rule="evenodd" stroke="none"/>
    <path d="M-7.45 -55.2 L-7.0 -55.0 -6.4 -54.35 -5.7 -53.5 -5.0 -52.55 -4.15 -51.45 -3.7 -50.15 -3.65 -49.95 -3.4 -49.35 -3.25 -48.35 -4.4 -48.2 -4.45 -48.45 -7.45 -55.2" fill="url(#gradient52)" fill-rule="evenodd" stroke="none"/>
    <path d="M-6.6 -50.05 L-7.5 -54.0 -7.6 -54.8 -7.45 -55.2 -4.45 -48.45 -4.4 -48.2 -3.25 -48.35 -3.35 -48.05 -4.7 -47.2 -5.1 -47.2 -5.15 -47.25 -6.1 -48.3 -6.15 -48.4 -6.2 -48.5 -6.6 -49.75 -6.6 -50.0 -6.6 -50.05" fill="url(#gradient53)" fill-rule="evenodd" stroke="none"/>
    <path d="M-8.1 -44.55 Q-8.95 -47.75 -6.65 -50.0 L-6.6 -50.0 -6.6 -49.75 -6.5 -48.55 -6.3 -47.2 -6.05 -46.6 -6.95 -45.25 -7.3 -43.5 -7.3 -43.45 -7.35 -43.5 -8.1 -44.55" fill="url(#gradient54)" fill-rule="evenodd" stroke="none"/>
    <path d="M-6.65 -50.0 L-6.6 -50.05 -6.6 -50.0 -6.65 -50.0 M-6.2 -48.4 L-6.2 -48.5 -6.15 -48.4 -6.2 -48.4" fill="url(#gradient55)" fill-rule="evenodd" stroke="none"/>
    <path d="M-2.2 -55.6 L-0.55 -56.45 -2.5 -54.8 -2.65 -55.1 -2.65 -55.25 -2.6 -55.3 -2.25 -55.4 -2.2 -55.6" fill="url(#gradient56)" fill-rule="evenodd" stroke="none"/>
    <path d="M-3.15 -50.9 L-3.2 -50.9 -3.15 -51.05 -3.15 -50.9" fill="url(#gradient57)" fill-rule="evenodd" stroke="none"/>
    <path d="M-0.35 -50.05 L-0.2 -49.85 0.15 -49.05 -0.15 -49.25 -0.35 -50.05" fill="url(#gradient58)" fill-rule="evenodd" stroke="none"/>
    <path d="M-5.05 -45.6 L-4.95 -45.5 -5.0 -45.5 -5.05 -45.6" fill="url(#gradient59)" fill-rule="evenodd" stroke="none"/>
    <path d="M-4.2 -36.8 L-4.5 -36.95 -5.6 -37.85 Q-7.55 -40.2 -7.3 -43.45 L-7.3 -43.5 -6.95 -45.25 -6.05 -46.6 -5.6 -45.9 -5.05 -45.6 -5.0 -45.5 -4.35 -44.35 -3.5 -43.5 -2.4 -42.7 -1.2 -42.65 -0.55 -41.55 Q-2.5 -39.25 -1.7 -36.85 L-2.35 -36.6 -4.2 -36.8" fill="url(#gradient60)" fill-rule="evenodd" stroke="none"/>
    <path d="M-9.0 -38.9 Q-9.8 -41.35 -8.1 -44.55 L-7.35 -43.5 -7.3 -43.45 Q-7.55 -40.2 -5.6 -37.85 -7.85 -36.35 -9.0 -38.9" fill="url(#gradient61)" fill-rule="evenodd" stroke="none"/>
    <path d="M-4.5 -36.95 L-4.8 -35.75 -7.55 -31.4 -7.85 -31.4 -8.0 -31.7 -8.4 -31.9 -9.5 -31.9 -10.45 -32.15 -10.5 -32.45 -10.0 -33.5 -9.75 -35.2 -9.7 -34.7 -9.75 -35.3 -9.75 -35.35 -9.7 -37.7 -9.0 -38.9 Q-7.85 -36.35 -5.6 -37.85 L-4.5 -36.95" fill="url(#gradient62)" fill-rule="evenodd" stroke="none"/>
    <path d="M-7.55 -31.4 L-7.5 -31.35 Q-6.5 -26.45 -10.85 -27.35 -14.3 -29.7 -10.5 -32.45 L-10.45 -32.15 -9.5 -31.9 -9.75 -31.7 Q-11.85 -27.95 -10.1 -27.55 -7.4 -28.0 -7.85 -31.4 L-7.55 -31.4" fill="url(#gradient63)" fill-rule="evenodd" stroke="none"/>
    <path d="M-3.25 -33.5 L-3.3 -33.7 -3.25 -33.65 -3.25 -33.5" fill="url(#gradient64)" fill-rule="evenodd" stroke="none"/>
    <path d="M-9.75 -35.2 L-9.75 -35.35 -9.75 -35.3 -9.7 -34.7 -9.75 -35.2" fill="url(#gradient65)" fill-rule="evenodd" stroke="none"/>
    <path d="M-9.5 -31.9 L-8.4 -31.9 -8.0 -31.7 -7.85 -31.4 Q-7.4 -28.0 -10.1 -27.55 -11.85 -27.95 -9.75 -31.7 L-9.5 -31.9" fill="url(#gradient66)" fill-rule="evenodd" stroke="none"/>
    <path d="M-1.65 -26.7 L-1.65 -26.35 -2.05 -26.15 Q-3.0 -26.1 -2.25 -27.3 L-1.85 -27.1 -1.65 -26.7 M-2.85 -27.05 Q-2.5 -27.0 -3.05 -25.3 L-3.35 -24.9 Q-4.5 -23.85 -5.0 -22.25 L-5.4 -19.9 -5.25 -17.85 Q-4.95 -16.85 -5.9 -17.7 L-6.75 -19.1 -6.95 -19.9 -6.95 -20.05 -6.95 -21.25 -7.0 -21.5 Q-6.8 -25.25 -4.3 -26.55 L-3.7 -27.05 -2.85 -27.05" fill="url(#gradient67)" fill-rule="evenodd" stroke="none"/>
    <path d="M-2.05 -26.15 L-2.35 -25.25 -2.4 -24.3 -2.5 -22.15 -2.05 -16.7 -2.05 -16.5 -2.2 -16.05 -2.65 -14.95 -2.75 -14.7 -2.75 -14.6 -3.3 -13.65 Q-3.8 -15.95 -3.7 -17.25 L-3.35 -24.9 -3.05 -25.3 Q-2.5 -27.0 -2.85 -27.05 L-2.6 -27.75 -2.25 -27.3 Q-3.0 -26.1 -2.05 -26.15" fill="url(#gradient68)" fill-rule="evenodd" stroke="none"/>
    <path d="M-8.15 -21.95 Q-8.7 -26.6 -5.2 -30.5 -5.35 -29.5 -4.85 -27.6 L-4.3 -26.55 Q-6.8 -25.25 -7.0 -21.5 L-6.95 -20.05 -6.95 -19.9 -6.75 -19.1 -7.5 -19.9 -7.75 -20.95 -8.0 -21.15 -8.15 -21.95 M-5.25 -17.85 L-5.4 -19.9 -5.0 -22.25 Q-4.5 -23.85 -3.35 -24.9 L-3.7 -17.25 -4.85 -17.95 -5.25 -17.85" fill="url(#gradient69)" fill-rule="evenodd" stroke="none"/>
    <path d="M-8.0 -13.75 L-8.4 -19.1 -8.15 -21.95 -8.0 -21.15 -7.75 -20.95 -7.5 -19.9 -6.75 -19.1 -5.9 -17.7 Q-4.95 -16.85 -5.25 -17.85 L-4.85 -17.95 -3.7 -17.25 Q-3.8 -15.95 -3.3 -13.65 L-2.75 -14.6 -2.6 -14.9 -2.2 -16.05 -2.05 -16.5 -1.95 -16.5 -1.9 -16.35 -1.95 -16.25 -2.15 -15.3 -2.1 -9.7 Q-7.1 -10.5 -8.0 -13.75" fill="url(#gradient70)" fill-rule="evenodd" stroke="none"/>
    <path d="M-7.0 -21.5 L-6.95 -21.25 -6.95 -20.05 -7.0 -21.5" fill="url(#gradient71)" fill-rule="evenodd" stroke="none"/>
    <path d="M-2.05 -16.5 L-2.05 -16.7 -1.95 -16.5 -2.05 -16.5 M-1.9 -16.35 L-1.9 -16.25 -1.95 -16.25 -1.9 -16.35" fill="url(#gradient72)" fill-rule="evenodd" stroke="none"/>
    <path d="M-2.75 -14.6 L-2.75 -14.7 -2.65 -14.95 -2.6 -14.9 -2.75 -14.6" fill="url(#gradient73)" fill-rule="evenodd" stroke="none"/>
    <path d="M-2.65 -14.95 L-2.2 -16.05 -2.6 -14.9 -2.65 -14.95" fill="url(#gradient74)" fill-rule="evenodd" stroke="none"/>
    <path d="M-3.3 -7.85 L-3.4 -8.55 -1.9 -8.3 -1.4 -6.4 -1.15 -5.95 Q-2.9 -5.4 -3.25 -7.15 L-3.3 -7.85" fill="url(#gradient75)" fill-rule="evenodd" stroke="none"/>
    <path d="M-3.85 -4.05 Q-5.0 -5.7 -3.3 -7.85 L-3.25 -7.15 Q-4.3 -4.6 -0.5 -4.95 L-0.1 -4.5 1.5 -3.9 Q-1.7 -1.6 -3.4 -3.45 L-3.85 -4.05" fill="url(#gradient76)" fill-rule="evenodd" stroke="none"/>
    <path d="M-1.95 -8.7 L-2.05 -8.7 -2.05 -8.75 -1.95 -8.75 -1.95 -8.7" fill="url(#gradient77)" fill-rule="evenodd" stroke="none"/>
    <path d="M-2.1 -8.95 L-1.95 -8.75 -2.05 -8.75 -2.1 -8.95" fill="url(#gradient78)" fill-rule="evenodd" stroke="none"/>
    <path d="M-3.4 -8.55 Q-6.5 -7.85 -8.0 -13.75 -7.1 -10.5 -2.1 -9.7 L-2.1 -8.95 -2.05 -8.75 -2.05 -8.7 -1.9 -8.3 -3.4 -8.55" fill="url(#gradient79)" fill-rule="evenodd" stroke="none"/>
    <path d="M-6.45 -1.95 L-6.2 -2.25 -6.2 -2.2 -6.1 -2.2 -6.05 -2.25 -6.0 -2.25 -6.45 -1.95" fill="url(#gradient80)" fill-rule="evenodd" stroke="none"/>
    <path d="M-2.25 2.8 Q-4.9 4.7 -7.7 3.05 -9.3 0.6 -6.45 -1.95 L-6.0 -2.25 Q-2.85 -0.7 -2.25 2.8" fill="url(#gradient81)" fill-rule="evenodd" stroke="none"/>
    <path d="M-0.25 0.7 L-1.0 1.7 -2.25 2.8 Q-2.85 -0.7 -6.0 -2.25 L-6.05 -2.25 -6.1 -2.2 -6.2 -2.2 -6.2 -2.25 -3.85 -4.05 -3.4 -3.45 Q-3.7 -2.5 0.35 -1.3 L-0.25 0.7" fill="url(#gradient82)" fill-rule="evenodd" stroke="none"/>
    <path d="M-1.15 -5.95 L-0.5 -4.95 Q-4.3 -4.6 -3.25 -7.15 -2.9 -5.4 -1.15 -5.95" fill="url(#gradient83)" fill-rule="evenodd" stroke="none"/>
    <path d="M-0.75 3.45 L-0.5 3.1 -0.45 3.1 -0.75 3.45" fill="url(#gradient84)" fill-rule="evenodd" stroke="none"/>
  </g>
  <defs>
    <radialGradient cx="0" cy="0" gradientTransform="matrix(0.0076, 0.0, 0.0, 0.0076, 0.3, -49.15)" gradientUnits="userSpaceOnUse" id="gradient0" r="819.2" spreadMethod="pad">
      <stop offset="0.0" stop-color="#da3030"/>
      <stop offset="1.0" stop-color="#b22727"/>
    </radialGradient>
    <radialGradient cx="0" cy="0" gradientTransform="matrix(0.0061, 0.0, 0.0, 0.0061, -0.9, -52.25)" gradientUnits="userSpaceOnUse" id="gradient1" r="819.2" spreadMethod="pad">
      <stop offset="0.0" stop-color="#ea3434"/>
      <stop offset="1.0" stop-color="#891e1e"/>
    </radialGradient>
    <radialGradient cx="0" cy="0" gradientTransform="matrix(7.0E-4, 0.0, 0.0, 7.0E-4, 3.25, -51.25)" gradientUnits="userSpaceOnUse" id="gradient2" r="819.2" spreadMethod="pad">
      <stop offset="0.0" stop-color="#5e5e5e"/>
      <stop offset="1.0" stop-color="#585858"/>
    </radialGradient>
    <radialGradient cx="0" cy="0" gradientTransform="matrix(0.0079, 0.0, 0.0, 0.0079, -2.0, -49.05)" gradientUnits="userSpaceOnUse" id="gradient3" r="819.2" spreadMethod="pad">
      <stop offset="0.0" stop-color="#e33232"/>
      <stop offset="1.0" stop-color="#871e1e"/>
    </radialGradient>
    <radialGradient cx="0" cy="0" gradientTransform="matrix(0.0051, 0.0, 0.0, 0.0051, 3.8, -51.15)" gradientUnits="userSpaceOnUse" id="gradient4" r="819.2" spreadMethod="pad">
      <stop offset="0.0" stop-color="#585858"/>
      <stop offset="1.0" stop-color="#202020"/>
    </radialGradient>
    <radialGradient cx="0" cy="0" gradientTransform="matrix(0.0038, 0.0, 0.0, 0.0038, 2.7, -50.75)" gradientUnits="userSpaceOnUse" id="gradient5" r="819.2" spreadMethod="pad">
      <stop offset="0.0" stop-color="#9c2323"/>
      <stop offset="1.0" stop-color="#651717"/>
    </radialGradient>
    <radialGradient cx="0" cy="0" gradientTransform="matrix(0.0025, 0.0, 0.0, 0.0025, 4.1, -50.45)" gradientUnits="userSpaceOnUse" id="gradient6" r="819.2" spreadMethod="pad">
      <stop offset="0.0" stop-color="#606060"/>
      <stop offset="1.0" stop-color="#585858"/>
    </radialGradient>
    <radialGradient cx="0" cy="0" gradientTransform="matrix(0.0048, 0.0, 0.0, 0.0048, 6.4, -49.1)" gradientUnits="userSpaceOnUse" id="gradient7" r="819.2" spreadMethod="pad">
      <stop offset="0.0" stop-color="#939393"/>
      <stop offset="1.0" stop-color="#868686"/>
    </radialGradient>
    <radialGradient cx="0" cy="0" gradientTransform="matrix(0.0021, 0.0, 0.0, 0.0021, 4.5, -50.3)" gradientUnits="userSpaceOnUse" id="gradient8" r="819.2" spreadMethod="pad">
      <stop offset="0.0" stop-color="#5a5a5a"/>
      <stop offset="1.0" stop-color="#444444"/>
    </radialGradient>
    <radialGradient cx="0" cy="0" gradientTransform="matrix(0.0053, 0.0, 0.0, 0.0053, 7.55, -48.1)" gradientUnits="userSpaceOnUse" id="gradient9" r="819.2" spreadMethod="pad">
      <stop offset="0.0" stop-color="#202020"/>
      <stop offset="1.0" stop-color="#202020"/>
    </radialGradient>
    <radialGradient cx="0" cy="0" gradientTransform="matrix(0.0192, 0.0, 0.0, 0.0192, 5.45, -42.9)" gradientUnits="userSpaceOnUse" id="gradient10" r="819.2" spreadMethod="pad">
      <stop offset="0.0" stop-color="#ffd77d"/>
      <stop offset="1.0" stop-color="#b8824b"/>
    </radialGradient>
    <radialGradient cx="0" cy="0" gradientTransform="matrix(0.0075, 0.0, 0.0, 0.0075, -1.2, -45.8)" gradientUnits="userSpaceOnUse" id="gradient11" r="819.2" spreadMethod="pad">
      <stop offset="0.0" stop-color="#bababa"/>
      <stop offset="1.0" stop-color="#a9a9a9"/>
    </radialGradient>
    <radialGradient cx="0" cy="0" gradientTransform="matrix(0.0051, 0.0, 0.0, 0.0051, 2.05, -47.4)" gradientUnits="userSpaceOnUse" id="gradient12" r="819.2" spreadMethod="pad">
      <stop offset="0.0" stop-color="#ffcd77"/>
      <stop offset="1.0" stop-color="#b5804a"/>
    </radialGradient>
    <radialGradient cx="0" cy="0" gradientTransform="matrix(0.0087, 0.0, 0.0, 0.0087, -0.4, -48.9)" gradientUnits="userSpaceOnUse" id="gradient13" r="819.2" spreadMethod="pad">
      <stop offset="0.0" stop-color="#d63030"/>
      <stop offset="1.0" stop-color="#b02727"/>
    </radialGradient>
    <radialGradient cx="0" cy="0" gradientTransform="matrix(0.0095, 0.0, 0.0, 0.0095, -4.65, -46.95)" gradientUnits="userSpaceOnUse" id="gradient14" r="819.2" spreadMethod="pad">
      <stop offset="0.0" stop-color="#bbbbbb"/>
      <stop offset="1.0" stop-color="#b9b9b9"/>
    </radialGradient>
    <radialGradient cx="0" cy="0" gradientTransform="matrix(0.005, 0.0, 0.0, 0.005, -1.7, -45.2)" gradientUnits="userSpaceOnUse" id="gradient15" r="819.2" spreadMethod="pad">
      <stop offset="0.0" stop-color="#c88d52"/>
      <stop offset="1.0" stop-color="#976a3d"/>
    </radialGradient>
    <radialGradient cx="0" cy="0" gradientTransform="matrix(0.0137, 0.0, 0.0, 0.0137, 2.55, -34.05)" gradientUnits="userSpaceOnUse" id="gradient16" r="819.2" spreadMethod="pad">
      <stop offset="0.0" stop-color="#6a634d"/>
      <stop offset="1.0" stop-color="#484434"/>
    </radialGradient>
    <radialGradient cx="0" cy="0" gradientTransform="matrix(0.0115, 0.0, 0.0, 0.0115, 1.8, -34.35)" gradientUnits="userSpaceOnUse" id="gradient17" r="819.2" spreadMethod="pad">
      <stop offset="0.0" stop-color="#ffffff"/>
      <stop offset="1.0" stop-color="#b3b3b3"/>
    </radialGradient>
    <radialGradient cx="0" cy="0" gradientTransform="matrix(0.0086, 0.0, 0.0, 0.0086, 10.1, -39.0)" gradientUnits="userSpaceOnUse" id="gradient18" r="819.2" spreadMethod="pad">
      <stop offset="0.0" stop-color="#ffd57c"/>
      <stop offset="1.0" stop-color="#a67543"/>
    </radialGradient>
    <radialGradient cx="0" cy="0" gradientTransform="matrix(0.0089, 0.0, 0.0, 0.0089, 4.5, -39.45)" gradientUnits="userSpaceOnUse" id="gradient19" r="819.2" spreadMethod="pad">
      <stop offset="0.0" stop-color="#ffd77d"/>
      <stop offset="1.0" stop-color="#ac7a46"/>
    </radialGradient>
    <radialGradient cx="0" cy="0" gradientTransform="matrix(0.0079, 0.0, 0.0, 0.0079, 3.55, -25.75)" gradientUnits="userSpaceOnUse" id="gradient20" r="819.2" spreadMethod="pad">
      <stop offset="0.0" stop-color="#988a8a"/>
      <stop offset="1.0" stop-color="#564e4e"/>
    </radialGradient>
    <radialGradient cx="0" cy="0" gradientTransform="matrix(0.0111, 0.0, 0.0, 0.0111, 10.25, -33.45)" gradientUnits="userSpaceOnUse" id="gradient21" r="819.2" spreadMethod="pad">
      <stop offset="0.0" stop-color="#ffd77d"/>
      <stop offset="1.0" stop-color="#9b6d3f"/>
    </radialGradient>
    <radialGradient cx="0" cy="0" gradientTransform="matrix(0.0084, 0.0, 0.0, 0.0084, 12.45, -33.1)" gradientUnits="userSpaceOnUse" id="gradient22" r="819.2" spreadMethod="pad">
      <stop offset="0.0" stop-color="#ffd77d"/>
      <stop offset="1.0" stop-color="#9d6f41"/>
    </radialGradient>
    <radialGradient cx="0" cy="0" gradientTransform="matrix(0.0023, 0.0, 0.0, 0.0023, 13.7, -26.8)" gradientUnits="userSpaceOnUse" id="gradient23" r="819.2" spreadMethod="pad">
      <stop offset="0.0" stop-color="#e09e5c"/>
      <stop offset="1.0" stop-color="#b17d48"/>
    </radialGradient>
    <radialGradient cx="0" cy="0" gradientTransform="matrix(0.0015, 0.0, 0.0, 0.0015, 13.45, -26.5)" gradientUnits="userSpaceOnUse" id="gradient24" r="819.2" spreadMethod="pad">
      <stop offset="0.0" stop-color="#322f24"/>
      <stop offset="1.0" stop-color="#2d2a20"/>
    </radialGradient>
    <radialGradient cx="0" cy="0" gradientTransform="matrix(0.0023, 0.0, 0.0, 0.0023, 15.05, -24.6)" gradientUnits="userSpaceOnUse" id="gradient25" r="819.2" spreadMethod="pad">
      <stop offset="0.0" stop-color="#423e30"/>
      <stop offset="1.0" stop-color="#323025"/>
    </radialGradient>
    <radialGradient cx="0" cy="0" gradientTransform="matrix(0.0101, 0.0, 0.0, 0.0101, 12.65, -24.45)" gradientUnits="userSpaceOnUse" id="gradient26" r="819.2" spreadMethod="pad">
      <stop offset="0.0" stop-color="#67604a"/>
      <stop offset="1.0" stop-color="#3d392c"/>
    </radialGradient>
    <radialGradient cx="0" cy="0" gradientTransform="matrix(0.0036, 0.0, 0.0, 0.0036, 15.05, -23.2)" gradientUnits="userSpaceOnUse" id="gradient27" r="819.2" spreadMethod="pad">
      <stop offset="0.0" stop-color="#403c2f"/>
      <stop offset="1.0" stop-color="#343126"/>
    </radialGradient>
    <radialGradient cx="0" cy="0" gradientTransform="matrix(0.0042, 0.0, 0.0, 0.0042, 9.1, -16.1)" gradientUnits="userSpaceOnUse" id="gradient28" r="819.2" spreadMethod="pad">
      <stop offset="0.0" stop-color="#6b644e"/>
      <stop offset="1.0" stop-color="#322f24"/>
    </radialGradient>
    <radialGradient cx="0" cy="0" gradientTransform="matrix(0.0158, 0.0, 0.0, 0.0158, 1.85, -23.95)" gradientUnits="userSpaceOnUse" id="gradient29" r="819.2" spreadMethod="pad">
      <stop offset="0.0" stop-color="#9a8d8d"/>
      <stop offset="1.0" stop-color="#585050"/>
    </radialGradient>
    <radialGradient cx="0" cy="0" gradientTransform="matrix(0.0038, 0.0, 0.0, 0.0038, 8.45, -17.4)" gradientUnits="userSpaceOnUse" id="gradient30" r="819.2" spreadMethod="pad">
      <stop offset="0.0" stop-color="#ffe787"/>
      <stop offset="1.0" stop-color="#ba834c"/>
    </radialGradient>
    <radialGradient cx="0" cy="0" gradientTransform="matrix(0.0154, 0.0, 0.0, 0.0154, 7.9, -14.25)" gradientUnits="userSpaceOnUse" id="gradient31" r="819.2" spreadMethod="pad">
      <stop offset="0.0" stop-color="#3e3a2d"/>
      <stop offset="1.0" stop-color="#302d22"/>
    </radialGradient>
    <radialGradient cx="0" cy="0" gradientTransform="matrix(0.0126, 0.0, 0.0, 0.0126, 3.8, -13.8)" gradientUnits="userSpaceOnUse" id="gradient32" r="819.2" spreadMethod="pad">
      <stop offset="0.0" stop-color="#746969"/>
      <stop offset="1.0" stop-color="#484242"/>
    </radialGradient>
    <radialGradient cx="0" cy="0" gradientTransform="matrix(0.0052, 0.0, 0.0, 0.0052, 3.8, -0.9)" gradientUnits="userSpaceOnUse" id="gradient33" r="819.2" spreadMethod="pad">
      <stop offset="0.0" stop-color="#a47443"/>
      <stop offset="1.0" stop-color="#92673c"/>
    </radialGradient>
    <radialGradient cx="0" cy="0" gradientTransform="matrix(0.0042, 0.0, 0.0, 0.0042, 0.15, -1.4)" gradientUnits="userSpaceOnUse" id="gradient34" r="819.2" spreadMethod="pad">
      <stop offset="0.0" stop-color="#514c3b"/>
      <stop offset="1.0" stop-color="#2b281f"/>
    </radialGradient>
    <radialGradient cx="0" cy="0" gradientTransform="matrix(0.0038, 0.0, 0.0, 0.0038, -1.0, -3.45)" gradientUnits="userSpaceOnUse" id="gradient35" r="819.2" spreadMethod="pad">
      <stop offset="0.0" stop-color="#8d1f1f"/>
      <stop offset="1.0" stop-color="#7e1c1c"/>
    </radialGradient>
    <radialGradient cx="0" cy="0" gradientTransform="matrix(0.0061, 0.0, 0.0, 0.0061, 2.95, -0.1)" gradientUnits="userSpaceOnUse" id="gradient36" r="819.2" spreadMethod="pad">
      <stop offset="0.0" stop-color="#756d55"/>
      <stop offset="1.0" stop-color="#3c372b"/>
    </radialGradient>
    <radialGradient cx="0" cy="0" gradientTransform="matrix(0.0044, 0.0, 0.0, 0.0044, 3.3, -1.6)" gradientUnits="userSpaceOnUse" id="gradient37" r="819.2" spreadMethod="pad">
      <stop offset="0.0" stop-color="#ffffff"/>
      <stop offset="1.0" stop-color="#848484"/>
    </radialGradient>
    <radialGradient cx="0" cy="0" gradientTransform="matrix(0.0023, 0.0, 0.0, 0.0023, 6.15, -4.45)" gradientUnits="userSpaceOnUse" id="gradient38" r="819.2" spreadMethod="pad">
      <stop offset="0.0" stop-color="#7f5934"/>
      <stop offset="1.0" stop-color="#523922"/>
    </radialGradient>
    <radialGradient cx="0" cy="0" gradientTransform="matrix(0.0038, 0.0, 0.0, 0.0038, 6.25, 3.35)" gradientUnits="userSpaceOnUse" id="gradient39" r="819.2" spreadMethod="pad">
      <stop offset="0.0" stop-color="#494435"/>
      <stop offset="1.0" stop-color="#373328"/>
    </radialGradient>
    <radialGradient cx="0" cy="0" gradientTransform="matrix(0.0038, 0.0, 0.0, 0.0038, 4.8, 1.4)" gradientUnits="userSpaceOnUse" id="gradient40" r="819.2" spreadMethod="pad">
      <stop offset="0.0" stop-color="#881e1e"/>
      <stop offset="1.0" stop-color="#7a1b1b"/>
    </radialGradient>
    <radialGradient cx="0" cy="0" gradientTransform="matrix(0.0061, 0.0, 0.0, 0.0061, 3.6, 2.75)" gradientUnits="userSpaceOnUse" id="gradient41" r="819.2" spreadMethod="pad">
      <stop offset="0.0" stop-color="#ff4141"/>
      <stop offset="1.0" stop-color="#af2626"/>
    </radialGradient>
    <radialGradient cx="0" cy="0" gradientTransform="matrix(0.0051, 0.0, 0.0, 0.0051, 1.5, 5.4)" gradientUnits="userSpaceOnUse" id="gradient42" r="819.2" spreadMethod="pad">
      <stop offset="0.0" stop-color="#776f56"/>
      <stop offset="1.0" stop-color="#4a4636"/>
    </radialGradient>
    <radialGradient cx="0" cy="0" gradientTransform="matrix(0.0059, 0.0, 0.0, 0.0059, -3.45, -54.0)" gradientUnits="userSpaceOnUse" id="gradient43" r="819.2" spreadMethod="pad">
      <stop offset="0.0" stop-color="#b42828"/>
      <stop offset="1.0" stop-color="#ae2727"/>
    </radialGradient>
    <radialGradient cx="0" cy="0" gradientTransform="matrix(0.0014, 0.0, 0.0, 0.0014, -2.7, -57.15)" gradientUnits="userSpaceOnUse" id="gradient44" r="819.2" spreadMethod="pad">
      <stop offset="0.0" stop-color="#8b1f1f"/>
      <stop offset="1.0" stop-color="#7e1c1c"/>
    </radialGradient>
    <radialGradient cx="0" cy="0" gradientTransform="matrix(0.0031, 0.0, 0.0, 0.0031, -3.1, -56.75)" gradientUnits="userSpaceOnUse" id="gradient45" r="819.2" spreadMethod="pad">
      <stop offset="0.0" stop-color="#b12727"/>
      <stop offset="1.0" stop-color="#a42424"/>
    </radialGradient>
    <radialGradient cx="0" cy="0" gradientTransform="matrix(0.0102, 0.0, 0.0, 0.0102, -3.7, -50.2)" gradientUnits="userSpaceOnUse" id="gradient46" r="819.2" spreadMethod="pad">
      <stop offset="0.0" stop-color="#c22b2b"/>
      <stop offset="1.0" stop-color="#b62828"/>
    </radialGradient>
    <radialGradient cx="0" cy="0" gradientTransform="matrix(0.0026, 0.0, 0.0, 0.0026, -3.1, -56.75)" gradientUnits="userSpaceOnUse" id="gradient47" r="819.2" spreadMethod="pad">
      <stop offset="0.0" stop-color="#bb2a2a"/>
      <stop offset="1.0" stop-color="#af2727"/>
    </radialGradient>
    <radialGradient cx="0" cy="0" gradientTransform="matrix(0.004, 0.0, 0.0, 0.004, -3.5, -55.9)" gradientUnits="userSpaceOnUse" id="gradient48" r="819.2" spreadMethod="pad">
      <stop offset="0.0" stop-color="#e13232"/>
      <stop offset="1.0" stop-color="#c82c2c"/>
    </radialGradient>
    <radialGradient cx="0" cy="0" gradientTransform="matrix(0.0037, 0.0, 0.0, 0.0037, -2.8, -54.8)" gradientUnits="userSpaceOnUse" id="gradient49" r="819.2" spreadMethod="pad">
      <stop offset="0.0" stop-color="#b72929"/>
      <stop offset="1.0" stop-color="#a32424"/>
    </radialGradient>
    <radialGradient cx="0" cy="0" gradientTransform="matrix(0.0039, 0.0, 0.0, 0.0039, -5.9, -55.95)" gradientUnits="userSpaceOnUse" id="gradient50" r="819.2" spreadMethod="pad">
      <stop offset="0.0" stop-color="#b42828"/>
      <stop offset="1.0" stop-color="#b02727"/>
    </radialGradient>
    <radialGradient cx="0" cy="0" gradientTransform="matrix(0.0045, 0.0, 0.0, 0.0045, -5.9, -55.95)" gradientUnits="userSpaceOnUse" id="gradient51" r="819.2" spreadMethod="pad">
      <stop offset="0.0" stop-color="#b72929"/>
      <stop offset="1.0" stop-color="#b42828"/>
    </radialGradient>
    <radialGradient cx="0" cy="0" gradientTransform="matrix(0.0052, 0.0, 0.0, 0.0052, -5.85, -51.9)" gradientUnits="userSpaceOnUse" id="gradient52" r="819.2" spreadMethod="pad">
      <stop offset="0.0" stop-color="#b72929"/>
      <stop offset="1.0" stop-color="#b12727"/>
    </radialGradient>
    <radialGradient cx="0" cy="0" gradientTransform="matrix(0.0104, 0.0, 0.0, 0.0104, -7.5, -55.35)" gradientUnits="userSpaceOnUse" id="gradient53" r="819.2" spreadMethod="pad">
      <stop offset="0.0" stop-color="#a72525"/>
      <stop offset="1.0" stop-color="#7e1b1b"/>
    </radialGradient>
    <radialGradient cx="0" cy="0" gradientTransform="matrix(0.0054, 0.0, 0.0, 0.0054, -5.8, -47.45)" gradientUnits="userSpaceOnUse" id="gradient54" r="819.2" spreadMethod="pad">
      <stop offset="0.0" stop-color="#ffc271"/>
      <stop offset="1.0" stop-color="#9f7041"/>
    </radialGradient>
    <radialGradient cx="0" cy="0" gradientTransform="matrix(0.0058, 0.0, 0.0, 0.0058, -6.95, -51.7)" gradientUnits="userSpaceOnUse" id="gradient55" r="819.2" spreadMethod="pad">
      <stop offset="0.0" stop-color="#200707"/>
      <stop offset="1.0" stop-color="#1f0707"/>
    </radialGradient>
    <radialGradient cx="0" cy="0" gradientTransform="matrix(0.0025, 0.0, 0.0, 0.0025, -1.95, -55.4)" gradientUnits="userSpaceOnUse" id="gradient56" r="819.2" spreadMethod="pad">
      <stop offset="0.0" stop-color="#6f1919"/>
      <stop offset="1.0" stop-color="#511212"/>
    </radialGradient>
    <radialGradient cx="0" cy="0" gradientTransform="matrix(0.0071, 0.0, 0.0, 0.0071, -3.25, -54.95)" gradientUnits="userSpaceOnUse" id="gradient57" r="819.2" spreadMethod="pad">
      <stop offset="0.0" stop-color="#1f0707"/>
      <stop offset="1.0" stop-color="#1f0707"/>
    </radialGradient>
    <radialGradient cx="0" cy="0" gradientTransform="matrix(0.0061, 0.0, 0.0, 0.0061, -0.15, -49.25)" gradientUnits="userSpaceOnUse" id="gradient58" r="819.2" spreadMethod="pad">
      <stop offset="0.0" stop-color="#a12424"/>
      <stop offset="1.0" stop-color="#881e1e"/>
    </radialGradient>
    <radialGradient cx="0" cy="0" gradientTransform="matrix(0.0058, 0.0, 0.0, 0.0058, -5.65, -46.1)" gradientUnits="userSpaceOnUse" id="gradient59" r="819.2" spreadMethod="pad">
      <stop offset="0.0" stop-color="#202020"/>
      <stop offset="1.0" stop-color="#202020"/>
    </radialGradient>
    <radialGradient cx="0" cy="0" gradientTransform="matrix(0.0079, 0.0, 0.0, 0.0079, -2.35, -43.05)" gradientUnits="userSpaceOnUse" id="gradient60" r="819.2" spreadMethod="pad">
      <stop offset="0.0" stop-color="#ffdb80"/>
      <stop offset="1.0" stop-color="#9a6d3f"/>
    </radialGradient>
    <radialGradient cx="0" cy="0" gradientTransform="matrix(0.0072, 0.0, 0.0, 0.0072, -7.05, -43.25)" gradientUnits="userSpaceOnUse" id="gradient61" r="819.2" spreadMethod="pad">
      <stop offset="0.0" stop-color="#ffd27a"/>
      <stop offset="1.0" stop-color="#875f37"/>
    </radialGradient>
    <radialGradient cx="0" cy="0" gradientTransform="matrix(0.0094, 0.0, 0.0, 0.0094, -6.05, -38.3)" gradientUnits="userSpaceOnUse" id="gradient62" r="819.2" spreadMethod="pad">
      <stop offset="0.0" stop-color="#6c654e"/>
      <stop offset="1.0" stop-color="#413d2f"/>
    </radialGradient>
    <radialGradient cx="0" cy="0" gradientTransform="matrix(0.0036, 0.0, 0.0, 0.0036, -9.95, -30.2)" gradientUnits="userSpaceOnUse" id="gradient63" r="819.2" spreadMethod="pad">
      <stop offset="0.0" stop-color="#6f6851"/>
      <stop offset="1.0" stop-color="#2e2b21"/>
    </radialGradient>
    <radialGradient cx="0" cy="0" gradientTransform="matrix(0.0046, 0.0, 0.0, 0.0046, -4.05, -36.15)" gradientUnits="userSpaceOnUse" id="gradient64" r="819.2" spreadMethod="pad">
      <stop offset="0.0" stop-color="#261b10"/>
      <stop offset="1.0" stop-color="#261b10"/>
    </radialGradient>
    <radialGradient cx="0" cy="0" gradientTransform="matrix(0.0069, 0.0, 0.0, 0.0069, -9.7, -37.65)" gradientUnits="userSpaceOnUse" id="gradient65" r="819.2" spreadMethod="pad">
      <stop offset="0.0" stop-color="#3d392c"/>
      <stop offset="1.0" stop-color="#26231c"/>
    </radialGradient>
    <radialGradient cx="0" cy="0" gradientTransform="matrix(0.0035, 0.0, 0.0, 0.0035, -9.3, -30.35)" gradientUnits="userSpaceOnUse" id="gradient66" r="819.2" spreadMethod="pad">
      <stop offset="0.0" stop-color="#fff18c"/>
      <stop offset="1.0" stop-color="#ac7946"/>
    </radialGradient>
    <radialGradient cx="0" cy="0" gradientTransform="matrix(0.0129, 0.0, 0.0, 0.0129, -1.45, -27.2)" gradientUnits="userSpaceOnUse" id="gradient67" r="819.2" spreadMethod="pad">
      <stop offset="0.0" stop-color="#67604a"/>
      <stop offset="1.0" stop-color="#413d2f"/>
    </radialGradient>
    <radialGradient cx="0" cy="0" gradientTransform="matrix(0.0147, 0.0, 0.0, 0.0147, -2.9, -25.8)" gradientUnits="userSpaceOnUse" id="gradient68" r="819.2" spreadMethod="pad">
      <stop offset="0.0" stop-color="#6b644d"/>
      <stop offset="1.0" stop-color="#3e392c"/>
    </radialGradient>
    <radialGradient cx="0" cy="0" gradientTransform="matrix(0.0143, 0.0, 0.0, 0.0143, -2.4, -28.1)" gradientUnits="userSpaceOnUse" id="gradient69" r="819.2" spreadMethod="pad">
      <stop offset="0.0" stop-color="#7e7272"/>
      <stop offset="1.0" stop-color="#524a4a"/>
    </radialGradient>
    <radialGradient cx="0" cy="0" gradientTransform="matrix(0.0129, 0.0, 0.0, 0.0129, -2.85, -19.0)" gradientUnits="userSpaceOnUse" id="gradient70" r="819.2" spreadMethod="pad">
      <stop offset="0.0" stop-color="#7c7171"/>
      <stop offset="1.0" stop-color="#4c4545"/>
    </radialGradient>
    <radialGradient cx="0" cy="0" gradientTransform="matrix(0.0018, 0.0, 0.0, 0.0018, -7.1, -20.4)" gradientUnits="userSpaceOnUse" id="gradient71" r="819.2" spreadMethod="pad">
      <stop offset="0.0" stop-color="#4f4a39"/>
      <stop offset="1.0" stop-color="#4f4a39"/>
    </radialGradient>
    <radialGradient cx="0" cy="0" gradientTransform="matrix(0.0044, 0.0, 0.0, 0.0044, -2.35, -18.25)" gradientUnits="userSpaceOnUse" id="gradient72" r="819.2" spreadMethod="pad">
      <stop offset="0.0" stop-color="#121010"/>
      <stop offset="1.0" stop-color="#121010"/>
    </radialGradient>
    <radialGradient cx="0" cy="0" gradientTransform="matrix(0.0019, 0.0, 0.0, 0.0019, -2.35, -16.15)" gradientUnits="userSpaceOnUse" id="gradient73" r="819.2" spreadMethod="pad">
      <stop offset="0.0" stop-color="#3f3b2e"/>
      <stop offset="1.0" stop-color="#3e3a2d"/>
    </radialGradient>
    <radialGradient cx="0" cy="0" gradientTransform="matrix(0.002, 0.0, 0.0, 0.002, -2.1, -16.5)" gradientUnits="userSpaceOnUse" id="gradient74" r="819.2" spreadMethod="pad">
      <stop offset="0.0" stop-color="#433f30"/>
      <stop offset="1.0" stop-color="#413d2f"/>
    </radialGradient>
    <radialGradient cx="0" cy="0" gradientTransform="matrix(0.0037, 0.0, 0.0, 0.0037, -1.95, -8.9)" gradientUnits="userSpaceOnUse" id="gradient75" r="819.2" spreadMethod="pad">
      <stop offset="0.0" stop-color="#b8824c"/>
      <stop offset="1.0" stop-color="#a27242"/>
    </radialGradient>
    <radialGradient cx="0" cy="0" gradientTransform="matrix(0.0055, 0.0, 0.0, 0.0055, -0.65, -4.3)" gradientUnits="userSpaceOnUse" id="gradient76" r="819.2" spreadMethod="pad">
      <stop offset="0.0" stop-color="#746c54"/>
      <stop offset="1.0" stop-color="#373328"/>
    </radialGradient>
    <radialGradient cx="0" cy="0" gradientTransform="matrix(0.0103, 0.0, 0.0, 0.0103, -2.15, -14.8)" gradientUnits="userSpaceOnUse" id="gradient77" r="819.2" spreadMethod="pad">
      <stop offset="0.0" stop-color="#504949"/>
      <stop offset="1.0" stop-color="#433d3d"/>
    </radialGradient>
    <radialGradient cx="0" cy="0" gradientTransform="matrix(0.0159, 0.0, 0.0, 0.0159, 10.9, -9.8)" gradientUnits="userSpaceOnUse" id="gradient78" r="819.2" spreadMethod="pad">
      <stop offset="0.0" stop-color="#2f2c22"/>
      <stop offset="1.0" stop-color="#1d1c15"/>
    </radialGradient>
    <radialGradient cx="0" cy="0" gradientTransform="matrix(0.0088, 0.0, 0.0, 0.0088, -6.35, -11.35)" gradientUnits="userSpaceOnUse" id="gradient79" r="819.2" spreadMethod="pad">
      <stop offset="0.0" stop-color="#353227"/>
      <stop offset="1.0" stop-color="#302d23"/>
    </radialGradient>
    <radialGradient cx="0" cy="0" gradientTransform="matrix(0.0014, 0.0, 0.0, 0.0014, -5.65, -2.75)" gradientUnits="userSpaceOnUse" id="gradient80" r="819.2" spreadMethod="pad">
      <stop offset="0.0" stop-color="#1f0707"/>
      <stop offset="1.0" stop-color="#1f0707"/>
    </radialGradient>
    <radialGradient cx="0" cy="0" gradientTransform="matrix(0.0049, 0.0, 0.0, 0.0049, -4.85, 0.15)" gradientUnits="userSpaceOnUse" id="gradient81" r="819.2" spreadMethod="pad">
      <stop offset="0.0" stop-color="#777057"/>
      <stop offset="1.0" stop-color="#4a4636"/>
    </radialGradient>
    <radialGradient cx="0" cy="0" gradientTransform="matrix(0.006, 0.0, 0.0, 0.006, -2.55, -2.2)" gradientUnits="userSpaceOnUse" id="gradient82" r="819.2" spreadMethod="pad">
      <stop offset="0.0" stop-color="#ff4141"/>
      <stop offset="1.0" stop-color="#b72929"/>
    </radialGradient>
    <radialGradient cx="0" cy="0" gradientTransform="matrix(0.003, 0.0, 0.0, 0.003, -1.6, -5.75)" gradientUnits="userSpaceOnUse" id="gradient83" r="819.2" spreadMethod="pad">
      <stop offset="0.0" stop-color="#ffffff"/>
      <stop offset="1.0" stop-color="#b0b0b0"/>
    </radialGradient>
    <radialGradient cx="0" cy="0" gradientTransform="matrix(0.0042, 0.0, 0.0, 0.0042, 1.35, 1.25)" gradientUnits="userSpaceOnUse" id="gradient84" r="819.2" spreadMethod="pad">
      <stop offset="0.0" stop-color="#1f0707"/>
      <stop offset="1.0" stop-color="#1f0707"/>
    </radialGradient>
  </defs>
</svg>
