<?xml version="1.0" encoding="UTF-8" standalone="no"?>
<svg xmlns:ffdec="https://www.free-decompiler.com/flash" xmlns:xlink="http://www.w3.org/1999/xlink" ffdec:objectType="shape" height="66.0px" width="31.35px" xmlns="http://www.w3.org/2000/svg">
  <g transform="matrix(1.0, 0.0, 0.0, 1.0, 17.85, 56.75)">
    <path d="M-2.45 -52.6 L-1.4 -53.4 -1.75 -51.95 -2.85 -49.5 -3.2 -49.3 -3.95 -48.2 -4.05 -48.25 -4.9 -50.2 -2.45 -52.6 M-6.75 -47.95 L-6.7 -47.35 -6.05 -46.5 -6.85 -46.1 -7.05 -46.45 -6.9 -46.7 -7.1 -47.65 -6.85 -47.95 -6.75 -47.95" fill="url(#gradient0)" fill-rule="evenodd" stroke="none"/>
    <path d="M-1.75 -51.95 L-0.95 -50.9 -0.7 -50.55 -1.05 -49.25 -1.05 -49.05 -0.95 -49.1 -0.3 -50.0 -0.3 -49.5 -0.3 -49.45 -0.3 -49.3 -0.3 -48.8 -0.3 -48.75 -0.3 -48.6 -0.3 -48.3 -0.3 -46.8 Q-0.95 -45.65 -0.9 -46.9 L-1.2 -46.65 -2.8 -45.5 -3.2 -45.25 -3.85 -45.05 -7.35 -45.05 -8.3 -45.6 -7.05 -46.45 -6.85 -46.1 -6.05 -46.5 -4.95 -45.25 -4.8 -45.25 -3.55 -47.15 -3.7 -46.5 -3.25 -46.7 -2.95 -47.1 -2.95 -47.35 -3.55 -47.35 -3.6 -47.4 -3.95 -48.2 -3.2 -49.3 -2.85 -49.5 -1.75 -51.95 M-4.9 -53.45 L-2.45 -52.6 -4.9 -50.2 -6.15 -52.85 -5.85 -53.2 -4.9 -53.45 M-9.85 -46.65 L-9.85 -46.7 -9.85 -46.8 -9.8 -46.8 -9.75 -46.65 -9.85 -46.65 M-6.85 -49.3 L-6.75 -48.0 -6.85 -47.95 -7.1 -47.65 -7.3 -48.3 -6.85 -49.3 M-2.1 -46.95 L-2.35 -46.2 -2.2 -46.25 -2.05 -46.95 -2.1 -46.95 M-4.0 -45.3 L-4.05 -45.55 -4.2 -45.3 -4.0 -45.3" fill="url(#gradient1)" fill-rule="evenodd" stroke="none"/>
    <path d="M-0.95 -50.9 Q1.65 -53.15 -0.15 -50.3 L-0.95 -49.1 -1.05 -49.05 -1.05 -49.25 -0.7 -50.55 -0.95 -50.9 M-3.55 -47.15 L-3.55 -47.35 -2.95 -47.35 -2.95 -47.1 -3.25 -46.7 -3.7 -46.5 -3.55 -47.15 M-2.1 -46.95 L-2.05 -46.95 -2.2 -46.25 -2.35 -46.2 -2.1 -46.95 M-4.0 -45.3 L-4.2 -45.3 -4.05 -45.55 -4.0 -45.3" fill="url(#gradient2)" fill-rule="evenodd" stroke="none"/>
    <path d="M-0.3 -49.5 L-0.05 -49.4 -0.25 -49.45 -0.3 -49.45 -0.3 -49.5" fill="url(#gradient3)" fill-rule="evenodd" stroke="none"/>
    <path d="M-0.05 -49.4 L0.6 -48.9 0.85 -48.4 0.5 -48.55 0.45 -48.6 0.35 -48.9 -0.3 -49.3 -0.3 -49.45 -0.25 -49.45 -0.05 -49.4 M0.7 -48.3 L1.2 -48.0 1.4 -47.4 0.95 -47.8 0.7 -48.3" fill="url(#gradient4)" fill-rule="evenodd" stroke="none"/>
    <path d="M0.85 -48.4 Q2.25 -48.0 3.75 -46.35 L4.85 -44.5 4.7 -44.55 3.9 -46.05 2.3 -47.4 1.2 -48.0 0.7 -48.3 -0.3 -48.6 -0.3 -48.75 0.5 -48.55 0.85 -48.4" fill="url(#gradient5)" fill-rule="evenodd" stroke="none"/>
    <path d="M0.45 -48.6 L0.5 -48.55 -0.3 -48.75 -0.3 -48.8 0.45 -48.6" fill="url(#gradient6)" fill-rule="evenodd" stroke="none"/>
    <path d="M-0.15 -50.3 L-0.3 -50.0 -0.95 -49.1 -0.15 -50.3" fill="url(#gradient7)" fill-rule="evenodd" stroke="none"/>
    <path d="M4.85 -44.5 L5.05 -43.25 4.5 -43.65 Q4.15 -45.65 2.3 -47.4 L3.9 -46.05 4.7 -44.55 4.85 -44.5" fill="url(#gradient8)" fill-rule="evenodd" stroke="none"/>
    <path d="M5.05 -43.25 L6.2 -41.5 Q7.0 -40.0 7.25 -38.45 4.0 -41.3 1.2 -37.55 -1.7 -41.0 -4.2 -40.15 L-4.55 -41.25 -3.55 -41.85 -1.95 -41.9 -1.15 -42.35 Q2.35 -44.4 2.05 -46.05 L2.1 -46.05 Q2.2 -45.45 2.75 -45.05 L4.5 -43.65 5.05 -43.25 M-6.0 -32.3 L-6.45 -35.75 -5.95 -35.7 Q-5.6 -31.95 -2.05 -30.3 L-0.75 -30.0 0.6 -30.2 0.75 -30.0 -0.05 -28.8 -1.1 -26.4 -2.75 -26.7 Q-3.85 -27.15 -4.35 -27.95 L-4.75 -27.9 -4.7 -29.65 Q-5.7 -28.9 -5.75 -30.3 L-6.0 -32.3 M1.4 -47.4 L1.65 -46.95 0.2 -48.1 0.95 -47.8 1.4 -47.4" fill="url(#gradient9)" fill-rule="evenodd" stroke="none"/>
    <path d="M1.65 -46.95 L2.05 -46.05 Q2.35 -44.4 -1.15 -42.35 L-1.95 -41.9 -3.55 -41.85 -1.95 -43.6 -1.65 -44.3 -0.65 -45.35 -0.3 -46.55 -0.3 -46.8 -0.3 -48.3 0.2 -48.1 1.65 -46.95" fill="url(#gradient10)" fill-rule="evenodd" stroke="none"/>
    <path d="M-10.15 -46.9 L-10.2 -48.2 -10.15 -48.2 -9.85 -46.85 -9.85 -46.8 -9.85 -46.7 -10.15 -46.9 M-1.2 -46.65 L-1.9 -45.95 -2.8 -45.5 -1.2 -46.65 M-3.85 -45.05 Q-6.85 -44.25 -8.85 -45.7 L-8.3 -45.6 -7.35 -45.05 -3.85 -45.05 M-8.9 -45.75 L-9.85 -46.65 -9.75 -46.65 -8.9 -45.75" fill="url(#gradient11)" fill-rule="evenodd" stroke="none"/>
    <path d="M-8.65 -44.0 Q-9.35 -44.25 -9.85 -45.25 L-10.15 -46.9 -9.85 -46.7 -9.85 -46.65 -8.9 -45.75 -8.85 -45.7 Q-6.85 -44.25 -3.85 -45.05 L-3.2 -45.25 -2.8 -45.5 -1.9 -45.95 -1.2 -46.65 -0.9 -46.9 Q-0.95 -45.65 -0.3 -46.8 L-0.3 -46.55 -0.65 -45.35 -1.65 -44.3 Q-3.9 -42.25 -8.65 -44.0" fill="url(#gradient12)" fill-rule="evenodd" stroke="none"/>
    <path d="M-8.5 -43.6 L-8.65 -44.0 Q-3.9 -42.25 -1.65 -44.3 L-1.95 -43.6 -3.55 -41.85 -4.55 -41.25 Q-6.35 -40.7 -7.6 -42.35 L-8.5 -43.6" fill="url(#gradient13)" fill-rule="evenodd" stroke="none"/>
    <path d="M7.25 -38.45 Q10.05 -36.1 7.15 -30.0 6.6 -29.35 5.8 -29.05 L3.95 -28.75 0.75 -30.0 0.6 -30.2 0.55 -30.3 Q-1.1 -33.15 1.2 -37.55 4.0 -41.3 7.25 -38.45" fill="url(#gradient14)" fill-rule="evenodd" stroke="none"/>
    <path d="M-4.2 -40.15 Q-1.7 -41.0 1.2 -37.55 -1.1 -33.15 0.55 -30.3 L0.6 -30.2 -0.75 -30.0 -2.05 -30.3 Q-5.6 -31.95 -5.95 -35.7 -6.4 -38.1 -4.2 -40.15" fill="url(#gradient15)" fill-rule="evenodd" stroke="none"/>
    <path d="M0.75 -30.0 L3.95 -28.75 Q0.85 -22.75 3.35 -21.7 L3.2 -21.45 3.0 -21.5 Q-1.05 -19.8 -1.2 -21.9 L-1.3 -22.4 -1.5 -23.55 -1.45 -24.8 -1.1 -26.4 -0.05 -28.8 0.75 -30.0" fill="url(#gradient16)" fill-rule="evenodd" stroke="none"/>
    <path d="M-6.25 -31.9 L-6.0 -32.3 -5.75 -30.3 Q-5.7 -28.9 -4.7 -29.65 L-4.75 -27.9 -4.35 -27.95 Q-3.85 -27.15 -2.75 -26.7 L-1.1 -26.4 -1.45 -24.8 Q-2.15 -24.4 -5.95 -25.9 -7.65 -28.35 -7.0 -30.3 L-6.25 -31.9" fill="url(#gradient17)" fill-rule="evenodd" stroke="none"/>
    <path d="M7.15 -30.0 Q8.7 -26.1 5.1 -22.6 L5.0 -22.5 3.35 -21.7 Q0.85 -22.75 3.95 -28.75 L5.8 -29.05 Q6.6 -29.35 7.15 -30.0" fill="url(#gradient18)" fill-rule="evenodd" stroke="none"/>
    <path d="M6.85 -18.15 L7.65 -16.6 8.25 -14.4 8.85 -11.8 Q9.15 -10.9 8.4 -9.15 7.65 -9.9 7.25 -13.35 L5.6 -13.7 Q7.25 -15.2 6.85 -18.15 M0.35 -4.6 L0.25 -4.6 0.2 -4.7 0.15 -4.7 -0.3 -5.05 -1.7 -6.2 -2.1 -6.45 -2.75 -6.95 -2.95 -7.5 -3.2 -9.15 -3.3 -10.0 Q-2.7 -10.55 -2.45 -11.55 L-2.45 -12.35 -2.15 -12.65 -1.8 -12.3 -1.15 -12.05 -0.75 -12.35 -0.3 -12.35 0.35 -12.0 1.0 -12.2 1.35 -12.6 2.65 -12.35 3.35 -13.2 4.25 -12.85 5.2 -13.4 4.5 -10.7 Q5.95 -8.25 5.4 -6.2 4.4 -3.15 0.35 -4.6" fill="url(#gradient19)" fill-rule="evenodd" stroke="none"/>
    <path d="M8.25 -14.4 L9.35 -13.2 9.85 -11.2 9.8 -10.65 9.75 -9.9 Q9.85 -9.4 9.0 -7.0 L8.0 -6.2 7.7 -5.9 6.95 -5.3 6.05 -4.55 5.9 -4.5 Q3.75 -3.45 1.55 -3.8 L0.35 -4.6 Q4.4 -3.15 5.4 -6.2 5.95 -8.25 4.5 -10.7 L5.2 -13.4 5.3 -13.75 5.6 -13.7 7.25 -13.35 Q7.65 -9.9 8.4 -9.15 9.15 -10.9 8.85 -11.8 L8.25 -14.4" fill="url(#gradient20)" fill-rule="evenodd" stroke="none"/>
    <path d="M5.1 -22.6 L5.1 -22.2 4.8 -21.95 5.0 -22.5 5.1 -22.6" fill="url(#gradient21)" fill-rule="evenodd" stroke="none"/>
    <path d="M-1.2 -21.9 Q-1.05 -19.8 3.0 -21.5 L3.65 -20.9 3.85 -20.7 3.8 -19.95 2.9 -17.55 0.85 -15.3 -1.0 -13.85 -2.15 -12.65 -2.45 -12.35 -3.6 -12.95 Q-4.1 -13.25 -4.25 -14.3 L-4.05 -15.25 -3.25 -16.8 -2.7 -18.25 Q-2.25 -21.5 -1.2 -21.9" fill="url(#gradient22)" fill-rule="evenodd" stroke="none"/>
    <path d="M3.2 -21.45 L3.35 -21.7 5.0 -22.5 4.8 -21.95 3.85 -20.7 3.65 -20.9 3.2 -21.45" fill="url(#gradient23)" fill-rule="evenodd" stroke="none"/>
    <path d="M3.0 -21.5 L3.2 -21.45 3.65 -20.9 3.0 -21.5" fill="url(#gradient24)" fill-rule="evenodd" stroke="none"/>
    <path d="M5.1 -22.2 L5.45 -21.85 6.55 -19.4 6.85 -18.15 Q7.25 -15.2 5.6 -13.7 L5.3 -13.75 5.2 -13.4 4.25 -12.85 3.35 -13.2 2.65 -12.35 1.35 -12.6 1.0 -12.2 0.35 -12.0 -0.3 -12.35 -0.75 -12.35 -1.15 -12.05 -1.8 -12.3 -2.15 -12.65 -1.0 -13.85 0.85 -15.3 2.1 -16.25 Q3.25 -17.65 3.3 -18.25 L3.8 -19.4 3.8 -19.95 3.85 -20.7 4.8 -21.95 5.1 -22.2 M-1.3 -22.4 L-1.2 -21.9 Q-2.25 -21.5 -2.7 -18.25 L-3.25 -16.8 -4.05 -15.25 -4.3 -15.35 -4.3 -15.45 -4.75 -16.8 -4.95 -18.25 Q-5.25 -18.9 -5.2 -21.85 L-5.05 -23.05 Q-5.1 -22.75 -2.8 -22.35 L-1.3 -22.4" fill="url(#gradient25)" fill-rule="evenodd" stroke="none"/>
    <path d="M3.8 -19.95 L3.8 -19.4 3.3 -18.25 Q3.25 -17.65 2.1 -16.25 L0.85 -15.3 2.9 -17.55 3.8 -19.95" fill="url(#gradient26)" fill-rule="evenodd" stroke="none"/>
    <path d="M-8.15 -29.35 L-7.0 -31.2 -6.25 -31.9 -7.0 -30.3 Q-7.65 -28.35 -5.95 -25.9 -2.15 -24.4 -1.45 -24.8 L-1.5 -23.55 -1.3 -22.4 -2.8 -22.35 Q-5.1 -22.75 -5.05 -23.05 L-5.4 -23.5 -5.9 -23.5 -5.85 -23.9 Q-6.15 -24.95 -6.55 -25.2 L-7.3 -25.55 Q-8.35 -26.2 -8.15 -29.35" fill="url(#gradient27)" fill-rule="evenodd" stroke="none"/>
    <path d="M7.7 -5.9 L8.0 -6.2 9.0 -7.0 Q9.85 -9.4 9.75 -9.9 11.25 -8.35 8.65 -6.2 L8.35 -6.0 7.7 -5.9" fill="url(#gradient28)" fill-rule="evenodd" stroke="none"/>
    <path d="M9.8 -10.65 L10.45 -10.3 10.95 -9.8 11.5 -8.85 11.65 -7.55 Q11.4 -6.1 11.2 -6.2 10.55 -4.85 9.0 -4.8 L7.65 -4.9 6.95 -5.3 7.7 -5.9 8.35 -6.0 8.65 -6.2 Q11.25 -8.35 9.75 -9.9 L9.8 -10.65" fill="url(#gradient29)" fill-rule="evenodd" stroke="none"/>
    <path d="M10.9 -1.1 Q8.4 2.5 4.85 0.85 2.45 -0.85 5.9 -4.5 L6.05 -4.55 6.2 -4.35 6.15 -4.1 6.85 -3.45 9.0 -2.0 10.9 -1.1" fill="url(#gradient30)" fill-rule="evenodd" stroke="none"/>
    <path d="M12.65 -4.1 L11.8 -2.1 Q11.15 -0.75 10.9 -1.1 L9.0 -2.0 6.85 -3.45 6.15 -4.1 6.2 -4.35 6.05 -4.55 6.95 -5.3 7.65 -4.9 9.0 -4.8 Q11.95 -4.6 12.1 -5.2 L12.3 -4.45 12.65 -4.1" fill="url(#gradient31)" fill-rule="evenodd" stroke="none"/>
    <path d="M-0.3 -5.05 L-1.4 -5.75 -2.1 -6.45 -1.7 -6.2 -0.3 -5.05" fill="url(#gradient32)" fill-rule="evenodd" stroke="none"/>
    <path d="M10.95 -9.8 Q15.0 -9.9 12.65 -4.1 L12.3 -4.45 12.1 -5.2 12.55 -6.2 Q12.5 -8.1 11.5 -8.85 L10.95 -9.8" fill="url(#gradient33)" fill-rule="evenodd" stroke="none"/>
    <path d="M9.0 -4.8 Q10.55 -4.85 11.2 -6.2 11.4 -6.1 11.65 -7.55 L11.5 -8.85 Q12.5 -8.1 12.55 -6.2 L12.1 -5.2 Q11.95 -4.6 9.0 -4.8" fill="url(#gradient34)" fill-rule="evenodd" stroke="none"/>
    <path d="M-6.05 -55.75 L-5.4 -56.55 -5.35 -56.45 -6.0 -53.75 -6.0 -53.55 -6.5 -53.4 -6.5 -53.8 -6.4 -54.4 -6.35 -55.4 -6.05 -55.75" fill="url(#gradient35)" fill-rule="evenodd" stroke="none"/>
    <path d="M-7.05 -56.35 L-6.85 -56.4 -6.7 -55.6 -6.5 -53.8 -6.5 -53.4 -6.55 -53.4 -6.7 -53.5 -6.85 -52.95 -6.85 -49.3 -7.3 -48.3 -7.35 -48.5 -7.05 -56.35" fill="url(#gradient36)" fill-rule="evenodd" stroke="none"/>
    <path d="M-6.85 -56.4 L-6.55 -56.7 -6.7 -55.6 -6.85 -56.4" fill="url(#gradient37)" fill-rule="evenodd" stroke="none"/>
    <path d="M-6.55 -56.7 L-6.4 -56.75 -6.35 -55.45 -6.35 -55.4 -6.4 -54.4 -6.5 -53.8 -6.7 -55.6 -6.55 -56.7 M-6.5 -53.35 L-6.55 -53.4 -6.5 -53.4 -6.5 -53.35" fill="url(#gradient38)" fill-rule="evenodd" stroke="none"/>
    <path d="M-6.35 -55.45 L-6.05 -55.75 -6.35 -55.4 -6.35 -55.45" fill="url(#gradient39)" fill-rule="evenodd" stroke="none"/>
    <path d="M-10.0 -52.45 L-9.9 -54.8 -9.7 -55.55 -9.3 -51.6 -10.0 -52.45" fill="url(#gradient40)" fill-rule="evenodd" stroke="none"/>
    <path d="M-9.7 -55.55 L-9.65 -55.75 -9.5 -55.65 -9.25 -55.2 -8.4 -52.55 -8.65 -50.75 -9.3 -51.6 -9.7 -55.55" fill="url(#gradient41)" fill-rule="evenodd" stroke="none"/>
    <path d="M-8.4 -52.55 L-7.75 -54.95 -7.3 -56.05 -7.05 -56.35 -7.35 -48.5 -7.8 -49.8 -8.65 -50.75 -8.4 -52.55" fill="url(#gradient42)" fill-rule="evenodd" stroke="none"/>
    <path d="M-11.0 -53.25 L-10.55 -53.1 -10.0 -52.45 -9.3 -51.6 -8.65 -50.75 -7.8 -49.8 -7.35 -48.5 -7.3 -48.3 -7.1 -47.65 -6.9 -46.7 -8.05 -46.6 Q-8.1 -47.45 -11.0 -53.25" fill="url(#gradient43)" fill-rule="evenodd" stroke="none"/>
    <path d="M-10.15 -48.25 L-11.05 -52.1 -11.0 -53.25 Q-8.1 -47.45 -8.05 -46.6 L-6.9 -46.7 -7.05 -46.45 -8.3 -45.6 -8.85 -45.7 -8.9 -45.75 -9.75 -46.65 -9.8 -46.8 -9.85 -46.85 -10.15 -48.2 -10.15 -48.25" fill="url(#gradient44)" fill-rule="evenodd" stroke="none"/>
    <path d="M-6.0 -53.75 L-4.4 -54.6 -4.6 -54.4 -6.25 -53.05 -6.5 -53.35 -6.5 -53.4 -6.0 -53.55 -6.0 -53.75" fill="url(#gradient45)" fill-rule="evenodd" stroke="none"/>
    <path d="M-4.9 -50.2 L-4.05 -48.25 -3.9 -47.5 -3.6 -47.4 -3.55 -47.35 -3.55 -47.15 -4.8 -45.25 -4.95 -45.25 -6.05 -46.5 -6.7 -47.35 -6.75 -47.95 -6.75 -48.0 -6.85 -49.3 -6.85 -52.95 -6.7 -53.5 -6.55 -53.4 -6.5 -53.35 -6.25 -53.05 -6.15 -52.85 -4.9 -50.2" fill="url(#gradient46)" fill-rule="evenodd" stroke="none"/>
    <path d="M-4.4 -54.6 L-4.2 -54.7 -4.3 -54.35 -4.9 -53.45 -5.85 -53.2 -6.15 -52.85 -6.25 -53.05 -4.6 -54.4 -4.4 -54.6" fill="url(#gradient47)" fill-rule="evenodd" stroke="none"/>
    <path d="M-4.05 -48.25 L-3.95 -48.2 -3.6 -47.4 -3.9 -47.5 -4.05 -48.25" fill="url(#gradient48)" fill-rule="evenodd" stroke="none"/>
    <path d="M-6.75 -48.0 L-6.75 -47.95 -6.85 -47.95 -6.75 -48.0" fill="url(#gradient49)" fill-rule="evenodd" stroke="none"/>
    <path d="M-10.2 -48.2 L-10.15 -48.25 -10.15 -48.2 -10.2 -48.2 M-9.8 -46.8 L-9.85 -46.8 -9.85 -46.85 -9.8 -46.8" fill="url(#gradient50)" fill-rule="evenodd" stroke="none"/>
    <path d="M-6.45 -35.75 Q-9.9 -37.35 -8.5 -43.6 L-7.6 -42.35 Q-6.35 -40.7 -4.55 -41.25 L-4.2 -40.15 Q-6.4 -38.1 -5.95 -35.7 L-6.45 -35.75" fill="url(#gradient51)" fill-rule="evenodd" stroke="none"/>
    <path d="M-12.7 -21.0 Q-12.7 -25.0 -8.15 -29.35 -8.35 -26.2 -7.3 -25.55 -10.45 -24.75 -11.45 -20.9 L-11.8 -19.45 -11.8 -18.25 -11.7 -17.95 -12.0 -18.25 Q-12.5 -20.15 -12.7 -19.8 L-12.7 -21.0 M-6.85 -24.05 L-6.6 -15.45 Q-8.65 -15.25 -10.65 -17.0 L-10.5 -18.25 Q-10.0 -21.85 -6.85 -24.05 M-4.95 -15.5 L-5.9 -21.05 -5.9 -23.5 -5.4 -23.5 -5.05 -23.05 -5.2 -21.85 Q-5.25 -18.9 -4.95 -18.25 L-4.75 -16.8 -4.3 -15.45 -4.4 -15.4 -4.95 -15.5" fill="url(#gradient52)" fill-rule="evenodd" stroke="none"/>
    <path d="M-6.55 -25.2 L-6.65 -24.15 -6.85 -24.05 Q-10.0 -21.85 -10.5 -18.25 L-10.65 -17.0 Q-10.6 -15.0 -11.7 -17.95 L-11.8 -18.25 -11.8 -19.45 -11.45 -20.45 -11.45 -20.9 Q-10.45 -24.75 -7.3 -25.55 L-6.55 -25.2" fill="url(#gradient53)" fill-rule="evenodd" stroke="none"/>
    <path d="M-6.85 -24.05 L-6.65 -24.15 -6.55 -25.2 Q-6.15 -24.95 -5.85 -23.9 L-5.9 -23.5 -5.9 -21.05 -4.95 -15.5 -5.65 -15.5 -6.55 -15.25 -6.6 -15.45 -6.85 -24.05" fill="url(#gradient54)" fill-rule="evenodd" stroke="none"/>
    <path d="M-11.45 -20.9 L-11.45 -20.45 -11.8 -19.45 -11.45 -20.9" fill="url(#gradient55)" fill-rule="evenodd" stroke="none"/>
    <path d="M-14.5 -11.5 L-14.5 -12.35 -14.4 -12.55 -14.4 -12.6 -13.5 -18.9 -12.7 -21.0 -12.7 -19.8 Q-12.5 -20.15 -12.0 -18.25 L-11.7 -17.95 Q-10.6 -15.0 -10.65 -17.0 -8.65 -15.25 -6.6 -15.45 L-6.55 -15.25 Q-8.75 -14.35 -8.3 -12.6 -8.15 -7.85 -3.3 -10.0 L-3.2 -9.15 Q-10.3 -4.05 -14.5 -11.15 L-14.5 -11.2 -14.5 -11.5 M-4.3 -15.45 L-4.3 -15.35 -4.4 -15.4 -4.3 -15.45" fill="url(#gradient56)" fill-rule="evenodd" stroke="none"/>
    <path d="M-6.55 -15.25 L-5.65 -15.5 -4.95 -15.5 -4.4 -15.4 -4.3 -15.35 -4.05 -15.25 -4.25 -14.3 Q-6.2 -15.2 -8.3 -12.6 -8.75 -14.35 -6.55 -15.25" fill="url(#gradient57)" fill-rule="evenodd" stroke="none"/>
    <path d="M-2.45 -12.35 L-2.45 -11.55 Q-2.7 -10.55 -3.3 -10.0 -8.15 -7.85 -8.3 -12.6 -6.2 -15.2 -4.25 -14.3 -4.1 -13.25 -3.6 -12.95 L-2.45 -12.35" fill="url(#gradient58)" fill-rule="evenodd" stroke="none"/>
    <path d="M-14.6 -11.2 L-14.5 -11.5 -14.5 -11.2 -14.6 -11.2 M-14.5 -12.35 L-14.45 -12.55 -14.4 -12.55 -14.5 -12.35" fill="url(#gradient59)" fill-rule="evenodd" stroke="none"/>
    <path d="M-14.6 -11.15 L-14.6 -11.2 -14.5 -11.2 -14.5 -11.15 -14.6 -11.15 M-14.45 -12.55 L-14.4 -12.6 -14.4 -12.55 -14.45 -12.55" fill="url(#gradient60)" fill-rule="evenodd" stroke="none"/>
    <path d="M-2.95 -7.5 L-3.9 -6.15 -5.95 -5.75 -8.7 -5.3 -9.95 -5.5 -11.35 -5.95 Q-13.7 -5.3 -14.6 -11.15 L-14.5 -11.15 Q-10.3 -4.05 -3.2 -9.15 L-2.95 -7.5" fill="url(#gradient61)" fill-rule="evenodd" stroke="none"/>
    <path d="M-7.6 1.35 L-7.6 1.4 -8.05 3.3 Q-8.6 4.15 -9.15 3.95 L-9.65 3.35 Q-12.2 2.6 -12.8 0.8 L-12.75 0.6 Q-11.3 3.15 -7.6 1.35" fill="url(#gradient62)" fill-rule="evenodd" stroke="none"/>
    <path d="M-5.95 -5.75 L-6.85 -4.2 -7.7 -3.45 Q-9.75 -3.45 -9.95 -5.5 L-8.7 -5.3 -5.95 -5.75" fill="url(#gradient63)" fill-rule="evenodd" stroke="none"/>
    <path d="M-7.7 -3.45 L-7.75 -2.9 -8.1 -2.15 Q-8.9 -1.5 -9.65 -1.5 L-10.85 -1.6 Q-11.9 -2.2 -11.55 -2.85 L-11.45 -3.35 -11.35 -5.95 -9.95 -5.5 Q-9.75 -3.45 -7.7 -3.45" fill="url(#gradient64)" fill-rule="evenodd" stroke="none"/>
    <path d="M-7.75 -2.9 L-7.65 -2.8 -7.6 -1.55 -9.05 -0.3 -9.75 -0.25 Q-13.25 -0.9 -11.55 -2.85 -11.9 -2.2 -10.85 -1.6 L-9.65 -1.5 Q-8.9 -1.5 -8.1 -2.15 L-7.75 -2.9" fill="url(#gradient65)" fill-rule="evenodd" stroke="none"/>
    <path d="M-7.65 -2.8 Q-6.05 -1.75 -7.6 1.35 -11.3 3.15 -12.75 0.6 -13.55 -2.5 -11.45 -3.35 L-11.55 -2.85 Q-13.25 -0.9 -9.75 -0.25 L-9.05 -0.3 -7.6 -1.55 -7.65 -2.8" fill="url(#gradient66)" fill-rule="evenodd" stroke="none"/>
    <path d="M-9.7 6.0 L-10.3 6.8 -11.8 8.2 -12.1 6.85 -12.65 5.8 Q-14.65 2.9 -15.5 3.0 L-15.6 3.0 -15.65 2.95 -12.8 0.8 Q-12.2 2.6 -9.65 3.35 L-9.15 3.95 -9.7 5.8 -9.7 6.0" fill="url(#gradient67)" fill-rule="evenodd" stroke="none"/>
    <path d="M-7.6 1.4 Q-6.55 4.6 -9.7 6.0 L-9.7 5.8 -9.15 3.95 Q-8.6 4.15 -8.05 3.3 L-7.6 1.4" fill="url(#gradient68)" fill-rule="evenodd" stroke="none"/>
    <path d="M-11.8 8.2 Q-14.9 10.15 -17.2 8.45 -18.95 5.95 -15.95 3.35 L-15.5 3.0 Q-14.65 2.9 -12.65 5.8 L-12.1 6.85 -11.8 8.2" fill="url(#gradient69)" fill-rule="evenodd" stroke="none"/>
    <path d="M-15.95 3.35 L-15.65 2.95 -15.6 3.0 -15.5 3.0 -15.95 3.35" fill="url(#gradient70)" fill-rule="evenodd" stroke="none"/>
  </g>
  <defs>
    <radialGradient cx="0" cy="0" gradientTransform="matrix(0.006, 0.0, 0.0, 0.006, -4.65, -50.5)" gradientUnits="userSpaceOnUse" id="gradient0" r="819.2" spreadMethod="pad">
      <stop offset="0.0" stop-color="#ef3535"/>
      <stop offset="1.0" stop-color="#8b1f1f"/>
    </radialGradient>
    <radialGradient cx="0" cy="0" gradientTransform="matrix(0.0076, 0.0, 0.0, 0.0076, -5.75, -47.4)" gradientUnits="userSpaceOnUse" id="gradient1" r="819.2" spreadMethod="pad">
      <stop offset="0.0" stop-color="#e93434"/>
      <stop offset="1.0" stop-color="#871e1e"/>
    </radialGradient>
    <radialGradient cx="0" cy="0" gradientTransform="matrix(0.0073, 0.0, 0.0, 0.0073, -3.5, -47.5)" gradientUnits="userSpaceOnUse" id="gradient2" r="819.2" spreadMethod="pad">
      <stop offset="0.0" stop-color="#de3131"/>
      <stop offset="1.0" stop-color="#bb2929"/>
    </radialGradient>
    <radialGradient cx="0" cy="0" gradientTransform="matrix(7.0E-4, 0.0, 0.0, 7.0E-4, -0.75, -49.6)" gradientUnits="userSpaceOnUse" id="gradient3" r="819.2" spreadMethod="pad">
      <stop offset="0.0" stop-color="#616161"/>
      <stop offset="1.0" stop-color="#5a5a5a"/>
    </radialGradient>
    <radialGradient cx="0" cy="0" gradientTransform="matrix(0.0049, 0.0, 0.0, 0.0049, -0.15, -49.5)" gradientUnits="userSpaceOnUse" id="gradient4" r="819.2" spreadMethod="pad">
      <stop offset="0.0" stop-color="#5a5a5a"/>
      <stop offset="1.0" stop-color="#202020"/>
    </radialGradient>
    <radialGradient cx="0" cy="0" gradientTransform="matrix(0.0047, 0.0, 0.0, 0.0047, 2.35, -47.5)" gradientUnits="userSpaceOnUse" id="gradient5" r="819.2" spreadMethod="pad">
      <stop offset="0.0" stop-color="#949494"/>
      <stop offset="1.0" stop-color="#878787"/>
    </radialGradient>
    <radialGradient cx="0" cy="0" gradientTransform="matrix(0.0024, 0.0, 0.0, 0.0024, 0.1, -48.85)" gradientUnits="userSpaceOnUse" id="gradient6" r="819.2" spreadMethod="pad">
      <stop offset="0.0" stop-color="#626262"/>
      <stop offset="1.0" stop-color="#5b5b5b"/>
    </radialGradient>
    <radialGradient cx="0" cy="0" gradientTransform="matrix(0.0061, 0.0, 0.0, 0.0061, -2.1, -47.25)" gradientUnits="userSpaceOnUse" id="gradient7" r="819.2" spreadMethod="pad">
      <stop offset="0.0" stop-color="#9a2222"/>
      <stop offset="1.0" stop-color="#671717"/>
    </radialGradient>
    <radialGradient cx="0" cy="0" gradientTransform="matrix(0.0057, 0.0, 0.0, 0.0057, 4.75, -44.6)" gradientUnits="userSpaceOnUse" id="gradient8" r="819.2" spreadMethod="pad">
      <stop offset="0.0" stop-color="#8e8e8e"/>
      <stop offset="1.0" stop-color="#202020"/>
    </radialGradient>
    <radialGradient cx="0" cy="0" gradientTransform="matrix(0.0177, 0.0, 0.0, 0.0177, 1.3, -40.15)" gradientUnits="userSpaceOnUse" id="gradient9" r="819.2" spreadMethod="pad">
      <stop offset="0.0" stop-color="#ffd87d"/>
      <stop offset="1.0" stop-color="#bd854e"/>
    </radialGradient>
    <radialGradient cx="0" cy="0" gradientTransform="matrix(0.0047, 0.0, 0.0, 0.0047, -1.65, -45.2)" gradientUnits="userSpaceOnUse" id="gradient10" r="819.2" spreadMethod="pad">
      <stop offset="0.0" stop-color="#ffd47b"/>
      <stop offset="1.0" stop-color="#ba844d"/>
    </radialGradient>
    <radialGradient cx="0" cy="0" gradientTransform="matrix(0.0075, 0.0, 0.0, 0.0075, -6.75, -44.95)" gradientUnits="userSpaceOnUse" id="gradient11" r="819.2" spreadMethod="pad">
      <stop offset="0.0" stop-color="#c4c4c4"/>
      <stop offset="1.0" stop-color="#c2c2c2"/>
    </radialGradient>
    <radialGradient cx="0" cy="0" gradientTransform="matrix(0.0071, 0.0, 0.0, 0.0071, -4.95, -44.6)" gradientUnits="userSpaceOnUse" id="gradient12" r="819.2" spreadMethod="pad">
      <stop offset="0.0" stop-color="#b9b9b9"/>
      <stop offset="1.0" stop-color="#a7a7a7"/>
    </radialGradient>
    <radialGradient cx="0" cy="0" gradientTransform="matrix(0.0049, 0.0, 0.0, 0.0049, -5.4, -43.65)" gradientUnits="userSpaceOnUse" id="gradient13" r="819.2" spreadMethod="pad">
      <stop offset="0.0" stop-color="#c68c51"/>
      <stop offset="1.0" stop-color="#93683c"/>
    </radialGradient>
    <radialGradient cx="0" cy="0" gradientTransform="matrix(0.0087, 0.0, 0.0, 0.0087, 4.4, -35.6)" gradientUnits="userSpaceOnUse" id="gradient14" r="819.2" spreadMethod="pad">
      <stop offset="0.0" stop-color="#ffd77d"/>
      <stop offset="1.0" stop-color="#b5804b"/>
    </radialGradient>
    <radialGradient cx="0" cy="0" gradientTransform="matrix(0.0087, 0.0, 0.0, 0.0087, 0.65, -36.95)" gradientUnits="userSpaceOnUse" id="gradient15" r="819.2" spreadMethod="pad">
      <stop offset="0.0" stop-color="#ffd97e"/>
      <stop offset="1.0" stop-color="#a77645"/>
    </radialGradient>
    <radialGradient cx="0" cy="0" gradientTransform="matrix(0.012, 0.0, 0.0, 0.012, 3.0, -29.9)" gradientUnits="userSpaceOnUse" id="gradient16" r="819.2" spreadMethod="pad">
      <stop offset="0.0" stop-color="#ffd97f"/>
      <stop offset="1.0" stop-color="#a27142"/>
    </radialGradient>
    <radialGradient cx="0" cy="0" gradientTransform="matrix(0.0095, 0.0, 0.0, 0.0095, -1.55, -26.25)" gradientUnits="userSpaceOnUse" id="gradient17" r="819.2" spreadMethod="pad">
      <stop offset="0.0" stop-color="#ffffff"/>
      <stop offset="1.0" stop-color="#aeaeae"/>
    </radialGradient>
    <radialGradient cx="0" cy="0" gradientTransform="matrix(0.0085, 0.0, 0.0, 0.0085, 3.65, -28.55)" gradientUnits="userSpaceOnUse" id="gradient18" r="819.2" spreadMethod="pad">
      <stop offset="0.0" stop-color="#ffda7f"/>
      <stop offset="1.0" stop-color="#996c3f"/>
    </radialGradient>
    <radialGradient cx="0" cy="0" gradientTransform="matrix(0.0152, 0.0, 0.0, 0.0152, 4.2, -16.15)" gradientUnits="userSpaceOnUse" id="gradient19" r="819.2" spreadMethod="pad">
      <stop offset="0.0" stop-color="#726868"/>
      <stop offset="1.0" stop-color="#393434"/>
    </radialGradient>
    <radialGradient cx="0" cy="0" gradientTransform="matrix(0.013, 0.0, 0.0, 0.013, 5.25, -13.9)" gradientUnits="userSpaceOnUse" id="gradient20" r="819.2" spreadMethod="pad">
      <stop offset="0.0" stop-color="#3e3a2d"/>
      <stop offset="1.0" stop-color="#28261d"/>
    </radialGradient>
    <radialGradient cx="0" cy="0" gradientTransform="matrix(0.002, 0.0, 0.0, 0.002, 4.55, -22.35)" gradientUnits="userSpaceOnUse" id="gradient21" r="819.2" spreadMethod="pad">
      <stop offset="0.0" stop-color="#605858"/>
      <stop offset="1.0" stop-color="#4d4646"/>
    </radialGradient>
    <radialGradient cx="0" cy="0" gradientTransform="matrix(0.0139, 0.0, 0.0, 0.0139, 2.45, -22.05)" gradientUnits="userSpaceOnUse" id="gradient22" r="819.2" spreadMethod="pad">
      <stop offset="0.0" stop-color="#68614b"/>
      <stop offset="1.0" stop-color="#343025"/>
    </radialGradient>
    <radialGradient cx="0" cy="0" gradientTransform="matrix(0.0027, 0.0, 0.0, 0.0027, 3.1, -21.8)" gradientUnits="userSpaceOnUse" id="gradient23" r="819.2" spreadMethod="pad">
      <stop offset="0.0" stop-color="#fdb268"/>
      <stop offset="1.0" stop-color="#ad7a47"/>
    </radialGradient>
    <radialGradient cx="0" cy="0" gradientTransform="matrix(0.0018, 0.0, 0.0, 0.0018, 2.75, -21.75)" gradientUnits="userSpaceOnUse" id="gradient24" r="819.2" spreadMethod="pad">
      <stop offset="0.0" stop-color="#373328"/>
      <stop offset="1.0" stop-color="#333025"/>
    </radialGradient>
    <radialGradient cx="0" cy="0" gradientTransform="matrix(0.015, 0.0, 0.0, 0.015, -1.4, -22.4)" gradientUnits="userSpaceOnUse" id="gradient25" r="819.2" spreadMethod="pad">
      <stop offset="0.0" stop-color="#998c8c"/>
      <stop offset="1.0" stop-color="#524b4b"/>
    </radialGradient>
    <radialGradient cx="0" cy="0" gradientTransform="matrix(0.006, 0.0, 0.0, 0.006, 1.9, -16.25)" gradientUnits="userSpaceOnUse" id="gradient26" r="819.2" spreadMethod="pad">
      <stop offset="0.0" stop-color="#403c2f"/>
      <stop offset="1.0" stop-color="#333025"/>
    </radialGradient>
    <radialGradient cx="0" cy="0" gradientTransform="matrix(0.0129, 0.0, 0.0, 0.0129, -0.9, -32.5)" gradientUnits="userSpaceOnUse" id="gradient27" r="819.2" spreadMethod="pad">
      <stop offset="0.0" stop-color="#6b644d"/>
      <stop offset="1.0" stop-color="#403c2e"/>
    </radialGradient>
    <radialGradient cx="0" cy="0" gradientTransform="matrix(0.0037, 0.0, 0.0, 0.0037, 9.0, -8.55)" gradientUnits="userSpaceOnUse" id="gradient28" r="819.2" spreadMethod="pad">
      <stop offset="0.0" stop-color="#ffffff"/>
      <stop offset="1.0" stop-color="#8b8b8b"/>
    </radialGradient>
    <radialGradient cx="0" cy="0" gradientTransform="matrix(0.0054, 0.0, 0.0, 0.0054, 10.15, -8.1)" gradientUnits="userSpaceOnUse" id="gradient29" r="819.2" spreadMethod="pad">
      <stop offset="0.0" stop-color="#756e55"/>
      <stop offset="1.0" stop-color="#393529"/>
    </radialGradient>
    <radialGradient cx="0" cy="0" gradientTransform="matrix(0.005, 0.0, 0.0, 0.005, 6.85, -1.3)" gradientUnits="userSpaceOnUse" id="gradient30" r="819.2" spreadMethod="pad">
      <stop offset="0.0" stop-color="#766f56"/>
      <stop offset="1.0" stop-color="#484334"/>
    </radialGradient>
    <radialGradient cx="0" cy="0" gradientTransform="matrix(0.0063, 0.0, 0.0, 0.0063, 7.9, -2.85)" gradientUnits="userSpaceOnUse" id="gradient31" r="819.2" spreadMethod="pad">
      <stop offset="0.0" stop-color="#ff4141"/>
      <stop offset="1.0" stop-color="#c32b2b"/>
    </radialGradient>
    <radialGradient cx="0" cy="0" gradientTransform="matrix(0.0063, 0.0, 0.0, 0.0063, -2.6, -6.95)" gradientUnits="userSpaceOnUse" id="gradient32" r="819.2" spreadMethod="pad">
      <stop offset="0.0" stop-color="#1a1913"/>
      <stop offset="1.0" stop-color="#16140f"/>
    </radialGradient>
    <radialGradient cx="0" cy="0" gradientTransform="matrix(0.0054, 0.0, 0.0, 0.0054, 11.6, -8.45)" gradientUnits="userSpaceOnUse" id="gradient33" r="819.2" spreadMethod="pad">
      <stop offset="0.0" stop-color="#68614b"/>
      <stop offset="1.0" stop-color="#403c2e"/>
    </radialGradient>
    <radialGradient cx="0" cy="0" gradientTransform="matrix(0.0048, 0.0, 0.0, 0.0048, 11.5, -7.75)" gradientUnits="userSpaceOnUse" id="gradient34" r="819.2" spreadMethod="pad">
      <stop offset="0.0" stop-color="#932121"/>
      <stop offset="1.0" stop-color="#691717"/>
    </radialGradient>
    <radialGradient cx="0" cy="0" gradientTransform="matrix(0.0028, 0.0, 0.0, 0.0028, -6.45, -55.25)" gradientUnits="userSpaceOnUse" id="gradient35" r="819.2" spreadMethod="pad">
      <stop offset="0.0" stop-color="#db3131"/>
      <stop offset="1.0" stop-color="#bf2a2a"/>
    </radialGradient>
    <radialGradient cx="0" cy="0" gradientTransform="matrix(0.0057, 0.0, 0.0, 0.0057, -7.15, -52.15)" gradientUnits="userSpaceOnUse" id="gradient36" r="819.2" spreadMethod="pad">
      <stop offset="0.0" stop-color="#b22828"/>
      <stop offset="1.0" stop-color="#ad2626"/>
    </radialGradient>
    <radialGradient cx="0" cy="0" gradientTransform="matrix(0.0026, 0.0, 0.0, 0.0026, -6.8, -54.85)" gradientUnits="userSpaceOnUse" id="gradient37" r="819.2" spreadMethod="pad">
      <stop offset="0.0" stop-color="#c12b2b"/>
      <stop offset="1.0" stop-color="#b12727"/>
    </radialGradient>
    <radialGradient cx="0" cy="0" gradientTransform="matrix(0.0029, 0.0, 0.0, 0.0029, -6.8, -54.85)" gradientUnits="userSpaceOnUse" id="gradient38" r="819.2" spreadMethod="pad">
      <stop offset="0.0" stop-color="#b02727"/>
      <stop offset="1.0" stop-color="#a12424"/>
    </radialGradient>
    <radialGradient cx="0" cy="0" gradientTransform="matrix(0.0014, 0.0, 0.0, 0.0014, -6.45, -55.25)" gradientUnits="userSpaceOnUse" id="gradient39" r="819.2" spreadMethod="pad">
      <stop offset="0.0" stop-color="#8d1f1f"/>
      <stop offset="1.0" stop-color="#781b1b"/>
    </radialGradient>
    <radialGradient cx="0" cy="0" gradientTransform="matrix(0.0065, 0.0, 0.0, 0.0065, -9.55, -54.05)" gradientUnits="userSpaceOnUse" id="gradient40" r="819.2" spreadMethod="pad">
      <stop offset="0.0" stop-color="#b32828"/>
      <stop offset="1.0" stop-color="#a72525"/>
    </radialGradient>
    <radialGradient cx="0" cy="0" gradientTransform="matrix(0.0044, 0.0, 0.0, 0.0044, -9.55, -54.05)" gradientUnits="userSpaceOnUse" id="gradient41" r="819.2" spreadMethod="pad">
      <stop offset="0.0" stop-color="#b72929"/>
      <stop offset="1.0" stop-color="#b32828"/>
    </radialGradient>
    <radialGradient cx="0" cy="0" gradientTransform="matrix(0.0099, 0.0, 0.0, 0.0099, -7.4, -48.5)" gradientUnits="userSpaceOnUse" id="gradient42" r="819.2" spreadMethod="pad">
      <stop offset="0.0" stop-color="#c52c2c"/>
      <stop offset="1.0" stop-color="#b52828"/>
    </radialGradient>
    <radialGradient cx="0" cy="0" gradientTransform="matrix(0.0094, 0.0, 0.0, 0.0094, -7.25, -46.75)" gradientUnits="userSpaceOnUse" id="gradient43" r="819.2" spreadMethod="pad">
      <stop offset="0.0" stop-color="#b72929"/>
      <stop offset="1.0" stop-color="#af2727"/>
    </radialGradient>
    <radialGradient cx="0" cy="0" gradientTransform="matrix(0.01, 0.0, 0.0, 0.01, -11.05, -53.4)" gradientUnits="userSpaceOnUse" id="gradient44" r="819.2" spreadMethod="pad">
      <stop offset="0.0" stop-color="#a42424"/>
      <stop offset="1.0" stop-color="#7a1b1b"/>
    </radialGradient>
    <radialGradient cx="0" cy="0" gradientTransform="matrix(0.0024, 0.0, 0.0, 0.0024, -5.75, -53.5)" gradientUnits="userSpaceOnUse" id="gradient45" r="819.2" spreadMethod="pad">
      <stop offset="0.0" stop-color="#791b1b"/>
      <stop offset="1.0" stop-color="#551313"/>
    </radialGradient>
    <radialGradient cx="0" cy="0" gradientTransform="matrix(0.0084, 0.0, 0.0, 0.0084, -4.2, -47.25)" gradientUnits="userSpaceOnUse" id="gradient46" r="819.2" spreadMethod="pad">
      <stop offset="0.0" stop-color="#d83030"/>
      <stop offset="1.0" stop-color="#af2727"/>
    </radialGradient>
    <radialGradient cx="0" cy="0" gradientTransform="matrix(0.0036, 0.0, 0.0, 0.0036, -6.55, -52.95)" gradientUnits="userSpaceOnUse" id="gradient47" r="819.2" spreadMethod="pad">
      <stop offset="0.0" stop-color="#b72929"/>
      <stop offset="1.0" stop-color="#a12323"/>
    </radialGradient>
    <radialGradient cx="0" cy="0" gradientTransform="matrix(0.0055, 0.0, 0.0, 0.0055, -3.95, -47.6)" gradientUnits="userSpaceOnUse" id="gradient48" r="819.2" spreadMethod="pad">
      <stop offset="0.0" stop-color="#9f2323"/>
      <stop offset="1.0" stop-color="#871e1e"/>
    </radialGradient>
    <radialGradient cx="0" cy="0" gradientTransform="matrix(0.0082, 0.0, 0.0, 0.0082, -6.9, -53.05)" gradientUnits="userSpaceOnUse" id="gradient49" r="819.2" spreadMethod="pad">
      <stop offset="0.0" stop-color="#1f0707"/>
      <stop offset="1.0" stop-color="#1f0707"/>
    </radialGradient>
    <radialGradient cx="0" cy="0" gradientTransform="matrix(0.0094, 0.0, 0.0, 0.0094, -11.2, -53.0)" gradientUnits="userSpaceOnUse" id="gradient50" r="819.2" spreadMethod="pad">
      <stop offset="0.0" stop-color="#1f0707"/>
      <stop offset="1.0" stop-color="#1f0707"/>
    </radialGradient>
    <radialGradient cx="0" cy="0" gradientTransform="matrix(0.0074, 0.0, 0.0, 0.0074, -5.05, -41.75)" gradientUnits="userSpaceOnUse" id="gradient51" r="819.2" spreadMethod="pad">
      <stop offset="0.0" stop-color="#ffde81"/>
      <stop offset="1.0" stop-color="#9b6e40"/>
    </radialGradient>
    <radialGradient cx="0" cy="0" gradientTransform="matrix(0.0139, 0.0, 0.0, 0.0139, -6.55, -26.0)" gradientUnits="userSpaceOnUse" id="gradient52" r="819.2" spreadMethod="pad">
      <stop offset="0.0" stop-color="#877b7b"/>
      <stop offset="1.0" stop-color="#635a5a"/>
    </radialGradient>
    <radialGradient cx="0" cy="0" gradientTransform="matrix(0.0121, 0.0, 0.0, 0.0121, -5.8, -24.8)" gradientUnits="userSpaceOnUse" id="gradient53" r="819.2" spreadMethod="pad">
      <stop offset="0.0" stop-color="#66604a"/>
      <stop offset="1.0" stop-color="#443f31"/>
    </radialGradient>
    <radialGradient cx="0" cy="0" gradientTransform="matrix(0.0119, 0.0, 0.0, 0.0119, -6.5, -23.95)" gradientUnits="userSpaceOnUse" id="gradient54" r="819.2" spreadMethod="pad">
      <stop offset="0.0" stop-color="#6b644e"/>
      <stop offset="1.0" stop-color="#3e3a2d"/>
    </radialGradient>
    <radialGradient cx="0" cy="0" gradientTransform="matrix(0.0019, 0.0, 0.0, 0.0019, -11.8, -19.9)" gradientUnits="userSpaceOnUse" id="gradient55" r="819.2" spreadMethod="pad">
      <stop offset="0.0" stop-color="#56503e"/>
      <stop offset="1.0" stop-color="#56503e"/>
    </radialGradient>
    <radialGradient cx="0" cy="0" gradientTransform="matrix(0.015, 0.0, 0.0, 0.015, -7.45, -17.6)" gradientUnits="userSpaceOnUse" id="gradient56" r="819.2" spreadMethod="pad">
      <stop offset="0.0" stop-color="#897c7c"/>
      <stop offset="1.0" stop-color="#5b5353"/>
    </radialGradient>
    <radialGradient cx="0" cy="0" gradientTransform="matrix(0.0041, 0.0, 0.0, 0.0041, -5.45, -14.3)" gradientUnits="userSpaceOnUse" id="gradient57" r="819.2" spreadMethod="pad">
      <stop offset="0.0" stop-color="#ffe485"/>
      <stop offset="1.0" stop-color="#c68b51"/>
    </radialGradient>
    <radialGradient cx="0" cy="0" gradientTransform="matrix(0.004, 0.0, 0.0, 0.004, -5.7, -12.5)" gradientUnits="userSpaceOnUse" id="gradient58" r="819.2" spreadMethod="pad">
      <stop offset="0.0" stop-color="#69624c"/>
      <stop offset="1.0" stop-color="#343025"/>
    </radialGradient>
    <radialGradient cx="0" cy="0" gradientTransform="matrix(0.0034, 0.0, 0.0, 0.0034, -14.6, -11.3)" gradientUnits="userSpaceOnUse" id="gradient59" r="819.2" spreadMethod="pad">
      <stop offset="0.0" stop-color="#322f25"/>
      <stop offset="1.0" stop-color="#0c0c09"/>
    </radialGradient>
    <radialGradient cx="0" cy="0" gradientTransform="matrix(0.0139, 0.0, 0.0, 0.0139, -14.55, -11.35)" gradientUnits="userSpaceOnUse" id="gradient60" r="819.2" spreadMethod="pad">
      <stop offset="0.0" stop-color="#4c4646"/>
      <stop offset="1.0" stop-color="#2d2828"/>
    </radialGradient>
    <radialGradient cx="0" cy="0" gradientTransform="matrix(0.011, 0.0, 0.0, 0.011, -11.45, -8.0)" gradientUnits="userSpaceOnUse" id="gradient61" r="819.2" spreadMethod="pad">
      <stop offset="0.0" stop-color="#413d2f"/>
      <stop offset="1.0" stop-color="#383428"/>
    </radialGradient>
    <radialGradient cx="0" cy="0" gradientTransform="matrix(0.0049, 0.0, 0.0, 0.0049, -10.75, 1.15)" gradientUnits="userSpaceOnUse" id="gradient62" r="819.2" spreadMethod="pad">
      <stop offset="0.0" stop-color="#a92626"/>
      <stop offset="1.0" stop-color="#8f2020"/>
    </radialGradient>
    <radialGradient cx="0" cy="0" gradientTransform="matrix(0.0033, 0.0, 0.0, 0.0033, -8.7, -5.65)" gradientUnits="userSpaceOnUse" id="gradient63" r="819.2" spreadMethod="pad">
      <stop offset="0.0" stop-color="#b9824c"/>
      <stop offset="1.0" stop-color="#855e36"/>
    </radialGradient>
    <radialGradient cx="0" cy="0" gradientTransform="matrix(0.0068, 0.0, 0.0, 0.0068, -9.55, -6.95)" gradientUnits="userSpaceOnUse" id="gradient64" r="819.2" spreadMethod="pad">
      <stop offset="0.0" stop-color="#e29f5d"/>
      <stop offset="1.0" stop-color="#bf864e"/>
    </radialGradient>
    <radialGradient cx="0" cy="0" gradientTransform="matrix(0.0034, 0.0, 0.0, 0.0034, -9.95, -1.35)" gradientUnits="userSpaceOnUse" id="gradient65" r="819.2" spreadMethod="pad">
      <stop offset="0.0" stop-color="#ffffff"/>
      <stop offset="1.0" stop-color="#8e8e8e"/>
    </radialGradient>
    <radialGradient cx="0" cy="0" gradientTransform="matrix(0.0047, 0.0, 0.0, 0.0047, -10.3, -0.1)" gradientUnits="userSpaceOnUse" id="gradient66" r="819.2" spreadMethod="pad">
      <stop offset="0.0" stop-color="#736c54"/>
      <stop offset="1.0" stop-color="#39362a"/>
    </radialGradient>
    <radialGradient cx="0" cy="0" gradientTransform="matrix(0.0079, 0.0, 0.0, 0.0079, -10.7, 1.65)" gradientUnits="userSpaceOnUse" id="gradient67" r="819.2" spreadMethod="pad">
      <stop offset="0.0" stop-color="#ff4141"/>
      <stop offset="1.0" stop-color="#b72929"/>
    </radialGradient>
    <radialGradient cx="0" cy="0" gradientTransform="matrix(0.0044, 0.0, 0.0, 0.0044, -9.35, 3.95)" gradientUnits="userSpaceOnUse" id="gradient68" r="819.2" spreadMethod="pad">
      <stop offset="0.0" stop-color="#514c3b"/>
      <stop offset="1.0" stop-color="#2c2a20"/>
    </radialGradient>
    <radialGradient cx="0" cy="0" gradientTransform="matrix(0.0049, 0.0, 0.0, 0.0049, -14.5, 5.5)" gradientUnits="userSpaceOnUse" id="gradient69" r="819.2" spreadMethod="pad">
      <stop offset="0.0" stop-color="#766f56"/>
      <stop offset="1.0" stop-color="#494334"/>
    </radialGradient>
    <radialGradient cx="0" cy="0" gradientTransform="matrix(0.0022, 0.0, 0.0, 0.0022, -14.65, 2.15)" gradientUnits="userSpaceOnUse" id="gradient70" r="819.2" spreadMethod="pad">
      <stop offset="0.0" stop-color="#1f0707"/>
      <stop offset="1.0" stop-color="#1f0707"/>
    </radialGradient>
  </defs>
</svg>
