<?xml version="1.0" encoding="UTF-8" standalone="no"?>
<svg xmlns:ffdec="https://www.free-decompiler.com/flash" xmlns:xlink="http://www.w3.org/1999/xlink" ffdec:objectType="shape" height="68.85px" width="31.2px" xmlns="http://www.w3.org/2000/svg">
  <g transform="matrix(1.0, 0.0, 0.0, 1.0, 15.2, 60.25)">
    <path d="M0.5 -52.85 L1.95 -52.0 2.45 -51.65 2.4 -51.55 -1.8 -53.65 -1.45 -53.6 -1.35 -53.95 -1.3 -54.0 -1.25 -54.0 0.1 -53.0 0.5 -52.85" fill="url(#gradient0)" fill-rule="evenodd" stroke="none"/>
    <path d="M1.6 -54.55 L1.55 -54.15 0.5 -52.85 0.1 -53.0 1.6 -54.55" fill="url(#gradient1)" fill-rule="evenodd" stroke="none"/>
    <path d="M0.85 -51.7 L1.55 -50.1 1.4 -48.25 1.25 -47.6 Q0.45 -47.05 0.05 -46.15 L-0.55 -46.25 -1.75 -45.65 -3.75 -45.9 -4.0 -45.45 -5.4 -45.95 -5.55 -46.8 -7.7 -47.95 -7.75 -48.0 -7.95 -48.45 -7.95 -49.25 -7.85 -49.65 -7.3 -49.65 -7.5 -49.45 -7.3 -49.15 -7.05 -49.15 -7.0 -49.4 -6.85 -49.35 -7.05 -49.75 -6.85 -50.7 -6.0 -50.85 -5.8 -50.75 -4.65 -51.55 -3.85 -52.35 -3.9 -52.45 -4.65 -52.7 -6.1 -52.7 -6.1 -52.9 -4.35 -53.8 -3.6 -53.8 -3.45 -53.9 -3.1 -53.95 -2.05 -53.55 -0.9 -53.05 0.85 -51.7 M-2.6 -48.6 L-4.55 -48.45 -4.75 -48.4 -4.25 -48.1 -1.95 -47.6 -1.25 -47.75 -0.9 -47.95 -2.05 -48.55 -2.6 -48.6 M-1.65 -45.1 Q-2.0 -44.55 -3.35 -44.9 L-1.65 -45.1 M-6.8 -47.85 L-6.65 -48.45 -7.0 -48.35 -7.05 -47.95 -6.8 -47.85" fill="url(#gradient2)" fill-rule="evenodd" stroke="none"/>
    <path d="M2.4 -51.55 L0.85 -51.7 -0.9 -53.05 -2.05 -53.55 -1.8 -53.65 2.4 -51.55" fill="url(#gradient3)" fill-rule="evenodd" stroke="none"/>
    <path d="M-1.25 -54.0 L0.7 -54.55 1.6 -54.55 0.1 -53.0 -1.25 -54.0" fill="url(#gradient4)" fill-rule="evenodd" stroke="none"/>
    <path d="M8.95 -40.9 L9.35 -40.3 9.25 -38.45 Q8.3 -34.3 4.8 -30.6 4.3 -30.55 3.35 -28.45 L2.25 -27.1 2.15 -26.95 2.05 -27.1 1.25 -28.0 Q2.8 -31.95 1.55 -34.15 -1.0 -38.15 -4.1 -36.95 L-3.7 -40.25 -3.4 -40.85 -2.75 -41.9 -1.35 -41.85 1.05 -42.15 2.1 -39.15 Q3.65 -33.8 3.4 -32.5 L3.85 -32.4 4.35 -32.5 4.5 -32.75 4.0 -35.8 2.0 -42.45 2.35 -42.25 Q3.3 -42.85 3.65 -41.95 L3.7 -42.95 5.25 -41.0 6.2 -39.15 7.5 -35.55 Q8.7 -36.35 7.05 -39.15 L5.35 -42.0 3.75 -44.0 3.3 -45.35 2.7 -46.2 Q5.4 -47.4 8.95 -40.9" fill="url(#gradient5)" fill-rule="evenodd" stroke="none"/>
    <path d="M1.35 -47.2 L1.75 -47.0 2.55 -46.35 2.7 -46.2 3.3 -45.35 3.75 -44.0 2.0 -45.7 0.85 -46.45 1.35 -47.2 M-2.95 -42.6 L-3.0 -43.3 -3.0 -43.5 -2.55 -44.0 -0.8 -45.35 -0.3 -45.6 1.05 -42.15 -1.35 -41.85 -2.75 -41.9 -2.95 -42.6 M2.0 -42.45 L0.7 -45.25 2.2 -44.3 3.7 -42.95 3.65 -41.95 Q3.3 -42.85 2.35 -42.25 L2.0 -42.45" fill="url(#gradient6)" fill-rule="evenodd" stroke="none"/>
    <path d="M2.55 -46.35 Q5.65 -48.8 8.35 -46.6 10.95 -43.15 8.95 -40.9 5.4 -47.4 2.7 -46.2 L2.55 -46.35" fill="url(#gradient7)" fill-rule="evenodd" stroke="none"/>
    <path d="M1.4 -48.25 L1.35 -47.2 0.85 -46.45 0.7 -46.6 -0.2 -45.75 -0.3 -45.6 -0.8 -45.35 -1.65 -45.1 -3.35 -44.9 -5.4 -45.0 -7.0 -45.65 -7.0 -45.7 Q-7.75 -46.0 -8.0 -47.05 L-8.2 -48.65 -7.75 -48.0 -7.7 -47.95 -7.0 -47.3 -5.55 -46.8 -5.4 -45.95 -4.0 -45.45 -3.75 -45.9 -1.75 -45.65 -0.55 -46.25 0.05 -46.15 Q0.45 -47.05 1.25 -47.6 L1.4 -48.25" fill="url(#gradient8)" fill-rule="evenodd" stroke="none"/>
    <path d="M-0.3 -45.6 L-0.2 -45.75 0.7 -45.25 2.0 -42.45 4.0 -35.8 4.5 -32.75 4.35 -32.5 3.85 -32.4 3.4 -32.5 Q3.65 -33.8 2.1 -39.15 L1.05 -42.15 -0.3 -45.6" fill="url(#gradient9)" fill-rule="evenodd" stroke="none"/>
    <path d="M0.7 -45.25 L-0.2 -45.75 0.7 -46.6 0.85 -46.45 2.0 -45.7 3.75 -44.0 5.35 -42.0 7.05 -39.15 Q8.7 -36.35 7.5 -35.55 L6.2 -39.15 5.25 -41.0 3.7 -42.95 2.2 -44.3 0.7 -45.25" fill="url(#gradient10)" fill-rule="evenodd" stroke="none"/>
    <path d="M2.15 -26.95 L2.7 -25.75 3.0 -24.5 3.1 -23.9 2.9 -22.55 2.65 -23.3 2.25 -23.8 1.85 -24.0 Q1.55 -24.65 1.5 -25.35 L0.85 -26.6 0.55 -27.2 1.25 -28.0 2.05 -27.1 2.15 -26.95" fill="url(#gradient11)" fill-rule="evenodd" stroke="none"/>
    <path d="M4.8 -30.6 L5.15 -29.4 5.2 -28.0 3.8 -27.1 3.4 -26.8 3.3 -26.15 2.7 -25.75 2.15 -26.95 2.25 -27.1 3.35 -28.45 Q4.3 -30.55 4.8 -30.6 M-5.2 -26.4 L-5.35 -26.65 -5.25 -27.55 -5.0 -27.25 -5.2 -26.4" fill="url(#gradient12)" fill-rule="evenodd" stroke="none"/>
    <path d="M-5.6 -28.1 L-6.15 -29.1 Q-6.6 -29.95 -6.65 -31.35 -6.4 -36.15 -4.1 -36.95 -1.0 -38.15 1.55 -34.15 2.8 -31.95 1.25 -28.0 L0.55 -27.2 0.4 -27.15 -0.3 -27.45 -1.75 -27.1 -2.8 -26.65 -4.0 -26.55 -4.45 -26.75 -4.75 -27.1 -5.0 -27.25 -5.25 -27.55 -5.5 -27.9 -5.55 -28.0 -5.6 -28.1" fill="url(#gradient13)" fill-rule="evenodd" stroke="none"/>
    <path d="M0.55 -27.2 L0.85 -26.6 0.45 -27.1 0.4 -27.15 0.55 -27.2 M-4.0 -26.55 Q-5.2 -20.95 -1.2 -19.3 L-1.85 -18.85 -2.35 -18.8 Q-4.0 -19.85 -5.0 -23.3 L-5.2 -26.4 -5.0 -27.25 -4.75 -27.1 -4.45 -26.75 -4.0 -26.55 M-0.95 -19.25 L-0.2 -19.3 -0.25 -19.0 -0.95 -19.25" fill="url(#gradient14)" fill-rule="evenodd" stroke="none"/>
    <path d="M0.85 -26.6 L1.5 -25.35 Q1.55 -24.65 1.85 -24.0 L1.95 -22.8 Q1.85 -21.25 1.5 -20.9 L1.2 -20.3 Q0.85 -19.7 -0.2 -19.3 L-0.95 -19.25 -1.2 -19.3 Q-5.2 -20.95 -4.0 -26.55 L-2.8 -26.65 -1.75 -27.1 -0.3 -27.45 0.4 -27.15 0.45 -27.1 0.85 -26.6" fill="url(#gradient15)" fill-rule="evenodd" stroke="none"/>
    <path d="M1.85 -24.0 L2.25 -23.8 2.65 -23.3 2.9 -22.55 3.15 -21.65 Q3.2 -20.65 2.85 -19.95 L2.75 -19.9 2.55 -19.85 1.5 -20.9 Q1.85 -21.25 1.95 -22.8 L1.85 -24.0" fill="url(#gradient16)" fill-rule="evenodd" stroke="none"/>
    <path d="M5.3 -29.2 L5.8 -28.7 Q6.8 -26.95 6.6 -26.5 7.1 -23.5 5.85 -22.0 L5.2 -21.2 3.8 -20.25 2.85 -19.95 Q3.2 -20.65 3.15 -21.65 L2.9 -22.55 3.1 -23.9 3.0 -24.5 Q3.75 -26.2 5.35 -27.1 L5.3 -29.2" fill="url(#gradient17)" fill-rule="evenodd" stroke="none"/>
    <path d="M5.15 -29.4 L5.3 -29.2 5.35 -27.1 Q3.75 -26.2 3.0 -24.5 L2.7 -25.75 3.3 -26.15 3.4 -26.8 3.8 -27.1 5.2 -28.0 5.15 -29.4 M-6.35 -24.3 L-6.5 -25.6 -6.0 -27.05 -6.0 -27.1 -5.5 -27.9 -5.25 -27.55 -5.35 -26.65 -5.2 -26.4 -5.0 -23.3 -5.5 -23.3 -5.4 -24.15 Q-5.75 -23.1 -6.35 -24.3" fill="url(#gradient18)" fill-rule="evenodd" stroke="none"/>
    <path d="M8.5 -20.8 L9.2 -19.2 10.35 -12.9 Q9.75 -9.2 5.85 -7.85 L3.55 -7.6 Q1.7 -7.65 0.55 -8.6 2.35 -10.15 1.2 -12.3 L2.15 -15.05 2.4 -16.0 Q9.0 -16.95 8.5 -20.8" fill="url(#gradient19)" fill-rule="evenodd" stroke="none"/>
    <path d="M6.6 -26.5 Q6.9 -26.6 8.2 -22.65 L8.5 -20.8 Q9.0 -16.95 2.4 -16.0 L2.2 -16.6 2.2 -17.85 2.75 -19.0 2.75 -19.9 2.85 -19.95 3.8 -20.25 5.2 -21.2 5.85 -22.0 Q7.1 -23.5 6.6 -26.5" fill="url(#gradient20)" fill-rule="evenodd" stroke="none"/>
    <path d="M-1.2 -19.3 L-0.95 -19.25 -0.25 -19.0 1.65 -17.55 2.2 -17.85 2.2 -16.6 2.4 -16.0 2.15 -15.05 1.2 -12.3 0.7 -11.25 0.3 -11.15 -0.25 -10.65 -0.55 -10.65 -2.05 -11.3 -2.3 -11.6 -2.25 -13.15 -2.25 -13.8 -2.9 -15.9 -2.85 -16.45 -2.7 -17.8 -2.35 -18.8 -1.85 -18.85 -1.2 -19.3" fill="url(#gradient21)" fill-rule="evenodd" stroke="none"/>
    <path d="M-0.2 -19.3 Q0.85 -19.7 1.2 -20.3 L1.5 -20.9 2.55 -19.85 2.75 -19.9 2.75 -19.0 2.2 -17.85 1.65 -17.55 -0.25 -19.0 -0.2 -19.3" fill="url(#gradient22)" fill-rule="evenodd" stroke="none"/>
    <path d="M7.05 -2.55 L5.45 -4.45 4.8 -5.5 6.2 -5.55 8.6 -6.55 9.05 -5.6 9.75 -3.0 9.75 -2.75 Q9.75 -0.2 7.05 -2.55" fill="url(#gradient23)" fill-rule="evenodd" stroke="none"/>
    <path d="M10.15 -7.75 L10.9 -4.9 Q11.05 -2.3 10.8 -2.55 L10.7 -2.35 10.45 -2.35 9.75 -2.75 9.75 -3.0 9.05 -5.6 8.6 -6.55 10.15 -7.75" fill="url(#gradient24)" fill-rule="evenodd" stroke="none"/>
    <path d="M10.35 -12.9 Q12.65 -9.6 10.15 -7.75 L8.6 -6.55 6.2 -5.55 4.8 -5.5 1.7 -5.4 Q-0.55 -7.0 -0.55 -7.7 L-0.55 -8.1 0.55 -8.6 Q1.7 -7.65 3.55 -7.6 L5.85 -7.85 Q9.75 -9.2 10.35 -12.9" fill="url(#gradient25)" fill-rule="evenodd" stroke="none"/>
    <path d="M-0.55 -7.7 Q-1.6 -4.6 -5.05 -4.2 L-5.65 -4.15 -6.5 -4.05 -8.3 -4.6 -9.5 -5.05 -9.8 -5.15 -10.1 -5.35 Q-11.7 -5.15 -12.65 -10.6 L-12.6 -10.6 -12.1 -9.45 -11.6 -11.4 -11.45 -13.75 -11.25 -14.05 -9.8 -14.7 -9.6 -14.45 -9.55 -14.25 Q-8.0 -11.85 -9.4 -8.9 L-9.1 -6.8 Q-5.7 -3.35 -0.75 -8.0 L-0.55 -8.1 -0.55 -7.7" fill="url(#gradient26)" fill-rule="evenodd" stroke="none"/>
    <path d="M1.2 -12.3 Q2.35 -10.15 0.55 -8.6 L-0.55 -8.1 -0.75 -8.0 Q-5.2 -8.5 -3.6 -12.4 L-2.85 -13.2 -2.25 -13.15 -2.3 -11.6 -2.05 -11.3 -0.55 -10.65 -0.25 -10.65 0.3 -11.15 0.7 -11.25 1.2 -12.3" fill="url(#gradient27)" fill-rule="evenodd" stroke="none"/>
    <path d="M10.8 -2.55 L11.1 -2.0 Q11.25 0.6 8.0 -0.85 L7.05 -2.55 Q9.75 -0.2 9.75 -2.75 L10.45 -2.35 10.7 -2.35 10.8 -2.55" fill="url(#gradient28)" fill-rule="evenodd" stroke="none"/>
    <path d="M11.65 -1.65 Q14.35 -0.35 13.65 1.55 14.05 3.3 8.95 3.75 L8.45 3.45 7.65 2.35 7.55 1.75 7.45 1.0 7.85 -0.1 8.25 0.9 10.75 1.0 Q13.1 -0.9 11.65 -1.65" fill="url(#gradient29)" fill-rule="evenodd" stroke="none"/>
    <path d="M11.1 -2.0 L11.55 -1.7 11.65 -1.65 Q13.1 -0.9 10.75 1.0 L8.25 0.9 7.85 -0.1 8.0 -0.85 Q11.25 0.6 11.1 -2.0" fill="url(#gradient30)" fill-rule="evenodd" stroke="none"/>
    <path d="M14.7 3.8 Q18.65 6.05 10.5 8.3 L10.25 7.35 10.35 6.45 Q10.25 8.0 14.7 3.8" fill="url(#gradient31)" fill-rule="evenodd" stroke="none"/>
    <path d="M10.5 8.3 Q8.75 9.1 8.1 7.8 L7.8 6.2 7.95 6.35 8.05 6.1 7.95 6.05 Q8.35 4.1 8.15 4.0 L8.45 3.45 8.95 3.75 9.9 5.9 10.35 6.4 10.35 6.45 10.25 7.35 10.5 8.3" fill="url(#gradient32)" fill-rule="evenodd" stroke="none"/>
    <path d="M13.65 1.55 L14.7 3.8 Q10.25 8.0 10.35 6.45 L10.35 6.4 9.9 5.9 8.95 3.75 Q14.05 3.3 13.65 1.55" fill="url(#gradient33)" fill-rule="evenodd" stroke="none"/>
    <path d="M8.1 7.8 Q3.5 4.75 7.55 1.75 L7.65 2.35 8.45 3.45 8.15 4.0 Q8.35 4.1 7.95 6.05 L8.05 6.1 7.95 6.35 7.8 6.2 8.1 7.8" fill="url(#gradient34)" fill-rule="evenodd" stroke="none"/>
    <path d="M-5.75 -54.55 L-4.05 -57.45 -3.3 -58.2 -3.3 -58.15 -3.6 -53.8 -4.35 -53.8 -6.1 -52.9 -6.2 -53.55 -5.9 -54.1 -5.75 -54.55" fill="url(#gradient35)" fill-rule="evenodd" stroke="none"/>
    <path d="M-3.3 -58.2 L-2.8 -58.8 -2.75 -58.65 -2.9 -54.65 -3.35 -54.2 -3.2 -56.15 -3.3 -58.15 -3.3 -58.2" fill="url(#gradient36)" fill-rule="evenodd" stroke="none"/>
    <path d="M-2.75 -58.65 L-2.55 -58.4 -2.45 -55.05 -2.9 -54.65 -2.75 -58.65" fill="url(#gradient37)" fill-rule="evenodd" stroke="none"/>
    <path d="M-3.3 -58.15 L-3.2 -56.15 -3.35 -54.2 -3.45 -53.9 -3.6 -53.8 -3.3 -58.15" fill="url(#gradient38)" fill-rule="evenodd" stroke="none"/>
    <path d="M-7.85 -60.05 L-7.25 -58.9 -5.75 -54.55 -5.9 -54.1 -6.5 -56.1 -6.7 -56.35 -7.0 -57.5 -7.85 -60.05" fill="url(#gradient39)" fill-rule="evenodd" stroke="none"/>
    <path d="M-8.2 -52.35 Q-8.7 -58.85 -8.0 -60.25 L-7.95 -60.25 -7.85 -60.05 -7.0 -57.5 -7.15 -57.6 -7.4 -56.8 -7.75 -54.7 -7.8 -54.65 -7.8 -54.35 -7.85 -54.2 -7.85 -54.0 -7.9 -53.8 -7.9 -53.65 -8.2 -52.35 M-6.7 -56.35 L-6.5 -56.1 -5.9 -54.1 -6.2 -53.55 -6.7 -56.35" fill="url(#gradient40)" fill-rule="evenodd" stroke="none"/>
    <path d="M-6.7 -56.35 L-6.2 -53.55 -6.1 -52.9 -6.1 -52.7 -6.35 -52.7 -6.65 -52.2 -6.85 -51.2 -6.85 -50.7 -7.05 -49.75 -7.15 -49.75 -8.3 -50.85 -7.9 -53.65 -7.9 -53.8 -7.85 -54.0 -7.85 -54.2 -7.8 -54.35 -7.8 -54.65 -7.75 -54.7 -7.4 -56.8 -7.15 -57.6 -7.0 -57.5 -6.7 -56.35" fill="url(#gradient41)" fill-rule="evenodd" stroke="none"/>
    <path d="M-6.85 -50.7 L-6.85 -51.2 -6.65 -52.2 -6.35 -52.7 -6.1 -52.7 -4.65 -52.7 -3.9 -52.45 -5.8 -50.75 -6.0 -50.85 -6.85 -50.7" fill="url(#gradient42)" fill-rule="evenodd" stroke="none"/>
    <path d="M-8.5 -50.7 L-8.2 -52.35 -7.9 -53.65 -8.3 -50.85 -8.5 -50.7" fill="url(#gradient43)" fill-rule="evenodd" stroke="none"/>
    <path d="M-8.15 -49.4 L-8.55 -50.5 -8.5 -50.7 -8.3 -50.85 -7.15 -49.75 -7.2 -49.7 -7.25 -49.7 -7.3 -49.65 -7.85 -49.65 -7.95 -49.25 -8.05 -49.35 -8.15 -49.4" fill="url(#gradient44)" fill-rule="evenodd" stroke="none"/>
    <path d="M-8.2 -48.65 L-8.15 -49.35 -8.05 -49.35 -7.95 -49.25 -7.95 -48.45 -7.75 -48.0 -8.2 -48.65 M-5.55 -46.8 L-7.0 -47.3 -7.7 -47.95 -5.55 -46.8" fill="url(#gradient45)" fill-rule="evenodd" stroke="none"/>
    <path d="M-8.15 -49.35 L-8.15 -49.4 -8.05 -49.35 -8.15 -49.35" fill="url(#gradient46)" fill-rule="evenodd" stroke="none"/>
    <path d="M-7.15 -49.75 L-7.05 -49.75 -6.85 -49.35 -7.0 -49.4 -7.05 -49.15 -7.3 -49.15 -7.5 -49.45 -7.3 -49.65 -7.25 -49.7 -7.2 -49.7 -7.15 -49.75 M-2.6 -48.6 L-2.05 -48.55 -0.9 -47.95 -1.25 -47.75 -1.95 -47.6 -4.25 -48.1 -4.75 -48.4 -4.55 -48.45 -2.6 -48.6 M-6.8 -47.85 L-7.05 -47.95 -7.0 -48.35 -6.65 -48.45 -6.8 -47.85" fill="url(#gradient47)" fill-rule="evenodd" stroke="none"/>
    <path d="M-2.45 -55.05 Q1.35 -58.65 -1.3 -54.0 L-1.35 -53.95 -1.45 -53.6 -1.8 -53.65 -2.05 -53.55 -3.1 -53.95 -3.45 -53.9 -3.35 -54.2 -2.9 -54.65 -2.45 -55.05" fill="url(#gradient48)" fill-rule="evenodd" stroke="none"/>
    <path d="M-3.9 -52.45 L-3.85 -52.35 -4.65 -51.55 -5.8 -50.75 -3.9 -52.45" fill="url(#gradient49)" fill-rule="evenodd" stroke="none"/>
    <path d="M-3.0 -43.3 Q-5.35 -42.1 -7.0 -45.65 L-5.4 -45.0 -3.35 -44.9 Q-2.0 -44.55 -1.65 -45.1 L-0.8 -45.35 -2.55 -44.0 -3.0 -43.5 -3.0 -43.3" fill="url(#gradient50)" fill-rule="evenodd" stroke="none"/>
    <path d="M-6.65 -31.35 Q-8.85 -37.4 -3.75 -40.8 L-3.4 -40.85 -3.7 -40.25 -4.1 -36.95 Q-6.4 -36.15 -6.65 -31.35" fill="url(#gradient51)" fill-rule="evenodd" stroke="none"/>
    <path d="M-3.75 -40.8 L-2.95 -42.6 -2.75 -41.9 -3.4 -40.85 -3.75 -40.8" fill="url(#gradient52)" fill-rule="evenodd" stroke="none"/>
    <path d="M-10.85 -18.75 Q-10.0 -23.35 -7.55 -25.85 L-7.5 -25.9 -6.0 -27.05 -6.5 -25.6 -6.35 -24.3 Q-6.65 -22.15 -5.65 -22.1 -6.0 -20.15 -5.4 -18.35 L-4.15 -16.95 -2.85 -16.45 -2.9 -15.9 -2.25 -13.8 -2.85 -13.2 -3.6 -12.4 Q-7.35 -11.8 -9.55 -14.25 L-9.6 -14.45 -9.6 -14.8 -9.85 -15.05 -10.5 -15.45 -10.55 -16.9 -10.95 -16.95 -10.85 -18.7 -10.85 -18.75" fill="url(#gradient53)" fill-rule="evenodd" stroke="none"/>
    <path d="M-7.5 -25.9 L-6.65 -27.2 -5.55 -28.0 -5.5 -27.9 -6.0 -27.1 -6.0 -27.05 -7.5 -25.9" fill="url(#gradient54)" fill-rule="evenodd" stroke="none"/>
    <path d="M-6.65 -27.2 L-5.6 -28.1 -5.55 -28.0 -6.65 -27.2" fill="url(#gradient55)" fill-rule="evenodd" stroke="none"/>
    <path d="M-6.35 -24.3 Q-5.75 -23.1 -5.4 -24.15 L-5.5 -23.3 -5.0 -23.3 Q-4.0 -19.85 -2.35 -18.8 L-2.7 -17.8 -2.85 -16.45 -4.15 -16.95 -5.4 -18.35 Q-6.0 -20.15 -5.65 -22.1 -6.65 -22.15 -6.35 -24.3" fill="url(#gradient56)" fill-rule="evenodd" stroke="none"/>
    <path d="M-10.95 -18.7 L-10.85 -18.75 -10.85 -18.7 -10.95 -18.7" fill="url(#gradient57)" fill-rule="evenodd" stroke="none"/>
    <path d="M-12.65 -10.65 L-12.65 -11.15 -12.6 -11.3 -12.6 -11.8 -12.5 -12.0 -12.5 -12.3 -12.4 -12.45 -11.7 -16.9 -10.95 -18.7 -10.85 -18.7 -10.95 -16.95 -10.55 -16.9 -10.5 -15.45 -9.85 -15.05 -9.6 -14.8 -9.6 -14.45 -9.8 -14.7 -11.25 -14.05 -11.45 -13.75 -11.6 -11.4 -12.1 -9.45 -12.6 -10.6 -12.65 -10.65 M-0.75 -8.0 Q-5.7 -3.35 -9.1 -6.8 L-9.4 -8.9 Q-8.0 -11.85 -9.55 -14.25 -7.35 -11.8 -3.6 -12.4 -5.2 -8.5 -0.75 -8.0" fill="url(#gradient58)" fill-rule="evenodd" stroke="none"/>
    <path d="M-2.25 -13.15 L-2.85 -13.2 -2.25 -13.8 -2.25 -13.15" fill="url(#gradient59)" fill-rule="evenodd" stroke="none"/>
    <path d="M-12.65 -10.6 L-12.65 -10.65 -12.6 -10.6 -12.65 -10.6" fill="url(#gradient60)" fill-rule="evenodd" stroke="none"/>
    <path d="M-13.8 -0.4 Q-16.0 -2.4 -14.75 -4.35 -13.55 -6.45 -10.3 -5.2 L-10.35 -5.0 -11.25 -4.6 -12.85 -3.0 -13.55 -1.65 -13.8 -0.4" fill="url(#gradient61)" fill-rule="evenodd" stroke="none"/>
    <path d="M-11.1 1.1 Q-13.85 0.05 -13.8 -0.4 L-13.55 -1.65 -12.85 -3.0 -11.25 -4.6 -10.35 -5.0 -10.85 -4.05 -11.0 -3.0 -10.7 -1.75 -10.65 -0.6 -10.3 0.25 -10.95 0.6 -11.1 1.1" fill="url(#gradient62)" fill-rule="evenodd" stroke="none"/>
    <path d="M-5.05 -4.2 Q-4.75 -3.3 -5.0 -2.3 L-5.7 -1.1 -5.8 -1.0 Q-7.35 1.05 -10.7 -1.75 L-11.0 -3.0 -10.85 -4.05 -10.35 -5.0 -10.3 -5.2 -10.1 -5.35 -9.8 -5.15 Q-10.35 -4.05 -9.3 -3.0 L-8.7 -2.35 -8.15 -2.05 -6.2 -2.3 -5.7 -3.0 -5.7 -4.0 -5.65 -4.15 -5.05 -4.2" fill="url(#gradient63)" fill-rule="evenodd" stroke="none"/>
    <path d="M-8.3 -4.6 L-6.5 -4.05 -5.65 -4.15 -5.7 -4.0 -5.9 -3.85 Q-7.5 -3.25 -8.3 -4.6" fill="url(#gradient64)" fill-rule="evenodd" stroke="none"/>
    <path d="M-9.8 -5.15 L-9.5 -5.05 -9.2 -4.15 -8.25 -3.35 Q-6.2 -2.55 -5.9 -3.85 L-5.7 -4.0 -5.7 -3.0 -6.2 -2.3 -8.15 -2.05 -8.7 -2.35 -9.3 -3.0 Q-10.35 -4.05 -9.8 -5.15" fill="url(#gradient65)" fill-rule="evenodd" stroke="none"/>
    <path d="M-9.5 -5.05 L-8.3 -4.6 Q-7.5 -3.25 -5.9 -3.85 -6.2 -2.55 -8.25 -3.35 L-9.2 -4.15 -9.5 -5.05" fill="url(#gradient66)" fill-rule="evenodd" stroke="none"/>
    <path d="M-5.7 -1.1 Q-4.7 4.6 -11.1 1.1 L-10.95 0.6 -10.3 0.25 Q-7.3 2.25 -5.8 -1.0 L-5.7 -1.1" fill="url(#gradient67)" fill-rule="evenodd" stroke="none"/>
    <path d="M-10.7 -1.75 Q-7.35 1.05 -5.8 -1.0 -7.3 2.25 -10.3 0.25 L-10.65 -0.6 -10.7 -1.75" fill="url(#gradient68)" fill-rule="evenodd" stroke="none"/>
  </g>
  <defs>
    <radialGradient cx="0" cy="0" gradientTransform="matrix(0.006, 0.0, 0.0, 0.006, -2.05, -53.65)" gradientUnits="userSpaceOnUse" id="gradient0" r="819.2" spreadMethod="pad">
      <stop offset="0.0" stop-color="#9e2323"/>
      <stop offset="1.0" stop-color="#6f1818"/>
    </radialGradient>
    <radialGradient cx="0" cy="0" gradientTransform="matrix(0.0037, 0.0, 0.0, 0.0037, 1.6, -54.65)" gradientUnits="userSpaceOnUse" id="gradient1" r="819.2" spreadMethod="pad">
      <stop offset="0.0" stop-color="#7a1b1b"/>
      <stop offset="1.0" stop-color="#691717"/>
    </radialGradient>
    <radialGradient cx="0" cy="0" gradientTransform="matrix(0.0062, 0.0, 0.0, 0.0062, -3.3, -49.35)" gradientUnits="userSpaceOnUse" id="gradient2" r="819.2" spreadMethod="pad">
      <stop offset="0.0" stop-color="#f23636"/>
      <stop offset="1.0" stop-color="#821d1d"/>
    </radialGradient>
    <radialGradient cx="0" cy="0" gradientTransform="matrix(0.0058, 0.0, 0.0, 0.0058, -1.9, -53.8)" gradientUnits="userSpaceOnUse" id="gradient3" r="819.2" spreadMethod="pad">
      <stop offset="0.0" stop-color="#db3131"/>
      <stop offset="1.0" stop-color="#ae2626"/>
    </radialGradient>
    <radialGradient cx="0" cy="0" gradientTransform="matrix(0.0021, 0.0, 0.0, 0.0021, 0.1, -54.2)" gradientUnits="userSpaceOnUse" id="gradient4" r="819.2" spreadMethod="pad">
      <stop offset="0.0" stop-color="#b72929"/>
      <stop offset="1.0" stop-color="#b52828"/>
    </radialGradient>
    <radialGradient cx="0" cy="0" gradientTransform="matrix(0.0132, 0.0, 0.0, 0.0132, 0.95, -36.0)" gradientUnits="userSpaceOnUse" id="gradient5" r="819.2" spreadMethod="pad">
      <stop offset="0.0" stop-color="#ffd77d"/>
      <stop offset="1.0" stop-color="#a57443"/>
    </radialGradient>
    <radialGradient cx="0" cy="0" gradientTransform="matrix(0.006, 0.0, 0.0, 0.006, 0.15, -44.95)" gradientUnits="userSpaceOnUse" id="gradient6" r="819.2" spreadMethod="pad">
      <stop offset="0.0" stop-color="#ffd87e"/>
      <stop offset="1.0" stop-color="#cf9255"/>
    </radialGradient>
    <radialGradient cx="0" cy="0" gradientTransform="matrix(0.0053, 0.0, 0.0, 0.0053, 6.05, -44.2)" gradientUnits="userSpaceOnUse" id="gradient7" r="819.2" spreadMethod="pad">
      <stop offset="0.0" stop-color="#ffdf82"/>
      <stop offset="1.0" stop-color="#a87745"/>
    </radialGradient>
    <radialGradient cx="0" cy="0" gradientTransform="matrix(0.007, 0.0, 0.0, 0.007, -4.0, -46.7)" gradientUnits="userSpaceOnUse" id="gradient8" r="819.2" spreadMethod="pad">
      <stop offset="0.0" stop-color="#cfcfcf"/>
      <stop offset="1.0" stop-color="#a1a1a1"/>
    </radialGradient>
    <radialGradient cx="0" cy="0" gradientTransform="matrix(0.0103, 0.0, 0.0, 0.0103, 1.6, -40.65)" gradientUnits="userSpaceOnUse" id="gradient9" r="819.2" spreadMethod="pad">
      <stop offset="0.0" stop-color="#ffffff"/>
      <stop offset="1.0" stop-color="#c6c6c6"/>
    </radialGradient>
    <radialGradient cx="0" cy="0" gradientTransform="matrix(0.0161, 0.0, 0.0, 0.0161, -0.05, -46.45)" gradientUnits="userSpaceOnUse" id="gradient10" r="819.2" spreadMethod="pad">
      <stop offset="0.0" stop-color="#f8f8f8"/>
      <stop offset="1.0" stop-color="#cecece"/>
    </radialGradient>
    <radialGradient cx="0" cy="0" gradientTransform="matrix(0.0073, 0.0, 0.0, 0.0073, 0.25, -27.05)" gradientUnits="userSpaceOnUse" id="gradient11" r="819.2" spreadMethod="pad">
      <stop offset="0.0" stop-color="#ffd97e"/>
      <stop offset="1.0" stop-color="#c48a50"/>
    </radialGradient>
    <radialGradient cx="0" cy="0" gradientTransform="matrix(0.0119, 0.0, 0.0, 0.0119, 4.2, -27.9)" gradientUnits="userSpaceOnUse" id="gradient12" r="819.2" spreadMethod="pad">
      <stop offset="0.0" stop-color="#ffffff"/>
      <stop offset="1.0" stop-color="#9c9c9c"/>
    </radialGradient>
    <radialGradient cx="0" cy="0" gradientTransform="matrix(0.0085, 0.0, 0.0, 0.0085, -2.75, -33.25)" gradientUnits="userSpaceOnUse" id="gradient13" r="819.2" spreadMethod="pad">
      <stop offset="0.0" stop-color="#ffd57c"/>
      <stop offset="1.0" stop-color="#b17c48"/>
    </radialGradient>
    <radialGradient cx="0" cy="0" gradientTransform="matrix(0.0102, 0.0, 0.0, 0.0102, 0.2, -26.65)" gradientUnits="userSpaceOnUse" id="gradient14" r="819.2" spreadMethod="pad">
      <stop offset="0.0" stop-color="#ffc170"/>
      <stop offset="1.0" stop-color="#9f7041"/>
    </radialGradient>
    <radialGradient cx="0" cy="0" gradientTransform="matrix(0.0092, 0.0, 0.0, 0.0092, -1.25, -26.85)" gradientUnits="userSpaceOnUse" id="gradient15" r="819.2" spreadMethod="pad">
      <stop offset="0.0" stop-color="#ffd77d"/>
      <stop offset="1.0" stop-color="#96693e"/>
    </radialGradient>
    <radialGradient cx="0" cy="0" gradientTransform="matrix(0.0048, 0.0, 0.0, 0.0048, 1.7, -23.6)" gradientUnits="userSpaceOnUse" id="gradient16" r="819.2" spreadMethod="pad">
      <stop offset="0.0" stop-color="#ffd97e"/>
      <stop offset="1.0" stop-color="#bd854e"/>
    </radialGradient>
    <radialGradient cx="0" cy="0" gradientTransform="matrix(0.0095, 0.0, 0.0, 0.0095, 4.0, -27.2)" gradientUnits="userSpaceOnUse" id="gradient17" r="819.2" spreadMethod="pad">
      <stop offset="0.0" stop-color="#958888"/>
      <stop offset="1.0" stop-color="#403a3a"/>
    </radialGradient>
    <radialGradient cx="0" cy="0" gradientTransform="matrix(0.0116, 0.0, 0.0, 0.0116, 0.9, -29.8)" gradientUnits="userSpaceOnUse" id="gradient18" r="819.2" spreadMethod="pad">
      <stop offset="0.0" stop-color="#625c47"/>
      <stop offset="1.0" stop-color="#373428"/>
    </radialGradient>
    <radialGradient cx="0" cy="0" gradientTransform="matrix(0.02, 0.0, 0.0, 0.02, 8.1, -6.5)" gradientUnits="userSpaceOnUse" id="gradient19" r="819.2" spreadMethod="pad">
      <stop offset="0.0" stop-color="#908383"/>
      <stop offset="1.0" stop-color="#595252"/>
    </radialGradient>
    <radialGradient cx="0" cy="0" gradientTransform="matrix(0.0098, 0.0, 0.0, 0.0098, 1.5, -21.75)" gradientUnits="userSpaceOnUse" id="gradient20" r="819.2" spreadMethod="pad">
      <stop offset="0.0" stop-color="#877b7b"/>
      <stop offset="1.0" stop-color="#615959"/>
    </radialGradient>
    <radialGradient cx="0" cy="0" gradientTransform="matrix(0.0096, 0.0, 0.0, 0.0096, 0.05, -18.3)" gradientUnits="userSpaceOnUse" id="gradient21" r="819.2" spreadMethod="pad">
      <stop offset="0.0" stop-color="#5e5844"/>
      <stop offset="1.0" stop-color="#2d2a20"/>
    </radialGradient>
    <radialGradient cx="0" cy="0" gradientTransform="matrix(0.0047, 0.0, 0.0, 0.0047, 1.55, -21.35)" gradientUnits="userSpaceOnUse" id="gradient22" r="819.2" spreadMethod="pad">
      <stop offset="0.0" stop-color="#ffcd78"/>
      <stop offset="1.0" stop-color="#9a6c3f"/>
    </radialGradient>
    <radialGradient cx="0" cy="0" gradientTransform="matrix(0.0077, 0.0, 0.0, 0.0077, 6.7, -7.35)" gradientUnits="userSpaceOnUse" id="gradient23" r="819.2" spreadMethod="pad">
      <stop offset="0.0" stop-color="#ffde81"/>
      <stop offset="1.0" stop-color="#745230"/>
    </radialGradient>
    <radialGradient cx="0" cy="0" gradientTransform="matrix(0.0079, 0.0, 0.0, 0.0079, 8.25, -8.4)" gradientUnits="userSpaceOnUse" id="gradient24" r="819.2" spreadMethod="pad">
      <stop offset="0.0" stop-color="#ffe183"/>
      <stop offset="1.0" stop-color="#94683c"/>
    </radialGradient>
    <radialGradient cx="0" cy="0" gradientTransform="matrix(0.0127, 0.0, 0.0, 0.0127, 8.15, -6.45)" gradientUnits="userSpaceOnUse" id="gradient25" r="819.2" spreadMethod="pad">
      <stop offset="0.0" stop-color="#635d48"/>
      <stop offset="1.0" stop-color="#3e3a2d"/>
    </radialGradient>
    <radialGradient cx="0" cy="0" gradientTransform="matrix(0.0147, 0.0, 0.0, 0.0147, -9.8, -14.75)" gradientUnits="userSpaceOnUse" id="gradient26" r="819.2" spreadMethod="pad">
      <stop offset="0.0" stop-color="#3f3a2d"/>
      <stop offset="1.0" stop-color="#2f2c23"/>
    </radialGradient>
    <radialGradient cx="0" cy="0" gradientTransform="matrix(0.0041, 0.0, 0.0, 0.0041, -1.45, -11.45)" gradientUnits="userSpaceOnUse" id="gradient27" r="819.2" spreadMethod="pad">
      <stop offset="0.0" stop-color="#6b644d"/>
      <stop offset="1.0" stop-color="#333025"/>
    </radialGradient>
    <radialGradient cx="0" cy="0" gradientTransform="matrix(0.006, 0.0, 0.0, 0.006, 9.1, -2.75)" gradientUnits="userSpaceOnUse" id="gradient28" r="819.2" spreadMethod="pad">
      <stop offset="0.0" stop-color="#ffd079"/>
      <stop offset="1.0" stop-color="#dfa05d"/>
    </radialGradient>
    <radialGradient cx="0" cy="0" gradientTransform="matrix(0.004, 0.0, 0.0, 0.004, 10.65, 1.3)" gradientUnits="userSpaceOnUse" id="gradient29" r="819.2" spreadMethod="pad">
      <stop offset="0.0" stop-color="#736b53"/>
      <stop offset="1.0" stop-color="#3a362a"/>
    </radialGradient>
    <radialGradient cx="0" cy="0" gradientTransform="matrix(0.0034, 0.0, 0.0, 0.0034, 10.45, -0.5)" gradientUnits="userSpaceOnUse" id="gradient30" r="819.2" spreadMethod="pad">
      <stop offset="0.0" stop-color="#ffffff"/>
      <stop offset="1.0" stop-color="#b0b0b0"/>
    </radialGradient>
    <radialGradient cx="0" cy="0" gradientTransform="matrix(0.0047, 0.0, 0.0, 0.0047, 12.55, 5.0)" gradientUnits="userSpaceOnUse" id="gradient31" r="819.2" spreadMethod="pad">
      <stop offset="0.0" stop-color="#746c54"/>
      <stop offset="1.0" stop-color="#4a4536"/>
    </radialGradient>
    <radialGradient cx="0" cy="0" gradientTransform="matrix(0.0057, 0.0, 0.0, 0.0057, 8.0, 4.25)" gradientUnits="userSpaceOnUse" id="gradient32" r="819.2" spreadMethod="pad">
      <stop offset="0.0" stop-color="#de3131"/>
      <stop offset="1.0" stop-color="#962121"/>
    </radialGradient>
    <radialGradient cx="0" cy="0" gradientTransform="matrix(0.0062, 0.0, 0.0, 0.0062, 11.25, 2.45)" gradientUnits="userSpaceOnUse" id="gradient33" r="819.2" spreadMethod="pad">
      <stop offset="0.0" stop-color="#e53333"/>
      <stop offset="1.0" stop-color="#aa2626"/>
    </radialGradient>
    <radialGradient cx="0" cy="0" gradientTransform="matrix(0.0053, 0.0, 0.0, 0.0053, 8.8, 3.7)" gradientUnits="userSpaceOnUse" id="gradient34" r="819.2" spreadMethod="pad">
      <stop offset="0.0" stop-color="#726b53"/>
      <stop offset="1.0" stop-color="#433e31"/>
    </radialGradient>
    <radialGradient cx="0" cy="0" gradientTransform="matrix(0.0083, 0.0, 0.0, 0.0083, -3.35, -58.35)" gradientUnits="userSpaceOnUse" id="gradient35" r="819.2" spreadMethod="pad">
      <stop offset="0.0" stop-color="#d93030"/>
      <stop offset="1.0" stop-color="#c52c2c"/>
    </radialGradient>
    <radialGradient cx="0" cy="0" gradientTransform="matrix(0.0039, 0.0, 0.0, 0.0039, -2.9, -55.65)" gradientUnits="userSpaceOnUse" id="gradient36" r="819.2" spreadMethod="pad">
      <stop offset="0.0" stop-color="#df3232"/>
      <stop offset="1.0" stop-color="#dd3131"/>
    </radialGradient>
    <radialGradient cx="0" cy="0" gradientTransform="matrix(0.0039, 0.0, 0.0, 0.0039, -2.9, -55.65)" gradientUnits="userSpaceOnUse" id="gradient37" r="819.2" spreadMethod="pad">
      <stop offset="0.0" stop-color="#a62525"/>
      <stop offset="1.0" stop-color="#9f2323"/>
    </radialGradient>
    <radialGradient cx="0" cy="0" gradientTransform="matrix(0.0045, 0.0, 0.0, 0.0045, -3.45, -56.1)" gradientUnits="userSpaceOnUse" id="gradient38" r="819.2" spreadMethod="pad">
      <stop offset="0.0" stop-color="#982222"/>
      <stop offset="1.0" stop-color="#942121"/>
    </radialGradient>
    <radialGradient cx="0" cy="0" gradientTransform="matrix(0.0074, 0.0, 0.0, 0.0074, -6.15, -54.7)" gradientUnits="userSpaceOnUse" id="gradient39" r="819.2" spreadMethod="pad">
      <stop offset="0.0" stop-color="#9f2323"/>
      <stop offset="1.0" stop-color="#912020"/>
    </radialGradient>
    <radialGradient cx="0" cy="0" gradientTransform="matrix(0.0092, 0.0, 0.0, 0.0092, -5.7, -53.25)" gradientUnits="userSpaceOnUse" id="gradient40" r="819.2" spreadMethod="pad">
      <stop offset="0.0" stop-color="#f33636"/>
      <stop offset="1.0" stop-color="#ed3535"/>
    </radialGradient>
    <radialGradient cx="0" cy="0" gradientTransform="matrix(0.009, 0.0, 0.0, 0.009, -7.65, -50.3)" gradientUnits="userSpaceOnUse" id="gradient41" r="819.2" spreadMethod="pad">
      <stop offset="0.0" stop-color="#ea3434"/>
      <stop offset="1.0" stop-color="#da3030"/>
    </radialGradient>
    <radialGradient cx="0" cy="0" gradientTransform="matrix(0.0039, 0.0, 0.0, 0.0039, -4.25, -52.2)" gradientUnits="userSpaceOnUse" id="gradient42" r="819.2" spreadMethod="pad">
      <stop offset="0.0" stop-color="#b72929"/>
      <stop offset="1.0" stop-color="#b22828"/>
    </radialGradient>
    <radialGradient cx="0" cy="0" gradientTransform="matrix(0.0066, 0.0, 0.0, 0.0066, -8.2, -51.7)" gradientUnits="userSpaceOnUse" id="gradient43" r="819.2" spreadMethod="pad">
      <stop offset="0.0" stop-color="#a02323"/>
      <stop offset="1.0" stop-color="#912020"/>
    </radialGradient>
    <radialGradient cx="0" cy="0" gradientTransform="matrix(0.0014, 0.0, 0.0, 0.0014, -8.25, -50.2)" gradientUnits="userSpaceOnUse" id="gradient44" r="819.2" spreadMethod="pad">
      <stop offset="0.0" stop-color="#8c1f1f"/>
      <stop offset="1.0" stop-color="#8a1f1f"/>
    </radialGradient>
    <radialGradient cx="0" cy="0" gradientTransform="matrix(0.0048, 0.0, 0.0, 0.0048, -5.6, -46.9)" gradientUnits="userSpaceOnUse" id="gradient45" r="819.2" spreadMethod="pad">
      <stop offset="0.0" stop-color="#aeaeae"/>
      <stop offset="1.0" stop-color="#ababab"/>
    </radialGradient>
    <radialGradient cx="0" cy="0" gradientTransform="matrix(0.006, 0.0, 0.0, 0.006, -7.9, -54.15)" gradientUnits="userSpaceOnUse" id="gradient46" r="819.2" spreadMethod="pad">
      <stop offset="0.0" stop-color="#942121"/>
      <stop offset="1.0" stop-color="#2c0909"/>
    </radialGradient>
    <radialGradient cx="0" cy="0" gradientTransform="matrix(0.0073, 0.0, 0.0, 0.0073, -6.85, -49.3)" gradientUnits="userSpaceOnUse" id="gradient47" r="819.2" spreadMethod="pad">
      <stop offset="0.0" stop-color="#cd2d2d"/>
      <stop offset="1.0" stop-color="#8e1f1f"/>
    </radialGradient>
    <radialGradient cx="0" cy="0" gradientTransform="matrix(0.0059, 0.0, 0.0, 0.0059, -0.35, -56.7)" gradientUnits="userSpaceOnUse" id="gradient48" r="819.2" spreadMethod="pad">
      <stop offset="0.0" stop-color="#d63030"/>
      <stop offset="1.0" stop-color="#c92c2c"/>
    </radialGradient>
    <radialGradient cx="0" cy="0" gradientTransform="matrix(0.0024, 0.0, 0.0, 0.0024, -5.35, -51.2)" gradientUnits="userSpaceOnUse" id="gradient49" r="819.2" spreadMethod="pad">
      <stop offset="0.0" stop-color="#5e1515"/>
      <stop offset="1.0" stop-color="#1f0707"/>
    </radialGradient>
    <radialGradient cx="0" cy="0" gradientTransform="matrix(0.0043, 0.0, 0.0, 0.0043, -4.1, -45.5)" gradientUnits="userSpaceOnUse" id="gradient50" r="819.2" spreadMethod="pad">
      <stop offset="0.0" stop-color="#ca8e53"/>
      <stop offset="1.0" stop-color="#876038"/>
    </radialGradient>
    <radialGradient cx="0" cy="0" gradientTransform="matrix(0.0067, 0.0, 0.0, 0.0067, -3.95, -36.2)" gradientUnits="userSpaceOnUse" id="gradient51" r="819.2" spreadMethod="pad">
      <stop offset="0.0" stop-color="#ffd97f"/>
      <stop offset="1.0" stop-color="#ae7b47"/>
    </radialGradient>
    <radialGradient cx="0" cy="0" gradientTransform="matrix(0.0032, 0.0, 0.0, 0.0032, -2.15, -42.3)" gradientUnits="userSpaceOnUse" id="gradient52" r="819.2" spreadMethod="pad">
      <stop offset="0.0" stop-color="#feb368"/>
      <stop offset="1.0" stop-color="#c1884f"/>
    </radialGradient>
    <radialGradient cx="0" cy="0" gradientTransform="matrix(0.0144, 0.0, 0.0, 0.0144, -5.1, -23.4)" gradientUnits="userSpaceOnUse" id="gradient53" r="819.2" spreadMethod="pad">
      <stop offset="0.0" stop-color="#9b8d8d"/>
      <stop offset="1.0" stop-color="#574f4f"/>
    </radialGradient>
    <radialGradient cx="0" cy="0" gradientTransform="matrix(0.0061, 0.0, 0.0, 0.0061, -5.3, -28.5)" gradientUnits="userSpaceOnUse" id="gradient54" r="819.2" spreadMethod="pad">
      <stop offset="0.0" stop-color="#3a362a"/>
      <stop offset="1.0" stop-color="#0c0c09"/>
    </radialGradient>
    <radialGradient cx="0" cy="0" gradientTransform="matrix(0.0018, 0.0, 0.0, 0.0018, -5.5, -28.2)" gradientUnits="userSpaceOnUse" id="gradient55" r="819.2" spreadMethod="pad">
      <stop offset="0.0" stop-color="#3d3a2d"/>
      <stop offset="1.0" stop-color="#353227"/>
    </radialGradient>
    <radialGradient cx="0" cy="0" gradientTransform="matrix(0.0097, 0.0, 0.0, 0.0097, -4.05, -24.15)" gradientUnits="userSpaceOnUse" id="gradient56" r="819.2" spreadMethod="pad">
      <stop offset="0.0" stop-color="#867a7a"/>
      <stop offset="1.0" stop-color="#484141"/>
    </radialGradient>
    <radialGradient cx="0" cy="0" gradientTransform="matrix(0.0107, 0.0, 0.0, 0.0107, -10.8, -19.85)" gradientUnits="userSpaceOnUse" id="gradient57" r="819.2" spreadMethod="pad">
      <stop offset="0.0" stop-color="#4a4444"/>
      <stop offset="1.0" stop-color="#121010"/>
    </radialGradient>
    <radialGradient cx="0" cy="0" gradientTransform="matrix(0.012, 0.0, 0.0, 0.012, -5.8, -14.05)" gradientUnits="userSpaceOnUse" id="gradient58" r="819.2" spreadMethod="pad">
      <stop offset="0.0" stop-color="#726868"/>
      <stop offset="1.0" stop-color="#494242"/>
    </radialGradient>
    <radialGradient cx="0" cy="0" gradientTransform="matrix(9.0E-4, 0.0, 0.0, 9.0E-4, -2.25, -13.2)" gradientUnits="userSpaceOnUse" id="gradient59" r="819.2" spreadMethod="pad">
      <stop offset="0.0" stop-color="#df9d5b"/>
      <stop offset="1.0" stop-color="#ac7946"/>
    </radialGradient>
    <radialGradient cx="0" cy="0" gradientTransform="matrix(0.0065, 0.0, 0.0, 0.0065, -12.25, -13.7)" gradientUnits="userSpaceOnUse" id="gradient60" r="819.2" spreadMethod="pad">
      <stop offset="0.0" stop-color="#4a4343"/>
      <stop offset="1.0" stop-color="#474141"/>
    </radialGradient>
    <radialGradient cx="0" cy="0" gradientTransform="matrix(0.0044, 0.0, 0.0, 0.0044, -12.3, -3.7)" gradientUnits="userSpaceOnUse" id="gradient61" r="819.2" spreadMethod="pad">
      <stop offset="0.0" stop-color="#6f6851"/>
      <stop offset="1.0" stop-color="#3b382b"/>
    </radialGradient>
    <radialGradient cx="0" cy="0" gradientTransform="matrix(0.0055, 0.0, 0.0, 0.0055, -12.9, -3.1)" gradientUnits="userSpaceOnUse" id="gradient62" r="819.2" spreadMethod="pad">
      <stop offset="0.0" stop-color="#ff3939"/>
      <stop offset="1.0" stop-color="#b32727"/>
    </radialGradient>
    <radialGradient cx="0" cy="0" gradientTransform="matrix(0.005, 0.0, 0.0, 0.005, -8.45, -2.1)" gradientUnits="userSpaceOnUse" id="gradient63" r="819.2" spreadMethod="pad">
      <stop offset="0.0" stop-color="#756e55"/>
      <stop offset="1.0" stop-color="#3d392c"/>
    </radialGradient>
    <radialGradient cx="0" cy="0" gradientTransform="matrix(0.0038, 0.0, 0.0, 0.0038, -8.55, -5.3)" gradientUnits="userSpaceOnUse" id="gradient64" r="819.2" spreadMethod="pad">
      <stop offset="0.0" stop-color="#7f5934"/>
      <stop offset="1.0" stop-color="#5e4226"/>
    </radialGradient>
    <radialGradient cx="0" cy="0" gradientTransform="matrix(0.0054, 0.0, 0.0, 0.0054, -9.2, -5.25)" gradientUnits="userSpaceOnUse" id="gradient65" r="819.2" spreadMethod="pad">
      <stop offset="0.0" stop-color="#ffffff"/>
      <stop offset="1.0" stop-color="#959595"/>
    </radialGradient>
    <radialGradient cx="0" cy="0" gradientTransform="matrix(0.0043, 0.0, 0.0, 0.0043, -9.1, -5.55)" gradientUnits="userSpaceOnUse" id="gradient66" r="819.2" spreadMethod="pad">
      <stop offset="0.0" stop-color="#9f7041"/>
      <stop offset="1.0" stop-color="#92673c"/>
    </radialGradient>
    <radialGradient cx="0" cy="0" gradientTransform="matrix(0.0057, 0.0, 0.0, 0.0057, -6.9, -0.6)" gradientUnits="userSpaceOnUse" id="gradient67" r="819.2" spreadMethod="pad">
      <stop offset="0.0" stop-color="#67604b"/>
      <stop offset="1.0" stop-color="#403b2e"/>
    </radialGradient>
    <radialGradient cx="0" cy="0" gradientTransform="matrix(0.0058, 0.0, 0.0, 0.0058, -10.5, -1.7)" gradientUnits="userSpaceOnUse" id="gradient68" r="819.2" spreadMethod="pad">
      <stop offset="0.0" stop-color="#821d1d"/>
      <stop offset="1.0" stop-color="#6e1818"/>
    </radialGradient>
  </defs>
</svg>
