<?xml version="1.0" encoding="UTF-8" standalone="no"?>
<svg xmlns:ffdec="https://www.free-decompiler.com/flash" xmlns:xlink="http://www.w3.org/1999/xlink" ffdec:objectType="shape" height="69.8px" width="28.55px" xmlns="http://www.w3.org/2000/svg">
  <g transform="matrix(1.0, 0.0, 0.0, 1.0, 14.8, 63.15)">
    <path d="M-0.75 -56.95 L-0.9 -56.55 -1.25 -56.65 -1.45 -56.55 -2.65 -56.95 -2.9 -56.85 -2.8 -57.25 -2.3 -57.65 -1.9 -58.05 -0.3 -59.4 0.4 -59.65 0.15 -58.8 -0.6 -57.3 -0.7 -57.05 -0.75 -56.95" fill="url(#gradient0)" fill-rule="evenodd" stroke="none"/>
    <path d="M0.75 -55.95 L1.2 -55.7 2.75 -54.8 3.15 -54.5 3.05 -54.45 -0.75 -56.3 -1.25 -56.65 -0.9 -56.55 -0.75 -56.95 -0.65 -56.95 0.75 -55.95" fill="url(#gradient1)" fill-rule="evenodd" stroke="none"/>
    <path d="M1.2 -55.7 L0.75 -55.95 2.25 -57.55 2.2 -57.15 1.2 -55.7" fill="url(#gradient2)" fill-rule="evenodd" stroke="none"/>
    <path d="M0.75 -55.95 L-0.65 -56.95 1.55 -57.55 2.25 -57.55 0.75 -55.95" fill="url(#gradient3)" fill-rule="evenodd" stroke="none"/>
    <path d="M2.05 -51.25 L1.95 -50.4 Q1.15 -50.0 0.65 -48.9 L0.0 -49.0 -1.45 -48.3 -1.55 -48.45 -3.35 -48.7 -3.55 -48.25 -4.95 -48.75 -5.05 -49.6 -5.2 -49.65 -7.3 -50.75 -7.4 -50.8 -7.6 -51.25 -7.6 -51.3 -7.55 -52.05 -7.5 -52.45 -6.85 -52.55 -7.0 -52.45 -7.1 -52.3 -6.9 -52.0 -6.5 -52.15 -6.5 -52.45 -6.7 -52.65 -6.45 -53.6 -5.55 -53.75 -5.45 -53.6 -4.75 -54.0 -3.4 -55.4 -4.15 -55.65 -5.65 -55.65 -5.65 -55.85 -4.05 -56.7 -3.15 -56.75 -2.9 -56.85 -2.65 -56.95 -1.45 -56.55 -0.4 -56.05 1.45 -54.6 2.1 -53.15 2.05 -51.25 M-6.5 -50.7 L-6.3 -50.8 -6.2 -51.35 -6.65 -51.05 -6.7 -50.8 -6.5 -50.7 M-2.7 -50.65 L-1.35 -50.45 -0.65 -50.55 -0.4 -50.75 -1.45 -51.35 -2.0 -51.5 -4.35 -51.3 -2.7 -50.65 M-1.2 -47.8 L-1.75 -47.5 -2.7 -47.4 -2.85 -47.6 -1.2 -47.8" fill="url(#gradient4)" fill-rule="evenodd" stroke="none"/>
    <path d="M-5.2 -49.65 L-5.05 -49.6 -4.95 -48.75 -3.55 -48.25 -3.35 -48.7 -1.55 -48.45 -1.45 -48.3 0.0 -49.0 0.65 -48.9 Q1.15 -50.0 1.95 -50.4 L2.05 -51.25 1.95 -49.8 1.55 -49.3 1.45 -49.2 1.25 -49.3 0.35 -48.45 0.2 -48.3 -1.2 -47.8 -2.85 -47.6 -4.9 -47.7 -6.6 -48.4 -6.65 -48.45 Q-7.45 -48.8 -7.65 -49.9 L-7.8 -51.6 -7.6 -51.3 -7.6 -51.25 -7.4 -50.8 -7.3 -50.75 -6.5 -50.05 -5.2 -49.65" fill="url(#gradient5)" fill-rule="evenodd" stroke="none"/>
    <path d="M-1.25 -56.65 L-0.75 -56.3 3.05 -54.45 1.45 -54.6 -0.4 -56.05 -1.45 -56.55 -1.25 -56.65" fill="url(#gradient6)" fill-rule="evenodd" stroke="none"/>
    <path d="M12.5 -42.45 Q14.75 -39.4 13.0 -37.25 L12.75 -37.85 12.15 -38.1 11.9 -39.3 11.6 -39.9 11.5 -40.45 11.6 -40.65 12.25 -41.55 12.5 -42.45" fill="url(#gradient7)" fill-rule="evenodd" stroke="none"/>
    <path d="M5.35 -47.6 Q12.0 -49.95 12.5 -42.45 L12.25 -41.55 11.6 -40.65 11.5 -40.45 11.25 -40.3 10.35 -39.7 10.45 -40.2 10.25 -40.65 8.0 -44.25 Q7.8 -45.6 6.85 -46.8 L6.4 -47.15 5.35 -47.6" fill="url(#gradient8)" fill-rule="evenodd" stroke="none"/>
    <path d="M11.25 -40.3 L11.5 -40.45 11.6 -39.9 11.25 -40.3" fill="url(#gradient9)" fill-rule="evenodd" stroke="none"/>
    <path d="M3.4 -47.65 L5.35 -47.6 6.4 -47.15 6.85 -46.8 Q7.8 -45.6 8.0 -44.25 L10.25 -40.65 10.45 -40.2 10.35 -39.7 10.2 -38.4 8.45 -35.75 8.0 -34.6 7.25 -34.0 6.5 -33.3 5.3 -31.85 Q2.15 -30.25 1.25 -28.85 -1.0 -27.45 -3.5 -28.25 L-3.55 -28.85 -3.9 -29.85 Q-2.1 -30.45 -1.45 -35.7 L-1.5 -35.95 -1.95 -36.05 -2.1 -35.95 Q-2.35 -37.55 -2.95 -38.45 L-3.65 -39.35 -4.85 -39.95 Q-5.55 -40.25 -6.25 -39.95 L-6.05 -40.65 -5.05 -42.35 -4.15 -43.55 -3.15 -44.55 -2.3 -44.35 1.95 -44.0 1.95 -43.95 3.75 -37.4 4.05 -34.8 4.8 -34.8 5.05 -34.95 4.75 -37.6 3.05 -43.9 3.05 -44.3 Q3.65 -45.2 3.65 -46.2 4.3 -45.95 5.8 -43.7 L7.15 -41.15 7.75 -39.35 Q8.7 -36.2 8.4 -40.35 L7.75 -41.7 5.5 -45.3 3.4 -47.65" fill="url(#gradient10)" fill-rule="evenodd" stroke="none"/>
    <path d="M11.6 -39.9 L11.9 -39.3 12.15 -38.1 12.1 -37.05 Q11.85 -35.95 11.35 -35.5 L10.65 -35.1 9.95 -35.1 9.55 -35.15 8.45 -35.75 10.2 -38.4 10.35 -39.7 11.25 -40.3 11.6 -39.9" fill="url(#gradient11)" fill-rule="evenodd" stroke="none"/>
    <path d="M13.0 -37.25 L13.05 -36.45 12.95 -35.85 12.6 -35.3 12.25 -35.05 11.85 -35.05 11.35 -35.5 Q11.85 -35.95 12.1 -37.05 L12.15 -38.1 12.75 -37.85 13.0 -37.25" fill="url(#gradient12)" fill-rule="evenodd" stroke="none"/>
    <path d="M1.55 -49.3 L2.4 -48.55 1.45 -49.2 1.55 -49.3 M-3.15 -44.55 L-3.25 -45.7 -3.1 -46.5 -1.75 -47.5 -1.2 -47.8 0.2 -48.3 1.4 -45.6 1.95 -44.0 -2.3 -44.35 -3.15 -44.55 M0.7 -48.25 L1.35 -47.9 2.4 -47.25 3.65 -46.2 Q3.65 -45.2 3.05 -44.3 L3.05 -43.9 1.35 -47.9 0.8 -48.0 0.7 -48.25" fill="url(#gradient13)" fill-rule="evenodd" stroke="none"/>
    <path d="M2.4 -48.55 L3.4 -47.65 5.5 -45.3 7.75 -41.7 8.4 -40.35 Q8.7 -36.2 7.75 -39.35 L7.15 -41.15 5.8 -43.7 Q4.3 -45.95 3.65 -46.2 L2.4 -47.25 1.35 -47.9 0.7 -48.25 0.35 -48.45 1.25 -49.3 1.45 -49.2 2.4 -48.55" fill="url(#gradient14)" fill-rule="evenodd" stroke="none"/>
    <path d="M0.35 -48.45 L0.7 -48.25 0.8 -48.0 1.35 -47.9 3.05 -43.9 4.75 -37.6 5.05 -34.95 4.8 -34.8 4.05 -34.8 3.75 -37.4 1.95 -43.95 1.95 -44.0 1.4 -45.6 0.2 -48.3 0.35 -48.45" fill="url(#gradient15)" fill-rule="evenodd" stroke="none"/>
    <path d="M12.6 -35.25 L12.1 -33.6 Q10.1 -31.5 9.85 -31.55 L8.75 -30.65 Q7.85 -30.8 7.7 -31.45 L7.3 -32.8 7.4 -33.15 7.45 -33.7 7.25 -34.0 8.0 -34.6 8.45 -35.75 9.55 -35.15 9.95 -35.1 Q11.2 -33.1 12.6 -35.25" fill="url(#gradient16)" fill-rule="evenodd" stroke="none"/>
    <path d="M7.4 -33.15 L7.3 -32.8 7.7 -31.45 7.1 -31.05 5.8 -30.75 5.55 -30.95 5.3 -31.8 5.3 -31.85 6.5 -33.3 7.4 -33.15" fill="url(#gradient17)" fill-rule="evenodd" stroke="none"/>
    <path d="M5.3 -31.8 L5.55 -30.95 5.65 -30.55 5.55 -28.85 Q2.95 -26.65 2.7 -25.95 L2.45 -25.7 2.15 -25.75 0.95 -24.65 -4.25 -24.85 -3.6 -26.55 Q-2.5 -25.9 -1.55 -26.05 L1.45 -26.4 Q3.05 -27.35 4.25 -28.85 5.9 -28.9 5.3 -31.8" fill="url(#gradient18)" fill-rule="evenodd" stroke="none"/>
    <path d="M5.3 -31.85 L5.3 -31.8 Q5.9 -28.9 4.25 -28.85 3.05 -27.35 1.45 -26.4 L-1.55 -26.05 Q-2.5 -25.9 -3.6 -26.55 L-3.5 -28.25 Q-1.0 -27.45 1.25 -28.85 2.15 -30.25 5.3 -31.85" fill="url(#gradient19)" fill-rule="evenodd" stroke="none"/>
    <path d="M9.85 -31.55 Q9.9 -28.9 6.75 -28.85 L5.8 -30.75 7.1 -31.05 7.7 -31.45 Q7.85 -30.8 8.75 -30.65 L9.85 -31.55 M7.25 -34.0 L7.45 -33.7 7.4 -33.15 6.5 -33.3 7.25 -34.0" fill="url(#gradient20)" fill-rule="evenodd" stroke="none"/>
    <path d="M-4.25 -24.85 L0.95 -24.65 2.15 -25.75 2.45 -25.7 2.7 -25.95 2.95 -24.45 Q2.85 -22.45 2.15 -21.25 L1.35 -20.0 Q-2.65 -15.8 -5.7 -22.15 L-5.6 -22.4 Q-5.2 -22.55 -4.75 -23.55 L-4.55 -24.5 -4.25 -24.85" fill="url(#gradient21)" fill-rule="evenodd" stroke="none"/>
    <path d="M6.75 -28.85 L7.0 -26.9 Q7.15 -22.75 2.15 -21.25 2.85 -22.45 2.95 -24.45 L2.7 -25.95 Q2.95 -26.65 5.55 -28.85 L5.65 -30.55 5.55 -30.95 5.8 -30.75 6.75 -28.85" fill="url(#gradient22)" fill-rule="evenodd" stroke="none"/>
    <path d="M7.0 -26.9 L7.65 -24.9 7.95 -22.25 Q8.35 -16.5 1.65 -17.65 L1.35 -20.0 2.15 -21.25 Q7.15 -22.75 7.0 -26.9" fill="url(#gradient23)" fill-rule="evenodd" stroke="none"/>
    <path d="M12.6 -35.3 L12.6 -35.25 Q11.2 -33.1 9.95 -35.1 L10.65 -35.1 11.35 -35.5 11.85 -35.05 12.25 -35.05 12.6 -35.3" fill="url(#gradient24)" fill-rule="evenodd" stroke="none"/>
    <path d="M7.95 -22.25 L8.3 -21.1 9.0 -14.1 9.05 -13.8 9.05 -13.4 Q6.2 -8.85 3.1 -9.4 L1.8 -17.05 1.65 -17.3 1.65 -17.65 Q8.35 -16.5 7.95 -22.25" fill="url(#gradient25)" fill-rule="evenodd" stroke="none"/>
    <path d="M-9.75 -8.9 L-10.05 -15.7 -9.45 -16.55 -9.2 -15.4 Q-7.95 -15.1 -8.3 -14.55 L-8.55 -14.85 -9.7 -13.5 -9.25 -8.0 -9.65 -8.65 -9.7 -8.75 -9.7 -8.85 -9.75 -8.9 M1.65 -17.3 L1.8 -17.05 3.1 -9.4 3.15 -8.55 2.55 -7.35 Q1.1 -5.95 -0.5 -5.25 -1.85 -4.3 -4.2 -4.6 L-5.95 -5.25 -6.15 -5.3 -7.0 -8.3 -7.0 -11.7 -8.2 -14.4 Q0.85 -9.75 1.7 -17.05 L1.65 -17.3" fill="url(#gradient26)" fill-rule="evenodd" stroke="none"/>
    <path d="M-5.7 -22.15 Q-2.65 -15.8 1.35 -20.0 L1.65 -17.65 1.65 -17.3 1.7 -17.05 Q0.85 -9.75 -8.2 -14.4 L-8.3 -14.55 Q-7.95 -15.1 -9.2 -15.4 L-9.45 -16.55 -9.25 -17.05 -9.1 -17.95 Q-7.9 -18.8 -7.2 -19.75 L-6.85 -21.05 -5.9 -21.85 -5.7 -22.15" fill="url(#gradient27)" fill-rule="evenodd" stroke="none"/>
    <path d="M5.75 -8.05 L5.5 -7.3 5.05 -6.75 4.75 -6.5 4.65 -6.5 4.2 -6.55 4.5 -7.75 5.75 -8.05" fill="url(#gradient28)" fill-rule="evenodd" stroke="none"/>
    <path d="M4.5 -7.75 L4.2 -6.55 3.7 -5.9 2.85 -5.8 3.2 -7.6 3.7 -7.55 4.5 -7.75" fill="url(#gradient29)" fill-rule="evenodd" stroke="none"/>
    <path d="M9.05 -13.4 Q9.6 -10.1 5.75 -8.05 L4.5 -7.75 3.7 -7.55 3.2 -7.6 3.15 -8.55 3.1 -9.4 Q6.2 -8.85 9.05 -13.4" fill="url(#gradient30)" fill-rule="evenodd" stroke="none"/>
    <path d="M-5.0 -3.25 L-7.8 -3.95 Q-9.35 -6.1 -9.7 -8.65 L-9.65 -8.65 -9.25 -8.0 -9.7 -13.5 -8.55 -14.85 -8.3 -14.55 -8.2 -14.4 -7.0 -11.7 -7.0 -8.3 -6.15 -5.3 -5.95 -5.25 -4.2 -4.6 Q-1.85 -4.3 -0.5 -5.25 1.1 -5.95 2.55 -7.35 L3.15 -8.55 3.2 -7.6 2.85 -5.8 2.35 -5.25 2.3 -5.1 1.7 -4.5 1.45 -4.15 0.0 -3.55 -0.85 -3.25 -2.7 -2.75 -4.85 -3.15 -5.0 -3.25 M-9.7 -8.75 L-9.75 -8.85 -9.7 -8.85 -9.7 -8.75" fill="url(#gradient31)" fill-rule="evenodd" stroke="none"/>
    <path d="M5.05 -6.75 Q6.65 -4.75 5.5 -2.85 2.2 -0.5 0.45 -2.65 L0.0 -3.5 0.0 -3.55 1.45 -4.15 1.7 -4.5 Q4.2 -2.7 5.15 -5.25 L5.05 -5.85 4.75 -6.5 5.05 -6.75" fill="url(#gradient32)" fill-rule="evenodd" stroke="none"/>
    <path d="M4.65 -6.5 L4.75 -6.5 5.05 -5.85 5.15 -5.25 Q4.2 -2.7 1.7 -4.5 L2.3 -5.1 3.6 -4.9 4.25 -5.25 4.65 -5.8 4.65 -6.5" fill="url(#gradient33)" fill-rule="evenodd" stroke="none"/>
    <path d="M4.2 -6.55 L4.65 -6.5 4.65 -5.8 4.25 -5.25 3.6 -4.9 2.3 -5.1 2.35 -5.25 2.85 -5.8 3.7 -5.9 4.2 -6.55" fill="url(#gradient34)" fill-rule="evenodd" stroke="none"/>
    <path d="M0.0 -3.5 L0.45 -2.65 0.7 -1.15 0.9 -0.75 0.2 -0.45 -0.2 -1.75 -0.8 -2.3 -0.4 -2.7 0.0 -3.5" fill="url(#gradient35)" fill-rule="evenodd" stroke="none"/>
    <path d="M5.55 -1.9 Q6.35 4.5 0.2 0.4 L0.2 -0.45 0.9 -0.75 Q2.45 1.75 5.55 -1.9" fill="url(#gradient36)" fill-rule="evenodd" stroke="none"/>
    <path d="M5.5 -2.85 L5.55 -1.9 Q2.45 1.75 0.9 -0.75 L0.7 -1.15 0.45 -2.65 Q2.2 -0.5 5.5 -2.85" fill="url(#gradient37)" fill-rule="evenodd" stroke="none"/>
    <path d="M0.2 0.4 L0.1 1.05 -0.2 1.7 Q-1.1 4.05 -5.35 2.2 L-5.95 0.9 -6.0 -0.5 -5.95 -0.55 -5.45 -1.8 -4.95 -2.3 -4.9 -2.1 Q-6.35 -0.85 -3.15 0.95 0.5 0.55 -1.15 -1.75 L-1.2 -1.95 -1.1 -2.2 -0.8 -2.3 -0.2 -1.75 0.2 -0.45 0.2 0.4" fill="url(#gradient38)" fill-rule="evenodd" stroke="none"/>
    <path d="M-7.4 -63.15 L-6.75 -61.9 -5.3 -57.55 -5.5 -57.15 -6.3 -59.6 -6.5 -60.35 -7.4 -63.15" fill="url(#gradient39)" fill-rule="evenodd" stroke="none"/>
    <path d="M-2.15 -61.8 L-2.0 -61.45 -1.9 -58.05 -2.3 -57.65 -2.15 -61.8" fill="url(#gradient40)" fill-rule="evenodd" stroke="none"/>
    <path d="M-2.9 -56.85 L-3.15 -56.75 -2.75 -59.95 -2.75 -61.3 -2.65 -61.2 -2.8 -57.25 -2.9 -56.85" fill="url(#gradient41)" fill-rule="evenodd" stroke="none"/>
    <path d="M-3.15 -56.75 L-4.05 -56.7 -5.65 -55.85 -5.8 -56.6 -5.5 -57.15 -5.3 -57.55 -3.75 -60.2 -2.75 -61.3 -2.75 -59.95 -3.15 -56.75" fill="url(#gradient42)" fill-rule="evenodd" stroke="none"/>
    <path d="M-2.65 -61.2 L-2.35 -61.7 -2.25 -61.9 -2.15 -61.8 -2.3 -57.65 -2.8 -57.25 -2.65 -61.2" fill="url(#gradient43)" fill-rule="evenodd" stroke="none"/>
    <path d="M-7.75 -55.25 Q-8.4 -62.05 -7.4 -63.15 L-6.5 -60.35 -6.65 -60.7 -6.85 -60.35 -7.3 -57.8 -7.4 -57.75 -7.4 -57.4 -7.45 -57.35 -7.45 -57.15 -7.5 -56.95 -7.5 -56.75 -7.75 -55.25 M-5.8 -56.6 L-6.3 -59.6 -5.5 -57.15 -5.8 -56.6" fill="url(#gradient44)" fill-rule="evenodd" stroke="none"/>
    <path d="M-5.65 -55.85 L-5.65 -55.65 -5.95 -55.6 -6.3 -54.85 -6.45 -53.6 -6.7 -52.65 -6.75 -52.65 -7.95 -53.8 -7.5 -56.75 -7.5 -56.95 -7.45 -57.15 -7.45 -57.35 -7.4 -57.4 -7.4 -57.75 -7.3 -57.8 -6.85 -60.35 -6.65 -60.7 -6.5 -60.35 -6.3 -59.6 -5.8 -56.6 -5.65 -55.85" fill="url(#gradient45)" fill-rule="evenodd" stroke="none"/>
    <path d="M-6.7 -52.65 L-6.5 -52.45 -6.5 -52.15 -6.9 -52.0 -7.1 -52.3 -7.0 -52.45 -6.85 -52.55 -6.75 -52.65 -6.7 -52.65 M-6.5 -50.7 L-6.7 -50.8 -6.65 -51.05 -6.2 -51.35 -6.3 -50.8 -6.5 -50.7 M-2.7 -50.65 L-4.35 -51.3 -2.0 -51.5 -1.45 -51.35 -0.4 -50.75 -0.65 -50.55 -1.35 -50.45 -2.7 -50.65" fill="url(#gradient46)" fill-rule="evenodd" stroke="none"/>
    <path d="M-5.65 -55.65 L-4.15 -55.65 -3.4 -55.4 -5.45 -53.6 -5.55 -53.75 -6.45 -53.6 -6.3 -54.85 -5.95 -55.6 -5.65 -55.65" fill="url(#gradient47)" fill-rule="evenodd" stroke="none"/>
    <path d="M-6.85 -52.55 L-7.5 -52.45 -7.55 -52.05 -7.65 -52.15 -7.7 -52.25 -8.2 -53.35 -8.15 -53.6 -7.95 -53.8 -6.75 -52.65 -6.85 -52.55" fill="url(#gradient48)" fill-rule="evenodd" stroke="none"/>
    <path d="M-8.15 -53.6 L-7.75 -55.25 -7.5 -56.75 -7.95 -53.8 -8.15 -53.6" fill="url(#gradient49)" fill-rule="evenodd" stroke="none"/>
    <path d="M-7.55 -52.05 L-7.6 -51.3 -7.8 -51.6 -7.7 -52.15 -7.65 -52.15 -7.55 -52.05 M-7.3 -50.75 L-5.2 -49.65 -6.5 -50.05 -7.3 -50.75" fill="url(#gradient50)" fill-rule="evenodd" stroke="none"/>
    <path d="M-7.7 -52.15 L-7.7 -52.25 -7.65 -52.15 -7.7 -52.15" fill="url(#gradient51)" fill-rule="evenodd" stroke="none"/>
    <path d="M-3.4 -55.4 L-4.75 -54.0 -5.45 -53.6 -3.4 -55.4" fill="url(#gradient52)" fill-rule="evenodd" stroke="none"/>
    <path d="M-3.25 -45.7 Q-5.75 -45.7 -6.6 -48.4 L-4.9 -47.7 -2.85 -47.6 -2.7 -47.4 -1.75 -47.5 -3.1 -46.5 -3.25 -45.7" fill="url(#gradient53)" fill-rule="evenodd" stroke="none"/>
    <path d="M-8.75 -38.45 Q-7.7 -42.35 -4.15 -43.55 L-5.05 -42.35 -6.05 -40.65 -6.25 -39.95 -8.05 -39.15 -8.75 -38.45" fill="url(#gradient54)" fill-rule="evenodd" stroke="none"/>
    <path d="M-10.2 -31.75 Q-11.35 -35.0 -8.75 -38.45 L-8.05 -39.15 -6.25 -39.95 Q-5.55 -40.25 -4.85 -39.95 L-3.65 -39.35 -2.95 -38.45 Q-2.35 -37.55 -2.1 -35.95 L-1.95 -36.05 -1.5 -35.95 -1.45 -35.7 Q-2.1 -30.45 -3.9 -29.85 L-5.05 -29.2 -5.35 -29.2 -5.95 -29.5 -8.75 -29.95 -9.4 -30.3 -9.55 -30.55 -10.2 -31.75" fill="url(#gradient55)" fill-rule="evenodd" stroke="none"/>
    <path d="M-5.35 -29.2 L-5.15 -28.85 -5.15 -28.65 -5.0 -28.1 -5.15 -26.0 -5.5 -24.85 Q-6.05 -23.8 -6.6 -23.5 L-6.85 -23.25 -7.6 -22.95 -8.75 -22.95 -9.15 -23.2 -9.2 -23.25 -9.65 -23.5 Q-11.75 -25.8 -10.7 -28.85 -10.6 -29.8 -9.55 -30.55 L-9.4 -30.3 -8.75 -29.95 -5.95 -29.5 -5.35 -29.2" fill="url(#gradient56)" fill-rule="evenodd" stroke="none"/>
    <path d="M-10.7 -23.95 Q-12.55 -29.0 -10.2 -31.75 L-9.55 -30.55 Q-10.6 -29.8 -10.7 -28.85 -11.75 -25.8 -9.65 -23.5 L-10.3 -23.55 -10.7 -23.95 M-5.15 -28.65 L-5.15 -28.85 -5.35 -29.2 -5.05 -29.2 -5.05 -28.85 -5.15 -28.65 M-9.15 -23.2 L-8.75 -22.95 -8.8 -22.9 -9.15 -23.2" fill="url(#gradient57)" fill-rule="evenodd" stroke="none"/>
    <path d="M-3.5 -28.25 L-3.6 -26.55 -4.25 -24.85 -4.55 -24.5 -4.75 -25.6 -5.15 -26.0 -5.0 -28.1 -5.15 -28.65 -5.05 -28.85 -5.05 -29.2 -3.9 -29.85 -3.55 -28.85 -3.5 -28.25" fill="url(#gradient58)" fill-rule="evenodd" stroke="none"/>
    <path d="M-4.55 -24.5 L-4.75 -23.55 Q-5.2 -22.55 -5.6 -22.4 L-5.95 -22.35 -6.15 -22.55 -6.6 -23.5 Q-6.05 -23.8 -5.5 -24.85 L-5.15 -26.0 -4.75 -25.6 -4.55 -24.5" fill="url(#gradient59)" fill-rule="evenodd" stroke="none"/>
    <path d="M-5.6 -22.4 L-5.7 -22.15 -5.9 -21.85 -6.85 -21.05 Q-8.05 -20.7 -8.8 -22.9 L-8.75 -22.95 -7.6 -22.95 -6.85 -23.25 -6.6 -23.5 -6.15 -22.55 -5.95 -22.35 -5.6 -22.4" fill="url(#gradient60)" fill-rule="evenodd" stroke="none"/>
    <path d="M-12.25 -20.8 Q-12.3 -21.95 -11.9 -22.25 L-10.7 -23.95 -10.3 -23.55 -9.65 -23.5 -9.2 -23.25 -9.15 -23.2 -8.8 -22.9 Q-8.05 -20.7 -6.85 -21.05 L-7.2 -19.75 Q-7.9 -18.8 -9.1 -17.95 L-9.95 -17.2 -11.55 -16.85 -12.75 -18.15 Q-13.05 -18.7 -12.25 -20.4 L-12.25 -20.8" fill="url(#gradient61)" fill-rule="evenodd" stroke="none"/>
    <path d="M-10.05 -15.7 Q-12.95 -14.0 -14.5 -16.5 -15.55 -19.55 -12.6 -20.55 L-12.25 -20.4 Q-13.05 -18.7 -12.75 -18.15 L-11.55 -16.85 -9.95 -17.2 -9.1 -17.95 -9.25 -17.05 -9.45 -16.55 -10.05 -15.7" fill="url(#gradient62)" fill-rule="evenodd" stroke="none"/>
    <path d="M-12.6 -20.55 L-12.25 -20.8 -12.25 -20.4 -12.6 -20.55" fill="url(#gradient63)" fill-rule="evenodd" stroke="none"/>
    <path d="M-9.7 -8.65 L-9.7 -8.75 -9.65 -8.65 -9.7 -8.65 M-9.75 -8.85 L-9.75 -8.9 -9.7 -8.85 -9.75 -8.85" fill="url(#gradient64)" fill-rule="evenodd" stroke="none"/>
    <path d="M-8.3 3.65 Q-12.1 -1.85 -5.45 -1.8 L-5.95 -0.55 -6.0 -0.5 Q-8.3 1.55 -8.3 3.65" fill="url(#gradient65)" fill-rule="evenodd" stroke="none"/>
    <path d="M0.0 -3.55 L0.0 -3.5 -0.4 -2.7 -0.8 -2.3 -1.1 -2.2 -0.85 -3.25 0.0 -3.55" fill="url(#gradient66)" fill-rule="evenodd" stroke="none"/>
    <path d="M-4.95 -2.3 L-5.0 -3.25 -4.85 -3.15 Q-2.7 0.15 -1.2 -1.95 L-1.15 -1.75 Q-0.8 -0.2 -2.9 -0.25 -5.25 -1.1 -4.9 -2.1 L-4.95 -2.3" fill="url(#gradient67)" fill-rule="evenodd" stroke="none"/>
    <path d="M-4.9 -2.1 Q-5.25 -1.1 -2.9 -0.25 -0.8 -0.2 -1.15 -1.75 0.5 0.55 -3.15 0.95 -6.35 -0.85 -4.9 -2.1" fill="url(#gradient68)" fill-rule="evenodd" stroke="none"/>
    <path d="M-0.85 -3.25 L-1.1 -2.2 -1.2 -1.95 Q-2.7 0.15 -4.85 -3.15 L-2.7 -2.75 -0.85 -3.25" fill="url(#gradient69)" fill-rule="evenodd" stroke="none"/>
    <path d="M-0.2 1.7 L-0.15 2.6 Q-1.7 6.1 -4.7 4.35 L-5.15 3.3 -5.35 2.2 Q-1.1 4.05 -0.2 1.7" fill="url(#gradient70)" fill-rule="evenodd" stroke="none"/>
    <path d="M-0.15 2.6 Q1.4 9.05 -5.5 5.25 L-5.35 4.75 -4.7 4.35 Q-1.7 6.1 -0.15 2.6" fill="url(#gradient71)" fill-rule="evenodd" stroke="none"/>
    <path d="M-5.5 5.25 L-5.65 5.3 Q-5.9 4.9 -7.55 4.3 L-8.3 3.65 Q-8.3 1.55 -6.0 -0.5 L-5.95 0.9 -5.35 2.2 -5.15 3.3 -4.7 4.35 -5.35 4.75 -5.5 5.25" fill="url(#gradient72)" fill-rule="evenodd" stroke="none"/>
  </g>
  <defs>
    <radialGradient cx="0" cy="0" gradientTransform="matrix(0.0061, 0.0, 0.0, 0.0061, 0.3, -59.75)" gradientUnits="userSpaceOnUse" id="gradient0" r="819.2" spreadMethod="pad">
      <stop offset="0.0" stop-color="#d83030"/>
      <stop offset="1.0" stop-color="#cb2d2d"/>
    </radialGradient>
    <radialGradient cx="0" cy="0" gradientTransform="matrix(0.0061, 0.0, 0.0, 0.0061, -1.5, -56.65)" gradientUnits="userSpaceOnUse" id="gradient1" r="819.2" spreadMethod="pad">
      <stop offset="0.0" stop-color="#9b2323"/>
      <stop offset="1.0" stop-color="#6c1717"/>
    </radialGradient>
    <radialGradient cx="0" cy="0" gradientTransform="matrix(0.0037, 0.0, 0.0, 0.0037, 2.25, -57.45)" gradientUnits="userSpaceOnUse" id="gradient2" r="819.2" spreadMethod="pad">
      <stop offset="0.0" stop-color="#7e1c1c"/>
      <stop offset="1.0" stop-color="#6d1818"/>
    </radialGradient>
    <radialGradient cx="0" cy="0" gradientTransform="matrix(0.0036, 0.0, 0.0, 0.0036, 1.8, -57.7)" gradientUnits="userSpaceOnUse" id="gradient3" r="819.2" spreadMethod="pad">
      <stop offset="0.0" stop-color="#b82929"/>
      <stop offset="1.0" stop-color="#b52828"/>
    </radialGradient>
    <radialGradient cx="0" cy="0" gradientTransform="matrix(0.0063, 0.0, 0.0, 0.0063, -2.8, -52.2)" gradientUnits="userSpaceOnUse" id="gradient4" r="819.2" spreadMethod="pad">
      <stop offset="0.0" stop-color="#ef3535"/>
      <stop offset="1.0" stop-color="#801c1c"/>
    </radialGradient>
    <radialGradient cx="0" cy="0" gradientTransform="matrix(0.0072, 0.0, 0.0, 0.0072, -3.5, -49.5)" gradientUnits="userSpaceOnUse" id="gradient5" r="819.2" spreadMethod="pad">
      <stop offset="0.0" stop-color="#d1d1d1"/>
      <stop offset="1.0" stop-color="#a3a3a3"/>
    </radialGradient>
    <radialGradient cx="0" cy="0" gradientTransform="matrix(0.006, 0.0, 0.0, 0.006, -1.3, -56.75)" gradientUnits="userSpaceOnUse" id="gradient6" r="819.2" spreadMethod="pad">
      <stop offset="0.0" stop-color="#da3030"/>
      <stop offset="1.0" stop-color="#b22727"/>
    </radialGradient>
    <radialGradient cx="0" cy="0" gradientTransform="matrix(0.0058, 0.0, 0.0, 0.0058, 11.4, -41.7)" gradientUnits="userSpaceOnUse" id="gradient7" r="819.2" spreadMethod="pad">
      <stop offset="0.0" stop-color="#ffdf82"/>
      <stop offset="1.0" stop-color="#a47443"/>
    </radialGradient>
    <radialGradient cx="0" cy="0" gradientTransform="matrix(0.0074, 0.0, 0.0, 0.0074, 7.45, -45.1)" gradientUnits="userSpaceOnUse" id="gradient8" r="819.2" spreadMethod="pad">
      <stop offset="0.0" stop-color="#ffdd80"/>
      <stop offset="1.0" stop-color="#a17242"/>
    </radialGradient>
    <radialGradient cx="0" cy="0" gradientTransform="matrix(0.0028, 0.0, 0.0, 0.0028, 10.4, -41.05)" gradientUnits="userSpaceOnUse" id="gradient9" r="819.2" spreadMethod="pad">
      <stop offset="0.0" stop-color="#ffcf79"/>
      <stop offset="1.0" stop-color="#e6a35e"/>
    </radialGradient>
    <radialGradient cx="0" cy="0" gradientTransform="matrix(0.0154, 0.0, 0.0, 0.0154, -1.2, -40.35)" gradientUnits="userSpaceOnUse" id="gradient10" r="819.2" spreadMethod="pad">
      <stop offset="0.0" stop-color="#ffd37b"/>
      <stop offset="1.0" stop-color="#ab7846"/>
    </radialGradient>
    <radialGradient cx="0" cy="0" gradientTransform="matrix(0.0064, 0.0, 0.0, 0.0064, 9.7, -40.4)" gradientUnits="userSpaceOnUse" id="gradient11" r="819.2" spreadMethod="pad">
      <stop offset="0.0" stop-color="#ffe183"/>
      <stop offset="1.0" stop-color="#7e5934"/>
    </radialGradient>
    <radialGradient cx="0" cy="0" gradientTransform="matrix(0.0039, 0.0, 0.0, 0.0039, 11.95, -38.25)" gradientUnits="userSpaceOnUse" id="gradient12" r="819.2" spreadMethod="pad">
      <stop offset="0.0" stop-color="#ffe787"/>
      <stop offset="1.0" stop-color="#8a6139"/>
    </radialGradient>
    <radialGradient cx="0" cy="0" gradientTransform="matrix(0.0057, 0.0, 0.0, 0.0057, 0.0, -47.35)" gradientUnits="userSpaceOnUse" id="gradient13" r="819.2" spreadMethod="pad">
      <stop offset="0.0" stop-color="#ffd37b"/>
      <stop offset="1.0" stop-color="#dd9c5a"/>
    </radialGradient>
    <radialGradient cx="0" cy="0" gradientTransform="matrix(0.0165, 0.0, 0.0, 0.0165, 0.55, -49.2)" gradientUnits="userSpaceOnUse" id="gradient14" r="819.2" spreadMethod="pad">
      <stop offset="0.0" stop-color="#f2f2f2"/>
      <stop offset="1.0" stop-color="#cacaca"/>
    </radialGradient>
    <radialGradient cx="0" cy="0" gradientTransform="matrix(0.0106, 0.0, 0.0, 0.0106, 2.2, -43.25)" gradientUnits="userSpaceOnUse" id="gradient15" r="819.2" spreadMethod="pad">
      <stop offset="0.0" stop-color="#fcfcfc"/>
      <stop offset="1.0" stop-color="#c4c4c4"/>
    </radialGradient>
    <radialGradient cx="0" cy="0" gradientTransform="matrix(0.0059, 0.0, 0.0, 0.0059, 9.2, -35.4)" gradientUnits="userSpaceOnUse" id="gradient16" r="819.2" spreadMethod="pad">
      <stop offset="0.0" stop-color="#68614c"/>
      <stop offset="1.0" stop-color="#29261e"/>
    </radialGradient>
    <radialGradient cx="0" cy="0" gradientTransform="matrix(0.0024, 0.0, 0.0, 0.0024, 6.85, -32.3)" gradientUnits="userSpaceOnUse" id="gradient17" r="819.2" spreadMethod="pad">
      <stop offset="0.0" stop-color="#fff28d"/>
      <stop offset="1.0" stop-color="#dfab64"/>
    </radialGradient>
    <radialGradient cx="0" cy="0" gradientTransform="matrix(0.0098, 0.0, 0.0, 0.0098, -0.15, -26.0)" gradientUnits="userSpaceOnUse" id="gradient18" r="819.2" spreadMethod="pad">
      <stop offset="0.0" stop-color="#6a634d"/>
      <stop offset="1.0" stop-color="#3c382b"/>
    </radialGradient>
    <radialGradient cx="0" cy="0" gradientTransform="matrix(0.0111, 0.0, 0.0, 0.0111, -2.5, -27.1)" gradientUnits="userSpaceOnUse" id="gradient19" r="819.2" spreadMethod="pad">
      <stop offset="0.0" stop-color="#ffffff"/>
      <stop offset="1.0" stop-color="#b0b0b0"/>
    </radialGradient>
    <radialGradient cx="0" cy="0" gradientTransform="matrix(0.0033, 0.0, 0.0, 0.0033, 7.15, -31.4)" gradientUnits="userSpaceOnUse" id="gradient20" r="819.2" spreadMethod="pad">
      <stop offset="0.0" stop-color="#6f6850"/>
      <stop offset="1.0" stop-color="#383428"/>
    </radialGradient>
    <radialGradient cx="0" cy="0" gradientTransform="matrix(0.0091, 0.0, 0.0, 0.0091, -2.3, -25.6)" gradientUnits="userSpaceOnUse" id="gradient21" r="819.2" spreadMethod="pad">
      <stop offset="0.0" stop-color="#978a8a"/>
      <stop offset="1.0" stop-color="#474040"/>
    </radialGradient>
    <radialGradient cx="0" cy="0" gradientTransform="matrix(0.0074, 0.0, 0.0, 0.0074, 2.8, -27.35)" gradientUnits="userSpaceOnUse" id="gradient22" r="819.2" spreadMethod="pad">
      <stop offset="0.0" stop-color="#958787"/>
      <stop offset="1.0" stop-color="#3c3636"/>
    </radialGradient>
    <radialGradient cx="0" cy="0" gradientTransform="matrix(0.0094, 0.0, 0.0, 0.0094, 1.1, -23.7)" gradientUnits="userSpaceOnUse" id="gradient23" r="819.2" spreadMethod="pad">
      <stop offset="0.0" stop-color="#817676"/>
      <stop offset="1.0" stop-color="#5b5252"/>
    </radialGradient>
    <radialGradient cx="0" cy="0" gradientTransform="matrix(0.0021, 0.0, 0.0, 0.0021, 11.5, -35.75)" gradientUnits="userSpaceOnUse" id="gradient24" r="819.2" spreadMethod="pad">
      <stop offset="0.0" stop-color="#e6a25f"/>
      <stop offset="1.0" stop-color="#95693d"/>
    </radialGradient>
    <radialGradient cx="0" cy="0" gradientTransform="matrix(0.015, 0.0, 0.0, 0.015, 2.25, -19.95)" gradientUnits="userSpaceOnUse" id="gradient25" r="819.2" spreadMethod="pad">
      <stop offset="0.0" stop-color="#867a7a"/>
      <stop offset="1.0" stop-color="#585151"/>
    </radialGradient>
    <radialGradient cx="0" cy="0" gradientTransform="matrix(0.0147, 0.0, 0.0, 0.0147, -4.65, -14.9)" gradientUnits="userSpaceOnUse" id="gradient26" r="819.2" spreadMethod="pad">
      <stop offset="0.0" stop-color="#7e7373"/>
      <stop offset="1.0" stop-color="#544c4c"/>
    </radialGradient>
    <radialGradient cx="0" cy="0" gradientTransform="matrix(0.0144, 0.0, 0.0, 0.0144, -4.8, -23.8)" gradientUnits="userSpaceOnUse" id="gradient27" r="819.2" spreadMethod="pad">
      <stop offset="0.0" stop-color="#988a8a"/>
      <stop offset="1.0" stop-color="#5e5555"/>
    </radialGradient>
    <radialGradient cx="0" cy="0" gradientTransform="matrix(0.0024, 0.0, 0.0, 0.0024, 4.55, -8.4)" gradientUnits="userSpaceOnUse" id="gradient28" r="819.2" spreadMethod="pad">
      <stop offset="0.0" stop-color="#b8824b"/>
      <stop offset="1.0" stop-color="#614528"/>
    </radialGradient>
    <radialGradient cx="0" cy="0" gradientTransform="matrix(0.0031, 0.0, 0.0, 0.0031, 3.0, -8.45)" gradientUnits="userSpaceOnUse" id="gradient29" r="819.2" spreadMethod="pad">
      <stop offset="0.0" stop-color="#c28950"/>
      <stop offset="1.0" stop-color="#66482a"/>
    </radialGradient>
    <radialGradient cx="0" cy="0" gradientTransform="matrix(0.0077, 0.0, 0.0, 0.0077, 4.2, -9.5)" gradientUnits="userSpaceOnUse" id="gradient30" r="819.2" spreadMethod="pad">
      <stop offset="0.0" stop-color="#3f3b2e"/>
      <stop offset="1.0" stop-color="#353127"/>
    </radialGradient>
    <radialGradient cx="0" cy="0" gradientTransform="matrix(0.0177, 0.0, 0.0, 0.0177, -8.5, -14.95)" gradientUnits="userSpaceOnUse" id="gradient31" r="819.2" spreadMethod="pad">
      <stop offset="0.0" stop-color="#3e3a2d"/>
      <stop offset="1.0" stop-color="#353226"/>
    </radialGradient>
    <radialGradient cx="0" cy="0" gradientTransform="matrix(0.0056, 0.0, 0.0, 0.0056, 4.4, -4.0)" gradientUnits="userSpaceOnUse" id="gradient32" r="819.2" spreadMethod="pad">
      <stop offset="0.0" stop-color="#756e55"/>
      <stop offset="1.0" stop-color="#3b372b"/>
    </radialGradient>
    <radialGradient cx="0" cy="0" gradientTransform="matrix(0.0028, 0.0, 0.0, 0.0028, 3.8, -4.9)" gradientUnits="userSpaceOnUse" id="gradient33" r="819.2" spreadMethod="pad">
      <stop offset="0.0" stop-color="#ffffff"/>
      <stop offset="1.0" stop-color="#bdbdbd"/>
    </radialGradient>
    <radialGradient cx="0" cy="0" gradientTransform="matrix(0.0042, 0.0, 0.0, 0.0042, 2.95, -6.7)" gradientUnits="userSpaceOnUse" id="gradient34" r="819.2" spreadMethod="pad">
      <stop offset="0.0" stop-color="#c88d52"/>
      <stop offset="1.0" stop-color="#bc854d"/>
    </radialGradient>
    <radialGradient cx="0" cy="0" gradientTransform="matrix(0.0035, 0.0, 0.0, 0.0035, 1.65, -2.35)" gradientUnits="userSpaceOnUse" id="gradient35" r="819.2" spreadMethod="pad">
      <stop offset="0.0" stop-color="#f33636"/>
      <stop offset="1.0" stop-color="#cc2d2d"/>
    </radialGradient>
    <radialGradient cx="0" cy="0" gradientTransform="matrix(0.0045, 0.0, 0.0, 0.0045, 3.4, -1.05)" gradientUnits="userSpaceOnUse" id="gradient36" r="819.2" spreadMethod="pad">
      <stop offset="0.0" stop-color="#736b53"/>
      <stop offset="1.0" stop-color="#3f3b2e"/>
    </radialGradient>
    <radialGradient cx="0" cy="0" gradientTransform="matrix(0.0041, 0.0, 0.0, 0.0041, 2.65, -2.45)" gradientUnits="userSpaceOnUse" id="gradient37" r="819.2" spreadMethod="pad">
      <stop offset="0.0" stop-color="#962121"/>
      <stop offset="1.0" stop-color="#821d1d"/>
    </radialGradient>
    <radialGradient cx="0" cy="0" gradientTransform="matrix(0.0052, 0.0, 0.0, 0.0052, -3.55, 0.95)" gradientUnits="userSpaceOnUse" id="gradient38" r="819.2" spreadMethod="pad">
      <stop offset="0.0" stop-color="#736c53"/>
      <stop offset="1.0" stop-color="#2f2c22"/>
    </radialGradient>
    <radialGradient cx="0" cy="0" gradientTransform="matrix(0.0076, 0.0, 0.0, 0.0076, -5.65, -57.65)" gradientUnits="userSpaceOnUse" id="gradient39" r="819.2" spreadMethod="pad">
      <stop offset="0.0" stop-color="#9f2323"/>
      <stop offset="1.0" stop-color="#912020"/>
    </radialGradient>
    <radialGradient cx="0" cy="0" gradientTransform="matrix(0.0041, 0.0, 0.0, 0.0041, -2.35, -58.7)" gradientUnits="userSpaceOnUse" id="gradient40" r="819.2" spreadMethod="pad">
      <stop offset="0.0" stop-color="#a82525"/>
      <stop offset="1.0" stop-color="#a02323"/>
    </radialGradient>
    <radialGradient cx="0" cy="0" gradientTransform="matrix(0.0047, 0.0, 0.0, 0.0047, -2.9, -59.1)" gradientUnits="userSpaceOnUse" id="gradient41" r="819.2" spreadMethod="pad">
      <stop offset="0.0" stop-color="#9a2222"/>
      <stop offset="1.0" stop-color="#962121"/>
    </radialGradient>
    <radialGradient cx="0" cy="0" gradientTransform="matrix(0.0076, 0.0, 0.0, 0.0076, -2.8, -60.6)" gradientUnits="userSpaceOnUse" id="gradient42" r="819.2" spreadMethod="pad">
      <stop offset="0.0" stop-color="#da3030"/>
      <stop offset="1.0" stop-color="#c72c2c"/>
    </radialGradient>
    <radialGradient cx="0" cy="0" gradientTransform="matrix(0.0058, 0.0, 0.0, 0.0058, -2.45, -57.2)" gradientUnits="userSpaceOnUse" id="gradient43" r="819.2" spreadMethod="pad">
      <stop offset="0.0" stop-color="#e13232"/>
      <stop offset="1.0" stop-color="#dd3131"/>
    </radialGradient>
    <radialGradient cx="0" cy="0" gradientTransform="matrix(0.0095, 0.0, 0.0, 0.0095, -5.2, -56.2)" gradientUnits="userSpaceOnUse" id="gradient44" r="819.2" spreadMethod="pad">
      <stop offset="0.0" stop-color="#f23636"/>
      <stop offset="1.0" stop-color="#eb3434"/>
    </radialGradient>
    <radialGradient cx="0" cy="0" gradientTransform="matrix(0.0093, 0.0, 0.0, 0.0093, -7.25, -53.2)" gradientUnits="userSpaceOnUse" id="gradient45" r="819.2" spreadMethod="pad">
      <stop offset="0.0" stop-color="#ea3434"/>
      <stop offset="1.0" stop-color="#d93030"/>
    </radialGradient>
    <radialGradient cx="0" cy="0" gradientTransform="matrix(0.0075, 0.0, 0.0, 0.0075, -6.5, -52.15)" gradientUnits="userSpaceOnUse" id="gradient46" r="819.2" spreadMethod="pad">
      <stop offset="0.0" stop-color="#c52c2c"/>
      <stop offset="1.0" stop-color="#902020"/>
    </radialGradient>
    <radialGradient cx="0" cy="0" gradientTransform="matrix(0.004, 0.0, 0.0, 0.004, -3.8, -55.15)" gradientUnits="userSpaceOnUse" id="gradient47" r="819.2" spreadMethod="pad">
      <stop offset="0.0" stop-color="#b72929"/>
      <stop offset="1.0" stop-color="#b22828"/>
    </radialGradient>
    <radialGradient cx="0" cy="0" gradientTransform="matrix(0.0014, 0.0, 0.0, 0.0014, -7.85, -53.15)" gradientUnits="userSpaceOnUse" id="gradient48" r="819.2" spreadMethod="pad">
      <stop offset="0.0" stop-color="#902020"/>
      <stop offset="1.0" stop-color="#8e1f1f"/>
    </radialGradient>
    <radialGradient cx="0" cy="0" gradientTransform="matrix(0.0068, 0.0, 0.0, 0.0068, -7.8, -54.7)" gradientUnits="userSpaceOnUse" id="gradient49" r="819.2" spreadMethod="pad">
      <stop offset="0.0" stop-color="#a02424"/>
      <stop offset="1.0" stop-color="#912020"/>
    </radialGradient>
    <radialGradient cx="0" cy="0" gradientTransform="matrix(0.0049, 0.0, 0.0, 0.0049, -5.15, -49.7)" gradientUnits="userSpaceOnUse" id="gradient50" r="819.2" spreadMethod="pad">
      <stop offset="0.0" stop-color="#a5a5a5"/>
      <stop offset="1.0" stop-color="#a2a2a2"/>
    </radialGradient>
    <radialGradient cx="0" cy="0" gradientTransform="matrix(0.0063, 0.0, 0.0, 0.0063, -7.5, -57.15)" gradientUnits="userSpaceOnUse" id="gradient51" r="819.2" spreadMethod="pad">
      <stop offset="0.0" stop-color="#942121"/>
      <stop offset="1.0" stop-color="#591313"/>
    </radialGradient>
    <radialGradient cx="0" cy="0" gradientTransform="matrix(0.0025, 0.0, 0.0, 0.0025, -4.9, -54.1)" gradientUnits="userSpaceOnUse" id="gradient52" r="819.2" spreadMethod="pad">
      <stop offset="0.0" stop-color="#621616"/>
      <stop offset="1.0" stop-color="#1f0707"/>
    </radialGradient>
    <radialGradient cx="0" cy="0" gradientTransform="matrix(0.0039, 0.0, 0.0, 0.0039, -3.65, -48.25)" gradientUnits="userSpaceOnUse" id="gradient53" r="819.2" spreadMethod="pad">
      <stop offset="0.0" stop-color="#ce9155"/>
      <stop offset="1.0" stop-color="#976a3e"/>
    </radialGradient>
    <radialGradient cx="0" cy="0" gradientTransform="matrix(0.0063, 0.0, 0.0, 0.0063, -6.3, -39.2)" gradientUnits="userSpaceOnUse" id="gradient54" r="819.2" spreadMethod="pad">
      <stop offset="0.0" stop-color="#ffd079"/>
      <stop offset="1.0" stop-color="#8d633a"/>
    </radialGradient>
    <radialGradient cx="0" cy="0" gradientTransform="matrix(0.0092, 0.0, 0.0, 0.0092, -4.9, -36.25)" gradientUnits="userSpaceOnUse" id="gradient55" r="819.2" spreadMethod="pad">
      <stop offset="0.0" stop-color="#ffd27a"/>
      <stop offset="1.0" stop-color="#b7814b"/>
    </radialGradient>
    <radialGradient cx="0" cy="0" gradientTransform="matrix(0.0085, 0.0, 0.0, 0.0085, -6.55, -29.7)" gradientUnits="userSpaceOnUse" id="gradient56" r="819.2" spreadMethod="pad">
      <stop offset="0.0" stop-color="#ffd47c"/>
      <stop offset="1.0" stop-color="#966a3d"/>
    </radialGradient>
    <radialGradient cx="0" cy="0" gradientTransform="matrix(0.0086, 0.0, 0.0, 0.0086, -5.75, -28.75)" gradientUnits="userSpaceOnUse" id="gradient57" r="819.2" spreadMethod="pad">
      <stop offset="0.0" stop-color="#ffb469"/>
      <stop offset="1.0" stop-color="#ad7a47"/>
    </radialGradient>
    <radialGradient cx="0" cy="0" gradientTransform="matrix(0.0064, 0.0, 0.0, 0.0064, -5.5, -29.15)" gradientUnits="userSpaceOnUse" id="gradient58" r="819.2" spreadMethod="pad">
      <stop offset="0.0" stop-color="#ffce78"/>
      <stop offset="1.0" stop-color="#a47443"/>
    </radialGradient>
    <radialGradient cx="0" cy="0" gradientTransform="matrix(0.0048, 0.0, 0.0, 0.0048, -5.45, -26.25)" gradientUnits="userSpaceOnUse" id="gradient59" r="819.2" spreadMethod="pad">
      <stop offset="0.0" stop-color="#ffd27a"/>
      <stop offset="1.0" stop-color="#92673c"/>
    </radialGradient>
    <radialGradient cx="0" cy="0" gradientTransform="matrix(0.0037, 0.0, 0.0, 0.0037, -6.4, -23.85)" gradientUnits="userSpaceOnUse" id="gradient60" r="819.2" spreadMethod="pad">
      <stop offset="0.0" stop-color="#ffbd6e"/>
      <stop offset="1.0" stop-color="#93673c"/>
    </radialGradient>
    <radialGradient cx="0" cy="0" gradientTransform="matrix(0.0087, 0.0, 0.0, 0.0087, -9.6, -23.65)" gradientUnits="userSpaceOnUse" id="gradient61" r="819.2" spreadMethod="pad">
      <stop offset="0.0" stop-color="#615a46"/>
      <stop offset="1.0" stop-color="#28261d"/>
    </radialGradient>
    <radialGradient cx="0" cy="0" gradientTransform="matrix(0.0037, 0.0, 0.0, 0.0037, -12.2, -17.95)" gradientUnits="userSpaceOnUse" id="gradient62" r="819.2" spreadMethod="pad">
      <stop offset="0.0" stop-color="#6a634d"/>
      <stop offset="1.0" stop-color="#3d382c"/>
    </radialGradient>
    <radialGradient cx="0" cy="0" gradientTransform="matrix(0.001, 0.0, 0.0, 0.001, -12.4, -20.2)" gradientUnits="userSpaceOnUse" id="gradient63" r="819.2" spreadMethod="pad">
      <stop offset="0.0" stop-color="#d99959"/>
      <stop offset="1.0" stop-color="#96693d"/>
    </radialGradient>
    <radialGradient cx="0" cy="0" gradientTransform="matrix(0.0107, 0.0, 0.0, 0.0107, -10.2, -15.1)" gradientUnits="userSpaceOnUse" id="gradient64" r="819.2" spreadMethod="pad">
      <stop offset="0.0" stop-color="#121010"/>
      <stop offset="1.0" stop-color="#121010"/>
    </radialGradient>
    <radialGradient cx="0" cy="0" gradientTransform="matrix(0.0046, 0.0, 0.0, 0.0046, -6.7, 0.2)" gradientUnits="userSpaceOnUse" id="gradient65" r="819.2" spreadMethod="pad">
      <stop offset="0.0" stop-color="#726b53"/>
      <stop offset="1.0" stop-color="#3e392d"/>
    </radialGradient>
    <radialGradient cx="0" cy="0" gradientTransform="matrix(0.0024, 0.0, 0.0, 0.0024, -0.9, -4.25)" gradientUnits="userSpaceOnUse" id="gradient66" r="819.2" spreadMethod="pad">
      <stop offset="0.0" stop-color="#ac7947"/>
      <stop offset="1.0" stop-color="#614427"/>
    </radialGradient>
    <radialGradient cx="0" cy="0" gradientTransform="matrix(0.0049, 0.0, 0.0, 0.0049, -2.65, -2.1)" gradientUnits="userSpaceOnUse" id="gradient67" r="819.2" spreadMethod="pad">
      <stop offset="0.0" stop-color="#bb844d"/>
      <stop offset="1.0" stop-color="#996b3e"/>
    </radialGradient>
    <radialGradient cx="0" cy="0" gradientTransform="matrix(0.0053, 0.0, 0.0, 0.0053, -4.55, -1.6)" gradientUnits="userSpaceOnUse" id="gradient68" r="819.2" spreadMethod="pad">
      <stop offset="0.0" stop-color="#ffffff"/>
      <stop offset="1.0" stop-color="#a6a6a6"/>
    </radialGradient>
    <radialGradient cx="0" cy="0" gradientTransform="matrix(0.0037, 0.0, 0.0, 0.0037, -2.1, -3.85)" gradientUnits="userSpaceOnUse" id="gradient69" r="819.2" spreadMethod="pad">
      <stop offset="0.0" stop-color="#b57f4a"/>
      <stop offset="1.0" stop-color="#775431"/>
    </radialGradient>
    <radialGradient cx="0" cy="0" gradientTransform="matrix(0.0044, 0.0, 0.0, 0.0044, -3.2, 2.25)" gradientUnits="userSpaceOnUse" id="gradient70" r="819.2" spreadMethod="pad">
      <stop offset="0.0" stop-color="#902020"/>
      <stop offset="1.0" stop-color="#831d1d"/>
    </radialGradient>
    <radialGradient cx="0" cy="0" gradientTransform="matrix(0.0047, 0.0, 0.0, 0.0047, -2.15, 3.65)" gradientUnits="userSpaceOnUse" id="gradient71" r="819.2" spreadMethod="pad">
      <stop offset="0.0" stop-color="#706951"/>
      <stop offset="1.0" stop-color="#3e3a2d"/>
    </radialGradient>
    <radialGradient cx="0" cy="0" gradientTransform="matrix(0.0063, 0.0, 0.0, 0.0063, -6.8, 0.15)" gradientUnits="userSpaceOnUse" id="gradient72" r="819.2" spreadMethod="pad">
      <stop offset="0.0" stop-color="#ff3b3b"/>
      <stop offset="1.0" stop-color="#b12727"/>
    </radialGradient>
  </defs>
</svg>
