<?xml version="1.0" encoding="UTF-8" standalone="no"?>
<svg xmlns:ffdec="https://www.free-decompiler.com/flash" xmlns:xlink="http://www.w3.org/1999/xlink" ffdec:objectType="shape" height="74.6px" width="36.6px" xmlns="http://www.w3.org/2000/svg">
  <g transform="matrix(1.0, 0.0, 0.0, 1.0, 18.0, 62.0)">
    <path d="M1.2 -55.8 L1.2 -55.75 1.05 -55.4 0.7 -55.5 0.45 -55.35 -0.6 -55.75 -0.9 -55.7 Q-0.8 -55.85 -0.85 -56.05 L-0.4 -56.4 0.05 -56.8 Q3.95 -60.5 1.2 -55.8" fill="url(#gradient0)" fill-rule="evenodd" stroke="none"/>
    <path d="M1.2 -55.75 L1.2 -55.8 2.95 -56.3 4.1 -56.35 2.6 -54.8 1.2 -55.75" fill="url(#gradient1)" fill-rule="evenodd" stroke="none"/>
    <path d="M2.6 -54.8 L4.1 -56.35 4.15 -56.15 3.95 -55.75 3.0 -54.65 2.6 -54.8" fill="url(#gradient2)" fill-rule="evenodd" stroke="none"/>
    <path d="M1.2 -55.75 L2.6 -54.8 3.0 -54.65 4.4 -53.85 4.9 -53.45 4.85 -53.35 0.7 -55.5 1.05 -55.4 1.2 -55.75" fill="url(#gradient3)" fill-rule="evenodd" stroke="none"/>
    <path d="M0.45 -55.35 L0.7 -55.5 4.85 -53.35 3.35 -53.5 1.6 -54.85 0.45 -55.35" fill="url(#gradient4)" fill-rule="evenodd" stroke="none"/>
    <path d="M-0.9 -55.7 L-0.6 -55.75 0.45 -55.35 1.6 -54.85 3.35 -53.5 4.05 -51.9 3.9 -50.05 Q3.1 -47.5 0.6 -47.4 L0.4 -47.55 -1.3 -47.75 -1.55 -47.35 -2.85 -47.8 -2.95 -48.55 -3.1 -48.65 -5.15 -49.75 -5.2 -49.75 -5.4 -50.2 -5.4 -51.05 -5.3 -51.4 -4.75 -51.45 -5.05 -51.25 -4.5 -50.95 -4.3 -51.15 -4.55 -51.6 -4.35 -52.4 -4.3 -52.5 -3.45 -52.7 -3.25 -52.55 -1.9 -53.55 -1.35 -54.2 -1.95 -54.5 -3.55 -54.5 -3.6 -54.7 -1.95 -55.55 -1.1 -55.6 -0.9 -55.7 M0.15 -50.45 L-2.1 -50.25 -1.35 -49.8 0.65 -49.5 1.6 -49.7 1.35 -49.95 0.15 -50.45 M-4.15 -49.85 L-4.1 -50.25 -4.5 -50.1 -4.4 -49.6 -4.15 -49.85 M0.1 -46.8 L-0.15 -46.55 -0.8 -46.6 -0.8 -46.65 0.1 -46.8" fill="url(#gradient5)" fill-rule="evenodd" stroke="none"/>
    <path d="M0.15 -50.45 L1.35 -49.95 1.6 -49.7 0.65 -49.5 -1.35 -49.8 -2.1 -50.25 0.15 -50.45 M-4.6 -51.55 L-4.55 -51.6 -4.3 -51.15 -4.5 -50.95 -5.05 -51.25 -4.75 -51.45 -4.7 -51.5 -4.6 -51.55 M-4.15 -49.85 L-4.4 -49.6 -4.5 -50.1 -4.1 -50.25 -4.15 -49.85" fill="url(#gradient6)" fill-rule="evenodd" stroke="none"/>
    <path d="M6.55 -45.4 L7.9 -44.9 8.55 -44.45 8.85 -43.65 Q9.6 -43.0 10.55 -41.05 L10.65 -40.7 9.85 -40.3 9.85 -40.35 8.1 -43.35 6.55 -45.4 M10.85 -35.4 L6.7 -30.75 6.55 -30.6 5.0 -29.1 Q1.55 -28.8 1.45 -28.3 0.4 -26.55 -3.25 -28.3 L-4.0 -29.45 -4.05 -29.45 -5.75 -31.1 Q-3.1 -32.5 -3.1 -36.95 -3.9 -39.4 -6.15 -40.2 L-6.05 -40.35 -5.65 -41.0 -3.55 -43.0 -2.25 -43.75 -1.45 -43.3 Q0.15 -42.6 2.35 -42.35 L2.7 -41.8 2.95 -41.7 3.35 -42.9 3.85 -43.25 5.6 -37.15 5.9 -34.3 6.65 -34.3 6.9 -34.45 6.55 -37.1 4.35 -44.65 4.4 -45.2 4.35 -45.6 5.3 -45.6 Q6.25 -45.0 7.55 -43.05 L9.0 -40.35 9.35 -39.15 9.35 -39.0 10.0 -37.4 10.2 -37.55 10.3 -38.5 11.35 -38.35 Q11.85 -37.05 11.3 -35.95 L10.85 -35.4" fill="url(#gradient7)" fill-rule="evenodd" stroke="none"/>
    <path d="M7.9 -44.9 Q13.3 -47.3 15.25 -39.05 L15.25 -38.75 14.25 -37.0 14.05 -36.75 12.2 -36.0 11.3 -35.95 Q11.85 -37.05 11.35 -38.35 L10.3 -38.5 10.5 -38.7 10.45 -39.0 9.85 -40.3 10.65 -40.7 10.55 -41.05 Q9.6 -43.0 8.85 -43.65 L8.55 -44.45 7.9 -44.9" fill="url(#gradient8)" fill-rule="evenodd" stroke="none"/>
    <path d="M3.35 -48.3 L4.35 -47.6 6.55 -45.4 8.1 -43.35 9.85 -40.35 9.85 -40.3 10.45 -39.0 10.5 -38.7 10.3 -38.5 10.2 -37.55 10.0 -37.4 9.35 -39.0 9.35 -39.15 9.0 -40.35 7.55 -43.05 Q6.25 -45.0 5.3 -45.6 L3.75 -46.75 3.15 -47.05 2.25 -47.55 3.15 -48.4 3.35 -48.3" fill="url(#gradient9)" fill-rule="evenodd" stroke="none"/>
    <path d="M15.25 -39.05 Q18.85 -35.1 17.15 -31.95 L16.9 -32.05 16.45 -33.3 Q16.25 -33.85 15.55 -34.05 L14.55 -36.2 14.25 -37.0 15.25 -38.75 15.25 -39.05" fill="url(#gradient10)" fill-rule="evenodd" stroke="none"/>
    <path d="M3.9 -50.05 L3.85 -48.95 3.35 -48.3 3.15 -48.4 2.25 -47.55 2.2 -47.4 0.1 -46.8 -0.8 -46.65 -2.85 -46.8 -4.45 -47.4 -4.55 -47.55 Q-5.35 -48.0 -5.4 -48.65 L-5.65 -50.4 -5.2 -49.75 -5.15 -49.75 -4.4 -49.1 -3.1 -48.65 -2.95 -48.55 -2.85 -47.8 -1.55 -47.35 -1.3 -47.75 0.4 -47.55 0.6 -47.4 Q3.1 -47.5 3.9 -50.05" fill="url(#gradient11)" fill-rule="evenodd" stroke="none"/>
    <path d="M-2.25 -43.75 L-2.25 -44.95 -2.2 -45.65 -1.85 -46.1 -0.8 -46.6 -0.15 -46.55 0.1 -46.8 2.2 -47.4 3.85 -43.25 3.35 -42.9 2.95 -41.7 2.7 -41.8 2.35 -42.35 Q0.15 -42.6 -1.45 -43.3 L-2.25 -43.75 M4.35 -45.6 L4.4 -45.2 4.35 -44.65 3.15 -47.05 3.75 -46.75 4.35 -45.6" fill="url(#gradient12)" fill-rule="evenodd" stroke="none"/>
    <path d="M4.35 -44.65 L6.55 -37.1 6.9 -34.45 6.65 -34.3 5.9 -34.3 5.6 -37.15 3.85 -43.25 2.2 -47.4 2.25 -47.55 3.15 -47.05 4.35 -44.65" fill="url(#gradient13)" fill-rule="evenodd" stroke="none"/>
    <path d="M6.7 -30.75 L6.9 -30.1 6.85 -28.3 6.55 -26.7 4.0 -25.4 3.7 -25.2 3.4 -25.45 2.85 -25.4 1.75 -24.4 1.2 -24.45 0.9 -24.7 -0.95 -24.7 Q-2.95 -23.8 -3.0 -24.05 L-3.4 -23.75 -4.15 -24.3 -5.25 -25.6 -5.4 -26.3 Q-5.4 -27.55 -5.05 -28.0 L-4.05 -29.45 -4.0 -29.45 -4.35 -28.7 -4.35 -28.3 Q-2.75 -22.7 6.2 -28.3 L6.5 -29.65 6.7 -29.75 6.55 -30.6 6.7 -30.75" fill="url(#gradient14)" fill-rule="evenodd" stroke="none"/>
    <path d="M-5.25 -25.6 L-4.15 -24.3 -3.4 -23.75 -3.0 -24.05 Q-2.95 -23.8 -0.95 -24.7 L0.9 -24.7 1.2 -24.45 1.75 -24.4 2.85 -25.4 3.4 -25.45 3.7 -25.2 4.0 -25.4 4.2 -23.5 Q4.15 -21.95 3.45 -20.75 L3.1 -20.1 2.75 -19.6 1.7 -18.75 1.45 -18.8 0.8 -18.45 Q-4.35 -18.65 -5.25 -25.6" fill="url(#gradient15)" fill-rule="evenodd" stroke="none"/>
    <path d="M-4.0 -29.45 L-3.25 -28.3 Q0.4 -26.55 1.45 -28.3 1.55 -28.8 5.0 -29.1 L6.55 -30.6 6.5 -29.65 6.2 -28.3 Q-2.75 -22.7 -4.35 -28.3 L-4.35 -28.7 -4.0 -29.45" fill="url(#gradient16)" fill-rule="evenodd" stroke="none"/>
    <path d="M6.55 -30.6 L6.7 -29.75 6.5 -29.65 6.55 -30.6" fill="url(#gradient17)" fill-rule="evenodd" stroke="none"/>
    <path d="M6.9 -30.1 Q9.15 -26.15 7.65 -23.85 7.25 -21.75 3.45 -20.75 4.15 -21.95 4.2 -23.5 L4.0 -25.4 6.55 -26.7 6.85 -28.3 6.9 -30.1" fill="url(#gradient18)" fill-rule="evenodd" stroke="none"/>
    <path d="M15.55 -34.05 Q16.25 -33.85 16.45 -33.3 L16.9 -32.05 Q17.35 -29.05 15.4 -30.85 L15.55 -34.05" fill="url(#gradient19)" fill-rule="evenodd" stroke="none"/>
    <path d="M17.15 -31.95 L17.3 -31.55 Q17.75 -26.7 14.6 -30.0 L15.4 -30.85 Q17.35 -29.05 16.9 -32.05 L17.15 -31.95" fill="url(#gradient20)" fill-rule="evenodd" stroke="none"/>
    <path d="M13.3 -30.5 Q11.5 -31.7 10.85 -35.4 L11.3 -35.95 12.2 -36.0 14.05 -36.75 14.55 -36.2 15.55 -34.05 15.4 -30.85 14.6 -30.0 13.85 -30.15 13.3 -30.5" fill="url(#gradient21)" fill-rule="evenodd" stroke="none"/>
    <path d="M14.25 -37.0 L14.55 -36.2 14.05 -36.75 14.25 -37.0" fill="url(#gradient22)" fill-rule="evenodd" stroke="none"/>
    <path d="M17.3 -31.55 Q19.8 -30.15 17.5 -24.95 L17.5 -24.9 17.4 -24.75 Q16.3 -22.1 15.0 -24.15 L14.45 -25.8 14.4 -25.9 14.4 -25.95 14.0 -26.75 13.9 -27.15 13.85 -27.15 13.0 -28.45 Q12.65 -29.35 13.3 -30.5 L13.85 -30.15 14.6 -30.0 Q17.75 -26.7 17.3 -31.55" fill="url(#gradient23)" fill-rule="evenodd" stroke="none"/>
    <path d="M14.3 -25.9 L14.4 -25.95 14.4 -25.9 14.3 -25.9 M14.0 -26.75 L13.85 -27.15 13.9 -27.15 14.0 -26.75" fill="url(#gradient24)" fill-rule="evenodd" stroke="none"/>
    <path d="M17.5 -24.95 Q19.0 -22.15 16.1 -20.9 13.05 -20.75 12.65 -22.9 L13.6 -23.55 Q14.7 -23.75 15.0 -24.15 16.3 -22.1 17.4 -24.75 L17.5 -24.9 17.5 -24.95 M14.0 -25.7 L14.3 -25.9 14.4 -25.9 14.45 -25.8 14.0 -25.7" fill="url(#gradient25)" fill-rule="evenodd" stroke="none"/>
    <path d="M12.65 -22.9 Q11.55 -24.7 14.0 -25.7 L14.45 -25.8 15.0 -24.15 Q14.7 -23.75 13.6 -23.55 L12.65 -22.9" fill="url(#gradient26)" fill-rule="evenodd" stroke="none"/>
    <path d="M7.5 -21.75 L7.65 -20.7 Q7.15 -18.45 7.0 -14.95 L6.5 -13.8 5.2 -12.5 4.2 -16.25 3.75 -17.1 3.65 -17.8 Q6.55 -17.5 7.5 -21.75" fill="url(#gradient27)" fill-rule="evenodd" stroke="none"/>
    <path d="M7.65 -23.85 L7.5 -21.75 Q6.55 -17.5 3.65 -17.8 L3.4 -19.45 3.1 -20.1 3.45 -20.75 Q7.25 -21.75 7.65 -23.85" fill="url(#gradient28)" fill-rule="evenodd" stroke="none"/>
    <path d="M-7.4 -16.0 Q-8.4 -20.45 -5.4 -26.3 L-5.25 -25.6 Q-4.35 -18.65 0.8 -18.45 L1.7 -18.75 2.75 -19.6 3.1 -20.1 3.4 -19.45 3.65 -17.8 3.75 -17.1 3.7 -16.25 Q2.75 -11.15 -5.85 -13.5 L-5.9 -13.6 Q-5.6 -14.2 -6.8 -14.3 L-7.0 -15.6 -7.15 -15.5 -7.35 -15.65 -7.4 -16.0" fill="url(#gradient29)" fill-rule="evenodd" stroke="none"/>
    <path d="M0.8 -18.45 L1.45 -18.8 1.7 -18.75 0.8 -18.45" fill="url(#gradient30)" fill-rule="evenodd" stroke="none"/>
    <path d="M5.4 -11.5 L5.9 -9.45 6.15 -9.1 Q7.05 -7.05 0.75 -4.2 L-1.4 -3.9 -3.0 -4.2 -4.0 -6.9 Q-3.85 -11.0 -5.85 -13.5 2.75 -11.15 3.7 -16.25 L3.75 -17.1 4.2 -16.25 5.2 -12.5 5.4 -11.5 M-6.9 -10.35 L-7.45 -13.4 -7.4 -15.65 -7.35 -15.65 -7.15 -15.5 -7.0 -15.6 -6.8 -14.3 Q-5.6 -14.2 -5.9 -13.6 L-6.0 -13.85 -6.15 -13.8 -7.0 -12.3 -6.0 -5.65 -6.3 -6.1 -6.4 -6.9 -6.4 -7.05 -6.9 -10.3 -6.9 -10.35" fill="url(#gradient31)" fill-rule="evenodd" stroke="none"/>
    <path d="M7.0 -14.95 L6.2 -12.35 5.4 -11.5 5.2 -12.5 6.5 -13.8 7.0 -14.95" fill="url(#gradient32)" fill-rule="evenodd" stroke="none"/>
    <path d="M6.15 -9.1 Q8.25 -5.6 5.85 -4.25 L5.75 -4.2 4.55 -3.35 3.6 -2.75 Q0.9 -1.6 0.35 -1.75 L-3.0 -1.6 Q-4.8 -2.4 -6.0 -5.5 L-6.0 -5.65 -7.0 -12.3 -6.15 -13.8 -6.0 -13.85 -5.9 -13.6 -5.85 -13.5 Q-3.85 -11.0 -4.0 -6.9 L-3.0 -4.2 -1.4 -3.9 0.75 -4.2 Q7.05 -7.05 6.15 -9.1" fill="url(#gradient33)" fill-rule="evenodd" stroke="none"/>
    <path d="M2.25 0.7 L0.35 -1.75 Q0.9 -1.6 3.6 -2.75 L4.55 -3.35 5.5 -1.15 5.75 0.7 5.7 1.6 5.6 1.9 5.1 2.2 4.0 2.0 2.25 0.7" fill="url(#gradient34)" fill-rule="evenodd" stroke="none"/>
    <path d="M5.85 -4.25 L6.7 -1.35 Q6.95 0.1 6.4 0.95 L5.75 0.7 5.5 -1.15 4.55 -3.35 5.75 -4.2 5.85 -4.25" fill="url(#gradient35)" fill-rule="evenodd" stroke="none"/>
    <path d="M-5.65 -54.1 Q-6.3 -56.2 -5.5 -62.0 L-5.4 -62.0 -5.3 -61.8 -4.5 -59.35 -4.6 -59.4 -4.85 -58.6 -5.2 -56.5 -5.25 -56.45 -5.25 -56.15 -5.3 -56.1 -5.3 -55.85 -5.35 -55.6 -5.35 -55.5 -5.65 -54.1 M-4.15 -58.15 L-3.45 -55.9 -3.7 -55.4 -4.15 -58.15" fill="url(#gradient36)" fill-rule="evenodd" stroke="none"/>
    <path d="M0.05 -56.8 L-0.4 -56.4 -0.25 -60.55 -0.1 -60.25 0.05 -56.8" fill="url(#gradient37)" fill-rule="evenodd" stroke="none"/>
    <path d="M-0.4 -56.4 L-0.85 -56.05 -0.6 -58.4 -0.75 -59.8 -0.75 -60.05 -0.25 -60.55 -0.4 -56.4" fill="url(#gradient38)" fill-rule="evenodd" stroke="none"/>
    <path d="M-3.2 -56.3 L-1.85 -58.8 Q-1.2 -59.9 -0.75 -60.05 L-0.75 -59.8 -1.1 -55.6 -1.95 -55.55 -3.6 -54.7 -3.7 -55.4 -3.45 -55.9 -3.2 -56.3" fill="url(#gradient39)" fill-rule="evenodd" stroke="none"/>
    <path d="M-5.35 -55.5 L-5.35 -55.6 -5.3 -55.85 -5.3 -56.1 -5.25 -56.15 -5.25 -56.45 -5.2 -56.5 -4.85 -58.6 -4.6 -59.4 -4.5 -59.35 -4.15 -58.15 -3.7 -55.4 -3.6 -54.7 -3.55 -54.5 -3.85 -54.5 -4.2 -53.7 -4.3 -52.5 -4.35 -52.4 -4.55 -51.6 -4.6 -51.55 -5.75 -52.75 -5.35 -55.5" fill="url(#gradient40)" fill-rule="evenodd" stroke="none"/>
    <path d="M-5.3 -61.8 L-3.2 -56.3 -3.45 -55.9 -4.15 -58.15 -4.5 -59.35 -5.3 -61.8" fill="url(#gradient41)" fill-rule="evenodd" stroke="none"/>
    <path d="M-0.85 -56.05 Q-0.8 -55.85 -0.9 -55.7 L-1.1 -55.6 -0.75 -59.8 -0.6 -58.4 -0.85 -56.05" fill="url(#gradient42)" fill-rule="evenodd" stroke="none"/>
    <path d="M-5.95 -52.5 L-5.65 -54.1 -5.35 -55.5 -5.75 -52.75 -5.95 -52.5" fill="url(#gradient43)" fill-rule="evenodd" stroke="none"/>
    <path d="M-5.55 -51.2 L-6.0 -52.3 -5.95 -52.5 -5.75 -52.75 -4.6 -51.55 -4.7 -51.5 -4.75 -51.45 -5.3 -51.4 -5.4 -51.05 -5.55 -51.2" fill="url(#gradient44)" fill-rule="evenodd" stroke="none"/>
    <path d="M-5.65 -50.4 L-5.65 -50.45 -5.7 -50.55 -5.55 -51.2 -5.4 -51.05 -5.4 -50.2 -5.2 -49.75 -5.65 -50.4 M-3.1 -48.65 L-4.4 -49.1 -5.15 -49.75 -3.1 -48.65" fill="url(#gradient45)" fill-rule="evenodd" stroke="none"/>
    <path d="M-1.35 -54.2 L-1.9 -53.55 -3.25 -52.55 -1.35 -54.2" fill="url(#gradient46)" fill-rule="evenodd" stroke="none"/>
    <path d="M-4.3 -52.5 L-4.2 -53.7 -3.85 -54.5 -3.55 -54.5 -1.95 -54.5 -1.35 -54.2 -3.25 -52.55 -3.45 -52.7 -4.3 -52.5" fill="url(#gradient47)" fill-rule="evenodd" stroke="none"/>
    <path d="M-2.25 -44.95 Q-3.4 -45.4 -3.6 -45.85 L-4.45 -47.4 -2.85 -46.8 -0.8 -46.65 -0.8 -46.6 -1.85 -46.1 -2.2 -45.65 -2.25 -44.95" fill="url(#gradient48)" fill-rule="evenodd" stroke="none"/>
    <path d="M-7.45 -40.15 Q-5.1 -43.0 -3.55 -43.0 L-5.65 -41.0 -6.05 -40.35 -6.15 -40.2 -7.45 -40.15" fill="url(#gradient49)" fill-rule="evenodd" stroke="none"/>
    <path d="M-5.75 -31.1 L-6.45 -30.8 -7.95 -30.6 -8.15 -30.6 Q-11.2 -31.35 -11.65 -33.6 L-11.7 -35.2 Q-11.4 -38.65 -7.45 -40.15 L-6.15 -40.2 Q-3.9 -39.4 -3.1 -36.95 -3.1 -32.5 -5.75 -31.1" fill="url(#gradient50)" fill-rule="evenodd" stroke="none"/>
    <path d="M-13.65 -29.95 L-13.65 -30.55 -13.55 -29.65 -13.65 -29.95 M-13.65 -30.85 Q-13.45 -34.4 -11.7 -35.2 L-11.65 -33.6 Q-13.5 -32.7 -13.65 -30.85 M-8.15 -30.1 L-8.15 -30.6 -7.95 -30.6 -8.15 -30.1" fill="url(#gradient51)" fill-rule="evenodd" stroke="none"/>
    <path d="M-11.35 -25.85 L-11.85 -25.45 -14.05 -24.9 -14.6 -25.3 -15.0 -25.55 -15.6 -25.65 Q-16.35 -26.85 -16.25 -27.55 L-15.55 -28.3 -15.35 -28.75 -15.0 -29.1 -13.8 -29.9 -13.65 -29.95 -13.55 -29.65 -13.0 -28.3 -12.4 -27.5 -12.1 -26.3 -11.35 -25.85" fill="url(#gradient52)" fill-rule="evenodd" stroke="none"/>
    <path d="M-14.05 -24.9 Q-16.9 -23.75 -18.0 -26.8 -18.0 -29.85 -15.2 -29.85 L-15.0 -29.8 -14.95 -29.5 -15.0 -29.1 -15.35 -28.75 -15.55 -28.3 -16.25 -27.55 Q-16.35 -26.85 -15.6 -25.65 L-15.0 -25.5 -14.6 -25.3 -14.05 -24.9" fill="url(#gradient53)" fill-rule="evenodd" stroke="none"/>
    <path d="M-13.65 -30.55 L-13.65 -30.85 Q-13.5 -32.7 -11.65 -33.6 -11.2 -31.35 -8.15 -30.6 L-8.15 -30.1 -8.2 -29.6 -8.7 -28.35 -8.8 -28.3 -9.35 -27.55 -10.5 -27.0 -11.5 -27.0 -12.4 -27.5 -13.0 -28.3 -13.55 -29.65 -13.65 -30.55" fill="url(#gradient54)" fill-rule="evenodd" stroke="none"/>
    <path d="M-15.2 -29.85 L-14.45 -30.05 -13.8 -29.9 -15.0 -29.1 -14.95 -29.5 -15.0 -29.8 -15.2 -29.85" fill="url(#gradient55)" fill-rule="evenodd" stroke="none"/>
    <path d="M-15.0 -25.55 L-15.0 -25.5 -15.6 -25.65 -15.0 -25.55" fill="url(#gradient56)" fill-rule="evenodd" stroke="none"/>
    <path d="M-15.0 -25.5 L-15.0 -25.55 -14.6 -25.3 -15.0 -25.5" fill="url(#gradient57)" fill-rule="evenodd" stroke="none"/>
    <path d="M-10.05 -26.1 L-10.25 -25.95 -11.35 -25.85 -12.1 -26.3 -12.4 -27.5 -11.5 -27.0 -10.5 -27.0 -10.35 -26.4 -10.05 -26.1" fill="url(#gradient58)" fill-rule="evenodd" stroke="none"/>
    <path d="M-8.5 -27.45 L-8.95 -26.5 -9.45 -26.15 -10.05 -26.1 -10.35 -26.4 -10.5 -27.0 -9.35 -27.55 -8.8 -28.3 -8.7 -28.35 -8.65 -28.3 -8.5 -28.1 -8.5 -27.45" fill="url(#gradient59)" fill-rule="evenodd" stroke="none"/>
    <path d="M-6.45 -30.8 Q-6.25 -28.6 -8.5 -27.45 L-8.5 -28.1 -8.65 -28.3 -8.7 -28.35 -8.2 -29.6 -8.15 -30.1 -7.95 -30.6 -6.45 -30.8" fill="url(#gradient60)" fill-rule="evenodd" stroke="none"/>
    <path d="M-7.4 -15.65 L-7.4 -16.0 -7.35 -15.65 -7.4 -15.65" fill="url(#gradient61)" fill-rule="evenodd" stroke="none"/>
    <path d="M-6.95 -10.3 L-6.9 -10.35 -6.9 -10.3 -6.95 -10.3 M-6.4 -7.05 L-6.4 -6.9 -6.45 -6.9 -6.4 -7.05" fill="url(#gradient62)" fill-rule="evenodd" stroke="none"/>
    <path d="M-6.5 -6.3 Q-8.4 -8.1 -6.95 -10.3 L-6.9 -10.3 -6.4 -7.05 -6.45 -6.9 -6.5 -6.3" fill="url(#gradient63)" fill-rule="evenodd" stroke="none"/>
    <path d="M-6.35 -6.1 L-6.5 -6.3 -6.45 -6.9 -6.4 -6.9 -6.3 -6.1 -6.35 -6.1" fill="url(#gradient64)" fill-rule="evenodd" stroke="none"/>
    <path d="M-6.0 -5.5 L-6.35 -6.1 -6.3 -6.1 -6.0 -5.65 -6.0 -5.5" fill="url(#gradient65)" fill-rule="evenodd" stroke="none"/>
    <path d="M6.4 0.95 L6.85 1.95 Q6.75 3.95 3.5 3.15 L3.45 3.1 2.25 0.7 4.0 2.0 5.1 2.2 5.6 1.9 5.7 1.6 5.75 0.7 6.4 0.95" fill="url(#gradient66)" fill-rule="evenodd" stroke="none"/>
    <path d="M6.85 1.95 L7.05 2.05 Q8.75 3.7 6.8 4.25 L5.25 5.0 Q3.3 4.45 3.4 4.1 L3.45 4.05 3.45 3.15 3.5 3.15 Q6.75 3.95 6.85 1.95" fill="url(#gradient67)" fill-rule="evenodd" stroke="none"/>
    <path d="M7.05 2.05 Q9.45 1.9 9.3 5.15 9.15 7.75 4.6 7.55 L4.55 7.5 4.05 7.2 3.35 6.2 3.15 5.5 3.05 4.85 3.4 4.1 Q3.3 4.45 5.25 5.0 L6.8 4.25 Q8.75 3.7 7.05 2.05" fill="url(#gradient68)" fill-rule="evenodd" stroke="none"/>
    <path d="M3.45 3.15 L3.45 3.1 3.5 3.15 3.45 3.15" fill="url(#gradient69)" fill-rule="evenodd" stroke="none"/>
    <path d="M6.4 12.4 Q4.25 12.9 3.95 12.0 2.75 9.8 3.65 7.8 L4.05 7.2 4.55 7.5 4.6 7.55 5.4 9.5 Q6.35 10.3 6.2 10.65 L6.15 11.55 6.4 12.4" fill="url(#gradient70)" fill-rule="evenodd" stroke="none"/>
    <path d="M3.95 12.0 Q-1.55 9.15 3.15 5.5 L3.35 6.2 4.05 7.2 3.65 7.8 Q2.75 9.8 3.95 12.0" fill="url(#gradient71)" fill-rule="evenodd" stroke="none"/>
    <path d="M9.3 5.15 L10.45 7.5 10.0 7.8 Q7.15 11.05 6.2 10.65 6.35 10.3 5.4 9.5 L4.6 7.55 Q9.15 7.75 9.3 5.15" fill="url(#gradient72)" fill-rule="evenodd" stroke="none"/>
    <path d="M10.45 7.5 Q14.75 9.4 6.4 12.4 L6.15 11.55 6.2 10.65 Q7.15 11.05 10.0 7.8 L10.45 7.5" fill="url(#gradient73)" fill-rule="evenodd" stroke="none"/>
  </g>
  <defs>
    <radialGradient cx="0" cy="0" gradientTransform="matrix(0.0059, 0.0, 0.0, 0.0059, 2.15, -58.5)" gradientUnits="userSpaceOnUse" id="gradient0" r="819.2" spreadMethod="pad">
      <stop offset="0.0" stop-color="#d83030"/>
      <stop offset="1.0" stop-color="#cc2d2d"/>
    </radialGradient>
    <radialGradient cx="0" cy="0" gradientTransform="matrix(0.004, 0.0, 0.0, 0.004, 4.05, -56.45)" gradientUnits="userSpaceOnUse" id="gradient1" r="819.2" spreadMethod="pad">
      <stop offset="0.0" stop-color="#ba2929"/>
      <stop offset="1.0" stop-color="#b52828"/>
    </radialGradient>
    <radialGradient cx="0" cy="0" gradientTransform="matrix(0.0033, 0.0, 0.0, 0.0033, 4.05, -56.3)" gradientUnits="userSpaceOnUse" id="gradient2" r="819.2" spreadMethod="pad">
      <stop offset="0.0" stop-color="#7a1b1b"/>
      <stop offset="1.0" stop-color="#511212"/>
    </radialGradient>
    <radialGradient cx="0" cy="0" gradientTransform="matrix(0.0059, 0.0, 0.0, 0.0059, 0.45, -55.45)" gradientUnits="userSpaceOnUse" id="gradient3" r="819.2" spreadMethod="pad">
      <stop offset="0.0" stop-color="#9e2323"/>
      <stop offset="1.0" stop-color="#6e1818"/>
    </radialGradient>
    <radialGradient cx="0" cy="0" gradientTransform="matrix(0.0058, 0.0, 0.0, 0.0058, 0.6, -55.6)" gradientUnits="userSpaceOnUse" id="gradient4" r="819.2" spreadMethod="pad">
      <stop offset="0.0" stop-color="#dd3131"/>
      <stop offset="1.0" stop-color="#b32727"/>
    </radialGradient>
    <radialGradient cx="0" cy="0" gradientTransform="matrix(0.0062, 0.0, 0.0, 0.0062, -0.8, -51.15)" gradientUnits="userSpaceOnUse" id="gradient5" r="819.2" spreadMethod="pad">
      <stop offset="0.0" stop-color="#f33636"/>
      <stop offset="1.0" stop-color="#811c1c"/>
    </radialGradient>
    <radialGradient cx="0" cy="0" gradientTransform="matrix(0.0073, 0.0, 0.0, 0.0073, -4.35, -51.1)" gradientUnits="userSpaceOnUse" id="gradient6" r="819.2" spreadMethod="pad">
      <stop offset="0.0" stop-color="#cd2e2e"/>
      <stop offset="1.0" stop-color="#932121"/>
    </radialGradient>
    <radialGradient cx="0" cy="0" gradientTransform="matrix(0.021, 0.0, 0.0, 0.021, 10.1, -36.55)" gradientUnits="userSpaceOnUse" id="gradient7" r="819.2" spreadMethod="pad">
      <stop offset="0.0" stop-color="#ffdd80"/>
      <stop offset="1.0" stop-color="#ab7946"/>
    </radialGradient>
    <radialGradient cx="0" cy="0" gradientTransform="matrix(0.0076, 0.0, 0.0, 0.0076, 10.3, -41.75)" gradientUnits="userSpaceOnUse" id="gradient8" r="819.2" spreadMethod="pad">
      <stop offset="0.0" stop-color="#ffdd81"/>
      <stop offset="1.0" stop-color="#b07c48"/>
    </radialGradient>
    <radialGradient cx="0" cy="0" gradientTransform="matrix(0.016, 0.0, 0.0, 0.016, 2.45, -48.3)" gradientUnits="userSpaceOnUse" id="gradient9" r="819.2" spreadMethod="pad">
      <stop offset="0.0" stop-color="#f8f8f8"/>
      <stop offset="1.0" stop-color="#cecece"/>
    </radialGradient>
    <radialGradient cx="0" cy="0" gradientTransform="matrix(0.0075, 0.0, 0.0, 0.0075, 15.15, -37.7)" gradientUnits="userSpaceOnUse" id="gradient10" r="819.2" spreadMethod="pad">
      <stop offset="0.0" stop-color="#ffdf82"/>
      <stop offset="1.0" stop-color="#ad7a47"/>
    </radialGradient>
    <radialGradient cx="0" cy="0" gradientTransform="matrix(0.0074, 0.0, 0.0, 0.0074, -1.35, -47.5)" gradientUnits="userSpaceOnUse" id="gradient11" r="819.2" spreadMethod="pad">
      <stop offset="0.0" stop-color="#d1d1d1"/>
      <stop offset="1.0" stop-color="#a1a1a1"/>
    </radialGradient>
    <radialGradient cx="0" cy="0" gradientTransform="matrix(0.0054, 0.0, 0.0, 0.0054, 0.65, -44.9)" gradientUnits="userSpaceOnUse" id="gradient12" r="819.2" spreadMethod="pad">
      <stop offset="0.0" stop-color="#ffd77d"/>
      <stop offset="1.0" stop-color="#dc9b5a"/>
    </radialGradient>
    <radialGradient cx="0" cy="0" gradientTransform="matrix(0.0103, 0.0, 0.0, 0.0103, 4.1, -42.5)" gradientUnits="userSpaceOnUse" id="gradient13" r="819.2" spreadMethod="pad">
      <stop offset="0.0" stop-color="#ffffff"/>
      <stop offset="1.0" stop-color="#c8c8c8"/>
    </radialGradient>
    <radialGradient cx="0" cy="0" gradientTransform="matrix(0.0094, 0.0, 0.0, 0.0094, 2.1, -25.65)" gradientUnits="userSpaceOnUse" id="gradient14" r="819.2" spreadMethod="pad">
      <stop offset="0.0" stop-color="#6a634d"/>
      <stop offset="1.0" stop-color="#393529"/>
    </radialGradient>
    <radialGradient cx="0" cy="0" gradientTransform="matrix(0.0089, 0.0, 0.0, 0.0089, -0.9, -25.05)" gradientUnits="userSpaceOnUse" id="gradient15" r="819.2" spreadMethod="pad">
      <stop offset="0.0" stop-color="#988b8b"/>
      <stop offset="1.0" stop-color="#4d4646"/>
    </radialGradient>
    <radialGradient cx="0" cy="0" gradientTransform="matrix(0.0123, 0.0, 0.0, 0.0123, 5.55, -28.35)" gradientUnits="userSpaceOnUse" id="gradient16" r="819.2" spreadMethod="pad">
      <stop offset="0.0" stop-color="#ffffff"/>
      <stop offset="1.0" stop-color="#a4a4a4"/>
    </radialGradient>
    <radialGradient cx="0" cy="0" gradientTransform="matrix(0.0034, 0.0, 0.0, 0.0034, 6.45, -30.75)" gradientUnits="userSpaceOnUse" id="gradient17" r="819.2" spreadMethod="pad">
      <stop offset="0.0" stop-color="#929292"/>
      <stop offset="1.0" stop-color="#7a7a7a"/>
    </radialGradient>
    <radialGradient cx="0" cy="0" gradientTransform="matrix(0.0073, 0.0, 0.0, 0.0073, 4.1, -26.75)" gradientUnits="userSpaceOnUse" id="gradient18" r="819.2" spreadMethod="pad">
      <stop offset="0.0" stop-color="#968888"/>
      <stop offset="1.0" stop-color="#3a3535"/>
    </radialGradient>
    <radialGradient cx="0" cy="0" gradientTransform="matrix(0.0046, 0.0, 0.0, 0.0046, 15.55, -33.8)" gradientUnits="userSpaceOnUse" id="gradient19" r="819.2" spreadMethod="pad">
      <stop offset="0.0" stop-color="#ffe384"/>
      <stop offset="1.0" stop-color="#a37343"/>
    </radialGradient>
    <radialGradient cx="0" cy="0" gradientTransform="matrix(0.0031, 0.0, 0.0, 0.0031, 15.45, -31.1)" gradientUnits="userSpaceOnUse" id="gradient20" r="819.2" spreadMethod="pad">
      <stop offset="0.0" stop-color="#ffba6c"/>
      <stop offset="1.0" stop-color="#90663b"/>
    </radialGradient>
    <radialGradient cx="0" cy="0" gradientTransform="matrix(0.0081, 0.0, 0.0, 0.0081, 13.25, -36.65)" gradientUnits="userSpaceOnUse" id="gradient21" r="819.2" spreadMethod="pad">
      <stop offset="0.0" stop-color="#ffdf82"/>
      <stop offset="1.0" stop-color="#875f38"/>
    </radialGradient>
    <radialGradient cx="0" cy="0" gradientTransform="matrix(0.0035, 0.0, 0.0, 0.0035, 13.65, -37.95)" gradientUnits="userSpaceOnUse" id="gradient22" r="819.2" spreadMethod="pad">
      <stop offset="0.0" stop-color="#ffe082"/>
      <stop offset="1.0" stop-color="#ffd37b"/>
    </radialGradient>
    <radialGradient cx="0" cy="0" gradientTransform="matrix(0.0095, 0.0, 0.0, 0.0095, 13.7, -30.55)" gradientUnits="userSpaceOnUse" id="gradient23" r="819.2" spreadMethod="pad">
      <stop offset="0.0" stop-color="#6a634d"/>
      <stop offset="1.0" stop-color="#322f24"/>
    </radialGradient>
    <radialGradient cx="0" cy="0" gradientTransform="matrix(0.0079, 0.0, 0.0, 0.0079, 13.15, -30.25)" gradientUnits="userSpaceOnUse" id="gradient24" r="819.2" spreadMethod="pad">
      <stop offset="0.0" stop-color="#0c0c09"/>
      <stop offset="1.0" stop-color="#0c0c09"/>
    </radialGradient>
    <radialGradient cx="0" cy="0" gradientTransform="matrix(0.0039, 0.0, 0.0, 0.0039, 14.95, -24.0)" gradientUnits="userSpaceOnUse" id="gradient25" r="819.2" spreadMethod="pad">
      <stop offset="0.0" stop-color="#6e6750"/>
      <stop offset="1.0" stop-color="#383429"/>
    </radialGradient>
    <radialGradient cx="0" cy="0" gradientTransform="matrix(0.0032, 0.0, 0.0, 0.0032, 14.55, -24.75)" gradientUnits="userSpaceOnUse" id="gradient26" r="819.2" spreadMethod="pad">
      <stop offset="0.0" stop-color="#ffee8b"/>
      <stop offset="1.0" stop-color="#bc854d"/>
    </radialGradient>
    <radialGradient cx="0" cy="0" gradientTransform="matrix(0.0101, 0.0, 0.0, 0.0101, 4.15, -20.0)" gradientUnits="userSpaceOnUse" id="gradient27" r="819.2" spreadMethod="pad">
      <stop offset="0.0" stop-color="#6b6161"/>
      <stop offset="1.0" stop-color="#484242"/>
    </radialGradient>
    <radialGradient cx="0" cy="0" gradientTransform="matrix(0.0069, 0.0, 0.0, 0.0069, 4.15, -23.15)" gradientUnits="userSpaceOnUse" id="gradient28" r="819.2" spreadMethod="pad">
      <stop offset="0.0" stop-color="#6b6161"/>
      <stop offset="1.0" stop-color="#514a4a"/>
    </radialGradient>
    <radialGradient cx="0" cy="0" gradientTransform="matrix(0.0147, 0.0, 0.0, 0.0147, -3.2, -23.05)" gradientUnits="userSpaceOnUse" id="gradient29" r="819.2" spreadMethod="pad">
      <stop offset="0.0" stop-color="#9b8d8d"/>
      <stop offset="1.0" stop-color="#655c5c"/>
    </radialGradient>
    <radialGradient cx="0" cy="0" gradientTransform="matrix(0.0019, 0.0, 0.0, 0.0019, 1.7, -19.55)" gradientUnits="userSpaceOnUse" id="gradient30" r="819.2" spreadMethod="pad">
      <stop offset="0.0" stop-color="#4e4747"/>
      <stop offset="1.0" stop-color="#443e3e"/>
    </radialGradient>
    <radialGradient cx="0" cy="0" gradientTransform="matrix(0.023, 0.0, 0.0, 0.023, 3.35, -2.9)" gradientUnits="userSpaceOnUse" id="gradient31" r="819.2" spreadMethod="pad">
      <stop offset="0.0" stop-color="#8f8282"/>
      <stop offset="1.0" stop-color="#635a5a"/>
    </radialGradient>
    <radialGradient cx="0" cy="0" gradientTransform="matrix(0.0035, 0.0, 0.0, 0.0035, 5.3, -12.7)" gradientUnits="userSpaceOnUse" id="gradient32" r="819.2" spreadMethod="pad">
      <stop offset="0.0" stop-color="#333025"/>
      <stop offset="1.0" stop-color="#2d2a20"/>
    </radialGradient>
    <radialGradient cx="0" cy="0" gradientTransform="matrix(0.0148, 0.0, 0.0, 0.0148, 2.35, -5.2)" gradientUnits="userSpaceOnUse" id="gradient33" r="819.2" spreadMethod="pad">
      <stop offset="0.0" stop-color="#635d48"/>
      <stop offset="1.0" stop-color="#3d392c"/>
    </radialGradient>
    <radialGradient cx="0" cy="0" gradientTransform="matrix(0.0079, 0.0, 0.0, 0.0079, 2.95, -4.05)" gradientUnits="userSpaceOnUse" id="gradient34" r="819.2" spreadMethod="pad">
      <stop offset="0.0" stop-color="#ffd87e"/>
      <stop offset="1.0" stop-color="#805a34"/>
    </radialGradient>
    <radialGradient cx="0" cy="0" gradientTransform="matrix(0.0062, 0.0, 0.0, 0.0062, 4.4, -3.7)" gradientUnits="userSpaceOnUse" id="gradient35" r="819.2" spreadMethod="pad">
      <stop offset="0.0" stop-color="#ffcf78"/>
      <stop offset="1.0" stop-color="#976a3e"/>
    </radialGradient>
    <radialGradient cx="0" cy="0" gradientTransform="matrix(0.0092, 0.0, 0.0, 0.0092, -3.15, -55.05)" gradientUnits="userSpaceOnUse" id="gradient36" r="819.2" spreadMethod="pad">
      <stop offset="0.0" stop-color="#f53636"/>
      <stop offset="1.0" stop-color="#ef3535"/>
    </radialGradient>
    <radialGradient cx="0" cy="0" gradientTransform="matrix(0.0039, 0.0, 0.0, 0.0039, -0.3, -58.85)" gradientUnits="userSpaceOnUse" id="gradient37" r="819.2" spreadMethod="pad">
      <stop offset="0.0" stop-color="#a52525"/>
      <stop offset="1.0" stop-color="#a02323"/>
    </radialGradient>
    <radialGradient cx="0" cy="0" gradientTransform="matrix(0.0037, 0.0, 0.0, 0.0037, -0.3, -58.85)" gradientUnits="userSpaceOnUse" id="gradient38" r="819.2" spreadMethod="pad">
      <stop offset="0.0" stop-color="#e23232"/>
      <stop offset="1.0" stop-color="#df3232"/>
    </radialGradient>
    <radialGradient cx="0" cy="0" gradientTransform="matrix(0.0083, 0.0, 0.0, 0.0083, -0.8, -60.15)" gradientUnits="userSpaceOnUse" id="gradient39" r="819.2" spreadMethod="pad">
      <stop offset="0.0" stop-color="#db3131"/>
      <stop offset="1.0" stop-color="#c72c2c"/>
    </radialGradient>
    <radialGradient cx="0" cy="0" gradientTransform="matrix(0.009, 0.0, 0.0, 0.009, -5.1, -52.15)" gradientUnits="userSpaceOnUse" id="gradient40" r="819.2" spreadMethod="pad">
      <stop offset="0.0" stop-color="#ec3434"/>
      <stop offset="1.0" stop-color="#da3030"/>
    </radialGradient>
    <radialGradient cx="0" cy="0" gradientTransform="matrix(0.0051, 0.0, 0.0, 0.0051, -4.15, -58.2)" gradientUnits="userSpaceOnUse" id="gradient41" r="819.2" spreadMethod="pad">
      <stop offset="0.0" stop-color="#9d2323"/>
      <stop offset="1.0" stop-color="#8f2020"/>
    </radialGradient>
    <radialGradient cx="0" cy="0" gradientTransform="matrix(0.0043, 0.0, 0.0, 0.0043, -0.9, -57.85)" gradientUnits="userSpaceOnUse" id="gradient42" r="819.2" spreadMethod="pad">
      <stop offset="0.0" stop-color="#972222"/>
      <stop offset="1.0" stop-color="#942121"/>
    </radialGradient>
    <radialGradient cx="0" cy="0" gradientTransform="matrix(0.0066, 0.0, 0.0, 0.0066, -5.65, -53.55)" gradientUnits="userSpaceOnUse" id="gradient43" r="819.2" spreadMethod="pad">
      <stop offset="0.0" stop-color="#a02323"/>
      <stop offset="1.0" stop-color="#912020"/>
    </radialGradient>
    <radialGradient cx="0" cy="0" gradientTransform="matrix(0.0014, 0.0, 0.0, 0.0014, -5.7, -52.0)" gradientUnits="userSpaceOnUse" id="gradient44" r="819.2" spreadMethod="pad">
      <stop offset="0.0" stop-color="#8d1f1f"/>
      <stop offset="1.0" stop-color="#8b1f1f"/>
    </radialGradient>
    <radialGradient cx="0" cy="0" gradientTransform="matrix(0.0048, 0.0, 0.0, 0.0048, -3.1, -48.75)" gradientUnits="userSpaceOnUse" id="gradient45" r="819.2" spreadMethod="pad">
      <stop offset="0.0" stop-color="#adadad"/>
      <stop offset="1.0" stop-color="#aaaaaa"/>
    </radialGradient>
    <radialGradient cx="0" cy="0" gradientTransform="matrix(0.0024, 0.0, 0.0, 0.0024, -2.85, -53.0)" gradientUnits="userSpaceOnUse" id="gradient46" r="819.2" spreadMethod="pad">
      <stop offset="0.0" stop-color="#5e1515"/>
      <stop offset="1.0" stop-color="#1f0707"/>
    </radialGradient>
    <radialGradient cx="0" cy="0" gradientTransform="matrix(0.0039, 0.0, 0.0, 0.0039, -1.7, -54.05)" gradientUnits="userSpaceOnUse" id="gradient47" r="819.2" spreadMethod="pad">
      <stop offset="0.0" stop-color="#b72929"/>
      <stop offset="1.0" stop-color="#b22828"/>
    </radialGradient>
    <radialGradient cx="0" cy="0" gradientTransform="matrix(0.0042, 0.0, 0.0, 0.0042, -1.6, -47.35)" gradientUnits="userSpaceOnUse" id="gradient48" r="819.2" spreadMethod="pad">
      <stop offset="0.0" stop-color="#cd9154"/>
      <stop offset="1.0" stop-color="#9c6e40"/>
    </radialGradient>
    <radialGradient cx="0" cy="0" gradientTransform="matrix(0.0048, 0.0, 0.0, 0.0048, -5.8, -40.15)" gradientUnits="userSpaceOnUse" id="gradient49" r="819.2" spreadMethod="pad">
      <stop offset="0.0" stop-color="#ffcd77"/>
      <stop offset="1.0" stop-color="#875f37"/>
    </radialGradient>
    <radialGradient cx="0" cy="0" gradientTransform="matrix(0.0086, 0.0, 0.0, 0.0086, -6.1, -37.1)" gradientUnits="userSpaceOnUse" id="gradient50" r="819.2" spreadMethod="pad">
      <stop offset="0.0" stop-color="#ffd87e"/>
      <stop offset="1.0" stop-color="#b27e49"/>
    </radialGradient>
    <radialGradient cx="0" cy="0" gradientTransform="matrix(0.0059, 0.0, 0.0, 0.0059, -11.75, -32.95)" gradientUnits="userSpaceOnUse" id="gradient51" r="819.2" spreadMethod="pad">
      <stop offset="0.0" stop-color="#de9d5b"/>
      <stop offset="1.0" stop-color="#b37e49"/>
    </radialGradient>
    <radialGradient cx="0" cy="0" gradientTransform="matrix(0.0044, 0.0, 0.0, 0.0044, -13.1, -28.3)" gradientUnits="userSpaceOnUse" id="gradient52" r="819.2" spreadMethod="pad">
      <stop offset="0.0" stop-color="#635c48"/>
      <stop offset="1.0" stop-color="#333025"/>
    </radialGradient>
    <radialGradient cx="0" cy="0" gradientTransform="matrix(0.0041, 0.0, 0.0, 0.0041, -15.85, -27.9)" gradientUnits="userSpaceOnUse" id="gradient53" r="819.2" spreadMethod="pad">
      <stop offset="0.0" stop-color="#6c654f"/>
      <stop offset="1.0" stop-color="#343125"/>
    </radialGradient>
    <radialGradient cx="0" cy="0" gradientTransform="matrix(0.0065, 0.0, 0.0, 0.0065, -9.6, -32.0)" gradientUnits="userSpaceOnUse" id="gradient54" r="819.2" spreadMethod="pad">
      <stop offset="0.0" stop-color="#ffde81"/>
      <stop offset="1.0" stop-color="#93683d"/>
    </radialGradient>
    <radialGradient cx="0" cy="0" gradientTransform="matrix(0.0017, 0.0, 0.0, 0.0017, -14.85, -29.0)" gradientUnits="userSpaceOnUse" id="gradient55" r="819.2" spreadMethod="pad">
      <stop offset="0.0" stop-color="#ffc573"/>
      <stop offset="1.0" stop-color="#93683c"/>
    </radialGradient>
    <radialGradient cx="0" cy="0" gradientTransform="matrix(0.0011, 0.0, 0.0, 0.0011, -15.7, -25.8)" gradientUnits="userSpaceOnUse" id="gradient56" r="819.2" spreadMethod="pad">
      <stop offset="0.0" stop-color="#29261e"/>
      <stop offset="1.0" stop-color="#11100d"/>
    </radialGradient>
    <radialGradient cx="0" cy="0" gradientTransform="matrix(0.0031, 0.0, 0.0, 0.0031, -15.9, -27.45)" gradientUnits="userSpaceOnUse" id="gradient57" r="819.2" spreadMethod="pad">
      <stop offset="0.0" stop-color="#343126"/>
      <stop offset="1.0" stop-color="#0c0c09"/>
    </radialGradient>
    <radialGradient cx="0" cy="0" gradientTransform="matrix(0.0028, 0.0, 0.0, 0.0028, -10.35, -27.3)" gradientUnits="userSpaceOnUse" id="gradient58" r="819.2" spreadMethod="pad">
      <stop offset="0.0" stop-color="#e5a25e"/>
      <stop offset="1.0" stop-color="#a77644"/>
    </radialGradient>
    <radialGradient cx="0" cy="0" gradientTransform="matrix(0.0032, 0.0, 0.0, 0.0032, -9.05, -28.6)" gradientUnits="userSpaceOnUse" id="gradient59" r="819.2" spreadMethod="pad">
      <stop offset="0.0" stop-color="#ffda7f"/>
      <stop offset="1.0" stop-color="#805a34"/>
    </radialGradient>
    <radialGradient cx="0" cy="0" gradientTransform="matrix(0.0044, 0.0, 0.0, 0.0044, -7.7, -30.85)" gradientUnits="userSpaceOnUse" id="gradient60" r="819.2" spreadMethod="pad">
      <stop offset="0.0" stop-color="#ffc271"/>
      <stop offset="1.0" stop-color="#7d5833"/>
    </radialGradient>
    <radialGradient cx="0" cy="0" gradientTransform="matrix(0.0107, 0.0, 0.0, 0.0107, -7.6, -17.25)" gradientUnits="userSpaceOnUse" id="gradient61" r="819.2" spreadMethod="pad">
      <stop offset="0.0" stop-color="#4d4646"/>
      <stop offset="1.0" stop-color="#2d2929"/>
    </radialGradient>
    <radialGradient cx="0" cy="0" gradientTransform="matrix(0.0092, 0.0, 0.0, 0.0092, -7.5, -13.65)" gradientUnits="userSpaceOnUse" id="gradient62" r="819.2" spreadMethod="pad">
      <stop offset="0.0" stop-color="#494242"/>
      <stop offset="1.0" stop-color="#403b3b"/>
    </radialGradient>
    <radialGradient cx="0" cy="0" gradientTransform="matrix(0.0029, 0.0, 0.0, 0.0029, -5.9, -8.25)" gradientUnits="userSpaceOnUse" id="gradient63" r="819.2" spreadMethod="pad">
      <stop offset="0.0" stop-color="#655f49"/>
      <stop offset="1.0" stop-color="#3b372a"/>
    </radialGradient>
    <radialGradient cx="0" cy="0" gradientTransform="matrix(0.002, 0.0, 0.0, 0.002, -6.3, -7.65)" gradientUnits="userSpaceOnUse" id="gradient64" r="819.2" spreadMethod="pad">
      <stop offset="0.0" stop-color="#d22f2f"/>
      <stop offset="1.0" stop-color="#a02323"/>
    </radialGradient>
    <radialGradient cx="0" cy="0" gradientTransform="matrix(0.0032, 0.0, 0.0, 0.0032, -5.95, -5.4)" gradientUnits="userSpaceOnUse" id="gradient65" r="819.2" spreadMethod="pad">
      <stop offset="0.0" stop-color="#2d2a21"/>
      <stop offset="1.0" stop-color="#0c0c09"/>
    </radialGradient>
    <radialGradient cx="0" cy="0" gradientTransform="matrix(0.0058, 0.0, 0.0, 0.0058, 4.9, 0.7)" gradientUnits="userSpaceOnUse" id="gradient66" r="819.2" spreadMethod="pad">
      <stop offset="0.0" stop-color="#ffcd77"/>
      <stop offset="1.0" stop-color="#ab7846"/>
    </radialGradient>
    <radialGradient cx="0" cy="0" gradientTransform="matrix(0.0039, 0.0, 0.0, 0.0039, 6.5, 3.0)" gradientUnits="userSpaceOnUse" id="gradient67" r="819.2" spreadMethod="pad">
      <stop offset="0.0" stop-color="#ffffff"/>
      <stop offset="1.0" stop-color="#afafaf"/>
    </radialGradient>
    <radialGradient cx="0" cy="0" gradientTransform="matrix(0.0049, 0.0, 0.0, 0.0049, 6.8, 4.25)" gradientUnits="userSpaceOnUse" id="gradient68" r="819.2" spreadMethod="pad">
      <stop offset="0.0" stop-color="#726b53"/>
      <stop offset="1.0" stop-color="#353226"/>
    </radialGradient>
    <radialGradient cx="0" cy="0" gradientTransform="matrix(0.0034, 0.0, 0.0, 0.0034, 2.4, 0.95)" gradientUnits="userSpaceOnUse" id="gradient69" r="819.2" spreadMethod="pad">
      <stop offset="0.0" stop-color="#261b10"/>
      <stop offset="1.0" stop-color="#261b10"/>
    </radialGradient>
    <radialGradient cx="0" cy="0" gradientTransform="matrix(0.0067, 0.0, 0.0, 0.0067, 3.75, 7.4)" gradientUnits="userSpaceOnUse" id="gradient70" r="819.2" spreadMethod="pad">
      <stop offset="0.0" stop-color="#e33333"/>
      <stop offset="1.0" stop-color="#932020"/>
    </radialGradient>
    <radialGradient cx="0" cy="0" gradientTransform="matrix(0.0054, 0.0, 0.0, 0.0054, 4.25, 7.8)" gradientUnits="userSpaceOnUse" id="gradient71" r="819.2" spreadMethod="pad">
      <stop offset="0.0" stop-color="#736b53"/>
      <stop offset="1.0" stop-color="#443f31"/>
    </radialGradient>
    <radialGradient cx="0" cy="0" gradientTransform="matrix(0.0064, 0.0, 0.0, 0.0064, 6.8, 6.2)" gradientUnits="userSpaceOnUse" id="gradient72" r="819.2" spreadMethod="pad">
      <stop offset="0.0" stop-color="#e23232"/>
      <stop offset="1.0" stop-color="#af2727"/>
    </radialGradient>
    <radialGradient cx="0" cy="0" gradientTransform="matrix(0.0051, 0.0, 0.0, 0.0051, 8.4, 8.7)" gradientUnits="userSpaceOnUse" id="gradient73" r="819.2" spreadMethod="pad">
      <stop offset="0.0" stop-color="#746d54"/>
      <stop offset="1.0" stop-color="#4a4636"/>
    </radialGradient>
  </defs>
</svg>
