<?xml version="1.0" encoding="UTF-8" standalone="no"?>
<svg xmlns:ffdec="https://www.free-decompiler.com/flash" xmlns:xlink="http://www.w3.org/1999/xlink" ffdec:objectType="shape" height="74.45px" width="36.65px" xmlns="http://www.w3.org/2000/svg">
  <g transform="matrix(1.0, 0.0, 0.0, 1.0, 17.0, 61.45)">
    <path d="M7.35 -60.95 L7.75 -61.45 7.85 -60.65 7.75 -58.9 7.15 -55.1 7.0 -56.95 6.75 -57.35 6.35 -56.75 5.65 -54.7 5.2 -56.25 7.35 -60.95" fill="url(#gradient0)" fill-rule="evenodd" stroke="none"/>
    <path d="M7.35 -60.95 L5.2 -56.25 5.1 -56.7 7.35 -60.95" fill="url(#gradient1)" fill-rule="evenodd" stroke="none"/>
    <path d="M5.2 -56.25 L5.65 -54.7 5.4 -53.7 4.35 -55.1 3.8 -55.5 3.65 -55.15 3.65 -55.35 3.95 -58.4 4.15 -58.75 4.3 -58.6 5.1 -56.7 5.2 -56.25" fill="url(#gradient2)" fill-rule="evenodd" stroke="none"/>
    <path d="M5.65 -54.7 L6.35 -56.75 6.75 -57.35 7.0 -56.95 7.15 -55.1 7.3 -52.35 7.35 -52.2 7.35 -52.15 7.05 -51.55 6.8 -51.55 6.3 -52.2 6.3 -52.25 6.0 -52.95 5.7 -53.2 5.55 -53.4 5.6 -53.55 5.45 -53.55 5.4 -53.7 5.65 -54.7" fill="url(#gradient3)" fill-rule="evenodd" stroke="none"/>
    <path d="M3.65 -60.4 L3.75 -60.45 3.9 -60.0 3.95 -58.4 3.65 -55.35 3.45 -55.5 2.5 -55.6 2.4 -55.85 3.65 -60.4" fill="url(#gradient4)" fill-rule="evenodd" stroke="none"/>
    <path d="M1.15 -56.25 L2.75 -59.4 3.65 -60.4 2.4 -55.85 2.25 -56.05 1.15 -56.25" fill="url(#gradient5)" fill-rule="evenodd" stroke="none"/>
    <path d="M-1.2 -56.3 L-1.25 -56.45 -1.0 -56.5 -0.25 -56.5 1.15 -56.25 2.25 -56.05 2.4 -55.85 2.5 -55.6 3.45 -55.5 3.65 -55.35 3.65 -55.15 1.85 -55.45 1.0 -54.9 -1.2 -56.3" fill="url(#gradient6)" fill-rule="evenodd" stroke="none"/>
    <path d="M3.75 -53.4 L3.7 -54.65 3.65 -54.9 3.65 -55.15 3.8 -55.5 4.45 -54.85 6.0 -52.25 5.4 -52.55 5.2 -52.8 3.75 -53.2 3.75 -53.35 3.75 -53.4" fill="url(#gradient7)" fill-rule="evenodd" stroke="none"/>
    <path d="M7.05 -51.55 L7.05 -51.5 7.0 -51.2 6.8 -51.55 7.05 -51.55 M-2.2 -50.1 L-2.25 -51.2 -1.95 -51.35 -1.65 -52.0 -1.7 -52.2 -1.9 -52.55 -1.6 -53.15 -1.55 -53.2 -1.15 -54.15 0.15 -54.95 1.0 -54.9 1.85 -55.45 3.65 -55.15 3.65 -54.9 3.7 -54.65 3.75 -53.4 3.7 -53.35 3.35 -52.95 2.75 -52.85 2.9 -52.35 2.75 -52.2 1.6 -50.0 2.1 -50.1 3.95 -51.15 4.9 -50.4 5.7 -50.2 5.6 -49.95 5.95 -49.55 Q6.55 -49.65 7.1 -50.1 L7.15 -50.0 7.0 -49.5 6.7 -49.3 5.1 -48.4 Q5.95 -47.05 1.25 -46.95 L-0.05 -47.65 -0.8 -47.55 Q-1.25 -48.65 -2.05 -49.0 L-2.15 -49.9 -2.2 -50.1 M6.3 -52.25 L6.1 -52.3 5.7 -53.2 6.0 -52.95 6.3 -52.25 M2.7 -46.3 L2.65 -46.2 2.0 -46.15 1.7 -46.35 2.7 -46.3" fill="url(#gradient8)" fill-rule="evenodd" stroke="none"/>
    <path d="M3.75 -53.4 L3.75 -53.35 3.7 -53.35 3.75 -53.4" fill="url(#gradient9)" fill-rule="evenodd" stroke="none"/>
    <path d="M3.75 -53.35 L3.75 -53.2 5.2 -52.8 5.4 -52.55 3.35 -52.95 3.7 -53.35 3.75 -53.35 M2.9 -52.35 L3.15 -52.2 3.95 -51.15 2.1 -50.1 1.6 -50.0 2.75 -52.2 2.9 -52.35 M5.45 -53.55 L5.6 -53.55 5.55 -53.4 5.45 -53.55" fill="url(#gradient10)" fill-rule="evenodd" stroke="none"/>
    <path d="M5.4 -52.55 L6.0 -52.25 6.1 -52.3 6.3 -52.25 6.3 -52.2 6.8 -51.55 7.0 -51.2 7.25 -50.25 7.15 -50.0 7.1 -50.1 Q6.55 -49.65 5.95 -49.55 L5.6 -49.95 5.7 -50.2 4.9 -50.4 3.95 -51.15 3.15 -52.2 2.9 -52.35 2.75 -52.85 3.35 -52.95 5.4 -52.55" fill="url(#gradient11)" fill-rule="evenodd" stroke="none"/>
    <path d="M0.15 -54.95 L-1.2 -56.3 1.0 -54.9 0.15 -54.95" fill="url(#gradient12)" fill-rule="evenodd" stroke="none"/>
    <path d="M6.0 -52.25 L4.45 -54.85 3.8 -55.5 4.35 -55.1 5.4 -53.7 5.45 -53.55 5.55 -53.4 5.7 -53.2 6.1 -52.3 6.0 -52.25" fill="url(#gradient13)" fill-rule="evenodd" stroke="none"/>
    <path d="M7.05 -51.5 L7.25 -51.05 7.3 -50.25 7.25 -50.25 7.0 -51.2 7.05 -51.5 M5.1 -48.4 L6.7 -49.3 6.25 -48.85 5.1 -48.4" fill="url(#gradient14)" fill-rule="evenodd" stroke="none"/>
    <path d="M7.3 -50.25 L7.2 -48.55 Q7.1 -47.95 6.25 -47.2 L4.9 -46.55 2.7 -46.3 1.7 -46.35 -0.1 -46.85 0.0 -47.15 -1.1 -47.6 -1.25 -47.6 -2.15 -48.55 -2.2 -50.1 -2.15 -49.9 -2.05 -49.0 Q-1.25 -48.65 -0.8 -47.55 L-0.05 -47.65 1.25 -46.95 Q5.95 -47.05 5.1 -48.4 L6.25 -48.85 6.7 -49.3 7.0 -49.5 7.15 -50.0 7.25 -50.25 7.3 -50.25" fill="url(#gradient15)" fill-rule="evenodd" stroke="none"/>
    <path d="M6.25 -47.2 L5.6 -45.9 Q4.85 -44.85 3.95 -44.6 L3.85 -45.3 3.5 -45.7 2.65 -46.2 2.7 -46.3 4.9 -46.55 6.25 -47.2" fill="url(#gradient16)" fill-rule="evenodd" stroke="none"/>
    <path d="M-1.1 -47.6 L0.0 -47.15 -0.1 -46.85 -1.7 -42.5 -3.6 -36.9 -3.8 -35.0 -4.2 -35.0 -4.5 -34.6 -4.9 -34.6 -2.3 -43.8 -1.6 -46.15 -1.1 -47.6" fill="url(#gradient17)" fill-rule="evenodd" stroke="none"/>
    <path d="M3.95 -44.6 L3.95 -43.4 Q1.55 -42.0 -0.45 -42.0 L-1.05 -41.3 -1.2 -41.3 Q-1.3 -42.25 -1.7 -42.5 L-0.1 -46.85 1.7 -46.35 2.0 -46.15 2.65 -46.2 3.5 -45.7 3.85 -45.3 3.95 -44.6 M-1.6 -46.15 L-2.3 -43.8 -2.65 -44.1 -2.75 -44.75 -2.65 -45.2 -1.6 -46.15" fill="url(#gradient18)" fill-rule="evenodd" stroke="none"/>
    <path d="M3.95 -43.4 L5.2 -42.65 7.7 -40.15 7.85 -39.8 Q6.2 -39.4 4.85 -36.7 3.95 -34.25 7.45 -30.75 L5.7 -29.1 5.65 -29.05 5.45 -28.95 5.1 -28.1 Q5.1 -27.0 1.3 -27.05 L-0.05 -28.1 Q-1.1 -28.05 -3.3 -28.7 L-4.9 -30.2 -5.0 -30.3 -5.05 -30.35 -9.2 -35.05 -9.65 -35.55 -9.9 -36.85 -9.65 -37.95 -8.25 -38.15 -7.65 -38.55 -8.0 -36.25 -7.75 -35.8 -7.4 -35.6 -6.9 -38.15 -6.05 -40.15 -4.4 -43.1 -2.65 -45.2 -2.75 -44.75 -2.65 -44.1 -2.3 -43.8 -4.9 -34.6 -4.5 -34.6 -4.2 -35.0 -3.8 -35.0 -3.6 -36.9 -1.7 -42.5 Q-1.3 -42.25 -1.2 -41.3 L-1.05 -41.3 -0.45 -42.0 Q1.55 -42.0 3.95 -43.4 M-6.15 -44.55 L-5.2 -45.0 -3.85 -45.15 Q-5.05 -43.95 -5.9 -42.35 L-7.6 -38.7 -7.75 -39.45 -8.5 -40.15 -9.0 -40.3 -8.9 -40.55 -7.6 -42.85 -7.1 -43.3 -6.85 -44.05 -6.15 -44.55" fill="url(#gradient19)" fill-rule="evenodd" stroke="none"/>
    <path d="M5.2 -42.65 Q7.85 -41.9 9.15 -39.7 L7.85 -39.8 7.7 -40.15 5.2 -42.65" fill="url(#gradient20)" fill-rule="evenodd" stroke="none"/>
    <path d="M-4.9 -30.2 L-3.3 -28.7 Q-1.1 -28.05 -0.05 -28.1 L1.3 -27.05 Q5.1 -27.0 5.1 -28.1 L5.45 -28.95 5.65 -29.05 6.05 -28.1 Q4.75 -24.55 1.6 -25.1 1.25 -24.15 -4.55 -28.1 L-4.9 -29.25 -4.95 -30.2 -4.9 -30.2" fill="url(#gradient21)" fill-rule="evenodd" stroke="none"/>
    <path d="M9.15 -39.7 Q12.85 -38.55 13.4 -34.75 L13.45 -33.95 13.3 -33.15 Q12.7 -30.8 9.9 -30.2 L9.75 -30.2 8.15 -30.4 7.45 -30.75 Q3.95 -34.25 4.85 -36.7 6.2 -39.4 7.85 -39.8 L9.15 -39.7" fill="url(#gradient22)" fill-rule="evenodd" stroke="none"/>
    <path d="M5.7 -29.1 L6.65 -27.65 Q7.15 -26.6 7.1 -25.85 L6.85 -25.2 6.25 -24.3 5.1 -23.35 Q3.0 -24.95 0.05 -24.05 -0.8 -25.35 -2.25 -24.95 -3.4 -25.85 -4.25 -25.9 L-4.6 -26.3 -4.9 -26.3 -5.3 -29.65 -5.3 -29.7 -5.05 -30.35 -5.0 -30.3 -5.0 -30.25 -5.05 -29.55 -4.9 -29.25 -4.55 -28.1 Q1.25 -24.15 1.6 -25.1 4.75 -24.55 6.05 -28.1 L5.65 -29.05 5.7 -29.1" fill="url(#gradient23)" fill-rule="evenodd" stroke="none"/>
    <path d="M7.1 -25.85 Q10.05 -20.2 9.0 -15.4 8.7 -13.75 7.65 -13.4 L7.5 -13.2 Q-1.1 -10.8 -2.1 -16.05 L-2.15 -16.5 -2.15 -16.7 -2.1 -16.7 -2.1 -16.75 -2.0 -17.45 -1.5 -19.75 -1.05 -19.15 0.05 -18.35 0.2 -18.15 0.85 -18.1 2.3 -18.05 Q3.5 -18.5 4.5 -19.35 L5.15 -20.2 Q5.95 -21.75 5.95 -22.55 L6.0 -22.65 6.7 -22.5 7.05 -23.5 6.85 -25.2 7.1 -25.85" fill="url(#gradient24)" fill-rule="evenodd" stroke="none"/>
    <path d="M13.4 -34.75 Q15.95 -32.3 15.35 -29.6 L15.25 -29.4 Q15.4 -32.65 13.3 -33.15 L13.45 -33.95 13.4 -34.75 M9.9 -30.2 L9.8 -29.9 9.75 -30.2 9.9 -30.2" fill="url(#gradient25)" fill-rule="evenodd" stroke="none"/>
    <path d="M10.15 -27.0 Q7.9 -28.3 8.15 -30.4 L9.75 -30.2 9.8 -29.9 10.05 -28.65 10.4 -28.1 10.45 -27.9 10.15 -27.65 10.15 -27.0" fill="url(#gradient26)" fill-rule="evenodd" stroke="none"/>
    <path d="M9.8 -29.9 L9.9 -30.2 Q12.7 -30.8 13.3 -33.15 15.4 -32.65 15.25 -29.4 L14.8 -28.1 14.2 -27.15 13.2 -26.55 12.3 -26.55 11.2 -27.0 10.45 -27.9 10.4 -28.1 10.05 -28.65 9.8 -29.9" fill="url(#gradient27)" fill-rule="evenodd" stroke="none"/>
    <path d="M11.7 -25.75 L11.25 -25.75 10.7 -26.0 10.15 -27.0 10.15 -27.65 10.45 -27.9 11.2 -27.0 12.3 -26.55 12.1 -25.9 11.7 -25.75" fill="url(#gradient28)" fill-rule="evenodd" stroke="none"/>
    <path d="M13.05 -25.45 L12.05 -25.5 11.7 -25.75 12.1 -25.9 12.3 -26.55 13.2 -26.55 14.2 -27.15 13.85 -25.95 13.65 -25.7 13.05 -25.45" fill="url(#gradient29)" fill-rule="evenodd" stroke="none"/>
    <path d="M15.35 -29.6 L15.5 -29.55 16.65 -28.65 17.15 -28.1 Q18.65 -27.65 17.25 -25.3 L16.7 -25.2 16.4 -24.95 15.65 -24.55 13.8 -24.95 13.05 -25.45 13.65 -25.7 13.85 -25.95 14.2 -27.15 14.8 -28.1 15.25 -29.4 15.35 -29.6" fill="url(#gradient30)" fill-rule="evenodd" stroke="none"/>
    <path d="M15.5 -29.55 L16.55 -29.65 16.85 -29.5 16.65 -29.25 16.65 -28.65 15.5 -29.55" fill="url(#gradient31)" fill-rule="evenodd" stroke="none"/>
    <path d="M16.85 -29.5 Q20.45 -28.8 19.45 -25.8 17.95 -23.35 15.65 -24.55 L16.4 -24.95 16.6 -25.1 17.15 -25.15 17.25 -25.3 Q18.65 -27.65 17.15 -28.1 L16.65 -28.65 16.65 -29.25 16.85 -29.5" fill="url(#gradient32)" fill-rule="evenodd" stroke="none"/>
    <path d="M16.6 -25.1 L16.4 -24.95 16.7 -25.2 16.6 -25.1" fill="url(#gradient33)" fill-rule="evenodd" stroke="none"/>
    <path d="M17.25 -25.3 L17.15 -25.15 16.6 -25.1 16.7 -25.2 17.25 -25.3" fill="url(#gradient34)" fill-rule="evenodd" stroke="none"/>
    <path d="M6.85 -25.2 L7.05 -23.5 6.7 -22.5 6.0 -22.65 5.95 -22.55 Q5.95 -21.75 5.15 -20.2 L4.5 -19.35 Q3.5 -18.5 2.3 -18.05 L0.85 -18.1 0.15 -18.4 0.05 -18.35 -1.05 -19.15 -1.5 -19.75 -1.8 -20.4 Q-2.45 -21.45 -2.6 -23.45 L-2.25 -24.95 Q-0.8 -25.35 0.05 -24.05 3.0 -24.95 5.1 -23.35 L6.25 -24.3 6.85 -25.2" fill="url(#gradient35)" fill-rule="evenodd" stroke="none"/>
    <path d="M0.85 -18.1 L0.2 -18.15 0.05 -18.35 0.15 -18.4 0.85 -18.1" fill="url(#gradient36)" fill-rule="evenodd" stroke="none"/>
    <path d="M9.0 -15.4 L9.1 -13.1 8.6 -9.95 8.0 -6.45 7.9 -5.8 7.9 -5.7 7.65 -5.3 7.9 -8.1 8.7 -11.65 7.8 -13.4 7.65 -13.4 Q8.7 -13.75 9.0 -15.4 M-4.3 -9.2 L-3.8 -11.1 -3.6 -12.15 -2.45 -16.05 -2.2 -16.55 -2.15 -16.5 -2.1 -16.05 Q-1.1 -10.8 7.5 -13.2 5.45 -10.6 5.7 -6.8 L4.7 -4.0 Q2.7 -2.9 0.55 -4.0 -5.4 -6.4 -4.3 -9.2 M-2.1 -16.7 L-2.15 -16.7 -2.1 -16.7" fill="url(#gradient37)" fill-rule="evenodd" stroke="none"/>
    <path d="M7.6 -5.05 Q4.9 0.75 1.25 -1.35 -1.05 -1.75 -2.9 -3.0 L-4.25 -3.9 Q-6.75 -5.45 -4.3 -9.2 -5.4 -6.4 0.55 -4.0 2.7 -2.9 4.7 -4.0 L5.7 -6.8 Q5.45 -10.6 7.5 -13.2 L7.65 -13.4 7.8 -13.4 8.7 -11.65 7.9 -8.1 7.65 -5.3 7.6 -5.05" fill="url(#gradient38)" fill-rule="evenodd" stroke="none"/>
    <path d="M8.6 -9.95 Q10.0 -7.65 8.15 -6.0 L8.0 -6.45 8.6 -9.95" fill="url(#gradient39)" fill-rule="evenodd" stroke="none"/>
    <path d="M7.9 -5.7 L7.6 -5.05 7.65 -5.3 7.9 -5.7" fill="url(#gradient40)" fill-rule="evenodd" stroke="none"/>
    <path d="M8.15 -6.0 L8.15 -5.85 7.9 -5.8 8.0 -6.45 8.15 -6.0" fill="url(#gradient41)" fill-rule="evenodd" stroke="none"/>
    <path d="M1.25 -1.35 L-0.6 1.05 Q-3.8 4.1 -4.1 1.1 L-3.85 -0.6 -2.9 -3.0 Q-1.05 -1.75 1.25 -1.35" fill="url(#gradient42)" fill-rule="evenodd" stroke="none"/>
    <path d="M-3.15 -51.35 L-2.75 -52.1 -1.6 -53.15 -1.9 -52.55 -1.7 -52.2 -1.65 -52.0 -3.15 -51.35" fill="url(#gradient43)" fill-rule="evenodd" stroke="none"/>
    <path d="M-2.25 -51.2 L-2.9 -51.2 -3.15 -51.35 -1.65 -52.0 -1.95 -51.35 -2.25 -51.2" fill="url(#gradient44)" fill-rule="evenodd" stroke="none"/>
    <path d="M-3.85 -45.15 L-2.6 -46.55 -1.25 -47.6 -1.1 -47.6 -1.6 -46.15 -2.65 -45.2 -4.4 -43.1 -6.05 -40.15 -6.9 -38.15 -7.4 -35.6 -7.75 -35.8 -8.0 -36.25 -7.65 -38.55 -7.6 -38.7 -5.9 -42.35 Q-5.05 -43.95 -3.85 -45.15" fill="url(#gradient45)" fill-rule="evenodd" stroke="none"/>
    <path d="M-13.6 -38.65 Q-12.8 -46.05 -6.15 -44.55 L-6.85 -44.05 -7.1 -43.3 -7.6 -42.85 -8.9 -40.55 -9.0 -40.3 -8.5 -40.15 -7.75 -39.45 -7.6 -38.7 -7.65 -38.55 -8.25 -38.15 -9.65 -37.95 -9.9 -36.85 -9.65 -35.55 -10.4 -35.6 -12.35 -36.4 -12.6 -36.65 -13.6 -38.3 -13.6 -38.65" fill="url(#gradient46)" fill-rule="evenodd" stroke="none"/>
    <path d="M-15.5 -31.55 Q-17.25 -34.4 -13.6 -38.65 L-13.6 -38.3 -12.6 -36.65 -12.85 -35.75 -13.85 -33.6 Q-14.15 -33.75 -14.85 -32.9 L-15.25 -31.7 -15.5 -31.55" fill="url(#gradient47)" fill-rule="evenodd" stroke="none"/>
    <path d="M-12.85 -35.75 L-12.6 -36.65 -12.35 -36.4 -12.85 -35.75" fill="url(#gradient48)" fill-rule="evenodd" stroke="none"/>
    <path d="M-9.2 -35.05 L-9.75 -32.8 Q-10.25 -31.4 -11.6 -30.15 L-12.1 -29.8 -12.95 -29.65 -13.7 -30.4 -13.85 -33.6 -12.85 -35.75 -12.35 -36.4 -10.4 -35.6 -9.65 -35.55 -9.2 -35.05" fill="url(#gradient49)" fill-rule="evenodd" stroke="none"/>
    <path d="M-15.6 -31.25 L-15.5 -31.55 -15.25 -31.7 Q-15.45 -28.5 -13.7 -30.4 L-12.95 -29.65 Q-16.0 -26.1 -15.6 -31.25" fill="url(#gradient50)" fill-rule="evenodd" stroke="none"/>
    <path d="M-15.25 -31.7 L-14.85 -32.9 Q-14.15 -33.75 -13.85 -33.6 L-13.7 -30.4 Q-15.45 -28.5 -15.25 -31.7" fill="url(#gradient51)" fill-rule="evenodd" stroke="none"/>
    <path d="M-11.6 -30.15 Q-10.6 -27.95 -12.75 -25.5 L-12.75 -25.4 -13.3 -23.75 Q-14.8 -21.7 -15.85 -24.35 L-15.8 -24.35 -15.95 -24.6 Q-18.25 -29.5 -15.6 -31.25 -16.0 -26.1 -12.95 -29.65 L-12.1 -29.8 -11.6 -30.15" fill="url(#gradient52)" fill-rule="evenodd" stroke="none"/>
    <path d="M-12.35 -25.35 Q-9.95 -24.5 -11.1 -22.5 L-11.35 -22.9 -13.3 -23.75 -12.75 -25.4 -12.35 -25.35" fill="url(#gradient53)" fill-rule="evenodd" stroke="none"/>
    <path d="M-12.75 -25.5 L-12.35 -25.35 -12.75 -25.4 -12.75 -25.5 M-11.1 -22.5 Q-12.35 -19.55 -15.0 -20.75 -17.3 -22.75 -15.95 -24.5 L-15.85 -24.35 Q-14.8 -21.7 -13.3 -23.75 L-11.35 -22.9 -11.1 -22.5" fill="url(#gradient54)" fill-rule="evenodd" stroke="none"/>
    <path d="M-4.95 -30.2 L-4.9 -29.25 -5.05 -29.55 -5.0 -30.25 -4.95 -30.2" fill="url(#gradient55)" fill-rule="evenodd" stroke="none"/>
    <path d="M-4.9 -30.2 L-4.95 -30.2 -5.0 -30.25 -5.0 -30.3 -4.9 -30.2" fill="url(#gradient56)" fill-rule="evenodd" stroke="none"/>
    <path d="M-6.1 -23.5 Q-7.4 -26.15 -5.35 -29.65 L-5.3 -29.65 -4.9 -26.3 -4.6 -26.3 -4.25 -25.9 Q-3.4 -25.85 -2.25 -24.95 L-2.6 -23.45 Q-2.45 -21.45 -1.8 -20.4 -4.3 -20.55 -6.1 -23.5" fill="url(#gradient57)" fill-rule="evenodd" stroke="none"/>
    <path d="M-5.35 -29.65 L-5.3 -29.7 -5.3 -29.65 -5.35 -29.65" fill="url(#gradient58)" fill-rule="evenodd" stroke="none"/>
    <path d="M-5.95 -21.85 L-6.1 -23.5 Q-4.3 -20.55 -1.8 -20.4 L-1.5 -19.75 -2.0 -17.45 Q-4.95 -17.45 -5.35 -19.85 L-5.4 -20.25 -5.7 -20.3 -5.9 -21.5 -5.95 -21.85" fill="url(#gradient59)" fill-rule="evenodd" stroke="none"/>
    <path d="M-5.35 -14.3 L-5.4 -14.4 -5.4 -14.45 -5.45 -14.55 Q-5.5 -18.5 -6.0 -20.3 L-5.95 -21.5 -5.9 -21.5 -5.7 -20.3 -5.4 -20.25 -5.35 -19.85 Q-4.95 -17.45 -2.0 -17.45 L-2.1 -16.75 -2.15 -16.7 -2.2 -16.55 -2.45 -16.05 -3.6 -12.15 -4.7 -13.15 -5.25 -14.15 -5.3 -14.2 -5.3 -14.25 -5.35 -14.3" fill="url(#gradient60)" fill-rule="evenodd" stroke="none"/>
    <path d="M-5.95 -21.5 L-5.95 -21.85 -5.9 -21.5 -5.95 -21.5" fill="url(#gradient61)" fill-rule="evenodd" stroke="none"/>
    <path d="M-2.1 -16.75 L-2.1 -16.7 -2.15 -16.7 -2.15 -16.5 -2.2 -16.55 -2.15 -16.7 -2.1 -16.75" fill="url(#gradient62)" fill-rule="evenodd" stroke="none"/>
    <path d="M-5.35 -14.25 L-5.35 -14.3 -5.3 -14.25 -5.35 -14.25" fill="url(#gradient63)" fill-rule="evenodd" stroke="none"/>
    <path d="M-3.8 -11.1 L-4.6 -12.0 -5.35 -14.25 -5.3 -14.25 -5.3 -14.2 -5.25 -14.15 -4.7 -13.15 -3.6 -12.15 -3.8 -11.1" fill="url(#gradient64)" fill-rule="evenodd" stroke="none"/>
    <path d="M-15.95 -24.5 L-15.95 -24.6 -15.8 -24.35 -15.85 -24.35 -15.95 -24.5" fill="url(#gradient65)" fill-rule="evenodd" stroke="none"/>
    <path d="M-4.8 1.3 Q-5.75 0.95 -4.25 -3.9 L-2.9 -3.0 -3.85 -0.6 -4.1 1.1 -4.75 1.35 -4.8 1.3" fill="url(#gradient66)" fill-rule="evenodd" stroke="none"/>
    <path d="M-1.8 3.5 L-1.8 4.4 Q-1.8 4.95 -3.35 5.45 L-4.1 5.15 -6.15 3.9 Q-6.35 3.1 -5.4 2.4 L-5.25 2.35 Q-5.55 4.1 -1.8 3.5" fill="url(#gradient67)" fill-rule="evenodd" stroke="none"/>
    <path d="M-0.6 1.05 L-1.8 3.5 Q-5.55 4.1 -5.25 2.35 L-4.8 1.35 -4.75 1.35 -4.1 1.1 Q-3.8 4.1 -0.6 1.05" fill="url(#gradient68)" fill-rule="evenodd" stroke="none"/>
    <path d="M-4.8 1.35 L-4.8 1.3 -4.75 1.35 -4.8 1.35" fill="url(#gradient69)" fill-rule="evenodd" stroke="none"/>
    <path d="M-1.8 4.4 L-1.4 5.4 -1.55 5.95 -1.65 6.55 -2.45 7.65 -2.9 7.9 -3.4 8.0 -3.65 8.0 Q-7.0 8.15 -7.75 5.55 -7.5 1.8 -5.4 2.4 -6.35 3.1 -6.15 3.9 L-4.1 5.15 -3.35 5.45 Q-1.8 4.95 -1.8 4.4" fill="url(#gradient70)" fill-rule="evenodd" stroke="none"/>
    <path d="M-4.75 12.75 Q-6.3 13.1 -9.8 10.3 L-10.2 9.4 Q-9.15 7.85 -8.75 7.85 L-8.55 8.0 Q-5.35 11.6 -4.5 10.95 L-4.5 11.85 -4.75 12.75" fill="url(#gradient71)" fill-rule="evenodd" stroke="none"/>
    <path d="M-8.75 7.85 L-7.75 5.55 Q-7.0 8.15 -3.65 8.0 L-3.4 8.0 -2.9 7.9 -3.7 9.7 -4.5 10.95 Q-5.35 11.6 -8.55 8.0 L-8.75 7.85" fill="url(#gradient72)" fill-rule="evenodd" stroke="none"/>
    <path d="M-2.3 12.45 Q-2.9 13.35 -4.75 12.75 L-4.5 11.85 -4.5 10.95 -3.7 9.7 -2.9 7.9 -2.45 7.65 -2.1 8.0 Q-1.1 9.85 -2.3 12.45" fill="url(#gradient73)" fill-rule="evenodd" stroke="none"/>
    <path d="M-1.55 5.95 Q3.1 9.7 -2.3 12.45 -1.1 9.85 -2.1 8.0 L-2.45 7.65 -1.65 6.55 -1.55 5.95" fill="url(#gradient74)" fill-rule="evenodd" stroke="none"/>
  </g>
  <defs>
    <radialGradient cx="0" cy="0" gradientTransform="matrix(0.0096, 0.0, 0.0, 0.0096, 4.95, -54.1)" gradientUnits="userSpaceOnUse" id="gradient0" r="819.2" spreadMethod="pad">
      <stop offset="0.0" stop-color="#f03535"/>
      <stop offset="1.0" stop-color="#e93434"/>
    </radialGradient>
    <radialGradient cx="0" cy="0" gradientTransform="matrix(0.0073, 0.0, 0.0, 0.0073, 5.1, -56.1)" gradientUnits="userSpaceOnUse" id="gradient1" r="819.2" spreadMethod="pad">
      <stop offset="0.0" stop-color="#9d2323"/>
      <stop offset="1.0" stop-color="#902020"/>
    </radialGradient>
    <radialGradient cx="0" cy="0" gradientTransform="matrix(0.0078, 0.0, 0.0, 0.0078, 4.05, -58.85)" gradientUnits="userSpaceOnUse" id="gradient2" r="819.2" spreadMethod="pad">
      <stop offset="0.0" stop-color="#cf2e2e"/>
      <stop offset="1.0" stop-color="#be2a2a"/>
    </radialGradient>
    <radialGradient cx="0" cy="0" gradientTransform="matrix(0.0075, 0.0, 0.0, 0.0075, 6.5, -51.4)" gradientUnits="userSpaceOnUse" id="gradient3" r="819.2" spreadMethod="pad">
      <stop offset="0.0" stop-color="#e13232"/>
      <stop offset="1.0" stop-color="#ca2d2d"/>
    </radialGradient>
    <radialGradient cx="0" cy="0" gradientTransform="matrix(0.0072, 0.0, 0.0, 0.0072, 2.15, -54.8)" gradientUnits="userSpaceOnUse" id="gradient4" r="819.2" spreadMethod="pad">
      <stop offset="0.0" stop-color="#b42828"/>
      <stop offset="1.0" stop-color="#ab2525"/>
    </radialGradient>
    <radialGradient cx="0" cy="0" gradientTransform="matrix(0.0064, 0.0, 0.0, 0.0064, 3.45, -59.9)" gradientUnits="userSpaceOnUse" id="gradient5" r="819.2" spreadMethod="pad">
      <stop offset="0.0" stop-color="#b72929"/>
      <stop offset="1.0" stop-color="#b42828"/>
    </radialGradient>
    <radialGradient cx="0" cy="0" gradientTransform="matrix(0.0063, 0.0, 0.0, 0.0063, 3.65, -55.25)" gradientUnits="userSpaceOnUse" id="gradient6" r="819.2" spreadMethod="pad">
      <stop offset="0.0" stop-color="#ce2e2e"/>
      <stop offset="1.0" stop-color="#be2a2a"/>
    </radialGradient>
    <radialGradient cx="0" cy="0" gradientTransform="matrix(0.0049, 0.0, 0.0, 0.0049, 4.15, -55.2)" gradientUnits="userSpaceOnUse" id="gradient7" r="819.2" spreadMethod="pad">
      <stop offset="0.0" stop-color="#a62525"/>
      <stop offset="1.0" stop-color="#992222"/>
    </radialGradient>
    <radialGradient cx="0" cy="0" gradientTransform="matrix(0.0062, 0.0, 0.0, 0.0062, 2.45, -50.8)" gradientUnits="userSpaceOnUse" id="gradient8" r="819.2" spreadMethod="pad">
      <stop offset="0.0" stop-color="#f33636"/>
      <stop offset="1.0" stop-color="#7e1c1c"/>
    </radialGradient>
    <radialGradient cx="0" cy="0" gradientTransform="matrix(0.0012, 0.0, 0.0, 0.0012, 3.65, -54.2)" gradientUnits="userSpaceOnUse" id="gradient9" r="819.2" spreadMethod="pad">
      <stop offset="0.0" stop-color="#1f0707"/>
      <stop offset="1.0" stop-color="#1f0707"/>
    </radialGradient>
    <radialGradient cx="0" cy="0" gradientTransform="matrix(0.0057, 0.0, 0.0, 0.0057, 5.2, -53.0)" gradientUnits="userSpaceOnUse" id="gradient10" r="819.2" spreadMethod="pad">
      <stop offset="0.0" stop-color="#e03232"/>
      <stop offset="1.0" stop-color="#d52f2f"/>
    </radialGradient>
    <radialGradient cx="0" cy="0" gradientTransform="matrix(0.0059, 0.0, 0.0, 0.0059, 6.5, -50.0)" gradientUnits="userSpaceOnUse" id="gradient11" r="819.2" spreadMethod="pad">
      <stop offset="0.0" stop-color="#b82929"/>
      <stop offset="1.0" stop-color="#992222"/>
    </radialGradient>
    <radialGradient cx="0" cy="0" gradientTransform="matrix(0.0045, 0.0, 0.0, 0.0045, -1.3, -56.5)" gradientUnits="userSpaceOnUse" id="gradient12" r="819.2" spreadMethod="pad">
      <stop offset="0.0" stop-color="#6a1818"/>
      <stop offset="1.0" stop-color="#5b1414"/>
    </radialGradient>
    <radialGradient cx="0" cy="0" gradientTransform="matrix(0.0054, 0.0, 0.0, 0.0054, 6.2, -51.9)" gradientUnits="userSpaceOnUse" id="gradient13" r="819.2" spreadMethod="pad">
      <stop offset="0.0" stop-color="#9f2323"/>
      <stop offset="1.0" stop-color="#881e1e"/>
    </radialGradient>
    <radialGradient cx="0" cy="0" gradientTransform="matrix(0.0052, 0.0, 0.0, 0.0052, 4.7, -48.4)" gradientUnits="userSpaceOnUse" id="gradient14" r="819.2" spreadMethod="pad">
      <stop offset="0.0" stop-color="#adadad"/>
      <stop offset="1.0" stop-color="#a9a9a9"/>
    </radialGradient>
    <radialGradient cx="0" cy="0" gradientTransform="matrix(0.0075, 0.0, 0.0, 0.0075, 3.0, -47.45)" gradientUnits="userSpaceOnUse" id="gradient15" r="819.2" spreadMethod="pad">
      <stop offset="0.0" stop-color="#d1d1d1"/>
      <stop offset="1.0" stop-color="#a2a2a2"/>
    </radialGradient>
    <radialGradient cx="0" cy="0" gradientTransform="matrix(0.0039, 0.0, 0.0, 0.0039, 3.05, -46.9)" gradientUnits="userSpaceOnUse" id="gradient16" r="819.2" spreadMethod="pad">
      <stop offset="0.0" stop-color="#cc9054"/>
      <stop offset="1.0" stop-color="#a07142"/>
    </radialGradient>
    <radialGradient cx="0" cy="0" gradientTransform="matrix(0.0098, 0.0, 0.0, 0.0098, -2.4, -42.3)" gradientUnits="userSpaceOnUse" id="gradient17" r="819.2" spreadMethod="pad">
      <stop offset="0.0" stop-color="#ffffff"/>
      <stop offset="1.0" stop-color="#d7d7d7"/>
    </radialGradient>
    <radialGradient cx="0" cy="0" gradientTransform="matrix(0.0053, 0.0, 0.0, 0.0053, 0.9, -44.5)" gradientUnits="userSpaceOnUse" id="gradient18" r="819.2" spreadMethod="pad">
      <stop offset="0.0" stop-color="#ffd77d"/>
      <stop offset="1.0" stop-color="#e7a35f"/>
    </radialGradient>
    <radialGradient cx="0" cy="0" gradientTransform="matrix(0.021, 0.0, 0.0, 0.021, -8.55, -36.15)" gradientUnits="userSpaceOnUse" id="gradient19" r="819.2" spreadMethod="pad">
      <stop offset="0.0" stop-color="#ffdd80"/>
      <stop offset="1.0" stop-color="#ab7946"/>
    </radialGradient>
    <radialGradient cx="0" cy="0" gradientTransform="matrix(0.006, 0.0, 0.0, 0.006, 8.0, -39.1)" gradientUnits="userSpaceOnUse" id="gradient20" r="819.2" spreadMethod="pad">
      <stop offset="0.0" stop-color="#ffc573"/>
      <stop offset="1.0" stop-color="#855e37"/>
    </radialGradient>
    <radialGradient cx="0" cy="0" gradientTransform="matrix(0.0123, 0.0, 0.0, 0.0123, -4.0, -27.95)" gradientUnits="userSpaceOnUse" id="gradient21" r="819.2" spreadMethod="pad">
      <stop offset="0.0" stop-color="#ffffff"/>
      <stop offset="1.0" stop-color="#a1a1a1"/>
    </radialGradient>
    <radialGradient cx="0" cy="0" gradientTransform="matrix(0.0086, 0.0, 0.0, 0.0086, 7.65, -36.7)" gradientUnits="userSpaceOnUse" id="gradient22" r="819.2" spreadMethod="pad">
      <stop offset="0.0" stop-color="#ffd87e"/>
      <stop offset="1.0" stop-color="#b27e49"/>
    </radialGradient>
    <radialGradient cx="0" cy="0" gradientTransform="matrix(0.0094, 0.0, 0.0, 0.0094, -0.6, -25.25)" gradientUnits="userSpaceOnUse" id="gradient23" r="819.2" spreadMethod="pad">
      <stop offset="0.0" stop-color="#6a634d"/>
      <stop offset="1.0" stop-color="#383429"/>
    </radialGradient>
    <radialGradient cx="0" cy="0" gradientTransform="matrix(0.0147, 0.0, 0.0, 0.0147, 4.7, -22.65)" gradientUnits="userSpaceOnUse" id="gradient24" r="819.2" spreadMethod="pad">
      <stop offset="0.0" stop-color="#9b8d8d"/>
      <stop offset="1.0" stop-color="#655c5c"/>
    </radialGradient>
    <radialGradient cx="0" cy="0" gradientTransform="matrix(0.0071, 0.0, 0.0, 0.0071, 12.75, -33.45)" gradientUnits="userSpaceOnUse" id="gradient25" r="819.2" spreadMethod="pad">
      <stop offset="0.0" stop-color="#e3a05d"/>
      <stop offset="1.0" stop-color="#a87745"/>
    </radialGradient>
    <radialGradient cx="0" cy="0" gradientTransform="matrix(0.0044, 0.0, 0.0, 0.0044, 9.2, -30.45)" gradientUnits="userSpaceOnUse" id="gradient26" r="819.2" spreadMethod="pad">
      <stop offset="0.0" stop-color="#ffc271"/>
      <stop offset="1.0" stop-color="#7d5833"/>
    </radialGradient>
    <radialGradient cx="0" cy="0" gradientTransform="matrix(0.0064, 0.0, 0.0, 0.0064, 11.15, -31.6)" gradientUnits="userSpaceOnUse" id="gradient27" r="819.2" spreadMethod="pad">
      <stop offset="0.0" stop-color="#ffde81"/>
      <stop offset="1.0" stop-color="#93683c"/>
    </radialGradient>
    <radialGradient cx="0" cy="0" gradientTransform="matrix(0.0032, 0.0, 0.0, 0.0032, 10.6, -28.2)" gradientUnits="userSpaceOnUse" id="gradient28" r="819.2" spreadMethod="pad">
      <stop offset="0.0" stop-color="#ffda7f"/>
      <stop offset="1.0" stop-color="#805a34"/>
    </radialGradient>
    <radialGradient cx="0" cy="0" gradientTransform="matrix(0.0028, 0.0, 0.0, 0.0028, 11.9, -26.9)" gradientUnits="userSpaceOnUse" id="gradient29" r="819.2" spreadMethod="pad">
      <stop offset="0.0" stop-color="#e5a25e"/>
      <stop offset="1.0" stop-color="#a97745"/>
    </radialGradient>
    <radialGradient cx="0" cy="0" gradientTransform="matrix(0.0048, 0.0, 0.0, 0.0048, 14.55, -28.3)" gradientUnits="userSpaceOnUse" id="gradient30" r="819.2" spreadMethod="pad">
      <stop offset="0.0" stop-color="#645d48"/>
      <stop offset="1.0" stop-color="#333025"/>
    </radialGradient>
    <radialGradient cx="0" cy="0" gradientTransform="matrix(0.0017, 0.0, 0.0, 0.0017, 16.35, -28.6)" gradientUnits="userSpaceOnUse" id="gradient31" r="819.2" spreadMethod="pad">
      <stop offset="0.0" stop-color="#ffc573"/>
      <stop offset="1.0" stop-color="#9b6d40"/>
    </radialGradient>
    <radialGradient cx="0" cy="0" gradientTransform="matrix(0.0043, 0.0, 0.0, 0.0043, 17.1, -27.75)" gradientUnits="userSpaceOnUse" id="gradient32" r="819.2" spreadMethod="pad">
      <stop offset="0.0" stop-color="#6c654f"/>
      <stop offset="1.0" stop-color="#2f2b22"/>
    </radialGradient>
    <radialGradient cx="0" cy="0" gradientTransform="matrix(5.0E-4, 0.0, 0.0, 5.0E-4, 16.3, -25.25)" gradientUnits="userSpaceOnUse" id="gradient33" r="819.2" spreadMethod="pad">
      <stop offset="0.0" stop-color="#24221a"/>
      <stop offset="1.0" stop-color="#191812"/>
    </radialGradient>
    <radialGradient cx="0" cy="0" gradientTransform="matrix(0.0011, 0.0, 0.0, 0.0011, 17.2, -25.45)" gradientUnits="userSpaceOnUse" id="gradient34" r="819.2" spreadMethod="pad">
      <stop offset="0.0" stop-color="#29261e"/>
      <stop offset="1.0" stop-color="#11100d"/>
    </radialGradient>
    <radialGradient cx="0" cy="0" gradientTransform="matrix(0.0088, 0.0, 0.0, 0.0088, 2.45, -24.65)" gradientUnits="userSpaceOnUse" id="gradient35" r="819.2" spreadMethod="pad">
      <stop offset="0.0" stop-color="#988b8b"/>
      <stop offset="1.0" stop-color="#4d4747"/>
    </radialGradient>
    <radialGradient cx="0" cy="0" gradientTransform="matrix(0.0019, 0.0, 0.0, 0.0019, 1.35, -18.65)" gradientUnits="userSpaceOnUse" id="gradient36" r="819.2" spreadMethod="pad">
      <stop offset="0.0" stop-color="#4e4747"/>
      <stop offset="1.0" stop-color="#4a4343"/>
    </radialGradient>
    <radialGradient cx="0" cy="0" gradientTransform="matrix(0.022, 0.0, 0.0, 0.022, -1.85, -2.5)" gradientUnits="userSpaceOnUse" id="gradient37" r="819.2" spreadMethod="pad">
      <stop offset="0.0" stop-color="#8f8282"/>
      <stop offset="1.0" stop-color="#5c5454"/>
    </radialGradient>
    <radialGradient cx="0" cy="0" gradientTransform="matrix(0.0148, 0.0, 0.0, 0.0148, -0.85, -4.8)" gradientUnits="userSpaceOnUse" id="gradient38" r="819.2" spreadMethod="pad">
      <stop offset="0.0" stop-color="#635d48"/>
      <stop offset="1.0" stop-color="#3d392c"/>
    </radialGradient>
    <radialGradient cx="0" cy="0" gradientTransform="matrix(0.0034, 0.0, 0.0, 0.0034, 7.35, -7.9)" gradientUnits="userSpaceOnUse" id="gradient39" r="819.2" spreadMethod="pad">
      <stop offset="0.0" stop-color="#655f49"/>
      <stop offset="1.0" stop-color="#353227"/>
    </radialGradient>
    <radialGradient cx="0" cy="0" gradientTransform="matrix(0.0032, 0.0, 0.0, 0.0032, 7.5, -5.0)" gradientUnits="userSpaceOnUse" id="gradient40" r="819.2" spreadMethod="pad">
      <stop offset="0.0" stop-color="#2d2a21"/>
      <stop offset="1.0" stop-color="#0c0c09"/>
    </radialGradient>
    <radialGradient cx="0" cy="0" gradientTransform="matrix(0.002, 0.0, 0.0, 0.002, 7.8, -7.25)" gradientUnits="userSpaceOnUse" id="gradient41" r="819.2" spreadMethod="pad">
      <stop offset="0.0" stop-color="#d22f2f"/>
      <stop offset="1.0" stop-color="#a02323"/>
    </radialGradient>
    <radialGradient cx="0" cy="0" gradientTransform="matrix(0.0079, 0.0, 0.0, 0.0079, -1.45, -3.65)" gradientUnits="userSpaceOnUse" id="gradient42" r="819.2" spreadMethod="pad">
      <stop offset="0.0" stop-color="#ffd87e"/>
      <stop offset="1.0" stop-color="#7f5934"/>
    </radialGradient>
    <radialGradient cx="0" cy="0" gradientTransform="matrix(0.0019, 0.0, 0.0, 0.0019, -1.9, -52.05)" gradientUnits="userSpaceOnUse" id="gradient43" r="819.2" spreadMethod="pad">
      <stop offset="0.0" stop-color="#a42424"/>
      <stop offset="1.0" stop-color="#8a1f1f"/>
    </radialGradient>
    <radialGradient cx="0" cy="0" gradientTransform="matrix(0.003, 0.0, 0.0, 0.003, -0.95, -52.45)" gradientUnits="userSpaceOnUse" id="gradient44" r="819.2" spreadMethod="pad">
      <stop offset="0.0" stop-color="#a42525"/>
      <stop offset="1.0" stop-color="#932121"/>
    </radialGradient>
    <radialGradient cx="0" cy="0" gradientTransform="matrix(0.0154, 0.0, 0.0, 0.0154, -1.6, -46.85)" gradientUnits="userSpaceOnUse" id="gradient45" r="819.2" spreadMethod="pad">
      <stop offset="0.0" stop-color="#ffffff"/>
      <stop offset="1.0" stop-color="#cccccc"/>
    </radialGradient>
    <radialGradient cx="0" cy="0" gradientTransform="matrix(0.0076, 0.0, 0.0, 0.0076, -8.75, -41.35)" gradientUnits="userSpaceOnUse" id="gradient46" r="819.2" spreadMethod="pad">
      <stop offset="0.0" stop-color="#ffdd81"/>
      <stop offset="1.0" stop-color="#b07c48"/>
    </radialGradient>
    <radialGradient cx="0" cy="0" gradientTransform="matrix(0.0075, 0.0, 0.0, 0.0075, -13.65, -37.35)" gradientUnits="userSpaceOnUse" id="gradient47" r="819.2" spreadMethod="pad">
      <stop offset="0.0" stop-color="#ffdf82"/>
      <stop offset="1.0" stop-color="#af7c48"/>
    </radialGradient>
    <radialGradient cx="0" cy="0" gradientTransform="matrix(0.0035, 0.0, 0.0, 0.0035, -12.15, -37.6)" gradientUnits="userSpaceOnUse" id="gradient48" r="819.2" spreadMethod="pad">
      <stop offset="0.0" stop-color="#ffe082"/>
      <stop offset="1.0" stop-color="#ffd37b"/>
    </radialGradient>
    <radialGradient cx="0" cy="0" gradientTransform="matrix(0.0081, 0.0, 0.0, 0.0081, -11.75, -36.25)" gradientUnits="userSpaceOnUse" id="gradient49" r="819.2" spreadMethod="pad">
      <stop offset="0.0" stop-color="#ffdf82"/>
      <stop offset="1.0" stop-color="#875f38"/>
    </radialGradient>
    <radialGradient cx="0" cy="0" gradientTransform="matrix(0.0031, 0.0, 0.0, 0.0031, -13.95, -30.7)" gradientUnits="userSpaceOnUse" id="gradient50" r="819.2" spreadMethod="pad">
      <stop offset="0.0" stop-color="#ffba6c"/>
      <stop offset="1.0" stop-color="#91663c"/>
    </radialGradient>
    <radialGradient cx="0" cy="0" gradientTransform="matrix(0.0046, 0.0, 0.0, 0.0046, -14.0, -33.4)" gradientUnits="userSpaceOnUse" id="gradient51" r="819.2" spreadMethod="pad">
      <stop offset="0.0" stop-color="#ffe384"/>
      <stop offset="1.0" stop-color="#a87645"/>
    </radialGradient>
    <radialGradient cx="0" cy="0" gradientTransform="matrix(0.0096, 0.0, 0.0, 0.0096, -12.2, -30.2)" gradientUnits="userSpaceOnUse" id="gradient52" r="819.2" spreadMethod="pad">
      <stop offset="0.0" stop-color="#6a634d"/>
      <stop offset="1.0" stop-color="#322f24"/>
    </radialGradient>
    <radialGradient cx="0" cy="0" gradientTransform="matrix(0.0032, 0.0, 0.0, 0.0032, -13.1, -24.4)" gradientUnits="userSpaceOnUse" id="gradient53" r="819.2" spreadMethod="pad">
      <stop offset="0.0" stop-color="#ffee8b"/>
      <stop offset="1.0" stop-color="#ba834c"/>
    </radialGradient>
    <radialGradient cx="0" cy="0" gradientTransform="matrix(0.0037, 0.0, 0.0, 0.0037, -13.55, -23.45)" gradientUnits="userSpaceOnUse" id="gradient54" r="819.2" spreadMethod="pad">
      <stop offset="0.0" stop-color="#6e6750"/>
      <stop offset="1.0" stop-color="#383429"/>
    </radialGradient>
    <radialGradient cx="0" cy="0" gradientTransform="matrix(0.0034, 0.0, 0.0, 0.0034, -4.95, -30.35)" gradientUnits="userSpaceOnUse" id="gradient55" r="819.2" spreadMethod="pad">
      <stop offset="0.0" stop-color="#929292"/>
      <stop offset="1.0" stop-color="#787878"/>
    </radialGradient>
    <radialGradient cx="0" cy="0" gradientTransform="matrix(0.0202, 0.0, 0.0, 0.0202, -5.75, -44.85)" gradientUnits="userSpaceOnUse" id="gradient56" r="819.2" spreadMethod="pad">
      <stop offset="0.0" stop-color="#785431"/>
      <stop offset="1.0" stop-color="#261b10"/>
    </radialGradient>
    <radialGradient cx="0" cy="0" gradientTransform="matrix(0.0073, 0.0, 0.0, 0.0073, -2.6, -26.4)" gradientUnits="userSpaceOnUse" id="gradient57" r="819.2" spreadMethod="pad">
      <stop offset="0.0" stop-color="#968888"/>
      <stop offset="1.0" stop-color="#3a3535"/>
    </radialGradient>
    <radialGradient cx="0" cy="0" gradientTransform="matrix(0.0024, 0.0, 0.0, 0.0024, -5.5, -29.0)" gradientUnits="userSpaceOnUse" id="gradient58" r="819.2" spreadMethod="pad">
      <stop offset="0.0" stop-color="#0c0c09"/>
      <stop offset="1.0" stop-color="#0c0c09"/>
    </radialGradient>
    <radialGradient cx="0" cy="0" gradientTransform="matrix(0.0081, 0.0, 0.0, 0.0081, -2.65, -22.75)" gradientUnits="userSpaceOnUse" id="gradient59" r="819.2" spreadMethod="pad">
      <stop offset="0.0" stop-color="#6b6161"/>
      <stop offset="1.0" stop-color="#4c4646"/>
    </radialGradient>
    <radialGradient cx="0" cy="0" gradientTransform="matrix(0.0101, 0.0, 0.0, 0.0101, -2.65, -19.6)" gradientUnits="userSpaceOnUse" id="gradient60" r="819.2" spreadMethod="pad">
      <stop offset="0.0" stop-color="#6b6161"/>
      <stop offset="1.0" stop-color="#484242"/>
    </radialGradient>
    <radialGradient cx="0" cy="0" gradientTransform="matrix(0.0039, 0.0, 0.0, 0.0039, -6.15, -23.25)" gradientUnits="userSpaceOnUse" id="gradient61" r="819.2" spreadMethod="pad">
      <stop offset="0.0" stop-color="#4a4444"/>
      <stop offset="1.0" stop-color="#443e3e"/>
    </radialGradient>
    <radialGradient cx="0" cy="0" gradientTransform="matrix(0.0064, 0.0, 0.0, 0.0064, -1.3, -20.15)" gradientUnits="userSpaceOnUse" id="gradient62" r="819.2" spreadMethod="pad">
      <stop offset="0.0" stop-color="#121010"/>
      <stop offset="1.0" stop-color="#121010"/>
    </radialGradient>
    <radialGradient cx="0" cy="0" gradientTransform="matrix(0.0101, 0.0, 0.0, 0.0101, -6.05, -20.35)" gradientUnits="userSpaceOnUse" id="gradient63" r="819.2" spreadMethod="pad">
      <stop offset="0.0" stop-color="#494343"/>
      <stop offset="1.0" stop-color="#121010"/>
    </radialGradient>
    <radialGradient cx="0" cy="0" gradientTransform="matrix(0.0035, 0.0, 0.0, 0.0035, -3.85, -12.35)" gradientUnits="userSpaceOnUse" id="gradient64" r="819.2" spreadMethod="pad">
      <stop offset="0.0" stop-color="#333025"/>
      <stop offset="1.0" stop-color="#2d2a20"/>
    </radialGradient>
    <radialGradient cx="0" cy="0" gradientTransform="matrix(8.0E-4, 0.0, 0.0, 8.0E-4, -16.0, -24.8)" gradientUnits="userSpaceOnUse" id="gradient65" r="819.2" spreadMethod="pad">
      <stop offset="0.0" stop-color="#312e24"/>
      <stop offset="1.0" stop-color="#2b2920"/>
    </radialGradient>
    <radialGradient cx="0" cy="0" gradientTransform="matrix(0.0062, 0.0, 0.0, 0.0062, -2.9, -3.3)" gradientUnits="userSpaceOnUse" id="gradient66" r="819.2" spreadMethod="pad">
      <stop offset="0.0" stop-color="#ffcf78"/>
      <stop offset="1.0" stop-color="#9a6c3f"/>
    </radialGradient>
    <radialGradient cx="0" cy="0" gradientTransform="matrix(0.0042, 0.0, 0.0, 0.0042, -5.05, 3.4)" gradientUnits="userSpaceOnUse" id="gradient67" r="819.2" spreadMethod="pad">
      <stop offset="0.0" stop-color="#ffffff"/>
      <stop offset="1.0" stop-color="#a5a5a5"/>
    </radialGradient>
    <radialGradient cx="0" cy="0" gradientTransform="matrix(0.0053, 0.0, 0.0, 0.0053, -3.45, 1.1)" gradientUnits="userSpaceOnUse" id="gradient68" r="819.2" spreadMethod="pad">
      <stop offset="0.0" stop-color="#ffcd77"/>
      <stop offset="1.0" stop-color="#ad7a47"/>
    </radialGradient>
    <radialGradient cx="0" cy="0" gradientTransform="matrix(0.0069, 0.0, 0.0, 0.0069, -4.9, 1.05)" gradientUnits="userSpaceOnUse" id="gradient69" r="819.2" spreadMethod="pad">
      <stop offset="0.0" stop-color="#825b35"/>
      <stop offset="1.0" stop-color="#261b10"/>
    </radialGradient>
    <radialGradient cx="0" cy="0" gradientTransform="matrix(0.0049, 0.0, 0.0, 0.0049, -5.3, 4.65)" gradientUnits="userSpaceOnUse" id="gradient70" r="819.2" spreadMethod="pad">
      <stop offset="0.0" stop-color="#726b53"/>
      <stop offset="1.0" stop-color="#343126"/>
    </radialGradient>
    <radialGradient cx="0" cy="0" gradientTransform="matrix(0.0051, 0.0, 0.0, 0.0051, -6.95, 9.1)" gradientUnits="userSpaceOnUse" id="gradient71" r="819.2" spreadMethod="pad">
      <stop offset="0.0" stop-color="#746d54"/>
      <stop offset="1.0" stop-color="#4a4636"/>
    </radialGradient>
    <radialGradient cx="0" cy="0" gradientTransform="matrix(0.0064, 0.0, 0.0, 0.0064, -5.35, 6.6)" gradientUnits="userSpaceOnUse" id="gradient72" r="819.2" spreadMethod="pad">
      <stop offset="0.0" stop-color="#e23232"/>
      <stop offset="1.0" stop-color="#af2727"/>
    </radialGradient>
    <radialGradient cx="0" cy="0" gradientTransform="matrix(0.0067, 0.0, 0.0, 0.0067, -2.25, 7.8)" gradientUnits="userSpaceOnUse" id="gradient73" r="819.2" spreadMethod="pad">
      <stop offset="0.0" stop-color="#e33333"/>
      <stop offset="1.0" stop-color="#932020"/>
    </radialGradient>
    <radialGradient cx="0" cy="0" gradientTransform="matrix(0.0054, 0.0, 0.0, 0.0054, -2.8, 8.2)" gradientUnits="userSpaceOnUse" id="gradient74" r="819.2" spreadMethod="pad">
      <stop offset="0.0" stop-color="#736b53"/>
      <stop offset="1.0" stop-color="#443f31"/>
    </radialGradient>
  </defs>
</svg>
