<?xml version="1.0" encoding="UTF-8" standalone="no"?>
<svg xmlns:ffdec="https://www.free-decompiler.com/flash" xmlns:xlink="http://www.w3.org/1999/xlink" ffdec:objectType="shape" height="69.7px" width="28.5px" xmlns="http://www.w3.org/2000/svg">
  <g transform="matrix(1.0, 0.0, 0.0, 1.0, 12.2, 62.85)">
    <path d="M9.4 -62.15 L9.45 -62.25 9.9 -62.85 10.05 -62.0 9.25 -56.15 9.1 -57.95 8.85 -58.75 8.55 -58.25 7.7 -55.95 7.3 -57.5 9.4 -62.15" fill="url(#gradient0)" fill-rule="evenodd" stroke="none"/>
    <path d="M7.3 -57.5 L7.7 -55.95 7.4 -54.85 6.4 -56.3 5.9 -56.8 5.75 -56.7 5.7 -56.5 5.6 -56.5 5.6 -56.6 5.95 -59.65 6.1 -60.1 6.35 -59.9 7.15 -58.0 7.3 -57.5" fill="url(#gradient1)" fill-rule="evenodd" stroke="none"/>
    <path d="M5.7 -61.85 L5.8 -61.9 5.95 -61.4 5.95 -59.65 5.6 -56.6 5.45 -56.75 4.5 -56.85 4.4 -57.1 5.7 -61.85" fill="url(#gradient2)" fill-rule="evenodd" stroke="none"/>
    <path d="M9.4 -62.15 L7.3 -57.5 7.15 -58.0 9.4 -62.15" fill="url(#gradient3)" fill-rule="evenodd" stroke="none"/>
    <path d="M5.75 -56.7 L5.9 -56.8 6.4 -56.3 7.4 -54.85 7.5 -54.75 7.6 -54.55 7.8 -54.35 8.15 -53.45 8.05 -53.4 6.4 -56.1 5.75 -56.7" fill="url(#gradient4)" fill-rule="evenodd" stroke="none"/>
    <path d="M5.6 -56.5 L5.7 -56.5 5.6 -56.2 5.6 -56.45 5.6 -56.5 M5.75 -54.65 L5.75 -54.55 5.7 -54.6 5.75 -54.65" fill="url(#gradient5)" fill-rule="evenodd" stroke="none"/>
    <path d="M0.6 -57.6 L0.65 -57.8 1.3 -57.85 3.1 -57.5 4.3 -57.3 4.4 -57.1 4.5 -56.85 5.45 -56.75 5.6 -56.6 5.6 -56.5 5.6 -56.45 3.85 -56.65 2.85 -56.15 0.6 -57.6" fill="url(#gradient6)" fill-rule="evenodd" stroke="none"/>
    <path d="M9.05 -52.65 L9.05 -52.6 9.1 -52.45 9.05 -52.3 9.0 -52.45 8.85 -52.65 9.05 -52.65 M-0.4 -51.2 L-0.5 -52.35 -0.25 -52.45 0.1 -53.15 -0.1 -53.6 0.2 -54.3 0.75 -55.4 2.15 -56.2 2.85 -56.15 3.85 -56.65 5.6 -56.45 5.6 -56.2 5.6 -56.15 5.7 -55.9 5.75 -54.65 5.7 -54.6 5.35 -54.2 4.7 -54.05 4.85 -53.6 4.85 -53.55 4.1 -52.45 3.45 -51.1 3.95 -51.2 5.95 -52.3 6.9 -51.5 7.7 -51.3 7.6 -51.05 8.05 -50.65 Q9.0 -50.9 9.15 -51.2 L9.25 -51.1 9.05 -50.55 8.8 -50.35 7.2 -49.5 Q8.3 -48.1 3.15 -47.95 L1.75 -48.7 1.05 -48.55 1.0 -48.75 Q0.1 -50.1 -0.25 -50.05 L-0.35 -51.0 -0.4 -51.2 M8.15 -53.45 L7.8 -54.35 8.05 -54.1 8.45 -53.3 8.15 -53.45 M4.6 -47.25 L4.4 -47.05 3.55 -47.15 3.05 -47.45 4.6 -47.25" fill="url(#gradient7)" fill-rule="evenodd" stroke="none"/>
    <path d="M5.6 -56.2 L5.7 -56.5 5.75 -56.7 6.4 -56.1 8.05 -53.4 7.4 -53.75 7.35 -53.95 5.85 -54.35 5.75 -54.55 5.75 -54.65 5.7 -55.9 5.6 -56.15 5.6 -56.2" fill="url(#gradient8)" fill-rule="evenodd" stroke="none"/>
    <path d="M7.7 -55.95 L8.55 -58.25 8.85 -58.75 9.1 -57.95 9.25 -56.15 9.4 -53.55 9.4 -53.45 9.45 -53.3 9.5 -53.25 9.05 -52.65 8.85 -52.65 8.45 -53.3 8.05 -54.1 7.8 -54.35 7.6 -54.55 7.65 -54.7 7.5 -54.75 7.4 -54.85 7.7 -55.95" fill="url(#gradient9)" fill-rule="evenodd" stroke="none"/>
    <path d="M2.15 -56.2 L0.6 -57.6 2.85 -56.15 2.15 -56.2" fill="url(#gradient10)" fill-rule="evenodd" stroke="none"/>
    <path d="M3.1 -57.5 L4.65 -60.65 Q5.4 -61.9 5.7 -61.85 L4.4 -57.1 4.3 -57.3 3.1 -57.5" fill="url(#gradient11)" fill-rule="evenodd" stroke="none"/>
    <path d="M7.6 -54.55 L7.5 -54.75 7.65 -54.7 7.6 -54.55 M5.75 -54.55 L5.85 -54.35 7.35 -53.95 7.4 -53.75 5.35 -54.2 5.7 -54.6 5.75 -54.55 M4.85 -53.55 L4.9 -53.55 5.9 -52.45 5.95 -52.3 3.95 -51.2 3.45 -51.1 4.1 -52.45 4.85 -53.55" fill="url(#gradient12)" fill-rule="evenodd" stroke="none"/>
    <path d="M4.85 -53.55 L4.85 -53.6 4.9 -53.55 4.85 -53.55" fill="url(#gradient13)" fill-rule="evenodd" stroke="none"/>
    <path d="M8.05 -53.4 L8.15 -53.45 8.45 -53.3 8.85 -52.65 9.0 -52.45 9.05 -52.3 9.35 -51.3 9.25 -51.1 9.15 -51.2 Q9.0 -50.9 8.05 -50.65 L7.6 -51.05 7.7 -51.3 6.9 -51.5 5.95 -52.3 5.9 -52.45 4.9 -53.55 4.85 -53.6 4.7 -54.05 5.35 -54.2 7.4 -53.75 8.05 -53.4" fill="url(#gradient14)" fill-rule="evenodd" stroke="none"/>
    <path d="M9.4 -53.55 L9.45 -53.45 9.4 -53.45 9.4 -53.55 M9.5 -53.3 L9.5 -53.25 9.45 -53.3 9.5 -53.3" fill="url(#gradient15)" fill-rule="evenodd" stroke="none"/>
    <path d="M9.45 -53.45 L9.5 -53.3 9.45 -53.3 9.4 -53.45 9.45 -53.45" fill="url(#gradient16)" fill-rule="evenodd" stroke="none"/>
    <path d="M9.05 -52.6 L9.35 -52.15 9.4 -51.3 9.35 -51.3 9.05 -52.3 9.1 -52.45 9.05 -52.6 M8.8 -50.35 L8.25 -49.85 7.2 -49.5 8.8 -50.35" fill="url(#gradient17)" fill-rule="evenodd" stroke="none"/>
    <path d="M9.4 -51.3 L9.25 -49.55 Q8.95 -48.5 8.25 -48.2 L8.0 -47.95 6.8 -47.5 4.6 -47.25 3.05 -47.45 3.0 -47.45 2.95 -47.5 1.75 -47.9 1.8 -48.1 0.65 -48.6 0.5 -48.6 0.2 -48.9 0.1 -48.95 -0.35 -49.7 -0.45 -51.15 -0.35 -51.0 -0.25 -50.05 Q0.1 -50.1 1.0 -48.75 L1.05 -48.55 1.75 -48.7 3.15 -47.95 Q8.3 -48.1 7.2 -49.5 L8.25 -49.85 8.8 -50.35 9.05 -50.55 9.25 -51.1 9.35 -51.3 9.4 -51.3" fill="url(#gradient18)" fill-rule="evenodd" stroke="none"/>
    <path d="M8.25 -48.2 Q7.45 -45.6 5.1 -45.35 L4.9 -46.15 4.7 -46.35 3.55 -47.15 4.4 -47.05 4.6 -47.25 6.8 -47.5 8.0 -47.95 8.25 -48.2" fill="url(#gradient19)" fill-rule="evenodd" stroke="none"/>
    <path d="M5.1 -45.35 L4.9 -44.15 0.2 -43.65 1.75 -47.9 2.95 -47.5 3.0 -47.45 3.05 -47.45 3.55 -47.15 4.7 -46.35 4.9 -46.15 5.1 -45.35 M-1.45 -47.25 L-1.0 -47.95 0.1 -48.9 0.2 -48.9 0.5 -48.6 -1.65 -46.75 -1.45 -47.25 M-1.75 -45.15 L-0.8 -46.35 0.2 -47.1 -1.05 -43.1 -1.25 -43.05 -1.25 -43.1 -1.45 -44.4 -1.65 -44.5 -1.75 -45.15" fill="url(#gradient20)" fill-rule="evenodd" stroke="none"/>
    <path d="M0.5 -48.6 L0.65 -48.6 0.2 -47.1 -0.8 -46.35 -1.75 -45.15 -2.8 -43.95 Q-4.4 -41.5 -4.55 -40.65 L-5.3 -39.0 -5.85 -36.4 -6.0 -36.35 Q-7.0 -36.15 -5.55 -40.65 -5.4 -41.6 -3.45 -44.55 L-1.65 -46.75 0.5 -48.6" fill="url(#gradient21)" fill-rule="evenodd" stroke="none"/>
    <path d="M0.1 -48.9 L0.1 -48.95 0.2 -48.9 0.1 -48.9" fill="url(#gradient22)" fill-rule="evenodd" stroke="none"/>
    <path d="M1.75 -47.9 L0.2 -43.65 -1.85 -37.95 -2.2 -35.65 -2.55 -35.65 -3.15 -35.2 -3.25 -35.25 -3.2 -35.6 -1.05 -43.1 0.2 -47.1 0.65 -48.6 1.8 -48.1 1.75 -47.9" fill="url(#gradient23)" fill-rule="evenodd" stroke="none"/>
    <path d="M4.9 -44.15 L5.8 -43.25 6.65 -42.15 7.5 -40.65 7.9 -39.65 Q5.5 -40.35 3.4 -36.4 2.55 -31.95 5.5 -29.55 L5.3 -28.85 5.15 -27.9 Q0.0 -27.35 0.3 -28.85 L-0.3 -29.5 Q-0.95 -29.5 -2.9 -30.55 L-3.7 -31.45 -3.75 -31.55 -5.0 -33.05 -5.55 -33.75 -5.65 -33.95 -6.7 -35.7 -8.7 -38.9 -8.95 -39.5 -9.25 -40.4 -9.2 -40.65 -9.0 -42.05 -8.5 -42.75 Q-8.6 -41.1 -7.05 -42.0 L-7.15 -42.6 -8.0 -43.6 -7.1 -44.55 -6.8 -45.15 Q-5.25 -46.05 -4.75 -46.9 L-3.7 -47.25 -2.0 -47.4 -1.45 -47.25 -1.65 -46.75 -3.45 -44.55 Q-5.4 -41.6 -5.55 -40.65 -7.0 -36.15 -6.0 -36.35 L-5.85 -36.4 -5.3 -39.0 -4.55 -40.65 Q-4.4 -41.5 -2.8 -43.95 L-1.75 -45.15 -1.65 -44.5 -1.45 -44.4 -1.25 -43.1 -1.25 -43.05 -1.05 -43.1 -3.2 -35.6 -3.25 -35.25 -3.15 -35.2 -2.55 -35.65 -2.2 -35.65 -1.85 -37.95 0.2 -43.65 4.9 -44.15" fill="url(#gradient24)" fill-rule="evenodd" stroke="none"/>
    <path d="M5.8 -43.25 Q9.3 -42.1 10.35 -38.15 L9.65 -38.8 7.9 -39.65 7.5 -40.65 6.65 -42.15 5.8 -43.25" fill="url(#gradient25)" fill-rule="evenodd" stroke="none"/>
    <path d="M10.35 -38.15 Q12.75 -35.4 11.85 -31.4 L11.2 -30.25 Q11.25 -29.5 7.45 -29.15 L7.0 -28.9 6.75 -28.9 5.5 -29.55 Q2.55 -31.95 3.4 -36.4 5.5 -40.35 7.9 -39.65 L9.65 -38.8 10.35 -38.15" fill="url(#gradient26)" fill-rule="evenodd" stroke="none"/>
    <path d="M5.15 -27.9 L5.3 -28.85 5.5 -29.55 6.75 -28.9 6.75 -28.85 6.7 -28.4 6.6 -26.55 6.75 -25.65 6.35 -25.4 6.2 -24.15 6.1 -24.2 5.5 -25.15 5.25 -26.2 5.15 -27.9" fill="url(#gradient27)" fill-rule="evenodd" stroke="none"/>
    <path d="M11.85 -31.4 Q14.15 -27.75 12.3 -23.65 L12.15 -23.4 11.2 -23.2 Q13.5 -26.3 12.2 -28.85 L11.85 -29.55 11.2 -30.25 11.85 -31.4 M6.7 -28.4 L6.75 -28.85 6.75 -28.9 7.0 -28.9 7.0 -28.85 6.7 -28.4 M10.95 -22.95 L10.4 -22.6 10.35 -22.7 10.95 -22.95" fill="url(#gradient28)" fill-rule="evenodd" stroke="none"/>
    <path d="M6.75 -25.65 L6.6 -26.55 6.7 -28.4 7.0 -28.85 7.0 -28.9 7.45 -29.15 Q11.25 -29.5 11.2 -30.25 L11.85 -29.55 12.2 -28.85 Q13.5 -26.3 11.2 -23.2 L10.95 -22.95 10.35 -22.7 9.5 -22.6 Q8.5 -22.75 8.2 -23.15 L7.15 -24.45 6.75 -25.65" fill="url(#gradient29)" fill-rule="evenodd" stroke="none"/>
    <path d="M5.25 -26.2 L5.5 -25.15 6.1 -24.2 Q0.65 -25.45 0.8 -24.6 0.5 -24.55 -0.05 -25.55 L-0.6 -25.75 -0.9 -25.55 -1.1 -25.65 Q-2.95 -27.4 -3.95 -27.6 L-4.05 -28.85 -4.1 -29.0 -4.05 -30.65 -4.0 -30.75 -4.0 -30.8 -3.75 -31.55 -3.7 -31.45 -3.85 -29.6 -3.75 -28.85 -3.55 -28.85 Q-3.45 -28.4 -2.4 -28.2 L-2.15 -27.7 -1.1 -27.65 Q0.15 -25.9 0.65 -26.05 L5.25 -26.2" fill="url(#gradient30)" fill-rule="evenodd" stroke="none"/>
    <path d="M6.2 -24.15 L6.35 -25.4 6.75 -25.65 7.15 -24.45 8.2 -23.15 7.85 -22.35 7.6 -22.05 7.3 -22.0 7.15 -22.1 Q6.5 -22.6 6.35 -23.15 L6.2 -24.15" fill="url(#gradient31)" fill-rule="evenodd" stroke="none"/>
    <path d="M5.15 -27.9 L5.25 -26.2 0.65 -26.05 Q0.15 -25.9 -1.1 -27.65 L-2.15 -27.7 -2.4 -28.2 Q-3.45 -28.4 -3.55 -28.85 L-3.75 -28.85 -3.85 -29.6 -3.7 -31.45 -2.9 -30.55 Q-0.95 -29.5 -0.3 -29.5 L0.3 -28.85 Q0.0 -27.35 5.15 -27.9" fill="url(#gradient32)" fill-rule="evenodd" stroke="none"/>
    <path d="M12.3 -23.65 L13.5 -22.0 Q13.85 -21.7 13.8 -20.5 L13.85 -20.05 13.85 -19.3 14.45 -18.4 14.4 -17.9 13.65 -17.05 Q13.35 -16.0 11.45 -17.05 L10.75 -17.55 10.7 -17.65 8.95 -19.2 8.7 -20.05 8.7 -20.15 8.65 -20.2 8.45 -20.75 Q9.7 -20.3 10.4 -22.6 L10.95 -22.95 11.2 -23.2 12.15 -23.4 12.3 -23.65" fill="url(#gradient33)" fill-rule="evenodd" stroke="none"/>
    <path d="M10.4 -22.6 Q9.7 -20.3 8.45 -20.75 L7.55 -21.4 7.2 -21.95 7.15 -22.05 7.3 -22.0 7.6 -22.05 7.85 -22.35 8.2 -23.15 Q8.5 -22.75 9.5 -22.6 L10.35 -22.7 10.4 -22.6" fill="url(#gradient34)" fill-rule="evenodd" stroke="none"/>
    <path d="M14.2 -20.25 Q16.75 -19.75 16.2 -16.4 15.25 -13.75 11.6 -15.4 L10.95 -16.2 10.75 -17.05 10.7 -17.55 10.75 -17.55 11.45 -17.05 Q13.35 -16.0 13.65 -17.05 L14.4 -17.9 14.45 -18.4 13.85 -19.3 13.85 -20.05 14.2 -20.25" fill="url(#gradient35)" fill-rule="evenodd" stroke="none"/>
    <path d="M13.8 -20.5 L14.2 -20.25 13.85 -20.05 13.8 -20.5" fill="url(#gradient36)" fill-rule="evenodd" stroke="none"/>
    <path d="M8.65 -20.2 L8.7 -20.15 8.7 -20.05 8.65 -20.2 M10.7 -17.65 L10.75 -17.55 10.7 -17.55 10.7 -17.65" fill="url(#gradient37)" fill-rule="evenodd" stroke="none"/>
    <path d="M8.45 -20.75 L8.65 -20.2 8.7 -20.05 8.95 -19.2 10.7 -17.65 10.7 -17.55 10.75 -17.05 10.95 -16.2 10.75 -15.2 10.1 -14.85 9.95 -14.55 9.75 -14.0 Q0.75 -9.45 -0.2 -16.7 L-0.2 -16.9 -0.2 -17.0 -0.15 -17.05 -0.15 -17.15 -0.15 -17.35 0.2 -19.7 Q4.3 -15.55 7.2 -21.95 L7.55 -21.4 8.45 -20.75" fill="url(#gradient38)" fill-rule="evenodd" stroke="none"/>
    <path d="M11.6 -15.4 L11.65 -14.4 11.2 -8.65 10.8 -7.7 Q10.65 -9.5 11.2 -13.3 L9.95 -14.55 10.1 -14.85 10.75 -15.2 10.95 -16.2 11.6 -15.4 M9.75 -14.0 Q7.95 -11.7 8.55 -8.1 L7.65 -5.25 Q5.35 -3.3 1.5 -5.25 -1.95 -7.2 -1.6 -8.25 L-1.65 -8.65 -1.65 -9.1 -1.4 -9.95 -0.45 -16.15 -0.25 -16.7 -0.2 -16.7 Q0.75 -9.45 9.75 -14.0 M-0.15 -17.05 L-0.2 -17.0 -0.25 -17.05 -0.2 -17.05 -0.15 -17.05" fill="url(#gradient39)" fill-rule="evenodd" stroke="none"/>
    <path d="M6.1 -24.2 L6.2 -24.15 6.35 -23.15 Q6.5 -22.6 7.15 -22.1 L7.15 -22.05 7.2 -21.95 Q4.3 -15.55 0.2 -19.7 L-0.6 -20.95 Q-1.9 -23.8 -1.1 -25.65 L-0.9 -25.55 -0.6 -25.75 -0.05 -25.55 Q0.5 -24.55 0.8 -24.6 0.65 -25.45 6.1 -24.2" fill="url(#gradient40)" fill-rule="evenodd" stroke="none"/>
    <path d="M7.3 -22.0 L7.15 -22.05 7.15 -22.1 7.3 -22.0" fill="url(#gradient41)" fill-rule="evenodd" stroke="none"/>
    <path d="M11.2 -8.65 Q10.9 -5.75 9.3 -3.6 L6.5 -2.95 6.3 -2.95 4.45 -2.5 2.35 -3.0 1.55 -3.25 1.4 -3.3 0.25 -3.8 -0.25 -4.2 -0.85 -4.9 -1.4 -5.6 -1.7 -7.35 -1.7 -8.25 -1.6 -8.25 Q-1.95 -7.2 1.5 -5.25 5.35 -3.3 7.65 -5.25 L8.55 -8.1 Q7.95 -11.7 9.75 -14.0 L9.95 -14.55 11.2 -13.3 Q10.65 -9.5 10.8 -7.7 L11.2 -8.65" fill="url(#gradient42)" fill-rule="evenodd" stroke="none"/>
    <path d="M1.4 -3.3 L1.55 -3.25 1.9 -2.35 2.3 -2.05 1.55 -1.35 1.25 -0.2 0.55 -0.55 1.05 -2.5 1.4 -3.3" fill="url(#gradient43)" fill-rule="evenodd" stroke="none"/>
    <path d="M-4.1 -2.65 L-4.55 -4.45 Q-4.25 -6.0 -3.65 -6.55 L-3.25 -6.25 -3.65 -5.25 Q-3.1 -2.55 -0.25 -4.2 L0.25 -3.8 1.4 -3.3 1.05 -2.5 Q-0.25 -0.3 -4.1 -2.65" fill="url(#gradient44)" fill-rule="evenodd" stroke="none"/>
    <path d="M6.4 -2.0 L6.9 -1.55 7.4 -0.25 7.45 0.85 Q7.2 2.05 6.85 2.3 4.2 4.5 1.65 2.05 L1.2 0.6 1.25 -0.2 1.55 -1.35 2.3 -2.05 2.6 -1.95 2.65 -1.7 2.6 -1.45 Q0.85 0.95 4.95 1.25 7.55 -0.6 6.4 -1.85 L6.4 -2.0" fill="url(#gradient45)" fill-rule="evenodd" stroke="none"/>
    <path d="M1.2 0.6 Q-5.25 4.55 -4.15 -1.55 -0.95 1.9 0.55 -0.55 L1.25 -0.2 1.2 0.6" fill="url(#gradient46)" fill-rule="evenodd" stroke="none"/>
    <path d="M1.55 -3.25 L2.35 -3.0 2.6 -1.95 2.3 -2.05 1.9 -2.35 1.55 -3.25" fill="url(#gradient47)" fill-rule="evenodd" stroke="none"/>
    <path d="M-4.15 -1.55 L-4.1 -2.65 Q-0.25 -0.3 1.05 -2.5 L0.55 -0.55 Q-0.95 1.9 -4.15 -1.55" fill="url(#gradient48)" fill-rule="evenodd" stroke="none"/>
    <path d="M6.5 -2.95 L6.4 -2.0 6.4 -1.85 6.05 -0.85 Q5.65 -0.35 4.5 0.0 3.6 0.15 2.75 -0.4 L2.6 -1.45 2.65 -1.7 Q3.7 0.65 6.3 -2.95 L6.5 -2.95" fill="url(#gradient49)" fill-rule="evenodd" stroke="none"/>
    <path d="M2.35 -3.0 L4.45 -2.5 6.3 -2.95 Q3.7 0.65 2.65 -1.7 L2.6 -1.95 2.35 -3.0" fill="url(#gradient50)" fill-rule="evenodd" stroke="none"/>
    <path d="M2.6 -1.45 L2.75 -0.4 Q3.6 0.15 4.5 0.0 5.65 -0.35 6.05 -0.85 L6.4 -1.85 Q7.55 -0.6 4.95 1.25 0.85 0.95 2.6 -1.45" fill="url(#gradient51)" fill-rule="evenodd" stroke="none"/>
    <path d="M6.9 -1.55 Q13.55 -1.5 9.8 3.85 9.35 1.1 7.4 -0.25 L6.9 -1.55" fill="url(#gradient52)" fill-rule="evenodd" stroke="none"/>
    <path d="M9.8 3.85 L9.4 4.3 7.0 5.45 6.8 5.0 6.2 4.6 6.7 3.35 6.85 2.3 Q7.2 2.05 7.45 0.85 L7.4 -0.25 Q9.35 1.1 9.8 3.85" fill="url(#gradient53)" fill-rule="evenodd" stroke="none"/>
    <path d="M1.55 2.8 L1.65 2.05 Q4.2 4.5 6.85 2.3 L6.7 3.35 6.2 4.6 Q3.25 6.35 1.55 2.85 L1.55 2.8" fill="url(#gradient54)" fill-rule="evenodd" stroke="none"/>
    <path d="M7.0 5.45 Q0.1 9.25 1.55 2.85 3.25 6.35 6.2 4.6 L6.8 5.0 7.0 5.45" fill="url(#gradient55)" fill-rule="evenodd" stroke="none"/>
    <path d="M1.55 2.85 L1.55 2.8 1.55 2.85" fill="url(#gradient56)" fill-rule="evenodd" stroke="none"/>
    <path d="M-1.4 -52.55 L-1.35 -52.9 -0.95 -53.3 0.2 -54.3 -0.1 -53.6 0.1 -53.15 -1.4 -52.55" fill="url(#gradient57)" fill-rule="evenodd" stroke="none"/>
    <path d="M-0.45 -51.15 L-0.4 -51.2 -0.35 -51.0 -0.45 -51.15" fill="url(#gradient58)" fill-rule="evenodd" stroke="none"/>
    <path d="M-0.5 -52.35 L-1.25 -52.4 -1.4 -52.55 0.1 -53.15 -0.25 -52.45 -0.5 -52.35" fill="url(#gradient59)" fill-rule="evenodd" stroke="none"/>
    <path d="M-10.9 -42.2 Q-10.45 -49.7 -3.7 -47.25 L-4.75 -46.9 Q-5.25 -46.05 -6.8 -45.15 L-7.1 -44.55 -8.0 -43.6 -7.15 -42.6 -7.05 -42.0 Q-8.6 -41.1 -8.5 -42.75 L-9.0 -42.05 -9.2 -40.65 -9.25 -40.4 -8.95 -39.5 -9.7 -39.95 -9.9 -40.1 -10.6 -41.1 -10.9 -42.2" fill="url(#gradient60)" fill-rule="evenodd" stroke="none"/>
    <path d="M-9.7 -39.95 L-8.95 -39.5 -8.7 -38.9 -6.7 -35.7 -7.15 -35.25 -8.4 -34.85 -9.05 -34.85 -9.85 -35.25 -10.25 -35.75 Q-10.65 -36.65 -10.65 -37.75 L-10.05 -39.55 -9.7 -39.95" fill="url(#gradient61)" fill-rule="evenodd" stroke="none"/>
    <path d="M-9.7 -39.95 L-10.05 -39.55 -9.9 -40.1 -9.7 -39.95" fill="url(#gradient62)" fill-rule="evenodd" stroke="none"/>
    <path d="M-11.45 -37.05 Q-13.15 -39.5 -10.9 -42.2 L-10.6 -41.1 -9.9 -40.1 -10.05 -39.55 -10.65 -37.75 -11.15 -37.65 -11.45 -37.05" fill="url(#gradient63)" fill-rule="evenodd" stroke="none"/>
    <path d="M-11.15 -35.15 L-11.45 -35.9 -11.45 -37.05 -11.15 -37.65 -10.65 -37.75 Q-10.65 -36.65 -10.25 -35.75 L-9.85 -35.25 -10.35 -34.7 -10.65 -34.7 -11.1 -35.0 -11.1 -35.05 -11.15 -35.15" fill="url(#gradient64)" fill-rule="evenodd" stroke="none"/>
    <path d="M-9.85 -35.25 L-9.05 -34.85 -8.4 -34.85 Q-9.85 -32.8 -11.1 -35.0 L-10.65 -34.7 -10.35 -34.7 -9.85 -35.25" fill="url(#gradient65)" fill-rule="evenodd" stroke="none"/>
    <path d="M-11.15 -35.05 L-11.15 -35.15 -11.1 -35.05 -11.15 -35.05" fill="url(#gradient66)" fill-rule="evenodd" stroke="none"/>
    <path d="M-11.15 -35.0 L-11.15 -35.05 -11.1 -35.05 -11.1 -35.0 -11.15 -35.0" fill="url(#gradient67)" fill-rule="evenodd" stroke="none"/>
    <path d="M-8.35 -31.25 Q-8.6 -31.2 -10.65 -33.35 L-11.15 -35.0 -11.1 -35.0 Q-9.85 -32.8 -8.4 -34.85 L-7.15 -35.25 -6.7 -35.7 -5.65 -33.95 -5.75 -33.75 -5.9 -33.5 -5.85 -32.9 -5.8 -32.4 -6.2 -31.2 -8.35 -31.25" fill="url(#gradient68)" fill-rule="evenodd" stroke="none"/>
    <path d="M-5.0 -33.05 L-3.75 -31.55 -4.0 -30.8 -4.1 -30.65 -4.3 -30.5 -5.2 -30.65 -6.2 -31.2 -5.8 -32.4 -5.85 -32.9 -5.0 -33.05" fill="url(#gradient69)" fill-rule="evenodd" stroke="none"/>
    <path d="M-5.25 -28.55 Q-8.5 -28.85 -8.35 -31.25 L-6.2 -31.2 -5.2 -30.65 -4.3 -30.5 -5.25 -28.55 M-5.0 -33.05 L-5.85 -32.9 -5.9 -33.5 -5.75 -33.75 -5.55 -33.75 -5.0 -33.05" fill="url(#gradient70)" fill-rule="evenodd" stroke="none"/>
    <path d="M-5.55 -26.6 L-5.25 -28.55 -4.3 -30.5 -4.1 -30.65 -4.05 -30.65 -4.1 -29.0 -4.05 -28.85 -3.95 -27.6 Q-2.95 -27.4 -1.1 -25.65 -1.9 -23.8 -0.6 -20.95 -4.55 -21.15 -5.55 -26.6" fill="url(#gradient71)" fill-rule="evenodd" stroke="none"/>
    <path d="M-4.1 -30.65 L-4.0 -30.8 -4.0 -30.75 -4.05 -30.65 -4.1 -30.65" fill="url(#gradient72)" fill-rule="evenodd" stroke="none"/>
    <path d="M-6.45 -22.05 L-6.2 -24.6 -5.55 -26.6 Q-4.55 -21.15 -0.6 -20.95 L0.2 -19.7 -0.15 -17.35 Q-6.8 -16.25 -6.45 -21.75 L-6.45 -22.05" fill="url(#gradient73)" fill-rule="evenodd" stroke="none"/>
    <path d="M-6.5 -21.9 L-6.45 -22.05 -6.45 -21.75 -6.5 -21.9" fill="url(#gradient74)" fill-rule="evenodd" stroke="none"/>
    <path d="M-7.65 -13.15 L-7.65 -13.3 -7.6 -13.6 -7.6 -14.4 -7.5 -14.6 -7.5 -14.75 -6.8 -21.25 -6.5 -21.9 -6.45 -21.75 Q-6.8 -16.25 -0.15 -17.35 L-0.15 -17.15 -0.2 -17.05 -0.25 -17.05 -0.2 -17.0 -0.2 -16.9 -0.25 -16.7 -0.45 -16.15 -1.4 -9.95 -1.65 -9.1 Q-4.5 -8.5 -7.65 -13.15" fill="url(#gradient75)" fill-rule="evenodd" stroke="none"/>
    <path d="M-7.55 -14.6 L-7.5 -14.75 -7.5 -14.6 -7.55 -14.6" fill="url(#gradient76)" fill-rule="evenodd" stroke="none"/>
    <path d="M-7.6 -14.4 L-7.55 -14.6 -7.5 -14.6 -7.6 -14.4" fill="url(#gradient77)" fill-rule="evenodd" stroke="none"/>
    <path d="M-0.15 -17.15 L-0.15 -17.05 -0.2 -17.05 -0.15 -17.15 M-0.2 -16.9 L-0.2 -16.7 -0.25 -16.7 -0.2 -16.9" fill="url(#gradient78)" fill-rule="evenodd" stroke="none"/>
    <path d="M-0.85 -4.9 L-0.25 -4.2 Q-3.1 -2.55 -3.65 -5.25 L-3.25 -6.25 -3.15 -6.2 -3.15 -5.7 -2.95 -5.25 Q-2.6 -4.25 -0.85 -4.9" fill="url(#gradient79)" fill-rule="evenodd" stroke="none"/>
    <path d="M-3.65 -6.55 L-4.3 -7.75 -3.0 -7.5 -2.75 -6.25 -3.15 -6.2 -3.25 -6.25 -3.65 -6.55" fill="url(#gradient80)" fill-rule="evenodd" stroke="none"/>
    <path d="M-1.4 -5.6 L-0.85 -4.9 Q-2.6 -4.25 -2.95 -5.25 L-3.15 -5.7 -3.15 -6.2 -2.75 -6.25 -2.2 -5.6 -1.4 -5.6" fill="url(#gradient81)" fill-rule="evenodd" stroke="none"/>
    <path d="M-1.7 -7.35 L-1.4 -5.6 -2.2 -5.6 -2.75 -6.25 -3.0 -7.5 -2.2 -7.3 -1.7 -7.35" fill="url(#gradient82)" fill-rule="evenodd" stroke="none"/>
    <path d="M-4.3 -7.75 Q-8.35 -10.15 -7.65 -13.15 -4.5 -8.5 -1.65 -9.1 L-1.65 -8.65 -1.7 -8.25 -1.7 -7.35 -2.2 -7.3 -3.0 -7.5 -4.3 -7.75" fill="url(#gradient83)" fill-rule="evenodd" stroke="none"/>
    <path d="M-1.6 -8.25 L-1.7 -8.25 -1.65 -8.65 -1.6 -8.25" fill="url(#gradient84)" fill-rule="evenodd" stroke="none"/>
  </g>
  <defs>
    <radialGradient cx="0" cy="0" gradientTransform="matrix(0.01, 0.0, 0.0, 0.01, 7.0, -55.25)" gradientUnits="userSpaceOnUse" id="gradient0" r="819.2" spreadMethod="pad">
      <stop offset="0.0" stop-color="#ee3535"/>
      <stop offset="1.0" stop-color="#e83333"/>
    </radialGradient>
    <radialGradient cx="0" cy="0" gradientTransform="matrix(0.0081, 0.0, 0.0, 0.0081, 6.05, -60.2)" gradientUnits="userSpaceOnUse" id="gradient1" r="819.2" spreadMethod="pad">
      <stop offset="0.0" stop-color="#d02e2e"/>
      <stop offset="1.0" stop-color="#c02b2b"/>
    </radialGradient>
    <radialGradient cx="0" cy="0" gradientTransform="matrix(0.0075, 0.0, 0.0, 0.0075, 4.1, -56.05)" gradientUnits="userSpaceOnUse" id="gradient2" r="819.2" spreadMethod="pad">
      <stop offset="0.0" stop-color="#b62828"/>
      <stop offset="1.0" stop-color="#ac2626"/>
    </radialGradient>
    <radialGradient cx="0" cy="0" gradientTransform="matrix(0.0052, 0.0, 0.0, 0.0052, 7.9, -59.05)" gradientUnits="userSpaceOnUse" id="gradient3" r="819.2" spreadMethod="pad">
      <stop offset="0.0" stop-color="#9c2323"/>
      <stop offset="1.0" stop-color="#8e2020"/>
    </radialGradient>
    <radialGradient cx="0" cy="0" gradientTransform="matrix(0.0056, 0.0, 0.0, 0.0056, 8.25, -53.05)" gradientUnits="userSpaceOnUse" id="gradient4" r="819.2" spreadMethod="pad">
      <stop offset="0.0" stop-color="#a02323"/>
      <stop offset="1.0" stop-color="#881e1e"/>
    </radialGradient>
    <radialGradient cx="0" cy="0" gradientTransform="matrix(0.003, 0.0, 0.0, 0.003, 5.7, -56.9)" gradientUnits="userSpaceOnUse" id="gradient5" r="819.2" spreadMethod="pad">
      <stop offset="0.0" stop-color="#1f0707"/>
      <stop offset="1.0" stop-color="#1f0707"/>
    </radialGradient>
    <radialGradient cx="0" cy="0" gradientTransform="matrix(0.0063, 0.0, 0.0, 0.0063, 5.5, -56.35)" gradientUnits="userSpaceOnUse" id="gradient6" r="819.2" spreadMethod="pad">
      <stop offset="0.0" stop-color="#c92d2d"/>
      <stop offset="1.0" stop-color="#bb2929"/>
    </radialGradient>
    <radialGradient cx="0" cy="0" gradientTransform="matrix(0.0064, 0.0, 0.0, 0.0064, 4.35, -51.9)" gradientUnits="userSpaceOnUse" id="gradient7" r="819.2" spreadMethod="pad">
      <stop offset="0.0" stop-color="#ef3535"/>
      <stop offset="1.0" stop-color="#7e1c1c"/>
    </radialGradient>
    <radialGradient cx="0" cy="0" gradientTransform="matrix(0.0058, 0.0, 0.0, 0.0058, 5.7, -56.9)" gradientUnits="userSpaceOnUse" id="gradient8" r="819.2" spreadMethod="pad">
      <stop offset="0.0" stop-color="#a92525"/>
      <stop offset="1.0" stop-color="#9c2323"/>
    </radialGradient>
    <radialGradient cx="0" cy="0" gradientTransform="matrix(0.0078, 0.0, 0.0, 0.0078, 8.6, -52.5)" gradientUnits="userSpaceOnUse" id="gradient9" r="819.2" spreadMethod="pad">
      <stop offset="0.0" stop-color="#e13232"/>
      <stop offset="1.0" stop-color="#cb2d2d"/>
    </radialGradient>
    <radialGradient cx="0" cy="0" gradientTransform="matrix(0.0047, 0.0, 0.0, 0.0047, 0.5, -57.85)" gradientUnits="userSpaceOnUse" id="gradient10" r="819.2" spreadMethod="pad">
      <stop offset="0.0" stop-color="#6f1919"/>
      <stop offset="1.0" stop-color="#601515"/>
    </radialGradient>
    <radialGradient cx="0" cy="0" gradientTransform="matrix(0.0047, 0.0, 0.0, 0.0047, 4.85, -59.85)" gradientUnits="userSpaceOnUse" id="gradient11" r="819.2" spreadMethod="pad">
      <stop offset="0.0" stop-color="#b72929"/>
      <stop offset="1.0" stop-color="#b52828"/>
    </radialGradient>
    <radialGradient cx="0" cy="0" gradientTransform="matrix(0.0059, 0.0, 0.0, 0.0059, 7.25, -54.2)" gradientUnits="userSpaceOnUse" id="gradient12" r="819.2" spreadMethod="pad">
      <stop offset="0.0" stop-color="#da3131"/>
      <stop offset="1.0" stop-color="#ce2e2e"/>
    </radialGradient>
    <radialGradient cx="0" cy="0" gradientTransform="matrix(0.001, 0.0, 0.0, 0.001, 4.65, -54.15)" gradientUnits="userSpaceOnUse" id="gradient13" r="819.2" spreadMethod="pad">
      <stop offset="0.0" stop-color="#1f0707"/>
      <stop offset="1.0" stop-color="#1f0707"/>
    </radialGradient>
    <radialGradient cx="0" cy="0" gradientTransform="matrix(0.0047, 0.0, 0.0, 0.0047, 5.9, -53.25)" gradientUnits="userSpaceOnUse" id="gradient14" r="819.2" spreadMethod="pad">
      <stop offset="0.0" stop-color="#b72929"/>
      <stop offset="1.0" stop-color="#982121"/>
    </radialGradient>
    <radialGradient cx="0" cy="0" gradientTransform="matrix(6.0E-4, 0.0, 0.0, 6.0E-4, 9.45, -53.3)" gradientUnits="userSpaceOnUse" id="gradient15" r="819.2" spreadMethod="pad">
      <stop offset="0.0" stop-color="#942121"/>
      <stop offset="1.0" stop-color="#891e1e"/>
    </radialGradient>
    <radialGradient cx="0" cy="0" gradientTransform="matrix(0.002, 0.0, 0.0, 0.002, 9.4, -53.3)" gradientUnits="userSpaceOnUse" id="gradient16" r="819.2" spreadMethod="pad">
      <stop offset="0.0" stop-color="#972222"/>
      <stop offset="1.0" stop-color="#922020"/>
    </radialGradient>
    <radialGradient cx="0" cy="0" gradientTransform="matrix(0.0051, 0.0, 0.0, 0.0051, 8.05, -49.9)" gradientUnits="userSpaceOnUse" id="gradient17" r="819.2" spreadMethod="pad">
      <stop offset="0.0" stop-color="#a5a5a5"/>
      <stop offset="1.0" stop-color="#a2a2a2"/>
    </radialGradient>
    <radialGradient cx="0" cy="0" gradientTransform="matrix(0.0082, 0.0, 0.0, 0.0082, 4.85, -47.35)" gradientUnits="userSpaceOnUse" id="gradient18" r="819.2" spreadMethod="pad">
      <stop offset="0.0" stop-color="#d0d0d0"/>
      <stop offset="1.0" stop-color="#a3a3a3"/>
    </radialGradient>
    <radialGradient cx="0" cy="0" gradientTransform="matrix(0.0041, 0.0, 0.0, 0.0041, 4.95, -47.9)" gradientUnits="userSpaceOnUse" id="gradient19" r="819.2" spreadMethod="pad">
      <stop offset="0.0" stop-color="#cd9154"/>
      <stop offset="1.0" stop-color="#9d6f40"/>
    </radialGradient>
    <radialGradient cx="0" cy="0" gradientTransform="matrix(0.0055, 0.0, 0.0, 0.0055, 1.85, -45.7)" gradientUnits="userSpaceOnUse" id="gradient20" r="819.2" spreadMethod="pad">
      <stop offset="0.0" stop-color="#ffd37b"/>
      <stop offset="1.0" stop-color="#d39556"/>
    </radialGradient>
    <radialGradient cx="0" cy="0" gradientTransform="matrix(0.016, 0.0, 0.0, 0.016, 0.1, -48.0)" gradientUnits="userSpaceOnUse" id="gradient21" r="819.2" spreadMethod="pad">
      <stop offset="0.0" stop-color="#ffffff"/>
      <stop offset="1.0" stop-color="#c9c9c9"/>
    </radialGradient>
    <radialGradient cx="0" cy="0" gradientTransform="matrix(0.007, 0.0, 0.0, 0.007, -0.35, -49.7)" gradientUnits="userSpaceOnUse" id="gradient22" r="819.2" spreadMethod="pad">
      <stop offset="0.0" stop-color="#202020"/>
      <stop offset="1.0" stop-color="#202020"/>
    </radialGradient>
    <radialGradient cx="0" cy="0" gradientTransform="matrix(0.0101, 0.0, 0.0, 0.0101, -0.65, -43.2)" gradientUnits="userSpaceOnUse" id="gradient23" r="819.2" spreadMethod="pad">
      <stop offset="0.0" stop-color="#fafafa"/>
      <stop offset="1.0" stop-color="#d0d0d0"/>
    </radialGradient>
    <radialGradient cx="0" cy="0" gradientTransform="matrix(0.0213, 0.0, 0.0, 0.0213, -8.15, -39.3)" gradientUnits="userSpaceOnUse" id="gradient24" r="819.2" spreadMethod="pad">
      <stop offset="0.0" stop-color="#ffd87e"/>
      <stop offset="1.0" stop-color="#b07c48"/>
    </radialGradient>
    <radialGradient cx="0" cy="0" gradientTransform="matrix(0.0063, 0.0, 0.0, 0.0063, 7.8, -38.85)" gradientUnits="userSpaceOnUse" id="gradient25" r="819.2" spreadMethod="pad">
      <stop offset="0.0" stop-color="#ffd079"/>
      <stop offset="1.0" stop-color="#8d633a"/>
    </radialGradient>
    <radialGradient cx="0" cy="0" gradientTransform="matrix(0.0092, 0.0, 0.0, 0.0092, 6.35, -35.9)" gradientUnits="userSpaceOnUse" id="gradient26" r="819.2" spreadMethod="pad">
      <stop offset="0.0" stop-color="#ffd27a"/>
      <stop offset="1.0" stop-color="#b7814b"/>
    </radialGradient>
    <radialGradient cx="0" cy="0" gradientTransform="matrix(0.0064, 0.0, 0.0, 0.0064, 6.95, -28.85)" gradientUnits="userSpaceOnUse" id="gradient27" r="819.2" spreadMethod="pad">
      <stop offset="0.0" stop-color="#ffce78"/>
      <stop offset="1.0" stop-color="#a47443"/>
    </radialGradient>
    <radialGradient cx="0" cy="0" gradientTransform="matrix(0.0086, 0.0, 0.0, 0.0086, 7.2, -28.45)" gradientUnits="userSpaceOnUse" id="gradient28" r="819.2" spreadMethod="pad">
      <stop offset="0.0" stop-color="#ffb469"/>
      <stop offset="1.0" stop-color="#aa7746"/>
    </radialGradient>
    <radialGradient cx="0" cy="0" gradientTransform="matrix(0.0085, 0.0, 0.0, 0.0085, 8.0, -29.35)" gradientUnits="userSpaceOnUse" id="gradient29" r="819.2" spreadMethod="pad">
      <stop offset="0.0" stop-color="#ffd47c"/>
      <stop offset="1.0" stop-color="#966a3d"/>
    </radialGradient>
    <radialGradient cx="0" cy="0" gradientTransform="matrix(0.0099, 0.0, 0.0, 0.0099, 1.75, -25.75)" gradientUnits="userSpaceOnUse" id="gradient30" r="819.2" spreadMethod="pad">
      <stop offset="0.0" stop-color="#6a634d"/>
      <stop offset="1.0" stop-color="#373428"/>
    </radialGradient>
    <radialGradient cx="0" cy="0" gradientTransform="matrix(0.0048, 0.0, 0.0, 0.0048, 6.9, -25.9)" gradientUnits="userSpaceOnUse" id="gradient31" r="819.2" spreadMethod="pad">
      <stop offset="0.0" stop-color="#ffd27a"/>
      <stop offset="1.0" stop-color="#92673c"/>
    </radialGradient>
    <radialGradient cx="0" cy="0" gradientTransform="matrix(0.01, 0.0, 0.0, 0.01, 1.2, -32.7)" gradientUnits="userSpaceOnUse" id="gradient32" r="819.2" spreadMethod="pad">
      <stop offset="0.0" stop-color="#ffffff"/>
      <stop offset="1.0" stop-color="#a0a0a0"/>
    </radialGradient>
    <radialGradient cx="0" cy="0" gradientTransform="matrix(0.0083, 0.0, 0.0, 0.0083, 11.0, -22.9)" gradientUnits="userSpaceOnUse" id="gradient33" r="819.2" spreadMethod="pad">
      <stop offset="0.0" stop-color="#615a46"/>
      <stop offset="1.0" stop-color="#28261d"/>
    </radialGradient>
    <radialGradient cx="0" cy="0" gradientTransform="matrix(0.0037, 0.0, 0.0, 0.0037, 7.85, -23.55)" gradientUnits="userSpaceOnUse" id="gradient34" r="819.2" spreadMethod="pad">
      <stop offset="0.0" stop-color="#ffbd6e"/>
      <stop offset="1.0" stop-color="#a57443"/>
    </radialGradient>
    <radialGradient cx="0" cy="0" gradientTransform="matrix(0.0037, 0.0, 0.0, 0.0037, 13.65, -17.6)" gradientUnits="userSpaceOnUse" id="gradient35" r="819.2" spreadMethod="pad">
      <stop offset="0.0" stop-color="#6a634d"/>
      <stop offset="1.0" stop-color="#3d382c"/>
    </radialGradient>
    <radialGradient cx="0" cy="0" gradientTransform="matrix(0.001, 0.0, 0.0, 0.001, 13.8, -19.9)" gradientUnits="userSpaceOnUse" id="gradient36" r="819.2" spreadMethod="pad">
      <stop offset="0.0" stop-color="#d99959"/>
      <stop offset="1.0" stop-color="#976a3e"/>
    </radialGradient>
    <radialGradient cx="0" cy="0" gradientTransform="matrix(0.0049, 0.0, 0.0, 0.0049, 8.6, -20.6)" gradientUnits="userSpaceOnUse" id="gradient37" r="819.2" spreadMethod="pad">
      <stop offset="0.0" stop-color="#0c0c09"/>
      <stop offset="1.0" stop-color="#0c0c09"/>
    </radialGradient>
    <radialGradient cx="0" cy="0" gradientTransform="matrix(0.0168, 0.0, 0.0, 0.0168, 6.2, -23.5)" gradientUnits="userSpaceOnUse" id="gradient38" r="819.2" spreadMethod="pad">
      <stop offset="0.0" stop-color="#988a8a"/>
      <stop offset="1.0" stop-color="#595151"/>
    </radialGradient>
    <radialGradient cx="0" cy="0" gradientTransform="matrix(0.0147, 0.0, 0.0, 0.0147, 5.95, -14.6)" gradientUnits="userSpaceOnUse" id="gradient39" r="819.2" spreadMethod="pad">
      <stop offset="0.0" stop-color="#7e7373"/>
      <stop offset="1.0" stop-color="#544c4c"/>
    </radialGradient>
    <radialGradient cx="0" cy="0" gradientTransform="matrix(0.0091, 0.0, 0.0, 0.0091, 3.7, -25.3)" gradientUnits="userSpaceOnUse" id="gradient40" r="819.2" spreadMethod="pad">
      <stop offset="0.0" stop-color="#978a8a"/>
      <stop offset="1.0" stop-color="#4c4444"/>
    </radialGradient>
    <radialGradient cx="0" cy="0" gradientTransform="matrix(0.0028, 0.0, 0.0, 0.0028, 7.05, -22.25)" gradientUnits="userSpaceOnUse" id="gradient41" r="819.2" spreadMethod="pad">
      <stop offset="0.0" stop-color="#261b10"/>
      <stop offset="1.0" stop-color="#261b10"/>
    </radialGradient>
    <radialGradient cx="0" cy="0" gradientTransform="matrix(0.0177, 0.0, 0.0, 0.0177, 9.9, -14.65)" gradientUnits="userSpaceOnUse" id="gradient42" r="819.2" spreadMethod="pad">
      <stop offset="0.0" stop-color="#3e3a2d"/>
      <stop offset="1.0" stop-color="#353226"/>
    </radialGradient>
    <radialGradient cx="0" cy="0" gradientTransform="matrix(0.0043, 0.0, 0.0, 0.0043, 1.95, -3.5)" gradientUnits="userSpaceOnUse" id="gradient43" r="819.2" spreadMethod="pad">
      <stop offset="0.0" stop-color="#f53737"/>
      <stop offset="1.0" stop-color="#ce2d2d"/>
    </radialGradient>
    <radialGradient cx="0" cy="0" gradientTransform="matrix(0.0056, 0.0, 0.0, 0.0056, -3.1, -3.75)" gradientUnits="userSpaceOnUse" id="gradient44" r="819.2" spreadMethod="pad">
      <stop offset="0.0" stop-color="#756e55"/>
      <stop offset="1.0" stop-color="#3b362a"/>
    </radialGradient>
    <radialGradient cx="0" cy="0" gradientTransform="matrix(0.0053, 0.0, 0.0, 0.0053, 4.9, 1.2)" gradientUnits="userSpaceOnUse" id="gradient45" r="819.2" spreadMethod="pad">
      <stop offset="0.0" stop-color="#736c53"/>
      <stop offset="1.0" stop-color="#2f2c22"/>
    </radialGradient>
    <radialGradient cx="0" cy="0" gradientTransform="matrix(0.0045, 0.0, 0.0, 0.0045, -2.1, -0.8)" gradientUnits="userSpaceOnUse" id="gradient46" r="819.2" spreadMethod="pad">
      <stop offset="0.0" stop-color="#736b53"/>
      <stop offset="1.0" stop-color="#3f3b2e"/>
    </radialGradient>
    <radialGradient cx="0" cy="0" gradientTransform="matrix(0.0024, 0.0, 0.0, 0.0024, 2.2, -4.0)" gradientUnits="userSpaceOnUse" id="gradient47" r="819.2" spreadMethod="pad">
      <stop offset="0.0" stop-color="#ac7947"/>
      <stop offset="1.0" stop-color="#614427"/>
    </radialGradient>
    <radialGradient cx="0" cy="0" gradientTransform="matrix(0.0041, 0.0, 0.0, 0.0041, -1.35, -2.2)" gradientUnits="userSpaceOnUse" id="gradient48" r="819.2" spreadMethod="pad">
      <stop offset="0.0" stop-color="#962121"/>
      <stop offset="1.0" stop-color="#821c1c"/>
    </radialGradient>
    <radialGradient cx="0" cy="0" gradientTransform="matrix(0.0049, 0.0, 0.0, 0.0049, 3.95, -1.85)" gradientUnits="userSpaceOnUse" id="gradient49" r="819.2" spreadMethod="pad">
      <stop offset="0.0" stop-color="#bb844d"/>
      <stop offset="1.0" stop-color="#996b3e"/>
    </radialGradient>
    <radialGradient cx="0" cy="0" gradientTransform="matrix(0.0037, 0.0, 0.0, 0.0037, 3.5, -3.55)" gradientUnits="userSpaceOnUse" id="gradient50" r="819.2" spreadMethod="pad">
      <stop offset="0.0" stop-color="#b57f4a"/>
      <stop offset="1.0" stop-color="#775431"/>
    </radialGradient>
    <radialGradient cx="0" cy="0" gradientTransform="matrix(0.0053, 0.0, 0.0, 0.0053, 5.85, -1.3)" gradientUnits="userSpaceOnUse" id="gradient51" r="819.2" spreadMethod="pad">
      <stop offset="0.0" stop-color="#ffffff"/>
      <stop offset="1.0" stop-color="#a0a0a0"/>
    </radialGradient>
    <radialGradient cx="0" cy="0" gradientTransform="matrix(0.0046, 0.0, 0.0, 0.0046, 8.05, 0.45)" gradientUnits="userSpaceOnUse" id="gradient52" r="819.2" spreadMethod="pad">
      <stop offset="0.0" stop-color="#726b53"/>
      <stop offset="1.0" stop-color="#3e392d"/>
    </radialGradient>
    <radialGradient cx="0" cy="0" gradientTransform="matrix(0.0063, 0.0, 0.0, 0.0063, 8.15, 0.4)" gradientUnits="userSpaceOnUse" id="gradient53" r="819.2" spreadMethod="pad">
      <stop offset="0.0" stop-color="#ff3b3b"/>
      <stop offset="1.0" stop-color="#b12727"/>
    </radialGradient>
    <radialGradient cx="0" cy="0" gradientTransform="matrix(0.0044, 0.0, 0.0, 0.0044, 4.55, 2.5)" gradientUnits="userSpaceOnUse" id="gradient54" r="819.2" spreadMethod="pad">
      <stop offset="0.0" stop-color="#902020"/>
      <stop offset="1.0" stop-color="#821d1d"/>
    </radialGradient>
    <radialGradient cx="0" cy="0" gradientTransform="matrix(0.0047, 0.0, 0.0, 0.0047, 3.5, 3.9)" gradientUnits="userSpaceOnUse" id="gradient55" r="819.2" spreadMethod="pad">
      <stop offset="0.0" stop-color="#706952"/>
      <stop offset="1.0" stop-color="#3e3a2d"/>
    </radialGradient>
    <radialGradient cx="0" cy="0" gradientTransform="matrix(0.0022, 0.0, 0.0, 0.0022, 1.55, 2.9)" gradientUnits="userSpaceOnUse" id="gradient56" r="819.2" spreadMethod="pad">
      <stop offset="0.0" stop-color="#1f0707"/>
      <stop offset="1.0" stop-color="#1f0707"/>
    </radialGradient>
    <radialGradient cx="0" cy="0" gradientTransform="matrix(0.002, 0.0, 0.0, 0.002, -0.1, -53.2)" gradientUnits="userSpaceOnUse" id="gradient57" r="819.2" spreadMethod="pad">
      <stop offset="0.0" stop-color="#9c2323"/>
      <stop offset="1.0" stop-color="#821d1d"/>
    </radialGradient>
    <radialGradient cx="0" cy="0" gradientTransform="matrix(0.0066, 0.0, 0.0, 0.0066, -0.55, -52.7)" gradientUnits="userSpaceOnUse" id="gradient58" r="819.2" spreadMethod="pad">
      <stop offset="0.0" stop-color="#a22424"/>
      <stop offset="1.0" stop-color="#360c0c"/>
    </radialGradient>
    <radialGradient cx="0" cy="0" gradientTransform="matrix(0.0031, 0.0, 0.0, 0.0031, 0.9, -53.65)" gradientUnits="userSpaceOnUse" id="gradient59" r="819.2" spreadMethod="pad">
      <stop offset="0.0" stop-color="#a62525"/>
      <stop offset="1.0" stop-color="#952121"/>
    </radialGradient>
    <radialGradient cx="0" cy="0" gradientTransform="matrix(0.0074, 0.0, 0.0, 0.0074, -6.0, -44.85)" gradientUnits="userSpaceOnUse" id="gradient60" r="819.2" spreadMethod="pad">
      <stop offset="0.0" stop-color="#ffdd80"/>
      <stop offset="1.0" stop-color="#a17242"/>
    </radialGradient>
    <radialGradient cx="0" cy="0" gradientTransform="matrix(0.0064, 0.0, 0.0, 0.0064, -8.3, -40.1)" gradientUnits="userSpaceOnUse" id="gradient61" r="819.2" spreadMethod="pad">
      <stop offset="0.0" stop-color="#ffe183"/>
      <stop offset="1.0" stop-color="#7e5934"/>
    </radialGradient>
    <radialGradient cx="0" cy="0" gradientTransform="matrix(0.0069, 0.0, 0.0, 0.0069, -9.05, -40.75)" gradientUnits="userSpaceOnUse" id="gradient62" r="819.2" spreadMethod="pad">
      <stop offset="0.0" stop-color="#ffcf79"/>
      <stop offset="1.0" stop-color="#c68c51"/>
    </radialGradient>
    <radialGradient cx="0" cy="0" gradientTransform="matrix(0.0056, 0.0, 0.0, 0.0056, -10.0, -41.4)" gradientUnits="userSpaceOnUse" id="gradient63" r="819.2" spreadMethod="pad">
      <stop offset="0.0" stop-color="#ffdf82"/>
      <stop offset="1.0" stop-color="#ab7846"/>
    </radialGradient>
    <radialGradient cx="0" cy="0" gradientTransform="matrix(0.0039, 0.0, 0.0, 0.0039, -10.55, -38.0)" gradientUnits="userSpaceOnUse" id="gradient64" r="819.2" spreadMethod="pad">
      <stop offset="0.0" stop-color="#ffe787"/>
      <stop offset="1.0" stop-color="#8a6139"/>
    </radialGradient>
    <radialGradient cx="0" cy="0" gradientTransform="matrix(0.0021, 0.0, 0.0, 0.0021, -10.1, -35.45)" gradientUnits="userSpaceOnUse" id="gradient65" r="819.2" spreadMethod="pad">
      <stop offset="0.0" stop-color="#e6a25f"/>
      <stop offset="1.0" stop-color="#996c3f"/>
    </radialGradient>
    <radialGradient cx="0" cy="0" gradientTransform="matrix(0.002, 0.0, 0.0, 0.002, -11.45, -36.0)" gradientUnits="userSpaceOnUse" id="gradient66" r="819.2" spreadMethod="pad">
      <stop offset="0.0" stop-color="#a67544"/>
      <stop offset="1.0" stop-color="#261b10"/>
    </radialGradient>
    <radialGradient cx="0" cy="0" gradientTransform="matrix(0.0018, 0.0, 0.0, 0.0018, -10.15, -34.15)" gradientUnits="userSpaceOnUse" id="gradient67" r="819.2" spreadMethod="pad">
      <stop offset="0.0" stop-color="#2e2113"/>
      <stop offset="1.0" stop-color="#261b10"/>
    </radialGradient>
    <radialGradient cx="0" cy="0" gradientTransform="matrix(0.0059, 0.0, 0.0, 0.0059, -7.8, -35.1)" gradientUnits="userSpaceOnUse" id="gradient68" r="819.2" spreadMethod="pad">
      <stop offset="0.0" stop-color="#68614c"/>
      <stop offset="1.0" stop-color="#2a271e"/>
    </radialGradient>
    <radialGradient cx="0" cy="0" gradientTransform="matrix(0.0024, 0.0, 0.0, 0.0024, -5.5, -32.0)" gradientUnits="userSpaceOnUse" id="gradient69" r="819.2" spreadMethod="pad">
      <stop offset="0.0" stop-color="#fff28d"/>
      <stop offset="1.0" stop-color="#dfac64"/>
    </radialGradient>
    <radialGradient cx="0" cy="0" gradientTransform="matrix(0.0033, 0.0, 0.0, 0.0033, -5.75, -31.1)" gradientUnits="userSpaceOnUse" id="gradient70" r="819.2" spreadMethod="pad">
      <stop offset="0.0" stop-color="#6f6850"/>
      <stop offset="1.0" stop-color="#373328"/>
    </radialGradient>
    <radialGradient cx="0" cy="0" gradientTransform="matrix(0.0074, 0.0, 0.0, 0.0074, -1.5, -27.1)" gradientUnits="userSpaceOnUse" id="gradient71" r="819.2" spreadMethod="pad">
      <stop offset="0.0" stop-color="#958888"/>
      <stop offset="1.0" stop-color="#3b3636"/>
    </radialGradient>
    <radialGradient cx="0" cy="0" gradientTransform="matrix(0.0017, 0.0, 0.0, 0.0017, -4.15, -30.15)" gradientUnits="userSpaceOnUse" id="gradient72" r="819.2" spreadMethod="pad">
      <stop offset="0.0" stop-color="#0c0c09"/>
      <stop offset="1.0" stop-color="#0c0c09"/>
    </radialGradient>
    <radialGradient cx="0" cy="0" gradientTransform="matrix(0.0116, 0.0, 0.0, 0.0116, 0.25, -23.45)" gradientUnits="userSpaceOnUse" id="gradient73" r="819.2" spreadMethod="pad">
      <stop offset="0.0" stop-color="#817676"/>
      <stop offset="1.0" stop-color="#595050"/>
    </radialGradient>
    <radialGradient cx="0" cy="0" gradientTransform="matrix(0.0046, 0.0, 0.0, 0.0046, -6.2, -24.7)" gradientUnits="userSpaceOnUse" id="gradient74" r="819.2" spreadMethod="pad">
      <stop offset="0.0" stop-color="#121010"/>
      <stop offset="1.0" stop-color="#121010"/>
    </radialGradient>
    <radialGradient cx="0" cy="0" gradientTransform="matrix(0.015, 0.0, 0.0, 0.015, -0.85, -19.65)" gradientUnits="userSpaceOnUse" id="gradient75" r="819.2" spreadMethod="pad">
      <stop offset="0.0" stop-color="#867a7a"/>
      <stop offset="1.0" stop-color="#585151"/>
    </radialGradient>
    <radialGradient cx="0" cy="0" gradientTransform="matrix(0.0109, 0.0, 0.0, 0.0109, -6.05, -23.5)" gradientUnits="userSpaceOnUse" id="gradient76" r="819.2" spreadMethod="pad">
      <stop offset="0.0" stop-color="#544c4c"/>
      <stop offset="1.0" stop-color="#121010"/>
    </radialGradient>
    <radialGradient cx="0" cy="0" gradientTransform="matrix(0.0034, 0.0, 0.0, 0.0034, -7.6, -14.65)" gradientUnits="userSpaceOnUse" id="gradient77" r="819.2" spreadMethod="pad">
      <stop offset="0.0" stop-color="#0c0c09"/>
      <stop offset="1.0" stop-color="#0c0c09"/>
    </radialGradient>
    <radialGradient cx="0" cy="0" gradientTransform="matrix(0.0051, 0.0, 0.0, 0.0051, -0.3, -16.1)" gradientUnits="userSpaceOnUse" id="gradient78" r="819.2" spreadMethod="pad">
      <stop offset="0.0" stop-color="#121010"/>
      <stop offset="1.0" stop-color="#121010"/>
    </radialGradient>
    <radialGradient cx="0" cy="0" gradientTransform="matrix(0.0028, 0.0, 0.0, 0.0028, -2.45, -4.65)" gradientUnits="userSpaceOnUse" id="gradient79" r="819.2" spreadMethod="pad">
      <stop offset="0.0" stop-color="#ffffff"/>
      <stop offset="1.0" stop-color="#bdbdbd"/>
    </radialGradient>
    <radialGradient cx="0" cy="0" gradientTransform="matrix(0.0024, 0.0, 0.0, 0.0024, -3.2, -8.2)" gradientUnits="userSpaceOnUse" id="gradient80" r="819.2" spreadMethod="pad">
      <stop offset="0.0" stop-color="#b8824b"/>
      <stop offset="1.0" stop-color="#614528"/>
    </radialGradient>
    <radialGradient cx="0" cy="0" gradientTransform="matrix(0.0023, 0.0, 0.0, 0.0023, -1.7, -6.4)" gradientUnits="userSpaceOnUse" id="gradient81" r="819.2" spreadMethod="pad">
      <stop offset="0.0" stop-color="#c88d52"/>
      <stop offset="1.0" stop-color="#b27d49"/>
    </radialGradient>
    <radialGradient cx="0" cy="0" gradientTransform="matrix(0.0031, 0.0, 0.0, 0.0031, -1.75, -8.2)" gradientUnits="userSpaceOnUse" id="gradient82" r="819.2" spreadMethod="pad">
      <stop offset="0.0" stop-color="#c28950"/>
      <stop offset="1.0" stop-color="#624528"/>
    </radialGradient>
    <radialGradient cx="0" cy="0" gradientTransform="matrix(0.0077, 0.0, 0.0, 0.0077, -2.8, -9.2)" gradientUnits="userSpaceOnUse" id="gradient83" r="819.2" spreadMethod="pad">
      <stop offset="0.0" stop-color="#3f3b2e"/>
      <stop offset="1.0" stop-color="#353127"/>
    </radialGradient>
    <radialGradient cx="0" cy="0" gradientTransform="matrix(0.0158, 0.0, 0.0, 0.0158, -1.75, -8.35)" gradientUnits="userSpaceOnUse" id="gradient84" r="819.2" spreadMethod="pad">
      <stop offset="0.0" stop-color="#0c0c09"/>
      <stop offset="1.0" stop-color="#0c0c09"/>
    </radialGradient>
  </defs>
</svg>
