<?xml version="1.0" encoding="UTF-8" standalone="no"?>
<svg xmlns:ffdec="https://www.free-decompiler.com/flash" xmlns:xlink="http://www.w3.org/1999/xlink" ffdec:objectType="shape" height="68.6px" width="31.1px" xmlns="http://www.w3.org/2000/svg">
  <g transform="matrix(1.0, 0.0, 0.0, 1.0, 14.35, 60.05)">
    <path d="M9.8 -59.35 L9.85 -59.5 9.95 -59.65 Q10.4 -60.75 10.4 -59.0 L9.7 -53.85 Q9.6 -56.2 9.25 -56.0 L8.2 -53.35 7.75 -54.85 9.8 -59.35" fill="url(#gradient0)" fill-rule="evenodd" stroke="none"/>
    <path d="M6.15 -59.05 L6.45 -58.55 6.45 -56.8 6.15 -53.9 6.0 -54.1 4.95 -54.25 4.95 -54.4 6.15 -59.05" fill="url(#gradient1)" fill-rule="evenodd" stroke="none"/>
    <path d="M7.75 -54.85 L8.2 -53.35 7.85 -52.25 6.85 -53.75 6.35 -54.1 6.2 -53.25 6.15 -53.75 6.15 -53.9 6.45 -56.8 6.65 -57.35 6.8 -57.3 7.15 -56.7 7.6 -55.35 7.75 -54.85" fill="url(#gradient2)" fill-rule="evenodd" stroke="none"/>
    <path d="M9.8 -59.35 L7.75 -54.85 7.6 -55.35 9.8 -59.35" fill="url(#gradient3)" fill-rule="evenodd" stroke="none"/>
    <path d="M1.25 -54.9 L1.55 -55.1 2.4 -55.1 3.65 -54.85 4.8 -54.65 4.95 -54.4 4.95 -54.25 6.0 -54.1 6.15 -53.9 6.15 -53.75 4.35 -54.05 3.6 -53.5 3.4 -53.55 1.25 -54.9" fill="url(#gradient4)" fill-rule="evenodd" stroke="none"/>
    <path d="M3.65 -54.85 L5.3 -58.05 6.15 -59.05 4.95 -54.4 4.8 -54.65 3.65 -54.85" fill="url(#gradient5)" fill-rule="evenodd" stroke="none"/>
    <path d="M9.5 -50.15 L9.5 -50.1 9.5 -49.8 9.35 -50.15 9.5 -50.15 M0.3 -48.85 L0.25 -49.8 0.6 -50.05 0.85 -50.55 0.7 -51.05 0.9 -51.75 1.4 -52.75 2.65 -53.6 3.4 -53.55 3.6 -53.5 4.35 -54.05 6.15 -53.75 6.2 -53.25 6.3 -52.0 6.2 -51.95 5.85 -51.5 5.35 -51.4 5.45 -50.95 Q2.25 -46.85 6.55 -49.75 L7.2 -49.1 8.2 -48.8 8.1 -48.65 8.5 -48.1 Q9.2 -48.2 9.65 -48.75 L9.7 -48.65 9.65 -48.3 9.25 -47.9 7.7 -47.0 Q9.1 -45.75 3.8 -45.5 L2.35 -46.25 1.7 -46.1 Q1.35 -47.0 0.4 -47.7 L0.4 -48.1 0.35 -48.5 0.3 -48.85 M8.6 -50.9 L8.45 -51.4 8.25 -51.75 8.6 -51.4 8.95 -50.75 8.6 -50.9 M3.5 -45.1 L5.2 -44.85 Q4.5 -44.45 3.5 -45.1" fill="url(#gradient6)" fill-rule="evenodd" stroke="none"/>
    <path d="M2.65 -53.6 L1.25 -54.9 3.4 -53.55 2.65 -53.6" fill="url(#gradient7)" fill-rule="evenodd" stroke="none"/>
    <path d="M9.8 -48.85 L9.8 -48.75 9.7 -48.65 9.65 -48.75 Q9.2 -48.2 8.5 -48.1 L8.1 -48.65 8.2 -48.8 7.2 -49.1 6.55 -49.75 5.45 -50.95 5.35 -51.4 5.85 -51.5 6.95 -51.4 7.85 -51.1 8.55 -50.85 8.6 -50.9 8.95 -50.75 9.35 -50.15 9.5 -49.8 9.8 -48.9 9.8 -48.85" fill="url(#gradient8)" fill-rule="evenodd" stroke="none"/>
    <path d="M8.55 -50.85 L6.8 -53.7 6.35 -54.1 6.85 -53.75 7.85 -52.25 8.0 -52.15 8.15 -51.95 8.25 -51.75 8.45 -51.4 8.6 -50.9 8.55 -50.85" fill="url(#gradient9)" fill-rule="evenodd" stroke="none"/>
    <path d="M6.35 -54.1 L6.8 -53.7 8.55 -50.85 7.85 -51.1 7.85 -51.35 6.4 -51.75 6.3 -51.95 6.3 -52.0 6.2 -53.25 6.35 -54.1" fill="url(#gradient10)" fill-rule="evenodd" stroke="none"/>
    <path d="M5.45 -50.95 L6.55 -49.75 Q2.25 -46.85 5.45 -50.95 M8.15 -51.95 L8.0 -52.15 8.15 -52.15 8.15 -51.95 M6.3 -51.95 L6.4 -51.75 7.85 -51.35 7.85 -51.1 6.95 -51.4 5.85 -51.5 6.2 -51.95 6.3 -51.95" fill="url(#gradient11)" fill-rule="evenodd" stroke="none"/>
    <path d="M6.3 -52.0 L6.3 -51.95 6.2 -51.95 6.3 -52.0" fill="url(#gradient12)" fill-rule="evenodd" stroke="none"/>
    <path d="M8.2 -53.35 L9.25 -56.0 Q9.6 -56.2 9.7 -53.85 L9.85 -50.85 9.85 -50.8 9.9 -50.7 9.5 -50.15 9.35 -50.15 8.95 -50.75 8.6 -51.4 8.25 -51.75 8.15 -51.95 8.15 -52.15 8.0 -52.15 7.85 -52.25 8.2 -53.35" fill="url(#gradient13)" fill-rule="evenodd" stroke="none"/>
    <path d="M9.9 -50.8 L9.9 -50.7 9.85 -50.8 9.9 -50.8" fill="url(#gradient14)" fill-rule="evenodd" stroke="none"/>
    <path d="M9.85 -50.85 L9.9 -50.8 9.85 -50.8 9.85 -50.85" fill="url(#gradient15)" fill-rule="evenodd" stroke="none"/>
    <path d="M9.85 -48.9 L9.8 -48.85 9.8 -48.9 9.85 -48.9 M9.8 -48.75 L9.65 -46.95 8.7 -45.75 7.3 -45.1 5.2 -44.85 3.5 -45.1 3.4 -45.15 2.5 -45.4 2.4 -45.4 2.5 -45.75 1.45 -46.1 1.15 -46.1 0.35 -47.2 0.25 -48.75 0.35 -48.5 0.4 -48.1 0.4 -47.7 Q1.35 -47.0 1.7 -46.1 L2.35 -46.25 3.8 -45.5 Q9.1 -45.75 7.7 -47.0 L8.8 -47.45 9.25 -47.9 9.65 -48.3 9.7 -48.65 9.8 -48.75" fill="url(#gradient16)" fill-rule="evenodd" stroke="none"/>
    <path d="M9.5 -50.1 L9.75 -49.8 9.85 -48.9 9.8 -48.9 9.5 -49.8 9.5 -50.1 M7.7 -47.0 L9.25 -47.9 8.8 -47.45 7.7 -47.0" fill="url(#gradient17)" fill-rule="evenodd" stroke="none"/>
    <path d="M8.7 -45.75 Q7.35 -42.35 4.75 -43.25 L4.7 -43.6 4.3 -44.0 2.5 -45.4 3.4 -45.15 3.5 -45.1 Q4.5 -44.45 5.2 -44.85 L7.3 -45.1 8.7 -45.75" fill="url(#gradient18)" fill-rule="evenodd" stroke="none"/>
    <path d="M4.75 -43.25 L4.55 -42.65 4.4 -41.95 3.15 -41.9 1.2 -42.15 2.4 -45.4 2.5 -45.4 4.3 -44.0 4.7 -43.6 4.75 -43.25 M-0.9 -46.4 L0.35 -47.2 1.15 -46.1 -0.4 -44.85 -1.95 -43.05 -2.05 -44.35 Q-1.75 -45.55 -1.05 -46.25 L-0.9 -46.4 M-1.25 -42.45 L-0.15 -43.8 0.9 -44.7 0.2 -42.35 -0.2 -42.55 Q-0.5 -42.4 -0.75 -42.2 L-1.25 -42.45" fill="url(#gradient19)" fill-rule="evenodd" stroke="none"/>
    <path d="M0.9 -44.7 L1.45 -46.1 2.5 -45.75 2.4 -45.4 1.2 -42.15 0.1 -39.35 Q-1.5 -35.1 -1.3 -33.6 L-2.25 -33.1 -2.4 -33.2 0.2 -42.35 0.9 -44.7" fill="url(#gradient20)" fill-rule="evenodd" stroke="none"/>
    <path d="M1.15 -46.1 L1.45 -46.1 0.9 -44.7 -0.15 -43.8 -1.25 -42.45 -2.05 -41.5 -3.3 -39.35 -4.5 -36.5 -4.95 -34.35 -5.1 -34.2 -5.45 -34.5 -5.55 -34.95 -5.1 -37.4 -4.25 -39.35 -2.6 -42.2 -1.95 -43.05 -0.4 -44.85 1.15 -46.1" fill="url(#gradient21)" fill-rule="evenodd" stroke="none"/>
    <path d="M4.55 -42.65 L5.3 -41.45 5.45 -40.85 5.15 -40.85 4.4 -41.95 4.55 -42.65" fill="url(#gradient22)" fill-rule="evenodd" stroke="none"/>
    <path d="M5.45 -40.85 Q10.15 -38.45 8.3 -31.4 7.95 -36.3 5.9 -36.95 L5.55 -39.35 5.15 -40.85 5.45 -40.85" fill="url(#gradient23)" fill-rule="evenodd" stroke="none"/>
    <path d="M-3.2 -30.65 L-6.05 -34.55 Q-6.8 -37.15 -7.55 -38.4 L-7.7 -40.35 -7.25 -41.0 -7.15 -41.05 -7.1 -41.1 Q-3.55 -47.6 -1.05 -46.25 -1.75 -45.55 -2.05 -44.35 L-1.95 -43.05 -2.6 -42.2 -4.25 -39.35 -5.1 -37.4 -5.55 -34.95 -5.45 -34.5 -5.1 -34.2 -4.95 -34.35 -4.5 -36.5 -3.3 -39.35 -2.05 -41.5 -1.25 -42.45 -0.75 -42.2 Q-0.5 -42.4 -0.2 -42.55 L0.2 -42.35 -2.4 -33.2 -2.25 -33.1 -1.3 -33.6 Q-1.5 -35.1 0.1 -39.35 L1.2 -42.15 3.15 -41.9 4.4 -41.95 5.15 -40.85 5.55 -39.35 5.9 -36.95 Q2.4 -38.1 0.55 -34.2 L0.5 -34.35 0.2 -34.25 Q-1.05 -29.75 0.4 -28.0 L-0.5 -26.95 -0.75 -27.3 Q-1.4 -27.7 -2.55 -30.05 L-3.2 -30.65" fill="url(#gradient24)" fill-rule="evenodd" stroke="none"/>
    <path d="M8.3 -31.4 L8.2 -30.25 Q7.95 -28.95 7.15 -27.9 L7.15 -27.85 6.95 -27.6 6.65 -27.3 6.65 -27.25 5.7 -26.55 4.55 -26.65 1.95 -27.45 1.45 -27.3 1.35 -27.2 1.1 -27.2 1.05 -27.3 0.4 -28.0 Q-1.05 -29.75 0.2 -34.25 L0.5 -34.35 0.55 -34.2 Q2.4 -38.1 5.9 -36.95 7.95 -36.3 8.3 -31.4" fill="url(#gradient25)" fill-rule="evenodd" stroke="none"/>
    <path d="M0.95 -26.75 L1.1 -27.2 1.35 -27.2 0.95 -26.75 M5.7 -26.55 L6.65 -27.25 6.9 -26.3 6.9 -24.4 6.65 -23.35 Q6.1 -20.45 4.0 -18.8 L3.6 -18.85 2.85 -19.25 Q7.15 -21.8 5.7 -26.55 M1.95 -19.25 L2.65 -19.2 2.0 -19.0 1.95 -19.25" fill="url(#gradient26)" fill-rule="evenodd" stroke="none"/>
    <path d="M-0.15 -24.05 L0.1 -25.15 0.95 -26.75 1.35 -27.2 1.45 -27.3 1.95 -27.45 4.55 -26.65 5.7 -26.55 Q7.15 -21.8 2.85 -19.25 L2.8 -19.25 2.7 -19.2 2.65 -19.2 1.95 -19.25 1.15 -19.65 Q0.1 -20.55 0.2 -20.85 L-0.25 -22.65 -0.15 -24.05" fill="url(#gradient27)" fill-rule="evenodd" stroke="none"/>
    <path d="M0.4 -28.0 L1.05 -27.3 1.1 -27.2 0.95 -26.75 0.1 -25.15 -0.15 -24.05 -0.8 -23.5 -1.3 -22.55 -1.4 -23.85 -1.3 -24.55 -1.05 -25.7 -0.5 -26.95 0.4 -28.0" fill="url(#gradient28)" fill-rule="evenodd" stroke="none"/>
    <path d="M-3.5 -29.5 L-3.2 -30.65 -2.55 -30.05 Q-1.4 -27.7 -0.75 -27.3 L-0.5 -26.95 -1.05 -25.7 -1.2 -26.05 -1.65 -26.15 -1.7 -26.7 -1.9 -27.05 -2.45 -27.3 -3.5 -27.95 -3.5 -29.5 M6.65 -27.25 L6.65 -27.3 6.95 -27.6 7.05 -27.3 6.9 -26.3 6.65 -27.25" fill="url(#gradient29)" fill-rule="evenodd" stroke="none"/>
    <path d="M7.15 -27.9 Q7.65 -27.9 9.25 -26.2 L10.35 -24.45 9.65 -25.45 8.55 -26.45 7.65 -27.05 7.15 -27.85 7.15 -27.9" fill="url(#gradient30)" fill-rule="evenodd" stroke="none"/>
    <path d="M-3.7 -29.15 L-3.5 -29.5 -3.5 -27.95 -2.45 -27.3 -1.9 -27.05 -1.7 -26.7 -1.65 -26.15 -1.2 -26.05 -1.05 -25.7 -1.3 -24.55 Q-2.45 -26.6 -3.75 -27.3 L-3.7 -29.15 M6.95 -27.6 L7.15 -27.85 7.65 -27.05 8.15 -25.6 8.05 -24.4 7.85 -23.95 7.5 -23.75 7.15 -24.15 7.1 -23.4 6.65 -23.35 6.9 -24.4 6.9 -26.3 7.05 -27.3 6.95 -27.6" fill="url(#gradient31)" fill-rule="evenodd" stroke="none"/>
    <path d="M10.35 -24.45 L11.35 -22.75 Q12.8 -19.1 12.55 -18.7 L12.6 -17.05 Q12.1 -15.15 11.85 -15.25 L11.3 -14.6 11.15 -14.15 Q9.3 -11.85 5.25 -12.4 L4.5 -13.15 3.9 -13.8 4.4 -15.25 4.55 -16.4 5.95 -16.95 7.1 -18.4 Q7.1 -19.75 7.5 -20.1 L7.3 -21.6 7.35 -22.1 7.95 -22.3 8.2 -24.0 8.05 -24.4 8.15 -25.6 7.65 -27.05 8.55 -26.45 9.65 -25.45 10.35 -24.45" fill="url(#gradient32)" fill-rule="evenodd" stroke="none"/>
    <path d="M6.65 -23.35 L7.1 -23.4 7.15 -24.15 7.5 -23.75 7.85 -23.95 8.05 -24.4 8.2 -24.0 7.95 -22.3 7.35 -22.1 7.3 -21.6 7.5 -20.1 Q7.1 -19.75 7.1 -18.4 L5.95 -16.95 4.55 -16.4 4.5 -17.25 4.0 -18.8 Q6.1 -20.45 6.65 -23.35" fill="url(#gradient33)" fill-rule="evenodd" stroke="none"/>
    <path d="M12.55 -18.7 L13.3 -17.1 14.1 -12.35 14.15 -12.2 14.15 -11.75 14.2 -11.5 14.2 -11.1 14.25 -10.95 14.25 -10.75 13.85 -9.6 13.7 -9.55 13.25 -11.2 13.05 -14.0 11.5 -14.65 11.3 -14.6 11.85 -15.25 Q12.1 -15.15 12.6 -17.05 L12.55 -18.7 M11.15 -14.15 Q9.65 -11.9 11.05 -9.05 L10.75 -6.4 Q7.25 -3.65 2.5 -8.0 7.15 -9.15 5.25 -12.4 9.3 -11.85 11.15 -14.15" fill="url(#gradient34)" fill-rule="evenodd" stroke="none"/>
    <path d="M14.25 -10.75 Q14.4 -7.3 11.8 -5.3 L11.4 -5.2 11.1 -5.05 10.0 -4.65 8.05 -4.05 7.3 -4.15 6.65 -4.25 Q3.4 -4.4 2.15 -7.7 L2.2 -8.05 2.5 -8.0 Q7.25 -3.65 10.75 -6.4 L11.05 -9.05 Q9.65 -11.9 11.15 -14.15 L11.3 -14.6 11.5 -14.65 13.05 -14.0 13.25 -11.2 13.7 -9.55 13.85 -9.6 14.25 -10.75" fill="url(#gradient35)" fill-rule="evenodd" stroke="none"/>
    <path d="M4.0 -18.8 L4.5 -17.25 4.55 -16.4 4.4 -15.25 3.9 -13.8 3.9 -13.1 4.0 -11.7 3.7 -11.3 2.25 -10.65 2.0 -10.65 Q1.4 -11.3 0.9 -11.35 L0.5 -12.35 -0.55 -15.25 -0.65 -16.05 -0.55 -17.8 -0.5 -17.8 0.05 -17.55 2.0 -19.0 2.65 -19.2 2.7 -19.2 2.8 -19.25 2.85 -19.25 3.6 -18.85 4.0 -18.8" fill="url(#gradient36)" fill-rule="evenodd" stroke="none"/>
    <path d="M0.2 -20.85 Q0.1 -20.55 1.15 -19.65 L1.95 -19.25 2.0 -19.0 0.05 -17.55 -0.5 -17.8 -0.55 -17.85 -1.05 -18.8 -1.15 -19.95 -0.75 -19.9 0.2 -20.85" fill="url(#gradient37)" fill-rule="evenodd" stroke="none"/>
    <path d="M2.5 -8.0 L2.2 -8.05 1.1 -8.6 Q-0.7 -10.15 0.5 -12.35 L0.9 -11.35 Q1.4 -11.3 2.0 -10.65 L2.25 -10.65 3.7 -11.3 4.0 -11.7 3.9 -13.1 4.5 -13.15 5.25 -12.4 Q7.15 -9.15 2.5 -8.0" fill="url(#gradient38)" fill-rule="evenodd" stroke="none"/>
    <path d="M3.9 -13.8 L4.5 -13.15 3.9 -13.1 3.9 -13.8" fill="url(#gradient39)" fill-rule="evenodd" stroke="none"/>
    <path d="M2.15 -7.7 Q2.25 -7.0 -0.05 -5.4 L-3.2 -5.5 -4.5 -5.55 -6.9 -6.5 -8.5 -7.7 Q-9.75 -8.65 -9.85 -10.05 L-8.8 -12.9 Q-7.6 -8.75 -4.1 -7.85 L-2.05 -7.55 Q0.0 -7.7 1.1 -8.6 L2.2 -8.05 2.15 -7.7" fill="url(#gradient40)" fill-rule="evenodd" stroke="none"/>
    <path d="M7.6 -3.85 Q8.35 -3.4 9.15 -3.85 L10.0 -4.65 11.1 -5.05 10.9 -4.2 Q10.4 -3.5 9.45 -3.2 L8.5 -3.05 7.7 -3.45 7.6 -3.85" fill="url(#gradient41)" fill-rule="evenodd" stroke="none"/>
    <path d="M7.6 -3.85 L7.7 -3.45 8.5 -3.05 9.45 -3.2 Q10.4 -3.5 10.9 -4.2 L11.1 -5.05 11.4 -5.2 11.6 -4.2 11.05 -3.2 Q8.5 -0.9 7.3 -3.2 L7.3 -4.05 7.6 -3.85" fill="url(#gradient42)" fill-rule="evenodd" stroke="none"/>
    <path d="M10.0 -4.65 L9.15 -3.85 Q8.35 -3.4 7.6 -3.85 L7.3 -4.05 7.3 -4.15 8.05 -4.05 10.0 -4.65" fill="url(#gradient43)" fill-rule="evenodd" stroke="none"/>
    <path d="M11.8 -5.3 L11.9 -5.25 12.0 -5.05 12.45 -4.2 12.6 -3.2 12.4 -1.85 Q9.3 1.0 7.5 -0.95 L7.45 -1.05 7.3 -1.1 6.6 -2.35 6.55 -2.75 6.65 -4.25 7.3 -4.15 7.3 -4.05 7.3 -3.2 Q8.5 -0.9 11.05 -3.2 L11.6 -4.2 11.4 -5.2 11.8 -5.3" fill="url(#gradient44)" fill-rule="evenodd" stroke="none"/>
    <path d="M12.75 1.1 Q6.0 4.45 7.3 -1.1 L7.45 -1.05 7.45 -0.95 Q9.0 2.15 12.0 0.2 L12.6 0.6 12.75 1.1" fill="url(#gradient45)" fill-rule="evenodd" stroke="none"/>
    <path d="M7.45 -0.95 L7.45 -1.05 7.5 -0.95 7.45 -0.95" fill="url(#gradient46)" fill-rule="evenodd" stroke="none"/>
    <path d="M7.45 -0.95 L7.5 -0.95 Q9.3 1.0 12.4 -1.85 L12.25 -0.65 12.0 0.2 Q9.0 2.15 7.45 -0.95" fill="url(#gradient47)" fill-rule="evenodd" stroke="none"/>
    <path d="M11.9 -5.25 Q15.3 -6.55 16.45 -4.25 17.4 -1.9 15.4 -0.4 15.3 -1.65 14.9 -2.35 L14.35 -3.2 13.2 -4.4 12.0 -5.05 11.9 -5.25" fill="url(#gradient48)" fill-rule="evenodd" stroke="none"/>
    <path d="M15.4 -0.4 L15.2 -0.1 12.75 1.1 12.6 0.6 12.0 0.2 12.25 -0.65 12.4 -1.85 12.6 -3.2 12.45 -4.2 12.0 -5.05 13.2 -4.4 14.35 -3.2 14.9 -2.35 Q15.3 -1.65 15.4 -0.4" fill="url(#gradient49)" fill-rule="evenodd" stroke="none"/>
    <path d="M0.25 -49.8 L-0.6 -49.9 0.85 -50.55 0.6 -50.05 0.25 -49.8" fill="url(#gradient50)" fill-rule="evenodd" stroke="none"/>
    <path d="M-0.6 -49.9 L-0.65 -50.15 -0.45 -50.45 0.9 -51.75 0.7 -51.05 0.85 -50.55 -0.6 -49.9" fill="url(#gradient51)" fill-rule="evenodd" stroke="none"/>
    <path d="M0.25 -48.75 L0.3 -48.85 0.35 -48.5 0.25 -48.75" fill="url(#gradient52)" fill-rule="evenodd" stroke="none"/>
    <path d="M-7.25 -41.0 Q-9.3 -43.45 -6.65 -46.65 -4.4 -48.8 -0.9 -46.4 L-1.05 -46.25 Q-3.55 -47.6 -7.1 -41.1 L-7.15 -41.05 -7.25 -41.0" fill="url(#gradient53)" fill-rule="evenodd" stroke="none"/>
    <path d="M-6.85 -20.85 L-6.85 -20.9 -6.8 -21.05 -6.55 -22.8 -5.45 -25.8 -5.05 -26.45 -5.0 -26.35 Q-5.5 -23.35 -4.05 -21.85 L-3.5 -21.25 -2.2 -20.35 -1.15 -20.0 -1.15 -19.95 -1.05 -18.8 -0.55 -17.85 -0.55 -17.8 -0.65 -16.05 Q-7.25 -16.65 -6.85 -20.85" fill="url(#gradient54)" fill-rule="evenodd" stroke="none"/>
    <path d="M-4.95 -26.65 L-4.75 -27.4 -4.05 -28.85 -3.7 -29.15 -3.75 -27.3 Q-2.45 -26.6 -1.3 -24.55 L-1.4 -23.85 -1.3 -22.55 -1.45 -21.25 -1.15 -20.0 -2.2 -20.35 -3.5 -21.25 -4.05 -21.85 Q-5.5 -23.35 -5.0 -26.35 L-4.95 -26.65" fill="url(#gradient55)" fill-rule="evenodd" stroke="none"/>
    <path d="M-5.05 -26.45 L-4.95 -26.65 -5.0 -26.35 -5.05 -26.45" fill="url(#gradient56)" fill-rule="evenodd" stroke="none"/>
    <path d="M-1.3 -22.55 L-0.8 -23.5 -0.15 -24.05 -0.25 -22.65 0.2 -20.85 -0.75 -19.9 -1.15 -19.95 -1.15 -20.0 -1.45 -21.25 -1.3 -22.55" fill="url(#gradient57)" fill-rule="evenodd" stroke="none"/>
    <path d="M-0.55 -17.85 L-0.5 -17.8 -0.55 -17.8 -0.55 -17.85" fill="url(#gradient58)" fill-rule="evenodd" stroke="none"/>
    <path d="M-6.9 -20.85 L-6.85 -20.85 -6.9 -20.85" fill="url(#gradient59)" fill-rule="evenodd" stroke="none"/>
    <path d="M-8.8 -12.9 L-7.5 -19.45 -6.9 -20.85 -6.85 -20.85 Q-7.25 -16.65 -0.65 -16.05 L-0.55 -15.25 0.5 -12.35 Q-0.7 -10.15 1.1 -8.6 0.0 -7.7 -2.05 -7.55 L-4.1 -7.85 Q-7.6 -8.75 -8.8 -12.9" fill="url(#gradient60)" fill-rule="evenodd" stroke="none"/>
    <path d="M-6.35 -0.8 L-6.3 -0.15 -6.3 -0.1 -6.25 -0.05 Q-5.75 1.3 -9.2 0.85 -11.55 -0.95 -9.9 -1.75 L-9.45 -2.05 Q-9.45 0.7 -6.35 -0.8" fill="url(#gradient61)" fill-rule="evenodd" stroke="none"/>
    <path d="M-5.5 -2.55 L-6.35 -0.8 Q-9.45 0.7 -9.45 -2.05 L-9.15 -2.6 -9.0 -2.35 -8.65 -2.4 -8.15 -2.75 Q-8.15 -0.3 -5.5 -2.55" fill="url(#gradient62)" fill-rule="evenodd" stroke="none"/>
    <path d="M-6.25 -0.05 L-5.85 0.95 -5.85 1.75 -6.05 2.35 -6.8 3.45 -7.3 3.7 Q-8.45 5.05 -12.1 1.6 -12.45 -0.9 -9.9 -1.75 -11.55 -0.95 -9.2 0.85 -5.75 1.3 -6.25 -0.05" fill="url(#gradient63)" fill-rule="evenodd" stroke="none"/>
    <path d="M-3.2 -5.5 L-3.9 -4.4 -5.5 -2.55 Q-8.15 -0.3 -8.15 -2.75 L-8.05 -3.2 -7.3 -5.8 -6.9 -6.5 -4.5 -5.55 -3.2 -5.5" fill="url(#gradient64)" fill-rule="evenodd" stroke="none"/>
    <path d="M-9.15 -2.6 Q-9.85 -3.9 -8.5 -7.7 L-6.9 -6.5 -7.3 -5.8 -8.05 -3.2 -8.15 -2.75 -8.65 -2.4 -9.0 -2.35 -9.15 -2.6" fill="url(#gradient65)" fill-rule="evenodd" stroke="none"/>
    <path d="M-8.9 8.35 Q-10.45 8.85 -13.95 6.15 -15.1 5.2 -13.1 3.8 -10.65 5.55 -10.35 6.05 L-9.85 6.3 -9.65 6.55 -9.3 6.5 -9.05 6.75 -8.7 6.4 -8.65 7.45 -8.9 8.35" fill="url(#gradient66)" fill-rule="evenodd" stroke="none"/>
    <path d="M-13.1 3.8 L-12.1 1.6 Q-8.45 5.05 -7.3 3.7 L-8.3 5.9 -8.7 6.4 -9.05 6.75 -9.3 6.5 -9.65 6.55 -9.85 6.3 -10.35 6.05 Q-10.65 5.55 -13.1 3.8" fill="url(#gradient67)" fill-rule="evenodd" stroke="none"/>
    <path d="M-5.85 1.75 Q-1.95 4.2 -6.5 7.8 L-6.2 6.3 -6.35 6.05 Q-6.4 3.65 -6.8 3.45 L-6.05 2.35 -5.85 1.75" fill="url(#gradient68)" fill-rule="evenodd" stroke="none"/>
    <path d="M-6.5 7.8 Q-6.6 8.95 -8.9 8.35 L-8.65 7.45 -8.7 6.4 -8.3 5.9 -7.3 3.7 -6.8 3.45 Q-6.4 3.65 -6.35 6.05 L-6.2 6.3 -6.5 7.8" fill="url(#gradient69)" fill-rule="evenodd" stroke="none"/>
  </g>
  <defs>
    <radialGradient cx="0" cy="0" gradientTransform="matrix(0.0093, 0.0, 0.0, 0.0093, 7.25, -53.1)" gradientUnits="userSpaceOnUse" id="gradient0" r="819.2" spreadMethod="pad">
      <stop offset="0.0" stop-color="#ef3535"/>
      <stop offset="1.0" stop-color="#e73333"/>
    </radialGradient>
    <radialGradient cx="0" cy="0" gradientTransform="matrix(0.0072, 0.0, 0.0, 0.0072, 4.65, -53.4)" gradientUnits="userSpaceOnUse" id="gradient1" r="819.2" spreadMethod="pad">
      <stop offset="0.0" stop-color="#b22727"/>
      <stop offset="1.0" stop-color="#a92525"/>
    </radialGradient>
    <radialGradient cx="0" cy="0" gradientTransform="matrix(0.0078, 0.0, 0.0, 0.0078, 6.6, -57.4)" gradientUnits="userSpaceOnUse" id="gradient2" r="819.2" spreadMethod="pad">
      <stop offset="0.0" stop-color="#cd2d2d"/>
      <stop offset="1.0" stop-color="#bc2a2a"/>
    </radialGradient>
    <radialGradient cx="0" cy="0" gradientTransform="matrix(0.0051, 0.0, 0.0, 0.0051, 8.35, -56.4)" gradientUnits="userSpaceOnUse" id="gradient3" r="819.2" spreadMethod="pad">
      <stop offset="0.0" stop-color="#9e2323"/>
      <stop offset="1.0" stop-color="#912020"/>
    </radialGradient>
    <radialGradient cx="0" cy="0" gradientTransform="matrix(0.0063, 0.0, 0.0, 0.0063, 6.15, -53.9)" gradientUnits="userSpaceOnUse" id="gradient4" r="819.2" spreadMethod="pad">
      <stop offset="0.0" stop-color="#cd2d2d"/>
      <stop offset="1.0" stop-color="#bc2a2a"/>
    </radialGradient>
    <radialGradient cx="0" cy="0" gradientTransform="matrix(0.006, 0.0, 0.0, 0.006, 6.0, -58.5)" gradientUnits="userSpaceOnUse" id="gradient5" r="819.2" spreadMethod="pad">
      <stop offset="0.0" stop-color="#b72929"/>
      <stop offset="1.0" stop-color="#b52828"/>
    </radialGradient>
    <radialGradient cx="0" cy="0" gradientTransform="matrix(0.0063, 0.0, 0.0, 0.0063, 4.95, -49.35)" gradientUnits="userSpaceOnUse" id="gradient6" r="819.2" spreadMethod="pad">
      <stop offset="0.0" stop-color="#f23636"/>
      <stop offset="1.0" stop-color="#7e1c1c"/>
    </radialGradient>
    <radialGradient cx="0" cy="0" gradientTransform="matrix(0.0035, 0.0, 0.0, 0.0035, 1.2, -55.1)" gradientUnits="userSpaceOnUse" id="gradient7" r="819.2" spreadMethod="pad">
      <stop offset="0.0" stop-color="#6a1717"/>
      <stop offset="1.0" stop-color="#5a1414"/>
    </radialGradient>
    <radialGradient cx="0" cy="0" gradientTransform="matrix(0.0056, 0.0, 0.0, 0.0056, 9.25, -49.2)" gradientUnits="userSpaceOnUse" id="gradient8" r="819.2" spreadMethod="pad">
      <stop offset="0.0" stop-color="#b72929"/>
      <stop offset="1.0" stop-color="#992222"/>
    </radialGradient>
    <radialGradient cx="0" cy="0" gradientTransform="matrix(0.0054, 0.0, 0.0, 0.0054, 8.7, -50.5)" gradientUnits="userSpaceOnUse" id="gradient9" r="819.2" spreadMethod="pad">
      <stop offset="0.0" stop-color="#9f2323"/>
      <stop offset="1.0" stop-color="#891e1e"/>
    </radialGradient>
    <radialGradient cx="0" cy="0" gradientTransform="matrix(0.0056, 0.0, 0.0, 0.0056, 6.25, -54.2)" gradientUnits="userSpaceOnUse" id="gradient10" r="819.2" spreadMethod="pad">
      <stop offset="0.0" stop-color="#a42424"/>
      <stop offset="1.0" stop-color="#962121"/>
    </radialGradient>
    <radialGradient cx="0" cy="0" gradientTransform="matrix(0.0057, 0.0, 0.0, 0.0057, 7.75, -51.6)" gradientUnits="userSpaceOnUse" id="gradient11" r="819.2" spreadMethod="pad">
      <stop offset="0.0" stop-color="#df3232"/>
      <stop offset="1.0" stop-color="#d42f2f"/>
    </radialGradient>
    <radialGradient cx="0" cy="0" gradientTransform="matrix(0.0012, 0.0, 0.0, 0.0012, 6.15, -52.8)" gradientUnits="userSpaceOnUse" id="gradient12" r="819.2" spreadMethod="pad">
      <stop offset="0.0" stop-color="#1f0707"/>
      <stop offset="1.0" stop-color="#1f0707"/>
    </radialGradient>
    <radialGradient cx="0" cy="0" gradientTransform="matrix(0.0072, 0.0, 0.0, 0.0072, 8.85, -50.25)" gradientUnits="userSpaceOnUse" id="gradient13" r="819.2" spreadMethod="pad">
      <stop offset="0.0" stop-color="#d73030"/>
      <stop offset="1.0" stop-color="#c82c2c"/>
    </radialGradient>
    <radialGradient cx="0" cy="0" gradientTransform="matrix(0.002, 0.0, 0.0, 0.002, 9.8, -50.8)" gradientUnits="userSpaceOnUse" id="gradient14" r="819.2" spreadMethod="pad">
      <stop offset="0.0" stop-color="#952121"/>
      <stop offset="1.0" stop-color="#902020"/>
    </radialGradient>
    <radialGradient cx="0" cy="0" gradientTransform="matrix(6.0E-4, 0.0, 0.0, 6.0E-4, 9.85, -50.8)" gradientUnits="userSpaceOnUse" id="gradient15" r="819.2" spreadMethod="pad">
      <stop offset="0.0" stop-color="#922121"/>
      <stop offset="1.0" stop-color="#871e1e"/>
    </radialGradient>
    <radialGradient cx="0" cy="0" gradientTransform="matrix(0.0078, 0.0, 0.0, 0.0078, 5.5, -45.65)" gradientUnits="userSpaceOnUse" id="gradient16" r="819.2" spreadMethod="pad">
      <stop offset="0.0" stop-color="#cecece"/>
      <stop offset="1.0" stop-color="#a1a1a1"/>
    </radialGradient>
    <radialGradient cx="0" cy="0" gradientTransform="matrix(0.0052, 0.0, 0.0, 0.0052, 7.2, -46.95)" gradientUnits="userSpaceOnUse" id="gradient17" r="819.2" spreadMethod="pad">
      <stop offset="0.0" stop-color="#aeaeae"/>
      <stop offset="1.0" stop-color="#aaaaaa"/>
    </radialGradient>
    <radialGradient cx="0" cy="0" gradientTransform="matrix(0.004, 0.0, 0.0, 0.004, 5.55, -45.5)" gradientUnits="userSpaceOnUse" id="gradient18" r="819.2" spreadMethod="pad">
      <stop offset="0.0" stop-color="#c88d52"/>
      <stop offset="1.0" stop-color="#8a6239"/>
    </radialGradient>
    <radialGradient cx="0" cy="0" gradientTransform="matrix(0.0057, 0.0, 0.0, 0.0057, 1.4, -45.0)" gradientUnits="userSpaceOnUse" id="gradient19" r="819.2" spreadMethod="pad">
      <stop offset="0.0" stop-color="#ffd87e"/>
      <stop offset="1.0" stop-color="#c98d53"/>
    </radialGradient>
    <radialGradient cx="0" cy="0" gradientTransform="matrix(0.0098, 0.0, 0.0, 0.0098, 0.1, -40.85)" gradientUnits="userSpaceOnUse" id="gradient20" r="819.2" spreadMethod="pad">
      <stop offset="0.0" stop-color="#ffffff"/>
      <stop offset="1.0" stop-color="#d8d8d8"/>
    </radialGradient>
    <radialGradient cx="0" cy="0" gradientTransform="matrix(0.0155, 0.0, 0.0, 0.0155, 0.9, -45.45)" gradientUnits="userSpaceOnUse" id="gradient21" r="819.2" spreadMethod="pad">
      <stop offset="0.0" stop-color="#ffffff"/>
      <stop offset="1.0" stop-color="#cccccc"/>
    </radialGradient>
    <radialGradient cx="0" cy="0" gradientTransform="matrix(0.0032, 0.0, 0.0, 0.0032, 3.65, -42.35)" gradientUnits="userSpaceOnUse" id="gradient22" r="819.2" spreadMethod="pad">
      <stop offset="0.0" stop-color="#feb368"/>
      <stop offset="1.0" stop-color="#c1884f"/>
    </radialGradient>
    <radialGradient cx="0" cy="0" gradientTransform="matrix(0.0067, 0.0, 0.0, 0.0067, 5.5, -36.2)" gradientUnits="userSpaceOnUse" id="gradient23" r="819.2" spreadMethod="pad">
      <stop offset="0.0" stop-color="#ffd97f"/>
      <stop offset="1.0" stop-color="#ae7a47"/>
    </radialGradient>
    <radialGradient cx="0" cy="0" gradientTransform="matrix(0.0132, 0.0, 0.0, 0.0132, 0.6, -36.0)" gradientUnits="userSpaceOnUse" id="gradient24" r="819.2" spreadMethod="pad">
      <stop offset="0.0" stop-color="#ffd77d"/>
      <stop offset="1.0" stop-color="#a67544"/>
    </radialGradient>
    <radialGradient cx="0" cy="0" gradientTransform="matrix(0.0085, 0.0, 0.0, 0.0085, 4.3, -33.25)" gradientUnits="userSpaceOnUse" id="gradient25" r="819.2" spreadMethod="pad">
      <stop offset="0.0" stop-color="#ffd57c"/>
      <stop offset="1.0" stop-color="#b17d49"/>
    </radialGradient>
    <radialGradient cx="0" cy="0" gradientTransform="matrix(0.0104, 0.0, 0.0, 0.0104, 1.3, -26.65)" gradientUnits="userSpaceOnUse" id="gradient26" r="819.2" spreadMethod="pad">
      <stop offset="0.0" stop-color="#ffc170"/>
      <stop offset="1.0" stop-color="#8b6239"/>
    </radialGradient>
    <radialGradient cx="0" cy="0" gradientTransform="matrix(0.0092, 0.0, 0.0, 0.0092, 2.75, -26.85)" gradientUnits="userSpaceOnUse" id="gradient27" r="819.2" spreadMethod="pad">
      <stop offset="0.0" stop-color="#ffd77d"/>
      <stop offset="1.0" stop-color="#96693e"/>
    </radialGradient>
    <radialGradient cx="0" cy="0" gradientTransform="matrix(0.0073, 0.0, 0.0, 0.0073, 1.25, -27.05)" gradientUnits="userSpaceOnUse" id="gradient28" r="819.2" spreadMethod="pad">
      <stop offset="0.0" stop-color="#ffd97e"/>
      <stop offset="1.0" stop-color="#c48a50"/>
    </radialGradient>
    <radialGradient cx="0" cy="0" gradientTransform="matrix(0.0119, 0.0, 0.0, 0.0119, -2.65, -27.95)" gradientUnits="userSpaceOnUse" id="gradient29" r="819.2" spreadMethod="pad">
      <stop offset="0.0" stop-color="#ffffff"/>
      <stop offset="1.0" stop-color="#9f9f9f"/>
    </radialGradient>
    <radialGradient cx="0" cy="0" gradientTransform="matrix(0.0069, 0.0, 0.0, 0.0069, 7.0, -27.45)" gradientUnits="userSpaceOnUse" id="gradient30" r="819.2" spreadMethod="pad">
      <stop offset="0.0" stop-color="#57513f"/>
      <stop offset="1.0" stop-color="#363327"/>
    </radialGradient>
    <radialGradient cx="0" cy="0" gradientTransform="matrix(0.0116, 0.0, 0.0, 0.0116, 0.65, -29.8)" gradientUnits="userSpaceOnUse" id="gradient31" r="819.2" spreadMethod="pad">
      <stop offset="0.0" stop-color="#625c47"/>
      <stop offset="1.0" stop-color="#373428"/>
    </radialGradient>
    <radialGradient cx="0" cy="0" gradientTransform="matrix(0.0144, 0.0, 0.0, 0.0144, 6.65, -23.4)" gradientUnits="userSpaceOnUse" id="gradient32" r="819.2" spreadMethod="pad">
      <stop offset="0.0" stop-color="#9b8d8d"/>
      <stop offset="1.0" stop-color="#574f4f"/>
    </radialGradient>
    <radialGradient cx="0" cy="0" gradientTransform="matrix(0.007, 0.0, 0.0, 0.007, 4.15, -20.85)" gradientUnits="userSpaceOnUse" id="gradient33" r="819.2" spreadMethod="pad">
      <stop offset="0.0" stop-color="#796e6e"/>
      <stop offset="1.0" stop-color="#5d5555"/>
    </radialGradient>
    <radialGradient cx="0" cy="0" gradientTransform="matrix(0.012, 0.0, 0.0, 0.012, 7.3, -14.05)" gradientUnits="userSpaceOnUse" id="gradient34" r="819.2" spreadMethod="pad">
      <stop offset="0.0" stop-color="#726868"/>
      <stop offset="1.0" stop-color="#494242"/>
    </radialGradient>
    <radialGradient cx="0" cy="0" gradientTransform="matrix(0.0147, 0.0, 0.0, 0.0147, 11.3, -14.75)" gradientUnits="userSpaceOnUse" id="gradient35" r="819.2" spreadMethod="pad">
      <stop offset="0.0" stop-color="#3f3a2d"/>
      <stop offset="1.0" stop-color="#2f2c23"/>
    </radialGradient>
    <radialGradient cx="0" cy="0" gradientTransform="matrix(0.0096, 0.0, 0.0, 0.0096, 1.5, -18.3)" gradientUnits="userSpaceOnUse" id="gradient36" r="819.2" spreadMethod="pad">
      <stop offset="0.0" stop-color="#5e5844"/>
      <stop offset="1.0" stop-color="#2d2a20"/>
    </radialGradient>
    <radialGradient cx="0" cy="0" gradientTransform="matrix(0.0047, 0.0, 0.0, 0.0047, 0.0, -21.35)" gradientUnits="userSpaceOnUse" id="gradient37" r="819.2" spreadMethod="pad">
      <stop offset="0.0" stop-color="#ffcd78"/>
      <stop offset="1.0" stop-color="#986b3f"/>
    </radialGradient>
    <radialGradient cx="0" cy="0" gradientTransform="matrix(0.0041, 0.0, 0.0, 0.0041, 2.95, -11.45)" gradientUnits="userSpaceOnUse" id="gradient38" r="819.2" spreadMethod="pad">
      <stop offset="0.0" stop-color="#6b644d"/>
      <stop offset="1.0" stop-color="#333025"/>
    </radialGradient>
    <radialGradient cx="0" cy="0" gradientTransform="matrix(9.0E-4, 0.0, 0.0, 9.0E-4, 3.75, -13.2)" gradientUnits="userSpaceOnUse" id="gradient39" r="819.2" spreadMethod="pad">
      <stop offset="0.0" stop-color="#df9d5b"/>
      <stop offset="1.0" stop-color="#a57544"/>
    </radialGradient>
    <radialGradient cx="0" cy="0" gradientTransform="matrix(0.0127, 0.0, 0.0, 0.0127, -6.65, -6.45)" gradientUnits="userSpaceOnUse" id="gradient40" r="819.2" spreadMethod="pad">
      <stop offset="0.0" stop-color="#635d48"/>
      <stop offset="1.0" stop-color="#3e3a2d"/>
    </radialGradient>
    <radialGradient cx="0" cy="0" gradientTransform="matrix(0.0043, 0.0, 0.0, 0.0043, 10.6, -5.55)" gradientUnits="userSpaceOnUse" id="gradient41" r="819.2" spreadMethod="pad">
      <stop offset="0.0" stop-color="#9f7041"/>
      <stop offset="1.0" stop-color="#92673c"/>
    </radialGradient>
    <radialGradient cx="0" cy="0" gradientTransform="matrix(0.0054, 0.0, 0.0, 0.0054, 10.7, -5.25)" gradientUnits="userSpaceOnUse" id="gradient42" r="819.2" spreadMethod="pad">
      <stop offset="0.0" stop-color="#ffffff"/>
      <stop offset="1.0" stop-color="#959595"/>
    </radialGradient>
    <radialGradient cx="0" cy="0" gradientTransform="matrix(0.0038, 0.0, 0.0, 0.0038, 10.05, -5.3)" gradientUnits="userSpaceOnUse" id="gradient43" r="819.2" spreadMethod="pad">
      <stop offset="0.0" stop-color="#7f5934"/>
      <stop offset="1.0" stop-color="#5e4226"/>
    </radialGradient>
    <radialGradient cx="0" cy="0" gradientTransform="matrix(0.005, 0.0, 0.0, 0.005, 9.95, -2.15)" gradientUnits="userSpaceOnUse" id="gradient44" r="819.2" spreadMethod="pad">
      <stop offset="0.0" stop-color="#756e55"/>
      <stop offset="1.0" stop-color="#3c382b"/>
    </radialGradient>
    <radialGradient cx="0" cy="0" gradientTransform="matrix(0.0057, 0.0, 0.0, 0.0057, 8.4, -0.6)" gradientUnits="userSpaceOnUse" id="gradient45" r="819.2" spreadMethod="pad">
      <stop offset="0.0" stop-color="#67604b"/>
      <stop offset="1.0" stop-color="#403b2e"/>
    </radialGradient>
    <radialGradient cx="0" cy="0" gradientTransform="matrix(0.0034, 0.0, 0.0, 0.0034, 6.45, -3.15)" gradientUnits="userSpaceOnUse" id="gradient46" r="819.2" spreadMethod="pad">
      <stop offset="0.0" stop-color="#0c0c09"/>
      <stop offset="1.0" stop-color="#0c0c09"/>
    </radialGradient>
    <radialGradient cx="0" cy="0" gradientTransform="matrix(0.0058, 0.0, 0.0, 0.0058, 12.0, -1.7)" gradientUnits="userSpaceOnUse" id="gradient47" r="819.2" spreadMethod="pad">
      <stop offset="0.0" stop-color="#821d1d"/>
      <stop offset="1.0" stop-color="#731919"/>
    </radialGradient>
    <radialGradient cx="0" cy="0" gradientTransform="matrix(0.0044, 0.0, 0.0, 0.0044, 13.75, -3.75)" gradientUnits="userSpaceOnUse" id="gradient48" r="819.2" spreadMethod="pad">
      <stop offset="0.0" stop-color="#6f6851"/>
      <stop offset="1.0" stop-color="#3b382b"/>
    </radialGradient>
    <radialGradient cx="0" cy="0" gradientTransform="matrix(0.0055, 0.0, 0.0, 0.0055, 14.35, -3.1)" gradientUnits="userSpaceOnUse" id="gradient49" r="819.2" spreadMethod="pad">
      <stop offset="0.0" stop-color="#ff3939"/>
      <stop offset="1.0" stop-color="#b32727"/>
    </radialGradient>
    <radialGradient cx="0" cy="0" gradientTransform="matrix(0.003, 0.0, 0.0, 0.003, 1.55, -51.05)" gradientUnits="userSpaceOnUse" id="gradient50" r="819.2" spreadMethod="pad">
      <stop offset="0.0" stop-color="#a42424"/>
      <stop offset="1.0" stop-color="#922121"/>
    </radialGradient>
    <radialGradient cx="0" cy="0" gradientTransform="matrix(0.0024, 0.0, 0.0, 0.0024, 0.6, -50.6)" gradientUnits="userSpaceOnUse" id="gradient51" r="819.2" spreadMethod="pad">
      <stop offset="0.0" stop-color="#a42424"/>
      <stop offset="1.0" stop-color="#922020"/>
    </radialGradient>
    <radialGradient cx="0" cy="0" gradientTransform="matrix(0.0064, 0.0, 0.0, 0.0064, 0.15, -50.15)" gradientUnits="userSpaceOnUse" id="gradient52" r="819.2" spreadMethod="pad">
      <stop offset="0.0" stop-color="#1f0707"/>
      <stop offset="1.0" stop-color="#1f0707"/>
    </radialGradient>
    <radialGradient cx="0" cy="0" gradientTransform="matrix(0.0053, 0.0, 0.0, 0.0053, -4.55, -44.25)" gradientUnits="userSpaceOnUse" id="gradient53" r="819.2" spreadMethod="pad">
      <stop offset="0.0" stop-color="#ffdf82"/>
      <stop offset="1.0" stop-color="#ab7946"/>
    </radialGradient>
    <radialGradient cx="0" cy="0" gradientTransform="matrix(0.0098, 0.0, 0.0, 0.0098, 0.0, -21.75)" gradientUnits="userSpaceOnUse" id="gradient54" r="819.2" spreadMethod="pad">
      <stop offset="0.0" stop-color="#877b7b"/>
      <stop offset="1.0" stop-color="#615959"/>
    </radialGradient>
    <radialGradient cx="0" cy="0" gradientTransform="matrix(0.0073, 0.0, 0.0, 0.0073, -1.2, -25.65)" gradientUnits="userSpaceOnUse" id="gradient55" r="819.2" spreadMethod="pad">
      <stop offset="0.0" stop-color="#958888"/>
      <stop offset="1.0" stop-color="#403a3a"/>
    </radialGradient>
    <radialGradient cx="0" cy="0" gradientTransform="matrix(0.0065, 0.0, 0.0, 0.0065, -4.9, -27.3)" gradientUnits="userSpaceOnUse" id="gradient56" r="819.2" spreadMethod="pad">
      <stop offset="0.0" stop-color="#4d4646"/>
      <stop offset="1.0" stop-color="#2d2929"/>
    </radialGradient>
    <radialGradient cx="0" cy="0" gradientTransform="matrix(0.0048, 0.0, 0.0, 0.0048, -0.15, -23.65)" gradientUnits="userSpaceOnUse" id="gradient57" r="819.2" spreadMethod="pad">
      <stop offset="0.0" stop-color="#ffd97e"/>
      <stop offset="1.0" stop-color="#bd854e"/>
    </radialGradient>
    <radialGradient cx="0" cy="0" gradientTransform="matrix(0.0027, 0.0, 0.0, 0.0027, -0.7, -18.1)" gradientUnits="userSpaceOnUse" id="gradient58" r="819.2" spreadMethod="pad">
      <stop offset="0.0" stop-color="#261b10"/>
      <stop offset="1.0" stop-color="#261b10"/>
    </radialGradient>
    <radialGradient cx="0" cy="0" gradientTransform="matrix(0.0068, 0.0, 0.0, 0.0068, -6.6, -22.8)" gradientUnits="userSpaceOnUse" id="gradient59" r="819.2" spreadMethod="pad">
      <stop offset="0.0" stop-color="#121010"/>
      <stop offset="1.0" stop-color="#121010"/>
    </radialGradient>
    <radialGradient cx="0" cy="0" gradientTransform="matrix(0.02, 0.0, 0.0, 0.02, -6.65, -6.55)" gradientUnits="userSpaceOnUse" id="gradient60" r="819.2" spreadMethod="pad">
      <stop offset="0.0" stop-color="#908383"/>
      <stop offset="1.0" stop-color="#595252"/>
    </radialGradient>
    <radialGradient cx="0" cy="0" gradientTransform="matrix(0.0036, 0.0, 0.0, 0.0036, -8.9, 0.5)" gradientUnits="userSpaceOnUse" id="gradient61" r="819.2" spreadMethod="pad">
      <stop offset="0.0" stop-color="#ffffff"/>
      <stop offset="1.0" stop-color="#b0b0b0"/>
    </radialGradient>
    <radialGradient cx="0" cy="0" gradientTransform="matrix(0.0044, 0.0, 0.0, 0.0044, -7.65, -2.8)" gradientUnits="userSpaceOnUse" id="gradient62" r="819.2" spreadMethod="pad">
      <stop offset="0.0" stop-color="#ffd079"/>
      <stop offset="1.0" stop-color="#bf874e"/>
    </radialGradient>
    <radialGradient cx="0" cy="0" gradientTransform="matrix(0.004, 0.0, 0.0, 0.004, -9.2, 1.25)" gradientUnits="userSpaceOnUse" id="gradient63" r="819.2" spreadMethod="pad">
      <stop offset="0.0" stop-color="#736b53"/>
      <stop offset="1.0" stop-color="#3a362a"/>
    </radialGradient>
    <radialGradient cx="0" cy="0" gradientTransform="matrix(0.0077, 0.0, 0.0, 0.0077, -5.25, -7.35)" gradientUnits="userSpaceOnUse" id="gradient64" r="819.2" spreadMethod="pad">
      <stop offset="0.0" stop-color="#ffde81"/>
      <stop offset="1.0" stop-color="#745230"/>
    </radialGradient>
    <radialGradient cx="0" cy="0" gradientTransform="matrix(0.0079, 0.0, 0.0, 0.0079, -6.8, -8.4)" gradientUnits="userSpaceOnUse" id="gradient65" r="819.2" spreadMethod="pad">
      <stop offset="0.0" stop-color="#ffe183"/>
      <stop offset="1.0" stop-color="#986c3e"/>
    </radialGradient>
    <radialGradient cx="0" cy="0" gradientTransform="matrix(0.0047, 0.0, 0.0, 0.0047, -11.05, 5.0)" gradientUnits="userSpaceOnUse" id="gradient66" r="819.2" spreadMethod="pad">
      <stop offset="0.0" stop-color="#746c54"/>
      <stop offset="1.0" stop-color="#4c4738"/>
    </radialGradient>
    <radialGradient cx="0" cy="0" gradientTransform="matrix(0.0062, 0.0, 0.0, 0.0062, -9.75, 2.4)" gradientUnits="userSpaceOnUse" id="gradient67" r="819.2" spreadMethod="pad">
      <stop offset="0.0" stop-color="#e53333"/>
      <stop offset="1.0" stop-color="#ab2626"/>
    </radialGradient>
    <radialGradient cx="0" cy="0" gradientTransform="matrix(0.0053, 0.0, 0.0, 0.0053, -7.35, 3.7)" gradientUnits="userSpaceOnUse" id="gradient68" r="819.2" spreadMethod="pad">
      <stop offset="0.0" stop-color="#726b53"/>
      <stop offset="1.0" stop-color="#433e31"/>
    </radialGradient>
    <radialGradient cx="0" cy="0" gradientTransform="matrix(0.0057, 0.0, 0.0, 0.0057, -6.5, 4.2)" gradientUnits="userSpaceOnUse" id="gradient69" r="819.2" spreadMethod="pad">
      <stop offset="0.0" stop-color="#de3131"/>
      <stop offset="1.0" stop-color="#962121"/>
    </radialGradient>
  </defs>
</svg>
