<?xml version="1.0" encoding="UTF-8" standalone="no"?>
<svg xmlns:ffdec="https://www.free-decompiler.com/flash" xmlns:xlink="http://www.w3.org/1999/xlink" ffdec:objectType="shape" height="67.2px" width="55.25px" xmlns="http://www.w3.org/2000/svg">
  <g transform="matrix(1.0, 0.0, 0.0, 1.0, -3.25, 44.05)">
    <path d="M32.5 -37.95 L33.8 -41.05 33.95 -41.1 34.1 -40.8 34.25 -40.2 34.35 -38.3 34.5 -36.4 34.4 -35.05 34.35 -34.75 33.8 -33.7 Q33.45 -33.5 32.55 -34.45 L32.35 -34.9 32.3 -36.85 32.3 -37.05 32.3 -37.4 32.5 -37.95" fill="url(#gradient0)" fill-rule="evenodd" stroke="none"/>
    <path d="M33.8 -41.15 L33.8 -41.2 Q36.85 -47.95 34.95 -38.75 L34.35 -38.3 34.25 -40.2 34.1 -40.8 33.95 -41.1 33.8 -41.05 33.8 -41.15" fill="url(#gradient1)" fill-rule="evenodd" stroke="none"/>
    <path d="M33.75 -41.2 L33.8 -41.15 33.8 -41.05 32.5 -37.95 31.9 -39.3 32.0 -40.2 32.2 -41.15 Q32.7 -46.05 33.75 -41.2 M34.35 -34.75 L34.4 -35.05 34.95 -34.55 34.9 -34.45 34.65 -34.15 34.4 -34.3 34.35 -34.75" fill="url(#gradient2)" fill-rule="evenodd" stroke="none"/>
    <path d="M33.8 -41.15 L33.75 -41.2 33.8 -41.2 33.8 -41.15" fill="url(#gradient3)" fill-rule="evenodd" stroke="none"/>
    <path d="M32.2 -41.15 L32.0 -40.2 31.2 -40.3 30.35 -41.35 Q27.5 -45.9 32.2 -41.15" fill="url(#gradient4)" fill-rule="evenodd" stroke="none"/>
    <path d="M32.0 -40.2 L31.9 -39.3 31.2 -40.3 32.0 -40.2 M27.5 -40.1 L28.95 -40.75 29.8 -40.6 30.15 -38.65 29.45 -38.6 27.5 -40.1 M32.1 -35.9 L32.3 -36.85 32.35 -34.9 32.55 -34.45 Q33.45 -33.5 33.8 -33.7 L34.35 -34.75 34.4 -34.3 34.65 -34.15 34.9 -34.45 35.0 -34.3 34.6 -33.4 34.45 -33.3 32.3 -32.7 32.1 -35.9 M27.3 -39.85 L27.8 -38.45 25.7 -38.15 26.3 -39.2 27.05 -39.65 27.3 -39.85 M28.35 -37.05 Q30.2 -34.4 29.85 -33.85 L30.9 -33.35 31.9 -33.2 32.1 -32.7 31.65 -32.65 31.05 -32.7 30.9 -32.75 30.8 -32.75 28.6 -33.4 28.55 -33.4 28.4 -33.45 28.05 -32.5 27.8 -32.75 26.5 -33.1 Q27.05 -33.9 25.35 -34.25 L25.05 -35.25 25.0 -35.6 25.0 -35.7 24.8 -36.6 25.5 -37.85 28.35 -37.05 M26.2 -32.35 L25.6 -32.9 25.6 -33.1 26.25 -32.5 26.25 -32.45 26.2 -32.35" fill="url(#gradient5)" fill-rule="evenodd" stroke="none"/>
    <path d="M31.9 -39.3 L32.5 -37.95 32.3 -37.4 32.1 -37.45 32.3 -37.05 32.3 -36.85 32.1 -35.9 31.65 -36.0 31.1 -36.9 30.15 -38.65 29.8 -40.6 29.8 -41.65 30.35 -41.35 31.2 -40.3 31.9 -39.3" fill="url(#gradient6)" fill-rule="evenodd" stroke="none"/>
    <path d="M32.3 -37.05 L32.1 -37.45 32.3 -37.4 32.3 -37.05 M30.15 -38.65 L31.1 -36.9 29.45 -38.6 30.15 -38.65 M27.8 -38.45 L28.35 -37.05 25.5 -37.85 25.4 -38.05 25.65 -38.1 25.7 -38.15 27.8 -38.45" fill="url(#gradient7)" fill-rule="evenodd" stroke="none"/>
    <path d="M34.35 -38.3 L34.95 -38.75 38.4 -42.1 39.1 -42.45 38.75 -41.2 Q36.95 -37.95 35.85 -34.85 L35.05 -34.3 35.0 -34.3 34.9 -34.45 34.95 -34.55 34.4 -35.05 34.5 -36.4 34.35 -38.3" fill="url(#gradient8)" fill-rule="evenodd" stroke="none"/>
    <path d="M31.1 -36.9 L31.65 -36.0 32.1 -35.9 32.3 -32.7 32.3 -32.65 32.2 -32.65 32.1 -32.7 31.9 -33.2 30.9 -33.35 29.85 -33.85 Q30.2 -34.4 28.35 -37.05 L27.8 -38.45 27.3 -39.85 27.25 -40.15 27.5 -40.1 29.45 -38.6 31.1 -36.9" fill="url(#gradient9)" fill-rule="evenodd" stroke="none"/>
    <path d="M27.25 -40.15 L27.3 -39.85 27.05 -39.65 25.1 -40.25 25.7 -40.4 27.25 -40.15" fill="url(#gradient10)" fill-rule="evenodd" stroke="none"/>
    <path d="M27.05 -39.65 L26.3 -39.2 25.1 -40.25 27.05 -39.65" fill="url(#gradient11)" fill-rule="evenodd" stroke="none"/>
    <path d="M25.6 -33.1 L25.6 -32.9 26.2 -32.35 28.0 -29.05 26.8 -28.9 Q23.45 -29.0 22.9 -29.5 L22.25 -29.15 22.2 -30.25 Q21.9 -29.8 21.7 -31.45 L25.0 -34.15 25.6 -33.1" fill="url(#gradient12)" fill-rule="evenodd" stroke="none"/>
    <path d="M32.2 -32.65 L32.3 -32.65 34.25 -33.0 34.45 -33.3 34.6 -33.4 34.95 -33.65 34.4 -32.0 Q33.65 -30.95 33.05 -30.95 30.05 -30.1 26.25 -32.45 L26.25 -32.5 25.6 -33.1 25.0 -34.15 24.9 -34.75 25.05 -35.25 25.35 -34.25 Q27.05 -33.9 26.5 -33.1 L27.8 -32.75 28.05 -32.5 28.4 -33.45 28.55 -33.4 28.6 -33.4 29.65 -32.95 30.8 -32.75 30.9 -32.75 31.05 -32.7 31.65 -32.65 32.2 -32.65" fill="url(#gradient13)" fill-rule="evenodd" stroke="none"/>
    <path d="M26.2 -32.35 L26.25 -32.45 Q30.05 -30.1 33.05 -30.95 L31.95 -29.4 Q31.15 -28.5 30.1 -28.15 L29.0 -28.2 28.0 -29.05 26.2 -32.35" fill="url(#gradient14)" fill-rule="evenodd" stroke="none"/>
    <path d="M32.1 -32.7 L32.2 -32.65 31.65 -32.65 32.1 -32.7 M32.3 -32.65 L32.3 -32.7 34.45 -33.3 34.25 -33.0 32.3 -32.65 M28.6 -33.4 L30.8 -32.75 29.65 -32.95 28.6 -33.4 M35.0 -34.3 L35.05 -34.3 34.95 -33.65 34.6 -33.4 35.0 -34.3" fill="url(#gradient15)" fill-rule="evenodd" stroke="none"/>
    <path d="M25.0 -34.15 L21.7 -31.45 Q8.85 -19.25 21.45 -32.5 L22.1 -33.2 22.35 -33.35 23.7 -34.6 25.0 -35.6 25.05 -35.25 24.9 -34.75 25.0 -34.15" fill="url(#gradient16)" fill-rule="evenodd" stroke="none"/>
    <path d="M25.0 -35.6 L23.7 -34.6 22.25 -34.3 20.65 -33.55 20.6 -33.55 17.4 -31.6 15.9 -30.15 15.25 -29.65 13.8 -27.6 13.6 -27.35 Q12.85 -27.6 15.05 -30.5 L17.35 -32.5 19.55 -33.9 22.1 -35.1 Q24.6 -35.9 25.0 -35.7 L25.0 -35.6" fill="url(#gradient17)" fill-rule="evenodd" stroke="none"/>
    <path d="M21.7 -31.45 Q21.9 -29.8 22.2 -30.25 L22.25 -29.15 22.9 -29.5 Q23.45 -29.0 26.8 -28.9 L28.0 -29.05 29.0 -28.2 29.6 -27.35 30.65 -25.25 Q24.65 -23.75 26.25 -19.4 26.4 -18.65 28.1 -17.25 L29.75 -16.5 29.65 -16.35 29.55 -16.25 29.0 -15.75 28.85 -15.6 Q26.9 -12.9 23.3 -14.05 L22.65 -14.3 Q22.05 -16.2 19.05 -17.15 L17.9 -18.35 17.85 -18.5 17.7 -18.65 17.4 -18.95 17.35 -19.0 16.45 -20.3 14.85 -23.35 14.5 -24.0 14.45 -24.05 14.0 -24.8 13.95 -24.9 13.55 -25.65 13.35 -26.4 13.3 -26.45 13.25 -26.95 13.6 -27.35 13.8 -27.6 Q17.0 -27.2 15.9 -30.15 L17.4 -31.6 20.6 -33.55 22.1 -33.2 21.45 -32.5 Q8.85 -19.25 21.7 -31.45" fill="url(#gradient18)" fill-rule="evenodd" stroke="none"/>
    <path d="M22.35 -33.35 L22.1 -33.2 20.6 -33.55 20.65 -33.55 22.35 -33.35" fill="url(#gradient19)" fill-rule="evenodd" stroke="none"/>
    <path d="M29.0 -28.2 L30.1 -28.15 31.3 -27.05 32.5 -25.0 30.65 -25.25 29.6 -27.35 29.0 -28.2" fill="url(#gradient20)" fill-rule="evenodd" stroke="none"/>
    <path d="M30.65 -25.25 L32.5 -25.0 34.5 -24.2 Q36.4 -22.75 36.5 -22.05 L36.15 -21.95 35.8 -21.6 Q32.25 -20.7 32.3 -19.4 L32.2 -18.95 32.3 -18.45 32.9 -17.35 32.6 -17.0 32.9 -16.15 31.25 -16.15 29.75 -16.5 28.1 -17.25 Q26.4 -18.65 26.25 -19.4 24.65 -23.75 30.65 -25.25" fill="url(#gradient21)" fill-rule="evenodd" stroke="none"/>
    <path d="M7.1 -24.4 Q7.25 -25.1 8.0 -25.75 L8.75 -25.85 8.3 -24.6 8.2 -22.6 7.6 -22.25 7.25 -22.25 6.9 -22.95 6.8 -23.05 7.1 -24.4" fill="url(#gradient22)" fill-rule="evenodd" stroke="none"/>
    <path d="M8.75 -25.85 L8.0 -25.75 Q7.25 -25.1 7.1 -24.4 6.4 -28.6 10.5 -30.65 L10.4 -29.85 10.75 -28.45 10.3 -27.7 8.75 -25.85" fill="url(#gradient23)" fill-rule="evenodd" stroke="none"/>
    <path d="M19.55 -33.9 L17.35 -32.5 15.05 -30.5 Q12.85 -27.6 13.6 -27.35 L13.25 -26.95 13.3 -26.45 12.65 -26.65 10.9 -28.15 10.75 -28.45 10.4 -29.85 10.5 -30.65 Q13.25 -37.95 19.55 -33.9 M13.8 -27.6 L15.25 -29.65 15.9 -30.15 Q17.0 -27.2 13.8 -27.6" fill="url(#gradient24)" fill-rule="evenodd" stroke="none"/>
    <path d="M10.3 -27.7 L10.75 -28.45 10.9 -28.15 10.3 -27.7 M13.95 -24.9 L14.0 -24.8 13.6 -24.1 12.85 -23.35 13.95 -24.9 M12.75 -23.1 L12.45 -22.95 12.8 -23.3 12.75 -23.1 M12.3 -22.75 L11.95 -22.4 11.1 -21.95 12.3 -22.75 M9.95 -21.55 L9.4 -21.35 9.4 -21.6 9.95 -21.55" fill="url(#gradient25)" fill-rule="evenodd" stroke="none"/>
    <path d="M8.75 -25.85 L10.3 -27.7 10.9 -28.15 12.65 -26.65 13.3 -26.45 13.35 -26.4 13.55 -25.65 13.95 -24.9 12.85 -23.35 12.8 -23.3 12.45 -22.95 12.3 -22.75 11.1 -21.95 10.0 -21.55 9.95 -21.55 9.4 -21.6 8.55 -21.95 8.2 -22.6 8.3 -24.6 8.75 -25.85" fill="url(#gradient26)" fill-rule="evenodd" stroke="none"/>
    <path d="M17.35 -19.0 L17.4 -18.95 17.35 -18.95 17.35 -19.0 M17.85 -18.5 L17.9 -18.35 17.85 -18.35 17.85 -18.5" fill="url(#gradient27)" fill-rule="evenodd" stroke="none"/>
    <path d="M17.4 -18.95 L17.7 -18.65 17.5 -18.15 Q12.35 -12.05 20.25 -8.35 L20.45 -7.8 Q17.55 -6.9 13.9 -10.6 12.2 -15.85 15.55 -17.75 L15.6 -17.8 15.8 -17.95 16.95 -18.85 17.35 -18.95 17.4 -18.95" fill="url(#gradient28)" fill-rule="evenodd" stroke="none"/>
    <path d="M14.45 -24.05 L14.5 -24.0 14.85 -23.35 14.5 -23.1 13.3 -21.3 13.05 -21.95 12.75 -22.2 12.75 -23.1 12.8 -23.3 12.85 -23.35 13.6 -24.1 14.45 -24.05" fill="url(#gradient29)" fill-rule="evenodd" stroke="none"/>
    <path d="M12.75 -23.1 L12.75 -22.2 13.05 -21.95 13.3 -21.3 13.45 -20.15 13.35 -19.7 13.0 -19.4 11.6 -19.4 Q7.4 -19.5 7.25 -21.15 L7.9 -20.75 8.4 -20.75 9.4 -21.35 9.95 -21.55 10.0 -21.55 11.1 -21.95 11.95 -22.4 12.3 -22.75 12.45 -22.95 12.75 -23.1" fill="url(#gradient30)" fill-rule="evenodd" stroke="none"/>
    <path d="M14.85 -23.35 L16.45 -20.3 Q15.5 -17.0 11.6 -19.4 L13.0 -19.4 13.35 -19.7 13.45 -20.15 13.3 -21.3 14.5 -23.1 14.85 -23.35" fill="url(#gradient31)" fill-rule="evenodd" stroke="none"/>
    <path d="M15.55 -17.75 Q12.2 -15.85 13.9 -10.6 17.55 -6.9 20.45 -7.8 L20.65 -7.2 21.2 -6.6 20.6 -5.95 19.35 -4.85 19.3 -4.85 Q15.3 -2.5 10.9 -6.25 8.6 -11.1 9.9 -12.7 L9.95 -12.7 10.0 -12.75 10.05 -12.9 10.1 -12.95 10.15 -13.1 10.2 -13.15 10.2 -13.2 10.3 -13.25 10.3 -13.3 10.4 -13.45 10.4 -13.5 10.55 -13.6 10.85 -14.0 10.95 -14.05 15.15 -17.65 15.55 -17.75" fill="url(#gradient32)" fill-rule="evenodd" stroke="none"/>
    <path d="M10.2 -13.15 L10.15 -13.1 10.15 -13.15 10.2 -13.15 M10.1 -12.95 L10.05 -12.9 10.05 -12.95 10.1 -12.95 M10.0 -12.75 L9.95 -12.7 9.95 -12.75 10.0 -12.75" fill="url(#gradient33)" fill-rule="evenodd" stroke="none"/>
    <path d="M10.2 -13.2 L10.2 -13.15 10.15 -13.15 10.2 -13.2 M10.15 -13.1 L10.1 -12.95 10.05 -12.95 10.15 -13.1 M10.05 -12.9 L10.0 -12.75 9.95 -12.75 10.05 -12.9 M9.9 -12.7 Q8.6 -11.1 10.9 -6.25 15.3 -2.5 19.3 -4.85 L16.5 -3.05 Q13.65 -3.4 12.65 -3.9 L12.3 -4.05 12.0 -4.1 11.85 -4.15 11.3 -4.3 9.75 -5.75 9.6 -6.25 9.15 -6.95 9.1 -7.25 Q8.05 -10.5 9.9 -12.7" fill="url(#gradient34)" fill-rule="evenodd" stroke="none"/>
    <path d="M17.7 -18.65 L17.85 -18.5 17.85 -18.35 17.85 -18.3 17.8 -18.1 17.8 -17.75 17.75 -17.6 17.75 -17.4 17.8 -17.25 17.85 -15.75 Q21.1 -14.3 21.9 -12.55 L23.85 -12.0 Q28.65 -11.65 28.85 -15.6 L29.0 -15.75 29.2 -15.55 Q30.55 -12.65 29.05 -11.3 L28.15 -10.5 27.65 -10.5 27.4 -10.25 25.8 -10.95 Q23.2 -11.45 22.45 -10.95 21.95 -10.9 21.35 -12.2 L20.2 -12.5 Q19.25 -13.75 17.4 -14.7 L17.5 -18.15 17.7 -18.65" fill="url(#gradient35)" fill-rule="evenodd" stroke="none"/>
    <path d="M17.9 -18.35 L19.05 -17.15 Q22.05 -16.2 22.65 -14.3 L23.3 -14.05 Q26.9 -12.9 28.85 -15.6 28.65 -11.65 23.85 -12.0 L21.9 -12.55 Q21.1 -14.3 17.85 -15.75 L17.8 -17.25 17.75 -17.4 17.75 -17.6 17.8 -17.75 17.8 -18.1 17.85 -18.3 17.85 -18.35 17.9 -18.35" fill="url(#gradient36)" fill-rule="evenodd" stroke="none"/>
    <path d="M15.8 -17.95 L15.6 -17.8 15.55 -17.75 15.15 -17.65 15.8 -17.95" fill="url(#gradient37)" fill-rule="evenodd" stroke="none"/>
    <path d="M20.25 -8.35 Q12.35 -12.05 17.5 -18.15 L17.4 -14.7 Q19.25 -13.75 20.2 -12.5 L19.85 -10.55 Q19.75 -9.25 20.25 -8.35" fill="url(#gradient38)" fill-rule="evenodd" stroke="none"/>
    <path d="M6.9 -22.95 L7.25 -22.25 7.6 -22.25 8.2 -22.6 8.55 -21.95 9.4 -21.6 9.4 -21.35 8.4 -20.75 7.9 -20.75 7.25 -21.15 6.8 -21.85 6.8 -23.0 6.9 -22.95" fill="url(#gradient39)" fill-rule="evenodd" stroke="none"/>
    <path d="M6.8 -23.05 L6.9 -22.95 6.8 -23.0 6.8 -23.05" fill="url(#gradient40)" fill-rule="evenodd" stroke="none"/>
    <path d="M9.15 -6.95 L9.1 -6.35 8.8 -6.25 7.95 -5.3 Q7.8 -3.95 8.5 -3.35 12.0 -2.1 12.3 -4.05 L12.65 -3.9 12.55 -3.4 12.15 -2.5 11.4 -1.75 10.2 -1.2 Q7.1 -0.8 6.4 -4.6 7.4 -7.4 9.1 -7.25 L9.15 -6.95" fill="url(#gradient41)" fill-rule="evenodd" stroke="none"/>
    <path d="M9.1 -6.35 L9.1 -6.25 9.2 -5.9 Q7.9 -2.85 12.0 -4.1 L12.3 -4.05 Q12.0 -2.1 8.5 -3.35 7.8 -3.95 7.95 -5.3 L8.8 -6.25 9.1 -6.35" fill="url(#gradient42)" fill-rule="evenodd" stroke="none"/>
    <path d="M9.1 -6.35 L9.15 -6.95 9.6 -6.25 9.75 -5.75 9.7 -5.55 9.45 -5.55 9.2 -5.9 9.1 -6.25 9.1 -6.35" fill="url(#gradient43)" fill-rule="evenodd" stroke="none"/>
    <path d="M9.7 -5.55 L9.75 -5.75 11.3 -4.3 11.85 -4.15 Q8.85 -3.9 9.7 -5.55" fill="url(#gradient44)" fill-rule="evenodd" stroke="none"/>
    <path d="M9.2 -5.9 L9.45 -5.55 9.7 -5.55 Q8.85 -3.9 11.85 -4.15 L12.0 -4.1 Q7.9 -2.85 9.2 -5.9" fill="url(#gradient45)" fill-rule="evenodd" stroke="none"/>
    <path d="M6.4 -4.6 Q7.1 -0.8 10.2 -1.2 L9.1 -0.05 Q7.1 0.95 5.6 -3.75 L6.4 -4.6" fill="url(#gradient46)" fill-rule="evenodd" stroke="none"/>
    <path d="M5.6 -3.75 Q7.1 0.95 9.1 -0.05 L8.85 1.0 Q5.1 1.95 3.4 -0.35 2.65 -1.9 5.6 -3.75" fill="url(#gradient47)" fill-rule="evenodd" stroke="none"/>
    <path d="M20.45 -7.8 L20.25 -8.35 Q19.75 -9.25 19.85 -10.55 L20.2 -12.5 21.35 -12.2 Q21.95 -10.9 22.45 -10.95 23.2 -11.45 25.8 -10.95 L27.4 -10.25 27.65 -10.5 28.15 -10.5 29.05 -11.3 Q26.85 -7.95 27.45 -6.25 26.8 -4.0 24.4 -4.5 L22.35 -5.45 21.2 -6.6 20.65 -7.2 20.45 -7.8" fill="url(#gradient48)" fill-rule="evenodd" stroke="none"/>
    <path d="M10.2 -1.2 L11.4 -1.75 11.5 -0.6 11.05 0.95 10.3 1.15 9.15 1.1 8.85 1.0 9.1 -0.05 10.2 -1.2" fill="url(#gradient49)" fill-rule="evenodd" stroke="none"/>
    <path d="M11.4 -1.75 L12.15 -2.5 12.55 -3.4 Q14.0 -0.35 11.05 0.95 L11.5 -0.6 11.4 -1.75 M10.3 1.15 L9.7 1.25 9.15 1.1 10.3 1.15" fill="url(#gradient50)" fill-rule="evenodd" stroke="none"/>
    <path d="M35.8 -21.6 L36.15 -21.95 36.5 -22.05 Q42.95 -20.85 44.95 -16.25 L42.45 -16.45 41.95 -15.4 41.65 -15.55 Q42.45 -16.2 42.2 -17.9 L41.15 -19.4 Q39.1 -21.4 35.8 -21.6" fill="url(#gradient51)" fill-rule="evenodd" stroke="none"/>
    <path d="M32.9 -17.35 L32.3 -18.45 32.2 -18.95 32.3 -19.4 Q32.25 -20.7 35.8 -21.6 39.1 -21.4 41.15 -19.4 L42.2 -17.9 Q42.45 -16.2 41.65 -15.55 L39.35 -14.65 37.6 -14.85 35.4 -15.4 34.35 -16.0 32.9 -17.35" fill="url(#gradient52)" fill-rule="evenodd" stroke="none"/>
    <path d="M32.9 -17.35 L34.35 -16.0 35.4 -15.4 Q35.1 -13.85 39.2 -12.55 34.45 -13.15 32.9 -16.15 L32.6 -17.0 32.9 -17.35" fill="url(#gradient53)" fill-rule="evenodd" stroke="none"/>
    <path d="M29.0 -15.75 L29.55 -16.25 30.4 -15.45 30.55 -15.35 31.3 -14.1 30.7 -14.7 29.2 -15.55 29.0 -15.75" fill="url(#gradient54)" fill-rule="evenodd" stroke="none"/>
    <path d="M29.05 -11.3 Q30.55 -12.65 29.2 -15.55 L30.7 -14.7 31.3 -14.1 33.75 -11.3 34.8 -9.65 Q35.65 -6.0 34.7 -6.25 L34.85 -5.2 33.9 -4.15 33.8 -3.55 Q27.65 1.05 25.65 -1.7 L24.4 -4.5 Q26.8 -4.0 27.45 -6.25 26.85 -7.95 29.05 -11.3" fill="url(#gradient55)" fill-rule="evenodd" stroke="none"/>
    <path d="M29.55 -16.25 L29.65 -16.35 30.55 -15.35 30.4 -15.45 29.55 -16.25" fill="url(#gradient56)" fill-rule="evenodd" stroke="none"/>
    <path d="M35.4 -15.4 L37.6 -14.85 39.35 -14.65 40.4 -12.75 40.4 -12.55 40.25 -12.5 39.2 -12.55 Q35.1 -13.85 35.4 -15.4" fill="url(#gradient57)" fill-rule="evenodd" stroke="none"/>
    <path d="M39.35 -14.65 L41.65 -15.55 41.95 -15.4 41.7 -14.1 42.55 -12.25 42.5 -12.0 41.9 -11.95 40.9 -12.15 40.25 -12.5 40.4 -12.55 40.4 -12.75 39.35 -14.65" fill="url(#gradient58)" fill-rule="evenodd" stroke="none"/>
    <path d="M25.65 -1.7 Q27.65 1.05 33.8 -3.55 32.6 -0.9 35.4 1.5 L35.8 3.95 Q32.6 7.3 26.0 2.25 L25.9 3.1 25.8 3.05 25.9 1.65 26.35 0.0 26.05 -0.65 25.65 -1.7 M33.9 -4.15 L34.85 -5.2 34.7 -6.25 Q35.65 -6.0 34.8 -9.65 39.4 -5.2 39.4 0.1 L39.2 0.7 39.0 1.3 36.45 -3.7 33.9 -4.15" fill="url(#gradient59)" fill-rule="evenodd" stroke="none"/>
    <path d="M33.8 -3.55 L33.9 -4.15 36.45 -3.7 39.0 1.3 39.0 1.35 Q37.35 7.45 34.25 7.05 L31.95 7.65 29.5 7.4 28.15 7.05 Q27.3 7.0 25.85 5.65 L25.8 3.05 25.9 3.1 26.0 2.25 Q32.6 7.3 35.8 3.95 L35.4 1.5 Q32.6 -0.9 33.8 -3.55" fill="url(#gradient60)" fill-rule="evenodd" stroke="none"/>
    <path d="M41.95 -15.4 L42.45 -16.45 44.95 -16.25 Q46.6 -16.95 51.75 -11.5 L53.5 -10.7 Q52.85 -8.4 51.85 -7.1 L45.85 -9.25 Q45.5 -9.2 44.65 -10.05 L44.5 -10.25 44.3 -10.4 44.15 -10.55 44.0 -10.6 43.95 -10.75 43.85 -10.75 42.1 -11.65 41.9 -11.95 42.5 -12.0 42.55 -12.25 41.7 -14.1 41.95 -15.4" fill="url(#gradient61)" fill-rule="evenodd" stroke="none"/>
    <path d="M43.85 -10.75 L43.95 -10.75 44.0 -10.6 43.85 -10.75 M44.15 -10.55 L44.3 -10.4 44.15 -10.5 44.15 -10.55" fill="url(#gradient62)" fill-rule="evenodd" stroke="none"/>
    <path d="M44.0 -10.6 L44.15 -10.55 44.15 -10.5 44.0 -10.6" fill="url(#gradient63)" fill-rule="evenodd" stroke="none"/>
    <path d="M51.85 -7.1 Q52.85 -8.4 53.5 -10.7 59.35 -11.9 58.35 -6.3 54.0 -2.2 51.85 -7.1" fill="url(#gradient64)" fill-rule="evenodd" stroke="none"/>
    <path d="M39.0 1.3 L39.2 0.7 39.0 1.35 39.0 1.3" fill="url(#gradient65)" fill-rule="evenodd" stroke="none"/>
    <path d="M29.5 7.4 L31.95 7.65 34.25 7.05 33.15 9.0 Q29.95 13.0 29.45 9.85 L29.5 7.4" fill="url(#gradient66)" fill-rule="evenodd" stroke="none"/>
    <path d="M33.15 9.0 L32.35 12.0 29.2 12.15 28.65 11.95 28.65 11.4 28.95 10.25 29.45 9.85 Q29.95 13.0 33.15 9.0" fill="url(#gradient67)" fill-rule="evenodd" stroke="none"/>
    <path d="M26.05 -0.65 L26.35 0.0 25.9 1.65 26.05 -0.65" fill="url(#gradient68)" fill-rule="evenodd" stroke="none"/>
    <path d="M28.95 10.25 L28.4 9.35 28.15 7.05 29.5 7.4 29.45 9.85 28.95 10.25" fill="url(#gradient69)" fill-rule="evenodd" stroke="none"/>
    <path d="M32.35 12.0 L32.5 12.55 32.35 13.45 31.25 14.25 30.9 14.15 30.2 13.75 Q28.05 13.3 28.05 13.05 L28.05 12.15 28.5 11.55 28.65 11.4 28.65 11.95 29.2 12.15 32.35 12.0" fill="url(#gradient70)" fill-rule="evenodd" stroke="none"/>
    <path d="M32.5 12.55 L33.45 14.15 Q33.4 15.55 32.8 16.4 L32.15 16.9 Q28.1 17.65 26.95 14.95 26.2 12.8 28.5 11.55 L28.05 12.15 28.05 13.05 Q28.05 13.3 30.2 13.75 L30.9 14.15 31.25 14.25 32.35 13.45 32.5 12.55" fill="url(#gradient71)" fill-rule="evenodd" stroke="none"/>
    <path d="M25.95 17.75 L26.05 17.55 26.95 14.95 Q28.1 17.65 32.15 16.9 L31.9 17.7 Q30.9 18.2 29.5 20.05 L29.45 20.2 Q28.9 22.2 27.15 20.05 25.75 18.3 25.95 17.75" fill="url(#gradient72)" fill-rule="evenodd" stroke="none"/>
    <path d="M32.8 16.4 L33.2 16.5 33.55 23.05 32.7 23.15 29.9 22.8 Q29.5 22.2 29.75 20.9 L29.45 20.2 29.5 20.05 Q30.9 18.2 31.9 17.7 L32.15 16.9 32.8 16.4" fill="url(#gradient73)" fill-rule="evenodd" stroke="none"/>
    <path d="M29.9 22.8 Q22.45 22.75 25.95 17.75 25.75 18.3 27.15 20.05 28.9 22.2 29.45 20.2 L29.75 20.9 Q29.5 22.2 29.9 22.8" fill="url(#gradient74)" fill-rule="evenodd" stroke="none"/>
    <path d="M33.2 16.5 Q37.55 16.7 37.7 19.9 37.75 22.65 33.55 23.05 L33.2 16.5" fill="url(#gradient75)" fill-rule="evenodd" stroke="none"/>
  </g>
  <defs>
    <radialGradient cx="0" cy="0" gradientTransform="matrix(0.0082, 0.0, 0.0, 0.0082, 32.35, -34.6)" gradientUnits="userSpaceOnUse" id="gradient0" r="819.2" spreadMethod="pad">
      <stop offset="0.0" stop-color="#bb2a2a"/>
      <stop offset="1.0" stop-color="#aa2525"/>
    </radialGradient>
    <radialGradient cx="0" cy="0" gradientTransform="matrix(0.0078, 0.0, 0.0, 0.0078, 35.5, -44.1)" gradientUnits="userSpaceOnUse" id="gradient1" r="819.2" spreadMethod="pad">
      <stop offset="0.0" stop-color="#e13232"/>
      <stop offset="1.0" stop-color="#d52f2f"/>
    </radialGradient>
    <radialGradient cx="0" cy="0" gradientTransform="matrix(0.0068, 0.0, 0.0, 0.0068, 33.0, -39.5)" gradientUnits="userSpaceOnUse" id="gradient2" r="819.2" spreadMethod="pad">
      <stop offset="0.0" stop-color="#b92929"/>
      <stop offset="1.0" stop-color="#a12323"/>
    </radialGradient>
    <radialGradient cx="0" cy="0" gradientTransform="matrix(0.0032, 0.0, 0.0, 0.0032, 33.75, -41.25)" gradientUnits="userSpaceOnUse" id="gradient3" r="819.2" spreadMethod="pad">
      <stop offset="0.0" stop-color="#851d1d"/>
      <stop offset="1.0" stop-color="#7c1c1c"/>
    </radialGradient>
    <radialGradient cx="0" cy="0" gradientTransform="matrix(0.0054, 0.0, 0.0, 0.0054, 29.95, -42.8)" gradientUnits="userSpaceOnUse" id="gradient4" r="819.2" spreadMethod="pad">
      <stop offset="0.0" stop-color="#fb3838"/>
      <stop offset="1.0" stop-color="#f83737"/>
    </radialGradient>
    <radialGradient cx="0" cy="0" gradientTransform="matrix(0.0072, 0.0, 0.0, 0.0072, 29.25, -35.25)" gradientUnits="userSpaceOnUse" id="gradient5" r="819.2" spreadMethod="pad">
      <stop offset="0.0" stop-color="#f43636"/>
      <stop offset="1.0" stop-color="#891e1e"/>
    </radialGradient>
    <radialGradient cx="0" cy="0" gradientTransform="matrix(0.0082, 0.0, 0.0, 0.0082, 31.9, -35.4)" gradientUnits="userSpaceOnUse" id="gradient6" r="819.2" spreadMethod="pad">
      <stop offset="0.0" stop-color="#ca2d2d"/>
      <stop offset="1.0" stop-color="#a72525"/>
    </radialGradient>
    <radialGradient cx="0" cy="0" gradientTransform="matrix(0.0058, 0.0, 0.0, 0.0058, 27.6, -37.4)" gradientUnits="userSpaceOnUse" id="gradient7" r="819.2" spreadMethod="pad">
      <stop offset="0.0" stop-color="#f73737"/>
      <stop offset="1.0" stop-color="#b42828"/>
    </radialGradient>
    <radialGradient cx="0" cy="0" gradientTransform="matrix(0.0109, 0.0, 0.0, 0.0109, 34.15, -35.2)" gradientUnits="userSpaceOnUse" id="gradient8" r="819.2" spreadMethod="pad">
      <stop offset="0.0" stop-color="#ec3434"/>
      <stop offset="1.0" stop-color="#af2626"/>
    </radialGradient>
    <radialGradient cx="0" cy="0" gradientTransform="matrix(0.0093, 0.0, 0.0, 0.0093, 31.15, -33.75)" gradientUnits="userSpaceOnUse" id="gradient9" r="819.2" spreadMethod="pad">
      <stop offset="0.0" stop-color="#f43636"/>
      <stop offset="1.0" stop-color="#e53333"/>
    </radialGradient>
    <radialGradient cx="0" cy="0" gradientTransform="matrix(0.004, 0.0, 0.0, 0.004, 28.15, -39.3)" gradientUnits="userSpaceOnUse" id="gradient10" r="819.2" spreadMethod="pad">
      <stop offset="0.0" stop-color="#b82929"/>
      <stop offset="1.0" stop-color="#932121"/>
    </radialGradient>
    <radialGradient cx="0" cy="0" gradientTransform="matrix(0.004, 0.0, 0.0, 0.004, 28.15, -39.3)" gradientUnits="userSpaceOnUse" id="gradient11" r="819.2" spreadMethod="pad">
      <stop offset="0.0" stop-color="#d32f2f"/>
      <stop offset="1.0" stop-color="#ba2929"/>
    </radialGradient>
    <radialGradient cx="0" cy="0" gradientTransform="matrix(0.006, 0.0, 0.0, 0.006, 25.45, -32.55)" gradientUnits="userSpaceOnUse" id="gradient12" r="819.2" spreadMethod="pad">
      <stop offset="0.0" stop-color="#ffdb7f"/>
      <stop offset="1.0" stop-color="#f2b067"/>
    </radialGradient>
    <radialGradient cx="0" cy="0" gradientTransform="matrix(0.0067, 0.0, 0.0, 0.0067, 29.5, -32.7)" gradientUnits="userSpaceOnUse" id="gradient13" r="819.2" spreadMethod="pad">
      <stop offset="0.0" stop-color="#dadada"/>
      <stop offset="1.0" stop-color="#aeaeae"/>
    </radialGradient>
    <radialGradient cx="0" cy="0" gradientTransform="matrix(0.0051, 0.0, 0.0, 0.0051, 29.8, -31.6)" gradientUnits="userSpaceOnUse" id="gradient14" r="819.2" spreadMethod="pad">
      <stop offset="0.0" stop-color="#eca761"/>
      <stop offset="1.0" stop-color="#a07141"/>
    </radialGradient>
    <radialGradient cx="0" cy="0" gradientTransform="matrix(0.0069, 0.0, 0.0, 0.0069, 29.65, -33.05)" gradientUnits="userSpaceOnUse" id="gradient15" r="819.2" spreadMethod="pad">
      <stop offset="0.0" stop-color="#a9a9a9"/>
      <stop offset="1.0" stop-color="#a7a7a7"/>
    </radialGradient>
    <radialGradient cx="0" cy="0" gradientTransform="matrix(0.0102, 0.0, 0.0, 0.0102, 21.05, -31.7)" gradientUnits="userSpaceOnUse" id="gradient16" r="819.2" spreadMethod="pad">
      <stop offset="0.0" stop-color="#fefefe"/>
      <stop offset="1.0" stop-color="#cecece"/>
    </radialGradient>
    <radialGradient cx="0" cy="0" gradientTransform="matrix(0.0161, 0.0, 0.0, 0.0161, 24.15, -35.25)" gradientUnits="userSpaceOnUse" id="gradient17" r="819.2" spreadMethod="pad">
      <stop offset="0.0" stop-color="#ffffff"/>
      <stop offset="1.0" stop-color="#c7c7c7"/>
    </radialGradient>
    <radialGradient cx="0" cy="0" gradientTransform="matrix(0.017, 0.0, 0.0, 0.017, 26.9, -25.15)" gradientUnits="userSpaceOnUse" id="gradient18" r="819.2" spreadMethod="pad">
      <stop offset="0.0" stop-color="#ffdc80"/>
      <stop offset="1.0" stop-color="#bf874e"/>
    </radialGradient>
    <radialGradient cx="0" cy="0" gradientTransform="matrix(0.0017, 0.0, 0.0, 0.0017, 21.6, -33.3)" gradientUnits="userSpaceOnUse" id="gradient19" r="819.2" spreadMethod="pad">
      <stop offset="0.0" stop-color="#ac7a47"/>
      <stop offset="1.0" stop-color="#67492a"/>
    </radialGradient>
    <radialGradient cx="0" cy="0" gradientTransform="matrix(0.0041, 0.0, 0.0, 0.0041, 30.2, -25.7)" gradientUnits="userSpaceOnUse" id="gradient20" r="819.2" spreadMethod="pad">
      <stop offset="0.0" stop-color="#ffc875"/>
      <stop offset="1.0" stop-color="#a87745"/>
    </radialGradient>
    <radialGradient cx="0" cy="0" gradientTransform="matrix(0.0075, 0.0, 0.0, 0.0075, 31.85, -20.9)" gradientUnits="userSpaceOnUse" id="gradient21" r="819.2" spreadMethod="pad">
      <stop offset="0.0" stop-color="#ffd87e"/>
      <stop offset="1.0" stop-color="#c0884f"/>
    </radialGradient>
    <radialGradient cx="0" cy="0" gradientTransform="matrix(0.0047, 0.0, 0.0, 0.0047, 8.65, -25.85)" gradientUnits="userSpaceOnUse" id="gradient22" r="819.2" spreadMethod="pad">
      <stop offset="0.0" stop-color="#ffe787"/>
      <stop offset="1.0" stop-color="#a77545"/>
    </radialGradient>
    <radialGradient cx="0" cy="0" gradientTransform="matrix(0.0067, 0.0, 0.0, 0.0067, 10.2, -28.95)" gradientUnits="userSpaceOnUse" id="gradient23" r="819.2" spreadMethod="pad">
      <stop offset="0.0" stop-color="#ffe183"/>
      <stop offset="1.0" stop-color="#c0874e"/>
    </radialGradient>
    <radialGradient cx="0" cy="0" gradientTransform="matrix(0.0085, 0.0, 0.0, 0.0085, 16.35, -32.3)" gradientUnits="userSpaceOnUse" id="gradient24" r="819.2" spreadMethod="pad">
      <stop offset="0.0" stop-color="#ffe183"/>
      <stop offset="1.0" stop-color="#ab7946"/>
    </radialGradient>
    <radialGradient cx="0" cy="0" gradientTransform="matrix(0.0095, 0.0, 0.0, 0.0095, 11.75, -28.65)" gradientUnits="userSpaceOnUse" id="gradient25" r="819.2" spreadMethod="pad">
      <stop offset="0.0" stop-color="#ffdf82"/>
      <stop offset="1.0" stop-color="#624528"/>
    </radialGradient>
    <radialGradient cx="0" cy="0" gradientTransform="matrix(0.0075, 0.0, 0.0, 0.0075, 11.6, -27.25)" gradientUnits="userSpaceOnUse" id="gradient26" r="819.2" spreadMethod="pad">
      <stop offset="0.0" stop-color="#ffe284"/>
      <stop offset="1.0" stop-color="#886038"/>
    </radialGradient>
    <radialGradient cx="0" cy="0" gradientTransform="matrix(0.0083, 0.0, 0.0, 0.0083, 15.25, -22.7)" gradientUnits="userSpaceOnUse" id="gradient27" r="819.2" spreadMethod="pad">
      <stop offset="0.0" stop-color="#9b6d3f"/>
      <stop offset="1.0" stop-color="#261b10"/>
    </radialGradient>
    <radialGradient cx="0" cy="0" gradientTransform="matrix(0.0127, 0.0, 0.0, 0.0127, 18.45, -17.85)" gradientUnits="userSpaceOnUse" id="gradient28" r="819.2" spreadMethod="pad">
      <stop offset="0.0" stop-color="#675e5e"/>
      <stop offset="1.0" stop-color="#453e3e"/>
    </radialGradient>
    <radialGradient cx="0" cy="0" gradientTransform="matrix(0.0033, 0.0, 0.0, 0.0033, 12.8, -22.0)" gradientUnits="userSpaceOnUse" id="gradient29" r="819.2" spreadMethod="pad">
      <stop offset="0.0" stop-color="#fff08c"/>
      <stop offset="1.0" stop-color="#d69e5c"/>
    </radialGradient>
    <radialGradient cx="0" cy="0" gradientTransform="matrix(0.0045, 0.0, 0.0, 0.0045, 10.25, -21.8)" gradientUnits="userSpaceOnUse" id="gradient30" r="819.2" spreadMethod="pad">
      <stop offset="0.0" stop-color="#665f4a"/>
      <stop offset="1.0" stop-color="#322e24"/>
    </radialGradient>
    <radialGradient cx="0" cy="0" gradientTransform="matrix(0.0037, 0.0, 0.0, 0.0037, 13.75, -21.4)" gradientUnits="userSpaceOnUse" id="gradient31" r="819.2" spreadMethod="pad">
      <stop offset="0.0" stop-color="#6f6851"/>
      <stop offset="1.0" stop-color="#383529"/>
    </radialGradient>
    <radialGradient cx="0" cy="0" gradientTransform="matrix(0.0097, 0.0, 0.0, 0.0097, 15.7, -11.2)" gradientUnits="userSpaceOnUse" id="gradient32" r="819.2" spreadMethod="pad">
      <stop offset="0.0" stop-color="#685f5f"/>
      <stop offset="1.0" stop-color="#453e3e"/>
    </radialGradient>
    <radialGradient cx="0" cy="0" gradientTransform="matrix(0.008, 0.0, 0.0, 0.008, 14.0, -16.85)" gradientUnits="userSpaceOnUse" id="gradient33" r="819.2" spreadMethod="pad">
      <stop offset="0.0" stop-color="#433d3d"/>
      <stop offset="1.0" stop-color="#242121"/>
    </radialGradient>
    <radialGradient cx="0" cy="0" gradientTransform="matrix(0.0128, 0.0, 0.0, 0.0128, 9.65, -9.05)" gradientUnits="userSpaceOnUse" id="gradient34" r="819.2" spreadMethod="pad">
      <stop offset="0.0" stop-color="#3e3a2d"/>
      <stop offset="1.0" stop-color="#2b281f"/>
    </radialGradient>
    <radialGradient cx="0" cy="0" gradientTransform="matrix(0.0114, 0.0, 0.0, 0.0114, 22.25, -17.9)" gradientUnits="userSpaceOnUse" id="gradient35" r="819.2" spreadMethod="pad">
      <stop offset="0.0" stop-color="#6c654e"/>
      <stop offset="1.0" stop-color="#3b372b"/>
    </radialGradient>
    <radialGradient cx="0" cy="0" gradientTransform="matrix(0.013, 0.0, 0.0, 0.013, 18.3, -16.0)" gradientUnits="userSpaceOnUse" id="gradient36" r="819.2" spreadMethod="pad">
      <stop offset="0.0" stop-color="#ffffff"/>
      <stop offset="1.0" stop-color="#a7a7a7"/>
    </radialGradient>
    <radialGradient cx="0" cy="0" gradientTransform="matrix(0.0158, 0.0, 0.0, 0.0158, 13.95, -16.65)" gradientUnits="userSpaceOnUse" id="gradient37" r="819.2" spreadMethod="pad">
      <stop offset="0.0" stop-color="#0c0c09"/>
      <stop offset="1.0" stop-color="#0c0c09"/>
    </radialGradient>
    <radialGradient cx="0" cy="0" gradientTransform="matrix(0.0067, 0.0, 0.0, 0.0067, 20.0, -13.9)" gradientUnits="userSpaceOnUse" id="gradient38" r="819.2" spreadMethod="pad">
      <stop offset="0.0" stop-color="#938686"/>
      <stop offset="1.0" stop-color="#3c3636"/>
    </radialGradient>
    <radialGradient cx="0" cy="0" gradientTransform="matrix(0.0028, 0.0, 0.0, 0.0028, 8.4, -23.05)" gradientUnits="userSpaceOnUse" id="gradient39" r="819.2" spreadMethod="pad">
      <stop offset="0.0" stop-color="#ffbc6e"/>
      <stop offset="1.0" stop-color="#72502f"/>
    </radialGradient>
    <radialGradient cx="0" cy="0" gradientTransform="matrix(0.0036, 0.0, 0.0, 0.0036, 7.6, -25.5)" gradientUnits="userSpaceOnUse" id="gradient40" r="819.2" spreadMethod="pad">
      <stop offset="0.0" stop-color="#9a6d3f"/>
      <stop offset="1.0" stop-color="#261b10"/>
    </radialGradient>
    <radialGradient cx="0" cy="0" gradientTransform="matrix(0.0055, 0.0, 0.0, 0.0055, 8.05, -3.5)" gradientUnits="userSpaceOnUse" id="gradient41" r="819.2" spreadMethod="pad">
      <stop offset="0.0" stop-color="#746d55"/>
      <stop offset="1.0" stop-color="#413d2f"/>
    </radialGradient>
    <radialGradient cx="0" cy="0" gradientTransform="matrix(0.0051, 0.0, 0.0, 0.0051, 11.45, -4.15)" gradientUnits="userSpaceOnUse" id="gradient42" r="819.2" spreadMethod="pad">
      <stop offset="0.0" stop-color="#ffffff"/>
      <stop offset="1.0" stop-color="#b3b3b3"/>
    </radialGradient>
    <radialGradient cx="0" cy="0" gradientTransform="matrix(0.0023, 0.0, 0.0, 0.0023, 9.6, -7.45)" gradientUnits="userSpaceOnUse" id="gradient43" r="819.2" spreadMethod="pad">
      <stop offset="0.0" stop-color="#bb844d"/>
      <stop offset="1.0" stop-color="#74522f"/>
    </radialGradient>
    <radialGradient cx="0" cy="0" gradientTransform="matrix(0.0032, 0.0, 0.0, 0.0032, 10.15, -5.85)" gradientUnits="userSpaceOnUse" id="gradient44" r="819.2" spreadMethod="pad">
      <stop offset="0.0" stop-color="#bb844d"/>
      <stop offset="1.0" stop-color="#543b22"/>
    </radialGradient>
    <radialGradient cx="0" cy="0" gradientTransform="matrix(0.0042, 0.0, 0.0, 0.0042, 9.8, -6.0)" gradientUnits="userSpaceOnUse" id="gradient45" r="819.2" spreadMethod="pad">
      <stop offset="0.0" stop-color="#c58b51"/>
      <stop offset="1.0" stop-color="#b07c48"/>
    </radialGradient>
    <radialGradient cx="0" cy="0" gradientTransform="matrix(0.0045, 0.0, 0.0, 0.0045, 6.95, -2.4)" gradientUnits="userSpaceOnUse" id="gradient46" r="819.2" spreadMethod="pad">
      <stop offset="0.0" stop-color="#9f2323"/>
      <stop offset="1.0" stop-color="#731919"/>
    </radialGradient>
    <radialGradient cx="0" cy="0" gradientTransform="matrix(0.0044, 0.0, 0.0, 0.0044, 5.95, -1.35)" gradientUnits="userSpaceOnUse" id="gradient47" r="819.2" spreadMethod="pad">
      <stop offset="0.0" stop-color="#776f56"/>
      <stop offset="1.0" stop-color="#4c4737"/>
    </radialGradient>
    <radialGradient cx="0" cy="0" gradientTransform="matrix(0.0086, 0.0, 0.0, 0.0086, 25.25, -11.6)" gradientUnits="userSpaceOnUse" id="gradient48" r="819.2" spreadMethod="pad">
      <stop offset="0.0" stop-color="#978a8a"/>
      <stop offset="1.0" stop-color="#443d3d"/>
    </radialGradient>
    <radialGradient cx="0" cy="0" gradientTransform="matrix(0.0035, 0.0, 0.0, 0.0035, 10.1, 0.2)" gradientUnits="userSpaceOnUse" id="gradient49" r="819.2" spreadMethod="pad">
      <stop offset="0.0" stop-color="#bf2a2a"/>
      <stop offset="1.0" stop-color="#b32828"/>
    </radialGradient>
    <radialGradient cx="0" cy="0" gradientTransform="matrix(0.0049, 0.0, 0.0, 0.0049, 11.25, -2.25)" gradientUnits="userSpaceOnUse" id="gradient50" r="819.2" spreadMethod="pad">
      <stop offset="0.0" stop-color="#6a634d"/>
      <stop offset="1.0" stop-color="#4f4a39"/>
    </radialGradient>
    <radialGradient cx="0" cy="0" gradientTransform="matrix(0.0102, 0.0, 0.0, 0.0102, 41.0, -15.95)" gradientUnits="userSpaceOnUse" id="gradient51" r="819.2" spreadMethod="pad">
      <stop offset="0.0" stop-color="#ffd67d"/>
      <stop offset="1.0" stop-color="#c2894f"/>
    </radialGradient>
    <radialGradient cx="0" cy="0" gradientTransform="matrix(0.0084, 0.0, 0.0, 0.0084, 38.45, -17.1)" gradientUnits="userSpaceOnUse" id="gradient52" r="819.2" spreadMethod="pad">
      <stop offset="0.0" stop-color="#ffd57c"/>
      <stop offset="1.0" stop-color="#d39556"/>
    </radialGradient>
    <radialGradient cx="0" cy="0" gradientTransform="matrix(0.0054, 0.0, 0.0, 0.0054, 36.25, -15.05)" gradientUnits="userSpaceOnUse" id="gradient53" r="819.2" spreadMethod="pad">
      <stop offset="0.0" stop-color="#ffcb76"/>
      <stop offset="1.0" stop-color="#865f37"/>
    </radialGradient>
    <radialGradient cx="0" cy="0" gradientTransform="matrix(0.003, 0.0, 0.0, 0.003, 29.75, -15.5)" gradientUnits="userSpaceOnUse" id="gradient54" r="819.2" spreadMethod="pad">
      <stop offset="0.0" stop-color="#11100d"/>
      <stop offset="1.0" stop-color="#0c0c09"/>
    </radialGradient>
    <radialGradient cx="0" cy="0" gradientTransform="matrix(0.013, 0.0, 0.0, 0.013, 27.35, -10.5)" gradientUnits="userSpaceOnUse" id="gradient55" r="819.2" spreadMethod="pad">
      <stop offset="0.0" stop-color="#948787"/>
      <stop offset="1.0" stop-color="#5e5656"/>
    </radialGradient>
    <radialGradient cx="0" cy="0" gradientTransform="matrix(0.0031, 0.0, 0.0, 0.0031, 28.4, -16.85)" gradientUnits="userSpaceOnUse" id="gradient56" r="819.2" spreadMethod="pad">
      <stop offset="0.0" stop-color="#433f31"/>
      <stop offset="1.0" stop-color="#333025"/>
    </radialGradient>
    <radialGradient cx="0" cy="0" gradientTransform="matrix(0.0046, 0.0, 0.0, 0.0046, 38.65, -14.1)" gradientUnits="userSpaceOnUse" id="gradient57" r="819.2" spreadMethod="pad">
      <stop offset="0.0" stop-color="#ffd77d"/>
      <stop offset="1.0" stop-color="#e7ab64"/>
    </radialGradient>
    <radialGradient cx="0" cy="0" gradientTransform="matrix(0.0038, 0.0, 0.0, 0.0038, 41.8, -13.8)" gradientUnits="userSpaceOnUse" id="gradient58" r="819.2" spreadMethod="pad">
      <stop offset="0.0" stop-color="#ffd77d"/>
      <stop offset="1.0" stop-color="#f9b86a"/>
    </radialGradient>
    <radialGradient cx="0" cy="0" gradientTransform="matrix(0.0224, 0.0, 0.0, 0.0224, 31.8, 7.45)" gradientUnits="userSpaceOnUse" id="gradient59" r="819.2" spreadMethod="pad">
      <stop offset="0.0" stop-color="#897d7d"/>
      <stop offset="1.0" stop-color="#4d4646"/>
    </radialGradient>
    <radialGradient cx="0" cy="0" gradientTransform="matrix(0.0162, 0.0, 0.0, 0.0162, 25.75, 2.1)" gradientUnits="userSpaceOnUse" id="gradient60" r="819.2" spreadMethod="pad">
      <stop offset="0.0" stop-color="#645d48"/>
      <stop offset="1.0" stop-color="#403c2f"/>
    </radialGradient>
    <radialGradient cx="0" cy="0" gradientTransform="matrix(0.0116, 0.0, 0.0, 0.0116, 49.35, -10.2)" gradientUnits="userSpaceOnUse" id="gradient61" r="819.2" spreadMethod="pad">
      <stop offset="0.0" stop-color="#635c48"/>
      <stop offset="1.0" stop-color="#353227"/>
    </radialGradient>
    <radialGradient cx="0" cy="0" gradientTransform="matrix(0.0102, 0.0, 0.0, 0.0102, 48.6, -8.5)" gradientUnits="userSpaceOnUse" id="gradient62" r="819.2" spreadMethod="pad">
      <stop offset="0.0" stop-color="#11100d"/>
      <stop offset="1.0" stop-color="#0c0c09"/>
    </radialGradient>
    <radialGradient cx="0" cy="0" gradientTransform="matrix(0.002, 0.0, 0.0, 0.002, 44.1, -10.7)" gradientUnits="userSpaceOnUse" id="gradient63" r="819.2" spreadMethod="pad">
      <stop offset="0.0" stop-color="#211e18"/>
      <stop offset="1.0" stop-color="#1a1813"/>
    </radialGradient>
    <radialGradient cx="0" cy="0" gradientTransform="matrix(0.0045, 0.0, 0.0, 0.0045, 55.1, -8.15)" gradientUnits="userSpaceOnUse" id="gradient64" r="819.2" spreadMethod="pad">
      <stop offset="0.0" stop-color="#635c47"/>
      <stop offset="1.0" stop-color="#302d23"/>
    </radialGradient>
    <radialGradient cx="0" cy="0" gradientTransform="matrix(0.0034, 0.0, 0.0, 0.0034, 38.95, 1.4)" gradientUnits="userSpaceOnUse" id="gradient65" r="819.2" spreadMethod="pad">
      <stop offset="0.0" stop-color="#353227"/>
      <stop offset="1.0" stop-color="#0c0c09"/>
    </radialGradient>
    <radialGradient cx="0" cy="0" gradientTransform="matrix(0.0063, 0.0, 0.0, 0.0063, 30.65, 5.95)" gradientUnits="userSpaceOnUse" id="gradient66" r="819.2" spreadMethod="pad">
      <stop offset="0.0" stop-color="#ffcc77"/>
      <stop offset="1.0" stop-color="#825c35"/>
    </radialGradient>
    <radialGradient cx="0" cy="0" gradientTransform="matrix(0.0051, 0.0, 0.0, 0.0051, 30.65, 9.8)" gradientUnits="userSpaceOnUse" id="gradient67" r="819.2" spreadMethod="pad">
      <stop offset="0.0" stop-color="#ffd27a"/>
      <stop offset="1.0" stop-color="#b6804b"/>
    </radialGradient>
    <radialGradient cx="0" cy="0" gradientTransform="matrix(0.003, 0.0, 0.0, 0.003, 26.35, -0.35)" gradientUnits="userSpaceOnUse" id="gradient68" r="819.2" spreadMethod="pad">
      <stop offset="0.0" stop-color="#474040"/>
      <stop offset="1.0" stop-color="#3d3838"/>
    </radialGradient>
    <radialGradient cx="0" cy="0" gradientTransform="matrix(0.0048, 0.0, 0.0, 0.0048, 29.55, 6.4)" gradientUnits="userSpaceOnUse" id="gradient69" r="819.2" spreadMethod="pad">
      <stop offset="0.0" stop-color="#ffcd77"/>
      <stop offset="1.0" stop-color="#91663b"/>
    </radialGradient>
    <radialGradient cx="0" cy="0" gradientTransform="matrix(0.0045, 0.0, 0.0, 0.0045, 29.0, 12.3)" gradientUnits="userSpaceOnUse" id="gradient70" r="819.2" spreadMethod="pad">
      <stop offset="0.0" stop-color="#ffffff"/>
      <stop offset="1.0" stop-color="#b3b3b3"/>
    </radialGradient>
    <radialGradient cx="0" cy="0" gradientTransform="matrix(0.0045, 0.0, 0.0, 0.0045, 30.3, 14.25)" gradientUnits="userSpaceOnUse" id="gradient71" r="819.2" spreadMethod="pad">
      <stop offset="0.0" stop-color="#726b53"/>
      <stop offset="1.0" stop-color="#322e24"/>
    </radialGradient>
    <radialGradient cx="0" cy="0" gradientTransform="matrix(0.0066, 0.0, 0.0, 0.0066, 29.5, 15.7)" gradientUnits="userSpaceOnUse" id="gradient72" r="819.2" spreadMethod="pad">
      <stop offset="0.0" stop-color="#e83434"/>
      <stop offset="1.0" stop-color="#bc2929"/>
    </radialGradient>
    <radialGradient cx="0" cy="0" gradientTransform="matrix(0.0061, 0.0, 0.0, 0.0061, 33.45, 19.7)" gradientUnits="userSpaceOnUse" id="gradient73" r="819.2" spreadMethod="pad">
      <stop offset="0.0" stop-color="#ff3f3f"/>
      <stop offset="1.0" stop-color="#e83333"/>
    </radialGradient>
    <radialGradient cx="0" cy="0" gradientTransform="matrix(0.0058, 0.0, 0.0, 0.0058, 27.75, 18.55)" gradientUnits="userSpaceOnUse" id="gradient74" r="819.2" spreadMethod="pad">
      <stop offset="0.0" stop-color="#716a52"/>
      <stop offset="1.0" stop-color="#444031"/>
    </radialGradient>
    <radialGradient cx="0" cy="0" gradientTransform="matrix(0.0052, 0.0, 0.0, 0.0052, 33.4, 19.65)" gradientUnits="userSpaceOnUse" id="gradient75" r="819.2" spreadMethod="pad">
      <stop offset="0.0" stop-color="#746d54"/>
      <stop offset="1.0" stop-color="#464133"/>
    </radialGradient>
  </defs>
</svg>
