<?xml version="1.0" encoding="UTF-8" standalone="no"?>
<svg xmlns:ffdec="https://www.free-decompiler.com/flash" xmlns:xlink="http://www.w3.org/1999/xlink" ffdec:objectType="shape" height="65.0px" width="55.2px" xmlns="http://www.w3.org/2000/svg">
  <g transform="matrix(1.0, 0.0, 0.0, 1.0, 48.5, 33.55)">
    <path d="M-19.0 -32.75 L-19.0 -32.7 -19.4 -31.5 -19.5 -31.5 -19.25 -33.4 -19.05 -33.55 -19.0 -32.75" fill="url(#gradient0)" fill-rule="evenodd" stroke="none"/>
    <path d="M-19.25 -33.4 L-19.5 -31.5 -19.5 -31.35 -19.5 -31.25 -19.55 -31.15 -19.65 -30.6 -19.85 -30.6 -20.05 -30.35 -20.6 -28.65 -21.15 -25.65 -21.4 -25.5 -21.4 -24.5 -21.55 -24.55 -21.65 -24.6 -21.65 -24.7 -21.7 -24.75 -21.7 -24.85 -21.75 -25.05 -21.75 -25.2 -21.85 -25.5 -21.85 -25.65 -21.85 -25.8 -21.95 -25.85 -21.95 -26.7 -21.05 -29.1 -20.9 -29.35 -20.9 -29.4 -19.95 -32.15 -19.25 -33.4" fill="url(#gradient1)" fill-rule="evenodd" stroke="none"/>
    <path d="M-21.1 -29.35 L-20.9 -29.4 -20.9 -29.35 -21.1 -29.35" fill="url(#gradient2)" fill-rule="evenodd" stroke="none"/>
    <path d="M-21.05 -29.1 Q-23.65 -28.0 -21.1 -29.35 L-20.9 -29.35 -21.05 -29.1" fill="url(#gradient3)" fill-rule="evenodd" stroke="none"/>
    <path d="M-19.0 -32.7 L-19.0 -32.75 -18.95 -32.75 -19.0 -32.7 M-19.5 -31.5 L-19.4 -31.5 -19.5 -31.35 -19.5 -31.5" fill="url(#gradient4)" fill-rule="evenodd" stroke="none"/>
    <path d="M-19.4 -31.5 L-19.0 -32.7 -18.95 -32.75 -18.75 -33.1 -18.6 -33.05 -18.1 -30.8 -18.05 -30.4 -18.95 -27.75 -19.0 -27.75 -19.65 -30.6 -19.55 -31.15 -19.5 -31.25 -19.5 -31.35 -19.4 -31.5" fill="url(#gradient5)" fill-rule="evenodd" stroke="none"/>
    <path d="M-18.1 -30.8 L-17.85 -30.85 -18.05 -30.4 -18.1 -30.8 M-16.7 -30.9 L-15.65 -30.95 -14.8 -30.45 -13.6 -29.8 -14.15 -28.85 -14.55 -29.15 -15.15 -25.9 Q-16.05 -24.9 -15.5 -24.35 L-15.95 -24.0 -16.25 -24.85 -16.3 -26.7 -16.35 -27.05 -16.35 -27.55 -16.4 -27.75 -16.7 -30.9 M-21.95 -25.75 L-21.95 -25.8 -21.85 -25.8 -21.85 -25.65 -21.95 -25.75 M-14.55 -23.2 L-13.85 -22.6 -13.65 -22.7 -12.95 -23.65 -12.35 -24.9 -13.1 -26.95 -12.7 -28.6 -12.4 -28.0 -12.15 -27.55 -11.8 -26.7 -11.9 -25.85 -11.95 -25.6 -12.45 -23.65 -12.45 -23.6 -12.5 -23.25 -13.2 -22.75 -15.9 -21.55 -16.1 -21.55 -17.2 -21.7 -15.7 -22.5 -15.75 -22.6 -15.55 -22.85 -15.35 -22.6 -14.55 -23.2 M-18.85 -24.55 L-19.15 -23.45 -19.35 -23.2 -18.65 -22.35 -18.1 -21.9 -19.55 -22.3 -19.65 -22.35 -21.4 -24.5 -21.4 -25.5 -21.15 -25.65 Q-20.6 -22.4 -18.85 -24.55 M-21.85 -25.5 L-21.75 -25.2 -21.85 -25.25 -21.85 -25.5 M-21.8 -25.05 L-21.75 -25.05 -21.75 -25.0 -21.8 -25.05" fill="url(#gradient6)" fill-rule="evenodd" stroke="none"/>
    <path d="M-17.85 -30.85 L-17.0 -32.15 -16.7 -30.9 -16.4 -27.75 -16.35 -27.55 -16.35 -27.05 -16.3 -26.7 -16.25 -24.85 -16.35 -24.95 -16.4 -25.05 -16.45 -25.25 -16.7 -25.8 -17.0 -26.65 -17.45 -27.2 -17.9 -26.75 -18.6 -25.4 -18.95 -27.7 -18.95 -27.75 -18.05 -30.4 -17.85 -30.85 M-18.65 -22.35 L-19.35 -23.2 -19.15 -23.45 -18.65 -22.35" fill="url(#gradient7)" fill-rule="evenodd" stroke="none"/>
    <path d="M-14.8 -30.45 Q-12.05 -32.65 -9.25 -30.65 -6.65 -28.75 -8.0 -24.85 L-8.45 -24.35 Q-8.7 -25.7 -11.25 -26.45 L-12.15 -27.55 -12.4 -28.0 -12.55 -29.35 -12.45 -31.45 -12.55 -31.5 -12.95 -31.0 -13.2 -31.3 -13.45 -30.1 -13.6 -29.8 -14.8 -30.45" fill="url(#gradient8)" fill-rule="evenodd" stroke="none"/>
    <path d="M-8.0 -24.85 L-8.0 -23.1 -8.45 -24.35 -8.0 -24.85" fill="url(#gradient9)" fill-rule="evenodd" stroke="none"/>
    <path d="M-8.0 -23.1 L-8.0 -22.95 -7.95 -20.35 Q-8.5 -17.75 -9.45 -16.9 L-10.35 -16.05 -11.5 -15.55 -13.55 -15.75 Q-13.4 -18.3 -15.05 -19.8 L-15.0 -20.1 -14.3 -20.7 Q-14.25 -20.45 -12.75 -21.95 L-12.1 -23.65 -12.05 -24.3 -11.95 -25.6 -11.9 -25.85 -11.25 -26.45 Q-8.7 -25.7 -8.45 -24.35 L-8.0 -23.1" fill="url(#gradient10)" fill-rule="evenodd" stroke="none"/>
    <path d="M-10.35 -16.05 L-10.95 -13.45 -10.95 -13.35 -10.9 -11.8 -11.45 -10.5 -12.1 -9.65 -13.65 -9.75 -13.45 -8.65 -13.6 -8.45 -14.35 -7.95 -16.05 -7.4 -17.7 -7.4 Q-19.5 -8.05 -20.05 -9.2 L-20.05 -9.3 -20.15 -9.3 -20.95 -9.7 -21.05 -9.7 -22.55 -10.75 -24.9 -12.8 -24.0 -13.3 Q-23.15 -10.75 -19.9 -10.5 L-19.25 -10.5 Q-14.3 -11.2 -13.55 -15.75 L-11.5 -15.55 -10.35 -16.05 M-26.15 -21.45 Q-25.05 -25.15 -22.05 -25.65 L-22.0 -25.65 -21.95 -23.65 -21.55 -22.6 -20.95 -21.9 -20.2 -20.5 -19.3 -19.75 -20.65 -19.25 -22.05 -18.3 Q-24.1 -22.1 -26.15 -21.45 M-12.15 -27.55 L-11.25 -26.45 -11.9 -25.85 -11.8 -26.7 -12.15 -27.55 M-15.0 -20.1 L-15.05 -19.8 -15.2 -19.9 -15.0 -20.1" fill="url(#gradient11)" fill-rule="evenodd" stroke="none"/>
    <path d="M-12.55 -29.35 L-12.4 -28.0 -12.7 -28.6 -12.55 -29.35 M-13.45 -30.1 L-13.2 -31.3 -12.95 -31.0 -13.45 -30.1" fill="url(#gradient12)" fill-rule="evenodd" stroke="none"/>
    <path d="M-15.15 -25.9 L-15.35 -24.35 -15.25 -23.8 -14.9 -23.65 -14.55 -23.2 -15.35 -22.6 -15.55 -22.85 -15.5 -23.2 -15.95 -24.0 -15.5 -24.35 Q-16.05 -24.9 -15.15 -25.9 M-13.1 -26.95 L-14.15 -28.85 -13.6 -29.8 -13.45 -30.1 -12.95 -31.0 -12.55 -31.5 -12.45 -31.45 -12.55 -29.35 -12.7 -28.6 -13.1 -26.95" fill="url(#gradient13)" fill-rule="evenodd" stroke="none"/>
    <path d="M-18.95 -27.7 L-18.6 -25.4 -18.6 -25.25 -18.65 -25.2 -18.75 -24.75 -19.25 -28.45 -19.85 -30.6 -19.65 -30.6 -19.0 -27.75 -18.95 -27.7" fill="url(#gradient14)" fill-rule="evenodd" stroke="none"/>
    <path d="M-21.15 -25.65 L-20.6 -28.65 -20.05 -30.35 -19.85 -30.6 -19.25 -28.45 -18.75 -24.75 -18.8 -24.6 -18.85 -24.55 Q-20.6 -22.4 -21.15 -25.65" fill="url(#gradient15)" fill-rule="evenodd" stroke="none"/>
    <path d="M-12.45 -23.6 L-12.45 -23.65 -11.95 -25.6 -12.05 -24.3 -12.35 -23.65 -12.45 -23.6 M-17.2 -21.7 L-16.1 -21.55 Q-17.3 -21.15 -19.55 -22.3 L-18.1 -21.9 -17.8 -21.8 -17.75 -21.7 -17.2 -21.7 M-15.9 -21.55 L-13.2 -22.75 -12.5 -23.25 -13.55 -22.25 Q-15.5 -21.3 -15.9 -21.55 M-21.4 -24.5 L-19.65 -22.35 -20.25 -22.7 -21.4 -23.95 -21.55 -24.55 -21.4 -24.5 M-21.75 -25.2 L-21.75 -25.05 -21.8 -25.05 -21.85 -25.25 -21.75 -25.2" fill="url(#gradient16)" fill-rule="evenodd" stroke="none"/>
    <path d="M-22.0 -25.75 L-21.95 -25.75 -21.85 -25.65 -21.85 -25.5 -21.85 -25.25 -21.8 -25.05 -21.75 -25.0 -21.7 -24.85 -21.7 -24.75 -21.65 -24.7 -21.65 -24.6 -21.55 -24.55 -21.4 -23.95 -20.25 -22.7 -19.65 -22.35 -19.55 -22.3 Q-17.3 -21.15 -16.1 -21.55 L-15.9 -21.55 Q-15.5 -21.3 -13.55 -22.25 L-12.5 -23.25 -12.45 -23.6 -12.35 -23.65 -12.05 -24.3 -12.1 -23.65 -12.75 -21.95 Q-14.25 -20.45 -14.3 -20.7 -17.25 -19.0 -20.95 -21.9 L-21.55 -22.6 -21.95 -23.65 -22.0 -25.65 -22.0 -25.75" fill="url(#gradient17)" fill-rule="evenodd" stroke="none"/>
    <path d="M-21.95 -25.8 L-21.95 -25.85 -21.85 -25.8 -21.95 -25.8 M-21.75 -25.05 L-21.7 -24.85 -21.75 -25.0 -21.75 -25.05" fill="url(#gradient18)" fill-rule="evenodd" stroke="none"/>
    <path d="M-18.95 -27.75 L-18.95 -27.7 -19.0 -27.75 -18.95 -27.75" fill="url(#gradient19)" fill-rule="evenodd" stroke="none"/>
    <path d="M-15.15 -25.9 L-14.55 -29.15 -14.15 -28.85 -13.1 -26.95 -12.35 -24.9 -12.95 -23.65 -13.65 -22.7 -13.85 -22.6 -14.55 -23.2 -14.9 -23.65 -15.25 -23.8 -15.35 -24.35 -15.15 -25.9" fill="url(#gradient20)" fill-rule="evenodd" stroke="none"/>
    <path d="M-17.45 -27.2 L-17.0 -26.65 -16.7 -25.8 -17.45 -27.2 M-16.35 -24.95 L-16.25 -24.85 -15.95 -24.0 -15.5 -23.2 -15.55 -22.85 -15.75 -22.6 -15.95 -23.65 -16.35 -24.95" fill="url(#gradient21)" fill-rule="evenodd" stroke="none"/>
    <path d="M-18.6 -25.4 L-17.9 -26.75 -17.45 -27.2 -16.7 -25.8 -16.45 -25.25 -16.4 -25.05 -16.35 -24.95 -15.95 -23.65 -15.75 -22.6 -15.7 -22.5 -17.2 -21.7 -17.75 -21.7 -17.8 -21.8 -18.1 -21.9 -18.65 -22.35 -19.15 -23.45 -18.85 -24.55 -18.8 -24.6 -18.75 -24.75 -18.65 -25.2 -18.6 -25.25 -18.6 -25.4" fill="url(#gradient22)" fill-rule="evenodd" stroke="none"/>
    <path d="M-22.05 -25.65 L-22.0 -25.75 -22.0 -25.65 -22.05 -25.65" fill="url(#gradient23)" fill-rule="evenodd" stroke="none"/>
    <path d="M-24.9 -12.8 L-25.8 -12.45 -27.85 -12.3 Q-26.0 -15.15 -29.0 -16.4 -29.65 -17.75 -30.55 -18.4 L-31.3 -18.55 Q-30.05 -21.0 -26.15 -21.45 -24.1 -22.1 -22.05 -18.3 -21.45 -14.55 -24.0 -13.3 L-24.9 -12.8" fill="url(#gradient24)" fill-rule="evenodd" stroke="none"/>
    <path d="M-15.05 -19.8 Q-13.4 -18.3 -13.55 -15.75 -14.3 -11.2 -19.25 -10.5 L-19.9 -10.5 Q-23.15 -10.75 -24.0 -13.3 -21.45 -14.55 -22.05 -18.3 L-20.65 -19.25 -19.3 -19.75 Q-18.45 -19.05 -16.9 -19.2 L-15.2 -19.9 -15.05 -19.8" fill="url(#gradient25)" fill-rule="evenodd" stroke="none"/>
    <path d="M-14.3 -20.7 L-15.0 -20.1 -15.2 -19.9 -16.9 -19.2 Q-18.45 -19.05 -19.3 -19.75 L-20.2 -20.5 -20.95 -21.9 Q-17.25 -19.0 -14.3 -20.7" fill="url(#gradient26)" fill-rule="evenodd" stroke="none"/>
    <path d="M-8.0 -22.95 L-7.4 -22.2 Q-6.5 -18.4 -5.15 -17.05 L-5.45 -17.05 -5.8 -16.75 -6.4 -15.7 -7.35 -14.7 -9.45 -16.9 Q-8.5 -17.75 -7.95 -20.35 L-8.0 -22.95" fill="url(#gradient27)" fill-rule="evenodd" stroke="none"/>
    <path d="M-5.15 -17.05 Q-1.85 -16.55 -2.05 -14.4 L-2.2 -14.15 -2.5 -14.1 -3.85 -15.1 -4.85 -15.55 -6.4 -15.7 -5.8 -16.75 -5.45 -17.05 -5.15 -17.05" fill="url(#gradient28)" fill-rule="evenodd" stroke="none"/>
    <path d="M-2.05 -14.4 Q-2.4 -10.65 -5.25 -11.25 -7.8 -12.1 -7.35 -14.7 L-6.4 -15.7 -4.85 -15.55 -3.85 -15.1 -2.5 -14.1 -2.2 -14.15 -2.05 -14.4" fill="url(#gradient29)" fill-rule="evenodd" stroke="none"/>
    <path d="M-37.05 -14.4 Q-35.25 -18.2 -31.3 -18.55 L-30.55 -18.4 Q-29.65 -17.75 -29.0 -16.4 -31.95 -12.15 -36.35 -11.9 L-36.8 -12.0 -37.3 -13.05 -37.05 -14.4" fill="url(#gradient30)" fill-rule="evenodd" stroke="none"/>
    <path d="M-27.85 -12.3 Q-30.3 -8.25 -35.3 -7.65 L-35.5 -7.75 -35.7 -8.3 -36.05 -11.75 -36.35 -11.9 Q-31.95 -12.15 -29.0 -16.4 -26.0 -15.15 -27.85 -12.3" fill="url(#gradient31)" fill-rule="evenodd" stroke="none"/>
    <path d="M-35.3 -7.65 L-35.85 -6.7 -36.85 -5.6 -37.35 -5.2 -39.95 -4.15 -42.15 -2.35 -42.35 -2.35 Q-42.3 -2.6 -44.05 -3.45 L-45.5 -3.6 -44.9 -4.55 -44.85 -4.6 -44.8 -4.75 -44.75 -4.8 Q-43.55 -9.9 -38.75 -11.9 L-37.9 -12.1 -36.8 -12.0 -36.35 -11.9 -36.05 -11.75 -35.7 -8.3 -35.5 -7.75 -35.3 -7.65" fill="url(#gradient32)" fill-rule="evenodd" stroke="none"/>
    <path d="M-38.75 -11.9 L-38.55 -12.1 -37.3 -13.05 -36.8 -12.0 -37.9 -12.1 -38.75 -11.9" fill="url(#gradient33)" fill-rule="evenodd" stroke="none"/>
    <path d="M-38.55 -12.1 L-38.2 -13.15 -37.05 -14.4 -37.3 -13.05 -38.55 -12.1" fill="url(#gradient34)" fill-rule="evenodd" stroke="none"/>
    <path d="M-10.95 -13.45 L-10.15 -12.8 -9.35 -11.7 -9.05 -11.4 -8.7 -10.9 -8.6 -10.5 -8.5 -8.7 Q-9.15 -5.25 -9.45 -5.35 L-9.5 -5.4 -10.55 -6.25 -11.4 -6.65 Q-11.4 -7.5 -9.85 -9.55 L-9.75 -10.5 -10.05 -12.0 -10.95 -13.35 -10.95 -13.45 M-21.15 -8.95 L-21.05 -9.55 -20.95 -9.55 Q-19.55 -3.45 -12.1 -6.55 L-11.65 -6.05 -11.6 -5.15 -11.85 -4.75 -11.65 -4.3 -12.7 -4.0 Q-14.3 -3.9 -14.75 -4.5 L-15.15 -4.15 -17.15 -3.45 -18.1 -3.4 -19.0 -3.8 Q-21.5 -3.95 -21.15 -8.95" fill="url(#gradient35)" fill-rule="evenodd" stroke="none"/>
    <path d="M-10.95 -13.35 L-10.05 -12.0 -9.75 -10.5 -9.85 -9.55 Q-11.4 -7.5 -11.4 -6.65 L-11.8 -6.7 -12.1 -6.55 Q-19.55 -3.45 -20.95 -9.55 L-20.95 -9.7 -20.15 -9.3 -20.05 -9.2 Q-19.5 -8.05 -17.7 -7.4 L-16.05 -7.4 -14.35 -7.95 -13.6 -8.45 -13.45 -8.65 -13.65 -9.75 -12.1 -9.65 -11.45 -10.5 -10.9 -11.8 -10.95 -13.35" fill="url(#gradient36)" fill-rule="evenodd" stroke="none"/>
    <path d="M-20.05 -9.2 L-20.15 -9.3 -20.05 -9.3 -20.05 -9.2" fill="url(#gradient37)" fill-rule="evenodd" stroke="none"/>
    <path d="M-21.05 -9.55 L-21.05 -9.7 -20.95 -9.7 -20.95 -9.55 -21.05 -9.55" fill="url(#gradient38)" fill-rule="evenodd" stroke="none"/>
    <path d="M-9.05 -11.4 Q-6.85 -11.35 -3.35 -8.55 L-2.45 -7.55 -2.55 -7.25 -2.2 -6.85 Q-1.5 -1.8 -6.05 0.65 L-6.1 0.65 Q-6.55 -3.0 -9.45 -5.35 -9.15 -5.25 -8.5 -8.7 L-8.6 -10.5 -8.7 -10.9 -9.05 -11.4 M-8.9 -1.15 L-8.15 0.35 -7.95 1.15 -8.35 1.1 -8.9 -1.15" fill="url(#gradient39)" fill-rule="evenodd" stroke="none"/>
    <path d="M-7.25 4.25 L-7.55 4.65 -7.6 3.85 -7.55 2.65 -7.95 1.15 -8.15 0.35 -8.9 -1.15 -9.85 -4.45 Q-10.55 -5.65 -11.6 -5.15 L-11.65 -6.05 -12.1 -6.55 -11.8 -6.7 -11.4 -6.65 -10.55 -6.25 -9.5 -5.4 -9.45 -5.35 Q-6.55 -3.0 -6.1 0.65 L-6.05 0.85 -6.05 0.9 -6.1 1.4 -6.05 1.8 -6.35 2.65 -7.25 4.2 -7.25 4.25" fill="url(#gradient40)" fill-rule="evenodd" stroke="none"/>
    <path d="M-21.65 -1.8 Q-22.2 -2.95 -22.0 -6.5 L-21.15 -8.95 Q-21.5 -3.95 -19.0 -3.8 L-19.55 -3.6 -20.5 -4.15 -20.5 -3.9 -21.3 -3.55 -21.55 -1.8 -21.65 -1.8" fill="url(#gradient41)" fill-rule="evenodd" stroke="none"/>
    <path d="M-21.65 -1.65 L-21.65 -1.8 -21.55 -1.8 -21.65 -1.65 M-21.5 5.65 L-21.45 5.65 -21.45 5.75 -21.5 5.65" fill="url(#gradient42)" fill-rule="evenodd" stroke="none"/>
    <path d="M-9.7 2.95 L-9.65 4.2 Q-9.7 5.5 -13.05 6.45 L-13.3 6.5 -13.85 6.05 -14.2 6.05 -15.0 6.6 -15.7 6.45 -16.25 5.95 -16.8 6.55 -17.25 6.75 -18.4 5.85 -18.45 6.35 -18.8 6.75 -18.85 6.9 -19.75 6.25 -20.15 6.3 -20.3 6.6 -21.1 6.45 -21.1 6.0 -21.45 5.75 -21.45 5.65 -21.5 5.65 -21.8 3.05 -21.65 -1.65 -21.55 -1.8 -21.3 -3.55 -20.5 -3.9 -20.5 -4.15 -19.55 -3.6 -19.0 -3.8 -18.1 -3.4 -17.15 -3.45 -15.15 -4.15 -14.75 -4.5 Q-14.3 -3.9 -12.7 -4.0 L-11.65 -4.3 -10.95 -2.55 Q-10.15 2.75 -9.85 2.65 L-9.7 2.95" fill="url(#gradient43)" fill-rule="evenodd" stroke="none"/>
    <path d="M-3.35 -8.55 L-2.15 -7.9 -2.45 -7.55 -3.35 -8.55 M-5.3 5.45 L-5.35 5.4 -5.6 5.35 -5.65 5.35 -5.8 5.2 -5.8 5.15 -5.85 5.15 -6.0 5.1 -6.0 5.05 -6.05 5.05 -6.15 5.0 -6.2 4.95 -6.25 4.95 -6.4 4.8 -6.5 4.75 -6.55 4.7 -6.7 4.65 -6.75 4.55 -7.05 4.4 -7.1 4.4 -7.25 4.2 -6.35 2.65 -6.05 1.8 -5.9 1.35 -6.05 0.9 -6.05 0.85 -6.05 0.65 Q-1.5 -1.8 -2.2 -6.85 L-0.45 -4.8 Q1.55 -3.75 2.75 -1.85 L2.85 0.2 Q2.05 2.7 1.6 2.65 -2.3 6.75 -5.3 5.45 M-7.6 3.85 L-7.9 3.6 -8.35 1.1 -7.95 1.15 -7.55 2.65 -7.6 3.85" fill="url(#gradient44)" fill-rule="evenodd" stroke="none"/>
    <path d="M-2.15 -7.9 L0.05 -6.15 3.4 -2.7 3.65 -0.35 3.25 2.05 2.85 2.65 2.25 3.8 1.6 4.55 1.45 4.75 0.65 5.7 -0.85 6.1 -1.6 6.25 -3.65 6.25 -5.3 5.45 Q-2.3 6.75 1.6 2.65 2.05 2.7 2.85 0.2 L2.75 -1.85 Q1.55 -3.75 -0.45 -4.8 L-2.2 -6.85 -2.55 -7.25 -2.45 -7.55 -2.15 -7.9 M-5.65 5.35 L-6.15 5.0 -6.05 5.05 -6.0 5.1 -5.85 5.15 -5.8 5.2 -5.65 5.35 M-6.2 5.0 L-6.25 4.95 -6.2 4.95 -6.2 5.0" fill="url(#gradient45)" fill-rule="evenodd" stroke="none"/>
    <path d="M3.25 2.05 L3.55 2.9 3.55 3.55 3.5 4.1 Q2.8 6.95 -0.65 6.25 L-0.85 6.1 0.65 5.7 1.45 4.75 1.6 4.55 2.25 3.8 2.85 2.65 3.25 2.05" fill="url(#gradient46)" fill-rule="evenodd" stroke="none"/>
    <path d="M-0.7 7.2 L-1.6 6.25 -0.85 6.1 -0.65 6.25 -0.45 6.45 -0.7 7.2" fill="url(#gradient47)" fill-rule="evenodd" stroke="none"/>
    <path d="M-6.15 5.0 L-6.2 5.0 -6.2 4.95 -6.15 5.0 M-6.25 4.95 L-6.4 4.85 -6.4 4.8 -6.25 4.95 M-6.5 4.75 L-6.55 4.75 -6.55 4.7 -6.5 4.75 M-6.7 4.65 L-6.75 4.65 -6.75 4.55 -6.7 4.65 M-6.05 5.05 L-6.0 5.05 -6.0 5.1 -6.05 5.05 M-5.85 5.15 L-5.8 5.15 -5.8 5.2 -5.85 5.15" fill="url(#gradient48)" fill-rule="evenodd" stroke="none"/>
    <path d="M-6.4 4.85 L-6.5 4.75 -6.4 4.8 -6.4 4.85 M-6.55 4.75 L-6.7 4.65 -6.55 4.7 -6.55 4.75 M-6.75 4.65 L-7.05 4.4 -6.75 4.55 -6.75 4.65" fill="url(#gradient49)" fill-rule="evenodd" stroke="none"/>
    <path d="M-7.1 4.4 L-7.25 4.25 -7.25 4.2 -7.1 4.4" fill="url(#gradient50)" fill-rule="evenodd" stroke="none"/>
    <path d="M-6.05 1.8 L-6.1 1.4 -6.05 0.9 -5.9 1.35 -6.05 1.8" fill="url(#gradient51)" fill-rule="evenodd" stroke="none"/>
    <path d="M-6.1 0.65 L-6.05 0.65 -6.05 0.85 -6.1 0.65" fill="url(#gradient52)" fill-rule="evenodd" stroke="none"/>
    <path d="M-42.15 -2.35 Q-39.95 1.3 -43.95 2.9 L-43.6 2.65 Q-40.5 0.45 -42.35 -2.35 L-42.15 -2.35" fill="url(#gradient53)" fill-rule="evenodd" stroke="none"/>
    <path d="M-43.95 2.9 Q-47.2 3.75 -48.45 0.45 -48.75 -2.95 -45.5 -3.6 L-44.05 -3.45 Q-42.3 -2.6 -42.35 -2.35 -40.5 0.45 -43.6 2.65 L-43.95 2.9" fill="url(#gradient54)" fill-rule="evenodd" stroke="none"/>
    <path d="M-7.9 3.6 L-7.7 5.4 Q-8.0 5.6 -8.55 4.3 L-8.55 4.2 -8.8 4.05 -9.7 2.95 -9.85 2.65 Q-10.15 2.75 -10.95 -2.55 L-11.65 -4.3 -11.85 -4.75 -11.6 -5.15 Q-10.55 -5.65 -9.85 -4.45 L-8.9 -1.15 -8.35 1.1 -7.9 3.6" fill="url(#gradient55)" fill-rule="evenodd" stroke="none"/>
    <path d="M-8.55 4.3 L-8.8 4.05 -8.55 4.2 -8.55 4.3" fill="url(#gradient56)" fill-rule="evenodd" stroke="none"/>
    <path d="M-9.65 4.2 Q-7.6 9.9 -8.15 15.35 L-8.5 15.8 -9.1 16.7 Q-17.8 21.45 -18.05 15.8 -18.4 15.6 -18.5 9.9 L-20.15 6.3 -19.75 6.25 -18.85 6.9 -18.8 6.75 -18.45 6.35 -18.4 5.85 -17.25 6.75 -16.8 6.55 -16.25 5.95 -15.7 6.45 -15.0 6.6 -14.2 6.05 -13.85 6.05 -13.3 6.5 -13.05 6.45 Q-9.7 5.5 -9.65 4.2 M-21.3 12.5 L-21.15 11.3 Q-21.95 6.9 -21.5 5.65 L-21.45 5.75 -21.1 6.0 -21.1 6.45 -20.3 6.6 -21.3 8.55 Q-20.3 13.3 -20.8 15.05 L-20.9 15.25 -21.4 14.4 -21.35 12.6 -21.3 12.5" fill="url(#gradient57)" fill-rule="evenodd" stroke="none"/>
    <path d="M-21.5 12.75 L-21.3 12.5 -21.35 12.6 -21.5 12.75" fill="url(#gradient58)" fill-rule="evenodd" stroke="none"/>
    <path d="M-8.85 16.55 L-11.0 19.5 Q-12.65 20.45 -16.6 20.05 L-17.7 19.8 -18.35 19.7 -20.85 18.3 -20.9 18.2 -20.95 18.0 -21.1 17.8 -21.2 17.65 Q-22.15 16.8 -22.45 14.55 L-21.8 13.1 -21.75 13.05 -21.5 12.75 -21.35 12.6 -21.4 14.4 -20.9 15.25 -20.8 15.05 Q-20.3 13.3 -21.3 8.55 L-20.3 6.6 -20.15 6.3 -18.5 9.9 Q-18.4 15.6 -18.05 15.8 -17.8 21.45 -9.1 16.7 L-8.85 16.55" fill="url(#gradient59)" fill-rule="evenodd" stroke="none"/>
    <path d="M3.55 3.55 L4.75 4.75 5.55 5.85 5.5 6.0 3.85 7.5 0.5 9.7 -0.15 8.75 -0.7 7.2 -0.45 6.45 Q3.1 7.45 3.5 4.1 L3.55 3.55" fill="url(#gradient60)" fill-rule="evenodd" stroke="none"/>
    <path d="M5.5 6.0 Q7.6 7.4 6.1 10.7 3.6 12.25 0.5 9.7 L3.85 7.5 5.5 6.0" fill="url(#gradient61)" fill-rule="evenodd" stroke="none"/>
    <path d="M-0.65 6.25 Q2.8 6.95 3.5 4.1 3.1 7.45 -0.45 6.45 L-0.65 6.25" fill="url(#gradient62)" fill-rule="evenodd" stroke="none"/>
    <path d="M-8.15 15.35 L-8.25 15.85 -8.85 16.55 -9.1 16.7 -8.5 15.8 -8.15 15.35" fill="url(#gradient63)" fill-rule="evenodd" stroke="none"/>
    <path d="M-17.7 20.85 Q-17.7 23.3 -20.0 24.05 L-21.05 24.2 Q-24.25 24.3 -24.2 20.1 -23.45 17.85 -21.2 17.65 L-21.1 17.8 Q-23.2 18.7 -21.7 21.3 -19.7 23.8 -18.05 21.15 L-17.7 20.85" fill="url(#gradient64)" fill-rule="evenodd" stroke="none"/>
    <path d="M-25.6 21.85 L-25.6 21.8 -25.45 21.6 -25.15 21.35 -25.15 21.05 -25.15 21.0 -25.1 20.95 -25.05 20.9 -24.45 20.35 -24.25 20.15 -24.2 20.1 Q-24.25 24.3 -21.05 24.2 -23.15 24.5 -25.25 22.4 L-25.3 22.25 -25.6 22.5 -25.6 21.95 -25.6 21.85" fill="url(#gradient65)" fill-rule="evenodd" stroke="none"/>
    <path d="M-24.35 20.15 L-24.25 20.15 -24.45 20.35 -24.35 20.15" fill="url(#gradient66)" fill-rule="evenodd" stroke="none"/>
    <path d="M-26.0 23.9 L-25.7 22.1 -25.65 22.05 -25.65 21.95 -25.6 21.95 -25.6 22.5 -25.3 22.25 -25.25 22.4 -25.7 23.7 -26.0 23.9 M-25.45 21.6 L-25.15 21.05 -25.15 21.35 -25.45 21.6 M-25.05 20.9 L-24.9 20.5 -24.35 20.15 -24.45 20.35 -25.05 20.9" fill="url(#gradient67)" fill-rule="evenodd" stroke="none"/>
    <path d="M-16.6 20.05 L-17.7 20.85 -18.05 21.15 Q-19.55 22.4 -20.75 20.7 -21.95 18.2 -20.95 18.0 L-20.9 18.2 -20.85 18.3 Q-19.95 20.35 -17.7 19.8 L-16.6 20.05" fill="url(#gradient68)" fill-rule="evenodd" stroke="none"/>
    <path d="M-20.85 18.3 L-18.35 19.7 -17.7 19.8 Q-19.95 20.35 -20.85 18.3" fill="url(#gradient69)" fill-rule="evenodd" stroke="none"/>
    <path d="M-21.1 17.8 L-20.95 18.0 Q-21.95 18.2 -20.75 20.7 -19.55 22.4 -18.05 21.15 -19.7 23.8 -21.7 21.3 -23.2 18.7 -21.1 17.8" fill="url(#gradient70)" fill-rule="evenodd" stroke="none"/>
    <path d="M-20.0 24.05 L-19.35 26.8 -19.4 27.2 Q-23.15 23.5 -26.55 27.6 -26.45 25.7 -26.0 24.75 L-26.0 23.9 -25.7 23.7 -25.25 22.4 Q-23.15 24.5 -21.05 24.2 L-20.0 24.05" fill="url(#gradient71)" fill-rule="evenodd" stroke="none"/>
    <path d="M-25.65 21.95 L-25.6 21.85 -25.6 21.95 -25.65 21.95" fill="url(#gradient72)" fill-rule="evenodd" stroke="none"/>
    <path d="M-19.4 27.2 L-19.4 27.25 -19.35 27.45 Q-19.7 31.2 -22.75 31.45 -26.3 31.3 -26.55 27.6 -23.15 23.5 -19.4 27.2" fill="url(#gradient73)" fill-rule="evenodd" stroke="none"/>
  </g>
  <defs>
    <radialGradient cx="0" cy="0" gradientTransform="matrix(0.004, 0.0, 0.0, 0.004, -19.7, -30.45)" gradientUnits="userSpaceOnUse" id="gradient0" r="819.2" spreadMethod="pad">
      <stop offset="0.0" stop-color="#b42828"/>
      <stop offset="1.0" stop-color="#aa2626"/>
    </radialGradient>
    <radialGradient cx="0" cy="0" gradientTransform="matrix(0.0098, 0.0, 0.0, 0.0098, -21.05, -25.85)" gradientUnits="userSpaceOnUse" id="gradient1" r="819.2" spreadMethod="pad">
      <stop offset="0.0" stop-color="#cb2d2d"/>
      <stop offset="1.0" stop-color="#b12727"/>
    </radialGradient>
    <radialGradient cx="0" cy="0" gradientTransform="matrix(0.0019, 0.0, 0.0, 0.0019, -20.25, -29.3)" gradientUnits="userSpaceOnUse" id="gradient2" r="819.2" spreadMethod="pad">
      <stop offset="0.0" stop-color="#717171"/>
      <stop offset="1.0" stop-color="#4b4b4b"/>
    </radialGradient>
    <radialGradient cx="0" cy="0" gradientTransform="matrix(0.0027, 0.0, 0.0, 0.0027, -20.45, -29.6)" gradientUnits="userSpaceOnUse" id="gradient3" r="819.2" spreadMethod="pad">
      <stop offset="0.0" stop-color="#565656"/>
      <stop offset="1.0" stop-color="#202020"/>
    </radialGradient>
    <radialGradient cx="0" cy="0" gradientTransform="matrix(0.0041, 0.0, 0.0, 0.0041, -19.1, -32.65)" gradientUnits="userSpaceOnUse" id="gradient4" r="819.2" spreadMethod="pad">
      <stop offset="0.0" stop-color="#250808"/>
      <stop offset="1.0" stop-color="#1f0707"/>
    </radialGradient>
    <radialGradient cx="0" cy="0" gradientTransform="matrix(0.0051, 0.0, 0.0, 0.0051, -18.25, -31.1)" gradientUnits="userSpaceOnUse" id="gradient5" r="819.2" spreadMethod="pad">
      <stop offset="0.0" stop-color="#ee3535"/>
      <stop offset="1.0" stop-color="#e23232"/>
    </radialGradient>
    <radialGradient cx="0" cy="0" gradientTransform="matrix(0.0091, 0.0, 0.0, 0.0091, -16.55, -28.2)" gradientUnits="userSpaceOnUse" id="gradient6" r="819.2" spreadMethod="pad">
      <stop offset="0.0" stop-color="#ee3535"/>
      <stop offset="1.0" stop-color="#721919"/>
    </radialGradient>
    <radialGradient cx="0" cy="0" gradientTransform="matrix(0.0113, 0.0, 0.0, 0.0113, -16.85, -31.45)" gradientUnits="userSpaceOnUse" id="gradient7" r="819.2" spreadMethod="pad">
      <stop offset="0.0" stop-color="#dd3131"/>
      <stop offset="1.0" stop-color="#ad2626"/>
    </radialGradient>
    <radialGradient cx="0" cy="0" gradientTransform="matrix(0.0064, 0.0, 0.0, 0.0064, -12.05, -28.15)" gradientUnits="userSpaceOnUse" id="gradient8" r="819.2" spreadMethod="pad">
      <stop offset="0.0" stop-color="#ffe485"/>
      <stop offset="1.0" stop-color="#9a6d3f"/>
    </radialGradient>
    <radialGradient cx="0" cy="0" gradientTransform="matrix(0.0029, 0.0, 0.0, 0.0029, -8.7, -25.0)" gradientUnits="userSpaceOnUse" id="gradient9" r="819.2" spreadMethod="pad">
      <stop offset="0.0" stop-color="#d29456"/>
      <stop offset="1.0" stop-color="#a47343"/>
    </radialGradient>
    <radialGradient cx="0" cy="0" gradientTransform="matrix(0.0085, 0.0, 0.0, 0.0085, -13.5, -22.3)" gradientUnits="userSpaceOnUse" id="gradient10" r="819.2" spreadMethod="pad">
      <stop offset="0.0" stop-color="#ffe284"/>
      <stop offset="1.0" stop-color="#a87645"/>
    </radialGradient>
    <radialGradient cx="0" cy="0" gradientTransform="matrix(0.0202, 0.0, 0.0, 0.0202, -19.7, -22.95)" gradientUnits="userSpaceOnUse" id="gradient11" r="819.2" spreadMethod="pad">
      <stop offset="0.0" stop-color="#ffe082"/>
      <stop offset="1.0" stop-color="#b5804a"/>
    </radialGradient>
    <radialGradient cx="0" cy="0" gradientTransform="matrix(0.008, 0.0, 0.0, 0.008, -13.35, -29.65)" gradientUnits="userSpaceOnUse" id="gradient12" r="819.2" spreadMethod="pad">
      <stop offset="0.0" stop-color="#dd3131"/>
      <stop offset="1.0" stop-color="#b72828"/>
    </radialGradient>
    <radialGradient cx="0" cy="0" gradientTransform="matrix(0.0092, 0.0, 0.0, 0.0092, -15.6, -24.75)" gradientUnits="userSpaceOnUse" id="gradient13" r="819.2" spreadMethod="pad">
      <stop offset="0.0" stop-color="#ea3434"/>
      <stop offset="1.0" stop-color="#ad2626"/>
    </radialGradient>
    <radialGradient cx="0" cy="0" gradientTransform="matrix(0.0074, 0.0, 0.0, 0.0074, -18.75, -24.85)" gradientUnits="userSpaceOnUse" id="gradient14" r="819.2" spreadMethod="pad">
      <stop offset="0.0" stop-color="#a32424"/>
      <stop offset="1.0" stop-color="#942020"/>
    </radialGradient>
    <radialGradient cx="0" cy="0" gradientTransform="matrix(0.0075, 0.0, 0.0, 0.0075, -19.15, -24.65)" gradientUnits="userSpaceOnUse" id="gradient15" r="819.2" spreadMethod="pad">
      <stop offset="0.0" stop-color="#c62c2c"/>
      <stop offset="1.0" stop-color="#b22727"/>
    </radialGradient>
    <radialGradient cx="0" cy="0" gradientTransform="matrix(0.0108, 0.0, 0.0, 0.0108, -20.25, -22.75)" gradientUnits="userSpaceOnUse" id="gradient16" r="819.2" spreadMethod="pad">
      <stop offset="0.0" stop-color="#e7e7e7"/>
      <stop offset="1.0" stop-color="#e5e5e5"/>
    </radialGradient>
    <radialGradient cx="0" cy="0" gradientTransform="matrix(0.0117, 0.0, 0.0, 0.0117, -21.5, -23.15)" gradientUnits="userSpaceOnUse" id="gradient17" r="819.2" spreadMethod="pad">
      <stop offset="0.0" stop-color="#a9a9a9"/>
      <stop offset="1.0" stop-color="#8e8e8e"/>
    </radialGradient>
    <radialGradient cx="0" cy="0" gradientTransform="matrix(0.0108, 0.0, 0.0, 0.0108, -21.75, -25.25)" gradientUnits="userSpaceOnUse" id="gradient18" r="819.2" spreadMethod="pad">
      <stop offset="0.0" stop-color="#8b1f1f"/>
      <stop offset="1.0" stop-color="#1f0707"/>
    </radialGradient>
    <radialGradient cx="0" cy="0" gradientTransform="matrix(0.006, 0.0, 0.0, 0.006, -17.55, -31.65)" gradientUnits="userSpaceOnUse" id="gradient19" r="819.2" spreadMethod="pad">
      <stop offset="0.0" stop-color="#1f0707"/>
      <stop offset="1.0" stop-color="#1f0707"/>
    </radialGradient>
    <radialGradient cx="0" cy="0" gradientTransform="matrix(0.0072, 0.0, 0.0, 0.0072, -14.4, -23.35)" gradientUnits="userSpaceOnUse" id="gradient20" r="819.2" spreadMethod="pad">
      <stop offset="0.0" stop-color="#bd2a2a"/>
      <stop offset="1.0" stop-color="#9a2222"/>
    </radialGradient>
    <radialGradient cx="0" cy="0" gradientTransform="matrix(0.0056, 0.0, 0.0, 0.0056, -15.65, -23.05)" gradientUnits="userSpaceOnUse" id="gradient21" r="819.2" spreadMethod="pad">
      <stop offset="0.0" stop-color="#992222"/>
      <stop offset="1.0" stop-color="#8d1f1f"/>
    </radialGradient>
    <radialGradient cx="0" cy="0" gradientTransform="matrix(0.0054, 0.0, 0.0, 0.0054, -19.05, -23.15)" gradientUnits="userSpaceOnUse" id="gradient22" r="819.2" spreadMethod="pad">
      <stop offset="0.0" stop-color="#942121"/>
      <stop offset="1.0" stop-color="#881e1e"/>
    </radialGradient>
    <radialGradient cx="0" cy="0" gradientTransform="matrix(0.0017, 0.0, 0.0, 0.0017, -22.0, -25.7)" gradientUnits="userSpaceOnUse" id="gradient23" r="819.2" spreadMethod="pad">
      <stop offset="0.0" stop-color="#202020"/>
      <stop offset="1.0" stop-color="#202020"/>
    </radialGradient>
    <radialGradient cx="0" cy="0" gradientTransform="matrix(0.0088, 0.0, 0.0, 0.0088, -28.65, -16.2)" gradientUnits="userSpaceOnUse" id="gradient24" r="819.2" spreadMethod="pad">
      <stop offset="0.0" stop-color="#ffdc80"/>
      <stop offset="1.0" stop-color="#c58a50"/>
    </radialGradient>
    <radialGradient cx="0" cy="0" gradientTransform="matrix(0.0096, 0.0, 0.0, 0.0096, -20.65, -18.15)" gradientUnits="userSpaceOnUse" id="gradient25" r="819.2" spreadMethod="pad">
      <stop offset="0.0" stop-color="#ffe082"/>
      <stop offset="1.0" stop-color="#a67544"/>
    </radialGradient>
    <radialGradient cx="0" cy="0" gradientTransform="matrix(0.0085, 0.0, 0.0, 0.0085, -21.1, -22.35)" gradientUnits="userSpaceOnUse" id="gradient26" r="819.2" spreadMethod="pad">
      <stop offset="0.0" stop-color="#af7b48"/>
      <stop offset="1.0" stop-color="#765330"/>
    </radialGradient>
    <radialGradient cx="0" cy="0" gradientTransform="matrix(0.008, 0.0, 0.0, 0.008, -6.85, -16.95)" gradientUnits="userSpaceOnUse" id="gradient27" r="819.2" spreadMethod="pad">
      <stop offset="0.0" stop-color="#5f5945"/>
      <stop offset="1.0" stop-color="#3c382b"/>
    </radialGradient>
    <radialGradient cx="0" cy="0" gradientTransform="matrix(0.0029, 0.0, 0.0, 0.0029, -4.2, -15.3)" gradientUnits="userSpaceOnUse" id="gradient28" r="819.2" spreadMethod="pad">
      <stop offset="0.0" stop-color="#fff18c"/>
      <stop offset="1.0" stop-color="#bb844d"/>
    </radialGradient>
    <radialGradient cx="0" cy="0" gradientTransform="matrix(0.0038, 0.0, 0.0, 0.0038, -5.05, -14.3)" gradientUnits="userSpaceOnUse" id="gradient29" r="819.2" spreadMethod="pad">
      <stop offset="0.0" stop-color="#6f6851"/>
      <stop offset="1.0" stop-color="#383428"/>
    </radialGradient>
    <radialGradient cx="0" cy="0" gradientTransform="matrix(0.0084, 0.0, 0.0, 0.0084, -33.6, -12.35)" gradientUnits="userSpaceOnUse" id="gradient30" r="819.2" spreadMethod="pad">
      <stop offset="0.0" stop-color="#ffda7f"/>
      <stop offset="1.0" stop-color="#cb8f53"/>
    </radialGradient>
    <radialGradient cx="0" cy="0" gradientTransform="matrix(0.0108, 0.0, 0.0, 0.0108, -34.05, -10.25)" gradientUnits="userSpaceOnUse" id="gradient31" r="819.2" spreadMethod="pad">
      <stop offset="0.0" stop-color="#ffda7f"/>
      <stop offset="1.0" stop-color="#eaa560"/>
    </radialGradient>
    <radialGradient cx="0" cy="0" gradientTransform="matrix(0.0084, 0.0, 0.0, 0.0084, -40.65, -7.55)" gradientUnits="userSpaceOnUse" id="gradient32" r="819.2" spreadMethod="pad">
      <stop offset="0.0" stop-color="#645d48"/>
      <stop offset="1.0" stop-color="#413d2f"/>
    </radialGradient>
    <radialGradient cx="0" cy="0" gradientTransform="matrix(0.0025, 0.0, 0.0, 0.0025, -37.0, -11.65)" gradientUnits="userSpaceOnUse" id="gradient33" r="819.2" spreadMethod="pad">
      <stop offset="0.0" stop-color="#ffd179"/>
      <stop offset="1.0" stop-color="#c48a50"/>
    </radialGradient>
    <radialGradient cx="0" cy="0" gradientTransform="matrix(0.0031, 0.0, 0.0, 0.0031, -36.8, -13.65)" gradientUnits="userSpaceOnUse" id="gradient34" r="819.2" spreadMethod="pad">
      <stop offset="0.0" stop-color="#f6ae65"/>
      <stop offset="1.0" stop-color="#c68c51"/>
    </radialGradient>
    <radialGradient cx="0" cy="0" gradientTransform="matrix(0.0135, 0.0, 0.0, 0.0135, -16.75, -13.35)" gradientUnits="userSpaceOnUse" id="gradient35" r="819.2" spreadMethod="pad">
      <stop offset="0.0" stop-color="#6c654f"/>
      <stop offset="1.0" stop-color="#423e30"/>
    </radialGradient>
    <radialGradient cx="0" cy="0" gradientTransform="matrix(0.0136, 0.0, 0.0, 0.0136, -20.6, -8.55)" gradientUnits="userSpaceOnUse" id="gradient36" r="819.2" spreadMethod="pad">
      <stop offset="0.0" stop-color="#ffffff"/>
      <stop offset="1.0" stop-color="#b9b9b9"/>
    </radialGradient>
    <radialGradient cx="0" cy="0" gradientTransform="matrix(0.0214, 0.0, 0.0, 0.0214, -20.8, -26.3)" gradientUnits="userSpaceOnUse" id="gradient37" r="819.2" spreadMethod="pad">
      <stop offset="0.0" stop-color="#aa7846"/>
      <stop offset="1.0" stop-color="#261b10"/>
    </radialGradient>
    <radialGradient cx="0" cy="0" gradientTransform="matrix(0.0029, 0.0, 0.0, 0.0029, -21.05, -10.4)" gradientUnits="userSpaceOnUse" id="gradient38" r="819.2" spreadMethod="pad">
      <stop offset="0.0" stop-color="#868686"/>
      <stop offset="1.0" stop-color="#686868"/>
    </radialGradient>
    <radialGradient cx="0" cy="0" gradientTransform="matrix(0.0129, 0.0, 0.0, 0.0129, -10.05, -8.05)" gradientUnits="userSpaceOnUse" id="gradient39" r="819.2" spreadMethod="pad">
      <stop offset="0.0" stop-color="#908383"/>
      <stop offset="1.0" stop-color="#514a4a"/>
    </radialGradient>
    <radialGradient cx="0" cy="0" gradientTransform="matrix(0.0152, 0.0, 0.0, 0.0152, -12.35, -7.0)" gradientUnits="userSpaceOnUse" id="gradient40" r="819.2" spreadMethod="pad">
      <stop offset="0.0" stop-color="#67614b"/>
      <stop offset="1.0" stop-color="#3c392c"/>
    </radialGradient>
    <radialGradient cx="0" cy="0" gradientTransform="matrix(0.0058, 0.0, 0.0, 0.0058, -19.1, -5.0)" gradientUnits="userSpaceOnUse" id="gradient41" r="819.2" spreadMethod="pad">
      <stop offset="0.0" stop-color="#8a7d7d"/>
      <stop offset="1.0" stop-color="#5d5555"/>
    </radialGradient>
    <radialGradient cx="0" cy="0" gradientTransform="matrix(0.0087, 0.0, 0.0, 0.0087, -21.85, 2.65)" gradientUnits="userSpaceOnUse" id="gradient42" r="819.2" spreadMethod="pad">
      <stop offset="0.0" stop-color="#4c4545"/>
      <stop offset="1.0" stop-color="#121010"/>
    </radialGradient>
    <radialGradient cx="0" cy="0" gradientTransform="matrix(0.0142, 0.0, 0.0, 0.0142, -16.2, -2.5)" gradientUnits="userSpaceOnUse" id="gradient43" r="819.2" spreadMethod="pad">
      <stop offset="0.0" stop-color="#9b8e8e"/>
      <stop offset="1.0" stop-color="#6d6363"/>
    </radialGradient>
    <radialGradient cx="0" cy="0" gradientTransform="matrix(0.0103, 0.0, 0.0, 0.0103, -3.9, -2.05)" gradientUnits="userSpaceOnUse" id="gradient44" r="819.2" spreadMethod="pad">
      <stop offset="0.0" stop-color="#6f6565"/>
      <stop offset="1.0" stop-color="#3d3737"/>
    </radialGradient>
    <radialGradient cx="0" cy="0" gradientTransform="matrix(0.0141, 0.0, 0.0, 0.0141, -0.5, -4.95)" gradientUnits="userSpaceOnUse" id="gradient45" r="819.2" spreadMethod="pad">
      <stop offset="0.0" stop-color="#3b372b"/>
      <stop offset="1.0" stop-color="#28261d"/>
    </radialGradient>
    <radialGradient cx="0" cy="0" gradientTransform="matrix(0.0046, 0.0, 0.0, 0.0046, 2.0, 4.15)" gradientUnits="userSpaceOnUse" id="gradient46" r="819.2" spreadMethod="pad">
      <stop offset="0.0" stop-color="#766f56"/>
      <stop offset="1.0" stop-color="#333025"/>
    </radialGradient>
    <radialGradient cx="0" cy="0" gradientTransform="matrix(0.0019, 0.0, 0.0, 0.0019, -0.5, 5.75)" gradientUnits="userSpaceOnUse" id="gradient47" r="819.2" spreadMethod="pad">
      <stop offset="0.0" stop-color="#524d3c"/>
      <stop offset="1.0" stop-color="#3f3b2d"/>
    </radialGradient>
    <radialGradient cx="0" cy="0" gradientTransform="matrix(0.0049, 0.0, 0.0, 0.0049, -8.75, 2.45)" gradientUnits="userSpaceOnUse" id="gradient48" r="819.2" spreadMethod="pad">
      <stop offset="0.0" stop-color="#121010"/>
      <stop offset="1.0" stop-color="#121010"/>
    </radialGradient>
    <radialGradient cx="0" cy="0" gradientTransform="matrix(0.0038, 0.0, 0.0, 0.0038, -5.75, 5.25)" gradientUnits="userSpaceOnUse" id="gradient49" r="819.2" spreadMethod="pad">
      <stop offset="0.0" stop-color="#0c0c09"/>
      <stop offset="1.0" stop-color="#0c0c09"/>
    </radialGradient>
    <radialGradient cx="0" cy="0" gradientTransform="matrix(0.0029, 0.0, 0.0, 0.0029, -8.75, 2.5)" gradientUnits="userSpaceOnUse" id="gradient50" r="819.2" spreadMethod="pad">
      <stop offset="0.0" stop-color="#24221a"/>
      <stop offset="1.0" stop-color="#1e1c15"/>
    </radialGradient>
    <radialGradient cx="0" cy="0" gradientTransform="matrix(0.0023, 0.0, 0.0, 0.0023, -6.2, 0.1)" gradientUnits="userSpaceOnUse" id="gradient51" r="819.2" spreadMethod="pad">
      <stop offset="0.0" stop-color="#4e4939"/>
      <stop offset="1.0" stop-color="#4b4636"/>
    </radialGradient>
    <radialGradient cx="0" cy="0" gradientTransform="matrix(0.0022, 0.0, 0.0, 0.0022, -6.0, 1.4)" gradientUnits="userSpaceOnUse" id="gradient52" r="819.2" spreadMethod="pad">
      <stop offset="0.0" stop-color="#4e4938"/>
      <stop offset="1.0" stop-color="#4b4737"/>
    </radialGradient>
    <radialGradient cx="0" cy="0" gradientTransform="matrix(0.0051, 0.0, 0.0, 0.0051, -42.95, 1.6)" gradientUnits="userSpaceOnUse" id="gradient53" r="819.2" spreadMethod="pad">
      <stop offset="0.0" stop-color="#fab066"/>
      <stop offset="1.0" stop-color="#a87645"/>
    </radialGradient>
    <radialGradient cx="0" cy="0" gradientTransform="matrix(0.0051, 0.0, 0.0, 0.0051, -45.55, -1.15)" gradientUnits="userSpaceOnUse" id="gradient54" r="819.2" spreadMethod="pad">
      <stop offset="0.0" stop-color="#635d48"/>
      <stop offset="1.0" stop-color="#312d23"/>
    </radialGradient>
    <radialGradient cx="0" cy="0" gradientTransform="matrix(0.0126, 0.0, 0.0, 0.0126, -11.2, -4.45)" gradientUnits="userSpaceOnUse" id="gradient55" r="819.2" spreadMethod="pad">
      <stop offset="0.0" stop-color="#6d664f"/>
      <stop offset="1.0" stop-color="#464133"/>
    </radialGradient>
    <radialGradient cx="0" cy="0" gradientTransform="matrix(0.0023, 0.0, 0.0, 0.0023, -9.55, 2.8)" gradientUnits="userSpaceOnUse" id="gradient56" r="819.2" spreadMethod="pad">
      <stop offset="0.0" stop-color="#0c0c09"/>
      <stop offset="1.0" stop-color="#0c0c09"/>
    </radialGradient>
    <radialGradient cx="0" cy="0" gradientTransform="matrix(0.018, 0.0, 0.0, 0.018, -16.35, 5.45)" gradientUnits="userSpaceOnUse" id="gradient57" r="819.2" spreadMethod="pad">
      <stop offset="0.0" stop-color="#958888"/>
      <stop offset="1.0" stop-color="#4b4545"/>
    </radialGradient>
    <radialGradient cx="0" cy="0" gradientTransform="matrix(0.0031, 0.0, 0.0, 0.0031, -21.8, 12.95)" gradientUnits="userSpaceOnUse" id="gradient58" r="819.2" spreadMethod="pad">
      <stop offset="0.0" stop-color="#0c0c09"/>
      <stop offset="1.0" stop-color="#0c0c09"/>
    </radialGradient>
    <radialGradient cx="0" cy="0" gradientTransform="matrix(0.0149, 0.0, 0.0, 0.0149, -18.65, 9.8)" gradientUnits="userSpaceOnUse" id="gradient59" r="819.2" spreadMethod="pad">
      <stop offset="0.0" stop-color="#484435"/>
      <stop offset="1.0" stop-color="#343126"/>
    </radialGradient>
    <radialGradient cx="0" cy="0" gradientTransform="matrix(0.0058, 0.0, 0.0, 0.0058, 3.55, 7.55)" gradientUnits="userSpaceOnUse" id="gradient60" r="819.2" spreadMethod="pad">
      <stop offset="0.0" stop-color="#ff3e3e"/>
      <stop offset="1.0" stop-color="#b72828"/>
    </radialGradient>
    <radialGradient cx="0" cy="0" gradientTransform="matrix(0.005, 0.0, 0.0, 0.005, 3.85, 8.5)" gradientUnits="userSpaceOnUse" id="gradient61" r="819.2" spreadMethod="pad">
      <stop offset="0.0" stop-color="#776f56"/>
      <stop offset="1.0" stop-color="#524c3b"/>
    </radialGradient>
    <radialGradient cx="0" cy="0" gradientTransform="matrix(0.0054, 0.0, 0.0, 0.0054, 3.25, 4.75)" gradientUnits="userSpaceOnUse" id="gradient62" r="819.2" spreadMethod="pad">
      <stop offset="0.0" stop-color="#791b1b"/>
      <stop offset="1.0" stop-color="#581313"/>
    </radialGradient>
    <radialGradient cx="0" cy="0" gradientTransform="matrix(0.0037, 0.0, 0.0, 0.0037, -8.9, 16.45)" gradientUnits="userSpaceOnUse" id="gradient63" r="819.2" spreadMethod="pad">
      <stop offset="0.0" stop-color="#24221a"/>
      <stop offset="1.0" stop-color="#0c0c09"/>
    </radialGradient>
    <radialGradient cx="0" cy="0" gradientTransform="matrix(0.007, 0.0, 0.0, 0.007, -23.05, 19.4)" gradientUnits="userSpaceOnUse" id="gradient64" r="819.2" spreadMethod="pad">
      <stop offset="0.0" stop-color="#746c54"/>
      <stop offset="1.0" stop-color="#373428"/>
    </radialGradient>
    <radialGradient cx="0" cy="0" gradientTransform="matrix(0.006, 0.0, 0.0, 0.006, -24.75, 21.6)" gradientUnits="userSpaceOnUse" id="gradient65" r="819.2" spreadMethod="pad">
      <stop offset="0.0" stop-color="#992222"/>
      <stop offset="1.0" stop-color="#711919"/>
    </radialGradient>
    <radialGradient cx="0" cy="0" gradientTransform="matrix(0.0018, 0.0, 0.0, 0.0018, -25.2, 20.9)" gradientUnits="userSpaceOnUse" id="gradient66" r="819.2" spreadMethod="pad">
      <stop offset="0.0" stop-color="#1f0707"/>
      <stop offset="1.0" stop-color="#1f0707"/>
    </radialGradient>
    <radialGradient cx="0" cy="0" gradientTransform="matrix(0.0062, 0.0, 0.0, 0.0062, -24.9, 23.15)" gradientUnits="userSpaceOnUse" id="gradient67" r="819.2" spreadMethod="pad">
      <stop offset="0.0" stop-color="#57513f"/>
      <stop offset="1.0" stop-color="#373328"/>
    </radialGradient>
    <radialGradient cx="0" cy="0" gradientTransform="matrix(0.0049, 0.0, 0.0, 0.0049, -20.25, 18.6)" gradientUnits="userSpaceOnUse" id="gradient68" r="819.2" spreadMethod="pad">
      <stop offset="0.0" stop-color="#c88d52"/>
      <stop offset="1.0" stop-color="#835c36"/>
    </radialGradient>
    <radialGradient cx="0" cy="0" gradientTransform="matrix(0.0041, 0.0, 0.0, 0.0041, -20.2, 18.3)" gradientUnits="userSpaceOnUse" id="gradient69" r="819.2" spreadMethod="pad">
      <stop offset="0.0" stop-color="#a37343"/>
      <stop offset="1.0" stop-color="#634629"/>
    </radialGradient>
    <radialGradient cx="0" cy="0" gradientTransform="matrix(0.0049, 0.0, 0.0, 0.0049, -19.3, 21.1)" gradientUnits="userSpaceOnUse" id="gradient70" r="819.2" spreadMethod="pad">
      <stop offset="0.0" stop-color="#ffffff"/>
      <stop offset="1.0" stop-color="#898989"/>
    </radialGradient>
    <radialGradient cx="0" cy="0" gradientTransform="matrix(0.0059, 0.0, 0.0, 0.0059, -23.15, 24.35)" gradientUnits="userSpaceOnUse" id="gradient71" r="819.2" spreadMethod="pad">
      <stop offset="0.0" stop-color="#ff4040"/>
      <stop offset="1.0" stop-color="#751a1a"/>
    </radialGradient>
    <radialGradient cx="0" cy="0" gradientTransform="matrix(0.0032, 0.0, 0.0, 0.0032, -25.6, 21.6)" gradientUnits="userSpaceOnUse" id="gradient72" r="819.2" spreadMethod="pad">
      <stop offset="0.0" stop-color="#1f0707"/>
      <stop offset="1.0" stop-color="#1f0707"/>
    </radialGradient>
    <radialGradient cx="0" cy="0" gradientTransform="matrix(0.0047, 0.0, 0.0, 0.0047, -23.05, 27.7)" gradientUnits="userSpaceOnUse" id="gradient73" r="819.2" spreadMethod="pad">
      <stop offset="0.0" stop-color="#756d55"/>
      <stop offset="1.0" stop-color="#4a4535"/>
    </radialGradient>
  </defs>
</svg>
