<?xml version="1.0" encoding="UTF-8" standalone="no"?>
<svg xmlns:ffdec="https://www.free-decompiler.com/flash" xmlns:xlink="http://www.w3.org/1999/xlink" ffdec:objectType="shape" height="67.75px" width="34.5px" xmlns="http://www.w3.org/2000/svg">
  <g transform="matrix(1.0, 0.0, 0.0, 1.0, 12.5, 50.5)">
    <path d="M11.65 -50.5 L11.7 -49.55 11.15 -44.55 10.6 -44.1 11.65 -50.5" fill="url(#gradient0)" fill-rule="evenodd" stroke="none"/>
    <path d="M16.6 -43.9 L16.3 -43.35 14.7 -41.7 14.3 -41.55 14.6 -41.9 16.6 -43.9" fill="url(#gradient1)" fill-rule="evenodd" stroke="none"/>
    <path d="M15.6 -46.8 L15.5 -45.95 14.55 -43.5 13.8 -43.25 15.6 -46.8" fill="url(#gradient2)" fill-rule="evenodd" stroke="none"/>
    <path d="M14.55 -43.5 L15.95 -43.95 16.6 -43.9 14.6 -41.9 14.3 -41.55 14.0 -41.75 13.95 -41.75 13.75 -41.75 12.7 -42.7 13.1 -43.0 13.8 -43.25 14.55 -43.5" fill="url(#gradient3)" fill-rule="evenodd" stroke="none"/>
    <path d="M14.5 -46.05 L15.05 -46.55 15.6 -46.8 13.8 -43.25 13.1 -43.0 14.5 -46.05" fill="url(#gradient4)" fill-rule="evenodd" stroke="none"/>
    <path d="M14.65 -46.9 L14.5 -46.05 13.1 -43.0 12.7 -42.7 12.45 -42.7 14.65 -46.9" fill="url(#gradient5)" fill-rule="evenodd" stroke="none"/>
    <path d="M11.15 -44.55 L13.85 -46.7 14.65 -46.9 12.45 -42.7 11.85 -43.05 10.25 -42.95 9.65 -43.05 9.75 -43.35 10.6 -44.1 11.15 -44.55" fill="url(#gradient6)" fill-rule="evenodd" stroke="none"/>
    <path d="M16.65 -38.05 L15.6 -38.65 Q15.05 -39.25 14.5 -40.9 L13.8 -41.7 13.95 -41.75 14.0 -41.75 16.65 -38.05" fill="url(#gradient7)" fill-rule="evenodd" stroke="none"/>
    <path d="M15.6 -38.65 L15.5 -36.45 14.85 -35.55 14.05 -34.65 Q12.8 -34.7 12.05 -34.05 L11.55 -34.5 Q9.65 -34.15 8.3 -35.95 L7.9 -35.55 6.95 -36.65 7.25 -37.55 7.1 -37.65 5.95 -39.3 5.95 -39.35 5.95 -39.55 5.95 -39.85 5.95 -40.0 6.05 -40.1 6.15 -40.25 6.35 -40.5 6.4 -40.6 6.75 -40.85 7.05 -40.75 6.8 -40.65 6.8 -40.4 7.0 -40.25 7.3 -40.4 7.35 -40.85 7.95 -41.55 8.75 -41.5 8.8 -41.35 9.25 -41.25 10.1 -41.5 11.0 -42.0 11.2 -42.35 10.75 -42.75 10.25 -42.95 11.85 -43.05 12.45 -42.7 12.7 -42.7 13.75 -41.75 13.8 -41.7 14.5 -40.9 Q15.05 -39.25 15.6 -38.65 M13.25 -33.9 L13.05 -33.8 12.7 -33.75 13.25 -33.9 M6.85 -39.55 L6.55 -39.4 6.45 -38.9 6.85 -39.15 7.0 -39.4 6.85 -39.55 M8.4 -34.3 L8.35 -34.55 9.8 -34.0 8.95 -34.0 8.4 -34.3 M11.75 -36.7 L11.1 -37.75 8.65 -38.8 Q10.4 -36.3 11.75 -36.7" fill="url(#gradient8)" fill-rule="evenodd" stroke="none"/>
    <path d="M14.7 -41.7 L14.8 -41.55 15.45 -40.25 15.9 -39.65 16.7 -38.3 16.65 -38.05 14.0 -41.75 14.3 -41.55 14.7 -41.7 M13.8 -41.7 L13.75 -41.75 13.95 -41.75 13.8 -41.7" fill="url(#gradient9)" fill-rule="evenodd" stroke="none"/>
    <path d="M10.25 -42.95 L10.75 -42.75 11.2 -42.35 8.8 -41.35 8.75 -41.5 7.95 -41.55 8.15 -41.9 9.1 -43.0 9.65 -43.05 10.25 -42.95" fill="url(#gradient10)" fill-rule="evenodd" stroke="none"/>
    <path d="M11.2 -42.35 L11.0 -42.0 10.1 -41.5 9.25 -41.25 8.8 -41.35 11.2 -42.35" fill="url(#gradient11)" fill-rule="evenodd" stroke="none"/>
    <path d="M17.4 -41.2 L17.35 -40.85 15.9 -39.65 15.45 -40.25 17.4 -41.2" fill="url(#gradient12)" fill-rule="evenodd" stroke="none"/>
    <path d="M14.8 -41.55 L16.65 -41.5 17.4 -41.2 15.45 -40.25 14.8 -41.55" fill="url(#gradient13)" fill-rule="evenodd" stroke="none"/>
    <path d="M6.75 -42.45 L8.25 -44.7 Q12.85 -52.3 9.75 -43.35 L9.65 -43.05 9.1 -43.0 8.15 -41.9 7.95 -41.55 7.35 -40.85 7.25 -40.85 6.75 -42.45" fill="url(#gradient14)" fill-rule="evenodd" stroke="none"/>
    <path d="M6.4 -40.6 L6.4 -42.1 6.75 -42.45 7.25 -40.85 7.05 -40.75 6.75 -40.85 6.4 -40.6" fill="url(#gradient15)" fill-rule="evenodd" stroke="none"/>
    <path d="M5.9 -39.7 L5.95 -39.85 5.95 -39.55 5.9 -39.7 M5.95 -40.0 L6.0 -40.1 6.05 -40.1 5.95 -40.0 M6.15 -40.35 L6.35 -40.5 6.15 -40.25 6.15 -40.35 M5.95 -39.35 L5.95 -39.3 5.9 -39.35 5.95 -39.35" fill="url(#gradient16)" fill-rule="evenodd" stroke="none"/>
    <path d="M5.85 -39.55 L5.9 -39.7 5.95 -39.55 5.95 -39.35 5.9 -39.35 5.85 -39.55 M6.0 -40.1 L6.15 -40.35 6.15 -40.25 6.05 -40.1 6.0 -40.1 M5.95 -39.3 L7.1 -37.65 6.25 -38.5 5.95 -39.3" fill="url(#gradient17)" fill-rule="evenodd" stroke="none"/>
    <path d="M7.35 -40.85 L7.3 -40.4 7.0 -40.25 6.8 -40.4 6.8 -40.65 7.05 -40.75 7.25 -40.85 7.35 -40.85 M6.85 -39.55 L7.0 -39.4 6.85 -39.15 6.45 -38.9 6.55 -39.4 6.85 -39.55 M11.75 -36.7 Q10.4 -36.3 8.65 -38.8 L11.1 -37.75 11.75 -36.7" fill="url(#gradient18)" fill-rule="evenodd" stroke="none"/>
    <path d="M14.85 -35.55 L14.55 -34.75 Q13.75 -33.8 13.45 -33.95 L13.3 -33.9 13.25 -33.9 12.7 -33.75 12.45 -33.75 12.5 -34.0 10.95 -33.8 10.5 -33.9 9.8 -34.0 8.35 -34.55 6.65 -35.5 5.65 -36.5 5.6 -36.55 5.25 -37.6 5.85 -39.55 5.9 -39.35 5.95 -39.3 6.25 -38.5 7.1 -37.65 7.25 -37.55 6.95 -36.65 7.9 -35.55 8.3 -35.95 Q9.65 -34.15 11.55 -34.5 L12.05 -34.05 Q12.8 -34.7 14.05 -34.65 L14.85 -35.55" fill="url(#gradient19)" fill-rule="evenodd" stroke="none"/>
    <path d="M13.05 -33.8 L12.35 -33.35 12.45 -33.75 12.7 -33.75 13.05 -33.8 M6.15 -33.45 L5.65 -34.8 5.6 -36.5 5.65 -36.5 6.65 -35.5 8.35 -34.55 8.4 -34.3 6.9 -34.2 6.15 -33.45" fill="url(#gradient20)" fill-rule="evenodd" stroke="none"/>
    <path d="M5.6 -36.5 L5.6 -36.55 5.65 -36.5 5.6 -36.5" fill="url(#gradient21)" fill-rule="evenodd" stroke="none"/>
    <path d="M12.3 -33.15 L12.6 -32.45 Q12.7 -30.35 12.35 -29.95 L12.2 -29.75 11.3 -29.65 12.15 -32.15 12.3 -33.15 M6.15 -33.4 L6.15 -33.45 6.9 -34.2 8.4 -34.3 8.95 -34.0 9.8 -34.0 10.5 -33.9 Q9.1 -32.3 9.1 -32.6 L6.8 -30.15 Q5.2 -32.85 6.1 -33.3 L6.15 -33.4 M8.1 -29.95 L9.3 -31.4 10.8 -32.7 10.15 -29.7 8.1 -29.95" fill="url(#gradient22)" fill-rule="evenodd" stroke="none"/>
    <path d="M3.25 -33.55 L3.5 -33.55 3.25 -33.5 3.25 -33.55 M3.6 -33.55 L5.1 -33.65 6.15 -33.4 6.1 -33.3 3.6 -33.55" fill="url(#gradient23)" fill-rule="evenodd" stroke="none"/>
    <path d="M12.35 -29.95 L12.75 -29.6 13.65 -28.6 15.1 -26.4 Q10.15 -25.7 10.4 -17.45 L10.5 -17.2 9.35 -15.95 8.6 -14.7 7.4 -14.75 Q6.35 -16.65 3.0 -17.45 L1.65 -18.8 1.55 -18.95 -2.55 -24.9 Q-3.3 -26.4 -2.75 -27.3 L-2.75 -27.35 -2.6 -28.05 -2.3 -28.3 Q0.25 -27.1 0.1 -29.65 -1.85 -29.55 3.25 -33.5 L3.5 -33.55 3.6 -33.55 6.1 -33.3 Q5.2 -32.85 6.8 -30.15 L6.4 -29.65 Q4.75 -27.85 3.6 -25.75 L2.4 -23.3 2.3 -22.75 2.95 -22.05 4.5 -25.1 Q5.75 -27.3 7.8 -29.65 L8.1 -29.95 10.15 -29.7 10.15 -29.65 7.75 -23.05 7.45 -23.25 7.35 -22.3 6.75 -20.85 6.95 -20.65 7.55 -20.95 7.8 -21.1 8.15 -21.05 8.5 -22.45 11.3 -29.65 12.2 -29.75 12.35 -29.95" fill="url(#gradient24)" fill-rule="evenodd" stroke="none"/>
    <path d="M-2.8 -27.35 L-3.4 -27.6 -4.15 -27.95 -5.4 -29.2 -5.5 -29.45 -5.6 -29.65 Q-6.35 -32.0 -5.1 -33.45 -1.05 -37.65 3.25 -33.55 L3.25 -33.5 Q-1.85 -29.55 0.1 -29.65 0.25 -27.1 -2.3 -28.3 L-2.6 -28.05 -2.75 -27.35 -2.8 -27.35" fill="url(#gradient25)" fill-rule="evenodd" stroke="none"/>
    <path d="M10.5 -33.9 L10.95 -33.8 10.8 -32.7 9.3 -31.4 8.1 -29.95 7.8 -29.65 Q5.75 -27.3 4.5 -25.1 L2.95 -22.05 2.3 -22.75 2.4 -23.3 3.6 -25.75 Q4.75 -27.85 6.4 -29.65 L6.8 -30.15 9.1 -32.6 Q9.1 -32.3 10.5 -33.9" fill="url(#gradient26)" fill-rule="evenodd" stroke="none"/>
    <path d="M12.35 -33.35 L12.3 -33.15 12.15 -32.15 11.3 -29.65 8.5 -22.45 8.15 -21.05 7.8 -21.1 7.55 -20.95 6.95 -20.65 6.75 -20.85 7.35 -22.3 7.75 -23.05 10.15 -29.65 10.15 -29.7 10.8 -32.7 10.95 -33.8 12.5 -34.0 12.45 -33.75 12.35 -33.35" fill="url(#gradient27)" fill-rule="evenodd" stroke="none"/>
    <path d="M12.75 -29.6 Q15.85 -28.4 16.85 -25.95 L15.8 -26.4 15.1 -26.4 13.65 -28.6 12.75 -29.6" fill="url(#gradient28)" fill-rule="evenodd" stroke="none"/>
    <path d="M16.85 -25.95 Q21.55 -21.95 15.9 -15.25 14.85 -17.65 12.55 -16.55 L12.2 -16.55 11.55 -17.25 10.95 -17.4 10.5 -17.2 10.4 -17.45 Q10.15 -25.7 15.1 -26.4 L15.8 -26.4 16.85 -25.95" fill="url(#gradient29)" fill-rule="evenodd" stroke="none"/>
    <path d="M8.25 -44.7 L10.5 -49.15 Q11.15 -50.4 11.65 -50.5 L10.6 -44.1 9.75 -43.35 Q12.85 -52.3 8.25 -44.7" fill="url(#gradient30)" fill-rule="evenodd" stroke="none"/>
    <path d="M10.5 -17.2 L10.95 -17.4 11.55 -17.25 12.2 -16.55 11.95 -15.9 11.1 -14.6 10.4 -13.05 Q8.45 -11.55 8.3 -9.2 L8.15 -8.95 8.0 -8.9 7.95 -8.85 7.9 -8.75 7.85 -8.75 7.4 -10.25 7.5 -11.55 7.8 -12.8 8.6 -14.7 9.35 -15.95 10.5 -17.2" fill="url(#gradient31)" fill-rule="evenodd" stroke="none"/>
    <path d="M12.2 -16.55 L12.55 -16.55 11.95 -15.9 12.2 -16.55 M9.9 -9.15 L10.0 -8.55 10.3 -8.15 10.1 -8.1 9.95 -8.4 9.4 -8.35 9.3 -8.15 9.1 -8.35 9.9 -9.15 M10.4 -8.0 L11.0 -7.6 11.3 -7.6 12.65 -8.2 Q11.7 -7.3 10.9 -7.4 L10.8 -7.15 10.6 -6.95 10.65 -7.65 10.4 -8.0 M7.85 -8.75 L7.9 -8.75 7.9 -8.7 7.85 -8.75 M8.15 -8.95 L8.3 -9.2 8.35 -8.55 8.2 -8.55 8.15 -8.95 M8.65 -8.25 L8.7 -8.2 8.6 -8.15 8.65 -8.25" fill="url(#gradient32)" fill-rule="evenodd" stroke="none"/>
    <path d="M15.9 -15.25 L15.8 -13.9 15.1 -11.75 14.0 -9.7 12.65 -8.2 11.3 -7.6 11.0 -7.6 10.4 -8.0 10.3 -8.15 10.0 -8.55 9.9 -9.15 Q10.05 -11.7 10.45 -12.6 L10.4 -13.05 11.1 -14.6 11.95 -15.9 12.55 -16.55 Q14.85 -17.65 15.9 -15.25" fill="url(#gradient33)" fill-rule="evenodd" stroke="none"/>
    <path d="M10.4 -13.05 L10.45 -12.6 Q10.05 -11.7 9.9 -9.15 L9.1 -8.35 8.7 -8.2 8.65 -8.25 8.35 -8.55 8.3 -9.2 Q8.45 -11.55 10.4 -13.05" fill="url(#gradient34)" fill-rule="evenodd" stroke="none"/>
    <path d="M15.8 -13.9 L16.5 -13.2 17.1 -12.2 16.15 -12.2 15.1 -11.75 15.8 -13.9 M7.75 -5.6 L7.6 -5.85 9.35 -5.4 9.8 -5.2 Q13.4 -4.0 13.75 -5.2 L15.2 -6.25 16.0 -6.4 17.3 -6.35 17.2 -6.1 16.6 -5.2 Q10.4 0.0 7.95 -5.2 L7.9 -5.3 7.85 -5.5 7.75 -5.6" fill="url(#gradient35)" fill-rule="evenodd" stroke="none"/>
    <path d="M7.75 -23.05 L7.35 -22.3 7.45 -23.25 7.75 -23.05" fill="url(#gradient36)" fill-rule="evenodd" stroke="none"/>
    <path d="M1.2 -18.3 L1.55 -18.95 1.65 -18.8 1.55 -18.15 1.75 -16.55 2.1 -15.7 Q7.4 -12.45 7.8 -12.8 L7.5 -11.55 6.95 -11.55 6.15 -12.4 5.6 -12.7 5.05 -12.6 4.6 -12.8 Q3.25 -14.1 2.45 -14.2 L2.3 -14.4 1.65 -14.6 Q1.2 -16.45 1.45 -16.7 L1.25 -16.9 1.3 -17.45 1.1 -17.8 1.2 -18.25 1.2 -18.3" fill="url(#gradient37)" fill-rule="evenodd" stroke="none"/>
    <path d="M0.95 -18.1 L1.15 -18.25 1.2 -18.25 1.1 -17.8 1.3 -17.45 1.25 -16.9 1.45 -16.7 Q1.2 -16.45 1.65 -14.6 L2.3 -14.4 2.45 -14.2 Q3.25 -14.1 4.6 -12.8 L4.2 -11.35 Q4.1 -9.75 4.6 -8.75 0.6 -9.05 -0.6 -12.45 -1.2 -15.8 0.4 -17.45 L0.4 -17.5 0.95 -18.1" fill="url(#gradient38)" fill-rule="evenodd" stroke="none"/>
    <path d="M1.15 -18.25 L1.2 -18.3 1.2 -18.25 1.15 -18.25" fill="url(#gradient39)" fill-rule="evenodd" stroke="none"/>
    <path d="M6.75 -6.3 L6.75 -6.25 6.1 -5.35 6.15 -6.1 5.35 -5.2 5.15 -5.1 5.15 -5.2 5.0 -5.55 Q1.75 -4.25 -1.45 -9.7 -2.15 -10.35 -2.3 -11.9 L-2.3 -12.4 -2.3 -13.0 -1.4 -15.25 0.05 -17.2 0.65 -17.75 0.4 -17.5 0.4 -17.45 Q-1.2 -15.8 -0.6 -12.45 0.6 -9.05 4.6 -8.75 L5.6 -7.2 6.75 -6.3" fill="url(#gradient40)" fill-rule="evenodd" stroke="none"/>
    <path d="M0.65 -17.75 L0.95 -18.1 0.4 -17.5 0.65 -17.75" fill="url(#gradient41)" fill-rule="evenodd" stroke="none"/>
    <path d="M7.8 -12.8 Q7.4 -12.45 2.1 -15.7 L1.75 -16.55 1.55 -18.15 1.65 -18.8 3.0 -17.45 Q6.35 -16.65 7.4 -14.75 L8.6 -14.7 7.8 -12.8" fill="url(#gradient42)" fill-rule="evenodd" stroke="none"/>
    <path d="M7.6 -5.85 L6.75 -6.3 5.6 -7.2 4.6 -8.75 Q4.1 -9.75 4.2 -11.35 L4.6 -12.8 5.05 -12.6 5.6 -12.7 6.15 -12.4 6.95 -11.55 7.5 -11.55 7.4 -10.25 7.85 -8.75 7.9 -8.7 7.9 -8.55 7.85 -8.5 Q7.6 -5.9 9.0 -5.7 L9.15 -5.65 9.35 -5.4 7.6 -5.85" fill="url(#gradient43)" fill-rule="evenodd" stroke="none"/>
    <path d="M10.3 -8.15 L10.4 -8.0 10.65 -7.65 10.6 -6.95 10.15 -6.15 9.5 -5.75 9.15 -5.7 9.0 -5.7 Q7.6 -5.9 7.85 -8.5 L7.9 -8.55 7.9 -8.7 7.9 -8.75 7.95 -8.85 8.0 -8.9 8.15 -8.95 8.2 -8.55 8.35 -8.55 8.65 -8.25 8.6 -8.15 8.7 -8.2 9.1 -8.35 9.3 -8.15 9.4 -8.35 9.95 -8.4 10.1 -8.1 10.3 -8.15" fill="url(#gradient44)" fill-rule="evenodd" stroke="none"/>
    <path d="M6.75 -6.25 L4.3 -1.3 4.25 -1.25 4.25 -1.2 3.8 -0.35 -3.45 -0.55 Q-5.1 -1.55 -5.9 -3.55 L-5.3 -5.2 Q-2.65 -10.45 -2.3 -11.9 -2.15 -10.35 -1.45 -9.7 1.75 -4.25 5.0 -5.55 L5.15 -5.2 5.15 -5.1 5.35 -5.2 6.15 -6.1 6.1 -5.35 6.75 -6.25 M-6.35 -7.95 L-6.3 -8.1 -6.15 -8.25 -6.15 -8.35 -6.1 -8.5 -6.0 -8.65 -5.95 -8.7 -3.0 -13.65 -1.4 -15.25 -2.3 -13.0 -2.3 -12.4 Q-2.8 -12.65 -6.35 -7.95" fill="url(#gradient45)" fill-rule="evenodd" stroke="none"/>
    <path d="M9.0 -5.7 L9.15 -5.7 9.15 -5.65 9.0 -5.7" fill="url(#gradient46)" fill-rule="evenodd" stroke="none"/>
    <path d="M12.65 -8.2 L14.0 -9.7 15.5 -9.1 15.9 -8.85 16.5 -7.95 16.85 -7.1 16.7 -6.85 16.0 -6.4 15.2 -6.25 13.75 -5.2 Q13.4 -4.0 9.8 -5.2 L9.35 -5.4 9.15 -5.65 9.15 -5.7 9.5 -5.75 Q10.5 -5.85 10.65 -6.25 L10.8 -7.15 10.9 -7.4 Q11.7 -7.3 12.65 -8.2" fill="url(#gradient47)" fill-rule="evenodd" stroke="none"/>
    <path d="M7.8 -5.35 L7.8 -5.4 7.75 -5.5 7.75 -5.6 7.85 -5.5 7.9 -5.3 7.8 -5.35" fill="url(#gradient48)" fill-rule="evenodd" stroke="none"/>
    <path d="M19.7 -8.9 L21.65 -5.6 Q22.2 -4.2 21.85 -3.3 L21.65 -2.65 20.55 -4.05 19.4 -6.6 17.95 -6.6 Q18.75 -6.95 19.25 -7.65 L19.7 -8.9 M9.0 -1.95 L8.85 -2.95 7.85 -4.9 7.8 -5.35 7.9 -5.3 7.95 -5.2 Q10.4 0.0 16.6 -5.2 L17.2 -6.1 17.2 -5.2 Q16.35 -3.75 18.75 -1.4 L19.15 0.5 19.15 0.85 17.05 2.05 15.15 2.5 11.15 1.9 Q10.7 0.6 9.3 -0.3 L9.0 -1.7 9.0 -1.95" fill="url(#gradient49)" fill-rule="evenodd" stroke="none"/>
    <path d="M21.85 -3.3 L21.85 -2.35 21.65 -2.65 21.85 -3.3 M8.95 -1.7 L9.0 -1.95 9.0 -1.7 8.95 -1.7" fill="url(#gradient50)" fill-rule="evenodd" stroke="none"/>
    <path d="M21.85 -2.35 L20.05 2.1 Q17.7 3.95 16.1 4.2 L13.55 4.65 12.1 4.35 10.8 4.05 Q8.5 4.45 8.95 -1.7 L9.0 -1.7 9.3 -0.3 Q10.7 0.6 11.15 1.9 L15.15 2.5 17.05 2.05 19.15 0.85 19.15 0.5 18.75 -1.4 Q16.35 -3.75 17.2 -5.2 L17.2 -6.1 17.3 -6.35 17.95 -6.6 19.4 -6.6 20.55 -4.05 21.65 -2.65 21.85 -2.35" fill="url(#gradient51)" fill-rule="evenodd" stroke="none"/>
    <path d="M17.1 -12.2 L18.15 -11.9 18.9 -11.25 Q15.55 -10.85 15.5 -9.1 L14.0 -9.7 15.1 -11.75 16.15 -12.2 17.1 -12.2 M19.65 -9.1 L19.7 -8.9 19.25 -7.65 Q18.75 -6.95 17.95 -6.6 L17.3 -6.35 16.0 -6.4 16.7 -6.85 16.85 -7.1 16.5 -7.95 Q18.7 -7.8 19.65 -9.1" fill="url(#gradient52)" fill-rule="evenodd" stroke="none"/>
    <path d="M18.9 -11.25 Q20.3 -10.85 19.65 -9.1 18.7 -7.8 16.5 -7.95 L15.9 -8.85 15.5 -9.1 Q15.55 -10.85 18.9 -11.25" fill="url(#gradient53)" fill-rule="evenodd" stroke="none"/>
    <path d="M9.5 -5.75 L10.15 -6.15 10.6 -6.95 10.8 -7.15 10.65 -6.25 Q10.5 -5.85 9.5 -5.75" fill="url(#gradient54)" fill-rule="evenodd" stroke="none"/>
    <path d="M-8.55 -31.35 L-6.9 -32.85 -5.1 -33.45 Q-6.35 -32.0 -5.6 -29.65 L-5.5 -29.45 -5.95 -29.05 -7.35 -28.25 -8.85 -28.35 -9.3 -29.05 -9.3 -29.65 -9.0 -30.65 -8.55 -31.35" fill="url(#gradient55)" fill-rule="evenodd" stroke="none"/>
    <path d="M-5.4 -29.2 L-5.95 -29.05 -5.5 -29.45 -5.4 -29.2" fill="url(#gradient56)" fill-rule="evenodd" stroke="none"/>
    <path d="M-3.4 -27.6 L-5.0 -26.5 -6.95 -26.3 -7.65 -26.7 -7.8 -26.85 -7.35 -27.85 -7.35 -28.25 -5.95 -29.05 -5.4 -29.2 -4.15 -27.95 -3.4 -27.6" fill="url(#gradient57)" fill-rule="evenodd" stroke="none"/>
    <path d="M-8.65 -26.7 L-9.1 -26.85 Q-9.5 -27.2 -8.85 -28.35 L-7.35 -28.25 -7.35 -27.85 -7.8 -26.85 -8.65 -26.7" fill="url(#gradient58)" fill-rule="evenodd" stroke="none"/>
    <path d="M-6.95 -26.3 L-7.85 -26.65 -7.65 -26.7 -6.95 -26.3 M-9.75 -28.1 Q-10.55 -29.95 -8.55 -31.35 L-9.0 -30.65 -9.3 -29.65 -9.3 -29.05 -9.65 -28.6 -9.75 -28.1" fill="url(#gradient59)" fill-rule="evenodd" stroke="none"/>
    <path d="M-7.85 -26.65 L-8.65 -26.7 -7.8 -26.85 -7.65 -26.7 -7.85 -26.65 M-9.1 -26.85 Q-10.0 -27.2 -9.75 -28.1 L-9.65 -28.6 -9.3 -29.05 -8.85 -28.35 Q-9.5 -27.2 -9.1 -26.85" fill="url(#gradient60)" fill-rule="evenodd" stroke="none"/>
    <path d="M-2.75 -27.3 L-2.8 -27.35 -2.75 -27.35 -2.75 -27.3" fill="url(#gradient61)" fill-rule="evenodd" stroke="none"/>
    <path d="M-6.45 -7.7 L-6.4 -7.9 -6.35 -7.9 -6.45 -7.7 M-6.3 -8.1 L-6.25 -8.25 -6.15 -8.25 -6.3 -8.1" fill="url(#gradient62)" fill-rule="evenodd" stroke="none"/>
    <path d="M-6.4 -7.9 L-6.35 -7.95 -6.35 -7.9 -6.4 -7.9 M-6.25 -8.25 L-6.15 -8.35 -6.15 -8.25 -6.25 -8.25" fill="url(#gradient63)" fill-rule="evenodd" stroke="none"/>
    <path d="M3.8 -0.35 Q1.5 3.0 -1.85 1.7 L-2.8 1.45 -4.9 0.45 -5.8 -0.7 -5.9 -0.8 -7.75 -3.6 Q-7.25 -6.7 -6.45 -7.7 L-6.35 -7.9 -6.35 -7.95 Q-2.8 -12.65 -2.3 -12.4 L-2.3 -11.9 Q-2.65 -10.45 -5.3 -5.2 L-5.9 -3.55 Q-5.1 -1.55 -3.45 -0.55 L3.8 -0.35" fill="url(#gradient64)" fill-rule="evenodd" stroke="none"/>
    <path d="M-6.15 -0.35 L-5.9 -0.8 -5.8 -0.7 Q-5.95 3.2 -3.5 2.0 L-3.45 2.05 -3.5 2.2 Q-6.25 4.4 -6.25 -0.2 L-6.25 -0.25 -6.15 -0.35" fill="url(#gradient65)" fill-rule="evenodd" stroke="none"/>
    <path d="M-2.75 2.1 L-2.9 3.65 Q-3.55 5.0 -4.0 5.15 -7.5 6.75 -8.85 3.7 L-8.95 2.4 -8.55 1.1 -7.9 0.35 -7.25 -0.05 -6.15 -0.35 -6.25 -0.25 -6.3 -0.2 Q-8.2 0.85 -6.95 3.05 -3.8 5.25 -3.5 2.2 L-3.45 2.05 -2.75 2.1" fill="url(#gradient66)" fill-rule="evenodd" stroke="none"/>
    <path d="M-6.25 -0.2 Q-6.25 4.4 -3.5 2.2 -3.8 5.25 -6.95 3.05 -8.2 0.85 -6.3 -0.2 L-6.25 -0.2" fill="url(#gradient67)" fill-rule="evenodd" stroke="none"/>
    <path d="M-6.25 -0.25 L-6.25 -0.2 -6.3 -0.2 -6.25 -0.25" fill="url(#gradient68)" fill-rule="evenodd" stroke="none"/>
    <path d="M-3.5 2.0 Q-5.95 3.2 -5.8 -0.7 L-4.9 0.45 -2.8 1.45 -3.5 2.0" fill="url(#gradient69)" fill-rule="evenodd" stroke="none"/>
    <path d="M-1.85 1.7 L-2.75 2.1 -3.45 2.05 -3.5 2.0 -2.8 1.45 -1.85 1.7" fill="url(#gradient70)" fill-rule="evenodd" stroke="none"/>
    <path d="M-4.0 5.15 L-4.0 5.25 Q-5.0 7.7 -8.95 6.15 L-8.8 5.95 -9.1 5.75 Q-9.2 3.95 -8.85 3.7 -7.5 6.75 -4.0 5.15" fill="url(#gradient71)" fill-rule="evenodd" stroke="none"/>
    <path d="M-9.6 7.05 L-11.4 5.65 -11.85 4.95 Q-11.3 2.05 -8.55 1.1 L-8.95 2.4 -8.85 3.7 Q-9.2 3.95 -9.1 5.75 L-8.8 5.95 -8.95 6.15 -9.4 6.4 -9.6 7.05" fill="url(#gradient72)" fill-rule="evenodd" stroke="none"/>
    <path d="M-11.85 4.95 Q-14.2 -0.3 -7.9 0.35 L-8.55 1.1 Q-11.3 2.05 -11.85 4.95" fill="url(#gradient73)" fill-rule="evenodd" stroke="none"/>
    <path d="M-4.0 5.25 Q-2.9 7.65 -4.8 8.7 -6.95 9.75 -9.6 7.05 L-9.4 6.4 -8.95 6.15 Q-5.0 7.7 -4.0 5.25" fill="url(#gradient74)" fill-rule="evenodd" stroke="none"/>
    <path d="M16.1 4.2 L15.2 5.5 14.05 6.75 12.95 7.2 12.6 7.05 12.45 7.05 12.1 6.45 12.05 5.85 12.1 4.35 13.55 4.65 16.1 4.2" fill="url(#gradient75)" fill-rule="evenodd" stroke="none"/>
    <path d="M15.2 5.5 L14.5 7.65 Q11.4 9.3 11.0 7.05 L11.1 6.9 11.3 6.05 11.8 6.15 12.05 5.85 12.1 6.45 12.45 7.05 12.6 7.05 12.95 7.2 14.05 6.75 15.2 5.5" fill="url(#gradient76)" fill-rule="evenodd" stroke="none"/>
    <path d="M11.3 6.05 L10.9 5.35 10.8 4.05 12.1 4.35 12.05 5.85 11.8 6.15 11.3 6.05" fill="url(#gradient77)" fill-rule="evenodd" stroke="none"/>
    <path d="M14.5 7.65 L14.6 8.5 Q14.45 9.5 13.1 9.9 L11.1 9.3 10.3 8.75 Q10.1 7.8 10.9 7.1 L11.1 6.9 11.0 7.05 Q11.4 9.3 14.5 7.65" fill="url(#gradient78)" fill-rule="evenodd" stroke="none"/>
    <path d="M14.6 8.5 L15.2 9.35 15.2 9.9 15.15 10.45 15.0 11.05 Q14.45 12.25 14.1 12.2 10.2 13.5 8.95 10.55 8.55 7.35 10.9 7.1 10.1 7.8 10.3 8.75 L11.1 9.3 13.1 9.9 Q14.45 9.5 14.6 8.5" fill="url(#gradient79)" fill-rule="evenodd" stroke="none"/>
    <path d="M16.9 15.85 L16.9 16.0 16.1 16.25 13.7 16.6 13.5 16.5 13.35 16.0 12.55 15.05 12.45 14.8 Q14.05 12.7 14.1 12.2 14.45 12.25 15.0 11.05 L15.15 10.45 Q16.5 11.85 16.9 15.85" fill="url(#gradient80)" fill-rule="evenodd" stroke="none"/>
    <path d="M15.2 9.9 Q17.7 9.5 19.15 11.85 20.0 14.75 16.9 15.85 16.5 11.85 15.15 10.45 L15.2 9.9" fill="url(#gradient81)" fill-rule="evenodd" stroke="none"/>
    <path d="M13.5 16.5 Q6.25 19.0 8.3 12.9 L8.25 13.35 8.4 13.45 8.5 14.0 9.5 15.05 9.6 15.95 11.55 16.3 12.55 15.05 13.35 16.0 13.5 16.5" fill="url(#gradient82)" fill-rule="evenodd" stroke="none"/>
    <path d="M8.3 12.9 L8.95 10.55 Q10.2 13.5 14.1 12.2 14.05 12.7 12.45 14.8 L12.55 15.05 11.55 16.3 9.6 15.95 9.5 15.05 8.5 14.0 8.4 13.45 8.25 13.35 8.3 12.9" fill="url(#gradient83)" fill-rule="evenodd" stroke="none"/>
  </g>
  <defs>
    <radialGradient cx="0" cy="0" gradientTransform="matrix(0.0077, 0.0, 0.0, 0.0077, 10.6, -44.5)" gradientUnits="userSpaceOnUse" id="gradient0" r="819.2" spreadMethod="pad">
      <stop offset="0.0" stop-color="#a42525"/>
      <stop offset="1.0" stop-color="#9a2222"/>
    </radialGradient>
    <radialGradient cx="0" cy="0" gradientTransform="matrix(0.0049, 0.0, 0.0, 0.0049, 16.6, -44.1)" gradientUnits="userSpaceOnUse" id="gradient1" r="819.2" spreadMethod="pad">
      <stop offset="0.0" stop-color="#741a1a"/>
      <stop offset="1.0" stop-color="#671717"/>
    </radialGradient>
    <radialGradient cx="0" cy="0" gradientTransform="matrix(0.0057, 0.0, 0.0, 0.0057, 15.25, -46.3)" gradientUnits="userSpaceOnUse" id="gradient2" r="819.2" spreadMethod="pad">
      <stop offset="0.0" stop-color="#9b2222"/>
      <stop offset="1.0" stop-color="#962121"/>
    </radialGradient>
    <radialGradient cx="0" cy="0" gradientTransform="matrix(0.006, 0.0, 0.0, 0.006, 16.6, -44.1)" gradientUnits="userSpaceOnUse" id="gradient3" r="819.2" spreadMethod="pad">
      <stop offset="0.0" stop-color="#d42f2f"/>
      <stop offset="1.0" stop-color="#c72c2c"/>
    </radialGradient>
    <radialGradient cx="0" cy="0" gradientTransform="matrix(0.0042, 0.0, 0.0, 0.0042, 14.0, -43.85)" gradientUnits="userSpaceOnUse" id="gradient4" r="819.2" spreadMethod="pad">
      <stop offset="0.0" stop-color="#dd3131"/>
      <stop offset="1.0" stop-color="#d72f2f"/>
    </radialGradient>
    <radialGradient cx="0" cy="0" gradientTransform="matrix(0.0069, 0.0, 0.0, 0.0069, 14.3, -46.25)" gradientUnits="userSpaceOnUse" id="gradient5" r="819.2" spreadMethod="pad">
      <stop offset="0.0" stop-color="#8f2020"/>
      <stop offset="1.0" stop-color="#881e1e"/>
    </radialGradient>
    <radialGradient cx="0" cy="0" gradientTransform="matrix(0.0077, 0.0, 0.0, 0.0077, 14.3, -46.25)" gradientUnits="userSpaceOnUse" id="gradient6" r="819.2" spreadMethod="pad">
      <stop offset="0.0" stop-color="#d63030"/>
      <stop offset="1.0" stop-color="#c62c2c"/>
    </radialGradient>
    <radialGradient cx="0" cy="0" gradientTransform="matrix(0.0058, 0.0, 0.0, 0.0058, 13.7, -41.85)" gradientUnits="userSpaceOnUse" id="gradient7" r="819.2" spreadMethod="pad">
      <stop offset="0.0" stop-color="#d32f2f"/>
      <stop offset="1.0" stop-color="#af2626"/>
    </radialGradient>
    <radialGradient cx="0" cy="0" gradientTransform="matrix(0.0072, 0.0, 0.0, 0.0072, 10.25, -39.0)" gradientUnits="userSpaceOnUse" id="gradient8" r="819.2" spreadMethod="pad">
      <stop offset="0.0" stop-color="#ee3535"/>
      <stop offset="1.0" stop-color="#841d1d"/>
    </radialGradient>
    <radialGradient cx="0" cy="0" gradientTransform="matrix(0.0054, 0.0, 0.0, 0.0054, 16.45, -38.5)" gradientUnits="userSpaceOnUse" id="gradient9" r="819.2" spreadMethod="pad">
      <stop offset="0.0" stop-color="#972222"/>
      <stop offset="1.0" stop-color="#8b1f1f"/>
    </radialGradient>
    <radialGradient cx="0" cy="0" gradientTransform="matrix(0.0042, 0.0, 0.0, 0.0042, 8.0, -41.15)" gradientUnits="userSpaceOnUse" id="gradient10" r="819.2" spreadMethod="pad">
      <stop offset="0.0" stop-color="#b42828"/>
      <stop offset="1.0" stop-color="#a42424"/>
    </radialGradient>
    <radialGradient cx="0" cy="0" gradientTransform="matrix(0.0033, 0.0, 0.0, 0.0033, 11.1, -42.3)" gradientUnits="userSpaceOnUse" id="gradient11" r="819.2" spreadMethod="pad">
      <stop offset="0.0" stop-color="#4a1010"/>
      <stop offset="1.0" stop-color="#3b0d0d"/>
    </radialGradient>
    <radialGradient cx="0" cy="0" gradientTransform="matrix(0.0031, 0.0, 0.0, 0.0031, 15.05, -40.2)" gradientUnits="userSpaceOnUse" id="gradient12" r="819.2" spreadMethod="pad">
      <stop offset="0.0" stop-color="#641616"/>
      <stop offset="1.0" stop-color="#571313"/>
    </radialGradient>
    <radialGradient cx="0" cy="0" gradientTransform="matrix(0.0031, 0.0, 0.0, 0.0031, 15.05, -40.2)" gradientUnits="userSpaceOnUse" id="gradient13" r="819.2" spreadMethod="pad">
      <stop offset="0.0" stop-color="#b62929"/>
      <stop offset="1.0" stop-color="#b02727"/>
    </radialGradient>
    <radialGradient cx="0" cy="0" gradientTransform="matrix(0.0094, 0.0, 0.0, 0.0094, 7.0, -41.55)" gradientUnits="userSpaceOnUse" id="gradient14" r="819.2" spreadMethod="pad">
      <stop offset="0.0" stop-color="#ed3535"/>
      <stop offset="1.0" stop-color="#e03232"/>
    </radialGradient>
    <radialGradient cx="0" cy="0" gradientTransform="matrix(0.0018, 0.0, 0.0, 0.0018, 6.95, -41.1)" gradientUnits="userSpaceOnUse" id="gradient15" r="819.2" spreadMethod="pad">
      <stop offset="0.0" stop-color="#ac2626"/>
      <stop offset="1.0" stop-color="#a62525"/>
    </radialGradient>
    <radialGradient cx="0" cy="0" gradientTransform="matrix(0.007, 0.0, 0.0, 0.007, 5.75, -37.0)" gradientUnits="userSpaceOnUse" id="gradient16" r="819.2" spreadMethod="pad">
      <stop offset="0.0" stop-color="#1f0707"/>
      <stop offset="1.0" stop-color="#1f0707"/>
    </radialGradient>
    <radialGradient cx="0" cy="0" gradientTransform="matrix(0.0043, 0.0, 0.0, 0.0043, 7.15, -37.6)" gradientUnits="userSpaceOnUse" id="gradient17" r="819.2" spreadMethod="pad">
      <stop offset="0.0" stop-color="#9d9d9d"/>
      <stop offset="1.0" stop-color="#9c9c9c"/>
    </radialGradient>
    <radialGradient cx="0" cy="0" gradientTransform="matrix(0.007, 0.0, 0.0, 0.007, 7.2, -40.35)" gradientUnits="userSpaceOnUse" id="gradient18" r="819.2" spreadMethod="pad">
      <stop offset="0.0" stop-color="#bd2a2a"/>
      <stop offset="1.0" stop-color="#982121"/>
    </radialGradient>
    <radialGradient cx="0" cy="0" gradientTransform="matrix(0.008, 0.0, 0.0, 0.008, 9.7, -34.95)" gradientUnits="userSpaceOnUse" id="gradient19" r="819.2" spreadMethod="pad">
      <stop offset="0.0" stop-color="#d5d5d5"/>
      <stop offset="1.0" stop-color="#aaaaaa"/>
    </radialGradient>
    <radialGradient cx="0" cy="0" gradientTransform="matrix(0.0089, 0.0, 0.0, 0.0089, 6.25, -36.45)" gradientUnits="userSpaceOnUse" id="gradient20" r="819.2" spreadMethod="pad">
      <stop offset="0.0" stop-color="#d99959"/>
      <stop offset="1.0" stop-color="#886038"/>
    </radialGradient>
    <radialGradient cx="0" cy="0" gradientTransform="matrix(0.0061, 0.0, 0.0, 0.0061, 6.5, -35.75)" gradientUnits="userSpaceOnUse" id="gradient21" r="819.2" spreadMethod="pad">
      <stop offset="0.0" stop-color="#202020"/>
      <stop offset="1.0" stop-color="#202020"/>
    </radialGradient>
    <radialGradient cx="0" cy="0" gradientTransform="matrix(0.0056, 0.0, 0.0, 0.0056, 9.0, -33.05)" gradientUnits="userSpaceOnUse" id="gradient22" r="819.2" spreadMethod="pad">
      <stop offset="0.0" stop-color="#ffd37b"/>
      <stop offset="1.0" stop-color="#d59657"/>
    </radialGradient>
    <radialGradient cx="0" cy="0" gradientTransform="matrix(0.0025, 0.0, 0.0, 0.0025, 4.85, -33.45)" gradientUnits="userSpaceOnUse" id="gradient23" r="819.2" spreadMethod="pad">
      <stop offset="0.0" stop-color="#b17d49"/>
      <stop offset="1.0" stop-color="#6c4c2c"/>
    </radialGradient>
    <radialGradient cx="0" cy="0" gradientTransform="matrix(0.0206, 0.0, 0.0, 0.0206, -1.65, -25.2)" gradientUnits="userSpaceOnUse" id="gradient24" r="819.2" spreadMethod="pad">
      <stop offset="0.0" stop-color="#ffd47b"/>
      <stop offset="1.0" stop-color="#cf9254"/>
    </radialGradient>
    <radialGradient cx="0" cy="0" gradientTransform="matrix(0.008, 0.0, 0.0, 0.008, 0.5, -31.95)" gradientUnits="userSpaceOnUse" id="gradient25" r="819.2" spreadMethod="pad">
      <stop offset="0.0" stop-color="#ffd87e"/>
      <stop offset="1.0" stop-color="#b7804b"/>
    </radialGradient>
    <radialGradient cx="0" cy="0" gradientTransform="matrix(0.014, 0.0, 0.0, 0.014, 9.0, -31.9)" gradientUnits="userSpaceOnUse" id="gradient26" r="819.2" spreadMethod="pad">
      <stop offset="0.0" stop-color="#ffffff"/>
      <stop offset="1.0" stop-color="#e5e5e5"/>
    </radialGradient>
    <radialGradient cx="0" cy="0" gradientTransform="matrix(0.0109, 0.0, 0.0, 0.0109, 10.15, -29.1)" gradientUnits="userSpaceOnUse" id="gradient27" r="819.2" spreadMethod="pad">
      <stop offset="0.0" stop-color="#ffffff"/>
      <stop offset="1.0" stop-color="#f1f1f1"/>
    </radialGradient>
    <radialGradient cx="0" cy="0" gradientTransform="matrix(0.0047, 0.0, 0.0, 0.0047, 14.65, -26.85)" gradientUnits="userSpaceOnUse" id="gradient28" r="819.2" spreadMethod="pad">
      <stop offset="0.0" stop-color="#ffbd6e"/>
      <stop offset="1.0" stop-color="#976a3e"/>
    </radialGradient>
    <radialGradient cx="0" cy="0" gradientTransform="matrix(0.009, 0.0, 0.0, 0.009, 14.05, -22.35)" gradientUnits="userSpaceOnUse" id="gradient29" r="819.2" spreadMethod="pad">
      <stop offset="0.0" stop-color="#ffd37b"/>
      <stop offset="1.0" stop-color="#a87745"/>
    </radialGradient>
    <radialGradient cx="0" cy="0" gradientTransform="matrix(0.0077, 0.0, 0.0, 0.0077, 10.6, -44.5)" gradientUnits="userSpaceOnUse" id="gradient30" r="819.2" spreadMethod="pad">
      <stop offset="0.0" stop-color="#f13636"/>
      <stop offset="1.0" stop-color="#e93434"/>
    </radialGradient>
    <radialGradient cx="0" cy="0" gradientTransform="matrix(0.0088, 0.0, 0.0, 0.0088, 10.55, -15.15)" gradientUnits="userSpaceOnUse" id="gradient31" r="819.2" spreadMethod="pad">
      <stop offset="0.0" stop-color="#ffd57c"/>
      <stop offset="1.0" stop-color="#a97745"/>
    </radialGradient>
    <radialGradient cx="0" cy="0" gradientTransform="matrix(0.01, 0.0, 0.0, 0.01, 11.75, -14.65)" gradientUnits="userSpaceOnUse" id="gradient32" r="819.2" spreadMethod="pad">
      <stop offset="0.0" stop-color="#ffd47c"/>
      <stop offset="1.0" stop-color="#a17242"/>
    </radialGradient>
    <radialGradient cx="0" cy="0" gradientTransform="matrix(0.0082, 0.0, 0.0, 0.0082, 12.45, -14.25)" gradientUnits="userSpaceOnUse" id="gradient33" r="819.2" spreadMethod="pad">
      <stop offset="0.0" stop-color="#ffd37b"/>
      <stop offset="1.0" stop-color="#8c633a"/>
    </radialGradient>
    <radialGradient cx="0" cy="0" gradientTransform="matrix(0.0055, 0.0, 0.0, 0.0055, 10.1, -12.45)" gradientUnits="userSpaceOnUse" id="gradient34" r="819.2" spreadMethod="pad">
      <stop offset="0.0" stop-color="#ffd57c"/>
      <stop offset="1.0" stop-color="#aa7846"/>
    </radialGradient>
    <radialGradient cx="0" cy="0" gradientTransform="matrix(0.0146, 0.0, 0.0, 0.0146, 13.65, -13.2)" gradientUnits="userSpaceOnUse" id="gradient35" r="819.2" spreadMethod="pad">
      <stop offset="0.0" stop-color="#6b6161"/>
      <stop offset="1.0" stop-color="#413c3c"/>
    </radialGradient>
    <radialGradient cx="0" cy="0" gradientTransform="matrix(0.0052, 0.0, 0.0, 0.0052, 8.3, -19.25)" gradientUnits="userSpaceOnUse" id="gradient36" r="819.2" spreadMethod="pad">
      <stop offset="0.0" stop-color="#ffc975"/>
      <stop offset="1.0" stop-color="#f6b368"/>
    </radialGradient>
    <radialGradient cx="0" cy="0" gradientTransform="matrix(0.0097, 0.0, 0.0, 0.0097, 6.4, -12.85)" gradientUnits="userSpaceOnUse" id="gradient37" r="819.2" spreadMethod="pad">
      <stop offset="0.0" stop-color="#6a634d"/>
      <stop offset="1.0" stop-color="#39352a"/>
    </radialGradient>
    <radialGradient cx="0" cy="0" gradientTransform="matrix(0.0067, 0.0, 0.0, 0.0067, 4.3, -14.15)" gradientUnits="userSpaceOnUse" id="gradient38" r="819.2" spreadMethod="pad">
      <stop offset="0.0" stop-color="#8c8080"/>
      <stop offset="1.0" stop-color="#504949"/>
    </radialGradient>
    <radialGradient cx="0" cy="0" gradientTransform="matrix(0.0016, 0.0, 0.0, 0.0016, 1.3, -18.65)" gradientUnits="userSpaceOnUse" id="gradient39" r="819.2" spreadMethod="pad">
      <stop offset="0.0" stop-color="#3b372b"/>
      <stop offset="1.0" stop-color="#383529"/>
    </radialGradient>
    <radialGradient cx="0" cy="0" gradientTransform="matrix(0.01, 0.0, 0.0, 0.01, 3.3, -11.4)" gradientUnits="userSpaceOnUse" id="gradient40" r="819.2" spreadMethod="pad">
      <stop offset="0.0" stop-color="#716767"/>
      <stop offset="1.0" stop-color="#4d4646"/>
    </radialGradient>
    <radialGradient cx="0" cy="0" gradientTransform="matrix(0.0107, 0.0, 0.0, 0.0107, 1.25, -9.95)" gradientUnits="userSpaceOnUse" id="gradient41" r="819.2" spreadMethod="pad">
      <stop offset="0.0" stop-color="#2f2b2b"/>
      <stop offset="1.0" stop-color="#121010"/>
    </radialGradient>
    <radialGradient cx="0" cy="0" gradientTransform="matrix(0.0089, 0.0, 0.0, 0.0089, 2.65, -16.0)" gradientUnits="userSpaceOnUse" id="gradient42" r="819.2" spreadMethod="pad">
      <stop offset="0.0" stop-color="#ffffff"/>
      <stop offset="1.0" stop-color="#818181"/>
    </radialGradient>
    <radialGradient cx="0" cy="0" gradientTransform="matrix(0.0087, 0.0, 0.0, 0.0087, 8.05, -12.2)" gradientUnits="userSpaceOnUse" id="gradient43" r="819.2" spreadMethod="pad">
      <stop offset="0.0" stop-color="#928585"/>
      <stop offset="1.0" stop-color="#393434"/>
    </radialGradient>
    <radialGradient cx="0" cy="0" gradientTransform="matrix(0.004, 0.0, 0.0, 0.004, 9.1, -9.05)" gradientUnits="userSpaceOnUse" id="gradient44" r="819.2" spreadMethod="pad">
      <stop offset="0.0" stop-color="#ffbe6e"/>
      <stop offset="1.0" stop-color="#815b35"/>
    </radialGradient>
    <radialGradient cx="0" cy="0" gradientTransform="matrix(0.0143, 0.0, 0.0, 0.0143, 0.35, -10.0)" gradientUnits="userSpaceOnUse" id="gradient45" r="819.2" spreadMethod="pad">
      <stop offset="0.0" stop-color="#807575"/>
      <stop offset="1.0" stop-color="#534b4b"/>
    </radialGradient>
    <radialGradient cx="0" cy="0" gradientTransform="matrix(0.0012, 0.0, 0.0, 0.0012, 8.65, -6.55)" gradientUnits="userSpaceOnUse" id="gradient46" r="819.2" spreadMethod="pad">
      <stop offset="0.0" stop-color="#403c2e"/>
      <stop offset="1.0" stop-color="#2a271e"/>
    </radialGradient>
    <radialGradient cx="0" cy="0" gradientTransform="matrix(0.0059, 0.0, 0.0, 0.0059, 12.6, -9.0)" gradientUnits="userSpaceOnUse" id="gradient47" r="819.2" spreadMethod="pad">
      <stop offset="0.0" stop-color="#504b3a"/>
      <stop offset="1.0" stop-color="#312e24"/>
    </radialGradient>
    <radialGradient cx="0" cy="0" gradientTransform="matrix(0.004, 0.0, 0.0, 0.004, 8.15, -4.8)" gradientUnits="userSpaceOnUse" id="gradient48" r="819.2" spreadMethod="pad">
      <stop offset="0.0" stop-color="#121010"/>
      <stop offset="1.0" stop-color="#121010"/>
    </radialGradient>
    <radialGradient cx="0" cy="0" gradientTransform="matrix(0.0188, 0.0, 0.0, 0.0188, 10.95, 3.1)" gradientUnits="userSpaceOnUse" id="gradient49" r="819.2" spreadMethod="pad">
      <stop offset="0.0" stop-color="#6a6161"/>
      <stop offset="1.0" stop-color="#4e4747"/>
    </radialGradient>
    <radialGradient cx="0" cy="0" gradientTransform="matrix(0.0159, 0.0, 0.0, 0.0159, 8.9, -1.9)" gradientUnits="userSpaceOnUse" id="gradient50" r="819.2" spreadMethod="pad">
      <stop offset="0.0" stop-color="#0c0c09"/>
      <stop offset="1.0" stop-color="#0c0c09"/>
    </radialGradient>
    <radialGradient cx="0" cy="0" gradientTransform="matrix(0.0144, 0.0, 0.0, 0.0144, 11.0, 1.75)" gradientUnits="userSpaceOnUse" id="gradient51" r="819.2" spreadMethod="pad">
      <stop offset="0.0" stop-color="#504b3a"/>
      <stop offset="1.0" stop-color="#3e3a2d"/>
    </radialGradient>
    <radialGradient cx="0" cy="0" gradientTransform="matrix(0.0048, 0.0, 0.0, 0.0048, 16.45, -10.4)" gradientUnits="userSpaceOnUse" id="gradient52" r="819.2" spreadMethod="pad">
      <stop offset="0.0" stop-color="#68614b"/>
      <stop offset="1.0" stop-color="#322e24"/>
    </radialGradient>
    <radialGradient cx="0" cy="0" gradientTransform="matrix(0.0037, 0.0, 0.0, 0.0037, 16.85, -9.6)" gradientUnits="userSpaceOnUse" id="gradient53" r="819.2" spreadMethod="pad">
      <stop offset="0.0" stop-color="#ffe284"/>
      <stop offset="1.0" stop-color="#d09355"/>
    </radialGradient>
    <radialGradient cx="0" cy="0" gradientTransform="matrix(0.0028, 0.0, 0.0, 0.0028, 10.9, -7.6)" gradientUnits="userSpaceOnUse" id="gradient54" r="819.2" spreadMethod="pad">
      <stop offset="0.0" stop-color="#504b3a"/>
      <stop offset="1.0" stop-color="#484434"/>
    </radialGradient>
    <radialGradient cx="0" cy="0" gradientTransform="matrix(0.0061, 0.0, 0.0, 0.0061, -5.2, -31.85)" gradientUnits="userSpaceOnUse" id="gradient55" r="819.2" spreadMethod="pad">
      <stop offset="0.0" stop-color="#ffd77d"/>
      <stop offset="1.0" stop-color="#9c6e40"/>
    </radialGradient>
    <radialGradient cx="0" cy="0" gradientTransform="matrix(0.0028, 0.0, 0.0, 0.0028, -4.8, -30.1)" gradientUnits="userSpaceOnUse" id="gradient56" r="819.2" spreadMethod="pad">
      <stop offset="0.0" stop-color="#ffbc6e"/>
      <stop offset="1.0" stop-color="#e19f5c"/>
    </radialGradient>
    <radialGradient cx="0" cy="0" gradientTransform="matrix(0.0042, 0.0, 0.0, 0.0042, -5.15, -29.15)" gradientUnits="userSpaceOnUse" id="gradient57" r="819.2" spreadMethod="pad">
      <stop offset="0.0" stop-color="#ffcb76"/>
      <stop offset="1.0" stop-color="#7b5733"/>
    </radialGradient>
    <radialGradient cx="0" cy="0" gradientTransform="matrix(0.0029, 0.0, 0.0, 0.0029, -7.4, -28.6)" gradientUnits="userSpaceOnUse" id="gradient58" r="819.2" spreadMethod="pad">
      <stop offset="0.0" stop-color="#ffe284"/>
      <stop offset="1.0" stop-color="#a07041"/>
    </radialGradient>
    <radialGradient cx="0" cy="0" gradientTransform="matrix(0.004, 0.0, 0.0, 0.004, -7.7, -28.45)" gradientUnits="userSpaceOnUse" id="gradient59" r="819.2" spreadMethod="pad">
      <stop offset="0.0" stop-color="#5d5744"/>
      <stop offset="1.0" stop-color="#302d23"/>
    </radialGradient>
    <radialGradient cx="0" cy="0" gradientTransform="matrix(0.0023, 0.0, 0.0, 0.0023, -8.7, -28.4)" gradientUnits="userSpaceOnUse" id="gradient60" r="819.2" spreadMethod="pad">
      <stop offset="0.0" stop-color="#e3a05d"/>
      <stop offset="1.0" stop-color="#91673b"/>
    </radialGradient>
    <radialGradient cx="0" cy="0" gradientTransform="matrix(0.0149, 0.0, 0.0, 0.0149, -2.7, -27.9)" gradientUnits="userSpaceOnUse" id="gradient61" r="819.2" spreadMethod="pad">
      <stop offset="0.0" stop-color="#ac7947"/>
      <stop offset="1.0" stop-color="#261b10"/>
    </radialGradient>
    <radialGradient cx="0" cy="0" gradientTransform="matrix(0.0152, 0.0, 0.0, 0.0152, 3.85, -1.25)" gradientUnits="userSpaceOnUse" id="gradient62" r="819.2" spreadMethod="pad">
      <stop offset="0.0" stop-color="#0c0c09"/>
      <stop offset="1.0" stop-color="#0c0c09"/>
    </radialGradient>
    <radialGradient cx="0" cy="0" gradientTransform="matrix(0.0102, 0.0, 0.0, 0.0102, -3.15, -13.6)" gradientUnits="userSpaceOnUse" id="gradient63" r="819.2" spreadMethod="pad">
      <stop offset="0.0" stop-color="#121010"/>
      <stop offset="1.0" stop-color="#121010"/>
    </radialGradient>
    <radialGradient cx="0" cy="0" gradientTransform="matrix(0.0142, 0.0, 0.0, 0.0142, -3.25, -9.1)" gradientUnits="userSpaceOnUse" id="gradient64" r="819.2" spreadMethod="pad">
      <stop offset="0.0" stop-color="#454132"/>
      <stop offset="1.0" stop-color="#333025"/>
    </radialGradient>
    <radialGradient cx="0" cy="0" gradientTransform="matrix(0.0038, 0.0, 0.0, 0.0038, -5.7, 0.05)" gradientUnits="userSpaceOnUse" id="gradient65" r="819.2" spreadMethod="pad">
      <stop offset="0.0" stop-color="#bf864e"/>
      <stop offset="1.0" stop-color="#9e6f40"/>
    </radialGradient>
    <radialGradient cx="0" cy="0" gradientTransform="matrix(0.0068, 0.0, 0.0, 0.0068, -3.5, 3.2)" gradientUnits="userSpaceOnUse" id="gradient66" r="819.2" spreadMethod="pad">
      <stop offset="0.0" stop-color="#746d54"/>
      <stop offset="1.0" stop-color="#3e3b2d"/>
    </radialGradient>
    <radialGradient cx="0" cy="0" gradientTransform="matrix(0.0052, 0.0, 0.0, 0.0052, -6.4, 0.4)" gradientUnits="userSpaceOnUse" id="gradient67" r="819.2" spreadMethod="pad">
      <stop offset="0.0" stop-color="#ffffff"/>
      <stop offset="1.0" stop-color="#929292"/>
    </radialGradient>
    <radialGradient cx="0" cy="0" gradientTransform="matrix(0.0024, 0.0, 0.0, 0.0024, -6.6, 0.3)" gradientUnits="userSpaceOnUse" id="gradient68" r="819.2" spreadMethod="pad">
      <stop offset="0.0" stop-color="#9b6d40"/>
      <stop offset="1.0" stop-color="#8c6239"/>
    </radialGradient>
    <radialGradient cx="0" cy="0" gradientTransform="matrix(0.0031, 0.0, 0.0, 0.0031, -3.65, 0.15)" gradientUnits="userSpaceOnUse" id="gradient69" r="819.2" spreadMethod="pad">
      <stop offset="0.0" stop-color="#b6804b"/>
      <stop offset="1.0" stop-color="#9d6e40"/>
    </radialGradient>
    <radialGradient cx="0" cy="0" gradientTransform="matrix(0.0022, 0.0, 0.0, 0.0022, -2.35, 0.65)" gradientUnits="userSpaceOnUse" id="gradient70" r="819.2" spreadMethod="pad">
      <stop offset="0.0" stop-color="#ad7a47"/>
      <stop offset="1.0" stop-color="#5e4226"/>
    </radialGradient>
    <radialGradient cx="0" cy="0" gradientTransform="matrix(0.0058, 0.0, 0.0, 0.0058, -8.35, 3.35)" gradientUnits="userSpaceOnUse" id="gradient71" r="819.2" spreadMethod="pad">
      <stop offset="0.0" stop-color="#8e2020"/>
      <stop offset="1.0" stop-color="#791a1a"/>
    </radialGradient>
    <radialGradient cx="0" cy="0" gradientTransform="matrix(0.0062, 0.0, 0.0, 0.0062, -10.1, 1.85)" gradientUnits="userSpaceOnUse" id="gradient72" r="819.2" spreadMethod="pad">
      <stop offset="0.0" stop-color="#f63737"/>
      <stop offset="1.0" stop-color="#a62525"/>
    </radialGradient>
    <radialGradient cx="0" cy="0" gradientTransform="matrix(0.0044, 0.0, 0.0, 0.0044, -10.0, 1.9)" gradientUnits="userSpaceOnUse" id="gradient73" r="819.2" spreadMethod="pad">
      <stop offset="0.0" stop-color="#6c654f"/>
      <stop offset="1.0" stop-color="#3b382b"/>
    </radialGradient>
    <radialGradient cx="0" cy="0" gradientTransform="matrix(0.004, 0.0, 0.0, 0.004, -6.65, 5.8)" gradientUnits="userSpaceOnUse" id="gradient74" r="819.2" spreadMethod="pad">
      <stop offset="0.0" stop-color="#736b53"/>
      <stop offset="1.0" stop-color="#413d2f"/>
    </radialGradient>
    <radialGradient cx="0" cy="0" gradientTransform="matrix(0.0041, 0.0, 0.0, 0.0041, 13.1, 4.0)" gradientUnits="userSpaceOnUse" id="gradient75" r="819.2" spreadMethod="pad">
      <stop offset="0.0" stop-color="#ffb469"/>
      <stop offset="1.0" stop-color="#8c633a"/>
    </radialGradient>
    <radialGradient cx="0" cy="0" gradientTransform="matrix(0.005, 0.0, 0.0, 0.005, 12.75, 5.8)" gradientUnits="userSpaceOnUse" id="gradient76" r="819.2" spreadMethod="pad">
      <stop offset="0.0" stop-color="#ffc673"/>
      <stop offset="1.0" stop-color="#ad7a46"/>
    </radialGradient>
    <radialGradient cx="0" cy="0" gradientTransform="matrix(0.004, 0.0, 0.0, 0.004, 11.8, 2.95)" gradientUnits="userSpaceOnUse" id="gradient77" r="819.2" spreadMethod="pad">
      <stop offset="0.0" stop-color="#ffba6c"/>
      <stop offset="1.0" stop-color="#795532"/>
    </radialGradient>
    <radialGradient cx="0" cy="0" gradientTransform="matrix(0.0038, 0.0, 0.0, 0.0038, 11.5, 8.2)" gradientUnits="userSpaceOnUse" id="gradient78" r="819.2" spreadMethod="pad">
      <stop offset="0.0" stop-color="#ffffff"/>
      <stop offset="1.0" stop-color="#a8a8a8"/>
    </radialGradient>
    <radialGradient cx="0" cy="0" gradientTransform="matrix(0.0045, 0.0, 0.0, 0.0045, 11.5, 9.7)" gradientUnits="userSpaceOnUse" id="gradient79" r="819.2" spreadMethod="pad">
      <stop offset="0.0" stop-color="#746d55"/>
      <stop offset="1.0" stop-color="#3e3a2d"/>
    </radialGradient>
    <radialGradient cx="0" cy="0" gradientTransform="matrix(0.0057, 0.0, 0.0, 0.0057, 16.25, 12.7)" gradientUnits="userSpaceOnUse" id="gradient80" r="819.2" spreadMethod="pad">
      <stop offset="0.0" stop-color="#ff3c3c"/>
      <stop offset="1.0" stop-color="#be2a2a"/>
    </radialGradient>
    <radialGradient cx="0" cy="0" gradientTransform="matrix(0.0049, 0.0, 0.0, 0.0049, 15.55, 12.0)" gradientUnits="userSpaceOnUse" id="gradient81" r="819.2" spreadMethod="pad">
      <stop offset="0.0" stop-color="#736b53"/>
      <stop offset="1.0" stop-color="#443f31"/>
    </radialGradient>
    <radialGradient cx="0" cy="0" gradientTransform="matrix(0.0056, 0.0, 0.0, 0.0056, 9.55, 14.0)" gradientUnits="userSpaceOnUse" id="gradient82" r="819.2" spreadMethod="pad">
      <stop offset="0.0" stop-color="#6c654e"/>
      <stop offset="1.0" stop-color="#3e3a2d"/>
    </radialGradient>
    <radialGradient cx="0" cy="0" gradientTransform="matrix(0.0062, 0.0, 0.0, 0.0062, 10.8, 11.2)" gradientUnits="userSpaceOnUse" id="gradient83" r="819.2" spreadMethod="pad">
      <stop offset="0.0" stop-color="#cd2e2e"/>
      <stop offset="1.0" stop-color="#9d2222"/>
    </radialGradient>
  </defs>
</svg>
