<?xml version="1.0" encoding="UTF-8" standalone="no"?>
<svg xmlns:ffdec="https://www.free-decompiler.com/flash" xmlns:xlink="http://www.w3.org/1999/xlink" ffdec:objectType="shape" height="75.8px" width="71.9px" xmlns="http://www.w3.org/2000/svg">
  <g transform="matrix(1.0, 0.0, 0.0, 1.0, 60.95, 67.15)">
    <path d="M-44.35 -63.6 L-44.15 -64.25 -43.25 -65.75 -41.8 -66.7 Q-34.6 -68.2 -32.95 -64.85 L-33.8 -64.45 -34.25 -62.7 -33.7 -61.2 Q-33.65 -60.85 -32.05 -60.2 L-32.2 -59.4 -32.45 -58.9 Q-32.25 -57.35 -36.7 -57.05 L-39.0 -57.3 Q-41.25 -58.5 -42.5 -60.5 L-43.35 -61.0 -43.7 -62.7 -44.1 -63.3 -44.05 -63.6 -44.35 -63.6" fill="url(#gradient0)" fill-rule="evenodd" stroke="none"/>
    <path d="M-44.15 -64.25 Q-45.45 -67.85 -41.8 -66.7 L-43.25 -65.75 -44.15 -64.25" fill="url(#gradient1)" fill-rule="evenodd" stroke="none"/>
    <path d="M-22.2 -46.6 L-22.4 -45.9 -22.35 -46.75 -22.2 -46.6 M-32.95 -64.85 Q-24.1 -66.25 -21.75 -52.25 L-22.05 -52.5 -23.5 -54.35 -25.0 -55.1 -25.45 -55.6 -25.75 -55.9 Q-28.45 -59.3 -32.05 -60.2 -33.65 -60.85 -33.7 -61.2 L-34.25 -62.7 -33.8 -64.45 -32.95 -64.85" fill="url(#gradient2)" fill-rule="evenodd" stroke="none"/>
    <path d="M-39.15 -42.95 L-39.65 -43.25 -39.65 -43.5 -39.3 -44.15 -38.3 -46.6 -37.1 -48.6 -36.7 -49.45 -34.4 -54.05 -33.0 -56.6 Q-32.05 -58.8 -32.45 -58.9 L-32.2 -59.4 -32.05 -58.9 Q-30.45 -58.0 -34.1 -50.75 L-35.1 -48.45 -37.35 -45.2 Q-37.75 -44.75 -37.4 -43.4 L-37.65 -41.7 -38.05 -42.35 -38.0 -42.4 -38.15 -42.55 -38.2 -42.6 -38.25 -42.7 -38.5 -42.75 -38.85 -42.85 -39.15 -42.95 M-37.55 -40.1 L-37.95 -33.9 -39.05 -35.7 -39.3 -38.0 -38.65 -40.6 -38.2 -41.25 -37.55 -40.1" fill="url(#gradient3)" fill-rule="evenodd" stroke="none"/>
    <path d="M-36.7 -57.05 Q-32.25 -57.35 -32.45 -58.9 -32.05 -58.8 -33.0 -56.6 L-34.4 -54.05 -35.1 -53.95 -35.45 -54.0 -35.75 -54.3 -36.2 -54.9 -36.8 -56.65 -36.7 -57.05" fill="url(#gradient4)" fill-rule="evenodd" stroke="none"/>
    <path d="M-39.0 -57.3 L-36.7 -57.05 -36.8 -56.65 -37.05 -56.1 -37.35 -56.0 -38.2 -56.45 -39.0 -57.3 M-41.9 -57.6 L-40.8 -56.75 -38.65 -55.85 Q-38.15 -55.45 -41.6 -56.95 L-41.9 -57.6" fill="url(#gradient5)" fill-rule="evenodd" stroke="none"/>
    <path d="M-43.35 -61.0 L-42.5 -60.5 Q-41.25 -58.5 -39.0 -57.3 L-38.2 -56.45 -37.35 -56.0 -36.55 -55.6 -37.45 -55.65 -38.05 -55.75 -38.65 -55.85 -40.8 -56.75 -41.9 -57.6 -43.0 -58.75 -43.9 -60.0 -43.8 -60.65 -43.6 -60.65 -43.35 -61.0" fill="url(#gradient6)" fill-rule="evenodd" stroke="none"/>
    <path d="M-47.65 -57.35 Q-48.3 -59.9 -46.1 -63.1 L-44.35 -63.6 -44.05 -63.6 -44.1 -63.3 -43.7 -62.7 -43.35 -61.0 -43.6 -60.65 -43.8 -60.65 -44.1 -60.6 -45.55 -58.95 -46.05 -57.5 Q-46.65 -54.95 -44.45 -54.1 L-46.4 -54.65 -47.7 -56.9 -47.65 -57.35" fill="url(#gradient7)" fill-rule="evenodd" stroke="none"/>
    <path d="M-59.4 -56.45 L-57.7 -61.9 -56.75 -63.3 -56.45 -62.7 -56.25 -61.6 -56.95 -56.25 -57.15 -56.3 -58.15 -57.1 Q-58.8 -56.8 -59.4 -56.45" fill="url(#gradient8)" fill-rule="evenodd" stroke="none"/>
    <path d="M-60.0 -55.9 L-59.9 -56.2 -59.4 -56.45 Q-58.8 -56.8 -58.15 -57.1 L-58.25 -56.5 -59.2 -56.4 -60.0 -55.9" fill="url(#gradient9)" fill-rule="evenodd" stroke="none"/>
    <path d="M-58.25 -56.5 L-58.15 -57.1 -57.15 -56.3 -58.25 -56.5" fill="url(#gradient10)" fill-rule="evenodd" stroke="none"/>
    <path d="M-60.75 -52.75 L-60.95 -54.4 Q-60.55 -55.6 -60.0 -55.9 L-59.2 -56.4 -58.25 -56.5 -57.15 -56.3 -56.95 -56.25 -56.2 -55.65 -55.75 -54.9 -56.3 -54.6 Q-56.9 -53.2 -56.9 -51.95 L-58.05 -51.7 Q-59.15 -53.35 -60.15 -52.15 L-60.75 -52.75" fill="url(#gradient11)" fill-rule="evenodd" stroke="none"/>
    <path d="M-46.1 -53.9 Q-46.85 -52.5 -56.4 -51.65 L-56.9 -51.95 Q-56.9 -53.2 -56.3 -54.6 L-55.75 -54.9 Q-49.45 -57.9 -47.65 -57.35 L-47.7 -56.9 Q-48.7 -54.35 -46.1 -53.9" fill="url(#gradient12)" fill-rule="evenodd" stroke="none"/>
    <path d="M-42.3 -54.15 L-43.5 -53.95 -46.1 -53.9 Q-48.7 -54.35 -47.7 -56.9 L-46.4 -54.65 -44.45 -54.1 Q-46.65 -54.95 -46.05 -57.5 L-43.35 -58.15 Q-44.3 -56.0 -42.3 -54.15" fill="url(#gradient13)" fill-rule="evenodd" stroke="none"/>
    <path d="M-39.65 -43.5 Q-45.1 -46.75 -41.55 -53.35 L-42.3 -54.15 Q-44.3 -56.0 -43.35 -58.15 L-43.0 -58.75 -41.9 -57.6 -41.6 -56.95 Q-38.15 -55.45 -38.65 -55.85 L-38.05 -55.75 -39.3 -53.8 Q-40.25 -51.7 -40.2 -50.75 -42.45 -47.05 -39.3 -44.15 L-39.65 -43.5 M-39.3 -38.0 L-39.65 -38.8 Q-40.05 -38.85 -39.85 -41.6 L-38.85 -42.85 -38.5 -42.75 -38.4 -41.7 -38.2 -41.25 -38.65 -40.6 -39.3 -38.0" fill="url(#gradient14)" fill-rule="evenodd" stroke="none"/>
    <path d="M-24.5 -47.35 L-25.0 -47.1 -25.9 -46.95 -27.05 -46.6 Q-28.3 -45.65 -27.8 -45.4 L-27.6 -45.4 -26.55 -45.95 -26.15 -46.35 -26.95 -45.0 Q-34.15 -37.1 -37.65 -41.7 L-37.4 -43.4 Q-37.75 -44.75 -37.35 -45.2 L-35.1 -48.45 -34.1 -50.75 Q-30.45 -58.0 -32.05 -58.9 L-25.75 -55.9 -25.45 -55.6 -25.35 -55.15 -25.0 -55.1 -23.5 -54.35 -22.05 -52.5 -21.75 -52.25 -20.85 -51.45 -19.3 -50.7 -19.25 -50.4 -19.4 -50.2 -20.6 -49.3 -24.5 -47.35 M-23.4 -41.55 Q-22.0 -40.55 -21.55 -39.3 L-23.4 -41.55 M-28.35 -29.65 Q-33.45 -27.95 -36.9 -32.65 L-37.5 -33.3 -37.95 -33.9 -37.55 -40.1 -37.1 -39.5 -36.2 -38.8 Q-34.25 -36.65 -29.65 -38.8 L-29.35 -39.0 -29.1 -38.8 Q-28.05 -38.0 -27.9 -32.95 L-23.95 -31.4 -24.2 -31.1 -26.65 -29.95 -28.35 -29.65 M-22.85 -35.6 L-21.3 -34.2 -21.85 -33.45 -22.85 -35.6" fill="url(#gradient15)" fill-rule="evenodd" stroke="none"/>
    <path d="M-26.95 -45.0 L-26.55 -43.8 Q-29.4 -40.25 -28.05 -40.65 -28.6 -39.75 -29.2 -39.4 L-29.35 -39.0 -29.65 -38.8 Q-34.25 -36.65 -36.2 -38.8 L-37.1 -39.5 -37.55 -40.1 -38.2 -41.25 -38.4 -41.7 -38.5 -42.75 -38.25 -42.7 -38.2 -42.6 -38.15 -42.55 -38.05 -42.35 -37.65 -41.7 Q-34.15 -37.1 -26.95 -45.0 M-27.7 -45.5 L-27.6 -45.4 -27.8 -45.4 -27.7 -45.5" fill="url(#gradient16)" fill-rule="evenodd" stroke="none"/>
    <path d="M-38.15 -42.55 L-38.0 -42.4 -38.05 -42.35 -38.15 -42.55" fill="url(#gradient17)" fill-rule="evenodd" stroke="none"/>
    <path d="M-42.35 -41.05 Q-42.5 -41.2 -40.55 -42.4 L-39.15 -42.95 -38.85 -42.85 -39.85 -41.6 Q-40.05 -38.85 -39.65 -38.8 L-39.3 -38.0 -39.05 -35.7 -39.85 -35.85 -41.85 -36.75 -42.55 -37.4 -42.55 -37.5 -43.0 -38.8 -43.0 -39.9 -42.35 -41.05" fill="url(#gradient18)" fill-rule="evenodd" stroke="none"/>
    <path d="M-38.05 -55.75 L-37.45 -55.65 -38.35 -51.45 -38.4 -49.55 -38.3 -46.6 -39.3 -44.15 Q-42.45 -47.05 -40.2 -50.75 -40.25 -51.7 -39.3 -53.8 L-38.05 -55.75" fill="url(#gradient19)" fill-rule="evenodd" stroke="none"/>
    <path d="M-37.1 -48.6 L-38.3 -46.6 -38.4 -49.55 -37.6 -48.65 -37.1 -48.6" fill="url(#gradient20)" fill-rule="evenodd" stroke="none"/>
    <path d="M-37.45 -55.65 L-36.55 -55.6 -37.35 -56.0 -37.05 -56.1 -36.8 -56.65 -36.2 -54.9 -35.75 -54.3 -36.8 -51.3 -36.7 -49.45 -37.1 -48.6 -37.6 -48.65 -38.4 -49.55 -38.35 -51.45 -37.45 -55.65 M-35.45 -54.0 L-35.1 -53.95 -36.5 -51.75 -35.5 -53.8 -35.55 -53.95 -35.45 -54.0" fill="url(#gradient21)" fill-rule="evenodd" stroke="none"/>
    <path d="M-35.45 -54.0 L-35.55 -53.95 -35.5 -53.8 -36.5 -51.75 -35.1 -53.95 -34.4 -54.05 -36.7 -49.45 -36.8 -51.3 -35.75 -54.3 -35.45 -54.0" fill="url(#gradient22)" fill-rule="evenodd" stroke="none"/>
    <path d="M-56.4 -51.65 L-56.85 -51.0 Q-57.0 -50.7 -58.25 -50.75 L-58.05 -51.7 -56.9 -51.95 -56.4 -51.65 M-60.3 -51.65 L-60.7 -52.25 -60.75 -52.75 -60.15 -52.15 -60.3 -51.65" fill="url(#gradient23)" fill-rule="evenodd" stroke="none"/>
    <path d="M-58.25 -50.75 L-58.3 -50.75 Q-59.35 -51.7 -60.4 -51.0 L-60.3 -51.65 -60.15 -52.15 Q-59.15 -53.35 -58.05 -51.7 L-58.25 -50.75" fill="url(#gradient24)" fill-rule="evenodd" stroke="none"/>
    <path d="M-15.55 -42.85 L-17.1 -43.6 -22.2 -46.6 -22.35 -46.75 -22.65 -47.05 Q-23.4 -46.85 -24.5 -47.35 L-20.6 -49.3 -19.4 -50.2 -13.15 -45.8 -13.25 -45.3 Q-15.0 -43.0 -15.35 -43.1 L-15.3 -42.85 -15.55 -42.85" fill="url(#gradient25)" fill-rule="evenodd" stroke="none"/>
    <path d="M-25.9 -46.95 L-26.15 -46.35 -26.55 -45.95 -27.6 -45.4 -27.7 -45.5 -27.05 -46.6 -25.9 -46.95" fill="url(#gradient26)" fill-rule="evenodd" stroke="none"/>
    <path d="M-27.05 -46.6 L-27.7 -45.5 -27.8 -45.4 Q-28.3 -45.65 -27.05 -46.6" fill="url(#gradient27)" fill-rule="evenodd" stroke="none"/>
    <path d="M-58.3 -50.75 Q-59.35 -49.65 -60.4 -51.0 -59.35 -51.7 -58.3 -50.75" fill="url(#gradient28)" fill-rule="evenodd" stroke="none"/>
    <path d="M-7.5 -33.45 Q-12.35 -37.6 -15.55 -42.85 L-15.3 -42.85 -15.35 -43.1 Q-15.0 -43.0 -13.25 -45.3 L-13.15 -45.8 Q-9.95 -44.8 -5.7 -36.85 L-6.7 -35.7 Q-7.4 -34.45 -7.25 -33.55 L-7.5 -33.45" fill="url(#gradient29)" fill-rule="evenodd" stroke="none"/>
    <path d="M-26.55 -43.8 L-25.25 -43.15 -23.4 -41.55 -21.55 -39.3 -20.15 -37.45 -19.15 -36.45 -19.25 -36.45 -19.85 -36.7 -20.1 -36.55 -20.25 -36.55 -20.65 -35.75 -20.55 -33.85 -20.6 -33.75 -21.3 -34.2 -22.85 -35.6 -25.1 -38.8 Q-26.0 -40.8 -27.35 -40.05 L-28.05 -40.65 Q-29.4 -40.25 -26.55 -43.8" fill="url(#gradient30)" fill-rule="evenodd" stroke="none"/>
    <path d="M-23.95 -31.4 L-27.9 -32.95 Q-28.05 -38.0 -29.1 -38.8 L-29.35 -39.0 -29.2 -39.4 Q-28.6 -39.75 -28.05 -40.65 L-27.35 -40.05 Q-26.0 -40.8 -25.1 -38.8 L-22.85 -35.6 -21.85 -33.45 -21.55 -32.75 -21.1 -29.85 -22.35 -30.65 -23.95 -31.4" fill="url(#gradient31)" fill-rule="evenodd" stroke="none"/>
    <path d="M-44.0 -38.35 Q-44.7 -41.05 -42.35 -41.05 L-43.0 -39.9 -43.0 -38.8 -42.55 -37.5 -43.35 -37.95 -43.45 -37.55 -44.0 -38.35" fill="url(#gradient32)" fill-rule="evenodd" stroke="none"/>
    <path d="M-41.5 -32.15 Q-45.05 -36.35 -44.0 -38.35 L-43.45 -37.55 -42.55 -37.4 -41.85 -36.75 -39.85 -35.85 -39.05 -35.7 -37.95 -33.9 -37.5 -33.3 Q-38.8 -30.6 -41.5 -32.15" fill="url(#gradient33)" fill-rule="evenodd" stroke="none"/>
    <path d="M-36.9 -32.65 Q-35.85 -29.05 -35.95 -28.3 L-35.7 -27.95 -35.3 -27.45 -35.5 -26.85 Q-37.0 -22.4 -39.45 -26.85 L-39.9 -28.95 -40.4 -29.9 -41.5 -32.15 Q-38.8 -30.6 -37.5 -33.3 L-36.9 -32.65" fill="url(#gradient34)" fill-rule="evenodd" stroke="none"/>
    <path d="M-35.7 -27.95 Q-31.85 -23.45 -37.5 -23.65 L-39.95 -25.0 -44.0 -27.95 Q-43.8 -29.6 -40.4 -29.9 L-39.9 -28.95 -39.45 -26.85 Q-37.0 -22.4 -35.5 -26.85 L-35.3 -27.45 -35.7 -27.95" fill="url(#gradient35)" fill-rule="evenodd" stroke="none"/>
    <path d="M-19.15 -36.45 L-18.75 -35.95 -19.05 -35.7 -19.85 -36.7 -19.25 -36.45 -19.15 -36.45" fill="url(#gradient36)" fill-rule="evenodd" stroke="none"/>
    <path d="M-20.55 -33.85 Q-18.4 -28.7 -17.9 -21.25 L-17.15 -19.6 -17.55 -18.65 -18.05 -18.75 -18.3 -19.4 -19.05 -20.1 -19.8 -20.0 -19.95 -19.8 -21.6 -20.65 -23.05 -20.8 -23.2 -20.65 Q-25.15 -22.35 -28.35 -29.65 L-26.65 -29.95 -24.2 -31.1 -23.95 -31.4 -22.35 -30.65 -21.1 -29.85 -21.55 -32.75 -21.85 -33.45 -21.3 -34.2 -20.6 -33.75 -20.55 -33.85" fill="url(#gradient37)" fill-rule="evenodd" stroke="none"/>
    <path d="M-42.55 -37.5 L-42.55 -37.4 -43.45 -37.55 -43.35 -37.95 -42.55 -37.5" fill="url(#gradient38)" fill-rule="evenodd" stroke="none"/>
    <path d="M-0.3 -35.9 L8.1 -39.1 10.95 -39.55 9.55 -38.2 1.35 -34.25 1.0 -35.9 0.8 -35.9 -0.3 -35.9" fill="url(#gradient39)" fill-rule="evenodd" stroke="none"/>
    <path d="M-1.45 -35.9 L-0.3 -35.9 0.8 -35.9 -1.05 -35.05 -1.45 -35.9" fill="url(#gradient40)" fill-rule="evenodd" stroke="none"/>
    <path d="M1.35 -34.25 L1.5 -33.8 0.1 -33.25 -0.1 -33.45 -0.45 -33.75 -0.95 -34.2 -1.05 -35.05 0.8 -35.9 1.0 -35.9 1.35 -34.25" fill="url(#gradient41)" fill-rule="evenodd" stroke="none"/>
    <path d="M-0.95 -33.35 L-1.2 -32.7 Q-1.55 -31.95 -2.25 -31.55 L-3.4 -31.35 -5.15 -31.55 -4.5 -31.9 -4.5 -32.1 -4.9 -32.55 -6.2 -33.25 -7.1 -33.1 -7.25 -33.55 Q-7.4 -34.45 -6.7 -35.7 L-5.7 -36.85 Q-3.5 -38.05 -1.45 -35.9 L-1.05 -35.05 -0.95 -34.2 -0.95 -33.35" fill="url(#gradient42)" fill-rule="evenodd" stroke="none"/>
    <path d="M-2.25 -31.55 Q-2.55 -29.8 -6.2 -31.1 L-5.15 -31.55 -3.4 -31.35 -2.25 -31.55 M-7.65 -32.85 L-7.5 -33.45 -7.25 -33.55 -7.1 -33.1 -7.65 -32.85" fill="url(#gradient43)" fill-rule="evenodd" stroke="none"/>
    <path d="M-6.2 -31.1 L-7.0 -30.8 Q-6.75 -31.9 -8.45 -32.45 L-7.65 -32.85 -7.1 -33.1 -6.2 -33.25 -4.9 -32.55 -4.5 -32.1 -4.5 -31.9 -5.15 -31.55 -6.2 -31.1 M-0.95 -34.2 L-0.45 -33.75 -0.45 -33.7 -0.95 -33.35 -0.95 -34.2" fill="url(#gradient44)" fill-rule="evenodd" stroke="none"/>
    <path d="M-7.0 -30.8 Q-9.05 -31.15 -8.45 -32.45 -6.75 -31.9 -7.0 -30.8" fill="url(#gradient45)" fill-rule="evenodd" stroke="none"/>
    <path d="M0.1 -33.25 L-0.95 -33.35 -0.45 -33.7 -0.1 -33.45 0.1 -33.25" fill="url(#gradient46)" fill-rule="evenodd" stroke="none"/>
    <path d="M-0.45 -33.75 L-0.1 -33.45 -0.45 -33.7 -0.45 -33.75" fill="url(#gradient47)" fill-rule="evenodd" stroke="none"/>
    <path d="M-17.9 -21.25 L-16.4 -19.4 -16.2 -19.15 -16.3 -19.05 -17.15 -19.6 -17.9 -21.25" fill="url(#gradient48)" fill-rule="evenodd" stroke="none"/>
    <path d="M-16.4 -19.4 Q-14.85 -19.15 -12.5 -15.55 L-10.85 -12.2 Q-12.35 -8.9 -15.25 -9.5 -18.7 -11.95 -20.1 -17.0 -17.35 -14.4 -18.05 -18.75 L-17.55 -18.65 -17.15 -19.6 -16.3 -19.05 -16.2 -19.15 -16.4 -19.4" fill="url(#gradient49)" fill-rule="evenodd" stroke="none"/>
    <path d="M-20.1 -17.0 L-20.1 -17.05 -20.15 -17.1 Q-21.15 -17.3 -23.2 -20.65 L-23.05 -20.8 -21.6 -20.65 -19.95 -19.8 -19.8 -20.0 -19.05 -20.1 -18.3 -19.4 -18.05 -18.75 Q-17.35 -14.4 -20.1 -17.0" fill="url(#gradient50)" fill-rule="evenodd" stroke="none"/>
    <path d="M-10.85 -12.2 Q-7.35 -5.75 -7.4 -4.35 L-6.0 -3.0 Q-6.5 -1.5 -6.05 -1.0 L-6.45 -0.6 -6.45 0.25 -7.7 1.0 -9.45 0.1 Q-10.05 -0.5 -11.7 -4.5 L-15.25 -9.5 Q-12.35 -8.9 -10.85 -12.2" fill="url(#gradient51)" fill-rule="evenodd" stroke="none"/>
    <path d="M-6.0 -3.0 Q-3.35 -2.45 -4.55 2.1 L-6.45 6.65 Q-7.3 8.5 -8.8 8.65 L-9.95 8.2 -11.35 8.25 Q-13.25 5.85 -9.45 0.1 L-7.7 1.0 -6.45 0.25 -6.45 -0.6 -6.05 -1.0 Q-6.5 -1.5 -6.0 -3.0" fill="url(#gradient52)" fill-rule="evenodd" stroke="none"/>
    <path d="M-8.8 8.65 L-11.35 8.25 -9.95 8.2 -8.8 8.65" fill="url(#gradient53)" fill-rule="evenodd" stroke="none"/>
  </g>
  <defs>
    <radialGradient cx="0" cy="0" gradientTransform="matrix(0.0101, 0.0, 0.0, 0.0101, -36.2, -63.3)" gradientUnits="userSpaceOnUse" id="gradient0" r="819.2" spreadMethod="pad">
      <stop offset="0.0" stop-color="#635d48"/>
      <stop offset="1.0" stop-color="#403c2f"/>
    </radialGradient>
    <radialGradient cx="0" cy="0" gradientTransform="matrix(0.0029, 0.0, 0.0, 0.0029, -42.6, -64.95)" gradientUnits="userSpaceOnUse" id="gradient1" r="819.2" spreadMethod="pad">
      <stop offset="0.0" stop-color="#514c3b"/>
      <stop offset="1.0" stop-color="#3a372a"/>
    </radialGradient>
    <radialGradient cx="0" cy="0" gradientTransform="matrix(0.0229, 0.0, 0.0, 0.0229, -30.4, -62.85)" gradientUnits="userSpaceOnUse" id="gradient2" r="819.2" spreadMethod="pad">
      <stop offset="0.0" stop-color="#635d48"/>
      <stop offset="1.0" stop-color="#3b382b"/>
    </radialGradient>
    <radialGradient cx="0" cy="0" gradientTransform="matrix(0.0245, 0.0, 0.0, 0.0245, -33.2, -53.4)" gradientUnits="userSpaceOnUse" id="gradient3" r="819.2" spreadMethod="pad">
      <stop offset="0.0" stop-color="#77caf7"/>
      <stop offset="1.0" stop-color="#4a7c98"/>
    </radialGradient>
    <radialGradient cx="0" cy="0" gradientTransform="matrix(0.0074, 0.0, 0.0, 0.0074, -33.1, -54.15)" gradientUnits="userSpaceOnUse" id="gradient4" r="819.2" spreadMethod="pad">
      <stop offset="0.0" stop-color="#e8a45f"/>
      <stop offset="1.0" stop-color="#b47e49"/>
    </radialGradient>
    <radialGradient cx="0" cy="0" gradientTransform="matrix(0.0047, 0.0, 0.0, 0.0047, -38.25, -56.95)" gradientUnits="userSpaceOnUse" id="gradient5" r="819.2" spreadMethod="pad">
      <stop offset="0.0" stop-color="#df9d5b"/>
      <stop offset="1.0" stop-color="#795532"/>
    </radialGradient>
    <radialGradient cx="0" cy="0" gradientTransform="matrix(0.009, 0.0, 0.0, 0.009, -42.05, -60.6)" gradientUnits="userSpaceOnUse" id="gradient6" r="819.2" spreadMethod="pad">
      <stop offset="0.0" stop-color="#655e49"/>
      <stop offset="1.0" stop-color="#363226"/>
    </radialGradient>
    <radialGradient cx="0" cy="0" gradientTransform="matrix(0.0097, 0.0, 0.0, 0.0097, -45.3, -62.1)" gradientUnits="userSpaceOnUse" id="gradient7" r="819.2" spreadMethod="pad">
      <stop offset="0.0" stop-color="#5e5844"/>
      <stop offset="1.0" stop-color="#2e2b22"/>
    </radialGradient>
    <radialGradient cx="0" cy="0" gradientTransform="matrix(0.0096, 0.0, 0.0, 0.0096, -57.15, -55.5)" gradientUnits="userSpaceOnUse" id="gradient8" r="819.2" spreadMethod="pad">
      <stop offset="0.0" stop-color="#c7c7c7"/>
      <stop offset="1.0" stop-color="#bebebe"/>
    </radialGradient>
    <radialGradient cx="0" cy="0" gradientTransform="matrix(0.0034, 0.0, 0.0, 0.0034, -58.2, -57.25)" gradientUnits="userSpaceOnUse" id="gradient9" r="819.2" spreadMethod="pad">
      <stop offset="0.0" stop-color="#fffe4c"/>
      <stop offset="1.0" stop-color="#b7ac33"/>
    </radialGradient>
    <radialGradient cx="0" cy="0" gradientTransform="matrix(0.0024, 0.0, 0.0, 0.0024, -58.55, -55.55)" gradientUnits="userSpaceOnUse" id="gradient10" r="819.2" spreadMethod="pad">
      <stop offset="0.0" stop-color="#cabe39"/>
      <stop offset="1.0" stop-color="#c9bd38"/>
    </radialGradient>
    <radialGradient cx="0" cy="0" gradientTransform="matrix(0.0039, 0.0, 0.0, 0.0039, -58.15, -54.55)" gradientUnits="userSpaceOnUse" id="gradient11" r="819.2" spreadMethod="pad">
      <stop offset="0.0" stop-color="#ffee8b"/>
      <stop offset="1.0" stop-color="#bf864e"/>
    </radialGradient>
    <radialGradient cx="0" cy="0" gradientTransform="matrix(0.0128, 0.0, 0.0, 0.0128, -48.25, -55.7)" gradientUnits="userSpaceOnUse" id="gradient12" r="819.2" spreadMethod="pad">
      <stop offset="0.0" stop-color="#9d8f8f"/>
      <stop offset="1.0" stop-color="#766c6c"/>
    </radialGradient>
    <radialGradient cx="0" cy="0" gradientTransform="matrix(0.0069, 0.0, 0.0, 0.0069, -43.05, -57.0)" gradientUnits="userSpaceOnUse" id="gradient13" r="819.2" spreadMethod="pad">
      <stop offset="0.0" stop-color="#df9d5c"/>
      <stop offset="1.0" stop-color="#ac7946"/>
    </radialGradient>
    <radialGradient cx="0" cy="0" gradientTransform="matrix(0.0243, 0.0, 0.0, 0.0243, -40.4, -57.15)" gradientUnits="userSpaceOnUse" id="gradient14" r="819.2" spreadMethod="pad">
      <stop offset="0.0" stop-color="#416588"/>
      <stop offset="1.0" stop-color="#293f56"/>
    </radialGradient>
    <radialGradient cx="0" cy="0" gradientTransform="matrix(0.026, 0.0, 0.0, 0.026, -28.45, -38.45)" gradientUnits="userSpaceOnUse" id="gradient15" r="819.2" spreadMethod="pad">
      <stop offset="0.0" stop-color="#43688c"/>
      <stop offset="1.0" stop-color="#2a4258"/>
    </radialGradient>
    <radialGradient cx="0" cy="0" gradientTransform="matrix(0.0079, 0.0, 0.0, 0.0079, -32.45, -41.5)" gradientUnits="userSpaceOnUse" id="gradient16" r="819.2" spreadMethod="pad">
      <stop offset="0.0" stop-color="#fffccc"/>
      <stop offset="1.0" stop-color="#a1987c"/>
    </radialGradient>
    <radialGradient cx="0" cy="0" gradientTransform="matrix(0.0011, 0.0, 0.0, 0.0011, -37.9, -42.1)" gradientUnits="userSpaceOnUse" id="gradient17" r="819.2" spreadMethod="pad">
      <stop offset="0.0" stop-color="#365b6f"/>
      <stop offset="1.0" stop-color="#284453"/>
    </radialGradient>
    <radialGradient cx="0" cy="0" gradientTransform="matrix(0.0062, 0.0, 0.0, 0.0062, -39.15, -40.1)" gradientUnits="userSpaceOnUse" id="gradient18" r="819.2" spreadMethod="pad">
      <stop offset="0.0" stop-color="#d99959"/>
      <stop offset="1.0" stop-color="#825b35"/>
    </radialGradient>
    <radialGradient cx="0" cy="0" gradientTransform="matrix(0.0119, 0.0, 0.0, 0.0119, -40.35, -48.3)" gradientUnits="userSpaceOnUse" id="gradient19" r="819.2" spreadMethod="pad">
      <stop offset="0.0" stop-color="#73c4ef"/>
      <stop offset="1.0" stop-color="#497c98"/>
    </radialGradient>
    <radialGradient cx="0" cy="0" gradientTransform="matrix(0.0032, 0.0, 0.0, 0.0032, -38.2, -48.75)" gradientUnits="userSpaceOnUse" id="gradient20" r="819.2" spreadMethod="pad">
      <stop offset="0.0" stop-color="#ffe284"/>
      <stop offset="1.0" stop-color="#ffd078"/>
    </radialGradient>
    <radialGradient cx="0" cy="0" gradientTransform="matrix(0.0079, 0.0, 0.0, 0.0079, -36.85, -51.35)" gradientUnits="userSpaceOnUse" id="gradient21" r="819.2" spreadMethod="pad">
      <stop offset="0.0" stop-color="#ffca76"/>
      <stop offset="1.0" stop-color="#eea861"/>
    </radialGradient>
    <radialGradient cx="0" cy="0" gradientTransform="matrix(0.0089, 0.0, 0.0, 0.0089, -35.7, -54.65)" gradientUnits="userSpaceOnUse" id="gradient22" r="819.2" spreadMethod="pad">
      <stop offset="0.0" stop-color="#fbb167"/>
      <stop offset="1.0" stop-color="#db9b5a"/>
    </radialGradient>
    <radialGradient cx="0" cy="0" gradientTransform="matrix(0.004, 0.0, 0.0, 0.004, -57.7, -51.9)" gradientUnits="userSpaceOnUse" id="gradient23" r="819.2" spreadMethod="pad">
      <stop offset="0.0" stop-color="#ffe384"/>
      <stop offset="1.0" stop-color="#b37e49"/>
    </radialGradient>
    <radialGradient cx="0" cy="0" gradientTransform="matrix(0.0024, 0.0, 0.0, 0.0024, -59.25, -51.35)" gradientUnits="userSpaceOnUse" id="gradient24" r="819.2" spreadMethod="pad">
      <stop offset="0.0" stop-color="#c22b2b"/>
      <stop offset="1.0" stop-color="#ae2727"/>
    </radialGradient>
    <radialGradient cx="0" cy="0" gradientTransform="matrix(0.0134, 0.0, 0.0, 0.0134, -22.7, -49.8)" gradientUnits="userSpaceOnUse" id="gradient25" r="819.2" spreadMethod="pad">
      <stop offset="0.0" stop-color="#ffdb80"/>
      <stop offset="1.0" stop-color="#835c35"/>
    </radialGradient>
    <radialGradient cx="0" cy="0" gradientTransform="matrix(0.0194, 0.0, 0.0, 0.0194, -40.85, -44.7)" gradientUnits="userSpaceOnUse" id="gradient26" r="819.2" spreadMethod="pad">
      <stop offset="0.0" stop-color="#0a0f15"/>
      <stop offset="1.0" stop-color="#080c10"/>
    </radialGradient>
    <radialGradient cx="0" cy="0" gradientTransform="matrix(0.0053, 0.0, 0.0, 0.0053, -27.5, -46.6)" gradientUnits="userSpaceOnUse" id="gradient27" r="819.2" spreadMethod="pad">
      <stop offset="0.0" stop-color="#95693d"/>
      <stop offset="1.0" stop-color="#7f5a34"/>
    </radialGradient>
    <radialGradient cx="0" cy="0" gradientTransform="matrix(0.0026, 0.0, 0.0, 0.0026, -60.5, -50.95)" gradientUnits="userSpaceOnUse" id="gradient28" r="819.2" spreadMethod="pad">
      <stop offset="0.0" stop-color="#d12e2e"/>
      <stop offset="1.0" stop-color="#d12e2e"/>
    </radialGradient>
    <radialGradient cx="0" cy="0" gradientTransform="matrix(0.0183, 0.0, 0.0, 0.0183, -5.15, -33.75)" gradientUnits="userSpaceOnUse" id="gradient29" r="819.2" spreadMethod="pad">
      <stop offset="0.0" stop-color="#958888"/>
      <stop offset="1.0" stop-color="#595151"/>
    </radialGradient>
    <radialGradient cx="0" cy="0" gradientTransform="matrix(0.0138, 0.0, 0.0, 0.0138, -28.5, -41.95)" gradientUnits="userSpaceOnUse" id="gradient30" r="819.2" spreadMethod="pad">
      <stop offset="0.0" stop-color="#fff8c9"/>
      <stop offset="1.0" stop-color="#d0c5a0"/>
    </radialGradient>
    <radialGradient cx="0" cy="0" gradientTransform="matrix(0.0112, 0.0, 0.0, 0.0112, -26.4, -37.5)" gradientUnits="userSpaceOnUse" id="gradient31" r="819.2" spreadMethod="pad">
      <stop offset="0.0" stop-color="#fffece"/>
      <stop offset="1.0" stop-color="#e0d4ad"/>
    </radialGradient>
    <radialGradient cx="0" cy="0" gradientTransform="matrix(0.0045, 0.0, 0.0, 0.0045, -41.55, -40.65)" gradientUnits="userSpaceOnUse" id="gradient32" r="819.2" spreadMethod="pad">
      <stop offset="0.0" stop-color="#f7ae65"/>
      <stop offset="1.0" stop-color="#a47443"/>
    </radialGradient>
    <radialGradient cx="0" cy="0" gradientTransform="matrix(0.0094, 0.0, 0.0, 0.0094, -42.5, -38.35)" gradientUnits="userSpaceOnUse" id="gradient33" r="819.2" spreadMethod="pad">
      <stop offset="0.0" stop-color="#ffe183"/>
      <stop offset="1.0" stop-color="#9d6f40"/>
    </radialGradient>
    <radialGradient cx="0" cy="0" gradientTransform="matrix(0.0101, 0.0, 0.0, 0.0101, -36.5, -26.55)" gradientUnits="userSpaceOnUse" id="gradient34" r="819.2" spreadMethod="pad">
      <stop offset="0.0" stop-color="#675e5e"/>
      <stop offset="1.0" stop-color="#4c4545"/>
    </radialGradient>
    <radialGradient cx="0" cy="0" gradientTransform="matrix(0.0099, 0.0, 0.0, 0.0099, -36.1, -27.5)" gradientUnits="userSpaceOnUse" id="gradient35" r="819.2" spreadMethod="pad">
      <stop offset="0.0" stop-color="#fff58f"/>
      <stop offset="1.0" stop-color="#da9a59"/>
    </radialGradient>
    <radialGradient cx="0" cy="0" gradientTransform="matrix(0.0017, 0.0, 0.0, 0.0017, -19.15, -36.5)" gradientUnits="userSpaceOnUse" id="gradient36" r="819.2" spreadMethod="pad">
      <stop offset="0.0" stop-color="#7e7761"/>
      <stop offset="1.0" stop-color="#1f1e18"/>
    </radialGradient>
    <radialGradient cx="0" cy="0" gradientTransform="matrix(0.327, 0.0, 0.0, 0.327, -23.75, -32.65)" gradientUnits="userSpaceOnUse" id="gradient37" r="819.2" spreadMethod="pad">
      <stop offset="0.0" stop-color="#ffd27a"/>
      <stop offset="1.0" stop-color="#b17d49"/>
    </radialGradient>
    <radialGradient cx="0" cy="0" gradientTransform="matrix(0.0018, 0.0, 0.0, 0.0018, -43.45, -37.6)" gradientUnits="userSpaceOnUse" id="gradient38" r="819.2" spreadMethod="pad">
      <stop offset="0.0" stop-color="#6c4c2c"/>
      <stop offset="1.0" stop-color="#2e2013"/>
    </radialGradient>
    <radialGradient cx="0" cy="0" gradientTransform="matrix(0.0148, 0.0, 0.0, 0.0148, 0.3, -33.85)" gradientUnits="userSpaceOnUse" id="gradient39" r="819.2" spreadMethod="pad">
      <stop offset="0.0" stop-color="#d0d0d0"/>
      <stop offset="1.0" stop-color="#cacaca"/>
    </radialGradient>
    <radialGradient cx="0" cy="0" gradientTransform="matrix(0.0033, 0.0, 0.0, 0.0033, -1.6, -34.95)" gradientUnits="userSpaceOnUse" id="gradient40" r="819.2" spreadMethod="pad">
      <stop offset="0.0" stop-color="#a49a2e"/>
      <stop offset="1.0" stop-color="#a2992d"/>
    </radialGradient>
    <radialGradient cx="0" cy="0" gradientTransform="matrix(0.0034, 0.0, 0.0, 0.0034, 0.85, -36.0)" gradientUnits="userSpaceOnUse" id="gradient41" r="819.2" spreadMethod="pad">
      <stop offset="0.0" stop-color="#ffff4c"/>
      <stop offset="1.0" stop-color="#ebdd42"/>
    </radialGradient>
    <radialGradient cx="0" cy="0" gradientTransform="matrix(0.0045, 0.0, 0.0, 0.0045, -3.75, -34.65)" gradientUnits="userSpaceOnUse" id="gradient42" r="819.2" spreadMethod="pad">
      <stop offset="0.0" stop-color="#ffdd80"/>
      <stop offset="1.0" stop-color="#c2894f"/>
    </radialGradient>
    <radialGradient cx="0" cy="0" gradientTransform="matrix(0.0045, 0.0, 0.0, 0.0045, -4.35, -31.75)" gradientUnits="userSpaceOnUse" id="gradient43" r="819.2" spreadMethod="pad">
      <stop offset="0.0" stop-color="#ffbf6f"/>
      <stop offset="1.0" stop-color="#aa7846"/>
    </radialGradient>
    <radialGradient cx="0" cy="0" gradientTransform="matrix(0.0091, 0.0, 0.0, 0.0091, -7.3, -31.8)" gradientUnits="userSpaceOnUse" id="gradient44" r="819.2" spreadMethod="pad">
      <stop offset="0.0" stop-color="#d63030"/>
      <stop offset="1.0" stop-color="#b82828"/>
    </radialGradient>
    <radialGradient cx="0" cy="0" gradientTransform="matrix(0.0027, 0.0, 0.0, 0.0027, -7.0, -31.0)" gradientUnits="userSpaceOnUse" id="gradient45" r="819.2" spreadMethod="pad">
      <stop offset="0.0" stop-color="#a82525"/>
      <stop offset="1.0" stop-color="#a82525"/>
    </radialGradient>
    <radialGradient cx="0" cy="0" gradientTransform="matrix(0.0045, 0.0, 0.0, 0.0045, 0.1, -33.35)" gradientUnits="userSpaceOnUse" id="gradient46" r="819.2" spreadMethod="pad">
      <stop offset="0.0" stop-color="#fff449"/>
      <stop offset="1.0" stop-color="#fff348"/>
    </radialGradient>
    <radialGradient cx="0" cy="0" gradientTransform="matrix(0.0045, 0.0, 0.0, 0.0045, -2.85, -35.45)" gradientUnits="userSpaceOnUse" id="gradient47" r="819.2" spreadMethod="pad">
      <stop offset="0.0" stop-color="#766f21"/>
      <stop offset="1.0" stop-color="#766f21"/>
    </radialGradient>
    <radialGradient cx="0" cy="0" gradientTransform="matrix(0.005, 0.0, 0.0, 0.005, -16.35, -17.8)" gradientUnits="userSpaceOnUse" id="gradient48" r="819.2" spreadMethod="pad">
      <stop offset="0.0" stop-color="#ffc472"/>
      <stop offset="1.0" stop-color="#ffc472"/>
    </radialGradient>
    <radialGradient cx="0" cy="0" gradientTransform="matrix(0.0119, 0.0, 0.0, 0.0119, -17.2, -17.5)" gradientUnits="userSpaceOnUse" id="gradient49" r="819.2" spreadMethod="pad">
      <stop offset="0.0" stop-color="#ffeb89"/>
      <stop offset="1.0" stop-color="#d09355"/>
    </radialGradient>
    <radialGradient cx="0" cy="0" gradientTransform="matrix(0.0116, 0.0, 0.0, 0.0116, -22.45, -23.15)" gradientUnits="userSpaceOnUse" id="gradient50" r="819.2" spreadMethod="pad">
      <stop offset="0.0" stop-color="#ffe083"/>
      <stop offset="1.0" stop-color="#e1a560"/>
    </radialGradient>
    <radialGradient cx="0" cy="0" gradientTransform="matrix(0.0165, 0.0, 0.0, 0.0165, -6.65, 0.25)" gradientUnits="userSpaceOnUse" id="gradient51" r="819.2" spreadMethod="pad">
      <stop offset="0.0" stop-color="#958888"/>
      <stop offset="1.0" stop-color="#5b5353"/>
    </radialGradient>
    <radialGradient cx="0" cy="0" gradientTransform="matrix(0.0104, 0.0, 0.0, 0.0104, -8.75, 4.85)" gradientUnits="userSpaceOnUse" id="gradient52" r="819.2" spreadMethod="pad">
      <stop offset="0.0" stop-color="#fff68f"/>
      <stop offset="1.0" stop-color="#b69758"/>
    </radialGradient>
    <radialGradient cx="0" cy="0" gradientTransform="matrix(0.0036, 0.0, 0.0, 0.0036, -8.75, 8.6)" gradientUnits="userSpaceOnUse" id="gradient53" r="819.2" spreadMethod="pad">
      <stop offset="0.0" stop-color="#bb844d"/>
      <stop offset="1.0" stop-color="#b9824c"/>
    </radialGradient>
  </defs>
</svg>
