<?xml version="1.0" encoding="UTF-8" standalone="no"?>
<svg xmlns:ffdec="https://www.free-decompiler.com/flash" xmlns:xlink="http://www.w3.org/1999/xlink" ffdec:objectType="shape" height="67.85px" width="30.45px" xmlns="http://www.w3.org/2000/svg">
  <g transform="matrix(1.0, 0.0, 0.0, 1.0, 16.75, 55.15)">
    <path d="M-3.0 -51.45 L-3.0 -51.6 -2.1 -53.65 Q-0.15 -55.25 2.45 -55.15 L5.0 -54.4 6.9 -52.1 7.2 -51.55 Q9.75 -48.1 1.65 -46.65 -4.5 -47.55 -3.35 -50.65 L-3.0 -51.45" fill="url(#gradient0)" fill-rule="evenodd" stroke="none"/>
    <path d="M-8.4 -47.7 L-8.3 -47.85 -8.05 -48.35 Q-6.0 -51.45 -3.0 -51.6 L-3.0 -51.45 Q-5.85 -50.2 -5.9 -47.9 L-7.05 -47.5 -8.0 -47.35 -8.5 -47.35 -8.4 -47.7" fill="url(#gradient1)" fill-rule="evenodd" stroke="none"/>
    <path d="M-8.05 -48.35 L-8.3 -47.85 -8.8 -47.65 -8.05 -48.35" fill="url(#gradient2)" fill-rule="evenodd" stroke="none"/>
    <path d="M-8.3 -47.85 L-8.4 -47.7 -8.85 -47.4 -8.8 -47.65 -8.3 -47.85" fill="url(#gradient3)" fill-rule="evenodd" stroke="none"/>
    <path d="M8.85 -50.35 L8.9 -50.0 8.8 -50.1 8.85 -50.35 M8.5 -50.45 L7.8 -51.0 8.5 -52.4 Q8.9 -51.55 8.9 -50.55 L8.5 -50.45" fill="url(#gradient4)" fill-rule="evenodd" stroke="none"/>
    <path d="M8.9 -50.0 L9.85 -48.35 Q10.3 -47.5 9.55 -45.65 L9.15 -45.1 8.85 -45.2 9.05 -46.2 8.8 -46.25 8.7 -46.7 8.2 -46.55 8.2 -48.25 8.8 -50.1 8.9 -50.0 M7.8 -51.0 L8.5 -50.45 8.0 -50.25 7.9 -50.25 8.0 -50.5 7.6 -51.1 7.8 -51.0" fill="url(#gradient5)" fill-rule="evenodd" stroke="none"/>
    <path d="M-3.7 -48.9 L-3.65 -50.35 -3.35 -50.65 Q-4.5 -47.55 1.65 -46.65 9.75 -48.1 7.2 -51.55 L7.6 -51.1 8.0 -50.5 7.9 -50.25 Q8.5 -47.95 3.8 -46.65 -0.6 -45.45 -3.7 -48.9" fill="url(#gradient6)" fill-rule="evenodd" stroke="none"/>
    <path d="M-5.9 -47.9 Q-5.85 -50.2 -3.0 -51.45 L-3.35 -50.65 -3.65 -50.35 -3.7 -48.9 -3.55 -47.6 -4.25 -47.3 -5.8 -47.5 -5.9 -47.8 -5.9 -47.9" fill="url(#gradient7)" fill-rule="evenodd" stroke="none"/>
    <path d="M8.9 -50.55 L8.85 -50.35 8.8 -50.1 8.2 -48.25 8.0 -50.25 8.5 -50.45 8.9 -50.55" fill="url(#gradient8)" fill-rule="evenodd" stroke="none"/>
    <path d="M-8.0 -47.35 L-7.05 -47.5 -5.9 -47.9 -5.9 -47.8 -5.8 -47.5 Q-4.9 -44.35 -3.4 -43.65 -1.2 -42.2 -0.2 -37.8 L-2.75 -37.7 -5.9 -38.15 -8.9 -41.85 Q-9.25 -42.3 -10.25 -42.3 L-10.4 -43.3 -10.35 -43.65 -10.4 -43.7 -10.25 -44.85 -9.5 -46.25 -8.55 -47.2 -8.0 -47.35" fill="url(#gradient9)" fill-rule="evenodd" stroke="none"/>
    <path d="M-8.5 -47.35 L-8.0 -47.35 -8.55 -47.2 -8.5 -47.35" fill="url(#gradient10)" fill-rule="evenodd" stroke="none"/>
    <path d="M-8.4 -47.7 L-8.5 -47.35 -8.55 -47.2 -9.35 -46.8 -8.85 -47.4 -8.4 -47.7" fill="url(#gradient11)" fill-rule="evenodd" stroke="none"/>
    <path d="M-1.25 -44.1 L-2.8 -45.1 Q-3.65 -46.9 -3.55 -47.6 L-3.7 -48.9 Q-0.6 -45.45 3.8 -46.65 8.5 -47.95 7.9 -50.25 L8.0 -50.25 8.2 -48.25 8.2 -46.55 8.2 -46.2 7.55 -45.15 7.2 -44.95 6.15 -44.2 4.3 -43.65 1.75 -43.45 0.1 -43.65 -1.15 -44.05 -1.2 -44.1 -1.25 -44.1" fill="url(#gradient12)" fill-rule="evenodd" stroke="none"/>
    <path d="M-5.8 -47.5 L-4.25 -47.3 -3.55 -47.6 Q-3.65 -46.9 -2.8 -45.1 L-1.25 -44.1 -1.2 -44.05 -1.15 -44.05 -0.4 -43.65 Q0.85 -42.2 5.9 -43.65 L6.8 -44.2 6.95 -44.5 7.0 -43.65 Q7.05 -40.35 2.7 -37.95 L1.8 -37.6 -0.2 -37.8 Q-1.2 -42.2 -3.4 -43.65 -4.9 -44.35 -5.8 -47.5" fill="url(#gradient13)" fill-rule="evenodd" stroke="none"/>
    <path d="M9.55 -45.65 L9.55 -44.85 9.2 -43.95 9.1 -43.65 8.25 -42.6 8.2 -43.3 8.75 -44.0 9.15 -45.1 9.55 -45.65" fill="url(#gradient14)" fill-rule="evenodd" stroke="none"/>
    <path d="M8.85 -45.2 L9.15 -45.1 8.75 -44.0 8.2 -43.3 8.05 -44.2 8.85 -45.2" fill="url(#gradient15)" fill-rule="evenodd" stroke="none"/>
    <path d="M8.2 -46.55 L8.7 -46.7 8.8 -46.25 9.05 -46.2 8.85 -45.2 8.05 -44.2 7.55 -45.15 8.2 -46.2 8.2 -46.55" fill="url(#gradient16)" fill-rule="evenodd" stroke="none"/>
    <path d="M-0.2 -37.8 L1.8 -37.6 2.7 -37.95 2.6 -36.2 Q0.15 -29.65 -6.45 -32.5 L-6.45 -33.0 -5.9 -35.3 -5.9 -38.15 -2.75 -37.7 -0.2 -37.8" fill="url(#gradient17)" fill-rule="evenodd" stroke="none"/>
    <path d="M-14.05 -35.95 Q-13.55 -40.7 -11.25 -41.75 L-10.25 -42.3 Q-9.25 -42.3 -8.9 -41.85 L-5.9 -38.15 -5.9 -35.3 -6.45 -33.0 Q-13.15 -32.2 -14.05 -35.95 M-12.45 -32.5 L-11.75 -32.0 -12.05 -32.05 -12.45 -32.5 M-11.65 -31.95 L-10.85 -31.6 -11.35 -31.7 -11.65 -31.95" fill="url(#gradient18)" fill-rule="evenodd" stroke="none"/>
    <path d="M-11.25 -41.75 L-10.85 -42.6 -10.4 -43.3 -10.25 -42.3 -11.25 -41.75" fill="url(#gradient19)" fill-rule="evenodd" stroke="none"/>
    <path d="M-10.85 -42.6 L-10.4 -43.7 -10.35 -43.65 -10.4 -43.3 -10.85 -42.6" fill="url(#gradient20)" fill-rule="evenodd" stroke="none"/>
    <path d="M-9.5 -46.25 L-9.35 -46.8 -8.55 -47.2 -9.5 -46.25 M-7.25 -31.85 L-6.15 -30.75 -6.45 -29.3 -6.8 -28.85 -7.5 -27.1 -7.55 -27.1 -7.35 -29.05 -7.65 -31.4 -7.75 -31.65 -7.25 -31.85" fill="url(#gradient21)" fill-rule="evenodd" stroke="none"/>
    <path d="M6.95 -44.5 L6.8 -44.2 5.9 -43.65 Q0.85 -42.2 -0.4 -43.65 L-1.15 -44.05 0.1 -43.65 1.75 -43.45 4.3 -43.65 6.15 -44.2 7.2 -44.95 6.95 -44.5 M-1.2 -44.05 L-1.25 -44.1 -1.2 -44.1 -1.2 -44.05" fill="url(#gradient22)" fill-rule="evenodd" stroke="none"/>
    <path d="M-1.15 -44.05 L-1.2 -44.05 -1.2 -44.1 -1.15 -44.05" fill="url(#gradient23)" fill-rule="evenodd" stroke="none"/>
    <path d="M2.7 -37.95 Q7.05 -40.35 7.0 -43.65 L6.95 -44.5 7.2 -44.95 7.55 -45.15 8.05 -44.2 8.2 -43.3 8.25 -42.6 8.05 -40.2 Q7.3 -37.9 6.55 -37.3 L5.5 -36.4 5.15 -36.2 4.35 -35.9 2.6 -36.2 2.7 -37.95" fill="url(#gradient24)" fill-rule="evenodd" stroke="none"/>
    <path d="M9.2 -43.95 Q10.9 -40.65 10.05 -38.45 9.1 -35.75 6.55 -37.3 7.3 -37.9 8.05 -40.2 L8.25 -42.6 9.1 -43.65 9.2 -43.95" fill="url(#gradient25)" fill-rule="evenodd" stroke="none"/>
    <path d="M10.05 -38.45 L10.35 -38.15 10.75 -37.1 11.1 -32.9 11.55 -31.85 11.5 -31.55 10.9 -31.4 10.65 -31.25 9.25 -31.2 8.9 -30.8 8.6 -30.75 5.95 -34.95 5.5 -36.4 6.55 -37.3 Q9.1 -35.75 10.05 -38.45" fill="url(#gradient26)" fill-rule="evenodd" stroke="none"/>
    <path d="M2.6 -36.2 L4.35 -35.9 5.15 -36.2 4.2 -32.7 4.1 -30.55 3.35 -29.05 2.85 -28.65 1.5 -28.9 1.65 -27.85 1.3 -27.5 0.8 -27.2 -0.95 -26.85 Q-3.25 -26.2 -6.15 -30.75 L-7.25 -31.85 -6.65 -32.1 -6.45 -32.5 Q0.15 -29.65 2.6 -36.2" fill="url(#gradient27)" fill-rule="evenodd" stroke="none"/>
    <path d="M-14.15 -34.35 L-14.05 -35.95 Q-13.15 -32.2 -6.45 -33.0 L-6.45 -32.5 -6.65 -32.1 -7.25 -31.85 -7.75 -31.65 -8.9 -31.4 -9.4 -31.4 -10.85 -31.6 -11.65 -31.95 -11.7 -31.95 -11.75 -32.0 -12.45 -32.5 -12.6 -32.65 -12.65 -32.65 -12.8 -32.75 -12.9 -32.9 -13.5 -33.35 -14.15 -34.35" fill="url(#gradient28)" fill-rule="evenodd" stroke="none"/>
    <path d="M-15.25 -30.0 Q-15.55 -33.05 -14.15 -34.35 L-13.5 -33.35 -12.9 -32.9 -12.8 -32.75 -12.65 -32.65 -12.6 -32.65 -12.45 -32.5 -12.05 -32.05 -11.75 -32.0 -11.7 -31.95 -11.65 -31.95 -11.35 -31.7 -11.25 -31.4 -11.45 -27.4 Q-12.2 -25.0 -12.65 -25.45 L-12.8 -25.65 -12.85 -25.65 -13.0 -25.7 -13.05 -25.8 -13.1 -25.85 -14.3 -27.0 -14.9 -28.45 -15.25 -30.0" fill="url(#gradient29)" fill-rule="evenodd" stroke="none"/>
    <path d="M-14.05 -25.5 L-15.15 -26.85 -16.25 -29.2 Q-16.9 -31.2 -16.7 -32.75 L-16.1 -31.4 -15.25 -30.0 -14.9 -28.45 -14.3 -27.0 -13.9 -25.6 -14.0 -25.5 -14.05 -25.5" fill="url(#gradient30)" fill-rule="evenodd" stroke="none"/>
    <path d="M-12.1 -17.6 L-13.2 -19.4 -13.65 -20.55 -13.8 -20.65 -13.8 -20.75 -13.8 -20.8 -13.9 -21.0 -13.9 -21.15 -14.2 -21.75 -14.2 -21.8 -14.25 -21.9 -14.25 -21.95 -14.3 -22.0 -14.35 -22.45 -14.35 -23.65 -14.35 -24.3 -14.35 -24.5 -14.3 -24.6 -14.25 -24.65 -14.25 -24.75 -14.2 -25.0 -14.05 -25.5 -14.0 -25.5 -13.0 -25.65 -12.85 -25.65 -12.8 -25.65 -12.65 -25.45 Q-10.75 -22.45 -8.65 -24.6 L-8.45 -24.15 -8.3 -22.95 -8.8 -20.75 -8.65 -17.95 -8.85 -16.85 Q-9.25 -16.2 -10.1 -15.75 L-11.25 -16.0 -11.95 -17.35 -12.1 -17.6" fill="url(#gradient31)" fill-rule="evenodd" stroke="none"/>
    <path d="M-13.0 -25.7 L-13.0 -25.65 -14.0 -25.5 -13.9 -25.6 -13.1 -25.85 -13.05 -25.8 -13.0 -25.7" fill="url(#gradient32)" fill-rule="evenodd" stroke="none"/>
    <path d="M-10.85 -31.6 L-9.4 -31.4 -8.9 -31.4 -7.75 -31.65 -7.65 -31.4 -7.35 -29.05 -7.55 -27.1 -7.55 -27.05 -7.6 -26.65 -7.65 -26.55 -7.9 -26.0 -8.5 -24.75 -8.65 -24.6 Q-10.75 -22.45 -12.65 -25.45 -12.2 -25.0 -11.45 -27.4 L-11.25 -31.4 -11.35 -31.7 -10.85 -31.6 M-13.0 -25.65 L-13.0 -25.7 -12.85 -25.65 -13.0 -25.65" fill="url(#gradient33)" fill-rule="evenodd" stroke="none"/>
    <path d="M-13.1 -25.85 L-13.9 -25.6 -14.3 -27.0 -13.1 -25.85" fill="url(#gradient34)" fill-rule="evenodd" stroke="none"/>
    <path d="M4.2 -32.7 L4.4 -32.6 5.5 -31.05 5.8 -30.7 6.0 -28.4 Q5.35 -28.6 5.05 -26.65 L3.65 -25.25 Q1.65 -23.85 0.5 -24.55 L-0.5 -23.75 -1.1 -24.2 Q-3.15 -23.45 -4.8 -24.65 L-5.75 -25.5 -6.25 -26.2 -6.45 -26.8 -6.45 -29.3 -6.15 -30.75 Q-3.25 -26.2 -0.95 -26.85 L0.8 -27.2 1.3 -27.5 1.65 -27.85 1.5 -28.9 2.85 -28.65 3.35 -29.05 4.1 -30.55 4.2 -32.7" fill="url(#gradient35)" fill-rule="evenodd" stroke="none"/>
    <path d="M9.85 -26.65 L9.95 -25.8 9.05 -26.65 8.8 -28.15 8.0 -29.2 7.65 -29.8 8.15 -29.6 Q8.9 -29.2 9.05 -27.65 L9.85 -26.65 M4.4 -32.6 Q5.9 -30.9 7.2 -30.1 L6.9 -30.1 5.5 -31.05 4.4 -32.6" fill="url(#gradient36)" fill-rule="evenodd" stroke="none"/>
    <path d="M11.55 -31.85 Q14.45 -30.3 13.4 -28.15 12.5 -26.05 9.85 -26.65 L9.05 -27.65 Q8.9 -29.2 8.15 -29.6 L8.6 -30.75 8.9 -30.8 Q8.85 -26.35 11.5 -26.95 12.8 -27.45 10.65 -31.25 L10.9 -31.4 11.5 -31.55 11.55 -31.85" fill="url(#gradient37)" fill-rule="evenodd" stroke="none"/>
    <path d="M8.9 -30.8 L9.25 -31.2 10.65 -31.25 Q12.8 -27.45 11.5 -26.95 8.85 -26.35 8.9 -30.8" fill="url(#gradient38)" fill-rule="evenodd" stroke="none"/>
    <path d="M-7.55 -27.1 L-7.5 -27.1 -7.55 -27.05 -7.55 -27.1 M-7.6 -26.65 L-7.6 -26.55 -7.65 -26.55 -7.6 -26.65" fill="url(#gradient39)" fill-rule="evenodd" stroke="none"/>
    <path d="M-7.5 -27.1 L-6.8 -28.85 -6.45 -29.3 -6.45 -26.8 -6.25 -26.2 -6.8 -26.4 -6.8 -26.55 -7.6 -26.35 -7.6 -26.55 -7.6 -26.65 -7.55 -27.05 -7.5 -27.1" fill="url(#gradient40)" fill-rule="evenodd" stroke="none"/>
    <path d="M9.95 -25.8 L9.7 -24.25 9.25 -23.85 Q7.55 -25.6 6.0 -28.4 L5.8 -30.7 5.5 -31.05 6.9 -30.1 7.2 -30.1 7.55 -30.1 7.65 -29.8 8.0 -29.2 8.8 -28.15 9.05 -26.65 9.95 -25.8" fill="url(#gradient41)" fill-rule="evenodd" stroke="none"/>
    <path d="M9.25 -23.85 L9.45 -22.7 9.55 -21.35 Q9.6 -20.1 9.05 -19.1 8.3 -15.8 2.65 -16.0 L3.6 -19.1 Q4.3 -20.5 4.05 -23.3 L3.65 -25.25 5.05 -26.65 Q5.35 -28.6 6.0 -28.4 7.55 -25.6 9.25 -23.85" fill="url(#gradient42)" fill-rule="evenodd" stroke="none"/>
    <path d="M-0.5 -23.75 L0.5 -24.55 Q1.65 -23.85 3.65 -25.25 L4.05 -23.3 Q4.3 -20.5 3.6 -19.1 L2.65 -16.0 2.0 -14.25 Q1.1 -8.6 -7.1 -12.15 L-6.05 -13.2 -5.8 -13.9 -5.5 -14.15 -5.3 -14.85 -3.8 -14.45 Q-2.35 -14.5 -1.35 -16.35 L-0.55 -19.1 Q0.9 -22.4 -0.5 -23.75" fill="url(#gradient43)" fill-rule="evenodd" stroke="none"/>
    <path d="M-7.6 -26.35 L-6.8 -26.55 -6.8 -26.4 -6.25 -26.2 -5.75 -25.5 -5.95 -25.55 -7.6 -25.65 -8.5 -24.75 -7.9 -26.0 -7.6 -26.35 M-4.8 -24.65 Q-3.15 -23.45 -1.1 -24.2 L-0.5 -23.75 Q0.9 -22.4 -0.55 -19.1 L-1.35 -16.35 Q-2.35 -14.5 -3.8 -14.45 L-4.1 -14.85 Q-3.15 -14.5 -1.9 -19.1 -1.1 -22.95 -3.25 -22.35 L-2.45 -23.4 -3.9 -23.65 -4.8 -24.65" fill="url(#gradient44)" fill-rule="evenodd" stroke="none"/>
    <path d="M-11.85 -9.65 L-12.1 -17.6 -11.95 -17.35 -11.25 -16.0 -11.6 -14.6 -11.15 -13.1 -11.45 -12.0 -11.5 -10.15 -11.85 -9.65 M-7.6 -26.35 L-7.9 -26.0 -7.65 -26.55 -7.6 -26.55 -7.6 -26.35" fill="url(#gradient45)" fill-rule="evenodd" stroke="none"/>
    <path d="M-8.5 -24.75 L-7.6 -25.65 -5.95 -25.55 -5.75 -25.5 -4.8 -24.65 -3.9 -23.65 -2.45 -23.4 -3.25 -22.35 Q-1.1 -22.95 -1.9 -19.1 -3.15 -14.5 -4.1 -14.85 L-3.8 -14.45 -5.3 -14.85 Q-6.0 -18.1 -8.65 -17.95 L-8.8 -20.75 -8.3 -22.95 -8.45 -24.15 -8.65 -24.6 -8.5 -24.75" fill="url(#gradient46)" fill-rule="evenodd" stroke="none"/>
    <path d="M9.45 -22.7 L10.35 -20.95 10.55 -18.2 Q10.7 -11.7 2.15 -11.7 L2.2 -13.95 2.0 -14.25 2.65 -16.0 Q8.3 -15.8 9.05 -19.1 9.6 -20.1 9.55 -21.35 L9.45 -22.7" fill="url(#gradient47)" fill-rule="evenodd" stroke="none"/>
    <path d="M-14.35 -24.5 L-14.35 -24.6 -14.3 -24.6 -14.35 -24.5 M-14.3 -24.75 L-14.2 -25.0 -14.25 -24.75 -14.3 -24.75" fill="url(#gradient48)" fill-rule="evenodd" stroke="none"/>
    <path d="M-14.4 -23.65 L-14.35 -24.3 -14.35 -23.65 -14.4 -23.65 M-14.35 -24.6 L-14.3 -24.75 -14.25 -24.75 -14.25 -24.65 -14.3 -24.6 -14.35 -24.6" fill="url(#gradient49)" fill-rule="evenodd" stroke="none"/>
    <path d="M-14.35 -22.45 L-14.4 -23.65 -14.35 -23.65 -14.35 -22.45" fill="url(#gradient50)" fill-rule="evenodd" stroke="none"/>
    <path d="M-13.8 -20.75 L-13.85 -20.8 -13.8 -20.8 -13.8 -20.75 M-14.05 -21.35 L-14.05 -21.4 -14.15 -21.45 -14.15 -21.55 -14.2 -21.6 -14.2 -21.75 -13.9 -21.15 -13.9 -21.0 -14.05 -21.35" fill="url(#gradient51)" fill-rule="evenodd" stroke="none"/>
    <path d="M-13.85 -20.8 L-14.05 -21.35 -13.9 -21.0 -13.8 -20.8 -13.85 -20.8" fill="url(#gradient52)" fill-rule="evenodd" stroke="none"/>
    <path d="M-12.5 -4.05 L-12.5 -6.55 -11.85 -9.65 -11.5 -10.15 Q-11.7 -9.4 -10.85 -7.7 L-9.85 -6.8 Q-7.3 -3.55 0.25 -6.8 L1.0 -7.6 1.8 -9.65 2.15 -8.9 2.15 -6.6 2.15 -5.5 1.7 -3.35 Q0.7 1.65 -6.8 1.5 -11.5 0.65 -12.5 -4.05" fill="url(#gradient53)" fill-rule="evenodd" stroke="none"/>
    <path d="M-7.1 -12.15 Q1.1 -8.6 2.0 -14.25 L2.2 -13.95 2.15 -11.7 1.8 -9.65 1.0 -7.6 0.25 -6.8 Q-7.3 -3.55 -9.85 -6.8 L-10.85 -7.7 Q-11.7 -9.4 -11.5 -10.15 L-11.45 -12.0 -11.15 -13.1 Q-9.6 -11.0 -7.1 -12.15" fill="url(#gradient54)" fill-rule="evenodd" stroke="none"/>
    <path d="M-11.15 -13.1 L-11.6 -14.6 -11.25 -16.0 -10.1 -15.75 Q-9.25 -16.2 -8.85 -16.85 -6.1 -16.0 -5.8 -13.9 L-6.05 -13.2 -7.1 -12.15 Q-9.6 -11.0 -11.15 -13.1" fill="url(#gradient55)" fill-rule="evenodd" stroke="none"/>
    <path d="M10.55 -18.2 L11.3 -16.55 Q12.0 -13.9 11.7 -12.9 12.45 -9.6 7.0 -6.8 6.7 -6.3 4.1 -6.25 L2.15 -6.6 2.15 -8.9 1.8 -9.65 2.15 -11.7 Q10.7 -11.7 10.55 -18.2" fill="url(#gradient56)" fill-rule="evenodd" stroke="none"/>
    <path d="M11.7 -12.9 Q13.05 -7.7 11.9 -6.35 12.0 -5.85 10.4 -3.85 L8.85 -2.85 8.2 -2.45 Q6.05 -0.8 1.75 -3.05 L1.7 -3.35 2.15 -5.5 2.15 -6.6 4.1 -6.25 Q6.7 -6.3 7.0 -6.8 12.45 -9.6 11.7 -12.9" fill="url(#gradient57)" fill-rule="evenodd" stroke="none"/>
    <path d="M-8.65 -17.95 Q-6.0 -18.1 -5.3 -14.85 L-5.5 -14.15 -5.8 -13.9 Q-6.1 -16.0 -8.85 -16.85 L-8.65 -17.95" fill="url(#gradient58)" fill-rule="evenodd" stroke="none"/>
    <path d="M1.75 -3.05 Q2.25 4.35 -3.45 7.5 -4.05 7.95 -5.65 8.3 L-8.0 8.0 -9.25 7.25 -10.6 5.45 -11.85 4.5 Q-14.6 2.95 -12.5 -4.05 -11.5 0.65 -6.8 1.5 0.7 1.65 1.7 -3.35 L1.75 -3.05" fill="url(#gradient59)" fill-rule="evenodd" stroke="none"/>
    <path d="M-10.3 7.2 L-11.45 5.8 -11.85 4.5 -10.6 5.45 -9.25 7.25 -8.0 8.0 -9.5 7.7 -10.1 7.35 -10.3 7.2" fill="url(#gradient60)" fill-rule="evenodd" stroke="none"/>
    <path d="M-3.1 10.15 L-3.05 10.95 -3.85 12.15 -3.95 12.2 -4.1 12.2 -7.15 12.6 Q-8.5 13.35 -10.3 7.2 L-10.1 7.35 Q-9.6 9.7 -8.6 10.95 L-7.35 11.75 -5.65 11.7 -4.05 11.3 -3.7 11.05 -3.1 10.15" fill="url(#gradient61)" fill-rule="evenodd" stroke="none"/>
    <path d="M-4.1 12.2 L-5.5 12.65 -7.15 12.6 -4.1 12.2" fill="url(#gradient62)" fill-rule="evenodd" stroke="none"/>
    <path d="M-3.45 7.5 L-3.25 8.2 -3.1 10.15 -3.7 11.05 -4.05 11.3 -7.35 11.75 -8.6 10.95 Q-9.6 9.7 -10.1 7.35 L-9.5 7.7 -8.0 8.0 -5.65 8.3 Q-4.05 7.95 -3.45 7.5" fill="url(#gradient63)" fill-rule="evenodd" stroke="none"/>
    <path d="M11.9 -6.35 L12.0 -6.25 12.55 -5.15 12.45 -3.9 12.4 -3.75 Q12.15 -1.05 8.85 -2.85 L10.4 -3.85 Q12.0 -5.85 11.9 -6.35" fill="url(#gradient64)" fill-rule="evenodd" stroke="none"/>
    <path d="M12.0 -6.25 Q12.5 -6.35 13.1 -4.7 L13.05 -3.45 12.9 -3.0 Q13.1 -1.7 11.9 -1.75 L8.2 -2.45 8.85 -2.85 Q12.15 -1.05 12.4 -3.75 L12.45 -3.9 12.55 -5.15 12.0 -6.25" fill="url(#gradient65)" fill-rule="evenodd" stroke="none"/>
    <path d="M-4.05 11.3 L-5.65 11.7 -7.35 11.75 -4.05 11.3" fill="url(#gradient66)" fill-rule="evenodd" stroke="none"/>
  </g>
  <defs>
    <radialGradient cx="0" cy="0" gradientTransform="matrix(0.0075, 0.0, 0.0, 0.0075, 1.6, -50.45)" gradientUnits="userSpaceOnUse" id="gradient0" r="819.2" spreadMethod="pad">
      <stop offset="0.0" stop-color="#5c5343"/>
      <stop offset="1.0" stop-color="#403a2f"/>
    </radialGradient>
    <radialGradient cx="0" cy="0" gradientTransform="matrix(0.0054, 0.0, 0.0, 0.0054, -4.95, -48.1)" gradientUnits="userSpaceOnUse" id="gradient1" r="819.2" spreadMethod="pad">
      <stop offset="0.0" stop-color="#ffcb00"/>
      <stop offset="1.0" stop-color="#ba5d00"/>
    </radialGradient>
    <radialGradient cx="0" cy="0" gradientTransform="matrix(0.0017, 0.0, 0.0, 0.0017, -7.65, -48.4)" gradientUnits="userSpaceOnUse" id="gradient2" r="819.2" spreadMethod="pad">
      <stop offset="0.0" stop-color="#4b4444"/>
      <stop offset="1.0" stop-color="#423c3c"/>
    </radialGradient>
    <radialGradient cx="0" cy="0" gradientTransform="matrix(0.005, 0.0, 0.0, 0.005, -8.05, -48.55)" gradientUnits="userSpaceOnUse" id="gradient3" r="819.2" spreadMethod="pad">
      <stop offset="0.0" stop-color="#121111"/>
      <stop offset="1.0" stop-color="#121111"/>
    </radialGradient>
    <radialGradient cx="0" cy="0" gradientTransform="matrix(0.0026, 0.0, 0.0, 0.0026, 8.3, -51.5)" gradientUnits="userSpaceOnUse" id="gradient4" r="819.2" spreadMethod="pad">
      <stop offset="0.0" stop-color="#ffffff"/>
      <stop offset="1.0" stop-color="#b5b5b5"/>
    </radialGradient>
    <radialGradient cx="0" cy="0" gradientTransform="matrix(0.0045, 0.0, 0.0, 0.0045, 7.5, -48.25)" gradientUnits="userSpaceOnUse" id="gradient5" r="819.2" spreadMethod="pad">
      <stop offset="0.0" stop-color="#5c5343"/>
      <stop offset="1.0" stop-color="#373228"/>
    </radialGradient>
    <radialGradient cx="0" cy="0" gradientTransform="matrix(0.011, 0.0, 0.0, 0.011, -0.25, -46.75)" gradientUnits="userSpaceOnUse" id="gradient6" r="819.2" spreadMethod="pad">
      <stop offset="0.0" stop-color="#f77c00"/>
      <stop offset="1.0" stop-color="#f17900"/>
    </radialGradient>
    <radialGradient cx="0" cy="0" gradientTransform="matrix(0.0048, 0.0, 0.0, 0.0048, -2.75, -48.95)" gradientUnits="userSpaceOnUse" id="gradient7" r="819.2" spreadMethod="pad">
      <stop offset="0.0" stop-color="#ffc800"/>
      <stop offset="1.0" stop-color="#c26100"/>
    </radialGradient>
    <radialGradient cx="0" cy="0" gradientTransform="matrix(0.0029, 0.0, 0.0, 0.0029, 8.15, -50.0)" gradientUnits="userSpaceOnUse" id="gradient8" r="819.2" spreadMethod="pad">
      <stop offset="0.0" stop-color="#f0f0f0"/>
      <stop offset="1.0" stop-color="#9b9b9b"/>
    </radialGradient>
    <radialGradient cx="0" cy="0" gradientTransform="matrix(0.0088, 0.0, 0.0, 0.0088, -4.4, -41.85)" gradientUnits="userSpaceOnUse" id="gradient9" r="819.2" spreadMethod="pad">
      <stop offset="0.0" stop-color="#605746"/>
      <stop offset="1.0" stop-color="#3b352a"/>
    </radialGradient>
    <radialGradient cx="0" cy="0" gradientTransform="matrix(0.0017, 0.0, 0.0, 0.0017, -7.35, -47.5)" gradientUnits="userSpaceOnUse" id="gradient10" r="819.2" spreadMethod="pad">
      <stop offset="0.0" stop-color="#ff8a00"/>
      <stop offset="1.0" stop-color="#ff8900"/>
    </radialGradient>
    <radialGradient cx="0" cy="0" gradientTransform="matrix(0.0022, 0.0, 0.0, 0.0022, -7.95, -47.75)" gradientUnits="userSpaceOnUse" id="gradient11" r="819.2" spreadMethod="pad">
      <stop offset="0.0" stop-color="#c76400"/>
      <stop offset="1.0" stop-color="#ad5700"/>
    </radialGradient>
    <radialGradient cx="0" cy="0" gradientTransform="matrix(0.0089, 0.0, 0.0, 0.0089, 1.8, -46.55)" gradientUnits="userSpaceOnUse" id="gradient12" r="819.2" spreadMethod="pad">
      <stop offset="0.0" stop-color="#ffa100"/>
      <stop offset="1.0" stop-color="#f38100"/>
    </radialGradient>
    <radialGradient cx="0" cy="0" gradientTransform="matrix(0.0098, 0.0, 0.0, 0.0098, 0.1, -43.3)" gradientUnits="userSpaceOnUse" id="gradient13" r="819.2" spreadMethod="pad">
      <stop offset="0.0" stop-color="#5f5645"/>
      <stop offset="1.0" stop-color="#3f392e"/>
    </radialGradient>
    <radialGradient cx="0" cy="0" gradientTransform="matrix(0.0038, 0.0, 0.0, 0.0038, 8.6, -45.0)" gradientUnits="userSpaceOnUse" id="gradient14" r="819.2" spreadMethod="pad">
      <stop offset="0.0" stop-color="#ffac00"/>
      <stop offset="1.0" stop-color="#c96600"/>
    </radialGradient>
    <radialGradient cx="0" cy="0" gradientTransform="matrix(0.0033, 0.0, 0.0, 0.0033, 8.25, -45.65)" gradientUnits="userSpaceOnUse" id="gradient15" r="819.2" spreadMethod="pad">
      <stop offset="0.0" stop-color="#db9e5b"/>
      <stop offset="1.0" stop-color="#b8854c"/>
    </radialGradient>
    <radialGradient cx="0" cy="0" gradientTransform="matrix(0.003, 0.0, 0.0, 0.003, 7.35, -46.0)" gradientUnits="userSpaceOnUse" id="gradient16" r="819.2" spreadMethod="pad">
      <stop offset="0.0" stop-color="#ffc000"/>
      <stop offset="1.0" stop-color="#dc7300"/>
    </radialGradient>
    <radialGradient cx="0" cy="0" gradientTransform="matrix(0.0097, 0.0, 0.0, 0.0097, -5.0, -38.7)" gradientUnits="userSpaceOnUse" id="gradient17" r="819.2" spreadMethod="pad">
      <stop offset="0.0" stop-color="#8f8383"/>
      <stop offset="1.0" stop-color="#5d5555"/>
    </radialGradient>
    <radialGradient cx="0" cy="0" gradientTransform="matrix(0.0084, 0.0, 0.0, 0.0084, -9.45, -38.35)" gradientUnits="userSpaceOnUse" id="gradient18" r="819.2" spreadMethod="pad">
      <stop offset="0.0" stop-color="#ffd87c"/>
      <stop offset="1.0" stop-color="#bf8a4f"/>
    </radialGradient>
    <radialGradient cx="0" cy="0" gradientTransform="matrix(0.0042, 0.0, 0.0, 0.0042, -9.65, -43.15)" gradientUnits="userSpaceOnUse" id="gradient19" r="819.2" spreadMethod="pad">
      <stop offset="0.0" stop-color="#443d31"/>
      <stop offset="1.0" stop-color="#413b2f"/>
    </radialGradient>
    <radialGradient cx="0" cy="0" gradientTransform="matrix(0.0038, 0.0, 0.0, 0.0038, -10.05, -44.2)" gradientUnits="userSpaceOnUse" id="gradient20" r="819.2" spreadMethod="pad">
      <stop offset="0.0" stop-color="#413b2f"/>
      <stop offset="1.0" stop-color="#3b352b"/>
    </radialGradient>
    <radialGradient cx="0" cy="0" gradientTransform="matrix(0.0257, 0.0, 0.0, 0.0257, -6.45, -27.15)" gradientUnits="userSpaceOnUse" id="gradient21" r="819.2" spreadMethod="pad">
      <stop offset="0.0" stop-color="#331a00"/>
      <stop offset="1.0" stop-color="#331a00"/>
    </radialGradient>
    <radialGradient cx="0" cy="0" gradientTransform="matrix(0.0076, 0.0, 0.0, 0.0076, 1.9, -43.45)" gradientUnits="userSpaceOnUse" id="gradient22" r="819.2" spreadMethod="pad">
      <stop offset="0.0" stop-color="#474034"/>
      <stop offset="1.0" stop-color="#40392e"/>
    </radialGradient>
    <radialGradient cx="0" cy="0" gradientTransform="matrix(0.0067, 0.0, 0.0, 0.0067, -2.8, -45.2)" gradientUnits="userSpaceOnUse" id="gradient23" r="819.2" spreadMethod="pad">
      <stop offset="0.0" stop-color="#331a00"/>
      <stop offset="1.0" stop-color="#331a00"/>
    </radialGradient>
    <radialGradient cx="0" cy="0" gradientTransform="matrix(0.0092, 0.0, 0.0, 0.0092, 3.35, -39.1)" gradientUnits="userSpaceOnUse" id="gradient24" r="819.2" spreadMethod="pad">
      <stop offset="0.0" stop-color="#7f7474"/>
      <stop offset="1.0" stop-color="#5b5353"/>
    </radialGradient>
    <radialGradient cx="0" cy="0" gradientTransform="matrix(0.0072, 0.0, 0.0, 0.0072, 7.9, -42.7)" gradientUnits="userSpaceOnUse" id="gradient25" r="819.2" spreadMethod="pad">
      <stop offset="0.0" stop-color="#ffd77b"/>
      <stop offset="1.0" stop-color="#876238"/>
    </radialGradient>
    <radialGradient cx="0" cy="0" gradientTransform="matrix(0.0096, 0.0, 0.0, 0.0096, 6.95, -37.75)" gradientUnits="userSpaceOnUse" id="gradient26" r="819.2" spreadMethod="pad">
      <stop offset="0.0" stop-color="#6b614e"/>
      <stop offset="1.0" stop-color="#413b2f"/>
    </radialGradient>
    <radialGradient cx="0" cy="0" gradientTransform="matrix(0.014, 0.0, 0.0, 0.014, 3.2, -34.15)" gradientUnits="userSpaceOnUse" id="gradient27" r="819.2" spreadMethod="pad">
      <stop offset="0.0" stop-color="#726868"/>
      <stop offset="1.0" stop-color="#4e4747"/>
    </radialGradient>
    <radialGradient cx="0" cy="0" gradientTransform="matrix(0.0058, 0.0, 0.0, 0.0058, -10.3, -33.5)" gradientUnits="userSpaceOnUse" id="gradient28" r="819.2" spreadMethod="pad">
      <stop offset="0.0" stop-color="#ffc700"/>
      <stop offset="1.0" stop-color="#f67b00"/>
    </radialGradient>
    <radialGradient cx="0" cy="0" gradientTransform="matrix(0.0085, 0.0, 0.0, 0.0085, -11.8, -32.4)" gradientUnits="userSpaceOnUse" id="gradient29" r="819.2" spreadMethod="pad">
      <stop offset="0.0" stop-color="#ffdb7d"/>
      <stop offset="1.0" stop-color="#9e7341"/>
    </radialGradient>
    <radialGradient cx="0" cy="0" gradientTransform="matrix(0.0067, 0.0, 0.0, 0.0067, -15.6, -29.9)" gradientUnits="userSpaceOnUse" id="gradient30" r="819.2" spreadMethod="pad">
      <stop offset="0.0" stop-color="#ffffff"/>
      <stop offset="1.0" stop-color="#9b9b9b"/>
    </radialGradient>
    <radialGradient cx="0" cy="0" gradientTransform="matrix(0.0102, 0.0, 0.0, 0.0102, -12.0, -23.7)" gradientUnits="userSpaceOnUse" id="gradient31" r="819.2" spreadMethod="pad">
      <stop offset="0.0" stop-color="#655c4a"/>
      <stop offset="1.0" stop-color="#3c362c"/>
    </radialGradient>
    <radialGradient cx="0" cy="0" gradientTransform="matrix(0.0015, 0.0, 0.0, 0.0015, -12.85, -25.75)" gradientUnits="userSpaceOnUse" id="gradient32" r="819.2" spreadMethod="pad">
      <stop offset="0.0" stop-color="#322d24"/>
      <stop offset="1.0" stop-color="#2d2921"/>
    </radialGradient>
    <radialGradient cx="0" cy="0" gradientTransform="matrix(0.0105, 0.0, 0.0, 0.0105, -10.3, -32.3)" gradientUnits="userSpaceOnUse" id="gradient33" r="819.2" spreadMethod="pad">
      <stop offset="0.0" stop-color="#ffd87c"/>
      <stop offset="1.0" stop-color="#936a3d"/>
    </radialGradient>
    <radialGradient cx="0" cy="0" gradientTransform="matrix(0.0021, 0.0, 0.0, 0.0021, -13.1, -26.1)" gradientUnits="userSpaceOnUse" id="gradient34" r="819.2" spreadMethod="pad">
      <stop offset="0.0" stop-color="#ff9500"/>
      <stop offset="1.0" stop-color="#fb7e00"/>
    </radialGradient>
    <radialGradient cx="0" cy="0" gradientTransform="matrix(0.0137, 0.0, 0.0, 0.0137, -1.65, -33.55)" gradientUnits="userSpaceOnUse" id="gradient35" r="819.2" spreadMethod="pad">
      <stop offset="0.0" stop-color="#ffdb00"/>
      <stop offset="1.0" stop-color="#ff9400"/>
    </radialGradient>
    <radialGradient cx="0" cy="0" gradientTransform="matrix(0.007, 0.0, 0.0, 0.007, 6.7, -28.85)" gradientUnits="userSpaceOnUse" id="gradient36" r="819.2" spreadMethod="pad">
      <stop offset="0.0" stop-color="#3f4b78"/>
      <stop offset="1.0" stop-color="#1a2033"/>
    </radialGradient>
    <radialGradient cx="0" cy="0" gradientTransform="matrix(0.0039, 0.0, 0.0, 0.0039, 11.2, -29.1)" gradientUnits="userSpaceOnUse" id="gradient37" r="819.2" spreadMethod="pad">
      <stop offset="0.0" stop-color="#fff18a"/>
      <stop offset="1.0" stop-color="#ae7e48"/>
    </radialGradient>
    <radialGradient cx="0" cy="0" gradientTransform="matrix(0.0029, 0.0, 0.0, 0.0029, 10.45, -29.25)" gradientUnits="userSpaceOnUse" id="gradient38" r="819.2" spreadMethod="pad">
      <stop offset="0.0" stop-color="#fff68d"/>
      <stop offset="1.0" stop-color="#c48e51"/>
    </radialGradient>
    <radialGradient cx="0" cy="0" gradientTransform="matrix(0.0051, 0.0, 0.0, 0.0051, -7.6, -26.9)" gradientUnits="userSpaceOnUse" id="gradient39" r="819.2" spreadMethod="pad">
      <stop offset="0.0" stop-color="#08090e"/>
      <stop offset="1.0" stop-color="#08090e"/>
    </radialGradient>
    <radialGradient cx="0" cy="0" gradientTransform="matrix(0.0035, 0.0, 0.0, 0.0035, -5.55, -26.85)" gradientUnits="userSpaceOnUse" id="gradient40" r="819.2" spreadMethod="pad">
      <stop offset="0.0" stop-color="#374168"/>
      <stop offset="1.0" stop-color="#28304c"/>
    </radialGradient>
    <radialGradient cx="0" cy="0" gradientTransform="matrix(0.0074, 0.0, 0.0, 0.0074, 4.6, -27.8)" gradientUnits="userSpaceOnUse" id="gradient41" r="819.2" spreadMethod="pad">
      <stop offset="0.0" stop-color="#ffde00"/>
      <stop offset="1.0" stop-color="#df7000"/>
    </radialGradient>
    <radialGradient cx="0" cy="0" gradientTransform="matrix(0.0134, 0.0, 0.0, 0.0134, 3.25, -25.45)" gradientUnits="userSpaceOnUse" id="gradient42" r="819.2" spreadMethod="pad">
      <stop offset="0.0" stop-color="#353f65"/>
      <stop offset="1.0" stop-color="#1f253b"/>
    </radialGradient>
    <radialGradient cx="0" cy="0" gradientTransform="matrix(0.0194, 0.0, 0.0, 0.0194, -1.6, -24.25)" gradientUnits="userSpaceOnUse" id="gradient43" r="819.2" spreadMethod="pad">
      <stop offset="0.0" stop-color="#404b79"/>
      <stop offset="1.0" stop-color="#242b45"/>
    </radialGradient>
    <radialGradient cx="0" cy="0" gradientTransform="matrix(0.0098, 0.0, 0.0, 0.0098, -1.7, -22.05)" gradientUnits="userSpaceOnUse" id="gradient44" r="819.2" spreadMethod="pad">
      <stop offset="0.0" stop-color="#ffd300"/>
      <stop offset="1.0" stop-color="#d37900"/>
    </radialGradient>
    <radialGradient cx="0" cy="0" gradientTransform="matrix(0.0202, 0.0, 0.0, 0.0202, -10.7, -17.1)" gradientUnits="userSpaceOnUse" id="gradient45" r="819.2" spreadMethod="pad">
      <stop offset="0.0" stop-color="#0f0d0b"/>
      <stop offset="1.0" stop-color="#0c0b09"/>
    </radialGradient>
    <radialGradient cx="0" cy="0" gradientTransform="matrix(0.0099, 0.0, 0.0, 0.0099, -2.0, -21.85)" gradientUnits="userSpaceOnUse" id="gradient46" r="819.2" spreadMethod="pad">
      <stop offset="0.0" stop-color="#3f4a77"/>
      <stop offset="1.0" stop-color="#2b3252"/>
    </radialGradient>
    <radialGradient cx="0" cy="0" gradientTransform="matrix(0.01, 0.0, 0.0, 0.01, 3.95, -16.95)" gradientUnits="userSpaceOnUse" id="gradient47" r="819.2" spreadMethod="pad">
      <stop offset="0.0" stop-color="#38426a"/>
      <stop offset="1.0" stop-color="#20263c"/>
    </radialGradient>
    <radialGradient cx="0" cy="0" gradientTransform="matrix(0.0015, 0.0, 0.0, 0.0015, -14.35, -24.55)" gradientUnits="userSpaceOnUse" id="gradient48" r="819.2" spreadMethod="pad">
      <stop offset="0.0" stop-color="#0c0b09"/>
      <stop offset="1.0" stop-color="#0c0b09"/>
    </radialGradient>
    <radialGradient cx="0" cy="0" gradientTransform="matrix(0.0024, 0.0, 0.0, 0.0024, -14.45, -23.85)" gradientUnits="userSpaceOnUse" id="gradient49" r="819.2" spreadMethod="pad">
      <stop offset="0.0" stop-color="#433c30"/>
      <stop offset="1.0" stop-color="#342f26"/>
    </radialGradient>
    <radialGradient cx="0" cy="0" gradientTransform="matrix(0.0018, 0.0, 0.0, 0.0018, -14.25, -23.8)" gradientUnits="userSpaceOnUse" id="gradient50" r="819.2" spreadMethod="pad">
      <stop offset="0.0" stop-color="#0c0b09"/>
      <stop offset="1.0" stop-color="#0c0b09"/>
    </radialGradient>
    <radialGradient cx="0" cy="0" gradientTransform="matrix(0.0055, 0.0, 0.0, 0.0055, -13.65, -21.25)" gradientUnits="userSpaceOnUse" id="gradient51" r="819.2" spreadMethod="pad">
      <stop offset="0.0" stop-color="#0c0b09"/>
      <stop offset="1.0" stop-color="#0c0b09"/>
    </radialGradient>
    <radialGradient cx="0" cy="0" gradientTransform="matrix(0.0035, 0.0, 0.0, 0.0035, -14.4, -22.45)" gradientUnits="userSpaceOnUse" id="gradient52" r="819.2" spreadMethod="pad">
      <stop offset="0.0" stop-color="#413a2f"/>
      <stop offset="1.0" stop-color="#363128"/>
    </radialGradient>
    <radialGradient cx="0" cy="0" gradientTransform="matrix(0.0104, 0.0, 0.0, 0.0104, -4.8, -5.9)" gradientUnits="userSpaceOnUse" id="gradient53" r="819.2" spreadMethod="pad">
      <stop offset="0.0" stop-color="#3b4670"/>
      <stop offset="1.0" stop-color="#21283f"/>
    </radialGradient>
    <radialGradient cx="0" cy="0" gradientTransform="matrix(0.0109, 0.0, 0.0, 0.0109, -5.25, -13.5)" gradientUnits="userSpaceOnUse" id="gradient54" r="819.2" spreadMethod="pad">
      <stop offset="0.0" stop-color="#404c7a"/>
      <stop offset="1.0" stop-color="#1f253b"/>
    </radialGradient>
    <radialGradient cx="0" cy="0" gradientTransform="matrix(0.0042, 0.0, 0.0, 0.0042, -8.4, -15.2)" gradientUnits="userSpaceOnUse" id="gradient55" r="819.2" spreadMethod="pad">
      <stop offset="0.0" stop-color="#ffec87"/>
      <stop offset="1.0" stop-color="#9b7140"/>
    </radialGradient>
    <radialGradient cx="0" cy="0" gradientTransform="matrix(0.0126, 0.0, 0.0, 0.0126, 7.75, -15.25)" gradientUnits="userSpaceOnUse" id="gradient56" r="819.2" spreadMethod="pad">
      <stop offset="0.0" stop-color="#38436a"/>
      <stop offset="1.0" stop-color="#1c2135"/>
    </radialGradient>
    <radialGradient cx="0" cy="0" gradientTransform="matrix(0.0113, 0.0, 0.0, 0.0113, 4.8, -7.9)" gradientUnits="userSpaceOnUse" id="gradient57" r="819.2" spreadMethod="pad">
      <stop offset="0.0" stop-color="#374168"/>
      <stop offset="1.0" stop-color="#1f253b"/>
    </radialGradient>
    <radialGradient cx="0" cy="0" gradientTransform="matrix(0.0039, 0.0, 0.0, 0.0039, -7.8, -16.55)" gradientUnits="userSpaceOnUse" id="gradient58" r="819.2" spreadMethod="pad">
      <stop offset="0.0" stop-color="#ffec87"/>
      <stop offset="1.0" stop-color="#af7e48"/>
    </radialGradient>
    <radialGradient cx="0" cy="0" gradientTransform="matrix(0.0107, 0.0, 0.0, 0.0107, -5.35, -0.45)" gradientUnits="userSpaceOnUse" id="gradient59" r="819.2" spreadMethod="pad">
      <stop offset="0.0" stop-color="#3b456f"/>
      <stop offset="1.0" stop-color="#181d2e"/>
    </radialGradient>
    <radialGradient cx="0" cy="0" gradientTransform="matrix(0.0048, 0.0, 0.0, 0.0048, -9.95, 5.15)" gradientUnits="userSpaceOnUse" id="gradient60" r="819.2" spreadMethod="pad">
      <stop offset="0.0" stop-color="#ffd100"/>
      <stop offset="1.0" stop-color="#b55b00"/>
    </radialGradient>
    <radialGradient cx="0" cy="0" gradientTransform="matrix(0.0085, 0.0, 0.0, 0.0085, -5.95, 11.2)" gradientUnits="userSpaceOnUse" id="gradient61" r="819.2" spreadMethod="pad">
      <stop offset="0.0" stop-color="#ad9e9e"/>
      <stop offset="1.0" stop-color="#827777"/>
    </radialGradient>
    <radialGradient cx="0" cy="0" gradientTransform="matrix(0.0023, 0.0, 0.0, 0.0023, -5.75, 12.25)" gradientUnits="userSpaceOnUse" id="gradient62" r="819.2" spreadMethod="pad">
      <stop offset="0.0" stop-color="#5a5252"/>
      <stop offset="1.0" stop-color="#595252"/>
    </radialGradient>
    <radialGradient cx="0" cy="0" gradientTransform="matrix(0.0081, 0.0, 0.0, 0.0081, -6.0, 10.4)" gradientUnits="userSpaceOnUse" id="gradient63" r="819.2" spreadMethod="pad">
      <stop offset="0.0" stop-color="#766a55"/>
      <stop offset="1.0" stop-color="#645a48"/>
    </radialGradient>
    <radialGradient cx="0" cy="0" gradientTransform="matrix(0.0066, 0.0, 0.0, 0.0066, 7.1, -4.55)" gradientUnits="userSpaceOnUse" id="gradient64" r="819.2" spreadMethod="pad">
      <stop offset="0.0" stop-color="#746854"/>
      <stop offset="1.0" stop-color="#5f5746"/>
    </radialGradient>
    <radialGradient cx="0" cy="0" gradientTransform="matrix(0.0068, 0.0, 0.0, 0.0068, 7.4, -4.2)" gradientUnits="userSpaceOnUse" id="gradient65" r="819.2" spreadMethod="pad">
      <stop offset="0.0" stop-color="#aa9b9b"/>
      <stop offset="1.0" stop-color="#817575"/>
    </radialGradient>
    <radialGradient cx="0" cy="0" gradientTransform="matrix(0.0023, 0.0, 0.0, 0.0023, -5.85, 11.35)" gradientUnits="userSpaceOnUse" id="gradient66" r="819.2" spreadMethod="pad">
      <stop offset="0.0" stop-color="#3e382d"/>
      <stop offset="1.0" stop-color="#3d372c"/>
    </radialGradient>
  </defs>
</svg>
