<?xml version="1.0" encoding="UTF-8" standalone="no"?>
<svg xmlns:ffdec="https://www.free-decompiler.com/flash" xmlns:xlink="http://www.w3.org/1999/xlink" ffdec:objectType="shape" height="67.8px" width="30.1px" xmlns="http://www.w3.org/2000/svg">
  <g transform="matrix(1.0, 0.0, 0.0, 1.0, 12.1, 55.6)">
    <path d="M-6.0 -51.7 L-6.0 -51.75 -5.95 -51.85 Q-4.75 -54.35 -1.55 -55.55 2.7 -55.9 4.7 -52.05 L4.7 -51.75 4.75 -51.0 Q5.3 -47.65 0.5 -47.15 -4.95 -46.3 -6.1 -51.45 L-6.0 -51.7" fill="url(#gradient0)" fill-rule="evenodd" stroke="none"/>
    <path d="M-6.1 -51.55 L-6.0 -51.7 -6.1 -51.45 -6.1 -51.55" fill="url(#gradient1)" fill-rule="evenodd" stroke="none"/>
    <path d="M-6.6 -50.05 L-6.55 -50.9 -6.1 -51.55 -6.1 -51.45 Q-4.95 -46.3 0.5 -47.15 5.3 -47.65 4.75 -51.0 L5.05 -50.6 5.05 -49.5 Q4.55 -47.05 -0.95 -46.9 -5.3 -47.0 -6.6 -50.05" fill="url(#gradient2)" fill-rule="evenodd" stroke="none"/>
    <path d="M-6.7 -49.55 L-6.6 -50.05 Q-5.3 -47.0 -0.95 -46.9 4.55 -47.05 5.05 -49.5 L4.95 -48.0 Q4.95 -46.9 4.2 -45.55 L2.7 -44.55 Q-1.1 -42.85 -5.65 -45.25 L-5.8 -45.35 -5.85 -45.35 -6.2 -45.8 -6.8 -46.6 -6.7 -49.55" fill="url(#gradient3)" fill-rule="evenodd" stroke="none"/>
    <path d="M-8.0 -46.0 L-7.8 -47.5 -6.7 -49.55 -6.8 -46.6 -6.2 -45.8 -6.65 -44.8 -6.85 -43.8 -6.9 -43.65 -7.4 -44.05 -8.0 -46.0" fill="url(#gradient4)" fill-rule="evenodd" stroke="none"/>
    <path d="M-7.9 -44.2 L-8.05 -45.0 -8.0 -46.0 -7.4 -44.05 -6.9 -43.65 -6.9 -42.9 -7.7 -43.8 -7.9 -44.2" fill="url(#gradient5)" fill-rule="evenodd" stroke="none"/>
    <path d="M-8.7 -38.8 Q-9.3 -41.85 -7.9 -44.2 L-7.7 -43.8 -6.9 -42.9 Q-7.2 -40.35 -5.2 -37.75 -7.5 -36.2 -8.7 -38.8" fill="url(#gradient6)" fill-rule="evenodd" stroke="none"/>
    <path d="M-10.15 -32.25 L-9.65 -33.5 -9.5 -34.85 -9.4 -35.4 -9.5 -35.45 -9.35 -37.45 -8.7 -38.8 Q-7.5 -36.2 -5.2 -37.75 L-4.1 -36.85 -4.5 -35.45 Q-6.95 -32.0 -7.2 -31.2 L-7.5 -31.25 -7.7 -31.55 -7.95 -31.7 -9.2 -31.7 -10.15 -32.05 -10.15 -32.25" fill="url(#gradient7)" fill-rule="evenodd" stroke="none"/>
    <path d="M-9.5 -34.85 L-9.5 -35.45 -9.4 -35.4 -9.5 -34.85" fill="url(#gradient8)" fill-rule="evenodd" stroke="none"/>
    <path d="M4.7 -52.05 L7.1 -51.15 Q9.7 -49.2 9.35 -48.8 L9.65 -48.2 9.75 -47.85 8.8 -47.85 8.6 -47.85 7.1 -48.4 7.25 -48.9 6.45 -50.35 4.7 -51.75 4.7 -52.05" fill="url(#gradient9)" fill-rule="evenodd" stroke="none"/>
    <path d="M9.35 -48.8 L10.0 -48.0 9.8 -48.05 9.65 -48.2 9.35 -48.8" fill="url(#gradient10)" fill-rule="evenodd" stroke="none"/>
    <path d="M10.05 -47.85 L10.6 -47.1 9.8 -47.55 9.7 -47.65 9.75 -47.85 9.65 -48.2 9.8 -48.05 10.05 -47.85" fill="url(#gradient11)" fill-rule="evenodd" stroke="none"/>
    <path d="M8.8 -47.85 L9.75 -47.85 9.7 -47.65 8.8 -47.85" fill="url(#gradient12)" fill-rule="evenodd" stroke="none"/>
    <path d="M10.7 -46.3 L11.1 -45.5 11.15 -44.55 9.8 -42.35 9.75 -42.3 8.35 -40.75 8.2 -40.75 8.0 -40.2 7.6 -39.65 7.4 -39.1 7.15 -38.95 4.0 -38.35 1.35 -38.5 Q1.75 -40.6 2.75 -42.15 L3.9 -43.8 Q3.85 -43.3 5.95 -45.7 L6.9 -47.85 7.0 -48.2 7.1 -48.4 8.6 -47.85 8.8 -47.85 9.7 -47.65 9.8 -47.55 10.45 -46.9 10.7 -46.3" fill="url(#gradient13)" fill-rule="evenodd" stroke="none"/>
    <path d="M4.75 -51.0 L4.7 -51.75 6.45 -50.35 7.25 -48.9 7.1 -48.4 7.0 -48.2 6.9 -47.85 5.6 -47.8 4.95 -48.0 5.05 -49.5 5.05 -50.6 4.75 -51.0" fill="url(#gradient14)" fill-rule="evenodd" stroke="none"/>
    <path d="M10.0 -48.0 L10.05 -47.85 9.8 -48.05 10.0 -48.0" fill="url(#gradient15)" fill-rule="evenodd" stroke="none"/>
    <path d="M4.95 -48.0 L5.6 -47.8 6.9 -47.85 5.95 -45.7 Q3.85 -43.3 3.9 -43.8 L2.75 -42.15 Q1.75 -40.6 1.35 -38.5 L0.8 -38.15 -1.4 -38.4 Q-5.95 -41.0 -5.8 -43.8 L-5.85 -45.3 -5.4 -44.6 -4.05 -43.8 -2.6 -43.35 Q-0.25 -43.15 1.25 -43.8 L2.7 -44.55 4.2 -45.55 Q4.95 -46.9 4.95 -48.0" fill="url(#gradient16)" fill-rule="evenodd" stroke="none"/>
    <path d="M2.7 -44.55 L1.25 -43.8 Q-0.25 -43.15 -2.6 -43.35 L-4.05 -43.8 -5.4 -44.6 -5.85 -45.3 -5.85 -45.35 -5.8 -45.35 -5.65 -45.25 Q-1.1 -42.85 2.7 -44.55" fill="url(#gradient17)" fill-rule="evenodd" stroke="none"/>
    <path d="M-5.85 -45.3 L-5.8 -43.8 Q-5.95 -41.0 -1.4 -38.4 L-1.3 -36.7 -2.25 -36.4 -3.8 -36.6 -4.1 -36.85 -5.2 -37.75 Q-7.2 -40.35 -6.9 -42.9 L-6.9 -43.65 -6.85 -43.8 -6.65 -44.8 -6.2 -45.8 -5.85 -45.35 -5.85 -45.3" fill="url(#gradient18)" fill-rule="evenodd" stroke="none"/>
    <path d="M-1.4 -38.4 L0.8 -38.15 1.35 -38.5 4.0 -38.35 7.15 -38.95 7.15 -38.9 Q5.85 -36.2 7.35 -35.25 L7.75 -33.6 7.85 -33.1 Q2.0 -29.75 -1.3 -36.7 L-1.4 -38.4" fill="url(#gradient19)" fill-rule="evenodd" stroke="none"/>
    <path d="M10.6 -47.1 L10.7 -46.3 10.45 -46.9 9.8 -47.55 10.6 -47.1 M7.7 -31.4 L7.75 -31.55 8.6 -32.35 9.1 -32.25 8.9 -31.55 8.7 -29.75 8.8 -27.8 8.25 -29.3 7.8 -29.8 7.75 -29.95 7.7 -31.4 M9.05 -26.7 L9.1 -26.75 9.25 -26.45 9.05 -26.7" fill="url(#gradient20)" fill-rule="evenodd" stroke="none"/>
    <path d="M11.1 -45.5 L12.05 -43.15 11.9 -42.9 11.8 -42.95 11.35 -44.55 11.15 -44.55 11.1 -45.5" fill="url(#gradient21)" fill-rule="evenodd" stroke="none"/>
    <path d="M11.8 -42.95 L12.05 -42.0 12.0 -41.6 11.65 -41.3 Q9.25 -41.0 9.75 -42.3 L9.8 -42.35 11.15 -44.55 11.35 -44.55 11.8 -42.95" fill="url(#gradient22)" fill-rule="evenodd" stroke="none"/>
    <path d="M13.8 -42.15 Q16.5 -40.2 16.0 -36.5 L15.25 -36.5 14.55 -35.55 14.2 -34.2 14.25 -34.05 14.75 -34.05 14.6 -33.85 Q13.45 -32.7 11.3 -33.15 L9.3 -34.0 8.45 -34.95 Q8.45 -36.85 7.35 -38.75 L7.4 -39.1 7.6 -39.65 8.0 -40.2 Q7.45 -37.45 9.8 -39.0 10.65 -40.5 8.35 -40.75 L9.75 -42.3 Q9.25 -41.0 11.65 -41.3 L12.0 -41.6 12.05 -42.0 11.8 -42.95 11.9 -42.9 13.35 -42.2 13.8 -42.15" fill="url(#gradient23)" fill-rule="evenodd" stroke="none"/>
    <path d="M12.05 -43.15 L14.0 -45.3 Q14.25 -45.4 13.95 -43.8 L13.8 -42.15 13.35 -42.2 11.9 -42.9 12.05 -43.15" fill="url(#gradient24)" fill-rule="evenodd" stroke="none"/>
    <path d="M8.35 -40.75 Q10.65 -40.5 9.8 -39.0 7.45 -37.45 8.0 -40.2 L8.2 -40.75 8.35 -40.75" fill="url(#gradient25)" fill-rule="evenodd" stroke="none"/>
    <path d="M7.4 -39.1 L7.35 -38.75 7.15 -38.9 7.15 -38.95 7.4 -39.1 M8.45 -34.95 L9.3 -34.0 Q7.75 -33.7 7.9 -33.45 L7.75 -33.6 7.35 -35.25 8.45 -34.95 M11.3 -33.15 Q13.45 -32.7 14.6 -33.85 L14.25 -33.25 12.75 -32.2 11.05 -32.0 9.5 -32.15 9.55 -32.5 Q11.35 -32.9 11.3 -33.15" fill="url(#gradient26)" fill-rule="evenodd" stroke="none"/>
    <path d="M7.35 -38.75 Q8.45 -36.85 8.45 -34.95 L7.35 -35.25 Q5.85 -36.2 7.15 -38.9 L7.35 -38.75" fill="url(#gradient27)" fill-rule="evenodd" stroke="none"/>
    <path d="M9.3 -34.0 L11.3 -33.15 Q11.35 -32.9 9.55 -32.5 L9.5 -32.15 9.45 -32.15 9.3 -32.2 9.1 -32.25 8.6 -32.35 7.85 -33.1 7.75 -33.6 7.9 -33.45 Q7.75 -33.7 9.3 -34.0" fill="url(#gradient28)" fill-rule="evenodd" stroke="none"/>
    <path d="M8.6 -32.35 L7.75 -31.55 7.7 -31.4 Q5.6 -27.45 2.45 -27.25 L0.35 -27.85 -0.3 -28.35 -0.15 -29.4 -1.4 -29.05 -1.6 -29.2 Q-2.65 -30.0 -2.75 -31.55 L-2.85 -33.15 -3.8 -36.6 -2.25 -36.4 -1.3 -36.7 Q2.0 -29.75 7.85 -33.1 L8.6 -32.35" fill="url(#gradient29)" fill-rule="evenodd" stroke="none"/>
    <path d="M16.0 -36.5 Q16.55 -36.5 17.1 -37.2 L17.1 -36.2 16.75 -35.35 15.8 -34.5 14.75 -34.05 14.25 -34.05 14.2 -34.2 14.55 -35.55 15.25 -36.5 16.0 -36.5" fill="url(#gradient30)" fill-rule="evenodd" stroke="none"/>
    <path d="M15.8 -34.5 L16.5 -33.0 Q16.8 -32.4 16.55 -30.35 L16.25 -29.0 15.65 -27.6 14.5 -26.25 14.35 -26.2 Q12.4 -25.9 12.7 -31.55 L12.75 -32.2 14.25 -33.25 14.6 -33.85 14.75 -34.05 15.8 -34.5" fill="url(#gradient31)" fill-rule="evenodd" stroke="none"/>
    <path d="M16.55 -30.35 Q17.7 -31.9 18.0 -33.25 L18.0 -31.55 Q17.7 -28.6 15.4 -25.95 L15.35 -25.95 15.25 -26.1 15.65 -27.6 16.25 -29.0 16.55 -30.35" fill="url(#gradient32)" fill-rule="evenodd" stroke="none"/>
    <path d="M15.4 -25.95 L15.55 -25.4 15.65 -25.0 15.7 -22.65 15.5 -22.15 15.15 -21.2 14.65 -19.95 Q13.05 -17.8 12.65 -16.5 L11.5 -16.2 Q11.2 -16.0 10.25 -17.35 L10.05 -17.85 10.05 -18.4 10.1 -19.25 Q10.45 -21.4 9.65 -23.5 L10.0 -25.0 Q12.2 -22.9 14.25 -26.1 L15.35 -25.95 15.4 -25.95" fill="url(#gradient33)" fill-rule="evenodd" stroke="none"/>
    <path d="M14.35 -26.2 L14.5 -26.25 15.25 -26.1 15.35 -25.95 14.25 -26.1 14.35 -26.2" fill="url(#gradient34)" fill-rule="evenodd" stroke="none"/>
    <path d="M14.5 -26.25 L15.65 -27.6 15.25 -26.1 14.5 -26.25" fill="url(#gradient35)" fill-rule="evenodd" stroke="none"/>
    <path d="M-8.45 -27.1 Q-11.15 -26.5 -12.05 -28.8 -12.45 -31.65 -10.15 -32.25 L-10.15 -32.05 -9.2 -31.7 -9.35 -31.55 Q-11.6 -27.6 -9.65 -27.25 -6.65 -28.55 -7.5 -31.25 L-7.2 -31.2 -6.7 -30.15 Q-7.6 -29.75 -7.65 -28.1 L-7.7 -28.05 -7.7 -28.0 -8.45 -27.1" fill="url(#gradient36)" fill-rule="evenodd" stroke="none"/>
    <path d="M-7.5 -31.25 Q-6.65 -28.55 -9.65 -27.25 -11.6 -27.6 -9.35 -31.55 L-9.2 -31.7 -7.95 -31.7 -7.7 -31.55 -7.5 -31.25" fill="url(#gradient37)" fill-rule="evenodd" stroke="none"/>
    <path d="M-2.85 -33.15 L-2.75 -31.55 Q-2.65 -30.0 -1.6 -29.2 L-1.4 -29.05 -0.15 -29.4 -0.3 -28.35 0.35 -27.85 2.45 -27.25 Q5.6 -27.45 7.7 -31.4 L7.75 -29.95 7.7 -29.85 7.75 -29.8 7.8 -27.6 7.45 -26.5 7.05 -25.85 6.85 -25.75 6.1 -25.0 Q4.65 -24.0 2.55 -24.7 L1.8 -24.2 0.8 -25.0 -1.25 -25.1 -1.95 -25.75 -2.1 -25.65 -2.25 -25.75 Q-3.2 -26.35 -3.65 -27.25 L-3.8 -27.25 -4.0 -28.5 -4.6 -28.95 -4.35 -30.5 -4.5 -30.75 -4.2 -31.5 -4.15 -31.55 -2.95 -33.1 -2.85 -33.15" fill="url(#gradient38)" fill-rule="evenodd" stroke="none"/>
    <path d="M-8.65 -26.2 L-8.45 -27.1 -7.7 -28.0 Q-7.95 -27.4 -7.7 -26.95 L-8.65 -26.2 M-6.7 -30.15 L-6.2 -30.7 Q-4.95 -30.7 -2.95 -33.1 L-4.15 -31.55 -4.2 -31.5 -5.55 -30.5 Q-7.25 -29.1 -7.65 -28.1 -7.6 -29.75 -6.7 -30.15" fill="url(#gradient39)" fill-rule="evenodd" stroke="none"/>
    <path d="M8.8 -27.8 L8.7 -29.75 8.9 -31.55 9.1 -32.25 9.3 -32.2 9.45 -32.15 9.5 -32.15 11.05 -32.0 12.75 -32.2 12.7 -31.55 Q12.4 -25.9 14.35 -26.2 L14.25 -26.1 Q12.2 -22.9 10.0 -25.0 L9.8 -25.3 9.25 -26.45 9.1 -26.75 8.8 -27.8" fill="url(#gradient40)" fill-rule="evenodd" stroke="none"/>
    <path d="M7.8 -29.8 L8.25 -29.3 8.8 -27.8 9.1 -26.75 9.05 -26.7 8.35 -26.85 7.45 -26.5 7.8 -27.6 7.75 -29.8 7.8 -29.8" fill="url(#gradient41)" fill-rule="evenodd" stroke="none"/>
    <path d="M7.75 -29.95 L7.8 -29.8 7.75 -29.8 7.7 -29.85 7.75 -29.95" fill="url(#gradient42)" fill-rule="evenodd" stroke="none"/>
    <path d="M-7.9 -24.35 L-8.3 -24.7 -8.65 -26.2 -7.7 -26.95 Q-7.95 -27.4 -7.7 -28.0 L-7.7 -28.05 -7.65 -28.1 Q-7.25 -29.1 -5.55 -30.5 L-4.2 -31.5 -4.5 -30.75 -4.35 -30.5 -4.6 -28.95 -6.1 -26.45 Q-6.7 -26.55 -7.4 -24.65 L-7.9 -24.35" fill="url(#gradient43)" fill-rule="evenodd" stroke="none"/>
    <path d="M-8.05 -23.1 L-7.9 -24.35 -7.4 -24.65 Q-6.7 -26.55 -6.1 -26.45 L-4.6 -28.95 -4.0 -28.5 -3.8 -27.25 -3.65 -27.25 Q-3.2 -26.35 -2.25 -25.75 L-2.7 -22.8 Q-2.95 -22.4 -2.2 -19.25 L-1.3 -16.5 Q-6.35 -16.25 -7.5 -19.25 -7.8 -20.65 -8.0 -20.45 L-8.05 -23.1" fill="url(#gradient44)" fill-rule="evenodd" stroke="none"/>
    <path d="M1.8 -24.2 L2.55 -24.7 Q4.65 -24.0 6.1 -25.0 L5.4 -24.25 3.95 -23.95 3.8 -23.8 4.55 -22.85 3.6 -22.6 3.2 -22.35 3.1 -20.35 3.35 -19.25 Q4.45 -15.25 5.5 -15.35 L5.15 -15.0 Q3.45 -14.2 2.1 -19.25 0.55 -21.25 1.8 -24.2 M7.05 -25.85 L7.45 -26.5 8.35 -26.85 9.05 -26.7 9.25 -26.45 9.8 -25.3 9.1 -26.1 7.35 -26.05 7.05 -25.85" fill="url(#gradient45)" fill-rule="evenodd" stroke="none"/>
    <path d="M-2.25 -25.75 L-2.1 -25.65 -1.95 -25.75 -1.25 -25.1 0.8 -25.0 1.8 -24.2 Q0.55 -21.25 2.1 -19.25 3.45 -14.2 5.15 -15.0 L6.65 -15.35 6.8 -14.8 7.15 -14.35 7.65 -13.35 8.45 -12.65 Q1.05 -8.9 -0.75 -14.7 L-1.3 -16.5 -2.2 -19.25 Q-2.95 -22.4 -2.7 -22.8 L-2.25 -25.75" fill="url(#gradient46)" fill-rule="evenodd" stroke="none"/>
    <path d="M-9.2 -18.45 L-8.9 -21.45 -8.05 -23.1 -8.0 -20.45 Q-7.8 -20.65 -7.5 -19.25 -6.35 -16.25 -1.3 -16.5 L-0.75 -14.7 -0.8 -12.25 Q-9.5 -12.4 -9.2 -18.45" fill="url(#gradient47)" fill-rule="evenodd" stroke="none"/>
    <path d="M6.1 -25.0 L6.85 -25.75 7.05 -25.85 7.35 -26.05 9.1 -26.1 9.8 -25.3 10.0 -25.0 9.65 -23.5 Q10.45 -21.4 10.1 -19.25 L10.05 -18.4 Q7.45 -18.7 6.65 -15.35 L5.15 -15.0 5.5 -15.35 Q4.45 -15.25 3.35 -19.25 L3.1 -20.35 3.2 -22.35 3.6 -22.6 4.55 -22.85 3.8 -23.8 3.95 -23.95 5.4 -24.25 6.1 -25.0" fill="url(#gradient48)" fill-rule="evenodd" stroke="none"/>
    <path d="M6.65 -15.35 Q7.45 -18.7 10.05 -18.4 L10.05 -17.85 10.25 -17.35 Q8.1 -17.15 7.15 -14.35 L6.8 -14.8 6.65 -15.35" fill="url(#gradient49)" fill-rule="evenodd" stroke="none"/>
    <path d="M15.55 -25.4 L15.7 -25.25 15.65 -25.0 15.55 -25.4" fill="url(#gradient50)" fill-rule="evenodd" stroke="none"/>
    <path d="M15.5 -22.15 L15.35 -21.5 15.15 -21.2 15.5 -22.15" fill="url(#gradient51)" fill-rule="evenodd" stroke="none"/>
    <path d="M-10.2 -13.4 L-10.2 -15.0 Q-9.7 -18.2 -9.2 -18.45 -9.5 -12.4 -0.8 -12.25 L-0.45 -9.95 -0.45 -9.9 -0.75 -9.2 -0.75 -7.0 -2.6 -6.7 -4.6 -6.8 -4.75 -6.95 Q-9.0 -7.35 -10.2 -13.4" fill="url(#gradient52)" fill-rule="evenodd" stroke="none"/>
    <path d="M-0.3 -3.5 Q-3.95 -1.2 -6.65 -2.9 L-7.4 -3.25 -8.7 -4.0 Q-10.5 -6.35 -10.4 -6.75 L-10.95 -8.15 Q-11.1 -10.1 -10.2 -13.4 -9.0 -7.35 -4.75 -6.95 L-4.6 -6.8 -2.6 -6.7 -0.75 -7.0 -0.65 -5.75 -0.3 -3.9 -0.3 -3.75 -0.3 -3.5" fill="url(#gradient53)" fill-rule="evenodd" stroke="none"/>
    <path d="M-10.55 -6.65 L-10.4 -6.75 Q-10.5 -6.35 -8.7 -4.0 L-7.4 -3.25 Q-12.35 -0.7 -10.55 -6.65" fill="url(#gradient54)" fill-rule="evenodd" stroke="none"/>
    <path d="M-6.65 -2.9 L-10.25 -2.15 Q-11.6 -2.1 -11.45 -3.3 L-11.5 -3.5 -11.5 -3.55 -11.6 -4.05 -11.55 -5.3 Q-10.95 -6.75 -10.55 -6.65 -12.35 -0.7 -7.4 -3.25 L-6.65 -2.9" fill="url(#gradient55)" fill-rule="evenodd" stroke="none"/>
    <path d="M12.65 -16.5 L12.95 -15.45 Q13.05 -14.55 12.5 -13.6 11.05 -11.45 8.45 -12.65 L7.65 -13.35 7.15 -14.35 Q8.1 -17.15 10.25 -17.35 11.2 -16.0 11.5 -16.2 L12.65 -16.5" fill="url(#gradient56)" fill-rule="evenodd" stroke="none"/>
    <path d="M12.5 -13.6 L12.8 -12.5 12.8 -10.8 Q12.85 -8.0 10.65 -6.95 3.9 -4.5 1.5 -6.95 L0.4 -8.05 -0.4 -9.9 -0.45 -9.95 -0.8 -12.25 -0.75 -14.7 Q1.05 -8.9 8.45 -12.65 11.05 -11.45 12.5 -13.6" fill="url(#gradient57)" fill-rule="evenodd" stroke="none"/>
    <path d="M-0.4 -9.9 L-0.45 -9.9 -0.45 -9.95 -0.4 -9.9" fill="url(#gradient58)" fill-rule="evenodd" stroke="none"/>
    <path d="M12.8 -10.8 Q13.3 -10.85 13.95 -6.8 L13.9 -4.45 Q13.9 -0.8 8.3 1.05 0.0 0.75 -0.25 -3.75 L-0.25 -3.9 -0.3 -3.9 -0.65 -5.75 -0.75 -7.0 -0.75 -9.2 -0.45 -9.9 -0.4 -9.9 0.4 -8.05 1.5 -6.95 Q3.9 -4.5 10.65 -6.95 12.85 -8.0 12.8 -10.8" fill="url(#gradient59)" fill-rule="evenodd" stroke="none"/>
    <path d="M-0.3 -3.9 L-0.25 -3.9 -0.25 -3.75 -0.3 -3.75 -0.3 -3.9" fill="url(#gradient60)" fill-rule="evenodd" stroke="none"/>
    <path d="M13.9 -4.45 Q16.1 2.55 13.35 4.0 L11.7 5.3 10.7 6.8 9.45 7.55 Q7.05 8.4 4.95 7.05 -0.75 3.8 -0.3 -3.5 L-0.3 -3.75 -0.25 -3.75 Q0.0 0.75 8.3 1.05 13.9 -0.8 13.9 -4.45" fill="url(#gradient61)" fill-rule="evenodd" stroke="none"/>
    <path d="M13.35 4.0 L12.95 5.2 11.8 6.8 11.55 6.95 11.1 7.2 9.45 7.55 10.7 6.8 11.7 5.3 13.35 4.0" fill="url(#gradient62)" fill-rule="evenodd" stroke="none"/>
    <path d="M11.8 6.8 Q10.85 10.35 10.05 11.25 L8.65 12.15 5.4 11.7 Q5.25 11.95 4.55 10.6 L4.6 9.7 5.25 10.8 5.55 10.85 7.15 11.25 8.8 11.3 10.2 10.3 Q11.0 9.3 11.55 6.95 L11.8 6.8" fill="url(#gradient63)" fill-rule="evenodd" stroke="none"/>
    <path d="M4.6 9.7 L4.65 8.05 4.95 7.05 Q7.05 8.4 9.45 7.55 L11.1 7.2 11.55 6.95 Q11.0 9.3 10.2 10.3 L8.8 11.3 5.55 10.85 5.25 10.8 4.6 9.7" fill="url(#gradient64)" fill-rule="evenodd" stroke="none"/>
    <path d="M8.8 11.3 L7.15 11.25 5.55 10.85 8.8 11.3" fill="url(#gradient65)" fill-rule="evenodd" stroke="none"/>
    <path d="M8.65 12.15 L7.0 12.2 5.4 11.7 8.65 12.15" fill="url(#gradient66)" fill-rule="evenodd" stroke="none"/>
  </g>
  <defs>
    <radialGradient cx="0" cy="0" gradientTransform="matrix(0.0078, 0.0, 0.0, 0.0078, -1.05, -49.5)" gradientUnits="userSpaceOnUse" id="gradient0" r="819.2" spreadMethod="pad">
      <stop offset="0.0" stop-color="#5c5343"/>
      <stop offset="1.0" stop-color="#3a342a"/>
    </radialGradient>
    <radialGradient cx="0" cy="0" gradientTransform="matrix(0.0067, 0.0, 0.0, 0.0067, -5.9, -52.15)" gradientUnits="userSpaceOnUse" id="gradient1" r="819.2" spreadMethod="pad">
      <stop offset="0.0" stop-color="#3e382d"/>
      <stop offset="1.0" stop-color="#191712"/>
    </radialGradient>
    <radialGradient cx="0" cy="0" gradientTransform="matrix(0.0102, 0.0, 0.0, 0.0102, -2.6, -47.15)" gradientUnits="userSpaceOnUse" id="gradient2" r="819.2" spreadMethod="pad">
      <stop offset="0.0" stop-color="#f77c00"/>
      <stop offset="1.0" stop-color="#f27900"/>
    </radialGradient>
    <radialGradient cx="0" cy="0" gradientTransform="matrix(0.0098, 0.0, 0.0, 0.0098, -2.6, -47.15)" gradientUnits="userSpaceOnUse" id="gradient3" r="819.2" spreadMethod="pad">
      <stop offset="0.0" stop-color="#ffa100"/>
      <stop offset="1.0" stop-color="#fa8500"/>
    </radialGradient>
    <radialGradient cx="0" cy="0" gradientTransform="matrix(0.0054, 0.0, 0.0, 0.0054, -5.8, -45.7)" gradientUnits="userSpaceOnUse" id="gradient4" r="819.2" spreadMethod="pad">
      <stop offset="0.0" stop-color="#f6b266"/>
      <stop offset="1.0" stop-color="#a97945"/>
    </radialGradient>
    <radialGradient cx="0" cy="0" gradientTransform="matrix(0.0037, 0.0, 0.0, 0.0037, -6.95, -44.0)" gradientUnits="userSpaceOnUse" id="gradient5" r="819.2" spreadMethod="pad">
      <stop offset="0.0" stop-color="#ffa200"/>
      <stop offset="1.0" stop-color="#fd7f00"/>
    </radialGradient>
    <radialGradient cx="0" cy="0" gradientTransform="matrix(0.0072, 0.0, 0.0, 0.0072, -6.6, -43.15)" gradientUnits="userSpaceOnUse" id="gradient6" r="819.2" spreadMethod="pad">
      <stop offset="0.0" stop-color="#ffd77b"/>
      <stop offset="1.0" stop-color="#876238"/>
    </radialGradient>
    <radialGradient cx="0" cy="0" gradientTransform="matrix(0.0096, 0.0, 0.0, 0.0096, -5.7, -38.15)" gradientUnits="userSpaceOnUse" id="gradient7" r="819.2" spreadMethod="pad">
      <stop offset="0.0" stop-color="#6b614e"/>
      <stop offset="1.0" stop-color="#413b2f"/>
    </radialGradient>
    <radialGradient cx="0" cy="0" gradientTransform="matrix(0.007, 0.0, 0.0, 0.007, -9.4, -37.55)" gradientUnits="userSpaceOnUse" id="gradient8" r="819.2" spreadMethod="pad">
      <stop offset="0.0" stop-color="#3d372c"/>
      <stop offset="1.0" stop-color="#26221b"/>
    </radialGradient>
    <radialGradient cx="0" cy="0" gradientTransform="matrix(0.0079, 0.0, 0.0, 0.0079, 8.45, -47.95)" gradientUnits="userSpaceOnUse" id="gradient9" r="819.2" spreadMethod="pad">
      <stop offset="0.0" stop-color="#ffc400"/>
      <stop offset="1.0" stop-color="#ba5d00"/>
    </radialGradient>
    <radialGradient cx="0" cy="0" gradientTransform="matrix(0.0016, 0.0, 0.0, 0.0016, 8.85, -48.8)" gradientUnits="userSpaceOnUse" id="gradient10" r="819.2" spreadMethod="pad">
      <stop offset="0.0" stop-color="#4f4848"/>
      <stop offset="1.0" stop-color="#484242"/>
    </radialGradient>
    <radialGradient cx="0" cy="0" gradientTransform="matrix(0.0022, 0.0, 0.0, 0.0022, 9.1, -48.15)" gradientUnits="userSpaceOnUse" id="gradient11" r="819.2" spreadMethod="pad">
      <stop offset="0.0" stop-color="#d16900"/>
      <stop offset="1.0" stop-color="#b75c00"/>
    </radialGradient>
    <radialGradient cx="0" cy="0" gradientTransform="matrix(0.0025, 0.0, 0.0, 0.0025, 9.7, -47.95)" gradientUnits="userSpaceOnUse" id="gradient12" r="819.2" spreadMethod="pad">
      <stop offset="0.0" stop-color="#ff8a00"/>
      <stop offset="1.0" stop-color="#ff8900"/>
    </radialGradient>
    <radialGradient cx="0" cy="0" gradientTransform="matrix(0.0087, 0.0, 0.0, 0.0087, 5.45, -42.4)" gradientUnits="userSpaceOnUse" id="gradient13" r="819.2" spreadMethod="pad">
      <stop offset="0.0" stop-color="#605645"/>
      <stop offset="1.0" stop-color="#3d372c"/>
    </radialGradient>
    <radialGradient cx="0" cy="0" gradientTransform="matrix(0.0041, 0.0, 0.0, 0.0041, 3.85, -49.45)" gradientUnits="userSpaceOnUse" id="gradient14" r="819.2" spreadMethod="pad">
      <stop offset="0.0" stop-color="#ffc400"/>
      <stop offset="1.0" stop-color="#fc8200"/>
    </radialGradient>
    <radialGradient cx="0" cy="0" gradientTransform="matrix(0.0041, 0.0, 0.0, 0.0041, 9.7, -48.5)" gradientUnits="userSpaceOnUse" id="gradient15" r="819.2" spreadMethod="pad">
      <stop offset="0.0" stop-color="#121111"/>
      <stop offset="1.0" stop-color="#121111"/>
    </radialGradient>
    <radialGradient cx="0" cy="0" gradientTransform="matrix(0.0092, 0.0, 0.0, 0.0092, 0.9, -43.9)" gradientUnits="userSpaceOnUse" id="gradient16" r="819.2" spreadMethod="pad">
      <stop offset="0.0" stop-color="#5f5645"/>
      <stop offset="1.0" stop-color="#433d31"/>
    </radialGradient>
    <radialGradient cx="0" cy="0" gradientTransform="matrix(0.0073, 0.0, 0.0, 0.0073, -0.65, -43.85)" gradientUnits="userSpaceOnUse" id="gradient17" r="819.2" spreadMethod="pad">
      <stop offset="0.0" stop-color="#474034"/>
      <stop offset="1.0" stop-color="#403a2e"/>
    </radialGradient>
    <radialGradient cx="0" cy="0" gradientTransform="matrix(0.0092, 0.0, 0.0, 0.0092, -2.15, -39.6)" gradientUnits="userSpaceOnUse" id="gradient18" r="819.2" spreadMethod="pad">
      <stop offset="0.0" stop-color="#7f7474"/>
      <stop offset="1.0" stop-color="#5b5353"/>
    </radialGradient>
    <radialGradient cx="0" cy="0" gradientTransform="matrix(0.0096, 0.0, 0.0, 0.0096, 6.15, -39.2)" gradientUnits="userSpaceOnUse" id="gradient19" r="819.2" spreadMethod="pad">
      <stop offset="0.0" stop-color="#8f8383"/>
      <stop offset="1.0" stop-color="#5d5555"/>
    </radialGradient>
    <radialGradient cx="0" cy="0" gradientTransform="matrix(0.0267, 0.0, 0.0, 0.0267, 8.4, -26.7)" gradientUnits="userSpaceOnUse" id="gradient20" r="819.2" spreadMethod="pad">
      <stop offset="0.0" stop-color="#331a00"/>
      <stop offset="1.0" stop-color="#331a00"/>
    </radialGradient>
    <radialGradient cx="0" cy="0" gradientTransform="matrix(0.0034, 0.0, 0.0, 0.0034, 10.75, -43.65)" gradientUnits="userSpaceOnUse" id="gradient21" r="819.2" spreadMethod="pad">
      <stop offset="0.0" stop-color="#433d31"/>
      <stop offset="1.0" stop-color="#3e372d"/>
    </radialGradient>
    <radialGradient cx="0" cy="0" gradientTransform="matrix(0.0026, 0.0, 0.0, 0.0026, 10.95, -42.6)" gradientUnits="userSpaceOnUse" id="gradient22" r="819.2" spreadMethod="pad">
      <stop offset="0.0" stop-color="#ececec"/>
      <stop offset="1.0" stop-color="#bcbcbc"/>
    </radialGradient>
    <radialGradient cx="0" cy="0" gradientTransform="matrix(0.0075, 0.0, 0.0, 0.0075, 10.3, -38.4)" gradientUnits="userSpaceOnUse" id="gradient23" r="819.2" spreadMethod="pad">
      <stop offset="0.0" stop-color="#615746"/>
      <stop offset="1.0" stop-color="#3b352a"/>
    </radialGradient>
    <radialGradient cx="0" cy="0" gradientTransform="matrix(0.0039, 0.0, 0.0, 0.0039, 12.65, -42.55)" gradientUnits="userSpaceOnUse" id="gradient24" r="819.2" spreadMethod="pad">
      <stop offset="0.0" stop-color="#fcfcfc"/>
      <stop offset="1.0" stop-color="#b3b3b3"/>
    </radialGradient>
    <radialGradient cx="0" cy="0" gradientTransform="matrix(0.0027, 0.0, 0.0, 0.0027, 9.9, -39.45)" gradientUnits="userSpaceOnUse" id="gradient25" r="819.2" spreadMethod="pad">
      <stop offset="0.0" stop-color="#c0c0c0"/>
      <stop offset="1.0" stop-color="#818181"/>
    </radialGradient>
    <radialGradient cx="0" cy="0" gradientTransform="matrix(0.0101, 0.0, 0.0, 0.0101, 8.3, -39.0)" gradientUnits="userSpaceOnUse" id="gradient26" r="819.2" spreadMethod="pad">
      <stop offset="0.0" stop-color="#ffc973"/>
      <stop offset="1.0" stop-color="#9d7141"/>
    </radialGradient>
    <radialGradient cx="0" cy="0" gradientTransform="matrix(0.0045, 0.0, 0.0, 0.0045, 9.1, -37.0)" gradientUnits="userSpaceOnUse" id="gradient27" r="819.2" spreadMethod="pad">
      <stop offset="0.0" stop-color="#ffbf00"/>
      <stop offset="1.0" stop-color="#ff8e00"/>
    </radialGradient>
    <radialGradient cx="0" cy="0" gradientTransform="matrix(0.0027, 0.0, 0.0, 0.0027, 9.8, -34.15)" gradientUnits="userSpaceOnUse" id="gradient28" r="819.2" spreadMethod="pad">
      <stop offset="0.0" stop-color="#ffb100"/>
      <stop offset="1.0" stop-color="#ea7500"/>
    </radialGradient>
    <radialGradient cx="0" cy="0" gradientTransform="matrix(0.0136, 0.0, 0.0, 0.0136, -2.0, -36.2)" gradientUnits="userSpaceOnUse" id="gradient29" r="819.2" spreadMethod="pad">
      <stop offset="0.0" stop-color="#756b6b"/>
      <stop offset="1.0" stop-color="#4d4747"/>
    </radialGradient>
    <radialGradient cx="0" cy="0" gradientTransform="matrix(0.0041, 0.0, 0.0, 0.0041, 13.95, -35.95)" gradientUnits="userSpaceOnUse" id="gradient30" r="819.2" spreadMethod="pad">
      <stop offset="0.0" stop-color="#fefefe"/>
      <stop offset="1.0" stop-color="#9f9f9f"/>
    </radialGradient>
    <radialGradient cx="0" cy="0" gradientTransform="matrix(0.0085, 0.0, 0.0, 0.0085, 13.05, -32.85)" gradientUnits="userSpaceOnUse" id="gradient31" r="819.2" spreadMethod="pad">
      <stop offset="0.0" stop-color="#ffdb7d"/>
      <stop offset="1.0" stop-color="#9e7341"/>
    </radialGradient>
    <radialGradient cx="0" cy="0" gradientTransform="matrix(0.0067, 0.0, 0.0, 0.0067, 16.8, -30.35)" gradientUnits="userSpaceOnUse" id="gradient32" r="819.2" spreadMethod="pad">
      <stop offset="0.0" stop-color="#ffffff"/>
      <stop offset="1.0" stop-color="#9c9c9c"/>
    </radialGradient>
    <radialGradient cx="0" cy="0" gradientTransform="matrix(0.0102, 0.0, 0.0, 0.0102, 13.25, -24.15)" gradientUnits="userSpaceOnUse" id="gradient33" r="819.2" spreadMethod="pad">
      <stop offset="0.0" stop-color="#655c4a"/>
      <stop offset="1.0" stop-color="#3c362c"/>
    </radialGradient>
    <radialGradient cx="0" cy="0" gradientTransform="matrix(0.0015, 0.0, 0.0, 0.0015, 14.05, -26.25)" gradientUnits="userSpaceOnUse" id="gradient34" r="819.2" spreadMethod="pad">
      <stop offset="0.0" stop-color="#322d24"/>
      <stop offset="1.0" stop-color="#2d2921"/>
    </radialGradient>
    <radialGradient cx="0" cy="0" gradientTransform="matrix(0.0024, 0.0, 0.0, 0.0024, 14.3, -26.55)" gradientUnits="userSpaceOnUse" id="gradient35" r="819.2" spreadMethod="pad">
      <stop offset="0.0" stop-color="#ff9500"/>
      <stop offset="1.0" stop-color="#f07800"/>
    </radialGradient>
    <radialGradient cx="0" cy="0" gradientTransform="matrix(0.0037, 0.0, 0.0, 0.0037, -9.6, -30.0)" gradientUnits="userSpaceOnUse" id="gradient36" r="819.2" spreadMethod="pad">
      <stop offset="0.0" stop-color="#fff78d"/>
      <stop offset="1.0" stop-color="#91683b"/>
    </radialGradient>
    <radialGradient cx="0" cy="0" gradientTransform="matrix(0.0035, 0.0, 0.0, 0.0035, -9.0, -30.15)" gradientUnits="userSpaceOnUse" id="gradient37" r="819.2" spreadMethod="pad">
      <stop offset="0.0" stop-color="#fff78d"/>
      <stop offset="1.0" stop-color="#aa7b46"/>
    </radialGradient>
    <radialGradient cx="0" cy="0" gradientTransform="matrix(0.0137, 0.0, 0.0, 0.0137, 3.05, -33.9)" gradientUnits="userSpaceOnUse" id="gradient38" r="819.2" spreadMethod="pad">
      <stop offset="0.0" stop-color="#ffda00"/>
      <stop offset="1.0" stop-color="#ff9800"/>
    </radialGradient>
    <radialGradient cx="0" cy="0" gradientTransform="matrix(0.007, 0.0, 0.0, 0.007, -5.5, -29.35)" gradientUnits="userSpaceOnUse" id="gradient39" r="819.2" spreadMethod="pad">
      <stop offset="0.0" stop-color="#3f4b78"/>
      <stop offset="1.0" stop-color="#1c2136"/>
    </radialGradient>
    <radialGradient cx="0" cy="0" gradientTransform="matrix(0.0112, 0.0, 0.0, 0.0112, 10.8, -33.3)" gradientUnits="userSpaceOnUse" id="gradient40" r="819.2" spreadMethod="pad">
      <stop offset="0.0" stop-color="#ffda7d"/>
      <stop offset="1.0" stop-color="#9b7040"/>
    </radialGradient>
    <radialGradient cx="0" cy="0" gradientTransform="matrix(0.0045, 0.0, 0.0, 0.0045, 6.8, -27.25)" gradientUnits="userSpaceOnUse" id="gradient41" r="819.2" spreadMethod="pad">
      <stop offset="0.0" stop-color="#374168"/>
      <stop offset="1.0" stop-color="#20263c"/>
    </radialGradient>
    <radialGradient cx="0" cy="0" gradientTransform="matrix(0.0019, 0.0, 0.0, 0.0019, 7.6, -29.95)" gradientUnits="userSpaceOnUse" id="gradient42" r="819.2" spreadMethod="pad">
      <stop offset="0.0" stop-color="#e87400"/>
      <stop offset="1.0" stop-color="#ca6500"/>
    </radialGradient>
    <radialGradient cx="0" cy="0" gradientTransform="matrix(0.0074, 0.0, 0.0, 0.0074, -3.35, -28.25)" gradientUnits="userSpaceOnUse" id="gradient43" r="819.2" spreadMethod="pad">
      <stop offset="0.0" stop-color="#ffde00"/>
      <stop offset="1.0" stop-color="#df7000"/>
    </radialGradient>
    <radialGradient cx="0" cy="0" gradientTransform="matrix(0.0153, 0.0, 0.0, 0.0153, -0.6, -27.25)" gradientUnits="userSpaceOnUse" id="gradient44" r="819.2" spreadMethod="pad">
      <stop offset="0.0" stop-color="#3f4b78"/>
      <stop offset="1.0" stop-color="#1f253b"/>
    </radialGradient>
    <radialGradient cx="0" cy="0" gradientTransform="matrix(0.0098, 0.0, 0.0, 0.0098, 2.9, -22.55)" gradientUnits="userSpaceOnUse" id="gradient45" r="819.2" spreadMethod="pad">
      <stop offset="0.0" stop-color="#ffd400"/>
      <stop offset="1.0" stop-color="#d37900"/>
    </radialGradient>
    <radialGradient cx="0" cy="0" gradientTransform="matrix(0.0193, 0.0, 0.0, 0.0193, 2.8, -24.7)" gradientUnits="userSpaceOnUse" id="gradient46" r="819.2" spreadMethod="pad">
      <stop offset="0.0" stop-color="#404b79"/>
      <stop offset="1.0" stop-color="#242b45"/>
    </radialGradient>
    <radialGradient cx="0" cy="0" gradientTransform="matrix(0.01, 0.0, 0.0, 0.01, -2.65, -17.45)" gradientUnits="userSpaceOnUse" id="gradient47" r="819.2" spreadMethod="pad">
      <stop offset="0.0" stop-color="#38426a"/>
      <stop offset="1.0" stop-color="#222840"/>
    </radialGradient>
    <radialGradient cx="0" cy="0" gradientTransform="matrix(0.0099, 0.0, 0.0, 0.0099, 3.2, -22.4)" gradientUnits="userSpaceOnUse" id="gradient48" r="819.2" spreadMethod="pad">
      <stop offset="0.0" stop-color="#3f4a77"/>
      <stop offset="1.0" stop-color="#2b3352"/>
    </radialGradient>
    <radialGradient cx="0" cy="0" gradientTransform="matrix(0.0039, 0.0, 0.0, 0.0039, 9.05, -17.05)" gradientUnits="userSpaceOnUse" id="gradient49" r="819.2" spreadMethod="pad">
      <stop offset="0.0" stop-color="#ffec87"/>
      <stop offset="1.0" stop-color="#b8854c"/>
    </radialGradient>
    <radialGradient cx="0" cy="0" gradientTransform="matrix(0.0024, 0.0, 0.0, 0.0024, 15.65, -24.3)" gradientUnits="userSpaceOnUse" id="gradient50" r="819.2" spreadMethod="pad">
      <stop offset="0.0" stop-color="#433c30"/>
      <stop offset="1.0" stop-color="#342f26"/>
    </radialGradient>
    <radialGradient cx="0" cy="0" gradientTransform="matrix(0.0036, 0.0, 0.0, 0.0036, 15.65, -22.9)" gradientUnits="userSpaceOnUse" id="gradient51" r="819.2" spreadMethod="pad">
      <stop offset="0.0" stop-color="#413a2f"/>
      <stop offset="1.0" stop-color="#353026"/>
    </radialGradient>
    <radialGradient cx="0" cy="0" gradientTransform="matrix(0.0126, 0.0, 0.0, 0.0126, -6.4, -15.7)" gradientUnits="userSpaceOnUse" id="gradient52" r="819.2" spreadMethod="pad">
      <stop offset="0.0" stop-color="#38436a"/>
      <stop offset="1.0" stop-color="#1c2135"/>
    </radialGradient>
    <radialGradient cx="0" cy="0" gradientTransform="matrix(0.0113, 0.0, 0.0, 0.0113, -3.45, -8.3)" gradientUnits="userSpaceOnUse" id="gradient53" r="819.2" spreadMethod="pad">
      <stop offset="0.0" stop-color="#374168"/>
      <stop offset="1.0" stop-color="#1f253b"/>
    </radialGradient>
    <radialGradient cx="0" cy="0" gradientTransform="matrix(0.0066, 0.0, 0.0, 0.0066, -5.75, -4.95)" gradientUnits="userSpaceOnUse" id="gradient54" r="819.2" spreadMethod="pad">
      <stop offset="0.0" stop-color="#746854"/>
      <stop offset="1.0" stop-color="#5f5645"/>
    </radialGradient>
    <radialGradient cx="0" cy="0" gradientTransform="matrix(0.0068, 0.0, 0.0, 0.0068, -6.05, -4.6)" gradientUnits="userSpaceOnUse" id="gradient55" r="819.2" spreadMethod="pad">
      <stop offset="0.0" stop-color="#aa9b9b"/>
      <stop offset="1.0" stop-color="#817575"/>
    </radialGradient>
    <radialGradient cx="0" cy="0" gradientTransform="matrix(0.0042, 0.0, 0.0, 0.0042, 9.65, -15.7)" gradientUnits="userSpaceOnUse" id="gradient56" r="819.2" spreadMethod="pad">
      <stop offset="0.0" stop-color="#ffec87"/>
      <stop offset="1.0" stop-color="#9b7040"/>
    </radialGradient>
    <radialGradient cx="0" cy="0" gradientTransform="matrix(0.0109, 0.0, 0.0, 0.0109, 6.45, -14.0)" gradientUnits="userSpaceOnUse" id="gradient57" r="819.2" spreadMethod="pad">
      <stop offset="0.0" stop-color="#404c7a"/>
      <stop offset="1.0" stop-color="#1f253b"/>
    </radialGradient>
    <radialGradient cx="0" cy="0" gradientTransform="matrix(0.0051, 0.0, 0.0, 0.0051, -0.85, -13.1)" gradientUnits="userSpaceOnUse" id="gradient58" r="819.2" spreadMethod="pad">
      <stop offset="0.0" stop-color="#222941"/>
      <stop offset="1.0" stop-color="#08090e"/>
    </radialGradient>
    <radialGradient cx="0" cy="0" gradientTransform="matrix(0.0103, 0.0, 0.0, 0.0103, 6.15, -6.35)" gradientUnits="userSpaceOnUse" id="gradient59" r="819.2" spreadMethod="pad">
      <stop offset="0.0" stop-color="#3b4670"/>
      <stop offset="1.0" stop-color="#21283f"/>
    </radialGradient>
    <radialGradient cx="0" cy="0" gradientTransform="matrix(0.0057, 0.0, 0.0, 0.0057, -0.75, -7.75)" gradientUnits="userSpaceOnUse" id="gradient60" r="819.2" spreadMethod="pad">
      <stop offset="0.0" stop-color="#222840"/>
      <stop offset="1.0" stop-color="#181c2e"/>
    </radialGradient>
    <radialGradient cx="0" cy="0" gradientTransform="matrix(0.0107, 0.0, 0.0, 0.0107, 6.65, -0.9)" gradientUnits="userSpaceOnUse" id="gradient61" r="819.2" spreadMethod="pad">
      <stop offset="0.0" stop-color="#3b456f"/>
      <stop offset="1.0" stop-color="#181d2e"/>
    </radialGradient>
    <radialGradient cx="0" cy="0" gradientTransform="matrix(0.0048, 0.0, 0.0, 0.0048, 11.3, 4.7)" gradientUnits="userSpaceOnUse" id="gradient62" r="819.2" spreadMethod="pad">
      <stop offset="0.0" stop-color="#ffd100"/>
      <stop offset="1.0" stop-color="#b55b00"/>
    </radialGradient>
    <radialGradient cx="0" cy="0" gradientTransform="matrix(0.0083, 0.0, 0.0, 0.0083, 7.3, 10.75)" gradientUnits="userSpaceOnUse" id="gradient63" r="819.2" spreadMethod="pad">
      <stop offset="0.0" stop-color="#ad9e9e"/>
      <stop offset="1.0" stop-color="#928585"/>
    </radialGradient>
    <radialGradient cx="0" cy="0" gradientTransform="matrix(0.0081, 0.0, 0.0, 0.0081, 7.35, 9.95)" gradientUnits="userSpaceOnUse" id="gradient64" r="819.2" spreadMethod="pad">
      <stop offset="0.0" stop-color="#766a55"/>
      <stop offset="1.0" stop-color="#645a48"/>
    </radialGradient>
    <radialGradient cx="0" cy="0" gradientTransform="matrix(0.0043, 0.0, 0.0, 0.0043, 8.8, 11.2)" gradientUnits="userSpaceOnUse" id="gradient65" r="819.2" spreadMethod="pad">
      <stop offset="0.0" stop-color="#3e382d"/>
      <stop offset="1.0" stop-color="#3d372c"/>
    </radialGradient>
    <radialGradient cx="0" cy="0" gradientTransform="matrix(0.0023, 0.0, 0.0, 0.0023, 7.05, 11.75)" gradientUnits="userSpaceOnUse" id="gradient66" r="819.2" spreadMethod="pad">
      <stop offset="0.0" stop-color="#5a5252"/>
      <stop offset="1.0" stop-color="#595252"/>
    </radialGradient>
  </defs>
</svg>
