<?xml version="1.0" encoding="UTF-8" standalone="no"?>
<svg xmlns:ffdec="https://www.free-decompiler.com/flash" xmlns:xlink="http://www.w3.org/1999/xlink" ffdec:objectType="shape" height="66.4px" width="30.5px" xmlns="http://www.w3.org/2000/svg">
  <g transform="matrix(1.0, 0.0, 0.0, 1.0, 15.5, 57.9)">
    <path d="M-7.55 -55.55 L-7.55 -55.6 -7.35 -55.7 -7.55 -55.55" fill="url(#gradient0)" fill-rule="evenodd" stroke="none"/>
    <path d="M-8.95 -52.75 L-8.75 -54.25 Q-7.9 -55.6 -7.55 -55.6 L-7.55 -55.55 -8.2 -54.6 -8.3 -51.9 -8.95 -52.75 M2.1 -53.15 L2.45 -52.5 2.25 -51.05 2.0 -50.8 2.1 -53.15 M-6.7 -50.2 Q-5.7 -49.55 -4.4 -49.05 L-3.6 -48.95 -0.7 -49.15 Q-3.9 -47.95 -6.7 -50.2 M-0.2 -49.35 L2.0 -50.7 -0.2 -49.35" fill="url(#gradient1)" fill-rule="evenodd" stroke="none"/>
    <path d="M-8.95 -52.75 L-8.3 -51.9 -8.3 -51.6 Q-7.65 -50.85 -6.7 -50.2 -3.9 -47.95 -0.7 -49.15 L-0.5 -49.15 -0.2 -49.35 2.0 -50.7 2.0 -50.8 2.25 -51.05 2.25 -50.8 2.2 -50.5 2.2 -50.35 Q0.3 -48.1 -2.2 -47.6 L-2.55 -46.75 -4.15 -46.35 Q-6.3 -46.75 -6.85 -47.35 L-6.9 -47.4 -7.6 -47.8 Q-9.15 -49.35 -9.15 -50.3 L-8.95 -52.75" fill="url(#gradient2)" fill-rule="evenodd" stroke="none"/>
    <path d="M-8.0 -44.9 L-8.05 -46.35 Q-7.9 -47.65 -7.6 -47.8 L-6.9 -47.4 -6.85 -47.35 Q-6.3 -46.75 -4.15 -46.35 L-2.55 -46.75 -2.65 -46.05 -1.5 -44.45 -3.85 -44.75 -6.25 -45.5 -6.55 -45.8 -7.65 -45.55 -7.9 -44.9 -8.0 -44.9 M2.2 -50.35 L2.2 -50.5 2.75 -50.25 2.2 -50.35 M-0.25 -44.2 L-1.35 -44.45 -0.15 -44.3 -0.25 -44.2" fill="url(#gradient3)" fill-rule="evenodd" stroke="none"/>
    <path d="M-8.0 -44.75 L-8.0 -44.9 -7.9 -44.9 -8.0 -44.75" fill="url(#gradient4)" fill-rule="evenodd" stroke="none"/>
    <path d="M2.25 -50.8 L5.2 -50.5 7.1 -48.8 7.5 -48.45 8.9 -45.75 8.95 -44.45 8.85 -42.35 8.45 -41.45 8.25 -42.55 7.15 -44.4 Q7.95 -44.9 6.05 -46.95 L4.6 -47.2 4.7 -48.65 Q3.55 -50.65 2.75 -50.25 L2.2 -50.5 2.25 -50.8 M-8.35 -41.05 L-8.5 -43.3 -8.0 -44.75 -7.9 -44.9 -7.65 -45.55 -6.55 -45.8 -6.25 -45.5 -3.85 -44.75 -1.5 -44.45 -1.35 -44.45 -0.25 -44.2 -0.5 -42.75 0.5 -41.4 0.55 -41.35 0.7 -41.0 1.55 -40.75 2.55 -38.85 2.95 -36.9 Q1.75 -37.5 1.25 -37.15 L0.55 -39.0 -0.65 -38.7 -2.75 -38.85 -2.45 -38.25 -2.6 -37.9 -3.0 -37.95 -3.05 -37.95 -3.4 -38.15 -3.5 -38.5 -3.45 -38.0 -3.65 -38.15 -4.9 -39.4 -5.75 -39.9 -6.7 -41.8 -7.05 -41.4 -7.5 -40.45 -8.1 -40.4 -8.3 -40.6 -8.35 -41.05 M-3.5 -38.6 L-3.6 -38.85 -3.6 -38.55 -3.5 -38.6" fill="url(#gradient5)" fill-rule="evenodd" stroke="none"/>
    <path d="M-2.55 -46.75 L-2.2 -47.6 Q0.3 -48.1 2.2 -50.35 L2.75 -50.25 Q3.55 -50.65 4.7 -48.65 L4.6 -47.2 Q1.9 -44.35 -0.15 -44.3 L-1.35 -44.45 -1.5 -44.45 -2.65 -46.05 -2.55 -46.75" fill="url(#gradient6)" fill-rule="evenodd" stroke="none"/>
    <path d="M4.6 -47.2 L6.05 -46.95 Q7.95 -44.9 7.15 -44.4 L7.1 -43.45 6.9 -42.85 3.4 -40.5 2.9 -40.4 1.55 -40.75 0.7 -41.0 0.55 -41.35 0.5 -41.4 -0.5 -42.75 -0.25 -44.2 -0.15 -44.3 Q1.9 -44.35 4.6 -47.2" fill="url(#gradient7)" fill-rule="evenodd" stroke="none"/>
    <path d="M-8.3 -51.9 L-8.2 -54.6 -7.55 -55.55 -7.35 -55.7 -5.75 -57.45 -2.6 -57.9 Q1.9 -56.0 2.1 -53.15 L2.0 -50.8 2.0 -50.7 -0.2 -49.35 -0.5 -49.15 -0.7 -49.15 -3.6 -48.95 -4.4 -49.05 Q-5.7 -49.55 -6.7 -50.2 -7.65 -50.85 -8.3 -51.6 L-8.3 -51.9" fill="url(#gradient8)" fill-rule="evenodd" stroke="none"/>
    <path d="M7.1 -48.8 Q11.8 -48.35 12.1 -43.7 L11.95 -42.55 Q11.7 -41.65 11.1 -41.4 L10.9 -41.1 10.3 -40.8 8.95 -44.45 8.9 -45.75 7.5 -48.45 7.1 -48.8" fill="url(#gradient9)" fill-rule="evenodd" stroke="none"/>
    <path d="M10.9 -33.15 L10.9 -25.25 10.65 -13.45 10.65 -6.45 10.75 -1.2 7.25 3.15 5.85 -2.2 5.85 -2.25 5.75 -3.0 5.6 -7.15 5.55 -9.6 Q7.05 -11.85 8.95 -11.9 L8.75 -16.85 8.95 -37.6 8.45 -41.4 8.45 -41.45 8.85 -42.35 8.95 -44.45 10.3 -40.8 10.4 -39.95 10.75 -35.75 10.8 -34.7 10.8 -34.3 10.9 -33.15" fill="url(#gradient10)" fill-rule="evenodd" stroke="none"/>
    <path d="M7.15 -44.4 L8.25 -42.55 8.45 -41.45 8.45 -41.4 8.95 -37.6 8.75 -16.85 8.95 -11.9 Q7.05 -11.85 5.55 -9.6 L5.1 -9.1 3.85 -8.15 4.0 -23.55 3.55 -33.65 2.95 -36.9 2.55 -38.85 1.55 -40.75 2.9 -40.4 3.4 -40.5 Q4.4 -39.6 4.8 -35.8 L5.2 -29.15 5.05 -14.8 5.55 -15.0 7.3 -16.85 8.35 -17.05 8.1 -21.35 8.3 -37.5 7.65 -41.4 6.9 -42.85 7.1 -43.45 7.15 -44.4" fill="url(#gradient11)" fill-rule="evenodd" stroke="none"/>
    <path d="M-8.55 -40.85 L-8.35 -41.05 -8.3 -40.6 -8.55 -40.85" fill="url(#gradient12)" fill-rule="evenodd" stroke="none"/>
    <path d="M-10.05 -39.35 L-10.5 -42.55 -8.55 -40.85 -8.3 -40.6 -8.1 -40.4 -8.85 -39.75 Q-10.0 -39.0 -10.05 -39.35" fill="url(#gradient13)" fill-rule="evenodd" stroke="none"/>
    <path d="M-11.1 -32.45 Q-13.1 -35.7 -10.05 -39.35 -10.0 -39.0 -8.85 -39.75 L-8.1 -40.4 -7.5 -40.45 -8.0 -39.5 -7.85 -39.05 -7.5 -38.75 Q-5.9 -38.0 -5.75 -39.9 L-4.9 -39.4 -3.65 -38.15 -3.6 -37.95 -4.95 -37.9 -5.3 -37.4 -5.2 -36.7 Q-3.9 -35.1 -3.05 -37.2 L-3.0 -37.05 -2.85 -36.7 -2.85 -36.6 -2.75 -36.25 Q-3.1 -36.3 -3.3 -33.95 L-3.0 -33.0 -3.15 -32.45 -3.85 -31.55 -4.4 -30.95 -5.5 -30.25 -7.7 -29.95 -7.75 -29.95 -7.85 -29.95 -7.9 -30.0 Q-8.95 -30.15 -9.95 -30.95 -8.1 -30.4 -9.1 -32.35 -10.45 -33.9 -11.1 -32.45" fill="url(#gradient14)" fill-rule="evenodd" stroke="none"/>
    <path d="M-11.1 -31.7 L-11.1 -32.45 Q-10.45 -33.9 -9.1 -32.35 -8.1 -30.4 -9.95 -30.95 L-10.3 -31.0 -10.6 -31.1 -11.1 -31.7" fill="url(#gradient15)" fill-rule="evenodd" stroke="none"/>
    <path d="M-3.0 -37.05 L-2.85 -37.0 -2.85 -36.7 -3.0 -37.05 M-3.45 -38.0 L-3.45 -37.95 -3.6 -37.95 -3.65 -38.15 -3.45 -38.0 M-7.9 -30.0 L-9.4 -30.2 -10.25 -30.8 -10.3 -31.0 -9.95 -30.95 Q-8.95 -30.15 -7.9 -30.0 M-5.95 -29.45 Q-5.55 -29.6 -7.7 -29.95 L-5.5 -30.25 -5.15 -29.8 -5.75 -29.45 -5.95 -29.45 M-3.85 -31.55 L-3.15 -32.45 -3.0 -33.0 -2.7 -33.1 -3.15 -31.65 -3.5 -31.45 -3.85 -31.55" fill="url(#gradient16)" fill-rule="evenodd" stroke="none"/>
    <path d="M-11.4 -24.15 Q-13.2 -27.2 -11.1 -31.7 L-10.6 -31.1 -10.3 -31.0 -10.25 -30.8 -10.5 -30.75 -11.4 -29.15 Q-12.4 -25.8 -10.3 -23.7 L-10.85 -23.75 -11.4 -24.15 M-9.85 -23.35 L-9.4 -23.2 -9.45 -23.05 -9.85 -23.35 M-5.75 -28.8 L-5.95 -29.45 -5.75 -29.45 -5.7 -29.15 -5.75 -28.8" fill="url(#gradient17)" fill-rule="evenodd" stroke="none"/>
    <path d="M3.4 -40.5 L6.9 -42.85 7.65 -41.4 8.3 -37.5 8.1 -21.35 8.35 -17.05 7.3 -16.85 5.55 -15.0 5.05 -14.8 5.2 -29.15 4.8 -35.8 Q4.4 -39.6 3.4 -40.5" fill="url(#gradient18)" fill-rule="evenodd" stroke="none"/>
    <path d="M12.1 -43.7 L12.25 -42.55 12.1 -41.8 11.15 -40.5 11.0 -40.4 10.4 -39.95 10.3 -40.8 10.9 -41.1 11.1 -41.4 Q11.7 -41.65 11.95 -42.55 L12.1 -43.7" fill="url(#gradient19)" fill-rule="evenodd" stroke="none"/>
    <path d="M12.25 -42.55 Q14.15 -39.85 12.5 -37.6 L12.25 -38.25 11.7 -38.45 11.2 -40.2 11.15 -40.5 12.1 -41.8 12.25 -42.55" fill="url(#gradient20)" fill-rule="evenodd" stroke="none"/>
    <path d="M11.0 -40.4 L11.15 -40.5 11.2 -40.2 11.0 -40.4" fill="url(#gradient21)" fill-rule="evenodd" stroke="none"/>
    <path d="M10.4 -39.95 L11.0 -40.4 11.2 -40.2 11.7 -38.45 11.65 -37.35 Q11.45 -36.45 10.9 -35.85 L10.75 -35.75 10.4 -39.95" fill="url(#gradient22)" fill-rule="evenodd" stroke="none"/>
    <path d="M-7.5 -40.45 L-7.05 -41.4 -6.7 -41.8 -5.75 -39.9 Q-5.9 -38.0 -7.5 -38.75 L-7.85 -39.05 -8.0 -39.5 -7.5 -40.45" fill="url(#gradient23)" fill-rule="evenodd" stroke="none"/>
    <path d="M5.55 -9.6 L5.6 -7.15 5.1 -6.95 5.1 -9.1 5.55 -9.6" fill="url(#gradient24)" fill-rule="evenodd" stroke="none"/>
    <path d="M5.2 -2.25 L5.55 5.15 -0.85 7.3 -1.2 3.65 -1.45 -0.65 -1.45 -6.35 -1.35 -12.75 -1.3 -18.8 -1.35 -25.45 -1.55 -27.85 -1.65 -29.15 Q-1.6 -33.9 -2.0 -33.9 -1.35 -35.3 -2.6 -36.5 L-2.65 -37.15 -2.85 -37.0 -3.0 -37.05 -3.05 -37.2 -2.7 -37.9 -3.0 -37.95 -2.6 -37.9 -2.45 -38.25 -2.75 -38.85 -0.65 -38.7 0.55 -39.0 1.25 -37.15 Q1.75 -37.5 2.95 -36.9 L3.55 -33.65 4.0 -23.55 3.85 -8.15 5.1 -9.1 5.1 -6.95 5.15 -2.9 5.2 -2.25 M-3.5 -38.6 L-3.6 -38.55 -3.6 -38.85 -3.5 -38.6 M-3.45 -37.95 L-3.45 -38.0 -3.5 -38.5 -3.4 -38.15 -3.05 -37.95 -3.45 -37.95" fill="url(#gradient25)" fill-rule="evenodd" stroke="none"/>
    <path d="M-3.0 -37.95 L-2.7 -37.9 -3.05 -37.2 Q-3.9 -35.1 -5.2 -36.7 L-5.3 -37.4 -4.95 -37.9 -3.6 -37.95 -3.45 -37.95 -3.05 -37.95 -3.0 -37.95" fill="url(#gradient26)" fill-rule="evenodd" stroke="none"/>
    <path d="M12.5 -37.6 L12.6 -36.75 12.35 -36.0 12.15 -35.65 11.65 -35.35 11.2 -35.45 10.9 -35.85 Q11.45 -36.45 11.65 -37.35 L11.7 -38.45 12.25 -38.25 12.5 -37.6" fill="url(#gradient27)" fill-rule="evenodd" stroke="none"/>
    <path d="M10.9 -35.85 L11.2 -35.45 11.65 -35.35 10.8 -34.7 10.75 -35.75 10.9 -35.85" fill="url(#gradient28)" fill-rule="evenodd" stroke="none"/>
    <path d="M12.35 -36.0 L13.1 -35.65 Q14.5 -35.2 15.0 -36.1 L14.95 -35.05 Q14.5 -34.05 13.4 -33.95 L11.7 -34.0 10.8 -34.3 10.8 -34.7 11.65 -35.35 12.15 -35.65 12.35 -36.0" fill="url(#gradient29)" fill-rule="evenodd" stroke="none"/>
    <path d="M-2.85 -37.0 L-2.65 -37.15 -2.6 -36.5 -2.85 -36.6 -2.85 -36.7 -2.85 -37.0 M-2.0 -33.9 Q-1.6 -33.9 -1.65 -29.15 L-1.55 -27.85 -3.3 -27.65 -4.1 -28.0 -4.2 -29.15 -4.45 -29.9 -4.15 -29.95 -3.6 -30.5 -3.15 -31.65 -2.7 -33.1 -2.3 -33.3 -2.0 -33.9" fill="url(#gradient30)" fill-rule="evenodd" stroke="none"/>
    <path d="M-2.6 -36.5 Q-1.35 -35.3 -2.0 -33.9 L-2.3 -33.3 -2.7 -33.1 -3.0 -33.0 -3.3 -33.95 Q-3.1 -36.3 -2.75 -36.25 L-2.85 -36.6 -2.6 -36.5" fill="url(#gradient31)" fill-rule="evenodd" stroke="none"/>
    <path d="M-1.55 -27.85 L-1.35 -25.45 Q-2.4 -25.9 -4.65 -24.95 L-4.9 -25.1 -4.15 -27.0 -4.1 -28.0 -3.3 -27.65 -1.55 -27.85" fill="url(#gradient32)" fill-rule="evenodd" stroke="none"/>
    <path d="M-5.8 -26.25 L-5.65 -28.0 -5.75 -28.8 -5.7 -29.15 -5.75 -29.45 -5.15 -29.8 -4.45 -29.9 -4.2 -29.15 -4.1 -28.0 -4.15 -27.0 -4.9 -25.1 -5.2 -24.7 -5.25 -24.7 -5.35 -25.7 -5.8 -26.25" fill="url(#gradient33)" fill-rule="evenodd" stroke="none"/>
    <path d="M-5.5 -30.25 L-4.4 -30.95 -3.85 -31.55 -3.5 -31.45 -3.15 -31.65 -3.6 -30.5 -4.15 -29.95 -4.45 -29.9 -5.15 -29.8 -5.5 -30.25" fill="url(#gradient34)" fill-rule="evenodd" stroke="none"/>
    <path d="M11.7 -34.0 L10.9 -33.15 10.8 -34.3 11.7 -34.0" fill="url(#gradient35)" fill-rule="evenodd" stroke="none"/>
    <path d="M-10.25 -30.8 L-9.4 -30.2 -7.9 -30.0 -7.85 -29.95 -7.75 -29.95 -7.7 -29.95 Q-5.55 -29.6 -5.95 -29.45 L-5.75 -28.8 -5.65 -28.0 -5.8 -26.25 -6.15 -25.1 Q-6.8 -23.9 -7.25 -23.7 L-7.55 -23.4 -8.2 -23.2 -9.4 -23.2 -9.85 -23.35 -10.3 -23.7 Q-12.4 -25.8 -11.4 -29.15 L-10.5 -30.75 -10.25 -30.8" fill="url(#gradient36)" fill-rule="evenodd" stroke="none"/>
    <path d="M-12.95 -20.95 L-12.85 -22.0 -11.4 -24.15 -10.85 -23.75 -10.3 -23.7 -9.85 -23.35 -9.45 -23.05 -9.25 -22.45 -8.6 -21.55 -8.35 -21.0 -7.75 -20.7 -7.85 -19.95 -9.5 -18.3 -9.85 -18.05 -11.0 -17.2 -12.25 -16.9 -12.55 -17.15 Q-14.45 -18.7 -12.95 -20.5 L-12.95 -20.95" fill="url(#gradient37)" fill-rule="evenodd" stroke="none"/>
    <path d="M-7.25 -23.7 Q-6.8 -23.9 -6.15 -25.1 L-5.8 -26.25 -5.35 -25.7 -5.25 -24.7 -5.4 -23.7 -6.15 -22.7 -6.7 -22.6 -7.25 -23.7" fill="url(#gradient38)" fill-rule="evenodd" stroke="none"/>
    <path d="M-9.4 -23.2 L-8.2 -23.2 -7.55 -23.4 -7.25 -23.7 -6.7 -22.6 -8.6 -21.55 -9.25 -22.45 -9.45 -23.05 -9.4 -23.2" fill="url(#gradient39)" fill-rule="evenodd" stroke="none"/>
    <path d="M-4.9 -25.1 L-4.65 -24.95 -3.0 -23.05 Q-3.4 -19.0 -2.85 -18.85 L-4.2 -16.85 -4.95 -16.15 -6.0 -15.9 -6.35 -16.15 -5.35 -17.2 Q-5.55 -17.3 -4.45 -19.65 L-4.15 -21.05 Q-2.55 -24.05 -4.3 -22.3 L-4.4 -23.2 -5.2 -24.7 -4.9 -25.1" fill="url(#gradient40)" fill-rule="evenodd" stroke="none"/>
    <path d="M-5.25 -24.7 L-5.2 -24.7 -4.4 -23.2 -4.3 -22.3 -5.0 -22.1 Q-5.9 -22.3 -6.15 -22.7 L-5.4 -23.7 -5.25 -24.7 M-4.15 -21.05 L-4.45 -19.65 Q-5.55 -17.3 -5.35 -17.2 L-6.35 -16.15 -6.0 -15.9 -7.7 -16.35 -9.05 -18.15 -9.5 -18.3 -7.85 -19.95 -7.75 -20.7 Q-5.2 -19.75 -4.15 -21.05" fill="url(#gradient41)" fill-rule="evenodd" stroke="none"/>
    <path d="M-1.35 -25.45 L-1.3 -18.8 -1.55 -18.7 -2.85 -18.85 Q-3.4 -19.0 -3.0 -23.05 L-4.65 -24.95 Q-2.4 -25.9 -1.35 -25.45" fill="url(#gradient42)" fill-rule="evenodd" stroke="none"/>
    <path d="M-1.3 -18.8 L-1.35 -12.75 Q-10.95 -12.45 -10.75 -15.85 L-10.05 -16.85 -9.85 -18.05 -9.5 -18.3 -9.05 -18.15 -7.7 -16.35 -6.0 -15.9 -4.95 -16.15 -4.2 -16.85 -2.85 -18.85 -1.55 -18.7 -1.3 -18.8" fill="url(#gradient43)" fill-rule="evenodd" stroke="none"/>
    <path d="M-4.3 -22.3 Q-2.55 -24.05 -4.15 -21.05 -5.2 -19.75 -7.75 -20.7 L-8.35 -21.0 -8.6 -21.55 -6.7 -22.6 -6.15 -22.7 Q-5.9 -22.3 -5.0 -22.1 L-4.3 -22.3" fill="url(#gradient44)" fill-rule="evenodd" stroke="none"/>
    <path d="M-13.35 -20.7 L-12.95 -20.95 -12.95 -20.5 -13.35 -20.7" fill="url(#gradient45)" fill-rule="evenodd" stroke="none"/>
    <path d="M-11.7 -15.3 Q-14.95 -14.8 -15.5 -17.2 -15.55 -20.45 -13.35 -20.7 L-12.95 -20.5 Q-14.45 -18.7 -12.55 -17.15 L-12.25 -16.9 -11.0 -17.2 -9.85 -18.05 -10.05 -16.85 -10.75 -15.85 -11.7 -15.3" fill="url(#gradient46)" fill-rule="evenodd" stroke="none"/>
    <path d="M-12.05 -11.35 L-12.1 -12.3 -11.7 -15.3 -10.75 -15.85 Q-10.95 -12.45 -1.35 -12.75 L-1.45 -6.35 Q-10.5 -3.4 -12.05 -11.35" fill="url(#gradient47)" fill-rule="evenodd" stroke="none"/>
    <path d="M10.65 -13.45 Q11.8 -9.65 11.5 -8.6 L10.65 -6.45 10.65 -13.45 M5.6 -7.15 L5.75 -3.0 5.15 -2.9 5.1 -6.95 5.6 -7.15" fill="url(#gradient48)" fill-rule="evenodd" stroke="none"/>
    <path d="M-13.3 -5.25 Q-13.6 -6.35 -12.7 -10.25 L-12.05 -11.35 Q-10.5 -3.4 -1.45 -6.35 L-1.45 -0.65 Q-4.95 1.85 -9.6 0.05 -13.75 -2.7 -13.2 -4.55 L-13.3 -5.25" fill="url(#gradient49)" fill-rule="evenodd" stroke="none"/>
    <path d="M-1.2 3.65 L-2.75 5.5 Q-6.45 8.9 -11.5 4.7 L-13.2 3.65 -13.6 2.85 -13.65 2.6 -14.15 1.2 Q-14.15 -2.2 -13.3 -5.25 L-13.2 -4.55 Q-13.75 -2.7 -9.6 0.05 -4.95 1.85 -1.45 -0.65 L-1.2 3.65" fill="url(#gradient50)" fill-rule="evenodd" stroke="none"/>
    <path d="M-4.4 7.6 Q-6.15 9.9 -14.4 6.35 -15.5 4.9 -13.65 2.6 L-13.6 2.85 Q-16.15 6.75 -10.7 6.7 L-10.3 7.05 -7.7 8.15 Q-6.2 8.4 -5.8 8.15 L-5.7 8.1 -5.5 8.1 -5.35 8.05 -4.4 7.6" fill="url(#gradient51)" fill-rule="evenodd" stroke="none"/>
    <path d="M-2.75 5.5 L-3.05 6.2 Q-4.05 7.65 -4.4 7.6 L-5.35 8.05 -5.5 8.1 -5.7 8.1 -5.8 8.15 Q-6.2 8.4 -7.7 8.15 L-10.3 7.05 -10.7 6.7 -11.3 5.85 -11.5 4.7 Q-6.45 8.9 -2.75 5.5" fill="url(#gradient52)" fill-rule="evenodd" stroke="none"/>
    <path d="M-13.6 2.85 L-13.2 3.65 -11.5 4.7 -11.3 5.85 -10.7 6.7 Q-16.15 6.75 -13.6 2.85" fill="url(#gradient53)" fill-rule="evenodd" stroke="none"/>
    <path d="M5.7 -2.25 L5.2 -2.25 5.15 -2.9 5.75 -3.0 5.85 -2.25 5.7 -2.25" fill="url(#gradient54)" fill-rule="evenodd" stroke="none"/>
    <path d="M5.85 -2.2 L5.7 -2.25 5.85 -2.25 5.85 -2.2" fill="url(#gradient55)" fill-rule="evenodd" stroke="none"/>
  </g>
  <defs>
    <radialGradient cx="0" cy="0" gradientTransform="matrix(0.0073, 0.0, 0.0, 0.0073, -8.0, -55.1)" gradientUnits="userSpaceOnUse" id="gradient0" r="819.2" spreadMethod="pad">
      <stop offset="0.0" stop-color="#383329"/>
      <stop offset="1.0" stop-color="#191712"/>
    </radialGradient>
    <radialGradient cx="0" cy="0" gradientTransform="matrix(0.0097, 0.0, 0.0, 0.0097, -3.7, -48.9)" gradientUnits="userSpaceOnUse" id="gradient1" r="819.2" spreadMethod="pad">
      <stop offset="0.0" stop-color="#ff9300"/>
      <stop offset="1.0" stop-color="#ff8f00"/>
    </radialGradient>
    <radialGradient cx="0" cy="0" gradientTransform="matrix(0.0081, 0.0, 0.0, 0.0081, -3.7, -48.9)" gradientUnits="userSpaceOnUse" id="gradient2" r="819.2" spreadMethod="pad">
      <stop offset="0.0" stop-color="#ff9600"/>
      <stop offset="1.0" stop-color="#fd8600"/>
    </radialGradient>
    <radialGradient cx="0" cy="0" gradientTransform="matrix(0.0097, 0.0, 0.0, 0.0097, -0.75, -44.1)" gradientUnits="userSpaceOnUse" id="gradient3" r="819.2" spreadMethod="pad">
      <stop offset="0.0" stop-color="#615746"/>
      <stop offset="1.0" stop-color="#3c362b"/>
    </radialGradient>
    <radialGradient cx="0" cy="0" gradientTransform="matrix(0.0166, 0.0, 0.0, 0.0166, -8.55, -43.35)" gradientUnits="userSpaceOnUse" id="gradient4" r="819.2" spreadMethod="pad">
      <stop offset="0.0" stop-color="#393329"/>
      <stop offset="1.0" stop-color="#0c0b09"/>
    </radialGradient>
    <radialGradient cx="0" cy="0" gradientTransform="matrix(0.0157, 0.0, 0.0, 0.0157, -2.65, -40.55)" gradientUnits="userSpaceOnUse" id="gradient5" r="819.2" spreadMethod="pad">
      <stop offset="0.0" stop-color="#5f5645"/>
      <stop offset="1.0" stop-color="#3b352b"/>
    </radialGradient>
    <radialGradient cx="0" cy="0" gradientTransform="matrix(0.0084, 0.0, 0.0, 0.0084, -1.1, -45.0)" gradientUnits="userSpaceOnUse" id="gradient6" r="819.2" spreadMethod="pad">
      <stop offset="0.0" stop-color="#ffc800"/>
      <stop offset="1.0" stop-color="#f18500"/>
    </radialGradient>
    <radialGradient cx="0" cy="0" gradientTransform="matrix(0.0096, 0.0, 0.0, 0.0096, 0.75, -41.15)" gradientUnits="userSpaceOnUse" id="gradient7" r="819.2" spreadMethod="pad">
      <stop offset="0.0" stop-color="#ffc700"/>
      <stop offset="1.0" stop-color="#f28700"/>
    </radialGradient>
    <radialGradient cx="0" cy="0" gradientTransform="matrix(0.007, 0.0, 0.0, 0.007, -3.5, -52.65)" gradientUnits="userSpaceOnUse" id="gradient8" r="819.2" spreadMethod="pad">
      <stop offset="0.0" stop-color="#5e5544"/>
      <stop offset="1.0" stop-color="#443e31"/>
    </radialGradient>
    <radialGradient cx="0" cy="0" gradientTransform="matrix(0.0058, 0.0, 0.0, 0.0058, 7.95, -44.8)" gradientUnits="userSpaceOnUse" id="gradient9" r="819.2" spreadMethod="pad">
      <stop offset="0.0" stop-color="#ffde7f"/>
      <stop offset="1.0" stop-color="#ac7c47"/>
    </radialGradient>
    <radialGradient cx="0" cy="0" gradientTransform="matrix(0.0571, 0.0, 0.0, 0.0571, 7.65, -43.7)" gradientUnits="userSpaceOnUse" id="gradient10" r="819.2" spreadMethod="pad">
      <stop offset="0.0" stop-color="#474034"/>
      <stop offset="1.0" stop-color="#3b352b"/>
    </radialGradient>
    <radialGradient cx="0" cy="0" gradientTransform="matrix(0.0407, 0.0, 0.0, 0.0407, 1.15, -41.55)" gradientUnits="userSpaceOnUse" id="gradient11" r="819.2" spreadMethod="pad">
      <stop offset="0.0" stop-color="#ffc100"/>
      <stop offset="1.0" stop-color="#f47b00"/>
    </radialGradient>
    <radialGradient cx="0" cy="0" gradientTransform="matrix(0.0018, 0.0, 0.0, 0.0018, -8.4, -39.95)" gradientUnits="userSpaceOnUse" id="gradient12" r="819.2" spreadMethod="pad">
      <stop offset="0.0" stop-color="#655c5c"/>
      <stop offset="1.0" stop-color="#524b4b"/>
    </radialGradient>
    <radialGradient cx="0" cy="0" gradientTransform="matrix(0.0041, 0.0, 0.0, 0.0041, -8.9, -39.75)" gradientUnits="userSpaceOnUse" id="gradient13" r="819.2" spreadMethod="pad">
      <stop offset="0.0" stop-color="#ffffff"/>
      <stop offset="1.0" stop-color="#b6b6b6"/>
    </radialGradient>
    <radialGradient cx="0" cy="0" gradientTransform="matrix(0.0078, 0.0, 0.0, 0.0078, -6.45, -36.3)" gradientUnits="userSpaceOnUse" id="gradient14" r="819.2" spreadMethod="pad">
      <stop offset="0.0" stop-color="#615746"/>
      <stop offset="1.0" stop-color="#3b352b"/>
    </radialGradient>
    <radialGradient cx="0" cy="0" gradientTransform="matrix(0.0033, 0.0, 0.0, 0.0033, -8.6, -32.65)" gradientUnits="userSpaceOnUse" id="gradient15" r="819.2" spreadMethod="pad">
      <stop offset="0.0" stop-color="#e1e1e1"/>
      <stop offset="1.0" stop-color="#969696"/>
    </radialGradient>
    <radialGradient cx="0" cy="0" gradientTransform="matrix(0.0112, 0.0, 0.0, 0.0112, -4.5, -37.75)" gradientUnits="userSpaceOnUse" id="gradient16" r="819.2" spreadMethod="pad">
      <stop offset="0.0" stop-color="#ffc671"/>
      <stop offset="1.0" stop-color="#956b3e"/>
    </radialGradient>
    <radialGradient cx="0" cy="0" gradientTransform="matrix(0.0087, 0.0, 0.0, 0.0087, -6.35, -29.0)" gradientUnits="userSpaceOnUse" id="gradient17" r="819.2" spreadMethod="pad">
      <stop offset="0.0" stop-color="#ffbc6b"/>
      <stop offset="1.0" stop-color="#ab7c47"/>
    </radialGradient>
    <radialGradient cx="0" cy="0" gradientTransform="matrix(0.0322, 0.0, 0.0, 0.0322, 3.05, -41.15)" gradientUnits="userSpaceOnUse" id="gradient18" r="819.2" spreadMethod="pad">
      <stop offset="0.0" stop-color="#8b7f7f"/>
      <stop offset="1.0" stop-color="#595151"/>
    </radialGradient>
    <radialGradient cx="0" cy="0" gradientTransform="matrix(0.0047, 0.0, 0.0, 0.0047, 10.05, -41.05)" gradientUnits="userSpaceOnUse" id="gradient19" r="819.2" spreadMethod="pad">
      <stop offset="0.0" stop-color="#ffb800"/>
      <stop offset="1.0" stop-color="#fb8100"/>
    </radialGradient>
    <radialGradient cx="0" cy="0" gradientTransform="matrix(0.0062, 0.0, 0.0, 0.0062, 11.35, -42.45)" gradientUnits="userSpaceOnUse" id="gradient20" r="819.2" spreadMethod="pad">
      <stop offset="0.0" stop-color="#ffde7f"/>
      <stop offset="1.0" stop-color="#a37643"/>
    </radialGradient>
    <radialGradient cx="0" cy="0" gradientTransform="matrix(0.0015, 0.0, 0.0, 0.0015, 10.5, -40.3)" gradientUnits="userSpaceOnUse" id="gradient21" r="819.2" spreadMethod="pad">
      <stop offset="0.0" stop-color="#ffc370"/>
      <stop offset="1.0" stop-color="#d79b59"/>
    </radialGradient>
    <radialGradient cx="0" cy="0" gradientTransform="matrix(0.0053, 0.0, 0.0, 0.0053, 9.75, -40.0)" gradientUnits="userSpaceOnUse" id="gradient22" r="819.2" spreadMethod="pad">
      <stop offset="0.0" stop-color="#ffdf80"/>
      <stop offset="1.0" stop-color="#9f7341"/>
    </radialGradient>
    <radialGradient cx="0" cy="0" gradientTransform="matrix(0.0024, 0.0, 0.0, 0.0024, -6.9, -39.9)" gradientUnits="userSpaceOnUse" id="gradient23" r="819.2" spreadMethod="pad">
      <stop offset="0.0" stop-color="#dcdcdc"/>
      <stop offset="1.0" stop-color="#c3c3c3"/>
    </radialGradient>
    <radialGradient cx="0" cy="0" gradientTransform="matrix(0.0091, 0.0, 0.0, 0.0091, 4.45, -10.7)" gradientUnits="userSpaceOnUse" id="gradient24" r="819.2" spreadMethod="pad">
      <stop offset="0.0" stop-color="#2d3556"/>
      <stop offset="1.0" stop-color="#1f263c"/>
    </radialGradient>
    <radialGradient cx="0" cy="0" gradientTransform="matrix(0.0563, 0.0, 0.0, 0.0563, -2.15, -38.8)" gradientUnits="userSpaceOnUse" id="gradient25" r="819.2" spreadMethod="pad">
      <stop offset="0.0" stop-color="#554d3e"/>
      <stop offset="1.0" stop-color="#3a352a"/>
    </radialGradient>
    <radialGradient cx="0" cy="0" gradientTransform="matrix(0.0034, 0.0, 0.0, 0.0034, -5.25, -36.7)" gradientUnits="userSpaceOnUse" id="gradient26" r="819.2" spreadMethod="pad">
      <stop offset="0.0" stop-color="#cfcfcf"/>
      <stop offset="1.0" stop-color="#898989"/>
    </radialGradient>
    <radialGradient cx="0" cy="0" gradientTransform="matrix(0.004, 0.0, 0.0, 0.004, 11.5, -38.6)" gradientUnits="userSpaceOnUse" id="gradient27" r="819.2" spreadMethod="pad">
      <stop offset="0.0" stop-color="#ffee88"/>
      <stop offset="1.0" stop-color="#956c3e"/>
    </radialGradient>
    <radialGradient cx="0" cy="0" gradientTransform="matrix(0.0017, 0.0, 0.0, 0.0017, 11.0, -36.05)" gradientUnits="userSpaceOnUse" id="gradient28" r="819.2" spreadMethod="pad">
      <stop offset="0.0" stop-color="#ff9f00"/>
      <stop offset="1.0" stop-color="#ca6500"/>
    </radialGradient>
    <radialGradient cx="0" cy="0" gradientTransform="matrix(0.0044, 0.0, 0.0, 0.0044, 11.35, -35.7)" gradientUnits="userSpaceOnUse" id="gradient29" r="819.2" spreadMethod="pad">
      <stop offset="0.0" stop-color="#ffffff"/>
      <stop offset="1.0" stop-color="#7c7c7c"/>
    </radialGradient>
    <radialGradient cx="0" cy="0" gradientTransform="matrix(0.0132, 0.0, 0.0, 0.0132, -2.65, -38.35)" gradientUnits="userSpaceOnUse" id="gradient30" r="819.2" spreadMethod="pad">
      <stop offset="0.0" stop-color="#8e8181"/>
      <stop offset="1.0" stop-color="#433d3d"/>
    </radialGradient>
    <radialGradient cx="0" cy="0" gradientTransform="matrix(0.0038, 0.0, 0.0, 0.0038, -4.3, -35.8)" gradientUnits="userSpaceOnUse" id="gradient31" r="819.2" spreadMethod="pad">
      <stop offset="0.0" stop-color="#ffb500"/>
      <stop offset="1.0" stop-color="#e67e00"/>
    </radialGradient>
    <radialGradient cx="0" cy="0" gradientTransform="matrix(0.0112, 0.0, 0.0, 0.0112, 0.25, -31.85)" gradientUnits="userSpaceOnUse" id="gradient32" r="819.2" spreadMethod="pad">
      <stop offset="0.0" stop-color="#ffd900"/>
      <stop offset="1.0" stop-color="#ff9a00"/>
    </radialGradient>
    <radialGradient cx="0" cy="0" gradientTransform="matrix(0.0064, 0.0, 0.0, 0.0064, -6.1, -29.4)" gradientUnits="userSpaceOnUse" id="gradient33" r="819.2" spreadMethod="pad">
      <stop offset="0.0" stop-color="#ffd57a"/>
      <stop offset="1.0" stop-color="#a77945"/>
    </radialGradient>
    <radialGradient cx="0" cy="0" gradientTransform="matrix(0.0023, 0.0, 0.0, 0.0023, -4.8, -31.45)" gradientUnits="userSpaceOnUse" id="gradient34" r="819.2" spreadMethod="pad">
      <stop offset="0.0" stop-color="#ff9700"/>
      <stop offset="1.0" stop-color="#a45200"/>
    </radialGradient>
    <radialGradient cx="0" cy="0" gradientTransform="matrix(0.0023, 0.0, 0.0, 0.0023, 10.75, -34.8)" gradientUnits="userSpaceOnUse" id="gradient35" r="819.2" spreadMethod="pad">
      <stop offset="0.0" stop-color="#373228"/>
      <stop offset="1.0" stop-color="#2c2820"/>
    </radialGradient>
    <radialGradient cx="0" cy="0" gradientTransform="matrix(0.0086, 0.0, 0.0, 0.0086, -7.2, -29.9)" gradientUnits="userSpaceOnUse" id="gradient36" r="819.2" spreadMethod="pad">
      <stop offset="0.0" stop-color="#ffda7d"/>
      <stop offset="1.0" stop-color="#996e3f"/>
    </radialGradient>
    <radialGradient cx="0" cy="0" gradientTransform="matrix(0.0084, 0.0, 0.0, 0.0084, -10.25, -23.4)" gradientUnits="userSpaceOnUse" id="gradient37" r="819.2" spreadMethod="pad">
      <stop offset="0.0" stop-color="#615746"/>
      <stop offset="1.0" stop-color="#28241d"/>
    </radialGradient>
    <radialGradient cx="0" cy="0" gradientTransform="matrix(0.0048, 0.0, 0.0, 0.0048, -6.1, -26.45)" gradientUnits="userSpaceOnUse" id="gradient38" r="819.2" spreadMethod="pad">
      <stop offset="0.0" stop-color="#ffd77b"/>
      <stop offset="1.0" stop-color="#92693c"/>
    </radialGradient>
    <radialGradient cx="0" cy="0" gradientTransform="matrix(0.0036, 0.0, 0.0, 0.0036, -7.05, -24.05)" gradientUnits="userSpaceOnUse" id="gradient39" r="819.2" spreadMethod="pad">
      <stop offset="0.0" stop-color="#ffb600"/>
      <stop offset="1.0" stop-color="#e17400"/>
    </radialGradient>
    <radialGradient cx="0" cy="0" gradientTransform="matrix(0.0093, 0.0, 0.0, 0.0093, -4.35, -23.4)" gradientUnits="userSpaceOnUse" id="gradient40" r="819.2" spreadMethod="pad">
      <stop offset="0.0" stop-color="#ffd800"/>
      <stop offset="1.0" stop-color="#d47900"/>
    </radialGradient>
    <radialGradient cx="0" cy="0" gradientTransform="matrix(0.0091, 0.0, 0.0, 0.0091, -4.6, -23.2)" gradientUnits="userSpaceOnUse" id="gradient41" r="819.2" spreadMethod="pad">
      <stop offset="0.0" stop-color="#404c7a"/>
      <stop offset="1.0" stop-color="#242b45"/>
    </radialGradient>
    <radialGradient cx="0" cy="0" gradientTransform="matrix(0.0092, 0.0, 0.0, 0.0092, -2.9, -25.8)" gradientUnits="userSpaceOnUse" id="gradient42" r="819.2" spreadMethod="pad">
      <stop offset="0.0" stop-color="#404c79"/>
      <stop offset="1.0" stop-color="#232942"/>
    </radialGradient>
    <radialGradient cx="0" cy="0" gradientTransform="matrix(0.0137, 0.0, 0.0, 0.0137, -2.95, -20.7)" gradientUnits="userSpaceOnUse" id="gradient43" r="819.2" spreadMethod="pad">
      <stop offset="0.0" stop-color="#343e63"/>
      <stop offset="1.0" stop-color="#29314e"/>
    </radialGradient>
    <radialGradient cx="0" cy="0" gradientTransform="matrix(0.0048, 0.0, 0.0, 0.0048, -7.35, -22.65)" gradientUnits="userSpaceOnUse" id="gradient44" r="819.2" spreadMethod="pad">
      <stop offset="0.0" stop-color="#f4f4f4"/>
      <stop offset="1.0" stop-color="#919191"/>
    </radialGradient>
    <radialGradient cx="0" cy="0" gradientTransform="matrix(7.0E-4, 0.0, 0.0, 7.0E-4, -12.95, -20.6)" gradientUnits="userSpaceOnUse" id="gradient45" r="819.2" spreadMethod="pad">
      <stop offset="0.0" stop-color="#d49958"/>
      <stop offset="1.0" stop-color="#9e7241"/>
    </radialGradient>
    <radialGradient cx="0" cy="0" gradientTransform="matrix(0.0037, 0.0, 0.0, 0.0037, -12.95, -18.05)" gradientUnits="userSpaceOnUse" id="gradient46" r="819.2" spreadMethod="pad">
      <stop offset="0.0" stop-color="#ffed88"/>
      <stop offset="1.0" stop-color="#bc884e"/>
    </radialGradient>
    <radialGradient cx="0" cy="0" gradientTransform="matrix(0.0127, 0.0, 0.0, 0.0127, -6.75, -14.95)" gradientUnits="userSpaceOnUse" id="gradient47" r="819.2" spreadMethod="pad">
      <stop offset="0.0" stop-color="#414d7b"/>
      <stop offset="1.0" stop-color="#20253c"/>
    </radialGradient>
    <radialGradient cx="0" cy="0" gradientTransform="matrix(0.0104, 0.0, 0.0, 0.0104, 3.6, -8.75)" gradientUnits="userSpaceOnUse" id="gradient48" r="819.2" spreadMethod="pad">
      <stop offset="0.0" stop-color="#39446c"/>
      <stop offset="1.0" stop-color="#1f253c"/>
    </radialGradient>
    <radialGradient cx="0" cy="0" gradientTransform="matrix(0.0102, 0.0, 0.0, 0.0102, -5.85, -6.75)" gradientUnits="userSpaceOnUse" id="gradient49" r="819.2" spreadMethod="pad">
      <stop offset="0.0" stop-color="#3c4872"/>
      <stop offset="1.0" stop-color="#1c2236"/>
    </radialGradient>
    <radialGradient cx="0" cy="0" gradientTransform="matrix(0.0106, 0.0, 0.0, 0.0106, -6.5, -1.65)" gradientUnits="userSpaceOnUse" id="gradient50" r="819.2" spreadMethod="pad">
      <stop offset="0.0" stop-color="#3d4873"/>
      <stop offset="1.0" stop-color="#181d2e"/>
    </radialGradient>
    <radialGradient cx="0" cy="0" gradientTransform="matrix(0.008, 0.0, 0.0, 0.008, -10.6, 6.1)" gradientUnits="userSpaceOnUse" id="gradient51" r="819.2" spreadMethod="pad">
      <stop offset="0.0" stop-color="#958888"/>
      <stop offset="1.0" stop-color="#3d3737"/>
    </radialGradient>
    <radialGradient cx="0" cy="0" gradientTransform="matrix(0.0059, 0.0, 0.0, 0.0059, -7.35, 6.05)" gradientUnits="userSpaceOnUse" id="gradient52" r="819.2" spreadMethod="pad">
      <stop offset="0.0" stop-color="#ffe600"/>
      <stop offset="1.0" stop-color="#da6d00"/>
    </radialGradient>
    <radialGradient cx="0" cy="0" gradientTransform="matrix(0.0072, 0.0, 0.0, 0.0072, -10.25, 5.8)" gradientUnits="userSpaceOnUse" id="gradient53" r="819.2" spreadMethod="pad">
      <stop offset="0.0" stop-color="#655b4a"/>
      <stop offset="1.0" stop-color="#4a4335"/>
    </radialGradient>
    <radialGradient cx="0" cy="0" gradientTransform="matrix(0.0023, 0.0, 0.0, 0.0023, 6.4, -3.3)" gradientUnits="userSpaceOnUse" id="gradient54" r="819.2" spreadMethod="pad">
      <stop offset="0.0" stop-color="#ffb700"/>
      <stop offset="1.0" stop-color="#d56b00"/>
    </radialGradient>
    <radialGradient cx="0" cy="0" gradientTransform="matrix(0.0014, 0.0, 0.0, 0.0014, 4.95, -2.95)" gradientUnits="userSpaceOnUse" id="gradient55" r="819.2" spreadMethod="pad">
      <stop offset="0.0" stop-color="#4a4343"/>
      <stop offset="1.0" stop-color="#181616"/>
    </radialGradient>
  </defs>
</svg>
