<?xml version="1.0" encoding="UTF-8" standalone="no"?>
<svg xmlns:ffdec="https://www.free-decompiler.com/flash" xmlns:xlink="http://www.w3.org/1999/xlink" ffdec:objectType="shape" height="66.3px" width="30.6px" xmlns="http://www.w3.org/2000/svg">
  <g transform="matrix(1.0, 0.0, 0.0, 1.0, 14.5, 57.5)">
    <path d="M-1.8 -50.8 L-2.0 -52.3 -1.8 -52.7 -1.15 -50.25 1.4 -48.65 Q-0.9 -49.05 -1.8 -50.8 M8.2 -55.2 Q8.45 -55.25 9.3 -53.95 L9.45 -52.7 Q7.05 -47.65 1.45 -48.65 9.6 -49.15 8.85 -53.7 L8.2 -55.2" fill="url(#gradient0)" fill-rule="evenodd" stroke="none"/>
    <path d="M-1.8 -52.7 L-1.7 -52.85 -1.2 -54.4 1.35 -57.2 Q7.25 -58.35 8.2 -55.2 L8.85 -53.7 Q9.6 -49.15 1.45 -48.65 L1.4 -48.65 -1.15 -50.25 -1.8 -52.7" fill="url(#gradient1)" fill-rule="evenodd" stroke="none"/>
    <path d="M-1.75 -50.45 L-1.8 -50.8 Q-0.9 -49.05 1.4 -48.65 L1.45 -48.65 Q7.05 -47.65 9.45 -52.7 L9.65 -50.15 Q9.5 -48.8 8.2 -47.7 6.3 -46.3 5.3 -46.25 L3.15 -46.5 2.8 -47.35 Q-0.3 -48.25 -1.7 -50.0 L-1.75 -50.45" fill="url(#gradient2)" fill-rule="evenodd" stroke="none"/>
    <path d="M-4.6 -50.25 L-1.75 -50.45 -1.7 -50.0 Q-3.0 -50.35 -4.15 -48.3 L-3.95 -46.9 -5.1 -46.65 Q-7.45 -45.0 -6.6 -43.75 L-7.55 -42.05 -7.7 -41.4 Q-7.35 -44.3 -7.95 -45.3 L-7.85 -45.75 -6.95 -47.85 -6.25 -48.65 -5.7 -49.2 -4.6 -50.25 M8.65 -44.4 L9.2 -42.9 9.05 -40.5 8.8 -39.4 Q6.5 -40.25 3.65 -36.8 L2.7 -36.65 Q2.5 -37.6 1.8 -36.75 L1.1 -37.15 Q0.55 -35.95 -1.4 -36.15 L-2.35 -36.4 -1.95 -38.5 -0.9 -40.4 -0.1 -40.7 -0.05 -40.85 1.1 -42.4 0.85 -43.75 5.4 -44.5 7.15 -45.05 7.45 -45.35 8.45 -45.0 8.65 -44.4" fill="url(#gradient3)" fill-rule="evenodd" stroke="none"/>
    <path d="M-6.45 -49.65 L-4.7 -52.1 -4.6 -50.25 -5.7 -49.2 -6.45 -49.65" fill="url(#gradient4)" fill-rule="evenodd" stroke="none"/>
    <path d="M-6.8 -49.7 L-6.45 -49.65 -5.7 -49.2 -6.25 -48.65 -6.8 -49.7 M-11.85 -42.3 L-12.3 -43.45 Q-12.5 -44.75 -12.2 -45.65 L-11.25 -47.4 -9.8 -48.8 Q-8.65 -49.6 -8.3 -49.5 L-8.45 -48.25 Q-7.85 -47.65 -6.95 -47.85 L-7.85 -45.75 -8.0 -45.45 -8.05 -45.3 -8.35 -44.3 -8.45 -44.15 Q-12.15 -43.8 -9.95 -41.75 L-10.2 -41.4 -10.55 -41.45 -11.1 -41.6 -11.55 -41.95 -11.8 -42.25 -11.85 -42.3 M-9.7 -45.15 Q-7.45 -45.75 -9.45 -47.15 L-10.8 -46.85 Q-10.25 -45.1 -9.7 -45.15" fill="url(#gradient5)" fill-rule="evenodd" stroke="none"/>
    <path d="M-8.3 -49.5 L-7.7 -51.1 -6.8 -49.7 -6.25 -48.65 -6.95 -47.85 Q-7.85 -47.65 -8.45 -48.25 L-8.3 -49.5" fill="url(#gradient6)" fill-rule="evenodd" stroke="none"/>
    <path d="M-12.2 -45.65 L-12.85 -47.0 Q-13.1 -47.75 -12.95 -48.7 L-11.6 -47.5 -11.25 -47.4 -12.2 -45.65" fill="url(#gradient7)" fill-rule="evenodd" stroke="none"/>
    <path d="M8.2 -47.7 L8.7 -46.35 Q8.95 -44.4 8.65 -44.4 L8.45 -45.0 7.45 -45.35 7.15 -45.05 5.4 -44.5 0.85 -43.75 0.7 -44.0 2.15 -44.25 Q3.9 -45.95 3.15 -46.5 L5.3 -46.25 Q6.3 -46.3 8.2 -47.7" fill="url(#gradient8)" fill-rule="evenodd" stroke="none"/>
    <path d="M-3.95 -46.9 L-4.15 -48.3 Q-3.0 -50.35 -1.7 -50.0 -0.3 -48.25 2.8 -47.35 L3.15 -46.5 Q3.9 -45.95 2.15 -44.25 L0.7 -44.0 Q-0.7 -43.65 -3.95 -46.9" fill="url(#gradient9)" fill-rule="evenodd" stroke="none"/>
    <path d="M-6.6 -43.75 Q-7.45 -45.0 -5.1 -46.65 L-3.95 -46.9 Q-0.7 -43.65 0.7 -44.0 L0.85 -43.75 1.1 -42.4 -0.05 -40.85 -0.1 -40.7 -0.9 -40.4 -2.4 -40.0 -2.75 -40.2 -4.8 -41.4 -6.25 -42.55 -6.45 -42.65 -6.6 -43.75" fill="url(#gradient10)" fill-rule="evenodd" stroke="none"/>
    <path d="M-0.9 -40.4 L-1.95 -38.5 -2.35 -36.4 -2.85 -33.15 -3.05 -16.7 -3.3 -11.5 -3.55 -7.75 Q-3.8 -9.25 -6.95 -10.65 -7.9 -11.15 -8.4 -11.8 L-8.8 -22.8 -8.8 -29.15 -8.5 -36.65 -7.7 -41.4 -7.55 -42.05 -6.6 -43.75 -6.45 -42.65 -6.25 -42.55 -6.75 -41.4 Q-8.15 -38.7 -8.05 -29.15 L-7.7 -16.85 Q-4.9 -15.4 -4.7 -14.7 L-4.5 -16.85 -4.3 -22.9 -4.35 -29.15 -4.2 -35.05 Q-3.9 -39.35 -2.75 -40.2 L-2.4 -40.0 -0.9 -40.4" fill="url(#gradient11)" fill-rule="evenodd" stroke="none"/>
    <path d="M-6.7 -2.05 L-6.55 4.2 -6.75 4.0 -10.45 -2.2 -9.9 -5.65 -9.3 -9.05 -9.3 -9.85 -9.15 -16.1 -9.05 -16.85 -9.15 -19.35 -9.3 -24.15 -9.8 -32.25 -9.8 -34.2 -9.75 -35.2 -9.75 -35.25 -9.7 -39.6 -9.65 -40.3 -9.65 -40.35 -9.5 -40.7 -9.45 -40.75 -9.45 -40.85 -9.4 -40.9 -9.4 -41.0 -9.35 -41.1 -9.35 -41.2 -9.25 -41.4 -9.25 -41.6 -8.45 -43.95 -8.45 -44.0 -8.4 -44.15 -8.35 -44.3 -8.05 -45.3 -8.0 -45.3 -7.95 -45.3 Q-7.35 -44.3 -7.7 -41.4 L-8.5 -36.65 -8.8 -29.15 -8.8 -22.8 -8.4 -11.8 Q-7.9 -11.15 -6.95 -10.65 L-6.8 -7.55 -6.7 -3.0 -6.7 -2.2 -6.7 -2.05" fill="url(#gradient12)" fill-rule="evenodd" stroke="none"/>
    <path d="M-8.0 -45.3 L-8.0 -45.45 -7.85 -45.75 -7.95 -45.3 -8.0 -45.3 M-8.45 -44.0 L-8.45 -43.95 -8.5 -44.0 -8.45 -44.0 M-9.65 -40.35 L-9.65 -40.3 -9.7 -40.35 -9.65 -40.35" fill="url(#gradient13)" fill-rule="evenodd" stroke="none"/>
    <path d="M-9.7 -45.15 Q-10.25 -45.1 -10.8 -46.85 L-9.45 -47.15 Q-7.45 -45.75 -9.7 -45.15" fill="url(#gradient14)" fill-rule="evenodd" stroke="none"/>
    <path d="M-11.85 -42.25 L-11.85 -42.3 -11.8 -42.25 -11.85 -42.25" fill="url(#gradient15)" fill-rule="evenodd" stroke="none"/>
    <path d="M-12.1 -37.35 Q-13.65 -39.75 -11.85 -42.25 L-11.8 -42.25 -11.55 -41.95 -11.35 -41.4 -10.65 -40.25 -10.65 -39.95 -11.1 -39.0 -11.25 -38.15 -11.75 -38.05 -12.1 -37.35" fill="url(#gradient16)" fill-rule="evenodd" stroke="none"/>
    <path d="M-8.05 -45.3 L-8.0 -45.45 -8.0 -45.3 -8.05 -45.3 M-8.45 -44.15 L-8.35 -44.3 -8.4 -44.15 -8.45 -44.15 M-10.55 -41.45 L-10.2 -41.4 -9.95 -41.75 -9.75 -41.45 -9.75 -41.4 -9.8 -40.7 -10.25 -40.9 -10.5 -41.4 -10.55 -41.45" fill="url(#gradient17)" fill-rule="evenodd" stroke="none"/>
    <path d="M-8.45 -43.95 L-9.25 -41.6 -9.75 -41.45 -9.95 -41.75 Q-12.15 -43.8 -8.45 -44.15 L-8.5 -44.0 -8.45 -43.95" fill="url(#gradient18)" fill-rule="evenodd" stroke="none"/>
    <path d="M-9.65 -40.3 L-9.7 -39.6 -10.45 -40.1 -10.65 -40.25 -11.35 -41.4 -11.55 -41.95 -11.1 -41.6 -10.55 -41.45 -10.5 -41.4 -10.25 -40.9 -9.8 -40.7 -9.7 -40.35 -9.65 -40.3" fill="url(#gradient19)" fill-rule="evenodd" stroke="none"/>
    <path d="M2.8 -33.8 L3.4 -31.75 3.65 -31.3 Q3.55 -31.0 4.15 -29.95 L4.95 -29.5 4.85 -29.15 4.6 -27.6 3.95 -27.35 1.95 -27.55 2.55 -33.05 2.8 -33.8 M-8.4 -44.15 L-8.45 -44.0 -8.5 -44.0 -8.45 -44.15 -8.4 -44.15 M-9.25 -41.6 L-9.25 -41.4 -9.35 -41.2 -9.35 -41.1 -9.4 -41.0 -9.4 -40.9 -9.45 -40.85 -9.45 -40.75 -9.5 -40.7 -9.65 -40.35 -9.7 -40.35 -9.8 -40.7 -9.75 -41.4 -9.75 -41.45 -9.25 -41.6" fill="url(#gradient20)" fill-rule="evenodd" stroke="none"/>
    <path d="M-2.75 -40.2 Q-3.9 -39.35 -4.2 -35.05 L-4.35 -29.15 -4.3 -22.9 -4.5 -16.85 -4.7 -14.7 Q-4.9 -15.4 -7.7 -16.85 L-8.05 -29.15 Q-8.15 -38.7 -6.75 -41.4 L-6.25 -42.55 -4.8 -41.4 -2.75 -40.2" fill="url(#gradient21)" fill-rule="evenodd" stroke="none"/>
    <path d="M-10.65 -40.25 L-10.45 -40.1 -10.65 -39.95 -10.65 -40.25" fill="url(#gradient22)" fill-rule="evenodd" stroke="none"/>
    <path d="M-9.7 -39.6 L-9.75 -35.25 -9.8 -35.25 -10.4 -35.5 Q-10.8 -35.75 -11.2 -37.1 L-11.25 -38.15 -11.1 -39.0 -10.65 -39.95 -10.45 -40.1 -9.7 -39.6" fill="url(#gradient23)" fill-rule="evenodd" stroke="none"/>
    <path d="M-11.9 -35.75 L-12.15 -36.55 -12.1 -37.35 -11.75 -38.05 -11.25 -38.15 -11.2 -37.1 Q-10.8 -35.75 -10.4 -35.5 L-10.8 -35.15 -11.15 -35.05 -11.65 -35.3 -11.9 -35.75" fill="url(#gradient24)" fill-rule="evenodd" stroke="none"/>
    <path d="M-10.35 -13.0 Q-10.2 -16.7 -9.35 -18.15 L-9.15 -16.1 -9.3 -9.85 -9.55 -10.1 -10.15 -11.45 -10.35 -13.0 M-6.95 -10.65 Q-3.8 -9.25 -3.55 -7.75 L-3.3 -11.5 -2.95 -11.45 -2.95 -8.15 -3.1 -6.6 -4.5 -6.65 -6.8 -7.55 -6.95 -10.65" fill="url(#gradient25)" fill-rule="evenodd" stroke="none"/>
    <path d="M-9.9 -5.65 Q-12.05 -7.45 -10.35 -13.0 L-10.15 -11.45 -9.55 -10.1 -9.3 -9.85 -9.3 -9.05 -9.9 -5.65 M-6.8 -7.55 L-4.5 -6.65 -3.1 -6.6 -3.45 -2.65 -4.5 -2.55 -6.7 -3.0 -6.8 -7.55" fill="url(#gradient26)" fill-rule="evenodd" stroke="none"/>
    <path d="M-3.5 -2.45 L-4.75 -2.0 -6.15 -2.0 -6.7 -2.2 -6.7 -3.0 -4.5 -2.55 -3.45 -2.65 -3.5 -2.45" fill="url(#gradient27)" fill-rule="evenodd" stroke="none"/>
    <path d="M-6.15 -2.0 L-6.7 -2.05 -6.7 -2.2 -6.15 -2.0" fill="url(#gradient28)" fill-rule="evenodd" stroke="none"/>
    <path d="M-9.35 -18.15 L-9.15 -19.35 -9.05 -16.85 -9.15 -16.1 -9.35 -18.15 M-3.3 -11.5 L-3.05 -16.7 -2.95 -11.45 -3.3 -11.5" fill="url(#gradient29)" fill-rule="evenodd" stroke="none"/>
    <path d="M-9.8 -32.25 L-10.45 -32.8 -11.25 -33.7 -9.85 -34.2 -9.8 -34.2 -9.8 -32.25" fill="url(#gradient30)" fill-rule="evenodd" stroke="none"/>
    <path d="M-9.75 -35.2 L-9.8 -34.2 -9.85 -34.2 -10.45 -34.45 -11.15 -35.05 -10.8 -35.15 -10.4 -35.5 -9.8 -35.25 -9.75 -35.2" fill="url(#gradient31)" fill-rule="evenodd" stroke="none"/>
    <path d="M-9.75 -35.25 L-9.75 -35.2 -9.8 -35.25 -9.75 -35.25" fill="url(#gradient32)" fill-rule="evenodd" stroke="none"/>
    <path d="M9.05 -40.5 L9.6 -39.6 9.95 -38.5 8.8 -39.4 9.05 -40.5" fill="url(#gradient33)" fill-rule="evenodd" stroke="none"/>
    <path d="M9.95 -38.5 Q11.65 -36.8 11.75 -33.35 7.7 -28.6 3.65 -31.3 L3.4 -31.75 2.8 -33.8 Q3.25 -34.65 3.1 -35.7 L3.65 -36.8 Q6.5 -40.25 8.8 -39.4 L9.95 -38.5 M10.85 -30.5 L10.65 -30.25 9.8 -29.85 10.85 -30.6 10.85 -30.5" fill="url(#gradient34)" fill-rule="evenodd" stroke="none"/>
    <path d="M0.7 2.55 L0.2 7.85 -5.25 4.85 -3.6 -1.0 -3.5 -2.45 -3.45 -2.65 -3.1 -6.6 -2.95 -8.15 -2.95 -11.45 -3.05 -16.7 -2.85 -33.15 -2.35 -36.4 -1.4 -36.15 Q0.55 -35.95 1.1 -37.15 L1.8 -36.75 Q2.5 -37.6 2.7 -36.65 L3.65 -36.8 3.1 -35.7 Q3.25 -34.65 2.8 -33.8 L2.55 -33.05 1.95 -27.55 1.65 -25.1 1.4 -18.7 1.2 -12.7 1.2 -12.45 1.1 -6.6 0.9 -1.25 0.7 2.55" fill="url(#gradient35)" fill-rule="evenodd" stroke="none"/>
    <path d="M-11.25 -33.7 L-13.35 -33.8 Q-13.95 -33.8 -14.5 -34.85 L-14.5 -35.75 Q-13.35 -34.65 -11.9 -35.75 L-11.65 -35.3 -11.15 -35.05 -10.45 -34.45 -9.85 -34.2 -11.25 -33.7" fill="url(#gradient36)" fill-rule="evenodd" stroke="none"/>
    <path d="M1.95 -27.55 L3.95 -27.35 4.6 -27.6 4.85 -26.1 5.4 -24.75 4.9 -24.4 3.85 -24.9 1.65 -25.1 1.95 -27.55" fill="url(#gradient37)" fill-rule="evenodd" stroke="none"/>
    <path d="M4.9 -24.4 Q2.85 -23.95 3.4 -18.65 L2.0 -18.4 1.4 -18.7 1.65 -25.1 3.85 -24.9 4.9 -24.4" fill="url(#gradient38)" fill-rule="evenodd" stroke="none"/>
    <path d="M10.05 -17.95 L10.35 -17.7 10.45 -16.85 10.75 -16.1 11.3 -15.5 10.7 -14.25 Q10.05 -13.45 9.0 -13.05 1.55 -11.35 1.2 -12.45 L1.2 -12.7 1.4 -18.7 2.0 -18.4 3.4 -18.65 3.8 -18.0 3.75 -17.85 4.55 -16.85 Q4.55 -16.45 5.45 -15.85 L6.6 -15.55 8.25 -16.05 9.55 -17.75 10.05 -17.95" fill="url(#gradient39)" fill-rule="evenodd" stroke="none"/>
    <path d="M12.2 -14.95 L12.55 -12.45 12.5 -11.0 Q11.2 -2.6 1.1 -6.6 L1.2 -12.45 Q1.55 -11.35 9.0 -13.05 10.05 -13.45 10.7 -14.25 L11.3 -15.5 12.2 -14.95" fill="url(#gradient40)" fill-rule="evenodd" stroke="none"/>
    <path d="M13.85 -20.4 Q16.7 -19.45 15.9 -16.65 15.15 -14.45 12.2 -14.95 L11.3 -15.5 10.75 -16.1 10.45 -16.85 10.35 -17.7 11.4 -16.9 12.0 -16.85 12.6 -16.65 13.05 -16.85 Q14.95 -17.75 13.5 -20.15 L13.85 -20.4" fill="url(#gradient41)" fill-rule="evenodd" stroke="none"/>
    <path d="M11.9 -23.8 Q13.15 -22.45 13.4 -21.6 L13.5 -20.65 13.5 -20.15 Q14.95 -17.75 13.05 -16.85 L12.6 -16.65 12.0 -16.85 11.4 -16.9 10.35 -17.7 10.05 -17.95 8.7 -19.15 8.35 -19.65 8.3 -20.1 8.25 -20.25 8.2 -20.4 9.0 -20.75 9.15 -21.25 9.65 -21.9 10.05 -22.8 10.5 -23.1 10.8 -23.35 11.75 -23.6 11.9 -23.8" fill="url(#gradient42)" fill-rule="evenodd" stroke="none"/>
    <path d="M8.2 -20.4 L8.25 -20.25 8.3 -20.1 8.35 -19.65 8.7 -19.15 10.05 -17.95 9.55 -17.75 8.25 -16.05 6.6 -15.55 6.9 -15.8 6.85 -15.9 5.95 -16.85 5.2 -19.15 5.0 -19.25 4.8 -20.6 6.25 -20.0 Q8.05 -20.0 8.2 -20.4 M4.85 -21.95 L4.95 -22.9 Q5.0 -22.55 5.75 -24.3 L5.95 -23.25 6.65 -22.35 6.65 -22.3 5.45 -21.8 4.85 -21.95" fill="url(#gradient43)" fill-rule="evenodd" stroke="none"/>
    <path d="M9.15 -21.25 L9.0 -20.75 8.2 -20.4 Q8.05 -20.0 6.25 -20.0 L4.8 -20.6 4.1 -21.5 3.9 -22.6 4.6 -21.95 4.85 -21.95 5.45 -21.8 6.65 -22.3 6.7 -22.3 7.25 -22.3 9.15 -21.25" fill="url(#gradient44)" fill-rule="evenodd" stroke="none"/>
    <path d="M7.8 -23.3 Q7.95 -23.0 9.1 -22.8 L9.95 -22.85 10.05 -22.8 9.65 -21.9 9.15 -21.25 7.25 -22.3 7.8 -23.3" fill="url(#gradient45)" fill-rule="evenodd" stroke="none"/>
    <path d="M11.65 -31.45 Q13.75 -27.75 11.9 -23.8 L11.75 -23.6 10.8 -23.35 Q13.2 -26.5 11.8 -29.15 L11.2 -30.25 10.85 -30.5 10.85 -30.6 11.65 -31.45 M6.5 -29.1 L6.3 -28.65 6.3 -29.15 6.45 -29.15 6.5 -29.1 M9.95 -22.85 L10.5 -23.1 10.05 -22.8 9.95 -22.85" fill="url(#gradient46)" fill-rule="evenodd" stroke="none"/>
    <path d="M6.3 -28.65 L6.5 -29.1 8.55 -29.3 9.8 -29.85 10.65 -30.25 10.85 -30.5 11.2 -30.25 11.8 -29.15 Q13.2 -26.5 10.8 -23.35 L10.5 -23.1 9.95 -22.85 9.1 -22.8 Q7.95 -23.0 7.8 -23.3 L6.7 -24.65 6.3 -25.9 6.15 -27.0 6.3 -28.65" fill="url(#gradient47)" fill-rule="evenodd" stroke="none"/>
    <path d="M11.75 -33.35 Q12.0 -33.3 11.85 -31.8 L11.65 -31.45 10.85 -30.6 9.8 -29.85 8.55 -29.3 6.5 -29.1 6.45 -29.15 6.3 -29.15 4.95 -29.5 4.15 -29.95 Q3.55 -31.0 3.65 -31.3 7.7 -28.6 11.75 -33.35" fill="url(#gradient48)" fill-rule="evenodd" stroke="none"/>
    <path d="M4.6 -27.6 L4.85 -29.15 4.95 -29.5 6.3 -29.15 6.3 -28.65 6.15 -27.0 6.3 -25.9 5.9 -25.55 5.75 -24.4 5.7 -24.4 5.4 -24.75 4.85 -26.1 4.6 -27.6" fill="url(#gradient49)" fill-rule="evenodd" stroke="none"/>
    <path d="M6.3 -25.9 L6.7 -24.65 7.8 -23.3 7.25 -22.3 6.7 -22.3 6.65 -22.35 5.95 -23.25 5.75 -24.3 5.75 -24.35 5.75 -24.4 5.9 -25.55 6.3 -25.9" fill="url(#gradient50)" fill-rule="evenodd" stroke="none"/>
    <path d="M5.75 -24.35 L5.7 -24.4 5.75 -24.4 5.75 -24.35 M6.65 -22.35 L6.7 -22.3 6.65 -22.3 6.65 -22.35" fill="url(#gradient51)" fill-rule="evenodd" stroke="none"/>
    <path d="M5.4 -24.75 L5.7 -24.4 5.75 -24.35 5.75 -24.3 Q5.0 -22.55 4.95 -22.9 L4.85 -21.95 4.6 -21.95 3.9 -22.6 4.1 -21.5 4.8 -20.6 5.0 -19.25 5.2 -19.15 5.95 -16.85 6.85 -15.9 6.9 -15.8 6.6 -15.55 5.45 -15.85 Q4.55 -16.45 4.55 -16.85 L3.75 -17.85 3.8 -18.0 3.4 -18.65 Q2.85 -23.95 4.9 -24.4 L5.4 -24.75" fill="url(#gradient52)" fill-rule="evenodd" stroke="none"/>
    <path d="M13.5 -20.65 L13.85 -20.4 13.5 -20.15 13.5 -20.65" fill="url(#gradient53)" fill-rule="evenodd" stroke="none"/>
    <path d="M12.5 -11.0 L13.2 -9.6 Q14.0 -6.65 13.65 -5.0 L13.65 -4.55 Q12.75 0.05 8.55 0.8 3.75 1.75 0.9 -1.25 L1.1 -6.6 Q11.2 -2.6 12.5 -11.0" fill="url(#gradient54)" fill-rule="evenodd" stroke="none"/>
    <path d="M13.65 -5.0 Q15.25 2.7 14.05 2.9 L14.0 3.0 13.65 3.85 11.9 4.95 Q11.65 4.75 10.4 6.3 L9.3 7.05 6.8 7.35 3.3 6.05 3.2 5.9 3.25 5.85 3.15 5.75 2.5 5.05 0.7 2.55 0.9 -1.25 Q3.75 1.75 8.55 0.8 12.75 0.05 13.65 -4.55 L13.65 -5.0" fill="url(#gradient55)" fill-rule="evenodd" stroke="none"/>
    <path d="M3.2 5.85 L3.15 5.75 3.25 5.85 3.2 5.85" fill="url(#gradient56)" fill-rule="evenodd" stroke="none"/>
    <path d="M4.8 7.9 L4.75 7.85 Q4.4 7.85 3.55 6.65 L3.3 6.05 6.8 7.35 9.3 7.05 10.4 6.3 Q11.65 4.75 11.9 4.95 L11.95 5.3 11.7 6.25 11.05 7.0 9.85 7.7 8.3 8.4 6.2 8.45 6.0 8.4 5.9 8.4 5.75 8.35 4.8 7.9 M3.2 5.9 L3.2 5.85 3.25 5.85 3.2 5.9" fill="url(#gradient57)" fill-rule="evenodd" stroke="none"/>
    <path d="M14.05 2.9 Q15.8 4.5 14.75 6.65 6.5 10.2 4.8 7.9 L5.75 8.35 5.9 8.4 6.0 8.4 6.2 8.45 8.3 8.4 9.85 7.7 11.05 7.0 Q16.7 6.95 14.0 3.0 L14.05 2.9" fill="url(#gradient58)" fill-rule="evenodd" stroke="none"/>
    <path d="M11.9 4.95 L13.65 3.85 14.0 3.0 Q16.7 6.95 11.05 7.0 L11.7 6.25 11.95 5.3 11.9 4.95" fill="url(#gradient59)" fill-rule="evenodd" stroke="none"/>
  </g>
  <defs>
    <radialGradient cx="0" cy="0" gradientTransform="matrix(0.0111, 0.0, 0.0, 0.0111, 2.05, -48.55)" gradientUnits="userSpaceOnUse" id="gradient0" r="819.2" spreadMethod="pad">
      <stop offset="0.0" stop-color="#ff9300"/>
      <stop offset="1.0" stop-color="#ff8f00"/>
    </radialGradient>
    <radialGradient cx="0" cy="0" gradientTransform="matrix(0.0077, 0.0, 0.0, 0.0077, 4.15, -51.65)" gradientUnits="userSpaceOnUse" id="gradient1" r="819.2" spreadMethod="pad">
      <stop offset="0.0" stop-color="#605645"/>
      <stop offset="1.0" stop-color="#363127"/>
    </radialGradient>
    <radialGradient cx="0" cy="0" gradientTransform="matrix(0.0082, 0.0, 0.0, 0.0082, 4.05, -48.65)" gradientUnits="userSpaceOnUse" id="gradient2" r="819.2" spreadMethod="pad">
      <stop offset="0.0" stop-color="#ff9600"/>
      <stop offset="1.0" stop-color="#fd8600"/>
    </radialGradient>
    <radialGradient cx="0" cy="0" gradientTransform="matrix(0.0158, 0.0, 0.0, 0.0158, 3.15, -40.05)" gradientUnits="userSpaceOnUse" id="gradient3" r="819.2" spreadMethod="pad">
      <stop offset="0.0" stop-color="#605645"/>
      <stop offset="1.0" stop-color="#342f25"/>
    </radialGradient>
    <radialGradient cx="0" cy="0" gradientTransform="matrix(0.0038, 0.0, 0.0, 0.0038, -5.85, -49.25)" gradientUnits="userSpaceOnUse" id="gradient4" r="819.2" spreadMethod="pad">
      <stop offset="0.0" stop-color="#ffffff"/>
      <stop offset="1.0" stop-color="#c0c0c0"/>
    </radialGradient>
    <radialGradient cx="0" cy="0" gradientTransform="matrix(0.0071, 0.0, 0.0, 0.0071, -7.25, -45.9)" gradientUnits="userSpaceOnUse" id="gradient5" r="819.2" spreadMethod="pad">
      <stop offset="0.0" stop-color="#655b49"/>
      <stop offset="1.0" stop-color="#373228"/>
    </radialGradient>
    <radialGradient cx="0" cy="0" gradientTransform="matrix(0.0036, 0.0, 0.0, 0.0036, -7.65, -50.2)" gradientUnits="userSpaceOnUse" id="gradient6" r="819.2" spreadMethod="pad">
      <stop offset="0.0" stop-color="#fcfcfc"/>
      <stop offset="1.0" stop-color="#d4d4d4"/>
    </radialGradient>
    <radialGradient cx="0" cy="0" gradientTransform="matrix(0.0033, 0.0, 0.0, 0.0033, -11.75, -46.35)" gradientUnits="userSpaceOnUse" id="gradient7" r="819.2" spreadMethod="pad">
      <stop offset="0.0" stop-color="#ffffff"/>
      <stop offset="1.0" stop-color="#9a9a9a"/>
    </radialGradient>
    <radialGradient cx="0" cy="0" gradientTransform="matrix(0.0097, 0.0, 0.0, 0.0097, 1.35, -43.65)" gradientUnits="userSpaceOnUse" id="gradient8" r="819.2" spreadMethod="pad">
      <stop offset="0.0" stop-color="#615746"/>
      <stop offset="1.0" stop-color="#3c362c"/>
    </radialGradient>
    <radialGradient cx="0" cy="0" gradientTransform="matrix(0.0084, 0.0, 0.0, 0.0084, 1.6, -44.65)" gradientUnits="userSpaceOnUse" id="gradient9" r="819.2" spreadMethod="pad">
      <stop offset="0.0" stop-color="#ffc800"/>
      <stop offset="1.0" stop-color="#f18500"/>
    </radialGradient>
    <radialGradient cx="0" cy="0" gradientTransform="matrix(0.0096, 0.0, 0.0, 0.0096, -0.25, -40.8)" gradientUnits="userSpaceOnUse" id="gradient10" r="819.2" spreadMethod="pad">
      <stop offset="0.0" stop-color="#ffc700"/>
      <stop offset="1.0" stop-color="#f28600"/>
    </radialGradient>
    <radialGradient cx="0" cy="0" gradientTransform="matrix(0.0412, 0.0, 0.0, 0.0412, -0.45, -41.4)" gradientUnits="userSpaceOnUse" id="gradient11" r="819.2" spreadMethod="pad">
      <stop offset="0.0" stop-color="#ffbe00"/>
      <stop offset="1.0" stop-color="#f57b00"/>
    </radialGradient>
    <radialGradient cx="0" cy="0" gradientTransform="matrix(0.0579, 0.0, 0.0, 0.0579, -7.2, -43.35)" gradientUnits="userSpaceOnUse" id="gradient12" r="819.2" spreadMethod="pad">
      <stop offset="0.0" stop-color="#484134"/>
      <stop offset="1.0" stop-color="#353027"/>
    </radialGradient>
    <radialGradient cx="0" cy="0" gradientTransform="matrix(0.0078, 0.0, 0.0, 0.0078, -9.65, -40.4)" gradientUnits="userSpaceOnUse" id="gradient13" r="819.2" spreadMethod="pad">
      <stop offset="0.0" stop-color="#0c0b09"/>
      <stop offset="1.0" stop-color="#0c0b09"/>
    </radialGradient>
    <radialGradient cx="0" cy="0" gradientTransform="matrix(0.0029, 0.0, 0.0, 0.0029, -8.65, -45.9)" gradientUnits="userSpaceOnUse" id="gradient14" r="819.2" spreadMethod="pad">
      <stop offset="0.0" stop-color="#cfcfcf"/>
      <stop offset="1.0" stop-color="#808080"/>
    </radialGradient>
    <radialGradient cx="0" cy="0" gradientTransform="matrix(0.0044, 0.0, 0.0, 0.0044, -12.4, -44.65)" gradientUnits="userSpaceOnUse" id="gradient15" r="819.2" spreadMethod="pad">
      <stop offset="0.0" stop-color="#342f26"/>
      <stop offset="1.0" stop-color="#2b271f"/>
    </radialGradient>
    <radialGradient cx="0" cy="0" gradientTransform="matrix(0.0057, 0.0, 0.0, 0.0057, -10.6, -41.75)" gradientUnits="userSpaceOnUse" id="gradient16" r="819.2" spreadMethod="pad">
      <stop offset="0.0" stop-color="#ffe784"/>
      <stop offset="1.0" stop-color="#ae7d47"/>
    </radialGradient>
    <radialGradient cx="0" cy="0" gradientTransform="matrix(0.0072, 0.0, 0.0, 0.0072, -6.55, -45.2)" gradientUnits="userSpaceOnUse" id="gradient17" r="819.2" spreadMethod="pad">
      <stop offset="0.0" stop-color="#ffe382"/>
      <stop offset="1.0" stop-color="#b18049"/>
    </radialGradient>
    <radialGradient cx="0" cy="0" gradientTransform="matrix(0.0048, 0.0, 0.0, 0.0048, -7.4, -44.1)" gradientUnits="userSpaceOnUse" id="gradient18" r="819.2" spreadMethod="pad">
      <stop offset="0.0" stop-color="#ffd200"/>
      <stop offset="1.0" stop-color="#ee8800"/>
    </radialGradient>
    <radialGradient cx="0" cy="0" gradientTransform="matrix(0.0031, 0.0, 0.0, 0.0031, -9.85, -41.9)" gradientUnits="userSpaceOnUse" id="gradient19" r="819.2" spreadMethod="pad">
      <stop offset="0.0" stop-color="#ffca00"/>
      <stop offset="1.0" stop-color="#c16000"/>
    </radialGradient>
    <radialGradient cx="0" cy="0" gradientTransform="matrix(0.0219, 0.0, 0.0, 0.0219, -8.7, -39.6)" gradientUnits="userSpaceOnUse" id="gradient20" r="819.2" spreadMethod="pad">
      <stop offset="0.0" stop-color="#938686"/>
      <stop offset="1.0" stop-color="#413b3b"/>
    </radialGradient>
    <radialGradient cx="0" cy="0" gradientTransform="matrix(0.0325, 0.0, 0.0, 0.0325, -2.45, -41.0)" gradientUnits="userSpaceOnUse" id="gradient21" r="819.2" spreadMethod="pad">
      <stop offset="0.0" stop-color="#897d7d"/>
      <stop offset="1.0" stop-color="#585050"/>
    </radialGradient>
    <radialGradient cx="0" cy="0" gradientTransform="matrix(0.0014, 0.0, 0.0, 0.0014, -10.15, -40.05)" gradientUnits="userSpaceOnUse" id="gradient22" r="819.2" spreadMethod="pad">
      <stop offset="0.0" stop-color="#ffc370"/>
      <stop offset="1.0" stop-color="#ebaa61"/>
    </radialGradient>
    <radialGradient cx="0" cy="0" gradientTransform="matrix(0.0055, 0.0, 0.0, 0.0055, -9.45, -39.75)" gradientUnits="userSpaceOnUse" id="gradient23" r="819.2" spreadMethod="pad">
      <stop offset="0.0" stop-color="#ffdf80"/>
      <stop offset="1.0" stop-color="#92693c"/>
    </radialGradient>
    <radialGradient cx="0" cy="0" gradientTransform="matrix(0.004, 0.0, 0.0, 0.004, -11.15, -38.35)" gradientUnits="userSpaceOnUse" id="gradient24" r="819.2" spreadMethod="pad">
      <stop offset="0.0" stop-color="#ffee88"/>
      <stop offset="1.0" stop-color="#956c3e"/>
    </radialGradient>
    <radialGradient cx="0" cy="0" gradientTransform="matrix(0.0109, 0.0, 0.0, 0.0109, -2.85, -12.6)" gradientUnits="userSpaceOnUse" id="gradient25" r="819.2" spreadMethod="pad">
      <stop offset="0.0" stop-color="#39436c"/>
      <stop offset="1.0" stop-color="#1f253c"/>
    </radialGradient>
    <radialGradient cx="0" cy="0" gradientTransform="matrix(0.0104, 0.0, 0.0, 0.0104, -3.3, -8.5)" gradientUnits="userSpaceOnUse" id="gradient26" r="819.2" spreadMethod="pad">
      <stop offset="0.0" stop-color="#39446c"/>
      <stop offset="1.0" stop-color="#20263d"/>
    </radialGradient>
    <radialGradient cx="0" cy="0" gradientTransform="matrix(0.0042, 0.0, 0.0, 0.0042, -6.15, -3.0)" gradientUnits="userSpaceOnUse" id="gradient27" r="819.2" spreadMethod="pad">
      <stop offset="0.0" stop-color="#ffb700"/>
      <stop offset="1.0" stop-color="#aa5500"/>
    </radialGradient>
    <radialGradient cx="0" cy="0" gradientTransform="matrix(0.0017, 0.0, 0.0, 0.0017, -5.75, -2.4)" gradientUnits="userSpaceOnUse" id="gradient28" r="819.2" spreadMethod="pad">
      <stop offset="0.0" stop-color="#585050"/>
      <stop offset="1.0" stop-color="#4c4545"/>
    </radialGradient>
    <radialGradient cx="0" cy="0" gradientTransform="matrix(0.0092, 0.0, 0.0, 0.0092, -2.25, -17.85)" gradientUnits="userSpaceOnUse" id="gradient29" r="819.2" spreadMethod="pad">
      <stop offset="0.0" stop-color="#3c4771"/>
      <stop offset="1.0" stop-color="#21273f"/>
    </radialGradient>
    <radialGradient cx="0" cy="0" gradientTransform="matrix(0.0028, 0.0, 0.0, 0.0028, -9.1, -34.15)" gradientUnits="userSpaceOnUse" id="gradient30" r="819.2" spreadMethod="pad">
      <stop offset="0.0" stop-color="#3d382d"/>
      <stop offset="1.0" stop-color="#2f2b22"/>
    </radialGradient>
    <radialGradient cx="0" cy="0" gradientTransform="matrix(0.002, 0.0, 0.0, 0.002, -10.7, -35.75)" gradientUnits="userSpaceOnUse" id="gradient31" r="819.2" spreadMethod="pad">
      <stop offset="0.0" stop-color="#ff9e00"/>
      <stop offset="1.0" stop-color="#af5800"/>
    </radialGradient>
    <radialGradient cx="0" cy="0" gradientTransform="matrix(0.0201, 0.0, 0.0, 0.0201, -9.4, -25.0)" gradientUnits="userSpaceOnUse" id="gradient32" r="819.2" spreadMethod="pad">
      <stop offset="0.0" stop-color="#342f26"/>
      <stop offset="1.0" stop-color="#0c0b09"/>
    </radialGradient>
    <radialGradient cx="0" cy="0" gradientTransform="matrix(0.0029, 0.0, 0.0, 0.0029, 9.05, -38.5)" gradientUnits="userSpaceOnUse" id="gradient33" r="819.2" spreadMethod="pad">
      <stop offset="0.0" stop-color="#6b6262"/>
      <stop offset="1.0" stop-color="#544d4d"/>
    </radialGradient>
    <radialGradient cx="0" cy="0" gradientTransform="matrix(0.0093, 0.0, 0.0, 0.0093, 5.95, -36.2)" gradientUnits="userSpaceOnUse" id="gradient34" r="819.2" spreadMethod="pad">
      <stop offset="0.0" stop-color="#ffd77b"/>
      <stop offset="1.0" stop-color="#be894e"/>
    </radialGradient>
    <radialGradient cx="0" cy="0" gradientTransform="matrix(0.0565, 0.0, 0.0, 0.0565, 2.65, -38.4)" gradientUnits="userSpaceOnUse" id="gradient35" r="819.2" spreadMethod="pad">
      <stop offset="0.0" stop-color="#564d3e"/>
      <stop offset="1.0" stop-color="#383329"/>
    </radialGradient>
    <radialGradient cx="0" cy="0" gradientTransform="matrix(0.0044, 0.0, 0.0, 0.0044, -11.05, -35.4)" gradientUnits="userSpaceOnUse" id="gradient36" r="819.2" spreadMethod="pad">
      <stop offset="0.0" stop-color="#ffffff"/>
      <stop offset="1.0" stop-color="#7c7c7c"/>
    </radialGradient>
    <radialGradient cx="0" cy="0" gradientTransform="matrix(0.0116, 0.0, 0.0, 0.0116, -0.05, -31.65)" gradientUnits="userSpaceOnUse" id="gradient37" r="819.2" spreadMethod="pad">
      <stop offset="0.0" stop-color="#ffda00"/>
      <stop offset="1.0" stop-color="#fa9700"/>
    </radialGradient>
    <radialGradient cx="0" cy="0" gradientTransform="matrix(0.0092, 0.0, 0.0, 0.0092, 3.25, -25.55)" gradientUnits="userSpaceOnUse" id="gradient38" r="819.2" spreadMethod="pad">
      <stop offset="0.0" stop-color="#404c79"/>
      <stop offset="1.0" stop-color="#232942"/>
    </radialGradient>
    <radialGradient cx="0" cy="0" gradientTransform="matrix(0.0137, 0.0, 0.0, 0.0137, 3.3, -20.4)" gradientUnits="userSpaceOnUse" id="gradient39" r="819.2" spreadMethod="pad">
      <stop offset="0.0" stop-color="#343e63"/>
      <stop offset="1.0" stop-color="#282f4d"/>
    </radialGradient>
    <radialGradient cx="0" cy="0" gradientTransform="matrix(0.0127, 0.0, 0.0, 0.0127, 7.15, -14.6)" gradientUnits="userSpaceOnUse" id="gradient40" r="819.2" spreadMethod="pad">
      <stop offset="0.0" stop-color="#414d7b"/>
      <stop offset="1.0" stop-color="#1f253c"/>
    </radialGradient>
    <radialGradient cx="0" cy="0" gradientTransform="matrix(0.0037, 0.0, 0.0, 0.0037, 13.35, -17.75)" gradientUnits="userSpaceOnUse" id="gradient41" r="819.2" spreadMethod="pad">
      <stop offset="0.0" stop-color="#ffed88"/>
      <stop offset="1.0" stop-color="#bb874d"/>
    </radialGradient>
    <radialGradient cx="0" cy="0" gradientTransform="matrix(0.0083, 0.0, 0.0, 0.0083, 10.6, -23.1)" gradientUnits="userSpaceOnUse" id="gradient42" r="819.2" spreadMethod="pad">
      <stop offset="0.0" stop-color="#615746"/>
      <stop offset="1.0" stop-color="#28241d"/>
    </radialGradient>
    <radialGradient cx="0" cy="0" gradientTransform="matrix(0.0091, 0.0, 0.0, 0.0091, 5.0, -22.85)" gradientUnits="userSpaceOnUse" id="gradient43" r="819.2" spreadMethod="pad">
      <stop offset="0.0" stop-color="#404c7a"/>
      <stop offset="1.0" stop-color="#242b45"/>
    </radialGradient>
    <radialGradient cx="0" cy="0" gradientTransform="matrix(0.0048, 0.0, 0.0, 0.0048, 7.75, -22.3)" gradientUnits="userSpaceOnUse" id="gradient44" r="819.2" spreadMethod="pad">
      <stop offset="0.0" stop-color="#f4f4f4"/>
      <stop offset="1.0" stop-color="#919191"/>
    </radialGradient>
    <radialGradient cx="0" cy="0" gradientTransform="matrix(0.0036, 0.0, 0.0, 0.0036, 7.45, -23.75)" gradientUnits="userSpaceOnUse" id="gradient45" r="819.2" spreadMethod="pad">
      <stop offset="0.0" stop-color="#ffb600"/>
      <stop offset="1.0" stop-color="#e17500"/>
    </radialGradient>
    <radialGradient cx="0" cy="0" gradientTransform="matrix(0.0087, 0.0, 0.0, 0.0087, 6.75, -28.65)" gradientUnits="userSpaceOnUse" id="gradient46" r="819.2" spreadMethod="pad">
      <stop offset="0.0" stop-color="#ffbc6b"/>
      <stop offset="1.0" stop-color="#aa7b46"/>
    </radialGradient>
    <radialGradient cx="0" cy="0" gradientTransform="matrix(0.0086, 0.0, 0.0, 0.0086, 7.6, -29.6)" gradientUnits="userSpaceOnUse" id="gradient47" r="819.2" spreadMethod="pad">
      <stop offset="0.0" stop-color="#ffda7d"/>
      <stop offset="1.0" stop-color="#986e3f"/>
    </radialGradient>
    <radialGradient cx="0" cy="0" gradientTransform="matrix(0.0055, 0.0, 0.0, 0.0055, 8.0, -31.35)" gradientUnits="userSpaceOnUse" id="gradient48" r="819.2" spreadMethod="pad">
      <stop offset="0.0" stop-color="#ffc700"/>
      <stop offset="1.0" stop-color="#ff8100"/>
    </radialGradient>
    <radialGradient cx="0" cy="0" gradientTransform="matrix(0.0058, 0.0, 0.0, 0.0058, 6.5, -29.1)" gradientUnits="userSpaceOnUse" id="gradient49" r="819.2" spreadMethod="pad">
      <stop offset="0.0" stop-color="#ffd57a"/>
      <stop offset="1.0" stop-color="#b18049"/>
    </radialGradient>
    <radialGradient cx="0" cy="0" gradientTransform="matrix(0.0048, 0.0, 0.0, 0.0048, 6.5, -26.1)" gradientUnits="userSpaceOnUse" id="gradient50" r="819.2" spreadMethod="pad">
      <stop offset="0.0" stop-color="#ffd77b"/>
      <stop offset="1.0" stop-color="#946b3d"/>
    </radialGradient>
    <radialGradient cx="0" cy="0" gradientTransform="matrix(0.0028, 0.0, 0.0, 0.0028, 6.6, -22.45)" gradientUnits="userSpaceOnUse" id="gradient51" r="819.2" spreadMethod="pad">
      <stop offset="0.0" stop-color="#261c10"/>
      <stop offset="1.0" stop-color="#261c10"/>
    </radialGradient>
    <radialGradient cx="0" cy="0" gradientTransform="matrix(0.0093, 0.0, 0.0, 0.0093, 4.75, -23.05)" gradientUnits="userSpaceOnUse" id="gradient52" r="819.2" spreadMethod="pad">
      <stop offset="0.0" stop-color="#ffd800"/>
      <stop offset="1.0" stop-color="#d47800"/>
    </radialGradient>
    <radialGradient cx="0" cy="0" gradientTransform="matrix(7.0E-4, 0.0, 0.0, 7.0E-4, 13.3, -20.3)" gradientUnits="userSpaceOnUse" id="gradient53" r="819.2" spreadMethod="pad">
      <stop offset="0.0" stop-color="#d49958"/>
      <stop offset="1.0" stop-color="#9a6f3f"/>
    </radialGradient>
    <radialGradient cx="0" cy="0" gradientTransform="matrix(0.0102, 0.0, 0.0, 0.0102, 6.15, -6.45)" gradientUnits="userSpaceOnUse" id="gradient54" r="819.2" spreadMethod="pad">
      <stop offset="0.0" stop-color="#3c4872"/>
      <stop offset="1.0" stop-color="#1c2135"/>
    </radialGradient>
    <radialGradient cx="0" cy="0" gradientTransform="matrix(0.0105, 0.0, 0.0, 0.0105, 6.8, -1.35)" gradientUnits="userSpaceOnUse" id="gradient55" r="819.2" spreadMethod="pad">
      <stop offset="0.0" stop-color="#3d4873"/>
      <stop offset="1.0" stop-color="#181d2e"/>
    </radialGradient>
    <radialGradient cx="0" cy="0" gradientTransform="matrix(0.0053, 0.0, 0.0, 0.0053, 2.75, 5.35)" gradientUnits="userSpaceOnUse" id="gradient56" r="819.2" spreadMethod="pad">
      <stop offset="0.0" stop-color="#141725"/>
      <stop offset="1.0" stop-color="#090a10"/>
    </radialGradient>
    <radialGradient cx="0" cy="0" gradientTransform="matrix(0.0059, 0.0, 0.0, 0.0059, 7.6, 6.35)" gradientUnits="userSpaceOnUse" id="gradient57" r="819.2" spreadMethod="pad">
      <stop offset="0.0" stop-color="#ffe600"/>
      <stop offset="1.0" stop-color="#da6d00"/>
    </radialGradient>
    <radialGradient cx="0" cy="0" gradientTransform="matrix(0.008, 0.0, 0.0, 0.008, 10.85, 6.35)" gradientUnits="userSpaceOnUse" id="gradient58" r="819.2" spreadMethod="pad">
      <stop offset="0.0" stop-color="#958888"/>
      <stop offset="1.0" stop-color="#3d3737"/>
    </radialGradient>
    <radialGradient cx="0" cy="0" gradientTransform="matrix(0.0072, 0.0, 0.0, 0.0072, 10.5, 6.1)" gradientUnits="userSpaceOnUse" id="gradient59" r="819.2" spreadMethod="pad">
      <stop offset="0.0" stop-color="#655b4a"/>
      <stop offset="1.0" stop-color="#4a4335"/>
    </radialGradient>
  </defs>
</svg>
