<?xml version="1.0" encoding="UTF-8" standalone="no"?>
<svg xmlns:ffdec="https://www.free-decompiler.com/flash" xmlns:xlink="http://www.w3.org/1999/xlink" ffdec:objectType="shape" height="70.25px" width="40.35px" xmlns="http://www.w3.org/2000/svg">
  <g transform="matrix(1.0, 0.0, 0.0, 1.0, 19.8, 54.1)">
    <path d="M-3.25 -50.4 Q-1.45 -54.4 3.4 -54.1 L4.8 -53.4 6.75 -51.6 7.15 -51.05 7.75 -50.15 Q8.45 -46.8 4.5 -45.75 -3.1 -44.55 -3.3 -49.35 L-3.25 -50.2 -3.25 -50.4" fill="url(#gradient0)" fill-rule="evenodd" stroke="none"/>
    <path d="M-8.15 -46.75 L-7.15 -48.45 Q-4.6 -50.4 -3.25 -50.4 L-3.25 -50.2 -5.0 -48.7 -5.75 -47.15 -7.7 -46.7 -8.15 -46.75" fill="url(#gradient1)" fill-rule="evenodd" stroke="none"/>
    <path d="M-8.15 -46.65 L-8.15 -46.75 -7.7 -46.7 -8.15 -46.65" fill="url(#gradient2)" fill-rule="evenodd" stroke="none"/>
    <path d="M-10.05 -43.3 L-9.35 -45.0 -8.15 -46.65 -7.7 -46.7 -5.75 -47.15 -5.4 -46.3 -5.25 -44.6 Q-4.25 -42.4 -3.7 -42.2 -3.1 -39.8 -1.5 -36.5 L-4.2 -36.85 Q-6.35 -37.35 -7.5 -38.05 L-8.95 -40.15 Q-9.15 -41.05 -9.95 -42.1 L-9.95 -42.2 -10.05 -42.7 -10.05 -43.3 M6.65 -39.8 L6.95 -40.6 7.3 -42.2 7.25 -43.2 7.55 -43.7 8.4 -44.85 8.4 -44.65 8.4 -43.3 8.25 -42.7 8.05 -42.2 7.9 -41.6 6.65 -39.8" fill="url(#gradient3)" fill-rule="evenodd" stroke="none"/>
    <path d="M-5.75 -47.15 L-5.0 -48.7 -3.25 -50.2 -3.3 -49.35 -3.55 -49.0 -3.6 -47.8 -3.45 -46.45 -4.05 -46.15 -5.4 -46.3 -5.75 -47.15" fill="url(#gradient4)" fill-rule="evenodd" stroke="none"/>
    <path d="M6.75 -51.6 L6.75 -51.75 6.9 -51.7 7.15 -51.05 6.75 -51.6" fill="url(#gradient5)" fill-rule="evenodd" stroke="none"/>
    <path d="M7.75 -50.15 L8.25 -49.2 Q8.8 -46.85 4.2 -45.45 -0.35 -44.2 -3.6 -47.8 L-3.55 -49.0 -3.3 -49.35 Q-3.1 -44.55 4.5 -45.75 8.45 -46.8 7.75 -50.15" fill="url(#gradient6)" fill-rule="evenodd" stroke="none"/>
    <path d="M8.25 -49.2 L8.3 -49.05 8.45 -47.6 8.6 -45.85 8.4 -44.85 7.55 -43.7 6.45 -43.0 Q4.2 -42.05 2.85 -42.2 L0.4 -42.35 -0.95 -42.75 -1.0 -42.8 -1.05 -42.8 -1.1 -42.85 -1.15 -42.85 -1.2 -42.85 -1.3 -42.9 Q-3.1 -43.45 -3.45 -46.45 L-3.6 -47.8 Q-0.35 -44.2 4.2 -45.45 8.8 -46.85 8.25 -49.2" fill="url(#gradient7)" fill-rule="evenodd" stroke="none"/>
    <path d="M-5.4 -46.3 L-4.05 -46.15 -3.45 -46.45 Q-3.1 -43.45 -1.3 -42.9 L-1.2 -42.85 -1.15 -42.85 -1.1 -42.8 -1.05 -42.8 -1.0 -42.75 -0.95 -42.75 0.1 -42.2 2.15 -41.6 Q4.05 -41.3 5.95 -42.2 L7.1 -43.0 7.25 -43.2 7.3 -42.2 6.95 -40.6 6.65 -39.8 Q5.55 -36.8 2.15 -36.1 L0.5 -35.9 Q-0.95 -35.9 -1.5 -36.5 -3.1 -39.8 -3.7 -42.2 -4.25 -42.4 -5.25 -44.6 L-5.4 -46.3" fill="url(#gradient8)" fill-rule="evenodd" stroke="none"/>
    <path d="M9.55 -48.7 L10.0 -49.1 10.05 -48.5 Q11.0 -45.25 8.6 -45.85 L8.45 -47.6 9.55 -48.7" fill="url(#gradient9)" fill-rule="evenodd" stroke="none"/>
    <path d="M8.3 -49.05 L9.55 -48.7 8.45 -47.6 8.3 -49.05 M10.05 -48.5 L11.2 -47.8 11.85 -47.1 12.5 -46.25 12.95 -45.1 13.1 -43.25 12.7 -42.2 12.7 -42.55 11.95 -42.2 11.9 -42.15 11.7 -42.2 11.15 -42.5 Q11.5 -45.2 8.4 -44.65 L8.4 -44.85 8.6 -45.85 Q11.0 -45.25 10.05 -48.5" fill="url(#gradient10)" fill-rule="evenodd" stroke="none"/>
    <path d="M11.85 -47.1 Q12.95 -50.7 12.95 -45.1 L12.5 -46.25 11.85 -47.1" fill="url(#gradient11)" fill-rule="evenodd" stroke="none"/>
    <path d="M12.7 -42.2 L12.65 -41.6 11.65 -39.45 10.75 -38.6 9.6 -38.1 9.45 -38.1 9.6 -39.1 Q10.75 -39.5 11.9 -42.15 L11.95 -42.2 12.7 -42.55 12.7 -42.2" fill="url(#gradient12)" fill-rule="evenodd" stroke="none"/>
    <path d="M12.65 -41.6 L12.7 -41.2 12.65 -40.8 12.15 -39.9 11.65 -39.45 12.65 -41.6 M11.15 -42.5 L11.7 -42.2 11.9 -42.15 Q10.75 -39.5 9.6 -39.1 L9.5 -40.45 9.3 -41.05 11.15 -42.5" fill="url(#gradient13)" fill-rule="evenodd" stroke="none"/>
    <path d="M8.25 -42.7 L8.4 -43.3 8.4 -44.65 Q11.5 -45.2 11.15 -42.5 L9.3 -41.05 8.8 -41.55 8.55 -42.2 8.25 -42.7" fill="url(#gradient14)" fill-rule="evenodd" stroke="none"/>
    <path d="M-10.65 -42.15 L-10.05 -43.3 -10.05 -42.7 -10.45 -42.2 -10.55 -42.2 -10.6 -42.15 -10.65 -42.15" fill="url(#gradient15)" fill-rule="evenodd" stroke="none"/>
    <path d="M-7.35 -4.4 L-8.2 1.15 -9.15 2.45 -8.9 0.5 -8.0 -5.35 -8.25 -12.5 -8.3 -14.2 -8.35 -14.45 -8.3 -15.2 -7.8 -13.9 -7.05 -13.45 -7.2 -13.1 -7.2 -10.9 -7.2 -10.85 -7.2 -9.25 -7.05 -7.75 -7.05 -7.7 -7.0 -7.3 -7.0 -6.65 -7.35 -4.4 M-8.5 -16.4 L-8.9 -20.0 -8.9 -20.25 -8.8 -20.15 -8.2 -18.1 -8.35 -16.75 -8.35 -16.55 -8.35 -16.4 -8.45 -16.4 -8.5 -16.4 M-9.8 -26.9 L-10.45 -31.95 -9.4 -32.5 -8.95 -32.75 -8.2 -31.65 -6.0 -29.4 -6.1 -27.75 -6.2 -27.55 -6.55 -27.05 -7.3 -25.25 -7.55 -23.1 -7.8 -22.9 -7.85 -24.0 -8.15 -24.85 -7.95 -22.75 -8.5 -22.1 -8.9 -20.3 -9.8 -26.9 M-10.7 -42.05 L-10.65 -42.15 -10.6 -42.15 -10.65 -42.05 -10.7 -42.05" fill="url(#gradient16)" fill-rule="evenodd" stroke="none"/>
    <path d="M6.3 -34.05 L5.15 -31.15 5.05 -30.7 4.95 -30.35 4.55 -28.05 3.1 -26.3 2.6 -25.95 1.3 -27.2 1.05 -25.8 -0.3 -25.5 Q-3.65 -24.7 -6.0 -29.4 L-8.2 -31.65 -8.95 -32.75 -8.7 -32.85 Q-1.35 -27.45 1.9 -34.55 3.85 -32.8 6.3 -34.05 M-10.65 -42.05 L-10.6 -42.15 -10.55 -42.2 -10.45 -42.2 -10.05 -42.7 -9.95 -42.2 -9.95 -42.1 -10.65 -42.05" fill="url(#gradient17)" fill-rule="evenodd" stroke="none"/>
    <path d="M-1.5 -36.5 Q-0.95 -35.9 0.5 -35.9 L2.15 -36.1 2.15 -35.25 1.9 -34.55 Q-1.35 -27.45 -8.7 -32.85 L-8.75 -33.3 Q-7.75 -35.95 -7.5 -38.05 -6.35 -37.35 -4.2 -36.85 L-1.5 -36.5" fill="url(#gradient18)" fill-rule="evenodd" stroke="none"/>
    <path d="M-15.0 -39.0 L-14.85 -39.15 Q-12.95 -42.0 -10.7 -42.05 L-10.65 -42.05 -9.95 -42.1 Q-9.15 -41.05 -8.95 -40.15 L-7.5 -38.05 Q-7.75 -35.95 -8.75 -33.3 L-8.7 -32.85 -8.95 -32.75 -9.4 -32.5 Q-16.45 -32.4 -15.0 -39.0" fill="url(#gradient19)" fill-rule="evenodd" stroke="none"/>
    <path d="M7.25 -43.2 L7.1 -43.0 5.95 -42.2 Q4.05 -41.3 2.15 -41.6 L0.1 -42.2 -0.95 -42.75 0.4 -42.35 2.85 -42.2 Q4.2 -42.05 6.45 -43.0 L7.55 -43.7 7.25 -43.2 M-1.0 -42.75 L-1.05 -42.8 -1.0 -42.8 -1.0 -42.75 M-1.1 -42.8 L-1.15 -42.85 -1.1 -42.85 -1.1 -42.8" fill="url(#gradient20)" fill-rule="evenodd" stroke="none"/>
    <path d="M-0.95 -42.75 L-1.0 -42.75 -1.0 -42.8 -0.95 -42.75 M-1.05 -42.8 L-1.1 -42.8 -1.1 -42.85 -1.05 -42.8" fill="url(#gradient21)" fill-rule="evenodd" stroke="none"/>
    <path d="M8.15 -35.6 L7.5 -34.9 6.3 -34.05 Q3.85 -32.8 1.9 -34.55 L2.15 -35.25 2.15 -36.1 Q5.55 -36.8 6.65 -39.8 L7.9 -41.6 8.05 -42.2 8.25 -42.7 8.55 -42.2 8.8 -41.55 9.3 -41.05 9.5 -40.45 9.6 -39.1 9.45 -38.1 9.2 -37.35 8.15 -35.6" fill="url(#gradient22)" fill-rule="evenodd" stroke="none"/>
    <path d="M14.25 -38.05 L14.9 -36.15 15.1 -33.65 Q14.65 -29.9 11.2 -32.5 L10.7 -34.95 Q9.6 -37.2 9.6 -38.1 L10.75 -38.6 11.65 -39.45 12.15 -39.9 12.65 -40.8 13.75 -39.25 14.25 -38.05" fill="url(#gradient23)" fill-rule="evenodd" stroke="none"/>
    <path d="M12.7 -41.2 L13.6 -39.8 14.25 -38.05 13.75 -39.25 12.65 -40.8 12.7 -41.2" fill="url(#gradient24)" fill-rule="evenodd" stroke="none"/>
    <path d="M-18.25 -32.1 L-18.9 -34.2 -19.1 -37.15 Q-18.25 -42.15 -17.75 -36.4 -18.2 -36.05 -18.4 -34.1 L-18.25 -32.2 -18.25 -32.1" fill="url(#gradient25)" fill-rule="evenodd" stroke="none"/>
    <path d="M-17.75 -36.4 L-17.05 -37.3 Q-15.95 -38.0 -15.75 -37.85 -16.75 -36.4 -14.35 -33.1 L-15.45 -30.9 -15.75 -30.7 -15.8 -30.45 -16.6 -30.15 -17.1 -30.35 -17.3 -30.5 -17.7 -31.05 -18.05 -31.95 -18.25 -32.2 -18.4 -34.1 Q-18.2 -36.05 -17.75 -36.4" fill="url(#gradient26)" fill-rule="evenodd" stroke="none"/>
    <path d="M-10.45 -31.95 L-11.05 -31.85 Q-12.8 -31.45 -14.35 -33.1 -16.75 -36.4 -15.75 -37.85 L-15.0 -39.0 Q-16.45 -32.4 -9.4 -32.5 L-10.45 -31.95" fill="url(#gradient27)" fill-rule="evenodd" stroke="none"/>
    <path d="M-18.55 -31.85 L-18.5 -31.95 -18.25 -32.1 -18.05 -31.95 -17.7 -31.05 -18.05 -31.2 -18.55 -31.8 -18.55 -31.85" fill="url(#gradient28)" fill-rule="evenodd" stroke="none"/>
    <path d="M-18.25 -32.2 L-18.05 -31.95 -18.25 -32.1 -18.25 -32.2" fill="url(#gradient29)" fill-rule="evenodd" stroke="none"/>
    <path d="M10.7 -32.75 L9.2 -34.05 8.15 -35.6 9.2 -37.35 9.45 -38.1 9.6 -38.1 Q9.6 -37.2 10.7 -34.95 L11.2 -32.5 10.7 -32.75" fill="url(#gradient30)" fill-rule="evenodd" stroke="none"/>
    <path d="M15.1 -33.65 L16.25 -32.45 17.05 -31.15 17.8 -26.1 18.3 -24.85 17.0 -24.6 15.95 -24.7 15.45 -24.5 15.15 -24.05 11.45 -29.7 Q10.2 -32.4 10.7 -32.75 L11.2 -32.5 Q14.65 -29.9 15.1 -33.65" fill="url(#gradient31)" fill-rule="evenodd" stroke="none"/>
    <path d="M-11.05 -31.85 Q-11.4 -29.5 -13.95 -28.4 -15.85 -27.55 -17.3 -30.35 L-17.3 -30.5 -17.1 -30.35 -16.6 -30.15 -15.8 -30.45 -15.75 -30.7 -15.45 -30.9 -14.35 -33.1 Q-12.8 -31.45 -11.05 -31.85" fill="url(#gradient32)" fill-rule="evenodd" stroke="none"/>
    <path d="M-13.95 -28.4 L-14.0 -28.1 -15.1 -27.0 -15.75 -25.45 -15.75 -25.35 -16.0 -24.6 -16.45 -24.05 Q-18.25 -22.4 -18.9 -24.85 L-19.7 -27.25 -19.8 -29.55 -19.75 -29.6 -19.75 -29.65 -19.7 -29.7 -19.05 -31.3 -18.65 -31.65 -18.65 -31.7 -18.55 -31.8 -18.05 -31.2 -17.7 -31.05 -17.3 -30.5 -17.3 -30.35 Q-15.85 -27.55 -13.95 -28.4" fill="url(#gradient33)" fill-rule="evenodd" stroke="none"/>
    <path d="M5.05 -30.7 L5.4 -30.35 6.65 -28.35 Q6.8 -26.8 6.5 -25.5 5.35 -23.95 5.6 -23.3 L4.65 -22.45 4.4 -22.65 4.15 -22.65 3.45 -22.1 2.75 -21.85 0.95 -21.8 0.3 -21.55 Q0.0 -22.9 -3.7 -22.25 L-4.25 -22.5 -4.25 -22.75 -4.85 -22.85 -4.95 -22.9 Q-4.95 -23.45 -6.1 -25.2 L-6.1 -27.6 -6.1 -27.75 -6.0 -29.4 Q-3.65 -24.7 -0.3 -25.5 L1.05 -25.8 1.3 -27.2 2.6 -25.95 3.1 -26.3 4.55 -28.05 4.95 -30.35 5.05 -30.7" fill="url(#gradient34)" fill-rule="evenodd" stroke="none"/>
    <path d="M-6.1 -27.75 L-6.1 -27.6 -6.2 -27.55 -6.1 -27.75" fill="url(#gradient35)" fill-rule="evenodd" stroke="none"/>
    <path d="M-6.1 -27.6 L-6.1 -25.2 Q-4.95 -23.45 -4.95 -22.9 L-5.9 -23.4 -7.55 -23.1 -7.3 -25.25 -6.55 -27.05 -6.2 -27.55 -6.1 -27.6 M-4.85 -22.85 L-4.25 -22.75 -4.25 -22.5 -4.85 -22.85" fill="url(#gradient36)" fill-rule="evenodd" stroke="none"/>
    <path d="M-19.75 -29.7 L-19.3 -31.0 -18.9 -31.6 -18.9 -31.65 -18.75 -31.7 -18.6 -31.85 -18.55 -31.85 -18.55 -31.8 -18.65 -31.7 -18.65 -31.65 -19.05 -31.3 -19.7 -29.7 -19.75 -29.7" fill="url(#gradient37)" fill-rule="evenodd" stroke="none"/>
    <path d="M-19.75 -29.65 L-19.75 -29.7 -19.7 -29.7 -19.75 -29.65" fill="url(#gradient38)" fill-rule="evenodd" stroke="none"/>
    <path d="M5.15 -31.15 L5.55 -31.0 6.05 -30.35 7.5 -27.65 Q7.75 -27.0 8.55 -27.0 9.2 -24.9 9.75 -21.2 L9.35 -20.45 9.05 -20.1 8.8 -20.05 8.55 -20.0 8.3 -20.4 8.05 -21.95 Q7.75 -21.9 6.5 -25.5 6.8 -26.8 6.65 -28.35 L5.4 -30.35 5.05 -30.7 5.15 -31.15" fill="url(#gradient39)" fill-rule="evenodd" stroke="none"/>
    <path d="M5.55 -31.0 Q11.0 -24.95 9.75 -21.2 9.2 -24.9 8.55 -27.0 7.75 -27.0 7.5 -27.65 L6.05 -30.35 5.55 -31.0" fill="url(#gradient40)" fill-rule="evenodd" stroke="none"/>
    <path d="M8.8 -20.05 L8.7 -18.95 8.65 -18.5 Q8.8 -15.65 5.05 -14.0 L5.45 -18.5 5.15 -20.95 Q4.7 -21.2 4.65 -22.45 L5.6 -23.3 Q5.35 -23.95 6.5 -25.5 7.75 -21.9 8.05 -21.95 L8.3 -20.4 8.55 -20.0 8.8 -20.05" fill="url(#gradient41)" fill-rule="evenodd" stroke="none"/>
    <path d="M0.3 -21.55 L0.95 -21.8 2.75 -21.85 3.45 -22.1 4.15 -22.65 4.4 -22.65 4.65 -22.45 Q4.7 -21.2 5.15 -20.95 L5.45 -18.5 5.05 -14.0 5.05 -13.8 Q5.25 -8.95 -0.5 -8.75 -5.8 -8.15 -6.85 -12.1 L-7.0 -13.4 -6.15 -12.9 Q-4.05 -13.5 -2.15 -12.15 L-0.35 -12.45 Q1.9 -14.05 0.95 -18.5 L1.0 -19.5 0.3 -21.55" fill="url(#gradient42)" fill-rule="evenodd" stroke="none"/>
    <path d="M-4.95 -22.9 L-4.85 -22.85 -4.25 -22.5 -3.7 -22.25 Q0.0 -22.9 0.3 -21.55 L1.0 -19.5 0.95 -18.5 Q1.9 -14.05 -0.35 -12.45 L-0.7 -12.7 Q0.3 -12.6 -0.4 -18.5 L-1.2 -20.45 -1.5 -20.6 -2.8 -20.4 -2.4 -21.6 -2.6 -21.7 -3.8 -21.3 -6.55 -22.2 Q-8.3 -21.35 -8.3 -21.55 L-8.8 -20.15 -8.9 -20.25 -8.9 -20.3 -8.5 -22.1 -7.95 -22.75 -7.8 -22.9 -7.55 -23.1 -5.9 -23.4 -4.95 -22.9 M-8.35 -16.75 L-8.25 -16.5 -8.35 -16.55 -8.35 -16.75 M-8.35 -16.4 L-8.45 -16.25 -8.45 -16.4 -8.35 -16.4" fill="url(#gradient43)" fill-rule="evenodd" stroke="none"/>
    <path d="M14.9 -23.05 L15.15 -24.05 15.45 -24.5 15.95 -24.7 17.0 -24.6 Q18.3 -21.6 17.85 -20.25 16.1 -18.8 14.9 -23.05" fill="url(#gradient44)" fill-rule="evenodd" stroke="none"/>
    <path d="M18.3 -24.85 Q22.35 -22.35 19.05 -19.5 14.65 -18.3 14.9 -23.05 16.1 -18.8 17.85 -20.25 18.3 -21.6 17.0 -24.6 L18.3 -24.85" fill="url(#gradient45)" fill-rule="evenodd" stroke="none"/>
    <path d="M-15.75 -25.45 L-15.65 -25.35 -15.75 -25.35 -15.75 -25.45 M-14.65 -21.1 Q-16.0 -19.25 -18.7 -20.65 -20.6 -22.25 -18.9 -24.85 -18.25 -22.4 -16.45 -24.05 L-15.15 -22.65 Q-14.85 -22.6 -14.65 -21.1" fill="url(#gradient46)" fill-rule="evenodd" stroke="none"/>
    <path d="M-15.65 -25.35 Q-12.2 -23.05 -14.65 -21.1 -14.85 -22.6 -15.15 -22.65 L-16.45 -24.05 -16.0 -24.6 -15.75 -25.35 -15.65 -25.35" fill="url(#gradient47)" fill-rule="evenodd" stroke="none"/>
    <path d="M-8.9 -20.0 Q-9.6 -20.2 -10.55 -16.4 L-11.25 -15.75 -10.2 -21.85 -9.8 -26.9 -8.9 -20.3 -8.9 -20.25 -8.9 -20.0" fill="url(#gradient48)" fill-rule="evenodd" stroke="none"/>
    <path d="M-7.95 -22.75 L-8.15 -24.85 -7.85 -24.0 -7.8 -22.9 -7.95 -22.75" fill="url(#gradient49)" fill-rule="evenodd" stroke="none"/>
    <path d="M8.7 -18.95 Q9.9 -16.25 7.6 -11.0 L6.45 -9.85 5.8 -12.25 5.05 -13.8 5.05 -14.0 Q8.8 -15.65 8.65 -18.5 L8.7 -18.95" fill="url(#gradient50)" fill-rule="evenodd" stroke="none"/>
    <path d="M-8.8 -20.15 L-8.3 -21.55 Q-8.3 -21.35 -6.55 -22.2 L-3.8 -21.3 -2.6 -21.7 -2.4 -21.6 -2.8 -20.4 -1.5 -20.6 -1.2 -20.45 -0.4 -18.5 Q0.3 -12.6 -0.7 -12.7 L-0.35 -12.45 -2.15 -12.15 Q-4.05 -13.5 -6.15 -12.9 L-7.0 -13.4 -7.05 -13.45 -7.8 -13.9 -8.3 -15.2 -8.5 -15.5 -8.45 -16.25 -8.35 -16.4 -8.35 -16.55 -8.25 -16.5 -8.35 -16.75 -8.2 -18.1 -8.8 -20.15" fill="url(#gradient51)" fill-rule="evenodd" stroke="none"/>
    <path d="M-12.05 -10.75 Q-11.7 -14.7 -8.5 -16.4 L-8.45 -16.4 -8.45 -16.25 -8.5 -15.5 -9.1 -13.75 -11.75 -10.95 -12.05 -10.75" fill="url(#gradient52)" fill-rule="evenodd" stroke="none"/>
    <path d="M-10.6 -8.25 L-11.75 -6.65 Q-12.3 -8.25 -12.05 -10.75 L-11.75 -10.95 -9.1 -13.75 -8.5 -15.5 -8.3 -15.2 -8.35 -14.45 -8.5 -14.05 -9.8 -9.5 -10.6 -8.25" fill="url(#gradient53)" fill-rule="evenodd" stroke="none"/>
    <path d="M-8.5 -14.05 L-8.35 -14.45 -8.3 -14.2 -8.5 -14.05" fill="url(#gradient54)" fill-rule="evenodd" stroke="none"/>
    <path d="M-6.25 -4.15 L-7.35 -4.4 -7.0 -6.65 -7.0 -7.3 -6.2 -4.7 -6.25 -4.15 M-9.65 -6.35 L-10.05 -6.8 -10.6 -8.25 -9.8 -9.5 -8.5 -14.05 -8.3 -14.2 -8.25 -12.5 -9.55 -6.65 -9.65 -6.35" fill="url(#gradient55)" fill-rule="evenodd" stroke="none"/>
    <path d="M-8.9 0.5 L-10.85 -0.35 -11.3 -0.9 -9.65 -6.35 -9.55 -6.65 -8.25 -12.5 -8.0 -5.35 -8.9 0.5" fill="url(#gradient56)" fill-rule="evenodd" stroke="none"/>
    <path d="M5.05 -13.8 L5.8 -12.25 6.45 -9.85 6.6 -9.0 6.6 -7.45 6.35 -6.65 Q3.9 -2.3 -1.05 -1.85 -5.5 -2.05 -6.2 -4.7 L-7.0 -7.3 -7.05 -7.7 -7.05 -7.75 -7.2 -9.25 -7.2 -10.85 -7.15 -10.9 -6.85 -12.1 Q-5.8 -8.15 -0.5 -8.75 5.25 -8.95 5.05 -13.8" fill="url(#gradient57)" fill-rule="evenodd" stroke="none"/>
    <path d="M7.6 -11.0 L7.4 -9.9 6.7 -8.95 6.6 -9.0 6.45 -9.85 7.6 -11.0 M-7.05 -13.45 L-7.0 -13.4 -6.85 -12.1 -7.15 -10.9 -7.2 -10.9 -7.2 -13.1 -7.05 -13.45" fill="url(#gradient58)" fill-rule="evenodd" stroke="none"/>
    <path d="M6.7 -8.95 Q7.8 -8.3 8.75 -2.7 L8.8 -2.55 Q10.05 1.2 2.85 4.65 -1.9 5.95 -5.0 1.55 L-5.75 -0.45 -6.3 -3.65 -6.25 -4.15 -6.2 -4.7 Q-5.5 -2.05 -1.05 -1.85 3.9 -2.3 6.35 -6.65 L6.6 -7.45 6.6 -9.0 6.7 -8.95" fill="url(#gradient59)" fill-rule="evenodd" stroke="none"/>
    <path d="M-7.2 -10.9 L-7.15 -10.9 -7.2 -10.85 -7.2 -10.9" fill="url(#gradient60)" fill-rule="evenodd" stroke="none"/>
    <path d="M8.8 -2.55 Q11.9 5.7 8.25 9.25 L6.5 10.95 4.7 11.55 3.55 11.8 Q0.4 10.05 -1.2 9.9 -4.2 9.75 -5.0 1.55 -1.9 5.95 2.85 4.65 10.05 1.2 8.8 -2.55" fill="url(#gradient61)" fill-rule="evenodd" stroke="none"/>
    <path d="M1.6 12.0 Q-0.8 11.1 -1.2 9.9 0.4 10.05 3.55 11.8 L4.7 11.55 4.0 11.95 2.8 12.2 1.6 12.0" fill="url(#gradient62)" fill-rule="evenodd" stroke="none"/>
    <path d="M10.2 12.05 L10.6 12.65 10.5 14.05 10.35 14.15 7.95 15.8 Q7.55 17.4 1.6 12.0 L2.8 12.2 Q6.3 16.1 7.45 15.1 L8.8 14.4 9.85 13.5 10.1 13.25 10.2 12.05" fill="url(#gradient63)" fill-rule="evenodd" stroke="none"/>
    <path d="M10.35 14.15 L9.1 15.3 7.95 15.8 10.35 14.15" fill="url(#gradient64)" fill-rule="evenodd" stroke="none"/>
    <path d="M8.25 9.25 L9.45 10.55 10.2 11.8 10.2 12.05 10.1 13.25 9.85 13.5 7.45 15.1 Q6.3 16.1 2.8 12.2 L4.0 11.95 4.7 11.55 6.5 10.95 8.25 9.25" fill="url(#gradient65)" fill-rule="evenodd" stroke="none"/>
    <path d="M9.85 13.5 L8.8 14.4 7.45 15.1 9.85 13.5" fill="url(#gradient66)" fill-rule="evenodd" stroke="none"/>
  </g>
  <defs>
    <radialGradient cx="0" cy="0" gradientTransform="matrix(0.0079, 0.0, 0.0, 0.0079, 2.5, -47.9)" gradientUnits="userSpaceOnUse" id="gradient0" r="819.2" spreadMethod="pad">
      <stop offset="0.0" stop-color="#5e5544"/>
      <stop offset="1.0" stop-color="#3a342a"/>
    </radialGradient>
    <radialGradient cx="0" cy="0" gradientTransform="matrix(0.0053, 0.0, 0.0, 0.0053, -4.1, -48.2)" gradientUnits="userSpaceOnUse" id="gradient1" r="819.2" spreadMethod="pad">
      <stop offset="0.0" stop-color="#ffc600"/>
      <stop offset="1.0" stop-color="#e87500"/>
    </radialGradient>
    <radialGradient cx="0" cy="0" gradientTransform="matrix(0.0016, 0.0, 0.0, 0.0016, -7.2, -46.75)" gradientUnits="userSpaceOnUse" id="gradient2" r="819.2" spreadMethod="pad">
      <stop offset="0.0" stop-color="#ff8800"/>
      <stop offset="1.0" stop-color="#ff8800"/>
    </radialGradient>
    <radialGradient cx="0" cy="0" gradientTransform="matrix(0.0122, 0.0, 0.0, 0.0122, -0.75, -41.75)" gradientUnits="userSpaceOnUse" id="gradient3" r="819.2" spreadMethod="pad">
      <stop offset="0.0" stop-color="#605746"/>
      <stop offset="1.0" stop-color="#3f392e"/>
    </radialGradient>
    <radialGradient cx="0" cy="0" gradientTransform="matrix(0.0041, 0.0, 0.0, 0.0041, -2.45, -47.85)" gradientUnits="userSpaceOnUse" id="gradient4" r="819.2" spreadMethod="pad">
      <stop offset="0.0" stop-color="#ffc600"/>
      <stop offset="1.0" stop-color="#fb8200"/>
    </radialGradient>
    <radialGradient cx="0" cy="0" gradientTransform="matrix(0.0039, 0.0, 0.0, 0.0039, 6.95, -50.8)" gradientUnits="userSpaceOnUse" id="gradient5" r="819.2" spreadMethod="pad">
      <stop offset="0.0" stop-color="#ffffff"/>
      <stop offset="1.0" stop-color="#b3b3b3"/>
    </radialGradient>
    <radialGradient cx="0" cy="0" gradientTransform="matrix(0.0092, 0.0, 0.0, 0.0092, 1.95, -45.3)" gradientUnits="userSpaceOnUse" id="gradient6" r="819.2" spreadMethod="pad">
      <stop offset="0.0" stop-color="#ff8300"/>
      <stop offset="1.0" stop-color="#fe8000"/>
    </radialGradient>
    <radialGradient cx="0" cy="0" gradientTransform="matrix(0.0107, 0.0, 0.0, 0.0107, 4.2, -44.3)" gradientUnits="userSpaceOnUse" id="gradient7" r="819.2" spreadMethod="pad">
      <stop offset="0.0" stop-color="#ffa100"/>
      <stop offset="1.0" stop-color="#f88300"/>
    </radialGradient>
    <radialGradient cx="0" cy="0" gradientTransform="matrix(0.0106, 0.0, 0.0, 0.0106, 1.25, -41.05)" gradientUnits="userSpaceOnUse" id="gradient8" r="819.2" spreadMethod="pad">
      <stop offset="0.0" stop-color="#615746"/>
      <stop offset="1.0" stop-color="#433c30"/>
    </radialGradient>
    <radialGradient cx="0" cy="0" gradientTransform="matrix(0.0036, 0.0, 0.0, 0.0036, 8.8, -46.4)" gradientUnits="userSpaceOnUse" id="gradient9" r="819.2" spreadMethod="pad">
      <stop offset="0.0" stop-color="#efefef"/>
      <stop offset="1.0" stop-color="#959595"/>
    </radialGradient>
    <radialGradient cx="0" cy="0" gradientTransform="matrix(0.0062, 0.0, 0.0, 0.0062, 8.7, -45.25)" gradientUnits="userSpaceOnUse" id="gradient10" r="819.2" spreadMethod="pad">
      <stop offset="0.0" stop-color="#665c4a"/>
      <stop offset="1.0" stop-color="#39342a"/>
    </radialGradient>
    <radialGradient cx="0" cy="0" gradientTransform="matrix(0.0031, 0.0, 0.0, 0.0031, 12.35, -46.85)" gradientUnits="userSpaceOnUse" id="gradient11" r="819.2" spreadMethod="pad">
      <stop offset="0.0" stop-color="#ffffff"/>
      <stop offset="1.0" stop-color="#ababab"/>
    </radialGradient>
    <radialGradient cx="0" cy="0" gradientTransform="matrix(0.0056, 0.0, 0.0, 0.0056, 11.15, -42.15)" gradientUnits="userSpaceOnUse" id="gradient12" r="819.2" spreadMethod="pad">
      <stop offset="0.0" stop-color="#ffcb00"/>
      <stop offset="1.0" stop-color="#bb5f00"/>
    </radialGradient>
    <radialGradient cx="0" cy="0" gradientTransform="matrix(0.0045, 0.0, 0.0, 0.0045, 9.8, -42.15)" gradientUnits="userSpaceOnUse" id="gradient13" r="819.2" spreadMethod="pad">
      <stop offset="0.0" stop-color="#ffc571"/>
      <stop offset="1.0" stop-color="#a67844"/>
    </radialGradient>
    <radialGradient cx="0" cy="0" gradientTransform="matrix(0.0049, 0.0, 0.0, 0.0049, 7.45, -43.3)" gradientUnits="userSpaceOnUse" id="gradient14" r="819.2" spreadMethod="pad">
      <stop offset="0.0" stop-color="#ffd200"/>
      <stop offset="1.0" stop-color="#ffa100"/>
    </radialGradient>
    <radialGradient cx="0" cy="0" gradientTransform="matrix(0.0022, 0.0, 0.0, 0.0022, -9.7, -43.25)" gradientUnits="userSpaceOnUse" id="gradient15" r="819.2" spreadMethod="pad">
      <stop offset="0.0" stop-color="#3b352b"/>
      <stop offset="1.0" stop-color="#332e25"/>
    </radialGradient>
    <radialGradient cx="0" cy="0" gradientTransform="matrix(0.0556, 0.0, 0.0, 0.0556, -9.7, -43.25)" gradientUnits="userSpaceOnUse" id="gradient16" r="819.2" spreadMethod="pad">
      <stop offset="0.0" stop-color="#3b352b"/>
      <stop offset="1.0" stop-color="#0c0b09"/>
    </radialGradient>
    <radialGradient cx="0" cy="0" gradientTransform="matrix(0.0198, 0.0, 0.0, 0.0198, 3.1, -33.5)" gradientUnits="userSpaceOnUse" id="gradient17" r="819.2" spreadMethod="pad">
      <stop offset="0.0" stop-color="#756a6a"/>
      <stop offset="1.0" stop-color="#5b5353"/>
    </radialGradient>
    <radialGradient cx="0" cy="0" gradientTransform="matrix(0.0089, 0.0, 0.0, 0.0089, -4.4, -37.65)" gradientUnits="userSpaceOnUse" id="gradient18" r="819.2" spreadMethod="pad">
      <stop offset="0.0" stop-color="#918484"/>
      <stop offset="1.0" stop-color="#575050"/>
    </radialGradient>
    <radialGradient cx="0" cy="0" gradientTransform="matrix(0.0092, 0.0, 0.0, 0.0092, -9.3, -39.0)" gradientUnits="userSpaceOnUse" id="gradient19" r="819.2" spreadMethod="pad">
      <stop offset="0.0" stop-color="#ffde7f"/>
      <stop offset="1.0" stop-color="#b28049"/>
    </radialGradient>
    <radialGradient cx="0" cy="0" gradientTransform="matrix(0.0075, 0.0, 0.0, 0.0075, 2.1, -42.15)" gradientUnits="userSpaceOnUse" id="gradient20" r="819.2" spreadMethod="pad">
      <stop offset="0.0" stop-color="#474033"/>
      <stop offset="1.0" stop-color="#40392e"/>
    </radialGradient>
    <radialGradient cx="0" cy="0" gradientTransform="matrix(0.0059, 0.0, 0.0, 0.0059, -1.45, -43.05)" gradientUnits="userSpaceOnUse" id="gradient21" r="819.2" spreadMethod="pad">
      <stop offset="0.0" stop-color="#331a00"/>
      <stop offset="1.0" stop-color="#331a00"/>
    </radialGradient>
    <radialGradient cx="0" cy="0" gradientTransform="matrix(0.0068, 0.0, 0.0, 0.0068, 5.05, -38.85)" gradientUnits="userSpaceOnUse" id="gradient22" r="819.2" spreadMethod="pad">
      <stop offset="0.0" stop-color="#837777"/>
      <stop offset="1.0" stop-color="#645b5b"/>
    </radialGradient>
    <radialGradient cx="0" cy="0" gradientTransform="matrix(0.0099, 0.0, 0.0, 0.0099, 11.2, -39.15)" gradientUnits="userSpaceOnUse" id="gradient23" r="819.2" spreadMethod="pad">
      <stop offset="0.0" stop-color="#ffe684"/>
      <stop offset="1.0" stop-color="#9c7140"/>
    </radialGradient>
    <radialGradient cx="0" cy="0" gradientTransform="matrix(0.0035, 0.0, 0.0, 0.0035, 13.65, -38.9)" gradientUnits="userSpaceOnUse" id="gradient24" r="819.2" spreadMethod="pad">
      <stop offset="0.0" stop-color="#d39957"/>
      <stop offset="1.0" stop-color="#ad7d48"/>
    </radialGradient>
    <radialGradient cx="0" cy="0" gradientTransform="matrix(0.0053, 0.0, 0.0, 0.0053, -18.15, -35.25)" gradientUnits="userSpaceOnUse" id="gradient25" r="819.2" spreadMethod="pad">
      <stop offset="0.0" stop-color="#ffffff"/>
      <stop offset="1.0" stop-color="#a4a4a4"/>
    </radialGradient>
    <radialGradient cx="0" cy="0" gradientTransform="matrix(0.0064, 0.0, 0.0, 0.0064, -14.8, -35.0)" gradientUnits="userSpaceOnUse" id="gradient26" r="819.2" spreadMethod="pad">
      <stop offset="0.0" stop-color="#ffd57a"/>
      <stop offset="1.0" stop-color="#ad7d47"/>
    </radialGradient>
    <radialGradient cx="0" cy="0" gradientTransform="matrix(0.0064, 0.0, 0.0, 0.0064, -13.95, -34.4)" gradientUnits="userSpaceOnUse" id="gradient27" r="819.2" spreadMethod="pad">
      <stop offset="0.0" stop-color="#ffb600"/>
      <stop offset="1.0" stop-color="#de6f00"/>
    </radialGradient>
    <radialGradient cx="0" cy="0" gradientTransform="matrix(0.0018, 0.0, 0.0, 0.0018, -17.45, -31.05)" gradientUnits="userSpaceOnUse" id="gradient28" r="819.2" spreadMethod="pad">
      <stop offset="0.0" stop-color="#4f4739"/>
      <stop offset="1.0" stop-color="#453f32"/>
    </radialGradient>
    <radialGradient cx="0" cy="0" gradientTransform="matrix(9.0E-4, 0.0, 0.0, 9.0E-4, -18.15, -32.3)" gradientUnits="userSpaceOnUse" id="gradient29" r="819.2" spreadMethod="pad">
      <stop offset="0.0" stop-color="#ff8000"/>
      <stop offset="1.0" stop-color="#e77400"/>
    </radialGradient>
    <radialGradient cx="0" cy="0" gradientTransform="matrix(0.0067, 0.0, 0.0, 0.0067, 9.75, -37.85)" gradientUnits="userSpaceOnUse" id="gradient30" r="819.2" spreadMethod="pad">
      <stop offset="0.0" stop-color="#ffd178"/>
      <stop offset="1.0" stop-color="#946b3d"/>
    </radialGradient>
    <radialGradient cx="0" cy="0" gradientTransform="matrix(0.0111, 0.0, 0.0, 0.0111, 13.05, -32.0)" gradientUnits="userSpaceOnUse" id="gradient31" r="819.2" spreadMethod="pad">
      <stop offset="0.0" stop-color="#6b614e"/>
      <stop offset="1.0" stop-color="#413b2f"/>
    </radialGradient>
    <radialGradient cx="0" cy="0" gradientTransform="matrix(0.0065, 0.0, 0.0, 0.0065, -13.25, -33.25)" gradientUnits="userSpaceOnUse" id="gradient32" r="819.2" spreadMethod="pad">
      <stop offset="0.0" stop-color="#ffc470"/>
      <stop offset="1.0" stop-color="#966c3e"/>
    </radialGradient>
    <radialGradient cx="0" cy="0" gradientTransform="matrix(0.0081, 0.0, 0.0, 0.0081, -17.35, -29.95)" gradientUnits="userSpaceOnUse" id="gradient33" r="819.2" spreadMethod="pad">
      <stop offset="0.0" stop-color="#5d5443"/>
      <stop offset="1.0" stop-color="#2e2a21"/>
    </radialGradient>
    <radialGradient cx="0" cy="0" gradientTransform="matrix(0.014, 0.0, 0.0, 0.014, -1.4, -31.8)" gradientUnits="userSpaceOnUse" id="gradient34" r="819.2" spreadMethod="pad">
      <stop offset="0.0" stop-color="#ffd900"/>
      <stop offset="1.0" stop-color="#ff9500"/>
    </radialGradient>
    <radialGradient cx="0" cy="0" gradientTransform="matrix(0.0019, 0.0, 0.0, 0.0019, -6.1, -27.8)" gradientUnits="userSpaceOnUse" id="gradient35" r="819.2" spreadMethod="pad">
      <stop offset="0.0" stop-color="#e77400"/>
      <stop offset="1.0" stop-color="#c96500"/>
    </radialGradient>
    <radialGradient cx="0" cy="0" gradientTransform="matrix(0.0059, 0.0, 0.0, 0.0059, -4.15, -23.45)" gradientUnits="userSpaceOnUse" id="gradient36" r="819.2" spreadMethod="pad">
      <stop offset="0.0" stop-color="#3b466f"/>
      <stop offset="1.0" stop-color="#29304e"/>
    </radialGradient>
    <radialGradient cx="0" cy="0" gradientTransform="matrix(0.0019, 0.0, 0.0, 0.0019, -19.35, -31.05)" gradientUnits="userSpaceOnUse" id="gradient37" r="819.2" spreadMethod="pad">
      <stop offset="0.0" stop-color="#433d31"/>
      <stop offset="1.0" stop-color="#353026"/>
    </radialGradient>
    <radialGradient cx="0" cy="0" gradientTransform="matrix(0.0012, 0.0, 0.0, 0.0012, -19.4, -30.45)" gradientUnits="userSpaceOnUse" id="gradient38" r="819.2" spreadMethod="pad">
      <stop offset="0.0" stop-color="#3f392d"/>
      <stop offset="1.0" stop-color="#3d372c"/>
    </radialGradient>
    <radialGradient cx="0" cy="0" gradientTransform="matrix(0.0085, 0.0, 0.0, 0.0085, 4.8, -25.8)" gradientUnits="userSpaceOnUse" id="gradient39" r="819.2" spreadMethod="pad">
      <stop offset="0.0" stop-color="#ffdf00"/>
      <stop offset="1.0" stop-color="#ce6700"/>
    </radialGradient>
    <radialGradient cx="0" cy="0" gradientTransform="matrix(0.0073, 0.0, 0.0, 0.0073, 7.2, -26.1)" gradientUnits="userSpaceOnUse" id="gradient40" r="819.2" spreadMethod="pad">
      <stop offset="0.0" stop-color="#404c7a"/>
      <stop offset="1.0" stop-color="#1d2338"/>
    </radialGradient>
    <radialGradient cx="0" cy="0" gradientTransform="matrix(0.0127, 0.0, 0.0, 0.0127, 3.45, -23.3)" gradientUnits="userSpaceOnUse" id="gradient41" r="819.2" spreadMethod="pad">
      <stop offset="0.0" stop-color="#3b4670"/>
      <stop offset="1.0" stop-color="#1f253c"/>
    </radialGradient>
    <radialGradient cx="0" cy="0" gradientTransform="matrix(0.0205, 0.0, 0.0, 0.0205, -1.9, -22.75)" gradientUnits="userSpaceOnUse" id="gradient42" r="819.2" spreadMethod="pad">
      <stop offset="0.0" stop-color="#404c7a"/>
      <stop offset="1.0" stop-color="#272e4a"/>
    </radialGradient>
    <radialGradient cx="0" cy="0" gradientTransform="matrix(0.0114, 0.0, 0.0, 0.0114, -1.2, -20.75)" gradientUnits="userSpaceOnUse" id="gradient43" r="819.2" spreadMethod="pad">
      <stop offset="0.0" stop-color="#ffd700"/>
      <stop offset="1.0" stop-color="#de7c00"/>
    </radialGradient>
    <radialGradient cx="0" cy="0" gradientTransform="matrix(0.0031, 0.0, 0.0, 0.0031, 16.75, -22.5)" gradientUnits="userSpaceOnUse" id="gradient44" r="819.2" spreadMethod="pad">
      <stop offset="0.0" stop-color="#fff18a"/>
      <stop offset="1.0" stop-color="#a67845"/>
    </radialGradient>
    <radialGradient cx="0" cy="0" gradientTransform="matrix(0.0041, 0.0, 0.0, 0.0041, 17.95, -22.35)" gradientUnits="userSpaceOnUse" id="gradient45" r="819.2" spreadMethod="pad">
      <stop offset="0.0" stop-color="#ffef89"/>
      <stop offset="1.0" stop-color="#825e36"/>
    </radialGradient>
    <radialGradient cx="0" cy="0" gradientTransform="matrix(0.0039, 0.0, 0.0, 0.0039, -16.95, -23.3)" gradientUnits="userSpaceOnUse" id="gradient46" r="819.2" spreadMethod="pad">
      <stop offset="0.0" stop-color="#fff48c"/>
      <stop offset="1.0" stop-color="#926a3c"/>
    </radialGradient>
    <radialGradient cx="0" cy="0" gradientTransform="matrix(0.004, 0.0, 0.0, 0.004, -15.8, -24.2)" gradientUnits="userSpaceOnUse" id="gradient47" r="819.2" spreadMethod="pad">
      <stop offset="0.0" stop-color="#fff38b"/>
      <stop offset="1.0" stop-color="#a97a46"/>
    </radialGradient>
    <radialGradient cx="0" cy="0" gradientTransform="matrix(0.036, 0.0, 0.0, 0.036, -10.1, -18.35)" gradientUnits="userSpaceOnUse" id="gradient48" r="819.2" spreadMethod="pad">
      <stop offset="0.0" stop-color="#bd5f00"/>
      <stop offset="1.0" stop-color="#552b00"/>
    </radialGradient>
    <radialGradient cx="0" cy="0" gradientTransform="matrix(0.0101, 0.0, 0.0, 0.0101, -7.85, -23.75)" gradientUnits="userSpaceOnUse" id="gradient49" r="819.2" spreadMethod="pad">
      <stop offset="0.0" stop-color="#0c0b09"/>
      <stop offset="1.0" stop-color="#0c0b09"/>
    </radialGradient>
    <radialGradient cx="0" cy="0" gradientTransform="matrix(0.0096, 0.0, 0.0, 0.0096, 3.6, -14.4)" gradientUnits="userSpaceOnUse" id="gradient50" r="819.2" spreadMethod="pad">
      <stop offset="0.0" stop-color="#374269"/>
      <stop offset="1.0" stop-color="#21273f"/>
    </radialGradient>
    <radialGradient cx="0" cy="0" gradientTransform="matrix(0.0111, 0.0, 0.0, 0.0111, -1.4, -20.45)" gradientUnits="userSpaceOnUse" id="gradient51" r="819.2" spreadMethod="pad">
      <stop offset="0.0" stop-color="#404c79"/>
      <stop offset="1.0" stop-color="#272e4a"/>
    </radialGradient>
    <radialGradient cx="0" cy="0" gradientTransform="matrix(0.0074, 0.0, 0.0, 0.0074, -7.8, -15.05)" gradientUnits="userSpaceOnUse" id="gradient52" r="819.2" spreadMethod="pad">
      <stop offset="0.0" stop-color="#423c30"/>
      <stop offset="1.0" stop-color="#393429"/>
    </radialGradient>
    <radialGradient cx="0" cy="0" gradientTransform="matrix(0.0087, 0.0, 0.0, 0.0087, -12.1, -10.8)" gradientUnits="userSpaceOnUse" id="gradient53" r="819.2" spreadMethod="pad">
      <stop offset="0.0" stop-color="#3e382d"/>
      <stop offset="1.0" stop-color="#3b352a"/>
    </radialGradient>
    <radialGradient cx="0" cy="0" gradientTransform="matrix(0.0124, 0.0, 0.0, 0.0124, -5.2, -20.4)" gradientUnits="userSpaceOnUse" id="gradient54" r="819.2" spreadMethod="pad">
      <stop offset="0.0" stop-color="#181511"/>
      <stop offset="1.0" stop-color="#0c0b09"/>
    </radialGradient>
    <radialGradient cx="0" cy="0" gradientTransform="matrix(0.0105, 0.0, 0.0, 0.0105, -6.65, -12.5)" gradientUnits="userSpaceOnUse" id="gradient55" r="819.2" spreadMethod="pad">
      <stop offset="0.0" stop-color="#39446d"/>
      <stop offset="1.0" stop-color="#191d2f"/>
    </radialGradient>
    <radialGradient cx="0" cy="0" gradientTransform="matrix(0.0107, 0.0, 0.0, 0.0107, -9.0, -7.45)" gradientUnits="userSpaceOnUse" id="gradient56" r="819.2" spreadMethod="pad">
      <stop offset="0.0" stop-color="#3c362c"/>
      <stop offset="1.0" stop-color="#393429"/>
    </radialGradient>
    <radialGradient cx="0" cy="0" gradientTransform="matrix(0.0115, 0.0, 0.0, 0.0115, -1.35, -10.8)" gradientUnits="userSpaceOnUse" id="gradient57" r="819.2" spreadMethod="pad">
      <stop offset="0.0" stop-color="#414d7b"/>
      <stop offset="1.0" stop-color="#222941"/>
    </radialGradient>
    <radialGradient cx="0" cy="0" gradientTransform="matrix(0.0178, 0.0, 0.0, 0.0178, -6.9, -11.95)" gradientUnits="userSpaceOnUse" id="gradient58" r="819.2" spreadMethod="pad">
      <stop offset="0.0" stop-color="#29304d"/>
      <stop offset="1.0" stop-color="#212840"/>
    </radialGradient>
    <radialGradient cx="0" cy="0" gradientTransform="matrix(0.0111, 0.0, 0.0, 0.0111, 1.85, -3.5)" gradientUnits="userSpaceOnUse" id="gradient59" r="819.2" spreadMethod="pad">
      <stop offset="0.0" stop-color="#3e4975"/>
      <stop offset="1.0" stop-color="#1c2136"/>
    </radialGradient>
    <radialGradient cx="0" cy="0" gradientTransform="matrix(0.0052, 0.0, 0.0, 0.0052, -7.3, -9.55)" gradientUnits="userSpaceOnUse" id="gradient60" r="819.2" spreadMethod="pad">
      <stop offset="0.0" stop-color="#08090e"/>
      <stop offset="1.0" stop-color="#08090e"/>
    </radialGradient>
    <radialGradient cx="0" cy="0" gradientTransform="matrix(0.0116, 0.0, 0.0, 0.0116, 3.4, 2.15)" gradientUnits="userSpaceOnUse" id="gradient61" r="819.2" spreadMethod="pad">
      <stop offset="0.0" stop-color="#3d4873"/>
      <stop offset="1.0" stop-color="#181d2e"/>
    </radialGradient>
    <radialGradient cx="0" cy="0" gradientTransform="matrix(0.0049, 0.0, 0.0, 0.0049, 1.05, 9.75)" gradientUnits="userSpaceOnUse" id="gradient62" r="819.2" spreadMethod="pad">
      <stop offset="0.0" stop-color="#ffd100"/>
      <stop offset="1.0" stop-color="#bd5f00"/>
    </radialGradient>
    <radialGradient cx="0" cy="0" gradientTransform="matrix(0.0073, 0.0, 0.0, 0.0073, 4.55, 12.85)" gradientUnits="userSpaceOnUse" id="gradient63" r="819.2" spreadMethod="pad">
      <stop offset="0.0" stop-color="#a99a9a"/>
      <stop offset="1.0" stop-color="#867a7a"/>
    </radialGradient>
    <radialGradient cx="0" cy="0" gradientTransform="matrix(0.0042, 0.0, 0.0, 0.0042, 7.6, 15.85)" gradientUnits="userSpaceOnUse" id="gradient64" r="819.2" spreadMethod="pad">
      <stop offset="0.0" stop-color="#514a4a"/>
      <stop offset="1.0" stop-color="#4f4848"/>
    </radialGradient>
    <radialGradient cx="0" cy="0" gradientTransform="matrix(0.0089, 0.0, 0.0, 0.0089, 3.2, 10.45)" gradientUnits="userSpaceOnUse" id="gradient65" r="819.2" spreadMethod="pad">
      <stop offset="0.0" stop-color="#736854"/>
      <stop offset="1.0" stop-color="#6e6350"/>
    </radialGradient>
    <radialGradient cx="0" cy="0" gradientTransform="matrix(0.0042, 0.0, 0.0, 0.0042, 7.2, 15.1)" gradientUnits="userSpaceOnUse" id="gradient66" r="819.2" spreadMethod="pad">
      <stop offset="0.0" stop-color="#373228"/>
      <stop offset="1.0" stop-color="#363027"/>
    </radialGradient>
  </defs>
</svg>
