<?xml version="1.0" encoding="UTF-8" standalone="no"?>
<svg xmlns:ffdec="https://www.free-decompiler.com/flash" xmlns:xlink="http://www.w3.org/1999/xlink" ffdec:objectType="shape" height="64.45px" width="32.6px" xmlns="http://www.w3.org/2000/svg">
  <g transform="matrix(1.0, 0.0, 0.0, 1.0, 16.9, 54.65)">
    <path d="M-8.85 -51.05 Q-9.4 -50.95 -6.4 -54.0 L-3.85 -54.65 -1.55 -54.3 0.7 -52.9 1.45 -50.9 1.7 -50.1 Q2.85 -47.05 -3.15 -46.1 -11.25 -47.35 -8.85 -50.95 L-8.85 -51.05" fill="url(#gradient0)" fill-rule="evenodd" stroke="none"/>
    <path d="M-8.85 -51.05 L-8.85 -50.95 -8.9 -50.95 -8.85 -51.05" fill="url(#gradient1)" fill-rule="evenodd" stroke="none"/>
    <path d="M-8.85 -50.95 Q-11.25 -47.35 -3.15 -46.1 2.85 -47.05 1.7 -50.1 L2.05 -49.65 2.15 -48.65 2.05 -48.5 Q1.3 -46.1 -3.8 -45.95 -8.55 -46.1 -9.7 -49.15 L-9.55 -50.1 -8.9 -50.95 -8.85 -50.95" fill="url(#gradient2)" fill-rule="evenodd" stroke="none"/>
    <path d="M-9.2 -44.65 Q-10.05 -45.75 -9.9 -45.95 L-9.7 -49.15 Q-8.55 -46.1 -3.8 -45.95 1.3 -46.1 2.05 -48.5 L1.95 -47.0 Q1.85 -44.35 -0.3 -43.55 L-0.5 -43.45 Q-3.5 -41.85 -8.75 -44.3 L-8.85 -44.4 -8.9 -44.4 -8.95 -44.45 -9.2 -44.65" fill="url(#gradient3)" fill-rule="evenodd" stroke="none"/>
    <path d="M-9.05 -42.0 L-9.25 -43.1 -9.2 -44.65 -8.95 -44.45 -8.9 -44.4 Q-8.05 -42.25 -4.15 -42.35 L-4.0 -42.35 -1.55 -42.85 -0.5 -43.45 -0.3 -43.55 Q1.85 -44.35 1.95 -47.0 L2.7 -46.7 4.0 -46.7 Q2.8 -44.0 -0.95 -42.3 L-2.2 -41.0 Q-3.55 -39.6 -3.5 -37.4 L-3.95 -37.15 -5.5 -37.6 -5.5 -37.65 -7.25 -38.85 Q-8.2 -39.85 -8.6 -41.0 L-9.05 -42.0" fill="url(#gradient4)" fill-rule="evenodd" stroke="none"/>
    <path d="M-6.3 -36.0 Q-9.15 -37.3 -9.05 -42.0 L-8.6 -41.0 Q-8.2 -39.85 -7.25 -38.85 L-5.5 -37.65 -5.5 -37.6 -5.5 -35.95 -6.3 -36.0" fill="url(#gradient5)" fill-rule="evenodd" stroke="none"/>
    <path d="M-5.7 -32.25 L-6.15 -34.25 -6.3 -36.0 -5.5 -35.95 Q-4.55 -30.5 0.9 -30.35 L1.45 -29.9 1.0 -29.15 0.0 -27.05 -0.3 -25.9 Q-1.7 -25.4 -4.2 -26.9 L-4.3 -27.8 -4.2 -28.8 -5.1 -28.55 -5.65 -29.65 -5.7 -32.25" fill="url(#gradient6)" fill-rule="evenodd" stroke="none"/>
    <path d="M-6.1 -31.9 L-5.7 -32.25 -5.65 -29.65 -5.1 -28.55 -4.2 -28.8 -4.3 -27.8 -4.2 -26.9 Q-1.7 -25.4 -0.3 -25.9 L-0.5 -24.65 -0.4 -22.45 -0.95 -22.35 -1.75 -22.0 -4.35 -22.15 -5.25 -22.75 Q-5.0 -23.45 -7.05 -25.1 L-7.8 -26.9 -7.85 -27.75 -7.65 -29.15 Q-7.85 -29.75 -7.25 -30.35 L-6.1 -31.9" fill="url(#gradient7)" fill-rule="evenodd" stroke="none"/>
    <path d="M-11.65 -21.55 L-11.65 -21.65 -11.7 -21.7 -12.0 -22.15 -12.0 -22.2 -12.2 -22.45 -12.25 -22.6 -12.25 -22.7 Q-10.55 -23.8 -9.4 -29.15 L-9.35 -29.15 -8.35 -29.5 -6.5 -31.75 -6.1 -31.9 -7.25 -30.35 Q-7.85 -29.75 -7.65 -29.15 L-7.85 -27.75 -7.8 -26.9 Q-11.0 -20.35 -11.6 -21.5 L-11.65 -21.55 M-10.95 -25.3 L-11.0 -25.1 -11.1 -25.15 -10.95 -25.3" fill="url(#gradient8)" fill-rule="evenodd" stroke="none"/>
    <path d="M-12.3 -22.7 Q-13.1 -23.05 -9.4 -29.15 -10.55 -23.8 -12.25 -22.7 L-12.3 -22.7 M-9.35 -29.15 L-8.6 -29.6 -8.55 -29.65 -7.65 -31.15 -6.5 -31.75 -8.35 -29.5 -9.35 -29.15 M-10.95 -25.3 L-11.1 -25.15 -11.0 -25.1 -10.95 -25.3" fill="url(#gradient9)" fill-rule="evenodd" stroke="none"/>
    <path d="M1.7 -50.1 L1.45 -50.9 1.5 -50.9 Q4.45 -49.8 4.05 -46.7 L4.0 -46.7 2.7 -46.7 1.95 -47.0 2.05 -48.5 2.15 -48.65 2.05 -49.65 1.7 -50.1" fill="url(#gradient10)" fill-rule="evenodd" stroke="none"/>
    <path d="M1.5 -50.9 Q5.45 -50.15 6.6 -47.5 L6.9 -46.5 6.9 -46.15 5.7 -46.35 5.4 -46.35 5.35 -46.15 4.05 -46.7 Q4.45 -49.8 1.5 -50.9" fill="url(#gradient11)" fill-rule="evenodd" stroke="none"/>
    <path d="M4.0 -46.7 L4.05 -46.7 5.35 -46.15 6.6 -45.7 6.75 -45.85 7.05 -45.7 7.8 -44.2 Q8.55 -41.5 8.3 -41.6 L8.15 -41.65 8.15 -41.0 7.95 -40.2 7.65 -39.9 7.75 -42.25 5.4 -40.0 5.35 -39.9 4.65 -39.7 4.1 -39.35 3.4 -40.1 2.7 -38.3 2.3 -38.1 2.0 -37.55 0.4 -36.65 -1.15 -36.8 -3.5 -37.4 Q-3.55 -39.6 -2.2 -41.0 L-0.95 -42.3 Q2.8 -44.0 4.0 -46.7" fill="url(#gradient12)" fill-rule="evenodd" stroke="none"/>
    <path d="M6.6 -47.5 L7.4 -46.7 7.7 -46.1 7.5 -46.15 6.9 -46.5 6.6 -47.5" fill="url(#gradient13)" fill-rule="evenodd" stroke="none"/>
    <path d="M7.75 -45.7 L7.95 -45.25 7.05 -45.7 6.75 -45.85 6.9 -46.15 6.9 -46.5 7.5 -46.15 7.75 -45.7" fill="url(#gradient14)" fill-rule="evenodd" stroke="none"/>
    <path d="M5.35 -46.15 L5.4 -46.35 5.7 -46.35 6.9 -46.15 6.75 -45.85 6.6 -45.7 5.35 -46.15" fill="url(#gradient15)" fill-rule="evenodd" stroke="none"/>
    <path d="M-5.5 -37.6 L-3.95 -37.15 -3.5 -37.4 -1.15 -36.8 0.4 -36.65 Q-0.45 -35.5 0.25 -34.25 L0.4 -31.95 0.5 -31.3 0.9 -30.35 Q-4.55 -30.5 -5.5 -35.95 L-5.5 -37.6" fill="url(#gradient16)" fill-rule="evenodd" stroke="none"/>
    <path d="M-5.5 -37.65 L-5.5 -37.6 -5.5 -37.65" fill="url(#gradient17)" fill-rule="evenodd" stroke="none"/>
    <path d="M7.7 -46.1 L7.75 -45.7 7.5 -46.15 7.7 -46.1" fill="url(#gradient18)" fill-rule="evenodd" stroke="none"/>
    <path d="M7.95 -45.25 L8.55 -42.2 8.6 -40.8 8.5 -41.0 8.3 -41.6 Q8.55 -41.5 7.8 -44.2 L7.05 -45.7 7.95 -45.25" fill="url(#gradient19)" fill-rule="evenodd" stroke="none"/>
    <path d="M8.6 -40.8 L8.85 -40.1 7.85 -39.55 7.65 -39.65 7.65 -39.9 7.95 -40.2 8.15 -41.0 8.15 -41.65 8.3 -41.6 8.5 -41.0 8.6 -40.8 M9.5 -38.45 L10.0 -37.45 9.95 -36.85 9.3 -38.05 9.5 -38.45 M9.7 -31.0 L9.25 -29.45 9.45 -30.8 9.7 -31.0" fill="url(#gradient20)" fill-rule="evenodd" stroke="none"/>
    <path d="M7.65 -39.9 L7.65 -39.65 Q6.9 -37.7 5.35 -39.9 L5.4 -40.0 7.75 -42.25 7.65 -39.9" fill="url(#gradient21)" fill-rule="evenodd" stroke="none"/>
    <path d="M9.95 -36.85 Q10.65 -34.0 9.85 -32.55 L9.85 -32.5 8.55 -32.55 7.65 -31.95 Q6.1 -29.65 8.15 -30.3 L7.5 -29.85 Q5.15 -29.45 3.8 -30.65 L3.3 -31.45 2.2 -32.25 1.65 -33.55 Q2.15 -33.4 2.0 -37.55 L2.3 -38.1 2.7 -38.3 Q2.3 -37.4 3.1 -37.05 L4.3 -37.3 Q5.05 -37.95 4.8 -38.55 L4.1 -39.35 4.65 -39.7 5.35 -39.9 Q6.9 -37.7 7.65 -39.65 L7.85 -39.55 9.3 -38.05 9.95 -36.85" fill="url(#gradient22)" fill-rule="evenodd" stroke="none"/>
    <path d="M4.1 -39.35 L4.8 -38.55 Q5.05 -37.95 4.3 -37.3 L3.1 -37.05 Q2.3 -37.4 2.7 -38.3 L3.4 -40.1 4.1 -39.35" fill="url(#gradient23)" fill-rule="evenodd" stroke="none"/>
    <path d="M2.0 -37.55 Q2.15 -33.4 1.65 -33.55 L0.25 -34.25 Q-0.45 -35.5 0.4 -36.65 L2.0 -37.55" fill="url(#gradient24)" fill-rule="evenodd" stroke="none"/>
    <path d="M-0.5 -43.45 L-1.55 -42.85 -4.0 -42.35 -4.15 -42.35 Q-8.05 -42.25 -8.9 -44.4 L-8.85 -44.4 -8.75 -44.3 Q-3.5 -41.85 -0.5 -43.45" fill="url(#gradient25)" fill-rule="evenodd" stroke="none"/>
    <path d="M8.85 -40.1 L10.75 -41.0 9.5 -38.45 9.3 -38.05 7.85 -39.55 8.85 -40.1" fill="url(#gradient26)" fill-rule="evenodd" stroke="none"/>
    <path d="M1.65 -33.55 L2.2 -32.25 1.95 -32.1 1.8 -32.3 Q0.6 -32.2 0.7 -31.85 L0.55 -32.1 0.4 -31.95 0.25 -34.25 1.65 -33.55 M3.8 -30.65 Q5.15 -29.45 7.5 -29.85 L6.75 -29.3 4.9 -28.85 1.7 -29.85 1.8 -30.4 3.8 -30.65 M1.65 -29.9 L1.5 -29.9 1.55 -30.0 1.65 -29.9" fill="url(#gradient27)" fill-rule="evenodd" stroke="none"/>
    <path d="M2.2 -32.25 L3.3 -31.45 3.8 -30.65 1.8 -30.4 1.7 -29.85 1.65 -29.9 1.55 -30.0 1.5 -29.9 1.45 -29.9 0.9 -30.35 0.5 -31.3 0.4 -31.95 0.55 -32.1 0.7 -31.85 Q0.6 -32.2 1.8 -32.3 L1.95 -32.1 2.2 -32.25" fill="url(#gradient28)" fill-rule="evenodd" stroke="none"/>
    <path d="M9.95 -32.55 L10.6 -33.0 10.75 -32.75 10.45 -31.9 9.7 -31.0 9.45 -30.8 9.05 -30.5 8.15 -30.3 Q6.1 -29.65 7.65 -31.95 L8.55 -32.55 9.85 -32.5 9.95 -32.55" fill="url(#gradient29)" fill-rule="evenodd" stroke="none"/>
    <path d="M9.85 -32.55 L9.95 -32.55 9.85 -32.5 9.85 -32.55" fill="url(#gradient30)" fill-rule="evenodd" stroke="none"/>
    <path d="M7.5 -29.85 L8.15 -30.3 8.5 -29.85 8.65 -29.15 8.8 -27.35 8.7 -27.15 8.7 -27.1 8.65 -26.9 8.65 -26.75 8.6 -26.65 8.6 -26.5 8.55 -26.4 8.55 -26.25 8.5 -26.2 8.5 -26.1 8.45 -26.0 8.2 -25.3 7.25 -23.6 7.2 -23.5 6.25 -22.5 4.65 -21.5 Q2.05 -22.5 4.9 -28.85 L6.75 -29.3 7.5 -29.85" fill="url(#gradient31)" fill-rule="evenodd" stroke="none"/>
    <path d="M9.25 -29.45 L9.25 -29.35 9.2 -29.2 9.2 -29.05 9.15 -28.95 8.45 -24.3 8.05 -23.95 7.25 -23.6 8.2 -25.3 8.45 -26.0 8.5 -26.1 8.5 -26.2 8.55 -26.25 8.55 -26.4 8.6 -26.5 8.6 -26.65 8.65 -26.75 8.65 -26.9 8.7 -27.1 8.7 -27.15 8.8 -27.35 8.65 -29.15 8.5 -29.85 8.15 -30.3 9.05 -30.5 9.45 -30.8 9.25 -29.45 M8.05 -22.1 L7.5 -18.7 7.1 -19.7 7.2 -21.3 8.05 -22.1 M7.55 -16.7 L7.75 -16.0 7.5 -16.3 7.55 -16.7" fill="url(#gradient32)" fill-rule="evenodd" stroke="none"/>
    <path d="M4.9 -28.85 Q2.05 -22.5 4.65 -21.5 L4.5 -21.35 4.3 -21.35 Q0.8 -19.25 -0.1 -21.45 L-0.4 -22.45 -0.5 -24.65 -0.3 -25.9 0.0 -27.05 1.0 -29.15 1.45 -29.9 1.5 -29.9 1.65 -29.9 1.7 -29.85 4.9 -28.85" fill="url(#gradient33)" fill-rule="evenodd" stroke="none"/>
    <path d="M-12.1 -19.55 L-11.65 -21.5 -11.6 -21.5 Q-11.0 -20.35 -7.8 -26.9 L-7.05 -25.1 Q-5.0 -23.45 -5.25 -22.75 L-5.6 -21.85 -5.3 -21.05 Q-5.35 -18.85 -4.85 -17.3 L-4.85 -16.6 -4.2 -14.65 -5.3 -14.25 -5.95 -13.85 Q-9.7 -13.5 -11.7 -17.3 L-11.95 -17.55 -11.95 -18.1 -12.15 -18.6 -12.1 -19.55" fill="url(#gradient34)" fill-rule="evenodd" stroke="none"/>
    <path d="M-11.65 -21.5 L-11.65 -21.55 -11.6 -21.5 -11.65 -21.5 M-12.25 -22.6 L-12.3 -22.7 -12.25 -22.7 -12.25 -22.6" fill="url(#gradient35)" fill-rule="evenodd" stroke="none"/>
    <path d="M8.45 -24.3 L9.35 -25.05 10.4 -26.25 9.85 -24.6 Q9.0 -22.95 8.05 -22.1 L7.2 -21.3 6.35 -20.65 5.25 -20.15 5.25 -20.6 6.1 -21.9 6.25 -22.5 7.2 -23.5 7.25 -23.6 8.05 -23.95 8.45 -24.3" fill="url(#gradient36)" fill-rule="evenodd" stroke="none"/>
    <path d="M7.75 -17.75 L7.55 -16.7 7.5 -16.3 7.5 -16.2 7.4 -15.95 6.1 -14.8 Q3.6 -14.7 2.1 -13.25 L0.8 -13.25 2.45 -14.8 3.85 -16.05 4.55 -17.3 5.3 -19.4 5.25 -19.85 5.25 -20.15 6.35 -20.65 7.2 -21.3 7.1 -19.7 7.75 -17.75" fill="url(#gradient37)" fill-rule="evenodd" stroke="none"/>
    <path d="M-0.1 -21.45 Q0.8 -19.25 4.3 -21.35 L4.9 -20.85 5.25 -20.6 5.25 -20.15 5.25 -19.85 4.45 -17.15 2.45 -14.8 0.8 -13.25 -0.75 -11.6 Q-1.85 -11.8 -2.25 -12.25 L-2.7 -13.45 -2.6 -14.5 -1.9 -16.2 -1.45 -17.3 Q-1.4 -20.6 -0.1 -21.45" fill="url(#gradient38)" fill-rule="evenodd" stroke="none"/>
    <path d="M4.65 -21.5 L6.25 -22.5 6.1 -21.9 5.25 -20.6 4.9 -20.85 4.5 -21.35 4.65 -21.5" fill="url(#gradient39)" fill-rule="evenodd" stroke="none"/>
    <path d="M-5.25 -22.75 L-4.35 -22.15 -1.75 -22.0 Q-3.1 -20.15 -2.05 -17.3 L-1.9 -16.2 -2.6 -14.5 -3.55 -14.7 -4.2 -14.65 -4.85 -16.6 -4.85 -17.3 Q-5.35 -18.85 -5.3 -21.05 L-5.6 -21.85 -5.25 -22.75 M-0.75 -11.6 L0.8 -13.25 2.1 -13.25 Q3.6 -14.7 6.1 -14.8 L7.4 -15.95 7.5 -16.2 Q7.35 -9.7 -0.75 -10.65 L-0.75 -11.6" fill="url(#gradient40)" fill-rule="evenodd" stroke="none"/>
    <path d="M-4.2 -14.65 L-3.55 -14.7 -2.6 -14.5 -2.7 -13.45 -4.85 -13.35 Q-5.9 -13.0 -6.8 -11.45 -7.45 -12.55 -5.95 -13.85 L-5.3 -14.25 -4.2 -14.65" fill="url(#gradient41)" fill-rule="evenodd" stroke="none"/>
    <path d="M7.5 -18.7 L7.75 -17.75 7.1 -19.7 7.5 -18.7 M-0.4 -22.45 L-0.1 -21.45 Q-1.4 -20.6 -1.45 -17.3 L-1.9 -16.2 -2.05 -17.3 Q-3.1 -20.15 -1.75 -22.0 L-0.95 -22.35 -0.4 -22.45" fill="url(#gradient42)" fill-rule="evenodd" stroke="none"/>
    <path d="M4.3 -21.35 L4.5 -21.35 4.9 -20.85 4.3 -21.35" fill="url(#gradient43)" fill-rule="evenodd" stroke="none"/>
    <path d="M-13.65 -13.25 Q-13.95 -13.5 -13.25 -17.55 L-12.1 -19.55 -12.15 -18.6 -11.95 -18.1 -11.95 -17.55 -11.7 -17.3 Q-9.7 -13.5 -5.95 -13.85 -7.45 -12.55 -6.8 -11.45 -7.0 -10.9 -6.5 -9.65 L-5.45 -8.5 Q-10.85 -7.2 -13.65 -13.25" fill="url(#gradient44)" fill-rule="evenodd" stroke="none"/>
    <path d="M-15.25 -6.9 Q-14.8 -12.6 -13.65 -13.25 -10.85 -7.2 -5.45 -8.5 L-4.2 -8.05 -3.15 -8.15 -2.7 -7.05 -2.25 -6.45 -2.0 -5.45 -1.45 -4.35 Q-2.4 -1.2 -7.45 -1.1 -12.35 -1.1 -14.95 -5.45 L-15.0 -5.75 -15.2 -5.75 -15.25 -6.9" fill="url(#gradient45)" fill-rule="evenodd" stroke="none"/>
    <path d="M-1.3 -4.15 Q-0.45 2.65 -8.2 5.5 L-8.5 5.6 -9.4 5.75 -11.45 5.4 -12.5 5.25 -15.0 3.35 Q-17.95 0.65 -15.25 -6.9 L-15.2 -5.75 -15.0 -5.75 -14.95 -5.45 Q-12.35 -1.1 -7.45 -1.1 -2.4 -1.2 -1.45 -4.35 L-1.3 -4.15" fill="url(#gradient46)" fill-rule="evenodd" stroke="none"/>
    <path d="M-16.35 5.35 L-15.6 4.0 -15.0 3.35 -12.5 5.25 -11.45 5.4 -11.15 5.6 -10.15 5.85 -8.9 5.75 -9.85 6.45 -10.4 6.7 -10.05 6.1 -10.35 6.45 Q-13.65 10.15 -14.85 8.85 L-15.85 7.6 -16.4 6.8 -16.35 5.35" fill="url(#gradient47)" fill-rule="evenodd" stroke="none"/>
    <path d="M-8.2 5.5 L-13.6 9.5 Q-15.45 10.1 -15.35 9.5 L-16.75 7.7 Q-17.0 8.1 -16.85 6.25 L-16.35 5.35 -16.4 6.8 -15.85 7.6 -15.7 8.0 -14.85 8.85 Q-13.65 10.15 -10.35 6.45 L-10.05 6.1 -10.4 6.7 -9.85 6.45 -8.9 5.75 -8.5 5.6 -8.2 5.5" fill="url(#gradient48)" fill-rule="evenodd" stroke="none"/>
    <path d="M-15.35 9.5 L-16.25 8.65 -16.75 7.7 -15.35 9.5" fill="url(#gradient49)" fill-rule="evenodd" stroke="none"/>
    <path d="M2.45 -14.8 L4.45 -17.15 5.25 -19.85 5.3 -19.4 4.55 -17.3 3.85 -16.05 2.45 -14.8" fill="url(#gradient50)" fill-rule="evenodd" stroke="none"/>
    <path d="M7.75 -16.0 L8.0 -15.45 8.5 -14.3 Q10.4 -9.35 5.75 -5.45 2.45 -3.25 -0.95 -5.45 L-1.35 -5.6 -2.25 -6.45 -2.7 -7.05 -3.15 -8.15 Q-1.85 -8.45 -1.35 -9.2 L-0.75 -10.65 Q7.35 -9.7 7.5 -16.2 L7.5 -16.3 7.75 -16.0" fill="url(#gradient51)" fill-rule="evenodd" stroke="none"/>
    <path d="M-2.7 -13.45 L-2.25 -12.25 Q-1.85 -11.8 -0.75 -11.6 L-0.75 -10.65 -1.35 -9.2 Q-1.85 -8.45 -3.15 -8.15 L-4.2 -8.05 -5.45 -8.5 -6.5 -9.65 Q-7.0 -10.9 -6.8 -11.45 -5.9 -13.0 -4.85 -13.35 L-2.7 -13.45" fill="url(#gradient52)" fill-rule="evenodd" stroke="none"/>
    <path d="M8.0 -15.45 L10.55 -14.85 10.9 -14.65 11.4 -14.2 10.95 -14.2 9.2 -14.25 8.5 -14.3 8.0 -15.45" fill="url(#gradient53)" fill-rule="evenodd" stroke="none"/>
    <path d="M4.25 -1.65 Q1.55 -1.65 -1.3 -4.15 L-1.45 -4.35 -2.0 -5.45 -2.25 -6.45 -1.35 -5.6 -0.95 -5.45 Q2.45 -3.25 5.75 -5.45 10.4 -9.35 8.5 -14.3 L9.2 -14.25 Q13.2 -12.05 11.4 -5.45 8.5 -0.6 4.25 -1.65" fill="url(#gradient54)" fill-rule="evenodd" stroke="none"/>
    <path d="M10.95 -14.2 Q14.45 -12.05 14.8 -10.0 L14.85 -9.95 15.3 -8.95 15.5 -6.55 15.5 -6.2 14.65 -4.25 13.85 -3.6 Q12.9 -3.15 11.4 -1.2 L9.45 -0.45 6.65 -0.85 4.25 -1.65 Q8.5 -0.6 11.4 -5.45 13.2 -12.05 9.2 -14.25 L10.95 -14.2" fill="url(#gradient55)" fill-rule="evenodd" stroke="none"/>
    <path d="M14.8 -10.0 L15.35 -9.55 15.65 -8.7 15.6 -8.4 15.5 -8.95 14.85 -9.95 14.8 -10.0 M13.85 -3.6 Q13.15 -1.35 9.45 -0.45 L11.4 -1.2 Q12.9 -3.15 13.85 -3.6" fill="url(#gradient56)" fill-rule="evenodd" stroke="none"/>
    <path d="M15.6 -8.4 L15.7 -7.4 15.5 -6.55 15.3 -8.95 14.85 -9.95 15.5 -8.95 15.6 -8.4" fill="url(#gradient57)" fill-rule="evenodd" stroke="none"/>
    <path d="M-14.85 8.85 L-15.7 8.0 -15.85 7.6 -14.85 8.85" fill="url(#gradient58)" fill-rule="evenodd" stroke="none"/>
    <path d="M-8.9 5.75 L-10.15 5.85 -11.15 5.6 -11.45 5.4 -9.4 5.75 -8.5 5.6 -8.9 5.75" fill="url(#gradient59)" fill-rule="evenodd" stroke="none"/>
  </g>
  <defs>
    <radialGradient cx="0" cy="0" gradientTransform="matrix(0.0076, 0.0, 0.0, 0.0076, -3.4, -50.0)" gradientUnits="userSpaceOnUse" id="gradient0" r="819.2" spreadMethod="pad">
      <stop offset="0.0" stop-color="#5f5545"/>
      <stop offset="1.0" stop-color="#403a2e"/>
    </radialGradient>
    <radialGradient cx="0" cy="0" gradientTransform="matrix(0.0019, 0.0, 0.0, 0.0019, -8.75, -51.55)" gradientUnits="userSpaceOnUse" id="gradient1" r="819.2" spreadMethod="pad">
      <stop offset="0.0" stop-color="#2e2a22"/>
      <stop offset="1.0" stop-color="#24201a"/>
    </radialGradient>
    <radialGradient cx="0" cy="0" gradientTransform="matrix(0.011, 0.0, 0.0, 0.011, -1.55, -46.25)" gradientUnits="userSpaceOnUse" id="gradient2" r="819.2" spreadMethod="pad">
      <stop offset="0.0" stop-color="#ff8200"/>
      <stop offset="1.0" stop-color="#fe7f00"/>
    </radialGradient>
    <radialGradient cx="0" cy="0" gradientTransform="matrix(0.0089, 0.0, 0.0, 0.0089, -3.6, -46.05)" gradientUnits="userSpaceOnUse" id="gradient3" r="819.2" spreadMethod="pad">
      <stop offset="0.0" stop-color="#ffa300"/>
      <stop offset="1.0" stop-color="#f28100"/>
    </radialGradient>
    <radialGradient cx="0" cy="0" gradientTransform="matrix(0.0099, 0.0, 0.0, 0.0099, -1.25, -43.45)" gradientUnits="userSpaceOnUse" id="gradient4" r="819.2" spreadMethod="pad">
      <stop offset="0.0" stop-color="#615847"/>
      <stop offset="1.0" stop-color="#413a2f"/>
    </radialGradient>
    <radialGradient cx="0" cy="0" gradientTransform="matrix(0.0067, 0.0, 0.0, 0.0067, -5.75, -38.05)" gradientUnits="userSpaceOnUse" id="gradient5" r="819.2" spreadMethod="pad">
      <stop offset="0.0" stop-color="#6e6565"/>
      <stop offset="1.0" stop-color="#574f4f"/>
    </radialGradient>
    <radialGradient cx="0" cy="0" gradientTransform="matrix(0.01, 0.0, 0.0, 0.01, -5.1, -29.55)" gradientUnits="userSpaceOnUse" id="gradient6" r="819.2" spreadMethod="pad">
      <stop offset="0.0" stop-color="#6d6363"/>
      <stop offset="1.0" stop-color="#544d4d"/>
    </radialGradient>
    <radialGradient cx="0" cy="0" gradientTransform="matrix(0.014, 0.0, 0.0, 0.014, -0.35, -32.75)" gradientUnits="userSpaceOnUse" id="gradient7" r="819.2" spreadMethod="pad">
      <stop offset="0.0" stop-color="#ffdc00"/>
      <stop offset="1.0" stop-color="#ff9400"/>
    </radialGradient>
    <radialGradient cx="0" cy="0" gradientTransform="matrix(0.009, 0.0, 0.0, 0.009, -6.5, -26.85)" gradientUnits="userSpaceOnUse" id="gradient8" r="819.2" spreadMethod="pad">
      <stop offset="0.0" stop-color="#ffdf00"/>
      <stop offset="1.0" stop-color="#cb7100"/>
    </radialGradient>
    <radialGradient cx="0" cy="0" gradientTransform="matrix(0.0094, 0.0, 0.0, 0.0094, -8.1, -28.45)" gradientUnits="userSpaceOnUse" id="gradient9" r="819.2" spreadMethod="pad">
      <stop offset="0.0" stop-color="#414d7b"/>
      <stop offset="1.0" stop-color="#20263c"/>
    </radialGradient>
    <radialGradient cx="0" cy="0" gradientTransform="matrix(0.0048, 0.0, 0.0, 0.0048, 1.0, -48.35)" gradientUnits="userSpaceOnUse" id="gradient10" r="819.2" spreadMethod="pad">
      <stop offset="0.0" stop-color="#ffcd00"/>
      <stop offset="1.0" stop-color="#be5f00"/>
    </radialGradient>
    <radialGradient cx="0" cy="0" gradientTransform="matrix(0.0051, 0.0, 0.0, 0.0051, 3.0, -47.2)" gradientUnits="userSpaceOnUse" id="gradient11" r="819.2" spreadMethod="pad">
      <stop offset="0.0" stop-color="#ffce00"/>
      <stop offset="1.0" stop-color="#bf6000"/>
    </radialGradient>
    <radialGradient cx="0" cy="0" gradientTransform="matrix(0.0102, 0.0, 0.0, 0.0102, 0.25, -40.75)" gradientUnits="userSpaceOnUse" id="gradient12" r="819.2" spreadMethod="pad">
      <stop offset="0.0" stop-color="#615846"/>
      <stop offset="1.0" stop-color="#3e392d"/>
    </radialGradient>
    <radialGradient cx="0" cy="0" gradientTransform="matrix(0.0021, 0.0, 0.0, 0.0021, 6.15, -47.05)" gradientUnits="userSpaceOnUse" id="gradient13" r="819.2" spreadMethod="pad">
      <stop offset="0.0" stop-color="#574f4f"/>
      <stop offset="1.0" stop-color="#4c4646"/>
    </radialGradient>
    <radialGradient cx="0" cy="0" gradientTransform="matrix(0.0026, 0.0, 0.0, 0.0026, 6.0, -46.35)" gradientUnits="userSpaceOnUse" id="gradient14" r="819.2" spreadMethod="pad">
      <stop offset="0.0" stop-color="#eb7600"/>
      <stop offset="1.0" stop-color="#db6e00"/>
    </radialGradient>
    <radialGradient cx="0" cy="0" gradientTransform="matrix(0.0019, 0.0, 0.0, 0.0019, 6.25, -45.1)" gradientUnits="userSpaceOnUse" id="gradient15" r="819.2" spreadMethod="pad">
      <stop offset="0.0" stop-color="#ff8600"/>
      <stop offset="1.0" stop-color="#ff8600"/>
    </radialGradient>
    <radialGradient cx="0" cy="0" gradientTransform="matrix(0.0082, 0.0, 0.0, 0.0082, 1.1, -36.65)" gradientUnits="userSpaceOnUse" id="gradient16" r="819.2" spreadMethod="pad">
      <stop offset="0.0" stop-color="#908383"/>
      <stop offset="1.0" stop-color="#605757"/>
    </radialGradient>
    <radialGradient cx="0" cy="0" gradientTransform="matrix(0.0068, 0.0, 0.0, 0.0068, -8.7, -41.1)" gradientUnits="userSpaceOnUse" id="gradient17" r="819.2" spreadMethod="pad">
      <stop offset="0.0" stop-color="#0c0b09"/>
      <stop offset="1.0" stop-color="#0c0b09"/>
    </radialGradient>
    <radialGradient cx="0" cy="0" gradientTransform="matrix(0.0043, 0.0, 0.0, 0.0043, 7.45, -46.65)" gradientUnits="userSpaceOnUse" id="gradient18" r="819.2" spreadMethod="pad">
      <stop offset="0.0" stop-color="#121111"/>
      <stop offset="1.0" stop-color="#121111"/>
    </radialGradient>
    <radialGradient cx="0" cy="0" gradientTransform="matrix(0.0129, 0.0, 0.0, 0.0129, 6.85, -46.8)" gradientUnits="userSpaceOnUse" id="gradient19" r="819.2" spreadMethod="pad">
      <stop offset="0.0" stop-color="#331a00"/>
      <stop offset="1.0" stop-color="#331a00"/>
    </radialGradient>
    <radialGradient cx="0" cy="0" gradientTransform="matrix(0.0205, 0.0, 0.0, 0.0205, 6.6, -41.05)" gradientUnits="userSpaceOnUse" id="gradient20" r="819.2" spreadMethod="pad">
      <stop offset="0.0" stop-color="#474033"/>
      <stop offset="1.0" stop-color="#363127"/>
    </radialGradient>
    <radialGradient cx="0" cy="0" gradientTransform="matrix(0.0028, 0.0, 0.0, 0.0028, 6.7, -40.35)" gradientUnits="userSpaceOnUse" id="gradient21" r="819.2" spreadMethod="pad">
      <stop offset="0.0" stop-color="#fbfbfb"/>
      <stop offset="1.0" stop-color="#bdbdbd"/>
    </radialGradient>
    <radialGradient cx="0" cy="0" gradientTransform="matrix(0.0076, 0.0, 0.0, 0.0076, 4.55, -35.45)" gradientUnits="userSpaceOnUse" id="gradient22" r="819.2" spreadMethod="pad">
      <stop offset="0.0" stop-color="#625847"/>
      <stop offset="1.0" stop-color="#393429"/>
    </radialGradient>
    <radialGradient cx="0" cy="0" gradientTransform="matrix(0.0023, 0.0, 0.0, 0.0023, 3.7, -38.3)" gradientUnits="userSpaceOnUse" id="gradient23" r="819.2" spreadMethod="pad">
      <stop offset="0.0" stop-color="#cccccc"/>
      <stop offset="1.0" stop-color="#a0a0a0"/>
    </radialGradient>
    <radialGradient cx="0" cy="0" gradientTransform="matrix(0.0038, 0.0, 0.0, 0.0038, 2.95, -35.55)" gradientUnits="userSpaceOnUse" id="gradient24" r="819.2" spreadMethod="pad">
      <stop offset="0.0" stop-color="#ffc400"/>
      <stop offset="1.0" stop-color="#f18200"/>
    </radialGradient>
    <radialGradient cx="0" cy="0" gradientTransform="matrix(0.0076, 0.0, 0.0, 0.0076, -3.7, -42.85)" gradientUnits="userSpaceOnUse" id="gradient25" r="819.2" spreadMethod="pad">
      <stop offset="0.0" stop-color="#484134"/>
      <stop offset="1.0" stop-color="#3f392e"/>
    </radialGradient>
    <radialGradient cx="0" cy="0" gradientTransform="matrix(0.0041, 0.0, 0.0, 0.0041, 10.65, -41.1)" gradientUnits="userSpaceOnUse" id="gradient26" r="819.2" spreadMethod="pad">
      <stop offset="0.0" stop-color="#fdfdfd"/>
      <stop offset="1.0" stop-color="#aaaaaa"/>
    </radialGradient>
    <radialGradient cx="0" cy="0" gradientTransform="matrix(0.0088, 0.0, 0.0, 0.0088, 2.45, -35.0)" gradientUnits="userSpaceOnUse" id="gradient27" r="819.2" spreadMethod="pad">
      <stop offset="0.0" stop-color="#ffc873"/>
      <stop offset="1.0" stop-color="#a97a46"/>
    </radialGradient>
    <radialGradient cx="0" cy="0" gradientTransform="matrix(0.0033, 0.0, 0.0, 0.0033, 2.65, -32.3)" gradientUnits="userSpaceOnUse" id="gradient28" r="819.2" spreadMethod="pad">
      <stop offset="0.0" stop-color="#ffbb00"/>
      <stop offset="1.0" stop-color="#be5f00"/>
    </radialGradient>
    <radialGradient cx="0" cy="0" gradientTransform="matrix(0.0045, 0.0, 0.0, 0.0045, 7.1, -32.25)" gradientUnits="userSpaceOnUse" id="gradient29" r="819.2" spreadMethod="pad">
      <stop offset="0.0" stop-color="#fdfdfd"/>
      <stop offset="1.0" stop-color="#b0b0b0"/>
    </radialGradient>
    <radialGradient cx="0" cy="0" gradientTransform="matrix(0.0018, 0.0, 0.0, 0.0018, 9.3, -32.5)" gradientUnits="userSpaceOnUse" id="gradient30" r="819.2" spreadMethod="pad">
      <stop offset="0.0" stop-color="#292929"/>
      <stop offset="1.0" stop-color="#202020"/>
    </radialGradient>
    <radialGradient cx="0" cy="0" gradientTransform="matrix(0.0099, 0.0, 0.0, 0.0099, 5.35, -29.4)" gradientUnits="userSpaceOnUse" id="gradient31" r="819.2" spreadMethod="pad">
      <stop offset="0.0" stop-color="#ffde7f"/>
      <stop offset="1.0" stop-color="#986e3f"/>
    </radialGradient>
    <radialGradient cx="0" cy="0" gradientTransform="matrix(0.0127, 0.0, 0.0, 0.0127, 7.6, -24.8)" gradientUnits="userSpaceOnUse" id="gradient32" r="819.2" spreadMethod="pad">
      <stop offset="0.0" stop-color="#0c0b09"/>
      <stop offset="1.0" stop-color="#0c0b09"/>
    </radialGradient>
    <radialGradient cx="0" cy="0" gradientTransform="matrix(0.0124, 0.0, 0.0, 0.0124, 3.85, -29.95)" gradientUnits="userSpaceOnUse" id="gradient33" r="819.2" spreadMethod="pad">
      <stop offset="0.0" stop-color="#ffde7f"/>
      <stop offset="1.0" stop-color="#9d7141"/>
    </radialGradient>
    <radialGradient cx="0" cy="0" gradientTransform="matrix(0.0145, 0.0, 0.0, 0.0145, -5.2, -23.7)" gradientUnits="userSpaceOnUse" id="gradient34" r="819.2" spreadMethod="pad">
      <stop offset="0.0" stop-color="#364066"/>
      <stop offset="1.0" stop-color="#272f4b"/>
    </radialGradient>
    <radialGradient cx="0" cy="0" gradientTransform="matrix(0.0105, 0.0, 0.0, 0.0105, -12.3, -22.6)" gradientUnits="userSpaceOnUse" id="gradient35" r="819.2" spreadMethod="pad">
      <stop offset="0.0" stop-color="#331a00"/>
      <stop offset="1.0" stop-color="#331a00"/>
    </radialGradient>
    <radialGradient cx="0" cy="0" gradientTransform="matrix(0.0058, 0.0, 0.0, 0.0058, 7.05, -23.0)" gradientUnits="userSpaceOnUse" id="gradient36" r="819.2" spreadMethod="pad">
      <stop offset="0.0" stop-color="#ffffff"/>
      <stop offset="1.0" stop-color="#adadad"/>
    </radialGradient>
    <radialGradient cx="0" cy="0" gradientTransform="matrix(0.0111, 0.0, 0.0, 0.0111, -0.9, -19.95)" gradientUnits="userSpaceOnUse" id="gradient37" r="819.2" spreadMethod="pad">
      <stop offset="0.0" stop-color="#3b4670"/>
      <stop offset="1.0" stop-color="#232a43"/>
    </radialGradient>
    <radialGradient cx="0" cy="0" gradientTransform="matrix(0.0144, 0.0, 0.0, 0.0144, 3.7, -21.85)" gradientUnits="userSpaceOnUse" id="gradient38" r="819.2" spreadMethod="pad">
      <stop offset="0.0" stop-color="#675d4b"/>
      <stop offset="1.0" stop-color="#342f25"/>
    </radialGradient>
    <radialGradient cx="0" cy="0" gradientTransform="matrix(0.0028, 0.0, 0.0, 0.0028, 4.4, -21.65)" gradientUnits="userSpaceOnUse" id="gradient39" r="819.2" spreadMethod="pad">
      <stop offset="0.0" stop-color="#ffa800"/>
      <stop offset="1.0" stop-color="#ea7600"/>
    </radialGradient>
    <radialGradient cx="0" cy="0" gradientTransform="matrix(0.0197, 0.0, 0.0, 0.0197, -2.05, -24.0)" gradientUnits="userSpaceOnUse" id="gradient40" r="819.2" spreadMethod="pad">
      <stop offset="0.0" stop-color="#404b79"/>
      <stop offset="1.0" stop-color="#222840"/>
    </radialGradient>
    <radialGradient cx="0" cy="0" gradientTransform="matrix(0.0042, 0.0, 0.0, 0.0042, -3.95, -13.35)" gradientUnits="userSpaceOnUse" id="gradient41" r="819.2" spreadMethod="pad">
      <stop offset="0.0" stop-color="#ffea86"/>
      <stop offset="1.0" stop-color="#c38d50"/>
    </radialGradient>
    <radialGradient cx="0" cy="0" gradientTransform="matrix(0.0113, 0.0, 0.0, 0.0113, -0.15, -21.6)" gradientUnits="userSpaceOnUse" id="gradient42" r="819.2" spreadMethod="pad">
      <stop offset="0.0" stop-color="#ffdb00"/>
      <stop offset="1.0" stop-color="#e37a00"/>
    </radialGradient>
    <radialGradient cx="0" cy="0" gradientTransform="matrix(0.0018, 0.0, 0.0, 0.0018, 4.05, -21.6)" gradientUnits="userSpaceOnUse" id="gradient43" r="819.2" spreadMethod="pad">
      <stop offset="0.0" stop-color="#363027"/>
      <stop offset="1.0" stop-color="#322d24"/>
    </radialGradient>
    <radialGradient cx="0" cy="0" gradientTransform="matrix(0.0123, 0.0, 0.0, 0.0123, -8.95, -16.95)" gradientUnits="userSpaceOnUse" id="gradient44" r="819.2" spreadMethod="pad">
      <stop offset="0.0" stop-color="#3f4b77"/>
      <stop offset="1.0" stop-color="#252c48"/>
    </radialGradient>
    <radialGradient cx="0" cy="0" gradientTransform="matrix(0.0141, 0.0, 0.0, 0.0141, -9.6, -11.25)" gradientUnits="userSpaceOnUse" id="gradient45" r="819.2" spreadMethod="pad">
      <stop offset="0.0" stop-color="#414d7b"/>
      <stop offset="1.0" stop-color="#1e2338"/>
    </radialGradient>
    <radialGradient cx="0" cy="0" gradientTransform="matrix(0.0109, 0.0, 0.0, 0.0109, -8.75, -2.95)" gradientUnits="userSpaceOnUse" id="gradient46" r="819.2" spreadMethod="pad">
      <stop offset="0.0" stop-color="#3f4a77"/>
      <stop offset="1.0" stop-color="#1b2134"/>
    </radialGradient>
    <radialGradient cx="0" cy="0" gradientTransform="matrix(0.0075, 0.0, 0.0, 0.0075, -12.0, 7.85)" gradientUnits="userSpaceOnUse" id="gradient47" r="819.2" spreadMethod="pad">
      <stop offset="0.0" stop-color="#756955"/>
      <stop offset="1.0" stop-color="#5b5142"/>
    </radialGradient>
    <radialGradient cx="0" cy="0" gradientTransform="matrix(0.0078, 0.0, 0.0, 0.0078, -12.4, 8.4)" gradientUnits="userSpaceOnUse" id="gradient48" r="819.2" spreadMethod="pad">
      <stop offset="0.0" stop-color="#ac9d9d"/>
      <stop offset="1.0" stop-color="#4e4747"/>
    </radialGradient>
    <radialGradient cx="0" cy="0" gradientTransform="matrix(0.0036, 0.0, 0.0, 0.0036, -15.05, 9.7)" gradientUnits="userSpaceOnUse" id="gradient49" r="819.2" spreadMethod="pad">
      <stop offset="0.0" stop-color="#514a4a"/>
      <stop offset="1.0" stop-color="#4f4848"/>
    </radialGradient>
    <radialGradient cx="0" cy="0" gradientTransform="matrix(0.0057, 0.0, 0.0, 0.0057, 4.95, -18.6)" gradientUnits="userSpaceOnUse" id="gradient50" r="819.2" spreadMethod="pad">
      <stop offset="0.0" stop-color="#413a2f"/>
      <stop offset="1.0" stop-color="#363027"/>
    </radialGradient>
    <radialGradient cx="0" cy="0" gradientTransform="matrix(0.0101, 0.0, 0.0, 0.0101, 1.65, -12.35)" gradientUnits="userSpaceOnUse" id="gradient51" r="819.2" spreadMethod="pad">
      <stop offset="0.0" stop-color="#3e4976"/>
      <stop offset="1.0" stop-color="#181c2d"/>
    </radialGradient>
    <radialGradient cx="0" cy="0" gradientTransform="matrix(0.0045, 0.0, 0.0, 0.0045, -3.6, -11.8)" gradientUnits="userSpaceOnUse" id="gradient52" r="819.2" spreadMethod="pad">
      <stop offset="0.0" stop-color="#ffe985"/>
      <stop offset="1.0" stop-color="#996e3f"/>
    </radialGradient>
    <radialGradient cx="0" cy="0" gradientTransform="matrix(0.0049, 0.0, 0.0, 0.0049, 7.45, -15.2)" gradientUnits="userSpaceOnUse" id="gradient53" r="819.2" spreadMethod="pad">
      <stop offset="0.0" stop-color="#2b271f"/>
      <stop offset="1.0" stop-color="#26221c"/>
    </radialGradient>
    <radialGradient cx="0" cy="0" gradientTransform="matrix(0.0102, 0.0, 0.0, 0.0102, 4.6, -7.3)" gradientUnits="userSpaceOnUse" id="gradient54" r="819.2" spreadMethod="pad">
      <stop offset="0.0" stop-color="#3e4975"/>
      <stop offset="1.0" stop-color="#181c2d"/>
    </radialGradient>
    <radialGradient cx="0" cy="0" gradientTransform="matrix(0.0114, 0.0, 0.0, 0.0114, 10.35, -7.95)" gradientUnits="userSpaceOnUse" id="gradient55" r="819.2" spreadMethod="pad">
      <stop offset="0.0" stop-color="#38426a"/>
      <stop offset="1.0" stop-color="#1c2135"/>
    </radialGradient>
    <radialGradient cx="0" cy="0" gradientTransform="matrix(0.0111, 0.0, 0.0, 0.0111, 10.4, -2.3)" gradientUnits="userSpaceOnUse" id="gradient56" r="819.2" spreadMethod="pad">
      <stop offset="0.0" stop-color="#a59696"/>
      <stop offset="1.0" stop-color="#574f4f"/>
    </radialGradient>
    <radialGradient cx="0" cy="0" gradientTransform="matrix(0.0033, 0.0, 0.0, 0.0033, 14.85, -7.85)" gradientUnits="userSpaceOnUse" id="gradient57" r="819.2" spreadMethod="pad">
      <stop offset="0.0" stop-color="#ff9600"/>
      <stop offset="1.0" stop-color="#cc6700"/>
    </radialGradient>
    <radialGradient cx="0" cy="0" gradientTransform="matrix(0.0022, 0.0, 0.0, 0.0022, -15.7, 7.65)" gradientUnits="userSpaceOnUse" id="gradient58" r="819.2" spreadMethod="pad">
      <stop offset="0.0" stop-color="#373228"/>
      <stop offset="1.0" stop-color="#373228"/>
    </radialGradient>
    <radialGradient cx="0" cy="0" gradientTransform="matrix(0.0025, 0.0, 0.0, 0.0025, -10.3, 5.05)" gradientUnits="userSpaceOnUse" id="gradient59" r="819.2" spreadMethod="pad">
      <stop offset="0.0" stop-color="#ff9500"/>
      <stop offset="1.0" stop-color="#bc5e00"/>
    </radialGradient>
  </defs>
</svg>
