<?xml version="1.0" encoding="UTF-8" standalone="no"?>
<svg xmlns:ffdec="https://www.free-decompiler.com/flash" xmlns:xlink="http://www.w3.org/1999/xlink" ffdec:objectType="shape" height="71.2px" width="39.3px" xmlns="http://www.w3.org/2000/svg">
  <g transform="matrix(1.0, 0.0, 0.0, 1.0, 18.6, 57.8)">
    <path d="M0.55 -48.8 Q-3.85 -48.6 -6.15 -52.0 L-6.6 -52.75 -5.8 -55.45 Q-4.55 -58.65 1.15 -57.5 L3.5 -55.1 Q3.9 -54.95 4.25 -53.1 L4.35 -52.65 3.75 -50.45 1.15 -48.85 1.1 -48.85 0.55 -48.8" fill="url(#gradient0)" fill-rule="evenodd" stroke="none"/>
    <path d="M-5.8 -55.45 L-6.6 -52.75 -6.15 -52.0 Q-3.85 -48.6 0.55 -48.8 -4.7 -48.45 -6.6 -52.0 L-6.9 -52.8 -6.7 -54.35 -5.8 -55.45 M1.15 -48.85 L3.75 -50.45 4.35 -52.65 4.25 -53.1 4.55 -52.45 4.4 -51.05 3.6 -49.85 Q2.65 -49.1 1.15 -48.85" fill="url(#gradient1)" fill-rule="evenodd" stroke="none"/>
    <path d="M-6.9 -52.8 L-6.6 -52.0 Q-4.7 -48.45 0.55 -48.8 L1.1 -48.85 1.15 -48.85 Q2.65 -49.1 3.6 -49.85 L4.4 -51.05 4.35 -50.5 4.3 -50.2 Q2.65 -48.25 -0.25 -47.55 L-0.65 -46.6 -2.45 -46.35 Q-3.8 -46.55 -4.8 -47.25 L-4.85 -47.3 -4.9 -47.3 -4.95 -47.4 -5.6 -47.75 Q-7.0 -48.9 -7.15 -50.25 L-6.9 -52.8" fill="url(#gradient2)" fill-rule="evenodd" stroke="none"/>
    <path d="M-6.0 -46.5 L-5.6 -47.75 -4.95 -47.4 -4.9 -47.3 -4.85 -47.3 -4.8 -47.25 Q-3.8 -46.55 -2.45 -46.35 L-0.65 -46.6 -0.65 -45.75 Q0.3 -44.3 0.75 -44.1 -4.9 -45.7 -5.15 -46.8 L-6.0 -46.5 M0.95 -44.0 L0.85 -44.05 1.0 -44.15 0.95 -44.0 M4.3 -50.2 L4.35 -50.5 4.9 -50.25 5.1 -50.05 4.3 -50.2" fill="url(#gradient3)" fill-rule="evenodd" stroke="none"/>
    <path d="M-6.0 -46.5 L-5.15 -46.8 Q-4.9 -45.7 0.75 -44.1 L0.85 -44.05 0.95 -44.0 0.65 -42.75 1.65 -40.75 2.4 -40.5 2.6 -40.1 3.4 -38.45 3.75 -36.7 3.25 -36.55 2.2 -36.15 1.7 -36.4 0.0 -36.55 Q-0.4 -36.3 -0.85 -37.45 L-1.7 -37.05 -2.2 -37.7 -2.55 -37.15 -3.05 -37.3 -3.55 -37.7 -3.55 -37.2 -4.7 -39.4 -5.2 -40.1 -5.35 -40.25 -6.0 -41.6 -6.5 -41.4 -6.9 -41.85 -7.15 -41.9 -7.4 -42.25 Q-7.55 -43.8 -7.15 -44.5 L-6.0 -46.5 M6.55 -46.75 L6.75 -48.45 Q5.25 -50.6 5.1 -50.05 L4.9 -50.25 8.75 -49.4 10.2 -47.15 10.9 -43.95 Q10.95 -42.5 10.0 -40.3 L9.9 -41.15 9.0 -43.35 Q9.25 -46.45 6.55 -46.75" fill="url(#gradient4)" fill-rule="evenodd" stroke="none"/>
    <path d="M2.4 -40.5 L1.65 -40.75 1.8 -40.95 0.65 -42.75 0.95 -44.0 1.0 -44.15 Q3.95 -44.15 6.55 -46.75 9.25 -46.45 9.0 -43.35 L8.75 -42.35 8.45 -42.0 6.95 -41.15 4.55 -40.1 4.4 -40.05 4.3 -40.0 3.65 -40.1 2.4 -40.5" fill="url(#gradient5)" fill-rule="evenodd" stroke="none"/>
    <path d="M0.75 -44.1 Q0.3 -44.3 -0.65 -45.75 L-0.65 -46.6 -0.25 -47.55 Q2.65 -48.25 4.3 -50.2 L5.1 -50.05 Q5.25 -50.6 6.75 -48.45 L6.55 -46.75 Q3.95 -44.15 1.0 -44.15 L0.85 -44.05 0.75 -44.1" fill="url(#gradient6)" fill-rule="evenodd" stroke="none"/>
    <path d="M10.9 -43.95 L10.2 -47.15 Q14.0 -47.1 15.85 -42.5 16.0 -41.1 14.3 -40.1 L14.05 -39.8 12.15 -38.75 12.25 -40.1 12.2 -40.75 10.9 -43.95 M14.6 -38.45 L15.45 -39.2 15.25 -38.75 15.1 -38.5 14.6 -38.45" fill="url(#gradient7)" fill-rule="evenodd" stroke="none"/>
    <path d="M12.15 -38.75 L12.05 -37.05 11.95 -35.6 11.9 -34.4 10.75 -29.25 10.4 -36.85 10.0 -40.1 10.0 -40.3 Q10.95 -42.5 10.9 -43.95 L12.2 -40.75 12.25 -40.1 12.15 -38.75 M10.05 -9.35 L11.2 -4.85 9.65 -9.2 10.05 -9.35" fill="url(#gradient8)" fill-rule="evenodd" stroke="none"/>
    <path d="M3.75 -36.7 L3.4 -38.45 2.6 -40.1 2.4 -40.5 3.65 -40.1 4.3 -40.0 4.4 -40.05 Q5.2 -40.0 6.55 -28.25 6.7 -25.3 7.8 -19.5 L8.95 -15.45 Q9.7 -15.65 10.1 -16.4 L10.6 -17.65 10.9 -17.9 10.9 -18.2 10.4 -22.2 9.65 -36.65 9.1 -40.1 8.45 -42.0 8.75 -42.35 9.0 -43.35 9.9 -41.15 10.0 -40.3 10.0 -40.1 10.4 -36.85 10.75 -29.25 Q10.75 -24.3 11.4 -18.0 L12.35 -13.45 Q11.2 -9.55 10.05 -9.35 L9.65 -9.2 9.1 -8.85 7.4 -14.8 6.3 -20.55 5.25 -27.65 5.2 -27.8 5.2 -27.95 5.2 -28.25 5.0 -29.75 4.45 -33.6 3.75 -36.7" fill="url(#gradient9)" fill-rule="evenodd" stroke="none"/>
    <path d="M-7.4 -42.25 L-7.15 -41.9 Q-8.05 -40.75 -9.35 -41.6 L-9.05 -44.35 -7.4 -42.25" fill="url(#gradient10)" fill-rule="evenodd" stroke="none"/>
    <path d="M-7.15 -41.9 L-6.9 -41.85 -6.5 -41.4 -7.35 -40.75 -7.6 -40.1 Q-6.35 -37.85 -5.35 -40.1 L-5.35 -40.25 -5.2 -40.1 -4.7 -39.4 -3.55 -37.2 -3.45 -36.7 -4.65 -37.9 Q-5.55 -38.1 -5.85 -37.05 -5.8 -34.85 -3.45 -36.55 L-3.45 -36.4 -3.5 -36.0 Q-3.9 -35.95 -4.7 -33.9 L-4.75 -33.55 -4.55 -33.3 -5.55 -32.35 -6.25 -31.95 -7.6 -31.7 -8.8 -31.8 -10.1 -32.25 -11.05 -33.15 -10.7 -33.15 -10.55 -33.5 -10.85 -34.65 -11.65 -35.5 -11.85 -35.55 -12.2 -35.3 -12.3 -35.7 Q-13.1 -39.4 -9.35 -41.6 -8.05 -40.75 -7.15 -41.9" fill="url(#gradient11)" fill-rule="evenodd" stroke="none"/>
    <path d="M-12.3 -35.7 L-12.2 -35.3 -12.8 -34.45 -12.8 -34.05 -12.6 -33.75 Q-14.65 -31.7 -13.45 -29.05 L-13.95 -30.1 Q-14.35 -34.15 -12.3 -35.7 M-8.05 -31.55 L-7.8 -31.55 -8.05 -30.95 -8.05 -31.55" fill="url(#gradient12)" fill-rule="evenodd" stroke="none"/>
    <path d="M-13.45 -29.05 L-13.0 -28.25 -12.55 -27.8 -12.5 -27.15 -12.15 -26.4 -11.7 -25.6 -12.15 -25.3 -13.9 -24.8 Q-18.05 -25.2 -15.95 -28.25 L-15.55 -28.9 -14.65 -29.65 -13.95 -30.1 -13.45 -29.05" fill="url(#gradient13)" fill-rule="evenodd" stroke="none"/>
    <path d="M-15.55 -28.9 L-15.6 -29.0 -15.55 -29.2 -15.8 -29.5 -15.45 -29.65 -14.65 -29.65 -15.55 -28.9" fill="url(#gradient14)" fill-rule="evenodd" stroke="none"/>
    <path d="M-15.8 -29.5 L-15.55 -29.2 -15.6 -29.0 -15.55 -28.9 -15.95 -28.25 Q-18.05 -25.2 -13.9 -24.8 -17.45 -23.05 -18.5 -25.65 -19.2 -29.15 -15.8 -29.5" fill="url(#gradient15)" fill-rule="evenodd" stroke="none"/>
    <path d="M-8.25 -24.9 L-7.5 -24.85 -7.95 -24.15 -8.2 -24.05 Q-10.0 -23.4 -11.7 -25.6 L-12.15 -26.4 -11.15 -26.35 -10.2 -26.5 -9.55 -26.45 -8.8 -25.2 -8.25 -24.9" fill="url(#gradient16)" fill-rule="evenodd" stroke="none"/>
    <path d="M-12.55 -27.8 L-11.65 -27.3 -10.55 -27.4 -10.2 -26.5 -11.15 -26.35 -12.15 -26.4 -12.5 -27.15 -12.55 -27.8" fill="url(#gradient17)" fill-rule="evenodd" stroke="none"/>
    <path d="M-11.05 -33.15 L-10.1 -32.25 -8.8 -31.8 -8.05 -31.55 -8.05 -30.95 -8.1 -30.3 -8.6 -28.95 -9.35 -27.95 -10.55 -27.4 -11.65 -27.3 -12.55 -27.8 -13.0 -28.25 -13.45 -29.05 Q-14.65 -31.7 -12.6 -33.75 L-12.0 -33.3 -11.2 -33.15 -11.05 -33.15" fill="url(#gradient18)" fill-rule="evenodd" stroke="none"/>
    <path d="M-12.2 -35.3 L-11.85 -35.55 -11.65 -35.5 -10.85 -34.65 -10.55 -33.5 -10.7 -33.15 -11.05 -33.15 -11.2 -33.15 -12.0 -33.3 -12.6 -33.75 -12.8 -34.05 -12.8 -34.45 -12.2 -35.3" fill="url(#gradient19)" fill-rule="evenodd" stroke="none"/>
    <path d="M-4.55 -33.3 L-4.35 -33.35 -4.95 -32.6 -5.35 -32.3 -5.55 -32.35 -4.55 -33.3 M-3.35 -36.4 L-3.45 -36.4 -3.45 -36.55 -3.4 -36.6 -3.35 -36.4 M-8.8 -31.8 L-7.6 -31.7 -7.35 -31.55 -7.8 -31.55 -8.05 -31.55 -8.8 -31.8 M-11.2 -33.15 L-11.05 -33.15 -11.2 -33.15" fill="url(#gradient20)" fill-rule="evenodd" stroke="none"/>
    <path d="M1.65 -40.75 L0.65 -42.75 1.8 -40.95 1.65 -40.75" fill="url(#gradient21)" fill-rule="evenodd" stroke="none"/>
    <path d="M3.25 -36.55 L3.75 -36.7 4.45 -33.6 5.0 -29.75 4.8 -29.7 3.25 -36.55 M-4.35 -33.35 L-4.05 -33.4 -3.4 -33.9 -3.0 -34.8 -2.4 -32.15 -2.1 -28.25 -2.1 -27.95 -2.75 -28.25 Q-3.5 -28.45 -3.75 -30.25 L-4.1 -30.5 -5.5 -31.85 -4.95 -32.6 -4.35 -33.35" fill="url(#gradient22)" fill-rule="evenodd" stroke="none"/>
    <path d="M-3.55 -37.2 L-3.55 -37.7 -3.05 -37.3 -2.55 -37.15 -2.2 -37.7 -1.7 -37.05 -0.85 -37.45 Q-0.4 -36.3 0.0 -36.55 L1.7 -36.4 2.2 -36.15 3.25 -36.55 4.8 -29.7 5.1 -28.25 5.2 -27.95 5.2 -27.8 5.25 -27.65 6.3 -20.55 7.4 -14.8 9.1 -8.85 9.65 -9.2 11.2 -4.85 12.9 -0.2 13.7 1.5 13.5 1.5 12.9 1.65 12.75 1.7 10.45 2.35 7.15 -1.7 4.05 -5.5 3.3 -6.85 0.7 -11.8 0.4 -12.45 -1.15 -18.5 -1.35 -20.0 -1.8 -24.85 -2.1 -27.95 -2.1 -28.25 -2.4 -32.15 -3.0 -34.8 -3.35 -36.4 -3.4 -36.6 -3.45 -36.7 -3.55 -37.2" fill="url(#gradient23)" fill-rule="evenodd" stroke="none"/>
    <path d="M-6.5 -41.4 L-6.0 -41.6 -5.35 -40.25 -5.35 -40.1 Q-6.35 -37.85 -7.6 -40.1 L-7.35 -40.75 -6.5 -41.4" fill="url(#gradient24)" fill-rule="evenodd" stroke="none"/>
    <path d="M12.15 -38.75 L14.05 -39.8 14.3 -40.1 Q16.0 -41.1 15.85 -42.5 L16.45 -41.35 16.4 -40.55 16.15 -40.1 16.05 -39.8 15.45 -39.2 14.6 -38.45 13.15 -37.35 12.05 -37.05 12.15 -38.75" fill="url(#gradient25)" fill-rule="evenodd" stroke="none"/>
    <path d="M8.45 -42.0 L9.1 -40.1 9.65 -36.65 10.4 -22.2 10.9 -18.2 10.9 -17.9 10.6 -17.65 10.1 -16.4 Q9.7 -15.65 8.95 -15.45 L7.8 -19.5 Q6.7 -25.3 6.55 -28.25 5.2 -40.0 4.4 -40.05 L4.55 -40.1 6.95 -41.15 8.45 -42.0" fill="url(#gradient26)" fill-rule="evenodd" stroke="none"/>
    <path d="M15.45 -39.2 L16.05 -39.8 16.15 -40.1 16.4 -40.55 Q20.3 -36.2 18.75 -33.15 L18.55 -33.4 17.95 -34.9 16.9 -35.7 15.6 -37.9 15.25 -38.75 15.45 -39.2" fill="url(#gradient27)" fill-rule="evenodd" stroke="none"/>
    <path d="M16.25 -30.9 L16.45 -31.0 17.1 -32.1 17.45 -31.6 18.1 -31.4 17.55 -29.65 17.05 -30.0 16.25 -30.9 M19.15 -32.1 L18.65 -32.0 18.55 -33.4 18.75 -33.15 19.1 -32.35 19.15 -32.1" fill="url(#gradient28)" fill-rule="evenodd" stroke="none"/>
    <path d="M17.1 -32.1 L16.9 -35.7 17.95 -34.9 18.55 -33.4 18.65 -32.0 18.1 -31.4 17.45 -31.6 17.1 -32.1" fill="url(#gradient29)" fill-rule="evenodd" stroke="none"/>
    <path d="M12.05 -37.05 L13.15 -37.35 14.6 -38.45 15.1 -38.5 15.6 -37.9 16.9 -35.7 17.1 -32.1 16.45 -31.0 16.25 -30.9 15.1 -31.15 14.1 -31.85 14.05 -31.85 14.0 -31.95 13.95 -32.05 13.8 -32.2 13.0 -33.3 11.95 -35.6 12.05 -37.05" fill="url(#gradient30)" fill-rule="evenodd" stroke="none"/>
    <path d="M14.1 -31.85 L15.1 -31.15 14.85 -31.0 14.1 -31.85 M15.6 -37.9 L15.1 -38.5 15.25 -38.75 15.6 -37.9" fill="url(#gradient31)" fill-rule="evenodd" stroke="none"/>
    <path d="M-3.45 -36.55 Q-5.8 -34.85 -5.85 -37.05 -5.55 -38.1 -4.65 -37.9 L-3.45 -36.7 -3.4 -36.6 -3.45 -36.55" fill="url(#gradient32)" fill-rule="evenodd" stroke="none"/>
    <path d="M5.2 -27.95 L5.1 -28.25 4.8 -29.7 5.0 -29.75 5.2 -28.25 5.2 -27.95 M-5.5 -27.75 L-4.9 -29.2 -4.1 -30.5 -3.75 -30.25 Q-3.5 -28.45 -2.75 -28.25 L-2.1 -27.95 -1.8 -24.85 -2.9 -24.3 -3.05 -24.3 -3.2 -24.65 -3.65 -24.5 -4.5 -25.1 -4.9 -25.55 -5.2 -25.95 -5.55 -26.75 -5.5 -27.75" fill="url(#gradient33)" fill-rule="evenodd" stroke="none"/>
    <path d="M-4.55 -33.3 L-4.75 -33.55 -4.7 -33.9 Q-3.9 -35.95 -3.5 -36.0 L-3.45 -36.4 -3.35 -36.4 -3.0 -34.8 -3.4 -33.9 -4.05 -33.4 -4.35 -33.35 -4.55 -33.3" fill="url(#gradient34)" fill-rule="evenodd" stroke="none"/>
    <path d="M20.35 -30.4 L19.35 -29.5 17.55 -29.65 18.1 -31.4 18.65 -32.0 19.15 -32.1 19.3 -32.2 19.7 -32.85 19.75 -34.15 19.9 -33.95 Q20.55 -32.5 20.55 -31.65 L20.35 -30.4" fill="url(#gradient35)" fill-rule="evenodd" stroke="none"/>
    <path d="M15.1 -31.15 L16.25 -30.9 17.05 -30.0 17.55 -29.65 19.35 -29.5 20.35 -30.4 Q20.7 -30.45 20.7 -27.95 L19.85 -25.05 19.75 -24.7 19.75 -24.55 Q19.0 -21.9 17.3 -23.8 L17.3 -23.85 17.25 -23.85 16.6 -25.35 16.55 -25.35 16.3 -26.25 14.75 -28.75 14.6 -30.0 14.85 -31.0 15.1 -31.15 M19.3 -32.2 L19.15 -32.1 19.1 -32.35 19.3 -32.2" fill="url(#gradient36)" fill-rule="evenodd" stroke="none"/>
    <path d="M-8.05 -30.95 L-7.8 -31.55 -7.35 -31.55 -6.3 -31.4 -6.7 -29.6 Q-7.25 -28.3 -8.4 -27.9 L-8.3 -28.25 -8.3 -28.6 -8.6 -28.95 -8.1 -30.3 -8.05 -30.95" fill="url(#gradient37)" fill-rule="evenodd" stroke="none"/>
    <path d="M-7.6 -31.7 L-6.25 -31.95 -5.55 -32.35 -5.35 -32.3 -4.95 -32.6 -5.5 -31.85 -6.3 -31.4 -7.35 -31.55 -7.6 -31.7" fill="url(#gradient38)" fill-rule="evenodd" stroke="none"/>
    <path d="M-10.55 -27.4 L-9.35 -27.95 -8.6 -28.95 -8.3 -28.6 -8.3 -28.25 -8.4 -27.9 -8.6 -27.25 Q-8.95 -26.65 -9.55 -26.45 L-10.2 -26.5 -10.55 -27.4" fill="url(#gradient39)" fill-rule="evenodd" stroke="none"/>
    <path d="M-5.5 -27.75 L-5.55 -26.75 -5.2 -25.95 -4.9 -25.55 -4.7 -25.15 -4.5 -25.1 -3.65 -24.5 -2.3 -22.45 -1.35 -20.0 -1.15 -18.5 -1.75 -18.05 Q-2.35 -16.85 -2.95 -16.4 L-3.55 -15.6 Q-5.1 -14.8 -5.0 -15.15 L-5.05 -15.2 -5.15 -15.2 -5.2 -15.25 -5.3 -15.25 -5.35 -15.3 -5.4 -15.3 -5.45 -15.3 -5.5 -15.35 -5.6 -15.35 -5.6 -15.4 -4.95 -16.2 -4.95 -16.4 Q-3.4 -17.65 -5.0 -23.8 -4.95 -24.3 -6.05 -25.0 L-6.5 -26.65 -6.7 -26.65 -7.4 -25.75 -7.5 -26.65 Q-7.55 -27.0 -5.95 -27.8 L-5.5 -27.75" fill="url(#gradient40)" fill-rule="evenodd" stroke="none"/>
    <path d="M-7.55 -26.65 L-7.5 -26.65 -7.55 -26.65" fill="url(#gradient41)" fill-rule="evenodd" stroke="none"/>
    <path d="M-7.5 -26.65 L-7.4 -25.75 -6.7 -26.65 -6.5 -26.65 -6.05 -25.0 Q-4.95 -24.3 -5.0 -23.8 -3.4 -17.65 -4.95 -16.4 L-4.95 -16.2 -5.6 -15.4 -5.65 -15.4 -6.5 -15.85 -6.8 -16.4 -7.25 -17.55 -7.75 -18.15 Q-9.75 -21.55 -8.2 -24.05 L-7.95 -24.15 -7.5 -24.85 -8.25 -24.9 -7.55 -26.65 -7.5 -26.65 M-5.4 -15.3 L-5.35 -15.3 -5.35 -15.25 -5.4 -15.3 M-5.2 -15.25 L-5.2 -15.2 -5.2 -15.25" fill="url(#gradient42)" fill-rule="evenodd" stroke="none"/>
    <path d="M19.75 -24.55 L19.75 -24.7 19.85 -25.05 19.85 -24.65 19.75 -24.55" fill="url(#gradient43)" fill-rule="evenodd" stroke="none"/>
    <path d="M16.55 -25.35 L16.6 -25.35 16.45 -25.3 16.55 -25.35 M17.3 -23.8 Q19.0 -21.9 19.75 -24.55 L19.85 -24.65 Q21.55 -22.25 19.25 -20.45 16.15 -19.3 15.1 -21.9 14.85 -22.6 17.25 -23.8 L17.3 -23.8" fill="url(#gradient44)" fill-rule="evenodd" stroke="none"/>
    <path d="M16.6 -25.35 L17.25 -23.85 17.25 -23.8 Q14.85 -22.6 15.1 -21.9 13.75 -24.45 16.45 -25.3 L16.6 -25.35" fill="url(#gradient45)" fill-rule="evenodd" stroke="none"/>
    <path d="M-4.9 -25.55 L-4.5 -25.1 -4.7 -25.15 -4.9 -25.55 M-3.65 -24.5 L-3.2 -24.65 -3.05 -24.3 -2.9 -24.3 -1.8 -24.85 -1.35 -20.0 -2.3 -22.45 -3.65 -24.5" fill="url(#gradient46)" fill-rule="evenodd" stroke="none"/>
    <path d="M17.25 -23.85 L17.3 -23.85 17.3 -23.8 17.25 -23.8 17.25 -23.85" fill="url(#gradient47)" fill-rule="evenodd" stroke="none"/>
    <path d="M-5.6 -15.35 L-5.5 -15.35 -5.45 -15.3 -5.4 -15.3 -5.35 -15.25 -5.3 -15.25 -5.2 -15.25 -5.2 -15.2 -5.15 -15.2 -5.05 -15.2 -5.0 -15.15 Q-5.1 -14.8 -3.55 -15.6 L-2.95 -16.4 Q-2.35 -16.85 -1.75 -18.05 L-1.15 -18.5 0.4 -12.45 0.7 -11.8 Q-6.35 -10.9 -7.6 -15.7 L-7.75 -18.15 -7.25 -17.55 -6.8 -16.4 -6.5 -15.85 -5.65 -15.4 -5.6 -15.35" fill="url(#gradient48)" fill-rule="evenodd" stroke="none"/>
    <path d="M-5.6 -15.4 L-5.6 -15.35 -5.65 -15.4 -5.6 -15.4 M-5.35 -15.3 L-5.3 -15.25 -5.35 -15.25 -5.35 -15.3 M-5.2 -15.25 L-5.15 -15.2 -5.2 -15.2 -5.2 -15.25" fill="url(#gradient49)" fill-rule="evenodd" stroke="none"/>
    <path d="M-7.6 -15.7 Q-6.35 -10.9 0.7 -11.8 L3.3 -6.85 Q-2.7 -2.85 -6.75 -7.3 L-6.8 -7.35 Q-7.35 -8.15 -7.9 -10.1 L-8.15 -12.35 -8.05 -14.3 -7.6 -15.7" fill="url(#gradient50)" fill-rule="evenodd" stroke="none"/>
    <path d="M-8.15 -12.35 L-7.9 -10.1 Q-7.35 -8.15 -6.8 -7.35 L-6.8 -7.3 -6.65 -6.05 Q-8.45 -7.8 -8.45 -9.4 L-8.15 -12.35" fill="url(#gradient51)" fill-rule="evenodd" stroke="none"/>
    <path d="M-6.75 -7.3 Q-2.7 -2.85 3.3 -6.85 L4.05 -5.5 7.15 -1.7 Q6.05 0.0 5.75 0.0 L1.7 1.6 Q-2.45 2.85 -2.95 1.65 L-3.0 1.6 -4.9 -1.1 Q-6.75 -4.8 -6.65 -6.05 L-6.8 -7.3 -6.75 -7.3" fill="url(#gradient52)" fill-rule="evenodd" stroke="none"/>
    <path d="M-6.8 -7.35 L-6.75 -7.3 -6.8 -7.3 -6.8 -7.35" fill="url(#gradient53)" fill-rule="evenodd" stroke="none"/>
    <path d="M-3.0 1.65 L-3.0 1.6 -2.95 1.65 -3.0 1.65" fill="url(#gradient54)" fill-rule="evenodd" stroke="none"/>
    <path d="M12.75 1.7 L12.7 2.95 Q12.5 4.9 12.05 5.55 L11.6 6.35 10.6 7.35 Q6.85 11.0 4.2 10.2 L4.15 10.15 4.1 10.15 4.05 10.1 3.8 10.05 3.75 10.0 2.9 9.65 1.85 8.9 -0.8 6.2 -1.05 5.85 -1.1 5.75 -1.9 4.4 -3.0 1.65 -2.95 1.65 Q-2.45 2.85 1.7 1.6 L5.75 0.0 Q6.05 0.0 7.15 -1.7 L10.45 2.35 12.75 1.7" fill="url(#gradient55)" fill-rule="evenodd" stroke="none"/>
    <path d="M13.7 1.5 L13.7 1.8 13.5 1.5 13.7 1.5" fill="url(#gradient56)" fill-rule="evenodd" stroke="none"/>
    <path d="M13.7 1.8 L13.2 2.5 12.9 1.65 13.5 1.5 13.7 1.8" fill="url(#gradient57)" fill-rule="evenodd" stroke="none"/>
    <path d="M-0.9 6.15 L-0.9 6.1 -0.95 6.05 -1.05 5.85 -0.8 6.2 -0.9 6.15" fill="url(#gradient58)" fill-rule="evenodd" stroke="none"/>
    <path d="M1.85 8.9 L-0.35 7.15 -0.9 6.15 -0.8 6.2 1.85 8.9" fill="url(#gradient59)" fill-rule="evenodd" stroke="none"/>
    <path d="M12.05 5.55 L12.6 6.55 12.6 7.3 12.35 7.95 12.25 8.2 10.6 9.65 10.1 10.4 8.95 11.1 7.6 11.55 6.1 11.55 5.2 11.4 4.75 11.05 4.1 10.15 4.15 10.15 4.2 10.2 Q6.85 11.0 10.6 7.35 L11.6 6.35 12.05 5.55" fill="url(#gradient60)" fill-rule="evenodd" stroke="none"/>
    <path d="M3.75 10.05 L3.75 10.0 3.8 10.05 3.75 10.05 M4.05 10.15 L4.05 10.1 4.1 10.15 4.05 10.15" fill="url(#gradient61)" fill-rule="evenodd" stroke="none"/>
    <path d="M12.35 7.95 Q14.7 9.95 7.55 13.4 3.25 11.5 3.75 10.05 L3.8 10.05 4.05 10.1 4.05 10.15 3.95 10.65 4.6 11.05 Q6.4 12.65 6.1 11.55 L7.6 11.55 Q10.45 11.5 10.1 10.4 L10.6 9.65 12.25 8.2 12.35 7.95" fill="url(#gradient62)" fill-rule="evenodd" stroke="none"/>
    <path d="M10.1 10.4 Q10.45 11.5 7.6 11.55 L8.95 11.1 10.1 10.4 M6.1 11.55 Q6.4 12.65 4.6 11.05 L4.75 11.05 5.2 11.4 6.1 11.55" fill="url(#gradient63)" fill-rule="evenodd" stroke="none"/>
    <path d="M4.6 11.05 L3.95 10.65 4.05 10.15 4.1 10.15 4.75 11.05 4.6 11.05" fill="url(#gradient64)" fill-rule="evenodd" stroke="none"/>
  </g>
  <defs>
    <radialGradient cx="0" cy="0" gradientTransform="matrix(0.0077, 0.0, 0.0, 0.0077, -1.65, -51.95)" gradientUnits="userSpaceOnUse" id="gradient0" r="819.2" spreadMethod="pad">
      <stop offset="0.0" stop-color="#615846"/>
      <stop offset="1.0" stop-color="#383329"/>
    </radialGradient>
    <radialGradient cx="0" cy="0" gradientTransform="matrix(0.0112, 0.0, 0.0, 0.0112, 0.4, -48.75)" gradientUnits="userSpaceOnUse" id="gradient1" r="819.2" spreadMethod="pad">
      <stop offset="0.0" stop-color="#ff9900"/>
      <stop offset="1.0" stop-color="#ff9500"/>
    </radialGradient>
    <radialGradient cx="0" cy="0" gradientTransform="matrix(0.0083, 0.0, 0.0, 0.0083, -1.6, -48.85)" gradientUnits="userSpaceOnUse" id="gradient2" r="819.2" spreadMethod="pad">
      <stop offset="0.0" stop-color="#ff9400"/>
      <stop offset="1.0" stop-color="#fd8600"/>
    </radialGradient>
    <radialGradient cx="0" cy="0" gradientTransform="matrix(0.0102, 0.0, 0.0, 0.0102, 1.8, -44.3)" gradientUnits="userSpaceOnUse" id="gradient3" r="819.2" spreadMethod="pad">
      <stop offset="0.0" stop-color="#625947"/>
      <stop offset="1.0" stop-color="#40392e"/>
    </radialGradient>
    <radialGradient cx="0" cy="0" gradientTransform="matrix(0.0152, 0.0, 0.0, 0.0152, -0.55, -41.0)" gradientUnits="userSpaceOnUse" id="gradient4" r="819.2" spreadMethod="pad">
      <stop offset="0.0" stop-color="#635948"/>
      <stop offset="1.0" stop-color="#393329"/>
    </radialGradient>
    <radialGradient cx="0" cy="0" gradientTransform="matrix(0.0101, 0.0, 0.0, 0.0101, 1.8, -41.0)" gradientUnits="userSpaceOnUse" id="gradient5" r="819.2" spreadMethod="pad">
      <stop offset="0.0" stop-color="#ffca00"/>
      <stop offset="1.0" stop-color="#f88800"/>
    </radialGradient>
    <radialGradient cx="0" cy="0" gradientTransform="matrix(0.0085, 0.0, 0.0, 0.0085, 0.85, -44.85)" gradientUnits="userSpaceOnUse" id="gradient6" r="819.2" spreadMethod="pad">
      <stop offset="0.0" stop-color="#ffca00"/>
      <stop offset="1.0" stop-color="#f28500"/>
    </radialGradient>
    <radialGradient cx="0" cy="0" gradientTransform="matrix(0.0085, 0.0, 0.0, 0.0085, 10.7, -43.9)" gradientUnits="userSpaceOnUse" id="gradient7" r="819.2" spreadMethod="pad">
      <stop offset="0.0" stop-color="#ffe483"/>
      <stop offset="1.0" stop-color="#c08b50"/>
    </radialGradient>
    <radialGradient cx="0" cy="0" gradientTransform="matrix(0.0538, 0.0, 0.0, 0.0538, 10.4, -44.4)" gradientUnits="userSpaceOnUse" id="gradient8" r="819.2" spreadMethod="pad">
      <stop offset="0.0" stop-color="#605746"/>
      <stop offset="1.0" stop-color="#3b352b"/>
    </radialGradient>
    <radialGradient cx="0" cy="0" gradientTransform="matrix(0.0408, 0.0, 0.0, 0.0408, 1.9, -41.6)" gradientUnits="userSpaceOnUse" id="gradient9" r="819.2" spreadMethod="pad">
      <stop offset="0.0" stop-color="#ffc900"/>
      <stop offset="1.0" stop-color="#fe8000"/>
    </radialGradient>
    <radialGradient cx="0" cy="0" gradientTransform="matrix(0.0039, 0.0, 0.0, 0.0039, -8.85, -43.35)" gradientUnits="userSpaceOnUse" id="gradient10" r="819.2" spreadMethod="pad">
      <stop offset="0.0" stop-color="#fbfbfb"/>
      <stop offset="1.0" stop-color="#bebebe"/>
    </radialGradient>
    <radialGradient cx="0" cy="0" gradientTransform="matrix(0.0069, 0.0, 0.0, 0.0069, -7.4, -37.3)" gradientUnits="userSpaceOnUse" id="gradient11" r="819.2" spreadMethod="pad">
      <stop offset="0.0" stop-color="#625947"/>
      <stop offset="1.0" stop-color="#393429"/>
    </radialGradient>
    <radialGradient cx="0" cy="0" gradientTransform="matrix(0.0072, 0.0, 0.0, 0.0072, -8.65, -31.2)" gradientUnits="userSpaceOnUse" id="gradient12" r="819.2" spreadMethod="pad">
      <stop offset="0.0" stop-color="#e8a760"/>
      <stop offset="1.0" stop-color="#ac7c47"/>
    </radialGradient>
    <radialGradient cx="0" cy="0" gradientTransform="matrix(0.0057, 0.0, 0.0, 0.0057, -13.2, -28.9)" gradientUnits="userSpaceOnUse" id="gradient13" r="819.2" spreadMethod="pad">
      <stop offset="0.0" stop-color="#645a48"/>
      <stop offset="1.0" stop-color="#2b271f"/>
    </radialGradient>
    <radialGradient cx="0" cy="0" gradientTransform="matrix(0.0012, 0.0, 0.0, 0.0012, -15.25, -29.05)" gradientUnits="userSpaceOnUse" id="gradient14" r="819.2" spreadMethod="pad">
      <stop offset="0.0" stop-color="#f5b165"/>
      <stop offset="1.0" stop-color="#805c35"/>
    </radialGradient>
    <radialGradient cx="0" cy="0" gradientTransform="matrix(0.0043, 0.0, 0.0, 0.0043, -16.35, -27.5)" gradientUnits="userSpaceOnUse" id="gradient15" r="819.2" spreadMethod="pad">
      <stop offset="0.0" stop-color="#fff089"/>
      <stop offset="1.0" stop-color="#986e3f"/>
    </radialGradient>
    <radialGradient cx="0" cy="0" gradientTransform="matrix(0.0045, 0.0, 0.0, 0.0045, -10.6, -26.95)" gradientUnits="userSpaceOnUse" id="gradient16" r="819.2" spreadMethod="pad">
      <stop offset="0.0" stop-color="#ffffff"/>
      <stop offset="1.0" stop-color="#8c8c8c"/>
    </radialGradient>
    <radialGradient cx="0" cy="0" gradientTransform="matrix(0.003, 0.0, 0.0, 0.003, -10.3, -27.7)" gradientUnits="userSpaceOnUse" id="gradient17" r="819.2" spreadMethod="pad">
      <stop offset="0.0" stop-color="#ffa200"/>
      <stop offset="1.0" stop-color="#f87d00"/>
    </radialGradient>
    <radialGradient cx="0" cy="0" gradientTransform="matrix(0.0072, 0.0, 0.0, 0.0072, -9.55, -32.95)" gradientUnits="userSpaceOnUse" id="gradient18" r="819.2" spreadMethod="pad">
      <stop offset="0.0" stop-color="#ffe382"/>
      <stop offset="1.0" stop-color="#966c3d"/>
    </radialGradient>
    <radialGradient cx="0" cy="0" gradientTransform="matrix(0.0032, 0.0, 0.0, 0.0032, -10.75, -35.65)" gradientUnits="userSpaceOnUse" id="gradient19" r="819.2" spreadMethod="pad">
      <stop offset="0.0" stop-color="#eeeeee"/>
      <stop offset="1.0" stop-color="#868686"/>
    </radialGradient>
    <radialGradient cx="0" cy="0" gradientTransform="matrix(0.0112, 0.0, 0.0, 0.0112, -3.05, -37.45)" gradientUnits="userSpaceOnUse" id="gradient20" r="819.2" spreadMethod="pad">
      <stop offset="0.0" stop-color="#dfa15c"/>
      <stop offset="1.0" stop-color="#755430"/>
    </radialGradient>
    <radialGradient cx="0" cy="0" gradientTransform="matrix(0.0029, 0.0, 0.0, 0.0029, 0.65, -42.9)" gradientUnits="userSpaceOnUse" id="gradient21" r="819.2" spreadMethod="pad">
      <stop offset="0.0" stop-color="#ff8a00"/>
      <stop offset="1.0" stop-color="#ff8900"/>
    </radialGradient>
    <radialGradient cx="0" cy="0" gradientTransform="matrix(0.0138, 0.0, 0.0, 0.0138, 3.25, -35.6)" gradientUnits="userSpaceOnUse" id="gradient22" r="819.2" spreadMethod="pad">
      <stop offset="0.0" stop-color="#8d8080"/>
      <stop offset="1.0" stop-color="#443f3f"/>
    </radialGradient>
    <radialGradient cx="0" cy="0" gradientTransform="matrix(0.0543, 0.0, 0.0, 0.0543, 10.45, 2.25)" gradientUnits="userSpaceOnUse" id="gradient23" r="819.2" spreadMethod="pad">
      <stop offset="0.0" stop-color="#5d5444"/>
      <stop offset="1.0" stop-color="#453f32"/>
    </radialGradient>
    <radialGradient cx="0" cy="0" gradientTransform="matrix(0.0028, 0.0, 0.0, 0.0028, -7.5, -39.9)" gradientUnits="userSpaceOnUse" id="gradient24" r="819.2" spreadMethod="pad">
      <stop offset="0.0" stop-color="#bdbdbd"/>
      <stop offset="1.0" stop-color="#979797"/>
    </radialGradient>
    <radialGradient cx="0" cy="0" gradientTransform="matrix(0.0047, 0.0, 0.0, 0.0047, 13.15, -39.9)" gradientUnits="userSpaceOnUse" id="gradient25" r="819.2" spreadMethod="pad">
      <stop offset="0.0" stop-color="#ffd600"/>
      <stop offset="1.0" stop-color="#e17800"/>
    </radialGradient>
    <radialGradient cx="0" cy="0" gradientTransform="matrix(0.0316, 0.0, 0.0, 0.0316, 3.95, -40.95)" gradientUnits="userSpaceOnUse" id="gradient26" r="819.2" spreadMethod="pad">
      <stop offset="0.0" stop-color="#908383"/>
      <stop offset="1.0" stop-color="#5b5353"/>
    </radialGradient>
    <radialGradient cx="0" cy="0" gradientTransform="matrix(0.0069, 0.0, 0.0, 0.0069, 16.35, -38.25)" gradientUnits="userSpaceOnUse" id="gradient27" r="819.2" spreadMethod="pad">
      <stop offset="0.0" stop-color="#ffe483"/>
      <stop offset="1.0" stop-color="#c18b4f"/>
    </radialGradient>
    <radialGradient cx="0" cy="0" gradientTransform="matrix(0.0029, 0.0, 0.0, 0.0029, 17.75, -32.0)" gradientUnits="userSpaceOnUse" id="gradient28" r="819.2" spreadMethod="pad">
      <stop offset="0.0" stop-color="#ffbf00"/>
      <stop offset="1.0" stop-color="#d36a00"/>
    </radialGradient>
    <radialGradient cx="0" cy="0" gradientTransform="matrix(0.0045, 0.0, 0.0, 0.0045, 17.25, -34.95)" gradientUnits="userSpaceOnUse" id="gradient29" r="819.2" spreadMethod="pad">
      <stop offset="0.0" stop-color="#ffe985"/>
      <stop offset="1.0" stop-color="#ba864c"/>
    </radialGradient>
    <radialGradient cx="0" cy="0" gradientTransform="matrix(0.0076, 0.0, 0.0, 0.0076, 14.45, -37.0)" gradientUnits="userSpaceOnUse" id="gradient30" r="819.2" spreadMethod="pad">
      <stop offset="0.0" stop-color="#ffe583"/>
      <stop offset="1.0" stop-color="#8a6439"/>
    </radialGradient>
    <radialGradient cx="0" cy="0" gradientTransform="matrix(0.0087, 0.0, 0.0, 0.0087, 14.85, -38.0)" gradientUnits="userSpaceOnUse" id="gradient31" r="819.2" spreadMethod="pad">
      <stop offset="0.0" stop-color="#ffe382"/>
      <stop offset="1.0" stop-color="#90673b"/>
    </radialGradient>
    <radialGradient cx="0" cy="0" gradientTransform="matrix(0.0031, 0.0, 0.0, 0.0031, -5.95, -37.25)" gradientUnits="userSpaceOnUse" id="gradient32" r="819.2" spreadMethod="pad">
      <stop offset="0.0" stop-color="#cdcdcd"/>
      <stop offset="1.0" stop-color="#707070"/>
    </radialGradient>
    <radialGradient cx="0" cy="0" gradientTransform="matrix(0.012, 0.0, 0.0, 0.012, 2.35, -31.85)" gradientUnits="userSpaceOnUse" id="gradient33" r="819.2" spreadMethod="pad">
      <stop offset="0.0" stop-color="#ffdb00"/>
      <stop offset="1.0" stop-color="#eb7900"/>
    </radialGradient>
    <radialGradient cx="0" cy="0" gradientTransform="matrix(0.0033, 0.0, 0.0, 0.0033, -5.2, -35.75)" gradientUnits="userSpaceOnUse" id="gradient34" r="819.2" spreadMethod="pad">
      <stop offset="0.0" stop-color="#ffbd00"/>
      <stop offset="1.0" stop-color="#ff8c00"/>
    </radialGradient>
    <radialGradient cx="0" cy="0" gradientTransform="matrix(0.0048, 0.0, 0.0, 0.0048, 20.05, -32.7)" gradientUnits="userSpaceOnUse" id="gradient35" r="819.2" spreadMethod="pad">
      <stop offset="0.0" stop-color="#d1d1d1"/>
      <stop offset="1.0" stop-color="#919191"/>
    </radialGradient>
    <radialGradient cx="0" cy="0" gradientTransform="matrix(0.0096, 0.0, 0.0, 0.0096, 16.65, -30.5)" gradientUnits="userSpaceOnUse" id="gradient36" r="819.2" spreadMethod="pad">
      <stop offset="0.0" stop-color="#655b49"/>
      <stop offset="1.0" stop-color="#393329"/>
    </radialGradient>
    <radialGradient cx="0" cy="0" gradientTransform="matrix(0.0049, 0.0, 0.0, 0.0049, -7.55, -31.75)" gradientUnits="userSpaceOnUse" id="gradient37" r="819.2" spreadMethod="pad">
      <stop offset="0.0" stop-color="#ffcd75"/>
      <stop offset="1.0" stop-color="#876137"/>
    </radialGradient>
    <radialGradient cx="0" cy="0" gradientTransform="matrix(0.0042, 0.0, 0.0, 0.0042, -5.25, -33.45)" gradientUnits="userSpaceOnUse" id="gradient38" r="819.2" spreadMethod="pad">
      <stop offset="0.0" stop-color="#ff9000"/>
      <stop offset="1.0" stop-color="#874300"/>
    </radialGradient>
    <radialGradient cx="0" cy="0" gradientTransform="matrix(0.0036, 0.0, 0.0, 0.0036, -8.9, -29.2)" gradientUnits="userSpaceOnUse" id="gradient39" r="819.2" spreadMethod="pad">
      <stop offset="0.0" stop-color="#ffe181"/>
      <stop offset="1.0" stop-color="#886238"/>
    </radialGradient>
    <radialGradient cx="0" cy="0" gradientTransform="matrix(0.0099, 0.0, 0.0, 0.0099, -3.6, -23.2)" gradientUnits="userSpaceOnUse" id="gradient40" r="819.2" spreadMethod="pad">
      <stop offset="0.0" stop-color="#ffda00"/>
      <stop offset="1.0" stop-color="#bb6c00"/>
    </radialGradient>
    <radialGradient cx="0" cy="0" gradientTransform="matrix(0.0147, 0.0, 0.0, 0.0147, -5.85, -15.55)" gradientUnits="userSpaceOnUse" id="gradient41" r="819.2" spreadMethod="pad">
      <stop offset="0.0" stop-color="#171c2c"/>
      <stop offset="1.0" stop-color="#08090e"/>
    </radialGradient>
    <radialGradient cx="0" cy="0" gradientTransform="matrix(0.0096, 0.0, 0.0, 0.0096, -3.85, -23.0)" gradientUnits="userSpaceOnUse" id="gradient42" r="819.2" spreadMethod="pad">
      <stop offset="0.0" stop-color="#414d7b"/>
      <stop offset="1.0" stop-color="#1e2338"/>
    </radialGradient>
    <radialGradient cx="0" cy="0" gradientTransform="matrix(0.001, 0.0, 0.0, 0.001, 19.8, -25.15)" gradientUnits="userSpaceOnUse" id="gradient43" r="819.2" spreadMethod="pad">
      <stop offset="0.0" stop-color="#373228"/>
      <stop offset="1.0" stop-color="#312c23"/>
    </radialGradient>
    <radialGradient cx="0" cy="0" gradientTransform="matrix(0.0038, 0.0, 0.0, 0.0038, 17.7, -23.2)" gradientUnits="userSpaceOnUse" id="gradient44" r="819.2" spreadMethod="pad">
      <stop offset="0.0" stop-color="#fff48c"/>
      <stop offset="1.0" stop-color="#9d7241"/>
    </radialGradient>
    <radialGradient cx="0" cy="0" gradientTransform="matrix(0.0037, 0.0, 0.0, 0.0037, 16.9, -24.35)" gradientUnits="userSpaceOnUse" id="gradient45" r="819.2" spreadMethod="pad">
      <stop offset="0.0" stop-color="#fff48c"/>
      <stop offset="1.0" stop-color="#bd884e"/>
    </radialGradient>
    <radialGradient cx="0" cy="0" gradientTransform="matrix(0.0083, 0.0, 0.0, 0.0083, -0.95, -25.7)" gradientUnits="userSpaceOnUse" id="gradient46" r="819.2" spreadMethod="pad">
      <stop offset="0.0" stop-color="#404c7a"/>
      <stop offset="1.0" stop-color="#2b3352"/>
    </radialGradient>
    <radialGradient cx="0" cy="0" gradientTransform="matrix(0.0018, 0.0, 0.0, 0.0018, 17.35, -23.75)" gradientUnits="userSpaceOnUse" id="gradient47" r="819.2" spreadMethod="pad">
      <stop offset="0.0" stop-color="#0c0b09"/>
      <stop offset="1.0" stop-color="#0c0b09"/>
    </radialGradient>
    <radialGradient cx="0" cy="0" gradientTransform="matrix(0.0123, 0.0, 0.0, 0.0123, -2.25, -19.5)" gradientUnits="userSpaceOnUse" id="gradient48" r="819.2" spreadMethod="pad">
      <stop offset="0.0" stop-color="#374269"/>
      <stop offset="1.0" stop-color="#282f4b"/>
    </radialGradient>
    <radialGradient cx="0" cy="0" gradientTransform="matrix(0.0151, 0.0, 0.0, 0.0151, -5.65, -15.5)" gradientUnits="userSpaceOnUse" id="gradient49" r="819.2" spreadMethod="pad">
      <stop offset="0.0" stop-color="#9c4e00"/>
      <stop offset="1.0" stop-color="#331a00"/>
    </radialGradient>
    <radialGradient cx="0" cy="0" gradientTransform="matrix(0.012, 0.0, 0.0, 0.012, -2.7, -14.1)" gradientUnits="userSpaceOnUse" id="gradient50" r="819.2" spreadMethod="pad">
      <stop offset="0.0" stop-color="#424e7d"/>
      <stop offset="1.0" stop-color="#1f253b"/>
    </radialGradient>
    <radialGradient cx="0" cy="0" gradientTransform="matrix(0.0079, 0.0, 0.0, 0.0079, -7.15, -11.1)" gradientUnits="userSpaceOnUse" id="gradient51" r="819.2" spreadMethod="pad">
      <stop offset="0.0" stop-color="#272f4b"/>
      <stop offset="1.0" stop-color="#1a1f31"/>
    </radialGradient>
    <radialGradient cx="0" cy="0" gradientTransform="matrix(0.0141, 0.0, 0.0, 0.0141, 0.05, -8.25)" gradientUnits="userSpaceOnUse" id="gradient52" r="819.2" spreadMethod="pad">
      <stop offset="0.0" stop-color="#455283"/>
      <stop offset="1.0" stop-color="#232a42"/>
    </radialGradient>
    <radialGradient cx="0" cy="0" gradientTransform="matrix(0.0109, 0.0, 0.0, 0.0109, -7.0, -7.7)" gradientUnits="userSpaceOnUse" id="gradient53" r="819.2" spreadMethod="pad">
      <stop offset="0.0" stop-color="#1a1f31"/>
      <stop offset="1.0" stop-color="#08090e"/>
    </radialGradient>
    <radialGradient cx="0" cy="0" gradientTransform="matrix(0.0111, 0.0, 0.0, 0.0111, -4.65, -0.7)" gradientUnits="userSpaceOnUse" id="gradient54" r="819.2" spreadMethod="pad">
      <stop offset="0.0" stop-color="#1a1f32"/>
      <stop offset="1.0" stop-color="#0b0d14"/>
    </radialGradient>
    <radialGradient cx="0" cy="0" gradientTransform="matrix(0.0154, 0.0, 0.0, 0.0154, 4.55, -2.0)" gradientUnits="userSpaceOnUse" id="gradient55" r="819.2" spreadMethod="pad">
      <stop offset="0.0" stop-color="#455283"/>
      <stop offset="1.0" stop-color="#1e2338"/>
    </radialGradient>
    <radialGradient cx="0" cy="0" gradientTransform="matrix(0.0094, 0.0, 0.0, 0.0094, 10.4, -5.3)" gradientUnits="userSpaceOnUse" id="gradient56" r="819.2" spreadMethod="pad">
      <stop offset="0.0" stop-color="#0c0b09"/>
      <stop offset="1.0" stop-color="#0c0b09"/>
    </radialGradient>
    <radialGradient cx="0" cy="0" gradientTransform="matrix(0.0091, 0.0, 0.0, 0.0091, 11.15, -4.7)" gradientUnits="userSpaceOnUse" id="gradient57" r="819.2" spreadMethod="pad">
      <stop offset="0.0" stop-color="#0c0b09"/>
      <stop offset="1.0" stop-color="#0c0b09"/>
    </radialGradient>
    <radialGradient cx="0" cy="0" gradientTransform="matrix(0.0021, 0.0, 0.0, 0.0021, -1.25, 5.5)" gradientUnits="userSpaceOnUse" id="gradient58" r="819.2" spreadMethod="pad">
      <stop offset="0.0" stop-color="#181d2e"/>
      <stop offset="1.0" stop-color="#151928"/>
    </radialGradient>
    <radialGradient cx="0" cy="0" gradientTransform="matrix(0.0049, 0.0, 0.0, 0.0049, -0.2, 6.85)" gradientUnits="userSpaceOnUse" id="gradient59" r="819.2" spreadMethod="pad">
      <stop offset="0.0" stop-color="#151928"/>
      <stop offset="1.0" stop-color="#0e111c"/>
    </radialGradient>
    <radialGradient cx="0" cy="0" gradientTransform="matrix(0.0068, 0.0, 0.0, 0.0068, 9.25, 8.1)" gradientUnits="userSpaceOnUse" id="gradient60" r="819.2" spreadMethod="pad">
      <stop offset="0.0" stop-color="#ffec00"/>
      <stop offset="1.0" stop-color="#d36a00"/>
    </radialGradient>
    <radialGradient cx="0" cy="0" gradientTransform="matrix(0.0126, 0.0, 0.0, 0.0126, -2.5, 3.05)" gradientUnits="userSpaceOnUse" id="gradient61" r="819.2" spreadMethod="pad">
      <stop offset="0.0" stop-color="#1e2338"/>
      <stop offset="1.0" stop-color="#08090e"/>
    </radialGradient>
    <radialGradient cx="0" cy="0" gradientTransform="matrix(0.0081, 0.0, 0.0, 0.0081, 10.2, 9.85)" gradientUnits="userSpaceOnUse" id="gradient62" r="819.2" spreadMethod="pad">
      <stop offset="0.0" stop-color="#a49595"/>
      <stop offset="1.0" stop-color="#514a4a"/>
    </radialGradient>
    <radialGradient cx="0" cy="0" gradientTransform="matrix(0.0072, 0.0, 0.0, 0.0072, 10.45, 10.4)" gradientUnits="userSpaceOnUse" id="gradient63" r="819.2" spreadMethod="pad">
      <stop offset="0.0" stop-color="#6c614e"/>
      <stop offset="1.0" stop-color="#332e24"/>
    </radialGradient>
    <radialGradient cx="0" cy="0" gradientTransform="matrix(0.0019, 0.0, 0.0, 0.0019, 4.55, 11.0)" gradientUnits="userSpaceOnUse" id="gradient64" r="819.2" spreadMethod="pad">
      <stop offset="0.0" stop-color="#463f33"/>
      <stop offset="1.0" stop-color="#413b2f"/>
    </radialGradient>
  </defs>
</svg>
