<?xml version="1.0" encoding="UTF-8" standalone="no"?>
<svg xmlns:ffdec="https://www.free-decompiler.com/flash" xmlns:xlink="http://www.w3.org/1999/xlink" ffdec:objectType="shape" height="71.25px" width="39.4px" xmlns="http://www.w3.org/2000/svg">
  <g transform="matrix(1.0, 0.0, 0.0, 1.0, 20.3, 57.6)">
    <path d="M-0.4 -48.6 L-3.05 -50.2 -3.65 -52.3 -3.55 -52.8 -3.6 -52.95 Q-3.85 -54.45 -0.25 -57.35 5.6 -58.4 6.45 -55.2 L6.85 -54.4 7.2 -52.8 Q5.75 -48.9 1.7 -48.55 L-0.35 -48.6 -0.4 -48.6" fill="url(#gradient0)" fill-rule="evenodd" stroke="none"/>
    <path d="M-3.6 -52.95 L-3.55 -52.8 -3.65 -52.3 -3.05 -50.2 -0.4 -48.6 Q-3.2 -49.25 -3.8 -50.8 L-3.85 -52.4 -3.6 -52.95 M1.7 -48.55 Q5.75 -48.9 7.2 -52.8 L6.85 -54.4 6.45 -55.2 7.45 -54.1 7.65 -52.65 Q6.3 -48.9 1.7 -48.55" fill="url(#gradient1)" fill-rule="evenodd" stroke="none"/>
    <path d="M-3.8 -50.8 Q-3.2 -49.25 -0.4 -48.6 L-0.35 -48.6 1.7 -48.55 Q6.3 -48.9 7.65 -52.65 L7.85 -50.0 Q7.8 -48.9 6.3 -47.55 3.95 -45.6 1.35 -46.4 L0.95 -47.3 Q-1.85 -48.05 -3.65 -49.95 L-3.7 -50.3 -3.7 -50.35 -3.8 -50.8" fill="url(#gradient2)" fill-rule="evenodd" stroke="none"/>
    <path d="M-3.8 -50.3 L-3.7 -50.35 -3.7 -50.3 -3.8 -50.3" fill="url(#gradient3)" fill-rule="evenodd" stroke="none"/>
    <path d="M-4.15 -50.15 L-3.8 -50.3 -3.7 -50.3 -3.65 -49.95 -4.5 -49.8 -4.2 -50.05 -4.15 -50.15 M1.35 -46.4 Q3.95 -45.6 6.3 -47.55 L6.6 -46.3 6.55 -46.45 5.9 -46.5 4.35 -45.35 Q0.95 -44.25 1.2 -44.1 L-0.25 -43.8 -0.25 -43.9 Q0.1 -43.65 1.4 -45.5 L1.35 -46.4" fill="url(#gradient4)" fill-rule="evenodd" stroke="none"/>
    <path d="M-4.2 -50.15 L-4.15 -50.15 -4.2 -50.05 -4.2 -50.15" fill="url(#gradient5)" fill-rule="evenodd" stroke="none"/>
    <path d="M-8.55 -48.7 L-7.95 -49.35 -7.55 -49.5 -5.95 -49.9 -4.2 -50.15 -4.2 -50.05 -4.5 -49.8 -4.9 -49.75 -6.1 -48.25 -5.9 -46.5 Q-8.4 -46.4 -8.4 -43.2 L-9.25 -40.9 -9.35 -40.2 -9.7 -40.9 -9.8 -42.0 -9.8 -42.15 -10.0 -42.1 -10.05 -42.55 -10.05 -43.35 -10.3 -43.25 -10.35 -43.7 -10.35 -44.0 -9.7 -46.8 -9.4 -47.3 -8.55 -48.7 M-0.25 -43.8 L1.2 -44.1 Q0.95 -44.25 4.35 -45.35 L5.9 -46.5 6.55 -46.45 6.6 -46.3 7.85 -44.2 Q8.25 -43.85 8.05 -41.45 L7.4 -40.9 6.1 -39.6 4.35 -37.05 Q4.55 -37.85 3.3 -36.9 L3.0 -37.3 2.95 -37.4 2.5 -36.75 1.6 -37.2 1.05 -36.3 Q0.35 -36.55 -1.25 -35.9 L-2.55 -36.25 -3.05 -36.4 -2.65 -38.2 -1.7 -40.2 -0.95 -40.45 0.05 -42.5 -0.25 -43.8" fill="url(#gradient6)" fill-rule="evenodd" stroke="none"/>
    <path d="M-7.95 -49.35 L-7.55 -49.8 -7.55 -49.5 -7.95 -49.35" fill="url(#gradient7)" fill-rule="evenodd" stroke="none"/>
    <path d="M-3.65 -49.95 Q-1.85 -48.05 0.95 -47.3 L1.35 -46.4 1.4 -45.5 Q0.1 -43.65 -0.25 -43.9 -3.4 -44.0 -5.9 -46.5 L-6.1 -48.25 -4.9 -49.75 -4.5 -49.8 -3.65 -49.95" fill="url(#gradient8)" fill-rule="evenodd" stroke="none"/>
    <path d="M-10.5 -47.95 L-8.9 -50.8 -8.55 -48.7 -9.4 -47.3 -10.45 -47.6 -10.5 -47.95" fill="url(#gradient9)" fill-rule="evenodd" stroke="none"/>
    <path d="M-10.5 -47.95 L-10.45 -47.6 -9.4 -47.3 -9.7 -46.8 -10.35 -44.0 Q-14.4 -43.45 -12.3 -41.25 L-12.7 -40.9 -12.9 -40.65 -13.25 -40.7 -13.55 -40.55 Q-14.6 -40.5 -14.9 -40.8 L-14.9 -40.15 -15.15 -40.4 -15.3 -40.2 -15.55 -40.55 -15.55 -40.6 -15.95 -41.9 -15.9 -42.6 -15.85 -43.3 -15.1 -45.0 Q-12.55 -48.0 -11.3 -47.8 -13.1 -44.7 -10.35 -45.35 L-10.0 -45.8 -10.05 -46.4 -11.2 -47.85 -10.5 -47.95" fill="url(#gradient10)" fill-rule="evenodd" stroke="none"/>
    <path d="M-11.2 -47.85 L-10.05 -46.4 -10.0 -45.8 -10.35 -45.35 Q-13.1 -44.7 -11.3 -47.8 L-11.2 -47.85" fill="url(#gradient11)" fill-rule="evenodd" stroke="none"/>
    <path d="M-15.1 -45.0 L-15.85 -43.3 -15.9 -42.6 Q-17.45 -44.8 -16.55 -46.9 L-16.4 -46.9 Q-16.5 -46.1 -15.1 -45.0" fill="url(#gradient12)" fill-rule="evenodd" stroke="none"/>
    <path d="M-5.9 -46.5 Q-3.4 -44.0 -0.25 -43.9 L-0.25 -43.8 0.05 -42.5 -1.0 -40.9 -1.1 -40.7 -0.95 -40.45 -1.7 -40.2 -2.95 -39.8 -3.65 -39.8 -7.75 -41.75 -8.1 -42.1 -8.4 -43.2 Q-8.4 -46.4 -5.9 -46.5" fill="url(#gradient13)" fill-rule="evenodd" stroke="none"/>
    <path d="M-1.7 -40.2 L-2.65 -38.2 -3.05 -36.4 -3.95 -32.65 -4.35 -29.55 -4.65 -27.9 -4.65 -27.85 -4.7 -27.7 -5.75 -20.75 -6.95 -14.45 -8.7 -8.7 -9.35 -8.95 -9.8 -9.2 -10.8 -10.2 -11.45 -12.5 -12.0 -13.15 -11.0 -17.8 Q-10.35 -24.0 -10.3 -28.55 L-10.2 -29.05 -9.9 -35.25 -9.35 -40.2 -9.25 -40.9 -8.4 -43.2 -8.1 -42.1 -7.75 -41.75 -8.5 -40.0 -9.05 -36.1 -9.5 -29.05 Q-9.95 -20.25 -10.55 -17.85 L-10.1 -17.2 Q-9.85 -15.9 -8.65 -15.25 L-8.0 -17.2 Q-7.35 -18.0 -6.45 -24.2 L-5.8 -29.05 Q-4.85 -38.0 -3.65 -39.8 L-2.95 -39.8 -1.7 -40.2" fill="url(#gradient14)" fill-rule="evenodd" stroke="none"/>
    <path d="M-10.35 -43.7 L-10.3 -43.25 -10.05 -43.35 -10.05 -42.55 -10.45 -37.85 -9.8 -42.0 -9.7 -40.9 -9.35 -40.2 -9.9 -35.25 -10.2 -29.05 -10.3 -28.55 -11.25 -33.3 -11.45 -35.6 -11.5 -36.9 -11.6 -38.25 -11.65 -40.1 -11.5 -40.55 -11.25 -40.9 Q-10.3 -42.1 -10.35 -43.7 M-9.35 -8.95 L-11.15 -4.0 -11.3 -3.85 -9.8 -9.2 -9.35 -8.95" fill="url(#gradient15)" fill-rule="evenodd" stroke="none"/>
    <path d="M-9.8 -42.0 L-10.45 -37.85 -10.05 -42.55 -10.0 -42.1 -9.8 -42.15 -9.8 -42.0" fill="url(#gradient16)" fill-rule="evenodd" stroke="none"/>
    <path d="M-12.3 -41.25 Q-14.4 -43.45 -10.35 -44.0 L-10.35 -43.7 Q-10.3 -42.1 -11.25 -40.9 L-11.5 -40.55 -11.85 -40.9 -12.3 -41.25" fill="url(#gradient17)" fill-rule="evenodd" stroke="none"/>
    <path d="M4.35 -37.05 L6.1 -39.6 7.4 -40.9 8.05 -41.45 Q12.0 -39.95 12.45 -36.9 12.4 -31.1 5.65 -32.3 L5.05 -33.0 3.95 -35.6 4.1 -36.4 4.35 -37.05" fill="url(#gradient18)" fill-rule="evenodd" stroke="none"/>
    <path d="M-2.55 -36.25 L-1.25 -35.9 Q0.35 -36.55 1.05 -36.3 L1.6 -37.2 2.5 -36.75 2.95 -37.4 3.0 -37.3 3.3 -36.9 Q4.55 -37.85 4.35 -37.05 L4.1 -36.4 3.95 -35.6 3.1 -32.1 2.7 -27.75 2.4 -24.6 1.8 -19.15 1.7 -18.35 0.3 -13.15 -0.3 -11.6 -2.95 -6.65 -3.7 -5.35 -6.8 -1.55 -10.1 2.5 -12.5 1.95 -12.7 1.85 -13.3 1.7 -13.55 1.7 -12.75 0.2 -11.35 -3.7 -11.3 -3.75 -11.3 -3.85 -11.15 -4.0 -9.35 -8.95 -8.7 -8.7 -6.95 -14.45 -5.75 -20.75 -4.7 -27.7 -4.65 -27.85 -4.65 -27.9 -4.2 -29.5 -2.55 -36.25" fill="url(#gradient19)" fill-rule="evenodd" stroke="none"/>
    <path d="M-3.05 -36.4 L-2.55 -36.25 -4.2 -29.5 -4.35 -29.55 -3.95 -32.65 -3.05 -36.4 M3.95 -35.6 L5.05 -33.0 5.65 -32.3 5.6 -32.1 6.1 -31.6 4.6 -30.2 4.25 -29.9 4.0 -29.05 3.75 -28.45 Q3.3 -27.85 2.7 -27.75 L3.1 -32.1 3.95 -35.6" fill="url(#gradient20)" fill-rule="evenodd" stroke="none"/>
    <path d="M0.05 -42.5 L-0.95 -40.45 -1.1 -40.7 -1.0 -40.9 0.05 -42.5" fill="url(#gradient21)" fill-rule="evenodd" stroke="none"/>
    <path d="M-15.55 -40.55 L-15.3 -40.2 -15.15 -40.4 -14.9 -40.15 -14.5 -38.8 -14.1 -38.25 -14.5 -38.3 -14.7 -38.6 -15.55 -40.55 M-13.55 -40.55 L-13.25 -40.7 -12.9 -40.65 -12.7 -40.9 -12.3 -41.25 -11.85 -40.9 -11.5 -40.55 -11.65 -40.1 -11.6 -38.25 Q-12.75 -39.15 -12.7 -39.55 L-13.25 -39.8 -13.55 -40.55" fill="url(#gradient22)" fill-rule="evenodd" stroke="none"/>
    <path d="M-14.9 -40.15 L-14.9 -40.8 Q-14.6 -40.5 -13.55 -40.55 L-13.25 -39.8 -12.7 -39.55 Q-12.75 -39.15 -11.6 -38.25 L-11.5 -36.9 Q-12.15 -36.7 -13.1 -37.35 L-14.1 -38.25 -14.5 -38.8 -14.9 -40.15" fill="url(#gradient23)" fill-rule="evenodd" stroke="none"/>
    <path d="M-15.55 -40.6 L-15.55 -40.55 -14.7 -38.6 -15.05 -37.7 -16.35 -35.45 Q-17.05 -35.4 -17.5 -34.7 L-18.0 -33.25 -18.1 -33.15 -18.3 -33.0 Q-19.2 -37.85 -15.55 -40.6" fill="url(#gradient24)" fill-rule="evenodd" stroke="none"/>
    <path d="M-7.75 -41.75 L-3.65 -39.8 Q-4.85 -38.0 -5.8 -29.05 L-6.45 -24.2 Q-7.35 -18.0 -8.0 -17.2 L-8.65 -15.25 Q-9.85 -15.9 -10.1 -17.2 L-10.55 -17.85 Q-9.95 -20.25 -9.5 -29.05 L-9.05 -36.1 -8.5 -40.0 -7.75 -41.75" fill="url(#gradient25)" fill-rule="evenodd" stroke="none"/>
    <path d="M-13.8 -31.5 L-14.45 -30.85 -14.7 -30.9 -13.8 -31.5 M-15.05 -37.7 L-14.7 -38.6 -14.5 -38.3 -15.05 -37.7" fill="url(#gradient26)" fill-rule="evenodd" stroke="none"/>
    <path d="M-11.5 -36.9 L-11.45 -35.6 -12.15 -33.7 Q-12.9 -32.35 -13.8 -31.5 L-14.7 -30.9 -15.75 -30.7 -16.55 -31.85 -16.35 -35.45 -15.05 -37.7 -14.5 -38.3 -14.1 -38.25 -13.1 -37.35 Q-12.15 -36.7 -11.5 -36.9" fill="url(#gradient27)" fill-rule="evenodd" stroke="none"/>
    <path d="M5.65 -32.3 Q12.4 -31.1 12.45 -36.9 L12.75 -36.55 12.95 -35.4 12.9 -34.7 12.6 -34.05 11.4 -32.2 Q11.15 -31.6 8.65 -30.95 L6.95 -31.1 6.1 -31.6 5.6 -32.1 5.65 -32.3" fill="url(#gradient28)" fill-rule="evenodd" stroke="none"/>
    <path d="M2.7 -27.75 Q3.3 -27.85 3.75 -28.45 L4.0 -29.05 4.25 -29.9 4.6 -30.2 5.45 -28.9 5.95 -27.6 6.05 -26.5 5.7 -25.65 5.05 -24.95 4.25 -24.35 3.95 -24.4 3.6 -24.15 2.4 -24.6 2.7 -27.75 M-4.35 -29.55 L-4.2 -29.5 -4.65 -27.9 -4.35 -29.55" fill="url(#gradient29)" fill-rule="evenodd" stroke="none"/>
    <path d="M-14.45 -30.85 L-14.2 -29.85 -14.4 -28.3 -15.9 -26.1 -16.2 -25.2 -16.2 -25.1 -16.85 -23.65 Q-18.65 -21.8 -19.45 -24.45 L-19.4 -24.6 -19.55 -24.95 -20.3 -27.8 -20.2 -29.7 -19.9 -30.3 -19.0 -29.35 -17.5 -29.15 -17.1 -29.4 -15.75 -30.7 -14.7 -30.9 -14.45 -30.85 M-18.9 -32.0 L-18.6 -32.25 -18.65 -31.85 -18.9 -32.0" fill="url(#gradient30)" fill-rule="evenodd" stroke="none"/>
    <path d="M-18.6 -32.25 L-18.3 -33.0 -18.1 -33.15 -18.15 -31.8 -18.65 -31.85 -18.6 -32.25 M-17.6 -31.15 L-17.1 -31.35 -16.55 -31.85 -15.75 -30.7 -17.1 -29.4 -17.6 -31.15" fill="url(#gradient31)" fill-rule="evenodd" stroke="none"/>
    <path d="M-18.0 -33.25 L-17.5 -34.7 Q-17.05 -35.4 -16.35 -35.45 L-16.55 -31.85 -17.1 -31.35 -17.6 -31.15 -18.15 -31.8 -18.1 -33.15 -18.0 -33.15 -18.0 -33.25" fill="url(#gradient32)" fill-rule="evenodd" stroke="none"/>
    <path d="M-18.0 -33.25 L-18.0 -33.15 -18.1 -33.15 -18.0 -33.25" fill="url(#gradient33)" fill-rule="evenodd" stroke="none"/>
    <path d="M-19.9 -30.3 L-20.05 -31.6 Q-19.95 -32.65 -19.3 -33.9 L-19.2 -33.95 Q-19.25 -32.15 -18.9 -32.0 L-18.65 -31.85 -18.15 -31.8 -17.6 -31.15 -17.1 -29.4 -17.5 -29.15 -19.0 -29.35 -19.9 -30.3" fill="url(#gradient34)" fill-rule="evenodd" stroke="none"/>
    <path d="M-19.45 -24.5 L-19.55 -24.95 -19.4 -24.6 -19.45 -24.45 -19.45 -24.5" fill="url(#gradient35)" fill-rule="evenodd" stroke="none"/>
    <path d="M-16.2 -25.2 L-16.05 -25.1 -16.2 -25.1 -16.2 -25.2 M-14.7 -21.75 Q-15.65 -19.1 -18.95 -20.3 -21.15 -21.95 -19.45 -24.5 L-19.45 -24.45 Q-18.65 -21.8 -16.85 -23.65 L-14.9 -22.4 -14.7 -21.75" fill="url(#gradient36)" fill-rule="evenodd" stroke="none"/>
    <path d="M-16.05 -25.1 Q-13.05 -23.55 -14.7 -21.75 L-14.9 -22.4 -16.85 -23.65 -16.2 -25.1 -16.05 -25.1" fill="url(#gradient37)" fill-rule="evenodd" stroke="none"/>
    <path d="M12.6 -34.05 L12.9 -34.7 12.95 -35.4 Q15.2 -33.25 14.6 -29.9 L14.25 -29.05 14.1 -28.9 14.15 -29.05 Q15.25 -32.65 12.6 -34.05" fill="url(#gradient38)" fill-rule="evenodd" stroke="none"/>
    <path d="M8.65 -30.95 Q11.15 -31.6 11.4 -32.2 L12.6 -34.05 Q15.25 -32.65 14.15 -29.05 L14.1 -28.9 13.85 -28.3 13.25 -27.65 12.65 -27.2 11.15 -27.1 9.95 -27.75 9.3 -28.7 8.85 -29.65 8.75 -30.65 8.7 -30.7 8.7 -30.8 8.65 -30.9 8.65 -30.95" fill="url(#gradient39)" fill-rule="evenodd" stroke="none"/>
    <path d="M6.95 -31.1 L8.65 -30.95 8.65 -30.9 8.7 -30.8 8.7 -30.7 8.75 -30.65 8.85 -29.65 9.3 -28.7 8.95 -28.35 9.0 -27.65 Q6.7 -29.15 6.95 -31.1" fill="url(#gradient40)" fill-rule="evenodd" stroke="none"/>
    <path d="M12.25 -25.3 L12.8 -26.25 13.25 -27.65 13.85 -28.3 14.1 -28.9 14.25 -29.05 14.6 -29.9 15.2 -29.5 16.05 -28.75 Q19.25 -25.7 14.4 -24.55 L12.25 -25.3" fill="url(#gradient41)" fill-rule="evenodd" stroke="none"/>
    <path d="M16.3 -29.35 L16.05 -29.05 16.05 -28.75 15.2 -29.5 15.8 -29.55 16.3 -29.35" fill="url(#gradient42)" fill-rule="evenodd" stroke="none"/>
    <path d="M16.05 -28.75 L16.05 -29.05 16.3 -29.35 Q19.75 -28.9 18.95 -25.45 17.15 -22.6 14.4 -24.55 19.25 -25.7 16.05 -28.75" fill="url(#gradient43)" fill-rule="evenodd" stroke="none"/>
    <path d="M9.0 -27.65 L8.95 -28.35 9.3 -28.7 9.95 -27.75 11.15 -27.1 10.9 -26.3 10.15 -26.25 9.4 -26.75 9.0 -27.65" fill="url(#gradient44)" fill-rule="evenodd" stroke="none"/>
    <path d="M1.7 -18.35 L1.8 -19.15 Q2.55 -22.6 4.25 -24.35 L5.05 -24.95 5.25 -24.95 5.7 -25.65 6.05 -26.5 5.95 -27.6 6.7 -27.45 7.9 -26.75 8.0 -26.5 7.85 -25.65 Q7.05 -26.85 7.1 -26.45 L6.75 -25.05 5.7 -23.9 4.8 -19.8 Q4.6 -17.85 5.15 -17.2 L5.5 -15.95 6.1 -15.1 Q3.95 -14.3 2.8 -17.2 L2.3 -17.9 1.7 -18.35" fill="url(#gradient45)" fill-rule="evenodd" stroke="none"/>
    <path d="M1.8 -19.15 L2.4 -24.6 3.6 -24.15 3.95 -24.4 4.25 -24.35 Q2.55 -22.6 1.8 -19.15 M5.7 -25.65 L5.25 -24.95 5.05 -24.95 5.7 -25.65" fill="url(#gradient46)" fill-rule="evenodd" stroke="none"/>
    <path d="M10.9 -26.3 L11.15 -27.1 12.65 -27.2 13.25 -27.65 12.8 -26.25 12.3 -26.15 10.9 -26.3" fill="url(#gradient47)" fill-rule="evenodd" stroke="none"/>
    <path d="M10.15 -26.25 L10.9 -26.3 12.3 -26.15 12.8 -26.25 12.25 -25.3 Q10.9 -23.25 8.7 -23.85 L8.1 -24.6 8.75 -24.55 Q9.4 -24.75 9.8 -25.5 L10.15 -26.25" fill="url(#gradient48)" fill-rule="evenodd" stroke="none"/>
    <path d="M8.75 -24.55 L8.1 -24.6 8.7 -23.85 Q10.25 -20.95 8.15 -17.95 L7.75 -17.55 7.65 -17.2 7.2 -16.05 Q6.95 -15.45 6.1 -15.1 L5.5 -15.95 5.15 -17.2 Q4.6 -17.85 4.8 -19.8 L5.7 -23.9 6.75 -25.05 7.1 -26.45 Q7.05 -26.85 7.85 -25.65 L8.0 -26.5 8.4 -25.7 8.75 -24.55" fill="url(#gradient49)" fill-rule="evenodd" stroke="none"/>
    <path d="M-0.3 -11.6 L0.3 -13.15 1.7 -18.35 2.3 -17.9 2.8 -17.2 Q3.95 -14.3 6.1 -15.1 6.95 -15.45 7.2 -16.05 L7.65 -17.2 7.75 -17.55 8.15 -17.95 8.0 -15.4 Q7.05 -10.8 -0.3 -11.6" fill="url(#gradient50)" fill-rule="evenodd" stroke="none"/>
    <path d="M-2.95 -6.65 L-0.3 -11.6 Q7.05 -10.8 8.0 -15.4 L8.5 -13.8 Q8.7 -12.2 8.5 -11.5 L8.3 -10.05 Q7.6 -7.7 7.1 -7.1 L6.6 -6.45 5.05 -5.35 Q1.85 -4.15 -0.45 -5.35 L-1.6 -5.7 -2.95 -6.65" fill="url(#gradient51)" fill-rule="evenodd" stroke="none"/>
    <path d="M-6.8 -1.55 L-3.7 -5.35 -2.95 -6.65 -1.6 -5.7 -0.45 -5.35 Q1.85 -4.15 5.05 -5.35 L6.6 -6.45 7.1 -7.1 7.05 -6.2 Q6.45 -2.2 3.3 1.85 L2.2 2.45 -0.9 1.95 Q-6.3 0.75 -6.8 -1.55" fill="url(#gradient52)" fill-rule="evenodd" stroke="none"/>
    <path d="M-12.5 1.95 L-10.1 2.5 -6.8 -1.55 Q-6.3 0.75 -0.9 1.95 L2.2 2.45 3.3 1.85 2.9 3.1 1.15 6.35 -1.5 9.0 -2.35 9.8 -3.5 10.25 -3.85 10.4 Q-6.05 11.75 -11.3 6.55 L-11.65 5.9 -11.85 5.75 -12.15 4.8 -12.55 2.6 -12.5 1.95" fill="url(#gradient53)" fill-rule="evenodd" stroke="none"/>
    <path d="M-13.3 1.7 L-12.7 1.85 -12.95 2.7 -13.55 2.0 -13.3 1.7" fill="url(#gradient54)" fill-rule="evenodd" stroke="none"/>
    <path d="M-13.55 1.7 L-13.3 1.7 -13.55 2.0 -13.55 1.7" fill="url(#gradient55)" fill-rule="evenodd" stroke="none"/>
    <path d="M7.1 -7.1 Q7.6 -7.7 8.3 -10.05 L8.5 -11.5 8.65 -9.2 Q8.45 -7.5 7.05 -6.2 L7.1 -7.1" fill="url(#gradient56)" fill-rule="evenodd" stroke="none"/>
    <path d="M1.15 6.35 L0.6 7.35 Q-1.7 9.55 -1.5 9.0 L1.15 6.35" fill="url(#gradient57)" fill-rule="evenodd" stroke="none"/>
    <path d="M-3.5 10.25 Q-3.35 12.05 -7.3 13.65 -8.1 13.55 -10.05 12.45 L-12.1 10.5 Q-12.95 9.3 -12.3 8.55 L-12.3 8.45 -12.3 8.35 -12.3 8.3 -12.25 8.3 -12.15 8.1 -11.95 8.55 -11.65 8.55 -9.7 10.6 Q-10.2 11.75 -7.25 11.8 L-5.8 11.8 -5.65 12.2 -4.65 11.55 -4.6 11.45 -4.35 11.3 -3.7 10.8 -3.85 10.45 -3.85 10.4 -3.5 10.25" fill="url(#gradient58)" fill-rule="evenodd" stroke="none"/>
    <path d="M-12.15 8.1 L-12.3 6.7 -11.85 5.75 -11.65 5.9 -11.3 6.55 Q-6.05 11.75 -3.85 10.4 L-3.85 10.45 -4.45 11.25 -4.6 11.45 -4.65 11.55 -5.8 11.8 -7.25 11.8 -8.25 11.55 -9.7 10.6 -11.65 8.55 -11.95 8.55 -12.15 8.1" fill="url(#gradient59)" fill-rule="evenodd" stroke="none"/>
    <path d="M-4.45 11.25 L-3.85 10.45 -3.7 10.8 -4.35 11.3 -4.45 11.25" fill="url(#gradient60)" fill-rule="evenodd" stroke="none"/>
    <path d="M-5.8 11.8 L-4.65 11.55 -5.65 12.2 -5.8 11.8 M-4.6 11.45 L-4.45 11.25 -4.35 11.3 -4.6 11.45 M-9.7 10.6 L-8.25 11.55 -7.25 11.8 Q-10.2 11.75 -9.7 10.6" fill="url(#gradient61)" fill-rule="evenodd" stroke="none"/>
  </g>
  <defs>
    <radialGradient cx="0" cy="0" gradientTransform="matrix(0.0078, 0.0, 0.0, 0.0078, 2.3, -51.7)" gradientUnits="userSpaceOnUse" id="gradient0" r="819.2" spreadMethod="pad">
      <stop offset="0.0" stop-color="#615746"/>
      <stop offset="1.0" stop-color="#383329"/>
    </radialGradient>
    <radialGradient cx="0" cy="0" gradientTransform="matrix(0.0127, 0.0, 0.0, 0.0127, -1.65, -48.95)" gradientUnits="userSpaceOnUse" id="gradient1" r="819.2" spreadMethod="pad">
      <stop offset="0.0" stop-color="#ff9900"/>
      <stop offset="1.0" stop-color="#ff9500"/>
    </radialGradient>
    <radialGradient cx="0" cy="0" gradientTransform="matrix(0.0083, 0.0, 0.0, 0.0083, 2.2, -48.6)" gradientUnits="userSpaceOnUse" id="gradient2" r="819.2" spreadMethod="pad">
      <stop offset="0.0" stop-color="#ff9300"/>
      <stop offset="1.0" stop-color="#fd8600"/>
    </radialGradient>
    <radialGradient cx="0" cy="0" gradientTransform="matrix(0.0046, 0.0, 0.0, 0.0046, -3.7, -50.0)" gradientUnits="userSpaceOnUse" id="gradient3" r="819.2" spreadMethod="pad">
      <stop offset="0.0" stop-color="#331a00"/>
      <stop offset="1.0" stop-color="#331a00"/>
    </radialGradient>
    <radialGradient cx="0" cy="0" gradientTransform="matrix(0.0102, 0.0, 0.0, 0.0102, -1.2, -44.05)" gradientUnits="userSpaceOnUse" id="gradient4" r="819.2" spreadMethod="pad">
      <stop offset="0.0" stop-color="#625847"/>
      <stop offset="1.0" stop-color="#40392e"/>
    </radialGradient>
    <radialGradient cx="0" cy="0" gradientTransform="matrix(0.0023, 0.0, 0.0, 0.0023, -4.7, -49.9)" gradientUnits="userSpaceOnUse" id="gradient5" r="819.2" spreadMethod="pad">
      <stop offset="0.0" stop-color="#231f19"/>
      <stop offset="1.0" stop-color="#1b1814"/>
    </radialGradient>
    <radialGradient cx="0" cy="0" gradientTransform="matrix(0.0154, 0.0, 0.0, 0.0154, 1.15, -40.75)" gradientUnits="userSpaceOnUse" id="gradient6" r="819.2" spreadMethod="pad">
      <stop offset="0.0" stop-color="#625947"/>
      <stop offset="1.0" stop-color="#383228"/>
    </radialGradient>
    <radialGradient cx="0" cy="0" gradientTransform="matrix(0.0024, 0.0, 0.0, 0.0024, -7.65, -49.9)" gradientUnits="userSpaceOnUse" id="gradient7" r="819.2" spreadMethod="pad">
      <stop offset="0.0" stop-color="#ffffff"/>
      <stop offset="1.0" stop-color="#b3b3b3"/>
    </radialGradient>
    <radialGradient cx="0" cy="0" gradientTransform="matrix(0.0085, 0.0, 0.0, 0.0085, -0.25, -44.6)" gradientUnits="userSpaceOnUse" id="gradient8" r="819.2" spreadMethod="pad">
      <stop offset="0.0" stop-color="#ffca00"/>
      <stop offset="1.0" stop-color="#f28600"/>
    </radialGradient>
    <radialGradient cx="0" cy="0" gradientTransform="matrix(0.0053, 0.0, 0.0, 0.0053, -10.05, -46.7)" gradientUnits="userSpaceOnUse" id="gradient9" r="819.2" spreadMethod="pad">
      <stop offset="0.0" stop-color="#ffffff"/>
      <stop offset="1.0" stop-color="#a5a5a5"/>
    </radialGradient>
    <radialGradient cx="0" cy="0" gradientTransform="matrix(0.0074, 0.0, 0.0, 0.0074, -11.25, -44.75)" gradientUnits="userSpaceOnUse" id="gradient10" r="819.2" spreadMethod="pad">
      <stop offset="0.0" stop-color="#655b49"/>
      <stop offset="1.0" stop-color="#3a352a"/>
    </radialGradient>
    <radialGradient cx="0" cy="0" gradientTransform="matrix(0.0022, 0.0, 0.0, 0.0022, -11.15, -47.0)" gradientUnits="userSpaceOnUse" id="gradient11" r="819.2" spreadMethod="pad">
      <stop offset="0.0" stop-color="#dadada"/>
      <stop offset="1.0" stop-color="#c0c0c0"/>
    </radialGradient>
    <radialGradient cx="0" cy="0" gradientTransform="matrix(0.0036, 0.0, 0.0, 0.0036, -15.9, -44.15)" gradientUnits="userSpaceOnUse" id="gradient12" r="819.2" spreadMethod="pad">
      <stop offset="0.0" stop-color="#ffffff"/>
      <stop offset="1.0" stop-color="#ababab"/>
    </radialGradient>
    <radialGradient cx="0" cy="0" gradientTransform="matrix(0.0102, 0.0, 0.0, 0.0102, -1.2, -40.75)" gradientUnits="userSpaceOnUse" id="gradient13" r="819.2" spreadMethod="pad">
      <stop offset="0.0" stop-color="#ffc900"/>
      <stop offset="1.0" stop-color="#f98800"/>
    </radialGradient>
    <radialGradient cx="0" cy="0" gradientTransform="matrix(0.0408, 0.0, 0.0, 0.0408, -1.3, -41.35)" gradientUnits="userSpaceOnUse" id="gradient14" r="819.2" spreadMethod="pad">
      <stop offset="0.0" stop-color="#ffc800"/>
      <stop offset="1.0" stop-color="#fe7f00"/>
    </radialGradient>
    <radialGradient cx="0" cy="0" gradientTransform="matrix(0.0534, 0.0, 0.0, 0.0534, -10.0, -43.95)" gradientUnits="userSpaceOnUse" id="gradient15" r="819.2" spreadMethod="pad">
      <stop offset="0.0" stop-color="#605645"/>
      <stop offset="1.0" stop-color="#3b352b"/>
    </radialGradient>
    <radialGradient cx="0" cy="0" gradientTransform="matrix(0.0083, 0.0, 0.0, 0.0083, -9.7, -43.15)" gradientUnits="userSpaceOnUse" id="gradient16" r="819.2" spreadMethod="pad">
      <stop offset="0.0" stop-color="#443e32"/>
      <stop offset="1.0" stop-color="#423c30"/>
    </radialGradient>
    <radialGradient cx="0" cy="0" gradientTransform="matrix(0.0038, 0.0, 0.0, 0.0038, -10.7, -42.6)" gradientUnits="userSpaceOnUse" id="gradient17" r="819.2" spreadMethod="pad">
      <stop offset="0.0" stop-color="#ffd300"/>
      <stop offset="1.0" stop-color="#ffad00"/>
    </radialGradient>
    <radialGradient cx="0" cy="0" gradientTransform="matrix(0.0079, 0.0, 0.0, 0.0079, 6.6, -37.45)" gradientUnits="userSpaceOnUse" id="gradient18" r="819.2" spreadMethod="pad">
      <stop offset="0.0" stop-color="#ffdc7e"/>
      <stop offset="1.0" stop-color="#cc9455"/>
    </radialGradient>
    <radialGradient cx="0" cy="0" gradientTransform="matrix(0.0544, 0.0, 0.0, 0.0544, -10.3, 2.5)" gradientUnits="userSpaceOnUse" id="gradient19" r="819.2" spreadMethod="pad">
      <stop offset="0.0" stop-color="#5d5444"/>
      <stop offset="1.0" stop-color="#453e32"/>
    </radialGradient>
    <radialGradient cx="0" cy="0" gradientTransform="matrix(0.0134, 0.0, 0.0, 0.0134, -2.75, -35.35)" gradientUnits="userSpaceOnUse" id="gradient20" r="819.2" spreadMethod="pad">
      <stop offset="0.0" stop-color="#8c8080"/>
      <stop offset="1.0" stop-color="#4c4545"/>
    </radialGradient>
    <radialGradient cx="0" cy="0" gradientTransform="matrix(0.003, 0.0, 0.0, 0.003, -0.05, -42.65)" gradientUnits="userSpaceOnUse" id="gradient21" r="819.2" spreadMethod="pad">
      <stop offset="0.0" stop-color="#ff8a00"/>
      <stop offset="1.0" stop-color="#ff8900"/>
    </radialGradient>
    <radialGradient cx="0" cy="0" gradientTransform="matrix(0.0063, 0.0, 0.0, 0.0063, -10.9, -41.8)" gradientUnits="userSpaceOnUse" id="gradient22" r="819.2" spreadMethod="pad">
      <stop offset="0.0" stop-color="#ffdc7e"/>
      <stop offset="1.0" stop-color="#c78f52"/>
    </radialGradient>
    <radialGradient cx="0" cy="0" gradientTransform="matrix(0.0051, 0.0, 0.0, 0.0051, -13.4, -40.7)" gradientUnits="userSpaceOnUse" id="gradient23" r="819.2" spreadMethod="pad">
      <stop offset="0.0" stop-color="#ffd300"/>
      <stop offset="1.0" stop-color="#cd6f00"/>
    </radialGradient>
    <radialGradient cx="0" cy="0" gradientTransform="matrix(0.0083, 0.0, 0.0, 0.0083, -15.3, -38.95)" gradientUnits="userSpaceOnUse" id="gradient24" r="819.2" spreadMethod="pad">
      <stop offset="0.0" stop-color="#ffe482"/>
      <stop offset="1.0" stop-color="#c18b4f"/>
    </radialGradient>
    <radialGradient cx="0" cy="0" gradientTransform="matrix(0.0316, 0.0, 0.0, 0.0316, -3.35, -40.65)" gradientUnits="userSpaceOnUse" id="gradient25" r="819.2" spreadMethod="pad">
      <stop offset="0.0" stop-color="#8f8383"/>
      <stop offset="1.0" stop-color="#5b5353"/>
    </radialGradient>
    <radialGradient cx="0" cy="0" gradientTransform="matrix(0.0087, 0.0, 0.0, 0.0087, -14.45, -37.8)" gradientUnits="userSpaceOnUse" id="gradient26" r="819.2" spreadMethod="pad">
      <stop offset="0.0" stop-color="#ffe282"/>
      <stop offset="1.0" stop-color="#8c653a"/>
    </radialGradient>
    <radialGradient cx="0" cy="0" gradientTransform="matrix(0.0076, 0.0, 0.0, 0.0076, -14.05, -36.8)" gradientUnits="userSpaceOnUse" id="gradient27" r="819.2" spreadMethod="pad">
      <stop offset="0.0" stop-color="#ffe483"/>
      <stop offset="1.0" stop-color="#8a6439"/>
    </radialGradient>
    <radialGradient cx="0" cy="0" gradientTransform="matrix(0.006, 0.0, 0.0, 0.006, 9.9, -33.15)" gradientUnits="userSpaceOnUse" id="gradient28" r="819.2" spreadMethod="pad">
      <stop offset="0.0" stop-color="#ffbf00"/>
      <stop offset="1.0" stop-color="#ee7700"/>
    </radialGradient>
    <radialGradient cx="0" cy="0" gradientTransform="matrix(0.012, 0.0, 0.0, 0.012, -2.0, -31.65)" gradientUnits="userSpaceOnUse" id="gradient29" r="819.2" spreadMethod="pad">
      <stop offset="0.0" stop-color="#ffda00"/>
      <stop offset="1.0" stop-color="#eb7900"/>
    </radialGradient>
    <radialGradient cx="0" cy="0" gradientTransform="matrix(0.0111, 0.0, 0.0, 0.0111, -15.0, -31.1)" gradientUnits="userSpaceOnUse" id="gradient30" r="819.2" spreadMethod="pad">
      <stop offset="0.0" stop-color="#665c4a"/>
      <stop offset="1.0" stop-color="#373228"/>
    </radialGradient>
    <radialGradient cx="0" cy="0" gradientTransform="matrix(0.0035, 0.0, 0.0, 0.0035, -16.75, -32.15)" gradientUnits="userSpaceOnUse" id="gradient31" r="819.2" spreadMethod="pad">
      <stop offset="0.0" stop-color="#ffbe00"/>
      <stop offset="1.0" stop-color="#d06800"/>
    </radialGradient>
    <radialGradient cx="0" cy="0" gradientTransform="matrix(0.0045, 0.0, 0.0, 0.0045, -16.85, -34.7)" gradientUnits="userSpaceOnUse" id="gradient32" r="819.2" spreadMethod="pad">
      <stop offset="0.0" stop-color="#ffe885"/>
      <stop offset="1.0" stop-color="#b9864c"/>
    </radialGradient>
    <radialGradient cx="0" cy="0" gradientTransform="matrix(0.002, 0.0, 0.0, 0.002, -18.0, -33.6)" gradientUnits="userSpaceOnUse" id="gradient33" r="819.2" spreadMethod="pad">
      <stop offset="0.0" stop-color="#b3824a"/>
      <stop offset="1.0" stop-color="#9e7242"/>
    </radialGradient>
    <radialGradient cx="0" cy="0" gradientTransform="matrix(0.0048, 0.0, 0.0, 0.0048, -19.65, -32.5)" gradientUnits="userSpaceOnUse" id="gradient34" r="819.2" spreadMethod="pad">
      <stop offset="0.0" stop-color="#d0d0d0"/>
      <stop offset="1.0" stop-color="#909090"/>
    </radialGradient>
    <radialGradient cx="0" cy="0" gradientTransform="matrix(0.001, 0.0, 0.0, 0.001, -19.55, -24.95)" gradientUnits="userSpaceOnUse" id="gradient35" r="819.2" spreadMethod="pad">
      <stop offset="0.0" stop-color="#373228"/>
      <stop offset="1.0" stop-color="#312c24"/>
    </radialGradient>
    <radialGradient cx="0" cy="0" gradientTransform="matrix(0.0038, 0.0, 0.0, 0.0038, -17.45, -23.0)" gradientUnits="userSpaceOnUse" id="gradient36" r="819.2" spreadMethod="pad">
      <stop offset="0.0" stop-color="#fff48b"/>
      <stop offset="1.0" stop-color="#9f7342"/>
    </radialGradient>
    <radialGradient cx="0" cy="0" gradientTransform="matrix(0.0036, 0.0, 0.0, 0.0036, -16.6, -24.15)" gradientUnits="userSpaceOnUse" id="gradient37" r="819.2" spreadMethod="pad">
      <stop offset="0.0" stop-color="#fff38b"/>
      <stop offset="1.0" stop-color="#bb874d"/>
    </radialGradient>
    <radialGradient cx="0" cy="0" gradientTransform="matrix(0.0065, 0.0, 0.0, 0.0065, 12.5, -33.4)" gradientUnits="userSpaceOnUse" id="gradient38" r="819.2" spreadMethod="pad">
      <stop offset="0.0" stop-color="#e0a25d"/>
      <stop offset="1.0" stop-color="#aa7b46"/>
    </radialGradient>
    <radialGradient cx="0" cy="0" gradientTransform="matrix(0.0072, 0.0, 0.0, 0.0072, 10.1, -32.65)" gradientUnits="userSpaceOnUse" id="gradient39" r="819.2" spreadMethod="pad">
      <stop offset="0.0" stop-color="#ffe382"/>
      <stop offset="1.0" stop-color="#956c3d"/>
    </radialGradient>
    <radialGradient cx="0" cy="0" gradientTransform="matrix(0.0049, 0.0, 0.0, 0.0049, 8.05, -31.5)" gradientUnits="userSpaceOnUse" id="gradient40" r="819.2" spreadMethod="pad">
      <stop offset="0.0" stop-color="#ffcc75"/>
      <stop offset="1.0" stop-color="#876137"/>
    </radialGradient>
    <radialGradient cx="0" cy="0" gradientTransform="matrix(0.0056, 0.0, 0.0, 0.0056, 13.7, -28.7)" gradientUnits="userSpaceOnUse" id="gradient41" r="819.2" spreadMethod="pad">
      <stop offset="0.0" stop-color="#645a48"/>
      <stop offset="1.0" stop-color="#2d2821"/>
    </radialGradient>
    <radialGradient cx="0" cy="0" gradientTransform="matrix(0.0011, 0.0, 0.0, 0.0011, 15.65, -28.85)" gradientUnits="userSpaceOnUse" id="gradient42" r="819.2" spreadMethod="pad">
      <stop offset="0.0" stop-color="#f6b266"/>
      <stop offset="1.0" stop-color="#886238"/>
    </radialGradient>
    <radialGradient cx="0" cy="0" gradientTransform="matrix(0.0044, 0.0, 0.0, 0.0044, 16.75, -27.3)" gradientUnits="userSpaceOnUse" id="gradient43" r="819.2" spreadMethod="pad">
      <stop offset="0.0" stop-color="#ffef89"/>
      <stop offset="1.0" stop-color="#8c653a"/>
    </radialGradient>
    <radialGradient cx="0" cy="0" gradientTransform="matrix(0.0036, 0.0, 0.0, 0.0036, 9.4, -28.95)" gradientUnits="userSpaceOnUse" id="gradient44" r="819.2" spreadMethod="pad">
      <stop offset="0.0" stop-color="#ffe080"/>
      <stop offset="1.0" stop-color="#7f5c34"/>
    </radialGradient>
    <radialGradient cx="0" cy="0" gradientTransform="matrix(0.0099, 0.0, 0.0, 0.0099, 4.0, -22.95)" gradientUnits="userSpaceOnUse" id="gradient45" r="819.2" spreadMethod="pad">
      <stop offset="0.0" stop-color="#ffda00"/>
      <stop offset="1.0" stop-color="#bb6b00"/>
    </radialGradient>
    <radialGradient cx="0" cy="0" gradientTransform="matrix(0.0083, 0.0, 0.0, 0.0083, 1.35, -25.5)" gradientUnits="userSpaceOnUse" id="gradient46" r="819.2" spreadMethod="pad">
      <stop offset="0.0" stop-color="#404c79"/>
      <stop offset="1.0" stop-color="#29304d"/>
    </radialGradient>
    <radialGradient cx="0" cy="0" gradientTransform="matrix(0.003, 0.0, 0.0, 0.003, 10.8, -27.45)" gradientUnits="userSpaceOnUse" id="gradient47" r="819.2" spreadMethod="pad">
      <stop offset="0.0" stop-color="#ffa100"/>
      <stop offset="1.0" stop-color="#f87c00"/>
    </radialGradient>
    <radialGradient cx="0" cy="0" gradientTransform="matrix(0.0045, 0.0, 0.0, 0.0045, 11.1, -26.7)" gradientUnits="userSpaceOnUse" id="gradient48" r="819.2" spreadMethod="pad">
      <stop offset="0.0" stop-color="#ffffff"/>
      <stop offset="1.0" stop-color="#8c8c8c"/>
    </radialGradient>
    <radialGradient cx="0" cy="0" gradientTransform="matrix(0.0096, 0.0, 0.0, 0.0096, 4.25, -22.8)" gradientUnits="userSpaceOnUse" id="gradient49" r="819.2" spreadMethod="pad">
      <stop offset="0.0" stop-color="#414d7a"/>
      <stop offset="1.0" stop-color="#1d2337"/>
    </radialGradient>
    <radialGradient cx="0" cy="0" gradientTransform="matrix(0.0123, 0.0, 0.0, 0.0123, 2.65, -19.25)" gradientUnits="userSpaceOnUse" id="gradient50" r="819.2" spreadMethod="pad">
      <stop offset="0.0" stop-color="#374169"/>
      <stop offset="1.0" stop-color="#272e4a"/>
    </radialGradient>
    <radialGradient cx="0" cy="0" gradientTransform="matrix(0.0119, 0.0, 0.0, 0.0119, 3.0, -13.85)" gradientUnits="userSpaceOnUse" id="gradient51" r="819.2" spreadMethod="pad">
      <stop offset="0.0" stop-color="#424e7c"/>
      <stop offset="1.0" stop-color="#1c2236"/>
    </radialGradient>
    <radialGradient cx="0" cy="0" gradientTransform="matrix(0.0141, 0.0, 0.0, 0.0141, 0.2, -8.05)" gradientUnits="userSpaceOnUse" id="gradient52" r="819.2" spreadMethod="pad">
      <stop offset="0.0" stop-color="#455283"/>
      <stop offset="1.0" stop-color="#232942"/>
    </radialGradient>
    <radialGradient cx="0" cy="0" gradientTransform="matrix(0.0155, 0.0, 0.0, 0.0155, -4.3, -1.8)" gradientUnits="userSpaceOnUse" id="gradient53" r="819.2" spreadMethod="pad">
      <stop offset="0.0" stop-color="#455283"/>
      <stop offset="1.0" stop-color="#1e2338"/>
    </radialGradient>
    <radialGradient cx="0" cy="0" gradientTransform="matrix(0.0085, 0.0, 0.0, 0.0085, -13.55, 1.9)" gradientUnits="userSpaceOnUse" id="gradient54" r="819.2" spreadMethod="pad">
      <stop offset="0.0" stop-color="#0c0b09"/>
      <stop offset="1.0" stop-color="#0c0b09"/>
    </radialGradient>
    <radialGradient cx="0" cy="0" gradientTransform="matrix(0.0091, 0.0, 0.0, 0.0091, -13.6, 1.6)" gradientUnits="userSpaceOnUse" id="gradient55" r="819.2" spreadMethod="pad">
      <stop offset="0.0" stop-color="#0c0b09"/>
      <stop offset="1.0" stop-color="#0c0b09"/>
    </radialGradient>
    <radialGradient cx="0" cy="0" gradientTransform="matrix(0.006, 0.0, 0.0, 0.006, 7.25, -11.0)" gradientUnits="userSpaceOnUse" id="gradient56" r="819.2" spreadMethod="pad">
      <stop offset="0.0" stop-color="#272f4b"/>
      <stop offset="1.0" stop-color="#1a1f32"/>
    </radialGradient>
    <radialGradient cx="0" cy="0" gradientTransform="matrix(0.0055, 0.0, 0.0, 0.0055, 0.4, 7.05)" gradientUnits="userSpaceOnUse" id="gradient57" r="819.2" spreadMethod="pad">
      <stop offset="0.0" stop-color="#151928"/>
      <stop offset="1.0" stop-color="#0c0f18"/>
    </radialGradient>
    <radialGradient cx="0" cy="0" gradientTransform="matrix(0.0079, 0.0, 0.0, 0.0079, -9.1, 7.55)" gradientUnits="userSpaceOnUse" id="gradient58" r="819.2" spreadMethod="pad">
      <stop offset="0.0" stop-color="#a49595"/>
      <stop offset="1.0" stop-color="#524a4a"/>
    </radialGradient>
    <radialGradient cx="0" cy="0" gradientTransform="matrix(0.0069, 0.0, 0.0, 0.0069, -9.05, 8.3)" gradientUnits="userSpaceOnUse" id="gradient59" r="819.2" spreadMethod="pad">
      <stop offset="0.0" stop-color="#ffec00"/>
      <stop offset="1.0" stop-color="#db6e00"/>
    </radialGradient>
    <radialGradient cx="0" cy="0" gradientTransform="matrix(0.0019, 0.0, 0.0, 0.0019, -4.45, 11.2)" gradientUnits="userSpaceOnUse" id="gradient60" r="819.2" spreadMethod="pad">
      <stop offset="0.0" stop-color="#463f33"/>
      <stop offset="1.0" stop-color="#413b2f"/>
    </radialGradient>
    <radialGradient cx="0" cy="0" gradientTransform="matrix(0.0072, 0.0, 0.0, 0.0072, -10.3, 10.65)" gradientUnits="userSpaceOnUse" id="gradient61" r="819.2" spreadMethod="pad">
      <stop offset="0.0" stop-color="#6c614e"/>
      <stop offset="1.0" stop-color="#352f26"/>
    </radialGradient>
  </defs>
</svg>
