<?xml version="1.0" encoding="UTF-8" standalone="no"?>
<svg xmlns:ffdec="https://www.free-decompiler.com/flash" xmlns:xlink="http://www.w3.org/1999/xlink" ffdec:objectType="shape" height="65.45px" width="30.75px" xmlns="http://www.w3.org/2000/svg">
  <g transform="matrix(1.0, 0.0, 0.0, 1.0, 14.5, 58.4)">
    <path d="M-1.55 -53.7 Q-1.1 -55.65 -0.85 -55.6 L1.5 -58.15 Q7.85 -59.2 8.5 -56.05 L8.55 -56.0 Q9.0 -55.4 9.4 -53.2 L8.55 -52.05 Q8.05 -51.1 5.85 -49.9 L1.65 -49.45 1.6 -49.45 -1.0 -51.1 -1.65 -53.05 -1.5 -53.65 -1.55 -53.7" fill="url(#gradient0)" fill-rule="evenodd" stroke="none"/>
    <path d="M-1.55 -53.7 L-1.5 -53.65 -1.65 -53.05 -1.0 -51.1 1.6 -49.45 Q-0.65 -49.8 -1.75 -51.6 L-1.85 -53.25 -1.55 -53.7 M1.65 -49.45 L5.85 -49.9 Q8.05 -51.1 8.55 -52.05 L9.4 -53.2 Q9.0 -55.4 8.55 -56.0 L9.45 -54.9 9.7 -53.5 9.05 -52.05 Q7.3 -49.05 1.65 -49.45" fill="url(#gradient1)" fill-rule="evenodd" stroke="none"/>
    <path d="M1.6 -49.45 L1.65 -49.45 Q7.3 -49.05 9.05 -52.05 L9.7 -53.5 9.9 -50.9 Q9.7 -49.45 8.4 -48.4 5.65 -46.35 3.35 -47.3 L2.95 -48.15 Q0.3 -49.05 -0.85 -49.9 L-1.1 -50.35 -1.65 -50.8 -1.7 -51.15 -1.75 -51.6 Q-0.65 -49.8 1.6 -49.45" fill="url(#gradient2)" fill-rule="evenodd" stroke="none"/>
    <path d="M8.4 -48.4 Q9.25 -46.9 8.9 -45.1 L8.65 -45.8 7.7 -46.0 5.55 -45.25 1.0 -44.5 0.8 -44.75 2.3 -44.95 Q4.1 -46.7 3.35 -47.3 5.65 -46.35 8.4 -48.4" fill="url(#gradient3)" fill-rule="evenodd" stroke="none"/>
    <path d="M8.9 -45.1 L9.4 -43.7 9.3 -41.1 9.0 -40.1 Q6.3 -40.8 3.85 -37.45 L2.95 -37.3 2.6 -37.7 2.55 -37.75 2.15 -37.4 1.95 -37.4 1.25 -37.75 Q0.9 -36.75 -1.35 -36.75 L-2.25 -37.05 -2.0 -38.85 -0.75 -41.1 0.0 -41.4 0.1 -41.6 1.2 -43.1 1.0 -44.5 5.55 -45.25 7.7 -46.0 8.65 -45.8 8.9 -45.1 M-4.5 -51.0 L-1.7 -51.15 -1.65 -50.8 -2.8 -50.55 -3.95 -49.2 -4.05 -49.0 -3.9 -47.65 -5.4 -47.4 Q-7.1 -45.85 -6.5 -44.5 L-6.55 -44.45 -7.6 -42.5 -7.65 -42.15 -7.8 -42.7 Q-7.25 -44.7 -7.9 -45.9 L-7.75 -46.45 -6.9 -48.5 -6.15 -49.4 -5.65 -49.9 -4.5 -51.0" fill="url(#gradient4)" fill-rule="evenodd" stroke="none"/>
    <path d="M1.0 -44.5 L1.2 -43.1 0.1 -41.6 0.0 -41.4 -0.75 -41.1 -2.1 -40.8 -2.35 -40.7 -2.45 -40.8 -2.65 -40.8 -2.65 -40.95 -4.6 -42.0 -6.15 -43.15 -6.4 -43.55 -6.5 -44.45 -6.5 -44.5 Q-7.1 -45.85 -5.4 -47.4 L-3.9 -47.65 Q-0.6 -44.45 0.8 -44.75 L1.0 -44.5" fill="url(#gradient5)" fill-rule="evenodd" stroke="none"/>
    <path d="M3.35 -47.3 Q4.1 -46.7 2.3 -44.95 L0.8 -44.75 Q-0.6 -44.45 -3.9 -47.65 L-4.05 -49.0 -3.95 -49.2 -2.8 -50.55 -1.65 -50.8 -1.1 -50.35 -0.85 -49.9 Q0.3 -49.05 2.95 -48.15 L3.35 -47.3" fill="url(#gradient6)" fill-rule="evenodd" stroke="none"/>
    <path d="M0.6 4.05 L0.3 7.05 -5.05 4.1 -4.05 0.2 -4.0 0.0 -3.75 -0.9 -3.45 -1.8 -3.1 -5.35 -2.8 -10.85 -2.85 -16.85 -2.9 -17.35 -2.75 -33.8 -2.25 -37.05 -1.35 -36.75 Q0.9 -36.75 1.25 -37.75 L1.95 -37.4 2.15 -37.4 2.55 -37.75 2.6 -37.7 2.95 -37.3 3.85 -37.45 3.3 -36.35 Q3.35 -35.25 3.0 -34.45 L2.8 -33.8 2.05 -28.05 1.8 -25.6 1.55 -19.15 1.35 -12.6 1.2 -6.85 1.0 -1.35 0.7 3.3 0.6 4.05" fill="url(#gradient7)" fill-rule="evenodd" stroke="none"/>
    <path d="M9.3 -41.1 L9.8 -40.35 10.2 -39.1 9.0 -40.1 9.3 -41.1" fill="url(#gradient8)" fill-rule="evenodd" stroke="none"/>
    <path d="M10.2 -39.1 Q12.05 -37.1 12.0 -33.85 7.9 -29.2 3.85 -31.85 L3.5 -32.5 3.0 -34.45 Q3.35 -35.25 3.3 -36.35 L3.85 -37.45 Q6.3 -40.8 9.0 -40.1 L10.2 -39.1 M11.0 -31.1 L10.8 -30.8 10.05 -30.45 11.0 -31.1" fill="url(#gradient9)" fill-rule="evenodd" stroke="none"/>
    <path d="M3.0 -34.45 L3.5 -32.5 3.85 -31.85 Q3.85 -30.6 5.1 -30.05 L4.8 -28.15 4.0 -27.85 2.05 -28.05 2.8 -33.8 3.0 -34.45 M-9.15 -42.2 L-9.25 -41.9 -9.3 -41.85 -9.3 -41.75 -9.35 -41.7 -9.4 -41.4 -9.45 -41.3 -9.45 -41.2 -9.5 -41.15 -9.55 -41.0 -9.6 -41.0 -9.75 -41.25 -9.65 -42.1 -9.15 -42.2" fill="url(#gradient10)" fill-rule="evenodd" stroke="none"/>
    <path d="M2.05 -28.05 L4.0 -27.85 4.8 -28.15 5.15 -26.15 5.85 -24.9 Q4.1 -25.6 1.8 -25.6 L2.05 -28.05" fill="url(#gradient11)" fill-rule="evenodd" stroke="none"/>
    <path d="M6.75 -29.6 L8.85 -29.85 10.05 -30.45 10.8 -30.8 11.0 -31.1 11.4 -30.9 12.1 -29.55 Q13.25 -26.05 11.0 -23.85 L10.75 -23.65 10.15 -23.35 9.2 -23.25 Q7.95 -23.5 8.0 -23.85 L6.9 -25.1 6.5 -26.4 6.35 -27.5 6.5 -29.35 6.7 -29.55 6.75 -29.6" fill="url(#gradient12)" fill-rule="evenodd" stroke="none"/>
    <path d="M12.0 -33.85 L12.15 -33.15 12.1 -32.3 11.9 -32.0 11.6 -31.5 11.0 -31.1 10.05 -30.45 8.85 -29.85 6.75 -29.6 6.5 -29.7 5.1 -30.05 Q3.85 -30.6 3.85 -31.85 7.9 -29.2 12.0 -33.85" fill="url(#gradient13)" fill-rule="evenodd" stroke="none"/>
    <path d="M4.8 -28.15 L5.1 -30.05 6.5 -29.7 6.5 -29.35 6.35 -27.5 6.5 -26.4 6.15 -26.1 5.9 -24.85 5.85 -24.9 5.15 -26.15 4.8 -28.15" fill="url(#gradient14)" fill-rule="evenodd" stroke="none"/>
    <path d="M11.9 -32.0 Q13.9 -29.0 12.15 -24.35 L11.85 -24.0 11.0 -23.85 Q13.25 -26.05 12.1 -29.55 L11.4 -30.9 11.0 -31.1 11.6 -31.5 11.9 -32.0 M6.75 -29.6 L6.7 -29.55 6.5 -29.35 6.5 -29.7 6.75 -29.6 M10.15 -23.35 L10.75 -23.65 10.25 -23.25 10.15 -23.35" fill="url(#gradient15)" fill-rule="evenodd" stroke="none"/>
    <path d="M1.8 -25.6 Q4.1 -25.6 5.85 -24.9 L5.9 -24.85 6.0 -24.3 5.5 -23.7 4.95 -22.4 4.0 -23.1 Q4.3 -21.55 4.7 -21.35 L4.5 -19.65 4.0 -18.95 2.15 -18.85 1.55 -19.15 1.8 -25.6" fill="url(#gradient16)" fill-rule="evenodd" stroke="none"/>
    <path d="M6.5 -26.4 L6.9 -25.1 8.0 -23.85 7.4 -22.75 6.9 -22.8 6.85 -22.8 6.45 -23.2 6.0 -24.3 5.9 -24.85 6.15 -26.1 6.5 -26.4" fill="url(#gradient17)" fill-rule="evenodd" stroke="none"/>
    <path d="M12.15 -24.35 L13.45 -22.5 Q13.7 -22.4 13.7 -21.1 L13.7 -20.7 Q14.6 -18.85 14.1 -18.3 L12.95 -17.1 Q11.1 -17.3 10.5 -18.2 L10.5 -18.3 10.15 -18.55 8.8 -19.7 8.55 -20.15 8.5 -20.6 8.5 -20.85 9.2 -21.25 9.4 -21.75 10.1 -22.75 10.25 -23.25 10.75 -23.65 11.0 -23.85 11.85 -24.0 12.15 -24.35" fill="url(#gradient18)" fill-rule="evenodd" stroke="none"/>
    <path d="M8.0 -23.85 Q7.95 -23.5 9.2 -23.25 L10.15 -23.35 10.25 -23.25 10.1 -22.75 9.4 -21.75 7.4 -22.75 8.0 -23.85" fill="url(#gradient19)" fill-rule="evenodd" stroke="none"/>
    <path d="M13.7 -21.1 L14.0 -20.9 13.7 -20.7 13.7 -21.1" fill="url(#gradient20)" fill-rule="evenodd" stroke="none"/>
    <path d="M14.0 -20.9 Q17.6 -19.35 15.4 -16.0 11.85 -14.1 10.5 -17.45 L10.5 -18.2 Q11.1 -17.3 12.95 -17.1 L14.1 -18.3 Q14.6 -18.85 13.7 -20.7 L14.0 -20.9" fill="url(#gradient21)" fill-rule="evenodd" stroke="none"/>
    <path d="M10.5 -17.45 L10.5 -16.9 Q10.15 -11.7 1.35 -12.6 L1.55 -19.15 2.15 -18.85 4.0 -18.95 4.75 -18.3 Q6.5 -14.95 8.45 -15.95 9.2 -16.2 9.6 -17.0 L10.15 -18.55 10.5 -18.3 10.5 -18.2 10.5 -17.45" fill="url(#gradient22)" fill-rule="evenodd" stroke="none"/>
    <path d="M6.9 -22.8 L7.4 -22.75 9.4 -21.75 9.2 -21.25 8.5 -20.85 8.4 -20.8 7.75 -20.55 7.0 -20.5 6.3 -20.45 Q4.9 -20.8 4.7 -21.35 4.3 -21.55 4.0 -23.1 L4.95 -22.4 5.65 -22.25 6.85 -22.75 6.9 -22.8" fill="url(#gradient23)" fill-rule="evenodd" stroke="none"/>
    <path d="M6.0 -24.3 L6.45 -23.2 6.85 -22.8 6.85 -22.75 5.65 -22.25 4.95 -22.4 5.5 -23.7 6.0 -24.3 M8.45 -15.95 Q6.5 -14.95 4.75 -18.3 L4.0 -18.95 4.5 -19.65 4.7 -21.35 Q4.9 -20.8 6.3 -20.45 L7.0 -20.5 7.0 -18.9 7.85 -16.6 8.45 -15.95" fill="url(#gradient24)" fill-rule="evenodd" stroke="none"/>
    <path d="M6.85 -22.8 L6.9 -22.8 6.85 -22.75 6.85 -22.8" fill="url(#gradient25)" fill-rule="evenodd" stroke="none"/>
    <path d="M8.5 -20.6 L8.55 -20.15 8.8 -19.7 10.15 -18.55 9.6 -17.0 Q9.2 -16.2 8.45 -15.95 L7.85 -16.6 7.0 -18.9 7.0 -20.5 7.75 -20.55 8.4 -20.8 8.5 -20.6" fill="url(#gradient26)" fill-rule="evenodd" stroke="none"/>
    <path d="M8.5 -20.85 L8.5 -20.6 8.4 -20.8 8.5 -20.85" fill="url(#gradient27)" fill-rule="evenodd" stroke="none"/>
    <path d="M10.95 -11.25 Q11.2 -11.8 11.25 -7.1 L10.9 -5.45 Q8.75 0.95 1.0 -1.35 L1.2 -6.85 Q6.2 -5.1 8.2 -7.05 8.7 -6.95 10.05 -8.7 L10.95 -11.25" fill="url(#gradient28)" fill-rule="evenodd" stroke="none"/>
    <path d="M10.5 -16.9 Q11.5 -15.85 10.95 -11.25 L10.05 -8.7 Q8.7 -6.95 8.2 -7.05 6.2 -5.1 1.2 -6.85 L1.35 -12.6 Q10.15 -11.7 10.5 -16.9" fill="url(#gradient29)" fill-rule="evenodd" stroke="none"/>
    <path d="M10.9 -5.45 Q11.2 -3.85 10.9 -1.05 L10.0 0.2 9.4 1.2 8.5 2.65 7.7 3.35 6.3 4.2 4.25 4.4 1.45 3.9 0.7 3.3 1.0 -1.35 Q8.75 0.95 10.9 -5.45" fill="url(#gradient30)" fill-rule="evenodd" stroke="none"/>
    <path d="M-11.75 -42.85 L-12.3 -44.2 Q-12.45 -45.2 -12.1 -46.3 L-11.25 -48.0 Q-9.8 -49.9 -8.2 -50.15 -9.2 -48.5 -6.9 -48.5 L-7.75 -46.45 -7.9 -46.15 -8.0 -46.0 -8.25 -45.0 -8.4 -44.85 Q-12.4 -44.05 -9.9 -42.4 L-10.1 -42.05 -10.5 -42.1 -11.15 -42.25 -11.5 -42.6 -11.75 -42.85 M-6.75 -50.35 L-6.3 -50.3 -5.65 -49.9 -6.15 -49.4 -6.75 -50.35 M-9.55 -47.8 L-10.75 -47.5 Q-10.05 -45.35 -9.2 -45.85 -7.45 -47.25 -9.55 -47.8" fill="url(#gradient31)" fill-rule="evenodd" stroke="none"/>
    <path d="M-6.3 -50.3 L-4.65 -52.8 -4.5 -51.0 -5.65 -49.9 -6.3 -50.3" fill="url(#gradient32)" fill-rule="evenodd" stroke="none"/>
    <path d="M-8.2 -50.15 L-7.7 -51.85 -6.75 -50.35 -6.15 -49.4 -6.9 -48.5 Q-9.2 -48.5 -8.2 -50.15" fill="url(#gradient33)" fill-rule="evenodd" stroke="none"/>
    <path d="M-7.9 -46.15 L-7.95 -46.0 -8.0 -46.0 -7.9 -46.15 M-8.25 -45.0 L-8.3 -44.8 -8.35 -44.8 -8.4 -44.85 -8.25 -45.0 M-9.9 -42.4 L-9.65 -42.1 -9.75 -41.25 -10.3 -41.7 -10.5 -42.1 -10.1 -42.05 -9.9 -42.4" fill="url(#gradient34)" fill-rule="evenodd" stroke="none"/>
    <path d="M-6.5 -2.75 L-6.3 3.25 -6.4 3.35 -10.2 -2.95 Q-8.65 -9.05 -8.9 -18.0 L-9.7 -32.9 -9.7 -34.75 -9.7 -34.8 -9.7 -35.75 -9.7 -35.85 -9.55 -40.2 -9.55 -40.8 -9.6 -40.9 -9.55 -41.0 -9.5 -41.15 -9.45 -41.2 -9.45 -41.3 -9.4 -41.4 -9.35 -41.7 -9.3 -41.75 -9.3 -41.85 -9.25 -41.9 -9.15 -42.2 -8.35 -44.75 -8.3 -44.8 -8.25 -45.0 -8.0 -46.0 -7.95 -46.0 -7.9 -45.9 Q-7.25 -44.7 -7.8 -42.7 L-7.65 -42.15 -8.4 -37.7 -8.75 -29.55 -8.25 -12.4 Q-7.9 -11.8 -6.75 -11.25 L-6.65 -7.65 -6.5 -2.75" fill="url(#gradient35)" fill-rule="evenodd" stroke="none"/>
    <path d="M-7.75 -46.45 L-7.9 -45.9 -7.95 -46.0 -7.9 -46.15 -7.75 -46.45 M-8.3 -44.8 L-8.35 -44.75 -8.35 -44.8 -8.3 -44.8 M-9.55 -41.0 L-9.6 -40.9 -9.6 -41.0 -9.55 -41.0" fill="url(#gradient36)" fill-rule="evenodd" stroke="none"/>
    <path d="M-8.35 -44.75 L-9.15 -42.2 -9.65 -42.1 -9.9 -42.4 Q-12.4 -44.05 -8.4 -44.85 L-8.35 -44.8 -8.35 -44.75" fill="url(#gradient37)" fill-rule="evenodd" stroke="none"/>
    <path d="M-6.55 -44.45 L-6.5 -44.5 -6.5 -44.45 -6.55 -44.45" fill="url(#gradient38)" fill-rule="evenodd" stroke="none"/>
    <path d="M-0.75 -41.1 L-2.0 -38.85 -2.25 -37.05 -2.75 -33.8 -2.9 -17.35 -2.95 -16.9 -3.2 -10.95 -3.45 -8.3 Q-3.8 -9.95 -6.75 -11.25 -7.9 -11.8 -8.25 -12.4 L-8.75 -29.55 -8.4 -37.7 -7.65 -42.15 -7.6 -42.5 -6.55 -44.45 -6.5 -44.45 -6.4 -43.55 -6.15 -43.15 -7.1 -41.45 -7.8 -36.45 -7.7 -18.3 Q-8.5 -17.3 -4.9 -15.55 L-4.6 -14.85 -4.15 -35.4 Q-3.75 -40.35 -2.7 -40.8 L-2.65 -40.8 -2.45 -40.8 -2.35 -40.7 -2.1 -40.8 -0.75 -41.1" fill="url(#gradient39)" fill-rule="evenodd" stroke="none"/>
    <path d="M-9.55 -47.8 Q-7.45 -47.25 -9.2 -45.85 -10.05 -45.35 -10.75 -47.5 L-9.55 -47.8" fill="url(#gradient40)" fill-rule="evenodd" stroke="none"/>
    <path d="M-6.15 -43.15 L-4.6 -42.0 -2.65 -40.95 -2.65 -40.8 -2.7 -40.8 Q-3.75 -40.35 -4.15 -35.4 L-4.6 -14.85 -4.9 -15.55 Q-8.5 -17.3 -7.7 -18.3 L-7.8 -36.45 -7.1 -41.45 -6.15 -43.15" fill="url(#gradient41)" fill-rule="evenodd" stroke="none"/>
    <path d="M-9.6 -40.9 L-9.55 -40.8 -9.55 -40.2 -10.35 -40.7 -10.45 -40.8 -10.5 -40.8 -11.3 -42.0 -11.5 -42.6 -11.15 -42.25 -10.5 -42.1 -10.3 -41.7 -9.75 -41.25 -9.6 -41.0 -9.6 -40.9" fill="url(#gradient42)" fill-rule="evenodd" stroke="none"/>
    <path d="M-12.1 -46.3 Q-13.0 -47.35 -12.9 -49.35 L-11.25 -48.0 -12.1 -46.3" fill="url(#gradient43)" fill-rule="evenodd" stroke="none"/>
    <path d="M-12.0 -37.9 Q-13.6 -40.2 -11.75 -42.85 L-11.5 -42.6 -11.3 -42.0 -10.5 -40.8 -10.6 -40.55 -11.2 -38.7 -11.65 -38.6 -12.0 -37.9" fill="url(#gradient44)" fill-rule="evenodd" stroke="none"/>
    <path d="M-10.5 -40.8 L-10.45 -40.8 -10.35 -40.7 -10.6 -40.55 -10.5 -40.8" fill="url(#gradient45)" fill-rule="evenodd" stroke="none"/>
    <path d="M-9.55 -40.2 L-9.7 -35.85 -9.75 -35.85 -10.3 -36.05 Q-10.7 -36.3 -11.05 -37.5 L-11.2 -38.7 -10.6 -40.55 -10.35 -40.7 -9.55 -40.2" fill="url(#gradient46)" fill-rule="evenodd" stroke="none"/>
    <path d="M-11.8 -36.3 L-12.0 -37.0 -12.0 -37.9 -11.65 -38.6 -11.2 -38.7 -11.05 -37.5 Q-10.7 -36.3 -10.3 -36.05 L-10.65 -35.7 -11.05 -35.6 -11.5 -35.85 -11.8 -36.3" fill="url(#gradient47)" fill-rule="evenodd" stroke="none"/>
    <path d="M-9.7 -35.75 L-9.7 -34.8 -10.45 -35.05 -11.05 -35.6 -10.65 -35.7 -10.3 -36.05 -9.75 -35.85 -9.7 -35.75" fill="url(#gradient48)" fill-rule="evenodd" stroke="none"/>
    <path d="M-11.15 -34.3 Q-13.85 -33.9 -14.45 -35.45 L-14.5 -36.35 -11.8 -36.3 -11.5 -35.85 -11.05 -35.6 -10.45 -35.05 -9.7 -34.8 -9.7 -34.75 -11.15 -34.3" fill="url(#gradient49)" fill-rule="evenodd" stroke="none"/>
    <path d="M-9.7 -32.9 L-10.35 -33.35 -11.15 -34.3 -9.7 -34.75 -9.7 -32.9" fill="url(#gradient50)" fill-rule="evenodd" stroke="none"/>
    <path d="M-9.7 -35.85 L-9.7 -35.75 -9.75 -35.85 -9.7 -35.85" fill="url(#gradient51)" fill-rule="evenodd" stroke="none"/>
    <path d="M-2.95 -16.9 L-2.9 -17.35 -2.85 -16.85 -2.95 -16.9" fill="url(#gradient52)" fill-rule="evenodd" stroke="none"/>
    <path d="M-3.2 -10.95 L-2.95 -16.9 -2.85 -16.85 -2.8 -10.85 -3.2 -10.95" fill="url(#gradient53)" fill-rule="evenodd" stroke="none"/>
    <path d="M-6.75 -11.25 Q-3.8 -9.95 -3.45 -8.3 L-3.2 -10.95 -2.8 -10.85 -3.1 -5.35 -4.1 -5.55 Q-6.2 -6.75 -6.15 -7.05 L-6.65 -7.65 -6.75 -11.25" fill="url(#gradient54)" fill-rule="evenodd" stroke="none"/>
    <path d="M-6.15 -2.45 L-6.5 -2.75 -6.65 -7.65 -6.15 -7.05 Q-6.2 -6.75 -4.1 -5.55 L-3.1 -5.35 -3.45 -1.8 -3.75 -0.9 -4.9 -1.35 -6.15 -2.45" fill="url(#gradient55)" fill-rule="evenodd" stroke="none"/>
    <path d="M-4.75 -0.45 L-5.75 -1.35 -6.15 -2.45 -4.9 -1.35 -3.75 -0.9 -4.0 0.0 -4.75 -0.45" fill="url(#gradient56)" fill-rule="evenodd" stroke="none"/>
    <path d="M-4.05 0.2 L-4.75 -0.45 -4.0 0.0 -4.05 0.2" fill="url(#gradient57)" fill-rule="evenodd" stroke="none"/>
    <path d="M10.0 0.2 L10.05 0.6 9.4 1.2 10.0 0.2 M4.2 5.4 Q2.2 6.25 1.15 4.5 L1.8 4.95 2.65 5.25 2.6 5.35 2.9 5.35 3.15 5.35 3.5 5.4 4.2 5.4" fill="url(#gradient58)" fill-rule="evenodd" stroke="none"/>
    <path d="M7.7 3.35 Q6.8 4.4 5.7 5.0 L4.2 5.4 3.5 5.4 3.15 5.35 2.9 5.35 2.65 5.25 1.8 4.95 1.15 4.5 0.6 4.05 0.7 3.3 1.45 3.9 4.25 4.4 6.3 4.2 7.7 3.35" fill="url(#gradient59)" fill-rule="evenodd" stroke="none"/>
    <path d="M2.65 5.25 L2.9 5.35 2.6 5.35 2.65 5.25" fill="url(#gradient60)" fill-rule="evenodd" stroke="none"/>
  </g>
  <defs>
    <radialGradient cx="0" cy="0" gradientTransform="matrix(0.0077, 0.0, 0.0, 0.0077, 4.35, -52.55)" gradientUnits="userSpaceOnUse" id="gradient0" r="819.2" spreadMethod="pad">
      <stop offset="0.0" stop-color="#605645"/>
      <stop offset="1.0" stop-color="#363127"/>
    </radialGradient>
    <radialGradient cx="0" cy="0" gradientTransform="matrix(0.0112, 0.0, 0.0, 0.0112, 2.2, -49.4)" gradientUnits="userSpaceOnUse" id="gradient1" r="819.2" spreadMethod="pad">
      <stop offset="0.0" stop-color="#ff9200"/>
      <stop offset="1.0" stop-color="#ff8e00"/>
    </radialGradient>
    <radialGradient cx="0" cy="0" gradientTransform="matrix(0.0086, 0.0, 0.0, 0.0086, 4.3, -48.95)" gradientUnits="userSpaceOnUse" id="gradient2" r="819.2" spreadMethod="pad">
      <stop offset="0.0" stop-color="#ff9600"/>
      <stop offset="1.0" stop-color="#fd8700"/>
    </radialGradient>
    <radialGradient cx="0" cy="0" gradientTransform="matrix(0.0097, 0.0, 0.0, 0.0097, 1.5, -44.4)" gradientUnits="userSpaceOnUse" id="gradient3" r="819.2" spreadMethod="pad">
      <stop offset="0.0" stop-color="#605746"/>
      <stop offset="1.0" stop-color="#3c362c"/>
    </radialGradient>
    <radialGradient cx="0" cy="0" gradientTransform="matrix(0.0159, 0.0, 0.0, 0.0159, 3.35, -40.75)" gradientUnits="userSpaceOnUse" id="gradient4" r="819.2" spreadMethod="pad">
      <stop offset="0.0" stop-color="#5f5645"/>
      <stop offset="1.0" stop-color="#342f26"/>
    </radialGradient>
    <radialGradient cx="0" cy="0" gradientTransform="matrix(0.0097, 0.0, 0.0, 0.0097, -0.15, -41.5)" gradientUnits="userSpaceOnUse" id="gradient5" r="819.2" spreadMethod="pad">
      <stop offset="0.0" stop-color="#ffc600"/>
      <stop offset="1.0" stop-color="#f28500"/>
    </radialGradient>
    <radialGradient cx="0" cy="0" gradientTransform="matrix(0.0085, 0.0, 0.0, 0.0085, 1.75, -45.45)" gradientUnits="userSpaceOnUse" id="gradient6" r="819.2" spreadMethod="pad">
      <stop offset="0.0" stop-color="#ffc700"/>
      <stop offset="1.0" stop-color="#f08500"/>
    </radialGradient>
    <radialGradient cx="0" cy="0" gradientTransform="matrix(0.0563, 0.0, 0.0, 0.0563, 2.8, -39.1)" gradientUnits="userSpaceOnUse" id="gradient7" r="819.2" spreadMethod="pad">
      <stop offset="0.0" stop-color="#564d3e"/>
      <stop offset="1.0" stop-color="#383329"/>
    </radialGradient>
    <radialGradient cx="0" cy="0" gradientTransform="matrix(0.0029, 0.0, 0.0, 0.0029, 9.25, -39.15)" gradientUnits="userSpaceOnUse" id="gradient8" r="819.2" spreadMethod="pad">
      <stop offset="0.0" stop-color="#6b6262"/>
      <stop offset="1.0" stop-color="#554d4d"/>
    </radialGradient>
    <radialGradient cx="0" cy="0" gradientTransform="matrix(0.0094, 0.0, 0.0, 0.0094, 6.15, -36.85)" gradientUnits="userSpaceOnUse" id="gradient9" r="819.2" spreadMethod="pad">
      <stop offset="0.0" stop-color="#ffd77b"/>
      <stop offset="1.0" stop-color="#bf894e"/>
    </radialGradient>
    <radialGradient cx="0" cy="0" gradientTransform="matrix(0.0221, 0.0, 0.0, 0.0221, -8.65, -40.25)" gradientUnits="userSpaceOnUse" id="gradient10" r="819.2" spreadMethod="pad">
      <stop offset="0.0" stop-color="#928686"/>
      <stop offset="1.0" stop-color="#413b3b"/>
    </radialGradient>
    <radialGradient cx="0" cy="0" gradientTransform="matrix(0.0071, 0.0, 0.0, 0.0071, 1.4, -26.5)" gradientUnits="userSpaceOnUse" id="gradient11" r="819.2" spreadMethod="pad">
      <stop offset="0.0" stop-color="#ffda00"/>
      <stop offset="1.0" stop-color="#ffb700"/>
    </radialGradient>
    <radialGradient cx="0" cy="0" gradientTransform="matrix(0.0086, 0.0, 0.0, 0.0086, 7.85, -30.15)" gradientUnits="userSpaceOnUse" id="gradient12" r="819.2" spreadMethod="pad">
      <stop offset="0.0" stop-color="#ffda7d"/>
      <stop offset="1.0" stop-color="#996e3f"/>
    </radialGradient>
    <radialGradient cx="0" cy="0" gradientTransform="matrix(0.0056, 0.0, 0.0, 0.0056, 8.25, -31.95)" gradientUnits="userSpaceOnUse" id="gradient13" r="819.2" spreadMethod="pad">
      <stop offset="0.0" stop-color="#ffc700"/>
      <stop offset="1.0" stop-color="#ff8200"/>
    </radialGradient>
    <radialGradient cx="0" cy="0" gradientTransform="matrix(0.0065, 0.0, 0.0, 0.0065, 6.7, -29.65)" gradientUnits="userSpaceOnUse" id="gradient14" r="819.2" spreadMethod="pad">
      <stop offset="0.0" stop-color="#ffd57a"/>
      <stop offset="1.0" stop-color="#a87945"/>
    </radialGradient>
    <radialGradient cx="0" cy="0" gradientTransform="matrix(0.0087, 0.0, 0.0, 0.0087, 6.95, -29.2)" gradientUnits="userSpaceOnUse" id="gradient15" r="819.2" spreadMethod="pad">
      <stop offset="0.0" stop-color="#ffbc6b"/>
      <stop offset="1.0" stop-color="#aa7b46"/>
    </radialGradient>
    <radialGradient cx="0" cy="0" gradientTransform="matrix(0.0092, 0.0, 0.0, 0.0092, 3.4, -26.05)" gradientUnits="userSpaceOnUse" id="gradient16" r="819.2" spreadMethod="pad">
      <stop offset="0.0" stop-color="#404b79"/>
      <stop offset="1.0" stop-color="#242b45"/>
    </radialGradient>
    <radialGradient cx="0" cy="0" gradientTransform="matrix(0.0048, 0.0, 0.0, 0.0048, 6.7, -26.65)" gradientUnits="userSpaceOnUse" id="gradient17" r="819.2" spreadMethod="pad">
      <stop offset="0.0" stop-color="#ffd77b"/>
      <stop offset="1.0" stop-color="#92693d"/>
    </radialGradient>
    <radialGradient cx="0" cy="0" gradientTransform="matrix(0.0079, 0.0, 0.0, 0.0079, 10.65, -23.15)" gradientUnits="userSpaceOnUse" id="gradient18" r="819.2" spreadMethod="pad">
      <stop offset="0.0" stop-color="#605746"/>
      <stop offset="1.0" stop-color="#28241d"/>
    </radialGradient>
    <radialGradient cx="0" cy="0" gradientTransform="matrix(0.0036, 0.0, 0.0, 0.0036, 7.65, -24.2)" gradientUnits="userSpaceOnUse" id="gradient19" r="819.2" spreadMethod="pad">
      <stop offset="0.0" stop-color="#ffb600"/>
      <stop offset="1.0" stop-color="#e17500"/>
    </radialGradient>
    <radialGradient cx="0" cy="0" gradientTransform="matrix(6.0E-4, 0.0, 0.0, 6.0E-4, 13.5, -20.8)" gradientUnits="userSpaceOnUse" id="gradient20" r="819.2" spreadMethod="pad">
      <stop offset="0.0" stop-color="#d39857"/>
      <stop offset="1.0" stop-color="#9e7241"/>
    </radialGradient>
    <radialGradient cx="0" cy="0" gradientTransform="matrix(0.0037, 0.0, 0.0, 0.0037, 13.5, -18.25)" gradientUnits="userSpaceOnUse" id="gradient21" r="819.2" spreadMethod="pad">
      <stop offset="0.0" stop-color="#ffec87"/>
      <stop offset="1.0" stop-color="#bc884d"/>
    </radialGradient>
    <radialGradient cx="0" cy="0" gradientTransform="matrix(0.0118, 0.0, 0.0, 0.0118, 4.85, -19.85)" gradientUnits="userSpaceOnUse" id="gradient22" r="819.2" spreadMethod="pad">
      <stop offset="0.0" stop-color="#364066"/>
      <stop offset="1.0" stop-color="#252c47"/>
    </radialGradient>
    <radialGradient cx="0" cy="0" gradientTransform="matrix(0.0049, 0.0, 0.0, 0.0049, 7.95, -22.8)" gradientUnits="userSpaceOnUse" id="gradient23" r="819.2" spreadMethod="pad">
      <stop offset="0.0" stop-color="#f4f4f4"/>
      <stop offset="1.0" stop-color="#929292"/>
    </radialGradient>
    <radialGradient cx="0" cy="0" gradientTransform="matrix(0.0095, 0.0, 0.0, 0.0095, 6.05, -23.45)" gradientUnits="userSpaceOnUse" id="gradient24" r="819.2" spreadMethod="pad">
      <stop offset="0.0" stop-color="#ffda00"/>
      <stop offset="1.0" stop-color="#bb6800"/>
    </radialGradient>
    <radialGradient cx="0" cy="0" gradientTransform="matrix(0.0029, 0.0, 0.0, 0.0029, 6.8, -22.95)" gradientUnits="userSpaceOnUse" id="gradient25" r="819.2" spreadMethod="pad">
      <stop offset="0.0" stop-color="#261c10"/>
      <stop offset="1.0" stop-color="#261c10"/>
    </radialGradient>
    <radialGradient cx="0" cy="0" gradientTransform="matrix(0.0078, 0.0, 0.0, 0.0078, 7.25, -22.25)" gradientUnits="userSpaceOnUse" id="gradient26" r="819.2" spreadMethod="pad">
      <stop offset="0.0" stop-color="#3b4670"/>
      <stop offset="1.0" stop-color="#1e2338"/>
    </radialGradient>
    <radialGradient cx="0" cy="0" gradientTransform="matrix(0.005, 0.0, 0.0, 0.005, 8.35, -21.2)" gradientUnits="userSpaceOnUse" id="gradient27" r="819.2" spreadMethod="pad">
      <stop offset="0.0" stop-color="#0c0b09"/>
      <stop offset="1.0" stop-color="#0c0b09"/>
    </radialGradient>
    <radialGradient cx="0" cy="0" gradientTransform="matrix(0.0107, 0.0, 0.0, 0.0107, 3.9, -7.2)" gradientUnits="userSpaceOnUse" id="gradient28" r="819.2" spreadMethod="pad">
      <stop offset="0.0" stop-color="#38436b"/>
      <stop offset="1.0" stop-color="#20263d"/>
    </radialGradient>
    <radialGradient cx="0" cy="0" gradientTransform="matrix(0.0114, 0.0, 0.0, 0.0114, 5.5, -14.75)" gradientUnits="userSpaceOnUse" id="gradient29" r="819.2" spreadMethod="pad">
      <stop offset="0.0" stop-color="#414d7b"/>
      <stop offset="1.0" stop-color="#1c2235"/>
    </radialGradient>
    <radialGradient cx="0" cy="0" gradientTransform="matrix(0.0099, 0.0, 0.0, 0.0099, 3.65, -2.85)" gradientUnits="userSpaceOnUse" id="gradient30" r="819.2" spreadMethod="pad">
      <stop offset="0.0" stop-color="#39446c"/>
      <stop offset="1.0" stop-color="#1e2339"/>
    </radialGradient>
    <radialGradient cx="0" cy="0" gradientTransform="matrix(0.0071, 0.0, 0.0, 0.0071, -7.2, -46.6)" gradientUnits="userSpaceOnUse" id="gradient31" r="819.2" spreadMethod="pad">
      <stop offset="0.0" stop-color="#655b49"/>
      <stop offset="1.0" stop-color="#373228"/>
    </radialGradient>
    <radialGradient cx="0" cy="0" gradientTransform="matrix(0.0039, 0.0, 0.0, 0.0039, -5.8, -49.9)" gradientUnits="userSpaceOnUse" id="gradient32" r="819.2" spreadMethod="pad">
      <stop offset="0.0" stop-color="#ffffff"/>
      <stop offset="1.0" stop-color="#c0c0c0"/>
    </radialGradient>
    <radialGradient cx="0" cy="0" gradientTransform="matrix(0.0037, 0.0, 0.0, 0.0037, -7.6, -50.95)" gradientUnits="userSpaceOnUse" id="gradient33" r="819.2" spreadMethod="pad">
      <stop offset="0.0" stop-color="#fcfcfc"/>
      <stop offset="1.0" stop-color="#d4d4d4"/>
    </radialGradient>
    <radialGradient cx="0" cy="0" gradientTransform="matrix(0.0073, 0.0, 0.0, 0.0073, -6.5, -45.9)" gradientUnits="userSpaceOnUse" id="gradient34" r="819.2" spreadMethod="pad">
      <stop offset="0.0" stop-color="#ffe282"/>
      <stop offset="1.0" stop-color="#b18049"/>
    </radialGradient>
    <radialGradient cx="0" cy="0" gradientTransform="matrix(0.0578, 0.0, 0.0, 0.0578, -7.15, -44.05)" gradientUnits="userSpaceOnUse" id="gradient35" r="819.2" spreadMethod="pad">
      <stop offset="0.0" stop-color="#484134"/>
      <stop offset="1.0" stop-color="#353027"/>
    </radialGradient>
    <radialGradient cx="0" cy="0" gradientTransform="matrix(0.0079, 0.0, 0.0, 0.0079, -9.6, -41.0)" gradientUnits="userSpaceOnUse" id="gradient36" r="819.2" spreadMethod="pad">
      <stop offset="0.0" stop-color="#0c0b09"/>
      <stop offset="1.0" stop-color="#0c0b09"/>
    </radialGradient>
    <radialGradient cx="0" cy="0" gradientTransform="matrix(0.0046, 0.0, 0.0, 0.0046, -7.3, -44.8)" gradientUnits="userSpaceOnUse" id="gradient37" r="819.2" spreadMethod="pad">
      <stop offset="0.0" stop-color="#ffd100"/>
      <stop offset="1.0" stop-color="#ff9f00"/>
    </radialGradient>
    <radialGradient cx="0" cy="0" gradientTransform="matrix(0.0033, 0.0, 0.0, 0.0033, -6.45, -43.5)" gradientUnits="userSpaceOnUse" id="gradient38" r="819.2" spreadMethod="pad">
      <stop offset="0.0" stop-color="#331a00"/>
      <stop offset="1.0" stop-color="#331a00"/>
    </radialGradient>
    <radialGradient cx="0" cy="0" gradientTransform="matrix(0.0414, 0.0, 0.0, 0.0414, -0.35, -42.15)" gradientUnits="userSpaceOnUse" id="gradient39" r="819.2" spreadMethod="pad">
      <stop offset="0.0" stop-color="#ffbe00"/>
      <stop offset="1.0" stop-color="#f67b00"/>
    </radialGradient>
    <radialGradient cx="0" cy="0" gradientTransform="matrix(0.003, 0.0, 0.0, 0.003, -8.6, -46.55)" gradientUnits="userSpaceOnUse" id="gradient40" r="819.2" spreadMethod="pad">
      <stop offset="0.0" stop-color="#cfcfcf"/>
      <stop offset="1.0" stop-color="#717171"/>
    </radialGradient>
    <radialGradient cx="0" cy="0" gradientTransform="matrix(0.0328, 0.0, 0.0, 0.0328, -2.35, -41.7)" gradientUnits="userSpaceOnUse" id="gradient41" r="819.2" spreadMethod="pad">
      <stop offset="0.0" stop-color="#897d7d"/>
      <stop offset="1.0" stop-color="#585050"/>
    </radialGradient>
    <radialGradient cx="0" cy="0" gradientTransform="matrix(0.0031, 0.0, 0.0, 0.0031, -9.75, -42.5)" gradientUnits="userSpaceOnUse" id="gradient42" r="819.2" spreadMethod="pad">
      <stop offset="0.0" stop-color="#ffca00"/>
      <stop offset="1.0" stop-color="#c26100"/>
    </radialGradient>
    <radialGradient cx="0" cy="0" gradientTransform="matrix(0.0034, 0.0, 0.0, 0.0034, -11.7, -46.95)" gradientUnits="userSpaceOnUse" id="gradient43" r="819.2" spreadMethod="pad">
      <stop offset="0.0" stop-color="#ffffff"/>
      <stop offset="1.0" stop-color="#9c9c9c"/>
    </radialGradient>
    <radialGradient cx="0" cy="0" gradientTransform="matrix(0.0057, 0.0, 0.0, 0.0057, -10.5, -42.35)" gradientUnits="userSpaceOnUse" id="gradient44" r="819.2" spreadMethod="pad">
      <stop offset="0.0" stop-color="#ffe784"/>
      <stop offset="1.0" stop-color="#ae7d48"/>
    </radialGradient>
    <radialGradient cx="0" cy="0" gradientTransform="matrix(0.0014, 0.0, 0.0, 0.0014, -10.1, -40.6)" gradientUnits="userSpaceOnUse" id="gradient45" r="819.2" spreadMethod="pad">
      <stop offset="0.0" stop-color="#ffc370"/>
      <stop offset="1.0" stop-color="#ebaa61"/>
    </radialGradient>
    <radialGradient cx="0" cy="0" gradientTransform="matrix(0.0055, 0.0, 0.0, 0.0055, -9.35, -40.3)" gradientUnits="userSpaceOnUse" id="gradient46" r="819.2" spreadMethod="pad">
      <stop offset="0.0" stop-color="#ffdf7f"/>
      <stop offset="1.0" stop-color="#92693c"/>
    </radialGradient>
    <radialGradient cx="0" cy="0" gradientTransform="matrix(0.004, 0.0, 0.0, 0.004, -11.05, -38.9)" gradientUnits="userSpaceOnUse" id="gradient47" r="819.2" spreadMethod="pad">
      <stop offset="0.0" stop-color="#ffed88"/>
      <stop offset="1.0" stop-color="#966c3e"/>
    </radialGradient>
    <radialGradient cx="0" cy="0" gradientTransform="matrix(0.002, 0.0, 0.0, 0.002, -10.6, -36.35)" gradientUnits="userSpaceOnUse" id="gradient48" r="819.2" spreadMethod="pad">
      <stop offset="0.0" stop-color="#ff9f00"/>
      <stop offset="1.0" stop-color="#b05800"/>
    </radialGradient>
    <radialGradient cx="0" cy="0" gradientTransform="matrix(0.0044, 0.0, 0.0, 0.0044, -10.9, -35.95)" gradientUnits="userSpaceOnUse" id="gradient49" r="819.2" spreadMethod="pad">
      <stop offset="0.0" stop-color="#ffffff"/>
      <stop offset="1.0" stop-color="#919191"/>
    </radialGradient>
    <radialGradient cx="0" cy="0" gradientTransform="matrix(0.0028, 0.0, 0.0, 0.0028, -9.0, -34.7)" gradientUnits="userSpaceOnUse" id="gradient50" r="819.2" spreadMethod="pad">
      <stop offset="0.0" stop-color="#3e382d"/>
      <stop offset="1.0" stop-color="#2f2b22"/>
    </radialGradient>
    <radialGradient cx="0" cy="0" gradientTransform="matrix(0.0202, 0.0, 0.0, 0.0202, -9.3, -25.55)" gradientUnits="userSpaceOnUse" id="gradient51" r="819.2" spreadMethod="pad">
      <stop offset="0.0" stop-color="#342f26"/>
      <stop offset="1.0" stop-color="#0c0b09"/>
    </radialGradient>
    <radialGradient cx="0" cy="0" gradientTransform="matrix(0.0077, 0.0, 0.0, 0.0077, -1.4, -21.05)" gradientUnits="userSpaceOnUse" id="gradient52" r="819.2" spreadMethod="pad">
      <stop offset="0.0" stop-color="#30395c"/>
      <stop offset="1.0" stop-color="#282f4c"/>
    </radialGradient>
    <radialGradient cx="0" cy="0" gradientTransform="matrix(0.0093, 0.0, 0.0, 0.0093, -3.0, -17.9)" gradientUnits="userSpaceOnUse" id="gradient53" r="819.2" spreadMethod="pad">
      <stop offset="0.0" stop-color="#3d4874"/>
      <stop offset="1.0" stop-color="#20263d"/>
    </radialGradient>
    <radialGradient cx="0" cy="0" gradientTransform="matrix(0.009, 0.0, 0.0, 0.009, -3.0, -12.0)" gradientUnits="userSpaceOnUse" id="gradient54" r="819.2" spreadMethod="pad">
      <stop offset="0.0" stop-color="#3b456f"/>
      <stop offset="1.0" stop-color="#181d2f"/>
    </radialGradient>
    <radialGradient cx="0" cy="0" gradientTransform="matrix(0.0081, 0.0, 0.0, 0.0081, -2.75, -7.25)" gradientUnits="userSpaceOnUse" id="gradient55" r="819.2" spreadMethod="pad">
      <stop offset="0.0" stop-color="#3b456f"/>
      <stop offset="1.0" stop-color="#191e2f"/>
    </radialGradient>
    <radialGradient cx="0" cy="0" gradientTransform="matrix(0.0041, 0.0, 0.0, 0.0041, -3.35, -1.7)" gradientUnits="userSpaceOnUse" id="gradient56" r="819.2" spreadMethod="pad">
      <stop offset="0.0" stop-color="#ffe500"/>
      <stop offset="1.0" stop-color="#de6f00"/>
    </radialGradient>
    <radialGradient cx="0" cy="0" gradientTransform="matrix(0.0036, 0.0, 0.0, 0.0036, -4.35, -2.05)" gradientUnits="userSpaceOnUse" id="gradient57" r="819.2" spreadMethod="pad">
      <stop offset="0.0" stop-color="#6f6565"/>
      <stop offset="1.0" stop-color="#342f2f"/>
    </radialGradient>
    <radialGradient cx="0" cy="0" gradientTransform="matrix(0.0087, 0.0, 0.0, 0.0087, 7.3, 1.7)" gradientUnits="userSpaceOnUse" id="gradient58" r="819.2" spreadMethod="pad">
      <stop offset="0.0" stop-color="#847979"/>
      <stop offset="1.0" stop-color="#4b4444"/>
    </radialGradient>
    <radialGradient cx="0" cy="0" gradientTransform="matrix(0.0054, 0.0, 0.0, 0.0054, 3.75, 3.4)" gradientUnits="userSpaceOnUse" id="gradient59" r="819.2" spreadMethod="pad">
      <stop offset="0.0" stop-color="#ffe700"/>
      <stop offset="1.0" stop-color="#c96500"/>
    </radialGradient>
    <radialGradient cx="0" cy="0" gradientTransform="matrix(0.0017, 0.0, 0.0, 0.0017, 3.1, 4.75)" gradientUnits="userSpaceOnUse" id="gradient60" r="819.2" spreadMethod="pad">
      <stop offset="0.0" stop-color="#3a342a"/>
      <stop offset="1.0" stop-color="#2d2920"/>
    </radialGradient>
  </defs>
</svg>
