<?xml version="1.0" encoding="UTF-8" standalone="no"?>
<svg xmlns:ffdec="https://www.free-decompiler.com/flash" xmlns:xlink="http://www.w3.org/1999/xlink" ffdec:objectType="shape" height="66.65px" width="32.8px" xmlns="http://www.w3.org/2000/svg">
  <g transform="matrix(1.0, 0.0, 0.0, 1.0, 16.55, 56.0)">
    <path d="M-1.85 -49.15 L-2.0 -50.55 -1.7 -51.0 -1.65 -48.7 -1.85 -48.9 -1.85 -49.15 M8.2 -53.55 Q8.45 -53.8 9.45 -52.1 L9.6 -50.8 Q9.05 -47.7 4.5 -46.65 -0.15 -46.1 -1.55 -48.6 L1.05 -46.95 5.15 -46.85 Q8.25 -48.25 9.05 -49.45 L8.95 -52.45 8.2 -53.55" fill="url(#gradient0)" fill-rule="evenodd" stroke="none"/>
    <path d="M-1.7 -51.0 Q3.0 -59.55 8.2 -53.55 L8.95 -52.45 9.05 -49.45 Q8.25 -48.25 5.15 -46.85 L1.05 -46.95 -1.55 -48.6 -1.65 -48.7 -1.7 -51.0" fill="url(#gradient1)" fill-rule="evenodd" stroke="none"/>
    <path d="M9.6 -50.8 L9.9 -48.2 Q9.6 -46.65 8.55 -45.9 5.95 -43.55 3.1 -44.5 L2.8 -45.35 Q-0.05 -46.4 -1.0 -47.2 L-1.75 -48.2 -1.85 -48.9 -1.65 -48.7 -1.55 -48.6 Q-0.15 -46.1 4.5 -46.65 9.05 -47.7 9.6 -50.8" fill="url(#gradient2)" fill-rule="evenodd" stroke="none"/>
    <path d="M-4.25 -49.25 L-3.1 -51.3 -2.65 -49.15 -4.1 -48.4 -4.45 -48.7 -4.25 -49.25" fill="url(#gradient3)" fill-rule="evenodd" stroke="none"/>
    <path d="M-8.1 -47.6 L-7.2 -48.35 -7.05 -47.1 -6.85 -46.75 -6.35 -46.6 -7.35 -45.0 -7.45 -45.4 -8.0 -45.95 -9.35 -45.45 -8.95 -46.45 -8.1 -47.6 M-6.2 -48.9 L-5.25 -49.2 -4.25 -49.25 -4.45 -48.7 -4.1 -48.4 -4.95 -47.85 -5.35 -48.35 -6.2 -48.9 M-8.65 -41.5 Q-9.15 -41.8 -9.5 -42.85 L-9.55 -44.65 -8.25 -43.85 -7.85 -43.95 -8.0 -42.9 Q-9.0 -42.9 -8.5 -41.6 L-8.6 -41.5 -8.65 -41.5" fill="url(#gradient4)" fill-rule="evenodd" stroke="none"/>
    <path d="M-7.2 -48.35 L-7.3 -49.65 -6.2 -48.9 -5.35 -48.35 -4.95 -47.85 -6.35 -46.6 -6.85 -46.75 -7.05 -47.1 -7.2 -48.35" fill="url(#gradient5)" fill-rule="evenodd" stroke="none"/>
    <path d="M-8.95 -46.45 L-9.75 -48.4 -8.1 -47.6 -8.95 -46.45" fill="url(#gradient6)" fill-rule="evenodd" stroke="none"/>
    <path d="M-2.65 -49.15 L-1.85 -49.15 -1.85 -48.9 -1.75 -48.2 -3.0 -47.95 Q-5.0 -46.3 -4.25 -45.4 -7.8 -43.9 -6.9 -42.3 L-8.0 -40.8 -8.15 -42.05 -8.15 -42.1 -8.1 -42.2 -8.05 -42.75 -8.0 -42.9 -7.85 -43.95 -7.35 -45.0 -6.35 -46.6 -4.95 -47.85 -4.1 -48.4 -2.65 -49.15 M8.7 -40.45 L8.45 -38.2 8.1 -36.95 7.35 -36.15 Q5.75 -37.1 1.9 -34.85 L1.55 -34.9 1.7 -35.35 1.3 -35.1 0.8 -35.1 0.3 -35.75 -0.15 -34.95 -0.45 -34.75 -1.15 -35.5 Q-1.15 -33.95 -2.25 -34.45 L-2.3 -34.1 -3.45 -34.75 -3.3 -36.3 -2.0 -38.4 -1.15 -38.65 -0.7 -39.3 -0.5 -39.45 -0.3 -39.7 -0.3 -39.75 0.2 -40.45 0.25 -42.0 1.25 -42.1 1.6 -42.1 4.35 -42.1 7.1 -42.55 Q8.85 -42.15 8.7 -40.45" fill="url(#gradient7)" fill-rule="evenodd" stroke="none"/>
    <path d="M-4.25 -45.4 Q-5.0 -46.3 -3.0 -47.95 L-1.75 -48.2 -1.0 -47.2 Q-0.05 -46.4 2.8 -45.35 L3.1 -44.5 3.2 -43.65 Q2.25 -42.25 1.6 -42.1 L1.25 -42.1 0.25 -42.0 Q-5.0 -44.4 -4.25 -45.4" fill="url(#gradient8)" fill-rule="evenodd" stroke="none"/>
    <path d="M-6.9 -42.3 Q-7.8 -43.9 -4.25 -45.4 -5.0 -44.4 0.25 -42.0 L0.2 -40.45 -0.3 -39.75 -0.3 -39.7 -0.5 -39.45 -0.7 -39.3 -1.2 -38.8 -1.15 -38.65 -2.0 -38.4 -3.05 -38.25 -3.8 -38.45 -4.15 -38.85 -5.55 -39.75 -6.7 -41.05 -6.9 -41.35 -6.9 -42.3" fill="url(#gradient9)" fill-rule="evenodd" stroke="none"/>
    <path d="M-8.05 -17.55 L-8.5 -25.1 -8.5 -25.15 -8.5 -25.3 -8.75 -35.65 -8.0 -40.8 -6.9 -42.3 -6.9 -41.35 -6.7 -41.05 -7.6 -39.75 Q-8.95 -37.25 -8.35 -27.9 L-7.2 -13.5 Q-6.75 -12.7 -3.15 -11.35 L-3.05 -11.45 -4.15 -18.5 -3.6 -17.3 -2.8 -16.55 -2.45 -13.5 -2.0 -10.05 Q-3.35 -7.6 -1.55 -5.95 L-1.35 -4.2 -1.35 -4.0 -1.5 -4.0 -1.65 -4.2 -2.25 -4.55 -3.6 -4.95 Q-6.05 -5.15 -7.6 -7.1 L-7.8 -12.2 -7.85 -16.05 -8.05 -17.55 M-2.0 -38.4 L-3.3 -36.3 -3.45 -34.75 -3.8 -31.25 -3.6 -24.35 -3.15 -20.05 -3.45 -20.4 -3.7 -21.9 -4.15 -20.45 -4.2 -19.0 -4.75 -22.7 -5.25 -27.9 -5.35 -33.3 Q-5.1 -37.9 -3.8 -38.45 L-3.05 -38.25 -2.0 -38.4" fill="url(#gradient10)" fill-rule="evenodd" stroke="none"/>
    <path d="M-4.85 7.3 L-5.65 9.6 -7.15 8.0 -7.35 7.7 Q-10.95 4.1 -12.05 1.65 L-10.1 -3.5 -8.2 -8.25 -8.0 -10.65 -7.8 -12.2 -7.6 -7.1 Q-6.05 -5.15 -3.6 -4.95 L-3.45 -4.2 -3.4 -0.3 -3.3 3.1 -4.85 7.3 M-8.5 -25.3 L-9.3 -29.25 -9.35 -29.35 -9.35 -29.9 -9.4 -30.15 -9.4 -30.6 -9.45 -30.95 -9.45 -31.35 -9.8 -36.65 -9.8 -36.8 -8.15 -42.05 -8.0 -40.8 -8.75 -35.65 -8.5 -25.3" fill="url(#gradient11)" fill-rule="evenodd" stroke="none"/>
    <path d="M-9.8 -36.8 L-9.8 -38.45 -8.6 -41.45 -8.6 -41.5 -8.5 -41.6 -8.05 -42.75 -8.1 -42.2 -8.15 -42.1 -8.15 -42.05 -9.8 -36.8" fill="url(#gradient12)" fill-rule="evenodd" stroke="none"/>
    <path d="M-8.0 -42.9 L-8.05 -42.75 -8.5 -41.6 Q-9.0 -42.9 -8.0 -42.9" fill="url(#gradient13)" fill-rule="evenodd" stroke="none"/>
    <path d="M-9.55 -44.65 L-10.3 -45.15 -9.35 -45.45 -8.0 -45.95 -7.45 -45.4 -7.35 -45.0 -7.85 -43.95 -8.25 -43.85 -9.55 -44.65" fill="url(#gradient14)" fill-rule="evenodd" stroke="none"/>
    <path d="M8.55 -45.9 Q10.2 -42.95 8.7 -40.45 8.85 -42.15 7.1 -42.55 L4.35 -42.1 1.6 -42.1 Q2.25 -42.25 3.2 -43.65 L3.1 -44.5 Q5.95 -43.55 8.55 -45.9" fill="url(#gradient15)" fill-rule="evenodd" stroke="none"/>
    <path d="M-8.6 -41.45 L-8.65 -41.5 -8.6 -41.5 -8.6 -41.45" fill="url(#gradient16)" fill-rule="evenodd" stroke="none"/>
    <path d="M-0.7 -39.3 L-1.15 -38.65 -1.2 -38.8 -0.7 -39.3" fill="url(#gradient17)" fill-rule="evenodd" stroke="none"/>
    <path d="M-9.8 -36.65 L-9.8 -36.8 -9.8 -36.65" fill="url(#gradient18)" fill-rule="evenodd" stroke="none"/>
    <path d="M-6.7 -41.05 L-5.55 -39.75 -4.15 -38.85 -3.8 -38.45 Q-5.1 -37.9 -5.35 -33.3 L-5.25 -27.9 -4.75 -22.7 -4.2 -19.0 -4.15 -18.5 -3.05 -11.45 -3.15 -11.35 Q-6.75 -12.7 -7.2 -13.5 L-8.35 -27.9 Q-8.95 -37.25 -7.6 -39.75 L-6.7 -41.05" fill="url(#gradient19)" fill-rule="evenodd" stroke="none"/>
    <path d="M-4.2 -19.0 L-4.15 -20.45 -3.7 -21.9 -3.45 -20.4 -3.15 -20.05 -2.85 -19.45 -2.0 -18.95 -1.35 -18.75 -0.2 -16.55 -0.9 -15.85 -1.2 -15.85 -1.7 -16.05 -1.85 -16.05 -1.95 -16.1 -2.65 -16.4 -2.8 -16.55 -3.6 -17.3 -4.15 -18.5 -4.2 -19.0" fill="url(#gradient20)" fill-rule="evenodd" stroke="none"/>
    <path d="M5.8 1.65 L6.15 6.65 4.75 6.1 3.75 6.5 Q3.4 6.45 1.65 9.2 L0.5 10.0 -0.7 9.45 -0.45 1.65 -0.4 -0.1 -0.85 -5.5 Q1.75 -4.6 3.05 -6.75 4.2 -9.15 2.1 -10.7 L3.05 -12.95 3.75 -10.5 4.8 -5.7 5.55 -1.6 5.8 1.65 M-3.45 -34.75 L-2.3 -34.1 -2.25 -34.45 Q-1.15 -33.95 -1.15 -35.5 L-0.45 -34.75 -0.15 -34.95 0.3 -35.75 0.8 -35.1 1.3 -35.1 1.7 -35.35 1.55 -34.9 0.75 -33.3 0.1 -32.1 -0.05 -31.8 -0.05 -30.55 -0.05 -29.8 Q-0.65 -28.35 -0.05 -27.9 L0.0 -27.6 0.1 -27.05 Q-2.3 -24.45 -1.85 -21.2 L-2.0 -20.15 -2.0 -18.95 -2.85 -19.45 -3.15 -20.05 -3.6 -24.35 -3.8 -31.25 -3.45 -34.75 M-1.95 -16.05 L-1.95 -15.85 -2.3 -14.35 -2.65 -16.4 -1.95 -16.1 -1.95 -16.05" fill="url(#gradient21)" fill-rule="evenodd" stroke="none"/>
    <path d="M8.45 -38.2 Q10.3 -34.45 9.2 -31.8 L8.75 -34.05 Q8.15 -35.55 7.35 -36.15 L8.1 -36.95 8.45 -38.2" fill="url(#gradient22)" fill-rule="evenodd" stroke="none"/>
    <path d="M9.2 -31.8 L9.05 -30.0 8.4 -27.95 8.15 -27.7 4.5 -27.9 Q0.2 -28.7 -0.05 -29.8 L-0.05 -30.55 Q0.35 -31.3 0.1 -32.1 L0.75 -33.3 0.65 -32.8 0.8 -32.8 0.95 -33.4 1.9 -34.85 Q5.75 -37.1 7.35 -36.15 8.15 -35.55 8.75 -34.05 L9.2 -31.8 M0.95 -27.1 L1.1 -27.15 1.9 -26.65 1.65 -26.5 1.4 -26.55 0.95 -27.1 M4.95 -25.95 L5.8 -26.0 6.3 -25.75 6.6 -25.8 6.1 -25.5 5.15 -25.75 4.95 -25.95" fill="url(#gradient23)" fill-rule="evenodd" stroke="none"/>
    <path d="M1.55 -34.9 L1.9 -34.85 0.95 -33.4 0.8 -32.8 0.65 -32.8 0.75 -33.3 1.55 -34.9 M-0.05 -30.55 L-0.05 -31.8 0.1 -32.1 Q0.35 -31.3 -0.05 -30.55 M0.0 -27.6 L0.4 -27.3 0.1 -27.05 0.0 -27.6" fill="url(#gradient24)" fill-rule="evenodd" stroke="none"/>
    <path d="M8.15 -27.7 L8.15 -27.3 7.75 -26.45 7.6 -26.25 6.9 -25.85 6.6 -25.8 6.3 -25.75 5.8 -26.0 4.95 -25.95 4.5 -25.95 1.9 -26.65 1.1 -27.15 0.95 -27.1 0.4 -27.3 0.0 -27.6 -0.05 -27.9 Q-0.65 -28.35 -0.05 -29.8 0.2 -28.7 4.5 -27.9 L8.15 -27.7" fill="url(#gradient25)" fill-rule="evenodd" stroke="none"/>
    <path d="M0.4 -27.3 L0.95 -27.1 1.4 -26.55 1.15 -26.05 0.2 -24.45 -0.25 -23.2 -0.5 -23.15 -1.1 -22.6 -1.85 -21.2 Q-2.3 -24.45 0.1 -27.05 L0.4 -27.3" fill="url(#gradient26)" fill-rule="evenodd" stroke="none"/>
    <path d="M7.75 -26.45 L8.0 -26.05 8.05 -25.85 7.95 -24.1 7.75 -23.45 7.4 -23.05 7.3 -23.15 6.95 -22.6 6.9 -22.55 6.65 -22.6 6.9 -24.1 6.9 -25.85 7.6 -26.25 7.75 -26.45" fill="url(#gradient27)" fill-rule="evenodd" stroke="none"/>
    <path d="M6.6 -25.8 L6.9 -25.85 6.9 -24.1 6.65 -22.6 6.45 -22.1 5.8 -20.4 4.65 -18.5 3.1 -17.05 2.3 -17.85 Q7.25 -21.05 6.1 -25.5 L6.6 -25.8 M1.15 -26.05 L1.4 -26.55 1.65 -26.5 1.15 -26.05 M2.1 -17.8 L1.3 -17.55 1.3 -17.85 2.1 -17.8" fill="url(#gradient28)" fill-rule="evenodd" stroke="none"/>
    <path d="M1.9 -26.65 L4.5 -25.95 4.95 -25.95 5.15 -25.75 6.1 -25.5 Q7.25 -21.05 2.3 -17.85 L2.25 -17.85 2.15 -17.8 2.1 -17.8 1.3 -17.85 0.6 -18.45 Q-0.35 -19.5 -0.2 -19.75 L-0.4 -21.5 -0.25 -23.2 0.2 -24.45 1.15 -26.05 1.65 -26.5 1.9 -26.65" fill="url(#gradient29)" fill-rule="evenodd" stroke="none"/>
    <path d="M-1.85 -21.2 L-1.1 -22.6 -0.5 -23.15 -0.25 -23.2 -0.4 -21.5 -0.2 -19.75 -1.35 -18.75 -2.0 -18.95 -2.0 -20.15 -1.85 -21.2" fill="url(#gradient30)" fill-rule="evenodd" stroke="none"/>
    <path d="M8.0 -26.05 L8.2 -25.85 8.05 -25.85 8.0 -26.05 M12.0 -17.95 L12.2 -17.2 12.35 -16.05 Q12.15 -10.35 3.75 -10.5 L3.05 -12.95 3.5 -13.95 3.55 -15.5 4.55 -15.5 4.95 -15.75 7.3 -13.9 8.15 -13.45 9.6 -13.75 10.55 -14.6 11.35 -17.0 12.0 -17.95" fill="url(#gradient31)" fill-rule="evenodd" stroke="none"/>
    <path d="M8.2 -25.85 Q9.1 -26.05 10.55 -24.55 L9.75 -25.0 9.7 -23.85 8.85 -24.6 8.55 -23.0 7.45 -21.45 7.0 -18.9 Q6.9 -16.55 7.45 -16.05 L8.7 -14.1 9.6 -13.75 8.15 -13.45 7.3 -13.9 4.95 -15.75 4.95 -16.05 5.15 -16.55 Q4.7 -16.7 4.65 -18.5 L5.8 -20.4 6.45 -22.1 6.9 -22.55 6.95 -22.6 7.4 -23.05 7.75 -23.45 7.95 -24.1 8.05 -25.85 8.2 -25.85" fill="url(#gradient32)" fill-rule="evenodd" stroke="none"/>
    <path d="M10.55 -24.55 Q13.5 -20.6 12.0 -17.95 L11.35 -17.0 10.55 -14.6 9.6 -13.75 8.7 -14.1 7.45 -16.05 Q6.9 -16.55 7.0 -18.9 L7.45 -21.45 8.55 -23.0 8.85 -24.6 9.7 -23.85 9.75 -25.0 10.55 -24.55" fill="url(#gradient33)" fill-rule="evenodd" stroke="none"/>
    <path d="M3.55 -15.5 L3.1 -17.05 4.65 -18.5 Q4.7 -16.7 5.15 -16.55 L4.95 -16.05 4.95 -15.75 4.55 -15.5 3.55 -15.5 M6.95 -22.6 L7.3 -23.15 7.4 -23.05 6.95 -22.6 M6.65 -22.6 L6.9 -22.55 6.45 -22.1 6.65 -22.6" fill="url(#gradient34)" fill-rule="evenodd" stroke="none"/>
    <path d="M-8.6 -12.85 L-8.65 -14.75 -8.2 -17.35 -8.05 -17.55 -7.85 -16.05 -7.8 -12.2 -8.0 -10.65 -8.5 -11.55 -8.6 -12.85 M-2.0 -10.05 L-2.45 -13.5 -2.25 -13.5 -1.7 -10.35 -2.0 -10.05" fill="url(#gradient35)" fill-rule="evenodd" stroke="none"/>
    <path d="M-12.15 -6.65 L-10.6 -10.05 -8.6 -12.85 -8.5 -11.55 -8.0 -10.65 -8.2 -8.25 -10.1 -3.5 -11.05 -3.75 -11.3 -4.2 -12.15 -6.65 M-3.6 -4.95 L-2.25 -4.55 -1.65 -4.2 -1.5 -4.0 -1.35 -4.0 -1.35 -4.2 -1.55 -5.95 -0.85 -5.5 -0.4 -0.1 -1.35 0.05 -3.4 -0.3 -3.45 -4.2 -3.6 -4.95" fill="url(#gradient36)" fill-rule="evenodd" stroke="none"/>
    <path d="M-0.45 1.65 Q-2.7 7.35 -4.85 7.3 L-3.3 3.1 -3.4 -0.3 -1.35 0.05 -0.4 -0.1 -0.45 1.65 M-7.15 8.0 L-7.45 8.0 -7.6 8.0 -8.2 8.0 -9.15 8.0 -9.6 7.7 Q-16.1 4.0 -15.9 3.15 L-15.75 2.95 -15.65 2.95 Q-17.0 -0.85 -12.15 -6.65 L-11.3 -4.2 -11.05 -3.75 -10.1 -3.5 -12.05 1.65 Q-10.95 4.1 -7.35 7.7 L-7.15 8.0" fill="url(#gradient37)" fill-rule="evenodd" stroke="none"/>
    <path d="M-15.95 5.55 Q-16.75 4.1 -15.9 3.15 -16.1 4.0 -9.6 7.7 L-9.15 8.0 -8.2 8.0 Q-11.05 9.5 -12.75 8.05 L-13.35 7.7 -15.15 6.1 -15.5 5.85 -15.75 5.95 -15.95 5.55" fill="url(#gradient38)" fill-rule="evenodd" stroke="none"/>
    <path d="M-16.15 5.95 L-15.95 5.55 -15.75 5.95 -15.95 6.2 -16.15 5.95 M-12.75 8.05 Q-11.05 9.5 -8.2 8.0 L-7.6 8.0 -7.8 8.15 -8.6 8.95 Q-10.6 9.0 -11.1 9.65 -11.1 9.15 -13.0 8.45 L-12.75 8.05" fill="url(#gradient39)" fill-rule="evenodd" stroke="none"/>
    <path d="M-7.45 8.0 L-7.45 8.05 -7.8 8.15 -7.6 8.0 -7.45 8.0" fill="url(#gradient40)" fill-rule="evenodd" stroke="none"/>
    <path d="M-7.45 8.05 Q-9.6 11.3 -11.75 10.5 L-13.85 9.5 -16.3 7.4 -16.55 6.35 -16.15 5.95 -15.95 6.2 -15.75 5.95 -15.5 5.85 -15.15 6.1 -13.35 7.7 -12.75 8.05 -13.0 8.45 Q-11.1 9.15 -11.1 9.65 -10.6 9.0 -8.6 8.95 L-7.8 8.15 -7.45 8.05" fill="url(#gradient41)" fill-rule="evenodd" stroke="none"/>
    <path d="M-1.35 -18.75 L-0.2 -19.75 Q-0.35 -19.5 0.6 -18.45 L1.3 -17.85 1.3 -17.55 -0.2 -16.55 -1.35 -18.75" fill="url(#gradient42)" fill-rule="evenodd" stroke="none"/>
    <path d="M-1.95 -15.85 L-1.85 -15.75 -1.85 -16.05 -1.7 -16.05 -1.2 -15.85 -0.9 -15.85 -0.2 -16.55 1.3 -17.55 2.1 -17.8 2.15 -17.8 2.25 -17.85 2.3 -17.85 3.1 -17.05 3.55 -15.5 3.5 -13.95 3.05 -12.95 2.1 -10.7 1.95 -9.15 Q1.8 -8.75 0.15 -8.25 -1.15 -9.15 -1.35 -9.0 L-1.7 -10.35 -2.25 -13.5 -2.3 -14.35 -1.95 -15.85" fill="url(#gradient43)" fill-rule="evenodd" stroke="none"/>
    <path d="M12.2 -17.2 Q12.6 -17.2 13.4 -15.25 L13.85 -12.95 Q14.9 -5.0 4.8 -5.7 L3.75 -10.5 Q12.15 -10.35 12.35 -16.05 L12.2 -17.2" fill="url(#gradient44)" fill-rule="evenodd" stroke="none"/>
    <path d="M13.85 -12.95 Q14.65 -11.65 15.05 -9.9 L15.15 -8.45 15.2 -6.8 Q14.7 -4.6 14.05 -4.2 11.5 -0.05 5.55 -1.6 L4.8 -5.7 Q14.9 -5.0 13.85 -12.95" fill="url(#gradient45)" fill-rule="evenodd" stroke="none"/>
    <path d="M-2.45 -13.5 L-2.8 -16.55 -2.65 -16.4 -2.3 -14.35 -2.25 -13.5 -2.45 -13.5" fill="url(#gradient46)" fill-rule="evenodd" stroke="none"/>
    <path d="M-1.85 -16.05 L-1.85 -15.75 -1.95 -15.85 -1.95 -16.05 -1.85 -16.05" fill="url(#gradient47)" fill-rule="evenodd" stroke="none"/>
    <path d="M-1.85 -16.05 L-1.95 -16.05 -1.95 -16.1 -1.85 -16.05" fill="url(#gradient48)" fill-rule="evenodd" stroke="none"/>
    <path d="M-1.55 -5.95 Q-3.35 -7.6 -2.0 -10.05 L-1.7 -10.35 -1.35 -9.0 Q-1.15 -9.15 0.15 -8.25 1.8 -8.75 1.95 -9.15 L2.1 -10.7 Q4.2 -9.15 3.05 -6.75 1.75 -4.6 -0.85 -5.5 L-1.55 -5.95" fill="url(#gradient49)" fill-rule="evenodd" stroke="none"/>
    <path d="M15.15 -8.45 Q16.85 -4.55 15.9 -2.9 L15.75 -2.55 14.9 -1.1 14.6 -0.45 13.9 0.85 12.95 1.65 Q9.75 3.45 6.9 2.3 L6.85 2.3 6.8 2.2 6.45 2.15 5.8 1.65 5.55 -1.6 Q11.5 -0.05 14.05 -4.2 14.7 -4.6 15.2 -6.8 L15.15 -8.45" fill="url(#gradient50)" fill-rule="evenodd" stroke="none"/>
    <path d="M15.9 -2.9 L16.1 -2.55 16.2 -1.95 14.6 -0.45 14.9 -1.1 15.8 -2.0 15.75 -2.55 15.9 -2.9" fill="url(#gradient51)" fill-rule="evenodd" stroke="none"/>
    <path d="M15.75 -2.55 L15.8 -2.0 14.9 -1.1 15.75 -2.55" fill="url(#gradient52)" fill-rule="evenodd" stroke="none"/>
    <path d="M12.95 1.65 Q10.85 4.65 6.9 2.3 9.75 3.45 12.95 1.65" fill="url(#gradient53)" fill-rule="evenodd" stroke="none"/>
  </g>
  <defs>
    <radialGradient cx="0" cy="0" gradientTransform="matrix(0.0124, 0.0, 0.0, 0.0124, 7.9, -48.2)" gradientUnits="userSpaceOnUse" id="gradient0" r="819.2" spreadMethod="pad">
      <stop offset="0.0" stop-color="#ff9900"/>
      <stop offset="1.0" stop-color="#ff9700"/>
    </radialGradient>
    <radialGradient cx="0" cy="0" gradientTransform="matrix(0.0072, 0.0, 0.0, 0.0072, 4.0, -50.55)" gradientUnits="userSpaceOnUse" id="gradient1" r="819.2" spreadMethod="pad">
      <stop offset="0.0" stop-color="#605746"/>
      <stop offset="1.0" stop-color="#423c30"/>
    </radialGradient>
    <radialGradient cx="0" cy="0" gradientTransform="matrix(0.0083, 0.0, 0.0, 0.0083, 4.2, -46.7)" gradientUnits="userSpaceOnUse" id="gradient2" r="819.2" spreadMethod="pad">
      <stop offset="0.0" stop-color="#ff9200"/>
      <stop offset="1.0" stop-color="#fd8500"/>
    </radialGradient>
    <radialGradient cx="0" cy="0" gradientTransform="matrix(0.0039, 0.0, 0.0, 0.0039, -3.95, -48.3)" gradientUnits="userSpaceOnUse" id="gradient3" r="819.2" spreadMethod="pad">
      <stop offset="0.0" stop-color="#ffffff"/>
      <stop offset="1.0" stop-color="#a7a7a7"/>
    </radialGradient>
    <radialGradient cx="0" cy="0" gradientTransform="matrix(0.0066, 0.0, 0.0, 0.0066, -6.2, -46.2)" gradientUnits="userSpaceOnUse" id="gradient4" r="819.2" spreadMethod="pad">
      <stop offset="0.0" stop-color="#635948"/>
      <stop offset="1.0" stop-color="#342f26"/>
    </radialGradient>
    <radialGradient cx="0" cy="0" gradientTransform="matrix(0.0036, 0.0, 0.0, 0.0036, -5.8, -47.15)" gradientUnits="userSpaceOnUse" id="gradient5" r="819.2" spreadMethod="pad">
      <stop offset="0.0" stop-color="#f5f5f5"/>
      <stop offset="1.0" stop-color="#9e9e9e"/>
    </radialGradient>
    <radialGradient cx="0" cy="0" gradientTransform="matrix(0.0024, 0.0, 0.0, 0.0024, -9.25, -47.75)" gradientUnits="userSpaceOnUse" id="gradient6" r="819.2" spreadMethod="pad">
      <stop offset="0.0" stop-color="#ffffff"/>
      <stop offset="1.0" stop-color="#aaaaaa"/>
    </radialGradient>
    <radialGradient cx="0" cy="0" gradientTransform="matrix(0.0148, 0.0, 0.0, 0.0148, 3.35, -39.65)" gradientUnits="userSpaceOnUse" id="gradient7" r="819.2" spreadMethod="pad">
      <stop offset="0.0" stop-color="#615746"/>
      <stop offset="1.0" stop-color="#3f392e"/>
    </radialGradient>
    <radialGradient cx="0" cy="0" gradientTransform="matrix(0.0086, 0.0, 0.0, 0.0086, 1.5, -42.75)" gradientUnits="userSpaceOnUse" id="gradient8" r="819.2" spreadMethod="pad">
      <stop offset="0.0" stop-color="#ffca00"/>
      <stop offset="1.0" stop-color="#f38600"/>
    </radialGradient>
    <radialGradient cx="0" cy="0" gradientTransform="matrix(0.0096, 0.0, 0.0, 0.0096, 0.25, -40.45)" gradientUnits="userSpaceOnUse" id="gradient9" r="819.2" spreadMethod="pad">
      <stop offset="0.0" stop-color="#ffc700"/>
      <stop offset="1.0" stop-color="#ff8a00"/>
    </radialGradient>
    <radialGradient cx="0" cy="0" gradientTransform="matrix(0.0428, 0.0, 0.0, 0.0428, -1.8, -39.15)" gradientUnits="userSpaceOnUse" id="gradient10" r="819.2" spreadMethod="pad">
      <stop offset="0.0" stop-color="#ffb500"/>
      <stop offset="1.0" stop-color="#f77d00"/>
    </radialGradient>
    <radialGradient cx="0" cy="0" gradientTransform="matrix(0.0457, 0.0, 0.0, 0.0457, -7.65, -6.8)" gradientUnits="userSpaceOnUse" id="gradient11" r="819.2" spreadMethod="pad">
      <stop offset="0.0" stop-color="#6b604d"/>
      <stop offset="1.0" stop-color="#3f392e"/>
    </radialGradient>
    <radialGradient cx="0" cy="0" gradientTransform="matrix(0.0107, 0.0, 0.0, 0.0107, -9.85, -36.7)" gradientUnits="userSpaceOnUse" id="gradient12" r="819.2" spreadMethod="pad">
      <stop offset="0.0" stop-color="#403a2f"/>
      <stop offset="1.0" stop-color="#332e25"/>
    </radialGradient>
    <radialGradient cx="0" cy="0" gradientTransform="matrix(0.0031, 0.0, 0.0, 0.0031, -7.55, -43.5)" gradientUnits="userSpaceOnUse" id="gradient13" r="819.2" spreadMethod="pad">
      <stop offset="0.0" stop-color="#ffb900"/>
      <stop offset="1.0" stop-color="#ee7f00"/>
    </radialGradient>
    <radialGradient cx="0" cy="0" gradientTransform="matrix(0.0024, 0.0, 0.0, 0.0024, -8.4, -45.15)" gradientUnits="userSpaceOnUse" id="gradient14" r="819.2" spreadMethod="pad">
      <stop offset="0.0" stop-color="#f8f8f8"/>
      <stop offset="1.0" stop-color="#808080"/>
    </radialGradient>
    <radialGradient cx="0" cy="0" gradientTransform="matrix(0.0091, 0.0, 0.0, 0.0091, 1.85, -43.3)" gradientUnits="userSpaceOnUse" id="gradient15" r="819.2" spreadMethod="pad">
      <stop offset="0.0" stop-color="#615746"/>
      <stop offset="1.0" stop-color="#413b2f"/>
    </radialGradient>
    <radialGradient cx="0" cy="0" gradientTransform="matrix(0.01, 0.0, 0.0, 0.01, -9.8, -38.45)" gradientUnits="userSpaceOnUse" id="gradient16" r="819.2" spreadMethod="pad">
      <stop offset="0.0" stop-color="#0c0b09"/>
      <stop offset="1.0" stop-color="#0c0b09"/>
    </radialGradient>
    <radialGradient cx="0" cy="0" gradientTransform="matrix(0.0029, 0.0, 0.0, 0.0029, 0.85, -39.9)" gradientUnits="userSpaceOnUse" id="gradient17" r="819.2" spreadMethod="pad">
      <stop offset="0.0" stop-color="#ff8300"/>
      <stop offset="1.0" stop-color="#ff8200"/>
    </radialGradient>
    <radialGradient cx="0" cy="0" gradientTransform="matrix(0.0107, 0.0, 0.0, 0.0107, -9.85, -36.7)" gradientUnits="userSpaceOnUse" id="gradient18" r="819.2" spreadMethod="pad">
      <stop offset="0.0" stop-color="#0c0b09"/>
      <stop offset="1.0" stop-color="#0c0b09"/>
    </radialGradient>
    <radialGradient cx="0" cy="0" gradientTransform="matrix(0.0336, 0.0, 0.0, 0.0336, -3.65, -39.0)" gradientUnits="userSpaceOnUse" id="gradient19" r="819.2" spreadMethod="pad">
      <stop offset="0.0" stop-color="#867a7a"/>
      <stop offset="1.0" stop-color="#5a5151"/>
    </radialGradient>
    <radialGradient cx="0" cy="0" gradientTransform="matrix(0.0068, 0.0, 0.0, 0.0068, 0.3, -18.15)" gradientUnits="userSpaceOnUse" id="gradient20" r="819.2" spreadMethod="pad">
      <stop offset="0.0" stop-color="#dedede"/>
      <stop offset="1.0" stop-color="#999999"/>
    </radialGradient>
    <radialGradient cx="0" cy="0" gradientTransform="matrix(0.0566, 0.0, 0.0, 0.0566, 2.2, -36.45)" gradientUnits="userSpaceOnUse" id="gradient21" r="819.2" spreadMethod="pad">
      <stop offset="0.0" stop-color="#595141"/>
      <stop offset="1.0" stop-color="#3d372c"/>
    </radialGradient>
    <radialGradient cx="0" cy="0" gradientTransform="matrix(0.0058, 0.0, 0.0, 0.0058, 6.95, -35.6)" gradientUnits="userSpaceOnUse" id="gradient22" r="819.2" spreadMethod="pad">
      <stop offset="0.0" stop-color="#867a7a"/>
      <stop offset="1.0" stop-color="#554d4d"/>
    </radialGradient>
    <radialGradient cx="0" cy="0" gradientTransform="matrix(0.0086, 0.0, 0.0, 0.0086, 4.25, -32.3)" gradientUnits="userSpaceOnUse" id="gradient23" r="819.2" spreadMethod="pad">
      <stop offset="0.0" stop-color="#ffda7d"/>
      <stop offset="1.0" stop-color="#b9864c"/>
    </radialGradient>
    <radialGradient cx="0" cy="0" gradientTransform="matrix(0.0108, 0.0, 0.0, 0.0108, 0.95, -35.75)" gradientUnits="userSpaceOnUse" id="gradient24" r="819.2" spreadMethod="pad">
      <stop offset="0.0" stop-color="#918484"/>
      <stop offset="1.0" stop-color="#544c4c"/>
    </radialGradient>
    <radialGradient cx="0" cy="0" gradientTransform="matrix(0.0063, 0.0, 0.0, 0.0063, 3.15, -28.95)" gradientUnits="userSpaceOnUse" id="gradient25" r="819.2" spreadMethod="pad">
      <stop offset="0.0" stop-color="#ffca00"/>
      <stop offset="1.0" stop-color="#f48000"/>
    </radialGradient>
    <radialGradient cx="0" cy="0" gradientTransform="matrix(0.0082, 0.0, 0.0, 0.0082, 1.55, -26.35)" gradientUnits="userSpaceOnUse" id="gradient26" r="819.2" spreadMethod="pad">
      <stop offset="0.0" stop-color="#ffdd7f"/>
      <stop offset="1.0" stop-color="#cf9555"/>
    </radialGradient>
    <radialGradient cx="0" cy="0" gradientTransform="matrix(0.0093, 0.0, 0.0, 0.0093, 6.05, -24.25)" gradientUnits="userSpaceOnUse" id="gradient27" r="819.2" spreadMethod="pad">
      <stop offset="0.0" stop-color="#ffb000"/>
      <stop offset="1.0" stop-color="#ff8900"/>
    </radialGradient>
    <radialGradient cx="0" cy="0" gradientTransform="matrix(0.0115, 0.0, 0.0, 0.0115, 1.65, -25.95)" gradientUnits="userSpaceOnUse" id="gradient28" r="819.2" spreadMethod="pad">
      <stop offset="0.0" stop-color="#ffd278"/>
      <stop offset="1.0" stop-color="#876138"/>
    </radialGradient>
    <radialGradient cx="0" cy="0" gradientTransform="matrix(0.0094, 0.0, 0.0, 0.0094, 2.7, -25.5)" gradientUnits="userSpaceOnUse" id="gradient29" r="819.2" spreadMethod="pad">
      <stop offset="0.0" stop-color="#ffdb7d"/>
      <stop offset="1.0" stop-color="#956c3e"/>
    </radialGradient>
    <radialGradient cx="0" cy="0" gradientTransform="matrix(0.0054, 0.0, 0.0, 0.0054, -0.25, -22.75)" gradientUnits="userSpaceOnUse" id="gradient30" r="819.2" spreadMethod="pad">
      <stop offset="0.0" stop-color="#ffde7f"/>
      <stop offset="1.0" stop-color="#c99153"/>
    </radialGradient>
    <radialGradient cx="0" cy="0" gradientTransform="matrix(0.0127, 0.0, 0.0, 0.0127, 5.3, -16.8)" gradientUnits="userSpaceOnUse" id="gradient31" r="819.2" spreadMethod="pad">
      <stop offset="0.0" stop-color="#2e3656"/>
      <stop offset="1.0" stop-color="#21273f"/>
    </radialGradient>
    <radialGradient cx="0" cy="0" gradientTransform="matrix(0.0087, 0.0, 0.0, 0.0087, 5.7, -19.85)" gradientUnits="userSpaceOnUse" id="gradient32" r="819.2" spreadMethod="pad">
      <stop offset="0.0" stop-color="#ffdb00"/>
      <stop offset="1.0" stop-color="#da6e00"/>
    </radialGradient>
    <radialGradient cx="0" cy="0" gradientTransform="matrix(0.0085, 0.0, 0.0, 0.0085, 6.0, -19.75)" gradientUnits="userSpaceOnUse" id="gradient33" r="819.2" spreadMethod="pad">
      <stop offset="0.0" stop-color="#414d7b"/>
      <stop offset="1.0" stop-color="#222841"/>
    </radialGradient>
    <radialGradient cx="0" cy="0" gradientTransform="matrix(0.0066, 0.0, 0.0, 0.0066, 3.95, -20.0)" gradientUnits="userSpaceOnUse" id="gradient34" r="819.2" spreadMethod="pad">
      <stop offset="0.0" stop-color="#333c61"/>
      <stop offset="1.0" stop-color="#232942"/>
    </radialGradient>
    <radialGradient cx="0" cy="0" gradientTransform="matrix(0.0097, 0.0, 0.0, 0.0097, -1.3, -14.35)" gradientUnits="userSpaceOnUse" id="gradient35" r="819.2" spreadMethod="pad">
      <stop offset="0.0" stop-color="#3e4a76"/>
      <stop offset="1.0" stop-color="#232943"/>
    </radialGradient>
    <radialGradient cx="0" cy="0" gradientTransform="matrix(0.0122, 0.0, 0.0, 0.0122, -2.7, -7.3)" gradientUnits="userSpaceOnUse" id="gradient36" r="819.2" spreadMethod="pad">
      <stop offset="0.0" stop-color="#445181"/>
      <stop offset="1.0" stop-color="#252b46"/>
    </radialGradient>
    <radialGradient cx="0" cy="0" gradientTransform="matrix(0.0165, 0.0, 0.0, 0.0165, -3.7, -2.65)" gradientUnits="userSpaceOnUse" id="gradient37" r="819.2" spreadMethod="pad">
      <stop offset="0.0" stop-color="#404b78"/>
      <stop offset="1.0" stop-color="#20263d"/>
    </radialGradient>
    <radialGradient cx="0" cy="0" gradientTransform="matrix(0.0063, 0.0, 0.0, 0.0063, -12.8, 5.5)" gradientUnits="userSpaceOnUse" id="gradient38" r="819.2" spreadMethod="pad">
      <stop offset="0.0" stop-color="#ffee00"/>
      <stop offset="1.0" stop-color="#e77400"/>
    </radialGradient>
    <radialGradient cx="0" cy="0" gradientTransform="matrix(0.0065, 0.0, 0.0, 0.0065, -12.45, 7.45)" gradientUnits="userSpaceOnUse" id="gradient39" r="819.2" spreadMethod="pad">
      <stop offset="0.0" stop-color="#655b49"/>
      <stop offset="1.0" stop-color="#373128"/>
    </radialGradient>
    <radialGradient cx="0" cy="0" gradientTransform="matrix(0.0018, 0.0, 0.0, 0.0018, -8.0, 8.2)" gradientUnits="userSpaceOnUse" id="gradient40" r="819.2" spreadMethod="pad">
      <stop offset="0.0" stop-color="#877b7b"/>
      <stop offset="1.0" stop-color="#6e6565"/>
    </radialGradient>
    <radialGradient cx="0" cy="0" gradientTransform="matrix(0.0084, 0.0, 0.0, 0.0084, -13.75, 7.2)" gradientUnits="userSpaceOnUse" id="gradient41" r="819.2" spreadMethod="pad">
      <stop offset="0.0" stop-color="#a69797"/>
      <stop offset="1.0" stop-color="#342f2f"/>
    </radialGradient>
    <radialGradient cx="0" cy="0" gradientTransform="matrix(0.0046, 0.0, 0.0, 0.0046, -0.4, -20.25)" gradientUnits="userSpaceOnUse" id="gradient42" r="819.2" spreadMethod="pad">
      <stop offset="0.0" stop-color="#ffcb00"/>
      <stop offset="1.0" stop-color="#f68400"/>
    </radialGradient>
    <radialGradient cx="0" cy="0" gradientTransform="matrix(0.0094, 0.0, 0.0, 0.0094, -0.05, -15.65)" gradientUnits="userSpaceOnUse" id="gradient43" r="819.2" spreadMethod="pad">
      <stop offset="0.0" stop-color="#615847"/>
      <stop offset="1.0" stop-color="#2d2820"/>
    </radialGradient>
    <radialGradient cx="0" cy="0" gradientTransform="matrix(0.0095, 0.0, 0.0, 0.0095, 7.1, -12.8)" gradientUnits="userSpaceOnUse" id="gradient44" r="819.2" spreadMethod="pad">
      <stop offset="0.0" stop-color="#3e4976"/>
      <stop offset="1.0" stop-color="#1a1e30"/>
    </radialGradient>
    <radialGradient cx="0" cy="0" gradientTransform="matrix(0.0096, 0.0, 0.0, 0.0096, 9.35, -6.8)" gradientUnits="userSpaceOnUse" id="gradient45" r="819.2" spreadMethod="pad">
      <stop offset="0.0" stop-color="#343e63"/>
      <stop offset="1.0" stop-color="#1e243a"/>
    </radialGradient>
    <radialGradient cx="0" cy="0" gradientTransform="matrix(0.0082, 0.0, 0.0, 0.0082, -1.6, -18.1)" gradientUnits="userSpaceOnUse" id="gradient46" r="819.2" spreadMethod="pad">
      <stop offset="0.0" stop-color="#323b5e"/>
      <stop offset="1.0" stop-color="#2b3351"/>
    </radialGradient>
    <radialGradient cx="0" cy="0" gradientTransform="matrix(0.0088, 0.0, 0.0, 0.0088, -1.95, -16.1)" gradientUnits="userSpaceOnUse" id="gradient47" r="819.2" spreadMethod="pad">
      <stop offset="0.0" stop-color="#0c0b09"/>
      <stop offset="1.0" stop-color="#0c0b09"/>
    </radialGradient>
    <radialGradient cx="0" cy="0" gradientTransform="matrix(0.0038, 0.0, 0.0, 0.0038, -2.4, -16.3)" gradientUnits="userSpaceOnUse" id="gradient48" r="819.2" spreadMethod="pad">
      <stop offset="0.0" stop-color="#202020"/>
      <stop offset="1.0" stop-color="#202020"/>
    </radialGradient>
    <radialGradient cx="0" cy="0" gradientTransform="matrix(0.0044, 0.0, 0.0, 0.0044, 0.75, -8.75)" gradientUnits="userSpaceOnUse" id="gradient49" r="819.2" spreadMethod="pad">
      <stop offset="0.0" stop-color="#ffe986"/>
      <stop offset="1.0" stop-color="#a57744"/>
    </radialGradient>
    <radialGradient cx="0" cy="0" gradientTransform="matrix(0.0096, 0.0, 0.0, 0.0096, 10.2, -3.4)" gradientUnits="userSpaceOnUse" id="gradient50" r="819.2" spreadMethod="pad">
      <stop offset="0.0" stop-color="#353f65"/>
      <stop offset="1.0" stop-color="#1d2237"/>
    </radialGradient>
    <radialGradient cx="0" cy="0" gradientTransform="matrix(0.0043, 0.0, 0.0, 0.0043, 13.55, -0.9)" gradientUnits="userSpaceOnUse" id="gradient51" r="819.2" spreadMethod="pad">
      <stop offset="0.0" stop-color="#807575"/>
      <stop offset="1.0" stop-color="#706666"/>
    </radialGradient>
    <radialGradient cx="0" cy="0" gradientTransform="matrix(0.0036, 0.0, 0.0, 0.0036, 13.3, -1.0)" gradientUnits="userSpaceOnUse" id="gradient52" r="819.2" spreadMethod="pad">
      <stop offset="0.0" stop-color="#564e3f"/>
      <stop offset="1.0" stop-color="#4b4436"/>
    </radialGradient>
    <radialGradient cx="0" cy="0" gradientTransform="matrix(0.0047, 0.0, 0.0, 0.0047, 10.2, 2.35)" gradientUnits="userSpaceOnUse" id="gradient53" r="819.2" spreadMethod="pad">
      <stop offset="0.0" stop-color="#ffa300"/>
      <stop offset="1.0" stop-color="#994c00"/>
    </radialGradient>
  </defs>
</svg>
