<?xml version="1.0" encoding="UTF-8" standalone="no"?>
<svg xmlns:ffdec="https://www.free-decompiler.com/flash" xmlns:xlink="http://www.w3.org/1999/xlink" ffdec:objectType="shape" height="60.1px" width="52.95px" xmlns="http://www.w3.org/2000/svg">
  <g transform="matrix(1.0, 0.0, 0.0, 1.0, 18.05, 43.0)">
    <path d="M22.0 -37.1 L22.35 -37.05 24.1 -36.35 Q25.95 -35.15 26.0 -34.75 L25.7 -34.5 Q25.75 -30.95 27.1 -32.35 L27.2 -30.9 27.0 -30.4 26.95 -30.6 25.95 -30.95 23.5 -31.1 23.5 -31.25 22.8 -31.65 21.4 -31.3 20.15 -31.75 Q19.9 -33.25 19.2 -33.5 L19.2 -35.5 19.7 -36.3 19.45 -36.75 19.45 -36.8 20.95 -37.15 22.0 -37.1" fill="url(#gradient0)" fill-rule="evenodd" stroke="none"/>
    <path d="M22.0 -37.1 L22.25 -37.35 22.35 -37.05 22.0 -37.1" fill="url(#gradient1)" fill-rule="evenodd" stroke="none"/>
    <path d="M26.0 -34.75 Q27.05 -35.95 27.0 -36.9 L27.35 -36.4 Q28.15 -34.5 27.1 -32.35 25.75 -30.95 25.7 -34.5 L26.0 -34.75" fill="url(#gradient2)" fill-rule="evenodd" stroke="none"/>
    <path d="M27.0 -30.4 L27.05 -30.3 25.6 -29.35 Q22.8 -29.25 22.45 -27.75 21.7 -28.9 23.5 -31.1 L25.95 -30.95 26.95 -30.6 27.0 -30.4 M21.4 -31.3 Q19.7 -27.95 20.4 -26.9 L20.25 -26.95 19.15 -27.75 18.35 -28.7 Q18.0 -30.05 20.15 -31.75 L21.4 -31.3" fill="url(#gradient3)" fill-rule="evenodd" stroke="none"/>
    <path d="M23.5 -31.1 Q21.7 -28.9 22.45 -27.75 L22.4 -26.85 22.6 -26.0 22.0 -26.0 20.4 -26.9 Q19.7 -27.95 21.4 -31.3 L22.8 -31.65 23.5 -31.25 23.5 -31.1" fill="url(#gradient4)" fill-rule="evenodd" stroke="none"/>
    <path d="M22.45 -27.75 Q22.8 -29.25 25.6 -29.35 L27.6 -25.45 29.9 -22.2 30.7 -21.65 30.75 -21.55 30.75 -20.5 30.25 -19.4 Q29.45 -23.4 24.85 -21.15 L23.4 -23.45 Q22.6 -25.15 22.6 -26.0 L22.4 -26.85 22.45 -27.75" fill="url(#gradient5)" fill-rule="evenodd" stroke="none"/>
    <path d="M27.05 -30.3 Q31.35 -28.1 30.85 -22.05 L30.7 -21.65 29.9 -22.2 27.6 -25.45 25.6 -29.35 27.05 -30.3" fill="url(#gradient6)" fill-rule="evenodd" stroke="none"/>
    <path d="M9.9 -42.35 Q11.3 -43.65 15.5 -42.4 L17.35 -39.95 18.0 -38.75 18.0 -38.35 18.0 -38.2 18.05 -36.7 15.6 -34.4 12.15 -34.0 8.5 -35.25 Q6.75 -37.55 7.3 -39.2 L7.7 -40.45 8.55 -41.55 9.9 -42.35" fill="url(#gradient7)" fill-rule="evenodd" stroke="none"/>
    <path d="M4.45 -39.95 L6.25 -40.65 7.5 -40.3 7.0 -40.0 7.1 -39.05 6.85 -38.35 6.25 -37.6 Q5.55 -36.15 5.6 -34.5 4.7 -32.5 5.85 -29.0 4.2 -29.45 1.75 -33.3 L2.25 -36.6 2.7 -37.1 4.15 -39.65 4.45 -39.95 M18.0 -38.35 L18.95 -37.65 19.45 -36.8 19.45 -36.75 18.15 -37.75 18.0 -38.2 18.0 -38.35 M18.2 -36.4 L19.2 -35.5 19.2 -33.5 19.0 -32.4 Q18.65 -30.45 18.05 -29.45 L18.05 -29.0 16.85 -28.25 14.6 -27.5 Q15.6 -28.1 16.55 -30.2 L17.0 -32.25 Q17.3 -32.25 18.0 -33.9 L18.0 -34.5 18.2 -36.4" fill="url(#gradient8)" fill-rule="evenodd" stroke="none"/>
    <path d="M18.0 -38.2 L18.15 -37.75 18.15 -36.6 17.65 -35.45 16.35 -34.5 Q11.6 -32.9 9.5 -34.5 L8.9 -34.7 7.7 -35.65 6.85 -37.05 6.85 -38.35 7.1 -39.05 7.3 -39.2 Q6.75 -37.55 8.5 -35.25 L12.15 -34.0 15.6 -34.4 18.05 -36.7 18.0 -38.2" fill="url(#gradient9)" fill-rule="evenodd" stroke="none"/>
    <path d="M18.15 -37.75 L19.45 -36.75 19.7 -36.3 19.2 -35.5 18.2 -36.4 18.15 -36.6 18.15 -37.75" fill="url(#gradient10)" fill-rule="evenodd" stroke="none"/>
    <path d="M6.85 -37.05 L7.7 -35.65 8.9 -34.7 9.5 -34.5 Q11.6 -32.9 16.35 -34.5 L17.65 -35.45 18.15 -36.6 18.2 -36.4 18.0 -34.5 18.0 -33.9 Q17.3 -32.25 17.0 -32.25 L16.1 -31.6 Q11.95 -29.9 8.65 -31.95 L8.4 -32.2 8.35 -32.2 7.4 -33.05 6.75 -34.5 6.85 -37.05" fill="url(#gradient11)" fill-rule="evenodd" stroke="none"/>
    <path d="M18.95 -37.65 L19.2 -39.8 20.95 -37.15 19.45 -36.8 18.95 -37.65" fill="url(#gradient12)" fill-rule="evenodd" stroke="none"/>
    <path d="M6.25 -40.65 Q5.5 -41.35 8.05 -42.25 L9.9 -42.35 8.55 -41.55 7.7 -40.45 7.5 -40.3 6.25 -40.65" fill="url(#gradient13)" fill-rule="evenodd" stroke="none"/>
    <path d="M-0.15 -32.75 L-1.45 -33.2 -2.4 -33.8 -2.9 -34.5 Q-4.45 -39.65 -1.15 -40.7 L-0.65 -40.85 Q3.0 -41.45 4.45 -39.95 L4.15 -39.65 2.7 -37.1 2.25 -36.6 1.75 -33.3 0.5 -32.65 -0.15 -32.75" fill="url(#gradient14)" fill-rule="evenodd" stroke="none"/>
    <path d="M7.3 -39.2 L7.1 -39.05 7.0 -40.0 7.5 -40.3 7.7 -40.45 7.3 -39.2" fill="url(#gradient15)" fill-rule="evenodd" stroke="none"/>
    <path d="M6.85 -38.35 L6.85 -37.05 6.75 -34.5 7.4 -33.05 8.35 -32.2 Q11.8 -28.85 16.1 -31.6 L17.0 -32.25 16.55 -30.2 Q15.6 -28.1 14.6 -27.5 14.6 -27.1 12.15 -26.45 L9.85 -26.5 7.85 -27.15 6.2 -28.4 5.85 -29.0 Q4.7 -32.5 5.6 -34.5 5.55 -36.15 6.25 -37.6 L6.85 -38.35" fill="url(#gradient16)" fill-rule="evenodd" stroke="none"/>
    <path d="M8.35 -32.2 L8.4 -32.2 8.65 -31.95 Q11.95 -29.9 16.1 -31.6 11.8 -28.85 8.35 -32.2" fill="url(#gradient17)" fill-rule="evenodd" stroke="none"/>
    <path d="M-0.05 -31.6 L-0.15 -32.75 0.5 -32.65 -0.05 -31.6 M3.25 -23.7 L2.2 -25.65 Q6.25 -22.75 9.7 -25.85 10.7 -22.55 15.55 -23.05 L14.95 -22.55 14.7 -22.3 14.6 -22.2 13.8 -21.75 Q12.6 -19.5 11.95 -19.15 11.3 -18.75 9.8 -18.5 L9.5 -18.2 8.8 -18.55 8.75 -18.75 8.2 -19.9 7.05 -18.85 Q5.85 -18.8 4.35 -19.95 L3.6 -21.1 3.5 -22.75 3.35 -23.4 3.35 -23.55 3.35 -23.65 3.25 -23.7" fill="url(#gradient18)" fill-rule="evenodd" stroke="none"/>
    <path d="M3.35 -23.55 L3.25 -23.7 3.35 -23.65 3.35 -23.55" fill="url(#gradient19)" fill-rule="evenodd" stroke="none"/>
    <path d="M1.4 -20.85 L2.1 -25.75 2.2 -25.65 3.25 -23.7 3.35 -23.55 3.35 -23.4 2.75 -22.75 1.95 -21.35 1.7 -20.9 1.4 -20.85" fill="url(#gradient20)" fill-rule="evenodd" stroke="none"/>
    <path d="M2.1 -25.75 Q-0.7 -28.3 -0.05 -31.6 L0.5 -32.65 1.75 -33.3 Q4.2 -29.45 5.85 -29.0 L6.2 -28.4 7.85 -27.15 9.85 -26.5 9.7 -25.85 Q6.25 -22.75 2.2 -25.65 L2.1 -25.75" fill="url(#gradient21)" fill-rule="evenodd" stroke="none"/>
    <path d="M9.7 -25.85 L9.85 -26.5 12.15 -26.45 Q14.6 -27.1 14.6 -27.5 L16.85 -28.25 18.05 -29.0 18.35 -28.7 19.15 -27.75 20.25 -26.95 19.9 -26.1 18.35 -24.4 17.4 -23.75 15.55 -23.05 Q10.7 -22.55 9.7 -25.85" fill="url(#gradient22)" fill-rule="evenodd" stroke="none"/>
    <path d="M20.15 -31.75 Q18.0 -30.05 18.35 -28.7 L18.05 -29.0 18.05 -29.45 Q18.65 -30.45 19.0 -32.4 L19.2 -33.5 Q19.9 -33.25 20.15 -31.75" fill="url(#gradient23)" fill-rule="evenodd" stroke="none"/>
    <path d="M10.0 -9.55 L8.95 -9.6 9.65 -10.55 10.0 -9.55 M15.55 -23.05 L17.4 -23.75 18.35 -24.4 17.75 -20.5 16.9 -21.4 16.7 -21.4 15.75 -21.75 14.95 -22.55 15.55 -23.05" fill="url(#gradient24)" fill-rule="evenodd" stroke="none"/>
    <path d="M14.95 -22.55 L15.75 -21.75 15.2 -21.8 14.7 -22.3 14.95 -22.55 M16.7 -21.4 L16.9 -21.4 17.75 -20.5 18.15 -20.05 18.95 -18.45 18.5 -18.2 17.9 -19.55 16.7 -20.95 16.7 -21.4" fill="url(#gradient25)" fill-rule="evenodd" stroke="none"/>
    <path d="M15.75 -21.75 L16.7 -21.4 16.7 -20.95 17.9 -19.55 18.5 -18.2 17.1 -17.1 16.4 -17.65 14.7 -20.0 14.75 -21.9 14.6 -22.2 14.7 -22.3 15.2 -21.8 15.75 -21.75" fill="url(#gradient26)" fill-rule="evenodd" stroke="none"/>
    <path d="M23.3 -14.2 L22.85 -13.2 21.65 -12.0 Q18.95 -10.35 16.3 -12.6 14.9 -14.1 17.1 -17.1 L18.5 -18.2 18.95 -18.45 21.35 -18.7 22.4 -17.95 Q24.2 -16.85 23.3 -14.2" fill="url(#gradient27)" fill-rule="evenodd" stroke="none"/>
    <path d="M14.6 -22.2 L14.75 -21.9 14.7 -20.0 Q13.6 -17.55 10.0 -15.7 L9.95 -15.25 8.75 -15.05 Q7.45 -15.1 6.75 -15.85 L6.45 -15.7 5.3 -15.7 Q5.45 -16.55 2.7 -17.1 L2.4 -17.8 1.95 -19.4 1.9 -20.75 1.95 -21.35 2.75 -22.75 3.35 -23.4 3.5 -22.75 3.6 -21.1 4.35 -19.95 Q5.85 -18.8 7.05 -18.85 L8.2 -19.9 8.75 -18.75 8.8 -18.55 9.5 -18.2 9.8 -18.5 Q11.3 -18.75 11.95 -19.15 12.6 -19.5 13.8 -21.75 L14.6 -22.2" fill="url(#gradient28)" fill-rule="evenodd" stroke="none"/>
    <path d="M21.65 -12.0 L22.0 -11.15 22.0 -11.0 Q22.65 -8.95 19.35 -5.95 12.95 -3.75 11.3 -6.4 L11.25 -6.5 10.0 -9.55 9.65 -10.55 9.65 -11.0 10.1 -15.05 9.95 -15.25 10.0 -15.7 Q13.6 -17.55 14.7 -20.0 L16.4 -17.65 17.1 -17.1 Q14.9 -14.1 16.3 -12.6 18.95 -10.35 21.65 -12.0" fill="url(#gradient29)" fill-rule="evenodd" stroke="none"/>
    <path d="M1.95 -21.35 L1.9 -20.75 1.7 -20.9 1.95 -21.35" fill="url(#gradient30)" fill-rule="evenodd" stroke="none"/>
    <path d="M0.1 -20.0 L1.4 -20.85 1.7 -20.9 1.9 -20.75 1.95 -19.4 0.8 -20.3 0.1 -20.0 M2.4 -17.8 L2.7 -17.1 Q5.45 -16.55 5.3 -15.7 6.15 -13.6 3.35 -11.0 1.25 -7.85 -0.35 -9.25 L-0.7 -9.5 0.35 -9.75 1.4 -11.0 1.95 -11.5 2.7 -12.7 Q3.8 -15.05 2.35 -15.55 L3.35 -15.95 3.35 -16.3 Q2.3 -16.85 2.4 -17.8" fill="url(#gradient31)" fill-rule="evenodd" stroke="none"/>
    <path d="M-2.55 -13.4 Q-2.85 -14.0 -2.8 -15.5 L-2.55 -16.25 Q-0.65 -18.05 0.1 -20.0 L0.8 -20.3 1.95 -19.4 2.4 -17.8 Q2.3 -16.85 3.35 -16.3 L3.35 -15.95 2.35 -15.55 Q3.8 -15.05 2.7 -12.7 L1.95 -11.5 1.4 -11.0 0.35 -9.75 -0.7 -9.5 -1.45 -10.2 -1.8 -12.25 -2.55 -13.4" fill="url(#gradient32)" fill-rule="evenodd" stroke="none"/>
    <path d="M8.95 -9.6 L7.6 -7.8 Q4.85 -3.75 1.75 -4.8 -3.3 -7.05 -3.4 -11.0 L-3.15 -12.2 -2.75 -13.1 -2.7 -13.15 -2.6 -13.25 -2.55 -13.4 -1.8 -12.25 -1.45 -10.2 -0.7 -9.5 -0.35 -9.25 Q1.25 -7.85 3.35 -11.0 6.15 -13.6 5.3 -15.7 L6.45 -15.7 6.75 -15.85 Q7.45 -15.1 8.75 -15.05 L9.95 -15.25 10.1 -15.05 9.65 -11.0 9.65 -10.55 8.95 -9.6" fill="url(#gradient33)" fill-rule="evenodd" stroke="none"/>
    <path d="M11.25 -6.4 L11.25 -6.5 11.3 -6.4 11.25 -6.4" fill="url(#gradient34)" fill-rule="evenodd" stroke="none"/>
    <path d="M22.0 -11.15 L23.8 -8.95 Q25.2 -6.2 25.3 -2.9 L24.95 -0.8 Q23.85 0.85 23.35 0.75 17.35 4.15 13.7 0.75 L13.15 0.35 Q12.2 -1.1 11.8 -2.35 L11.25 -4.95 11.25 -6.4 11.3 -6.4 Q12.95 -3.75 19.35 -5.95 22.65 -8.95 22.0 -11.0 L22.0 -11.15" fill="url(#gradient35)" fill-rule="evenodd" stroke="none"/>
    <path d="M7.6 -7.8 L7.05 -5.15 6.5 -4.05 Q4.05 0.5 -1.75 -1.3 -6.65 -2.75 -5.8 -8.1 -4.75 -12.25 -2.75 -13.15 L-2.75 -13.1 -3.15 -12.2 -3.4 -11.0 Q-3.3 -7.05 1.75 -4.8 4.85 -3.75 7.6 -7.8" fill="url(#gradient36)" fill-rule="evenodd" stroke="none"/>
    <path d="M6.5 -4.05 Q6.65 -1.45 5.1 1.1 2.8 5.25 -2.15 4.45 -7.15 2.95 -7.4 0.75 L-8.0 -0.7 -8.1 -2.65 -8.0 -3.0 -7.95 -3.3 -7.4 -5.4 -6.15 -7.75 -5.8 -8.1 Q-6.65 -2.75 -1.75 -1.3 4.05 0.5 6.5 -4.05" fill="url(#gradient37)" fill-rule="evenodd" stroke="none"/>
    <path d="M25.3 -2.9 L25.45 -2.7 25.95 0.25 25.7 2.95 Q26.25 6.8 18.35 8.3 13.35 8.7 11.6 3.2 L11.3 1.1 Q11.35 -2.4 11.8 -2.35 12.2 -1.1 13.15 0.35 L13.7 0.75 Q17.35 4.15 23.35 0.75 23.85 0.85 24.95 -0.8 L25.3 -2.9" fill="url(#gradient38)" fill-rule="evenodd" stroke="none"/>
    <path d="M31.1 -19.0 Q33.05 -17.25 34.9 -18.25 L34.45 -17.25 Q32.8 -15.65 29.15 -17.15 L30.05 -18.4 30.35 -19.05 31.1 -19.0" fill="url(#gradient39)" fill-rule="evenodd" stroke="none"/>
    <path d="M31.0 -21.45 L31.4 -20.45 Q31.55 -19.75 31.1 -19.0 L30.35 -19.05 30.25 -19.4 30.75 -20.5 30.75 -21.55 31.0 -21.45" fill="url(#gradient40)" fill-rule="evenodd" stroke="none"/>
    <path d="M30.85 -22.05 L31.0 -21.45 30.75 -21.55 30.7 -21.65 30.85 -22.05" fill="url(#gradient41)" fill-rule="evenodd" stroke="none"/>
    <path d="M29.15 -17.15 Q28.3 -15.95 23.3 -14.2 24.2 -16.85 22.4 -17.95 L23.5 -19.25 23.8 -20.15 24.0 -20.35 24.3 -20.6 24.85 -21.15 Q29.45 -23.4 30.25 -19.4 L30.35 -19.05 30.05 -18.4 29.15 -17.15" fill="url(#gradient42)" fill-rule="evenodd" stroke="none"/>
    <path d="M24.7 11.65 L25.15 12.35 25.2 12.45 25.25 12.5 25.3 12.65 25.45 13.75 25.3 14.4 24.0 16.15 Q22.95 17.4 19.25 14.1 L19.45 14.05 19.5 14.2 19.6 14.05 22.2 13.65 24.5 12.0 24.7 11.65" fill="url(#gradient43)" fill-rule="evenodd" stroke="none"/>
    <path d="M25.7 2.95 Q27.3 8.5 24.7 11.65 L24.5 12.0 22.2 13.65 19.6 14.05 19.45 14.05 19.25 14.1 18.45 14.05 18.35 13.95 Q10.05 11.4 11.6 3.2 13.35 8.7 18.35 8.3 26.25 6.8 25.7 2.95" fill="url(#gradient44)" fill-rule="evenodd" stroke="none"/>
    <path d="M25.15 12.35 L25.25 12.5 25.2 12.45 25.15 12.35 M25.3 12.65 L25.85 13.5 25.95 14.75 25.7 15.1 24.5 16.8 Q24.55 17.35 22.9 16.95 L18.45 14.05 19.25 14.1 Q22.95 17.4 24.0 16.15 L24.85 15.2 25.3 14.4 25.45 13.75 25.3 12.65 M19.6 14.05 L19.5 14.2 19.45 14.05 19.6 14.05" fill="url(#gradient45)" fill-rule="evenodd" stroke="none"/>
    <path d="M25.7 15.1 L25.35 15.95 24.5 16.8 25.7 15.1" fill="url(#gradient46)" fill-rule="evenodd" stroke="none"/>
    <path d="M25.3 14.4 L24.85 15.2 24.0 16.15 25.3 14.4" fill="url(#gradient47)" fill-rule="evenodd" stroke="none"/>
    <path d="M-6.95 -38.55 Q-5.2 -40.3 -2.2 -40.45 L-3.4 -39.55 -3.65 -39.15 -5.65 -38.95 -6.95 -38.55" fill="url(#gradient48)" fill-rule="evenodd" stroke="none"/>
    <path d="M-7.05 -38.55 L-6.95 -38.55 -5.65 -38.95 -3.65 -39.15 Q-4.95 -38.2 -3.65 -34.6 L-6.0 -33.95 -7.65 -34.1 -8.4 -34.5 Q-10.65 -36.4 -7.05 -38.55" fill="url(#gradient49)" fill-rule="evenodd" stroke="none"/>
    <path d="M-1.45 -33.2 L-2.2 -33.4 -3.0 -33.9 -3.65 -34.6 Q-4.95 -38.2 -3.65 -39.15 L-3.4 -39.55 -2.2 -40.45 -1.15 -40.7 Q-4.45 -39.65 -2.9 -34.5 L-2.4 -33.8 -1.45 -33.2" fill="url(#gradient50)" fill-rule="evenodd" stroke="none"/>
    <path d="M-15.55 -33.5 Q-19.2 -33.95 -17.55 -35.85 -15.1 -37.8 -12.4 -36.75 L-13.55 -36.05 -13.7 -35.75 Q-12.7 -34.6 -13.0 -34.5 L-13.0 -34.35 -14.35 -34.05 -15.55 -33.5" fill="url(#gradient51)" fill-rule="evenodd" stroke="none"/>
    <path d="M-6.0 -33.9 Q-7.6 -33.75 -9.05 -33.1 L-10.65 -33.8 -11.85 -33.9 -12.65 -34.1 -13.0 -34.35 -13.0 -34.5 Q-12.7 -34.6 -13.7 -35.75 L-13.55 -36.05 -12.4 -36.75 -10.0 -38.5 -7.05 -38.55 Q-10.65 -36.4 -8.4 -34.5 L-7.65 -34.1 -6.0 -33.95 -6.0 -33.9" fill="url(#gradient52)" fill-rule="evenodd" stroke="none"/>
    <path d="M-11.85 -33.9 Q-12.25 -32.2 -14.45 -31.45 -16.75 -30.8 -15.55 -33.5 L-14.35 -34.05 -13.0 -34.35 -12.65 -34.1 -11.85 -33.9" fill="url(#gradient53)" fill-rule="evenodd" stroke="none"/>
    <path d="M-3.0 -33.9 L-3.9 -33.7 -6.0 -33.9 -6.0 -33.95 -3.65 -34.6 -3.0 -33.9" fill="url(#gradient54)" fill-rule="evenodd" stroke="none"/>
    <path d="M-2.75 -13.15 L-2.6 -13.25 -2.7 -13.15 -2.75 -13.1 -2.75 -13.15" fill="url(#gradient55)" fill-rule="evenodd" stroke="none"/>
    <path d="M5.1 1.1 Q4.1 8.45 -3.0 9.1 -5.05 9.5 -7.35 8.1 L-8.5 6.5 Q-11.15 0.05 -8.05 -3.1 L-8.0 -3.0 -8.1 -2.65 -8.0 -0.7 -7.4 0.75 Q-7.15 2.95 -2.15 4.45 2.8 5.25 5.1 1.1" fill="url(#gradient56)" fill-rule="evenodd" stroke="none"/>
    <path d="M-8.05 -3.1 L-7.95 -3.3 -8.0 -3.0 -8.05 -3.1" fill="url(#gradient57)" fill-rule="evenodd" stroke="none"/>
    <path d="M-3.0 9.1 L-3.25 9.85 -3.8 11.05 Q-5.3 12.05 -5.15 11.7 L-5.2 11.65 -5.25 11.65 -8.0 10.75 -8.2 10.65 -8.8 9.6 -8.85 8.15 -8.5 6.5 -7.35 8.1 Q-5.05 9.5 -3.0 9.1" fill="url(#gradient58)" fill-rule="evenodd" stroke="none"/>
    <path d="M-3.25 9.85 Q-3.2 10.25 -4.05 11.85 L-5.35 12.5 -5.35 12.45 -5.4 12.45 -5.45 12.45 -8.15 11.55 Q-8.4 11.65 -8.95 10.35 L-8.85 8.15 -8.8 9.6 -8.2 10.65 -8.0 10.75 -6.75 11.35 -5.25 11.65 -5.2 11.65 -5.15 11.7 Q-5.3 12.05 -3.8 11.05 L-3.25 9.85" fill="url(#gradient59)" fill-rule="evenodd" stroke="none"/>
    <path d="M-5.35 12.5 L-5.4 12.45 -5.35 12.45 -5.35 12.5 M-5.45 12.45 L-7.25 12.1 -8.15 11.55 -5.45 12.45" fill="url(#gradient60)" fill-rule="evenodd" stroke="none"/>
    <path d="M-8.0 10.75 L-5.25 11.65 -6.75 11.35 -8.0 10.75" fill="url(#gradient61)" fill-rule="evenodd" stroke="none"/>
  </g>
  <defs>
    <radialGradient cx="0" cy="0" gradientTransform="matrix(0.007, 0.0, 0.0, 0.007, 21.7, -32.7)" gradientUnits="userSpaceOnUse" id="gradient0" r="819.2" spreadMethod="pad">
      <stop offset="0.0" stop-color="#645a48"/>
      <stop offset="1.0" stop-color="#3c372c"/>
    </radialGradient>
    <radialGradient cx="0" cy="0" gradientTransform="matrix(7.0E-4, 0.0, 0.0, 7.0E-4, 22.1, -37.5)" gradientUnits="userSpaceOnUse" id="gradient1" r="819.2" spreadMethod="pad">
      <stop offset="0.0" stop-color="#d4d4d4"/>
      <stop offset="1.0" stop-color="#8d8d8d"/>
    </radialGradient>
    <radialGradient cx="0" cy="0" gradientTransform="matrix(0.0052, 0.0, 0.0, 0.0052, 25.8, -32.95)" gradientUnits="userSpaceOnUse" id="gradient2" r="819.2" spreadMethod="pad">
      <stop offset="0.0" stop-color="#ffffff"/>
      <stop offset="1.0" stop-color="#bdbdbd"/>
    </radialGradient>
    <radialGradient cx="0" cy="0" gradientTransform="matrix(0.0062, 0.0, 0.0, 0.0062, 22.75, -30.25)" gradientUnits="userSpaceOnUse" id="gradient3" r="819.2" spreadMethod="pad">
      <stop offset="0.0" stop-color="#ffdf80"/>
      <stop offset="1.0" stop-color="#dfa15c"/>
    </radialGradient>
    <radialGradient cx="0" cy="0" gradientTransform="matrix(0.0058, 0.0, 0.0, 0.0058, 22.15, -30.8)" gradientUnits="userSpaceOnUse" id="gradient4" r="819.2" spreadMethod="pad">
      <stop offset="0.0" stop-color="#ffcf00"/>
      <stop offset="1.0" stop-color="#bc6e00"/>
    </radialGradient>
    <radialGradient cx="0" cy="0" gradientTransform="matrix(0.0084, 0.0, 0.0, 0.0084, 26.6, -23.8)" gradientUnits="userSpaceOnUse" id="gradient5" r="819.2" spreadMethod="pad">
      <stop offset="0.0" stop-color="#ffdd7f"/>
      <stop offset="1.0" stop-color="#dfa15c"/>
    </radialGradient>
    <radialGradient cx="0" cy="0" gradientTransform="matrix(0.0065, 0.0, 0.0, 0.0065, 27.15, -25.3)" gradientUnits="userSpaceOnUse" id="gradient6" r="819.2" spreadMethod="pad">
      <stop offset="0.0" stop-color="#ffdc7e"/>
      <stop offset="1.0" stop-color="#b07f49"/>
    </radialGradient>
    <radialGradient cx="0" cy="0" gradientTransform="matrix(0.008, 0.0, 0.0, 0.008, 13.45, -37.95)" gradientUnits="userSpaceOnUse" id="gradient7" r="819.2" spreadMethod="pad">
      <stop offset="0.0" stop-color="#605645"/>
      <stop offset="1.0" stop-color="#3e382d"/>
    </radialGradient>
    <radialGradient cx="0" cy="0" gradientTransform="matrix(0.0154, 0.0, 0.0, 0.0154, 7.85, -32.9)" gradientUnits="userSpaceOnUse" id="gradient8" r="819.2" spreadMethod="pad">
      <stop offset="0.0" stop-color="#645a48"/>
      <stop offset="1.0" stop-color="#3c362b"/>
    </radialGradient>
    <radialGradient cx="0" cy="0" gradientTransform="matrix(0.0106, 0.0, 0.0, 0.0106, 10.5, -34.1)" gradientUnits="userSpaceOnUse" id="gradient9" r="819.2" spreadMethod="pad">
      <stop offset="0.0" stop-color="#ff9a00"/>
      <stop offset="1.0" stop-color="#ff9700"/>
    </radialGradient>
    <radialGradient cx="0" cy="0" gradientTransform="matrix(0.0028, 0.0, 0.0, 0.0028, 18.95, -35.8)" gradientUnits="userSpaceOnUse" id="gradient10" r="819.2" spreadMethod="pad">
      <stop offset="0.0" stop-color="#ffffff"/>
      <stop offset="1.0" stop-color="#c2c2c2"/>
    </radialGradient>
    <radialGradient cx="0" cy="0" gradientTransform="matrix(0.0096, 0.0, 0.0, 0.0096, 12.4, -32.05)" gradientUnits="userSpaceOnUse" id="gradient11" r="819.2" spreadMethod="pad">
      <stop offset="0.0" stop-color="#ff9100"/>
      <stop offset="1.0" stop-color="#f07d00"/>
    </radialGradient>
    <radialGradient cx="0" cy="0" gradientTransform="matrix(0.0048, 0.0, 0.0, 0.0048, 19.1, -39.85)" gradientUnits="userSpaceOnUse" id="gradient12" r="819.2" spreadMethod="pad">
      <stop offset="0.0" stop-color="#ffffff"/>
      <stop offset="1.0" stop-color="#b8b8b8"/>
    </radialGradient>
    <radialGradient cx="0" cy="0" gradientTransform="matrix(0.0045, 0.0, 0.0, 0.0045, 7.95, -40.25)" gradientUnits="userSpaceOnUse" id="gradient13" r="819.2" spreadMethod="pad">
      <stop offset="0.0" stop-color="#ffbd00"/>
      <stop offset="1.0" stop-color="#b35a00"/>
    </radialGradient>
    <radialGradient cx="0" cy="0" gradientTransform="matrix(0.0073, 0.0, 0.0, 0.0073, 1.95, -37.15)" gradientUnits="userSpaceOnUse" id="gradient14" r="819.2" spreadMethod="pad">
      <stop offset="0.0" stop-color="#ffe080"/>
      <stop offset="1.0" stop-color="#bc884e"/>
    </radialGradient>
    <radialGradient cx="0" cy="0" gradientTransform="matrix(0.0028, 0.0, 0.0, 0.0028, 9.05, -39.05)" gradientUnits="userSpaceOnUse" id="gradient15" r="819.2" spreadMethod="pad">
      <stop offset="0.0" stop-color="#ffc300"/>
      <stop offset="1.0" stop-color="#e67300"/>
    </radialGradient>
    <radialGradient cx="0" cy="0" gradientTransform="matrix(0.0111, 0.0, 0.0, 0.0111, 10.95, -30.9)" gradientUnits="userSpaceOnUse" id="gradient16" r="819.2" spreadMethod="pad">
      <stop offset="0.0" stop-color="#635948"/>
      <stop offset="1.0" stop-color="#393429"/>
    </radialGradient>
    <radialGradient cx="0" cy="0" gradientTransform="matrix(0.0111, 0.0, 0.0, 0.0111, 7.65, -33.0)" gradientUnits="userSpaceOnUse" id="gradient17" r="819.2" spreadMethod="pad">
      <stop offset="0.0" stop-color="#403a2f"/>
      <stop offset="1.0" stop-color="#393429"/>
    </radialGradient>
    <radialGradient cx="0" cy="0" gradientTransform="matrix(0.0216, 0.0, 0.0, 0.0216, 0.7, -32.6)" gradientUnits="userSpaceOnUse" id="gradient18" r="819.2" spreadMethod="pad">
      <stop offset="0.0" stop-color="#685f5f"/>
      <stop offset="1.0" stop-color="#494242"/>
    </radialGradient>
    <radialGradient cx="0" cy="0" gradientTransform="matrix(0.0128, 0.0, 0.0, 0.0128, 3.65, -23.1)" gradientUnits="userSpaceOnUse" id="gradient19" r="819.2" spreadMethod="pad">
      <stop offset="0.0" stop-color="#4e4747"/>
      <stop offset="1.0" stop-color="#121111"/>
    </radialGradient>
    <radialGradient cx="0" cy="0" gradientTransform="matrix(0.0175, 0.0, 0.0, 0.0175, 1.55, -17.9)" gradientUnits="userSpaceOnUse" id="gradient20" r="819.2" spreadMethod="pad">
      <stop offset="0.0" stop-color="#14120e"/>
      <stop offset="1.0" stop-color="#0c0b09"/>
    </radialGradient>
    <radialGradient cx="0" cy="0" gradientTransform="matrix(0.0071, 0.0, 0.0, 0.0071, 5.35, -29.95)" gradientUnits="userSpaceOnUse" id="gradient21" r="819.2" spreadMethod="pad">
      <stop offset="0.0" stop-color="#887c7c"/>
      <stop offset="1.0" stop-color="#494343"/>
    </radialGradient>
    <radialGradient cx="0" cy="0" gradientTransform="matrix(0.0083, 0.0, 0.0, 0.0083, 13.5, -27.95)" gradientUnits="userSpaceOnUse" id="gradient22" r="819.2" spreadMethod="pad">
      <stop offset="0.0" stop-color="#857a7a"/>
      <stop offset="1.0" stop-color="#5b5353"/>
    </radialGradient>
    <radialGradient cx="0" cy="0" gradientTransform="matrix(0.0063, 0.0, 0.0, 0.0063, 21.15, -32.9)" gradientUnits="userSpaceOnUse" id="gradient23" r="819.2" spreadMethod="pad">
      <stop offset="0.0" stop-color="#ffcc00"/>
      <stop offset="1.0" stop-color="#da8400"/>
    </radialGradient>
    <radialGradient cx="0" cy="0" gradientTransform="matrix(0.0245, 0.0, 0.0, 0.0245, 11.15, -9.9)" gradientUnits="userSpaceOnUse" id="gradient24" r="819.2" spreadMethod="pad">
      <stop offset="0.0" stop-color="#211e18"/>
      <stop offset="1.0" stop-color="#0c0b09"/>
    </radialGradient>
    <radialGradient cx="0" cy="0" gradientTransform="matrix(0.0046, 0.0, 0.0, 0.0046, 16.25, -19.85)" gradientUnits="userSpaceOnUse" id="gradient25" r="819.2" spreadMethod="pad">
      <stop offset="0.0" stop-color="#414c7a"/>
      <stop offset="1.0" stop-color="#20263d"/>
    </radialGradient>
    <radialGradient cx="0" cy="0" gradientTransform="matrix(0.0063, 0.0, 0.0, 0.0063, 13.9, -19.1)" gradientUnits="userSpaceOnUse" id="gradient26" r="819.2" spreadMethod="pad">
      <stop offset="0.0" stop-color="#ffdc00"/>
      <stop offset="1.0" stop-color="#ff9700"/>
    </radialGradient>
    <radialGradient cx="0" cy="0" gradientTransform="matrix(0.0064, 0.0, 0.0, 0.0064, 18.25, -15.85)" gradientUnits="userSpaceOnUse" id="gradient27" r="819.2" spreadMethod="pad">
      <stop offset="0.0" stop-color="#ffd479"/>
      <stop offset="1.0" stop-color="#c78f52"/>
    </radialGradient>
    <radialGradient cx="0" cy="0" gradientTransform="matrix(0.0136, 0.0, 0.0, 0.0136, 8.0, -25.25)" gradientUnits="userSpaceOnUse" id="gradient28" r="819.2" spreadMethod="pad">
      <stop offset="0.0" stop-color="#ffdc00"/>
      <stop offset="1.0" stop-color="#ffa700"/>
    </radialGradient>
    <radialGradient cx="0" cy="0" gradientTransform="matrix(0.0212, 0.0, 0.0, 0.0212, 10.55, -18.65)" gradientUnits="userSpaceOnUse" id="gradient29" r="819.2" spreadMethod="pad">
      <stop offset="0.0" stop-color="#414d7b"/>
      <stop offset="1.0" stop-color="#2b3352"/>
    </radialGradient>
    <radialGradient cx="0" cy="0" gradientTransform="matrix(0.002, 0.0, 0.0, 0.002, 2.25, -20.5)" gradientUnits="userSpaceOnUse" id="gradient30" r="819.2" spreadMethod="pad">
      <stop offset="0.0" stop-color="#2c3453"/>
      <stop offset="1.0" stop-color="#252c46"/>
    </radialGradient>
    <radialGradient cx="0" cy="0" gradientTransform="matrix(0.0097, 0.0, 0.0, 0.0097, 3.55, -16.2)" gradientUnits="userSpaceOnUse" id="gradient31" r="819.2" spreadMethod="pad">
      <stop offset="0.0" stop-color="#ffd500"/>
      <stop offset="1.0" stop-color="#bb6900"/>
    </radialGradient>
    <radialGradient cx="0" cy="0" gradientTransform="matrix(0.0093, 0.0, 0.0, 0.0093, 3.25, -16.1)" gradientUnits="userSpaceOnUse" id="gradient32" r="819.2" spreadMethod="pad">
      <stop offset="0.0" stop-color="#3f4b78"/>
      <stop offset="1.0" stop-color="#262d49"/>
    </radialGradient>
    <radialGradient cx="0" cy="0" gradientTransform="matrix(0.0177, 0.0, 0.0, 0.0177, 6.65, -16.5)" gradientUnits="userSpaceOnUse" id="gradient33" r="819.2" spreadMethod="pad">
      <stop offset="0.0" stop-color="#414d7c"/>
      <stop offset="1.0" stop-color="#232942"/>
    </radialGradient>
    <radialGradient cx="0" cy="0" gradientTransform="matrix(0.005, 0.0, 0.0, 0.005, 12.15, -4.4)" gradientUnits="userSpaceOnUse" id="gradient34" r="819.2" spreadMethod="pad">
      <stop offset="0.0" stop-color="#08090e"/>
      <stop offset="1.0" stop-color="#08090e"/>
    </radialGradient>
    <radialGradient cx="0" cy="0" gradientTransform="matrix(0.0117, 0.0, 0.0, 0.0117, 17.35, -6.5)" gradientUnits="userSpaceOnUse" id="gradient35" r="819.2" spreadMethod="pad">
      <stop offset="0.0" stop-color="#424e7c"/>
      <stop offset="1.0" stop-color="#1e2338"/>
    </radialGradient>
    <radialGradient cx="0" cy="0" gradientTransform="matrix(0.0091, 0.0, 0.0, 0.0091, 0.85, -7.75)" gradientUnits="userSpaceOnUse" id="gradient36" r="819.2" spreadMethod="pad">
      <stop offset="0.0" stop-color="#3e4976"/>
      <stop offset="1.0" stop-color="#20263d"/>
    </radialGradient>
    <radialGradient cx="0" cy="0" gradientTransform="matrix(0.0119, 0.0, 0.0, 0.0119, -2.75, -2.45)" gradientUnits="userSpaceOnUse" id="gradient37" r="819.2" spreadMethod="pad">
      <stop offset="0.0" stop-color="#39436c"/>
      <stop offset="1.0" stop-color="#1f253c"/>
    </radialGradient>
    <radialGradient cx="0" cy="0" gradientTransform="matrix(0.0113, 0.0, 0.0, 0.0113, 17.0, 1.05)" gradientUnits="userSpaceOnUse" id="gradient38" r="819.2" spreadMethod="pad">
      <stop offset="0.0" stop-color="#3a456f"/>
      <stop offset="1.0" stop-color="#232942"/>
    </radialGradient>
    <radialGradient cx="0" cy="0" gradientTransform="matrix(0.0069, 0.0, 0.0, 0.0069, 29.25, -18.65)" gradientUnits="userSpaceOnUse" id="gradient39" r="819.2" spreadMethod="pad">
      <stop offset="0.0" stop-color="#e2e2e2"/>
      <stop offset="1.0" stop-color="#808080"/>
    </radialGradient>
    <radialGradient cx="0" cy="0" gradientTransform="matrix(0.0028, 0.0, 0.0, 0.0028, 30.15, -19.55)" gradientUnits="userSpaceOnUse" id="gradient40" r="819.2" spreadMethod="pad">
      <stop offset="0.0" stop-color="#ff9900"/>
      <stop offset="1.0" stop-color="#ed7f00"/>
    </radialGradient>
    <radialGradient cx="0" cy="0" gradientTransform="matrix(0.0015, 0.0, 0.0, 0.0015, 30.35, -22.35)" gradientUnits="userSpaceOnUse" id="gradient41" r="819.2" spreadMethod="pad">
      <stop offset="0.0" stop-color="#db9e5a"/>
      <stop offset="1.0" stop-color="#cb9253"/>
    </radialGradient>
    <radialGradient cx="0" cy="0" gradientTransform="matrix(0.0111, 0.0, 0.0, 0.0111, 23.05, -15.3)" gradientUnits="userSpaceOnUse" id="gradient42" r="819.2" spreadMethod="pad">
      <stop offset="0.0" stop-color="#615746"/>
      <stop offset="1.0" stop-color="#3c362b"/>
    </radialGradient>
    <radialGradient cx="0" cy="0" gradientTransform="matrix(0.0064, 0.0, 0.0, 0.0064, 21.0, 15.3)" gradientUnits="userSpaceOnUse" id="gradient43" r="819.2" spreadMethod="pad">
      <stop offset="0.0" stop-color="#736854"/>
      <stop offset="1.0" stop-color="#605746"/>
    </radialGradient>
    <radialGradient cx="0" cy="0" gradientTransform="matrix(0.0116, 0.0, 0.0, 0.0116, 17.15, 6.35)" gradientUnits="userSpaceOnUse" id="gradient44" r="819.2" spreadMethod="pad">
      <stop offset="0.0" stop-color="#3a446d"/>
      <stop offset="1.0" stop-color="#222840"/>
    </radialGradient>
    <radialGradient cx="0" cy="0" gradientTransform="matrix(0.0065, 0.0, 0.0, 0.0065, 21.45, 15.85)" gradientUnits="userSpaceOnUse" id="gradient45" r="819.2" spreadMethod="pad">
      <stop offset="0.0" stop-color="#a99a9a"/>
      <stop offset="1.0" stop-color="#6f6666"/>
    </radialGradient>
    <radialGradient cx="0" cy="0" gradientTransform="matrix(0.0036, 0.0, 0.0, 0.0036, 24.15, 17.05)" gradientUnits="userSpaceOnUse" id="gradient46" r="819.2" spreadMethod="pad">
      <stop offset="0.0" stop-color="#524b4b"/>
      <stop offset="1.0" stop-color="#504949"/>
    </radialGradient>
    <radialGradient cx="0" cy="0" gradientTransform="matrix(0.0036, 0.0, 0.0, 0.0036, 23.6, 16.4)" gradientUnits="userSpaceOnUse" id="gradient47" r="819.2" spreadMethod="pad">
      <stop offset="0.0" stop-color="#383228"/>
      <stop offset="1.0" stop-color="#373228"/>
    </radialGradient>
    <radialGradient cx="0" cy="0" gradientTransform="matrix(0.0049, 0.0, 0.0, 0.0049, -3.4, -39.25)" gradientUnits="userSpaceOnUse" id="gradient48" r="819.2" spreadMethod="pad">
      <stop offset="0.0" stop-color="#f9b467"/>
      <stop offset="1.0" stop-color="#8f683b"/>
    </radialGradient>
    <radialGradient cx="0" cy="0" gradientTransform="matrix(0.0066, 0.0, 0.0, 0.0066, -4.05, -37.0)" gradientUnits="userSpaceOnUse" id="gradient49" r="819.2" spreadMethod="pad">
      <stop offset="0.0" stop-color="#ffd278"/>
      <stop offset="1.0" stop-color="#a87945"/>
    </radialGradient>
    <radialGradient cx="0" cy="0" gradientTransform="matrix(0.0061, 0.0, 0.0, 0.0061, -3.4, -37.4)" gradientUnits="userSpaceOnUse" id="gradient50" r="819.2" spreadMethod="pad">
      <stop offset="0.0" stop-color="#ffb700"/>
      <stop offset="1.0" stop-color="#c46300"/>
    </radialGradient>
    <radialGradient cx="0" cy="0" gradientTransform="matrix(0.0059, 0.0, 0.0, 0.0059, -13.2, -35.15)" gradientUnits="userSpaceOnUse" id="gradient51" r="819.2" spreadMethod="pad">
      <stop offset="0.0" stop-color="#fff28b"/>
      <stop offset="1.0" stop-color="#a77845"/>
    </radialGradient>
    <radialGradient cx="0" cy="0" gradientTransform="matrix(0.0063, 0.0, 0.0, 0.0063, -8.9, -35.95)" gradientUnits="userSpaceOnUse" id="gradient52" r="819.2" spreadMethod="pad">
      <stop offset="0.0" stop-color="#5c5343"/>
      <stop offset="1.0" stop-color="#3b362b"/>
    </radialGradient>
    <radialGradient cx="0" cy="0" gradientTransform="matrix(0.0043, 0.0, 0.0, 0.0043, -13.0, -33.85)" gradientUnits="userSpaceOnUse" id="gradient53" r="819.2" spreadMethod="pad">
      <stop offset="0.0" stop-color="#fff08a"/>
      <stop offset="1.0" stop-color="#af7e48"/>
    </radialGradient>
    <radialGradient cx="0" cy="0" gradientTransform="matrix(0.0039, 0.0, 0.0, 0.0039, -3.3, -35.05)" gradientUnits="userSpaceOnUse" id="gradient54" r="819.2" spreadMethod="pad">
      <stop offset="0.0" stop-color="#c68f52"/>
      <stop offset="1.0" stop-color="#584024"/>
    </radialGradient>
    <radialGradient cx="0" cy="0" gradientTransform="matrix(0.0039, 0.0, 0.0, 0.0039, -3.05, -12.7)" gradientUnits="userSpaceOnUse" id="gradient55" r="819.2" spreadMethod="pad">
      <stop offset="0.0" stop-color="#20263c"/>
      <stop offset="1.0" stop-color="#1f253c"/>
    </radialGradient>
    <radialGradient cx="0" cy="0" gradientTransform="matrix(0.0116, 0.0, 0.0, 0.0116, -4.25, 1.8)" gradientUnits="userSpaceOnUse" id="gradient56" r="819.2" spreadMethod="pad">
      <stop offset="0.0" stop-color="#38436a"/>
      <stop offset="1.0" stop-color="#1e2339"/>
    </radialGradient>
    <radialGradient cx="0" cy="0" gradientTransform="matrix(0.0049, 0.0, 0.0, 0.0049, -7.85, -3.9)" gradientUnits="userSpaceOnUse" id="gradient57" r="819.2" spreadMethod="pad">
      <stop offset="0.0" stop-color="#222840"/>
      <stop offset="1.0" stop-color="#141826"/>
    </radialGradient>
    <radialGradient cx="0" cy="0" gradientTransform="matrix(0.0065, 0.0, 0.0, 0.0065, -3.8, 7.8)" gradientUnits="userSpaceOnUse" id="gradient58" r="819.2" spreadMethod="pad">
      <stop offset="0.0" stop-color="#756a55"/>
      <stop offset="1.0" stop-color="#726753"/>
    </radialGradient>
    <radialGradient cx="0" cy="0" gradientTransform="matrix(0.0066, 0.0, 0.0, 0.0066, -3.95, 8.4)" gradientUnits="userSpaceOnUse" id="gradient59" r="819.2" spreadMethod="pad">
      <stop offset="0.0" stop-color="#ac9d9d"/>
      <stop offset="1.0" stop-color="#a79898"/>
    </radialGradient>
    <radialGradient cx="0" cy="0" gradientTransform="matrix(0.004, 0.0, 0.0, 0.004, -5.3, 12.45)" gradientUnits="userSpaceOnUse" id="gradient60" r="819.2" spreadMethod="pad">
      <stop offset="0.0" stop-color="#625959"/>
      <stop offset="1.0" stop-color="#5e5656"/>
    </radialGradient>
    <radialGradient cx="0" cy="0" gradientTransform="matrix(0.004, 0.0, 0.0, 0.004, -5.05, 11.6)" gradientUnits="userSpaceOnUse" id="gradient61" r="819.2" spreadMethod="pad">
      <stop offset="0.0" stop-color="#433c30"/>
      <stop offset="1.0" stop-color="#403a2e"/>
    </radialGradient>
  </defs>
</svg>
