<?xml version="1.0" encoding="UTF-8" standalone="no"?>
<svg xmlns:ffdec="https://www.free-decompiler.com/flash" xmlns:xlink="http://www.w3.org/1999/xlink" ffdec:objectType="shape" height="63.45px" width="34.85px" xmlns="http://www.w3.org/2000/svg">
  <g transform="matrix(1.0, 0.0, 0.0, 1.0, 8.95, 62.15)">
    <path d="M11.05 -59.85 Q9.6 -60.8 9.1 -60.8 L7.75 -60.85 Q7.9 -61.75 8.65 -62.1 L10.0 -62.15 10.9 -61.45 11.05 -59.85" fill="url(#gradient0)" fill-rule="evenodd" stroke="none"/>
    <path d="M7.75 -60.85 L9.1 -60.8 Q9.6 -60.8 11.05 -59.85 L11.7 -59.4 11.95 -59.2 Q12.45 -57.85 12.45 -56.85 L11.75 -54.5 Q10.4 -51.4 10.25 -51.6 L8.4 -50.3 8.15 -50.1 7.9 -50.0 7.55 -49.85 Q4.65 -48.1 2.65 -49.95 L2.4 -50.35 2.25 -50.5 2.6 -51.0 Q7.2 -55.65 1.4 -56.35 4.4 -61.3 7.75 -60.85" fill="url(#gradient1)" fill-rule="evenodd" stroke="none"/>
    <path d="M1.4 -56.35 Q7.2 -55.65 2.6 -51.0 L2.25 -50.5 Q1.3 -49.65 0.45 -47.8 L-1.25 -43.7 Q-3.9 -37.4 -2.95 -29.9 -5.95 -36.35 -4.5 -48.1 -3.55 -53.9 1.4 -56.35" fill="url(#gradient2)" fill-rule="evenodd" stroke="none"/>
    <path d="M2.25 -50.5 L2.4 -50.35 2.25 -50.1 2.25 -48.5 Q2.15 -47.85 4.1 -46.7 4.2 -46.15 10.75 -45.4 L12.6 -44.85 14.2 -44.9 Q18.5 -40.2 13.45 -37.6 L13.25 -37.5 13.15 -37.45 13.2 -37.4 Q13.35 -36.5 11.85 -34.8 L10.5 -34.0 7.5 -32.95 6.6 -33.0 5.95 -33.35 Q6.85 -35.35 2.35 -38.85 L1.9 -39.55 -1.25 -43.7 0.45 -47.8 Q1.3 -49.65 2.25 -50.5 M9.75 -49.15 L10.85 -48.15 9.0 -48.85 9.2 -49.0 9.75 -49.15 M15.45 -30.85 L15.7 -29.75 15.95 -27.95 15.2 -26.4 13.25 -25.0 12.75 -26.7 12.2 -27.5 12.2 -31.0 11.95 -33.5 12.6 -33.95 12.75 -33.15 15.45 -30.85 M-1.4 -29.45 L-1.8 -30.35 -1.8 -31.7 -1.45 -33.6 -0.55 -35.8 -0.5 -35.85 0.35 -36.9 1.7 -38.15 Q2.8 -32.7 7.55 -32.3 L7.75 -29.4 8.35 -26.7 8.35 -25.95 8.45 -23.65 7.15 -23.45 5.2 -23.5 Q3.4 -23.05 1.7 -26.7 L-1.4 -29.45" fill="url(#gradient3)" fill-rule="evenodd" stroke="none"/>
    <path d="M12.45 -56.85 Q12.45 -57.85 11.95 -59.2 L11.7 -59.4 11.95 -59.35 13.1 -59.05 14.0 -58.85 14.9 -57.8 16.05 -56.35 16.35 -55.55 16.65 -54.4 Q17.4 -53.95 16.7 -49.9 L15.35 -47.65 16.05 -50.0 15.85 -52.45 15.6 -52.85 15.2 -53.45 14.65 -54.45 14.15 -54.85 13.15 -55.55 13.15 -56.15 12.45 -56.85" fill="url(#gradient4)" fill-rule="evenodd" stroke="none"/>
    <path d="M10.25 -51.6 Q10.4 -51.4 11.75 -54.5 L12.45 -56.85 13.15 -56.15 13.15 -55.55 12.9 -53.6 12.4 -52.5 11.95 -51.6 Q10.2 -49.35 10.1 -49.65 L9.2 -49.0 9.0 -48.85 8.75 -48.7 8.75 -48.9 9.0 -49.1 9.05 -49.3 9.9 -50.4 10.25 -51.6" fill="url(#gradient5)" fill-rule="evenodd" stroke="none"/>
    <path d="M8.4 -50.3 L10.25 -51.6 9.9 -50.4 9.05 -49.3 9.15 -50.3 8.4 -50.3 M10.1 -49.65 L9.75 -49.15 9.2 -49.0 10.1 -49.65" fill="url(#gradient6)" fill-rule="evenodd" stroke="none"/>
    <path d="M8.15 -50.1 L8.4 -50.3 9.15 -50.3 9.05 -49.3 9.0 -49.1 8.15 -50.1" fill="url(#gradient7)" fill-rule="evenodd" stroke="none"/>
    <path d="M11.95 -59.35 L12.2 -59.45 12.95 -59.3 13.1 -59.05 11.95 -59.35" fill="url(#gradient8)" fill-rule="evenodd" stroke="none"/>
    <path d="M14.9 -57.8 L15.95 -56.95 16.4 -55.8 16.35 -55.55 16.05 -56.35 14.9 -57.8 M13.15 -55.55 L14.15 -54.85 13.75 -54.2 14.05 -53.65 14.05 -53.6 13.1 -53.35 12.9 -53.6 13.15 -55.55" fill="url(#gradient9)" fill-rule="evenodd" stroke="none"/>
    <path d="M16.4 -55.8 L16.75 -55.15 16.65 -54.4 16.35 -55.55 16.4 -55.8 M15.6 -52.85 L14.4 -52.3 Q13.2 -52.2 13.0 -52.6 L13.1 -53.35 14.05 -53.6 14.35 -53.3 14.95 -53.3 15.2 -53.45 15.6 -52.85" fill="url(#gradient10)" fill-rule="evenodd" stroke="none"/>
    <path d="M13.0 -52.6 L12.4 -52.5 12.9 -53.6 13.1 -53.35 13.0 -52.6" fill="url(#gradient11)" fill-rule="evenodd" stroke="none"/>
    <path d="M14.65 -54.45 L15.2 -53.45 14.95 -53.3 14.35 -53.3 14.05 -53.6 14.05 -53.65 14.65 -54.45" fill="url(#gradient12)" fill-rule="evenodd" stroke="none"/>
    <path d="M14.15 -54.85 L14.65 -54.45 14.05 -53.65 13.75 -54.2 14.15 -54.85" fill="url(#gradient13)" fill-rule="evenodd" stroke="none"/>
    <path d="M2.4 -50.35 L2.65 -49.95 2.65 -49.8 2.45 -50.1 2.25 -50.1 2.4 -50.35" fill="url(#gradient14)" fill-rule="evenodd" stroke="none"/>
    <path d="M2.65 -49.95 Q4.65 -48.1 7.55 -49.85 L7.55 -49.15 7.55 -48.85 7.5 -47.45 7.5 -47.3 Q3.15 -48.25 2.65 -49.8 L2.65 -49.95" fill="url(#gradient15)" fill-rule="evenodd" stroke="none"/>
    <path d="M12.6 -45.35 L14.2 -44.9 12.6 -44.85 10.75 -45.4 Q4.2 -46.15 4.1 -46.7 2.15 -47.85 2.25 -48.5 L2.25 -50.1 2.45 -50.1 2.65 -49.8 Q3.15 -48.25 7.5 -47.3 L8.55 -47.1 8.6 -47.1 8.75 -47.05 8.85 -47.05 8.95 -47.0 9.05 -47.0 9.15 -46.95 9.4 -46.9 10.7 -46.4 11.55 -45.85 11.65 -45.7 12.45 -45.4 12.6 -45.35" fill="url(#gradient16)" fill-rule="evenodd" stroke="none"/>
    <path d="M7.9 -50.0 L8.15 -50.1 9.0 -49.1 8.75 -48.9 8.25 -48.8 7.9 -50.0" fill="url(#gradient17)" fill-rule="evenodd" stroke="none"/>
    <path d="M7.55 -49.85 L7.9 -50.0 8.25 -48.8 7.55 -49.15 7.55 -49.85" fill="url(#gradient18)" fill-rule="evenodd" stroke="none"/>
    <path d="M10.85 -48.15 L11.4 -47.55 12.6 -45.35 12.45 -45.4 11.65 -46.1 11.5 -46.3 Q8.85 -47.9 8.85 -48.15 L7.6 -48.85 7.55 -48.85 7.55 -49.15 8.25 -48.8 8.75 -48.9 8.75 -48.7 9.0 -48.85 10.85 -48.15" fill="url(#gradient19)" fill-rule="evenodd" stroke="none"/>
    <path d="M9.4 -46.9 L9.15 -46.95 9.05 -47.0 8.95 -47.0 8.85 -47.05 8.75 -47.05 8.6 -47.1 8.55 -47.1 7.5 -47.45 7.55 -48.85 7.6 -48.85 Q7.4 -48.35 8.65 -48.2 L9.4 -46.9" fill="url(#gradient20)" fill-rule="evenodd" stroke="none"/>
    <path d="M8.55 -47.1 L7.5 -47.3 7.5 -47.45 8.55 -47.1" fill="url(#gradient21)" fill-rule="evenodd" stroke="none"/>
    <path d="M11.5 -46.3 L11.55 -45.85 10.7 -46.4 9.4 -46.9 8.65 -48.2 Q7.4 -48.35 7.6 -48.85 L8.85 -48.15 Q8.85 -47.9 11.5 -46.3" fill="url(#gradient22)" fill-rule="evenodd" stroke="none"/>
    <path d="M11.65 -46.1 L11.65 -45.7 11.55 -45.85 11.5 -46.3 11.65 -46.1" fill="url(#gradient23)" fill-rule="evenodd" stroke="none"/>
    <path d="M11.65 -45.7 L11.65 -46.1 12.45 -45.4 11.65 -45.7 M13.25 -37.5 L13.2 -37.2 13.2 -37.4 13.15 -37.45 13.25 -37.5" fill="url(#gradient24)" fill-rule="evenodd" stroke="none"/>
    <path d="M13.45 -37.6 L13.7 -36.8 13.45 -35.35 13.25 -34.65 12.6 -34.1 12.6 -33.95 11.95 -33.5 11.85 -34.8 Q13.35 -36.5 13.2 -37.4 L13.2 -37.2 13.25 -37.5 13.45 -37.6 M1.75 -39.35 L1.9 -39.55 2.35 -38.85 Q6.85 -35.35 5.95 -33.35 L6.6 -33.0 7.5 -32.95 7.55 -32.3 Q2.8 -32.7 1.7 -38.15 L1.7 -38.2 1.75 -39.35" fill="url(#gradient25)" fill-rule="evenodd" stroke="none"/>
    <path d="M-1.8 -31.7 L-2.65 -30.2 -2.8 -31.7 -2.35 -33.2 -1.55 -34.55 -1.45 -34.5 -1.35 -34.95 Q0.35 -39.3 1.75 -39.35 L1.7 -38.2 0.9 -37.9 Q-0.4 -36.7 -0.5 -35.85 L-0.55 -35.8 -1.45 -33.6 -1.8 -31.7 M-1.55 -34.6 L-1.5 -34.65 -1.45 -34.55 -1.55 -34.6" fill="url(#gradient26)" fill-rule="evenodd" stroke="none"/>
    <path d="M-1.55 -34.55 L-1.55 -34.6 -1.45 -34.55 -1.5 -34.65 -1.35 -34.95 -1.45 -34.5 -1.55 -34.55 M1.7 -38.2 L1.7 -38.15 0.35 -36.9 -0.5 -35.85 Q-0.4 -36.7 0.9 -37.9 L1.7 -38.2" fill="url(#gradient27)" fill-rule="evenodd" stroke="none"/>
    <path d="M7.55 -32.3 L7.5 -32.95 10.5 -34.0 11.85 -34.8 11.95 -33.5 12.2 -31.0 12.2 -27.5 12.2 -26.9 12.05 -26.7 Q12.15 -26.05 11.15 -25.7 L11.05 -25.35 9.6 -25.25 9.15 -24.75 8.35 -25.95 8.35 -26.7 7.75 -29.4 7.55 -32.3" fill="url(#gradient28)" fill-rule="evenodd" stroke="none"/>
    <path d="M13.45 -35.35 L14.65 -32.85 15.2 -32.05 16.0 -30.75 16.85 -29.5 17.4 -27.95 17.45 -27.5 17.15 -28.2 16.75 -29.3 16.25 -29.9 16.2 -29.9 16.0 -30.4 15.45 -30.85 12.75 -33.15 12.6 -33.95 12.6 -34.1 13.25 -34.65 13.45 -35.35" fill="url(#gradient29)" fill-rule="evenodd" stroke="none"/>
    <path d="M15.7 -29.75 L15.95 -29.65 17.2 -27.75 17.6 -26.3 17.6 -24.95 17.2 -23.25 17.2 -22.9 Q16.55 -22.2 15.9 -22.05 L15.25 -22.5 14.65 -22.7 14.25 -22.65 13.9 -22.65 13.6 -22.65 13.55 -24.25 13.25 -25.0 15.2 -26.4 15.95 -27.95 15.7 -29.75" fill="url(#gradient30)" fill-rule="evenodd" stroke="none"/>
    <path d="M8.45 -23.65 L8.35 -25.95 9.15 -24.75 9.6 -25.25 11.05 -25.35 11.15 -25.7 Q12.15 -26.05 12.05 -26.7 L12.2 -26.9 12.2 -27.5 12.75 -26.7 13.25 -25.0 13.55 -24.25 13.6 -22.65 13.5 -19.4 13.65 -16.95 12.6 -16.7 Q10.15 -16.55 10.45 -16.95 L10.05 -18.95 Q9.2 -19.85 8.45 -23.65" fill="url(#gradient31)" fill-rule="evenodd" stroke="none"/>
    <path d="M-2.15 -18.9 L-1.15 -20.45 -1.15 -20.75 Q-1.85 -22.95 -1.4 -29.45 L1.7 -26.7 Q3.4 -23.05 5.2 -23.5 L4.4 -21.85 3.45 -20.55 2.1 -19.2 1.85 -18.7 1.4 -18.0 Q0.35 -16.55 -2.3 -18.75 L-2.15 -18.9" fill="url(#gradient32)" fill-rule="evenodd" stroke="none"/>
    <path d="M15.2 -32.05 L15.7 -31.45 16.0 -30.75 15.2 -32.05" fill="url(#gradient33)" fill-rule="evenodd" stroke="none"/>
    <path d="M17.15 -28.2 L16.6 -28.85 16.2 -29.9 16.25 -29.9 16.75 -29.3 17.15 -28.2" fill="url(#gradient34)" fill-rule="evenodd" stroke="none"/>
    <path d="M-2.35 -18.75 L-2.15 -18.9 -2.3 -18.75 -2.35 -18.75" fill="url(#gradient35)" fill-rule="evenodd" stroke="none"/>
    <path d="M-5.1 -11.45 Q-4.6 -17.15 -2.35 -18.75 L-2.3 -18.75 Q0.35 -16.55 1.4 -18.0 2.65 -15.3 -0.45 -10.3 -2.35 -8.3 -5.05 -11.4 L-5.1 -11.45" fill="url(#gradient36)" fill-rule="evenodd" stroke="none"/>
    <path d="M-5.1 -11.4 L-5.1 -11.45 -5.05 -11.4 -5.1 -11.4" fill="url(#gradient37)" fill-rule="evenodd" stroke="none"/>
    <path d="M-5.55 -7.2 L-5.1 -11.4 -5.05 -11.4 Q-2.35 -8.3 -0.45 -10.3 L-0.65 -9.5 -0.75 -9.45 -5.55 -7.2 M-1.65 -6.75 L-1.85 -6.3 -1.9 -3.85 -2.35 -2.35 Q-2.45 1.0 -6.1 -2.35 -6.65 -2.3 -6.4 -3.3 L-5.5 -4.65 -5.45 -4.8 -5.5 -5.3 -1.65 -6.75" fill="url(#gradient38)" fill-rule="evenodd" stroke="none"/>
    <path d="M17.6 -26.3 L17.95 -25.8 18.05 -24.5 18.05 -24.45 17.7 -23.55 17.2 -23.25 17.6 -24.95 17.6 -26.3" fill="url(#gradient39)" fill-rule="evenodd" stroke="none"/>
    <path d="M18.05 -24.5 L18.25 -24.05 18.35 -23.85 17.7 -23.55 18.05 -24.45 18.05 -24.5" fill="url(#gradient40)" fill-rule="evenodd" stroke="none"/>
    <path d="M18.25 -24.05 Q20.7 -21.4 20.1 -18.15 L19.5 -17.0 Q18.7 -16.15 17.35 -16.3 L16.85 -17.2 15.95 -16.85 15.65 -17.2 Q13.75 -19.35 13.9 -22.65 L14.25 -22.65 14.95 -21.85 16.05 -21.45 16.15 -21.5 15.9 -22.05 Q16.55 -22.2 17.2 -22.9 L17.2 -23.25 17.7 -23.55 18.35 -23.85 18.25 -24.05" fill="url(#gradient41)" fill-rule="evenodd" stroke="none"/>
    <path d="M14.25 -22.65 L14.65 -22.7 15.25 -22.5 16.05 -21.45 14.95 -21.85 14.25 -22.65" fill="url(#gradient42)" fill-rule="evenodd" stroke="none"/>
    <path d="M15.25 -22.5 L15.9 -22.05 16.15 -21.5 16.05 -21.45 15.25 -22.5" fill="url(#gradient43)" fill-rule="evenodd" stroke="none"/>
    <path d="M20.1 -18.15 L20.4 -15.45 20.35 -14.8 20.65 -14.5 21.0 -13.65 Q20.05 -11.45 20.2 -11.05 17.95 -9.2 16.75 -12.35 L16.75 -12.45 16.7 -12.45 16.5 -14.5 17.65 -15.15 17.35 -16.3 Q18.7 -16.15 19.5 -17.0 L20.1 -18.15 M15.95 -16.85 L15.75 -16.75 15.65 -17.2 15.95 -16.85" fill="url(#gradient44)" fill-rule="evenodd" stroke="none"/>
    <path d="M16.5 -14.5 L15.05 -13.9 15.0 -15.25 14.55 -16.2 15.75 -16.75 15.95 -16.85 16.85 -17.2 17.35 -16.3 17.65 -15.15 16.5 -14.5 M10.45 -11.9 L9.7 -11.55 9.75 -12.55 10.45 -11.9 M8.85 -13.7 L9.15 -13.85 9.65 -12.8 8.85 -13.7" fill="url(#gradient45)" fill-rule="evenodd" stroke="none"/>
    <path d="M3.45 -20.55 L2.9 -19.2 1.85 -18.7 2.1 -19.2 3.45 -20.55" fill="url(#gradient46)" fill-rule="evenodd" stroke="none"/>
    <path d="M15.05 -13.9 Q14.25 -10.55 10.45 -11.9 L9.75 -12.55 9.75 -12.65 9.65 -12.8 9.15 -13.85 Q8.85 -15.85 10.45 -16.95 10.15 -16.55 12.6 -16.7 L13.65 -16.95 14.55 -16.2 15.0 -15.25 15.05 -13.9" fill="url(#gradient47)" fill-rule="evenodd" stroke="none"/>
    <path d="M6.4 -12.95 L6.45 -13.45 6.7 -13.65 8.1 -14.25 8.4 -14.2 8.85 -13.7 9.65 -12.8 9.75 -12.65 6.4 -11.25 6.4 -12.85 6.4 -12.9 6.4 -12.95" fill="url(#gradient48)" fill-rule="evenodd" stroke="none"/>
    <path d="M6.35 -12.9 L6.4 -12.95 6.4 -12.9 6.35 -12.9" fill="url(#gradient49)" fill-rule="evenodd" stroke="none"/>
    <path d="M6.35 -12.85 L6.35 -12.9 6.4 -12.9 6.4 -12.85 6.35 -12.85" fill="url(#gradient50)" fill-rule="evenodd" stroke="none"/>
    <path d="M7.5 -10.3 L-0.15 -7.3 -1.65 -6.75 -5.5 -5.3 -5.9 -5.25 -8.95 -4.75 -5.55 -7.2 -0.75 -9.45 -0.65 -9.5 6.35 -12.85 6.4 -12.85 6.4 -11.25 7.5 -10.3" fill="url(#gradient51)" fill-rule="evenodd" stroke="none"/>
    <path d="M20.4 -15.45 Q26.2 -18.0 25.9 -13.7 L21.1 -10.4 Q19.6 -9.6 18.85 -9.55 16.2 -9.8 16.7 -12.4 L16.75 -12.35 Q17.95 -9.2 20.2 -11.05 20.05 -11.45 21.0 -13.65 L20.65 -14.5 20.35 -14.8 20.4 -15.45" fill="url(#gradient52)" fill-rule="evenodd" stroke="none"/>
    <path d="M16.7 -12.4 L16.7 -12.45 16.75 -12.45 16.75 -12.35 16.7 -12.4" fill="url(#gradient53)" fill-rule="evenodd" stroke="none"/>
    <path d="M9.7 -11.55 L9.7 -10.7 Q7.6 -9.65 7.75 -10.05 L7.7 -10.15 7.55 -10.25 7.5 -10.3 6.4 -11.25 9.75 -12.65 9.75 -12.55 9.7 -11.55" fill="url(#gradient54)" fill-rule="evenodd" stroke="none"/>
    <path d="M-0.15 -7.3 L-0.25 -6.4 Q-0.6 -6.25 -2.55 -0.45 L-3.3 0.7 -4.2 1.2 Q-8.5 2.2 -5.9 -5.25 L-5.5 -5.3 -5.45 -4.8 -5.5 -4.65 -6.4 -3.3 Q-6.65 -2.3 -6.1 -2.35 -2.45 1.0 -2.35 -2.35 L-1.9 -3.85 -1.85 -6.3 -1.65 -6.75 -0.15 -7.3" fill="url(#gradient55)" fill-rule="evenodd" stroke="none"/>
  </g>
  <defs>
    <radialGradient cx="0" cy="0" gradientTransform="matrix(0.0038, 0.0, 0.0, 0.0038, 9.45, -59.25)" gradientUnits="userSpaceOnUse" id="gradient0" r="819.2" spreadMethod="pad">
      <stop offset="0.0" stop-color="#595441"/>
      <stop offset="1.0" stop-color="#4e4838"/>
    </radialGradient>
    <radialGradient cx="0" cy="0" gradientTransform="matrix(0.0085, 0.0, 0.0, 0.0085, 6.8, -55.15)" gradientUnits="userSpaceOnUse" id="gradient1" r="819.2" spreadMethod="pad">
      <stop offset="0.0" stop-color="#625b47"/>
      <stop offset="1.0" stop-color="#302d23"/>
    </radialGradient>
    <radialGradient cx="0" cy="0" gradientTransform="matrix(0.0274, 0.0, 0.0, 0.0274, -0.15, -52.15)" gradientUnits="userSpaceOnUse" id="gradient2" r="819.2" spreadMethod="pad">
      <stop offset="0.0" stop-color="#615b46"/>
      <stop offset="1.0" stop-color="#3b372b"/>
    </radialGradient>
    <radialGradient cx="0" cy="0" gradientTransform="matrix(0.0243, 0.0, 0.0, 0.0243, 7.05, -31.8)" gradientUnits="userSpaceOnUse" id="gradient3" r="819.2" spreadMethod="pad">
      <stop offset="0.0" stop-color="#416689"/>
      <stop offset="1.0" stop-color="#283f55"/>
    </radialGradient>
    <radialGradient cx="0" cy="0" gradientTransform="matrix(0.0145, 0.0, 0.0, 0.0145, 10.15, -58.5)" gradientUnits="userSpaceOnUse" id="gradient4" r="819.2" spreadMethod="pad">
      <stop offset="0.0" stop-color="#645e49"/>
      <stop offset="1.0" stop-color="#3e3a2d"/>
    </radialGradient>
    <radialGradient cx="0" cy="0" gradientTransform="matrix(0.0074, 0.0, 0.0, 0.0074, 11.45, -54.15)" gradientUnits="userSpaceOnUse" id="gradient5" r="819.2" spreadMethod="pad">
      <stop offset="0.0" stop-color="#645d49"/>
      <stop offset="1.0" stop-color="#3f3a2d"/>
    </radialGradient>
    <radialGradient cx="0" cy="0" gradientTransform="matrix(0.0039, 0.0, 0.0, 0.0039, 9.0, -49.05)" gradientUnits="userSpaceOnUse" id="gradient6" r="819.2" spreadMethod="pad">
      <stop offset="0.0" stop-color="#c88d52"/>
      <stop offset="1.0" stop-color="#a27243"/>
    </radialGradient>
    <radialGradient cx="0" cy="0" gradientTransform="matrix(0.0025, 0.0, 0.0, 0.0025, 7.7, -50.6)" gradientUnits="userSpaceOnUse" id="gradient7" r="819.2" spreadMethod="pad">
      <stop offset="0.0" stop-color="#e3a05d"/>
      <stop offset="1.0" stop-color="#d39556"/>
    </radialGradient>
    <radialGradient cx="0" cy="0" gradientTransform="matrix(0.0049, 0.0, 0.0, 0.0049, 14.95, -56.95)" gradientUnits="userSpaceOnUse" id="gradient8" r="819.2" spreadMethod="pad">
      <stop offset="0.0" stop-color="#7c7c7c"/>
      <stop offset="1.0" stop-color="#777777"/>
    </radialGradient>
    <radialGradient cx="0" cy="0" gradientTransform="matrix(0.0031, 0.0, 0.0, 0.0031, 13.8, -55.55)" gradientUnits="userSpaceOnUse" id="gradient9" r="819.2" spreadMethod="pad">
      <stop offset="0.0" stop-color="#ffeb89"/>
      <stop offset="1.0" stop-color="#a07142"/>
    </radialGradient>
    <radialGradient cx="0" cy="0" gradientTransform="matrix(0.0037, 0.0, 0.0, 0.0037, 14.1, -53.8)" gradientUnits="userSpaceOnUse" id="gradient10" r="819.2" spreadMethod="pad">
      <stop offset="0.0" stop-color="#ffeb89"/>
      <stop offset="1.0" stop-color="#b37e49"/>
    </radialGradient>
    <radialGradient cx="0" cy="0" gradientTransform="matrix(0.0056, 0.0, 0.0, 0.0056, 9.5, -53.55)" gradientUnits="userSpaceOnUse" id="gradient11" r="819.2" spreadMethod="pad">
      <stop offset="0.0" stop-color="#928585"/>
      <stop offset="1.0" stop-color="#585050"/>
    </radialGradient>
    <radialGradient cx="0" cy="0" gradientTransform="matrix(0.0016, 0.0, 0.0, 0.0016, 14.85, -53.4)" gradientUnits="userSpaceOnUse" id="gradient12" r="819.2" spreadMethod="pad">
      <stop offset="0.0" stop-color="#ff3939"/>
      <stop offset="1.0" stop-color="#ff3939"/>
    </radialGradient>
    <radialGradient cx="0" cy="0" gradientTransform="matrix(0.0014, 0.0, 0.0, 0.0014, 14.15, -53.95)" gradientUnits="userSpaceOnUse" id="gradient13" r="819.2" spreadMethod="pad">
      <stop offset="0.0" stop-color="#932121"/>
      <stop offset="1.0" stop-color="#8b1f1f"/>
    </radialGradient>
    <radialGradient cx="0" cy="0" gradientTransform="matrix(0.0022, 0.0, 0.0, 0.0022, 2.25, -48.9)" gradientUnits="userSpaceOnUse" id="gradient14" r="819.2" spreadMethod="pad">
      <stop offset="0.0" stop-color="#0e181e"/>
      <stop offset="1.0" stop-color="#0e181e"/>
    </radialGradient>
    <radialGradient cx="0" cy="0" gradientTransform="matrix(0.0054, 0.0, 0.0, 0.0054, 5.55, -50.8)" gradientUnits="userSpaceOnUse" id="gradient15" r="819.2" spreadMethod="pad">
      <stop offset="0.0" stop-color="#eea862"/>
      <stop offset="1.0" stop-color="#d19356"/>
    </radialGradient>
    <radialGradient cx="0" cy="0" gradientTransform="matrix(0.0084, 0.0, 0.0, 0.0084, 7.5, -45.9)" gradientUnits="userSpaceOnUse" id="gradient16" r="819.2" spreadMethod="pad">
      <stop offset="0.0" stop-color="#67aed5"/>
      <stop offset="1.0" stop-color="#487994"/>
    </radialGradient>
    <radialGradient cx="0" cy="0" gradientTransform="matrix(0.0025, 0.0, 0.0, 0.0025, 7.7, -50.6)" gradientUnits="userSpaceOnUse" id="gradient17" r="819.2" spreadMethod="pad">
      <stop offset="0.0" stop-color="#eca661"/>
      <stop offset="1.0" stop-color="#df9d5c"/>
    </radialGradient>
    <radialGradient cx="0" cy="0" gradientTransform="matrix(0.0022, 0.0, 0.0, 0.0022, 7.7, -50.6)" gradientUnits="userSpaceOnUse" id="gradient18" r="819.2" spreadMethod="pad">
      <stop offset="0.0" stop-color="#e3a05d"/>
      <stop offset="1.0" stop-color="#92673c"/>
    </radialGradient>
    <radialGradient cx="0" cy="0" gradientTransform="matrix(0.005, 0.0, 0.0, 0.005, 10.6, -47.7)" gradientUnits="userSpaceOnUse" id="gradient19" r="819.2" spreadMethod="pad">
      <stop offset="0.0" stop-color="#477993"/>
      <stop offset="1.0" stop-color="#3b6379"/>
    </radialGradient>
    <radialGradient cx="0" cy="0" gradientTransform="matrix(0.0052, 0.0, 0.0, 0.0052, 9.05, -47.05)" gradientUnits="userSpaceOnUse" id="gradient20" r="819.2" spreadMethod="pad">
      <stop offset="0.0" stop-color="#a37343"/>
      <stop offset="1.0" stop-color="#92673c"/>
    </radialGradient>
    <radialGradient cx="0" cy="0" gradientTransform="matrix(0.0036, 0.0, 0.0, 0.0036, 9.05, -47.05)" gradientUnits="userSpaceOnUse" id="gradient21" r="819.2" spreadMethod="pad">
      <stop offset="0.0" stop-color="#a37343"/>
      <stop offset="1.0" stop-color="#8e643a"/>
    </radialGradient>
    <radialGradient cx="0" cy="0" gradientTransform="matrix(0.006, 0.0, 0.0, 0.006, 7.4, -47.9)" gradientUnits="userSpaceOnUse" id="gradient22" r="819.2" spreadMethod="pad">
      <stop offset="0.0" stop-color="#ffbe6f"/>
      <stop offset="1.0" stop-color="#c38a50"/>
    </radialGradient>
    <radialGradient cx="0" cy="0" gradientTransform="matrix(0.0201, 0.0, 0.0, 0.0201, 11.3, -46.25)" gradientUnits="userSpaceOnUse" id="gradient23" r="819.2" spreadMethod="pad">
      <stop offset="0.0" stop-color="#080c10"/>
      <stop offset="1.0" stop-color="#080c10"/>
    </radialGradient>
    <radialGradient cx="0" cy="0" gradientTransform="matrix(0.013, 0.0, 0.0, 0.013, 11.55, -47.15)" gradientUnits="userSpaceOnUse" id="gradient24" r="819.2" spreadMethod="pad">
      <stop offset="0.0" stop-color="#0e181e"/>
      <stop offset="1.0" stop-color="#0e181e"/>
    </radialGradient>
    <radialGradient cx="0" cy="0" gradientTransform="matrix(0.0089, 0.0, 0.0, 0.0089, 6.7, -35.15)" gradientUnits="userSpaceOnUse" id="gradient25" r="819.2" spreadMethod="pad">
      <stop offset="0.0" stop-color="#fff8ca"/>
      <stop offset="1.0" stop-color="#948c71"/>
    </radialGradient>
    <radialGradient cx="0" cy="0" gradientTransform="matrix(0.0118, 0.0, 0.0, 0.0118, -2.8, -31.7)" gradientUnits="userSpaceOnUse" id="gradient26" r="819.2" spreadMethod="pad">
      <stop offset="0.0" stop-color="#ada485"/>
      <stop offset="1.0" stop-color="#827c64"/>
    </radialGradient>
    <radialGradient cx="0" cy="0" gradientTransform="matrix(0.0066, 0.0, 0.0, 0.0066, -1.65, -34.6)" gradientUnits="userSpaceOnUse" id="gradient27" r="819.2" spreadMethod="pad">
      <stop offset="0.0" stop-color="#878068"/>
      <stop offset="1.0" stop-color="#1f1e18"/>
    </radialGradient>
    <radialGradient cx="0" cy="0" gradientTransform="matrix(0.0117, 0.0, 0.0, 0.0117, 9.2, -34.0)" gradientUnits="userSpaceOnUse" id="gradient28" r="819.2" spreadMethod="pad">
      <stop offset="0.0" stop-color="#ffc472"/>
      <stop offset="1.0" stop-color="#dc9b5a"/>
    </radialGradient>
    <radialGradient cx="0" cy="0" gradientTransform="matrix(0.0094, 0.0, 0.0, 0.0094, 13.0, -33.8)" gradientUnits="userSpaceOnUse" id="gradient29" r="819.2" spreadMethod="pad">
      <stop offset="0.0" stop-color="#5189a7"/>
      <stop offset="1.0" stop-color="#44738c"/>
    </radialGradient>
    <radialGradient cx="0" cy="0" gradientTransform="matrix(0.008, 0.0, 0.0, 0.008, 14.6, -27.75)" gradientUnits="userSpaceOnUse" id="gradient30" r="819.2" spreadMethod="pad">
      <stop offset="0.0" stop-color="#cb8f53"/>
      <stop offset="1.0" stop-color="#845d36"/>
    </radialGradient>
    <radialGradient cx="0" cy="0" gradientTransform="matrix(0.015, 0.0, 0.0, 0.015, 10.35, -26.6)" gradientUnits="userSpaceOnUse" id="gradient31" r="819.2" spreadMethod="pad">
      <stop offset="0.0" stop-color="#968989"/>
      <stop offset="1.0" stop-color="#5b5353"/>
    </radialGradient>
    <radialGradient cx="0" cy="0" gradientTransform="matrix(0.0181, 0.0, 0.0, 0.0181, -1.05, -16.4)" gradientUnits="userSpaceOnUse" id="gradient32" r="819.2" spreadMethod="pad">
      <stop offset="0.0" stop-color="#f0a962"/>
      <stop offset="1.0" stop-color="#c2894f"/>
    </radialGradient>
    <radialGradient cx="0" cy="0" gradientTransform="matrix(0.0032, 0.0, 0.0, 0.0032, 16.05, -30.4)" gradientUnits="userSpaceOnUse" id="gradient33" r="819.2" spreadMethod="pad">
      <stop offset="0.0" stop-color="#213445"/>
      <stop offset="1.0" stop-color="#1e2e3f"/>
    </radialGradient>
    <radialGradient cx="0" cy="0" gradientTransform="matrix(0.0025, 0.0, 0.0, 0.0025, 16.55, -29.85)" gradientUnits="userSpaceOnUse" id="gradient34" r="819.2" spreadMethod="pad">
      <stop offset="0.0" stop-color="#0e181e"/>
      <stop offset="1.0" stop-color="#0e181e"/>
    </radialGradient>
    <radialGradient cx="0" cy="0" gradientTransform="matrix(0.0042, 0.0, 0.0, 0.0042, -1.2, -20.6)" gradientUnits="userSpaceOnUse" id="gradient35" r="819.2" spreadMethod="pad">
      <stop offset="0.0" stop-color="#261b10"/>
      <stop offset="1.0" stop-color="#261b10"/>
    </radialGradient>
    <radialGradient cx="0" cy="0" gradientTransform="matrix(0.0121, 0.0, 0.0, 0.0121, -0.45, -18.85)" gradientUnits="userSpaceOnUse" id="gradient36" r="819.2" spreadMethod="pad">
      <stop offset="0.0" stop-color="#ffee8a"/>
      <stop offset="1.0" stop-color="#ae7b47"/>
    </radialGradient>
    <radialGradient cx="0" cy="0" gradientTransform="matrix(0.0107, 0.0, 0.0, 0.0107, -5.1, -11.7)" gradientUnits="userSpaceOnUse" id="gradient37" r="819.2" spreadMethod="pad">
      <stop offset="0.0" stop-color="#976b3e"/>
      <stop offset="1.0" stop-color="#261b10"/>
    </radialGradient>
    <radialGradient cx="0" cy="0" gradientTransform="matrix(0.0137, 0.0, 0.0, 0.0137, -5.4, -0.65)" gradientUnits="userSpaceOnUse" id="gradient38" r="819.2" spreadMethod="pad">
      <stop offset="0.0" stop-color="#776d6d"/>
      <stop offset="1.0" stop-color="#514a4a"/>
    </radialGradient>
    <radialGradient cx="0" cy="0" gradientTransform="matrix(0.0028, 0.0, 0.0, 0.0028, 17.8, -25.2)" gradientUnits="userSpaceOnUse" id="gradient39" r="819.2" spreadMethod="pad">
      <stop offset="0.0" stop-color="#c0874f"/>
      <stop offset="1.0" stop-color="#7f5934"/>
    </radialGradient>
    <radialGradient cx="0" cy="0" gradientTransform="matrix(0.003, 0.0, 0.0, 0.003, 18.5, -22.45)" gradientUnits="userSpaceOnUse" id="gradient40" r="819.2" spreadMethod="pad">
      <stop offset="0.0" stop-color="#b8824c"/>
      <stop offset="1.0" stop-color="#9b6d3f"/>
    </radialGradient>
    <radialGradient cx="0" cy="0" gradientTransform="matrix(0.0095, 0.0, 0.0, 0.0095, 16.45, -23.75)" gradientUnits="userSpaceOnUse" id="gradient41" r="819.2" spreadMethod="pad">
      <stop offset="0.0" stop-color="#ffed8a"/>
      <stop offset="1.0" stop-color="#845d36"/>
    </radialGradient>
    <radialGradient cx="0" cy="0" gradientTransform="matrix(0.0059, 0.0, 0.0, 0.0059, 16.8, -20.65)" gradientUnits="userSpaceOnUse" id="gradient42" r="819.2" spreadMethod="pad">
      <stop offset="0.0" stop-color="#6c4c2c"/>
      <stop offset="1.0" stop-color="#533b22"/>
    </radialGradient>
    <radialGradient cx="0" cy="0" gradientTransform="matrix(0.0032, 0.0, 0.0, 0.0032, 15.15, -22.7)" gradientUnits="userSpaceOnUse" id="gradient43" r="819.2" spreadMethod="pad">
      <stop offset="0.0" stop-color="#ba834c"/>
      <stop offset="1.0" stop-color="#b9824c"/>
    </radialGradient>
    <radialGradient cx="0" cy="0" gradientTransform="matrix(0.0102, 0.0, 0.0, 0.0102, 19.15, -10.65)" gradientUnits="userSpaceOnUse" id="gradient44" r="819.2" spreadMethod="pad">
      <stop offset="0.0" stop-color="#675e5e"/>
      <stop offset="1.0" stop-color="#433d3d"/>
    </radialGradient>
    <radialGradient cx="0" cy="0" gradientTransform="matrix(0.0116, 0.0, 0.0, 0.0116, 8.35, -12.9)" gradientUnits="userSpaceOnUse" id="gradient45" r="819.2" spreadMethod="pad">
      <stop offset="0.0" stop-color="#ff3a3a"/>
      <stop offset="1.0" stop-color="#d63030"/>
    </radialGradient>
    <radialGradient cx="0" cy="0" gradientTransform="matrix(0.0029, 0.0, 0.0, 0.0029, 1.75, -19.9)" gradientUnits="userSpaceOnUse" id="gradient46" r="819.2" spreadMethod="pad">
      <stop offset="0.0" stop-color="#ffc271"/>
      <stop offset="1.0" stop-color="#94683c"/>
    </radialGradient>
    <radialGradient cx="0" cy="0" gradientTransform="matrix(0.0043, 0.0, 0.0, 0.0043, 11.8, -15.0)" gradientUnits="userSpaceOnUse" id="gradient47" r="819.2" spreadMethod="pad">
      <stop offset="0.0" stop-color="#ffe485"/>
      <stop offset="1.0" stop-color="#94693d"/>
    </radialGradient>
    <radialGradient cx="0" cy="0" gradientTransform="matrix(0.0044, 0.0, 0.0, 0.0044, 8.2, -14.35)" gradientUnits="userSpaceOnUse" id="gradient48" r="819.2" spreadMethod="pad">
      <stop offset="0.0" stop-color="#ffff50"/>
      <stop offset="1.0" stop-color="#ffff50"/>
    </radialGradient>
    <radialGradient cx="0" cy="0" gradientTransform="matrix(0.0047, 0.0, 0.0, 0.0047, 7.9, -10.05)" gradientUnits="userSpaceOnUse" id="gradient49" r="819.2" spreadMethod="pad">
      <stop offset="0.0" stop-color="#ffff50"/>
      <stop offset="1.0" stop-color="#faf549"/>
    </radialGradient>
    <radialGradient cx="0" cy="0" gradientTransform="matrix(0.0178, 0.0, 0.0, 0.0178, -5.15, -6.5)" gradientUnits="userSpaceOnUse" id="gradient50" r="819.2" spreadMethod="pad">
      <stop offset="0.0" stop-color="#202020"/>
      <stop offset="1.0" stop-color="#202020"/>
    </radialGradient>
    <radialGradient cx="0" cy="0" gradientTransform="matrix(0.0178, 0.0, 0.0, 0.0178, -5.1, -6.45)" gradientUnits="userSpaceOnUse" id="gradient51" r="819.2" spreadMethod="pad">
      <stop offset="0.0" stop-color="#ffffff"/>
      <stop offset="1.0" stop-color="#ffffff"/>
    </radialGradient>
    <radialGradient cx="0" cy="0" gradientTransform="matrix(0.0072, 0.0, 0.0, 0.0072, 20.25, -12.65)" gradientUnits="userSpaceOnUse" id="gradient52" r="819.2" spreadMethod="pad">
      <stop offset="0.0" stop-color="#ffd77d"/>
      <stop offset="1.0" stop-color="#d79858"/>
    </radialGradient>
    <radialGradient cx="0" cy="0" gradientTransform="matrix(0.0027, 0.0, 0.0, 0.0027, 16.55, -13.9)" gradientUnits="userSpaceOnUse" id="gradient53" r="819.2" spreadMethod="pad">
      <stop offset="0.0" stop-color="#121010"/>
      <stop offset="1.0" stop-color="#121010"/>
    </radialGradient>
    <radialGradient cx="0" cy="0" gradientTransform="matrix(0.0044, 0.0, 0.0, 0.0044, 6.35, -11.3)" gradientUnits="userSpaceOnUse" id="gradient54" r="819.2" spreadMethod="pad">
      <stop offset="0.0" stop-color="#ded13e"/>
      <stop offset="1.0" stop-color="#dacd3d"/>
    </radialGradient>
    <radialGradient cx="0" cy="0" gradientTransform="matrix(0.0096, 0.0, 0.0, 0.0096, -5.55, -1.95)" gradientUnits="userSpaceOnUse" id="gradient55" r="819.2" spreadMethod="pad">
      <stop offset="0.0" stop-color="#ffee8b"/>
      <stop offset="1.0" stop-color="#c38950"/>
    </radialGradient>
  </defs>
</svg>
