<?xml version="1.0" encoding="UTF-8" standalone="no"?>
<svg xmlns:ffdec="https://www.free-decompiler.com/flash" xmlns:xlink="http://www.w3.org/1999/xlink" ffdec:objectType="shape" height="67.3px" width="49.4px" xmlns="http://www.w3.org/2000/svg">
  <g transform="matrix(1.0, 0.0, 0.0, 1.0, 36.75, 45.55)">
    <path d="M-9.25 -43.25 L-9.15 -42.9 -8.95 -42.2 Q-8.5 -38.65 -10.45 -37.45 L-11.8 -36.95 -13.3 -36.9 Q-21.2 -37.2 -19.35 -41.85 L-19.2 -42.05 Q-15.9 -48.4 -9.25 -43.25" fill="url(#gradient0)" fill-rule="evenodd" stroke="none"/>
    <path d="M-19.2 -42.05 L-19.35 -41.85 -19.25 -41.9 -19.2 -42.05" fill="url(#gradient1)" fill-rule="evenodd" stroke="none"/>
    <path d="M-19.35 -41.85 Q-21.2 -37.2 -13.3 -36.9 L-11.8 -36.95 -13.15 -36.7 Q-18.3 -36.15 -20.05 -39.6 L-20.05 -39.8 -20.1 -39.95 -20.05 -40.65 Q-19.55 -42.05 -19.25 -41.9 L-19.35 -41.85 M-10.45 -37.45 Q-8.5 -38.65 -8.95 -42.2 L-8.8 -42.15 -8.35 -41.6 Q-7.9 -40.25 -8.15 -40.05 -8.45 -38.35 -10.45 -37.45" fill="url(#gradient2)" fill-rule="evenodd" stroke="none"/>
    <path d="M-11.8 -36.95 L-10.45 -37.45 Q-8.45 -38.35 -8.15 -40.05 L-8.1 -39.55 -8.8 -37.2 -8.75 -36.5 -9.6 -35.35 -10.9 -34.65 -11.25 -34.45 -12.5 -34.15 Q-16.1 -33.6 -17.6 -34.65 L-18.1 -34.85 -18.2 -34.95 -18.25 -34.95 -18.3 -35.0 Q-18.95 -35.1 -19.8 -36.5 L-20.05 -39.6 Q-18.3 -36.15 -13.15 -36.7 L-11.8 -36.95" fill="url(#gradient3)" fill-rule="evenodd" stroke="none"/>
    <path d="M-17.9 -34.55 L-18.25 -34.95 -18.2 -34.95 -18.1 -34.85 -17.6 -34.65 Q-16.1 -33.6 -12.5 -34.15 -14.25 -33.1 -17.9 -34.55" fill="url(#gradient4)" fill-rule="evenodd" stroke="none"/>
    <path d="M-8.75 -36.5 Q-8.9 -36.0 -6.35 -35.6 L-5.9 -35.95 -5.85 -35.65 -7.55 -34.65 -10.35 -33.35 Q-14.2 -32.15 -13.85 -32.55 L-14.25 -32.2 -14.85 -31.8 -15.1 -31.8 Q-15.0 -31.25 -15.5 -30.8 L-15.15 -29.85 Q-17.75 -32.05 -17.9 -34.55 -14.25 -33.1 -12.5 -34.15 L-11.25 -34.45 -10.9 -34.65 -9.6 -35.35 -8.75 -36.5" fill="url(#gradient5)" fill-rule="evenodd" stroke="none"/>
    <path d="M-8.95 -42.2 L-9.15 -42.9 -6.8 -42.55 Q-4.25 -41.9 -4.1 -41.3 L-4.4 -41.35 -5.9 -40.75 -7.0 -41.7 -8.8 -42.15 -8.95 -42.2 M-14.9 -29.35 L-15.1 -29.8 -15.15 -29.85 -15.5 -30.8 Q-15.0 -31.25 -15.1 -31.8 L-14.85 -31.8 -14.25 -32.2 -13.85 -32.55 Q-14.2 -32.15 -10.35 -33.35 L-7.55 -34.65 -5.85 -35.65 -4.95 -34.7 -4.95 -34.65 -3.95 -34.2 -3.2 -33.65 -2.2 -34.05 -1.1 -33.0 -1.35 -31.75 Q-2.5 -29.65 -5.85 -28.4 L-5.9 -28.5 -3.75 -31.3 -7.3 -30.35 -8.45 -30.95 -8.2 -32.35 -8.15 -34.2 -9.8 -32.3 -10.4 -31.3 -11.8 -31.15 -12.95 -30.6 -13.5 -30.4 -13.75 -30.0 -14.7 -29.05 -14.9 -29.35" fill="url(#gradient6)" fill-rule="evenodd" stroke="none"/>
    <path d="M-4.1 -41.3 L-2.45 -40.65 -1.1 -38.8 -0.8 -38.4 -0.75 -37.8 -0.75 -36.6 -1.15 -34.95 -1.25 -34.8 -2.7 -34.3 -4.6 -35.05 -4.95 -34.7 -5.85 -35.65 -5.9 -35.95 Q-3.85 -38.15 -5.9 -40.75 L-4.4 -41.35 -4.1 -41.3" fill="url(#gradient7)" fill-rule="evenodd" stroke="none"/>
    <path d="M-8.8 -42.15 L-7.0 -41.7 -5.9 -40.75 Q-3.85 -38.15 -5.9 -35.95 L-6.35 -35.6 Q-8.9 -36.0 -8.75 -36.5 L-8.8 -37.2 -8.1 -39.55 -8.15 -40.05 Q-7.9 -40.25 -8.35 -41.6 L-8.8 -42.15" fill="url(#gradient8)" fill-rule="evenodd" stroke="none"/>
    <path d="M-9.15 -42.9 L-9.25 -43.25 Q-6.4 -46.0 -3.35 -45.05 L-2.8 -44.9 Q0.0 -43.9 -1.1 -38.8 L-2.45 -40.65 -4.1 -41.3 Q-4.25 -41.9 -6.8 -42.55 L-9.15 -42.9" fill="url(#gradient9)" fill-rule="evenodd" stroke="none"/>
    <path d="M-1.1 -38.8 Q0.0 -43.9 -2.8 -44.9 L-2.15 -44.7 -1.4 -44.15 Q0.8 -41.95 -0.2 -39.4 L-0.2 -39.35 -0.8 -38.4 -1.1 -38.8" fill="url(#gradient10)" fill-rule="evenodd" stroke="none"/>
    <path d="M-2.15 -44.7 L-0.6 -44.55 -0.05 -44.3 -0.9 -44.35 -1.4 -44.15 -2.15 -44.7 M-0.2 -39.4 L-0.1 -39.35 -0.2 -39.35 -0.2 -39.4" fill="url(#gradient11)" fill-rule="evenodd" stroke="none"/>
    <path d="M-0.05 -44.3 L1.55 -43.65 2.35 -43.0 3.0 -42.3 Q3.5 -41.6 3.55 -40.7 L3.3 -39.75 2.6 -39.15 1.45 -38.95 -0.1 -39.35 -0.2 -39.4 Q0.8 -41.95 -1.4 -44.15 L-0.9 -44.35 -0.05 -44.3" fill="url(#gradient12)" fill-rule="evenodd" stroke="none"/>
    <path d="M2.0 -38.05 L1.25 -37.55 -0.4 -37.4 -0.75 -37.8 -0.8 -38.4 -0.2 -39.35 -0.1 -39.35 1.45 -38.95 1.5 -38.6 2.0 -38.05" fill="url(#gradient13)" fill-rule="evenodd" stroke="none"/>
    <path d="M2.35 -43.0 Q4.3 -43.75 5.6 -42.75 8.25 -40.7 7.3 -39.75 L7.1 -39.3 4.9 -38.35 4.75 -39.15 3.9 -40.3 3.55 -40.7 Q3.5 -41.6 3.0 -42.3 L2.35 -43.0" fill="url(#gradient14)" fill-rule="evenodd" stroke="none"/>
    <path d="M3.3 -39.75 L3.55 -40.7 3.9 -40.3 3.35 -39.65 3.3 -39.75" fill="url(#gradient15)" fill-rule="evenodd" stroke="none"/>
    <path d="M3.1 -38.05 L2.0 -38.05 1.5 -38.6 1.45 -38.95 2.6 -39.15 3.3 -39.75 3.35 -39.65 3.45 -38.8 3.1 -38.05" fill="url(#gradient16)" fill-rule="evenodd" stroke="none"/>
    <path d="M5.6 -42.75 Q8.2 -43.6 10.2 -41.6 10.45 -39.45 7.3 -39.75 8.25 -40.7 5.6 -42.75" fill="url(#gradient17)" fill-rule="evenodd" stroke="none"/>
    <path d="M4.9 -38.35 L4.95 -37.9 4.3 -37.15 3.5 -37.15 2.8 -37.35 3.3 -37.65 3.1 -38.05 3.45 -38.8 3.35 -39.65 3.9 -40.3 4.75 -39.15 4.9 -38.35" fill="url(#gradient18)" fill-rule="evenodd" stroke="none"/>
    <path d="M-0.4 -37.4 Q2.85 -34.8 4.6 -15.25 L4.1 -17.7 3.4 -23.2 2.6 -27.15 2.5 -27.1 Q1.95 -31.55 -0.75 -34.65 L-1.15 -34.95 -0.75 -36.6 -0.75 -37.8 -0.4 -37.4 M3.25 -21.35 L3.3 -21.35 3.35 -20.95 3.25 -21.35" fill="url(#gradient19)" fill-rule="evenodd" stroke="none"/>
    <path d="M3.6 -15.85 L3.4 -16.95 3.45 -16.95 3.65 -15.9 3.6 -15.85 M3.35 -17.05 L3.15 -18.7 3.45 -17.1 3.35 -17.05 M2.2 -25.05 L1.95 -26.8 1.4 -28.0 0.9 -29.2 0.7 -29.85 0.35 -30.8 0.0 -31.85 -0.7 -32.5 -1.1 -33.0 -2.2 -34.05 Q-2.6 -34.3 -1.4 -34.65 L-1.25 -34.8 -1.15 -34.95 -0.75 -34.65 Q1.95 -31.55 2.5 -27.1 L3.3 -21.35 3.25 -21.35 2.35 -25.0 2.2 -25.05" fill="url(#gradient20)" fill-rule="evenodd" stroke="none"/>
    <path d="M-1.25 -34.8 L-1.4 -34.65 Q-2.6 -34.3 -2.2 -34.05 L-3.2 -33.65 -2.7 -34.3 -1.25 -34.8" fill="url(#gradient21)" fill-rule="evenodd" stroke="none"/>
    <path d="M-2.7 -34.3 L-3.2 -33.65 -3.95 -34.2 -4.95 -34.65 -4.95 -34.7 -4.6 -35.05 -2.7 -34.3" fill="url(#gradient22)" fill-rule="evenodd" stroke="none"/>
    <path d="M-8.45 -30.95 L-10.4 -31.3 -9.8 -32.3 -8.15 -34.2 -8.2 -32.35 -8.45 -30.95" fill="url(#gradient23)" fill-rule="evenodd" stroke="none"/>
    <path d="M-5.85 -28.4 L-5.65 -27.85 -5.5 -27.1 -5.65 -26.95 -5.85 -25.9 -5.7 -25.0 -6.4 -23.4 -7.65 -22.15 -8.5 -21.55 -9.95 -21.0 -10.35 -21.15 -11.45 -21.0 -13.0 -22.05 -13.6 -22.9 -14.95 -25.3 Q-15.45 -26.35 -15.2 -27.1 L-14.95 -28.6 -14.75 -28.9 -14.7 -29.05 -13.75 -30.0 -12.95 -30.6 -11.8 -31.15 -10.4 -31.3 -8.45 -30.95 -7.3 -30.35 Q-7.1 -29.35 -5.9 -28.5 L-5.85 -28.4 M-9.45 -26.4 Q-14.8 -26.8 -13.4 -24.3 -11.7 -22.2 -9.45 -26.4" fill="url(#gradient24)" fill-rule="evenodd" stroke="none"/>
    <path d="M-12.95 -30.6 L-13.75 -30.0 -13.5 -30.4 -12.95 -30.6 M-7.65 -22.15 L-6.4 -23.4 -7.05 -22.4 -7.65 -22.15" fill="url(#gradient25)" fill-rule="evenodd" stroke="none"/>
    <path d="M4.0 -10.35 L3.45 -11.75 3.1 -14.65 3.9 -11.15 4.0 -10.35 M-0.7 -32.5 L0.0 -31.85 0.35 -30.8 0.45 -30.15 -0.45 -30.95 -0.7 -32.5" fill="url(#gradient26)" fill-rule="evenodd" stroke="none"/>
    <path d="M1.55 -26.1 L1.55 -26.05 1.65 -25.9 2.35 -22.55 2.85 -16.85 3.0 -14.9 3.1 -14.7 3.1 -14.65 3.45 -11.75 4.1 -6.95 6.25 -1.9 9.9 0.45 11.1 1.5 11.55 2.7 11.7 5.05 6.55 3.45 Q3.7 -0.05 2.8 -2.1 L2.4 -3.7 2.5 -4.15 2.05 -5.8 1.9 -5.8 1.25 -8.45 -0.05 -16.5 -1.25 -20.6 -1.85 -22.9 -2.0 -23.2 -2.25 -24.1 -3.45 -25.5 -2.6 -25.85 -4.65 -26.7 -5.65 -27.85 -5.85 -28.4 Q-2.5 -29.65 -1.35 -31.75 L-0.45 -30.95 0.45 -30.15 0.7 -29.85 0.9 -29.2 1.55 -26.1" fill="url(#gradient27)" fill-rule="evenodd" stroke="none"/>
    <path d="M-7.3 -30.35 L-3.75 -31.3 -5.9 -28.5 Q-7.1 -29.35 -7.3 -30.35" fill="url(#gradient28)" fill-rule="evenodd" stroke="none"/>
    <path d="M-32.85 -23.8 Q-37.75 -24.6 -36.5 -30.15 -34.85 -33.5 -31.1 -29.2 L-30.55 -27.6 -30.55 -26.25 -30.8 -26.4 -31.3 -26.35 -32.3 -25.3 -33.05 -24.9 -33.15 -24.8 -32.85 -23.8" fill="url(#gradient29)" fill-rule="evenodd" stroke="none"/>
    <path d="M-26.05 -17.4 Q-27.25 -18.05 -28.45 -18.65 -30.75 -20.6 -32.85 -23.8 L-33.15 -24.8 -33.05 -24.9 -32.3 -25.3 -31.3 -26.35 -30.8 -26.4 -30.55 -26.25 -29.5 -25.45 Q-28.5 -24.5 -24.7 -22.9 L-23.75 -22.2 Q-23.7 -15.95 -24.85 -17.15 L-24.95 -17.15 -25.3 -17.1 -26.05 -17.4" fill="url(#gradient30)" fill-rule="evenodd" stroke="none"/>
    <path d="M-31.1 -29.2 Q-28.7 -27.7 -29.5 -25.45 L-30.55 -26.25 -30.55 -27.6 -31.1 -29.2" fill="url(#gradient31)" fill-rule="evenodd" stroke="none"/>
    <path d="M1.4 -28.0 L1.55 -26.1 0.9 -29.2 1.4 -28.0 M2.85 -16.85 L3.75 -12.3 3.8 -12.0 4.1 -11.35 4.15 -11.3 5.1 -8.75 5.2 -8.4 5.35 -8.15 5.5 -7.7 6.7 -6.25 6.75 -6.2 6.85 -6.0 9.9 -2.3 10.1 -1.9 10.0 -1.85 6.3 -5.1 4.0 -10.35 3.9 -11.15 3.1 -14.65 3.1 -14.7 3.0 -14.9 2.85 -16.85 M0.35 -30.8 L0.7 -29.85 0.45 -30.15 0.35 -30.8" fill="url(#gradient32)" fill-rule="evenodd" stroke="none"/>
    <path d="M-14.95 -28.85 L-14.9 -29.35 -14.7 -29.05 -14.75 -28.9 -14.95 -28.85" fill="url(#gradient33)" fill-rule="evenodd" stroke="none"/>
    <path d="M-15.2 -28.55 L-14.95 -28.85 -14.75 -28.9 -14.95 -28.6 -15.2 -28.55 M-15.2 -27.1 Q-15.45 -26.35 -14.95 -25.3 L-13.6 -22.9 -13.0 -22.05 -11.45 -21.0 -11.55 -20.8 -12.8 -20.45 -12.7 -21.6 Q-13.15 -22.35 -14.1 -22.9 L-16.0 -24.3 -16.45 -25.5 -16.65 -25.9 -16.85 -25.95 Q-16.1 -27.75 -15.2 -27.1" fill="url(#gradient34)" fill-rule="evenodd" stroke="none"/>
    <path d="M-17.0 -25.95 Q-16.75 -27.75 -15.2 -28.55 L-14.95 -28.6 -15.2 -27.1 Q-16.1 -27.75 -16.85 -25.95 L-17.0 -25.95 M-10.55 -20.55 L-11.3 -20.2 -12.6 -20.1 -12.9 -20.2 -12.8 -20.45 -11.55 -20.8 -11.45 -21.0 -10.35 -21.15 -9.95 -21.0 -10.55 -20.55" fill="url(#gradient35)" fill-rule="evenodd" stroke="none"/>
    <path d="M-23.75 -22.2 Q-20.2 -25.7 -17.0 -25.95 L-16.85 -25.95 -16.65 -25.9 -16.45 -25.5 -16.0 -24.3 -17.35 -24.1 -19.85 -22.9 -21.45 -21.5 -22.6 -19.65 -22.55 -17.7 Q-21.9 -16.6 -20.4 -16.3 L-20.7 -16.15 Q-23.95 -16.5 -24.35 -16.9 L-24.75 -16.85 -24.8 -16.95 -24.85 -17.15 Q-23.7 -15.95 -23.75 -22.2" fill="url(#gradient36)" fill-rule="evenodd" stroke="none"/>
    <path d="M-5.65 -27.85 L-4.65 -26.7 -5.5 -27.1 -5.65 -27.85 M-3.45 -25.5 L-2.25 -24.1 -2.35 -23.9 -3.0 -22.9 Q-6.6 -16.6 -10.55 -20.55 L-9.95 -21.0 -8.5 -21.55 -7.65 -22.15 -7.05 -22.4 -6.4 -23.4 -5.7 -25.0 -3.45 -25.5" fill="url(#gradient37)" fill-rule="evenodd" stroke="none"/>
    <path d="M-4.65 -26.7 L-2.6 -25.85 -3.45 -25.5 -5.7 -25.0 -5.85 -25.9 -5.65 -26.95 -5.5 -27.1 -4.65 -26.7" fill="url(#gradient38)" fill-rule="evenodd" stroke="none"/>
    <path d="M2.5 -27.1 L2.6 -27.15 3.4 -23.2 4.1 -17.7 3.35 -20.95 3.3 -21.35 2.5 -27.1" fill="url(#gradient39)" fill-rule="evenodd" stroke="none"/>
    <path d="M4.6 -15.25 L6.0 -10.45 7.95 -7.5 7.9 -7.35 6.4 -8.1 6.35 -8.15 5.15 -10.25 4.9 -10.75 4.9 -10.8 4.85 -10.85 4.85 -10.9 4.8 -10.95 4.7 -11.3 4.6 -11.35 4.6 -11.5 3.95 -14.45 3.6 -15.7 3.6 -15.85 3.65 -15.9 3.45 -16.95 3.45 -17.1 3.15 -18.7 3.15 -18.75 3.1 -19.1 3.1 -19.25 3.1 -19.5 3.1 -19.7 3.0 -19.85 2.2 -25.05 2.35 -25.0 3.25 -21.35 3.35 -20.95 4.1 -17.7 4.6 -15.25" fill="url(#gradient40)" fill-rule="evenodd" stroke="none"/>
    <path d="M3.4 -16.95 L3.35 -17.05 3.45 -17.1 3.45 -16.95 3.4 -16.95" fill="url(#gradient41)" fill-rule="evenodd" stroke="none"/>
    <path d="M-9.45 -26.4 Q-11.7 -22.2 -13.4 -24.3 -14.8 -26.8 -9.45 -26.4" fill="url(#gradient42)" fill-rule="evenodd" stroke="none"/>
    <path d="M11.7 5.05 L12.65 5.4 11.8 5.75 6.0 3.75 2.95 -1.45 2.8 -2.1 Q3.7 -0.05 6.55 3.45 L11.7 5.05 M2.4 -3.7 L1.9 -5.8 2.05 -5.8 2.5 -4.15 2.4 -3.7" fill="url(#gradient43)" fill-rule="evenodd" stroke="none"/>
    <path d="M-1.25 -20.6 L-1.4 -19.9 Q-2.65 -19.2 -3.95 -16.8 L-4.65 -16.6 Q-6.95 -17.75 -7.9 -17.0 -9.05 -18.45 -10.8 -18.05 -12.4 -19.6 -12.35 -19.15 L-12.65 -19.8 -12.6 -20.1 -11.3 -20.2 -10.55 -20.55 Q-6.6 -16.6 -3.0 -22.9 L-2.35 -23.9 -2.0 -23.2 -1.85 -22.9 -1.25 -20.6" fill="url(#gradient44)" fill-rule="evenodd" stroke="none"/>
    <path d="M-14.05 -18.6 L-14.3 -18.3 -14.4 -18.25 -14.5 -18.15 -16.05 -17.1 -17.9 -16.4 -20.4 -16.3 Q-21.9 -16.6 -22.55 -17.7 L-22.6 -19.65 -21.45 -21.5 -19.85 -22.9 -17.35 -24.1 -16.0 -24.3 -14.1 -22.9 Q-13.15 -22.35 -12.7 -21.6 L-12.8 -20.45 -12.9 -20.2 -13.3 -19.4 -14.05 -18.6" fill="url(#gradient45)" fill-rule="evenodd" stroke="none"/>
    <path d="M-16.1 -16.9 Q-16.9 -15.2 -20.15 -14.75 L-20.35 -14.85 -20.7 -16.15 -20.4 -16.3 -17.9 -16.4 -16.05 -17.1 -16.1 -16.9" fill="url(#gradient46)" fill-rule="evenodd" stroke="none"/>
    <path d="M-20.15 -14.75 Q-20.4 -13.9 -23.3 -14.75 L-24.2 -15.9 -24.75 -16.85 -24.35 -16.9 Q-23.95 -16.5 -20.7 -16.15 L-20.35 -14.85 -20.15 -14.75 M-24.8 -16.95 L-24.95 -17.15 -24.85 -17.15 -24.8 -16.95" fill="url(#gradient47)" fill-rule="evenodd" stroke="none"/>
    <path d="M-23.3 -14.75 Q-24.15 -12.45 -21.35 -9.5 L-23.1 -10.2 -24.55 -11.5 -25.6 -13.25 Q-26.45 -15.4 -26.05 -17.4 L-25.3 -17.1 -24.95 -17.15 -24.8 -16.95 -24.75 -16.85 -24.2 -15.9 -23.3 -14.75" fill="url(#gradient48)" fill-rule="evenodd" stroke="none"/>
    <path d="M-13.5 -15.8 L-13.95 -17.55 -14.05 -18.6 -13.3 -19.4 -12.9 -20.2 -12.6 -20.1 -12.65 -19.8 -12.35 -19.15 -13.5 -15.8" fill="url(#gradient49)" fill-rule="evenodd" stroke="none"/>
    <path d="M-14.5 -18.15 L-15.1 -17.55 -16.1 -16.9 -16.05 -17.1 -14.5 -18.15" fill="url(#gradient50)" fill-rule="evenodd" stroke="none"/>
    <path d="M-15.7 -7.3 L-13.5 -15.8 -12.35 -19.15 Q-12.4 -19.6 -10.8 -18.05 -9.05 -18.45 -7.9 -17.0 -10.1 -14.65 -10.0 -11.15 -10.9 -7.85 -9.25 -6.85 L-7.8 -6.45 -6.5 -6.6 -5.6 -6.95 Q-4.8 -6.25 -4.25 -6.35 L-3.6 -6.5 -4.4 -3.8 Q-4.4 -0.9 -13.95 -3.9 -16.0 -4.5 -15.7 -7.3" fill="url(#gradient51)" fill-rule="evenodd" stroke="none"/>
    <path d="M-0.95 -16.1 L-0.55 -15.3 -0.55 -14.85 Q-1.35 -16.8 -4.45 -15.7 L-5.55 -16.3 Q-4.75 -14.4 -6.75 -15.45 L-7.55 -14.1 -7.85 -13.85 -8.55 -11.7 -8.55 -11.15 Q-9.3 -8.9 -8.6 -7.35 L-9.25 -6.85 Q-10.9 -7.85 -10.0 -11.15 -10.1 -14.65 -7.9 -17.0 -6.95 -17.75 -4.65 -16.6 L-1.35 -16.45 -1.1 -16.4 -0.95 -16.1" fill="url(#gradient52)" fill-rule="evenodd" stroke="none"/>
    <path d="M-1.4 -19.9 Q-1.2 -20.15 -0.9 -17.7 L-0.95 -16.1 -1.1 -16.4 -1.35 -16.45 -4.65 -16.6 -3.95 -16.8 Q-2.65 -19.2 -1.4 -19.9" fill="url(#gradient53)" fill-rule="evenodd" stroke="none"/>
    <path d="M-4.75 0.0 L-5.1 1.2 Q-6.25 6.1 -12.6 6.0 -17.2 6.0 -18.6 0.55 L-18.7 -0.05 Q-18.35 -4.15 -15.7 -7.3 -16.0 -4.5 -13.95 -3.9 -4.4 -0.9 -4.4 -3.8 L-4.3 -3.15 -4.3 -1.5 -4.75 0.0" fill="url(#gradient54)" fill-rule="evenodd" stroke="none"/>
    <path d="M-5.1 1.2 L-4.85 4.65 -5.4 7.35 Q-5.0 10.85 -13.05 11.85 -17.95 11.7 -19.4 5.25 L-19.5 3.5 -19.05 0.8 -18.7 -0.05 -18.6 0.55 Q-17.2 6.0 -12.6 6.0 -6.25 6.1 -5.1 1.2" fill="url(#gradient55)" fill-rule="evenodd" stroke="none"/>
    <path d="M-5.4 7.35 Q-4.2 12.4 -7.8 15.65 -10.2 16.2 -11.8 17.75 L-12.5 17.95 Q-14.25 18.7 -17.45 15.75 -21.1 11.9 -19.4 5.25 -17.95 11.7 -13.05 11.85 -5.0 10.85 -5.4 7.35" fill="url(#gradient56)" fill-rule="evenodd" stroke="none"/>
    <path d="M-18.6 17.8 L-18.4 17.3 -17.45 15.75 Q-14.25 18.7 -12.5 17.95 L-11.5 18.05 Q-14.3 21.35 -15.8 20.65 L-15.85 20.6 -15.9 20.6 -18.15 19.15 -18.4 19.0 -18.6 17.8" fill="url(#gradient57)" fill-rule="evenodd" stroke="none"/>
    <path d="M-10.65 17.95 Q-15.6 22.75 -16.15 21.45 L-18.55 19.9 Q-19.25 18.4 -18.6 17.8 L-18.4 19.0 -18.15 19.15 -17.75 19.6 -15.9 20.6 -15.85 20.6 -15.8 20.65 Q-14.3 21.35 -11.5 18.05 L-10.65 17.95" fill="url(#gradient58)" fill-rule="evenodd" stroke="none"/>
    <path d="M-16.15 21.45 L-17.4 20.95 -18.55 19.9 -16.15 21.45" fill="url(#gradient59)" fill-rule="evenodd" stroke="none"/>
    <path d="M6.35 -8.15 L5.65 -8.9 5.1 -10.25 5.15 -10.25 6.35 -8.15" fill="url(#gradient60)" fill-rule="evenodd" stroke="none"/>
    <path d="M5.1 -10.25 L5.1 -10.3 5.05 -10.35 5.05 -10.4 5.0 -10.45 5.0 -10.5 4.95 -10.55 4.9 -10.75 5.15 -10.25 5.1 -10.25" fill="url(#gradient61)" fill-rule="evenodd" stroke="none"/>
    <path d="M4.6 -11.35 L4.55 -11.5 4.6 -11.5 4.6 -11.35 M3.8 -14.6 L3.8 -14.65 3.75 -14.85 3.75 -15.0 3.7 -15.05 3.7 -15.25 3.65 -15.3 3.6 -15.7 3.95 -14.45 3.8 -14.6" fill="url(#gradient62)" fill-rule="evenodd" stroke="none"/>
    <path d="M4.55 -11.5 L4.2 -12.3 3.8 -14.6 3.95 -14.45 4.6 -11.5 4.55 -11.5" fill="url(#gradient63)" fill-rule="evenodd" stroke="none"/>
    <path d="M-0.55 -14.85 L-0.45 -13.45 -0.55 -13.1 -1.45 -11.15 -1.5 -9.5 Q-1.2 -9.05 -2.3 -7.25 L-3.6 -6.5 -4.25 -6.35 Q-4.8 -6.25 -5.6 -6.95 L-6.5 -6.6 -7.8 -6.45 -9.25 -6.85 -8.6 -7.35 Q-9.3 -8.9 -8.55 -11.15 L-8.55 -11.7 -7.85 -13.85 -7.55 -14.1 -6.75 -15.45 Q-4.75 -14.4 -5.55 -16.3 L-4.45 -15.7 Q-1.35 -16.8 -0.55 -14.85" fill="url(#gradient64)" fill-rule="evenodd" stroke="none"/>
    <path d="M-0.45 -13.45 Q0.4 -12.25 0.4 -9.45 0.4 -4.45 -4.3 -3.15 L-4.4 -3.8 -3.6 -6.5 -2.3 -7.25 Q-1.2 -9.05 -1.5 -9.5 L-0.75 -10.8 -0.4 -12.6 -0.55 -13.1 -0.45 -13.45" fill="url(#gradient65)" fill-rule="evenodd" stroke="none"/>
    <path d="M-1.5 -9.5 L-1.45 -11.15 -0.55 -13.1 -0.4 -12.6 -0.75 -10.8 -1.5 -9.5" fill="url(#gradient66)" fill-rule="evenodd" stroke="none"/>
    <path d="M3.75 -12.3 L4.1 -11.35 3.8 -12.0 3.75 -12.3" fill="url(#gradient67)" fill-rule="evenodd" stroke="none"/>
    <path d="M5.1 -8.75 L5.35 -8.3 5.2 -8.4 5.1 -8.75" fill="url(#gradient68)" fill-rule="evenodd" stroke="none"/>
    <path d="M5.35 -8.3 L5.5 -8.05 5.35 -8.15 5.2 -8.4 5.35 -8.3" fill="url(#gradient69)" fill-rule="evenodd" stroke="none"/>
    <path d="M5.5 -8.05 L5.55 -8.0 5.55 -7.95 5.6 -7.9 5.65 -7.8 5.7 -7.75 6.7 -6.25 5.5 -7.7 5.35 -8.15 5.5 -8.05" fill="url(#gradient70)" fill-rule="evenodd" stroke="none"/>
    <path d="M0.4 -9.45 Q3.15 -3.0 -4.75 0.0 L-4.3 -1.5 -4.3 -3.15 Q0.4 -4.45 0.4 -9.45" fill="url(#gradient71)" fill-rule="evenodd" stroke="none"/>
    <path d="M-7.8 15.65 L-8.65 16.75 Q-9.95 17.9 -10.65 17.95 L-11.5 18.05 -12.5 17.95 -11.8 17.75 Q-10.2 16.2 -7.8 15.65" fill="url(#gradient72)" fill-rule="evenodd" stroke="none"/>
    <path d="M-15.9 20.6 L-17.75 19.6 -18.15 19.15 -15.9 20.6" fill="url(#gradient73)" fill-rule="evenodd" stroke="none"/>
  </g>
  <defs>
    <radialGradient cx="0" cy="0" gradientTransform="matrix(0.0078, 0.0, 0.0, 0.0078, -14.55, -41.0)" gradientUnits="userSpaceOnUse" id="gradient0" r="819.2" spreadMethod="pad">
      <stop offset="0.0" stop-color="#605746"/>
      <stop offset="1.0" stop-color="#3f392e"/>
    </radialGradient>
    <radialGradient cx="0" cy="0" gradientTransform="matrix(0.0097, 0.0, 0.0, 0.0097, -15.1, -45.05)" gradientUnits="userSpaceOnUse" id="gradient1" r="819.2" spreadMethod="pad">
      <stop offset="0.0" stop-color="#161410"/>
      <stop offset="1.0" stop-color="#0c0b09"/>
    </radialGradient>
    <radialGradient cx="0" cy="0" gradientTransform="matrix(0.0115, 0.0, 0.0, 0.0115, -11.4, -37.2)" gradientUnits="userSpaceOnUse" id="gradient2" r="819.2" spreadMethod="pad">
      <stop offset="0.0" stop-color="#ff9d00"/>
      <stop offset="1.0" stop-color="#ff9a00"/>
    </radialGradient>
    <radialGradient cx="0" cy="0" gradientTransform="matrix(0.0101, 0.0, 0.0, 0.0101, -13.45, -35.65)" gradientUnits="userSpaceOnUse" id="gradient3" r="819.2" spreadMethod="pad">
      <stop offset="0.0" stop-color="#ff8f00"/>
      <stop offset="1.0" stop-color="#f27d00"/>
    </radialGradient>
    <radialGradient cx="0" cy="0" gradientTransform="matrix(0.0071, 0.0, 0.0, 0.0071, -13.1, -34.5)" gradientUnits="userSpaceOnUse" id="gradient4" r="819.2" spreadMethod="pad">
      <stop offset="0.0" stop-color="#453e32"/>
      <stop offset="1.0" stop-color="#3d372c"/>
    </radialGradient>
    <radialGradient cx="0" cy="0" gradientTransform="matrix(0.0108, 0.0, 0.0, 0.0108, -9.2, -35.2)" gradientUnits="userSpaceOnUse" id="gradient5" r="819.2" spreadMethod="pad">
      <stop offset="0.0" stop-color="#635948"/>
      <stop offset="1.0" stop-color="#423c30"/>
    </radialGradient>
    <radialGradient cx="0" cy="0" gradientTransform="matrix(0.0145, 0.0, 0.0, 0.0145, -8.8, -31.25)" gradientUnits="userSpaceOnUse" id="gradient6" r="819.2" spreadMethod="pad">
      <stop offset="0.0" stop-color="#635a48"/>
      <stop offset="1.0" stop-color="#383228"/>
    </radialGradient>
    <radialGradient cx="0" cy="0" gradientTransform="matrix(0.0077, 0.0, 0.0, 0.0077, -4.7, -35.15)" gradientUnits="userSpaceOnUse" id="gradient7" r="819.2" spreadMethod="pad">
      <stop offset="0.0" stop-color="#ffca00"/>
      <stop offset="1.0" stop-color="#d87500"/>
    </radialGradient>
    <radialGradient cx="0" cy="0" gradientTransform="matrix(0.0058, 0.0, 0.0, 0.0058, -9.55, -38.15)" gradientUnits="userSpaceOnUse" id="gradient8" r="819.2" spreadMethod="pad">
      <stop offset="0.0" stop-color="#ffc500"/>
      <stop offset="1.0" stop-color="#f07d00"/>
    </radialGradient>
    <radialGradient cx="0" cy="0" gradientTransform="matrix(0.0074, 0.0, 0.0, 0.0074, -6.45, -41.45)" gradientUnits="userSpaceOnUse" id="gradient9" r="819.2" spreadMethod="pad">
      <stop offset="0.0" stop-color="#ffe482"/>
      <stop offset="1.0" stop-color="#cc9354"/>
    </radialGradient>
    <radialGradient cx="0" cy="0" gradientTransform="matrix(0.0051, 0.0, 0.0, 0.0051, -1.2, -41.9)" gradientUnits="userSpaceOnUse" id="gradient10" r="819.2" spreadMethod="pad">
      <stop offset="0.0" stop-color="#ffbe00"/>
      <stop offset="1.0" stop-color="#be6200"/>
    </radialGradient>
    <radialGradient cx="0" cy="0" gradientTransform="matrix(0.0068, 0.0, 0.0, 0.0068, -0.45, -39.55)" gradientUnits="userSpaceOnUse" id="gradient11" r="819.2" spreadMethod="pad">
      <stop offset="0.0" stop-color="#cf9656"/>
      <stop offset="1.0" stop-color="#644829"/>
    </radialGradient>
    <radialGradient cx="0" cy="0" gradientTransform="matrix(0.0056, 0.0, 0.0, 0.0056, -1.05, -41.7)" gradientUnits="userSpaceOnUse" id="gradient12" r="819.2" spreadMethod="pad">
      <stop offset="0.0" stop-color="#ffe885"/>
      <stop offset="1.0" stop-color="#a97a45"/>
    </radialGradient>
    <radialGradient cx="0" cy="0" gradientTransform="matrix(0.0039, 0.0, 0.0, 0.0039, -1.0, -39.3)" gradientUnits="userSpaceOnUse" id="gradient13" r="819.2" spreadMethod="pad">
      <stop offset="0.0" stop-color="#ffd379"/>
      <stop offset="1.0" stop-color="#ae7e48"/>
    </radialGradient>
    <radialGradient cx="0" cy="0" gradientTransform="matrix(0.0055, 0.0, 0.0, 0.0055, 3.15, -41.65)" gradientUnits="userSpaceOnUse" id="gradient14" r="819.2" spreadMethod="pad">
      <stop offset="0.0" stop-color="#6a604d"/>
      <stop offset="1.0" stop-color="#363127"/>
    </radialGradient>
    <radialGradient cx="0" cy="0" gradientTransform="matrix(0.0012, 0.0, 0.0, 0.0012, 3.1, -40.0)" gradientUnits="userSpaceOnUse" id="gradient15" r="819.2" spreadMethod="pad">
      <stop offset="0.0" stop-color="#ff9500"/>
      <stop offset="1.0" stop-color="#f57d00"/>
    </radialGradient>
    <radialGradient cx="0" cy="0" gradientTransform="matrix(0.0026, 0.0, 0.0, 0.0026, 1.35, -39.25)" gradientUnits="userSpaceOnUse" id="gradient16" r="819.2" spreadMethod="pad">
      <stop offset="0.0" stop-color="#ffea86"/>
      <stop offset="1.0" stop-color="#bc874d"/>
    </radialGradient>
    <radialGradient cx="0" cy="0" gradientTransform="matrix(0.004, 0.0, 0.0, 0.004, 6.95, -40.9)" gradientUnits="userSpaceOnUse" id="gradient17" r="819.2" spreadMethod="pad">
      <stop offset="0.0" stop-color="#ffe784"/>
      <stop offset="1.0" stop-color="#b18049"/>
    </radialGradient>
    <radialGradient cx="0" cy="0" gradientTransform="matrix(0.0034, 0.0, 0.0, 0.0034, 2.95, -39.7)" gradientUnits="userSpaceOnUse" id="gradient18" r="819.2" spreadMethod="pad">
      <stop offset="0.0" stop-color="#e1e1e1"/>
      <stop offset="1.0" stop-color="#838383"/>
    </radialGradient>
    <radialGradient cx="0" cy="0" gradientTransform="matrix(0.0262, 0.0, 0.0, 0.0262, -1.6, -35.5)" gradientUnits="userSpaceOnUse" id="gradient19" r="819.2" spreadMethod="pad">
      <stop offset="0.0" stop-color="#675e5e"/>
      <stop offset="1.0" stop-color="#595151"/>
    </radialGradient>
    <radialGradient cx="0" cy="0" gradientTransform="matrix(0.0333, 0.0, 0.0, 0.0333, -2.85, -34.9)" gradientUnits="userSpaceOnUse" id="gradient20" r="819.2" spreadMethod="pad">
      <stop offset="0.0" stop-color="#ff9900"/>
      <stop offset="1.0" stop-color="#e57300"/>
    </radialGradient>
    <radialGradient cx="0" cy="0" gradientTransform="matrix(0.0019, 0.0, 0.0, 0.0019, -2.75, -34.45)" gradientUnits="userSpaceOnUse" id="gradient21" r="819.2" spreadMethod="pad">
      <stop offset="0.0" stop-color="#c36200"/>
      <stop offset="1.0" stop-color="#c26100"/>
    </radialGradient>
    <radialGradient cx="0" cy="0" gradientTransform="matrix(0.0025, 0.0, 0.0, 0.0025, -4.7, -35.15)" gradientUnits="userSpaceOnUse" id="gradient22" r="819.2" spreadMethod="pad">
      <stop offset="0.0" stop-color="#ff8d00"/>
      <stop offset="1.0" stop-color="#ff8c00"/>
    </radialGradient>
    <radialGradient cx="0" cy="0" gradientTransform="matrix(0.003, 0.0, 0.0, 0.003, -9.05, -32.25)" gradientUnits="userSpaceOnUse" id="gradient23" r="819.2" spreadMethod="pad">
      <stop offset="0.0" stop-color="#ffffff"/>
      <stop offset="1.0" stop-color="#c1c1c1"/>
    </radialGradient>
    <radialGradient cx="0" cy="0" gradientTransform="matrix(0.0074, 0.0, 0.0, 0.0074, -11.1, -27.1)" gradientUnits="userSpaceOnUse" id="gradient24" r="819.2" spreadMethod="pad">
      <stop offset="0.0" stop-color="#625847"/>
      <stop offset="1.0" stop-color="#363128"/>
    </radialGradient>
    <radialGradient cx="0" cy="0" gradientTransform="matrix(0.0122, 0.0, 0.0, 0.0122, -14.1, -29.7)" gradientUnits="userSpaceOnUse" id="gradient25" r="819.2" spreadMethod="pad">
      <stop offset="0.0" stop-color="#ff8000"/>
      <stop offset="1.0" stop-color="#bd5f00"/>
    </radialGradient>
    <radialGradient cx="0" cy="0" gradientTransform="matrix(0.0379, 0.0, 0.0, 0.0379, 5.05, -8.2)" gradientUnits="userSpaceOnUse" id="gradient26" r="819.2" spreadMethod="pad">
      <stop offset="0.0" stop-color="#2f2b22"/>
      <stop offset="1.0" stop-color="#0c0b09"/>
    </radialGradient>
    <radialGradient cx="0" cy="0" gradientTransform="matrix(0.047, 0.0, 0.0, 0.047, -6.55, -28.85)" gradientUnits="userSpaceOnUse" id="gradient27" r="819.2" spreadMethod="pad">
      <stop offset="0.0" stop-color="#534b3c"/>
      <stop offset="1.0" stop-color="#3f392e"/>
    </radialGradient>
    <radialGradient cx="0" cy="0" gradientTransform="matrix(0.0041, 0.0, 0.0, 0.0041, -6.55, -29.5)" gradientUnits="userSpaceOnUse" id="gradient28" r="819.2" spreadMethod="pad">
      <stop offset="0.0" stop-color="#ffffff"/>
      <stop offset="1.0" stop-color="#b5b5b5"/>
    </radialGradient>
    <radialGradient cx="0" cy="0" gradientTransform="matrix(0.0062, 0.0, 0.0, 0.0062, -32.4, -27.55)" gradientUnits="userSpaceOnUse" id="gradient29" r="819.2" spreadMethod="pad">
      <stop offset="0.0" stop-color="#ffe080"/>
      <stop offset="1.0" stop-color="#c18c50"/>
    </radialGradient>
    <radialGradient cx="0" cy="0" gradientTransform="matrix(0.012, 0.0, 0.0, 0.012, -25.15, -20.0)" gradientUnits="userSpaceOnUse" id="gradient30" r="819.2" spreadMethod="pad">
      <stop offset="0.0" stop-color="#635a48"/>
      <stop offset="1.0" stop-color="#423c30"/>
    </radialGradient>
    <radialGradient cx="0" cy="0" gradientTransform="matrix(0.0034, 0.0, 0.0, 0.0034, -30.85, -26.6)" gradientUnits="userSpaceOnUse" id="gradient31" r="819.2" spreadMethod="pad">
      <stop offset="0.0" stop-color="#ffdf80"/>
      <stop offset="1.0" stop-color="#a87945"/>
    </radialGradient>
    <radialGradient cx="0" cy="0" gradientTransform="matrix(0.0398, 0.0, 0.0, 0.0398, 0.1, -32.9)" gradientUnits="userSpaceOnUse" id="gradient32" r="819.2" spreadMethod="pad">
      <stop offset="0.0" stop-color="#413b2f"/>
      <stop offset="1.0" stop-color="#373127"/>
    </radialGradient>
    <radialGradient cx="0" cy="0" gradientTransform="matrix(0.0016, 0.0, 0.0, 0.0016, -14.6, -29.6)" gradientUnits="userSpaceOnUse" id="gradient33" r="819.2" spreadMethod="pad">
      <stop offset="0.0" stop-color="#605858"/>
      <stop offset="1.0" stop-color="#5a5252"/>
    </radialGradient>
    <radialGradient cx="0" cy="0" gradientTransform="matrix(0.006, 0.0, 0.0, 0.006, -13.3, -24.6)" gradientUnits="userSpaceOnUse" id="gradient34" r="819.2" spreadMethod="pad">
      <stop offset="0.0" stop-color="#ffd67a"/>
      <stop offset="1.0" stop-color="#c79052"/>
    </radialGradient>
    <radialGradient cx="0" cy="0" gradientTransform="matrix(0.0095, 0.0, 0.0, 0.0095, -14.7, -27.25)" gradientUnits="userSpaceOnUse" id="gradient35" r="819.2" spreadMethod="pad">
      <stop offset="0.0" stop-color="#ffac00"/>
      <stop offset="1.0" stop-color="#c76400"/>
    </radialGradient>
    <radialGradient cx="0" cy="0" gradientTransform="matrix(0.0099, 0.0, 0.0, 0.0099, -18.85, -22.55)" gradientUnits="userSpaceOnUse" id="gradient36" r="819.2" spreadMethod="pad">
      <stop offset="0.0" stop-color="#ffdc7e"/>
      <stop offset="1.0" stop-color="#e8aa61"/>
    </radialGradient>
    <radialGradient cx="0" cy="0" gradientTransform="matrix(0.0125, 0.0, 0.0, 0.0125, -5.5, -28.85)" gradientUnits="userSpaceOnUse" id="gradient37" r="819.2" spreadMethod="pad">
      <stop offset="0.0" stop-color="#8e8282"/>
      <stop offset="1.0" stop-color="#3a3636"/>
    </radialGradient>
    <radialGradient cx="0" cy="0" gradientTransform="matrix(0.004, 0.0, 0.0, 0.004, -5.9, -26.25)" gradientUnits="userSpaceOnUse" id="gradient38" r="819.2" spreadMethod="pad">
      <stop offset="0.0" stop-color="#fcfcfc"/>
      <stop offset="1.0" stop-color="#8c8c8c"/>
    </radialGradient>
    <radialGradient cx="0" cy="0" gradientTransform="matrix(0.0165, 0.0, 0.0, 0.0165, 4.05, -17.8)" gradientUnits="userSpaceOnUse" id="gradient39" r="819.2" spreadMethod="pad">
      <stop offset="0.0" stop-color="#121111"/>
      <stop offset="1.0" stop-color="#121111"/>
    </radialGradient>
    <radialGradient cx="0" cy="0" gradientTransform="matrix(0.0244, 0.0, 0.0, 0.0244, 6.4, -8.1)" gradientUnits="userSpaceOnUse" id="gradient40" r="819.2" spreadMethod="pad">
      <stop offset="0.0" stop-color="#331a00"/>
      <stop offset="1.0" stop-color="#331a00"/>
    </radialGradient>
    <radialGradient cx="0" cy="0" gradientTransform="matrix(0.007, 0.0, 0.0, 0.007, 3.3, -17.15)" gradientUnits="userSpaceOnUse" id="gradient41" r="819.2" spreadMethod="pad">
      <stop offset="0.0" stop-color="#331a00"/>
      <stop offset="1.0" stop-color="#331a00"/>
    </radialGradient>
    <radialGradient cx="0" cy="0" gradientTransform="matrix(0.0045, 0.0, 0.0, 0.0045, -10.5, -25.95)" gradientUnits="userSpaceOnUse" id="gradient42" r="819.2" spreadMethod="pad">
      <stop offset="0.0" stop-color="#f6f6f6"/>
      <stop offset="1.0" stop-color="#9b9b9b"/>
    </radialGradient>
    <radialGradient cx="0" cy="0" gradientTransform="matrix(0.0217, 0.0, 0.0, 0.0217, 11.85, 5.7)" gradientUnits="userSpaceOnUse" id="gradient43" r="819.2" spreadMethod="pad">
      <stop offset="0.0" stop-color="#0c0b09"/>
      <stop offset="1.0" stop-color="#0c0b09"/>
    </radialGradient>
    <radialGradient cx="0" cy="0" gradientTransform="matrix(0.0129, 0.0, 0.0, 0.0129, -5.3, -25.1)" gradientUnits="userSpaceOnUse" id="gradient44" r="819.2" spreadMethod="pad">
      <stop offset="0.0" stop-color="#ffda00"/>
      <stop offset="1.0" stop-color="#ff9200"/>
    </radialGradient>
    <radialGradient cx="0" cy="0" gradientTransform="matrix(0.0086, 0.0, 0.0, 0.0086, -16.55, -21.4)" gradientUnits="userSpaceOnUse" id="gradient45" r="819.2" spreadMethod="pad">
      <stop offset="0.0" stop-color="#ffdb7e"/>
      <stop offset="1.0" stop-color="#f1b96a"/>
    </radialGradient>
    <radialGradient cx="0" cy="0" gradientTransform="matrix(0.0041, 0.0, 0.0, 0.0041, -19.35, -16.75)" gradientUnits="userSpaceOnUse" id="gradient46" r="819.2" spreadMethod="pad">
      <stop offset="0.0" stop-color="#ffd77b"/>
      <stop offset="1.0" stop-color="#eaa961"/>
    </radialGradient>
    <radialGradient cx="0" cy="0" gradientTransform="matrix(0.0036, 0.0, 0.0, 0.0036, -22.3, -16.5)" gradientUnits="userSpaceOnUse" id="gradient47" r="819.2" spreadMethod="pad">
      <stop offset="0.0" stop-color="#ffcc00"/>
      <stop offset="1.0" stop-color="#ffa600"/>
    </radialGradient>
    <radialGradient cx="0" cy="0" gradientTransform="matrix(0.0101, 0.0, 0.0, 0.0101, -24.15, -17.35)" gradientUnits="userSpaceOnUse" id="gradient48" r="819.2" spreadMethod="pad">
      <stop offset="0.0" stop-color="#ffffff"/>
      <stop offset="1.0" stop-color="#a4a4a4"/>
    </radialGradient>
    <radialGradient cx="0" cy="0" gradientTransform="matrix(0.0065, 0.0, 0.0, 0.0065, -12.35, -18.7)" gradientUnits="userSpaceOnUse" id="gradient49" r="819.2" spreadMethod="pad">
      <stop offset="0.0" stop-color="#2b3251"/>
      <stop offset="1.0" stop-color="#1f243a"/>
    </radialGradient>
    <radialGradient cx="0" cy="0" gradientTransform="matrix(0.0035, 0.0, 0.0, 0.0035, -14.5, -18.5)" gradientUnits="userSpaceOnUse" id="gradient50" r="819.2" spreadMethod="pad">
      <stop offset="0.0" stop-color="#b07f49"/>
      <stop offset="1.0" stop-color="#775631"/>
    </radialGradient>
    <radialGradient cx="0" cy="0" gradientTransform="matrix(0.0191, 0.0, 0.0, 0.0191, -8.55, -15.15)" gradientUnits="userSpaceOnUse" id="gradient51" r="819.2" spreadMethod="pad">
      <stop offset="0.0" stop-color="#404c7a"/>
      <stop offset="1.0" stop-color="#2d3656"/>
    </radialGradient>
    <radialGradient cx="0" cy="0" gradientTransform="matrix(0.0112, 0.0, 0.0, 0.0112, -7.0, -15.75)" gradientUnits="userSpaceOnUse" id="gradient52" r="819.2" spreadMethod="pad">
      <stop offset="0.0" stop-color="#ffda00"/>
      <stop offset="1.0" stop-color="#d17b00"/>
    </radialGradient>
    <radialGradient cx="0" cy="0" gradientTransform="matrix(0.0055, 0.0, 0.0, 0.0055, -4.55, -17.7)" gradientUnits="userSpaceOnUse" id="gradient53" r="819.2" spreadMethod="pad">
      <stop offset="0.0" stop-color="#3f4b77"/>
      <stop offset="1.0" stop-color="#29314f"/>
    </radialGradient>
    <radialGradient cx="0" cy="0" gradientTransform="matrix(0.0147, 0.0, 0.0, 0.0147, -11.25, -5.7)" gradientUnits="userSpaceOnUse" id="gradient54" r="819.2" spreadMethod="pad">
      <stop offset="0.0" stop-color="#414d7c"/>
      <stop offset="1.0" stop-color="#1f253b"/>
    </radialGradient>
    <radialGradient cx="0" cy="0" gradientTransform="matrix(0.0112, 0.0, 0.0, 0.0112, -13.6, 4.45)" gradientUnits="userSpaceOnUse" id="gradient55" r="819.2" spreadMethod="pad">
      <stop offset="0.0" stop-color="#39436c"/>
      <stop offset="1.0" stop-color="#232942"/>
    </radialGradient>
    <radialGradient cx="0" cy="0" gradientTransform="matrix(0.0115, 0.0, 0.0, 0.0115, -14.2, 9.6)" gradientUnits="userSpaceOnUse" id="gradient56" r="819.2" spreadMethod="pad">
      <stop offset="0.0" stop-color="#38426a"/>
      <stop offset="1.0" stop-color="#212840"/>
    </radialGradient>
    <radialGradient cx="0" cy="0" gradientTransform="matrix(0.0071, 0.0, 0.0, 0.0071, -12.8, 17.75)" gradientUnits="userSpaceOnUse" id="gradient57" r="819.2" spreadMethod="pad">
      <stop offset="0.0" stop-color="#726753"/>
      <stop offset="1.0" stop-color="#6e634f"/>
    </radialGradient>
    <radialGradient cx="0" cy="0" gradientTransform="matrix(0.0072, 0.0, 0.0, 0.0072, -13.1, 18.35)" gradientUnits="userSpaceOnUse" id="gradient58" r="819.2" spreadMethod="pad">
      <stop offset="0.0" stop-color="#a89999"/>
      <stop offset="1.0" stop-color="#9e9090"/>
    </radialGradient>
    <radialGradient cx="0" cy="0" gradientTransform="matrix(0.0041, 0.0, 0.0, 0.0041, -16.0, 21.45)" gradientUnits="userSpaceOnUse" id="gradient59" r="819.2" spreadMethod="pad">
      <stop offset="0.0" stop-color="#534c4c"/>
      <stop offset="1.0" stop-color="#504949"/>
    </radialGradient>
    <radialGradient cx="0" cy="0" gradientTransform="matrix(0.0045, 0.0, 0.0, 0.0045, 5.65, -8.95)" gradientUnits="userSpaceOnUse" id="gradient60" r="819.2" spreadMethod="pad">
      <stop offset="0.0" stop-color="#331a00"/>
      <stop offset="1.0" stop-color="#331a00"/>
    </radialGradient>
    <radialGradient cx="0" cy="0" gradientTransform="matrix(0.0059, 0.0, 0.0, 0.0059, 4.2, -12.35)" gradientUnits="userSpaceOnUse" id="gradient61" r="819.2" spreadMethod="pad">
      <stop offset="0.0" stop-color="#df7000"/>
      <stop offset="1.0" stop-color="#884400"/>
    </radialGradient>
    <radialGradient cx="0" cy="0" gradientTransform="matrix(0.0074, 0.0, 0.0, 0.0074, 3.3, -17.15)" gradientUnits="userSpaceOnUse" id="gradient62" r="819.2" spreadMethod="pad">
      <stop offset="0.0" stop-color="#e47200"/>
      <stop offset="1.0" stop-color="#9c4e00"/>
    </radialGradient>
    <radialGradient cx="0" cy="0" gradientTransform="matrix(0.006, 0.0, 0.0, 0.006, 4.2, -12.35)" gradientUnits="userSpaceOnUse" id="gradient63" r="819.2" spreadMethod="pad">
      <stop offset="0.0" stop-color="#331a00"/>
      <stop offset="1.0" stop-color="#331a00"/>
    </radialGradient>
    <radialGradient cx="0" cy="0" gradientTransform="matrix(0.0115, 0.0, 0.0, 0.0115, -6.85, -15.45)" gradientUnits="userSpaceOnUse" id="gradient64" r="819.2" spreadMethod="pad">
      <stop offset="0.0" stop-color="#414d7b"/>
      <stop offset="1.0" stop-color="#222941"/>
    </radialGradient>
    <radialGradient cx="0" cy="0" gradientTransform="matrix(0.0081, 0.0, 0.0, 0.0081, -3.1, -8.75)" gradientUnits="userSpaceOnUse" id="gradient65" r="819.2" spreadMethod="pad">
      <stop offset="0.0" stop-color="#313b5e"/>
      <stop offset="1.0" stop-color="#181d2e"/>
    </radialGradient>
    <radialGradient cx="0" cy="0" gradientTransform="matrix(0.0053, 0.0, 0.0, 0.0053, -1.6, -13.7)" gradientUnits="userSpaceOnUse" id="gradient66" r="819.2" spreadMethod="pad">
      <stop offset="0.0" stop-color="#28304c"/>
      <stop offset="1.0" stop-color="#20273e"/>
    </radialGradient>
    <radialGradient cx="0" cy="0" gradientTransform="matrix(0.0094, 0.0, 0.0, 0.0094, 5.65, -6.95)" gradientUnits="userSpaceOnUse" id="gradient67" r="819.2" spreadMethod="pad">
      <stop offset="0.0" stop-color="#332e25"/>
      <stop offset="1.0" stop-color="#302c23"/>
    </radialGradient>
    <radialGradient cx="0" cy="0" gradientTransform="matrix(0.0081, 0.0, 0.0, 0.0081, 3.65, -11.25)" gradientUnits="userSpaceOnUse" id="gradient68" r="819.2" spreadMethod="pad">
      <stop offset="0.0" stop-color="#302c23"/>
      <stop offset="1.0" stop-color="#2e2921"/>
    </radialGradient>
    <radialGradient cx="0" cy="0" gradientTransform="matrix(0.0084, 0.0, 0.0, 0.0084, 3.9, -10.55)" gradientUnits="userSpaceOnUse" id="gradient69" r="819.2" spreadMethod="pad">
      <stop offset="0.0" stop-color="#2f2a22"/>
      <stop offset="1.0" stop-color="#2b271f"/>
    </radialGradient>
    <radialGradient cx="0" cy="0" gradientTransform="matrix(0.0066, 0.0, 0.0, 0.0066, 5.05, -8.2)" gradientUnits="userSpaceOnUse" id="gradient70" r="819.2" spreadMethod="pad">
      <stop offset="0.0" stop-color="#2f2b22"/>
      <stop offset="1.0" stop-color="#2b271f"/>
    </radialGradient>
    <radialGradient cx="0" cy="0" gradientTransform="matrix(0.008, 0.0, 0.0, 0.008, -2.65, -5.5)" gradientUnits="userSpaceOnUse" id="gradient71" r="819.2" spreadMethod="pad">
      <stop offset="0.0" stop-color="#323b5e"/>
      <stop offset="1.0" stop-color="#181b2c"/>
    </radialGradient>
    <radialGradient cx="0" cy="0" gradientTransform="matrix(0.0046, 0.0, 0.0, 0.0046, -10.25, 15.8)" gradientUnits="userSpaceOnUse" id="gradient72" r="819.2" spreadMethod="pad">
      <stop offset="0.0" stop-color="#ffd000"/>
      <stop offset="1.0" stop-color="#b65b00"/>
    </radialGradient>
    <radialGradient cx="0" cy="0" gradientTransform="matrix(0.0041, 0.0, 0.0, 0.0041, -15.6, 20.65)" gradientUnits="userSpaceOnUse" id="gradient73" r="819.2" spreadMethod="pad">
      <stop offset="0.0" stop-color="#383329"/>
      <stop offset="1.0" stop-color="#363127"/>
    </radialGradient>
  </defs>
</svg>
