<?xml version="1.0" encoding="UTF-8" standalone="no"?>
<svg xmlns:ffdec="https://www.free-decompiler.com/flash" xmlns:xlink="http://www.w3.org/1999/xlink" ffdec:objectType="shape" height="79.0px" width="65.45px" xmlns="http://www.w3.org/2000/svg">
  <g transform="matrix(1.0, 0.0, 0.0, 1.0, 6.8, 79.95)">
    <path d="M42.0 -69.0 L42.0 -69.2 42.0 -69.3 42.3 -69.65 Q44.25 -69.55 44.6 -68.95 L45.05 -68.65 42.0 -69.0" fill="url(#gradient0)" fill-rule="evenodd" stroke="none"/>
    <path d="M42.0 -69.3 L42.0 -69.2 41.95 -69.3 42.0 -69.3" fill="url(#gradient1)" fill-rule="evenodd" stroke="none"/>
    <path d="M42.0 -69.2 L42.0 -69.0 42.0 -68.55 41.8 -67.7 41.45 -67.15 40.7 -66.55 Q38.95 -70.3 37.15 -67.6 L36.7 -68.15 36.7 -68.3 36.75 -69.35 37.0 -69.95 Q40.15 -73.25 41.95 -69.3 L42.0 -69.2" fill="url(#gradient2)" fill-rule="evenodd" stroke="none"/>
    <path d="M42.0 -69.0 L45.05 -68.65 44.25 -67.35 44.1 -67.1 42.3 -67.35 42.25 -67.65 42.0 -68.55 42.0 -69.0" fill="url(#gradient3)" fill-rule="evenodd" stroke="none"/>
    <path d="M45.05 -68.65 L44.6 -68.95 46.4 -68.65 Q70.95 -64.7 46.4 -67.15 L44.4 -67.35 44.25 -67.35 45.05 -68.65" fill="url(#gradient4)" fill-rule="evenodd" stroke="none"/>
    <path d="M44.4 -67.35 L44.1 -67.1 44.25 -67.35 44.4 -67.35" fill="url(#gradient5)" fill-rule="evenodd" stroke="none"/>
    <path d="M42.3 -67.35 L41.95 -67.65 42.25 -67.65 42.3 -67.35" fill="url(#gradient6)" fill-rule="evenodd" stroke="none"/>
    <path d="M37.0 -69.95 L36.75 -69.35 36.7 -68.3 34.3 -68.65 34.45 -70.2 37.0 -69.95 M41.8 -67.7 L42.0 -68.55 42.25 -67.65 41.95 -67.65 41.8 -67.7" fill="url(#gradient7)" fill-rule="evenodd" stroke="none"/>
    <path d="M22.05 -78.2 L22.5 -79.3 Q23.3 -80.55 24.7 -79.3 L24.9 -79.1 23.85 -79.05 22.05 -78.2" fill="url(#gradient8)" fill-rule="evenodd" stroke="none"/>
    <path d="M24.9 -79.1 L26.7 -79.2 27.25 -79.0 28.0 -78.65 29.05 -77.3 29.55 -75.75 29.8 -73.75 29.8 -73.05 29.5 -72.15 28.9 -70.55 28.5 -69.9 28.1 -69.3 26.65 -67.75 Q26.6 -67.5 24.75 -66.8 25.75 -73.1 24.4 -73.75 23.3 -74.85 20.9 -73.75 L20.55 -73.45 19.8 -72.1 Q19.75 -76.9 22.05 -78.2 L23.85 -79.05 24.9 -79.1" fill="url(#gradient9)" fill-rule="evenodd" stroke="none"/>
    <path d="M30.3 -75.95 L30.6 -75.35 30.95 -72.75 30.65 -70.95 29.95 -69.25 29.8 -69.05 Q30.0 -71.25 29.8 -71.05 L29.5 -72.15 29.8 -73.05 29.8 -73.75 29.55 -75.75 29.05 -77.3 29.65 -77.2 30.3 -75.95" fill="url(#gradient10)" fill-rule="evenodd" stroke="none"/>
    <path d="M27.25 -79.0 L29.0 -79.45 31.85 -77.7 33.6 -74.95 Q34.8 -71.6 33.8 -68.8 33.3 -75.3 30.3 -75.95 L29.65 -77.2 29.05 -77.3 28.0 -78.65 27.25 -79.0" fill="url(#gradient11)" fill-rule="evenodd" stroke="none"/>
    <path d="M19.8 -72.1 L20.55 -73.45 20.9 -73.75 Q23.3 -74.85 24.4 -73.75 25.75 -73.1 24.75 -66.8 L24.75 -66.5 24.75 -64.75 25.55 -52.55 26.2 -48.8 27.05 -44.75 25.0 -48.65 23.75 -51.4 21.9 -56.3 19.8 -63.65 19.75 -63.75 Q18.95 -70.7 19.8 -72.1" fill="url(#gradient12)" fill-rule="evenodd" stroke="none"/>
    <path d="M28.15 -67.85 L28.55 -67.95 28.5 -66.95 28.45 -65.95 Q26.25 -64.95 24.75 -64.75 L24.75 -66.5 27.75 -67.55 28.15 -67.85 M19.8 -63.65 L19.1 -63.35 19.75 -63.75 19.8 -63.65" fill="url(#gradient13)" fill-rule="evenodd" stroke="none"/>
    <path d="M28.5 -66.95 Q33.8 -69.0 36.2 -66.4 37.75 -65.05 35.85 -62.2 L29.7 -55.35 28.65 -53.8 28.1 -53.3 27.55 -53.3 25.55 -52.55 24.75 -64.75 Q26.25 -64.95 28.45 -65.95 L28.5 -66.95 M15.75 -55.3 Q11.4 -60.5 18.95 -63.25 L19.05 -63.3 19.1 -63.35 19.8 -63.65 21.9 -56.3 23.75 -51.4 Q22.0 -49.95 19.4 -52.2 L19.6 -52.9 Q16.4 -54.45 15.75 -55.3 M16.75 -46.0 L15.95 -43.55 15.85 -39.9 13.8 -40.85 14.9 -43.35 16.75 -46.0 M16.7 -39.6 Q16.95 -40.25 18.35 -39.8 L19.05 -38.95 16.7 -39.6 M21.9 -38.4 L22.2 -48.35 22.8 -48.15 25.0 -48.65 27.05 -44.75 26.2 -48.8 28.6 -50.8 28.85 -52.05 30.6 -51.4 31.45 -50.75 32.1 -49.9 Q32.95 -47.75 32.1 -43.5 L31.6 -42.0 29.5 -40.35 25.2 -38.35 Q23.8 -38.0 21.9 -38.4 M21.25 -52.3 L21.55 -52.4 21.7 -52.8 21.55 -52.9 20.4 -52.7 21.25 -52.3" fill="url(#gradient14)" fill-rule="evenodd" stroke="none"/>
    <path d="M15.75 -55.3 Q16.4 -54.45 19.6 -52.9 L19.4 -52.2 18.25 -49.9 18.2 -49.7 15.65 -45.35 14.7 -46.6 Q12.5 -47.8 12.25 -47.55 L15.75 -55.3" fill="url(#gradient15)" fill-rule="evenodd" stroke="none"/>
    <path d="M18.6 -49.55 Q17.9 -49.1 18.5 -47.95 L16.75 -46.0 14.9 -43.35 13.8 -40.85 13.6 -40.5 13.0 -37.95 12.9 -37.75 12.9 -37.95 12.65 -41.05 Q15.65 -43.95 15.65 -45.35 L18.2 -49.7 18.6 -49.55" fill="url(#gradient16)" fill-rule="evenodd" stroke="none"/>
    <path d="M19.4 -52.2 Q22.0 -49.95 23.75 -51.4 L25.0 -48.65 22.8 -48.15 22.2 -48.35 22.35 -49.2 Q21.0 -49.4 20.65 -49.9 L19.0 -50.15 18.6 -49.55 18.2 -49.7 18.25 -49.9 19.4 -52.2 M28.65 -53.8 L28.9 -53.45 28.85 -52.05 28.6 -50.8 26.2 -48.8 25.55 -52.55 27.55 -53.3 28.1 -53.3 28.65 -53.8" fill="url(#gradient17)" fill-rule="evenodd" stroke="none"/>
    <path d="M18.6 -49.55 L19.0 -50.15 20.65 -49.9 Q21.0 -49.4 22.35 -49.2 L22.2 -48.35 21.9 -38.4 21.7 -35.3 20.55 -36.55 19.75 -37.95 19.05 -38.95 18.35 -39.8 Q16.95 -40.25 16.7 -39.6 L15.8 -39.0 15.85 -39.9 15.95 -43.55 16.75 -46.0 18.5 -47.95 Q17.9 -49.1 18.6 -49.55" fill="url(#gradient18)" fill-rule="evenodd" stroke="none"/>
    <path d="M34.45 -70.2 L34.3 -68.65 34.2 -69.35 34.45 -70.2" fill="url(#gradient19)" fill-rule="evenodd" stroke="none"/>
    <path d="M37.15 -67.6 Q38.95 -70.3 40.7 -66.55 42.0 -62.5 38.05 -62.3 40.5 -62.8 40.15 -64.25 40.05 -65.4 39.05 -65.8 L36.65 -66.35 36.9 -66.9 37.15 -67.25 37.15 -67.6" fill="url(#gradient20)" fill-rule="evenodd" stroke="none"/>
    <path d="M36.7 -68.15 L37.15 -67.6 37.15 -67.25 36.9 -66.9 36.65 -67.55 36.7 -68.15" fill="url(#gradient21)" fill-rule="evenodd" stroke="none"/>
    <path d="M36.2 -66.4 L36.65 -66.35 39.05 -65.8 Q40.05 -65.4 40.15 -64.25 40.5 -62.8 38.05 -62.3 L35.85 -62.2 Q37.75 -65.05 36.2 -66.4" fill="url(#gradient22)" fill-rule="evenodd" stroke="none"/>
    <path d="M29.8 -71.05 L29.45 -68.85 29.2 -68.55 29.0 -69.85 28.9 -70.0 28.5 -69.9 28.9 -70.55 29.5 -72.15 29.8 -71.05" fill="url(#gradient23)" fill-rule="evenodd" stroke="none"/>
    <path d="M28.1 -69.3 L28.5 -69.9 28.9 -70.0 29.0 -69.85 29.2 -68.55 28.15 -69.3 28.1 -69.3" fill="url(#gradient24)" fill-rule="evenodd" stroke="none"/>
    <path d="M29.2 -68.55 L28.75 -68.2 28.15 -68.95 28.15 -69.3 29.2 -68.55" fill="url(#gradient25)" fill-rule="evenodd" stroke="none"/>
    <path d="M28.15 -67.9 L28.15 -67.85 27.75 -67.55 24.75 -66.5 24.75 -66.8 Q26.6 -67.5 26.65 -67.75 L28.1 -69.3 28.15 -69.3 28.15 -68.95 28.15 -67.9" fill="url(#gradient26)" fill-rule="evenodd" stroke="none"/>
    <path d="M28.75 -68.2 L28.15 -67.9 28.15 -68.95 28.75 -68.2" fill="url(#gradient27)" fill-rule="evenodd" stroke="none"/>
    <path d="M21.25 -52.3 L20.4 -52.7 21.55 -52.9 21.7 -52.8 21.55 -52.4 21.25 -52.3" fill="url(#gradient28)" fill-rule="evenodd" stroke="none"/>
    <path d="M31.45 -50.75 L32.1 -50.65 33.8 -49.7 Q35.05 -49.3 35.25 -47.15 L35.55 -46.9 35.6 -46.45 35.9 -46.1 35.5 -45.45 Q33.45 -44.6 32.2 -43.5 L32.1 -43.5 Q32.95 -47.75 32.1 -49.9 L31.45 -50.75" fill="url(#gradient29)" fill-rule="evenodd" stroke="none"/>
    <path d="M33.8 -49.7 Q36.05 -49.15 36.25 -47.45 L36.25 -47.2 35.55 -46.9 35.25 -47.15 Q35.05 -49.3 33.8 -49.7" fill="url(#gradient30)" fill-rule="evenodd" stroke="none"/>
    <path d="M36.25 -47.45 L36.45 -47.05 36.25 -47.2 36.25 -47.45" fill="url(#gradient31)" fill-rule="evenodd" stroke="none"/>
    <path d="M36.45 -47.05 Q38.4 -45.2 38.0 -38.75 L37.75 -38.1 37.3 -37.95 Q35.7 -36.65 33.5 -37.95 L33.15 -38.15 32.4 -40.5 Q31.95 -41.95 32.2 -43.5 33.45 -44.6 35.5 -45.45 L35.9 -46.1 35.6 -46.45 35.55 -46.9 36.25 -47.2 36.45 -47.05" fill="url(#gradient32)" fill-rule="evenodd" stroke="none"/>
    <path d="M38.0 -38.75 L37.65 -33.35 Q36.8 -31.8 37.6 -30.25 L37.15 -29.05 36.6 -28.75 33.8 -28.8 33.6 -29.05 Q33.3 -30.3 33.75 -33.8 L33.15 -38.15 33.5 -37.95 Q35.7 -36.65 37.3 -37.95 L37.75 -38.1 38.0 -38.75" fill="url(#gradient33)" fill-rule="evenodd" stroke="none"/>
    <path d="M37.65 -33.35 Q40.5 -34.7 41.75 -32.05 L41.85 -31.45 41.75 -31.35 39.35 -28.4 37.05 -26.25 Q36.1 -25.5 35.05 -25.55 32.25 -26.55 33.6 -29.05 L33.8 -28.8 36.6 -28.75 37.15 -29.05 37.6 -30.25 Q36.8 -31.8 37.65 -33.35" fill="url(#gradient34)" fill-rule="evenodd" stroke="none"/>
    <path d="M15.65 -45.35 Q15.65 -43.95 12.65 -41.05 L12.2 -40.75 12.15 -40.7 Q10.85 -39.55 8.3 -38.35 L6.5 -36.8 5.8 -37.95 4.9 -38.65 3.85 -38.95 Q10.4 -47.75 12.25 -47.5 L12.25 -47.55 Q12.5 -47.8 14.7 -46.6 L15.65 -45.35" fill="url(#gradient35)" fill-rule="evenodd" stroke="none"/>
    <path d="M15.85 -39.9 L15.8 -39.0 16.7 -39.6 19.05 -38.95 19.75 -37.95 20.55 -36.55 Q15.3 -29.0 13.55 -27.95 L12.2 -25.55 11.85 -25.25 9.4 -28.7 9.2 -29.65 8.95 -29.75 8.95 -29.9 9.1 -31.2 9.1 -31.35 Q8.85 -31.55 10.25 -36.5 L12.15 -40.7 12.2 -40.75 12.65 -41.05 12.9 -37.95 12.9 -37.75 13.0 -37.95 13.6 -40.5 13.8 -40.85 15.85 -39.9" fill="url(#gradient36)" fill-rule="evenodd" stroke="none"/>
    <path d="M3.85 -38.95 L4.9 -38.65 5.8 -37.95 6.5 -36.8 Q7.25 -35.3 5.7 -33.3 L4.9 -33.1 4.6 -33.05 4.55 -33.0 3.35 -32.7 3.1 -32.6 3.2 -32.4 2.1 -32.55 1.35 -33.0 0.45 -33.9 0.25 -34.4 0.2 -34.5 0.05 -35.3 0.15 -36.5 0.45 -37.35 0.9 -37.95 1.65 -38.55 2.7 -38.95 3.85 -38.95" fill="url(#gradient37)" fill-rule="evenodd" stroke="none"/>
    <path d="M0.15 -36.5 L-1.85 -38.95 -1.75 -39.2 Q-0.8 -40.2 0.35 -40.25 L1.65 -38.55 0.9 -37.95 0.45 -37.35 0.15 -36.5 M3.2 -32.4 L3.1 -32.6 3.35 -32.7 4.55 -33.0 3.7 -31.85 3.2 -32.4 M4.9 -33.1 L5.7 -33.3 5.8 -33.1 4.9 -33.1" fill="url(#gradient38)" fill-rule="evenodd" stroke="none"/>
    <path d="M4.6 -33.05 L4.9 -33.1 5.8 -33.1 6.85 -33.05 8.0 -31.55 7.7 -31.05 7.0 -30.1 4.6 -33.05" fill="url(#gradient39)" fill-rule="evenodd" stroke="none"/>
    <path d="M9.1 -31.35 L9.1 -31.2 9.05 -31.2 9.1 -31.35" fill="url(#gradient40)" fill-rule="evenodd" stroke="none"/>
    <path d="M9.1 -31.2 L8.95 -29.9 8.95 -29.75 9.2 -29.65 9.4 -28.7 8.5 -30.0 8.85 -30.55 9.05 -31.2 9.1 -31.2 M7.7 -26.35 L7.75 -26.35 7.9 -26.2 7.9 -26.15 7.8 -26.0 7.6 -25.95 7.7 -26.35" fill="url(#gradient41)" fill-rule="evenodd" stroke="none"/>
    <path d="M0.2 -34.5 L0.25 -34.4 0.2 -34.4 0.2 -34.5" fill="url(#gradient42)" fill-rule="evenodd" stroke="none"/>
    <path d="M0.25 -34.4 L0.45 -33.9 1.35 -33.0 Q0.95 -33.2 0.6 -33.35 L0.2 -34.4 0.25 -34.4" fill="url(#gradient43)" fill-rule="evenodd" stroke="none"/>
    <path d="M4.55 -33.0 L4.6 -33.05 7.0 -30.1 5.05 -29.65 4.55 -29.55 Q4.7 -28.9 3.2 -31.1 L3.7 -31.85 4.55 -33.0" fill="url(#gradient44)" fill-rule="evenodd" stroke="none"/>
    <path d="M4.55 -29.55 L5.05 -29.65 5.15 -29.45 4.55 -29.55" fill="url(#gradient45)" fill-rule="evenodd" stroke="none"/>
    <path d="M9.4 -28.7 L11.85 -25.25 12.35 -24.6 Q23.7 -8.0 11.85 -21.4 L8.05 -26.0 8.0 -26.05 7.9 -26.2 7.75 -26.35 7.7 -26.4 5.2 -29.4 5.15 -29.45 5.05 -29.65 7.0 -30.1 7.7 -31.05 8.5 -30.0 9.4 -28.7" fill="url(#gradient46)" fill-rule="evenodd" stroke="none"/>
    <path d="M7.7 -26.4 L7.75 -26.35 7.7 -26.35 7.7 -26.4 M7.9 -26.2 L8.0 -26.05 7.9 -26.15 7.9 -26.2" fill="url(#gradient47)" fill-rule="evenodd" stroke="none"/>
    <path d="M11.85 -25.25 L12.2 -25.55 12.35 -24.6 11.85 -25.25 M8.0 -26.05 L8.05 -26.0 11.85 -21.4 11.2 -19.45 Q10.5 -17.75 9.1 -15.75 5.05 -15.3 4.2 -17.8 L4.3 -18.0 Q4.7 -22.2 7.6 -25.95 L7.8 -26.0 7.9 -26.15 8.0 -26.05" fill="url(#gradient48)" fill-rule="evenodd" stroke="none"/>
    <path d="M4.3 -18.0 L4.2 -17.8 4.2 -17.9 4.3 -18.0" fill="url(#gradient49)" fill-rule="evenodd" stroke="none"/>
    <path d="M4.2 -17.8 Q5.05 -15.3 9.1 -15.75 8.05 -14.15 5.25 -7.2 L4.6 -4.5 4.5 -4.3 4.35 -4.5 4.05 -4.4 Q1.1 -6.6 -0.45 -5.6 L-0.8 -6.45 0.1 -7.6 1.1 -8.95 4.2 -17.9 4.2 -17.8" fill="url(#gradient50)" fill-rule="evenodd" stroke="none"/>
    <path d="M0.1 -7.6 L-0.8 -6.45 -0.45 -5.6 Q1.1 -6.6 4.05 -4.4 L4.35 -4.5 4.5 -4.3 4.6 -4.5 Q4.85 -3.15 4.6 -2.3 3.75 0.4 -1.95 -2.3 -4.05 -3.3 -6.8 -4.95 -6.5 -11.2 0.1 -7.6" fill="url(#gradient51)" fill-rule="evenodd" stroke="none"/>
  </g>
  <defs>
    <radialGradient cx="0" cy="0" gradientTransform="matrix(0.0039, 0.0, 0.0, 0.0039, 45.0, -68.75)" gradientUnits="userSpaceOnUse" id="gradient0" r="819.2" spreadMethod="pad">
      <stop offset="0.0" stop-color="#cdc139"/>
      <stop offset="1.0" stop-color="#918828"/>
    </radialGradient>
    <radialGradient cx="0" cy="0" gradientTransform="matrix(0.0028, 0.0, 0.0, 0.0028, 42.15, -69.7)" gradientUnits="userSpaceOnUse" id="gradient1" r="819.2" spreadMethod="pad">
      <stop offset="0.0" stop-color="#222009"/>
      <stop offset="1.0" stop-color="#222009"/>
    </radialGradient>
    <radialGradient cx="0" cy="0" gradientTransform="matrix(0.0036, 0.0, 0.0, 0.0036, 39.5, -69.35)" gradientUnits="userSpaceOnUse" id="gradient2" r="819.2" spreadMethod="pad">
      <stop offset="0.0" stop-color="#fff38e"/>
      <stop offset="1.0" stop-color="#a27242"/>
    </radialGradient>
    <radialGradient cx="0" cy="0" gradientTransform="matrix(0.0037, 0.0, 0.0, 0.0037, 42.3, -67.4)" gradientUnits="userSpaceOnUse" id="gradient3" r="819.2" spreadMethod="pad">
      <stop offset="0.0" stop-color="#ffff52"/>
      <stop offset="1.0" stop-color="#ffff52"/>
    </radialGradient>
    <radialGradient cx="0" cy="0" gradientTransform="matrix(0.0191, 0.0, 0.0, 0.0191, 43.0, -67.55)" gradientUnits="userSpaceOnUse" id="gradient4" r="819.2" spreadMethod="pad">
      <stop offset="0.0" stop-color="#e4e4e4"/>
      <stop offset="1.0" stop-color="#e2e2e2"/>
    </radialGradient>
    <radialGradient cx="0" cy="0" gradientTransform="matrix(0.0025, 0.0, 0.0, 0.0025, 44.6, -67.65)" gradientUnits="userSpaceOnUse" id="gradient5" r="819.2" spreadMethod="pad">
      <stop offset="0.0" stop-color="#b9ae34"/>
      <stop offset="1.0" stop-color="#afa431"/>
    </radialGradient>
    <radialGradient cx="0" cy="0" gradientTransform="matrix(0.0028, 0.0, 0.0, 0.0028, 42.3, -67.4)" gradientUnits="userSpaceOnUse" id="gradient6" r="819.2" spreadMethod="pad">
      <stop offset="0.0" stop-color="#bcb135"/>
      <stop offset="1.0" stop-color="#bbb034"/>
    </radialGradient>
    <radialGradient cx="0" cy="0" gradientTransform="matrix(0.0106, 0.0, 0.0, 0.0106, 42.75, -68.2)" gradientUnits="userSpaceOnUse" id="gradient7" r="819.2" spreadMethod="pad">
      <stop offset="0.0" stop-color="#ff3d3d"/>
      <stop offset="1.0" stop-color="#b62828"/>
    </radialGradient>
    <radialGradient cx="0" cy="0" gradientTransform="matrix(0.0035, 0.0, 0.0, 0.0035, 24.55, -77.6)" gradientUnits="userSpaceOnUse" id="gradient8" r="819.2" spreadMethod="pad">
      <stop offset="0.0" stop-color="#585340"/>
      <stop offset="1.0" stop-color="#504b3a"/>
    </radialGradient>
    <radialGradient cx="0" cy="0" gradientTransform="matrix(0.0083, 0.0, 0.0, 0.0083, 24.65, -72.85)" gradientUnits="userSpaceOnUse" id="gradient9" r="819.2" spreadMethod="pad">
      <stop offset="0.0" stop-color="#67604b"/>
      <stop offset="1.0" stop-color="#343126"/>
    </radialGradient>
    <radialGradient cx="0" cy="0" gradientTransform="matrix(0.0068, 0.0, 0.0, 0.0068, 30.15, -73.25)" gradientUnits="userSpaceOnUse" id="gradient10" r="819.2" spreadMethod="pad">
      <stop offset="0.0" stop-color="#69624c"/>
      <stop offset="1.0" stop-color="#3b372a"/>
    </radialGradient>
    <radialGradient cx="0" cy="0" gradientTransform="matrix(0.0139, 0.0, 0.0, 0.0139, 26.35, -77.5)" gradientUnits="userSpaceOnUse" id="gradient11" r="819.2" spreadMethod="pad">
      <stop offset="0.0" stop-color="#68614c"/>
      <stop offset="1.0" stop-color="#413d2f"/>
    </radialGradient>
    <radialGradient cx="0" cy="0" gradientTransform="matrix(0.0283, 0.0, 0.0, 0.0283, 22.6, -67.65)" gradientUnits="userSpaceOnUse" id="gradient12" r="819.2" spreadMethod="pad">
      <stop offset="0.0" stop-color="#665f4a"/>
      <stop offset="1.0" stop-color="#3d392c"/>
    </radialGradient>
    <radialGradient cx="0" cy="0" gradientTransform="matrix(0.0104, 0.0, 0.0, 0.0104, 26.0, -67.1)" gradientUnits="userSpaceOnUse" id="gradient13" r="819.2" spreadMethod="pad">
      <stop offset="0.0" stop-color="#72c1eb"/>
      <stop offset="1.0" stop-color="#497c97"/>
    </radialGradient>
    <radialGradient cx="0" cy="0" gradientTransform="matrix(0.0306, 0.0, 0.0, 0.0306, 21.9, -46.2)" gradientUnits="userSpaceOnUse" id="gradient14" r="819.2" spreadMethod="pad">
      <stop offset="0.0" stop-color="#446a8f"/>
      <stop offset="1.0" stop-color="#233649"/>
    </radialGradient>
    <radialGradient cx="0" cy="0" gradientTransform="matrix(0.0096, 0.0, 0.0, 0.0096, 14.75, -49.15)" gradientUnits="userSpaceOnUse" id="gradient15" r="819.2" spreadMethod="pad">
      <stop offset="0.0" stop-color="#ffde81"/>
      <stop offset="1.0" stop-color="#e7ad65"/>
    </radialGradient>
    <radialGradient cx="0" cy="0" gradientTransform="matrix(0.0107, 0.0, 0.0, 0.0107, 16.4, -45.85)" gradientUnits="userSpaceOnUse" id="gradient16" r="819.2" spreadMethod="pad">
      <stop offset="0.0" stop-color="#fcf0c3"/>
      <stop offset="1.0" stop-color="#b8af8e"/>
    </radialGradient>
    <radialGradient cx="0" cy="0" gradientTransform="matrix(0.008, 0.0, 0.0, 0.008, 22.55, -51.55)" gradientUnits="userSpaceOnUse" id="gradient17" r="819.2" spreadMethod="pad">
      <stop offset="0.0" stop-color="#fffecf"/>
      <stop offset="1.0" stop-color="#a29a7d"/>
    </radialGradient>
    <radialGradient cx="0" cy="0" gradientTransform="matrix(0.0154, 0.0, 0.0, 0.0154, 22.05, -48.0)" gradientUnits="userSpaceOnUse" id="gradient18" r="819.2" spreadMethod="pad">
      <stop offset="0.0" stop-color="#ffffd2"/>
      <stop offset="1.0" stop-color="#e8dcb3"/>
    </radialGradient>
    <radialGradient cx="0" cy="0" gradientTransform="matrix(0.0018, 0.0, 0.0, 0.0018, 34.3, -68.85)" gradientUnits="userSpaceOnUse" id="gradient19" r="819.2" spreadMethod="pad">
      <stop offset="0.0" stop-color="#851d1d"/>
      <stop offset="1.0" stop-color="#841d1d"/>
    </radialGradient>
    <radialGradient cx="0" cy="0" gradientTransform="matrix(0.0064, 0.0, 0.0, 0.0064, 39.5, -64.15)" gradientUnits="userSpaceOnUse" id="gradient20" r="819.2" spreadMethod="pad">
      <stop offset="0.0" stop-color="#948787"/>
      <stop offset="1.0" stop-color="#3e3939"/>
    </radialGradient>
    <radialGradient cx="0" cy="0" gradientTransform="matrix(0.0013, 0.0, 0.0, 0.0013, 37.2, -67.45)" gradientUnits="userSpaceOnUse" id="gradient21" r="819.2" spreadMethod="pad">
      <stop offset="0.0" stop-color="#ffc975"/>
      <stop offset="1.0" stop-color="#b7814b"/>
    </radialGradient>
    <radialGradient cx="0" cy="0" gradientTransform="matrix(0.0046, 0.0, 0.0, 0.0046, 38.15, -64.45)" gradientUnits="userSpaceOnUse" id="gradient22" r="819.2" spreadMethod="pad">
      <stop offset="0.0" stop-color="#d59657"/>
      <stop offset="1.0" stop-color="#876038"/>
    </radialGradient>
    <radialGradient cx="0" cy="0" gradientTransform="matrix(0.0049, 0.0, 0.0, 0.0049, 29.05, -68.6)" gradientUnits="userSpaceOnUse" id="gradient23" r="819.2" spreadMethod="pad">
      <stop offset="0.0" stop-color="#d19356"/>
      <stop offset="1.0" stop-color="#b8814b"/>
    </radialGradient>
    <radialGradient cx="0" cy="0" gradientTransform="matrix(0.0023, 0.0, 0.0, 0.0023, 27.6, -69.75)" gradientUnits="userSpaceOnUse" id="gradient24" r="819.2" spreadMethod="pad">
      <stop offset="0.0" stop-color="#ffc070"/>
      <stop offset="1.0" stop-color="#f3ab64"/>
    </radialGradient>
    <radialGradient cx="0" cy="0" gradientTransform="matrix(0.0023, 0.0, 0.0, 0.0023, 27.6, -69.75)" gradientUnits="userSpaceOnUse" id="gradient25" r="819.2" spreadMethod="pad">
      <stop offset="0.0" stop-color="#dc9c5b"/>
      <stop offset="1.0" stop-color="#d89859"/>
    </radialGradient>
    <radialGradient cx="0" cy="0" gradientTransform="matrix(0.0064, 0.0, 0.0, 0.0064, 25.55, -66.25)" gradientUnits="userSpaceOnUse" id="gradient26" r="819.2" spreadMethod="pad">
      <stop offset="0.0" stop-color="#ffce78"/>
      <stop offset="1.0" stop-color="#d09255"/>
    </radialGradient>
    <radialGradient cx="0" cy="0" gradientTransform="matrix(0.0034, 0.0, 0.0, 0.0034, 28.65, -68.3)" gradientUnits="userSpaceOnUse" id="gradient27" r="819.2" spreadMethod="pad">
      <stop offset="0.0" stop-color="#ffc472"/>
      <stop offset="1.0" stop-color="#b47f4a"/>
    </radialGradient>
    <radialGradient cx="0" cy="0" gradientTransform="matrix(0.0056, 0.0, 0.0, 0.0056, 19.5, -54.6)" gradientUnits="userSpaceOnUse" id="gradient28" r="819.2" spreadMethod="pad">
      <stop offset="0.0" stop-color="#996c3f"/>
      <stop offset="1.0" stop-color="#805a35"/>
    </radialGradient>
    <radialGradient cx="0" cy="0" gradientTransform="matrix(0.0127, 0.0, 0.0, 0.0127, 36.5, -44.2)" gradientUnits="userSpaceOnUse" id="gradient29" r="819.2" spreadMethod="pad">
      <stop offset="0.0" stop-color="#d89859"/>
      <stop offset="1.0" stop-color="#8d633a"/>
    </radialGradient>
    <radialGradient cx="0" cy="0" gradientTransform="matrix(0.0027, 0.0, 0.0, 0.0027, 35.35, -48.35)" gradientUnits="userSpaceOnUse" id="gradient30" r="819.2" spreadMethod="pad">
      <stop offset="0.0" stop-color="#d89959"/>
      <stop offset="1.0" stop-color="#a37343"/>
    </radialGradient>
    <radialGradient cx="0" cy="0" gradientTransform="matrix(0.0018, 0.0, 0.0, 0.0018, 36.55, -46.25)" gradientUnits="userSpaceOnUse" id="gradient31" r="819.2" spreadMethod="pad">
      <stop offset="0.0" stop-color="#ba834c"/>
      <stop offset="1.0" stop-color="#b47f4a"/>
    </radialGradient>
    <radialGradient cx="0" cy="0" gradientTransform="matrix(0.0119, 0.0, 0.0, 0.0119, 34.75, -46.4)" gradientUnits="userSpaceOnUse" id="gradient32" r="819.2" spreadMethod="pad">
      <stop offset="0.0" stop-color="#fff58f"/>
      <stop offset="1.0" stop-color="#c0874f"/>
    </radialGradient>
    <radialGradient cx="0" cy="0" gradientTransform="matrix(0.0144, 0.0, 0.0, 0.0144, 35.4, -27.35)" gradientUnits="userSpaceOnUse" id="gradient33" r="819.2" spreadMethod="pad">
      <stop offset="0.0" stop-color="#8b7e7e"/>
      <stop offset="1.0" stop-color="#544d4d"/>
    </radialGradient>
    <radialGradient cx="0" cy="0" gradientTransform="matrix(0.0092, 0.0, 0.0, 0.0092, 34.75, -29.1)" gradientUnits="userSpaceOnUse" id="gradient34" r="819.2" spreadMethod="pad">
      <stop offset="0.0" stop-color="#fff991"/>
      <stop offset="1.0" stop-color="#da9a59"/>
    </radialGradient>
    <radialGradient cx="0" cy="0" gradientTransform="matrix(0.0136, 0.0, 0.0, 0.0136, 11.1, -43.85)" gradientUnits="userSpaceOnUse" id="gradient35" r="819.2" spreadMethod="pad">
      <stop offset="0.0" stop-color="#968989"/>
      <stop offset="1.0" stop-color="#615858"/>
    </radialGradient>
    <radialGradient cx="0" cy="0" gradientTransform="matrix(0.0247, 0.0, 0.0, 0.0247, 18.15, -41.75)" gradientUnits="userSpaceOnUse" id="gradient36" r="819.2" spreadMethod="pad">
      <stop offset="0.0" stop-color="#ffe585"/>
      <stop offset="1.0" stop-color="#d79858"/>
    </radialGradient>
    <radialGradient cx="0" cy="0" gradientTransform="matrix(0.0049, 0.0, 0.0, 0.0049, 3.25, -36.5)" gradientUnits="userSpaceOnUse" id="gradient37" r="819.2" spreadMethod="pad">
      <stop offset="0.0" stop-color="#ffdf82"/>
      <stop offset="1.0" stop-color="#93673c"/>
    </radialGradient>
    <radialGradient cx="0" cy="0" gradientTransform="matrix(0.0121, 0.0, 0.0, 0.0121, 4.75, -31.85)" gradientUnits="userSpaceOnUse" id="gradient38" r="819.2" spreadMethod="pad">
      <stop offset="0.0" stop-color="#fa3838"/>
      <stop offset="1.0" stop-color="#db3131"/>
    </radialGradient>
    <radialGradient cx="0" cy="0" gradientTransform="matrix(0.0037, 0.0, 0.0, 0.0037, 6.65, -33.2)" gradientUnits="userSpaceOnUse" id="gradient39" r="819.2" spreadMethod="pad">
      <stop offset="0.0" stop-color="#dbce3d"/>
      <stop offset="1.0" stop-color="#dacd3d"/>
    </radialGradient>
    <radialGradient cx="0" cy="0" gradientTransform="matrix(0.0181, 0.0, 0.0, 0.0181, 9.35, -29.15)" gradientUnits="userSpaceOnUse" id="gradient40" r="819.2" spreadMethod="pad">
      <stop offset="0.0" stop-color="#261b10"/>
      <stop offset="1.0" stop-color="#261b10"/>
    </radialGradient>
    <radialGradient cx="0" cy="0" gradientTransform="matrix(0.007, 0.0, 0.0, 0.007, 9.75, -28.2)" gradientUnits="userSpaceOnUse" id="gradient41" r="819.2" spreadMethod="pad">
      <stop offset="0.0" stop-color="#ffd47c"/>
      <stop offset="1.0" stop-color="#cd9154"/>
    </radialGradient>
    <radialGradient cx="0" cy="0" gradientTransform="matrix(0.0055, 0.0, 0.0, 0.0055, 0.0, -36.0)" gradientUnits="userSpaceOnUse" id="gradient42" r="819.2" spreadMethod="pad">
      <stop offset="0.0" stop-color="#b8824c"/>
      <stop offset="1.0" stop-color="#634628"/>
    </radialGradient>
    <radialGradient cx="0" cy="0" gradientTransform="matrix(0.0022, 0.0, 0.0, 0.0022, 0.35, -34.5)" gradientUnits="userSpaceOnUse" id="gradient43" r="819.2" spreadMethod="pad">
      <stop offset="0.0" stop-color="#d89859"/>
      <stop offset="1.0" stop-color="#7e5934"/>
    </radialGradient>
    <radialGradient cx="0" cy="0" gradientTransform="matrix(0.0049, 0.0, 0.0, 0.0049, 3.1, -31.25)" gradientUnits="userSpaceOnUse" id="gradient44" r="819.2" spreadMethod="pad">
      <stop offset="0.0" stop-color="#ffff4c"/>
      <stop offset="1.0" stop-color="#f6f248"/>
    </radialGradient>
    <radialGradient cx="0" cy="0" gradientTransform="matrix(0.005, 0.0, 0.0, 0.005, 7.9, -31.6)" gradientUnits="userSpaceOnUse" id="gradient45" r="819.2" spreadMethod="pad">
      <stop offset="0.0" stop-color="#ffff4d"/>
      <stop offset="1.0" stop-color="#faeb46"/>
    </radialGradient>
    <radialGradient cx="0" cy="0" gradientTransform="matrix(0.0245, 0.0, 0.0, 0.0245, 6.8, -32.25)" gradientUnits="userSpaceOnUse" id="gradient46" r="819.2" spreadMethod="pad">
      <stop offset="0.0" stop-color="#ffffff"/>
      <stop offset="1.0" stop-color="#ffffff"/>
    </radialGradient>
    <radialGradient cx="0" cy="0" gradientTransform="matrix(0.0198, 0.0, 0.0, 0.0198, 4.1, -30.8)" gradientUnits="userSpaceOnUse" id="gradient47" r="819.2" spreadMethod="pad">
      <stop offset="0.0" stop-color="#202020"/>
      <stop offset="1.0" stop-color="#202020"/>
    </radialGradient>
    <radialGradient cx="0" cy="0" gradientTransform="matrix(0.0128, 0.0, 0.0, 0.0128, 9.9, -24.6)" gradientUnits="userSpaceOnUse" id="gradient48" r="819.2" spreadMethod="pad">
      <stop offset="0.0" stop-color="#fff08c"/>
      <stop offset="1.0" stop-color="#d09255"/>
    </radialGradient>
    <radialGradient cx="0" cy="0" gradientTransform="matrix(0.0098, 0.0, 0.0, 0.0098, 4.2, -17.8)" gradientUnits="userSpaceOnUse" id="gradient49" r="819.2" spreadMethod="pad">
      <stop offset="0.0" stop-color="#b07c48"/>
      <stop offset="1.0" stop-color="#261b10"/>
    </radialGradient>
    <radialGradient cx="0" cy="0" gradientTransform="matrix(0.0173, 0.0, 0.0, 0.0173, 1.55, -4.15)" gradientUnits="userSpaceOnUse" id="gradient50" r="819.2" spreadMethod="pad">
      <stop offset="0.0" stop-color="#9b8d8d"/>
      <stop offset="1.0" stop-color="#5d5555"/>
    </radialGradient>
    <radialGradient cx="0" cy="0" gradientTransform="matrix(0.0124, 0.0, 0.0, 0.0124, 2.95, -4.85)" gradientUnits="userSpaceOnUse" id="gradient51" r="819.2" spreadMethod="pad">
      <stop offset="0.0" stop-color="#ffee8b"/>
      <stop offset="1.0" stop-color="#f6ad65"/>
    </radialGradient>
  </defs>
</svg>
