<?xml version="1.0" encoding="UTF-8" standalone="no"?>
<svg xmlns:ffdec="https://www.free-decompiler.com/flash" xmlns:xlink="http://www.w3.org/1999/xlink" ffdec:objectType="shape" height="71.25px" width="48.05px" xmlns="http://www.w3.org/2000/svg">
  <g transform="matrix(1.0, 0.0, 0.0, 1.0, 11.2, 63.65)">
    <path d="M21.35 -59.9 L21.75 -59.25 21.7 -58.85 Q22.05 -55.55 15.15 -55.5 16.0 -54.95 11.6 -56.8 L11.45 -56.85 11.4 -56.95 10.9 -58.85 10.85 -59.6 11.0 -60.6 11.2 -60.75 12.2 -61.85 13.0 -62.7 13.3 -62.95 16.5 -63.65 19.45 -62.4 20.2 -61.9 21.35 -59.9" fill="url(#gradient0)" fill-rule="evenodd" stroke="none"/>
    <path d="M12.2 -61.85 Q10.1 -63.95 13.0 -62.7 L12.2 -61.85" fill="url(#gradient1)" fill-rule="evenodd" stroke="none"/>
    <path d="M8.45 -58.5 L9.5 -59.9 Q10.6 -60.75 11.2 -60.75 L11.0 -60.6 10.85 -59.6 10.6 -58.85 10.5 -58.6 10.15 -58.7 9.45 -58.45 8.45 -58.5" fill="url(#gradient2)" fill-rule="evenodd" stroke="none"/>
    <path d="M7.15 -57.7 L6.4 -58.4 8.45 -58.5 9.45 -58.45 8.4 -57.95 7.95 -57.35 7.9 -57.25 7.8 -57.25 7.75 -57.25 7.15 -57.7" fill="url(#gradient3)" fill-rule="evenodd" stroke="none"/>
    <path d="M6.35 -56.85 L5.4 -57.25 7.15 -57.7 7.75 -57.25 7.75 -57.2 7.45 -57.05 7.1 -57.1 6.35 -56.85" fill="url(#gradient4)" fill-rule="evenodd" stroke="none"/>
    <path d="M3.3 -53.75 Q3.1 -54.3 4.75 -56.2 L6.35 -56.85 7.1 -57.1 7.45 -57.05 7.75 -56.95 7.35 -56.35 Q7.7 -54.9 8.6 -53.3 L7.9 -52.75 7.05 -51.7 6.9 -51.95 5.0 -51.2 3.65 -51.5 3.4 -52.35 3.3 -53.75" fill="url(#gradient5)" fill-rule="evenodd" stroke="none"/>
    <path d="M7.8 -57.25 L7.9 -57.25 7.95 -57.25 7.75 -56.95 7.45 -57.05 7.75 -57.2 7.8 -57.25 M8.6 -53.3 L10.0 -52.85 10.8 -52.95 Q19.25 -49.65 16.8 -47.1 L16.75 -46.65 16.35 -46.0 15.25 -45.5 12.6 -45.05 12.75 -45.75 12.6 -47.1 Q9.2 -52.05 4.9 -48.5 L4.65 -48.2 Q4.25 -47.9 3.75 -48.55 L3.65 -48.6 3.55 -49.3 4.7 -50.8 5.35 -50.65 5.55 -50.65 Q6.7 -51.8 7.05 -51.7 L7.9 -52.75 8.6 -53.3" fill="url(#gradient6)" fill-rule="evenodd" stroke="none"/>
    <path d="M7.75 -57.25 L7.8 -57.25 7.75 -57.2 7.75 -57.25" fill="url(#gradient7)" fill-rule="evenodd" stroke="none"/>
    <path d="M21.85 -59.15 L22.0 -58.85 22.0 -58.45 Q21.8 -56.05 17.45 -55.35 13.7 -54.8 11.6 -56.8 16.0 -54.95 15.15 -55.5 22.05 -55.55 21.7 -58.85 L21.75 -59.25 21.35 -59.9 21.8 -59.3 21.85 -59.15 M10.5 -58.2 L10.5 -58.6 10.6 -58.85 10.85 -59.6 10.9 -58.85 11.4 -56.95 Q10.9 -57.5 10.5 -58.2" fill="url(#gradient8)" fill-rule="evenodd" stroke="none"/>
    <path d="M7.95 -57.35 L8.4 -57.95 9.45 -58.45 10.15 -58.7 10.5 -58.6 10.5 -58.2 Q10.25 -57.1 12.2 -55.0 L12.4 -54.15 11.95 -53.4 10.8 -52.95 10.0 -52.85 8.6 -53.3 Q7.7 -54.9 7.35 -56.35 L7.75 -56.95 7.95 -57.25 7.95 -57.35" fill="url(#gradient9)" fill-rule="evenodd" stroke="none"/>
    <path d="M22.15 -59.1 L21.85 -59.15 21.8 -59.3 22.15 -59.1" fill="url(#gradient10)" fill-rule="evenodd" stroke="none"/>
    <path d="M22.0 -58.45 L22.0 -58.85 21.85 -59.15 22.15 -59.1 23.7 -58.45 Q24.7 -56.05 22.45 -54.7 L21.7 -54.7 22.0 -55.7 22.0 -58.45" fill="url(#gradient11)" fill-rule="evenodd" stroke="none"/>
    <path d="M22.0 -58.45 L22.0 -55.7 21.7 -54.7 21.25 -54.2 20.65 -53.65 19.05 -52.9 15.85 -52.55 14.6 -52.65 12.4 -54.15 12.2 -55.0 Q10.25 -57.1 10.5 -58.2 10.9 -57.5 11.4 -56.95 L11.45 -56.85 11.6 -56.8 Q13.7 -54.8 17.45 -55.35 21.8 -56.05 22.0 -58.45" fill="url(#gradient12)" fill-rule="evenodd" stroke="none"/>
    <path d="M22.45 -54.7 Q24.7 -56.05 23.7 -58.45 26.3 -60.05 31.4 -56.55 L30.8 -55.9 30.7 -55.1 30.15 -54.75 29.9 -54.3 29.8 -53.65 24.95 -53.65 Q22.65 -54.0 22.65 -54.35 L22.5 -54.55 22.45 -54.55 22.4 -54.6 22.4 -54.65 22.45 -54.7" fill="url(#gradient13)" fill-rule="evenodd" stroke="none"/>
    <path d="M33.05 -51.9 L33.25 -52.2 32.95 -52.95 30.7 -55.1 30.8 -55.9 31.4 -56.55 Q35.25 -57.85 36.75 -54.65 37.5 -49.9 33.05 -51.9" fill="url(#gradient14)" fill-rule="evenodd" stroke="none"/>
    <path d="M29.8 -53.65 L29.9 -54.3 30.15 -54.75 30.7 -55.1 32.95 -52.95 33.25 -52.2 33.05 -51.9 Q30.3 -50.95 29.8 -53.65" fill="url(#gradient15)" fill-rule="evenodd" stroke="none"/>
    <path d="M7.9 -57.25 L7.95 -57.35 7.95 -57.25 7.9 -57.25" fill="url(#gradient16)" fill-rule="evenodd" stroke="none"/>
    <path d="M19.85 -52.95 Q21.75 -50.85 16.75 -45.9 L16.35 -46.0 16.75 -46.65 16.8 -47.1 Q19.25 -49.65 10.8 -52.95 L11.95 -53.4 12.4 -54.15 14.6 -52.65 15.85 -52.55 18.6 -52.5 19.85 -52.95" fill="url(#gradient17)" fill-rule="evenodd" stroke="none"/>
    <path d="M21.7 -54.7 L22.45 -54.7 22.4 -54.65 21.25 -54.2 21.7 -54.7" fill="url(#gradient18)" fill-rule="evenodd" stroke="none"/>
    <path d="M-0.45 -41.6 Q0.7 -50.8 3.3 -53.75 L3.4 -52.35 3.65 -51.5 3.65 -51.45 2.15 -49.35 0.75 -45.75 0.5 -44.7 0.45 -44.45 0.4 -44.3 0.4 -44.25 0.35 -44.05 0.35 -44.0 -0.1 -42.15 -0.1 -42.1 -0.45 -41.6" fill="url(#gradient19)" fill-rule="evenodd" stroke="none"/>
    <path d="M-0.95 -40.75 L-0.45 -41.6 -0.1 -42.1 -0.05 -42.15 0.15 -42.45 1.05 -43.3 2.0 -43.85 2.05 -43.9 2.85 -43.45 2.95 -43.2 3.1 -43.2 4.05 -42.1 Q3.2 -38.85 -0.05 -35.35 L-1.1 -34.75 -1.5 -35.05 -1.8 -35.65 -1.9 -37.8 -1.8 -38.45 -0.95 -40.75" fill="url(#gradient20)" fill-rule="evenodd" stroke="none"/>
    <path d="M-0.05 -42.15 L-0.1 -42.1 -0.1 -42.15 -0.05 -42.15" fill="url(#gradient21)" fill-rule="evenodd" stroke="none"/>
    <path d="M0.15 -42.45 L-0.05 -42.15 -0.1 -42.15 0.35 -44.0 0.4 -44.0 0.15 -42.45 M0.45 -44.45 L0.5 -44.45 0.45 -44.3 0.4 -44.3 0.45 -44.45 M0.4 -44.05 L0.35 -44.05 0.4 -44.25 0.45 -44.25 0.4 -44.05 M-3.75 -23.95 L-2.05 -26.2 -2.85 -22.4 -2.9 -22.4 -3.1 -22.95 -3.45 -23.5 -3.75 -23.95" fill="url(#gradient22)" fill-rule="evenodd" stroke="none"/>
    <path d="M3.65 -51.45 Q3.55 -51.0 4.8 -51.0 L4.7 -50.8 3.55 -49.3 2.8 -48.4 1.05 -43.3 0.15 -42.45 0.4 -44.0 0.4 -44.05 0.45 -44.25 0.45 -44.3 0.5 -44.45 0.5 -44.7 0.75 -45.75 2.15 -49.35 3.65 -51.45 M-1.5 -24.15 L-2.05 -18.8 -2.05 -18.7 -2.7 -19.4 -2.95 -20.55 -2.9 -22.3 -2.85 -22.4 -2.05 -26.2 -1.25 -27.05 -1.5 -24.15" fill="url(#gradient23)" fill-rule="evenodd" stroke="none"/>
    <path d="M3.55 -49.3 L3.65 -48.6 2.85 -46.7 2.3 -45.45 2.2 -44.9 2.2 -44.85 2.15 -44.8 2.05 -43.9 2.0 -43.85 1.05 -43.3 2.8 -48.4 3.55 -49.3" fill="url(#gradient24)" fill-rule="evenodd" stroke="none"/>
    <path d="M2.85 -45.7 Q8.4 -42.8 9.4 -40.55 8.55 -38.95 7.05 -39.5 L7.05 -39.75 7.15 -39.75 7.05 -39.95 7.05 -40.35 6.7 -40.75 4.8 -41.9 Q3.5 -43.6 2.85 -43.45 L2.05 -43.9 2.15 -44.8 2.2 -44.85 2.2 -44.9 2.85 -45.7" fill="url(#gradient25)" fill-rule="evenodd" stroke="none"/>
    <path d="M2.15 -31.75 Q-1.5 -6.3 -4.95 -1.25 L-5.45 -0.2 Q-9.35 -6.35 -8.3 -5.3 L-4.3 -11.6 -3.55 -14.1 -2.05 -18.7 -2.05 -18.8 -1.65 -20.05 -0.35 -27.8 Q0.4 -28.05 1.15 -29.6 L1.55 -31.5 2.15 -31.75 M3.75 -48.55 Q4.25 -47.9 4.65 -48.2 L3.65 -47.1 2.85 -45.7 2.2 -44.9 2.3 -45.45 2.85 -46.7 3.75 -48.55" fill="url(#gradient26)" fill-rule="evenodd" stroke="none"/>
    <path d="M4.65 -48.2 L4.9 -48.5 Q9.2 -52.05 12.6 -47.1 L12.75 -45.75 12.6 -45.05 12.05 -43.45 10.9 -41.8 9.4 -40.55 Q8.4 -42.8 2.85 -45.7 L3.65 -47.1 4.65 -48.2 M4.05 -42.1 L3.1 -43.2 2.95 -43.2 2.85 -43.45 Q3.5 -43.6 4.8 -41.9 L4.05 -42.1 M7.05 -39.75 L7.05 -39.95 7.15 -39.75 7.05 -39.75" fill="url(#gradient27)" fill-rule="evenodd" stroke="none"/>
    <path d="M16.75 -45.9 Q17.5 -41.5 14.0 -38.7 9.9 -37.25 10.9 -41.8 L12.05 -43.45 12.6 -45.05 15.25 -45.5 16.35 -46.0 16.75 -45.9" fill="url(#gradient28)" fill-rule="evenodd" stroke="none"/>
    <path d="M20.65 -53.65 L19.85 -52.95 18.6 -52.5 15.85 -52.55 19.05 -52.9 20.65 -53.65" fill="url(#gradient29)" fill-rule="evenodd" stroke="none"/>
    <path d="M5.0 -51.2 L6.9 -51.95 7.05 -51.7 Q6.7 -51.8 5.55 -50.65 L5.35 -50.65 5.0 -51.2" fill="url(#gradient30)" fill-rule="evenodd" stroke="none"/>
    <path d="M3.65 -51.5 L5.0 -51.2 5.35 -50.65 4.7 -50.8 4.8 -51.0 Q3.55 -51.0 3.65 -51.45 L3.65 -51.5" fill="url(#gradient31)" fill-rule="evenodd" stroke="none"/>
    <path d="M0.5 -44.45 L0.45 -44.45 0.5 -44.7 0.5 -44.45 M0.4 -44.3 L0.45 -44.3 0.45 -44.25 0.4 -44.25 0.4 -44.3 M0.35 -44.05 L0.4 -44.05 0.4 -44.0 0.35 -44.0 0.35 -44.05 M-2.9 -22.4 L-2.85 -22.4 -2.9 -22.3 -2.9 -22.4" fill="url(#gradient32)" fill-rule="evenodd" stroke="none"/>
    <path d="M3.65 -48.6 L3.75 -48.55 2.85 -46.7 3.65 -48.6" fill="url(#gradient33)" fill-rule="evenodd" stroke="none"/>
    <path d="M14.0 -38.7 L13.8 -37.95 13.6 -37.15 13.35 -35.85 13.3 -35.85 13.35 -35.8 13.25 -35.35 Q12.15 -32.0 9.95 -32.6 L8.15 -32.9 7.75 -33.2 6.1 -36.6 6.7 -38.15 7.05 -39.5 Q8.55 -38.95 9.4 -40.55 L10.9 -41.8 Q9.9 -37.25 14.0 -38.7" fill="url(#gradient34)" fill-rule="evenodd" stroke="none"/>
    <path d="M3.55 -32.85 L2.15 -31.75 1.55 -31.5 Q-0.1 -30.75 -1.05 -34.45 L-1.5 -34.5 -1.5 -35.05 -1.1 -34.75 -0.05 -35.35 Q3.2 -38.85 4.05 -42.1 L4.8 -41.9 6.7 -40.75 7.05 -40.35 7.05 -39.95 7.05 -39.75 7.05 -39.5 6.7 -38.15 6.1 -36.6 4.85 -34.4 4.7 -34.2 3.55 -32.85" fill="url(#gradient35)" fill-rule="evenodd" stroke="none"/>
    <path d="M-1.5 -35.05 L-1.5 -34.5 -2.3 -34.45 -2.0 -35.35 -1.8 -35.65 -1.5 -35.05" fill="url(#gradient36)" fill-rule="evenodd" stroke="none"/>
    <path d="M-3.25 -33.9 Q-3.65 -38.6 -0.95 -40.75 L-1.8 -38.45 -1.9 -37.8 -1.8 -35.65 -2.0 -35.35 -2.3 -34.45 Q-2.75 -34.15 -3.25 -33.9" fill="url(#gradient37)" fill-rule="evenodd" stroke="none"/>
    <path d="M6.1 -36.6 L7.75 -33.2 8.15 -32.9 9.95 -32.6 Q12.15 -32.0 13.25 -35.35 L13.35 -35.8 14.45 -35.3 14.5 -35.3 15.05 -33.85 15.2 -33.25 15.0 -31.7 14.6 -31.75 13.45 -30.1 12.65 -30.05 11.2 -30.15 10.85 -30.25 9.1 -30.05 8.5 -30.65 Q6.15 -32.0 5.7 -31.6 L5.3 -32.75 5.3 -32.8 5.25 -32.8 4.9 -33.65 4.85 -34.4 6.1 -36.6 M13.35 -35.85 L13.6 -37.15 13.95 -36.7 14.25 -35.95 13.35 -35.85" fill="url(#gradient38)" fill-rule="evenodd" stroke="none"/>
    <path d="M4.85 -34.4 L4.9 -33.65 4.7 -34.2 4.85 -34.4" fill="url(#gradient39)" fill-rule="evenodd" stroke="none"/>
    <path d="M4.9 -29.7 L4.05 -31.05 3.55 -32.85 4.7 -34.2 4.9 -33.65 5.25 -32.8 5.25 -32.75 5.05 -32.5 4.85 -31.05 4.9 -29.7" fill="url(#gradient40)" fill-rule="evenodd" stroke="none"/>
    <path d="M-7.15 -24.6 L-6.65 -26.2 -6.5 -26.4 -6.5 -26.45 -6.4 -26.65 -6.3 -27.3 -6.25 -27.35 -6.3 -27.75 -6.3 -27.8 -6.3 -27.85 Q-5.9 -31.7 -3.25 -33.9 -2.75 -34.15 -2.3 -34.45 L-1.5 -34.5 -1.05 -34.45 Q-0.1 -30.75 1.55 -31.5 L1.15 -29.6 Q0.4 -28.05 -0.35 -27.8 L-0.95 -27.3 -1.25 -27.05 -2.05 -26.2 -3.75 -23.95 -3.9 -23.75 -4.1 -23.6 -4.25 -23.95 -5.65 -23.6 -6.8 -24.45 -7.15 -24.55 -7.15 -24.6" fill="url(#gradient41)" fill-rule="evenodd" stroke="none"/>
    <path d="M13.8 -37.95 L15.4 -36.35 16.35 -34.85 Q18.55 -32.25 16.9 -28.95 L16.6 -30.4 16.35 -30.7 15.95 -32.2 15.05 -33.85 14.5 -35.3 14.5 -35.35 14.25 -35.95 13.95 -36.7 13.6 -37.15 13.8 -37.95" fill="url(#gradient42)" fill-rule="evenodd" stroke="none"/>
    <path d="M14.5 -35.3 L14.45 -35.3 13.35 -35.8 13.3 -35.85 13.35 -35.85 14.25 -35.95 14.5 -35.35 14.5 -35.3" fill="url(#gradient43)" fill-rule="evenodd" stroke="none"/>
    <path d="M4.4 -20.7 L4.45 -20.85 5.35 -25.2 5.75 -26.4 6.2 -25.7 7.15 -25.55 7.85 -21.65 8.9 -20.65 10.75 -20.45 Q12.6 -21.65 14.85 -21.05 L16.2 -22.0 16.45 -22.55 15.8 -18.65 Q13.35 -16.25 10.8 -16.75 L9.75 -17.2 Q9.5 -16.8 6.3 -17.95 L6.05 -18.3 5.75 -18.35 5.25 -18.25 Q4.6 -19.55 4.3 -19.3 L4.4 -20.7 M15.0 -31.7 L15.2 -33.25 15.05 -33.85 15.95 -32.2 16.35 -30.7 15.75 -31.45 15.0 -31.7" fill="url(#gradient44)" fill-rule="evenodd" stroke="none"/>
    <path d="M9.1 -30.05 L10.85 -30.25 11.2 -30.15 Q8.8 -29.3 8.4 -27.35 L8.4 -23.6 Q7.95 -22.5 9.05 -21.15 L8.9 -20.65 7.85 -21.65 7.15 -25.55 Q7.6 -26.05 8.0 -29.25 L8.35 -29.55 8.8 -29.7 9.1 -30.05 M12.65 -30.05 L13.45 -30.1 14.6 -31.75 15.0 -31.7 15.75 -31.45 16.35 -30.7 16.6 -30.4 16.9 -28.95 17.0 -28.6 16.9 -28.3 Q16.55 -30.85 15.25 -29.55 L15.15 -30.7 14.9 -30.7 13.75 -30.0 12.65 -30.05" fill="url(#gradient45)" fill-rule="evenodd" stroke="none"/>
    <path d="M11.2 -30.15 L12.65 -30.05 13.75 -30.0 14.9 -30.7 15.15 -30.7 15.25 -29.55 Q16.55 -30.85 16.9 -28.3 L16.7 -26.25 16.7 -25.75 16.75 -25.25 16.75 -25.15 16.8 -24.65 16.8 -24.6 16.85 -24.0 16.85 -23.8 16.8 -23.6 16.45 -22.6 16.45 -22.55 16.2 -22.0 14.85 -21.05 Q12.6 -21.65 10.75 -20.45 L8.9 -20.65 9.05 -21.15 Q7.95 -22.5 8.4 -23.6 L8.4 -27.35 Q8.8 -29.3 11.2 -30.15" fill="url(#gradient46)" fill-rule="evenodd" stroke="none"/>
    <path d="M5.75 -26.4 L5.1 -28.05 4.9 -29.7 4.85 -31.05 5.05 -32.5 5.25 -32.75 5.3 -32.75 5.7 -31.6 Q6.15 -32.0 8.5 -30.65 L9.1 -30.05 8.8 -29.7 8.35 -29.55 8.0 -29.25 Q7.6 -26.05 7.15 -25.55 L6.2 -25.7 5.75 -26.4" fill="url(#gradient47)" fill-rule="evenodd" stroke="none"/>
    <path d="M5.25 -32.8 L5.3 -32.8 5.3 -32.75 5.25 -32.75 5.25 -32.8" fill="url(#gradient48)" fill-rule="evenodd" stroke="none"/>
    <path d="M16.35 -34.85 Q20.3 -31.65 20.15 -28.25 19.6 -24.4 16.85 -23.8 L16.85 -24.0 16.8 -24.6 16.8 -24.65 16.75 -25.15 16.75 -25.25 16.7 -25.75 16.7 -26.25 16.9 -28.3 17.0 -28.6 16.9 -28.95 Q18.55 -32.25 16.35 -34.85" fill="url(#gradient49)" fill-rule="evenodd" stroke="none"/>
    <path d="M15.7 -13.3 L15.55 -12.95 15.15 -11.9 Q8.25 -6.4 3.45 -11.9 L3.05 -12.4 2.65 -13.95 Q2.65 -17.8 4.4 -20.7 L4.3 -19.3 Q4.6 -19.55 5.25 -18.25 L5.75 -18.35 6.05 -18.3 6.3 -17.95 Q9.5 -16.8 9.75 -17.2 L10.8 -16.75 Q13.35 -16.25 15.8 -18.65 L16.0 -17.95 16.15 -16.7 15.75 -13.55 15.7 -13.3" fill="url(#gradient50)" fill-rule="evenodd" stroke="none"/>
    <path d="M15.55 -12.95 L16.05 -11.3 Q16.05 -6.85 15.4 -6.0 13.65 -1.45 8.15 -2.2 1.1 -3.85 1.75 -7.4 L1.7 -9.95 Q2.15 -13.3 2.65 -13.95 L3.05 -12.4 3.45 -11.9 Q8.25 -6.4 15.15 -11.9 L15.55 -12.95" fill="url(#gradient51)" fill-rule="evenodd" stroke="none"/>
    <path d="M15.4 -6.0 Q16.0 -1.55 14.0 2.75 L13.45 3.85 Q10.8 5.6 10.75 4.95 L9.05 4.75 6.65 5.2 4.2 4.3 2.45 2.25 Q-0.1 -2.25 1.75 -7.4 1.1 -3.85 8.15 -2.2 13.65 -1.45 15.4 -6.0" fill="url(#gradient52)" fill-rule="evenodd" stroke="none"/>
    <path d="M4.2 5.8 Q2.85 4.95 2.65 4.05 L2.45 2.25 4.2 4.3 6.65 5.2 9.05 4.75 10.75 4.95 10.65 5.3 9.6 6.25 9.1 6.4 Q7.15 6.9 4.2 5.8" fill="url(#gradient53)" fill-rule="evenodd" stroke="none"/>
    <path d="M14.5 3.25 Q14.9 3.05 15.45 4.75 L15.25 5.35 14.6 7.0 Q10.35 8.65 4.2 5.8 7.15 6.9 9.1 6.4 L11.2 7.1 12.85 7.3 13.8 7.0 14.05 6.35 14.45 5.8 14.65 4.85 14.9 4.1 14.5 3.25" fill="url(#gradient54)" fill-rule="evenodd" stroke="none"/>
    <path d="M15.25 5.35 L14.9 6.5 14.6 7.0 15.25 5.35" fill="url(#gradient55)" fill-rule="evenodd" stroke="none"/>
    <path d="M14.0 2.75 L14.35 2.9 14.5 3.25 14.9 4.1 14.65 4.85 14.05 6.35 13.8 7.0 12.85 7.3 11.2 7.1 9.1 6.4 9.6 6.25 10.65 5.3 10.75 4.95 Q10.8 5.6 13.45 3.85 L14.0 2.75" fill="url(#gradient56)" fill-rule="evenodd" stroke="none"/>
    <path d="M16.15 -13.65 L15.7 -13.3 15.75 -13.55 16.15 -13.65" fill="url(#gradient57)" fill-rule="evenodd" stroke="none"/>
    <path d="M20.8 -23.4 Q22.95 -15.1 16.15 -13.65 L15.75 -13.55 16.15 -16.7 16.0 -17.95 Q20.7 -19.25 20.8 -23.4" fill="url(#gradient58)" fill-rule="evenodd" stroke="none"/>
    <path d="M20.15 -28.25 L20.35 -27.95 20.85 -25.1 20.8 -23.4 Q20.7 -19.25 16.0 -17.95 L15.8 -18.65 16.45 -22.55 16.45 -22.6 16.8 -23.6 16.85 -23.8 Q19.6 -24.4 20.15 -28.25" fill="url(#gradient59)" fill-rule="evenodd" stroke="none"/>
    <path d="M-3.55 -14.1 L-7.85 -7.8 -8.1 -7.65 Q-9.45 -7.8 -8.85 -13.6 L-9.45 -15.3 -9.45 -15.45 -7.45 -16.95 -7.4 -17.0 -7.3 -17.05 -6.55 -17.65 -6.45 -17.7 -6.35 -17.85 -4.95 -18.8 Q-3.25 -17.25 -2.95 -20.55 L-2.7 -19.4 -2.05 -18.7 -3.55 -14.1 M-0.95 -27.3 L-0.35 -27.8 -1.65 -20.05 -2.05 -18.8 -1.5 -24.15 -1.35 -24.4 -1.3 -24.45 -1.3 -24.55 -1.25 -24.6 -0.95 -27.3" fill="url(#gradient60)" fill-rule="evenodd" stroke="none"/>
    <path d="M-3.45 -23.5 L-3.1 -22.95 -2.9 -22.4 -2.9 -22.3 -2.95 -20.55 Q-3.25 -17.25 -4.95 -18.8 L-5.25 -19.05 Q-3.4 -22.15 -4.1 -23.6 L-3.9 -23.75 -3.45 -23.5" fill="url(#gradient61)" fill-rule="evenodd" stroke="none"/>
    <path d="M-7.45 -16.95 Q-11.5 -15.35 -11.2 -19.15 -10.35 -23.0 -7.2 -24.55 L-7.15 -24.55 -6.8 -24.45 -5.65 -23.6 -4.25 -23.95 -4.1 -23.6 Q-3.4 -22.15 -5.25 -19.05 L-6.35 -17.85 -6.45 -17.7 -6.55 -17.65 -7.3 -17.05 -7.4 -17.0 -7.45 -16.95" fill="url(#gradient62)" fill-rule="evenodd" stroke="none"/>
    <path d="M-7.2 -24.55 L-7.15 -24.6 -7.15 -24.55 -7.2 -24.55" fill="url(#gradient63)" fill-rule="evenodd" stroke="none"/>
    <path d="M-6.65 -26.2 L-6.35 -27.65 -6.3 -27.35 -6.3 -27.3 -6.4 -26.65 -6.5 -26.45 -6.5 -26.4 -6.65 -26.2 M-6.35 -27.8 L-6.3 -27.85 -6.3 -27.8 -6.35 -27.8" fill="url(#gradient64)" fill-rule="evenodd" stroke="none"/>
    <path d="M-6.25 -27.35 L-6.3 -27.3 -6.3 -27.35 -6.25 -27.35" fill="url(#gradient65)" fill-rule="evenodd" stroke="none"/>
    <path d="M-6.35 -27.65 L-6.35 -27.8 -6.3 -27.8 -6.3 -27.75 -6.25 -27.35 -6.3 -27.35 -6.35 -27.65" fill="url(#gradient66)" fill-rule="evenodd" stroke="none"/>
    <path d="M14.65 4.85 L14.45 5.8 14.05 6.35 14.65 4.85" fill="url(#gradient67)" fill-rule="evenodd" stroke="none"/>
  </g>
  <defs>
    <radialGradient cx="0" cy="0" gradientTransform="matrix(0.0082, 0.0, 0.0, 0.0082, 15.65, -60.15)" gradientUnits="userSpaceOnUse" id="gradient0" r="819.2" spreadMethod="pad">
      <stop offset="0.0" stop-color="#605746"/>
      <stop offset="1.0" stop-color="#403a2e"/>
    </radialGradient>
    <radialGradient cx="0" cy="0" gradientTransform="matrix(0.0023, 0.0, 0.0, 0.0023, 12.7, -62.05)" gradientUnits="userSpaceOnUse" id="gradient1" r="819.2" spreadMethod="pad">
      <stop offset="0.0" stop-color="#ffffff"/>
      <stop offset="1.0" stop-color="#989898"/>
    </radialGradient>
    <radialGradient cx="0" cy="0" gradientTransform="matrix(0.0036, 0.0, 0.0, 0.0036, 11.15, -58.85)" gradientUnits="userSpaceOnUse" id="gradient2" r="819.2" spreadMethod="pad">
      <stop offset="0.0" stop-color="#5b5342"/>
      <stop offset="1.0" stop-color="#353026"/>
    </radialGradient>
    <radialGradient cx="0" cy="0" gradientTransform="matrix(0.0037, 0.0, 0.0, 0.0037, 9.25, -57.9)" gradientUnits="userSpaceOnUse" id="gradient3" r="819.2" spreadMethod="pad">
      <stop offset="0.0" stop-color="#ffffff"/>
      <stop offset="1.0" stop-color="#939393"/>
    </radialGradient>
    <radialGradient cx="0" cy="0" gradientTransform="matrix(0.0034, 0.0, 0.0, 0.0034, 8.05, -57.2)" gradientUnits="userSpaceOnUse" id="gradient4" r="819.2" spreadMethod="pad">
      <stop offset="0.0" stop-color="#ffffff"/>
      <stop offset="1.0" stop-color="#a1a1a1"/>
    </radialGradient>
    <radialGradient cx="0" cy="0" gradientTransform="matrix(0.0063, 0.0, 0.0, 0.0063, 6.85, -52.05)" gradientUnits="userSpaceOnUse" id="gradient5" r="819.2" spreadMethod="pad">
      <stop offset="0.0" stop-color="#ffc400"/>
      <stop offset="1.0" stop-color="#cc6c00"/>
    </radialGradient>
    <radialGradient cx="0" cy="0" gradientTransform="matrix(0.011, 0.0, 0.0, 0.011, 12.35, -49.7)" gradientUnits="userSpaceOnUse" id="gradient6" r="819.2" spreadMethod="pad">
      <stop offset="0.0" stop-color="#635948"/>
      <stop offset="1.0" stop-color="#3d372c"/>
    </radialGradient>
    <radialGradient cx="0" cy="0" gradientTransform="matrix(0.0113, 0.0, 0.0, 0.0113, 3.55, -50.5)" gradientUnits="userSpaceOnUse" id="gradient7" r="819.2" spreadMethod="pad">
      <stop offset="0.0" stop-color="#3f392e"/>
      <stop offset="1.0" stop-color="#201d17"/>
    </radialGradient>
    <radialGradient cx="0" cy="0" gradientTransform="matrix(0.0112, 0.0, 0.0, 0.0112, 13.25, -55.8)" gradientUnits="userSpaceOnUse" id="gradient8" r="819.2" spreadMethod="pad">
      <stop offset="0.0" stop-color="#ff9100"/>
      <stop offset="1.0" stop-color="#ff8e00"/>
    </radialGradient>
    <radialGradient cx="0" cy="0" gradientTransform="matrix(0.006, 0.0, 0.0, 0.006, 11.35, -54.15)" gradientUnits="userSpaceOnUse" id="gradient9" r="819.2" spreadMethod="pad">
      <stop offset="0.0" stop-color="#ffc800"/>
      <stop offset="1.0" stop-color="#e57b00"/>
    </radialGradient>
    <radialGradient cx="0" cy="0" gradientTransform="matrix(0.0014, 0.0, 0.0, 0.0014, 22.3, -59.0)" gradientUnits="userSpaceOnUse" id="gradient10" r="819.2" spreadMethod="pad">
      <stop offset="0.0" stop-color="#90683c"/>
      <stop offset="1.0" stop-color="#785631"/>
    </radialGradient>
    <radialGradient cx="0" cy="0" gradientTransform="matrix(0.0045, 0.0, 0.0, 0.0045, 21.0, -57.2)" gradientUnits="userSpaceOnUse" id="gradient11" r="819.2" spreadMethod="pad">
      <stop offset="0.0" stop-color="#ffd278"/>
      <stop offset="1.0" stop-color="#b28049"/>
    </radialGradient>
    <radialGradient cx="0" cy="0" gradientTransform="matrix(0.0098, 0.0, 0.0, 0.0098, 15.2, -54.3)" gradientUnits="userSpaceOnUse" id="gradient12" r="819.2" spreadMethod="pad">
      <stop offset="0.0" stop-color="#ffa200"/>
      <stop offset="1.0" stop-color="#f38100"/>
    </radialGradient>
    <radialGradient cx="0" cy="0" gradientTransform="matrix(0.0115, 0.0, 0.0, 0.0115, 31.15, -55.95)" gradientUnits="userSpaceOnUse" id="gradient13" r="819.2" spreadMethod="pad">
      <stop offset="0.0" stop-color="#695f4d"/>
      <stop offset="1.0" stop-color="#423b2f"/>
    </radialGradient>
    <radialGradient cx="0" cy="0" gradientTransform="matrix(0.0057, 0.0, 0.0, 0.0057, 35.1, -54.25)" gradientUnits="userSpaceOnUse" id="gradient14" r="819.2" spreadMethod="pad">
      <stop offset="0.0" stop-color="#ffec87"/>
      <stop offset="1.0" stop-color="#926a3c"/>
    </radialGradient>
    <radialGradient cx="0" cy="0" gradientTransform="matrix(0.0035, 0.0, 0.0, 0.0035, 32.25, -52.9)" gradientUnits="userSpaceOnUse" id="gradient15" r="819.2" spreadMethod="pad">
      <stop offset="0.0" stop-color="#ffed88"/>
      <stop offset="1.0" stop-color="#bc884e"/>
    </radialGradient>
    <radialGradient cx="0" cy="0" gradientTransform="matrix(0.0025, 0.0, 0.0, 0.0025, 8.35, -58.05)" gradientUnits="userSpaceOnUse" id="gradient16" r="819.2" spreadMethod="pad">
      <stop offset="0.0" stop-color="#6f3800"/>
      <stop offset="1.0" stop-color="#331a00"/>
    </radialGradient>
    <radialGradient cx="0" cy="0" gradientTransform="matrix(0.0096, 0.0, 0.0, 0.0096, 12.5, -52.6)" gradientUnits="userSpaceOnUse" id="gradient17" r="819.2" spreadMethod="pad">
      <stop offset="0.0" stop-color="#645b49"/>
      <stop offset="1.0" stop-color="#383329"/>
    </radialGradient>
    <radialGradient cx="0" cy="0" gradientTransform="matrix(0.0025, 0.0, 0.0, 0.0025, 22.0, -55.2)" gradientUnits="userSpaceOnUse" id="gradient18" r="819.2" spreadMethod="pad">
      <stop offset="0.0" stop-color="#ac7c47"/>
      <stop offset="1.0" stop-color="#523c22"/>
    </radialGradient>
    <radialGradient cx="0" cy="0" gradientTransform="matrix(0.0167, 0.0, 0.0, 0.0167, 4.1, -52.25)" gradientUnits="userSpaceOnUse" id="gradient19" r="819.2" spreadMethod="pad">
      <stop offset="0.0" stop-color="#655c5c"/>
      <stop offset="1.0" stop-color="#5c5454"/>
    </radialGradient>
    <radialGradient cx="0" cy="0" gradientTransform="matrix(0.007, 0.0, 0.0, 0.007, 2.85, -38.5)" gradientUnits="userSpaceOnUse" id="gradient20" r="819.2" spreadMethod="pad">
      <stop offset="0.0" stop-color="#ffde7f"/>
      <stop offset="1.0" stop-color="#aa7b46"/>
    </radialGradient>
    <radialGradient cx="0" cy="0" gradientTransform="matrix(0.011, 0.0, 0.0, 0.011, 1.2, -43.5)" gradientUnits="userSpaceOnUse" id="gradient21" r="819.2" spreadMethod="pad">
      <stop offset="0.0" stop-color="#856037"/>
      <stop offset="1.0" stop-color="#261c10"/>
    </radialGradient>
    <radialGradient cx="0" cy="0" gradientTransform="matrix(0.0223, 0.0, 0.0, 0.0223, -0.6, -40.1)" gradientUnits="userSpaceOnUse" id="gradient22" r="819.2" spreadMethod="pad">
      <stop offset="0.0" stop-color="#ff8a00"/>
      <stop offset="1.0" stop-color="#f07900"/>
    </radialGradient>
    <radialGradient cx="0" cy="0" gradientTransform="matrix(0.0414, 0.0, 0.0, 0.0414, 5.3, -51.85)" gradientUnits="userSpaceOnUse" id="gradient23" r="819.2" spreadMethod="pad">
      <stop offset="0.0" stop-color="#ff9400"/>
      <stop offset="1.0" stop-color="#ff8300"/>
    </radialGradient>
    <radialGradient cx="0" cy="0" gradientTransform="matrix(0.0461, 0.0, 0.0, 0.0461, -3.95, -16.05)" gradientUnits="userSpaceOnUse" id="gradient24" r="819.2" spreadMethod="pad">
      <stop offset="0.0" stop-color="#0c0b09"/>
      <stop offset="1.0" stop-color="#0c0b09"/>
    </radialGradient>
    <radialGradient cx="0" cy="0" gradientTransform="matrix(0.0052, 0.0, 0.0, 0.0052, 6.15, -43.25)" gradientUnits="userSpaceOnUse" id="gradient25" r="819.2" spreadMethod="pad">
      <stop offset="0.0" stop-color="#ffce00"/>
      <stop offset="1.0" stop-color="#ee7e00"/>
    </radialGradient>
    <radialGradient cx="0" cy="0" gradientTransform="matrix(0.0614, 0.0, 0.0, 0.0614, 6.3, -49.15)" gradientUnits="userSpaceOnUse" id="gradient26" r="819.2" spreadMethod="pad">
      <stop offset="0.0" stop-color="#51493b"/>
      <stop offset="1.0" stop-color="#3f392e"/>
    </radialGradient>
    <radialGradient cx="0" cy="0" gradientTransform="matrix(0.0072, 0.0, 0.0, 0.0072, 7.55, -45.5)" gradientUnits="userSpaceOnUse" id="gradient27" r="819.2" spreadMethod="pad">
      <stop offset="0.0" stop-color="#ffdd7f"/>
      <stop offset="1.0" stop-color="#a17442"/>
    </radialGradient>
    <radialGradient cx="0" cy="0" gradientTransform="matrix(0.0082, 0.0, 0.0, 0.0082, 12.15, -45.15)" gradientUnits="userSpaceOnUse" id="gradient28" r="819.2" spreadMethod="pad">
      <stop offset="0.0" stop-color="#958888"/>
      <stop offset="1.0" stop-color="#464040"/>
    </radialGradient>
    <radialGradient cx="0" cy="0" gradientTransform="matrix(0.0074, 0.0, 0.0, 0.0074, 14.85, -52.75)" gradientUnits="userSpaceOnUse" id="gradient29" r="819.2" spreadMethod="pad">
      <stop offset="0.0" stop-color="#524a3b"/>
      <stop offset="1.0" stop-color="#3c362c"/>
    </radialGradient>
    <radialGradient cx="0" cy="0" gradientTransform="matrix(0.0025, 0.0, 0.0, 0.0025, 6.85, -52.05)" gradientUnits="userSpaceOnUse" id="gradient30" r="819.2" spreadMethod="pad">
      <stop offset="0.0" stop-color="#ffa600"/>
      <stop offset="1.0" stop-color="#ffa500"/>
    </radialGradient>
    <radialGradient cx="0" cy="0" gradientTransform="matrix(0.0016, 0.0, 0.0, 0.0016, 4.9, -51.3)" gradientUnits="userSpaceOnUse" id="gradient31" r="819.2" spreadMethod="pad">
      <stop offset="0.0" stop-color="#db6e00"/>
      <stop offset="1.0" stop-color="#d46a00"/>
    </radialGradient>
    <radialGradient cx="0" cy="0" gradientTransform="matrix(0.0357, 0.0, 0.0, 0.0357, 2.15, -50.75)" gradientUnits="userSpaceOnUse" id="gradient32" r="819.2" spreadMethod="pad">
      <stop offset="0.0" stop-color="#fc7f00"/>
      <stop offset="1.0" stop-color="#331a00"/>
    </radialGradient>
    <radialGradient cx="0" cy="0" gradientTransform="matrix(0.0073, 0.0, 0.0, 0.0073, 4.9, -50.95)" gradientUnits="userSpaceOnUse" id="gradient33" r="819.2" spreadMethod="pad">
      <stop offset="0.0" stop-color="#403a2e"/>
      <stop offset="1.0" stop-color="#383229"/>
    </radialGradient>
    <radialGradient cx="0" cy="0" gradientTransform="matrix(0.0126, 0.0, 0.0, 0.0126, 9.55, -42.85)" gradientUnits="userSpaceOnUse" id="gradient34" r="819.2" spreadMethod="pad">
      <stop offset="0.0" stop-color="#887c7c"/>
      <stop offset="1.0" stop-color="#585151"/>
    </radialGradient>
    <radialGradient cx="0" cy="0" gradientTransform="matrix(0.0103, 0.0, 0.0, 0.0103, 4.35, -38.5)" gradientUnits="userSpaceOnUse" id="gradient35" r="819.2" spreadMethod="pad">
      <stop offset="0.0" stop-color="#ffdd7f"/>
      <stop offset="1.0" stop-color="#ca9153"/>
    </radialGradient>
    <radialGradient cx="0" cy="0" gradientTransform="matrix(0.0024, 0.0, 0.0, 0.0024, -1.8, -34.05)" gradientUnits="userSpaceOnUse" id="gradient36" r="819.2" spreadMethod="pad">
      <stop offset="0.0" stop-color="#ffb100"/>
      <stop offset="1.0" stop-color="#f18500"/>
    </radialGradient>
    <radialGradient cx="0" cy="0" gradientTransform="matrix(0.0084, 0.0, 0.0, 0.0084, -1.6, -39.65)" gradientUnits="userSpaceOnUse" id="gradient37" r="819.2" spreadMethod="pad">
      <stop offset="0.0" stop-color="#ffffff"/>
      <stop offset="1.0" stop-color="#bdbdbd"/>
    </radialGradient>
    <radialGradient cx="0" cy="0" gradientTransform="matrix(0.0125, 0.0, 0.0, 0.0125, 7.7, -38.0)" gradientUnits="userSpaceOnUse" id="gradient38" r="819.2" spreadMethod="pad">
      <stop offset="0.0" stop-color="#ffdc00"/>
      <stop offset="1.0" stop-color="#fd8900"/>
    </radialGradient>
    <radialGradient cx="0" cy="0" gradientTransform="matrix(0.0036, 0.0, 0.0, 0.0036, 4.6, -35.05)" gradientUnits="userSpaceOnUse" id="gradient39" r="819.2" spreadMethod="pad">
      <stop offset="0.0" stop-color="#d86c00"/>
      <stop offset="1.0" stop-color="#ba5d00"/>
    </radialGradient>
    <radialGradient cx="0" cy="0" gradientTransform="matrix(0.0067, 0.0, 0.0, 0.0067, 5.45, -34.55)" gradientUnits="userSpaceOnUse" id="gradient40" r="819.2" spreadMethod="pad">
      <stop offset="0.0" stop-color="#3b466f"/>
      <stop offset="1.0" stop-color="#21263e"/>
    </radialGradient>
    <radialGradient cx="0" cy="0" gradientTransform="matrix(0.0141, 0.0, 0.0, 0.0141, -5.55, -24.1)" gradientUnits="userSpaceOnUse" id="gradient41" r="819.2" spreadMethod="pad">
      <stop offset="0.0" stop-color="#645b49"/>
      <stop offset="1.0" stop-color="#544c3d"/>
    </radialGradient>
    <radialGradient cx="0" cy="0" gradientTransform="matrix(0.0098, 0.0, 0.0, 0.0098, 14.45, -34.95)" gradientUnits="userSpaceOnUse" id="gradient42" r="819.2" spreadMethod="pad">
      <stop offset="0.0" stop-color="#282f4c"/>
      <stop offset="1.0" stop-color="#232a43"/>
    </radialGradient>
    <radialGradient cx="0" cy="0" gradientTransform="matrix(0.0019, 0.0, 0.0, 0.0019, 14.5, -35.15)" gradientUnits="userSpaceOnUse" id="gradient43" r="819.2" spreadMethod="pad">
      <stop offset="0.0" stop-color="#d06800"/>
      <stop offset="1.0" stop-color="#b85c00"/>
    </radialGradient>
    <radialGradient cx="0" cy="0" gradientTransform="matrix(0.0137, 0.0, 0.0, 0.0137, 12.35, -24.45)" gradientUnits="userSpaceOnUse" id="gradient44" r="819.2" spreadMethod="pad">
      <stop offset="0.0" stop-color="#39436b"/>
      <stop offset="1.0" stop-color="#2a324f"/>
    </radialGradient>
    <radialGradient cx="0" cy="0" gradientTransform="matrix(0.0122, 0.0, 0.0, 0.0122, 9.15, -29.2)" gradientUnits="userSpaceOnUse" id="gradient45" r="819.2" spreadMethod="pad">
      <stop offset="0.0" stop-color="#ffd900"/>
      <stop offset="1.0" stop-color="#ec8000"/>
    </radialGradient>
    <radialGradient cx="0" cy="0" gradientTransform="matrix(0.0118, 0.0, 0.0, 0.0118, 9.25, -28.95)" gradientUnits="userSpaceOnUse" id="gradient46" r="819.2" spreadMethod="pad">
      <stop offset="0.0" stop-color="#404c7a"/>
      <stop offset="1.0" stop-color="#2c3453"/>
    </radialGradient>
    <radialGradient cx="0" cy="0" gradientTransform="matrix(0.0082, 0.0, 0.0, 0.0082, 8.25, -31.3)" gradientUnits="userSpaceOnUse" id="gradient47" r="819.2" spreadMethod="pad">
      <stop offset="0.0" stop-color="#414c7a"/>
      <stop offset="1.0" stop-color="#242b44"/>
    </radialGradient>
    <radialGradient cx="0" cy="0" gradientTransform="matrix(0.0042, 0.0, 0.0, 0.0042, 5.0, -33.95)" gradientUnits="userSpaceOnUse" id="gradient48" r="819.2" spreadMethod="pad">
      <stop offset="0.0" stop-color="#331a00"/>
      <stop offset="1.0" stop-color="#331a00"/>
    </radialGradient>
    <radialGradient cx="0" cy="0" gradientTransform="matrix(0.0077, 0.0, 0.0, 0.0077, 16.25, -29.25)" gradientUnits="userSpaceOnUse" id="gradient49" r="819.2" spreadMethod="pad">
      <stop offset="0.0" stop-color="#364067"/>
      <stop offset="1.0" stop-color="#1e2439"/>
    </radialGradient>
    <radialGradient cx="0" cy="0" gradientTransform="matrix(0.0134, 0.0, 0.0, 0.0134, 9.55, -19.1)" gradientUnits="userSpaceOnUse" id="gradient50" r="819.2" spreadMethod="pad">
      <stop offset="0.0" stop-color="#434f7f"/>
      <stop offset="1.0" stop-color="#1f263c"/>
    </radialGradient>
    <radialGradient cx="0" cy="0" gradientTransform="matrix(0.0113, 0.0, 0.0, 0.0113, 8.65, -10.4)" gradientUnits="userSpaceOnUse" id="gradient51" r="819.2" spreadMethod="pad">
      <stop offset="0.0" stop-color="#404c79"/>
      <stop offset="1.0" stop-color="#1e2338"/>
    </radialGradient>
    <radialGradient cx="0" cy="0" gradientTransform="matrix(0.012, 0.0, 0.0, 0.012, 8.2, -4.4)" gradientUnits="userSpaceOnUse" id="gradient52" r="819.2" spreadMethod="pad">
      <stop offset="0.0" stop-color="#404c79"/>
      <stop offset="1.0" stop-color="#1a1f32"/>
    </radialGradient>
    <radialGradient cx="0" cy="0" gradientTransform="matrix(0.0069, 0.0, 0.0, 0.0069, 5.4, 3.85)" gradientUnits="userSpaceOnUse" id="gradient53" r="819.2" spreadMethod="pad">
      <stop offset="0.0" stop-color="#ffe800"/>
      <stop offset="1.0" stop-color="#d86f00"/>
    </radialGradient>
    <radialGradient cx="0" cy="0" gradientTransform="matrix(0.0079, 0.0, 0.0, 0.0079, 9.0, 5.8)" gradientUnits="userSpaceOnUse" id="gradient54" r="819.2" spreadMethod="pad">
      <stop offset="0.0" stop-color="#a19393"/>
      <stop offset="1.0" stop-color="#645b5b"/>
    </radialGradient>
    <radialGradient cx="0" cy="0" gradientTransform="matrix(0.0036, 0.0, 0.0, 0.0036, 14.25, 7.4)" gradientUnits="userSpaceOnUse" id="gradient55" r="819.2" spreadMethod="pad">
      <stop offset="0.0" stop-color="#534c4c"/>
      <stop offset="1.0" stop-color="#514a4a"/>
    </radialGradient>
    <radialGradient cx="0" cy="0" gradientTransform="matrix(0.0077, 0.0, 0.0, 0.0077, 8.65, 5.35)" gradientUnits="userSpaceOnUse" id="gradient56" r="819.2" spreadMethod="pad">
      <stop offset="0.0" stop-color="#6d634f"/>
      <stop offset="1.0" stop-color="#625947"/>
    </radialGradient>
    <radialGradient cx="0" cy="0" gradientTransform="matrix(0.0024, 0.0, 0.0, 0.0024, 15.2, -13.6)" gradientUnits="userSpaceOnUse" id="gradient57" r="819.2" spreadMethod="pad">
      <stop offset="0.0" stop-color="#fa7e00"/>
      <stop offset="1.0" stop-color="#8f4800"/>
    </radialGradient>
    <radialGradient cx="0" cy="0" gradientTransform="matrix(0.0087, 0.0, 0.0, 0.0087, 15.25, -19.55)" gradientUnits="userSpaceOnUse" id="gradient58" r="819.2" spreadMethod="pad">
      <stop offset="0.0" stop-color="#3b4670"/>
      <stop offset="1.0" stop-color="#21283f"/>
    </radialGradient>
    <radialGradient cx="0" cy="0" gradientTransform="matrix(0.0094, 0.0, 0.0, 0.0094, 14.8, -23.9)" gradientUnits="userSpaceOnUse" id="gradient59" r="819.2" spreadMethod="pad">
      <stop offset="0.0" stop-color="#3b4671"/>
      <stop offset="1.0" stop-color="#1f253b"/>
    </radialGradient>
    <radialGradient cx="0" cy="0" gradientTransform="matrix(0.0255, 0.0, 0.0, 0.0255, -8.9, -13.65)" gradientUnits="userSpaceOnUse" id="gradient60" r="819.2" spreadMethod="pad">
      <stop offset="0.0" stop-color="#665c4a"/>
      <stop offset="1.0" stop-color="#3d372c"/>
    </radialGradient>
    <radialGradient cx="0" cy="0" gradientTransform="matrix(0.005, 0.0, 0.0, 0.005, -4.4, -22.5)" gradientUnits="userSpaceOnUse" id="gradient61" r="819.2" spreadMethod="pad">
      <stop offset="0.0" stop-color="#ffe281"/>
      <stop offset="1.0" stop-color="#986e3f"/>
    </radialGradient>
    <radialGradient cx="0" cy="0" gradientTransform="matrix(0.0077, 0.0, 0.0, 0.0077, -6.2, -21.45)" gradientUnits="userSpaceOnUse" id="gradient62" r="819.2" spreadMethod="pad">
      <stop offset="0.0" stop-color="#ffe281"/>
      <stop offset="1.0" stop-color="#c78f52"/>
    </radialGradient>
    <radialGradient cx="0" cy="0" gradientTransform="matrix(0.0016, 0.0, 0.0, 0.0016, -7.3, -24.25)" gradientUnits="userSpaceOnUse" id="gradient63" r="819.2" spreadMethod="pad">
      <stop offset="0.0" stop-color="#0c0b09"/>
      <stop offset="1.0" stop-color="#0c0b09"/>
    </radialGradient>
    <radialGradient cx="0" cy="0" gradientTransform="matrix(0.0019, 0.0, 0.0, 0.0019, -6.35, -27.05)" gradientUnits="userSpaceOnUse" id="gradient64" r="819.2" spreadMethod="pad">
      <stop offset="0.0" stop-color="#413b2f"/>
      <stop offset="1.0" stop-color="#363128"/>
    </radialGradient>
    <radialGradient cx="0" cy="0" gradientTransform="matrix(0.0066, 0.0, 0.0, 0.0066, -5.15, -30.65)" gradientUnits="userSpaceOnUse" id="gradient65" r="819.2" spreadMethod="pad">
      <stop offset="0.0" stop-color="#453e32"/>
      <stop offset="1.0" stop-color="#0c0b09"/>
    </radialGradient>
    <radialGradient cx="0" cy="0" gradientTransform="matrix(0.0114, 0.0, 0.0, 0.0114, -6.35, -27.05)" gradientUnits="userSpaceOnUse" id="gradient66" r="819.2" spreadMethod="pad">
      <stop offset="0.0" stop-color="#413b2f"/>
      <stop offset="1.0" stop-color="#0c0b09"/>
    </radialGradient>
    <radialGradient cx="0" cy="0" gradientTransform="matrix(0.0037, 0.0, 0.0, 0.0037, 13.7, 6.9)" gradientUnits="userSpaceOnUse" id="gradient67" r="819.2" spreadMethod="pad">
      <stop offset="0.0" stop-color="#393329"/>
      <stop offset="1.0" stop-color="#373228"/>
    </radialGradient>
  </defs>
</svg>
