<?xml version="1.0" encoding="UTF-8" standalone="no"?>
<svg xmlns:ffdec="https://www.free-decompiler.com/flash" xmlns:xlink="http://www.w3.org/1999/xlink" ffdec:objectType="shape" height="104.85px" width="48.65px" xmlns="http://www.w3.org/2000/svg">
  <g transform="matrix(1.0, 0.0, 0.0, 1.0, 17.1, 89.55)">
    <path d="M20.0 -40.2 L20.35 -48.45 20.15 -48.55 20.3 -49.15 Q20.0 -49.1 19.75 -60.75 L19.75 -63.35 23.5 -37.2 26.25 -36.3 26.3 -35.9 24.45 -34.35 20.9 -34.0 20.5 -37.65 20.35 -39.2 20.0 -40.2" fill="url(#gradient0)" fill-rule="evenodd" stroke="none"/>
    <path d="M24.25 -55.3 L24.4 -54.55 26.9 -37.55 Q27.25 -37.35 26.25 -36.3 L23.5 -37.2 19.75 -63.35 19.75 -60.75 Q20.0 -49.1 20.3 -49.15 L20.15 -48.55 20.35 -48.45 20.0 -40.2 19.6 -41.15 17.8 -45.8 17.7 -45.95 18.45 -52.2 Q17.05 -48.65 16.8 -48.75 L16.8 -49.5 16.8 -80.6 17.9 -89.55 20.5 -80.8 24.25 -55.3" fill="url(#gradient1)" fill-rule="evenodd" stroke="none"/>
    <path d="M19.6 -41.15 L20.0 -40.2 20.35 -39.2 20.5 -37.65 Q20.1 -34.25 15.0 -36.85 L15.65 -36.65 15.7 -36.65 15.85 -36.6 Q21.6 -33.75 19.6 -41.15" fill="url(#gradient2)" fill-rule="evenodd" stroke="none"/>
    <path d="M17.7 -45.95 L17.8 -45.8 19.6 -41.15 Q21.6 -33.75 15.85 -36.6 L15.7 -36.65 15.65 -36.65 13.85 -37.4 8.8 -40.15 Q6.65 -40.35 8.2 -38.85 L8.2 -38.55 8.4 -37.45 8.4 -37.25 8.25 -37.35 7.15 -39.3 6.85 -39.7 Q6.25 -40.45 6.0 -41.85 L6.15 -43.0 6.2 -45.8 6.55 -46.95 6.95 -47.45 7.5 -48.35 Q10.25 -49.05 12.6 -45.8 15.15 -42.95 16.6 -39.8 L18.85 -39.25 19.1 -41.35 17.35 -45.15 17.7 -45.95 M13.3 -49.7 L15.5 -48.55 16.4 -47.9 15.85 -47.25 13.8 -49.0 11.4 -50.1 12.4 -50.1 13.3 -49.7" fill="url(#gradient3)" fill-rule="evenodd" stroke="none"/>
    <path d="M16.8 -48.75 Q17.05 -48.65 18.45 -52.2 L17.7 -45.95 17.35 -45.15 Q15.85 -42.2 14.25 -45.8 L14.6 -46.2 14.65 -46.3 15.55 -46.85 15.85 -47.25 16.4 -47.9 16.8 -48.75" fill="url(#gradient4)" fill-rule="evenodd" stroke="none"/>
    <path d="M24.4 -54.55 L24.25 -55.3 25.45 -56.3 25.55 -56.2 24.4 -54.55 M16.8 -49.5 L16.8 -48.75 16.4 -47.9 15.5 -48.55 16.8 -49.5" fill="url(#gradient5)" fill-rule="evenodd" stroke="none"/>
    <path d="M-1.1 -45.85 L4.3 -51.8 Q6.35 -53.65 7.3 -53.6 11.25 -52.4 13.3 -49.7 L12.4 -50.1 11.4 -50.1 10.15 -50.1 8.4 -50.3 Q5.1 -50.05 5.4 -49.5 L4.8 -49.55 3.0 -48.7 -0.9 -45.8 -0.9 -45.75 -1.0 -45.8 -1.1 -45.85" fill="url(#gradient6)" fill-rule="evenodd" stroke="none"/>
    <path d="M1.75 -44.45 L3.45 -43.35 4.0 -42.95 6.55 -39.65 6.95 -38.5 6.8 -38.1 6.95 -37.25 5.15 -36.95 4.15 -36.3 1.85 -37.15 -0.1 -38.35 -0.9 -39.4 Q-3.6 -41.75 -3.45 -41.25 -5.4 -42.4 -5.85 -41.9 L-8.1 -40.4 -8.2 -40.55 -8.2 -40.35 Q-14.05 -35.85 -14.9 -35.6 L-17.1 -35.2 -12.3 -40.0 -7.15 -44.65 Q-4.25 -47.45 -1.1 -45.85 L-1.0 -45.8 -0.9 -45.75 0.1 -45.35 1.75 -44.45" fill="url(#gradient7)" fill-rule="evenodd" stroke="none"/>
    <path d="M-8.2 -40.35 L-8.2 -40.55 -8.1 -40.4 -4.5 -37.55 -3.45 -36.8 -3.15 -36.6 -2.45 -36.25 Q1.3 -35.05 1.4 -33.7 1.65 -30.45 -2.05 -31.7 L-3.4 -33.15 -4.0 -33.9 -4.4 -34.55 -4.5 -34.8 -5.0 -35.35 -8.2 -40.35" fill="url(#gradient8)" fill-rule="evenodd" stroke="none"/>
    <path d="M-3.45 -41.25 Q-3.6 -41.75 -0.9 -39.4 L-0.1 -38.35 -1.55 -38.0 -2.6 -37.25 -3.1 -37.25 -3.45 -36.8 -4.5 -37.55 -3.45 -41.25 M-5.3 -33.55 L-5.0 -35.35 -4.5 -34.8 -5.3 -33.55" fill="url(#gradient9)" fill-rule="evenodd" stroke="none"/>
    <path d="M4.15 -36.3 L5.05 -35.4 6.0 -34.05 Q6.85 -32.25 6.75 -30.85 L6.65 -30.3 6.2 -30.1 4.8 -28.45 3.55 -28.55 Q2.7 -30.25 3.0 -30.85 3.95 -33.55 3.7 -33.45 L4.35 -33.75 4.5 -34.75 4.1 -35.8 3.0 -35.35 Q-0.85 -37.2 -1.1 -36.85 L-2.45 -36.25 -3.15 -36.6 -2.6 -37.25 -1.55 -38.0 -0.1 -38.35 1.85 -37.15 4.15 -36.3 M-4.0 -33.9 L-3.4 -33.15 -3.65 -31.7 -3.9 -32.55 -4.0 -33.9 M-3.1 -30.45 Q1.05 -28.2 0.95 -27.3 L0.5 -27.3 0.4 -26.95 Q-1.95 -27.95 -3.1 -30.45" fill="url(#gradient10)" fill-rule="evenodd" stroke="none"/>
    <path d="M3.45 -43.35 L4.35 -43.5 4.0 -42.95 3.45 -43.35 M7.15 -39.3 L8.25 -37.35 8.4 -37.25 8.4 -37.45 8.2 -38.55 9.15 -38.3 10.55 -37.4 9.9 -36.95 8.6 -37.05 8.45 -37.25 8.45 -37.05 6.95 -37.25 6.8 -38.1 6.95 -38.5 6.55 -39.65 6.8 -39.6 7.15 -39.3 M-3.45 -36.8 L-3.1 -37.25 -2.6 -37.25 -3.15 -36.6 -3.45 -36.8 M10.9 -28.6 L10.75 -27.5 10.45 -26.8 10.35 -27.55 10.55 -28.1 10.9 -28.6" fill="url(#gradient11)" fill-rule="evenodd" stroke="none"/>
    <path d="M10.15 -50.1 L10.55 -49.9 10.3 -49.5 9.35 -48.95 7.5 -48.35 6.95 -47.45 6.65 -47.45 6.85 -48.7 5.45 -48.2 5.25 -47.9 4.95 -48.4 5.15 -48.9 4.9 -48.9 4.1 -48.1 4.0 -47.65 3.8 -47.9 4.4 -48.8 5.4 -49.5 Q5.1 -50.05 8.4 -50.3 L10.15 -50.1" fill="url(#gradient12)" fill-rule="evenodd" stroke="none"/>
    <path d="M3.8 -47.9 L3.1 -47.3 2.05 -46.4 0.1 -45.35 -0.9 -45.75 -0.9 -45.8 3.0 -48.7 4.8 -49.55 5.4 -49.5 4.4 -48.8 3.8 -47.9" fill="url(#gradient13)" fill-rule="evenodd" stroke="none"/>
    <path d="M15.85 -47.25 L15.55 -46.85 14.65 -46.3 14.6 -46.2 14.25 -45.8 Q15.85 -42.2 17.35 -45.15 L19.1 -41.35 18.85 -39.25 16.6 -39.8 Q15.15 -42.95 12.6 -45.8 10.25 -49.05 7.5 -48.35 L9.35 -48.95 10.3 -49.5 10.55 -49.9 10.15 -50.1 11.4 -50.1 13.8 -49.0 15.85 -47.25" fill="url(#gradient14)" fill-rule="evenodd" stroke="none"/>
    <path d="M3.8 -47.9 L4.0 -47.65 4.1 -48.1 4.9 -48.9 5.15 -48.9 4.95 -48.4 5.25 -47.9 5.45 -48.2 6.85 -48.7 6.65 -47.45 6.95 -47.45 6.55 -46.95 6.2 -45.8 6.15 -43.0 5.25 -43.5 4.35 -43.5 3.45 -43.35 1.75 -44.45 3.1 -47.3 3.8 -47.9" fill="url(#gradient15)" fill-rule="evenodd" stroke="none"/>
    <path d="M4.35 -43.5 L5.25 -43.5 6.15 -43.0 6.0 -41.85 Q6.25 -40.45 6.85 -39.7 L6.8 -39.6 6.55 -39.65 4.0 -42.95 4.35 -43.5" fill="url(#gradient16)" fill-rule="evenodd" stroke="none"/>
    <path d="M6.85 -39.7 L7.15 -39.3 6.8 -39.6 6.85 -39.7 M8.2 -38.55 L8.2 -38.85 9.15 -38.3 8.2 -38.55" fill="url(#gradient17)" fill-rule="evenodd" stroke="none"/>
    <path d="M8.2 -38.85 Q6.65 -40.35 8.8 -40.15 L13.85 -37.4 15.65 -36.65 15.0 -36.85 Q20.1 -34.25 20.5 -37.65 L20.9 -34.0 20.5 -32.95 Q19.3 -32.65 17.6 -33.35 L15.5 -34.4 15.15 -34.6 10.55 -37.4 9.15 -38.3 8.2 -38.85" fill="url(#gradient18)" fill-rule="evenodd" stroke="none"/>
    <path d="M8.6 -37.05 L9.9 -36.95 10.55 -37.4 15.15 -34.6 15.2 -34.0 15.5 -32.05 14.75 -31.25 12.55 -33.45 14.4 -30.25 15.5 -30.6 14.95 -28.25 Q14.7 -27.2 13.8 -26.5 L12.9 -26.25 12.4 -26.35 12.55 -27.9 12.4 -28.25 12.2 -29.15 12.15 -29.35 12.0 -29.65 12.1 -29.9 11.75 -30.35 11.65 -30.5 11.55 -30.7 11.45 -30.85 11.4 -30.9 11.05 -31.4 10.75 -31.65 Q10.25 -34.15 5.05 -35.4 L4.15 -36.3 5.15 -36.95 6.95 -37.25 8.45 -37.05 8.5 -36.95 8.6 -37.05" fill="url(#gradient19)" fill-rule="evenodd" stroke="none"/>
    <path d="M8.45 -37.05 L8.45 -37.25 8.6 -37.05 8.5 -36.95 8.45 -37.05" fill="url(#gradient20)" fill-rule="evenodd" stroke="none"/>
    <path d="M-3.65 -31.7 L-3.4 -33.15 -2.05 -31.7 Q1.65 -30.45 1.4 -33.7 1.3 -35.05 -2.45 -36.25 L-1.1 -36.85 Q-0.85 -37.2 3.0 -35.35 L4.1 -35.8 4.5 -34.75 4.35 -33.75 3.7 -33.45 Q3.95 -33.55 3.0 -30.85 2.7 -30.25 3.55 -28.55 L4.8 -28.45 4.8 -28.4 2.9 -27.4 0.95 -27.3 Q1.05 -28.2 -3.1 -30.45 L-3.8 -31.6 -3.65 -31.7" fill="url(#gradient21)" fill-rule="evenodd" stroke="none"/>
    <path d="M4.8 -28.45 L6.2 -30.1 6.65 -30.3 8.65 -28.8 8.7 -28.8 9.9 -27.5 10.15 -27.15 10.45 -26.8 10.9 -25.9 11.1 -25.65 9.2 -21.95 Q8.5 -26.15 4.8 -28.4 L4.8 -28.45 M6.35 -19.75 L7.35 -19.75 6.4 -19.65 6.35 -19.75 M7.7 -19.75 L8.5 -20.2 8.8 -20.75 9.4 -20.2 7.7 -19.75" fill="url(#gradient22)" fill-rule="evenodd" stroke="none"/>
    <path d="M5.05 -35.4 Q10.25 -34.15 10.75 -31.65 L10.35 -30.85 9.25 -29.35 8.65 -28.8 6.65 -30.3 6.75 -30.85 Q6.85 -32.25 6.0 -34.05 L5.05 -35.4" fill="url(#gradient23)" fill-rule="evenodd" stroke="none"/>
    <path d="M15.5 -30.6 L14.4 -30.25 12.55 -33.45 14.75 -31.25 15.5 -32.05 16.5 -33.1 17.6 -33.35 Q19.3 -32.65 20.5 -32.95 L20.9 -34.0 24.45 -34.35 27.65 -34.25 29.7 -32.9 31.45 -35.55 31.55 -35.3 30.2 -31.95 Q25.8 -32.75 23.6 -31.95 L22.05 -32.75 Q21.65 -33.2 20.6 -31.6 L17.45 -31.3 15.5 -30.6" fill="url(#gradient24)" fill-rule="evenodd" stroke="none"/>
    <path d="M15.2 -34.0 L15.15 -34.6 15.5 -34.4 15.2 -34.0" fill="url(#gradient25)" fill-rule="evenodd" stroke="none"/>
    <path d="M-4.5 -34.8 L-4.4 -34.55 -5.1 -33.5 -5.2 -33.35 -5.3 -33.55 -4.5 -34.8" fill="url(#gradient26)" fill-rule="evenodd" stroke="none"/>
    <path d="M20.6 -31.6 Q21.65 -33.2 22.05 -32.75 L23.6 -31.95 23.6 -31.4 23.05 -31.6 21.85 -31.6 20.7 -31.25 20.6 -31.6 M21.3 -25.1 L23.05 -25.1 23.9 -25.3 24.25 -22.7 23.25 -22.8 Q22.25 -25.2 21.85 -22.6 L21.35 -22.5 21.3 -25.1" fill="url(#gradient27)" fill-rule="evenodd" stroke="none"/>
    <path d="M10.75 -31.65 L11.05 -31.4 11.4 -30.9 11.45 -30.85 11.55 -30.7 11.6 -30.5 10.55 -29.2 Q9.65 -28.45 8.85 -28.8 L9.25 -29.35 10.35 -30.85 10.75 -31.65" fill="url(#gradient28)" fill-rule="evenodd" stroke="none"/>
    <path d="M11.55 -30.7 L11.65 -30.5 11.6 -30.5 11.55 -30.7 M11.75 -30.35 L12.1 -29.9 12.0 -29.65 11.75 -30.15 11.75 -30.35" fill="url(#gradient29)" fill-rule="evenodd" stroke="none"/>
    <path d="M11.65 -30.5 L11.75 -30.35 11.75 -30.15 11.1 -28.95 11.05 -28.85 10.9 -28.6 10.55 -28.1 9.9 -27.5 8.7 -28.8 8.85 -28.8 Q9.65 -28.45 10.55 -29.2 L11.6 -30.5 11.65 -30.5" fill="url(#gradient30)" fill-rule="evenodd" stroke="none"/>
    <path d="M19.05 -28.85 L19.65 -30.35 20.7 -31.25 21.85 -31.6 23.05 -31.6 23.6 -31.4 Q27.7 -28.0 23.9 -25.3 L23.05 -25.1 21.3 -25.1 20.3 -25.65 19.8 -26.15 19.25 -27.1 19.05 -28.85" fill="url(#gradient31)" fill-rule="evenodd" stroke="none"/>
    <path d="M0.95 -27.3 L2.9 -27.4 4.8 -28.4 Q8.5 -26.15 9.2 -21.95 L8.8 -20.75 8.5 -20.2 7.7 -19.75 7.35 -19.75 6.35 -19.75 5.05 -20.05 2.65 -21.55 2.5 -21.7 1.15 -23.45 0.5 -24.9 0.3 -26.8 0.4 -26.95 0.5 -27.3 0.95 -27.3" fill="url(#gradient32)" fill-rule="evenodd" stroke="none"/>
    <path d="M19.05 -28.85 L19.25 -27.1 19.8 -26.15 18.95 -26.35 18.65 -27.2 18.3 -27.35 17.95 -27.75 18.1 -27.9 17.95 -28.2 18.3 -28.55 18.85 -28.4 18.65 -28.65 19.05 -28.85" fill="url(#gradient33)" fill-rule="evenodd" stroke="none"/>
    <path d="M19.8 -26.15 L20.3 -25.65 20.1 -25.45 19.85 -25.3 19.6 -25.05 18.1 -23.45 16.7 -22.05 14.15 -20.0 13.15 -19.55 12.1 -19.4 11.8 -19.4 11.05 -19.55 11.6 -19.55 11.6 -20.05 12.0 -20.6 11.75 -21.55 11.95 -22.8 13.65 -21.4 Q14.4 -22.25 15.7 -22.5 L17.9 -24.85 17.9 -25.9 Q18.5 -27.0 18.3 -27.35 L18.65 -27.2 18.95 -26.35 19.8 -26.15 M18.3 -28.55 L18.35 -28.8 18.65 -28.65 18.85 -28.4 18.3 -28.55" fill="url(#gradient34)" fill-rule="evenodd" stroke="none"/>
    <path d="M12.9 -26.25 L13.8 -26.5 17.0 -27.6 17.95 -28.2 18.1 -27.9 17.95 -27.75 18.3 -27.35 Q18.5 -27.0 17.9 -25.9 L17.9 -24.85 15.7 -22.5 Q14.4 -22.25 13.65 -21.4 L11.95 -22.8 11.75 -21.55 12.0 -20.6 11.6 -20.05 11.6 -19.55 11.05 -19.55 10.15 -19.65 9.4 -20.2 8.8 -20.75 9.2 -21.95 11.1 -25.65 11.25 -25.8 12.9 -26.25 M18.1 -23.45 L19.6 -25.05 18.65 -23.8 18.1 -23.45" fill="url(#gradient35)" fill-rule="evenodd" stroke="none"/>
    <path d="M9.25 -29.35 L8.85 -28.8 8.7 -28.8 8.65 -28.8 9.25 -29.35" fill="url(#gradient36)" fill-rule="evenodd" stroke="none"/>
    <path d="M10.55 -28.1 L10.35 -27.55 10.15 -27.15 9.9 -27.5 10.55 -28.1" fill="url(#gradient37)" fill-rule="evenodd" stroke="none"/>
    <path d="M12.4 -28.25 L12.55 -27.9 12.4 -26.35 12.9 -26.25 11.25 -25.8 10.9 -25.9 10.45 -26.8 10.75 -27.5 10.9 -28.6 11.05 -28.85 11.9 -28.65 12.4 -28.25" fill="url(#gradient38)" fill-rule="evenodd" stroke="none"/>
    <path d="M12.0 -29.65 L12.15 -29.35 11.9 -29.05 11.1 -28.95 11.75 -30.15 12.0 -29.65" fill="url(#gradient39)" fill-rule="evenodd" stroke="none"/>
    <path d="M12.15 -29.35 L12.2 -29.15 11.9 -29.05 12.15 -29.35" fill="url(#gradient40)" fill-rule="evenodd" stroke="none"/>
    <path d="M10.35 -27.55 L10.45 -26.8 10.15 -27.15 10.35 -27.55" fill="url(#gradient41)" fill-rule="evenodd" stroke="none"/>
    <path d="M10.9 -25.9 L11.25 -25.8 11.1 -25.65 10.9 -25.9" fill="url(#gradient42)" fill-rule="evenodd" stroke="none"/>
    <path d="M7.35 -19.75 L7.7 -19.75 9.4 -20.2 10.15 -19.65 11.05 -19.55 11.8 -19.4 11.1 -18.75 10.15 -18.2 8.9 -17.8 7.35 -17.7 7.3 -17.8 6.2 -18.3 5.85 -18.8 6.4 -19.65 7.35 -19.75" fill="url(#gradient43)" fill-rule="evenodd" stroke="none"/>
    <path d="M0.3 -26.8 L0.5 -24.9 1.15 -23.45 0.95 -23.1 0.8 -23.2 0.2 -21.9 -0.35 -20.85 -0.65 -19.15 Q-2.05 -23.1 0.3 -26.8" fill="url(#gradient44)" fill-rule="evenodd" stroke="none"/>
    <path d="M-0.65 -19.15 L-0.35 -20.85 0.2 -21.9 Q-0.2 -20.2 0.2 -17.85 L-0.15 -16.7 Q-0.25 -15.75 0.3 -15.9 -0.1 -11.55 0.85 -11.65 L0.85 -11.45 0.6 -11.55 0.7 -10.6 0.2 -12.4 0.1 -12.45 0.1 -12.65 0.05 -12.75 -0.4 -15.2 -0.65 -19.15 M0.7 -10.5 L0.85 -10.55 1.0 -10.3 0.85 -10.2 0.7 -10.5 M0.95 -10.1 L1.05 -9.95 0.95 -10.0 0.95 -10.1 M1.0 -9.85 L1.15 -9.8 1.0 -9.8 1.0 -9.85" fill="url(#gradient45)" fill-rule="evenodd" stroke="none"/>
    <path d="M1.15 -23.45 L2.5 -21.7 2.55 -21.55 Q2.6 -21.05 3.9 -19.85 L5.5 -18.95 Q5.3 -17.35 4.9 -17.45 L5.15 -15.9 Q4.6 -6.2 7.65 -6.05 L7.55 -4.95 Q7.15 -3.7 6.45 -3.35 L5.5 -3.35 4.1 -4.35 2.9 -5.85 2.85 -5.9 1.7 -8.15 1.55 -8.35 1.0 -9.8 1.15 -9.8 1.0 -9.85 0.95 -10.0 1.05 -9.95 0.95 -10.1 0.85 -10.2 1.0 -10.3 0.85 -10.55 0.7 -10.5 0.7 -10.6 0.6 -11.55 0.85 -11.45 0.85 -11.65 Q-0.1 -11.55 0.3 -15.9 -0.25 -15.75 -0.15 -16.7 L0.2 -17.85 Q-0.2 -20.2 0.2 -21.9 L0.8 -23.2 0.95 -23.1 1.15 -23.45" fill="url(#gradient46)" fill-rule="evenodd" stroke="none"/>
    <path d="M21.35 -18.95 L20.7 -20.75 21.35 -22.5 21.85 -22.6 Q22.5 -20.0 23.25 -22.8 L24.25 -22.7 Q24.35 -23.1 25.1 -21.15 L24.65 -19.3 Q22.55 -18.6 24.8 -17.45 L25.25 -16.45 25.4 -15.1 23.85 -15.05 22.55 -15.0 21.3 -14.8 21.2 -16.0 21.55 -17.15 Q23.3 -18.35 21.35 -18.95" fill="url(#gradient47)" fill-rule="evenodd" stroke="none"/>
    <path d="M21.35 -18.95 Q23.3 -18.35 21.55 -17.15 20.05 -17.8 21.35 -18.95 M24.8 -17.45 Q22.55 -18.6 24.65 -19.3 26.25 -18.85 24.8 -17.45" fill="url(#gradient48)" fill-rule="evenodd" stroke="none"/>
    <path d="M23.25 -22.8 Q22.5 -20.0 21.85 -22.6 22.25 -25.2 23.25 -22.8" fill="url(#gradient49)" fill-rule="evenodd" stroke="none"/>
    <path d="M13.15 -19.55 L14.15 -20.0 13.7 -19.0 Q12.9 -17.7 12.1 -17.25 L12.15 -18.35 13.15 -19.55" fill="url(#gradient50)" fill-rule="evenodd" stroke="none"/>
    <path d="M12.1 -19.4 L13.15 -19.55 12.15 -18.35 12.1 -19.4" fill="url(#gradient51)" fill-rule="evenodd" stroke="none"/>
    <path d="M11.8 -19.4 L12.1 -19.4 12.15 -18.35 12.1 -17.25 11.8 -16.35 11.55 -15.9 10.75 -14.8 Q10.15 -13.95 9.35 -13.95 L8.85 -15.9 8.5 -16.7 9.2 -16.75 9.7 -17.15 10.15 -18.2 11.1 -18.75 11.8 -19.4" fill="url(#gradient52)" fill-rule="evenodd" stroke="none"/>
    <path d="M2.5 -21.7 L2.65 -21.55 2.55 -21.55 2.5 -21.7" fill="url(#gradient53)" fill-rule="evenodd" stroke="none"/>
    <path d="M2.65 -21.55 L5.05 -20.05 6.35 -19.75 6.4 -19.65 5.85 -18.8 5.5 -18.95 3.9 -19.85 Q2.6 -21.05 2.55 -21.55 L2.65 -21.55" fill="url(#gradient54)" fill-rule="evenodd" stroke="none"/>
    <path d="M5.5 -18.95 L5.85 -18.8 6.2 -18.3 6.8 -15.9 7.8 -10.6 7.9 -9.45 7.8 -6.3 7.65 -6.05 Q4.6 -6.2 5.15 -15.9 L4.9 -17.45 Q5.3 -17.35 5.5 -18.95" fill="url(#gradient55)" fill-rule="evenodd" stroke="none"/>
    <path d="M6.45 -3.35 Q7.15 -3.7 7.55 -4.95 L7.65 -6.05 7.8 -6.3 9.2 -6.1 9.55 -5.65 9.6 -5.4 8.7 -4.65 Q8.7 -2.75 9.35 -3.3 L9.0 -2.6 8.3 -1.8 7.55 -1.4 6.55 -1.4 6.4 -1.45 6.2 -1.75 6.05 -2.1 6.2 -2.95 6.55 -3.15 6.45 -3.35" fill="url(#gradient56)" fill-rule="evenodd" stroke="none"/>
    <path d="M8.5 -16.7 L8.85 -15.9 9.35 -13.95 9.7 -12.4 9.95 -11.0 10.1 -7.6 9.95 -6.45 9.55 -5.65 9.2 -6.1 7.8 -6.3 7.9 -9.45 7.8 -10.6 Q8.4 -11.45 8.45 -12.8 L8.05 -15.9 7.7 -17.05 8.5 -16.7" fill="url(#gradient57)" fill-rule="evenodd" stroke="none"/>
    <path d="M7.35 -17.7 L7.7 -17.05 8.05 -15.9 8.45 -12.8 Q8.4 -11.45 7.8 -10.6 L6.8 -15.9 6.2 -18.3 7.3 -17.8 7.35 -17.7" fill="url(#gradient58)" fill-rule="evenodd" stroke="none"/>
    <path d="M10.15 -18.2 L9.7 -17.15 9.2 -16.75 8.5 -16.7 7.7 -17.05 7.35 -17.7 8.9 -17.8 10.15 -18.2" fill="url(#gradient59)" fill-rule="evenodd" stroke="none"/>
    <path d="M9.35 -13.95 Q10.15 -13.95 10.75 -14.8 L11.55 -15.9 11.8 -16.35 12.2 -15.8 Q10.85 -15.0 11.95 -13.9 L11.2 -12.85 10.3 -12.45 9.7 -12.4 9.35 -13.95" fill="url(#gradient60)" fill-rule="evenodd" stroke="none"/>
    <path d="M12.2 -15.8 Q13.5 -16.25 14.0 -17.15 L13.3 -14.8 Q13.0 -14.3 11.95 -13.9 10.85 -15.0 12.2 -15.8" fill="url(#gradient61)" fill-rule="evenodd" stroke="none"/>
    <path d="M21.3 -14.8 L22.55 -15.0 22.55 -14.9 22.15 -14.7 21.3 -14.8 M23.85 -15.05 L25.4 -15.1 24.6 -14.9 23.9 -15.0 23.85 -15.05" fill="url(#gradient62)" fill-rule="evenodd" stroke="none"/>
    <path d="M22.55 -15.0 L23.85 -15.05 23.9 -15.0 Q23.5 -12.7 22.55 -14.9 L22.55 -15.0" fill="url(#gradient63)" fill-rule="evenodd" stroke="none"/>
    <path d="M22.15 -14.7 L22.55 -14.9 Q23.5 -12.7 23.9 -15.0 L24.6 -14.9 Q24.05 -11.6 22.15 -14.7" fill="url(#gradient64)" fill-rule="evenodd" stroke="none"/>
    <path d="M10.3 -12.45 L9.95 -11.0 9.7 -12.4 10.3 -12.45" fill="url(#gradient65)" fill-rule="evenodd" stroke="none"/>
    <path d="M10.1 -7.6 L11.05 -7.0 10.95 -6.8 10.5 -6.1 9.6 -5.4 9.55 -5.65 9.95 -6.45 10.1 -7.6 M11.25 -6.85 L11.95 -6.4 12.15 -4.65 Q11.6 -3.25 10.5 -2.8 L9.95 -2.35 9.0 -2.6 9.35 -3.3 Q10.35 -3.7 10.65 -4.45 L11.25 -6.85" fill="url(#gradient66)" fill-rule="evenodd" stroke="none"/>
    <path d="M1.55 -8.35 L1.7 -8.15 1.05 -8.25 1.55 -8.35" fill="url(#gradient67)" fill-rule="evenodd" stroke="none"/>
    <path d="M2.75 -5.85 L2.85 -5.9 2.85 -5.85 2.75 -5.85" fill="url(#gradient68)" fill-rule="evenodd" stroke="none"/>
    <path d="M2.9 -5.85 L4.1 -4.35 3.2 -4.45 3.4 -3.7 4.4 -2.9 6.05 -2.1 6.2 -1.75 Q2.0 -1.25 1.5 -4.35 L1.85 -4.95 2.75 -5.85 2.85 -5.85 2.9 -5.85 M1.9 2.2 L1.35 1.5 1.3 1.4 1.3 1.35 1.3 1.3 1.2 1.2 0.7 -0.1 0.65 -0.9 0.7 -1.55 1.05 -0.9 Q1.05 -0.45 2.25 0.4 L3.9 1.0 4.8 1.0 5.85 0.45 4.3 0.3 Q2.9 -0.15 2.15 -0.9 L1.4 -1.4 0.8 -2.7 0.8 -2.75 0.85 -2.75 0.85 -2.8 1.15 -3.6 Q1.5 -1.2 3.4 -0.9 L4.0 -0.65 5.15 -0.65 5.65 -0.9 6.4 -1.45 6.55 -1.4 6.55 -0.9 Q6.4 3.4 1.9 2.2" fill="url(#gradient69)" fill-rule="evenodd" stroke="none"/>
    <path d="M2.85 -5.9 L2.9 -5.85 2.85 -5.85 2.85 -5.9" fill="url(#gradient70)" fill-rule="evenodd" stroke="none"/>
    <path d="M11.05 -7.0 L11.4 -7.35 11.25 -6.85 10.65 -4.45 Q10.35 -3.7 9.35 -3.3 8.7 -2.75 8.7 -4.65 L9.6 -5.4 10.5 -6.1 10.95 -6.8 11.05 -7.0" fill="url(#gradient71)" fill-rule="evenodd" stroke="none"/>
    <path d="M11.95 -6.4 L13.95 -5.0 Q14.55 -4.25 14.0 -3.6 L14.0 -3.45 14.15 -2.2 Q13.9 -1.65 10.5 -2.8 11.6 -3.25 12.15 -4.65 L11.95 -6.4" fill="url(#gradient72)" fill-rule="evenodd" stroke="none"/>
    <path d="M4.1 -4.35 L5.5 -3.35 6.45 -3.35 6.55 -3.15 6.2 -2.95 6.05 -2.1 4.4 -2.9 3.4 -3.7 3.2 -4.45 4.1 -4.35" fill="url(#gradient73)" fill-rule="evenodd" stroke="none"/>
    <path d="M1.15 -3.6 L1.5 -4.35 Q2.0 -1.25 6.2 -1.75 L6.4 -1.45 5.65 -0.9 5.15 -0.65 4.0 -0.65 3.4 -0.9 Q1.5 -1.2 1.15 -3.6" fill="url(#gradient74)" fill-rule="evenodd" stroke="none"/>
    <path d="M1.35 1.5 L1.3 1.5 1.3 1.4 1.35 1.5 M0.8 -2.75 L0.85 -2.8 0.85 -2.75 0.8 -2.75 M1.2 1.2 L1.3 1.3 1.3 1.35 1.15 1.2 1.2 1.2" fill="url(#gradient75)" fill-rule="evenodd" stroke="none"/>
    <path d="M0.7 -1.6 L0.8 -2.7 1.4 -1.4 2.15 -0.9 Q2.9 -0.15 4.3 0.3 L5.85 0.45 4.8 1.0 3.9 1.0 2.25 0.4 Q1.05 -0.45 1.05 -0.9 L0.7 -1.55 0.7 -1.6" fill="url(#gradient76)" fill-rule="evenodd" stroke="none"/>
    <path d="M-0.5 0.3 Q-6.55 0.6 0.7 -1.6 L0.7 -1.55 0.65 -0.9 0.7 -0.1 1.2 1.2 1.15 1.2 -0.5 0.3" fill="url(#gradient77)" fill-rule="evenodd" stroke="none"/>
    <path d="M1.3 1.5 L-1.35 1.35 -0.5 0.3 1.15 1.2 1.3 1.35 1.3 1.4 1.3 1.5" fill="url(#gradient78)" fill-rule="evenodd" stroke="none"/>
    <path d="M7.55 -1.4 L6.45 2.2 5.65 6.2 5.45 6.4 4.3 7.1 Q1.9 7.95 1.4 5.4 L2.35 6.05 2.05 5.45 1.55 4.5 1.5 3.75 1.5 3.6 1.55 3.55 1.9 2.2 Q6.4 3.4 6.55 -0.9 L6.55 -1.4 7.55 -1.4" fill="url(#gradient79)" fill-rule="evenodd" stroke="none"/>
    <path d="M5.65 6.2 L5.75 6.25 5.45 6.4 5.65 6.2 M1.0 5.65 L1.05 5.3 1.2 4.75 1.4 5.4 Q1.9 7.95 4.3 7.1 2.65 8.6 1.0 5.65" fill="url(#gradient80)" fill-rule="evenodd" stroke="none"/>
    <path d="M5.75 6.25 L5.65 7.7 5.5 8.25 3.55 8.45 3.1 8.95 Q1.2 7.4 0.95 6.0 L1.0 5.65 Q2.65 8.6 4.3 7.1 L5.45 6.4 5.75 6.25" fill="url(#gradient81)" fill-rule="evenodd" stroke="none"/>
    <path d="M1.05 5.3 L0.05 4.35 -1.25 3.55 0.5 3.65 1.35 3.95 1.35 4.35 1.2 4.75 1.05 5.3" fill="url(#gradient82)" fill-rule="evenodd" stroke="none"/>
    <path d="M1.35 4.35 L2.05 5.45 2.35 6.05 1.4 5.4 1.2 4.75 1.35 4.35" fill="url(#gradient83)" fill-rule="evenodd" stroke="none"/>
    <path d="M1.35 3.95 L1.5 3.75 1.55 4.5 2.05 5.45 1.35 4.35 1.35 3.95" fill="url(#gradient84)" fill-rule="evenodd" stroke="none"/>
    <path d="M7.65 10.5 L8.45 11.55 9.15 13.25 9.0 14.3 8.7 14.3 7.8 14.4 6.8 15.1 Q7.0 15.65 5.4 14.75 L3.55 12.4 6.35 11.85 Q7.2 11.45 7.65 10.5 M2.1 10.7 Q-0.3 7.75 0.95 6.0 1.2 7.4 3.1 8.95 L2.1 10.7" fill="url(#gradient85)" fill-rule="evenodd" stroke="none"/>
    <path d="M5.65 7.7 L7.3 9.6 7.65 10.5 Q7.2 11.45 6.35 11.85 L3.55 12.4 3.35 12.55 3.4 12.75 3.1 12.6 2.1 10.7 3.1 8.95 3.55 8.45 5.5 8.25 5.65 7.7" fill="url(#gradient86)" fill-rule="evenodd" stroke="none"/>
    <path d="M8.7 14.3 L6.8 15.1 7.8 14.4 8.7 14.3" fill="url(#gradient87)" fill-rule="evenodd" stroke="none"/>
  </g>
  <defs>
    <radialGradient cx="0" cy="0" gradientTransform="matrix(0.0402, 0.0, 0.0, 0.0402, 21.5, -36.25)" gradientUnits="userSpaceOnUse" id="gradient0" r="819.2" spreadMethod="pad">
      <stop offset="0.0" stop-color="#d5b432"/>
      <stop offset="1.0" stop-color="#c7a82f"/>
    </radialGradient>
    <radialGradient cx="0" cy="0" gradientTransform="matrix(0.0699, 0.0, 0.0, 0.0699, 22.0, -32.5)" gradientUnits="userSpaceOnUse" id="gradient1" r="819.2" spreadMethod="pad">
      <stop offset="0.0" stop-color="#ffffff"/>
      <stop offset="1.0" stop-color="#cccccc"/>
    </radialGradient>
    <radialGradient cx="0" cy="0" gradientTransform="matrix(0.0077, 0.0, 0.0, 0.0077, 20.2, -39.05)" gradientUnits="userSpaceOnUse" id="gradient2" r="819.2" spreadMethod="pad">
      <stop offset="0.0" stop-color="#c4a62e"/>
      <stop offset="1.0" stop-color="#ac9228"/>
    </radialGradient>
    <radialGradient cx="0" cy="0" gradientTransform="matrix(0.0111, 0.0, 0.0, 0.0111, 14.65, -43.2)" gradientUnits="userSpaceOnUse" id="gradient3" r="819.2" spreadMethod="pad">
      <stop offset="0.0" stop-color="#334969"/>
      <stop offset="1.0" stop-color="#1e2b3e"/>
    </radialGradient>
    <radialGradient cx="0" cy="0" gradientTransform="matrix(0.0099, 0.0, 0.0, 0.0099, 14.15, -45.6)" gradientUnits="userSpaceOnUse" id="gradient4" r="819.2" spreadMethod="pad">
      <stop offset="0.0" stop-color="#bdbdbd"/>
      <stop offset="1.0" stop-color="#9e9e9e"/>
    </radialGradient>
    <radialGradient cx="0" cy="0" gradientTransform="matrix(0.0141, 0.0, 0.0, 0.0141, 16.9, -48.9)" gradientUnits="userSpaceOnUse" id="gradient5" r="819.2" spreadMethod="pad">
      <stop offset="0.0" stop-color="#ffffff"/>
      <stop offset="1.0" stop-color="#a9a9a9"/>
    </radialGradient>
    <radialGradient cx="0" cy="0" gradientTransform="matrix(0.0178, 0.0, 0.0, 0.0178, 11.15, -49.55)" gradientUnits="userSpaceOnUse" id="gradient6" r="819.2" spreadMethod="pad">
      <stop offset="0.0" stop-color="#344a6b"/>
      <stop offset="1.0" stop-color="#223045"/>
    </radialGradient>
    <radialGradient cx="0" cy="0" gradientTransform="matrix(0.0236, 0.0, 0.0, 0.0236, 0.85, -42.2)" gradientUnits="userSpaceOnUse" id="gradient7" r="819.2" spreadMethod="pad">
      <stop offset="0.0" stop-color="#354b6c"/>
      <stop offset="1.0" stop-color="#1f2d41"/>
    </radialGradient>
    <radialGradient cx="0" cy="0" gradientTransform="matrix(0.0117, 0.0, 0.0, 0.0117, -6.2, -38.05)" gradientUnits="userSpaceOnUse" id="gradient8" r="819.2" spreadMethod="pad">
      <stop offset="0.0" stop-color="#dadada"/>
      <stop offset="1.0" stop-color="#8e8e8e"/>
    </radialGradient>
    <radialGradient cx="0" cy="0" gradientTransform="matrix(0.0094, 0.0, 0.0, 0.0094, -0.4, -39.4)" gradientUnits="userSpaceOnUse" id="gradient9" r="819.2" spreadMethod="pad">
      <stop offset="0.0" stop-color="#d1d1d1"/>
      <stop offset="1.0" stop-color="#9b9b9b"/>
    </radialGradient>
    <radialGradient cx="0" cy="0" gradientTransform="matrix(0.0086, 0.0, 0.0, 0.0086, 2.45, -33.65)" gradientUnits="userSpaceOnUse" id="gradient10" r="819.2" spreadMethod="pad">
      <stop offset="0.0" stop-color="#344b6c"/>
      <stop offset="1.0" stop-color="#1b2738"/>
    </radialGradient>
    <radialGradient cx="0" cy="0" gradientTransform="matrix(0.0169, 0.0, 0.0, 0.0169, 10.0, -38.65)" gradientUnits="userSpaceOnUse" id="gradient11" r="819.2" spreadMethod="pad">
      <stop offset="0.0" stop-color="#2f4360"/>
      <stop offset="1.0" stop-color="#1d2a3c"/>
    </radialGradient>
    <radialGradient cx="0" cy="0" gradientTransform="matrix(0.0068, 0.0, 0.0, 0.0068, 6.85, -48.2)" gradientUnits="userSpaceOnUse" id="gradient12" r="819.2" spreadMethod="pad">
      <stop offset="0.0" stop-color="#957e23"/>
      <stop offset="1.0" stop-color="#635317"/>
    </radialGradient>
    <radialGradient cx="0" cy="0" gradientTransform="matrix(0.0096, 0.0, 0.0, 0.0096, -0.3, -45.2)" gradientUnits="userSpaceOnUse" id="gradient13" r="819.2" spreadMethod="pad">
      <stop offset="0.0" stop-color="#1c293a"/>
      <stop offset="1.0" stop-color="#0a0f16"/>
    </radialGradient>
    <radialGradient cx="0" cy="0" gradientTransform="matrix(0.011, 0.0, 0.0, 0.011, 14.75, -43.15)" gradientUnits="userSpaceOnUse" id="gradient14" r="819.2" spreadMethod="pad">
      <stop offset="0.0" stop-color="#c9aa2f"/>
      <stop offset="1.0" stop-color="#86701f"/>
    </radialGradient>
    <radialGradient cx="0" cy="0" gradientTransform="matrix(0.0086, 0.0, 0.0, 0.0086, 6.2, -47.55)" gradientUnits="userSpaceOnUse" id="gradient15" r="819.2" spreadMethod="pad">
      <stop offset="0.0" stop-color="#25354c"/>
      <stop offset="1.0" stop-color="#202f43"/>
    </radialGradient>
    <radialGradient cx="0" cy="0" gradientTransform="matrix(0.0043, 0.0, 0.0, 0.0043, 6.3, -42.95)" gradientUnits="userSpaceOnUse" id="gradient16" r="819.2" spreadMethod="pad">
      <stop offset="0.0" stop-color="#334a6a"/>
      <stop offset="1.0" stop-color="#1d2a3d"/>
    </radialGradient>
    <radialGradient cx="0" cy="0" gradientTransform="matrix(0.004, 0.0, 0.0, 0.004, 6.75, -40.25)" gradientUnits="userSpaceOnUse" id="gradient17" r="819.2" spreadMethod="pad">
      <stop offset="0.0" stop-color="#cf9656"/>
      <stop offset="1.0" stop-color="#755531"/>
    </radialGradient>
    <radialGradient cx="0" cy="0" gradientTransform="matrix(0.0119, 0.0, 0.0, 0.0119, 12.2, -38.4)" gradientUnits="userSpaceOnUse" id="gradient18" r="819.2" spreadMethod="pad">
      <stop offset="0.0" stop-color="#ccac30"/>
      <stop offset="1.0" stop-color="#8c7620"/>
    </radialGradient>
    <radialGradient cx="0" cy="0" gradientTransform="matrix(0.0118, 0.0, 0.0, 0.0118, 13.0, -34.3)" gradientUnits="userSpaceOnUse" id="gradient19" r="819.2" spreadMethod="pad">
      <stop offset="0.0" stop-color="#d8b733"/>
      <stop offset="1.0" stop-color="#a98e27"/>
    </radialGradient>
    <radialGradient cx="0" cy="0" gradientTransform="matrix(0.013, 0.0, 0.0, 0.013, 6.4, -46.75)" gradientUnits="userSpaceOnUse" id="gradient20" r="819.2" spreadMethod="pad">
      <stop offset="0.0" stop-color="#212f44"/>
      <stop offset="1.0" stop-color="#06090d"/>
    </radialGradient>
    <radialGradient cx="0" cy="0" gradientTransform="matrix(0.0085, 0.0, 0.0, 0.0085, 0.9, -33.7)" gradientUnits="userSpaceOnUse" id="gradient21" r="819.2" spreadMethod="pad">
      <stop offset="0.0" stop-color="#d4b332"/>
      <stop offset="1.0" stop-color="#9d8525"/>
    </radialGradient>
    <radialGradient cx="0" cy="0" gradientTransform="matrix(0.0128, 0.0, 0.0, 0.0128, 5.15, -28.85)" gradientUnits="userSpaceOnUse" id="gradient22" r="819.2" spreadMethod="pad">
      <stop offset="0.0" stop-color="#364d6e"/>
      <stop offset="1.0" stop-color="#283952"/>
    </radialGradient>
    <radialGradient cx="0" cy="0" gradientTransform="matrix(0.0096, 0.0, 0.0, 0.0096, 4.35, -35.6)" gradientUnits="userSpaceOnUse" id="gradient23" r="819.2" spreadMethod="pad">
      <stop offset="0.0" stop-color="#354d6e"/>
      <stop offset="1.0" stop-color="#1d2a3d"/>
    </radialGradient>
    <radialGradient cx="0" cy="0" gradientTransform="matrix(0.0211, 0.0, 0.0, 0.0211, 29.75, -32.5)" gradientUnits="userSpaceOnUse" id="gradient24" r="819.2" spreadMethod="pad">
      <stop offset="0.0" stop-color="#d3b232"/>
      <stop offset="1.0" stop-color="#6a5a19"/>
    </radialGradient>
    <radialGradient cx="0" cy="0" gradientTransform="matrix(0.0012, 0.0, 0.0, 0.0012, 14.95, -34.65)" gradientUnits="userSpaceOnUse" id="gradient25" r="819.2" spreadMethod="pad">
      <stop offset="0.0" stop-color="#1d2a3d"/>
      <stop offset="1.0" stop-color="#182433"/>
    </radialGradient>
    <radialGradient cx="0" cy="0" gradientTransform="matrix(0.0037, 0.0, 0.0, 0.0037, -5.35, -33.5)" gradientUnits="userSpaceOnUse" id="gradient26" r="819.2" spreadMethod="pad">
      <stop offset="0.0" stop-color="#7d7d7d"/>
      <stop offset="1.0" stop-color="#6b6b6b"/>
    </radialGradient>
    <radialGradient cx="0" cy="0" gradientTransform="matrix(0.0156, 0.0, 0.0, 0.0156, 24.4, -20.75)" gradientUnits="userSpaceOnUse" id="gradient27" r="819.2" spreadMethod="pad">
      <stop offset="0.0" stop-color="#2a3d57"/>
      <stop offset="1.0" stop-color="#141d29"/>
    </radialGradient>
    <radialGradient cx="0" cy="0" gradientTransform="matrix(0.0049, 0.0, 0.0, 0.0049, 10.8, -32.15)" gradientUnits="userSpaceOnUse" id="gradient28" r="819.2" spreadMethod="pad">
      <stop offset="0.0" stop-color="#917a22"/>
      <stop offset="1.0" stop-color="#594b14"/>
    </radialGradient>
    <radialGradient cx="0" cy="0" gradientTransform="matrix(0.0024, 0.0, 0.0, 0.0024, 11.15, -31.3)" gradientUnits="userSpaceOnUse" id="gradient29" r="819.2" spreadMethod="pad">
      <stop offset="0.0" stop-color="#1a1606"/>
      <stop offset="1.0" stop-color="#1a1606"/>
    </radialGradient>
    <radialGradient cx="0" cy="0" gradientTransform="matrix(0.0054, 0.0, 0.0, 0.0054, 11.6, -30.85)" gradientUnits="userSpaceOnUse" id="gradient30" r="819.2" spreadMethod="pad">
      <stop offset="0.0" stop-color="#8b7621"/>
      <stop offset="1.0" stop-color="#605116"/>
    </radialGradient>
    <radialGradient cx="0" cy="0" gradientTransform="matrix(0.0052, 0.0, 0.0, 0.0052, 21.4, -28.55)" gradientUnits="userSpaceOnUse" id="gradient31" r="819.2" spreadMethod="pad">
      <stop offset="0.0" stop-color="#334a6a"/>
      <stop offset="1.0" stop-color="#111823"/>
    </radialGradient>
    <radialGradient cx="0" cy="0" gradientTransform="matrix(0.0106, 0.0, 0.0, 0.0106, 4.05, -27.75)" gradientUnits="userSpaceOnUse" id="gradient32" r="819.2" spreadMethod="pad">
      <stop offset="0.0" stop-color="#354d6e"/>
      <stop offset="1.0" stop-color="#24344b"/>
    </radialGradient>
    <radialGradient cx="0" cy="0" gradientTransform="matrix(0.0023, 0.0, 0.0, 0.0023, 19.55, -27.7)" gradientUnits="userSpaceOnUse" id="gradient33" r="819.2" spreadMethod="pad">
      <stop offset="0.0" stop-color="#d5b332"/>
      <stop offset="1.0" stop-color="#977f23"/>
    </radialGradient>
    <radialGradient cx="0" cy="0" gradientTransform="matrix(0.0109, 0.0, 0.0, 0.0109, 12.65, -22.3)" gradientUnits="userSpaceOnUse" id="gradient34" r="819.2" spreadMethod="pad">
      <stop offset="0.0" stop-color="#d4b232"/>
      <stop offset="1.0" stop-color="#76631b"/>
    </radialGradient>
    <radialGradient cx="0" cy="0" gradientTransform="matrix(0.0114, 0.0, 0.0, 0.0114, 16.6, -25.55)" gradientUnits="userSpaceOnUse" id="gradient35" r="819.2" spreadMethod="pad">
      <stop offset="0.0" stop-color="#364d6e"/>
      <stop offset="1.0" stop-color="#283952"/>
    </radialGradient>
    <radialGradient cx="0" cy="0" gradientTransform="matrix(0.0058, 0.0, 0.0, 0.0058, 9.9, -30.6)" gradientUnits="userSpaceOnUse" id="gradient36" r="819.2" spreadMethod="pad">
      <stop offset="0.0" stop-color="#605116"/>
      <stop offset="1.0" stop-color="#4f4312"/>
    </radialGradient>
    <radialGradient cx="0" cy="0" gradientTransform="matrix(0.0015, 0.0, 0.0, 0.0015, 10.35, -27.85)" gradientUnits="userSpaceOnUse" id="gradient37" r="819.2" spreadMethod="pad">
      <stop offset="0.0" stop-color="#8e7821"/>
      <stop offset="1.0" stop-color="#3e340e"/>
    </radialGradient>
    <radialGradient cx="0" cy="0" gradientTransform="matrix(0.0044, 0.0, 0.0, 0.0044, 11.3, -28.05)" gradientUnits="userSpaceOnUse" id="gradient38" r="819.2" spreadMethod="pad">
      <stop offset="0.0" stop-color="#334a6a"/>
      <stop offset="1.0" stop-color="#233248"/>
    </radialGradient>
    <radialGradient cx="0" cy="0" gradientTransform="matrix(0.002, 0.0, 0.0, 0.002, 11.7, -30.5)" gradientUnits="userSpaceOnUse" id="gradient39" r="819.2" spreadMethod="pad">
      <stop offset="0.0" stop-color="#2e425e"/>
      <stop offset="1.0" stop-color="#141d29"/>
    </radialGradient>
    <radialGradient cx="0" cy="0" gradientTransform="matrix(0.0013, 0.0, 0.0, 0.0013, 12.25, -29.65)" gradientUnits="userSpaceOnUse" id="gradient40" r="819.2" spreadMethod="pad">
      <stop offset="0.0" stop-color="#182231"/>
      <stop offset="1.0" stop-color="#0c1118"/>
    </radialGradient>
    <radialGradient cx="0" cy="0" gradientTransform="matrix(0.0011, 0.0, 0.0, 0.0011, 10.1, -26.85)" gradientUnits="userSpaceOnUse" id="gradient41" r="819.2" spreadMethod="pad">
      <stop offset="0.0" stop-color="#977f23"/>
      <stop offset="1.0" stop-color="#221d08"/>
    </radialGradient>
    <radialGradient cx="0" cy="0" gradientTransform="matrix(0.0011, 0.0, 0.0, 0.0011, 10.5, -25.9)" gradientUnits="userSpaceOnUse" id="gradient42" r="819.2" spreadMethod="pad">
      <stop offset="0.0" stop-color="#a08726"/>
      <stop offset="1.0" stop-color="#705e1a"/>
    </radialGradient>
    <radialGradient cx="0" cy="0" gradientTransform="matrix(0.0051, 0.0, 0.0, 0.0051, 9.6, -20.65)" gradientUnits="userSpaceOnUse" id="gradient43" r="819.2" spreadMethod="pad">
      <stop offset="0.0" stop-color="#d4b332"/>
      <stop offset="1.0" stop-color="#88731f"/>
    </radialGradient>
    <radialGradient cx="0" cy="0" gradientTransform="matrix(0.0088, 0.0, 0.0, 0.0088, 1.3, -25.5)" gradientUnits="userSpaceOnUse" id="gradient44" r="819.2" spreadMethod="pad">
      <stop offset="0.0" stop-color="#2e415e"/>
      <stop offset="1.0" stop-color="#1d293b"/>
    </radialGradient>
    <radialGradient cx="0" cy="0" gradientTransform="matrix(0.0173, 0.0, 0.0, 0.0173, 0.5, -22.2)" gradientUnits="userSpaceOnUse" id="gradient45" r="819.2" spreadMethod="pad">
      <stop offset="0.0" stop-color="#8f7922"/>
      <stop offset="1.0" stop-color="#685818"/>
    </radialGradient>
    <radialGradient cx="0" cy="0" gradientTransform="matrix(0.0239, 0.0, 0.0, 0.0239, 2.75, -22.7)" gradientUnits="userSpaceOnUse" id="gradient46" r="819.2" spreadMethod="pad">
      <stop offset="0.0" stop-color="#375072"/>
      <stop offset="1.0" stop-color="#151f2d"/>
    </radialGradient>
    <radialGradient cx="0" cy="0" gradientTransform="matrix(0.0112, 0.0, 0.0, 0.0112, 22.0, -15.05)" gradientUnits="userSpaceOnUse" id="gradient47" r="819.2" spreadMethod="pad">
      <stop offset="0.0" stop-color="#d1b031"/>
      <stop offset="1.0" stop-color="#6b5a19"/>
    </radialGradient>
    <radialGradient cx="0" cy="0" gradientTransform="matrix(0.0032, 0.0, 0.0, 0.0032, 22.8, -18.45)" gradientUnits="userSpaceOnUse" id="gradient48" r="819.2" spreadMethod="pad">
      <stop offset="0.0" stop-color="#ffffff"/>
      <stop offset="1.0" stop-color="#858585"/>
    </radialGradient>
    <radialGradient cx="0" cy="0" gradientTransform="matrix(0.0028, 0.0, 0.0, 0.0028, 22.45, -21.8)" gradientUnits="userSpaceOnUse" id="gradient49" r="819.2" spreadMethod="pad">
      <stop offset="0.0" stop-color="#ffffff"/>
      <stop offset="1.0" stop-color="#ababab"/>
    </radialGradient>
    <radialGradient cx="0" cy="0" gradientTransform="matrix(0.006, 0.0, 0.0, 0.006, 14.05, -21.05)" gradientUnits="userSpaceOnUse" id="gradient50" r="819.2" spreadMethod="pad">
      <stop offset="0.0" stop-color="#635317"/>
      <stop offset="1.0" stop-color="#44390f"/>
    </radialGradient>
    <radialGradient cx="0" cy="0" gradientTransform="matrix(0.0022, 0.0, 0.0, 0.0022, 12.25, -19.85)" gradientUnits="userSpaceOnUse" id="gradient51" r="819.2" spreadMethod="pad">
      <stop offset="0.0" stop-color="#615217"/>
      <stop offset="1.0" stop-color="#493e11"/>
    </radialGradient>
    <radialGradient cx="0" cy="0" gradientTransform="matrix(0.0083, 0.0, 0.0, 0.0083, 11.85, -20.15)" gradientUnits="userSpaceOnUse" id="gradient52" r="819.2" spreadMethod="pad">
      <stop offset="0.0" stop-color="#1f2d40"/>
      <stop offset="1.0" stop-color="#111721"/>
    </radialGradient>
    <radialGradient cx="0" cy="0" gradientTransform="matrix(0.0034, 0.0, 0.0, 0.0034, 0.95, -23.85)" gradientUnits="userSpaceOnUse" id="gradient53" r="819.2" spreadMethod="pad">
      <stop offset="0.0" stop-color="#1b2637"/>
      <stop offset="1.0" stop-color="#06090d"/>
    </radialGradient>
    <radialGradient cx="0" cy="0" gradientTransform="matrix(0.0036, 0.0, 0.0, 0.0036, 4.8, -20.8)" gradientUnits="userSpaceOnUse" id="gradient54" r="819.2" spreadMethod="pad">
      <stop offset="0.0" stop-color="#af9429"/>
      <stop offset="1.0" stop-color="#78651c"/>
    </radialGradient>
    <radialGradient cx="0" cy="0" gradientTransform="matrix(0.016, 0.0, 0.0, 0.016, 4.8, -17.5)" gradientUnits="userSpaceOnUse" id="gradient55" r="819.2" spreadMethod="pad">
      <stop offset="0.0" stop-color="#ccac30"/>
      <stop offset="1.0" stop-color="#6f5e1a"/>
    </radialGradient>
    <radialGradient cx="0" cy="0" gradientTransform="matrix(0.0055, 0.0, 0.0, 0.0055, 8.1, -5.7)" gradientUnits="userSpaceOnUse" id="gradient56" r="819.2" spreadMethod="pad">
      <stop offset="0.0" stop-color="#e2bf35"/>
      <stop offset="1.0" stop-color="#4f4212"/>
    </radialGradient>
    <radialGradient cx="0" cy="0" gradientTransform="matrix(0.0157, 0.0, 0.0, 0.0157, 7.05, -18.05)" gradientUnits="userSpaceOnUse" id="gradient57" r="819.2" spreadMethod="pad">
      <stop offset="0.0" stop-color="#324766"/>
      <stop offset="1.0" stop-color="#1b2637"/>
    </radialGradient>
    <radialGradient cx="0" cy="0" gradientTransform="matrix(0.0069, 0.0, 0.0, 0.0069, 6.1, -15.95)" gradientUnits="userSpaceOnUse" id="gradient58" r="819.2" spreadMethod="pad">
      <stop offset="0.0" stop-color="#c1a32d"/>
      <stop offset="1.0" stop-color="#72601b"/>
    </radialGradient>
    <radialGradient cx="0" cy="0" gradientTransform="matrix(0.0033, 0.0, 0.0, 0.0033, 7.45, -17.95)" gradientUnits="userSpaceOnUse" id="gradient59" r="819.2" spreadMethod="pad">
      <stop offset="0.0" stop-color="#c5a62e"/>
      <stop offset="1.0" stop-color="#594b14"/>
    </radialGradient>
    <radialGradient cx="0" cy="0" gradientTransform="matrix(0.0047, 0.0, 0.0, 0.0047, 11.05, -16.15)" gradientUnits="userSpaceOnUse" id="gradient60" r="819.2" spreadMethod="pad">
      <stop offset="0.0" stop-color="#e8c436"/>
      <stop offset="1.0" stop-color="#443910"/>
    </radialGradient>
    <radialGradient cx="0" cy="0" gradientTransform="matrix(0.0046, 0.0, 0.0, 0.0046, 10.8, -15.15)" gradientUnits="userSpaceOnUse" id="gradient61" r="819.2" spreadMethod="pad">
      <stop offset="0.0" stop-color="#c6c6c6"/>
      <stop offset="1.0" stop-color="#767676"/>
    </radialGradient>
    <radialGradient cx="0" cy="0" gradientTransform="matrix(0.005, 0.0, 0.0, 0.005, 21.25, -14.9)" gradientUnits="userSpaceOnUse" id="gradient62" r="819.2" spreadMethod="pad">
      <stop offset="0.0" stop-color="#1a1606"/>
      <stop offset="1.0" stop-color="#1a1606"/>
    </radialGradient>
    <radialGradient cx="0" cy="0" gradientTransform="matrix(0.002, 0.0, 0.0, 0.002, 23.35, -14.2)" gradientUnits="userSpaceOnUse" id="gradient63" r="819.2" spreadMethod="pad">
      <stop offset="0.0" stop-color="#ffffff"/>
      <stop offset="1.0" stop-color="#8f8f8f"/>
    </radialGradient>
    <radialGradient cx="0" cy="0" gradientTransform="matrix(0.0028, 0.0, 0.0, 0.0028, 22.85, -13.55)" gradientUnits="userSpaceOnUse" id="gradient64" r="819.2" spreadMethod="pad">
      <stop offset="0.0" stop-color="#ffffff"/>
      <stop offset="1.0" stop-color="#989898"/>
    </radialGradient>
    <radialGradient cx="0" cy="0" gradientTransform="matrix(0.0034, 0.0, 0.0, 0.0034, 9.55, -13.55)" gradientUnits="userSpaceOnUse" id="gradient65" r="819.2" spreadMethod="pad">
      <stop offset="0.0" stop-color="#223146"/>
      <stop offset="1.0" stop-color="#17212f"/>
    </radialGradient>
    <radialGradient cx="0" cy="0" gradientTransform="matrix(0.0056, 0.0, 0.0, 0.0056, 11.35, -3.65)" gradientUnits="userSpaceOnUse" id="gradient66" r="819.2" spreadMethod="pad">
      <stop offset="0.0" stop-color="#ecc737"/>
      <stop offset="1.0" stop-color="#8e7821"/>
    </radialGradient>
    <radialGradient cx="0" cy="0" gradientTransform="matrix(0.0016, 0.0, 0.0, 0.0016, 0.8, -8.35)" gradientUnits="userSpaceOnUse" id="gradient67" r="819.2" spreadMethod="pad">
      <stop offset="0.0" stop-color="#dbdbdb"/>
      <stop offset="1.0" stop-color="#b2b2b2"/>
    </radialGradient>
    <radialGradient cx="0" cy="0" gradientTransform="matrix(0.0082, 0.0, 0.0, 0.0082, 3.25, -6.05)" gradientUnits="userSpaceOnUse" id="gradient68" r="819.2" spreadMethod="pad">
      <stop offset="0.0" stop-color="#213045"/>
      <stop offset="1.0" stop-color="#16212f"/>
    </radialGradient>
    <radialGradient cx="0" cy="0" gradientTransform="matrix(0.0096, 0.0, 0.0, 0.0096, 4.8, -4.9)" gradientUnits="userSpaceOnUse" id="gradient69" r="819.2" spreadMethod="pad">
      <stop offset="0.0" stop-color="#385174"/>
      <stop offset="1.0" stop-color="#141d2a"/>
    </radialGradient>
    <radialGradient cx="0" cy="0" gradientTransform="matrix(0.0033, 0.0, 0.0, 0.0033, 1.95, -7.5)" gradientUnits="userSpaceOnUse" id="gradient70" r="819.2" spreadMethod="pad">
      <stop offset="0.0" stop-color="#151e2b"/>
      <stop offset="1.0" stop-color="#131b27"/>
    </radialGradient>
    <radialGradient cx="0" cy="0" gradientTransform="matrix(0.0051, 0.0, 0.0, 0.0051, 8.05, -4.7)" gradientUnits="userSpaceOnUse" id="gradient71" r="819.2" spreadMethod="pad">
      <stop offset="0.0" stop-color="#b7b7b7"/>
      <stop offset="1.0" stop-color="#7e7e7e"/>
    </radialGradient>
    <radialGradient cx="0" cy="0" gradientTransform="matrix(0.0064, 0.0, 0.0, 0.0064, 10.5, -6.25)" gradientUnits="userSpaceOnUse" id="gradient72" r="819.2" spreadMethod="pad">
      <stop offset="0.0" stop-color="#3b557a"/>
      <stop offset="1.0" stop-color="#334969"/>
    </radialGradient>
    <radialGradient cx="0" cy="0" gradientTransform="matrix(0.0034, 0.0, 0.0, 0.0034, 5.1, -4.2)" gradientUnits="userSpaceOnUse" id="gradient73" r="819.2" spreadMethod="pad">
      <stop offset="0.0" stop-color="#dcb934"/>
      <stop offset="1.0" stop-color="#645417"/>
    </radialGradient>
    <radialGradient cx="0" cy="0" gradientTransform="matrix(0.004, 0.0, 0.0, 0.004, 3.6, -2.1)" gradientUnits="userSpaceOnUse" id="gradient74" r="819.2" spreadMethod="pad">
      <stop offset="0.0" stop-color="#e9c436"/>
      <stop offset="1.0" stop-color="#978023"/>
    </radialGradient>
    <radialGradient cx="0" cy="0" gradientTransform="matrix(0.0091, 0.0, 0.0, 0.0091, 1.35, 1.5)" gradientUnits="userSpaceOnUse" id="gradient75" r="819.2" spreadMethod="pad">
      <stop offset="0.0" stop-color="#06090d"/>
      <stop offset="1.0" stop-color="#06090d"/>
    </radialGradient>
    <radialGradient cx="0" cy="0" gradientTransform="matrix(0.0042, 0.0, 0.0, 0.0042, 2.85, -0.3)" gradientUnits="userSpaceOnUse" id="gradient76" r="819.2" spreadMethod="pad">
      <stop offset="0.0" stop-color="#ecc737"/>
      <stop offset="1.0" stop-color="#7d6a1d"/>
    </radialGradient>
    <radialGradient cx="0" cy="0" gradientTransform="matrix(0.0061, 0.0, 0.0, 0.0061, 1.5, -1.1)" gradientUnits="userSpaceOnUse" id="gradient77" r="819.2" spreadMethod="pad">
      <stop offset="0.0" stop-color="#334969"/>
      <stop offset="1.0" stop-color="#1f2d41"/>
    </radialGradient>
    <radialGradient cx="0" cy="0" gradientTransform="matrix(0.003, 0.0, 0.0, 0.003, 0.15, -0.2)" gradientUnits="userSpaceOnUse" id="gradient78" r="819.2" spreadMethod="pad">
      <stop offset="0.0" stop-color="#a4a4a4"/>
      <stop offset="1.0" stop-color="#747474"/>
    </radialGradient>
    <radialGradient cx="0" cy="0" gradientTransform="matrix(0.0117, 0.0, 0.0, 0.0117, 6.25, -1.6)" gradientUnits="userSpaceOnUse" id="gradient79" r="819.2" spreadMethod="pad">
      <stop offset="0.0" stop-color="#213045"/>
      <stop offset="1.0" stop-color="#17212e"/>
    </radialGradient>
    <radialGradient cx="0" cy="0" gradientTransform="matrix(0.005, 0.0, 0.0, 0.005, 1.6, 6.65)" gradientUnits="userSpaceOnUse" id="gradient80" r="819.2" spreadMethod="pad">
      <stop offset="0.0" stop-color="#e3bf35"/>
      <stop offset="1.0" stop-color="#b4972a"/>
    </radialGradient>
    <radialGradient cx="0" cy="0" gradientTransform="matrix(0.0056, 0.0, 0.0, 0.0056, 4.0, 8.65)" gradientUnits="userSpaceOnUse" id="gradient81" r="819.2" spreadMethod="pad">
      <stop offset="0.0" stop-color="#b79b2b"/>
      <stop offset="1.0" stop-color="#625217"/>
    </radialGradient>
    <radialGradient cx="0" cy="0" gradientTransform="matrix(0.0034, 0.0, 0.0, 0.0034, 1.3, 4.35)" gradientUnits="userSpaceOnUse" id="gradient82" r="819.2" spreadMethod="pad">
      <stop offset="0.0" stop-color="#ffffff"/>
      <stop offset="1.0" stop-color="#989898"/>
    </radialGradient>
    <radialGradient cx="0" cy="0" gradientTransform="matrix(0.0029, 0.0, 0.0, 0.0029, 2.25, 5.6)" gradientUnits="userSpaceOnUse" id="gradient83" r="819.2" spreadMethod="pad">
      <stop offset="0.0" stop-color="#b09529"/>
      <stop offset="1.0" stop-color="#695819"/>
    </radialGradient>
    <radialGradient cx="0" cy="0" gradientTransform="matrix(0.0021, 0.0, 0.0, 0.0021, 1.35, 4.1)" gradientUnits="userSpaceOnUse" id="gradient84" r="819.2" spreadMethod="pad">
      <stop offset="0.0" stop-color="#eac637"/>
      <stop offset="1.0" stop-color="#e4c135"/>
    </radialGradient>
    <radialGradient cx="0" cy="0" gradientTransform="matrix(0.0112, 0.0, 0.0, 0.0112, 6.65, 13.0)" gradientUnits="userSpaceOnUse" id="gradient85" r="819.2" spreadMethod="pad">
      <stop offset="0.0" stop-color="#3c567b"/>
      <stop offset="1.0" stop-color="#293c56"/>
    </radialGradient>
    <radialGradient cx="0" cy="0" gradientTransform="matrix(0.0056, 0.0, 0.0, 0.0056, 4.95, 12.05)" gradientUnits="userSpaceOnUse" id="gradient86" r="819.2" spreadMethod="pad">
      <stop offset="0.0" stop-color="#f2cd39"/>
      <stop offset="1.0" stop-color="#9e8525"/>
    </radialGradient>
    <radialGradient cx="0" cy="0" gradientTransform="matrix(0.0031, 0.0, 0.0, 0.0031, 8.85, 14.2)" gradientUnits="userSpaceOnUse" id="gradient87" r="819.2" spreadMethod="pad">
      <stop offset="0.0" stop-color="#1c2839"/>
      <stop offset="1.0" stop-color="#1a2637"/>
    </radialGradient>
  </defs>
</svg>
