<?xml version="1.0" encoding="UTF-8" standalone="no"?>
<svg xmlns:ffdec="https://www.free-decompiler.com/flash" xmlns:xlink="http://www.w3.org/1999/xlink" ffdec:objectType="shape" height="68.0px" width="30.4px" xmlns="http://www.w3.org/2000/svg">
  <g transform="matrix(1.0, 0.0, 0.0, 1.0, 10.15, 57.0)">
    <path d="M-5.3 -51.0 L-5.35 -52.45 -4.8 -53.15 -5.0 -52.2 -4.85 -50.1 -5.2 -50.0 -5.3 -51.0 M-4.05 -54.3 L-3.45 -55.1 -0.1 -56.0 3.3 -55.2 5.45 -53.1 5.45 -52.95 5.45 -51.7 5.45 -50.5 5.3 -49.4 Q5.05 -48.8 3.35 -47.55 L3.2 -47.45 -0.35 -46.9 -2.0 -47.2 Q-1.7 -48.85 -3.45 -48.55 L-3.45 -49.5 Q-4.75 -52.25 -4.15 -53.95 L-4.05 -54.3 M-4.15 -48.4 L-3.9 -48.1 -3.65 -48.05 -3.7 -47.85 -4.2 -48.25 -4.15 -48.4" fill="url(#gradient0)" fill-rule="evenodd" stroke="none"/>
    <path d="M-4.8 -53.15 L-4.1 -55.5 -3.25 -57.0 -3.9 -55.3 -4.05 -54.3 -4.15 -53.95 Q-4.75 -52.25 -3.45 -49.5 L-3.45 -48.55 -3.65 -48.05 -3.9 -48.1 -4.15 -48.4 -4.65 -49.25 -4.85 -50.1 -5.0 -52.2 -4.8 -53.15" fill="url(#gradient1)" fill-rule="evenodd" stroke="none"/>
    <path d="M-3.65 -48.05 L-3.45 -48.55 Q-1.7 -48.85 -2.0 -47.2 L-2.15 -47.1 -2.2 -46.75 -2.4 -45.7 -2.2 -44.25 -2.2 -44.1 -1.95 -42.85 -1.45 -41.1 -0.5 -38.85 -1.7 -40.75 -2.95 -43.35 -3.25 -44.25 -3.25 -44.3 -3.25 -44.35 -3.25 -44.45 -3.65 -45.65 -3.85 -47.3 -3.7 -47.85 -3.65 -48.05" fill="url(#gradient2)" fill-rule="evenodd" stroke="none"/>
    <path d="M-5.85 -49.8 L-5.55 -50.75 -5.3 -51.0 -5.2 -50.0 -5.85 -49.8 M5.45 -50.5 L5.6 -50.1 5.55 -49.8 Q5.45 -48.6 3.35 -47.55 5.05 -48.8 5.3 -49.4 L5.45 -50.5 M-2.0 -47.2 L-0.35 -46.9 3.2 -47.45 Q2.25 -46.5 -2.2 -46.75 L-2.15 -47.1 -2.0 -47.2 M-3.85 -47.3 L-4.65 -47.7 -5.15 -48.2 -4.2 -48.25 -3.7 -47.85 -3.85 -47.3" fill="url(#gradient3)" fill-rule="evenodd" stroke="none"/>
    <path d="M3.2 -47.45 L3.35 -47.55 Q5.45 -48.6 5.55 -49.8 L5.55 -49.15 5.5 -47.95 5.45 -47.35 5.3 -46.65 4.4 -45.6 3.75 -45.05 2.5 -44.5 -0.2 -43.9 -2.2 -44.1 -2.2 -44.25 -2.4 -45.7 -2.2 -46.75 Q2.25 -46.5 3.2 -47.45 M-3.25 -44.45 L-3.35 -44.45 -3.65 -44.6 Q-5.25 -45.15 -5.6 -47.1 L-5.6 -47.45 -5.65 -47.45 -5.7 -48.05 -5.15 -48.2 -4.65 -47.7 -3.85 -47.3 -3.65 -45.65 -3.25 -44.45" fill="url(#gradient4)" fill-rule="evenodd" stroke="none"/>
    <path d="M-3.3 -44.35 L-3.35 -44.45 -3.25 -44.45 -3.25 -44.35 -3.3 -44.35 M-2.2 -44.1 L-0.2 -43.9 2.5 -44.5 1.9 -43.75 0.55 -42.75 -0.6 -42.45 -1.3 -42.55 -1.95 -42.85 -2.2 -44.1" fill="url(#gradient5)" fill-rule="evenodd" stroke="none"/>
    <path d="M18.0 -31.75 Q17.05 -23.2 19.1 -17.4 L18.9 -15.2 Q17.4 -10.15 11.6 -7.8 L11.15 -7.8 10.5 -7.8 8.5 -7.85 8.35 -7.9 6.0 -9.15 6.15 -9.2 6.7 -9.65 7.0 -10.45 6.95 -14.0 7.0 -14.2 7.95 -17.5 7.85 -17.9 7.95 -17.95 7.8 -18.05 7.05 -19.65 6.85 -22.45 6.7 -22.8 6.55 -23.4 6.15 -23.55 1.95 -24.8 1.9 -24.9 0.5 -25.5 -0.25 -26.25 -0.85 -27.0 -1.0 -27.35 -1.15 -27.55 -1.5 -28.25 -1.95 -29.75 -2.1 -30.75 -2.15 -30.95 -2.3 -31.4 Q-2.9 -32.05 -3.95 -34.2 L-4.05 -34.4 -4.55 -35.5 -5.15 -36.85 -5.15 -37.1 -6.3 -38.25 -6.7 -40.0 -6.45 -41.1 Q-6.7 -43.25 -6.3 -44.25 L-6.3 -44.6 -6.05 -45.7 -6.1 -43.65 -5.85 -42.55 -5.85 -42.45 Q-5.9 -40.05 -4.85 -42.1 L-4.25 -42.85 -4.05 -43.3 Q-4.75 -31.4 2.05 -40.25 L1.7 -39.0 1.65 -37.9 Q0.95 -36.15 2.55 -36.2 L2.9 -36.65 3.1 -36.55 3.5 -36.75 4.8 -37.5 7.35 -35.9 7.7 -35.9 8.1 -36.15 10.2 -34.85 11.55 -35.45 13.65 -33.35 14.05 -33.35 14.7 -32.1 Q16.3 -31.25 18.0 -31.75 M8.15 -46.3 L8.8 -45.6 7.75 -45.45 Q6.35 -44.9 5.5 -44.25 L4.6 -43.6 5.0 -44.25 5.65 -45.65 6.5 -46.45 7.3 -46.95 7.35 -47.1 7.75 -46.75 8.15 -46.3 M3.9 -44.65 L3.65 -44.25 Q-4.45 -31.2 -2.95 -43.35 L-1.7 -40.75 -0.5 -38.85 -1.45 -41.1 -1.95 -42.85 -1.3 -42.55 -0.6 -42.45 Q-0.25 -41.45 1.05 -41.9 L1.75 -43.0 2.05 -43.5 Q2.75 -43.55 3.35 -44.25 L3.9 -44.65" fill="url(#gradient6)" fill-rule="evenodd" stroke="none"/>
    <path d="M-3.35 -44.45 L-3.3 -44.35 -3.25 -44.3 -3.25 -44.25 -2.95 -43.35 Q-4.45 -31.2 3.65 -44.25 L3.9 -44.65 4.4 -45.6 5.3 -46.65 5.45 -47.35 5.75 -46.75 5.65 -45.65 5.0 -44.25 4.6 -43.6 3.1 -42.0 Q2.6 -41.55 2.1 -40.3 L2.05 -40.25 Q-4.75 -31.4 -4.05 -43.3 -3.85 -43.75 -3.8 -44.25 L-3.65 -44.6 -3.35 -44.45" fill="url(#gradient7)" fill-rule="evenodd" stroke="none"/>
    <path d="M-3.3 -44.35 L-3.25 -44.35 -3.25 -44.3 -3.3 -44.35" fill="url(#gradient8)" fill-rule="evenodd" stroke="none"/>
    <path d="M-8.2 -46.4 Q-7.75 -49.15 -5.85 -49.8 L-5.2 -50.0 -4.85 -50.1 -4.65 -49.25 -4.15 -48.4 -4.2 -48.25 -5.15 -48.2 -5.7 -48.05 Q-8.5 -46.85 -7.85 -44.25 L-7.8 -43.65 -8.25 -45.1 -8.2 -46.4" fill="url(#gradient9)" fill-rule="evenodd" stroke="none"/>
    <path d="M5.45 -52.95 L5.6 -52.4 5.45 -51.7 5.45 -52.95" fill="url(#gradient10)" fill-rule="evenodd" stroke="none"/>
    <path d="M5.6 -50.1 Q8.1 -49.7 8.15 -46.3 L7.75 -46.75 7.15 -48.0 Q7.15 -48.35 6.3 -48.9 L5.55 -49.15 5.55 -49.8 5.6 -50.1" fill="url(#gradient11)" fill-rule="evenodd" stroke="none"/>
    <path d="M7.15 -48.0 L7.3 -47.7 7.25 -47.15 7.0 -47.2 6.7 -47.85 5.85 -48.0 5.65 -47.95 5.5 -47.95 5.55 -49.15 6.3 -48.9 Q7.15 -48.35 7.15 -48.0" fill="url(#gradient12)" fill-rule="evenodd" stroke="none"/>
    <path d="M-8.45 -45.8 L-8.2 -46.4 -8.25 -45.1 -7.8 -43.65 -7.85 -44.25 Q-8.5 -46.85 -5.7 -48.05 L-5.65 -47.45 -5.6 -47.45 -5.6 -47.1 -6.05 -45.7 -6.3 -44.6 -7.0 -43.25 -7.3 -41.6 -8.05 -42.5 Q-8.55 -43.45 -8.55 -44.25 L-8.45 -45.8" fill="url(#gradient13)" fill-rule="evenodd" stroke="none"/>
    <path d="M5.75 -46.75 L5.45 -47.35 5.5 -47.95 5.65 -47.95 5.85 -47.75 6.15 -47.3 6.25 -47.25 6.25 -47.4 6.95 -47.2 7.3 -46.95 6.5 -46.45 5.75 -46.75 M7.8 -18.05 L7.95 -17.95 7.85 -17.9 7.8 -18.05" fill="url(#gradient14)" fill-rule="evenodd" stroke="none"/>
    <path d="M5.65 -47.95 L5.85 -48.0 5.85 -47.75 5.65 -47.95" fill="url(#gradient15)" fill-rule="evenodd" stroke="none"/>
    <path d="M-5.65 -47.45 L-5.6 -47.45 -5.65 -47.45" fill="url(#gradient16)" fill-rule="evenodd" stroke="none"/>
    <path d="M7.0 -47.2 L7.25 -47.15 7.35 -47.1 7.3 -46.95 6.95 -47.2 7.0 -47.2" fill="url(#gradient17)" fill-rule="evenodd" stroke="none"/>
    <path d="M-3.65 -44.6 L-3.8 -44.25 Q-3.85 -43.75 -4.05 -43.3 L-4.25 -42.85 -4.85 -42.1 -5.35 -42.75 -5.7 -42.85 -5.8 -42.55 -5.85 -42.55 -6.1 -43.65 -6.05 -45.7 -5.6 -47.1 Q-5.25 -45.15 -3.65 -44.6" fill="url(#gradient18)" fill-rule="evenodd" stroke="none"/>
    <path d="M-7.3 -41.6 L-7.0 -43.25 -6.3 -44.6 -6.3 -44.25 Q-6.7 -43.25 -6.45 -41.1 L-6.7 -40.0 -6.3 -38.25 -5.15 -37.1 -5.15 -36.85 -4.55 -35.5 -4.6 -35.5 -4.75 -35.55 -4.9 -35.9 -6.1 -36.7 -6.85 -38.0 -7.25 -39.5 -7.35 -41.2 -7.3 -41.6" fill="url(#gradient19)" fill-rule="evenodd" stroke="none"/>
    <path d="M-9.05 -42.1 Q-10.0 -45.0 -8.45 -45.8 L-8.55 -44.25 Q-8.55 -43.45 -8.05 -42.5 L-7.3 -41.6 -7.35 -41.2 -7.85 -40.95 -8.7 -41.65 -9.05 -42.1" fill="url(#gradient20)" fill-rule="evenodd" stroke="none"/>
    <path d="M5.65 -45.65 L5.75 -46.75 6.5 -46.45 5.65 -45.65 M-3.95 -34.2 Q-2.9 -32.05 -2.3 -31.4 L-2.15 -30.95 -2.4 -30.9 -2.7 -31.25 Q-3.9 -32.45 -3.95 -32.85 L-4.3 -34.2 -3.95 -34.2 M-1.95 -29.75 L-1.5 -28.25 -1.15 -27.55 -1.4 -27.55 -2.05 -26.95 -2.25 -27.05 -2.5 -27.5 -2.65 -28.35 -3.4 -29.85 -3.4 -30.05 -3.35 -30.05 -2.9 -29.95 -1.95 -29.75 M-0.85 -27.0 L-0.25 -26.25 -0.4 -26.05 -0.95 -26.15 -0.85 -27.0 M1.75 -43.0 L1.05 -41.9 Q-0.25 -41.45 -0.6 -42.45 L0.55 -42.75 1.75 -43.0" fill="url(#gradient21)" fill-rule="evenodd" stroke="none"/>
    <path d="M4.4 -45.6 L3.9 -44.65 3.35 -44.25 Q2.75 -43.55 2.05 -43.5 L1.75 -43.0 0.55 -42.75 1.9 -43.75 2.5 -44.5 3.75 -45.05 4.4 -45.6" fill="url(#gradient22)" fill-rule="evenodd" stroke="none"/>
    <path d="M9.3 -45.5 Q10.35 -46.3 12.2 -44.95 L11.35 -44.25 Q7.65 -40.35 8.1 -36.15 L7.7 -35.9 7.35 -35.9 4.8 -37.5 4.75 -37.65 4.85 -37.8 4.7 -38.25 Q4.3 -41.35 7.35 -44.25 L8.5 -45.1 9.3 -45.5" fill="url(#gradient23)" fill-rule="evenodd" stroke="none"/>
    <path d="M8.8 -45.6 L9.3 -45.5 8.5 -45.1 7.35 -44.25 Q4.3 -41.35 4.7 -38.25 L4.75 -37.65 4.8 -37.5 3.5 -36.75 3.1 -36.55 2.9 -36.65 2.95 -36.95 Q3.05 -37.85 1.65 -37.9 L1.7 -39.0 2.05 -40.25 2.1 -40.25 2.1 -40.3 Q2.6 -41.55 3.1 -42.0 L4.6 -43.6 5.5 -44.25 Q6.35 -44.9 7.75 -45.45 L8.8 -45.6" fill="url(#gradient24)" fill-rule="evenodd" stroke="none"/>
    <path d="M4.75 -37.65 L4.7 -38.25 4.85 -37.8 4.75 -37.65" fill="url(#gradient25)" fill-rule="evenodd" stroke="none"/>
    <path d="M12.2 -44.95 Q13.3 -46.0 15.4 -44.1 L16.9 -42.65 Q17.15 -42.3 16.95 -41.1 14.7 -38.2 11.55 -35.45 L10.2 -34.85 8.1 -36.15 Q7.65 -40.35 11.35 -44.25 L12.2 -44.95" fill="url(#gradient26)" fill-rule="evenodd" stroke="none"/>
    <path d="M16.95 -41.1 L18.35 -39.75 19.7 -38.05 19.8 -37.6 19.6 -36.55 19.35 -35.85 18.0 -34.6 16.55 -33.7 14.05 -33.35 13.65 -33.35 11.55 -35.45 Q14.7 -38.2 16.95 -41.1" fill="url(#gradient27)" fill-rule="evenodd" stroke="none"/>
    <path d="M-4.85 -42.1 Q-5.9 -40.05 -5.85 -42.45 L-5.8 -42.55 -5.7 -42.85 -5.35 -42.75 -4.85 -42.1" fill="url(#gradient28)" fill-rule="evenodd" stroke="none"/>
    <path d="M-5.85 -42.45 L-5.85 -42.55 -5.8 -42.55 -5.85 -42.45" fill="url(#gradient29)" fill-rule="evenodd" stroke="none"/>
    <path d="M-4.6 -35.5 L-4.55 -35.5 -4.05 -34.4 -4.75 -34.6 Q-5.9 -35.25 -4.75 -35.55 L-4.6 -35.5" fill="url(#gradient30)" fill-rule="evenodd" stroke="none"/>
    <path d="M-4.75 -35.55 L-4.6 -35.5 -4.75 -35.55" fill="url(#gradient31)" fill-rule="evenodd" stroke="none"/>
    <path d="M-6.85 -38.0 L-6.1 -36.7 -4.9 -35.9 -4.75 -35.55 Q-5.9 -35.25 -4.75 -34.6 L-4.05 -34.4 -3.95 -34.2 -4.3 -34.2 -4.75 -34.2 -5.2 -34.3 -5.65 -34.6 -5.95 -34.9 Q-6.95 -36.5 -6.8 -36.6 L-6.85 -38.0" fill="url(#gradient32)" fill-rule="evenodd" stroke="none"/>
    <path d="M-8.05 -35.65 Q-9.1 -37.15 -9.1 -38.45 L-8.45 -38.15 -8.35 -39.05 Q-9.6 -39.4 -8.7 -41.65 L-7.85 -40.95 -7.35 -41.2 -7.25 -39.5 -6.85 -38.0 -6.8 -36.6 Q-6.95 -36.5 -5.95 -34.9 L-6.8 -34.85 Q-7.55 -35.0 -8.0 -35.6 L-8.05 -35.65" fill="url(#gradient33)" fill-rule="evenodd" stroke="none"/>
    <path d="M2.05 -40.25 L2.1 -40.3 2.1 -40.25 2.05 -40.25" fill="url(#gradient34)" fill-rule="evenodd" stroke="none"/>
    <path d="M-9.1 -38.45 Q-10.8 -40.9 -9.05 -42.1 L-8.7 -41.65 Q-9.6 -39.4 -8.35 -39.05 L-8.45 -38.15 -9.1 -38.45" fill="url(#gradient35)" fill-rule="evenodd" stroke="none"/>
    <path d="M-8.05 -35.6 L-8.05 -35.65 -8.0 -35.6 -8.05 -35.6" fill="url(#gradient36)" fill-rule="evenodd" stroke="none"/>
    <path d="M-8.2 -29.95 Q-7.85 -29.0 -8.6 -34.3 L-8.05 -35.6 -8.0 -35.6 Q-7.55 -35.0 -6.8 -34.85 L-5.95 -34.9 -5.65 -34.6 -5.2 -34.3 -6.9 -32.3 -8.0 -28.8 -8.25 -29.15 -8.2 -29.95" fill="url(#gradient37)" fill-rule="evenodd" stroke="none"/>
    <path d="M1.65 -37.9 Q3.05 -37.85 2.95 -36.95 L2.55 -36.2 Q0.95 -36.15 1.65 -37.9" fill="url(#gradient38)" fill-rule="evenodd" stroke="none"/>
    <path d="M2.95 -36.95 L2.9 -36.65 2.55 -36.2 2.95 -36.95" fill="url(#gradient39)" fill-rule="evenodd" stroke="none"/>
    <path d="M19.6 -36.55 Q21.45 -33.0 18.0 -31.75 16.3 -31.25 14.7 -32.1 L14.05 -33.35 16.55 -33.7 18.0 -34.6 19.35 -35.85 19.6 -36.55" fill="url(#gradient40)" fill-rule="evenodd" stroke="none"/>
    <path d="M-8.8 -25.45 Q-11.2 -28.15 -8.2 -29.95 L-8.25 -29.15 -8.0 -28.8 -8.55 -27.25 -8.8 -25.45" fill="url(#gradient41)" fill-rule="evenodd" stroke="none"/>
    <path d="M-8.45 -22.25 L-9.1 -22.25 -9.6 -22.5 -9.65 -22.65 -9.1 -23.7 -8.8 -25.45 -8.55 -27.25 -8.0 -28.8 -6.9 -32.3 -5.2 -34.3 -4.75 -34.2 Q-5.4 -31.7 -3.6 -30.1 L-3.95 -30.15 -4.2 -29.7 Q-5.75 -28.75 -5.5 -26.95 L-5.85 -26.6 -6.6 -24.9 Q-6.75 -23.95 -7.7 -23.85 L-7.8 -23.2 -8.2 -22.25 -8.35 -22.25 -8.45 -22.25" fill="url(#gradient42)" fill-rule="evenodd" stroke="none"/>
    <path d="M-2.7 -31.25 L-3.25 -31.25 Q-3.75 -31.35 -3.55 -30.45 L-2.9 -29.95 -3.35 -30.05 -3.4 -30.1 -3.6 -30.1 Q-5.4 -31.7 -4.75 -34.2 L-4.3 -34.2 -3.95 -32.85 Q-3.9 -32.45 -2.7 -31.25" fill="url(#gradient43)" fill-rule="evenodd" stroke="none"/>
    <path d="M-2.15 -30.95 L-2.1 -30.75 -2.9 -30.95 -3.25 -31.25 -2.7 -31.25 -2.4 -30.9 -2.15 -30.95" fill="url(#gradient44)" fill-rule="evenodd" stroke="none"/>
    <path d="M-3.6 -30.1 L-3.4 -30.1 -3.4 -30.05 -3.4 -29.85 -4.2 -29.7 -3.95 -30.15 -3.6 -30.1 M-2.05 -26.95 L-1.95 -26.65 -2.3 -26.0 -3.25 -25.7 -3.65 -25.85 Q-4.05 -26.0 -3.5 -27.1 L-2.5 -27.5 -2.25 -27.05 -2.05 -26.95" fill="url(#gradient45)" fill-rule="evenodd" stroke="none"/>
    <path d="M-5.5 -26.95 Q-5.75 -28.75 -4.2 -29.7 L-3.4 -29.85 -2.65 -28.35 -2.5 -27.5 -3.5 -27.1 Q-4.05 -26.0 -3.65 -25.85 -4.05 -24.95 -5.5 -26.95" fill="url(#gradient46)" fill-rule="evenodd" stroke="none"/>
    <path d="M-3.4 -30.1 L-3.35 -30.05 -3.4 -30.05 -3.4 -30.1" fill="url(#gradient47)" fill-rule="evenodd" stroke="none"/>
    <path d="M-2.1 -30.75 L-1.95 -29.75 -2.9 -29.95 -3.55 -30.45 Q-3.75 -31.35 -3.25 -31.25 L-2.9 -30.95 -2.1 -30.75" fill="url(#gradient48)" fill-rule="evenodd" stroke="none"/>
    <path d="M-1.15 -27.55 L-1.0 -27.35 -1.95 -25.55 -2.2 -25.55 -2.3 -26.0 -1.95 -26.65 -2.05 -26.95 -1.4 -27.55 -1.15 -27.55 M6.7 -22.8 L6.85 -22.45 7.05 -19.65 7.8 -18.05 7.85 -17.9 7.95 -17.5 7.0 -14.2 6.7 -14.4 5.9 -13.5 5.3 -13.5 4.6 -13.85 4.2 -13.35 3.65 -13.15 2.65 -13.55 2.0 -13.1 Q-1.3 -14.25 -1.0 -15.25 L-1.0 -15.3 -1.05 -15.35 -1.55 -16.9 -2.5 -20.25 Q-2.65 -24.15 -2.1 -24.9 L-2.0 -25.45 -1.8 -25.3 -1.45 -25.35 -1.1 -24.1 -0.9 -23.9 Q1.0 -21.25 1.85 -22.45 L3.0 -22.5 Q3.5 -20.6 3.6 -22.55 L5.2 -23.05 6.55 -22.7 6.7 -22.8" fill="url(#gradient49)" fill-rule="evenodd" stroke="none"/>
    <path d="M-1.0 -27.35 L-0.85 -27.0 -0.95 -26.15 -1.15 -26.15 -1.4 -25.95 -1.45 -25.35 -1.8 -25.3 -2.0 -25.45 -2.1 -24.9 Q-2.65 -24.15 -2.5 -20.25 L-1.55 -16.9 Q-8.15 -17.85 -7.8 -23.2 L-7.7 -23.85 Q-6.75 -23.95 -6.6 -24.9 L-5.85 -26.6 -5.5 -26.95 Q-4.05 -24.95 -3.65 -25.85 L-3.25 -25.7 -2.3 -26.0 -2.2 -25.55 -1.95 -25.55 -1.0 -27.35" fill="url(#gradient50)" fill-rule="evenodd" stroke="none"/>
    <path d="M-0.25 -26.25 L0.5 -25.5 1.9 -24.9 1.95 -24.8 1.7 -24.2 1.85 -22.45 Q1.0 -21.25 -0.9 -23.9 L-0.8 -24.9 -0.4 -26.05 -0.25 -26.25" fill="url(#gradient51)" fill-rule="evenodd" stroke="none"/>
    <path d="M1.95 -24.8 L6.15 -23.55 5.2 -23.05 3.6 -22.55 3.0 -22.5 1.85 -22.45 1.7 -24.2 1.95 -24.8 M-1.45 -25.35 L-1.4 -25.95 -1.15 -26.15 -0.95 -26.15 -0.4 -26.05 -0.8 -24.9 -0.9 -23.9 -1.1 -24.1 -1.45 -25.35" fill="url(#gradient52)" fill-rule="evenodd" stroke="none"/>
    <path d="M-8.85 -18.6 L-8.5 -21.5 -8.25 -22.2 -8.2 -22.25 -7.8 -23.2 Q-8.15 -17.85 -1.55 -16.9 L-1.05 -15.35 -1.05 -15.3 -1.05 -13.75 -0.95 -13.1 -3.05 -13.0 Q-3.7 -12.9 -6.5 -13.9 -6.5 -12.1 -1.85 -11.65 -3.45 -10.85 -6.8 -12.95 L-7.4 -14.15 -7.7 -15.25 -8.05 -16.0 -8.65 -17.5 -8.85 -18.6" fill="url(#gradient53)" fill-rule="evenodd" stroke="none"/>
    <path d="M-8.25 -22.2 L-8.35 -22.2 -8.35 -22.25 -8.2 -22.25 -8.25 -22.2" fill="url(#gradient54)" fill-rule="evenodd" stroke="none"/>
    <path d="M-8.35 -22.2 L-8.45 -22.25 -8.35 -22.25 -8.35 -22.2" fill="url(#gradient55)" fill-rule="evenodd" stroke="none"/>
    <path d="M3.6 -22.55 Q3.5 -20.6 3.0 -22.5 L3.6 -22.55" fill="url(#gradient56)" fill-rule="evenodd" stroke="none"/>
    <path d="M6.15 -23.55 L6.55 -23.4 6.7 -22.8 6.55 -22.7 5.2 -23.05 6.15 -23.55" fill="url(#gradient57)" fill-rule="evenodd" stroke="none"/>
    <path d="M-8.55 -16.35 L-8.95 -17.1 -8.85 -18.6 -8.65 -17.5 -8.05 -16.0 -8.55 -16.3 -8.55 -16.35" fill="url(#gradient58)" fill-rule="evenodd" stroke="none"/>
    <path d="M-8.55 -16.3 L-8.55 -16.35 -8.55 -16.3" fill="url(#gradient59)" fill-rule="evenodd" stroke="none"/>
    <path d="M-8.6 -14.65 L-8.75 -15.65 -8.55 -16.3 -8.05 -16.0 -7.7 -15.25 -7.4 -14.15 -8.05 -13.85 Q-8.35 -13.8 -8.6 -14.65" fill="url(#gradient60)" fill-rule="evenodd" stroke="none"/>
    <path d="M7.0 -14.2 L6.95 -14.0 7.0 -10.45 6.7 -9.65 6.15 -9.2 6.0 -9.15 8.35 -7.9 8.5 -7.85 Q1.0 -6.5 6.4 -5.65 L6.15 -5.55 4.0 -5.2 3.65 -5.35 3.5 -5.25 2.65 -5.35 2.6 -5.55 Q2.0 -5.75 1.15 -6.95 L0.8 -7.7 1.35 -7.5 1.55 -7.5 1.55 -7.65 0.35 -8.9 Q-0.6 -10.55 -0.6 -11.15 L-0.6 -11.25 -0.7 -11.8 -0.95 -13.1 -1.05 -13.75 -1.05 -15.3 -1.0 -15.3 -1.0 -15.25 Q-1.3 -14.25 2.0 -13.1 L2.65 -13.55 3.65 -13.15 4.2 -13.35 4.6 -13.85 5.3 -13.5 5.9 -13.5 6.7 -14.4 7.0 -14.2" fill="url(#gradient61)" fill-rule="evenodd" stroke="none"/>
    <path d="M-1.05 -15.35 L-1.0 -15.3 -1.05 -15.3 -1.05 -15.35" fill="url(#gradient62)" fill-rule="evenodd" stroke="none"/>
    <path d="M-6.55 -7.05 Q-9.9 -11.4 -8.6 -14.65 -8.35 -13.8 -8.05 -13.85 L-7.4 -14.15 -6.8 -12.95 Q-6.5 -8.8 -0.65 -10.3 L-0.55 -9.55 0.0 -8.5 -0.15 -7.55 -0.25 -6.3 Q-4.4 -4.95 -6.55 -7.05" fill="url(#gradient63)" fill-rule="evenodd" stroke="none"/>
    <path d="M-1.85 -11.65 Q-6.5 -12.1 -6.5 -13.9 -3.7 -12.9 -3.05 -13.0 L-0.95 -13.1 -0.7 -11.8 -1.85 -11.65" fill="url(#gradient64)" fill-rule="evenodd" stroke="none"/>
    <path d="M-6.8 -12.95 Q-3.45 -10.85 -1.85 -11.65 L-0.7 -11.8 -0.6 -11.25 -0.6 -11.15 -0.65 -10.3 Q-6.5 -8.8 -6.8 -12.95" fill="url(#gradient65)" fill-rule="evenodd" stroke="none"/>
    <path d="M11.6 -7.8 L12.15 -5.85 11.95 -4.25 Q12.45 1.7 6.05 1.75 L5.15 1.3 4.05 1.0 3.6 0.7 Q1.2 -0.2 1.25 -0.65 L0.5 -2.7 0.45 -2.75 0.1 -3.65 -0.1 -4.95 -0.25 -6.3 -0.15 -7.55 Q-0.2 -6.65 0.3 -5.85 L0.7 -5.55 2.05 -4.8 2.65 -5.35 3.5 -5.25 3.65 -5.35 4.0 -5.2 Q4.05 -2.9 7.5 -3.45 8.6 -3.7 9.2 -4.35 L10.15 -5.55 10.9 -6.85 11.15 -7.8 11.6 -7.8" fill="url(#gradient66)" fill-rule="evenodd" stroke="none"/>
    <path d="M10.5 -7.8 L11.15 -7.8 10.9 -6.85 10.15 -5.55 9.2 -4.35 Q8.6 -3.7 7.5 -3.45 4.05 -2.9 4.0 -5.2 L6.15 -5.55 6.4 -5.65 Q9.75 -6.15 10.5 -7.8" fill="url(#gradient67)" fill-rule="evenodd" stroke="none"/>
    <path d="M8.5 -7.85 L10.5 -7.8 Q9.75 -6.15 6.4 -5.65 1.0 -6.5 8.5 -7.85" fill="url(#gradient68)" fill-rule="evenodd" stroke="none"/>
    <path d="M-0.65 -10.3 L-0.6 -11.15 Q-0.6 -10.55 0.35 -8.9 L1.55 -7.65 1.55 -7.5 1.35 -7.5 0.8 -7.7 0.25 -8.05 0.0 -8.5 -0.55 -9.55 -0.65 -10.3" fill="url(#gradient69)" fill-rule="evenodd" stroke="none"/>
    <path d="M-0.6 -11.25 L-0.6 -11.15 -0.6 -11.25" fill="url(#gradient70)" fill-rule="evenodd" stroke="none"/>
    <path d="M0.0 -8.5 L0.25 -8.05 0.8 -7.7 1.15 -6.95 Q2.0 -5.75 2.6 -5.55 L2.65 -5.35 2.05 -4.8 0.7 -5.55 0.3 -5.85 Q-0.2 -6.65 -0.15 -7.55 L0.0 -8.5" fill="url(#gradient71)" fill-rule="evenodd" stroke="none"/>
    <path d="M-0.1 -4.95 L-0.85 -4.75 -1.8 -4.45 Q-4.75 -3.95 -5.55 -5.15 L-6.05 -5.7 -6.45 -6.25 -6.55 -7.05 Q-4.4 -4.95 -0.25 -6.3 L-0.1 -4.95" fill="url(#gradient72)" fill-rule="evenodd" stroke="none"/>
    <path d="M-3.55 -2.05 L-3.2 -1.75 -5.55 -1.05 -6.2 -0.95 -6.3 -1.35 Q-8.55 -3.3 -7.6 -4.75 L-7.3 -5.05 -6.05 -5.7 -5.55 -5.15 Q-5.9 -4.7 -4.35 -3.8 L-4.3 -3.45 -4.05 -2.6 -3.55 -2.05" fill="url(#gradient73)" fill-rule="evenodd" stroke="none"/>
    <path d="M-0.85 -4.75 Q-0.55 -2.55 -3.55 -2.05 L-4.05 -2.6 -4.3 -3.45 -3.95 -3.4 -3.35 -3.6 -1.8 -4.45 -0.85 -4.75 M-6.3 -1.35 L-9.25 -0.8 -10.05 -0.9 -10.1 -1.05 -10.0 -2.0 -9.95 -2.15 -10.15 -2.5 Q-10.4 -3.7 -7.6 -4.75 -8.55 -3.3 -6.3 -1.35" fill="url(#gradient74)" fill-rule="evenodd" stroke="none"/>
    <path d="M-10.0 -2.0 L-10.15 -2.5 -9.95 -2.15 -10.0 -2.0" fill="url(#gradient75)" fill-rule="evenodd" stroke="none"/>
    <path d="M-1.8 -4.45 L-3.35 -3.6 -3.95 -3.4 -4.3 -3.45 -4.35 -3.8 Q-5.9 -4.7 -5.55 -5.15 -4.75 -3.95 -1.8 -4.45" fill="url(#gradient76)" fill-rule="evenodd" stroke="none"/>
    <path d="M0.45 -2.7 L0.45 -2.75 0.5 -2.7 0.45 -2.7" fill="url(#gradient77)" fill-rule="evenodd" stroke="none"/>
    <path d="M3.6 0.7 Q-0.6 1.0 0.45 -2.7 L0.5 -2.7 1.25 -0.65 Q1.2 -0.2 3.6 0.7" fill="url(#gradient78)" fill-rule="evenodd" stroke="none"/>
    <path d="M11.95 -4.25 Q14.0 0.3 8.6 2.9 L8.5 2.9 7.9 2.9 6.55 2.6 6.05 1.75 Q12.45 1.7 11.95 -4.25" fill="url(#gradient79)" fill-rule="evenodd" stroke="none"/>
    <path d="M5.2 1.95 L5.15 1.3 6.05 1.75 6.55 2.6 7.9 2.9 7.6 3.25 Q5.15 4.55 5.2 1.95" fill="url(#gradient80)" fill-rule="evenodd" stroke="none"/>
    <path d="M5.05 3.0 L5.05 2.35 5.2 1.95 Q5.15 4.55 7.6 3.25 6.5 4.65 5.05 3.0" fill="url(#gradient81)" fill-rule="evenodd" stroke="none"/>
    <path d="M8.55 3.0 L8.55 3.05 8.25 4.1 7.8 4.75 7.5 4.5 Q6.15 5.35 5.1 4.1 L5.0 3.95 4.95 3.8 5.05 3.0 Q6.5 4.65 7.6 3.25 L7.9 2.9 8.5 2.9 8.55 3.0" fill="url(#gradient82)" fill-rule="evenodd" stroke="none"/>
    <path d="M8.6 2.9 L8.55 3.0 8.5 2.9 8.6 2.9 M8.55 3.05 L8.8 4.45 8.45 5.75 8.3 5.35 7.8 4.75 8.25 4.1 8.55 3.05 M7.85 7.6 Q6.85 11.2 5.8 11.0 L5.0 10.6 3.5 10.85 Q2.6 10.3 3.65 6.9 4.65 7.6 5.6 7.7 L7.85 7.6 M4.85 3.95 L4.95 3.8 5.0 3.95 4.85 3.95" fill="url(#gradient83)" fill-rule="evenodd" stroke="none"/>
    <path d="M8.45 5.75 L8.5 6.15 8.25 7.15 7.9 8.1 7.8 8.2 7.95 7.85 7.85 7.6 5.6 7.7 Q4.65 7.6 3.65 6.9 L3.7 6.45 4.45 4.5 4.85 3.95 5.0 3.95 5.1 4.1 Q6.15 5.35 7.5 4.5 L7.8 4.75 8.3 5.35 8.45 5.75" fill="url(#gradient84)" fill-rule="evenodd" stroke="none"/>
    <path d="M5.8 11.0 L5.0 10.85 3.5 10.85 5.0 10.6 5.8 11.0" fill="url(#gradient85)" fill-rule="evenodd" stroke="none"/>
  </g>
  <defs>
    <radialGradient cx="0" cy="0" gradientTransform="matrix(0.0088, 0.0, 0.0, 0.0088, -1.25, -51.85)" gradientUnits="userSpaceOnUse" id="gradient0" r="819.2" spreadMethod="pad">
      <stop offset="0.0" stop-color="#a49057"/>
      <stop offset="1.0" stop-color="#605433"/>
    </radialGradient>
    <radialGradient cx="0" cy="0" gradientTransform="matrix(0.011, 0.0, 0.0, 0.011, -3.3, -57.1)" gradientUnits="userSpaceOnUse" id="gradient1" r="819.2" spreadMethod="pad">
      <stop offset="0.0" stop-color="#a28e56"/>
      <stop offset="1.0" stop-color="#6c5f39"/>
    </radialGradient>
    <radialGradient cx="0" cy="0" gradientTransform="matrix(0.0091, 0.0, 0.0, 0.0091, -3.0, -45.95)" gradientUnits="userSpaceOnUse" id="gradient2" r="819.2" spreadMethod="pad">
      <stop offset="0.0" stop-color="#a49057"/>
      <stop offset="1.0" stop-color="#6d5f3a"/>
    </radialGradient>
    <radialGradient cx="0" cy="0" gradientTransform="matrix(0.0102, 0.0, 0.0, 0.0102, -1.9, -46.8)" gradientUnits="userSpaceOnUse" id="gradient3" r="819.2" spreadMethod="pad">
      <stop offset="0.0" stop-color="#453e32"/>
      <stop offset="1.0" stop-color="#423b2f"/>
    </radialGradient>
    <radialGradient cx="0" cy="0" gradientTransform="matrix(0.0084, 0.0, 0.0, 0.0084, -0.45, -46.7)" gradientUnits="userSpaceOnUse" id="gradient4" r="819.2" spreadMethod="pad">
      <stop offset="0.0" stop-color="#4b4436"/>
      <stop offset="1.0" stop-color="#3f382e"/>
    </radialGradient>
    <radialGradient cx="0" cy="0" gradientTransform="matrix(0.0056, 0.0, 0.0, 0.0056, 0.75, -44.75)" gradientUnits="userSpaceOnUse" id="gradient5" r="819.2" spreadMethod="pad">
      <stop offset="0.0" stop-color="#b7844c"/>
      <stop offset="1.0" stop-color="#876237"/>
    </radialGradient>
    <radialGradient cx="0" cy="0" gradientTransform="matrix(0.044, 0.0, 0.0, 0.044, -0.1, -41.9)" gradientUnits="userSpaceOnUse" id="gradient6" r="819.2" spreadMethod="pad">
      <stop offset="0.0" stop-color="#3e4a76"/>
      <stop offset="1.0" stop-color="#1c2135"/>
    </radialGradient>
    <radialGradient cx="0" cy="0" gradientTransform="matrix(0.0115, 0.0, 0.0, 0.0115, -2.7, -45.85)" gradientUnits="userSpaceOnUse" id="gradient7" r="819.2" spreadMethod="pad">
      <stop offset="0.0" stop-color="#ffee56"/>
      <stop offset="1.0" stop-color="#887b2c"/>
    </radialGradient>
    <radialGradient cx="0" cy="0" gradientTransform="matrix(0.0091, 0.0, 0.0, 0.0091, -3.7, -45.7)" gradientUnits="userSpaceOnUse" id="gradient8" r="819.2" spreadMethod="pad">
      <stop offset="0.0" stop-color="#15130b"/>
      <stop offset="1.0" stop-color="#15130b"/>
    </radialGradient>
    <radialGradient cx="0" cy="0" gradientTransform="matrix(0.0071, 0.0, 0.0, 0.0071, -5.9, -49.1)" gradientUnits="userSpaceOnUse" id="gradient9" r="819.2" spreadMethod="pad">
      <stop offset="0.0" stop-color="#a49057"/>
      <stop offset="1.0" stop-color="#4a4127"/>
    </radialGradient>
    <radialGradient cx="0" cy="0" gradientTransform="matrix(0.0052, 0.0, 0.0, 0.0052, 5.4, -53.1)" gradientUnits="userSpaceOnUse" id="gradient10" r="819.2" spreadMethod="pad">
      <stop offset="0.0" stop-color="#655936"/>
      <stop offset="1.0" stop-color="#50462a"/>
    </radialGradient>
    <radialGradient cx="0" cy="0" gradientTransform="matrix(0.0075, 0.0, 0.0, 0.0075, 8.0, -45.35)" gradientUnits="userSpaceOnUse" id="gradient11" r="819.2" spreadMethod="pad">
      <stop offset="0.0" stop-color="#827245"/>
      <stop offset="1.0" stop-color="#4c4328"/>
    </radialGradient>
    <radialGradient cx="0" cy="0" gradientTransform="matrix(0.0032, 0.0, 0.0, 0.0032, 4.8, -48.35)" gradientUnits="userSpaceOnUse" id="gradient12" r="819.2" spreadMethod="pad">
      <stop offset="0.0" stop-color="#837346"/>
      <stop offset="1.0" stop-color="#615534"/>
    </radialGradient>
    <radialGradient cx="0" cy="0" gradientTransform="matrix(0.006, 0.0, 0.0, 0.006, -5.35, -46.0)" gradientUnits="userSpaceOnUse" id="gradient13" r="819.2" spreadMethod="pad">
      <stop offset="0.0" stop-color="#ffd87c"/>
      <stop offset="1.0" stop-color="#966c3e"/>
    </radialGradient>
    <radialGradient cx="0" cy="0" gradientTransform="matrix(0.0307, 0.0, 0.0, 0.0307, 8.5, -23.75)" gradientUnits="userSpaceOnUse" id="gradient14" r="819.2" spreadMethod="pad">
      <stop offset="0.0" stop-color="#0c0e17"/>
      <stop offset="1.0" stop-color="#08090e"/>
    </radialGradient>
    <radialGradient cx="0" cy="0" gradientTransform="matrix(0.0011, 0.0, 0.0, 0.0011, 5.75, -47.75)" gradientUnits="userSpaceOnUse" id="gradient15" r="819.2" spreadMethod="pad">
      <stop offset="0.0" stop-color="#6f613b"/>
      <stop offset="1.0" stop-color="#655936"/>
    </radialGradient>
    <radialGradient cx="0" cy="0" gradientTransform="matrix(0.0011, 0.0, 0.0, 0.0011, -5.65, -47.75)" gradientUnits="userSpaceOnUse" id="gradient16" r="819.2" spreadMethod="pad">
      <stop offset="0.0" stop-color="#3b362b"/>
      <stop offset="1.0" stop-color="#383329"/>
    </radialGradient>
    <radialGradient cx="0" cy="0" gradientTransform="matrix(0.001, 0.0, 0.0, 0.001, 6.8, -47.35)" gradientUnits="userSpaceOnUse" id="gradient17" r="819.2" spreadMethod="pad">
      <stop offset="0.0" stop-color="#2f3859"/>
      <stop offset="1.0" stop-color="#2f3859"/>
    </radialGradient>
    <radialGradient cx="0" cy="0" gradientTransform="matrix(0.0045, 0.0, 0.0, 0.0045, -4.1, -45.6)" gradientUnits="userSpaceOnUse" id="gradient18" r="819.2" spreadMethod="pad">
      <stop offset="0.0" stop-color="#655b49"/>
      <stop offset="1.0" stop-color="#423c30"/>
    </radialGradient>
    <radialGradient cx="0" cy="0" gradientTransform="matrix(0.0076, 0.0, 0.0, 0.0076, -6.35, -40.85)" gradientUnits="userSpaceOnUse" id="gradient19" r="819.2" spreadMethod="pad">
      <stop offset="0.0" stop-color="#d79c59"/>
      <stop offset="1.0" stop-color="#aa7a46"/>
    </radialGradient>
    <radialGradient cx="0" cy="0" gradientTransform="matrix(0.0047, 0.0, 0.0, 0.0047, -8.2, -42.55)" gradientUnits="userSpaceOnUse" id="gradient20" r="819.2" spreadMethod="pad">
      <stop offset="0.0" stop-color="#695f4d"/>
      <stop offset="1.0" stop-color="#363128"/>
    </radialGradient>
    <radialGradient cx="0" cy="0" gradientTransform="matrix(0.0215, 0.0, 0.0, 0.0215, 2.05, -42.65)" gradientUnits="userSpaceOnUse" id="gradient21" r="819.2" spreadMethod="pad">
      <stop offset="0.0" stop-color="#ffc872"/>
      <stop offset="1.0" stop-color="#be894e"/>
    </radialGradient>
    <radialGradient cx="0" cy="0" gradientTransform="matrix(0.0036, 0.0, 0.0, 0.0036, 1.55, -45.0)" gradientUnits="userSpaceOnUse" id="gradient22" r="819.2" spreadMethod="pad">
      <stop offset="0.0" stop-color="#ffba6a"/>
      <stop offset="1.0" stop-color="#c68f52"/>
    </radialGradient>
    <radialGradient cx="0" cy="0" gradientTransform="matrix(0.0073, 0.0, 0.0, 0.0073, 9.8, -40.8)" gradientUnits="userSpaceOnUse" id="gradient23" r="819.2" spreadMethod="pad">
      <stop offset="0.0" stop-color="#615846"/>
      <stop offset="1.0" stop-color="#2c271f"/>
    </radialGradient>
    <radialGradient cx="0" cy="0" gradientTransform="matrix(0.0073, 0.0, 0.0, 0.0073, 5.7, -41.75)" gradientUnits="userSpaceOnUse" id="gradient24" r="819.2" spreadMethod="pad">
      <stop offset="0.0" stop-color="#625947"/>
      <stop offset="1.0" stop-color="#413b2f"/>
    </radialGradient>
    <radialGradient cx="0" cy="0" gradientTransform="matrix(0.0074, 0.0, 0.0, 0.0074, 6.5, -43.5)" gradientUnits="userSpaceOnUse" id="gradient25" r="819.2" spreadMethod="pad">
      <stop offset="0.0" stop-color="#342f26"/>
      <stop offset="1.0" stop-color="#0c0b09"/>
    </radialGradient>
    <radialGradient cx="0" cy="0" gradientTransform="matrix(0.0075, 0.0, 0.0, 0.0075, 11.95, -40.8)" gradientUnits="userSpaceOnUse" id="gradient26" r="819.2" spreadMethod="pad">
      <stop offset="0.0" stop-color="#615847"/>
      <stop offset="1.0" stop-color="#302a22"/>
    </radialGradient>
    <radialGradient cx="0" cy="0" gradientTransform="matrix(0.0064, 0.0, 0.0, 0.0064, 14.5, -37.45)" gradientUnits="userSpaceOnUse" id="gradient27" r="819.2" spreadMethod="pad">
      <stop offset="0.0" stop-color="#625947"/>
      <stop offset="1.0" stop-color="#3b362b"/>
    </radialGradient>
    <radialGradient cx="0" cy="0" gradientTransform="matrix(0.0025, 0.0, 0.0, 0.0025, -4.9, -42.75)" gradientUnits="userSpaceOnUse" id="gradient28" r="819.2" spreadMethod="pad">
      <stop offset="0.0" stop-color="#c5a62e"/>
      <stop offset="1.0" stop-color="#907922"/>
    </radialGradient>
    <radialGradient cx="0" cy="0" gradientTransform="matrix(0.001, 0.0, 0.0, 0.001, -5.7, -43.2)" gradientUnits="userSpaceOnUse" id="gradient29" r="819.2" spreadMethod="pad">
      <stop offset="0.0" stop-color="#1a1606"/>
      <stop offset="1.0" stop-color="#1a1606"/>
    </radialGradient>
    <radialGradient cx="0" cy="0" gradientTransform="matrix(0.002, 0.0, 0.0, 0.002, -3.95, -35.5)" gradientUnits="userSpaceOnUse" id="gradient30" r="819.2" spreadMethod="pad">
      <stop offset="0.0" stop-color="#ac9128"/>
      <stop offset="1.0" stop-color="#806c1e"/>
    </radialGradient>
    <radialGradient cx="0" cy="0" gradientTransform="matrix(7.0E-4, 0.0, 0.0, 7.0E-4, -4.5, -35.55)" gradientUnits="userSpaceOnUse" id="gradient31" r="819.2" spreadMethod="pad">
      <stop offset="0.0" stop-color="#977f23"/>
      <stop offset="1.0" stop-color="#957e22"/>
    </radialGradient>
    <radialGradient cx="0" cy="0" gradientTransform="matrix(0.0041, 0.0, 0.0, 0.0041, -4.9, -36.05)" gradientUnits="userSpaceOnUse" id="gradient32" r="819.2" spreadMethod="pad">
      <stop offset="0.0" stop-color="#51493b"/>
      <stop offset="1.0" stop-color="#383329"/>
    </radialGradient>
    <radialGradient cx="0" cy="0" gradientTransform="matrix(0.0091, 0.0, 0.0, 0.0091, -7.0, -42.3)" gradientUnits="userSpaceOnUse" id="gradient33" r="819.2" spreadMethod="pad">
      <stop offset="0.0" stop-color="#ffe282"/>
      <stop offset="1.0" stop-color="#8f683b"/>
    </radialGradient>
    <radialGradient cx="0" cy="0" gradientTransform="matrix(0.007, 0.0, 0.0, 0.007, 4.8, -43.85)" gradientUnits="userSpaceOnUse" id="gradient34" r="819.2" spreadMethod="pad">
      <stop offset="0.0" stop-color="#322d24"/>
      <stop offset="1.0" stop-color="#0c0b09"/>
    </radialGradient>
    <radialGradient cx="0" cy="0" gradientTransform="matrix(0.0041, 0.0, 0.0, 0.0041, -9.1, -39.55)" gradientUnits="userSpaceOnUse" id="gradient35" r="819.2" spreadMethod="pad">
      <stop offset="0.0" stop-color="#615846"/>
      <stop offset="1.0" stop-color="#3c362c"/>
    </radialGradient>
    <radialGradient cx="0" cy="0" gradientTransform="matrix(0.0053, 0.0, 0.0, 0.0053, -9.15, -38.65)" gradientUnits="userSpaceOnUse" id="gradient36" r="819.2" spreadMethod="pad">
      <stop offset="0.0" stop-color="#a97a46"/>
      <stop offset="1.0" stop-color="#261c10"/>
    </radialGradient>
    <radialGradient cx="0" cy="0" gradientTransform="matrix(0.0085, 0.0, 0.0, 0.0085, -5.0, -34.75)" gradientUnits="userSpaceOnUse" id="gradient37" r="819.2" spreadMethod="pad">
      <stop offset="0.0" stop-color="#ffe885"/>
      <stop offset="1.0" stop-color="#bc884d"/>
    </radialGradient>
    <radialGradient cx="0" cy="0" gradientTransform="matrix(0.0024, 0.0, 0.0, 0.0024, 2.9, -37.65)" gradientUnits="userSpaceOnUse" id="gradient38" r="819.2" spreadMethod="pad">
      <stop offset="0.0" stop-color="#b3972a"/>
      <stop offset="1.0" stop-color="#917a22"/>
    </radialGradient>
    <radialGradient cx="0" cy="0" gradientTransform="matrix(0.0025, 0.0, 0.0, 0.0025, 3.35, -37.65)" gradientUnits="userSpaceOnUse" id="gradient39" r="819.2" spreadMethod="pad">
      <stop offset="0.0" stop-color="#73611b"/>
      <stop offset="1.0" stop-color="#6e5c19"/>
    </radialGradient>
    <radialGradient cx="0" cy="0" gradientTransform="matrix(0.0044, 0.0, 0.0, 0.0044, 17.15, -34.75)" gradientUnits="userSpaceOnUse" id="gradient40" r="819.2" spreadMethod="pad">
      <stop offset="0.0" stop-color="#595141"/>
      <stop offset="1.0" stop-color="#2c271f"/>
    </radialGradient>
    <radialGradient cx="0" cy="0" gradientTransform="matrix(0.0035, 0.0, 0.0, 0.0035, -8.1, -28.15)" gradientUnits="userSpaceOnUse" id="gradient41" r="819.2" spreadMethod="pad">
      <stop offset="0.0" stop-color="#ffed88"/>
      <stop offset="1.0" stop-color="#9b7040"/>
    </radialGradient>
    <radialGradient cx="0" cy="0" gradientTransform="matrix(0.0108, 0.0, 0.0, 0.0108, -4.35, -29.7)" gradientUnits="userSpaceOnUse" id="gradient42" r="819.2" spreadMethod="pad">
      <stop offset="0.0" stop-color="#414d7b"/>
      <stop offset="1.0" stop-color="#191e30"/>
    </radialGradient>
    <radialGradient cx="0" cy="0" gradientTransform="matrix(0.0045, 0.0, 0.0, 0.0045, -3.45, -31.45)" gradientUnits="userSpaceOnUse" id="gradient43" r="819.2" spreadMethod="pad">
      <stop offset="0.0" stop-color="#5b5342"/>
      <stop offset="1.0" stop-color="#3c372c"/>
    </radialGradient>
    <radialGradient cx="0" cy="0" gradientTransform="matrix(0.0022, 0.0, 0.0, 0.0022, -1.7, -31.05)" gradientUnits="userSpaceOnUse" id="gradient44" r="819.2" spreadMethod="pad">
      <stop offset="0.0" stop-color="#a88e27"/>
      <stop offset="1.0" stop-color="#a58b26"/>
    </radialGradient>
    <radialGradient cx="0" cy="0" gradientTransform="matrix(0.0052, 0.0, 0.0, 0.0052, -2.55, -26.55)" gradientUnits="userSpaceOnUse" id="gradient45" r="819.2" spreadMethod="pad">
      <stop offset="0.0" stop-color="#dab833"/>
      <stop offset="1.0" stop-color="#937c22"/>
    </radialGradient>
    <radialGradient cx="0" cy="0" gradientTransform="matrix(0.0039, 0.0, 0.0, 0.0039, -2.95, -28.55)" gradientUnits="userSpaceOnUse" id="gradient46" r="819.2" spreadMethod="pad">
      <stop offset="0.0" stop-color="#6b614e"/>
      <stop offset="1.0" stop-color="#403a2f"/>
    </radialGradient>
    <radialGradient cx="0" cy="0" gradientTransform="matrix(0.0033, 0.0, 0.0, 0.0033, -4.6, -31.5)" gradientUnits="userSpaceOnUse" id="gradient47" r="819.2" spreadMethod="pad">
      <stop offset="0.0" stop-color="#0c0b09"/>
      <stop offset="1.0" stop-color="#0c0b09"/>
    </radialGradient>
    <radialGradient cx="0" cy="0" gradientTransform="matrix(0.0027, 0.0, 0.0, 0.0027, -1.9, -30.8)" gradientUnits="userSpaceOnUse" id="gradient48" r="819.2" spreadMethod="pad">
      <stop offset="0.0" stop-color="#d0af31"/>
      <stop offset="1.0" stop-color="#8f7921"/>
    </radialGradient>
    <radialGradient cx="0" cy="0" gradientTransform="matrix(0.0158, 0.0, 0.0, 0.0158, 3.05, -24.15)" gradientUnits="userSpaceOnUse" id="gradient49" r="819.2" spreadMethod="pad">
      <stop offset="0.0" stop-color="#fffcd1"/>
      <stop offset="1.0" stop-color="#b4aa8d"/>
    </radialGradient>
    <radialGradient cx="0" cy="0" gradientTransform="matrix(0.0136, 0.0, 0.0, 0.0136, -0.4, -27.0)" gradientUnits="userSpaceOnUse" id="gradient50" r="819.2" spreadMethod="pad">
      <stop offset="0.0" stop-color="#efe2bc"/>
      <stop offset="1.0" stop-color="#8b836d"/>
    </radialGradient>
    <radialGradient cx="0" cy="0" gradientTransform="matrix(0.0034, 0.0, 0.0, 0.0034, 1.25, -24.8)" gradientUnits="userSpaceOnUse" id="gradient51" r="819.2" spreadMethod="pad">
      <stop offset="0.0" stop-color="#695e4c"/>
      <stop offset="1.0" stop-color="#302b23"/>
    </radialGradient>
    <radialGradient cx="0" cy="0" gradientTransform="matrix(0.0064, 0.0, 0.0, 0.0064, 3.65, -24.5)" gradientUnits="userSpaceOnUse" id="gradient52" r="819.2" spreadMethod="pad">
      <stop offset="0.0" stop-color="#d9b733"/>
      <stop offset="1.0" stop-color="#887320"/>
    </radialGradient>
    <radialGradient cx="0" cy="0" gradientTransform="matrix(0.0098, 0.0, 0.0, 0.0098, -2.45, -18.65)" gradientUnits="userSpaceOnUse" id="gradient53" r="819.2" spreadMethod="pad">
      <stop offset="0.0" stop-color="#c6ba9b"/>
      <stop offset="1.0" stop-color="#746e5b"/>
    </radialGradient>
    <radialGradient cx="0" cy="0" gradientTransform="matrix(0.001, 0.0, 0.0, 0.001, -8.0, -22.65)" gradientUnits="userSpaceOnUse" id="gradient54" r="819.2" spreadMethod="pad">
      <stop offset="0.0" stop-color="#1d2237"/>
      <stop offset="1.0" stop-color="#121623"/>
    </radialGradient>
    <radialGradient cx="0" cy="0" gradientTransform="matrix(0.009, 0.0, 0.0, 0.009, -7.75, -29.6)" gradientUnits="userSpaceOnUse" id="gradient55" r="819.2" spreadMethod="pad">
      <stop offset="0.0" stop-color="#222840"/>
      <stop offset="1.0" stop-color="#0f121d"/>
    </radialGradient>
    <radialGradient cx="0" cy="0" gradientTransform="matrix(0.0063, 0.0, 0.0, 0.0063, 2.35, -24.1)" gradientUnits="userSpaceOnUse" id="gradient56" r="819.2" spreadMethod="pad">
      <stop offset="0.0" stop-color="#fff9cf"/>
      <stop offset="1.0" stop-color="#e9dcb7"/>
    </radialGradient>
    <radialGradient cx="0" cy="0" gradientTransform="matrix(0.0049, 0.0, 0.0, 0.0049, 5.9, -25.15)" gradientUnits="userSpaceOnUse" id="gradient57" r="819.2" spreadMethod="pad">
      <stop offset="0.0" stop-color="#f6e8c1"/>
      <stop offset="1.0" stop-color="#d2c6a4"/>
    </radialGradient>
    <radialGradient cx="0" cy="0" gradientTransform="matrix(0.0023, 0.0, 0.0, 0.0023, -8.5, -17.3)" gradientUnits="userSpaceOnUse" id="gradient58" r="819.2" spreadMethod="pad">
      <stop offset="0.0" stop-color="#5f5645"/>
      <stop offset="1.0" stop-color="#3b362b"/>
    </radialGradient>
    <radialGradient cx="0" cy="0" gradientTransform="matrix(0.0029, 0.0, 0.0, 0.0029, -8.7, -16.7)" gradientUnits="userSpaceOnUse" id="gradient59" r="819.2" spreadMethod="pad">
      <stop offset="0.0" stop-color="#383329"/>
      <stop offset="1.0" stop-color="#161410"/>
    </radialGradient>
    <radialGradient cx="0" cy="0" gradientTransform="matrix(0.0033, 0.0, 0.0, 0.0033, -7.15, -14.3)" gradientUnits="userSpaceOnUse" id="gradient60" r="819.2" spreadMethod="pad">
      <stop offset="0.0" stop-color="#726753"/>
      <stop offset="1.0" stop-color="#312c23"/>
    </radialGradient>
    <radialGradient cx="0" cy="0" gradientTransform="matrix(0.0122, 0.0, 0.0, 0.0122, 4.5, -14.25)" gradientUnits="userSpaceOnUse" id="gradient61" r="819.2" spreadMethod="pad">
      <stop offset="0.0" stop-color="#dfd2ae"/>
      <stop offset="1.0" stop-color="#837c67"/>
    </radialGradient>
    <radialGradient cx="0" cy="0" gradientTransform="matrix(0.0051, 0.0, 0.0, 0.0051, -1.9, -17.9)" gradientUnits="userSpaceOnUse" id="gradient62" r="819.2" spreadMethod="pad">
      <stop offset="0.0" stop-color="#1f1e19"/>
      <stop offset="1.0" stop-color="#1f1e19"/>
    </radialGradient>
    <radialGradient cx="0" cy="0" gradientTransform="matrix(0.0085, 0.0, 0.0, 0.0085, -3.05, -11.8)" gradientUnits="userSpaceOnUse" id="gradient63" r="819.2" spreadMethod="pad">
      <stop offset="0.0" stop-color="#ded1ae"/>
      <stop offset="1.0" stop-color="#6f6958"/>
    </radialGradient>
    <radialGradient cx="0" cy="0" gradientTransform="matrix(0.0051, 0.0, 0.0, 0.0051, -3.9, -13.2)" gradientUnits="userSpaceOnUse" id="gradient64" r="819.2" spreadMethod="pad">
      <stop offset="0.0" stop-color="#726752"/>
      <stop offset="1.0" stop-color="#3f392e"/>
    </radialGradient>
    <radialGradient cx="0" cy="0" gradientTransform="matrix(0.0049, 0.0, 0.0, 0.0049, -3.05, -11.7)" gradientUnits="userSpaceOnUse" id="gradient65" r="819.2" spreadMethod="pad">
      <stop offset="0.0" stop-color="#736753"/>
      <stop offset="1.0" stop-color="#4e4638"/>
    </radialGradient>
    <radialGradient cx="0" cy="0" gradientTransform="matrix(0.0099, 0.0, 0.0, 0.0099, 5.4, -5.5)" gradientUnits="userSpaceOnUse" id="gradient66" r="819.2" spreadMethod="pad">
      <stop offset="0.0" stop-color="#e7d9b5"/>
      <stop offset="1.0" stop-color="#7f7864"/>
    </radialGradient>
    <radialGradient cx="0" cy="0" gradientTransform="matrix(0.0058, 0.0, 0.0, 0.0058, 7.6, -5.45)" gradientUnits="userSpaceOnUse" id="gradient67" r="819.2" spreadMethod="pad">
      <stop offset="0.0" stop-color="#716652"/>
      <stop offset="1.0" stop-color="#443d31"/>
    </radialGradient>
    <radialGradient cx="0" cy="0" gradientTransform="matrix(0.005, 0.0, 0.0, 0.005, 7.15, -7.1)" gradientUnits="userSpaceOnUse" id="gradient68" r="819.2" spreadMethod="pad">
      <stop offset="0.0" stop-color="#706551"/>
      <stop offset="1.0" stop-color="#383329"/>
    </radialGradient>
    <radialGradient cx="0" cy="0" gradientTransform="matrix(0.0038, 0.0, 0.0, 0.0038, 0.7, -9.1)" gradientUnits="userSpaceOnUse" id="gradient69" r="819.2" spreadMethod="pad">
      <stop offset="0.0" stop-color="#695f4c"/>
      <stop offset="1.0" stop-color="#3a342a"/>
    </radialGradient>
    <radialGradient cx="0" cy="0" gradientTransform="matrix(0.0074, 0.0, 0.0, 0.0074, -1.1, -13.95)" gradientUnits="userSpaceOnUse" id="gradient70" r="819.2" spreadMethod="pad">
      <stop offset="0.0" stop-color="#807964"/>
      <stop offset="1.0" stop-color="#4b473b"/>
    </radialGradient>
    <radialGradient cx="0" cy="0" gradientTransform="matrix(0.0056, 0.0, 0.0, 0.0056, 2.45, -5.6)" gradientUnits="userSpaceOnUse" id="gradient71" r="819.2" spreadMethod="pad">
      <stop offset="0.0" stop-color="#716652"/>
      <stop offset="1.0" stop-color="#28241d"/>
    </radialGradient>
    <radialGradient cx="0" cy="0" gradientTransform="matrix(0.0064, 0.0, 0.0, 0.0064, -4.2, -6.0)" gradientUnits="userSpaceOnUse" id="gradient72" r="819.2" spreadMethod="pad">
      <stop offset="0.0" stop-color="#756a55"/>
      <stop offset="1.0" stop-color="#3a342a"/>
    </radialGradient>
    <radialGradient cx="0" cy="0" gradientTransform="matrix(0.005, 0.0, 0.0, 0.005, -7.3, -2.5)" gradientUnits="userSpaceOnUse" id="gradient73" r="819.2" spreadMethod="pad">
      <stop offset="0.0" stop-color="#756a55"/>
      <stop offset="1.0" stop-color="#433d31"/>
    </radialGradient>
    <radialGradient cx="0" cy="0" gradientTransform="matrix(0.0097, 0.0, 0.0, 0.0097, -7.95, -1.25)" gradientUnits="userSpaceOnUse" id="gradient74" r="819.2" spreadMethod="pad">
      <stop offset="0.0" stop-color="#ffff95"/>
      <stop offset="1.0" stop-color="#dea15c"/>
    </radialGradient>
    <radialGradient cx="0" cy="0" gradientTransform="matrix(0.0023, 0.0, 0.0, 0.0023, -10.25, -2.85)" gradientUnits="userSpaceOnUse" id="gradient75" r="819.2" spreadMethod="pad">
      <stop offset="0.0" stop-color="#a57844"/>
      <stop offset="1.0" stop-color="#946b3d"/>
    </radialGradient>
    <radialGradient cx="0" cy="0" gradientTransform="matrix(0.0042, 0.0, 0.0, 0.0042, -4.95, -3.8)" gradientUnits="userSpaceOnUse" id="gradient76" r="819.2" spreadMethod="pad">
      <stop offset="0.0" stop-color="#4d4538"/>
      <stop offset="1.0" stop-color="#393429"/>
    </radialGradient>
    <radialGradient cx="0" cy="0" gradientTransform="matrix(0.0079, 0.0, 0.0, 0.0079, -0.3, -6.0)" gradientUnits="userSpaceOnUse" id="gradient77" r="819.2" spreadMethod="pad">
      <stop offset="0.0" stop-color="#8b836d"/>
      <stop offset="1.0" stop-color="#1f1e19"/>
    </radialGradient>
    <radialGradient cx="0" cy="0" gradientTransform="matrix(0.0053, 0.0, 0.0, 0.0053, 2.65, 0.2)" gradientUnits="userSpaceOnUse" id="gradient78" r="819.2" spreadMethod="pad">
      <stop offset="0.0" stop-color="#736853"/>
      <stop offset="1.0" stop-color="#322d24"/>
    </radialGradient>
    <radialGradient cx="0" cy="0" gradientTransform="matrix(0.0088, 0.0, 0.0, 0.0088, 8.05, 1.4)" gradientUnits="userSpaceOnUse" id="gradient79" r="819.2" spreadMethod="pad">
      <stop offset="0.0" stop-color="#746954"/>
      <stop offset="1.0" stop-color="#342f26"/>
    </radialGradient>
    <radialGradient cx="0" cy="0" gradientTransform="matrix(0.0035, 0.0, 0.0, 0.0035, 6.4, 1.5)" gradientUnits="userSpaceOnUse" id="gradient80" r="819.2" spreadMethod="pad">
      <stop offset="0.0" stop-color="#b8854c"/>
      <stop offset="1.0" stop-color="#9c7140"/>
    </radialGradient>
    <radialGradient cx="0" cy="0" gradientTransform="matrix(0.0038, 0.0, 0.0, 0.0038, 5.0, 2.8)" gradientUnits="userSpaceOnUse" id="gradient81" r="819.2" spreadMethod="pad">
      <stop offset="0.0" stop-color="#6f6450"/>
      <stop offset="1.0" stop-color="#6c614e"/>
    </radialGradient>
    <radialGradient cx="0" cy="0" gradientTransform="matrix(0.0045, 0.0, 0.0, 0.0045, 6.1, 5.15)" gradientUnits="userSpaceOnUse" id="gradient82" r="819.2" spreadMethod="pad">
      <stop offset="0.0" stop-color="#574f3f"/>
      <stop offset="1.0" stop-color="#352f26"/>
    </radialGradient>
    <radialGradient cx="0" cy="0" gradientTransform="matrix(0.0075, 0.0, 0.0, 0.0075, 5.55, 7.85)" gradientUnits="userSpaceOnUse" id="gradient83" r="819.2" spreadMethod="pad">
      <stop offset="0.0" stop-color="#ffff97"/>
      <stop offset="1.0" stop-color="#dbba6b"/>
    </radialGradient>
    <radialGradient cx="0" cy="0" gradientTransform="matrix(0.004, 0.0, 0.0, 0.004, 5.65, 6.75)" gradientUnits="userSpaceOnUse" id="gradient84" r="819.2" spreadMethod="pad">
      <stop offset="0.0" stop-color="#776b56"/>
      <stop offset="1.0" stop-color="#605746"/>
    </radialGradient>
    <radialGradient cx="0" cy="0" gradientTransform="matrix(0.0017, 0.0, 0.0, 0.0017, 4.85, 10.5)" gradientUnits="userSpaceOnUse" id="gradient85" r="819.2" spreadMethod="pad">
      <stop offset="0.0" stop-color="#cf9656"/>
      <stop offset="1.0" stop-color="#ce9555"/>
    </radialGradient>
  </defs>
</svg>
