<?xml version="1.0" encoding="UTF-8" standalone="no"?>
<svg xmlns:ffdec="https://www.free-decompiler.com/flash" xmlns:xlink="http://www.w3.org/1999/xlink" ffdec:objectType="shape" height="68.7px" width="38.0px" xmlns="http://www.w3.org/2000/svg">
  <g transform="matrix(1.0, 0.0, 0.0, 1.0, 18.6, 59.65)">
    <path d="M0.8 -56.65 L1.05 -56.1 0.75 -56.2 0.8 -56.65" fill="url(#gradient0)" fill-rule="evenodd" stroke="none"/>
    <path d="M-0.05 -56.5 L0.8 -56.65 0.75 -56.2 -0.05 -56.5" fill="url(#gradient1)" fill-rule="evenodd" stroke="none"/>
    <path d="M1.05 -56.1 Q1.8 -56.25 3.7 -54.4 L4.1 -53.15 Q6.4 -49.8 1.0 -47.85 L-0.4 -47.9 -2.8 -48.55 -5.3 -50.65 Q-5.55 -50.95 -5.3 -52.2 L-4.95 -52.9 -4.8 -53.35 -4.95 -53.65 -4.8 -53.85 -4.65 -54.3 -4.15 -54.9 -4.05 -55.05 -3.25 -55.55 -3.1 -55.65 -2.4 -56.15 -1.65 -56.3 -0.65 -56.45 -0.05 -56.5 0.75 -56.2 1.05 -56.1" fill="url(#gradient2)" fill-rule="evenodd" stroke="none"/>
    <path d="M4.1 -53.15 Q4.5 -53.1 4.95 -51.3 L4.7 -49.75 Q-2.0 -44.4 -6.05 -51.5 L-5.3 -52.2 Q-5.55 -50.95 -5.3 -50.65 L-2.8 -48.55 -0.4 -47.9 1.0 -47.85 Q6.4 -49.8 4.1 -53.15 M-4.75 -54.55 L-4.15 -54.9 -4.65 -54.3 -4.75 -54.55" fill="url(#gradient3)" fill-rule="evenodd" stroke="none"/>
    <path d="M14.1 -55.5 L16.2 -58.0 16.35 -57.95 15.0 -54.15 12.9 -51.85 14.15 -55.4 14.1 -55.5" fill="url(#gradient4)" fill-rule="evenodd" stroke="none"/>
    <path d="M10.9 -55.6 L11.85 -59.6 11.95 -59.65 11.95 -59.45 11.5 -56.5 11.1 -56.35 10.9 -55.6" fill="url(#gradient5)" fill-rule="evenodd" stroke="none"/>
    <path d="M11.6 -56.45 L12.3 -58.15 12.45 -58.1 11.45 -54.3 10.85 -53.0 10.65 -52.8 10.6 -52.9 11.5 -56.2 11.6 -56.45" fill="url(#gradient6)" fill-rule="evenodd" stroke="none"/>
    <path d="M11.5 -56.5 L11.6 -56.45 11.5 -56.2 11.1 -56.35 11.5 -56.5" fill="url(#gradient7)" fill-rule="evenodd" stroke="none"/>
    <path d="M9.1 -48.65 L10.85 -55.4 10.9 -55.45 10.9 -55.6 11.1 -56.35 11.5 -56.2 10.6 -52.9 10.65 -52.8 10.85 -53.0 9.8 -48.65 8.85 -45.0 8.3 -43.1 7.9 -41.7 7.4 -41.85 7.6 -42.85 8.4 -45.55 9.1 -48.65" fill="url(#gradient8)" fill-rule="evenodd" stroke="none"/>
    <path d="M12.3 -51.9 L12.0 -54.6 13.35 -58.35 13.45 -58.4 13.5 -58.0 13.7 -55.6 13.7 -55.5 12.3 -51.9" fill="url(#gradient9)" fill-rule="evenodd" stroke="none"/>
    <path d="M13.7 -55.6 L14.1 -55.5 14.15 -55.4 13.7 -55.5 13.7 -55.6" fill="url(#gradient10)" fill-rule="evenodd" stroke="none"/>
    <path d="M11.1 -48.6 L12.3 -51.9 13.7 -55.5 14.15 -55.4 12.9 -51.85 11.75 -48.4 9.85 -43.1 9.55 -42.3 9.25 -42.3 9.0 -42.55 9.25 -43.15 9.35 -43.7 11.1 -48.6" fill="url(#gradient11)" fill-rule="evenodd" stroke="none"/>
    <path d="M5.9 -46.7 Q6.05 -47.25 7.35 -48.0 L9.1 -48.65 8.4 -45.55 6.7 -46.55 5.9 -46.7 M9.8 -48.65 L11.1 -48.6 9.35 -43.7 9.4 -44.15 8.85 -45.0 9.8 -48.65 M11.75 -48.4 Q13.85 -47.55 13.85 -44.7 L13.8 -43.65 Q13.65 -42.4 12.9 -41.05 L12.2 -39.95 11.5 -39.25 10.65 -40.2 10.4 -41.05 10.3 -41.2 10.55 -42.1 10.6 -42.65 9.85 -43.1 11.75 -48.4" fill="url(#gradient12)" fill-rule="evenodd" stroke="none"/>
    <path d="M13.85 -44.7 Q14.4 -44.05 14.45 -42.9 L14.25 -41.25 14.1 -40.6 13.2 -39.4 13.0 -39.25 11.55 -38.55 11.5 -39.25 12.2 -39.95 12.9 -41.05 Q13.65 -42.4 13.8 -43.65 L13.85 -44.7" fill="url(#gradient13)" fill-rule="evenodd" stroke="none"/>
    <path d="M14.25 -41.25 Q16.3 -38.15 14.6 -36.1 L14.45 -36.7 13.85 -37.0 13.6 -38.15 13.25 -38.9 13.2 -39.4 14.1 -40.6 14.25 -41.25" fill="url(#gradient14)" fill-rule="evenodd" stroke="none"/>
    <path d="M-2.55 -42.85 L-1.9 -43.5 -1.7 -43.7 Q5.7 -42.8 4.1 -46.45 L4.5 -46.55 Q7.4 -46.9 5.65 -41.05 3.5 -36.8 2.6 -32.15 L1.7 -30.35 0.5 -29.4 Q-1.45 -28.8 -1.9 -29.05 L-0.95 -30.45 -0.65 -31.25 Q3.15 -36.15 -4.5 -39.4 L-3.8 -41.05 -2.55 -42.85 M11.5 -39.25 L11.55 -38.55 11.3 -37.15 10.85 -36.4 10.75 -36.2 10.6 -36.05 9.95 -35.45 8.45 -34.9 8.45 -35.05 8.9 -35.55 9.45 -37.65 9.65 -37.55 9.55 -37.8 9.55 -37.85 9.45 -38.4 9.65 -39.0 10.75 -38.3 Q10.95 -40.0 9.95 -40.05 L10.25 -41.05 10.3 -41.2 10.4 -41.05 10.65 -40.2 11.5 -39.25 M-0.9 -27.6 L0.75 -28.1 2.7 -29.9 2.9 -30.25 2.95 -30.25 2.35 -28.1 2.2 -28.1 Q1.2 -27.35 -0.9 -27.6 M1.7 -27.4 L1.45 -27.15 1.2 -27.25 1.7 -27.4 M-0.95 -27.2 L-2.25 -27.05 -2.35 -27.5 -0.95 -27.2" fill="url(#gradient15)" fill-rule="evenodd" stroke="none"/>
    <path d="M10.3 -41.2 L10.25 -41.05 9.95 -40.05 9.65 -39.0 9.45 -38.4 9.15 -37.5 Q7.65 -36.0 4.95 -37.05 L5.2 -38.05 6.25 -41.7 Q8.7 -40.45 10.55 -42.1 L10.3 -41.2 M8.45 -35.05 L8.45 -34.9 8.4 -34.7 8.15 -33.95 Q6.4 -32.15 3.8 -33.3 L4.15 -34.55 Q7.0 -33.75 8.45 -35.05 M2.95 -30.3 L3.1 -30.8 5.55 -30.6 7.3 -31.35 6.9 -29.9 5.95 -26.8 4.6 -22.2 4.05 -21.35 Q-1.05 -19.05 1.05 -23.6 L1.85 -26.55 2.15 -27.65 2.35 -28.1 2.95 -30.25 2.95 -30.3" fill="url(#gradient16)" fill-rule="evenodd" stroke="none"/>
    <path d="M9.85 -43.1 L10.6 -42.65 10.55 -42.1 Q8.7 -40.45 6.25 -41.7 L6.3 -42.05 6.7 -42.5 7.6 -42.85 7.4 -41.85 7.9 -41.7 8.3 -43.1 9.25 -43.15 9.0 -42.55 9.25 -42.3 9.55 -42.3 9.85 -43.1" fill="url(#gradient17)" fill-rule="evenodd" stroke="none"/>
    <path d="M11.55 -38.55 L13.0 -39.25 13.25 -38.9 13.6 -38.15 13.85 -37.0 13.8 -35.85 13.0 -34.25 12.35 -33.85 11.6 -33.75 10.9 -33.8 9.9 -34.35 10.7 -36.05 10.75 -36.2 10.85 -36.4 11.3 -37.15 11.55 -38.55" fill="url(#gradient18)" fill-rule="evenodd" stroke="none"/>
    <path d="M13.0 -39.25 L13.2 -39.4 13.25 -38.9 13.0 -39.25" fill="url(#gradient19)" fill-rule="evenodd" stroke="none"/>
    <path d="M4.0 -47.2 L5.9 -46.7 6.7 -46.55 8.4 -45.55 7.6 -42.85 6.7 -42.5 6.3 -42.05 6.25 -41.7 5.2 -38.05 4.75 -37.45 4.05 -35.2 4.15 -34.55 3.8 -33.3 Q3.2 -33.25 3.1 -30.8 L2.95 -30.3 2.9 -30.25 2.7 -29.9 0.75 -28.1 -0.9 -27.6 -1.2 -27.5 -2.45 -27.95 -2.6 -28.4 -1.9 -29.05 Q-1.45 -28.8 0.5 -29.4 L1.7 -30.35 2.6 -32.15 Q3.5 -36.8 5.65 -41.05 7.4 -46.9 4.5 -46.55 L4.1 -46.65 3.85 -47.0 4.0 -47.2 M8.85 -45.0 L9.4 -44.15 9.35 -43.7 9.25 -43.15 8.3 -43.1 8.85 -45.0" fill="url(#gradient20)" fill-rule="evenodd" stroke="none"/>
    <path d="M4.1 -46.45 L4.1 -46.65 4.5 -46.55 4.1 -46.45" fill="url(#gradient21)" fill-rule="evenodd" stroke="none"/>
    <path d="M-1.7 -43.8 L-1.9 -44.95 -1.85 -45.15 Q3.2 -44.85 3.85 -47.0 L4.1 -46.65 4.1 -46.45 Q5.7 -42.8 -1.7 -43.7 L-1.7 -43.8" fill="url(#gradient22)" fill-rule="evenodd" stroke="none"/>
    <path d="M4.7 -49.75 L4.3 -47.65 4.0 -47.2 3.85 -47.0 Q3.2 -44.85 -1.85 -45.15 L-3.6 -45.7 -3.65 -45.75 -5.3 -46.9 Q-6.55 -48.3 -6.3 -48.55 L-6.1 -48.35 -6.0 -49.35 -6.05 -49.6 -6.05 -49.75 -6.15 -51.35 -6.05 -51.5 Q-2.0 -44.4 4.7 -49.75" fill="url(#gradient23)" fill-rule="evenodd" stroke="none"/>
    <path d="M9.45 -38.4 L9.55 -37.85 9.15 -37.5 9.45 -38.4 M5.2 -38.05 L4.95 -37.05 4.85 -37.35 4.75 -37.45 5.2 -38.05" fill="url(#gradient24)" fill-rule="evenodd" stroke="none"/>
    <path d="M9.55 -37.85 L9.55 -37.8 9.45 -37.65 8.9 -35.55 8.45 -35.05 Q7.0 -33.75 4.15 -34.55 L4.05 -35.2 4.75 -37.45 4.85 -37.35 4.95 -37.05 Q7.65 -36.0 9.15 -37.5 L9.55 -37.85" fill="url(#gradient25)" fill-rule="evenodd" stroke="none"/>
    <path d="M9.95 -40.05 Q10.95 -40.0 10.75 -38.3 L9.65 -39.0 9.95 -40.05" fill="url(#gradient26)" fill-rule="evenodd" stroke="none"/>
    <path d="M9.55 -37.8 L9.65 -37.55 9.45 -37.65 9.55 -37.8" fill="url(#gradient27)" fill-rule="evenodd" stroke="none"/>
    <path d="M8.45 -34.9 L9.95 -35.45 10.6 -36.05 10.7 -36.05 9.9 -34.35 9.0 -33.2 7.95 -32.7 8.45 -34.2 8.4 -34.7 8.45 -34.9" fill="url(#gradient28)" fill-rule="evenodd" stroke="none"/>
    <path d="M8.4 -34.7 L8.45 -34.2 8.15 -33.95 8.4 -34.7" fill="url(#gradient29)" fill-rule="evenodd" stroke="none"/>
    <path d="M3.1 -30.8 Q3.2 -33.25 3.8 -33.3 6.4 -32.15 8.15 -33.95 L8.45 -34.2 7.95 -32.7 7.85 -32.2 7.3 -31.35 5.55 -30.6 3.1 -30.8" fill="url(#gradient30)" fill-rule="evenodd" stroke="none"/>
    <path d="M14.5 -34.45 Q15.3 -31.55 12.85 -29.1 L11.55 -27.7 11.05 -27.7 10.55 -28.0 10.55 -28.1 10.3 -28.35 9.95 -29.55 9.85 -30.4 9.85 -30.45 Q10.15 -30.4 9.0 -32.7 L9.0 -33.2 9.9 -34.35 10.9 -33.8 11.6 -33.75 Q13.4 -31.65 14.15 -33.9 L14.5 -34.45" fill="url(#gradient31)" fill-rule="evenodd" stroke="none"/>
    <path d="M2.9 -30.25 L2.95 -30.3 2.95 -30.25 2.9 -30.25" fill="url(#gradient32)" fill-rule="evenodd" stroke="none"/>
    <path d="M-2.45 -27.95 L-1.2 -27.5 -0.9 -27.6 Q1.2 -27.35 2.2 -28.1 L2.35 -28.1 2.15 -27.65 1.7 -27.4 1.2 -27.25 -0.95 -27.2 -2.35 -27.5 -2.45 -27.95" fill="url(#gradient33)" fill-rule="evenodd" stroke="none"/>
    <path d="M2.15 -27.65 L1.85 -26.55 0.25 -25.85 Q-0.65 -25.6 -2.2 -26.65 L-2.25 -27.05 -0.95 -27.2 1.2 -27.25 1.45 -27.15 1.7 -27.4 2.15 -27.65" fill="url(#gradient34)" fill-rule="evenodd" stroke="none"/>
    <path d="M1.85 -26.55 L1.05 -23.6 -0.5 -23.5 -2.5 -24.15 -2.15 -25.5 -2.2 -26.65 Q-0.65 -25.6 0.25 -25.85 L1.85 -26.55 M5.95 -26.8 L6.9 -29.9 7.35 -29.05 7.35 -28.7 7.25 -28.1 6.65 -27.25 5.95 -26.8" fill="url(#gradient35)" fill-rule="evenodd" stroke="none"/>
    <path d="M9.85 -30.45 L9.85 -30.4 9.8 -30.4 9.85 -30.45" fill="url(#gradient36)" fill-rule="evenodd" stroke="none"/>
    <path d="M12.85 -29.1 Q13.75 -24.35 8.9 -25.6 L10.5 -27.7 10.55 -28.0 11.05 -27.7 11.55 -27.7 12.85 -29.1 M9.85 -30.4 L9.95 -29.55 8.85 -29.3 Q7.9 -28.6 7.85 -28.1 L7.8 -28.05 7.7 -28.05 Q7.75 -29.7 9.8 -30.4 L9.85 -30.4 M7.65 -27.9 L7.65 -27.95 7.7 -27.95 7.65 -27.9" fill="url(#gradient37)" fill-rule="evenodd" stroke="none"/>
    <path d="M7.7 -28.05 L7.8 -28.05 7.8 -28.0 7.7 -28.0 7.7 -28.05" fill="url(#gradient38)" fill-rule="evenodd" stroke="none"/>
    <path d="M8.9 -25.6 L8.75 -25.6 7.7 -27.2 7.65 -27.9 7.7 -27.95 7.7 -28.0 7.8 -28.0 7.8 -28.05 7.85 -28.1 Q7.9 -28.6 8.85 -29.3 L9.95 -29.55 10.3 -28.35 10.55 -28.1 10.55 -28.0 10.5 -27.7 8.9 -25.6" fill="url(#gradient39)" fill-rule="evenodd" stroke="none"/>
    <path d="M1.05 -23.6 Q-1.05 -19.05 4.05 -21.35 L4.6 -22.2 5.95 -26.8 6.65 -27.25 7.25 -28.1 7.35 -28.7 7.65 -27.95 7.65 -27.9 7.7 -27.2 8.5 -21.75 7.55 -19.75 5.75 -16.75 5.6 -16.55 4.1 -16.25 2.35 -16.1 1.05 -16.2 0.6 -16.35 -1.35 -19.45 -3.25 -22.85 -2.5 -24.15 -0.5 -23.5 1.05 -23.6" fill="url(#gradient40)" fill-rule="evenodd" stroke="none"/>
    <path d="M8.75 -25.6 L9.7 -22.65 Q10.1 -19.2 9.6 -18.0 L9.15 -16.95 Q8.95 -16.3 8.05 -15.65 8.3 -16.7 7.95 -18.4 L7.55 -19.75 8.5 -21.75 7.7 -27.2 8.75 -25.6" fill="url(#gradient41)" fill-rule="evenodd" stroke="none"/>
    <path d="M14.6 -36.1 L14.65 -35.2 14.5 -34.45 14.15 -33.9 13.5 -33.65 13.0 -34.25 13.8 -35.85 13.85 -37.0 14.45 -36.7 14.6 -36.1" fill="url(#gradient42)" fill-rule="evenodd" stroke="none"/>
    <path d="M10.6 -36.05 L10.75 -36.2 10.7 -36.05 10.6 -36.05" fill="url(#gradient43)" fill-rule="evenodd" stroke="none"/>
    <path d="M11.6 -33.75 L12.35 -33.85 13.0 -34.25 13.5 -33.65 14.15 -33.9 Q13.4 -31.65 11.6 -33.75" fill="url(#gradient44)" fill-rule="evenodd" stroke="none"/>
    <path d="M-1.35 -19.45 L-1.7 -19.35 -1.8 -19.7 -2.0 -19.65 -2.95 -20.15 -3.45 -19.8 -3.95 -20.1 -4.35 -20.1 -4.4 -20.3 -4.1 -20.9 -3.4 -21.9 -3.3 -22.85 -3.25 -22.85 -1.35 -19.45 M-0.5 -9.05 L0.7 -12.0 1.3 -15.8 1.05 -16.2 2.35 -16.1 4.1 -16.25 3.8 -13.55 3.25 -11.95 3.1 -11.7 Q2.05 -9.85 -0.5 -9.05" fill="url(#gradient45)" fill-rule="evenodd" stroke="none"/>
    <path d="M-1.35 -19.45 L0.6 -16.35 1.05 -16.2 1.3 -15.8 0.7 -12.0 -0.5 -9.05 -0.55 -8.95 -1.35 -8.5 -4.1 -7.65 -5.25 -9.3 -5.75 -9.4 -6.85 -11.35 Q-5.6 -12.95 -6.5 -14.6 L-6.25 -15.15 Q-3.85 -18.35 -4.35 -20.1 L-3.95 -20.1 -3.45 -19.8 -2.95 -20.15 -2.0 -19.65 -1.8 -19.7 -1.7 -19.35 -1.35 -19.45" fill="url(#gradient46)" fill-rule="evenodd" stroke="none"/>
    <path d="M7.55 -19.75 L7.95 -18.4 Q8.3 -16.7 8.05 -15.65 L8.05 -15.55 7.8 -15.15 Q7.2 -14.2 5.2 -12.85 L3.25 -11.95 3.8 -13.55 4.1 -16.25 5.6 -16.55 5.75 -16.75 7.55 -19.75" fill="url(#gradient47)" fill-rule="evenodd" stroke="none"/>
    <path d="M9.6 -18.0 Q10.9 -15.0 10.3 -11.65 L9.9 -11.25 9.15 -11.35 8.85 -11.7 8.75 -13.4 8.2 -15.15 8.05 -15.55 8.05 -15.65 Q8.95 -16.3 9.15 -16.95 L9.6 -18.0" fill="url(#gradient48)" fill-rule="evenodd" stroke="none"/>
    <path d="M8.05 -15.55 L8.2 -15.15 8.75 -13.4 8.85 -11.7 Q7.25 -5.8 2.8 -6.3 L3.3 -9.6 3.1 -11.7 3.25 -11.95 5.2 -12.85 Q7.2 -14.2 7.8 -15.15 L8.05 -15.55" fill="url(#gradient49)" fill-rule="evenodd" stroke="none"/>
    <path d="M10.3 -11.65 Q10.65 -8.1 9.35 -6.45 7.2 -3.3 3.75 -4.9 L2.65 -5.7 2.8 -6.3 Q7.25 -5.8 8.85 -11.7 L9.15 -11.35 9.9 -11.25 10.3 -11.65" fill="url(#gradient50)" fill-rule="evenodd" stroke="none"/>
    <path d="M2.45 -5.2 L1.8 -3.65 -0.15 -4.7 -0.55 -8.95 -0.5 -9.05 Q2.05 -9.85 3.1 -11.7 L3.3 -9.6 2.8 -6.3 2.65 -5.7 2.45 -5.2" fill="url(#gradient51)" fill-rule="evenodd" stroke="none"/>
    <path d="M3.75 -2.85 L3.1 -3.5 Q2.35 -4.8 2.45 -5.2 L2.65 -5.7 3.75 -4.9 3.95 -3.75 3.75 -2.85" fill="url(#gradient52)" fill-rule="evenodd" stroke="none"/>
    <path d="M9.35 -6.45 L9.85 -3.6 Q9.85 -2.35 9.55 -2.15 4.7 -0.8 4.6 -2.2 L4.35 -2.25 3.95 -3.75 3.75 -4.9 Q7.2 -3.3 9.35 -6.45" fill="url(#gradient53)" fill-rule="evenodd" stroke="none"/>
    <path d="M1.8 -3.65 L1.4 -2.0 1.0 -1.15 -0.9 -3.1 -0.4 -3.9 -0.15 -4.7 1.8 -3.65 M-0.15 1.15 L-1.05 2.2 Q-4.0 5.3 -7.0 0.95 L-7.5 -0.65 -7.75 -2.85 -7.7 -2.85 -7.25 -2.2 Q-4.95 0.15 -2.6 -1.45 L-0.15 1.15" fill="url(#gradient54)" fill-rule="evenodd" stroke="none"/>
    <path d="M9.55 -2.15 Q9.9 0.15 6.7 0.35 3.95 -0.55 3.75 -2.85 L3.95 -3.75 4.35 -2.25 4.6 -2.2 Q4.7 -0.8 9.55 -2.15" fill="url(#gradient55)" fill-rule="evenodd" stroke="none"/>
    <path d="M18.95 5.45 Q19.7 5.85 19.25 6.75 L18.95 6.2 18.95 5.45" fill="url(#gradient56)" fill-rule="evenodd" stroke="none"/>
    <path d="M1.0 -1.15 L2.75 0.65 6.8 3.5 12.0 5.4 18.95 5.45 18.95 6.2 19.25 6.75 12.35 7.35 6.2 5.65 1.4 2.65 -0.15 1.15 -2.6 -1.45 -7.0 -7.5 -7.0 -7.7 -6.9 -8.1 -5.75 -9.4 -5.25 -9.3 -4.1 -7.65 -0.9 -3.1 1.0 -1.15" fill="url(#gradient57)" fill-rule="evenodd" stroke="none"/>
    <path d="M-12.55 -17.15 Q-21.95 -36.6 -16.75 -50.95 L-16.5 -50.7 -15.9 -50.6 Q-20.1 -36.8 -10.65 -18.5 L-11.0 -18.5 -11.6 -18.15 -12.55 -17.15" fill="url(#gradient58)" fill-rule="evenodd" stroke="none"/>
    <path d="M-16.75 -50.95 L-16.2 -50.9 -15.9 -50.6 -16.5 -50.7 -16.75 -50.95" fill="url(#gradient59)" fill-rule="evenodd" stroke="none"/>
    <path d="M-9.35 -53.45 L-9.4 -53.45 -9.6 -53.35 -9.65 -53.35 -9.8 -53.3 -9.9 -53.3 -10.0 -53.25 -10.1 -53.25 -10.25 -53.2 -10.35 -53.2 -10.5 -53.15 -10.7 -53.15 -6.6 -56.3 -5.9 -55.25 -6.55 -54.4 -7.25 -54.0 -7.4 -54.0 -9.35 -53.45" fill="url(#gradient60)" fill-rule="evenodd" stroke="none"/>
    <path d="M-3.05 -57.05 L-2.35 -56.75 -2.4 -56.45 -2.4 -56.15 -3.1 -55.65 -3.05 -57.05" fill="url(#gradient61)" fill-rule="evenodd" stroke="none"/>
    <path d="M-2.4 -56.45 L-1.5 -57.0 -1.65 -56.3 -2.4 -56.15 -2.4 -56.45" fill="url(#gradient62)" fill-rule="evenodd" stroke="none"/>
    <path d="M-1.5 -57.0 L-0.65 -56.45 -1.65 -56.3 -1.5 -57.0" fill="url(#gradient63)" fill-rule="evenodd" stroke="none"/>
    <path d="M-6.6 -56.3 L-5.6 -56.1 -4.75 -54.55 -4.65 -54.3 -4.8 -53.85 -5.9 -55.25 -6.6 -56.3" fill="url(#gradient64)" fill-rule="evenodd" stroke="none"/>
    <path d="M-7.6 -53.85 L-9.35 -53.45 -7.4 -54.0 -7.25 -54.0 -7.6 -53.85" fill="url(#gradient65)" fill-rule="evenodd" stroke="none"/>
    <path d="M-5.1 -53.8 L-5.3 -54.0 -5.9 -54.6 -5.2 -54.0 -5.0 -53.8 -5.1 -53.8" fill="url(#gradient66)" fill-rule="evenodd" stroke="none"/>
    <path d="M-6.25 -52.8 L-11.25 -51.85 -7.6 -53.85 -7.25 -54.0 -6.55 -54.4 -5.9 -54.6 -5.3 -54.0 -5.1 -53.8 -6.25 -52.85 -6.25 -52.8" fill="url(#gradient67)" fill-rule="evenodd" stroke="none"/>
    <path d="M-6.0 -52.6 L-6.25 -52.8 -6.25 -52.85 -5.1 -53.8 -5.0 -53.8 -4.95 -53.65 -4.8 -53.35 -4.95 -52.9 -6.0 -52.6" fill="url(#gradient68)" fill-rule="evenodd" stroke="none"/>
    <path d="M-5.9 -54.6 L-6.55 -54.4 -5.9 -55.25 -4.8 -53.85 -4.95 -53.65 -5.0 -53.8 -5.2 -54.0 -5.9 -54.6" fill="url(#gradient69)" fill-rule="evenodd" stroke="none"/>
    <path d="M-6.35 -48.8 L-6.35 -48.85 -6.4 -48.9 -6.4 -49.0 -6.5 -49.1 -7.65 -51.4 -7.6 -51.85 -7.35 -52.05 -7.05 -52.2 -6.35 -51.35 -6.3 -51.3 -6.05 -49.75 -6.05 -49.6 -6.0 -49.35 -6.1 -48.35 -6.35 -48.8" fill="url(#gradient70)" fill-rule="evenodd" stroke="none"/>
    <path d="M-7.05 -52.2 L-6.0 -52.6 -4.95 -52.9 -5.3 -52.2 -6.05 -51.5 -6.15 -51.35 -6.3 -51.3 -6.35 -51.35 -7.05 -52.2" fill="url(#gradient71)" fill-rule="evenodd" stroke="none"/>
    <path d="M-6.15 -51.35 L-6.05 -49.75 -6.3 -51.3 -6.15 -51.35" fill="url(#gradient72)" fill-rule="evenodd" stroke="none"/>
    <path d="M-4.35 -55.6 L-8.15 -58.5 -3.05 -57.05 -3.1 -55.65 -3.25 -55.55 -4.35 -55.6" fill="url(#gradient73)" fill-rule="evenodd" stroke="none"/>
    <path d="M-4.05 -55.05 L-4.35 -55.6 -3.25 -55.55 -4.05 -55.05" fill="url(#gradient74)" fill-rule="evenodd" stroke="none"/>
    <path d="M-1.9 -44.95 L-2.8 -45.1 -3.6 -45.7 -1.85 -45.15 -1.9 -44.95" fill="url(#gradient75)" fill-rule="evenodd" stroke="none"/>
    <path d="M-1.9 -43.5 L-1.7 -43.8 -1.7 -43.7 -1.9 -43.5" fill="url(#gradient76)" fill-rule="evenodd" stroke="none"/>
    <path d="M-6.3 -48.55 L-6.3 -48.6 -6.35 -48.65 -6.35 -48.8 -6.1 -48.35 -6.3 -48.55" fill="url(#gradient77)" fill-rule="evenodd" stroke="none"/>
    <path d="M-8.6 -35.75 Q-10.5 -35.65 -7.25 -38.55 L-7.2 -38.6 Q-7.05 -38.9 -5.4 -39.35 L-4.5 -39.4 Q3.15 -36.15 -0.65 -31.25 L-8.6 -35.75" fill="url(#gradient78)" fill-rule="evenodd" stroke="none"/>
    <path d="M-7.2 -38.6 Q-5.9 -42.05 -2.55 -42.85 L-3.8 -41.05 -4.5 -39.4 -5.4 -39.35 Q-7.05 -38.9 -7.2 -38.6" fill="url(#gradient79)" fill-rule="evenodd" stroke="none"/>
    <path d="M-7.9 -21.7 Q-10.8 -24.7 -9.15 -28.1 L-8.75 -29.0 -8.25 -28.45 -7.05 -28.1 -4.1 -27.65 -4.0 -27.1 -3.8 -26.45 -3.85 -24.5 -4.3 -23.2 -5.25 -21.95 -5.8 -21.55 -6.5 -21.35 -7.25 -21.4 -7.9 -21.7" fill="url(#gradient80)" fill-rule="evenodd" stroke="none"/>
    <path d="M-9.25 -30.0 Q-10.15 -33.65 -8.6 -35.75 L-0.65 -31.25 -0.95 -30.45 -1.9 -29.05 -2.6 -28.4 -3.95 -27.7 -4.1 -27.65 -7.05 -28.1 -8.25 -28.45 -8.75 -29.0 -9.25 -30.0" fill="url(#gradient81)" fill-rule="evenodd" stroke="none"/>
    <path d="M-8.8 -21.85 Q-11.25 -25.8 -9.25 -30.0 L-8.75 -29.0 -9.15 -28.1 Q-10.8 -24.7 -7.9 -21.7 L-8.8 -21.85 M-4.1 -27.65 L-3.95 -27.7 -4.0 -27.1 -4.1 -27.65" fill="url(#gradient82)" fill-rule="evenodd" stroke="none"/>
    <path d="M-2.6 -28.4 L-2.45 -27.95 -2.35 -27.5 -2.25 -27.05 -2.2 -26.65 -2.15 -25.5 -2.5 -24.15 -3.25 -22.85 -3.3 -22.85 -3.45 -24.2 -3.85 -24.5 -3.8 -26.45 -4.0 -27.1 -3.95 -27.7 -2.6 -28.4" fill="url(#gradient83)" fill-rule="evenodd" stroke="none"/>
    <path d="M-3.85 -24.5 L-3.45 -24.2 -3.3 -22.85 -3.4 -21.9 -4.1 -20.9 -4.5 -20.8 -5.25 -21.95 -4.3 -23.2 -3.85 -24.5" fill="url(#gradient84)" fill-rule="evenodd" stroke="none"/>
    <path d="M-5.25 -21.95 L-4.5 -20.8 -4.1 -20.9 -4.4 -20.3 Q-5.6 -18.55 -7.25 -21.4 L-6.5 -21.35 -5.8 -21.55 -5.25 -21.95" fill="url(#gradient85)" fill-rule="evenodd" stroke="none"/>
    <path d="M-9.65 -16.15 L-9.95 -19.2 Q-9.95 -20.1 -8.8 -21.85 L-7.9 -21.7 -7.25 -21.4 Q-5.6 -18.55 -4.4 -20.3 L-4.35 -20.1 Q-3.85 -18.35 -6.25 -15.15 L-6.5 -14.6 Q-8.05 -12.25 -9.95 -15.15 L-9.7 -16.05 -9.65 -16.15" fill="url(#gradient86)" fill-rule="evenodd" stroke="none"/>
    <path d="M-11.05 -15.35 L-12.1 -17.05 Q-11.8 -18.55 -10.75 -18.1 L-9.65 -16.15 -9.7 -16.05 -10.25 -15.9 -11.05 -15.35 M-6.85 -11.35 L-5.75 -9.4 -6.9 -8.1 -8.25 -10.4 -7.2 -11.4 -6.85 -11.35" fill="url(#gradient87)" fill-rule="evenodd" stroke="none"/>
    <path d="M-9.1 -10.35 Q-13.45 -11.8 -11.05 -15.35 L-10.25 -15.9 -9.7 -16.05 -9.95 -15.15 Q-8.05 -12.25 -6.5 -14.6 -5.6 -12.95 -6.85 -11.35 L-7.2 -11.4 -8.25 -10.4 -9.1 -10.35" fill="url(#gradient88)" fill-rule="evenodd" stroke="none"/>
    <path d="M-12.1 -17.05 L-12.55 -17.15 -11.6 -18.15 -11.0 -18.5 -10.65 -18.5 -10.75 -18.1 Q-11.8 -18.55 -12.1 -17.05" fill="url(#gradient89)" fill-rule="evenodd" stroke="none"/>
    <path d="M-7.75 -2.9 L-8.25 -5.1 -8.45 -7.85 -7.85 -7.55 -7.0 -7.7 -7.0 -7.5 -2.6 -1.45 Q-4.95 0.15 -7.25 -2.2 L-7.7 -2.85 -7.75 -2.9 M-4.1 -7.65 L-1.35 -8.5 -0.55 -8.95 -0.15 -4.7 -0.4 -3.9 -0.9 -3.1 -4.1 -7.65" fill="url(#gradient90)" fill-rule="evenodd" stroke="none"/>
    <path d="M-8.45 -7.85 L-9.1 -10.35 -8.25 -10.4 -6.9 -8.1 -7.0 -7.7 -7.85 -7.55 -8.45 -7.85" fill="url(#gradient91)" fill-rule="evenodd" stroke="none"/>
    <path d="M-7.75 -2.85 L-7.75 -2.9 -7.7 -2.85 -7.75 -2.85" fill="url(#gradient92)" fill-rule="evenodd" stroke="none"/>
    <path d="M-1.05 2.2 L-1.45 5.05 Q-1.85 10.0 -6.6 7.85 L-6.85 7.75 -7.5 4.9 -7.2 2.55 -7.0 0.95 Q-4.0 5.3 -1.05 2.2" fill="url(#gradient93)" fill-rule="evenodd" stroke="none"/>
    <path d="M-6.5 8.8 Q-12.7 8.75 -12.5 5.8 -12.35 1.95 -7.2 2.55 L-7.5 4.9 -6.85 7.75 -6.6 7.85 -6.5 8.8" fill="url(#gradient94)" fill-rule="evenodd" stroke="none"/>
    <path d="M-1.45 5.05 Q0.45 10.1 -6.5 8.8 L-6.6 7.85 Q-1.85 10.0 -1.45 5.05" fill="url(#gradient95)" fill-rule="evenodd" stroke="none"/>
  </g>
  <defs>
    <radialGradient cx="0" cy="0" gradientTransform="matrix(0.0045, 0.0, 0.0, 0.0045, -0.05, -53.15)" gradientUnits="userSpaceOnUse" id="gradient0" r="819.2" spreadMethod="pad">
      <stop offset="0.0" stop-color="#ff9400"/>
      <stop offset="1.0" stop-color="#fe8300"/>
    </radialGradient>
    <radialGradient cx="0" cy="0" gradientTransform="matrix(0.0034, 0.0, 0.0, 0.0034, -0.35, -55.95)" gradientUnits="userSpaceOnUse" id="gradient1" r="819.2" spreadMethod="pad">
      <stop offset="0.0" stop-color="#ff9e00"/>
      <stop offset="1.0" stop-color="#da6d00"/>
    </radialGradient>
    <radialGradient cx="0" cy="0" gradientTransform="matrix(0.0078, 0.0, 0.0, 0.0078, 0.65, -51.75)" gradientUnits="userSpaceOnUse" id="gradient2" r="819.2" spreadMethod="pad">
      <stop offset="0.0" stop-color="#ffd100"/>
      <stop offset="1.0" stop-color="#ff8c00"/>
    </radialGradient>
    <radialGradient cx="0" cy="0" gradientTransform="matrix(0.0107, 0.0, 0.0, 0.0108, -3.1, -48.2)" gradientUnits="userSpaceOnUse" id="gradient3" r="819.2" spreadMethod="pad">
      <stop offset="0.0" stop-color="#d5caa4"/>
      <stop offset="1.0" stop-color="#d1c7a1"/>
    </radialGradient>
    <radialGradient cx="0" cy="0" gradientTransform="matrix(0.0093, 0.0, 0.0, 0.0094, 12.45, -51.45)" gradientUnits="userSpaceOnUse" id="gradient4" r="819.2" spreadMethod="pad">
      <stop offset="0.0" stop-color="#202020"/>
      <stop offset="1.0" stop-color="#202020"/>
    </radialGradient>
    <radialGradient cx="0" cy="0" gradientTransform="matrix(0.0048, 0.0, 0.0, 0.0048, 11.35, -56.15)" gradientUnits="userSpaceOnUse" id="gradient5" r="819.2" spreadMethod="pad">
      <stop offset="0.0" stop-color="#202020"/>
      <stop offset="1.0" stop-color="#202020"/>
    </radialGradient>
    <radialGradient cx="0" cy="0" gradientTransform="matrix(0.0078, 0.0, 0.0, 0.0078, 10.35, -52.3)" gradientUnits="userSpaceOnUse" id="gradient6" r="819.2" spreadMethod="pad">
      <stop offset="0.0" stop-color="#202020"/>
      <stop offset="1.0" stop-color="#202020"/>
    </radialGradient>
    <radialGradient cx="0" cy="0" gradientTransform="matrix(4.0E-4, 0.0, 0.0, 4.0E-4, 11.35, -56.6)" gradientUnits="userSpaceOnUse" id="gradient7" r="819.2" spreadMethod="pad">
      <stop offset="0.0" stop-color="#7c3e00"/>
      <stop offset="1.0" stop-color="#7c3e00"/>
    </radialGradient>
    <radialGradient cx="0" cy="0" gradientTransform="matrix(0.026, 0.0, 0.0, 0.026, 11.35, -56.35)" gradientUnits="userSpaceOnUse" id="gradient8" r="819.2" spreadMethod="pad">
      <stop offset="0.0" stop-color="#b25900"/>
      <stop offset="1.0" stop-color="#9b4d00"/>
    </radialGradient>
    <radialGradient cx="0" cy="0" gradientTransform="matrix(0.0049, 0.0, 0.0, 0.0049, 13.65, -55.25)" gradientUnits="userSpaceOnUse" id="gradient9" r="819.2" spreadMethod="pad">
      <stop offset="0.0" stop-color="#202020"/>
      <stop offset="1.0" stop-color="#202020"/>
    </radialGradient>
    <radialGradient cx="0" cy="0" gradientTransform="matrix(5.0E-4, 0.0, 0.0, 5.0E-4, 13.6, -55.6)" gradientUnits="userSpaceOnUse" id="gradient10" r="819.2" spreadMethod="pad">
      <stop offset="0.0" stop-color="#6f3700"/>
      <stop offset="1.0" stop-color="#6f3700"/>
    </radialGradient>
    <radialGradient cx="0" cy="0" gradientTransform="matrix(0.0183, 0.0, 0.0, 0.0183, 13.8, -55.5)" gradientUnits="userSpaceOnUse" id="gradient11" r="819.2" spreadMethod="pad">
      <stop offset="0.0" stop-color="#bd5f00"/>
      <stop offset="1.0" stop-color="#a35100"/>
    </radialGradient>
    <radialGradient cx="0" cy="0" gradientTransform="matrix(0.0068, 0.0, 0.0, 0.0068, 9.75, -44.3)" gradientUnits="userSpaceOnUse" id="gradient12" r="819.2" spreadMethod="pad">
      <stop offset="0.0" stop-color="#ff3a3a"/>
      <stop offset="1.0" stop-color="#a52424"/>
    </radialGradient>
    <radialGradient cx="0" cy="0" gradientTransform="matrix(0.0046, 0.0, 0.0, 0.0046, 12.45, -42.3)" gradientUnits="userSpaceOnUse" id="gradient13" r="819.2" spreadMethod="pad">
      <stop offset="0.0" stop-color="#f3ab64"/>
      <stop offset="1.0" stop-color="#875f37"/>
    </radialGradient>
    <radialGradient cx="0" cy="0" gradientTransform="matrix(0.0059, 0.0, 0.0, 0.0059, 13.1, -40.7)" gradientUnits="userSpaceOnUse" id="gradient14" r="819.2" spreadMethod="pad">
      <stop offset="0.0" stop-color="#ffe786"/>
      <stop offset="1.0" stop-color="#ae7b48"/>
    </radialGradient>
    <radialGradient cx="0" cy="0" gradientTransform="matrix(0.015, 0.0, 0.0, 0.015, 0.05, -38.95)" gradientUnits="userSpaceOnUse" id="gradient15" r="819.2" spreadMethod="pad">
      <stop offset="0.0" stop-color="#fffacb"/>
      <stop offset="1.0" stop-color="#978f74"/>
    </radialGradient>
    <radialGradient cx="0" cy="0" gradientTransform="matrix(0.0261, 0.0, 0.0, 0.0261, 7.0, -41.3)" gradientUnits="userSpaceOnUse" id="gradient16" r="819.2" spreadMethod="pad">
      <stop offset="0.0" stop-color="#b25900"/>
      <stop offset="1.0" stop-color="#8e4700"/>
    </radialGradient>
    <radialGradient cx="0" cy="0" gradientTransform="matrix(0.0046, 0.0, 0.0, 0.0046, 7.0, -41.3)" gradientUnits="userSpaceOnUse" id="gradient17" r="819.2" spreadMethod="pad">
      <stop offset="0.0" stop-color="#884400"/>
      <stop offset="1.0" stop-color="#874300"/>
    </radialGradient>
    <radialGradient cx="0" cy="0" gradientTransform="matrix(0.0068, 0.0, 0.0, 0.0069, 11.4, -39.45)" gradientUnits="userSpaceOnUse" id="gradient18" r="819.2" spreadMethod="pad">
      <stop offset="0.0" stop-color="#ffe887"/>
      <stop offset="1.0" stop-color="#815b35"/>
    </radialGradient>
    <radialGradient cx="0" cy="0" gradientTransform="matrix(0.0076, 0.0, 0.0, 0.0076, 12.15, -40.05)" gradientUnits="userSpaceOnUse" id="gradient19" r="819.2" spreadMethod="pad">
      <stop offset="0.0" stop-color="#ffd77d"/>
      <stop offset="1.0" stop-color="#b6804a"/>
    </radialGradient>
    <radialGradient cx="0" cy="0" gradientTransform="matrix(0.0208, 0.0, 0.0, 0.0208, 6.9, -42.05)" gradientUnits="userSpaceOnUse" id="gradient20" r="819.2" spreadMethod="pad">
      <stop offset="0.0" stop-color="#704021"/>
      <stop offset="1.0" stop-color="#311c0e"/>
    </radialGradient>
    <radialGradient cx="0" cy="0" gradientTransform="matrix(0.0023, 0.0, 0.0, 0.0023, 4.75, -46.5)" gradientUnits="userSpaceOnUse" id="gradient21" r="819.2" spreadMethod="pad">
      <stop offset="0.0" stop-color="#aea686"/>
      <stop offset="1.0" stop-color="#79725d"/>
    </radialGradient>
    <radialGradient cx="0" cy="0" gradientTransform="matrix(0.0052, 0.0, 0.0, 0.0052, 1.4, -46.5)" gradientUnits="userSpaceOnUse" id="gradient22" r="819.2" spreadMethod="pad">
      <stop offset="0.0" stop-color="#ffe082"/>
      <stop offset="1.0" stop-color="#cb8f53"/>
    </radialGradient>
    <radialGradient cx="0" cy="0" gradientTransform="matrix(0.008, 0.0, 0.0, 0.0081, -1.25, -47.6)" gradientUnits="userSpaceOnUse" id="gradient23" r="819.2" spreadMethod="pad">
      <stop offset="0.0" stop-color="#ada485"/>
      <stop offset="1.0" stop-color="#9c9479"/>
    </radialGradient>
    <radialGradient cx="0" cy="0" gradientTransform="matrix(0.0075, 0.0, 0.0, 0.0075, 9.2, -38.7)" gradientUnits="userSpaceOnUse" id="gradient24" r="819.2" spreadMethod="pad">
      <stop offset="0.0" stop-color="#150c06"/>
      <stop offset="1.0" stop-color="#0e0804"/>
    </radialGradient>
    <radialGradient cx="0" cy="0" gradientTransform="matrix(0.0063, 0.0, 0.0, 0.0063, 5.1, -35.35)" gradientUnits="userSpaceOnUse" id="gradient25" r="819.2" spreadMethod="pad">
      <stop offset="0.0" stop-color="#63381d"/>
      <stop offset="1.0" stop-color="#462814"/>
    </radialGradient>
    <radialGradient cx="0" cy="0" gradientTransform="matrix(0.0037, 0.0, 0.0, 0.0037, 8.25, -40.0)" gradientUnits="userSpaceOnUse" id="gradient26" r="819.2" spreadMethod="pad">
      <stop offset="0.0" stop-color="#bdb492"/>
      <stop offset="1.0" stop-color="#a49b7e"/>
    </radialGradient>
    <radialGradient cx="0" cy="0" gradientTransform="matrix(0.0033, 0.0, 0.0, 0.0033, 9.65, -37.65)" gradientUnits="userSpaceOnUse" id="gradient27" r="819.2" spreadMethod="pad">
      <stop offset="0.0" stop-color="#a79e81"/>
      <stop offset="1.0" stop-color="#a39b7d"/>
    </radialGradient>
    <radialGradient cx="0" cy="0" gradientTransform="matrix(0.0043, 0.0, 0.0, 0.0043, 7.8, -34.25)" gradientUnits="userSpaceOnUse" id="gradient28" r="819.2" spreadMethod="pad">
      <stop offset="0.0" stop-color="#4a2a15"/>
      <stop offset="1.0" stop-color="#371f10"/>
    </radialGradient>
    <radialGradient cx="0" cy="0" gradientTransform="matrix(0.002, 0.0, 0.0, 0.002, 8.05, -35.05)" gradientUnits="userSpaceOnUse" id="gradient29" r="819.2" spreadMethod="pad">
      <stop offset="0.0" stop-color="#150c06"/>
      <stop offset="1.0" stop-color="#0e0804"/>
    </radialGradient>
    <radialGradient cx="0" cy="0" gradientTransform="matrix(0.0058, 0.0, 0.0, 0.0058, 4.1, -32.1)" gradientUnits="userSpaceOnUse" id="gradient30" r="819.2" spreadMethod="pad">
      <stop offset="0.0" stop-color="#62381d"/>
      <stop offset="1.0" stop-color="#462814"/>
    </radialGradient>
    <radialGradient cx="0" cy="0" gradientTransform="matrix(0.0076, 0.0, 0.0, 0.0076, 11.6, -33.75)" gradientUnits="userSpaceOnUse" id="gradient31" r="819.2" spreadMethod="pad">
      <stop offset="0.0" stop-color="#6b644e"/>
      <stop offset="1.0" stop-color="#332f25"/>
    </radialGradient>
    <radialGradient cx="0" cy="0" gradientTransform="matrix(0.0284, 0.0, 0.0, 0.0285, 0.4, -21.65)" gradientUnits="userSpaceOnUse" id="gradient32" r="819.2" spreadMethod="pad">
      <stop offset="0.0" stop-color="#1a0d00"/>
      <stop offset="1.0" stop-color="#1a0d00"/>
    </radialGradient>
    <radialGradient cx="0" cy="0" gradientTransform="matrix(0.0077, 0.0, 0.0, 0.0078, -3.25, -28.3)" gradientUnits="userSpaceOnUse" id="gradient33" r="819.2" spreadMethod="pad">
      <stop offset="0.0" stop-color="#341e0f"/>
      <stop offset="1.0" stop-color="#24140a"/>
    </radialGradient>
    <radialGradient cx="0" cy="0" gradientTransform="matrix(0.008, 0.0, 0.0, 0.0081, -0.5, -27.6)" gradientUnits="userSpaceOnUse" id="gradient34" r="819.2" spreadMethod="pad">
      <stop offset="0.0" stop-color="#ffffd3"/>
      <stop offset="1.0" stop-color="#cec49f"/>
    </radialGradient>
    <radialGradient cx="0" cy="0" gradientTransform="matrix(0.0084, 0.0, 0.0, 0.0084, 1.15, -26.3)" gradientUnits="userSpaceOnUse" id="gradient35" r="819.2" spreadMethod="pad">
      <stop offset="0.0" stop-color="#774423"/>
      <stop offset="1.0" stop-color="#553019"/>
    </radialGradient>
    <radialGradient cx="0" cy="0" gradientTransform="matrix(0.0049, 0.0, 0.0, 0.0049, 8.95, -33.15)" gradientUnits="userSpaceOnUse" id="gradient36" r="819.2" spreadMethod="pad">
      <stop offset="0.0" stop-color="#0c0c09"/>
      <stop offset="1.0" stop-color="#0c0c09"/>
    </radialGradient>
    <radialGradient cx="0" cy="0" gradientTransform="matrix(0.0035, 0.0, 0.0, 0.0035, 10.35, -28.1)" gradientUnits="userSpaceOnUse" id="gradient37" r="819.2" spreadMethod="pad">
      <stop offset="0.0" stop-color="#716952"/>
      <stop offset="1.0" stop-color="#302c23"/>
    </radialGradient>
    <radialGradient cx="0" cy="0" gradientTransform="matrix(4.0E-4, 0.0, 0.0, 4.0E-4, 7.85, -28.35)" gradientUnits="userSpaceOnUse" id="gradient38" r="819.2" spreadMethod="pad">
      <stop offset="0.0" stop-color="#261b10"/>
      <stop offset="1.0" stop-color="#261b10"/>
    </radialGradient>
    <radialGradient cx="0" cy="0" gradientTransform="matrix(0.0036, 0.0, 0.0, 0.0036, 9.7, -28.55)" gradientUnits="userSpaceOnUse" id="gradient39" r="819.2" spreadMethod="pad">
      <stop offset="0.0" stop-color="#fff48e"/>
      <stop offset="1.0" stop-color="#b37e49"/>
    </radialGradient>
    <radialGradient cx="0" cy="0" gradientTransform="matrix(0.0151, 0.0, 0.0, 0.0151, 7.75, -26.6)" gradientUnits="userSpaceOnUse" id="gradient40" r="819.2" spreadMethod="pad">
      <stop offset="0.0" stop-color="#ece0b6"/>
      <stop offset="1.0" stop-color="#b0a687"/>
    </radialGradient>
    <radialGradient cx="0" cy="0" gradientTransform="matrix(0.0116, 0.0, 0.0, 0.0116, 7.9, -25.05)" gradientUnits="userSpaceOnUse" id="gradient41" r="819.2" spreadMethod="pad">
      <stop offset="0.0" stop-color="#a62525"/>
      <stop offset="1.0" stop-color="#821d1d"/>
    </radialGradient>
    <radialGradient cx="0" cy="0" gradientTransform="matrix(0.0042, 0.0, 0.0, 0.0042, 13.6, -37.15)" gradientUnits="userSpaceOnUse" id="gradient42" r="819.2" spreadMethod="pad">
      <stop offset="0.0" stop-color="#ffed8a"/>
      <stop offset="1.0" stop-color="#94683d"/>
    </radialGradient>
    <radialGradient cx="0" cy="0" gradientTransform="matrix(0.0016, 0.0, 0.0, 0.0016, 10.7, -37.1)" gradientUnits="userSpaceOnUse" id="gradient43" r="819.2" spreadMethod="pad">
      <stop offset="0.0" stop-color="#0e0804"/>
      <stop offset="1.0" stop-color="#0e0804"/>
    </radialGradient>
    <radialGradient cx="0" cy="0" gradientTransform="matrix(0.0021, 0.0, 0.0, 0.0021, 13.1, -34.5)" gradientUnits="userSpaceOnUse" id="gradient44" r="819.2" spreadMethod="pad">
      <stop offset="0.0" stop-color="#f2ab64"/>
      <stop offset="1.0" stop-color="#865f37"/>
    </radialGradient>
    <radialGradient cx="0" cy="0" gradientTransform="matrix(0.0186, 0.0, 0.0, 0.0187, -2.2, -23.75)" gradientUnits="userSpaceOnUse" id="gradient45" r="819.2" spreadMethod="pad">
      <stop offset="0.0" stop-color="#ff3b3b"/>
      <stop offset="1.0" stop-color="#821c1c"/>
    </radialGradient>
    <radialGradient cx="0" cy="0" gradientTransform="matrix(0.018, 0.0, 0.0, 0.018, -2.1, -21.9)" gradientUnits="userSpaceOnUse" id="gradient46" r="819.2" spreadMethod="pad">
      <stop offset="0.0" stop-color="#ff3b3b"/>
      <stop offset="1.0" stop-color="#8d1f1f"/>
    </radialGradient>
    <radialGradient cx="0" cy="0" gradientTransform="matrix(0.0086, 0.0, 0.0, 0.0087, 3.15, -18.9)" gradientUnits="userSpaceOnUse" id="gradient47" r="819.2" spreadMethod="pad">
      <stop offset="0.0" stop-color="#c12b2b"/>
      <stop offset="1.0" stop-color="#741919"/>
    </radialGradient>
    <radialGradient cx="0" cy="0" gradientTransform="matrix(0.007, 0.0, 0.0, 0.0071, 7.6, -15.75)" gradientUnits="userSpaceOnUse" id="gradient48" r="819.2" spreadMethod="pad">
      <stop offset="0.0" stop-color="#c92d2d"/>
      <stop offset="1.0" stop-color="#8b1f1f"/>
    </radialGradient>
    <radialGradient cx="0" cy="0" gradientTransform="matrix(0.0094, 0.0, 0.0, 0.0095, 4.55, -13.65)" gradientUnits="userSpaceOnUse" id="gradient49" r="819.2" spreadMethod="pad">
      <stop offset="0.0" stop-color="#d63030"/>
      <stop offset="1.0" stop-color="#721919"/>
    </radialGradient>
    <radialGradient cx="0" cy="0" gradientTransform="matrix(0.0115, 0.0, 0.0, 0.0116, 8.55, -13.2)" gradientUnits="userSpaceOnUse" id="gradient50" r="819.2" spreadMethod="pad">
      <stop offset="0.0" stop-color="#a42525"/>
      <stop offset="1.0" stop-color="#661616"/>
    </radialGradient>
    <radialGradient cx="0" cy="0" gradientTransform="matrix(0.0087, 0.0, 0.0, 0.0087, -0.3, -10.05)" gradientUnits="userSpaceOnUse" id="gradient51" r="819.2" spreadMethod="pad">
      <stop offset="0.0" stop-color="#e23232"/>
      <stop offset="1.0" stop-color="#7f1c1c"/>
    </radialGradient>
    <radialGradient cx="0" cy="0" gradientTransform="matrix(0.0036, 0.0, 0.0, 0.0036, 4.3, -5.5)" gradientUnits="userSpaceOnUse" id="gradient52" r="819.2" spreadMethod="pad">
      <stop offset="0.0" stop-color="#68624c"/>
      <stop offset="1.0" stop-color="#413c2f"/>
    </radialGradient>
    <radialGradient cx="0" cy="0" gradientTransform="matrix(0.005, 0.0, 0.0, 0.005, 7.2, -4.25)" gradientUnits="userSpaceOnUse" id="gradient53" r="819.2" spreadMethod="pad">
      <stop offset="0.0" stop-color="#422613"/>
      <stop offset="1.0" stop-color="#3a2111"/>
    </radialGradient>
    <radialGradient cx="0" cy="0" gradientTransform="matrix(0.0125, 0.0, 0.0, 0.0125, -0.6, -6.15)" gradientUnits="userSpaceOnUse" id="gradient54" r="819.2" spreadMethod="pad">
      <stop offset="0.0" stop-color="#c52c2c"/>
      <stop offset="1.0" stop-color="#681717"/>
    </radialGradient>
    <radialGradient cx="0" cy="0" gradientTransform="matrix(0.0048, 0.0, 0.0, 0.0048, 7.35, -2.45)" gradientUnits="userSpaceOnUse" id="gradient55" r="819.2" spreadMethod="pad">
      <stop offset="0.0" stop-color="#726b53"/>
      <stop offset="1.0" stop-color="#3f3b2e"/>
    </radialGradient>
    <radialGradient cx="0" cy="0" gradientTransform="matrix(0.0016, 0.0, 0.0, 0.0016, 19.3, 6.65)" gradientUnits="userSpaceOnUse" id="gradient56" r="819.2" spreadMethod="pad">
      <stop offset="0.0" stop-color="#a45200"/>
      <stop offset="1.0" stop-color="#a45200"/>
    </radialGradient>
    <radialGradient cx="0" cy="0" gradientTransform="matrix(0.0327, 0.0, 0.0, 0.0327, -4.0, -6.55)" gradientUnits="userSpaceOnUse" id="gradient57" r="819.2" spreadMethod="pad">
      <stop offset="0.0" stop-color="#d86c00"/>
      <stop offset="1.0" stop-color="#6c3600"/>
    </radialGradient>
    <radialGradient cx="0" cy="0" gradientTransform="matrix(0.0235, 0.0, 0.0, 0.0236, -17.05, -35.95)" gradientUnits="userSpaceOnUse" id="gradient58" r="819.2" spreadMethod="pad">
      <stop offset="0.0" stop-color="#e57300"/>
      <stop offset="1.0" stop-color="#844200"/>
    </radialGradient>
    <radialGradient cx="0" cy="0" gradientTransform="matrix(0.0011, 0.0, 0.0, 0.0011, -16.8, -51.1)" gradientUnits="userSpaceOnUse" id="gradient59" r="819.2" spreadMethod="pad">
      <stop offset="0.0" stop-color="#613100"/>
      <stop offset="1.0" stop-color="#613100"/>
    </radialGradient>
    <radialGradient cx="0" cy="0" gradientTransform="matrix(0.0053, 0.0, 0.0, 0.0053, -6.75, -54.3)" gradientUnits="userSpaceOnUse" id="gradient60" r="819.2" spreadMethod="pad">
      <stop offset="0.0" stop-color="#ffa400"/>
      <stop offset="1.0" stop-color="#ff9a00"/>
    </radialGradient>
    <radialGradient cx="0" cy="0" gradientTransform="matrix(0.0059, 0.0, 0.0, 0.0059, -3.1, -57.2)" gradientUnits="userSpaceOnUse" id="gradient61" r="819.2" spreadMethod="pad">
      <stop offset="0.0" stop-color="#ff9400"/>
      <stop offset="1.0" stop-color="#ff8e00"/>
    </radialGradient>
    <radialGradient cx="0" cy="0" gradientTransform="matrix(0.0022, 0.0, 0.0, 0.0022, -2.25, -55.6)" gradientUnits="userSpaceOnUse" id="gradient62" r="819.2" spreadMethod="pad">
      <stop offset="0.0" stop-color="#ff9100"/>
      <stop offset="1.0" stop-color="#fd8000"/>
    </radialGradient>
    <radialGradient cx="0" cy="0" gradientTransform="matrix(0.0012, 0.0, 0.0, 0.0012, -1.7, -56.3)" gradientUnits="userSpaceOnUse" id="gradient63" r="819.2" spreadMethod="pad">
      <stop offset="0.0" stop-color="#ff9600"/>
      <stop offset="1.0" stop-color="#ff9500"/>
    </radialGradient>
    <radialGradient cx="0" cy="0" gradientTransform="matrix(0.0069, 0.0, 0.0, 0.0069, -3.35, -51.75)" gradientUnits="userSpaceOnUse" id="gradient64" r="819.2" spreadMethod="pad">
      <stop offset="0.0" stop-color="#ff8e00"/>
      <stop offset="1.0" stop-color="#f27900"/>
    </radialGradient>
    <radialGradient cx="0" cy="0" gradientTransform="matrix(0.0053, 0.0, 0.0, 0.0053, -6.75, -54.3)" gradientUnits="userSpaceOnUse" id="gradient65" r="819.2" spreadMethod="pad">
      <stop offset="0.0" stop-color="#331a00"/>
      <stop offset="1.0" stop-color="#331a00"/>
    </radialGradient>
    <radialGradient cx="0" cy="0" gradientTransform="matrix(0.0016, 0.0, 0.0, 0.0016, -6.05, -54.8)" gradientUnits="userSpaceOnUse" id="gradient66" r="819.2" spreadMethod="pad">
      <stop offset="0.0" stop-color="#c06100"/>
      <stop offset="1.0" stop-color="#bc5e00"/>
    </radialGradient>
    <radialGradient cx="0" cy="0" gradientTransform="matrix(0.008, 0.0, 0.0, 0.008, -11.4, -51.95)" gradientUnits="userSpaceOnUse" id="gradient67" r="819.2" spreadMethod="pad">
      <stop offset="0.0" stop-color="#ffd000"/>
      <stop offset="1.0" stop-color="#ffc300"/>
    </radialGradient>
    <radialGradient cx="0" cy="0" gradientTransform="matrix(0.0037, 0.0, 0.0, 0.0037, -6.3, -52.95)" gradientUnits="userSpaceOnUse" id="gradient68" r="819.2" spreadMethod="pad">
      <stop offset="0.0" stop-color="#ffc000"/>
      <stop offset="1.0" stop-color="#ffa700"/>
    </radialGradient>
    <radialGradient cx="0" cy="0" gradientTransform="matrix(0.0052, 0.0, 0.0, 0.0052, -6.75, -54.3)" gradientUnits="userSpaceOnUse" id="gradient69" r="819.2" spreadMethod="pad">
      <stop offset="0.0" stop-color="#ffa400"/>
      <stop offset="1.0" stop-color="#ff9c00"/>
    </radialGradient>
    <radialGradient cx="0" cy="0" gradientTransform="matrix(0.0046, 0.0, 0.0, 0.0046, -6.4, -51.45)" gradientUnits="userSpaceOnUse" id="gradient70" r="819.2" spreadMethod="pad">
      <stop offset="0.0" stop-color="#ffc300"/>
      <stop offset="1.0" stop-color="#ffb000"/>
    </radialGradient>
    <radialGradient cx="0" cy="0" gradientTransform="matrix(0.0033, 0.0, 0.0, 0.0033, -6.4, -51.45)" gradientUnits="userSpaceOnUse" id="gradient71" r="819.2" spreadMethod="pad">
      <stop offset="0.0" stop-color="#ffc300"/>
      <stop offset="1.0" stop-color="#ffbb00"/>
    </radialGradient>
    <radialGradient cx="0" cy="0" gradientTransform="matrix(0.0052, 0.0, 0.0, 0.0052, -5.8, -47.7)" gradientUnits="userSpaceOnUse" id="gradient72" r="819.2" spreadMethod="pad">
      <stop offset="0.0" stop-color="#ff8d00"/>
      <stop offset="1.0" stop-color="#f67c00"/>
    </radialGradient>
    <radialGradient cx="0" cy="0" gradientTransform="matrix(0.0071, 0.0, 0.0, 0.0071, -8.2, -58.65)" gradientUnits="userSpaceOnUse" id="gradient73" r="819.2" spreadMethod="pad">
      <stop offset="0.0" stop-color="#ffb000"/>
      <stop offset="1.0" stop-color="#ff9700"/>
    </radialGradient>
    <radialGradient cx="0" cy="0" gradientTransform="matrix(0.0046, 0.0, 0.0, 0.0046, -4.4, -55.7)" gradientUnits="userSpaceOnUse" id="gradient74" r="819.2" spreadMethod="pad">
      <stop offset="0.0" stop-color="#ff9400"/>
      <stop offset="1.0" stop-color="#ff8300"/>
    </radialGradient>
    <radialGradient cx="0" cy="0" gradientTransform="matrix(0.0025, 0.0, 0.0, 0.0025, -3.7, -46.1)" gradientUnits="userSpaceOnUse" id="gradient75" r="819.2" spreadMethod="pad">
      <stop offset="0.0" stop-color="#8b6239"/>
      <stop offset="1.0" stop-color="#4a341e"/>
    </radialGradient>
    <radialGradient cx="0" cy="0" gradientTransform="matrix(0.0016, 0.0, 0.0, 0.0016, -1.6, -43.95)" gradientUnits="userSpaceOnUse" id="gradient76" r="819.2" spreadMethod="pad">
      <stop offset="0.0" stop-color="#0e0804"/>
      <stop offset="1.0" stop-color="#0e0804"/>
    </radialGradient>
    <radialGradient cx="0" cy="0" gradientTransform="matrix(0.0056, 0.0, 0.0, 0.0056, -7.8, -51.8)" gradientUnits="userSpaceOnUse" id="gradient77" r="819.2" spreadMethod="pad">
      <stop offset="0.0" stop-color="#331a00"/>
      <stop offset="1.0" stop-color="#331a00"/>
    </radialGradient>
    <radialGradient cx="0" cy="0" gradientTransform="matrix(0.0073, 0.0, 0.0, 0.0073, -5.2, -33.85)" gradientUnits="userSpaceOnUse" id="gradient78" r="819.2" spreadMethod="pad">
      <stop offset="0.0" stop-color="#fe3838"/>
      <stop offset="1.0" stop-color="#a02323"/>
    </radialGradient>
    <radialGradient cx="0" cy="0" gradientTransform="matrix(0.0054, 0.0, 0.0, 0.0054, -4.5, -39.0)" gradientUnits="userSpaceOnUse" id="gradient79" r="819.2" spreadMethod="pad">
      <stop offset="0.0" stop-color="#fff9ca"/>
      <stop offset="1.0" stop-color="#888169"/>
    </radialGradient>
    <radialGradient cx="0" cy="0" gradientTransform="matrix(0.0084, 0.0, 0.0, 0.0084, -5.55, -28.15)" gradientUnits="userSpaceOnUse" id="gradient80" r="819.2" spreadMethod="pad">
      <stop offset="0.0" stop-color="#ffe284"/>
      <stop offset="1.0" stop-color="#92683c"/>
    </radialGradient>
    <radialGradient cx="0" cy="0" gradientTransform="matrix(0.009, 0.0, 0.0, 0.009, -4.4, -34.65)" gradientUnits="userSpaceOnUse" id="gradient81" r="819.2" spreadMethod="pad">
      <stop offset="0.0" stop-color="#ffe082"/>
      <stop offset="1.0" stop-color="#b57f4a"/>
    </radialGradient>
    <radialGradient cx="0" cy="0" gradientTransform="matrix(0.0084, 0.0, 0.0, 0.0084, -4.6, -27.25)" gradientUnits="userSpaceOnUse" id="gradient82" r="819.2" spreadMethod="pad">
      <stop offset="0.0" stop-color="#ffc371"/>
      <stop offset="1.0" stop-color="#a17142"/>
    </radialGradient>
    <radialGradient cx="0" cy="0" gradientTransform="matrix(0.0068, 0.0, 0.0, 0.0069, -3.7, -28.1)" gradientUnits="userSpaceOnUse" id="gradient83" r="819.2" spreadMethod="pad">
      <stop offset="0.0" stop-color="#ffdc80"/>
      <stop offset="1.0" stop-color="#ab7845"/>
    </radialGradient>
    <radialGradient cx="0" cy="0" gradientTransform="matrix(0.0048, 0.0, 0.0, 0.0048, -4.2, -24.75)" gradientUnits="userSpaceOnUse" id="gradient84" r="819.2" spreadMethod="pad">
      <stop offset="0.0" stop-color="#ffdf82"/>
      <stop offset="1.0" stop-color="#93683c"/>
    </radialGradient>
    <radialGradient cx="0" cy="0" gradientTransform="matrix(0.0034, 0.0, 0.0, 0.0034, -5.05, -22.35)" gradientUnits="userSpaceOnUse" id="gradient85" r="819.2" spreadMethod="pad">
      <stop offset="0.0" stop-color="#ffc975"/>
      <stop offset="1.0" stop-color="#95693d"/>
    </radialGradient>
    <radialGradient cx="0" cy="0" gradientTransform="matrix(0.0093, 0.0, 0.0, 0.0093, -7.4, -21.25)" gradientUnits="userSpaceOnUse" id="gradient86" r="819.2" spreadMethod="pad">
      <stop offset="0.0" stop-color="#625c47"/>
      <stop offset="1.0" stop-color="#343025"/>
    </radialGradient>
    <radialGradient cx="0" cy="0" gradientTransform="matrix(0.0148, 0.0, 0.0, 0.0148, -5.6, -8.6)" gradientUnits="userSpaceOnUse" id="gradient87" r="819.2" spreadMethod="pad">
      <stop offset="0.0" stop-color="#6b644e"/>
      <stop offset="1.0" stop-color="#58523f"/>
    </radialGradient>
    <radialGradient cx="0" cy="0" gradientTransform="matrix(0.0042, 0.0, 0.0, 0.0042, -9.15, -13.9)" gradientUnits="userSpaceOnUse" id="gradient88" r="819.2" spreadMethod="pad">
      <stop offset="0.0" stop-color="#6e6750"/>
      <stop offset="1.0" stop-color="#322e24"/>
    </radialGradient>
    <radialGradient cx="0" cy="0" gradientTransform="matrix(0.0016, 0.0, 0.0, 0.0016, -11.95, -18.0)" gradientUnits="userSpaceOnUse" id="gradient89" r="819.2" spreadMethod="pad">
      <stop offset="0.0" stop-color="#512800"/>
      <stop offset="1.0" stop-color="#502800"/>
    </radialGradient>
    <radialGradient cx="0" cy="0" gradientTransform="matrix(0.0108, 0.0, 0.0, 0.0109, -4.15, -8.85)" gradientUnits="userSpaceOnUse" id="gradient90" r="819.2" spreadMethod="pad">
      <stop offset="0.0" stop-color="#e83434"/>
      <stop offset="1.0" stop-color="#7b1b1b"/>
    </radialGradient>
    <radialGradient cx="0" cy="0" gradientTransform="matrix(0.0055, 0.0, 0.0, 0.0055, -8.35, -10.9)" gradientUnits="userSpaceOnUse" id="gradient91" r="819.2" spreadMethod="pad">
      <stop offset="0.0" stop-color="#912020"/>
      <stop offset="1.0" stop-color="#731919"/>
    </radialGradient>
    <radialGradient cx="0" cy="0" gradientTransform="matrix(0.0064, 0.0, 0.0, 0.0064, -8.5, -8.05)" gradientUnits="userSpaceOnUse" id="gradient92" r="819.2" spreadMethod="pad">
      <stop offset="0.0" stop-color="#791b1b"/>
      <stop offset="1.0" stop-color="#6b1818"/>
    </radialGradient>
    <radialGradient cx="0" cy="0" gradientTransform="matrix(0.0069, 0.0, 0.0, 0.0069, -4.25, 2.8)" gradientUnits="userSpaceOnUse" id="gradient93" r="819.2" spreadMethod="pad">
      <stop offset="0.0" stop-color="#532f18"/>
      <stop offset="1.0" stop-color="#472815"/>
    </radialGradient>
    <radialGradient cx="0" cy="0" gradientTransform="matrix(0.0052, 0.0, 0.0, 0.0052, -8.8, 5.55)" gradientUnits="userSpaceOnUse" id="gradient94" r="819.2" spreadMethod="pad">
      <stop offset="0.0" stop-color="#746d54"/>
      <stop offset="1.0" stop-color="#4d4838"/>
    </radialGradient>
    <radialGradient cx="0" cy="0" gradientTransform="matrix(0.0049, 0.0, 0.0, 0.0049, -3.1, 7.05)" gradientUnits="userSpaceOnUse" id="gradient95" r="819.2" spreadMethod="pad">
      <stop offset="0.0" stop-color="#635d48"/>
      <stop offset="1.0" stop-color="#413d2f"/>
    </radialGradient>
  </defs>
</svg>
