<?xml version="1.0" encoding="UTF-8" standalone="no"?>
<svg xmlns:ffdec="https://www.free-decompiler.com/flash" xmlns:xlink="http://www.w3.org/1999/xlink" ffdec:objectType="shape" height="68.1px" width="52.05px" xmlns="http://www.w3.org/2000/svg">
  <g transform="matrix(1.0, 0.0, 0.0, 1.0, 21.5, 59.55)">
    <path d="M-0.35 -54.65 L-0.1 -54.15 -0.4 -54.25 -0.35 -54.65" fill="url(#gradient0)" fill-rule="evenodd" stroke="none"/>
    <path d="M-0.1 -54.15 Q3.2 -52.55 2.95 -51.15 5.25 -48.0 -0.3 -45.9 L-1.35 -45.95 -3.95 -46.65 -6.35 -48.7 Q-6.65 -48.85 -6.4 -50.25 L-6.15 -50.5 -6.1 -50.95 -5.9 -51.35 -6.05 -51.7 -6.0 -52.0 -5.85 -52.05 -5.75 -52.35 -5.35 -52.9 -5.2 -53.1 -4.3 -53.6 -4.25 -53.75 -3.5 -54.2 -2.75 -54.3 -1.85 -54.45 -1.15 -54.5 -0.4 -54.25 -0.1 -54.15" fill="url(#gradient1)" fill-rule="evenodd" stroke="none"/>
    <path d="M2.95 -51.15 Q3.35 -51.05 3.75 -49.45 L3.5 -47.9 Q2.1 -45.05 -2.4 -45.6 -6.75 -46.75 -7.15 -49.6 L-6.4 -50.25 Q-6.65 -48.85 -6.35 -48.7 L-3.95 -46.65 -1.35 -45.95 -0.3 -45.9 Q5.25 -48.0 2.95 -51.15 M-5.85 -52.55 L-5.35 -52.9 -5.75 -52.35 -5.85 -52.55" fill="url(#gradient2)" fill-rule="evenodd" stroke="none"/>
    <path d="M-1.15 -54.5 L-0.35 -54.65 -0.4 -54.25 -1.15 -54.5" fill="url(#gradient3)" fill-rule="evenodd" stroke="none"/>
    <path d="M12.6 -55.65 L14.35 -58.35 14.45 -58.4 14.45 -58.2 13.35 -54.35 11.75 -52.05 12.65 -55.5 12.6 -55.65" fill="url(#gradient4)" fill-rule="evenodd" stroke="none"/>
    <path d="M11.65 -57.65 L11.8 -58.4 11.95 -58.1 11.65 -57.65 M11.95 -57.65 L12.25 -55.75 12.15 -55.55 11.2 -52.05 11.1 -51.9 10.85 -53.6 11.3 -54.7 11.95 -57.65" fill="url(#gradient5)" fill-rule="evenodd" stroke="none"/>
    <path d="M9.9 -53.85 L10.0 -55.9 10.7 -59.5 10.85 -59.55 10.75 -56.3 10.5 -56.2 9.9 -53.85" fill="url(#gradient6)" fill-rule="evenodd" stroke="none"/>
    <path d="M10.75 -56.3 L10.95 -56.25 10.9 -56.1 10.5 -56.2 10.75 -56.3" fill="url(#gradient7)" fill-rule="evenodd" stroke="none"/>
    <path d="M10.95 -56.25 L11.65 -57.65 11.95 -58.1 11.95 -57.65 11.3 -54.7 10.85 -53.6 10.2 -52.4 10.15 -52.75 10.9 -56.1 10.95 -56.25" fill="url(#gradient8)" fill-rule="evenodd" stroke="none"/>
    <path d="M8.75 -47.95 L9.9 -53.85 10.5 -56.2 10.9 -56.1 10.15 -52.75 10.2 -52.4 9.3 -47.7 8.25 -42.85 7.85 -41.2 7.4 -41.35 7.55 -42.6 7.8 -43.75 8.75 -47.95" fill="url(#gradient9)" fill-rule="evenodd" stroke="none"/>
    <path d="M12.25 -55.75 L12.6 -55.65 12.65 -55.5 12.15 -55.55 12.25 -55.75" fill="url(#gradient10)" fill-rule="evenodd" stroke="none"/>
    <path d="M11.75 -52.05 L10.25 -46.65 9.15 -42.75 9.0 -42.05 8.65 -42.05 8.45 -42.35 8.65 -42.85 9.8 -47.25 11.1 -51.9 11.2 -52.05 12.15 -55.55 12.65 -55.5 11.75 -52.05" fill="url(#gradient11)" fill-rule="evenodd" stroke="none"/>
    <path d="M8.65 -42.85 L8.45 -42.35 8.65 -42.05 9.0 -42.05 9.15 -42.75 9.8 -42.55 9.9 -42.3 9.8 -41.7 Q8.15 -39.95 6.35 -41.3 L6.45 -41.85 6.75 -42.15 7.55 -42.6 7.4 -41.35 7.85 -41.2 8.25 -42.85 8.65 -42.85" fill="url(#gradient12)" fill-rule="evenodd" stroke="none"/>
    <path d="M3.25 -46.35 Q5.2 -48.9 8.75 -47.95 L7.8 -43.75 6.45 -44.9 Q4.0 -46.0 3.05 -45.7 L3.15 -46.3 3.25 -46.35 M10.25 -46.65 Q11.4 -45.65 10.95 -42.2 L10.6 -41.05 10.6 -41.0 9.65 -39.45 9.5 -39.3 9.35 -39.4 9.35 -39.45 9.8 -41.7 9.9 -42.3 9.8 -42.55 9.15 -42.75 10.25 -46.65 M9.8 -47.25 L8.65 -42.85 8.25 -42.85 9.3 -47.7 9.8 -47.25" fill="url(#gradient13)" fill-rule="evenodd" stroke="none"/>
    <path d="M7.25 -30.75 L6.45 -27.15 4.8 -20.6 Q0.45 -17.6 2.15 -22.9 L3.05 -26.8 3.05 -27.0 3.3 -28.1 3.4 -28.55 3.4 -28.6 3.65 -29.65 3.8 -30.15 Q6.0 -29.3 7.25 -30.75 M9.8 -41.7 L9.35 -39.45 9.35 -39.4 9.1 -38.45 9.05 -38.3 9.0 -37.95 8.75 -37.05 Q7.05 -35.25 5.25 -36.6 L5.5 -37.6 6.35 -41.3 Q8.15 -39.95 9.8 -41.7 M4.35 -32.7 L4.65 -33.95 Q6.75 -33.05 8.15 -34.4 L8.1 -34.1 7.95 -33.5 Q5.85 -31.25 4.35 -32.7" fill="url(#gradient14)" fill-rule="evenodd" stroke="none"/>
    <path d="M9.0 -37.95 L9.05 -38.3 9.2 -38.25 9.1 -38.45 9.35 -39.4 9.5 -39.3 9.7 -39.05 9.55 -38.1 9.55 -38.0 9.45 -37.4 9.4 -37.05 9.0 -36.4 8.75 -36.1 9.05 -37.35 9.0 -37.95 M2.8 -45.3 Q6.4 -44.7 4.85 -39.45 3.8 -36.0 3.45 -30.65 L2.95 -29.3 1.85 -28.1 -0.05 -27.4 0.7 -29.0 0.85 -29.8 Q3.65 -35.4 -4.25 -37.05 L-3.85 -39.45 -3.45 -40.7 -2.65 -41.8 Q-1.9 -41.15 2.7 -42.7 L3.1 -43.8 2.75 -45.2 2.8 -45.3 M-0.1 -25.95 L1.7 -26.8 3.35 -28.9 3.65 -29.65 3.4 -28.6 3.35 -28.55 2.35 -27.05 2.15 -26.8 2.1 -26.8 1.95 -26.6 0.8 -26.1 -0.1 -25.95 M0.5 -25.8 L1.4 -26.1 1.1 -25.75 0.5 -25.8" fill="url(#gradient15)" fill-rule="evenodd" stroke="none"/>
    <path d="M10.6 -41.0 Q11.25 -39.0 10.0 -37.9 L9.9 -38.05 9.55 -38.1 9.7 -39.05 9.5 -39.3 9.65 -39.45 10.6 -41.0" fill="url(#gradient16)" fill-rule="evenodd" stroke="none"/>
    <path d="M10.0 -37.9 L10.05 -36.65 Q9.85 -35.8 8.75 -35.4 L8.65 -35.4 9.1 -36.15 9.05 -36.35 9.4 -37.05 9.45 -37.4 9.65 -37.65 9.55 -38.0 9.55 -38.1 9.9 -38.05 10.0 -37.9" fill="url(#gradient17)" fill-rule="evenodd" stroke="none"/>
    <path d="M9.55 -38.0 L9.65 -37.65 9.45 -37.4 9.55 -38.0 M9.4 -37.05 L9.05 -36.35 9.0 -36.4 9.4 -37.05" fill="url(#gradient18)" fill-rule="evenodd" stroke="none"/>
    <path d="M-3.15 -42.5 L-3.0 -42.7 -3.0 -42.65 -3.15 -42.5 M6.35 -41.3 L5.5 -37.6 5.2 -37.3 5.05 -36.8 4.55 -34.6 4.65 -33.95 4.35 -32.7 4.2 -32.8 3.8 -30.15 3.65 -29.65 3.35 -28.9 1.7 -26.8 -0.1 -25.95 -0.2 -25.95 -0.65 -26.6 -0.5 -26.8 -0.05 -27.4 1.85 -28.1 2.95 -29.3 3.45 -30.65 Q3.8 -36.0 4.85 -39.45 6.4 -44.7 2.8 -45.3 L3.05 -45.7 Q4.0 -46.0 6.45 -44.9 L7.8 -43.75 7.55 -42.6 6.75 -42.15 6.45 -41.85 6.35 -41.3" fill="url(#gradient19)" fill-rule="evenodd" stroke="none"/>
    <path d="M3.5 -47.9 L3.25 -46.35 3.15 -46.3 3.05 -45.7 2.8 -45.3 2.75 -45.2 Q2.05 -42.95 -2.95 -43.25 L-4.7 -43.8 -4.8 -43.9 -6.35 -44.9 Q-7.65 -46.4 -7.35 -46.55 L-7.25 -46.5 -7.1 -46.35 -7.15 -47.7 -7.2 -47.95 -7.2 -48.1 -7.3 -49.4 -7.15 -49.6 Q-6.75 -46.75 -2.4 -45.6 2.1 -45.05 3.5 -47.9" fill="url(#gradient20)" fill-rule="evenodd" stroke="none"/>
    <path d="M-3.0 -42.7 L-3.05 -43.05 -2.95 -43.25 Q2.05 -42.95 2.75 -45.2 L3.1 -43.8 2.7 -42.7 Q-1.9 -41.15 -2.65 -41.8 L-2.9 -42.2 -2.95 -42.45 -3.0 -42.65 -3.0 -42.7" fill="url(#gradient21)" fill-rule="evenodd" stroke="none"/>
    <path d="M5.5 -37.6 L5.25 -36.6 5.05 -36.8 5.2 -37.3 5.5 -37.6 M8.75 -37.05 L9.0 -37.95 9.05 -37.35 8.75 -37.05" fill="url(#gradient22)" fill-rule="evenodd" stroke="none"/>
    <path d="M5.25 -36.6 Q7.05 -35.25 8.75 -37.05 L9.05 -37.35 8.75 -36.1 8.6 -35.4 8.55 -35.1 8.35 -34.75 8.15 -34.4 Q6.75 -33.05 4.65 -33.95 L4.55 -34.6 5.05 -36.8 5.25 -36.6" fill="url(#gradient23)" fill-rule="evenodd" stroke="none"/>
    <path d="M9.05 -36.35 L9.1 -36.15 8.65 -35.4 8.6 -35.4 8.75 -36.1 9.0 -36.4 9.05 -36.35" fill="url(#gradient24)" fill-rule="evenodd" stroke="none"/>
    <path d="M9.05 -38.3 L9.1 -38.45 9.2 -38.25 9.05 -38.3" fill="url(#gradient25)" fill-rule="evenodd" stroke="none"/>
    <path d="M8.7 -35.25 L8.45 -34.2 8.15 -33.8 8.15 -34.1 8.35 -34.75 8.55 -35.1 8.7 -35.25" fill="url(#gradient26)" fill-rule="evenodd" stroke="none"/>
    <path d="M8.75 -35.4 L8.7 -35.25 8.55 -35.1 8.6 -35.4 8.65 -35.4 8.75 -35.4" fill="url(#gradient27)" fill-rule="evenodd" stroke="none"/>
    <path d="M8.15 -33.8 L8.1 -33.55 7.95 -33.5 8.1 -34.1 8.15 -34.1 8.15 -33.8" fill="url(#gradient28)" fill-rule="evenodd" stroke="none"/>
    <path d="M8.35 -34.75 L8.15 -34.1 8.1 -34.1 8.15 -34.4 8.35 -34.75" fill="url(#gradient29)" fill-rule="evenodd" stroke="none"/>
    <path d="M8.1 -33.55 L7.55 -31.2 7.25 -30.75 Q6.0 -29.3 3.8 -30.15 L4.2 -32.8 4.35 -32.7 Q5.85 -31.25 7.95 -33.5 L8.1 -33.55" fill="url(#gradient30)" fill-rule="evenodd" stroke="none"/>
    <path d="M3.4 -28.6 L3.4 -28.55 3.35 -28.55 3.4 -28.6" fill="url(#gradient31)" fill-rule="evenodd" stroke="none"/>
    <path d="M3.4 -28.55 L3.3 -28.1 3.0 -27.55 2.95 -27.55 2.7 -27.2 2.45 -26.95 2.35 -27.05 3.35 -28.55 3.4 -28.55 M2.15 -26.8 L2.25 -26.8 2.1 -26.6 1.95 -26.6 2.1 -26.8 2.15 -26.8" fill="url(#gradient32)" fill-rule="evenodd" stroke="none"/>
    <path d="M3.3 -28.1 L3.05 -27.0 2.1 -25.9 1.85 -26.35 2.1 -26.6 2.25 -26.8 2.15 -26.8 2.35 -27.05 2.45 -26.95 2.7 -27.2 3.0 -27.55 3.3 -28.1" fill="url(#gradient33)" fill-rule="evenodd" stroke="none"/>
    <path d="M-0.2 -25.95 L-0.1 -25.95 0.8 -26.1 1.95 -26.6 2.1 -26.6 1.85 -26.35 1.4 -26.1 0.5 -25.8 0.45 -25.8 0.35 -25.75 -0.05 -25.65 -0.2 -25.95 M2.7 -27.2 L2.95 -27.55 3.0 -27.55 2.7 -27.2" fill="url(#gradient34)" fill-rule="evenodd" stroke="none"/>
    <path d="M-7.3 -26.85 Q-8.8 -29.45 -8.0 -32.5 L-7.8 -32.75 -7.7 -33.1 -2.8 -31.55 0.85 -29.8 0.7 -29.0 -0.05 -27.4 -0.5 -26.8 -0.65 -26.6 -1.55 -25.85 -1.65 -25.8 -5.85 -25.6 -6.45 -25.9 -7.3 -26.85" fill="url(#gradient35)" fill-rule="evenodd" stroke="none"/>
    <path d="M1.85 -26.35 L2.1 -25.9 1.2 -24.9 0.3 -24.45 -0.05 -25.65 0.35 -25.75 0.45 -25.8 0.5 -25.8 1.1 -25.75 1.4 -26.1 1.85 -26.35" fill="url(#gradient36)" fill-rule="evenodd" stroke="none"/>
    <path d="M-0.65 -26.6 L-0.2 -25.95 -0.05 -25.65 0.3 -24.45 0.35 -22.1 0.0 -21.15 -0.35 -22.15 -0.85 -22.55 -1.15 -24.7 -1.45 -25.25 -1.55 -25.85 -0.65 -26.6" fill="url(#gradient37)" fill-rule="evenodd" stroke="none"/>
    <path d="M3.05 -27.0 L3.05 -26.8 2.15 -22.9 1.5 -22.4 0.35 -22.1 0.3 -24.45 1.2 -24.9 2.1 -25.9 3.05 -27.0" fill="url(#gradient38)" fill-rule="evenodd" stroke="none"/>
    <path d="M6.65 -26.7 L6.75 -26.55 6.8 -26.15 6.65 -26.7" fill="url(#gradient39)" fill-rule="evenodd" stroke="none"/>
    <path d="M6.45 -27.15 L6.55 -26.8 6.65 -26.75 6.65 -26.7 6.8 -26.15 6.95 -25.75 7.05 -25.75 7.45 -24.1 7.55 -21.4 7.15 -19.7 Q3.55 -12.95 2.55 -14.65 L0.75 -15.35 -1.0 -16.35 -1.05 -17.3 -0.65 -18.5 Q-0.25 -18.75 0.0 -19.75 L0.0 -21.15 0.35 -22.1 1.5 -22.4 2.15 -22.9 Q0.45 -17.6 4.8 -20.6 L6.45 -27.15" fill="url(#gradient40)" fill-rule="evenodd" stroke="none"/>
    <path d="M6.75 -26.55 L6.9 -26.0 6.95 -25.95 6.95 -25.9 6.95 -25.75 6.8 -26.15 6.75 -26.55" fill="url(#gradient41)" fill-rule="evenodd" stroke="none"/>
    <path d="M6.95 -25.9 L7.05 -25.75 6.95 -25.75 6.95 -25.9" fill="url(#gradient42)" fill-rule="evenodd" stroke="none"/>
    <path d="M7.45 -24.1 Q9.25 -20.55 8.2 -14.45 L8.1 -14.2 7.9 -13.4 6.95 -12.35 5.0 -11.65 3.3 -13.1 2.7 -14.2 2.55 -14.65 Q3.55 -12.95 7.15 -19.7 L7.55 -21.4 7.45 -24.1" fill="url(#gradient43)" fill-rule="evenodd" stroke="none"/>
    <path d="M-1.7 -19.55 Q-1.35 -19.9 -0.9 -21.4 L-0.85 -22.55 -0.35 -22.15 0.0 -21.15 0.0 -19.75 Q-0.25 -18.75 -0.65 -18.5 L-0.9 -18.45 -1.7 -19.55" fill="url(#gradient44)" fill-rule="evenodd" stroke="none"/>
    <path d="M-0.85 -22.55 L-0.9 -21.4 Q-1.35 -19.9 -1.7 -19.55 L-2.75 -18.65 -3.8 -18.35 -3.95 -18.4 -4.3 -18.4 Q-8.7 -21.15 -6.45 -25.9 L-5.85 -25.6 -1.65 -25.8 -1.45 -25.25 -1.15 -24.7 -0.85 -22.55" fill="url(#gradient45)" fill-rule="evenodd" stroke="none"/>
    <path d="M-1.7 -19.55 L-0.9 -18.45 -0.65 -18.5 -1.05 -17.3 Q-1.55 -16.65 -2.3 -17.1 L-3.8 -18.35 -2.75 -18.65 -1.7 -19.55" fill="url(#gradient46)" fill-rule="evenodd" stroke="none"/>
    <path d="M2.55 -14.65 L2.7 -14.2 3.3 -13.1 5.0 -11.65 Q0.45 -9.65 -0.4 -10.45 L-0.7 -10.6 0.3 -14.2 0.75 -15.35 2.55 -14.65" fill="url(#gradient47)" fill-rule="evenodd" stroke="none"/>
    <path d="M0.75 -15.35 L0.3 -14.2 -0.7 -10.6 -1.05 -10.25 -1.85 -9.75 -2.3 -10.4 -1.0 -14.2 -0.85 -15.3 -1.0 -16.35 0.75 -15.35 M-5.65 -18.15 L-5.85 -17.55 -6.15 -15.0 -5.6 -12.95 -5.65 -11.25 -6.05 -11.1 -7.7 -12.6 -7.65 -13.05 -8.0 -13.45 -7.8 -14.2 Q-6.95 -18.5 -7.5 -20.9 L-6.7 -19.25 -5.65 -18.15 M-7.8 -22.35 L-8.05 -22.25 -8.0 -22.4 -7.9 -22.5 -7.8 -22.35" fill="url(#gradient48)" fill-rule="evenodd" stroke="none"/>
    <path d="M-4.3 -18.4 L-3.95 -18.4 -3.8 -18.35 -2.3 -17.1 Q-1.55 -16.65 -1.05 -17.3 L-1.0 -16.35 -0.85 -15.3 -1.0 -14.2 -2.3 -10.4 -2.4 -10.05 -3.55 -9.4 -5.3 -9.95 -5.65 -10.3 -5.65 -11.25 -5.6 -12.95 -6.15 -15.0 -5.85 -17.55 -5.65 -18.15 -5.4 -18.0 -4.3 -18.4" fill="url(#gradient49)" fill-rule="evenodd" stroke="none"/>
    <path d="M5.0 -11.65 L6.95 -12.35 7.9 -13.4 Q10.2 -4.8 5.35 -2.2 L1.6 -5.05 0.15 -8.4 -0.4 -10.45 Q0.45 -9.65 5.0 -11.65" fill="url(#gradient50)" fill-rule="evenodd" stroke="none"/>
    <path d="M8.2 -14.45 Q13.35 -7.45 12.15 -1.45 L11.8 -0.65 10.4 0.5 6.25 -1.6 5.35 -2.2 Q10.2 -4.8 7.9 -13.4 L8.1 -14.2 8.2 -14.45" fill="url(#gradient51)" fill-rule="evenodd" stroke="none"/>
    <path d="M-0.7 -10.6 L-0.4 -10.45 0.15 -8.4 1.6 -5.05 0.5 -5.85 -1.05 -8.7 -1.2 -9.25 -1.05 -10.25 -0.7 -10.6" fill="url(#gradient52)" fill-rule="evenodd" stroke="none"/>
    <path d="M13.35 1.4 Q14.55 2.6 22.45 2.0 L29.8 -0.65 29.95 0.0 30.55 0.5 23.15 3.9 14.65 4.35 14.45 4.15 14.35 4.1 10.45 3.4 7.1 1.8 Q0.4 -1.65 -1.05 -4.2 L-0.75 -5.05 -0.2 -5.85 0.2 -6.1 0.5 -5.85 1.6 -5.05 5.35 -2.2 6.25 -1.6 10.4 0.5 11.05 0.85 13.35 1.4" fill="url(#gradient53)" fill-rule="evenodd" stroke="none"/>
    <path d="M-1.05 -4.2 L-2.8 -5.75 -3.05 -6.05 -2.25 -7.3 -2.0 -7.45 -1.85 -7.35 -0.2 -5.85 -0.75 -5.05 -1.05 -4.2 M-7.7 -12.6 L-6.05 -11.1 -6.8 -10.45 -7.25 -9.7 -8.65 -10.95 -8.75 -11.1 Q-8.8 -12.65 -7.7 -12.6" fill="url(#gradient54)" fill-rule="evenodd" stroke="none"/>
    <path d="M12.15 -1.45 L13.35 1.4 11.05 0.85 10.4 0.5 11.8 -0.65 12.15 -1.45 M14.35 4.1 L11.55 6.05 Q10.6 6.85 10.75 7.3 L9.75 7.2 9.05 6.65 7.1 1.8 10.45 3.4 14.35 4.1" fill="url(#gradient55)" fill-rule="evenodd" stroke="none"/>
    <path d="M29.8 -0.65 L30.35 -0.2 30.55 0.5 29.95 0.0 29.8 -0.65" fill="url(#gradient56)" fill-rule="evenodd" stroke="none"/>
    <path d="M14.65 4.35 L15.15 4.95 15.15 5.2 14.6 5.95 12.05 7.75 Q11.2 8.35 9.65 8.4 L9.05 7.2 9.05 6.65 9.75 7.2 10.75 7.3 Q10.6 6.85 11.55 6.05 L14.35 4.1 14.45 4.15 14.65 4.35" fill="url(#gradient57)" fill-rule="evenodd" stroke="none"/>
    <path d="M9.65 8.4 Q7.25 9.25 5.35 5.75 5.05 1.9 7.1 1.8 L9.05 6.65 9.05 7.2 9.65 8.4" fill="url(#gradient58)" fill-rule="evenodd" stroke="none"/>
    <path d="M-10.65 -51.4 L-10.7 -51.4 -10.9 -51.35 -10.95 -51.35 -11.1 -51.3 -11.2 -51.3 -11.3 -51.25 -11.4 -51.25 -11.5 -51.2 -11.85 -51.2 -7.65 -54.3 -6.95 -53.3 -7.6 -52.45 -7.65 -52.4 -8.3 -52.1 -8.35 -52.05 -8.4 -52.05 -8.6 -52.05 -10.65 -51.4" fill="url(#gradient59)" fill-rule="evenodd" stroke="none"/>
    <path d="M-4.2 -55.05 L-3.5 -54.75 -3.5 -54.45 -3.5 -54.2 -4.25 -53.75 -4.2 -55.05" fill="url(#gradient60)" fill-rule="evenodd" stroke="none"/>
    <path d="M-7.65 -54.3 L-6.85 -54.2 -6.7 -54.0 -5.85 -52.55 -5.75 -52.35 -5.85 -52.05 -6.0 -52.0 -6.05 -52.05 -6.95 -53.3 -7.65 -54.3" fill="url(#gradient61)" fill-rule="evenodd" stroke="none"/>
    <path d="M-7.3 -50.85 L-12.25 -49.95 -8.7 -51.9 -8.65 -51.9 -8.6 -51.95 -8.4 -52.05 -8.35 -52.05 -8.3 -52.1 -7.65 -52.4 -7.6 -52.45 -7.05 -52.7 -6.4 -52.05 -6.2 -51.85 -7.3 -50.9 -7.3 -50.85" fill="url(#gradient62)" fill-rule="evenodd" stroke="none"/>
    <path d="M-7.05 -52.7 L-6.25 -52.05 -6.1 -51.85 -6.2 -51.85 -6.4 -52.05 -7.05 -52.7" fill="url(#gradient63)" fill-rule="evenodd" stroke="none"/>
    <path d="M-6.1 -51.85 L-6.25 -52.05 -7.05 -52.7 -7.6 -52.45 -6.95 -53.3 -6.05 -52.05 -6.0 -52.0 -6.05 -51.7 -6.1 -51.85" fill="url(#gradient64)" fill-rule="evenodd" stroke="none"/>
    <path d="M-7.15 -50.65 L-7.3 -50.85 -7.3 -50.9 -6.2 -51.85 -6.1 -51.85 -6.05 -51.7 -5.9 -51.35 -6.1 -50.95 -7.15 -50.65" fill="url(#gradient65)" fill-rule="evenodd" stroke="none"/>
    <path d="M-8.7 -51.9 L-10.65 -51.4 -8.6 -52.05 -8.4 -52.05 -8.6 -51.95 -8.65 -51.9 -8.7 -51.9" fill="url(#gradient66)" fill-rule="evenodd" stroke="none"/>
    <path d="M-7.5 -46.9 L-7.5 -47.0 -7.55 -47.05 -8.75 -49.5 -8.7 -49.85 -8.35 -50.2 -8.1 -50.25 -7.5 -49.4 -7.45 -49.4 -7.2 -48.1 -7.2 -47.95 -7.15 -47.7 -7.1 -46.35 -7.25 -46.5 -7.5 -46.9" fill="url(#gradient67)" fill-rule="evenodd" stroke="none"/>
    <path d="M-8.1 -50.25 L-7.15 -50.65 -6.1 -50.95 -6.15 -50.5 -6.4 -50.25 -7.15 -49.6 -7.3 -49.4 -7.45 -49.4 -7.5 -49.4 -8.1 -50.25" fill="url(#gradient68)" fill-rule="evenodd" stroke="none"/>
    <path d="M-7.45 -49.4 L-7.3 -49.4 -7.2 -48.1 -7.45 -49.4" fill="url(#gradient69)" fill-rule="evenodd" stroke="none"/>
    <path d="M-3.5 -54.45 L-2.65 -55.0 -2.75 -54.3 -3.5 -54.2 -3.5 -54.45" fill="url(#gradient70)" fill-rule="evenodd" stroke="none"/>
    <path d="M-2.65 -55.0 L-1.85 -54.45 -2.75 -54.3 -2.65 -55.0" fill="url(#gradient71)" fill-rule="evenodd" stroke="none"/>
    <path d="M-5.4 -53.6 L-9.1 -56.45 -4.2 -55.05 -4.25 -53.75 -4.3 -53.6 -5.4 -53.6" fill="url(#gradient72)" fill-rule="evenodd" stroke="none"/>
    <path d="M-5.2 -53.1 L-5.4 -53.6 -4.3 -53.6 -5.2 -53.1" fill="url(#gradient73)" fill-rule="evenodd" stroke="none"/>
    <path d="M-3.05 -43.05 L-3.95 -43.25 -4.7 -43.8 -2.95 -43.25 -3.05 -43.05" fill="url(#gradient74)" fill-rule="evenodd" stroke="none"/>
    <path d="M-4.65 -40.35 L-3.9 -41.65 -3.15 -42.5 -3.0 -42.65 -2.95 -42.45 -3.7 -40.75 -3.7 -40.7 -4.65 -40.35" fill="url(#gradient75)" fill-rule="evenodd" stroke="none"/>
    <path d="M-7.35 -46.55 L-7.35 -46.65 -7.45 -46.7 -7.5 -46.9 -7.25 -46.5 -7.35 -46.55" fill="url(#gradient76)" fill-rule="evenodd" stroke="none"/>
    <path d="M-2.65 -41.8 L-3.45 -40.7 -3.7 -40.7 -3.7 -40.75 -2.9 -42.2 -2.65 -41.8" fill="url(#gradient77)" fill-rule="evenodd" stroke="none"/>
    <path d="M-8.0 -32.5 L-8.0 -32.8 -7.8 -32.75 -8.0 -32.5 M-8.0 -33.95 Q-7.25 -38.95 -4.65 -40.35 L-3.7 -40.7 -3.45 -40.7 -3.85 -39.45 -4.25 -37.05 Q-6.8 -36.55 -8.0 -33.95" fill="url(#gradient78)" fill-rule="evenodd" stroke="none"/>
    <path d="M-8.0 -32.8 L-8.3 -33.2 -7.7 -33.1 -7.8 -32.75 -8.0 -32.8" fill="url(#gradient79)" fill-rule="evenodd" stroke="none"/>
    <path d="M-8.3 -33.2 L-8.0 -33.95 Q-6.8 -36.55 -4.25 -37.05 3.65 -35.4 0.85 -29.8 L-2.8 -31.55 -7.7 -33.1 -8.3 -33.2" fill="url(#gradient80)" fill-rule="evenodd" stroke="none"/>
    <path d="M-7.9 -24.6 L-7.6 -26.3 -7.3 -26.85 -6.45 -25.9 Q-8.7 -21.15 -4.3 -18.4 L-5.4 -18.0 -5.65 -18.15 -6.7 -19.25 -7.5 -20.9 -7.8 -22.35 -7.9 -22.5 -7.9 -24.6 M-1.45 -25.25 L-1.65 -25.8 -1.55 -25.85 -1.45 -25.25" fill="url(#gradient81)" fill-rule="evenodd" stroke="none"/>
    <path d="M-11.65 -18.25 L-11.65 -18.35 -11.55 -18.4 Q-10.55 -22.7 -7.9 -24.6 L-7.9 -22.5 -8.0 -22.4 -8.05 -22.25 -7.8 -22.35 -7.5 -20.9 Q-6.95 -18.5 -7.8 -14.2 L-8.0 -13.45 -11.7 -17.3 -11.65 -18.25" fill="url(#gradient82)" fill-rule="evenodd" stroke="none"/>
    <path d="M-12.2 -14.15 Q-22.75 -26.35 -21.35 -42.5 L-20.5 -42.35 Q-19.9 -25.45 -11.85 -17.5 L-11.7 -17.3 -8.0 -13.45 -7.65 -13.05 Q-8.75 -12.7 -9.2 -11.05 L-12.2 -14.15" fill="url(#gradient83)" fill-rule="evenodd" stroke="none"/>
    <path d="M-7.65 -13.05 L-7.7 -12.6 Q-8.8 -12.65 -8.75 -11.1 L-8.95 -10.95 -9.2 -10.95 -9.2 -11.05 Q-8.75 -12.7 -7.65 -13.05" fill="url(#gradient84)" fill-rule="evenodd" stroke="none"/>
    <path d="M-11.9 -12.1 L-12.2 -14.15 -9.2 -11.05 -9.2 -10.95 Q-10.4 -10.95 -10.6 -11.3 L-10.9 -11.2 -11.1 -11.45 -11.45 -11.4 -11.85 -11.95 -11.9 -12.1 M-11.85 -17.5 L-11.65 -18.25 -11.7 -17.3 -11.85 -17.5 M-8.65 -10.95 L-8.95 -10.95 -8.75 -11.1 -8.65 -10.95" fill="url(#gradient85)" fill-rule="evenodd" stroke="none"/>
    <path d="M-11.65 -7.5 L-11.95 -9.55 -11.9 -11.95 -11.85 -11.95 -11.45 -11.4 -11.1 -11.45 -10.9 -11.2 -10.6 -11.3 Q-10.4 -10.95 -9.2 -10.95 L-8.95 -10.95 -8.65 -10.95 -7.25 -9.7 Q-8.0 -7.85 -6.5 -6.3 -9.6 -4.0 -11.65 -7.5" fill="url(#gradient86)" fill-rule="evenodd" stroke="none"/>
    <path d="M-11.9 -11.95 L-11.9 -12.1 -11.85 -11.95 -11.9 -11.95" fill="url(#gradient87)" fill-rule="evenodd" stroke="none"/>
    <path d="M-11.7 0.5 Q-14.45 -0.05 -15.0 -3.1 -14.3 -6.45 -11.5 -6.1 L-11.0 -4.15 -11.1 -3.25 -11.3 -3.2 -11.7 -1.6 -11.55 -0.1 -11.7 0.5" fill="url(#gradient88)" fill-rule="evenodd" stroke="none"/>
    <path d="M-2.8 -5.75 L-3.75 -4.25 -5.35 -2.75 Q-8.45 -0.45 -11.0 -4.15 L-11.5 -6.1 -11.65 -7.5 Q-9.6 -4.0 -6.5 -6.3 -4.55 -5.1 -3.05 -6.05 L-2.8 -5.75" fill="url(#gradient89)" fill-rule="evenodd" stroke="none"/>
    <path d="M-5.75 -0.5 Q-6.7 4.3 -11.7 0.5 L-11.55 -0.1 -11.7 -1.6 -11.3 -3.2 -11.1 -3.25 -11.35 -1.6 Q-10.8 3.95 -5.75 -0.5" fill="url(#gradient90)" fill-rule="evenodd" stroke="none"/>
    <path d="M-1.85 -9.75 L-1.05 -10.25 -1.2 -9.25 -1.05 -8.7 -1.75 -7.5 -1.6 -8.95 -1.85 -9.75" fill="url(#gradient91)" fill-rule="evenodd" stroke="none"/>
    <path d="M-2.3 -10.4 L-1.85 -9.75 -1.6 -8.95 -1.75 -7.5 -1.85 -7.35 -2.0 -7.45 -2.25 -7.3 -3.05 -6.05 Q-4.55 -5.1 -6.5 -6.3 -8.0 -7.85 -7.25 -9.7 L-6.8 -10.45 -6.05 -11.1 -5.65 -11.25 -5.65 -10.3 -5.3 -9.95 -3.55 -9.4 -2.4 -10.05 -2.3 -10.4" fill="url(#gradient92)" fill-rule="evenodd" stroke="none"/>
    <path d="M-5.35 -2.75 L-5.75 -0.5 Q-10.8 3.95 -11.35 -1.6 L-11.1 -3.25 -11.0 -4.15 Q-8.45 -0.45 -5.35 -2.75" fill="url(#gradient93)" fill-rule="evenodd" stroke="none"/>
  </g>
  <defs>
    <radialGradient cx="0" cy="0" gradientTransform="matrix(0.0045, 0.0, 0.0, 0.0045, -1.2, -51.2)" gradientUnits="userSpaceOnUse" id="gradient0" r="819.2" spreadMethod="pad">
      <stop offset="0.0" stop-color="#ff9400"/>
      <stop offset="1.0" stop-color="#fe8300"/>
    </radialGradient>
    <radialGradient cx="0" cy="0" gradientTransform="matrix(0.0077, 0.0, 0.0, 0.0077, -0.55, -49.8)" gradientUnits="userSpaceOnUse" id="gradient1" r="819.2" spreadMethod="pad">
      <stop offset="0.0" stop-color="#ffd200"/>
      <stop offset="1.0" stop-color="#ff8c00"/>
    </radialGradient>
    <radialGradient cx="0" cy="0" gradientTransform="matrix(0.0107, 0.0, 0.0, 0.0107, -4.25, -46.3)" gradientUnits="userSpaceOnUse" id="gradient2" r="819.2" spreadMethod="pad">
      <stop offset="0.0" stop-color="#d6cba5"/>
      <stop offset="1.0" stop-color="#d2c8a2"/>
    </radialGradient>
    <radialGradient cx="0" cy="0" gradientTransform="matrix(0.0033, 0.0, 0.0, 0.0033, -1.5, -53.95)" gradientUnits="userSpaceOnUse" id="gradient3" r="819.2" spreadMethod="pad">
      <stop offset="0.0" stop-color="#ff9d00"/>
      <stop offset="1.0" stop-color="#d96d00"/>
    </radialGradient>
    <radialGradient cx="0" cy="0" gradientTransform="matrix(0.0094, 0.0, 0.0, 0.0094, 11.25, -51.45)" gradientUnits="userSpaceOnUse" id="gradient4" r="819.2" spreadMethod="pad">
      <stop offset="0.0" stop-color="#202020"/>
      <stop offset="1.0" stop-color="#202020"/>
    </radialGradient>
    <radialGradient cx="0" cy="0" gradientTransform="matrix(0.0049, 0.0, 0.0, 0.0049, 12.2, -55.35)" gradientUnits="userSpaceOnUse" id="gradient5" r="819.2" spreadMethod="pad">
      <stop offset="0.0" stop-color="#202020"/>
      <stop offset="1.0" stop-color="#202020"/>
    </radialGradient>
    <radialGradient cx="0" cy="0" gradientTransform="matrix(0.0048, 0.0, 0.0, 0.0048, 10.65, -55.95)" gradientUnits="userSpaceOnUse" id="gradient6" r="819.2" spreadMethod="pad">
      <stop offset="0.0" stop-color="#202020"/>
      <stop offset="1.0" stop-color="#202020"/>
    </radialGradient>
    <radialGradient cx="0" cy="0" gradientTransform="matrix(5.0E-4, 0.0, 0.0, 5.0E-4, 10.6, -56.4)" gradientUnits="userSpaceOnUse" id="gradient7" r="819.2" spreadMethod="pad">
      <stop offset="0.0" stop-color="#753b00"/>
      <stop offset="1.0" stop-color="#753b00"/>
    </radialGradient>
    <radialGradient cx="0" cy="0" gradientTransform="matrix(0.008, 0.0, 0.0, 0.008, 9.85, -52.05)" gradientUnits="userSpaceOnUse" id="gradient8" r="819.2" spreadMethod="pad">
      <stop offset="0.0" stop-color="#202020"/>
      <stop offset="1.0" stop-color="#202020"/>
    </radialGradient>
    <radialGradient cx="0" cy="0" gradientTransform="matrix(0.0262, 0.0, 0.0, 0.0262, 10.75, -56.2)" gradientUnits="userSpaceOnUse" id="gradient9" r="819.2" spreadMethod="pad">
      <stop offset="0.0" stop-color="#b95d00"/>
      <stop offset="1.0" stop-color="#9c4e00"/>
    </radialGradient>
    <radialGradient cx="0" cy="0" gradientTransform="matrix(6.0E-4, 0.0, 0.0, 6.0E-4, 12.1, -55.7)" gradientUnits="userSpaceOnUse" id="gradient10" r="819.2" spreadMethod="pad">
      <stop offset="0.0" stop-color="#653300"/>
      <stop offset="1.0" stop-color="#653300"/>
    </radialGradient>
    <radialGradient cx="0" cy="0" gradientTransform="matrix(0.0184, 0.0, 0.0, 0.0184, 12.35, -55.65)" gradientUnits="userSpaceOnUse" id="gradient11" r="819.2" spreadMethod="pad">
      <stop offset="0.0" stop-color="#c56200"/>
      <stop offset="1.0" stop-color="#a35200"/>
    </radialGradient>
    <radialGradient cx="0" cy="0" gradientTransform="matrix(0.0037, 0.0, 0.0, 0.0037, 7.3, -40.8)" gradientUnits="userSpaceOnUse" id="gradient12" r="819.2" spreadMethod="pad">
      <stop offset="0.0" stop-color="#804000"/>
      <stop offset="1.0" stop-color="#7f3f00"/>
    </radialGradient>
    <radialGradient cx="0" cy="0" gradientTransform="matrix(0.0076, 0.0, 0.0, 0.0076, 6.25, -44.4)" gradientUnits="userSpaceOnUse" id="gradient13" r="819.2" spreadMethod="pad">
      <stop offset="0.0" stop-color="#ff3a3a"/>
      <stop offset="1.0" stop-color="#9a2222"/>
    </radialGradient>
    <radialGradient cx="0" cy="0" gradientTransform="matrix(0.0265, 0.0, 0.0, 0.0265, 7.3, -40.8)" gradientUnits="userSpaceOnUse" id="gradient14" r="819.2" spreadMethod="pad">
      <stop offset="0.0" stop-color="#b55b00"/>
      <stop offset="1.0" stop-color="#854200"/>
    </radialGradient>
    <radialGradient cx="0" cy="0" gradientTransform="matrix(0.014, 0.0, 0.0, 0.014, 0.3, -34.9)" gradientUnits="userSpaceOnUse" id="gradient15" r="819.2" spreadMethod="pad">
      <stop offset="0.0" stop-color="#fffbcc"/>
      <stop offset="1.0" stop-color="#938c71"/>
    </radialGradient>
    <radialGradient cx="0" cy="0" gradientTransform="matrix(0.0036, 0.0, 0.0, 0.0036, 9.75, -40.65)" gradientUnits="userSpaceOnUse" id="gradient16" r="819.2" spreadMethod="pad">
      <stop offset="0.0" stop-color="#ffbf6f"/>
      <stop offset="1.0" stop-color="#a37343"/>
    </radialGradient>
    <radialGradient cx="0" cy="0" gradientTransform="matrix(0.0035, 0.0, 0.0, 0.0035, 9.3, -38.25)" gradientUnits="userSpaceOnUse" id="gradient17" r="819.2" spreadMethod="pad">
      <stop offset="0.0" stop-color="#ffe887"/>
      <stop offset="1.0" stop-color="#9b6d3f"/>
    </radialGradient>
    <radialGradient cx="0" cy="0" gradientTransform="matrix(0.0024, 0.0, 0.0, 0.0024, 9.35, -38.1)" gradientUnits="userSpaceOnUse" id="gradient18" r="819.2" spreadMethod="pad">
      <stop offset="0.0" stop-color="#c0884f"/>
      <stop offset="1.0" stop-color="#8b6239"/>
    </radialGradient>
    <radialGradient cx="0" cy="0" gradientTransform="matrix(0.0218, 0.0, 0.0, 0.0218, 6.6, -41.8)" gradientUnits="userSpaceOnUse" id="gradient19" r="819.2" spreadMethod="pad">
      <stop offset="0.0" stop-color="#693c1f"/>
      <stop offset="1.0" stop-color="#361e10"/>
    </radialGradient>
    <radialGradient cx="0" cy="0" gradientTransform="matrix(0.008, 0.0, 0.0, 0.008, -2.4, -45.7)" gradientUnits="userSpaceOnUse" id="gradient20" r="819.2" spreadMethod="pad">
      <stop offset="0.0" stop-color="#aea586"/>
      <stop offset="1.0" stop-color="#9d9579"/>
    </radialGradient>
    <radialGradient cx="0" cy="0" gradientTransform="matrix(0.0045, 0.0, 0.0, 0.0045, 0.3, -43.8)" gradientUnits="userSpaceOnUse" id="gradient21" r="819.2" spreadMethod="pad">
      <stop offset="0.0" stop-color="#ffd97e"/>
      <stop offset="1.0" stop-color="#bb844c"/>
    </radialGradient>
    <radialGradient cx="0" cy="0" gradientTransform="matrix(0.0062, 0.0, 0.0, 0.0062, 8.95, -37.45)" gradientUnits="userSpaceOnUse" id="gradient22" r="819.2" spreadMethod="pad">
      <stop offset="0.0" stop-color="#3f2412"/>
      <stop offset="1.0" stop-color="#0e0804"/>
    </radialGradient>
    <radialGradient cx="0" cy="0" gradientTransform="matrix(0.0042, 0.0, 0.0, 0.0042, 6.05, -35.6)" gradientUnits="userSpaceOnUse" id="gradient23" r="819.2" spreadMethod="pad">
      <stop offset="0.0" stop-color="#65391d"/>
      <stop offset="1.0" stop-color="#472814"/>
    </radialGradient>
    <radialGradient cx="0" cy="0" gradientTransform="matrix(0.0019, 0.0, 0.0, 0.0019, 8.25, -36.65)" gradientUnits="userSpaceOnUse" id="gradient24" r="819.2" spreadMethod="pad">
      <stop offset="0.0" stop-color="#0e0804"/>
      <stop offset="1.0" stop-color="#0e0804"/>
    </radialGradient>
    <radialGradient cx="0" cy="0" gradientTransform="matrix(0.0033, 0.0, 0.0, 0.0033, 6.7, -39.55)" gradientUnits="userSpaceOnUse" id="gradient25" r="819.2" spreadMethod="pad">
      <stop offset="0.0" stop-color="#c0b694"/>
      <stop offset="1.0" stop-color="#bfb593"/>
    </radialGradient>
    <radialGradient cx="0" cy="0" gradientTransform="matrix(0.0032, 0.0, 0.0, 0.0032, 8.65, -35.9)" gradientUnits="userSpaceOnUse" id="gradient26" r="819.2" spreadMethod="pad">
      <stop offset="0.0" stop-color="#3f3b2e"/>
      <stop offset="1.0" stop-color="#312e24"/>
    </radialGradient>
    <radialGradient cx="0" cy="0" gradientTransform="matrix(9.0E-4, 0.0, 0.0, 9.0E-4, 8.7, -35.8)" gradientUnits="userSpaceOnUse" id="gradient27" r="819.2" spreadMethod="pad">
      <stop offset="0.0" stop-color="#9b6d40"/>
      <stop offset="1.0" stop-color="#7b5732"/>
    </radialGradient>
    <radialGradient cx="0" cy="0" gradientTransform="matrix(0.001, 0.0, 0.0, 0.001, 8.0, -33.65)" gradientUnits="userSpaceOnUse" id="gradient28" r="819.2" spreadMethod="pad">
      <stop offset="0.0" stop-color="#3f2412"/>
      <stop offset="1.0" stop-color="#0e0804"/>
    </radialGradient>
    <radialGradient cx="0" cy="0" gradientTransform="matrix(0.0024, 0.0, 0.0, 0.0024, 7.8, -34.05)" gradientUnits="userSpaceOnUse" id="gradient29" r="819.2" spreadMethod="pad">
      <stop offset="0.0" stop-color="#432613"/>
      <stop offset="1.0" stop-color="#2f1b0d"/>
    </radialGradient>
    <radialGradient cx="0" cy="0" gradientTransform="matrix(0.0042, 0.0, 0.0, 0.0042, 5.1, -31.75)" gradientUnits="userSpaceOnUse" id="gradient30" r="819.2" spreadMethod="pad">
      <stop offset="0.0" stop-color="#64391d"/>
      <stop offset="1.0" stop-color="#492915"/>
    </radialGradient>
    <radialGradient cx="0" cy="0" gradientTransform="matrix(0.0015, 0.0, 0.0, 0.0015, 2.95, -28.55)" gradientUnits="userSpaceOnUse" id="gradient31" r="819.2" spreadMethod="pad">
      <stop offset="0.0" stop-color="#341e0f"/>
      <stop offset="1.0" stop-color="#311c0e"/>
    </radialGradient>
    <radialGradient cx="0" cy="0" gradientTransform="matrix(0.0042, 0.0, 0.0, 0.0042, 1.75, -26.45)" gradientUnits="userSpaceOnUse" id="gradient32" r="819.2" spreadMethod="pad">
      <stop offset="0.0" stop-color="#0e0804"/>
      <stop offset="1.0" stop-color="#0e0804"/>
    </radialGradient>
    <radialGradient cx="0" cy="0" gradientTransform="matrix(0.0085, 0.0, 0.0, 0.0085, 2.1, -27.7)" gradientUnits="userSpaceOnUse" id="gradient33" r="819.2" spreadMethod="pad">
      <stop offset="0.0" stop-color="#ffffd5"/>
      <stop offset="1.0" stop-color="#ded3ab"/>
    </radialGradient>
    <radialGradient cx="0" cy="0" gradientTransform="matrix(0.0055, 0.0, 0.0, 0.0055, -1.1, -26.0)" gradientUnits="userSpaceOnUse" id="gradient34" r="819.2" spreadMethod="pad">
      <stop offset="0.0" stop-color="#2d1a0d"/>
      <stop offset="1.0" stop-color="#26160b"/>
    </radialGradient>
    <radialGradient cx="0" cy="0" gradientTransform="matrix(0.0101, 0.0, 0.0, 0.0101, -3.0, -33.2)" gradientUnits="userSpaceOnUse" id="gradient35" r="819.2" spreadMethod="pad">
      <stop offset="0.0" stop-color="#ffe083"/>
      <stop offset="1.0" stop-color="#aa7746"/>
    </radialGradient>
    <radialGradient cx="0" cy="0" gradientTransform="matrix(0.0042, 0.0, 0.0, 0.0042, -1.1, -25.9)" gradientUnits="userSpaceOnUse" id="gradient36" r="819.2" spreadMethod="pad">
      <stop offset="0.0" stop-color="#ffffd4"/>
      <stop offset="1.0" stop-color="#aea486"/>
    </radialGradient>
    <radialGradient cx="0" cy="0" gradientTransform="matrix(0.0061, 0.0, 0.0, 0.0061, -1.9, -25.8)" gradientUnits="userSpaceOnUse" id="gradient37" r="819.2" spreadMethod="pad">
      <stop offset="0.0" stop-color="#ffe082"/>
      <stop offset="1.0" stop-color="#c1884f"/>
    </radialGradient>
    <radialGradient cx="0" cy="0" gradientTransform="matrix(0.0062, 0.0, 0.0, 0.0062, 0.3, -24.55)" gradientUnits="userSpaceOnUse" id="gradient38" r="819.2" spreadMethod="pad">
      <stop offset="0.0" stop-color="#734122"/>
      <stop offset="1.0" stop-color="#6a3d1f"/>
    </radialGradient>
    <radialGradient cx="0" cy="0" gradientTransform="matrix(0.0019, 0.0, 0.0, 0.0019, 6.65, -26.65)" gradientUnits="userSpaceOnUse" id="gradient39" r="819.2" spreadMethod="pad">
      <stop offset="0.0" stop-color="#d5cba5"/>
      <stop offset="1.0" stop-color="#aea585"/>
    </radialGradient>
    <radialGradient cx="0" cy="0" gradientTransform="matrix(0.0155, 0.0, 0.0, 0.0155, 6.8, -26.4)" gradientUnits="userSpaceOnUse" id="gradient40" r="819.2" spreadMethod="pad">
      <stop offset="0.0" stop-color="#fff9cb"/>
      <stop offset="1.0" stop-color="#b3ab8a"/>
    </radialGradient>
    <radialGradient cx="0" cy="0" gradientTransform="matrix(0.0017, 0.0, 0.0, 0.0017, 6.8, -26.4)" gradientUnits="userSpaceOnUse" id="gradient41" r="819.2" spreadMethod="pad">
      <stop offset="0.0" stop-color="#fff9cb"/>
      <stop offset="1.0" stop-color="#eee1b7"/>
    </radialGradient>
    <radialGradient cx="0" cy="0" gradientTransform="matrix(0.0029, 0.0, 0.0, 0.0029, 7.15, -25.0)" gradientUnits="userSpaceOnUse" id="gradient42" r="819.2" spreadMethod="pad">
      <stop offset="0.0" stop-color="#f8ecbf"/>
      <stop offset="1.0" stop-color="#d3c8a3"/>
    </radialGradient>
    <radialGradient cx="0" cy="0" gradientTransform="matrix(0.0122, 0.0, 0.0, 0.0122, 3.6, -15.95)" gradientUnits="userSpaceOnUse" id="gradient43" r="819.2" spreadMethod="pad">
      <stop offset="0.0" stop-color="#be2a2a"/>
      <stop offset="1.0" stop-color="#932020"/>
    </radialGradient>
    <radialGradient cx="0" cy="0" gradientTransform="matrix(0.0045, 0.0, 0.0, 0.0045, -1.1, -22.15)" gradientUnits="userSpaceOnUse" id="gradient44" r="819.2" spreadMethod="pad">
      <stop offset="0.0" stop-color="#ffe083"/>
      <stop offset="1.0" stop-color="#b17c48"/>
    </radialGradient>
    <radialGradient cx="0" cy="0" gradientTransform="matrix(0.0088, 0.0, 0.0, 0.0088, -3.45, -25.65)" gradientUnits="userSpaceOnUse" id="gradient45" r="819.2" spreadMethod="pad">
      <stop offset="0.0" stop-color="#ffe083"/>
      <stop offset="1.0" stop-color="#966a3e"/>
    </radialGradient>
    <radialGradient cx="0" cy="0" gradientTransform="matrix(0.0039, 0.0, 0.0, 0.0039, -1.65, -20.0)" gradientUnits="userSpaceOnUse" id="gradient46" r="819.2" spreadMethod="pad">
      <stop offset="0.0" stop-color="#ffd27a"/>
      <stop offset="1.0" stop-color="#b27d49"/>
    </radialGradient>
    <radialGradient cx="0" cy="0" gradientTransform="matrix(0.0105, 0.0, 0.0, 0.0105, 2.5, -18.0)" gradientUnits="userSpaceOnUse" id="gradient47" r="819.2" spreadMethod="pad">
      <stop offset="0.0" stop-color="#d93030"/>
      <stop offset="1.0" stop-color="#7f1c1c"/>
    </radialGradient>
    <radialGradient cx="0" cy="0" gradientTransform="matrix(0.0139, 0.0, 0.0, 0.0139, -5.05, -20.4)" gradientUnits="userSpaceOnUse" id="gradient48" r="819.2" spreadMethod="pad">
      <stop offset="0.0" stop-color="#dc3131"/>
      <stop offset="1.0" stop-color="#6c1818"/>
    </radialGradient>
    <radialGradient cx="0" cy="0" gradientTransform="matrix(0.0102, 0.0, 0.0, 0.0102, -3.05, -17.65)" gradientUnits="userSpaceOnUse" id="gradient49" r="819.2" spreadMethod="pad">
      <stop offset="0.0" stop-color="#66604a"/>
      <stop offset="1.0" stop-color="#322f25"/>
    </radialGradient>
    <radialGradient cx="0" cy="0" gradientTransform="matrix(0.0139, 0.0, 0.0, 0.0139, 4.3, -12.5)" gradientUnits="userSpaceOnUse" id="gradient50" r="819.2" spreadMethod="pad">
      <stop offset="0.0" stop-color="#ff3b3b"/>
      <stop offset="1.0" stop-color="#a92525"/>
    </radialGradient>
    <radialGradient cx="0" cy="0" gradientTransform="matrix(0.0116, 0.0, 0.0, 0.0116, 7.75, -8.2)" gradientUnits="userSpaceOnUse" id="gradient51" r="819.2" spreadMethod="pad">
      <stop offset="0.0" stop-color="#ef3535"/>
      <stop offset="1.0" stop-color="#982121"/>
    </radialGradient>
    <radialGradient cx="0" cy="0" gradientTransform="matrix(0.0086, 0.0, 0.0, 0.0086, -0.6, -11.85)" gradientUnits="userSpaceOnUse" id="gradient52" r="819.2" spreadMethod="pad">
      <stop offset="0.0" stop-color="#d12e2e"/>
      <stop offset="1.0" stop-color="#8b1f1f"/>
    </radialGradient>
    <radialGradient cx="0" cy="0" gradientTransform="matrix(0.0346, 0.0, 0.0, 0.0346, 2.45, -3.85)" gradientUnits="userSpaceOnUse" id="gradient53" r="819.2" spreadMethod="pad">
      <stop offset="0.0" stop-color="#d66b00"/>
      <stop offset="1.0" stop-color="#783c00"/>
    </radialGradient>
    <radialGradient cx="0" cy="0" gradientTransform="matrix(0.0148, 0.0, 0.0, 0.0148, 0.1, -5.0)" gradientUnits="userSpaceOnUse" id="gradient54" r="819.2" spreadMethod="pad">
      <stop offset="0.0" stop-color="#68614b"/>
      <stop offset="1.0" stop-color="#544e3d"/>
    </radialGradient>
    <radialGradient cx="0" cy="0" gradientTransform="matrix(0.0089, 0.0, 0.0, 0.0089, 9.6, 0.05)" gradientUnits="userSpaceOnUse" id="gradient55" r="819.2" spreadMethod="pad">
      <stop offset="0.0" stop-color="#704021"/>
      <stop offset="1.0" stop-color="#5b341a"/>
    </radialGradient>
    <radialGradient cx="0" cy="0" gradientTransform="matrix(0.0016, 0.0, 0.0, 0.0016, 30.45, 0.35)" gradientUnits="userSpaceOnUse" id="gradient56" r="819.2" spreadMethod="pad">
      <stop offset="0.0" stop-color="#984c00"/>
      <stop offset="1.0" stop-color="#984c00"/>
    </radialGradient>
    <radialGradient cx="0" cy="0" gradientTransform="matrix(0.0046, 0.0, 0.0, 0.0046, 12.3, 5.85)" gradientUnits="userSpaceOnUse" id="gradient57" r="819.2" spreadMethod="pad">
      <stop offset="0.0" stop-color="#736c54"/>
      <stop offset="1.0" stop-color="#443f31"/>
    </radialGradient>
    <radialGradient cx="0" cy="0" gradientTransform="matrix(0.0068, 0.0, 0.0, 0.0068, 7.4, 3.15)" gradientUnits="userSpaceOnUse" id="gradient58" r="819.2" spreadMethod="pad">
      <stop offset="0.0" stop-color="#635d48"/>
      <stop offset="1.0" stop-color="#4f4a39"/>
    </radialGradient>
    <radialGradient cx="0" cy="0" gradientTransform="matrix(0.0052, 0.0, 0.0, 0.0052, -7.85, -52.35)" gradientUnits="userSpaceOnUse" id="gradient59" r="819.2" spreadMethod="pad">
      <stop offset="0.0" stop-color="#ffa400"/>
      <stop offset="1.0" stop-color="#ff9a00"/>
    </radialGradient>
    <radialGradient cx="0" cy="0" gradientTransform="matrix(0.0059, 0.0, 0.0, 0.0059, -4.25, -55.15)" gradientUnits="userSpaceOnUse" id="gradient60" r="819.2" spreadMethod="pad">
      <stop offset="0.0" stop-color="#ff9400"/>
      <stop offset="1.0" stop-color="#ff8e00"/>
    </radialGradient>
    <radialGradient cx="0" cy="0" gradientTransform="matrix(0.0069, 0.0, 0.0, 0.0069, -4.5, -49.85)" gradientUnits="userSpaceOnUse" id="gradient61" r="819.2" spreadMethod="pad">
      <stop offset="0.0" stop-color="#ff8f00"/>
      <stop offset="1.0" stop-color="#f27900"/>
    </radialGradient>
    <radialGradient cx="0" cy="0" gradientTransform="matrix(0.0079, 0.0, 0.0, 0.0079, -12.45, -50.0)" gradientUnits="userSpaceOnUse" id="gradient62" r="819.2" spreadMethod="pad">
      <stop offset="0.0" stop-color="#ffd000"/>
      <stop offset="1.0" stop-color="#ffc300"/>
    </radialGradient>
    <radialGradient cx="0" cy="0" gradientTransform="matrix(0.0015, 0.0, 0.0, 0.0015, -7.15, -52.8)" gradientUnits="userSpaceOnUse" id="gradient63" r="819.2" spreadMethod="pad">
      <stop offset="0.0" stop-color="#c16100"/>
      <stop offset="1.0" stop-color="#bd5f00"/>
    </radialGradient>
    <radialGradient cx="0" cy="0" gradientTransform="matrix(0.0051, 0.0, 0.0, 0.0051, -7.85, -52.35)" gradientUnits="userSpaceOnUse" id="gradient64" r="819.2" spreadMethod="pad">
      <stop offset="0.0" stop-color="#ffa400"/>
      <stop offset="1.0" stop-color="#ff9c00"/>
    </radialGradient>
    <radialGradient cx="0" cy="0" gradientTransform="matrix(0.0037, 0.0, 0.0, 0.0037, -7.4, -51.0)" gradientUnits="userSpaceOnUse" id="gradient65" r="819.2" spreadMethod="pad">
      <stop offset="0.0" stop-color="#ffc100"/>
      <stop offset="1.0" stop-color="#ffa800"/>
    </radialGradient>
    <radialGradient cx="0" cy="0" gradientTransform="matrix(0.0052, 0.0, 0.0, 0.0052, -7.85, -52.35)" gradientUnits="userSpaceOnUse" id="gradient66" r="819.2" spreadMethod="pad">
      <stop offset="0.0" stop-color="#331a00"/>
      <stop offset="1.0" stop-color="#331a00"/>
    </radialGradient>
    <radialGradient cx="0" cy="0" gradientTransform="matrix(0.0046, 0.0, 0.0, 0.0046, -7.45, -49.5)" gradientUnits="userSpaceOnUse" id="gradient67" r="819.2" spreadMethod="pad">
      <stop offset="0.0" stop-color="#ffc400"/>
      <stop offset="1.0" stop-color="#ffb100"/>
    </radialGradient>
    <radialGradient cx="0" cy="0" gradientTransform="matrix(0.0033, 0.0, 0.0, 0.0033, -7.45, -49.5)" gradientUnits="userSpaceOnUse" id="gradient68" r="819.2" spreadMethod="pad">
      <stop offset="0.0" stop-color="#ffc400"/>
      <stop offset="1.0" stop-color="#ffbd00"/>
    </radialGradient>
    <radialGradient cx="0" cy="0" gradientTransform="matrix(0.0052, 0.0, 0.0, 0.0052, -6.9, -45.8)" gradientUnits="userSpaceOnUse" id="gradient69" r="819.2" spreadMethod="pad">
      <stop offset="0.0" stop-color="#ff8d00"/>
      <stop offset="1.0" stop-color="#f77c00"/>
    </radialGradient>
    <radialGradient cx="0" cy="0" gradientTransform="matrix(0.0022, 0.0, 0.0, 0.0022, -3.4, -53.65)" gradientUnits="userSpaceOnUse" id="gradient70" r="819.2" spreadMethod="pad">
      <stop offset="0.0" stop-color="#ff9000"/>
      <stop offset="1.0" stop-color="#fb7f00"/>
    </radialGradient>
    <radialGradient cx="0" cy="0" gradientTransform="matrix(0.0012, 0.0, 0.0, 0.0012, -2.85, -54.35)" gradientUnits="userSpaceOnUse" id="gradient71" r="819.2" spreadMethod="pad">
      <stop offset="0.0" stop-color="#ff9600"/>
      <stop offset="1.0" stop-color="#ff9500"/>
    </radialGradient>
    <radialGradient cx="0" cy="0" gradientTransform="matrix(0.007, 0.0, 0.0, 0.007, -9.25, -56.6)" gradientUnits="userSpaceOnUse" id="gradient72" r="819.2" spreadMethod="pad">
      <stop offset="0.0" stop-color="#ffaf00"/>
      <stop offset="1.0" stop-color="#ff9700"/>
    </radialGradient>
    <radialGradient cx="0" cy="0" gradientTransform="matrix(0.0045, 0.0, 0.0, 0.0045, -5.5, -53.75)" gradientUnits="userSpaceOnUse" id="gradient73" r="819.2" spreadMethod="pad">
      <stop offset="0.0" stop-color="#ff9400"/>
      <stop offset="1.0" stop-color="#ff8300"/>
    </radialGradient>
    <radialGradient cx="0" cy="0" gradientTransform="matrix(0.0025, 0.0, 0.0, 0.0025, -4.8, -44.2)" gradientUnits="userSpaceOnUse" id="gradient74" r="819.2" spreadMethod="pad">
      <stop offset="0.0" stop-color="#8a6139"/>
      <stop offset="1.0" stop-color="#49341e"/>
    </radialGradient>
    <radialGradient cx="0" cy="0" gradientTransform="matrix(0.0041, 0.0, 0.0, 0.0041, -3.3, -42.55)" gradientUnits="userSpaceOnUse" id="gradient75" r="819.2" spreadMethod="pad">
      <stop offset="0.0" stop-color="#351e0f"/>
      <stop offset="1.0" stop-color="#0e0804"/>
    </radialGradient>
    <radialGradient cx="0" cy="0" gradientTransform="matrix(0.0055, 0.0, 0.0, 0.0055, -8.85, -49.85)" gradientUnits="userSpaceOnUse" id="gradient76" r="819.2" spreadMethod="pad">
      <stop offset="0.0" stop-color="#331a00"/>
      <stop offset="1.0" stop-color="#331a00"/>
    </radialGradient>
    <radialGradient cx="0" cy="0" gradientTransform="matrix(0.0019, 0.0, 0.0, 0.0019, -2.65, -41.95)" gradientUnits="userSpaceOnUse" id="gradient77" r="819.2" spreadMethod="pad">
      <stop offset="0.0" stop-color="#aca385"/>
      <stop offset="1.0" stop-color="#918970"/>
    </radialGradient>
    <radialGradient cx="0" cy="0" gradientTransform="matrix(0.0072, 0.0, 0.0, 0.0072, -4.1, -36.7)" gradientUnits="userSpaceOnUse" id="gradient78" r="819.2" spreadMethod="pad">
      <stop offset="0.0" stop-color="#fffccd"/>
      <stop offset="1.0" stop-color="#8f876e"/>
    </radialGradient>
    <radialGradient cx="0" cy="0" gradientTransform="matrix(0.0041, 0.0, 0.0, 0.0041, -8.4, -33.3)" gradientUnits="userSpaceOnUse" id="gradient79" r="819.2" spreadMethod="pad">
      <stop offset="0.0" stop-color="#861e1e"/>
      <stop offset="1.0" stop-color="#330b0b"/>
    </radialGradient>
    <radialGradient cx="0" cy="0" gradientTransform="matrix(0.007, 0.0, 0.0, 0.007, -4.2, -32.1)" gradientUnits="userSpaceOnUse" id="gradient80" r="819.2" spreadMethod="pad">
      <stop offset="0.0" stop-color="#ff3939"/>
      <stop offset="1.0" stop-color="#a12323"/>
    </radialGradient>
    <radialGradient cx="0" cy="0" gradientTransform="matrix(0.0099, 0.0, 0.0, 0.0099, -2.05, -25.35)" gradientUnits="userSpaceOnUse" id="gradient81" r="819.2" spreadMethod="pad">
      <stop offset="0.0" stop-color="#ffc774"/>
      <stop offset="1.0" stop-color="#8f643a"/>
    </radialGradient>
    <radialGradient cx="0" cy="0" gradientTransform="matrix(0.0109, 0.0, 0.0, 0.0109, -7.2, -21.8)" gradientUnits="userSpaceOnUse" id="gradient82" r="819.2" spreadMethod="pad">
      <stop offset="0.0" stop-color="#e93434"/>
      <stop offset="1.0" stop-color="#8f2020"/>
    </radialGradient>
    <radialGradient cx="0" cy="0" gradientTransform="matrix(0.0314, 0.0, 0.0, 0.0314, -20.2, -34.35)" gradientUnits="userSpaceOnUse" id="gradient83" r="819.2" spreadMethod="pad">
      <stop offset="0.0" stop-color="#e57300"/>
      <stop offset="1.0" stop-color="#7f3f00"/>
    </radialGradient>
    <radialGradient cx="0" cy="0" gradientTransform="matrix(0.0016, 0.0, 0.0, 0.0016, -8.75, -12.25)" gradientUnits="userSpaceOnUse" id="gradient84" r="819.2" spreadMethod="pad">
      <stop offset="0.0" stop-color="#683400"/>
      <stop offset="1.0" stop-color="#673400"/>
    </radialGradient>
    <radialGradient cx="0" cy="0" gradientTransform="matrix(0.0083, 0.0, 0.0, 0.0083, -11.55, -16.2)" gradientUnits="userSpaceOnUse" id="gradient85" r="819.2" spreadMethod="pad">
      <stop offset="0.0" stop-color="#972121"/>
      <stop offset="1.0" stop-color="#791a1a"/>
    </radialGradient>
    <radialGradient cx="0" cy="0" gradientTransform="matrix(0.0076, 0.0, 0.0, 0.0076, -8.15, -11.0)" gradientUnits="userSpaceOnUse" id="gradient86" r="819.2" spreadMethod="pad">
      <stop offset="0.0" stop-color="#cd2d2d"/>
      <stop offset="1.0" stop-color="#751a1a"/>
    </radialGradient>
    <radialGradient cx="0" cy="0" gradientTransform="matrix(0.0067, 0.0, 0.0, 0.0067, -12.25, -14.5)" gradientUnits="userSpaceOnUse" id="gradient87" r="819.2" spreadMethod="pad">
      <stop offset="0.0" stop-color="#7b1b1b"/>
      <stop offset="1.0" stop-color="#531212"/>
    </radialGradient>
    <radialGradient cx="0" cy="0" gradientTransform="matrix(0.0059, 0.0, 0.0, 0.0059, -10.55, -2.15)" gradientUnits="userSpaceOnUse" id="gradient88" r="819.2" spreadMethod="pad">
      <stop offset="0.0" stop-color="#776f56"/>
      <stop offset="1.0" stop-color="#3f3b2e"/>
    </radialGradient>
    <radialGradient cx="0" cy="0" gradientTransform="matrix(0.0068, 0.0, 0.0, 0.0068, -7.2, -7.5)" gradientUnits="userSpaceOnUse" id="gradient89" r="819.2" spreadMethod="pad">
      <stop offset="0.0" stop-color="#b42828"/>
      <stop offset="1.0" stop-color="#541313"/>
    </radialGradient>
    <radialGradient cx="0" cy="0" gradientTransform="matrix(0.0061, 0.0, 0.0, 0.0061, -7.8, 0.15)" gradientUnits="userSpaceOnUse" id="gradient90" r="819.2" spreadMethod="pad">
      <stop offset="0.0" stop-color="#6a644d"/>
      <stop offset="1.0" stop-color="#464233"/>
    </radialGradient>
    <radialGradient cx="0" cy="0" gradientTransform="matrix(0.0047, 0.0, 0.0, 0.0047, -1.15, -10.6)" gradientUnits="userSpaceOnUse" id="gradient91" r="819.2" spreadMethod="pad">
      <stop offset="0.0" stop-color="#871e1e"/>
      <stop offset="1.0" stop-color="#6d1818"/>
    </radialGradient>
    <radialGradient cx="0" cy="0" gradientTransform="matrix(0.0041, 0.0, 0.0, 0.0041, -4.8, -9.05)" gradientUnits="userSpaceOnUse" id="gradient92" r="819.2" spreadMethod="pad">
      <stop offset="0.0" stop-color="#6d664f"/>
      <stop offset="1.0" stop-color="#343125"/>
    </radialGradient>
    <radialGradient cx="0" cy="0" gradientTransform="matrix(0.0051, 0.0, 0.0, 0.0051, -8.3, -2.4)" gradientUnits="userSpaceOnUse" id="gradient93" r="819.2" spreadMethod="pad">
      <stop offset="0.0" stop-color="#3e2412"/>
      <stop offset="1.0" stop-color="#351f10"/>
    </radialGradient>
  </defs>
</svg>
