<?xml version="1.0" encoding="UTF-8" standalone="no"?>
<svg xmlns:ffdec="https://www.free-decompiler.com/flash" xmlns:xlink="http://www.w3.org/1999/xlink" ffdec:objectType="shape" height="78.45px" width="64.2px" xmlns="http://www.w3.org/2000/svg">
  <g transform="matrix(1.0, 0.0, 0.0, 1.0, 39.65, 68.7)">
    <path d="M5.1 -60.75 L5.15 -60.5 4.8 -60.45 5.1 -60.75" fill="url(#gradient0)" fill-rule="evenodd" stroke="none"/>
    <path d="M5.6 -60.65 L5.15 -60.5 5.1 -60.75 5.2 -60.9 5.6 -60.65" fill="url(#gradient1)" fill-rule="evenodd" stroke="none"/>
    <path d="M5.15 -60.5 L5.6 -60.65 Q9.45 -62.5 12.2 -57.7 L12.75 -56.95 Q13.35 -55.4 9.55 -53.05 5.45 -51.75 2.4 -55.7 L2.65 -56.55 2.7 -57.05 2.45 -57.5 2.55 -57.8 2.75 -58.15 2.95 -58.45 3.8 -59.45 3.85 -59.65 4.35 -60.25 4.75 -60.4 4.8 -60.4 4.8 -60.45 5.15 -60.5" fill="url(#gradient2)" fill-rule="evenodd" stroke="none"/>
    <path d="M4.8 -60.45 L4.8 -60.4 4.75 -60.4 4.8 -60.45" fill="url(#gradient3)" fill-rule="evenodd" stroke="none"/>
    <path d="M3.85 -59.65 L3.8 -59.45 2.65 -59.05 2.55 -59.05 -1.85 -60.55 3.6 -60.8 3.85 -59.65" fill="url(#gradient4)" fill-rule="evenodd" stroke="none"/>
    <path d="M3.8 -59.45 L2.95 -58.45 2.55 -59.05 2.65 -59.05 3.8 -59.45" fill="url(#gradient5)" fill-rule="evenodd" stroke="none"/>
    <path d="M4.35 -60.25 L3.85 -59.65 3.6 -60.8 4.35 -60.55 4.35 -60.25" fill="url(#gradient6)" fill-rule="evenodd" stroke="none"/>
    <path d="M0.4 -59.5 L1.2 -58.8 0.8 -57.85 0.75 -57.8 -0.9 -56.35 Q-2.05 -55.65 -3.15 -54.9 L-3.35 -54.85 -3.3 -55.05 0.4 -59.5" fill="url(#gradient7)" fill-rule="evenodd" stroke="none"/>
    <path d="M2.55 -57.8 L2.45 -57.5 2.4 -57.55 2.25 -57.7 1.2 -58.8 0.4 -59.5 1.3 -59.3 2.45 -57.9 2.55 -57.8" fill="url(#gradient8)" fill-rule="evenodd" stroke="none"/>
    <path d="M2.45 -57.5 L2.7 -57.05 2.65 -56.55 1.55 -56.1 1.4 -56.2 1.4 -56.35 2.4 -57.55 2.45 -57.5" fill="url(#gradient9)" fill-rule="evenodd" stroke="none"/>
    <path d="M-0.9 -56.35 L0.75 -57.8 0.8 -57.85 1.3 -58.15 2.25 -57.7 2.4 -57.55 1.4 -56.35 1.4 -56.2 -0.5 -55.35 -0.55 -55.35 -2.7 -54.35 -3.5 -54.1 -1.5 -55.8 -0.9 -56.35" fill="url(#gradient10)" fill-rule="evenodd" stroke="none"/>
    <path d="M0.8 -57.85 L1.2 -58.8 2.25 -57.7 1.3 -58.15 0.8 -57.85" fill="url(#gradient11)" fill-rule="evenodd" stroke="none"/>
    <path d="M2.75 -58.15 L2.55 -57.8 2.45 -57.9 2.75 -58.15 M2.4 -55.7 Q5.45 -51.75 9.55 -53.05 13.35 -55.4 12.75 -56.95 L12.85 -56.85 12.9 -55.45 Q8.0 -49.65 1.8 -55.05 L2.4 -55.7" fill="url(#gradient12)" fill-rule="evenodd" stroke="none"/>
    <path d="M2.65 -56.55 L2.4 -55.7 1.8 -55.05 1.7 -54.85 1.65 -54.85 0.75 -55.65 1.55 -56.1 2.65 -56.55" fill="url(#gradient13)" fill-rule="evenodd" stroke="none"/>
    <path d="M1.7 -54.85 L1.8 -55.05 Q8.0 -49.65 12.9 -55.45 L12.9 -52.75 12.55 -51.95 11.4 -50.7 Q9.45 -49.6 8.75 -49.8 L7.3 -49.6 5.55 -49.8 4.35 -50.1 2.5 -51.2 1.7 -52.3 1.7 -52.65 2.45 -51.55 2.5 -51.8 2.3 -53.0 1.7 -54.85" fill="url(#gradient14)" fill-rule="evenodd" stroke="none"/>
    <path d="M0.75 -55.65 L1.65 -54.85 1.7 -54.85 2.3 -53.0 2.5 -51.8 2.45 -51.55 1.7 -52.65 1.65 -52.7 0.1 -54.9 0.25 -55.15 0.75 -55.65" fill="url(#gradient15)" fill-rule="evenodd" stroke="none"/>
    <path d="M4.35 -50.1 L5.55 -49.8 7.3 -49.6 6.85 -48.85 6.05 -48.65 5.15 -49.15 4.35 -50.1" fill="url(#gradient16)" fill-rule="evenodd" stroke="none"/>
    <path d="M7.3 -49.6 L8.75 -49.8 Q9.45 -49.6 11.4 -50.7 L12.55 -51.95 12.95 -51.05 12.95 -50.8 13.05 -50.6 13.05 -50.35 13.05 -49.8 Q12.35 -46.75 6.85 -48.85 L7.3 -49.6" fill="url(#gradient17)" fill-rule="evenodd" stroke="none"/>
    <path d="M18.4 -58.8 L18.65 -59.7 19.4 -61.65 19.5 -61.55 18.6 -58.8 18.4 -58.8" fill="url(#gradient18)" fill-rule="evenodd" stroke="none"/>
    <path d="M18.65 -59.7 L18.4 -58.8 18.35 -58.55 17.1 -55.1 18.2 -58.6 18.25 -58.85 18.7 -60.3 18.8 -60.25 18.65 -59.7" fill="url(#gradient19)" fill-rule="evenodd" stroke="none"/>
    <path d="M18.25 -58.85 L18.2 -58.6 18.0 -58.7 18.25 -58.85 M18.35 -58.55 L18.4 -58.8 18.6 -58.8 18.65 -58.55 18.35 -58.55" fill="url(#gradient20)" fill-rule="evenodd" stroke="none"/>
    <path d="M18.2 -58.6 L17.1 -55.1 18.35 -58.55 18.65 -58.55 16.3 -51.35 15.95 -50.25 15.75 -49.8 14.5 -45.95 14.1 -44.75 13.6 -44.9 13.85 -45.9 14.0 -46.35 14.0 -46.4 14.8 -48.85 15.35 -50.6 18.0 -58.7 18.2 -58.6" fill="url(#gradient21)" fill-rule="evenodd" stroke="none"/>
    <path d="M15.35 -50.6 L14.8 -48.85 14.35 -49.8 13.85 -50.35 13.4 -50.6 12.95 -50.8 12.95 -51.05 14.4 -51.1 15.35 -50.6 M14.0 -46.35 L13.85 -45.9 13.65 -45.9 13.9 -46.35 14.0 -46.35 M14.5 -45.95 L15.75 -49.8 15.95 -50.25 16.55 -49.8 16.7 -49.65 17.4 -48.6 16.1 -45.9 14.5 -45.95 M16.7 -45.7 L17.7 -47.85 17.9 -46.55 17.3 -45.45 16.7 -45.7 M10.65 -41.5 L10.75 -42.0 11.15 -42.35 10.85 -41.55 10.65 -41.5 M10.2 -40.95 L10.2 -40.85 9.45 -38.95 9.65 -38.25 9.2 -37.15 9.05 -37.45 9.25 -37.9 8.95 -37.45 8.2 -35.6 8.3 -34.85 8.0 -34.1 6.15 -33.0 5.15 -32.9 4.95 -32.9 4.6 -32.9 4.55 -32.9 4.25 -32.9 2.9 -34.05 2.85 -34.1 2.0 -35.1 2.45 -35.0 Q5.65 -33.35 7.2 -36.0 8.7 -38.1 9.7 -40.4 L10.2 -40.95" fill="url(#gradient22)" fill-rule="evenodd" stroke="none"/>
    <path d="M13.05 -50.35 L13.05 -50.6 13.4 -50.6 13.85 -50.35 13.05 -50.35" fill="url(#gradient23)" fill-rule="evenodd" stroke="none"/>
    <path d="M14.8 -48.85 L14.0 -46.4 13.9 -46.35 13.65 -45.9 12.7 -45.6 12.2 -45.0 11.25 -42.55 11.2 -42.5 11.2 -42.45 11.15 -42.35 10.75 -42.0 10.65 -41.5 10.2 -40.95 9.7 -40.4 Q8.7 -38.1 7.2 -36.0 5.65 -33.35 2.45 -35.0 L2.1 -35.5 2.75 -36.0 3.0 -36.15 3.35 -36.75 Q6.55 -37.3 5.95 -39.95 L5.75 -40.95 4.45 -41.6 4.25 -43.7 2.7 -45.6 2.45 -45.65 3.95 -47.3 5.75 -48.45 6.05 -48.65 6.85 -48.85 Q12.35 -46.75 13.05 -49.8 L13.05 -50.35 13.85 -50.35 14.35 -49.8 14.8 -48.85 M20.4 -41.55 L19.95 -39.25 19.35 -38.35 19.15 -38.15 19.15 -38.1 17.95 -37.7 14.95 -37.7 14.85 -37.85 14.95 -38.1 15.5 -38.65 16.3 -40.8 16.2 -41.25 17.6 -44.7 17.65 -45.2 17.3 -45.45 17.9 -46.55 17.7 -47.85 17.95 -48.4 Q18.35 -44.55 20.4 -41.55 M16.3 -35.5 L15.95 -35.25 15.6 -35.05 14.85 -34.55 13.3 -34.05 13.55 -34.7 14.1 -35.2 14.25 -35.55 16.3 -35.5 M17.6 -49.05 L17.4 -48.6 16.7 -49.65 17.2 -49.5 17.6 -49.05 M8.0 -34.1 L7.35 -32.35 6.15 -32.4 5.6 -32.65 5.55 -32.65 5.15 -32.9 6.15 -33.0 8.0 -34.1 M5.55 -32.45 L4.65 -32.6 4.55 -32.9 4.6 -32.9 5.55 -32.45" fill="url(#gradient24)" fill-rule="evenodd" stroke="none"/>
    <path d="M15.95 -50.25 L16.3 -51.35 17.3 -51.95 19.1 -52.2 17.6 -49.05 17.2 -49.5 16.7 -49.65 16.55 -49.8 15.95 -50.25 M19.7 -52.1 Q27.05 -48.85 20.4 -41.55 18.35 -44.55 17.95 -48.4 L19.7 -52.1" fill="url(#gradient25)" fill-rule="evenodd" stroke="none"/>
    <path d="M19.1 -52.2 L19.85 -53.9 21.45 -57.15 22.0 -57.0 20.45 -53.65 19.7 -52.1 17.95 -48.4 17.7 -47.85 16.7 -45.7 16.3 -44.9 15.9 -44.95 15.8 -45.25 16.1 -45.9 17.4 -48.6 17.6 -49.05 19.1 -52.2" fill="url(#gradient26)" fill-rule="evenodd" stroke="none"/>
    <path d="M19.85 -53.9 L19.7 -56.65 21.15 -59.8 21.4 -60.25 21.45 -60.05 21.6 -57.35 21.45 -57.15 19.85 -53.9" fill="url(#gradient27)" fill-rule="evenodd" stroke="none"/>
    <path d="M22.05 -57.15 L24.4 -59.05 24.55 -59.0 22.85 -55.5 20.45 -53.65 22.0 -57.0 22.05 -57.15" fill="url(#gradient28)" fill-rule="evenodd" stroke="none"/>
    <path d="M21.6 -57.35 L22.05 -57.15 22.0 -57.0 21.45 -57.15 21.6 -57.35" fill="url(#gradient29)" fill-rule="evenodd" stroke="none"/>
    <path d="M13.85 -45.9 L13.6 -44.9 14.1 -44.75 14.5 -45.95 16.1 -45.9 15.8 -45.25 15.9 -44.95 16.3 -44.9 16.7 -45.7 17.3 -45.45 17.65 -45.2 17.6 -44.7 Q14.95 -43.15 12.2 -45.0 L12.7 -45.6 13.65 -45.9 13.85 -45.9" fill="url(#gradient30)" fill-rule="evenodd" stroke="none"/>
    <path d="M14.0 -46.4 L14.0 -46.35 13.9 -46.35 14.0 -46.4" fill="url(#gradient31)" fill-rule="evenodd" stroke="none"/>
    <path d="M17.6 -44.7 L16.2 -41.25 15.9 -40.35 Q12.5 -39.1 10.5 -40.6 L10.85 -41.55 11.15 -42.35 11.2 -42.45 11.2 -42.5 11.25 -42.55 12.2 -45.0 Q14.95 -43.15 17.6 -44.7 M14.95 -38.1 L14.85 -37.85 14.5 -36.95 Q11.35 -35.6 9.2 -37.15 L9.65 -38.25 Q11.55 -37.35 12.85 -37.55 L14.95 -38.1 M8.3 -34.85 Q9.65 -34.1 11.4 -34.15 L13.55 -34.7 13.3 -34.05 12.95 -33.15 12.6 -32.2 11.6 -29.7 9.95 -25.8 Q9.75 -25.2 7.05 -25.05 3.85 -25.25 5.35 -27.15 L5.85 -28.5 6.75 -30.75 7.25 -32.05 7.35 -32.35 8.0 -34.1 8.3 -34.85" fill="url(#gradient32)" fill-rule="evenodd" stroke="none"/>
    <path d="M16.2 -41.25 L16.3 -40.8 15.9 -40.35 16.2 -41.25 M10.5 -40.6 L10.3 -40.9 10.2 -40.85 10.2 -40.95 10.65 -41.5 10.85 -41.55 10.5 -40.6" fill="url(#gradient33)" fill-rule="evenodd" stroke="none"/>
    <path d="M16.3 -40.8 L15.5 -38.65 14.95 -38.1 12.85 -37.55 Q11.55 -37.35 9.65 -38.25 L9.45 -38.95 10.2 -40.85 10.3 -40.9 10.5 -40.6 Q12.5 -39.1 15.9 -40.35 L16.3 -40.8" fill="url(#gradient34)" fill-rule="evenodd" stroke="none"/>
    <path d="M14.85 -37.85 L14.95 -37.7 14.95 -37.3 14.5 -36.95 14.85 -37.85 M9.05 -37.45 L8.95 -37.45 9.25 -37.9 9.05 -37.45" fill="url(#gradient35)" fill-rule="evenodd" stroke="none"/>
    <path d="M19.15 -38.1 L17.45 -35.75 16.3 -35.5 14.25 -35.55 14.95 -37.3 14.95 -37.7 17.95 -37.7 19.15 -38.1" fill="url(#gradient36)" fill-rule="evenodd" stroke="none"/>
    <path d="M0.85 -45.75 Q3.35 -48.55 5.75 -48.45 L3.95 -47.3 2.45 -45.65 0.85 -45.75" fill="url(#gradient37)" fill-rule="evenodd" stroke="none"/>
    <path d="M-3.35 -43.15 Q-2.7 -45.35 0.85 -45.75 L2.45 -45.65 2.7 -45.6 4.25 -43.7 4.45 -41.6 5.75 -40.95 5.95 -39.95 Q6.55 -37.3 3.35 -36.75 0.1 -38.4 -3.35 -43.15" fill="url(#gradient38)" fill-rule="evenodd" stroke="none"/>
    <path d="M14.95 -37.3 L14.25 -35.55 14.1 -35.2 13.55 -34.7 11.4 -34.15 Q9.65 -34.1 8.3 -34.85 L8.2 -35.6 8.95 -37.45 9.05 -37.45 9.2 -37.15 Q11.35 -35.6 14.5 -36.95 L14.95 -37.3" fill="url(#gradient39)" fill-rule="evenodd" stroke="none"/>
    <path d="M15.95 -35.25 L15.6 -35.0 15.6 -35.05 15.95 -35.25 M15.5 -34.85 L15.35 -34.7 15.2 -34.5 14.0 -33.6 12.95 -33.15 13.3 -34.05 14.85 -34.55 15.4 -34.85 15.5 -34.85 M7.35 -32.35 L7.25 -32.05 5.55 -32.45 4.6 -32.9 4.95 -32.9 5.55 -32.65 5.6 -32.65 6.15 -32.4 7.35 -32.35" fill="url(#gradient40)" fill-rule="evenodd" stroke="none"/>
    <path d="M7.25 -32.05 L6.75 -30.75 5.75 -31.1 Q4.8 -31.7 4.25 -32.9 L4.55 -32.9 4.65 -32.6 5.55 -32.45 7.25 -32.05 M3.65 -29.25 L3.9 -28.95 3.6 -29.15 3.65 -29.25 M3.95 -28.8 L4.55 -28.1 4.15 -28.4 3.95 -28.8" fill="url(#gradient41)" fill-rule="evenodd" stroke="none"/>
    <path d="M5.15 -32.9 L5.55 -32.65 4.95 -32.9 5.15 -32.9" fill="url(#gradient42)" fill-rule="evenodd" stroke="none"/>
    <path d="M-5.3 -40.3 L-4.35 -42.1 -3.35 -43.15 Q0.1 -38.4 3.35 -36.75 L3.0 -36.15 2.75 -36.0 2.1 -35.5 1.75 -35.4 0.0 -34.85 -0.45 -34.75 -1.3 -34.8 -2.85 -35.3 -3.85 -36.0 -5.05 -37.15 -5.3 -37.85 -5.5 -39.45 -5.3 -40.3" fill="url(#gradient43)" fill-rule="evenodd" stroke="none"/>
    <path d="M2.85 -34.1 L2.9 -34.05 2.65 -33.5 2.7 -32.45 Q1.6 -32.45 0.8 -33.05 L0.0 -34.0 -0.1 -34.7 0.0 -34.75 Q0.6 -32.55 2.85 -34.1" fill="url(#gradient44)" fill-rule="evenodd" stroke="none"/>
    <path d="M2.85 -34.1 Q0.6 -32.55 0.0 -34.75 L0.0 -34.85 1.75 -35.4 1.95 -35.1 2.0 -35.1 2.85 -34.1" fill="url(#gradient45)" fill-rule="evenodd" stroke="none"/>
    <path d="M2.1 -35.5 L2.45 -35.0 2.0 -35.1 1.95 -35.1 1.75 -35.4 2.1 -35.5" fill="url(#gradient46)" fill-rule="evenodd" stroke="none"/>
    <path d="M-18.8 -31.2 L-34.2 -28.3 -34.75 -28.25 -34.85 -28.5 -34.2 -28.8 -18.95 -31.65 -18.8 -31.2 M-16.9 -32.05 L-12.4 -32.85 -13.05 -32.3 -16.7 -31.6 -16.9 -32.05 M0.0 -34.75 L-0.1 -34.7 -0.5 -34.6 -0.45 -34.75 0.0 -34.85 0.0 -34.75" fill="url(#gradient47)" fill-rule="evenodd" stroke="none"/>
    <path d="M2.75 -32.15 L2.7 -32.15 2.7 -32.3 2.75 -32.15 M2.7 -32.05 L2.75 -32.05 2.75 -31.9 2.7 -31.8 2.65 -31.8 2.7 -32.05 M2.65 -31.7 L2.7 -31.7 2.55 -31.5 2.65 -31.7 M2.3 -29.95 L2.4 -29.9 2.25 -29.65 2.3 -29.95" fill="url(#gradient48)" fill-rule="evenodd" stroke="none"/>
    <path d="M2.7 -32.15 L2.75 -32.15 2.75 -32.05 2.7 -32.05 2.7 -32.15 M2.65 -31.7 L2.65 -31.8 2.7 -31.8 2.7 -31.7 2.65 -31.7" fill="url(#gradient49)" fill-rule="evenodd" stroke="none"/>
    <path d="M15.35 -34.7 L16.05 -32.85 16.1 -32.8 16.1 -32.75 16.1 -32.6 16.1 -32.4 Q16.85 -30.4 11.6 -29.7 L12.6 -32.2 Q16.1 -33.25 15.2 -34.5 L15.35 -34.7 M6.75 -30.75 L5.85 -28.5 4.65 -29.15 3.1 -30.85 2.75 -31.9 2.75 -32.05 2.75 -32.15 2.7 -32.3 2.7 -32.45 2.65 -33.5 2.9 -34.05 4.25 -32.9 Q4.8 -31.7 5.75 -31.1 L6.75 -30.75" fill="url(#gradient50)" fill-rule="evenodd" stroke="none"/>
    <path d="M2.7 -31.7 L2.7 -31.8 2.75 -31.9 3.1 -30.85 3.1 -30.75 2.4 -29.9 2.3 -29.95 2.3 -30.2 2.4 -30.35 2.45 -30.9 2.5 -31.05 2.55 -31.5 2.7 -31.7" fill="url(#gradient51)" fill-rule="evenodd" stroke="none"/>
    <path d="M5.85 -28.5 L5.35 -27.15 4.85 -27.7 4.55 -28.1 3.95 -28.8 3.9 -28.95 3.65 -29.25 3.4 -29.75 3.25 -29.95 3.1 -30.75 3.1 -30.85 4.65 -29.15 5.85 -28.5 M7.05 -25.05 Q9.75 -25.2 9.95 -25.8 L11.6 -29.7 Q16.85 -30.4 16.1 -32.4 L16.25 -32.3 16.25 -32.2 16.3 -32.15 16.3 -32.05 16.35 -31.9 16.35 -31.85 16.35 -31.8 16.55 -31.4 16.65 -29.75 16.3 -26.05 15.7 -23.85 14.75 -22.2 14.1 -21.45 13.05 -20.65 11.7 -20.05 Q10.7 -19.85 9.35 -20.5 L7.95 -23.7 7.05 -25.05" fill="url(#gradient52)" fill-rule="evenodd" stroke="none"/>
    <path d="M5.35 -27.15 Q3.85 -25.25 7.05 -25.05 L7.95 -23.7 9.35 -20.5 9.35 -18.65 8.9 -15.95 Q0.95 -12.6 0.3 -22.2 L0.4 -24.55 0.4 -24.65 0.45 -24.7 1.0 -26.8 2.25 -29.65 2.4 -29.9 3.1 -30.75 3.25 -29.95 3.4 -29.75 3.65 -29.25 3.6 -29.15 3.9 -28.95 3.95 -28.8 4.15 -28.4 4.55 -28.1 4.85 -27.7 5.35 -27.15" fill="url(#gradient53)" fill-rule="evenodd" stroke="none"/>
    <path d="M15.6 -35.0 L15.5 -34.85 15.4 -34.85 14.85 -34.55 15.6 -35.05 15.6 -35.0" fill="url(#gradient54)" fill-rule="evenodd" stroke="none"/>
    <path d="M16.1 -32.75 L16.25 -32.45 16.1 -32.6 16.1 -32.75 M16.25 -32.2 L16.25 -32.3 16.3 -32.3 16.3 -32.2 16.25 -32.2 M16.35 -32.15 L16.35 -32.05 16.3 -32.05 16.3 -32.15 16.35 -32.15 M16.45 -31.85 L16.45 -31.8 16.35 -31.8 16.35 -31.85 16.45 -31.85" fill="url(#gradient55)" fill-rule="evenodd" stroke="none"/>
    <path d="M16.25 -32.45 L16.3 -32.3 16.25 -32.3 16.1 -32.4 16.1 -32.6 16.25 -32.45" fill="url(#gradient56)" fill-rule="evenodd" stroke="none"/>
    <path d="M16.3 -32.3 Q19.85 -28.3 18.6 -22.4 L18.05 -21.15 16.95 -19.95 17.1 -21.15 16.95 -22.2 Q16.2 -24.6 16.65 -25.75 L16.3 -26.05 16.65 -29.75 16.55 -31.4 16.45 -31.8 16.45 -31.85 16.35 -32.05 16.35 -32.15 16.3 -32.2 16.3 -32.3" fill="url(#gradient57)" fill-rule="evenodd" stroke="none"/>
    <path d="M16.25 -32.2 L16.3 -32.2 16.3 -32.15 16.25 -32.2 M16.45 -31.8 L16.55 -31.4 16.35 -31.8 16.45 -31.8 M16.3 -32.05 L16.35 -32.05 16.35 -31.9 16.3 -32.05" fill="url(#gradient58)" fill-rule="evenodd" stroke="none"/>
    <path d="M16.3 -32.15 L16.3 -32.2 16.35 -32.15 16.3 -32.15 M16.35 -32.05 L16.45 -31.85 16.35 -31.85 16.35 -31.9 16.35 -32.05" fill="url(#gradient59)" fill-rule="evenodd" stroke="none"/>
    <path d="M12.6 -32.2 L12.95 -33.15 14.0 -33.6 15.2 -34.5 Q16.1 -33.25 12.6 -32.2" fill="url(#gradient60)" fill-rule="evenodd" stroke="none"/>
    <path d="M16.3 -26.05 L16.65 -25.75 Q16.2 -24.6 16.95 -22.2 L17.1 -21.15 16.95 -19.95 16.95 -19.9 Q16.6 -18.35 12.1 -16.15 L12.7 -17.9 13.05 -20.65 14.1 -21.45 14.75 -22.2 15.7 -23.85 16.3 -26.05" fill="url(#gradient61)" fill-rule="evenodd" stroke="none"/>
    <path d="M18.6 -22.4 Q19.4 -20.15 19.4 -19.05 L19.2 -15.9 17.75 -15.95 17.4 -18.85 16.95 -19.9 16.95 -19.95 18.05 -21.15 18.6 -22.4" fill="url(#gradient62)" fill-rule="evenodd" stroke="none"/>
    <path d="M16.95 -19.9 L17.4 -18.85 17.75 -15.95 Q16.25 -10.05 11.45 -10.45 L11.7 -12.45 11.6 -15.0 12.1 -16.15 Q16.6 -18.35 16.95 -19.9" fill="url(#gradient63)" fill-rule="evenodd" stroke="none"/>
    <path d="M8.9 -15.95 L9.35 -18.65 9.35 -20.5 Q10.7 -19.85 11.7 -20.05 L13.05 -20.65 12.7 -17.9 12.1 -16.15 11.6 -15.0 11.4 -14.5 10.15 -13.7 9.7 -14.0 9.05 -14.1 8.9 -15.95" fill="url(#gradient64)" fill-rule="evenodd" stroke="none"/>
    <path d="M11.6 -15.0 L11.7 -12.45 11.45 -10.45 11.25 -9.8 10.75 -10.0 10.5 -12.25 10.15 -13.7 11.4 -14.5 11.6 -15.0" fill="url(#gradient65)" fill-rule="evenodd" stroke="none"/>
    <path d="M19.2 -15.9 Q19.6 -12.8 18.15 -10.55 16.25 -7.55 12.3 -9.05 L11.35 -9.75 11.25 -9.8 11.45 -10.45 Q16.25 -10.05 17.75 -15.95 L19.2 -15.9" fill="url(#gradient66)" fill-rule="evenodd" stroke="none"/>
    <path d="M0.4 -24.55 L0.3 -22.2 Q0.95 -12.6 8.9 -15.95 L9.05 -14.1 Q3.0 -6.8 0.5 -11.05 -2.0 -15.65 0.4 -24.55" fill="url(#gradient67)" fill-rule="evenodd" stroke="none"/>
    <path d="M9.05 -14.1 L9.7 -14.0 10.15 -13.7 10.5 -12.25 10.75 -10.0 10.6 -8.4 Q9.1 -1.45 1.7 -6.0 L0.95 -8.2 0.5 -11.05 Q3.0 -6.8 9.05 -14.1" fill="url(#gradient68)" fill-rule="evenodd" stroke="none"/>
    <path d="M9.35 -1.6 L9.35 -1.35 9.2 -1.4 9.35 -1.6 M9.45 0.1 L9.45 1.8 9.25 4.25 Q8.7 5.2 7.8 5.4 L7.55 5.5 7.5 5.4 4.8 4.0 3.7 3.25 3.6 2.9 3.25 2.7 3.2 2.25 3.1 -1.3 3.85 -1.15 Q5.7 0.8 7.95 -0.3 L9.45 0.1" fill="url(#gradient69)" fill-rule="evenodd" stroke="none"/>
    <path d="M9.35 -1.35 L11.9 -0.55 11.7 0.55 9.45 0.1 7.95 -0.3 3.85 -1.15 3.1 -1.3 Q-11.8 -7.15 -15.8 -22.35 L-13.95 -23.2 -13.5 -23.35 Q-8.5 -8.75 2.25 -3.85 L3.5 -3.05 9.2 -1.4 9.35 -1.35" fill="url(#gradient70)" fill-rule="evenodd" stroke="none"/>
    <path d="M11.25 -8.05 L10.65 -4.3 Q10.25 -2.9 9.35 -1.6 L9.2 -1.4 3.5 -3.05 2.25 -3.85 1.7 -6.0 Q9.1 -1.45 10.6 -8.4 L10.75 -10.0 11.25 -9.8 11.35 -9.75 11.25 -8.05 M3.85 -1.15 L7.95 -0.3 Q5.7 0.8 3.85 -1.15" fill="url(#gradient71)" fill-rule="evenodd" stroke="none"/>
    <path d="M18.15 -10.55 L18.5 -7.65 18.5 -6.75 18.25 -6.25 Q13.1 -4.15 12.45 -7.8 L12.45 -7.95 12.45 -8.05 12.4 -8.05 12.4 -8.4 12.3 -9.05 Q16.25 -7.55 18.15 -10.55" fill="url(#gradient72)" fill-rule="evenodd" stroke="none"/>
    <path d="M12.4 -8.05 L12.45 -8.05 12.45 -7.95 12.4 -8.05" fill="url(#gradient73)" fill-rule="evenodd" stroke="none"/>
    <path d="M12.2 -6.95 L11.25 -8.05 11.35 -9.75 12.3 -9.05 12.4 -8.4 12.4 -8.05 12.45 -7.95 12.45 -7.8 12.35 -7.85 12.2 -6.95" fill="url(#gradient74)" fill-rule="evenodd" stroke="none"/>
    <path d="M18.25 -6.25 Q18.45 -3.7 15.35 -3.65 12.25 -4.75 12.2 -6.95 L12.35 -7.85 12.45 -7.8 Q13.1 -4.15 18.25 -6.25" fill="url(#gradient75)" fill-rule="evenodd" stroke="none"/>
    <path d="M9.45 1.8 Q10.45 5.5 7.35 6.7 L7.25 5.95 6.65 5.4 4.8 4.0 7.5 5.4 7.55 5.5 7.8 5.4 Q8.7 5.2 9.25 4.25 L9.45 1.8" fill="url(#gradient76)" fill-rule="evenodd" stroke="none"/>
    <path d="M7.35 6.7 Q3.65 11.5 -0.4 8.75 -2.2 4.3 3.2 2.25 L3.25 2.7 3.6 2.9 3.7 3.25 4.8 4.0 6.65 5.4 7.25 5.95 7.35 6.7" fill="url(#gradient77)" fill-rule="evenodd" stroke="none"/>
    <path d="M-19.8 -33.8 Q-23.55 -40.25 -20.6 -54.95 L-17.25 -61.9 -11.35 -68.7 -10.7 -68.05 -10.55 -67.75 -15.65 -61.0 -18.4 -54.35 Q-19.8 -48.15 -19.15 -43.05 L-17.2 -34.45 -17.65 -34.3 -19.65 -33.85 -19.8 -33.8" fill="url(#gradient78)" fill-rule="evenodd" stroke="none"/>
    <path d="M-3.15 -54.9 Q-2.05 -55.65 -0.9 -56.35 L-1.5 -55.8 -3.15 -54.9" fill="url(#gradient79)" fill-rule="evenodd" stroke="none"/>
    <path d="M-10.55 -34.5 Q-11.15 -38.15 -5.3 -40.3 L-5.5 -39.45 -5.3 -37.85 Q-6.2 -37.8 -7.3 -37.15 L-8.75 -36.0 Q-9.35 -34.05 -9.45 -34.2 L-8.95 -32.65 -10.2 -33.5 -10.55 -34.5" fill="url(#gradient80)" fill-rule="evenodd" stroke="none"/>
    <path d="M-5.3 -37.85 L-5.05 -37.15 -3.85 -36.0 -2.85 -35.3 -1.3 -34.8 -1.6 -33.8 -2.6 -32.4 -2.95 -32.1 -3.95 -31.45 -5.65 -31.15 -6.5 -31.15 Q-7.35 -31.25 -8.3 -32.0 L-8.75 -32.55 -8.9 -32.6 -8.95 -32.65 -9.45 -34.2 Q-9.35 -34.05 -8.75 -36.0 L-7.3 -37.15 Q-6.2 -37.8 -5.3 -37.85" fill="url(#gradient81)" fill-rule="evenodd" stroke="none"/>
    <path d="M-12.4 -32.85 L-11.45 -33.85 -10.55 -34.5 -10.2 -33.5 -8.95 -32.65 -8.9 -32.6 -8.75 -32.55 -8.3 -32.0 -8.2 -31.2 -7.65 -30.25 Q-9.1 -28.45 -10.45 -28.1 L-13.55 -28.0 Q-16.3 -29.2 -14.95 -30.7 L-14.45 -31.1 -13.05 -32.3 -12.4 -32.85" fill="url(#gradient82)" fill-rule="evenodd" stroke="none"/>
    <path d="M-16.05 -31.3 L-14.95 -31.35 -14.45 -31.1 -14.95 -30.7 -15.3 -31.1 -16.05 -31.3" fill="url(#gradient83)" fill-rule="evenodd" stroke="none"/>
    <path d="M-15.8 -22.35 L-16.8 -25.4 -15.5 -25.55 -14.8 -25.95 -13.95 -23.2 -15.8 -22.35 M-18.6 -30.6 L-18.8 -31.2 -18.95 -31.65 -19.65 -33.8 -19.65 -33.85 -17.65 -34.3 -16.9 -32.05 -16.7 -31.6 -16.65 -31.35 -17.45 -31.2 -18.6 -30.6" fill="url(#gradient84)" fill-rule="evenodd" stroke="none"/>
    <path d="M-19.65 -33.8 L-19.8 -33.8 -19.65 -33.85 -19.65 -33.8" fill="url(#gradient85)" fill-rule="evenodd" stroke="none"/>
    <path d="M-16.8 -25.4 Q-21.1 -26.6 -18.6 -30.6 L-17.45 -31.2 -16.65 -31.35 -16.05 -31.3 -15.3 -31.1 -14.95 -30.7 Q-16.3 -29.2 -13.55 -28.0 L-13.75 -27.15 -14.8 -25.95 -15.5 -25.55 -16.8 -25.4" fill="url(#gradient86)" fill-rule="evenodd" stroke="none"/>
    <path d="M-1.3 -34.8 L-0.45 -34.75 -0.5 -34.6 -0.75 -34.15 -1.65 -33.0 -2.6 -32.4 -1.6 -33.8 -1.3 -34.8" fill="url(#gradient87)" fill-rule="evenodd" stroke="none"/>
    <path d="M-0.1 -34.7 L0.0 -34.0 -0.75 -34.15 -0.5 -34.6 -0.1 -34.7" fill="url(#gradient88)" fill-rule="evenodd" stroke="none"/>
    <path d="M-5.65 -31.15 L-3.95 -31.45 -2.95 -32.1 Q-3.85 -30.2 -5.8 -30.6 L-5.65 -31.15" fill="url(#gradient89)" fill-rule="evenodd" stroke="none"/>
    <path d="M-8.3 -32.0 Q-7.35 -31.25 -6.5 -31.15 L-5.65 -31.15 -5.8 -30.6 -6.45 -30.35 -7.65 -30.25 -8.2 -31.2 -8.3 -32.0" fill="url(#gradient90)" fill-rule="evenodd" stroke="none"/>
    <path d="M-34.2 -28.3 L-34.75 -27.45 -39.65 -27.65 -35.3 -29.4 -34.2 -28.8 -34.85 -28.5 -34.75 -28.25 -34.2 -28.3" fill="url(#gradient91)" fill-rule="evenodd" stroke="none"/>
  </g>
  <defs>
    <radialGradient cx="0" cy="0" gradientTransform="matrix(0.0026, 0.0, 0.0, 0.0026, 4.65, -59.3)" gradientUnits="userSpaceOnUse" id="gradient0" r="819.2" spreadMethod="pad">
      <stop offset="0.0" stop-color="#ff9400"/>
      <stop offset="1.0" stop-color="#ff8700"/>
    </radialGradient>
    <radialGradient cx="0" cy="0" gradientTransform="matrix(0.0011, 0.0, 0.0, 0.0011, 5.1, -60.3)" gradientUnits="userSpaceOnUse" id="gradient1" r="819.2" spreadMethod="pad">
      <stop offset="0.0" stop-color="#ff8b00"/>
      <stop offset="1.0" stop-color="#ff8900"/>
    </radialGradient>
    <radialGradient cx="0" cy="0" gradientTransform="matrix(0.0093, 0.0, 0.0, 0.0093, 5.05, -54.85)" gradientUnits="userSpaceOnUse" id="gradient2" r="819.2" spreadMethod="pad">
      <stop offset="0.0" stop-color="#ffd300"/>
      <stop offset="1.0" stop-color="#f58200"/>
    </radialGradient>
    <radialGradient cx="0" cy="0" gradientTransform="matrix(0.0027, 0.0, 0.0, 0.0027, 4.35, -60.45)" gradientUnits="userSpaceOnUse" id="gradient3" r="819.2" spreadMethod="pad">
      <stop offset="0.0" stop-color="#331a00"/>
      <stop offset="1.0" stop-color="#331a00"/>
    </radialGradient>
    <radialGradient cx="0" cy="0" gradientTransform="matrix(0.0071, 0.0, 0.0, 0.0071, -1.95, -60.65)" gradientUnits="userSpaceOnUse" id="gradient4" r="819.2" spreadMethod="pad">
      <stop offset="0.0" stop-color="#ffb500"/>
      <stop offset="1.0" stop-color="#ff9f00"/>
    </radialGradient>
    <radialGradient cx="0" cy="0" gradientTransform="matrix(0.0049, 0.0, 0.0, 0.0049, 2.55, -59.15)" gradientUnits="userSpaceOnUse" id="gradient5" r="819.2" spreadMethod="pad">
      <stop offset="0.0" stop-color="#ffa600"/>
      <stop offset="1.0" stop-color="#ff9100"/>
    </radialGradient>
    <radialGradient cx="0" cy="0" gradientTransform="matrix(0.0065, 0.0, 0.0, 0.0065, 4.75, -55.8)" gradientUnits="userSpaceOnUse" id="gradient6" r="819.2" spreadMethod="pad">
      <stop offset="0.0" stop-color="#ff9300"/>
      <stop offset="1.0" stop-color="#ff8800"/>
    </radialGradient>
    <radialGradient cx="0" cy="0" gradientTransform="matrix(0.0059, 0.0, 0.0, 0.0059, 0.5, -57.45)" gradientUnits="userSpaceOnUse" id="gradient7" r="819.2" spreadMethod="pad">
      <stop offset="0.0" stop-color="#ffb400"/>
      <stop offset="1.0" stop-color="#ffa000"/>
    </radialGradient>
    <radialGradient cx="0" cy="0" gradientTransform="matrix(0.0071, 0.0, 0.0, 0.0071, 4.45, -55.55)" gradientUnits="userSpaceOnUse" id="gradient8" r="819.2" spreadMethod="pad">
      <stop offset="0.0" stop-color="#fb7e00"/>
      <stop offset="1.0" stop-color="#c46200"/>
    </radialGradient>
    <radialGradient cx="0" cy="0" gradientTransform="matrix(0.0039, 0.0, 0.0, 0.0039, 1.3, -56.35)" gradientUnits="userSpaceOnUse" id="gradient9" r="819.2" spreadMethod="pad">
      <stop offset="0.0" stop-color="#ffca00"/>
      <stop offset="1.0" stop-color="#ffb300"/>
    </radialGradient>
    <radialGradient cx="0" cy="0" gradientTransform="matrix(0.0085, 0.0, 0.0, 0.0085, -3.65, -54.05)" gradientUnits="userSpaceOnUse" id="gradient10" r="819.2" spreadMethod="pad">
      <stop offset="0.0" stop-color="#ffd200"/>
      <stop offset="1.0" stop-color="#ffca00"/>
    </radialGradient>
    <radialGradient cx="0" cy="0" gradientTransform="matrix(0.0053, 0.0, 0.0, 0.0053, 0.5, -57.45)" gradientUnits="userSpaceOnUse" id="gradient11" r="819.2" spreadMethod="pad">
      <stop offset="0.0" stop-color="#ffb400"/>
      <stop offset="1.0" stop-color="#ffae00"/>
    </radialGradient>
    <radialGradient cx="0" cy="0" gradientTransform="matrix(0.0102, 0.0, 0.0, 0.0102, 5.55, -52.75)" gradientUnits="userSpaceOnUse" id="gradient12" r="819.2" spreadMethod="pad">
      <stop offset="0.0" stop-color="#beb492"/>
      <stop offset="1.0" stop-color="#bbb190"/>
    </radialGradient>
    <radialGradient cx="0" cy="0" gradientTransform="matrix(0.0032, 0.0, 0.0, 0.0032, 1.55, -54.95)" gradientUnits="userSpaceOnUse" id="gradient13" r="819.2" spreadMethod="pad">
      <stop offset="0.0" stop-color="#ffc500"/>
      <stop offset="1.0" stop-color="#ffb600"/>
    </radialGradient>
    <radialGradient cx="0" cy="0" gradientTransform="matrix(0.0081, 0.0, 0.0, 0.0081, 7.55, -52.6)" gradientUnits="userSpaceOnUse" id="gradient14" r="819.2" spreadMethod="pad">
      <stop offset="0.0" stop-color="#c3b996"/>
      <stop offset="1.0" stop-color="#a49b7e"/>
    </radialGradient>
    <radialGradient cx="0" cy="0" gradientTransform="matrix(0.005, 0.0, 0.0, 0.005, 1.55, -54.95)" gradientUnits="userSpaceOnUse" id="gradient15" r="819.2" spreadMethod="pad">
      <stop offset="0.0" stop-color="#ffc500"/>
      <stop offset="1.0" stop-color="#ffbd00"/>
    </radialGradient>
    <radialGradient cx="0" cy="0" gradientTransform="matrix(0.0043, 0.0, 0.0, 0.0043, 4.2, -50.75)" gradientUnits="userSpaceOnUse" id="gradient16" r="819.2" spreadMethod="pad">
      <stop offset="0.0" stop-color="#a37343"/>
      <stop offset="1.0" stop-color="#785531"/>
    </radialGradient>
    <radialGradient cx="0" cy="0" gradientTransform="matrix(0.0052, 0.0, 0.0, 0.0052, 9.35, -51.15)" gradientUnits="userSpaceOnUse" id="gradient17" r="819.2" spreadMethod="pad">
      <stop offset="0.0" stop-color="#ffdf82"/>
      <stop offset="1.0" stop-color="#d39456"/>
    </radialGradient>
    <radialGradient cx="0" cy="0" gradientTransform="matrix(0.0095, 0.0, 0.0, 0.0095, 19.55, -62.25)" gradientUnits="userSpaceOnUse" id="gradient18" r="819.2" spreadMethod="pad">
      <stop offset="0.0" stop-color="#8e8e8e"/>
      <stop offset="1.0" stop-color="#8c8c8c"/>
    </radialGradient>
    <radialGradient cx="0" cy="0" gradientTransform="matrix(0.0073, 0.0, 0.0, 0.0073, 18.7, -60.55)" gradientUnits="userSpaceOnUse" id="gradient19" r="819.2" spreadMethod="pad">
      <stop offset="0.0" stop-color="#8f8f8f"/>
      <stop offset="1.0" stop-color="#8c8c8c"/>
    </radialGradient>
    <radialGradient cx="0" cy="0" gradientTransform="matrix(3.0E-4, 0.0, 0.0, 3.0E-4, 18.3, -58.85)" gradientUnits="userSpaceOnUse" id="gradient20" r="819.2" spreadMethod="pad">
      <stop offset="0.0" stop-color="#894400"/>
      <stop offset="1.0" stop-color="#884400"/>
    </radialGradient>
    <radialGradient cx="0" cy="0" gradientTransform="matrix(0.025, 0.0, 0.0, 0.025, 18.2, -58.65)" gradientUnits="userSpaceOnUse" id="gradient21" r="819.2" spreadMethod="pad">
      <stop offset="0.0" stop-color="#a75300"/>
      <stop offset="1.0" stop-color="#954b00"/>
    </radialGradient>
    <radialGradient cx="0" cy="0" gradientTransform="matrix(0.0205, 0.0, 0.0, 0.0205, 15.25, -45.35)" gradientUnits="userSpaceOnUse" id="gradient22" r="819.2" spreadMethod="pad">
      <stop offset="0.0" stop-color="#754322"/>
      <stop offset="1.0" stop-color="#321c0e"/>
    </radialGradient>
    <radialGradient cx="0" cy="0" gradientTransform="matrix(0.0032, 0.0, 0.0, 0.0032, 14.1, -50.15)" gradientUnits="userSpaceOnUse" id="gradient23" r="819.2" spreadMethod="pad">
      <stop offset="0.0" stop-color="#c9bf9b"/>
      <stop offset="1.0" stop-color="#7e7862"/>
    </radialGradient>
    <radialGradient cx="0" cy="0" gradientTransform="matrix(0.0161, 0.0, 0.0, 0.0161, 7.4, -43.85)" gradientUnits="userSpaceOnUse" id="gradient24" r="819.2" spreadMethod="pad">
      <stop offset="0.0" stop-color="#fff8ca"/>
      <stop offset="1.0" stop-color="#a59d7f"/>
    </radialGradient>
    <radialGradient cx="0" cy="0" gradientTransform="matrix(0.0077, 0.0, 0.0, 0.0077, 17.95, -47.45)" gradientUnits="userSpaceOnUse" id="gradient25" r="819.2" spreadMethod="pad">
      <stop offset="0.0" stop-color="#ff3a3a"/>
      <stop offset="1.0" stop-color="#891e1e"/>
    </radialGradient>
    <radialGradient cx="0" cy="0" gradientTransform="matrix(0.0177, 0.0, 0.0, 0.0177, 21.65, -57.15)" gradientUnits="userSpaceOnUse" id="gradient26" r="819.2" spreadMethod="pad">
      <stop offset="0.0" stop-color="#b15800"/>
      <stop offset="1.0" stop-color="#9a4d00"/>
    </radialGradient>
    <radialGradient cx="0" cy="0" gradientTransform="matrix(0.0048, 0.0, 0.0, 0.0048, 21.5, -56.95)" gradientUnits="userSpaceOnUse" id="gradient27" r="819.2" spreadMethod="pad">
      <stop offset="0.0" stop-color="#202020"/>
      <stop offset="1.0" stop-color="#202020"/>
    </radialGradient>
    <radialGradient cx="0" cy="0" gradientTransform="matrix(0.009, 0.0, 0.0, 0.009, 19.95, -53.4)" gradientUnits="userSpaceOnUse" id="gradient28" r="819.2" spreadMethod="pad">
      <stop offset="0.0" stop-color="#202020"/>
      <stop offset="1.0" stop-color="#202020"/>
    </radialGradient>
    <radialGradient cx="0" cy="0" gradientTransform="matrix(3.0E-4, 0.0, 0.0, 3.0E-4, 21.7, -57.3)" gradientUnits="userSpaceOnUse" id="gradient29" r="819.2" spreadMethod="pad">
      <stop offset="0.0" stop-color="#804000"/>
      <stop offset="1.0" stop-color="#7f4000"/>
    </radialGradient>
    <radialGradient cx="0" cy="0" gradientTransform="matrix(0.0065, 0.0, 0.0, 0.0065, 12.25, -44.9)" gradientUnits="userSpaceOnUse" id="gradient30" r="819.2" spreadMethod="pad">
      <stop offset="0.0" stop-color="#944a00"/>
      <stop offset="1.0" stop-color="#944a00"/>
    </radialGradient>
    <radialGradient cx="0" cy="0" gradientTransform="matrix(0.0251, 0.0, 0.0, 0.0251, 11.65, -39.4)" gradientUnits="userSpaceOnUse" id="gradient31" r="819.2" spreadMethod="pad">
      <stop offset="0.0" stop-color="#1a0d00"/>
      <stop offset="1.0" stop-color="#1a0d00"/>
    </radialGradient>
    <radialGradient cx="0" cy="0" gradientTransform="matrix(0.0249, 0.0, 0.0, 0.0249, 12.6, -44.6)" gradientUnits="userSpaceOnUse" id="gradient32" r="819.2" spreadMethod="pad">
      <stop offset="0.0" stop-color="#a45200"/>
      <stop offset="1.0" stop-color="#894400"/>
    </radialGradient>
    <radialGradient cx="0" cy="0" gradientTransform="matrix(0.0087, 0.0, 0.0, 0.0087, 9.4, -38.95)" gradientUnits="userSpaceOnUse" id="gradient33" r="819.2" spreadMethod="pad">
      <stop offset="0.0" stop-color="#0e0804"/>
      <stop offset="1.0" stop-color="#0e0804"/>
    </radialGradient>
    <radialGradient cx="0" cy="0" gradientTransform="matrix(0.0077, 0.0, 0.0, 0.0077, 10.15, -39.1)" gradientUnits="userSpaceOnUse" id="gradient34" r="819.2" spreadMethod="pad">
      <stop offset="0.0" stop-color="#5b341b"/>
      <stop offset="1.0" stop-color="#422513"/>
    </radialGradient>
    <radialGradient cx="0" cy="0" gradientTransform="matrix(0.0086, 0.0, 0.0, 0.0086, 8.1, -35.55)" gradientUnits="userSpaceOnUse" id="gradient35" r="819.2" spreadMethod="pad">
      <stop offset="0.0" stop-color="#0e0804"/>
      <stop offset="1.0" stop-color="#0e0804"/>
    </radialGradient>
    <radialGradient cx="0" cy="0" gradientTransform="matrix(0.0081, 0.0, 0.0, 0.0081, 12.6, -37.3)" gradientUnits="userSpaceOnUse" id="gradient36" r="819.2" spreadMethod="pad">
      <stop offset="0.0" stop-color="#543018"/>
      <stop offset="1.0" stop-color="#341e0f"/>
    </radialGradient>
    <radialGradient cx="0" cy="0" gradientTransform="matrix(0.0047, 0.0, 0.0, 0.0047, 3.1, -45.9)" gradientUnits="userSpaceOnUse" id="gradient37" r="819.2" spreadMethod="pad">
      <stop offset="0.0" stop-color="#fff3c5"/>
      <stop offset="1.0" stop-color="#7c755f"/>
    </radialGradient>
    <radialGradient cx="0" cy="0" gradientTransform="matrix(0.0078, 0.0, 0.0, 0.0078, 0.65, -41.5)" gradientUnits="userSpaceOnUse" id="gradient38" r="819.2" spreadMethod="pad">
      <stop offset="0.0" stop-color="#fe3838"/>
      <stop offset="1.0" stop-color="#a02323"/>
    </radialGradient>
    <radialGradient cx="0" cy="0" gradientTransform="matrix(0.0067, 0.0, 0.0, 0.0067, 9.4, -36.95)" gradientUnits="userSpaceOnUse" id="gradient39" r="819.2" spreadMethod="pad">
      <stop offset="0.0" stop-color="#5b341a"/>
      <stop offset="1.0" stop-color="#412513"/>
    </radialGradient>
    <radialGradient cx="0" cy="0" gradientTransform="matrix(0.0147, 0.0, 0.0, 0.0147, 4.45, -33.2)" gradientUnits="userSpaceOnUse" id="gradient40" r="819.2" spreadMethod="pad">
      <stop offset="0.0" stop-color="#311c0e"/>
      <stop offset="1.0" stop-color="#27170b"/>
    </radialGradient>
    <radialGradient cx="0" cy="0" gradientTransform="matrix(0.007, 0.0, 0.0, 0.007, 7.7, -31.95)" gradientUnits="userSpaceOnUse" id="gradient41" r="819.2" spreadMethod="pad">
      <stop offset="0.0" stop-color="#ffffcf"/>
      <stop offset="1.0" stop-color="#afa687"/>
    </radialGradient>
    <radialGradient cx="0" cy="0" gradientTransform="matrix(0.0042, 0.0, 0.0, 0.0042, 4.5, -33.05)" gradientUnits="userSpaceOnUse" id="gradient42" r="819.2" spreadMethod="pad">
      <stop offset="0.0" stop-color="#29170c"/>
      <stop offset="1.0" stop-color="#0e0804"/>
    </radialGradient>
    <radialGradient cx="0" cy="0" gradientTransform="matrix(0.0078, 0.0, 0.0, 0.0078, 0.4, -40.35)" gradientUnits="userSpaceOnUse" id="gradient43" r="819.2" spreadMethod="pad">
      <stop offset="0.0" stop-color="#ffdd81"/>
      <stop offset="1.0" stop-color="#bc844d"/>
    </radialGradient>
    <radialGradient cx="0" cy="0" gradientTransform="matrix(0.0036, 0.0, 0.0, 0.0036, 2.65, -34.35)" gradientUnits="userSpaceOnUse" id="gradient44" r="819.2" spreadMethod="pad">
      <stop offset="0.0" stop-color="#615b47"/>
      <stop offset="1.0" stop-color="#383428"/>
    </radialGradient>
    <radialGradient cx="0" cy="0" gradientTransform="matrix(0.0029, 0.0, 0.0, 0.0029, 1.95, -35.7)" gradientUnits="userSpaceOnUse" id="gradient45" r="819.2" spreadMethod="pad">
      <stop offset="0.0" stop-color="#ffeb89"/>
      <stop offset="1.0" stop-color="#b17d49"/>
    </radialGradient>
    <radialGradient cx="0" cy="0" gradientTransform="matrix(0.0047, 0.0, 0.0, 0.0047, 3.95, -33.2)" gradientUnits="userSpaceOnUse" id="gradient46" r="819.2" spreadMethod="pad">
      <stop offset="0.0" stop-color="#2a180c"/>
      <stop offset="1.0" stop-color="#0e0804"/>
    </radialGradient>
    <radialGradient cx="0" cy="0" gradientTransform="matrix(0.0459, 0.0, 0.0, 0.0459, -35.2, -28.55)" gradientUnits="userSpaceOnUse" id="gradient47" r="819.2" spreadMethod="pad">
      <stop offset="0.0" stop-color="#e47200"/>
      <stop offset="1.0" stop-color="#b35a00"/>
    </radialGradient>
    <radialGradient cx="0" cy="0" gradientTransform="matrix(0.0038, 0.0, 0.0, 0.0038, 2.3, -30.45)" gradientUnits="userSpaceOnUse" id="gradient48" r="819.2" spreadMethod="pad">
      <stop offset="0.0" stop-color="#1f1e18"/>
      <stop offset="1.0" stop-color="#1f1e18"/>
    </radialGradient>
    <radialGradient cx="0" cy="0" gradientTransform="matrix(7.0E-4, 0.0, 0.0, 7.0E-4, 2.8, -32.05)" gradientUnits="userSpaceOnUse" id="gradient49" r="819.2" spreadMethod="pad">
      <stop offset="0.0" stop-color="#9c9478"/>
      <stop offset="1.0" stop-color="#8c856d"/>
    </radialGradient>
    <radialGradient cx="0" cy="0" gradientTransform="matrix(0.0104, 0.0, 0.0, 0.0104, 7.7, -30.95)" gradientUnits="userSpaceOnUse" id="gradient50" r="819.2" spreadMethod="pad">
      <stop offset="0.0" stop-color="#7c4624"/>
      <stop offset="1.0" stop-color="#4b2b16"/>
    </radialGradient>
    <radialGradient cx="0" cy="0" gradientTransform="matrix(0.0043, 0.0, 0.0, 0.0043, 2.75, -29.05)" gradientUnits="userSpaceOnUse" id="gradient51" r="819.2" spreadMethod="pad">
      <stop offset="0.0" stop-color="#211f19"/>
      <stop offset="1.0" stop-color="#1f1e18"/>
    </radialGradient>
    <radialGradient cx="0" cy="0" gradientTransform="matrix(0.0142, 0.0, 0.0, 0.0142, 6.9, -25.6)" gradientUnits="userSpaceOnUse" id="gradient52" r="819.2" spreadMethod="pad">
      <stop offset="0.0" stop-color="#fdf0c3"/>
      <stop offset="1.0" stop-color="#999276"/>
    </radialGradient>
    <radialGradient cx="0" cy="0" gradientTransform="matrix(0.0179, 0.0, 0.0, 0.0179, 5.55, -28.75)" gradientUnits="userSpaceOnUse" id="gradient53" r="819.2" spreadMethod="pad">
      <stop offset="0.0" stop-color="#ff3c3c"/>
      <stop offset="1.0" stop-color="#972121"/>
    </radialGradient>
    <radialGradient cx="0" cy="0" gradientTransform="matrix(0.0015, 0.0, 0.0, 0.0015, 14.95, -34.95)" gradientUnits="userSpaceOnUse" id="gradient54" r="819.2" spreadMethod="pad">
      <stop offset="0.0" stop-color="#0e0804"/>
      <stop offset="1.0" stop-color="#0e0804"/>
    </radialGradient>
    <radialGradient cx="0" cy="0" gradientTransform="matrix(0.0012, 0.0, 0.0, 0.0012, 16.2, -32.55)" gradientUnits="userSpaceOnUse" id="gradient55" r="819.2" spreadMethod="pad">
      <stop offset="0.0" stop-color="#8c846c"/>
      <stop offset="1.0" stop-color="#807a63"/>
    </radialGradient>
    <radialGradient cx="0" cy="0" gradientTransform="matrix(0.003, 0.0, 0.0, 0.003, 16.35, -31.55)" gradientUnits="userSpaceOnUse" id="gradient56" r="819.2" spreadMethod="pad">
      <stop offset="0.0" stop-color="#8b846b"/>
      <stop offset="1.0" stop-color="#7d7660"/>
    </radialGradient>
    <radialGradient cx="0" cy="0" gradientTransform="matrix(0.0121, 0.0, 0.0, 0.0121, 15.75, -29.7)" gradientUnits="userSpaceOnUse" id="gradient57" r="819.2" spreadMethod="pad">
      <stop offset="0.0" stop-color="#ae2727"/>
      <stop offset="1.0" stop-color="#7e1c1c"/>
    </radialGradient>
    <radialGradient cx="0" cy="0" gradientTransform="matrix(0.0023, 0.0, 0.0, 0.0023, 16.5, -30.65)" gradientUnits="userSpaceOnUse" id="gradient58" r="819.2" spreadMethod="pad">
      <stop offset="0.0" stop-color="#837d65"/>
      <stop offset="1.0" stop-color="#817a63"/>
    </radialGradient>
    <radialGradient cx="0" cy="0" gradientTransform="matrix(0.001, 0.0, 0.0, 0.001, 16.45, -31.8)" gradientUnits="userSpaceOnUse" id="gradient59" r="819.2" spreadMethod="pad">
      <stop offset="0.0" stop-color="#918a70"/>
      <stop offset="1.0" stop-color="#8c846c"/>
    </radialGradient>
    <radialGradient cx="0" cy="0" gradientTransform="matrix(0.0034, 0.0, 0.0, 0.0034, 12.65, -33.35)" gradientUnits="userSpaceOnUse" id="gradient60" r="819.2" spreadMethod="pad">
      <stop offset="0.0" stop-color="#ffffcf"/>
      <stop offset="1.0" stop-color="#a9a183"/>
    </radialGradient>
    <radialGradient cx="0" cy="0" gradientTransform="matrix(0.0088, 0.0, 0.0, 0.0088, 12.05, -23.15)" gradientUnits="userSpaceOnUse" id="gradient61" r="819.2" spreadMethod="pad">
      <stop offset="0.0" stop-color="#b92929"/>
      <stop offset="1.0" stop-color="#731919"/>
    </radialGradient>
    <radialGradient cx="0" cy="0" gradientTransform="matrix(0.0072, 0.0, 0.0, 0.0072, 16.5, -20.05)" gradientUnits="userSpaceOnUse" id="gradient62" r="819.2" spreadMethod="pad">
      <stop offset="0.0" stop-color="#bd2a2a"/>
      <stop offset="1.0" stop-color="#861d1d"/>
    </radialGradient>
    <radialGradient cx="0" cy="0" gradientTransform="matrix(0.0096, 0.0, 0.0, 0.0096, 13.4, -17.85)" gradientUnits="userSpaceOnUse" id="gradient63" r="819.2" spreadMethod="pad">
      <stop offset="0.0" stop-color="#cf2e2e"/>
      <stop offset="1.0" stop-color="#6f1818"/>
    </radialGradient>
    <radialGradient cx="0" cy="0" gradientTransform="matrix(0.0134, 0.0, 0.0, 0.0134, 9.0, -23.5)" gradientUnits="userSpaceOnUse" id="gradient64" r="819.2" spreadMethod="pad">
      <stop offset="0.0" stop-color="#c42c2c"/>
      <stop offset="1.0" stop-color="#771a1a"/>
    </radialGradient>
    <radialGradient cx="0" cy="0" gradientTransform="matrix(0.0058, 0.0, 0.0, 0.0058, 9.6, -14.3)" gradientUnits="userSpaceOnUse" id="gradient65" r="819.2" spreadMethod="pad">
      <stop offset="0.0" stop-color="#b62828"/>
      <stop offset="1.0" stop-color="#7f1c1c"/>
    </radialGradient>
    <radialGradient cx="0" cy="0" gradientTransform="matrix(0.0119, 0.0, 0.0, 0.0119, 17.45, -17.45)" gradientUnits="userSpaceOnUse" id="gradient66" r="819.2" spreadMethod="pad">
      <stop offset="0.0" stop-color="#9f2323"/>
      <stop offset="1.0" stop-color="#641616"/>
    </radialGradient>
    <radialGradient cx="0" cy="0" gradientTransform="matrix(0.0124, 0.0, 0.0, 0.0124, 4.2, -16.55)" gradientUnits="userSpaceOnUse" id="gradient67" r="819.2" spreadMethod="pad">
      <stop offset="0.0" stop-color="#cf2e2e"/>
      <stop offset="1.0" stop-color="#912020"/>
    </radialGradient>
    <radialGradient cx="0" cy="0" gradientTransform="matrix(0.0133, 0.0, 0.0, 0.0133, 6.2, -14.0)" gradientUnits="userSpaceOnUse" id="gradient68" r="819.2" spreadMethod="pad">
      <stop offset="0.0" stop-color="#f23636"/>
      <stop offset="1.0" stop-color="#781b1b"/>
    </radialGradient>
    <radialGradient cx="0" cy="0" gradientTransform="matrix(0.0074, 0.0, 0.0, 0.0074, 6.4, -0.5)" gradientUnits="userSpaceOnUse" id="gradient69" r="819.2" spreadMethod="pad">
      <stop offset="0.0" stop-color="#543018"/>
      <stop offset="1.0" stop-color="#472914"/>
    </radialGradient>
    <radialGradient cx="0" cy="0" gradientTransform="matrix(0.0433, 0.0, 0.0, 0.0433, 11.7, -0.5)" gradientUnits="userSpaceOnUse" id="gradient70" r="819.2" spreadMethod="pad">
      <stop offset="0.0" stop-color="#e57300"/>
      <stop offset="1.0" stop-color="#aa5500"/>
    </radialGradient>
    <radialGradient cx="0" cy="0" gradientTransform="matrix(0.0087, 0.0, 0.0, 0.0087, 6.05, -5.75)" gradientUnits="userSpaceOnUse" id="gradient71" r="819.2" spreadMethod="pad">
      <stop offset="0.0" stop-color="#c02b2b"/>
      <stop offset="1.0" stop-color="#861d1d"/>
    </radialGradient>
    <radialGradient cx="0" cy="0" gradientTransform="matrix(0.0061, 0.0, 0.0, 0.0061, 14.8, -8.2)" gradientUnits="userSpaceOnUse" id="gradient72" r="819.2" spreadMethod="pad">
      <stop offset="0.0" stop-color="#3f2412"/>
      <stop offset="1.0" stop-color="#371f10"/>
    </radialGradient>
    <radialGradient cx="0" cy="0" gradientTransform="matrix(0.0032, 0.0, 0.0, 0.0032, 12.6, -7.0)" gradientUnits="userSpaceOnUse" id="gradient73" r="819.2" spreadMethod="pad">
      <stop offset="0.0" stop-color="#0e0804"/>
      <stop offset="1.0" stop-color="#0e0804"/>
    </radialGradient>
    <radialGradient cx="0" cy="0" gradientTransform="matrix(0.0038, 0.0, 0.0, 0.0038, 12.8, -9.7)" gradientUnits="userSpaceOnUse" id="gradient74" r="819.2" spreadMethod="pad">
      <stop offset="0.0" stop-color="#6b654e"/>
      <stop offset="1.0" stop-color="#484435"/>
    </radialGradient>
    <radialGradient cx="0" cy="0" gradientTransform="matrix(0.0051, 0.0, 0.0, 0.0051, 16.0, -6.5)" gradientUnits="userSpaceOnUse" id="gradient75" r="819.2" spreadMethod="pad">
      <stop offset="0.0" stop-color="#706951"/>
      <stop offset="1.0" stop-color="#413d2f"/>
    </radialGradient>
    <radialGradient cx="0" cy="0" gradientTransform="matrix(0.0051, 0.0, 0.0, 0.0051, 5.6, 3.25)" gradientUnits="userSpaceOnUse" id="gradient76" r="819.2" spreadMethod="pad">
      <stop offset="0.0" stop-color="#756d55"/>
      <stop offset="1.0" stop-color="#373328"/>
    </radialGradient>
    <radialGradient cx="0" cy="0" gradientTransform="matrix(0.0057, 0.0, 0.0, 0.0057, 2.9, 5.7)" gradientUnits="userSpaceOnUse" id="gradient77" r="819.2" spreadMethod="pad">
      <stop offset="0.0" stop-color="#756d55"/>
      <stop offset="1.0" stop-color="#494434"/>
    </radialGradient>
    <radialGradient cx="0" cy="0" gradientTransform="matrix(0.0272, 0.0, 0.0, 0.0272, -20.2, -48.3)" gradientUnits="userSpaceOnUse" id="gradient78" r="819.2" spreadMethod="pad">
      <stop offset="0.0" stop-color="#e27100"/>
      <stop offset="1.0" stop-color="#ad5700"/>
    </radialGradient>
    <radialGradient cx="0" cy="0" gradientTransform="matrix(0.007, 0.0, 0.0, 0.007, -3.55, -54.85)" gradientUnits="userSpaceOnUse" id="gradient79" r="819.2" spreadMethod="pad">
      <stop offset="0.0" stop-color="#b25a00"/>
      <stop offset="1.0" stop-color="#8b4600"/>
    </radialGradient>
    <radialGradient cx="0" cy="0" gradientTransform="matrix(0.009, 0.0, 0.0, 0.009, -4.65, -38.15)" gradientUnits="userSpaceOnUse" id="gradient80" r="819.2" spreadMethod="pad">
      <stop offset="0.0" stop-color="#ffd27a"/>
      <stop offset="1.0" stop-color="#bc854e"/>
    </radialGradient>
    <radialGradient cx="0" cy="0" gradientTransform="matrix(0.0083, 0.0, 0.0, 0.0083, -3.3, -36.65)" gradientUnits="userSpaceOnUse" id="gradient81" r="819.2" spreadMethod="pad">
      <stop offset="0.0" stop-color="#ffe384"/>
      <stop offset="1.0" stop-color="#b27d49"/>
    </radialGradient>
    <radialGradient cx="0" cy="0" gradientTransform="matrix(0.0092, 0.0, 0.0, 0.0092, -8.7, -32.35)" gradientUnits="userSpaceOnUse" id="gradient82" r="819.2" spreadMethod="pad">
      <stop offset="0.0" stop-color="#645d48"/>
      <stop offset="1.0" stop-color="#413d2f"/>
    </radialGradient>
    <radialGradient cx="0" cy="0" gradientTransform="matrix(0.0017, 0.0, 0.0, 0.0017, -15.0, -30.85)" gradientUnits="userSpaceOnUse" id="gradient83" r="819.2" spreadMethod="pad">
      <stop offset="0.0" stop-color="#ffd079"/>
      <stop offset="1.0" stop-color="#a07041"/>
    </radialGradient>
    <radialGradient cx="0" cy="0" gradientTransform="matrix(0.0132, 0.0, 0.0, 0.0132, -17.8, -32.5)" gradientUnits="userSpaceOnUse" id="gradient84" r="819.2" spreadMethod="pad">
      <stop offset="0.0" stop-color="#6e6750"/>
      <stop offset="1.0" stop-color="#58523f"/>
    </radialGradient>
    <radialGradient cx="0" cy="0" gradientTransform="matrix(0.0036, 0.0, 0.0, 0.0036, -20.2, -33.85)" gradientUnits="userSpaceOnUse" id="gradient85" r="819.2" spreadMethod="pad">
      <stop offset="0.0" stop-color="#1a0d00"/>
      <stop offset="1.0" stop-color="#1a0d00"/>
    </radialGradient>
    <radialGradient cx="0" cy="0" gradientTransform="matrix(0.0043, 0.0, 0.0, 0.0043, -16.9, -29.0)" gradientUnits="userSpaceOnUse" id="gradient86" r="819.2" spreadMethod="pad">
      <stop offset="0.0" stop-color="#6d664f"/>
      <stop offset="1.0" stop-color="#322f24"/>
    </radialGradient>
    <radialGradient cx="0" cy="0" gradientTransform="matrix(0.0045, 0.0, 0.0, 0.0045, -1.0, -35.35)" gradientUnits="userSpaceOnUse" id="gradient87" r="819.2" spreadMethod="pad">
      <stop offset="0.0" stop-color="#e09e5c"/>
      <stop offset="1.0" stop-color="#835c36"/>
    </radialGradient>
    <radialGradient cx="0" cy="0" gradientTransform="matrix(0.0085, 0.0, 0.0, 0.0085, -2.35, -34.6)" gradientUnits="userSpaceOnUse" id="gradient88" r="819.2" spreadMethod="pad">
      <stop offset="0.0" stop-color="#202020"/>
      <stop offset="1.0" stop-color="#202020"/>
    </radialGradient>
    <radialGradient cx="0" cy="0" gradientTransform="matrix(0.0035, 0.0, 0.0, 0.0035, -3.55, -31.95)" gradientUnits="userSpaceOnUse" id="gradient89" r="819.2" spreadMethod="pad">
      <stop offset="0.0" stop-color="#d79858"/>
      <stop offset="1.0" stop-color="#755330"/>
    </radialGradient>
    <radialGradient cx="0" cy="0" gradientTransform="matrix(0.0028, 0.0, 0.0, 0.0028, -7.35, -32.1)" gradientUnits="userSpaceOnUse" id="gradient90" r="819.2" spreadMethod="pad">
      <stop offset="0.0" stop-color="#ffba6c"/>
      <stop offset="1.0" stop-color="#a67544"/>
    </radialGradient>
    <radialGradient cx="0" cy="0" gradientTransform="matrix(0.0056, 0.0, 0.0, 0.0056, -35.45, -29.55)" gradientUnits="userSpaceOnUse" id="gradient91" r="819.2" spreadMethod="pad">
      <stop offset="0.0" stop-color="#efefef"/>
      <stop offset="1.0" stop-color="#eeeeee"/>
    </radialGradient>
  </defs>
</svg>
