<?xml version="1.0" encoding="UTF-8" standalone="no"?>
<svg xmlns:ffdec="https://www.free-decompiler.com/flash" xmlns:xlink="http://www.w3.org/1999/xlink" ffdec:objectType="shape" height="23.15px" width="39.05px" xmlns="http://www.w3.org/2000/svg">
  <g transform="matrix(1.0, 0.0, 0.0, 1.0, 19.55, 11.6)">
    <path d="M13.5 8.75 L15.45 9.15 15.75 9.25 15.25 9.45 15.05 9.85 13.65 9.0 13.5 8.75 M18.8 11.05 L19.5 11.55 18.85 11.45 18.8 11.05" fill="url(#gradient0)" fill-rule="evenodd" stroke="none"/>
    <path d="M-16.65 -8.65 L-19.55 -11.6 -16.75 -10.75 -16.75 -9.95 -16.35 -9.3 -16.3 -8.7 -16.65 -8.65" fill="url(#gradient1)" fill-rule="evenodd" stroke="none"/>
    <path d="M-16.65 -8.65 L-16.3 -8.7 -16.3 -8.5 -16.65 -8.65" fill="url(#gradient2)" fill-rule="evenodd" stroke="none"/>
    <path d="M-14.8 -8.7 L-14.5 -8.85 -0.4 0.0 -0.05 0.35 -0.05 0.65 -1.25 -0.1 -2.7 -0.65 -14.7 -8.25 -14.8 -8.7" fill="url(#gradient3)" fill-rule="evenodd" stroke="none"/>
  </g>
  <defs>
    <radialGradient cx="0" cy="0" gradientTransform="matrix(0.0054, 0.0, 0.0, 0.0054, 16.35, 10.85)" gradientUnits="userSpaceOnUse" id="gradient0" r="819.2" spreadMethod="pad">
      <stop offset="0.0" stop-color="#202020"/>
      <stop offset="1.0" stop-color="#202020"/>
    </radialGradient>
    <radialGradient cx="0" cy="0" gradientTransform="matrix(0.0049, 0.0, 0.0, 0.0049, -15.85, -10.5)" gradientUnits="userSpaceOnUse" id="gradient1" r="819.2" spreadMethod="pad">
      <stop offset="0.0" stop-color="#fbfbfb"/>
      <stop offset="1.0" stop-color="#f8f8f8"/>
    </radialGradient>
    <radialGradient cx="0" cy="0" gradientTransform="matrix(0.0018, 0.0, 0.0, 0.0018, -15.25, -9.05)" gradientUnits="userSpaceOnUse" id="gradient2" r="819.2" spreadMethod="pad">
      <stop offset="0.0" stop-color="#5c5c5c"/>
      <stop offset="1.0" stop-color="#5b5b5b"/>
    </radialGradient>
    <radialGradient cx="0" cy="0" gradientTransform="matrix(0.0474, 0.0, 0.0, 0.0474, 16.55, 11.0)" gradientUnits="userSpaceOnUse" id="gradient3" r="819.2" spreadMethod="pad">
      <stop offset="0.0" stop-color="#cb6600"/>
      <stop offset="1.0" stop-color="#ad5700"/>
    </radialGradient>
  </defs>
</svg>
