<?xml version="1.0" encoding="UTF-8" standalone="no"?>
<svg xmlns:ffdec="https://www.free-decompiler.com/flash" xmlns:xlink="http://www.w3.org/1999/xlink" ffdec:objectType="shape" height="72.5px" width="25.0px" xmlns="http://www.w3.org/2000/svg">
  <g transform="matrix(1.0, 0.0, 0.0, 1.0, 12.5, 60.0)">
    <path d="M-12.5 0.0 Q-12.55 -24.75 -8.85 -42.35 -6.85 -52.15 -4.3 -56.5 -2.3 -60.0 0.0 -60.0 2.25 -60.0 4.25 -56.5 6.75 -52.15 8.8 -42.35 12.45 -24.75 12.5 0.0 L-12.5 0.0" fill="url(#gradient0)" fill-rule="evenodd" stroke="none"/>
    <path d="M12.5 0.0 Q12.45 5.15 8.8 8.85 5.15 12.5 0.0 12.5 -5.2 12.5 -8.85 8.85 -12.55 5.15 -12.5 0.0 L12.5 0.0" fill="url(#gradient1)" fill-rule="evenodd" stroke="none"/>
  </g>
  <defs>
    <radialGradient cx="0" cy="0" gradientTransform="matrix(0.0153, 0.0, 0.0, 0.0732, -0.05, 0.0)" gradientUnits="userSpaceOnUse" id="gradient0" r="819.2" spreadMethod="pad">
      <stop offset="0.34509803921568627" stop-color="#ffffff"/>
      <stop offset="0.5607843137254902" stop-color="#00ffcc" stop-opacity="0.5019608"/>
      <stop offset="1.0" stop-color="#00ffcc" stop-opacity="0.0"/>
    </radialGradient>
    <radialGradient cx="0" cy="0" gradientTransform="matrix(0.0153, 0.0, 0.0, -0.0153, -0.05, 0.0)" gradientUnits="userSpaceOnUse" id="gradient1" r="819.2" spreadMethod="pad">
      <stop offset="0.34509803921568627" stop-color="#ffffff"/>
      <stop offset="0.5607843137254902" stop-color="#00ffcc" stop-opacity="0.5019608"/>
      <stop offset="1.0" stop-color="#00ffcc" stop-opacity="0.0"/>
    </radialGradient>
  </defs>
</svg>
