<?xml version="1.0" encoding="UTF-8" standalone="no"?>
<svg xmlns:ffdec="https://www.free-decompiler.com/flash" xmlns:xlink="http://www.w3.org/1999/xlink" ffdec:objectType="shape" height="68.05px" width="32.2px" xmlns="http://www.w3.org/2000/svg">
  <g transform="matrix(1.0, 0.0, 0.0, 1.0, 16.7, 57.85)">
    <path d="M2.8 -51.65 L2.8 -51.05 2.7 -49.55 Q2.3 -48.9 0.75 -47.7 L0.7 -47.65 0.45 -47.55 0.4 -47.55 -3.05 -47.0 -4.95 -47.35 Q-4.0 -49.3 -6.4 -48.7 -7.85 -51.4 -7.7 -53.65 L-6.4 -55.45 -3.1 -56.4 0.6 -55.65 2.8 -53.35 2.8 -53.25 2.8 -51.65" fill="url(#gradient0)" fill-rule="evenodd" stroke="none"/>
    <path d="M2.8 -53.25 L3.0 -52.85 3.0 -52.35 2.8 -51.65 2.8 -53.25" fill="url(#gradient1)" fill-rule="evenodd" stroke="none"/>
    <path d="M2.95 -50.4 Q5.75 -50.0 5.65 -46.2 L5.65 -46.25 5.45 -46.4 5.3 -47.15 4.55 -48.45 3.8 -49.15 2.95 -49.4 2.95 -50.05 2.95 -50.4" fill="url(#gradient2)" fill-rule="evenodd" stroke="none"/>
    <path d="M2.8 -51.05 L2.95 -50.4 2.95 -50.05 Q2.65 -48.55 0.75 -47.7 2.3 -48.9 2.7 -49.55 L2.8 -51.05 M-8.6 -50.7 L-8.4 -51.1 -8.25 -50.65 -8.6 -50.7 M0.4 -47.55 Q-0.55 -46.45 -5.55 -46.95 L-5.25 -47.35 -4.95 -47.35 -3.05 -47.0 0.4 -47.55 M-7.25 -48.45 L-7.1 -48.2 -6.7 -48.05 -6.95 -47.5 -8.2 -48.35 -8.55 -48.9 -7.25 -48.45" fill="url(#gradient3)" fill-rule="evenodd" stroke="none"/>
    <path d="M8.85 -43.5 Q9.5 -43.8 10.2 -43.5 L11.55 -42.25 13.2 -40.1 Q13.5 -39.55 13.05 -38.45 L12.6 -38.6 12.2 -38.4 10.35 -37.25 7.4 -35.15 5.9 -33.75 5.85 -33.75 4.35 -33.3 2.6 -35.05 2.6 -35.15 Q2.4 -41.3 8.85 -43.5" fill="url(#gradient4)" fill-rule="evenodd" stroke="none"/>
    <path d="M13.05 -38.45 L15.05 -35.45 Q15.3 -35.0 14.85 -33.75 11.4 -30.25 8.25 -31.05 L7.55 -31.3 5.9 -33.7 5.9 -33.75 7.4 -35.15 10.35 -37.25 12.2 -38.4 12.6 -38.6 13.05 -38.45" fill="url(#gradient5)" fill-rule="evenodd" stroke="none"/>
    <path d="M6.65 -44.55 L8.0 -44.25 8.85 -43.5 Q2.4 -41.3 2.6 -35.15 L2.6 -35.05 1.9 -34.85 -0.15 -36.9 Q-1.25 -42.5 6.4 -44.5 L6.65 -44.55" fill="url(#gradient6)" fill-rule="evenodd" stroke="none"/>
    <path d="M5.65 -46.2 L6.65 -44.55 6.4 -44.5 Q4.0 -44.75 1.1 -43.4 L2.7 -45.1 4.15 -45.8 5.45 -46.2 5.65 -46.25 5.65 -46.2 M14.05 -29.45 Q10.9 -12.5 11.5 -13.1 L10.95 -11.9 8.8 -7.4 Q7.35 -4.65 5.45 -3.9 L4.7 -3.45 2.5 -3.2 2.35 -3.25 1.8 -3.35 0.2 -3.9 -0.2 -4.0 -2.35 -5.9 -2.45 -6.05 -2.2 -7.3 -1.9 -8.1 -2.0 -8.35 -2.0 -8.85 Q-2.8 -9.9 -3.15 -11.5 L-3.2 -11.6 -3.3 -12.25 -3.2 -14.0 -3.2 -14.05 -3.15 -14.35 -2.45 -17.3 Q-1.65 -18.95 -0.85 -19.7 L-0.55 -20.05 -0.5 -20.15 -0.45 -20.2 -0.35 -20.3 -0.3 -20.3 -0.3 -20.35 -0.3 -20.4 0.7 -21.65 0.2 -22.0 -0.25 -22.35 -3.0 -24.35 -3.65 -24.95 -4.55 -26.35 -4.85 -27.2 -5.4 -28.35 -5.75 -30.3 -5.95 -31.45 -6.05 -31.75 -7.05 -34.15 -7.15 -34.4 -7.35 -35.1 -7.35 -35.15 -7.45 -35.35 -7.7 -36.5 -7.85 -36.95 -8.05 -38.0 -8.8 -39.4 -7.5 -43.15 -7.0 -43.65 Q-9.2 -33.05 -2.45 -39.8 L-2.7 -39.0 -2.8 -37.85 Q-3.65 -36.3 -2.25 -35.95 L-1.85 -36.4 -1.55 -36.3 -1.0 -36.45 Q-0.6 -36.7 -0.15 -36.9 L1.9 -34.85 2.6 -35.05 4.35 -33.3 5.85 -33.75 5.9 -33.7 7.55 -31.3 8.25 -31.05 Q10.35 -27.2 14.05 -29.45 M-8.5 -43.95 L-8.5 -44.0 -8.45 -44.05 -8.25 -44.7 -8.2 -44.7 -8.05 -43.95 -8.85 -40.15 -8.9 -41.45 -8.7 -41.95 -8.5 -43.95 M3.45 -48.2 L3.6 -48.25 3.6 -48.2 3.45 -48.2 M0.4 -44.3 Q-5.5 -38.1 -5.85 -38.1 -7.3 -41.2 -5.85 -43.9 L-4.65 -42.8 Q-3.95 -42.4 -3.4 -42.45 L-3.05 -42.05 -2.65 -42.05 -2.0 -42.85 -1.0 -43.6 0.4 -44.3" fill="url(#gradient7)" fill-rule="evenodd" stroke="none"/>
    <path d="M5.45 -46.4 L5.65 -46.25 5.45 -46.2 5.25 -46.5 5.45 -46.4" fill="url(#gradient8)" fill-rule="evenodd" stroke="none"/>
    <path d="M5.25 -46.5 L5.45 -46.2 4.15 -45.8 3.15 -46.55 3.2 -47.0 3.3 -47.55 3.05 -48.15 3.9 -47.8 4.5 -47.2 4.65 -46.95 4.7 -46.7 5.25 -46.5 M3.05 -47.35 L2.85 -47.55 2.9 -48.1 3.05 -47.35 M-3.25 -14.05 L-3.2 -14.05 -3.2 -14.0 -3.25 -14.05 M-3.2 -11.6 L-3.15 -11.5 -3.2 -11.5 -3.2 -11.6" fill="url(#gradient9)" fill-rule="evenodd" stroke="none"/>
    <path d="M2.95 -49.4 L3.8 -49.15 4.55 -48.45 4.75 -48.0 4.75 -47.3 4.65 -46.95 4.5 -47.2 4.4 -47.9 4.15 -48.15 3.6 -48.25 3.45 -48.2 3.05 -48.15 2.9 -48.15 2.95 -49.4" fill="url(#gradient10)" fill-rule="evenodd" stroke="none"/>
    <path d="M-8.55 -47.2 L-8.6 -47.35 -8.6 -48.1 -8.7 -48.15 -8.7 -49.0 -8.55 -48.9 -8.2 -48.35 -6.95 -47.5 -7.6 -45.4 -7.8 -45.55 -8.1 -45.85 -8.45 -46.45 -8.5 -47.0 -8.55 -47.2 M2.95 -50.05 L2.95 -49.4 2.9 -48.15 2.9 -48.1 2.85 -47.55 2.7 -46.75 Q2.3 -45.95 1.55 -45.55 L1.45 -45.4 -0.2 -44.5 Q-2.65 -43.4 -6.2 -44.45 L-6.6 -44.65 -6.8 -44.7 -5.95 -46.45 -5.55 -46.95 Q-0.55 -46.45 0.4 -47.55 L0.45 -47.55 0.7 -47.65 0.75 -47.7 Q2.65 -48.55 2.95 -50.05" fill="url(#gradient11)" fill-rule="evenodd" stroke="none"/>
    <path d="M2.9 -48.1 L2.9 -48.15 3.05 -48.15 3.3 -47.55 3.2 -47.0 3.05 -47.35 2.9 -48.1" fill="url(#gradient12)" fill-rule="evenodd" stroke="none"/>
    <path d="M3.05 -48.15 L3.45 -48.2 3.6 -48.2 3.7 -48.2 3.9 -47.8 3.05 -48.15" fill="url(#gradient13)" fill-rule="evenodd" stroke="none"/>
    <path d="M2.7 -45.1 L1.1 -43.4 1.05 -43.35 Q-0.65 -42.5 -1.6 -41.25 L-2.45 -39.8 Q-9.2 -33.05 -7.0 -43.65 L-6.6 -44.65 -6.2 -44.45 -5.85 -43.9 Q-7.3 -41.2 -5.85 -38.1 -5.5 -38.1 0.4 -44.3 L1.45 -45.4 1.55 -45.55 Q2.3 -45.95 2.7 -46.75 L2.85 -47.55 3.05 -47.35 3.2 -47.0 3.15 -46.55 3.15 -46.0 2.85 -45.55 2.7 -45.1" fill="url(#gradient14)" fill-rule="evenodd" stroke="none"/>
    <path d="M1.45 -45.4 L0.4 -44.3 -1.0 -43.6 -0.2 -44.5 1.45 -45.4" fill="url(#gradient15)" fill-rule="evenodd" stroke="none"/>
    <path d="M1.05 -43.35 L1.1 -43.4 1.1 -43.35 1.05 -43.35" fill="url(#gradient16)" fill-rule="evenodd" stroke="none"/>
    <path d="M6.4 -44.5 Q-1.25 -42.5 -0.15 -36.9 -0.6 -36.7 -1.0 -36.45 L-1.55 -36.3 -1.85 -36.4 -1.85 -36.65 -1.85 -37.15 -2.0 -37.5 -2.8 -37.85 -2.7 -39.0 -2.45 -39.8 -1.6 -41.25 Q-0.65 -42.5 1.05 -43.35 L1.1 -43.35 1.1 -43.4 Q4.0 -44.75 6.4 -44.5" fill="url(#gradient17)" fill-rule="evenodd" stroke="none"/>
    <path d="M4.15 -45.8 L2.7 -45.1 2.85 -45.55 3.15 -46.0 3.15 -46.55 4.15 -45.8 M-2.0 -42.85 L-2.65 -42.05 -3.05 -42.05 -3.4 -42.45 -2.7 -42.55 -2.0 -42.85 M-5.75 -30.3 L-5.4 -28.35 -5.85 -29.6 -5.9 -29.9 -5.9 -30.35 -5.75 -30.3 M-4.55 -26.35 L-3.65 -24.95 -3.65 -24.9 -4.2 -25.1 -4.6 -25.6 -4.55 -26.35" fill="url(#gradient18)" fill-rule="evenodd" stroke="none"/>
    <path d="M5.9 -33.75 L5.9 -33.7 5.85 -33.75 5.9 -33.75" fill="url(#gradient19)" fill-rule="evenodd" stroke="none"/>
    <path d="M14.85 -33.75 L15.3 -31.4 Q15.35 -30.55 14.05 -29.45 10.35 -27.2 8.25 -31.05 11.4 -30.25 14.85 -33.75" fill="url(#gradient20)" fill-rule="evenodd" stroke="none"/>
    <path d="M0.0 -22.0 L0.2 -22.0 0.7 -21.65 -0.3 -20.4 -0.2 -21.75 -0.15 -21.9 0.05 -21.85 0.0 -22.0 M-4.6 -25.6 L-4.2 -25.1 -3.65 -24.9 -3.45 -24.05 -3.1 -23.55 Q-3.35 -22.4 -0.8 -21.45 L-0.85 -20.7 -0.65 -20.15 -0.5 -20.15 -0.55 -20.05 -0.85 -19.7 Q-1.65 -18.95 -2.45 -17.3 L-3.15 -14.35 -3.2 -14.05 -3.25 -14.05 -3.6 -15.05 Q-4.6 -22.35 -4.0 -22.5 L-4.25 -23.75 -5.0 -25.4 -4.6 -25.6" fill="url(#gradient21)" fill-rule="evenodd" stroke="none"/>
    <path d="M0.0 -22.0 L0.05 -21.85 -0.15 -21.9 -0.05 -22.0 0.0 -22.0 M-0.2 -21.75 L-0.3 -20.4 -0.3 -20.35 -0.35 -20.3 -0.45 -20.2 -0.5 -20.15 -0.65 -20.15 -0.85 -20.7 -0.8 -21.45 -0.35 -21.55 -0.2 -21.75" fill="url(#gradient22)" fill-rule="evenodd" stroke="none"/>
    <path d="M0.2 -22.0 L0.0 -22.0 -0.05 -22.0 -0.25 -22.0 -0.25 -22.35 0.2 -22.0 M-3.65 -24.95 L-3.0 -24.35 -3.1 -23.55 -3.45 -24.05 -3.65 -24.9 -3.65 -24.95" fill="url(#gradient23)" fill-rule="evenodd" stroke="none"/>
    <path d="M1.8 -3.35 L0.95 -2.6 0.4 -2.45 Q-0.2 -2.5 -1.2 -3.3 L-2.5 -4.7 -2.5 -4.75 -2.4 -4.7 -2.45 -4.9 -2.65 -5.15 -2.9 -5.65 -2.75 -5.8 -2.35 -5.9 -0.2 -4.0 0.2 -3.9 1.8 -3.35" fill="url(#gradient24)" fill-rule="evenodd" stroke="none"/>
    <path d="M10.95 -11.9 L11.6 -11.3 Q14.15 -9.1 10.65 -3.9 L10.4 -3.6 10.05 -3.4 7.55 -2.7 6.45 -2.6 4.25 -2.6 2.5 -3.2 4.7 -3.45 5.45 -3.9 Q7.35 -4.65 8.8 -7.4 L10.95 -11.9" fill="url(#gradient25)" fill-rule="evenodd" stroke="none"/>
    <path d="M11.6 -11.3 L12.35 -11.2 13.1 -10.6 13.3 -10.35 13.75 -9.45 Q13.95 -8.05 13.75 -7.45 L13.7 -7.35 13.1 -5.55 11.9 -3.7 11.1 -2.85 9.9 -2.1 9.65 -2.05 Q8.45 -1.9 7.35 -2.05 L6.45 -2.6 7.55 -2.7 10.05 -3.4 10.4 -3.6 10.65 -3.9 Q14.15 -9.1 11.6 -11.3" fill="url(#gradient26)" fill-rule="evenodd" stroke="none"/>
    <path d="M10.4 -1.6 L9.65 -2.05 9.9 -2.1 10.4 -1.6" fill="url(#gradient27)" fill-rule="evenodd" stroke="none"/>
    <path d="M13.75 -7.45 Q13.95 -8.05 13.75 -9.45 L13.3 -10.35 Q14.6 -9.7 13.75 -7.45" fill="url(#gradient28)" fill-rule="evenodd" stroke="none"/>
    <path d="M13.1 -10.6 Q17.05 -10.6 14.55 -5.95 L14.05 -5.45 13.5 -5.4 13.1 -5.55 13.7 -7.35 13.75 -7.45 Q14.6 -9.7 13.3 -10.35 L13.1 -10.6 M13.4 -3.9 L13.2 -3.35 11.5 -1.8 12.35 -3.65 13.4 -3.9" fill="url(#gradient29)" fill-rule="evenodd" stroke="none"/>
    <path d="M14.55 -5.95 L15.0 -6.55 15.05 -6.45 14.2 -4.55 13.4 -3.9 12.35 -3.65 11.9 -3.7 13.1 -5.55 13.5 -5.4 14.05 -5.45 14.55 -5.95" fill="url(#gradient30)" fill-rule="evenodd" stroke="none"/>
    <path d="M11.5 -1.8 L10.7 -1.4 10.4 -1.6 9.9 -2.1 11.1 -2.85 11.9 -3.7 12.35 -3.65 11.5 -1.8" fill="url(#gradient31)" fill-rule="evenodd" stroke="none"/>
    <path d="M-8.4 -51.1 L-8.45 -53.0 -8.15 -54.6 -7.3 -56.6 -6.55 -57.85 -6.45 -57.8 -7.25 -55.95 -7.6 -54.6 -7.7 -53.65 Q-7.85 -51.4 -6.4 -48.7 L-6.7 -48.05 -7.1 -48.2 -7.25 -48.45 -7.9 -49.5 -8.25 -50.65 -8.4 -51.1" fill="url(#gradient32)" fill-rule="evenodd" stroke="none"/>
    <path d="M-8.7 -49.0 Q-12.2 -49.15 -13.15 -45.5 -12.75 -49.7 -8.6 -50.7 L-8.25 -50.65 -7.9 -49.5 -7.25 -48.45 -8.55 -48.9 -8.7 -49.0" fill="url(#gradient33)" fill-rule="evenodd" stroke="none"/>
    <path d="M-5.85 -43.9 L-6.2 -44.45 Q-2.65 -43.4 -0.2 -44.5 L-1.0 -43.6 -2.0 -42.85 -2.7 -42.55 -3.4 -42.45 Q-3.95 -42.4 -4.65 -42.8 L-5.85 -43.9" fill="url(#gradient34)" fill-rule="evenodd" stroke="none"/>
    <path d="M-8.9 -39.1 L-9.0 -39.1 -8.95 -39.65 -8.85 -40.15 -8.05 -43.95 -7.6 -45.4 -6.95 -47.5 -6.7 -48.05 -6.4 -48.7 Q-4.0 -49.3 -4.95 -47.35 L-5.25 -47.35 -5.55 -46.95 -5.95 -46.45 -6.8 -44.7 -7.5 -43.15 -8.8 -39.4 -8.9 -39.1" fill="url(#gradient35)" fill-rule="evenodd" stroke="none"/>
    <path d="M-8.6 -47.05 L-8.55 -47.2 -8.5 -47.0 -8.6 -47.05" fill="url(#gradient36)" fill-rule="evenodd" stroke="none"/>
    <path d="M-8.25 -44.7 L-8.6 -45.85 -8.6 -47.05 -8.5 -47.0 -8.45 -46.45 -8.1 -45.85 -8.2 -44.7 -8.25 -44.7" fill="url(#gradient37)" fill-rule="evenodd" stroke="none"/>
    <path d="M-6.6 -44.65 L-7.0 -43.65 -7.5 -43.15 -6.8 -44.7 -6.6 -44.65 M-8.1 -45.85 L-7.8 -45.55 -7.6 -45.4 -8.05 -43.95 -8.2 -44.7 -8.1 -45.85" fill="url(#gradient38)" fill-rule="evenodd" stroke="none"/>
    <path d="M-8.8 -38.8 L-8.9 -39.1 -8.8 -39.4 -8.05 -38.0 -7.85 -36.95 -8.25 -37.25 -8.8 -38.8 M-8.95 -39.65 L-9.0 -41.7 -8.5 -43.95 -8.7 -41.95 -8.9 -41.45 -8.85 -40.15 -8.95 -39.65" fill="url(#gradient39)" fill-rule="evenodd" stroke="none"/>
    <path d="M-7.35 -35.1 Q-9.55 -36.55 -8.8 -38.8 L-8.25 -37.25 -7.85 -36.95 -7.7 -36.5 -8.1 -36.35 -8.1 -36.0 -7.45 -35.35 -7.35 -35.15 -7.35 -35.1" fill="url(#gradient40)" fill-rule="evenodd" stroke="none"/>
    <path d="M-2.8 -37.85 L-2.0 -37.5 -1.85 -37.15 -1.85 -36.65 -2.25 -35.95 Q-3.65 -36.3 -2.8 -37.85" fill="url(#gradient41)" fill-rule="evenodd" stroke="none"/>
    <path d="M-2.25 -35.95 L-1.85 -36.65 -1.85 -36.4 -2.25 -35.95" fill="url(#gradient42)" fill-rule="evenodd" stroke="none"/>
    <path d="M-12.6 -18.6 L-13.15 -18.95 -13.6 -19.9 -13.0 -21.35 -12.75 -23.3 Q-12.15 -25.6 -10.25 -29.45 L-9.35 -32.2 -7.75 -34.15 -7.15 -34.4 -7.05 -34.15 Q-7.4 -31.25 -6.45 -30.8 L-5.9 -30.35 -5.9 -29.9 -6.35 -29.9 -6.6 -29.45 Q-8.6 -27.2 -7.7 -26.45 L-8.35 -25.9 -9.2 -24.75 -10.1 -23.0 -10.95 -21.9 -12.15 -19.75 -12.8 -19.5 -12.4 -19.15 -12.6 -18.6" fill="url(#gradient43)" fill-rule="evenodd" stroke="none"/>
    <path d="M-7.7 -36.5 L-7.45 -35.35 -8.1 -36.0 -8.1 -36.35 -7.7 -36.5" fill="url(#gradient44)" fill-rule="evenodd" stroke="none"/>
    <path d="M-6.05 -31.75 L-5.95 -31.45 -6.3 -31.8 -6.05 -31.75" fill="url(#gradient45)" fill-rule="evenodd" stroke="none"/>
    <path d="M-6.3 -31.8 L-5.95 -31.45 -5.75 -30.3 -5.9 -30.35 -6.45 -30.8 -6.6 -31.55 -6.5 -31.85 -6.3 -31.8" fill="url(#gradient46)" fill-rule="evenodd" stroke="none"/>
    <path d="M-6.05 -31.75 L-6.3 -31.8 -6.5 -31.85 -6.6 -31.55 -6.45 -30.8 Q-7.4 -31.25 -7.05 -34.15 L-6.05 -31.75" fill="url(#gradient47)" fill-rule="evenodd" stroke="none"/>
    <path d="M-4.85 -27.2 L-4.55 -26.35 -4.6 -25.6 -5.0 -25.4 -5.95 -25.55 Q-6.35 -27.0 -4.85 -27.2 M-5.9 -29.9 L-5.85 -29.6 -6.6 -29.45 -6.35 -29.9 -5.9 -29.9" fill="url(#gradient48)" fill-rule="evenodd" stroke="none"/>
    <path d="M-5.4 -28.35 L-4.85 -27.2 Q-6.35 -27.0 -5.95 -25.55 L-6.55 -25.35 -6.8 -25.55 -7.7 -26.45 Q-8.6 -27.2 -6.6 -29.45 L-5.85 -29.6 -5.4 -28.35" fill="url(#gradient49)" fill-rule="evenodd" stroke="none"/>
    <path d="M-10.95 -21.9 L-10.1 -23.0 -9.2 -24.75 -8.35 -25.9 -7.7 -26.45 -6.8 -25.55 -6.55 -25.35 -5.95 -25.55 -5.0 -25.4 -4.25 -23.75 -4.0 -22.5 Q-4.6 -22.35 -3.6 -15.05 -12.2 -16.75 -10.95 -21.9" fill="url(#gradient50)" fill-rule="evenodd" stroke="none"/>
    <path d="M-0.15 -21.9 L-0.2 -21.75 -0.35 -21.55 -0.8 -21.45 Q-3.35 -22.4 -3.1 -23.55 L-3.0 -24.35 -0.25 -22.35 -0.25 -22.0 -0.05 -22.0 -0.15 -21.9" fill="url(#gradient51)" fill-rule="evenodd" stroke="none"/>
    <path d="M-0.3 -20.35 L-0.3 -20.3 -0.35 -20.3 -0.3 -20.35" fill="url(#gradient52)" fill-rule="evenodd" stroke="none"/>
    <path d="M-13.3 -15.5 L-13.15 -17.05 -12.6 -18.6 -12.4 -19.15 -12.15 -19.75 -10.95 -21.9 Q-12.2 -16.75 -3.6 -15.05 L-3.25 -14.05 -3.2 -14.0 -3.3 -12.25 -3.2 -11.6 -3.2 -11.5 -3.0 -10.25 Q-3.55 -9.5 -9.55 -9.85 -9.8 -8.3 -4.35 -8.1 -6.45 -6.95 -10.55 -8.2 L-10.6 -8.0 Q-11.4 -8.7 -11.4 -9.1 L-11.6 -9.2 -12.1 -10.15 -12.5 -11.6 -12.0 -11.5 -12.05 -11.65 Q-12.5 -13.25 -12.85 -13.45 L-13.3 -15.5" fill="url(#gradient53)" fill-rule="evenodd" stroke="none"/>
    <path d="M-12.15 -19.75 L-12.4 -19.15 -12.8 -19.5 -12.15 -19.75" fill="url(#gradient54)" fill-rule="evenodd" stroke="none"/>
    <path d="M-13.4 -12.2 Q-14.25 -14.45 -13.3 -15.5 L-12.85 -13.45 Q-12.5 -13.25 -12.05 -11.65 L-12.0 -11.5 -12.5 -11.6 -13.4 -12.2" fill="url(#gradient55)" fill-rule="evenodd" stroke="none"/>
    <path d="M-13.9 -9.95 L-14.0 -10.6 Q-13.7 -12.05 -13.4 -12.2 L-12.5 -11.6 -12.1 -10.15 -11.6 -9.2 Q-12.85 -7.6 -13.9 -9.95" fill="url(#gradient56)" fill-rule="evenodd" stroke="none"/>
    <path d="M-2.5 -4.7 L-2.9 -4.0 -3.0 -3.35 -3.35 -1.3 -6.05 -0.2 -8.7 0.15 Q-11.25 -0.1 -11.35 -0.7 L-11.55 -1.05 -11.65 -1.2 -12.65 -1.7 Q-14.75 -2.5 -14.4 -3.9 L-14.55 -5.4 -14.65 -7.05 -14.15 -9.6 -13.9 -9.95 Q-12.85 -7.6 -11.6 -9.2 L-11.4 -9.1 Q-11.4 -8.7 -10.6 -8.0 -7.9 -3.15 -2.2 -7.3 L-2.45 -6.05 -2.35 -5.9 -2.75 -5.8 -2.9 -5.65 -2.9 -5.4 -2.85 -5.3 -2.85 -5.25 -2.5 -4.75 -2.5 -4.7" fill="url(#gradient57)" fill-rule="evenodd" stroke="none"/>
    <path d="M-1.9 -8.1 L-2.2 -7.3 Q-7.9 -3.15 -10.6 -8.0 L-10.55 -8.2 Q-6.45 -6.95 -4.35 -8.1 L-3.1 -8.45 -2.65 -8.75 -2.65 -8.6 -1.9 -8.1" fill="url(#gradient58)" fill-rule="evenodd" stroke="none"/>
    <path d="M-12.65 -1.7 Q-16.4 -1.75 -14.55 -5.4 L-14.4 -3.9 Q-14.75 -2.5 -12.65 -1.7" fill="url(#gradient59)" fill-rule="evenodd" stroke="none"/>
    <path d="M-11.95 1.6 L-11.55 -1.05 -11.35 -0.7 -11.3 0.4 Q-10.55 1.4 -8.4 1.95 -10.3 3.05 -11.2 2.85 L-11.7 2.55 -11.95 1.6" fill="url(#gradient60)" fill-rule="evenodd" stroke="none"/>
    <path d="M-3.15 -11.5 Q-2.8 -9.9 -2.0 -8.85 L-2.0 -8.35 -2.4 -8.8 -2.8 -9.35 -3.0 -10.25 -3.2 -11.5 -3.15 -11.5" fill="url(#gradient61)" fill-rule="evenodd" stroke="none"/>
    <path d="M-4.35 -8.1 Q-9.8 -8.3 -9.55 -9.85 -3.55 -9.5 -3.0 -10.25 L-2.8 -9.35 -2.4 -8.8 -2.65 -8.75 -3.1 -8.45 -4.35 -8.1" fill="url(#gradient62)" fill-rule="evenodd" stroke="none"/>
    <path d="M-2.0 -8.35 L-1.9 -8.1 -2.65 -8.6 -2.65 -8.75 -2.4 -8.8 -2.0 -8.35" fill="url(#gradient63)" fill-rule="evenodd" stroke="none"/>
    <path d="M-2.65 -5.15 L-2.45 -4.9 -2.4 -4.7 -2.5 -4.75 -2.85 -5.25 -2.65 -5.15" fill="url(#gradient64)" fill-rule="evenodd" stroke="none"/>
    <path d="M-2.9 -5.65 L-2.65 -5.15 -2.85 -5.25 -2.85 -5.3 -2.9 -5.4 -2.9 -5.65" fill="url(#gradient65)" fill-rule="evenodd" stroke="none"/>
    <path d="M-3.0 -3.35 Q-1.4 0.9 -8.0 1.95 L-8.3 1.95 -8.4 1.95 Q-10.55 1.4 -11.3 0.4 L-11.35 -0.7 Q-11.25 -0.1 -8.7 0.15 L-6.05 -0.2 -3.35 -1.3 -3.0 -3.35" fill="url(#gradient66)" fill-rule="evenodd" stroke="none"/>
    <path d="M-12.15 2.15 L-11.95 1.6 -11.7 2.55 -12.15 2.15 M-8.4 1.95 L-8.3 1.95 Q-9.75 3.55 -11.2 2.85 -10.3 3.05 -8.4 1.95" fill="url(#gradient67)" fill-rule="evenodd" stroke="none"/>
    <path d="M-8.0 1.95 L-7.95 2.85 -8.6 3.65 -10.45 4.9 -10.55 4.6 -12.85 4.8 -12.5 3.1 -12.15 2.15 -11.7 2.55 -11.2 2.85 Q-9.75 3.55 -8.3 1.95 L-8.0 1.95" fill="url(#gradient68)" fill-rule="evenodd" stroke="none"/>
    <path d="M-7.95 2.85 Q-7.45 4.1 -8.05 4.75 L-9.45 6.35 -9.95 5.9 -10.45 4.9 -8.6 3.65 -7.95 2.85 M-11.75 8.1 L-14.3 10.0 Q-15.75 10.55 -15.7 9.75 L-15.85 9.15 -16.5 8.65 Q-17.3 7.65 -14.75 5.15 L-14.2 6.5 Q-14.0 7.15 -11.95 7.8 L-11.75 8.1" fill="url(#gradient69)" fill-rule="evenodd" stroke="none"/>
    <path d="M-9.45 6.35 Q-11.4 8.95 -11.75 8.1 L-11.95 7.8 Q-14.0 7.15 -14.2 6.5 L-14.75 5.15 Q-13.6 3.25 -12.5 3.1 L-12.85 4.8 -10.55 4.6 -10.45 4.9 -9.95 5.9 -9.45 6.35" fill="url(#gradient70)" fill-rule="evenodd" stroke="none"/>
    <path d="M-15.7 9.75 L-15.9 9.3 -16.5 8.65 -15.85 9.15 -15.7 9.75" fill="url(#gradient71)" fill-rule="evenodd" stroke="none"/>
  </g>
  <defs>
    <radialGradient cx="0" cy="0" gradientTransform="matrix(0.009, 0.0, 0.0, 0.009, -4.1, -52.05)" gradientUnits="userSpaceOnUse" id="gradient0" r="819.2" spreadMethod="pad">
      <stop offset="0.0" stop-color="#a79359"/>
      <stop offset="1.0" stop-color="#5f5433"/>
    </radialGradient>
    <radialGradient cx="0" cy="0" gradientTransform="matrix(0.0053, 0.0, 0.0, 0.0053, 2.75, -53.45)" gradientUnits="userSpaceOnUse" id="gradient1" r="819.2" spreadMethod="pad">
      <stop offset="0.0" stop-color="#645835"/>
      <stop offset="1.0" stop-color="#4e4529"/>
    </radialGradient>
    <radialGradient cx="0" cy="0" gradientTransform="matrix(0.0062, 0.0, 0.0, 0.0062, 2.0, -49.2)" gradientUnits="userSpaceOnUse" id="gradient2" r="819.2" spreadMethod="pad">
      <stop offset="0.0" stop-color="#7f7044"/>
      <stop offset="1.0" stop-color="#5e5332"/>
    </radialGradient>
    <radialGradient cx="0" cy="0" gradientTransform="matrix(0.0106, 0.0, 0.0, 0.0106, -4.8, -46.9)" gradientUnits="userSpaceOnUse" id="gradient3" r="819.2" spreadMethod="pad">
      <stop offset="0.0" stop-color="#484135"/>
      <stop offset="1.0" stop-color="#463f32"/>
    </radialGradient>
    <radialGradient cx="0" cy="0" gradientTransform="matrix(0.0075, 0.0, 0.0, 0.0075, 7.15, -38.6)" gradientUnits="userSpaceOnUse" id="gradient4" r="819.2" spreadMethod="pad">
      <stop offset="0.0" stop-color="#625947"/>
      <stop offset="1.0" stop-color="#3b352a"/>
    </radialGradient>
    <radialGradient cx="0" cy="0" gradientTransform="matrix(0.0068, 0.0, 0.0, 0.0068, 9.65, -35.95)" gradientUnits="userSpaceOnUse" id="gradient5" r="819.2" spreadMethod="pad">
      <stop offset="0.0" stop-color="#635948"/>
      <stop offset="1.0" stop-color="#3d372c"/>
    </radialGradient>
    <radialGradient cx="0" cy="0" gradientTransform="matrix(0.0074, 0.0, 0.0, 0.0074, 4.4, -39.55)" gradientUnits="userSpaceOnUse" id="gradient6" r="819.2" spreadMethod="pad">
      <stop offset="0.0" stop-color="#615746"/>
      <stop offset="1.0" stop-color="#373228"/>
    </radialGradient>
    <radialGradient cx="0" cy="0" gradientTransform="matrix(0.0498, 0.0, 0.0, 0.0498, -4.05, -43.4)" gradientUnits="userSpaceOnUse" id="gradient7" r="819.2" spreadMethod="pad">
      <stop offset="0.0" stop-color="#3e4975"/>
      <stop offset="1.0" stop-color="#1c2136"/>
    </radialGradient>
    <radialGradient cx="0" cy="0" gradientTransform="matrix(9.0E-4, 0.0, 0.0, 9.0E-4, 5.2, -46.6)" gradientUnits="userSpaceOnUse" id="gradient8" r="819.2" spreadMethod="pad">
      <stop offset="0.0" stop-color="#2c3554"/>
      <stop offset="1.0" stop-color="#2c3554"/>
    </radialGradient>
    <radialGradient cx="0" cy="0" gradientTransform="matrix(0.0517, 0.0, 0.0, 0.0517, 5.2, -45.65)" gradientUnits="userSpaceOnUse" id="gradient9" r="819.2" spreadMethod="pad">
      <stop offset="0.0" stop-color="#1e2339"/>
      <stop offset="1.0" stop-color="#08090e"/>
    </radialGradient>
    <radialGradient cx="0" cy="0" gradientTransform="matrix(0.0035, 0.0, 0.0, 0.0035, 2.2, -48.55)" gradientUnits="userSpaceOnUse" id="gradient10" r="819.2" spreadMethod="pad">
      <stop offset="0.0" stop-color="#867647"/>
      <stop offset="1.0" stop-color="#53482c"/>
    </radialGradient>
    <radialGradient cx="0" cy="0" gradientTransform="matrix(0.0087, 0.0, 0.0, 0.0087, -3.25, -46.8)" gradientUnits="userSpaceOnUse" id="gradient11" r="819.2" spreadMethod="pad">
      <stop offset="0.0" stop-color="#4a4336"/>
      <stop offset="1.0" stop-color="#3e382d"/>
    </radialGradient>
    <radialGradient cx="0" cy="0" gradientTransform="matrix(0.0026, 0.0, 0.0, 0.0026, 3.15, -46.95)" gradientUnits="userSpaceOnUse" id="gradient12" r="819.2" spreadMethod="pad">
      <stop offset="0.0" stop-color="#75673e"/>
      <stop offset="1.0" stop-color="#5a4f30"/>
    </radialGradient>
    <radialGradient cx="0" cy="0" gradientTransform="matrix(0.0016, 0.0, 0.0, 0.0016, 3.6, -48.25)" gradientUnits="userSpaceOnUse" id="gradient13" r="819.2" spreadMethod="pad">
      <stop offset="0.0" stop-color="#3c4872"/>
      <stop offset="1.0" stop-color="#39446d"/>
    </radialGradient>
    <radialGradient cx="0" cy="0" gradientTransform="matrix(0.0154, 0.0, 0.0, 0.0154, -7.15, -40.0)" gradientUnits="userSpaceOnUse" id="gradient14" r="819.2" spreadMethod="pad">
      <stop offset="0.0" stop-color="#fff257"/>
      <stop offset="1.0" stop-color="#a09134"/>
    </radialGradient>
    <radialGradient cx="0" cy="0" gradientTransform="matrix(0.0027, 0.0, 0.0, 0.0027, -0.3, -45.2)" gradientUnits="userSpaceOnUse" id="gradient15" r="819.2" spreadMethod="pad">
      <stop offset="0.0" stop-color="#ffbb6b"/>
      <stop offset="1.0" stop-color="#d89c5a"/>
    </radialGradient>
    <radialGradient cx="0" cy="0" gradientTransform="matrix(0.0103, 0.0, 0.0, 0.0103, -2.4, -40.15)" gradientUnits="userSpaceOnUse" id="gradient16" r="819.2" spreadMethod="pad">
      <stop offset="0.0" stop-color="#423b30"/>
      <stop offset="1.0" stop-color="#211d18"/>
    </radialGradient>
    <radialGradient cx="0" cy="0" gradientTransform="matrix(0.0082, 0.0, 0.0, 0.0082, 1.2, -41.15)" gradientUnits="userSpaceOnUse" id="gradient17" r="819.2" spreadMethod="pad">
      <stop offset="0.0" stop-color="#615846"/>
      <stop offset="1.0" stop-color="#332e25"/>
    </radialGradient>
    <radialGradient cx="0" cy="0" gradientTransform="matrix(0.0259, 0.0, 0.0, 0.0259, 2.35, -45.35)" gradientUnits="userSpaceOnUse" id="gradient18" r="819.2" spreadMethod="pad">
      <stop offset="0.0" stop-color="#ffc370"/>
      <stop offset="1.0" stop-color="#d29857"/>
    </radialGradient>
    <radialGradient cx="0" cy="0" gradientTransform="matrix(8.0E-4, 0.0, 0.0, 8.0E-4, 5.95, -34.4)" gradientUnits="userSpaceOnUse" id="gradient19" r="819.2" spreadMethod="pad">
      <stop offset="0.0" stop-color="#0c0b09"/>
      <stop offset="1.0" stop-color="#0c0b09"/>
    </radialGradient>
    <radialGradient cx="0" cy="0" gradientTransform="matrix(0.0051, 0.0, 0.0, 0.0051, 11.15, -32.0)" gradientUnits="userSpaceOnUse" id="gradient20" r="819.2" spreadMethod="pad">
      <stop offset="0.0" stop-color="#5c5343"/>
      <stop offset="1.0" stop-color="#3a342a"/>
    </radialGradient>
    <radialGradient cx="0" cy="0" gradientTransform="matrix(0.0155, 0.0, 0.0, 0.0155, -2.1, -24.25)" gradientUnits="userSpaceOnUse" id="gradient21" r="819.2" spreadMethod="pad">
      <stop offset="0.0" stop-color="#fff9cf"/>
      <stop offset="1.0" stop-color="#938b73"/>
    </radialGradient>
    <radialGradient cx="0" cy="0" gradientTransform="matrix(0.0072, 0.0, 0.0, 0.0072, -0.1, -23.8)" gradientUnits="userSpaceOnUse" id="gradient22" r="819.2" spreadMethod="pad">
      <stop offset="0.0" stop-color="#ffffd6"/>
      <stop offset="1.0" stop-color="#d6c9a7"/>
    </radialGradient>
    <radialGradient cx="0" cy="0" gradientTransform="matrix(0.0051, 0.0, 0.0, 0.0051, -2.35, -24.3)" gradientUnits="userSpaceOnUse" id="gradient23" r="819.2" spreadMethod="pad">
      <stop offset="0.0" stop-color="#b09529"/>
      <stop offset="1.0" stop-color="#655618"/>
    </radialGradient>
    <radialGradient cx="0" cy="0" gradientTransform="matrix(0.0059, 0.0, 0.0, 0.0059, 1.4, -3.7)" gradientUnits="userSpaceOnUse" id="gradient24" r="819.2" spreadMethod="pad">
      <stop offset="0.0" stop-color="#323c5f"/>
      <stop offset="1.0" stop-color="#161b2b"/>
    </radialGradient>
    <radialGradient cx="0" cy="0" gradientTransform="matrix(0.0092, 0.0, 0.0, 0.0092, 6.8, -9.3)" gradientUnits="userSpaceOnUse" id="gradient25" r="819.2" spreadMethod="pad">
      <stop offset="0.0" stop-color="#ded1ae"/>
      <stop offset="1.0" stop-color="#756e5b"/>
    </radialGradient>
    <radialGradient cx="0" cy="0" gradientTransform="matrix(0.0098, 0.0, 0.0, 0.0098, 12.4, -8.0)" gradientUnits="userSpaceOnUse" id="gradient26" r="819.2" spreadMethod="pad">
      <stop offset="0.0" stop-color="#746954"/>
      <stop offset="1.0" stop-color="#383329"/>
    </radialGradient>
    <radialGradient cx="0" cy="0" gradientTransform="matrix(0.0015, 0.0, 0.0, 0.0015, 9.8, -2.25)" gradientUnits="userSpaceOnUse" id="gradient27" r="819.2" spreadMethod="pad">
      <stop offset="0.0" stop-color="#b9854c"/>
      <stop offset="1.0" stop-color="#a07443"/>
    </radialGradient>
    <radialGradient cx="0" cy="0" gradientTransform="matrix(0.0036, 0.0, 0.0, 0.0036, 13.8, -9.9)" gradientUnits="userSpaceOnUse" id="gradient28" r="819.2" spreadMethod="pad">
      <stop offset="0.0" stop-color="#4c4537"/>
      <stop offset="1.0" stop-color="#393329"/>
    </radialGradient>
    <radialGradient cx="0" cy="0" gradientTransform="matrix(0.0089, 0.0, 0.0, 0.0089, 13.4, -8.95)" gradientUnits="userSpaceOnUse" id="gradient29" r="819.2" spreadMethod="pad">
      <stop offset="0.0" stop-color="#fff98f"/>
      <stop offset="1.0" stop-color="#e2b065"/>
    </radialGradient>
    <radialGradient cx="0" cy="0" gradientTransform="matrix(0.0029, 0.0, 0.0, 0.0029, 12.75, -5.75)" gradientUnits="userSpaceOnUse" id="gradient30" r="819.2" spreadMethod="pad">
      <stop offset="0.0" stop-color="#605645"/>
      <stop offset="1.0" stop-color="#332e25"/>
    </radialGradient>
    <radialGradient cx="0" cy="0" gradientTransform="matrix(0.0039, 0.0, 0.0, 0.0039, 10.6, -1.5)" gradientUnits="userSpaceOnUse" id="gradient31" r="819.2" spreadMethod="pad">
      <stop offset="0.0" stop-color="#fff58c"/>
      <stop offset="1.0" stop-color="#fcdc7e"/>
    </radialGradient>
    <radialGradient cx="0" cy="0" gradientTransform="matrix(0.0101, 0.0, 0.0, 0.0101, -7.4, -56.4)" gradientUnits="userSpaceOnUse" id="gradient32" r="819.2" spreadMethod="pad">
      <stop offset="0.0" stop-color="#a59158"/>
      <stop offset="1.0" stop-color="#6f623b"/>
    </radialGradient>
    <radialGradient cx="0" cy="0" gradientTransform="matrix(0.008, 0.0, 0.0, 0.008, -8.7, -50.05)" gradientUnits="userSpaceOnUse" id="gradient33" r="819.2" spreadMethod="pad">
      <stop offset="0.0" stop-color="#aa955a"/>
      <stop offset="1.0" stop-color="#4f462a"/>
    </radialGradient>
    <radialGradient cx="0" cy="0" gradientTransform="matrix(0.0057, 0.0, 0.0, 0.0057, -2.05, -44.8)" gradientUnits="userSpaceOnUse" id="gradient34" r="819.2" spreadMethod="pad">
      <stop offset="0.0" stop-color="#b18049"/>
      <stop offset="1.0" stop-color="#856137"/>
    </radialGradient>
    <radialGradient cx="0" cy="0" gradientTransform="matrix(0.0105, 0.0, 0.0, 0.0105, -6.35, -47.25)" gradientUnits="userSpaceOnUse" id="gradient35" r="819.2" spreadMethod="pad">
      <stop offset="0.0" stop-color="#a89359"/>
      <stop offset="1.0" stop-color="#6e603a"/>
    </radialGradient>
    <radialGradient cx="0" cy="0" gradientTransform="matrix(0.0011, 0.0, 0.0, 0.0011, -8.6, -47.45)" gradientUnits="userSpaceOnUse" id="gradient36" r="819.2" spreadMethod="pad">
      <stop offset="0.0" stop-color="#3a342a"/>
      <stop offset="1.0" stop-color="#383228"/>
    </radialGradient>
    <radialGradient cx="0" cy="0" gradientTransform="matrix(0.0035, 0.0, 0.0, 0.0035, -8.15, -46.75)" gradientUnits="userSpaceOnUse" id="gradient37" r="819.2" spreadMethod="pad">
      <stop offset="0.0" stop-color="#d39857"/>
      <stop offset="1.0" stop-color="#a77845"/>
    </radialGradient>
    <radialGradient cx="0" cy="0" gradientTransform="matrix(0.0025, 0.0, 0.0, 0.0025, -6.9, -45.1)" gradientUnits="userSpaceOnUse" id="gradient38" r="819.2" spreadMethod="pad">
      <stop offset="0.0" stop-color="#5c5343"/>
      <stop offset="1.0" stop-color="#403a2e"/>
    </radialGradient>
    <radialGradient cx="0" cy="0" gradientTransform="matrix(0.0069, 0.0, 0.0, 0.0069, -8.65, -42.1)" gradientUnits="userSpaceOnUse" id="gradient39" r="819.2" spreadMethod="pad">
      <stop offset="0.0" stop-color="#c58e51"/>
      <stop offset="1.0" stop-color="#ab7c47"/>
    </radialGradient>
    <radialGradient cx="0" cy="0" gradientTransform="matrix(0.0043, 0.0, 0.0, 0.0043, -8.1, -38.5)" gradientUnits="userSpaceOnUse" id="gradient40" r="819.2" spreadMethod="pad">
      <stop offset="0.0" stop-color="#4b4436"/>
      <stop offset="1.0" stop-color="#2a271f"/>
    </radialGradient>
    <radialGradient cx="0" cy="0" gradientTransform="matrix(0.0022, 0.0, 0.0, 0.0022, -1.85, -37.45)" gradientUnits="userSpaceOnUse" id="gradient41" r="819.2" spreadMethod="pad">
      <stop offset="0.0" stop-color="#a98f28"/>
      <stop offset="1.0" stop-color="#87721f"/>
    </radialGradient>
    <radialGradient cx="0" cy="0" gradientTransform="matrix(0.0024, 0.0, 0.0, 0.0024, -1.35, -37.35)" gradientUnits="userSpaceOnUse" id="gradient42" r="819.2" spreadMethod="pad">
      <stop offset="0.0" stop-color="#695919"/>
      <stop offset="1.0" stop-color="#645417"/>
    </radialGradient>
    <radialGradient cx="0" cy="0" gradientTransform="matrix(0.015, 0.0, 0.0, 0.015, -6.8, -29.35)" gradientUnits="userSpaceOnUse" id="gradient43" r="819.2" spreadMethod="pad">
      <stop offset="0.0" stop-color="#424e7c"/>
      <stop offset="1.0" stop-color="#21263e"/>
    </radialGradient>
    <radialGradient cx="0" cy="0" gradientTransform="matrix(0.0013, 0.0, 0.0, 0.0013, -7.55, -36.45)" gradientUnits="userSpaceOnUse" id="gradient44" r="819.2" spreadMethod="pad">
      <stop offset="0.0" stop-color="#957e23"/>
      <stop offset="1.0" stop-color="#605116"/>
    </radialGradient>
    <radialGradient cx="0" cy="0" gradientTransform="matrix(0.0013, 0.0, 0.0, 0.0013, -5.6, -31.45)" gradientUnits="userSpaceOnUse" id="gradient45" r="819.2" spreadMethod="pad">
      <stop offset="0.0" stop-color="#a48b26"/>
      <stop offset="1.0" stop-color="#a18826"/>
    </radialGradient>
    <radialGradient cx="0" cy="0" gradientTransform="matrix(0.0018, 0.0, 0.0, 0.0018, -5.75, -31.35)" gradientUnits="userSpaceOnUse" id="gradient46" r="819.2" spreadMethod="pad">
      <stop offset="0.0" stop-color="#b1952a"/>
      <stop offset="1.0" stop-color="#877320"/>
    </radialGradient>
    <radialGradient cx="0" cy="0" gradientTransform="matrix(0.0025, 0.0, 0.0, 0.0025, -6.55, -32.7)" gradientUnits="userSpaceOnUse" id="gradient47" r="819.2" spreadMethod="pad">
      <stop offset="0.0" stop-color="#524a3c"/>
      <stop offset="1.0" stop-color="#373228"/>
    </radialGradient>
    <radialGradient cx="0" cy="0" gradientTransform="matrix(0.0054, 0.0, 0.0, 0.0054, -4.85, -26.3)" gradientUnits="userSpaceOnUse" id="gradient48" r="819.2" spreadMethod="pad">
      <stop offset="0.0" stop-color="#dbb933"/>
      <stop offset="1.0" stop-color="#927b22"/>
    </radialGradient>
    <radialGradient cx="0" cy="0" gradientTransform="matrix(0.004, 0.0, 0.0, 0.004, -5.25, -28.3)" gradientUnits="userSpaceOnUse" id="gradient49" r="819.2" spreadMethod="pad">
      <stop offset="0.0" stop-color="#6b614e"/>
      <stop offset="1.0" stop-color="#403a2f"/>
    </radialGradient>
    <radialGradient cx="0" cy="0" gradientTransform="matrix(0.0129, 0.0, 0.0, 0.0129, -3.05, -23.75)" gradientUnits="userSpaceOnUse" id="gradient50" r="819.2" spreadMethod="pad">
      <stop offset="0.0" stop-color="#ebddb8"/>
      <stop offset="1.0" stop-color="#aca387"/>
    </radialGradient>
    <radialGradient cx="0" cy="0" gradientTransform="matrix(0.0027, 0.0, 0.0, 0.0027, -1.0, -23.7)" gradientUnits="userSpaceOnUse" id="gradient51" r="819.2" spreadMethod="pad">
      <stop offset="0.0" stop-color="#615746"/>
      <stop offset="1.0" stop-color="#373228"/>
    </radialGradient>
    <radialGradient cx="0" cy="0" gradientTransform="matrix(0.0028, 0.0, 0.0, 0.0028, -0.4, -20.4)" gradientUnits="userSpaceOnUse" id="gradient52" r="819.2" spreadMethod="pad">
      <stop offset="0.0" stop-color="#08090e"/>
      <stop offset="1.0" stop-color="#08090e"/>
    </radialGradient>
    <radialGradient cx="0" cy="0" gradientTransform="matrix(0.0135, 0.0, 0.0, 0.0135, -5.9, -17.1)" gradientUnits="userSpaceOnUse" id="gradient53" r="819.2" spreadMethod="pad">
      <stop offset="0.0" stop-color="#eadcb7"/>
      <stop offset="1.0" stop-color="#9e947b"/>
    </radialGradient>
    <radialGradient cx="0" cy="0" gradientTransform="matrix(0.013, 0.0, 0.0, 0.013, -10.35, -29.25)" gradientUnits="userSpaceOnUse" id="gradient54" r="819.2" spreadMethod="pad">
      <stop offset="0.0" stop-color="#222941"/>
      <stop offset="1.0" stop-color="#08090e"/>
    </radialGradient>
    <radialGradient cx="0" cy="0" gradientTransform="matrix(0.0036, 0.0, 0.0, 0.0036, -12.6, -12.95)" gradientUnits="userSpaceOnUse" id="gradient55" r="819.2" spreadMethod="pad">
      <stop offset="0.0" stop-color="#675d4b"/>
      <stop offset="1.0" stop-color="#433c30"/>
    </radialGradient>
    <radialGradient cx="0" cy="0" gradientTransform="matrix(0.0045, 0.0, 0.0, 0.0045, -12.25, -9.45)" gradientUnits="userSpaceOnUse" id="gradient56" r="819.2" spreadMethod="pad">
      <stop offset="0.0" stop-color="#6d634f"/>
      <stop offset="1.0" stop-color="#383328"/>
    </radialGradient>
    <radialGradient cx="0" cy="0" gradientTransform="matrix(0.0111, 0.0, 0.0, 0.0111, -8.0, -7.65)" gradientUnits="userSpaceOnUse" id="gradient57" r="819.2" spreadMethod="pad">
      <stop offset="0.0" stop-color="#f9ebc3"/>
      <stop offset="1.0" stop-color="#827b67"/>
    </radialGradient>
    <radialGradient cx="0" cy="0" gradientTransform="matrix(0.0086, 0.0, 0.0, 0.0086, -8.6, -7.5)" gradientUnits="userSpaceOnUse" id="gradient58" r="819.2" spreadMethod="pad">
      <stop offset="0.0" stop-color="#706551"/>
      <stop offset="1.0" stop-color="#413a2f"/>
    </radialGradient>
    <radialGradient cx="0" cy="0" gradientTransform="matrix(0.0042, 0.0, 0.0, 0.0042, -13.65, -2.6)" gradientUnits="userSpaceOnUse" id="gradient59" r="819.2" spreadMethod="pad">
      <stop offset="0.0" stop-color="#6f6451"/>
      <stop offset="1.0" stop-color="#353026"/>
    </radialGradient>
    <radialGradient cx="0" cy="0" gradientTransform="matrix(0.0063, 0.0, 0.0, 0.0063, -10.65, 2.2)" gradientUnits="userSpaceOnUse" id="gradient60" r="819.2" spreadMethod="pad">
      <stop offset="0.0" stop-color="#e1a35d"/>
      <stop offset="1.0" stop-color="#a97a46"/>
    </radialGradient>
    <radialGradient cx="0" cy="0" gradientTransform="matrix(0.0084, 0.0, 0.0, 0.0084, -3.3, -14.2)" gradientUnits="userSpaceOnUse" id="gradient61" r="819.2" spreadMethod="pad">
      <stop offset="0.0" stop-color="#978e76"/>
      <stop offset="1.0" stop-color="#676150"/>
    </radialGradient>
    <radialGradient cx="0" cy="0" gradientTransform="matrix(0.0068, 0.0, 0.0, 0.0068, -7.35, -9.75)" gradientUnits="userSpaceOnUse" id="gradient62" r="819.2" spreadMethod="pad">
      <stop offset="0.0" stop-color="#706551"/>
      <stop offset="1.0" stop-color="#3a352a"/>
    </radialGradient>
    <radialGradient cx="0" cy="0" gradientTransform="matrix(0.0018, 0.0, 0.0, 0.0018, -1.9, -8.2)" gradientUnits="userSpaceOnUse" id="gradient63" r="819.2" spreadMethod="pad">
      <stop offset="0.0" stop-color="#463f33"/>
      <stop offset="1.0" stop-color="#353027"/>
    </radialGradient>
    <radialGradient cx="0" cy="0" gradientTransform="matrix(0.0014, 0.0, 0.0, 0.0014, -3.0, -5.5)" gradientUnits="userSpaceOnUse" id="gradient64" r="819.2" spreadMethod="pad">
      <stop offset="0.0" stop-color="#08090e"/>
      <stop offset="1.0" stop-color="#08090e"/>
    </radialGradient>
    <radialGradient cx="0" cy="0" gradientTransform="matrix(9.0E-4, 0.0, 0.0, 9.0E-4, -3.0, -5.5)" gradientUnits="userSpaceOnUse" id="gradient65" r="819.2" spreadMethod="pad">
      <stop offset="0.0" stop-color="#1d2236"/>
      <stop offset="1.0" stop-color="#1c2236"/>
    </radialGradient>
    <radialGradient cx="0" cy="0" gradientTransform="matrix(0.0088, 0.0, 0.0, 0.0088, -9.45, 0.0)" gradientUnits="userSpaceOnUse" id="gradient66" r="819.2" spreadMethod="pad">
      <stop offset="0.0" stop-color="#736854"/>
      <stop offset="1.0" stop-color="#2d2921"/>
    </radialGradient>
    <radialGradient cx="0" cy="0" gradientTransform="matrix(0.0043, 0.0, 0.0, 0.0043, -11.8, 1.8)" gradientUnits="userSpaceOnUse" id="gradient67" r="819.2" spreadMethod="pad">
      <stop offset="0.0" stop-color="#645b49"/>
      <stop offset="1.0" stop-color="#5f5646"/>
    </radialGradient>
    <radialGradient cx="0" cy="0" gradientTransform="matrix(0.0066, 0.0, 0.0, 0.0066, -12.2, 5.2)" gradientUnits="userSpaceOnUse" id="gradient68" r="819.2" spreadMethod="pad">
      <stop offset="0.0" stop-color="#6a5f4d"/>
      <stop offset="1.0" stop-color="#363127"/>
    </radialGradient>
    <radialGradient cx="0" cy="0" gradientTransform="matrix(0.01, 0.0, 0.0, 0.01, -13.2, 8.9)" gradientUnits="userSpaceOnUse" id="gradient69" r="819.2" spreadMethod="pad">
      <stop offset="0.0" stop-color="#ffff96"/>
      <stop offset="1.0" stop-color="#dfa15b"/>
    </radialGradient>
    <radialGradient cx="0" cy="0" gradientTransform="matrix(0.0047, 0.0, 0.0, 0.0047, -12.4, 6.8)" gradientUnits="userSpaceOnUse" id="gradient70" r="819.2" spreadMethod="pad">
      <stop offset="0.0" stop-color="#766a56"/>
      <stop offset="1.0" stop-color="#3e382d"/>
    </radialGradient>
    <radialGradient cx="0" cy="0" gradientTransform="matrix(0.0016, 0.0, 0.0, 0.0016, -15.95, 8.95)" gradientUnits="userSpaceOnUse" id="gradient71" r="819.2" spreadMethod="pad">
      <stop offset="0.0" stop-color="#ae7d48"/>
      <stop offset="1.0" stop-color="#ab7b47"/>
    </radialGradient>
  </defs>
</svg>
