<?xml version="1.0" encoding="UTF-8" standalone="no"?>
<svg xmlns:ffdec="https://www.free-decompiler.com/flash" xmlns:xlink="http://www.w3.org/1999/xlink" ffdec:objectType="shape" height="117.0px" width="60.05px" xmlns="http://www.w3.org/2000/svg">
  <g transform="matrix(1.0, 0.0, 0.0, 1.0, 30.05, 102.0)">
    <path d="M30.0 0.0 Q30.0 6.2 21.2 10.55 12.4 14.95 0.0 15.0 -12.45 14.95 -21.3 10.55 -30.05 6.2 -30.05 0.0 -30.05 -6.25 -21.3 -10.65 -12.45 -15.05 0.0 -15.05 12.4 -15.05 21.2 -10.65 30.0 -6.25 30.0 0.0" fill="url(#gradient0)" fill-rule="evenodd" stroke="none"/>
    <path d="M2.15 -61.15 Q1.25 -54.05 0.0 -54.0 -1.25 -54.05 -2.1 -61.15 -3.0 -68.15 -3.0 -78.0 -3.0 -87.95 -2.1 -95.05 -1.25 -102.05 0.0 -102.0 1.25 -102.05 2.15 -95.05 3.0 -87.95 3.0 -78.0 3.0 -68.15 2.15 -61.15" fill="url(#gradient1)" fill-rule="evenodd" stroke="none"/>
  </g>
  <defs>
    <radialGradient cx="0" cy="0" gradientTransform="matrix(0.0364, 0.0, 0.0, 0.0184, 0.05, 0.05)" gradientUnits="userSpaceOnUse" id="gradient0" r="819.2" spreadMethod="pad">
      <stop offset="0.5019607843137255" stop-color="#ff6600" stop-opacity="0.0"/>
      <stop offset="1.0" stop-color="#ffcc00" stop-opacity="0.0"/>
    </radialGradient>
    <radialGradient cx="0" cy="0" gradientTransform="matrix(0.0036, 0.0, 0.0, 0.0479, 0.0, -93.9)" gradientUnits="userSpaceOnUse" id="gradient1" r="819.2" spreadMethod="pad">
      <stop offset="0.0" stop-color="#ffffff" stop-opacity="0.5019608"/>
      <stop offset="0.23921568627450981" stop-color="#ffcc00" stop-opacity="0.5019608"/>
      <stop offset="1.0" stop-color="#ff6600" stop-opacity="0.0"/>
    </radialGradient>
  </defs>
</svg>
