<?xml version="1.0" encoding="UTF-8" standalone="no"?>
<svg xmlns:ffdec="https://www.free-decompiler.com/flash" xmlns:xlink="http://www.w3.org/1999/xlink" ffdec:objectType="shape" height="69.4px" width="32.05px" xmlns="http://www.w3.org/2000/svg">
  <g transform="matrix(1.0, 0.0, 0.0, 1.0, 15.45, 59.6)">
    <path d="M-4.45 -55.25 L-3.35 -55.9 1.45 -55.3 4.1 -52.1 Q4.45 -49.65 3.95 -49.65 3.55 -46.0 -2.75 -46.85 L-3.85 -47.05 -5.05 -47.5 Q-7.35 -48.7 -7.0 -51.45 L-6.8 -51.75 -6.2 -53.3 -6.05 -53.55 -6.0 -53.6 -5.45 -54.55 -5.25 -54.65 -4.45 -55.25" fill="url(#gradient0)" fill-rule="evenodd" stroke="none"/>
    <path d="M5.6 -47.9 Q11.1 -47.55 10.7 -42.65 L10.45 -44.2 9.3 -45.85 7.55 -46.7 7.1 -47.05 5.6 -47.9" fill="url(#gradient1)" fill-rule="evenodd" stroke="none"/>
    <path d="M10.7 -42.65 L10.6 -40.5 10.2 -39.0 9.5 -37.35 9.5 -36.15 9.5 -35.25 9.15 -34.05 8.55 -32.9 8.35 -32.6 7.6 -31.25 Q5.35 -28.05 5.0 -27.05 L4.2 -24.1 Q3.65 -22.6 4.1 -21.2 L3.85 -19.05 3.75 -18.4 3.65 -17.8 3.5 -14.45 3.4 -13.7 Q3.0 -11.4 3.05 -9.85 L2.85 -9.45 1.75 -7.6 1.35 -6.8 0.75 -5.0 Q1.55 -2.8 1.2 -3.25 L1.1 -2.45 1.1 -2.4 1.15 -2.4 Q2.1 -2.95 2.1 -2.4 L2.05 -1.2 2.05 -1.15 1.95 -0.2 1.9 1.45 1.55 1.45 -1.55 -0.45 -2.95 -2.05 -4.1 -2.4 -5.0 -2.9 -5.7 -3.25 -6.9 -4.55 -7.45 -5.6 -8.1 -7.25 -8.45 -8.3 -10.05 -12.7 -10.25 -13.7 -10.2 -15.05 -9.7 -20.25 Q-10.05 -22.25 -9.8 -22.25 L-9.75 -22.45 -8.9 -25.5 Q-2.8 -22.05 -1.6 -27.35 L-1.1 -27.7 -0.95 -28.05 -0.45 -30.3 Q2.3 -29.1 2.45 -33.1 3.2 -29.5 4.75 -34.5 3.4 -40.3 -2.3 -41.45 L0.35 -41.65 2.75 -40.95 4.0 -39.35 4.35 -39.3 4.0 -40.4 4.95 -40.15 6.1 -38.2 Q7.0 -36.35 7.0 -34.85 L7.2 -36.2 7.05 -37.9 Q7.45 -39.6 6.45 -41.8 L6.65 -42.1 6.8 -41.7 6.85 -42.15 6.5 -42.65 5.4 -43.65 4.3 -44.9 4.15 -45.0 3.5 -46.0 3.55 -46.1 6.0 -45.15 6.25 -44.9 Q9.2 -43.35 8.7 -38.45 11.55 -40.2 9.1 -44.9 L8.5 -45.8 7.55 -46.7 9.3 -45.85 10.45 -44.2 10.7 -42.65 M-2.75 -43.05 L-2.7 -42.65 -2.45 -42.4 -3.4 -42.2 -2.85 -43.05 -2.75 -43.05" fill="url(#gradient2)" fill-rule="evenodd" stroke="none"/>
    <path d="M10.2 -39.0 L10.3 -38.8 10.1 -37.35 9.85 -36.65 9.5 -36.15 9.5 -37.35 10.2 -39.0 M5.4 -43.65 L6.5 -42.65 6.65 -42.1 6.45 -41.8 5.4 -43.65 M4.95 -40.15 L4.0 -40.4 3.2 -42.2 4.0 -41.45 4.95 -40.15 M2.75 -40.95 L0.35 -41.65 1.9 -41.95 2.75 -40.95" fill="url(#gradient3)" fill-rule="evenodd" stroke="none"/>
    <path d="M3.95 -48.2 L5.6 -47.9 7.1 -47.05 7.55 -46.7 8.5 -45.8 9.1 -44.9 Q11.55 -40.2 8.7 -38.45 9.2 -43.35 6.25 -44.9 L6.0 -45.15 3.55 -46.1 3.85 -46.55 3.95 -48.2" fill="url(#gradient4)" fill-rule="evenodd" stroke="none"/>
    <path d="M3.95 -48.55 L3.95 -48.2 3.85 -46.55 3.55 -46.1 3.5 -46.0 3.35 -45.75 3.25 -45.7 2.95 -45.65 1.75 -44.9 1.35 -44.5 0.25 -44.25 -1.55 -44.15 -2.5 -44.2 -3.6 -44.4 -5.1 -45.0 Q-6.8 -45.8 -7.1 -46.85 L-7.4 -49.85 Q-7.0 -48.4 -5.05 -47.5 L-3.85 -47.05 -1.55 -46.55 Q3.6 -46.7 3.95 -48.55" fill="url(#gradient5)" fill-rule="evenodd" stroke="none"/>
    <path d="M3.95 -49.65 L3.95 -48.85 3.95 -48.55 Q3.6 -46.7 -1.55 -46.55 L-3.85 -47.05 -2.75 -46.85 Q3.55 -46.0 3.95 -49.65 M-7.4 -49.85 L-7.35 -50.75 -7.0 -51.45 Q-7.35 -48.7 -5.05 -47.5 -7.0 -48.4 -7.4 -49.85" fill="url(#gradient6)" fill-rule="evenodd" stroke="none"/>
    <path d="M7.05 -37.9 L7.2 -36.2 7.0 -34.85 Q7.0 -36.35 6.1 -38.2 L4.95 -40.15 4.0 -41.45 3.2 -42.2 2.05 -43.9 1.35 -44.5 1.75 -44.9 2.95 -45.65 3.25 -45.7 3.35 -45.65 3.5 -45.5 3.95 -44.9 Q5.65 -43.65 7.05 -37.9" fill="url(#gradient7)" fill-rule="evenodd" stroke="none"/>
    <path d="M4.0 -40.4 L4.35 -39.3 4.0 -39.35 2.75 -40.95 1.9 -41.95 1.0 -42.9 0.35 -43.5 0.1 -43.8 0.25 -44.25 1.35 -44.5 2.05 -43.9 3.2 -42.2 4.0 -40.4" fill="url(#gradient8)" fill-rule="evenodd" stroke="none"/>
    <path d="M0.25 -44.25 L0.1 -43.8 0.35 -43.5 -0.95 -43.8 -1.55 -44.15 0.25 -44.25 M3.25 -45.7 L3.35 -45.75 3.35 -45.65 3.25 -45.7" fill="url(#gradient9)" fill-rule="evenodd" stroke="none"/>
    <path d="M4.15 -45.0 L4.3 -44.9 5.4 -43.65 6.45 -41.8 Q7.45 -39.6 7.05 -37.9 5.65 -43.65 3.95 -44.9 L3.5 -45.5 4.15 -45.0" fill="url(#gradient10)" fill-rule="evenodd" stroke="none"/>
    <path d="M-5.15 -41.45 L-4.3 -41.95 -3.1 -43.6 -2.85 -43.6 -2.75 -43.15 -2.85 -43.05 -3.4 -42.2 -2.45 -42.4 1.0 -42.9 1.9 -41.95 0.35 -41.65 -2.3 -41.45 -3.6 -41.7 -5.15 -41.45 M3.5 -46.0 L4.15 -45.0 3.5 -45.5 3.35 -45.65 3.35 -45.75 3.5 -46.0" fill="url(#gradient11)" fill-rule="evenodd" stroke="none"/>
    <path d="M6.5 -42.65 L6.85 -42.15 6.8 -41.7 6.65 -42.1 6.5 -42.65" fill="url(#gradient12)" fill-rule="evenodd" stroke="none"/>
    <path d="M0.35 -43.5 L1.0 -42.9 -2.45 -42.4 -2.7 -42.65 -2.75 -43.05 -2.75 -43.15 -2.85 -43.6 -2.85 -43.95 -2.5 -44.2 -1.55 -44.15 -0.95 -43.8 0.35 -43.5" fill="url(#gradient13)" fill-rule="evenodd" stroke="none"/>
    <path d="M9.85 -36.65 L9.8 -35.35 9.15 -34.05 9.5 -35.25 9.5 -36.15 9.85 -36.65" fill="url(#gradient14)" fill-rule="evenodd" stroke="none"/>
    <path d="M-9.1 -32.9 Q-10.5 -34.25 -8.55 -38.25 L-8.55 -38.3 Q-0.4 -40.75 2.35 -34.5 L2.5 -33.75 2.45 -33.1 Q2.3 -29.1 -0.45 -30.3 0.0 -31.4 -3.3 -32.75 L-9.1 -32.9" fill="url(#gradient15)" fill-rule="evenodd" stroke="none"/>
    <path d="M-5.6 -41.15 L-5.2 -41.4 -5.15 -41.45 -3.6 -41.7 -2.3 -41.45 Q3.4 -40.3 4.75 -34.5 3.2 -29.5 2.45 -33.1 L2.5 -33.75 2.85 -34.5 Q2.55 -41.15 -5.6 -41.15" fill="url(#gradient16)" fill-rule="evenodd" stroke="none"/>
    <path d="M-8.55 -38.3 Q-7.15 -41.5 -5.6 -41.15 2.55 -41.15 2.85 -34.5 L2.5 -33.75 2.35 -34.5 Q-0.4 -40.75 -8.55 -38.3" fill="url(#gradient17)" fill-rule="evenodd" stroke="none"/>
    <path d="M7.6 -31.25 L7.95 -30.7 Q9.0 -26.9 10.05 -24.35 10.8 -14.35 9.3 -14.25 L9.05 -14.25 8.55 -14.35 7.95 -14.7 6.1 -17.05 5.15 -17.9 3.85 -19.05 4.1 -21.2 Q3.65 -22.6 4.2 -24.1 L5.0 -27.05 Q5.35 -28.05 7.6 -31.25" fill="url(#gradient18)" fill-rule="evenodd" stroke="none"/>
    <path d="M4.0 -18.3 L4.2 -18.1 3.65 -17.8 3.75 -18.4 4.0 -18.3" fill="url(#gradient19)" fill-rule="evenodd" stroke="none"/>
    <path d="M5.15 -17.9 L6.1 -17.05 7.95 -14.7 6.7 -15.5 6.05 -15.95 4.2 -18.1 4.0 -18.3 4.05 -18.3 5.15 -17.9" fill="url(#gradient20)" fill-rule="evenodd" stroke="none"/>
    <path d="M3.65 -17.8 L4.2 -18.1 6.05 -15.95 6.7 -15.5 6.4 -15.65 Q5.65 -14.4 4.65 -14.85 L4.15 -14.3 3.5 -14.45 3.65 -17.8" fill="url(#gradient21)" fill-rule="evenodd" stroke="none"/>
    <path d="M3.85 -19.05 L5.15 -17.9 4.05 -18.3 4.0 -18.3 3.75 -18.4 3.85 -19.05" fill="url(#gradient22)" fill-rule="evenodd" stroke="none"/>
    <path d="M9.05 -14.05 L8.65 -13.15 8.55 -12.95 8.15 -12.5 7.85 -12.2 7.15 -10.85 6.85 -10.25 6.05 -9.55 5.3 -9.5 5.1 -9.75 2.85 -9.45 3.05 -9.85 Q3.0 -11.4 3.4 -13.7 L3.5 -14.45 4.15 -14.3 4.65 -14.85 Q5.65 -14.4 6.4 -15.65 L6.7 -15.5 7.95 -14.7 8.55 -14.35 9.05 -14.25 9.1 -14.15 9.05 -14.05" fill="url(#gradient23)" fill-rule="evenodd" stroke="none"/>
    <path d="M9.3 -14.25 L9.2 -14.1 9.1 -14.15 9.05 -14.25 9.3 -14.25" fill="url(#gradient24)" fill-rule="evenodd" stroke="none"/>
    <path d="M9.2 -14.1 L9.05 -14.05 9.1 -14.15 9.2 -14.1" fill="url(#gradient25)" fill-rule="evenodd" stroke="none"/>
    <path d="M8.65 -13.15 L8.85 -12.5 8.85 -12.2 8.55 -11.65 7.15 -10.85 7.85 -12.2 8.15 -12.5 8.45 -12.7 8.55 -12.95 8.65 -13.15" fill="url(#gradient26)" fill-rule="evenodd" stroke="none"/>
    <path d="M8.15 -12.5 L8.55 -12.95 8.45 -12.7 8.15 -12.5" fill="url(#gradient27)" fill-rule="evenodd" stroke="none"/>
    <path d="M2.85 -9.45 L5.1 -9.75 5.3 -9.5 Q5.05 -7.9 1.75 -7.6 L2.85 -9.45" fill="url(#gradient28)" fill-rule="evenodd" stroke="none"/>
    <path d="M8.85 -12.5 Q10.6 -11.2 12.4 -6.55 12.4 -3.35 11.15 -4.45 L10.85 -4.6 9.8 -3.45 9.55 -3.25 9.4 -3.1 9.2 -1.85 9.05 -1.1 8.3 -1.1 5.35 -0.45 4.75 -0.05 3.0 -0.6 2.1 -1.15 2.05 -1.2 2.1 -2.4 Q2.1 -2.95 1.15 -2.4 L1.1 -2.45 1.2 -3.25 Q1.55 -2.8 0.75 -5.0 L1.35 -6.8 Q6.4 -7.25 6.05 -9.55 L6.85 -10.25 7.15 -10.85 8.55 -11.65 8.85 -12.2 8.85 -12.5" fill="url(#gradient29)" fill-rule="evenodd" stroke="none"/>
    <path d="M5.3 -9.5 L6.05 -9.55 Q6.4 -7.25 1.35 -6.8 L1.75 -7.6 Q5.05 -7.9 5.3 -9.5" fill="url(#gradient30)" fill-rule="evenodd" stroke="none"/>
    <path d="M2.05 -1.15 L2.05 -1.2 2.1 -1.15 2.05 -1.15" fill="url(#gradient31)" fill-rule="evenodd" stroke="none"/>
    <path d="M8.7 0.6 L7.7 1.25 5.5 1.7 Q2.7 1.7 1.95 -0.2 L2.05 -1.15 2.1 -1.15 3.0 -0.6 4.75 -0.05 5.35 -0.45 8.3 -1.1 9.05 -1.1 9.2 -1.85 Q10.1 -0.45 9.55 -0.25 L8.7 0.6" fill="url(#gradient32)" fill-rule="evenodd" stroke="none"/>
    <path d="M9.2 -1.85 L9.4 -3.1 9.55 -3.25 9.8 -3.45 9.9 -3.25 10.4 -1.75 Q10.5 -0.05 9.55 -0.25 10.1 -0.45 9.2 -1.85" fill="url(#gradient33)" fill-rule="evenodd" stroke="none"/>
    <path d="M11.5 -2.8 L11.5 -1.6 11.4 -1.4 11.2 -1.4 10.4 -1.75 9.9 -3.25 9.8 -3.45 10.85 -4.6 11.15 -4.45 11.15 -3.65 11.5 -2.8" fill="url(#gradient34)" fill-rule="evenodd" stroke="none"/>
    <path d="M12.4 -6.55 Q15.85 -3.8 11.5 -2.8 L11.15 -3.65 11.15 -4.45 Q12.4 -3.35 12.4 -6.55" fill="url(#gradient35)" fill-rule="evenodd" stroke="none"/>
    <path d="M11.5 -1.6 L13.85 2.7 14.0 3.0 13.9 3.45 13.05 4.05 12.85 4.15 12.4 4.3 12.3 4.3 12.1 4.3 12.05 4.3 11.85 4.4 11.3 4.4 10.9 4.3 10.5 3.95 9.85 2.5 8.7 0.6 9.55 -0.25 Q10.5 -0.05 10.4 -1.75 L11.2 -1.4 11.4 -1.4 11.5 -1.6" fill="url(#gradient36)" fill-rule="evenodd" stroke="none"/>
    <path d="M13.85 2.7 L14.2 2.9 13.9 3.45 14.0 3.0 13.85 2.7 M10.5 4.3 L10.5 3.95 10.9 4.3 11.3 4.4 10.5 4.3" fill="url(#gradient37)" fill-rule="evenodd" stroke="none"/>
    <path d="M14.2 2.9 L14.95 4.5 Q15.2 5.75 11.5 6.35 L11.25 6.25 11.2 6.15 11.05 5.75 11.05 5.7 10.5 4.3 11.3 4.4 11.85 4.4 12.05 4.3 12.1 4.3 12.3 4.3 12.4 4.3 12.85 4.15 13.05 4.05 13.9 3.45 14.2 2.9" fill="url(#gradient38)" fill-rule="evenodd" stroke="none"/>
    <path d="M13.25 9.1 L13.5 9.35 11.8 9.75 10.55 8.5 10.35 8.0 10.35 7.6 10.6 7.15 10.65 6.95 10.75 6.55 10.75 6.5 10.9 6.1 10.95 6.1 10.95 6.05 11.05 5.7 11.05 5.75 11.2 6.15 11.2 6.25 11.3 6.75 11.4 7.15 12.4 8.5 13.25 9.1" fill="url(#gradient39)" fill-rule="evenodd" stroke="none"/>
    <path d="M10.7 6.55 L10.75 6.5 10.75 6.55 10.7 6.55 M10.9 6.1 L10.95 6.05 10.95 6.1 10.9 6.1 M11.2 6.25 L11.25 6.25 11.5 6.35 11.3 6.75 11.2 6.25" fill="url(#gradient40)" fill-rule="evenodd" stroke="none"/>
    <path d="M11.25 6.25 L11.2 6.25 11.2 6.15 11.25 6.25" fill="url(#gradient41)" fill-rule="evenodd" stroke="none"/>
    <path d="M10.35 6.85 L10.7 6.55 10.75 6.55 10.65 6.95 10.35 6.85" fill="url(#gradient42)" fill-rule="evenodd" stroke="none"/>
    <path d="M9.85 8.5 L8.95 8.0 8.95 7.65 10.2 6.95 10.25 6.9 10.3 6.9 10.35 6.85 10.65 6.95 10.6 7.15 10.35 7.6 10.35 8.0 9.85 8.5" fill="url(#gradient43)" fill-rule="evenodd" stroke="none"/>
    <path d="M14.95 4.5 Q18.9 7.2 13.25 9.1 L12.4 8.5 11.4 7.15 11.3 6.75 11.5 6.35 Q15.2 5.75 14.95 4.5 M11.8 9.75 L11.4 9.8 9.85 8.5 10.35 8.0 10.55 8.5 11.8 9.75" fill="url(#gradient44)" fill-rule="evenodd" stroke="none"/>
    <path d="M-6.05 -53.6 L-6.55 -55.6 Q-6.75 -57.3 -6.45 -58.3 L-6.2 -59.1 -5.6 -59.6 Q-6.1 -58.9 -6.0 -57.6 L-5.5 -55.3 -5.35 -55.0 -5.25 -54.65 -5.45 -54.55 -6.0 -53.6 -6.05 -53.6" fill="url(#gradient45)" fill-rule="evenodd" stroke="none"/>
    <path d="M-5.35 -55.0 L-5.05 -55.25 -4.6 -55.3 -4.45 -55.25 -5.25 -54.65 -5.35 -55.0" fill="url(#gradient46)" fill-rule="evenodd" stroke="none"/>
    <path d="M-6.05 -53.55 L-6.05 -53.6 -6.0 -53.6 -6.05 -53.55" fill="url(#gradient47)" fill-rule="evenodd" stroke="none"/>
    <path d="M-6.8 -51.75 L-8.7 -51.7 -9.95 -50.65 Q-11.2 -49.05 -11.8 -46.7 L-11.3 -48.95 Q-8.4 -54.8 -6.2 -53.3 L-6.8 -51.75" fill="url(#gradient48)" fill-rule="evenodd" stroke="none"/>
    <path d="M-3.1 -43.6 L-4.15 -44.0 -5.1 -45.0 -3.6 -44.4 -2.5 -44.2 -2.85 -43.95 -2.85 -43.6 -3.1 -43.6" fill="url(#gradient49)" fill-rule="evenodd" stroke="none"/>
    <path d="M-2.75 -43.15 L-2.75 -43.05 -2.85 -43.05 -2.75 -43.15" fill="url(#gradient50)" fill-rule="evenodd" stroke="none"/>
    <path d="M-8.9 -25.5 L-9.4 -26.6 -9.3 -28.5 Q-6.35 -26.5 -1.6 -27.35 -2.8 -22.05 -8.9 -25.5" fill="url(#gradient51)" fill-rule="evenodd" stroke="none"/>
    <path d="M-9.3 -28.5 Q-9.9 -29.25 -9.75 -30.05 L-9.1 -32.9 -3.3 -32.75 Q0.0 -31.4 -0.45 -30.3 L-0.95 -28.05 -1.1 -27.7 -1.6 -27.35 Q-6.35 -26.5 -9.3 -28.5" fill="url(#gradient52)" fill-rule="evenodd" stroke="none"/>
    <path d="M-9.85 -22.35 L-9.75 -22.45 -9.8 -22.25 -9.85 -22.35" fill="url(#gradient53)" fill-rule="evenodd" stroke="none"/>
    <path d="M-10.8 -20.25 L-10.4 -21.35 -9.85 -22.35 -9.8 -22.25 Q-10.05 -22.25 -9.7 -20.25 L-10.2 -15.05 Q-11.95 -17.8 -10.9 -20.05 L-10.8 -20.25" fill="url(#gradient54)" fill-rule="evenodd" stroke="none"/>
    <path d="M-10.95 -20.05 L-10.95 -20.1 -10.9 -20.15 -10.8 -20.25 -10.9 -20.05 -10.95 -20.05" fill="url(#gradient55)" fill-rule="evenodd" stroke="none"/>
    <path d="M-13.25 -14.75 L-12.25 -17.8 -10.95 -20.05 -10.9 -20.05 Q-11.95 -17.8 -10.2 -15.05 L-10.25 -13.7 -10.05 -12.7 -8.45 -8.3 Q-11.75 -9.15 -13.15 -13.7 L-13.25 -14.75" fill="url(#gradient56)" fill-rule="evenodd" stroke="none"/>
    <path d="M-13.45 -12.35 Q-13.7 -12.85 -13.55 -14.05 L-13.25 -14.75 -13.15 -13.7 Q-11.75 -9.15 -8.45 -8.3 L-8.1 -7.25 Q-12.45 -8.35 -13.45 -12.35" fill="url(#gradient57)" fill-rule="evenodd" stroke="none"/>
    <path d="M-13.7 -11.2 L-13.45 -12.35 Q-12.45 -8.35 -8.1 -7.25 L-7.45 -5.6 Q-12.3 -6.5 -13.7 -11.2" fill="url(#gradient58)" fill-rule="evenodd" stroke="none"/>
    <path d="M-5.0 -2.9 L-6.0 -2.4 -6.45 -1.85 Q-10.2 -0.2 -12.65 -3.25 L-13.8 -4.3 -14.1 -7.45 -14.25 -9.35 -13.7 -11.2 Q-12.3 -6.5 -7.45 -5.6 L-6.9 -4.55 -5.7 -3.25 -5.0 -2.9" fill="url(#gradient59)" fill-rule="evenodd" stroke="none"/>
    <path d="M-6.45 -1.85 L-6.55 -1.05 -7.45 -0.15 Q-9.8 0.8 -12.5 -1.3 L-13.85 -2.65 -14.7 -4.15 -14.8 -5.65 -14.35 -7.2 -14.1 -7.45 -13.8 -4.3 -12.65 -3.25 Q-10.2 -0.2 -6.45 -1.85" fill="url(#gradient60)" fill-rule="evenodd" stroke="none"/>
    <path d="M-7.45 -0.15 Q-8.0 3.3 -12.15 0.15 L-12.25 0.0 -12.6 -0.7 -12.5 -1.3 Q-9.8 0.8 -7.45 -0.15 M-13.9 -1.55 L-15.4 -3.05 Q-15.7 -3.75 -14.7 -4.15 L-13.85 -2.65 -14.0 -2.1 -13.9 -1.55" fill="url(#gradient61)" fill-rule="evenodd" stroke="none"/>
    <path d="M-12.15 0.15 L-11.75 0.55 -11.9 0.6 -13.25 -0.35 -13.9 -1.55 -14.0 -2.1 -13.85 -2.65 -12.5 -1.3 -12.6 -0.7 -12.25 0.0 -12.15 0.15" fill="url(#gradient62)" fill-rule="evenodd" stroke="none"/>
    <path d="M-1.55 -0.45 L-3.05 -1.45 -4.1 -2.4 -2.95 -2.05 -1.55 -0.45" fill="url(#gradient63)" fill-rule="evenodd" stroke="none"/>
  </g>
  <defs>
    <radialGradient cx="0" cy="0" gradientTransform="matrix(0.0088, 0.0, 0.0, 0.0088, -0.7, -49.35)" gradientUnits="userSpaceOnUse" id="gradient0" r="819.2" spreadMethod="pad">
      <stop offset="0.0" stop-color="#aa955a"/>
      <stop offset="1.0" stop-color="#6b5f39"/>
    </radialGradient>
    <radialGradient cx="0" cy="0" gradientTransform="matrix(0.006, 0.0, 0.0, 0.006, 7.7, -46.05)" gradientUnits="userSpaceOnUse" id="gradient1" r="819.2" spreadMethod="pad">
      <stop offset="0.0" stop-color="#ffc872"/>
      <stop offset="1.0" stop-color="#ab7c47"/>
    </radialGradient>
    <radialGradient cx="0" cy="0" gradientTransform="matrix(0.0367, 0.0, 0.0, 0.0367, -1.6, -18.35)" gradientUnits="userSpaceOnUse" id="gradient2" r="819.2" spreadMethod="pad">
      <stop offset="0.0" stop-color="#3b4671"/>
      <stop offset="1.0" stop-color="#1f263c"/>
    </radialGradient>
    <radialGradient cx="0" cy="0" gradientTransform="matrix(0.0099, 0.0, 0.0, 0.0099, 2.95, -40.3)" gradientUnits="userSpaceOnUse" id="gradient3" r="819.2" spreadMethod="pad">
      <stop offset="0.0" stop-color="#ffdf80"/>
      <stop offset="1.0" stop-color="#c48d51"/>
    </radialGradient>
    <radialGradient cx="0" cy="0" gradientTransform="matrix(0.0079, 0.0, 0.0, 0.0079, 7.1, -44.65)" gradientUnits="userSpaceOnUse" id="gradient4" r="819.2" spreadMethod="pad">
      <stop offset="0.0" stop-color="#665c4a"/>
      <stop offset="1.0" stop-color="#453e32"/>
    </radialGradient>
    <radialGradient cx="0" cy="0" gradientTransform="matrix(0.0086, 0.0, 0.0, 0.0086, -1.55, -46.6)" gradientUnits="userSpaceOnUse" id="gradient5" r="819.2" spreadMethod="pad">
      <stop offset="0.0" stop-color="#4b4437"/>
      <stop offset="1.0" stop-color="#3d382c"/>
    </radialGradient>
    <radialGradient cx="0" cy="0" gradientTransform="matrix(0.0128, 0.0, 0.0, 0.0128, 3.0, -49.5)" gradientUnits="userSpaceOnUse" id="gradient6" r="819.2" spreadMethod="pad">
      <stop offset="0.0" stop-color="#4c4537"/>
      <stop offset="1.0" stop-color="#484134"/>
    </radialGradient>
    <radialGradient cx="0" cy="0" gradientTransform="matrix(0.0116, 0.0, 0.0, 0.0116, 2.95, -43.55)" gradientUnits="userSpaceOnUse" id="gradient7" r="819.2" spreadMethod="pad">
      <stop offset="0.0" stop-color="#ac975c"/>
      <stop offset="1.0" stop-color="#6f623b"/>
    </radialGradient>
    <radialGradient cx="0" cy="0" gradientTransform="matrix(0.0046, 0.0, 0.0, 0.0046, 2.2, -42.5)" gradientUnits="userSpaceOnUse" id="gradient8" r="819.2" spreadMethod="pad">
      <stop offset="0.0" stop-color="#ad985c"/>
      <stop offset="1.0" stop-color="#8c7b4a"/>
    </radialGradient>
    <radialGradient cx="0" cy="0" gradientTransform="matrix(0.0041, 0.0, 0.0, 0.0041, 0.35, -44.5)" gradientUnits="userSpaceOnUse" id="gradient9" r="819.2" spreadMethod="pad">
      <stop offset="0.0" stop-color="#907e4d"/>
      <stop offset="1.0" stop-color="#6a5d38"/>
    </radialGradient>
    <radialGradient cx="0" cy="0" gradientTransform="matrix(0.0062, 0.0, 0.0, 0.0062, 5.7, -41.65)" gradientUnits="userSpaceOnUse" id="gradient10" r="819.2" spreadMethod="pad">
      <stop offset="0.0" stop-color="#a08c55"/>
      <stop offset="1.0" stop-color="#74663e"/>
    </radialGradient>
    <radialGradient cx="0" cy="0" gradientTransform="matrix(0.0108, 0.0, 0.0, 0.0108, -4.05, -41.55)" gradientUnits="userSpaceOnUse" id="gradient11" r="819.2" spreadMethod="pad">
      <stop offset="0.0" stop-color="#ffec55"/>
      <stop offset="1.0" stop-color="#a49435"/>
    </radialGradient>
    <radialGradient cx="0" cy="0" gradientTransform="matrix(0.0021, 0.0, 0.0, 0.0021, 6.7, -41.25)" gradientUnits="userSpaceOnUse" id="gradient12" r="819.2" spreadMethod="pad">
      <stop offset="0.0" stop-color="#3b4670"/>
      <stop offset="1.0" stop-color="#343e63"/>
    </radialGradient>
    <radialGradient cx="0" cy="0" gradientTransform="matrix(0.004, 0.0, 0.0, 0.004, 0.0, -44.3)" gradientUnits="userSpaceOnUse" id="gradient13" r="819.2" spreadMethod="pad">
      <stop offset="0.0" stop-color="#ffd67b"/>
      <stop offset="1.0" stop-color="#c99153"/>
    </radialGradient>
    <radialGradient cx="0" cy="0" gradientTransform="matrix(0.0031, 0.0, 0.0, 0.0031, 8.6, -35.15)" gradientUnits="userSpaceOnUse" id="gradient14" r="819.2" spreadMethod="pad">
      <stop offset="0.0" stop-color="#4a4336"/>
      <stop offset="1.0" stop-color="#353026"/>
    </radialGradient>
    <radialGradient cx="0" cy="0" gradientTransform="matrix(0.0081, 0.0, 0.0, 0.0081, -3.45, -34.9)" gradientUnits="userSpaceOnUse" id="gradient15" r="819.2" spreadMethod="pad">
      <stop offset="0.0" stop-color="#615746"/>
      <stop offset="1.0" stop-color="#383228"/>
    </radialGradient>
    <radialGradient cx="0" cy="0" gradientTransform="matrix(0.0093, 0.0, 0.0, 0.0093, 0.7, -37.65)" gradientUnits="userSpaceOnUse" id="gradient16" r="819.2" spreadMethod="pad">
      <stop offset="0.0" stop-color="#605746"/>
      <stop offset="1.0" stop-color="#3d362c"/>
    </radialGradient>
    <radialGradient cx="0" cy="0" gradientTransform="matrix(0.0083, 0.0, 0.0, 0.0083, -2.8, -38.05)" gradientUnits="userSpaceOnUse" id="gradient17" r="819.2" spreadMethod="pad">
      <stop offset="0.0" stop-color="#5b5242"/>
      <stop offset="1.0" stop-color="#3b362b"/>
    </radialGradient>
    <radialGradient cx="0" cy="0" gradientTransform="matrix(0.0165, 0.0, 0.0, 0.0165, 4.45, -27.0)" gradientUnits="userSpaceOnUse" id="gradient18" r="819.2" spreadMethod="pad">
      <stop offset="0.0" stop-color="#374168"/>
      <stop offset="1.0" stop-color="#222840"/>
    </radialGradient>
    <radialGradient cx="0" cy="0" gradientTransform="matrix(0.0018, 0.0, 0.0, 0.0018, 4.2, -18.75)" gradientUnits="userSpaceOnUse" id="gradient19" r="819.2" spreadMethod="pad">
      <stop offset="0.0" stop-color="#6f6957"/>
      <stop offset="1.0" stop-color="#595446"/>
    </radialGradient>
    <radialGradient cx="0" cy="0" gradientTransform="matrix(0.0047, 0.0, 0.0, 0.0047, 5.05, -17.25)" gradientUnits="userSpaceOnUse" id="gradient20" r="819.2" spreadMethod="pad">
      <stop offset="0.0" stop-color="#141826"/>
      <stop offset="1.0" stop-color="#111420"/>
    </radialGradient>
    <radialGradient cx="0" cy="0" gradientTransform="matrix(0.0087, 0.0, 0.0, 0.0087, 1.7, -20.5)" gradientUnits="userSpaceOnUse" id="gradient21" r="819.2" spreadMethod="pad">
      <stop offset="0.0" stop-color="#ded1ae"/>
      <stop offset="1.0" stop-color="#b6ab8e"/>
    </radialGradient>
    <radialGradient cx="0" cy="0" gradientTransform="matrix(0.003, 0.0, 0.0, 0.003, 3.35, -19.5)" gradientUnits="userSpaceOnUse" id="gradient22" r="819.2" spreadMethod="pad">
      <stop offset="0.0" stop-color="#131623"/>
      <stop offset="1.0" stop-color="#0e111b"/>
    </radialGradient>
    <radialGradient cx="0" cy="0" gradientTransform="matrix(0.0104, 0.0, 0.0, 0.0104, 3.45, -16.9)" gradientUnits="userSpaceOnUse" id="gradient23" r="819.2" spreadMethod="pad">
      <stop offset="0.0" stop-color="#e8dbb6"/>
      <stop offset="1.0" stop-color="#9e957c"/>
    </radialGradient>
    <radialGradient cx="0" cy="0" gradientTransform="matrix(4.0E-4, 0.0, 0.0, 4.0E-4, 9.15, -14.2)" gradientUnits="userSpaceOnUse" id="gradient24" r="819.2" spreadMethod="pad">
      <stop offset="0.0" stop-color="#21273f"/>
      <stop offset="1.0" stop-color="#1e2338"/>
    </radialGradient>
    <radialGradient cx="0" cy="0" gradientTransform="matrix(9.0E-4, 0.0, 0.0, 9.0E-4, 8.55, -14.6)" gradientUnits="userSpaceOnUse" id="gradient25" r="819.2" spreadMethod="pad">
      <stop offset="0.0" stop-color="#08090e"/>
      <stop offset="1.0" stop-color="#08090e"/>
    </radialGradient>
    <radialGradient cx="0" cy="0" gradientTransform="matrix(0.0028, 0.0, 0.0, 0.0028, 7.5, -11.3)" gradientUnits="userSpaceOnUse" id="gradient26" r="819.2" spreadMethod="pad">
      <stop offset="0.0" stop-color="#6a5f4d"/>
      <stop offset="1.0" stop-color="#433c30"/>
    </radialGradient>
    <radialGradient cx="0" cy="0" gradientTransform="matrix(0.0011, 0.0, 0.0, 0.0011, 8.35, -13.05)" gradientUnits="userSpaceOnUse" id="gradient27" r="819.2" spreadMethod="pad">
      <stop offset="0.0" stop-color="#342f26"/>
      <stop offset="1.0" stop-color="#2e2921"/>
    </radialGradient>
    <radialGradient cx="0" cy="0" gradientTransform="matrix(0.0031, 0.0, 0.0, 0.0031, 3.45, -8.7)" gradientUnits="userSpaceOnUse" id="gradient28" r="819.2" spreadMethod="pad">
      <stop offset="0.0" stop-color="#716652"/>
      <stop offset="1.0" stop-color="#2f2b22"/>
    </radialGradient>
    <radialGradient cx="0" cy="0" gradientTransform="matrix(0.0116, 0.0, 0.0, 0.0116, 5.85, -8.55)" gradientUnits="userSpaceOnUse" id="gradient29" r="819.2" spreadMethod="pad">
      <stop offset="0.0" stop-color="#ffffdb"/>
      <stop offset="1.0" stop-color="#a39980"/>
    </radialGradient>
    <radialGradient cx="0" cy="0" gradientTransform="matrix(0.006, 0.0, 0.0, 0.006, 4.6, -9.15)" gradientUnits="userSpaceOnUse" id="gradient30" r="819.2" spreadMethod="pad">
      <stop offset="0.0" stop-color="#6f6451"/>
      <stop offset="1.0" stop-color="#393329"/>
    </radialGradient>
    <radialGradient cx="0" cy="0" gradientTransform="matrix(0.0035, 0.0, 0.0, 0.0035, 1.6, -2.0)" gradientUnits="userSpaceOnUse" id="gradient31" r="819.2" spreadMethod="pad">
      <stop offset="0.0" stop-color="#635d4d"/>
      <stop offset="1.0" stop-color="#555043"/>
    </radialGradient>
    <radialGradient cx="0" cy="0" gradientTransform="matrix(0.0068, 0.0, 0.0, 0.0068, 7.25, -0.5)" gradientUnits="userSpaceOnUse" id="gradient32" r="819.2" spreadMethod="pad">
      <stop offset="0.0" stop-color="#726753"/>
      <stop offset="1.0" stop-color="#443e31"/>
    </radialGradient>
    <radialGradient cx="0" cy="0" gradientTransform="matrix(0.0049, 0.0, 0.0, 0.0049, 8.75, -4.2)" gradientUnits="userSpaceOnUse" id="gradient33" r="819.2" spreadMethod="pad">
      <stop offset="0.0" stop-color="#ffce76"/>
      <stop offset="1.0" stop-color="#845f36"/>
    </radialGradient>
    <radialGradient cx="0" cy="0" gradientTransform="matrix(0.005, 0.0, 0.0, 0.005, 9.7, -5.0)" gradientUnits="userSpaceOnUse" id="gradient34" r="819.2" spreadMethod="pad">
      <stop offset="0.0" stop-color="#ffe181"/>
      <stop offset="1.0" stop-color="#a47643"/>
    </radialGradient>
    <radialGradient cx="0" cy="0" gradientTransform="matrix(0.0031, 0.0, 0.0, 0.0031, 11.75, -4.2)" gradientUnits="userSpaceOnUse" id="gradient35" r="819.2" spreadMethod="pad">
      <stop offset="0.0" stop-color="#716652"/>
      <stop offset="1.0" stop-color="#40392e"/>
    </radialGradient>
    <radialGradient cx="0" cy="0" gradientTransform="matrix(0.0096, 0.0, 0.0, 0.0096, 9.75, -1.75)" gradientUnits="userSpaceOnUse" id="gradient36" r="819.2" spreadMethod="pad">
      <stop offset="0.0" stop-color="#ffea86"/>
      <stop offset="1.0" stop-color="#e5b266"/>
    </radialGradient>
    <radialGradient cx="0" cy="0" gradientTransform="matrix(0.0044, 0.0, 0.0, 0.0044, 13.8, 3.0)" gradientUnits="userSpaceOnUse" id="gradient37" r="819.2" spreadMethod="pad">
      <stop offset="0.0" stop-color="#433d31"/>
      <stop offset="1.0" stop-color="#3e372d"/>
    </radialGradient>
    <radialGradient cx="0" cy="0" gradientTransform="matrix(0.0039, 0.0, 0.0, 0.0039, 13.4, 5.15)" gradientUnits="userSpaceOnUse" id="gradient38" r="819.2" spreadMethod="pad">
      <stop offset="0.0" stop-color="#6f6551"/>
      <stop offset="1.0" stop-color="#393429"/>
    </radialGradient>
    <radialGradient cx="0" cy="0" gradientTransform="matrix(0.0033, 0.0, 0.0, 0.0033, 11.15, 7.8)" gradientUnits="userSpaceOnUse" id="gradient39" r="819.2" spreadMethod="pad">
      <stop offset="0.0" stop-color="#3d372c"/>
      <stop offset="1.0" stop-color="#332e25"/>
    </radialGradient>
    <radialGradient cx="0" cy="0" gradientTransform="matrix(0.0016, 0.0, 0.0, 0.0016, 10.85, 6.05)" gradientUnits="userSpaceOnUse" id="gradient40" r="819.2" spreadMethod="pad">
      <stop offset="0.0" stop-color="#0c0b09"/>
      <stop offset="1.0" stop-color="#0c0b09"/>
    </radialGradient>
    <radialGradient cx="0" cy="0" gradientTransform="matrix(4.0E-4, 0.0, 0.0, 4.0E-4, 11.15, 5.95)" gradientUnits="userSpaceOnUse" id="gradient41" r="819.2" spreadMethod="pad">
      <stop offset="0.0" stop-color="#0c0b09"/>
      <stop offset="1.0" stop-color="#0c0b09"/>
    </radialGradient>
    <radialGradient cx="0" cy="0" gradientTransform="matrix(0.002, 0.0, 0.0, 0.002, 11.0, 6.95)" gradientUnits="userSpaceOnUse" id="gradient42" r="819.2" spreadMethod="pad">
      <stop offset="0.0" stop-color="#ffcc75"/>
      <stop offset="1.0" stop-color="#b7844c"/>
    </radialGradient>
    <radialGradient cx="0" cy="0" gradientTransform="matrix(0.0023, 0.0, 0.0, 0.0023, 9.8, 8.4)" gradientUnits="userSpaceOnUse" id="gradient43" r="819.2" spreadMethod="pad">
      <stop offset="0.0" stop-color="#ffc370"/>
      <stop offset="1.0" stop-color="#b7844c"/>
    </radialGradient>
    <radialGradient cx="0" cy="0" gradientTransform="matrix(0.0067, 0.0, 0.0, 0.0067, 13.9, 5.7)" gradientUnits="userSpaceOnUse" id="gradient44" r="819.2" spreadMethod="pad">
      <stop offset="0.0" stop-color="#ffff93"/>
      <stop offset="1.0" stop-color="#866138"/>
    </radialGradient>
    <radialGradient cx="0" cy="0" gradientTransform="matrix(0.0071, 0.0, 0.0, 0.0071, -5.7, -53.95)" gradientUnits="userSpaceOnUse" id="gradient45" r="819.2" spreadMethod="pad">
      <stop offset="0.0" stop-color="#a59158"/>
      <stop offset="1.0" stop-color="#52482b"/>
    </radialGradient>
    <radialGradient cx="0" cy="0" gradientTransform="matrix(0.0014, 0.0, 0.0, 0.0014, -5.1, -54.65)" gradientUnits="userSpaceOnUse" id="gradient46" r="819.2" spreadMethod="pad">
      <stop offset="0.0" stop-color="#75673e"/>
      <stop offset="1.0" stop-color="#5c5131"/>
    </radialGradient>
    <radialGradient cx="0" cy="0" gradientTransform="matrix(0.003, 0.0, 0.0, 0.003, -5.5, -54.65)" gradientUnits="userSpaceOnUse" id="gradient47" r="819.2" spreadMethod="pad">
      <stop offset="0.0" stop-color="#15130b"/>
      <stop offset="1.0" stop-color="#15130b"/>
    </radialGradient>
    <radialGradient cx="0" cy="0" gradientTransform="matrix(0.0106, 0.0, 0.0, 0.0106, -5.65, -52.0)" gradientUnits="userSpaceOnUse" id="gradient48" r="819.2" spreadMethod="pad">
      <stop offset="0.0" stop-color="#ad985c"/>
      <stop offset="1.0" stop-color="#53492c"/>
    </radialGradient>
    <radialGradient cx="0" cy="0" gradientTransform="matrix(0.0044, 0.0, 0.0, 0.0044, -5.45, -45.55)" gradientUnits="userSpaceOnUse" id="gradient49" r="819.2" spreadMethod="pad">
      <stop offset="0.0" stop-color="#9c7140"/>
      <stop offset="1.0" stop-color="#5f4527"/>
    </radialGradient>
    <radialGradient cx="0" cy="0" gradientTransform="matrix(0.0017, 0.0, 0.0, 0.0017, -2.65, -42.5)" gradientUnits="userSpaceOnUse" id="gradient50" r="819.2" spreadMethod="pad">
      <stop offset="0.0" stop-color="#261c10"/>
      <stop offset="1.0" stop-color="#261c10"/>
    </radialGradient>
    <radialGradient cx="0" cy="0" gradientTransform="matrix(0.005, 0.0, 0.0, 0.005, -5.5, -27.7)" gradientUnits="userSpaceOnUse" id="gradient51" r="819.2" spreadMethod="pad">
      <stop offset="0.0" stop-color="#5d5443"/>
      <stop offset="1.0" stop-color="#3a342a"/>
    </radialGradient>
    <radialGradient cx="0" cy="0" gradientTransform="matrix(0.0064, 0.0, 0.0, 0.0064, -5.7, -30.4)" gradientUnits="userSpaceOnUse" id="gradient52" r="819.2" spreadMethod="pad">
      <stop offset="0.0" stop-color="#625847"/>
      <stop offset="1.0" stop-color="#433c30"/>
    </radialGradient>
    <radialGradient cx="0" cy="0" gradientTransform="matrix(0.0284, 0.0, 0.0, 0.0284, -9.35, -24.1)" gradientUnits="userSpaceOnUse" id="gradient53" r="819.2" spreadMethod="pad">
      <stop offset="0.0" stop-color="#242b44"/>
      <stop offset="1.0" stop-color="#0b0d15"/>
    </radialGradient>
    <radialGradient cx="0" cy="0" gradientTransform="matrix(0.0072, 0.0, 0.0, 0.0072, -9.0, -19.5)" gradientUnits="userSpaceOnUse" id="gradient54" r="819.2" spreadMethod="pad">
      <stop offset="0.0" stop-color="#b1a78b"/>
      <stop offset="1.0" stop-color="#9f957c"/>
    </radialGradient>
    <radialGradient cx="0" cy="0" gradientTransform="matrix(0.0083, 0.0, 0.0, 0.0083, -9.1, -23.75)" gradientUnits="userSpaceOnUse" id="gradient55" r="819.2" spreadMethod="pad">
      <stop offset="0.0" stop-color="#918871"/>
      <stop offset="1.0" stop-color="#857d68"/>
    </radialGradient>
    <radialGradient cx="0" cy="0" gradientTransform="matrix(0.0102, 0.0, 0.0, 0.0102, -9.2, -15.75)" gradientUnits="userSpaceOnUse" id="gradient56" r="819.2" spreadMethod="pad">
      <stop offset="0.0" stop-color="#c5b99a"/>
      <stop offset="1.0" stop-color="#837c67"/>
    </radialGradient>
    <radialGradient cx="0" cy="0" gradientTransform="matrix(0.0101, 0.0, 0.0, 0.0101, -8.45, -8.35)" gradientUnits="userSpaceOnUse" id="gradient57" r="819.2" spreadMethod="pad">
      <stop offset="0.0" stop-color="#716652"/>
      <stop offset="1.0" stop-color="#3a342a"/>
    </radialGradient>
    <radialGradient cx="0" cy="0" gradientTransform="matrix(0.0084, 0.0, 0.0, 0.0084, -8.6, -7.7)" gradientUnits="userSpaceOnUse" id="gradient58" r="819.2" spreadMethod="pad">
      <stop offset="0.0" stop-color="#726753"/>
      <stop offset="1.0" stop-color="#3e382d"/>
    </radialGradient>
    <radialGradient cx="0" cy="0" gradientTransform="matrix(0.0094, 0.0, 0.0, 0.0094, -9.15, -8.3)" gradientUnits="userSpaceOnUse" id="gradient59" r="819.2" spreadMethod="pad">
      <stop offset="0.0" stop-color="#daceab"/>
      <stop offset="1.0" stop-color="#766f5c"/>
    </radialGradient>
    <radialGradient cx="0" cy="0" gradientTransform="matrix(0.0076, 0.0, 0.0, 0.0076, -11.3, -2.2)" gradientUnits="userSpaceOnUse" id="gradient60" r="819.2" spreadMethod="pad">
      <stop offset="0.0" stop-color="#746954"/>
      <stop offset="1.0" stop-color="#342f26"/>
    </radialGradient>
    <radialGradient cx="0" cy="0" gradientTransform="matrix(0.0082, 0.0, 0.0, 0.0082, -9.5, -0.7)" gradientUnits="userSpaceOnUse" id="gradient61" r="819.2" spreadMethod="pad">
      <stop offset="0.0" stop-color="#fff38b"/>
      <stop offset="1.0" stop-color="#db9e5a"/>
    </radialGradient>
    <radialGradient cx="0" cy="0" gradientTransform="matrix(0.0047, 0.0, 0.0, 0.0047, -13.95, -2.55)" gradientUnits="userSpaceOnUse" id="gradient62" r="819.2" spreadMethod="pad">
      <stop offset="0.0" stop-color="#645a48"/>
      <stop offset="1.0" stop-color="#302b22"/>
    </radialGradient>
    <radialGradient cx="0" cy="0" gradientTransform="matrix(0.0048, 0.0, 0.0, 0.0048, -1.55, -0.5)" gradientUnits="userSpaceOnUse" id="gradient63" r="819.2" spreadMethod="pad">
      <stop offset="0.0" stop-color="#3b4670"/>
      <stop offset="1.0" stop-color="#2d3656"/>
    </radialGradient>
  </defs>
</svg>
