<?xml version="1.0" encoding="UTF-8" standalone="no"?>
<svg xmlns:ffdec="https://www.free-decompiler.com/flash" xmlns:xlink="http://www.w3.org/1999/xlink" ffdec:objectType="shape" height="67.7px" width="34.2px" xmlns="http://www.w3.org/2000/svg">
  <g transform="matrix(1.0, 0.0, 0.0, 1.0, 13.25, 57.0)">
    <path d="M-6.3 -50.5 L-6.35 -50.25 -6.6 -50.25 -6.3 -50.5" fill="url(#gradient0)" fill-rule="evenodd" stroke="none"/>
    <path d="M1.5 -54.45 Q2.35 -54.95 4.65 -51.85 L4.7 -51.7 Q6.3 -50.55 3.5 -46.25 L3.25 -45.9 2.5 -45.4 -0.2 -47.0 -0.5 -47.05 -1.65 -46.75 Q-1.9 -48.25 -3.8 -48.15 -5.3 -48.2 -5.0 -46.05 L-5.4 -46.2 -5.95 -46.7 -6.15 -46.9 -6.2 -47.0 Q-4.6 -48.65 -6.35 -50.25 L-6.3 -50.5 Q-4.4 -55.05 1.5 -54.45" fill="url(#gradient1)" fill-rule="evenodd" stroke="none"/>
    <path d="M-6.35 -50.25 Q-4.6 -48.65 -6.2 -47.0 L-6.85 -47.05 Q-11.45 -45.9 -9.25 -40.1 L-10.65 -42.25 -11.05 -45.0 -10.05 -48.05 Q-7.25 -51.25 -6.6 -50.25 L-6.35 -50.25" fill="url(#gradient2)" fill-rule="evenodd" stroke="none"/>
    <path d="M3.35 -44.9 L3.45 -44.85 3.6 -44.8 4.05 -44.6 3.6 -44.4 3.05 -44.1 1.7 -43.95 -0.3 -44.15 -1.85 -44.65 -1.65 -46.75 -0.5 -47.05 -0.2 -47.0 2.5 -45.4 3.35 -44.9" fill="url(#gradient3)" fill-rule="evenodd" stroke="none"/>
    <path d="M2.5 -45.4 L3.25 -45.9 3.35 -44.9 2.5 -45.4 M-0.9 -41.3 Q2.2 -42.9 1.7 -43.95 L3.05 -44.1 2.5 -43.1 0.9 -41.15 0.4 -41.0 -0.45 -41.05 -0.85 -41.15 -0.9 -41.3" fill="url(#gradient4)" fill-rule="evenodd" stroke="none"/>
    <path d="M-5.95 -46.7 L-5.4 -46.2 -5.0 -46.05 -4.45 -42.25 -4.6 -42.3 -4.6 -42.25 Q-4.75 -42.15 -5.4 -43.6 L-5.6 -45.3 -5.65 -45.35 -5.65 -45.45 -5.7 -45.55 -5.7 -45.6 -5.75 -45.7 -5.75 -45.75 -5.85 -46.0 -5.95 -46.7 M-1.85 -44.65 L-0.3 -44.15 1.7 -43.95 Q2.2 -42.9 -0.9 -41.3 L-1.4 -41.05 -2.25 -40.75 -2.25 -40.9 -1.85 -44.65" fill="url(#gradient5)" fill-rule="evenodd" stroke="none"/>
    <path d="M3.55 -45.95 L3.6 -45.25 3.6 -44.8 3.45 -44.85 3.55 -45.95 M3.6 -44.4 L3.6 -43.05 2.7 -40.9 Q-0.2 -35.4 -6.1 -29.95 L-6.25 -29.8 -6.5 -30.55 -6.7 -30.65 -6.7 -31.0 -7.4 -31.35 -7.65 -31.6 -7.7 -31.75 -7.55 -31.8 -6.8 -32.2 -6.3 -32.55 -5.15 -34.15 -3.45 -35.9 -3.05 -36.3 0.9 -41.15 2.5 -43.1 3.05 -44.1 3.6 -44.4 M-9.1 -28.7 L-8.0 -29.95 -7.45 -30.45 -7.25 -29.35 -6.85 -28.65 -8.25 -26.35 -9.55 -23.1 -10.6 -25.3 Q-10.2 -26.85 -9.15 -28.6 L-9.1 -28.65 -9.1 -28.7" fill="url(#gradient6)" fill-rule="evenodd" stroke="none"/>
    <path d="M-6.2 -47.0 L-6.15 -46.9 -5.85 -46.0 -5.75 -45.75 -5.75 -45.7 -5.7 -45.6 -5.7 -45.55 -5.65 -45.45 -5.65 -45.35 -5.6 -45.3 -5.4 -43.6 Q-4.75 -42.15 -4.6 -42.25 L-5.55 -40.9 Q-9.55 -35.05 -6.8 -32.2 L-7.55 -31.8 -7.65 -31.85 -8.8 -32.85 -9.4 -33.8 -9.75 -34.45 -9.95 -34.95 -10.0 -36.8 -9.25 -39.3 -7.9 -41.5 -8.05 -42.75 Q-8.05 -43.85 -7.65 -44.75 L-7.55 -44.7 -7.6 -44.85 -7.3 -46.15 -6.85 -47.05 -6.2 -47.0 M-8.85 -29.5 L-7.9 -30.55 -7.5 -30.85 -7.45 -30.45 -8.0 -29.95 -9.1 -28.7 -8.85 -29.5" fill="url(#gradient7)" fill-rule="evenodd" stroke="none"/>
    <path d="M-6.15 -46.9 L-5.95 -46.7 -5.85 -46.0 -6.15 -46.9" fill="url(#gradient8)" fill-rule="evenodd" stroke="none"/>
    <path d="M-4.6 -42.25 L-4.6 -42.3 -4.45 -42.25 -4.05 -39.65 -4.3 -39.1 -4.7 -37.2 -5.15 -34.15 -6.3 -32.55 -6.8 -32.2 Q-9.55 -35.05 -5.55 -40.9 L-4.6 -42.25" fill="url(#gradient9)" fill-rule="evenodd" stroke="none"/>
    <path d="M-5.0 -46.05 Q-5.3 -48.2 -3.8 -48.15 -1.9 -48.25 -1.65 -46.75 L-1.85 -44.65 -2.25 -40.9 -2.25 -40.75 -2.45 -39.1 -2.65 -37.35 -2.9 -36.6 -3.05 -36.55 -3.5 -37.25 -4.05 -39.65 -4.45 -42.25 -5.0 -46.05" fill="url(#gradient10)" fill-rule="evenodd" stroke="none"/>
    <path d="M-2.25 -40.75 L-1.4 -41.05 -1.45 -40.9 -2.45 -39.1 -2.25 -40.75 M-4.7 -37.2 L-4.3 -39.1 -4.05 -39.65 -3.5 -37.25 -3.05 -36.55 -3.05 -36.3 -3.45 -35.9 Q-4.2 -36.25 -4.7 -37.2 M-0.45 -41.05 L-2.4 -38.9 -0.95 -41.05 -0.85 -41.15 -0.45 -41.05" fill="url(#gradient11)" fill-rule="evenodd" stroke="none"/>
    <path d="M-1.4 -41.05 L-0.9 -41.3 -0.85 -41.15 -0.95 -41.05 -2.4 -38.9 -0.45 -41.05 0.4 -41.0 0.9 -41.15 -3.05 -36.3 -3.05 -36.55 -2.9 -36.6 -2.65 -37.35 -2.45 -39.1 -1.45 -40.9 -1.4 -41.05" fill="url(#gradient12)" fill-rule="evenodd" stroke="none"/>
    <path d="M5.5 -31.8 L4.95 -31.55 5.05 -31.8 5.35 -31.9 5.55 -31.9 5.5 -31.8 M-7.65 -44.75 L-7.6 -44.85 -7.55 -44.7 -7.65 -44.75" fill="url(#gradient13)" fill-rule="evenodd" stroke="none"/>
    <path d="M-9.75 -34.45 L-9.4 -33.8 -9.6 -32.7 -9.55 -31.9 -9.35 -31.5 -9.95 -31.35 -10.35 -30.8 -10.4 -30.9 Q-9.75 -31.65 -10.85 -32.0 -11.0 -32.75 -10.55 -33.65 L-9.75 -34.45 M-7.9 -30.55 L-8.2 -31.15 -7.65 -31.6 -7.4 -31.35 -7.5 -30.85 -7.9 -30.55" fill="url(#gradient14)" fill-rule="evenodd" stroke="none"/>
    <path d="M-9.4 -33.8 L-8.8 -32.85 -7.65 -31.85 -7.7 -31.75 -7.65 -31.6 -8.2 -31.15 -8.4 -31.05 -9.0 -31.2 -9.35 -31.5 -9.55 -31.9 -9.6 -32.7 -9.4 -33.8" fill="url(#gradient15)" fill-rule="evenodd" stroke="none"/>
    <path d="M-10.35 -30.8 L-9.95 -31.35 -9.35 -31.5 -9.0 -31.2 -8.4 -31.05 -8.2 -31.15 -7.9 -30.55 -8.85 -29.5 -9.75 -29.8 Q-10.35 -30.4 -10.35 -30.8" fill="url(#gradient16)" fill-rule="evenodd" stroke="none"/>
    <path d="M-10.85 -32.0 Q-9.75 -31.65 -10.4 -30.9 L-12.8 -30.5 -12.5 -30.8 -12.5 -31.35 -12.8 -31.65 -10.85 -32.0" fill="url(#gradient17)" fill-rule="evenodd" stroke="none"/>
    <path d="M-7.65 -31.85 L-7.55 -31.8 -7.7 -31.75 -7.65 -31.85" fill="url(#gradient18)" fill-rule="evenodd" stroke="none"/>
    <path d="M-6.25 -29.8 Q-1.95 -25.1 3.15 -29.95 L4.3 -30.9 4.7 -31.05 4.8 -30.25 4.6 -29.95 Q1.85 -27.1 3.05 -27.25 2.55 -26.55 1.7 -26.1 L1.65 -25.85 Q-3.1 -23.35 -6.85 -28.65 L-7.25 -29.35 -7.45 -30.45 -7.5 -30.85 -7.4 -31.35 -6.7 -31.0 -6.7 -30.65 -6.5 -30.55 -6.25 -29.8" fill="url(#gradient19)" fill-rule="evenodd" stroke="none"/>
    <path d="M-12.8 -30.5 Q-13.7 -31.35 -12.8 -31.65 L-12.5 -31.35 -12.5 -30.8 -12.8 -30.5" fill="url(#gradient20)" fill-rule="evenodd" stroke="none"/>
    <path d="M8.3 -41.9 L9.25 -41.05 9.6 -40.25 9.6 -40.2 9.7 -40.2 9.75 -40.15 9.8 -40.05 10.4 -39.6 Q11.0 -35.75 12.6 -34.5 L12.45 -34.0 11.4 -33.2 9.4 -32.5 6.75 -32.05 5.85 -31.95 4.7 -31.05 4.3 -30.9 3.15 -29.95 Q-1.95 -25.1 -6.25 -29.8 L-6.1 -29.95 Q-0.2 -35.4 2.7 -40.9 L3.6 -43.05 3.6 -44.4 4.05 -44.6 3.6 -44.8 3.6 -45.25 8.3 -41.9 M5.5 -31.8 L5.55 -31.9 5.35 -31.9 5.05 -31.8 4.95 -31.55 5.5 -31.8 M6.6 -20.3 L6.75 -20.1 6.65 -20.0 6.6 -20.3 M4.25 -18.2 L1.8 -17.45 -1.0 -17.2 -1.55 -17.25 -1.85 -17.3 Q-3.25 -17.15 -5.0 -17.95 L-8.3 -21.25 -9.55 -23.1 -8.25 -26.35 -6.85 -28.65 Q-3.1 -23.35 1.65 -25.85 2.8 -25.0 1.95 -19.75 L4.25 -18.2" fill="url(#gradient21)" fill-rule="evenodd" stroke="none"/>
    <path d="M-5.15 -34.15 L-4.7 -37.2 Q-4.2 -36.25 -3.45 -35.9 L-5.15 -34.15" fill="url(#gradient22)" fill-rule="evenodd" stroke="none"/>
    <path d="M3.05 -27.25 Q6.3 -23.85 6.6 -20.3 L6.65 -20.0 6.8 -19.0 6.4 -16.25 4.25 -18.2 1.95 -19.75 Q2.8 -25.0 1.65 -25.85 L1.7 -26.1 Q2.55 -26.55 3.05 -27.25" fill="url(#gradient23)" fill-rule="evenodd" stroke="none"/>
    <path d="M8.3 -41.9 Q8.0 -49.95 6.05 -51.85 L5.7 -51.95 4.7 -51.7 4.65 -51.85 Q2.35 -54.95 1.5 -54.45 3.6 -59.5 8.75 -54.55 11.2 -52.5 9.25 -41.05 L8.3 -41.9" fill="url(#gradient24)" fill-rule="evenodd" stroke="none"/>
    <path d="M3.5 -46.25 L3.55 -45.95 3.45 -44.85 3.35 -44.9 3.25 -45.9 3.5 -46.25" fill="url(#gradient25)" fill-rule="evenodd" stroke="none"/>
    <path d="M10.4 -39.6 L9.8 -40.05 9.75 -40.15 10.35 -39.8 10.4 -39.6 M9.7 -40.2 L9.6 -40.2 9.6 -40.25 9.7 -40.2" fill="url(#gradient26)" fill-rule="evenodd" stroke="none"/>
    <path d="M6.75 -32.05 L9.4 -32.5 11.4 -33.2 13.05 -26.5 Q12.35 -24.75 9.05 -26.65 L8.3 -28.25 7.45 -31.4 7.1 -31.55 6.75 -32.05" fill="url(#gradient27)" fill-rule="evenodd" stroke="none"/>
    <path d="M3.05 -27.25 Q1.85 -27.1 4.6 -29.95 L4.8 -30.25 Q6.75 -29.55 9.35 -22.45 L9.35 -22.35 9.25 -22.45 8.75 -22.65 8.1 -22.45 7.8 -21.95 7.5 -21.2 7.25 -19.55 6.75 -20.1 6.6 -20.3 Q6.3 -23.85 3.05 -27.25" fill="url(#gradient28)" fill-rule="evenodd" stroke="none"/>
    <path d="M9.35 -22.35 L9.35 -22.45 8.9 -24.7 9.05 -26.65 Q12.35 -24.75 13.05 -26.5 12.95 -27.4 14.05 -23.7 L14.2 -19.15 14.25 -19.0 Q15.35 -18.1 12.1 -16.2 L11.6 -16.4 11.45 -16.8 10.7 -19.7 Q9.95 -20.3 9.4 -22.3 L9.35 -22.35" fill="url(#gradient29)" fill-rule="evenodd" stroke="none"/>
    <path d="M14.55 -19.15 L15.0 -19.9 15.45 -19.8 16.85 -19.3 16.85 -19.15 16.35 -18.3 15.3 -19.0 14.55 -19.15" fill="url(#gradient30)" fill-rule="evenodd" stroke="none"/>
    <path d="M14.2 -19.15 L14.55 -19.15 15.3 -19.0 16.35 -18.3 16.8 -17.65 Q18.2 -14.25 14.0 -13.5 13.85 -15.1 12.45 -14.9 L12.4 -14.9 12.1 -16.2 Q15.35 -18.1 14.25 -19.0 L14.2 -19.15" fill="url(#gradient31)" fill-rule="evenodd" stroke="none"/>
    <path d="M16.85 -18.0 L16.8 -17.65 16.35 -18.3 16.85 -19.15 16.9 -19.0 16.85 -18.0" fill="url(#gradient32)" fill-rule="evenodd" stroke="none"/>
    <path d="M15.45 -19.8 Q25.65 -34.0 16.85 -18.0 L16.9 -19.0 16.85 -19.15 16.85 -19.3 15.45 -19.8" fill="url(#gradient33)" fill-rule="evenodd" stroke="none"/>
    <path d="M8.75 -22.65 L9.25 -22.45 9.35 -22.35 9.4 -22.3 8.95 -22.15 8.75 -22.65" fill="url(#gradient34)" fill-rule="evenodd" stroke="none"/>
    <path d="M6.75 -20.1 L7.25 -19.55 7.05 -15.85 Q6.5 -13.2 5.6 -12.15 L5.6 -12.1 5.75 -11.2 5.6 -10.45 5.3 -9.9 5.1 -10.0 4.85 -10.25 4.55 -10.55 3.6 -10.2 Q3.2 -10.7 1.65 -11.05 L0.8 -11.9 Q0.5 -11.9 -0.2 -14.05 L-1.0 -17.2 1.8 -17.45 4.25 -18.2 6.4 -16.25 6.8 -19.0 6.65 -20.0 6.75 -20.1" fill="url(#gradient35)" fill-rule="evenodd" stroke="none"/>
    <path d="M5.6 -12.1 L5.6 -12.15 5.65 -12.1 5.6 -12.1" fill="url(#gradient36)" fill-rule="evenodd" stroke="none"/>
    <path d="M5.75 -11.2 L5.6 -12.1 5.65 -12.1 5.85 -11.7 6.3 -10.85 6.25 -10.75 5.75 -11.2" fill="url(#gradient37)" fill-rule="evenodd" stroke="none"/>
    <path d="M11.95 -14.15 Q10.4 -15.75 11.45 -16.8 L11.6 -16.4 12.1 -16.2 12.4 -14.9 12.4 -14.85 11.95 -14.15" fill="url(#gradient38)" fill-rule="evenodd" stroke="none"/>
    <path d="M12.4 -14.9 L12.45 -14.9 12.4 -14.85 12.4 -14.9" fill="url(#gradient39)" fill-rule="evenodd" stroke="none"/>
    <path d="M14.0 -13.5 L13.0 -11.95 Q12.85 -13.6 11.7 -13.65 L11.95 -14.15 12.4 -14.85 12.45 -14.9 Q13.85 -15.1 14.0 -13.5" fill="url(#gradient40)" fill-rule="evenodd" stroke="none"/>
    <path d="M13.0 -11.95 Q11.35 -12.2 11.7 -13.65 12.85 -13.6 13.0 -11.95" fill="url(#gradient41)" fill-rule="evenodd" stroke="none"/>
    <path d="M5.1 -10.0 L5.3 -9.9 5.6 -10.45 5.75 -11.2 6.25 -10.75 6.3 -10.85 5.85 -11.7 Q8.1 -11.65 7.8 -4.6 L7.75 -4.45 7.75 -4.4 Q6.2 -1.95 3.25 -4.1 L3.2 -4.2 Q1.55 -7.15 2.1 -9.5 L2.15 -9.5 Q4.5 -6.5 4.9 -10.05 L5.1 -10.0" fill="url(#gradient42)" fill-rule="evenodd" stroke="none"/>
    <path d="M4.85 -10.25 L5.1 -10.0 4.9 -10.05 4.85 -10.25" fill="url(#gradient43)" fill-rule="evenodd" stroke="none"/>
    <path d="M0.8 -11.9 L1.65 -11.05 Q3.2 -10.7 3.6 -10.2 L4.55 -10.55 4.85 -10.25 4.9 -10.05 Q4.5 -6.5 2.15 -9.5 L2.1 -9.55 1.4 -10.45 0.8 -11.9" fill="url(#gradient44)" fill-rule="evenodd" stroke="none"/>
    <path d="M7.75 -4.4 Q8.0 -4.65 7.5 -0.9 L7.1 0.1 7.55 0.95 7.7 1.35 7.8 1.9 7.8 2.5 7.75 2.5 7.65 2.4 7.2 2.9 Q4.7 5.1 3.8 2.9 L3.65 2.8 Q3.3 0.7 3.8 -0.95 L3.2 -4.1 3.25 -4.1 Q6.2 -1.95 7.75 -4.4" fill="url(#gradient45)" fill-rule="evenodd" stroke="none"/>
    <path d="M7.75 2.5 Q7.1 10.7 5.05 10.7 L4.1 10.45 2.75 10.65 Q0.7 9.0 3.65 2.8 L3.8 2.9 Q4.7 5.1 7.2 2.9 L7.65 2.4 7.75 2.5" fill="url(#gradient46)" fill-rule="evenodd" stroke="none"/>
    <path d="M5.05 10.7 L2.75 10.65 4.1 10.45 5.05 10.7" fill="url(#gradient47)" fill-rule="evenodd" stroke="none"/>
    <path d="M-2.3 -16.0 L-2.55 -16.3 -2.25 -16.75 -2.3 -16.0" fill="url(#gradient48)" fill-rule="evenodd" stroke="none"/>
    <path d="M-2.55 -16.3 L-2.95 -16.1 Q-5.5 -16.35 -6.6 -17.4 L-7.65 -19.25 -8.3 -21.25 -5.0 -17.95 Q-3.25 -17.15 -1.85 -17.3 L-2.2 -15.9 -2.3 -16.0 -2.25 -16.75 -2.55 -16.3" fill="url(#gradient49)" fill-rule="evenodd" stroke="none"/>
    <path d="M-2.55 -16.3 L-2.3 -16.0 -2.2 -15.9 -1.85 -17.3 -1.55 -17.25 Q0.05 -14.2 -1.5 -11.4 -3.3 -8.7 -5.9 -11.45 L-5.9 -11.5 -5.95 -11.55 Q-6.45 -13.15 -6.35 -13.95 L-6.0 -15.9 -5.65 -15.55 -5.25 -14.85 -4.85 -14.8 -4.6 -14.85 -4.5 -15.05 -4.4 -15.25 -3.5 -15.5 -2.95 -16.1 -2.55 -16.3" fill="url(#gradient50)" fill-rule="evenodd" stroke="none"/>
    <path d="M-2.95 -16.1 L-3.5 -15.5 -4.4 -15.25 -4.5 -15.25 -5.2 -15.3 -5.5 -15.5 -5.65 -15.55 -6.0 -15.9 -6.55 -16.8 -6.6 -17.4 Q-5.5 -16.35 -2.95 -16.1" fill="url(#gradient51)" fill-rule="evenodd" stroke="none"/>
    <path d="M-4.5 -15.05 L-4.6 -14.85 -4.85 -14.8 -5.25 -14.85 -5.65 -15.55 -5.5 -15.5 -5.2 -15.3 -4.5 -15.25 -4.5 -15.05" fill="url(#gradient52)" fill-rule="evenodd" stroke="none"/>
    <path d="M-4.4 -15.25 L-4.5 -15.05 -4.5 -15.25 -4.4 -15.25" fill="url(#gradient53)" fill-rule="evenodd" stroke="none"/>
    <path d="M-1.65 -6.6 Q2.6 -2.7 -10.55 -1.2 L-11.6 -1.45 Q-11.85 -3.95 -10.9 -4.45 L-9.55 -5.35 -6.15 -6.7 -5.55 -6.8 -5.5 -6.75 -5.55 -6.7 -5.85 -6.2 -5.85 -5.9 Q-6.55 -4.2 -3.25 -3.55 L-2.15 -4.1 Q-1.3 -5.05 -1.65 -6.6" fill="url(#gradient54)" fill-rule="evenodd" stroke="none"/>
    <path d="M2.1 -9.5 L2.1 -9.55 2.15 -9.5 2.1 -9.5" fill="url(#gradient55)" fill-rule="evenodd" stroke="none"/>
    <path d="M-5.9 -11.45 Q-3.3 -8.7 -1.5 -11.4 L-1.75 -8.95 -1.65 -6.6 Q-1.3 -5.05 -2.15 -4.1 L-3.25 -3.55 Q-6.55 -4.2 -5.85 -5.9 L-5.85 -6.2 -5.55 -6.7 -5.5 -6.75 -5.55 -6.8 -5.9 -11.45" fill="url(#gradient56)" fill-rule="evenodd" stroke="none"/>
    <path d="M3.2 -4.1 L3.2 -4.2 3.25 -4.1 3.2 -4.1" fill="url(#gradient57)" fill-rule="evenodd" stroke="none"/>
  </g>
  <defs>
    <radialGradient cx="0" cy="0" gradientTransform="matrix(0.0023, 0.0, 0.0, 0.0023, -6.8, -50.15)" gradientUnits="userSpaceOnUse" id="gradient0" r="819.2" spreadMethod="pad">
      <stop offset="0.0" stop-color="#423e30"/>
      <stop offset="1.0" stop-color="#3c382c"/>
    </radialGradient>
    <radialGradient cx="0" cy="0" gradientTransform="matrix(0.009, 0.0, 0.0, 0.009, -1.85, -48.55)" gradientUnits="userSpaceOnUse" id="gradient1" r="819.2" spreadMethod="pad">
      <stop offset="0.0" stop-color="#5d5744"/>
      <stop offset="1.0" stop-color="#3f3b2e"/>
    </radialGradient>
    <radialGradient cx="0" cy="0" gradientTransform="matrix(0.012, 0.0, 0.0, 0.012, -4.5, -48.75)" gradientUnits="userSpaceOnUse" id="gradient2" r="819.2" spreadMethod="pad">
      <stop offset="0.0" stop-color="#5b5542"/>
      <stop offset="1.0" stop-color="#383529"/>
    </radialGradient>
    <radialGradient cx="0" cy="0" gradientTransform="matrix(0.0065, 0.0, 0.0, 0.0065, -1.0, -46.5)" gradientUnits="userSpaceOnUse" id="gradient3" r="819.2" spreadMethod="pad">
      <stop offset="0.0" stop-color="#5b5542"/>
      <stop offset="1.0" stop-color="#302d23"/>
    </radialGradient>
    <radialGradient cx="0" cy="0" gradientTransform="matrix(0.0076, 0.0, 0.0, 0.0076, 0.95, -40.7)" gradientUnits="userSpaceOnUse" id="gradient4" r="819.2" spreadMethod="pad">
      <stop offset="0.0" stop-color="#de9c5b"/>
      <stop offset="1.0" stop-color="#c28950"/>
    </radialGradient>
    <radialGradient cx="0" cy="0" gradientTransform="matrix(0.0106, 0.0, 0.0, 0.0106, -5.35, -48.6)" gradientUnits="userSpaceOnUse" id="gradient5" r="819.2" spreadMethod="pad">
      <stop offset="0.0" stop-color="#e2a05d"/>
      <stop offset="1.0" stop-color="#90653b"/>
    </radialGradient>
    <radialGradient cx="0" cy="0" gradientTransform="matrix(0.0251, 0.0, 0.0, 0.0251, 1.45, -40.5)" gradientUnits="userSpaceOnUse" id="gradient6" r="819.2" spreadMethod="pad">
      <stop offset="0.0" stop-color="#73c3ee"/>
      <stop offset="1.0" stop-color="#4e84a1"/>
    </radialGradient>
    <radialGradient cx="0" cy="0" gradientTransform="matrix(0.02, 0.0, 0.0, 0.02, -6.05, -44.4)" gradientUnits="userSpaceOnUse" id="gradient7" r="819.2" spreadMethod="pad">
      <stop offset="0.0" stop-color="#3f6384"/>
      <stop offset="1.0" stop-color="#294057"/>
    </radialGradient>
    <radialGradient cx="0" cy="0" gradientTransform="matrix(0.0038, 0.0, 0.0, 0.0038, -6.4, -48.35)" gradientUnits="userSpaceOnUse" id="gradient8" r="819.2" spreadMethod="pad">
      <stop offset="0.0" stop-color="#c78c52"/>
      <stop offset="1.0" stop-color="#9a6c3f"/>
    </radialGradient>
    <radialGradient cx="0" cy="0" gradientTransform="matrix(0.0097, 0.0, 0.0, 0.0097, -6.9, -36.45)" gradientUnits="userSpaceOnUse" id="gradient9" r="819.2" spreadMethod="pad">
      <stop offset="0.0" stop-color="#74c5f0"/>
      <stop offset="1.0" stop-color="#5c9dc0"/>
    </radialGradient>
    <radialGradient cx="0" cy="0" gradientTransform="matrix(0.0134, 0.0, 0.0, 0.0134, -3.45, -47.5)" gradientUnits="userSpaceOnUse" id="gradient10" r="819.2" spreadMethod="pad">
      <stop offset="0.0" stop-color="#5d5743"/>
      <stop offset="1.0" stop-color="#2d2a21"/>
    </radialGradient>
    <radialGradient cx="0" cy="0" gradientTransform="matrix(0.0093, 0.0, 0.0, 0.0093, -0.9, -42.2)" gradientUnits="userSpaceOnUse" id="gradient11" r="819.2" spreadMethod="pad">
      <stop offset="0.0" stop-color="#ffc573"/>
      <stop offset="1.0" stop-color="#eea862"/>
    </radialGradient>
    <radialGradient cx="0" cy="0" gradientTransform="matrix(0.0085, 0.0, 0.0, 0.0085, -0.8, -39.2)" gradientUnits="userSpaceOnUse" id="gradient12" r="819.2" spreadMethod="pad">
      <stop offset="0.0" stop-color="#ffbd6e"/>
      <stop offset="1.0" stop-color="#dd9c5b"/>
    </radialGradient>
    <radialGradient cx="0" cy="0" gradientTransform="matrix(0.0203, 0.0, 0.0, 0.0203, -7.45, -42.35)" gradientUnits="userSpaceOnUse" id="gradient13" r="819.2" spreadMethod="pad">
      <stop offset="0.0" stop-color="#283e54"/>
      <stop offset="1.0" stop-color="#080c10"/>
    </radialGradient>
    <radialGradient cx="0" cy="0" gradientTransform="matrix(0.0031, 0.0, 0.0, 0.0031, -9.15, -32.4)" gradientUnits="userSpaceOnUse" id="gradient14" r="819.2" spreadMethod="pad">
      <stop offset="0.0" stop-color="#ffe183"/>
      <stop offset="1.0" stop-color="#da9959"/>
    </radialGradient>
    <radialGradient cx="0" cy="0" gradientTransform="matrix(0.0038, 0.0, 0.0, 0.0038, -9.65, -31.3)" gradientUnits="userSpaceOnUse" id="gradient15" r="819.2" spreadMethod="pad">
      <stop offset="0.0" stop-color="#524b4b"/>
      <stop offset="1.0" stop-color="#3d3838"/>
    </radialGradient>
    <radialGradient cx="0" cy="0" gradientTransform="matrix(0.002, 0.0, 0.0, 0.002, -8.95, -31.2)" gradientUnits="userSpaceOnUse" id="gradient16" r="819.2" spreadMethod="pad">
      <stop offset="0.0" stop-color="#fff08c"/>
      <stop offset="1.0" stop-color="#a97745"/>
    </radialGradient>
    <radialGradient cx="0" cy="0" gradientTransform="matrix(0.0044, 0.0, 0.0, 0.0044, -9.45, -31.85)" gradientUnits="userSpaceOnUse" id="gradient17" r="819.2" spreadMethod="pad">
      <stop offset="0.0" stop-color="#ff3a3a"/>
      <stop offset="1.0" stop-color="#731919"/>
    </radialGradient>
    <radialGradient cx="0" cy="0" gradientTransform="matrix(0.0015, 0.0, 0.0, 0.0015, -6.75, -31.2)" gradientUnits="userSpaceOnUse" id="gradient18" r="819.2" spreadMethod="pad">
      <stop offset="0.0" stop-color="#0e181e"/>
      <stop offset="1.0" stop-color="#0e181e"/>
    </radialGradient>
    <radialGradient cx="0" cy="0" gradientTransform="matrix(0.009, 0.0, 0.0, 0.009, -0.65, -28.6)" gradientUnits="userSpaceOnUse" id="gradient19" r="819.2" spreadMethod="pad">
      <stop offset="0.0" stop-color="#fff5c7"/>
      <stop offset="1.0" stop-color="#989175"/>
    </radialGradient>
    <radialGradient cx="0" cy="0" gradientTransform="matrix(0.001, 0.0, 0.0, 0.001, -12.55, -31.3)" gradientUnits="userSpaceOnUse" id="gradient20" r="819.2" spreadMethod="pad">
      <stop offset="0.0" stop-color="#9c2323"/>
      <stop offset="1.0" stop-color="#9a2222"/>
    </radialGradient>
    <radialGradient cx="0" cy="0" gradientTransform="matrix(0.0272, 0.0, 0.0, 0.0272, 2.7, -23.65)" gradientUnits="userSpaceOnUse" id="gradient21" r="819.2" spreadMethod="pad">
      <stop offset="0.0" stop-color="#3e6183"/>
      <stop offset="1.0" stop-color="#2b445c"/>
    </radialGradient>
    <radialGradient cx="0" cy="0" gradientTransform="matrix(0.004, 0.0, 0.0, 0.004, -5.05, -37.35)" gradientUnits="userSpaceOnUse" id="gradient22" r="819.2" spreadMethod="pad">
      <stop offset="0.0" stop-color="#ffda7f"/>
      <stop offset="1.0" stop-color="#ffc874"/>
    </radialGradient>
    <radialGradient cx="0" cy="0" gradientTransform="matrix(0.0118, 0.0, 0.0, 0.0118, 2.9, -25.35)" gradientUnits="userSpaceOnUse" id="gradient23" r="819.2" spreadMethod="pad">
      <stop offset="0.0" stop-color="#fff9ca"/>
      <stop offset="1.0" stop-color="#c9bf9b"/>
    </radialGradient>
    <radialGradient cx="0" cy="0" gradientTransform="matrix(0.018, 0.0, 0.0, 0.018, 3.4, -53.35)" gradientUnits="userSpaceOnUse" id="gradient24" r="819.2" spreadMethod="pad">
      <stop offset="0.0" stop-color="#605a46"/>
      <stop offset="1.0" stop-color="#3c382b"/>
    </radialGradient>
    <radialGradient cx="0" cy="0" gradientTransform="matrix(0.0031, 0.0, 0.0, 0.0031, 3.45, -44.9)" gradientUnits="userSpaceOnUse" id="gradient25" r="819.2" spreadMethod="pad">
      <stop offset="0.0" stop-color="#0e181e"/>
      <stop offset="1.0" stop-color="#0e181e"/>
    </radialGradient>
    <radialGradient cx="0" cy="0" gradientTransform="matrix(0.0015, 0.0, 0.0, 0.0015, 10.3, -39.65)" gradientUnits="userSpaceOnUse" id="gradient26" r="819.2" spreadMethod="pad">
      <stop offset="0.0" stop-color="#1f3041"/>
      <stop offset="1.0" stop-color="#1b2b39"/>
    </radialGradient>
    <radialGradient cx="0" cy="0" gradientTransform="matrix(0.0101, 0.0, 0.0, 0.0101, 10.15, -32.4)" gradientUnits="userSpaceOnUse" id="gradient27" r="819.2" spreadMethod="pad">
      <stop offset="0.0" stop-color="#f7ae65"/>
      <stop offset="1.0" stop-color="#c1884f"/>
    </radialGradient>
    <radialGradient cx="0" cy="0" gradientTransform="matrix(0.0122, 0.0, 0.0, 0.0122, 2.85, -28.65)" gradientUnits="userSpaceOnUse" id="gradient28" r="819.2" spreadMethod="pad">
      <stop offset="0.0" stop-color="#f1e5ba"/>
      <stop offset="1.0" stop-color="#b1a888"/>
    </radialGradient>
    <radialGradient cx="0" cy="0" gradientTransform="matrix(0.0133, 0.0, 0.0, 0.0133, 10.6, -26.0)" gradientUnits="userSpaceOnUse" id="gradient29" r="819.2" spreadMethod="pad">
      <stop offset="0.0" stop-color="#928585"/>
      <stop offset="1.0" stop-color="#5c5454"/>
    </radialGradient>
    <radialGradient cx="0" cy="0" gradientTransform="matrix(0.0032, 0.0, 0.0, 0.0032, 15.7, -17.5)" gradientUnits="userSpaceOnUse" id="gradient30" r="819.2" spreadMethod="pad">
      <stop offset="0.0" stop-color="#e3d53f"/>
      <stop offset="1.0" stop-color="#e1d43f"/>
    </radialGradient>
    <radialGradient cx="0" cy="0" gradientTransform="matrix(0.0043, 0.0, 0.0, 0.0043, 14.2, -17.1)" gradientUnits="userSpaceOnUse" id="gradient31" r="819.2" spreadMethod="pad">
      <stop offset="0.0" stop-color="#ffe585"/>
      <stop offset="1.0" stop-color="#9d6e40"/>
    </radialGradient>
    <radialGradient cx="0" cy="0" gradientTransform="matrix(0.004, 0.0, 0.0, 0.004, 16.85, -19.35)" gradientUnits="userSpaceOnUse" id="gradient32" r="819.2" spreadMethod="pad">
      <stop offset="0.0" stop-color="#c5b937"/>
      <stop offset="1.0" stop-color="#b3a832"/>
    </radialGradient>
    <radialGradient cx="0" cy="0" gradientTransform="matrix(0.0117, 0.0, 0.0, 0.0117, 14.85, -19.1)" gradientUnits="userSpaceOnUse" id="gradient33" r="819.2" spreadMethod="pad">
      <stop offset="0.0" stop-color="#bcbcbc"/>
      <stop offset="1.0" stop-color="#b6b6b6"/>
    </radialGradient>
    <radialGradient cx="0" cy="0" gradientTransform="matrix(0.002, 0.0, 0.0, 0.002, 8.55, -23.8)" gradientUnits="userSpaceOnUse" id="gradient34" r="819.2" spreadMethod="pad">
      <stop offset="0.0" stop-color="#1f1e18"/>
      <stop offset="1.0" stop-color="#1f1e18"/>
    </radialGradient>
    <radialGradient cx="0" cy="0" gradientTransform="matrix(0.0125, 0.0, 0.0, 0.0125, 3.15, -19.5)" gradientUnits="userSpaceOnUse" id="gradient35" r="819.2" spreadMethod="pad">
      <stop offset="0.0" stop-color="#e5a15e"/>
      <stop offset="1.0" stop-color="#9c6e40"/>
    </radialGradient>
    <radialGradient cx="0" cy="0" gradientTransform="matrix(0.0036, 0.0, 0.0, 0.0036, 5.45, -12.5)" gradientUnits="userSpaceOnUse" id="gradient36" r="819.2" spreadMethod="pad">
      <stop offset="0.0" stop-color="#95693d"/>
      <stop offset="1.0" stop-color="#7a5632"/>
    </radialGradient>
    <radialGradient cx="0" cy="0" gradientTransform="matrix(0.0031, 0.0, 0.0, 0.0031, 5.85, -9.95)" gradientUnits="userSpaceOnUse" id="gradient37" r="819.2" spreadMethod="pad">
      <stop offset="0.0" stop-color="#ba834c"/>
      <stop offset="1.0" stop-color="#b8824c"/>
    </radialGradient>
    <radialGradient cx="0" cy="0" gradientTransform="matrix(0.0038, 0.0, 0.0, 0.0038, 12.2, -16.1)" gradientUnits="userSpaceOnUse" id="gradient38" r="819.2" spreadMethod="pad">
      <stop offset="0.0" stop-color="#ffe585"/>
      <stop offset="1.0" stop-color="#a37342"/>
    </radialGradient>
    <radialGradient cx="0" cy="0" gradientTransform="matrix(0.004, 0.0, 0.0, 0.004, 11.85, -12.5)" gradientUnits="userSpaceOnUse" id="gradient39" r="819.2" spreadMethod="pad">
      <stop offset="0.0" stop-color="#270909"/>
      <stop offset="1.0" stop-color="#1f0707"/>
    </radialGradient>
    <radialGradient cx="0" cy="0" gradientTransform="matrix(0.003, 0.0, 0.0, 0.003, 12.15, -13.6)" gradientUnits="userSpaceOnUse" id="gradient40" r="819.2" spreadMethod="pad">
      <stop offset="0.0" stop-color="#d62f2f"/>
      <stop offset="1.0" stop-color="#be2a2a"/>
    </radialGradient>
    <radialGradient cx="0" cy="0" gradientTransform="matrix(0.0026, 0.0, 0.0, 0.0026, 11.55, -13.6)" gradientUnits="userSpaceOnUse" id="gradient41" r="819.2" spreadMethod="pad">
      <stop offset="0.0" stop-color="#ac2626"/>
      <stop offset="1.0" stop-color="#ab2626"/>
    </radialGradient>
    <radialGradient cx="0" cy="0" gradientTransform="matrix(0.0103, 0.0, 0.0, 0.0103, 4.7, -11.15)" gradientUnits="userSpaceOnUse" id="gradient42" r="819.2" spreadMethod="pad">
      <stop offset="0.0" stop-color="#ffee8b"/>
      <stop offset="1.0" stop-color="#91663b"/>
    </radialGradient>
    <radialGradient cx="0" cy="0" gradientTransform="matrix(0.0031, 0.0, 0.0, 0.0031, 5.65, -9.55)" gradientUnits="userSpaceOnUse" id="gradient43" r="819.2" spreadMethod="pad">
      <stop offset="0.0" stop-color="#402d1a"/>
      <stop offset="1.0" stop-color="#261b10"/>
    </radialGradient>
    <radialGradient cx="0" cy="0" gradientTransform="matrix(0.0065, 0.0, 0.0, 0.0065, 2.5, -12.45)" gradientUnits="userSpaceOnUse" id="gradient44" r="819.2" spreadMethod="pad">
      <stop offset="0.0" stop-color="#f3ab64"/>
      <stop offset="1.0" stop-color="#966a3e"/>
    </radialGradient>
    <radialGradient cx="0" cy="0" gradientTransform="matrix(0.0109, 0.0, 0.0, 0.0109, 6.15, 3.95)" gradientUnits="userSpaceOnUse" id="gradient45" r="819.2" spreadMethod="pad">
      <stop offset="0.0" stop-color="#6e6464"/>
      <stop offset="1.0" stop-color="#474141"/>
    </radialGradient>
    <radialGradient cx="0" cy="0" gradientTransform="matrix(0.0084, 0.0, 0.0, 0.0084, 5.55, 7.0)" gradientUnits="userSpaceOnUse" id="gradient46" r="819.2" spreadMethod="pad">
      <stop offset="0.0" stop-color="#fffe94"/>
      <stop offset="1.0" stop-color="#d0b267"/>
    </radialGradient>
    <radialGradient cx="0" cy="0" gradientTransform="matrix(0.0031, 0.0, 0.0, 0.0031, 5.05, 10.6)" gradientUnits="userSpaceOnUse" id="gradient47" r="819.2" spreadMethod="pad">
      <stop offset="0.0" stop-color="#c78d52"/>
      <stop offset="1.0" stop-color="#c68c51"/>
    </radialGradient>
    <radialGradient cx="0" cy="0" gradientTransform="matrix(0.0016, 0.0, 0.0, 0.0016, -2.95, -15.9)" gradientUnits="userSpaceOnUse" id="gradient48" r="819.2" spreadMethod="pad">
      <stop offset="0.0" stop-color="#8d643a"/>
      <stop offset="1.0" stop-color="#835c36"/>
    </radialGradient>
    <radialGradient cx="0" cy="0" gradientTransform="matrix(0.0089, 0.0, 0.0, 0.0089, -7.05, -21.5)" gradientUnits="userSpaceOnUse" id="gradient49" r="819.2" spreadMethod="pad">
      <stop offset="0.0" stop-color="#9c6e40"/>
      <stop offset="1.0" stop-color="#845d36"/>
    </radialGradient>
    <radialGradient cx="0" cy="0" gradientTransform="matrix(0.0075, 0.0, 0.0, 0.0075, -3.7, -16.2)" gradientUnits="userSpaceOnUse" id="gradient50" r="819.2" spreadMethod="pad">
      <stop offset="0.0" stop-color="#ffde81"/>
      <stop offset="1.0" stop-color="#785531"/>
    </radialGradient>
    <radialGradient cx="0" cy="0" gradientTransform="matrix(0.004, 0.0, 0.0, 0.004, -4.2, -16.85)" gradientUnits="userSpaceOnUse" id="gradient51" r="819.2" spreadMethod="pad">
      <stop offset="0.0" stop-color="#e2a05d"/>
      <stop offset="1.0" stop-color="#9d6f40"/>
    </radialGradient>
    <radialGradient cx="0" cy="0" gradientTransform="matrix(0.0018, 0.0, 0.0, 0.0018, -5.35, -14.8)" gradientUnits="userSpaceOnUse" id="gradient52" r="819.2" spreadMethod="pad">
      <stop offset="0.0" stop-color="#775431"/>
      <stop offset="1.0" stop-color="#5f4327"/>
    </radialGradient>
    <radialGradient cx="0" cy="0" gradientTransform="matrix(0.0018, 0.0, 0.0, 0.0018, -4.6, -14.3)" gradientUnits="userSpaceOnUse" id="gradient53" r="819.2" spreadMethod="pad">
      <stop offset="0.0" stop-color="#9a6d3f"/>
      <stop offset="1.0" stop-color="#9a6c3f"/>
    </radialGradient>
    <radialGradient cx="0" cy="0" gradientTransform="matrix(0.0095, 0.0, 0.0, 0.0095, -4.75, -5.1)" gradientUnits="userSpaceOnUse" id="gradient54" r="819.2" spreadMethod="pad">
      <stop offset="0.0" stop-color="#fffc93"/>
      <stop offset="1.0" stop-color="#fdbf6f"/>
    </radialGradient>
    <radialGradient cx="0" cy="0" gradientTransform="matrix(0.0064, 0.0, 0.0, 0.0064, 3.55, -7.8)" gradientUnits="userSpaceOnUse" id="gradient55" r="819.2" spreadMethod="pad">
      <stop offset="0.0" stop-color="#6f4e2d"/>
      <stop offset="1.0" stop-color="#261b10"/>
    </radialGradient>
    <radialGradient cx="0" cy="0" gradientTransform="matrix(0.0086, 0.0, 0.0, 0.0086, -3.7, -5.05)" gradientUnits="userSpaceOnUse" id="gradient56" r="819.2" spreadMethod="pad">
      <stop offset="0.0" stop-color="#574f4f"/>
      <stop offset="1.0" stop-color="#474141"/>
    </radialGradient>
    <radialGradient cx="0" cy="0" gradientTransform="matrix(0.0061, 0.0, 0.0, 0.0061, 2.55, -5.45)" gradientUnits="userSpaceOnUse" id="gradient57" r="819.2" spreadMethod="pad">
      <stop offset="0.0" stop-color="#825c36"/>
      <stop offset="1.0" stop-color="#261b10"/>
    </radialGradient>
  </defs>
</svg>
