<?xml version="1.0" encoding="UTF-8" standalone="no"?>
<svg xmlns:ffdec="https://www.free-decompiler.com/flash" xmlns:xlink="http://www.w3.org/1999/xlink" ffdec:objectType="shape" height="67.1px" width="30.0px" xmlns="http://www.w3.org/2000/svg">
  <g transform="matrix(1.0, 0.0, 0.0, 1.0, 16.1, 62.55)">
    <path d="M6.45 -57.25 L6.75 -58.15 6.95 -59.25 Q7.15 -60.95 6.15 -62.55 L6.85 -61.9 Q8.15 -59.95 7.25 -56.15 L6.7 -57.1 6.45 -57.25" fill="url(#gradient0)" fill-rule="evenodd" stroke="none"/>
    <path d="M6.45 -57.25 L6.7 -57.1 7.25 -56.15 7.65 -55.4 8.15 -54.55 8.2 -53.85 8.2 -53.8 8.05 -51.3 Q5.8 -49.2 3.25 -49.1 -1.6 -48.7 -2.7 -51.9 L-2.4 -55.1 -0.45 -57.35 Q3.0 -57.85 4.05 -58.4 L6.45 -57.25" fill="url(#gradient1)" fill-rule="evenodd" stroke="none"/>
    <path d="M8.2 -53.8 L8.5 -53.45 8.65 -52.65 Q8.1 -49.75 3.2 -49.0 -0.5 -48.1 -2.65 -51.25 L-2.65 -51.5 -2.7 -51.9 Q-1.6 -48.7 3.25 -49.1 5.8 -49.2 8.05 -51.3 L8.2 -53.8" fill="url(#gradient2)" fill-rule="evenodd" stroke="none"/>
    <path d="M-5.2 -52.3 L-4.0 -52.05 -2.65 -51.5 -2.65 -51.25 -2.55 -49.85 Q-3.2 -49.95 -4.6 -49.05 L-7.25 -46.2 -8.65 -44.0 -8.95 -43.75 -9.05 -43.45 -9.2 -43.55 -9.25 -43.15 -9.6 -43.2 Q-10.7 -43.7 -9.7 -47.35 -7.2 -53.65 -5.2 -52.3" fill="url(#gradient3)" fill-rule="evenodd" stroke="none"/>
    <path d="M-12.75 -51.5 L-12.0 -52.4 Q-10.65 -53.4 -9.6 -53.35 -5.9 -53.85 -5.2 -52.3 -7.2 -53.65 -9.7 -47.35 -10.7 -43.7 -9.6 -43.2 -12.25 -42.2 -13.05 -45.05 L-13.05 -45.1 -13.55 -46.7 -13.6 -47.35 Q-13.8 -48.35 -13.45 -49.9 L-12.75 -51.5" fill="url(#gradient4)" fill-rule="evenodd" stroke="none"/>
    <path d="M-15.7 -47.65 Q-15.85 -51.05 -12.75 -51.5 L-13.45 -49.9 Q-13.8 -48.35 -13.6 -47.35 L-13.55 -46.7 -13.05 -45.1 Q-14.7 -44.25 -15.65 -47.35 L-15.7 -47.6 -15.7 -47.65" fill="url(#gradient5)" fill-rule="evenodd" stroke="none"/>
    <path d="M-15.75 -47.6 L-15.7 -47.65 -15.7 -47.6 -15.75 -47.6" fill="url(#gradient6)" fill-rule="evenodd" stroke="none"/>
    <path d="M-15.0 -44.35 Q-16.75 -46.3 -15.75 -47.6 L-15.7 -47.6 -15.65 -47.35 Q-14.7 -44.25 -13.05 -45.1 L-13.05 -45.05 -14.15 -43.9 -15.0 -44.35" fill="url(#gradient7)" fill-rule="evenodd" stroke="none"/>
    <path d="M9.0 -40.9 L9.6 -39.8 8.75 -39.2 8.05 -39.1 Q7.95 -38.6 6.45 -37.6 3.65 -33.95 4.15 -33.85 L2.95 -32.95 1.6 -32.1 Q0.45 -31.45 -0.2 -31.45 L-0.75 -31.25 -2.4 -31.45 -4.5 -31.65 -4.1 -31.05 -4.5 -31.0 -4.7 -30.85 -5.0 -30.95 -5.35 -30.85 -5.5 -30.6 -5.7 -30.55 -5.85 -30.35 -6.0 -30.0 -6.05 -30.0 -6.1 -29.95 -6.15 -29.65 -6.15 -29.55 -6.2 -29.45 -6.55 -28.4 -6.6 -27.85 -6.55 -25.45 -6.4 -24.75 -6.5 -24.1 -8.0 -23.3 Q-9.3 -22.7 -10.9 -22.8 L-11.3 -22.6 Q-12.3 -24.95 -13.4 -26.65 L-14.05 -28.65 Q-13.9 -31.2 -14.35 -33.25 L-14.1 -38.35 -15.0 -42.85 -15.0 -44.35 -14.15 -43.9 -13.05 -45.05 Q-12.25 -42.2 -9.6 -43.2 L-9.25 -43.15 Q-9.35 -38.8 -6.9 -39.35 -7.45 -45.8 -4.0 -47.35 L-3.1 -48.0 -2.55 -48.1 -3.2 -47.35 Q-3.85 -46.75 -4.3 -45.5 L-4.65 -44.0 Q-6.1 -40.7 -5.7 -37.6 L-5.7 -37.45 -5.65 -37.6 Q-5.55 -38.9 -4.7 -40.7 L-3.6 -42.5 -3.6 -42.1 -3.45 -42.3 -3.2 -42.2 Q-3.75 -35.45 -2.25 -41.85 L-2.0 -41.7 -1.8 -41.8 0.75 -43.4 2.0 -43.5 2.75 -44.15 4.7 -44.35 Q-0.15 -41.5 -0.9 -37.6 -2.15 -35.5 0.35 -33.95 L2.95 -37.6 Q7.1 -42.1 9.0 -40.9" fill="url(#gradient8)" fill-rule="evenodd" stroke="none"/>
    <path d="M-7.8 -19.05 L-9.05 -19.9 -8.9 -20.0 -9.4 -20.2 -10.95 -21.6 Q-11.3 -21.9 -11.3 -22.6 L-10.9 -22.8 Q-9.3 -22.7 -8.0 -23.3 L-6.5 -24.1 -6.75 -22.9 -6.85 -22.8 -7.15 -22.1 -7.8 -19.05" fill="url(#gradient9)" fill-rule="evenodd" stroke="none"/>
    <path d="M-5.8 -23.3 L-5.75 -23.25 -3.1 -18.05 -2.8 -17.4 Q-3.45 -18.05 -4.6 -18.05 -7.35 -18.55 -6.8 -22.8 L-6.75 -22.9 -6.5 -24.1 -6.4 -24.75 -6.4 -24.7 -6.35 -24.65 -5.9 -23.5 -5.8 -23.3" fill="url(#gradient10)" fill-rule="evenodd" stroke="none"/>
    <path d="M-6.2 -29.45 L-6.4 -27.85 -6.15 -24.5 -5.85 -23.5 -5.9 -23.5 -6.35 -24.65 -6.4 -24.7 -6.4 -24.75 -6.55 -25.45 -6.6 -27.85 -6.55 -28.4 -6.2 -29.45" fill="url(#gradient11)" fill-rule="evenodd" stroke="none"/>
    <path d="M11.55 -22.15 L11.55 -21.65 11.25 -21.85 11.55 -22.15 M1.4 -27.0 L3.0 -26.35 4.45 -26.35 4.5 -26.35 4.6 -24.95 5.1 -23.85 5.15 -22.5 Q5.4 -21.7 5.85 -21.35 L5.85 -21.3 6.15 -20.6 6.35 -20.05 6.35 -20.0 6.5 -19.1 6.9 -18.05 7.65 -16.65 8.55 -15.45 Q6.6 -13.25 10.1 -11.6 L9.35 -10.5 6.9 -7.75 6.55 -7.6 5.65 -7.5 4.6 -7.8 4.55 -7.9 4.5 -7.9 4.4 -8.0 2.85 -9.35 2.85 -9.4 2.75 -9.5 2.8 -9.6 2.45 -9.8 Q-0.6 -12.3 -1.9 -14.7 L-2.45 -16.65 -2.8 -17.4 -3.1 -18.05 -5.75 -23.25 -5.8 -23.3 -5.85 -23.5 -6.15 -24.5 -6.4 -27.85 -6.2 -29.45 -6.15 -29.55 -6.15 -29.65 -6.1 -29.95 -6.05 -30.0 -6.0 -30.0 -5.3 -30.55 -4.3 -30.4 -4.35 -30.5 -4.5 -31.0 -4.1 -31.05 Q-4.1 -30.75 -2.55 -30.1 L-1.85 -29.2 -1.0 -28.25 -0.45 -27.9 -0.4 -27.85 -0.35 -27.85 0.35 -27.4 1.1 -27.1 1.3 -27.0 1.4 -27.0" fill="url(#gradient12)" fill-rule="evenodd" stroke="none"/>
    <path d="M-5.3 -30.55 L-6.0 -30.0 -5.85 -30.35 -5.7 -30.35 -5.5 -30.55 -5.3 -30.55" fill="url(#gradient13)" fill-rule="evenodd" stroke="none"/>
    <path d="M-5.5 -30.55 L-5.5 -30.6 -5.35 -30.85 -5.3 -30.55 -5.5 -30.55" fill="url(#gradient14)" fill-rule="evenodd" stroke="none"/>
    <path d="M-5.5 -30.6 L-5.5 -30.55 -5.7 -30.35 -5.85 -30.35 -5.7 -30.55 -5.5 -30.6" fill="url(#gradient15)" fill-rule="evenodd" stroke="none"/>
    <path d="M-5.35 -30.85 L-5.0 -30.95 -4.7 -30.85 -4.35 -30.5 -4.3 -30.4 -5.3 -30.55 -5.35 -30.85" fill="url(#gradient16)" fill-rule="evenodd" stroke="none"/>
    <path d="M-4.7 -30.85 L-4.5 -31.0 -4.35 -30.5 -4.7 -30.85" fill="url(#gradient17)" fill-rule="evenodd" stroke="none"/>
    <path d="M-3.6 -42.5 L-3.0 -43.35 -3.2 -42.2 -3.45 -42.3 -3.6 -42.1 -3.6 -42.5 M-0.9 -44.4 L1.0 -44.1 2.75 -44.15 2.0 -43.5 0.75 -43.4 -1.8 -41.8 -2.0 -41.7 -2.25 -41.85 -1.9 -42.8 -0.9 -44.4 M2.95 -32.95 L3.4 -31.15 3.95 -30.2 2.45 -29.95 1.85 -29.75 0.85 -30.4 -0.2 -31.45 Q0.45 -31.45 1.6 -32.1 L2.95 -32.95 M-1.55 -30.05 L-1.45 -29.6 -0.9 -28.6 -0.85 -28.5 -0.1 -27.95 -0.35 -27.85 -0.4 -27.85 -0.45 -27.9 -1.65 -29.15 -1.85 -29.2 -2.55 -30.1 Q-4.1 -30.75 -4.1 -31.05 L-4.5 -31.65 -2.4 -31.45 -1.55 -30.05" fill="url(#gradient18)" fill-rule="evenodd" stroke="none"/>
    <path d="M3.95 -30.2 L5.05 -28.8 4.75 -27.95 3.55 -27.85 2.75 -27.85 1.45 -28.0 0.2 -28.6 0.15 -28.6 0.0 -28.65 -1.55 -30.05 -2.4 -31.45 -0.75 -31.25 -0.2 -31.45 0.85 -30.4 1.85 -29.75 2.45 -29.95 3.95 -30.2" fill="url(#gradient19)" fill-rule="evenodd" stroke="none"/>
    <path d="M1.35 -27.05 L1.2 -27.25 1.05 -27.3 -0.1 -27.95 -0.85 -28.5 -0.9 -28.6 -1.45 -29.6 -1.55 -30.05 0.0 -28.65 0.15 -28.6 0.2 -28.6 1.45 -28.0 2.75 -27.85 3.55 -27.85 4.75 -27.95 4.7 -27.85 4.5 -26.4 4.45 -26.35 3.0 -26.35 1.4 -27.0 1.35 -27.0 1.35 -27.05" fill="url(#gradient20)" fill-rule="evenodd" stroke="none"/>
    <path d="M1.05 -27.3 L1.35 -27.05 1.35 -27.0 1.3 -27.0 1.1 -27.1 0.8 -27.4 0.35 -27.4 -0.35 -27.85 -0.1 -27.95 1.05 -27.3" fill="url(#gradient21)" fill-rule="evenodd" stroke="none"/>
    <path d="M-0.4 -27.85 L-0.35 -27.85 -0.4 -27.85" fill="url(#gradient22)" fill-rule="evenodd" stroke="none"/>
    <path d="M1.35 -27.0 L1.4 -27.0 1.3 -27.0 1.35 -27.0 M0.35 -27.4 L0.8 -27.4 1.1 -27.1 0.35 -27.4" fill="url(#gradient23)" fill-rule="evenodd" stroke="none"/>
    <path d="M7.65 -55.4 L8.6 -55.45 9.95 -54.3 10.7 -52.25 Q11.15 -49.1 10.55 -46.9 11.15 -53.05 8.2 -53.85 L8.15 -54.55 7.65 -55.4" fill="url(#gradient24)" fill-rule="evenodd" stroke="none"/>
    <path d="M8.65 -52.65 L8.3 -49.15 Q8.3 -48.45 6.4 -47.4 L6.2 -47.35 5.65 -47.05 4.05 -46.65 2.4 -46.6 1.3 -46.65 0.35 -46.85 0.0 -46.95 -0.4 -47.35 Q-1.35 -47.7 -1.45 -48.0 L-1.95 -48.1 -2.15 -48.4 -2.45 -49.0 -2.55 -49.85 -2.65 -51.25 Q-0.5 -48.1 3.2 -49.0 8.1 -49.75 8.65 -52.65" fill="url(#gradient25)" fill-rule="evenodd" stroke="none"/>
    <path d="M-2.55 -48.1 L-3.1 -48.0 -4.0 -47.35 Q-7.45 -45.8 -6.9 -39.35 -9.35 -38.8 -9.25 -43.15 L-9.2 -43.55 -9.05 -43.45 -8.95 -43.75 -8.65 -44.0 -7.25 -46.2 -4.6 -49.05 Q-3.2 -49.95 -2.55 -49.85 L-2.45 -49.0 -2.15 -48.4 -2.55 -48.1" fill="url(#gradient26)" fill-rule="evenodd" stroke="none"/>
    <path d="M-4.65 -44.0 L-4.3 -45.5 Q-3.85 -46.75 -3.2 -47.35 L-2.55 -48.1 -2.15 -48.4 -1.95 -48.1 -3.1 -46.7 -4.65 -44.0" fill="url(#gradient27)" fill-rule="evenodd" stroke="none"/>
    <path d="M-1.95 -48.1 L-1.45 -48.0 Q-1.35 -47.7 -0.4 -47.35 L0.0 -46.95 0.35 -46.85 0.35 -46.75 -0.85 -46.0 -3.0 -43.35 -3.6 -42.5 -4.7 -40.7 Q-5.55 -38.9 -5.65 -37.6 L-5.7 -37.45 -5.7 -37.6 Q-6.1 -40.7 -4.65 -44.0 L-3.1 -46.7 -1.95 -48.1" fill="url(#gradient28)" fill-rule="evenodd" stroke="none"/>
    <path d="M0.35 -46.85 L1.3 -46.65 2.4 -46.6 1.65 -46.25 0.35 -46.05 0.6 -46.35 0.6 -46.65 0.35 -46.75 0.35 -46.85" fill="url(#gradient29)" fill-rule="evenodd" stroke="none"/>
    <path d="M-3.0 -43.35 L-0.85 -46.0 0.35 -46.75 0.6 -46.65 0.6 -46.35 0.35 -46.05 -0.3 -45.35 -0.9 -44.4 -1.9 -42.8 -2.25 -41.85 Q-3.75 -35.45 -3.2 -42.2 L-3.0 -43.35" fill="url(#gradient30)" fill-rule="evenodd" stroke="none"/>
    <path d="M6.4 -47.4 L5.5 -46.45 Q4.95 -46.05 4.35 -46.05 L4.2 -46.55 4.05 -46.65 5.65 -47.05 6.2 -47.35 6.4 -47.4" fill="url(#gradient31)" fill-rule="evenodd" stroke="none"/>
    <path d="M4.35 -46.05 L4.15 -45.3 1.8 -45.15 -0.3 -45.35 0.35 -46.05 1.65 -46.25 2.4 -46.6 4.05 -46.65 4.2 -46.55 4.35 -46.05" fill="url(#gradient32)" fill-rule="evenodd" stroke="none"/>
    <path d="M4.15 -45.3 L5.65 -45.2 6.2 -44.9 4.7 -44.35 2.75 -44.15 1.0 -44.1 -0.9 -44.4 -0.3 -45.35 1.8 -45.15 4.15 -45.3" fill="url(#gradient33)" fill-rule="evenodd" stroke="none"/>
    <path d="M6.2 -44.9 Q10.35 -42.9 9.0 -40.9 7.1 -42.1 2.95 -37.6 L0.35 -33.95 Q-2.15 -35.5 -0.9 -37.6 -0.15 -41.5 4.7 -44.35 L6.2 -44.9" fill="url(#gradient34)" fill-rule="evenodd" stroke="none"/>
    <path d="M9.6 -39.8 L9.6 -39.35 9.45 -39.45 9.05 -39.15 8.75 -39.2 9.6 -39.8" fill="url(#gradient35)" fill-rule="evenodd" stroke="none"/>
    <path d="M9.95 -38.5 Q12.6 -36.45 12.3 -31.95 12.8 -29.55 5.3 -28.65 L5.05 -28.8 3.95 -30.2 3.4 -31.15 2.95 -32.95 4.15 -33.85 Q3.65 -33.95 6.45 -37.6 7.95 -38.6 8.05 -39.1 L8.75 -39.2 9.05 -39.15 9.95 -38.5" fill="url(#gradient36)" fill-rule="evenodd" stroke="none"/>
    <path d="M9.6 -39.35 L9.95 -38.5 9.05 -39.15 9.45 -39.45 9.6 -39.35" fill="url(#gradient37)" fill-rule="evenodd" stroke="none"/>
    <path d="M12.3 -31.95 Q14.1 -32.1 13.2 -28.4 L12.85 -27.9 12.7 -27.85 12.15 -27.35 Q8.95 -25.75 6.05 -27.0 L5.5 -27.25 5.35 -27.85 5.3 -28.65 Q12.8 -29.55 12.3 -31.95" fill="url(#gradient38)" fill-rule="evenodd" stroke="none"/>
    <path d="M5.05 -28.8 L5.3 -28.65 5.35 -27.85 5.5 -27.25 6.05 -27.0 5.9 -25.9 5.5 -25.9 Q5.2 -25.5 5.25 -24.2 L5.1 -23.85 4.6 -24.95 4.5 -26.35 4.5 -26.4 4.7 -27.85 4.75 -27.95 5.05 -28.8" fill="url(#gradient39)" fill-rule="evenodd" stroke="none"/>
    <path d="M-5.85 -23.5 L-5.8 -23.3 -5.9 -23.5 -5.85 -23.5 M2.45 -9.8 L2.8 -9.6 2.75 -9.5 2.45 -9.8" fill="url(#gradient40)" fill-rule="evenodd" stroke="none"/>
    <path d="M-1.85 -29.2 L-1.65 -29.15 -0.45 -27.9 -1.0 -28.25 -1.85 -29.2" fill="url(#gradient41)" fill-rule="evenodd" stroke="none"/>
    <path d="M4.45 -26.35 L4.5 -26.4 4.5 -26.35 4.45 -26.35" fill="url(#gradient42)" fill-rule="evenodd" stroke="none"/>
    <path d="M1.05 -27.3 L1.2 -27.25 1.35 -27.05 1.05 -27.3" fill="url(#gradient43)" fill-rule="evenodd" stroke="none"/>
    <path d="M13.2 -28.4 Q15.0 -25.8 12.3 -23.45 L11.4 -22.95 6.45 -23.15 5.6 -23.8 5.25 -24.2 Q5.2 -25.5 5.5 -25.9 L5.9 -25.9 Q6.1 -23.9 8.2 -24.6 12.1 -25.8 12.25 -27.05 L12.75 -27.6 12.8 -27.85 12.85 -27.9 13.2 -28.4" fill="url(#gradient44)" fill-rule="evenodd" stroke="none"/>
    <path d="M12.3 -23.45 L11.55 -22.15 11.25 -21.85 11.0 -21.65 Q10.6 -21.8 9.35 -21.1 L9.2 -21.4 Q10.0 -21.55 10.75 -22.15 L11.4 -22.95 12.3 -23.45 M12.15 -27.35 L12.7 -27.85 12.85 -27.9 12.8 -27.85 12.75 -27.6 12.25 -27.05 12.15 -27.35" fill="url(#gradient45)" fill-rule="evenodd" stroke="none"/>
    <path d="M5.9 -25.9 L6.05 -27.0 Q8.95 -25.75 12.15 -27.35 L12.25 -27.05 Q12.1 -25.8 8.2 -24.6 6.1 -23.9 5.9 -25.9 M6.45 -23.15 L11.4 -22.95 10.75 -22.15 Q10.0 -21.55 9.2 -21.4 L8.25 -21.45 Q7.2 -21.85 6.95 -22.25 L6.45 -23.15" fill="url(#gradient46)" fill-rule="evenodd" stroke="none"/>
    <path d="M5.85 -21.35 Q5.4 -21.7 5.15 -22.5 L5.1 -23.85 5.25 -24.2 5.6 -23.8 6.45 -23.15 6.95 -22.25 6.45 -21.45 6.15 -21.25 5.9 -21.3 5.9 -21.35 5.85 -21.35" fill="url(#gradient47)" fill-rule="evenodd" stroke="none"/>
    <path d="M-6.75 -22.9 L-6.8 -22.8 -6.85 -22.8 -6.75 -22.9" fill="url(#gradient48)" fill-rule="evenodd" stroke="none"/>
    <path d="M-7.35 -16.55 L-7.75 -17.8 -7.8 -19.05 -7.15 -22.1 -6.85 -22.8 -6.8 -22.8 Q-7.35 -18.55 -4.6 -18.05 -3.45 -18.05 -2.8 -17.4 L-2.45 -16.65 -1.9 -14.7 -2.0 -13.5 -1.75 -12.65 -2.3 -12.6 -3.7 -12.8 -3.8 -12.45 -3.7 -12.0 -2.7 -11.2 -4.15 -11.35 -4.2 -11.15 -5.15 -11.3 -5.75 -12.35 Q-5.35 -12.7 -6.2 -15.05 L-6.3 -15.15 -6.35 -15.25 -6.4 -15.25 -6.4 -15.35 -7.35 -16.55" fill="url(#gradient49)" fill-rule="evenodd" stroke="none"/>
    <path d="M-9.05 -19.9 L-9.4 -20.2 -8.9 -20.0 -9.05 -19.9" fill="url(#gradient50)" fill-rule="evenodd" stroke="none"/>
    <path d="M5.85 -21.3 L5.85 -21.35 5.9 -21.35 5.9 -21.3 5.85 -21.3" fill="url(#gradient51)" fill-rule="evenodd" stroke="none"/>
    <path d="M6.15 -20.6 L5.85 -21.3 5.9 -21.3 6.15 -21.25 6.45 -21.45 6.95 -22.25 Q7.2 -21.85 8.25 -21.45 L9.2 -21.4 9.35 -21.1 Q7.6 -18.4 6.15 -20.6" fill="url(#gradient52)" fill-rule="evenodd" stroke="none"/>
    <path d="M11.55 -21.65 Q13.1 -19.95 12.05 -16.95 L11.8 -15.9 Q11.55 -15.15 11.0 -14.75 L9.4 -14.5 Q8.9 -14.4 8.55 -15.45 L7.65 -16.65 6.9 -18.05 6.5 -19.1 6.35 -20.0 6.35 -20.05 6.15 -20.6 Q7.6 -18.4 9.35 -21.1 10.6 -21.8 11.0 -21.65 L11.25 -21.85 11.55 -21.65" fill="url(#gradient53)" fill-rule="evenodd" stroke="none"/>
    <path d="M12.05 -16.95 Q15.6 -12.7 10.6 -11.5 L10.1 -11.6 Q6.6 -13.25 8.55 -15.45 8.9 -14.4 9.4 -14.5 L11.0 -14.75 Q11.55 -15.15 11.8 -15.9 L12.05 -16.95" fill="url(#gradient54)" fill-rule="evenodd" stroke="none"/>
    <path d="M10.6 -11.5 L10.3 -10.65 9.6 -9.6 Q8.7 -8.55 8.05 -8.3 L7.55 -7.95 6.9 -7.75 9.35 -10.5 10.1 -11.6 10.6 -11.5 M4.4 -8.0 L4.5 -7.9 4.55 -7.9 4.6 -7.8 5.65 -7.5 6.55 -7.6 5.5 -7.4 Q3.55 -7.2 2.45 -8.3 L2.25 -8.55 2.35 -8.75 3.65 -8.4 3.85 -8.3 4.4 -8.0" fill="url(#gradient55)" fill-rule="evenodd" stroke="none"/>
    <path d="M10.3 -10.65 L10.3 -9.8 10.05 -9.0 9.65 -8.3 Q4.95 -3.7 1.75 -6.3 L1.5 -6.7 1.65 -7.25 5.0 -7.15 5.5 -7.4 6.55 -7.6 6.9 -7.75 7.55 -7.95 8.05 -8.3 Q8.7 -8.55 9.6 -9.6 L10.3 -10.65" fill="url(#gradient56)" fill-rule="evenodd" stroke="none"/>
    <path d="M-6.7 -15.5 L-7.35 -16.55 -6.4 -15.35 -6.4 -15.25 -6.7 -15.5" fill="url(#gradient57)" fill-rule="evenodd" stroke="none"/>
    <path d="M-6.95 -13.8 L-6.7 -15.5 -6.4 -15.25 -6.3 -15.15 -6.2 -15.05 Q-5.35 -12.7 -5.75 -12.35 L-6.55 -12.9 -6.95 -13.8" fill="url(#gradient58)" fill-rule="evenodd" stroke="none"/>
    <path d="M-3.75 -4.8 L-4.6 -5.95 -5.4 -6.75 Q-6.05 -7.65 -6.65 -7.45 L-6.9 -8.3 -7.2 -10.15 -7.2 -10.2 -7.35 -12.3 -6.95 -13.8 -6.55 -12.9 -5.75 -12.35 -5.15 -11.3 -4.2 -11.15 -4.1 -10.0 Q-3.65 -9.2 -2.05 -9.0 L-1.85 -8.3 -1.7 -8.05 -2.0 -7.05 Q-1.45 -4.65 -1.6 -4.55 L-3.4 -4.45 -3.75 -4.8" fill="url(#gradient59)" fill-rule="evenodd" stroke="none"/>
    <path d="M-7.25 -10.15 L-7.2 -10.2 -7.2 -10.15 -7.25 -10.15" fill="url(#gradient60)" fill-rule="evenodd" stroke="none"/>
    <path d="M-5.4 -6.75 Q-8.95 -6.3 -7.25 -10.15 L-7.2 -10.15 -6.9 -8.3 -6.65 -7.45 Q-6.05 -7.65 -5.4 -6.75" fill="url(#gradient61)" fill-rule="evenodd" stroke="none"/>
    <path d="M-1.9 -14.7 Q-0.6 -12.3 2.45 -9.8 L2.75 -9.5 2.85 -9.4 2.85 -9.35 3.15 -8.8 3.65 -8.4 2.35 -8.75 2.25 -8.55 2.45 -8.3 Q3.55 -7.2 5.5 -7.4 L5.0 -7.15 1.65 -7.25 1.5 -6.7 1.75 -6.3 0.45 -6.8 -0.05 -7.85 -0.2 -8.3 -0.4 -8.55 -0.75 -9.8 -1.7 -12.4 -1.75 -12.65 -2.0 -13.5 -1.9 -14.7" fill="url(#gradient62)" fill-rule="evenodd" stroke="none"/>
    <path d="M-2.7 -11.2 L-3.7 -12.0 -3.8 -12.45 -3.7 -12.8 -2.3 -12.6 -1.75 -12.65 -1.7 -12.4 Q-2.65 -11.85 -2.3 -11.1 L-2.7 -11.2" fill="url(#gradient63)" fill-rule="evenodd" stroke="none"/>
    <path d="M-4.2 -11.15 L-4.15 -11.35 -2.7 -11.2 -2.3 -11.1 -1.65 -10.35 -2.05 -9.0 Q-3.65 -9.2 -4.1 -10.0 L-4.2 -11.15" fill="url(#gradient64)" fill-rule="evenodd" stroke="none"/>
    <path d="M-6.4 -15.25 L-6.35 -15.25 -6.3 -15.15 -6.4 -15.25" fill="url(#gradient65)" fill-rule="evenodd" stroke="none"/>
    <path d="M-1.7 -12.4 L-0.75 -9.8 -1.15 -9.9 -1.65 -10.35 -2.3 -11.1 Q-2.65 -11.85 -1.7 -12.4" fill="url(#gradient66)" fill-rule="evenodd" stroke="none"/>
    <path d="M-0.05 -7.85 L-0.65 -7.4 -1.7 -8.05 -1.85 -8.3 -2.05 -9.0 -1.65 -10.35 -1.15 -9.9 -0.75 -9.8 -0.4 -8.55 -0.2 -8.3 -0.05 -7.85" fill="url(#gradient67)" fill-rule="evenodd" stroke="none"/>
    <path d="M10.05 -9.0 L10.15 -6.2 9.55 -4.85 9.05 -2.35 7.2 -0.85 5.15 -0.05 Q2.1 -0.1 1.6 -0.5 L1.6 -0.85 1.25 -1.55 0.85 -1.75 0.3 -2.05 0.0 -2.25 -0.75 -2.75 -1.3 -2.7 Q-1.6 -4.25 -1.65 -3.9 L-1.6 -4.55 Q-1.45 -4.65 -2.0 -7.05 L-1.7 -8.05 -0.65 -7.4 -0.05 -7.85 0.45 -6.8 1.75 -6.3 Q4.95 -3.7 9.65 -8.3 L10.05 -9.0" fill="url(#gradient68)" fill-rule="evenodd" stroke="none"/>
    <path d="M2.85 -9.35 L4.4 -8.0 3.85 -8.3 3.65 -8.4 3.15 -8.8 2.85 -9.35" fill="url(#gradient69)" fill-rule="evenodd" stroke="none"/>
    <path d="M-3.7 -4.05 L-3.75 -4.8 -3.4 -4.45 -1.6 -4.55 -2.0 -4.1 -2.25 -3.0 -3.05 -3.35 -3.1 -3.4 -3.7 -4.05" fill="url(#gradient70)" fill-rule="evenodd" stroke="none"/>
    <path d="M9.55 -4.85 Q10.05 -4.1 9.8 -2.25 L9.2 -1.05 8.7 -0.45 7.8 0.35 6.1 1.25 5.7 1.35 5.3 1.45 4.95 1.6 3.45 1.6 2.25 1.05 1.85 0.6 1.55 0.2 1.6 -0.5 Q2.1 -0.1 5.15 -0.05 L7.2 -0.85 9.05 -2.35 9.55 -4.85" fill="url(#gradient71)" fill-rule="evenodd" stroke="none"/>
    <path d="M0.85 -1.75 L-0.2 -0.85 0.05 -1.5 0.3 -2.05 0.85 -1.75" fill="url(#gradient72)" fill-rule="evenodd" stroke="none"/>
    <path d="M0.05 -1.5 Q-5.1 1.45 -3.6 -3.45 -4.1 -1.75 -1.6 -2.2 -0.9 -1.65 -0.4 -1.85 L0.0 -2.25 0.3 -2.05 0.05 -1.5" fill="url(#gradient73)" fill-rule="evenodd" stroke="none"/>
    <path d="M-1.6 -4.55 L-1.65 -3.9 Q-1.6 -4.25 -1.3 -2.7 L-0.75 -2.75 0.0 -2.25 -0.4 -1.85 Q-0.9 -1.65 -1.6 -2.2 L-1.9 -2.4 -2.25 -3.0 -2.0 -4.1 -1.6 -4.55" fill="url(#gradient74)" fill-rule="evenodd" stroke="none"/>
    <path d="M-3.6 -3.45 L-3.6 -3.5 -3.7 -3.85 -3.1 -3.4 -3.05 -3.35 -2.25 -3.0 -1.9 -2.4 -1.6 -2.2 Q-4.1 -1.75 -3.6 -3.45" fill="url(#gradient75)" fill-rule="evenodd" stroke="none"/>
    <path d="M-3.7 -3.85 L-3.7 -4.05 -3.1 -3.4 -3.7 -3.85" fill="url(#gradient76)" fill-rule="evenodd" stroke="none"/>
    <path d="M9.2 -1.05 L9.35 -0.9 9.25 -0.25 7.75 1.2 7.8 0.35 8.7 -0.45 9.2 -1.05 M6.0 2.9 L4.4 4.1 Q3.8 4.6 2.7 4.55 0.35 3.15 1.65 1.65 3.15 3.45 5.65 1.45 L5.7 1.35 6.1 1.25 6.35 1.6 6.4 2.25 6.0 2.9" fill="url(#gradient77)" fill-rule="evenodd" stroke="none"/>
    <path d="M7.75 1.2 L7.2 2.35 5.75 3.4 5.6 3.45 6.0 2.9 6.4 2.25 6.35 1.6 6.1 1.25 7.8 0.35 7.75 1.2" fill="url(#gradient78)" fill-rule="evenodd" stroke="none"/>
    <path d="M1.65 1.65 L1.65 1.1 1.85 0.6 2.25 1.05 2.8 1.45 3.45 1.6 4.95 1.6 5.3 1.45 5.7 1.35 5.65 1.45 Q3.15 3.45 1.65 1.65" fill="url(#gradient79)" fill-rule="evenodd" stroke="none"/>
    <path d="M3.45 1.6 L2.8 1.45 2.25 1.05 3.45 1.6" fill="url(#gradient80)" fill-rule="evenodd" stroke="none"/>
  </g>
  <defs>
    <radialGradient cx="0" cy="0" gradientTransform="matrix(0.0079, 0.0, 0.0, 0.0079, 6.6, -56.3)" gradientUnits="userSpaceOnUse" id="gradient0" r="819.2" spreadMethod="pad">
      <stop offset="0.0" stop-color="#a79359"/>
      <stop offset="1.0" stop-color="#574d2f"/>
    </radialGradient>
    <radialGradient cx="0" cy="0" gradientTransform="matrix(0.0081, 0.0, 0.0, 0.0081, 3.3, -53.4)" gradientUnits="userSpaceOnUse" id="gradient1" r="819.2" spreadMethod="pad">
      <stop offset="0.0" stop-color="#a38f57"/>
      <stop offset="1.0" stop-color="#6d603a"/>
    </radialGradient>
    <radialGradient cx="0" cy="0" gradientTransform="matrix(0.0138, 0.0, 0.0, 0.0138, -2.7, -52.25)" gradientUnits="userSpaceOnUse" id="gradient2" r="819.2" spreadMethod="pad">
      <stop offset="0.0" stop-color="#484134"/>
      <stop offset="1.0" stop-color="#443d31"/>
    </radialGradient>
    <radialGradient cx="0" cy="0" gradientTransform="matrix(0.0083, 0.0, 0.0, 0.0083, -7.9, -47.5)" gradientUnits="userSpaceOnUse" id="gradient3" r="819.2" spreadMethod="pad">
      <stop offset="0.0" stop-color="#645a48"/>
      <stop offset="1.0" stop-color="#433d30"/>
    </radialGradient>
    <radialGradient cx="0" cy="0" gradientTransform="matrix(0.0077, 0.0, 0.0, 0.0077, -10.4, -48.8)" gradientUnits="userSpaceOnUse" id="gradient4" r="819.2" spreadMethod="pad">
      <stop offset="0.0" stop-color="#645a49"/>
      <stop offset="1.0" stop-color="#3a3429"/>
    </radialGradient>
    <radialGradient cx="0" cy="0" gradientTransform="matrix(0.0056, 0.0, 0.0, 0.0056, -13.45, -47.45)" gradientUnits="userSpaceOnUse" id="gradient5" r="819.2" spreadMethod="pad">
      <stop offset="0.0" stop-color="#544c3d"/>
      <stop offset="1.0" stop-color="#2f2b22"/>
    </radialGradient>
    <radialGradient cx="0" cy="0" gradientTransform="matrix(0.0063, 0.0, 0.0, 0.0063, -15.7, -47.55)" gradientUnits="userSpaceOnUse" id="gradient6" r="819.2" spreadMethod="pad">
      <stop offset="0.0" stop-color="#3c362c"/>
      <stop offset="1.0" stop-color="#100e0b"/>
    </radialGradient>
    <radialGradient cx="0" cy="0" gradientTransform="matrix(0.0039, 0.0, 0.0, 0.0039, -15.35, -46.85)" gradientUnits="userSpaceOnUse" id="gradient7" r="819.2" spreadMethod="pad">
      <stop offset="0.0" stop-color="#453e32"/>
      <stop offset="1.0" stop-color="#373128"/>
    </radialGradient>
    <radialGradient cx="0" cy="0" gradientTransform="matrix(0.027, 0.0, 0.0, 0.027, -1.15, -42.3)" gradientUnits="userSpaceOnUse" id="gradient8" r="819.2" spreadMethod="pad">
      <stop offset="0.0" stop-color="#3c4772"/>
      <stop offset="1.0" stop-color="#21283f"/>
    </radialGradient>
    <radialGradient cx="0" cy="0" gradientTransform="matrix(0.0225, 0.0, 0.0, 0.0225, -14.2, -36.35)" gradientUnits="userSpaceOnUse" id="gradient9" r="819.2" spreadMethod="pad">
      <stop offset="0.0" stop-color="#20263d"/>
      <stop offset="1.0" stop-color="#08090e"/>
    </radialGradient>
    <radialGradient cx="0" cy="0" gradientTransform="matrix(0.0089, 0.0, 0.0, 0.0089, -3.45, -23.8)" gradientUnits="userSpaceOnUse" id="gradient10" r="819.2" spreadMethod="pad">
      <stop offset="0.0" stop-color="#beb395"/>
      <stop offset="1.0" stop-color="#9f967c"/>
    </radialGradient>
    <radialGradient cx="0" cy="0" gradientTransform="matrix(0.0062, 0.0, 0.0, 0.0062, -5.8, -28.35)" gradientUnits="userSpaceOnUse" id="gradient11" r="819.2" spreadMethod="pad">
      <stop offset="0.0" stop-color="#b8ad90"/>
      <stop offset="1.0" stop-color="#847c67"/>
    </radialGradient>
    <radialGradient cx="0" cy="0" gradientTransform="matrix(0.0215, 0.0, 0.0, 0.0215, 4.65, -25.15)" gradientUnits="userSpaceOnUse" id="gradient12" r="819.2" spreadMethod="pad">
      <stop offset="0.0" stop-color="#404c7a"/>
      <stop offset="1.0" stop-color="#1e2339"/>
    </radialGradient>
    <radialGradient cx="0" cy="0" gradientTransform="matrix(0.0012, 0.0, 0.0, 0.0012, -5.3, -30.65)" gradientUnits="userSpaceOnUse" id="gradient13" r="819.2" spreadMethod="pad">
      <stop offset="0.0" stop-color="#232942"/>
      <stop offset="1.0" stop-color="#1e2439"/>
    </radialGradient>
    <radialGradient cx="0" cy="0" gradientTransform="matrix(0.0014, 0.0, 0.0, 0.0014, -5.3, -30.65)" gradientUnits="userSpaceOnUse" id="gradient14" r="819.2" spreadMethod="pad">
      <stop offset="0.0" stop-color="#2d3555"/>
      <stop offset="1.0" stop-color="#272e4a"/>
    </radialGradient>
    <radialGradient cx="0" cy="0" gradientTransform="matrix(0.0028, 0.0, 0.0, 0.0028, -5.4, -31.0)" gradientUnits="userSpaceOnUse" id="gradient15" r="819.2" spreadMethod="pad">
      <stop offset="0.0" stop-color="#a48a26"/>
      <stop offset="1.0" stop-color="#79671c"/>
    </radialGradient>
    <radialGradient cx="0" cy="0" gradientTransform="matrix(0.0021, 0.0, 0.0, 0.0021, -4.3, -30.5)" gradientUnits="userSpaceOnUse" id="gradient16" r="819.2" spreadMethod="pad">
      <stop offset="0.0" stop-color="#343d62"/>
      <stop offset="1.0" stop-color="#2b3352"/>
    </radialGradient>
    <radialGradient cx="0" cy="0" gradientTransform="matrix(0.0022, 0.0, 0.0, 0.0022, -4.3, -30.5)" gradientUnits="userSpaceOnUse" id="gradient17" r="819.2" spreadMethod="pad">
      <stop offset="0.0" stop-color="#2d3656"/>
      <stop offset="1.0" stop-color="#2c3453"/>
    </radialGradient>
    <radialGradient cx="0" cy="0" gradientTransform="matrix(0.0191, 0.0, 0.0, 0.0191, 1.8, -42.7)" gradientUnits="userSpaceOnUse" id="gradient18" r="819.2" spreadMethod="pad">
      <stop offset="0.0" stop-color="#ffd97c"/>
      <stop offset="1.0" stop-color="#b7844b"/>
    </radialGradient>
    <radialGradient cx="0" cy="0" gradientTransform="matrix(0.0066, 0.0, 0.0, 0.0066, 2.3, -29.65)" gradientUnits="userSpaceOnUse" id="gradient19" r="819.2" spreadMethod="pad">
      <stop offset="0.0" stop-color="#655b49"/>
      <stop offset="1.0" stop-color="#443e31"/>
    </radialGradient>
    <radialGradient cx="0" cy="0" gradientTransform="matrix(0.0053, 0.0, 0.0, 0.0053, 1.5, -28.0)" gradientUnits="userSpaceOnUse" id="gradient20" r="819.2" spreadMethod="pad">
      <stop offset="0.0" stop-color="#685e4c"/>
      <stop offset="1.0" stop-color="#3c362b"/>
    </radialGradient>
    <radialGradient cx="0" cy="0" gradientTransform="matrix(0.0044, 0.0, 0.0, 0.0044, 2.45, -27.9)" gradientUnits="userSpaceOnUse" id="gradient21" r="819.2" spreadMethod="pad">
      <stop offset="0.0" stop-color="#fffbd1"/>
      <stop offset="1.0" stop-color="#a99f85"/>
    </radialGradient>
    <radialGradient cx="0" cy="0" gradientTransform="matrix(9.0E-4, 0.0, 0.0, 9.0E-4, -0.55, -28.15)" gradientUnits="userSpaceOnUse" id="gradient22" r="819.2" spreadMethod="pad">
      <stop offset="0.0" stop-color="#261c10"/>
      <stop offset="1.0" stop-color="#261c10"/>
    </radialGradient>
    <radialGradient cx="0" cy="0" gradientTransform="matrix(0.0048, 0.0, 0.0, 0.0048, 3.75, -26.0)" gradientUnits="userSpaceOnUse" id="gradient23" r="819.2" spreadMethod="pad">
      <stop offset="0.0" stop-color="#d1b031"/>
      <stop offset="1.0" stop-color="#b19529"/>
    </radialGradient>
    <radialGradient cx="0" cy="0" gradientTransform="matrix(0.0104, 0.0, 0.0, 0.0104, 7.2, -54.45)" gradientUnits="userSpaceOnUse" id="gradient24" r="819.2" spreadMethod="pad">
      <stop offset="0.0" stop-color="#a69259"/>
      <stop offset="1.0" stop-color="#74663e"/>
    </radialGradient>
    <radialGradient cx="0" cy="0" gradientTransform="matrix(0.0084, 0.0, 0.0, 0.0084, 2.8, -49.0)" gradientUnits="userSpaceOnUse" id="gradient25" r="819.2" spreadMethod="pad">
      <stop offset="0.0" stop-color="#4b4437"/>
      <stop offset="1.0" stop-color="#3e382d"/>
    </radialGradient>
    <radialGradient cx="0" cy="0" gradientTransform="matrix(0.0081, 0.0, 0.0, 0.0081, -6.1, -45.85)" gradientUnits="userSpaceOnUse" id="gradient26" r="819.2" spreadMethod="pad">
      <stop offset="0.0" stop-color="#645a49"/>
      <stop offset="1.0" stop-color="#373228"/>
    </radialGradient>
    <radialGradient cx="0" cy="0" gradientTransform="matrix(0.0046, 0.0, 0.0, 0.0046, -3.3, -46.4)" gradientUnits="userSpaceOnUse" id="gradient27" r="819.2" spreadMethod="pad">
      <stop offset="0.0" stop-color="#a59158"/>
      <stop offset="1.0" stop-color="#76673f"/>
    </radialGradient>
    <radialGradient cx="0" cy="0" gradientTransform="matrix(0.0115, 0.0, 0.0, 0.0115, -1.65, -45.95)" gradientUnits="userSpaceOnUse" id="gradient28" r="819.2" spreadMethod="pad">
      <stop offset="0.0" stop-color="#a89359"/>
      <stop offset="1.0" stop-color="#73663d"/>
    </radialGradient>
    <radialGradient cx="0" cy="0" gradientTransform="matrix(0.0023, 0.0, 0.0, 0.0023, 0.85, -47.25)" gradientUnits="userSpaceOnUse" id="gradient29" r="819.2" spreadMethod="pad">
      <stop offset="0.0" stop-color="#998651"/>
      <stop offset="1.0" stop-color="#7b6c41"/>
    </radialGradient>
    <radialGradient cx="0" cy="0" gradientTransform="matrix(0.0072, 0.0, 0.0, 0.0072, -1.5, -44.4)" gradientUnits="userSpaceOnUse" id="gradient30" r="819.2" spreadMethod="pad">
      <stop offset="0.0" stop-color="#a9945a"/>
      <stop offset="1.0" stop-color="#7a6b40"/>
    </radialGradient>
    <radialGradient cx="0" cy="0" gradientTransform="matrix(0.0038, 0.0, 0.0, 0.0038, 6.55, -47.85)" gradientUnits="userSpaceOnUse" id="gradient31" r="819.2" spreadMethod="pad">
      <stop offset="0.0" stop-color="#9f7342"/>
      <stop offset="1.0" stop-color="#6e4f2e"/>
    </radialGradient>
    <radialGradient cx="0" cy="0" gradientTransform="matrix(0.0042, 0.0, 0.0, 0.0042, 1.15, -46.6)" gradientUnits="userSpaceOnUse" id="gradient32" r="819.2" spreadMethod="pad">
      <stop offset="0.0" stop-color="#ffd57a"/>
      <stop offset="1.0" stop-color="#d79b59"/>
    </radialGradient>
    <radialGradient cx="0" cy="0" gradientTransform="matrix(0.0071, 0.0, 0.0, 0.0071, 0.75, -44.75)" gradientUnits="userSpaceOnUse" id="gradient33" r="819.2" spreadMethod="pad">
      <stop offset="0.0" stop-color="#fee653"/>
      <stop offset="1.0" stop-color="#a89837"/>
    </radialGradient>
    <radialGradient cx="0" cy="0" gradientTransform="matrix(0.008, 0.0, 0.0, 0.008, 3.55, -39.65)" gradientUnits="userSpaceOnUse" id="gradient34" r="819.2" spreadMethod="pad">
      <stop offset="0.0" stop-color="#615847"/>
      <stop offset="1.0" stop-color="#393329"/>
    </radialGradient>
    <radialGradient cx="0" cy="0" gradientTransform="matrix(0.0025, 0.0, 0.0, 0.0025, 9.55, -39.9)" gradientUnits="userSpaceOnUse" id="gradient35" r="819.2" spreadMethod="pad">
      <stop offset="0.0" stop-color="#232a43"/>
      <stop offset="1.0" stop-color="#1f253b"/>
    </radialGradient>
    <radialGradient cx="0" cy="0" gradientTransform="matrix(0.0097, 0.0, 0.0, 0.0097, 7.05, -35.95)" gradientUnits="userSpaceOnUse" id="gradient36" r="819.2" spreadMethod="pad">
      <stop offset="0.0" stop-color="#ffd97c"/>
      <stop offset="1.0" stop-color="#b5824b"/>
    </radialGradient>
    <radialGradient cx="0" cy="0" gradientTransform="matrix(0.0019, 0.0, 0.0, 0.0019, 8.8, -38.9)" gradientUnits="userSpaceOnUse" id="gradient37" r="819.2" spreadMethod="pad">
      <stop offset="0.0" stop-color="#e1a25d"/>
      <stop offset="1.0" stop-color="#c58e51"/>
    </radialGradient>
    <radialGradient cx="0" cy="0" gradientTransform="matrix(0.0054, 0.0, 0.0, 0.0054, 9.7, -28.75)" gradientUnits="userSpaceOnUse" id="gradient38" r="819.2" spreadMethod="pad">
      <stop offset="0.0" stop-color="#625947"/>
      <stop offset="1.0" stop-color="#3e382d"/>
    </radialGradient>
    <radialGradient cx="0" cy="0" gradientTransform="matrix(0.0047, 0.0, 0.0, 0.0047, 6.2, -27.4)" gradientUnits="userSpaceOnUse" id="gradient39" r="819.2" spreadMethod="pad">
      <stop offset="0.0" stop-color="#ffc571"/>
      <stop offset="1.0" stop-color="#b3814a"/>
    </radialGradient>
    <radialGradient cx="0" cy="0" gradientTransform="matrix(0.0167, 0.0, 0.0, 0.0167, -3.35, -20.85)" gradientUnits="userSpaceOnUse" id="gradient40" r="819.2" spreadMethod="pad">
      <stop offset="0.0" stop-color="#0f121c"/>
      <stop offset="1.0" stop-color="#08090e"/>
    </radialGradient>
    <radialGradient cx="0" cy="0" gradientTransform="matrix(0.0049, 0.0, 0.0, 0.0049, -2.25, -30.3)" gradientUnits="userSpaceOnUse" id="gradient41" r="819.2" spreadMethod="pad">
      <stop offset="0.0" stop-color="#fffdd2"/>
      <stop offset="1.0" stop-color="#e3d7b2"/>
    </radialGradient>
    <radialGradient cx="0" cy="0" gradientTransform="matrix(0.0042, 0.0, 0.0, 0.0042, 4.9, -24.1)" gradientUnits="userSpaceOnUse" id="gradient42" r="819.2" spreadMethod="pad">
      <stop offset="0.0" stop-color="#261c10"/>
      <stop offset="1.0" stop-color="#261c10"/>
    </radialGradient>
    <radialGradient cx="0" cy="0" gradientTransform="matrix(0.0022, 0.0, 0.0, 0.0022, 0.65, -27.6)" gradientUnits="userSpaceOnUse" id="gradient43" r="819.2" spreadMethod="pad">
      <stop offset="0.0" stop-color="#0c0b09"/>
      <stop offset="1.0" stop-color="#0c0b09"/>
    </radialGradient>
    <radialGradient cx="0" cy="0" gradientTransform="matrix(0.0074, 0.0, 0.0, 0.0074, 8.9, -24.3)" gradientUnits="userSpaceOnUse" id="gradient44" r="819.2" spreadMethod="pad">
      <stop offset="0.0" stop-color="#645a48"/>
      <stop offset="1.0" stop-color="#3d372c"/>
    </radialGradient>
    <radialGradient cx="0" cy="0" gradientTransform="matrix(0.009, 0.0, 0.0, 0.009, 11.9, -27.75)" gradientUnits="userSpaceOnUse" id="gradient45" r="819.2" spreadMethod="pad">
      <stop offset="0.0" stop-color="#d59a58"/>
      <stop offset="1.0" stop-color="#8a6439"/>
    </radialGradient>
    <radialGradient cx="0" cy="0" gradientTransform="matrix(0.0072, 0.0, 0.0, 0.0072, 7.8, -27.25)" gradientUnits="userSpaceOnUse" id="gradient46" r="819.2" spreadMethod="pad">
      <stop offset="0.0" stop-color="#ffce76"/>
      <stop offset="1.0" stop-color="#936a3d"/>
    </radialGradient>
    <radialGradient cx="0" cy="0" gradientTransform="matrix(0.0036, 0.0, 0.0, 0.0036, 5.8, -24.2)" gradientUnits="userSpaceOnUse" id="gradient47" r="819.2" spreadMethod="pad">
      <stop offset="0.0" stop-color="#ffc16f"/>
      <stop offset="1.0" stop-color="#936a3d"/>
    </radialGradient>
    <radialGradient cx="0" cy="0" gradientTransform="matrix(0.0043, 0.0, 0.0, 0.0043, -6.35, -25.2)" gradientUnits="userSpaceOnUse" id="gradient48" r="819.2" spreadMethod="pad">
      <stop offset="0.0" stop-color="#1f1e19"/>
      <stop offset="1.0" stop-color="#1f1e19"/>
    </radialGradient>
    <radialGradient cx="0" cy="0" gradientTransform="matrix(0.0116, 0.0, 0.0, 0.0116, -2.65, -19.8)" gradientUnits="userSpaceOnUse" id="gradient49" r="819.2" spreadMethod="pad">
      <stop offset="0.0" stop-color="#d8ccaa"/>
      <stop offset="1.0" stop-color="#877f6a"/>
    </radialGradient>
    <radialGradient cx="0" cy="0" gradientTransform="matrix(0.0019, 0.0, 0.0, 0.0019, -8.4, -19.4)" gradientUnits="userSpaceOnUse" id="gradient50" r="819.2" spreadMethod="pad">
      <stop offset="0.0" stop-color="#353f65"/>
      <stop offset="1.0" stop-color="#313b5e"/>
    </radialGradient>
    <radialGradient cx="0" cy="0" gradientTransform="matrix(0.0029, 0.0, 0.0, 0.0029, 5.7, -21.6)" gradientUnits="userSpaceOnUse" id="gradient51" r="819.2" spreadMethod="pad">
      <stop offset="0.0" stop-color="#261c10"/>
      <stop offset="1.0" stop-color="#261c10"/>
    </radialGradient>
    <radialGradient cx="0" cy="0" gradientTransform="matrix(0.004, 0.0, 0.0, 0.004, 6.7, -22.7)" gradientUnits="userSpaceOnUse" id="gradient52" r="819.2" spreadMethod="pad">
      <stop offset="0.0" stop-color="#ffc06e"/>
      <stop offset="1.0" stop-color="#a67845"/>
    </radialGradient>
    <radialGradient cx="0" cy="0" gradientTransform="matrix(0.0081, 0.0, 0.0, 0.0081, 10.2, -21.15)" gradientUnits="userSpaceOnUse" id="gradient53" r="819.2" spreadMethod="pad">
      <stop offset="0.0" stop-color="#ffe684"/>
      <stop offset="1.0" stop-color="#876137"/>
    </radialGradient>
    <radialGradient cx="0" cy="0" gradientTransform="matrix(0.0043, 0.0, 0.0, 0.0043, 10.7, -15.15)" gradientUnits="userSpaceOnUse" id="gradient54" r="819.2" spreadMethod="pad">
      <stop offset="0.0" stop-color="#fff18a"/>
      <stop offset="1.0" stop-color="#976d3e"/>
    </radialGradient>
    <radialGradient cx="0" cy="0" gradientTransform="matrix(0.0092, 0.0, 0.0, 0.0092, 4.55, -8.4)" gradientUnits="userSpaceOnUse" id="gradient55" r="819.2" spreadMethod="pad">
      <stop offset="0.0" stop-color="#716652"/>
      <stop offset="1.0" stop-color="#2f2a22"/>
    </radialGradient>
    <radialGradient cx="0" cy="0" gradientTransform="matrix(0.0086, 0.0, 0.0, 0.0086, 4.25, -7.25)" gradientUnits="userSpaceOnUse" id="gradient56" r="819.2" spreadMethod="pad">
      <stop offset="0.0" stop-color="#726752"/>
      <stop offset="1.0" stop-color="#3c362b"/>
    </radialGradient>
    <radialGradient cx="0" cy="0" gradientTransform="matrix(0.0018, 0.0, 0.0, 0.0018, -6.85, -16.2)" gradientUnits="userSpaceOnUse" id="gradient57" r="819.2" spreadMethod="pad">
      <stop offset="0.0" stop-color="#645a49"/>
      <stop offset="1.0" stop-color="#302b22"/>
    </radialGradient>
    <radialGradient cx="0" cy="0" gradientTransform="matrix(0.0029, 0.0, 0.0, 0.0029, -5.85, -13.9)" gradientUnits="userSpaceOnUse" id="gradient58" r="819.2" spreadMethod="pad">
      <stop offset="0.0" stop-color="#6c614e"/>
      <stop offset="1.0" stop-color="#3e382d"/>
    </radialGradient>
    <radialGradient cx="0" cy="0" gradientTransform="matrix(0.0103, 0.0, 0.0, 0.0103, -2.65, -12.25)" gradientUnits="userSpaceOnUse" id="gradient59" r="819.2" spreadMethod="pad">
      <stop offset="0.0" stop-color="#eaddb7"/>
      <stop offset="1.0" stop-color="#918871"/>
    </radialGradient>
    <radialGradient cx="0" cy="0" gradientTransform="matrix(0.0089, 0.0, 0.0, 0.0089, -6.85, -14.55)" gradientUnits="userSpaceOnUse" id="gradient60" r="819.2" spreadMethod="pad">
      <stop offset="0.0" stop-color="#1f1e19"/>
      <stop offset="1.0" stop-color="#1f1e19"/>
    </radialGradient>
    <radialGradient cx="0" cy="0" gradientTransform="matrix(0.004, 0.0, 0.0, 0.004, -5.95, -7.25)" gradientUnits="userSpaceOnUse" id="gradient61" r="819.2" spreadMethod="pad">
      <stop offset="0.0" stop-color="#746954"/>
      <stop offset="1.0" stop-color="#423b2f"/>
    </radialGradient>
    <radialGradient cx="0" cy="0" gradientTransform="matrix(0.0087, 0.0, 0.0, 0.0087, 1.65, -12.05)" gradientUnits="userSpaceOnUse" id="gradient62" r="819.2" spreadMethod="pad">
      <stop offset="0.0" stop-color="#b6ac8f"/>
      <stop offset="1.0" stop-color="#847c67"/>
    </radialGradient>
    <radialGradient cx="0" cy="0" gradientTransform="matrix(0.0031, 0.0, 0.0, 0.0031, -1.3, -12.2)" gradientUnits="userSpaceOnUse" id="gradient63" r="819.2" spreadMethod="pad">
      <stop offset="0.0" stop-color="#6f6451"/>
      <stop offset="1.0" stop-color="#322d24"/>
    </radialGradient>
    <radialGradient cx="0" cy="0" gradientTransform="matrix(0.0035, 0.0, 0.0, 0.0035, -1.4, -10.8)" gradientUnits="userSpaceOnUse" id="gradient64" r="819.2" spreadMethod="pad">
      <stop offset="0.0" stop-color="#726753"/>
      <stop offset="1.0" stop-color="#3c372c"/>
    </radialGradient>
    <radialGradient cx="0" cy="0" gradientTransform="matrix(0.0052, 0.0, 0.0, 0.0052, -7.8, -17.95)" gradientUnits="userSpaceOnUse" id="gradient65" r="819.2" spreadMethod="pad">
      <stop offset="0.0" stop-color="#1f1e19"/>
      <stop offset="1.0" stop-color="#1f1e19"/>
    </radialGradient>
    <radialGradient cx="0" cy="0" gradientTransform="matrix(0.002, 0.0, 0.0, 0.002, -1.25, -11.45)" gradientUnits="userSpaceOnUse" id="gradient66" r="819.2" spreadMethod="pad">
      <stop offset="0.0" stop-color="#6b614e"/>
      <stop offset="1.0" stop-color="#322e25"/>
    </radialGradient>
    <radialGradient cx="0" cy="0" gradientTransform="matrix(0.0037, 0.0, 0.0, 0.0037, -0.2, -8.15)" gradientUnits="userSpaceOnUse" id="gradient67" r="819.2" spreadMethod="pad">
      <stop offset="0.0" stop-color="#726753"/>
      <stop offset="1.0" stop-color="#413b2f"/>
    </radialGradient>
    <radialGradient cx="0" cy="0" gradientTransform="matrix(0.0105, 0.0, 0.0, 0.0105, 4.05, -7.6)" gradientUnits="userSpaceOnUse" id="gradient68" r="819.2" spreadMethod="pad">
      <stop offset="0.0" stop-color="#e9dcb7"/>
      <stop offset="1.0" stop-color="#88806a"/>
    </radialGradient>
    <radialGradient cx="0" cy="0" gradientTransform="matrix(0.004, 0.0, 0.0, 0.004, 2.4, -10.15)" gradientUnits="userSpaceOnUse" id="gradient69" r="819.2" spreadMethod="pad">
      <stop offset="0.0" stop-color="#38436a"/>
      <stop offset="1.0" stop-color="#282e4b"/>
    </radialGradient>
    <radialGradient cx="0" cy="0" gradientTransform="matrix(0.0034, 0.0, 0.0, 0.0034, -1.1, -4.55)" gradientUnits="userSpaceOnUse" id="gradient70" r="819.2" spreadMethod="pad">
      <stop offset="0.0" stop-color="#756955"/>
      <stop offset="1.0" stop-color="#373228"/>
    </radialGradient>
    <radialGradient cx="0" cy="0" gradientTransform="matrix(0.0087, 0.0, 0.0, 0.0087, 4.35, -0.05)" gradientUnits="userSpaceOnUse" id="gradient71" r="819.2" spreadMethod="pad">
      <stop offset="0.0" stop-color="#746954"/>
      <stop offset="1.0" stop-color="#3b352b"/>
    </radialGradient>
    <radialGradient cx="0" cy="0" gradientTransform="matrix(0.0027, 0.0, 0.0, 0.0027, 0.7, -2.9)" gradientUnits="userSpaceOnUse" id="gradient72" r="819.2" spreadMethod="pad">
      <stop offset="0.0" stop-color="#3b352b"/>
      <stop offset="1.0" stop-color="#2f2b22"/>
    </radialGradient>
    <radialGradient cx="0" cy="0" gradientTransform="matrix(0.0044, 0.0, 0.0, 0.0044, -2.65, -2.45)" gradientUnits="userSpaceOnUse" id="gradient73" r="819.2" spreadMethod="pad">
      <stop offset="0.0" stop-color="#fff78e"/>
      <stop offset="1.0" stop-color="#7f5c34"/>
    </radialGradient>
    <radialGradient cx="0" cy="0" gradientTransform="matrix(0.0035, 0.0, 0.0, 0.0035, -0.65, -2.65)" gradientUnits="userSpaceOnUse" id="gradient74" r="819.2" spreadMethod="pad">
      <stop offset="0.0" stop-color="#746954"/>
      <stop offset="1.0" stop-color="#3d372d"/>
    </radialGradient>
    <radialGradient cx="0" cy="0" gradientTransform="matrix(0.0027, 0.0, 0.0, 0.0027, -2.15, -2.75)" gradientUnits="userSpaceOnUse" id="gradient75" r="819.2" spreadMethod="pad">
      <stop offset="0.0" stop-color="#534b3c"/>
      <stop offset="1.0" stop-color="#393429"/>
    </radialGradient>
    <radialGradient cx="0" cy="0" gradientTransform="matrix(0.0015, 0.0, 0.0, 0.0015, -3.65, -3.95)" gradientUnits="userSpaceOnUse" id="gradient76" r="819.2" spreadMethod="pad">
      <stop offset="0.0" stop-color="#6b614e"/>
      <stop offset="1.0" stop-color="#695f4c"/>
    </radialGradient>
    <radialGradient cx="0" cy="0" gradientTransform="matrix(0.0077, 0.0, 0.0, 0.0077, 3.6, 1.7)" gradientUnits="userSpaceOnUse" id="gradient77" r="819.2" spreadMethod="pad">
      <stop offset="0.0" stop-color="#fff48c"/>
      <stop offset="1.0" stop-color="#dca15c"/>
    </radialGradient>
    <radialGradient cx="0" cy="0" gradientTransform="matrix(0.0047, 0.0, 0.0, 0.0047, 7.7, 0.25)" gradientUnits="userSpaceOnUse" id="gradient78" r="819.2" spreadMethod="pad">
      <stop offset="0.0" stop-color="#685e4b"/>
      <stop offset="1.0" stop-color="#2d2921"/>
    </radialGradient>
    <radialGradient cx="0" cy="0" gradientTransform="matrix(0.004, 0.0, 0.0, 0.004, 2.5, 2.4)" gradientUnits="userSpaceOnUse" id="gradient79" r="819.2" spreadMethod="pad">
      <stop offset="0.0" stop-color="#50483a"/>
      <stop offset="1.0" stop-color="#342f26"/>
    </radialGradient>
    <radialGradient cx="0" cy="0" gradientTransform="matrix(0.002, 0.0, 0.0, 0.002, 2.1, 0.85)" gradientUnits="userSpaceOnUse" id="gradient80" r="819.2" spreadMethod="pad">
      <stop offset="0.0" stop-color="#6f6450"/>
      <stop offset="1.0" stop-color="#6e6350"/>
    </radialGradient>
  </defs>
</svg>
