<?xml version="1.0" encoding="UTF-8" standalone="no"?>
<svg xmlns:ffdec="https://www.free-decompiler.com/flash" xmlns:xlink="http://www.w3.org/1999/xlink" ffdec:objectType="shape" height="33.0px" width="33.0px" xmlns="http://www.w3.org/2000/svg">
  <g transform="matrix(1.0, 0.0, 0.0, 1.0, 16.5, 16.5)">
    <path d="M10.6 -10.6 Q15.0 -6.2 15.0 0.0 15.0 6.2 10.6 10.6 6.2 15.0 0.0 15.0 -6.2 15.0 -10.6 10.6 -15.0 6.2 -15.0 0.0 -15.0 -6.2 -10.6 -10.6 -6.2 -15.0 0.0 -15.0 6.2 -15.0 10.6 -10.6 Z" fill="none" stroke="#000000" stroke-linecap="round" stroke-linejoin="round" stroke-opacity="0.7529412" stroke-width="3.0"/>
    <path d="M10.6 -10.6 Q15.0 -6.2 15.0 0.0 15.0 6.2 10.6 10.6 6.2 15.0 0.0 15.0 -6.2 15.0 -10.6 10.6 -15.0 6.2 -15.0 0.0 -15.0 -6.2 -10.6 -10.6 -6.2 -15.0 0.0 -15.0 6.2 -15.0 10.6 -10.6" fill="url(#gradient0)" fill-rule="evenodd" stroke="none"/>
    <path d="M10.6 -10.6 Q15.0 -6.2 15.0 0.0 15.0 6.2 10.6 10.6 6.2 15.0 0.0 15.0 -6.2 15.0 -10.6 10.6 -15.0 6.2 -15.0 0.0 -15.0 -6.2 -10.6 -10.6 -6.2 -15.0 0.0 -15.0 6.2 -15.0 10.6 -10.6 Z" fill="none" stroke="#ff9900" stroke-linecap="round" stroke-linejoin="round" stroke-opacity="0.7529412" stroke-width="1.0"/>
  </g>
  <defs>
    <radialGradient cx="0" cy="0" gradientTransform="matrix(0.0184, 0.0, 0.0, 0.0184, 0.0, 0.0)" gradientUnits="userSpaceOnUse" id="gradient0" r="819.2" spreadMethod="pad">
      <stop offset="0.0" stop-color="#ffcc00"/>
      <stop offset="0.2549019607843137" stop-color="#ff9900"/>
      <stop offset="1.0" stop-color="#000000" stop-opacity="0.5019608"/>
    </radialGradient>
  </defs>
</svg>
