<?xml version="1.0" encoding="UTF-8" standalone="no"?>
<svg xmlns:ffdec="https://www.free-decompiler.com/flash" xmlns:xlink="http://www.w3.org/1999/xlink" ffdec:objectType="shape" height="19.0px" width="31.0px" xmlns="http://www.w3.org/2000/svg">
  <g transform="matrix(1.0, 0.0, 0.0, 1.0, 15.5, 11.5)">
    <path d="M2.85 5.8 Q1.65 7.0 0.0 7.0 -1.65 7.0 -2.8 5.8 -4.0 4.6 -4.0 2.95 -4.0 1.3 -2.8 0.15 -1.65 -1.05 0.0 -1.0 1.65 -1.05 2.85 0.15 4.0 1.3 4.0 2.95 4.0 4.6 2.85 5.8 M-14.55 4.6 L0.0 -11.0 14.5 4.6 Q0.0 -10.35 -14.55 4.6" fill="url(#gradient0)" fill-rule="evenodd" stroke="none"/>
    <path d="M14.5 4.6 L15.0 5.1 M2.85 5.8 Q1.65 7.0 0.0 7.0 -1.65 7.0 -2.8 5.8 -4.0 4.6 -4.0 2.95 -4.0 1.3 -2.8 0.15 -1.65 -1.05 0.0 -1.0 1.65 -1.05 2.85 0.15 4.0 1.3 4.0 2.95 4.0 4.6 2.85 5.8 M-15.0 5.1 L-14.55 4.6 0.0 -11.0 14.5 4.6 Q0.0 -10.35 -14.55 4.6" fill="none" stroke="#ff9900" stroke-linecap="round" stroke-linejoin="round" stroke-opacity="0.7529412" stroke-width="1.0"/>
  </g>
  <defs>
    <radialGradient cx="0" cy="0" gradientTransform="matrix(0.0166, 0.0, 0.0, 0.0167, -2.25, -1.45)" gradientUnits="userSpaceOnUse" id="gradient0" r="819.2" spreadMethod="pad">
      <stop offset="0.396078431372549" stop-color="#ffffff"/>
      <stop offset="1.0" stop-color="#ffcc00"/>
    </radialGradient>
  </defs>
</svg>
