<?xml version="1.0" encoding="UTF-8" standalone="no"?>
<svg xmlns:ffdec="https://www.free-decompiler.com/flash" xmlns:xlink="http://www.w3.org/1999/xlink" ffdec:objectType="shape" height="14.3px" width="113.0px" xmlns="http://www.w3.org/2000/svg">
  <g transform="matrix(1.0, 0.0, 0.0, 1.0, 57.35, 6.7)">
    <path d="M13.7 -6.0 L11.3 7.1 10.4 7.1 5.65 -1.25 4.25 6.9 1.95 6.9 4.3 -6.0 5.4 -6.0 10.05 2.0 11.45 -6.0 13.7 -6.0 M40.35 -6.0 L41.55 1.8 45.3 -6.0 47.8 -6.0 41.25 7.1 40.3 7.1 38.9 -0.8 34.75 7.1 33.8 7.1 32.0 -6.0 34.3 -6.0 35.3 1.85 39.35 -6.0 40.35 -6.0 M27.85 -1.45 Q27.85 2.35 25.95 4.75 24.0 7.1 20.7 7.1 18.65 7.1 17.45 5.75 16.25 4.35 16.25 2.1 16.25 -1.35 18.15 -3.75 20.05 -6.2 23.05 -6.2 25.35 -6.2 26.6 -4.95 27.85 -3.75 27.85 -1.45 M22.85 -4.2 Q21.05 -4.2 19.85 -2.3 18.65 -0.35 18.65 1.85 18.65 3.35 19.25 4.25 19.8 5.1 20.95 5.1 23.05 5.1 24.25 3.25 25.5 1.35 25.5 -1.25 25.5 -4.2 22.85 -4.2 M53.7 -0.25 L52.6 3.15 51.45 3.15 51.5 0.7 51.65 -1.05 51.85 -2.5 52.5 -6.2 55.15 -6.2 54.65 -3.3 53.7 -0.25 M51.6 7.1 Q51.0 7.1 50.55 6.65 50.15 6.25 50.15 5.65 50.15 5.05 50.55 4.65 51.0 4.25 51.6 4.25 52.2 4.25 52.65 4.65 53.05 5.05 53.05 5.65 53.05 6.25 52.65 6.65 52.2 7.1 51.6 7.1 M-46.55 -2.3 Q-46.55 -0.15 -48.1 1.1 -49.65 2.3 -52.1 2.3 L-53.65 2.15 -54.55 6.9 -56.85 6.9 -54.45 -5.95 -51.65 -6.15 Q-46.55 -6.15 -46.55 -2.3 M-52.55 -4.0 L-53.3 0.2 -52.15 0.35 Q-50.65 0.35 -49.8 -0.3 -48.9 -0.95 -48.9 -2.15 -48.9 -4.15 -51.2 -4.15 L-52.55 -4.0 M-7.15 -6.0 L-12.8 1.2 -13.85 6.9 -16.1 6.9 -15.05 1.15 -18.1 -6.0 -15.7 -6.0 -13.6 -0.95 -9.75 -6.0 -7.15 -6.0 M-25.5 -6.15 L-22.85 6.9 -25.25 6.9 -25.65 4.3 -30.25 4.3 -31.75 6.9 -34.15 6.9 -26.3 -6.15 -25.5 -6.15 M-39.7 -6.0 L-41.7 4.9 -35.85 4.9 -36.25 6.9 -44.35 6.9 -42.0 -6.0 -39.7 -6.0 M-25.9 2.55 L-26.6 -2.25 -29.25 2.55 -25.9 2.55" fill="#ffffff" fill-rule="evenodd" stroke="none"/>
    <path d="M13.7 -6.0 L11.3 7.1 10.4 7.1 5.65 -1.25 4.25 6.9 1.95 6.9 4.3 -6.0 5.4 -6.0 10.05 2.0 11.45 -6.0 13.7 -6.0 M40.35 -6.0 L41.55 1.8 45.3 -6.0 47.8 -6.0 41.25 7.1 40.3 7.1 38.9 -0.8 34.75 7.1 33.8 7.1 32.0 -6.0 34.3 -6.0 35.3 1.85 39.35 -6.0 40.35 -6.0 M27.85 -1.45 Q27.85 2.35 25.95 4.75 24.0 7.1 20.7 7.1 18.65 7.1 17.45 5.75 16.25 4.35 16.25 2.1 16.25 -1.35 18.15 -3.75 20.05 -6.2 23.05 -6.2 25.35 -6.2 26.6 -4.95 27.85 -3.75 27.85 -1.45 M22.85 -4.2 Q21.05 -4.2 19.85 -2.3 18.65 -0.35 18.65 1.85 18.65 3.35 19.25 4.25 19.8 5.1 20.95 5.1 23.05 5.1 24.25 3.25 25.5 1.35 25.5 -1.25 25.5 -4.2 22.85 -4.2 M53.7 -0.25 L52.6 3.15 51.45 3.15 51.5 0.7 51.65 -1.05 51.85 -2.5 52.5 -6.2 55.15 -6.2 54.65 -3.3 53.7 -0.25 M51.6 7.1 Q51.0 7.1 50.55 6.65 50.15 6.25 50.15 5.65 50.15 5.05 50.55 4.65 51.0 4.25 51.6 4.25 52.2 4.25 52.65 4.65 53.05 5.05 53.05 5.65 53.05 6.25 52.65 6.65 52.2 7.1 51.6 7.1 M-46.55 -2.3 Q-46.55 -0.15 -48.1 1.1 -49.65 2.3 -52.1 2.3 L-53.65 2.15 -54.55 6.9 -56.85 6.9 -54.45 -5.95 -51.65 -6.15 Q-46.55 -6.15 -46.55 -2.3 M-52.55 -4.0 L-53.3 0.2 -52.15 0.35 Q-50.65 0.35 -49.8 -0.3 -48.9 -0.95 -48.9 -2.15 -48.9 -4.15 -51.2 -4.15 L-52.55 -4.0 M-7.15 -6.0 L-12.8 1.2 -13.85 6.9 -16.1 6.9 -15.05 1.15 -18.1 -6.0 -15.7 -6.0 -13.6 -0.95 -9.75 -6.0 -7.15 -6.0 M-25.5 -6.15 L-22.85 6.9 -25.25 6.9 -25.65 4.3 -30.25 4.3 -31.75 6.9 -34.15 6.9 -26.3 -6.15 -25.5 -6.15 M-39.7 -6.0 L-41.7 4.9 -35.85 4.9 -36.25 6.9 -44.35 6.9 -42.0 -6.0 -39.7 -6.0 M-25.9 2.55 L-26.6 -2.25 -29.25 2.55 -25.9 2.55 Z" fill="none" stroke="#ffcc00" stroke-linecap="round" stroke-linejoin="round" stroke-width="1.0"/>
  </g>
</svg>
