<?xml version="1.0" encoding="UTF-8" standalone="no"?>
<svg xmlns:ffdec="https://www.free-decompiler.com/flash" xmlns:xlink="http://www.w3.org/1999/xlink" ffdec:objectType="shape" height="15.1px" width="118.4px" xmlns="http://www.w3.org/2000/svg">
  <g transform="matrix(1.0, 0.0, 0.0, 1.0, 60.05, 6.5)">
    <path d="M14.4 -5.75 L11.9 8.05 10.95 8.05 5.95 -0.75 4.45 7.85 2.05 7.85 4.55 -5.75 5.65 -5.75 10.55 2.7 12.05 -5.75 14.4 -5.75 M20.8 -1.85 Q19.5 0.2 19.5 2.55 19.5 4.1 20.15 5.05 20.75 5.95 21.95 5.95 24.15 5.95 25.45 4.0 26.75 2.0 26.75 -0.75 26.75 -3.9 24.0 -3.9 22.05 -3.9 20.8 -1.85 M29.25 -0.95 Q29.25 3.05 27.2 5.6 25.2 8.1 21.65 8.1 19.5 8.1 18.25 6.65 17.0 5.2 17.0 2.8 17.0 -0.85 19.0 -3.4 21.0 -6.0 24.15 -6.0 26.6 -6.0 27.9 -4.7 29.25 -3.4 29.25 -0.95 M35.95 -5.75 L37.0 2.5 41.3 -5.75 42.35 -5.75 43.6 2.45 47.55 -5.75 50.2 -5.75 43.25 8.05 42.3 8.05 40.8 -0.25 36.4 8.05 35.4 8.05 33.5 -5.75 35.95 -5.75 M57.3 -2.9 L56.35 0.3 55.15 3.9 53.95 3.9 54.0 1.35 54.15 -0.55 54.35 -2.1 55.1 -6.0 57.85 -6.0 57.3 -2.9 M54.1 5.05 Q54.75 5.05 55.2 5.5 55.65 5.9 55.65 6.55 L55.2 7.6 Q54.75 8.05 54.1 8.05 53.45 8.05 53.0 7.6 52.55 7.15 52.55 6.55 52.55 5.9 53.05 5.5 53.5 5.05 54.1 5.05 M-54.95 -3.7 L-55.8 0.8 -54.55 0.95 Q-53.0 0.95 -52.05 0.25 -51.15 -0.45 -51.15 -1.7 -51.15 -3.85 -53.55 -3.85 L-54.95 -3.7 M-48.65 -1.85 Q-48.65 0.4 -50.25 1.7 -51.9 3.0 -54.5 3.0 L-56.15 2.85 -57.1 7.85 -59.55 7.85 -57.0 -5.7 -54.0 -5.95 Q-48.65 -5.95 -48.65 -1.85 M-41.5 -5.75 L-43.6 5.75 -37.45 5.75 -37.85 7.85 -46.45 7.85 -43.95 -5.75 -41.5 -5.75 M-26.6 -5.95 L-23.8 7.85 -26.35 7.85 -26.75 5.1 -31.6 5.1 -33.2 7.85 -35.75 7.85 -27.45 -5.95 -26.6 -5.95 M-7.35 -5.75 L-13.35 1.85 -14.45 7.85 -16.85 7.85 -15.7 1.75 -18.9 -5.75 -16.4 -5.75 -14.2 -0.45 -10.15 -5.75 -7.35 -5.75 M-27.05 3.3 L-27.8 -1.8 -30.6 3.3 -27.05 3.3" fill="#ffffff" fill-rule="evenodd" stroke="none"/>
    <path d="M-48.65 -1.85 Q-48.65 0.4 -50.25 1.7 -51.9 3.0 -54.5 3.0 L-56.15 2.85 -57.1 7.85 -59.55 7.85 -57.0 -5.7 -54.0 -5.95 Q-48.65 -5.95 -48.65 -1.85" fill="none" stroke="#ffcc00" stroke-linecap="round" stroke-linejoin="round" stroke-width="1.0"/>
    <path d="M14.4 -5.75 L11.9 8.05 10.95 8.05 5.95 -0.75 4.45 7.85 2.05 7.85 4.55 -5.75 5.65 -5.75 10.55 2.7 12.05 -5.75 14.4 -5.75 M20.8 -1.85 Q19.5 0.2 19.5 2.55 19.5 4.1 20.15 5.05 20.75 5.95 21.95 5.95 24.15 5.95 25.45 4.0 26.75 2.0 26.75 -0.75 26.75 -3.9 24.0 -3.9 22.05 -3.9 20.8 -1.85 M29.25 -0.95 Q29.25 3.05 27.2 5.6 25.2 8.1 21.65 8.1 19.5 8.1 18.25 6.65 17.0 5.2 17.0 2.8 17.0 -0.85 19.0 -3.4 21.0 -6.0 24.15 -6.0 26.6 -6.0 27.9 -4.7 29.25 -3.4 29.25 -0.95 M35.95 -5.75 L37.0 2.5 41.3 -5.75 42.35 -5.75 43.6 2.45 47.55 -5.75 50.2 -5.75 43.25 8.05 42.3 8.05 40.8 -0.25 36.4 8.05 35.4 8.05 33.5 -5.75 35.95 -5.75 M57.3 -2.9 L56.35 0.3 55.15 3.9 53.95 3.9 54.0 1.35 54.15 -0.55 54.35 -2.1 55.1 -6.0 57.85 -6.0 57.3 -2.9 M54.1 5.05 Q54.75 5.05 55.2 5.5 55.65 5.9 55.65 6.55 L55.2 7.6 Q54.75 8.05 54.1 8.05 53.45 8.05 53.0 7.6 52.55 7.15 52.55 6.55 52.55 5.9 53.05 5.5 53.5 5.05 54.1 5.05 M-54.95 -3.7 L-55.8 0.8 -54.55 0.95 Q-53.0 0.95 -52.05 0.25 -51.15 -0.45 -51.15 -1.7 -51.15 -3.85 -53.55 -3.85 L-54.95 -3.7 M-41.5 -5.75 L-43.6 5.75 -37.45 5.75 -37.85 7.85 -46.45 7.85 -43.95 -5.75 -41.5 -5.75 M-26.6 -5.95 L-23.8 7.85 -26.35 7.85 -26.75 5.1 -31.6 5.1 -33.2 7.85 -35.75 7.85 -27.45 -5.95 -26.6 -5.95 M-7.35 -5.75 L-13.35 1.85 -14.45 7.85 -16.85 7.85 -15.7 1.75 -18.9 -5.75 -16.4 -5.75 -14.2 -0.45 -10.15 -5.75 -7.35 -5.75 M-27.05 3.3 L-27.8 -1.8 -30.6 3.3 -27.05 3.3 Z" fill="none" stroke="#ffcc00" stroke-linecap="round" stroke-linejoin="round" stroke-width="1.0"/>
  </g>
</svg>
