<?xml version="1.0" encoding="UTF-8" standalone="no"?>
<svg xmlns:ffdec="https://www.free-decompiler.com/flash" xmlns:xlink="http://www.w3.org/1999/xlink" ffdec:objectType="shape" height="21.7px" width="44.7px" xmlns="http://www.w3.org/2000/svg">
  <g transform="matrix(1.0, 0.0, 0.0, 1.0, 22.35, -11.1)">
    <path d="M3.1 12.55 L4.95 13.5 Q6.3 14.1 6.8 14.55 7.35 15.05 8.25 15.25 L10.35 16.05 12.4 17.05 14.05 18.0 15.8 19.0 17.55 19.9 19.25 20.75 21.1 21.55 Q21.3 21.45 22.0 22.0 21.3 22.85 20.5 23.0 19.7 23.2 18.6 23.9 L16.65 24.95 14.9 25.8 13.1 26.5 11.25 27.25 9.4 28.3 M-10.3 16.2 L-8.75 15.2 -6.95 14.2 -5.25 13.45 Q-4.2 13.1 -3.35 12.4 -2.5 11.7 -1.5 11.5 L0.35 11.55 2.2 12.15 M8.5 28.7 L6.9 29.55 4.9 30.4 3.0 31.4 1.4 32.15 -0.1 32.4 -2.05 32.2 -4.15 30.95 Q-5.2 30.05 -5.95 29.95 -6.7 29.85 -7.6 29.2 M-8.5 28.8 L-10.7 27.9 Q-11.6 27.55 -12.3 27.0 -13.0 26.45 -14.1 26.05 L-16.05 25.2 -17.5 24.1 Q-18.0 23.4 -19.1 23.0 L-21.1 22.5 M-22.0 22.0 Q-20.75 21.55 -20.05 21.1 L-18.4 20.1 Q-17.4 19.55 -16.6 19.4 -15.8 19.3 -15.0 18.4 -14.15 17.55 -13.15 17.4 -12.1 17.3 -11.2 16.6" fill="none" stroke="#1f1b1b" stroke-linecap="round" stroke-linejoin="round" stroke-width="0.75"/>
  </g>
</svg>
