<?xml version="1.0" encoding="UTF-8" standalone="no"?>
<svg xmlns:ffdec="https://www.free-decompiler.com/flash" xmlns:xlink="http://www.w3.org/1999/xlink" ffdec:objectType="shape" height="22.35px" width="44.0px" xmlns="http://www.w3.org/2000/svg">
  <g transform="matrix(1.0, 0.0, 0.0, 1.0, 22.0, -11.0)">
    <path d="M0.0 33.0 L0.0 11.05 22.0 22.0 0.0 33.0" fill="url(#gradient0)" fill-rule="evenodd" stroke="none"/>
    <path d="M0.0 11.05 L0.0 33.0 -22.0 22.0 0.0 11.0 0.0 11.05" fill="url(#gradient1)" fill-rule="evenodd" stroke="none"/>
    <path d="M17.9 20.0 L20.05 20.85 21.0 21.5 20.45 22.45 Q19.85 23.25 18.9 23.55 L17.1 24.45 15.3 25.35 Q14.4 25.7 13.5 26.2 L11.7 27.1 M6.2 14.15 L8.05 15.15 Q8.9 15.7 9.85 15.95 10.8 16.2 11.55 16.75 12.3 17.35 13.35 17.65 14.45 17.95 15.05 18.4 L17.0 19.55 M-9.0 15.5 L-7.35 14.8 -5.55 13.8 -3.5 12.55 Q-2.7 12.1 -1.8 12.0 L-0.2 11.65 1.5 11.85 3.45 13.05 Q4.4 13.75 5.3 13.75 M10.8 27.6 L9.0 28.3 7.15 29.4 Q6.2 30.05 5.15 30.4 L3.5 31.2 2.35 31.9 0.0 33.0 -1.85 31.95 Q-2.7 31.35 -3.6 31.0 L-5.45 30.15 Q-6.4 29.65 -7.35 29.3 L-9.0 28.5 M-9.9 28.1 L-11.5 27.35 Q-12.45 26.8 -13.5 26.55 -14.5 26.3 -15.35 25.5 -16.2 24.7 -17.1 24.35 L-18.9 23.6 -20.6 22.6 -21.6 21.8 M-20.7 21.4 Q-19.85 20.95 -18.8 20.65 L-16.95 19.9 -15.3 18.8 -13.5 17.7 -11.75 16.85 -9.9 16.0" fill="none" stroke="#1f1b1b" stroke-linecap="round" stroke-linejoin="round" stroke-width="0.75"/>
  </g>
  <defs>
    <linearGradient gradientTransform="matrix(-0.0109, 0.0204, -0.0132, -0.007, -1.05, 31.25)" gradientUnits="userSpaceOnUse" id="gradient0" spreadMethod="pad" x1="-819.2" x2="819.2">
      <stop offset="0.0" stop-color="#2a2320"/>
      <stop offset="1.0" stop-color="#000000"/>
    </linearGradient>
    <linearGradient gradientTransform="matrix(0.0106, 0.0217, -0.0135, 0.0066, -2.7, 34.95)" gradientUnits="userSpaceOnUse" id="gradient1" spreadMethod="pad" x1="-819.2" x2="819.2">
      <stop offset="0.0" stop-color="#2a2320"/>
      <stop offset="1.0" stop-color="#000000"/>
    </linearGradient>
  </defs>
</svg>
