<?xml version="1.0" encoding="UTF-8" standalone="no"?>
<svg xmlns:ffdec="https://www.free-decompiler.com/flash" xmlns:xlink="http://www.w3.org/1999/xlink" ffdec:objectType="shape" height="86.6px" width="33.4px" xmlns="http://www.w3.org/2000/svg">
  <g transform="matrix(1.0, 0.0, 0.0, 1.0, 28.35, 80.8)">
    <path d="M-27.6 -76.15 Q-27.5 -81.05 -24.45 -80.8 -21.45 -79.35 -22.6 -75.7 L-22.9 -75.2 -24.15 -74.2 Q-26.75 -73.85 -27.6 -76.15" fill="url(#gradient0)" fill-rule="evenodd" stroke="none"/>
    <path d="M-24.45 -73.2 Q-30.1 -72.15 -27.6 -76.15 -26.75 -73.85 -24.15 -74.2 L-24.25 -73.35 -24.45 -73.2" fill="url(#gradient1)" fill-rule="evenodd" stroke="none"/>
    <path d="M-17.95 -66.1 L-19.15 -66.6 -20.3 -67.6 Q-21.25 -69.7 -22.1 -70.65 L-24.45 -73.2 -24.25 -73.35 -24.15 -74.2 -22.9 -75.2 -22.6 -75.7 Q-16.15 -73.9 -14.25 -68.45 L-14.45 -67.6 Q-18.65 -67.4 -17.95 -66.1" fill="url(#gradient2)" fill-rule="evenodd" stroke="none"/>
    <path d="M-14.25 -68.45 L-13.6 -67.9 -13.2 -67.3 -13.95 -67.35 -14.45 -67.6 -14.25 -68.45" fill="url(#gradient3)" fill-rule="evenodd" stroke="none"/>
    <path d="M-13.35 -58.3 L-14.6 -59.45 -14.0 -59.9 -12.6 -59.8 -12.95 -59.2 -13.35 -58.3 M-15.1 -60.05 Q-17.55 -62.65 -17.95 -66.1 -18.65 -67.4 -14.45 -67.6 L-13.95 -67.35 -13.7 -66.1 -12.65 -64.25 -13.4 -63.3 -14.45 -61.2 -14.75 -60.9 -14.6 -60.5 -15.1 -60.05 M-11.6 -61.2 L-11.0 -61.6 -11.0 -61.35 -11.45 -61.15 -11.6 -61.2" fill="url(#gradient4)" fill-rule="evenodd" stroke="none"/>
    <path d="M-9.0 -63.65 L-8.3 -62.3 -8.85 -62.15 -9.05 -62.75 -9.45 -63.1 -9.0 -63.65 M-13.2 -67.3 Q-12.45 -67.2 -11.6 -66.6 L-10.8 -65.9 -12.65 -64.25 -13.7 -66.1 -13.95 -67.35 -13.2 -67.3" fill="url(#gradient5)" fill-rule="evenodd" stroke="none"/>
    <path d="M-10.8 -65.9 L-10.1 -65.95 -9.85 -65.75 -9.0 -65.05 Q-10.5 -64.95 -11.0 -61.6 L-11.6 -61.2 -12.4 -61.5 -14.2 -60.9 -14.6 -60.5 -14.75 -60.9 -14.45 -61.2 -13.4 -63.3 -12.65 -64.25 -10.8 -65.9 M-8.75 -64.75 L-8.65 -64.25 -9.0 -63.65 -9.45 -63.1 -9.8 -63.3 -9.45 -64.1 -8.75 -64.75" fill="url(#gradient6)" fill-rule="evenodd" stroke="none"/>
    <path d="M-9.0 -65.05 L-8.35 -65.3 -7.45 -65.25 -8.35 -65.0 -8.75 -64.75 -9.45 -64.1 -9.8 -63.3 -9.9 -61.8 -10.15 -61.5 -11.0 -61.15 -11.0 -61.35 -11.0 -61.6 Q-10.5 -64.95 -9.0 -65.05" fill="url(#gradient7)" fill-rule="evenodd" stroke="none"/>
    <path d="M-9.8 -63.3 L-9.45 -63.1 -9.05 -62.75 -8.85 -62.15 -9.9 -61.8 -9.8 -63.3" fill="url(#gradient8)" fill-rule="evenodd" stroke="none"/>
    <path d="M-8.3 -62.3 L-6.15 -62.25 -3.5 -60.95 -1.75 -57.1 -2.35 -54.1 -2.65 -53.75 -3.3 -53.05 -3.55 -52.8 -3.65 -52.7 -3.95 -52.6 Q-4.75 -51.9 -5.85 -51.9 -8.2 -51.9 -11.85 -55.1 L-11.95 -55.2 -12.55 -58.5 -12.5 -59.05 -12.15 -59.6 -11.35 -60.9 -11.2 -61.0 -11.0 -61.15 -10.15 -61.5 -9.9 -61.8 -8.85 -62.15 -8.3 -62.3" fill="url(#gradient9)" fill-rule="evenodd" stroke="none"/>
    <path d="M-2.35 -54.1 L-1.75 -53.45 -1.25 -52.2 -1.3 -52.2 -1.35 -52.3 -1.7 -52.85 -2.65 -53.75 -2.35 -54.1 M-12.7 -50.25 L-12.65 -51.6 -12.25 -52.8 -10.95 -51.75 -11.6 -50.95 -12.45 -49.45 -12.7 -50.25 M-1.55 -52.1 L-1.55 -51.95 -2.3 -52.5 -1.6 -52.2 -1.55 -52.1" fill="url(#gradient10)" fill-rule="evenodd" stroke="none"/>
    <path d="M4.55 -33.9 Q4.95 -32.45 4.8 -31.55 L4.0 -26.55 4.15 -24.0 Q4.0 -19.8 4.3 -18.95 L4.15 -17.75 Q4.4 -15.65 0.2 -12.25 L-0.1 -12.05 -2.45 -11.15 -3.2 -11.1 -4.9 -11.05 -7.0 -11.95 -7.25 -12.25 -8.75 -14.15 -8.9 -14.55 -8.6 -14.9 Q-7.7 -18.4 -7.1 -19.1 L-6.6 -20.2 -6.8 -25.25 -7.0 -27.2 -7.6 -28.2 -8.4 -29.55 -10.0 -31.1 -11.25 -32.8 -11.4 -33.25 -11.6 -33.95 -11.95 -35.05 -12.3 -37.15 -12.3 -37.5 -12.4 -37.6 -12.55 -39.05 -12.95 -40.25 -13.35 -41.85 -13.55 -43.25 -13.4 -44.25 -13.35 -44.25 Q-12.55 -42.15 -9.95 -44.95 L-10.15 -44.25 -10.15 -43.5 Q-11.0 -42.0 -10.0 -41.7 L-9.65 -42.0 -9.05 -41.9 -8.6 -42.05 -7.3 -39.85 -6.7 -39.85 -5.4 -37.95 -4.0 -38.1 -2.95 -35.55 -2.25 -35.05 Q-0.3 -30.15 4.55 -33.9 M-13.55 -45.45 L-13.7 -46.7 Q-13.5 -48.8 -12.95 -49.6 L-13.05 -49.0 -13.05 -48.75 -12.65 -48.95 -13.1 -47.75 -13.45 -45.45 -13.55 -45.45 M-3.3 -53.05 L-2.65 -53.75 -1.7 -52.85 -1.35 -52.3 -2.45 -52.6 -3.3 -53.05 M-0.35 -48.35 L-0.2 -48.15 -6.0 -48.0 -3.95 -49.4 -2.65 -49.7 -1.3 -49.0 -0.35 -48.35 M-6.4 -48.95 L-9.85 -46.5 Q-11.85 -44.5 -12.25 -44.45 L-12.5 -45.0 Q-12.35 -44.7 -12.25 -47.4 L-11.75 -49.0 -10.95 -50.35 -10.2 -51.25 -9.9 -51.15 -9.8 -50.05 -9.85 -49.0 -9.3 -47.5 -8.35 -48.25 -8.0 -48.5 Q-7.45 -48.4 -6.4 -48.95" fill="url(#gradient11)" fill-rule="evenodd" stroke="none"/>
    <path d="M-0.95 -51.35 L0.05 -49.85 -2.2 -52.0 -3.55 -52.8 -3.3 -53.05 -2.45 -52.6 -2.3 -52.5 -1.55 -51.95 -1.15 -51.55 -0.95 -51.35" fill="url(#gradient12)" fill-rule="evenodd" stroke="none"/>
    <path d="M0.05 -49.85 L1.1 -48.3 1.7 -46.6 1.45 -46.7 0.95 -47.35 0.2 -48.0 -0.45 -49.0 Q-3.2 -52.4 -4.95 -51.4 L-3.65 -52.7 -3.55 -52.8 -2.2 -52.0 0.05 -49.85 M-4.85 -50.65 L-3.15 -50.2 -1.05 -49.0 -0.35 -48.35 -1.3 -49.0 -2.65 -49.7 -3.35 -50.1 -4.35 -50.45 -4.85 -50.65" fill="url(#gradient13)" fill-rule="evenodd" stroke="none"/>
    <path d="M-12.25 -52.8 Q-14.65 -55.15 -13.35 -58.3 L-12.95 -59.2 Q-13.2 -56.55 -11.95 -55.2 L-11.85 -55.1 Q-8.9 -51.5 -5.85 -51.9 -4.75 -51.9 -3.95 -52.6 L-3.65 -52.7 -4.95 -51.4 -5.05 -51.35 -6.2 -50.8 -7.65 -50.6 -8.6 -50.7 -9.9 -51.15 -10.2 -51.25 -10.95 -51.75 -12.25 -52.8" fill="url(#gradient14)" fill-rule="evenodd" stroke="none"/>
    <path d="M-11.0 -61.15 L-11.2 -61.0 -11.45 -61.15 -11.0 -61.35 -11.0 -61.15 M-12.15 -59.6 L-12.5 -59.05 -12.55 -58.5 -11.95 -55.2 Q-13.2 -56.55 -12.95 -59.2 L-12.6 -59.8 -12.15 -59.6 M-11.85 -55.1 Q-8.2 -51.9 -5.85 -51.9 -8.9 -51.5 -11.85 -55.1" fill="url(#gradient15)" fill-rule="evenodd" stroke="none"/>
    <path d="M-14.6 -59.45 Q-19.45 -50.65 -15.1 -60.05 L-14.6 -60.5 -14.2 -60.9 -12.4 -61.5 -11.6 -61.2 -11.45 -61.15 -11.2 -61.0 -11.35 -60.9 -12.15 -59.6 -12.6 -59.8 -14.0 -59.9 -14.6 -59.45" fill="url(#gradient16)" fill-rule="evenodd" stroke="none"/>
    <path d="M-12.95 -49.65 L-12.7 -50.25 -12.45 -49.45 -12.65 -49.0 -12.65 -48.95 -13.05 -48.75 -13.05 -49.0 -12.95 -49.6 -12.95 -49.65" fill="url(#gradient17)" fill-rule="evenodd" stroke="none"/>
    <path d="M-12.95 -49.6 L-12.95 -49.65 -12.95 -49.6" fill="url(#gradient18)" fill-rule="evenodd" stroke="none"/>
    <path d="M-13.55 -45.15 L-13.55 -45.45 -13.45 -45.45 -13.45 -45.1 -13.55 -45.1 -13.55 -45.15 M-13.4 -44.35 L-13.35 -44.25 -13.4 -44.25 -13.4 -44.35" fill="url(#gradient19)" fill-rule="evenodd" stroke="none"/>
    <path d="M-3.35 -50.1 L-3.95 -49.4 -6.0 -48.0 Q-9.65 -46.7 -9.95 -44.95 -12.55 -42.15 -13.35 -44.25 L-13.4 -44.35 -13.55 -45.05 -13.55 -45.1 -13.45 -45.1 -13.45 -45.45 -13.1 -47.75 -12.65 -48.95 -12.65 -49.0 -12.45 -49.45 -11.6 -50.95 -10.95 -51.75 -10.2 -51.25 -10.95 -50.35 -11.75 -49.0 -12.25 -47.4 Q-12.35 -44.7 -12.5 -45.0 L-12.25 -44.45 Q-11.85 -44.5 -9.85 -46.5 L-6.4 -48.95 -6.35 -49.0 -5.9 -49.35 -4.35 -50.45 -3.35 -50.1" fill="url(#gradient20)" fill-rule="evenodd" stroke="none"/>
    <path d="M-1.25 -52.2 L-1.25 -52.15 -1.3 -52.2 -1.25 -52.2" fill="url(#gradient21)" fill-rule="evenodd" stroke="none"/>
    <path d="M-1.25 -52.15 L-1.1 -51.75 -1.4 -52.05 -1.55 -52.1 -1.6 -52.2 -2.3 -52.5 -2.45 -52.6 -1.35 -52.3 -1.3 -52.2 -1.25 -52.15" fill="url(#gradient22)" fill-rule="evenodd" stroke="none"/>
    <path d="M-1.55 -52.1 L-1.4 -52.05 -1.3 -51.8 -1.15 -51.55 -1.55 -51.95 -1.55 -52.1" fill="url(#gradient23)" fill-rule="evenodd" stroke="none"/>
    <path d="M-1.1 -51.75 L-0.95 -51.35 -1.15 -51.55 -1.3 -51.8 -1.4 -52.05 -1.1 -51.75" fill="url(#gradient24)" fill-rule="evenodd" stroke="none"/>
    <path d="M0.2 -48.0 L0.2 -47.85 0.1 -47.85 -0.2 -48.15 -0.35 -48.35 -1.05 -49.0 -3.15 -50.2 -4.85 -50.65 -5.25 -50.75 -5.05 -51.35 -4.95 -51.4 Q-3.2 -52.4 -0.45 -49.0 L0.2 -48.0" fill="url(#gradient25)" fill-rule="evenodd" stroke="none"/>
    <path d="M-5.05 -51.35 L-5.25 -50.75 -4.85 -50.65 -4.35 -50.45 -5.9 -49.35 -6.45 -49.6 -7.65 -50.6 -6.2 -50.8 -5.05 -51.35" fill="url(#gradient26)" fill-rule="evenodd" stroke="none"/>
    <path d="M-5.9 -49.35 L-6.35 -49.0 -6.4 -48.95 Q-7.45 -48.4 -8.0 -48.5 L-8.35 -48.25 -8.65 -48.35 -8.75 -48.25 -8.95 -48.45 -9.3 -49.0 -9.8 -50.05 -9.9 -51.15 -8.6 -50.7 -7.65 -50.6 -6.45 -49.6 -5.9 -49.35" fill="url(#gradient27)" fill-rule="evenodd" stroke="none"/>
    <path d="M-3.95 -49.4 L-3.35 -50.1 -2.65 -49.7 -3.95 -49.4 M-9.8 -50.05 L-9.3 -49.0 -8.95 -48.45 -8.75 -48.25 -8.65 -48.35 -8.35 -48.25 -9.3 -47.5 -9.85 -49.0 -9.8 -50.05" fill="url(#gradient28)" fill-rule="evenodd" stroke="none"/>
    <path d="M1.7 -46.6 Q6.1 -41.85 3.85 -41.0 0.6 -41.65 -4.0 -38.1 L-5.4 -37.95 -6.7 -39.85 Q-7.4 -45.65 1.45 -46.7 L1.7 -46.6" fill="url(#gradient29)" fill-rule="evenodd" stroke="none"/>
    <path d="M0.95 -47.35 L1.45 -46.7 Q-7.4 -45.65 -6.7 -39.85 L-7.3 -39.85 -8.6 -42.05 Q-9.55 -47.85 0.1 -47.85 L0.2 -47.85 0.95 -47.35" fill="url(#gradient30)" fill-rule="evenodd" stroke="none"/>
    <path d="M0.2 -47.85 L0.2 -48.0 0.95 -47.35 0.2 -47.85 M-0.2 -48.15 L0.1 -47.85 Q-9.55 -47.85 -8.6 -42.05 L-9.05 -41.9 -9.65 -42.0 -9.6 -42.3 -9.8 -43.15 -10.1 -43.25 -10.15 -43.5 -10.15 -44.25 -9.95 -44.95 Q-9.65 -46.7 -6.0 -48.0 L-0.2 -48.15" fill="url(#gradient31)" fill-rule="evenodd" stroke="none"/>
    <path d="M-9.65 -42.0 L-10.0 -41.7 -9.6 -42.3 -9.65 -42.0" fill="url(#gradient32)" fill-rule="evenodd" stroke="none"/>
    <path d="M-10.0 -41.7 Q-11.0 -42.0 -10.15 -43.5 L-10.1 -43.25 -9.8 -43.15 -9.6 -42.3 -10.0 -41.7" fill="url(#gradient33)" fill-rule="evenodd" stroke="none"/>
    <path d="M-13.6 -45.05 L-13.55 -45.15 -13.55 -45.1 -13.55 -45.05 -13.6 -45.05" fill="url(#gradient34)" fill-rule="evenodd" stroke="none"/>
    <path d="M-13.55 -43.25 L-13.75 -44.3 -13.6 -45.05 -13.55 -45.05 -13.4 -44.35 -13.4 -44.25 -13.55 -43.25" fill="url(#gradient35)" fill-rule="evenodd" stroke="none"/>
    <path d="M-13.95 -33.2 Q-17.4 -35.35 -12.95 -40.25 L-12.55 -39.05 -12.4 -37.6 -12.45 -37.5 -12.95 -37.15 -13.6 -36.15 -13.45 -34.6 -13.8 -33.6 -13.85 -33.55 -13.85 -33.5 -13.9 -33.35 -13.9 -33.25 -13.95 -33.2" fill="url(#gradient36)" fill-rule="evenodd" stroke="none"/>
    <path d="M-13.9 -33.2 L-13.95 -33.2 -13.9 -33.25 -13.9 -33.2" fill="url(#gradient37)" fill-rule="evenodd" stroke="none"/>
    <path d="M-14.05 -29.95 L-13.9 -33.2 -13.9 -33.25 -13.9 -33.35 -13.85 -33.5 -13.85 -33.55 -13.8 -33.6 -13.45 -34.6 -13.1 -33.75 -12.95 -33.6 -12.7 -33.65 -12.0 -33.6 -11.6 -33.95 -11.4 -33.25 -11.6 -33.25 -11.95 -32.75 -11.9 -32.1 -12.1 -31.55 -12.15 -31.55 -12.4 -31.9 -12.65 -31.05 -12.9 -27.6 -12.75 -26.5 -12.8 -26.5 -13.4 -27.2 Q-14.05 -28.55 -14.05 -29.95" fill="url(#gradient38)" fill-rule="evenodd" stroke="none"/>
    <path d="M-13.45 -34.6 L-13.6 -36.15 -12.95 -37.15 -12.45 -37.5 -12.3 -37.5 -12.3 -37.15 -11.95 -35.05 -12.75 -34.9 Q-13.1 -33.9 -12.7 -33.65 L-12.95 -33.6 -13.1 -33.75 -13.45 -34.6" fill="url(#gradient39)" fill-rule="evenodd" stroke="none"/>
    <path d="M-12.45 -37.5 L-12.4 -37.6 -12.3 -37.5 -12.45 -37.5 M-11.95 -35.05 L-11.6 -33.95 -12.0 -33.6 -12.7 -33.65 Q-13.1 -33.9 -12.75 -34.9 L-11.95 -35.05" fill="url(#gradient40)" fill-rule="evenodd" stroke="none"/>
    <path d="M3.85 -41.0 L5.0 -38.55 Q5.25 -37.95 4.65 -36.9 2.9 -34.6 -2.25 -35.05 L-2.95 -35.55 -4.0 -38.1 Q0.6 -41.65 3.85 -41.0" fill="url(#gradient41)" fill-rule="evenodd" stroke="none"/>
    <path d="M4.65 -36.9 L4.95 -35.2 4.55 -33.9 Q-0.3 -30.15 -2.25 -35.05 2.9 -34.6 4.65 -36.9" fill="url(#gradient42)" fill-rule="evenodd" stroke="none"/>
    <path d="M-11.4 -33.25 L-11.25 -32.8 -11.9 -32.1 -11.95 -32.75 -11.6 -33.25 -11.4 -33.25 M-10.0 -31.1 L-8.4 -29.55 -7.6 -28.2 -8.8 -28.35 -9.35 -28.45 -10.3 -28.85 -10.5 -30.15 -10.35 -30.6 -10.0 -31.1" fill="url(#gradient43)" fill-rule="evenodd" stroke="none"/>
    <path d="M-11.25 -32.8 L-10.0 -31.1 -10.35 -30.6 -10.5 -30.15 -10.3 -28.85 Q-11.9 -28.85 -12.15 -31.4 L-12.15 -31.45 -12.1 -31.5 -12.1 -31.55 -11.9 -32.1 -11.25 -32.8" fill="url(#gradient44)" fill-rule="evenodd" stroke="none"/>
    <path d="M-14.1 -25.0 Q-14.4 -24.7 -14.45 -28.55 L-14.05 -29.95 Q-14.05 -28.55 -13.4 -27.2 L-12.8 -26.5 -12.75 -26.4 -12.4 -22.5 -13.65 -23.85 -14.1 -25.0" fill="url(#gradient45)" fill-rule="evenodd" stroke="none"/>
    <path d="M-14.2 -24.4 L-14.1 -25.0 -13.65 -23.85 -12.4 -22.5 -12.25 -21.8 -12.25 -21.55 -12.3 -21.25 -13.05 -21.85 -14.05 -23.6 -14.2 -24.4" fill="url(#gradient46)" fill-rule="evenodd" stroke="none"/>
    <path d="M-14.25 -18.6 Q-14.85 -20.2 -14.7 -22.5 L-14.2 -24.4 -14.05 -23.6 Q-14.75 -21.25 -12.45 -19.65 L-12.25 -16.9 -11.95 -15.55 Q-13.75 -16.5 -14.2 -18.4 L-14.25 -18.6" fill="url(#gradient47)" fill-rule="evenodd" stroke="none"/>
    <path d="M-14.25 -18.45 L-14.25 -18.6 -14.2 -18.4 -14.25 -18.45" fill="url(#gradient48)" fill-rule="evenodd" stroke="none"/>
    <path d="M-14.3 -16.6 L-14.25 -18.45 -14.2 -18.4 Q-13.75 -16.5 -11.95 -15.55 L-11.9 -15.5 -11.9 -15.45 -11.85 -15.3 -11.8 -14.8 -11.45 -14.5 -11.45 -14.45 -11.75 -13.9 -12.95 -14.65 -13.65 -15.3 -13.95 -15.65 -14.3 -16.6" fill="url(#gradient49)" fill-rule="evenodd" stroke="none"/>
    <path d="M-13.45 -13.3 L-14.85 -14.15 -14.95 -14.2 Q-17.55 -14.95 -14.3 -16.6 L-13.95 -15.65 -13.65 -15.3 -13.8 -14.45 -13.45 -13.35 -13.45 -13.3" fill="url(#gradient50)" fill-rule="evenodd" stroke="none"/>
    <path d="M-11.95 -12.1 L-12.95 -12.5 -13.45 -13.3 -13.45 -13.35 -13.8 -14.45 -13.65 -15.3 -12.95 -14.65 -11.75 -13.9 -11.75 -12.95 -11.95 -12.1" fill="url(#gradient51)" fill-rule="evenodd" stroke="none"/>
    <path d="M-7.6 -28.2 L-7.0 -27.2 -6.8 -25.25 -6.6 -20.2 -7.1 -19.1 -7.35 -19.4 -8.2 -18.75 -8.75 -19.05 -8.9 -19.0 -9.35 -19.7 -9.55 -19.7 -9.8 -19.35 -10.3 -19.35 -10.9 -20.1 -11.4 -19.9 -11.65 -20.35 -11.85 -20.35 -12.25 -21.55 -12.25 -21.8 -12.4 -22.5 -12.75 -26.4 -12.75 -26.5 -12.9 -27.6 -12.65 -31.05 -12.4 -31.9 -12.15 -31.55 -12.1 -31.5 -12.15 -31.45 -12.15 -31.4 Q-11.9 -28.85 -10.3 -28.85 L-9.35 -28.45 Q-9.5 -26.55 -8.8 -28.35 L-7.6 -28.2" fill="url(#gradient52)" fill-rule="evenodd" stroke="none"/>
    <path d="M-12.1 -31.55 L-12.1 -31.5 -12.15 -31.55 -12.1 -31.55" fill="url(#gradient53)" fill-rule="evenodd" stroke="none"/>
    <path d="M-12.75 -26.5 L-12.75 -26.4 -12.8 -26.5 -12.75 -26.5 M-12.25 -21.8 L-12.25 -21.55 -12.25 -21.8" fill="url(#gradient54)" fill-rule="evenodd" stroke="none"/>
    <path d="M-9.35 -28.45 L-8.8 -28.35 Q-9.5 -26.55 -9.35 -28.45" fill="url(#gradient55)" fill-rule="evenodd" stroke="none"/>
    <path d="M-7.1 -19.1 Q-7.7 -18.4 -8.6 -14.9 L-8.9 -14.55 -8.75 -14.15 -7.25 -12.25 -8.15 -12.35 -9.7 -12.95 -10.0 -12.65 -10.0 -12.2 -9.35 -11.35 -8.55 -10.9 -9.85 -11.3 -10.6 -11.85 -10.6 -12.1 -10.95 -12.7 -10.95 -13.35 -11.4 -14.45 -11.45 -14.5 -11.8 -15.3 -11.9 -15.45 -11.9 -15.5 -11.95 -15.55 -12.25 -16.9 -12.45 -19.65 -12.3 -21.25 -12.25 -21.55 -11.85 -20.35 -11.65 -20.35 -11.4 -19.9 -10.9 -20.1 -10.3 -19.35 -9.8 -19.35 -9.55 -19.7 -9.35 -19.7 -8.9 -19.0 -8.75 -19.05 -8.2 -18.75 -7.35 -19.4 -7.1 -19.1" fill="url(#gradient56)" fill-rule="evenodd" stroke="none"/>
    <path d="M-12.3 -21.25 L-12.45 -19.65 Q-14.75 -21.25 -14.05 -23.6 L-13.05 -21.85 -12.3 -21.25" fill="url(#gradient57)" fill-rule="evenodd" stroke="none"/>
    <path d="M-7.25 -12.25 L-7.0 -11.95 -4.9 -11.05 -3.2 -11.1 -8.55 -10.9 -9.35 -11.35 -10.0 -12.2 -10.0 -12.65 -9.7 -12.95 -8.15 -12.35 -7.25 -12.25" fill="url(#gradient58)" fill-rule="evenodd" stroke="none"/>
    <path d="M-3.2 -11.1 L-2.45 -11.15 -0.1 -12.05 Q-5.35 -5.6 -9.65 -9.8 L-9.7 -9.85 -9.95 -10.5 -9.85 -11.3 -8.55 -10.9 -3.2 -11.1" fill="url(#gradient59)" fill-rule="evenodd" stroke="none"/>
    <path d="M0.2 -12.25 L0.7 -10.6 0.4 -7.8 0.3 -5.75 Q-0.35 -4.45 -3.15 -2.95 L-3.45 -2.8 -7.35 -2.9 -8.2 -3.1 -10.05 -5.0 -10.2 -5.4 -10.55 -6.0 -10.5 -6.05 -10.6 -6.1 -10.6 -6.15 -10.65 -6.2 -10.65 -6.25 -10.7 -6.35 -10.75 -6.4 -11.35 -7.7 -11.8 -8.7 -12.05 -11.65 -11.95 -12.1 -11.75 -12.95 Q-11.75 -12.45 -11.0 -11.55 L-10.6 -11.85 -9.85 -11.3 -9.95 -10.5 -9.7 -9.85 -9.65 -9.8 Q-5.35 -5.6 -0.1 -12.05 L0.2 -12.25" fill="url(#gradient60)" fill-rule="evenodd" stroke="none"/>
    <path d="M-11.4 -14.45 L-10.95 -13.35 -10.95 -12.7 -10.6 -12.1 -10.6 -11.85 -11.0 -11.55 Q-11.75 -12.45 -11.75 -12.95 L-11.75 -13.9 -11.45 -14.45 -11.4 -14.45" fill="url(#gradient61)" fill-rule="evenodd" stroke="none"/>
    <path d="M-11.9 -15.45 L-11.8 -15.3 -11.85 -15.3 -11.9 -15.45 M-11.45 -14.5 L-11.4 -14.45 -11.45 -14.45 -11.45 -14.5" fill="url(#gradient62)" fill-rule="evenodd" stroke="none"/>
    <path d="M-11.8 -15.3 L-11.45 -14.5 -11.8 -14.8 -11.85 -15.3 -11.8 -15.3" fill="url(#gradient63)" fill-rule="evenodd" stroke="none"/>
    <path d="M-10.2 -5.4 Q-10.7 -5.3 -11.2 -6.25 L-11.35 -7.7 -10.75 -6.4 -10.7 -6.35 -10.65 -6.25 -10.65 -6.2 -10.6 -6.15 -10.6 -6.1 -10.55 -6.0 -10.2 -5.4" fill="url(#gradient64)" fill-rule="evenodd" stroke="none"/>
    <path d="M-10.55 -6.0 L-10.6 -6.1 -10.5 -6.05 -10.55 -6.0" fill="url(#gradient65)" fill-rule="evenodd" stroke="none"/>
    <path d="M0.4 -7.8 Q3.15 -4.8 -2.85 -1.45 L-2.95 -1.4 -4.65 -0.9 -4.8 -0.9 -6.05 -1.0 -6.95 -1.45 -6.95 -1.5 -7.0 -1.5 -7.25 -1.65 -7.3 -1.7 -7.95 -2.2 -8.2 -3.1 -7.35 -2.9 -3.45 -2.8 -3.15 -2.95 Q-0.35 -4.45 0.3 -5.75 L0.4 -7.8" fill="url(#gradient66)" fill-rule="evenodd" stroke="none"/>
    <path d="M-7.3 -1.65 L-7.3 -1.7 -7.25 -1.65 -7.3 -1.65 M-6.95 -1.45 L-7.0 -1.5 -6.95 -1.5 -6.95 -1.45" fill="url(#gradient67)" fill-rule="evenodd" stroke="none"/>
    <path d="M-7.3 -1.45 L-7.3 -1.65 -7.25 -1.65 -7.0 -1.5 -6.95 -1.45 Q-6.65 -0.3 -4.8 -0.9 L-4.65 -0.9 Q-6.75 0.0 -7.3 -1.45" fill="url(#gradient68)" fill-rule="evenodd" stroke="none"/>
    <path d="M-7.4 -1.05 L-7.3 -1.45 Q-6.75 0.0 -4.65 -0.9 L-2.95 -1.4 Q-2.9 -0.2 -5.25 0.85 L-5.4 0.45 Q-7.4 0.65 -7.4 -1.05" fill="url(#gradient69)" fill-rule="evenodd" stroke="none"/>
    <path d="M-4.65 2.6 Q-6.1 4.9 -6.2 3.75 -9.65 2.65 -9.7 1.25 L-8.35 -0.3 -7.4 -1.05 Q-7.4 0.65 -5.4 0.45 L-5.25 0.85 -4.65 2.6" fill="url(#gradient70)" fill-rule="evenodd" stroke="none"/>
    <path d="M-2.85 -1.45 Q-1.7 0.55 -4.65 2.6 L-5.25 0.85 Q-2.9 -0.2 -2.95 -1.4 L-2.85 -1.45 M-6.2 3.75 L-8.75 5.55 Q-9.9 6.1 -10.1 5.55 L-10.55 4.95 -11.6 4.7 -11.65 4.7 -11.75 4.65 Q-12.5 3.75 -9.7 1.25 -9.65 2.65 -6.2 3.75" fill="url(#gradient71)" fill-rule="evenodd" stroke="none"/>
    <path d="M-10.1 5.55 L-10.55 5.2 -11.6 4.7 -10.55 4.95 -10.1 5.55" fill="url(#gradient72)" fill-rule="evenodd" stroke="none"/>
    <path d="M-6.95 -1.45 L-6.05 -1.0 -4.8 -0.9 Q-6.65 -0.3 -6.95 -1.45" fill="url(#gradient73)" fill-rule="evenodd" stroke="none"/>
  </g>
  <defs>
    <radialGradient cx="0" cy="0" gradientTransform="matrix(0.006, 0.0, 0.0, 0.006, -25.9, -78.7)" gradientUnits="userSpaceOnUse" id="gradient0" r="819.2" spreadMethod="pad">
      <stop offset="0.0" stop-color="#ffe583"/>
      <stop offset="1.0" stop-color="#c08b4f"/>
    </radialGradient>
    <radialGradient cx="0" cy="0" gradientTransform="matrix(0.0038, 0.0, 0.0, 0.0038, -27.1, -74.6)" gradientUnits="userSpaceOnUse" id="gradient1" r="819.2" spreadMethod="pad">
      <stop offset="0.0" stop-color="#ffe684"/>
      <stop offset="1.0" stop-color="#d79c59"/>
    </radialGradient>
    <radialGradient cx="0" cy="0" gradientTransform="matrix(0.0079, 0.0, 0.0, 0.0079, -19.45, -71.55)" gradientUnits="userSpaceOnUse" id="gradient2" r="819.2" spreadMethod="pad">
      <stop offset="0.0" stop-color="#ffe885"/>
      <stop offset="1.0" stop-color="#e9a960"/>
    </radialGradient>
    <radialGradient cx="0" cy="0" gradientTransform="matrix(0.0025, 0.0, 0.0, 0.0025, -15.0, -67.75)" gradientUnits="userSpaceOnUse" id="gradient3" r="819.2" spreadMethod="pad">
      <stop offset="0.0" stop-color="#ffd278"/>
      <stop offset="1.0" stop-color="#af7e48"/>
    </radialGradient>
    <radialGradient cx="0" cy="0" gradientTransform="matrix(0.0079, 0.0, 0.0, 0.0079, -15.1, -63.5)" gradientUnits="userSpaceOnUse" id="gradient4" r="819.2" spreadMethod="pad">
      <stop offset="0.0" stop-color="#ffe784"/>
      <stop offset="1.0" stop-color="#db9e5a"/>
    </radialGradient>
    <radialGradient cx="0" cy="0" gradientTransform="matrix(0.0072, 0.0, 0.0, 0.0072, -13.15, -64.4)" gradientUnits="userSpaceOnUse" id="gradient5" r="819.2" spreadMethod="pad">
      <stop offset="0.0" stop-color="#ffdf80"/>
      <stop offset="1.0" stop-color="#be894e"/>
    </radialGradient>
    <radialGradient cx="0" cy="0" gradientTransform="matrix(0.0054, 0.0, 0.0, 0.0054, -12.2, -62.1)" gradientUnits="userSpaceOnUse" id="gradient6" r="819.2" spreadMethod="pad">
      <stop offset="0.0" stop-color="#685e4b"/>
      <stop offset="1.0" stop-color="#332e25"/>
    </radialGradient>
    <radialGradient cx="0" cy="0" gradientTransform="matrix(0.0072, 0.0, 0.0, 0.0072, -10.45, -60.3)" gradientUnits="userSpaceOnUse" id="gradient7" r="819.2" spreadMethod="pad">
      <stop offset="0.0" stop-color="#93814e"/>
      <stop offset="1.0" stop-color="#53492c"/>
    </radialGradient>
    <radialGradient cx="0" cy="0" gradientTransform="matrix(0.0022, 0.0, 0.0, 0.0022, -9.55, -61.6)" gradientUnits="userSpaceOnUse" id="gradient8" r="819.2" spreadMethod="pad">
      <stop offset="0.0" stop-color="#aa965b"/>
      <stop offset="1.0" stop-color="#544a2c"/>
    </radialGradient>
    <radialGradient cx="0" cy="0" gradientTransform="matrix(0.0083, 0.0, 0.0, 0.0083, -8.6, -56.8)" gradientUnits="userSpaceOnUse" id="gradient9" r="819.2" spreadMethod="pad">
      <stop offset="0.0" stop-color="#a59158"/>
      <stop offset="1.0" stop-color="#6a5e39"/>
    </radialGradient>
    <radialGradient cx="0" cy="0" gradientTransform="matrix(0.0122, 0.0, 0.0, 0.0122, -11.2, -52.0)" gradientUnits="userSpaceOnUse" id="gradient10" r="819.2" spreadMethod="pad">
      <stop offset="0.0" stop-color="#5f5645"/>
      <stop offset="1.0" stop-color="#403a2e"/>
    </radialGradient>
    <radialGradient cx="0" cy="0" gradientTransform="matrix(0.0481, 0.0, 0.0, 0.0481, -9.95, -49.95)" gradientUnits="userSpaceOnUse" id="gradient11" r="819.2" spreadMethod="pad">
      <stop offset="0.0" stop-color="#3f4b78"/>
      <stop offset="1.0" stop-color="#1c2134"/>
    </radialGradient>
    <radialGradient cx="0" cy="0" gradientTransform="matrix(0.005, 0.0, 0.0, 0.005, -3.05, -52.35)" gradientUnits="userSpaceOnUse" id="gradient12" r="819.2" spreadMethod="pad">
      <stop offset="0.0" stop-color="#8b7a4a"/>
      <stop offset="1.0" stop-color="#72643c"/>
    </radialGradient>
    <radialGradient cx="0" cy="0" gradientTransform="matrix(0.0103, 0.0, 0.0, 0.0103, -4.95, -51.5)" gradientUnits="userSpaceOnUse" id="gradient13" r="819.2" spreadMethod="pad">
      <stop offset="0.0" stop-color="#ad985c"/>
      <stop offset="1.0" stop-color="#75673f"/>
    </radialGradient>
    <radialGradient cx="0" cy="0" gradientTransform="matrix(0.0127, 0.0, 0.0, 0.0127, -13.2, -56.65)" gradientUnits="userSpaceOnUse" id="gradient14" r="819.2" spreadMethod="pad">
      <stop offset="0.0" stop-color="#453e32"/>
      <stop offset="1.0" stop-color="#332e25"/>
    </radialGradient>
    <radialGradient cx="0" cy="0" gradientTransform="matrix(0.0141, 0.0, 0.0, 0.0141, -3.35, -53.25)" gradientUnits="userSpaceOnUse" id="gradient15" r="819.2" spreadMethod="pad">
      <stop offset="0.0" stop-color="#595141"/>
      <stop offset="1.0" stop-color="#564e3f"/>
    </radialGradient>
    <radialGradient cx="0" cy="0" gradientTransform="matrix(0.0094, 0.0, 0.0, 0.0094, -11.25, -60.0)" gradientUnits="userSpaceOnUse" id="gradient16" r="819.2" spreadMethod="pad">
      <stop offset="0.0" stop-color="#aa965b"/>
      <stop offset="1.0" stop-color="#6a5e39"/>
    </radialGradient>
    <radialGradient cx="0" cy="0" gradientTransform="matrix(0.0017, 0.0, 0.0, 0.0017, -12.45, -49.3)" gradientUnits="userSpaceOnUse" id="gradient17" r="819.2" spreadMethod="pad">
      <stop offset="0.0" stop-color="#a98f28"/>
      <stop offset="1.0" stop-color="#7e6a1d"/>
    </radialGradient>
    <radialGradient cx="0" cy="0" gradientTransform="matrix(0.0012, 0.0, 0.0, 0.0012, -12.95, -49.8)" gradientUnits="userSpaceOnUse" id="gradient18" r="819.2" spreadMethod="pad">
      <stop offset="0.0" stop-color="#7a671d"/>
      <stop offset="1.0" stop-color="#483c10"/>
    </radialGradient>
    <radialGradient cx="0" cy="0" gradientTransform="matrix(0.0108, 0.0, 0.0, 0.0108, -13.35, -44.2)" gradientUnits="userSpaceOnUse" id="gradient19" r="819.2" spreadMethod="pad">
      <stop offset="0.0" stop-color="#998a32"/>
      <stop offset="1.0" stop-color="#201d0a"/>
    </radialGradient>
    <radialGradient cx="0" cy="0" gradientTransform="matrix(0.0127, 0.0, 0.0, 0.0127, -12.9, -46.35)" gradientUnits="userSpaceOnUse" id="gradient20" r="819.2" spreadMethod="pad">
      <stop offset="0.0" stop-color="#fff257"/>
      <stop offset="1.0" stop-color="#baa93c"/>
    </radialGradient>
    <radialGradient cx="0" cy="0" gradientTransform="matrix(0.0017, 0.0, 0.0, 0.0017, -1.2, -52.0)" gradientUnits="userSpaceOnUse" id="gradient21" r="819.2" spreadMethod="pad">
      <stop offset="0.0" stop-color="#3c362c"/>
      <stop offset="1.0" stop-color="#342f26"/>
    </radialGradient>
    <radialGradient cx="0" cy="0" gradientTransform="matrix(0.0023, 0.0, 0.0, 0.0023, -1.05, -51.6)" gradientUnits="userSpaceOnUse" id="gradient22" r="819.2" spreadMethod="pad">
      <stop offset="0.0" stop-color="#3f4a77"/>
      <stop offset="1.0" stop-color="#3b4670"/>
    </radialGradient>
    <radialGradient cx="0" cy="0" gradientTransform="matrix(0.0484, 0.0, 0.0, 0.0484, -1.05, -51.6)" gradientUnits="userSpaceOnUse" id="gradient23" r="819.2" spreadMethod="pad">
      <stop offset="0.0" stop-color="#21273f"/>
      <stop offset="1.0" stop-color="#0a0b12"/>
    </radialGradient>
    <radialGradient cx="0" cy="0" gradientTransform="matrix(0.0011, 0.0, 0.0, 0.0011, -1.2, -51.7)" gradientUnits="userSpaceOnUse" id="gradient24" r="819.2" spreadMethod="pad">
      <stop offset="0.0" stop-color="#222841"/>
      <stop offset="1.0" stop-color="#20263e"/>
    </radialGradient>
    <radialGradient cx="0" cy="0" gradientTransform="matrix(0.0044, 0.0, 0.0, 0.0044, -2.4, -50.2)" gradientUnits="userSpaceOnUse" id="gradient25" r="819.2" spreadMethod="pad">
      <stop offset="0.0" stop-color="#ae995d"/>
      <stop offset="1.0" stop-color="#92804d"/>
    </radialGradient>
    <radialGradient cx="0" cy="0" gradientTransform="matrix(0.0038, 0.0, 0.0, 0.0038, -7.1, -51.75)" gradientUnits="userSpaceOnUse" id="gradient26" r="819.2" spreadMethod="pad">
      <stop offset="0.0" stop-color="#a18d56"/>
      <stop offset="1.0" stop-color="#796a41"/>
    </radialGradient>
    <radialGradient cx="0" cy="0" gradientTransform="matrix(0.0038, 0.0, 0.0, 0.0038, -7.1, -50.9)" gradientUnits="userSpaceOnUse" id="gradient27" r="819.2" spreadMethod="pad">
      <stop offset="0.0" stop-color="#ffce76"/>
      <stop offset="1.0" stop-color="#b07f49"/>
    </radialGradient>
    <radialGradient cx="0" cy="0" gradientTransform="matrix(0.0084, 0.0, 0.0, 0.0084, -4.3, -49.65)" gradientUnits="userSpaceOnUse" id="gradient28" r="819.2" spreadMethod="pad">
      <stop offset="0.0" stop-color="#ffd178"/>
      <stop offset="1.0" stop-color="#d69a58"/>
    </radialGradient>
    <radialGradient cx="0" cy="0" gradientTransform="matrix(0.0078, 0.0, 0.0, 0.0078, -1.45, -42.95)" gradientUnits="userSpaceOnUse" id="gradient29" r="819.2" spreadMethod="pad">
      <stop offset="0.0" stop-color="#625947"/>
      <stop offset="1.0" stop-color="#353026"/>
    </radialGradient>
    <radialGradient cx="0" cy="0" gradientTransform="matrix(0.0085, 0.0, 0.0, 0.0085, -4.85, -43.65)" gradientUnits="userSpaceOnUse" id="gradient30" r="819.2" spreadMethod="pad">
      <stop offset="0.0" stop-color="#5e5544"/>
      <stop offset="1.0" stop-color="#3e372d"/>
    </radialGradient>
    <radialGradient cx="0" cy="0" gradientTransform="matrix(0.0082, 0.0, 0.0, 0.0082, -5.5, -46.95)" gradientUnits="userSpaceOnUse" id="gradient31" r="819.2" spreadMethod="pad">
      <stop offset="0.0" stop-color="#5c5343"/>
      <stop offset="1.0" stop-color="#403a2f"/>
    </radialGradient>
    <radialGradient cx="0" cy="0" gradientTransform="matrix(0.002, 0.0, 0.0, 0.002, -9.2, -42.75)" gradientUnits="userSpaceOnUse" id="gradient32" r="819.2" spreadMethod="pad">
      <stop offset="0.0" stop-color="#645417"/>
      <stop offset="1.0" stop-color="#5c4e15"/>
    </radialGradient>
    <radialGradient cx="0" cy="0" gradientTransform="matrix(0.0028, 0.0, 0.0, 0.0028, -9.15, -43.5)" gradientUnits="userSpaceOnUse" id="gradient33" r="819.2" spreadMethod="pad">
      <stop offset="0.0" stop-color="#a08725"/>
      <stop offset="1.0" stop-color="#826d1e"/>
    </radialGradient>
    <radialGradient cx="0" cy="0" gradientTransform="matrix(0.0013, 0.0, 0.0, 0.0013, -13.45, -44.95)" gradientUnits="userSpaceOnUse" id="gradient34" r="819.2" spreadMethod="pad">
      <stop offset="0.0" stop-color="#ae7e48"/>
      <stop offset="1.0" stop-color="#a87945"/>
    </radialGradient>
    <radialGradient cx="0" cy="0" gradientTransform="matrix(0.003, 0.0, 0.0, 0.003, -13.1, -45.5)" gradientUnits="userSpaceOnUse" id="gradient35" r="819.2" spreadMethod="pad">
      <stop offset="0.0" stop-color="#443e32"/>
      <stop offset="1.0" stop-color="#3a352a"/>
    </radialGradient>
    <radialGradient cx="0" cy="0" gradientTransform="matrix(0.0066, 0.0, 0.0, 0.0066, -11.85, -38.1)" gradientUnits="userSpaceOnUse" id="gradient36" r="819.2" spreadMethod="pad">
      <stop offset="0.0" stop-color="#404c7a"/>
      <stop offset="1.0" stop-color="#1d2337"/>
    </radialGradient>
    <radialGradient cx="0" cy="0" gradientTransform="matrix(0.0066, 0.0, 0.0, 0.0066, -14.05, -29.8)" gradientUnits="userSpaceOnUse" id="gradient37" r="819.2" spreadMethod="pad">
      <stop offset="0.0" stop-color="#817965"/>
      <stop offset="1.0" stop-color="#585445"/>
    </radialGradient>
    <radialGradient cx="0" cy="0" gradientTransform="matrix(0.0075, 0.0, 0.0, 0.0075, -11.8, -31.75)" gradientUnits="userSpaceOnUse" id="gradient38" r="819.2" spreadMethod="pad">
      <stop offset="0.0" stop-color="#b6ab8e"/>
      <stop offset="1.0" stop-color="#857d68"/>
    </radialGradient>
    <radialGradient cx="0" cy="0" gradientTransform="matrix(0.0033, 0.0, 0.0, 0.0033, -11.6, -35.95)" gradientUnits="userSpaceOnUse" id="gradient39" r="819.2" spreadMethod="pad">
      <stop offset="0.0" stop-color="#6c614e"/>
      <stop offset="1.0" stop-color="#39342a"/>
    </radialGradient>
    <radialGradient cx="0" cy="0" gradientTransform="matrix(0.0053, 0.0, 0.0, 0.0053, -11.55, -34.25)" gradientUnits="userSpaceOnUse" id="gradient40" r="819.2" spreadMethod="pad">
      <stop offset="0.0" stop-color="#dbb933"/>
      <stop offset="1.0" stop-color="#836e1f"/>
    </radialGradient>
    <radialGradient cx="0" cy="0" gradientTransform="matrix(0.0065, 0.0, 0.0, 0.0065, -0.35, -38.6)" gradientUnits="userSpaceOnUse" id="gradient41" r="819.2" spreadMethod="pad">
      <stop offset="0.0" stop-color="#635948"/>
      <stop offset="1.0" stop-color="#3d372c"/>
    </radialGradient>
    <radialGradient cx="0" cy="0" gradientTransform="matrix(0.0047, 0.0, 0.0, 0.0047, 1.05, -35.65)" gradientUnits="userSpaceOnUse" id="gradient42" r="819.2" spreadMethod="pad">
      <stop offset="0.0" stop-color="#5d5444"/>
      <stop offset="1.0" stop-color="#3b352b"/>
    </radialGradient>
    <radialGradient cx="0" cy="0" gradientTransform="matrix(0.0047, 0.0, 0.0, 0.0047, -8.85, -30.65)" gradientUnits="userSpaceOnUse" id="gradient43" r="819.2" spreadMethod="pad">
      <stop offset="0.0" stop-color="#d2b131"/>
      <stop offset="1.0" stop-color="#8e7821"/>
    </radialGradient>
    <radialGradient cx="0" cy="0" gradientTransform="matrix(0.0039, 0.0, 0.0, 0.0039, -10.1, -31.75)" gradientUnits="userSpaceOnUse" id="gradient44" r="819.2" spreadMethod="pad">
      <stop offset="0.0" stop-color="#6c614e"/>
      <stop offset="1.0" stop-color="#353026"/>
    </radialGradient>
    <radialGradient cx="0" cy="0" gradientTransform="matrix(0.0083, 0.0, 0.0, 0.0083, -12.55, -27.85)" gradientUnits="userSpaceOnUse" id="gradient45" r="819.2" spreadMethod="pad">
      <stop offset="0.0" stop-color="#a0967d"/>
      <stop offset="1.0" stop-color="#76705d"/>
    </radialGradient>
    <radialGradient cx="0" cy="0" gradientTransform="matrix(0.0054, 0.0, 0.0, 0.0054, -11.75, -22.05)" gradientUnits="userSpaceOnUse" id="gradient46" r="819.2" spreadMethod="pad">
      <stop offset="0.0" stop-color="#716652"/>
      <stop offset="1.0" stop-color="#363027"/>
    </radialGradient>
    <radialGradient cx="0" cy="0" gradientTransform="matrix(0.0077, 0.0, 0.0, 0.0077, -10.95, -20.6)" gradientUnits="userSpaceOnUse" id="gradient47" r="819.2" spreadMethod="pad">
      <stop offset="0.0" stop-color="#ccc1a0"/>
      <stop offset="1.0" stop-color="#736d5a"/>
    </radialGradient>
    <radialGradient cx="0" cy="0" gradientTransform="matrix(0.0067, 0.0, 0.0, 0.0067, -14.75, -22.45)" gradientUnits="userSpaceOnUse" id="gradient48" r="819.2" spreadMethod="pad">
      <stop offset="0.0" stop-color="#1f1e19"/>
      <stop offset="1.0" stop-color="#1f1e19"/>
    </radialGradient>
    <radialGradient cx="0" cy="0" gradientTransform="matrix(0.0051, 0.0, 0.0, 0.0051, -11.75, -15.5)" gradientUnits="userSpaceOnUse" id="gradient49" r="819.2" spreadMethod="pad">
      <stop offset="0.0" stop-color="#746954"/>
      <stop offset="1.0" stop-color="#342f26"/>
    </radialGradient>
    <radialGradient cx="0" cy="0" gradientTransform="matrix(0.0046, 0.0, 0.0, 0.0046, -12.55, -14.0)" gradientUnits="userSpaceOnUse" id="gradient50" r="819.2" spreadMethod="pad">
      <stop offset="0.0" stop-color="#ffe785"/>
      <stop offset="1.0" stop-color="#ffc06e"/>
    </radialGradient>
    <radialGradient cx="0" cy="0" gradientTransform="matrix(0.0051, 0.0, 0.0, 0.0051, -13.8, -14.85)" gradientUnits="userSpaceOnUse" id="gradient51" r="819.2" spreadMethod="pad">
      <stop offset="0.0" stop-color="#695f4c"/>
      <stop offset="1.0" stop-color="#3f392e"/>
    </radialGradient>
    <radialGradient cx="0" cy="0" gradientTransform="matrix(0.0166, 0.0, 0.0, 0.0166, -8.85, -30.0)" gradientUnits="userSpaceOnUse" id="gradient52" r="819.2" spreadMethod="pad">
      <stop offset="0.0" stop-color="#fff7cd"/>
      <stop offset="1.0" stop-color="#aca287"/>
    </radialGradient>
    <radialGradient cx="0" cy="0" gradientTransform="matrix(0.0021, 0.0, 0.0, 0.0021, -12.0, -31.95)" gradientUnits="userSpaceOnUse" id="gradient53" r="819.2" spreadMethod="pad">
      <stop offset="0.0" stop-color="#0c0b09"/>
      <stop offset="1.0" stop-color="#0c0b09"/>
    </radialGradient>
    <radialGradient cx="0" cy="0" gradientTransform="matrix(0.0104, 0.0, 0.0, 0.0104, -12.3, -22.2)" gradientUnits="userSpaceOnUse" id="gradient54" r="819.2" spreadMethod="pad">
      <stop offset="0.0" stop-color="#89816b"/>
      <stop offset="1.0" stop-color="#1f1e19"/>
    </radialGradient>
    <radialGradient cx="0" cy="0" gradientTransform="matrix(0.0058, 0.0, 0.0, 0.0058, -8.9, -29.75)" gradientUnits="userSpaceOnUse" id="gradient55" r="819.2" spreadMethod="pad">
      <stop offset="0.0" stop-color="#fff3ca"/>
      <stop offset="1.0" stop-color="#e0d3af"/>
    </radialGradient>
    <radialGradient cx="0" cy="0" gradientTransform="matrix(0.012, 0.0, 0.0, 0.012, -7.45, -19.45)" gradientUnits="userSpaceOnUse" id="gradient56" r="819.2" spreadMethod="pad">
      <stop offset="0.0" stop-color="#e1d4b0"/>
      <stop offset="1.0" stop-color="#7d7662"/>
    </radialGradient>
    <radialGradient cx="0" cy="0" gradientTransform="matrix(0.0049, 0.0, 0.0, 0.0049, -11.35, -20.9)" gradientUnits="userSpaceOnUse" id="gradient57" r="819.2" spreadMethod="pad">
      <stop offset="0.0" stop-color="#726752"/>
      <stop offset="1.0" stop-color="#413b2f"/>
    </radialGradient>
    <radialGradient cx="0" cy="0" gradientTransform="matrix(0.0051, 0.0, 0.0, 0.0051, -6.7, -11.9)" gradientUnits="userSpaceOnUse" id="gradient58" r="819.2" spreadMethod="pad">
      <stop offset="0.0" stop-color="#706551"/>
      <stop offset="1.0" stop-color="#332e25"/>
    </radialGradient>
    <radialGradient cx="0" cy="0" gradientTransform="matrix(0.0075, 0.0, 0.0, 0.0075, -5.6, -10.4)" gradientUnits="userSpaceOnUse" id="gradient59" r="819.2" spreadMethod="pad">
      <stop offset="0.0" stop-color="#716652"/>
      <stop offset="1.0" stop-color="#3f392e"/>
    </radialGradient>
    <radialGradient cx="0" cy="0" gradientTransform="matrix(0.0112, 0.0, 0.0, 0.0112, -6.85, -10.4)" gradientUnits="userSpaceOnUse" id="gradient60" r="819.2" spreadMethod="pad">
      <stop offset="0.0" stop-color="#e7d9b5"/>
      <stop offset="1.0" stop-color="#857e69"/>
    </radialGradient>
    <radialGradient cx="0" cy="0" gradientTransform="matrix(0.0038, 0.0, 0.0, 0.0038, -10.4, -12.1)" gradientUnits="userSpaceOnUse" id="gradient61" r="819.2" spreadMethod="pad">
      <stop offset="0.0" stop-color="#6f6450"/>
      <stop offset="1.0" stop-color="#352f26"/>
    </radialGradient>
    <radialGradient cx="0" cy="0" gradientTransform="matrix(0.0098, 0.0, 0.0, 0.0098, -12.05, -21.55)" gradientUnits="userSpaceOnUse" id="gradient62" r="819.2" spreadMethod="pad">
      <stop offset="0.0" stop-color="#1f1e19"/>
      <stop offset="1.0" stop-color="#1f1e19"/>
    </radialGradient>
    <radialGradient cx="0" cy="0" gradientTransform="matrix(0.0016, 0.0, 0.0, 0.0016, -11.4, -14.85)" gradientUnits="userSpaceOnUse" id="gradient63" r="819.2" spreadMethod="pad">
      <stop offset="0.0" stop-color="#423c30"/>
      <stop offset="1.0" stop-color="#332e25"/>
    </radialGradient>
    <radialGradient cx="0" cy="0" gradientTransform="matrix(0.0024, 0.0, 0.0, 0.0024, -10.5, -6.25)" gradientUnits="userSpaceOnUse" id="gradient64" r="819.2" spreadMethod="pad">
      <stop offset="0.0" stop-color="#6c614e"/>
      <stop offset="1.0" stop-color="#343026"/>
    </radialGradient>
    <radialGradient cx="0" cy="0" gradientTransform="matrix(0.0018, 0.0, 0.0, 0.0018, -11.15, -7.4)" gradientUnits="userSpaceOnUse" id="gradient65" r="819.2" spreadMethod="pad">
      <stop offset="0.0" stop-color="#78715e"/>
      <stop offset="1.0" stop-color="#6b6554"/>
    </radialGradient>
    <radialGradient cx="0" cy="0" gradientTransform="matrix(0.0082, 0.0, 0.0, 0.0082, -4.15, -2.9)" gradientUnits="userSpaceOnUse" id="gradient66" r="819.2" spreadMethod="pad">
      <stop offset="0.0" stop-color="#746854"/>
      <stop offset="1.0" stop-color="#363128"/>
    </radialGradient>
    <radialGradient cx="0" cy="0" gradientTransform="matrix(0.0039, 0.0, 0.0, 0.0039, -7.95, -2.25)" gradientUnits="userSpaceOnUse" id="gradient67" r="819.2" spreadMethod="pad">
      <stop offset="0.0" stop-color="#0c0b09"/>
      <stop offset="1.0" stop-color="#0c0b09"/>
    </radialGradient>
    <radialGradient cx="0" cy="0" gradientTransform="matrix(0.0038, 0.0, 0.0, 0.0038, -7.3, -1.9)" gradientUnits="userSpaceOnUse" id="gradient68" r="819.2" spreadMethod="pad">
      <stop offset="0.0" stop-color="#6e6350"/>
      <stop offset="1.0" stop-color="#6b614e"/>
    </radialGradient>
    <radialGradient cx="0" cy="0" gradientTransform="matrix(0.0054, 0.0, 0.0, 0.0054, -6.65, 0.6)" gradientUnits="userSpaceOnUse" id="gradient69" r="819.2" spreadMethod="pad">
      <stop offset="0.0" stop-color="#4f483a"/>
      <stop offset="1.0" stop-color="#373228"/>
    </radialGradient>
    <radialGradient cx="0" cy="0" gradientTransform="matrix(0.0046, 0.0, 0.0, 0.0046, -6.05, 0.4)" gradientUnits="userSpaceOnUse" id="gradient70" r="819.2" spreadMethod="pad">
      <stop offset="0.0" stop-color="#756a55"/>
      <stop offset="1.0" stop-color="#51493b"/>
    </radialGradient>
    <radialGradient cx="0" cy="0" gradientTransform="matrix(0.0078, 0.0, 0.0, 0.0078, -6.15, 1.7)" gradientUnits="userSpaceOnUse" id="gradient71" r="819.2" spreadMethod="pad">
      <stop offset="0.0" stop-color="#ffff96"/>
      <stop offset="1.0" stop-color="#ffd077"/>
    </radialGradient>
    <radialGradient cx="0" cy="0" gradientTransform="matrix(0.0028, 0.0, 0.0, 0.0028, -11.85, 4.55)" gradientUnits="userSpaceOnUse" id="gradient72" r="819.2" spreadMethod="pad">
      <stop offset="0.0" stop-color="#c28c50"/>
      <stop offset="1.0" stop-color="#b4814a"/>
    </radialGradient>
    <radialGradient cx="0" cy="0" gradientTransform="matrix(0.0021, 0.0, 0.0, 0.0021, -5.55, -1.4)" gradientUnits="userSpaceOnUse" id="gradient73" r="819.2" spreadMethod="pad">
      <stop offset="0.0" stop-color="#b18049"/>
      <stop offset="1.0" stop-color="#936a3d"/>
    </radialGradient>
  </defs>
</svg>
