<?xml version="1.0" encoding="UTF-8" standalone="no"?>
<svg xmlns:ffdec="https://www.free-decompiler.com/flash" xmlns:xlink="http://www.w3.org/1999/xlink" ffdec:objectType="shape" height="66.5px" width="38.2px" xmlns="http://www.w3.org/2000/svg">
  <g transform="matrix(1.0, 0.0, 0.0, 1.0, 26.5, 55.7)">
    <path d="M5.75 -49.0 L5.85 -49.9 Q5.35 -52.8 5.0 -52.85 L4.9 -52.95 Q4.05 -55.0 2.7 -55.5 6.7 -54.7 7.15 -50.2 L7.15 -50.0 6.45 -49.2 6.25 -48.45 5.85 -48.7 5.75 -49.0" fill="url(#gradient0)" fill-rule="evenodd" stroke="none"/>
    <path d="M6.25 -48.45 L6.45 -49.2 7.15 -50.0 7.15 -50.2 Q8.85 -51.25 10.55 -45.3 L10.3 -43.4 9.35 -41.9 Q10.35 -45.35 7.0 -47.0 L6.75 -47.1 6.45 -48.2 6.25 -48.45" fill="url(#gradient1)" fill-rule="evenodd" stroke="none"/>
    <path d="M5.75 -49.0 L4.75 -50.65 2.45 -52.85 -0.45 -55.0 -0.1 -55.0 2.15 -54.65 Q3.8 -54.2 4.9 -52.95 L5.0 -52.85 Q5.35 -52.8 5.85 -49.9 L5.75 -49.0 M-1.0 -54.9 L0.8 -52.85 2.95 -49.3 3.95 -48.4 Q2.1 -48.6 0.95 -47.1 L-0.1 -47.25 -2.4 -45.75 Q-5.3 -49.0 -3.85 -52.85 L-3.95 -53.05 -3.9 -53.05 -3.85 -53.15 -3.8 -53.2 -3.75 -53.3 -2.5 -54.5 -2.1 -54.6 -1.15 -54.85 -1.0 -54.9" fill="url(#gradient2)" fill-rule="evenodd" stroke="none"/>
    <path d="M-0.45 -55.0 L2.45 -52.85 4.75 -50.65 5.75 -49.0 5.85 -48.7 5.2 -48.85 4.15 -48.35 3.95 -48.4 2.95 -49.3 0.8 -52.85 -1.0 -54.9 -1.3 -55.25 -1.5 -55.55 -1.05 -55.35 -0.45 -55.0" fill="url(#gradient3)" fill-rule="evenodd" stroke="none"/>
    <path d="M4.15 -48.35 L5.2 -48.85 5.85 -48.7 6.25 -48.45 6.45 -48.2 6.75 -47.1 7.4 -43.7 7.6 -41.4 7.1 -42.15 6.6 -43.2 5.65 -44.75 5.4 -45.15 5.3 -45.3 4.7 -46.05 4.05 -47.6 4.15 -48.35" fill="url(#gradient4)" fill-rule="evenodd" stroke="none"/>
    <path d="M7.0 -47.0 L7.2 -46.6 7.55 -44.55 7.4 -43.7 6.75 -47.1 7.0 -47.0 M7.1 -42.15 L6.95 -41.9 6.6 -43.2 7.1 -42.15" fill="url(#gradient5)" fill-rule="evenodd" stroke="none"/>
    <path d="M6.95 -41.9 L7.0 -41.7 5.25 -43.4 5.5 -44.4 5.65 -44.75 6.6 -43.2 6.95 -41.9 M1.95 -41.25 L3.15 -41.05 3.7 -41.55 3.9 -41.85 5.3 -40.1 4.85 -40.05 5.25 -39.0 4.7 -38.0 4.7 -37.35 Q4.25 -36.45 3.75 -36.45 L3.5 -35.9 3.35 -35.95 2.7 -38.95 1.35 -40.35 1.5 -40.55 2.5 -39.25 1.65 -40.8 1.95 -41.25" fill="url(#gradient6)" fill-rule="evenodd" stroke="none"/>
    <path d="M5.5 -44.4 L5.25 -43.4 5.0 -42.85 Q3.65 -42.0 3.9 -41.85 L3.7 -41.55 3.15 -41.05 1.95 -41.25 4.55 -45.6 4.75 -44.95 4.7 -44.65 5.3 -45.3 5.4 -45.15 Q4.5 -44.0 5.5 -44.4 M0.25 -44.2 L0.05 -43.55 -0.25 -43.55 -0.6 -43.8 -1.0 -43.65 -1.05 -43.65 -0.85 -43.15 -0.2 -42.5 -0.3 -42.2 -1.2 -43.1 -1.3 -43.75 0.25 -44.2" fill="url(#gradient7)" fill-rule="evenodd" stroke="none"/>
    <path d="M5.65 -44.75 L5.5 -44.4 Q4.5 -44.0 5.4 -45.15 L5.65 -44.75" fill="url(#gradient8)" fill-rule="evenodd" stroke="none"/>
    <path d="M3.95 -48.4 L4.15 -48.35 4.05 -47.6 4.7 -46.05 4.55 -45.6 1.95 -41.25 1.65 -40.8 1.5 -40.55 1.35 -40.35 0.05 -38.55 -2.05 -36.4 -0.85 -40.2 -0.5 -41.45 -0.45 -41.55 -0.3 -42.2 -0.2 -42.5 0.05 -43.55 0.25 -44.2 0.7 -46.5 0.95 -47.1 Q2.1 -48.6 3.95 -48.4" fill="url(#gradient9)" fill-rule="evenodd" stroke="none"/>
    <path d="M0.95 -47.1 L0.7 -46.5 0.25 -44.2 -1.3 -43.75 -1.7 -43.7 -2.55 -43.5 -3.95 -43.6 -5.0 -43.75 -5.8 -44.2 -5.1 -44.35 -4.55 -44.45 -3.9 -44.8 -3.05 -45.2 -2.4 -45.75 -0.1 -47.25 0.95 -47.1" fill="url(#gradient10)" fill-rule="evenodd" stroke="none"/>
    <path d="M5.3 -45.3 L4.7 -44.65 4.75 -44.95 4.55 -45.6 4.7 -46.05 5.3 -45.3" fill="url(#gradient11)" fill-rule="evenodd" stroke="none"/>
    <path d="M7.0 -41.7 L9.1 -38.75 9.9 -37.1 10.05 -36.55 10.0 -34.9 9.15 -33.35 7.4 -31.95 7.2 -31.8 6.9 -31.6 6.7 -31.15 6.55 -31.0 6.6 -30.25 Q4.9 -20.55 1.6 -21.9 L1.75 -22.1 1.65 -22.15 1.2 -23.0 0.8 -23.9 Q-1.35 -25.3 -2.1 -25.25 L-4.75 -27.8 Q-5.35 -28.35 -5.0 -29.2 L-4.4 -29.85 -3.95 -30.2 -3.85 -30.2 -3.85 -30.25 -3.9 -30.25 -3.95 -30.6 -3.7 -31.45 -3.7 -31.5 -3.6 -31.45 -3.6 -31.4 -3.4 -30.75 -2.85 -30.25 -2.55 -29.8 -2.2 -29.75 -2.0 -29.7 Q-1.55 -29.75 -0.65 -29.2 L-0.75 -29.65 -0.85 -30.25 -0.9 -30.35 -0.85 -30.85 -1.05 -30.95 -1.1 -31.2 Q-1.15 -32.25 -1.9 -34.35 -3.0 -41.55 -3.8 -41.5 L-3.8 -41.55 -4.15 -42.45 -3.95 -43.6 -2.55 -43.5 -1.75 -41.8 -0.85 -40.2 -2.05 -36.4 0.05 -38.55 0.85 -37.2 Q2.5 -34.3 3.35 -33.5 L4.4 -31.35 4.7 -30.45 4.9 -30.35 7.0 -32.45 7.3 -32.8 Q9.55 -36.0 5.3 -40.1 L3.9 -41.85 Q3.65 -42.0 5.0 -42.85 L5.25 -43.4 7.0 -41.7 M-3.85 -29.9 L-3.85 -30.1 -3.95 -29.95 -3.85 -29.9" fill="url(#gradient12)" fill-rule="evenodd" stroke="none"/>
    <path d="M-0.5 -41.45 L-0.85 -40.2 -1.75 -41.8 -1.0 -41.55 -0.5 -41.45 M0.05 -38.55 L1.35 -40.35 2.7 -38.95 3.35 -35.95 2.5 -36.0 2.35 -36.25 Q1.85 -36.25 1.05 -37.2 L0.85 -37.2 0.05 -38.55 M1.5 -40.55 L1.65 -40.8 2.5 -39.25 1.5 -40.55 M-6.15 -39.7 L-5.85 -40.3 Q-4.65 -41.3 -3.8 -41.5 -3.0 -41.55 -1.9 -34.35 -1.15 -32.25 -1.1 -31.2 L-1.05 -30.95 -0.85 -30.85 -0.9 -30.35 -1.5 -31.0 -1.5 -30.25 -1.15 -29.85 -1.15 -29.8 -2.6 -30.7 -2.0 -29.7 -2.2 -29.75 -3.25 -31.2 -3.3 -31.3 Q-3.35 -33.6 -5.05 -35.45 L-5.6 -38.8 -6.15 -39.7 M-2.2 -31.15 L-1.7 -30.4 -2.25 -31.6 -2.2 -31.15" fill="url(#gradient13)" fill-rule="evenodd" stroke="none"/>
    <path d="M0.85 -37.2 L1.05 -37.2 Q1.85 -36.25 2.35 -36.25 L2.5 -36.0 3.35 -35.95 3.5 -35.9 Q5.05 -34.6 4.4 -31.35 L3.35 -33.5 Q2.5 -34.3 0.85 -37.2 M-1.15 -29.85 L-1.5 -30.25 -1.5 -31.0 -0.9 -30.35 -0.85 -30.25 -0.75 -29.65 -1.15 -29.85" fill="url(#gradient14)" fill-rule="evenodd" stroke="none"/>
    <path d="M3.5 -35.9 L3.75 -36.45 Q4.25 -36.45 4.7 -37.35 L4.7 -38.0 5.25 -39.0 4.85 -40.05 5.3 -40.1 Q9.55 -36.0 7.3 -32.8 L7.0 -32.45 4.9 -30.35 4.7 -30.45 4.4 -31.35 Q5.05 -34.6 3.5 -35.9 M1.2 -23.0 L1.65 -22.15 1.25 -22.3 1.2 -23.0 M-3.25 -31.2 L-2.2 -29.75 -2.55 -29.8 -2.85 -30.25 -3.4 -30.75 -3.6 -31.4 -3.55 -31.4 -3.4 -31.3 -3.3 -31.25 -3.25 -31.2 M-2.0 -29.7 L-2.6 -30.7 -1.15 -29.8 -1.15 -29.85 -0.75 -29.65 -0.65 -29.2 Q-1.55 -29.75 -2.0 -29.7" fill="url(#gradient15)" fill-rule="evenodd" stroke="none"/>
    <path d="M7.4 -31.95 L8.0 -31.1 Q8.45 -29.9 8.2 -29.65 L7.8 -30.25 7.2 -30.85 7.2 -31.8 7.4 -31.95" fill="url(#gradient16)" fill-rule="evenodd" stroke="none"/>
    <path d="M1.6 -21.9 L1.3 -22.0 1.25 -22.3 1.65 -22.15 1.75 -22.1 1.6 -21.9 M-3.9 -30.25 L-3.85 -30.25 -3.85 -30.2 -3.95 -30.2 -3.95 -30.25 -3.9 -30.25 M-3.85 -29.9 L-3.95 -29.95 -3.85 -30.1 -3.85 -29.9" fill="url(#gradient17)" fill-rule="evenodd" stroke="none"/>
    <path d="M8.2 -29.65 L8.45 -29.3 9.15 -25.7 Q9.25 -22.2 6.75 -17.65 L5.7 -16.9 3.0 -16.3 2.7 -16.45 2.3 -17.05 2.25 -16.3 1.8 -17.55 1.4 -19.05 1.35 -19.2 1.45 -21.35 1.3 -22.0 1.6 -21.9 Q4.9 -20.55 6.6 -30.25 L6.55 -31.0 6.7 -31.15 7.2 -30.85 7.8 -30.25 8.2 -29.65" fill="url(#gradient18)" fill-rule="evenodd" stroke="none"/>
    <path d="M7.2 -31.8 L7.2 -30.85 6.7 -31.15 6.9 -31.6 7.2 -31.8" fill="url(#gradient19)" fill-rule="evenodd" stroke="none"/>
    <path d="M0.9 -16.45 Q0.3 -13.95 -0.8 -11.95 L-1.35 -11.3 -3.55 -10.35 -4.45 -10.65 -4.6 -10.7 -5.25 -10.1 -5.65 -10.8 -5.65 -11.3 -5.55 -11.9 -5.65 -12.3 Q-6.55 -13.5 -7.05 -15.9 L-7.25 -19.4 -6.95 -18.9 Q-6.25 -17.45 -4.2 -17.1 -2.0 -17.15 -3.85 -18.9 -5.85 -20.35 -5.85 -20.75 L-6.45 -21.05 -6.85 -21.65 -7.1 -21.55 -6.95 -22.6 Q-5.8 -19.75 -3.9 -21.05 -4.1 -22.7 -5.95 -24.2 -4.8 -25.3 -2.1 -25.25 -1.35 -25.3 0.8 -23.9 L1.2 -23.0 1.25 -22.3 1.3 -22.0 1.45 -21.35 1.35 -19.2 1.35 -19.05 0.95 -16.6 0.9 -16.45" fill="url(#gradient20)" fill-rule="evenodd" stroke="none"/>
    <path d="M1.35 -19.2 L1.4 -19.05 1.35 -19.05 1.35 -19.2" fill="url(#gradient21)" fill-rule="evenodd" stroke="none"/>
    <path d="M6.1 -16.0 L6.45 -14.55 Q6.45 -12.25 6.1 -12.0 L6.0 -11.65 5.95 -11.6 Q3.8 -8.8 1.6 -11.35 L1.5 -11.5 1.4 -11.75 Q0.6 -15.0 0.9 -16.45 L0.95 -16.6 Q1.15 -17.45 1.8 -17.55 L2.25 -16.3 2.4 -16.0 2.7 -16.45 3.0 -16.3 3.5 -15.75 4.5 -15.35 4.55 -15.05 4.7 -15.0 5.4 -15.0 5.75 -15.7 6.1 -16.0" fill="url(#gradient22)" fill-rule="evenodd" stroke="none"/>
    <path d="M6.75 -17.65 L6.65 -16.85 6.1 -16.0 5.75 -15.7 5.55 -15.6 5.2 -15.4 4.5 -15.35 3.5 -15.75 3.0 -16.3 5.7 -16.9 6.75 -17.65" fill="url(#gradient23)" fill-rule="evenodd" stroke="none"/>
    <path d="M2.25 -16.3 L2.3 -17.05 2.7 -16.45 2.4 -16.0 2.25 -16.3" fill="url(#gradient24)" fill-rule="evenodd" stroke="none"/>
    <path d="M4.5 -15.35 L5.2 -15.4 5.55 -15.6 5.75 -15.7 5.4 -15.0 4.7 -15.0 4.55 -15.05 4.5 -15.35" fill="url(#gradient25)" fill-rule="evenodd" stroke="none"/>
    <path d="M5.85 -9.55 L5.85 -9.35 5.55 -8.65 Q2.4 -6.95 1.75 -9.75 L1.8 -9.75 Q4.0 -7.8 5.85 -9.55 M5.95 -11.6 L6.0 -11.6 5.95 -11.25 5.45 -10.55 5.35 -10.45 4.5 -10.05 3.2 -9.95 2.95 -10.05 2.2 -10.4 2.0 -10.55 1.5 -11.25 1.5 -11.45 1.6 -11.35 Q3.8 -8.8 5.95 -11.6 M5.8 -6.35 Q6.85 -3.95 3.3 -3.5 1.9 -3.45 1.65 -5.9 5.15 -2.9 5.8 -6.35 M5.4 -6.3 L5.15 -6.1 3.9 -5.8 Q1.65 -6.15 1.8 -7.6 L1.8 -7.8 2.05 -7.6 Q3.1 -5.95 5.65 -7.45 5.75 -6.75 5.4 -6.3" fill="url(#gradient26)" fill-rule="evenodd" stroke="none"/>
    <path d="M1.4 -11.35 L1.4 -11.75 1.5 -11.5 1.5 -11.45 1.5 -11.25 1.4 -11.35 M6.0 -11.6 L5.95 -11.6 6.0 -11.65 6.0 -11.6 M3.2 -9.95 L4.5 -10.05 5.35 -10.45 4.55 -9.95 Q3.9 -9.75 3.2 -9.95 M5.45 -10.55 L5.95 -11.25 5.8 -10.85 5.45 -10.55" fill="url(#gradient27)" fill-rule="evenodd" stroke="none"/>
    <path d="M6.1 -12.0 L6.25 -10.4 5.85 -9.55 Q4.0 -7.8 1.8 -9.75 L1.75 -9.8 1.65 -9.95 1.4 -11.35 1.5 -11.25 2.0 -10.55 2.2 -10.4 2.95 -10.05 3.2 -9.95 Q3.9 -9.75 4.55 -9.95 L5.35 -10.45 5.45 -10.55 5.8 -10.85 5.95 -11.25 6.0 -11.6 6.0 -11.65 6.1 -12.0" fill="url(#gradient28)" fill-rule="evenodd" stroke="none"/>
    <path d="M5.7 -7.55 L5.8 -6.8 5.75 -6.65 5.4 -6.3 Q5.75 -6.75 5.65 -7.45 L5.7 -7.55 M1.65 -7.0 L1.75 -7.85 1.8 -7.85 1.8 -7.8 1.8 -7.6 Q1.65 -6.15 3.9 -5.8 L5.15 -6.1 Q3.4 -4.85 1.65 -7.0" fill="url(#gradient29)" fill-rule="evenodd" stroke="none"/>
    <path d="M1.65 -6.55 L1.65 -7.0 Q3.4 -4.85 5.15 -6.1 L5.4 -6.3 5.75 -6.65 5.8 -6.35 Q5.15 -2.9 1.65 -5.9 L1.65 -6.55" fill="url(#gradient30)" fill-rule="evenodd" stroke="none"/>
    <path d="M5.8 -6.8 Q13.95 -4.7 10.8 -1.2 L5.8 -1.95 Q3.85 -2.25 1.8 -3.25 L1.0 -4.55 Q0.95 -5.85 1.65 -6.55 L1.65 -5.9 Q1.9 -3.45 3.3 -3.5 6.85 -3.95 5.8 -6.35 L5.75 -6.65 5.8 -6.8" fill="url(#gradient31)" fill-rule="evenodd" stroke="none"/>
    <path d="M5.85 -9.35 L5.9 -7.9 5.7 -7.55 5.65 -7.45 Q3.1 -5.95 2.05 -7.6 L1.8 -7.8 1.8 -7.85 1.8 -7.9 1.6 -9.2 Q3.15 -6.8 5.55 -8.65 L5.85 -9.35" fill="url(#gradient32)" fill-rule="evenodd" stroke="none"/>
    <path d="M1.6 -11.35 L1.5 -11.45 1.5 -11.5 1.6 -11.35" fill="url(#gradient33)" fill-rule="evenodd" stroke="none"/>
    <path d="M1.6 -9.2 L1.65 -9.95 1.75 -9.8 1.75 -9.75 Q2.4 -6.95 5.55 -8.65 3.15 -6.8 1.6 -9.2" fill="url(#gradient34)" fill-rule="evenodd" stroke="none"/>
    <path d="M1.75 -9.8 L1.8 -9.75 1.75 -9.75 1.75 -9.8" fill="url(#gradient35)" fill-rule="evenodd" stroke="none"/>
    <path d="M1.75 -7.85 L1.8 -7.9 1.8 -7.85 1.75 -7.85" fill="url(#gradient36)" fill-rule="evenodd" stroke="none"/>
    <path d="M-15.75 -28.15 L-16.1 -27.65 -16.25 -27.65 Q-17.1 -27.05 -17.85 -28.5 L-18.1 -30.25 Q-18.45 -32.55 -16.65 -34.05 L-16.45 -35.0 -16.5 -35.7 -15.45 -37.8 Q-15.6 -38.45 -14.8 -41.55 L-14.75 -42.0 Q-12.7 -45.0 -12.55 -45.75 L-12.7 -46.45 -13.25 -47.15 -13.4 -47.15 -13.9 -47.3 -15.1 -47.1 Q-13.45 -49.8 -11.45 -49.9 L-11.3 -49.95 -11.2 -49.95 -9.75 -49.95 Q-8.35 -50.6 -8.85 -45.25 L-9.2 -43.4 -10.15 -40.4 -11.15 -38.4 -15.4 -28.65 -15.75 -28.15" fill="url(#gradient37)" fill-rule="evenodd" stroke="none"/>
    <path d="M-11.2 -49.95 L-10.1 -50.2 -9.75 -49.95 -11.2 -49.95" fill="url(#gradient38)" fill-rule="evenodd" stroke="none"/>
    <path d="M-0.1 -55.0 L-0.45 -55.0 -1.05 -55.35 Q-0.85 -55.5 -0.6 -55.6 L-0.1 -55.0 M-1.3 -55.25 L-1.0 -54.9 -1.15 -54.85 -1.35 -55.15 -1.3 -55.25" fill="url(#gradient39)" fill-rule="evenodd" stroke="none"/>
    <path d="M-3.8 -53.3 L-2.85 -55.05 -2.2 -55.7 -2.1 -54.6 -2.5 -54.5 -3.75 -53.3 -3.8 -53.3" fill="url(#gradient40)" fill-rule="evenodd" stroke="none"/>
    <path d="M-2.2 -55.7 L-1.35 -55.15 -1.15 -54.85 -2.1 -54.6 -2.2 -55.7" fill="url(#gradient41)" fill-rule="evenodd" stroke="none"/>
    <path d="M-5.8 -49.15 L-5.85 -50.95 -4.45 -52.8 -3.95 -53.05 -3.85 -52.85 Q-5.3 -49.0 -2.4 -45.75 L-3.05 -45.2 -3.4 -45.4 -5.15 -47.7 -5.8 -49.15" fill="url(#gradient42)" fill-rule="evenodd" stroke="none"/>
    <path d="M-3.95 -53.05 L-3.85 -53.15 -3.9 -53.05 -3.95 -53.05 M-3.8 -53.2 L-3.8 -53.3 -3.75 -53.3 -3.8 -53.2" fill="url(#gradient43)" fill-rule="evenodd" stroke="none"/>
    <path d="M-7.1 -45.2 L-6.65 -46.65 -6.15 -47.15 Q-6.3 -45.05 -3.9 -44.8 L-4.55 -44.45 -5.1 -44.35 -5.5 -44.9 -7.1 -45.2" fill="url(#gradient44)" fill-rule="evenodd" stroke="none"/>
    <path d="M-6.15 -47.15 L-6.15 -48.1 -5.8 -49.15 -5.15 -47.7 -3.4 -45.4 -3.05 -45.2 -3.9 -44.8 Q-6.3 -45.05 -6.15 -47.15" fill="url(#gradient45)" fill-rule="evenodd" stroke="none"/>
    <path d="M-5.0 -43.75 L-3.95 -43.6 -4.15 -42.45 -3.8 -41.55 -3.8 -41.5 Q-4.65 -41.3 -5.85 -40.3 L-6.15 -39.7 -7.85 -40.5 -8.45 -40.45 -8.1 -41.55 -7.55 -42.15 Q-6.5 -42.5 -5.0 -43.75 M-5.05 -35.45 Q-3.35 -33.6 -3.3 -31.3 L-3.3 -31.25 -3.4 -31.3 -3.55 -31.4 -3.6 -31.45 -3.7 -31.5 -3.95 -31.75 -4.0 -31.8 -4.1 -31.8 -4.2 -31.95 -4.3 -32.0 -4.6 -32.2 -4.7 -32.25 -4.8 -32.35 -4.85 -32.35 -5.15 -32.6 -5.2 -32.6 -5.35 -32.75 -5.4 -32.75 -5.85 -33.05 -5.35 -34.0 -5.05 -35.45" fill="url(#gradient46)" fill-rule="evenodd" stroke="none"/>
    <path d="M0.05 -43.55 L-0.2 -42.5 -0.85 -43.15 -1.05 -43.65 -1.0 -43.65 -0.6 -43.8 -0.25 -43.55 0.05 -43.55" fill="url(#gradient47)" fill-rule="evenodd" stroke="none"/>
    <path d="M-1.7 -43.7 L-1.3 -43.75 -1.2 -43.1 -1.7 -43.7" fill="url(#gradient48)" fill-rule="evenodd" stroke="none"/>
    <path d="M-0.3 -42.2 L-0.45 -41.55 -0.5 -41.45 -1.0 -41.55 -1.75 -41.8 -2.55 -43.5 -1.7 -43.7 -1.2 -43.1 -0.3 -42.2" fill="url(#gradient49)" fill-rule="evenodd" stroke="none"/>
    <path d="M-8.85 -45.25 L-7.1 -45.2 -5.5 -44.9 -5.1 -44.35 -5.8 -44.2 -5.0 -43.75 Q-6.5 -42.5 -7.55 -42.15 L-8.1 -41.55 -8.45 -40.45 -9.45 -40.25 Q-10.6 -39.25 -10.6 -38.35 L-11.15 -38.4 -10.15 -40.4 -9.2 -43.4 -8.85 -45.25 M-10.8 -35.5 L-10.65 -34.45 -10.95 -33.0 -12.3 -31.15 Q-13.2 -30.35 -13.55 -30.75 -14.25 -31.2 -13.05 -32.95 L-10.8 -35.5" fill="url(#gradient50)" fill-rule="evenodd" stroke="none"/>
    <path d="M-11.35 -27.4 L-11.4 -28.1 -10.95 -33.0 -10.65 -34.45 -10.8 -35.5 -11.0 -36.9 -10.6 -38.3 -10.6 -38.35 Q-10.6 -39.25 -9.45 -40.25 L-8.45 -40.45 -7.85 -40.5 -6.15 -39.7 -5.6 -38.8 -5.05 -35.45 -5.35 -34.0 -5.85 -33.05 -6.45 -32.2 -6.65 -32.1 -7.0 -29.35 -7.5 -27.9 Q-9.9 -25.3 -11.35 -27.4" fill="url(#gradient51)" fill-rule="evenodd" stroke="none"/>
    <path d="M-23.9 -31.8 Q-21.6 -42.9 -15.75 -46.7 L-14.4 -47.1 -13.4 -47.15 -13.25 -47.15 -12.7 -46.45 -12.55 -45.75 Q-12.7 -45.0 -14.75 -42.0 L-14.8 -41.55 Q-15.6 -38.45 -15.45 -37.8 L-16.5 -35.7 -19.1 -32.4 -19.65 -31.3 -21.8 -28.65 -22.6 -28.55 -23.05 -29.85 -23.0 -30.25 Q-17.0 -50.95 -23.9 -31.8" fill="url(#gradient52)" fill-rule="evenodd" stroke="none"/>
    <path d="M-15.75 -46.7 L-15.1 -47.1 -13.9 -47.3 -13.4 -47.15 -14.4 -47.1 -15.75 -46.7" fill="url(#gradient53)" fill-rule="evenodd" stroke="none"/>
    <path d="M-11.15 -38.4 L-10.6 -38.35 -10.6 -38.3 -11.15 -38.4" fill="url(#gradient54)" fill-rule="evenodd" stroke="none"/>
    <path d="M-13.55 -30.7 L-14.6 -29.1 Q-15.8 -27.7 -15.75 -28.15 L-15.4 -28.65 -11.15 -38.4 -10.6 -38.3 -11.0 -36.9 -10.8 -35.5 -13.05 -32.95 Q-14.25 -31.2 -13.55 -30.75 L-13.55 -30.7" fill="url(#gradient55)" fill-rule="evenodd" stroke="none"/>
    <path d="M-11.4 -28.1 Q-13.95 -20.5 -13.55 -30.7 L-13.55 -30.75 Q-13.2 -30.35 -12.3 -31.15 L-10.95 -33.0 -11.4 -28.1" fill="url(#gradient56)" fill-rule="evenodd" stroke="none"/>
    <path d="M-16.25 -27.65 L-16.25 -24.4 -16.35 -23.65 -16.85 -23.5 Q-17.9 -23.7 -19.6 -31.05 L-19.65 -31.3 -19.1 -32.4 -16.5 -35.7 -16.45 -35.0 -16.65 -34.05 Q-18.45 -32.55 -18.1 -30.25 L-17.85 -28.5 Q-17.1 -27.05 -16.25 -27.65" fill="url(#gradient57)" fill-rule="evenodd" stroke="none"/>
    <path d="M-19.6 -31.05 Q-30.7 -1.75 -23.95 -31.6 L-23.9 -31.75 -23.9 -31.8 Q-17.0 -50.95 -23.0 -30.25 L-23.05 -29.85 -22.6 -28.55 -21.8 -28.65 -19.65 -31.3 -19.6 -31.05" fill="url(#gradient58)" fill-rule="evenodd" stroke="none"/>
    <path d="M-7.0 -24.9 Q-7.45 -21.7 -8.0 -21.5 L-8.35 -18.85 -8.4 -18.4 -8.9 -18.0 -10.15 -18.35 -11.4 -19.6 -11.45 -20.9 Q-11.85 -22.3 -11.9 -25.05 L-11.35 -27.4 Q-9.9 -25.3 -7.5 -27.9 L-7.2 -27.4 -7.0 -25.15 -7.0 -24.9" fill="url(#gradient59)" fill-rule="evenodd" stroke="none"/>
    <path d="M-5.85 -33.05 L-5.4 -32.75 -5.35 -32.75 -5.2 -32.6 -5.15 -32.6 -4.85 -32.35 -4.8 -32.35 -4.7 -32.25 -4.6 -32.2 -4.3 -32.0 -4.2 -31.95 -4.1 -31.8 -4.0 -31.8 -3.95 -31.75 -3.7 -31.5 -3.7 -31.45 -4.7 -31.3 Q-5.4 -30.6 -4.95 -30.25 L-5.3 -30.4 -5.95 -30.95 -6.35 -31.45 -6.45 -32.2 -5.85 -33.05" fill="url(#gradient60)" fill-rule="evenodd" stroke="none"/>
    <path d="M-3.6 -31.45 L-3.55 -31.4 -3.6 -31.4 -3.6 -31.45" fill="url(#gradient61)" fill-rule="evenodd" stroke="none"/>
    <path d="M-3.3 -31.3 L-3.25 -31.2 -3.3 -31.25 -3.3 -31.3" fill="url(#gradient62)" fill-rule="evenodd" stroke="none"/>
    <path d="M-3.7 -31.45 L-3.95 -30.6 -3.9 -30.25 -3.95 -30.25 -3.95 -30.2 -4.4 -29.85 -4.85 -30.25 -4.95 -30.25 Q-5.4 -30.6 -4.7 -31.3 L-3.7 -31.45" fill="url(#gradient63)" fill-rule="evenodd" stroke="none"/>
    <path d="M-2.2 -31.15 L-2.25 -31.6 -1.7 -30.4 -2.2 -31.15" fill="url(#gradient64)" fill-rule="evenodd" stroke="none"/>
    <path d="M-6.8 -27.65 L-6.75 -27.65 -6.75 -27.6 -6.8 -27.65" fill="url(#gradient65)" fill-rule="evenodd" stroke="none"/>
    <path d="M-4.4 -29.85 L-5.0 -29.2 -5.95 -28.5 -6.6 -27.25 -6.65 -27.25 -6.75 -27.45 -6.75 -27.6 -6.75 -27.65 -6.8 -27.65 Q-7.05 -27.85 -6.7 -29.9 L-5.95 -30.95 -5.3 -30.4 -4.95 -30.25 -4.85 -30.25 -4.4 -29.85" fill="url(#gradient66)" fill-rule="evenodd" stroke="none"/>
    <path d="M-6.65 -27.25 L-6.6 -27.25 -6.65 -27.15 -6.65 -27.25" fill="url(#gradient67)" fill-rule="evenodd" stroke="none"/>
    <path d="M-6.65 -24.15 L-7.0 -24.9 -7.0 -25.15 -6.95 -26.35 -6.65 -27.15 -6.6 -27.25 -5.95 -28.5 -5.0 -29.2 Q-5.35 -28.35 -4.75 -27.8 L-2.1 -25.25 Q-4.8 -25.3 -5.95 -24.2 L-6.65 -24.15" fill="url(#gradient68)" fill-rule="evenodd" stroke="none"/>
    <path d="M-6.95 -22.6 L-6.9 -23.4 -6.65 -24.15 -5.95 -24.2 Q-4.1 -22.7 -3.9 -21.05 -5.8 -19.75 -6.95 -22.6" fill="url(#gradient69)" fill-rule="evenodd" stroke="none"/>
    <path d="M-7.25 -19.4 L-7.35 -20.65 -7.1 -21.55 -6.85 -21.65 -6.45 -21.05 -5.85 -20.75 Q-5.85 -20.35 -3.85 -18.9 -2.0 -17.15 -4.2 -17.1 -6.25 -17.45 -6.95 -18.9 L-7.25 -19.4" fill="url(#gradient70)" fill-rule="evenodd" stroke="none"/>
    <path d="M-9.85 -15.55 L-10.2 -15.45 Q-12.6 -14.8 -13.7 -17.35 -14.25 -20.15 -11.45 -20.9 L-11.4 -19.6 -10.15 -18.35 -8.9 -18.0 Q-9.0 -15.9 -9.85 -15.55" fill="url(#gradient71)" fill-rule="evenodd" stroke="none"/>
    <path d="M-8.35 -18.85 Q-7.0 -16.3 -9.85 -15.55 -9.0 -15.9 -8.9 -18.0 L-8.4 -18.4 -8.35 -18.85" fill="url(#gradient72)" fill-rule="evenodd" stroke="none"/>
    <path d="M-0.8 -11.95 L-1.3 -10.6 -2.1 -9.6 Q-4.55 -6.65 -4.85 -10.1 L-4.8 -10.4 -4.45 -10.65 -3.55 -10.35 -1.35 -11.3 -0.8 -11.95" fill="url(#gradient73)" fill-rule="evenodd" stroke="none"/>
    <path d="M-4.45 -10.65 L-4.8 -10.4 -4.85 -10.1 -5.25 -10.1 -4.6 -10.7 -4.45 -10.65" fill="url(#gradient74)" fill-rule="evenodd" stroke="none"/>
    <path d="M-2.1 -9.6 Q-1.5 -7.25 -3.05 -4.4 L-3.25 -4.2 Q-5.7 -1.9 -7.85 -4.45 L-7.95 -5.0 -8.1 -5.95 -7.85 -8.25 -7.8 -8.35 -7.8 -8.4 -7.7 -8.55 -7.7 -8.7 -7.7 -8.75 Q-7.4 -11.05 -5.95 -11.75 L-6.5 -10.6 -5.65 -11.3 -5.65 -10.8 -5.25 -10.1 -4.85 -10.1 Q-4.55 -6.65 -2.1 -9.6" fill="url(#gradient75)" fill-rule="evenodd" stroke="none"/>
    <path d="M-5.95 -11.75 L-5.65 -12.3 -5.55 -11.9 -5.65 -11.3 -6.5 -10.6 -5.95 -11.75" fill="url(#gradient76)" fill-rule="evenodd" stroke="none"/>
    <path d="M-3.15 -4.15 L-3.15 -4.1 -3.2 -4.1 -3.2 -4.15 -3.15 -4.15 M-3.15 -3.9 L-3.2 -2.8 -3.5 -2.15 -3.55 -2.05 Q-6.35 -0.55 -7.65 -2.3 L-7.7 -2.35 -7.85 -2.5 -8.1 -3.2 -8.05 -4.35 -7.45 -3.6 Q-6.95 -2.9 -6.2 -2.8 -4.8 -2.35 -3.15 -3.9" fill="url(#gradient77)" fill-rule="evenodd" stroke="none"/>
    <path d="M-3.05 -4.4 L-3.15 -4.15 -3.2 -4.15 -3.25 -4.2 -3.05 -4.4 M-3.15 -4.1 L-3.15 -3.9 Q-4.8 -2.35 -6.2 -2.8 -5.05 -2.65 -3.2 -4.1 L-3.15 -4.1 M-8.05 -4.35 L-7.95 -5.0 -7.85 -4.45 -7.45 -3.6 -8.05 -4.35" fill="url(#gradient78)" fill-rule="evenodd" stroke="none"/>
    <path d="M-7.7 -2.35 L-7.65 -2.3 -7.7 -2.3 -7.7 -2.35" fill="url(#gradient79)" fill-rule="evenodd" stroke="none"/>
    <path d="M-3.65 2.35 L-3.65 2.9 -4.0 3.45 -5.2 4.05 -6.1 3.7 Q-7.6 3.0 -7.65 2.45 L-7.85 2.5 -7.85 2.35 -7.9 1.95 -7.8 1.4 -7.7 1.3 Q-7.2 3.95 -3.65 2.35 M-7.85 -4.45 Q-5.7 -1.9 -3.25 -4.2 L-3.2 -4.15 -3.2 -4.1 Q-5.05 -2.65 -6.2 -2.8 -6.95 -2.9 -7.45 -3.6 L-7.85 -4.45 M-7.65 -2.3 Q-6.35 -0.55 -3.55 -2.05 L-3.95 -1.0 -4.75 -0.5 -5.3 -0.35 -5.35 -0.35 Q-8.05 -1.05 -7.7 -2.3 L-7.65 -2.3 M-3.7 0.0 Q-4.75 3.25 -7.0 0.45 -4.3 1.4 -3.7 0.0" fill="url(#gradient80)" fill-rule="evenodd" stroke="none"/>
    <path d="M-3.5 -2.15 L-3.5 -1.55 Q-3.7 -0.9 -4.3 -0.6 L-4.75 -0.5 -3.95 -1.0 -3.55 -2.05 -3.5 -2.15 M-7.9 -1.75 L-7.85 -2.5 -7.7 -2.35 -7.7 -2.3 Q-8.05 -1.05 -5.35 -0.35 -6.7 0.0 -7.9 -1.75" fill="url(#gradient81)" fill-rule="evenodd" stroke="none"/>
    <path d="M-3.5 -1.55 L-3.55 -0.25 -3.7 0.0 Q-4.3 1.4 -7.0 0.45 L-7.7 -0.15 -7.9 -0.75 -7.9 -1.75 Q-6.7 0.0 -5.35 -0.35 L-5.3 -0.35 -4.75 -0.5 -4.3 -0.6 Q-3.7 -0.9 -3.5 -1.55" fill="url(#gradient82)" fill-rule="evenodd" stroke="none"/>
    <path d="M-3.55 -0.25 L-3.4 0.05 -3.45 0.5 Q-5.35 3.35 -7.7 0.6 L-7.7 0.5 -7.7 0.45 -7.7 -0.15 -7.0 0.45 Q-4.75 3.25 -3.7 0.0 L-3.55 -0.25" fill="url(#gradient83)" fill-rule="evenodd" stroke="none"/>
    <path d="M-3.65 2.9 Q-0.75 9.05 -2.65 10.8 L-3.85 10.55 -4.95 10.8 Q-7.25 10.75 -7.85 2.5 L-7.65 2.45 Q-7.6 3.0 -6.1 3.7 L-5.2 4.05 -4.0 3.45 -3.65 2.9 M-7.8 1.4 L-7.7 1.15 -7.7 1.3 -7.8 1.4" fill="url(#gradient84)" fill-rule="evenodd" stroke="none"/>
    <path d="M-3.45 0.5 L-3.35 1.6 -3.65 2.35 Q-7.2 3.95 -7.7 1.3 L-7.7 1.15 -7.7 0.6 Q-5.35 3.35 -3.45 0.5" fill="url(#gradient85)" fill-rule="evenodd" stroke="none"/>
    <path d="M-2.65 10.8 L-4.95 10.8 -3.85 10.55 -2.65 10.8" fill="url(#gradient86)" fill-rule="evenodd" stroke="none"/>
  </g>
  <defs>
    <radialGradient cx="0" cy="0" gradientTransform="matrix(0.0089, 0.0, 0.0, 0.0089, 5.1, -48.9)" gradientUnits="userSpaceOnUse" id="gradient0" r="819.2" spreadMethod="pad">
      <stop offset="0.0" stop-color="#6dbbe9"/>
      <stop offset="1.0" stop-color="#3a637c"/>
    </radialGradient>
    <radialGradient cx="0" cy="0" gradientTransform="matrix(0.0104, 0.0, 0.0, 0.0104, 5.45, -49.55)" gradientUnits="userSpaceOnUse" id="gradient1" r="819.2" spreadMethod="pad">
      <stop offset="0.0" stop-color="#6cb9e7"/>
      <stop offset="1.0" stop-color="#3a637b"/>
    </radialGradient>
    <radialGradient cx="0" cy="0" gradientTransform="matrix(0.0088, 0.0, 0.0, 0.0088, 1.8, -48.85)" gradientUnits="userSpaceOnUse" id="gradient2" r="819.2" spreadMethod="pad">
      <stop offset="0.0" stop-color="#6cb9e7"/>
      <stop offset="1.0" stop-color="#477a98"/>
    </radialGradient>
    <radialGradient cx="0" cy="0" gradientTransform="matrix(0.0078, 0.0, 0.0, 0.0078, 2.95, -51.25)" gradientUnits="userSpaceOnUse" id="gradient3" r="819.2" spreadMethod="pad">
      <stop offset="0.0" stop-color="#6cbae8"/>
      <stop offset="1.0" stop-color="#457694"/>
    </radialGradient>
    <radialGradient cx="0" cy="0" gradientTransform="matrix(0.0057, 0.0, 0.0, 0.0057, 6.3, -45.15)" gradientUnits="userSpaceOnUse" id="gradient4" r="819.2" spreadMethod="pad">
      <stop offset="0.0" stop-color="#6cb9e7"/>
      <stop offset="1.0" stop-color="#4b81a1"/>
    </radialGradient>
    <radialGradient cx="0" cy="0" gradientTransform="matrix(0.0048, 0.0, 0.0, 0.0048, 5.95, -44.5)" gradientUnits="userSpaceOnUse" id="gradient5" r="819.2" spreadMethod="pad">
      <stop offset="0.0" stop-color="#353e64"/>
      <stop offset="1.0" stop-color="#20253d"/>
    </radialGradient>
    <radialGradient cx="0" cy="0" gradientTransform="matrix(0.0094, 0.0, 0.0, 0.0094, 0.85, -42.5)" gradientUnits="userSpaceOnUse" id="gradient6" r="819.2" spreadMethod="pad">
      <stop offset="0.0" stop-color="#9c9cc2"/>
      <stop offset="1.0" stop-color="#8585a6"/>
    </radialGradient>
    <radialGradient cx="0" cy="0" gradientTransform="matrix(0.0087, 0.0, 0.0, 0.0087, 2.6, -48.25)" gradientUnits="userSpaceOnUse" id="gradient7" r="819.2" spreadMethod="pad">
      <stop offset="0.0" stop-color="#9b9bc1"/>
      <stop offset="1.0" stop-color="#535368"/>
    </radialGradient>
    <radialGradient cx="0" cy="0" gradientTransform="matrix(0.001, 0.0, 0.0, 0.001, 5.05, -45.05)" gradientUnits="userSpaceOnUse" id="gradient8" r="819.2" spreadMethod="pad">
      <stop offset="0.0" stop-color="#2e3656"/>
      <stop offset="1.0" stop-color="#28304d"/>
    </radialGradient>
    <radialGradient cx="0" cy="0" gradientTransform="matrix(0.0136, 0.0, 0.0, 0.0136, 2.5, -46.6)" gradientUnits="userSpaceOnUse" id="gradient9" r="819.2" spreadMethod="pad">
      <stop offset="0.0" stop-color="#6bb7e5"/>
      <stop offset="1.0" stop-color="#41718d"/>
    </radialGradient>
    <radialGradient cx="0" cy="0" gradientTransform="matrix(0.0083, 0.0, 0.0, 0.0083, 0.55, -46.45)" gradientUnits="userSpaceOnUse" id="gradient10" r="819.2" spreadMethod="pad">
      <stop offset="0.0" stop-color="#6cbae8"/>
      <stop offset="1.0" stop-color="#42728f"/>
    </radialGradient>
    <radialGradient cx="0" cy="0" gradientTransform="matrix(0.0023, 0.0, 0.0, 0.0023, 4.85, -46.5)" gradientUnits="userSpaceOnUse" id="gradient11" r="819.2" spreadMethod="pad">
      <stop offset="0.0" stop-color="#2c3453"/>
      <stop offset="1.0" stop-color="#161a2a"/>
    </radialGradient>
    <radialGradient cx="0" cy="0" gradientTransform="matrix(0.0231, 0.0, 0.0, 0.0231, -1.2, -40.7)" gradientUnits="userSpaceOnUse" id="gradient12" r="819.2" spreadMethod="pad">
      <stop offset="0.0" stop-color="#3d4974"/>
      <stop offset="1.0" stop-color="#1b2033"/>
    </radialGradient>
    <radialGradient cx="0" cy="0" gradientTransform="matrix(0.0108, 0.0, 0.0, 0.0108, -3.55, -37.75)" gradientUnits="userSpaceOnUse" id="gradient13" r="819.2" spreadMethod="pad">
      <stop offset="0.0" stop-color="#a7a7d0"/>
      <stop offset="1.0" stop-color="#6d6d89"/>
    </radialGradient>
    <radialGradient cx="0" cy="0" gradientTransform="matrix(0.0092, 0.0, 0.0, 0.0092, 0.35, -36.85)" gradientUnits="userSpaceOnUse" id="gradient14" r="819.2" spreadMethod="pad">
      <stop offset="0.0" stop-color="#9f9fc7"/>
      <stop offset="1.0" stop-color="#56566a"/>
    </radialGradient>
    <radialGradient cx="0" cy="0" gradientTransform="matrix(0.0189, 0.0, 0.0, 0.0189, 6.05, -37.1)" gradientUnits="userSpaceOnUse" id="gradient15" r="819.2" spreadMethod="pad">
      <stop offset="0.0" stop-color="#acacd7"/>
      <stop offset="1.0" stop-color="#58586e"/>
    </radialGradient>
    <radialGradient cx="0" cy="0" gradientTransform="matrix(0.0022, 0.0, 0.0, 0.0022, 6.75, -30.85)" gradientUnits="userSpaceOnUse" id="gradient16" r="819.2" spreadMethod="pad">
      <stop offset="0.0" stop-color="#3b466f"/>
      <stop offset="1.0" stop-color="#222840"/>
    </radialGradient>
    <radialGradient cx="0" cy="0" gradientTransform="matrix(0.0171, 0.0, 0.0, 0.0171, -4.05, -30.25)" gradientUnits="userSpaceOnUse" id="gradient17" r="819.2" spreadMethod="pad">
      <stop offset="0.0" stop-color="#1f253b"/>
      <stop offset="1.0" stop-color="#08090e"/>
    </radialGradient>
    <radialGradient cx="0" cy="0" gradientTransform="matrix(0.0162, 0.0, 0.0, 0.0162, 4.65, -29.1)" gradientUnits="userSpaceOnUse" id="gradient18" r="819.2" spreadMethod="pad">
      <stop offset="0.0" stop-color="#a8a8d2"/>
      <stop offset="1.0" stop-color="#404050"/>
    </radialGradient>
    <radialGradient cx="0" cy="0" gradientTransform="matrix(0.0047, 0.0, 0.0, 0.0047, 6.4, -28.5)" gradientUnits="userSpaceOnUse" id="gradient19" r="819.2" spreadMethod="pad">
      <stop offset="0.0" stop-color="#222841"/>
      <stop offset="1.0" stop-color="#20263d"/>
    </radialGradient>
    <radialGradient cx="0" cy="0" gradientTransform="matrix(0.0191, 0.0, 0.0, 0.0191, -1.75, -24.8)" gradientUnits="userSpaceOnUse" id="gradient20" r="819.2" spreadMethod="pad">
      <stop offset="0.0" stop-color="#b2b2de"/>
      <stop offset="1.0" stop-color="#616179"/>
    </radialGradient>
    <radialGradient cx="0" cy="0" gradientTransform="matrix(0.0026, 0.0, 0.0, 0.0026, 1.6, -18.35)" gradientUnits="userSpaceOnUse" id="gradient21" r="819.2" spreadMethod="pad">
      <stop offset="0.0" stop-color="#515165"/>
      <stop offset="1.0" stop-color="#282832"/>
    </radialGradient>
    <radialGradient cx="0" cy="0" gradientTransform="matrix(0.0076, 0.0, 0.0, 0.0076, 3.65, -16.35)" gradientUnits="userSpaceOnUse" id="gradient22" r="819.2" spreadMethod="pad">
      <stop offset="0.0" stop-color="#afafda"/>
      <stop offset="1.0" stop-color="#424252"/>
    </radialGradient>
    <radialGradient cx="0" cy="0" gradientTransform="matrix(0.0041, 0.0, 0.0, 0.0041, 4.15, -17.0)" gradientUnits="userSpaceOnUse" id="gradient23" r="819.2" spreadMethod="pad">
      <stop offset="0.0" stop-color="#7d7d9c"/>
      <stop offset="1.0" stop-color="#57576d"/>
    </radialGradient>
    <radialGradient cx="0" cy="0" gradientTransform="matrix(0.0016, 0.0, 0.0, 0.0016, 2.9, -16.05)" gradientUnits="userSpaceOnUse" id="gradient24" r="819.2" spreadMethod="pad">
      <stop offset="0.0" stop-color="#4e4e62"/>
      <stop offset="1.0" stop-color="#49495b"/>
    </radialGradient>
    <radialGradient cx="0" cy="0" gradientTransform="matrix(0.0018, 0.0, 0.0, 0.0018, 5.35, -14.95)" gradientUnits="userSpaceOnUse" id="gradient25" r="819.2" spreadMethod="pad">
      <stop offset="0.0" stop-color="#424252"/>
      <stop offset="1.0" stop-color="#353542"/>
    </radialGradient>
    <radialGradient cx="0" cy="0" gradientTransform="matrix(0.0087, 0.0, 0.0, 0.0087, 3.65, -5.05)" gradientUnits="userSpaceOnUse" id="gradient26" r="819.2" spreadMethod="pad">
      <stop offset="0.0" stop-color="#666680"/>
      <stop offset="1.0" stop-color="#535368"/>
    </radialGradient>
    <radialGradient cx="0" cy="0" gradientTransform="matrix(0.0052, 0.0, 0.0, 0.0052, 2.05, -10.5)" gradientUnits="userSpaceOnUse" id="gradient27" r="819.2" spreadMethod="pad">
      <stop offset="0.0" stop-color="#414d7b"/>
      <stop offset="1.0" stop-color="#414d7b"/>
    </radialGradient>
    <radialGradient cx="0" cy="0" gradientTransform="matrix(0.0042, 0.0, 0.0, 0.0042, 3.6, -9.75)" gradientUnits="userSpaceOnUse" id="gradient28" r="819.2" spreadMethod="pad">
      <stop offset="0.0" stop-color="#232942"/>
      <stop offset="1.0" stop-color="#1d2338"/>
    </radialGradient>
    <radialGradient cx="0" cy="0" gradientTransform="matrix(0.0041, 0.0, 0.0, 0.0041, 2.9, -5.9)" gradientUnits="userSpaceOnUse" id="gradient29" r="819.2" spreadMethod="pad">
      <stop offset="0.0" stop-color="#414d7b"/>
      <stop offset="1.0" stop-color="#404c7a"/>
    </radialGradient>
    <radialGradient cx="0" cy="0" gradientTransform="matrix(0.0033, 0.0, 0.0, 0.0033, 3.6, -5.5)" gradientUnits="userSpaceOnUse" id="gradient30" r="819.2" spreadMethod="pad">
      <stop offset="0.0" stop-color="#262d48"/>
      <stop offset="1.0" stop-color="#20263c"/>
    </radialGradient>
    <radialGradient cx="0" cy="0" gradientTransform="matrix(0.0096, 0.0, 0.0, 0.0096, 4.7, -5.1)" gradientUnits="userSpaceOnUse" id="gradient31" r="819.2" spreadMethod="pad">
      <stop offset="0.0" stop-color="#c6c6f7"/>
      <stop offset="1.0" stop-color="#9696bb"/>
    </radialGradient>
    <radialGradient cx="0" cy="0" gradientTransform="matrix(0.0035, 0.0, 0.0, 0.0035, 3.6, -7.9)" gradientUnits="userSpaceOnUse" id="gradient32" r="819.2" spreadMethod="pad">
      <stop offset="0.0" stop-color="#252b45"/>
      <stop offset="1.0" stop-color="#1d2338"/>
    </radialGradient>
    <radialGradient cx="0" cy="0" gradientTransform="matrix(0.0066, 0.0, 0.0, 0.0066, 1.1, -12.45)" gradientUnits="userSpaceOnUse" id="gradient33" r="819.2" spreadMethod="pad">
      <stop offset="0.0" stop-color="#4f4f62"/>
      <stop offset="1.0" stop-color="#15151a"/>
    </radialGradient>
    <radialGradient cx="0" cy="0" gradientTransform="matrix(0.0042, 0.0, 0.0, 0.0042, 2.85, -8.1)" gradientUnits="userSpaceOnUse" id="gradient34" r="819.2" spreadMethod="pad">
      <stop offset="0.0" stop-color="#414d7b"/>
      <stop offset="1.0" stop-color="#414c7a"/>
    </radialGradient>
    <radialGradient cx="0" cy="0" gradientTransform="matrix(0.0025, 0.0, 0.0, 0.0025, 2.9, -9.0)" gradientUnits="userSpaceOnUse" id="gradient35" r="819.2" spreadMethod="pad">
      <stop offset="0.0" stop-color="#08090e"/>
      <stop offset="1.0" stop-color="#08090e"/>
    </radialGradient>
    <radialGradient cx="0" cy="0" gradientTransform="matrix(0.0077, 0.0, 0.0, 0.0077, 5.8, -10.55)" gradientUnits="userSpaceOnUse" id="gradient36" r="819.2" spreadMethod="pad">
      <stop offset="0.0" stop-color="#15151a"/>
      <stop offset="1.0" stop-color="#15151a"/>
    </radialGradient>
    <radialGradient cx="0" cy="0" gradientTransform="matrix(0.0271, 0.0, 0.0, 0.0271, -9.9, -48.6)" gradientUnits="userSpaceOnUse" id="gradient37" r="819.2" spreadMethod="pad">
      <stop offset="0.0" stop-color="#f7f7f7"/>
      <stop offset="1.0" stop-color="#939393"/>
    </radialGradient>
    <radialGradient cx="0" cy="0" gradientTransform="matrix(0.0021, 0.0, 0.0, 0.0021, -9.8, -50.1)" gradientUnits="userSpaceOnUse" id="gradient38" r="819.2" spreadMethod="pad">
      <stop offset="0.0" stop-color="#565656"/>
      <stop offset="1.0" stop-color="#434343"/>
    </radialGradient>
    <radialGradient cx="0" cy="0" gradientTransform="matrix(0.0027, 0.0, 0.0, 0.0027, -0.45, -53.45)" gradientUnits="userSpaceOnUse" id="gradient39" r="819.2" spreadMethod="pad">
      <stop offset="0.0" stop-color="#e9e9e9"/>
      <stop offset="1.0" stop-color="#7f7f7f"/>
    </radialGradient>
    <radialGradient cx="0" cy="0" gradientTransform="matrix(0.0038, 0.0, 0.0, 0.0038, -2.15, -54.6)" gradientUnits="userSpaceOnUse" id="gradient40" r="819.2" spreadMethod="pad">
      <stop offset="0.0" stop-color="#d3d3d3"/>
      <stop offset="1.0" stop-color="#a7a7a7"/>
    </radialGradient>
    <radialGradient cx="0" cy="0" gradientTransform="matrix(0.002, 0.0, 0.0, 0.002, -2.15, -54.6)" gradientUnits="userSpaceOnUse" id="gradient41" r="819.2" spreadMethod="pad">
      <stop offset="0.0" stop-color="#959595"/>
      <stop offset="1.0" stop-color="#7c7c7c"/>
    </radialGradient>
    <radialGradient cx="0" cy="0" gradientTransform="matrix(0.0091, 0.0, 0.0, 0.0091, -1.9, -52.6)" gradientUnits="userSpaceOnUse" id="gradient42" r="819.2" spreadMethod="pad">
      <stop offset="0.0" stop-color="#5695b9"/>
      <stop offset="1.0" stop-color="#3b657d"/>
    </radialGradient>
    <radialGradient cx="0" cy="0" gradientTransform="matrix(0.0029, 0.0, 0.0, 0.0029, -4.2, -52.9)" gradientUnits="userSpaceOnUse" id="gradient43" r="819.2" spreadMethod="pad">
      <stop offset="0.0" stop-color="#3a647d"/>
      <stop offset="1.0" stop-color="#2c4c5f"/>
    </radialGradient>
    <radialGradient cx="0" cy="0" gradientTransform="matrix(0.0037, 0.0, 0.0, 0.0037, -4.4, -45.7)" gradientUnits="userSpaceOnUse" id="gradient44" r="819.2" spreadMethod="pad">
      <stop offset="0.0" stop-color="#6cbae7"/>
      <stop offset="1.0" stop-color="#4d86a6"/>
    </radialGradient>
    <radialGradient cx="0" cy="0" gradientTransform="matrix(0.0052, 0.0, 0.0, 0.0052, -5.05, -48.25)" gradientUnits="userSpaceOnUse" id="gradient45" r="819.2" spreadMethod="pad">
      <stop offset="0.0" stop-color="#5491b4"/>
      <stop offset="1.0" stop-color="#2f5266"/>
    </radialGradient>
    <radialGradient cx="0" cy="0" gradientTransform="matrix(0.017, 0.0, 0.0, 0.017, -3.75, -43.8)" gradientUnits="userSpaceOnUse" id="gradient46" r="819.2" spreadMethod="pad">
      <stop offset="0.0" stop-color="#9d9dc4"/>
      <stop offset="1.0" stop-color="#5d5d74"/>
    </radialGradient>
    <radialGradient cx="0" cy="0" gradientTransform="matrix(0.0038, 0.0, 0.0, 0.0038, 0.2, -43.9)" gradientUnits="userSpaceOnUse" id="gradient47" r="819.2" spreadMethod="pad">
      <stop offset="0.0" stop-color="#38436b"/>
      <stop offset="1.0" stop-color="#282f4b"/>
    </radialGradient>
    <radialGradient cx="0" cy="0" gradientTransform="matrix(0.0031, 0.0, 0.0, 0.0031, -1.45, -45.7)" gradientUnits="userSpaceOnUse" id="gradient48" r="819.2" spreadMethod="pad">
      <stop offset="0.0" stop-color="#7c7c9a"/>
      <stop offset="1.0" stop-color="#777795"/>
    </radialGradient>
    <radialGradient cx="0" cy="0" gradientTransform="matrix(0.0045, 0.0, 0.0, 0.0045, -1.0, -41.05)" gradientUnits="userSpaceOnUse" id="gradient49" r="819.2" spreadMethod="pad">
      <stop offset="0.0" stop-color="#7c7c9a"/>
      <stop offset="1.0" stop-color="#747490"/>
    </radialGradient>
    <radialGradient cx="0" cy="0" gradientTransform="matrix(0.0182, 0.0, 0.0, 0.0182, -6.65, -43.95)" gradientUnits="userSpaceOnUse" id="gradient50" r="819.2" spreadMethod="pad">
      <stop offset="0.0" stop-color="#fcfcfc"/>
      <stop offset="1.0" stop-color="#9c9c9c"/>
    </radialGradient>
    <radialGradient cx="0" cy="0" gradientTransform="matrix(0.0152, 0.0, 0.0, 0.0152, -7.9, -37.55)" gradientUnits="userSpaceOnUse" id="gradient51" r="819.2" spreadMethod="pad">
      <stop offset="0.0" stop-color="#3b4670"/>
      <stop offset="1.0" stop-color="#242b45"/>
    </radialGradient>
    <radialGradient cx="0" cy="0" gradientTransform="matrix(0.0251, 0.0, 0.0, 0.0251, -14.5, -47.2)" gradientUnits="userSpaceOnUse" id="gradient52" r="819.2" spreadMethod="pad">
      <stop offset="0.0" stop-color="#ffffff"/>
      <stop offset="1.0" stop-color="#838383"/>
    </radialGradient>
    <radialGradient cx="0" cy="0" gradientTransform="matrix(0.002, 0.0, 0.0, 0.002, -14.5, -47.2)" gradientUnits="userSpaceOnUse" id="gradient53" r="819.2" spreadMethod="pad">
      <stop offset="0.0" stop-color="#636363"/>
      <stop offset="1.0" stop-color="#5b5b5b"/>
    </radialGradient>
    <radialGradient cx="0" cy="0" gradientTransform="matrix(0.001, 0.0, 0.0, 0.001, -10.55, -38.35)" gradientUnits="userSpaceOnUse" id="gradient54" r="819.2" spreadMethod="pad">
      <stop offset="0.0" stop-color="#555555"/>
      <stop offset="1.0" stop-color="#3f3f3f"/>
    </radialGradient>
    <radialGradient cx="0" cy="0" gradientTransform="matrix(0.014, 0.0, 0.0, 0.014, -10.55, -38.35)" gradientUnits="userSpaceOnUse" id="gradient55" r="819.2" spreadMethod="pad">
      <stop offset="0.0" stop-color="#ffffff"/>
      <stop offset="1.0" stop-color="#a6a6a6"/>
    </radialGradient>
    <radialGradient cx="0" cy="0" gradientTransform="matrix(0.0103, 0.0, 0.0, 0.0103, -12.45, -33.45)" gradientUnits="userSpaceOnUse" id="gradient56" r="819.2" spreadMethod="pad">
      <stop offset="0.0" stop-color="#c5c5c5"/>
      <stop offset="1.0" stop-color="#bababa"/>
    </radialGradient>
    <radialGradient cx="0" cy="0" gradientTransform="matrix(0.0153, 0.0, 0.0, 0.0153, -17.25, -36.15)" gradientUnits="userSpaceOnUse" id="gradient57" r="819.2" spreadMethod="pad">
      <stop offset="0.0" stop-color="#b2b2b2"/>
      <stop offset="1.0" stop-color="#a4a4a4"/>
    </radialGradient>
    <radialGradient cx="0" cy="0" gradientTransform="matrix(0.0339, 0.0, 0.0, 0.0339, -18.85, -43.4)" gradientUnits="userSpaceOnUse" id="gradient58" r="819.2" spreadMethod="pad">
      <stop offset="0.0" stop-color="#cbcbcb"/>
      <stop offset="1.0" stop-color="#808080"/>
    </radialGradient>
    <radialGradient cx="0" cy="0" gradientTransform="matrix(0.0118, 0.0, 0.0, 0.0118, -9.15, -26.85)" gradientUnits="userSpaceOnUse" id="gradient59" r="819.2" spreadMethod="pad">
      <stop offset="0.0" stop-color="#3e4a76"/>
      <stop offset="1.0" stop-color="#222841"/>
    </radialGradient>
    <radialGradient cx="0" cy="0" gradientTransform="matrix(0.0035, 0.0, 0.0, 0.0035, -4.9, -33.15)" gradientUnits="userSpaceOnUse" id="gradient60" r="819.2" spreadMethod="pad">
      <stop offset="0.0" stop-color="#70c1f0"/>
      <stop offset="1.0" stop-color="#3a637b"/>
    </radialGradient>
    <radialGradient cx="0" cy="0" gradientTransform="matrix(0.0058, 0.0, 0.0, 0.0058, -1.65, -30.1)" gradientUnits="userSpaceOnUse" id="gradient61" r="819.2" spreadMethod="pad">
      <stop offset="0.0" stop-color="#15151a"/>
      <stop offset="1.0" stop-color="#15151a"/>
    </radialGradient>
    <radialGradient cx="0" cy="0" gradientTransform="matrix(0.0038, 0.0, 0.0, 0.0038, -2.9, -30.75)" gradientUnits="userSpaceOnUse" id="gradient62" r="819.2" spreadMethod="pad">
      <stop offset="0.0" stop-color="#15151a"/>
      <stop offset="1.0" stop-color="#15151a"/>
    </radialGradient>
    <radialGradient cx="0" cy="0" gradientTransform="matrix(0.002, 0.0, 0.0, 0.002, -4.35, -31.55)" gradientUnits="userSpaceOnUse" id="gradient63" r="819.2" spreadMethod="pad">
      <stop offset="0.0" stop-color="#599abf"/>
      <stop offset="1.0" stop-color="#31556a"/>
    </radialGradient>
    <radialGradient cx="0" cy="0" gradientTransform="matrix(0.0023, 0.0, 0.0, 0.0023, -2.4, -31.85)" gradientUnits="userSpaceOnUse" id="gradient64" r="819.2" spreadMethod="pad">
      <stop offset="0.0" stop-color="#6c6c87"/>
      <stop offset="1.0" stop-color="#4f4f62"/>
    </radialGradient>
    <radialGradient cx="0" cy="0" gradientTransform="matrix(0.0014, 0.0, 0.0, 0.0014, -6.7, -27.25)" gradientUnits="userSpaceOnUse" id="gradient65" r="819.2" spreadMethod="pad">
      <stop offset="0.0" stop-color="#0e181e"/>
      <stop offset="1.0" stop-color="#0e181e"/>
    </radialGradient>
    <radialGradient cx="0" cy="0" gradientTransform="matrix(0.0051, 0.0, 0.0, 0.0051, -4.55, -30.7)" gradientUnits="userSpaceOnUse" id="gradient66" r="819.2" spreadMethod="pad">
      <stop offset="0.0" stop-color="#69b5e2"/>
      <stop offset="1.0" stop-color="#497e9d"/>
    </radialGradient>
    <radialGradient cx="0" cy="0" gradientTransform="matrix(0.0022, 0.0, 0.0, 0.0022, -6.8, -26.9)" gradientUnits="userSpaceOnUse" id="gradient67" r="819.2" spreadMethod="pad">
      <stop offset="0.0" stop-color="#15151a"/>
      <stop offset="1.0" stop-color="#15151a"/>
    </radialGradient>
    <radialGradient cx="0" cy="0" gradientTransform="matrix(0.007, 0.0, 0.0, 0.007, -1.4, -26.3)" gradientUnits="userSpaceOnUse" id="gradient68" r="819.2" spreadMethod="pad">
      <stop offset="0.0" stop-color="#a8a8d1"/>
      <stop offset="1.0" stop-color="#6e6e8a"/>
    </radialGradient>
    <radialGradient cx="0" cy="0" gradientTransform="matrix(0.0041, 0.0, 0.0, 0.0041, -3.75, -22.6)" gradientUnits="userSpaceOnUse" id="gradient69" r="819.2" spreadMethod="pad">
      <stop offset="0.0" stop-color="#414d7a"/>
      <stop offset="1.0" stop-color="#272e4a"/>
    </radialGradient>
    <radialGradient cx="0" cy="0" gradientTransform="matrix(0.0042, 0.0, 0.0, 0.0042, -4.4, -19.7)" gradientUnits="userSpaceOnUse" id="gradient70" r="819.2" spreadMethod="pad">
      <stop offset="0.0" stop-color="#404c7a"/>
      <stop offset="1.0" stop-color="#262e49"/>
    </radialGradient>
    <radialGradient cx="0" cy="0" gradientTransform="matrix(0.0039, 0.0, 0.0, 0.0039, -11.3, -18.6)" gradientUnits="userSpaceOnUse" id="gradient71" r="819.2" spreadMethod="pad">
      <stop offset="0.0" stop-color="#424e7d"/>
      <stop offset="1.0" stop-color="#21263e"/>
    </radialGradient>
    <radialGradient cx="0" cy="0" gradientTransform="matrix(0.0037, 0.0, 0.0, 0.0037, -9.0, -18.25)" gradientUnits="userSpaceOnUse" id="gradient72" r="819.2" spreadMethod="pad">
      <stop offset="0.0" stop-color="#b6b6e3"/>
      <stop offset="1.0" stop-color="#535367"/>
    </radialGradient>
    <radialGradient cx="0" cy="0" gradientTransform="matrix(0.0066, 0.0, 0.0, 0.0066, -2.6, -12.6)" gradientUnits="userSpaceOnUse" id="gradient73" r="819.2" spreadMethod="pad">
      <stop offset="0.0" stop-color="#8787a9"/>
      <stop offset="1.0" stop-color="#535368"/>
    </radialGradient>
    <radialGradient cx="0" cy="0" gradientTransform="matrix(0.0031, 0.0, 0.0, 0.0031, -5.75, -9.65)" gradientUnits="userSpaceOnUse" id="gradient74" r="819.2" spreadMethod="pad">
      <stop offset="0.0" stop-color="#24242c"/>
      <stop offset="1.0" stop-color="#15151a"/>
    </radialGradient>
    <radialGradient cx="0" cy="0" gradientTransform="matrix(0.0104, 0.0, 0.0, 0.0104, -4.8, -11.25)" gradientUnits="userSpaceOnUse" id="gradient75" r="819.2" spreadMethod="pad">
      <stop offset="0.0" stop-color="#bbbbe9"/>
      <stop offset="1.0" stop-color="#505063"/>
    </radialGradient>
    <radialGradient cx="0" cy="0" gradientTransform="matrix(0.0032, 0.0, 0.0, 0.0032, -6.0, -10.05)" gradientUnits="userSpaceOnUse" id="gradient76" r="819.2" spreadMethod="pad">
      <stop offset="0.0" stop-color="#686882"/>
      <stop offset="1.0" stop-color="#676780"/>
    </radialGradient>
    <radialGradient cx="0" cy="0" gradientTransform="matrix(0.004, 0.0, 0.0, 0.004, -5.85, -2.75)" gradientUnits="userSpaceOnUse" id="gradient77" r="819.2" spreadMethod="pad">
      <stop offset="0.0" stop-color="#272e49"/>
      <stop offset="1.0" stop-color="#1f253b"/>
    </radialGradient>
    <radialGradient cx="0" cy="0" gradientTransform="matrix(0.0054, 0.0, 0.0, 0.0054, -4.2, -3.0)" gradientUnits="userSpaceOnUse" id="gradient78" r="819.2" spreadMethod="pad">
      <stop offset="0.0" stop-color="#3e4a76"/>
      <stop offset="1.0" stop-color="#3e4975"/>
    </radialGradient>
    <radialGradient cx="0" cy="0" gradientTransform="matrix(0.0029, 0.0, 0.0, 0.0029, -5.9, -1.45)" gradientUnits="userSpaceOnUse" id="gradient79" r="819.2" spreadMethod="pad">
      <stop offset="0.0" stop-color="#08090e"/>
      <stop offset="1.0" stop-color="#08090e"/>
    </radialGradient>
    <radialGradient cx="0" cy="0" gradientTransform="matrix(0.011, 0.0, 0.0, 0.011, -6.3, 4.0)" gradientUnits="userSpaceOnUse" id="gradient80" r="819.2" spreadMethod="pad">
      <stop offset="0.0" stop-color="#8080a0"/>
      <stop offset="1.0" stop-color="#535368"/>
    </radialGradient>
    <radialGradient cx="0" cy="0" gradientTransform="matrix(0.0054, 0.0, 0.0, 0.0054, -3.55, -2.25)" gradientUnits="userSpaceOnUse" id="gradient81" r="819.2" spreadMethod="pad">
      <stop offset="0.0" stop-color="#404c7a"/>
      <stop offset="1.0" stop-color="#404c7a"/>
    </radialGradient>
    <radialGradient cx="0" cy="0" gradientTransform="matrix(0.0037, 0.0, 0.0, 0.0037, -5.95, -0.4)" gradientUnits="userSpaceOnUse" id="gradient82" r="819.2" spreadMethod="pad">
      <stop offset="0.0" stop-color="#242a44"/>
      <stop offset="1.0" stop-color="#1e2338"/>
    </radialGradient>
    <radialGradient cx="0" cy="0" gradientTransform="matrix(0.0052, 0.0, 0.0, 0.0052, -3.45, 0.0)" gradientUnits="userSpaceOnUse" id="gradient83" r="819.2" spreadMethod="pad">
      <stop offset="0.0" stop-color="#424e7d"/>
      <stop offset="1.0" stop-color="#424e7d"/>
    </radialGradient>
    <radialGradient cx="0" cy="0" gradientTransform="matrix(0.0091, 0.0, 0.0, 0.0091, -4.7, 7.35)" gradientUnits="userSpaceOnUse" id="gradient84" r="819.2" spreadMethod="pad">
      <stop offset="0.0" stop-color="#c7c7f8"/>
      <stop offset="1.0" stop-color="#8c8cae"/>
    </radialGradient>
    <radialGradient cx="0" cy="0" gradientTransform="matrix(0.0039, 0.0, 0.0, 0.0039, -5.05, 1.8)" gradientUnits="userSpaceOnUse" id="gradient85" r="819.2" spreadMethod="pad">
      <stop offset="0.0" stop-color="#21273f"/>
      <stop offset="1.0" stop-color="#1e2338"/>
    </radialGradient>
    <radialGradient cx="0" cy="0" gradientTransform="matrix(0.0017, 0.0, 0.0, 0.0017, -3.95, 10.45)" gradientUnits="userSpaceOnUse" id="gradient86" r="819.2" spreadMethod="pad">
      <stop offset="0.0" stop-color="#6f6f8b"/>
      <stop offset="1.0" stop-color="#6f6f8a"/>
    </radialGradient>
  </defs>
</svg>
